<?xml version="1.0" encoding="UTF-8" standalone="no"?>
<!-- Created with Inkscape (http://www.inkscape.org/) -->

<svg
   width="210mm"
   height="297mm"
   viewBox="0 0 210 297"
   version="1.1"
   id="svg5"
   inkscape:version="1.1.2 (0a00cf5339, 2022-02-04, custom)"
   sodipodi:docname="midi clip edit clip widow icon.svg"
   xmlns:inkscape="http://www.inkscape.org/namespaces/inkscape"
   xmlns:sodipodi="http://sodipodi.sourceforge.net/DTD/sodipodi-0.dtd"
   xmlns="http://www.w3.org/2000/svg"
   xmlns:svg="http://www.w3.org/2000/svg">
  <sodipodi:namedview
     id="namedview7"
     pagecolor="#ffffff"
     bordercolor="#666666"
     borderopacity="1.0"
     inkscape:pageshadow="2"
     inkscape:pageopacity="0.0"
     inkscape:pagecheckerboard="0"
     inkscape:document-units="mm"
     showgrid="false"
     inkscape:zoom="0.57848045"
     inkscape:cx="233.37003"
     inkscape:cy="574.78174"
     inkscape:window-width="1680"
     inkscape:window-height="956"
     inkscape:window-x="-11"
     inkscape:window-y="-11"
     inkscape:window-maximized="1"
     inkscape:current-layer="layer1" />
  <defs
     id="defs2">
    <clipPath
       clipPathUnits="userSpaceOnUse"
       id="clipPath2813">
      <path
         id="path2815"
         style="fill:#00ffff;stroke:#000000;stroke-width:1.477;stroke-linecap:round;stroke-linejoin:round;stroke-miterlimit:4;stroke-dasharray:none;stroke-opacity:0.955017;paint-order:stroke markers fill"
         d="M 3.9129393,8.1617756 V 58.377831 H 64.069992 V 44.815353 c -0.01773,0.100589 -0.04294,0.195294 -0.07907,0.279053 -0.48111,1.115335 -1.315815,2.03354 -2.337842,2.669603 0.02434,0.196925 0.04617,0.392632 0.06098,0.584462 0.01693,0.219139 -0.01103,0.439664 -0.01654,0.65939 -0.637648,0.125473 -1.288579,0.557882 -1.912546,0.376205 -0.26275,-0.0765 -0.243126,-0.445034 -0.245978,-0.766363 -0.06447,-0.0078 -0.130807,-0.01749 -0.196371,-0.02842 -0.213913,0.06931 -0.426638,0.05541 -0.607716,-0.03101 -0.261377,0.227293 -0.520933,0.462233 -0.841809,0.439251 -0.433411,-0.03104 -0.645004,-0.582501 -0.967383,-0.873847 -0.103611,-0.790866 -0.146338,-1.003906 -0.161745,-1.784906 -0.136718,-0.08128 -0.270571,-0.167307 -0.398944,-0.261482 -0.07534,-0.05527 -0.03019,-0.188836 -0.01035,-0.280086 0.03399,-0.154156 0.07007,-0.309054 0.114721,-0.460954 -0.01924,-0.04104 -0.03744,-0.08121 -0.05374,-0.119372 -0.116369,-0.272447 -0.171479,-0.567055 -0.257349,-0.850596 -0.115083,-0.600522 0.07176,-1.050724 0.33383,-1.563211 0.01315,-0.02572 -0.06249,0.09691 -0.05013,0.0708 0.05962,-0.125862 0.09761,-0.268854 0.192235,-0.371038 0.09201,-0.09936 0.199544,-0.182015 0.309542,-0.261999 0.02762,-0.05795 0.05909,-0.116652 0.09509,-0.175699 0.22494,-0.193463 0.423426,-0.422878 0.674893,-0.580326 0.265079,-0.165968 0.566108,-0.266602 0.85783,-0.379304 0.843833,-0.326128 1.747104,-0.515673 2.579169,-0.862481 0.06689,-0.0452 0.133665,-0.09064 0.200506,-0.135909 -0.24526,-0.786582 -0.114355,-1.671008 -0.07235,-2.471168 0.04597,-0.587248 0.0054,-0.976927 0.301273,-1.225765 -0.02455,-0.266689 -0.02768,-0.531923 -0.0067,-0.799952 -0.02928,-0.01558 -0.0567,-0.03183 -0.08423,-0.04806 -0.0126,-0.0011 -0.02516,-0.0024 -0.03773,-0.0036 -0.445833,0.144391 -0.91414,0.229219 -1.379243,0.241329 -0.130739,0.0034 -0.124759,-0.235942 -0.143661,-0.365353 -0.01103,-0.07557 -0.01458,-0.151566 -0.01654,-0.227893 -0.02687,-0.01585 -0.01886,-0.06547 -0.0021,-0.125056 0.0011,-0.123084 0.0057,-0.246705 0.0031,-0.369488 5.29e-4,-0.06392 5.29e-4,-0.127796 0.0011,-0.191719 -0.0505,-0.05258 -0.100307,-0.116613 -0.149863,-0.189651 -0.126365,-0.04776 -0.252825,-0.09385 -0.380855,-0.13281 -0.04775,-0.13071 -0.10623,-0.258509 -0.162266,-0.387056 -0.24946,-0.125598 -0.495522,-0.257345 -0.740005,-0.392224 -0.049,0.35637 -0.191061,0.725686 -0.514697,1.275374 0.07813,0.126132 0.04831,0.217199 -0.05478,0.280603 0.0058,0.0038 0.01185,0.0069 0.01757,0.01085 0.124108,0.08599 0.151458,0.222959 0.139528,0.380339 0.929825,-0.942613 2.143651,0.114557 1.29036,1.619022 -0.152522,0.268912 -0.293008,0.47474 -0.398942,0.719336 0.204968,0.491855 -0.05075,0.544071 -0.510048,1.309479 -0.15721,0.09365 -0.305665,0.204483 -0.468188,0.28784 -0.0013,0.0021 -0.0026,0.0043 -0.0041,0.0062 -0.0041,0.245597 -0.02368,0.490802 -0.07183,0.73329 -0.03914,0.197035 -0.01823,0.433901 -0.152961,0.582909 -0.291367,0.32226 -0.706504,0.505373 -1.059884,0.758095 -0.229788,-0.04186 -0.393107,0.05727 -0.622183,0.0987 -0.708144,0.128053 -0.523769,0.09257 -1.246955,-0.07079 -0.05548,-0.03308 -0.112083,-0.06444 -0.168463,-0.09612 0.02008,0.122158 0.0149,0.227669 -0.0832,0.27182 -1.798756,0.809619 -1.944092,0.684969 -1.990058,-0.02946 h -5.29e-4 c -0.109286,-0.01691 -0.09859,-0.134171 -0.06563,-0.270786 -0.241631,0.158277 -0.492927,0.293471 -0.771012,0.365353 -0.199726,0.05163 -0.04241,-0.410985 -0.08475,-0.612881 -0.01103,-0.05262 -0.02294,-0.105021 -0.0341,-0.157615 -0.0045,-0.0011 -0.0089,-0.0026 -0.01344,-0.0036 -0.0037,-0.03947 -0.0084,-0.07889 -0.01291,-0.118337 -0.193122,-0.900779 -0.403501,-1.798132 -0.607717,-2.696477 -0.03111,-0.136856 -0.06284,-0.273482 -0.09405,-0.410311 -0.176927,0.289052 -0.366879,0.526188 -0.544669,0.590145 -1.332881,0.479476 -1.389022,0.13462 -2.029333,-0.647507 -0.06537,-0.07985 -0.0958,-0.193751 -0.181901,-0.250631 -0.08063,-0.05326 0.109591,0.159623 0.16433,0.239262 -0.202901,-0.154503 -0.432326,-0.279373 -0.608748,-0.463536 -0.768053,-0.801762 -0.964768,-1.950572 -1.248502,-2.97243 -0.479827,-1.728084 -0.302295,-0.937554 -0.568958,-2.324404 -0.247626,0.0021 -0.518408,-0.09373 -0.768429,-0.101804 -0.554728,-0.222898 -0.871014,-0.334862 -1.064017,-0.758092 -0.09756,-0.04019 -0.195334,-0.0838 -0.294039,-0.135393 -0.087,-0.05465 -0.175551,-0.10723 -0.263033,-0.161232 -0.571399,-0.06939 -1.103384,-0.291518 -1.679485,-0.258897 -0.388993,0.199864 -0.448082,0.202038 -0.81597,-0.440283 -0.04429,8e-6 -0.08865,-0.0013 -0.133326,-0.0047 -0.116139,-0.0087 -0.255341,-0.04619 -0.374137,-0.08423 -0.09046,0.01701 -0.180533,0.03196 -0.189653,-0.03772 -2.64e-4,-0.0028 -7.94e-4,-0.0055 -0.0011,-0.0083 -0.0079,-0.0034 -0.01545,-0.0066 -0.0217,-0.0078 -0.08302,-0.04795 -0.05861,-0.04057 0.01913,-0.01291 -0.0061,-0.04895 -0.01021,-0.09815 -0.01497,-0.147281 H 39.91644 c -1.970834,0 -1.970834,-1.991092 0,-1.991092 h 1.977657 c 0.147346,-0.03659 0.287737,-0.05857 0.418063,-0.06408 0.726755,-0.786863 0.917183,-0.778695 1.494483,-0.371039 0.278286,0.196512 0.423574,0.313836 0.56379,0.435116 h 0.123507 c 0.502487,0 0.876158,0.129598 1.122411,0.322461 0.269885,0.128584 0.489381,0.353091 0.716235,0.642339 0.09977,0.127204 0.1363,0.232775 0.181901,0.334862 0.07274,-0.004 0.145687,-0.0061 0.218593,-0.0078 0.03903,-0.08689 0.08475,-0.169588 0.13539,-0.250632 -0.183322,-0.09022 -0.363627,-0.187778 -0.539501,-0.29714 -0.391525,-0.243444 -0.768337,-0.542031 -1.034045,-0.918806 -0.245001,-0.347416 -0.303136,-0.794501 -0.454752,-1.191659 0.02763,-0.348111 0.01826,-0.701272 0.0832,-1.044381 0.04592,-0.242574 0.153805,-0.469539 0.247015,-0.698148 0.02543,-0.06239 0.05753,-0.121392 0.09043,-0.180351 0.003,-0.02902 0.03211,-0.108785 0.04703,-0.14211 0.0094,-0.02105 0.0597,-0.06824 0.05064,-0.04703 -0.02786,0.06522 -0.06303,0.127073 -0.09767,0.189136 -0.0011,0.01133 0.0013,0.016 0.01085,0.0057 0.333629,-0.371985 0.630687,-0.77473 0.946195,-1.162203 1.26374,-0.0345 0.814382,-0.03637 1.486215,0.0016 -0.02326,-0.09395 -0.03738,-0.181504 0.0052,-0.227893 -0.06382,-0.149583 -0.08526,-0.150258 0.20619,-0.07855 0.101658,-0.03213 0.179183,-0.05613 0.26975,-0.08475 -0.16729,-0.387712 -0.312134,-0.790117 -0.390675,-1.192175 -0.09556,-0.216199 -0.161706,-0.444116 -0.249079,-0.692464 -0.617517,-1.72921 -0.12019,-0.37426 -0.542087,-1.411284 -0.06204,-0.09767 -0.119112,-0.189804 -0.171047,-0.273368 -0.320855,-0.516217 -0.572725,-1.072449 -0.858864,-1.608687 -0.17094,-0.539042 -0.426022,-1.007047 -0.294556,-1.517737 -0.07133,-0.08801 -0.148582,-0.180428 -0.236677,-0.280603 0.01955,-0.05703 0.03039,-0.117927 0.05891,-0.171049 0.01431,-0.02668 0.09623,0.03414 0.09043,0.0041 -0.117459,-0.604893 -0.509754,-1.128612 -0.692463,-1.711006 -0.359499,-1.145911 0.133549,-1.914798 0.723985,-1.920813 0.378489,-0.0039 0.797052,0.305709 1.056783,1.030428 0.11317,0.315769 0.267721,0.626698 0.414446,0.941544 v 5.3e-4 c 0.224719,0.06219 0.478668,0.157122 0.76998,0.28577 0.191508,0.08458 0.1641,0.824437 0.155546,1.119828 1.192498,0.579064 0.348342,0.139186 1.681551,0.936377 0.541274,0.323658 0.783828,0.3815 1.22318,0.841293 0.0044,0.0046 0.0081,0.0094 0.01241,0.01395 0.221433,-0.08154 0.455449,-0.133775 0.68833,-0.16278 0.448596,-0.05587 0.830294,-0.04734 1.179256,0.06046 0.298968,-0.219248 0.716825,-0.216709 1.156001,-0.180351 0.772184,-0.05146 1.558719,-0.138804 2.336292,-0.134875 0.777574,0.0039 1.545974,0.09904 2.280997,0.411861 1.319186,0.561441 1.242864,1.557164 0.379307,1.83348 0.832162,0.166121 1.467236,0.338386 2.011246,1.230416 0.196305,0.321883 0.154043,0.738342 0.230994,1.107426 0.05679,0.272407 0.09113,0.471505 0.106969,0.62115 0.04337,-0.0017 0.08711,-0.0049 0.130225,-0.0052 0.220099,-0.0013 0.43606,0.01921 0.643371,0.09043 0.222036,0.07628 0.21063,0.426866 0.252699,0.657841 0.117229,0.643598 0.07395,1.310916 -0.06408,1.972489 0.328002,0.414464 0.685226,0.785646 1.573033,1.786455 0.06474,0.05652 0.129116,0.114189 0.192751,0.172082 0.01326,0.0077 0.02312,0.01423 0.03566,0.0217 V 8.1617756 Z M 40.294698,29.811102 c 7.93e-4,0.0069 0.0016,0.01376 0.0026,0.02066 0.02429,0.01045 0.05176,0.02553 0.05478,0.0062 2.65e-4,-0.0019 7.94e-4,-0.0038 0.0011,-0.0057 -0.02148,-0.0076 -0.04152,-0.01519 -0.05839,-0.02119 z m 7.508586,-14.844057 c -0.01831,5.02e-4 -0.03709,0.02372 -0.05064,0.0832 -0.01106,0.04856 -0.0058,0.09863 -0.0021,0.148828 0.0127,-0.0026 0.02556,-0.0045 0.03824,-0.0072 0.119015,-0.02554 0.06941,-0.226324 0.01447,-0.224792 z m -1.999361,0.42478 c -0.316463,0.127738 -0.221329,0.251526 0.03876,0.380855 0.0079,-0.01241 0.01381,-0.02472 0.02223,-0.03721 -0.02167,-0.07636 -0.04072,-0.15328 -0.05116,-0.232027 -0.0049,-0.03695 -0.0068,-0.07433 -0.0098,-0.111621 z m 16.293579,7.720976 c -0.05521,0.0041 -0.200832,0.08844 -0.392742,0.202055 0.0517,0.0091 0.103023,0.01845 0.154514,0.02842 -0.04308,0.04009 -0.05809,0.219733 -0.01963,0.175183 0.261556,-0.303067 0.323437,-0.410525 0.257865,-0.40566 z m -15.013038,2.068607 c -0.06143,0.127209 -0.130392,0.252315 -0.194302,0.387057 -0.04005,0.08443 -0.07917,0.169131 -0.118856,0.253731 -0.148548,0.377568 -0.197149,0.384054 0.315225,0.732255 0.01669,-0.104426 0.03109,-0.208569 0.03876,-0.312125 0.02273,-0.307104 0.07031,-0.429853 0.133324,-0.425814 0.07198,0.0046 0.164859,0.182281 0.264067,0.431498 0.02246,-0.01378 0.04492,-0.0277 0.06821,-0.04031 -0.0037,-0.062 -0.0087,-0.124095 -0.01654,-0.186035 -0.02968,-0.23359 -0.0721,-0.520945 -0.05839,-0.797367 -0.14468,-0.0092 -0.288608,-0.0221 -0.431499,-0.04289 z m 9.591662,0.747242 c -0.03192,0.122398 -0.158541,0.596358 -0.208772,0.783413 0.113842,-0.0032 0.22774,-0.0056 0.341582,-0.0088 -0.04071,-0.258842 -0.08424,-0.517203 -0.13281,-0.774629 z m -8.573119,6.747908 c 0.05378,0.181628 0.134059,0.460097 0.26975,0.955497 0.106077,0.387282 0.296075,1.240047 0.48731,1.693953 0.04913,0.11662 0.142743,0.211561 0.188103,0.329697 0.0089,0.0231 -0.0241,0.04351 -0.03617,0.06511 0.120264,0.07404 0.310973,0.16428 0.494543,0.278019 0.05842,-0.118155 0.116769,-0.236339 0.175184,-0.354499 0.111027,-0.345046 0.277275,-0.853604 0.438732,-1.363742 -0.0799,-0.343186 -0.160092,-0.686281 -0.240295,-1.029393 -0.591997,-0.192601 -1.18219,-0.390525 -1.777153,-0.574643 z m 10.812777,5.139737 c -0.02109,0.05723 -0.04078,0.116737 -0.05788,0.180353 -0.01214,0.04514 0.07901,-0.07481 0.07131,-0.120925 -0.0029,-0.01728 -0.0078,-0.03771 -0.01344,-0.05943 z m -9.351367,2.958478 c 1.220245,-0.01953 1.331129,1.635067 -0.295074,2.108396 -0.106016,0.03086 -0.212638,0.05853 -0.320392,0.08217 -0.201033,0.279934 -0.555493,0.435559 -1.011309,0.434599 -0.210357,0 -0.420613,2.25e-4 -0.630968,5.29e-4 -0.207221,0.03447 -0.416295,0.02453 -0.655775,0.02635 -0.205689,-0.005 -0.412054,-0.01611 -0.618566,-0.02532 -0.09183,9.3e-5 -0.183608,5.29e-4 -0.275437,5.29e-4 -0.195966,1.4e-4 -0.517136,0.182679 -0.588076,0 -0.0011,-0.0024 -0.0016,-0.0048 -0.0026,-0.0072 -0.02763,0.0013 -0.05559,0.0028 -0.0832,0.0047 0.0045,-0.0842 0.0063,-0.169162 0.0062,-0.254249 -0.02732,-0.113956 -0.04558,-0.229767 -0.05788,-0.347266 -0.268478,-0.302204 -0.282517,-0.712576 -0.02946,-1.039214 -0.0027,-0.116663 -0.0079,-0.23299 -0.0186,-0.347782 0.06984,-0.0031 0.139928,-0.0055 0.209807,-0.0072 0.04479,-0.109768 0.196816,-0.07047 0.3483,-0.03152 0.191627,-0.07716 0.421579,-0.129948 0.69143,-0.147278 0.368589,-0.02368 0.137134,-0.0094 0.695566,-0.03824 0.02614,-0.0011 0.05523,-0.0028 0.08526,-0.0047 0.133747,-0.05103 0.318175,-0.08104 0.656291,-0.179835 0.45172,0.04181 0.740738,0.121833 1.209228,-0.0708 0.256331,-0.105389 0.485552,-0.153384 0.685231,-0.156578 z m 9.390123,5.327838 c -5.29e-4,0.01191 -7.93e-4,0.02627 -0.0011,0.03927 0.0034,-0.0026 0.0069,-0.0052 0.01035,-0.0078 -0.0032,-0.01056 -0.0062,-0.02098 -0.0093,-0.03152 z" />
    </clipPath>
  </defs>
  <g
     inkscape:label="Layer 1"
     inkscape:groupmode="layer"
     id="layer1">
    <g
       id="g2478">
      <g
         id="g1795">
        <path
           id="path1501"
           style="fill:none;stroke:#000000;stroke-width:1.08252;stroke-linecap:round;stroke-linejoin:round;stroke-miterlimit:4;stroke-dasharray:none;stroke-opacity:0.955017;paint-order:stroke markers fill"
           d="m 32.706568,274.14733 h 5.387329 v 2.73319 h -5.387329 z m -10.96043,-0.80388 h 6.687723 v 4.01941 h -6.687723 z m 25.450502,0.16078 h 5.573102 v 4.01941 H 47.19664 Z m -11.889289,-7.39569 h 9.102734 v 4.18018 h -9.102734 z m -12.818134,-2.41166 h 8.359654 v 3.53708 h -8.359654 z m -5.01579,-3.53706 h 37.897101 v 19.93624 H 17.473427 Z m 37.802501,-6.02911 a 3.3438614,4.0997914 0 0 1 -3.343863,4.09979 3.3438614,4.0997914 0 0 1 -3.343862,-4.09979 3.3438614,4.0997914 0 0 1 3.343862,-4.09979 3.3438614,4.0997914 0 0 1 3.343863,4.09979 z m -7.430804,-5.94872 a 3.3438614,4.0997914 0 0 1 -3.343859,4.09979 3.3438614,4.0997914 0 0 1 -3.343861,-4.09979 3.3438614,4.0997914 0 0 1 3.343861,-4.09979 3.3438614,4.0997914 0 0 1 3.343859,4.09979 z m -9.102729,-1.76854 a 3.3438614,4.0997914 0 0 1 -3.343862,4.09979 3.3438614,4.0997914 0 0 1 -3.343861,-4.09979 3.3438614,4.0997914 0 0 1 3.343861,-4.09979 3.3438614,4.0997914 0 0 1 3.343862,4.09979 z m -10.588894,2.7332 a 3.3438614,4.0997914 0 0 1 -3.343862,4.09979 3.3438614,4.0997914 0 0 1 -3.343861,-4.09979 3.3438614,4.0997914 0 0 1 3.343861,-4.09979 3.3438614,4.0997914 0 0 1 3.343862,4.09979 z m -8.173885,5.14483 a 3.3438614,4.0997914 0 0 1 -3.34386,4.0998 3.3438614,4.0997914 0 0 1 -3.343861,-4.0998 3.3438614,4.0997914 0 0 1 3.343861,-4.09979 3.3438614,4.0997914 0 0 1 3.34386,4.09979 z M 34.84113,239.41974 a 29.537443,25.643793 0 0 0 -29.5373136,25.64366 29.537443,25.643793 0 0 0 17.6988446,23.48999 14.490066,11.415105 0 0 1 0.218707,-0.3381 14.490066,11.415105 0 0 1 0.82603,-1.00214 14.490066,11.415105 0 0 1 0.954361,-0.92862 14.490066,11.415105 0 0 1 1.072527,-0.84472 14.490066,11.415105 0 0 1 1.178718,-0.75206 14.490066,11.415105 0 0 1 1.272031,-0.65075 14.490066,11.415105 0 0 1 1.351335,-0.54243 14.490066,11.415105 0 0 1 1.415951,-0.42823 14.490066,11.415105 0 0 1 1.465207,-0.30915 14.490066,11.415105 0 0 1 1.497968,-0.18694 14.490066,11.415105 0 0 1 1.514688,-0.0626 14.490066,11.415105 0 0 1 0.529145,0.008 14.490066,11.415105 0 0 1 0.528472,0.0229 14.490066,11.415105 0 0 1 0.527113,0.0379 14.490066,11.415105 0 0 1 0.524853,0.0532 14.490066,11.415105 0 0 1 0.52214,0.0682 14.490066,11.415105 0 0 1 0.518753,0.0833 14.490066,11.415105 0 0 1 0.514465,0.098 14.490066,11.415105 0 0 1 0.509488,0.11283 14.490066,11.415105 0 0 1 0.504067,0.12749 14.490066,11.415105 0 0 1 0.49774,0.14177 14.490066,11.415105 0 0 1 0.490736,0.15604 14.490066,11.415105 0 0 1 0.483282,0.17011 14.490066,11.415105 0 0 1 0.475149,0.18381 14.490066,11.415105 0 0 1 0.466108,0.1973 14.490066,11.415105 0 0 1 0.456848,0.21079 14.490066,11.415105 0 0 1 0.446678,0.2237 14.490066,11.415105 0 0 1 0.436062,0.2364 14.490066,11.415105 0 0 1 0.424764,0.24873 14.490066,11.415105 0 0 1 0.413013,0.26085 14.490066,11.415105 0 0 1 0.400586,0.27258 14.490066,11.415105 0 0 1 0.38771,0.28374 14.490066,11.415105 0 0 1 0.374152,0.29486 14.490066,11.415105 0 0 1 0.360371,0.30543 14.490066,11.415105 0 0 1 0.345914,0.3156 14.490066,11.415105 0 0 1 0.331225,0.32538 14.490066,11.415105 0 0 1 0.315631,0.33458 14.490066,11.415105 0 0 1 0.300049,0.34356 14.490066,11.415105 0 0 1 0.273384,0.33868 29.537443,25.643793 0 0 0 16.250584,-22.89995 29.537443,25.643793 0 0 0 -29.537536,-25.64366 z" />
        <path
           style="fill:#ffffff;stroke:#000000;stroke-width:3.1854;stroke-linecap:round;stroke-linejoin:round;stroke-opacity:0.955017;paint-order:stroke markers fill"
           d="m 75.127388,1081.8658 c -19.180382,-9.9299 -34.615876,-25.4023 -43.481406,-43.5853 -6.073052,-12.4556 -8.469414,-22.7937 -8.469414,-36.5377 0,-13.7226 2.391573,-24.06191 8.451503,-36.53772 14.732952,-30.33131 47.295612,-51.85728 85.741649,-56.68064 46.76839,-5.86746 94.93909,17.61443 113.44326,55.30046 7.03275,14.32304 9.49482,24.18994 9.46162,37.9179 -0.0336,13.8917 -2.53147,23.8049 -9.6499,38.2972 -4.66808,9.5037 -7.47254,13.3333 -16.13621,22.0349 -6.4383,6.4664 -14.43182,12.9379 -20.70757,16.7646 l -10.22142,6.2326 -5.46405,-4.8096 c -11.15224,-9.8166 -25.10984,-14.5497 -42.90584,-14.5497 -18.5534,0 -32.38613,4.9332 -43.751032,15.6031 l -6.175055,5.7975 z M 211.631,1020.9251 211.30988,981.0381 H 137.62546 63.94103 l -0.321122,39.887 -0.321124,39.887 h 74.326676 74.32667 z M 70.128129,976.9146 c 10.92643,-6.66293 10.066414,-26.93158 -1.37306,-32.35997 -5.674827,-2.69288 -11.269819,-1.71685 -15.484543,2.70123 -13.886506,14.55652 0.401189,39.69384 16.857603,29.65874 z m 135.696011,-2.38264 c 4.07384,-4.07383 6.57734,-12.21317 5.42874,-17.64979 -4.39091,-20.78336 -29.78215,-17.96014 -29.78215,3.31144 0,11.46734 5.296,17.79967 14.88663,17.79967 4.97464,0 6.59959,-0.59412 9.46678,-3.46132 z M 103.55326,955.43324 c 6.24701,-5.98501 6.95733,-18.63705 1.46324,-26.06267 -1.27741,-1.72649 -4.46517,-3.89301 -7.083918,-4.8145 -16.194418,-5.69848 -26.620434,19.64414 -13.001152,31.60203 3.850344,3.38065 5.013259,3.76631 9.747717,3.23267 3.644692,-0.41081 6.502323,-1.68521 8.874113,-3.95753 z m 73.73798,-3.32085 c 13.75106,-12.6282 2.01076,-37.81259 -14.42574,-30.94498 -6.22955,2.60287 -9.3968,8.2481 -9.40247,16.75874 -0.01,15.45136 13.61648,23.56413 23.82821,14.18624 z m -35.2035,-5.44016 c 3.77306,-2.44181 6.49904,-8.94697 6.49904,-15.5091 0,-21.44543 -25.36148,-24.4354 -29.78216,-3.51114 -1.0096,4.77874 0.96191,12.44788 4.2865,16.67441 4.2649,5.42194 12.64451,6.45671 18.99662,2.34583 z"
           id="path1411"
           transform="scale(0.26458333)" />
        <path
           style="fill:#ffffff;stroke:#000000;stroke-width:3.1854;stroke-linecap:round;stroke-linejoin:round;stroke-opacity:0.955017;paint-order:stroke markers fill"
           d="m 68.203766,1020.6206 v -35.31977 h 69.421694 69.42169 v 35.31977 35.3198 H 137.62546 68.203766 Z m 41.409434,20.0583 v -10.3898 l -14.919579,0.3419 -14.919574,0.342 -0.364314,8.4046 c -0.200372,4.6226 -0.08055,9.1441 0.266257,10.0479 0.480839,1.2531 4.110073,1.6432 15.283888,1.6432 H 109.6132 Z m 92.56225,0.6052 v -9.7846 l -13.09269,0.3457 -13.09269,0.3457 -0.36717,7.7882 c -0.20194,4.2836 -0.0821,8.5311 0.26626,9.439 0.47751,1.2443 3.79062,1.6506 13.45986,1.6506 h 12.82643 z m -56.02452,0 v -7.3501 l -12.48373,0.3471 -12.48372,0.3471 -0.38132,5.3155 c -0.62016,8.6449 -0.55113,8.6906 13.1313,8.6906 h 12.21747 z m 24.10375,-27.6955 0.35423,-10.0783 -19.84102,0.3349 -19.84102,0.3349 -0.36431,8.4046 c -0.20038,4.6225 -0.0752,9.1581 0.27817,10.0789 0.51523,1.3427 4.44718,1.6079 19.85111,1.3388 l 19.20861,-0.3356 z m -51.14921,-10.322 -0.35784,-8.82994 -17.96439,-0.33704 -17.964382,-0.33704 v 9.16702 9.167 h 18.322222 18.32222 z"
           id="path1450"
           transform="scale(0.26458333)" />
        <path
           style="fill:#ffffff;stroke:#000000;stroke-width:1.96797;stroke-linecap:round;stroke-linejoin:round;stroke-opacity:0.955017;paint-order:stroke markers fill"
           d="m 87.283731,1003.3867 v -4.13846 h 13.544029 13.54403 v 4.13846 4.1384 H 100.82776 87.283731 Z"
           id="path1489"
           transform="scale(0.26458333)" />
        <path
           style="fill:#ffffff;stroke:#000000;stroke-width:1.96797;stroke-linecap:round;stroke-linejoin:round;stroke-opacity:0.955017;paint-order:stroke markers fill"
           d="m 84.273948,1040.6328 v -5.2672 h 10.534243 10.534239 v 5.2672 5.2671 H 94.808191 84.273948 Z"
           id="path1528"
           transform="scale(0.26458333)" />
        <path
           style="fill:#ffffff;stroke:#000000;stroke-width:1.96797;stroke-linecap:round;stroke-linejoin:round;stroke-opacity:0.955017;paint-order:stroke markers fill"
           d="m 136.19272,1013.5447 v -5.2671 h 14.6727 14.67269 v 5.2671 5.2671 h -14.67269 -14.6727 z"
           id="path1567"
           transform="scale(0.26458333)" />
        <path
           style="fill:#ffffff;stroke:#000000;stroke-width:1.96797;stroke-linecap:round;stroke-linejoin:round;stroke-opacity:0.955017;paint-order:stroke markers fill"
           d="m 180.58703,1041.3852 v -5.2671 h 8.27691 8.2769 v 5.2671 5.2671 h -8.2769 -8.27691 z"
           id="path1606"
           transform="scale(0.26458333)" />
        <path
           style="fill:#ffffff;stroke:#000000;stroke-width:1.96797;stroke-linecap:round;stroke-linejoin:round;stroke-opacity:0.955017;paint-order:stroke markers fill"
           d="m 125.65848,1041.3852 v -3.0098 h 7.90068 7.90068 v 3.0098 3.0098 h -7.90068 -7.90068 z"
           id="path1645"
           transform="scale(0.26458333)" />
      </g>
      <path
         sodipodi:type="star"
         style="fill:#ffffff;stroke:#000000;stroke-width:8.09562;stroke-linecap:round;stroke-linejoin:round;stroke-miterlimit:4;stroke-dasharray:none;stroke-opacity:0.955017;paint-order:stroke markers fill"
         id="path2448"
         inkscape:flatsided="false"
         sodipodi:sides="8"
         sodipodi:cx="635.81683"
         sodipodi:cy="37.622299"
         sodipodi:r1="129.97946"
         sodipodi:r2="73.515213"
         sodipodi:arg1="0.8345389"
         sodipodi:arg2="1.227238"
         inkscape:rounded="3.46945e-18"
         inkscape:randomized="0"
         d="m 723.10057,133.93538 -62.5209,-27.09395 -31.14755,60.60342 -25.05064,-63.36726 -64.87773,20.82844 L 566.5977,62.385134 505.99428,31.237583 569.36155,6.1869487 548.5331,-58.690786 l 62.5209,27.093951 31.14755,-60.603421 25.05063,63.367267 64.87774,-20.828445 -27.09395,62.520898 60.60342,31.147551 -63.36727,25.050635 z"
         transform="matrix(0.18705424,0,0,0.17794782,-59.559865,256.98603)" />
    </g>
    <g
       id="g2510"
       transform="translate(0,-0.52916667)">
      <g
         id="g1354">
        <path
           id="path1503"
           style="fill:none;stroke:#000000;stroke-width:1.08252;stroke-linecap:round;stroke-linejoin:round;stroke-miterlimit:4;stroke-dasharray:none;stroke-opacity:0.955017;paint-order:stroke markers fill"
           d="m 155.92545,273.29754 h 5.38733 v 2.73319 h -5.38733 z m -10.96043,-0.80388 h 6.68773 v 4.01941 h -6.68773 z m 25.4505,0.16078 h 5.57311 v 4.01941 h -5.57311 z m -11.88928,-7.39569 h 9.10273 v 4.18018 h -9.10273 z m -12.81814,-2.41166 h 8.35966 v 3.53708 h -8.35966 z m -5.01579,-3.53706 h 37.8971 v 19.93624 h -37.8971 z m 37.8025,-6.02911 a 3.3438614,4.0997914 0 0 1 -3.34386,4.09979 3.3438614,4.0997914 0 0 1 -3.34386,-4.09979 3.3438614,4.0997914 0 0 1 3.34386,-4.09979 3.3438614,4.0997914 0 0 1 3.34386,4.09979 z m -7.4308,-5.94872 a 3.3438614,4.0997914 0 0 1 -3.34386,4.09979 3.3438614,4.0997914 0 0 1 -3.34386,-4.09979 3.3438614,4.0997914 0 0 1 3.34386,-4.09979 3.3438614,4.0997914 0 0 1 3.34386,4.09979 z m -9.10273,-1.76854 a 3.3438614,4.0997914 0 0 1 -3.34386,4.09979 3.3438614,4.0997914 0 0 1 -3.34386,-4.09979 3.3438614,4.0997914 0 0 1 3.34386,-4.09979 3.3438614,4.0997914 0 0 1 3.34386,4.09979 z m -10.58889,2.7332 a 3.3438614,4.0997914 0 0 1 -3.34387,4.09979 3.3438614,4.0997914 0 0 1 -3.34386,-4.09979 3.3438614,4.0997914 0 0 1 3.34386,-4.09979 3.3438614,4.0997914 0 0 1 3.34387,4.09979 z m -8.17389,5.14483 a 3.3438614,4.0997914 0 0 1 -3.34386,4.0998 3.3438614,4.0997914 0 0 1 -3.34386,-4.0998 3.3438614,4.0997914 0 0 1 3.34386,-4.09979 3.3438614,4.0997914 0 0 1 3.34386,4.09979 z m 14.86151,-14.87174 a 29.537443,25.643793 0 0 0 -29.53731,25.64366 29.537443,25.643793 0 0 0 17.69885,23.48999 14.490066,11.415105 0 0 1 0.2187,-0.3381 14.490066,11.415105 0 0 1 0.82603,-1.00214 14.490066,11.415105 0 0 1 0.95436,-0.92862 14.490066,11.415105 0 0 1 1.07253,-0.84472 14.490066,11.415105 0 0 1 1.17872,-0.75206 14.490066,11.415105 0 0 1 1.27203,-0.65075 14.490066,11.415105 0 0 1 1.35133,-0.54243 14.490066,11.415105 0 0 1 1.41596,-0.42823 14.490066,11.415105 0 0 1 1.4652,-0.30915 14.490066,11.415105 0 0 1 1.49797,-0.18694 14.490066,11.415105 0 0 1 1.51469,-0.0626 14.490066,11.415105 0 0 1 0.52914,0.008 14.490066,11.415105 0 0 1 0.52848,0.0229 14.490066,11.415105 0 0 1 0.52711,0.0379 14.490066,11.415105 0 0 1 0.52485,0.0532 14.490066,11.415105 0 0 1 0.52214,0.0682 14.490066,11.415105 0 0 1 0.51875,0.0833 14.490066,11.415105 0 0 1 0.51447,0.098 14.490066,11.415105 0 0 1 0.50949,0.11283 14.490066,11.415105 0 0 1 0.50406,0.12749 14.490066,11.415105 0 0 1 0.49774,0.14177 14.490066,11.415105 0 0 1 0.49074,0.15604 14.490066,11.415105 0 0 1 0.48328,0.17011 14.490066,11.415105 0 0 1 0.47515,0.18381 14.490066,11.415105 0 0 1 0.46611,0.1973 14.490066,11.415105 0 0 1 0.45685,0.21079 14.490066,11.415105 0 0 1 0.44668,0.2237 14.490066,11.415105 0 0 1 0.43606,0.2364 14.490066,11.415105 0 0 1 0.42476,0.24873 14.490066,11.415105 0 0 1 0.41301,0.26085 14.490066,11.415105 0 0 1 0.40059,0.27258 14.490066,11.415105 0 0 1 0.38771,0.28374 14.490066,11.415105 0 0 1 0.37415,0.29486 14.490066,11.415105 0 0 1 0.36037,0.30543 14.490066,11.415105 0 0 1 0.34592,0.3156 14.490066,11.415105 0 0 1 0.33122,0.32538 14.490066,11.415105 0 0 1 0.31563,0.33458 14.490066,11.415105 0 0 1 0.30005,0.34356 14.490066,11.415105 0 0 1 0.27339,0.33868 29.537443,25.643793 0 0 0 16.25058,-22.89995 29.537443,25.643793 0 0 0 -29.53754,-25.64366 z" />
        <path
           style="fill:#53676c;stroke:#000000;stroke-width:4.20011;stroke-linecap:round;stroke-linejoin:round;stroke-opacity:0.955017;paint-order:stroke markers fill"
           d="m 541.67893,1079.0023 c -33.53953,-17.6253 -52.55664,-46.9537 -52.48263,-80.93938 0.0248,-11.37624 0.9085,-16.91995 4.15121,-26.0412 10.65473,-29.97011 37.58709,-53.38343 72.82089,-63.30592 17.89126,-5.03852 44.55684,-5.03852 62.4481,0 63.57094,17.90277 93.94683,75.82815 67.48914,128.6986 -7.51112,15.0095 -22.96958,30.4502 -40.29174,40.2454 l -6.61725,3.7419 -5.25441,-4.4213 c -14.01246,-11.7907 -34.89468,-17.3586 -53.52503,-14.2714 -13.66521,2.2644 -26.24785,8.0285 -33.62117,15.4018 l -5.79193,5.7919 z m 136.0082,-60.8657 v -40.14735 h -74.67405 -74.67406 v 39.07675 c 0,21.4922 0.48177,39.5585 1.0706,40.1473 0.58882,0.5889 34.19215,1.0706 74.67405,1.0706 h 73.60346 z M 536.91622,973.08542 c 9.08806,-7.14867 9.04703,-23.22328 -0.0776,-30.40072 -5.95994,-4.68809 -12.64684,-4.15439 -18.25848,1.45725 -4.01936,4.01936 -4.69415,5.93023 -4.69415,13.29278 0,9.30082 2.84007,15.03072 8.60277,17.35625 5.67264,2.2892 9.99917,1.77773 14.42747,-1.70556 z m 135.11685,-2.14327 c 4.83894,-4.83894 6.53302,-13.52689 4.08435,-20.94639 -2.36466,-7.16499 -7.08048,-10.54796 -14.70379,-10.54796 -8.55588,0 -14.23848,7.05008 -14.23848,17.66483 0,10.85444 5.65532,17.66483 14.6688,17.66483 4.55695,0 7.43845,-1.08463 10.18912,-3.83531 z M 568.30854,953.00109 c 9.03108,-7.59915 8.20403,-25.43422 -1.40998,-30.40582 -12.07422,-6.24382 -22.58311,1.42179 -22.4437,16.37131 0.14204,15.23084 13.25973,22.94874 23.85368,14.03451 z m 76.31502,-5.64703 c 9.37555,-11.1422 2.99081,-30.38877 -10.08099,-30.38877 -7.6233,0 -12.33913,3.38296 -14.7038,10.54796 -4.19513,12.71139 2.75699,24.7817 14.27349,24.7817 5.12356,0 7.1588,-0.95667 10.5113,-4.94089 z m -35.22034,-5.31799 c 11.14502,-11.14502 4.56156,-31.49435 -10.18913,-31.49435 -9.01347,0 -14.66879,6.81039 -14.66879,17.66483 0,10.85443 5.65532,17.66483 14.66879,17.66483 4.55695,0 7.43845,-1.08463 10.18913,-3.83531 z"
           id="path880"
           transform="scale(0.26458333)" />
        <path
           style="fill:#37c8ab;stroke:#000000;stroke-width:4.20011;stroke-linecap:round;stroke-linejoin:round;stroke-opacity:0.955017;paint-order:stroke markers fill"
           d="m 534.7626,1017.3336 v -34.52667 h 69.05342 69.05343 v 34.52667 34.5268 H 603.81602 534.7626 Z m 39.21305,30.3402 c 1.9211,-0.7372 2.54018,-3.2953 2.54018,-10.4964 v -9.5217 l -15.65746,0.4596 -15.65747,0.4596 -0.49404,8.6804 c -0.33336,5.8571 0.18896,9.1136 1.60589,10.0123 2.42688,1.5391 23.88918,1.8543 27.6629,0.4062 z m 94.07612,-9.5285 v -10.5032 l -13.24862,0.4664 -13.24862,0.4664 -0.49753,7.8254 c -0.76554,12.0409 -0.52692,12.2483 14.09722,12.2483 h 12.89755 z m -56.51976,-0.3365 -0.48946,-7.628 h -12.04421 -12.0442 l -0.48946,7.628 -0.48946,7.628 h 13.02312 13.02313 z m 24.40189,-26.8987 v -10.4383 h -20.07367 -20.07367 v 9.3677 c 0,5.1522 0.48176,9.8495 1.07059,10.4383 0.58883,0.5888 9.62198,1.0706 20.07367,1.0706 h 19.00308 z m -51.3886,-10.4383 v -9.6354 h -18.46778 -18.46777 v 8.56477 c 0,4.71063 0.48176,9.04653 1.07059,9.63533 0.58883,0.5889 8.89933,1.0706 18.46778,1.0706 h 17.39718 z"
           id="path956"
           transform="scale(0.26458333)" />
        <path
           style="fill:#00d455;stroke:#000000;stroke-width:2.10369;stroke-linecap:round;stroke-linejoin:round;stroke-opacity:0.955017;paint-order:stroke markers fill"
           d="m 601.64541,1010.2495 v -5.6304 h 14.88027 14.88027 v 5.6304 5.6304 h -14.88027 -14.88027 z"
           id="path1032"
           transform="scale(0.26458333)" />
        <path
           style="fill:#00d455;stroke:#000000;stroke-width:2.10369;stroke-linecap:round;stroke-linejoin:round;stroke-opacity:0.955017;paint-order:stroke markers fill"
           d="m 553.38508,1000.1953 v -4.42388 h 13.27159 13.27159 v 4.42388 4.4238 h -13.27159 -13.27159 z"
           id="path1110"
           transform="scale(0.26458333)" />
        <path
           style="fill:#00d455;stroke:#000000;stroke-width:2.10369;stroke-linecap:round;stroke-linejoin:round;stroke-opacity:0.955017;paint-order:stroke markers fill"
           d="m 646.68838,1037.9992 v -5.2282 h 8.04339 8.04339 v 5.2282 5.2282 h -8.04339 -8.04339 z"
           id="path1149"
           transform="scale(0.26458333)" />
        <path
           style="fill:#00d455;stroke:#000000;stroke-width:2.10369;stroke-linecap:round;stroke-linejoin:round;stroke-opacity:0.955017;paint-order:stroke markers fill"
           d="m 591.99335,1037.9992 v -2.8152 h 7.64121 7.64122 v 2.8152 2.8152 h -7.64122 -7.64121 z"
           id="path1188"
           transform="scale(0.26458333)" />
        <path
           style="fill:#00d455;stroke:#000000;stroke-width:2.10369;stroke-linecap:round;stroke-linejoin:round;stroke-opacity:0.955017;paint-order:stroke markers fill"
           d="m 550.16773,1037.1949 v -5.2282 h 10.4564 10.45641 v 5.2282 5.2282 h -10.45641 -10.4564 z"
           id="path1227"
           transform="scale(0.26458333)" />
      </g>
      <path
         sodipodi:type="star"
         style="fill:#00ffff;stroke:#000000;stroke-width:8.09562;stroke-linecap:round;stroke-linejoin:round;stroke-miterlimit:4;stroke-dasharray:none;stroke-opacity:0.955017;paint-order:stroke markers fill"
         id="path2480"
         inkscape:flatsided="false"
         sodipodi:sides="8"
         sodipodi:cx="635.81683"
         sodipodi:cy="37.622299"
         sodipodi:r1="129.97946"
         sodipodi:r2="73.515213"
         sodipodi:arg1="0.8345389"
         sodipodi:arg2="1.227238"
         inkscape:rounded="3.46945e-18"
         inkscape:randomized="0"
         d="m 723.10057,133.93538 -62.5209,-27.09395 -31.14755,60.60342 -25.05064,-63.36726 -64.87773,20.82844 L 566.5977,62.385134 505.99428,31.237583 569.36155,6.1869487 548.5331,-58.690786 l 62.5209,27.093951 31.14755,-60.603421 25.05063,63.367267 64.87774,-20.828445 -27.09395,62.520898 60.60342,31.147551 -63.36727,25.050635 z"
         transform="matrix(0.18705424,0,0,0.17794782,57.363401,258.15347)" />
    </g>
    <path
       style="fill:#000000;stroke-width:0.264583"
       d="m 145.42808,62.590039 c -12.24247,-6.08693 -17.97,-18.83044 -13.75882,-30.61281 4.47739,-12.52717 18.91792,-20.18542 33.82514,-17.93848 3.15204,0.4751 7.56395,1.91142 10.1481,3.30376 l 1.90401,1.02589 0.63513,-1.10585 c 0.34933,-0.60822 1.57612,-2.86188 2.7262,-5.00813 1.15009,-2.14626 2.15654,-3.9024319 2.23655,-3.9026089 0.08,-1.76e-4 1.15158,2.4555239 2.38125,5.4571089 1.22968,3.00159 2.37213,5.50986 2.53879,5.57393 0.16667,0.0641 2.88423,-0.67632 6.03904,-1.64531 3.1548,-0.96899 5.79683,-1.70098 5.87117,-1.62664 0.0743,0.0743 -0.94658,2.53263 -2.26872,5.46286 -1.32213,2.93024 -2.40388,5.4173 -2.40388,5.52682 0,0.10951 2.5047,1.43207 5.566,2.93901 3.0613,1.50694 5.47232,2.82953 5.35781,2.93909 -0.1145,0.10956 -2.64897,1.11777 -5.63215,2.24046 -2.98317,1.12269 -5.5269,2.13455 -5.65272,2.24859 -0.12582,0.11403 0.61635,2.73962 1.64927,5.83464 1.03292,3.09502 1.82753,5.67783 1.76579,5.73957 -0.0617,0.0617 -2.01808,-0.67445 -4.34741,-1.63597 -2.32933,-0.96153 -4.29134,-1.74823 -4.36002,-1.74823 -0.0687,0 -0.32976,0.62508 -0.58018,1.38906 -2.05713,6.27609 -6.97636,11.85561 -13.46593,15.27341 l -2.04465,1.07684 -1.62321,-1.5028 c -5.95603,-5.51424 -16.19902,-5.35328 -21.808,0.34269 -0.90829,0.92238 -1.74173,1.67515 -1.85208,1.67283 -0.11036,-0.002 -1.39127,-0.5962 -2.84648,-1.31973 z m 34.79271,-8.30716 c 0,-0.0584 -0.35292,-0.92156 -0.78427,-1.91823 l -0.78426,-1.81212 -0.009,1.13263 -0.009,1.13262 -3.24115,-0.0743 -3.24114,-0.0743 v -2.38125 -2.38125 l 2.69014,-0.0752 2.69016,-0.0752 -0.79558,-1.95335 c -0.7711,-1.89327 -0.81723,-1.9462 -1.49952,-1.72077 -3.53725,1.16867 -11.25835,3.4124 -11.36742,3.30334 -0.076,-0.076 2.7e-4,-0.44188 0.16945,-0.81315 0.16916,-0.37126 0.30756,-0.72394 0.30756,-0.78374 0,-0.0598 -0.92274,-0.14348 -2.05052,-0.18599 l -2.05052,-0.0773 v -2.51354 -2.51354 l 3.30973,-0.0736 3.30973,-0.0736 0.85855,-1.9108 c 0.4722,-1.05094 0.85806,-2.00617 0.85745,-2.12274 -5.2e-4,-0.11656 -0.41398,-0.38445 -0.91863,-0.59531 -0.7541,-0.31508 -2.9929,-0.38337 -12.56771,-0.38337 h -11.65016 v 9.525 9.525 h 18.38854 c 10.11369,0 18.38854,-0.0478 18.38854,-0.10611 z m -33.28229,-1.70207 c -0.24727,-0.1599 -0.32037,-0.87271 -0.26459,-2.57982 l 0.0771,-2.35887 h 3.70416 3.70417 v 2.51354 2.51354 l -3.43958,0.0663 c -1.89177,0.0365 -3.59334,-0.0332 -3.78125,-0.15467 z m 10.85372,-0.61789 c -0.41818,-0.41818 -0.42426,-2.92569 -0.008,-3.34185 0.48017,-0.48016 5.6085,-0.43151 6.01398,0.0571 0.18333,0.22091 0.27802,1.00778 0.23083,1.91823 l -0.08,1.54368 -2.91555,0.0742 c -2.04234,0.052 -3.01306,-0.0233 -3.24114,-0.25135 z m -10.37976,-11.72914 v -2.24896 h 4.6302 4.63021 v 2.24896 2.24896 h -4.63021 -4.6302 z m -4.37158,-7.85064 c 1.20795,-0.55037 1.8036,-1.87419 1.6706,-3.71287 -0.10172,-1.40622 -0.2244,-1.70834 -0.96095,-2.36644 -1.57212,-1.40469 -3.35036,-0.8831 -4.15282,1.2181 -0.72484,1.89797 -0.21695,3.74053 1.28319,4.65523 0.98318,0.59948 1.24214,0.62418 2.15998,0.20598 z m 8.54755,-5.39459 c 1.92301,-1.34692 1.77964,-5.30649 -0.22976,-6.34559 -1.02441,-0.52974 -1.63306,-0.48365 -2.48739,0.18837 -1.86873,1.46994 -1.88993,4.61007 -0.0412,6.10126 0.70904,0.57191 1.98478,0.59779 2.75835,0.056 z m 17.51986,-1.09266 c 0,-0.48564 -1.4572,-4.57982 -1.63005,-4.57982 -0.37506,0 -0.54249,1.84032 -0.24505,2.69355 0.4272,1.22547 1.03234,2.06895 1.48432,2.06895 0.21493,0 0.39078,-0.0822 0.39078,-0.18268 z m -7.1227,-1.59163 c 1.43594,-0.84823 1.97666,-3.08174 1.19752,-4.94648 -0.78918,-1.88878 -2.82587,-2.34711 -4.14669,-0.93317 -1.416,1.51583 -1.35136,3.95657 0.1444,5.45233 0.9843,0.9843 1.68195,1.09059 2.80477,0.42732 z"
       id="path1006" />
    <path
       style="fill:#000000;stroke-width:0.264583"
       d="M 21.709774,53.616962 C 14.304608,49.909674 9.4298663,44.149829 7.2321493,36.510647 c -0.498091,-1.731344 -0.590869,-2.670739 -0.570067,-5.772058 0.02145,-3.198556 0.120419,-4.021558 0.725028,-6.02941 C 10.333148,14.925647 18.705512,7.7276284 29.759302,5.4750094 c 3.6534,-0.744516 9.880877,-0.744516 13.534273,0 4.66426,0.950515 8.78497,2.724487 12.46025,5.3641526 l 2.02947,1.457609 2.82797,-5.2650286 c 1.55766,-2.899987 2.99058,-5.265029 3.18996,-5.265029 0.55116,0 0.94889,0.774731 3.16176,6.158755 1.62525,3.9542886 2.12959,4.9416086 2.47145,4.8381726 0.23623,-0.07148 2.77779,-0.848619 5.64792,-1.726984 2.87013,-0.878365 5.40395,-1.5970266 5.6307,-1.5970266 0.85029,0 0.6829,0.9017636 -0.75065,4.0440046 -0.81099,1.77762 -1.89507,4.157431 -2.40907,5.288469 l -0.93455,2.056432 5.48612,2.728867 c 4.11991,2.049295 5.48612,2.848412 5.48612,3.208912 0,0.382978 -1.15025,0.909192 -5.68854,2.60238 -3.1287,1.167287 -5.7331,2.156339 -5.78755,2.197897 -0.0545,0.04156 0.76191,2.571766 1.81414,5.622684 1.05223,3.050919 1.83389,5.675353 1.73703,5.832073 -0.31563,0.510704 -1.0453,0.309994 -5.32163,-1.463815 -2.31877,-0.961821 -4.77453,-1.969368 -5.45723,-2.238994 l -1.24129,-0.490228 -2.56982,4.818682 c -1.4134,2.650273 -2.74851,5.027038 -2.96691,5.2817 -0.62176,0.72499 -1.07785,0.551153 -1.53202,-0.583925 l -0.4189,-1.046943 -1.97879,1.725761 c -2.11362,1.843354 -4.63769,3.562405 -6.91934,4.712499 l -1.40584,0.708636 -1.63061,-1.509652 c -5.93834,-5.497862 -16.23975,-5.340847 -21.81539,0.332513 -0.908291,0.924211 -1.741728,1.67894 -1.852083,1.67718 -0.110355,-0.0018 -1.39127,-0.59927 -2.846478,-1.327801 z m 4.22306,-1.402775 c 1.623176,-1.597446 4.434206,-3.120343 7.021731,-3.804069 2.102033,-0.555439 6.660163,-0.613386 8.73125,-0.110998 2.1844,0.529873 5.51308,2.228448 7.08024,3.612936 l 1.39171,1.229482 1.78329,-0.97686 c 2.29007,-1.254461 4.89045,-3.188521 6.46111,-4.805506 l 1.23823,-1.274749 -0.97365,-2.371273 -0.97364,-2.371275 -0.13229,2.503567 -0.13229,2.503564 H 38.11394 18.799357 L 18.730137,35.96411 18.660917,25.579214 h 10.08655 c 9.844032,0 10.072061,-0.01173 9.48395,-0.487956 -0.33143,-0.268376 -0.536945,-0.655329 -0.456702,-0.859896 0.08024,-0.204567 2.6897,-1.314488 5.7988,-2.46649 3.1091,-1.152002 5.67881,-2.110557 5.71047,-2.130121 0.0317,-0.01956 -0.0749,-0.467006 -0.2367,-0.994314 l -0.29425,-0.958743 -0.95001,0.509177 c -1.16089,0.622201 -1.92242,0.641271 -3.1097,0.07787 -3.04152,-1.443298 -2.9909,-6.931679 0.0776,-8.4082436 0.89239,-0.429425 1.09269,-0.657018 1.05834,-1.202602 -0.0659,-1.046178 0.67955,-0.958514 4.12482,0.485093 1.70987,0.716455 3.10886,1.2475776 3.10886,1.1802726 0,-0.0673 -1.22039,-0.7041026 -2.71198,-1.4151066 -11.815383,-5.632108 -26.629896,-3.35254 -35.536933,5.4682076 -5.5201277,5.466651 -8.1125537,12.870802 -6.9795557,19.9341 0.940047,5.860402 4.5259687,11.619093 9.6247567,15.456551 1.837287,1.382784 6.184836,3.858033 6.77628,3.858033 0.145082,0 0.908897,-0.634886 1.697368,-1.410861 z M 16.898041,24.398116 c -0.463641,-0.201649 -1.178016,-0.872903 -1.5875,-1.491676 -0.613508,-0.927073 -0.744517,-1.411184 -0.744517,-2.751185 0,-1.340324 0.130971,-1.824054 0.745142,-2.75213 1.153045,-1.742368 2.837732,-2.274345 4.581708,-1.446774 2.883334,1.368231 2.945094,6.809507 0.09464,8.338222 -1.078199,0.578244 -1.932213,0.606866 -3.089475,0.103543 z m 2.769998,-1.083922 c 1.846708,-1.293485 1.846708,-5.024393 0,-6.317878 -1.460452,-1.02294 -3.664334,0.250041 -4.057047,2.343385 -0.529203,2.820893 2.069446,5.366663 4.057047,3.974493 z m 5.961599,-3.866915 c -1.602658,-0.426515 -2.993822,-2.494984 -2.993822,-4.451399 0,-1.272359 0.646511,-2.690273 1.633038,-3.58154 2.537063,-2.2920846 6.016456,-0.182661 6.034067,3.658226 0.01317,2.872497 -2.273743,5.013303 -4.673283,4.374713 z m 2.657446,-1.800229 c 0.543542,-0.527907 0.794774,-1.074485 0.892531,-1.941781 0.174678,-1.549742 -0.02987,-2.326058 -0.8787,-3.334831 -0.555256,-0.659884 -0.886077,-0.814141 -1.746008,-0.814141 -3.190261,0 -3.934943,5.452989 -0.922559,6.755514 1.034039,0.447108 1.675259,0.286543 2.654736,-0.664761 z m 7.021712,-1.396535 c -1.370587,-0.910826 -2.15851,-2.647801 -1.992387,-4.392211 0.337196,-3.5408096 3.558906,-5.3481936 5.948763,-3.3372626 3.010333,2.5330266 1.524433,8.3269216 -2.135521,8.3269216 -0.515136,0 -1.318464,-0.263584 -1.820855,-0.597448 z m 3.14466,-0.873821 c 1.940249,-1.359004 1.777519,-5.30759 -0.262212,-6.3623746 -2.23755,-1.157081 -4.514731,1.6094386 -3.663469,4.4506986 0.606512,2.024357 2.469544,2.931592 3.925681,1.911676 z m 26.019369,26.275958 c 1.30934,-2.437474 2.53586,-4.431771 2.72559,-4.431771 0.18974,0 2.59351,0.932447 5.34171,2.072103 2.7482,1.139655 5.02712,2.000996 5.06426,1.914088 0.0371,-0.08691 -0.64748,-2.295554 -1.52136,-4.908108 -0.87388,-2.612552 -1.58888,-4.946441 -1.58888,-5.186421 0,-0.307266 0.72392,-0.709935 2.4474,-1.361337 1.34607,-0.508757 3.66778,-1.38567 5.15937,-1.9487 1.49159,-0.563029 2.71198,-1.086734 2.71198,-1.163789 0,-0.07706 -2.20265,-1.239521 -4.89479,-2.583257 -3.17387,-1.584186 -4.89479,-2.586431 -4.89479,-2.850674 0,-0.224135 0.95319,-2.505885 2.11821,-5.070554 1.16502,-2.56467 2.07726,-4.703994 2.0272,-4.754053 -0.0501,-0.05006 -2.49588,0.643406 -5.43515,1.541035 -3.22423,0.984653 -5.43983,1.53617 -5.58539,1.390338 -0.1327,-0.132942 -1.12251,-2.362505 -2.19958,-4.9545816 -1.07708,-2.592078 -2.04522,-4.735203 -2.15143,-4.7625 -0.10621,-0.0273 -1.31119,2.033962 -2.67773,4.580576 -1.36654,2.5466146 -2.64851,4.6651946 -2.84883,4.7079546 -0.20031,0.04276 -2.58616,-0.839213 -5.30189,-1.959939 -2.71573,-1.120727 -4.99912,-1.9762446 -5.07422,-1.901152 -0.0751,0.07509 0.58083,2.254845 1.4576,4.843894 0.87677,2.589049 1.59413,4.91095 1.59413,5.15978 0,0.344428 -1.21573,0.912405 -5.09323,2.379509 -2.80128,1.0599 -5.18577,1.978578 -5.29887,2.041505 -0.1131,0.06293 2.05979,1.231981 4.82864,2.597895 3.11827,1.538284 5.03429,2.631148 5.03429,2.871475 0,0.213394 -0.95604,2.496383 -2.12454,5.073306 -1.16849,2.576922 -2.08017,4.72967 -2.02596,4.783881 0.0542,0.05421 2.45547,-0.623353 5.33612,-1.505702 2.88066,-0.882348 5.36993,-1.553027 5.5317,-1.490398 0.16178,0.06263 1.05928,1.974049 1.99445,4.2476 1.04442,2.539143 1.84229,4.133726 2.06835,4.133726 0.24708,0 0.31309,0.173136 0.20084,0.526799 -0.092,0.28974 -0.0788,0.669779 0.0292,0.844534 0.2417,0.391086 0.056,0.688472 3.04563,-4.877062 z m -7.97034,0.198437 c 0,-1.964531 -0.0418,-3.571875 -0.0928,-3.571875 -0.051,0 -0.438,0.120034 -0.8599,0.26674 l -0.76708,0.266742 0.0845,2.519675 0.0845,2.519675 -3.2595,-0.07444 -3.2595,-0.07444 -0.0788,-1.502752 -0.0788,-1.502751 -1.48398,0.510564 c -1.92107,0.660948 -2.72405,0.665199 -2.72405,0.01443 0,-0.272873 0.41247,-1.401236 0.91659,-2.507475 l 0.9166,-2.011339 -4.68691,-0.07221 -4.686908,-0.07221 -0.07901,-1.981258 c -0.04346,-1.089694 -0.01077,-2.253168 0.07265,-2.585503 l 0.151654,-0.604242 4.954434,0.07196 4.95444,0.07196 0.13229,1.576184 0.13229,1.576184 0.97602,-2.177834 0.97601,-2.17783 -3.68446,-1.845749 -3.68447,-1.845747 H 30.576842 19.725399 v 9.392709 9.392708 H 38.11394 56.502485 Z m -33.418564,1.815119 c -0.100937,-0.100936 -0.183522,-1.235239 -0.183522,-2.520675 v -2.337152 h 3.846387 3.846387 l -0.07607,2.447396 -0.07608,2.447396 -3.586791,0.07328 c -1.972735,0.0403 -3.669375,-0.0093 -3.770312,-0.110244 z m 6.431061,-2.485832 v -1.596758 l -2.711979,0.0754 -2.711979,0.0754 -0.07935,1.521354 -0.07935,1.521354 h 2.791329 2.791328 z m 4.682482,1.95771 c -0.10151,-0.101513 -0.184565,-0.938628 -0.184565,-1.860261 v -1.675694 h 3.187089 3.187087 l -0.0782,1.785937 -0.0782,1.785938 -2.924288,0.07432 c -1.608368,0.04088 -3.007353,-0.0087 -3.108863,-0.11024 z m 5.05772,-1.750018 -0.08291,-0.859895 h -2.113042 c -1.828067,0 -2.125472,0.06453 -2.205191,0.478475 -0.206947,1.074594 0.107651,1.241316 2.342317,1.241316 h 2.141735 z m -15.50559,-10.054167 0.07685,-2.182812 4.564063,-0.07239 4.564062,-0.0724 v 2.255208 2.255205 h -4.640908 -4.640909 z m 8.411221,-0.06614 v -1.190625 h -3.704166 -3.704167 v 1.190625 1.190625 h 3.704167 3.704166 z m 21.69583,10.054167 v -1.455209 h -1.41572 c -0.77865,0 -1.79068,0.13071 -2.24896,0.290468 -0.76442,0.266475 -0.83323,0.386662 -0.83323,1.455208 v 1.164741 h 2.24895 2.24896 z m -8.20208,-7.276042 v -1.5875 h -4.10104 -4.101043 v 1.5875 1.5875 h 4.101043 4.10104 z m 1.97371,-16.99948 0.6803,-0.595313 -0.98894,-2.976562 c -1.09028,-3.281605 -1.30499,-3.468019 -2.67076,-2.318797 -0.48269,0.406154 -0.89277,1.098799 -1.07203,1.810719 -0.78575,3.120497 1.97303,5.898701 4.05143,4.079953 z"
       id="path1284" />
  </g>
</svg>
