<?xml version="1.0" encoding="UTF-8" standalone="no"?>
<!-- Created with Inkscape (http://www.inkscape.org/) -->

<svg
   width="210mm"
   height="297mm"
   viewBox="0 0 210 297"
   version="1.1"
   id="svg5"
   inkscape:version="1.1 (c68e22c387, 2021-05-23)"
   sodipodi:docname="bus panning icon svg.svg"
   xmlns:inkscape="http://www.inkscape.org/namespaces/inkscape"
   xmlns:sodipodi="http://sodipodi.sourceforge.net/DTD/sodipodi-0.dtd"
   xmlns="http://www.w3.org/2000/svg"
   xmlns:svg="http://www.w3.org/2000/svg">
  <sodipodi:namedview
     id="namedview7"
     pagecolor="#ffffff"
     bordercolor="#666666"
     borderopacity="1.0"
     inkscape:pageshadow="2"
     inkscape:pageopacity="0.0"
     inkscape:pagecheckerboard="0"
     inkscape:document-units="mm"
     showgrid="false"
     inkscape:zoom="0.82106903"
     inkscape:cx="735.62633"
     inkscape:cy="499.95796"
     inkscape:window-width="1680"
     inkscape:window-height="956"
     inkscape:window-x="-11"
     inkscape:window-y="-11"
     inkscape:window-maximized="1"
     inkscape:current-layer="layer1"
     showguides="false" />
  <defs
     id="defs2">
    <inkscape:path-effect
       effect="spiro"
       id="path-effect2281"
       is_visible="true"
       lpeversion="1" />
    <inkscape:path-effect
       effect="spiro"
       id="path-effect2277"
       is_visible="true"
       lpeversion="1" />
    <inkscape:path-effect
       effect="spiro"
       id="path-effect2273"
       is_visible="true"
       lpeversion="1" />
    <inkscape:path-effect
       effect="spiro"
       id="path-effect2269"
       is_visible="true"
       lpeversion="1" />
    <inkscape:path-effect
       effect="spiro"
       id="path-effect2235"
       is_visible="true"
       lpeversion="1" />
    <inkscape:path-effect
       effect="spiro"
       id="path-effect2231"
       is_visible="true"
       lpeversion="1" />
    <inkscape:path-effect
       effect="spiro"
       id="path-effect2227"
       is_visible="true"
       lpeversion="1" />
    <inkscape:path-effect
       effect="spiro"
       id="path-effect2223"
       is_visible="true"
       lpeversion="1" />
    <inkscape:path-effect
       effect="spiro"
       id="path-effect1978"
       is_visible="true"
       lpeversion="1" />
    <inkscape:path-effect
       effect="spiro"
       id="path-effect1974"
       is_visible="true"
       lpeversion="1" />
    <inkscape:path-effect
       effect="spiro"
       id="path-effect1970"
       is_visible="true"
       lpeversion="1" />
    <inkscape:path-effect
       effect="spiro"
       id="path-effect1966"
       is_visible="true"
       lpeversion="1" />
    <inkscape:path-effect
       effect="spiro"
       id="path-effect1872"
       is_visible="true"
       lpeversion="1" />
    <inkscape:path-effect
       effect="spiro"
       id="path-effect1864"
       is_visible="true"
       lpeversion="1" />
    <inkscape:path-effect
       effect="spiro"
       id="path-effect1776"
       is_visible="true"
       lpeversion="1" />
    <inkscape:path-effect
       effect="spiro"
       id="path-effect1770"
       is_visible="true"
       lpeversion="1" />
    <inkscape:path-effect
       effect="skeletal"
       id="path-effect1495"
       is_visible="true"
       lpeversion="1"
       pattern="M 0,4.9921382 C 0,2.2364779 2.2364779,0 4.9921382,0 c 2.7556604,0 4.9921383,2.2364779 4.9921383,4.9921382 0,2.7556604 -2.2364779,4.9921383 -4.9921383,4.9921383 C 2.2364779,9.9842765 0,7.7477986 0,4.9921382 Z"
       copytype="single_stretched"
       prop_scale="1"
       scale_y_rel="false"
       spacing="0"
       normal_offset="0"
       tang_offset="0"
       prop_units="false"
       vertical_pattern="false"
       hide_knot="false"
       fuse_tolerance="0" />
    <inkscape:path-effect
       effect="spiro"
       id="path-effect1349"
       is_visible="true"
       lpeversion="1" />
    <inkscape:path-effect
       effect="skeletal"
       id="path-effect1345"
       is_visible="true"
       lpeversion="1"
       pattern="M 0,4.9921382 C 0,2.2364779 2.2364779,0 4.9921382,0 c 2.7556604,0 4.9921383,2.2364779 4.9921383,4.9921382 0,2.7556604 -2.2364779,4.9921383 -4.9921383,4.9921383 C 2.2364779,9.9842765 0,7.7477986 0,4.9921382 Z"
       copytype="single_stretched"
       prop_scale="9"
       scale_y_rel="false"
       spacing="0"
       normal_offset="0"
       tang_offset="0"
       prop_units="false"
       vertical_pattern="false"
       hide_knot="false"
       fuse_tolerance="0" />
  </defs>
  <g
     inkscape:label="Layer 1"
     inkscape:groupmode="layer"
     id="layer1">
    <g
       id="g1932"
       transform="matrix(0.39268024,0,0,0.47670803,5.174246,20.163181)">
      <ellipse
         style="fill:none;stroke:#000000;stroke-width:2.54;stroke-linecap:round;stroke-linejoin:round;stroke-opacity:0.955017;paint-order:stroke markers fill"
         id="path1176"
         cx="104.24545"
         cy="119.22972"
         rx="50.108707"
         ry="43.502739" />
      <ellipse
         style="fill:none;stroke:#000000;stroke-width:3.71819;stroke-linecap:round;stroke-linejoin:round;stroke-opacity:0.955017;paint-order:stroke markers fill"
         id="ellipse1200"
         cx="103.27873"
         cy="117.94076"
         rx="74.654526"
         ry="62.570435" />
      <ellipse
         style="fill:none;stroke:#000000;stroke-width:4.6225;stroke-linecap:round;stroke-linejoin:round;stroke-opacity:0.955017;paint-order:stroke markers fill"
         id="ellipse1282"
         cx="103.7621"
         cy="118.58524"
         rx="93.053558"
         ry="77.585915" />
      <circle
         style="fill:none;stroke:#000000;stroke-width:2.54;stroke-linecap:round;stroke-linejoin:round;stroke-opacity:0.955017;paint-order:stroke markers fill"
         id="path1306"
         cx="105.53442"
         cy="119.71309"
         r="10.795124" />
      <circle
         id="path1450"
         style="fill:#000000;stroke:#000000;stroke-width:0.264583"
         cx="96.994987"
         cy="111.81814"
         r="1.0730668e-05" />
      <circle
         id="path1452"
         style="fill:#000000;stroke:#000000;stroke-width:0.264583"
         cx="96.994987"
         cy="111.81814"
         r="1.0730668e-05" />
      <circle
         id="path1454"
         style="fill:#000000;stroke:#000000;stroke-width:0.264583"
         cx="84.105293"
         cy="80.23838"
         r="1.0730668e-05" />
      <circle
         id="path1456"
         style="fill:#000000;stroke:#000000;stroke-width:0.264583"
         cx="84.105293"
         cy="80.23838"
         r="1.0730668e-05" />
      <path
         style="fill:none;stroke:#000000;stroke-width:2.4;stroke-linecap:butt;stroke-linejoin:miter;stroke-miterlimit:4;stroke-dasharray:9.6, 2.4;stroke-dashoffset:0;stroke-opacity:1"
         d="M 103.1176,108.91796 97.961719,41.891524"
         id="path1768"
         inkscape:original-d="M 103.1176,108.91796 97.961719,41.891524"
         inkscape:path-effect="#path-effect1770" />
      <path
         style="fill:none;stroke:#000000;stroke-width:2.4;stroke-linecap:butt;stroke-linejoin:miter;stroke-miterlimit:4;stroke-dasharray:9.6, 2.4;stroke-dashoffset:0;stroke-opacity:1"
         d="m 114.39609,197.53465 -5.15588,-67.02644"
         id="path1772"
         inkscape:original-d="m 114.39609,197.53465 -5.15588,-67.02644"
         inkscape:path-effect="#path-effect1776" />
      <ellipse
         style="fill:none;stroke:#000000;stroke-width:4.6225;stroke-linecap:round;stroke-linejoin:round;stroke-opacity:0.955017;paint-order:stroke markers fill"
         id="ellipse1858"
         cx="103.7621"
         cy="118.58524"
         rx="93.053558"
         ry="77.585915" />
      <path
         style="fill:none;stroke:#000000;stroke-width:2.6678;stroke-linecap:butt;stroke-linejoin:miter;stroke-miterlimit:4;stroke-dasharray:10.6712, 2.6678;stroke-dashoffset:0;stroke-opacity:1"
         d="M 95.040813,120.53836 11.585386,125.6549"
         id="path1860"
         inkscape:original-d="M 95.040813,120.53836 11.585386,125.6549"
         inkscape:path-effect="#path-effect1864" />
      <circle
         style="fill:none;stroke:#000000;stroke-width:2.54;stroke-linecap:round;stroke-linejoin:round;stroke-opacity:0.955017;paint-order:stroke markers fill"
         id="circle1866"
         cx="105.53442"
         cy="119.71309"
         r="10.795124" />
      <path
         style="fill:none;stroke:#000000;stroke-width:2.59769;stroke-linecap:butt;stroke-linejoin:miter;stroke-miterlimit:4;stroke-dasharray:10.3908, 2.59769;stroke-dashoffset:0;stroke-opacity:1"
         d="m 197.18691,112.79831 -78.93448,5.129"
         id="path1868"
         inkscape:original-d="m 197.18691,112.79831 -78.93448,5.129"
         inkscape:path-effect="#path-effect1872" />
    </g>
    <g
       id="g2189">
      <g
         id="g1962"
         transform="matrix(0.39268024,0,0,0.47670803,120.8593,25.963546)">
        <ellipse
           style="fill:none;stroke:#000000;stroke-width:2.54;stroke-linecap:round;stroke-linejoin:round;stroke-opacity:0.955017;paint-order:stroke markers fill"
           id="ellipse1934"
           cx="104.24545"
           cy="119.22972"
           rx="50.108707"
           ry="43.502739" />
        <ellipse
           style="fill:none;stroke:#000000;stroke-width:3.71819;stroke-linecap:round;stroke-linejoin:round;stroke-opacity:0.955017;paint-order:stroke markers fill"
           id="ellipse1936"
           cx="103.27873"
           cy="117.94076"
           rx="74.654526"
           ry="62.570435" />
        <ellipse
           style="fill:none;stroke:#000000;stroke-width:4.6225;stroke-linecap:round;stroke-linejoin:round;stroke-opacity:0.955017;paint-order:stroke markers fill"
           id="ellipse1938"
           cx="103.7621"
           cy="118.58524"
           rx="93.053558"
           ry="77.585915" />
        <circle
           style="fill:none;stroke:#000000;stroke-width:2.54;stroke-linecap:round;stroke-linejoin:round;stroke-opacity:0.955017;paint-order:stroke markers fill"
           id="circle1940"
           cx="105.53442"
           cy="119.71309"
           r="10.795124" />
        <circle
           id="circle1942"
           style="fill:#000000;stroke:#000000;stroke-width:0.264583"
           cx="96.994987"
           cy="111.81814"
           r="1.0730668e-05" />
        <circle
           id="circle1944"
           style="fill:#000000;stroke:#000000;stroke-width:0.264583"
           cx="96.994987"
           cy="111.81814"
           r="1.0730668e-05" />
        <circle
           id="circle1946"
           style="fill:#000000;stroke:#000000;stroke-width:0.264583"
           cx="84.105293"
           cy="80.23838"
           r="1.0730668e-05" />
        <circle
           id="circle1948"
           style="fill:#000000;stroke:#000000;stroke-width:0.264583"
           cx="84.105293"
           cy="80.23838"
           r="1.0730668e-05" />
        <path
           style="fill:none;stroke:#000000;stroke-width:2.4;stroke-linecap:butt;stroke-linejoin:miter;stroke-miterlimit:4;stroke-dasharray:9.6, 2.4;stroke-dashoffset:0;stroke-opacity:1"
           d="M 103.1176,108.91796 97.961719,41.891524"
           id="path1950"
           inkscape:original-d="M 103.1176,108.91796 97.961719,41.891524"
           inkscape:path-effect="#path-effect1966" />
        <path
           style="fill:none;stroke:#000000;stroke-width:2.4;stroke-linecap:butt;stroke-linejoin:miter;stroke-miterlimit:4;stroke-dasharray:9.6, 2.4;stroke-dashoffset:0;stroke-opacity:1"
           d="m 114.39609,197.53465 -5.15588,-67.02644"
           id="path1952"
           inkscape:original-d="m 114.39609,197.53465 -5.15588,-67.02644"
           inkscape:path-effect="#path-effect1970" />
        <ellipse
           style="fill:none;stroke:#000000;stroke-width:4.6225;stroke-linecap:round;stroke-linejoin:round;stroke-opacity:0.955017;paint-order:stroke markers fill"
           id="ellipse1954"
           cx="103.7621"
           cy="118.58524"
           rx="93.053558"
           ry="77.585915" />
        <path
           style="fill:none;stroke:#000000;stroke-width:2.6678;stroke-linecap:butt;stroke-linejoin:miter;stroke-miterlimit:4;stroke-dasharray:10.6712, 2.6678;stroke-dashoffset:0;stroke-opacity:1"
           d="M 95.040813,120.53836 11.585386,125.6549"
           id="path1956"
           inkscape:original-d="M 95.040813,120.53836 11.585386,125.6549"
           inkscape:path-effect="#path-effect1974" />
        <circle
           style="fill:none;stroke:#000000;stroke-width:2.54;stroke-linecap:round;stroke-linejoin:round;stroke-opacity:0.955017;paint-order:stroke markers fill"
           id="circle1958"
           cx="105.53442"
           cy="119.71309"
           r="10.795124" />
        <path
           style="fill:none;stroke:#000000;stroke-width:2.59769;stroke-linecap:butt;stroke-linejoin:miter;stroke-miterlimit:4;stroke-dasharray:10.3908, 2.59769;stroke-dashoffset:0;stroke-opacity:1"
           d="m 197.18691,112.79831 -78.93448,5.129"
           id="path1960"
           inkscape:original-d="m 197.18691,112.79831 -78.93448,5.129"
           inkscape:path-effect="#path-effect1978" />
      </g>
      <path
         style="fill:#000000;stroke:#000000;stroke-width:11.0476;stroke-linecap:round;stroke-linejoin:round;stroke-miterlimit:4;stroke-dasharray:44.1905, 11.0476;stroke-dashoffset:0;stroke-opacity:0.955017;paint-order:stroke markers fill"
         d="m 606.3366,327.31113 c -4.55931,-3.85414 -5.89987,-7.11876 -5.89987,-14.36778 0,-5.70935 0.45211,-6.76508 4.72841,-11.04139 2.60062,-2.60062 5.91624,-4.72841 7.36803,-4.72841 8.47494,0 15.66329,10.16825 14.02857,19.84405 -1.83952,10.88806 -12.87671,16.5054 -20.22514,10.29353 z"
         id="path2054"
         transform="scale(0.26458333)" />
    </g>
    <path
       style="fill:#ffffff;stroke:#000000;stroke-width:11.0476;stroke-linecap:round;stroke-linejoin:round;stroke-miterlimit:4;stroke-dasharray:44.1905, 11.0476;stroke-dashoffset:0;stroke-opacity:0.955017;paint-order:stroke markers fill"
       d=""
       id="path2540"
       transform="scale(0.26458333)" />
    <g
       id="g3274">
      <g
         id="g2219"
         transform="matrix(0.39268024,0,0,0.47670803,13.55255,120.70283)">
        <ellipse
           style="fill:none;stroke:#000000;stroke-width:2.54;stroke-linecap:round;stroke-linejoin:round;stroke-opacity:0.955017;paint-order:stroke markers fill"
           id="ellipse2191"
           cx="104.24545"
           cy="119.22972"
           rx="50.108707"
           ry="43.502739" />
        <ellipse
           style="fill:none;stroke:#000000;stroke-width:3.71819;stroke-linecap:round;stroke-linejoin:round;stroke-opacity:0.955017;paint-order:stroke markers fill"
           id="ellipse2193"
           cx="103.27873"
           cy="117.94076"
           rx="74.654526"
           ry="62.570435" />
        <ellipse
           style="fill:none;stroke:#000000;stroke-width:4.6225;stroke-linecap:round;stroke-linejoin:round;stroke-opacity:0.955017;paint-order:stroke markers fill"
           id="ellipse2195"
           cx="103.7621"
           cy="118.58524"
           rx="93.053558"
           ry="77.585915" />
        <circle
           style="fill:none;stroke:#000000;stroke-width:2.54;stroke-linecap:round;stroke-linejoin:round;stroke-opacity:0.955017;paint-order:stroke markers fill"
           id="circle2197"
           cx="105.53442"
           cy="119.71309"
           r="10.795124" />
        <circle
           id="circle2199"
           style="fill:#000000;stroke:#000000;stroke-width:0.264583"
           cx="96.994987"
           cy="111.81814"
           r="1.0730668e-05" />
        <circle
           id="circle2201"
           style="fill:#000000;stroke:#000000;stroke-width:0.264583"
           cx="96.994987"
           cy="111.81814"
           r="1.0730668e-05" />
        <circle
           id="circle2203"
           style="fill:#000000;stroke:#000000;stroke-width:0.264583"
           cx="84.105293"
           cy="80.23838"
           r="1.0730668e-05" />
        <circle
           id="circle2205"
           style="fill:#000000;stroke:#000000;stroke-width:0.264583"
           cx="84.105293"
           cy="80.23838"
           r="1.0730668e-05" />
        <path
           style="fill:none;stroke:#000000;stroke-width:2.4;stroke-linecap:butt;stroke-linejoin:miter;stroke-miterlimit:4;stroke-dasharray:9.6, 2.4;stroke-dashoffset:0;stroke-opacity:1"
           d="M 103.1176,108.91796 97.961719,41.891524"
           id="path2207"
           inkscape:original-d="M 103.1176,108.91796 97.961719,41.891524"
           inkscape:path-effect="#path-effect2223" />
        <path
           style="fill:none;stroke:#000000;stroke-width:2.4;stroke-linecap:butt;stroke-linejoin:miter;stroke-miterlimit:4;stroke-dasharray:9.6, 2.4;stroke-dashoffset:0;stroke-opacity:1"
           d="m 114.39609,197.53465 -5.15588,-67.02644"
           id="path2209"
           inkscape:original-d="m 114.39609,197.53465 -5.15588,-67.02644"
           inkscape:path-effect="#path-effect2227" />
        <ellipse
           style="fill:none;stroke:#000000;stroke-width:4.6225;stroke-linecap:round;stroke-linejoin:round;stroke-opacity:0.955017;paint-order:stroke markers fill"
           id="ellipse2211"
           cx="103.7621"
           cy="118.58524"
           rx="93.053558"
           ry="77.585915" />
        <path
           style="fill:none;stroke:#000000;stroke-width:2.6678;stroke-linecap:butt;stroke-linejoin:miter;stroke-miterlimit:4;stroke-dasharray:10.6712, 2.6678;stroke-dashoffset:0;stroke-opacity:1"
           d="M 95.040813,120.53836 11.585386,125.6549"
           id="path2213"
           inkscape:original-d="M 95.040813,120.53836 11.585386,125.6549"
           inkscape:path-effect="#path-effect2231" />
        <circle
           style="fill:none;stroke:#000000;stroke-width:2.54;stroke-linecap:round;stroke-linejoin:round;stroke-opacity:0.955017;paint-order:stroke markers fill"
           id="circle2215"
           cx="105.53442"
           cy="119.71309"
           r="10.795124" />
        <path
           style="fill:none;stroke:#000000;stroke-width:2.59769;stroke-linecap:butt;stroke-linejoin:miter;stroke-miterlimit:4;stroke-dasharray:10.3908, 2.59769;stroke-dashoffset:0;stroke-opacity:1"
           d="m 197.18691,112.79831 -78.93448,5.129"
           id="path2217"
           inkscape:original-d="m 197.18691,112.79831 -78.93448,5.129"
           inkscape:path-effect="#path-effect2235" />
      </g>
      <path
         style="fill:#ffffff;stroke:#000000;stroke-width:2.92301;stroke-linecap:round;stroke-linejoin:round;stroke-miterlimit:4;stroke-dasharray:11.6921, 2.92301;stroke-dashoffset:0;stroke-opacity:0.955017;paint-order:stroke markers fill"
         d="m 50.059394,196.89491 c -2.768957,-0.72587 -4.153858,-1.40595 -6.736059,-3.30783 -3.600415,-2.65184 -6.381154,-7.15288 -7.366666,-11.92404 -0.642163,-3.1089 -0.643554,-5.09921 -0.0057,-8.18712 1.647684,-7.97696 7.641547,-14.11371 15.190298,-15.55242 l 1.354772,-0.2582 0.09532,1.8054 c 0.07484,1.41746 0.216492,1.82847 0.659241,1.91272 0.48695,0.0927 0.563925,-0.15981 0.563925,-1.84976 v -1.95708 h 1.273109 c 2.169768,0 4.577217,0.64946 7.394945,1.99496 5.078733,2.42515 9.172453,7.65411 10.470205,13.37373 l 0.4528,1.99563 -0.933862,0.20511 c -0.713349,0.15668 -0.93386,0.38739 -0.93386,0.97706 0,0.68585 0.107812,0.75038 0.966729,0.5786 l 0.966726,-0.19334 v 1.76106 c 0,2.47691 -1.057973,6.32509 -2.486159,9.04293 -2.238492,4.25986 -6.796157,8.04944 -11.255127,9.35835 l -1.657194,0.48646 -0.221347,-2.06694 c -0.187368,-1.74959 -0.316712,-2.06694 -0.842439,-2.06694 -0.574101,0 -0.605226,0.17064 -0.41144,2.2557 l 0.209645,2.2557 -2.221412,-0.0178 c -1.221775,-0.01 -3.258664,-0.28966 -4.526421,-0.62199 z m 7.243318,-4.79668 c 0.325681,-0.20648 0.373115,-0.81661 0.200044,-2.573 -0.198663,-2.01612 -0.307391,-2.30234 -0.874599,-2.30234 -0.59237,0 -0.630365,0.1446 -0.444529,1.69177 0.111762,0.93048 0.204467,2.09055 0.206007,2.57794 0.0029,0.92648 0.200414,1.05747 0.913077,0.60563 z m -0.07421,-7.13072 c -0.201769,-1.52102 -0.153953,-1.67064 0.856983,-2.68158 0.989613,-0.98961 1.851623,-2.94665 1.851623,-4.20378 0,-0.2896 0.145007,-0.52654 0.322241,-0.52654 0.177234,0 0.322241,-0.29002 0.322241,-0.64448 0,-0.35447 -0.18838,-0.64449 -0.418629,-0.64449 -0.230245,0 -0.598561,-0.49759 -0.81848,-1.10577 -0.518293,-1.43331 -2.312136,-2.99458 -3.750757,-3.26447 l -1.13474,-0.21288 v -1.89759 c 0,-1.71031 -0.0665,-1.89759 -0.67383,-1.89759 -0.624089,0 -0.666041,0.15142 -0.568338,2.0513 0.102192,1.98718 0.07152,2.0799 -0.9812,2.9657 -1.173908,0.98778 -1.965785,2.53236 -1.965785,3.83432 0,0.78245 -0.07939,0.81595 -1.933453,0.81595 -1.847525,0 -1.933456,0.0358 -1.933456,0.80561 0,0.7667 0.09025,0.8056 1.86872,0.8056 1.820974,0 1.878528,0.0271 2.252617,1.06166 0.570516,1.57773 2.315025,3.11531 3.800936,3.35007 1.469945,0.23224 1.733354,0.52781 1.740066,1.95256 0.004,0.85204 0.132827,1.04729 0.690936,1.04729 0.636852,0 0.67069,-0.11541 0.472305,-1.61089 z m -17.874636,-5.1562 c 1.117108,0 1.248691,-0.0849 1.248691,-0.80561 0,-0.72071 -0.131583,-0.8056 -1.248691,-0.8056 -2.394193,0 -3.262704,0.32167 -3.262704,1.20841 0,0.73041 0.09399,0.78681 1.007007,0.6042 0.553855,-0.11077 1.568918,-0.2014 2.255697,-0.2014 z m 6.40457,-1.12785 c 0,-0.76019 -0.09843,-0.8056 -1.745977,-0.8056 -2.160728,0 -2.765417,0.21892 -2.765417,1.0012 0,0.54042 0.257323,0.61001 2.255697,0.61001 2.19125,0 2.255697,-0.023 2.255697,-0.80561 z m 18.483969,-1.33277 c 1.323274,-0.18137 1.495065,-0.29708 1.495065,-1.00701 0,-0.72647 -0.09493,-0.7831 -1.007007,-0.60068 -0.553855,0.11077 -1.568918,0.2014 -2.255697,0.2014 -1.117108,0 -1.24869,0.0849 -1.24869,0.80561 0,0.89531 0.353377,0.96568 3.016329,0.60068 z m 5.603658,-0.43601 c 0.916122,-0.003 1.047287,-0.11007 1.047287,-0.85404 0,-0.83697 -0.0269,-0.84726 -1.691772,-0.64729 -0.930476,0.11176 -1.94554,0.20447 -2.255698,0.20601 -0.393459,0.002 -0.563925,0.25906 -0.563925,0.85057 0,0.80032 0.06763,0.83659 1.208411,0.64803 0.664625,-0.10986 1.679689,-0.20133 2.255697,-0.20328 z m -15.977359,-9.83464 c 0.318307,-0.12151 0.401775,-0.7874 0.323141,-2.57795 -0.09352,-2.1294 -0.179028,-2.41412 -0.725046,-2.41412 -0.539279,0 -0.618461,0.2387 -0.614627,1.8529 0.004,1.68426 0.244232,3.30298 0.490191,3.30298 0.05345,0 0.290303,-0.0737 0.526341,-0.16381 z"
         id="path2423" />
      <path
         style="fill:#ffffff;stroke:#000000;stroke-width:2.92301;stroke-linecap:round;stroke-linejoin:round;stroke-miterlimit:4;stroke-dasharray:11.6921, 2.92301;stroke-dashoffset:0;stroke-opacity:0.955017;paint-order:stroke markers fill"
         d="m 53.590322,181.4367 c -1.642277,-1.00136 -2.097034,-1.94335 -1.847241,-3.82641 0.257169,-1.93862 1.122121,-3.47428 2.245061,-3.98593 0.68291,-0.31115 1.059248,-0.25701 2.256435,0.32463 0.906042,0.44019 1.436828,0.91121 1.436828,1.27504 0,0.31733 0.191804,0.863 0.426228,1.21259 0.61445,0.91632 0.103775,2.9758 -1.100019,4.43621 -1.120365,1.3592 -1.901526,1.48809 -3.417292,0.56387 z"
         id="path2462" />
      <path
         style="fill:#ffffff;stroke:#000000;stroke-width:2.92301;stroke-linecap:round;stroke-linejoin:round;stroke-miterlimit:4;stroke-dasharray:11.6921, 2.92301;stroke-dashoffset:0;stroke-opacity:0.955017;paint-order:stroke markers fill"
         d="M 48.336375,205.08992 C 38.000967,202.87164 29.611214,194.87411 26.726496,184.4903 c -0.982893,-3.53801 -0.966245,-3.58477 1.36306,-3.82823 1.093351,-0.11428 2.030158,-0.25003 2.081794,-0.30166 0.05163,-0.0516 0.01484,-0.39613 -0.08176,-0.76556 -0.161036,-0.6158 -0.347612,-0.65787 -2.242917,-0.50573 l -2.06727,0.16594 v -2.79676 c 0,-12.78549 9.117574,-24.36721 21.590246,-27.42532 0.974786,-0.239 2.388624,-0.52984 3.141866,-0.64631 1.312961,-0.20302 1.369531,-0.17733 1.369531,0.62216 0,0.6191 0.166024,0.83393 0.644483,0.83393 0.472623,0 0.644485,-0.21483 0.644485,-0.80561 0,-0.76847 0.08782,-0.8056 1.905109,-0.8056 4.530775,0 10.104001,1.77362 14.366732,4.57206 5.788506,3.8001 9.982229,9.49065 11.877622,16.11701 1.031652,3.60669 1.25205,5.41257 0.660577,5.41257 -0.63073,0 -0.568124,1.19235 0.0817,1.55601 0.460687,0.25781 0.506243,0.69569 0.330282,3.17463 -0.855234,12.04865 -9.145133,22.18263 -20.955286,25.61679 -2.437693,0.70883 -2.543844,0.71407 -2.959301,0.1459 -0.463513,-0.63389 -1.118282,-0.45832 -1.118282,0.29984 0,0.62273 -6.065719,0.59823 -9.022789,-0.0364 z m 9.901517,-3.82618 -0.18102,-2.39352 2.148523,-0.65745 c 5.919375,-1.81133 11.291726,-6.9917 13.459333,-12.97835 0.572902,-1.58229 1.067681,-4.10903 1.314339,-6.71208 0.0947,-0.99937 0.358846,-1.88145 0.605668,-2.02254 0.461558,-0.26382 0.293071,-1.08147 -0.359,-1.74218 -0.206904,-0.20965 -0.476094,-1.00596 -0.598202,-1.76958 -0.222602,-1.39207 -0.663826,-2.4978 -2.546292,-6.38114 -1.494914,-3.08385 -5.078595,-6.54446 -8.599974,-8.30461 -4.852678,-2.42559 -8.87109,-2.92614 -13.659522,-1.70146 -3.642039,0.93148 -6.510596,2.57229 -9.265697,5.29997 -3.900321,3.8615 -5.815576,7.87381 -6.443594,13.49883 -0.181536,1.626 -0.499388,3.06407 -0.706334,3.19572 -0.206944,0.13165 -0.847545,0.24158 -1.423554,0.2443 -0.914712,0.004 -1.047287,0.11217 -1.047287,0.85205 0,0.82547 0.03952,0.84188 1.546228,0.64201 l 1.546228,-0.20511 0.411879,1.99412 c 1.333386,6.45563 5.682491,12.11358 11.47994,14.93481 2.48335,1.20847 6.26459,2.08833 8.97473,2.08833 2.026126,0 2.142638,0.15038 2.142638,2.76542 0,1.57032 0.06952,1.74598 0.690997,1.74598 0.660728,0 0.683066,-0.10485 0.509973,-2.39352 z m 22.135253,-25.19269 c 0.280348,-0.10758 0.50972,-0.47011 0.50972,-0.80561 0,-0.53595 -0.254288,-0.61001 -2.094576,-0.61001 -2.019388,0 -2.094577,0.0289 -2.094577,0.80561 0,0.75011 0.109172,0.8056 1.584857,0.8056 0.871672,0 1.814232,-0.088 2.094576,-0.19559 z M 53.492254,153.73602 c 0,-2.19918 -0.208793,-2.92653 -0.840083,-2.92653 -0.343787,0 -0.448887,0.56586 -0.448887,2.41681 0,2.20199 0.05729,2.41682 0.644485,2.41682 0.571886,0 0.644485,-0.21483 0.644485,-1.9071 z"
         id="path2501" />
      <path
         style="fill:#ffffff;stroke:#000000;stroke-width:2.92301;stroke-linecap:round;stroke-linejoin:round;stroke-miterlimit:4;stroke-dasharray:11.6921, 2.92301;stroke-dashoffset:0;stroke-opacity:0.955017;paint-order:stroke markers fill"
         d="m 49.10936,212.53299 c -12.755856,-1.98154 -23.378114,-10.65975 -28.021718,-22.89328 -1.066241,-2.80901 -2.179271,-8.01521 -1.745264,-8.16348 0.457881,-0.15643 0.385418,-1.58752 -0.08839,-1.74564 -0.291742,-0.0974 -0.384593,-1.0006 -0.336757,-3.27589 0.339114,-16.12969 11.336044,-29.8964 27.069571,-33.88754 1.692183,-0.42925 3.638137,-0.78046 4.324345,-0.78046 1.240763,0 1.24765,0.007 1.24765,1.28897 0,1.07414 0.107413,1.28897 0.644486,1.28897 0.552029,0 0.644485,-0.21483 0.644485,-1.49756 v -1.49755 l 3.381896,0.21865 c 16.317693,1.05496 29.882169,13.04352 32.884062,29.0636 0.588124,3.13861 0.50287,3.34535 -1.38321,3.35423 -0.913154,0.004 -1.047287,0.1128 -1.047287,0.84713 0,0.81215 0.05037,0.83464 1.411648,0.6305 1.304655,-0.19564 1.426487,-0.15257 1.607391,0.56821 0.255701,1.0188 -0.29477,6.73386 -0.899941,9.34331 -2.864863,12.35305 -12.652337,22.65234 -24.837193,26.13599 -1.417868,0.40537 -3.121724,0.82059 -3.786349,0.92271 l -1.208411,0.18567 v -1.26872 c 0,-1.05388 -0.10913,-1.2687 -0.644485,-1.2687 -0.53412,0 -0.644485,0.21482 -0.644485,1.25449 0,0.84667 -0.165706,1.31808 -0.50972,1.45009 -0.82119,0.31512 -5.236858,0.16522 -8.062324,-0.2737 z m 9.479542,-4.12463 c 0.07599,-0.65823 0.321762,-0.93002 0.966726,-1.06907 8.374113,-1.80534 15.124078,-6.34846 19.573084,-13.17384 3.034909,-4.65596 4.44614,-8.79284 5.034116,-14.75694 0.359267,-3.64426 0.401468,-3.78635 1.124596,-3.78635 0.596122,0 0.751321,-0.17473 0.751321,-0.84589 0,-0.75994 -0.09418,-0.82705 -0.926917,-0.6605 -0.921981,0.18439 -0.928087,0.17502 -1.147038,-1.76024 -0.450077,-3.97815 -2.327569,-8.87765 -4.860666,-12.68437 -5.360294,-8.05544 -13.578112,-12.8307 -23.350018,-13.56838 -2.124133,-0.16035 -2.906337,-0.33705 -2.906337,-0.65653 0,-0.24042 -0.30693,-0.43713 -0.682069,-0.43713 -0.508244,0 -0.641803,0.15397 -0.524079,0.60416 0.138406,0.52927 -0.09568,0.63014 -1.888556,0.81383 -6.600272,0.67622 -14.374537,5.10074 -18.843255,10.72415 -4.475257,5.63164 -6.553844,11.25953 -6.970746,18.8737 l -0.189671,3.46411 h -1.724058 c -1.624167,0 -1.724058,0.0467 -1.724058,0.8056 0,0.76874 0.08745,0.80561 1.910609,0.80561 h 1.910608 l 0.35929,1.8529 c 2.321394,11.97166 11.245787,21.28297 23.133633,24.13658 1.288671,0.30933 3.709368,0.53626 5.956011,0.55834 l 3.784968,0.0372 0.0013,0.90979 c 0.0019,1.23641 1.085815,1.07202 1.231125,-0.18672 z"
         id="path2696" />
      <path
         style="fill:#ffffff;stroke:#000000;stroke-width:2.92301;stroke-linecap:round;stroke-linejoin:round;stroke-miterlimit:4;stroke-dasharray:11.6921, 2.92301;stroke-dashoffset:0;stroke-opacity:0.955017;paint-order:stroke markers fill"
         d="m 47.528647,204.64071 c -8.175601,-2.14461 -14.823607,-7.51842 -18.64264,-15.06948 -1.088752,-2.1527 -2.462123,-6.35335 -2.462123,-7.53075 0,-0.80334 0.142807,-0.93396 1.20841,-1.10528 2.597754,-0.41767 2.70521,-0.46795 2.59886,-1.21584 -0.09389,-0.6603 -0.266065,-0.71164 -2.302671,-0.68671 l -2.201191,0.0269 0.21334,-3.08825 c 0.507603,-7.34794 2.667039,-12.69975 7.313053,-18.12423 3.299722,-3.85261 9.00117,-7.31218 14.248069,-8.64557 3.259648,-0.82838 4.069988,-0.82899 4.285917,-0.003 0.213672,0.81709 1.276469,0.84122 1.532419,0.0348 0.263282,-0.82953 0.877829,-0.93334 3.832998,-0.64745 9.966089,0.96414 19.359683,8.26719 23.170313,18.01375 1.180407,3.01916 2.020186,7.04648 1.564381,7.50228 -0.447461,0.44746 -0.476375,1.84275 -0.03819,1.84275 0.185687,0 0.322244,1.00666 0.322244,2.3755 0,2.69613 -1.083413,7.39155 -2.377527,10.30403 -3.277503,7.37621 -10.646455,13.68796 -18.544225,15.88374 -1.696816,0.47175 -2.073744,0.48523 -2.793749,0.0999 -0.736288,-0.39405 -0.868013,-0.38162 -1.14187,0.10774 -0.446829,0.79844 -6.637576,0.75125 -9.785818,-0.0746 z m 10.797243,-3.34143 v -2.35797 l 1.852896,-0.57585 c 3.312874,-1.0296 5.587682,-2.46039 8.484319,-5.33642 2.231038,-2.21517 3.021886,-3.27341 4.098251,-5.48391 1.240517,-2.54762 2.321144,-6.53173 2.321144,-8.5577 0,-0.46808 0.240602,-1.35809 0.534675,-1.9778 0.484463,-1.02092 0.488101,-1.20707 0.03875,-1.98215 -0.272759,-0.47048 -0.739211,-1.70395 -1.036561,-2.74106 -0.297346,-1.0371 -1.133977,-3.13973 -1.859177,-4.67251 -1.071755,-2.26527 -1.807122,-3.27369 -3.928948,-5.38785 -2.918608,-2.90806 -4.988502,-4.21096 -8.628706,-5.43138 -2.939769,-0.98559 -7.328796,-1.12914 -10.428922,-0.34111 -4.840237,1.23037 -9.33995,4.5144 -12.348178,9.01207 -1.836065,2.74515 -2.737181,5.24188 -3.406645,9.43884 -0.262152,1.64346 -0.554048,3.11337 -0.648663,3.26646 -0.09461,0.15309 -0.68116,0.37385 -1.303433,0.49059 -0.920462,0.17268 -1.131409,0.35645 -1.131409,0.98561 0,0.69049 0.159443,0.78387 1.488348,0.87156 l 1.488344,0.0982 0.576866,2.25569 c 1.171946,4.58262 3.137768,7.87628 6.587749,11.03757 3.372565,3.09034 8.447331,5.21821 12.47525,5.23092 2.649347,0.008 3.062129,0.32672 3.321534,2.56177 0.188764,1.62641 0.329676,1.95439 0.839676,1.95439 0.546463,0 0.612844,-0.25541 0.612844,-2.35798 z m 22.498828,-25.9188 c 0.09782,-0.68878 -0.0029,-0.72505 -2.014016,-0.72505 -2.053868,0 -2.11699,0.0245 -2.11699,0.82098 0,0.80248 0.0454,0.81882 2.014016,0.72505 1.808914,-0.0862 2.024502,-0.16977 2.11699,-0.82098 z M 53.42581,153.31028 c -0.07795,-1.92065 -0.194318,-2.35185 -0.658601,-2.44044 -0.496904,-0.0948 -0.563925,0.18244 -0.563925,2.33284 0,2.24305 0.05327,2.44044 0.658603,2.44044 0.611376,0 0.651812,-0.16727 0.563923,-2.33284 z"
         id="path2735" />
      <path
         style="fill:#ffffff;stroke:#000000;stroke-width:2.92301;stroke-linecap:round;stroke-linejoin:round;stroke-miterlimit:4;stroke-dasharray:11.6921, 2.92301;stroke-dashoffset:0;stroke-opacity:0.955017;paint-order:stroke markers fill"
         d="m 50.753192,204.96842 c -8.153331,-0.83759 -16.327048,-6.29825 -20.774048,-13.87862 -1.521338,-2.59328 -3.296244,-7.54339 -3.167731,-8.83462 0.08698,-0.87394 0.244696,-0.99431 1.707048,-1.30286 1.411669,-0.29785 1.611212,-0.43945 1.611212,-1.14329 0,-0.76591 -0.0994,-0.80772 -2.134,-0.89767 l -2.133999,-0.0943 0.132995,-1.51686 c 0.510571,-5.82328 1.369934,-9.38383 3.088247,-12.79536 2.283586,-4.53381 5.424971,-8.20248 9.225647,-10.77416 5.0472,-3.41512 12.765135,-5.93906 13.366766,-4.37123 0.267576,0.69728 1.256673,0.59405 1.93856,-0.20233 0.530121,-0.61914 0.795115,-0.66465 2.730116,-0.46887 4.669893,0.47249 9.427369,2.18318 13.155096,4.7303 5.073732,3.46683 9.286523,9.07545 11.231774,14.9532 0.733264,2.21562 0.873649,3.27993 0.998861,7.5727 0.131857,4.52066 0.07109,5.28772 -0.64021,8.08118 -1.612477,6.33263 -5.269034,11.64841 -10.835717,15.75258 -3.997669,2.94739 -9.278027,5.1124 -11.46721,4.70171 -0.602888,-0.1131 -1.35196,-0.0691 -1.664603,0.0977 -0.870783,0.46477 -3.862033,0.64832 -6.368804,0.3908 z m 7.639143,-3.60584 0.09468,-2.29467 1.934623,-0.59282 c 2.832987,-0.86812 5.637771,-2.70207 8.510371,-5.56462 3.619571,-3.60692 4.921948,-6.25377 6.207574,-12.6158 0.875856,-4.33424 0.845831,-5.03578 -0.351702,-8.21718 -1.954938,-5.19352 -3.060161,-7.11539 -5.541984,-9.63689 -2.983259,-3.03096 -5.528916,-4.6694 -8.876554,-5.71314 -2.398635,-0.74785 -3.047836,-0.81594 -6.621131,-0.69444 -5.81323,0.19767 -9.285285,1.65509 -13.273405,5.57159 -3.693089,3.62677 -5.476571,7.09879 -6.48212,12.61915 -0.716804,3.93518 -0.71728,3.93626 -1.869472,4.23273 -0.774625,0.19933 -1.050856,0.46694 -1.124714,1.08964 -0.100693,0.84897 0.501467,1.21359 2.031357,1.23003 0.533463,0.006 0.829408,0.58773 1.717992,3.37855 0.627743,1.9716 1.615805,4.21184 2.379496,5.39504 2.530348,3.92036 6.69957,7.18285 11.270612,8.81948 0.76368,0.27343 2.693591,0.63228 4.288692,0.79744 3.204229,0.33178 4.02803,0.85667 4.02803,2.56647 0,1.31747 0.311216,1.92412 0.987087,1.92412 0.51504,0 0.608737,-0.31134 0.69057,-2.29468 z m 22.432383,-25.9821 c 0.09782,-0.68878 -0.0029,-0.72505 -2.014016,-0.72505 -2.053868,0 -2.11699,0.0245 -2.11699,0.82098 0,0.80248 0.0454,0.81882 2.014016,0.72505 1.808914,-0.0862 2.024502,-0.16977 2.11699,-0.82098 z M 53.42581,153.31028 c -0.07795,-1.92065 -0.194318,-2.35185 -0.658601,-2.44044 -0.496904,-0.0948 -0.563925,0.18244 -0.563925,2.33284 0,2.24305 0.05327,2.44044 0.658603,2.44044 0.611376,0 0.651812,-0.16727 0.563923,-2.33284 z"
         id="path2774" />
      <path
         style="fill:#ffffff;stroke:#000000;stroke-width:2.92301;stroke-linecap:round;stroke-linejoin:round;stroke-miterlimit:4;stroke-dasharray:11.6921, 2.92301;stroke-dashoffset:0;stroke-opacity:0.955017;paint-order:stroke markers fill"
         d="m 47.530769,212.02525 c -10.749214,-2.25883 -19.482794,-8.93052 -24.488352,-18.70696 -2.939749,-5.74168 -3.775224,-9.541 -3.785105,-17.21277 -0.01713,-13.29775 8.797006,-26.21381 21.52456,-31.54167 3.777843,-1.58143 8.118483,-2.65783 10.037281,-2.48906 0.213508,0.0188 0.483415,0.54168 0.599787,1.162 0.153117,0.81618 0.379769,1.12785 0.820205,1.12785 0.506643,0 0.608624,-0.24336 0.608624,-1.45234 v -1.45235 l 2.336258,0.18843 c 9.253709,0.74634 16.647924,3.84035 23.036561,9.63934 5.489355,4.98271 10.461977,14.44568 10.789655,20.53288 l 0.0898,1.66827 -1.208407,0.29305 c -0.97943,0.23752 -1.208411,0.43964 -1.208411,1.06664 0,0.68871 0.142558,0.7736 1.299083,0.7736 0.924169,0 1.359604,0.15772 1.508792,0.54649 0.367393,0.9574 -0.508892,7.93234 -1.371325,10.91533 -3.387987,11.71833 -13.183412,21.29694 -25.022632,24.46876 -4.001765,1.0721 -4.126773,1.06233 -4.126773,-0.32279 0,-0.89573 -0.126804,-1.12784 -0.616159,-1.12784 -0.467733,0 -0.66862,0.3105 -0.833932,1.28896 l -0.21777,1.28897 -3.435782,-0.0227 c -2.04516,-0.0135 -4.609623,-0.26933 -6.335963,-0.63211 z m 11.180341,-3.42188 c 0.34584,-0.70277 0.991823,-1.03577 3.642813,-1.87786 5.424326,-1.72304 8.790397,-3.66848 12.522827,-7.23764 2.66293,-2.54644 4.596706,-5.18301 6.303716,-8.59465 1.575874,-3.14957 2.455233,-6.29866 3.078403,-11.02417 0.520123,-3.94413 0.61391,-4.24689 1.315532,-4.24689 0.280472,0 0.464344,-0.31901 0.464344,-0.80561 0,-0.63488 -0.16342,-0.80561 -0.771128,-0.80561 -0.809247,0 -1.162328,-0.53073 -1.162328,-1.74714 0,-1.45568 -1.298122,-5.75013 -2.537804,-8.39553 -4.889534,-10.43399 -13.529045,-16.55806 -25.19699,-17.86075 -1.642676,-0.1834 -3.136297,-0.48307 -3.319153,-0.66593 -0.493675,-0.49367 -1.492544,-0.40246 -1.492544,0.13629 0,0.29253 -0.454313,0.54136 -1.20841,0.66185 -3.591099,0.57379 -5.95961,1.27401 -8.699391,2.57186 -3.897035,1.84604 -6.444845,3.67439 -9.267031,6.65016 -5.361466,5.65325 -7.761503,11.2648 -8.52748,19.93817 -0.18,2.03818 -0.328512,3.81454 -0.330028,3.94746 -0.0015,0.13293 -0.727802,0.24169 -1.613968,0.24169 -1.495048,0 -1.611213,0.0569 -1.611213,0.78952 0,0.73309 0.12987,0.79644 1.816842,0.88617 l 1.816841,0.0966 0.757964,3.1562 c 2.131392,8.87523 7.960104,16.23402 16.075915,20.29596 3.972285,1.98812 7.208197,2.80927 12.079512,3.06533 4.185661,0.22002 4.353573,0.25598 4.452665,0.95368 0.139777,0.98421 0.896284,0.91489 1.410094,-0.1292 z"
         id="path2813" />
      <path
         style="fill:#ffffff;stroke:#000000;stroke-width:2.92301;stroke-linecap:round;stroke-linejoin:round;stroke-miterlimit:4;stroke-dasharray:11.6921, 2.92301;stroke-dashoffset:0;stroke-opacity:0.955017;paint-order:stroke markers fill"
         d="m 48.497495,204.42944 c -8.775356,-1.94675 -16.585218,-8.58222 -20.00868,-16.9999 -0.670505,-1.64865 -1.181757,-3.47902 -1.210155,-4.33255 -0.04904,-1.4741 -0.04544,-1.47921 1.400922,-1.98932 1.18876,-0.41925 1.450091,-0.65474 1.450091,-1.30669 0,-0.73927 -0.136154,-0.80662 -1.933456,-0.9564 l -1.933454,-0.16112 0.07982,-2.09457 c 0.477616,-12.53242 8.026732,-22.48611 20.197332,-26.63068 2.281928,-0.77708 5.018878,-1.01577 5.018878,-0.43769 0,0.48648 1.403337,0.3863 2.113548,-0.15088 0.344032,-0.26021 1.295714,-0.47772 2.114846,-0.48336 1.862944,-0.0128 6.924839,1.25954 9.417867,2.36728 5.919685,2.63032 11.294481,8.1251 14.29044,14.60946 1.55974,3.37585 2.019718,5.93055 2.026258,11.25374 0.0048,3.91852 -0.107526,4.94626 -0.802952,7.34603 -2.45581,8.47449 -8.681101,15.2936 -17.211177,18.85294 -3.070117,1.28106 -11.452289,1.903 -15.010133,1.11371 z m 9.949236,-1.77919 c 0.110773,-0.55386 0.201403,-1.54823 0.201403,-2.20971 0,-1.18411 0.03042,-1.21309 1.967608,-1.87454 1.082189,-0.36951 2.779163,-1.15151 3.771054,-1.73777 2.553597,-1.50929 7.089235,-6.12282 8.336629,-8.47979 1.893406,-3.57762 3.507023,-10.98864 2.992377,-13.7434 -0.338582,-1.81234 -2.220169,-6.54941 -3.415546,-8.59897 -1.217229,-2.08701 -4.331907,-5.25753 -6.865734,-6.98882 -3.27352,-2.23669 -6.072079,-3.05309 -10.442485,-3.04629 -6.586802,0.0103 -10.132385,1.31565 -14.299284,5.26466 -3.833763,3.63329 -5.652254,7.07987 -6.877585,13.03507 -0.723921,3.51832 -0.696984,3.46162 -1.953223,4.11125 -0.762346,0.39422 -0.944803,0.67996 -0.865732,1.35577 0.08,0.68372 0.319635,0.90081 1.18913,1.07725 1.288248,0.2614 1.428811,0.45319 2.334654,3.1855 1.426985,4.30424 2.532184,6.14433 5.424488,9.03142 3.724949,3.71824 6.745171,5.30932 11.640465,6.13232 1.917292,0.32233 3.770259,0.7382 4.117702,0.92414 0.401183,0.21471 0.714674,0.8394 0.859044,1.71182 0.282361,1.70631 0.371549,1.8571 1.098447,1.8571 0.397616,0 0.649743,-0.32278 0.786588,-1.00701 z m 22.377987,-27.26977 c 0.09782,-0.68878 -0.0029,-0.72505 -2.014016,-0.72505 -2.053868,0 -2.11699,0.0245 -2.11699,0.82098 0,0.80248 0.0454,0.81882 2.014016,0.72505 1.808914,-0.0862 2.024502,-0.16977 2.11699,-0.82098 z M 53.42581,153.31028 c -0.07795,-1.92065 -0.194318,-2.35185 -0.658601,-2.44044 -0.496904,-0.0948 -0.563925,0.18244 -0.563925,2.33284 0,2.24305 0.05327,2.44044 0.658603,2.44044 0.611376,0 0.651812,-0.16727 0.563923,-2.33284 z"
         id="path2852" />
      <path
         style="fill:#ffffff;stroke:#000000;stroke-width:2.92301;stroke-linecap:round;stroke-linejoin:round;stroke-miterlimit:4;stroke-dasharray:11.6921, 2.92301;stroke-dashoffset:0;stroke-opacity:0.955017;paint-order:stroke markers fill"
         d="m 48.112595,204.16175 c -2.577608,-0.58976 -7.02664,-2.68091 -9.579509,-4.50261 -4.538292,-3.23845 -8.658426,-8.70044 -10.362576,-13.73747 -1.141831,-3.37497 -1.071382,-3.93481 0.589632,-4.68566 1.080913,-0.48863 1.369531,-0.78887 1.369531,-1.4247 0,-0.73368 -0.168693,-0.83233 -1.889471,-1.10497 l -1.889474,-0.29936 0.212347,-2.60082 c 0.271508,-3.32543 1.293479,-7.51762 2.465694,-10.11442 2.963592,-6.56525 8.742354,-11.98487 15.924058,-14.93442 2.189269,-0.89915 3.039489,-1.07219 5.639245,-1.14775 1.683716,-0.0489 3.892288,-0.17475 4.907936,-0.2796 2.335247,-0.24106 7.337134,0.98451 10.482246,2.56836 6.431431,3.23881 11.68789,9.3316 14.344915,16.62725 0.93164,2.5581 1.188003,12.09458 0.407336,15.15264 -0.726551,2.84608 -2.998316,7.44632 -4.94181,10.00699 -3.733673,4.91932 -9.832716,9.05866 -14.968723,10.15908 -3.34477,0.71663 -10.216658,0.88826 -12.711377,0.31746 z m 10.339941,-1.01421 c 0.107579,-0.28035 0.195598,-0.92345 0.195598,-1.42912 0,-1.8226 0.480899,-2.42656 2.525837,-3.17218 2.802361,-1.02179 5.3794,-2.86705 8.404119,-6.01767 3.046114,-3.1729 4.139652,-5.19787 5.315228,-9.84251 1.241745,-4.90608 1.350711,-6.94912 0.517747,-9.70742 -1.363718,-4.51588 -3.323939,-8.0616 -5.898981,-10.67028 -2.650773,-2.68541 -5.114083,-4.43339 -7.67045,-5.443 -1.400733,-0.55321 -2.630149,-0.71519 -6.254803,-0.82411 -6.737509,-0.20246 -9.465048,0.57257 -13.628666,3.87258 -4.264036,3.3796 -6.533557,7.1878 -8.12945,13.64104 -0.717717,2.90219 -1.123103,3.96261 -1.678191,4.38984 -0.402535,0.30982 -0.840637,0.56652 -0.973564,0.57046 -0.132924,0.004 -0.241681,0.4496 -0.241681,0.99034 0,0.80945 0.189582,1.06238 1.072941,1.43147 1.366941,0.57115 1.616589,0.90184 2.312734,3.06348 1.282099,3.98113 2.444504,5.8527 5.646242,9.09095 3.779322,3.82242 5.976398,4.98869 11.752723,6.2387 2.1268,0.46025 4.030123,1.04513 4.229605,1.29975 0.199483,0.25461 0.454965,1.03994 0.567733,1.74517 0.172447,1.07841 0.327004,1.28223 0.972359,1.28223 0.422027,0 0.855343,-0.22938 0.96292,-0.50972 z m 22.372182,-27.76706 c 0.09782,-0.68878 -0.0029,-0.72505 -2.014016,-0.72505 -2.053868,0 -2.11699,0.0245 -2.11699,0.82098 0,0.80248 0.0454,0.81882 2.014016,0.72505 1.808914,-0.0862 2.024502,-0.16977 2.11699,-0.82098 z M 53.42581,153.31028 c -0.07795,-1.92065 -0.194318,-2.35185 -0.658601,-2.44044 -0.496904,-0.0948 -0.563925,0.18244 -0.563925,2.33284 0,2.24305 0.05327,2.44044 0.658603,2.44044 0.611376,0 0.651812,-0.16727 0.563923,-2.33284 z"
         id="path2891" />
      <path
         style="fill:#ffffff;stroke:#000000;stroke-width:2.92301;stroke-linecap:round;stroke-linejoin:round;stroke-miterlimit:4;stroke-dasharray:11.6921, 2.92301;stroke-dashoffset:0;stroke-opacity:0.955017;paint-order:stroke markers fill"
         d="M 52.042163,212.33744 C 40.78696,211.62457 30.279973,205.1733 24.521886,195.44007 20.73478,189.0385 19.580519,184.77878 19.544735,177.07225 c -0.02035,-4.38277 0.08662,-5.58106 0.713392,-7.99144 2.017861,-7.76009 6.069996,-14.16987 12.070625,-19.09366 4.599162,-3.77382 11.4984,-6.88853 17.041117,-7.69332 1.509897,-0.21923 1.518115,-0.21536 1.79138,0.84472 0.190926,0.74066 0.489513,1.09632 0.980522,1.16794 0.627716,0.0916 0.705998,-0.0424 0.705998,-1.20841 v -1.31138 h 1.554427 c 2.41314,0 7.336155,0.92485 10.504011,1.97331 7.540517,2.49567 13.919951,7.26462 18.08593,13.52016 3.148724,4.72805 5.348999,10.0667 5.803095,14.08041 l 0.222544,1.96702 -1.086712,0.27974 c -0.839037,0.21597 -1.109261,0.47029 -1.185643,1.11584 -0.08873,0.74986 0.03594,0.85891 1.208407,1.057 l 1.307341,0.22087 -0.0013,1.98569 c -0.0019,2.74874 -0.830101,7.59153 -1.78498,10.43606 -3.539312,10.54342 -12.380838,19.07327 -23.433053,22.60698 -4.057954,1.29745 -4.705982,1.30255 -4.95868,0.0391 -0.256029,-1.28014 -1.309063,-1.33371 -1.58365,-0.0806 -0.338672,1.54561 -0.42976,1.69285 -1.016403,1.64293 -0.315727,-0.0269 -2.314151,-0.15906 -4.440951,-0.29376 z m 7.096861,-3.80993 c 0.604094,-0.5304 2.214917,-1.30956 3.748328,-1.81308 9.608886,-3.15521 16.705998,-10.04333 19.945701,-19.35833 0.364509,-1.04805 1.015061,-4.00111 1.445676,-6.56235 0.537792,-3.19876 0.935895,-4.74241 1.271473,-4.93021 0.775679,-0.4341 0.598647,-1.69898 -0.294759,-2.10604 -0.611134,-0.27845 -0.832961,-0.69708 -1.009226,-1.90462 -0.357206,-2.44706 -1.989217,-7.12903 -3.403793,-9.76491 -4.919292,-9.16646 -12.942242,-14.66914 -23.48326,-16.10639 -1.329251,-0.18124 -3.096721,-0.49932 -3.927711,-0.70685 -1.235787,-0.30862 -1.609947,-0.29511 -2.0549,0.0742 -0.299201,0.24832 -2.004657,0.77907 -3.789904,1.17945 -10.376683,2.32718 -19.328919,10.50451 -22.400443,20.46147 -0.717826,2.32698 -1.662504,8.41141 -1.662504,10.70776 v 1.40878 l -1.611212,0.2216 c -1.399777,0.19251 -1.611213,0.31841 -1.611213,0.95938 0,0.79979 0.702795,1.12313 2.457812,1.13079 0.997247,0.004 1.015055,0.0336 1.713264,2.81749 1.822369,7.26601 5.7244,13.33643 11.2889,17.56223 2.523683,1.91653 7.794995,4.53402 10.518941,5.22321 1.084519,0.2744 3.839692,0.65304 6.122609,0.84143 3.508624,0.28954 4.219149,0.43942 4.59286,0.96883 0.590418,0.83641 0.893699,0.79342 2.143361,-0.3038 z"
         id="path2930" />
      <path
         style="fill:#ffffff;stroke:#000000;stroke-width:2.92301;stroke-linecap:round;stroke-linejoin:round;stroke-miterlimit:4;stroke-dasharray:11.6921, 2.92301;stroke-dashoffset:0;stroke-opacity:0.955017;paint-order:stroke markers fill"
         d="m 50.33699,212.01276 c -5.365449,-0.69686 -11.665329,-3.16681 -16.04059,-6.28893 -6.005144,-4.28519 -11.393137,-11.81704 -13.350992,-18.6633 -0.908772,-3.17781 -1.393977,-8.18345 -1.200932,-12.38946 0.665788,-14.506 11.849756,-27.68236 26.799693,-31.57399 3.552558,-0.92478 4.145799,-0.88592 4.593749,0.30083 0.244872,0.64874 0.586094,0.96673 1.037375,0.96673 0.570503,0 0.672476,-0.19682 0.672476,-1.29795 v -1.29794 l 2.175137,0.20246 c 2.9147,0.2713 7.560916,1.22591 10.053375,2.06556 5.157169,1.73732 11.255383,5.63407 14.529155,9.28411 4.47167,4.98562 8.111453,12.20842 8.932484,17.72565 l 0.302141,2.03035 -1.100516,0.45982 c -0.927902,0.3877 -1.084411,0.59995 -0.997852,1.3532 0.0834,0.72576 0.28404,0.91315 1.069387,0.99874 0.531699,0.0579 1.076754,0.21147 1.211228,0.34117 0.134477,0.1297 0.09203,1.7499 -0.09434,3.60043 -0.878028,8.71866 -3.81812,15.30377 -9.471943,21.21494 -4.265141,4.45927 -9.42822,7.74141 -15.241836,9.68916 -3.534513,1.18417 -4.444068,1.23075 -4.958477,0.25393 -0.78663,-1.49374 -1.681636,-1.30929 -2.062564,0.42507 -0.206984,0.94239 -0.212508,0.94437 -2.518093,0.9036 -1.270857,-0.0225 -3.22299,-0.15935 -4.338068,-0.30418 z m 8.65102,-3.05975 c 0.566028,-0.68202 1.683266,-1.23314 4.822108,-2.37868 6.711291,-2.44932 11.808277,-6.40315 15.645283,-12.13634 2.441702,-3.64836 3.531248,-6.52224 4.788802,-12.6314 0.598268,-2.90637 1.246788,-5.44333 1.441151,-5.6377 0.580157,-0.58015 0.411888,-2.08043 -0.288348,-2.57089 -0.434869,-0.30459 -0.891691,-1.43483 -1.417124,-3.50615 -1.632061,-6.43378 -4.667459,-11.84374 -8.932177,-15.91973 -5.174896,-4.9459 -9.653201,-6.99903 -18.607431,-8.53078 -4.060754,-0.69465 -4.386583,-0.70704 -5.800366,-0.22042 -0.823859,0.28356 -2.655368,0.82322 -4.070019,1.19924 -5.142992,1.36704 -9.80771,4.0493 -13.730353,7.89512 -5.81296,5.6991 -8.720836,12.37677 -9.228821,21.19314 -0.171739,2.98061 -0.221586,3.15581 -0.939792,3.30299 -2.494492,0.51117 -2.414504,0.46355 -2.309405,1.37506 0.08815,0.76453 0.274498,0.8981 1.476813,1.05857 0.756763,0.101 1.499883,0.31851 1.651376,0.48336 0.151494,0.16485 0.663091,1.67732 1.136882,3.36103 1.589559,5.64883 5.074957,11.52006 8.816136,14.85097 3.177976,2.82947 8.465325,5.77254 12.315708,6.85524 0.974784,0.2741 3.720378,0.71827 6.101321,0.98703 2.921878,0.32983 4.489278,0.64896 4.822129,0.98181 0.637027,0.63702 1.772611,0.63137 2.306127,-0.0115 z"
         id="path2969" />
      <path
         style="fill:#ffffff;stroke:#000000;stroke-width:2.92301;stroke-linecap:round;stroke-linejoin:round;stroke-miterlimit:4;stroke-dasharray:11.6921, 2.92301;stroke-dashoffset:0;stroke-opacity:0.955017;paint-order:stroke markers fill"
         d="m 53.17001,197.20572 c -15.258983,-1.50757 -22.666081,-19.72181 -13.084148,-32.17425 1.593972,-2.07149 4.046416,-4.07211 6.491941,-5.2959 2.115248,-1.05852 5.293945,-1.9761 5.637353,-1.6273 0.148325,0.15065 0.315089,0.9252 0.370588,1.72123 0.07481,1.07304 0.246732,1.47497 0.664827,1.55428 0.487196,0.0924 0.563925,-0.16084 0.563925,-1.86122 v -1.96818 l 1.691772,0.19942 c 7.665781,0.90361 13.916546,5.82299 16.586673,13.05378 0.35609,0.9643 0.74395,2.28637 0.861918,2.93794 0.192637,1.064 0.139596,1.19529 -0.520711,1.28897 -0.539067,0.0765 -0.763431,0.35145 -0.841047,1.03076 -0.09939,0.86988 -0.04468,0.91747 0.896017,0.77941 l 1.001871,-0.14705 -0.193969,1.95966 c -0.65048,6.57169 -4.039623,12.31327 -9.259906,15.68731 -2.090975,1.35146 -5.262295,2.66192 -5.734949,2.3698 -0.164185,-0.10148 -0.298516,-0.74411 -0.298516,-1.42809 0,-1.6823 -0.268036,-2.26304 -1.044504,-2.26304 -0.609399,0 -0.642458,0.15161 -0.491913,2.2557 0.13888,1.94102 0.08873,2.24941 -0.359503,2.21062 -0.286496,-0.0248 -1.608468,-0.15252 -2.937719,-0.28385 z m 4.452946,-6.43369 c 0.159636,-2.23904 -0.181031,-3.54914 -0.92288,-3.54914 -0.552495,0 -0.629341,0.22764 -0.625483,1.85289 0.0058,2.43725 0.268952,3.35924 0.923433,3.23525 0.369109,-0.0699 0.552368,-0.52123 0.62493,-1.539 z m -0.263792,-5.76053 c 0,-1.23951 0.192936,-1.80968 0.923406,-2.72886 0.931503,-1.17214 1.258575,-1.87936 1.968836,-4.25712 0.376587,-1.26072 0.347845,-1.36394 -0.897255,-3.22243 -1.365261,-2.03785 -2.205061,-2.71432 -3.76732,-3.0346 -0.922988,-0.18922 -0.9711,-0.28149 -1.063371,-2.03917 -0.0828,-1.57741 -0.186608,-1.84098 -0.725046,-1.84098 -0.548616,0 -0.628404,0.2303 -0.628404,1.81384 0,1.62481 -0.119078,1.94564 -1.14264,3.0786 -1.175268,1.30088 -1.58048,2.05613 -1.892837,3.52792 -0.192315,0.90617 -0.902777,1.23503 -2.684327,1.24251 -0.901105,0.004 -1.047287,0.11685 -1.047287,0.81001 0,0.63318 0.163806,0.8056 0.765325,0.8056 1.935449,0 2.807499,0.40312 3.40513,1.57406 0.797642,1.56282 1.586576,2.22524 3.440006,2.88835 1.368931,0.48976 1.588786,0.69943 1.837886,1.75274 0.203745,0.86151 0.454401,1.19643 0.895424,1.19643 0.517829,0 0.612474,-0.24212 0.612474,-1.5669 z m -17.763617,-5.07935 c 0.788646,-0.15773 1.007007,-0.36736 1.007007,-0.96673 0,-0.71143 -0.122934,-0.76532 -1.745978,-0.76532 -2.248987,0 -2.765417,0.21706 -2.765417,1.16232 0,0.68068 0.146471,0.77113 1.248691,0.77113 0.686778,0 1.701842,-0.0906 2.255697,-0.2014 z m 6.162886,-1.26341 c 0,-0.80734 -0.03445,-0.81882 -2.175137,-0.72505 -1.976379,0.0866 -2.184545,0.16154 -2.27811,0.82033 -0.09845,0.69324 -0.003,0.72505 2.175137,0.72505 2.226059,0 2.27811,-0.0187 2.27811,-0.82033 z m 19.469317,-1.30872 c 0.280345,-0.10758 0.509717,-0.54261 0.509717,-0.96673 0,-0.68068 -0.146468,-0.77113 -1.248688,-0.77113 -2.352791,0 -3.262706,0.32577 -3.262706,1.16813 0,0.71144 0.122936,0.76532 1.74598,0.76532 0.960286,0 1.97535,-0.088 2.255697,-0.19559 z m 4.940551,-0.32975 c 0.494745,-0.13259 0.725046,-0.43826 0.725046,-0.96233 0,-0.71471 -0.121214,-0.76802 -1.745977,-0.76802 -2.248988,0 -2.765418,0.21705 -2.765418,1.16232 0,0.70573 0.12981,0.77076 1.530652,0.76673 0.841859,-0.002 1.856923,-0.0918 2.255697,-0.1987 z M 54.328121,166.4324 c 0.112014,-0.44629 0.104341,-1.60637 -0.01704,-2.57793 -0.181589,-1.45338 -0.330838,-1.7665 -0.842008,-1.7665 -0.561792,0 -0.621297,0.2469 -0.621297,2.57794 0,2.35485 0.05524,2.57794 0.638344,2.57794 0.413383,0 0.710121,-0.28597 0.842008,-0.81145 z"
         id="path3008" />
      <path
         style="fill:#ffffff;stroke:#000000;stroke-width:2.92301;stroke-linecap:round;stroke-linejoin:round;stroke-miterlimit:4;stroke-dasharray:11.6921, 2.92301;stroke-dashoffset:0;stroke-opacity:0.955017;paint-order:stroke markers fill"
         d="m 53.031834,180.65943 c -0.93927,-0.88585 -1.150792,-1.31752 -1.150792,-2.34854 0,-1.69185 1.220203,-4.05934 2.279264,-4.42232 1.405371,-0.48168 3.059557,0.53584 3.639857,2.23893 0.570624,1.67468 0.322744,2.88302 -0.927761,4.52251 -1.119331,1.46752 -2.29148,1.4704 -3.840568,0.009 z"
         id="path3047" />
      <path
         style="fill:#ffffff;stroke:#000000;stroke-width:2.92301;stroke-linecap:round;stroke-linejoin:round;stroke-miterlimit:4;stroke-dasharray:11.6921, 2.92301;stroke-dashoffset:0;stroke-opacity:0.955017;paint-order:stroke markers fill"
         d="m 51.236557,196.71131 c -7.530579,-1.61738 -13.158512,-7.51572 -14.95811,-15.67681 l -0.192148,-0.87139 2.177565,-0.0953 c 2.125607,-0.0931 2.180064,-0.11714 2.282177,-1.00889 l 0.104606,-0.91355 -2.28047,0.10794 -2.28047,0.10795 0.0055,-1.77233 c 0.01159,-3.73802 1.606542,-8.04791 4.266502,-11.5289 2.336498,-3.05768 7.020417,-6.0062 10.611437,-6.67987 l 1.15007,-0.21576 0.284099,1.55505 c 0.197053,1.0786 0.456149,1.58818 0.845645,1.66319 0.479666,0.0924 0.561546,-0.15373 0.561546,-1.68782 v -1.79596 h 1.060146 c 2.924522,0 8.390742,2.23023 10.995978,4.48638 3.267262,2.82947 5.721397,6.68641 6.666245,10.47675 0.373425,1.49802 0.355987,1.61688 -0.301331,2.05332 -0.389972,0.25893 -0.697701,0.80124 -0.697701,1.22955 0,0.60257 0.172141,0.76631 0.805606,0.76631 0.719452,0 0.805609,0.13233 0.805609,1.23742 0,1.9786 -1.170895,6.01382 -2.474172,8.52668 -1.785382,3.4424 -5.346165,6.91227 -8.814641,8.58959 -1.482056,0.71671 -2.872518,1.3031 -3.089916,1.3031 -0.227946,0 -0.508804,-0.71615 -0.663474,-1.69177 -0.223353,-1.40887 -0.389125,-1.709 -0.991306,-1.79475 -0.686377,-0.0977 -0.723101,0.005 -0.723101,2.01402 v 2.11698 l -1.530652,-0.0256 c -0.841859,-0.0141 -2.473211,-0.22805 -3.625228,-0.47547 z m 6.283727,-6.9149 c 0,-2.25641 -0.04688,-2.41906 -0.725045,-2.51537 -0.695878,-0.0988 -0.725046,-0.007 -0.725046,2.28255 0,2.50645 0.135943,2.89831 0.951013,2.74134 0.397608,-0.0766 0.499078,-0.5866 0.499078,-2.50852 z m -0.0056,-4.74866 c 0.125812,-0.84186 0.716396,-2.3282 1.31241,-3.30298 0.596011,-0.97479 1.263504,-2.45681 1.483315,-3.29338 0.342358,-1.30297 0.324456,-1.67875 -0.124857,-2.62096 -0.826079,-1.73231 -2.520011,-3.46038 -4.023939,-4.10504 -1.151258,-0.49348 -1.381173,-0.74075 -1.384843,-1.48934 -0.0073,-1.49077 -0.358732,-2.34771 -0.962779,-2.34771 -0.451387,0 -0.617455,0.38164 -0.799264,1.83678 -0.17604,1.40898 -0.485095,2.14872 -1.326909,3.17605 -0.603581,0.73659 -1.289986,1.89547 -1.525344,2.57528 -0.479555,1.38517 -0.816581,1.63819 -2.551197,1.91531 -0.998416,0.15951 -1.20841,0.32452 -1.20841,0.94959 0,0.82466 0.535823,1.14772 1.90364,1.14772 0.902538,0 1.685708,0.67716 2.736204,2.36585 0.338392,0.54397 1.285679,1.23241 2.333276,1.69571 1.381456,0.61094 1.865357,1.02348 2.233202,1.90386 0.717709,1.71772 1.616681,1.52583 1.905495,-0.40674 z m -11.756303,-6.37901 c 0,-0.80734 -0.03445,-0.81882 -2.175137,-0.72505 -1.976379,0.0866 -2.184545,0.16154 -2.27811,0.82033 -0.09845,0.69324 -0.003,0.72505 2.175137,0.72505 2.226059,0 2.27811,-0.0187 2.27811,-0.82033 z m 19.919879,-2.16041 c 0.100266,-0.87141 0.07253,-0.88617 -1.665417,-0.88617 -2.277904,0 -2.786822,0.21494 -2.786822,1.17705 0,0.76477 0.05835,0.78329 2.175137,0.69057 2.106229,-0.0923 2.178367,-0.12336 2.277102,-0.98145 z m 5.157351,-0.33749 0.103433,-0.90141 -2.198007,0.0958 c -2.14058,0.0933 -2.200717,0.11936 -2.301449,0.99722 l -0.103437,0.90141 2.198011,-0.0958 c 2.140579,-0.0933 2.200716,-0.11936 2.301449,-0.99721 z M 54.397449,165.32762 c 0.132948,-2.34282 -0.119337,-3.23965 -0.911344,-3.23965 -0.583562,0 -0.638344,0.22317 -0.638344,2.60035 0,2.51235 0.02453,2.59687 0.725046,2.49739 0.63569,-0.0903 0.737319,-0.31928 0.824642,-1.85809 z"
         id="path3086" />
      <path
         style="fill:#ffffff;stroke:#000000;stroke-width:2.92301;stroke-linecap:round;stroke-linejoin:round;stroke-miterlimit:4;stroke-dasharray:11.6921, 2.92301;stroke-dashoffset:0;stroke-opacity:0.955017;paint-order:stroke markers fill"
         d="m 48.658616,211.55702 c -4.757714,-0.94941 -10.610723,-3.44827 -14.33979,-6.12216 -2.404697,-1.72427 -6.327092,-5.76989 -8.301873,-8.56268 -1.976913,-2.79581 -4.254961,-7.58352 -5.127886,-10.77714 -0.612963,-2.24254 -0.706013,-3.41645 -0.715197,-9.02279 -0.01008,-6.15261 0.03006,-6.57636 0.885214,-9.34503 1.028813,-3.33093 2.750098,-6.91849 4.736321,-9.87161 1.772859,-2.63589 6.649923,-7.51296 9.285813,-9.28582 4.230217,-2.84517 10.306738,-5.36942 13.791364,-5.72906 1.592395,-0.16435 1.716542,-0.1241 2.080437,0.67456 0.253532,0.55645 0.640575,0.84935 1.122341,0.84935 0.619184,0 0.751004,-0.19336 0.834441,-1.22399 l 0.09909,-1.22398 3.061303,0.38952 c 13.479851,1.71516 23.253779,8.27859 28.978169,19.45954 1.630833,3.18537 3.012429,7.15135 3.380258,9.70333 0.206997,1.43614 0.180666,1.50003 -0.782568,1.89902 -0.849321,0.3518 -0.982345,0.55948 -0.899237,1.40387 0.07948,0.80758 0.291372,1.04624 1.144826,1.28946 0.923525,0.26319 1.047287,0.43087 1.047287,1.4189 0,2.2828 -1.028788,7.94101 -1.965638,10.81077 -3.279367,10.04537 -12.136781,18.65524 -22.913093,22.27273 -3.167944,1.06344 -4.213437,1.06806 -4.899068,0.0217 -0.733165,-1.11896 -1.428906,-1.00594 -1.983856,0.32224 l -0.471244,1.12785 -2.976417,-0.0303 c -1.637033,-0.0166 -3.918979,-0.21835 -5.070996,-0.44823 z m 11.08235,-2.86044 c 0.6168,-0.41857 2.327098,-1.23983 3.800661,-1.82503 6.788922,-2.69607 11.057366,-5.71162 14.616189,-10.32596 3.257526,-4.2237 4.420081,-6.94127 6.331661,-14.80082 1.612112,-6.62827 1.766234,-7.79709 1.100945,-8.34923 -0.276826,-0.22974 -1.029071,-2.10663 -1.671664,-4.17087 -0.642591,-2.06423 -1.733185,-4.94006 -2.423541,-6.39073 -3.392808,-7.12941 -10.033648,-13.10882 -17.249053,-15.53104 -2.623685,-0.88078 -9.670393,-2.29379 -11.438882,-2.29374 -1.786638,6e-5 -9.360188,2.27176 -11.983772,3.59455 -5.989937,3.0201 -11.254722,8.2147 -14.156327,13.96763 -1.3054,2.58817 -2.482093,6.75306 -2.854079,10.10196 -0.685654,6.17279 -0.611419,5.94424 -2.063016,6.35152 -1.119891,0.31421 -1.28769,0.48207 -1.28769,1.28815 0,0.82411 0.162069,0.97264 1.461901,1.33976 l 1.461902,0.4129 1.075556,3.30368 c 3.072223,9.43663 7.577062,15.13549 15.200184,19.22906 3.553103,1.90798 5.645084,2.53705 11.402912,3.42887 2.829915,0.43833 5.287817,0.93948 5.462011,1.11367 0.551336,0.55133 2.05277,0.34377 3.214102,-0.44433 z"
         id="path3125" />
    </g>
    <g
       id="g1383">
      <g
         id="g2265"
         transform="matrix(0.39268024,0,0,0.47670803,108.61409,125.21423)">
        <ellipse
           style="fill:none;stroke:#000000;stroke-width:2.54;stroke-linecap:round;stroke-linejoin:round;stroke-opacity:0.955017;paint-order:stroke markers fill"
           id="ellipse2237"
           cx="104.24545"
           cy="119.22972"
           rx="50.108707"
           ry="43.502739" />
        <ellipse
           style="fill:none;stroke:#000000;stroke-width:3.71819;stroke-linecap:round;stroke-linejoin:round;stroke-opacity:0.955017;paint-order:stroke markers fill"
           id="ellipse2239"
           cx="103.27873"
           cy="117.94076"
           rx="74.654526"
           ry="62.570435" />
        <ellipse
           style="fill:none;stroke:#000000;stroke-width:4.6225;stroke-linecap:round;stroke-linejoin:round;stroke-opacity:0.955017;paint-order:stroke markers fill"
           id="ellipse2241"
           cx="103.7621"
           cy="118.58524"
           rx="93.053558"
           ry="77.585915" />
        <circle
           style="fill:none;stroke:#000000;stroke-width:2.54;stroke-linecap:round;stroke-linejoin:round;stroke-opacity:0.955017;paint-order:stroke markers fill"
           id="circle2243"
           cx="105.53442"
           cy="119.71309"
           r="10.795124" />
        <circle
           id="circle2245"
           style="fill:#000000;stroke:#000000;stroke-width:0.264583"
           cx="96.994987"
           cy="111.81814"
           r="1.0730668e-05" />
        <circle
           id="circle2247"
           style="fill:#000000;stroke:#000000;stroke-width:0.264583"
           cx="96.994987"
           cy="111.81814"
           r="1.0730668e-05" />
        <circle
           id="circle2249"
           style="fill:#000000;stroke:#000000;stroke-width:0.264583"
           cx="84.105293"
           cy="80.23838"
           r="1.0730668e-05" />
        <circle
           id="circle2251"
           style="fill:#000000;stroke:#000000;stroke-width:0.264583"
           cx="84.105293"
           cy="80.23838"
           r="1.0730668e-05" />
        <path
           style="fill:none;stroke:#000000;stroke-width:2.4;stroke-linecap:butt;stroke-linejoin:miter;stroke-miterlimit:4;stroke-dasharray:9.6, 2.4;stroke-dashoffset:0;stroke-opacity:1"
           d="M 103.1176,108.91796 97.961719,41.891524"
           id="path2253"
           inkscape:original-d="M 103.1176,108.91796 97.961719,41.891524"
           inkscape:path-effect="#path-effect2269" />
        <path
           style="fill:none;stroke:#000000;stroke-width:2.4;stroke-linecap:butt;stroke-linejoin:miter;stroke-miterlimit:4;stroke-dasharray:9.6, 2.4;stroke-dashoffset:0;stroke-opacity:1"
           d="m 114.39609,197.53465 -5.15588,-67.02644"
           id="path2255"
           inkscape:original-d="m 114.39609,197.53465 -5.15588,-67.02644"
           inkscape:path-effect="#path-effect2273" />
        <ellipse
           style="fill:none;stroke:#000000;stroke-width:4.6225;stroke-linecap:round;stroke-linejoin:round;stroke-opacity:0.955017;paint-order:stroke markers fill"
           id="ellipse2257"
           cx="103.7621"
           cy="118.58524"
           rx="93.053558"
           ry="77.585915" />
        <path
           style="fill:none;stroke:#000000;stroke-width:2.6678;stroke-linecap:butt;stroke-linejoin:miter;stroke-miterlimit:4;stroke-dasharray:10.6712, 2.6678;stroke-dashoffset:0;stroke-opacity:1"
           d="M 95.040813,120.53836 11.585386,125.6549"
           id="path2259"
           inkscape:original-d="M 95.040813,120.53836 11.585386,125.6549"
           inkscape:path-effect="#path-effect2277" />
        <circle
           style="fill:none;stroke:#000000;stroke-width:2.54;stroke-linecap:round;stroke-linejoin:round;stroke-opacity:0.955017;paint-order:stroke markers fill"
           id="circle2261"
           cx="105.53442"
           cy="119.71309"
           r="10.795124" />
        <path
           style="fill:none;stroke:#000000;stroke-width:2.59769;stroke-linecap:butt;stroke-linejoin:miter;stroke-miterlimit:4;stroke-dasharray:10.3908, 2.59769;stroke-dashoffset:0;stroke-opacity:1"
           d="m 197.18691,112.79831 -78.93448,5.129"
           id="path2263"
           inkscape:original-d="m 197.18691,112.79831 -78.93448,5.129"
           inkscape:path-effect="#path-effect2281" />
      </g>
      <path
         style="fill:#338000;stroke:#000000;stroke-width:8.58493;stroke-linecap:round;stroke-linejoin:round;stroke-opacity:0.955017;paint-order:stroke markers fill"
         d="m 548.48856,761.22069 c -10.46536,-2.74346 -15.69963,-5.31382 -25.45913,-12.50205 -13.60786,-10.02267 -24.11775,-27.03449 -27.84251,-45.06723 -2.42707,-11.75018 -2.43233,-19.27259 -0.0216,-30.94344 6.22747,-30.14913 28.88144,-53.34314 57.41215,-58.78079 l 5.1204,-0.97589 0.36026,6.82357 c 0.28284,5.35734 0.81824,6.91073 2.49162,7.22919 1.84044,0.35025 2.13137,-0.60404 2.13137,-6.99123 v -7.39685 h 4.81175 c 8.2007,0 17.29971,2.45467 27.9494,7.54001 19.19521,9.16592 34.66754,28.92892 39.57243,50.54639 l 1.71136,7.54254 -3.52955,0.77522 c -2.69612,0.59217 -3.52955,1.46415 -3.52955,3.69281 0,2.59221 0.40748,2.8361 3.65377,2.18684 l 3.65378,-0.73075 v 6.656 c 0,9.36154 -3.99864,23.90585 -9.39651,34.178 -8.46044,16.10025 -25.68626,30.42308 -42.53906,35.37013 l -6.26341,1.83859 -0.8366,-7.81205 c -0.70815,-6.61262 -1.19701,-7.81205 -3.18401,-7.81205 -2.16983,0 -2.28747,0.64494 -1.55505,8.52547 l 0.79236,8.52547 -8.39589,-0.0671 c -4.61773,-0.0369 -12.31621,-1.09477 -17.10773,-2.35085 z m 27.37632,-18.12917 c 1.23091,-0.78041 1.4102,-3.0864 0.75607,-9.72474 -0.75085,-7.61998 -1.1618,-8.70177 -3.30557,-8.70177 -2.23888,0 -2.38248,0.54654 -1.68011,6.39411 0.42241,3.51675 0.77279,7.90128 0.77861,9.74339 0.0111,3.50164 0.75747,3.99673 3.451,2.28901 z m -0.28049,-26.95078 c -0.76259,-5.74872 -0.58187,-6.31422 3.23899,-10.13508 3.74026,-3.74026 6.99825,-11.13696 6.99825,-15.88831 0,-1.09454 0.54807,-1.99007 1.21793,-1.99007 0.66986,0 1.21792,-1.09613 1.21792,-2.43585 0,-1.33971 -0.712,-2.43585 -1.58222,-2.43585 -0.87022,0 -2.26228,-1.88068 -3.09347,-4.17929 -1.9589,-5.41725 -8.73878,-11.31811 -14.1761,-12.33816 l -4.28877,-0.80458 v -7.172 c 0,-6.46416 -0.25135,-7.172 -2.54676,-7.172 -2.35876,0 -2.51732,0.57229 -2.14805,7.75297 0.38624,7.51059 0.2703,7.86102 -3.70847,11.20894 -4.43682,3.73333 -7.42974,9.5711 -7.42974,14.49189 0,2.9573 -0.30006,3.08393 -7.30755,3.08393 -6.98276,0 -7.30754,0.13533 -7.30754,3.04481 0,2.89777 0.34109,3.04481 7.06288,3.04481 6.88242,0 7.09995,0.10253 8.51383,4.01254 2.15628,5.96309 8.7497,11.77441 14.36574,12.6617 5.5557,0.87776 6.55126,1.99489 6.57663,7.37977 0.0152,3.22031 0.50202,3.95826 2.61141,3.95826 2.40699,0 2.53489,-0.43621 1.78509,-6.08843 z m -67.55768,-19.48799 c 4.22214,0 4.71946,-0.32085 4.71946,-3.04481 0,-2.72396 -0.49732,-3.04481 -4.71946,-3.04481 -9.04892,0 -12.33148,1.21576 -12.33148,4.56722 0,2.76063 0.35523,2.97376 3.80601,2.28361 2.09331,-0.41867 5.92977,-0.76121 8.52547,-0.76121 z m 24.20625,-4.26273 c 0,-2.87316 -0.37202,-3.04481 -6.59897,-3.04481 -8.16653,0 -10.45197,0.82743 -10.45197,3.78407 0,2.04254 0.97256,2.30555 8.52547,2.30555 8.28188,0 8.52547,-0.087 8.52547,-3.04481 z m 69.86067,-5.03725 c 5.00135,-0.68551 5.65064,-1.12284 5.65064,-3.80601 0,-2.74573 -0.35879,-2.95975 -3.80601,-2.2703 -2.09331,0.41866 -5.92977,0.7612 -8.52547,0.7612 -4.22214,0 -4.71946,0.32085 -4.71946,3.04481 0,3.38385 1.3356,3.64982 11.4003,2.2703 z m 21.17918,-1.64793 c 3.46251,-0.0117 3.95825,-0.416 3.95825,-3.22786 0,-3.16334 -0.10169,-3.20225 -6.3941,-2.44644 -3.51676,0.42241 -7.35322,0.77279 -8.52547,0.77861 -1.4871,0.007 -2.13137,0.97915 -2.13137,3.21475 0,3.02485 0.2556,3.16192 4.56722,2.44926 2.51197,-0.41521 6.34843,-0.76095 8.52547,-0.76832 z m -60.38687,-37.17029 c 1.20305,-0.45923 1.51851,-2.97597 1.22131,-9.7434 -0.35344,-8.04815 -0.67663,-9.12424 -2.74033,-9.12424 -2.03822,0 -2.33748,0.90218 -2.32299,7.00307 0.0151,6.36573 0.92308,12.48372 1.85269,12.48372 0.20202,0 1.09721,-0.27862 1.98932,-0.61915 z"
         id="path1128"
         transform="scale(0.26458333)" />
      <path
         style="fill:#338000;stroke:#000000;stroke-width:8.58493;stroke-linecap:round;stroke-linejoin:round;stroke-opacity:0.955017;paint-order:stroke markers fill"
         d="m 541.97635,792.19395 c -39.06295,-8.38403 -70.77225,-38.61092 -81.67512,-77.85681 -3.71488,-13.37203 -3.65195,-13.54875 5.15172,-14.46892 4.13235,-0.43191 7.67304,-0.94498 7.8682,-1.14012 0.19515,-0.19516 0.0561,-1.49721 -0.30904,-2.89345 -0.60863,-2.32743 -1.3138,-2.48644 -8.47716,-1.91143 l -7.8133,0.62718 v -10.57045 c 0,-48.32309 34.46011,-92.09654 81.60093,-103.65472 3.68422,-0.90332 9.02787,-2.00257 11.87476,-2.44278 4.96238,-0.76733 5.17618,-0.67021 5.17618,2.35147 0,2.33991 0.6275,3.15186 2.43585,3.15186 1.78629,0 2.43585,-0.81195 2.43585,-3.04481 0,-2.90445 0.33192,-3.04481 7.20041,-3.04481 17.12418,0 38.18834,6.70345 54.29946,17.28025 21.87782,14.36256 37.72811,35.87018 44.89179,60.91466 3.89916,13.6316 4.73216,20.45697 2.49668,20.45697 -2.38386,0 -2.14724,4.50652 0.30879,5.88098 1.74118,0.97442 1.91336,2.62937 1.24831,11.99862 -3.23238,45.53821 -34.56428,83.83987 -79.20109,96.81935 -9.21333,2.67906 -9.61452,2.69884 -11.18476,0.55142 -1.75185,-2.39579 -4.22657,-1.73223 -4.22657,1.13329 0,2.35361 -22.92555,2.261 -34.10189,-0.13775 z m 37.58413,-14.76539 -0.43743,-9.35061 5.95801,-1.52863 c 13.72695,-3.52188 28.25632,-13.24412 38.93226,-26.05129 9.76506,-11.71446 17.83284,-33.93682 17.83284,-49.11983 0,-5.52252 0.39092,-6.72283 2.35703,-7.23697 1.70237,-0.44518 2.17033,-1.33034 1.68484,-3.18686 -0.36971,-1.41377 -1.41994,-2.57048 -2.33383,-2.57048 -0.9139,0 -1.97774,-1.50718 -2.36409,-3.3493 -2.35151,-11.21183 -3.57111,-15.09442 -7.15896,-22.79044 -15.30986,-32.84009 -48.86655,-50.70313 -82.70668,-44.02678 -15.25745,3.01016 -26.55033,9.15608 -38.05638,20.71143 -5.40675,5.4299 -11.53217,12.88691 -13.61205,16.57113 -5.75736,10.19834 -10.09252,24.49264 -10.90053,35.94224 -0.77615,10.9981 -1.17646,11.50035 -9.19778,11.54018 -2.80018,0.0139 -3.34929,0.54155 -3.34929,3.21835 0,3.13929 0.11915,3.1859 6.11068,2.3911 4.50435,-0.59752 6.21754,-0.39865 6.51723,0.75654 0.2236,0.86193 1.33081,5.40361 2.46045,10.09262 8.17194,33.92062 38.15988,58.82096 71.62347,59.47217 12.03961,0.23431 11.89382,0.094 11.92341,11.47192 0.0148,5.68721 0.30063,6.39411 2.58543,6.39411 2.42804,0 2.54483,-0.51237 2.13137,-9.3506 z m 83.49974,-94.91224 c 1.05958,-0.4066 1.9265,-1.77676 1.9265,-3.04481 0,-2.02565 -0.96109,-2.30555 -7.91651,-2.30555 -7.63233,0 -7.91651,0.1093 -7.91651,3.04481 0,2.83508 0.41262,3.04481 5.99001,3.04481 3.29451,0 6.85694,-0.33267 7.91651,-0.73926 z M 561.46315,598.10049 c 0,-8.31186 -0.78914,-11.06093 -3.17512,-11.06093 -1.29935,0 -1.69658,2.13869 -1.69658,9.13443 0,8.32248 0.21652,9.13443 2.43585,9.13443 2.16146,0 2.43585,-0.81195 2.43585,-7.20793 z"
         id="path1167"
         transform="scale(0.26458333)" />
      <path
         style="fill:#338000;stroke:#000000;stroke-width:8.58493;stroke-linecap:round;stroke-linejoin:round;stroke-opacity:0.955017;paint-order:stroke markers fill"
         d="m 560.05547,702.43184 c -4.55931,-3.85413 -5.89987,-7.11876 -5.89987,-14.36778 0,-5.70935 0.45211,-6.76508 4.72841,-11.04138 2.60063,-2.60063 5.91624,-4.72842 7.36803,-4.72842 8.47494,0 15.66329,10.16825 14.02857,19.84406 -1.83952,10.88805 -12.87671,16.5054 -20.22514,10.29352 z"
         id="path1206"
         transform="scale(0.26458333)" />
      <path
         style="fill:#338000;stroke:#000000;stroke-width:8.58493;stroke-linecap:round;stroke-linejoin:round;stroke-opacity:0.955017;paint-order:stroke markers fill"
         d="m 544.89788,820.32524 c -48.21111,-7.48927 -88.35823,-40.2888 -105.90886,-86.52579 -4.02989,-10.61671 -8.23662,-30.29369 -6.59627,-30.85408 1.73057,-0.59123 1.4567,-6.00007 -0.33407,-6.59772 -1.10265,-0.368 -1.45358,-3.78179 -1.27278,-12.38131 1.28169,-60.9626 42.84489,-112.99426 102.31019,-128.07887 6.39565,-1.62239 13.75044,-2.9498 16.34397,-2.9498 4.68951,0 4.71554,0.0269 4.71554,4.8717 0,4.05975 0.40597,4.8717 2.43585,4.8717 2.08641,0 2.43585,-0.81195 2.43585,-5.66004 v -5.66004 l 12.78197,0.82638 c 61.67317,3.98727 112.94048,49.29836 124.28622,109.84668 2.22282,11.86246 1.90061,12.64383 -5.22788,12.67742 -3.45129,0.0163 -3.95825,0.42633 -3.95825,3.20174 0,3.06953 0.19036,3.15456 5.33536,2.38301 4.93097,-0.73944 5.39145,-0.57666 6.07518,2.14756 0.96643,3.85057 -1.11409,25.45078 -3.40135,35.31328 -10.82783,46.68871 -47.81986,85.61516 -93.87286,98.78172 -5.35887,1.5321 -11.79864,3.10143 -14.31061,3.48738 l -4.56722,0.70174 v -4.79513 c 0,-3.98317 -0.41246,-4.79512 -2.43585,-4.79512 -2.01872,0 -2.43585,0.81195 -2.43585,4.74139 0,3.20001 -0.62629,4.98172 -1.9265,5.48066 -3.10371,1.19101 -19.79285,0.62444 -30.47178,-1.03446 z m 35.82819,-15.58914 c 0.28719,-2.48779 1.21611,-3.51506 3.65377,-4.04058 31.65019,-6.82334 57.16187,-23.9942 73.97701,-49.79091 11.47052,-17.59733 16.80431,-33.23276 19.02657,-55.77426 1.35787,-13.77358 1.51737,-14.31061 4.25045,-14.31061 2.25306,0 2.83964,-0.66041 2.83964,-3.19706 0,-2.8722 -0.35596,-3.12586 -3.50331,-2.49639 -3.48465,0.69694 -3.50773,0.66151 -4.33526,-6.65288 -1.70108,-15.0355 -8.79711,-33.55329 -18.37102,-47.94093 -20.25938,-30.44574 -51.31885,-48.49397 -88.25204,-51.28206 -8.02822,-0.60605 -10.98458,-1.27387 -10.98458,-2.48136 0,-0.90868 -1.16005,-1.65214 -2.5779,-1.65214 -1.92092,0 -2.42571,0.58193 -1.98077,2.28342 0.52311,2.0004 -0.36163,2.38166 -7.13785,3.0759 -24.94592,2.55579 -54.32896,19.27838 -71.2186,40.53221 -16.91436,21.28494 -24.77044,42.55573 -26.34613,71.33369 l -0.71687,13.09269 h -6.51612 c -6.13859,0 -6.51613,0.17641 -6.51613,3.04481 0,2.90544 0.33054,3.04481 7.2212,3.04481 h 7.2212 l 1.35794,7.00307 c 8.77378,45.24725 42.50377,80.43958 87.43421,91.22487 4.87057,1.16915 14.01966,2.02682 22.51091,2.11026 l 14.30539,0.14056 0.005,3.43859 c 0.007,4.67306 4.10387,4.05172 4.65307,-0.7057 z"
         id="path1245"
         transform="scale(0.26458333)" />
    </g>
  </g>
</svg>
