<?xml version="1.0" encoding="UTF-8" standalone="no"?>
<!-- Created with Inkscape (http://www.inkscape.org/) -->

<svg
   width="210mm"
   height="297mm"
   viewBox="0 0 210 297"
   version="1.1"
   id="svg5"
   inkscape:version="1.1 (c68e22c387, 2021-05-23)"
   sodipodi:docname="mixer eq icon  svg.svg"
   inkscape:export-filename="C:\Users\steven\Desktop\clip launcher svg.png"
   inkscape:export-xdpi="96"
   inkscape:export-ydpi="96"
   xmlns:inkscape="http://www.inkscape.org/namespaces/inkscape"
   xmlns:sodipodi="http://sodipodi.sourceforge.net/DTD/sodipodi-0.dtd"
   xmlns="http://www.w3.org/2000/svg"
   xmlns:svg="http://www.w3.org/2000/svg">
  <sodipodi:namedview
     id="namedview7"
     pagecolor="#ffffff"
     bordercolor="#666666"
     borderopacity="1.0"
     inkscape:pageshadow="2"
     inkscape:pageopacity="0.0"
     inkscape:pagecheckerboard="0"
     inkscape:document-units="mm"
     showgrid="false"
     inkscape:zoom="0.67521728"
     inkscape:cx="757.53393"
     inkscape:cy="647.93958"
     inkscape:window-width="1680"
     inkscape:window-height="956"
     inkscape:window-x="-11"
     inkscape:window-y="-11"
     inkscape:window-maximized="1"
     inkscape:current-layer="layer1" />
  <defs
     id="defs2" />
  <g
     inkscape:label="Layer 1"
     inkscape:groupmode="layer"
     id="layer1">
    <path
       style="fill:#808080;stroke:#000000;stroke-width:11.4835;stroke-linecap:round;stroke-linejoin:round;stroke-dasharray:2.87087, 2.87087;stroke-opacity:0.955017;paint-order:stroke markers fill"
       d=""
       id="path4473"
       transform="scale(0.26458333)" />
    <g
       id="g4455"
       transform="matrix(0.70144663,0,0,0.71311067,83.133168,129.10586)">
      <path
         id="path3229"
         style="fill:#000000;stroke:#000000;stroke-width:0.399238;stroke-linecap:round;stroke-linejoin:round;stroke-dasharray:3.19391, 1.59696;stroke-opacity:0.955017;paint-order:stroke markers fill"
         d="m -56.881475,66.353961 1.202332,1.261469 -7.138328,15.984516 -1.202331,-1.261469 z m 2.951452,-1.218628 a 1.5350015,2.1384909 0 0 1 -1.534998,2.138494 1.5350015,2.1384909 0 0 1 -1.535007,-2.138491 1.5350015,2.1384909 0 0 1 1.535007,-2.138494 1.5350015,2.1384909 0 0 1 1.534998,2.138491 z m -43.939327,7.655051 1.703943,1.408139 -7.343573,16.295875 -1.70396,-1.408139 z m 3.45065,-0.896741 a 2.1640934,2.0334725 3.773731e-6 0 1 -2.164093,2.033474 2.1640934,2.0334725 3.773731e-6 0 1 -2.1641,-2.033475 2.1640934,2.0334725 3.773731e-6 0 1 2.1641,-2.033471 2.1640934,2.0334725 3.773731e-6 0 1 2.164093,2.033472 z m -1.746707,2.304881 1.795493,-1.526276 5.964122,12.86635 -1.795493,1.526278 z m 8.107441,12.646595 a 1.5467358,1.794827 0 0 1 -1.546739,1.794827 1.5467358,1.794827 0 0 1 -1.546732,-1.794826 1.5467358,1.794827 0 0 1 1.546732,-1.794828 1.5467358,1.794827 0 0 1 1.546739,1.794827 z M -88.405792,85.5386 h 11.470055 v 2.494477 h -11.470055 z m 26.290123,-5.451781 a 0.95115773,2.5121044 14.412857 0 1 0.03269,2.999951 0.95115773,2.5121044 14.412857 0 1 -1.574228,1.718075 0.95115773,2.5121044 14.412857 0 1 -0.03269,-2.999953 0.95115773,2.5121044 14.412857 0 1 1.574228,-1.718073 z m -13.078816,5.323298 a 1.4256487,2.3396168 0 0 1 -1.425652,2.339615 1.4256487,2.3396168 0 0 1 -1.425651,-2.339616 1.4256487,2.3396168 0 0 1 1.425651,-2.339618 1.4256487,2.3396168 0 0 1 1.425652,2.339619 z m 5.190663,-11.434804 0.469267,-1.717356 5.984011,8.363161 -0.469258,1.717355 z m -2.07197,-2.364075 0.859445,1.586039 -4.178876,11.582162 -0.859444,-1.586036 z m 2.409918,0.238699 a 1.1105209,1.9135507 1.7875939e-8 0 1 -1.110523,1.91355 1.1105209,1.9135507 1.7875939e-8 0 1 -1.110513,-1.91355 1.1105209,1.9135507 1.7875939e-8 0 1 1.110513,-1.91355 1.1105209,1.9135507 1.7875939e-8 0 1 1.110523,1.91355 z" />
      <path
         id="path4214"
         style="fill:none;stroke:#000000;stroke-width:0.929997;stroke-linecap:round;stroke-linejoin:round;stroke-dasharray:0.0929997, 0.0929997;stroke-opacity:0.955017;paint-order:stroke markers fill"
         d="m -81.461451,146.11783 c 1.222057,0 2.205879,1.18085 2.205879,2.64763 v 10.78662 c 0,1.46679 -0.983822,2.64763 -2.205879,2.64763 -1.22206,0 -2.205885,-1.18084 -2.205885,-2.64763 v -10.78662 c 0,-1.46678 0.983825,-2.64763 2.205885,-2.64763 z m 10.049009,13.04201 a 9.2320269,13.238126 0 0 1 -9.232026,13.23813 9.2320269,13.238126 0 0 1 -9.232027,-13.23813 9.2320269,13.238126 0 0 1 9.232027,-13.23812 9.2320269,13.238126 0 0 1 9.232026,13.23812 z m -16.759236,25.10101 c 1.129017,-0.89383 2.703689,-0.63099 3.530653,0.58931 l 6.081428,8.97399 c 0.826967,1.2203 0.583793,2.92229 -0.545223,3.81611 -1.129019,0.89382 -2.703691,0.631 -3.530653,-0.5893 l -6.081428,-8.974 c -0.826964,-1.2203 -0.583795,-2.92229 0.545223,-3.81611 z m 18.09957,9.42014 a 10.572366,13.651911 0 0 1 -10.572368,13.65191 10.572366,13.651911 0 0 1 -10.572368,-13.65191 10.572366,13.651911 0 0 1 10.572368,-13.65191 10.572366,13.651911 0 0 1 10.572368,13.65191 z m -1.904538,-72.23617 c 0.376322,1.39317 -0.353537,2.84373 -1.636462,3.25239 l -9.434537,3.00527 c -1.282925,0.40866 -2.618709,-0.38392 -2.995033,-1.77709 -0.376324,-1.39316 0.353537,-2.84372 1.636462,-3.25239 l 9.434538,-3.00526 c 1.282924,-0.40866 2.618705,0.38392 2.995032,1.77708 z m 0.743498,3.30818 A 10.100197,13.103462 0 0 1 -81.333351,137.85646 10.100197,13.103462 0 0 1 -91.433545,124.753 10.100197,13.103462 0 0 1 -81.333351,111.64953 10.100197,13.103462 0 0 1 -71.233148,124.753 Z M -111.4186,107.54925 h 63.805919 V 226.56192 H -111.4186 Z m 9.81255,0.0575 h 38.577166 v 105.62098 h -38.577166 z m -9.81255,-57.409257 h 64.234176 V 107.54925 H -111.4186 Z m 6.15587,6.715292 h 52.388874 v 44.135465 h -52.388874 z" />
      <path
         style="fill:none;stroke:#000000;stroke-width:13.5714;stroke-linecap:round;stroke-linejoin:round;stroke-miterlimit:4;stroke-dasharray:1.35714, 1.35714;stroke-dashoffset:0;stroke-opacity:0.955017;paint-order:stroke markers fill"
         d="m -320.51425,478.88625 c -6.05806,-7.82929 -2.10524,-11.38552 20.87105,-18.77703 16.37417,-5.26759 19.4206,-5.86575 21.85383,-4.29091 3.74576,2.42433 4.33207,8.13583 1.12718,10.98028 -2.24981,1.99679 -37.3842,13.85477 -41.05073,13.85477 -0.7887,0 -2.0493,-0.7952 -2.80133,-1.76711 z"
         id="path4253"
         transform="scale(0.26458333)" />
      <path
         style="fill:none;stroke:#000000;stroke-width:13.5714;stroke-linecap:round;stroke-linejoin:round;stroke-miterlimit:4;stroke-dasharray:1.35714, 1.35714;stroke-dashoffset:0;stroke-opacity:0.955017;paint-order:stroke markers fill"
         d="m -311.49874,608.12724 c -1.96842,-2.17508 -2.33963,-6.11507 -2.33963,-24.83245 0,-12.23595 0.61849,-23.40284 1.37441,-24.8153 1.96761,-3.67651 5.26715,-4.53936 7.77364,-2.03287 1.77219,1.77219 2.16144,6.54767 2.16144,26.51724 0,24.16841 -0.64661,27.74864 -5.01153,27.74864 -0.89028,0 -2.67153,-1.16337 -3.95833,-2.58526 z"
         id="path4292"
         transform="scale(0.26458333)" />
      <path
         style="fill:none;stroke:#000000;stroke-width:13.5714;stroke-linecap:round;stroke-linejoin:round;stroke-miterlimit:4;stroke-dasharray:1.35714, 1.35714;stroke-dashoffset:0;stroke-opacity:0.955017;paint-order:stroke markers fill"
         d="m -307.67131,745.5431 c -0.88451,-0.36304 -7.53472,-9.5955 -14.77823,-20.51657 -12.8417,-19.36149 -13.11761,-19.95018 -11.06772,-23.61441 2.11952,-3.7887 6.40242,-5.38605 9.14998,-3.41258 3.93543,2.82668 26.43288,37.76794 26.43288,41.05346 0,5.17231 -4.93434,8.46128 -9.73691,6.4901 z"
         id="path4331"
         transform="scale(0.26458333)" />
      <path
         style="fill:#000000;stroke:#000000;stroke-width:20.1746;stroke-linecap:round;stroke-linejoin:round;stroke-miterlimit:4;stroke-dasharray:2.01746, 2.01746;stroke-dashoffset:0;stroke-opacity:0.955017;paint-order:stroke markers fill"
         d="m 21.015166,938.32716 v -158.6645 h 10.492896 10.492897 l 0.540065,142.37775 0.540066,142.37779 53.063294,0.5614 53.063296,0.5615 V 922.60187 779.66266 h 17.86289 17.86289 v 158.6645 158.66454 H 102.97431 21.015166 Z"
         id="path9146"
         transform="matrix(0.37719667,0,0,0.37102703,-118.51674,-181.04604)" />
      <path
         style="fill:#000000;stroke:#000000;stroke-width:14.2176;stroke-linecap:round;stroke-linejoin:round;stroke-miterlimit:4;stroke-dasharray:1.42176, 1.42176;stroke-dashoffset:0;stroke-opacity:0.955017;paint-order:stroke markers fill"
         d="m 49.296329,772.1876 c -2.966414,-3.20775 -4.485625,-3.54614 -15.920801,-3.54614 H 20.734066 V 696.81273 624.984 h 82.936264 82.93627 v 71.82873 71.82873 h -20.80139 c -20.21347,0 -20.90603,0.10465 -24.50389,3.70252 l -3.70252,3.70251 -42.511564,-0.15638 -42.511567,-0.15638 z m 126.589411,-71.3021 0.38669,-61.09145 H 104.42726 32.582104 v 60.47436 c 0,33.2609 0.450692,60.92505 1.001536,61.4759 0.550845,0.55084 32.70716,0.82853 71.45848,0.61708 l 70.45694,-0.38445 z"
         id="path9185"
         transform="matrix(0.37719667,0,0,0.37102703,-118.51674,-181.04604)" />
    </g>
    <g
       id="g8191"
       transform="matrix(0.80886694,0,0,0.73744558,229.57479,52.105609)">
      <path
         id="path3688"
         style="fill:#ffffff;stroke:#000000;stroke-width:0.498702;stroke-linecap:round;stroke-linejoin:round;stroke-dasharray:3.98964, 1.9948;stroke-opacity:0.955017;paint-order:stroke markers fill"
         d="m -49.494055,145.68394 1.092603,2.16599 -6.486851,27.44605 -1.092601,-2.16599 z m 2.68209,-2.09244 a 1.3949102,3.6718743 0 0 1 -1.39491,3.67189 1.3949102,3.6718743 0 0 1 -1.394909,-3.67189 1.3949102,3.6718743 0 0 1 1.394909,-3.67188 1.3949102,3.6718743 0 0 1 1.39491,3.67188 z m -39.929218,13.14402 1.548439,2.41785 -6.673375,27.98064 -1.548442,-2.41782 z m 3.135724,-1.53974 a 3.4915533,1.9665882 89.999999 0 1 -1.966586,3.49156 3.4915533,1.9665882 89.999999 0 1 -1.966588,-3.49156 3.4915533,1.9665882 89.999999 0 1 1.966588,-3.49154 3.4915533,1.9665882 89.999999 0 1 1.966586,3.49154 z m -1.587285,3.95759 1.631622,-2.62069 5.419807,22.09203 -1.631627,2.6207 z m 7.36751,21.71469 a 1.4055735,3.0817898 0 0 1 -1.405574,3.08181 1.4055735,3.0817898 0 0 1 -1.405571,-3.08181 1.4055735,3.0817898 0 0 1 1.405573,-3.08179 1.4055735,3.0817898 0 0 1 1.405572,3.08179 z m -0.316082,-2.24335 h 10.423241 v 4.28314 h -10.423241 z m 23.890763,-9.36091 a 0.88211667,4.2265108 6.8854271 0 1 0.02973,5.15104 0.88211667,4.2265108 6.8854271 0 1 -1.430556,2.95001 0.88211667,4.2265108 6.8854271 0 1 -0.02974,-5.15106 0.88211667,4.2265108 6.8854271 0 1 1.430557,-2.94999 z m -11.885183,9.14031 a 1.2955372,4.0172155 0 0 1 -1.29554,4.01722 1.2955372,4.0172155 0 0 1 -1.295537,-4.01722 1.2955372,4.0172155 0 0 1 1.295539,-4.01722 1.2955372,4.0172155 0 0 1 1.295538,4.01722 z m 4.716946,-19.63401 0.426431,-2.94876 5.437889,14.35986 -0.426433,2.94876 z m -1.88288,-4.05921 0.781008,2.7233 -3.797485,19.88702 -0.781009,-2.72327 z m 2.189983,0.40986 a 1.0091697,3.2856429 0 0 1 -1.009167,3.28563 1.0091697,3.2856429 0 0 1 -1.00917,-3.28563 1.0091697,3.2856429 0 0 1 1.009167,-3.28565 1.0091697,3.2856429 0 0 1 1.00917,3.28565 z" />
      <path
         id="path4457"
         style="fill:none;stroke:#000000;stroke-width:0.972745;stroke-linecap:round;stroke-linejoin:round;stroke-dasharray:0.0972745, 0.0972745;stroke-opacity:0.955017;paint-order:stroke markers fill"
         d="m -73.04091,237.10031 c 1.22206,0 2.20588,1.2919 2.20588,2.89662 v 11.80106 c 0,1.60473 -0.98382,2.89662 -2.20588,2.89662 -1.22206,0 -2.20588,-1.29189 -2.20588,-2.89662 v -11.80106 c 0,-1.60472 0.98382,-2.89662 2.20588,-2.89662 z m 10.04901,14.26855 a 9.2320269,14.48311 0 0 1 -9.23203,14.48311 9.2320269,14.48311 0 0 1 -9.23202,-14.48311 9.2320269,14.48311 0 0 1 9.23202,-14.48311 9.2320269,14.48311 0 0 1 9.23203,14.48311 z m -16.75924,27.46164 c 1.12902,-0.97789 2.70369,-0.69033 3.53066,0.64473 l 6.08142,9.81795 c 0.82697,1.33507 0.5838,3.19712 -0.54522,4.175 -1.12902,0.97788 -2.70369,0.69034 -3.53065,-0.64472 l -6.08143,-9.81796 c -0.82696,-1.33507 -0.58379,-3.19712 0.54522,-4.175 z m 18.09957,10.30606 a 10.572366,14.93581 0 0 1 -10.57236,14.93581 10.572366,14.93581 0 0 1 -10.57237,-14.93581 10.572366,14.93581 0 0 1 10.57237,-14.93581 10.572366,14.93581 0 0 1 10.57236,14.93581 z m -1.90453,-79.02964 c 0.37632,1.52419 -0.35354,3.11116 -1.63647,3.55826 l -9.43453,3.2879 c -1.28293,0.44709 -2.61871,-0.42003 -2.99504,-1.94422 -0.37632,-1.52418 0.35354,-3.11116 1.63647,-3.55826 l 9.43453,-3.28789 c 1.28293,-0.44709 2.61871,0.42002 2.99504,1.94421 z m 0.74349,3.61929 a 10.100197,14.335782 0 0 1 -10.1002,14.33578 10.100197,14.335782 0 0 1 -10.10019,-14.33578 10.100197,14.335782 0 0 1 10.10019,-14.33579 10.100197,14.335782 0 0 1 10.1002,14.33579 z m -40.18546,-18.82168 h 63.805928 v 130.20526 h -63.805928 z m 9.81256,0.0629 h 38.57717 v 115.55414 h -38.57717 z m -9.81256,-62.80834 h 64.234188 v 62.74543 h -64.234188 z m 6.15588,7.34684 h 52.388878 v 48.2862 H -96.84219 Z" />
    </g>
    <path
       style="fill:#374548;stroke:#000000;stroke-width:9.95235;stroke-linecap:round;stroke-linejoin:round;stroke-miterlimit:4;stroke-dasharray:0.995235, 0.995235;stroke-dashoffset:0;stroke-opacity:0.955017;paint-order:stroke markers fill"
       d=""
       id="path5937"
       transform="scale(0.26458333)" />
    <g
       id="g6122"
       transform="matrix(0.62405554,0,0,0.75737247,-40.062247,-28.618374)">
      <path
         id="rect4103"
         style="fill:none;stroke:#000000;stroke-width:0.929997;stroke-linecap:round;stroke-linejoin:round;stroke-dasharray:0.0929997, 0.0929997;stroke-opacity:0.955017;paint-order:stroke markers fill"
         d="m 117.13581,151.24511 c 1.22206,0 2.20588,1.18085 2.20588,2.64763 v 10.78662 c 0,1.46679 -0.98382,2.64763 -2.20588,2.64763 -1.22206,0 -2.20588,-1.18084 -2.20588,-2.64763 v -10.78662 c 0,-1.46678 0.98382,-2.64763 2.20588,-2.64763 z m 10.04901,13.04201 a 9.2320269,13.238126 0 0 1 -9.23203,13.23813 9.2320269,13.238126 0 0 1 -9.23202,-13.23813 9.2320269,13.238126 0 0 1 9.23202,-13.23812 9.2320269,13.238126 0 0 1 9.23203,13.23812 z m -16.75924,25.10101 c 1.12902,-0.89383 2.70369,-0.63099 3.53066,0.58931 l 6.08142,8.97399 c 0.82697,1.2203 0.5838,2.92229 -0.54522,3.81611 -1.12902,0.89382 -2.70369,0.631 -3.53065,-0.5893 l -6.08143,-8.974 c -0.82696,-1.2203 -0.58379,-2.92229 0.54522,-3.81611 z m 18.09957,9.42014 a 10.572366,13.651911 0 0 1 -10.57236,13.65191 10.572366,13.651911 0 0 1 -10.57237,-13.65191 10.572366,13.651911 0 0 1 10.57237,-13.65191 10.572366,13.651911 0 0 1 10.57236,13.65191 z m -1.90453,-72.23617 c 0.37632,1.39317 -0.35354,2.84373 -1.63647,3.25239 l -9.43453,3.00527 c -1.28293,0.40866 -2.61871,-0.38392 -2.99504,-1.77709 -0.37632,-1.39316 0.35354,-2.84372 1.63647,-3.25239 l 9.43453,-3.00526 c 1.28293,-0.40866 2.61871,0.38392 2.99504,1.77708 z m 0.74349,3.30818 a 10.100197,13.103462 0 0 1 -10.1002,13.10346 10.100197,13.103462 0 0 1 -10.10019,-13.10346 10.100197,13.103462 0 0 1 10.10019,-13.10347 10.100197,13.103462 0 0 1 10.1002,13.10347 z M 87.178663,112.67653 H 150.98458 V 231.6892 H 87.178663 Z m 9.81255,0.0575 H 135.56838 V 218.35501 H 96.991213 Z M 87.178663,55.324771 H 151.41284 V 112.67653 H 87.178663 Z m 6.155867,6.715292 h 52.38888 V 106.17553 H 93.33453 Z" />
      <path
         style="fill:#6c5353;stroke:#000000;stroke-width:13.5714;stroke-linecap:round;stroke-linejoin:round;stroke-miterlimit:4;stroke-dasharray:1.35714, 1.35714;stroke-dashoffset:0;stroke-opacity:0.955017;paint-order:stroke markers fill"
         d="M 332.21629,318.07943 V 212.05295 H 450.96595 569.7156 V 318.07943 424.10591 H 450.96595 332.21629 Z m 220.19261,-0.35342 0.36436,-85.88145 H 451.68374 350.59422 v 85.29241 c 0,46.91083 0.42834,85.72075 0.95186,86.24428 0.52353,0.52353 45.84985,0.7886 100.72516,0.58904 l 99.77328,-0.36284 z"
         id="path4607"
         transform="scale(0.26458333)" />
      <path
         style="fill:#6c5353;stroke:#000000;stroke-width:22.0468;stroke-linecap:round;stroke-linejoin:round;stroke-miterlimit:4;stroke-dasharray:2.20468, 2.20468;stroke-dashoffset:0;stroke-opacity:0.955017;paint-order:stroke markers fill"
         d="M 332.99834,652.21743 V 431.74957 h 14.91475 14.91476 l 0.58689,198.07659 0.58689,198.0766 75.21169,0.60551 75.2117,0.60553 V 630.43168 431.74957 h 26.41021 26.41021 V 652.21743 872.6853 H 450.12189 332.99834 Z"
         id="path4646"
         transform="scale(0.26458333)" />
      <path
         style="fill:#916f6f;stroke:#000000;stroke-width:27.0764;stroke-linecap:round;stroke-linejoin:round;stroke-miterlimit:4;stroke-dasharray:2.70764, 2.70764;stroke-dashoffset:0;stroke-opacity:0.955017;paint-order:stroke markers fill"
         d="m 430.82473,815.82056 -55.70402,-0.82789 V 623.26126 431.52984 h 63.46027 63.46027 v 193.20127 193.20127 l -7.75625,-0.64196 c -4.26594,-0.3531 -32.82306,-1.01452 -63.46027,-1.46986 z m 37.01707,-16.94211 c 19.7355,-14.73469 26.38298,-51.9219 13.75114,-76.92632 -21.69395,-42.94263 -72.90597,-28.19871 -77.48577,22.30815 -3.33775,36.80927 17.28457,64.57373 45.51146,61.27346 6.0707,-0.7098 14.27113,-3.70467 18.22317,-6.65529 z m -1.94744,-132.30658 c 17.03748,-15.40791 22.30393,-50.25247 11.34102,-75.03594 -13.47683,-30.4666 -46.24525,-31.53937 -61.85286,-2.02493 -13.31397,25.17709 -6.0552,66.54138 13.86799,79.02705 11.07971,6.94355 27.78282,6.04732 36.64385,-1.96618 z M 463.84392,537.117 c 19.62796,-12.86074 26.42735,-53.06643 12.96726,-76.67723 -4.70528,-8.25369 -10.76211,-13.88855 -19.44858,-18.09359 -11.64621,-5.63784 -13.48208,-5.80034 -23.90128,-2.1156 -17.32738,6.12781 -28.0965,21.42066 -29.5861,42.01421 -1.63722,22.6344 1.04444,34.8293 9.99917,45.47139 13.6485,16.22031 33.7811,20.00788 49.96953,9.40082 z"
         id="path4722"
         transform="scale(0.26458333)" />
      <path
         style="fill:#aaffcc;stroke:#000000;stroke-width:16.2857;stroke-linecap:round;stroke-linejoin:round;stroke-miterlimit:4;stroke-dasharray:1.62857, 1.62857;stroke-dashoffset:0;stroke-opacity:0.955017;paint-order:stroke markers fill"
         d="m 359.07633,395.83218 c -0.62202,-0.62202 -1.13095,-36.11969 -1.13095,-78.8837 v -77.75275 h 93.3033 93.3033 v 77.79018 77.79017 l -11.45086,1.08146 c -15.26158,1.44137 -172.58099,1.41843 -174.02479,-0.0254 z"
         id="path5338"
         transform="scale(0.26458333)" />
      <path
         style="fill:#6f8a91;stroke:#000000;stroke-width:16.2857;stroke-linecap:round;stroke-linejoin:round;stroke-miterlimit:4;stroke-dasharray:1.62857, 1.62857;stroke-dashoffset:0;stroke-opacity:0.955017;paint-order:stroke markers fill"
         d="m 434.66295,525.71271 c -4.92247,-2.45189 -8.74081,-6.14068 -11.87497,-11.47209 -4.08601,-6.95057 -4.60662,-9.5236 -4.50751,-22.27777 0.0833,-10.71634 1.00862,-16.42029 3.6031,-22.20982 5.56113,-12.40954 18.97548,-19.66307 27.88555,-15.07854 4.66116,2.39832 15.05095,11.90866 15.05095,13.77694 0,0.69815 -8.58814,3.95547 -19.08476,7.23848 -19.93912,6.23632 -23.32583,8.73002 -23.32583,17.17524 0,4.60574 6.76645,12.66909 10.63142,12.66909 1.26693,0 9.07874,-2.29017 17.35957,-5.08927 8.28083,-2.7991 15.67625,-5.08927 16.43425,-5.08927 2.71008,0 1.27457,9.48172 -2.74135,18.10697 -6.57535,14.1223 -16.97836,18.45242 -29.43042,12.25004 z"
         id="path5629"
         transform="scale(0.26458333)" />
      <path
         style="fill:#6f8a91;stroke:#000000;stroke-width:16.2857;stroke-linecap:round;stroke-linejoin:round;stroke-miterlimit:4;stroke-dasharray:1.62857, 1.62857;stroke-dashoffset:0;stroke-opacity:0.955017;paint-order:stroke markers fill"
         d="m 435.59713,654.88179 c -5.26952,-4.14501 -10.76255,-16.79563 -12.29778,-28.32218 -1.27148,-9.54628 2.23928,-26.8947 6.74417,-33.32633 2.32444,-3.31861 2.5445,-1.93567 2.5445,15.99062 0,21.50865 1.5478,25.23853 10.4733,25.23853 8.4103,0 9.88379,-4.12963 9.88379,-27.70046 0,-12.15247 0.68715,-21.49582 1.5809,-21.49582 0.8695,0 3.25103,2.34546 5.29228,5.21213 11.7192,16.45811 10.86521,49.10388 -1.63456,62.48494 -5.97412,6.39531 -15.83094,7.23257 -22.5866,1.91857 z"
         id="path5668"
         transform="scale(0.26458333)" />
      <path
         style="fill:#6f8a91;stroke:#000000;stroke-width:16.2857;stroke-linecap:round;stroke-linejoin:round;stroke-miterlimit:4;stroke-dasharray:1.62857, 1.62857;stroke-dashoffset:0;stroke-opacity:0.955017;paint-order:stroke markers fill"
         d="m 433.20711,787.27773 c -6.69024,-4.07951 -13.92137,-18.6992 -14.33217,-28.97637 -0.75738,-18.94786 -0.7581,-18.94762 9.89613,-3.29966 9.36937,13.76086 10.03277,14.3467 16.80517,14.84029 5.74909,0.419 7.54986,-0.19874 9.75443,-3.34621 4.9603,-7.08181 3.32943,-12.26149 -10.02661,-31.84472 l -12.73032,-18.66578 5.3025,-2.74203 c 11.49213,-5.94281 25.81964,2.54599 31.94951,18.92952 6.73266,17.99464 3.10937,40.46621 -8.37673,51.95231 -5.66122,5.66122 -7.37103,6.40759 -14.66592,6.40199 -5.13513,-0.004 -10.26865,-1.23263 -13.57599,-3.24934 z"
         id="path5707"
         transform="scale(0.26458333)" />
      <path
         style="fill:#374548;stroke:#000000;stroke-width:9.95235;stroke-linecap:round;stroke-linejoin:round;stroke-miterlimit:4;stroke-dasharray:0.995235, 0.995235;stroke-dashoffset:0;stroke-opacity:0.955017;paint-order:stroke markers fill"
         d="m 432.38479,494.65605 c -2.26782,-4.23747 -2.29972,-4.21767 18.58116,-11.53128 7.69752,-2.69608 14.74847,-5.22888 15.66877,-5.62843 1.28529,-0.55802 1.82615,0.0379 2.33258,2.57006 1.1906,5.95301 0.88736,6.86215 -2.31926,6.95332 -2.30415,0.0655 -24.83889,6.6046 -31.93066,9.26558 -0.66901,0.25102 -1.71867,-0.48214 -2.33259,-1.62925 z"
         id="path5859"
         transform="scale(0.26458333)" />
      <path
         style="fill:#374548;stroke:#000000;stroke-width:9.95235;stroke-linecap:round;stroke-linejoin:round;stroke-miterlimit:4;stroke-dasharray:0.995235, 0.995235;stroke-dashoffset:0;stroke-opacity:0.955017;paint-order:stroke markers fill"
         d="m 441.4151,607.56194 c -0.40137,-13.90335 -0.8616,-18.11099 -2.20524,-20.16165 -1.84898,-2.8219 -1.45859,-3.36168 3.4492,-4.76922 l 3.02932,-0.8688 -0.44981,6.39354 c -0.37015,5.26132 -1.4617,30.97036 -1.51491,35.68042 -0.008,0.71273 -0.41664,1.29587 -0.90798,1.29587 -0.49134,0 -1.1216,-7.90657 -1.40058,-17.57016 z"
         id="path5898"
         transform="scale(0.26458333)" />
      <path
         style="fill:#374548;stroke:#000000;stroke-width:9.95235;stroke-linecap:round;stroke-linejoin:round;stroke-miterlimit:4;stroke-dasharray:0.995235, 0.995235;stroke-dashoffset:0;stroke-opacity:0.955017;paint-order:stroke markers fill"
         d="m 441.34768,757.57095 c -1.35678,-1.8531 -4.63106,-6.46412 -7.2762,-10.24669 -4.56644,-6.53008 -9.54269,-11.61087 -12.25866,-12.5162 -1.57522,-0.52507 -0.62301,-4.34372 2.24065,-8.98571 l 2.1582,-3.49844 7.78529,11.27372 c 9.00663,13.0423 14.89558,23.1743 14.89558,25.62801 0,3.11239 -4.83018,2.05308 -7.54486,-1.65469 z"
         id="path5976"
         transform="scale(0.26458333)" />
      <path
         style="fill:#374548;stroke:#000000;stroke-width:9.95235;stroke-linecap:round;stroke-linejoin:round;stroke-miterlimit:4;stroke-dasharray:0.995235, 0.995235;stroke-dashoffset:0;stroke-opacity:0.955017;paint-order:stroke markers fill"
         d="m 441.34768,757.57095 c -1.35678,-1.8531 -4.63106,-6.46412 -7.2762,-10.24669 -4.56644,-6.53008 -9.54269,-11.61087 -12.25866,-12.5162 -1.57522,-0.52507 -0.62301,-4.34372 2.24065,-8.98571 l 2.1582,-3.49844 7.78529,11.27372 c 9.00663,13.0423 14.89558,23.1743 14.89558,25.62801 0,3.11239 -4.83018,2.05308 -7.54486,-1.65469 z"
         id="path6015"
         transform="scale(0.26458333)" />
      <path
         id="path3668"
         style="fill:#00d455;stroke:#000000;stroke-width:0.412586;stroke-linecap:round;stroke-linejoin:round;stroke-dasharray:3.3007, 1.65034;stroke-opacity:0.955017;paint-order:stroke markers fill"
         d="m 141.16962,75.190669 1.18535,1.366536 -7.03748,17.315846 -1.18535,-1.366535 z m 2.90976,-1.320126 a 1.5133153,2.3166034 0 0 1 -1.51332,2.316604 1.5133153,2.3166034 0 0 1 -1.51332,-2.316604 1.5133153,2.3166034 0 0 1 1.51332,-2.316602 1.5133153,2.3166034 0 0 1 1.51332,2.316602 z m -43.31857,8.29263 1.67988,1.525422 -7.239845,17.653145 -1.679875,-1.525427 z m 3.4019,-0.97143 a 2.1335195,2.2028381 0 0 1 -2.13352,2.202839 2.1335195,2.2028381 0 0 1 -2.133517,-2.202839 2.1335195,2.2028381 0 0 1 2.133517,-2.202837 2.1335195,2.2028381 0 0 1 2.13352,2.202837 z m -1.72202,2.496852 1.77012,-1.653397 5.87986,13.937974 -1.77012,1.653403 z m 7.9929,13.69992 a 1.5248838,1.9443162 0 0 1 -1.52489,1.944311 1.5248838,1.9443162 0 0 1 -1.52488,-1.944311 1.5248838,1.9443162 0 0 1 1.52488,-1.94432 1.5248838,1.9443162 0 0 1 1.52489,1.94432 z m -0.34292,-1.415343 11.30801,3e-6 v 2.702234 h -11.30801 z m 25.9187,-5.905853 a 0.94261489,2.7072029 12.804212 0 1 0.0322,3.249814 0.94261489,2.7072029 12.804212 0 1 -1.55197,1.861173 0.94261489,2.7072029 12.804212 0 1 -0.0323,-3.249817 0.94261489,2.7072029 12.804212 0 1 1.55199,-1.86117 z m -12.89405,5.76667 a 1.4055074,2.5344809 0 0 1 -1.4055,2.534483 1.4055074,2.5344809 0 0 1 -1.40551,-2.534483 1.4055074,2.5344809 0 0 1 1.40551,-2.534483 1.4055074,2.5344809 0 0 1 1.4055,2.534483 z m 5.11735,-12.387196 0.46262,-1.860393 5.89949,9.059719 -0.46264,1.860394 z m -2.0427,-2.560975 0.8473,1.718136 -4.11983,12.546828 -0.84731,-1.718136 z m 2.37587,0.25858 a 1.0948317,2.0729281 0 0 1 -1.09483,2.072927 1.0948317,2.0729281 0 0 1 -1.09484,-2.072927 1.0948317,2.0729281 0 0 1 1.09484,-2.072927 1.0948317,2.0729281 0 0 1 1.09483,2.072927 z" />
    </g>
    <path
       style="fill:#ffffff;stroke:#000000;stroke-width:14.2176;stroke-linecap:round;stroke-linejoin:round;stroke-miterlimit:4;stroke-dasharray:1.42176, 1.42176;stroke-dashoffset:0;stroke-opacity:0.955017;paint-order:stroke markers fill"
       d=""
       id="path8501"
       transform="scale(0.26458333)" />
    <g
       id="g9070"
       transform="matrix(0.63406906,0,0,0.76043296,-44.76889,-128.56948)">
      <path
         id="path7133"
         style="fill:#ffffff;stroke:#000000;stroke-width:0.442068;stroke-linecap:round;stroke-linejoin:round;stroke-dasharray:3.53655, 1.76827;stroke-opacity:0.955017;paint-order:stroke markers fill"
         d="m 369.00433,196.28316 1.26605,1.4688 -7.51668,18.6116 -1.26606,-1.46878 z m 3.1079,-1.41889 a 1.6163631,2.4899574 0 0 1 -1.61638,2.48995 1.6163631,2.4899574 0 0 1 -1.61635,-2.48995 1.6163631,2.4899574 0 0 1 1.61635,-2.48999 1.6163631,2.4899574 0 0 1 1.61638,2.48999 z m -46.26832,8.91314 1.79427,1.63959 -7.73282,18.97414 -1.79426,-1.63956 z m 3.63356,-1.0441 a 2.3676787,2.2787995 89.999991 0 1 -2.2788,2.36768 2.3676787,2.2787995 89.999991 0 1 -2.27879,-2.36768 2.3676787,2.2787995 89.999991 0 1 2.27879,-2.36768 2.3676787,2.2787995 89.999991 0 1 2.2788,2.36768 z m -1.83929,2.68369 1.89068,-1.77713 6.28023,14.98096 -1.89066,1.77713 z m 8.53717,14.72508 a 1.6287194,2.0898113 0 0 1 -1.62872,2.08982 1.6287194,2.0898113 0 0 1 -1.62871,-2.08982 1.6287194,2.0898113 0 0 1 1.62871,-2.08982 1.6287194,2.0898113 0 0 1 1.62872,2.08982 z m -0.36626,-1.52125 h 12.07801 v 2.90447 h -12.07801 z m 27.68361,-6.34778 a 1.00711,2.908894 12.705372 0 1 0.0345,3.49299 1.00711,2.908894 12.705372 0 1 -1.65767,2.00045 1.00711,2.908894 12.705372 0 1 -0.0345,-3.49301 1.00711,2.908894 12.705372 0 1 1.65765,-2.00043 z m -13.77206,6.19819 a 1.501214,2.7241387 0 0 1 -1.50121,2.72413 1.501214,2.7241387 0 0 1 -1.50121,-2.72413 1.501214,2.7241387 0 0 1 1.50121,-2.72414 1.501214,2.7241387 0 0 1 1.50121,2.72414 z m 5.4658,-13.31413 0.49413,-1.9996 6.30121,9.73764 -0.49414,1.9996 z m -2.18179,-2.75261 0.90499,1.8467 -4.40037,13.4857 -0.90499,-1.84669 z m 2.53765,0.27793 a 1.1693832,2.2280475 0 0 1 -1.16938,2.22804 1.1693832,2.2280475 0 0 1 -1.16937,-2.22804 1.1693832,2.2280475 0 0 1 1.16937,-2.22804 1.1693832,2.2280475 0 0 1 1.16938,2.22804 z" />
      <path
         id="path8175"
         style="fill:none;stroke:#000000;stroke-width:0.929997;stroke-linecap:round;stroke-linejoin:round;stroke-dasharray:0.0929997, 0.0929997;stroke-opacity:0.955017;paint-order:stroke markers fill"
         d="m 343.70664,269.46072 c 1.22206,0 2.20588,1.18085 2.20588,2.64763 v 10.78662 c 0,1.46679 -0.98382,2.64763 -2.20588,2.64763 -1.22206,0 -2.20588,-1.18084 -2.20588,-2.64763 v -10.78662 c 0,-1.46678 0.98382,-2.64763 2.20588,-2.64763 z m 10.04901,13.04201 a 9.2320269,13.238126 0 0 1 -9.23203,13.23813 9.2320269,13.238126 0 0 1 -9.23202,-13.23813 9.2320269,13.238126 0 0 1 9.23202,-13.23812 9.2320269,13.238126 0 0 1 9.23203,13.23812 z m -16.75924,25.10101 c 1.12902,-0.89383 2.70369,-0.63099 3.53066,0.58931 l 6.08142,8.97399 c 0.82697,1.2203 0.5838,2.92229 -0.54522,3.81611 -1.12902,0.89382 -2.70369,0.631 -3.53065,-0.5893 l -6.08143,-8.974 c -0.82696,-1.2203 -0.58379,-2.92229 0.54522,-3.81611 z m 18.09957,9.42014 a 10.572366,13.651911 0 0 1 -10.57236,13.65191 10.572366,13.651911 0 0 1 -10.57237,-13.65191 10.572366,13.651911 0 0 1 10.57237,-13.65191 10.572366,13.651911 0 0 1 10.57236,13.65191 z m -1.90453,-72.23617 c 0.37632,1.39317 -0.35354,2.84373 -1.63647,3.25239 l -9.43453,3.00527 c -1.28293,0.40866 -2.61871,-0.38392 -2.99504,-1.77709 -0.37632,-1.39316 0.35354,-2.84372 1.63647,-3.25239 l 9.43453,-3.00526 c 1.28293,-0.40866 2.61871,0.38392 2.99504,1.77708 z m 0.74349,3.30818 a 10.100197,13.103462 0 0 1 -10.1002,13.10346 10.100197,13.103462 0 0 1 -10.10019,-13.10346 10.100197,13.103462 0 0 1 10.10019,-13.10347 10.100197,13.103462 0 0 1 10.1002,13.10347 z m -40.18545,-17.20375 h 63.80592 v 119.01267 h -63.80592 z m 9.81255,0.0575 h 38.57717 v 105.62098 h -38.57717 z m -9.81255,-57.40926 h 64.23418 v 57.35176 h -64.23418 z m 6.15587,6.71529 h 52.38888 v 44.13547 h -52.38888 z" />
      <path
         style="fill:#ffffff;stroke:#000000;stroke-width:3.76174;stroke-linecap:round;stroke-linejoin:round;stroke-miterlimit:4;stroke-dasharray:0.376174, 0.376174;stroke-dashoffset:0;stroke-opacity:0.955017;paint-order:stroke markers fill"
         d="m 314.46867,202.32848 v -28.01721 h 31.34793 31.34793 v 28.01721 28.01721 H 345.8166 314.46867 Z m 58.38553,0 v -22.53132 h -26.84167 -26.84167 v 19.60504 c 0,16.61584 -0.0904,19.82141 -0.59292,21.0241 -0.60184,1.4404 -0.45036,2.34165 0.21638,1.28736 0.27717,-0.43825 0.36598,-0.3211 0.37054,0.48887 0.005,0.83759 -0.13464,1.01132 -0.65202,0.81277 -0.56867,-0.21822 -0.55537,-0.11178 0.098,0.7837 l 0.75599,1.03619 26.7437,0.0122 26.74371,0.0124 z"
         id="path8267" />
      <path
         style="fill:#ffffff;stroke:#000000;stroke-width:3.76174;stroke-linecap:round;stroke-linejoin:round;stroke-miterlimit:4;stroke-dasharray:0.376174, 0.376174;stroke-dashoffset:0;stroke-opacity:0.955017;paint-order:stroke markers fill"
         d="m 321.13011,222.58231 c 0,-0.17502 0.33089,-1.01261 0.7353,-1.86129 1.02937,-2.16009 1.34172,-3.30634 0.90098,-3.30634 -0.20668,0 -0.4754,0.39674 -0.59716,0.88166 -0.12177,0.48491 -0.48296,1.23432 -0.80266,1.66536 -0.53028,0.71495 -0.56325,0.57745 -0.37573,-1.5674 0.11305,-1.2931 0.46236,-3.03398 0.77625,-3.86862 0.51016,-1.35653 0.50664,-1.49294 -0.0331,-1.28581 -0.53776,0.20636 -0.60384,-1.50368 -0.60384,-15.62587 v -15.8576 h 24.88242 24.88243 v 7.68676 c 0,7.49385 -0.0196,7.68162 -0.78372,7.48182 -0.81124,-0.21214 -1.08222,0.27463 -0.39079,0.70197 0.26265,0.16232 0.26265,0.48623 0,0.97699 -0.48681,0.90962 -0.49448,1.17752 -0.0337,1.17752 0.19757,0 0.53631,-0.48491 0.75277,-1.07758 0.27868,-0.76301 0.40259,2.61156 0.4245,11.55955 l 0.031,12.63713 h -24.88243 c -13.68533,0 -24.88242,-0.1432 -24.88242,-0.31825 z m 15.10926,-0.69045 c 0.73259,-0.59412 0.72452,-0.60717 -0.219,-0.35383 -0.53879,0.14467 -1.2882,0.28371 -1.66535,0.30898 -1.02452,0.0686 -0.82825,0.6617 0.21899,0.6617 0.4976,0 1.24701,-0.27758 1.66536,-0.61685 z m 5.65874,-0.16685 c 0,-0.2155 -0.98023,-0.39185 -2.17829,-0.39185 -1.35242,0 -2.08648,0.14857 -1.93612,0.39185 0.13319,0.21553 1.11343,0.39185 2.17829,0.39185 1.06487,0 1.93612,-0.17632 1.93612,-0.39185 z m 5.28997,0 c 0.15035,-0.24328 -0.58371,-0.39185 -1.93612,-0.39185 -1.19807,0 -2.1783,0.17635 -2.1783,0.39185 0,0.21553 0.87125,0.39185 1.93612,0.39185 1.06487,0 2.0451,-0.17632 2.1783,-0.39185 z m 2.15517,-0.78369 c 0.82779,-0.82779 1.13686,-3.91849 0.39185,-3.91849 -0.21552,0 -0.39185,0.70383 -0.39185,1.56408 0,1.1397 -0.21264,1.69686 -0.7837,2.0535 -0.43104,0.26918 -0.7837,0.62335 -0.7837,0.78702 0,0.54655 0.77511,0.30618 1.5674,-0.48611 z m -16.06582,-1.33942 c 0,-1.59801 -0.33001,-2.57907 -0.86754,-2.57907 -0.22199,0 -0.26665,0.29725 -0.10301,0.68574 0.15886,0.37715 0.26036,1.25881 0.22557,1.95924 -0.0348,0.70042 0.11859,1.27351 0.34086,1.27351 0.22227,0 0.40412,-0.60275 0.40412,-1.33942 z m 6.26959,-1.01167 c 0,-0.21552 -0.78208,-0.39186 -1.73796,-0.39186 -1.63054,0 -1.76861,-0.0848 -2.23389,-1.37147 -0.27276,-0.75431 -0.63684,-1.37147 -0.80906,-1.37147 -0.42859,0 -0.40465,0.14727 0.31719,1.95132 0.61562,1.53859 0.67502,1.57532 2.54702,1.57532 1.05418,0 1.9167,-0.17633 1.9167,-0.39184 z m 5.48589,0 c 0,-0.21552 -0.96983,-0.39186 -2.15517,-0.39186 -1.18535,0 -2.15517,0.17634 -2.15517,0.39186 0,0.21551 0.96982,0.39184 2.15517,0.39184 1.18534,0 2.15517,-0.17633 2.15517,-0.39184 z m 2.06425,-0.88166 c 0.32373,-2.1256 -0.31177,-2.10099 -0.73768,0.0286 -0.14845,0.74226 -0.089,1.24493 0.14737,1.24493 0.21799,0 0.48363,-0.57308 0.59031,-1.2735 z m 15.8941,-0.29389 c 0.16648,-0.50402 0.10131,-0.51114 -0.45734,-0.05 -1.14037,0.94135 -0.83218,-2.53886 0.5139,-5.80313 0.64096,-1.55435 0.96923,-2.76072 0.72949,-2.6808 -0.23974,0.0799 -0.72589,0.88701 -1.08033,1.79355 l -0.64444,1.64826 -0.69499,-1.17651 c -0.38224,-0.64708 -0.86755,-1.17652 -1.07847,-1.17652 -0.41055,0 -0.0633,0.79087 0.93264,2.12423 0.30925,0.41402 0.47593,1.08297 0.37039,1.48655 -0.16166,0.61816 -0.34385,0.51018 -1.15617,-0.68526 -0.53036,-0.78049 -1.06258,-1.32077 -1.18272,-1.20064 -0.12013,0.12014 0.24821,0.92357 0.81854,1.7854 0.60393,0.9126 1.03696,2.11592 1.03696,2.88152 0,0.72301 0.12365,1.43822 0.27478,1.58935 0.43263,0.43263 1.40412,0.11074 1.61776,-0.53601 z m -38.71243,-2.57951 c 0.87732,-2.04671 0.89275,-2.12268 0.43115,-2.12268 -0.30516,0 -1.62063,2.95273 -1.62063,3.6377 0,0.73883 0.49195,0.11225 1.18948,-1.51502 z m 7.00436,-1.17989 c -0.46379,-1.05733 -0.91567,-1.72951 -1.00418,-1.49373 -0.0885,0.23577 0.21854,1.29376 0.68232,2.35109 0.4638,1.05733 0.91567,1.72951 1.00418,1.49373 0.0885,-0.23577 -0.21853,-1.29377 -0.68232,-2.35109 z m 19.83181,0.59922 c 0.36255,-1.09155 0.55721,-2.08661 0.43256,-2.21126 -0.12464,-0.12464 -0.316,0.019 -0.42523,0.31928 -1.024,2.81445 -1.30059,3.87661 -1.00949,3.87661 0.18863,0 0.63961,-0.89309 1.00216,-1.98463 z m 12.9423,0.90704 c 0.12681,-0.59267 0.50151,-1.83771 0.83266,-2.76675 0.73625,-2.06551 0.36526,-2.69874 -0.44499,-0.75954 -0.81984,1.96215 -1.37125,4.60388 -0.96097,4.60388 0.1885,0 0.44649,-0.48491 0.5733,-1.07759 z m -14.94268,0.0419 c 0.32805,-0.85488 -0.10751,-1.25223 -0.57038,-0.52034 -0.46337,0.7327 -0.47324,1.1642 -0.0266,1.1642 0.19245,0 0.4611,-0.28974 0.59699,-0.64386 z m -14.76026,-1.0215 c -0.10036,-0.2694 -0.41915,-1.15106 -0.70842,-1.95924 -0.46174,-1.29006 -1.15221,-1.99698 -1.15221,-1.17967 0,0.65785 1.39701,3.6259 1.70728,3.62725 0.1847,8e-4 0.25371,-0.21894 0.15335,-0.48834 z m 15.88224,-2.72176 c 0.74331,-2.32437 0.56656,-3.06413 -0.2535,-1.06097 -0.88201,2.15453 -1.10753,3.09699 -0.74105,3.09699 0.1889,0 0.63645,-0.91621 0.99455,-2.03602 z m -25.99575,-3.15598 c 0.0132,-0.16163 -0.12833,-0.29388 -0.31456,-0.29388 -0.39226,0 -1.63635,3.08008 -1.58802,3.93159 0.0297,0.52261 1.84638,-2.95094 1.90258,-3.63771 z m 2.0095,1.80016 c 0.43013,-1.00345 0.70896,-2.01736 0.61964,-2.25313 -0.17288,-0.45631 -1.79825,2.76055 -1.81278,3.58777 -0.0168,0.95585 0.42145,0.46563 1.19314,-1.33464 z m 3.89229,0.87731 c 0,-0.5586 -1.62878,-3.82428 -1.81467,-3.63839 -0.30758,0.30758 1.04906,3.80183 1.47606,3.80183 0.18623,0 0.33861,-0.0736 0.33861,-0.16344 z m 22.72757,-1.99287 c 0.27482,-0.98156 0.39211,-1.89222 0.26064,-2.02369 -0.26797,-0.26796 -0.98249,1.43118 -1.33026,3.16335 -0.36349,1.81045 0.50175,0.88856 1.06962,-1.13966 z m 5.87574,1.47057 c -0.003,-0.55851 -2.21518,-3.62822 -2.44724,-3.39616 -0.27426,0.27426 1.71796,3.69005 2.15218,3.69005 0.1632,0 0.29598,-0.13225 0.29506,-0.29389 z m -26.87032,-2.35109 c -0.34573,-0.80819 -0.71963,-1.68985 -0.83087,-1.95925 -0.11125,-0.26939 -0.3621,-0.48981 -0.55746,-0.48981 -0.19535,0 -0.0723,0.66125 0.27344,1.46944 0.34573,0.80819 0.71963,1.68985 0.83088,1.95924 0.11124,0.2694 0.3621,0.48981 0.55745,0.48981 0.19535,0 0.0723,-0.66124 -0.27344,-1.46943 z m 34.87371,-0.5089 c 0.80838,-2.24802 0.56906,-3.1252 -0.29103,-1.06672 -0.9067,2.17003 -1.12544,3.04505 -0.76121,3.04505 0.18746,0 0.66098,-0.89025 1.05224,-1.97833 z m -6.82617,1.38216 c 0,-0.47695 -2.09676,-3.32232 -2.44823,-3.32232 -0.21166,0 -0.1275,0.39675 0.18702,0.88166 0.31453,0.48492 0.78184,1.27841 1.03848,1.76332 0.41217,0.77879 1.22273,1.22781 1.22273,0.67734 z m -7.66309,-3.6162 c 0.14892,-0.48492 0.11047,-0.88166 -0.0855,-0.88166 -0.37481,0 -1.28672,2.64398 -1.23201,3.5721 0.0322,0.54565 0.81388,-1.05073 1.31747,-2.69044 z m 13.11043,0.57974 c 0.43692,-1.01929 0.6171,-1.85325 0.40041,-1.85325 -0.47145,0 -1.90955,3.19286 -1.64431,3.65067 0.25408,0.43853 0.33653,0.3194 1.2439,-1.79742 z m -40.13643,-0.12538 c 0.4442,-1.06312 0.48351,-1.60188 0.16087,-2.20474 -0.3097,-0.57868 -0.30618,-1.06294 0.0128,-1.76307 0.34464,-0.7564 0.33217,-0.92898 -0.0577,-0.7976 -0.30328,0.10221 -0.5141,0.91893 -0.54012,2.0924 -0.0235,1.05862 -0.17484,2.40967 -0.33637,3.00234 -0.42018,1.54169 0.0668,1.33079 0.76045,-0.32933 z m 2.76374,0.19764 c 0.006,-0.30472 0.13819,-0.75801 0.29443,-1.00731 0.1859,-0.29662 0.0469,-0.39117 -0.4022,-0.27359 -0.39927,0.10453 -0.71042,0.58893 -0.74399,1.15824 -0.0343,0.58181 0.12456,0.91737 0.39185,0.82763 0.24726,-0.083 0.45422,-0.40025 0.45991,-0.70497 z m 26.16191,-0.45608 c 0.14368,-0.39185 0.28343,-0.39185 0.69879,0 0.82035,0.77391 1.02312,0.58479 0.8403,-0.7837 -0.16306,-1.22055 -0.14446,-1.24092 0.44725,-0.48981 0.72779,0.92383 0.83483,0.26347 0.18757,-1.15711 -0.58137,-1.27596 -1.11265,-1.28013 -1.11265,-0.009 0,0.69472 -0.29172,1.10023 -0.97963,1.36177 -0.53879,0.20485 -0.97962,0.64131 -0.97962,0.96992 0,0.71885 0.64551,0.79624 0.89799,0.10767 z m -24.1903,-2.15517 c -0.14323,-0.80819 -0.34639,-1.76328 -0.45147,-2.12242 -0.22657,-0.77443 -2.38153,-1.63541 -2.7205,-1.08693 -0.12525,0.20264 0.13129,0.36844 0.57007,0.36844 0.95254,0 2.17443,1.70081 1.84279,2.56505 -0.19661,0.51235 0.39563,1.67961 0.87796,1.73039 0.0779,0.008 0.0244,-0.64634 -0.11885,-1.45453 z m 38.79453,-0.69447 c 0.91249,-2.38936 0.39706,-2.73701 -0.60212,-0.40609 -0.90802,2.11837 -0.91993,2.17815 -0.4341,2.17815 0.1977,0 0.664,-0.79743 1.03622,-1.77206 z m -15.2862,-0.76263 c 0.39075,-0.9352 0.75119,-1.28879 1.15555,-1.13362 0.32322,0.12403 0.58768,0.0303 0.58768,-0.20826 0,-0.59207 -1.37543,-0.54946 -1.87977,0.0582 -0.50978,0.61424 -1.03921,2.64279 -0.68974,2.64279 0.14212,0 0.51395,-0.61161 0.82628,-1.35914 z m 14.02437,-1.28584 c 0.35393,-0.91595 0.48776,-1.66536 0.29739,-1.66536 -0.35988,0 -1.60676,2.8037 -1.60676,3.61294 0,0.76434 0.61479,-0.15012 1.30937,-1.94758 z m 1.62338,-5.21133 c -0.13444,-0.4235 0.0188,-1.29773 0.34065,-1.94273 0.32176,-0.64501 0.44381,-1.17274 0.2712,-1.17274 -0.6857,0 -1.09673,1.09635 -1.3222,3.52664 -0.22617,2.43777 -0.21077,2.50009 0.35922,1.45293 0.32753,-0.60176 0.48554,-1.4406 0.35113,-1.8641 z"
         id="path8306" />
      <path
         style="fill:#ffffff;stroke:#000000;stroke-width:3.76174;stroke-linecap:round;stroke-linejoin:round;stroke-miterlimit:4;stroke-dasharray:0.376174, 0.376174;stroke-dashoffset:0;stroke-opacity:0.955017;paint-order:stroke markers fill"
         d="m 324.2649,284.02904 v -51.72408 h 18.61284 18.61283 v 51.72408 51.72408 H 342.87774 324.2649 Z m 22.96713,46.8348 c 5.3532,-1.58973 8.63749,-7.45996 8.31267,-14.85776 -0.13021,-2.96527 -0.36088,-4.0041 -1.36556,-6.14971 -2.16685,-4.62762 -5.42103,-6.99389 -9.64031,-7.00998 -5.32988,-0.0204 -9.59632,4.24405 -10.89011,10.8848 -1.23918,6.36043 1.41309,13.5763 5.92147,16.11014 3.01709,1.69569 4.6577,1.91465 7.66184,1.02251 z m 1.1133,-35.61824 c 1.92751,-1.03595 3.79346,-3.44469 4.9607,-6.40376 1.28286,-3.25218 1.28286,-9.50823 0,-12.76041 -1.84724,-4.68294 -4.99285,-7.33451 -8.7011,-7.33451 -2.46958,0 -3.76384,0.52787 -5.58158,2.27645 -2.85847,2.74973 -4.25287,6.57122 -4.23476,11.60571 0.0362,10.06864 6.72137,16.29018 13.55674,12.61652 z m -0.75705,-34.285 c 2.49659,-1.13411 5.02071,-4.24712 6.05705,-7.47014 0.73276,-2.27888 0.85771,-3.38354 0.72241,-6.38664 -0.24848,-5.51524 -2.24927,-9.2846 -6.14338,-11.5738 -1.48967,-0.87572 -2.28225,-1.06728 -4.367,-1.0554 -4.23354,0.0241 -7.21412,2.20014 -9.34829,6.82498 -0.79542,1.72371 -1.03541,2.95196 -1.16062,5.93987 -0.19462,4.64407 0.4566,7.15219 2.65364,10.2203 2.76973,3.86789 7.5792,5.32109 11.58619,3.50083 z"
         id="path8345" />
      <path
         style="fill:#ffffff;stroke:#000000;stroke-width:3.76174;stroke-linecap:round;stroke-linejoin:round;stroke-miterlimit:4;stroke-dasharray:0.376174, 0.376174;stroke-dashoffset:0;stroke-opacity:0.955017;paint-order:stroke markers fill"
         d="m 342.09491,293.62199 c -0.64607,-0.3491 -1.45773,-0.89086 -1.8037,-1.20394 -1.24498,-1.1267 -2.69376,-4.39952 -3.16562,-7.15121 -0.77652,-4.52832 0.4642,-9.8897 2.77158,-11.97642 l 0.8254,-0.74647 0.006,5.44865 c 0.006,5.83586 0.30177,7.04969 1.91215,7.85257 1.23781,0.61711 2.93438,0.006 3.51395,-1.2663 0.2718,-0.59653 0.44586,-3.34253 0.44586,-7.03379 0,-4.24606 0.13253,-6.05522 0.44355,-6.05522 0.73981,0 3.16093,2.82445 4.0295,4.70077 0.67925,1.46735 0.81692,2.52883 0.81692,6.29872 0,4.26876 -0.0688,4.66762 -1.17555,6.81887 -2.09664,4.07519 -5.71234,5.88468 -8.61981,4.31377 z"
         id="path8384" />
      <path
         style="fill:#ffffff;stroke:#000000;stroke-width:3.76174;stroke-linecap:round;stroke-linejoin:round;stroke-miterlimit:4;stroke-dasharray:0.376174, 0.376174;stroke-dashoffset:0;stroke-opacity:0.955017;paint-order:stroke markers fill"
         d="m 343.22637,283.56726 c -0.15697,-0.25397 -0.38779,-3.15468 -0.51294,-6.44596 -0.21869,-5.75149 -0.19707,-5.99239 0.55615,-6.19432 1.52231,-0.40815 1.56928,-0.29289 1.46714,3.59942 -0.21221,8.08686 -0.6139,10.49136 -1.51035,9.04086 z"
         id="path8423" />
      <path
         style="fill:#ffffff;stroke:#000000;stroke-width:3.76174;stroke-linecap:round;stroke-linejoin:round;stroke-miterlimit:4;stroke-dasharray:0.376174, 0.376174;stroke-dashoffset:0;stroke-opacity:0.955017;paint-order:stroke markers fill"
         d="m 340.8438,258.74178 c -3.52022,-1.75419 -5.35084,-5.30516 -5.34652,-10.37103 0.003,-4.08228 0.81685,-6.73166 2.76562,-9.00838 1.71194,-2.00001 3.32823,-2.74708 5.94326,-2.74708 1.59163,0 2.24607,0.23241 3.63272,1.29002 0.93024,0.70954 2.10259,1.89977 2.60522,2.64499 l 0.91388,1.35496 -5.99981,1.95924 c -6.7319,2.19831 -7.34236,2.68351 -6.8277,5.42684 0.2145,1.1434 0.55837,1.59843 1.57391,2.08269 1.25941,0.60058 1.47123,0.56502 6.87302,-1.15368 l 5.57357,-1.7734 -0.2516,1.43134 c -1.02612,5.83779 -4.54541,9.84274 -8.65896,9.85391 -0.4426,0 -1.70107,-0.44448 -2.79661,-0.99042 z"
         id="path8462" />
      <path
         style="fill:#ffffff;stroke:#000000;stroke-width:3.76174;stroke-linecap:round;stroke-linejoin:round;stroke-miterlimit:4;stroke-dasharray:0.376174, 0.376174;stroke-dashoffset:0;stroke-opacity:0.955017;paint-order:stroke markers fill"
         d="m 343.16598,329.06737 c -3.00008,-0.63524 -5.62336,-3.44371 -7.02989,-7.52618 -0.59691,-1.73257 -0.76979,-6.03753 -0.32396,-8.06738 l 0.27681,-1.26029 2.75328,4.03079 c 3.72767,5.45724 4.0671,5.79408 5.8387,5.79408 1.73029,0 3.09493,-1.39088 3.09493,-3.15449 0,-1.03121 -5.20872,-9.50307 -7.13646,-11.60724 l -0.77974,-0.85114 1.31312,-0.69202 c 2.0153,-1.06209 4.90866,-0.92316 7.06263,0.33914 5.99503,3.51333 7.07983,14.88808 1.9464,20.40906 -1.89014,2.03282 -4.71313,3.07322 -7.01582,2.58567 z"
         id="path8540" />
      <path
         style="fill:#ffffff;stroke:#000000;stroke-width:3.76174;stroke-linecap:round;stroke-linejoin:round;stroke-miterlimit:4;stroke-dasharray:0.376174, 0.376174;stroke-dashoffset:0;stroke-opacity:0.955017;paint-order:stroke markers fill"
         d="m 343.7539,319.39343 c -0.33923,-0.37716 -1.96631,-2.61543 -3.61573,-4.97395 -2.63713,-3.77084 -2.94927,-4.39724 -2.58715,-5.192 0.22649,-0.4971 0.56117,-0.90379 0.74374,-0.90379 0.63017,0 1.98396,1.77866 4.74462,6.23369 2.13653,3.44781 2.67037,4.5906 2.33387,4.99607 -0.57547,0.6934 -0.87871,0.66342 -1.61935,-0.16002 z"
         id="path8579" />
      <path
         style="fill:#ffffff;stroke:#000000;stroke-width:4.94964;stroke-linecap:round;stroke-linejoin:round;stroke-miterlimit:4;stroke-dasharray:0.494964, 0.494964;stroke-dashoffset:0;stroke-opacity:0.955017;paint-order:stroke markers fill"
         d="m 314.50867,290.79163 v -58.26146 h 3.86447 3.86447 l 0.13134,52.46108 0.13134,52.46108 19.78984,0.1351 c 14.17878,0.0968 19.98968,-0.0308 20.49463,-0.44982 0.58745,-0.48755 0.70477,-9.24322 0.70477,-52.59618 v -52.01126 h 6.70265 6.70263 v 58.26146 58.26144 h -31.19306 -31.19308 z"
         id="path8735" />
      <path
         style="fill:#ffffff;stroke:#000000;stroke-width:4.94964;stroke-linecap:round;stroke-linejoin:round;stroke-miterlimit:4;stroke-dasharray:0.494964, 0.494964;stroke-dashoffset:0;stroke-opacity:0.955017;paint-order:stroke markers fill"
         d="m 314.50867,290.79163 v -58.26146 h 3.86447 3.86447 l 0.13134,52.46108 0.13134,52.46108 19.78984,0.1351 c 14.17878,0.0968 19.98968,-0.0308 20.49463,-0.44982 0.58745,-0.48755 0.70477,-9.24322 0.70477,-52.59618 v -52.01126 h 6.70265 6.70263 v 58.26146 58.26144 h -31.19306 -31.19308 z"
         id="path8774" />
      <path
         style="fill:#ffffff;stroke:#000000;stroke-width:4.94964;stroke-linecap:round;stroke-linejoin:round;stroke-miterlimit:4;stroke-dasharray:0.494964, 0.494964;stroke-dashoffset:0;stroke-opacity:0.955017;paint-order:stroke markers fill"
         d="m 314.50867,290.79163 v -58.26146 h 3.86447 3.86447 l 0.13134,52.46108 0.13134,52.46108 19.78984,0.1351 c 14.17878,0.0968 19.98968,-0.0308 20.49463,-0.44982 0.58745,-0.48755 0.70477,-9.24322 0.70477,-52.59618 v -52.01126 h 6.70265 6.70263 v 58.26146 58.26144 h -31.19306 -31.19308 z"
         id="path8776" />
      <path
         style="fill:#ffffff;stroke:#000000;stroke-width:4.94964;stroke-linecap:round;stroke-linejoin:round;stroke-miterlimit:4;stroke-dasharray:0.494964, 0.494964;stroke-dashoffset:0;stroke-opacity:0.955017;paint-order:stroke markers fill"
         d="m 314.50867,290.79163 v -58.26146 h 3.86447 3.86447 l 0.13134,52.46108 0.13134,52.46108 19.78984,0.1351 c 14.17878,0.0968 19.98968,-0.0308 20.49463,-0.44982 0.58745,-0.48755 0.70477,-9.24322 0.70477,-52.59618 v -52.01126 h 6.70265 6.70263 v 58.26146 58.26144 h -31.19306 -31.19308 z"
         id="path8778" />
      <path
         style="fill:#ffffff;stroke:#000000;stroke-width:14.2176;stroke-linecap:round;stroke-linejoin:round;stroke-miterlimit:4;stroke-dasharray:1.42176, 1.42176;stroke-dashoffset:0;stroke-opacity:0.955017;paint-order:stroke markers fill"
         d="m 1287.4465,940.96435 c -0.5679,-1.48001 0.1145,-3.20285 1.7394,-4.39096 2.9325,-2.14435 39.1389,-14.53754 39.9886,-13.68784 0.2899,0.28984 0.9554,2.23385 1.479,4.32002 0.9347,3.72414 0.5921,3.90568 -18.8576,9.99375 -22.4069,7.01375 -23.0638,7.11531 -24.3494,3.76503 z"
         id="path8936"
         transform="scale(0.26458333)" />
    </g>
  </g>
</svg>
