<?xml version="1.0" encoding="UTF-8" standalone="no"?>
<!-- Created with Inkscape (http://www.inkscape.org/) -->

<svg
   width="210mm"
   height="297mm"
   viewBox="0 0 210 297"
   version="1.1"
   id="svg5"
   inkscape:version="1.1 (c68e22c387, 2021-05-23)"
   sodipodi:docname="LV2 Plugin  icon svg.svg"
   xmlns:inkscape="http://www.inkscape.org/namespaces/inkscape"
   xmlns:sodipodi="http://sodipodi.sourceforge.net/DTD/sodipodi-0.dtd"
   xmlns="http://www.w3.org/2000/svg"
   xmlns:svg="http://www.w3.org/2000/svg">
  <sodipodi:namedview
     id="namedview7"
     pagecolor="#ffffff"
     bordercolor="#666666"
     borderopacity="1.0"
     inkscape:pageshadow="2"
     inkscape:pageopacity="0.0"
     inkscape:pagecheckerboard="0"
     inkscape:document-units="mm"
     showgrid="false"
     inkscape:zoom="0.41053452"
     inkscape:cx="526.14333"
     inkscape:cy="744.1518"
     inkscape:window-width="1680"
     inkscape:window-height="956"
     inkscape:window-x="-11"
     inkscape:window-y="-11"
     inkscape:window-maximized="1"
     inkscape:current-layer="layer1" />
  <defs
     id="defs2">
    <inkscape:path-effect
       effect="skeletal"
       id="path-effect2482"
       is_visible="true"
       lpeversion="1"
       pattern="M 0,0 H 1"
       copytype="repeated_stretched"
       prop_scale="1"
       scale_y_rel="false"
       spacing="0"
       normal_offset="0"
       tang_offset="0"
       prop_units="false"
       vertical_pattern="false"
       hide_knot="false"
       fuse_tolerance="0" />
    <inkscape:path-effect
       effect="skeletal"
       id="path-effect1930"
       is_visible="true"
       lpeversion="1"
       pattern="M 0,0 H 1"
       copytype="repeated_stretched"
       prop_scale="1"
       scale_y_rel="false"
       spacing="0"
       normal_offset="0"
       tang_offset="0"
       prop_units="false"
       vertical_pattern="false"
       hide_knot="false"
       fuse_tolerance="0" />
    <inkscape:path-effect
       effect="skeletal"
       id="path-effect1566"
       is_visible="true"
       lpeversion="1"
       pattern="M 0,4.9921382 C 0,2.2364779 2.2364779,0 4.9921382,0 c 2.7556604,0 4.9921383,2.2364779 4.9921383,4.9921382 0,2.7556604 -2.2364779,4.9921383 -4.9921383,4.9921383 C 2.2364779,9.9842765 0,7.7477986 0,4.9921382 Z"
       copytype="single_stretched"
       prop_scale="9"
       scale_y_rel="false"
       spacing="0"
       normal_offset="0"
       tang_offset="0"
       prop_units="false"
       vertical_pattern="false"
       hide_knot="false"
       fuse_tolerance="0" />
    <inkscape:path-effect
       effect="skeletal"
       id="path-effect1560"
       is_visible="true"
       lpeversion="1"
       pattern="M 0,4.9921382 C 0,2.2364779 2.2364779,0 4.9921382,0 c 2.7556604,0 4.9921383,2.2364779 4.9921383,4.9921382 0,2.7556604 -2.2364779,4.9921383 -4.9921383,4.9921383 C 2.2364779,9.9842765 0,7.7477986 0,4.9921382 Z"
       copytype="single_stretched"
       prop_scale="12.5"
       scale_y_rel="false"
       spacing="0"
       normal_offset="0"
       tang_offset="0"
       prop_units="false"
       vertical_pattern="false"
       hide_knot="false"
       fuse_tolerance="0" />
    <inkscape:path-effect
       effect="skeletal"
       id="path-effect3161"
       is_visible="true"
       lpeversion="1"
       pattern="m 182.71133,36.816874 0.27078,28.580167 24.64656,-14.536578 z m -38.1894,6.580476 v 17.728634 h 31.32522 V 43.39735 Z"
       copytype="repeated"
       prop_scale="1"
       scale_y_rel="false"
       spacing="5.8"
       normal_offset="0"
       tang_offset="1.5"
       prop_units="false"
       vertical_pattern="false"
       hide_knot="false"
       fuse_tolerance="0" />
    <inkscape:path-effect
       effect="skeletal"
       id="path-effect2910"
       is_visible="true"
       lpeversion="1"
       pattern="m 182.71133,36.816874 0.27078,28.580167 24.64656,-14.536578 z m -38.1894,6.580476 v 17.728634 h 31.32522 V 43.39735 Z"
       copytype="repeated"
       prop_scale="1"
       scale_y_rel="false"
       spacing="4.6"
       normal_offset="0.3"
       tang_offset="0"
       prop_units="false"
       vertical_pattern="false"
       hide_knot="false"
       fuse_tolerance="0" />
  </defs>
  <g
     inkscape:label="Layer 1"
     inkscape:groupmode="layer"
     id="layer1">
    <path
       id="path2833"
       style="fill:none;stroke:#000000;stroke-width:1.7024;stroke-linecap:round;stroke-linejoin:round;stroke-dashoffset:16.32;stroke-opacity:0.955017;paint-order:stroke markers fill"
       d="m 125.927,62.359283 -0.35132,-0.26277 c -2.82204,-2.11073 -7.05737,-1.84376 -9.49624,0.59859 l -15.18037,15.20201 c -2.438879,2.44235 -2.130399,6.10784 0.69164,8.21858 l 0.35131,0.26276 c 2.82204,2.11074 7.05737,1.84377 9.49625,-0.59858 l 15.18037,-15.20202 c 2.43887,-2.44235 2.13041,-6.10784 -0.69164,-8.21857 z m -5.871,-20.94868 -0.35131,-0.26275 c -2.82205,-2.11074 -7.05738,-1.84378 -9.49625,0.59858 l -15.180369,15.20201 c -2.43887,2.44236 -2.1304,6.10784 0.69164,8.21858 l 0.35131,0.26275 c 2.82205,2.11075 7.057369,1.84378 9.496249,-0.59858 l 15.18037,-15.20201 c 2.43887,-2.44235 2.1304,-6.10783 -0.69164,-8.21858 z m -20.164989,-22.1323 -0.43277,-0.14559 c -3.47648,-1.16956 -7.36315,0.31107 -8.71453,3.3198 l -8.41143,18.7273 c -1.35138,3.00873 0.35943,6.37248 3.83589,7.54204 l 0.43278,0.14559 c 3.47647,1.16955 7.36314,-0.31107 8.71453,-3.3198 l 8.411429,-18.72731 c 1.35138,-3.00873 -0.35943,-6.37247 -3.835899,-7.54203 z m -93.3830405,44.23746 0.35131,-0.26277 c 2.822042,-2.11074 7.0573755,-1.84376 9.4962485,0.59859 l 15.180368,15.20201 c 2.438874,2.44235 2.130398,6.10784 -0.69164,8.21858 l -0.35131,0.26276 c -2.822047,2.11074 -7.057375,1.84377 -9.496248,-0.59858 L 5.8163315,71.734333 c -2.438874,-2.44235 -2.130407,-6.10784 0.691639,-8.21857 z m 5.8710025,-20.94868 0.351308,-0.26276 c 2.822045,-2.11073 7.057371,-1.84377 9.496249,0.59859 l 15.18036,15.20201 c 2.438882,2.44235 2.130406,6.10784 -0.691641,8.21857 l -0.351307,0.26276 c -2.822041,2.11074 -7.057369,1.84377 -9.496247,-0.59858 L 11.687332,50.785663 c -2.4388775,-2.44235 -2.1304035,-6.10784 0.691641,-8.21858 z m 20.164979,-22.1323 0.432776,-0.1456 c 3.476471,-1.16955 7.363145,0.31108 8.714526,3.3198 l 8.411437,18.72731 c 1.35138,3.00873 -0.35943,6.37247 -3.83589,7.54203 l -0.43278,0.1456 c -3.476478,1.16955 -7.363152,-0.31107 -8.714534,-3.3198 l -8.411432,-18.72731 c -1.351381,-3.00873 0.359432,-6.37247 3.835897,-7.54203 z m 49.425329,-1.5531 a 15.168991,13.931777 0 0 1 -15.16898,13.93177 15.168991,13.931777 0 0 1 -15.169,-13.93177 15.168991,13.931777 0 0 1 15.169,-13.9317796 15.168991,13.931777 0 0 1 15.16898,13.9317796 z" />
    <path
       id="path3015"
       style="fill:#000000;stroke:#000000;stroke-width:1.7024;stroke-linecap:round;stroke-linejoin:round;stroke-dashoffset:16.32;stroke-opacity:0.955017;paint-order:stroke markers fill"
       d="m 136.88325,162.89894 -0.35132,-0.26277 c -2.82204,-2.11073 -7.05737,-1.84376 -9.49624,0.59859 l -15.18037,15.20201 c -2.43888,2.44235 -2.1304,6.10784 0.69164,8.21858 l 0.35131,0.26276 c 2.82204,2.11074 7.05737,1.84377 9.49625,-0.59858 l 15.18037,-15.20202 c 2.43887,-2.44235 2.13041,-6.10784 -0.69164,-8.21857 z m -5.871,-20.94868 -0.35131,-0.26275 c -2.82205,-2.11074 -7.05738,-1.84378 -9.49625,0.59858 l -15.18037,15.20201 c -2.43887,2.44236 -2.1304,6.10784 0.69164,8.21858 l 0.35131,0.26275 c 2.82205,2.11075 7.05737,1.84378 9.49625,-0.59858 l 15.18037,-15.20201 c 2.43887,-2.44235 2.1304,-6.10783 -0.69164,-8.21858 z m -20.16499,-22.1323 -0.43277,-0.14559 c -3.47648,-1.16956 -7.36315,0.31107 -8.71453,3.3198 l -8.411434,18.7273 c -1.35138,3.00873 0.35943,6.37248 3.83589,7.54204 l 0.43278,0.14559 c 3.476474,1.16955 7.363144,-0.31107 8.714534,-3.3198 l 8.41143,-18.72731 c 1.35138,-3.00873 -0.35943,-6.37247 -3.8359,-7.54203 z m -93.383045,44.23746 0.35131,-0.26277 c 2.822042,-2.11074 7.057376,-1.84376 9.496249,0.59859 l 15.180368,15.20201 c 2.438874,2.44235 2.130398,6.10784 -0.69164,8.21858 l -0.35131,0.26276 c -2.822047,2.11074 -7.057375,1.84377 -9.496248,-0.59858 L 16.772576,172.27399 c -2.438874,-2.44235 -2.130407,-6.10784 0.691639,-8.21857 z m 5.871003,-20.94868 0.351308,-0.26276 c 2.822045,-2.11073 7.057371,-1.84377 9.496249,0.59859 l 15.18036,15.20201 c 2.438882,2.44235 2.130406,6.10784 -0.691641,8.21857 l -0.351307,0.26276 c -2.822041,2.11074 -7.057369,1.84377 -9.496247,-0.59858 L 22.643577,151.32532 c -2.438878,-2.44235 -2.130404,-6.10784 0.691641,-8.21858 z m 20.164979,-22.1323 0.432776,-0.1456 c 3.476471,-1.16955 7.363145,0.31108 8.714526,3.3198 l 8.411437,18.72731 c 1.35138,3.00873 -0.35943,6.37247 -3.83589,7.54203 l -0.43278,0.1456 c -3.476478,1.16955 -7.363152,-0.31107 -8.714534,-3.3198 L 39.6643,128.51647 c -1.351381,-3.00873 0.359432,-6.37247 3.835897,-7.54203 z m 49.425329,-1.5531 a 15.168991,13.931777 0 0 1 -15.16898,13.93177 15.168991,13.931777 0 0 1 -15.169,-13.93177 15.168991,13.931777 0 0 1 15.169,-13.93178 15.168991,13.931777 0 0 1 15.16898,13.93178 z" />
    <g
       id="g3627">
      <path
         id="path3171"
         style="fill:none;stroke:#000000;stroke-width:1.7024;stroke-linecap:round;stroke-linejoin:round;stroke-dashoffset:16.32;stroke-opacity:0.955017;paint-order:stroke markers fill"
         d="m 136.88324,242.81508 -0.35132,-0.26277 c -2.82204,-2.11073 -7.05737,-1.84376 -9.49624,0.59859 l -15.18037,15.20201 c -2.43887,2.44235 -2.13039,6.10784 0.69164,8.21858 l 0.35131,0.26276 c 2.82204,2.11074 7.05737,1.84377 9.49625,-0.59858 l 15.18037,-15.20202 c 2.43887,-2.44235 2.13041,-6.10784 -0.69164,-8.21857 z m -5.871,-20.94868 -0.35131,-0.26275 c -2.82205,-2.11074 -7.05738,-1.84378 -9.49625,0.59858 l -15.18036,15.20201 c -2.43887,2.44236 -2.1304,6.10784 0.69164,8.21858 l 0.35131,0.26275 c 2.82205,2.11075 7.05736,1.84378 9.49624,-0.59858 l 15.18037,-15.20201 c 2.43887,-2.44235 2.1304,-6.10783 -0.69164,-8.21858 z m -20.16498,-22.1323 -0.43277,-0.14559 c -3.47648,-1.16956 -7.36315,0.31107 -8.71453,3.3198 l -8.411434,18.7273 c -1.35138,3.00873 0.35943,6.37248 3.83589,7.54204 l 0.43278,0.14559 c 3.476474,1.16955 7.363144,-0.31107 8.714534,-3.3198 l 8.41142,-18.72731 c 1.35138,-3.00873 -0.35943,-6.37247 -3.83589,-7.54203 z m -93.383045,44.23746 0.35131,-0.26277 c 2.822042,-2.11074 7.057376,-1.84376 9.496249,0.59859 l 15.180368,15.20201 c 2.438874,2.44235 2.130398,6.10784 -0.69164,8.21858 l -0.35131,0.26276 c -2.822047,2.11074 -7.057375,1.84377 -9.496248,-0.59858 L 16.772576,252.19013 c -2.438874,-2.44235 -2.130407,-6.10784 0.691639,-8.21857 z m 5.871003,-20.94868 0.351308,-0.26276 c 2.822045,-2.11073 7.057371,-1.84377 9.496249,0.59859 l 15.18036,15.20201 c 2.438882,2.44235 2.130406,6.10784 -0.691641,8.21857 l -0.351307,0.26276 c -2.822041,2.11074 -7.057369,1.84377 -9.496247,-0.59858 L 22.643577,231.24146 c -2.438878,-2.44235 -2.130404,-6.10784 0.691641,-8.21858 z m 20.164979,-22.1323 0.432776,-0.1456 c 3.476471,-1.16955 7.363145,0.31108 8.714526,3.3198 l 8.411437,18.72731 c 1.35138,3.00873 -0.35943,6.37247 -3.83589,7.54203 l -0.43278,0.1456 c -3.476478,1.16955 -7.363152,-0.31107 -8.714534,-3.3198 L 39.6643,208.43261 c -1.351381,-3.00873 0.359432,-6.37247 3.835897,-7.54203 z m 49.425329,-1.5531 a 15.168991,13.931777 0 0 1 -15.16898,13.93177 15.168991,13.931777 0 0 1 -15.169,-13.93177 15.168991,13.931777 0 0 1 15.169,-13.93178 15.168991,13.931777 0 0 1 15.16898,13.93178 z" />
      <path
         style="fill:#ffffff;stroke:#000000;stroke-width:23.3841;stroke-linecap:round;stroke-linejoin:round;stroke-dashoffset:16.32;stroke-opacity:0.955017;paint-order:stroke markers fill"
         d="M 95.699957,978.50934 C 76.557901,959.36729 60.896219,941.74486 60.896219,939.34839 c 0,-2.39647 3.204078,-7.56129 7.120173,-11.47739 5.342476,-5.34247 9.404768,-7.12017 16.27061,-7.12017 8.510924,0 11.488625,2.34078 42.606288,33.49292 18.40071,18.42111 34.17409,35.96715 35.05195,38.99121 2.48455,8.55874 -10.25941,20.07814 -22.21263,20.07814 -8.62681,0 -11.49955,-2.2706 -44.032653,-34.80376 z"
         id="path3247"
         transform="scale(0.26458333)" />
      <path
         style="fill:#ffffff;stroke:#000000;stroke-width:23.3841;stroke-linecap:round;stroke-linejoin:round;stroke-dashoffset:16.32;stroke-opacity:0.955017;paint-order:stroke markers fill"
         d="m 154.6764,933.01084 c -4.91331,-2.06376 -71.857542,-68.59094 -71.857542,-71.40988 0,-10.82622 17.373902,-22.90293 28.817012,-20.03089 7.85713,1.97201 67.12003,59.94285 71.09897,69.54885 3.7084,8.95287 -0.18257,16.22727 -11.12533,20.79944 -9.30225,3.88673 -10.15041,3.94145 -16.93311,1.09248 z"
         id="path3286"
         transform="scale(0.26458333)" />
      <path
         style="fill:#ffffff;stroke:#000000;stroke-width:23.3841;stroke-linecap:round;stroke-linejoin:round;stroke-dashoffset:16.32;stroke-opacity:0.955017;paint-order:stroke markers fill"
         d="m 190.65392,861.6815 c -6.58289,-7.12567 -37.19545,-75.69075 -37.19545,-83.30924 0,-12.54961 23.54802,-21.03225 34.76306,-12.5226 3.76584,2.8574 34.87314,67.1522 39.41814,81.47222 1.25095,3.94141 -0.15831,7.08836 -5.62032,12.55036 -9.34531,9.34531 -23.64157,10.16997 -31.36543,1.80926 z"
         id="path3325"
         transform="scale(0.26458333)" />
      <path
         style="fill:#ffffff;stroke:#000000;stroke-width:23.3841;stroke-linecap:round;stroke-linejoin:round;stroke-dashoffset:16.32;stroke-opacity:0.955017;paint-order:stroke markers fill"
         d="m 274.33689,797.81572 c -28.96036,-10.32289 -41.36465,-44.69503 -25.03479,-69.37111 27.03038,-40.84567 96.39196,-22.46676 96.54835,25.58265 0.10773,33.09806 -37.28003,55.99095 -71.51356,43.78846 z"
         id="path3364"
         transform="scale(0.26458333)" />
      <path
         style="fill:#ffffff;stroke:#000000;stroke-width:23.3841;stroke-linecap:round;stroke-linejoin:round;stroke-dashoffset:16.32;stroke-opacity:0.955017;paint-order:stroke markers fill"
         d="m 370.2991,861.98511 c -8.74925,-3.45795 -14.66518,-9.49015 -14.66518,-14.95341 0,-7.8458 34.52842,-82.1977 39.92842,-85.98001 10.7324,-7.51727 30.45397,-1.2101 34.32184,10.9765 1.97377,6.21879 -32.20606,82.47147 -38.83319,86.63399 -7.77821,4.88551 -14.1975,5.91341 -20.75189,3.32293 z"
         id="path3403"
         transform="scale(0.26458333)" />
      <path
         style="fill:#ffffff;stroke:#000000;stroke-width:23.3841;stroke-linecap:round;stroke-linejoin:round;stroke-dashoffset:16.32;stroke-opacity:0.955017;paint-order:stroke markers fill"
         d="m 407.26095,924.42983 c -13.37956,-11.25816 -11.52741,-15.28818 23.27532,-50.64401 34.98538,-35.54138 42.40662,-40.22839 55.21949,-34.87483 9.549,3.98983 14.61252,11.72426 12.66373,19.34361 -0.73906,2.88958 -15.95088,19.80957 -33.80404,37.59998 -37.31657,37.18539 -43.47532,40.25382 -57.3545,28.57525 z"
         id="path3442"
         transform="scale(0.26458333)" />
      <path
         style="fill:#ffffff;stroke:#000000;stroke-width:23.3841;stroke-linecap:round;stroke-linejoin:round;stroke-dashoffset:16.32;stroke-opacity:0.955017;paint-order:stroke markers fill"
         d="m 427.38074,1002.4625 c -10.84234,-10.84235 -8.71457,-14.66675 28.9207,-51.98123 38.87965,-38.54825 42.92486,-40.53976 57.47576,-28.29598 13.33288,11.21887 11.34857,15.22382 -26.09464,52.66702 -32.63859,32.63859 -33.88243,33.58909 -43.956,33.58909 -7.75906,0 -11.87095,-1.504 -16.34582,-5.9789 z"
         id="path3481"
         transform="scale(0.26458333)" />
    </g>
  </g>
</svg>
