<?xml version="1.0" encoding="UTF-8" standalone="no"?>
<svg
   width="210mm"
   height="297mm"
   viewBox="0 0 210 297"
   version="1.1"
   id="svg8"
   inkscape:version="1.1.2 (0a00cf5339, 2022-02-04, custom)"
   sodipodi:docname="gate plugin icon.svg"
   inkscape:export-filename="C:\Users\steven\Desktop\formating icons\author tage icon.png"
   inkscape:export-xdpi="96"
   inkscape:export-ydpi="96"
   xmlns:inkscape="http://www.inkscape.org/namespaces/inkscape"
   xmlns:sodipodi="http://sodipodi.sourceforge.net/DTD/sodipodi-0.dtd"
   xmlns="http://www.w3.org/2000/svg"
   xmlns:svg="http://www.w3.org/2000/svg"
   xmlns:rdf="http://www.w3.org/1999/02/22-rdf-syntax-ns#"
   xmlns:cc="http://creativecommons.org/ns#"
   xmlns:dc="http://purl.org/dc/elements/1.1/">
  <defs
     id="defs2">
    <inkscape:path-effect
       effect="spiro"
       id="path-effect3425"
       is_visible="true"
       lpeversion="1" />
    <inkscape:path-effect
       effect="spiro"
       id="path-effect3339"
       is_visible="true"
       lpeversion="1" />
    <inkscape:path-effect
       effect="spiro"
       id="path-effect2643"
       is_visible="true"
       lpeversion="1" />
    <inkscape:path-effect
       effect="spiro"
       id="path-effect2639"
       is_visible="true"
       lpeversion="1" />
    <inkscape:path-effect
       effect="spiro"
       id="path-effect2565"
       is_visible="true"
       lpeversion="1" />
    <inkscape:path-effect
       effect="spiro"
       id="path-effect2559"
       is_visible="true"
       lpeversion="1" />
    <inkscape:path-effect
       effect="spiro"
       id="path-effect2553"
       is_visible="true"
       lpeversion="1" />
    <inkscape:path-effect
       effect="spiro"
       id="path-effect2467"
       is_visible="true"
       lpeversion="1" />
    <inkscape:path-effect
       effect="spiro"
       id="path-effect2270"
       is_visible="true"
       lpeversion="1" />
    <inkscape:path-effect
       effect="spiro"
       id="path-effect2073"
       is_visible="true"
       lpeversion="1" />
    <inkscape:path-effect
       effect="spiro"
       id="path-effect1432"
       is_visible="true"
       lpeversion="1" />
    <inkscape:path-effect
       effect="spiro"
       id="path-effect1262"
       is_visible="true"
       lpeversion="1" />
    <inkscape:path-effect
       effect="spiro"
       id="path-effect10224"
       is_visible="true"
       lpeversion="1" />
    <inkscape:path-effect
       effect="spiro"
       id="path-effect9870"
       is_visible="true"
       lpeversion="1" />
    <inkscape:path-effect
       effect="spiro"
       id="path-effect5405"
       is_visible="true"
       lpeversion="1" />
    <inkscape:path-effect
       effect="spiro"
       id="path-effect1333"
       is_visible="true"
       lpeversion="1" />
    <inkscape:path-effect
       effect="spiro"
       id="path-effect1243"
       is_visible="true"
       lpeversion="1" />
  </defs>
  <sodipodi:namedview
     id="base"
     pagecolor="#ffffff"
     bordercolor="#666666"
     borderopacity="1.0"
     inkscape:pageopacity="0.0"
     inkscape:pageshadow="2"
     inkscape:zoom="1.4254587"
     inkscape:cx="556.66292"
     inkscape:cy="953.02656"
     inkscape:document-units="mm"
     inkscape:current-layer="layer4"
     inkscape:document-rotation="0"
     showgrid="false"
     inkscape:window-width="1680"
     inkscape:window-height="956"
     inkscape:window-x="-11"
     inkscape:window-y="-11"
     inkscape:window-maximized="1"
     inkscape:pagecheckerboard="0" />
  <metadata
     id="metadata5">
    <rdf:RDF>
      <cc:Work
         rdf:about="">
        <dc:format>image/svg+xml</dc:format>
        <dc:type
           rdf:resource="http://purl.org/dc/dcmitype/StillImage" />
      </cc:Work>
    </rdf:RDF>
  </metadata>
  <g
     inkscape:label="Layer 1"
     inkscape:groupmode="layer"
     id="layer1">
    <g
       id="g3542"
       transform="matrix(0.6101702,0,0,0.9879167,6.4826523,0.026734)">
      <g
         id="g3467"
         transform="matrix(0.47228044,0,0,0.42546119,8.6922054,-1.6746388)">
        <g
           id="g3147"
           transform="matrix(1,0,0.01393298,1,6.3620268,9.9796741)">
          <path
             id="path1826"
             style="fill:none;fill-rule:evenodd;stroke:#000000;stroke-width:1.32207;stroke-linecap:round;stroke-linejoin:round;paint-order:stroke markers fill"
             d="M 93.215769,158.90018 A 20.641219,19.606493 0 0 1 72.57455,178.50669 20.641219,19.606493 0 0 1 51.93333,158.90018 20.641219,19.606493 0 0 1 72.57455,139.2937 20.641219,19.606493 0 0 1 93.215769,158.90018 Z m -13.461668,-0.93364 a 7.4039152,8.9629678 0 0 1 -7.403916,8.96296 7.4039152,8.9629678 0 0 1 -7.403914,-8.96296 7.4039152,8.9629678 0 0 1 7.403914,-8.96296 7.4039152,8.9629678 0 0 1 7.403916,8.96296 z m 27.372039,-0.56018 a 35.000327,28.196002 0 0 1 -35.000311,28.19599 35.000327,28.196002 0 0 1 -35.000327,-28.19599 35.000327,28.196002 0 0 1 35.000327,-28.19601 35.000327,28.196002 0 0 1 35.000311,28.19601 z" />
          <g
             id="g3099">
            <path
               id="ellipse2036"
               style="fill:none;fill-rule:evenodd;stroke:#000000;stroke-width:1.813;stroke-linecap:round;stroke-linejoin:round;paint-order:stroke markers fill"
               d="M 90.300251,80.744637 A 26.339611,24.525124 0 0 1 63.96064,105.26976 26.339611,24.525124 0 0 1 37.621029,80.744637 26.339611,24.525124 0 0 1 63.96064,56.219513 26.339611,24.525124 0 0 1 90.300251,80.744637 Z M 78.476527,80.971443 A 15.649943,16.557186 0 0 1 62.826584,97.528629 15.649943,16.557186 0 0 1 47.176641,80.971443 15.649943,16.557186 0 0 1 62.826584,64.414257 15.649943,16.557186 0 0 1 78.476527,80.971443 Z" />
            <path
               style="color:#000000;fill:#000000;-inkscape-stroke:none"
               d="m 44.345703,64.636719 -1.197266,0.648437 5.042969,9.339844 1.199219,-0.648438 z"
               id="path2465" />
            <path
               style="color:#000000;fill:#000000;-inkscape-stroke:none"
               d="m 81.529297,64.636719 -5.042969,9.339843 1.197266,0.648438 5.044922,-9.339844 z"
               id="path2549" />
            <path
               style="color:#000000;fill:#000000;-inkscape-stroke:none"
               d="m 53.199219,92.882812 -9.238282,5.226563 0.669922,1.185547 9.240235,-5.226563 z"
               id="path2795" />
            <path
               style="color:#000000;fill:#000000;-inkscape-stroke:none"
               d="m 77.287109,88.867187 -1.185547,0.669922 5.226563,9.238282 1.185547,-0.669922 z"
               id="path2561" />
          </g>
          <path
             id="path2641"
             style="color:#000000;fill:#000000;stroke-width:0.741401;-inkscape-stroke:none"
             d="m 38.739262,196.02514 c -1.23925,4.20869 0.457163,8.65261 4.662865,12.21451 4.205701,3.56191 10.854204,6.18676 18.275325,7.21364 7.421122,1.02688 15.498989,0.43999 22.201438,-1.61252 6.702448,-2.05252 11.924364,-5.53939 14.35503,-9.58321 1.436997,-2.39071 1.91355,-4.95606 1.384316,-7.46022 l -1.44442,0.0952 c 0.503819,2.3839 0.04958,4.83178 -1.318398,7.10765 -2.310801,3.84442 -7.304516,7.17769 -13.676442,9.12899 -6.371925,1.95129 -14.095439,2.51306 -21.150597,1.53681 -7.055158,-0.97624 -13.414248,-3.48562 -17.412551,-6.87188 -3.998302,-3.38625 -5.619976,-7.63584 -4.441838,-11.63699 z m 0.734814,-0.33959 -0.03296,0.81113 59.438431,0.75381 0.03296,-0.81114 z m -21.447918,24.53035 -0.02171,2.16757 103.684832,4.70558 0.0217,-2.17047 z M 120.00261,82.804939 l -1.01634,0.06945 2.20502,143.167051 1.0177,-0.0723 z m -7.82002,-46.300448 c -1.09082,-0.146823 -2.19123,0.0034 -3.26479,0.457245 -2.1471,0.907727 -4.17392,3.020398 -5.82939,6.07442 l 0.66625,1.640875 c 1.51982,-2.80376 3.39009,-4.751998 5.36126,-5.585341 1.97116,-0.833343 4.04919,-0.55364 5.95558,0.801627 1.9064,1.355267 3.64698,3.788304 4.98946,6.977335 1.34248,3.18903 2.29087,7.142026 2.71794,11.329848 0.4356,4.27132 0.32972,8.801189 -0.30259,12.959149 -0.63231,4.157961 -1.79231,7.956673 -3.32043,10.86971 l 0.67712,1.620617 c 1.66463,-3.173275 2.92337,-7.289509 3.61216,-11.818929 0.6888,-4.529418 0.80288,-9.437784 0.32837,-14.090686 -0.46519,-4.561622 -1.49309,-8.845905 -2.9554,-12.319583 -1.46231,-3.47368 -3.34848,-6.111724 -5.42503,-7.587959 -1.03828,-0.738119 -2.1197,-1.181503 -3.21051,-1.328328 z m -75.871719,1.562738 -0.03392,2.167574 67.127619,4.705579 0.0339,-2.167576 z M 19.71283,78.099363 17.506452,221.26351 l 1.017702,0.0723 2.205021,-143.164153 z m 7.820022,-46.300449 c -1.090816,0.146822 -2.172232,0.59021 -3.210511,1.328326 -2.076556,1.476235 -3.962718,4.117178 -5.425029,7.590855 -1.462311,3.473678 -2.490213,7.75507 -2.955407,12.316689 -0.474503,4.652901 -0.360415,9.561268 0.328379,14.090686 0.688793,4.529419 1.947526,8.645654 3.612163,11.818928 l 0.677111,-1.617723 C 19.031437,74.413639 17.871441,70.612034 17.239136,66.454072 16.60683,62.296109 16.50095,57.769137 16.936539,53.497817 c 0.427074,-4.187821 1.375459,-8.140818 2.717942,-11.329848 1.342484,-3.189031 3.08306,-5.624963 4.989454,-6.98023 1.906395,-1.355265 3.984431,-1.634969 5.955593,-0.801626 1.97116,0.833344 3.841428,2.781579 5.361253,5.585341 l 0.666256,-1.640875 C 34.971555,35.27656 32.944744,33.163884 30.79764,32.25616 29.724088,31.802297 28.623668,31.652088 27.532852,31.798914 Z" />
        </g>
        <rect
           style="fill:none;fill-rule:evenodd;stroke:#000000;stroke-width:1.48779;stroke-linecap:round;stroke-linejoin:round;stroke-miterlimit:4;stroke-dasharray:none;paint-order:stroke markers fill"
           id="rect3222"
           width="127.89849"
           height="221.79814"
           x="17.249014"
           y="23.599716"
           ry="14.542159" />
        <path
           style="color:#000000;fill:#000000;-inkscape-stroke:none"
           d="m 137.76172,25.763672 -19.37305,20.326172 1.10742,1.05664 19.37305,-20.326172 z"
           id="path3337" />
        <path
           style="color:#000000;fill:#000000;-inkscape-stroke:none"
           d="m 23.322266,25.251953 -0.857422,0.603516 11.402343,16.193359 0.857422,-0.603516 z"
           id="path3421" />
      </g>
      <g
         id="g3493"
         transform="matrix(0.47228044,0,0,0.42546119,80.129749,-1.6746388)">
        <g
           id="g3485"
           transform="matrix(1,0,0.01393298,1,6.3620268,9.9796741)">
          <path
             id="path3469"
             style="fill:none;fill-rule:evenodd;stroke:#000000;stroke-width:1.32207;stroke-linecap:round;stroke-linejoin:round;paint-order:stroke markers fill"
             d="M 93.215769,158.90018 A 20.641219,19.606493 0 0 1 72.57455,178.50669 20.641219,19.606493 0 0 1 51.93333,158.90018 20.641219,19.606493 0 0 1 72.57455,139.2937 20.641219,19.606493 0 0 1 93.215769,158.90018 Z m -13.461668,-0.93364 a 7.4039152,8.9629678 0 0 1 -7.403916,8.96296 7.4039152,8.9629678 0 0 1 -7.403914,-8.96296 7.4039152,8.9629678 0 0 1 7.403914,-8.96296 7.4039152,8.9629678 0 0 1 7.403916,8.96296 z m 27.372039,-0.56018 a 35.000327,28.196002 0 0 1 -35.000311,28.19599 35.000327,28.196002 0 0 1 -35.000327,-28.19599 35.000327,28.196002 0 0 1 35.000327,-28.19601 35.000327,28.196002 0 0 1 35.000311,28.19601 z" />
          <g
             id="g3481">
            <path
               id="path3471"
               style="fill:none;fill-rule:evenodd;stroke:#000000;stroke-width:1.813;stroke-linecap:round;stroke-linejoin:round;paint-order:stroke markers fill"
               d="M 90.300251,80.744637 A 26.339611,24.525124 0 0 1 63.96064,105.26976 26.339611,24.525124 0 0 1 37.621029,80.744637 26.339611,24.525124 0 0 1 63.96064,56.219513 26.339611,24.525124 0 0 1 90.300251,80.744637 Z M 78.476527,80.971443 A 15.649943,16.557186 0 0 1 62.826584,97.528629 15.649943,16.557186 0 0 1 47.176641,80.971443 15.649943,16.557186 0 0 1 62.826584,64.414257 15.649943,16.557186 0 0 1 78.476527,80.971443 Z" />
            <path
               style="color:#000000;fill:#000000;-inkscape-stroke:none"
               d="m 44.345703,64.636719 -1.197266,0.648437 5.042969,9.339844 1.199219,-0.648438 z"
               id="path3473" />
            <path
               style="color:#000000;fill:#000000;-inkscape-stroke:none"
               d="m 81.529297,64.636719 -5.042969,9.339843 1.197266,0.648438 5.044922,-9.339844 z"
               id="path3475" />
            <path
               style="color:#000000;fill:#000000;-inkscape-stroke:none"
               d="m 53.199219,92.882812 -9.238282,5.226563 0.669922,1.185547 9.240235,-5.226563 z"
               id="path3477" />
            <path
               style="color:#000000;fill:#000000;-inkscape-stroke:none"
               d="m 77.287109,88.867187 -1.185547,0.669922 5.226563,9.238282 1.185547,-0.669922 z"
               id="path3479" />
          </g>
          <path
             id="path3483"
             style="color:#000000;fill:#000000;stroke-width:0.741401;-inkscape-stroke:none"
             d="m 38.739262,196.02514 c -1.23925,4.20869 0.457163,8.65261 4.662865,12.21451 4.205701,3.56191 10.854204,6.18676 18.275325,7.21364 7.421122,1.02688 15.498989,0.43999 22.201438,-1.61252 6.702448,-2.05252 11.924364,-5.53939 14.35503,-9.58321 1.436997,-2.39071 1.91355,-4.95606 1.384316,-7.46022 l -1.44442,0.0952 c 0.503819,2.3839 0.04958,4.83178 -1.318398,7.10765 -2.310801,3.84442 -7.304516,7.17769 -13.676442,9.12899 -6.371925,1.95129 -14.095439,2.51306 -21.150597,1.53681 -7.055158,-0.97624 -13.414248,-3.48562 -17.412551,-6.87188 -3.998302,-3.38625 -5.619976,-7.63584 -4.441838,-11.63699 z m 0.734814,-0.33959 -0.03296,0.81113 59.438431,0.75381 0.03296,-0.81114 z m -21.447918,24.53035 -0.02171,2.16757 103.684832,4.70558 0.0217,-2.17047 z M 120.00261,82.804939 l -1.01634,0.06945 2.20502,143.167051 1.0177,-0.0723 z m -7.82002,-46.300448 c -1.09082,-0.146823 -2.19123,0.0034 -3.26479,0.457245 -2.1471,0.907727 -4.17392,3.020398 -5.82939,6.07442 l 0.66625,1.640875 c 1.51982,-2.80376 3.39009,-4.751998 5.36126,-5.585341 1.97116,-0.833343 4.04919,-0.55364 5.95558,0.801627 1.9064,1.355267 3.64698,3.788304 4.98946,6.977335 1.34248,3.18903 2.29087,7.142026 2.71794,11.329848 0.4356,4.27132 0.32972,8.801189 -0.30259,12.959149 -0.63231,4.157961 -1.79231,7.956673 -3.32043,10.86971 l 0.67712,1.620617 c 1.66463,-3.173275 2.92337,-7.289509 3.61216,-11.818929 0.6888,-4.529418 0.80288,-9.437784 0.32837,-14.090686 -0.46519,-4.561622 -1.49309,-8.845905 -2.9554,-12.319583 -1.46231,-3.47368 -3.34848,-6.111724 -5.42503,-7.587959 -1.03828,-0.738119 -2.1197,-1.181503 -3.21051,-1.328328 z m -75.871719,1.562738 -0.03392,2.167574 67.127619,4.705579 0.0339,-2.167576 z M 19.71283,78.099363 17.506452,221.26351 l 1.017702,0.0723 2.205021,-143.164153 z m 7.820022,-46.300449 c -1.090816,0.146822 -2.172232,0.59021 -3.210511,1.328326 -2.076556,1.476235 -3.962718,4.117178 -5.425029,7.590855 -1.462311,3.473678 -2.490213,7.75507 -2.955407,12.316689 -0.474503,4.652901 -0.360415,9.561268 0.328379,14.090686 0.688793,4.529419 1.947526,8.645654 3.612163,11.818928 l 0.677111,-1.617723 C 19.031437,74.413639 17.871441,70.612034 17.239136,66.454072 16.60683,62.296109 16.50095,57.769137 16.936539,53.497817 c 0.427074,-4.187821 1.375459,-8.140818 2.717942,-11.329848 1.342484,-3.189031 3.08306,-5.624963 4.989454,-6.98023 1.906395,-1.355265 3.984431,-1.634969 5.955593,-0.801626 1.97116,0.833344 3.841428,2.781579 5.361253,5.585341 l 0.666256,-1.640875 C 34.971555,35.27656 32.944744,33.163884 30.79764,32.25616 29.724088,31.802297 28.623668,31.652088 27.532852,31.798914 Z" />
        </g>
        <rect
           style="fill:none;fill-rule:evenodd;stroke:#000000;stroke-width:1.48779;stroke-linecap:round;stroke-linejoin:round;stroke-miterlimit:4;stroke-dasharray:none;paint-order:stroke markers fill"
           id="rect3487"
           width="127.89849"
           height="221.79814"
           x="17.249014"
           y="23.599716"
           ry="14.542159" />
        <path
           style="color:#000000;fill:#000000;-inkscape-stroke:none"
           d="m 137.76172,25.763672 -19.37305,20.326172 1.10742,1.05664 19.37305,-20.326172 z"
           id="path3489" />
        <path
           style="color:#000000;fill:#000000;-inkscape-stroke:none"
           d="m 23.322266,25.251953 -0.857422,0.603516 11.402343,16.193359 0.857422,-0.603516 z"
           id="path3491" />
      </g>
    </g>
  </g>
  <g
     inkscape:groupmode="layer"
     id="layer2"
     inkscape:label="Layer 2">
    <path
       style="fill:#000000;stroke-width:0.264583"
       d="m 126.22395,97.688329 c -0.76647,-0.74345 -1.45002,-1.70395 -1.65467,-2.32508 -0.28085,-0.85244 -0.36529,-8.93385 -0.43402,-41.53958 -0.0531,-25.17631 0.0128,-41.46757 0.17416,-43.09004 0.21605,-2.1720404 0.38262,-2.7864504 0.99494,-3.6700404 1.42342,-2.05398 0.22757,-1.92326 17.59409,-1.92326 h 15.54318 l 1.06893,1.04374 c 2.17087,2.11969 1.99937,-1.8191 1.99937,45.9198004 v 42.46563 l -0.56597,1.19063 c -0.31128,0.65484 -0.92324,1.60734 -1.35991,2.11666 l -0.79394,0.92604 -15.6301,0.0761 -15.63009,0.0761 z m 30.28022,-7.41831 c -0.29154,-7.15844 -0.74768,-49.23626 -0.58294,-53.77656 0.51238,-14.12238 0.51495,-13.67009 -0.0925,-16.29902 -0.58094,-2.51401 -1.40771,-4.13744 -2.18315,-4.28677 -0.51024,-0.0983 -1.20318,0.56726 -1.86555,1.79171 -0.43039,0.79561 -0.55169,0.85602 -1.45521,0.72473 -0.54213,-0.0788 -4.8902,-0.53307 -9.6624,-1.00953 l -8.67671,-0.86629 -0.91399,-1.27221 c -1.63647,-2.27784 -2.63148,-1.5898 -3.70832,2.56425 -0.66076,2.54897 -0.63767,9.40047 0.0419,12.43542 0.43697,1.95144 0.48137,4.45165 0.56879,32.02899 l 0.0948,29.91232 12.09031,0.80938 c 6.64967,0.44516 13.08095,0.82563 14.29173,0.84549 l 2.20141,0.0361 z m -17.48382,-0.0663 c -0.87313,-0.2917 -2.13292,-0.93333 -2.79954,-1.42584 -2.03247,-1.50162 -3.58122,-4.35336 -3.36765,-6.20094 l 0.0818,-0.70744 h 8.99583 8.99584 l 0.0815,0.8408 c 0.20007,2.06438 -1.25671,4.79108 -3.27334,6.12685 -2.54347,1.68472 -6.09509,2.24168 -8.71439,1.36657 z m 1.50399,-12.56859 c -6.99396,-1.95872 -10.3726,-10.83382 -6.86994,-18.04616 0.88474,-1.82179 3.15132,-4.1779 4.84858,-5.04012 3.68607,-1.87255 7.90997,-1.00504 11.02924,2.26519 3.19151,3.34596 4.37326,7.86056 3.22419,12.31727 -1.56989,6.08886 -7.10787,9.9389 -12.23207,8.50382 z m 4.13154,-3.94409 c 0.97863,-0.51126 1.99086,-1.64575 2.73588,-3.06633 0.54757,-1.0441 0.62415,-1.55164 0.62222,-4.12406 -0.002,-2.73612 -0.0555,-3.03692 -0.79375,-4.47192 -1.11363,-2.1645 -2.3738,-3.1165 -4.30134,-3.24946 -1.3927,-0.0961 -1.61067,-0.0323 -2.65451,0.77716 -0.6961,0.53976 -1.41452,1.4463 -1.85209,2.33703 -0.64524,1.31348 -0.71486,1.73865 -0.71486,4.36562 0,2.47746 0.0905,3.10673 0.60824,4.23004 1.07918,2.34139 2.62862,3.57256 4.49813,3.57418 0.62569,5.3e-4 1.45913,-0.16697 1.85208,-0.37226 z m -3.24738,-4.46172 c -2.02372,-2.02372 -1.24803,-7.0552 1.12331,-7.28628 2.13867,-0.20841 3.45914,3.69055 2.19376,6.47751 -0.84959,1.8712 -1.97921,2.14662 -3.31707,0.80877 z m -4.01761,-25.72894 c -3.13217,-1.56083 -5.11114,-5.45191 -5.11114,-10.04963 0,-5.93557 3.26074,-10.42692 7.58327,-10.44523 2.37063,-0.01 4.23246,1.04561 5.75216,3.26146 2.534,3.69475 2.92443,8.85934 0.98335,13.00735 -1.99563,4.26456 -5.70963,5.96918 -9.20764,4.22605 z m 5.65507,-0.92404 c 1.90463,-1.09232 2.05596,-1.46681 1.34428,-3.32655 -0.50479,-1.31909 -0.61675,-1.45153 -0.85853,-1.01553 -0.66565,1.20042 -2.18167,2.45341 -3.19943,2.64434 -0.86429,0.16214 -1.26053,0.0743 -2.31062,-0.51194 -1.30162,-0.72672 -1.80888,-0.69309 -2.52288,0.16723 -0.23842,0.28727 -0.12091,0.54131 0.55092,1.1911 1.91587,1.85297 4.66622,2.18765 6.99626,0.85135 z m -7.02384,-3.11592 c 0.40788,-0.33633 0.38782,-0.46764 -0.26458,-1.73159 -0.65096,-1.26115 -0.7071,-1.62523 -0.72075,-4.67496 -0.014,-3.11992 -0.40541,-5.29166 -0.95375,-5.29166 -0.11044,0 -0.44371,0.78645 -0.7406,1.74766 -0.97615,3.16039 -0.62042,7.30557 0.85428,9.95467 0.57915,1.04036 0.55865,1.04041 1.8254,-0.004 z m 10.8464,-2.39275 c 1.114,-4.01742 0.20052,-8.36387 -2.35148,-11.18863 -2.65686,-2.94083 -6.48924,-2.93552 -9.15276,0.0127 -0.53578,0.59304 -0.97414,1.12757 -0.97414,1.18785 0,0.0603 0.24023,0.67002 0.53384,1.355 l 0.53385,1.24541 0.74575,-1.11039 c 0.41016,-0.61071 1.09266,-1.33909 1.51667,-1.61861 0.9186,-0.60556 2.49288,-0.66099 3.53068,-0.12433 0.85564,0.44247 2.01763,1.73631 2.2681,2.52546 0.24075,0.75852 0.53586,0.46239 0.92528,-0.92845 0.18544,-0.66235 0.4399,-1.26775 0.56546,-1.34535 0.35619,-0.22014 0.27217,0.28839 -0.2785,1.68544 -0.42333,1.074 -0.48328,1.71824 -0.36404,3.91239 0.0785,1.44468 0.0246,3.05121 -0.11987,3.57009 -0.21916,0.78726 -0.1527,1.21816 0.40156,2.60347 l 0.66418,1.66007 0.53461,-0.84436 c 0.29404,-0.4644 0.7534,-1.63339 1.02081,-2.59775 z m 23.85318,61.35325 c -1.28185,-0.58198 -2.29811,-1.96968 -2.72365,-3.71913 -0.44666,-1.83628 -0.25638,-85.5904004 0.19677,-86.6130704 0.47929,-1.08165 1.64408,-2.2807 2.63317,-2.71062 0.69568,-0.30238 3.5404,-0.37006 15.55277,-0.37006 16.26938,0 15.80567,-0.0461 17.25734,1.71504 1.60622,1.94862 1.52808,-0.37879 1.52808,45.5130904 v 42.06875 l -0.73821,1.50325 c -0.40602,0.8268 -1.1543,1.86859 -1.66285,2.31511 l -0.92464,0.81185 -15.0059,-0.006 c -14.16943,-0.005 -15.06761,-0.0338 -16.11288,-0.5084 z m 29.1828,-17.80819 c -0.10252,-7.31242 -0.29635,-17.87922 -0.43074,-23.48177 -0.37415,-15.59855 -0.33168,-22.00134 0.16798,-25.32585 1.23941,-8.24659 -1.16274,-18.65099 -3.52519,-15.26853 -0.26145,0.37434 -0.7135,0.97241 -1.00454,1.32904 l -0.52916,0.64842 -7.54063,-0.78718 c -4.14734,-0.43295 -8.42089,-0.86949 -9.49678,-0.97009 -2.08284,-0.19476 -2.4414,-0.40716 -3.26726,-1.93549 -0.3723,-0.68897 -0.59994,-0.83683 -1.18399,-0.76904 -0.93533,0.10856 -1.76045,1.54761 -2.23647,3.90049 -0.48538,2.39915 -0.44902,10.88592 0.0528,12.32302 0.30473,0.8727 0.39446,6.39513 0.51156,31.48542 l 0.14202,30.42708 3.04271,0.20556 c 1.67348,0.11305 7.15036,0.4855 12.17083,0.82766 5.02047,0.34216 10.06978,0.63661 11.22069,0.65434 l 2.09257,0.0322 z m -16.82461,9.70542 c -1.74224,-0.47931 -3.36263,-1.39452 -4.52236,-2.55426 -1.66788,-1.66787 -2.66555,-4.96223 -1.73633,-5.73341 0.25804,-0.21416 2.8279,-0.28059 8.92969,-0.23084 l 8.56737,0.0699 0.0822,1.29545 c 0.12915,2.03465 -1.21309,4.61619 -2.96217,5.69718 -2.39572,1.48064 -5.99191,2.10708 -8.35842,1.45602 z m 1.24927,-12.55687 c -3.04902,-0.76613 -5.5882,-2.96041 -7.22866,-6.24678 l -1.03849,-2.08042 v -3.83645 c 0,-3.81296 0.005,-3.84713 0.87361,-5.57647 1.20618,-2.40242 2.86477,-4.20775 4.8591,-5.28902 1.59108,-0.86263 1.80912,-0.90847 4.32146,-0.90847 2.26072,0 2.83192,0.0924 3.92434,0.63467 2.80388,1.39188 5.12819,4.30815 6.18525,7.76053 0.57019,1.86223 0.5758,5.48406 0.0114,7.34751 -1.04275,3.44271 -4.00586,6.8496 -6.78593,7.80225 -1.56297,0.53558 -3.85421,0.71122 -5.12207,0.39265 z m 4.70977,-4.61449 c 0.62602,-0.4775 1.27218,-1.37245 1.8002,-2.49336 0.71833,-1.5249 0.82418,-2.03613 0.8277,-3.99747 0.005,-2.71738 -0.54823,-4.49699 -1.88194,-6.05513 -1.1712,-1.36828 -2.13702,-1.88237 -3.53642,-1.88237 -4.38654,0 -6.78589,6.89365 -4.21615,12.11353 1.12559,2.28641 2.64899,3.32127 4.66009,3.16565 0.98396,-0.0761 1.64513,-0.31588 2.34652,-0.85085 z m -3.93629,-3.59245 c -0.79425,-0.62476 -1.23184,-1.96055 -1.23394,-3.76678 -0.004,-3.48755 2.49386,-5.06342 4.14422,-2.61445 1.2195,1.80961 1.01094,4.71691 -0.44264,6.17049 -0.89113,0.89113 -1.53297,0.94595 -2.46764,0.21074 z m -4.01354,-26.02038 c -2.66524,-1.2637 -4.6148,-4.32295 -5.17855,-8.1262 -0.72447,-4.88745 1.46571,-10.20961 4.88203,-11.86343 1.33275,-0.64517 3.71318,-0.72713 5.03829,-0.17346 3.20909,1.34084 5.4513,5.53384 5.43822,10.1696 -0.008,2.6707 -0.28945,4.08019 -1.20175,6.00865 -1.85604,3.92334 -5.6017,5.58579 -8.97824,3.98484 z m 4.72409,-0.52511 c 0.47885,-0.20008 1.29466,-0.73608 1.81291,-1.19111 l 0.94228,-0.82732 -0.53589,-1.45473 c -0.29473,-0.8001 -0.62229,-1.45473 -0.72792,-1.45473 -0.10561,0 -0.49488,0.45764 -0.86504,1.01698 -1.29879,1.96261 -3.52557,2.37722 -5.33897,0.99407 l -0.8654,-0.66007 -0.7453,0.77794 -0.74531,0.77793 0.6146,0.65421 c 1.48404,1.57969 4.44421,2.20659 6.45404,1.36683 z m -5.94226,-3.79792 c 0.0576,-0.0333 -0.21946,-0.78307 -0.61571,-1.66603 -0.8658,-1.92925 -1.11198,-3.91337 -0.71515,-5.76376 0.24715,-1.1524 0.22097,-1.55197 -0.16632,-2.53793 -0.25281,-0.6436 -0.57872,-1.18763 -0.72424,-1.20896 -0.61378,-0.09 -1.28176,2.73625 -1.28019,5.4165 0.002,2.76065 0.39193,4.39721 1.47102,6.16792 l 0.534,0.87624 0.69592,-0.61166 c 0.38276,-0.33642 0.74306,-0.63896 0.80067,-0.67232 z m 10.05052,-0.58694 c 2.43393,-5.65784 -0.10279,-13.32562 -4.86666,-14.71051 -1.22464,-0.35602 -1.71559,-0.38109 -2.68452,-0.13711 -1.45708,0.36689 -2.97296,1.34344 -3.78012,2.43519 -0.60705,0.82107 -0.60717,0.82319 -0.13169,2.22206 l 0.47595,1.40021 0.74114,-1.16867 c 1.90571,-3.00499 5.2326,-2.96508 7.0196,0.0842 l 0.70657,1.20568 0.52826,-1.42714 c 0.59608,-1.61037 0.64623,-1.70114 0.83548,-1.5119 0.0747,0.0746 -0.15831,0.91695 -0.5177,1.87176 -0.52882,1.40493 -0.60517,1.90435 -0.40032,2.61859 0.32016,1.11635 0.31506,3.21824 -0.0111,4.59023 -0.20471,0.86102 -0.14338,1.36369 0.329,2.69616 0.66331,1.87106 0.88792,1.84948 1.75614,-0.16875 z"
       id="path4338" />
  </g>
  <g
     inkscape:groupmode="layer"
     id="layer3"
     inkscape:label="Layer 3"
     style="display:inline">
    <path
       style="fill:#ffffff;fill-rule:evenodd;stroke:#000000;stroke-width:6.49604;stroke-linecap:round;stroke-linejoin:round;stroke-miterlimit:4;stroke-dasharray:none;paint-order:stroke markers fill"
       d=""
       id="path4830"
       transform="scale(0.26458333)" />
    <g
       id="g5739">
      <g
         id="g4509"
         transform="matrix(0.6101702,0,0,0.9879167,-4.5613074,189.39816)">
        <g
           id="g4481"
           transform="matrix(0.47228044,0,0,0.42546119,8.6922054,-1.6746388)">
          <g
             id="g4473"
             transform="matrix(1,0,0.01393298,1,6.3620268,9.9796741)">
            <path
               id="path4457"
               style="fill:none;fill-rule:evenodd;stroke:#000000;stroke-width:1.32207;stroke-linecap:round;stroke-linejoin:round;paint-order:stroke markers fill"
               d="M 93.215769,158.90018 A 20.641219,19.606493 0 0 1 72.57455,178.50669 20.641219,19.606493 0 0 1 51.93333,158.90018 20.641219,19.606493 0 0 1 72.57455,139.2937 20.641219,19.606493 0 0 1 93.215769,158.90018 Z m -13.461668,-0.93364 a 7.4039152,8.9629678 0 0 1 -7.403916,8.96296 7.4039152,8.9629678 0 0 1 -7.403914,-8.96296 7.4039152,8.9629678 0 0 1 7.403914,-8.96296 7.4039152,8.9629678 0 0 1 7.403916,8.96296 z m 27.372039,-0.56018 a 35.000327,28.196002 0 0 1 -35.000311,28.19599 35.000327,28.196002 0 0 1 -35.000327,-28.19599 35.000327,28.196002 0 0 1 35.000327,-28.19601 35.000327,28.196002 0 0 1 35.000311,28.19601 z" />
            <g
               id="g4469">
              <path
                 id="path4459"
                 style="fill:none;fill-rule:evenodd;stroke:#000000;stroke-width:1.813;stroke-linecap:round;stroke-linejoin:round;paint-order:stroke markers fill"
                 d="M 90.300251,80.744637 A 26.339611,24.525124 0 0 1 63.96064,105.26976 26.339611,24.525124 0 0 1 37.621029,80.744637 26.339611,24.525124 0 0 1 63.96064,56.219513 26.339611,24.525124 0 0 1 90.300251,80.744637 Z M 78.476527,80.971443 A 15.649943,16.557186 0 0 1 62.826584,97.528629 15.649943,16.557186 0 0 1 47.176641,80.971443 15.649943,16.557186 0 0 1 62.826584,64.414257 15.649943,16.557186 0 0 1 78.476527,80.971443 Z" />
              <path
                 style="color:#000000;fill:#000000;-inkscape-stroke:none"
                 d="m 44.345703,64.636719 -1.197266,0.648437 5.042969,9.339844 1.199219,-0.648438 z"
                 id="path4461" />
              <path
                 style="color:#000000;fill:#000000;-inkscape-stroke:none"
                 d="m 81.529297,64.636719 -5.042969,9.339843 1.197266,0.648438 5.044922,-9.339844 z"
                 id="path4463" />
              <path
                 style="color:#000000;fill:#000000;-inkscape-stroke:none"
                 d="m 53.199219,92.882812 -9.238282,5.226563 0.669922,1.185547 9.240235,-5.226563 z"
                 id="path4465" />
              <path
                 style="color:#000000;fill:#000000;-inkscape-stroke:none"
                 d="m 77.287109,88.867187 -1.185547,0.669922 5.226563,9.238282 1.185547,-0.669922 z"
                 id="path4467" />
            </g>
            <path
               id="path4471"
               style="color:#000000;fill:#000000;stroke-width:0.741401;-inkscape-stroke:none"
               d="m 38.739262,196.02514 c -1.23925,4.20869 0.457163,8.65261 4.662865,12.21451 4.205701,3.56191 10.854204,6.18676 18.275325,7.21364 7.421122,1.02688 15.498989,0.43999 22.201438,-1.61252 6.702448,-2.05252 11.924364,-5.53939 14.35503,-9.58321 1.436997,-2.39071 1.91355,-4.95606 1.384316,-7.46022 l -1.44442,0.0952 c 0.503819,2.3839 0.04958,4.83178 -1.318398,7.10765 -2.310801,3.84442 -7.304516,7.17769 -13.676442,9.12899 -6.371925,1.95129 -14.095439,2.51306 -21.150597,1.53681 -7.055158,-0.97624 -13.414248,-3.48562 -17.412551,-6.87188 -3.998302,-3.38625 -5.619976,-7.63584 -4.441838,-11.63699 z m 0.734814,-0.33959 -0.03296,0.81113 59.438431,0.75381 0.03296,-0.81114 z m -21.447918,24.53035 -0.02171,2.16757 103.684832,4.70558 0.0217,-2.17047 z M 120.00261,82.804939 l -1.01634,0.06945 2.20502,143.167051 1.0177,-0.0723 z m -7.82002,-46.300448 c -1.09082,-0.146823 -2.19123,0.0034 -3.26479,0.457245 -2.1471,0.907727 -4.17392,3.020398 -5.82939,6.07442 l 0.66625,1.640875 c 1.51982,-2.80376 3.39009,-4.751998 5.36126,-5.585341 1.97116,-0.833343 4.04919,-0.55364 5.95558,0.801627 1.9064,1.355267 3.64698,3.788304 4.98946,6.977335 1.34248,3.18903 2.29087,7.142026 2.71794,11.329848 0.4356,4.27132 0.32972,8.801189 -0.30259,12.959149 -0.63231,4.157961 -1.79231,7.956673 -3.32043,10.86971 l 0.67712,1.620617 c 1.66463,-3.173275 2.92337,-7.289509 3.61216,-11.818929 0.6888,-4.529418 0.80288,-9.437784 0.32837,-14.090686 -0.46519,-4.561622 -1.49309,-8.845905 -2.9554,-12.319583 -1.46231,-3.47368 -3.34848,-6.111724 -5.42503,-7.587959 -1.03828,-0.738119 -2.1197,-1.181503 -3.21051,-1.328328 z m -75.871719,1.562738 -0.03392,2.167574 67.127619,4.705579 0.0339,-2.167576 z M 19.71283,78.099363 17.506452,221.26351 l 1.017702,0.0723 2.205021,-143.164153 z m 7.820022,-46.300449 c -1.090816,0.146822 -2.172232,0.59021 -3.210511,1.328326 -2.076556,1.476235 -3.962718,4.117178 -5.425029,7.590855 -1.462311,3.473678 -2.490213,7.75507 -2.955407,12.316689 -0.474503,4.652901 -0.360415,9.561268 0.328379,14.090686 0.688793,4.529419 1.947526,8.645654 3.612163,11.818928 l 0.677111,-1.617723 C 19.031437,74.413639 17.871441,70.612034 17.239136,66.454072 16.60683,62.296109 16.50095,57.769137 16.936539,53.497817 c 0.427074,-4.187821 1.375459,-8.140818 2.717942,-11.329848 1.342484,-3.189031 3.08306,-5.624963 4.989454,-6.98023 1.906395,-1.355265 3.984431,-1.634969 5.955593,-0.801626 1.97116,0.833344 3.841428,2.781579 5.361253,5.585341 l 0.666256,-1.640875 C 34.971555,35.27656 32.944744,33.163884 30.79764,32.25616 29.724088,31.802297 28.623668,31.652088 27.532852,31.798914 Z" />
          </g>
          <rect
             style="fill:none;fill-rule:evenodd;stroke:#000000;stroke-width:1.48779;stroke-linecap:round;stroke-linejoin:round;stroke-miterlimit:4;stroke-dasharray:none;paint-order:stroke markers fill"
             id="rect4475"
             width="127.89849"
             height="221.79814"
             x="17.249014"
             y="23.599716"
             ry="14.542159" />
          <path
             style="color:#000000;fill:#000000;-inkscape-stroke:none"
             d="m 137.76172,25.763672 -19.37305,20.326172 1.10742,1.05664 19.37305,-20.326172 z"
             id="path4477" />
          <path
             style="color:#000000;fill:#000000;-inkscape-stroke:none"
             d="m 23.322266,25.251953 -0.857422,0.603516 11.402343,16.193359 0.857422,-0.603516 z"
             id="path4479" />
        </g>
        <g
           id="g4507"
           transform="matrix(0.47228044,0,0,0.42546119,80.129749,-1.6746388)">
          <g
             id="g4499"
             transform="matrix(1,0,0.01393298,1,6.3620268,9.9796741)">
            <path
               id="path4483"
               style="fill:none;fill-rule:evenodd;stroke:#000000;stroke-width:1.32207;stroke-linecap:round;stroke-linejoin:round;paint-order:stroke markers fill"
               d="M 93.215769,158.90018 A 20.641219,19.606493 0 0 1 72.57455,178.50669 20.641219,19.606493 0 0 1 51.93333,158.90018 20.641219,19.606493 0 0 1 72.57455,139.2937 20.641219,19.606493 0 0 1 93.215769,158.90018 Z m -13.461668,-0.93364 a 7.4039152,8.9629678 0 0 1 -7.403916,8.96296 7.4039152,8.9629678 0 0 1 -7.403914,-8.96296 7.4039152,8.9629678 0 0 1 7.403914,-8.96296 7.4039152,8.9629678 0 0 1 7.403916,8.96296 z m 27.372039,-0.56018 a 35.000327,28.196002 0 0 1 -35.000311,28.19599 35.000327,28.196002 0 0 1 -35.000327,-28.19599 35.000327,28.196002 0 0 1 35.000327,-28.19601 35.000327,28.196002 0 0 1 35.000311,28.19601 z" />
            <g
               id="g4495">
              <path
                 id="path4485"
                 style="fill:none;fill-rule:evenodd;stroke:#000000;stroke-width:1.813;stroke-linecap:round;stroke-linejoin:round;paint-order:stroke markers fill"
                 d="M 90.300251,80.744637 A 26.339611,24.525124 0 0 1 63.96064,105.26976 26.339611,24.525124 0 0 1 37.621029,80.744637 26.339611,24.525124 0 0 1 63.96064,56.219513 26.339611,24.525124 0 0 1 90.300251,80.744637 Z M 78.476527,80.971443 A 15.649943,16.557186 0 0 1 62.826584,97.528629 15.649943,16.557186 0 0 1 47.176641,80.971443 15.649943,16.557186 0 0 1 62.826584,64.414257 15.649943,16.557186 0 0 1 78.476527,80.971443 Z" />
              <path
                 style="color:#000000;fill:#000000;-inkscape-stroke:none"
                 d="m 44.345703,64.636719 -1.197266,0.648437 5.042969,9.339844 1.199219,-0.648438 z"
                 id="path4487" />
              <path
                 style="color:#000000;fill:#000000;-inkscape-stroke:none"
                 d="m 81.529297,64.636719 -5.042969,9.339843 1.197266,0.648438 5.044922,-9.339844 z"
                 id="path4489" />
              <path
                 style="color:#000000;fill:#000000;-inkscape-stroke:none"
                 d="m 53.199219,92.882812 -9.238282,5.226563 0.669922,1.185547 9.240235,-5.226563 z"
                 id="path4491" />
              <path
                 style="color:#000000;fill:#000000;-inkscape-stroke:none"
                 d="m 77.287109,88.867187 -1.185547,0.669922 5.226563,9.238282 1.185547,-0.669922 z"
                 id="path4493" />
            </g>
            <path
               id="path4497"
               style="color:#000000;fill:#000000;stroke-width:0.741401;-inkscape-stroke:none"
               d="m 38.739262,196.02514 c -1.23925,4.20869 0.457163,8.65261 4.662865,12.21451 4.205701,3.56191 10.854204,6.18676 18.275325,7.21364 7.421122,1.02688 15.498989,0.43999 22.201438,-1.61252 6.702448,-2.05252 11.924364,-5.53939 14.35503,-9.58321 1.436997,-2.39071 1.91355,-4.95606 1.384316,-7.46022 l -1.44442,0.0952 c 0.503819,2.3839 0.04958,4.83178 -1.318398,7.10765 -2.310801,3.84442 -7.304516,7.17769 -13.676442,9.12899 -6.371925,1.95129 -14.095439,2.51306 -21.150597,1.53681 -7.055158,-0.97624 -13.414248,-3.48562 -17.412551,-6.87188 -3.998302,-3.38625 -5.619976,-7.63584 -4.441838,-11.63699 z m 0.734814,-0.33959 -0.03296,0.81113 59.438431,0.75381 0.03296,-0.81114 z m -21.447918,24.53035 -0.02171,2.16757 103.684832,4.70558 0.0217,-2.17047 z M 120.00261,82.804939 l -1.01634,0.06945 2.20502,143.167051 1.0177,-0.0723 z m -7.82002,-46.300448 c -1.09082,-0.146823 -2.19123,0.0034 -3.26479,0.457245 -2.1471,0.907727 -4.17392,3.020398 -5.82939,6.07442 l 0.66625,1.640875 c 1.51982,-2.80376 3.39009,-4.751998 5.36126,-5.585341 1.97116,-0.833343 4.04919,-0.55364 5.95558,0.801627 1.9064,1.355267 3.64698,3.788304 4.98946,6.977335 1.34248,3.18903 2.29087,7.142026 2.71794,11.329848 0.4356,4.27132 0.32972,8.801189 -0.30259,12.959149 -0.63231,4.157961 -1.79231,7.956673 -3.32043,10.86971 l 0.67712,1.620617 c 1.66463,-3.173275 2.92337,-7.289509 3.61216,-11.818929 0.6888,-4.529418 0.80288,-9.437784 0.32837,-14.090686 -0.46519,-4.561622 -1.49309,-8.845905 -2.9554,-12.319583 -1.46231,-3.47368 -3.34848,-6.111724 -5.42503,-7.587959 -1.03828,-0.738119 -2.1197,-1.181503 -3.21051,-1.328328 z m -75.871719,1.562738 -0.03392,2.167574 67.127619,4.705579 0.0339,-2.167576 z M 19.71283,78.099363 17.506452,221.26351 l 1.017702,0.0723 2.205021,-143.164153 z m 7.820022,-46.300449 c -1.090816,0.146822 -2.172232,0.59021 -3.210511,1.328326 -2.076556,1.476235 -3.962718,4.117178 -5.425029,7.590855 -1.462311,3.473678 -2.490213,7.75507 -2.955407,12.316689 -0.474503,4.652901 -0.360415,9.561268 0.328379,14.090686 0.688793,4.529419 1.947526,8.645654 3.612163,11.818928 l 0.677111,-1.617723 C 19.031437,74.413639 17.871441,70.612034 17.239136,66.454072 16.60683,62.296109 16.50095,57.769137 16.936539,53.497817 c 0.427074,-4.187821 1.375459,-8.140818 2.717942,-11.329848 1.342484,-3.189031 3.08306,-5.624963 4.989454,-6.98023 1.906395,-1.355265 3.984431,-1.634969 5.955593,-0.801626 1.97116,0.833344 3.841428,2.781579 5.361253,5.585341 l 0.666256,-1.640875 C 34.971555,35.27656 32.944744,33.163884 30.79764,32.25616 29.724088,31.802297 28.623668,31.652088 27.532852,31.798914 Z" />
          </g>
          <rect
             style="fill:none;fill-rule:evenodd;stroke:#000000;stroke-width:1.48779;stroke-linecap:round;stroke-linejoin:round;stroke-miterlimit:4;stroke-dasharray:none;paint-order:stroke markers fill"
             id="rect4501"
             width="127.89849"
             height="221.79814"
             x="17.249014"
             y="23.599716"
             ry="14.542159" />
          <path
             style="color:#000000;fill:#000000;-inkscape-stroke:none"
             d="m 137.76172,25.763672 -19.37305,20.326172 1.10742,1.05664 19.37305,-20.326172 z"
             id="path4503" />
          <path
             style="color:#000000;fill:#000000;-inkscape-stroke:none"
             d="m 23.322266,25.251953 -0.857422,0.603516 11.402343,16.193359 0.857422,-0.603516 z"
             id="path4505" />
        </g>
      </g>
      <path
         style="fill:#ffffff;fill-rule:evenodd;stroke:#000000;stroke-width:6.49604;stroke-linecap:round;stroke-linejoin:round;stroke-miterlimit:4;stroke-dasharray:none;paint-order:stroke markers fill"
         d="m 246.14884,1078.0364 -47.26549,-3.2087 -0.66372,-116.62824 c -0.48147,-84.60468 -1.06334,-117.97663 -2.11914,-121.53896 -1.83634,-6.19592 -1.9388,-28.55685 -0.17457,-38.10042 1.42432,-7.70485 4.65139,-15.08913 7.69992,-17.61919 2.55527,-2.12068 6.16157,-0.0248 8.12866,4.72419 0.84975,2.05146 1.61608,3.78604 1.70297,3.85461 0.0869,0.0686 16.91852,1.88032 37.40362,4.02612 l 37.24565,3.90146 1.60735,-3.10827 c 0.88404,-1.70955 2.68355,-4.08222 3.99891,-5.2726 2.29049,-2.07287 2.52884,-2.05637 5.63936,0.39037 5.59392,4.40018 8.70265,17.24204 8.75223,36.15466 0.023,8.779 -0.72485,19.89882 -1.66217,24.71458 -1.46365,7.51994 -1.41695,22.9314 0.33105,109.26308 1.11928,55.27951 2.02419,105.34221 2.01092,111.25041 l -0.0241,10.7422 -7.67297,-0.1683 c -4.22013,-0.093 -28.94244,-1.6123 -54.93845,-3.377 z M 269.2,1065.5993 c 10.53029,-4.6564 17.37685,-13.8592 17.43515,-23.4353 l 0.027,-4.4289 -7.54614,-0.7887 c -4.15038,-0.4338 -19.34285,-0.7887 -33.76106,-0.7887 h -26.21492 v 5.5734 c 0,20.6483 27.59139,33.8036 50.06001,23.8682 z m -2.13358,-45.5605 c 17.98248,-5.3877 30.69494,-29.76646 27.05586,-51.88516 -2.79716,-17.00136 -10.78289,-28.68886 -24.07258,-35.23135 -7.23697,-3.56275 -8.67984,-3.84695 -16.829,-3.31483 -10.57664,0.69063 -16.57829,3.45334 -23.89009,10.99719 -18.24104,18.81995 -17.17862,54.05957 2.15384,71.44115 3.37206,3.0317 8.46536,6.3389 11.31846,7.3491 6.28396,2.2251 17.95229,2.5347 24.26351,0.6439 z M 252.43781,893.726 c 6.88896,-1.91355 14.9018,-9.78098 18.97347,-18.62918 3.2322,-7.02392 3.55882,-8.94374 3.51072,-20.63503 -0.0669,-16.26714 -3.00253,-24.68096 -11.61684,-33.29527 -16.16301,-16.163 -38.9653,-7.68155 -46.19329,17.18187 -3.13733,10.79203 -1.90051,26.97533 2.83444,37.08742 6.99167,14.93163 19.41197,21.92329 32.4915,18.29019 z"
         id="path4674"
         transform="scale(0.26458333)" />
      <path
         style="fill:#ffffff;fill-rule:evenodd;stroke:#000000;stroke-width:6.49604;stroke-linecap:round;stroke-linejoin:round;stroke-miterlimit:4;stroke-dasharray:none;paint-order:stroke markers fill"
         d="m 195.61227,1094.7731 c -1.79909,-1.5159 -4.28513,-4.6898 -5.52454,-7.0531 -2.1527,-4.1047 -2.25346,-11.4604 -2.25346,-164.50841 0,-151.14868 0.12332,-160.43729 2.17996,-164.20153 1.19898,-2.19447 2.47571,-3.98994 2.83719,-3.98994 0.36147,0 2.75986,4.47328 5.32975,9.94063 l 4.67253,9.94062 -4.04951,6.01755 c -6.0591,9.00379 -8.26736,20.68441 -7.4471,39.39166 2.01167,45.8794 3.04511,103.78631 3.13189,175.49044 0.0828,68.40318 0.36346,80.78998 1.85876,82.03098 1.14189,0.9477 21.48052,2.784 57.83595,5.2216 47.39977,3.1783 56.25627,3.4977 57.24852,2.0648 1.16714,-1.6856 0.82966,-39.9629 -1.42198,-161.28218 -0.84463,-45.50852 -0.70692,-60.50716 0.70979,-77.31213 2.57138,-30.50119 0.54419,-47.60176 -6.86615,-57.92049 -2.02804,-2.82398 -3.68734,-5.43088 -3.68734,-5.7931 0,-0.36222 4.2215,-7.13306 9.38111,-15.04632 l 9.38111,-14.38774 2.58872,4.81178 2.58873,4.81179 v 160.21158 160.21161 l -2.69155,5.0301 c -5.09357,9.5191 -1.98125,9.0889 -65.70814,9.082 l -56.82316,-0.01 z"
         id="path4713"
         transform="scale(0.26458333)" />
      <path
         style="fill:#ffffff;fill-rule:evenodd;stroke:#000000;stroke-width:6.49604;stroke-linecap:round;stroke-linejoin:round;stroke-miterlimit:4;stroke-dasharray:none;paint-order:stroke markers fill"
         d="m 253.34965,1006.9644 c -5.42118,-0.6816 -12.89179,-8.14035 -15.71743,-15.69256 -7.27445,-19.44271 2.15361,-42.24441 17.47823,-42.27098 19.32217,-0.0335 28.77608,30.22006 15.4986,49.59728 -4.31823,6.30206 -10.36482,9.23306 -17.2594,8.36626 z m 8.77242,-18.99295 c 4.63571,-7.60313 2.55693,-23.35521 -3.51071,-26.60251 -7.27896,-3.89558 -13.78313,6.45769 -11.90884,18.95637 1.7013,11.34507 10.50312,15.70966 15.41955,7.64614 z"
         id="path4752"
         transform="scale(0.26458333)" />
      <path
         style="fill:#ffffff;fill-rule:evenodd;stroke:#000000;stroke-width:6.49604;stroke-linecap:round;stroke-linejoin:round;stroke-miterlimit:4;stroke-dasharray:none;paint-order:stroke markers fill"
         d="m 253.07011,985.59232 c -4.15574,-6.44967 -2.87774,-19.47671 2.00254,-20.41239 4.48126,-0.85917 7.5177,12.92492 4.25559,19.31846 -2.08942,4.09515 -4.0981,4.44627 -6.25813,1.09393 z"
         id="path4791"
         transform="scale(0.26458333)" />
      <path
         style="fill:#ffffff;fill-rule:evenodd;stroke:#000000;stroke-width:6.49604;stroke-linecap:round;stroke-linejoin:round;stroke-miterlimit:4;stroke-dasharray:none;paint-order:stroke markers fill"
         d="M 72.02284,874.70157 C 61.765988,866.071 62.018977,840.77451 72.444153,832.57407 84.875152,822.79584 99.14275,843.76404 93.429909,863.41552 89.55802,876.73435 80.262696,881.63495 72.02284,874.70157 Z"
         id="path4869"
         transform="scale(0.26458333)" />
      <path
         style="fill:#ffffff;fill-rule:evenodd;stroke:#000000;stroke-width:6.49604;stroke-linecap:round;stroke-linejoin:round;stroke-miterlimit:4;stroke-dasharray:none;paint-order:stroke markers fill"
         d="m 88.392599,789.30233 c -17.555752,-1.89349 -33.108002,-3.47592 -34.560553,-3.51652 -1.687037,-0.0471 -3.582994,-1.67037 -5.248846,-4.49378 -1.434314,-2.43098 -3.619373,-4.68448 -4.855688,-5.00779 -1.385045,-0.3622 -4.445648,-5.14427 -7.973759,-12.45868 -5.268967,-10.92353 -5.558227,-11.99348 -3.624657,-13.40734 1.609848,-1.17715 15.229917,-1.53648 58.239252,-1.53648 30.875902,0 57.011862,0.33534 58.079922,0.74519 1.06805,0.40985 1.94104,1.37664 1.93998,2.14843 -0.003,2.22943 -19.05675,30.22714 -21.95005,32.25369 -1.43855,1.0076 -3.45525,3.45582 -4.48156,5.44049 -1.02632,1.98468 -2.26619,3.53358 -2.75526,3.442 -0.48908,-0.0916 -15.25303,-1.71572 -32.808781,-3.60921 z"
         id="path4908"
         transform="scale(0.26458333)" />
      <path
         style="fill:#ffffff;fill-rule:evenodd;stroke:#000000;stroke-width:6.49604;stroke-linecap:round;stroke-linejoin:round;stroke-miterlimit:4;stroke-dasharray:none;paint-order:stroke markers fill"
         d="m 251.05954,789.00948 c -22.44584,-2.26462 -35.1695,-4.03854 -35.49297,-4.94839 -0.27732,-0.78006 -2.21091,-3.14672 -4.29686,-5.25926 -2.08595,-2.11253 -6.4063,-9.1425 -9.60077,-15.62214 -5.50431,-11.16489 -5.68514,-11.847 -3.45682,-13.03956 2.90154,-1.55286 112.84038,-1.71312 115.27867,-0.16804 2.02021,1.28014 1.55222,2.24766 -8.46983,17.5104 -3.93503,5.99271 -7.50296,11.99346 -7.92875,13.335 -0.42579,1.34153 -1.56215,2.43915 -2.52524,2.43915 -0.9631,0 -3.2738,2.08867 -5.13489,4.64148 l -3.38381,4.64148 z"
         id="path4947"
         transform="scale(0.26458333)" />
      <path
         style="fill:#ffffff;fill-rule:evenodd;stroke:#000000;stroke-width:6.49604;stroke-linecap:round;stroke-linejoin:round;stroke-miterlimit:4;stroke-dasharray:none;paint-order:stroke markers fill"
         d="m 29.471042,1093.3361 c -2.245277,-2.3806 -4.572012,-6.6115 -5.362579,-9.7512 -1.009567,-4.0093 -1.370335,-48.6782 -1.302127,-161.22387 0.09453,-155.97049 0.312587,-164.5417 4.21424,-165.6471 0.668772,-0.18948 3.287831,4.0985 5.820133,9.52885 l 4.604184,9.87335 -2.458334,3.12526 c -4.496066,5.71582 -6.390327,14.75952 -7.039842,33.61005 -0.4709,13.66667 -0.144902,20.26605 1.370566,27.74519 1.747815,8.62582 1.988429,23.56841 1.988429,123.48521 0,77.46786 0.407187,113.92356 1.278471,114.46206 1.670705,1.0325 112.788407,8.4646 113.651487,7.6015 0.3632,-0.3632 -0.36796,-51.6738 -1.6248,-114.02354 -2.01842,-100.13073 -2.07551,-114.22302 -0.48909,-120.72926 1.12339,-4.60728 1.79653,-13.57326 1.79731,-23.93966 10e-4,-18.47209 -2.08351,-29.68224 -7.30451,-39.27495 l -3.12968,-5.75025 8.98724,-13.65284 c 4.94298,-7.50906 9.42976,-13.67578 9.97064,-13.70381 0.54086,-0.028 1.78388,1.86487 2.76227,4.20646 1.52246,3.64378 1.77886,27.2994 1.77886,164.12084 v 159.86341 l -2.58108,5.3318 c -4.45793,9.2088 -2.52488,8.9478 -66.269711,8.9478 H 33.437145 Z"
         id="path4986"
         transform="scale(0.26458333)" />
      <path
         style="fill:#ffffff;fill-rule:evenodd;stroke:#000000;stroke-width:6.49604;stroke-linecap:round;stroke-linejoin:round;stroke-miterlimit:4;stroke-dasharray:none;paint-order:stroke markers fill"
         d="m 82.736227,1078.1328 -46.169646,-3.1261 -0.783339,-13.5931 c -0.430836,-7.4761 -0.785851,-56.2115 -0.788922,-108.30082 -0.004,-68.13576 -0.436142,-98.27489 -1.540177,-107.42155 -1.849291,-15.32095 -1.715411,-43.48551 0.251751,-52.96128 1.366134,-6.58063 5.116039,-13.15633 7.502623,-13.15633 0.621978,0 2.830822,2.34793 4.908543,5.21762 l 3.777674,5.21762 36.701135,3.71448 36.701131,3.71448 3.72893,-5.29027 c 3.16772,-4.49407 4.08221,-5.1012 6.07625,-4.03402 1.34537,0.72002 3.56699,4.79883 5.20472,9.55567 2.52978,7.34786 2.85579,10.55159 2.84339,27.94223 -0.008,10.80354 -0.50672,24.57231 -1.10892,30.59726 -1.03328,10.33771 0.96288,187.64141 2.40949,214.01701 l 0.62283,11.356 -7.08391,-0.1614 c -3.89615,-0.089 -27.86025,-1.5681 -53.253553,-3.2875 z m 14.682716,-10.1314 c 13.106877,-2.8109 22.937857,-12.5566 24.304227,-24.0934 l 0.7274,-6.1418 -7.69459,-0.8043 c -4.23203,-0.4423 -19.454084,-0.8042 -33.82679,-0.8042 -30.048508,0 -29.231683,-0.3596 -25.822086,11.369 4.514894,15.5307 23.201539,24.5731 42.311839,20.4747 z m 8.161107,-49.4947 c 8.33721,-3.932 14.93751,-10.8539 19.45869,-20.40693 3.14499,-6.64521 3.85875,-9.84958 4.26749,-19.15851 0.58301,-13.27786 -1.59477,-22.22501 -7.75287,-31.85166 -13.27237,-20.74805 -40.245774,-23.9115 -56.967281,-6.68112 -21.679489,22.33923 -15.583224,64.51292 11.258956,77.88892 8.589038,4.2801 20.919275,4.3669 29.735015,0.2093 z M 88.250164,893.47445 c 7.123611,-2.11548 15.721856,-11.04577 18.954926,-19.68692 5.54469,-14.81952 4.62838,-30.63067 -2.56396,-44.24207 -10.854419,-20.54179 -34.474698,-22.42477 -46.352656,-3.69517 -5.988869,9.44346 -7.618837,16.18927 -7.146677,29.57733 0.363224,10.2992 0.942689,13.02668 4.250826,20.00819 4.102889,8.65877 10.718291,15.28756 17.822325,17.85839 5.418579,1.9609 8.898618,2.00262 15.035216,0.18025 z"
         id="path5025"
         transform="scale(0.26458333)" />
      <path
         style="fill:#ffffff;fill-rule:evenodd;stroke:#000000;stroke-width:6.49604;stroke-linecap:round;stroke-linejoin:round;stroke-miterlimit:4;stroke-dasharray:none;paint-order:stroke markers fill"
         d="m 87.17618,985.83545 c -3.397667,-3.75438 -3.77048,-13.24955 -0.71148,-18.12064 1.378106,-2.19447 3.350568,-3.98994 4.383249,-3.98994 2.818604,0 6.742418,7.35298 6.747624,12.64463 0.0058,5.8492 -3.034564,11.90887 -5.975039,11.90887 -1.228452,0 -3.228411,-1.09931 -4.444354,-2.44292 z"
         id="path5064"
         transform="scale(0.26458333)" />
      <path
         style="fill:#ffffff;fill-rule:evenodd;stroke:#000000;stroke-width:6.49604;stroke-linecap:round;stroke-linejoin:round;stroke-miterlimit:4;stroke-dasharray:none;paint-order:stroke markers fill"
         d="m 87.279971,1006.6303 c -5.156062,-1.5243 -11.208515,-7.90968 -14.292627,-15.0789 -3.875205,-9.00815 -3.060106,-23.76895 1.767415,-32.00649 4.133397,-7.05311 9.497247,-10.54143 16.218557,-10.54755 14.727194,-0.0134 25.078504,20.94711 19.619064,39.72693 -3.7891,13.03401 -13.795205,20.71961 -23.312409,17.90601 z m 10.537778,-18.38072 c 4.850241,-6.52772 4.382511,-18.10442 -0.989407,-24.48857 -4.012972,-4.76915 -7.929669,-4.79071 -11.905631,-0.0656 -3.774088,4.48525 -5.003953,9.64366 -3.959617,16.6078 1.58039,10.53879 11.465554,15.19927 16.854655,7.94632 z"
         id="path5103"
         transform="scale(0.26458333)" />
      <path
         style="fill:#ffffff;fill-rule:evenodd;stroke:#000000;stroke-width:6.49604;stroke-linecap:round;stroke-linejoin:round;stroke-miterlimit:4;stroke-dasharray:none;paint-order:stroke markers fill"
         d="m 82.860114,1016.6686 c -9.955969,-3.2649 -17.836273,-10.6957 -22.946797,-21.63802 -3.082458,-6.59994 -3.440268,-8.70675 -3.440268,-20.25664 0,-10.74011 0.456502,-13.8797 2.73641,-18.81964 4.029075,-8.72992 9.200586,-14.64602 16.071768,-18.38579 13.288896,-7.23272 26.732883,-5.1924 37.637303,5.71202 9.02954,9.02954 12.15723,17.42811 12.18557,32.72109 0.0189,10.16711 -0.41337,12.60762 -3.37008,19.02896 -3.91124,8.49432 -10.38089,15.70342 -17.29277,19.26922 -5.261876,2.7145 -16.698794,3.9698 -21.581136,2.3688 z m 19.848916,-9.2018 c 7.86829,-5.1555 12.69869,-16.44583 12.67406,-29.62367 -0.0353,-18.90605 -10.31244,-32.53339 -24.535141,-32.53339 -14.019927,0 -23.939662,13.55392 -23.939662,32.71016 0,10.50697 3.524299,19.43567 10.294063,26.0797 7.672987,7.5305 17.227686,8.7918 25.50668,3.3672 z"
         id="path5142"
         transform="scale(0.26458333)" />
      <path
         style="fill:#ffffff;fill-rule:evenodd;stroke:#000000;stroke-width:3.71203;stroke-linecap:round;stroke-linejoin:round;stroke-miterlimit:4;stroke-dasharray:none;paint-order:stroke markers fill"
         d="m 262.82335,872.63403 c -1.88077,-4.80488 -2.12241,-6.07455 -1.56878,-8.24296 1.34612,-5.27242 1.5816,-10.14907 0.76712,-15.88686 -0.83407,-5.8758 -0.8255,-5.94772 1.47574,-12.381 l 2.31469,-6.47087 1.91283,4.06586 c 2.69101,5.71995 3.58569,12.14401 3.30597,23.73769 -0.23761,9.84809 -0.27628,10.05829 -2.83705,15.42103 -1.42788,2.99026 -2.72016,5.43684 -2.87173,5.43684 -0.15157,0 -1.27603,-2.55588 -2.49879,-5.67973 z"
         id="path5181"
         transform="scale(0.26458333)" />
      <path
         style="fill:#ffffff;fill-rule:evenodd;stroke:#000000;stroke-width:3.71203;stroke-linecap:round;stroke-linejoin:round;stroke-miterlimit:4;stroke-dasharray:none;paint-order:stroke markers fill"
         d="m 258.29627,836.55704 c -0.6435,-1.34943 -2.4762,-3.87057 -4.07266,-5.60253 -7.45206,-8.08453 -19.23461,-5.62896 -24.33761,5.07213 -0.60323,1.265 -1.27508,2.29971 -1.493,2.29937 -0.21792,-3.5e-4 -1.10726,-1.95535 -1.97631,-4.34447 l -1.58009,-4.34383 1.93086,-2.79076 c 2.81572,-4.06969 8.14901,-7.99416 12.63699,-9.29885 7.64717,-2.22309 14.97189,0.0442 21.44544,6.63809 l 3.20711,3.26675 -1.90955,5.39298 c -1.05025,2.96614 -2.08316,5.5666 -2.29536,5.77881 -0.2122,0.2122 -0.91232,-0.71826 -1.55582,-2.06769 z"
         id="path5220"
         transform="scale(0.26458333)" />
      <path
         style="fill:#ffffff;fill-rule:evenodd;stroke:#000000;stroke-width:3.71203;stroke-linecap:round;stroke-linejoin:round;stroke-miterlimit:4;stroke-dasharray:none;paint-order:stroke markers fill"
         d="m 223.38,873.85242 c -4.51719,-9.65301 -5.48527,-27.07071 -2.04592,-36.8102 0.8626,-2.44271 1.79741,-4.179 2.07734,-3.85841 0.27993,0.32059 1.21587,2.52381 2.07985,4.89605 1.4579,4.00291 1.51145,4.70527 0.74452,9.76471 -1.20331,7.93828 0.18307,16.92314 3.66413,23.74659 l 1.42349,2.79026 -2.20053,1.96617 c -1.21029,1.0814 -2.52782,1.96617 -2.92784,1.96617 -0.40003,0 -1.66679,-2.0076 -2.81504,-4.46134 z"
         id="path5259"
         transform="scale(0.26458333)" />
      <path
         style="fill:#ffffff;fill-rule:evenodd;stroke:#000000;stroke-width:3.71203;stroke-linecap:round;stroke-linejoin:round;stroke-miterlimit:4;stroke-dasharray:none;paint-order:stroke markers fill"
         d="m 239.17828,877.0406 c -10.10809,-6.36016 -13.71652,-23.94888 -7.63931,-37.23667 3.06357,-6.6985 7.03341,-9.89564 12.28723,-9.89564 7.99342,0 14.68045,9.17202 15.82295,21.70297 0.82266,9.02291 -2.87779,19.75417 -8.31964,24.12684 -3.42401,2.75129 -8.91353,3.33971 -12.15123,1.3025 z"
         id="path5298"
         transform="scale(0.26458333)" />
      <path
         style="fill:#ffffff;fill-rule:evenodd;stroke:#000000;stroke-width:3.71203;stroke-linecap:round;stroke-linejoin:round;stroke-miterlimit:4;stroke-dasharray:none;paint-order:stroke markers fill"
         d="m 76.115849,876.52723 c -7.587896,-3.39004 -11.893963,-13.30995 -11.039396,-25.43152 0.822445,-11.66592 6.780506,-20.48589 13.83862,-20.48589 7.272544,0 14.161837,9.38923 15.222362,20.74614 1.102745,11.80905 -5.531701,24.87949 -13.164842,25.93589 -1.372055,0.18989 -3.453861,-0.13786 -4.856744,-0.76462 z"
         id="path5337"
         transform="scale(0.26458333)" />
      <path
         style="fill:#ffffff;fill-rule:evenodd;stroke:#000000;stroke-width:3.71203;stroke-linecap:round;stroke-linejoin:round;stroke-miterlimit:4;stroke-dasharray:none;paint-order:stroke markers fill"
         d="m 58.30746,872.78175 c -2.276225,-4.85056 -2.676625,-6.52101 -3.250389,-13.56053 -0.402646,-4.94006 -0.404463,-10.16588 -0.0047,-13.58464 0.655854,-5.60918 2.528551,-12.22064 3.461499,-12.22064 0.278217,0 1.217967,2.01716 2.088334,4.48258 1.473308,4.17332 1.525379,4.87313 0.754742,10.14355 -1.12687,7.70671 0.05262,16.14804 3.092549,22.13262 l 2.195743,4.32267 -2.200868,1.9082 c -1.210477,1.04951 -2.502368,1.9082 -2.870869,1.9082 -0.368501,0 -1.838209,-2.4894 -3.266017,-5.53201 z"
         id="path5415"
         transform="scale(0.26458333)" />
      <path
         style="fill:#ffffff;fill-rule:evenodd;stroke:#000000;stroke-width:3.71203;stroke-linecap:round;stroke-linejoin:round;stroke-miterlimit:4;stroke-dasharray:none;paint-order:stroke markers fill"
         d="m 76.111308,890.32756 c -3.557779,-1.1667 -6.733544,-3.11745 -9.641476,-5.92239 -1.639823,-1.58174 -2.981497,-3.08838 -2.981497,-3.34809 0,-0.25971 1.127798,-1.33242 2.506217,-2.38379 l 2.506216,-1.91158 1.527573,1.39549 c 5.891176,5.38182 15.287461,4.78329 20.406072,-1.29983 1.027148,-1.2207 2.373596,-3.19805 2.992107,-4.39412 l 1.124566,-2.17467 2.124718,5.44073 2.124719,5.44074 -2.748612,2.81508 c -5.04925,5.17137 -14.421424,8.15234 -19.940603,6.34243 z"
         id="path5454"
         transform="scale(0.26458333)" />
      <path
         style="fill:#ffffff;fill-rule:evenodd;stroke:#000000;stroke-width:3.71203;stroke-linecap:round;stroke-linejoin:round;stroke-miterlimit:4;stroke-dasharray:none;paint-order:stroke markers fill"
         d="m 98.168969,872.81603 c -2.028336,-5.11965 -2.083929,-5.52647 -1.16605,-8.53284 1.204268,-3.94439 1.368426,-14.83599 0.281137,-18.65294 -0.71624,-2.51437 -0.607492,-3.4849 0.880783,-7.86061 2.728901,-8.02331 2.718531,-8.01896 5.149341,-2.15779 3.9611,9.55099 4.75365,20.24733 2.26836,30.61398 -1.30878,5.4592 -3.51425,10.87258 -4.73765,11.62868 -0.30032,0.18561 -1.504487,-2.08171 -2.675921,-5.03848 z"
         id="path5493"
         transform="scale(0.26458333)" />
      <path
         style="fill:#ffffff;fill-rule:evenodd;stroke:#000000;stroke-width:3.71203;stroke-linecap:round;stroke-linejoin:round;stroke-miterlimit:4;stroke-dasharray:none;paint-order:stroke markers fill"
         d="m 63.299531,837.88716 c -0.217474,-0.35188 -1.025187,-2.29722 -1.794917,-4.32299 l -1.39951,-3.68321 2.279079,-3.31859 c 8.711839,-12.68542 24.913112,-13.13123 35.14848,-0.96719 l 1.724823,2.04984 -1.920873,5.34081 c -1.056479,2.93744 -2.108733,5.34081 -2.33834,5.34081 -0.229608,0 -0.776801,-0.78865 -1.215986,-1.75256 -1.151533,-2.52734 -6.361846,-7.99137 -8.844524,-9.27522 -1.168505,-0.60425 -3.763536,-1.09865 -5.766736,-1.09865 -5.820631,0 -10.977942,3.68285 -14.420042,10.29738 -0.580826,1.11614 -1.23398,1.74145 -1.451454,1.38957 z"
         id="path5532"
         transform="scale(0.26458333)" />
      <path
         style="fill:#ffffff;fill-rule:evenodd;stroke:#000000;stroke-width:3.71203;stroke-linecap:round;stroke-linejoin:round;stroke-miterlimit:4;stroke-dasharray:none;paint-order:stroke markers fill"
         d="m 249.17378,1017.1936 c -5.67731,-0.89 -10.51658,-3.6845 -16.34008,-9.4358 -17.05924,-16.84778 -17.17889,-47.93641 -0.24998,-64.9546 5.39874,-5.42721 10.46669,-8.1279 17.22751,-9.18046 11.34428,-1.76614 19.68215,1.21099 28.72148,10.25534 13.43937,13.44682 16.29237,36.42203 6.79703,54.73637 -3.60522,6.95365 -11.7557,15.06895 -17.14785,17.07395 -4.69394,1.7453 -13.18651,2.4178 -19.00811,1.5052 z m 15.65493,-8.7471 c 9.10193,-4.6123 15.41121,-17.10531 15.41121,-30.51568 0,-13.71862 -6.00478,-25.3537 -15.54533,-30.12117 -8.45669,-4.22585 -17.89324,-2.48521 -24.3189,4.4858 -5.7102,6.19484 -8.5205,14.46134 -8.5205,25.06309 0,11.00847 3.06526,19.48051 9.45387,26.12946 3.64362,3.7922 6.80141,5.8259 10.53969,6.788 3.24015,0.8338 9.45183,-0.042 12.97996,-1.8295 z"
         id="path5571"
         transform="scale(0.26458333)" />
    </g>
  </g>
  <g
     inkscape:groupmode="layer"
     id="layer4"
     inkscape:label="Layer 4">
    <g
       id="g7554">
      <path
         style="display:inline;fill:#1c2422;fill-rule:evenodd;stroke:#000000;stroke-width:3.71203;stroke-linecap:round;stroke-linejoin:round;stroke-miterlimit:4;stroke-dasharray:none;paint-order:stroke markers fill"
         d="m 516.20005,1078.6778 c -29.39263,-1.9808 -53.61978,-3.78 -53.83811,-3.9983 -0.21833,-0.2184 -0.42082,-51.0405 -0.44997,-112.93809 l -0.053,-112.54108 -1.65668,-6.40107 c -4.75061,-18.35535 -3.84639,-42.45819 2.10307,-56.0593 1.34555,-3.07607 5.15416,-7.34682 6.54493,-7.3391 1.83854,0.0102 5.12781,3.20972 6.78777,6.60255 1.16103,2.37307 2.36836,3.91787 3.06213,3.91805 0.62994,1.6e-4 16.61405,1.57847 35.52025,3.50735 18.90619,1.92888 35.00627,3.50229 35.77796,3.49647 0.97731,-0.007 2.04167,-1.19342 3.50764,-3.90867 1.15752,-2.14396 2.9791,-4.42587 4.04794,-5.07091 1.75621,-1.05985 2.12627,-1.07014 3.84263,-0.10678 6.06547,3.40446 9.84226,16.1617 10.48428,35.41378 0.41315,12.38929 -0.17511,19.44824 -2.3831,28.59623 -1.166,4.83089 -1.13536,9.30891 0.71856,105.02495 1.06507,54.98842 2.13037,105.74022 2.36732,112.78182 l 0.43083,12.8029 -1.68665,-0.09 c -0.92766,-0.049 -25.73517,-1.7104 -55.1278,-3.6911 z m 10.9687,-11.4165 c 8.8705,-2.4597 16.72576,-8.516 20.16612,-15.5479 1.54546,-3.1588 1.90867,-4.8872 1.93257,-9.1966 l 0.0294,-5.3068 -32.4765,-0.5894 c -17.86207,-0.3242 -32.97051,-0.3998 -33.5743,-0.1681 -0.89322,0.3427 -1.04672,1.3677 -0.82371,5.5001 0.46654,8.6448 4.48656,15.3915 12.23585,20.5352 9.17426,6.0895 21.32849,7.8741 32.51054,4.7735 z m 2.23604,-47.2224 c 11.3879,-3.542 21.17078,-13.7269 25.5131,-26.5617 8.09712,-23.93304 -1.37859,-50.42741 -21.62313,-60.45898 -5.62371,-2.78666 -6.56229,-3.02729 -13.02123,-3.33831 -8.40772,-0.40486 -14.30943,1.10047 -20.82518,5.3118 -8.28336,5.3538 -15.41249,15.76389 -18.35612,26.80395 -1.68336,6.31344 -1.67053,20.42608 0.0242,26.65809 4.12449,15.16665 14.3806,27.02985 27.12479,31.37525 6.06764,2.0689 14.90472,2.1566 21.16354,0.2099 z M 519.14811,892.016 c 8.40568,-4.11252 15.87645,-14.76283 18.22323,-25.97899 1.35487,-6.47547 1.32543,-17.42601 -0.0638,-23.71348 -2.65017,-11.99461 -10.34924,-22.93382 -18.98988,-26.98171 -3.45737,-1.61968 -5.02852,-1.91945 -10.06024,-1.91945 -5.02416,0 -6.60461,0.30061 -10.03815,1.90933 -7.56475,3.54431 -14.45602,12.60599 -17.75405,23.3457 -2.03767,6.63547 -1.86723,22.7972 0.31442,29.81496 5.19745,16.71874 16.25719,26.41508 29.35279,25.7343 3.69514,-0.1921 6.0902,-0.77938 9.01565,-2.21066 z"
         id="path6198"
         transform="scale(0.26458333)" />
      <path
         style="display:inline;fill:#1c2422;fill-rule:evenodd;stroke:#000000;stroke-width:3.71203;stroke-linecap:round;stroke-linejoin:round;stroke-miterlimit:4;stroke-dasharray:none;paint-order:stroke markers fill"
         d="m 680.48271,1078.5742 c -29.70974,-2.0387 -54.12695,-3.7349 -54.26047,-3.7695 -0.13352,-0.035 -0.0176,-50.3362 0.2576,-111.78136 l 0.50037,-111.71843 -1.81856,-7.36605 c -2.58992,-10.49047 -3.51569,-19.82231 -3.06131,-30.85835 0.7192,-17.4679 4.6339,-29.93354 10.36324,-32.99979 2.61455,-1.39926 6.27958,1.85269 8.91618,7.91124 0.46527,1.06913 1.39709,1.9292 2.09013,1.9292 0.68782,0 16.64933,1.57844 35.47003,3.50765 18.8207,1.9292 34.93041,3.50764 35.79934,3.50764 1.21639,0 2.01175,-0.88055 3.45693,-3.82722 3.51925,-7.1756 7.42667,-7.69447 11.5579,-1.53478 7.45704,11.11848 9.54453,42.06092 4.17162,61.83505 -0.81477,2.99862 -0.67472,17.50572 0.96501,99.96782 1.05495,53.05308 2.10318,103.79988 2.32939,112.77068 l 0.4113,16.3106 -1.5655,-0.089 c -0.86103,-0.049 -25.87347,-1.7569 -55.5832,-3.7955 z m 11.54526,-11.3129 c 8.87133,-2.46 16.4291,-8.2764 20.04792,-15.4289 1.68347,-3.3273 2.02567,-4.8807 2.05044,-9.3081 l 0.0297,-5.3143 -32.4765,-0.5894 c -17.86207,-0.3242 -32.93616,-0.413 -33.49798,-0.1974 -0.73504,0.2821 -1.0215,1.5559 -1.0215,4.5426 0,19.2192 22.60676,32.4682 44.86787,26.2955 z m 2.25248,-47.2785 c 16.83272,-5.6705 27.93117,-22.87529 28.03198,-43.45504 0.0597,-12.18603 -2.92251,-21.95386 -9.52952,-31.21276 -11.49238,-16.10513 -32.58589,-20.59314 -48.48619,-10.31628 -8.42662,5.44638 -15.32624,15.28719 -18.29611,26.09541 -1.79302,6.52529 -1.76856,21.79131 0.045,28.06115 3.12517,10.80463 10.67969,21.54162 18.84201,26.77962 8.53157,5.475 20.33246,7.1001 29.39287,4.0479 z M 683.76549,892.13431 c 7.32219,-3.58241 13.93477,-11.97613 17.20015,-21.83312 1.6643,-5.02387 1.88188,-6.78219 1.91666,-15.48863 0.0448,-11.22975 -0.89768,-15.77095 -4.99677,-24.0749 -3.15677,-6.395 -9.02993,-12.51524 -14.66524,-15.28221 -3.58461,-1.76007 -4.94336,-2.03308 -10.11838,-2.03308 -5.34189,0 -6.47667,0.24562 -10.66814,2.30908 -8.35626,4.11377 -14.43705,12.73787 -17.48787,24.80222 -1.25039,4.94463 -1.41113,7.14889 -1.09017,14.95002 0.42429,10.31297 1.64621,15.13697 5.70418,22.51953 4.23192,7.69904 10.39462,13.16921 17.42092,15.46325 4.5847,1.49687 12.24499,0.8889 16.78466,-1.33216 z"
         id="path6237"
         transform="scale(0.26458333)" />
      <path
         style="display:inline;fill:#374548;fill-rule:evenodd;stroke:#000000;stroke-width:3.71203;stroke-linecap:round;stroke-linejoin:round;stroke-miterlimit:4;stroke-dasharray:none;paint-order:stroke markers fill"
         d="m 671.19766,1065.2419 c -12.1759,-3.2791 -20.57542,-12.079 -21.68779,-22.7216 l -0.44074,-4.2167 29.03583,0.367 c 15.96971,0.2019 30.06182,0.5225 31.3158,0.7127 2.23939,0.3395 2.27997,0.4113 2.27997,4.0345 0,9.1623 -8.6216,18.1031 -20.9978,21.7751 -4.68645,1.3905 -14.43337,1.415 -19.50527,0.049 z"
         id="path6391"
         transform="scale(0.26458333)" />
      <path
         style="display:inline;fill:#374548;fill-rule:evenodd;stroke:#000000;stroke-width:3.71203;stroke-linecap:round;stroke-linejoin:round;stroke-miterlimit:4;stroke-dasharray:none;paint-order:stroke markers fill"
         d="m 506.22626,1065.2132 c -7.21923,-1.9413 -14.70396,-7.0572 -18.0273,-12.3217 -1.81939,-2.8821 -3.79349,-9.4602 -3.79349,-12.6407 v -1.9258 l 28.93806,0.3559 c 15.91593,0.1957 29.96404,0.5116 31.21802,0.7019 2.23701,0.3396 2.27984,0.4149 2.27311,3.9973 -0.0174,9.2706 -8.52884,18.1153 -20.99095,21.8128 -4.72403,1.4016 -14.44351,1.4117 -19.61745,0.02 z"
         id="path6430"
         transform="scale(0.26458333)" />
      <path
         style="display:inline;fill:#374548;fill-rule:evenodd;stroke:#000000;stroke-width:3.71203;stroke-linecap:round;stroke-linejoin:round;stroke-miterlimit:4;stroke-dasharray:none;paint-order:stroke markers fill"
         d="m 680.44444,987.29387 c -1.89361,-2.04324 -3.82014,-7.65756 -3.82014,-11.13271 0,-3.33767 1.81923,-8.70986 3.58655,-10.59108 3.30667,-3.51979 7.54299,-1.26485 9.43511,5.02219 1.29194,4.2928 1.27582,7.58817 -0.0591,12.08338 -1.11536,3.75583 -3.66923,6.47963 -6.07537,6.47963 -0.73807,0 -2.11824,-0.83764 -3.06704,-1.86141 z"
         id="path6469"
         transform="scale(0.26458333)" />
      <path
         style="display:inline;fill:#374548;fill-rule:evenodd;stroke:#000000;stroke-width:3.71203;stroke-linecap:round;stroke-linejoin:round;stroke-miterlimit:4;stroke-dasharray:none;paint-order:stroke markers fill"
         d="m 516.02923,987.65287 c -6.51229,-6.06712 -4.46387,-23.75262 2.75114,-23.75262 6.94337,0 9.58592,16.21575 3.76909,23.12866 -2.10988,2.50744 -4.27604,2.71474 -6.52023,0.62396 z"
         id="path6508"
         transform="scale(0.26458333)" />
      <path
         style="display:inline;fill:#374548;fill-rule:evenodd;stroke:#000000;stroke-width:3.71203;stroke-linecap:round;stroke-linejoin:round;stroke-miterlimit:4;stroke-dasharray:none;paint-order:stroke markers fill"
         d="m 509.51858,1017.265 c -11.92639,-3.8134 -21.43884,-14.2915 -25.74542,-28.359 -1.87821,-6.13522 -2.06579,-20.04902 -0.3594,-26.65831 4.52048,-17.50896 19.08256,-29.91623 35.11188,-29.91623 20.37387,0 36.75937,19.53488 36.72385,43.78237 -0.006,3.89315 -0.49287,9.12564 -1.08258,11.62775 -3.25755,13.82142 -13.67037,25.82692 -25.62894,29.54882 -5.48375,1.7067 -13.63605,1.6958 -19.01939,-0.025 z m 18.0309,-8.8369 c 13.93578,-6.7274 19.51966,-31.25693 11.05195,-48.55025 -4.43599,-9.05947 -11.63751,-14.22924 -19.78341,-14.20194 -9.95278,0.0334 -17.0076,6.47139 -21.50778,19.6274 -1.9706,5.76092 -1.85659,18.30377 0.22663,24.93339 2.86042,9.10296 8.93125,16.406 15.85292,19.0705 3.17436,1.222 10.78622,0.7494 14.15969,-0.8791 z"
         id="path6547"
         transform="scale(0.26458333)" />
      <path
         style="display:inline;fill:#374548;fill-rule:evenodd;stroke:#000000;stroke-width:3.71203;stroke-linecap:round;stroke-linejoin:round;stroke-miterlimit:4;stroke-dasharray:none;paint-order:stroke markers fill"
         d="m 673.65803,1016.9746 c -11.80813,-4.0242 -21.94757,-15.5548 -25.42788,-28.91662 -1.43445,-5.50723 -1.43593,-20.32523 -0.003,-25.93954 3.45051,-13.51546 13.62843,-24.79865 25.66818,-28.45561 7.64228,-2.32127 15.45304,-1.73903 22.67406,1.69022 10.13074,4.81107 18.66232,15.40076 21.86866,27.14414 1.72716,6.32583 1.76621,20.42305 0.0737,26.60741 -3.69427,13.4988 -13.09642,24.0846 -24.93324,28.0721 -5.93717,2.0001 -13.68998,1.9214 -19.92089,-0.2021 z m 18.16903,-8.4762 c 11.67394,-5.4354 18.11454,-22.74595 14.61282,-39.27526 -3.06271,-14.45705 -11.8737,-23.56263 -22.80029,-23.56263 -8.179,0 -14.79693,4.6879 -19.14037,13.55837 -8.05781,16.4562 -3.26179,40.18402 9.74738,48.22412 5.27676,3.2612 11.9788,3.6636 17.58046,1.0554 z"
         id="path6586"
         transform="scale(0.26458333)" />
      <path
         style="display:inline;fill:#374548;fill-rule:evenodd;stroke:#000000;stroke-width:3.71203;stroke-linecap:round;stroke-linejoin:round;stroke-miterlimit:4;stroke-dasharray:none;paint-order:stroke markers fill"
         d="m 667.15367,876.99697 c -7.63242,-4.7564 -12.09582,-17.08153 -10.24481,-28.28981 2.49189,-15.089 11.52697,-22.49758 20.80544,-17.06004 13.45459,7.88492 13.09935,38.55719 -0.52901,45.67698 -2.6691,1.3944 -7.52316,1.23611 -10.03162,-0.32713 z"
         id="path6625"
         transform="scale(0.26458333)" />
      <path
         style="display:inline;fill:#374548;fill-rule:evenodd;stroke:#000000;stroke-width:3.71203;stroke-linecap:round;stroke-linejoin:round;stroke-miterlimit:4;stroke-dasharray:none;paint-order:stroke markers fill"
         d="m 690.8442,872.64548 c -1.69051,-4.42842 -2.03314,-6.12392 -1.56642,-7.7513 1.19852,-4.179 1.51035,-11.58979 0.70987,-16.87058 -0.79256,-5.22858 -0.75519,-5.54526 1.3625,-11.54512 1.19758,-3.39299 2.29905,-6.29072 2.44772,-6.43939 0.14867,-0.14867 1.10141,1.36979 2.11721,3.37436 4.53575,8.95087 5.83857,22.14318 3.20404,32.44408 -1.38213,5.40406 -4.52184,12.45623 -5.54567,12.45623 -0.31099,0 -1.53915,-2.55072 -2.72925,-5.66828 z"
         id="path6664"
         transform="scale(0.26458333)" />
      <path
         style="display:inline;fill:#374548;fill-rule:evenodd;stroke:#000000;stroke-width:3.71203;stroke-linecap:round;stroke-linejoin:round;stroke-miterlimit:4;stroke-dasharray:none;paint-order:stroke markers fill"
         d="m 667.85519,890.00721 c -3.51841,-1.15907 -7.83346,-3.89853 -10.35496,-6.57397 l -1.93662,-2.05485 1.58586,-1.39022 c 3.81295,-3.34258 3.96334,-3.39216 5.64021,-1.85943 2.71423,2.48092 5.93142,3.69267 9.80403,3.69267 4.95076,0 9.54329,-2.82732 12.61254,-7.7647 l 2.20423,-3.54587 1.93625,4.77837 c 1.06494,2.62811 1.95278,5.30969 1.97296,5.95908 0.048,1.54378 -5.13954,5.76107 -9.41024,7.6502 -4.17362,1.84619 -10.33916,2.33258 -14.05426,1.10872 z"
         id="path6703"
         transform="scale(0.26458333)" />
      <path
         style="display:inline;fill:#374548;fill-rule:evenodd;stroke:#000000;stroke-width:3.71203;stroke-linecap:round;stroke-linejoin:round;stroke-miterlimit:4;stroke-dasharray:none;paint-order:stroke markers fill"
         d="m 651.84434,876.00723 c -6.07601,-10.36792 -7.42873,-25.97629 -3.29306,-37.99684 2.28643,-6.64563 2.38662,-6.66498 4.50047,-0.86916 1.8145,4.97505 1.87404,5.52702 1.16016,10.75622 -1.13674,8.32664 0.27257,17.23893 3.8067,24.0732 1.28779,2.4903 0.97142,3.21232 -2.48646,5.67455 l -1.92472,1.37052 z"
         id="path6742"
         transform="scale(0.26458333)" />
      <path
         style="display:inline;fill:#374548;fill-rule:evenodd;stroke:#000000;stroke-width:3.71203;stroke-linecap:round;stroke-linejoin:round;stroke-miterlimit:4;stroke-dasharray:none;paint-order:stroke markers fill"
         d="m 686.39331,836.78723 c -1.20895,-2.93114 -5.88358,-8.0506 -8.66391,-9.48837 -3.33061,-1.72232 -8.86235,-1.41896 -12.44853,0.68268 -3.62271,2.12306 -4.80671,3.36554 -7.15482,7.50826 l -1.77192,3.12615 -1.44311,-3.36663 c -2.59212,-6.04717 -2.5788,-6.14947 1.36245,-10.46182 5.09035,-5.56965 9.99451,-7.85749 16.84319,-7.85749 6.32846,0 10.1665,1.62902 15.59215,6.61792 l 3.58538,3.29676 -1.98546,5.56559 c -1.092,3.06108 -2.20449,5.81992 -2.4722,6.13077 -0.26771,0.31084 -0.91716,-0.47838 -1.44322,-1.75382 z"
         id="path6781"
         transform="scale(0.26458333)" />
      <path
         style="display:inline;fill:#374548;fill-rule:evenodd;stroke:#000000;stroke-width:3.71203;stroke-linecap:round;stroke-linejoin:round;stroke-miterlimit:4;stroke-dasharray:none;paint-order:stroke markers fill"
         d="m 489.77149,834.14011 -1.89053,-5.10037 2.56156,-3.12604 c 7.00788,-8.55219 17.34131,-11.39064 26.58387,-7.30221 3.91076,1.72991 11.12296,8.37369 10.28037,9.47013 -0.32731,0.42591 -1.33312,2.90527 -2.23513,5.5097 -0.90201,2.60442 -1.81841,4.72015 -2.03644,4.70161 -0.21802,-0.0186 -1.48808,-1.75742 -2.82236,-3.86417 -5.16316,-8.15239 -12.60854,-10.47883 -20.02967,-6.25861 -2.75776,1.56827 -6.79149,6.39462 -7.94056,9.50085 -0.49921,1.34949 -0.84557,0.85459 -2.47111,-3.53089 z"
         id="path6820"
         transform="scale(0.26458333)" />
      <path
         style="display:inline;fill:#374548;fill-rule:evenodd;stroke:#000000;stroke-width:3.71203;stroke-linecap:round;stroke-linejoin:round;stroke-miterlimit:4;stroke-dasharray:none;paint-order:stroke markers fill"
         d="m 528.04366,877.61223 c -0.37615,-0.9646 -1.47495,-3.69661 -2.44178,-6.07113 -1.67806,-4.1213 -1.71406,-4.50351 -0.793,-8.41834 1.16364,-4.94592 1.24348,-10.22884 0.24153,-15.98245 -0.70445,-4.04525 -0.61572,-4.63845 1.62083,-10.83561 2.30633,-6.3905 2.39278,-6.51419 3.42292,-4.8978 3.56778,5.5982 5.48651,13.52541 5.49538,22.70413 0.008,8.42158 -1.24393,14.18025 -4.4627,20.52536 -2.28552,4.50542 -2.4317,4.64651 -3.08318,2.97584 z"
         id="path6859"
         transform="scale(0.26458333)" />
      <path
         style="display:inline;fill:#374548;fill-rule:evenodd;stroke:#000000;stroke-width:3.71203;stroke-linecap:round;stroke-linejoin:round;stroke-miterlimit:4;stroke-dasharray:none;paint-order:stroke markers fill"
         d="m 502.26455,877.00687 c -7.44279,-4.53876 -11.89655,-16.91913 -10.1925,-28.33269 1.02856,-6.88916 4.36763,-13.42504 8.44398,-16.52822 2.89123,-2.20098 3.44378,-2.36196 7.1799,-2.09171 3.17597,0.22973 4.60052,0.74028 6.61512,2.37083 10.16458,8.22688 11.59709,30.4117 2.63948,40.87666 -1.38608,1.61933 -3.41985,3.40948 -4.51949,3.97813 -2.75912,1.4268 -7.59191,1.29702 -10.16649,-0.273 z"
         id="path6898"
         transform="scale(0.26458333)" />
      <path
         style="display:inline;fill:#374548;fill-rule:evenodd;stroke:#000000;stroke-width:3.71203;stroke-linecap:round;stroke-linejoin:round;stroke-miterlimit:4;stroke-dasharray:none;paint-order:stroke markers fill"
         d="m 504.35557,890.32454 c -3.34319,-0.86403 -9.07586,-4.21547 -11.51473,-6.73175 l -2.21267,-2.28289 2.77902,-2.20103 2.77902,-2.20103 3.65077,2.45679 c 3.06034,2.05945 4.26788,2.45678 7.46662,2.45678 5.92187,0 9.52152,-2.2548 13.72321,-8.59614 l 1.74469,-2.63313 2.14542,5.43925 2.14543,5.43925 -2.12511,2.22951 c -4.89586,5.13637 -14.44593,8.21015 -20.58167,6.62439 z"
         id="path6937"
         transform="scale(0.26458333)" />
      <path
         style="display:inline;fill:#374548;fill-rule:evenodd;stroke:#000000;stroke-width:3.71203;stroke-linecap:round;stroke-linejoin:round;stroke-miterlimit:4;stroke-dasharray:none;paint-order:stroke markers fill"
         d="m 486.21336,873.93972 c -3.45856,-7.08383 -4.6158,-12.2376 -4.60363,-20.50223 0.0108,-7.35138 1.0744,-13.28686 3.33226,-18.59616 l 1.33301,-3.13455 2.12507,5.58215 c 1.66781,4.38102 1.995,6.03567 1.52058,7.68985 -0.95213,3.31989 -0.69014,15.06155 0.42999,19.27059 0.55979,2.10352 1.76126,5.2604 2.66992,7.01528 l 1.65211,3.19071 -2.08802,1.75382 c -3.76365,3.16124 -3.71063,3.18012 -6.37129,-2.26946 z"
         id="path6976"
         transform="scale(0.26458333)" />
      <path
         style="display:inline;fill:#37483e;fill-rule:evenodd;stroke:#000000;stroke-width:3.71203;stroke-linecap:round;stroke-linejoin:round;stroke-miterlimit:4;stroke-dasharray:none;paint-order:stroke markers fill"
         d="m 677.67659,789.1744 c -17.74867,-1.86922 -32.77482,-3.41295 -33.39144,-3.4305 -0.61662,-0.0176 -1.68144,-1.27445 -2.36626,-2.7931 -1.51393,-3.3573 -5.00706,-7.06021 -6.66023,-7.06021 -0.87623,0 -2.79681,-3.30074 -6.93205,-11.91352 -3.146,-6.55244 -5.72001,-12.09241 -5.72001,-12.31105 0,-0.21864 1.34167,-1.00653 2.9815,-1.75088 2.86459,-1.30028 5.15453,-1.35323 58.40225,-1.35036 50.95165,0.003 55.63703,0.10051 58.10275,1.21227 l 2.68199,1.20928 -10.39818,15.91318 c -8.04857,12.31738 -10.90968,16.15709 -12.6618,16.99262 -1.46548,0.69884 -3.03529,2.44678 -4.45215,4.9573 -2.05218,3.63627 -2.34823,3.87304 -4.75229,3.8007 -1.41007,-0.0424 -17.0854,-1.60651 -34.83408,-3.47573 z"
         id="path7128"
         transform="scale(0.26458333)" />
      <path
         style="display:inline;fill:#37483e;fill-rule:evenodd;stroke:#000000;stroke-width:3.71203;stroke-linecap:round;stroke-linejoin:round;stroke-miterlimit:4;stroke-dasharray:none;paint-order:stroke markers fill"
         d="m 625.27499,1096.4607 c -3.02526,-1.5977 -5.49445,-4.6249 -7.73342,-9.4808 l -1.59949,-3.469 V 923.19684 762.88281 l 2.36997,-4.81409 2.36997,-4.81409 5.40948,11.1426 5.40948,11.1426 -2.39169,2.68708 c -8.65862,9.72805 -11.84582,39.67952 -6.69396,62.90584 l 1.94509,8.76911 -0.27872,112.37593 c -0.21908,88.32741 -0.0926,112.82531 0.591,114.47561 1.07406,2.5931 -3.96302,2.0636 57.56383,6.0508 26.43009,1.7128 49.99633,3.3045 52.36943,3.5372 l 4.31472,0.4231 0.44093,-2.6791 c 0.24251,-1.4735 -0.19064,-32.3538 -0.96254,-68.6228 -2.96096,-139.12384 -3.17565,-157.33003 -1.92371,-163.13579 5.40508,-25.06576 1.71958,-57.34014 -7.69534,-67.38894 l -1.7112,-1.82641 9.67879,-14.82119 c 5.32333,-8.15166 9.89577,-14.82736 10.16097,-14.83489 0.2652,-0.008 1.52795,2.11055 2.80612,4.70687 l 2.32392,4.72056 v 160.31403 160.31406 l -1.59948,3.469 c -2.28098,4.947 -4.73539,7.9095 -7.88384,9.5157 -2.66717,1.3607 -4.17627,1.3958 -58.71238,1.3656 -54.13228,-0.03 -56.06021,-0.076 -58.56793,-1.4005 z"
         id="path7167"
         transform="scale(0.26458333)" />
      <path
         style="display:inline;fill:#37483e;fill-rule:evenodd;stroke:#000000;stroke-width:3.71203;stroke-linecap:round;stroke-linejoin:round;stroke-miterlimit:4;stroke-dasharray:none;paint-order:stroke markers fill"
         d="m 513.16815,789.18537 c -17.55576,-1.86059 -32.55093,-3.40814 -33.32261,-3.439 -0.96553,-0.0386 -2.06999,-1.31061 -3.54179,-4.07904 -1.56126,-2.93669 -2.85277,-4.37618 -4.7832,-5.33124 -2.41004,-1.19235 -3.13864,-2.33857 -8.21926,-12.93042 -4.2288,-8.81598 -5.36056,-11.77208 -4.68744,-12.2433 3.76481,-2.63563 3.66739,-2.63139 60.48056,-2.63139 48.97432,0 55.39089,0.12506 57.89864,1.12846 1.55117,0.62066 2.82031,1.2354 2.82031,1.36609 0,0.13069 -4.58823,7.27577 -10.19607,15.87795 -7.26498,11.14416 -10.80262,15.95399 -12.30602,16.73142 -2.09713,1.08447 -6.25183,6.53911 -6.25758,8.21547 -0.004,1.2707 -2.22126,1.11476 -37.88554,-2.665 z"
         id="path7206"
         transform="scale(0.26458333)" />
      <path
         style="display:inline;fill:#37483e;fill-rule:evenodd;stroke:#000000;stroke-width:3.71203;stroke-linecap:round;stroke-linejoin:round;stroke-miterlimit:4;stroke-dasharray:none;paint-order:stroke markers fill"
         d="m 460.20274,1096.2869 c -2.99905,-1.691 -6.76152,-6.679 -8.22025,-10.8978 -1.17376,-3.3947 -1.70264,-315.52676 -0.54403,-321.07373 0.40296,-1.9292 1.57006,-5.23258 2.59357,-7.34085 l 1.86092,-3.8332 5.39218,11.19925 5.39218,11.19926 -1.93399,2.10458 c -2.77862,3.02373 -4.67561,7.16021 -6.62608,14.44847 -3.89623,14.55897 -4.1069,32.42361 -0.5659,47.98758 l 1.91529,8.41834 0.36805,114.81691 c 0.20243,63.14929 0.57755,115.02639 0.83359,115.28239 0.5702,0.5701 113.04114,8.0914 113.53286,7.5923 0.55547,-0.5638 0.19215,-34.0664 -0.99525,-91.77366 -2.70897,-131.65562 -2.7305,-134.4787 -1.09373,-143.46259 4.48187,-24.60001 1.02101,-55.2354 -7.34389,-65.0079 l -2.40636,-2.8113 9.13297,-13.96972 c 5.02314,-7.68335 9.41938,-14.44326 9.76943,-15.02202 0.9681,-1.60068 3.16306,1.52079 4.86164,6.9138 1.38724,4.40448 1.40423,6.36705 1.40423,162.15458 0,155.07261 -0.0231,157.77081 -1.38613,162.18391 -0.81609,2.6422 -2.39334,5.6645 -3.83525,7.349 -4.69489,5.485 -0.55646,5.1491 -63.28367,5.1362 l -56.01627,-0.012 z"
         id="path7245"
         transform="scale(0.26458333)" />
      <path
         style="display:inline;fill:#dde9af;fill-rule:evenodd;stroke:#000000;stroke-width:3.71203;stroke-linecap:round;stroke-linejoin:round;stroke-miterlimit:4;stroke-dasharray:none;paint-order:stroke markers fill"
         d="m 677.5139,1006.0165 c -6.75587,-3.0667 -12.19279,-11.36772 -13.98872,-21.35762 -3.37992,-18.80086 6.27672,-36.16145 20.11441,-36.16145 4.80987,0 8.79129,1.7452 12.54501,5.49892 9.41488,9.41488 11.65006,28.42416 4.89837,41.65856 -4.93815,9.67959 -15.16613,14.17609 -23.56907,10.36159 z m 9.12426,-14.85964 c 7.50705,-4.01765 8.18434,-22.01207 1.07771,-28.6329 -2.42395,-2.25826 -6.54605,-1.93827 -9.01002,0.69942 -2.78728,2.9838 -3.8106,6.45033 -3.8239,12.95362 -0.0229,11.21517 5.54175,18.30574 11.75621,14.97986 z"
         id="path7321"
         transform="scale(0.26458333)" />
      <path
         style="display:inline;fill:#dde9af;fill-rule:evenodd;stroke:#000000;stroke-width:3.71203;stroke-linecap:round;stroke-linejoin:round;stroke-miterlimit:4;stroke-dasharray:none;paint-order:stroke markers fill"
         d="m 512.69305,1005.9434 c -4.1232,-2.041 -9.07722,-7.61402 -11.67877,-13.13806 -2.17637,-4.62123 -2.21469,-4.88391 -2.22102,-15.22528 -0.006,-10.5072 -0.003,-10.53054 2.3783,-15.61103 2.59515,-5.53701 7.44101,-10.73844 11.63814,-12.49212 6.20539,-2.59277 14.7906,-0.18407 19.67259,5.51943 4.65604,5.43954 8.0015,14.92986 8.03329,22.78867 0.0193,4.7627 -2.02221,13.3758 -4.18656,17.66336 -2.20124,4.36064 -7.23535,9.41503 -10.90396,10.94783 -3.51264,1.4677 -9.26548,1.2631 -12.73201,-0.4528 z m 10.87192,-16.06842 c 5.67727,-5.67727 5.78277,-20.62078 0.18786,-26.61015 -2.84163,-3.04197 -7.06343,-3.08463 -9.85193,-0.0995 -2.41236,2.58244 -3.88963,7.52426 -3.88963,13.01171 0,12.26445 7.45394,19.79774 13.5537,13.69798 z"
         id="path7360"
         transform="scale(0.26458333)" />
      <g
         id="g4590"
         transform="matrix(0.6101702,0,0,0.9879167,108.68047,189.39816)"
         style="display:inline">
        <g
           id="g4562"
           transform="matrix(0.47228044,0,0,0.42546119,8.6922054,-1.6746388)">
          <g
             id="g4554"
             transform="matrix(1,0,0.01393298,1,6.3620268,9.9796741)">
            <path
               id="path4538"
               style="fill:none;fill-rule:evenodd;stroke:#000000;stroke-width:1.32207;stroke-linecap:round;stroke-linejoin:round;paint-order:stroke markers fill"
               d="M 93.215769,158.90018 A 20.641219,19.606493 0 0 1 72.57455,178.50669 20.641219,19.606493 0 0 1 51.93333,158.90018 20.641219,19.606493 0 0 1 72.57455,139.2937 20.641219,19.606493 0 0 1 93.215769,158.90018 Z m -13.461668,-0.93364 a 7.4039152,8.9629678 0 0 1 -7.403916,8.96296 7.4039152,8.9629678 0 0 1 -7.403914,-8.96296 7.4039152,8.9629678 0 0 1 7.403914,-8.96296 7.4039152,8.9629678 0 0 1 7.403916,8.96296 z m 27.372039,-0.56018 a 35.000327,28.196002 0 0 1 -35.000311,28.19599 35.000327,28.196002 0 0 1 -35.000327,-28.19599 35.000327,28.196002 0 0 1 35.000327,-28.19601 35.000327,28.196002 0 0 1 35.000311,28.19601 z" />
            <g
               id="g4550">
              <path
                 id="path4540"
                 style="fill:none;fill-rule:evenodd;stroke:#000000;stroke-width:1.813;stroke-linecap:round;stroke-linejoin:round;paint-order:stroke markers fill"
                 d="M 90.300251,80.744637 A 26.339611,24.525124 0 0 1 63.96064,105.26976 26.339611,24.525124 0 0 1 37.621029,80.744637 26.339611,24.525124 0 0 1 63.96064,56.219513 26.339611,24.525124 0 0 1 90.300251,80.744637 Z M 78.476527,80.971443 A 15.649943,16.557186 0 0 1 62.826584,97.528629 15.649943,16.557186 0 0 1 47.176641,80.971443 15.649943,16.557186 0 0 1 62.826584,64.414257 15.649943,16.557186 0 0 1 78.476527,80.971443 Z" />
              <path
                 style="color:#000000;fill:#000000;-inkscape-stroke:none"
                 d="m 44.345703,64.636719 -1.197266,0.648437 5.042969,9.339844 1.199219,-0.648438 z"
                 id="path4542" />
              <path
                 style="color:#000000;fill:#000000;-inkscape-stroke:none"
                 d="m 81.529297,64.636719 -5.042969,9.339843 1.197266,0.648438 5.044922,-9.339844 z"
                 id="path4544" />
              <path
                 style="color:#000000;fill:#000000;-inkscape-stroke:none"
                 d="m 53.199219,92.882812 -9.238282,5.226563 0.669922,1.185547 9.240235,-5.226563 z"
                 id="path4546" />
              <path
                 style="color:#000000;fill:#000000;-inkscape-stroke:none"
                 d="m 77.287109,88.867187 -1.185547,0.669922 5.226563,9.238282 1.185547,-0.669922 z"
                 id="path4548" />
            </g>
            <path
               id="path4552"
               style="color:#000000;fill:#000000;stroke-width:0.741401;-inkscape-stroke:none"
               d="m 38.739262,196.02514 c -1.23925,4.20869 0.457163,8.65261 4.662865,12.21451 4.205701,3.56191 10.854204,6.18676 18.275325,7.21364 7.421122,1.02688 15.498989,0.43999 22.201438,-1.61252 6.702448,-2.05252 11.924364,-5.53939 14.35503,-9.58321 1.436997,-2.39071 1.91355,-4.95606 1.384316,-7.46022 l -1.44442,0.0952 c 0.503819,2.3839 0.04958,4.83178 -1.318398,7.10765 -2.310801,3.84442 -7.304516,7.17769 -13.676442,9.12899 -6.371925,1.95129 -14.095439,2.51306 -21.150597,1.53681 -7.055158,-0.97624 -13.414248,-3.48562 -17.412551,-6.87188 -3.998302,-3.38625 -5.619976,-7.63584 -4.441838,-11.63699 z m 0.734814,-0.33959 -0.03296,0.81113 59.438431,0.75381 0.03296,-0.81114 z m -21.447918,24.53035 -0.02171,2.16757 103.684832,4.70558 0.0217,-2.17047 z M 120.00261,82.804939 l -1.01634,0.06945 2.20502,143.167051 1.0177,-0.0723 z m -7.82002,-46.300448 c -1.09082,-0.146823 -2.19123,0.0034 -3.26479,0.457245 -2.1471,0.907727 -4.17392,3.020398 -5.82939,6.07442 l 0.66625,1.640875 c 1.51982,-2.80376 3.39009,-4.751998 5.36126,-5.585341 1.97116,-0.833343 4.04919,-0.55364 5.95558,0.801627 1.9064,1.355267 3.64698,3.788304 4.98946,6.977335 1.34248,3.18903 2.29087,7.142026 2.71794,11.329848 0.4356,4.27132 0.32972,8.801189 -0.30259,12.959149 -0.63231,4.157961 -1.79231,7.956673 -3.32043,10.86971 l 0.67712,1.620617 c 1.66463,-3.173275 2.92337,-7.289509 3.61216,-11.818929 0.6888,-4.529418 0.80288,-9.437784 0.32837,-14.090686 -0.46519,-4.561622 -1.49309,-8.845905 -2.9554,-12.319583 -1.46231,-3.47368 -3.34848,-6.111724 -5.42503,-7.587959 -1.03828,-0.738119 -2.1197,-1.181503 -3.21051,-1.328328 z m -75.871719,1.562738 -0.03392,2.167574 67.127619,4.705579 0.0339,-2.167576 z M 19.71283,78.099363 17.506452,221.26351 l 1.017702,0.0723 2.205021,-143.164153 z m 7.820022,-46.300449 c -1.090816,0.146822 -2.172232,0.59021 -3.210511,1.328326 -2.076556,1.476235 -3.962718,4.117178 -5.425029,7.590855 -1.462311,3.473678 -2.490213,7.75507 -2.955407,12.316689 -0.474503,4.652901 -0.360415,9.561268 0.328379,14.090686 0.688793,4.529419 1.947526,8.645654 3.612163,11.818928 l 0.677111,-1.617723 C 19.031437,74.413639 17.871441,70.612034 17.239136,66.454072 16.60683,62.296109 16.50095,57.769137 16.936539,53.497817 c 0.427074,-4.187821 1.375459,-8.140818 2.717942,-11.329848 1.342484,-3.189031 3.08306,-5.624963 4.989454,-6.98023 1.906395,-1.355265 3.984431,-1.634969 5.955593,-0.801626 1.97116,0.833344 3.841428,2.781579 5.361253,5.585341 l 0.666256,-1.640875 C 34.971555,35.27656 32.944744,33.163884 30.79764,32.25616 29.724088,31.802297 28.623668,31.652088 27.532852,31.798914 Z" />
          </g>
          <rect
             style="fill:none;fill-rule:evenodd;stroke:#000000;stroke-width:1.48779;stroke-linecap:round;stroke-linejoin:round;stroke-miterlimit:4;stroke-dasharray:none;paint-order:stroke markers fill"
             id="rect4556"
             width="127.89849"
             height="221.79814"
             x="17.249014"
             y="23.599716"
             ry="14.542159" />
          <path
             style="color:#000000;fill:#000000;-inkscape-stroke:none"
             d="m 137.76172,25.763672 -19.37305,20.326172 1.10742,1.05664 19.37305,-20.326172 z"
             id="path4558" />
          <path
             style="color:#000000;fill:#000000;-inkscape-stroke:none"
             d="m 23.322266,25.251953 -0.857422,0.603516 11.402343,16.193359 0.857422,-0.603516 z"
             id="path4560" />
        </g>
        <g
           id="g4588"
           transform="matrix(0.47228044,0,0,0.42546119,80.129749,-1.6746388)">
          <g
             id="g4580"
             transform="matrix(1,0,0.01393298,1,6.3620268,9.9796741)">
            <path
               id="path4564"
               style="fill:none;fill-rule:evenodd;stroke:#000000;stroke-width:1.32207;stroke-linecap:round;stroke-linejoin:round;paint-order:stroke markers fill"
               d="M 93.215769,158.90018 A 20.641219,19.606493 0 0 1 72.57455,178.50669 20.641219,19.606493 0 0 1 51.93333,158.90018 20.641219,19.606493 0 0 1 72.57455,139.2937 20.641219,19.606493 0 0 1 93.215769,158.90018 Z m -13.461668,-0.93364 a 7.4039152,8.9629678 0 0 1 -7.403916,8.96296 7.4039152,8.9629678 0 0 1 -7.403914,-8.96296 7.4039152,8.9629678 0 0 1 7.403914,-8.96296 7.4039152,8.9629678 0 0 1 7.403916,8.96296 z m 27.372039,-0.56018 a 35.000327,28.196002 0 0 1 -35.000311,28.19599 35.000327,28.196002 0 0 1 -35.000327,-28.19599 35.000327,28.196002 0 0 1 35.000327,-28.19601 35.000327,28.196002 0 0 1 35.000311,28.19601 z" />
            <g
               id="g4576">
              <path
                 id="path4566"
                 style="fill:none;fill-rule:evenodd;stroke:#000000;stroke-width:1.813;stroke-linecap:round;stroke-linejoin:round;paint-order:stroke markers fill"
                 d="M 90.300251,80.744637 A 26.339611,24.525124 0 0 1 63.96064,105.26976 26.339611,24.525124 0 0 1 37.621029,80.744637 26.339611,24.525124 0 0 1 63.96064,56.219513 26.339611,24.525124 0 0 1 90.300251,80.744637 Z M 78.476527,80.971443 A 15.649943,16.557186 0 0 1 62.826584,97.528629 15.649943,16.557186 0 0 1 47.176641,80.971443 15.649943,16.557186 0 0 1 62.826584,64.414257 15.649943,16.557186 0 0 1 78.476527,80.971443 Z" />
              <path
                 style="color:#000000;fill:#000000;-inkscape-stroke:none"
                 d="m 44.345703,64.636719 -1.197266,0.648437 5.042969,9.339844 1.199219,-0.648438 z"
                 id="path4568" />
              <path
                 style="color:#000000;fill:#000000;-inkscape-stroke:none"
                 d="m 81.529297,64.636719 -5.042969,9.339843 1.197266,0.648438 5.044922,-9.339844 z"
                 id="path4570" />
              <path
                 style="color:#000000;fill:#000000;-inkscape-stroke:none"
                 d="m 53.199219,92.882812 -9.238282,5.226563 0.669922,1.185547 9.240235,-5.226563 z"
                 id="path4572" />
              <path
                 style="color:#000000;fill:#000000;-inkscape-stroke:none"
                 d="m 77.287109,88.867187 -1.185547,0.669922 5.226563,9.238282 1.185547,-0.669922 z"
                 id="path4574" />
            </g>
            <path
               id="path4578"
               style="color:#000000;fill:#000000;stroke-width:0.741401;-inkscape-stroke:none"
               d="m 38.739262,196.02514 c -1.23925,4.20869 0.457163,8.65261 4.662865,12.21451 4.205701,3.56191 10.854204,6.18676 18.275325,7.21364 7.421122,1.02688 15.498989,0.43999 22.201438,-1.61252 6.702448,-2.05252 11.924364,-5.53939 14.35503,-9.58321 1.436997,-2.39071 1.91355,-4.95606 1.384316,-7.46022 l -1.44442,0.0952 c 0.503819,2.3839 0.04958,4.83178 -1.318398,7.10765 -2.310801,3.84442 -7.304516,7.17769 -13.676442,9.12899 -6.371925,1.95129 -14.095439,2.51306 -21.150597,1.53681 -7.055158,-0.97624 -13.414248,-3.48562 -17.412551,-6.87188 -3.998302,-3.38625 -5.619976,-7.63584 -4.441838,-11.63699 z m 0.734814,-0.33959 -0.03296,0.81113 59.438431,0.75381 0.03296,-0.81114 z m -21.447918,24.53035 -0.02171,2.16757 103.684832,4.70558 0.0217,-2.17047 z M 120.00261,82.804939 l -1.01634,0.06945 2.20502,143.167051 1.0177,-0.0723 z m -7.82002,-46.300448 c -1.09082,-0.146823 -2.19123,0.0034 -3.26479,0.457245 -2.1471,0.907727 -4.17392,3.020398 -5.82939,6.07442 l 0.66625,1.640875 c 1.51982,-2.80376 3.39009,-4.751998 5.36126,-5.585341 1.97116,-0.833343 4.04919,-0.55364 5.95558,0.801627 1.9064,1.355267 3.64698,3.788304 4.98946,6.977335 1.34248,3.18903 2.29087,7.142026 2.71794,11.329848 0.4356,4.27132 0.32972,8.801189 -0.30259,12.959149 -0.63231,4.157961 -1.79231,7.956673 -3.32043,10.86971 l 0.67712,1.620617 c 1.66463,-3.173275 2.92337,-7.289509 3.61216,-11.818929 0.6888,-4.529418 0.80288,-9.437784 0.32837,-14.090686 -0.46519,-4.561622 -1.49309,-8.845905 -2.9554,-12.319583 -1.46231,-3.47368 -3.34848,-6.111724 -5.42503,-7.587959 -1.03828,-0.738119 -2.1197,-1.181503 -3.21051,-1.328328 z m -75.871719,1.562738 -0.03392,2.167574 67.127619,4.705579 0.0339,-2.167576 z M 19.71283,78.099363 17.506452,221.26351 l 1.017702,0.0723 2.205021,-143.164153 z m 7.820022,-46.300449 c -1.090816,0.146822 -2.172232,0.59021 -3.210511,1.328326 -2.076556,1.476235 -3.962718,4.117178 -5.425029,7.590855 -1.462311,3.473678 -2.490213,7.75507 -2.955407,12.316689 -0.474503,4.652901 -0.360415,9.561268 0.328379,14.090686 0.688793,4.529419 1.947526,8.645654 3.612163,11.818928 l 0.677111,-1.617723 C 19.031437,74.413639 17.871441,70.612034 17.239136,66.454072 16.60683,62.296109 16.50095,57.769137 16.936539,53.497817 c 0.427074,-4.187821 1.375459,-8.140818 2.717942,-11.329848 1.342484,-3.189031 3.08306,-5.624963 4.989454,-6.98023 1.906395,-1.355265 3.984431,-1.634969 5.955593,-0.801626 1.97116,0.833344 3.841428,2.781579 5.361253,5.585341 l 0.666256,-1.640875 C 34.971555,35.27656 32.944744,33.163884 30.79764,32.25616 29.724088,31.802297 28.623668,31.652088 27.532852,31.798914 Z" />
          </g>
          <rect
             style="fill:none;fill-rule:evenodd;stroke:#000000;stroke-width:1.48779;stroke-linecap:round;stroke-linejoin:round;stroke-miterlimit:4;stroke-dasharray:none;paint-order:stroke markers fill"
             id="rect4582"
             width="127.89849"
             height="221.79814"
             x="17.249014"
             y="23.599716"
             ry="14.542159" />
          <path
             style="color:#000000;fill:#000000;-inkscape-stroke:none"
             d="m 137.76172,25.763672 -19.37305,20.326172 1.10742,1.05664 19.37305,-20.326172 z"
             id="path4584" />
          <path
             style="color:#000000;fill:#000000;-inkscape-stroke:none"
             d="m 23.322266,25.251953 -0.857422,0.603516 11.402343,16.193359 0.857422,-0.603516 z"
             id="path4586" />
        </g>
      </g>
    </g>
  </g>
</svg>
