<?xml version="1.0" encoding="UTF-8" standalone="no"?>
<!-- Created with Inkscape (http://www.inkscape.org/) -->

<svg
   width="210mm"
   height="297mm"
   viewBox="0 0 210 297"
   version="1.1"
   id="svg5"
   inkscape:version="1.1.1 (3bf5ae0d25, 2021-09-20)"
   sodipodi:docname="phaze switch icon svg.svg"
   xmlns:inkscape="http://www.inkscape.org/namespaces/inkscape"
   xmlns:sodipodi="http://sodipodi.sourceforge.net/DTD/sodipodi-0.dtd"
   xmlns="http://www.w3.org/2000/svg"
   xmlns:svg="http://www.w3.org/2000/svg">
  <sodipodi:namedview
     id="namedview7"
     pagecolor="#ffffff"
     bordercolor="#666666"
     borderopacity="1.0"
     inkscape:pageshadow="2"
     inkscape:pageopacity="0.0"
     inkscape:pagecheckerboard="0"
     inkscape:document-units="mm"
     showgrid="false"
     inkscape:zoom="0.96102398"
     inkscape:cx="477.61555"
     inkscape:cy="794.46509"
     inkscape:window-width="1680"
     inkscape:window-height="956"
     inkscape:window-x="-11"
     inkscape:window-y="-11"
     inkscape:window-maximized="1"
     inkscape:current-layer="layer4"
     showguides="false"
     inkscape:guide-bbox="true" />
  <defs
     id="defs2">
    <inkscape:path-effect
       effect="spiro"
       id="path-effect1669"
       is_visible="true"
       lpeversion="1" />
    <inkscape:path-effect
       effect="spiro"
       id="path-effect1663"
       is_visible="true"
       lpeversion="1" />
    <inkscape:path-effect
       effect="spiro"
       id="path-effect1544"
       is_visible="true"
       lpeversion="1" />
    <inkscape:path-effect
       effect="spiro"
       id="path-effect2054"
       is_visible="true"
       lpeversion="1" />
    <inkscape:path-effect
       effect="spiro"
       id="path-effect1881"
       is_visible="true"
       lpeversion="1" />
    <inkscape:path-effect
       effect="spiro"
       id="path-effect1875"
       is_visible="true"
       lpeversion="1" />
    <inkscape:path-effect
       effect="spiro"
       id="path-effect1360"
       is_visible="true"
       lpeversion="1" />
    <inkscape:path-effect
       effect="spiro"
       id="path-effect1157"
       is_visible="true"
       lpeversion="1" />
    <inkscape:path-effect
       effect="spiro"
       id="path-effect2785"
       is_visible="true"
       lpeversion="1" />
    <inkscape:path-effect
       effect="spiro"
       id="path-effect2650"
       is_visible="true"
       lpeversion="1" />
    <inkscape:path-effect
       effect="spiro"
       id="path-effect2453"
       is_visible="true"
       lpeversion="1" />
    <inkscape:path-effect
       effect="rough_hatches"
       id="path-effect2461"
       is_visible="true"
       lpeversion="1"
       direction="69.99843,260.92094 , 8.1437712,0"
       dist_rdm="6;1"
       growth="0"
       do_bend="true"
       bender="69.99843,265.92094 , 5,0"
       bottom_edge_variation="1.4602372;1"
       top_edge_variation="1.4602372;1"
       bottom_tgt_variation="0;1"
       top_tgt_variation="0;1"
       scale_bf="1"
       scale_bb="1"
       scale_tf="1"
       scale_tb="1"
       top_smth_variation="0;1"
       bottom_smth_variation="0;1"
       fat_output="true"
       stroke_width_top="1"
       stroke_width_bottom="1"
       front_thickness="1"
       back_thickness="0.25" />
    <inkscape:path-effect
       effect="skeletal"
       id="path-effect1945"
       is_visible="true"
       lpeversion="1"
       pattern="m 33.860958,87.614548 h 14.800324 c 5.651367,0 10.201025,4.549657 10.201025,10.201025 v 12.157417 c 0,5.65137 -4.549658,10.20103 -10.201025,10.20103 H 33.860958 c -5.651368,0 -10.201025,-4.54966 -10.201025,-10.20103 V 97.815573 c 0,-5.651368 4.549657,-10.201025 10.201025,-10.201025 z"
       copytype="repeated"
       prop_scale="1.28"
       scale_y_rel="false"
       spacing="2.6"
       normal_offset="0"
       tang_offset="0"
       prop_units="false"
       vertical_pattern="false"
       hide_knot="false"
       fuse_tolerance="0" />
    <inkscape:path-effect
       effect="skeletal"
       id="path-effect1762"
       is_visible="true"
       lpeversion="1"
       pattern="#rect1629"
       copytype="repeated"
       prop_scale="1"
       scale_y_rel="false"
       spacing="0"
       normal_offset="0"
       tang_offset="0"
       prop_units="false"
       vertical_pattern="false"
       hide_knot="false"
       fuse_tolerance="0" />
    <clipPath
       clipPathUnits="userSpaceOnUse"
       id="clipPath2716">
      <path
         id="path2718"
         style="fill:none;stroke:#000000;stroke-width:1.265;stroke-linecap:round;stroke-linejoin:round;stroke-miterlimit:4;stroke-dasharray:none;stroke-opacity:0.955017;paint-order:stroke markers fill"
         d="m 171.94247,92.538537 v 93.056333 h 63.42766 V 92.538537 Z m 1.8154,27.651543 c 0.3048,-5e-5 0.6134,0.29795 0.6134,0.894 v 0.49764 c 0.025,0.0197 0.0443,0.0352 0.0754,0.0594 -0.0191,-0.0239 -0.0814,-0.0908 -0.0574,-0.0718 0.35281,0.27864 0.45167,0.3023 0.52917,0.75809 -0.006,0.11727 -0.0131,0.23413 -0.0191,0.3514 0.0277,-0.0604 0.0147,-0.0598 0.0388,0.004 0.0859,0.28692 0.0325,0.58407 0.0305,0.87695 0.003,0.22514 0.004,0.45027 0.004,0.67541 0.0766,-0.0457 0.15873,-0.0718 0.24184,-0.0718 0.0408,0 0.0814,0.006 0.12144,0.0171 v -0.80874 c 0,-0.59503 0.29995,-0.89298 0.60048,-0.894 v 5.3e-4 h 5.3e-4 c 0.3009,2.6e-4 0.60152,0.29828 0.60152,0.894 v 1.39216 1.12448 1.37821 c 0.0567,-0.29605 0.0576,-0.26053 0.0594,-0.21394 0.0186,-0.0582 0.041,-0.11104 0.0667,-0.15864 0.001,-0.006 0.001,-0.003 0.003,-0.009 0.0294,-0.12516 0.0424,-0.25354 0.0636,-0.38034 h -0.001 c 0.0892,-0.53274 0.33706,-0.77868 0.58291,-0.77773 0.29672,0.001 0.59045,0.36198 0.59789,1.01389 10e-4,0.10111 -0.0177,0.19737 -0.0429,0.29249 0.0713,0.14079 0.11576,0.32478 0.11576,0.55294 v 1.45262 c -0.0237,0.34855 -0.13495,0.66485 -0.24081,0.99116 v 0.45165 c 0,1.11188 -1.04705,1.18648 -1.18805,0.22428 -0.17076,-0.083 -0.31469,-0.26974 -0.36483,-0.56276 -0.34057,0.21245 -0.80769,-0.0317 -0.84698,-0.72709 -0.3623,0.30307 -1.02482,0.0418 -0.98857,-0.77876 0.002,-0.0559 0.005,-0.11205 0.007,-0.16795 0.008,-0.0387 0.0168,-0.0888 0.0279,-0.14418 -0.0137,-0.0477 -0.007,-0.0903 0.0279,-0.12299 -0.0107,0.0426 -0.02,0.084 -0.0279,0.12299 0.058,0.2023 0.4812,0.50379 0.71107,0.6072 0.0308,0.0139 0.13028,-0.0514 0.23461,-0.12867 v -0.31006 c -0.18047,-0.0918 -0.36886,-0.31369 -0.56844,-0.43305 -0.0831,0.0184 -0.1765,0.0511 -0.28112,0.10025 -0.0171,0.17295 0.005,0.35404 -0.0217,0.0104 -0.001,5.3e-4 -0.002,0.001 -0.004,0.002 -0.0171,0.008 -0.0306,0.018 -0.0418,0.0284 0.0123,-0.0488 0.0268,-0.0984 0.0444,-0.14676 0.002,-0.21005 -0.002,-0.25354 0.045,-0.51004 0.0173,-0.0934 0.0465,-0.18435 0.0718,-0.27596 -0.25462,-0.34269 -0.61231,-1.84643 -0.71934,-0.96583 -0.0243,0.20019 0.0306,0.4274 -0.0729,0.60048 -0.085,0.14224 -0.11324,-0.42935 -0.11524,-0.45475 -0.0403,-0.14283 -0.12568,-0.4406 -0.14418,-0.54312 -0.0332,-0.18404 0.0284,-0.38509 0,-0.56999 v -1.36219 c 0,-0.35008 0.10499,-0.59453 0.25167,-0.73898 0.004,-0.0736 0.006,-0.14676 0.002,-0.21859 -0.0536,-0.20233 -0.0729,-0.23854 -0.0739,-0.45268 -0.0249,-0.0116 -0.0499,-0.023 -0.0744,-0.0351 0.19801,0.0499 -0.13475,-0.0277 -0.27388,-0.21032 -0.28065,-0.36836 -0.18164,-0.81235 -0.19224,-1.23456 -0.015,-0.59586 0.28637,-0.89395 0.59118,-0.894 z m 0.0165,2.40502 c 0.015,0.0194 0.0307,0.0377 0.0512,0.0506 0.0497,0.0315 0.21618,0.091 0.16588,0.0605 -0.0695,-0.0421 -0.1431,-0.0771 -0.21704,-0.1111 z m 53.54919,0.44545 v 5.3e-4 5.3e-4 c 0.23913,-0.006 0.5121,0.17404 0.69195,0.60358 0.1061,0.2534 0.23772,0.49751 0.31832,0.76016 0.18101,0.5901 0.28893,1.11131 0.38138,1.65261 0.24153,0.0852 0.44751,0.37362 0.44751,0.86662 v 0.46509 c 0.17404,-0.30525 0.39801,-0.45168 0.60255,-0.47388 v -0.29197 c 0,-0.59605 0.30098,-0.894 0.60203,-0.894 0.009,0 0.0182,0.003 0.0274,0.004 0.0552,-0.27863 0.19067,-0.45921 0.35037,-0.5457 0.0671,-0.44178 0.32578,-0.66301 0.58497,-0.66301 0.30106,0 0.60255,0.29795 0.60255,0.89401 v 1.11414 c 0.11682,0.15512 0.16028,0.59889 0.15038,0.78238 -0.004,0.0691 -0.0217,0.13686 -0.0326,0.20516 -0.004,0.0114 -0.008,0.0228 -0.0114,0.0341 0.001,-7.9e-4 0.002,2.7e-4 0.003,0.002 0.032,0.078 0.0116,0.6811 0.0124,0.78497 0.002,0.27842 -0.004,0.55718 -0.002,0.8356 7e-5,0.0121 5.3e-4,0.0241 5.3e-4,0.0362 0.003,0.52925 -0.23205,0.82453 -0.49557,0.88573 -0.0679,0.5869 -0.4593,0.81442 -0.7767,0.67489 -0.25025,0.32889 -0.68475,0.29165 -0.89452,-0.11058 -0.1006,0.21278 -0.25198,0.33849 -0.41083,0.38189 -7.9e-4,0.0313 -0.0709,0.055 -0.25114,0.0667 -0.0304,0.002 -0.061,0.005 -0.0915,0.008 -5e-5,0.005 6e-5,0.007 0,0.0114 -0.0174,0.24271 -0.0309,0.48566 -0.0517,0.72812 0.15541,0.0128 0.21709,0.11304 0.0791,0.38292 -0.2783,0.54229 -0.24936,0.81681 -1.19941,0.3545 -0.12467,-0.0607 -0.13935,-0.2551 -0.12609,-0.44183 0.066,0.0686 0.61391,-0.18556 1.0051,-0.26975 -0.55671,-0.31293 -0.56029,-0.2466 -0.83664,0.0248 -0.0907,0.0891 -0.14314,0.15008 -0.16433,0.19069 0.012,-0.12284 0.0331,-0.23627 0.0388,-0.29818 0.0174,-0.19098 0.0294,-0.38233 0.0429,-0.5736 -0.0367,0.001 -0.10147,0.001 -0.20877,-0.003 -0.003,0.1686 -0.0477,0.0956 -0.3638,0.002 -0.85874,0.0368 -0.83887,0.29404 -0.8413,-0.14831 v -5.3e-4 c -5e-5,-0.007 8e-5,-0.0133 0,-0.0212 0.007,-0.21925 0.003,-0.13215 0.0181,-0.37723 0.005,-0.073 0.007,-0.14621 0.0139,-0.21911 0.002,-0.0229 0.003,-0.0466 0.0119,-0.0677 0.002,-0.005 0.016,0.009 0.015,0.004 -0.007,-0.0311 -0.0227,-0.0596 -0.0341,-0.0894 -0.0849,-0.226 -0.15951,-0.44774 -0.21911,-0.68575 -0.007,-0.0267 0.018,0.0532 0.0336,0.0754 0.009,0.0126 -0.008,-0.0292 -0.0124,-0.0439 -0.37529,-0.72619 -0.43411,-1.56411 -0.42168,-2.36988 0.009,-0.59599 0.31001,-0.89399 0.60875,-0.894 0.29874,-2e-5 0.59532,0.29795 0.59532,0.894 0,0.0307 1e-4,0.0252 0,0.0522 0.10496,-0.10814 0.23296,-0.16279 0.36122,-0.16279 0.0688,0 0.1374,0.0165 0.20257,0.0476 -0.11477,-0.77567 -0.23289,-1.60322 -0.45734,-2.35438 -0.0708,-0.23676 -0.1891,-0.45643 -0.2837,-0.68471 -0.2781,-0.6711 0.0119,-1.13272 0.38499,-1.14205 z m -50.78501,6.28696 c 0,0.14578 -0.0185,0.27328 -0.0501,0.38343 0.0202,0.005 0.031,0.007 0.0501,0.0119 v -0.0424 z m 51.39892,1.09915 c -0.0562,0.0948 -0.12572,0.16613 -0.20205,0.21498 -0.009,0.15264 -0.0206,0.30569 -0.0253,0.4563 5.3e-4,0.0353 0.001,0.0652 0.002,0.0909 0.0962,0.0104 0.16913,0.0193 0.2098,0.0264 0.002,-0.0329 0.005,-0.0658 0.007,-0.0987 0.004,-0.28401 0.005,-0.47104 0.009,-0.68988 z m -0.0987,1.67483 c -0.002,0.0177 -0.003,0.0353 -0.004,0.0532 -0.01,-0.0101 -0.009,-0.0275 0.004,-0.0532 z m 1.08262,13.01626 h 5.3e-4 c 0.21847,0 0.43559,0.159 0.53899,0.47284 0.0928,-0.0738 0.19841,-0.11162 0.30437,-0.11162 0.30106,0 0.60203,0.29796 0.60203,0.894 v 0.37776 c 0.0762,-0.0446 0.15842,-0.0677 0.24081,-0.0677 0.25155,0 0.50079,0.21078 0.57671,0.62684 0.0478,-0.0159 0.0967,-0.0248 0.14573,-0.0248 0.30106,0 0.60203,0.29794 0.60203,0.894 v 1.57303 c 0.0157,0.12506 -0.0213,0.26017 -0.002,0.38447 0.001,0.001 0.002,0.002 0.003,0.004 5.3e-4,-0.0211 10e-4,-0.0686 0.0165,-0.0615 0.0166,0.007 0.0473,0.0964 0.0729,0.17828 0.21492,0.32555 0.17921,0.67555 0.14366,1.06402 -0.001,0.26308 0.009,0.52596 0.008,0.78909 -0.002,0.31037 -0.002,0.62083 -0.001,0.93121 1.4e-4,0.17229 -5.3e-4,0.34498 -5.3e-4,0.51729 4e-5,0.15635 5.3e-4,0.31234 5.3e-4,0.4687 -5e-5,1.19211 -1.2044,1.19212 -1.20458,0 v -0.17467 c -0.13995,0.14334 -0.10051,0.033 0,-0.21445 v -0.0796 -0.12868 c -0.19323,0.20208 -0.46501,0.22038 -0.67179,0.0517 -0.0626,0.006 -0.12279,0.0116 -0.1757,0.0124 -0.008,0.0333 -0.0161,0.0691 -0.0243,0.10542 0.0843,0.0908 0.17785,0.17577 0.23151,0.28576 0.0486,0.0995 -0.16348,-0.1488 -0.24546,-0.22324 0.005,-0.022 0.009,-0.0415 0.0134,-0.0625 -0.0331,-0.0357 -0.0647,-0.0722 -0.092,-0.11163 -0.12086,-0.0178 -0.1689,-0.0773 -0.077,-0.216 -0.003,-0.0378 -0.002,-0.0762 -5.3e-4,-0.11421 -0.12402,0.0924 -0.26899,0.12063 -0.40617,0.0827 v 0.34985 c 0,1.19211 -1.20406,1.19211 -1.20406,0 v -0.41134 c -0.12021,-0.0281 -0.23409,-0.10348 -0.32195,-0.22635 -0.22015,-0.10482 -0.40049,-0.38283 -0.40049,-0.84284 v -0.0811 -0.88057 -0.12247 c -0.0589,-0.17822 -0.10784,-0.35978 -0.13281,-0.54932 0.0163,-0.15638 0.0122,-0.20264 0.0543,-0.34261 0.007,-0.0225 0.0144,0.0459 0.03,0.0636 0.007,0.007 0.008,-0.0184 0.0124,-0.0274 -0.0194,-0.0469 -0.0395,-0.0937 -0.0589,-0.14056 -0.15553,-0.26576 -0.19167,-0.28798 -0.26407,-0.63045 -0.0135,-0.0638 0,-0.13066 0,-0.19586 V 148.3 h -5.2e-4 c 0,-0.42015 0.15862,-0.69129 0.3607,-0.81494 v -1.41231 c 0,-0.59604 0.30096,-0.89401 0.60203,-0.89401 0.1172,0 0.23439,0.0456 0.33383,0.13591 0.1097,-0.1289 0.2486,-0.19585 0.3886,-0.19585 z m -51.42166,1.20303 h 5.3e-4 5.2e-4 l 5.3e-4,5.3e-4 v 5.3e-4 h 5.3e-4 5.3e-4 c 0.25897,2.6e-4 0.51689,0.22218 0.58395,0.66353 0.10806,-0.12084 0.24322,-0.1819 0.37878,-0.1819 0.0779,0 0.1557,0.0206 0.22841,0.0605 0.004,-1e-4 0.008,-5.3e-4 0.0119,-5.3e-4 0.30103,0 0.60255,0.29846 0.60255,0.89452 v 1.38441 c 0,0.16557 -0.0197,0.33273 0,0.49713 0.0154,0.12848 0.0696,0.24899 0.10438,0.37362 0.0464,0.0885 0.094,0.17641 0.13901,0.26561 0.11147,0.22077 0.25827,0.51673 0.34159,0.74879 0.0666,0.18558 0.13183,0.64856 0.13384,0.4377 0.15825,0.28567 0.17203,0.6006 0.14934,0.91829 -0.008,0.11723 -0.0348,0.23223 -0.0351,0.34985 0.0163,0.31146 0.014,0.6236 0.0104,0.93535 -0.0149,1.19208 -1.21966,1.17721 -1.20406,-0.015 0.004,-0.30295 0.001,-0.60616 -0.008,-0.90899 -0.30267,0.0992 -0.55627,-1.91869 -0.83458,-0.93844 -2.6e-4,0.001 2e-5,0.001 -5.3e-4,0.002 v 1.38131 1.12758 c 0,0.32519 -0.0905,0.55929 -0.22066,0.70693 -3e-5,0.0104 5.3e-4,0.0188 5.3e-4,0.0295 0.22492,-0.0232 0.29567,-0.0269 0,0.002 -1e-4,0.0122 2e-4,0.0233 0,0.0362 -5.3e-4,0.0583 0.0471,0.16566 -0.0108,0.17466 -0.39678,0.0588 -0.80241,0.004 -1.20355,0.006 -0.38895,0.002 -0.26841,-0.0332 0.0248,-0.077 -0.051,-0.0604 -0.009,-0.23636 -0.0372,-0.62942 -0.007,-0.0622 -0.014,-0.11544 -0.0212,-0.17364 -0.0982,-0.41871 -0.17525,-0.88901 -0.3979,-0.56224 0.097,0.21276 0.10499,0.35451 0.10025,0.65785 0.0334,0.0894 -0.0812,0.19213 -0.0589,0.28783 0.22797,0.97981 -0.87041,1.08436 -1.14412,0.38189 -0.31692,-0.015 -0.83571,-1.66454 -0.9555,-0.70125 -0.007,0.0543 -0.0247,0.10819 -0.0207,0.16278 2.2e-4,0.003 0.001,0.006 0.002,0.009 0.0145,0.032 0.0273,0.0641 0.0403,0.0966 0.004,0.0102 0.002,0.0436 -5.3e-4,0.0331 -0.0138,-0.0431 -0.0347,-0.085 -0.0403,-0.1297 -0.0537,-0.11873 -0.11361,-0.23501 -0.15244,-0.35916 -0.016,-0.0511 7.9e-4,-0.10721 0.001,-0.16071 0.002,-0.41579 -0.009,-0.83116 -0.008,-1.24695 0.0195,-0.5605 0.0847,-1.12031 -0.0418,-1.67535 h 5.3e-4 c -0.10073,-0.44212 0.007,-0.74923 0.1943,-0.8971 -0.0337,-0.0525 -0.0617,-0.0948 -0.11007,-0.17415 -0.0441,-0.0724 -0.0626,-0.15842 -0.0827,-0.24082 -0.0892,-0.36566 -0.0839,-0.72048 -0.0739,-1.09399 h 5.3e-4 c 0.0155,-0.59586 0.29116,-0.89293 0.57567,-0.89245 0.13904,2.4e-4 0.27989,0.0723 0.39378,0.21446 0.0356,-0.2545 0.1861,-0.4201 0.37672,-0.46664 0.0375,-0.0148 0.0775,-0.024 0.1204,-0.0248 0.1841,-0.003 0.41338,0.12813 0.64493,0.44338 1.8e-4,2.3e-4 0.63781,0.864 0.66611,0.91881 0.0918,0.17751 0.16737,0.36318 0.23254,0.55242 v -0.42116 -1.88929 c 0,-0.59572 0.30061,-0.89366 0.60151,-0.894 z m -2.40606,2.76624 c -0.008,0.17824 -0.0165,0.35526 0.046,0.52658 0.0112,0.0307 0.008,0.0775 0.0382,0.0904 0.0215,0.009 0.007,-0.0461 0.0103,-0.0692 0.0307,0.0441 0.0613,0.0882 0.092,0.13229 -0.0553,-0.22866 -0.11301,-0.45655 -0.18655,-0.68006 z m 0.72451,3.78013 c 2e-5,0.003 -3e-5,0.006 0,0.009 -1.3e-4,0.0127 1.2e-4,0.0255 0,0.0382 0.0125,0.0163 0.0255,0.0341 0.0372,0.0486 -0.0112,-0.0327 -0.0228,-0.065 -0.0372,-0.0956 z m 0.25734,0.59118 c 8e-5,2.7e-4 5.3e-4,7.9e-4 5.3e-4,0.001 -1e-5,-2.7e-4 -3e-5,-5.3e-4 0,-0.001 z m 5.3e-4,0.002 c -0.002,0.0208 -0.004,0.0421 -0.008,0.0667 0.01,-0.002 0.0178,-0.001 0.0248,0.008 -0.006,-0.0255 -0.0112,-0.0496 -0.017,-0.0744 z" />
    </clipPath>
    <clipPath
       clipPathUnits="userSpaceOnUse"
       id="clipPath1703">
      <path
         id="path1705"
         style="fill:none;stroke:#000000;stroke-width:1.265;stroke-linecap:round;stroke-linejoin:round;stroke-opacity:0.955017;paint-order:stroke markers fill"
         d="M 34.332272,58.324089 V 148.51548 H 139.66589 V 75.964357 c -0.69979,0.134226 -1.42004,0.146441 -2.14199,0.116787 -0.79869,0.212712 -1.59035,0.454668 -2.37763,0.711068 0.001,0.06258 0.001,0.125563 0,0.188618 0.24659,0.491345 0.47814,0.987539 0.59014,1.521355 0.0381,0.181419 -0.36413,0.07614 -0.53795,0.140559 -0.31414,0.116422 -0.60972,0.278887 -0.92191,0.400492 -0.19531,0.07608 -0.39084,0.163119 -0.59841,0.192239 -0.0358,0.0051 0.005,-0.07272 0.007,-0.109038 -0.0852,0.128799 -0.1706,0.257223 -0.25579,0.386022 -0.11067,0.135652 -0.21995,0.259395 -0.32815,0.377756 0.0143,0.01519 0.028,0.03158 0.0424,0.04703 0.30331,-0.158118 0.57815,-0.234088 0.81598,-0.240295 0.67587,-0.01765 1.05754,0.51412 0.97565,1.230416 0.14537,-0.014 0.29082,-0.02601 0.43666,-0.03514 -0.0626,-0.57732 -0.0645,-0.776208 0.0615,-0.0036 0.15172,-0.0087 0.30389,-0.01416 0.4563,-0.01551 0.0174,0.921872 0.0349,1.843857 0.0522,2.765721 0.0164,0.875067 -0.0745,0.628809 -0.19069,-0.01601 -1.21552,-0.01881 -2.49199,0.345728 -3.74758,0.356566 -0.20049,0.0016 -0.40101,0.0027 -0.60151,0.0041 -0.0988,-5.29e-4 -0.19736,-0.0021 -0.29611,-0.0031 -0.12653,0.02819 -0.2534,0.05315 -0.38085,0.07545 -0.10932,0.373049 -0.23154,0.738894 -0.46406,1.042829 -0.29054,0.37978 -1.31759,0.09044 -1.72909,0.134358 -0.22764,0.03093 -0.45734,0.04768 -0.68264,0.0925 -0.29368,0.05841 -0.52714,0.129051 -0.72348,0.18242 -0.1622,0.146177 -0.31132,0.235852 -0.40204,0.09095 -0.003,-0.0046 -0.005,-0.0088 -0.008,-0.01344 -0.36478,0.0097 -0.59563,-0.264006 -0.98909,-1.262972 -0.24046,0.15 -0.4798,0.302762 -0.74466,0.398941 -1.20679,0.438232 -1.96943,0.37433 -3.24734,0.418579 -0.85801,0.02971 -1.34117,0.03018 -1.78698,0.05064 0.04,0.114959 0.077,0.230306 0.10904,0.346231 0.47825,0.02143 0.95899,0.07185 1.43557,0.114723 0.005,1.22e-4 0.009,1.72e-4 0.0139,5.29e-4 0.27066,0.810292 0.67161,1.588231 0.81235,2.43086 0.0266,0.159117 -0.21288,0.249965 -0.35037,0.334346 -1.34884,0.827841 -2.25336,0.877829 -3.78375,0.951881 -0.66839,0.04002 -1.31214,-0.147717 -1.96732,-0.221176 -0.13713,-0.01537 -0.35324,0.03479 -0.48317,0.04496 -0.077,0.0037 -0.15485,0.0084 -0.23358,0.01241 -0.78009,0.518869 -0.76266,0.538004 -2.47065,-0.226859 -0.21545,-0.09649 -0.20783,-0.427519 -0.26613,-0.656291 -0.24924,-0.97876 -0.17239,-1.972945 -0.18139,-2.969845 0.026,-0.585277 0.003,-0.631312 0.10181,-1.044382 -0.0294,-0.122097 -0.0765,-0.242067 -0.11059,-0.351398 -0.33462,-0.838081 -0.41475,-0.85666 0.0377,-1.334286 0.008,-0.163663 0.011,-0.322175 -0.009,-0.458888 -0.0351,-0.466707 -0.0417,-0.91404 0.0207,-1.373042 -0.3858,-0.596985 -0.39406,-1.614829 -0.34881,-1.987992 0.068,-0.561239 1.60363,-0.921575 1.86551,-1.008724 2.04126,-0.229751 1.29857,-0.193185 3.42098,-0.232545 0.26182,-0.0048 0.80135,-0.01783 1.37563,-0.01704 0.0946,1.22e-4 0.18983,0.0021 0.28525,0.0031 0.0915,-0.209709 0.19361,-0.416124 0.31317,-0.6134 -0.11483,-1.075917 0.54542,-1.423085 1.3472,-1.58905 0.0966,-0.162843 0.19963,-0.320678 0.31419,-0.469739 -0.0104,-0.0042 -0.0206,-0.0088 -0.031,-0.01291 -0.0479,0.02955 -0.0959,0.05841 -0.14521,0.08526 -0.0461,0.02508 0.0778,-0.112228 0.1266,-0.09302 0.006,0.0024 0.0124,0.0053 0.0186,0.0078 0.0277,-0.01709 0.0552,-0.03479 0.0827,-0.05219 0.0489,-0.06053 0.0989,-0.119772 0.15245,-0.176734 0.2727,-0.290158 0.71866,-0.345871 1.09089,-0.487307 0.54342,-0.206483 1.09847,-0.387564 1.66036,-0.545187 0.12902,-0.161279 0.29126,-0.332473 0.56482,-0.65474 0.45292,-0.326671 0.36996,-0.297773 1.2051,-0.538467 0.0372,-0.01072 0.0759,-0.01323 0.11472,-0.01241 0.0647,0.0013 0.13082,0.01241 0.19534,0.01241 h 1.92701 5.3e-4 c 1.29911,0 1.97748,0.625777 2.03812,1.280541 0.22788,0.24438 0.24489,0.361463 0.1173,0.396359 0.0781,0.04177 0.15783,0.09283 0.23978,0.156578 0.11952,0.09296 0.64322,0.429807 1.09555,0.789098 0.0415,0.0048 0.0884,0.0039 0.12815,0.01035 0.23789,-0.09393 0.47636,-0.186952 0.71779,-0.271302 0.66235,-0.231417 1.33185,-0.442034 2.00246,-0.648541 0.42318,-0.959157 0.54733,-0.915363 1.28106,-0.90692 0.4859,0.03127 0.97353,0.07223 1.46141,0.09922 0.65064,-0.165971 1.31379,-0.303144 2.09083,-0.410311 0.10056,-0.01386 0.2168,-0.04785 0.33486,-0.08165 V 58.324089 Z M 136.41906,73.478718 c -0.0489,0.0021 -0.0968,0.03899 -0.14469,0.101288 0.0768,-0.02252 0.15503,-0.04646 0.23099,-0.06821 -0.029,-0.02315 -0.0578,-0.03438 -0.0863,-0.03307 z m -22.59552,5.067909 c -0.009,-0.006 0.0521,0.039 0.17053,0.130741 0.005,-0.0047 0.009,-0.0099 0.0134,-0.01447 -0.10306,-0.06141 -0.17457,-0.109979 -0.18396,-0.116271 z m 11.40964,0.196887 c -1.12215,0.170555 -2.2474,0.31591 -3.37861,0.417028 -0.0894,0.388541 -0.18114,0.776221 -0.27853,1.162719 0.002,2.9e-5 0.004,-1.6e-5 0.006,0 1.03722,0.01021 2.38658,-0.146743 2.69958,1.357024 0.0805,-0.06124 0.17653,-0.21055 0.24959,-0.195336 0.36687,0.0764 0.69142,0.128587 0.99064,0.177765 -0.10733,-0.170571 -0.0622,-0.646403 0.26407,-1.661395 -0.75435,-0.642676 -0.84513,-0.968232 -0.55294,-1.257805 z m 1.5198,2.290815 c -0.30078,0.232161 -0.68125,0.573593 -0.94981,0.675413 0.60634,0.105817 1.01679,0.21637 1.14877,0.521414 0.51994,-0.332621 0.64105,-0.419336 0.76223,-0.490927 -0.51636,-0.109868 -0.83612,-0.3766 -0.96119,-0.7059 z m -2.27376,0.675413 c -0.0511,0.0058 -0.10844,0.08581 -0.16175,0.185001 0.003,0.02619 0.007,0.05149 0.0104,0.07855 0.002,0.02339 10e-4,0.04568 10e-4,0.06821 0.0979,-0.04936 0.15817,-0.156046 0.23823,-0.232543 -0.0206,-0.07468 -0.0516,-0.103362 -0.0879,-0.09922 z m 6.1526,2.360578 c -0.10928,0.01783 -0.21899,0.0353 -0.32866,0.04858 0.0531,0.12705 0.0977,0.229997 0.15657,0.373621 0.0575,-0.140679 0.11472,-0.281461 0.17209,-0.422198 z m -17.93948,0.276471 c -0.004,0.02662 -0.007,0.05139 -0.008,0.06976 -0.003,0.04313 0.0224,0.170305 0.0259,0.127125 0.004,-0.06503 -0.005,-0.131318 -0.0181,-0.196887 z m 3.70314,1.712555 c -0.004,0.04892 -0.007,0.09785 -0.0104,0.146762 -0.003,0.04437 -0.002,0.09097 0.001,0.137975 0.0301,0.0016 0.0604,0.0024 0.0904,0.0031 0.005,-0.07452 -0.004,-0.1475 -0.0403,-0.217556 -0.0125,-0.02439 -0.0265,-0.04748 -0.0408,-0.07028 z M 60.830912,107.67921 v 0.001 c 0.04136,0.25607 0.114372,0.51383 0.192236,0.77205 0.521195,0.43274 0.978395,0.96698 1.499135,1.40043 -0.532347,0.39668 -0.579782,0.44686 -1.130681,0.74259 0.009,0.0113 0.01677,0.0229 0.02119,0.0351 0.571807,1.59604 0.220919,2.18679 -0.45062,2.45463 0.117583,7.9e-4 0.257577,-0.003 0.363802,0 0.09337,0.002 0.250571,-0.0388 0.351401,-0.0336 0.0605,0.003 0.101145,0.0234 0.09508,0.0791 -0.05431,0.50016 -0.08139,0.78832 -0.114204,1.12603 0.06334,-0.025 0.126793,-0.0499 0.191203,-0.0729 0.218406,-0.078 0.640012,-0.35055 0.684713,-0.12299 0.353782,1.80112 0.434967,2.46502 0.09405,2.76727 0.01696,0.01 0.04148,0.0106 0.06925,0.005 0.08464,-0.0416 0.165214,-0.0806 0.271817,-0.13436 0.08691,-0.0438 -0.136234,0.11204 -0.271817,0.13436 -0.729234,0.35861 -0.696444,0.29922 -0.57671,0.21032 -0.0016,2.6e-4 -0.003,2.7e-4 -0.0047,5.3e-4 -0.190254,0.12183 -0.640387,0.40334 -1.46916,0.91209 2.482813,-0.21651 1.999644,0.27449 1.708938,1.85002 -0.586451,0.71454 -1.143965,1.67668 -1.89394,2.2102 -0.41026,0.2918 -0.961985,0.20755 -1.427303,0.22634 -0.570669,5.3e-4 -1.140243,-0.0323 -1.710491,-0.0124 -0.365519,0.0272 -0.688293,0.0686 -0.996321,0.0641 -0.0037,0.10266 -0.008,0.20536 -0.0093,0.308 -0.356764,1.19711 -0.03336,0.15624 -0.22996,0.70228 -0.0011,0.0145 -0.0016,0.029 -0.0031,0.0434 -0.0038,0.0365 -0.06014,0.13399 -0.04806,0.0992 0.02318,-0.0665 0.0354,-0.0988 0.05116,-0.14262 0.0095,-0.13227 0.0024,-0.26521 0.0047,-0.39791 0.0058,-0.33469 -0.02957,-0.53666 -0.0956,-0.64079 -0.08625,-0.0138 -0.172048,-0.0311 -0.257865,-0.0584 -0.716537,0.3264 -2.278327,3.31389 -2.346627,1.2361 -0.01537,-0.46753 -0.0021,-0.88476 0.199472,-1.3069 -0.143211,-0.50582 -0.169918,-0.99295 -0.08372,-1.44694 -0.754824,0.73051 0.237141,-0.16857 -1.681551,1.54203 -0.277998,0.12999 -0.61654,0.60662 -0.834057,0.39015 -0.363228,-0.36151 -0.674825,-0.79817 -0.905372,-1.27072 0.0074,0.37176 -0.191416,0.55496 -0.550871,1.32085 -0.318283,0.24081 -0.605589,0.5295 -0.954979,0.72243 -0.250185,0.13815 -0.510061,0.25749 -0.775147,0.36587 -0.27441,0.3652 -0.550828,0.72893 -0.813387,1.10226 0.03443,0.0784 0.06657,0.15752 0.09405,0.23875 0.05084,0.15031 0.0024,0.31727 0.0011,0.47594 -5.29e-4,0.0506 -0.0019,0.10092 -0.0026,0.15141 0.403346,0.0443 0.701563,0.23676 0.694531,0.7121 -0.0055,0.37381 -0.105759,0.73672 -0.205155,1.10019 0.01296,0.13327 -0.0024,0.27032 0.0041,0.40463 0.009,0.18852 0.02143,0.3769 0.03204,0.56534 0.03214,0.56299 0.133713,1.18886 -0.503327,1.60869 -0.09169,0.0604 -0.190008,0.10339 -0.293008,0.13435 -0.251391,0.31558 -0.653923,0.51488 -1.296043,0.49558 -0.414681,0.0187 -1.741072,0.33639 -1.944068,-0.0791 -0.675217,-1.3818 -0.77856,-1.8201 -0.483693,-2.15595 -0.05,-0.0225 -0.08503,-0.0752 -0.131773,-0.10593 -0.146772,-0.0964 -0.292039,-0.19607 -0.446484,-0.27957 -0.912932,-0.49375 -1.35527,-0.45089 -2.365232,-0.22324 -0.54341,-0.006 -1.26165,0.3816 -1.629873,-0.0181 -0.480119,-0.52113 -0.405961,-1.36312 -0.409795,-2.08514 -0.151773,0.008 -0.303239,0.0166 -0.454753,0.0274 -0.441595,-0.0167 -1.053274,0.29889 -1.324983,-0.0496 -0.167619,-0.21499 -0.263276,-0.46513 -0.327112,-0.73122 -0.097,-0.09 -0.18746,-0.1897 -0.287322,-0.27543 0.08052,0.0151 0.160367,0.0281 0.239263,0.0398 -0.09905,-0.55838 -0.113631,-1.16108 -0.378788,-1.64951 -0.0164,-0.0302 -0.04293,-0.0329 -0.07493,-0.0176 -0.08473,0.083 -0.168005,0.1674 -0.241329,0.25889 0.07788,-0.10864 0.17199,-0.22567 0.241329,-0.25889 0.06519,-0.0639 0.130884,-0.1273 0.194302,-0.19172 0.04333,-0.044 0.09536,-0.10017 0.157096,-0.0982 0.365133,0.009 0.729073,0.0397 1.092957,0.0734 -0.448511,-0.44064 -0.624475,-0.83898 -0.517282,-1.21956 -0.417361,-0.0312 -0.813585,-0.0973 -1.074353,-0.39016 -1.059358,-1.18987 0.864436,-2.54659 1.603004,-2.85874 0.531516,-0.22464 1.096886,-0.37855 1.667082,-0.46715 0.775305,-0.12047 1.565825,-0.10428 2.348693,-0.15658 0.790781,-0.0117 1.581713,-0.0214 2.372465,-0.0351 0.429694,-0.007 0.885595,-0.14498 1.313614,-0.14625 0.194556,-5.3e-4 0.383236,0.027 0.561208,0.10749 0.294971,0.13348 0.562621,0.25906 0.809252,0.37775 0.01553,-0.003 0.03149,-0.006 0.04599,-0.008 -0.01058,0.004 -0.01966,0.009 -0.02635,0.0171 0.02908,0.014 0.0589,0.028 0.08733,0.0419 0.0011,-0.0109 0.0019,-0.021 0.0031,-0.032 0.0032,-0.0292 -0.0258,-0.0315 -0.06305,-0.0269 0.07759,-0.0249 0.264964,0.0717 0.671795,0.24857 0.01048,0.023 0.01775,0.0382 0.02791,0.0605 0.0336,-0.0379 0.07075,-0.0762 0.115237,-0.11472 0.0087,-0.008 0.07189,0.13623 0.148828,0.32711 1.873094,1.02089 1.431766,1.27367 0.727604,1.10432 -0.01262,0.009 -0.02453,0.0186 -0.03721,0.0274 0.614551,0.16173 1.290077,0.0602 1.897041,0.25528 0.03326,0.0107 0.06116,0.0299 0.0863,0.0527 0.07532,-0.24151 1.477541,-1.24341 1.630391,-1.37666 0.153265,-0.13361 0.271939,-0.30298 0.416513,-0.44596 0.21445,-0.21207 0.439909,-0.41227 0.659907,-0.61857 0.138809,-0.0747 0.392227,-0.20831 0.665076,-0.3545 0.08515,-0.0798 0.128685,-0.12187 0.22221,-0.20929 0.397272,-0.37148 0.802587,-0.73404 1.206127,-1.09864 -0.183502,-0.0265 -0.352094,-0.0563 -0.45837,-0.0734 -0.216251,-0.0143 -0.43276,-0.024 -0.649573,-0.0315 -0.02119,0.003 -0.04253,0.007 -0.06356,0.0124 -0.153651,0.003 -0.307297,0.007 -0.460954,0.008 -0.03338,0.002 -0.06686,0.004 -0.100253,0.006 -0.07563,0.014 -0.17176,0.0516 -0.208257,0.016 -0.155093,0.0221 -0.282969,0.0219 -0.387056,0 -0.467765,-7.9e-4 -0.93631,-0.0244 -1.404048,-0.0238 -0.311568,0.001 -0.794944,0.2818 -0.934826,0.003 -0.157086,0.002 -0.314405,0.005 -0.471289,0.006 -0.0416,-0.001 -0.131236,0.0377 -0.124542,-0.004 0.04322,-0.26552 0.07161,-0.53812 0.100769,-0.8108 -0.04819,-0.009 -0.09692,-0.0186 -0.146243,-0.0289 0.01177,-0.89445 -0.306351,-1.857 0.03566,-2.68356 0.142435,-0.34424 0.741389,-0.0786 1.113626,-0.0941 0.102026,-0.004 0.2042,-0.007 0.30644,-0.009 0.429702,-0.34391 0.115131,-0.16756 1.136883,-0.50591 0.15956,-0.004 0.318643,0.001 0.478007,0.002 0.0067,-0.006 0.01341,-0.0122 0.02016,-0.0181 0.08167,-0.0133 0.173757,0.002 0.245462,-0.0398 0.443222,-0.25517 0.855763,-0.56012 1.283644,-0.84026 -0.15781,0.0371 -0.614169,0.19282 -0.473874,0.11162 0.529072,-0.30629 0.998244,-0.33241 1.580267,-0.42891 v -5.3e-4 c 0.204369,-0.0339 0.395692,-0.0488 0.57464,-0.0486 0.212212,-0.47289 0.544219,-0.83278 0.994773,-1.2392 0.629922,-0.25596 -1.123831,0.46176 0.743106,-0.36897 0.588566,-0.2619 1.209154,-0.44285 1.820561,-0.63975 0.374393,-0.12058 0.766344,-0.52343 1.123963,-0.35967 0.06551,0.03 0.128934,0.0623 0.19172,0.0966 0.167846,-0.10619 0.323043,-0.21315 0.451651,-0.32556 z M 47.72887,119.787 c -0.03822,-0.01 -0.07649,-0.0213 -0.114205,-0.0336 -0.0236,-0.008 -0.0222,-0.0208 -0.01188,-0.0362 -0.612188,-0.19445 -1.300017,-0.66814 -0.870234,-1.22422 -0.181475,-0.0944 -0.379497,-0.1941 -0.597894,-0.30024 -0.02313,0.21635 -0.04116,0.41618 -0.0553,0.60255 0.0084,0.0981 0.01651,0.2043 0.02066,0.32763 0.318225,0.22836 0.511533,0.55545 0.566373,0.8971 0.221056,0.006 0.447955,0.0182 0.632521,0.0501 0.144555,-0.0928 0.28879,-0.18575 0.429947,-0.28319 z m -0.996323,-1.29398 c 0.02839,0.0148 0.05775,0.0305 0.08527,0.045 -0.01519,-0.0331 -0.02747,-0.0602 -0.04341,-0.0951 -0.01487,0.0167 -0.02903,0.0335 -0.04186,0.0501 z m 12.811623,0.0729 c -0.0063,0.003 -0.01275,0.007 -0.01913,0.01 0.0016,0.005 0.0026,0.01 0.0041,0.0145 0.0048,-0.008 0.01029,-0.0159 0.01497,-0.0243 z m -0.0646,0.1049 c -0.01029,10e-4 -0.0181,0.003 -0.02894,0.004 0.0056,0.003 0.01847,2e-4 0.02585,0.002 0.0011,-0.002 0.0019,-0.004 0.0031,-0.006 z m -9.340516,1.31826 c -0.05404,0.001 -0.09437,0.13535 -0.143143,0.18759 0.110215,-0.0981 0.09504,-0.0845 0.186034,-0.16536 -0.0063,-0.005 -0.01225,-0.009 -0.0186,-0.0139 -0.0083,-0.006 -0.01656,-0.008 -0.02429,-0.008 z m -13.075172,2.73214 c -0.06985,-0.002 0.137316,0.0431 0.206706,0.0351 0.0391,-0.005 0.07824,-0.0105 0.117306,-0.016 -0.0678,-0.0109 -0.161772,-0.0137 -0.324012,-0.0191 z m 9.907924,2.21382 c -0.01053,0.001 -0.02101,0.003 -0.03152,0.005 -0.01765,0.0254 -0.03572,0.0505 -0.05323,0.076 -0.02212,0.0322 0.123447,-0.0856 0.08475,-0.0806 z m -1.580266,5.46891 c -0.02141,0.0107 -0.04282,0.0211 -0.06615,0.0238 -0.502214,0.0582 -0.70312,-0.0438 -0.397391,0.0796 0.254545,-0.0178 0.399608,-0.0257 0.463537,-0.10335 z" />
    </clipPath>
  </defs>
  <g
     inkscape:label="Layer 1"
     inkscape:groupmode="layer"
     id="layer1"
     style="display:inline">
    <g
       id="g1779"
       transform="matrix(0.41268051,0,0,0.45404069,69.846816,10.324076)" />
    <path
       style="fill:#ffffff;stroke:#000000;stroke-width:1.91287;stroke-linecap:round;stroke-linejoin:round;stroke-miterlimit:4;stroke-dasharray:none;stroke-opacity:0.955017;paint-order:stroke markers fill"
       d=""
       id="path3344"
       transform="scale(0.26458333)" />
    <path
       style="fill:#ffffff;stroke:#000000;stroke-width:1.91287;stroke-linecap:round;stroke-linejoin:round;stroke-miterlimit:4;stroke-dasharray:none;stroke-opacity:0.955017;paint-order:stroke markers fill"
       d=""
       id="path3383"
       transform="scale(0.26458333)" />
    <path
       style="fill:#ffffff;stroke:#000000;stroke-width:1.91287;stroke-linecap:round;stroke-linejoin:round;stroke-miterlimit:4;stroke-dasharray:none;stroke-opacity:0.955017;paint-order:stroke markers fill"
       d=""
       id="path3734"
       transform="scale(0.26458333)" />
    <path
       style="fill:#ffffff;stroke:#000000;stroke-width:1.91287;stroke-linecap:round;stroke-linejoin:round;stroke-miterlimit:4;stroke-dasharray:none;stroke-opacity:0.955017;paint-order:stroke markers fill"
       d=""
       id="path4085"
       transform="scale(0.26458333)" />
    <path
       style="fill:#ffffff;stroke:#000000;stroke-width:1.91287;stroke-linecap:round;stroke-linejoin:round;stroke-miterlimit:4;stroke-dasharray:none;stroke-opacity:0.955017;paint-order:stroke markers fill"
       d=""
       id="path4768"
       transform="scale(0.26458333)" />
    <path
       style="fill:#93a7ac;stroke:none;stroke-width:1.91287;stroke-linecap:round;stroke-linejoin:round;stroke-opacity:0.955017;paint-order:stroke markers fill"
       d=""
       id="path2798"
       transform="scale(0.26458333)" />
    <path
       style="fill:#374548;stroke:none;stroke-width:1.91287;stroke-linecap:round;stroke-linejoin:round;stroke-opacity:0.955017;paint-order:stroke markers fill"
       d=""
       id="path3888"
       transform="scale(0.26458333)" />
    <path
       style="fill:#374548;stroke:none;stroke-width:1.91287;stroke-linecap:round;stroke-linejoin:round;stroke-opacity:0.955017;paint-order:stroke markers fill"
       d=""
       id="path4272"
       transform="scale(0.26458333)" />
    <path
       style="fill:#374548;stroke:none;stroke-width:1.91287;stroke-linecap:round;stroke-linejoin:round;stroke-opacity:0.955017;paint-order:stroke markers fill"
       d=""
       id="path4428"
       transform="scale(0.26458333)" />
    <path
       style="fill:#374548;stroke:none;stroke-width:1.91287;stroke-linecap:round;stroke-linejoin:round;stroke-opacity:0.955017;paint-order:stroke markers fill"
       d=""
       id="path4467"
       transform="scale(0.26458333)" />
    <path
       style="fill:#374548;stroke:none;stroke-width:1.91287;stroke-linecap:round;stroke-linejoin:round;stroke-opacity:0.955017;paint-order:stroke markers fill"
       d=""
       id="path4543"
       transform="scale(0.26458333)" />
    <path
       style="fill:#374548;stroke:none;stroke-width:1.91287;stroke-linecap:round;stroke-linejoin:round;stroke-opacity:0.955017;paint-order:stroke markers fill"
       d=""
       id="path4621"
       transform="scale(0.26458333)" />
    <g
       id="g1810"
       transform="matrix(0.3821761,0,0,0.38954766,-10.465249,-21.113266)">
      <path
         id="path1313"
         style="display:inline;fill:none;stroke:#000000;stroke-width:1.265;stroke-linecap:round;stroke-linejoin:round;stroke-opacity:0.955017;paint-order:stroke markers fill"
         d="m 139.03356,103.41964 a 52.03434,44.463207 0 0 1 -52.034338,44.46321 52.03434,44.463207 0 0 1 -52.03434,-44.46321 52.03434,44.463207 0 0 1 52.03434,-44.463208 52.03434,44.463207 0 0 1 52.034338,44.463208 z m -14.59164,1.47498 a 35.65316,36.066132 0 0 1 -35.653163,36.06613 35.65316,36.066132 0 0 1 -35.65316,-36.06613 35.65316,36.066132 0 0 1 35.65316,-36.066129 35.65316,36.066132 0 0 1 35.653163,36.066129 z"
         clip-path="url(#clipPath1703)" />
      <rect
         style="fill:none;stroke:#000000;stroke-width:1.47939;stroke-linecap:round;stroke-linejoin:round;stroke-opacity:0.955017;paint-order:stroke markers fill"
         id="rect1438"
         width="13.831306"
         height="124.11937"
         x="126.71185"
         y="-55.560753"
         ry="3.383419"
         transform="matrix(0.67986484,0.73333742,-0.88334712,0.46871935,0,0)" />
    </g>
  </g>
  <g
     inkscape:groupmode="layer"
     id="layer2"
     inkscape:label="Layer 2">
    <g
       id="g2474">
      <g
         id="g2213"
         transform="matrix(0.38217609,0,0,0.38954765,-7.7121092,235.47936)">
        <path
           id="path2209"
           style="display:inline;fill:none;stroke:#000000;stroke-width:1.265;stroke-linecap:round;stroke-linejoin:round;stroke-opacity:0.955017;paint-order:stroke markers fill"
           d="m 139.03356,103.41964 a 52.03434,44.463207 0 0 1 -52.034338,44.46321 52.03434,44.463207 0 0 1 -52.03434,-44.46321 52.03434,44.463207 0 0 1 52.03434,-44.463208 52.03434,44.463207 0 0 1 52.034338,44.463208 z m -14.59164,1.47498 a 35.65316,36.066132 0 0 1 -35.653163,36.06613 35.65316,36.066132 0 0 1 -35.65316,-36.06613 35.65316,36.066132 0 0 1 35.65316,-36.066129 35.65316,36.066132 0 0 1 35.653163,36.066129 z"
           clip-path="url(#clipPath1703)" />
        <rect
           style="fill:none;stroke:#000000;stroke-width:1.47939;stroke-linecap:round;stroke-linejoin:round;stroke-opacity:0.955017;paint-order:stroke markers fill"
           id="rect2211"
           width="13.831306"
           height="124.11937"
           x="126.71185"
           y="-55.560753"
           ry="3.383419"
           transform="matrix(0.67986484,0.73333742,-0.88334712,0.46871935,0,0)" />
      </g>
      <path
         style="fill:#ffffff;stroke:#000000;stroke-width:4.97501;stroke-linecap:round;stroke-linejoin:round;stroke-opacity:0.955017;paint-order:stroke markers fill"
         d="m 24.383401,1054.4415 c -7.890379,-35.4657 19.117866,-68.83006 61.00756,-75.36499 8.737644,-1.3631 20.976129,-0.69777 31.151399,1.69352 7.45145,1.75116 23.76736,9.40599 28.53399,13.3871 l 3.04035,2.53932 -6.86294,3.38425 -6.86295,3.3843 -3.72725,-2.8429 c -2.05001,-1.56364 -6.65122,-4.20198 -10.22493,-5.86301 -25.634799,-11.91482 -55.80376,-0.78629 -68.286374,25.18901 -4.349491,9.051 -6.94311,21.634 -5.719876,27.7502 0.693156,3.4657 0.874853,3.3121 -12.285559,10.389 l -7.995728,4.2997 z"
         id="path2270"
         transform="scale(0.26458333)" />
      <path
         style="fill:#ffffff;stroke:#000000;stroke-width:4.97501;stroke-linecap:round;stroke-linejoin:round;stroke-opacity:0.955017;paint-order:stroke markers fill"
         d="m 80.122871,1104.624 c -13.540197,-2.852 -27.46753,-9.7488 -36.448253,-18.049 l -5.319324,-4.9162 7.922496,-4.1623 c 7.693479,-4.0419 7.956838,-4.102 9.110509,-2.0811 0.653408,1.1446 3.403916,4.4224 6.112239,7.2839 22.598818,23.8772 61.939462,20.6551 80.467802,-6.5905 6.33493,-9.3154 8.99864,-17.2972 9.60736,-28.7884 0.37802,-7.1361 0.0217,-11.1803 -1.497,-16.9921 l -1.99309,-7.627 2.17798,-1.3313 c 1.19789,-0.7323 4.48378,-2.5806 7.30198,-4.1074 5.79906,-3.1417 5.65341,-3.2288 8.89476,5.3195 5.75301,15.1723 4.69915,30.7731 -3.10842,46.0153 -8.15017,15.911 -25.8974,29.6023 -45.24872,34.9076 -8.51612,2.3347 -29.301333,2.9471 -37.980319,1.119 z"
         id="path2309"
         transform="scale(0.26458333)" />
      <path
         style="fill:#ffffff;stroke:#000000;stroke-width:4.97501;stroke-linecap:round;stroke-linejoin:round;stroke-opacity:0.955017;paint-order:stroke markers fill"
         d="m 16.497196,1081.0792 c -2.717149,-2.8941 -4.71187,-5.8207 -4.432713,-6.5035 0.279158,-0.6828 22.14494,-12.9165 48.590629,-27.1862 26.445689,-14.2696 60.620558,-32.7147 75.944158,-40.9891 21.4971,-11.60804 28.29098,-14.83254 29.74313,-14.11671 1.03513,0.51025 3.67497,2.94189 5.86632,5.40364 3.4221,3.84437 3.77684,4.67957 2.51412,5.91937 -1.17893,1.1575 -47.5721,26.4795 -119.573332,65.2646 -4.292296,2.3122 -13.286404,7.1888 -19.986906,10.8369 -6.700502,3.6482 -12.52977,6.6331 -12.953931,6.6331 -0.424162,0 -2.994325,-2.368 -5.711475,-5.2621 z"
         id="path2348"
         transform="scale(0.26458333)" />
    </g>
  </g>
  <g
     inkscape:groupmode="layer"
     id="layer3"
     inkscape:label="Layer 3">
    <g
       id="g2207"
       transform="translate(41.847725,-4.9556517)">
      <g
         id="g1935"
         transform="matrix(0.38217609,0,0,0.38954765,109.84696,-14.781045)">
        <path
           id="path1931"
           style="display:inline;fill:none;stroke:#000000;stroke-width:1.265;stroke-linecap:round;stroke-linejoin:round;stroke-opacity:0.955017;paint-order:stroke markers fill"
           d="m 139.03356,103.41964 a 52.03434,44.463207 0 0 1 -52.034338,44.46321 52.03434,44.463207 0 0 1 -52.03434,-44.46321 52.03434,44.463207 0 0 1 52.03434,-44.463208 52.03434,44.463207 0 0 1 52.034338,44.463208 z m -14.59164,1.47498 a 35.65316,36.066132 0 0 1 -35.653163,36.06613 35.65316,36.066132 0 0 1 -35.65316,-36.06613 35.65316,36.066132 0 0 1 35.65316,-36.066129 35.65316,36.066132 0 0 1 35.653163,36.066129 z"
           clip-path="url(#clipPath1703)" />
        <rect
           style="fill:none;stroke:#000000;stroke-width:1.47939;stroke-linecap:round;stroke-linejoin:round;stroke-opacity:0.955017;paint-order:stroke markers fill"
           id="rect1933"
           width="13.831306"
           height="124.11937"
           x="126.71185"
           y="-55.560753"
           ry="3.383419"
           transform="matrix(0.67986484,0.73333742,-0.88334712,0.46871935,0,0)" />
      </g>
      <path
         style="fill:#000000;stroke:#000000;stroke-width:4.97501;stroke-linecap:round;stroke-linejoin:round;stroke-opacity:0.955017;paint-order:stroke markers fill"
         d="M 468.70114,108.57544 C 460.81076,73.109691 487.819,39.745349 529.7087,33.210414 c 8.73764,-1.363102 20.97612,-0.697768 31.15139,1.693519 7.45146,1.751164 23.76737,9.405992 28.534,13.387101 l 3.04035,2.539318 -6.86294,3.38427 -6.86295,3.384272 -3.72726,-2.84292 c -2.05,-1.563606 -6.65121,-4.201946 -10.22493,-5.862977 -25.63479,-11.914824 -55.80375,-0.786292 -68.28637,25.189037 -4.34949,9.050947 -6.94311,21.633962 -5.71987,27.750136 0.69315,3.46578 0.87485,3.31213 -12.28556,10.38905 l -7.99573,4.29965 z"
         id="path1992"
         transform="scale(0.26458333)" />
      <path
         style="fill:#000000;stroke:#000000;stroke-width:4.97501;stroke-linecap:round;stroke-linejoin:round;stroke-opacity:0.955017;paint-order:stroke markers fill"
         d="m 460.81493,135.21311 c -2.71715,-2.89412 -4.71187,-5.82069 -4.43271,-6.50348 0.27916,-0.68278 22.14494,-12.91657 48.59063,-27.18619 26.44569,-14.269612 60.62056,-32.714743 75.94415,-40.989173 21.4971,-11.608 28.29098,-14.832507 29.74314,-14.116677 1.03513,0.510258 3.67497,2.941897 5.86632,5.403641 3.4221,3.844374 3.77683,4.679565 2.51412,5.919376 -1.17893,1.157545 -47.5721,26.479516 -119.57333,65.264613 -4.2923,2.31215 -13.28641,7.18876 -19.98691,10.83692 -6.7005,3.64816 -12.52977,6.63302 -12.95393,6.63302 -0.42416,0 -2.99433,-2.36792 -5.71148,-5.26205 z"
         id="path2031"
         transform="scale(0.26458333)" />
      <path
         style="fill:#000000;stroke:#000000;stroke-width:4.97501;stroke-linecap:round;stroke-linejoin:round;stroke-opacity:0.955017;paint-order:stroke markers fill"
         d="m 524.44061,158.75794 c -13.5402,-2.85204 -27.46753,-9.7488 -36.44825,-18.04902 l -5.31933,-4.91626 7.9225,-4.16223 c 7.69348,-4.04191 7.95683,-4.10207 9.11051,-2.08111 0.6534,1.14461 3.40391,4.42236 6.11224,7.28389 22.59881,23.87722 61.93946,20.65513 80.4678,-6.59049 6.33493,-9.3154 8.99864,-17.29722 9.60735,-28.78844 0.37803,-7.136105 0.0217,-11.180263 -1.49699,-16.992035 l -1.9931,-7.627028 2.17798,-1.331362 c 1.19789,-0.73225 4.48378,-2.580555 7.30199,-4.107346 5.79906,-3.141709 5.6534,-3.228824 8.89476,5.319534 5.75301,15.172293 4.69914,30.773077 -3.10843,46.015257 -8.15017,15.91103 -25.8974,29.6023 -45.24871,34.90757 -8.51612,2.33474 -29.30134,2.94716 -37.98032,1.11907 z"
         id="path2070"
         transform="scale(0.26458333)" />
    </g>
  </g>
  <g
     inkscape:groupmode="layer"
     id="layer4"
     inkscape:label="Layer 4">
    <g
       id="g2754">
      <g
         id="g2491"
         transform="matrix(0.3821761,0,0,0.38954766,151.69468,234.10279)"
         style="display:inline">
        <path
           id="path2487"
           style="display:inline;fill:none;stroke:#000000;stroke-width:1.265;stroke-linecap:round;stroke-linejoin:round;stroke-opacity:0.955017;paint-order:stroke markers fill"
           d="m 139.03356,103.41964 a 52.03434,44.463207 0 0 1 -52.034338,44.46321 52.03434,44.463207 0 0 1 -52.03434,-44.46321 52.03434,44.463207 0 0 1 52.03434,-44.463208 52.03434,44.463207 0 0 1 52.034338,44.463208 z m -14.59164,1.47498 a 35.65316,36.066132 0 0 1 -35.653163,36.06613 35.65316,36.066132 0 0 1 -35.65316,-36.06613 35.65316,36.066132 0 0 1 35.65316,-36.066129 35.65316,36.066132 0 0 1 35.653163,36.066129 z"
           clip-path="url(#clipPath1703)" />
        <rect
           style="fill:none;stroke:#000000;stroke-width:1.47939;stroke-linecap:round;stroke-linejoin:round;stroke-opacity:0.955017;paint-order:stroke markers fill"
           id="rect2489"
           width="13.831306"
           height="124.11937"
           x="126.71185"
           y="-55.560753"
           ry="3.383419"
           transform="matrix(0.67986484,0.73333742,-0.88334712,0.46871935,0,0)" />
      </g>
      <path
         style="fill:#782144;stroke:#000000;stroke-width:4.97501;stroke-linecap:round;stroke-linejoin:round;stroke-opacity:0.955017;paint-order:stroke markers fill"
         d="m 626.86577,1049.2387 c -7.89038,-35.4657 19.11786,-68.83004 61.00756,-75.36497 8.73764,-1.36311 20.97612,-0.69777 31.15139,1.69352 7.45146,1.75116 23.76737,9.40599 28.53399,13.3871 l 3.04035,2.53931 -6.86294,3.38427 -6.86295,3.38428 -3.72725,-2.84292 c -2.05,-1.56361 -6.65121,-4.20195 -10.22493,-5.86298 -25.63479,-11.91483 -55.80376,-0.78629 -68.28637,25.18899 -4.34949,9.051 -6.94311,21.634 -5.71987,27.7502 0.69315,3.4658 0.87485,3.3121 -12.28556,10.389 l -7.99573,4.2997 z"
         id="path2551"
         transform="scale(0.26458333)" />
      <path
         style="fill:#782144;stroke:#000000;stroke-width:4.97501;stroke-linecap:round;stroke-linejoin:round;stroke-opacity:0.955017;paint-order:stroke markers fill"
         d="m 618.97956,1075.8764 c -2.71715,-2.8941 -4.71187,-5.8207 -4.43271,-6.5035 0.27916,-0.6827 22.14494,-12.9165 48.59063,-27.1861 26.44569,-14.2697 60.62056,-32.7148 75.94415,-40.9892 21.4971,-11.60802 28.29098,-14.83253 29.74314,-14.1167 1.03512,0.51026 3.67497,2.9419 5.86632,5.40364 3.4221,3.84438 3.77683,4.67957 2.51412,5.91938 -1.17893,1.15754 -47.57211,26.47948 -119.57334,65.26458 -4.29229,2.3122 -13.2864,7.1888 -19.9869,10.837 -6.7005,3.6481 -12.52977,6.633 -12.95393,6.633 -0.42417,0 -2.99433,-2.3679 -5.71148,-5.2621 z"
         id="path2590"
         transform="scale(0.26458333)" />
      <path
         style="fill:#782144;stroke:#000000;stroke-width:4.97501;stroke-linecap:round;stroke-linejoin:round;stroke-opacity:0.955017;paint-order:stroke markers fill"
         d="m 682.60524,1099.4212 c -13.5402,-2.852 -27.46753,-9.7487 -36.44826,-18.049 l -5.31932,-4.9162 7.92249,-4.1623 c 7.69348,-4.0419 7.95684,-4.102 9.11051,-2.0811 0.65341,1.1446 3.40392,4.4224 6.11224,7.2839 22.59882,23.8772 61.93946,20.6552 80.46781,-6.5905 6.33493,-9.3154 8.99864,-17.2972 9.60735,-28.7884 0.37803,-7.1361 0.0217,-11.1803 -1.49699,-16.992 l -1.9931,-7.6271 2.17798,-1.3313 c 1.19789,-0.7323 4.48378,-2.5806 7.30198,-4.1074 5.79907,-3.1417 5.65341,-3.2288 8.89477,5.3196 5.75301,15.1722 4.69914,30.773 -3.10843,46.0152 -8.15017,15.911 -25.8974,29.6023 -45.24871,34.9076 -8.51612,2.3347 -29.30134,2.9471 -37.98032,1.119 z"
         id="path2629"
         transform="scale(0.26458333)" />
    </g>
  </g>
</svg>
