<?xml version="1.0" encoding="UTF-8" standalone="no"?>
<!-- Created with Inkscape (http://www.inkscape.org/) -->

<svg
   width="210mm"
   height="297mm"
   viewBox="0 0 210 297"
   version="1.1"
   id="svg5"
   inkscape:version="1.1.1 (3bf5ae0d25, 2021-09-20)"
   sodipodi:docname="b music icon.svg"
   xmlns:inkscape="http://www.inkscape.org/namespaces/inkscape"
   xmlns:sodipodi="http://sodipodi.sourceforge.net/DTD/sodipodi-0.dtd"
   xmlns="http://www.w3.org/2000/svg"
   xmlns:svg="http://www.w3.org/2000/svg">
  <sodipodi:namedview
     id="namedview7"
     pagecolor="#ffffff"
     bordercolor="#666666"
     borderopacity="1.0"
     inkscape:pageshadow="2"
     inkscape:pageopacity="0.0"
     inkscape:pagecheckerboard="0"
     inkscape:document-units="mm"
     showgrid="false"
     inkscape:zoom="0.62270623"
     inkscape:cx="396.65574"
     inkscape:cy="853.53249"
     inkscape:window-width="1680"
     inkscape:window-height="956"
     inkscape:window-x="-11"
     inkscape:window-y="-11"
     inkscape:window-maximized="1"
     inkscape:current-layer="layer1" />
  <defs
     id="defs2">
    <inkscape:path-effect
       effect="spiro"
       id="path-effect3436"
       is_visible="true"
       lpeversion="1" />
    <inkscape:path-effect
       effect="spiro"
       id="path-effect2757"
       is_visible="true"
       lpeversion="1" />
    <inkscape:path-effect
       effect="spiro"
       id="path-effect2751"
       is_visible="true"
       lpeversion="1" />
    <inkscape:path-effect
       effect="spiro"
       id="path-effect2256"
       is_visible="true"
       lpeversion="1" />
    <inkscape:path-effect
       effect="spiro"
       id="path-effect2219"
       is_visible="true"
       lpeversion="1" />
    <inkscape:path-effect
       effect="spiro"
       id="path-effect2114"
       is_visible="true"
       lpeversion="1" />
    <inkscape:path-effect
       effect="spiro"
       id="path-effect2110"
       is_visible="true"
       lpeversion="1" />
    <inkscape:path-effect
       effect="spiro"
       id="path-effect2106"
       is_visible="true"
       lpeversion="1" />
    <inkscape:path-effect
       effect="spiro"
       id="path-effect2102"
       is_visible="true"
       lpeversion="1" />
    <inkscape:path-effect
       effect="spiro"
       id="path-effect2098"
       is_visible="true"
       lpeversion="1" />
    <inkscape:path-effect
       effect="spiro"
       id="path-effect1962"
       is_visible="true"
       lpeversion="1" />
    <inkscape:path-effect
       effect="spiro"
       id="path-effect1956"
       is_visible="true"
       lpeversion="1" />
    <inkscape:path-effect
       effect="spiro"
       id="path-effect1919"
       is_visible="true"
       lpeversion="1" />
    <inkscape:path-effect
       effect="spiro"
       id="path-effect1590"
       is_visible="true"
       lpeversion="1" />
    <inkscape:path-effect
       effect="spiro"
       id="path-effect988"
       is_visible="true"
       lpeversion="1" />
    <inkscape:path-effect
       effect="spiro"
       id="path-effect982"
       is_visible="true"
       lpeversion="1" />
    <inkscape:path-effect
       effect="spiro"
       id="path-effect865"
       is_visible="true"
       lpeversion="1" />
    <inkscape:path-effect
       effect="spiro"
       id="path-effect859"
       is_visible="true"
       lpeversion="1" />
  </defs>
  <g
     inkscape:label="Layer 1"
     inkscape:groupmode="layer"
     id="layer1">
    <path
       id="path2254"
       style="fill:none;stroke:#000000;stroke-width:1.679;stroke-linecap:butt;stroke-linejoin:miter;stroke-miterlimit:4;stroke-dasharray:none;stroke-opacity:1"
       inkscape:path-effect="#path-effect2256"
       inkscape:original-d="m 32.356592,99.93233 c 1.23166,1.3e-4 2.46317,1.3e-4 3.69454,0 m 30.24899,-29.06988 c -4.84922,1.43568 -9.69829,2.87123 -14.54722,4.30665 -4.84894,1.43542 -11.69951,12.34586 -17.54904,18.51859 m 28.86354,15.9346 c 1.07743,-12.91981 2.155,-25.83976 3.23272,-38.75984 m -8.54361,39.62117 c 1.84713,-0.28698 3.54046,-0.57409 5.31089,-0.86133 m -2.07817,-29.93121 c -7.77406,5.95767 -15.54797,12.05875 -23.32174,18.08793 -7.77377,6.02917 -1.07772,1.43568 -1.61636,2.15332 m 24.9381,-20.24125 c -1.07772,10.19254 -2.15529,20.5285 -3.23272,30.79254 M 2.1076049,70.86245 c 4.8492191,1.43568 9.6982931,2.87123 14.5472271,4.30665 4.84893,1.43542 11.6995,12.34586 17.54903,18.51859 m -28.86354,15.9346 C 4.262893,96.70248 3.185321,83.78253 2.1076049,70.86245 m 8.5436091,39.62117 C 8.804091,110.19664 7.110763,109.90953 5.340322,109.62229 M 7.418497,79.69108 c 7.774057,5.95767 15.547975,12.05875 23.321745,18.08793 7.77377,6.02917 1.07771,1.43568 1.61635,2.15332 M 7.418497,79.69108 c 1.077716,10.19254 2.155288,20.5285 3.232717,30.79254 m 12.699958,-61.8004 c 5.31103,1.14857 10.62193,2.29701 15.93267,3.44531 5.31075,1.14831 4.1565,4.45034 6.23453,6.67531 2.07803,2.22497 0.92377,1.3e-4 1.38544,0 M 22.889352,40.500586 c 5.31104,1.148574 10.62193,2.297011 15.93268,3.445317 5.31074,1.148305 4.15649,4.450337 6.23452,6.675307 2.07803,2.22497 0.92378,1.3e-4 1.38545,0 M 21.473012,21.850524 c 6.52966,-0.51608 13.0592,-1.032278 19.58863,-1.548598 6.52944,-0.516319 1.1e-4,9.936951 0,14.905243 -1.1e-4,4.968294 3.78359,12.776045 5.67522,19.163881 1.89162,6.38785 -15.62198,11.74366 -23.43314,17.6153 m -1.79982,-52.803673 c 8.23588,-0.574087 16.47161,-1.148306 24.70719,-1.722659 8.23559,-0.574355 1.4e-4,11.053864 0,16.580596 -1.4e-4,5.526729 4.77225,14.212076 7.15816,21.317906 2.38591,7.10584 -19.70403,13.06363 -29.55626,19.59525 m -7.15816,0.646 c 2.38619,-0.2152 4.77225,-0.43053 7.15816,-0.646 M 13.653022,13.153369 c 2.3862,-0.215198 4.77225,-0.430531 7.15816,-0.645997 m 0,0 c 1.00074,20.8156 2.00135,41.631068 3.00181,62.446398 M 13.653022,13.153369 c 1.000746,20.8156 2.00135,41.631061 3.00181,62.446401"
       d="m 32.356592,99.93233 h 3.69454 m 30.24899,-29.06988 c -5.066667,0.476254 -10.037843,1.947952 -14.54722,4.30665 -7.674499,4.014262 -13.95288,10.639512 -17.54904,18.51859 m 28.86354,15.9346 3.23272,-38.75984 m -8.54361,39.62117 5.31089,-0.86133 m -2.07817,-29.93121 c -9.095296,4.002896 -17.181747,10.274604 -23.32174,18.08793 -0.554588,0.705729 -1.09355,1.423737 -1.61636,2.15332 m 24.9381,-20.24125 -3.23272,30.79254 M 2.1076049,70.86245 c 5.0666694,0.476253 10.0378491,1.947951 14.5472271,4.30665 7.674496,4.014262 13.952875,10.639513 17.54903,18.51859 M 5.340322,109.62229 2.1076049,70.86245 m 8.5436091,39.62117 -5.310892,-0.86133 M 7.418497,79.69108 c 9.095311,4.00287 17.181771,10.274584 23.321745,18.08793 0.554584,0.705729 1.093544,1.423737 1.61635,2.15332 M 7.418497,79.69108 l 3.232717,30.79254 m 12.699958,-61.8004 c 2.582873,-1.478721 5.718509,-1.963854 8.627487,-1.334812 2.908978,0.629043 5.564026,2.366365 7.305183,4.780122 0.919261,1.274367 1.585352,2.716874 2.504766,3.991131 0.459706,0.637128 0.985022,1.233122 1.607896,1.711965 0.622875,0.478843 1.347733,0.838133 2.121868,0.972214 0.457277,0.0792 0.928163,0.0792 1.38544,0 M 22.889352,40.500586 c 2.582875,-1.478722 5.718514,-1.963855 8.627494,-1.334811 2.90898,0.629044 5.564029,2.366368 7.305186,4.780128 0.919259,1.274366 1.58535,2.716872 2.504761,3.991128 0.459706,0.637128 0.985021,1.233121 1.607894,1.711964 0.622874,0.478843 1.347731,0.838133 2.121865,0.972215 0.45728,0.0792 0.92817,0.0792 1.38545,0 M 21.473012,21.850524 c 0.395711,-2.18797 1.533109,-4.234948 3.181974,-5.726606 1.648865,-1.491658 3.799196,-2.418949 6.015746,-2.59418 2.21655,-0.175232 4.485875,0.402659 6.348642,1.616702 1.862766,1.214042 3.307677,3.056873 4.042268,5.155486 0.826576,2.361399 0.754554,4.937799 0.504149,7.427122 -0.250405,2.489323 -0.669782,4.981724 -0.504149,7.478121 0.221447,3.337621 1.475152,6.509549 2.74359,9.604677 1.268438,3.095128 2.581192,6.232652 2.93163,9.559204 0.307631,2.9202 -0.154123,5.918018 -1.326243,8.610293 -1.17212,2.692274 -3.051881,5.072743 -5.399022,6.83715 -2.347142,1.764407 -5.156206,2.908649 -8.068156,3.286477 -2.91195,0.377827 -5.920013,-0.01164 -8.639719,-1.11862 m -1.79982,-52.803673 c 0.409367,-2.838021 1.816103,-5.522139 3.916925,-7.473675 2.100821,-1.9515357 4.88117,-3.1569648 7.741619,-3.3564039 2.860449,-0.199439 5.781175,0.6084942 8.132488,2.2496139 2.351312,1.64112 4.116916,4.104053 4.916158,6.857806 0.774136,2.667252 0.651951,5.506678 0.39221,8.271828 -0.25974,2.76515 -0.650712,5.543502 -0.39221,8.308768 0.350318,3.747447 1.872664,7.273255 3.424148,10.702392 1.551483,3.429137 3.169939,6.894237 3.734012,10.615514 0.554682,3.659327 0.04233,7.474004 -1.458242,10.85729 -1.500575,3.383285 -3.984252,6.323627 -7.069013,8.368767 -3.084761,2.045139 -6.760074,3.188092 -10.460632,3.253061 -3.700557,0.06497 -7.413725,-0.94827 -10.568373,-2.883868 m -7.15816,0.646 7.15816,-0.646 m -10.15997,-61.800401 7.15816,-0.645997 m 0,0 3.00181,62.446398 m -10.15997,-61.800401 3.00181,62.446401" />
    <g
       id="g3092">
      <path
         id="path2753"
         style="fill:none;stroke:#000000;stroke-width:1.679;stroke-linecap:butt;stroke-linejoin:miter;stroke-miterlimit:4;stroke-dasharray:none;stroke-opacity:1"
         inkscape:path-effect="#path-effect2757"
         inkscape:original-d="m 84.193502,217.62761 c 1.23166,1.3e-4 2.46317,1.3e-4 3.69454,0 m 30.248988,-29.06988 c -4.84922,1.43568 -9.69829,2.87123 -14.54722,4.30665 -4.848938,1.43542 -11.699508,12.34586 -17.549038,18.51859 m 28.863538,15.9346 c 1.07743,-12.91981 2.155,-25.83976 3.23272,-38.75984 m -8.54361,39.62117 c 1.84713,-0.28698 3.54046,-0.57409 5.31089,-0.86133 m -2.07817,-29.93121 c -7.77406,5.95767 -15.547968,12.05875 -23.321738,18.08793 -7.77377,6.02917 -1.07772,1.43568 -1.61636,2.15332 m 24.938098,-20.24125 c -1.07772,10.19254 -2.15529,20.5285 -3.23272,30.79254 M 53.944515,188.55773 c 4.849219,1.43568 9.698293,2.87123 14.547227,4.30665 4.84893,1.43542 11.6995,12.34586 17.54903,18.51859 m -28.86354,15.9346 c -1.077429,-12.91981 -2.155001,-25.83976 -3.232717,-38.75984 m 8.543609,39.62117 c -1.847123,-0.28698 -3.540451,-0.57409 -5.310892,-0.86133 m 2.078175,-29.93121 c 7.774057,5.95767 15.547975,12.05875 23.321745,18.08793 7.77377,6.02917 1.07771,1.43568 1.61635,2.15332 M 59.255407,197.38636 c 1.077716,10.19254 2.155288,20.5285 3.232717,30.79254 m 12.699958,-61.8004 c 5.31103,1.14857 10.62193,2.29701 15.93267,3.44531 5.31075,1.14831 4.1565,4.45034 6.23453,6.67531 2.07803,2.22497 0.92377,1.3e-4 1.38544,0 m -24.01446,-18.30326 c 5.31104,1.14858 10.62193,2.29702 15.93268,3.44532 5.31074,1.14831 4.15649,4.45034 6.23452,6.67531 2.07803,2.22497 0.92378,1.3e-4 1.38545,0 M 73.309922,139.5458 c 6.52966,-0.51608 13.0592,-1.03228 19.58863,-1.5486 6.52944,-0.51631 1.1e-4,9.93696 0,14.90525 -1.1e-4,4.96829 3.78359,12.77604 5.67522,19.16388 1.891618,6.38785 -15.62198,11.74366 -23.43314,17.6153 m -1.79982,-52.80367 c 8.23588,-0.57409 16.47161,-1.14831 24.70719,-1.72266 8.235588,-0.57436 1.4e-4,11.05386 0,16.58059 -1.4e-4,5.52673 4.772248,14.21208 7.158158,21.31791 2.38591,7.10584 -19.704028,13.06363 -29.556258,19.59525 m -7.15816,0.646 c 2.38619,-0.2152 4.77225,-0.43053 7.15816,-0.646 m -10.15997,-61.8004 c 2.3862,-0.2152 4.77225,-0.43053 7.15816,-0.646 m 0,0 c 1.00074,20.8156 2.00135,41.63107 3.00181,62.4464 m -10.15997,-61.8004 c 1.000746,20.8156 2.00135,41.63106 3.00181,62.4464"
         d="m 84.193502,217.62761 h 3.69454 m 30.248988,-29.06988 c -5.06667,0.47625 -10.03784,1.94795 -14.54722,4.30665 -7.674498,4.01426 -13.952879,10.63951 -17.549038,18.51859 m 28.863538,15.9346 3.23272,-38.75984 m -8.54361,39.62117 5.31089,-0.86133 m -2.07817,-29.93121 c -9.09529,4.0029 -17.181745,10.2746 -23.321738,18.08793 -0.554588,0.70573 -1.09355,1.42374 -1.61636,2.15332 m 24.938098,-20.24125 -3.23272,30.79254 M 53.944515,188.55773 c 5.066669,0.47625 10.037849,1.94795 14.547227,4.30665 7.674496,4.01426 13.952875,10.63951 17.54903,18.51859 m -28.86354,15.9346 -3.232717,-38.75984 m 8.543609,39.62117 -5.310892,-0.86133 m 2.078175,-29.93121 c 9.095311,4.00287 17.181771,10.27458 23.321745,18.08793 0.554584,0.70573 1.093544,1.42374 1.61635,2.15332 m -24.938095,-20.24125 3.232717,30.79254 m 12.699958,-61.8004 c 2.582873,-1.47872 5.718509,-1.96385 8.627487,-1.33481 2.908978,0.62904 5.564026,2.36636 7.305183,4.78012 0.919261,1.27437 1.585352,2.71687 2.504766,3.99113 0.459706,0.63713 0.985022,1.23312 1.607896,1.71197 0.622875,0.47884 1.347733,0.83813 2.121868,0.97221 0.457277,0.0792 0.928163,0.0792 1.38544,0 m -24.01446,-18.30326 c 2.582875,-1.47872 5.718514,-1.96385 8.627494,-1.33481 2.908981,0.62904 5.56403,2.36637 7.305186,4.78013 0.919259,1.27437 1.585349,2.71687 2.504761,3.99113 0.459706,0.63713 0.98502,1.23312 1.607894,1.71196 0.622873,0.47885 1.347731,0.83814 2.121865,0.97222 0.45728,0.0792 0.92817,0.0792 1.38545,0 M 73.309922,139.5458 c 0.395711,-2.18797 1.533109,-4.23495 3.181974,-5.72661 1.648865,-1.49165 3.799196,-2.41894 6.015745,-2.59418 2.21655,-0.17523 4.485875,0.40266 6.348642,1.6167 1.862767,1.21405 3.307678,3.05688 4.042269,5.15549 0.826577,2.3614 0.754555,4.9378 0.50415,7.42713 -0.250405,2.48932 -0.669783,4.98172 -0.50415,7.47812 0.221447,3.33762 1.475152,6.50955 2.74359,9.60468 1.268438,3.09512 2.581192,6.23265 2.93163,9.5592 0.307631,2.9202 -0.154123,5.91802 -1.326243,8.61029 -1.17212,2.69228 -3.05188,5.07275 -5.399022,6.83715 -2.347141,1.76441 -5.156206,2.90865 -8.068156,3.28648 -2.91195,0.37783 -5.920013,-0.0116 -8.639719,-1.11862 m -1.79982,-52.80367 c 0.409366,-2.83802 1.816102,-5.52214 3.916924,-7.47368 2.100822,-1.95153 4.881171,-3.15696 7.74162,-3.3564 2.860449,-0.19944 5.781175,0.60849 8.132488,2.24961 2.351312,1.64112 4.116916,4.10406 4.916158,6.85781 0.774136,2.66725 0.65195,5.50668 0.39221,8.27183 -0.25974,2.76514 -0.650712,5.54349 -0.39221,8.30876 0.350318,3.74745 1.872663,7.27326 3.424148,10.70239 1.55148,3.42914 3.16994,6.89424 3.73401,10.61552 0.55468,3.65933 0.0423,7.474 -1.45824,10.85729 -1.50058,3.38328 -3.984255,6.32362 -7.069016,8.36876 -3.084761,2.04514 -6.760073,3.1881 -10.460629,3.25307 -3.700557,0.065 -7.413725,-0.94827 -10.568373,-2.88387 m -7.15816,0.646 7.15816,-0.646 m -10.15997,-61.8004 7.15816,-0.646 m 0,0 3.00181,62.4464 m -10.15997,-61.8004 3.00181,62.4464" />
      <path
         style="fill:#000000;stroke:#000000;stroke-width:10.1907;stroke-linecap:round;stroke-linejoin:round;stroke-miterlimit:4;stroke-dasharray:none;stroke-opacity:0.955017;paint-order:stroke markers fill"
         d="m 262.7487,724.05829 c -0.90521,-2.97626 -11.14146,-224.66661 -10.40257,-225.29224 0.32017,-0.2711 4.73738,-0.96091 9.81601,-1.53293 l 9.23389,-1.04003 -0.0454,4.43024 c -0.025,2.43663 2.28172,53.3716 5.12604,113.18882 2.84431,59.81721 4.68728,109.24278 4.09548,109.83459 -0.5918,0.5918 -4.69299,1.42354 -9.11377,1.84832 -5.93937,0.5707 -8.21317,0.19561 -8.70964,-1.43677 z"
         id="path2851"
         transform="scale(0.26458333)" />
      <path
         style="fill:#000000;stroke:#000000;stroke-width:10.1907;stroke-linecap:round;stroke-linejoin:round;stroke-miterlimit:4;stroke-dasharray:none;stroke-opacity:0.955017;paint-order:stroke markers fill"
         d="m 362.43267,659.97424 c -2.27932,-1.79291 -6.66432,-7.39347 -9.74444,-12.44567 -14.1616,-23.22876 -34.95209,-32.9269 -57.68362,-26.90767 -5.12173,1.35622 -9.63831,2.46585 -10.03683,2.46585 -0.39853,0 -0.7246,-5.00049 -0.7246,-11.1122 v -11.11219 l 8.24908,-2.73991 c 20.25591,-6.72793 38.73969,1.66169 52.14468,23.668 5.71714,9.38554 13.71597,17.35524 17.41867,17.35524 3.7157,0 5.67192,4.13486 6.7256,14.21591 1.13429,10.85234 0.23379,11.7903 -6.34854,6.61264 z"
         id="path2890"
         transform="scale(0.26458333)" />
      <path
         style="fill:#000000;stroke:#000000;stroke-width:10.1907;stroke-linecap:round;stroke-linejoin:round;stroke-miterlimit:4;stroke-dasharray:none;stroke-opacity:0.955017;paint-order:stroke markers fill"
         d="m 312.09554,733.82693 c -7.65012,-1.51352 -23.03468,-7.82408 -23.03468,-9.44853 0,-0.59953 4.36325,-0.36844 9.6961,0.51353 20.90982,3.45812 44.71415,-5.00327 59.49469,-21.14774 9.98205,-10.90318 15.05615,-21.30981 17.59879,-36.09389 2.51914,-14.64742 0.24512,-26.84345 -9.89911,-53.09091 -11.02482,-28.52596 -11.95489,-34.07861 -9.69148,-57.85984 1.84662,-19.40225 1.09108,-30.57043 -2.70547,-39.99094 -3.03271,-7.52519 -14.4722,-18.5234 -22.46551,-21.59889 -10.35482,-3.98411 -25.12737,-3.64697 -34.07012,0.77755 -3.83883,1.8993 -7.21456,3.2184 -7.50163,2.93132 -0.28707,-0.28707 2.68919,-3.48187 6.61392,-7.09956 21.974,-20.25492 56.69245,-11.96055 69.25934,16.54632 2.3197,5.26202 2.72912,9.90824 2.26418,25.6943 -0.31216,10.5989 -0.51259,26.13592 -0.44538,34.52671 0.13231,16.52027 0.92307,19.20594 17.3447,58.90833 12.45488,30.11201 12.85134,46.37002 1.68297,69.01403 -13.56156,27.49626 -44.74489,43.2341 -74.14131,37.41821 z"
         id="path2929"
         transform="scale(0.26458333)" />
      <path
         style="fill:#000000;stroke:#000000;stroke-width:10.1907;stroke-linecap:round;stroke-linejoin:round;stroke-miterlimit:4;stroke-dasharray:none;stroke-opacity:0.955017;paint-order:stroke markers fill"
         d="m 223.72399,856.42743 c -2.91096,-0.56595 -3.6706,-2.10449 -4.45117,-9.01519 -1.17988,-10.44602 -10.50329,-122.9524 -10.50522,-126.76745 -0.002,-3.48369 2.59747,-3.51667 15.81928,-0.20077 25.29164,6.3429 48.37971,19.48252 67.05859,38.16362 10.51821,10.51947 26.48383,32.44346 28.69148,39.39916 1.24375,3.91869 8.46929,3.91869 9.71304,0 2.20765,-6.9557 18.17327,-28.87969 28.69148,-39.39916 18.67888,-18.6811 41.76695,-31.82072 67.05859,-38.16362 13.22266,-3.31612 15.8216,-3.28313 15.81693,0.20077 -0.006,5.38756 -11.05069,134.03873 -11.54365,134.47835 -0.27322,0.24365 -2.8454,0.94617 -5.71593,1.56114 -4.01763,0.86073 -5.21916,0.57781 -5.21916,-1.22893 0,-1.29088 2.55088,-26.365 5.66863,-55.72026 6.83496,-64.35459 7.65518,-61.31461 -13.65265,-50.60012 -25.79032,12.96849 -55.35403,36.7556 -71.87861,57.83388 -7.74937,9.88487 -10.05234,11.83363 -14.08215,11.91623 -3.81835,0.0783 -5.65046,-1.1361 -8.83241,-5.85437 -7.05349,-10.45904 -34.04963,-36.24402 -48.98,-46.78255 -7.94904,-5.61079 -20.6158,-13.30609 -28.14835,-17.10067 -21.30731,-10.73371 -20.4879,-13.76986 -13.65266,50.5876 3.11775,29.35526 5.66864,54.37196 5.66864,55.59267 0,2.22438 -0.9932,2.36953 -7.5247,1.09967 z"
         id="path2968"
         transform="scale(0.26458333)" />
    </g>
    <g
       id="g3430"
       transform="translate(17.420601,-7.6480687)">
      <path
         id="path2747"
         style="fill:none;stroke:#000000;stroke-width:1.679;stroke-linecap:butt;stroke-linejoin:miter;stroke-miterlimit:4;stroke-dasharray:none;stroke-opacity:1"
         inkscape:path-effect="#path-effect2751"
         inkscape:original-d="m 153.45101,110.55465 c 1.23166,1.3e-4 2.46317,1.3e-4 3.69454,0 m 30.24899,-29.069883 c -4.84922,1.43568 -9.69829,2.87123 -14.54722,4.30665 -4.84894,1.43542 -11.69951,12.34586 -17.54904,18.518593 m 28.86354,15.9346 c 1.07743,-12.91981 2.155,-25.839763 3.23272,-38.759843 m -8.54361,39.621173 c 1.84713,-0.28698 3.54046,-0.57409 5.31089,-0.86133 m -2.07817,-29.931213 c -7.77406,5.95767 -15.54797,12.058753 -23.32174,18.087933 -7.77377,6.02917 -1.07772,1.43568 -1.61636,2.15332 m 24.9381,-20.241253 c -1.07772,10.192543 -2.15529,20.528503 -3.23272,30.792543 M 123.20202,81.484767 c 4.84922,1.43568 9.6983,2.87123 14.54723,4.30665 4.84893,1.43542 11.6995,12.34586 17.54903,18.518593 m -28.86354,15.9346 c -1.07743,-12.91981 -2.155,-25.839763 -3.23272,-38.759843 m 8.54361,39.621173 c -1.84712,-0.28698 -3.54045,-0.57409 -5.31089,-0.86133 m 2.07817,-29.931213 c 7.77406,5.95767 15.54798,12.058753 23.32175,18.087933 7.77377,6.02917 1.07771,1.43568 1.61635,2.15332 m -24.9381,-20.241253 c 1.07772,10.192543 2.15529,20.528503 3.23272,30.792543 m 12.69996,-61.800403 c 5.31103,1.14857 10.62193,2.29701 15.93267,3.44531 5.31075,1.14831 4.1565,4.45034 6.23453,6.67531 2.07803,2.22497 0.92377,1.3e-4 1.38544,0 M 143.98377,51.122903 c 5.31104,1.148574 10.62193,2.297011 15.93268,3.445317 5.31074,1.148305 4.15649,4.450337 6.23452,6.675307 2.07803,2.22497 0.92378,1.3e-4 1.38545,0 M 142.56743,32.472841 c 6.52966,-0.51608 13.0592,-1.032278 19.58863,-1.548598 6.52944,-0.516319 1.1e-4,9.936951 0,14.905243 -1.1e-4,4.968294 3.78359,12.776045 5.67522,19.163881 1.89162,6.38785 -15.62198,11.74366 -23.43314,17.6153 m -1.79982,-52.803673 c 8.23588,-0.574087 16.47161,-1.148306 24.70719,-1.722659 8.23559,-0.574355 1.4e-4,11.053864 0,16.580596 -1.4e-4,5.526729 4.77225,14.212076 7.15816,21.317906 2.38591,7.10584 -19.70403,13.06363 -29.55626,19.59525 m -7.15816,0.646 c 2.38619,-0.2152 4.77225,-0.43053 7.15816,-0.646 m -10.15997,-61.8004 c 2.3862,-0.215198 4.77225,-0.430531 7.15816,-0.645997 m 0,0 c 1.00074,20.815599 2.00135,41.631067 3.00181,62.446397 m -10.15997,-61.8004 c 1.00075,20.815599 2.00135,41.63106 3.00181,62.4464"
         d="m 153.45101,110.55465 h 3.69454 m 30.24899,-29.069883 c -5.06667,0.476254 -10.03784,1.947952 -14.54722,4.30665 -7.6745,4.014263 -13.95288,10.639514 -17.54904,18.518593 m 28.86354,15.9346 3.23272,-38.759843 m -8.54361,39.621173 5.31089,-0.86133 m -2.07817,-29.931213 c -9.0953,4.002897 -17.18175,10.274603 -23.32174,18.087933 -0.55459,0.70573 -1.09355,1.42374 -1.61636,2.15332 m 24.9381,-20.241253 -3.23272,30.792543 M 123.20202,81.484767 c 5.06667,0.476252 10.03785,1.94795 14.54723,4.30665 7.6745,4.014263 13.95288,10.639514 17.54903,18.518593 m -28.86354,15.9346 -3.23272,-38.759843 m 8.54361,39.621173 -5.31089,-0.86133 m 2.07817,-29.931213 c 9.09531,4.00287 17.18177,10.274583 23.32175,18.087933 0.55458,0.70573 1.09354,1.42374 1.61635,2.15332 m -24.9381,-20.241253 3.23272,30.792543 m 12.69996,-61.800403 c 2.58287,-1.478721 5.71851,-1.963854 8.62749,-1.334812 2.90898,0.629043 5.56402,2.366365 7.30518,4.780122 0.91926,1.274367 1.58535,2.716874 2.50477,3.991131 0.4597,0.637128 0.98502,1.233122 1.60789,1.711965 0.62288,0.478843 1.34773,0.838133 2.12187,0.972214 0.45728,0.0792 0.92816,0.0792 1.38544,0 M 143.98377,51.122903 c 2.58288,-1.478722 5.71851,-1.963855 8.62749,-1.334811 2.90898,0.629044 5.56403,2.366368 7.30519,4.780128 0.91926,1.274366 1.58535,2.716872 2.50476,3.991128 0.45971,0.637128 0.98502,1.233121 1.6079,1.711964 0.62287,0.478843 1.34773,0.838133 2.12186,0.972215 0.45728,0.0792 0.92817,0.0792 1.38545,0 M 142.56743,32.472841 c 0.39571,-2.18797 1.53311,-4.234948 3.18197,-5.726606 1.64887,-1.491658 3.7992,-2.418949 6.01575,-2.59418 2.21655,-0.175232 4.48587,0.402659 6.34864,1.616702 1.86277,1.214042 3.30768,3.056873 4.04227,5.155486 0.82658,2.361399 0.75455,4.937799 0.50415,7.427122 -0.25041,2.489323 -0.66978,4.981724 -0.50415,7.478121 0.22145,3.337621 1.47515,6.509549 2.74359,9.604677 1.26844,3.095128 2.58119,6.232652 2.93163,9.559204 0.30763,2.9202 -0.15412,5.918018 -1.32624,8.610293 -1.17212,2.692274 -3.05188,5.072743 -5.39903,6.83715 -2.34714,1.764407 -5.1562,2.908649 -8.06815,3.286477 -2.91195,0.377827 -5.92001,-0.01164 -8.63972,-1.11862 m -1.79982,-52.803673 c 0.40937,-2.838021 1.8161,-5.522139 3.91692,-7.473675 2.10083,-1.951536 4.88118,-3.156965 7.74162,-3.356404 2.86045,-0.199439 5.78118,0.608494 8.13249,2.249614 2.35131,1.64112 4.11692,4.104053 4.91616,6.857806 0.77414,2.667252 0.65195,5.506678 0.39221,8.271828 -0.25974,2.76515 -0.65071,5.543502 -0.39221,8.308768 0.35032,3.747447 1.87266,7.273255 3.42415,10.702392 1.55148,3.429137 3.16994,6.894237 3.73401,10.615514 0.55468,3.659327 0.0423,7.474004 -1.45824,10.85729 -1.50058,3.383285 -3.98425,6.323627 -7.06902,8.368767 -3.08476,2.045139 -6.76007,3.188092 -10.46063,3.253061 -3.70055,0.06497 -7.41372,-0.94827 -10.56837,-2.883868 m -7.15816,0.646 7.15816,-0.646 m -10.15997,-61.8004 7.15816,-0.645997 m 0,0 3.00181,62.446397 m -10.15997,-61.8004 3.00181,62.4464" />
      <path
         style="fill:#ffffff;stroke:#000000;stroke-width:2.69629;stroke-linecap:round;stroke-linejoin:round;stroke-miterlimit:4;stroke-dasharray:none;stroke-opacity:0.955017;paint-order:stroke markers fill"
         d="m 128.45115,119.52346 c -0.77019,-0.14974 -0.97118,-0.55681 -1.17771,-2.38527 -0.31218,-2.76384 -2.77899,-32.531155 -2.7795,-33.540551 -5.3e-4,-0.921726 0.68724,-0.930455 4.18551,-0.05312 6.69175,1.678225 12.80047,5.15475 17.74259,10.097457 2.78294,2.783277 7.00718,8.583994 7.59129,10.424364 0.32907,1.03682 2.24083,1.03682 2.5699,0 0.58411,-1.84037 4.80835,-7.641087 7.59129,-10.424364 4.94212,-4.942707 11.05084,-8.419232 17.74259,-10.097457 3.49849,-0.87739 4.18613,-0.868662 4.18489,0.05312 -0.002,1.425456 -2.92382,35.464411 -3.05425,35.580731 -0.0723,0.0645 -0.75285,0.25034 -1.51234,0.41305 -1.063,0.22774 -1.3809,0.15288 -1.3809,-0.32515 0,-0.34155 0.67492,-6.97574 1.49982,-14.74266 1.80841,-17.027148 2.02543,-16.222822 -3.61227,-13.387944 -6.82368,3.431246 -14.64575,9.724914 -19.01788,15.301884 -2.05035,2.61537 -2.65968,3.13098 -3.7259,3.15283 -1.01027,0.0207 -1.49502,-0.30059 -2.33691,-1.54897 -1.86623,-2.76729 -9.00896,-9.58956 -12.95929,-12.37788 -2.10318,-1.484521 -5.4546,-3.520569 -7.44758,-4.524552 -5.63756,-2.83996 -5.42076,-3.643275 -3.61227,13.384632 0.82491,7.76692 1.49983,14.38592 1.49983,14.7089 0,0.58853 -0.26279,0.62693 -1.99091,0.29095 z"
         id="path3149" />
      <path
         style="fill:#ffffff;stroke:#000000;stroke-width:2.69629;stroke-linecap:round;stroke-linejoin:round;stroke-miterlimit:4;stroke-dasharray:none;stroke-opacity:0.955017;paint-order:stroke markers fill"
         d="m 138.77644,84.500794 c -0.23951,-0.787469 -2.94785,-59.44304 -2.75235,-59.608572 0.0847,-0.07173 1.25343,-0.25424 2.59715,-0.405587 l 2.44314,-0.275174 -0.012,1.172166 c -0.007,0.644692 0.60371,14.121236 1.35627,29.947876 0.75256,15.826637 1.24018,28.903819 1.0836,29.060399 -0.15658,0.156583 -1.24169,0.376648 -2.41135,0.489035 -1.57146,0.151 -2.17307,0.05176 -2.30443,-0.380143 z"
         id="path3188" />
      <path
         style="fill:#ffffff;stroke:#000000;stroke-width:2.69629;stroke-linecap:round;stroke-linejoin:round;stroke-miterlimit:4;stroke-dasharray:none;stroke-opacity:0.955017;paint-order:stroke markers fill"
         d="m 165.15115,67.545223 c -0.60307,-0.474377 -1.76327,-1.956189 -2.57822,-3.29292 -3.74692,-6.14594 -9.24773,-8.711906 -15.26212,-7.119318 -1.35512,0.358833 -2.55013,0.652423 -2.65558,0.652423 -0.10544,0 -0.19171,-1.323046 -0.19171,-2.940103 v -2.9401 l 2.18256,-0.724935 c 5.35938,-1.780098 10.24988,0.439656 13.79662,6.262156 1.51266,2.48326 3.62901,4.591907 4.60869,4.591907 0.98311,0 1.50069,1.094018 1.77948,3.761296 0.30012,2.871348 0.0619,3.119516 -1.67972,1.749594 z"
         id="path3227" />
      <path
         style="fill:#ffffff;stroke:#000000;stroke-width:2.69629;stroke-linecap:round;stroke-linejoin:round;stroke-miterlimit:4;stroke-dasharray:none;stroke-opacity:0.955017;paint-order:stroke markers fill"
         d="m 151.83279,87.085413 c -2.0241,-0.400454 -6.09459,-2.070121 -6.09459,-2.499923 0,-0.158626 1.15444,-0.09749 2.56542,0.135871 5.53239,0.914959 11.83062,-1.323784 15.74131,-5.595339 2.64108,-2.884802 3.9836,-5.638221 4.65634,-9.549842 0.66652,-3.875463 0.0649,-7.102329 -2.61914,-14.046969 -2.91698,-7.547494 -3.16306,-9.016633 -2.5642,-15.30875 0.48858,-5.133511 0.28868,-8.088426 -0.71582,-10.580935 -0.80241,-1.991041 -3.82911,-4.900983 -5.944,-5.714708 -2.73972,-1.054129 -6.64829,-0.964928 -9.01439,0.205727 -1.01569,0.502523 -1.90885,0.851534 -1.98481,0.77558 -0.076,-0.07595 0.71152,-0.921245 1.74994,-1.878426 5.81395,-5.359115 14.99987,-3.164564 18.32486,4.37788 0.61376,1.392243 0.72208,2.621556 0.59907,6.798283 -0.0826,2.804292 -0.13562,6.915129 -0.11784,9.135193 0.035,4.370988 0.24423,5.081571 4.58911,15.586162 3.29536,7.967136 3.40026,12.268734 0.44529,18.259962 -3.58816,7.275052 -11.83875,11.439022 -19.61655,9.900234 z"
         id="path3266" />
      <path
         style="fill:#ffffff;stroke:#000000;stroke-width:2.69629;stroke-linecap:round;stroke-linejoin:round;stroke-miterlimit:4;stroke-dasharray:none;stroke-opacity:0.955017;paint-order:stroke markers fill"
         d="m 127.89613,118.43884 c -0.44771,-1.06143 -2.96341,-29.282231 -2.97329,-33.354076 -0.004,-1.633961 0.0946,-1.805794 1.03591,-1.805794 1.44289,0 7.65482,2.001911 10.21936,3.293387 6.67102,3.359449 12.95184,9.41347 16.9707,16.357903 0.86122,1.48816 1.42577,2.01824 2.14947,2.01824 0.7237,0 1.28825,-0.53008 2.14947,-2.01824 3.41046,-5.89314 8.97448,-11.66094 14.41421,-14.942144 2.95635,-1.783249 9.29923,-4.205541 11.97152,-4.571817 l 1.98118,-0.271553 -0.26448,4.341175 c -0.57072,9.367954 -2.4781,30.048499 -2.8548,30.952919 -0.22692,0.5448 -0.76763,0.95601 -1.25709,0.95601 -1.11481,0 -1.12483,0.33881 0.44408,-15.01133 0.71664,-7.011541 1.18895,-13.202592 1.04957,-13.7579 -0.13937,-0.555307 -0.52178,-1.112636 -0.84981,-1.238509 -0.87518,-0.335838 -7.91274,3.432646 -11.87632,6.359557 -4.4668,3.298507 -7.10087,5.713352 -10.88128,9.975672 -1.70648,1.92401 -3.42389,3.47508 -3.84776,3.47508 -0.42107,0 -3.50151,-2.73696 -6.84542,-6.08213 -6.28768,-6.29004 -10.3276,-9.335021 -16.42871,-12.382683 -3.35109,-1.673955 -4.14007,-1.692555 -4.53802,-0.106987 -0.13937,0.555308 0.33293,6.746359 1.04957,13.7579 1.56891,15.35014 1.55889,15.01133 0.44408,15.01133 -0.48796,0 -1.03304,-0.41287 -1.26214,-0.95601 z"
         id="path3305" />
    </g>
    <path
       id="path3432"
       style="fill:none;stroke:#000000;stroke-width:1.679;stroke-linecap:butt;stroke-linejoin:miter;stroke-miterlimit:4;stroke-dasharray:none;stroke-opacity:1"
       inkscape:path-effect="#path-effect3436"
       inkscape:original-d="m 168.74715,277.96237 c 1.23166,1.3e-4 2.46317,1.3e-4 3.69454,0 m 30.24899,-29.06988 c -4.84922,1.43568 -9.69829,2.87123 -14.54722,4.30665 -4.84894,1.43542 -11.69951,12.34586 -17.54904,18.51859 m 28.86354,15.9346 c 1.07743,-12.91981 2.155,-25.83976 3.23272,-38.75984 m -8.54361,39.62117 c 1.84713,-0.28698 3.54046,-0.57409 5.31089,-0.86133 m -2.07817,-29.93121 c -7.77406,5.95767 -15.54797,12.05875 -23.32174,18.08793 -7.77377,6.02917 -1.07772,1.43568 -1.61636,2.15332 m 24.9381,-20.24125 c -1.07772,10.19254 -2.15529,20.5285 -3.23272,30.79254 m -55.64891,-39.62117 c 4.84922,1.43568 9.6983,2.87123 14.54723,4.30665 4.84893,1.43542 11.6995,12.34586 17.54903,18.51859 m -28.86354,15.9346 c -1.07743,-12.91981 -2.155,-25.83976 -3.23272,-38.75984 m 8.54361,39.62117 c -1.84712,-0.28698 -3.54045,-0.57409 -5.31089,-0.86133 m 2.07817,-29.93121 c 7.77406,5.95767 15.54798,12.05875 23.32175,18.08793 7.77377,6.02917 1.07771,1.43568 1.61635,2.15332 m -24.9381,-20.24125 c 1.07772,10.19254 2.15529,20.5285 3.23272,30.79254 m 12.69996,-61.8004 c 5.31103,1.14857 10.62193,2.29701 15.93267,3.44531 5.31075,1.14831 4.1565,4.45034 6.23453,6.67531 2.07803,2.22497 0.92377,1.3e-4 1.38544,0 m -24.01446,-18.30325 c 5.31104,1.14857 10.62193,2.29701 15.93268,3.44532 5.31074,1.1483 4.15649,4.45033 6.23452,6.6753 2.07803,2.22497 0.92378,1.3e-4 1.38545,0 m -24.96899,-28.77068 c 6.52966,-0.51608 13.0592,-1.03228 19.58863,-1.5486 6.52944,-0.51632 1.1e-4,9.93695 0,14.90524 -1.1e-4,4.9683 3.78359,12.77605 5.67522,19.16388 1.89162,6.38785 -15.62198,11.74366 -23.43314,17.6153 m -1.79982,-52.80367 c 8.23588,-0.57409 16.47161,-1.14831 24.70719,-1.72266 8.23559,-0.57435 1.4e-4,11.05386 0,16.5806 -1.4e-4,5.52673 4.77225,14.21207 7.15816,21.3179 2.38591,7.10584 -19.70403,13.06363 -29.55626,19.59525 m -7.15816,0.646 c 2.38619,-0.2152 4.77225,-0.43053 7.15816,-0.646 m -10.15997,-61.8004 c 2.3862,-0.2152 4.77225,-0.43053 7.15816,-0.646 m 0,0 c 1.00074,20.8156 2.00135,41.63107 3.00181,62.4464 m -10.15997,-61.8004 c 1.00075,20.8156 2.00135,41.63106 3.00181,62.4464"
       d="m 168.74715,277.96237 h 3.69454 m 30.24899,-29.06988 c -5.06667,0.47625 -10.03784,1.94795 -14.54722,4.30665 -7.6745,4.01426 -13.95288,10.63951 -17.54904,18.51859 m 28.86354,15.9346 3.23272,-38.75984 m -8.54361,39.62117 5.31089,-0.86133 m -2.07817,-29.93121 c -9.0953,4.0029 -17.18175,10.2746 -23.32174,18.08793 -0.55459,0.70573 -1.09355,1.42374 -1.61636,2.15332 m 24.9381,-20.24125 -3.23272,30.79254 m -55.64891,-39.62117 c 5.06667,0.47625 10.03785,1.94795 14.54723,4.30665 7.6745,4.01426 13.95287,10.63951 17.54903,18.51859 m -28.86354,15.9346 -3.23272,-38.75984 m 8.54361,39.62117 -5.31089,-0.86133 m 2.07817,-29.93121 c 9.09531,4.00287 17.18178,10.27458 23.32175,18.08793 0.55458,0.70573 1.09354,1.42374 1.61635,2.15332 m -24.9381,-20.24125 3.23272,30.79254 m 12.69996,-61.8004 c 2.58287,-1.47872 5.71851,-1.96385 8.62749,-1.33481 2.90898,0.62904 5.56402,2.36636 7.30518,4.78012 0.91926,1.27437 1.58535,2.71687 2.50477,3.99113 0.4597,0.63713 0.98502,1.23312 1.60789,1.71197 0.62288,0.47884 1.34773,0.83813 2.12187,0.97221 0.45728,0.0792 0.92816,0.0792 1.38544,0 m -24.01446,-18.30325 c 2.58288,-1.47872 5.71851,-1.96385 8.62749,-1.33481 2.90898,0.62905 5.56403,2.36637 7.30519,4.78013 0.91926,1.27436 1.58535,2.71687 2.50476,3.99112 0.45971,0.63713 0.98502,1.23312 1.6079,1.71197 0.62287,0.47884 1.34773,0.83813 2.12186,0.97221 0.45728,0.0792 0.92817,0.0792 1.38545,0 m -24.96899,-28.77068 c 0.39571,-2.18797 1.53311,-4.23495 3.18197,-5.72661 1.64887,-1.49166 3.7992,-2.41895 6.01575,-2.59418 2.21655,-0.17523 4.48587,0.40266 6.34864,1.6167 1.86277,1.21405 3.30768,3.05688 4.04227,5.15549 0.82658,2.3614 0.75455,4.9378 0.50415,7.42712 -0.25041,2.48932 -0.66978,4.98172 -0.50415,7.47812 0.22145,3.33762 1.47515,6.50955 2.74359,9.60468 1.26844,3.09512 2.58119,6.23265 2.93163,9.5592 0.30763,2.9202 -0.15412,5.91802 -1.32624,8.61029 -1.17212,2.69228 -3.05188,5.07275 -5.39902,6.83715 -2.34715,1.76441 -5.15621,2.90865 -8.06816,3.28648 -2.91195,0.37783 -5.92001,-0.0116 -8.63972,-1.11862 m -1.79982,-52.80367 c 0.40937,-2.83802 1.8161,-5.52214 3.91692,-7.47368 2.10083,-1.95153 4.88117,-3.15696 7.74162,-3.3564 2.86045,-0.19944 5.78118,0.60849 8.13249,2.24961 2.35131,1.64112 4.11692,4.10406 4.91616,6.85781 0.77414,2.66725 0.65195,5.50668 0.39221,8.27183 -0.25974,2.76515 -0.65071,5.5435 -0.39221,8.30877 0.35032,3.74745 1.87266,7.27325 3.42415,10.70239 1.55148,3.42914 3.16994,6.89423 3.73401,10.61551 0.55468,3.65933 0.0423,7.474 -1.45824,10.85729 -1.50058,3.38329 -3.98425,6.32363 -7.06901,8.36877 -3.08477,2.04514 -6.76008,3.18809 -10.46064,3.25306 -3.70055,0.065 -7.41372,-0.94827 -10.56837,-2.88387 m -7.15816,0.646 7.15816,-0.646 m -10.15997,-61.8004 7.15816,-0.646 m 0,0 3.00181,62.4464 m -10.15997,-61.8004 3.00181,62.4464" />
    <path
       style="fill:#99ff55;stroke:#000000;stroke-width:10.1907;stroke-linecap:round;stroke-linejoin:round;stroke-miterlimit:4;stroke-dasharray:none;stroke-opacity:0.955017;paint-order:stroke markers fill"
       d=""
       id="path3571"
       transform="scale(0.26458333)" />
    <g
       id="g3809">
      <path
         style="fill:#99ff55;stroke:#000000;stroke-width:10.1907;stroke-linecap:round;stroke-linejoin:round;stroke-miterlimit:4;stroke-dasharray:none;stroke-opacity:0.955017;paint-order:stroke markers fill"
         d="m 582.32155,952.0952 c -0.90521,-2.97627 -11.14147,-224.66662 -10.40258,-225.29225 0.32017,-0.27109 4.73738,-0.96091 9.81602,-1.53292 l 9.23389,-1.04004 -0.0454,4.43024 c -0.025,2.43663 2.28172,53.3716 5.12604,113.18882 2.84432,59.81722 4.68729,109.24279 4.09549,109.83459 -0.5918,0.5918 -4.693,1.42354 -9.11377,1.84832 -5.93938,0.5707 -8.21318,0.19561 -8.70965,-1.43676 z"
         id="path3493"
         transform="scale(0.26458333)" />
      <path
         style="fill:#99ff55;stroke:#000000;stroke-width:10.1907;stroke-linecap:round;stroke-linejoin:round;stroke-miterlimit:4;stroke-dasharray:none;stroke-opacity:0.955017;paint-order:stroke markers fill"
         d="m 631.66838,961.86383 c -7.66533,-1.51654 -23.03467,-7.82532 -23.03467,-9.45526 0,-0.6032 4.72137,-0.39116 10.49193,0.47123 44.43869,6.64126 84.04342,-34.25835 76.28963,-78.78392 -1.02977,-5.91333 -5.48076,-20.08816 -9.89109,-31.49959 -11.04091,-28.56756 -11.9617,-34.08404 -9.65781,-57.85983 1.8741,-19.34035 1.15238,-29.51373 -2.83706,-39.99094 -2.81979,-7.40543 -14.30639,-18.49728 -22.36759,-21.5989 -9.67009,-3.72065 -24.6941,-3.54787 -33.1956,0.38175 -3.53296,1.63304 -7.14623,3.27826 -8.02947,3.65606 -0.88324,0.37779 1.25526,-2.29869 4.75221,-5.94775 20.24003,-21.12038 55.50636,-14.8896 69.78578,12.32961 3.96594,7.55982 4.97855,21.56587 3.10161,42.90062 -2.28567,25.98072 -0.92205,34.79149 9.15507,59.1537 16.12626,38.98646 17.19144,42.53425 17.19067,57.25628 -0.002,34.37488 -23.54603,62.68307 -57.30788,68.90364 -10.70417,1.97224 -14.8271,1.98629 -24.44573,0.0833 z"
         id="path3532"
         transform="scale(0.26458333)" />
      <path
         style="fill:#99ff55;stroke:#000000;stroke-width:10.1907;stroke-linecap:round;stroke-linejoin:round;stroke-miterlimit:4;stroke-dasharray:none;stroke-opacity:0.955017;paint-order:stroke markers fill"
         d="m 682.00551,888.01115 c -2.27932,-1.79292 -6.66432,-7.39348 -9.74444,-12.44568 -14.1616,-23.22876 -34.95208,-32.92689 -57.68361,-26.90767 -5.12174,1.35622 -9.63831,2.46585 -10.03684,2.46585 -0.39853,0 -0.72459,-5.00049 -0.72459,-11.11219 v -11.1122 l 8.24907,-2.7399 c 20.25591,-6.72793 38.73969,1.66168 52.14469,23.66799 5.71714,9.38554 13.71596,17.35524 17.41866,17.35524 3.7157,0 5.67192,4.13486 6.7256,14.21592 1.13429,10.85233 0.23379,11.7903 -6.34854,6.61264 z"
         id="path3610"
         transform="scale(0.26458333)" />
      <path
         style="fill:#dd55ff;stroke:#000000;stroke-width:10.1907;stroke-linecap:round;stroke-linejoin:round;stroke-miterlimit:4;stroke-dasharray:none;stroke-opacity:0.955017;paint-order:stroke markers fill"
         d="m 543.29683,1084.4643 c -2.91096,-0.5659 -3.6706,-2.1045 -4.45117,-9.0152 -1.17988,-10.446 -10.50329,-122.95236 -10.50522,-126.76741 -0.002,-3.48368 2.59747,-3.51667 15.81928,-0.20077 25.29164,6.3429 48.37971,19.48252 67.05859,38.16363 10.51822,10.51946 26.48384,32.44345 28.69149,39.39915 1.24374,3.9187 8.46929,3.9187 9.71303,0 2.20765,-6.9557 18.17327,-28.87969 28.69149,-39.39915 18.67887,-18.68111 41.76695,-31.82073 67.05858,-38.16363 13.22266,-3.31611 15.82161,-3.28312 15.81693,0.20077 -0.006,5.38756 -11.05068,134.03871 -11.54364,134.47831 -0.27323,0.2437 -2.84541,0.9462 -5.71594,1.5612 -4.01763,0.8607 -5.21916,0.5778 -5.21916,-1.2289 0,-1.2909 2.55089,-26.365 5.66863,-55.7203 6.83496,-64.3546 7.65519,-61.31462 -13.65265,-50.60012 -25.79031,12.96849 -55.35402,36.75562 -71.87861,57.83392 -7.74937,9.8848 -10.05234,11.8336 -14.08215,11.9162 -3.81835,0.078 -5.65045,-1.1361 -8.83241,-5.8544 -7.05348,-10.459 -34.04962,-36.244 -48.98,-46.78254 -7.94904,-5.61079 -20.6158,-13.30609 -28.14835,-17.10066 -21.3073,-10.73372 -20.4879,-13.76987 -13.65265,50.5876 3.11775,29.3553 5.66863,54.372 5.66863,55.5927 0,2.2243 -0.9932,2.3695 -7.5247,1.0996 z"
         id="path3686"
         transform="scale(0.26458333)" />
    </g>
  </g>
</svg>
