<?xml version="1.0" encoding="UTF-8" standalone="no"?>
<!-- Created with Inkscape (http://www.inkscape.org/) -->

<svg
   width="210mm"
   height="297mm"
   viewBox="0 0 210 297"
   version="1.1"
   id="svg5"
   inkscape:version="1.1.2 (0a00cf5339, 2022-02-04, custom)"
   sodipodi:docname="instrument combiner svg.svg"
   inkscape:export-filename="C:\Users\steven\Desktop\instrument combiner svg.png"
   inkscape:export-xdpi="96"
   inkscape:export-ydpi="96"
   xmlns:inkscape="http://www.inkscape.org/namespaces/inkscape"
   xmlns:sodipodi="http://sodipodi.sourceforge.net/DTD/sodipodi-0.dtd"
   xmlns="http://www.w3.org/2000/svg"
   xmlns:svg="http://www.w3.org/2000/svg">
  <sodipodi:namedview
     id="namedview7"
     pagecolor="#ffffff"
     bordercolor="#666666"
     borderopacity="1.0"
     inkscape:pageshadow="2"
     inkscape:pageopacity="0.0"
     inkscape:pagecheckerboard="0"
     inkscape:document-units="mm"
     showgrid="false"
     inkscape:zoom="0.9983453"
     inkscape:cx="362.09917"
     inkscape:cy="407.17375"
     inkscape:window-width="1680"
     inkscape:window-height="956"
     inkscape:window-x="-11"
     inkscape:window-y="-11"
     inkscape:window-maximized="1"
     inkscape:current-layer="layer2"
     inkscape:lockguides="true" />
  <defs
     id="defs2">
    <inkscape:path-effect
       effect="skeletal"
       id="path-effect8275"
       is_visible="true"
       lpeversion="1"
       pattern="m -43.33607,-14.162937 c -1.64377,-1.422839 -2.57962,-3.037659 -2.08896,-3.604509 0.49067,-0.56685 2.22296,0.12787 3.86673,1.55071 1.64376,1.422849 2.57961,3.037669 2.08895,3.604519 -0.49066,0.56684 -2.22295,-0.12788 -3.86672,-1.55072 z"
       copytype="single_stretched"
       prop_scale="1"
       scale_y_rel="false"
       spacing="0"
       normal_offset="0"
       tang_offset="0"
       prop_units="false"
       vertical_pattern="false"
       hide_knot="false"
       fuse_tolerance="0" />
    <inkscape:path-effect
       effect="spiro"
       id="path-effect8271"
       is_visible="true"
       lpeversion="1" />
    <inkscape:path-effect
       effect="skeletal"
       id="path-effect8261"
       is_visible="true"
       lpeversion="1"
       pattern="m -138.8593,-25.119331 c -1.64377,-1.42284 -2.57962,-3.03766 -2.08896,-3.60451 0.49067,-0.56685 2.22296,0.12787 3.86673,1.55071 1.64376,1.42285 2.57961,3.03767 2.08895,3.60452 -0.49066,0.56684 -2.22295,-0.12788 -3.86672,-1.55072 z"
       copytype="single_stretched"
       prop_scale="1"
       scale_y_rel="false"
       spacing="0"
       normal_offset="0"
       tang_offset="0"
       prop_units="false"
       vertical_pattern="false"
       hide_knot="false"
       fuse_tolerance="0" />
    <inkscape:path-effect
       effect="spiro"
       id="path-effect8257"
       is_visible="true"
       lpeversion="1" />
    <inkscape:path-effect
       effect="skeletal"
       id="path-effect8247"
       is_visible="true"
       lpeversion="1"
       pattern="m -40.697539,122.60168 c -1.64377,-1.42284 -2.57962,-3.03766 -2.08896,-3.60451 0.49067,-0.56685 2.22296,0.12787 3.86673,1.55071 1.64376,1.42285 2.57961,3.03767 2.08895,3.60452 -0.49066,0.56684 -2.22295,-0.12788 -3.86672,-1.55072 z"
       copytype="single_stretched"
       prop_scale="1"
       scale_y_rel="false"
       spacing="0"
       normal_offset="0"
       tang_offset="0"
       prop_units="false"
       vertical_pattern="false"
       hide_knot="false"
       fuse_tolerance="0" />
    <inkscape:path-effect
       effect="spiro"
       id="path-effect8243"
       is_visible="true"
       lpeversion="1" />
    <inkscape:path-effect
       effect="skeletal"
       id="path-effect8146"
       is_visible="true"
       lpeversion="1"
       pattern="m -135.53214,122.92425 c -1.64377,-1.42284 -2.57962,-3.03766 -2.08896,-3.60451 0.49067,-0.56685 2.22296,0.12787 3.86673,1.55071 1.64376,1.42285 2.57961,3.03767 2.08895,3.60452 -0.49066,0.56684 -2.22295,-0.12788 -3.86672,-1.55072 z"
       copytype="single_stretched"
       prop_scale="1"
       scale_y_rel="false"
       spacing="0"
       normal_offset="0"
       tang_offset="0"
       prop_units="false"
       vertical_pattern="false"
       hide_knot="false"
       fuse_tolerance="0" />
    <inkscape:path-effect
       effect="spiro"
       id="path-effect8144"
       is_visible="true"
       lpeversion="1" />
    <inkscape:path-effect
       effect="skeletal"
       id="path-effect8048"
       is_visible="true"
       lpeversion="1"
       pattern="M 0,4.9921382 C 0,2.2364779 2.2364779,0 4.9921382,0 c 2.7556604,0 4.9921383,2.2364779 4.9921383,4.9921382 0,2.7556604 -2.2364779,4.9921383 -4.9921383,4.9921383 C 2.2364779,9.9842765 0,7.7477986 0,4.9921382 Z"
       copytype="single_stretched"
       prop_scale="1"
       scale_y_rel="false"
       spacing="0"
       normal_offset="0"
       tang_offset="0"
       prop_units="false"
       vertical_pattern="false"
       hide_knot="false"
       fuse_tolerance="0" />
  </defs>
  <g
     inkscape:label="Layer 1"
     inkscape:groupmode="layer"
     id="layer1">
    <path
       id="path2546"
       style="fill:none;fill-rule:evenodd;stroke:#000000;stroke-width:1.538;stroke-linecap:round;stroke-linejoin:round;stroke-miterlimit:4;stroke-dasharray:none;paint-order:stroke markers fill"
       d="m 103.8135,38.781405 c 0.77077,0 1.39128,0.27916 1.39128,0.62592 v 3.52078 c 0,0.34676 -0.62051,0.62592 -1.39128,0.62592 -0.77077,0 -1.39128,-0.27916 -1.39128,-0.62592 v -3.52078 c 0,-0.34676 0.62051,-0.62592 1.39128,-0.62592 z m -5.412818,0 c 0.77077,0 1.39128,0.27916 1.39128,0.62592 v 3.52078 c 0,0.34676 -0.62051,0.62592 -1.39128,0.62592 -0.77077,0 -1.39128,-0.27916 -1.39128,-0.62592 v -3.52078 c 0,-0.34676 0.62051,-0.62592 1.39128,-0.62592 z m -4.92075,0 c 0.77077,0 1.39128,0.27916 1.39128,0.62592 v 3.52078 c 0,0.34676 -0.62051,0.62592 -1.39128,0.62592 -0.77077,0 -1.39128,-0.27916 -1.39128,-0.62592 v -3.52078 c 0,-0.34676 0.62051,-0.62592 1.39128,-0.62592 z m -4.920744,0 c 0.770764,0 1.391284,0.27916 1.391284,0.62592 v 3.52078 c 0,0.34676 -0.62052,0.62592 -1.391284,0.62592 -0.770761,0 -1.391281,-0.27916 -1.391281,-0.62592 v -3.52078 c 0,-0.34676 0.62052,-0.62592 1.391281,-0.62592 z m -5.412821,0 c 0.77077,0 1.39128,0.27916 1.39128,0.62592 v 3.52078 c 0,0.34676 -0.62051,0.62592 -1.39128,0.62592 -0.77077,0 -1.39128,-0.27916 -1.39128,-0.62592 v -3.52078 c 0,-0.34676 0.62051,-0.62592 1.39128,-0.62592 z m -4.92075,0 c 0.77077,0 1.39128,0.27916 1.39128,0.62592 v 3.52078 c 0,0.34676 -0.62051,0.62592 -1.39128,0.62592 -0.77077,0 -1.39128,-0.27916 -1.39128,-0.62592 v -3.52078 c 0,-0.34676 0.62051,-0.62592 1.39128,-0.62592 z m -5.65886,0 c 0.77077,0 1.39128,0.27916 1.39128,0.62592 v 3.52078 c 0,0.34676 -0.62051,0.62592 -1.39128,0.62592 -0.77076,0 -1.39127,-0.27916 -1.39127,-0.62592 v -3.52078 c 0,-0.34676 0.62051,-0.62592 1.39127,-0.62592 z m -5.41282,0 c 0.77077,0 1.39128,0.27916 1.39128,0.62592 v 3.52078 c 0,0.34676 -0.62051,0.62592 -1.39128,0.62592 -0.77077,0 -1.39128,-0.27916 -1.39128,-0.62592 v -3.52078 c 0,-0.34676 0.62051,-0.62592 1.39128,-0.62592 z m -4.92073,0 c 0.77076,0 1.39127,0.27916 1.39127,0.62592 v 3.52078 c 0,0.34676 -0.62051,0.62592 -1.39127,0.62592 -0.77076,0 -1.39127,-0.27916 -1.39127,-0.62592 v -3.52078 c 0,-0.34676 0.62051,-0.62592 1.39127,-0.62592 z m -4.92072,0 c 0.77077,0 1.39128,0.27916 1.39128,0.62592 v 3.52078 c 0,0.34676 -0.62051,0.62592 -1.39128,0.62592 -0.77076,0 -1.39127,-0.27916 -1.39127,-0.62592 v -3.52078 c 0,-0.34676 0.62051,-0.62592 1.39127,-0.62592 z m -5.41279,0 c 0.77076,0 1.39127,0.27916 1.39127,0.62592 v 3.52078 c 0,0.34676 -0.62051,0.62592 -1.39127,0.62592 -0.77076,0 -1.39127,-0.27916 -1.39127,-0.62592 v -3.52078 c 0,-0.34676 0.62051,-0.62592 1.39127,-0.62592 z m -4.92072,0 c 0.77076,0 1.39127,0.27916 1.39127,0.62592 v 3.52078 c 0,0.34676 -0.62051,0.62592 -1.39127,0.62592 -0.77077,0 -1.39127,-0.27916 -1.39127,-0.62592 v -3.52078 c 0,-0.34676 0.6205,-0.62592 1.39127,-0.62592 z m 25.58778,-5.75586 c 0.77077,0 1.39128,0.27916 1.39128,0.62592 v 3.52078 c 0,0.34676 -0.62051,0.62592 -1.39128,0.62592 -0.77076,0 -1.39127,-0.27916 -1.39127,-0.62592 v -3.52078 c 0,-0.34676 0.62051,-0.62592 1.39127,-0.62592 z m -5.41282,0 c 0.77077,0 1.39128,0.27916 1.39128,0.62592 v 3.52078 c 0,0.34676 -0.62051,0.62592 -1.39128,0.62592 -0.77077,0 -1.39128,-0.27916 -1.39128,-0.62592 v -3.52078 c 0,-0.34676 0.62051,-0.62592 1.39128,-0.62592 z m -4.92073,0 c 0.77076,0 1.39127,0.27916 1.39127,0.62592 v 3.52078 c 0,0.34676 -0.62051,0.62592 -1.39127,0.62592 -0.77076,0 -1.39127,-0.27916 -1.39127,-0.62592 v -3.52078 c 0,-0.34676 0.62051,-0.62592 1.39127,-0.62592 z m -4.92072,0 c 0.77077,0 1.39128,0.27916 1.39128,0.62592 v 3.52078 c 0,0.34676 -0.62051,0.62592 -1.39128,0.62592 -0.77076,0 -1.39127,-0.27916 -1.39127,-0.62592 v -3.52078 c 0,-0.34676 0.62051,-0.62592 1.39127,-0.62592 z m -5.41279,0 c 0.77076,0 1.39127,0.27916 1.39127,0.62592 v 3.52078 c 0,0.34676 -0.62051,0.62592 -1.39127,0.62592 -0.77076,0 -1.39127,-0.27916 -1.39127,-0.62592 v -3.52078 c 0,-0.34676 0.62051,-0.62592 1.39127,-0.62592 z m -4.92072,0 c 0.77076,0 1.39127,0.27916 1.39127,0.62592 v 3.52078 c 0,0.34676 -0.62051,0.62592 -1.39127,0.62592 -0.77077,0 -1.39127,-0.27916 -1.39127,-0.62592 v -3.52078 c 0,-0.34676 0.6205,-0.62592 1.39127,-0.62592 z M 40.113401,28.426874 H 114.17289 V 47.502806 H 40.113401 Z M 154.56223,47.802445 a 2.0021426,1.5139682 0 0 1 -2.00214,1.51397 2.0021426,1.5139682 0 0 1 -2.00214,-1.51397 2.0021426,1.5139682 0 0 1 2.00214,-1.51397 2.0021426,1.5139682 0 0 1 2.00214,1.51397 z m -4.71092,-4.239117 h 4.94647 c 1.8269,0 3.29765,0.945325 3.29765,2.119556 v 3.93632 c 0,1.174231 -1.47075,2.119556 -3.29765,2.119556 h -4.94647 c -1.82689,0 -3.29765,-0.945325 -3.29765,-2.119556 v -3.93632 c 0,-1.174231 1.47076,-2.119556 3.29765,-2.119556 z m -13.70627,2.630345 a 5.5054582,5.9661495 0 0 1 -5.50545,5.966148 5.5054582,5.9661495 0 0 1 -5.50546,-5.966148 5.5054582,5.9661495 0 0 1 5.50546,-5.966149 5.5054582,5.9661495 0 0 1 5.50545,5.966149 z m -2.26645,-0.09464 a 3.1014777,3.5016003 0 0 1 -3.10148,3.501601 3.1014777,3.5016003 0 0 1 -3.10147,-3.501601 3.1014777,3.5016003 0 0 1 3.10147,-3.5016 3.1014777,3.5016003 0 0 1 3.10148,3.5016 z m 10.4549,-18.096705 0.88302,-1.96204 5.60188,2.521161 -0.88303,1.962039 z m 8.27656,-5.71291 a 7.9609053,7.9609034 24.230449 0 1 3.99235,10.52679 7.9609053,7.9609034 24.230449 0 1 -10.52679,3.992343 7.9609053,7.9609034 24.230449 0 1 -3.99234,-10.526778 7.9609053,7.9609034 24.230449 0 1 10.52678,-3.992355 z m -0.94358,2.249396 a 5.265481,5.0203898 24.230449 0 1 2.7412,6.739098 5.265481,5.0203898 24.230449 0 1 -6.86201,2.417111 5.265481,5.0203898 24.230449 0 1 -2.7412,-6.739101 5.265481,5.0203898 24.230449 0 1 6.86201,-2.417108 z M 128.5889,24.346189 h 2.15159 v 6.143063 h -2.15159 z m 8.60638,5.202793 a 7.9609034,7.9609053 0 0 1 -7.96091,7.96091 7.9609034,7.9609053 0 0 1 -7.9609,-7.96091 7.9609034,7.9609053 0 0 1 7.9609,-7.960902 7.9609034,7.9609053 0 0 1 7.96091,7.960902 z m -2.43848,0.06272 a 5.0203898,5.265481 0 0 1 -5.02039,5.265479 5.0203898,5.265481 0 0 1 -5.02039,-5.265479 5.0203898,5.265481 0 0 1 5.02039,-5.265487 5.0203898,5.265481 0 0 1 5.02039,5.265487 z M 34.321028,4.8624929 H 165.69876 V 17.657804 H 34.321028 Z m 0,12.7953091 H 165.94434 V 57.58086 H 34.321028 Z M 188.69602,38.285265 a 7.7840153,12.967121 0 0 1 -7.78406,12.96712 7.7840153,12.967121 0 0 1 -7.78405,-12.96712 7.7840153,12.967121 0 0 1 7.78405,-12.96713 7.7840153,12.967121 0 0 1 7.78406,12.96713 z m -21.53167,-20.10594 h 25.65866 c 1.03817,0 1.87396,0.79034 1.87396,1.77206 v 35.92459 c 0,0.98171 -0.83579,1.77205 -1.87396,1.77205 h -25.65866 c -1.03817,0 -1.87396,-0.79034 -1.87396,-1.77205 v -35.92459 c 0,-0.98172 0.83579,-1.77206 1.87396,-1.77206 z M 27.828761,38.285265 a 7.7840153,12.967121 0 0 1 -7.784014,12.96712 7.7840153,12.967121 0 0 1 -7.784016,-12.96712 7.7840153,12.967121 0 0 1 7.784016,-12.96713 7.7840153,12.967121 0 0 1 7.784014,12.96713 z M 6.2972084,18.179325 H 31.955735 c 1.038164,0 1.873943,0.79034 1.873943,1.77206 v 35.92459 c 0,0.98171 -0.835779,1.77205 -1.873943,1.77205 H 6.2972084 c -1.038165,0 -1.873944,-0.79034 -1.873944,-1.77205 v -35.92459 c 0,-0.98172 0.835779,-1.77206 1.873944,-1.77206 z" />
  </g>
  <g
     inkscape:groupmode="layer"
     id="layer2"
     inkscape:label="Layer 2"
     style="display:inline">
    <path
       style="display:inline;fill:#000000;stroke-width:0.264583"
       d="M 7.208975,124.03368 C 5.844674,123.27751 5.87636,123.75418 5.866311,103.83573 l -0.0094,-18.582734 0.771896,-0.86407 0.771897,-0.86407 13.437013,-0.0733 c 8.193612,-0.0447 13.724065,0.0268 14.172627,0.18313 l 0.735613,0.25643 0.07058,-6.79771 0.07058,-6.7977 h 66.278143 66.27813 l 0.13229,6.48228 0.13229,6.4823 13.71407,0.13229 13.71408,0.13229 0.77186,0.86407 0.77186,0.86407 v 18.529734 c 0,20.10827 0.0341,19.62887 -1.44497,20.30279 -0.94169,0.42907 -159.588151,0.46362 -160.104761,0.0349 -0.242485,-0.20124 -0.494657,-0.20137 -0.870124,-5.3e-4 -0.841915,0.45058 -27.228839,0.36942 -28.051017,-0.0863 z m 128.137935,-7.52793 c 3.49022,-2.36712 2.64413,-8.11088 -1.37203,-9.31415 -3.08861,-0.92537 -6.20862,2.09817 -5.79231,5.61323 0.45674,3.8565 4.13407,5.75611 7.16434,3.70092 z m -3.23892,-0.32494 c -1.8732,-0.39635 -3.13443,-2.4402 -2.8829,-4.67179 0.3461,-3.07058 3.58175,-4.62033 5.92114,-2.83599 3.47896,2.65354 1.15545,8.39514 -3.03824,7.50778 z m 2.3568,-2.07629 c 0.63323,-0.63323 0.7734,-0.99657 0.7734,-2.00473 0,-1.00817 -0.14017,-1.3715 -0.7734,-2.00473 -1.00356,-1.00356 -1.94756,-1.00356 -2.95112,0 -0.63323,0.63323 -0.7734,0.99656 -0.7734,2.00473 0,1.00816 0.14017,1.3715 0.7734,2.00473 0.46624,0.46624 1.05226,0.77339 1.47556,0.77339 0.4233,0 1.00932,-0.30715 1.47556,-0.77339 z m 24.55897,2.25374 c 0.47855,-0.43374 0.55553,-0.8027 0.55204,-2.64583 -0.004,-2.30574 -0.0868,-2.56298 -0.97074,-3.02824 -0.90949,-0.47872 -7.32947,-0.40176 -8.29876,0.0995 -0.77491,0.40072 -0.78061,0.42073 -0.78061,2.73711 0,3.38719 0.13937,3.476 5.33088,3.39668 3.1324,-0.0479 3.68482,-0.12199 4.16719,-0.5592 z m -6.22012,-1.0416 c -1.91673,-1.64869 0.16307,-4.32581 2.80745,-3.61375 1.83986,0.49542 2.45577,2.3308 1.20266,3.5839 -0.90636,0.90637 -2.97321,0.92176 -4.01011,0.0298 z m 2.65353,-0.86393 c 0.65524,-0.25144 0.50915,-1.12949 -0.2183,-1.31207 -0.66153,-0.16603 -1.74443,0.25304 -1.74443,0.67508 0,0.55081 1.18506,0.93541 1.96273,0.63699 z M 23.923246,116.1076 c 1.046633,-0.43987 2.868844,-2.38447 3.627027,-3.87063 2.21082,-4.33356 2.126003,-11.95291 -0.180226,-16.190186 -0.921419,-1.692941 -3.010905,-3.588289 -4.202213,-3.811779 -2.039499,-0.382607 -3.840092,0.563737 -5.400765,2.838505 -3.690054,5.37846 -3.212838,15.37219 0.937678,19.6366 1.637548,1.68249 3.410584,2.1573 5.218499,1.39749 z m 160.866664,0 c 1.02754,-0.43185 2.87102,-2.38291 3.57446,-3.78307 2.42203,-4.82089 2.27198,-12.19269 -0.33886,-16.647713 -0.36082,-0.615697 -1.20722,-1.604611 -1.88088,-2.197588 -2.10922,-1.856601 -4.12695,-1.806101 -6.22438,0.15579 -2.42542,2.268685 -3.74108,6.017424 -3.74108,10.659561 0,7.8768 4.2156,13.66016 8.61074,11.81302 z M 115.65902,104.03 V 95.298777 H 79.411103 43.163186 v 8.731223 8.73125 h 36.247917 36.247917 z m -42.735367,6.0158 c -0.638408,-0.54914 -0.699572,-0.77876 -0.737687,-2.76957 -0.0263,-1.3734 0.07366,-2.286 0.272113,-2.48446 0.211645,-0.21164 0.231759,-0.46673 0.06184,-0.78424 -0.13851,-0.25881 -0.270473,-1.45121 -0.293251,-2.64979 -0.03925,-2.065524 -0.004,-2.211414 0.675849,-2.796181 1.01832,-0.875924 2.849996,-0.860024 3.74249,0.0325 0.582766,0.582767 0.649433,0.869737 0.649433,2.795511 0,1.18035 -0.119385,2.36916 -0.265297,2.6418 -0.177345,0.33137 -0.177345,0.55008 0,0.65968 0.145912,0.0902 0.265297,1.21986 0.265297,2.5104 0,2.21975 -0.03764,2.37604 -0.69714,2.8948 -0.975102,0.76702 -2.751668,0.74264 -3.673643,-0.0504 z m 1.908305,-8.59046 c -0.06708,-0.25743 -0.126381,-0.11086 -0.131773,0.3257 -0.0054,0.43656 0.04949,0.64719 0.12197,0.46805 0.07247,-0.17913 0.07689,-0.53631 0.0098,-0.79375 z m -26.906272,8.58299 c -0.620189,-0.31303 -0.666253,-0.4795 -0.738288,-2.6681 -0.05036,-1.52992 0.03239,-2.46583 0.240141,-2.71615 0.240086,-0.28929 0.242676,-0.45622 0.01069,-0.68821 -0.185859,-0.18586 -0.306292,-1.22711 -0.306292,-2.64812 v -2.341834 l 0.96362,-0.402617 c 1.0521,-0.439597 2.064216,-0.310157 2.806692,0.35895 0.594302,0.535577 0.666706,4.188881 0.09842,4.966061 -0.309745,0.4236 -0.309745,0.55347 0,0.86322 0.395676,0.39568 0.520422,4.17004 0.156726,4.74202 -0.232834,0.36617 -1.479481,0.87819 -2.124456,0.87255 -0.245187,-0.002 -0.743453,-0.15414 -1.107255,-0.33777 z m 5.291667,0.16609 c -1.112825,-0.44319 -1.322917,-0.92304 -1.322917,-3.02153 0,-1.51701 0.109112,-2.16587 0.415774,-2.47254 0.377976,-0.37797 0.377976,-0.45357 0,-0.83154 -0.306662,-0.30667 -0.415774,-0.95553 -0.415774,-2.47254 0,-1.755097 0.0817,-2.130674 0.557056,-2.560781 0.647277,-0.585657 2.618709,-0.655477 3.269012,-0.11577 0.514326,0.426847 0.588262,4.748861 0.08976,5.247361 -0.246943,0.24694 -0.246943,0.38806 0,0.635 0.473359,0.47336 0.426932,4.81855 -0.05577,5.21916 -0.445542,0.36976 -1.979279,0.59536 -2.53715,0.37318 z m 5.027084,-0.16609 c -0.620189,-0.31303 -0.666252,-0.4795 -0.738288,-2.6681 -0.05035,-1.52992 0.03239,-2.46583 0.240141,-2.71615 0.240086,-0.28929 0.242676,-0.45622 0.01069,-0.68821 -0.185859,-0.18586 -0.306292,-1.22711 -0.306292,-2.64812 v -2.341834 l 0.963621,-0.402617 c 1.052099,-0.439597 2.064215,-0.310157 2.806692,0.35895 0.620604,0.559274 0.678796,4.589291 0.07352,5.091621 -0.342942,0.28462 -0.342942,0.36982 0,0.71276 0.276146,0.27615 0.388318,0.98075 0.385448,2.42112 -0.0046,2.29097 -0.103664,2.54594 -1.143037,2.94111 -0.956652,0.36372 -1.47931,0.34992 -2.292496,-0.0605 z m 5.291667,0.16609 c -1.112824,-0.44319 -1.322917,-0.92304 -1.322917,-3.02153 0,-1.51701 0.109112,-2.16587 0.415774,-2.47254 0.377976,-0.37797 0.377976,-0.45357 0,-0.83154 -0.30222,-0.30222 -0.415774,-0.94457 -0.415774,-2.35194 0,-2.543014 0.463966,-3.196878 2.242021,-3.159648 1.71935,0.036 2.08307,0.489037 2.211052,2.754008 0.07968,1.41013 2.64e-4,2.01125 -0.332531,2.51926 -0.395444,0.60353 -0.398299,0.72274 -0.0299,1.2487 0.59265,0.84612 0.555918,3.9274 -0.05574,4.67579 -0.469543,0.57451 -1.980488,0.93076 -2.711979,0.63944 z m 4.431771,-0.24034 c -0.708414,-0.38432 -0.727604,-0.45592 -0.727604,-2.71462 0,-1.45157 0.118837,-2.43872 0.3175,-2.63738 0.246943,-0.24694 0.246943,-0.38806 0,-0.635 -0.484053,-0.48405 -0.422275,-4.567004 0.07665,-5.065931 0.633103,-0.633097 1.836092,-0.772167 2.885731,-0.3336 l 0.95345,0.398367 v 2.341834 c 0,1.46864 -0.118385,2.46022 -0.3175,2.65933 -0.246944,0.24694 -0.246944,0.38806 0,0.635 0.198697,0.1987 0.3175,1.18617 0.3175,2.63904 0,2.3032 -0.0062,2.32473 -0.780611,2.72521 -0.970407,0.50181 -1.784289,0.49815 -2.725118,-0.0122 z m 11.178645,0.0742 c -0.622734,-0.31437 -0.665882,-0.47444 -0.737002,-2.73403 -0.08888,-2.82406 0.119533,-3.14196 2.059918,-3.14196 1.870316,0 2.117403,0.33645 2.112616,2.87666 -0.0046,2.41382 -0.09739,2.66236 -1.143037,3.05991 -0.956683,0.36373 -1.479335,0.34992 -2.292495,-0.0606 z m 5.110525,0.0876 c -0.843166,-0.35769 -1.142233,-1.10325 -1.138164,-2.83735 0.0048,-2.05646 0.183465,-2.60912 0.957305,-2.96171 1.077394,-0.49089 2.178537,-0.35643 2.887568,0.3526 0.564655,0.56465 0.649433,0.88895 0.649433,2.48423 0,1.35522 -0.121023,1.98288 -0.463021,2.40132 -0.522677,0.63952 -2.022414,0.93028 -2.893121,0.56091 z m 5.142079,-0.16181 c -0.709163,-0.38473 -0.727604,-0.45405 -0.727604,-2.73514 0,-2.74929 0.219051,-3.06665 2.116667,-3.06665 1.870315,0 2.117402,0.33645 2.112616,2.87666 -0.0044,2.3145 -0.08648,2.57142 -0.970743,3.03686 -0.772094,0.40639 -1.647079,0.36777 -2.530936,-0.11173 z m 5.176671,0.16181 c -0.863534,-0.36634 -1.141775,-1.10906 -1.141775,-3.04782 0,-1.50441 0.09089,-1.8401 0.649433,-2.39864 0.448379,-0.44838 0.94356,-0.64943 1.599525,-0.64943 0.655966,0 1.151147,0.20105 1.599526,0.64943 0.564655,0.56465 0.649433,0.88895 0.649433,2.48423 0,1.35522 -0.121023,1.98288 -0.463021,2.40132 -0.522676,0.63952 -2.022414,0.93028 -2.893121,0.56091 z m 4.951111,-0.0404 c -0.955572,-0.38134 -1.05728,-0.67317 -1.061752,-3.04651 -0.0048,-2.54021 0.2423,-2.87666 2.112616,-2.87666 1.89785,0 2.11667,0.31719 2.11667,3.06831 0,2.32592 -0.005,2.34484 -0.78061,2.74573 -0.88609,0.45821 -1.44785,0.48389 -2.386924,0.10913 z m 5.367634,0.0404 c -0.86353,-0.36634 -1.14177,-1.10906 -1.14177,-3.04782 0,-1.50441 0.0909,-1.8401 0.64943,-2.39864 0.71103,-0.71103 1.90601,-0.85459 2.87369,-0.34524 0.87288,0.45945 0.96635,0.72668 0.97075,2.77535 0.003,1.41121 -0.11305,2.03219 -0.45897,2.45544 -0.52268,0.63952 -2.02242,0.93028 -2.89313,0.56091 z m 28.93714,-7.76967 c 1.58951,-0.58603 3.10653,-1.89383 3.90839,-3.369354 1.46002,-2.686645 0.96237,-6.268534 -1.16671,-8.397612 -1.53593,-1.535911 -2.79111,-2.028158 -5.17163,-2.028158 -2.39214,0 -3.6087,0.483347 -5.07968,2.018168 -1.85423,1.934711 -2.54846,5.37712 -1.55326,7.701948 0.63278,1.478191 2.22415,3.104108 3.72252,3.803348 1.47642,0.68898 3.8772,0.81111 5.34037,0.27166 z m -4.44617,-1.44678 c -4.21627,-2.202591 -4.18405,-8.486945 0.0546,-10.649323 2.08562,-1.063994 4.96505,-0.524797 6.64396,1.244134 2.25514,2.376065 2.01386,6.722541 -0.48763,8.784479 -1.84145,1.51787 -4.06767,1.74036 -6.21091,0.62071 z m 4.44724,-1.286417 c 2.65347,-1.259141 3.13729,-5.06071 0.91871,-7.218668 l -0.96848,-0.942014 -0.13229,2.778102 -0.1323,2.778115 -1.56295,0.0806 c -1.07129,0.0552 -1.63183,-0.028 -1.78189,-0.26458 -0.12041,-0.189847 -0.22075,-1.386961 -0.22298,-2.660262 -0.002,-1.273304 -0.11253,-2.315098 -0.24511,-2.315098 -0.40417,0 -1.60149,1.583881 -1.76549,2.335485 -0.0849,0.38897 -0.20506,0.868787 -0.26708,1.066264 -0.16746,0.533247 0.40537,2.446938 0.96965,3.239392 1.04457,1.466954 3.39382,1.975111 5.19021,1.122674 z m 20.10726,2.733197 c 1.58951,-0.58603 3.10653,-1.89383 3.90839,-3.369354 1.46002,-2.686645 0.96238,-6.268534 -1.16671,-8.397612 -1.5328,-1.532781 -2.79166,-2.027588 -5.17163,-2.032738 -1.82199,-0.004 -2.28242,0.0934 -3.30729,0.699417 -2.49085,1.472801 -3.77652,3.667199 -3.76161,6.420344 0.0104,1.923938 0.52292,3.225522 1.84939,4.696963 1.85008,2.05228 5.14486,2.9064 7.64946,1.98298 z m -4.56138,-2.00026 c -2.90192,-1.318084 -4.35985,-5.092263 -2.99815,-7.761408 1.05026,-2.058658 2.85924,-3.116582 5.32918,-3.116582 3.56169,0 6.16745,2.735075 5.96006,6.255827 -0.12012,2.039238 -1.01266,3.432919 -2.83301,4.423673 -1.57901,0.8594 -3.82332,0.94102 -5.45808,0.19849 z m 3.89132,-1.095174 c 1.19996,-0.333297 2.85506,-2.097958 2.91022,-3.102882 0.16153,-2.942655 -1.23196,-4.817623 -3.88858,-5.23218 -1.08596,-0.16946 -3.05516,0.322757 -3.20532,0.801194 -0.0457,0.14552 0.87742,0.681297 2.05131,1.190624 1.17389,0.509317 2.25961,1.076174 2.41272,1.259694 0.35597,0.426657 -0.43898,2.613835 -1.07109,2.946912 -0.30933,0.163 -1.10065,-0.0742 -2.66478,-0.798877 -1.22363,-0.566894 -2.2773,-0.978224 -2.34147,-0.914044 -0.26517,0.26516 0.53065,1.967878 1.23526,2.642935 0.72538,0.694957 2.35974,1.443401 3.19872,1.464831 0.21828,0.006 0.83163,-0.110617 1.36301,-0.258207 z m 13.98282,-21.95364 v -5.55625 H 102.29756 37.342352 v 5.55625 5.55625 h 64.955208 64.95521 z"
       id="path4411" />
  </g>
  <g
     inkscape:groupmode="layer"
     id="layer3"
     inkscape:label="Layer 3"
     style="display:inline" />
  <g
     inkscape:groupmode="layer"
     id="layer4"
     inkscape:label="Layer 4"
     style="display:inline" />
</svg>
