<?xml version="1.0" encoding="UTF-8" standalone="no"?>
<!-- Created with Inkscape (http://www.inkscape.org/) -->

<svg
   width="210mm"
   height="297mm"
   viewBox="0 0 210 297"
   version="1.1"
   id="svg5"
   inkscape:version="1.1 (c68e22c387, 2021-05-23)"
   sodipodi:docname="automation track icon.svg"
   xmlns:inkscape="http://www.inkscape.org/namespaces/inkscape"
   xmlns:sodipodi="http://sodipodi.sourceforge.net/DTD/sodipodi-0.dtd"
   xmlns="http://www.w3.org/2000/svg"
   xmlns:svg="http://www.w3.org/2000/svg">
  <sodipodi:namedview
     id="namedview7"
     pagecolor="#ffffff"
     bordercolor="#666666"
     borderopacity="1.0"
     inkscape:pageshadow="2"
     inkscape:pageopacity="0.0"
     inkscape:pagecheckerboard="0"
     inkscape:document-units="mm"
     showgrid="false"
     inkscape:zoom="0.62270623"
     inkscape:cx="-181.46599"
     inkscape:cy="739.51404"
     inkscape:window-width="1680"
     inkscape:window-height="956"
     inkscape:window-x="-11"
     inkscape:window-y="-11"
     inkscape:window-maximized="1"
     inkscape:current-layer="layer1" />
  <defs
     id="defs2">
    <inkscape:path-effect
       effect="spiro"
       id="path-effect2790"
       is_visible="true"
       lpeversion="1" />
    <inkscape:path-effect
       effect="spiro"
       id="path-effect2666"
       is_visible="true"
       lpeversion="1" />
    <inkscape:path-effect
       effect="spiro"
       id="path-effect2435"
       is_visible="true"
       lpeversion="1" />
    <inkscape:path-effect
       effect="spiro"
       id="path-effect2349"
       is_visible="true"
       lpeversion="1" />
    <inkscape:path-effect
       effect="spiro"
       id="path-effect2034"
       is_visible="true"
       lpeversion="1" />
    <inkscape:path-effect
       effect="spiro"
       id="path-effect1948"
       is_visible="true"
       lpeversion="1" />
    <inkscape:path-effect
       effect="spiro"
       id="path-effect1942"
       is_visible="true"
       lpeversion="1" />
    <inkscape:path-effect
       effect="spiro"
       id="path-effect1181"
       is_visible="true"
       lpeversion="1" />
    <inkscape:path-effect
       effect="spiro"
       id="path-effect1177"
       is_visible="true"
       lpeversion="1" />
    <inkscape:path-effect
       effect="spiro"
       id="path-effect873"
       is_visible="true"
       lpeversion="1" />
    <inkscape:path-effect
       effect="spiro"
       id="path-effect869"
       is_visible="true"
       lpeversion="1" />
    <inkscape:path-effect
       effect="spiro"
       id="path-effect865"
       is_visible="true"
       lpeversion="1" />
    <inkscape:path-effect
       effect="spiro"
       id="path-effect859"
       is_visible="true"
       lpeversion="1" />
  </defs>
  <g
     inkscape:label="Layer 1"
     inkscape:groupmode="layer"
     id="layer1">
    <path
       id="path3012"
       style="fill:none;stroke:#000000;stroke-width:1.311;stroke-linecap:round;stroke-linejoin:round;stroke-miterlimit:4;stroke-dasharray:none;stroke-opacity:0.955017;paint-order:stroke markers fill"
       d="m 99.481113,40.479473 a 7.6251782,4.6231398 0 0 1 -7.625185,4.62314 7.6251782,4.6231398 0 0 1 -7.625175,-4.62314 7.6251782,4.6231398 0 0 1 7.625175,-4.62314 7.6251782,4.6231398 0 0 1 7.625185,4.62314 z M 71.960959,13.652528 c 6.547726,7.169645 13.249348,14.443665 19.873809,21.665345 M 65.917699,16.580203 c 6.547726,7.16964 13.249348,14.44366 19.873807,21.66534 M 72.328719,13.130999 a 6.1232494,3.8395569 0 0 1 -6.123246,3.839554 6.1232494,3.8395569 0 0 1 -6.123251,-3.839554 6.1232494,3.8395569 0 0 1 6.123251,-3.8395559 6.1232494,3.8395569 0 0 1 6.123246,3.8395559 z M 43.794198,26.333653 c 7.240213,-3.2126 14.480279,-6.42529 21.720202,-9.63808 m -29.576444,6.26867 c 8.087454,-3.34319 16.174761,-6.68648 24.261927,-10.029864 M 43.794198,26.333653 a 7.2785792,3.6828405 0 0 1 -7.278577,3.68283 7.2785792,3.6828405 0 0 1 -7.278579,-3.68283 7.2785792,3.6828405 0 0 1 7.278579,-3.68284 7.2785792,3.6828405 0 0 1 7.278577,3.68284 z M 3.1265819,13.71796 C 11.676169,17.897173 20.225611,22.076273 28.774909,26.255283 M 6.3615061,9.4866141 C 5.2833427,10.844923 4.2050343,12.307608 3.1265819,13.71796 M 6.3615061,9.4866141 c 0.385254,0.156811 0.7703647,0.313531 1.1553304,0.470147 C 7.9018022,10.113381 26.464394,18.628513 35.937956,22.964243 M 6.3615061,9.4866141 c 0.385254,0.156811 0.7703647,0.313531 1.1553304,0.470147 C 7.9018022,10.113381 26.464394,18.628513 35.937956,22.964243" />
    <g
       id="g3288">
      <path
         id="path2854"
         style="fill:#000000;stroke:#000000;stroke-width:1.311;stroke-linecap:round;stroke-linejoin:round;stroke-miterlimit:4;stroke-dasharray:none;stroke-opacity:0.955017;paint-order:stroke markers fill"
         d="m 206.87469,39.629688 a 7.6251782,4.6231398 0 0 1 -7.62518,4.62314 7.6251782,4.6231398 0 0 1 -7.62518,-4.62314 7.6251782,4.6231398 0 0 1 7.62518,-4.62314 7.6251782,4.6231398 0 0 1 7.62518,4.62314 z M 179.35454,12.802743 c 6.54772,7.169645 13.24935,14.443665 19.87381,21.665345 m -25.91707,-18.73767 c 6.54772,7.16964 13.24935,14.44366 19.87381,21.66534 M 179.7223,12.281214 a 6.1232494,3.8395569 0 0 1 -6.12325,3.839554 6.1232494,3.8395569 0 0 1 -6.12325,-3.839554 6.1232494,3.8395569 0 0 1 6.12325,-3.8395563 6.1232494,3.8395569 0 0 1 6.12325,3.8395563 z m -28.53452,13.202654 c 7.24021,-3.2126 14.48028,-6.42529 21.7202,-9.63808 m -29.57644,6.26867 c 8.08745,-3.34319 16.17476,-6.68648 24.26192,-10.029864 m -16.40568,13.399274 a 7.2785792,3.6828405 0 0 1 -7.27858,3.68283 7.2785792,3.6828405 0 0 1 -7.27858,-3.68283 7.2785792,3.6828405 0 0 1 7.27858,-3.68284 7.2785792,3.6828405 0 0 1 7.27858,3.68284 z M 110.52016,12.868175 c 8.54959,4.179213 17.09903,8.358313 25.64833,12.537323 M 113.75509,8.6368287 c -1.07817,1.3583089 -2.15648,2.8209943 -3.23493,4.2313463 m 3.23493,-4.2313463 c 0.38525,0.156811 0.77036,0.313531 1.15533,0.470147 0.38496,0.1566199 18.94755,8.6717523 28.42112,13.0074823 M 113.75509,8.6368287 c 0.38525,0.156811 0.77036,0.313531 1.15533,0.470147 0.38496,0.1566199 18.94755,8.6717523 28.42112,13.0074823" />
      <path
         style="fill:#000000;stroke:#000000;stroke-width:7.95714;stroke-linecap:round;stroke-linejoin:round;stroke-miterlimit:4;stroke-dasharray:none;stroke-opacity:0.955017;paint-order:stroke markers fill"
         d="m 695.91102,99.101069 -32.36177,-35.548318 5.47827,-1.883339 c 3.01304,-1.035836 6.59918,-2.81362 7.9692,-3.950631 2.95157,-2.449585 1.0563,-4.273018 41.6067,40.029775 l 28.46949,31.103974 -8.59711,2.96884 c -4.72842,1.63287 -8.95845,2.93716 -9.40007,2.89843 -0.44162,-0.0387 -15.36574,-16.06716 -33.16471,-35.618731 z"
         id="path3087"
         transform="scale(0.26458333)" />
      <path
         style="fill:#000000;stroke:#000000;stroke-width:7.95714;stroke-linecap:round;stroke-linejoin:round;stroke-miterlimit:4;stroke-dasharray:none;stroke-opacity:0.955017;paint-order:stroke markers fill"
         d="m 570.70835,88.066876 c -1.66371,-1.86633 -5.16472,-4.305156 -7.78002,-5.419614 l -4.75509,-2.026288 6.36098,-2.680013 c 3.49854,-1.474006 19.41755,-8.080295 35.37557,-14.680641 l 29.01459,-12.000628 5.68876,5.365194 5.68877,5.365193 -32.29451,14.232965 c -17.76198,7.828131 -32.73992,14.458909 -33.28431,14.735062 -0.54439,0.276152 -2.35102,-1.024901 -4.01474,-2.89123 z"
         id="path3126"
         transform="scale(0.26458333)" />
      <path
         style="fill:#000000;stroke:#000000;stroke-width:7.95714;stroke-linecap:round;stroke-linejoin:round;stroke-miterlimit:4;stroke-dasharray:none;stroke-opacity:0.955017;paint-order:stroke markers fill"
         d="M 472.84483,71.8265 C 450.81377,60.999375 430.4963,51.068255 427.6949,49.757342 l -5.09345,-2.383478 4.41953,-5.233614 4.41952,-5.233613 48.35612,22.095496 c 46.96518,21.459932 48.23177,22.158855 44.03305,24.298135 -2.37768,1.21145 -5.80925,3.554725 -7.62571,5.207274 -3.2583,2.964299 -3.84043,2.740341 -43.35913,-16.681042 z"
         id="path3165"
         transform="scale(0.26458333)" />
    </g>
    <g
       id="g4405">
      <path
         id="path3537"
         style="fill:#ffffff;stroke:#000000;stroke-width:1.311;stroke-linecap:round;stroke-linejoin:round;stroke-miterlimit:4;stroke-dasharray:none;stroke-opacity:0.955017;paint-order:stroke markers fill"
         d="m 102.45536,287.34213 a 7.6251782,4.6231398 0 0 1 -7.625182,4.62314 7.6251782,4.6231398 0 0 1 -7.62518,-4.62314 7.6251782,4.6231398 0 0 1 7.62518,-4.62314 7.6251782,4.6231398 0 0 1 7.625182,4.62314 z M 74.935208,260.51519 c 6.54773,7.16964 13.24935,14.44366 19.87381,21.66534 m -25.91707,-18.73767 c 6.547726,7.16964 13.24935,14.44366 19.87381,21.66534 m -13.46279,-25.11454 a 6.1232494,3.8395569 0 0 1 -6.123246,3.83955 6.1232494,3.8395569 0 0 1 -6.123251,-3.83955 6.1232494,3.8395569 0 0 1 6.123251,-3.83956 6.1232494,3.8395569 0 0 1 6.123246,3.83956 z m -28.534521,13.20265 c 7.240213,-3.2126 14.480279,-6.42529 21.720202,-9.63808 m -29.576444,6.26867 c 8.087454,-3.34319 16.174761,-6.68648 24.261927,-10.02986 m -16.405685,13.39927 a 7.2785792,3.6828405 0 0 1 -7.278577,3.68283 7.2785792,3.6828405 0 0 1 -7.278579,-3.68283 7.2785792,3.6828405 0 0 1 7.278579,-3.68284 7.2785792,3.6828405 0 0 1 7.278577,3.68284 z M 6.1008313,260.58062 c 8.5495867,4.17921 17.0990287,8.35831 25.6483267,12.53732 M 9.3357553,256.34927 c -1.078164,1.35831 -2.156472,2.821 -3.234924,4.23135 m 3.234924,-4.23135 c 0.385254,0.15681 0.7703637,0.31353 1.1553297,0.47015 0.384966,0.15662 18.947558,8.67175 28.42112,13.00748 M 9.3357553,256.34927 c 0.385254,0.15681 0.7703637,0.31353 1.1553297,0.47015 0.384966,0.15662 18.947558,8.67175 28.42112,13.00748" />
      <path
         style="fill:#ffffff;stroke:#000000;stroke-width:7.95714;stroke-linecap:round;stroke-linejoin:round;stroke-miterlimit:4;stroke-dasharray:none;stroke-opacity:0.955017;paint-order:stroke markers fill"
         d="M 73.469636,1005.7496 C 48.959684,993.73413 28.928923,983.47597 28.956834,982.95365 c 0.02791,-0.52231 1.79734,-2.934 3.932062,-5.35931 l 3.881313,-4.40964 48.299626,22.019 48.299625,22.019 -5.74185,2.9458 c -3.15803,1.6201 -6.14401,3.9937 -6.63553,5.2746 -0.49153,1.2809 -1.35835,2.2892 -1.92629,2.2408 -0.56793,-0.049 -21.086202,-9.9189 -45.596154,-21.9343 z"
         id="path4084"
         transform="scale(0.26458333)" />
      <path
         style="fill:#ffffff;stroke:#000000;stroke-width:7.95714;stroke-linecap:round;stroke-linejoin:round;stroke-miterlimit:4;stroke-dasharray:none;stroke-opacity:0.955017;paint-order:stroke markers fill"
         d="m 177.67359,1025.3634 c -0.53698,-1.3993 -4.03944,-3.9156 -7.78324,-5.5918 -6.67324,-2.9877 -6.7289,-3.0774 -2.83479,-4.5676 2.18467,-0.8361 18.22817,-7.4341 35.65222,-14.6623 l 31.68011,-13.14219 5.60328,5.44184 5.60328,5.44184 -32.29759,14.34291 c -17.76368,7.8886 -32.8262,14.5541 -33.47227,14.8123 -0.64607,0.2581 -1.61402,-0.6756 -2.151,-2.075 z"
         id="path4123"
         transform="scale(0.26458333)" />
      <path
         style="fill:#ffffff;stroke:#000000;stroke-width:7.95714;stroke-linecap:round;stroke-linejoin:round;stroke-miterlimit:4;stroke-dasharray:none;stroke-opacity:0.955017;paint-order:stroke markers fill"
         d="m 302.52731,1036.5056 c -17.56382,-19.141 -32.07887,-35.2597 -32.25567,-35.8193 -0.17679,-0.5596 3.07515,-2.65645 7.22653,-4.65964 l 7.54796,-3.64216 9.63536,10.1362 c 5.29945,5.5749 20.57678,22.063 33.94962,36.6401 l 24.31425,26.5039 -6.64942,1.6786 c -3.65719,0.9233 -7.81605,2.1929 -9.24191,2.8215 -1.96318,0.8653 -10.34442,-7.3053 -34.52672,-33.6592 z"
         id="path4162"
         transform="scale(0.26458333)" />
      <path
         style="fill:#ffffff;stroke:#000000;stroke-width:7.95714;stroke-linecap:round;stroke-linejoin:round;stroke-miterlimit:4;stroke-dasharray:none;stroke-opacity:0.955017;paint-order:stroke markers fill"
         d="m 249.71647,994.12202 c -1.76649,-0.73067 -4.97357,-3.22463 -7.12686,-5.54213 -3.25118,-3.49913 -3.65816,-4.94418 -2.40001,-8.52171 4.7337,-13.46022 36.18911,-14.36075 42.18208,-1.20762 2.47679,5.43595 1.06861,7.99827 -6.99152,12.72182 -7.19016,4.21372 -18.84195,5.3713 -25.66369,2.54964 z"
         id="path4201"
         transform="scale(0.26458333)" />
      <path
         style="fill:#ffffff;stroke:#000000;stroke-width:7.95714;stroke-linecap:round;stroke-linejoin:round;stroke-miterlimit:4;stroke-dasharray:none;stroke-opacity:0.955017;paint-order:stroke markers fill"
         d="m 136.40718,1044.0095 c -11.9394,-3.9002 -16.42174,-9.6551 -11.67694,-14.992 10.36449,-11.658 36.21487,-12.2263 48.10343,-1.0576 7.96872,7.4863 -2.65402,16.079 -20.87422,16.8853 -6.29407,0.2785 -13.29259,-0.098 -15.55227,-0.8357 z"
         id="path4240"
         transform="scale(0.26458333)" />
      <path
         style="fill:#ffffff;stroke:#000000;stroke-width:7.95714;stroke-linecap:round;stroke-linejoin:round;stroke-miterlimit:4;stroke-dasharray:none;stroke-opacity:0.955017;paint-order:stroke markers fill"
         d="m 352.49366,1102.2145 c -13.92087,-3.3838 -21.67956,-9.2331 -21.67956,-16.3444 0,-6.7319 5.67831,-11.0776 18.39065,-14.0746 16.49546,-3.8888 28.78588,-0.5563 35.44817,9.6117 2.26161,3.4516 2.32798,4.625 0.47972,8.4812 -3.82566,7.982 -22.10731,14.886 -32.63898,12.3261 z"
         id="path4279"
         transform="scale(0.26458333)" />
    </g>
  </g>
</svg>
