<?xml version="1.0" encoding="UTF-8" standalone="no"?>
<!-- Created with Inkscape (http://www.inkscape.org/) -->

<svg
   width="210mm"
   height="297mm"
   viewBox="0 0 210 297"
   version="1.1"
   id="svg5"
   inkscape:version="1.1.1 (3bf5ae0d25, 2021-09-20)"
   sodipodi:docname="condenser mic 2  track icon svg.svg"
   xmlns:inkscape="http://www.inkscape.org/namespaces/inkscape"
   xmlns:sodipodi="http://sodipodi.sourceforge.net/DTD/sodipodi-0.dtd"
   xmlns="http://www.w3.org/2000/svg"
   xmlns:svg="http://www.w3.org/2000/svg">
  <sodipodi:namedview
     id="namedview7"
     pagecolor="#ffffff"
     bordercolor="#666666"
     borderopacity="1.0"
     inkscape:pageshadow="2"
     inkscape:pageopacity="0.0"
     inkscape:pagecheckerboard="0"
     inkscape:document-units="mm"
     showgrid="false"
     inkscape:zoom="1.3289991"
     inkscape:cx="413.84528"
     inkscape:cy="381.11388"
     inkscape:window-width="1680"
     inkscape:window-height="956"
     inkscape:window-x="-11"
     inkscape:window-y="-11"
     inkscape:window-maximized="1"
     inkscape:current-layer="layer2"
     showguides="false"
     inkscape:guide-bbox="true" />
  <defs
     id="defs2">
    <inkscape:path-effect
       effect="spiro"
       id="path-effect2161"
       is_visible="true"
       lpeversion="1" />
    <inkscape:path-effect
       effect="spiro"
       id="path-effect1948"
       is_visible="true"
       lpeversion="1" />
    <inkscape:path-effect
       effect="spiro"
       id="path-effect1861"
       is_visible="true"
       lpeversion="1" />
    <inkscape:path-effect
       effect="spiro"
       id="path-effect1699"
       is_visible="true"
       lpeversion="1" />
    <inkscape:path-effect
       effect="spiro"
       id="path-effect2988"
       is_visible="true"
       lpeversion="1" />
    <inkscape:path-effect
       effect="spiro"
       id="path-effect2902"
       is_visible="true"
       lpeversion="1" />
    <inkscape:path-effect
       effect="spiro"
       id="path-effect16418"
       is_visible="true"
       lpeversion="1" />
    <inkscape:path-effect
       effect="spiro"
       id="path-effect16414"
       is_visible="true"
       lpeversion="1" />
    <inkscape:path-effect
       effect="spiro"
       id="path-effect16286"
       is_visible="true"
       lpeversion="1" />
    <inkscape:path-effect
       effect="spiro"
       id="path-effect16147"
       is_visible="true"
       lpeversion="1" />
    <inkscape:path-effect
       effect="spiro"
       id="path-effect6914"
       is_visible="true"
       lpeversion="1" />
    <inkscape:path-effect
       effect="spiro"
       id="path-effect6218"
       is_visible="true"
       lpeversion="1" />
    <inkscape:path-effect
       effect="spiro"
       id="path-effect6048"
       is_visible="true"
       lpeversion="1" />
    <inkscape:path-effect
       effect="spiro"
       id="path-effect3630"
       is_visible="true"
       lpeversion="1" />
    <inkscape:path-effect
       effect="rough_hatches"
       id="path-effect2461"
       is_visible="true"
       lpeversion="1"
       direction="69.99843,260.92094 , 8.1437712,0"
       dist_rdm="6;1"
       growth="0"
       do_bend="true"
       bender="69.99843,265.92094 , 5,0"
       bottom_edge_variation="1.4602372;1"
       top_edge_variation="1.4602372;1"
       bottom_tgt_variation="0;1"
       top_tgt_variation="0;1"
       scale_bf="1"
       scale_bb="1"
       scale_tf="1"
       scale_tb="1"
       top_smth_variation="0;1"
       bottom_smth_variation="0;1"
       fat_output="true"
       stroke_width_top="1"
       stroke_width_bottom="1"
       front_thickness="1"
       back_thickness="0.25" />
    <inkscape:path-effect
       effect="skeletal"
       id="path-effect1945"
       is_visible="true"
       lpeversion="1"
       pattern="m 33.860958,87.614548 h 14.800324 c 5.651367,0 10.201025,4.549657 10.201025,10.201025 v 12.157417 c 0,5.65137 -4.549658,10.20103 -10.201025,10.20103 H 33.860958 c -5.651368,0 -10.201025,-4.54966 -10.201025,-10.20103 V 97.815573 c 0,-5.651368 4.549657,-10.201025 10.201025,-10.201025 z"
       copytype="repeated"
       prop_scale="1.28"
       scale_y_rel="false"
       spacing="2.6"
       normal_offset="0"
       tang_offset="0"
       prop_units="false"
       vertical_pattern="false"
       hide_knot="false"
       fuse_tolerance="0" />
    <inkscape:path-effect
       effect="skeletal"
       id="path-effect1762"
       is_visible="true"
       lpeversion="1"
       pattern="#rect1629"
       copytype="repeated"
       prop_scale="1"
       scale_y_rel="false"
       spacing="0"
       normal_offset="0"
       tang_offset="0"
       prop_units="false"
       vertical_pattern="false"
       hide_knot="false"
       fuse_tolerance="0" />
    <clipPath
       clipPathUnits="userSpaceOnUse"
       id="clipPath2454">
      <path
         id="path2456"
         style="fill:none;stroke:#000000;stroke-width:1.87727;stroke-linecap:round;stroke-linejoin:round;stroke-miterlimit:4;stroke-dasharray:none;stroke-opacity:0.955017;paint-order:stroke markers fill"
         d="M 24.108639,17.662786 V 232.66723 h 48.709219 c -0.09382,-0.23922 -0.150524,-0.50175 -0.162067,-0.7767 -8.828208,9e-5 -17.656228,-4e-5 -26.484432,0 -0.950288,10e-6 -2.207223,0.35471 -3.086118,0.27234 -0.924838,0.12774 -1.755179,0.17022 -2.04666,-0.27234 -0.461294,-0.70038 -0.502071,-1.50182 -0.258806,-2.2872 -0.243326,-0.7853 -0.202396,-1.58631 0.258806,-2.28668 0.291429,-0.44255 1.121844,-0.40061 2.04666,-0.27285 0.87896,-0.0821 2.136008,0.27285 3.086118,0.27285 5.037752,-3e-5 10.075481,1.7e-4 15.113232,0 -0.546802,-0.11355 -1.5571,-0.32244 -1.689429,-0.34985 -9.914283,-1.59283 -2.39561,-0.29245 -12.423383,-2.28875 -0.73117,-0.0425 -1.561949,-0.11544 -3.322007,-0.24443 -0.522408,-0.1634 -1.009043,-0.3017 -1.462873,-0.42891 -0.08348,5.3e-4 -0.139693,-0.008 -0.139159,-0.0393 -3.511522,-0.98024 -4.589969,-1.15015 0.834108,-4.58267 0.140401,-0.0888 0.31266,-0.12793 0.503179,-0.13488 0.571574,-0.0208 1.313996,0.24823 1.904113,0.3359 0.978835,0.14542 2.050656,0.34802 3.145512,0.56999 0.613824,0.0139 1.315925,0.0115 2.936776,0.002 0.491614,-0.003 0.984784,-0.0258 1.478144,-0.0501 0.522125,-0.50437 1.283906,-1.16235 2.407292,-1.92081 0.117818,-0.0796 0.351191,-0.009 0.526939,-0.0145 0.109472,-0.003 0.218919,-0.006 0.328383,-0.009 1.035605,-0.53385 2.755993,-0.78459 4.907916,-0.44494 2.228333,-0.004 4.457253,-0.007 6.685595,-0.006 0.493139,-0.0904 0.951083,-0.29102 1.46372,-0.28732 1.022342,0.008 2.023399,0.1694 3.030114,0.28835 0.885073,1.3e-4 1.769989,2.6e-4 2.655062,-5.2e-4 7.285657,-0.005 7.438661,4.38685 0.44548,4.56768 -0.207445,0.78619 -0.826852,1.38687 -1.916838,1.84071 1.515754,-0.0102 2.988741,-0.18563 4.532869,-0.0222 0.466925,0.53045 0.933997,1.06067 1.40093,1.59112 1.008678,0.13656 2.064211,0.18245 3.021624,0.41858 0.124079,0.0306 0.197944,0.05 0.314806,0.0791 0.366775,-0.0613 0.733703,-0.12208 1.101399,-0.18087 7.546552,-1.2065 15.29461,-2.24083 23.148847,-1.9482 0.94864,0.0258 2.72461,0.007 4.14169,0.14624 0.16981,-0.089 0.33931,-0.17822 0.50912,-0.26717 0.32006,-0.10974 0.59331,-0.31327 0.95969,-0.32918 0.16157,-0.007 -0.24087,0.31966 -0.0857,0.29146 0.33229,-0.0604 0.30709,-0.46671 0.64488,-0.49868 -1.9e-4,-0.0105 -8.7e-4,-0.021 -8.7e-4,-0.0315 -8.7e-4,-1.27324 -0.0941,-1.75185 2.66185,-1.20251 0.51625,-0.13787 1.08553,-0.24886 1.70131,-0.34107 1.1711,-0.17508 2.47002,0.27858 3.61815,-0.003 2.89654,0.008 5.80555,-0.0272 8.70171,0.0475 -0.57305,-0.43536 -0.86512,-1.02256 -0.82053,-1.85105 -0.0893,-1.59042 2.37899,-1.40441 5.41873,-3.34243 0.0466,-0.0297 -0.11313,-0.0662 -0.32329,-0.0966 -0.0383,0.003 -0.0491,0.003 -0.0891,0.006 -0.22263,-0.0146 -0.48759,0.037 -0.6678,-0.0439 -0.10663,-0.0479 0.39898,-0.0136 0.75689,0.0382 2.17389,-0.14836 1.70428,-0.0758 4.23079,-0.48369 0.66351,-0.10711 1.30695,-0.31401 1.96435,-0.44028 0.0485,-0.10391 0.0984,-0.20758 0.14595,-0.31161 0.28775,-0.62934 0.61049,-1.25287 0.91981,-1.87844 0.0911,-0.23519 0.16905,-0.4343 0.24353,-0.60668 0.0148,-0.23276 -0.0249,-0.5167 0.25456,-0.47439 0.003,5.3e-4 0.006,0.001 0.009,0.002 0.17242,-0.20802 0.39618,-0.30537 0.77386,-0.30231 0.7052,0.006 1.96729,0.36255 4.40644,0.98237 1.02559,0.12897 1.53642,0.22578 1.72846,0.4315 0.11485,0.0281 0.21376,0.0533 0.33262,0.0822 0.40703,0.0989 -0.22253,0.51638 -0.34535,0.77257 -0.0462,0.0964 -0.12259,0.25041 -0.17734,0.36277 -0.0271,0.0713 -0.0455,0.12054 -0.0747,0.19947 -0.46351,1.23615 -0.0509,2.47793 -0.006,3.7269 -0.004,0.62899 -0.0154,1.25772 -0.0594,1.88619 -0.008,0.12034 -0.0232,0.23671 -0.0416,0.35037 0.88456,1.02468 1.20236,2.04636 1.04624,3.1936 -0.0131,0.0962 -0.0325,0.19157 -0.0534,0.28629 1.23105,0.55497 2.36986,1.18441 3.32879,1.90066 0.33617,0.25109 -0.65276,0.51159 -0.97921,0.76739 -0.41567,0.22247 -0.83897,0.44023 -1.24734,0.66766 -0.11142,0.0621 -0.21566,0.12943 -0.31905,0.19741 0.17544,0.0536 0.32999,0.10801 0.45312,0.16381 0.65063,0.29509 0.59798,0.93453 0.66185,1.4273 0.0679,0.52385 -0.18278,1.04482 -0.27407,1.56735 -0.39704,0.5387 -0.72659,1.09803 -1.18116,1.61902 H 171.7246 V 17.662786 Z M 138.05397,222.7469 c 8.7e-4,0.0144 4.3e-4,0.029 0.002,0.0434 0.002,-0.01 0.005,-0.02 0.007,-0.03 -0.003,-0.004 -0.005,-0.009 -0.008,-0.0134 z m -33.98886,5.83221 c -0.0365,1.4e-4 -0.073,0.001 -0.10946,0.002 -0.005,0.02 -0.008,0.0392 -0.0119,0.0584 0.0411,-0.0195 0.0809,-0.04 0.12135,-0.06 z m 21.00035,2.65255 c -0.0666,0.0465 -0.12195,0.0878 -0.19346,0.13643 0.652,-0.008 1.30396,-0.0162 1.95586,-0.0217 0.93599,0.0754 1.76332,0.0325 2.5507,-0.0853 -0.88932,0.008 -1.82272,0.0132 -2.90029,5.3e-4 -0.47104,-0.006 -0.94219,-0.0168 -1.41281,-0.03 z" />
    </clipPath>
    <clipPath
       clipPathUnits="userSpaceOnUse"
       id="clipPath2969">
      <path
         id="path2971"
         style="fill:none;stroke:#000000;stroke-width:2.39538;stroke-linecap:round;stroke-linejoin:round;stroke-miterlimit:4;stroke-dasharray:none;stroke-opacity:0.955017;paint-order:stroke markers fill"
         d="M 35.614752,38.383226 V 214.19559 h 10.59649 c -0.02137,-0.93893 0.167576,-2.01787 0.635551,-3.20394 0.207719,-0.52647 0.24324,-1.1583 0.622822,-1.5801 1.004647,-1.11641 2.069017,-2.28492 3.432318,-2.9263 1.216853,-0.57246 2.34179,-0.74596 3.456078,-0.74124 0.668122,0.003 1.333156,0.0702 2.011027,0.15313 0.970781,-0.0284 2.122093,-0.0455 3.275338,-0.0118 0.922796,-1.90451 3.651337,-2.30179 6.034769,-2.29862 1.337995,0.002 2.566978,0.1302 3.305042,0.18762 5.828944,1.11054 5.963905,1.00422 10.156944,2.27002 0.196323,-0.008 0.370094,0.002 0.406449,0.122 0.630472,0.19166 1.336292,0.40819 2.1697,0.66553 1.451177,0.4481 2.875033,0.97855 4.307155,1.48334 0.610592,0.21523 1.189561,0.53271 1.820955,0.67731 1.893143,0.43366 1.487354,-0.12949 1.751373,0.13125 0.259392,-0.10169 0.475501,-0.12174 0.562577,0.0993 0.427311,1.08416 0.625099,2.23015 0.755195,3.3941 0.184623,0.52305 0.352429,1.04899 0.498938,1.57841 h 1.92193 c 0.177711,-0.041 0.343284,-0.0445 0.492995,0 h 1.03097 c 0.04266,-0.1721 0.125486,-0.38121 0.262194,-0.64786 -0.894722,-6.20216 -1.194101,-6.09391 1.43148,-6.09237 4.061608,-0.0463 8.123918,-0.071 12.185788,-0.0547 0.875,-0.43369 2.01627,-0.70171 3.42553,-0.70171 h 9.90408 c 4.75389,-0.029 8.80311,1.55779 4.43359,7.49663 h 6.24436 c -0.59187,-1.17564 -1.27023,-3.37964 -1.19304,-4.16984 0.12463,-1.2767 0.30611,-2.61106 0.9266,-3.73654 0.39708,-0.72028 1.30947,-1.00471 1.96435,-1.50689 0.7885,-0.28052 2.74904,-0.98691 3.15485,-1.05088 0.87025,-0.13718 1.70461,-0.20311 2.50911,-0.20277 4.3443,0.002 7.80154,1.93482 11.13616,5.00532 v 8.7e-4 c 2.25533,2.07668 2.68321,4.17612 2.01781,5.57661 -0.007,0.0286 -0.0218,0.0561 -0.0331,0.0841 h 8.94016 V 38.383226 Z M 65.660477,204.49457 c -0.664664,0.0247 -1.012163,0.93367 0.835806,1.08032 -0.06077,-0.0477 -0.249721,-0.10477 -0.182434,-0.14303 0.106757,-0.0608 0.232795,-0.0677 0.35978,-0.0698 -0.254782,-0.66287 -0.674908,-0.88003 -1.013152,-0.86745 z m 74.750713,6.37592 c 0.73212,0.30128 1.4932,0.47554 2.27152,0.57129 -0.7053,-0.33388 -1.44592,-0.53765 -2.27152,-0.57129 z m -0.86126,0.0261 c -0.0514,0.005 -0.10234,0.009 -0.15443,0.0152 0.0268,0.0846 0.0562,0.17092 0.0925,0.25999 0.0409,-0.16359 0.0616,-0.22488 0.0619,-0.27513 z" />
    </clipPath>
    <clipPath
       clipPathUnits="userSpaceOnUse"
       id="clipPath2979">
      <path
         id="path2981"
         style="fill:none;stroke:#000000;stroke-width:2.39538;stroke-linecap:round;stroke-linejoin:round;stroke-miterlimit:4;stroke-dasharray:none;stroke-opacity:0.955017;paint-order:stroke markers fill"
         d="m 25.361074,175.90809 v 56.75899 H 170.47049 v -56.75899 z m 114.747186,27.62058 c 4.3443,0.002 7.80154,1.93482 11.13616,5.00533 v 8.6e-4 c 2.25533,2.07669 2.68321,4.17612 2.01781,5.57661 -0.025,0.10826 -0.0846,0.21209 -0.1731,0.3113 -0.61306,0.95156 -1.79224,1.49069 -3.24309,1.32601 -3.02949,0.79897 -6.43381,1.42736 -2.71446,2.72352 0.23843,0.0831 0.47688,0.16595 0.71531,0.24905 0.19147,-0.0662 0.17772,-0.0564 0.64489,0.22464 -0.21499,-0.0749 -0.42992,-0.14971 -0.64489,-0.22464 -0.18535,0.0641 -0.56329,0.19943 -1.76156,0.22969 -3.6675,0.0926 -7.37964,-0.27568 -10.56424,-2.21701 -0.7968,-0.64003 -1.71541,-1.15609 -2.39117,-1.92086 -0.6245,-0.70677 -1.67148,-3.81583 -1.57657,-4.7874 0.12463,-1.27671 0.30611,-2.61106 0.9266,-3.73654 0.39708,-0.72029 1.30947,-1.00471 1.96435,-1.50689 0.7885,-0.28053 2.74904,-0.98691 3.15485,-1.05088 0.87025,-0.13718 1.70461,-0.20311 2.50911,-0.20277 z m -74.429115,0.0581 c 1.337995,0.002 2.566978,0.1302 3.305042,0.18762 5.828944,1.11055 5.963905,1.00422 10.156944,2.27002 0.196323,-0.008 0.370094,0.002 0.406449,0.12201 0.630472,0.19166 1.336292,0.40901 2.1697,0.66636 1.451177,0.4481 2.875033,0.97855 4.307155,1.48334 0.610592,0.21523 1.189561,0.53188 1.820955,0.67647 1.893143,0.43367 1.487354,-0.1295 1.751373,0.13125 0.259392,-0.1017 0.475501,-0.12175 0.562577,0.0993 0.427311,1.08415 0.625099,2.23015 0.755195,3.3941 0.306325,0.86788 0.576453,1.74192 0.745862,2.63265 1.518031,-1.32585 2.864762,-1.86983 3.018231,0.94318 0.13272,2.43262 -0.142847,3.45058 -1.443353,5.49668 -0.116549,0.41466 -0.212146,0.84571 -0.580398,0.97011 -1.861024,0.62847 -3.899837,0.49756 -5.849789,0.74629 -2.387984,-2.40166 0.477834,0.56529 -2.452261,-2.85814 -0.613086,-0.7163 -1.308844,-1.36163 -1.920235,-2.07819 -2.414799,0.4289 -4.842992,0.75567 -7.293994,0.87166 -0.564297,0.92969 -1.781915,1.61597 -3.608813,2.27423 -1.79958,0.64842 -3.993691,-0.8554 -5.743722,0.0236 -1.260728,-0.0197 -2.522043,-0.01 -3.781915,-0.0597 -0.519163,-0.0207 -1.034081,-0.10149 -1.551119,-0.15229 0.08901,-0.006 0.35445,-0.006 0.266439,-0.021 -1.364074,-0.23112 -2.811285,0.45033 -4.145088,0.48631 -1.20713,0.0325 -2.249274,-0.113 -3.125997,-0.37862 -0.272265,-0.004 -0.539846,-0.0384 -0.800168,-0.1262 -2.942107,-0.99223 -5.704805,-2.41146 -5.638503,-4.57202 -0.888875,-1.2296 -1.166066,-3.28153 -0.162919,-5.82398 0.207719,-0.52646 0.24324,-1.15829 0.622822,-1.58009 1.004647,-1.11641 2.069017,-2.28492 3.432318,-2.9263 1.216853,-0.57247 2.34179,-0.74596 3.456078,-0.74125 0.668122,0.003 1.333156,0.0702 2.011027,0.15313 0.970781,-0.0284 2.122093,-0.0454 3.275338,-0.0118 0.9231,-1.90398 3.651602,-2.30184 6.034769,-2.29863 z m -0.01868,0.90784 c -0.664655,0.0247 -1.012162,0.93367 0.835807,1.08032 -0.06077,-0.0477 -0.249722,-0.10477 -0.182434,-0.14303 0.106757,-0.0608 0.232795,-0.0677 0.35978,-0.0698 -0.254782,-0.66287 -0.674908,-0.88003 -1.013153,-0.86745 z m 46.503895,2.2044 h 9.90408 c 4.93543,-0.03 9.11581,1.67907 3.89986,8.19412 -0.0537,0.0671 -0.11274,0.12345 -0.17565,0.17332 0.53058,0.65326 1.02222,1.35057 1.57488,1.95114 1.13972,0.0528 2.25901,1.55676 2.89944,2.19683 3.97745,3.97516 -5.52998,3.31768 -7.2312,3.76262 1.09253,0.62856 2.33875,1.23421 1.40432,0.9356 -1.70122,-0.54364 -1.94276,-0.79479 -1.40432,-0.9356 -0.72058,-0.41462 -1.37531,-0.83846 -1.29062,-1.02227 -0.14658,-0.16691 -1.4416,-1.5967 -1.55112,-1.88384 -0.04,-0.10469 0.37138,0.0807 0.33772,-0.0261 -0.074,-0.23484 -0.27837,-0.45691 -0.51422,-0.53343 -2.47981,-0.80457 -5.19855,-0.73165 -7.66649,-1.56411 -5.09334,-0.45571 -10.12181,-0.78503 -15.054684,-2.2288 -0.687698,-0.20127 -1.889658,-0.11575 -1.985567,-0.82034 -0.0022,-0.0159 -0.0039,-0.0288 -0.006,-0.0446 -0.556291,-0.0993 -0.647573,-0.40029 -0.183286,-1.30581 -0.894722,-6.20216 -1.194101,-6.09391 1.43148,-6.09237 4.061587,-0.0463 8.123917,-0.071 12.185787,-0.0547 0.875,-0.43369 2.01627,-0.70171 3.42553,-0.70171 z m 28.24683,4.17152 c 0.73212,0.30128 1.4932,0.47554 2.27152,0.57129 -0.7053,-0.33388 -1.44592,-0.53765 -2.27152,-0.57129 z m -0.86126,0.0261 c -0.0514,0.005 -0.10234,0.009 -0.15443,0.0152 0.0268,0.0846 0.0562,0.17092 0.0925,0.25999 0.0409,-0.16359 0.0616,-0.22488 0.0619,-0.27513 z m -52.374033,6.6216 c -0.0062,8.6e-4 -0.01242,0.003 -0.01868,0.004 -0.0013,0.008 -0.0035,0.0179 -0.0051,0.0261 0.0073,-0.009 0.01642,-0.0212 0.02376,-0.0303 z m 1.526511,0.66805 c -0.768554,0.0677 -1.30257,0.14078 -1.646154,0.18342 -0.04149,1.20955 0.656861,0.77332 1.646154,-0.18342 z m 4.749242,2.95742 c 0.003,-0.01 -0.0022,-0.003 -0.01868,0.0244 -0.04509,0.0764 -0.08054,0.16265 -0.112857,0.2524 0.0636,-0.13087 0.12404,-0.25414 0.131521,-0.2768 z" />
    </clipPath>
  </defs>
  <g
     inkscape:label="Layer 1"
     inkscape:groupmode="layer"
     id="layer1"
     style="display:inline">
    <path
       style="fill:#917c6f;stroke:#000000;stroke-width:14.443;stroke-linecap:round;stroke-linejoin:round;stroke-opacity:0.955017;paint-order:stroke markers fill"
       d=""
       id="path1102"
       transform="scale(0.26458333)" />
    <path
       style="fill:#917c6f;stroke:#000000;stroke-width:14.443;stroke-linecap:round;stroke-linejoin:round;stroke-opacity:0.955017;paint-order:stroke markers fill"
       d=""
       id="path1570"
       transform="scale(0.26458333)" />
    <path
       style="fill:#000000;stroke:#000000;stroke-width:3.52267;stroke-linecap:round;stroke-linejoin:round;stroke-opacity:0.955017;paint-order:stroke markers fill"
       d=""
       id="path1632"
       transform="scale(0.26458333)" />
    <path
       style="fill:#000000;stroke:#000000;stroke-width:3.52267;stroke-linecap:round;stroke-linejoin:round;stroke-opacity:0.955017;paint-order:stroke markers fill"
       d=""
       id="path1827"
       transform="scale(0.26458333)" />
    <path
       style="fill:#000000;stroke:#000000;stroke-width:3.52267;stroke-linecap:round;stroke-linejoin:round;stroke-opacity:0.955017;paint-order:stroke markers fill"
       d=""
       id="path1866"
       transform="scale(0.26458333)" />
    <path
       style="fill:#000000;stroke:#000000;stroke-width:3.52267;stroke-linecap:round;stroke-linejoin:round;stroke-opacity:0.955017;paint-order:stroke markers fill"
       d=""
       id="path1983"
       transform="scale(0.26458333)" />
    <path
       style="fill:#000000;stroke:#000000;stroke-width:3.52267;stroke-linecap:round;stroke-linejoin:round;stroke-opacity:0.955017;paint-order:stroke markers fill"
       d=""
       id="path2061"
       transform="scale(0.26458333)" />
    <path
       style="fill:#000000;stroke:#000000;stroke-width:3.52267;stroke-linecap:round;stroke-linejoin:round;stroke-opacity:0.955017;paint-order:stroke markers fill"
       d=""
       id="path2100"
       transform="scale(0.26458333)" />
    <path
       style="fill:#000000;stroke:#000000;stroke-width:2.03148;stroke-linecap:round;stroke-linejoin:round;stroke-opacity:0.955017;paint-order:stroke markers fill"
       d=""
       id="path2139"
       transform="scale(0.26458333)" />
    <path
       style="fill:#000000;stroke:#000000;stroke-width:1.63926;stroke-linecap:round;stroke-linejoin:round;stroke-opacity:0.955017;paint-order:stroke markers fill"
       d=""
       id="path2334"
       transform="scale(0.26458333)" />
    <path
       style="fill:#000000;stroke:#000000;stroke-width:1.32984;stroke-linecap:round;stroke-linejoin:round;stroke-opacity:0.955017;paint-order:stroke markers fill"
       d=""
       id="path2412"
       transform="scale(0.26458333)" />
    <path
       style="fill:#784421;fill-opacity:1;stroke:#000000;stroke-width:2.8244;stroke-linecap:round;stroke-linejoin:round;stroke-miterlimit:4;stroke-dasharray:none;stroke-opacity:0.955017;paint-order:stroke markers fill"
       d=""
       id="path13776"
       transform="scale(0.26458333)" />
    <path
       style="fill:#784421;fill-opacity:1;stroke:#000000;stroke-width:0.996849;stroke-linecap:round;stroke-linejoin:round;stroke-miterlimit:4;stroke-dasharray:none;stroke-opacity:0.955017;paint-order:stroke markers fill"
       d=""
       id="path15410"
       transform="scale(0.26458333)" />
    <path
       style="fill:#784421;fill-opacity:1;stroke:#000000;stroke-width:0.657404;stroke-linecap:round;stroke-linejoin:round;stroke-miterlimit:4;stroke-dasharray:none;stroke-opacity:0.955017;paint-order:stroke markers fill"
       d=""
       id="path15449"
       transform="scale(0.26458333)" />
    <path
       style="fill:#000000;fill-opacity:1;stroke:#000000;stroke-width:0.464993;stroke-linecap:round;stroke-linejoin:round;stroke-miterlimit:4;stroke-dasharray:none;stroke-opacity:0.955017;paint-order:stroke markers fill"
       d=""
       id="path15679"
       transform="scale(0.26458333)" />
    <path
       style="fill:#000000;fill-opacity:1;stroke:#000000;stroke-width:0.464993;stroke-linecap:round;stroke-linejoin:round;stroke-miterlimit:4;stroke-dasharray:none;stroke-opacity:0.955017;paint-order:stroke markers fill"
       d=""
       id="path15718"
       transform="scale(0.26458333)" />
    <path
       style="fill:#000000;fill-opacity:1;stroke:#000000;stroke-width:0.464993;stroke-linecap:round;stroke-linejoin:round;stroke-miterlimit:4;stroke-dasharray:none;stroke-opacity:0.955017;paint-order:stroke markers fill"
       d=""
       id="path15991"
       transform="scale(0.26458333)" />
    <path
       style="fill:#000000;fill-opacity:1;stroke:#000000;stroke-width:0.464993;stroke-linecap:round;stroke-linejoin:round;stroke-miterlimit:4;stroke-dasharray:none;stroke-opacity:0.955017;paint-order:stroke markers fill"
       d=""
       id="path16030"
       transform="scale(0.26458333)" />
    <path
       style="fill:#676c53;fill-opacity:1;stroke:none;stroke-width:0.50937;stroke-linecap:round;stroke-linejoin:round;stroke-miterlimit:4;stroke-dasharray:none;stroke-opacity:0.955017;paint-order:stroke markers fill"
       d=""
       id="path13676"
       transform="scale(0.26458333)" />
    <path
       style="fill:#ffffff;stroke:#000000;stroke-width:5.7551;stroke-linecap:round;stroke-linejoin:round;stroke-opacity:0.955017;paint-order:stroke markers fill"
       d=""
       id="path1347"
       transform="scale(0.26458333)" />
    <path
       style="fill:#ffffff;stroke:#000000;stroke-width:2.89316;stroke-linecap:round;stroke-linejoin:round;stroke-opacity:0.955017;paint-order:stroke markers fill"
       d=""
       id="path1893"
       transform="scale(0.26458333)" />
    <path
       style="fill:#ffffff;stroke:#000000;stroke-width:2.89316;stroke-linecap:round;stroke-linejoin:round;stroke-opacity:0.955017;paint-order:stroke markers fill"
       d=""
       id="path2776"
       transform="scale(0.26458333)" />
  </g>
  <g
     inkscape:groupmode="layer"
     id="layer2"
     inkscape:label="Layer 2">
    <g
       id="g3074"
       style="stroke-width:1.2;stroke-miterlimit:4;stroke-dasharray:none"
       transform="matrix(0.56325253,0,0,0.43515291,-22.1777,11.669485)">
      <g
         id="g2288"
         transform="matrix(0.60900868,0,0,0.61419203,36.201345,-25.872723)"
         clip-path="url(#clipPath2454)"
         style="display:inline;stroke-width:1.96208;stroke-miterlimit:4;stroke-dasharray:none">
        <path
           id="path1643"
           style="fill:none;stroke:#000000;stroke-width:1.96208;stroke-linecap:round;stroke-linejoin:round;stroke-miterlimit:4;stroke-dasharray:none;stroke-opacity:0.955017;paint-order:stroke markers fill"
           d="m 147.76418,211.63506 -19.58516,-23.58561 12.67379,-26.26884 19.58517,23.58561 z m -1.05319,-3.8654 -12.19727,-19.54041 7.89299,-21.76342 12.19727,19.54042 z m -30.17069,6.11353 -19.58518,-23.58559 12.67379,-26.26884 19.58517,23.5856 z m -1.05321,-3.8654 -12.19726,-19.54041 7.89299,-21.76341 12.19726,19.54041 z m -28.751389,1.61727 -19.585055,-23.58561 12.673722,-26.26884 19.585076,23.58561 z m -1.053193,-3.8654 -12.197201,-19.54041 7.892955,-21.76342 12.197195,19.54042 z m -30.170536,6.11353 -19.585056,-23.58559 12.673722,-26.26884 19.585057,23.5856 z m -1.053194,-3.8654 -12.197193,-19.54041 7.892949,-21.76341 12.1972,19.54041 z m 93.305402,-39.97337 -19.58516,-23.58557 12.67379,-26.26868 19.58517,23.58547 z m -1.05319,-3.8654 -12.19727,-19.54037 7.89299,-21.76331 12.19727,19.5403 z m -30.17069,6.11355 -19.58518,-23.58558 12.67379,-26.2687 19.58517,23.58548 z m -1.05321,-3.86542 -12.19726,-19.54036 7.89299,-21.76333 12.19726,19.5403 z m -28.751389,1.61727 -19.585055,-23.58557 12.673722,-26.26868 19.585076,23.58547 z m -1.053193,-3.8654 -12.197201,-19.54037 7.892955,-21.76331 12.197195,19.5403 z m -30.170536,6.11355 -19.585056,-23.58558 12.673722,-26.2687 19.585057,23.58548 z m -1.053194,-3.86542 -12.197193,-19.54036 7.892949,-21.76333 12.1972,19.5403 z m 94.724672,-38.28713 -19.58515,-23.58548 12.67378,-26.268685 19.58517,23.585485 z m -1.05318,-3.86537 -12.19728,-19.54031 7.89299,-21.763301 12.19726,19.540301 z m -30.17071,6.1135 -19.585172,-23.58548 12.673802,-26.268686 19.58515,23.585476 z m -1.0532,-3.86538 -12.19727,-19.54028 7.893,-21.763324 12.19726,19.540284 z M 88.154956,130.14002 68.569906,106.55454 81.24363,80.285855 100.82871,103.87134 Z M 87.10177,126.27465 74.904569,106.73434 82.797524,84.971039 94.994718,104.51134 Z M 56.931233,132.38815 37.346178,108.80267 50.0199,82.533984 69.604956,106.11946 Z M 55.878041,128.52277 43.680845,108.98249 51.573794,87.219166 63.770988,106.75945 Z M 149.18345,88.549615 129.5983,64.964144 142.27208,38.695465 161.85725,62.280932 Z m -1.05318,-3.865371 -12.19728,-19.540297 7.89299,-21.763303 12.19726,19.540294 z M 117.95956,90.797739 98.374388,67.212275 111.04819,40.943591 130.63334,64.529065 Z m -1.0532,-3.865365 -12.19727,-19.540294 7.893,-21.763307 12.19726,19.540295 z M 88.154956,88.549615 68.569906,64.964144 81.24363,38.695465 100.82871,62.280932 Z M 87.10177,84.684244 74.904569,65.143947 82.797524,43.380644 94.994718,62.920938 Z M 56.931233,90.797739 37.346178,67.212275 50.0199,40.943591 69.604956,64.529065 Z M 55.878041,86.932374 43.680845,67.39208 51.573794,45.628773 63.770988,65.169068 Z"
           clip-path="url(#clipPath2969)" />
        <path
           id="rect1991"
           style="fill:none;stroke:#000000;stroke-width:1.96208;stroke-linecap:round;stroke-linejoin:round;stroke-miterlimit:4;stroke-dasharray:none;stroke-opacity:0.955017;paint-order:stroke markers fill"
           d="M 34.125882,18.295062 H 163.00337 c 2.94238,0 5.31116,2.36878 5.31116,5.311167 v 4.471089 c 0,2.942386 -2.36878,5.311166 -5.31116,5.311166 H 34.125882 c -2.942386,0 -5.311166,-2.36878 -5.311166,-5.311166 v -4.471089 c 0,-2.942387 2.36878,-5.311167 5.311166,-5.311167 z M 167.01812,33.917647 c 1.21941,3.2019 2.43908,6.403528 3.65903,9.604902 1.21994,3.20138 -0.6101,88.731301 -0.91476,133.096551 M 28.814716,33.38848 c -1.219406,3.2019 -2.439077,6.403533 -3.659012,9.604899 -1.219935,3.20138 0.6101,88.731301 0.914753,133.096551 M 28.814716,33.38848 c 1.219935,2.64e-4 2.439605,2.64e-4 3.659011,0 1.219406,-2.65e-4 89.341133,2.64e-4 134.011303,0" />
        <path
           style="color:#000000;fill:#000000;stroke-width:1.96208;stroke-miterlimit:4;stroke-dasharray:none"
           d="m 26.779297,175.9082 -1.417969,0.36328 c 2.469894,9.6732 6.893501,18.83848 12.931641,26.78907 8.444254,11.11879 20.051422,19.79579 33.105468,24.74804 13.054047,4.95226 27.495165,6.15769 41.189453,3.4375 13.69429,-2.72019 26.57971,-9.35445 36.75,-18.91992 10.17029,-9.56546 17.57916,-22.01946 21.13281,-35.52148 l -1.41601,-0.3711 c -3.48247,13.23154 -10.75415,25.45234 -20.72071,34.82618 -9.96655,9.37384 -22.61129,15.88313 -36.03125,18.54882 -13.419947,2.6657 -27.592226,1.48391 -40.384761,-3.36914 -12.792535,-4.85304 -24.18194,-13.36957 -32.457032,-24.26562 -5.918592,-7.79318 -10.260646,-16.78395 -12.68164,-26.26563 z"
           id="path2159"
           clip-path="url(#clipPath2979)" />
      </g>
      <rect
         style="fill:none;stroke:#000000;stroke-width:1.2;stroke-linecap:round;stroke-linejoin:round;stroke-miterlimit:4;stroke-dasharray:none;stroke-opacity:0.955017;paint-order:stroke markers fill"
         id="rect2560"
         width="77.896301"
         height="148.35127"
         x="58.859253"
         y="100.91886"
         ry="13.086568" />
      <ellipse
         style="fill:none;stroke:#000000;stroke-width:1.2;stroke-linecap:round;stroke-linejoin:round;stroke-miterlimit:4;stroke-dasharray:none;stroke-opacity:0.955017;paint-order:stroke markers fill"
         id="path2885"
         cx="77.753998"
         cy="167.62846"
         rx="5.9111505"
         ry="45.931587" />
      <ellipse
         style="fill:none;stroke:#000000;stroke-width:1.2;stroke-linecap:round;stroke-linejoin:round;stroke-miterlimit:4;stroke-dasharray:none;stroke-opacity:0.955017;paint-order:stroke markers fill"
         id="path2887"
         cx="105.65395"
         cy="220.22676"
         rx="21.980291"
         ry="6.6581812" />
    </g>
    <g
       id="g889"
       style="stroke-width:1.2;stroke-miterlimit:4;stroke-dasharray:none"
       transform="matrix(0.56325253,0,0,0.43515291,123.34334,11.669485)">
      <g
         id="g881"
         transform="matrix(0.60900868,0,0,0.61419203,36.201345,-25.872723)"
         clip-path="url(#clipPath2454)"
         style="display:inline;stroke-width:1.96208;stroke-miterlimit:4;stroke-dasharray:none">
        <path
           id="path875"
           style="fill:none;stroke:#000000;stroke-width:1.96208;stroke-linecap:round;stroke-linejoin:round;stroke-miterlimit:4;stroke-dasharray:none;stroke-opacity:0.955017;paint-order:stroke markers fill"
           d="m 147.76418,211.63506 -19.58516,-23.58561 12.67379,-26.26884 19.58517,23.58561 z m -1.05319,-3.8654 -12.19727,-19.54041 7.89299,-21.76342 12.19727,19.54042 z m -30.17069,6.11353 -19.58518,-23.58559 12.67379,-26.26884 19.58517,23.5856 z m -1.05321,-3.8654 -12.19726,-19.54041 7.89299,-21.76341 12.19726,19.54041 z m -28.751389,1.61727 -19.585055,-23.58561 12.673722,-26.26884 19.585076,23.58561 z m -1.053193,-3.8654 -12.197201,-19.54041 7.892955,-21.76342 12.197195,19.54042 z m -30.170536,6.11353 -19.585056,-23.58559 12.673722,-26.26884 19.585057,23.5856 z m -1.053194,-3.8654 -12.197193,-19.54041 7.892949,-21.76341 12.1972,19.54041 z m 93.305402,-39.97337 -19.58516,-23.58557 12.67379,-26.26868 19.58517,23.58547 z m -1.05319,-3.8654 -12.19727,-19.54037 7.89299,-21.76331 12.19727,19.5403 z m -30.17069,6.11355 -19.58518,-23.58558 12.67379,-26.2687 19.58517,23.58548 z m -1.05321,-3.86542 -12.19726,-19.54036 7.89299,-21.76333 12.19726,19.5403 z m -28.751389,1.61727 -19.585055,-23.58557 12.673722,-26.26868 19.585076,23.58547 z m -1.053193,-3.8654 -12.197201,-19.54037 7.892955,-21.76331 12.197195,19.5403 z m -30.170536,6.11355 -19.585056,-23.58558 12.673722,-26.2687 19.585057,23.58548 z m -1.053194,-3.86542 -12.197193,-19.54036 7.892949,-21.76333 12.1972,19.5403 z m 94.724672,-38.28713 -19.58515,-23.58548 12.67378,-26.268685 19.58517,23.585485 z m -1.05318,-3.86537 -12.19728,-19.54031 7.89299,-21.763301 12.19726,19.540301 z m -30.17071,6.1135 -19.585172,-23.58548 12.673802,-26.268686 19.58515,23.585476 z m -1.0532,-3.86538 -12.19727,-19.54028 7.893,-21.763324 12.19726,19.540284 z M 88.154956,130.14002 68.569906,106.55454 81.24363,80.285855 100.82871,103.87134 Z M 87.10177,126.27465 74.904569,106.73434 82.797524,84.971039 94.994718,104.51134 Z M 56.931233,132.38815 37.346178,108.80267 50.0199,82.533984 69.604956,106.11946 Z M 55.878041,128.52277 43.680845,108.98249 51.573794,87.219166 63.770988,106.75945 Z M 149.18345,88.549615 129.5983,64.964144 142.27208,38.695465 161.85725,62.280932 Z m -1.05318,-3.865371 -12.19728,-19.540297 7.89299,-21.763303 12.19726,19.540294 z M 117.95956,90.797739 98.374388,67.212275 111.04819,40.943591 130.63334,64.529065 Z m -1.0532,-3.865365 -12.19727,-19.540294 7.893,-21.763307 12.19726,19.540295 z M 88.154956,88.549615 68.569906,64.964144 81.24363,38.695465 100.82871,62.280932 Z M 87.10177,84.684244 74.904569,65.143947 82.797524,43.380644 94.994718,62.920938 Z M 56.931233,90.797739 37.346178,67.212275 50.0199,40.943591 69.604956,64.529065 Z M 55.878041,86.932374 43.680845,67.39208 51.573794,45.628773 63.770988,65.169068 Z"
           clip-path="url(#clipPath2969)" />
        <path
           id="path877"
           style="fill:none;stroke:#000000;stroke-width:1.96208;stroke-linecap:round;stroke-linejoin:round;stroke-miterlimit:4;stroke-dasharray:none;stroke-opacity:0.955017;paint-order:stroke markers fill"
           d="M 34.125882,18.295062 H 163.00337 c 2.94238,0 5.31116,2.36878 5.31116,5.311167 v 4.471089 c 0,2.942386 -2.36878,5.311166 -5.31116,5.311166 H 34.125882 c -2.942386,0 -5.311166,-2.36878 -5.311166,-5.311166 v -4.471089 c 0,-2.942387 2.36878,-5.311167 5.311166,-5.311167 z M 167.01812,33.917647 c 1.21941,3.2019 2.43908,6.403528 3.65903,9.604902 1.21994,3.20138 -0.6101,88.731301 -0.91476,133.096551 M 28.814716,33.38848 c -1.219406,3.2019 -2.439077,6.403533 -3.659012,9.604899 -1.219935,3.20138 0.6101,88.731301 0.914753,133.096551 M 28.814716,33.38848 c 1.219935,2.64e-4 2.439605,2.64e-4 3.659011,0 1.219406,-2.65e-4 89.341133,2.64e-4 134.011303,0" />
        <path
           style="color:#000000;fill:#000000;stroke-width:1.96208;stroke-miterlimit:4;stroke-dasharray:none"
           d="m 26.779297,175.9082 -1.417969,0.36328 c 2.469894,9.6732 6.893501,18.83848 12.931641,26.78907 8.444254,11.11879 20.051422,19.79579 33.105468,24.74804 13.054047,4.95226 27.495165,6.15769 41.189453,3.4375 13.69429,-2.72019 26.57971,-9.35445 36.75,-18.91992 10.17029,-9.56546 17.57916,-22.01946 21.13281,-35.52148 l -1.41601,-0.3711 c -3.48247,13.23154 -10.75415,25.45234 -20.72071,34.82618 -9.96655,9.37384 -22.61129,15.88313 -36.03125,18.54882 -13.419947,2.6657 -27.592226,1.48391 -40.384761,-3.36914 -12.792535,-4.85304 -24.18194,-13.36957 -32.457032,-24.26562 -5.918592,-7.79318 -10.260646,-16.78395 -12.68164,-26.26563 z"
           id="path879"
           clip-path="url(#clipPath2979)" />
      </g>
      <rect
         style="fill:none;stroke:#000000;stroke-width:1.2;stroke-linecap:round;stroke-linejoin:round;stroke-miterlimit:4;stroke-dasharray:none;stroke-opacity:0.955017;paint-order:stroke markers fill"
         id="rect883"
         width="77.896301"
         height="148.35127"
         x="58.859253"
         y="100.91886"
         ry="13.086568" />
      <ellipse
         style="fill:none;stroke:#000000;stroke-width:1.2;stroke-linecap:round;stroke-linejoin:round;stroke-miterlimit:4;stroke-dasharray:none;stroke-opacity:0.955017;paint-order:stroke markers fill"
         id="ellipse885"
         cx="77.753998"
         cy="167.62846"
         rx="5.9111505"
         ry="45.931587" />
      <ellipse
         style="fill:none;stroke:#000000;stroke-width:1.2;stroke-linecap:round;stroke-linejoin:round;stroke-miterlimit:4;stroke-dasharray:none;stroke-opacity:0.955017;paint-order:stroke markers fill"
         id="ellipse887"
         cx="105.65395"
         cy="220.22676"
         rx="21.980291"
         ry="6.6581812" />
    </g>
    <path
       style="fill:#000000;stroke:#000000;stroke-width:11.75433086;stroke-linecap:round;stroke-linejoin:round;stroke-opacity:0.955017;paint-order:stroke markers fill;stroke-miterlimit:4;stroke-dasharray:none"
       d="m 629.50214,389.38222 c -6.09929,-11.65656 -9.69547,-58.90168 -7.20411,-94.64452 2.53004,-36.29788 7.72431,-54.5666 12.24478,-43.066 8.96585,22.81021 9.03708,113.30666 0.10702,135.98185 -2.18885,5.55793 -3.00128,5.83075 -5.14769,1.72867 z"
       id="path1061"
       transform="scale(0.26458333)" />
  </g>
</svg>
