<?xml version="1.0" encoding="UTF-8" standalone="no"?>
<svg
   width="210mm"
   height="297mm"
   viewBox="0 0 210 297"
   version="1.1"
   id="svg8"
   inkscape:version="1.1.2 (0a00cf5339, 2022-02-04, custom)"
   sodipodi:docname="table icon.svg"
   inkscape:export-filename="C:\Users\steven\Desktop\formating icons\table icon.png"
   inkscape:export-xdpi="96"
   inkscape:export-ydpi="96"
   xmlns:inkscape="http://www.inkscape.org/namespaces/inkscape"
   xmlns:sodipodi="http://sodipodi.sourceforge.net/DTD/sodipodi-0.dtd"
   xmlns="http://www.w3.org/2000/svg"
   xmlns:svg="http://www.w3.org/2000/svg"
   xmlns:rdf="http://www.w3.org/1999/02/22-rdf-syntax-ns#"
   xmlns:cc="http://creativecommons.org/ns#"
   xmlns:dc="http://purl.org/dc/elements/1.1/">
  <defs
     id="defs2">
    <inkscape:path-effect
       effect="spiro"
       id="path-effect1953"
       is_visible="true"
       lpeversion="1" />
    <inkscape:path-effect
       effect="spiro"
       id="path-effect1947"
       is_visible="true"
       lpeversion="1" />
    <inkscape:path-effect
       effect="spiro"
       id="path-effect1861"
       is_visible="true"
       lpeversion="1" />
    <inkscape:path-effect
       effect="spiro"
       id="path-effect1855"
       is_visible="true"
       lpeversion="1" />
  </defs>
  <sodipodi:namedview
     id="base"
     pagecolor="#ffffff"
     bordercolor="#666666"
     borderopacity="1.0"
     inkscape:pageopacity="0.0"
     inkscape:pageshadow="2"
     inkscape:zoom="1.5219183"
     inkscape:cx="218.14574"
     inkscape:cy="296.008"
     inkscape:document-units="mm"
     inkscape:current-layer="layer1"
     inkscape:document-rotation="0"
     showgrid="false"
     inkscape:window-width="1680"
     inkscape:window-height="956"
     inkscape:window-x="-11"
     inkscape:window-y="-11"
     inkscape:window-maximized="1"
     inkscape:pagecheckerboard="0" />
  <metadata
     id="metadata5">
    <rdf:RDF>
      <cc:Work
         rdf:about="">
        <dc:format>image/svg+xml</dc:format>
        <dc:type
           rdf:resource="http://purl.org/dc/dcmitype/StillImage" />
      </cc:Work>
    </rdf:RDF>
  </metadata>
  <g
     inkscape:label="Layer 1"
     inkscape:groupmode="layer"
     id="layer1">
    <path
       id="path2591"
       style="display:inline;fill:none;fill-rule:evenodd;stroke:#000000;stroke-width:0.61288;stroke-linecap:round;stroke-linejoin:round;paint-order:stroke markers fill"
       d="m 76.622065,70.42704 a 1.1431162,1.3732731 0 0 1 -1.143114,1.373273 1.1431162,1.3732731 0 0 1 -1.143115,-1.373273 1.1431162,1.3732731 0 0 1 1.143115,-1.373273 1.1431162,1.3732731 0 0 1 1.143114,1.373273 z m 6.513218,7.553001 a 4.6080283,4.4668838 0 0 1 -4.608027,4.466877 4.6080283,4.4668838 0 0 1 -4.608026,-4.466877 4.6080283,4.4668838 0 0 1 4.608026,-4.466888 4.6080283,4.4668838 0 0 1 4.608027,4.466888 z m -1.63336,0.24637 a 2.9195766,3.055088 0 0 1 -2.919578,3.055094 2.9195766,3.055088 0 0 1 -2.919578,-3.055094 2.9195766,3.055088 0 0 1 2.919578,-3.055084 2.9195766,3.055088 0 0 1 2.919578,3.055084 z m -6.24945,-18.603557 h 1.742979 v 5.207966 h -1.742979 z m 4.613782,3.812976 a 3.4347022,3.8129744 0 0 1 -3.434702,3.812972 3.4347022,3.8129744 0 0 1 -3.434701,-3.812972 3.4347022,3.8129744 0 0 1 3.434701,-3.812976 3.4347022,3.8129744 0 0 1 3.434702,3.812976 z M 71.330367,50.766383 h 10.156709 v 5.488845 H 71.330367 Z m -51.483062,7.613305 a 1.3971419,1.5605376 0 0 1 -1.397142,1.560539 1.3971419,1.5605376 0 0 1 -1.397142,-1.560539 1.3971419,1.5605376 0 0 1 1.397142,-1.560535 1.3971419,1.5605376 0 0 1 1.397142,1.560535 z m 1.934959,5.814025 0.790023,1.641013 -4.125547,1.91886 -0.790023,-1.641013 z m -0.98742,6.103058 a 3.8719346,3.5316052 60.499102 0 1 -4.882681,-1.996979 3.8719346,3.5316052 60.499102 0 1 1.525076,-4.977337 3.8719346,3.5316052 60.499102 0 1 4.882684,1.996983 3.8719346,3.5316052 60.499102 0 1 -1.525079,4.977333 z m -5.277156,8.535189 0.51122,-1.744542 4.385822,1.241679 -0.51122,1.744541 z m 4.846263,-3.936827 a 3.5389535,3.8638949 19.072508 0 1 2.319668,4.671434 3.5389535,3.8638949 19.072508 0 1 -4.492351,2.742876 3.5389535,3.8638949 19.072508 0 1 -2.319667,-4.671439 3.5389535,3.8638949 19.072508 0 1 4.49235,-2.742871 z M 21.006715,7.9662963 h 61.778424 c 7.719978,0 13.934965,6.2287957 13.934965,13.9659087 v 58.051076 c 0,7.737113 -6.214987,13.965903 -13.934965,13.965903 H 21.006715 c -7.719975,0 -13.9349724,-6.22879 -13.9349724,-13.965903 V 21.932205 c 0,-7.737113 6.2149974,-13.9659087 13.9349724,-13.9659087 z m 3.527392,7.7523887 h 54.895517 c 6.749212,0 12.182695,5.445553 12.182695,12.209746 v 50.751347 c 0,6.764198 -5.433483,12.209737 -12.182695,12.209737 H 24.534107 c -6.749213,0 -12.182696,-5.445539 -12.182696,-12.209737 V 27.928431 c 0,-6.764193 5.433483,-12.209746 12.182696,-12.209746 z m 54.965146,5.002482 h 5.316018 v 1.973177 h -5.316018 z m -3.821941,12.026305 h 6.528447 v 1.789629 h -6.528447 z m 4.922452,-4.454797 h 5.222757 v 3.212155 h -5.222757 z m -0.373058,-4.68057 h 5.222762 v 3.212156 h -5.222762 z m -7.162639,4.68057 h 5.222757 v 3.212155 h -5.222757 z m -0.373053,-4.68057 h 5.222757 v 3.212156 H 72.691014 Z M 62.565786,20.721167 h 5.316018 v 1.973177 h -5.316018 z m -3.82194,12.026305 h 6.528446 v 1.789629 h -6.528446 z m 4.922451,-4.454797 h 5.222757 v 3.212155 h -5.222757 z m -0.373057,-4.68057 h 5.222762 v 3.212156 H 63.29324 Z m -7.162639,4.68057 h 5.222757 v 3.212155 h -5.222757 z m -0.373053,-4.68057 h 5.222757 v 3.212156 H 55.757548 Z M 45.119185,20.721167 h 5.316018 v 1.973177 h -5.316018 z m -3.821941,12.026305 h 6.528447 v 1.789629 h -6.528447 z m 4.922451,-4.454797 h 5.222758 v 3.212155 h -5.222758 z m -0.373057,-4.68057 H 51.0694 v 3.212156 h -5.222762 z m -7.162622,4.68057 h 5.22274 v 3.212155 h -5.22274 z m -0.373051,-4.68057 h 5.222738 v 3.212156 h -5.222738 z m -11.66457,-2.890938 h 5.31599 v 1.973177 h -5.31599 z m -3.821918,12.026305 h 6.528409 v 1.789629 h -6.528409 z m 4.922422,-4.454797 h 5.22273 v 3.212155 h -5.22273 z m -0.373052,-4.68057 h 5.22273 v 3.212156 h -5.22273 z m -7.162598,4.68057 h 5.222726 v 3.212155 h -5.222726 z m -0.373052,-4.68057 h 5.222727 v 3.212156 h -5.222727 z m 33.683672,16.303128 -0.410037,0.08899 c 0.580481,2.939753 2.219984,5.630553 4.524628,7.42468 1.829884,1.424535 4.05827,2.279339 6.336184,2.430399 l 0.02652,-0.437036 c -2.195218,-0.145577 -4.348303,-0.971556 -6.111753,-2.344377 -2.219785,-1.728067 -3.80643,-4.331143 -4.365539,-7.16266 z M 37.169573,39.385254 c -0.559106,2.831512 -2.145752,5.434588 -4.365538,7.16266 -1.76345,1.372816 -3.916534,2.1988 -6.111751,2.344377 l 0.02746,0.437036 c 2.277913,-0.15106 4.505354,-1.005864 6.335237,-2.430399 2.304643,-1.794132 3.945097,-4.485919 4.525575,-7.425672 z m 26.929966,31.96104 c -2.277914,0.15106 -4.505355,1.005865 -6.335239,2.430399 -2.304639,1.794133 -3.945097,4.485919 -4.525573,7.425672 l 0.410037,0.088 c 0.559104,-2.831512 2.145754,-5.434588 4.365539,-7.16266 1.76345,-1.372821 3.916535,-2.198799 6.111752,-2.344377 z m -37.379793,-0.264992 -0.02746,0.437041 c 2.195217,0.145573 4.348301,0.971556 6.111751,2.344372 2.219786,1.728072 3.806432,4.331148 4.365538,7.16266 l 0.410985,-0.08899 C 37.00008,77.996633 35.359626,75.305834 33.054983,73.511706 31.2251,72.087167 28.997659,71.232362 26.719746,71.081302 Z M 26.431589,39.805129 H 63.768431 V 81.044567 H 26.431589 Z" />
  </g>
  <g
     inkscape:groupmode="layer"
     id="layer2"
     inkscape:label="Layer 2" />
</svg>
