<?xml version="1.0" encoding="UTF-8" standalone="no"?>
<!-- Created with Inkscape (http://www.inkscape.org/) -->

<svg
   width="210mm"
   height="297mm"
   viewBox="0 0 210 297"
   version="1.1"
   id="svg5"
   inkscape:version="1.1.1 (3bf5ae0d25, 2021-09-20)"
   sodipodi:docname="dynamic  mic track icon svg.svg"
   xmlns:inkscape="http://www.inkscape.org/namespaces/inkscape"
   xmlns:sodipodi="http://sodipodi.sourceforge.net/DTD/sodipodi-0.dtd"
   xmlns="http://www.w3.org/2000/svg"
   xmlns:svg="http://www.w3.org/2000/svg">
  <sodipodi:namedview
     id="namedview7"
     pagecolor="#ffffff"
     bordercolor="#666666"
     borderopacity="1.0"
     inkscape:pageshadow="2"
     inkscape:pageopacity="0.0"
     inkscape:pagecheckerboard="0"
     inkscape:document-units="mm"
     showgrid="false"
     inkscape:zoom="0.96459612"
     inkscape:cx="312.0477"
     inkscape:cy="895.19332"
     inkscape:window-width="1680"
     inkscape:window-height="956"
     inkscape:window-x="-11"
     inkscape:window-y="-11"
     inkscape:window-maximized="1"
     inkscape:current-layer="layer1"
     showguides="false"
     inkscape:guide-bbox="true" />
  <defs
     id="defs2">
    <inkscape:path-effect
       effect="spiro"
       id="path-effect1669"
       is_visible="true"
       lpeversion="1" />
    <inkscape:path-effect
       effect="spiro"
       id="path-effect1663"
       is_visible="true"
       lpeversion="1" />
    <inkscape:path-effect
       effect="spiro"
       id="path-effect1544"
       is_visible="true"
       lpeversion="1" />
    <inkscape:path-effect
       effect="spiro"
       id="path-effect2054"
       is_visible="true"
       lpeversion="1" />
    <inkscape:path-effect
       effect="spiro"
       id="path-effect1881"
       is_visible="true"
       lpeversion="1" />
    <inkscape:path-effect
       effect="spiro"
       id="path-effect1875"
       is_visible="true"
       lpeversion="1" />
    <inkscape:path-effect
       effect="spiro"
       id="path-effect1360"
       is_visible="true"
       lpeversion="1" />
    <inkscape:path-effect
       effect="spiro"
       id="path-effect1157"
       is_visible="true"
       lpeversion="1" />
    <inkscape:path-effect
       effect="spiro"
       id="path-effect2785"
       is_visible="true"
       lpeversion="1" />
    <inkscape:path-effect
       effect="spiro"
       id="path-effect2650"
       is_visible="true"
       lpeversion="1" />
    <inkscape:path-effect
       effect="spiro"
       id="path-effect2453"
       is_visible="true"
       lpeversion="1" />
    <inkscape:path-effect
       effect="rough_hatches"
       id="path-effect2461"
       is_visible="true"
       lpeversion="1"
       direction="69.99843,260.92094 , 8.1437712,0"
       dist_rdm="6;1"
       growth="0"
       do_bend="true"
       bender="69.99843,265.92094 , 5,0"
       bottom_edge_variation="1.4602372;1"
       top_edge_variation="1.4602372;1"
       bottom_tgt_variation="0;1"
       top_tgt_variation="0;1"
       scale_bf="1"
       scale_bb="1"
       scale_tf="1"
       scale_tb="1"
       top_smth_variation="0;1"
       bottom_smth_variation="0;1"
       fat_output="true"
       stroke_width_top="1"
       stroke_width_bottom="1"
       front_thickness="1"
       back_thickness="0.25" />
    <inkscape:path-effect
       effect="skeletal"
       id="path-effect1945"
       is_visible="true"
       lpeversion="1"
       pattern="m 33.860958,87.614548 h 14.800324 c 5.651367,0 10.201025,4.549657 10.201025,10.201025 v 12.157417 c 0,5.65137 -4.549658,10.20103 -10.201025,10.20103 H 33.860958 c -5.651368,0 -10.201025,-4.54966 -10.201025,-10.20103 V 97.815573 c 0,-5.651368 4.549657,-10.201025 10.201025,-10.201025 z"
       copytype="repeated"
       prop_scale="1.28"
       scale_y_rel="false"
       spacing="2.6"
       normal_offset="0"
       tang_offset="0"
       prop_units="false"
       vertical_pattern="false"
       hide_knot="false"
       fuse_tolerance="0" />
    <inkscape:path-effect
       effect="skeletal"
       id="path-effect1762"
       is_visible="true"
       lpeversion="1"
       pattern="#rect1629"
       copytype="repeated"
       prop_scale="1"
       scale_y_rel="false"
       spacing="0"
       normal_offset="0"
       tang_offset="0"
       prop_units="false"
       vertical_pattern="false"
       hide_knot="false"
       fuse_tolerance="0" />
    <clipPath
       clipPathUnits="userSpaceOnUse"
       id="clipPath2716">
      <path
         id="path2718"
         style="fill:none;stroke:#000000;stroke-width:1.265;stroke-linecap:round;stroke-linejoin:round;stroke-miterlimit:4;stroke-dasharray:none;stroke-opacity:0.955017;paint-order:stroke markers fill"
         d="m 171.94247,92.538537 v 93.056333 h 63.42766 V 92.538537 Z m 1.8154,27.651543 c 0.3048,-5e-5 0.6134,0.29795 0.6134,0.894 v 0.49764 c 0.025,0.0197 0.0443,0.0352 0.0754,0.0594 -0.0191,-0.0239 -0.0814,-0.0908 -0.0574,-0.0718 0.35281,0.27864 0.45167,0.3023 0.52917,0.75809 -0.006,0.11727 -0.0131,0.23413 -0.0191,0.3514 0.0277,-0.0604 0.0147,-0.0598 0.0388,0.004 0.0859,0.28692 0.0325,0.58407 0.0305,0.87695 0.003,0.22514 0.004,0.45027 0.004,0.67541 0.0766,-0.0457 0.15873,-0.0718 0.24184,-0.0718 0.0408,0 0.0814,0.006 0.12144,0.0171 v -0.80874 c 0,-0.59503 0.29995,-0.89298 0.60048,-0.894 v 5.3e-4 h 5.3e-4 c 0.3009,2.6e-4 0.60152,0.29828 0.60152,0.894 v 1.39216 1.12448 1.37821 c 0.0567,-0.29605 0.0576,-0.26053 0.0594,-0.21394 0.0186,-0.0582 0.041,-0.11104 0.0667,-0.15864 0.001,-0.006 0.001,-0.003 0.003,-0.009 0.0294,-0.12516 0.0424,-0.25354 0.0636,-0.38034 h -0.001 c 0.0892,-0.53274 0.33706,-0.77868 0.58291,-0.77773 0.29672,0.001 0.59045,0.36198 0.59789,1.01389 10e-4,0.10111 -0.0177,0.19737 -0.0429,0.29249 0.0713,0.14079 0.11576,0.32478 0.11576,0.55294 v 1.45262 c -0.0237,0.34855 -0.13495,0.66485 -0.24081,0.99116 v 0.45165 c 0,1.11188 -1.04705,1.18648 -1.18805,0.22428 -0.17076,-0.083 -0.31469,-0.26974 -0.36483,-0.56276 -0.34057,0.21245 -0.80769,-0.0317 -0.84698,-0.72709 -0.3623,0.30307 -1.02482,0.0418 -0.98857,-0.77876 0.002,-0.0559 0.005,-0.11205 0.007,-0.16795 0.008,-0.0387 0.0168,-0.0888 0.0279,-0.14418 -0.0137,-0.0477 -0.007,-0.0903 0.0279,-0.12299 -0.0107,0.0426 -0.02,0.084 -0.0279,0.12299 0.058,0.2023 0.4812,0.50379 0.71107,0.6072 0.0308,0.0139 0.13028,-0.0514 0.23461,-0.12867 v -0.31006 c -0.18047,-0.0918 -0.36886,-0.31369 -0.56844,-0.43305 -0.0831,0.0184 -0.1765,0.0511 -0.28112,0.10025 -0.0171,0.17295 0.005,0.35404 -0.0217,0.0104 -0.001,5.3e-4 -0.002,0.001 -0.004,0.002 -0.0171,0.008 -0.0306,0.018 -0.0418,0.0284 0.0123,-0.0488 0.0268,-0.0984 0.0444,-0.14676 0.002,-0.21005 -0.002,-0.25354 0.045,-0.51004 0.0173,-0.0934 0.0465,-0.18435 0.0718,-0.27596 -0.25462,-0.34269 -0.61231,-1.84643 -0.71934,-0.96583 -0.0243,0.20019 0.0306,0.4274 -0.0729,0.60048 -0.085,0.14224 -0.11324,-0.42935 -0.11524,-0.45475 -0.0403,-0.14283 -0.12568,-0.4406 -0.14418,-0.54312 -0.0332,-0.18404 0.0284,-0.38509 0,-0.56999 v -1.36219 c 0,-0.35008 0.10499,-0.59453 0.25167,-0.73898 0.004,-0.0736 0.006,-0.14676 0.002,-0.21859 -0.0536,-0.20233 -0.0729,-0.23854 -0.0739,-0.45268 -0.0249,-0.0116 -0.0499,-0.023 -0.0744,-0.0351 0.19801,0.0499 -0.13475,-0.0277 -0.27388,-0.21032 -0.28065,-0.36836 -0.18164,-0.81235 -0.19224,-1.23456 -0.015,-0.59586 0.28637,-0.89395 0.59118,-0.894 z m 0.0165,2.40502 c 0.015,0.0194 0.0307,0.0377 0.0512,0.0506 0.0497,0.0315 0.21618,0.091 0.16588,0.0605 -0.0695,-0.0421 -0.1431,-0.0771 -0.21704,-0.1111 z m 53.54919,0.44545 v 5.3e-4 5.3e-4 c 0.23913,-0.006 0.5121,0.17404 0.69195,0.60358 0.1061,0.2534 0.23772,0.49751 0.31832,0.76016 0.18101,0.5901 0.28893,1.11131 0.38138,1.65261 0.24153,0.0852 0.44751,0.37362 0.44751,0.86662 v 0.46509 c 0.17404,-0.30525 0.39801,-0.45168 0.60255,-0.47388 v -0.29197 c 0,-0.59605 0.30098,-0.894 0.60203,-0.894 0.009,0 0.0182,0.003 0.0274,0.004 0.0552,-0.27863 0.19067,-0.45921 0.35037,-0.5457 0.0671,-0.44178 0.32578,-0.66301 0.58497,-0.66301 0.30106,0 0.60255,0.29795 0.60255,0.89401 v 1.11414 c 0.11682,0.15512 0.16028,0.59889 0.15038,0.78238 -0.004,0.0691 -0.0217,0.13686 -0.0326,0.20516 -0.004,0.0114 -0.008,0.0228 -0.0114,0.0341 0.001,-7.9e-4 0.002,2.7e-4 0.003,0.002 0.032,0.078 0.0116,0.6811 0.0124,0.78497 0.002,0.27842 -0.004,0.55718 -0.002,0.8356 7e-5,0.0121 5.3e-4,0.0241 5.3e-4,0.0362 0.003,0.52925 -0.23205,0.82453 -0.49557,0.88573 -0.0679,0.5869 -0.4593,0.81442 -0.7767,0.67489 -0.25025,0.32889 -0.68475,0.29165 -0.89452,-0.11058 -0.1006,0.21278 -0.25198,0.33849 -0.41083,0.38189 -7.9e-4,0.0313 -0.0709,0.055 -0.25114,0.0667 -0.0304,0.002 -0.061,0.005 -0.0915,0.008 -5e-5,0.005 6e-5,0.007 0,0.0114 -0.0174,0.24271 -0.0309,0.48566 -0.0517,0.72812 0.15541,0.0128 0.21709,0.11304 0.0791,0.38292 -0.2783,0.54229 -0.24936,0.81681 -1.19941,0.3545 -0.12467,-0.0607 -0.13935,-0.2551 -0.12609,-0.44183 0.066,0.0686 0.61391,-0.18556 1.0051,-0.26975 -0.55671,-0.31293 -0.56029,-0.2466 -0.83664,0.0248 -0.0907,0.0891 -0.14314,0.15008 -0.16433,0.19069 0.012,-0.12284 0.0331,-0.23627 0.0388,-0.29818 0.0174,-0.19098 0.0294,-0.38233 0.0429,-0.5736 -0.0367,0.001 -0.10147,0.001 -0.20877,-0.003 -0.003,0.1686 -0.0477,0.0956 -0.3638,0.002 -0.85874,0.0368 -0.83887,0.29404 -0.8413,-0.14831 v -5.3e-4 c -5e-5,-0.007 8e-5,-0.0133 0,-0.0212 0.007,-0.21925 0.003,-0.13215 0.0181,-0.37723 0.005,-0.073 0.007,-0.14621 0.0139,-0.21911 0.002,-0.0229 0.003,-0.0466 0.0119,-0.0677 0.002,-0.005 0.016,0.009 0.015,0.004 -0.007,-0.0311 -0.0227,-0.0596 -0.0341,-0.0894 -0.0849,-0.226 -0.15951,-0.44774 -0.21911,-0.68575 -0.007,-0.0267 0.018,0.0532 0.0336,0.0754 0.009,0.0126 -0.008,-0.0292 -0.0124,-0.0439 -0.37529,-0.72619 -0.43411,-1.56411 -0.42168,-2.36988 0.009,-0.59599 0.31001,-0.89399 0.60875,-0.894 0.29874,-2e-5 0.59532,0.29795 0.59532,0.894 0,0.0307 1e-4,0.0252 0,0.0522 0.10496,-0.10814 0.23296,-0.16279 0.36122,-0.16279 0.0688,0 0.1374,0.0165 0.20257,0.0476 -0.11477,-0.77567 -0.23289,-1.60322 -0.45734,-2.35438 -0.0708,-0.23676 -0.1891,-0.45643 -0.2837,-0.68471 -0.2781,-0.6711 0.0119,-1.13272 0.38499,-1.14205 z m -50.78501,6.28696 c 0,0.14578 -0.0185,0.27328 -0.0501,0.38343 0.0202,0.005 0.031,0.007 0.0501,0.0119 v -0.0424 z m 51.39892,1.09915 c -0.0562,0.0948 -0.12572,0.16613 -0.20205,0.21498 -0.009,0.15264 -0.0206,0.30569 -0.0253,0.4563 5.3e-4,0.0353 0.001,0.0652 0.002,0.0909 0.0962,0.0104 0.16913,0.0193 0.2098,0.0264 0.002,-0.0329 0.005,-0.0658 0.007,-0.0987 0.004,-0.28401 0.005,-0.47104 0.009,-0.68988 z m -0.0987,1.67483 c -0.002,0.0177 -0.003,0.0353 -0.004,0.0532 -0.01,-0.0101 -0.009,-0.0275 0.004,-0.0532 z m 1.08262,13.01626 h 5.3e-4 c 0.21847,0 0.43559,0.159 0.53899,0.47284 0.0928,-0.0738 0.19841,-0.11162 0.30437,-0.11162 0.30106,0 0.60203,0.29796 0.60203,0.894 v 0.37776 c 0.0762,-0.0446 0.15842,-0.0677 0.24081,-0.0677 0.25155,0 0.50079,0.21078 0.57671,0.62684 0.0478,-0.0159 0.0967,-0.0248 0.14573,-0.0248 0.30106,0 0.60203,0.29794 0.60203,0.894 v 1.57303 c 0.0157,0.12506 -0.0213,0.26017 -0.002,0.38447 0.001,0.001 0.002,0.002 0.003,0.004 5.3e-4,-0.0211 10e-4,-0.0686 0.0165,-0.0615 0.0166,0.007 0.0473,0.0964 0.0729,0.17828 0.21492,0.32555 0.17921,0.67555 0.14366,1.06402 -0.001,0.26308 0.009,0.52596 0.008,0.78909 -0.002,0.31037 -0.002,0.62083 -0.001,0.93121 1.4e-4,0.17229 -5.3e-4,0.34498 -5.3e-4,0.51729 4e-5,0.15635 5.3e-4,0.31234 5.3e-4,0.4687 -5e-5,1.19211 -1.2044,1.19212 -1.20458,0 v -0.17467 c -0.13995,0.14334 -0.10051,0.033 0,-0.21445 v -0.0796 -0.12868 c -0.19323,0.20208 -0.46501,0.22038 -0.67179,0.0517 -0.0626,0.006 -0.12279,0.0116 -0.1757,0.0124 -0.008,0.0333 -0.0161,0.0691 -0.0243,0.10542 0.0843,0.0908 0.17785,0.17577 0.23151,0.28576 0.0486,0.0995 -0.16348,-0.1488 -0.24546,-0.22324 0.005,-0.022 0.009,-0.0415 0.0134,-0.0625 -0.0331,-0.0357 -0.0647,-0.0722 -0.092,-0.11163 -0.12086,-0.0178 -0.1689,-0.0773 -0.077,-0.216 -0.003,-0.0378 -0.002,-0.0762 -5.3e-4,-0.11421 -0.12402,0.0924 -0.26899,0.12063 -0.40617,0.0827 v 0.34985 c 0,1.19211 -1.20406,1.19211 -1.20406,0 v -0.41134 c -0.12021,-0.0281 -0.23409,-0.10348 -0.32195,-0.22635 -0.22015,-0.10482 -0.40049,-0.38283 -0.40049,-0.84284 v -0.0811 -0.88057 -0.12247 c -0.0589,-0.17822 -0.10784,-0.35978 -0.13281,-0.54932 0.0163,-0.15638 0.0122,-0.20264 0.0543,-0.34261 0.007,-0.0225 0.0144,0.0459 0.03,0.0636 0.007,0.007 0.008,-0.0184 0.0124,-0.0274 -0.0194,-0.0469 -0.0395,-0.0937 -0.0589,-0.14056 -0.15553,-0.26576 -0.19167,-0.28798 -0.26407,-0.63045 -0.0135,-0.0638 0,-0.13066 0,-0.19586 V 148.3 h -5.2e-4 c 0,-0.42015 0.15862,-0.69129 0.3607,-0.81494 v -1.41231 c 0,-0.59604 0.30096,-0.89401 0.60203,-0.89401 0.1172,0 0.23439,0.0456 0.33383,0.13591 0.1097,-0.1289 0.2486,-0.19585 0.3886,-0.19585 z m -51.42166,1.20303 h 5.3e-4 5.2e-4 l 5.3e-4,5.3e-4 v 5.3e-4 h 5.3e-4 5.3e-4 c 0.25897,2.6e-4 0.51689,0.22218 0.58395,0.66353 0.10806,-0.12084 0.24322,-0.1819 0.37878,-0.1819 0.0779,0 0.1557,0.0206 0.22841,0.0605 0.004,-1e-4 0.008,-5.3e-4 0.0119,-5.3e-4 0.30103,0 0.60255,0.29846 0.60255,0.89452 v 1.38441 c 0,0.16557 -0.0197,0.33273 0,0.49713 0.0154,0.12848 0.0696,0.24899 0.10438,0.37362 0.0464,0.0885 0.094,0.17641 0.13901,0.26561 0.11147,0.22077 0.25827,0.51673 0.34159,0.74879 0.0666,0.18558 0.13183,0.64856 0.13384,0.4377 0.15825,0.28567 0.17203,0.6006 0.14934,0.91829 -0.008,0.11723 -0.0348,0.23223 -0.0351,0.34985 0.0163,0.31146 0.014,0.6236 0.0104,0.93535 -0.0149,1.19208 -1.21966,1.17721 -1.20406,-0.015 0.004,-0.30295 0.001,-0.60616 -0.008,-0.90899 -0.30267,0.0992 -0.55627,-1.91869 -0.83458,-0.93844 -2.6e-4,0.001 2e-5,0.001 -5.3e-4,0.002 v 1.38131 1.12758 c 0,0.32519 -0.0905,0.55929 -0.22066,0.70693 -3e-5,0.0104 5.3e-4,0.0188 5.3e-4,0.0295 0.22492,-0.0232 0.29567,-0.0269 0,0.002 -1e-4,0.0122 2e-4,0.0233 0,0.0362 -5.3e-4,0.0583 0.0471,0.16566 -0.0108,0.17466 -0.39678,0.0588 -0.80241,0.004 -1.20355,0.006 -0.38895,0.002 -0.26841,-0.0332 0.0248,-0.077 -0.051,-0.0604 -0.009,-0.23636 -0.0372,-0.62942 -0.007,-0.0622 -0.014,-0.11544 -0.0212,-0.17364 -0.0982,-0.41871 -0.17525,-0.88901 -0.3979,-0.56224 0.097,0.21276 0.10499,0.35451 0.10025,0.65785 0.0334,0.0894 -0.0812,0.19213 -0.0589,0.28783 0.22797,0.97981 -0.87041,1.08436 -1.14412,0.38189 -0.31692,-0.015 -0.83571,-1.66454 -0.9555,-0.70125 -0.007,0.0543 -0.0247,0.10819 -0.0207,0.16278 2.2e-4,0.003 0.001,0.006 0.002,0.009 0.0145,0.032 0.0273,0.0641 0.0403,0.0966 0.004,0.0102 0.002,0.0436 -5.3e-4,0.0331 -0.0138,-0.0431 -0.0347,-0.085 -0.0403,-0.1297 -0.0537,-0.11873 -0.11361,-0.23501 -0.15244,-0.35916 -0.016,-0.0511 7.9e-4,-0.10721 0.001,-0.16071 0.002,-0.41579 -0.009,-0.83116 -0.008,-1.24695 0.0195,-0.5605 0.0847,-1.12031 -0.0418,-1.67535 h 5.3e-4 c -0.10073,-0.44212 0.007,-0.74923 0.1943,-0.8971 -0.0337,-0.0525 -0.0617,-0.0948 -0.11007,-0.17415 -0.0441,-0.0724 -0.0626,-0.15842 -0.0827,-0.24082 -0.0892,-0.36566 -0.0839,-0.72048 -0.0739,-1.09399 h 5.3e-4 c 0.0155,-0.59586 0.29116,-0.89293 0.57567,-0.89245 0.13904,2.4e-4 0.27989,0.0723 0.39378,0.21446 0.0356,-0.2545 0.1861,-0.4201 0.37672,-0.46664 0.0375,-0.0148 0.0775,-0.024 0.1204,-0.0248 0.1841,-0.003 0.41338,0.12813 0.64493,0.44338 1.8e-4,2.3e-4 0.63781,0.864 0.66611,0.91881 0.0918,0.17751 0.16737,0.36318 0.23254,0.55242 v -0.42116 -1.88929 c 0,-0.59572 0.30061,-0.89366 0.60151,-0.894 z m -2.40606,2.76624 c -0.008,0.17824 -0.0165,0.35526 0.046,0.52658 0.0112,0.0307 0.008,0.0775 0.0382,0.0904 0.0215,0.009 0.007,-0.0461 0.0103,-0.0692 0.0307,0.0441 0.0613,0.0882 0.092,0.13229 -0.0553,-0.22866 -0.11301,-0.45655 -0.18655,-0.68006 z m 0.72451,3.78013 c 2e-5,0.003 -3e-5,0.006 0,0.009 -1.3e-4,0.0127 1.2e-4,0.0255 0,0.0382 0.0125,0.0163 0.0255,0.0341 0.0372,0.0486 -0.0112,-0.0327 -0.0228,-0.065 -0.0372,-0.0956 z m 0.25734,0.59118 c 8e-5,2.7e-4 5.3e-4,7.9e-4 5.3e-4,0.001 -1e-5,-2.7e-4 -3e-5,-5.3e-4 0,-0.001 z m 5.3e-4,0.002 c -0.002,0.0208 -0.004,0.0421 -0.008,0.0667 0.01,-0.002 0.0178,-0.001 0.0248,0.008 -0.006,-0.0255 -0.0112,-0.0496 -0.017,-0.0744 z" />
    </clipPath>
  </defs>
  <g
     inkscape:label="Layer 1"
     inkscape:groupmode="layer"
     id="layer1">
    <g
       id="g1779"
       transform="matrix(0.41268051,0,0,0.45404069,69.846816,10.324076)" />
    <path
       id="rect2174"
       style="fill:none;stroke:#000000;stroke-width:1.112;stroke-linecap:round;stroke-linejoin:round;stroke-opacity:0.955017;paint-order:stroke markers fill;stroke-miterlimit:4;stroke-dasharray:none"
       d="m 24.971104,55.01598 h 15.52967 c 1.40633,0 2.53851,0.681317 2.53851,1.527618 0,0.846294 -1.13218,1.527612 -2.53851,1.527612 h -15.52967 c -1.40633,0 -2.5385,-0.681318 -2.5385,-1.527612 0,-0.846301 1.13217,-1.527618 2.5385,-1.527618 z m -4.33038,32.708857 c 1.98541,0 3.58377,0.96186 3.58377,2.15663 v 11.142583 c 0,1.19476 -1.59836,2.15662 -3.58377,2.15662 -1.98541,0 -3.58377,-0.96186 -3.58377,-2.15662 V 89.881467 c 0,-1.19477 1.59836,-2.15663 3.58377,-2.15663 z m -5.07701,-23.183746 h 33.74717 c 2.48176,0 4.47971,1.202319 4.47971,2.695784 v 7.907631 c 0,1.493465 -1.99795,2.695781 -4.47971,2.695781 h -33.74717 c -2.48175,0 -4.47971,-1.202316 -4.47971,-2.695781 v -7.907631 c 0,-1.493465 1.99796,-2.695784 4.47971,-2.695784 z m 2.98649,-17.792178 h 28.07283 c 3.97082,0 7.16756,1.923716 7.16756,4.313263 v 53.915674 c 0,2.38954 -3.19674,4.31327 -7.16756,4.31327 h -28.07283 c -3.97082,0 -7.16755,-1.92373 -7.16755,-4.31327 V 51.062176 c 0,-2.389547 3.19673,-4.313263 7.16755,-4.313263 z m 13.4021,-35.814222 c 0,0.473815 -1.36447,0.855262 -3.05933,0.855262 -1.69485,0 -3.05931,-0.381447 -3.05931,-0.855262 0,-0.473816 1.36446,-0.855261 3.05931,-0.855261 1.69486,0 3.05933,0.381445 3.05933,0.855261 z m -8.12303,0.331067 c 0,0.534954 -1.36447,0.965618 -3.05932,0.965618 -1.69486,0 -3.05932,-0.430664 -3.05932,-0.965618 0,-0.534951 1.36446,-0.965616 3.05932,-0.965616 1.69485,0 3.05932,0.430665 3.05932,0.965616 z m 24.05258,-1.048384 c 0,0.473815 -1.36446,0.855262 -3.05931,0.855262 -1.69487,0 -3.05932,-0.381447 -3.05932,-0.855262 0,-0.4738148 1.36445,-0.8552618 3.05932,-0.8552618 1.69485,0 3.05931,0.381447 3.05931,0.8552618 z m -8.12301,0.331068 c 0,0.534953 -1.36446,0.965617 -3.05933,0.965617 -1.69486,0 -3.05932,-0.430664 -3.05932,-0.965617 0,-0.534953 1.36446,-0.9656188 3.05932,-0.9656188 1.69487,0 3.05933,0.4306658 3.05933,0.9656188 z m 15.92391,15.640146 -0.12325,8.323171 m -44.41134,-8.323171 -0.123261,8.323171 m 20.731641,7.384728 c 0,0.663107 -1.41955,1.196943 -3.18287,1.196943 -1.76329,0 -3.18286,-0.533836 -3.18286,-1.196943 0,-0.663107 1.41957,-1.196941 3.18286,-1.196941 1.76332,0 3.18287,0.533834 3.18287,1.196941 z m -8.45104,0.463333 c 0,0.748666 -1.41954,1.351382 -3.18286,1.351382 -1.76329,0 -3.18286,-0.602716 -3.18286,-1.351382 0,-0.748671 1.41957,-1.351388 3.18286,-1.351388 1.76332,0 3.18286,0.602717 3.18286,1.351388 z m 25.02385,-1.467221 c 0,0.663107 -1.41955,1.196944 -3.18286,1.196944 -1.76329,0 -3.18286,-0.533837 -3.18286,-1.196944 0,-0.663107 1.41957,-1.196942 3.18286,-1.196942 1.76331,0 3.18286,0.533835 3.18286,1.196942 z m -8.45103,0.463331 c 0,0.748669 -1.41956,1.351389 -3.18287,1.351389 -1.76328,0 -3.18285,-0.60272 -3.18285,-1.351389 0,-0.748667 1.41957,-1.351387 3.18285,-1.351387 1.76331,0 3.18287,0.60272 3.18287,1.351387 z m -9.06932,-6.830902 c 0,0.663105 -1.41956,1.196945 -3.18287,1.196945 -1.76329,0 -3.18285,-0.53384 -3.18285,-1.196945 0,-0.663108 1.41956,-1.196942 3.18285,-1.196942 1.76331,0 3.18287,0.533834 3.18287,1.196942 z m -8.45104,0.463331 c 0,0.748671 -1.41955,1.351388 -3.18286,1.351388 -1.76331,0 -3.18286,-0.602717 -3.18286,-1.351388 0,-0.748668 1.41955,-1.351385 3.18286,-1.351385 1.76331,0 3.18286,0.602717 3.18286,1.351385 z m 25.02385,-1.46722 c 0,0.663109 -1.41956,1.196944 -3.18285,1.196944 -1.76331,0 -3.18286,-0.533835 -3.18286,-1.196944 0,-0.663106 1.41955,-1.196941 3.18286,-1.196941 1.76329,0 3.18285,0.533835 3.18285,1.196941 z m -8.45104,0.463331 c 0,0.74867 -1.41955,1.351389 -3.18286,1.351389 -1.7633,0 -3.18284,-0.602719 -3.18284,-1.351389 0,-0.748667 1.41954,-1.351386 3.18284,-1.351386 1.76331,0 3.18286,0.602719 3.18286,1.351386 z m -21.25058,-4.246009 h 31.18121 c 3.68703,0 6.65529,1.965261 6.65529,4.406411 v 8.323214 c 0,2.441152 -2.96826,4.406399 -6.65529,4.406399 h -31.18121 c -3.68703,0 -6.655291,-1.965247 -6.655291,-4.406399 v -8.323214 c 0,-2.44115 2.968261,-4.406411 6.655291,-4.406411 z m 3.94387,1.713606 h 21.32154 c 3.68704,0 6.65528,1.965259 6.65528,4.406411 v 4.406407 c 0,2.44115 -2.96824,4.406407 -6.65528,4.406407 h -21.32154 c -3.68703,0 -6.65529,-1.965257 -6.65529,-4.406407 v -4.406407 c 0,-2.441152 2.96826,-4.406411 6.65529,-4.406411 z m 10.13248,6.680271 c 0,0.663105 -1.41955,1.196942 -3.18287,1.196942 -1.76329,0 -3.18286,-0.533837 -3.18286,-1.196942 0,-0.663109 1.41957,-1.196941 3.18286,-1.196941 1.76332,0 3.18287,0.533832 3.18287,1.196941 z m -8.45104,0.463331 c 0,0.748667 -1.41954,1.351387 -3.18286,1.351387 -1.76329,0 -3.18286,-0.60272 -3.18286,-1.351387 0,-0.748669 1.41957,-1.351386 3.18286,-1.351386 1.76332,0 3.18286,0.602717 3.18286,1.351386 z m 25.02385,-1.467221 c 0,0.663109 -1.41955,1.196945 -3.18286,1.196945 -1.76329,0 -3.18286,-0.533836 -3.18286,-1.196945 0,-0.663105 1.41957,-1.196944 3.18286,-1.196944 1.76331,0 3.18286,0.533839 3.18286,1.196944 z m -8.45103,0.463333 c 0,0.748669 -1.41956,1.351386 -3.18287,1.351386 -1.76328,0 -3.18285,-0.602717 -3.18285,-1.351386 0,-0.748668 1.41957,-1.351387 3.18285,-1.351387 1.76331,0 3.18287,0.602719 3.18287,1.351387 z M 11.517894,14.846227 c 0.83641,-2.254262 2.49967,-4.371996 4.80659,-6.1199798 2.60252,-1.97196 6.02206,-3.466442 9.78363,-4.275854 3.76156,-0.8094134 7.85477,-0.9315194 11.71103,-0.3493584 3.85627,0.5821614 7.46496,1.8669804 10.32477,3.6759894 2.85982,1.80901 4.96289,4.1372118 6.01708,6.6612038 M 31.948524,8.4050992 c 0,0.473815 -1.28143,0.855263 -2.87318,0.855263 -1.59175,0 -2.87318,-0.381448 -2.87318,-0.855263 0,-0.473815 1.28143,-0.855261 2.87318,-0.855261 1.59175,0 2.87318,0.381446 2.87318,0.855261 z m -7.62879,0.331068 c 0,0.534953 -1.28145,0.965617 -2.87319,0.965617 -1.59174,0 -2.87318,-0.430664 -2.87318,-0.965617 0,-0.534952 1.28144,-0.965616 2.87318,-0.965616 1.59174,0 2.87319,0.430664 2.87319,0.965616 z m 22.58917,-1.048384 c 0,0.473814 -1.28145,0.855263 -2.87319,0.855263 -1.59174,0 -2.87317,-0.381449 -2.87317,-0.855263 0,-0.473815 1.28143,-0.855263 2.87317,-0.855263 1.59174,0 2.87319,0.381448 2.87319,0.855263 z m -7.6288,0.331069 c 0,0.534953 -1.28144,0.965617 -2.87319,0.965617 -1.59173,0 -2.87318,-0.430664 -2.87318,-0.965617 0,-0.534954 1.28145,-0.96562 2.87318,-0.96562 1.59175,0 2.87319,0.430666 2.87319,0.96562 z m -7.52356,16.7821388 c 0,0.663103 -1.41955,1.196938 -3.18287,1.196938 -1.76329,0 -3.18286,-0.533835 -3.18286,-1.196938 0,-0.663103 1.41957,-1.196934 3.18286,-1.196934 1.76332,0 3.18287,0.533831 3.18287,1.196934 z m -8.45104,0.46333 c 0,0.748665 -1.41954,1.351378 -3.18286,1.351378 -1.76329,0 -3.18286,-0.602713 -3.18286,-1.351378 0,-0.748665 1.41957,-1.351379 3.18286,-1.351379 1.76332,0 3.18286,0.602714 3.18286,1.351379 z m 25.02385,-1.467211 c 0,0.663102 -1.41955,1.196937 -3.18286,1.196937 -1.76329,0 -3.18286,-0.533835 -3.18286,-1.196937 0,-0.663103 1.41957,-1.196938 3.18286,-1.196938 1.76331,0 3.18286,0.533835 3.18286,1.196938 z m -8.45103,0.463328 c 0,0.748665 -1.41956,1.351379 -3.18287,1.351379 -1.76328,0 -3.18285,-0.602714 -3.18285,-1.351379 0,-0.748665 1.41957,-1.351381 3.18285,-1.351381 1.76331,0 3.18287,0.602716 3.18287,1.351381 z m -9.06932,-6.830864 c 0,0.663102 -1.41956,1.196937 -3.18287,1.196937 -1.76329,0 -3.18285,-0.533835 -3.18285,-1.196937 0,-0.663103 1.41956,-1.196935 3.18285,-1.196935 1.76331,0 3.18287,0.533832 3.18287,1.196935 z m -8.45104,0.463329 c 0,0.748664 -1.41955,1.351379 -3.18286,1.351379 -1.76331,0 -3.18286,-0.602715 -3.18286,-1.351379 0,-0.748665 1.41955,-1.35138 3.18286,-1.35138 1.76331,0 3.18286,0.602715 3.18286,1.35138 z m 25.02385,-1.467212 c 0,0.663103 -1.41956,1.196938 -3.18285,1.196938 -1.76331,0 -3.18286,-0.533835 -3.18286,-1.196938 0,-0.663102 1.41955,-1.196936 3.18286,-1.196936 1.76329,0 3.18285,0.533834 3.18285,1.196936 z m -8.45104,0.463329 c 0,0.748665 -1.41955,1.351379 -3.18286,1.351379 -1.7633,0 -3.18284,-0.602714 -3.18284,-1.351379 0,-0.748665 1.41954,-1.35138 3.18284,-1.35138 1.76331,0 3.18286,0.602715 3.18286,1.35138 z m -21.25058,-4.245986 h 31.18121 c 3.68703,0 6.65529,1.965248 6.65529,4.406388 v 8.323166 c 0,2.44114 -2.96826,4.406387 -6.65529,4.406387 h -31.18121 c -3.68703,0 -6.655291,-1.965247 -6.655291,-4.406387 v -8.323166 c 0,-2.44114 2.968261,-4.406388 6.655291,-4.406388 z m 3.94387,1.713596 h 21.32154 c 3.68704,0 6.65528,1.965247 6.65528,4.406385 v 4.406383 c 0,2.441137 -2.96824,4.406385 -6.65528,4.406385 h -21.32154 c -3.68703,0 -6.65529,-1.965248 -6.65529,-4.406385 v -4.406383 c 0,-2.441138 2.96826,-4.406385 6.65529,-4.406385 z m 10.13248,6.680232 c 0,0.663103 -1.41955,1.196938 -3.18287,1.196938 -1.76329,0 -3.18286,-0.533835 -3.18286,-1.196938 0,-0.663102 1.41957,-1.196934 3.18286,-1.196934 1.76332,0 3.18287,0.533832 3.18287,1.196934 z m -8.45104,0.46333 c 0,0.748665 -1.41954,1.351378 -3.18286,1.351378 -1.76329,0 -3.18286,-0.602713 -3.18286,-1.351378 0,-0.748665 1.41957,-1.351379 3.18286,-1.351379 1.76332,0 3.18286,0.602714 3.18286,1.351379 z m 25.02385,-1.467211 c 0,0.663103 -1.41955,1.196938 -3.18286,1.196938 -1.76329,0 -3.18286,-0.533835 -3.18286,-1.196938 0,-0.663103 1.41957,-1.196938 3.18286,-1.196938 1.76331,0 3.18286,0.533835 3.18286,1.196938 z m -8.45103,0.463329 c 0,0.748664 -1.41956,1.351379 -3.18287,1.351379 -1.76328,0 -3.18285,-0.602715 -3.18285,-1.351379 0,-0.748665 1.41957,-1.351382 3.18285,-1.351382 1.76331,0 3.18287,0.602717 3.18287,1.351382 z" />
    <g
       id="g2614"
       style="stroke-width:1;stroke-miterlimit:4;stroke-dasharray:none">
      <path
         id="path2299"
         style="fill:none;stroke:#000000;stroke-width:1;stroke-linecap:round;stroke-linejoin:round;stroke-opacity:0.955017;paint-order:stroke markers fill;stroke-miterlimit:4;stroke-dasharray:none"
         d="m 164.67155,55.01598 h 15.52975 c 1.40634,0 2.53853,0.681317 2.53853,1.527618 0,0.846294 -1.13219,1.527612 -2.53853,1.527612 h -15.52975 c -1.40634,0 -2.53852,-0.681318 -2.53852,-1.527612 0,-0.846301 1.13218,-1.527618 2.53852,-1.527618 z m -4.33041,32.708857 c 1.98542,0 3.58379,0.96186 3.58379,2.15663 v 11.142583 c 0,1.19476 -1.59837,2.15662 -3.58379,2.15662 -1.98542,0 -3.58379,-0.96186 -3.58379,-2.15662 V 89.881467 c 0,-1.19477 1.59837,-2.15663 3.58379,-2.15663 z M 155.2641,64.541091 h 33.74737 c 2.48177,0 4.47973,1.202319 4.47973,2.695784 v 7.907631 c 0,1.493465 -1.99796,2.695781 -4.47973,2.695781 H 155.2641 c -2.48176,0 -4.47973,-1.202316 -4.47973,-2.695781 v -7.907631 c 0,-1.493465 1.99797,-2.695784 4.47973,-2.695784 z m 2.98651,-17.792178 h 28.07299 c 3.97084,0 7.1676,1.923716 7.1676,4.313263 v 53.915674 c 0,2.38954 -3.19676,4.31327 -7.1676,4.31327 h -28.07299 c -3.97084,0 -7.16759,-1.92373 -7.16759,-4.31327 V 51.062176 c 0,-2.389547 3.19675,-4.313263 7.16759,-4.313263 z m 13.40218,-35.814222 c 0,0.473815 -1.36448,0.855262 -3.05935,0.855262 -1.69486,0 -3.05933,-0.381447 -3.05933,-0.855262 0,-0.473816 1.36447,-0.855261 3.05933,-0.855261 1.69487,0 3.05935,0.381445 3.05935,0.855261 z m -8.12308,0.331067 c 0,0.534954 -1.36448,0.965618 -3.05934,0.965618 -1.69487,0 -3.05933,-0.430664 -3.05933,-0.965618 0,-0.534951 1.36446,-0.965616 3.05933,-0.965616 1.69486,0 3.05934,0.430665 3.05934,0.965616 z m 24.05272,-1.048384 c 0,0.473815 -1.36447,0.855262 -3.05933,0.855262 -1.69488,0 -3.05934,-0.381447 -3.05934,-0.855262 0,-0.4738148 1.36446,-0.8552618 3.05934,-0.8552618 1.69486,0 3.05933,0.381447 3.05933,0.8552618 z m -8.12306,0.331068 c 0,0.534953 -1.36447,0.965617 -3.05935,0.965617 -1.69487,0 -3.05933,-0.430664 -3.05933,-0.965617 0,-0.534953 1.36446,-0.9656188 3.05933,-0.9656188 1.69488,0 3.05935,0.4306658 3.05935,0.9656188 z m 15.924,15.640146 -0.12325,8.323171 m -44.41159,-8.323171 -0.12326,8.323171 m 20.73176,7.384728 c 0,0.663107 -1.41956,1.196943 -3.18289,1.196943 -1.7633,0 -3.18288,-0.533836 -3.18288,-1.196943 0,-0.663107 1.41958,-1.196941 3.18288,-1.196941 1.76333,0 3.18289,0.533834 3.18289,1.196941 z m -8.45109,0.463333 c 0,0.748666 -1.41955,1.351382 -3.18288,1.351382 -1.7633,0 -3.18288,-0.602716 -3.18288,-1.351382 0,-0.748671 1.41958,-1.351388 3.18288,-1.351388 1.76333,0 3.18288,0.602717 3.18288,1.351388 z m 25.02399,-1.467221 c 0,0.663107 -1.41956,1.196944 -3.18288,1.196944 -1.7633,0 -3.18288,-0.533837 -3.18288,-1.196944 0,-0.663107 1.41958,-1.196942 3.18288,-1.196942 1.76332,0 3.18288,0.533835 3.18288,1.196942 z m -8.45108,0.463331 c 0,0.748669 -1.41957,1.351389 -3.18289,1.351389 -1.76329,0 -3.18286,-0.60272 -3.18286,-1.351389 0,-0.748667 1.41957,-1.351387 3.18286,-1.351387 1.76332,0 3.18289,0.60272 3.18289,1.351387 z m -9.06937,-6.830902 c 0,0.663105 -1.41957,1.196945 -3.18289,1.196945 -1.7633,0 -3.18287,-0.53384 -3.18287,-1.196945 0,-0.663108 1.41957,-1.196942 3.18287,-1.196942 1.76332,0 3.18289,0.533834 3.18289,1.196942 z m -8.45109,0.463331 c 0,0.748671 -1.41956,1.351388 -3.18288,1.351388 -1.76332,0 -3.18287,-0.602717 -3.18287,-1.351388 0,-0.748668 1.41955,-1.351385 3.18287,-1.351385 1.76332,0 3.18288,0.602717 3.18288,1.351385 z m 25.02399,-1.46722 c 0,0.663109 -1.41957,1.196944 -3.18286,1.196944 -1.76332,0 -3.18288,-0.533835 -3.18288,-1.196944 0,-0.663106 1.41956,-1.196941 3.18288,-1.196941 1.76329,0 3.18286,0.533835 3.18286,1.196941 z m -8.45108,0.463331 c 0,0.74867 -1.41956,1.351389 -3.18288,1.351389 -1.76331,0 -3.18286,-0.602719 -3.18286,-1.351389 0,-0.748667 1.41955,-1.351386 3.18286,-1.351386 1.76332,0 3.18288,0.602719 3.18288,1.351386 z m -21.2507,-4.246009 h 31.18138 c 3.68705,0 6.65533,1.965261 6.65533,4.406411 v 8.323214 c 0,2.441152 -2.96828,4.406399 -6.65533,4.406399 H 157.3806 c -3.68706,0 -6.65533,-1.965247 -6.65533,-4.406399 v -8.323214 c 0,-2.44115 2.96827,-4.406411 6.65533,-4.406411 z m 3.94389,1.713606 h 21.32166 c 3.68706,0 6.65532,1.965259 6.65532,4.406411 v 4.406407 c 0,2.44115 -2.96826,4.406407 -6.65532,4.406407 h -21.32166 c -3.68705,0 -6.65533,-1.965257 -6.65533,-4.406407 v -4.406407 c 0,-2.441152 2.96828,-4.406411 6.65533,-4.406411 z m 10.13254,6.680271 c 0,0.663105 -1.41956,1.196942 -3.18289,1.196942 -1.7633,0 -3.18288,-0.533837 -3.18288,-1.196942 0,-0.663109 1.41958,-1.196941 3.18288,-1.196941 1.76333,0 3.18289,0.533832 3.18289,1.196941 z m -8.45109,0.463331 c 0,0.748667 -1.41955,1.351387 -3.18288,1.351387 -1.7633,0 -3.18288,-0.60272 -3.18288,-1.351387 0,-0.748669 1.41958,-1.351386 3.18288,-1.351386 1.76333,0 3.18288,0.602717 3.18288,1.351386 z m 25.02399,-1.467221 c 0,0.663109 -1.41956,1.196945 -3.18288,1.196945 -1.7633,0 -3.18288,-0.533836 -3.18288,-1.196945 0,-0.663105 1.41958,-1.196944 3.18288,-1.196944 1.76332,0 3.18288,0.533839 3.18288,1.196944 z m -8.45108,0.463333 c 0,0.748669 -1.41957,1.351386 -3.18289,1.351386 -1.76329,0 -3.18286,-0.602717 -3.18286,-1.351386 0,-0.748668 1.41957,-1.351387 3.18286,-1.351387 1.76332,0 3.18289,0.602719 3.18289,1.351387 z M 151.21826,14.846227 c 0.83642,-2.254262 2.49968,-4.371996 4.80662,-6.1199798 2.60253,-1.97196 6.02209,-3.466442 9.78368,-4.275854 3.76158,-0.8094134 7.85482,-0.9315194 11.7111,-0.3493584 3.85629,0.5821614 7.465,1.8669804 10.32483,3.6759894 2.85983,1.80901 4.96292,4.1372118 6.01711,6.6612038 M 171.64901,8.4050992 c 0,0.473815 -1.28144,0.855263 -2.8732,0.855263 -1.59176,0 -2.8732,-0.381448 -2.8732,-0.855263 0,-0.473815 1.28144,-0.855261 2.8732,-0.855261 1.59176,0 2.8732,0.381446 2.8732,0.855261 z m -7.62884,0.331068 c 0,0.534953 -1.28145,0.965617 -2.8732,0.965617 -1.59175,0 -2.8732,-0.430664 -2.8732,-0.965617 0,-0.534952 1.28145,-0.965616 2.8732,-0.965616 1.59175,0 2.8732,0.430664 2.8732,0.965616 z m 22.5893,-1.048384 c 0,0.473814 -1.28146,0.855263 -2.8732,0.855263 -1.59175,0 -2.87319,-0.381449 -2.87319,-0.855263 0,-0.473815 1.28144,-0.855263 2.87319,-0.855263 1.59174,0 2.8732,0.381448 2.8732,0.855263 z m -7.62884,0.331069 c 0,0.534953 -1.28145,0.965617 -2.87321,0.965617 -1.59174,0 -2.87319,-0.430664 -2.87319,-0.965617 0,-0.534954 1.28145,-0.96562 2.87319,-0.96562 1.59176,0 2.87321,0.430666 2.87321,0.96562 z m -7.5236,16.7821388 c 0,0.663103 -1.41956,1.196938 -3.18289,1.196938 -1.7633,0 -3.18288,-0.533835 -3.18288,-1.196938 0,-0.663103 1.41958,-1.196934 3.18288,-1.196934 1.76333,0 3.18289,0.533831 3.18289,1.196934 z m -8.45109,0.46333 c 0,0.748665 -1.41955,1.351378 -3.18288,1.351378 -1.7633,0 -3.18288,-0.602713 -3.18288,-1.351378 0,-0.748665 1.41958,-1.351379 3.18288,-1.351379 1.76333,0 3.18288,0.602714 3.18288,1.351379 z m 25.02399,-1.467211 c 0,0.663102 -1.41956,1.196937 -3.18288,1.196937 -1.7633,0 -3.18288,-0.533835 -3.18288,-1.196937 0,-0.663103 1.41958,-1.196938 3.18288,-1.196938 1.76332,0 3.18288,0.533835 3.18288,1.196938 z m -8.45108,0.463328 c 0,0.748665 -1.41957,1.351379 -3.18289,1.351379 -1.76329,0 -3.18286,-0.602714 -3.18286,-1.351379 0,-0.748665 1.41957,-1.351381 3.18286,-1.351381 1.76332,0 3.18289,0.602716 3.18289,1.351381 z m -9.06937,-6.830864 c 0,0.663102 -1.41957,1.196937 -3.18289,1.196937 -1.7633,0 -3.18287,-0.533835 -3.18287,-1.196937 0,-0.663103 1.41957,-1.196935 3.18287,-1.196935 1.76332,0 3.18289,0.533832 3.18289,1.196935 z m -8.45109,0.463329 c 0,0.748664 -1.41956,1.351379 -3.18288,1.351379 -1.76332,0 -3.18287,-0.602715 -3.18287,-1.351379 0,-0.748665 1.41955,-1.35138 3.18287,-1.35138 1.76332,0 3.18288,0.602715 3.18288,1.35138 z m 25.02399,-1.467212 c 0,0.663103 -1.41957,1.196938 -3.18286,1.196938 -1.76332,0 -3.18288,-0.533835 -3.18288,-1.196938 0,-0.663102 1.41956,-1.196936 3.18288,-1.196936 1.76329,0 3.18286,0.533834 3.18286,1.196936 z m -8.45108,0.463329 c 0,0.748665 -1.41956,1.351379 -3.18288,1.351379 -1.76331,0 -3.18286,-0.602714 -3.18286,-1.351379 0,-0.748665 1.41955,-1.35138 3.18286,-1.35138 1.76332,0 3.18288,0.602715 3.18288,1.35138 z m -21.2507,-4.245986 h 31.18138 c 3.68705,0 6.65533,1.965248 6.65533,4.406388 v 8.323166 c 0,2.44114 -2.96828,4.406387 -6.65533,4.406387 H 157.3806 c -3.68706,0 -6.65533,-1.965247 -6.65533,-4.406387 v -8.323166 c 0,-2.44114 2.96827,-4.406388 6.65533,-4.406388 z m 3.94389,1.713596 h 21.32166 c 3.68706,0 6.65532,1.965247 6.65532,4.406385 v 4.406383 c 0,2.441137 -2.96826,4.406385 -6.65532,4.406385 h -21.32166 c -3.68705,0 -6.65533,-1.965248 -6.65533,-4.406385 v -4.406383 c 0,-2.441138 2.96828,-4.406385 6.65533,-4.406385 z m 10.13254,6.680232 c 0,0.663103 -1.41956,1.196938 -3.18289,1.196938 -1.7633,0 -3.18288,-0.533835 -3.18288,-1.196938 0,-0.663102 1.41958,-1.196934 3.18288,-1.196934 1.76333,0 3.18289,0.533832 3.18289,1.196934 z m -8.45109,0.46333 c 0,0.748665 -1.41955,1.351378 -3.18288,1.351378 -1.7633,0 -3.18288,-0.602713 -3.18288,-1.351378 0,-0.748665 1.41958,-1.351379 3.18288,-1.351379 1.76333,0 3.18288,0.602714 3.18288,1.351379 z m 25.02399,-1.467211 c 0,0.663103 -1.41956,1.196938 -3.18288,1.196938 -1.7633,0 -3.18288,-0.533835 -3.18288,-1.196938 0,-0.663103 1.41958,-1.196938 3.18288,-1.196938 1.76332,0 3.18288,0.533835 3.18288,1.196938 z m -8.45108,0.463329 c 0,0.748664 -1.41957,1.351379 -3.18289,1.351379 -1.76329,0 -3.18286,-0.602715 -3.18286,-1.351379 0,-0.748665 1.41957,-1.351382 3.18286,-1.351382 1.76332,0 3.18289,0.602717 3.18289,1.351382 z" />
      <path
         style="fill:#000000;stroke:#000000;stroke-width:3.77952761;stroke-linecap:round;stroke-linejoin:round;stroke-miterlimit:4;stroke-dasharray:none;stroke-opacity:0.955017;paint-order:stroke markers fill"
         d="m 599.58462,386.69907 c -5.09888,-2.05766 -5.55362,-4.19467 -5.55362,-26.09918 0,-19.71626 0.0832,-20.54134 2.33259,-23.13015 3.95018,-4.54627 15.15528,-4.82406 19.49601,-0.48334 1.8679,1.8679 2.01558,3.60534 2.01558,23.71231 0,23.48565 -0.0842,23.85578 -5.93023,26.07845 -3.07085,1.16754 -9.3723,1.12772 -12.36033,-0.0781 z"
         id="path2414"
         transform="scale(0.26458333)" />
      <path
         style="fill:#000000;stroke:#000000;stroke-width:3.77952761;stroke-linecap:round;stroke-linejoin:round;stroke-miterlimit:4;stroke-dasharray:none;stroke-opacity:0.955017;paint-order:stroke markers fill"
         d="m 618.24044,216.69966 c -3.33232,-1.37703 -4.06099,-3.25672 -1.88055,-4.8511 2.90137,-2.12154 67.64465,-2.03532 70.51709,0.0939 1.93185,1.432 1.93835,1.56683 0.16249,3.36928 -1.69759,1.72301 -4.5143,1.89531 -34.21121,2.09278 -17.79873,0.11836 -33.36325,-0.19884 -34.58782,-0.70487 z"
         id="path2492"
         transform="scale(0.26458333)" />
    </g>
    <path
       id="path2642"
       style="fill:none;stroke:#000000;stroke-width:1.112;stroke-linecap:round;stroke-linejoin:round;stroke-miterlimit:4;stroke-dasharray:none;stroke-opacity:0.955017;paint-order:stroke markers fill"
       d="m 24.971104,214.29588 h 15.52967 c 1.40633,0 2.53851,0.68132 2.53851,1.52763 0,0.8463 -1.13218,1.52762 -2.53851,1.52762 h -15.52967 c -1.40633,0 -2.5385,-0.68132 -2.5385,-1.52762 0,-0.84631 1.13217,-1.52763 2.5385,-1.52763 z m -4.33038,32.70902 c 1.98541,0 3.58377,0.96187 3.58377,2.15665 v 11.14264 c 0,1.19476 -1.59836,2.15662 -3.58377,2.15662 -1.98541,0 -3.58377,-0.96186 -3.58377,-2.15662 v -11.14264 c 0,-1.19478 1.59836,-2.15665 3.58377,-2.15665 z m -5.07701,-23.18386 h 33.74717 c 2.48176,0 4.47971,1.20233 4.47971,2.69581 v 7.90767 c 0,1.49347 -1.99795,2.6958 -4.47971,2.6958 h -33.74717 c -2.48175,0 -4.47971,-1.20233 -4.47971,-2.6958 v -7.90767 c 0,-1.49348 1.99796,-2.69581 4.47971,-2.69581 z m 2.98649,-17.79227 h 28.07283 c 3.97082,0 7.16756,1.92373 7.16756,4.31328 v 53.91594 c 0,2.38954 -3.19674,4.31327 -7.16756,4.31327 h -28.07283 c -3.97082,0 -7.16755,-1.92373 -7.16755,-4.31327 v -53.91594 c 0,-2.38955 3.19673,-4.31328 7.16755,-4.31328 z m 13.4021,-35.81443 c 0,0.47382 -1.36447,0.85527 -3.05933,0.85527 -1.69485,0 -3.05931,-0.38145 -3.05931,-0.85527 0,-0.47382 1.36446,-0.85526 3.05931,-0.85526 1.69486,0 3.05933,0.38144 3.05933,0.85526 z m -8.12303,0.33107 c 0,0.53496 -1.36447,0.96563 -3.05932,0.96563 -1.69486,0 -3.05932,-0.43067 -3.05932,-0.96563 0,-0.53495 1.36446,-0.96562 3.05932,-0.96562 1.69485,0 3.05932,0.43067 3.05932,0.96562 z m 24.05258,-1.04839 c 0,0.47382 -1.36446,0.85527 -3.05931,0.85527 -1.69487,0 -3.05932,-0.38145 -3.05932,-0.85527 0,-0.47382 1.36445,-0.85527 3.05932,-0.85527 1.69485,0 3.05931,0.38145 3.05931,0.85527 z m -8.12301,0.33107 c 0,0.53496 -1.36446,0.96562 -3.05933,0.96562 -1.69486,0 -3.05932,-0.43066 -3.05932,-0.96562 0,-0.53496 1.36446,-0.96562 3.05932,-0.96562 1.69487,0 3.05933,0.43066 3.05933,0.96562 z m 15.92391,15.64024 -0.12325,8.32321 m -44.41134,-8.32321 -0.123261,8.32321 m 20.731641,7.38477 c 0,0.66311 -1.41955,1.19695 -3.18287,1.19695 -1.76329,0 -3.18286,-0.53384 -3.18286,-1.19695 0,-0.66311 1.41957,-1.19695 3.18286,-1.19695 1.76332,0 3.18287,0.53384 3.18287,1.19695 z m -8.45104,0.46334 c 0,0.74867 -1.41954,1.35139 -3.18286,1.35139 -1.76329,0 -3.18286,-0.60272 -3.18286,-1.35139 0,-0.74868 1.41957,-1.3514 3.18286,-1.3514 1.76332,0 3.18286,0.60272 3.18286,1.3514 z m 25.02385,-1.46723 c 0,0.66311 -1.41955,1.19695 -3.18286,1.19695 -1.76329,0 -3.18286,-0.53384 -3.18286,-1.19695 0,-0.66311 1.41957,-1.19695 3.18286,-1.19695 1.76331,0 3.18286,0.53384 3.18286,1.19695 z m -8.45103,0.46333 c 0,0.74868 -1.41956,1.3514 -3.18287,1.3514 -1.76328,0 -3.18285,-0.60272 -3.18285,-1.3514 0,-0.74867 1.41957,-1.35139 3.18285,-1.35139 1.76331,0 3.18287,0.60272 3.18287,1.35139 z m -9.06932,-6.83094 c 0,0.66311 -1.41956,1.19695 -3.18287,1.19695 -1.76329,0 -3.18285,-0.53384 -3.18285,-1.19695 0,-0.66311 1.41956,-1.19694 3.18285,-1.19694 1.76331,0 3.18287,0.53383 3.18287,1.19694 z m -8.45104,0.46334 c 0,0.74867 -1.41955,1.35139 -3.18286,1.35139 -1.76331,0 -3.18286,-0.60272 -3.18286,-1.35139 0,-0.74868 1.41955,-1.3514 3.18286,-1.3514 1.76331,0 3.18286,0.60272 3.18286,1.3514 z m 25.02385,-1.46723 c 0,0.66311 -1.41956,1.19695 -3.18285,1.19695 -1.76331,0 -3.18286,-0.53384 -3.18286,-1.19695 0,-0.66311 1.41955,-1.19695 3.18286,-1.19695 1.76329,0 3.18285,0.53384 3.18285,1.19695 z m -8.45104,0.46333 c 0,0.74868 -1.41955,1.3514 -3.18286,1.3514 -1.7633,0 -3.18284,-0.60272 -3.18284,-1.3514 0,-0.74867 1.41954,-1.35139 3.18284,-1.35139 1.76331,0 3.18286,0.60272 3.18286,1.35139 z m -21.25058,-4.24603 h 31.18121 c 3.68703,0 6.65529,1.96527 6.65529,4.40643 v 8.32327 c 0,2.44116 -2.96826,4.40642 -6.65529,4.40642 h -31.18121 c -3.68703,0 -6.655291,-1.96526 -6.655291,-4.40642 v -8.32327 c 0,-2.44116 2.968261,-4.40643 6.655291,-4.40643 z m 3.94387,1.71361 h 21.32154 c 3.68704,0 6.65528,1.96528 6.65528,4.40644 v 4.40643 c 0,2.44117 -2.96824,4.40643 -6.65528,4.40643 h -21.32154 c -3.68703,0 -6.65529,-1.96526 -6.65529,-4.40643 v -4.40643 c 0,-2.44116 2.96826,-4.40644 6.65529,-4.40644 z m 10.13248,6.68031 c 0,0.66311 -1.41955,1.19695 -3.18287,1.19695 -1.76329,0 -3.18286,-0.53384 -3.18286,-1.19695 0,-0.66311 1.41957,-1.19695 3.18286,-1.19695 1.76332,0 3.18287,0.53384 3.18287,1.19695 z m -8.45104,0.46334 c 0,0.74867 -1.41954,1.35139 -3.18286,1.35139 -1.76329,0 -3.18286,-0.60272 -3.18286,-1.35139 0,-0.74868 1.41957,-1.3514 3.18286,-1.3514 1.76332,0 3.18286,0.60272 3.18286,1.3514 z m 25.02385,-1.46723 c 0,0.66311 -1.41955,1.19695 -3.18286,1.19695 -1.76329,0 -3.18286,-0.53384 -3.18286,-1.19695 0,-0.66311 1.41957,-1.19695 3.18286,-1.19695 1.76331,0 3.18286,0.53384 3.18286,1.19695 z m -8.45103,0.46333 c 0,0.74868 -1.41956,1.3514 -3.18287,1.3514 -1.76328,0 -3.18285,-0.60272 -3.18285,-1.3514 0,-0.74867 1.41957,-1.35139 3.18285,-1.35139 1.76331,0 3.18287,0.60272 3.18287,1.35139 z M 11.517894,174.1259 c 0.83641,-2.25428 2.49967,-4.37202 4.80659,-6.12002 2.60252,-1.97197 6.02206,-3.46646 9.78363,-4.27588 3.76156,-0.80942 7.85477,-0.93152 11.71103,-0.34936 3.85627,0.58217 7.46496,1.867 10.32477,3.67602 2.85982,1.80902 4.96289,4.13723 6.01708,6.66124 m -22.21247,-6.03317 c 0,0.47382 -1.28143,0.85527 -2.87318,0.85527 -1.59175,0 -2.87318,-0.38145 -2.87318,-0.85527 0,-0.47381 1.28143,-0.85526 2.87318,-0.85526 1.59175,0 2.87318,0.38145 2.87318,0.85526 z m -7.62879,0.33107 c 0,0.53496 -1.28145,0.96563 -2.87319,0.96563 -1.59174,0 -2.87318,-0.43067 -2.87318,-0.96563 0,-0.53495 1.28144,-0.96562 2.87318,-0.96562 1.59174,0 2.87319,0.43067 2.87319,0.96562 z m 22.58917,-1.04839 c 0,0.47382 -1.28145,0.85527 -2.87319,0.85527 -1.59174,0 -2.87317,-0.38145 -2.87317,-0.85527 0,-0.47381 1.28143,-0.85527 2.87317,-0.85527 1.59174,0 2.87319,0.38146 2.87319,0.85527 z m -7.6288,0.33108 c 0,0.53495 -1.28144,0.96562 -2.87319,0.96562 -1.59173,0 -2.87318,-0.43067 -2.87318,-0.96562 0,-0.53496 1.28145,-0.96563 2.87318,-0.96563 1.59175,0 2.87319,0.43067 2.87319,0.96563 z m -7.52356,16.78223 c 0,0.66311 -1.41955,1.19695 -3.18287,1.19695 -1.76329,0 -3.18286,-0.53384 -3.18286,-1.19695 0,-0.66311 1.41957,-1.19694 3.18286,-1.19694 1.76332,0 3.18287,0.53383 3.18287,1.19694 z m -8.45104,0.46333 c 0,0.74867 -1.41954,1.35139 -3.18286,1.35139 -1.76329,0 -3.18286,-0.60272 -3.18286,-1.35139 0,-0.74867 1.41957,-1.35138 3.18286,-1.35138 1.76332,0 3.18286,0.60271 3.18286,1.35138 z m 25.02385,-1.46722 c 0,0.66311 -1.41955,1.19695 -3.18286,1.19695 -1.76329,0 -3.18286,-0.53384 -3.18286,-1.19695 0,-0.6631 1.41957,-1.19694 3.18286,-1.19694 1.76331,0 3.18286,0.53384 3.18286,1.19694 z m -8.45103,0.46333 c 0,0.74867 -1.41956,1.35139 -3.18287,1.35139 -1.76328,0 -3.18285,-0.60272 -3.18285,-1.35139 0,-0.74866 1.41957,-1.35138 3.18285,-1.35138 1.76331,0 3.18287,0.60272 3.18287,1.35138 z m -9.06932,-6.8309 c 0,0.66311 -1.41956,1.19695 -3.18287,1.19695 -1.76329,0 -3.18285,-0.53384 -3.18285,-1.19695 0,-0.66311 1.41956,-1.19694 3.18285,-1.19694 1.76331,0 3.18287,0.53383 3.18287,1.19694 z m -8.45104,0.46333 c 0,0.74867 -1.41955,1.35139 -3.18286,1.35139 -1.76331,0 -3.18286,-0.60272 -3.18286,-1.35139 0,-0.74867 1.41955,-1.35138 3.18286,-1.35138 1.76331,0 3.18286,0.60271 3.18286,1.35138 z m 25.02385,-1.46722 c 0,0.66311 -1.41956,1.19695 -3.18285,1.19695 -1.76331,0 -3.18286,-0.53384 -3.18286,-1.19695 0,-0.6631 1.41955,-1.19694 3.18286,-1.19694 1.76329,0 3.18285,0.53384 3.18285,1.19694 z m -8.45104,0.46333 c 0,0.74867 -1.41955,1.35139 -3.18286,1.35139 -1.7633,0 -3.18284,-0.60272 -3.18284,-1.35139 0,-0.74866 1.41954,-1.35138 3.18284,-1.35138 1.76331,0 3.18286,0.60272 3.18286,1.35138 z m -21.25058,-4.24601 h 31.18121 c 3.68703,0 6.65529,1.96526 6.65529,4.40642 v 8.32321 c 0,2.44115 -2.96826,4.40641 -6.65529,4.40641 h -31.18121 c -3.68703,0 -6.655291,-1.96526 -6.655291,-4.40641 v -8.32321 c 0,-2.44116 2.968261,-4.40642 6.655291,-4.40642 z m 3.94387,1.71361 h 21.32154 c 3.68704,0 6.65528,1.96526 6.65528,4.40641 v 4.40641 c 0,2.44115 -2.96824,4.40641 -6.65528,4.40641 h -21.32154 c -3.68703,0 -6.65529,-1.96526 -6.65529,-4.40641 v -4.40641 c 0,-2.44115 2.96826,-4.40641 6.65529,-4.40641 z m 10.13248,6.68027 c 0,0.66311 -1.41955,1.19695 -3.18287,1.19695 -1.76329,0 -3.18286,-0.53384 -3.18286,-1.19695 0,-0.66311 1.41957,-1.19694 3.18286,-1.19694 1.76332,0 3.18287,0.53383 3.18287,1.19694 z m -8.45104,0.46333 c 0,0.74867 -1.41954,1.35139 -3.18286,1.35139 -1.76329,0 -3.18286,-0.60272 -3.18286,-1.35139 0,-0.74867 1.41957,-1.35138 3.18286,-1.35138 1.76332,0 3.18286,0.60271 3.18286,1.35138 z m 25.02385,-1.46722 c 0,0.66311 -1.41955,1.19695 -3.18286,1.19695 -1.76329,0 -3.18286,-0.53384 -3.18286,-1.19695 0,-0.6631 1.41957,-1.19694 3.18286,-1.19694 1.76331,0 3.18286,0.53384 3.18286,1.19694 z m -8.45103,0.46333 c 0,0.74867 -1.41956,1.35139 -3.18287,1.35139 -1.76328,0 -3.18285,-0.60272 -3.18285,-1.35139 0,-0.74866 1.41957,-1.35138 3.18285,-1.35138 1.76331,0 3.18287,0.60272 3.18287,1.35138 z" />
    <path
       style="fill:#ffffff;stroke:#000000;stroke-width:4.35709;stroke-linecap:round;stroke-linejoin:round;stroke-miterlimit:4;stroke-dasharray:none;stroke-opacity:0.955017;paint-order:stroke markers fill"
       d="m 63.15643,1011.8117 c -6.101946,-1.0327 -12.611123,-4.368 -15.370082,-7.8754 -2.13935,-2.7198 -2.171402,-3.538 -2.171402,-55.42964 v -52.66914 l 4.46228,1.52046 c 3.782275,1.28875 15.117538,1.47663 74.383464,1.23295 64.69806,-0.26602 70.17287,-0.42501 73.29047,-2.12835 l 3.36928,-1.84086 v 52.13714 c 0,48.92862 -0.11917,52.35944 -1.93655,55.74944 -2.29338,4.2779 -8.58282,7.802 -16.60643,9.3049 -6.54046,1.2251 -112.181817,1.2238 -119.42103,0 z m 24.800359,-19.60347 c 2.145671,-1.09464 4.459669,-3.21591 5.142216,-4.71394 0.842705,-1.84954 1.240997,-10.00245 1.240997,-25.40284 v -22.67916 l -2.658393,-3.15932 c -4.527564,-5.3807 -14.996004,-6.88148 -22.91637,-3.28534 -2.377291,1.07937 -4.826502,2.90452 -5.442693,4.05589 -0.711067,1.32864 -1.120347,10.95226 -1.120347,26.34335 0,23.80933 0.04239,24.2898 2.333115,26.44182 3.38154,3.17679 6.736083,4.24984 13.517911,4.32409 3.98199,0.0436 7.315472,-0.6042 9.903564,-1.92455 z"
       id="path2736"
       transform="scale(0.26458333)" />
    <path
       style="fill:#ffffff;stroke:#000000;stroke-width:4.35709;stroke-linecap:round;stroke-linejoin:round;stroke-miterlimit:4;stroke-dasharray:none;stroke-opacity:0.955017;paint-order:stroke markers fill"
       d="m 70.23665,987.44436 -2.850934,-1.60572 v -22.61369 c 0,-20.53158 0.173305,-22.77052 1.882256,-24.3171 4.039512,-3.65571 14.039624,-3.43012 17.872931,0.40319 1.867383,1.86738 2.015583,3.6045 2.015583,23.62567 0,20.42598 -0.115741,21.71484 -2.112256,23.52166 -2.864856,2.59266 -12.908808,3.18187 -16.80758,0.98599 z"
       id="path2775"
       transform="scale(0.26458333)" />
    <path
       style="fill:#ffffff;stroke:#000000;stroke-width:4.35709;stroke-linecap:round;stroke-linejoin:round;stroke-miterlimit:4;stroke-dasharray:none;stroke-opacity:0.955017;paint-order:stroke markers fill"
       d="m 52.811327,892.65524 c -7.603133,-2.3071 -7.274335,-1.28884 -6.960926,-21.55747 l 0.282897,-18.29535 3.628462,-2.13037 c 3.560205,-2.0903 4.896068,-2.13038 71.01418,-2.13038 37.06214,0 69.07834,0.36037 71.1471,0.80082 2.06876,0.44045 4.98449,1.93435 6.4794,3.31978 2.69875,2.50113 2.718,2.62845 2.718,17.97921 0,17.5838 -0.85861,19.91253 -8.08161,21.91859 -4.53116,1.25846 -136.099574,1.34775 -140.227503,0.0952 z"
       id="path2814"
       transform="scale(0.26458333)" />
    <path
       style="fill:#ffffff;stroke:#000000;stroke-width:4.35709;stroke-linecap:round;stroke-linejoin:round;stroke-miterlimit:4;stroke-dasharray:none;stroke-opacity:0.955017;paint-order:stroke markers fill"
       d="m 89.265975,817.30908 c -2.368751,-1.67076 -2.395247,-1.81446 -0.579383,-3.14225 2.88487,-2.10947 66.603058,-2.0234 69.471698,0.0938 1.65295,1.21999 1.7719,1.72918 0.66599,2.85093 -1.04498,1.05995 -8.70356,1.43089 -34.21121,1.65699 -29.470753,0.26123 -33.121179,0.1105 -35.347095,-1.45951 z"
       id="path2970"
       transform="scale(0.26458333)" />
    <path
       style="fill:#ffffff;stroke:#000000;stroke-width:4.35709;stroke-linecap:round;stroke-linejoin:round;stroke-miterlimit:4;stroke-dasharray:none;stroke-opacity:0.955017;paint-order:stroke markers fill"
       d="m 56.818209,774.84927 c -2.676102,-0.8234 -6.524863,-3.06195 -8.552803,-4.97454 l -3.687163,-3.47744 v -19.4763 -19.47629 l 4.007968,-3.81269 c 2.275188,-2.16434 5.972856,-4.35557 8.552803,-5.06838 3.39535,-0.93811 21.325901,-1.17867 70.893846,-0.95114 l 66.34901,0.30456 4.44666,2.3744 c 7.82717,4.17951 8.50381,6.33389 8.50826,27.09018 l 0.004,18.06084 -4.51562,4.32673 c -2.97669,2.85217 -6.13628,4.73482 -9.27105,5.52416 -3.35533,0.84488 -23.46802,1.17617 -68.31279,1.12522 -52.311758,-0.0594 -64.41855,-0.3371 -68.423261,-1.56931 z m 120.546931,-4.35364 c 2.61474,-1.30169 6.34687,-4.01007 8.29363,-6.01863 l 3.53959,-3.65192 v -14.71544 c 0,-16.55055 -0.46154,-17.84227 -8.17624,-22.88287 -7.11647,-4.64972 -11.31561,-4.96001 -62.31959,-4.60497 l -47.688352,0.33196 -5.307651,2.79996 c -6.361539,3.35593 -10.442149,7.92197 -11.335509,12.68399 -0.361218,1.92546 -0.496411,8.41029 -0.300427,14.41074 0.29551,9.04766 0.721182,11.39798 2.493797,13.76937 3.088753,4.1321 6.745346,6.59921 13.048266,8.8037 5.160957,1.80508 8.950279,1.92312 54.273396,1.69069 48.4149,-0.24829 48.75531,-0.26495 53.47909,-2.61658 z"
       id="path3009"
       transform="scale(0.26458333)" />
    <path
       style="fill:#ffffff;stroke:#000000;stroke-width:4.35709;stroke-linecap:round;stroke-linejoin:round;stroke-miterlimit:4;stroke-dasharray:none;stroke-opacity:0.955017;paint-order:stroke markers fill"
       d="m 59.040836,710.82216 c -6.306384,-1.72618 -11.762056,-5.21794 -13.247882,-8.47898 -0.776318,-1.70383 -1.214711,-9.02752 -1.214711,-20.29266 0,-21.10034 0.395543,-22.25849 9.05401,-26.51021 l 5.978188,-2.93557 H 125.4411 c 72.99781,0 71.70745,-0.11239 78.35396,6.82505 l 3.02725,3.15978 v 19.54577 c 0,19.40672 -0.0185,19.5658 -2.59176,22.36187 -1.42546,1.54885 -4.69108,3.80239 -7.25692,5.00786 -4.5761,2.14992 -5.8922,2.19574 -68.94077,2.39991 -48.624115,0.15746 -65.424081,-0.10621 -68.992024,-1.08282 z m 115.247274,-3.5921 c 5.35559,-1.79468 10.34361,-5.39984 13.07134,-9.44753 2.13712,-3.17127 2.35726,-4.69858 2.35726,-16.35489 0,-14.34577 -0.85038,-17.15741 -6.47831,-21.4194 -7.66736,-5.80644 -9.31527,-5.95246 -63.51182,-5.62796 -48.706689,0.29163 -49.835996,0.34476 -53.895919,2.53551 -5.024221,2.71109 -9.331261,7.10905 -10.819432,11.04782 -0.606461,1.60513 -1.102656,7.80506 -1.102656,13.77762 0,8.67055 0.402032,11.64724 1.994733,14.76919 2.96197,5.80594 10.298941,10.22159 19.776037,11.90192 1.425467,0.25274 23.351742,0.3729 48.725057,0.26701 32.92552,-0.13741 47.20702,-0.55233 49.88371,-1.44929 z"
       id="path3048"
       transform="scale(0.26458333)" />
  </g>
</svg>
