<?xml version="1.0" encoding="UTF-8" standalone="no"?>
<!-- Created with Inkscape (http://www.inkscape.org/) -->

<svg
   width="210mm"
   height="297mm"
   viewBox="0 0 210 297"
   version="1.1"
   id="svg5"
   inkscape:version="1.1.1 (3bf5ae0d25, 2021-09-20)"
   sodipodi:docname="dynamic  mic track icon svg.svg"
   xmlns:inkscape="http://www.inkscape.org/namespaces/inkscape"
   xmlns:sodipodi="http://sodipodi.sourceforge.net/DTD/sodipodi-0.dtd"
   xmlns="http://www.w3.org/2000/svg"
   xmlns:svg="http://www.w3.org/2000/svg">
  <sodipodi:namedview
     id="namedview7"
     pagecolor="#ffffff"
     bordercolor="#666666"
     borderopacity="1.0"
     inkscape:pageshadow="2"
     inkscape:pageopacity="0.0"
     inkscape:pagecheckerboard="0"
     inkscape:document-units="mm"
     showgrid="false"
     inkscape:zoom="1.1009789"
     inkscape:cx="83.561999"
     inkscape:cy="794.29313"
     inkscape:window-width="1680"
     inkscape:window-height="956"
     inkscape:window-x="-11"
     inkscape:window-y="-11"
     inkscape:window-maximized="1"
     inkscape:current-layer="layer1"
     showguides="false"
     inkscape:guide-bbox="true" />
  <defs
     id="defs2">
    <inkscape:path-effect
       effect="spiro"
       id="path-effect1669"
       is_visible="true"
       lpeversion="1" />
    <inkscape:path-effect
       effect="spiro"
       id="path-effect1663"
       is_visible="true"
       lpeversion="1" />
    <inkscape:path-effect
       effect="spiro"
       id="path-effect1544"
       is_visible="true"
       lpeversion="1" />
    <inkscape:path-effect
       effect="spiro"
       id="path-effect2054"
       is_visible="true"
       lpeversion="1" />
    <inkscape:path-effect
       effect="spiro"
       id="path-effect1881"
       is_visible="true"
       lpeversion="1" />
    <inkscape:path-effect
       effect="spiro"
       id="path-effect1875"
       is_visible="true"
       lpeversion="1" />
    <inkscape:path-effect
       effect="spiro"
       id="path-effect1360"
       is_visible="true"
       lpeversion="1" />
    <inkscape:path-effect
       effect="spiro"
       id="path-effect1157"
       is_visible="true"
       lpeversion="1" />
    <inkscape:path-effect
       effect="spiro"
       id="path-effect2785"
       is_visible="true"
       lpeversion="1" />
    <inkscape:path-effect
       effect="spiro"
       id="path-effect2650"
       is_visible="true"
       lpeversion="1" />
    <inkscape:path-effect
       effect="spiro"
       id="path-effect2453"
       is_visible="true"
       lpeversion="1" />
    <inkscape:path-effect
       effect="rough_hatches"
       id="path-effect2461"
       is_visible="true"
       lpeversion="1"
       direction="69.99843,260.92094 , 8.1437712,0"
       dist_rdm="6;1"
       growth="0"
       do_bend="true"
       bender="69.99843,265.92094 , 5,0"
       bottom_edge_variation="1.4602372;1"
       top_edge_variation="1.4602372;1"
       bottom_tgt_variation="0;1"
       top_tgt_variation="0;1"
       scale_bf="1"
       scale_bb="1"
       scale_tf="1"
       scale_tb="1"
       top_smth_variation="0;1"
       bottom_smth_variation="0;1"
       fat_output="true"
       stroke_width_top="1"
       stroke_width_bottom="1"
       front_thickness="1"
       back_thickness="0.25" />
    <inkscape:path-effect
       effect="skeletal"
       id="path-effect1945"
       is_visible="true"
       lpeversion="1"
       pattern="m 33.860958,87.614548 h 14.800324 c 5.651367,0 10.201025,4.549657 10.201025,10.201025 v 12.157417 c 0,5.65137 -4.549658,10.20103 -10.201025,10.20103 H 33.860958 c -5.651368,0 -10.201025,-4.54966 -10.201025,-10.20103 V 97.815573 c 0,-5.651368 4.549657,-10.201025 10.201025,-10.201025 z"
       copytype="repeated"
       prop_scale="1.28"
       scale_y_rel="false"
       spacing="2.6"
       normal_offset="0"
       tang_offset="0"
       prop_units="false"
       vertical_pattern="false"
       hide_knot="false"
       fuse_tolerance="0" />
    <inkscape:path-effect
       effect="skeletal"
       id="path-effect1762"
       is_visible="true"
       lpeversion="1"
       pattern="#rect1629"
       copytype="repeated"
       prop_scale="1"
       scale_y_rel="false"
       spacing="0"
       normal_offset="0"
       tang_offset="0"
       prop_units="false"
       vertical_pattern="false"
       hide_knot="false"
       fuse_tolerance="0" />
    <clipPath
       clipPathUnits="userSpaceOnUse"
       id="clipPath2716">
      <path
         id="path2718"
         style="fill:none;stroke:#000000;stroke-width:1.265;stroke-linecap:round;stroke-linejoin:round;stroke-miterlimit:4;stroke-dasharray:none;stroke-opacity:0.955017;paint-order:stroke markers fill"
         d="m 171.94247,92.538537 v 93.056333 h 63.42766 V 92.538537 Z m 1.8154,27.651543 c 0.3048,-5e-5 0.6134,0.29795 0.6134,0.894 v 0.49764 c 0.025,0.0197 0.0443,0.0352 0.0754,0.0594 -0.0191,-0.0239 -0.0814,-0.0908 -0.0574,-0.0718 0.35281,0.27864 0.45167,0.3023 0.52917,0.75809 -0.006,0.11727 -0.0131,0.23413 -0.0191,0.3514 0.0277,-0.0604 0.0147,-0.0598 0.0388,0.004 0.0859,0.28692 0.0325,0.58407 0.0305,0.87695 0.003,0.22514 0.004,0.45027 0.004,0.67541 0.0766,-0.0457 0.15873,-0.0718 0.24184,-0.0718 0.0408,0 0.0814,0.006 0.12144,0.0171 v -0.80874 c 0,-0.59503 0.29995,-0.89298 0.60048,-0.894 v 5.3e-4 h 5.3e-4 c 0.3009,2.6e-4 0.60152,0.29828 0.60152,0.894 v 1.39216 1.12448 1.37821 c 0.0567,-0.29605 0.0576,-0.26053 0.0594,-0.21394 0.0186,-0.0582 0.041,-0.11104 0.0667,-0.15864 0.001,-0.006 0.001,-0.003 0.003,-0.009 0.0294,-0.12516 0.0424,-0.25354 0.0636,-0.38034 h -0.001 c 0.0892,-0.53274 0.33706,-0.77868 0.58291,-0.77773 0.29672,0.001 0.59045,0.36198 0.59789,1.01389 10e-4,0.10111 -0.0177,0.19737 -0.0429,0.29249 0.0713,0.14079 0.11576,0.32478 0.11576,0.55294 v 1.45262 c -0.0237,0.34855 -0.13495,0.66485 -0.24081,0.99116 v 0.45165 c 0,1.11188 -1.04705,1.18648 -1.18805,0.22428 -0.17076,-0.083 -0.31469,-0.26974 -0.36483,-0.56276 -0.34057,0.21245 -0.80769,-0.0317 -0.84698,-0.72709 -0.3623,0.30307 -1.02482,0.0418 -0.98857,-0.77876 0.002,-0.0559 0.005,-0.11205 0.007,-0.16795 0.008,-0.0387 0.0168,-0.0888 0.0279,-0.14418 -0.0137,-0.0477 -0.007,-0.0903 0.0279,-0.12299 -0.0107,0.0426 -0.02,0.084 -0.0279,0.12299 0.058,0.2023 0.4812,0.50379 0.71107,0.6072 0.0308,0.0139 0.13028,-0.0514 0.23461,-0.12867 v -0.31006 c -0.18047,-0.0918 -0.36886,-0.31369 -0.56844,-0.43305 -0.0831,0.0184 -0.1765,0.0511 -0.28112,0.10025 -0.0171,0.17295 0.005,0.35404 -0.0217,0.0104 -0.001,5.3e-4 -0.002,0.001 -0.004,0.002 -0.0171,0.008 -0.0306,0.018 -0.0418,0.0284 0.0123,-0.0488 0.0268,-0.0984 0.0444,-0.14676 0.002,-0.21005 -0.002,-0.25354 0.045,-0.51004 0.0173,-0.0934 0.0465,-0.18435 0.0718,-0.27596 -0.25462,-0.34269 -0.61231,-1.84643 -0.71934,-0.96583 -0.0243,0.20019 0.0306,0.4274 -0.0729,0.60048 -0.085,0.14224 -0.11324,-0.42935 -0.11524,-0.45475 -0.0403,-0.14283 -0.12568,-0.4406 -0.14418,-0.54312 -0.0332,-0.18404 0.0284,-0.38509 0,-0.56999 v -1.36219 c 0,-0.35008 0.10499,-0.59453 0.25167,-0.73898 0.004,-0.0736 0.006,-0.14676 0.002,-0.21859 -0.0536,-0.20233 -0.0729,-0.23854 -0.0739,-0.45268 -0.0249,-0.0116 -0.0499,-0.023 -0.0744,-0.0351 0.19801,0.0499 -0.13475,-0.0277 -0.27388,-0.21032 -0.28065,-0.36836 -0.18164,-0.81235 -0.19224,-1.23456 -0.015,-0.59586 0.28637,-0.89395 0.59118,-0.894 z m 0.0165,2.40502 c 0.015,0.0194 0.0307,0.0377 0.0512,0.0506 0.0497,0.0315 0.21618,0.091 0.16588,0.0605 -0.0695,-0.0421 -0.1431,-0.0771 -0.21704,-0.1111 z m 53.54919,0.44545 v 5.3e-4 5.3e-4 c 0.23913,-0.006 0.5121,0.17404 0.69195,0.60358 0.1061,0.2534 0.23772,0.49751 0.31832,0.76016 0.18101,0.5901 0.28893,1.11131 0.38138,1.65261 0.24153,0.0852 0.44751,0.37362 0.44751,0.86662 v 0.46509 c 0.17404,-0.30525 0.39801,-0.45168 0.60255,-0.47388 v -0.29197 c 0,-0.59605 0.30098,-0.894 0.60203,-0.894 0.009,0 0.0182,0.003 0.0274,0.004 0.0552,-0.27863 0.19067,-0.45921 0.35037,-0.5457 0.0671,-0.44178 0.32578,-0.66301 0.58497,-0.66301 0.30106,0 0.60255,0.29795 0.60255,0.89401 v 1.11414 c 0.11682,0.15512 0.16028,0.59889 0.15038,0.78238 -0.004,0.0691 -0.0217,0.13686 -0.0326,0.20516 -0.004,0.0114 -0.008,0.0228 -0.0114,0.0341 0.001,-7.9e-4 0.002,2.7e-4 0.003,0.002 0.032,0.078 0.0116,0.6811 0.0124,0.78497 0.002,0.27842 -0.004,0.55718 -0.002,0.8356 7e-5,0.0121 5.3e-4,0.0241 5.3e-4,0.0362 0.003,0.52925 -0.23205,0.82453 -0.49557,0.88573 -0.0679,0.5869 -0.4593,0.81442 -0.7767,0.67489 -0.25025,0.32889 -0.68475,0.29165 -0.89452,-0.11058 -0.1006,0.21278 -0.25198,0.33849 -0.41083,0.38189 -7.9e-4,0.0313 -0.0709,0.055 -0.25114,0.0667 -0.0304,0.002 -0.061,0.005 -0.0915,0.008 -5e-5,0.005 6e-5,0.007 0,0.0114 -0.0174,0.24271 -0.0309,0.48566 -0.0517,0.72812 0.15541,0.0128 0.21709,0.11304 0.0791,0.38292 -0.2783,0.54229 -0.24936,0.81681 -1.19941,0.3545 -0.12467,-0.0607 -0.13935,-0.2551 -0.12609,-0.44183 0.066,0.0686 0.61391,-0.18556 1.0051,-0.26975 -0.55671,-0.31293 -0.56029,-0.2466 -0.83664,0.0248 -0.0907,0.0891 -0.14314,0.15008 -0.16433,0.19069 0.012,-0.12284 0.0331,-0.23627 0.0388,-0.29818 0.0174,-0.19098 0.0294,-0.38233 0.0429,-0.5736 -0.0367,0.001 -0.10147,0.001 -0.20877,-0.003 -0.003,0.1686 -0.0477,0.0956 -0.3638,0.002 -0.85874,0.0368 -0.83887,0.29404 -0.8413,-0.14831 v -5.3e-4 c -5e-5,-0.007 8e-5,-0.0133 0,-0.0212 0.007,-0.21925 0.003,-0.13215 0.0181,-0.37723 0.005,-0.073 0.007,-0.14621 0.0139,-0.21911 0.002,-0.0229 0.003,-0.0466 0.0119,-0.0677 0.002,-0.005 0.016,0.009 0.015,0.004 -0.007,-0.0311 -0.0227,-0.0596 -0.0341,-0.0894 -0.0849,-0.226 -0.15951,-0.44774 -0.21911,-0.68575 -0.007,-0.0267 0.018,0.0532 0.0336,0.0754 0.009,0.0126 -0.008,-0.0292 -0.0124,-0.0439 -0.37529,-0.72619 -0.43411,-1.56411 -0.42168,-2.36988 0.009,-0.59599 0.31001,-0.89399 0.60875,-0.894 0.29874,-2e-5 0.59532,0.29795 0.59532,0.894 0,0.0307 1e-4,0.0252 0,0.0522 0.10496,-0.10814 0.23296,-0.16279 0.36122,-0.16279 0.0688,0 0.1374,0.0165 0.20257,0.0476 -0.11477,-0.77567 -0.23289,-1.60322 -0.45734,-2.35438 -0.0708,-0.23676 -0.1891,-0.45643 -0.2837,-0.68471 -0.2781,-0.6711 0.0119,-1.13272 0.38499,-1.14205 z m -50.78501,6.28696 c 0,0.14578 -0.0185,0.27328 -0.0501,0.38343 0.0202,0.005 0.031,0.007 0.0501,0.0119 v -0.0424 z m 51.39892,1.09915 c -0.0562,0.0948 -0.12572,0.16613 -0.20205,0.21498 -0.009,0.15264 -0.0206,0.30569 -0.0253,0.4563 5.3e-4,0.0353 0.001,0.0652 0.002,0.0909 0.0962,0.0104 0.16913,0.0193 0.2098,0.0264 0.002,-0.0329 0.005,-0.0658 0.007,-0.0987 0.004,-0.28401 0.005,-0.47104 0.009,-0.68988 z m -0.0987,1.67483 c -0.002,0.0177 -0.003,0.0353 -0.004,0.0532 -0.01,-0.0101 -0.009,-0.0275 0.004,-0.0532 z m 1.08262,13.01626 h 5.3e-4 c 0.21847,0 0.43559,0.159 0.53899,0.47284 0.0928,-0.0738 0.19841,-0.11162 0.30437,-0.11162 0.30106,0 0.60203,0.29796 0.60203,0.894 v 0.37776 c 0.0762,-0.0446 0.15842,-0.0677 0.24081,-0.0677 0.25155,0 0.50079,0.21078 0.57671,0.62684 0.0478,-0.0159 0.0967,-0.0248 0.14573,-0.0248 0.30106,0 0.60203,0.29794 0.60203,0.894 v 1.57303 c 0.0157,0.12506 -0.0213,0.26017 -0.002,0.38447 0.001,0.001 0.002,0.002 0.003,0.004 5.3e-4,-0.0211 10e-4,-0.0686 0.0165,-0.0615 0.0166,0.007 0.0473,0.0964 0.0729,0.17828 0.21492,0.32555 0.17921,0.67555 0.14366,1.06402 -0.001,0.26308 0.009,0.52596 0.008,0.78909 -0.002,0.31037 -0.002,0.62083 -0.001,0.93121 1.4e-4,0.17229 -5.3e-4,0.34498 -5.3e-4,0.51729 4e-5,0.15635 5.3e-4,0.31234 5.3e-4,0.4687 -5e-5,1.19211 -1.2044,1.19212 -1.20458,0 v -0.17467 c -0.13995,0.14334 -0.10051,0.033 0,-0.21445 v -0.0796 -0.12868 c -0.19323,0.20208 -0.46501,0.22038 -0.67179,0.0517 -0.0626,0.006 -0.12279,0.0116 -0.1757,0.0124 -0.008,0.0333 -0.0161,0.0691 -0.0243,0.10542 0.0843,0.0908 0.17785,0.17577 0.23151,0.28576 0.0486,0.0995 -0.16348,-0.1488 -0.24546,-0.22324 0.005,-0.022 0.009,-0.0415 0.0134,-0.0625 -0.0331,-0.0357 -0.0647,-0.0722 -0.092,-0.11163 -0.12086,-0.0178 -0.1689,-0.0773 -0.077,-0.216 -0.003,-0.0378 -0.002,-0.0762 -5.3e-4,-0.11421 -0.12402,0.0924 -0.26899,0.12063 -0.40617,0.0827 v 0.34985 c 0,1.19211 -1.20406,1.19211 -1.20406,0 v -0.41134 c -0.12021,-0.0281 -0.23409,-0.10348 -0.32195,-0.22635 -0.22015,-0.10482 -0.40049,-0.38283 -0.40049,-0.84284 v -0.0811 -0.88057 -0.12247 c -0.0589,-0.17822 -0.10784,-0.35978 -0.13281,-0.54932 0.0163,-0.15638 0.0122,-0.20264 0.0543,-0.34261 0.007,-0.0225 0.0144,0.0459 0.03,0.0636 0.007,0.007 0.008,-0.0184 0.0124,-0.0274 -0.0194,-0.0469 -0.0395,-0.0937 -0.0589,-0.14056 -0.15553,-0.26576 -0.19167,-0.28798 -0.26407,-0.63045 -0.0135,-0.0638 0,-0.13066 0,-0.19586 V 148.3 h -5.2e-4 c 0,-0.42015 0.15862,-0.69129 0.3607,-0.81494 v -1.41231 c 0,-0.59604 0.30096,-0.89401 0.60203,-0.89401 0.1172,0 0.23439,0.0456 0.33383,0.13591 0.1097,-0.1289 0.2486,-0.19585 0.3886,-0.19585 z m -51.42166,1.20303 h 5.3e-4 5.2e-4 l 5.3e-4,5.3e-4 v 5.3e-4 h 5.3e-4 5.3e-4 c 0.25897,2.6e-4 0.51689,0.22218 0.58395,0.66353 0.10806,-0.12084 0.24322,-0.1819 0.37878,-0.1819 0.0779,0 0.1557,0.0206 0.22841,0.0605 0.004,-1e-4 0.008,-5.3e-4 0.0119,-5.3e-4 0.30103,0 0.60255,0.29846 0.60255,0.89452 v 1.38441 c 0,0.16557 -0.0197,0.33273 0,0.49713 0.0154,0.12848 0.0696,0.24899 0.10438,0.37362 0.0464,0.0885 0.094,0.17641 0.13901,0.26561 0.11147,0.22077 0.25827,0.51673 0.34159,0.74879 0.0666,0.18558 0.13183,0.64856 0.13384,0.4377 0.15825,0.28567 0.17203,0.6006 0.14934,0.91829 -0.008,0.11723 -0.0348,0.23223 -0.0351,0.34985 0.0163,0.31146 0.014,0.6236 0.0104,0.93535 -0.0149,1.19208 -1.21966,1.17721 -1.20406,-0.015 0.004,-0.30295 0.001,-0.60616 -0.008,-0.90899 -0.30267,0.0992 -0.55627,-1.91869 -0.83458,-0.93844 -2.6e-4,0.001 2e-5,0.001 -5.3e-4,0.002 v 1.38131 1.12758 c 0,0.32519 -0.0905,0.55929 -0.22066,0.70693 -3e-5,0.0104 5.3e-4,0.0188 5.3e-4,0.0295 0.22492,-0.0232 0.29567,-0.0269 0,0.002 -1e-4,0.0122 2e-4,0.0233 0,0.0362 -5.3e-4,0.0583 0.0471,0.16566 -0.0108,0.17466 -0.39678,0.0588 -0.80241,0.004 -1.20355,0.006 -0.38895,0.002 -0.26841,-0.0332 0.0248,-0.077 -0.051,-0.0604 -0.009,-0.23636 -0.0372,-0.62942 -0.007,-0.0622 -0.014,-0.11544 -0.0212,-0.17364 -0.0982,-0.41871 -0.17525,-0.88901 -0.3979,-0.56224 0.097,0.21276 0.10499,0.35451 0.10025,0.65785 0.0334,0.0894 -0.0812,0.19213 -0.0589,0.28783 0.22797,0.97981 -0.87041,1.08436 -1.14412,0.38189 -0.31692,-0.015 -0.83571,-1.66454 -0.9555,-0.70125 -0.007,0.0543 -0.0247,0.10819 -0.0207,0.16278 2.2e-4,0.003 0.001,0.006 0.002,0.009 0.0145,0.032 0.0273,0.0641 0.0403,0.0966 0.004,0.0102 0.002,0.0436 -5.3e-4,0.0331 -0.0138,-0.0431 -0.0347,-0.085 -0.0403,-0.1297 -0.0537,-0.11873 -0.11361,-0.23501 -0.15244,-0.35916 -0.016,-0.0511 7.9e-4,-0.10721 0.001,-0.16071 0.002,-0.41579 -0.009,-0.83116 -0.008,-1.24695 0.0195,-0.5605 0.0847,-1.12031 -0.0418,-1.67535 h 5.3e-4 c -0.10073,-0.44212 0.007,-0.74923 0.1943,-0.8971 -0.0337,-0.0525 -0.0617,-0.0948 -0.11007,-0.17415 -0.0441,-0.0724 -0.0626,-0.15842 -0.0827,-0.24082 -0.0892,-0.36566 -0.0839,-0.72048 -0.0739,-1.09399 h 5.3e-4 c 0.0155,-0.59586 0.29116,-0.89293 0.57567,-0.89245 0.13904,2.4e-4 0.27989,0.0723 0.39378,0.21446 0.0356,-0.2545 0.1861,-0.4201 0.37672,-0.46664 0.0375,-0.0148 0.0775,-0.024 0.1204,-0.0248 0.1841,-0.003 0.41338,0.12813 0.64493,0.44338 1.8e-4,2.3e-4 0.63781,0.864 0.66611,0.91881 0.0918,0.17751 0.16737,0.36318 0.23254,0.55242 v -0.42116 -1.88929 c 0,-0.59572 0.30061,-0.89366 0.60151,-0.894 z m -2.40606,2.76624 c -0.008,0.17824 -0.0165,0.35526 0.046,0.52658 0.0112,0.0307 0.008,0.0775 0.0382,0.0904 0.0215,0.009 0.007,-0.0461 0.0103,-0.0692 0.0307,0.0441 0.0613,0.0882 0.092,0.13229 -0.0553,-0.22866 -0.11301,-0.45655 -0.18655,-0.68006 z m 0.72451,3.78013 c 2e-5,0.003 -3e-5,0.006 0,0.009 -1.3e-4,0.0127 1.2e-4,0.0255 0,0.0382 0.0125,0.0163 0.0255,0.0341 0.0372,0.0486 -0.0112,-0.0327 -0.0228,-0.065 -0.0372,-0.0956 z m 0.25734,0.59118 c 8e-5,2.7e-4 5.3e-4,7.9e-4 5.3e-4,0.001 -1e-5,-2.7e-4 -3e-5,-5.3e-4 0,-0.001 z m 5.3e-4,0.002 c -0.002,0.0208 -0.004,0.0421 -0.008,0.0667 0.01,-0.002 0.0178,-0.001 0.0248,0.008 -0.006,-0.0255 -0.0112,-0.0496 -0.017,-0.0744 z" />
    </clipPath>
  </defs>
  <g
     inkscape:label="Layer 1"
     inkscape:groupmode="layer"
     id="layer1">
    <g
       id="g1779"
       transform="matrix(0.41268051,0,0,0.45404069,69.846816,10.324076)" />
    <path
       id="rect2174"
       style="fill:none;stroke:#000000;stroke-width:1.112;stroke-linecap:round;stroke-linejoin:round;stroke-opacity:0.955017;paint-order:stroke markers fill;stroke-miterlimit:4;stroke-dasharray:none"
       d="m 24.971104,55.01598 h 15.52967 c 1.40633,0 2.53851,0.681317 2.53851,1.527618 0,0.846294 -1.13218,1.527612 -2.53851,1.527612 h -15.52967 c -1.40633,0 -2.5385,-0.681318 -2.5385,-1.527612 0,-0.846301 1.13217,-1.527618 2.5385,-1.527618 z m -4.33038,32.708857 c 1.98541,0 3.58377,0.96186 3.58377,2.15663 v 11.142583 c 0,1.19476 -1.59836,2.15662 -3.58377,2.15662 -1.98541,0 -3.58377,-0.96186 -3.58377,-2.15662 V 89.881467 c 0,-1.19477 1.59836,-2.15663 3.58377,-2.15663 z m -5.07701,-23.183746 h 33.74717 c 2.48176,0 4.47971,1.202319 4.47971,2.695784 v 7.907631 c 0,1.493465 -1.99795,2.695781 -4.47971,2.695781 h -33.74717 c -2.48175,0 -4.47971,-1.202316 -4.47971,-2.695781 v -7.907631 c 0,-1.493465 1.99796,-2.695784 4.47971,-2.695784 z m 2.98649,-17.792178 h 28.07283 c 3.97082,0 7.16756,1.923716 7.16756,4.313263 v 53.915674 c 0,2.38954 -3.19674,4.31327 -7.16756,4.31327 h -28.07283 c -3.97082,0 -7.16755,-1.92373 -7.16755,-4.31327 V 51.062176 c 0,-2.389547 3.19673,-4.313263 7.16755,-4.313263 z m 13.4021,-35.814222 c 0,0.473815 -1.36447,0.855262 -3.05933,0.855262 -1.69485,0 -3.05931,-0.381447 -3.05931,-0.855262 0,-0.473816 1.36446,-0.855261 3.05931,-0.855261 1.69486,0 3.05933,0.381445 3.05933,0.855261 z m -8.12303,0.331067 c 0,0.534954 -1.36447,0.965618 -3.05932,0.965618 -1.69486,0 -3.05932,-0.430664 -3.05932,-0.965618 0,-0.534951 1.36446,-0.965616 3.05932,-0.965616 1.69485,0 3.05932,0.430665 3.05932,0.965616 z m 24.05258,-1.048384 c 0,0.473815 -1.36446,0.855262 -3.05931,0.855262 -1.69487,0 -3.05932,-0.381447 -3.05932,-0.855262 0,-0.4738148 1.36445,-0.8552618 3.05932,-0.8552618 1.69485,0 3.05931,0.381447 3.05931,0.8552618 z m -8.12301,0.331068 c 0,0.534953 -1.36446,0.965617 -3.05933,0.965617 -1.69486,0 -3.05932,-0.430664 -3.05932,-0.965617 0,-0.534953 1.36446,-0.9656188 3.05932,-0.9656188 1.69487,0 3.05933,0.4306658 3.05933,0.9656188 z m 15.92391,15.640146 -0.12325,8.323171 m -44.41134,-8.323171 -0.123261,8.323171 m 20.731641,7.384728 c 0,0.663107 -1.41955,1.196943 -3.18287,1.196943 -1.76329,0 -3.18286,-0.533836 -3.18286,-1.196943 0,-0.663107 1.41957,-1.196941 3.18286,-1.196941 1.76332,0 3.18287,0.533834 3.18287,1.196941 z m -8.45104,0.463333 c 0,0.748666 -1.41954,1.351382 -3.18286,1.351382 -1.76329,0 -3.18286,-0.602716 -3.18286,-1.351382 0,-0.748671 1.41957,-1.351388 3.18286,-1.351388 1.76332,0 3.18286,0.602717 3.18286,1.351388 z m 25.02385,-1.467221 c 0,0.663107 -1.41955,1.196944 -3.18286,1.196944 -1.76329,0 -3.18286,-0.533837 -3.18286,-1.196944 0,-0.663107 1.41957,-1.196942 3.18286,-1.196942 1.76331,0 3.18286,0.533835 3.18286,1.196942 z m -8.45103,0.463331 c 0,0.748669 -1.41956,1.351389 -3.18287,1.351389 -1.76328,0 -3.18285,-0.60272 -3.18285,-1.351389 0,-0.748667 1.41957,-1.351387 3.18285,-1.351387 1.76331,0 3.18287,0.60272 3.18287,1.351387 z m -9.06932,-6.830902 c 0,0.663105 -1.41956,1.196945 -3.18287,1.196945 -1.76329,0 -3.18285,-0.53384 -3.18285,-1.196945 0,-0.663108 1.41956,-1.196942 3.18285,-1.196942 1.76331,0 3.18287,0.533834 3.18287,1.196942 z m -8.45104,0.463331 c 0,0.748671 -1.41955,1.351388 -3.18286,1.351388 -1.76331,0 -3.18286,-0.602717 -3.18286,-1.351388 0,-0.748668 1.41955,-1.351385 3.18286,-1.351385 1.76331,0 3.18286,0.602717 3.18286,1.351385 z m 25.02385,-1.46722 c 0,0.663109 -1.41956,1.196944 -3.18285,1.196944 -1.76331,0 -3.18286,-0.533835 -3.18286,-1.196944 0,-0.663106 1.41955,-1.196941 3.18286,-1.196941 1.76329,0 3.18285,0.533835 3.18285,1.196941 z m -8.45104,0.463331 c 0,0.74867 -1.41955,1.351389 -3.18286,1.351389 -1.7633,0 -3.18284,-0.602719 -3.18284,-1.351389 0,-0.748667 1.41954,-1.351386 3.18284,-1.351386 1.76331,0 3.18286,0.602719 3.18286,1.351386 z m -21.25058,-4.246009 h 31.18121 c 3.68703,0 6.65529,1.965261 6.65529,4.406411 v 8.323214 c 0,2.441152 -2.96826,4.406399 -6.65529,4.406399 h -31.18121 c -3.68703,0 -6.655291,-1.965247 -6.655291,-4.406399 v -8.323214 c 0,-2.44115 2.968261,-4.406411 6.655291,-4.406411 z m 3.94387,1.713606 h 21.32154 c 3.68704,0 6.65528,1.965259 6.65528,4.406411 v 4.406407 c 0,2.44115 -2.96824,4.406407 -6.65528,4.406407 h -21.32154 c -3.68703,0 -6.65529,-1.965257 -6.65529,-4.406407 v -4.406407 c 0,-2.441152 2.96826,-4.406411 6.65529,-4.406411 z m 10.13248,6.680271 c 0,0.663105 -1.41955,1.196942 -3.18287,1.196942 -1.76329,0 -3.18286,-0.533837 -3.18286,-1.196942 0,-0.663109 1.41957,-1.196941 3.18286,-1.196941 1.76332,0 3.18287,0.533832 3.18287,1.196941 z m -8.45104,0.463331 c 0,0.748667 -1.41954,1.351387 -3.18286,1.351387 -1.76329,0 -3.18286,-0.60272 -3.18286,-1.351387 0,-0.748669 1.41957,-1.351386 3.18286,-1.351386 1.76332,0 3.18286,0.602717 3.18286,1.351386 z m 25.02385,-1.467221 c 0,0.663109 -1.41955,1.196945 -3.18286,1.196945 -1.76329,0 -3.18286,-0.533836 -3.18286,-1.196945 0,-0.663105 1.41957,-1.196944 3.18286,-1.196944 1.76331,0 3.18286,0.533839 3.18286,1.196944 z m -8.45103,0.463333 c 0,0.748669 -1.41956,1.351386 -3.18287,1.351386 -1.76328,0 -3.18285,-0.602717 -3.18285,-1.351386 0,-0.748668 1.41957,-1.351387 3.18285,-1.351387 1.76331,0 3.18287,0.602719 3.18287,1.351387 z M 11.517894,14.846227 c 0.83641,-2.254262 2.49967,-4.371996 4.80659,-6.1199798 2.60252,-1.97196 6.02206,-3.466442 9.78363,-4.275854 3.76156,-0.8094134 7.85477,-0.9315194 11.71103,-0.3493584 3.85627,0.5821614 7.46496,1.8669804 10.32477,3.6759894 2.85982,1.80901 4.96289,4.1372118 6.01708,6.6612038 M 31.948524,8.4050992 c 0,0.473815 -1.28143,0.855263 -2.87318,0.855263 -1.59175,0 -2.87318,-0.381448 -2.87318,-0.855263 0,-0.473815 1.28143,-0.855261 2.87318,-0.855261 1.59175,0 2.87318,0.381446 2.87318,0.855261 z m -7.62879,0.331068 c 0,0.534953 -1.28145,0.965617 -2.87319,0.965617 -1.59174,0 -2.87318,-0.430664 -2.87318,-0.965617 0,-0.534952 1.28144,-0.965616 2.87318,-0.965616 1.59174,0 2.87319,0.430664 2.87319,0.965616 z m 22.58917,-1.048384 c 0,0.473814 -1.28145,0.855263 -2.87319,0.855263 -1.59174,0 -2.87317,-0.381449 -2.87317,-0.855263 0,-0.473815 1.28143,-0.855263 2.87317,-0.855263 1.59174,0 2.87319,0.381448 2.87319,0.855263 z m -7.6288,0.331069 c 0,0.534953 -1.28144,0.965617 -2.87319,0.965617 -1.59173,0 -2.87318,-0.430664 -2.87318,-0.965617 0,-0.534954 1.28145,-0.96562 2.87318,-0.96562 1.59175,0 2.87319,0.430666 2.87319,0.96562 z m -7.52356,16.7821388 c 0,0.663103 -1.41955,1.196938 -3.18287,1.196938 -1.76329,0 -3.18286,-0.533835 -3.18286,-1.196938 0,-0.663103 1.41957,-1.196934 3.18286,-1.196934 1.76332,0 3.18287,0.533831 3.18287,1.196934 z m -8.45104,0.46333 c 0,0.748665 -1.41954,1.351378 -3.18286,1.351378 -1.76329,0 -3.18286,-0.602713 -3.18286,-1.351378 0,-0.748665 1.41957,-1.351379 3.18286,-1.351379 1.76332,0 3.18286,0.602714 3.18286,1.351379 z m 25.02385,-1.467211 c 0,0.663102 -1.41955,1.196937 -3.18286,1.196937 -1.76329,0 -3.18286,-0.533835 -3.18286,-1.196937 0,-0.663103 1.41957,-1.196938 3.18286,-1.196938 1.76331,0 3.18286,0.533835 3.18286,1.196938 z m -8.45103,0.463328 c 0,0.748665 -1.41956,1.351379 -3.18287,1.351379 -1.76328,0 -3.18285,-0.602714 -3.18285,-1.351379 0,-0.748665 1.41957,-1.351381 3.18285,-1.351381 1.76331,0 3.18287,0.602716 3.18287,1.351381 z m -9.06932,-6.830864 c 0,0.663102 -1.41956,1.196937 -3.18287,1.196937 -1.76329,0 -3.18285,-0.533835 -3.18285,-1.196937 0,-0.663103 1.41956,-1.196935 3.18285,-1.196935 1.76331,0 3.18287,0.533832 3.18287,1.196935 z m -8.45104,0.463329 c 0,0.748664 -1.41955,1.351379 -3.18286,1.351379 -1.76331,0 -3.18286,-0.602715 -3.18286,-1.351379 0,-0.748665 1.41955,-1.35138 3.18286,-1.35138 1.76331,0 3.18286,0.602715 3.18286,1.35138 z m 25.02385,-1.467212 c 0,0.663103 -1.41956,1.196938 -3.18285,1.196938 -1.76331,0 -3.18286,-0.533835 -3.18286,-1.196938 0,-0.663102 1.41955,-1.196936 3.18286,-1.196936 1.76329,0 3.18285,0.533834 3.18285,1.196936 z m -8.45104,0.463329 c 0,0.748665 -1.41955,1.351379 -3.18286,1.351379 -1.7633,0 -3.18284,-0.602714 -3.18284,-1.351379 0,-0.748665 1.41954,-1.35138 3.18284,-1.35138 1.76331,0 3.18286,0.602715 3.18286,1.35138 z m -21.25058,-4.245986 h 31.18121 c 3.68703,0 6.65529,1.965248 6.65529,4.406388 v 8.323166 c 0,2.44114 -2.96826,4.406387 -6.65529,4.406387 h -31.18121 c -3.68703,0 -6.655291,-1.965247 -6.655291,-4.406387 v -8.323166 c 0,-2.44114 2.968261,-4.406388 6.655291,-4.406388 z m 3.94387,1.713596 h 21.32154 c 3.68704,0 6.65528,1.965247 6.65528,4.406385 v 4.406383 c 0,2.441137 -2.96824,4.406385 -6.65528,4.406385 h -21.32154 c -3.68703,0 -6.65529,-1.965248 -6.65529,-4.406385 v -4.406383 c 0,-2.441138 2.96826,-4.406385 6.65529,-4.406385 z m 10.13248,6.680232 c 0,0.663103 -1.41955,1.196938 -3.18287,1.196938 -1.76329,0 -3.18286,-0.533835 -3.18286,-1.196938 0,-0.663102 1.41957,-1.196934 3.18286,-1.196934 1.76332,0 3.18287,0.533832 3.18287,1.196934 z m -8.45104,0.46333 c 0,0.748665 -1.41954,1.351378 -3.18286,1.351378 -1.76329,0 -3.18286,-0.602713 -3.18286,-1.351378 0,-0.748665 1.41957,-1.351379 3.18286,-1.351379 1.76332,0 3.18286,0.602714 3.18286,1.351379 z m 25.02385,-1.467211 c 0,0.663103 -1.41955,1.196938 -3.18286,1.196938 -1.76329,0 -3.18286,-0.533835 -3.18286,-1.196938 0,-0.663103 1.41957,-1.196938 3.18286,-1.196938 1.76331,0 3.18286,0.533835 3.18286,1.196938 z m -8.45103,0.463329 c 0,0.748664 -1.41956,1.351379 -3.18287,1.351379 -1.76328,0 -3.18285,-0.602715 -3.18285,-1.351379 0,-0.748665 1.41957,-1.351382 3.18285,-1.351382 1.76331,0 3.18287,0.602717 3.18287,1.351382 z" />
    <g
       id="g2614"
       style="stroke-width:1;stroke-miterlimit:4;stroke-dasharray:none">
      <path
         id="path2299"
         style="fill:none;stroke:#000000;stroke-width:1;stroke-linecap:round;stroke-linejoin:round;stroke-opacity:0.955017;paint-order:stroke markers fill;stroke-miterlimit:4;stroke-dasharray:none"
         d="m 164.67155,55.01598 h 15.52975 c 1.40634,0 2.53853,0.681317 2.53853,1.527618 0,0.846294 -1.13219,1.527612 -2.53853,1.527612 h -15.52975 c -1.40634,0 -2.53852,-0.681318 -2.53852,-1.527612 0,-0.846301 1.13218,-1.527618 2.53852,-1.527618 z m -4.33041,32.708857 c 1.98542,0 3.58379,0.96186 3.58379,2.15663 v 11.142583 c 0,1.19476 -1.59837,2.15662 -3.58379,2.15662 -1.98542,0 -3.58379,-0.96186 -3.58379,-2.15662 V 89.881467 c 0,-1.19477 1.59837,-2.15663 3.58379,-2.15663 z M 155.2641,64.541091 h 33.74737 c 2.48177,0 4.47973,1.202319 4.47973,2.695784 v 7.907631 c 0,1.493465 -1.99796,2.695781 -4.47973,2.695781 H 155.2641 c -2.48176,0 -4.47973,-1.202316 -4.47973,-2.695781 v -7.907631 c 0,-1.493465 1.99797,-2.695784 4.47973,-2.695784 z m 2.98651,-17.792178 h 28.07299 c 3.97084,0 7.1676,1.923716 7.1676,4.313263 v 53.915674 c 0,2.38954 -3.19676,4.31327 -7.1676,4.31327 h -28.07299 c -3.97084,0 -7.16759,-1.92373 -7.16759,-4.31327 V 51.062176 c 0,-2.389547 3.19675,-4.313263 7.16759,-4.313263 z m 13.40218,-35.814222 c 0,0.473815 -1.36448,0.855262 -3.05935,0.855262 -1.69486,0 -3.05933,-0.381447 -3.05933,-0.855262 0,-0.473816 1.36447,-0.855261 3.05933,-0.855261 1.69487,0 3.05935,0.381445 3.05935,0.855261 z m -8.12308,0.331067 c 0,0.534954 -1.36448,0.965618 -3.05934,0.965618 -1.69487,0 -3.05933,-0.430664 -3.05933,-0.965618 0,-0.534951 1.36446,-0.965616 3.05933,-0.965616 1.69486,0 3.05934,0.430665 3.05934,0.965616 z m 24.05272,-1.048384 c 0,0.473815 -1.36447,0.855262 -3.05933,0.855262 -1.69488,0 -3.05934,-0.381447 -3.05934,-0.855262 0,-0.4738148 1.36446,-0.8552618 3.05934,-0.8552618 1.69486,0 3.05933,0.381447 3.05933,0.8552618 z m -8.12306,0.331068 c 0,0.534953 -1.36447,0.965617 -3.05935,0.965617 -1.69487,0 -3.05933,-0.430664 -3.05933,-0.965617 0,-0.534953 1.36446,-0.9656188 3.05933,-0.9656188 1.69488,0 3.05935,0.4306658 3.05935,0.9656188 z m 15.924,15.640146 -0.12325,8.323171 m -44.41159,-8.323171 -0.12326,8.323171 m 20.73176,7.384728 c 0,0.663107 -1.41956,1.196943 -3.18289,1.196943 -1.7633,0 -3.18288,-0.533836 -3.18288,-1.196943 0,-0.663107 1.41958,-1.196941 3.18288,-1.196941 1.76333,0 3.18289,0.533834 3.18289,1.196941 z m -8.45109,0.463333 c 0,0.748666 -1.41955,1.351382 -3.18288,1.351382 -1.7633,0 -3.18288,-0.602716 -3.18288,-1.351382 0,-0.748671 1.41958,-1.351388 3.18288,-1.351388 1.76333,0 3.18288,0.602717 3.18288,1.351388 z m 25.02399,-1.467221 c 0,0.663107 -1.41956,1.196944 -3.18288,1.196944 -1.7633,0 -3.18288,-0.533837 -3.18288,-1.196944 0,-0.663107 1.41958,-1.196942 3.18288,-1.196942 1.76332,0 3.18288,0.533835 3.18288,1.196942 z m -8.45108,0.463331 c 0,0.748669 -1.41957,1.351389 -3.18289,1.351389 -1.76329,0 -3.18286,-0.60272 -3.18286,-1.351389 0,-0.748667 1.41957,-1.351387 3.18286,-1.351387 1.76332,0 3.18289,0.60272 3.18289,1.351387 z m -9.06937,-6.830902 c 0,0.663105 -1.41957,1.196945 -3.18289,1.196945 -1.7633,0 -3.18287,-0.53384 -3.18287,-1.196945 0,-0.663108 1.41957,-1.196942 3.18287,-1.196942 1.76332,0 3.18289,0.533834 3.18289,1.196942 z m -8.45109,0.463331 c 0,0.748671 -1.41956,1.351388 -3.18288,1.351388 -1.76332,0 -3.18287,-0.602717 -3.18287,-1.351388 0,-0.748668 1.41955,-1.351385 3.18287,-1.351385 1.76332,0 3.18288,0.602717 3.18288,1.351385 z m 25.02399,-1.46722 c 0,0.663109 -1.41957,1.196944 -3.18286,1.196944 -1.76332,0 -3.18288,-0.533835 -3.18288,-1.196944 0,-0.663106 1.41956,-1.196941 3.18288,-1.196941 1.76329,0 3.18286,0.533835 3.18286,1.196941 z m -8.45108,0.463331 c 0,0.74867 -1.41956,1.351389 -3.18288,1.351389 -1.76331,0 -3.18286,-0.602719 -3.18286,-1.351389 0,-0.748667 1.41955,-1.351386 3.18286,-1.351386 1.76332,0 3.18288,0.602719 3.18288,1.351386 z m -21.2507,-4.246009 h 31.18138 c 3.68705,0 6.65533,1.965261 6.65533,4.406411 v 8.323214 c 0,2.441152 -2.96828,4.406399 -6.65533,4.406399 H 157.3806 c -3.68706,0 -6.65533,-1.965247 -6.65533,-4.406399 v -8.323214 c 0,-2.44115 2.96827,-4.406411 6.65533,-4.406411 z m 3.94389,1.713606 h 21.32166 c 3.68706,0 6.65532,1.965259 6.65532,4.406411 v 4.406407 c 0,2.44115 -2.96826,4.406407 -6.65532,4.406407 h -21.32166 c -3.68705,0 -6.65533,-1.965257 -6.65533,-4.406407 v -4.406407 c 0,-2.441152 2.96828,-4.406411 6.65533,-4.406411 z m 10.13254,6.680271 c 0,0.663105 -1.41956,1.196942 -3.18289,1.196942 -1.7633,0 -3.18288,-0.533837 -3.18288,-1.196942 0,-0.663109 1.41958,-1.196941 3.18288,-1.196941 1.76333,0 3.18289,0.533832 3.18289,1.196941 z m -8.45109,0.463331 c 0,0.748667 -1.41955,1.351387 -3.18288,1.351387 -1.7633,0 -3.18288,-0.60272 -3.18288,-1.351387 0,-0.748669 1.41958,-1.351386 3.18288,-1.351386 1.76333,0 3.18288,0.602717 3.18288,1.351386 z m 25.02399,-1.467221 c 0,0.663109 -1.41956,1.196945 -3.18288,1.196945 -1.7633,0 -3.18288,-0.533836 -3.18288,-1.196945 0,-0.663105 1.41958,-1.196944 3.18288,-1.196944 1.76332,0 3.18288,0.533839 3.18288,1.196944 z m -8.45108,0.463333 c 0,0.748669 -1.41957,1.351386 -3.18289,1.351386 -1.76329,0 -3.18286,-0.602717 -3.18286,-1.351386 0,-0.748668 1.41957,-1.351387 3.18286,-1.351387 1.76332,0 3.18289,0.602719 3.18289,1.351387 z M 151.21826,14.846227 c 0.83642,-2.254262 2.49968,-4.371996 4.80662,-6.1199798 2.60253,-1.97196 6.02209,-3.466442 9.78368,-4.275854 3.76158,-0.8094134 7.85482,-0.9315194 11.7111,-0.3493584 3.85629,0.5821614 7.465,1.8669804 10.32483,3.6759894 2.85983,1.80901 4.96292,4.1372118 6.01711,6.6612038 M 171.64901,8.4050992 c 0,0.473815 -1.28144,0.855263 -2.8732,0.855263 -1.59176,0 -2.8732,-0.381448 -2.8732,-0.855263 0,-0.473815 1.28144,-0.855261 2.8732,-0.855261 1.59176,0 2.8732,0.381446 2.8732,0.855261 z m -7.62884,0.331068 c 0,0.534953 -1.28145,0.965617 -2.8732,0.965617 -1.59175,0 -2.8732,-0.430664 -2.8732,-0.965617 0,-0.534952 1.28145,-0.965616 2.8732,-0.965616 1.59175,0 2.8732,0.430664 2.8732,0.965616 z m 22.5893,-1.048384 c 0,0.473814 -1.28146,0.855263 -2.8732,0.855263 -1.59175,0 -2.87319,-0.381449 -2.87319,-0.855263 0,-0.473815 1.28144,-0.855263 2.87319,-0.855263 1.59174,0 2.8732,0.381448 2.8732,0.855263 z m -7.62884,0.331069 c 0,0.534953 -1.28145,0.965617 -2.87321,0.965617 -1.59174,0 -2.87319,-0.430664 -2.87319,-0.965617 0,-0.534954 1.28145,-0.96562 2.87319,-0.96562 1.59176,0 2.87321,0.430666 2.87321,0.96562 z m -7.5236,16.7821388 c 0,0.663103 -1.41956,1.196938 -3.18289,1.196938 -1.7633,0 -3.18288,-0.533835 -3.18288,-1.196938 0,-0.663103 1.41958,-1.196934 3.18288,-1.196934 1.76333,0 3.18289,0.533831 3.18289,1.196934 z m -8.45109,0.46333 c 0,0.748665 -1.41955,1.351378 -3.18288,1.351378 -1.7633,0 -3.18288,-0.602713 -3.18288,-1.351378 0,-0.748665 1.41958,-1.351379 3.18288,-1.351379 1.76333,0 3.18288,0.602714 3.18288,1.351379 z m 25.02399,-1.467211 c 0,0.663102 -1.41956,1.196937 -3.18288,1.196937 -1.7633,0 -3.18288,-0.533835 -3.18288,-1.196937 0,-0.663103 1.41958,-1.196938 3.18288,-1.196938 1.76332,0 3.18288,0.533835 3.18288,1.196938 z m -8.45108,0.463328 c 0,0.748665 -1.41957,1.351379 -3.18289,1.351379 -1.76329,0 -3.18286,-0.602714 -3.18286,-1.351379 0,-0.748665 1.41957,-1.351381 3.18286,-1.351381 1.76332,0 3.18289,0.602716 3.18289,1.351381 z m -9.06937,-6.830864 c 0,0.663102 -1.41957,1.196937 -3.18289,1.196937 -1.7633,0 -3.18287,-0.533835 -3.18287,-1.196937 0,-0.663103 1.41957,-1.196935 3.18287,-1.196935 1.76332,0 3.18289,0.533832 3.18289,1.196935 z m -8.45109,0.463329 c 0,0.748664 -1.41956,1.351379 -3.18288,1.351379 -1.76332,0 -3.18287,-0.602715 -3.18287,-1.351379 0,-0.748665 1.41955,-1.35138 3.18287,-1.35138 1.76332,0 3.18288,0.602715 3.18288,1.35138 z m 25.02399,-1.467212 c 0,0.663103 -1.41957,1.196938 -3.18286,1.196938 -1.76332,0 -3.18288,-0.533835 -3.18288,-1.196938 0,-0.663102 1.41956,-1.196936 3.18288,-1.196936 1.76329,0 3.18286,0.533834 3.18286,1.196936 z m -8.45108,0.463329 c 0,0.748665 -1.41956,1.351379 -3.18288,1.351379 -1.76331,0 -3.18286,-0.602714 -3.18286,-1.351379 0,-0.748665 1.41955,-1.35138 3.18286,-1.35138 1.76332,0 3.18288,0.602715 3.18288,1.35138 z m -21.2507,-4.245986 h 31.18138 c 3.68705,0 6.65533,1.965248 6.65533,4.406388 v 8.323166 c 0,2.44114 -2.96828,4.406387 -6.65533,4.406387 H 157.3806 c -3.68706,0 -6.65533,-1.965247 -6.65533,-4.406387 v -8.323166 c 0,-2.44114 2.96827,-4.406388 6.65533,-4.406388 z m 3.94389,1.713596 h 21.32166 c 3.68706,0 6.65532,1.965247 6.65532,4.406385 v 4.406383 c 0,2.441137 -2.96826,4.406385 -6.65532,4.406385 h -21.32166 c -3.68705,0 -6.65533,-1.965248 -6.65533,-4.406385 v -4.406383 c 0,-2.441138 2.96828,-4.406385 6.65533,-4.406385 z m 10.13254,6.680232 c 0,0.663103 -1.41956,1.196938 -3.18289,1.196938 -1.7633,0 -3.18288,-0.533835 -3.18288,-1.196938 0,-0.663102 1.41958,-1.196934 3.18288,-1.196934 1.76333,0 3.18289,0.533832 3.18289,1.196934 z m -8.45109,0.46333 c 0,0.748665 -1.41955,1.351378 -3.18288,1.351378 -1.7633,0 -3.18288,-0.602713 -3.18288,-1.351378 0,-0.748665 1.41958,-1.351379 3.18288,-1.351379 1.76333,0 3.18288,0.602714 3.18288,1.351379 z m 25.02399,-1.467211 c 0,0.663103 -1.41956,1.196938 -3.18288,1.196938 -1.7633,0 -3.18288,-0.533835 -3.18288,-1.196938 0,-0.663103 1.41958,-1.196938 3.18288,-1.196938 1.76332,0 3.18288,0.533835 3.18288,1.196938 z m -8.45108,0.463329 c 0,0.748664 -1.41957,1.351379 -3.18289,1.351379 -1.76329,0 -3.18286,-0.602715 -3.18286,-1.351379 0,-0.748665 1.41957,-1.351382 3.18286,-1.351382 1.76332,0 3.18289,0.602717 3.18289,1.351382 z" />
      <path
         style="fill:#000000;stroke:#000000;stroke-width:3.77952761;stroke-linecap:round;stroke-linejoin:round;stroke-miterlimit:4;stroke-dasharray:none;stroke-opacity:0.955017;paint-order:stroke markers fill"
         d="m 599.58462,386.69907 c -5.09888,-2.05766 -5.55362,-4.19467 -5.55362,-26.09918 0,-19.71626 0.0832,-20.54134 2.33259,-23.13015 3.95018,-4.54627 15.15528,-4.82406 19.49601,-0.48334 1.8679,1.8679 2.01558,3.60534 2.01558,23.71231 0,23.48565 -0.0842,23.85578 -5.93023,26.07845 -3.07085,1.16754 -9.3723,1.12772 -12.36033,-0.0781 z"
         id="path2414"
         transform="scale(0.26458333)" />
      <path
         style="fill:#000000;stroke:#000000;stroke-width:3.77952761;stroke-linecap:round;stroke-linejoin:round;stroke-miterlimit:4;stroke-dasharray:none;stroke-opacity:0.955017;paint-order:stroke markers fill"
         d="m 618.24044,216.69966 c -3.33232,-1.37703 -4.06099,-3.25672 -1.88055,-4.8511 2.90137,-2.12154 67.64465,-2.03532 70.51709,0.0939 1.93185,1.432 1.93835,1.56683 0.16249,3.36928 -1.69759,1.72301 -4.5143,1.89531 -34.21121,2.09278 -17.79873,0.11836 -33.36325,-0.19884 -34.58782,-0.70487 z"
         id="path2492"
         transform="scale(0.26458333)" />
    </g>
    <path
       style="fill:#ffffff;stroke:#000000;stroke-width:1.91287;stroke-linecap:round;stroke-linejoin:round;stroke-miterlimit:4;stroke-dasharray:none;stroke-opacity:0.955017;paint-order:stroke markers fill"
       d=""
       id="path3344"
       transform="scale(0.26458333)" />
    <path
       style="fill:#ffffff;stroke:#000000;stroke-width:1.91287;stroke-linecap:round;stroke-linejoin:round;stroke-miterlimit:4;stroke-dasharray:none;stroke-opacity:0.955017;paint-order:stroke markers fill"
       d=""
       id="path3383"
       transform="scale(0.26458333)" />
    <path
       style="fill:#ffffff;stroke:#000000;stroke-width:1.91287;stroke-linecap:round;stroke-linejoin:round;stroke-miterlimit:4;stroke-dasharray:none;stroke-opacity:0.955017;paint-order:stroke markers fill"
       d=""
       id="path3734"
       transform="scale(0.26458333)" />
    <path
       style="fill:#ffffff;stroke:#000000;stroke-width:1.91287;stroke-linecap:round;stroke-linejoin:round;stroke-miterlimit:4;stroke-dasharray:none;stroke-opacity:0.955017;paint-order:stroke markers fill"
       d=""
       id="path4085"
       transform="scale(0.26458333)" />
    <path
       style="fill:#ffffff;stroke:#000000;stroke-width:1.91287;stroke-linecap:round;stroke-linejoin:round;stroke-miterlimit:4;stroke-dasharray:none;stroke-opacity:0.955017;paint-order:stroke markers fill"
       d=""
       id="path4768"
       transform="scale(0.26458333)" />
    <g
       id="g1134"
       transform="translate(-2.6434808,23.310694)">
      <path
         id="path2642"
         style="fill:none;stroke:#000000;stroke-width:1.112;stroke-linecap:round;stroke-linejoin:round;stroke-miterlimit:4;stroke-dasharray:none;stroke-opacity:0.955017;paint-order:stroke markers fill"
         d="m 24.971104,214.29588 h 15.52967 c 1.40633,0 2.53851,0.68132 2.53851,1.52763 0,0.8463 -1.13218,1.52762 -2.53851,1.52762 h -15.52967 c -1.40633,0 -2.5385,-0.68132 -2.5385,-1.52762 0,-0.84631 1.13217,-1.52763 2.5385,-1.52763 z m -4.33038,32.70902 c 1.98541,0 3.58377,0.96187 3.58377,2.15665 v 11.14264 c 0,1.19476 -1.59836,2.15662 -3.58377,2.15662 -1.98541,0 -3.58377,-0.96186 -3.58377,-2.15662 v -11.14264 c 0,-1.19478 1.59836,-2.15665 3.58377,-2.15665 z m -5.07701,-23.18386 h 33.74717 c 2.48176,0 4.47971,1.20233 4.47971,2.69581 v 7.90767 c 0,1.49347 -1.99795,2.6958 -4.47971,2.6958 h -33.74717 c -2.48175,0 -4.47971,-1.20233 -4.47971,-2.6958 v -7.90767 c 0,-1.49348 1.99796,-2.69581 4.47971,-2.69581 z m 2.98649,-17.79227 h 28.07283 c 3.97082,0 7.16756,1.92373 7.16756,4.31328 v 53.91594 c 0,2.38954 -3.19674,4.31327 -7.16756,4.31327 h -28.07283 c -3.97082,0 -7.16755,-1.92373 -7.16755,-4.31327 v -53.91594 c 0,-2.38955 3.19673,-4.31328 7.16755,-4.31328 z m 13.4021,-35.81443 c 0,0.47382 -1.36447,0.85527 -3.05933,0.85527 -1.69485,0 -3.05931,-0.38145 -3.05931,-0.85527 0,-0.47382 1.36446,-0.85526 3.05931,-0.85526 1.69486,0 3.05933,0.38144 3.05933,0.85526 z m -8.12303,0.33107 c 0,0.53496 -1.36447,0.96563 -3.05932,0.96563 -1.69486,0 -3.05932,-0.43067 -3.05932,-0.96563 0,-0.53495 1.36446,-0.96562 3.05932,-0.96562 1.69485,0 3.05932,0.43067 3.05932,0.96562 z m 24.05258,-1.04839 c 0,0.47382 -1.36446,0.85527 -3.05931,0.85527 -1.69487,0 -3.05932,-0.38145 -3.05932,-0.85527 0,-0.47382 1.36445,-0.85527 3.05932,-0.85527 1.69485,0 3.05931,0.38145 3.05931,0.85527 z m -8.12301,0.33107 c 0,0.53496 -1.36446,0.96562 -3.05933,0.96562 -1.69486,0 -3.05932,-0.43066 -3.05932,-0.96562 0,-0.53496 1.36446,-0.96562 3.05932,-0.96562 1.69487,0 3.05933,0.43066 3.05933,0.96562 z m 15.92391,15.64024 -0.12325,8.32321 m -44.41134,-8.32321 -0.123261,8.32321 m 20.731641,7.38477 c 0,0.66311 -1.41955,1.19695 -3.18287,1.19695 -1.76329,0 -3.18286,-0.53384 -3.18286,-1.19695 0,-0.66311 1.41957,-1.19695 3.18286,-1.19695 1.76332,0 3.18287,0.53384 3.18287,1.19695 z m -8.45104,0.46334 c 0,0.74867 -1.41954,1.35139 -3.18286,1.35139 -1.76329,0 -3.18286,-0.60272 -3.18286,-1.35139 0,-0.74868 1.41957,-1.3514 3.18286,-1.3514 1.76332,0 3.18286,0.60272 3.18286,1.3514 z m 25.02385,-1.46723 c 0,0.66311 -1.41955,1.19695 -3.18286,1.19695 -1.76329,0 -3.18286,-0.53384 -3.18286,-1.19695 0,-0.66311 1.41957,-1.19695 3.18286,-1.19695 1.76331,0 3.18286,0.53384 3.18286,1.19695 z m -8.45103,0.46333 c 0,0.74868 -1.41956,1.3514 -3.18287,1.3514 -1.76328,0 -3.18285,-0.60272 -3.18285,-1.3514 0,-0.74867 1.41957,-1.35139 3.18285,-1.35139 1.76331,0 3.18287,0.60272 3.18287,1.35139 z m -9.06932,-6.83094 c 0,0.66311 -1.41956,1.19695 -3.18287,1.19695 -1.76329,0 -3.18285,-0.53384 -3.18285,-1.19695 0,-0.66311 1.41956,-1.19694 3.18285,-1.19694 1.76331,0 3.18287,0.53383 3.18287,1.19694 z m -8.45104,0.46334 c 0,0.74867 -1.41955,1.35139 -3.18286,1.35139 -1.76331,0 -3.18286,-0.60272 -3.18286,-1.35139 0,-0.74868 1.41955,-1.3514 3.18286,-1.3514 1.76331,0 3.18286,0.60272 3.18286,1.3514 z m 25.02385,-1.46723 c 0,0.66311 -1.41956,1.19695 -3.18285,1.19695 -1.76331,0 -3.18286,-0.53384 -3.18286,-1.19695 0,-0.66311 1.41955,-1.19695 3.18286,-1.19695 1.76329,0 3.18285,0.53384 3.18285,1.19695 z m -8.45104,0.46333 c 0,0.74868 -1.41955,1.3514 -3.18286,1.3514 -1.7633,0 -3.18284,-0.60272 -3.18284,-1.3514 0,-0.74867 1.41954,-1.35139 3.18284,-1.35139 1.76331,0 3.18286,0.60272 3.18286,1.35139 z m -21.25058,-4.24603 h 31.18121 c 3.68703,0 6.65529,1.96527 6.65529,4.40643 v 8.32327 c 0,2.44116 -2.96826,4.40642 -6.65529,4.40642 h -31.18121 c -3.68703,0 -6.655291,-1.96526 -6.655291,-4.40642 v -8.32327 c 0,-2.44116 2.968261,-4.40643 6.655291,-4.40643 z m 3.94387,1.71361 h 21.32154 c 3.68704,0 6.65528,1.96528 6.65528,4.40644 v 4.40643 c 0,2.44117 -2.96824,4.40643 -6.65528,4.40643 h -21.32154 c -3.68703,0 -6.65529,-1.96526 -6.65529,-4.40643 v -4.40643 c 0,-2.44116 2.96826,-4.40644 6.65529,-4.40644 z m 10.13248,6.68031 c 0,0.66311 -1.41955,1.19695 -3.18287,1.19695 -1.76329,0 -3.18286,-0.53384 -3.18286,-1.19695 0,-0.66311 1.41957,-1.19695 3.18286,-1.19695 1.76332,0 3.18287,0.53384 3.18287,1.19695 z m -8.45104,0.46334 c 0,0.74867 -1.41954,1.35139 -3.18286,1.35139 -1.76329,0 -3.18286,-0.60272 -3.18286,-1.35139 0,-0.74868 1.41957,-1.3514 3.18286,-1.3514 1.76332,0 3.18286,0.60272 3.18286,1.3514 z m 25.02385,-1.46723 c 0,0.66311 -1.41955,1.19695 -3.18286,1.19695 -1.76329,0 -3.18286,-0.53384 -3.18286,-1.19695 0,-0.66311 1.41957,-1.19695 3.18286,-1.19695 1.76331,0 3.18286,0.53384 3.18286,1.19695 z m -8.45103,0.46333 c 0,0.74868 -1.41956,1.3514 -3.18287,1.3514 -1.76328,0 -3.18285,-0.60272 -3.18285,-1.3514 0,-0.74867 1.41957,-1.35139 3.18285,-1.35139 1.76331,0 3.18287,0.60272 3.18287,1.35139 z M 11.517894,174.1259 c 0.83641,-2.25428 2.49967,-4.37202 4.80659,-6.12002 2.60252,-1.97197 6.02206,-3.46646 9.78363,-4.27588 3.76156,-0.80942 7.85477,-0.93152 11.71103,-0.34936 3.85627,0.58217 7.46496,1.867 10.32477,3.67602 2.85982,1.80902 4.96289,4.13723 6.01708,6.66124 m -22.21247,-6.03317 c 0,0.47382 -1.28143,0.85527 -2.87318,0.85527 -1.59175,0 -2.87318,-0.38145 -2.87318,-0.85527 0,-0.47381 1.28143,-0.85526 2.87318,-0.85526 1.59175,0 2.87318,0.38145 2.87318,0.85526 z m -7.62879,0.33107 c 0,0.53496 -1.28145,0.96563 -2.87319,0.96563 -1.59174,0 -2.87318,-0.43067 -2.87318,-0.96563 0,-0.53495 1.28144,-0.96562 2.87318,-0.96562 1.59174,0 2.87319,0.43067 2.87319,0.96562 z m 22.58917,-1.04839 c 0,0.47382 -1.28145,0.85527 -2.87319,0.85527 -1.59174,0 -2.87317,-0.38145 -2.87317,-0.85527 0,-0.47381 1.28143,-0.85527 2.87317,-0.85527 1.59174,0 2.87319,0.38146 2.87319,0.85527 z m -7.6288,0.33108 c 0,0.53495 -1.28144,0.96562 -2.87319,0.96562 -1.59173,0 -2.87318,-0.43067 -2.87318,-0.96562 0,-0.53496 1.28145,-0.96563 2.87318,-0.96563 1.59175,0 2.87319,0.43067 2.87319,0.96563 z m -7.52356,16.78223 c 0,0.66311 -1.41955,1.19695 -3.18287,1.19695 -1.76329,0 -3.18286,-0.53384 -3.18286,-1.19695 0,-0.66311 1.41957,-1.19694 3.18286,-1.19694 1.76332,0 3.18287,0.53383 3.18287,1.19694 z m -8.45104,0.46333 c 0,0.74867 -1.41954,1.35139 -3.18286,1.35139 -1.76329,0 -3.18286,-0.60272 -3.18286,-1.35139 0,-0.74867 1.41957,-1.35138 3.18286,-1.35138 1.76332,0 3.18286,0.60271 3.18286,1.35138 z m 25.02385,-1.46722 c 0,0.66311 -1.41955,1.19695 -3.18286,1.19695 -1.76329,0 -3.18286,-0.53384 -3.18286,-1.19695 0,-0.6631 1.41957,-1.19694 3.18286,-1.19694 1.76331,0 3.18286,0.53384 3.18286,1.19694 z m -8.45103,0.46333 c 0,0.74867 -1.41956,1.35139 -3.18287,1.35139 -1.76328,0 -3.18285,-0.60272 -3.18285,-1.35139 0,-0.74866 1.41957,-1.35138 3.18285,-1.35138 1.76331,0 3.18287,0.60272 3.18287,1.35138 z m -9.06932,-6.8309 c 0,0.66311 -1.41956,1.19695 -3.18287,1.19695 -1.76329,0 -3.18285,-0.53384 -3.18285,-1.19695 0,-0.66311 1.41956,-1.19694 3.18285,-1.19694 1.76331,0 3.18287,0.53383 3.18287,1.19694 z m -8.45104,0.46333 c 0,0.74867 -1.41955,1.35139 -3.18286,1.35139 -1.76331,0 -3.18286,-0.60272 -3.18286,-1.35139 0,-0.74867 1.41955,-1.35138 3.18286,-1.35138 1.76331,0 3.18286,0.60271 3.18286,1.35138 z m 25.02385,-1.46722 c 0,0.66311 -1.41956,1.19695 -3.18285,1.19695 -1.76331,0 -3.18286,-0.53384 -3.18286,-1.19695 0,-0.6631 1.41955,-1.19694 3.18286,-1.19694 1.76329,0 3.18285,0.53384 3.18285,1.19694 z m -8.45104,0.46333 c 0,0.74867 -1.41955,1.35139 -3.18286,1.35139 -1.7633,0 -3.18284,-0.60272 -3.18284,-1.35139 0,-0.74866 1.41954,-1.35138 3.18284,-1.35138 1.76331,0 3.18286,0.60272 3.18286,1.35138 z m -21.25058,-4.24601 h 31.18121 c 3.68703,0 6.65529,1.96526 6.65529,4.40642 v 8.32321 c 0,2.44115 -2.96826,4.40641 -6.65529,4.40641 h -31.18121 c -3.68703,0 -6.655291,-1.96526 -6.655291,-4.40641 v -8.32321 c 0,-2.44116 2.968261,-4.40642 6.655291,-4.40642 z m 3.94387,1.71361 h 21.32154 c 3.68704,0 6.65528,1.96526 6.65528,4.40641 v 4.40641 c 0,2.44115 -2.96824,4.40641 -6.65528,4.40641 h -21.32154 c -3.68703,0 -6.65529,-1.96526 -6.65529,-4.40641 v -4.40641 c 0,-2.44115 2.96826,-4.40641 6.65529,-4.40641 z m 10.13248,6.68027 c 0,0.66311 -1.41955,1.19695 -3.18287,1.19695 -1.76329,0 -3.18286,-0.53384 -3.18286,-1.19695 0,-0.66311 1.41957,-1.19694 3.18286,-1.19694 1.76332,0 3.18287,0.53383 3.18287,1.19694 z m -8.45104,0.46333 c 0,0.74867 -1.41954,1.35139 -3.18286,1.35139 -1.76329,0 -3.18286,-0.60272 -3.18286,-1.35139 0,-0.74867 1.41957,-1.35138 3.18286,-1.35138 1.76332,0 3.18286,0.60271 3.18286,1.35138 z m 25.02385,-1.46722 c 0,0.66311 -1.41955,1.19695 -3.18286,1.19695 -1.76329,0 -3.18286,-0.53384 -3.18286,-1.19695 0,-0.6631 1.41957,-1.19694 3.18286,-1.19694 1.76331,0 3.18286,0.53384 3.18286,1.19694 z m -8.45103,0.46333 c 0,0.74867 -1.41956,1.35139 -3.18287,1.35139 -1.76328,0 -3.18285,-0.60272 -3.18285,-1.35139 0,-0.74866 1.41957,-1.35138 3.18285,-1.35138 1.76331,0 3.18287,0.60272 3.18287,1.35138 z" />
      <path
         style="fill:#ffffff;stroke:#000000;stroke-width:4.35709;stroke-linecap:round;stroke-linejoin:round;stroke-miterlimit:4;stroke-dasharray:none;stroke-opacity:0.955017;paint-order:stroke markers fill"
         d="m 63.15643,1011.8117 c -6.101946,-1.0327 -12.611123,-4.368 -15.370082,-7.8754 -2.13935,-2.7198 -2.171402,-3.538 -2.171402,-55.42964 v -52.66914 l 4.46228,1.52046 c 3.782275,1.28875 15.117538,1.47663 74.383464,1.23295 64.69806,-0.26602 70.17287,-0.42501 73.29047,-2.12835 l 3.36928,-1.84086 v 52.13714 c 0,48.92862 -0.11917,52.35944 -1.93655,55.74944 -2.29338,4.2779 -8.58282,7.802 -16.60643,9.3049 -6.54046,1.2251 -112.181817,1.2238 -119.42103,0 z m 24.800359,-19.60347 c 2.145671,-1.09464 4.459669,-3.21591 5.142216,-4.71394 0.842705,-1.84954 1.240997,-10.00245 1.240997,-25.40284 v -22.67916 l -2.658393,-3.15932 c -4.527564,-5.3807 -14.996004,-6.88148 -22.91637,-3.28534 -2.377291,1.07937 -4.826502,2.90452 -5.442693,4.05589 -0.711067,1.32864 -1.120347,10.95226 -1.120347,26.34335 0,23.80933 0.04239,24.2898 2.333115,26.44182 3.38154,3.17679 6.736083,4.24984 13.517911,4.32409 3.98199,0.0436 7.315472,-0.6042 9.903564,-1.92455 z"
         id="path2736"
         transform="scale(0.26458333)" />
      <path
         style="fill:#ffffff;stroke:#000000;stroke-width:4.35709;stroke-linecap:round;stroke-linejoin:round;stroke-miterlimit:4;stroke-dasharray:none;stroke-opacity:0.955017;paint-order:stroke markers fill"
         d="m 70.23665,987.44436 -2.850934,-1.60572 v -22.61369 c 0,-20.53158 0.173305,-22.77052 1.882256,-24.3171 4.039512,-3.65571 14.039624,-3.43012 17.872931,0.40319 1.867383,1.86738 2.015583,3.6045 2.015583,23.62567 0,20.42598 -0.115741,21.71484 -2.112256,23.52166 -2.864856,2.59266 -12.908808,3.18187 -16.80758,0.98599 z"
         id="path2775"
         transform="scale(0.26458333)" />
      <path
         style="fill:#ffffff;stroke:#000000;stroke-width:4.35709;stroke-linecap:round;stroke-linejoin:round;stroke-miterlimit:4;stroke-dasharray:none;stroke-opacity:0.955017;paint-order:stroke markers fill"
         d="m 52.811327,892.65524 c -7.603133,-2.3071 -7.274335,-1.28884 -6.960926,-21.55747 l 0.282897,-18.29535 3.628462,-2.13037 c 3.560205,-2.0903 4.896068,-2.13038 71.01418,-2.13038 37.06214,0 69.07834,0.36037 71.1471,0.80082 2.06876,0.44045 4.98449,1.93435 6.4794,3.31978 2.69875,2.50113 2.718,2.62845 2.718,17.97921 0,17.5838 -0.85861,19.91253 -8.08161,21.91859 -4.53116,1.25846 -136.099574,1.34775 -140.227503,0.0952 z"
         id="path2814"
         transform="scale(0.26458333)" />
      <path
         style="fill:#ffffff;stroke:#000000;stroke-width:4.35709;stroke-linecap:round;stroke-linejoin:round;stroke-miterlimit:4;stroke-dasharray:none;stroke-opacity:0.955017;paint-order:stroke markers fill"
         d="m 89.265975,817.30908 c -2.368751,-1.67076 -2.395247,-1.81446 -0.579383,-3.14225 2.88487,-2.10947 66.603058,-2.0234 69.471698,0.0938 1.65295,1.21999 1.7719,1.72918 0.66599,2.85093 -1.04498,1.05995 -8.70356,1.43089 -34.21121,1.65699 -29.470753,0.26123 -33.121179,0.1105 -35.347095,-1.45951 z"
         id="path2970"
         transform="scale(0.26458333)" />
      <path
         style="fill:#ffffff;stroke:#000000;stroke-width:4.35709;stroke-linecap:round;stroke-linejoin:round;stroke-miterlimit:4;stroke-dasharray:none;stroke-opacity:0.955017;paint-order:stroke markers fill"
         d="m 56.818209,774.84927 c -2.676102,-0.8234 -6.524863,-3.06195 -8.552803,-4.97454 l -3.687163,-3.47744 v -19.4763 -19.47629 l 4.007968,-3.81269 c 2.275188,-2.16434 5.972856,-4.35557 8.552803,-5.06838 3.39535,-0.93811 21.325901,-1.17867 70.893846,-0.95114 l 66.34901,0.30456 4.44666,2.3744 c 7.82717,4.17951 8.50381,6.33389 8.50826,27.09018 l 0.004,18.06084 -4.51562,4.32673 c -2.97669,2.85217 -6.13628,4.73482 -9.27105,5.52416 -3.35533,0.84488 -23.46802,1.17617 -68.31279,1.12522 -52.311758,-0.0594 -64.41855,-0.3371 -68.423261,-1.56931 z m 120.546931,-4.35364 c 2.61474,-1.30169 6.34687,-4.01007 8.29363,-6.01863 l 3.53959,-3.65192 v -14.71544 c 0,-16.55055 -0.46154,-17.84227 -8.17624,-22.88287 -7.11647,-4.64972 -11.31561,-4.96001 -62.31959,-4.60497 l -47.688352,0.33196 -5.307651,2.79996 c -6.361539,3.35593 -10.442149,7.92197 -11.335509,12.68399 -0.361218,1.92546 -0.496411,8.41029 -0.300427,14.41074 0.29551,9.04766 0.721182,11.39798 2.493797,13.76937 3.088753,4.1321 6.745346,6.59921 13.048266,8.8037 5.160957,1.80508 8.950279,1.92312 54.273396,1.69069 48.4149,-0.24829 48.75531,-0.26495 53.47909,-2.61658 z"
         id="path3009"
         transform="scale(0.26458333)" />
      <path
         style="fill:#ffffff;stroke:#000000;stroke-width:4.35709;stroke-linecap:round;stroke-linejoin:round;stroke-miterlimit:4;stroke-dasharray:none;stroke-opacity:0.955017;paint-order:stroke markers fill"
         d="m 196.45528,845.13088 c -2.82721,-1.61148 -9.08852,-1.80149 -68.83606,-2.08893 -60.640709,-0.29175 -74.409584,0.12229 -80.190043,2.41136 -1.699089,0.67284 -1.813985,-0.94994 -1.810355,-25.56924 0.0045,-30.25867 0.163654,-30.88396 8.965977,-35.21731 l 5.025642,-2.4741 H 123.3677 c 63.28924,0 63.78769,0.0164 67.90406,2.23169 2.28075,1.22743 5.31311,3.48014 6.73857,5.00602 l 2.59176,2.77433 0.30751,27.39096 c 0.16913,15.06502 -0.0642,27.37228 -0.51835,27.34945 -0.45422,-0.0228 -2.22541,-0.83923 -3.93597,-1.81423 z m -34.2934,-23.98338 c 4.00874,-3.76789 3.7036,-8.81148 -0.69534,-11.49357 -3.18023,-1.93902 -5.28894,-2.05365 -37.58049,-2.04288 -36.725703,0.0122 -37.969376,0.1748 -40.869654,5.34201 -1.246711,2.22117 -1.301536,3.25752 -0.289799,5.47804 2.470436,5.42202 4.86128,5.73062 42.373143,5.46927 l 34.38819,-0.23958 z"
         id="path3227"
         transform="scale(0.26458333)" />
      <path
         style="fill:#ffffff;stroke:#000000;stroke-width:1.91287;stroke-linecap:round;stroke-linejoin:round;stroke-miterlimit:4;stroke-dasharray:none;stroke-opacity:0.955017;paint-order:stroke markers fill"
         d="m 193.66124,648.55658 c -2.84129,-0.73206 -5.69721,-0.83059 -26.39801,-0.9108 -12.76662,-0.0495 -22.80241,-0.18171 -22.30176,-0.29388 2.83092,-0.63426 5.29879,-1.69985 6.33377,-2.73483 2.24083,-2.24083 1.0936,-5.82609 -2.25131,-7.03562 -1.49374,-0.54015 -2.13812,-1.29846 -1.10338,-1.29846 0.2617,0 0.97855,-0.50272 1.59298,-1.11716 1.59798,-1.59797 1.52477,-4.00692 -0.17337,-5.70506 -2.44699,-2.44699 -10.13844,-3.7521 -16.38375,-2.78005 -5.56738,0.86653 -8.45064,2.854 -8.45064,5.82511 0,1.30864 0.31321,1.90071 1.55303,2.93576 0.85417,0.7131 1.81679,1.29653 2.13915,1.29653 0.9097,0 0.69038,0.81585 -0.30417,1.1315 -0.48966,0.15542 -1.42946,0.92334 -2.08845,1.7065 -0.9263,1.10085 -1.13676,1.73091 -0.92756,2.77691 0.47228,2.36141 2.21758,3.63264 6.40956,4.6686 2.10247,0.51959 1.72139,0.56395 -5.00652,0.58288 -6.88267,0.0194 -7.2073,-0.0186 -5.9168,-0.69279 1.88309,-0.98369 2.50326,-1.89609 2.50326,-3.68282 0,-1.78862 -1.47111,-3.38651 -3.74825,-4.07126 l -1.48584,-0.4468 1.66688,-0.7189 c 0.91678,-0.39539 2.09445,-1.14647 2.61704,-1.66906 1.333,-1.333 1.26907,-3.85862 -0.13317,-5.26085 -3.15087,-3.15088 -15.94873,-3.8309 -21.970026,-1.16739 -3.872626,1.71305 -4.060536,5.67153 -0.35727,7.52619 l 1.817576,0.91028 -2.288688,0.91027 c -4.208093,1.67368 -4.812062,5.75554 -1.12791,7.62286 l 1.570051,0.79578 -4.235835,7.1e-4 -4.235835,7.1e-4 0.708515,-1.01155 c 1.148129,-1.63918 0.888579,-3.46155 -0.705032,-4.95021 -0.777452,-0.72625 -1.750309,-1.33662 -2.161906,-1.35638 -0.411597,-0.0198 0.116749,-0.34227 1.174103,-0.71668 3.983181,-1.41045 5.385716,-4.98067 2.923773,-7.44261 -2.032261,-2.03226 -5.754988,-2.94457 -12.03993,-2.95055 l -5.373143,-0.005 2.783793,-1.24298 c 7.809903,-3.48714 17.164876,-6.3052 25.940444,-7.81419 14.35935,-2.46915 31.80689,-2.04997 45.96894,1.10442 4.89273,1.08978 12.74554,3.44855 13.28848,3.99149 0.24736,0.24736 -0.65335,0.52455 -2.24505,0.69092 -4.97657,0.52016 -7.85746,2.41817 -7.85746,5.17671 0,2.2945 3.01304,4.65509 6.01596,4.71324 0.84754,0.0164 0.70366,0.19663 -0.78187,0.97934 -2.24162,1.18106 -2.92521,2.03922 -2.94393,3.69563 -0.0224,1.98507 0.66553,2.83111 3.18252,3.91389 7.40328,3.1848 22.08202,1.73896 24.03007,-2.36694 1.217,-2.56507 -1.07997,-5.3648 -4.93589,-6.01625 -0.99548,-0.16819 -1.80996,-0.4926 -1.80996,-0.72093 0,-0.22832 0.1891,-0.41513 0.42022,-0.41513 0.23112,0 1.02049,-0.50509 1.75415,-1.12242 l 1.33392,-1.12243 3.8213,2.60163 c 5.49018,3.73784 15.94737,14.32687 13.97911,14.15537 -0.32996,-0.0287 -2.0336,-0.42166 -3.78588,-0.87314 z"
         id="path3266"
         transform="scale(0.26458333)" />
      <path
         style="fill:#ffffff;stroke:#000000;stroke-width:1.91287;stroke-linecap:round;stroke-linejoin:round;stroke-miterlimit:4;stroke-dasharray:none;stroke-opacity:0.955017;paint-order:stroke markers fill"
         d="m 132.50532,642.56879 c -2.69314,-0.60121 -1.93299,-1.15457 2.41723,-1.75963 3.68975,-0.51319 10.44202,0.0187 11.31459,0.89126 1.15448,1.15448 -9.44701,1.82489 -13.73182,0.86837 z"
         id="path3305"
         transform="scale(0.26458333)" />
      <path
         style="fill:#ffffff;stroke:#000000;stroke-width:1.91287;stroke-linecap:round;stroke-linejoin:round;stroke-miterlimit:4;stroke-dasharray:none;stroke-opacity:0.955017;paint-order:stroke markers fill"
         d="m 167.4908,641.40787 c -0.87614,-0.0669 -2.51464,-0.25426 -3.6411,-0.41631 -1.80147,-0.25915 -1.91109,-0.33571 -0.91028,-0.63568 1.43986,-0.43158 11.15402,-0.43144 12.97143,1.8e-4 1.31254,0.31172 1.2861,0.33534 -0.6827,0.6099 -2.96173,0.41304 -5.9105,0.58146 -7.73735,0.44191 z"
         id="path3422"
         transform="scale(0.26458333)" />
      <path
         style="fill:#ffffff;stroke:#000000;stroke-width:1.91287;stroke-linecap:round;stroke-linejoin:round;stroke-miterlimit:4;stroke-dasharray:none;stroke-opacity:0.955017;paint-order:stroke markers fill"
         d="m 85.793521,703.03296 c 3.71958,-1.767 5.219083,-4.18662 4.307091,-6.94998 -0.797456,-2.41632 -2.86027,-3.80446 -8.175764,-5.50175 -0.375489,-0.1199 0.474555,-0.58087 1.888985,-1.0244 4.723647,-1.48118 7.094338,-4.1472 6.46884,-7.27469 -0.536943,-2.68472 -5.645173,-5.90235 -9.464494,-5.96161 -0.586179,-0.009 0.0032,-0.48142 1.561807,-1.25163 2.562448,-1.26627 4.551381,-3.54652 4.551381,-5.21801 0,-4.77611 -6.868328,-7.97078 -16.09449,-7.48603 -2.468659,0.1297 -4.311968,0.0826 -4.096243,-0.10476 0.949561,-0.82454 5.531102,-2.42266 8.663591,-3.022 2.729863,-0.52231 8.587061,-0.64734 29.203775,-0.6234 23.31914,0.0271 25.55542,0.0928 23.34965,0.68616 -5.48622,1.4758 -8.2448,4.92591 -6.76192,8.45701 0.82255,1.95867 3.47961,3.68679 7.08874,4.61044 l 2.41673,0.61848 -2.20019,1.13223 c -5.54137,2.85161 -5.556,8.07464 -0.0299,10.66345 1.30958,0.61349 3.18462,1.24861 4.16675,1.41136 l 1.78569,0.29592 -2.35431,0.60251 c -3.45223,0.88349 -5.91299,2.28386 -6.92245,3.93944 -2.28201,3.74265 0.0357,7.21061 6.0373,9.03354 4.39615,1.33529 13.03555,1.07816 16.62529,-0.4948 4.84586,-2.12339 6.52436,-6.0182 3.92492,-9.10745 -1.47366,-1.75135 -3.04737,-2.58474 -6.42758,-3.40385 -1.44152,-0.34932 -2.19731,-0.65219 -1.67951,-0.67305 2.45318,-0.0988 5.94166,-1.57985 7.57985,-3.21804 1.42166,-1.42168 1.71928,-2.03768 1.71928,-3.55848 0,-3.01469 -3.01692,-5.78459 -7.28221,-6.68595 -2.43045,-0.51361 -2.50991,-0.72574 -0.59332,-1.58382 2.46626,-1.10418 4.23443,-3.32721 4.23443,-5.32375 0,-3.14273 -2.47292,-5.45923 -7.22718,-6.77004 -1.89764,-0.5232 -1.23592,-0.58188 6.77204,-0.60045 l 8.87519,-0.0206 -1.67837,0.88647 c -2.18047,1.15165 -3.10058,2.51712 -3.10058,4.60131 0,3.47132 3.05064,5.44666 10.09917,6.53939 2.0804,0.32252 3.21419,0.60667 2.51954,0.63143 -2.16996,0.0774 -6.40569,1.81444 -7.78309,3.19184 -1.04353,1.04353 -1.31864,1.72462 -1.31864,3.26453 0,1.64967 0.24736,2.17258 1.62494,3.43504 2.48452,2.27689 5.86906,3.11446 12.60847,3.12021 6.65266,0.006 10.0988,-0.87165 12.56679,-3.19926 1.25331,-1.18203 1.54249,-1.7958 1.54249,-3.27397 0,-1.11871 -0.34408,-2.25664 -0.89357,-2.95521 -1.23525,-1.57035 -5.00526,-3.09294 -9.34073,-3.77242 -2.00608,-0.3144 -3.12136,-0.59512 -2.47839,-0.62382 3.6409,-0.16251 9.07158,-3.12122 9.07158,-4.94233 0,-1.2638 3.11099,3.20099 3.6093,5.17994 0.26782,1.06362 0.48618,6.09301 0.48524,11.17642 l -0.002,9.24257 -0.87007,-1.42689 c -2.72615,-4.47079 -16.30946,-6.10416 -23.68735,-2.84836 -2.61956,1.15599 -3.50776,1.98659 -4.12531,3.85782 -2.18478,6.61993 12.0554,10.32095 24.36232,6.33175 1.80815,-0.5861 -2.26703,2.54967 -5.04666,3.8833 -6.23139,2.98973 -4.35117,2.87649 -50.48018,3.04046 l -41.872697,0.14883 2.27569,-1.08107 z m 26.478859,-0.78994 c 7.78767,-1.07207 11.61025,-4.48748 9.52836,-8.51341 -1.69057,-3.26919 -6.94656,-4.85521 -15.05598,-4.5432 -6.33797,0.24385 -9.928328,1.33473 -11.829588,3.59425 -3.427505,4.07336 0.644084,8.44987 8.846188,9.50868 3.79654,0.49009 4.64817,0.48546 8.51102,-0.0463 z m 3.09713,-14.77405 c 4.99645,-1.30141 7.44435,-3.72228 6.86837,-6.79252 -0.51596,-2.75029 -4.34609,-5.02654 -9.33538,-5.54802 -2.61628,-0.27346 -4.36356,-1.06899 -2.34789,-1.06899 1.59139,0 5.76706,-1.7833 6.83335,-2.91831 0.5624,-0.59865 1.12961,-1.88664 1.26046,-2.8622 0.19451,-1.45017 0.0236,-2.02847 -0.93708,-3.17013 -4.45739,-5.29731 -22.025297,-5.3349 -26.466667,-0.0566 -3.787061,4.50067 2.107662,9.36013 11.550687,9.52209 l 3.47937,0.0597 -2.51337,0.32445 c -6.167958,0.79622 -10.002923,3.31325 -10.002923,6.56529 0,4.12131 5.206858,6.55939 14.127443,6.61509 2.94343,0.0184 5.83522,-0.24044 7.48363,-0.6698 z"
         id="path3461"
         transform="scale(0.26458333)" />
      <path
         style="fill:#ffffff;stroke:#000000;stroke-width:1.91287;stroke-linecap:round;stroke-linejoin:round;stroke-miterlimit:4;stroke-dasharray:none;stroke-opacity:0.955017;paint-order:stroke markers fill"
         d="m 130.31804,668.12245 c -2.26119,-0.4471 -4.69994,-1.6368 -4.69994,-2.29277 0,-0.25797 0.97286,-0.91835 2.16191,-1.46751 1.83268,-0.84642 2.95896,-0.99743 7.39599,-0.99165 4.4029,0.006 5.5774,0.1643 7.39599,0.99847 1.18905,0.54541 2.16191,1.18464 2.16191,1.42052 0,0.57608 -2.53047,1.74345 -5.02566,2.31846 -2.36319,0.54458 -6.67563,0.55123 -9.3902,0.0145 z"
         id="path3500"
         transform="scale(0.26458333)" />
      <path
         style="fill:#ffffff;stroke:#000000;stroke-width:1.91287;stroke-linecap:round;stroke-linejoin:round;stroke-miterlimit:4;stroke-dasharray:none;stroke-opacity:0.955017;paint-order:stroke markers fill"
         d="m 205.57791,718.66519 c -1.20593,-0.98222 -3.29748,-2.32642 -4.64789,-2.98712 l -2.45528,-1.20126 2.65868,-1.32856 c 1.46227,-0.7307 3.60502,-2.16156 4.76167,-3.17968 l 2.103,-1.85113 v 6.18304 c 0,3.40067 -0.0512,6.17574 -0.11379,6.1668 -0.0626,-0.009 -1.10045,-0.81987 -2.30639,-1.80209 z"
         id="path3539"
         transform="scale(0.26458333)" />
      <path
         style="fill:#ffffff;stroke:#000000;stroke-width:1.91287;stroke-linecap:round;stroke-linejoin:round;stroke-miterlimit:4;stroke-dasharray:none;stroke-opacity:0.955017;paint-order:stroke markers fill"
         d="m 44.14839,714.5097 v -5.51267 l 1.706768,1.30201 c 0.938722,0.71611 2.917615,1.94902 4.397539,2.73982 l 2.690772,1.43781 -2.275587,1.15313 c -1.251573,0.63422 -3.230466,1.882 -4.397539,2.77285 l -2.121953,1.61972 z"
         id="path3578"
         transform="scale(0.26458333)" />
      <path
         style="fill:#ffffff;stroke:#000000;stroke-width:1.91287;stroke-linecap:round;stroke-linejoin:round;stroke-miterlimit:4;stroke-dasharray:none;stroke-opacity:0.955017;paint-order:stroke markers fill"
         d="m 131.76246,632.93279 c -2.22949,-0.67282 -1.75996,-1.01162 2.30105,-1.66037 3.39534,-0.54241 7.80555,-0.25157 9.98768,0.65867 l 1.36542,0.56955 -2.41188,0.52576 c -3.06505,0.66814 -8.8785,0.61973 -11.24227,-0.0936 z"
         id="path3695"
         transform="scale(0.26458333)" />
      <path
         style="fill:#ffffff;stroke:#000000;stroke-width:1.91287;stroke-linecap:round;stroke-linejoin:round;stroke-miterlimit:4;stroke-dasharray:none;stroke-opacity:0.955017;paint-order:stroke markers fill"
         d="m 70.318828,749.9136 c -2.32568,-0.76323 -3.868673,-1.59352 -3.868673,-2.08176 0,-0.21069 1.015146,-0.81978 2.25588,-1.35353 2.854074,-1.22779 8.156582,-1.69993 11.364667,-1.01192 2.804776,0.60152 5.49525,1.77796 5.49525,2.40287 0,0.23588 -0.972857,0.86775 -2.161905,1.40416 -2.682335,1.21007 -10.224321,1.57905 -13.085219,0.64018 z"
         id="path3773"
         transform="scale(0.26458333)" />
      <path
         style="fill:#ffffff;stroke:#000000;stroke-width:1.91287;stroke-linecap:round;stroke-linejoin:round;stroke-miterlimit:4;stroke-dasharray:none;stroke-opacity:0.955017;paint-order:stroke markers fill"
         d="m 72.908986,764.58619 c -2.948467,-0.36979 -6.148942,-1.64891 -6.148942,-2.45753 0,-0.78655 3.165495,-2.08263 6.26511,-2.5652 4.499799,-0.70055 11.216717,0.56343 12.298871,2.31439 0.365543,0.59147 -1.400103,1.67019 -3.626746,2.21577 -2.943157,0.72115 -5.723289,0.87697 -8.788293,0.49257 z"
         id="path3812"
         transform="scale(0.26458333)" />
      <path
         style="fill:#ffffff;stroke:#000000;stroke-width:1.91287;stroke-linecap:round;stroke-linejoin:round;stroke-miterlimit:4;stroke-dasharray:none;stroke-opacity:0.955017;paint-order:stroke markers fill"
         d="m 98.137138,733.90153 c -3.210322,-0.88162 -3.523453,-1.41096 -1.387101,-2.34487 2.679773,-1.17146 11.516173,-1.3346 14.466003,-0.26708 1.21576,0.43998 2.20502,1.00478 2.19836,1.2551 -0.0446,1.67469 -10.68023,2.61929 -15.277262,1.35685 z"
         id="path3851"
         transform="scale(0.26458333)" />
      <path
         style="fill:#ffffff;stroke:#000000;stroke-width:1.91287;stroke-linecap:round;stroke-linejoin:round;stroke-miterlimit:4;stroke-dasharray:none;stroke-opacity:0.955017;paint-order:stroke markers fill"
         d="m 101.77824,747.58335 c -3.219329,-0.92421 -3.515944,-1.43703 -1.3871,-2.39814 2.6418,-1.1927 12.85677,-1.16391 15.44149,0.0435 l 1.82055,0.85045 -2.04812,0.93272 c -2.6419,1.20312 -10.49584,1.52773 -13.82682,0.57146 z"
         id="path3890"
         transform="scale(0.26458333)" />
      <path
         style="fill:#ffffff;stroke:#000000;stroke-width:1.91287;stroke-linecap:round;stroke-linejoin:round;stroke-miterlimit:4;stroke-dasharray:none;stroke-opacity:0.955017;paint-order:stroke markers fill"
         d="m 101.40438,761.65775 c -2.838622,-0.90409 -3.056686,-1.43964 -0.96541,-2.37099 1.3307,-0.59263 3.07659,-0.77758 7.42875,-0.78695 4.87829,-0.0105 5.98116,0.12602 7.73734,0.95784 l 2.04812,0.9701 -1.82055,0.82486 c -2.49057,1.12843 -11.37408,1.37787 -14.42825,0.40514 z"
         id="path3929"
         transform="scale(0.26458333)" />
      <path
         style="fill:#ffffff;stroke:#000000;stroke-width:1.91287;stroke-linecap:round;stroke-linejoin:round;stroke-miterlimit:4;stroke-dasharray:none;stroke-opacity:0.955017;paint-order:stroke markers fill"
         d="m 165.35493,758.26629 c -1.04956,-0.2228 -2.48325,-0.71035 -3.18596,-1.08344 l -1.27767,-0.67835 1.72857,-0.73046 c 3.77109,-1.59359 11.48864,-1.69917 15.70114,-0.2148 3.32422,1.17137 -0.21299,2.72503 -6.73397,2.95779 -2.37809,0.0849 -5.18254,-0.028 -6.23211,-0.25074 z"
         id="path3968"
         transform="scale(0.26458333)" />
      <path
         style="fill:#ffffff;stroke:#000000;stroke-width:1.91287;stroke-linecap:round;stroke-linejoin:round;stroke-miterlimit:4;stroke-dasharray:none;stroke-opacity:0.955017;paint-order:stroke markers fill"
         d="m 166.12539,744.10691 c -2.40957,-0.46964 -4.55138,-1.29737 -4.55138,-1.75892 0,-0.61127 2.37207,-1.41033 5.74188,-1.93423 3.55533,-0.55273 8.81277,-0.0561 11.27313,1.06494 1.51446,0.69003 1.50084,1.06996 -0.0611,1.7051 -3.24674,1.32023 -8.39797,1.70363 -12.40251,0.92311 z"
         id="path4007"
         transform="scale(0.26458333)" />
      <path
         style="fill:#ffffff;stroke:#000000;stroke-width:1.91287;stroke-linecap:round;stroke-linejoin:round;stroke-miterlimit:4;stroke-dasharray:none;stroke-opacity:0.955017;paint-order:stroke markers fill"
         d="m 162.48428,730.48304 c -2.455,-0.51478 -4.55138,-1.33889 -4.55138,-1.78919 0,-0.61127 2.37207,-1.41034 5.74189,-1.93423 4.54993,-0.70736 12.46363,0.52445 12.46363,1.94003 0,1.40726 -9.51875,2.65052 -13.65414,1.78339 z"
         id="path4046"
         transform="scale(0.26458333)" />
      <path
         style="fill:#ffffff;stroke:#000000;stroke-width:1.91287;stroke-linecap:round;stroke-linejoin:round;stroke-miterlimit:4;stroke-dasharray:none;stroke-opacity:0.955017;paint-order:stroke markers fill"
         d="m 129.94191,732.59053 c -2.65167,-0.65187 -4.32381,-1.47776 -4.32381,-2.13557 0,-0.2556 0.97286,-0.91403 2.16191,-1.46319 1.83268,-0.84642 2.95896,-0.99743 7.39599,-0.99164 4.4029,0.006 5.5774,0.1643 7.39599,0.99847 1.18905,0.5454 2.16191,1.18463 2.16191,1.42051 0,0.57609 -2.53047,1.74345 -5.02566,2.31846 -2.6657,0.6143 -6.93058,0.55009 -9.76633,-0.14704 z"
         id="path4124"
         transform="scale(0.26458333)" />
      <path
         style="fill:#ffffff;stroke:#000000;stroke-width:1.91287;stroke-linecap:round;stroke-linejoin:round;stroke-miterlimit:4;stroke-dasharray:none;stroke-opacity:0.955017;paint-order:stroke markers fill"
         d="m 133.58302,746.27527 c -2.6322,-0.68248 -4.32382,-1.51632 -4.32382,-2.13133 0,-0.23643 0.87046,-0.89206 1.93434,-1.45696 1.69526,-0.90013 2.60938,-1.02785 7.39599,-1.03331 4.69418,-0.005 5.77017,0.13616 7.65708,1.00707 2.5308,1.16809 2.45609,1.65 -0.45547,2.93792 -2.5769,1.13989 -9.03984,1.49808 -12.20812,0.67661 z"
         id="path4163"
         transform="scale(0.26458333)" />
      <path
         style="fill:#ffffff;stroke:#000000;stroke-width:1.91287;stroke-linecap:round;stroke-linejoin:round;stroke-miterlimit:4;stroke-dasharray:none;stroke-opacity:0.955017;paint-order:stroke markers fill"
         d="m 133.12788,760.3855 c -2.44784,-0.80833 -3.86868,-1.60424 -3.86868,-2.16712 0,-0.2556 0.97286,-0.90361 2.16191,-1.44002 4.26666,-1.92482 14.51916,-1.13121 16.5192,1.27869 0.4547,0.54788 0.172,0.82621 -1.67091,1.64508 -2.76844,1.23012 -10.29981,1.62176 -13.14152,0.68337 z"
         id="path4202"
         transform="scale(0.26458333)" />
      <path
         style="fill:#ffffff;stroke:#000000;stroke-width:1.91287;stroke-linecap:round;stroke-linejoin:round;stroke-miterlimit:4;stroke-dasharray:none;stroke-opacity:0.955017;paint-order:stroke markers fill"
         d="m 133.58302,695.95976 c -1.8814,-0.49128 -4.32382,-1.80709 -4.32382,-2.32938 0,-0.68161 2.26111,-1.66668 5.23409,-2.28028 3.41633,-0.70511 8.73314,-0.30217 11.36302,0.86115 2.84408,1.25807 2.91052,1.74932 0.3903,2.88592 -1.69803,0.7658 -3.22657,1.01606 -6.7468,1.10463 -2.50326,0.063 -5.16582,-0.0459 -5.91679,-0.24204 z"
         id="path4241"
         transform="scale(0.26458333)" />
      <path
         style="fill:#ffffff;stroke:#000000;stroke-width:1.91287;stroke-linecap:round;stroke-linejoin:round;stroke-miterlimit:4;stroke-dasharray:none;stroke-opacity:0.955017;paint-order:stroke markers fill"
         d="m 133.58302,681.64398 c -2.67889,-0.6926 -4.32382,-1.51604 -4.32382,-2.16449 0,-0.25559 0.97286,-0.91402 2.16191,-1.46318 1.83269,-0.84642 2.95896,-0.99743 7.39599,-0.99164 4.42623,0.006 5.57295,0.16217 7.42951,1.01329 2.54411,1.16632 2.45962,1.64162 -0.52662,2.96257 -2.60418,1.15196 -8.88268,1.48481 -12.13697,0.64345 z"
         id="path4280"
         transform="scale(0.26458333)" />
      <path
         style="fill:#ffffff;stroke:#000000;stroke-width:1.91287;stroke-linecap:round;stroke-linejoin:round;stroke-miterlimit:4;stroke-dasharray:none;stroke-opacity:0.955017;paint-order:stroke markers fill"
         d="m 98.168331,669.3131 c -3.22196,-0.8662 -3.567026,-1.44672 -1.418294,-2.38604 2.679773,-1.17146 11.516173,-1.33461 14.466003,-0.26708 1.21576,0.43998 2.20502,1.00477 2.19836,1.2551 -0.0441,1.65603 -10.66409,2.62986 -15.246069,1.39802 z"
         id="path4319"
         transform="scale(0.26458333)" />
      <path
         style="fill:#ffffff;stroke:#000000;stroke-width:1.91287;stroke-linecap:round;stroke-linejoin:round;stroke-miterlimit:4;stroke-dasharray:none;stroke-opacity:0.955017;paint-order:stroke markers fill"
         d="m 70.318828,685.2873 c -2.675992,-0.88305 -3.933318,-1.65228 -3.595117,-2.1995 1.134851,-1.83623 8.507026,-3.1134 13.059604,-2.26248 2.841033,0.53102 5.782637,1.74146 5.782637,2.37949 0,0.21672 -0.870451,0.8424 -1.934336,1.39041 -2.417168,1.24508 -10.382166,1.65915 -13.312788,0.69208 z"
         id="path4358"
         transform="scale(0.26458333)" />
      <path
         style="fill:#ffffff;stroke:#000000;stroke-width:1.91287;stroke-linecap:round;stroke-linejoin:round;stroke-miterlimit:4;stroke-dasharray:none;stroke-opacity:0.955017;paint-order:stroke markers fill"
         d="m 73.959932,700.1526 c -2.553416,-0.3139 -5.45864,-1.11793 -6.516175,-1.80338 -3.760505,-2.43741 8.728442,-4.73541 14.787417,-2.72093 3.076727,1.02295 3.753869,1.80779 2.341176,2.71354 -1.914719,1.22763 -7.543421,2.18804 -10.612418,1.81077 z"
         id="path4397"
         transform="scale(0.26458333)" />
      <path
         style="fill:#ffffff;stroke:#000000;stroke-width:1.91287;stroke-linecap:round;stroke-linejoin:round;stroke-miterlimit:4;stroke-dasharray:none;stroke-opacity:0.955017;paint-order:stroke markers fill"
         d="m 60.613487,759.52747 c -1.525282,-2.46795 -1.87779,-5.10309 -1.889553,-14.12514 -0.01105,-8.47357 -0.0048,-8.52754 0.880266,-7.64244 1.172317,1.17231 3.859606,2.52326 6.356852,3.1957 l 2.009039,0.54098 -1.802858,0.80716 c -3.80342,1.70284 -5.403029,5.60908 -3.491554,8.52636 0.811949,1.23919 5.632282,3.78781 7.165254,3.78843 1.276132,5e-4 0.345541,0.66413 -1.797795,1.28202 -2.573612,0.74194 -4.647591,2.12144 -5.638066,3.75014 l -0.850795,1.39903 z"
         id="path4534"
         transform="scale(0.26458333)" />
      <path
         style="fill:#ffffff;stroke:#000000;stroke-width:1.91287;stroke-linecap:round;stroke-linejoin:round;stroke-miterlimit:4;stroke-dasharray:none;stroke-opacity:0.955017;paint-order:stroke markers fill"
         d="m 60.613487,694.89787 c -0.517435,-0.83722 -1.151759,-2.43777 -1.409609,-3.55676 -0.464595,-2.01622 -0.638012,-19.87575 -0.181944,-18.73777 0.388914,0.97041 3.498283,2.71212 6.291317,3.52408 l 2.612396,0.75944 -1.780636,0.79722 c -2.588583,1.15894 -4.246237,3.31739 -4.246237,5.52906 0,3.09609 2.068623,5.09374 6.718571,6.48809 1.268546,0.38038 1.875489,0.74603 1.473914,0.88793 -0.375489,0.13269 -1.39955,0.46187 -2.27569,0.73152 -2.414626,0.74314 -4.464784,2.1453 -5.410497,3.7004 l -0.850795,1.39902 z"
         id="path4573"
         transform="scale(0.26458333)" />
      <path
         style="fill:#ffffff;stroke:#000000;stroke-width:1.91287;stroke-linecap:round;stroke-linejoin:round;stroke-miterlimit:4;stroke-dasharray:none;stroke-opacity:0.955017;paint-order:stroke markers fill"
         d="m 44.14839,714.50819 v -5.05901 l 1.024061,0.73209 c 0.563233,0.40264 2.304136,1.46931 3.868673,2.37037 3.046063,1.75432 3.385714,2.23715 1.904452,2.70728 -0.517089,0.16412 -2.257992,1.20062 -3.868674,2.30334 l -2.928512,2.00493 z"
         id="path4612"
         transform="scale(0.26458333)" />
      <path
         style="fill:#ffffff;stroke:#000000;stroke-width:1.91287;stroke-linecap:round;stroke-linejoin:round;stroke-miterlimit:4;stroke-dasharray:none;stroke-opacity:0.955017;paint-order:stroke markers fill"
         d="m 61.443636,711.78115 c -6.007706,-0.99425 -12.303073,-4.12191 -14.67764,-7.29214 -2.697995,-3.60203 -2.617606,-2.91722 -2.617606,-22.29835 0,-20.4658 -0.08324,-19.98933 4.15829,-23.80283 2.804976,-2.52191 5.91895,-4.06764 10.592718,-5.25806 3.524333,-0.89765 4.928062,-0.91679 66.677722,-0.90905 69.04457,0.009 66.30497,-0.0933 72.25087,2.68911 3.67095,1.71784 6.7287,4.25344 8.27376,6.86089 l 1.21363,2.04812 0.13776,17.29524 c 0.10005,12.56142 -0.0137,17.83958 -0.41574,19.28398 -0.78675,2.82685 -4.62289,6.83086 -8.23965,8.60023 -6.67021,3.26317 -1.27091,3.02807 -71.58667,3.11707 -36.30553,0.0459 -64.330894,-0.0965 -65.767444,-0.33421 z m 110.143404,-4.21523 c 4.4288,-1.23698 10.03117,-4.07324 12.58998,-6.37384 1.24981,-1.12369 2.9734,-3.33597 3.83018,-4.91617 l 1.5578,-2.8731 v -12.06116 -12.06116 l -1.26898,-2.58407 c -2.43445,-4.95739 -8.37776,-9.29882 -15.58711,-11.38598 l -3.62513,-1.0495 H 121.977 c -44.194943,0 -47.289662,0.0513 -50.065189,0.82963 -7.462369,2.09268 -13.150157,6.12548 -15.967436,11.32136 l -1.555379,2.86856 v 11.83359 11.83359 l 1.230601,2.62611 c 2.944388,6.28335 10.923647,11.15222 20.616025,12.57973 1.501956,0.2212 22.904823,0.3654 47.561928,0.32044 41.77478,-0.0762 45.03278,-0.13808 47.78949,-0.90803 z"
         id="path4651"
         transform="scale(0.26458333)" />
      <path
         style="fill:#ffffff;stroke:#000000;stroke-width:1.91287;stroke-linecap:round;stroke-linejoin:round;stroke-miterlimit:4;stroke-dasharray:none;stroke-opacity:0.955017;paint-order:stroke markers fill"
         d="m 60.463975,758.65855 c -0.989013,-1.86427 -1.066741,-2.59597 -1.216235,-11.44906 l -0.159702,-9.45751 1.651765,1.12091 c 0.90847,0.61651 2.676634,1.46133 3.929253,1.87738 l 2.27749,0.75646 -1.99715,1.26656 c -3.395855,2.15359 -4.282254,6.02493 -1.966829,8.59013 1.007338,1.116 3.795209,2.70234 5.743278,3.26801 1.064461,0.3091 1.079138,0.35186 0.227569,0.66311 -3.210974,1.17361 -5.863986,2.77567 -6.599568,3.98524 l -0.833337,1.37031 z"
         id="path4729"
         transform="scale(0.26458333)" />
      <path
         style="fill:#ffffff;stroke:#000000;stroke-width:1.91287;stroke-linecap:round;stroke-linejoin:round;stroke-miterlimit:4;stroke-dasharray:none;stroke-opacity:0.955017;paint-order:stroke markers fill"
         d="m 50.976116,649.25347 c 2.366126,-3.43905 7.576074,-8.7081 11.991413,-12.12745 2.214934,-1.7153 4.211852,-3.11872 4.437596,-3.11872 0.225744,0 0.410444,0.53905 0.410444,1.19788 0,0.77457 0.55121,1.71775 1.55977,2.66894 l 1.559769,1.47106 -1.833499,0.60511 c -3.780198,1.24757 -5.493098,4.23024 -3.809643,6.63371 0.650201,0.92829 0.59583,0.95079 -2.960919,1.22506 -3.109615,0.2398 -8.366319,1.67046 -11.999739,3.26585 -0.675839,0.29675 -0.530946,-0.11254 0.644808,-1.82144 z"
         id="path4807"
         transform="scale(0.26458333)" />
      <path
         style="fill:#ffffff;stroke:#000000;stroke-width:1.90358;stroke-linecap:round;stroke-linejoin:round;stroke-opacity:0.955017;paint-order:stroke markers fill"
         d="m 66.354045,711.58546 c -6.72317,-0.28049 -7.508702,-0.40695 -10.870287,-1.74998 -4.494137,-1.7955 -7.706997,-4.1938 -9.497185,-7.08937 l -1.373102,-2.22094 v -18.16733 c 0,-20.88555 -0.0684,-20.47992 4.014727,-23.80744 2.613888,-2.13017 4.742392,-3.30374 8.419023,-4.64192 2.294454,-0.83511 4.166527,-0.94873 21.535897,-1.30711 23.025852,-0.47508 106.730952,-0.0459 112.059142,0.57458 4.71703,0.54929 9.59222,2.78604 12.72651,5.83893 3.80636,3.70751 3.64409,2.72256 3.75118,22.76891 0.0894,16.7275 0.044,17.86697 -0.77646,19.52014 -2.12373,4.27897 -8.59554,8.76702 -14.15398,9.81544 -3.00437,0.56668 -113.605002,0.97634 -125.835465,0.46609 z m 105.488665,-3.87059 c 4.08415,-1.09666 10.0679,-4.21644 12.53725,-6.53662 1.21925,-1.1456 2.93239,-3.29382 3.80698,-4.77383 l 1.59016,-2.69092 v -12.50883 -12.50883 l -1.59071,-2.69092 c -2.85943,-4.83717 -7.55851,-8.24382 -14.64744,-10.61883 l -4.18642,-1.40258 -48.10228,0.13595 -48.102275,0.13596 -2.944036,1.05779 c -6.969656,2.50419 -12.285416,6.59297 -14.657669,11.27438 l -1.194834,2.35789 v 12.29396 12.29397 l 1.434596,2.69157 c 2.490575,4.6728 7.500336,8.43435 14.417907,10.82561 4.302582,1.48731 13.026973,1.71299 59.333651,1.53478 34.41964,-0.13247 39.98288,-0.24694 42.30512,-0.8705 z"
         id="path977"
         transform="scale(0.26458333)" />
    </g>
  </g>
</svg>
