<?xml version="1.0" encoding="UTF-8" standalone="no"?>
<!-- Created with Inkscape (http://www.inkscape.org/) -->

<svg
   width="210mm"
   height="297mm"
   viewBox="0 0 210 297"
   version="1.1"
   id="svg5"
   inkscape:version="1.1.1 (3bf5ae0d25, 2021-09-20)"
   sodipodi:docname="dynamic  mic track icon svg.svg"
   xmlns:inkscape="http://www.inkscape.org/namespaces/inkscape"
   xmlns:sodipodi="http://sodipodi.sourceforge.net/DTD/sodipodi-0.dtd"
   xmlns="http://www.w3.org/2000/svg"
   xmlns:svg="http://www.w3.org/2000/svg">
  <sodipodi:namedview
     id="namedview7"
     pagecolor="#ffffff"
     bordercolor="#666666"
     borderopacity="1.0"
     inkscape:pageshadow="2"
     inkscape:pageopacity="0.0"
     inkscape:pagecheckerboard="0"
     inkscape:document-units="mm"
     showgrid="false"
     inkscape:zoom="0.83972969"
     inkscape:cx="362.02126"
     inkscape:cy="123.25395"
     inkscape:window-width="1680"
     inkscape:window-height="956"
     inkscape:window-x="-11"
     inkscape:window-y="-11"
     inkscape:window-maximized="1"
     inkscape:current-layer="layer1"
     showguides="true"
     inkscape:guide-bbox="true" />
  <defs
     id="defs2">
    <inkscape:path-effect
       effect="spiro"
       id="path-effect2785"
       is_visible="true"
       lpeversion="1" />
    <inkscape:path-effect
       effect="spiro"
       id="path-effect2650"
       is_visible="true"
       lpeversion="1" />
    <inkscape:path-effect
       effect="spiro"
       id="path-effect2453"
       is_visible="true"
       lpeversion="1" />
    <inkscape:path-effect
       effect="rough_hatches"
       id="path-effect2461"
       is_visible="true"
       lpeversion="1"
       direction="69.99843,260.92094 , 8.1437712,0"
       dist_rdm="6;1"
       growth="0"
       do_bend="true"
       bender="69.99843,265.92094 , 5,0"
       bottom_edge_variation="1.4602372;1"
       top_edge_variation="1.4602372;1"
       bottom_tgt_variation="0;1"
       top_tgt_variation="0;1"
       scale_bf="1"
       scale_bb="1"
       scale_tf="1"
       scale_tb="1"
       top_smth_variation="0;1"
       bottom_smth_variation="0;1"
       fat_output="true"
       stroke_width_top="1"
       stroke_width_bottom="1"
       front_thickness="1"
       back_thickness="0.25" />
    <inkscape:path-effect
       effect="skeletal"
       id="path-effect1945"
       is_visible="true"
       lpeversion="1"
       pattern="m 33.860958,87.614548 h 14.800324 c 5.651367,0 10.201025,4.549657 10.201025,10.201025 v 12.157417 c 0,5.65137 -4.549658,10.20103 -10.201025,10.20103 H 33.860958 c -5.651368,0 -10.201025,-4.54966 -10.201025,-10.20103 V 97.815573 c 0,-5.651368 4.549657,-10.201025 10.201025,-10.201025 z"
       copytype="repeated"
       prop_scale="1.28"
       scale_y_rel="false"
       spacing="2.6"
       normal_offset="0"
       tang_offset="0"
       prop_units="false"
       vertical_pattern="false"
       hide_knot="false"
       fuse_tolerance="0" />
    <inkscape:path-effect
       effect="skeletal"
       id="path-effect1762"
       is_visible="true"
       lpeversion="1"
       pattern="#rect1629"
       copytype="repeated"
       prop_scale="1"
       scale_y_rel="false"
       spacing="0"
       normal_offset="0"
       tang_offset="0"
       prop_units="false"
       vertical_pattern="false"
       hide_knot="false"
       fuse_tolerance="0" />
  </defs>
  <g
     inkscape:label="Layer 1"
     inkscape:groupmode="layer"
     id="layer1">
    <path
       id="path910"
       style="fill:none;stroke:#000000;stroke-width:0.671507;stroke-linecap:round;stroke-linejoin:round;stroke-opacity:0.955017;paint-order:stroke markers fill"
       d="m 28.352587,75.07802 c 5.44754,0 9.83312,1.109897 9.83312,2.488559 0,1.378663 -4.38558,2.488562 -9.83312,2.488562 -5.44755,0 -9.83313,-1.109899 -9.83313,-2.488562 0,-1.378662 4.38558,-2.488559 9.83313,-2.488559 z m -15.1166,-24.278635 c 1.1383,0 2.05469,2.571716 2.05469,5.766177 0,3.194461 -0.91639,5.766177 -2.05469,5.766177 -1.13829,0 -2.05468,-2.571716 -2.05468,-5.766177 0,-3.194461 0.91639,-5.766177 2.05468,-5.766177 z m 2.38455,-10.618096 -5.7965995,-0.101629 0.9464695,-2.351696 5.7966,0.101616 z m 1.10813,0.335226 -8.5620795,-0.07088 0.79047,-3.05177 8.5620895,0.07088 z m 24.60375,-0.124402 -5.79659,-0.101629 0.94647,-2.351706 5.79661,0.101616 z m 1.10814,0.335221 -8.56209,-0.07088 0.79046,-3.051782 8.56212,0.07088 z m -9.68306,-0.405194 -5.7966,-0.101629 0.94649,-2.351704 5.79661,0.101616 z m 1.10815,0.335223 -8.56209,-0.07088 0.79046,-3.051775 8.56212,0.07087 z m -9.67026,-0.406105 -5.79659,-0.101616 0.94647,-2.351707 5.79661,0.101629 z m 1.10817,0.335226 -8.56212,-0.07088 0.79047,-3.051775 8.56211,0.07088 z m -8.95332,-3.443824 -5.7966,-0.101616 0.94648,-2.351696 5.79661,0.101616 z m 1.10815,0.335222 -8.5620795,-0.07087 0.79045,-3.051766 8.5620895,0.07087 z m 24.60373,-0.124402 -5.79659,-0.101629 0.94645,-2.351696 5.79662,0.101616 z m 1.10816,0.33522 -8.56211,-0.07088 0.79044,-3.051764 8.56212,0.07087 z m -9.68308,-0.405187 -5.7966,-0.101616 0.94648,-2.351695 5.79661,0.101616 z m 1.10815,0.335219 -8.56208,-0.07087 0.79045,-3.051763 8.5621,0.07087 z m -9.67024,-0.406094 -5.79661,-0.101629 0.94649,-2.351696 5.79659,0.101616 z m 1.10816,0.33522 -8.56211,-0.07088 0.79046,-3.051772 8.5621,0.07088 z m -15.82183,32.65859 h 32.87965 c 1.80589,0 3.25972,0.844304 3.25972,1.893055 v 9.011688 c 0,1.048752 -1.45383,1.893051 -3.25972,1.893051 h -32.87965 c -1.8058795,0 -3.2597095,-0.844299 -3.2597095,-1.893051 v -9.011688 c 0,-1.048751 1.45383,-1.893055 3.2597095,-1.893055 z m 0.0416,-4.045803 h 33.3155 c 1.80133,0 3.25147,0.842169 3.25147,1.888279 v 0.294666 c 0,1.046101 -1.45014,1.888276 -3.25147,1.888276 h -33.31555 c -1.8013095,0 -3.2514695,-0.842175 -3.2514695,-1.888276 v -0.294674 c 0,-1.04611 1.45016,-1.888278 3.2514695,-1.888278 z m -2e-5,-18.666647 h 32.79659 c 1.80133,0 3.25147,0.84217 3.25147,1.888281 v 14.890098 c 0,1.046101 -1.45014,1.888268 -3.25147,1.888268 h -32.79657 c -1.8013295,0 -3.2514695,-0.842167 -3.2514695,-1.888268 V 49.38227 c 0,-1.046112 1.45014,-1.888281 3.2514695,-1.888281 z M 9.8296375,43.446421 H 43.121797 c 1.82852,0 3.30059,0.854885 3.30059,1.916805 v 0.168814 c 0,1.061916 -1.47207,1.916806 -3.30059,1.916806 H 9.8296475 c -1.82854,0 -3.30061,-0.85489 -3.30061,-1.916806 v -0.168814 c 0,-1.06192 1.47207,-1.916805 3.30061,-1.916805 z M 45.004707,21.04968 l 0.0812,13.04726 M 6.8998075,21.04968 l 0.0812,13.04726 m 1.16182,-21.974162 c 0.80232,-2.011568 2.6231695,-3.8823613 5.1769595,-5.3189919 2.35894,-1.3270132 5.33403,-2.2810677 8.52443,-2.7336189 3.1904,-0.4525514 6.58782,-0.4024267 9.73455,0.1436226 3.14672,0.5460461 6.03455,1.5866008 8.27442,2.9814637 2.23986,1.3948612 3.82595,3.1404125 4.54457,5.0014735 M 9.2716675,34.355242 H 42.572877 c 0.72962,0 1.317,0.78724 1.317,1.765116 v 3.362121 c 0,0.977863 -0.58738,1.765103 -1.317,1.765103 H 9.2716675 c -0.72961,0 -1.31699,-0.78724 -1.31699,-1.765103 v -3.362121 c 0,-0.977876 0.58738,-1.765116 1.31699,-1.765116 z m -1.12884,-1.428909 H 43.827167 c 0.72961,0 1.31699,0.787247 1.31699,1.765118 v 6.892348 c 0,0.977868 -0.58738,1.765107 -1.31699,1.765107 H 8.1428275 c -0.72962,0 -1.317,-0.787239 -1.317,-1.765107 v -6.892348 c 0,-0.977871 0.58738,-1.765118 1.317,-1.765118 z m 1.12884,-19.374656 H 42.572877 c 0.72962,0 1.317,0.787242 1.317,1.76511 v 3.362115 c 0,0.97787 -0.58738,1.76511 -1.317,1.76511 H 9.2716675 c -0.72961,0 -1.31699,-0.78724 -1.31699,-1.76511 v -3.362115 c 0,-0.977868 0.58738,-1.76511 1.31699,-1.76511 z m -1.12884,-1.428899 H 43.827167 c 0.72961,0 1.31699,0.787243 1.31699,1.765114 v 6.892327 c 0,0.977878 -0.58738,1.765117 -1.31699,1.765117 H 8.1428275 c -0.72962,0 -1.317,-0.787239 -1.317,-1.765117 v -6.892327 c 0,-0.977871 0.58738,-1.765114 1.317,-1.765114 z m 8.1902995,8.146023 -5.7207,-0.0047 0.49633,-2.609871 5.72067,0.0047 z m 1.15199,0.348982 -8.4352995,0.08055 0.21345,-3.378684 8.4353095,-0.08055 z m 24.17877,-0.59314 -5.72067,-0.0047 0.49629,-2.609866 5.72071,0.0047 z m 1.15202,0.348987 -8.43532,0.08055 0.21342,-3.378676 8.43534,-0.08055 z m -9.59977,-0.267179 -5.72068,-0.0047 0.49631,-2.609866 5.72069,0.0047 z m 1.15201,0.348981 -8.4353,0.08055 0.21342,-3.378676 8.43534,-0.08055 z m -9.58734,-0.268425 -5.72067,-0.0047 0.49631,-2.609866 5.72069,0.0047 z m 1.15204,0.348981 -8.43534,0.08055 0.21345,-3.378672 8.43531,-0.08055 z m -9.44362,-3.630247 -5.72067,-0.0047 0.49632,-2.609871 5.72068,0.0047 z m 1.15202,0.348985 -8.4353095,0.08055 0.21344,-3.378675 8.4352995,-0.08055 z m 24.17873,-0.593136 -5.72067,-0.0047 0.4963,-2.609867 5.72069,0.0045 z m 1.15202,0.348979 -8.43533,0.08055 0.21342,-3.378678 8.43534,-0.08055 z m -9.59976,-0.267178 -5.72069,-0.0047 0.49632,-2.609867 5.72068,0.0045 z m 1.152,0.348986 -8.43531,0.08055 0.21346,-3.37868 8.4353,-0.08055 z m -9.5873,-0.268432 -5.7207,-0.0047 0.49633,-2.609875 5.72067,0.0047 z m 1.15199,0.348989 -8.4353,0.08055 0.21344,-3.37868 8.43532,-0.08055 z m -7.61675,-6.08414 -4.37264,-0.02656 0.44305,-1.7021943 4.37263,0.02656 z m 0.87204,0.232633 -6.44969,0.01786 0.24558,-2.2053893 6.44969,-0.01786 z m 18.4961,-0.287739 -4.37264,-0.02656 0.44305,-1.7022003 4.37265,0.02656 z m 0.87204,0.232631 -6.44969,0.01786 0.24556,-2.2053963 6.44973,-0.01786 z m -7.33127,-0.214007 -4.37264,-0.02656 0.44304,-1.7021983 4.37264,0.02656 z m 0.87204,0.23263 -6.4497,0.01786 0.24557,-2.2053943 6.44973,-0.01786 z m -7.32175,-0.214769 -4.37264,-0.02656 0.44304,-1.7021943 4.37264,0.02656 z m 0.87205,0.23263 -6.44971,0.01786 0.24559,-2.2053923 6.44969,-0.01786 z m -7.12988,-2.4094373 -4.37262,-0.02656 0.44305,-1.7021938 4.37261,0.026563 z m 0.87206,0.232629 -6.44969,0.01786 0.24556,-2.205387 6.44971,-0.017862 z m 18.49608,-0.287741 -4.37264,-0.02656 0.44305,-1.7021913 4.37263,0.026562 z m 0.87206,0.232629 -6.44971,0.01786 0.24556,-2.2053842 6.44971,-0.017862 z m -7.33129,-0.214003 -4.37264,-0.02656 0.44304,-1.7021918 4.37264,0.026563 z m 0.87204,0.232626 -6.4497,0.01786 0.24559,-2.2053869 6.44969,-0.01786 z m -7.32175,-0.214762 -4.37262,-0.02656 0.44303,-1.7021923 4.37263,0.026563 z m 0.87205,0.232629 -6.44969,0.01786 0.24557,-2.205387 6.44971,-0.017861 z" />
    <g
       id="g1198"
       transform="translate(-1.0583333,-1.0583333)">
      <path
         id="path828"
         style="fill:none;stroke:#000000;stroke-width:0.671507;stroke-linecap:round;stroke-linejoin:round;stroke-opacity:0.955017;paint-order:stroke markers fill"
         d="m 187.39,76.968509 c 5.44754,0 9.83312,1.109897 9.83312,2.488559 0,1.378663 -4.38558,2.488562 -9.83312,2.488562 -5.44755,0 -9.83313,-1.109899 -9.83313,-2.488562 0,-1.378662 4.38558,-2.488559 9.83313,-2.488559 z M 172.2734,52.689874 c 1.1383,0 2.05469,2.571716 2.05469,5.766177 0,3.194461 -0.91639,5.766177 -2.05469,5.766177 -1.13829,0 -2.05468,-2.571716 -2.05468,-5.766177 0,-3.194461 0.91639,-5.766177 2.05468,-5.766177 z m 2.38455,-10.618096 -5.7966,-0.101629 0.94647,-2.351696 5.7966,0.101616 z m 1.10813,0.335226 -8.56208,-0.07088 0.79047,-3.05177 8.56209,0.07088 z m 24.60375,-0.124402 -5.79659,-0.101629 0.94647,-2.351706 5.79661,0.101616 z m 1.10814,0.335221 -8.56209,-0.07088 0.79046,-3.051782 8.56212,0.07088 z m -9.68306,-0.405194 -5.7966,-0.101629 0.94649,-2.351704 5.79661,0.101616 z m 1.10815,0.335223 -8.56209,-0.07088 0.79046,-3.051775 8.56212,0.07087 z m -9.67026,-0.406105 -5.79659,-0.101616 0.94647,-2.351707 5.79661,0.101629 z m 1.10817,0.335226 -8.56212,-0.07088 0.79047,-3.051775 8.56211,0.07088 z m -8.95332,-3.443824 -5.7966,-0.101616 0.94648,-2.351696 5.79661,0.101616 z m 1.10815,0.335222 -8.56208,-0.07087 0.79045,-3.051766 8.56209,0.07087 z m 24.60373,-0.124402 -5.79659,-0.101629 0.94645,-2.351696 5.79662,0.101616 z m 1.10816,0.33522 -8.56211,-0.07088 0.79044,-3.051764 8.56212,0.07087 z m -9.68308,-0.405187 -5.7966,-0.101616 0.94648,-2.351695 5.79661,0.101616 z m 1.10815,0.335219 -8.56208,-0.07087 0.79045,-3.051763 8.5621,0.07087 z m -9.67024,-0.406094 -5.79661,-0.101629 0.94649,-2.351696 5.79659,0.101616 z m 1.10816,0.33522 -8.56211,-0.07088 0.79046,-3.051772 8.5621,0.07088 z m -15.82183,32.65859 h 32.87965 c 1.80589,0 3.25972,0.844304 3.25972,1.893055 v 9.011688 c 0,1.048752 -1.45383,1.893051 -3.25972,1.893051 h -32.87965 c -1.80588,0 -3.25971,-0.844299 -3.25971,-1.893051 v -9.011688 c 0,-1.048751 1.45383,-1.893055 3.25971,-1.893055 z m 0.0416,-4.045803 h 33.3155 c 1.80133,0 3.25147,0.842169 3.25147,1.888279 v 0.294666 c 0,1.046101 -1.45014,1.888276 -3.25147,1.888276 H 169.2904 c -1.80131,0 -3.25147,-0.842175 -3.25147,-1.888276 v -0.294674 c 0,-1.04611 1.45016,-1.888278 3.25147,-1.888278 z m -2e-5,-18.666647 h 32.79659 c 1.80133,0 3.25147,0.84217 3.25147,1.888281 v 14.890098 c 0,1.046101 -1.45014,1.888268 -3.25147,1.888268 h -32.79657 c -1.80133,0 -3.25147,-0.842167 -3.25147,-1.888268 V 51.272759 c 0,-1.046112 1.45014,-1.888281 3.25147,-1.888281 z m -0.42338,-4.047577 h 33.29216 c 1.82852,0 3.30059,0.854885 3.30059,1.916805 v 0.168814 c 0,1.061916 -1.47207,1.916806 -3.30059,1.916806 h -33.29215 c -1.82854,0 -3.30061,-0.85489 -3.30061,-1.916806 v -0.168814 c 0,-1.06192 1.47207,-1.916805 3.30061,-1.916805 z m 35.17507,-22.396741 0.0812,13.04726 m -38.1861,-13.04726 0.0812,13.04726 m 1.16182,-21.974162 c 0.80232,-2.011568 2.62317,-3.882361 5.17696,-5.3189916 2.35894,-1.3270132 5.33403,-2.2810677 8.52443,-2.7336189 3.1904,-0.4525514 6.58782,-0.4024267 9.73455,0.1436226 3.14672,0.5460461 6.03455,1.5866008 8.27442,2.9814637 2.23986,1.3948612 3.82595,3.1404122 4.54457,5.0014732 m -35.12609,22.158515 h 33.30121 c 0.72962,0 1.317,0.78724 1.317,1.765116 v 3.362121 c 0,0.977863 -0.58738,1.765103 -1.317,1.765103 h -33.30121 c -0.72961,0 -1.31699,-0.78724 -1.31699,-1.765103 v -3.362121 c 0,-0.977876 0.58738,-1.765116 1.31699,-1.765116 z m -1.12884,-1.428909 h 35.68434 c 0.72961,0 1.31699,0.787247 1.31699,1.765118 v 6.892348 c 0,0.977868 -0.58738,1.765107 -1.31699,1.765107 h -35.68434 c -0.72962,0 -1.317,-0.787239 -1.317,-1.765107 V 36.58194 c 0,-0.977871 0.58738,-1.765118 1.317,-1.765118 z m 1.12884,-19.374656 h 33.30121 c 0.72962,0 1.317,0.787242 1.317,1.76511 v 3.362115 c 0,0.97787 -0.58738,1.76511 -1.317,1.76511 h -33.30121 c -0.72961,0 -1.31699,-0.78724 -1.31699,-1.76511 v -3.362115 c 0,-0.977868 0.58738,-1.76511 1.31699,-1.76511 z m -1.12884,-1.428899 h 35.68434 c 0.72961,0 1.31699,0.787243 1.31699,1.765114 v 6.892327 c 0,0.977878 -0.58738,1.765117 -1.31699,1.765117 h -35.68434 c -0.72962,0 -1.317,-0.787239 -1.317,-1.765117 v -6.892327 c 0,-0.977871 0.58738,-1.765114 1.317,-1.765114 z m 8.1903,8.146023 -5.7207,-0.0047 0.49633,-2.609871 5.72067,0.0047 z m 1.15199,0.348982 -8.4353,0.08055 0.21345,-3.378684 8.43531,-0.08055 z m 24.17877,-0.59314 -5.72067,-0.0047 0.49629,-2.609866 5.72071,0.0047 z m 1.15202,0.348987 -8.43532,0.08055 0.21342,-3.378676 8.43534,-0.08055 z m -9.59977,-0.267179 -5.72068,-0.0047 0.49631,-2.609866 5.72069,0.0047 z m 1.15201,0.348981 -8.4353,0.08055 0.21342,-3.378676 8.43534,-0.08055 z m -9.58734,-0.268425 -5.72067,-0.0047 0.49631,-2.609866 5.72069,0.0047 z m 1.15204,0.348981 -8.43534,0.08055 0.21345,-3.378672 8.43531,-0.08055 z m -9.44362,-3.630247 -5.72067,-0.0047 0.49632,-2.609871 5.72068,0.0047 z m 1.15202,0.348985 -8.43531,0.08055 0.21344,-3.378675 8.4353,-0.08055 z m 24.17873,-0.593136 -5.72067,-0.0047 0.4963,-2.609867 5.72069,0.0045 z m 1.15202,0.348979 -8.43533,0.08055 0.21342,-3.378678 8.43534,-0.08055 z m -9.59976,-0.267178 -5.72069,-0.0047 0.49632,-2.609867 5.72068,0.0045 z m 1.152,0.348986 -8.43531,0.08055 0.21346,-3.37868 8.4353,-0.08055 z m -9.5873,-0.268432 -5.7207,-0.0047 0.49633,-2.609875 5.72067,0.0047 z m 1.15199,0.348989 -8.4353,0.08055 0.21344,-3.37868 8.43532,-0.08055 z m -7.61675,-6.08414 -4.37264,-0.02656 0.44305,-1.702194 4.37263,0.02656 z m 0.87204,0.232633 -6.44969,0.01786 0.24558,-2.205389 6.44969,-0.01786 z m 18.4961,-0.287739 -4.37264,-0.02656 0.44305,-1.7022 4.37265,0.02656 z m 0.87204,0.232631 -6.44969,0.01786 0.24556,-2.205396 6.44973,-0.01786 z m -7.33127,-0.214007 -4.37264,-0.02656 0.44304,-1.702198 4.37264,0.02656 z m 0.87204,0.23263 -6.4497,0.01786 0.24557,-2.205394 6.44973,-0.01786 z m -7.32175,-0.214769 -4.37264,-0.02656 0.44304,-1.702194 4.37264,0.02656 z m 0.87205,0.23263 -6.44971,0.01786 0.24559,-2.205392 6.44969,-0.01786 z m -7.12988,-2.409437 -4.37262,-0.02656 0.44305,-1.7021938 4.37261,0.026563 z m 0.87206,0.232629 -6.44969,0.01786 0.24556,-2.205387 6.44971,-0.017862 z m 18.49608,-0.287741 -4.37264,-0.02656 0.44305,-1.7021913 4.37263,0.026562 z m 0.87206,0.232629 -6.44971,0.01786 0.24556,-2.2053842 6.44971,-0.017862 z m -7.33129,-0.214003 -4.37264,-0.02656 0.44304,-1.7021918 4.37264,0.026563 z m 0.87204,0.232626 -6.4497,0.01786 0.24559,-2.2053869 6.44969,-0.01786 z m -7.32175,-0.214762 -4.37262,-0.02656 0.44303,-1.7021923 4.37263,0.026563 z m 0.87205,0.232629 -6.44969,0.01786 0.24557,-2.205387 6.44971,-0.017861 z" />
      <path
         style="fill:#000000;stroke:#000000;stroke-width:1.42115;stroke-linecap:round;stroke-linejoin:round;stroke-opacity:0.955017;paint-order:stroke markers fill"
         d="m 649.46209,239.98524 c -5.0226,-6.05187 -5.76354,-26.17705 -1.29989,-35.30741 1.95584,-4.00065 3.66769,-4.15055 5.79537,-0.50745 3.98961,6.83116 4.05637,25.19755 0.12044,33.1355 -1.84441,3.71979 -3.1321,4.46724 -4.61592,2.67936 z"
         id="path1037"
         transform="scale(0.26458333)" />
      <path
         style="fill:#000000;stroke:#000000;stroke-width:1.42115;stroke-linecap:round;stroke-linejoin:round;stroke-opacity:0.955017;paint-order:stroke markers fill"
         d="m 693.09886,307.12975 c -7.77934,-0.90066 -15.41142,-2.97133 -18.56307,-5.03637 l -2.21792,-1.45324 2.29742,-1.97615 c 7.62876,-6.56199 49.87,-7.73272 64.12354,-1.77721 4.802,2.0064 5.74245,3.57521 3.15827,5.26843 -7.31584,4.79352 -30.20652,7.12702 -48.79824,4.97454 z"
         id="path1076"
         transform="scale(0.26458333)" />
    </g>
  </g>
</svg>
