<?xml version="1.0" encoding="UTF-8" standalone="no"?>
<!-- Created with Inkscape (http://www.inkscape.org/) -->

<svg
   width="210mm"
   height="297mm"
   viewBox="0 0 210 297"
   version="1.1"
   id="svg5"
   inkscape:version="1.1.1 (3bf5ae0d25, 2021-09-20)"
   sodipodi:docname="lavaller mic track icon svg.svg"
   xmlns:inkscape="http://www.inkscape.org/namespaces/inkscape"
   xmlns:sodipodi="http://sodipodi.sourceforge.net/DTD/sodipodi-0.dtd"
   xmlns="http://www.w3.org/2000/svg"
   xmlns:svg="http://www.w3.org/2000/svg">
  <sodipodi:namedview
     id="namedview7"
     pagecolor="#ffffff"
     bordercolor="#666666"
     borderopacity="1.0"
     inkscape:pageshadow="2"
     inkscape:pageopacity="0.0"
     inkscape:pagecheckerboard="0"
     inkscape:document-units="mm"
     showgrid="false"
     inkscape:zoom="0.61580177"
     inkscape:cx="469.30686"
     inkscape:cy="450.63202"
     inkscape:window-width="1680"
     inkscape:window-height="956"
     inkscape:window-x="-11"
     inkscape:window-y="-11"
     inkscape:window-maximized="1"
     inkscape:current-layer="layer1" />
  <defs
     id="defs2">
    <inkscape:path-effect
       effect="spiro"
       id="path-effect6694"
       is_visible="true"
       lpeversion="1" />
    <inkscape:path-effect
       effect="spiro"
       id="path-effect6669"
       is_visible="true"
       lpeversion="1" />
    <inkscape:path-effect
       effect="spiro"
       id="path-effect6663"
       is_visible="true"
       lpeversion="1" />
    <inkscape:path-effect
       effect="spiro"
       id="path-effect6577"
       is_visible="true"
       lpeversion="1" />
    <inkscape:path-effect
       effect="spiro"
       id="path-effect6571"
       is_visible="true"
       lpeversion="1" />
    <inkscape:path-effect
       effect="spiro"
       id="path-effect2327"
       is_visible="true"
       lpeversion="1" />
    <inkscape:path-effect
       effect="spiro"
       id="path-effect1970"
       is_visible="true"
       lpeversion="1" />
    <inkscape:path-effect
       effect="spiro"
       id="path-effect1740"
       is_visible="true"
       lpeversion="1" />
    <inkscape:path-effect
       effect="spiro"
       id="path-effect1524"
       is_visible="true"
       lpeversion="1" />
    <inkscape:path-effect
       effect="spiro"
       id="path-effect1518"
       is_visible="true"
       lpeversion="1" />
    <inkscape:path-effect
       effect="spiro"
       id="path-effect5879"
       is_visible="true"
       lpeversion="1" />
    <inkscape:path-effect
       effect="spiro"
       id="path-effect5875"
       is_visible="true"
       lpeversion="1" />
    <inkscape:path-effect
       effect="spiro"
       id="path-effect1055"
       is_visible="true"
       lpeversion="1" />
    <inkscape:path-effect
       effect="spiro"
       id="path-effect1051"
       is_visible="true"
       lpeversion="1" />
    <inkscape:path-effect
       effect="spiro"
       id="path-effect901"
       is_visible="true"
       lpeversion="1" />
    <inkscape:path-effect
       effect="spiro"
       id="path-effect897"
       is_visible="true"
       lpeversion="1" />
    <inkscape:path-effect
       effect="spiro"
       id="path-effect4644"
       is_visible="true"
       lpeversion="1" />
    <inkscape:path-effect
       effect="spiro"
       id="path-effect4640"
       is_visible="true"
       lpeversion="1" />
    <inkscape:path-effect
       effect="spiro"
       id="path-effect4628"
       is_visible="true"
       lpeversion="1" />
    <inkscape:path-effect
       effect="spiro"
       id="path-effect4511"
       is_visible="true"
       lpeversion="1" />
    <inkscape:path-effect
       effect="spiro"
       id="path-effect4076"
       is_visible="true"
       lpeversion="1" />
    <inkscape:path-effect
       effect="spiro"
       id="path-effect4035"
       is_visible="true"
       lpeversion="1" />
    <inkscape:path-effect
       effect="spiro"
       id="path-effect3949"
       is_visible="true"
       lpeversion="1" />
    <inkscape:path-effect
       effect="spiro"
       id="path-effect3943"
       is_visible="true"
       lpeversion="1" />
    <inkscape:path-effect
       effect="spiro"
       id="path-effect2826"
       is_visible="true"
       lpeversion="1" />
    <inkscape:path-effect
       effect="spiro"
       id="path-effect2820"
       is_visible="true"
       lpeversion="1" />
    <inkscape:path-effect
       effect="spiro"
       id="path-effect2415"
       is_visible="true"
       lpeversion="1" />
    <inkscape:path-effect
       effect="spiro"
       id="path-effect2263"
       is_visible="true"
       lpeversion="1" />
    <inkscape:path-effect
       effect="spiro"
       id="path-effect1863"
       is_visible="true"
       lpeversion="1" />
    <inkscape:path-effect
       effect="spiro"
       id="path-effect1613"
       is_visible="true"
       lpeversion="1" />
    <inkscape:path-effect
       effect="spiro"
       id="path-effect1459"
       is_visible="true"
       lpeversion="1" />
    <inkscape:path-effect
       effect="spiro"
       id="path-effect1455"
       is_visible="true"
       lpeversion="1" />
    <inkscape:path-effect
       effect="spiro"
       id="path-effect2916"
       is_visible="true"
       lpeversion="1" />
    <inkscape:path-effect
       effect="spiro"
       id="path-effect2912"
       is_visible="true"
       lpeversion="1" />
    <inkscape:path-effect
       effect="spiro"
       id="path-effect2908"
       is_visible="true"
       lpeversion="1" />
    <inkscape:path-effect
       effect="spiro"
       id="path-effect2904"
       is_visible="true"
       lpeversion="1" />
    <inkscape:path-effect
       effect="spiro"
       id="path-effect1001"
       is_visible="true"
       lpeversion="1" />
    <inkscape:path-effect
       effect="spiro"
       id="path-effect997"
       is_visible="true"
       lpeversion="1" />
    <inkscape:path-effect
       effect="spiro"
       id="path-effect993"
       is_visible="true"
       lpeversion="1" />
    <inkscape:path-effect
       effect="spiro"
       id="path-effect989"
       is_visible="true"
       lpeversion="1" />
    <inkscape:path-effect
       effect="spiro"
       id="path-effect2356"
       is_visible="true"
       lpeversion="1" />
    <inkscape:path-effect
       effect="spiro"
       id="path-effect2352"
       is_visible="true"
       lpeversion="1" />
    <inkscape:path-effect
       effect="spiro"
       id="path-effect2348"
       is_visible="true"
       lpeversion="1" />
    <inkscape:path-effect
       effect="spiro"
       id="path-effect2344"
       is_visible="true"
       lpeversion="1" />
    <inkscape:path-effect
       effect="spiro"
       id="path-effect1589"
       is_visible="true"
       lpeversion="1" />
    <inkscape:path-effect
       effect="spiro"
       id="path-effect1585"
       is_visible="true"
       lpeversion="1" />
    <inkscape:path-effect
       effect="spiro"
       id="path-effect1581"
       is_visible="true"
       lpeversion="1" />
    <inkscape:path-effect
       effect="spiro"
       id="path-effect1577"
       is_visible="true"
       lpeversion="1" />
    <inkscape:path-effect
       effect="spiro"
       id="path-effect1410"
       is_visible="true"
       lpeversion="1" />
    <inkscape:path-effect
       effect="spiro"
       id="path-effect1404"
       is_visible="true"
       lpeversion="1" />
    <inkscape:path-effect
       effect="spiro"
       id="path-effect1318"
       is_visible="true"
       lpeversion="1" />
    <inkscape:path-effect
       effect="spiro"
       id="path-effect1312"
       is_visible="true"
       lpeversion="1" />
    <clipPath
       clipPathUnits="userSpaceOnUse"
       id="clipPath1191">
      <path
         id="path1193"
         style="fill:none;stroke:#000000;stroke-width:1.41875;stroke-linecap:round;stroke-linejoin:round;stroke-opacity:0.955017;paint-order:stroke markers fill"
         d="m 93.174498,158.25273 c -0.02479,0.40278 -0.103537,0.79477 -0.275012,1.16063 -0.113323,0.24179 -0.270908,0.44845 -0.449213,0.62956 -0.01194,0.0438 -0.01879,0.071 -0.03224,0.1212 v 42.77858 h 12.484647 v -44.68997 z" />
    </clipPath>
    <clipPath
       clipPathUnits="userSpaceOnUse"
       id="clipPath1269">
      <path
         id="path1271"
         style="fill:none;stroke:#000000;stroke-width:1.41875;stroke-linecap:round;stroke-linejoin:round;stroke-opacity:0.955017;paint-order:stroke markers fill"
         d="M 60.223626,9.3823553 V 217.41741 H 150.66124 V 9.3823553 Z M 109.94827,138.65573 h 7e-4 c 3.67312,0.17707 2.927,2.08824 3.01417,4.65853 0.0158,0.46685 0.0107,0.94698 0.12208,1.39378 0.0255,0.10247 0.0597,0.20083 0.0974,0.2971 0.0229,-0.33253 0.0459,-0.66512 0.0652,-0.99735 0.002,-0.10921 0.005,-0.21824 0.008,-0.32741 0.01,-0.35165 -0.23693,-0.98559 0.0446,-1.05374 0.28543,-0.0692 0.5738,-0.0956 0.86345,-0.0951 0.86896,8.6e-4 1.75205,0.24333 2.62394,0.29289 -0.004,0.14743 -0.009,0.29456 -0.0144,0.44187 0.0904,0.066 0.0154,0.28315 -0.0192,0.46375 -0.006,0.12479 -0.012,0.24977 -0.0185,0.37454 -0.011,0.86566 -0.0137,1.73174 -0.0124,2.59733 0.78601,0.0368 1.48541,0.43884 1.659,1.05206 0.0666,0.016 0.13294,0.0321 0.19957,0.048 0.0558,-0.17153 0.15238,-0.35679 0.26884,-0.53361 -0.1057,-0.76931 0.21698,-0.87105 0.65565,-0.70699 0.20289,-0.13783 0.37763,-0.16675 0.45126,-0.008 0.64977,0.0641 1.29235,-0.11558 1.94293,-0.12877 0.32563,0.14197 0.72205,0.13993 0.97661,0.42672 0.33483,0.37721 0.43347,0.74019 0.4499,1.12276 0.21517,0.0484 0.40157,0.1513 0.56991,0.28868 0.21763,-0.37299 0.51366,-0.56164 0.81064,-0.56306 0.27858,-0.19795 0.54042,-0.35234 0.91145,-0.44608 0.21671,-0.0547 0.43988,-0.14894 0.65908,-0.1456 0.0506,8.6e-4 0.10091,0.007 0.15088,0.0202 0.40489,0.1042 0.75444,0.4167 1.1316,0.62534 0.13102,0.26563 0.29114,0.5128 0.39297,0.79705 0.14967,0.41778 0.32628,1.85707 0.35594,2.31538 0.0269,0.41439 0.19447,0.88726 0.024,1.24648 -0.26415,0.55667 -0.80385,0.82949 -1.20567,1.24396 -0.28645,-0.0107 -0.5725,-0.0274 -0.85865,-0.0446 -0.33437,2.1212 -2.11309,2.02368 -2.26046,-0.005 -0.26315,-0.17944 -0.37458,-0.45822 -0.42109,-0.77769 -0.15555,-0.0757 -0.30783,-0.18407 -0.44235,-0.36696 -0.0613,0.10377 -0.13933,0.19286 -0.22701,0.27437 0.34222,0.45183 0.27064,0.94174 0.1015,1.97284 -0.0352,0.21481 -0.18887,0.372 -0.28324,0.55801 -0.016,0.0125 -0.0332,0.0274 -0.0507,0.0438 -0.0803,0.14391 -0.19103,0.30431 -0.26198,0.37958 -0.14057,0.14915 -0.30191,0.26874 -0.47185,0.36696 0.0445,0.0391 0.081,0.0865 0.12002,0.1313 h 2.61023 c 0.31037,0.18541 0.94247,0.13297 0.93065,0.55633 -0.008,0.2932 -0.0639,0.57992 -0.15156,0.8568 0.38021,0.10377 0.45494,0.48966 0.15294,1.73633 0.15072,0.84015 0.0538,1.04497 -0.29216,1.08573 -10e-4,0.005 -0.003,0.008 -0.004,0.0126 -0.0546,0.18911 -0.27622,0.0902 -0.47253,0.0345 -0.97018,0.36655 -3.18424,0.42412 -1.72964,1.04954 1.34348,0.57763 0.65729,0.24935 0.1166,0.33414 -1.0637,0.0315 -2.12403,-0.0199 -3.18632,-0.0968 -0.22069,-0.6845 0.51318,1.47313 -1.05479,0.0842 -1.66574,-1.47557 -1.2444,-2.0761 -0.14677,-2.96429 -0.0524,-0.20574 -0.0778,-0.4368 -0.0816,-0.66659 -0.31187,-0.59981 -0.13193,-1.37851 0.53906,-1.77167 -0.59593,-0.39683 -0.86764,-0.91652 -0.88128,-1.38873 -0.0766,-0.0276 -0.10663,-0.0375 -0.1982,-0.0707 -0.13382,2.1e-4 -0.26985,-0.0304 -0.40121,8.6e-4 -0.0248,0.006 0.0249,0.0649 0.011,0.0909 -0.0234,0.0441 -0.0667,0.071 -0.10699,0.0892 -0.17441,0.079 -0.34721,0.19027 -0.53289,0.20199 -0.23533,0.015 -0.43176,0.005 -0.61449,-0.0185 -0.67417,2.7366 -3.31687,2.27677 -3.32896,-1.40976 -1.4e-4,-0.038 6e-5,-0.0523 0,-0.0749 -0.45449,0.68695 -0.91035,0.91685 -1.26534,-0.24155 -0.22175,0.71259 -0.49728,1.40427 -0.72354,2.11507 -0.25203,0.0688 -0.50444,0.27875 -0.75577,0.2062 -0.42909,-0.12386 -0.83695,-0.34551 -1.22831,-0.60262 -0.11222,0.0354 -0.23054,0.0678 -0.36142,0.0968 -0.59064,0.13082 -1.13163,-0.54373 -1.61236,-0.98473 -0.24752,-0.22702 -0.3419,-0.63148 -0.50271,-0.95527 -0.0734,-0.14772 -0.12453,-0.25083 -0.18654,-0.37538 -0.10982,0.0165 -0.22008,0.0316 -0.33057,0.0446 -0.60259,0.24226 -1.2088,0.46368 -1.83456,0.57148 -0.14878,0.0256 -0.0748,-0.33476 -0.0974,-0.53782 -0.15862,0.48851 -0.35561,0.59316 -0.86687,0.8669 0.002,0.002 0.004,0.002 0.005,0.004 0.2014,0.21261 -0.47319,0.29636 -0.70983,0.44439 -0.2868,0.088 -0.79898,0.25225 -1.19058,0.29037 -0.019,0.0651 -0.10289,0.0415 -0.19066,0.0135 -0.10055,0.18622 -0.43358,-0.0238 -0.6385,-0.0429 -0.009,-8.7e-4 -0.0181,-0.003 -0.0274,-0.003 -0.872869,-0.0176 -1.745514,-0.0379 -2.618457,-0.0421 -0.541998,-0.003 -1.086935,-0.0411 -1.626078,0.0269 -0.09368,0.0119 -0.183807,0.0496 -0.275701,0.0749 -0.213647,0.0366 -0.425844,0.12391 -0.64124,0.10942 -0.306815,-0.0207 -0.571434,-0.1509 -0.829841,-0.30216 -0.209577,0.2128 -0.519265,0.13485 -1.373011,-0.0219 -0.149881,0.62816 -0.29403,1.08025 -0.439609,1.40977 0.169561,1.19887 0.499362,2.56149 -0.02742,3.68558 -0.113959,0.24315 -0.272418,0.4511 -0.451956,0.63293 -0.01879,0.0687 -0.02335,0.0927 -0.04595,0.17842 -0.0039,0.0199 -0.0064,0.0404 -0.0096,0.0606 0.01485,0.066 0.02827,0.13284 0.01166,0.19526 -0.120806,0.45437 -0.304459,0.87985 -0.456755,1.31971 -0.673064,0.45646 -1.071197,0.46241 -1.751582,0.29794 -0.727189,-0.17579 -1.133812,-0.65349 -1.299627,-1.17494 -0.432701,-0.005 -0.884798,-0.26498 -1.345578,-0.59505 -0.135832,0.0488 -0.272771,0.0759 -0.412177,0.0631 -0.247733,-0.0226 -0.398442,-0.44897 -0.495162,-0.82565 -0.948296,-1.10721 -0.38924,-2.37261 0.743428,-2.28509 -0.216406,-0.28983 -0.40171,-0.50201 -0.457441,-0.41661 -3.44e-4,-0.003 -1.62e-4,-0.006 -7.02e-4,-0.008 -0.06018,-0.33671 -0.20175,-0.64813 -0.220834,-0.9982 0.141633,-0.49881 0.159124,-1.08123 0.425208,-1.49645 0.108759,-0.16972 0.269513,-0.26431 0.443725,-0.33414 -7.03e-4,-0.0708 0.0013,-0.14266 0.0034,-0.21462 -0.481723,-0.13512 -0.957685,-0.30661 -1.42719,-0.51846 -0.442381,0.18437 -0.90058,0.1712 -1.429933,-0.1759 -0.733806,-0.48112 -0.981031,-1.51342 -1.41896,-2.2935 -0.07085,-0.15328 -0.518569,-1.12155 -0.525338,-1.1396 -0.06304,-0.16767 -0.08734,-0.35436 -0.139221,-0.52771 -0.179534,-0.59982 -0.445907,-1.15513 -0.720796,-1.69424 h -7.02e-4 c -0.731554,-1.43473 -0.276742,-2.45817 0.469786,-2.52495 -0.0035,-0.0789 0.0024,-0.15697 0.02332,-0.23398 0.173066,-0.63758 0.487415,-1.27277 0.937515,-1.65553 0.241334,-0.20526 0.583791,0.0751 0.875792,0.11278 0.20542,0.2161 0.424129,0.41465 0.616551,0.64807 0.05084,0.0617 0.07416,0.15057 0.106302,0.22893 0.03986,0.0972 0.0813,0.19353 0.122076,0.29037 0.429019,-0.10955 0.868814,-0.11113 1.309915,-0.0985 0.01371,-0.0161 0.02582,-0.0321 0.04046,-0.0488 0.947113,-1.07736 1.393597,-1.48601 1.670656,-1.49982 0.277058,-0.0138 0.384251,0.36805 0.6529,0.87026 0.761867,1.42428 0.339948,0.51827 0.996494,2.0873 0.148304,-0.3075 0.302964,-0.60978 0.499963,-0.877 0.06032,-0.0807 0.0918,-0.24367 0.181058,-0.24155 0.06819,0.002 0.0052,0.32149 0.03566,0.2466 0.143858,-0.35369 -0.0032,-1.11943 0.318905,-1.11856 1.741859,0.005 2.048593,0.37232 2.078718,0.91909 0.821146,0.0474 1.902006,1.32548 2.30161,1.76747 0.123987,0.13711 0.264826,0.25058 0.380632,0.39809 0.13213,0.16834 0.240007,0.36392 0.360055,0.5454 0.0018,0.008 0.0032,0.0145 0.0048,0.0219 0.06432,0.0356 0.127443,0.0739 0.188601,0.11783 0.03413,0.0101 0.06581,0.0177 0.100815,0.0286 0.04679,-0.0325 0.09904,-0.0544 0.158424,-0.069 0.367488,-0.32519 0.81629,-0.37167 1.279738,-0.3173 0.307409,-0.22487 0.634235,-0.29247 0.993753,-0.28701 0.106508,0.002 0.216017,0.01 0.328505,0.0219 0.09276,0.0101 0.200862,-0.0258 0.277758,0.0387 0.242985,0.20369 0.462742,0.44524 0.682391,0.68679 0.154917,0.021 0.309457,0.036 0.464307,0.0623 0.33127,-0.40773 0.73487,-0.6043 1.13503,-0.56307 0.002,-0.27184 0.004,-0.543 0.008,-0.81472 -0.0793,-1.71588 -0.43514,-1.82629 3.19661,-2.25562 0.14689,-0.0174 0.2941,0.56252 0.406,1.15306 0.007,-1.3e-4 0.0131,-8.6e-4 0.0199,-8.6e-4 0.75734,0.0193 1.39272,0.60001 2.0266,1.18757 0.47729,-0.14907 1.04571,-0.0352 1.59521,0.45786 0.10006,-2.14579 0.27161,-4.28836 0.4012,-6.43358 0.2615,-0.55179 0.26466,-1.68031 0.78389,-1.65637 z m -2.52656,13.99328 c -0.1359,0.0395 -0.27358,0.0723 -0.41149,0.101 0.016,0.10402 0.17226,0.0446 0.41149,-0.101 z m 13.95642,0.16413 c -0.0167,-0.003 -0.11478,0.0903 -0.33948,0.33834 0.0302,-0.0101 0.0602,-0.0207 0.0905,-0.0303 0.0184,-0.006 -0.0277,0.0318 -0.0425,0.0463 -0.01,0.01 -0.02,0.0192 -0.0302,0.0286 0.014,0.0139 0.0277,0.0277 0.0418,0.0421 0.16916,-0.22783 0.30286,-0.42007 0.27982,-0.42503 z m -33.785514,0.7255 c -0.0068,0.0103 -0.01344,0.0201 -0.02263,0.0337 0.0077,3.9e-4 0.01366,-2.1e-4 0.01989,0.002 7.37e-4,-0.0118 0.002,-0.0235 0.0027,-0.0353 z m 3.117048,3.02657 c -0.05714,0.0369 -0.101332,0.0759 -0.165281,0.11195 0.01678,0.0256 0.03396,0.0512 0.05007,0.0774 0.113597,0.18513 0.133096,0.43368 0.199574,0.65059 0.01591,0.15437 0.029,0.29422 0.03772,0.42251 0.194015,-0.002 0.367801,0.005 0.504075,0.0185 0.04522,-0.0118 0.07632,-0.0368 0.07407,-0.0917 -0.0063,-0.15258 -0.253266,0.0274 -0.37377,-0.0109 -0.07177,-0.0229 -0.150558,-0.0799 -0.176943,-0.16497 -0.07636,-0.24618 -0.07749,-0.51836 -0.115216,-0.77768 -0.01647,-0.1133 -0.02279,-0.15863 -0.03431,-0.23567 z" />
    </clipPath>
    <clipPath
       clipPathUnits="userSpaceOnUse"
       id="clipPath1279">
      <path
         id="path1281"
         style="fill:none;stroke:#000000;stroke-width:1.41875;stroke-linecap:round;stroke-linejoin:round;stroke-opacity:0.955017;paint-order:stroke markers fill"
         d="m 78.560376,146.8534 v 20.76774 H 131.11882 V 146.8534 h -8.23943 c 0.33302,0.37634 0.43146,0.73854 0.44784,1.12024 0.21532,0.0485 0.40355,0.14864 0.57197,0.28617 0.21745,-0.37076 0.5125,-0.55828 0.80858,-0.5597 0.27858,-0.19795 0.54042,-0.35234 0.91146,-0.44608 0.21671,-0.0547 0.43987,-0.14894 0.65907,-0.1456 0.0506,8.6e-4 0.10091,0.007 0.15088,0.0202 0.4049,0.1042 0.75445,0.4167 1.1316,0.62534 0.13102,0.26563 0.29114,0.5128 0.39298,0.79705 0.14967,0.41778 0.32628,1.85707 0.35594,2.31537 0.0269,0.4144 0.19446,0.88727 0.024,1.24649 -0.26415,0.55667 -0.80384,0.82948 -1.20566,1.24396 -0.28645,-0.0107 -0.57251,-0.0274 -0.85865,-0.0446 -0.33438,2.1212 -2.1131,2.02368 -2.26046,-0.005 -0.25832,-0.17613 -0.37032,-0.44791 -0.41835,-0.76001 -0.15703,-0.0754 -0.30938,-0.20095 -0.4451,-0.38548 -0.0615,0.10412 -0.13689,0.19689 -0.22495,0.27859 0.33971,0.45102 0.26831,0.94058 0.0994,1.96947 -0.0352,0.21481 -0.18888,0.372 -0.28325,0.55801 -0.016,0.0125 -0.0331,0.0274 -0.0507,0.0438 -0.0803,0.14391 -0.19103,0.30432 -0.26198,0.37959 -0.14058,0.14915 -0.3019,0.26876 -0.47184,0.36696 0.0458,0.0403 0.0875,0.085 0.12756,0.1313 h 2.60268 c 0.31036,0.18541 0.94248,0.13296 0.93066,0.55633 -0.008,0.29319 -0.0639,0.57992 -0.15157,0.8568 0.38021,0.10376 0.45494,0.48965 0.15294,1.73633 0.15071,0.84015 0.0538,1.04497 -0.29216,1.08573 -0.001,0.005 -0.003,0.009 -0.004,0.0134 -0.0546,0.18911 -0.27621,0.0894 -0.47252,0.0337 -0.97018,0.36655 -3.18424,0.42412 -1.72964,1.04954 1.34349,0.57763 0.65729,0.24934 0.11659,0.33413 -1.06369,0.0315 -2.12404,-0.0199 -3.18632,-0.0968 -0.22069,-0.6845 0.51317,1.47398 -1.05479,0.085 -1.66575,-1.47557 -1.2444,-2.07694 -0.14676,-2.96514 -0.0524,-0.20573 -0.0778,-0.4368 -0.0816,-0.66659 -0.31164,-0.59938 -0.13214,-1.37739 0.53769,-1.77083 -0.59593,-0.39682 -0.86629,-0.91734 -0.87991,-1.38956 -0.0766,-0.0276 -0.10663,-0.0375 -0.1982,-0.0707 -0.13381,2.1e-4 -0.26985,-0.0304 -0.40121,8.6e-4 -0.0248,0.006 0.0248,0.0657 0.011,0.0917 -0.0234,0.0441 -0.0667,0.0702 -0.10699,0.0884 -0.17441,0.079 -0.34721,0.19028 -0.53288,0.202 -0.23504,0.015 -0.43127,0.006 -0.61381,-0.0177 -0.67351,2.73846 -3.31824,2.27668 -3.33034,-1.4106 -1.2e-4,-0.0354 7e-5,-0.0472 0,-0.069 -0.45441,0.68674 -0.9104,0.91165 -1.26533,-0.2466 -0.22176,0.71259 -0.49728,1.40427 -0.72354,2.11507 -0.25205,0.0688 -0.50444,0.27875 -0.75577,0.2062 -0.43457,-0.12543 -0.85663,-0.33237 -1.25231,-0.5942 -0.10508,0.0323 -0.2163,0.0624 -0.33743,0.0892 -0.59064,0.13082 -1.13162,-0.54373 -1.61235,-0.98473 -0.24752,-0.22702 -0.3419,-0.63148 -0.50271,-0.95528 -0.0734,-0.14771 -0.12453,-0.25082 -0.18655,-0.37537 -0.10983,0.0165 -0.22007,0.0308 -0.33056,0.0438 -0.60259,0.24226 -1.20882,0.46368 -1.83457,0.57148 -0.14879,0.0256 -0.0748,-0.33475 -0.0974,-0.53781 -0.15861,0.48851 -0.3556,0.59315 -0.86688,0.8669 0.002,0.002 0.004,0.003 0.006,0.005 0.2014,0.21261 -0.47313,0.29638 -0.70982,0.44439 -0.28558,0.0876 -0.80092,0.258 -1.19195,0.29711 -0.0225,0.0576 -0.10499,0.0306 -0.18997,0.007 -0.10053,0.18622 -0.43291,-0.0238 -0.63781,-0.0429 -0.009,-8.6e-4 -0.0188,-0.003 -0.0281,-0.003 -0.872842,-0.0176 -1.745514,-0.0379 -2.618458,-0.0421 -0.541998,-0.003 -1.086934,-0.0411 -1.626077,0.0269 -0.09368,0.0119 -0.183808,0.0505 -0.275701,0.0757 -0.213647,0.0366 -0.425845,0.12386 -0.64124,0.10941 -0.308217,-0.0209 -0.575813,-0.14656 -0.83533,-0.29878 -0.211638,0.21006 -0.491795,0.1358 -1.368892,-0.0244 -0.149452,0.62604 -0.293799,1.08318 -0.438925,1.41228 0.169741,1.19787 0.498752,2.5586 -0.02742,3.68139 -0.113323,0.24178 -0.270907,0.44842 -0.449212,0.62955 -0.0165,0.0604 -0.02946,0.10885 -0.04869,0.1818 -0.0039,0.0199 -0.0064,0.0404 -0.0096,0.0606 0.01485,0.066 0.02827,0.13283 0.01166,0.19526 -0.120806,0.45436 -0.304459,0.87984 -0.456755,1.31971 -0.673064,0.45646 -1.071197,0.46239 -1.751582,0.29794 -0.72826,-0.17605 -1.147349,-0.65258 -1.312658,-1.17494 -0.428741,-0.01 -0.8764,-0.26829 -1.332548,-0.59505 -0.135832,0.0488 -0.272772,0.0758 -0.412178,0.0631 -0.247733,-0.0226 -0.398441,-0.44896 -0.495161,-0.82566 -0.949449,-1.10854 -0.387897,-2.37601 0.747543,-2.28508 -0.220789,-0.29702 -0.404994,-0.50414 -0.461556,-0.41746 0.0077,0.0643 -0.008,0.22354 -0.01372,0.16749 -0.0088,-0.0866 -0.0037,-0.14079 0.01372,-0.16749 -3.45e-4,-0.003 -1.62e-4,-0.006 -7.03e-4,-0.008 -0.06018,-0.33671 -0.20175,-0.64812 -0.220834,-0.9982 0.141633,-0.49883 0.159124,-1.08123 0.425208,-1.49645 0.109684,-0.17117 0.267001,-0.277 0.44304,-0.34676 -4.57e-4,-0.0657 0.0022,-0.13275 0.0041,-0.19947 -0.477677,-0.13403 -0.949176,-0.30645 -1.414845,-0.51594 -0.445714,0.18934 -0.907916,0.16983 -1.441592,-0.18011 -0.733806,-0.48113 -0.981031,-1.51343 -1.41896,-2.2935 -0.07085,-0.15328 -0.518568,-1.12155 -0.525338,-1.13959 -0.06304,-0.16768 -0.08734,-0.35438 -0.139221,-0.52772 -0.179534,-0.59983 -0.445907,-1.15513 -0.720796,-1.69424 h -7.02e-4 c -0.108571,-0.21293 -0.187662,-0.41549 -0.246895,-0.60852 z m 17.065241,0 c 0.09432,0.13703 0.179411,0.28401 0.271585,0.42336 0.0018,0.008 0.0032,0.0145 0.0048,0.0219 0.06394,0.0354 0.12642,0.0742 0.187227,0.11783 0.03434,0.0102 0.06628,0.0176 0.101504,0.0286 0.04679,-0.0325 0.09904,-0.0544 0.158424,-0.069 0.367488,-0.32522 0.81629,-0.37166 1.279738,-0.3173 0.129448,-0.0947 0.262505,-0.16015 0.399832,-0.20536 z m 3.627299,0 c 0.230344,0.1967 0.440613,0.42607 0.650155,0.65649 0.153889,0.0208 0.307729,0.0439 0.461559,0.0699 0.33269,-0.41468 0.74332,-0.60294 1.14669,-0.56138 3.5e-4,-0.055 7e-4,-0.10998 7e-4,-0.16497 z m 18.211924,0 c 0.46216,0.17477 0.82003,0.49118 0.93341,0.90478 0.0613,0.0148 0.12245,0.0292 0.1838,0.0438 0.0558,-0.17153 0.15237,-0.35679 0.26884,-0.53361 -0.0234,-0.17006 -0.025,-0.30575 -0.0103,-0.41494 z m -10.04313,5.79561 c -0.1359,0.0395 -0.27358,0.0723 -0.41149,0.101 0.016,0.10402 0.17226,0.0446 0.41149,-0.101 z m 13.95642,0.16413 c -0.0167,-0.003 -0.11478,0.0903 -0.33948,0.33834 0.0302,-0.0101 0.0602,-0.0207 0.0905,-0.0303 0.0184,-0.006 -0.0277,0.0318 -0.0425,0.0463 -0.01,0.01 -0.02,0.0192 -0.0302,0.0286 0.014,0.0139 0.0277,0.0277 0.0418,0.0421 0.16916,-0.22783 0.30286,-0.42007 0.27982,-0.42503 z m -33.785514,0.7255 c -0.0068,0.0103 -0.01344,0.0201 -0.02263,0.0337 0.0077,3.9e-4 0.01366,-2.1e-4 0.01989,0.002 7.37e-4,-0.0118 0.002,-0.0235 0.0027,-0.0353 z m 3.118421,3.03584 c -0.05376,0.0343 -0.106964,0.069 -0.166654,0.10268 0.01678,0.0256 0.03396,0.0512 0.05007,0.0774 0.113597,0.18513 0.133096,0.43368 0.199574,0.65059 0.01591,0.15437 0.029,0.29422 0.03772,0.42251 0.191842,-0.002 0.378293,8.6e-4 0.514363,0.0143 0.039,-0.0131 0.06585,-0.0372 0.06378,-0.0875 -0.0063,-0.15258 -0.253266,0.0275 -0.37377,-0.011 -0.07177,-0.0229 -0.150558,-0.0799 -0.176943,-0.16496 -0.07636,-0.24619 -0.07749,-0.51835 -0.115216,-0.77769 -0.01584,-0.10883 -0.02233,-0.1547 -0.0329,-0.2264 z" />
    </clipPath>
    <clipPath
       clipPathUnits="userSpaceOnUse"
       id="clipPath2288">
      <path
         id="path2290"
         style="fill:none;stroke:#000000;stroke-width:1.365;stroke-linecap:round;stroke-linejoin:round;stroke-miterlimit:4;stroke-dasharray:none;stroke-opacity:0.955017;paint-order:stroke markers fill"
         d="m 67.299769,142.73754 v 82.6704 h 18.03559 c -0.408734,-0.20647 -0.822984,-0.4058 -1.143082,-0.72553 -0.49443,-0.49387 -1.422821,-2.51396 -1.756482,-3.16932 -0.0332,-0.0652 -0.214259,-0.39543 -0.387572,-0.7307 -0.604168,1.62628 -0.60483,-0.60168 -0.660426,-2.33061 -0.263412,0.24528 -0.60419,0.3709 -0.970484,0.35708 -0.118155,0.38533 -0.236276,0.77063 -0.3545,1.15601 0.06266,0.0604 0.110234,0.10661 0.179835,0.17414 0.05909,0.0574 -0.121168,-0.1113 -0.181901,-0.16691 7.94e-4,-0.002 0.0013,-0.005 0.0021,-0.007 -0.257683,-0.24842 -0.470615,-0.45397 -0.610299,-0.61082 -0.361053,0.13866 -0.753192,0.16194 -1.198893,0.14883 -0.04175,0.0476 -0.10046,0.0686 -0.180351,0.0563 -1.057656,-0.16053 -1.975839,-0.27006 -2.556949,-0.5147 -0.741582,-0.0602 -0.762434,-0.24452 -0.648023,-0.90692 0.0057,-0.0484 0.01342,-0.0978 0.02635,-0.15038 1.96e-4,-8e-4 1.85e-4,-0.002 5.29e-4,-0.003 0.03603,-0.20227 0.07818,-0.43976 0.115755,-0.72657 -0.320011,-2.41701 -0.06408,-1.69908 -1.174088,-4.19251 -0.30221,-0.67886 -0.642141,-1.34035 -0.986504,-1.99884 -0.01151,-0.022 -0.02635,-0.0436 -0.04082,-0.0651 -0.323914,-0.14094 -0.647467,-0.28321 -0.97255,-0.42117 -0.610209,-0.3702 -1.520127,-0.90726 -2.031402,-1.59887 -0.825199,-0.6738 -0.816115,-1.76654 0.02687,-2.39365 -0.09459,-0.73474 0.19136,-1.21139 1.291913,-1.64434 -0.414401,-0.46062 -0.82603,-0.92309 -1.235586,-1.38493 -1.561584,-1.76097 -0.778534,-3.32762 0.605131,-3.30574 0.628941,0.01 1.382041,0.34794 2.095482,1.14515 1.324274,1.47978 2.651506,2.98212 4.092773,4.3589 0.452842,0.0775 0.977487,0.14906 1.742011,0.23565 0.403347,0.0457 0.866937,-0.14735 1.215946,0.0599 0.247653,0.14712 -0.566364,0.10553 -0.849558,0.15813 -0.550032,0.10217 -0.783596,0.22214 -0.804088,0.35554 0.496449,0.28414 0.956048,0.5682 1.269691,0.79013 1.224073,0.50322 2.766621,1.06539 1.874305,1.57768 0.298601,0.26767 0.59912,0.53312 0.910537,0.78497 0.437931,0.35416 0.893668,0.68548 1.340488,1.02836 0.210958,0.19047 0.796586,0.33946 0.632518,0.57154 -0.183673,0.25983 -0.380965,0.51889 -0.58911,0.7705 0.243176,0.19453 0.498528,0.37254 0.75706,0.54621 0.02893,-0.007 0.06139,-0.0118 0.09818,-0.0124 0.595564,-0.009 2.15764,0.80398 2.399337,0.91519 0.744011,0.47159 1.533713,0.8778 2.231906,1.4149 0.247465,0.19037 0.492069,0.38419 0.734838,0.58032 0.146669,0.0658 0.238297,0.10548 0.415996,0.18604 0.419082,0.18999 0.874448,0.32634 1.239716,0.60616 0.425532,0.32597 0.670121,0.58741 0.875916,0.86662 0.303078,0.0292 0.63413,0.0988 0.998906,0.22892 1.937602,0.69094 5.563663,1.35117 7.60987,2.98742 0.9364,-0.0347 1.91929,-0.0305 1.93632,-0.03 0.94632,0.0276 1.88932,0.12687 2.83393,0.19017 0.94897,0.14824 1.90113,0.27678 2.84686,0.44442 2.25159,0.39914 2.01581,0.48873 3.45767,0.61289 0.15174,-0.32126 0.32428,-0.65904 0.52348,-0.98703 0.006,-0.009 1.41145,-0.006 1.41645,-0.0139 0.66504,-0.0113 1.3307,-0.0168 1.99523,0.008 0.40086,-0.2199 0.85244,-0.3756 0.93276,-0.41289 0.13681,0.002 1.57164,-0.0757 1.75286,0.11989 l 0.007,0.007 c 0.41695,-0.44261 0.8484,-0.88772 1.32447,-1.2578 0.0965,-0.075 0.23416,-0.0874 0.32556,-0.16847 0.33117,-0.2939 0.43079,-0.76873 0.57878,-1.1529 0.40381,-0.4435 0.72497,-0.98035 1.21181,-1.33067 l 5.3e-4,-5.3e-4 c 0.11964,-0.38578 0.27491,-0.65588 0.4563,-0.8449 0.043,-0.42216 0.0833,-0.84491 0.10388,-1.26866 0.15563,-0.66809 0.24537,-1.5565 0.91312,-1.98644 1.26521,-0.81463 2.97506,-0.7354 4.43642,-0.72606 -0.009,-0.0886 0.008,-0.15748 0.0878,-0.17621 0.03,-0.007 0.0542,-0.0127 0.0837,-0.0196 0.0878,-0.14023 0.28101,-0.17603 0.63975,-0.14779 0.42984,-0.0982 0.79419,-0.17722 1.10174,-0.23513 -0.0822,-0.0958 -0.14786,-0.20357 -0.19172,-0.32763 -0.33453,-0.94641 0.5422,-1.42763 1.50792,-1.65674 -0.002,-0.31211 -0.007,-0.62416 -0.006,-0.93638 0.11078,-0.034 -0.0825,-2.06871 0.002,-2.07171 0.35524,-0.0107 0.70998,7.9e-4 1.06453,0.0238 0.0464,-0.11294 0.0898,-0.21833 0.15607,-0.38138 h -10e-4 c 0.85224,-2.09674 2.52302,-2.11844 3.16518,-0.98443 0.0467,-0.0407 0.0934,-0.0813 0.13539,-0.11783 0.30125,-0.56122 0.64846,-1.08775 0.91209,-1.44952 0.31237,-0.42866 0.49468,-1.2365 1.02474,-1.21749 1.03091,0.037 1.92242,0.70771 2.85719,1.18132 v -60.35647 z m 70.342471,59.43668 c 0.004,-0.008 -0.15283,0.19873 -0.21084,0.27337 0.004,0.004 0.009,0.008 0.0129,0.0119 0.0617,-0.0895 0.12336,-0.17902 0.18604,-0.26769 0.008,-0.011 0.0114,-0.0164 0.0119,-0.0176 z m 2.73782,2.12339 c -0.5228,0.85925 -1.20056,1.6244 -1.92753,2.33474 -0.008,0.0172 -0.016,0.0344 -0.0238,0.0517 0.63562,1.26421 -0.41581,1.91322 -0.632,2.81482 0.24416,0.0136 0.14586,0.18083 -0.0935,0.38757 0.0318,-0.0126 0.0301,-0.0116 -5.3e-4,0.001 -0.45247,0.39034 -1.40712,0.92072 -1.51154,0.82372 -0.12761,0.39387 -0.26816,0.43308 -0.67128,0.1602 -0.0582,0.5181 -0.47054,0.99679 -1.22369,1.25728 -0.0227,0.0109 -0.0491,0.0194 -0.077,0.0264 -0.18941,0.0598 -0.39185,0.11087 -0.6227,0.14056 0.11016,1.45435 -0.19724,2.74818 -1.11983,3.95066 -0.28541,0.37199 -0.60385,0.7164 -0.92656,1.0573 1.23833,1.24582 0.10443,1.10077 -0.60151,0.96015 -1.30236,1.29696 -2.10249,1.26615 -2.6262,0.51366 -0.42512,0.69032 -0.87804,1.26933 -1.74666,1.93425 -0.43957,0.33649 -0.99667,0.4819 -1.495,0.72295 -0.66724,-0.15714 -1.4489,-0.0663 -2.00195,-0.47128 -0.0455,-0.0334 -0.0879,-0.0684 -0.12919,-0.10387 -0.64566,0.75824 -1.49453,1.37267 -2.17299,2.10426 -0.2478,0.18333 -0.51823,0.33957 -0.74363,0.54984 -0.066,0.0616 0.17925,-0.0432 0.25425,-0.0935 0.0722,-0.0484 0.17567,-0.28068 0.17467,-0.19378 -0.0132,1.00646 -1.13525,1.50492 -1.9451,1.8004 -0.31749,0.11584 -0.66837,-0.10081 -1.00252,-0.15141 -0.77592,-0.27594 -1.32281,-0.48445 -1.69706,-0.76481 -0.63905,-0.021 -1.2783,-0.0376 -1.9203,-0.0274 0.34159,1.03442 0.27428,1.04681 -0.54673,1.04748 -0.0732,10e-6 -0.14642,0 -0.21963,0 -0.0511,0.17665 -0.31274,0.0836 -0.53433,0.0295 -0.16043,0.0857 -0.3231,0.16691 -0.48576,0.24805 h 28.26959 z m -9.43147,13.96607 c 0.0165,-0.0165 0.0324,-0.0312 0.0491,-0.0481 0.17956,-0.1817 0.27104,-0.41757 0.32608,-0.67283 -0.20982,0.22093 -0.41916,0.44238 -0.61961,0.67128 0.0681,0.0145 0.15784,0.0324 0.24443,0.0496 z m 0.37518,-0.72089 c 0.0756,-0.0796 0.15089,-0.15956 0.22634,-0.23926 -0.0506,-0.0509 -0.10554,-0.10451 -0.16433,-0.1602 -0.0142,0.13628 -0.0341,0.26988 -0.062,0.39946 z m 7.00732,-10.62467 c -0.007,0.0182 -0.0139,0.0365 -0.0207,0.0548 -0.0244,0.0678 -0.008,0.28833 -0.001,0.21653 0.009,-0.0902 0.0158,-0.18081 0.0217,-0.2713 z m -0.7829,3.03185 c -0.21008,0.0837 -0.6728,0.2649 -1.28416,0.50281 -0.0127,0.0502 -0.0255,0.0985 -0.0377,0.14212 0.13747,-0.14386 0.93551,-0.48554 1.32188,-0.64493 z m -6.08748,2.04226 c 0.006,0.20937 0.008,0.4503 0.017,0.72812 0.42278,0.1447 0.73869,0.21648 0.6196,-0.0775 -0.043,-0.10615 -0.10262,-0.19949 -0.17415,-0.28422 -0.0445,0.0265 -0.0864,0.0537 -0.12248,0.0827 -0.0382,0.0307 0.0602,-0.0494 0.11369,-0.093 -0.12169,-0.14084 -0.27895,-0.25525 -0.45371,-0.35605 z m 0.45372,0.35605 c 0.003,0.003 0.006,0.007 0.009,0.0103 0.0132,-0.008 0.0255,-0.0161 0.0393,-0.0238 h -0.031 c -0.006,0.005 -0.009,0.007 -0.0165,0.0134 z m -5.87923,1.942 c -0.0196,-0.008 -0.0624,0.15182 -0.091,0.20825 -0.004,0.0692 -0.008,0.1385 -0.0124,0.20774 0.0162,-0.0185 0.0322,-0.0371 0.0424,-0.0558 0.056,-0.1031 0.0907,-0.23007 0.0682,-0.3452 -0.002,-0.009 -0.004,-0.0138 -0.007,-0.015 z m -44.497541,0.67541 c 0.01267,0.22611 0.02394,0.45239 0.03772,0.67851 0.0042,0.01 0.0044,0.01 0.0088,0.0202 0.188489,0.43928 0.285919,0.84223 0.314708,1.20458 0.04735,0.0598 0.09983,0.12407 0.151929,0.1881 0.07044,-0.21 0.101156,-0.43766 0.04341,-0.6997 -0.04452,-0.39587 -0.08373,-0.74576 -0.106453,-1.07229 -0.151048,-0.105 -0.301717,-0.2108 -0.450101,-0.31936 z m -3.172417,3.60443 c -0.0028,6e-5 -0.0057,0.002 -0.0083,0.008 -0.0265,0.0566 -0.03173,0.13597 -0.03462,0.21653 0.02019,-0.0233 0.03972,-0.0462 0.0584,-0.0708 0.02585,-0.0341 0.0043,-0.15286 -0.0155,-0.15245 z m 38.699958,4.09794 c -0.0147,0.014 -0.028,0.0253 -0.0429,0.0398 -0.0287,0.0281 -0.007,0.15911 0.004,0.12041 0.0146,-0.0528 0.0274,-0.1063 0.0388,-0.1602 z m -9.85624,2.46187 c 0.0332,0.0929 0.0683,0.18481 0.10077,0.27801 h 0.016 c -0.0262,-0.0807 -0.0734,-0.20824 -0.0951,-0.27801 -0.007,-1e-5 -0.0145,0 -0.0217,0 z" />
    </clipPath>
    <clipPath
       clipPathUnits="userSpaceOnUse"
       id="clipPath6405">
      <path
         id="path6407"
         style="fill:none;stroke:#000000;stroke-width:0.964999;stroke-linecap:round;stroke-linejoin:round;stroke-miterlimit:4;stroke-dasharray:none;stroke-opacity:0.955017;paint-order:stroke markers fill"
         d="m 67.300284,142.73857 v 82.66937 h 26.9875 c -0.06641,-1.04646 -0.20748,-1.02645 1.019578,-1.0852 0.101891,0.008 0.165751,0.0126 0.251147,0.0191 -0.08311,0.26005 -0.20852,0.67259 -0.328662,1.06556 h 0.154511 c 0.07414,-0.26203 0.148553,-0.52666 0.218591,-0.84491 0.02056,-0.0934 0.02953,-0.14074 0.04496,-0.21393 -0.02866,-0.002 -0.059,-0.004 -0.0894,-0.007 0.02355,-0.0736 0.02723,-0.0697 0.04651,-0.12712 -0.0024,-2.4e-4 -0.0049,-8e-4 -0.0072,-0.001 -4.35002,-0.84747 1.758278,0.3582 -3.383256,-0.71675 -0.504302,-0.10544 -1.018093,-0.16695 -1.519286,-0.28629 -0.08069,-0.0192 -0.131537,-0.12861 -0.214458,-0.12661 -0.255344,0.005 -0.50121,0.0979 -0.751892,0.14676 -0.335751,-0.011 -0.671423,-0.0222 -1.007174,-0.0331 -0.36114,-0.11722 -0.652563,-0.19314 -0.913638,-0.28318 -0.05064,0.0969 -0.100203,0.19422 -0.147278,0.29248 -0.638622,-0.0752 -1.308388,-0.0143 -1.915646,-0.22582 -0.633529,-0.22066 -0.780013,-1.08367 -1.151867,-1.53789 -0.123788,-0.15121 -0.274648,-0.2795 -0.426847,-0.40205 -0.03466,-0.0279 -0.07051,-0.0539 -0.106455,-0.0801 -0.438322,0.22114 -0.885055,0.43256 -1.297596,0.68524 -0.737137,-0.95825 -1.390142,-1.98078 -2.156457,-2.91714 -1.252056,-1.52993 -2.904792,-2.93511 -3.624585,-4.82709 -0.06871,-0.1216 -0.115687,-0.25845 -0.206188,-0.36484 -0.51631,-0.60692 -1.439582,-0.38615 -2.028817,-0.96015 -1.005943,-0.97997 -0.866634,-1.3402 -0.999939,-2.53731 2.19e-4,-0.0126 2.38e-4,-0.0251 5.29e-4,-0.0377 -0.219006,-0.0594 -0.512596,-0.14445 -0.920875,-0.23977 -0.199294,0.0454 -0.401439,0.0765 -0.6072,0.0878 -0.03688,0.002 -0.07006,-0.004 -0.10025,-0.015 -1.236562,0.31477 -1.225386,0.46762 -1.225249,-0.40773 -0.107275,-0.0131 0,-0.21594 0,-0.32401 v -0.62167 -2.33732 c -0.0071,-0.15174 -0.0074,-0.30303 0,-0.45372 v -0.25011 c -0.0021,-9e-5 -0.0013,-0.1708 0,-0.38034 v -0.67955 h -0.173117 -1.923396 c -0.28321,0 -0.498708,0.005 -0.670243,0 h -5.29e-4 c -0.129836,2.6e-4 -0.386493,0.12951 -0.388091,0 -2.64e-4,-0.0236 -0.0013,-0.0429 -0.0016,-0.0661 -0.251923,-0.13548 -0.159642,-0.53275 -0.07441,-1.66295 -0.08522,-1.12991 -0.177554,-1.52754 0.07441,-1.66295 2.64e-4,-0.0233 0.0013,-0.0426 0.0016,-0.0661 5.29e-4,-0.0486 0.03702,-0.0606 0.0894,-0.0568 0.08731,0.006 0.218155,0.0568 0.299207,0.0568 0.0026,-6e-5 0.0052,9e-5 0.0078,0 0.170485,-0.004 0.383363,0 0.662493,0 h 1.923397 0.495062 c 0.329004,-0.67042 0.866116,-1.0113 1.407149,-1.0113 0.54102,0 1.0786,0.34088 1.407665,1.0113 h 0.672828 c 1.334259,-0.0804 1.438156,0.60933 2.054653,1.27951 0.05034,0.0547 0.145738,0.0479 0.199988,0.0987 0.09221,0.0864 0.163748,0.16536 0.226343,0.23977 1.075921,0.0288 1.105215,0.0128 1.816426,1.89653 0.184338,0.48822 -0.318603,1.28096 0.06046,0.62373 0.621604,1.30704 0.947028,3.11703 -1.503784,3.45819 -0.115006,0.016 -0.23437,0.009 -0.356568,-0.0176 0.0087,0.44904 0.0098,0.89925 0.0057,1.35186 0.06381,0.0289 0.119096,0.0534 0.202056,0.092 1.359282,0.63219 1.111433,0.5848 2.18643,1.69189 0.224075,0.54486 0.511487,1.04277 0.836123,1.5136 0.42087,-0.0565 0.842515,-0.10695 1.264523,-0.15503 0.199123,-0.10859 0.398605,-0.21621 0.598929,-0.32246 -0.494768,-0.27211 -0.589266,-0.60073 0.325046,-1.04645 0.267224,-0.13027 0.519221,-0.29897 0.802018,-0.39067 1.452843,-0.47102 3.403447,-0.10714 4.557345,0.89865 0.381072,0.33216 0.651555,0.77297 0.977202,1.15962 0.08443,0.36425 0.203374,0.7224 0.253214,1.09296 0.0047,0.0348 -0.06955,0.009 -0.104386,0.0134 0.05897,0.2369 0.117761,0.47365 0.176734,0.71055 0.611796,1.39364 1.865217,2.3993 2.153872,3.95066 0.02088,0.004 0.04177,0.007 0.06253,0.0119 0.984036,0.21984 1.691108,0.56458 2.623095,0.95188 0.557231,0.22774 1.032743,0.4752 1.617991,0.57723 0.402312,0.0702 0.827831,0.031 1.214911,0.16123 0.377931,0.1271 1.07315,0.19878 1.036629,0.59583 -0.09909,1.07726 -0.667657,2.11658 -1.362707,2.94555 -0.20614,0.24583 -0.622382,-0.0166 -0.956014,-0.0791 -0.009,0.0455 -0.01175,0.0648 -0.02376,0.12196 0,0 0,5.3e-4 0,5.3e-4 0.654753,0.0491 0.905708,0.0658 1.784387,0.25993 0.313158,0.0692 0.720198,0.0139 0.940509,0.23616 1.265835,-0.2067 3.652695,-0.57418 1.169956,-0.6258 0.520079,-0.29001 1.047839,-0.56665 1.560109,-0.87023 0.96913,-0.57434 2.15676,-1.65741 3.01739,-1.68362 0.92062,-0.0634 1.80218,-0.1194 2.68562,0.0176 0.0769,-0.10829 0.15556,-0.21543 0.23874,-0.31885 0.61254,-0.76149 1.09432,-1.03975 2.09342,-1.42368 0.19093,-0.0733 0.40857,-0.02 0.61288,-0.03 0.82599,-0.0201 1.64897,-0.0341 2.4722,-5.2e-4 0.29513,-0.2516 0.58584,-0.50939 0.91519,-0.71211 0.16687,-0.10266 0.38318,-0.0837 0.57051,-0.14107 0.42066,-0.12901 0.83437,-0.27992 1.25212,-0.41807 1.42281,-0.47054 2.84445,-0.94845 4.28759,-1.35392 0.0131,0.005 0.0279,0.003 0.0413,0.006 0.35523,-0.38811 0.74519,-0.75443 1.2206,-0.94309 0.0467,-0.0186 0.0948,-0.0333 0.14263,-0.0486 0.14521,-0.3637 0.42469,-0.87999 0.67851,-1.24127 0.10133,-0.28745 0.20136,-0.56792 0.33331,-0.97151 0.0103,-0.0313 0.0664,-1.5e-4 0.0997,-0.001 0.18641,-0.005 0.36574,-0.0117 0.54673,-0.0171 0.11752,-0.0623 0.23812,-0.0878 0.36122,-0.0346 0.0155,0.007 0.0297,0.0152 0.045,0.0222 0.44719,-0.0138 0.89066,-0.0268 1.36271,-0.0419 0.17979,-0.005 0.39833,-0.01 0.59531,-0.016 0.24335,-0.11535 0.45287,-0.21291 0.91002,-0.43305 2.18135,-0.73811 0.59354,-0.28835 1.95647,-0.54777 0.0771,-0.0147 0.15369,-0.0397 0.22996,-0.0661 0.16024,-0.8267 0.68643,-1.5581 1.3131,-2.22829 0.21388,-0.91945 0.14435,-0.98161 0.82786,-1.80299 0.20299,-0.24393 0.42046,-0.48143 0.67437,-0.67179 0.18089,-0.13562 0.17004,0.35755 0.19224,0.28525 0.0441,-0.14376 0.0105,-0.30035 0.0165,-0.45062 l 0.0124,-0.31212 c 0.018,-0.006 0.0517,10e-4 0.0537,-0.0176 0.0663,-0.78116 -0.19636,-1.64224 0.14676,-2.34714 0.18078,-0.37143 0.5358,-0.53709 0.93121,-0.61547 0.3175,-0.61261 1.1211,-1.10348 2.41174,-1.10122 0.45942,7.9e-4 0.89841,-0.0208 1.30897,-0.016 1.23162,0.0144 2.20564,0.26417 2.6975,2.04949 0.28702,1.04181 -0.70267,1.73173 -1.25883,2.31872 -0.42765,0.25631 -0.85321,0.33447 -1.279,0.33642 0.10678,0.30343 0.18594,0.64009 0.22635,1.01027 0.0913,0.83604 -0.53327,1.6351 -0.69505,2.37815 -0.005,0.0241 0.0489,-0.007 0.0734,-0.0103 -0.0753,0.19247 -0.14047,0.38976 -0.20981,0.58497 -5e-5,0.29627 8e-4,0.59256 5.3e-4,0.88884 -0.0123,1.04273 -0.77656,1.7599 -1.73942,2.24637 0.005,0.0645 0.007,0.12932 0.0119,0.19379 -1.63561,0.47111 -2.39351,0.87439 -2.83601,0.9741 -0.0503,0.33971 -0.0757,0.68644 -0.19688,1.00614 -0.48302,1.27403 -1.7554,2.35589 -2.9838,2.8577 -1.03392,0.4224 -1.75756,0.35588 -2.80396,0.37518 -0.0173,7.9e-4 -0.0189,0.001 -0.0357,0.002 0.0281,0.30408 0.0312,0.61024 -0.0186,0.91933 -0.0365,0.22637 0.0291,0.62017 -0.19689,0.65887 -0.40246,0.0689 -0.74873,0.13241 -1.05368,0.18914 -0.21323,0.52568 -0.39964,1.07404 -0.73587,1.5291 -0.41939,0.56762 -0.78962,0.93145 -1.17926,1.22783 h 18.93166 V 142.7396 Z m 9.199439,59.76948 v 5.3e-4 c 2.38e-4,-2e-5 0.0074,5.3e-4 0.0078,5.3e-4 -0.0011,-1.9e-4 -0.0088,-0.001 -0.0078,-0.001 z m 0.0078,0.001 c 0.0024,5.3e-4 0.0031,7.9e-4 0.0181,0.002 0.149096,0.0103 0.280279,0.016 0.404109,0.0207 -0.226152,-0.0149 -0.403119,-0.0234 -0.422195,-0.0227 z m 0.684712,0.0413 c 0.309156,0.3716 0.288894,0.56325 0.312127,0.29197 1.101016,-0.1356 0.351099,-0.23803 -0.312127,-0.29197 z m 58.780905,4.5868 c -0.0284,-5.3e-4 -0.0569,2.6e-4 -0.0853,5.3e-4 0.0233,0.0192 0.0457,0.0395 0.0692,0.0584 0.056,0.045 0.28141,-0.0431 0.20981,-0.0491 -0.0646,-0.006 -0.12899,-0.009 -0.19379,-0.01 z m -52.484647,5.97638 c 0.338897,0.93305 0.534183,1.91168 0.787548,2.87166 0.127498,0.29992 0.32529,0.7802 0.607714,1.48208 0.01455,-0.039 0.03924,-0.0642 0.0863,-0.0439 0.02008,0.009 0.03996,0.0181 0.05943,0.0279 -0.0013,-0.6287 0.0087,-1.25777 0.02739,-1.88671 -0.04887,-0.38159 -0.288356,-0.88266 -0.0553,-1.08727 -0.21008,-0.01 -0.443638,0.0248 -0.625285,0.0636 -0.08692,0.0185 -0.3371,0.11341 -0.254246,0.0811 0.165222,-0.0642 0.334156,-0.11815 0.501261,-0.17725 0.187632,-0.0663 0.334904,-0.12939 0.449067,-0.18966 0.01217,-0.229 0.04572,-0.41395 0.128675,-0.54467 -0.323366,-0.21039 -1.03255,-0.39583 -1.712556,-0.59686 z m 7.158218,5.84047 c -0.09894,-0.003 -0.166238,0.001 -0.101285,0.0119 0.163168,0.0262 0.329364,0.0356 0.494543,0.0481 -0.03014,-0.0103 -0.06247,-0.0204 -0.09974,-0.0305 -0.0635,-0.0172 -0.194582,-0.0268 -0.293523,-0.0294 z m 33.646529,1.95079 c -0.01,7.9e-4 -0.0196,0.001 -0.0289,0.002 0.056,0.11682 0.0983,0.20926 0.18241,0.37414 -0.0638,-0.15923 -0.10961,-0.27585 -0.15347,-0.3762 z m -6.95514,1.3317 c -0.084,-0.002 -0.21802,0.005 -0.43873,0.0331 -0.44516,0.0567 0.4369,-0.007 0.52452,0.0202 -0.0175,-0.0166 -0.0356,-0.0327 -0.0517,-0.0501 -0.0122,-8e-4 -0.0187,-0.003 -0.0341,-0.003 z m 0.0899,0.0579 c 2.7e-4,7.9e-4 0.003,0.002 0.002,0.003 -0.41956,0.52106 -0.73431,0.67855 -1.21957,0.9002 0.51679,-0.10873 1.03215,-0.22307 1.54358,-0.35501 0.25172,-0.0649 0.45116,-0.10862 0.64337,-0.14986 -0.44448,-0.0591 -0.75861,-0.20034 -0.96945,-0.39843 z m -4.00027,1.20147 c -0.0962,0.0956 -0.19331,0.19067 -0.28939,0.28629 0.3388,-0.0617 0.67715,-0.12591 1.01596,-0.18759 -0.2215,-0.0274 -0.46183,-0.0607 -0.72657,-0.0987 z m -7.28793,1.47071 c -0.0302,-0.007 -0.0335,0.0637 -0.0641,0.0677 -0.52595,0.077 -1.0906,0.0467 -1.62677,0.0775 0.2592,0.007 0.17779,0.10055 -0.12144,0.29713 h 2.55126 c 0.002,-0.002 0.004,-0.003 0.006,-0.005 0.0697,-0.0809 0.14185,-0.15964 0.21188,-0.24029 -0.23047,-0.0187 -0.46093,-0.0376 -0.69143,-0.0563 -0.0883,-0.0468 -0.1675,-0.11886 -0.26511,-0.14056 z" />
    </clipPath>
  </defs>
  <g
     inkscape:label="Layer 1"
     inkscape:groupmode="layer"
     id="layer1">
    <path
       style="fill:#000000;stroke:#000000;stroke-width:5.12832;stroke-linecap:round;stroke-linejoin:round;stroke-miterlimit:4;stroke-dasharray:none;stroke-opacity:0.955017;paint-order:stroke markers fill"
       d=""
       id="path1507"
       transform="scale(0.26458333)" />
    <path
       style="fill:#000000;stroke:#000000;stroke-width:5.12832;stroke-linecap:round;stroke-linejoin:round;stroke-miterlimit:4;stroke-dasharray:none;stroke-opacity:0.955017;paint-order:stroke markers fill"
       d=""
       id="path1622"
       transform="scale(0.26458333)" />
    <path
       style="fill:#000000;stroke:#000000;stroke-width:5.12832;stroke-linecap:round;stroke-linejoin:round;stroke-miterlimit:4;stroke-dasharray:none;stroke-opacity:0.955017;paint-order:stroke markers fill"
       d=""
       id="path1973"
       transform="scale(0.26458333)" />
    <path
       style="fill:#ffffff;stroke:#000000;stroke-width:3.3948;stroke-linecap:round;stroke-linejoin:round;stroke-opacity:0.955017;paint-order:stroke markers fill"
       d=""
       id="path1530"
       transform="scale(0.26458333)" />
    <path
       style="fill:#ffffff;stroke:#000000;stroke-width:1.36949;stroke-linecap:round;stroke-linejoin:round;stroke-opacity:0.955017;paint-order:stroke markers fill"
       d=""
       id="path1047"
       transform="scale(0.26458333)" />
    <path
       style="fill:#ffffff;stroke:#000000;stroke-width:1.36949;stroke-linecap:round;stroke-linejoin:round;stroke-opacity:0.955017;paint-order:stroke markers fill"
       d=""
       id="path1086"
       transform="scale(0.26458333)" />
    <g
       id="g1569" />
    <g
       id="g1793" />
    <path
       style="fill:#000000;stroke:#000000;stroke-width:3.36931;stroke-linecap:round;stroke-linejoin:round;stroke-opacity:0.955017;paint-order:stroke markers fill"
       d=""
       id="path1577"
       transform="scale(0.26458333)" />
    <path
       style="fill:#000000;stroke:#000000;stroke-width:2.08773;stroke-linecap:round;stroke-linejoin:round;stroke-opacity:0.955017;paint-order:stroke markers fill"
       d=""
       id="path2396"
       transform="scale(0.26458333)" />
    <path
       style="fill:#008080;stroke:#000000;stroke-width:22.6738;stroke-linecap:round;stroke-linejoin:round;stroke-opacity:0.955017;paint-order:stroke markers fill"
       d=""
       id="path1225"
       transform="scale(0.26458333)" />
    <path
       style="fill:#aa8800;stroke:#000000;stroke-width:3.45613;stroke-linecap:round;stroke-linejoin:round;stroke-opacity:0.955017;paint-order:stroke markers fill"
       d=""
       id="path2697"
       transform="scale(0.26458333)" />
    <path
       style="fill:#ffffff;stroke:#000000;stroke-width:4.96722;stroke-linecap:round;stroke-linejoin:round;stroke-opacity:0.955017;paint-order:stroke markers fill"
       d=""
       id="path1130"
       transform="scale(0.26458333)" />
    <path
       style="fill:#ffffff;stroke:#000000;stroke-width:4.96722;stroke-linecap:round;stroke-linejoin:round;stroke-opacity:0.955017;paint-order:stroke markers fill"
       d=""
       id="path1774"
       transform="scale(0.26458333)" />
    <path
       style="fill:#ffffff;stroke:#000000;stroke-width:4.96722;stroke-linecap:round;stroke-linejoin:round;stroke-opacity:0.955017;paint-order:stroke markers fill"
       d=""
       id="path1852"
       transform="scale(0.26458333)" />
    <path
       style="fill:#ffffff;stroke:#000000;stroke-width:4.96722;stroke-linecap:round;stroke-linejoin:round;stroke-opacity:0.955017;paint-order:stroke markers fill"
       d=""
       id="path3078"
       transform="scale(0.26458333)" />
    <path
       style="fill:#ffffff;stroke:#000000;stroke-width:4.96722;stroke-linecap:round;stroke-linejoin:round;stroke-opacity:0.955017;paint-order:stroke markers fill"
       d=""
       id="path3117"
       transform="scale(0.26458333)" />
    <path
       style="fill:none;stroke:#000000;stroke-width:0;stroke-linecap:butt;stroke-linejoin:miter;stroke-miterlimit:4;stroke-dasharray:none;stroke-opacity:1"
       d="m -50.489898,223.05468 31.815553,35.27376"
       id="path6659"
       inkscape:path-effect="#path-effect6663"
       inkscape:original-d="m -50.489898,223.05468 c 0,0 21.210634,23.5161 31.815553,35.27376" />
    <g
       id="g8130"
       transform="matrix(0.82672476,0,0,0.58950137,-46.957593,-78.8614)">
      <g
         id="g8111">
        <g
           id="g8079">
          <g
             id="g8064">
            <g
               id="g7946">
              <g
                 id="g7766">
                <g
                   id="g6510">
                  <path
                     style="color:#000000;fill:#000000;-inkscape-stroke:none"
                     d="m 104.45313,142.74023 c -1.33132,0.0182 -2.66315,0.1682 -3.9668,0.45508 -3.555697,0.78248 -6.879204,2.54967 -9.515627,5.06055 -2.564953,2.44281 -4.424135,5.58522 -5.404297,8.98828 -7.614617,4.40218 -13.54567,11.60822 -16.357422,19.94336 -2.16566,6.41987 -2.497558,13.43718 -0.949218,20.0332 1.54834,6.59603 4.967633,12.73384 9.763671,17.51953 4.796039,4.7857 10.939713,8.19247 17.539063,9.72657 6.59935,1.53409 13.61607,1.18537 20.03125,-0.99414 6.41518,-2.17952 12.19319,-6.17733 16.49219,-11.41407 4.299,-5.23674 7.0943,-11.68158 7.98242,-18.39843 0.88812,-6.71686 -0.13751,-13.6677 -2.92774,-19.8418 -2.75408,-6.09413 -7.2226,-11.38091 -12.74999,-15.14453 -1.07693,-5.1299 -4.20681,-9.77784 -8.58985,-12.65625 -3.34726,-2.19821 -7.3537,-3.33202 -11.34765,-3.27735 z m 0.0176,1.36719 c 3.72303,-0.0482 7.47166,1.00943 10.58008,3.05078 4.14456,2.7218 7.13772,7.18353 8.08399,12.05078 l 0.66796,-0.13086 -0.3789,0.56641 c 5.4129,3.62761 9.7892,8.79848 12.47265,14.73633 2.68346,5.93785 3.6725,12.63977 2.81836,19.09961 -0.85414,6.45983 -3.55104,12.67653 -7.68554,17.71289 -4.13451,5.03636 -9.70334,8.89216 -15.87305,10.98828 -6.16971,2.09612 -12.93638,2.43047 -19.283203,0.95508 -6.346828,-1.47539 -12.272246,-4.76071 -16.884766,-9.36328 -4.61252,-4.60257 -7.911297,-10.51966 -9.40039,-16.86328 -1.489094,-6.34363 -1.16873,-13.11094 0.914062,-19.28516 2.728057,-8.08704 8.526265,-15.11886 15.945313,-19.33789 l -0.337891,-0.5918 0.658203,0.17774 c 0.88837,-3.26856 2.691779,-6.291 5.144531,-8.62696 2.452753,-2.33595 5.561159,-3.99078 8.869141,-4.71875 1.21063,-0.26641 2.44844,-0.40386 3.68945,-0.41992 z"
                     id="path1968"
                     clip-path="url(#clipPath6405)" />
                  <path
                     style="color:#000000;fill:#000000;-inkscape-stroke:none"
                     d="m 137.96875,190.75781 -68.472656,2.07422 0.0293,0.96484 68.472656,-2.07617 z"
                     id="path2325" />
                </g>
                <path
                   id="path7628"
                   style="fill:none;stroke:#000000;stroke-width:0.440312;stroke-linecap:round;stroke-linejoin:round;stroke-opacity:0.955017;paint-order:stroke markers fill"
                   d="m 96.599512,172.76616 c 0.785653,0 1.418147,0.92816 1.418147,2.08106 v 0.85135 c 0,1.15291 -0.632494,2.08107 -1.418147,2.08107 -0.785654,0 -1.418147,-0.92816 -1.418147,-2.08107 v -0.85135 c 0,-1.1529 0.632493,-2.08106 1.418147,-2.08106 z m -0.161153,-3.02701 h 0.06446 c 2.160548,0 3.899911,2.55243 3.899911,5.72293 0,3.1705 -1.739363,5.72293 -3.899911,5.72293 h -0.06446 c -2.160547,0 -3.899905,-2.55243 -3.899905,-5.72293 0,-3.1705 1.739358,-5.72293 3.899905,-5.72293 z m 0.161153,14.39346 c 0.785653,0 1.418147,0.92816 1.418147,2.08106 v 0.85135 c 0,1.15291 -0.632494,2.08107 -1.418147,2.08107 -0.785654,0 -1.418147,-0.92816 -1.418147,-2.08107 v -0.85135 c 0,-1.1529 0.632493,-2.08106 1.418147,-2.08106 z m -0.161153,-3.02701 h 0.06446 c 2.160548,0 3.899911,2.55242 3.899911,5.72293 0,3.1705 -1.739363,5.72293 -3.899911,5.72293 h -0.06446 c -2.160547,0 -3.899905,-2.55243 -3.899905,-5.72293 0,-3.17051 1.739358,-5.72293 3.899905,-5.72293 z m -0.182778,-31.01263 c 0.785653,0 1.418147,0.92815 1.418147,2.08106 v 0.85135 c 0,1.15291 -0.632494,2.08107 -1.418147,2.08107 -0.785653,0 -1.418147,-0.92816 -1.418147,-2.08107 v -0.85135 c 0,-1.15291 0.632494,-2.08106 1.418147,-2.08106 z m -0.161153,-3.02701 h 0.06446 c 2.160548,0 3.899902,2.55242 3.899902,5.72293 0,3.1705 -1.739354,5.72293 -3.899902,5.72293 h -0.06446 c -2.160547,0 -3.899905,-2.55243 -3.899905,-5.72293 0,-3.17051 1.739358,-5.72293 3.899905,-5.72293 z m 0.161153,14.39346 c 0.785653,0 1.418147,0.92815 1.418147,2.08106 v 0.85134 c 0,1.15292 -0.632494,2.08108 -1.418147,2.08108 -0.785653,0 -1.418147,-0.92816 -1.418147,-2.08108 v -0.85134 c 0,-1.15291 0.632494,-2.08106 1.418147,-2.08106 z m -0.161153,-3.02701 h 0.06446 c 2.160548,0 3.899902,2.55242 3.899902,5.72293 0,3.1705 -1.739354,5.72292 -3.899902,5.72292 h -0.06446 c -2.160547,0 -3.899905,-2.55242 -3.899905,-5.72292 0,-3.17051 1.739358,-5.72293 3.899905,-5.72293 z" />
                <path
                   id="path7649"
                   style="fill:none;stroke:#000000;stroke-width:0.440312;stroke-linecap:round;stroke-linejoin:round;stroke-opacity:0.955017;paint-order:stroke markers fill"
                   d="m 107.18289,172.76616 c 0.78566,0 1.41816,0.92816 1.41816,2.08106 v 0.85135 c 0,1.15291 -0.6325,2.08107 -1.41816,2.08107 -0.78566,0 -1.41816,-0.92816 -1.41816,-2.08107 v -0.85135 c 0,-1.1529 0.6325,-2.08106 1.41816,-2.08106 z m -0.16115,-3.02701 h 0.0645 c 2.16056,0 3.89993,2.55243 3.89993,5.72293 0,3.1705 -1.73937,5.72293 -3.89993,5.72293 h -0.0645 c -2.16056,0 -3.89993,-2.55243 -3.89993,-5.72293 0,-3.1705 1.73937,-5.72293 3.89993,-5.72293 z m 0.16115,14.39346 c 0.78566,0 1.41816,0.92816 1.41816,2.08106 v 0.85135 c 0,1.15291 -0.6325,2.08107 -1.41816,2.08107 -0.78566,0 -1.41816,-0.92816 -1.41816,-2.08107 v -0.85135 c 0,-1.1529 0.6325,-2.08106 1.41816,-2.08106 z m -0.16115,-3.02701 h 0.0645 c 2.16056,0 3.89993,2.55242 3.89993,5.72293 0,3.1705 -1.73937,5.72293 -3.89993,5.72293 h -0.0645 c -2.16056,0 -3.89993,-2.55243 -3.89993,-5.72293 0,-3.17051 1.73937,-5.72293 3.89993,-5.72293 z m -0.18278,-31.01263 c 0.78566,0 1.41815,0.92815 1.41815,2.08106 v 0.85135 c 0,1.15291 -0.63249,2.08107 -1.41815,2.08107 -0.78566,0 -1.41816,-0.92816 -1.41816,-2.08107 v -0.85135 c 0,-1.15291 0.6325,-2.08106 1.41816,-2.08106 z m -0.16116,-3.02701 h 0.0645 c 2.16056,0 3.89993,2.55242 3.89993,5.72293 0,3.1705 -1.73937,5.72293 -3.89993,5.72293 h -0.0645 c -2.16056,0 -3.89992,-2.55243 -3.89992,-5.72293 0,-3.17051 1.73936,-5.72293 3.89992,-5.72293 z m 0.16116,14.39346 c 0.78566,0 1.41815,0.92815 1.41815,2.08106 v 0.85134 c 0,1.15292 -0.63249,2.08108 -1.41815,2.08108 -0.78566,0 -1.41816,-0.92816 -1.41816,-2.08108 v -0.85134 c 0,-1.15291 0.6325,-2.08106 1.41816,-2.08106 z m -0.16116,-3.02701 h 0.0645 c 2.16056,0 3.89993,2.55242 3.89993,5.72293 0,3.1705 -1.73937,5.72292 -3.89993,5.72292 h -0.0645 c -2.16056,0 -3.89992,-2.55242 -3.89992,-5.72292 0,-3.17051 1.73936,-5.72293 3.89992,-5.72293 z" />
                <path
                   id="path7651"
                   style="fill:none;stroke:#000000;stroke-width:0.381853;stroke-linecap:round;stroke-linejoin:round;stroke-opacity:0.955017;paint-order:stroke markers fill"
                   d="m 117.38394,173.4442 c 0.6283,0 1.13411,0.8729 1.13411,1.95716 v 0.80066 c 0,1.08427 -0.50581,1.95717 -1.13411,1.95717 -0.6283,0 -1.13411,-0.8729 -1.13411,-1.95717 v -0.80066 c 0,-1.08426 0.50581,-1.95716 1.13411,-1.95716 z m -0.12887,-2.84678 h 0.0516 c 1.72781,0 3.1188,2.40046 3.1188,5.38219 0,2.98174 -1.39099,5.3822 -3.1188,5.3822 h -0.0516 c -1.72782,0 -3.11881,-2.40046 -3.11881,-5.3822 0,-2.98173 1.39099,-5.38219 3.11881,-5.38219 z m 0.12887,13.53649 c 0.6283,0 1.13411,0.8729 1.13411,1.95716 v 0.80066 c 0,1.08427 -0.50581,1.95717 -1.13411,1.95717 -0.6283,0 -1.13411,-0.8729 -1.13411,-1.95717 v -0.80066 c 0,-1.08426 0.50581,-1.95716 1.13411,-1.95716 z m -0.12887,-2.84678 h 0.0516 c 1.72781,0 3.1188,2.40045 3.1188,5.38219 0,2.98174 -1.39099,5.3822 -3.1188,5.3822 h -0.0516 c -1.72782,0 -3.11881,-2.40046 -3.11881,-5.3822 0,-2.98174 1.39099,-5.38219 3.11881,-5.38219 z m -0.14617,-29.16619 c 0.6283,0 1.1341,0.87289 1.1341,1.95715 v 0.80067 c 0,1.08426 -0.5058,1.95716 -1.1341,1.95716 -0.6283,0 -1.13412,-0.8729 -1.13412,-1.95716 v -0.80067 c 0,-1.08426 0.50582,-1.95715 1.13412,-1.95715 z m -0.12888,-2.84679 h 0.0516 c 1.72781,0 3.1188,2.40045 3.1188,5.3822 0,2.98173 -1.39099,5.38219 -3.1188,5.38219 h -0.0516 c -1.72782,0 -3.1188,-2.40046 -3.1188,-5.38219 0,-2.98175 1.39098,-5.3822 3.1188,-5.3822 z m 0.12888,13.5365 c 0.6283,0 1.1341,0.87289 1.1341,1.95716 v 0.80065 c 0,1.08427 -0.5058,1.95717 -1.1341,1.95717 -0.6283,0 -1.13412,-0.8729 -1.13412,-1.95717 v -0.80065 c 0,-1.08427 0.50582,-1.95716 1.13412,-1.95716 z m -0.12888,-2.84679 h 0.0516 c 1.72781,0 3.1188,2.40045 3.1188,5.3822 0,2.98173 -1.39099,5.38218 -3.1188,5.38218 h -0.0516 c -1.72782,0 -3.1188,-2.40045 -3.1188,-5.38218 0,-2.98175 1.39098,-5.3822 3.1188,-5.3822 z" />
                <path
                   id="path7653"
                   style="fill:none;stroke:#000000;stroke-width:0.326279;stroke-linecap:round;stroke-linejoin:round;stroke-opacity:0.955017;paint-order:stroke markers fill"
                   d="m 126.41798,179.6129 c -0.68623,0 -1.23866,0.58351 -1.23866,1.30832 v 0.53522 c 0,0.72481 0.55243,1.30833 1.23866,1.30833 0.68621,0 1.23866,-0.58352 1.23866,-1.30833 v -0.53522 c 0,-0.72481 -0.55245,-1.30832 -1.23866,-1.30832 z m 0.14077,-1.90302 h -0.0563 c -1.8871,0 -3.40632,1.60466 -3.40632,3.59788 0,1.99324 1.51922,3.5979 3.40632,3.5979 h 0.0563 c 1.88711,0 3.40633,-1.60466 3.40633,-3.5979 0,-1.99322 -1.51922,-3.59788 -3.40633,-3.59788 z m -0.14077,9.04888 c -0.68623,0 -1.23866,0.58351 -1.23866,1.30831 v 0.53524 c 0,0.72481 0.55243,1.30832 1.23866,1.30832 0.68621,0 1.23866,-0.58351 1.23866,-1.30832 v -0.53524 c 0,-0.7248 -0.55245,-1.30831 -1.23866,-1.30831 z m 0.14077,-1.90302 h -0.0563 c -1.8871,0 -3.40632,1.60465 -3.40632,3.59789 0,1.99323 1.51922,3.59789 3.40632,3.59789 h 0.0563 c 1.88711,0 3.40633,-1.60466 3.40633,-3.59789 0,-1.99324 -1.51922,-3.59789 -3.40633,-3.59789 z m 0.15967,-19.49702 c -0.68623,0 -1.23866,0.5835 -1.23866,1.30831 v 0.53523 c 0,0.72481 0.55243,1.30833 1.23866,1.30833 0.68621,0 1.23868,-0.58352 1.23868,-1.30833 v -0.53523 c 0,-0.72481 -0.55247,-1.30831 -1.23868,-1.30831 z m 0.14077,-1.90303 h -0.0563 c -1.88708,0 -3.40632,1.60466 -3.40632,3.5979 0,1.99322 1.51924,3.59788 3.40632,3.59788 h 0.0563 c 1.88711,0 3.40633,-1.60466 3.40633,-3.59788 0,-1.99324 -1.51922,-3.5979 -3.40633,-3.5979 z m -0.14077,9.04889 c -0.68623,0 -1.23866,0.5835 -1.23866,1.30832 v 0.53522 c 0,0.72481 0.55243,1.30833 1.23866,1.30833 0.68621,0 1.23868,-0.58352 1.23868,-1.30833 v -0.53522 c 0,-0.72482 -0.55247,-1.30832 -1.23868,-1.30832 z m 0.14077,-1.90303 h -0.0563 c -1.88708,0 -3.40632,1.60466 -3.40632,3.5979 0,1.99323 1.51924,3.59788 3.40632,3.59788 h 0.0563 c 1.88711,0 3.40633,-1.60465 3.40633,-3.59788 0,-1.99324 -1.51922,-3.5979 -3.40633,-3.5979 z" />
                <path
                   id="path7655"
                   style="fill:none;stroke:#000000;stroke-width:0.399231;stroke-linecap:round;stroke-linejoin:round;stroke-opacity:0.955017;paint-order:stroke markers fill"
                   d="m 82.972815,179.87359 c 0.952544,0 1.719392,0.62936 1.719392,1.41111 v 0.57727 c 0,0.78176 -0.766848,1.41112 -1.719392,1.41112 -0.952543,0 -1.719391,-0.62936 -1.719391,-1.41112 v -0.57727 c 0,-0.78175 0.766848,-1.41111 1.719391,-1.41111 z m -0.195384,-2.05252 h 0.07815 c 2.619495,0 4.728335,1.73073 4.728335,3.88055 0,2.14982 -2.10884,3.88055 -4.728335,3.88055 h -0.07815 c -2.619493,0 -4.728328,-1.73073 -4.728328,-3.88055 0,-2.14982 2.108835,-3.88055 4.728328,-3.88055 z m 0.195384,9.75978 c 0.952544,0 1.719392,0.62935 1.719392,1.41111 v 0.57727 c 0,0.78175 -0.766848,1.41111 -1.719392,1.41111 -0.952543,0 -1.719391,-0.62936 -1.719391,-1.41111 v -0.57727 c 0,-0.78176 0.766848,-1.41111 1.719391,-1.41111 z m -0.195384,-2.05253 h 0.07815 c 2.619495,0 4.728335,1.73072 4.728335,3.88055 0,2.14983 -2.10884,3.88055 -4.728335,3.88055 h -0.07815 c -2.619493,0 -4.728328,-1.73072 -4.728328,-3.88055 0,-2.14983 2.108835,-3.88055 4.728328,-3.88055 z m -0.221604,-21.02874 c 0.952542,0 1.719391,0.62935 1.719391,1.4111 v 0.57728 c 0,0.78175 -0.766849,1.41111 -1.719391,1.41111 -0.952543,0 -1.719392,-0.62936 -1.719392,-1.41111 v -0.57728 c 0,-0.78175 0.766849,-1.4111 1.719392,-1.4111 z m -0.195386,-2.05253 h 0.07816 c 2.619494,0 4.728324,1.73072 4.728324,3.88055 0,2.14982 -2.10883,3.88055 -4.728324,3.88055 h -0.07816 c -2.619493,0 -4.728327,-1.73073 -4.728327,-3.88055 0,-2.14983 2.108834,-3.88055 4.728327,-3.88055 z m 0.195386,9.75977 c 0.952542,0 1.719391,0.62936 1.719391,1.41111 v 0.57727 c 0,0.78176 -0.766849,1.41112 -1.719391,1.41112 -0.952543,0 -1.719392,-0.62936 -1.719392,-1.41112 v -0.57727 c 0,-0.78175 0.766849,-1.41111 1.719392,-1.41111 z m -0.195386,-2.05252 h 0.07816 c 2.619494,0 4.728324,1.73072 4.728324,3.88055 0,2.14983 -2.10883,3.88055 -4.728324,3.88055 h -0.07816 c -2.619493,0 -4.728327,-1.73072 -4.728327,-3.88055 0,-2.14983 2.108834,-3.88055 4.728327,-3.88055 z" />
              </g>
              <rect
                 style="fill:none;stroke:#000000;stroke-width:1.2;stroke-linecap:round;stroke-linejoin:round;stroke-miterlimit:4;stroke-dasharray:none;stroke-opacity:0.955017;paint-order:stroke markers fill"
                 id="rect7834"
                 width="55.320904"
                 height="38.695007"
                 x="74.496017"
                 y="224.34387"
                 ry="4.6819344" />
            </g>
            <rect
               style="fill:none;stroke:#000000;stroke-width:1.2;stroke-linecap:round;stroke-linejoin:round;stroke-miterlimit:4;stroke-dasharray:none;stroke-opacity:0.955017;paint-order:stroke markers fill"
               id="rect7970"
               width="14.471399"
               height="28.729967"
               x="97.894737"
               y="263.25171"
               ry="4.6819344" />
          </g>
        </g>
      </g>
      <rect
         style="display:inline;fill:none;stroke:#000000;stroke-width:1.365;stroke-linecap:round;stroke-linejoin:round;stroke-miterlimit:4;stroke-dasharray:none;stroke-opacity:0.955017;paint-order:stroke markers fill"
         id="rect2093"
         width="73.314102"
         height="25.936592"
         x="64.668564"
         y="198.50139"
         ry="10.028815" />
    </g>
  </g>
  <g
     inkscape:groupmode="layer"
     id="layer2"
     inkscape:label="Layer 2"
     style="display:inline" />
</svg>
