<?xml version="1.0" encoding="UTF-8" standalone="no"?>
<svg
   width="210mm"
   height="297mm"
   viewBox="0 0 210 297"
   version="1.1"
   id="svg8"
   inkscape:version="1.1.2 (0a00cf5339, 2022-02-04, custom)"
   sodipodi:docname="melodica track icon.svg"
   inkscape:export-filename="C:\Users\steven\Desktop\formating icons\table icon.png"
   inkscape:export-xdpi="96"
   inkscape:export-ydpi="96"
   xmlns:inkscape="http://www.inkscape.org/namespaces/inkscape"
   xmlns:sodipodi="http://sodipodi.sourceforge.net/DTD/sodipodi-0.dtd"
   xmlns="http://www.w3.org/2000/svg"
   xmlns:svg="http://www.w3.org/2000/svg"
   xmlns:rdf="http://www.w3.org/1999/02/22-rdf-syntax-ns#"
   xmlns:cc="http://creativecommons.org/ns#"
   xmlns:dc="http://purl.org/dc/elements/1.1/">
  <defs
     id="defs2">
    <inkscape:path-effect
       effect="spiro"
       id="path-effect7641"
       is_visible="true"
       lpeversion="1" />
    <inkscape:path-effect
       effect="spiro"
       id="path-effect7108"
       is_visible="true"
       lpeversion="1" />
    <inkscape:path-effect
       effect="spiro"
       id="path-effect6718"
       is_visible="true"
       lpeversion="1" />
    <inkscape:path-effect
       effect="spiro"
       id="path-effect6521"
       is_visible="true"
       lpeversion="1" />
    <inkscape:path-effect
       effect="spiro"
       id="path-effect6435"
       is_visible="true"
       lpeversion="1" />
    <inkscape:path-effect
       effect="spiro"
       id="path-effect6429"
       is_visible="true"
       lpeversion="1" />
    <inkscape:path-effect
       effect="spiro"
       id="path-effect1953"
       is_visible="true"
       lpeversion="1" />
    <inkscape:path-effect
       effect="spiro"
       id="path-effect1947"
       is_visible="true"
       lpeversion="1" />
    <inkscape:path-effect
       effect="spiro"
       id="path-effect1861"
       is_visible="true"
       lpeversion="1" />
    <inkscape:path-effect
       effect="spiro"
       id="path-effect1855"
       is_visible="true"
       lpeversion="1" />
  </defs>
  <sodipodi:namedview
     id="base"
     pagecolor="#ffffff"
     bordercolor="#666666"
     borderopacity="1.0"
     inkscape:pageopacity="0.0"
     inkscape:pageshadow="2"
     inkscape:zoom="1.0074671"
     inkscape:cx="756.84854"
     inkscape:cy="907.72195"
     inkscape:document-units="mm"
     inkscape:current-layer="layer1"
     inkscape:document-rotation="0"
     showgrid="false"
     inkscape:window-width="1680"
     inkscape:window-height="956"
     inkscape:window-x="-11"
     inkscape:window-y="-11"
     inkscape:window-maximized="1"
     inkscape:pagecheckerboard="0" />
  <metadata
     id="metadata5">
    <rdf:RDF>
      <cc:Work
         rdf:about="">
        <dc:format>image/svg+xml</dc:format>
        <dc:type
           rdf:resource="http://purl.org/dc/dcmitype/StillImage" />
      </cc:Work>
    </rdf:RDF>
  </metadata>
  <g
     inkscape:label="Layer 1"
     inkscape:groupmode="layer"
     id="layer1">
    <path
       style="fill:#000000;stroke-width:0.264583"
       d="m 177.19213,128.20112 c -2.81324,-0.68563 -5.31445,-2.77102 -6.64653,-5.54156 l -0.82687,-1.7198 V 86.014769 51.089764 l 0.60953,-1.508557 c 1.36794,-3.385558 4.43812,-5.587965 8.50534,-6.101344 2.11485,-0.266944 2.33289,-0.345229 2.11183,-0.758264 -0.13557,-0.253323 -0.2465,-1.940463 -0.2465,-3.749194 0,-3.200429 0.0187,-3.30731 0.69754,-3.986147 0.38365,-0.383645 0.84724,-0.697536 1.03021,-0.697536 0.77787,0 -0.80779,-4.381157 -2.55781,-7.067195 -2.04926,-3.145324 -5.52509,-5.717995 -9.62098,-7.121063 -1.82939,-0.626668 -2.64054,-0.740243 -5.97666,-0.836833 -4.82897,-0.139811 -7.20926,0.370546 -11.48584,2.462675 -3.57312,1.747995 -5.68889,3.331284 -8.7991,6.584625 -5.51211,5.765769 -9.01716,12.896833 -11.70412,23.812176 -3.63819,14.779592 -4.6074,31.066762 -2.7647,46.459362 0.47363,3.956361 0.54843,4.233341 1.14315,4.233341 0.63972,0 1.57782,0.93219 1.79038,1.77909 0.20925,0.83373 -0.0844,17.3019 -0.33047,18.53219 l -0.16901,0.84506 -2.41536,-0.16554 c -1.32844,-0.091 -2.65676,-0.25431 -2.95181,-0.36279 -0.42343,-0.15569 -0.88548,-1.29091 -2.19285,-5.38769 l -1.65638,-5.19044 0.0258,-4.42963 c 0.0221,-3.80185 -0.0497,-4.6462 -0.50721,-5.95775 -1.34223,-3.848151 -3.04021,-13.298111 -3.45736,-19.241671 -1.45834,-20.778589 3.88683,-42.067219 14.55092,-57.953055 8.5706,-12.767245 19.53356,-19.3112656 31.32367,-18.6977476 12.82253,0.667242 23.32562,9.9053156 25.1697,22.1382126 0.43094,2.858616 0.49808,5.462509 0.14646,5.679819 -0.13026,0.08051 -0.004,0.593548 0.28163,1.140095 0.44271,0.848508 0.50623,1.422842 0.43466,3.930362 -0.0568,1.990709 -0.20058,3.077342 -0.44632,3.373437 -0.33047,0.398201 -0.21354,0.43697 1.32354,0.438791 2.24674,0.0027 4.8658,0.445992 6.24871,1.057722 1.73137,0.765866 3.85323,2.934152 4.73104,4.83457 l 0.76046,1.646335 0.071,34.509959 c 0.0784,38.092331 0.16427,35.980101 -1.57477,38.712691 -0.9662,1.51822 -2.29794,2.61065 -4.36045,3.5769 l -1.54408,0.72337 -8.86355,0.0476 c -4.87494,0.0261 -9.31051,-0.0614 -9.8568,-0.19453 z m 20.48426,-1.24465 c 2.03795,-1.00378 3.43764,-2.43887 4.41803,-4.52974 l 0.69722,-1.48697 V 85.882469 50.82518 l -0.7006,-1.494356 c -0.92543,-1.973884 -2.52538,-3.528637 -4.68334,-4.551042 l -1.75981,-0.833769 -8.20208,-0.04008 c -4.6306,-0.02262 -8.83573,0.07725 -9.65729,0.229372 -2.10564,0.389893 -3.69987,1.294398 -5.22753,2.9659 -2.5104,2.746785 -2.3131,-0.583829 -2.3131,39.045854 v 34.792701 l 0.58974,1.27781 c 1.19904,2.59799 3.07939,4.32689 5.7073,5.24762 1.24279,0.43544 2.24669,0.47586 10.37816,0.41791 l 9.00228,-0.0642 z m -24.38313,-7.67035 c 0.002,-1.27331 0.11539,-6.83948 0.25318,-12.36927 0.1378,-5.52979 0.32064,-12.971201 0.40631,-16.536461 0.70046,-29.148659 0.921,-38.695691 0.92291,-39.952084 l 0.002,-1.455208 11.80051,0.07661 c 8.22084,0.05337 11.90573,-0.01072 12.1474,-0.211283 0.19079,-0.158345 0.39779,-0.19282 0.46,-0.07661 0.0622,0.116208 -0.0336,6.402536 -0.21285,13.96962 -0.17928,7.567085 -0.40639,18.099005 -0.50468,23.404275 -0.0983,5.30526 -0.21532,9.71058 -0.26006,9.78958 -0.0447,0.079 -0.15734,4.668021 -0.25023,10.197811 -0.0929,5.52979 -0.24292,11.27456 -0.3334,12.76614 l -0.16441,2.71198 H 185.42533 173.2906 l 0.003,-2.3151 z m 23.90298,0.39687 c 0.0918,-0.76398 0.16788,-1.77601 0.16915,-2.24895 l 0.002,-0.8599 h -5.77808 c -3.17794,0 -8.47622,0.0785 -11.77396,0.1745 l -5.99588,0.17449 v 2.07447 2.07446 h 11.60481 11.60481 z m -3.46658,-3.63755 3.63803,-4.7e-4 v -1.19062 -1.19063 h -8.60926 -8.60926 l 0.0764,-2.3151 0.0764,-2.31511 8.50046,-0.0698 8.50047,-0.0698 0.16464,-0.8232 c 0.0906,-0.45276 0.16464,-1.22504 0.16464,-1.71617 v -0.89297 h -8.59896 -8.59896 v -2.38125 -2.38125 h 8.59896 8.59896 v -1.962731 c 0,-1.07951 0.0723,-2.15107 0.1606,-2.38125 0.14442,-0.37636 -0.70843,-0.41852 -8.46667,-0.41852 h -8.62727 v -2.38125 -2.38125 h 8.59896 8.59896 v -1.71979 -1.71979 h -8.60926 -8.60926 l 0.0764,-2.31511 0.0765,-2.3151 8.6651,-0.0698 8.66511,-0.0698 v -1.84479 -1.84485 l -8.66511,-0.0698 -8.6651,-0.0698 -0.0763,-2.3075 c -0.0732,-2.21377 -0.0517,-2.31359 0.52917,-2.45721 0.33302,-0.0823 4.26064,-0.11552 8.72803,-0.0737 9.34996,0.0874 8.40407,0.41325 8.41032,-2.89699 l 0.004,-1.91461 -8.66511,-0.0698 -8.6651,-0.0698 -0.0765,-2.31511 -0.0764,-2.3151 h 8.74155 8.74155 l 0.004,-0.99219 c 0.002,-0.545703 0.075,-1.258456 0.1622,-1.583896 l 0.1586,-0.591709 -8.82731,-0.06975 -8.8273,-0.06975 -0.0765,-2.315104 -0.0764,-2.315104 h 8.87384 8.87384 v -0.937282 -0.937475 l -11.44323,0.16537 c -6.29377,0.09095 -11.59206,0.211421 -11.77396,0.267708 -0.24406,0.07553 -0.33073,1.078048 -0.33073,3.826005 v 3.723664 l 5.82084,-0.184346 c 3.83523,-0.121459 5.82083,-0.09389 5.82083,0.08082 0,0.164332 -2.17132,0.322225 -5.71013,0.415231 -3.14058,0.08254 -5.75647,0.196403 -5.81309,0.253032 -0.0566,0.05663 -0.18488,2.101566 -0.285,4.544296 l -0.18204,4.44134 5.99513,-0.19322 c 3.8731,-0.12482 5.99513,-0.10136 5.99513,0.0663 0,0.15665 -2.3227,0.32701 -5.86089,0.42988 -3.22349,0.0937 -5.88651,0.20199 -5.91781,0.24059 -0.0313,0.0386 -0.13929,2.01271 -0.23997,4.38691 l -0.18305,4.31672 6.10086,-0.18903 c 4.52879,-0.14032 6.10086,-0.11068 6.10086,0.11505 0,0.28191 -3.17823,0.4141 -10.38535,0.43195 l -1.7864,0.004 5.3e-4,3.92043 c 5.3e-4,3.60837 0.0373,3.90975 0.46348,3.78622 0.75144,-0.21783 16.41663,-0.30791 16.62891,-0.0956 0.1068,0.1068 -0.45074,0.21011 -1.23898,0.22958 -0.78824,0.0195 -4.70738,0.10877 -8.7092,0.19844 l -7.27604,0.16303 -0.0734,3.9363 -0.0734,3.93629 8.54007,-0.17864 c 4.69705,-0.0983 8.8675,-0.24194 9.26769,-0.3193 0.40018,-0.0774 0.7276,-0.0242 0.7276,0.1181 0,0.37156 -2.56895,0.54343 -11.01114,0.73666 l -7.43927,0.17027 -0.16562,1.753291 c -0.0911,0.9643 -0.16647,2.86846 -0.16751,4.23144 l -0.002,2.47817 9.39271,-0.19568 c 5.976,-0.12449 9.39271,-0.10305 9.39271,0.059 0,0.15486 -3.64812,0.32553 -9.31061,0.43558 -5.12083,0.0995 -9.33319,0.20799 -9.3608,0.24102 -0.0276,0.033 -0.13654,2.0143 -0.24207,4.40282 l -0.19186,4.34277 8.16361,-0.17512 c 4.48998,-0.0963 9.80071,-0.17532 11.80162,-0.17558 z m 4.81542,-61.687114 c 0.0471,-0.05146 0.12892,-1.165125 0.18175,-2.474812 l 0.0961,-2.38125 -11.70781,-0.0689 -11.70781,-0.0689 v 2.68869 2.688691 l 11.52606,-0.144981 c 6.33933,-0.07974 11.56462,-0.187084 11.61175,-0.238543 z"
       id="path1558" />
    <path
       style="fill:#000000;stroke-width:0.264583"
       d="m 63.476671,121.37295 c -2.813235,-0.68563 -5.314447,-2.77102 -6.646524,-5.54156 l -0.826876,-1.7198 v -34.924997 -34.925 l 0.609534,-1.50855 c 1.367938,-3.38556 4.438121,-5.58797 8.505338,-6.10135 2.114855,-0.26694 2.332887,-0.34523 2.111836,-0.75826 -0.135575,-0.25332 -0.246499,-1.94046 -0.246499,-3.7492 0,-3.20043 0.01871,-3.30731 0.697537,-3.98614 0.383646,-0.38365 0.859896,-0.69754 1.058333,-0.69754 0.494906,0 0.462169,-0.26579 -0.320127,-2.59918 -0.929235,-2.77169 -2.002298,-4.55839 -4.026168,-6.7038 -6.12571,-6.49358 -16.184798,-7.84715 -25.323117,-3.40754 -10.082097,4.89812 -16.754584,14.82525 -20.636372,30.70219 -2.358033,9.64461 -3.31918,17.42637 -3.496694,28.31042 -0.136942,8.3964 0.224498,15.25905 1.066028,20.24062 0.269549,1.59564 0.394049,1.86363 0.899151,1.93545 0.322455,0.0459 0.906093,0.46257 1.296973,0.92604 l 0.710691,0.84268 -0.177424,8.731247 c -0.09758,4.80219 -0.250234,9.17724 -0.339224,9.72233 l -0.161801,0.99109 -2.280665,-0.17359 c -3.737012,-0.28444 -3.288811,0.20126 -5.216514,-5.65293 l -1.6963154,-5.15149 0.0029,-4.49791 c 0.0027,-4.232447 -0.04463,-4.661887 -0.802747,-7.276037 -1.093685,-3.77128 -2.253507,-9.65518 -2.816324,-14.2875 -0.626733,-5.15841 -0.63271,-16.64599 -0.01122,-21.56355 2.10109,-16.62489 7.9199104,-31.88595 16.5011144,-43.27759 C 32.693054,0.95886308 48.338499,-4.0010369 61.844388,2.6120331 c 6.881702,3.36958 11.89794,9.4987399 13.750317,16.8010199 0.72177,2.84531 1.108168,7.18985 0.706247,7.94085 -0.200893,0.37537 -0.174532,0.6464 0.09929,1.02088 0.451065,0.61686 0.53135,6.7618 0.09891,7.56983 -0.257244,0.48066 -0.172797,0.5119 1.389063,0.51377 2.225516,0.003 4.847627,0.44817 6.225624,1.05772 1.731368,0.76587 3.853223,2.93416 4.731039,4.83457 l 0.760457,1.64634 0.07097,34.50995 c 0.07834,38.092337 0.164264,35.980107 -1.574771,38.712697 -0.9662,1.51822 -2.297949,2.61065 -4.360458,3.5769 l -1.544079,0.72337 -8.863542,0.0476 c -4.874948,0.0261 -9.310511,-0.0614 -9.856809,-0.19453 z m 20.484262,-1.24465 c 2.037953,-1.00378 3.437644,-2.43887 4.418034,-4.52974 l 0.697222,-1.48697 V 79.054303 43.997013 l -0.700606,-1.49436 c -0.925426,-1.97388 -2.525374,-3.52863 -4.683335,-4.55104 l -1.75981,-0.83377 -8.202083,-0.0436 c -4.724538,-0.0251 -8.819068,0.0721 -9.657292,0.22937 -2.109787,0.39581 -3.701944,1.30022 -5.227524,2.96945 -2.510409,2.74679 -2.313101,-0.58383 -2.313101,39.04586 v 34.792697 l 0.58974,1.27781 c 1.199036,2.59799 3.079383,4.32689 5.707301,5.24762 1.242785,0.43544 2.246683,0.47586 10.378157,0.41791 l 9.002279,-0.0642 z M 59.5778,112.45795 c 0.0016,-1.27331 0.115393,-6.83948 0.253188,-12.36927 0.137792,-5.529787 0.320632,-12.971197 0.406307,-16.536457 0.700463,-29.14866 0.921004,-38.69569 0.922907,-39.95209 l 0.0021,-1.4552 11.800507,0.0766 c 8.220837,0.0534 11.905734,-0.0107 12.1474,-0.21129 0.190791,-0.15834 0.398068,-0.19282 0.460615,-0.0766 0.08346,0.15505 -1.542301,72.372537 -1.638271,72.773267 -0.0086,0.0364 -5.492631,0.0661 -12.186589,0.0661 H 59.575146 l 0.0026,-2.3151 z m 23.902985,0.39687 c 0.09177,-0.76398 0.167881,-1.77601 0.169146,-2.24895 l 0.0023,-0.8599 h -5.778075 c -3.177942,0 -8.476224,0.0785 -11.773959,0.1745 l -5.995884,0.17449 v 2.07447 2.07446 h 11.604813 11.604813 z m -3.466576,-3.63755 3.638021,-4.7e-4 v -1.19062 -1.19063 h -8.598958 -8.598959 v -2.24896 -2.24895 h 8.564341 8.56434 l 0.163997,-0.99219 c 0.0902,-0.5457 0.165309,-1.377487 0.166909,-1.848417 l 0.0029,-0.85623 -8.532813,-0.0698 -8.532813,-0.0698 v -2.24896 -2.24896 l 8.532813,-0.0698 8.532813,-0.0698 v -1.95907 c 0,-1.07749 0.07163,-2.14574 0.159178,-2.37389 0.142198,-0.37056 -0.753988,-0.42226 -8.400521,-0.48466 l -8.5597,-0.0698 v -2.24896 -2.24896 l 8.532813,-0.0698 8.532813,-0.0698 v -1.71613 -1.71612 h -8.598959 -8.598958 v -2.24896 -2.24896 h 8.73125 8.73125 v -2.11667 -2.11666 h -8.73125 -8.73125 v -2.24896 -2.24896 h 8.700392 8.700391 l 0.159536,-0.59531 c 0.08775,-0.32743 0.161166,-1.51805 0.163153,-2.64584 l 0.0036,-2.05052 h -8.731251 -8.73125 v -2.24896 -2.24896 h 8.73125 8.731251 l 0.0036,-0.99218 c 0.0021,-0.54571 0.07498,-1.25846 0.162208,-1.5839 l 0.158597,-0.59171 -8.827313,-0.0697 -8.827299,-0.0697 v -2.24896 -2.24895 l 8.797396,-0.0697 8.797396,-0.0697 v -0.9339 -0.93391 l -11.44323,0.16537 c -6.293776,0.0909 -11.592057,0.21142 -11.773958,0.26771 -0.244068,0.0755 -0.330729,1.07804 -0.330729,3.826 v 3.72367 l 5.820833,-0.18435 c 3.835231,-0.12146 5.820834,-0.0939 5.820834,0.0808 0,0.16434 -2.171322,0.32223 -5.710132,0.41524 -3.140575,0.0825 -5.756466,0.1964 -5.813095,0.25303 -0.05663,0.0566 -0.184877,2.10156 -0.284998,4.54429 l -0.182039,4.44134 5.995133,-0.19321 c 3.873098,-0.12483 5.995131,-0.10137 5.995131,0.0663 0,0.15664 -2.322703,0.32701 -5.860894,0.42988 -3.223491,0.0937 -5.886503,0.20199 -5.917806,0.24059 -0.0313,0.0386 -0.139288,2.01271 -0.239969,4.3869 l -0.183058,4.31672 6.100863,-0.18903 c 4.528789,-0.14032 6.100864,-0.11067 6.100864,0.11505 0,0.28191 -3.178228,0.4141 -10.385354,0.43195 l -1.786395,0.004 5.29e-4,3.92043 c 5.29e-4,3.60837 0.03731,3.90975 0.463478,3.78622 0.751435,-0.21782 16.416627,-0.30791 16.628907,-0.0956 0.106802,0.10681 -0.450739,0.21012 -1.238975,0.22959 -0.788239,0.0195 -4.707379,0.10877 -8.709202,0.19844 l -7.276042,0.16303 -0.07341,3.9363 -0.07341,3.93629 8.540078,-0.17864 c 4.697043,-0.0983 8.8675,-0.24194 9.267683,-0.3193 0.400182,-0.0774 0.727604,-0.0242 0.727604,0.1181 0,0.37156 -2.568951,0.54343 -11.011144,0.73666 l -7.439268,0.17027 -0.165622,1.75328 c -0.09109,0.96431 -0.166468,2.86847 -0.167502,4.23145 l -0.0019,2.478167 9.392708,-0.19568 c 5.975996,-0.124487 9.392709,-0.103047 9.392709,0.0589 0,0.15486 -3.648115,0.32553 -9.310606,0.43558 -5.12083,0.0995 -9.333193,0.20799 -9.360802,0.24102 -0.02761,0.033 -0.136541,2.0143 -0.242067,4.40282 l -0.191868,4.34277 8.16361,-0.17512 c 4.489985,-0.0963 9.800717,-0.17532 11.801629,-0.17558 z m 3.638021,-4.76297 v -1.85208 H 75.317855 66.98348 v 1.85208 1.85209 h 8.334375 8.334375 z m 0.264584,-8.202077 v -1.85208 h -8.334376 -8.334375 v 1.85208 1.85208 h 8.334375 8.334376 z m 0.210526,-9.59115 0.07823,-1.78593 h -8.34646 -8.346464 v 1.85585 1.85585 l 8.26823,-0.0699 8.268229,-0.0699 z m 0.05406,-8.00364 v -1.71979 h -8.334378 -8.334376 v 1.71979 1.71979 h 8.334376 8.334375 z m 0,-8.73125 v -1.71979 h -8.334378 -8.334376 v 1.71979 1.71979 h 8.334376 8.334375 z m 0.264583,-9.78959 v -1.71979 h -8.334375 -8.334375 v 1.71979 1.7198 h 8.334375 8.334375 z m 0,-7.80521 v -1.85208 h -8.334375 -8.334375 v 1.85208 1.85209 h 8.334375 8.334375 z m 0.383643,-4.80123 c 0.04713,-0.0515 0.128924,-1.16512 0.181756,-2.47481 l 0.09606,-2.38125 -11.707813,-0.0689 -11.707813,-0.0689 v 2.68869 2.68869 l 11.526057,-0.14498 c 6.339332,-0.0797 11.564621,-0.18709 11.611753,-0.23855 z M 17.875581,114.97149 c 0.08069,-0.9095 0.188569,-2.99791 0.23972,-4.64089 0.08251,-2.65028 0.04595,-2.96366 -0.324097,-2.77813 -0.229404,0.11502 -2.03773,0.20912 -4.018502,0.20912 h -3.601405 l 0.216688,0.66146 c 0.119179,0.36381 0.711833,2.20927 1.317011,4.10104 0.605177,1.89178 1.140057,3.48322 1.188623,3.53655 0.04856,0.0533 1.017012,0.1855 2.152103,0.29372 1.13509,0.10822 2.203153,0.21341 2.373471,0.23377 0.194091,0.0232 0.36443,-0.58019 0.456388,-1.61664 z m -0.123803,-8.30391 c 0.500252,-0.63597 0.54837,-1.05073 0.54837,-4.72682 0,-3.676087 -0.04812,-4.090847 -0.54837,-4.726817 -0.539547,-0.68592 -0.600965,-0.69714 -3.817255,-0.69714 -3.21629,0 -3.277708,0.0112 -3.817255,0.69714 -0.5002524,0.63597 -0.5483704,1.05073 -0.5483704,4.726817 0,3.67609 0.04812,4.09085 0.5483704,4.72682 0.539547,0.68592 0.600965,0.69714 3.817255,0.69714 3.21629,0 3.277708,-0.0112 3.817255,-0.69714 z M 10.098065,96.384513 c 0.252658,-0.30443 0.946585,-0.39687 2.979242,-0.39687 h 2.649864 l -0.186707,-1.52136 c -0.102689,-0.83674 -0.360404,-2.9501 -0.572699,-4.69635 -0.551775,-4.53866 -0.778602,-17.57923 -0.393484,-22.62188 1.461552,-19.13724 5.731532,-33.77028 12.52981,-42.93911 9.047339,-12.20214 23.951933,-16.0925999 34.608386,-9.03363 3.811966,2.5251 6.79299,6.95446 7.767686,11.54163 l 0.151204,0.71161 3.053792,0.0821 c 3.599084,0.0968 3.471637,0.22927 3.18259,-3.30749 C 74.901954,12.385833 66.680151,3.2640131 54.680355,0.69649308 52.23502,0.17327308 46.10831,0.24951308 43.593781,0.83444308 36.368949,2.5150931 29.500058,6.9423731 24.073386,13.416133 c -5.517746,6.58242 -10.615707,16.14855 -13.944049,26.16549 -4.9856664,15.00481 -6.0967894,32.3625 -3.0518214,47.67477 0.766143,3.85271 2.265188,9.525 2.517222,9.525 0.09567,0 0.322166,-0.1786 0.5033244,-0.39688 z m 65.774098,-60.48507 c 0.435657,-0.48139 0.504028,-0.9801 0.504028,-3.67639 0,-4.29513 0.06433,-4.23333 -4.406633,-4.23333 -4.535776,0 -4.456909,-0.0757 -4.456909,4.27864 0,4.32889 -0.146841,4.18802 4.365626,4.18802 3.211861,0 3.53001,-0.0444 3.993888,-0.55694 z"
       id="path1804" />
    <g
       id="g2909"
       transform="translate(111.61448,-1.0504894)">
      <g
         id="g2856"
         transform="matrix(0.55899155,0,0,0.54600686,22.770341,207.71776)"
         inkscape:export-filename="C:\Users\steven\Desktop\g7806.png"
         inkscape:export-xdpi="96"
         inkscape:export-ydpi="96">
        <path
           id="path2846"
           style="fill:none;fill-rule:evenodd;stroke:#000000;stroke-width:0.957001;stroke-linecap:round;stroke-linejoin:round;paint-order:stroke markers fill"
           d="m 79.060049,-37.645145 h 9.052677 c 2.173246,0 3.922827,1.74958 3.922827,3.922826 v 9.052678 c 0,2.173246 -1.749581,3.922826 -3.922827,3.922826 h -9.052677 c -2.173246,0 -3.922827,-1.74958 -3.922827,-3.922826 v -9.052678 c 0,-2.173246 1.749581,-3.922826 3.922827,-3.922826 z m -6.31889,16.787782 h 24.989735 c 9.569976,0 17.274316,7.704346 17.274316,17.274317 V 116.74152 c 0,9.56997 -7.70434,17.27432 -17.274316,17.27432 H 72.741159 c -9.569971,0 -17.274316,-7.70435 -17.274316,-17.27432 V -3.583046 c 0,-9.569971 7.704345,-17.274317 17.274316,-17.274317 z M 63.052257,112.67583 104.43201,112.09329 M 64.545777,-0.03886177 106.85158,-0.61727405 M 63.087342,79.470454 96.249515,78.470426 M 63.063641,95.746486 96.273216,95.155814 M 63.066403,63.997612 94.158162,63.404652 M 64.575766,14.790358 85.396924,14.186846 M 64.575766,32.252869 85.396924,31.649357 M 64.575766,49.186213 85.396924,48.582701 M 75.819458,3.828475 H 106.59856 V 11.30041 H 75.819458 Z m 0,14.287494 h 30.779102 v 7.471934 H 75.819458 Z m -0.529167,17.991682 h 30.779099 v 7.471935 H 75.290291 Z m 0,15.875015 h 30.779099 v 7.471935 H 75.290291 Z m 0,14.816681 h 30.779099 v 7.471935 H 75.290291 Z m 0,0 h 30.779099 v 7.471935 H 75.290291 Z m -0.529167,17.462517 h 30.779106 v 7.471935 H 74.761124 Z M 74.231956,99.349663 H 105.01106 V 106.8216 H 74.231956 Z M 65.034966,-10.630616 H 107.89753 M 61.859964,121.60763 h 42.862546 m 3.01758,-132.774228 -3.01758,132.774228 M 64.877521,-11.166598 61.859964,121.60763" />
        <path
           style="color:#000000;fill:#000000;-inkscape-stroke:none"
           d="m 46.333984,-66.910156 c -2.481215,-0.141936 -4.977085,-0.05617 -7.435547,0.257812 -9.828517,1.255246 -19.027745,5.960388 -26.412109,12.525391 -7.3821809,6.563062 -13.01165907,14.916205 -17.1718749,23.84375 -4.1597201,8.926481 -6.8962491,18.436651 -9.0371091,28.0195311 -6.629153,29.6732909 -7.660485,60.5856789 -3.023438,90.6347659 l 0.902344,-0.138672 c -4.619518,-29.93549 -3.592373,-60.735761 3.011719,-90.2968751 2.132764,-9.5466409 4.8550762,-18.9937429 8.9746091,-27.8339839 4.11903726,-8.839178 9.6844275,-17.084489 16.9511719,-23.544922 7.264561,-6.458493 16.307237,-11.072851 25.921875,-12.300782 9.609311,-1.22725 19.784675,1.103941 27.390625,7.060547 6.551198,5.130576 11.023066,12.866219 12.201172,21.103516 l 0.904297,-0.128906 c -1.212599,-8.478472 -5.79801,-16.41257 -12.541016,-21.69336 -5.869455,-4.596668 -13.193073,-7.082006 -20.636719,-7.507812 z"
           id="path2848" />
        <path
           style="color:#000000;fill:#000000;-inkscape-stroke:none"
           d="m 42.560547,-88.853516 c -2.404081,0.04341 -4.805426,0.262465 -7.177735,0.658204 -11.774631,1.964195 -22.551409,8.17581 -31.2031245,16.341796 -8.649049,8.16347 -15.2946625,18.213281 -20.7910155,28.712891 -21.234527,40.5640359 -25.719605,89.565251 -12.203125,133.310547 l 0.943359,-0.291016 c -13.436827,-43.487504 -8.974626,-92.2355553 12.134766,-132.560547 5.464694,-10.439133 12.0553877,-20.394127 20.5937499,-28.453125 8.5356961,-8.056481 19.1500611,-14.161309 30.6875001,-16.085937 9.295123,-1.550574 19.052538,-0.320245 27.642578,3.548828 8.589727,3.868931 15.98836,10.375691 20.861328,18.435547 4.994934,8.261587 7.30814,18.127097 6.507813,27.748047 l 0.984375,0.08203 C 92.358992,-47.23936 89.99766,-57.302325 84.892578,-65.746095 79.912492,-73.983123 72.367899,-80.622222 63.59375,-84.57422 57.013373,-87.538112 49.772788,-88.983747 42.560547,-88.853516 Z"
           id="path2850" />
        <rect
           style="fill:none;fill-rule:evenodd;stroke:#000000;stroke-width:1.065;stroke-linecap:round;stroke-linejoin:round;stroke-miterlimit:4;stroke-dasharray:none;paint-order:stroke markers fill"
           id="rect2852"
           width="16.403166"
           height="21.164722"
           x="-28.3431"
           y="87.787148"
           ry="3.9228182" />
        <path
           style="color:#000000;fill:#000000;-inkscape-stroke:none"
           d="m -27.847656,106.07617 -0.990235,0.31836 6.060547,18.96875 10.589844,0.94531 0.767578,-20.05273 -1.039062,-0.041 -0.72461,18.96094 -8.814453,-0.78711 z"
           id="path2854" />
      </g>
      <path
         style="fill:#afdde9;fill-rule:evenodd;stroke:#000000;stroke-width:1.35985;stroke-linecap:round;stroke-linejoin:round;paint-order:stroke markers fill"
         d="m 6.2364905,252.94945 c -4.794221,-17.76683 -4.092472,-37.15754 1.988,-54.93223 2.9629705,-8.66149 8.0597705,-18.24477 12.8726005,-24.20378 3.37404,-4.17758 8.68851,-8.59394 12.89396,-10.71498 14.11802,-7.1205 30.69198,-1.79412 37.05416,11.9081 1.28486,2.76721 2.06552,5.94597 2.26842,9.23673 l 0.16277,2.63997 -2.5973,-0.0918 c -3.84546,-0.13597 -3.54415,-0.0106 -3.94888,-1.6427 -1.22111,-4.92421 -5.0733,-9.58015 -9.87427,-11.93455 -3.11331,-1.52676 -5.55447,-2.05088 -9.65263,-2.07243 -3.08462,-0.0162 -3.88672,0.0748 -6.17162,0.7 -6.50186,1.77915 -12.27214,5.86074 -16.72505,11.83042 -4.10774,5.50696 -6.89769,11.99829 -9.15659,21.30454 -3.67813,15.15318 -4.59385,31.25364 -2.65596,46.69791 l 0.451,3.59426 h -2.50913 c -1.7409405,0 -2.6719205,0.11403 -3.0408605,0.37244 -0.51434,0.36028 -0.55878,0.27223 -1.35862,-2.69187 z"
         id="path2858" />
      <path
         style="fill:#216778;fill-rule:evenodd;stroke:#000000;stroke-width:1.35985;stroke-linecap:round;stroke-linejoin:round;paint-order:stroke markers fill"
         d="m 60.872181,280.1076 c -2.60498,-0.83291 -4.87029,-2.77902 -5.94806,-5.1099 l -0.56131,-1.21396 v -35.19137 -35.19139 l 0.72759,-1.48159 c 0.8862,-1.80456 2.61698,-3.45091 4.61018,-4.38529 l 1.49042,-0.69868 h 9.19178 9.19178 l 1.57573,0.73554 c 1.9027,0.88816 3.60666,2.48056 4.55235,4.25428 l 0.7001,1.31312 v 35.45401 35.454 l -0.69601,1.31831 c -0.86096,1.63079 -2.96105,3.63016 -4.61975,4.3982 -1.20158,0.55636 -1.59431,0.58102 -10.17896,0.63865 -6.8996,0.0463 -9.1807,-0.0206 -10.03584,-0.29393 z m 20.93661,-8.35917 c 0.001,-1.48052 0.35473,-17.58256 0.78592,-35.78229 0.4312,-18.19972 0.78488,-33.44495 0.78596,-33.87828 l 0.002,-0.78786 h -12.31924 -12.31923 l -0.15688,3.67671 c -0.0863,2.02219 -0.44848,17.14924 -0.80488,33.61566 -0.35639,16.46641 -0.70592,31.26847 -0.77671,32.89344 l -0.12886,2.9545 h 12.46493 12.46493 l 0.002,-2.69188 z"
         id="path2860" />
      <path
         style="fill:#000000;fill-rule:evenodd;stroke:#000000;stroke-width:1.35985;stroke-linecap:round;stroke-linejoin:round;paint-order:stroke markers fill"
         d="m 64.736401,264.06673 v -1.70703 h 8.14129 8.14129 v 1.70703 1.70704 h -8.14129 -8.14129 z"
         id="path2862" />
      <path
         style="fill:#000000;fill-rule:evenodd;stroke:#000000;stroke-width:1.35985;stroke-linecap:round;stroke-linejoin:round;paint-order:stroke markers fill"
         d="m 64.999021,255.79414 v -1.57575 h 8.14129 8.14129 v 1.57575 1.57573 h -8.14129 -8.14129 z"
         id="path2864" />
      <path
         style="fill:#000000;fill-rule:evenodd;stroke:#000000;stroke-width:1.35985;stroke-linecap:round;stroke-linejoin:round;paint-order:stroke markers fill"
         d="m 65.261641,246.20841 v -1.70704 h 8.14129 8.14129 v 1.70704 1.70705 h -8.14129 -8.14129 z"
         id="path2866" />
      <path
         style="fill:#000000;fill-rule:evenodd;stroke:#000000;stroke-width:1.35985;stroke-linecap:round;stroke-linejoin:round;paint-order:stroke markers fill"
         d="m 65.524261,211.80489 v -1.70704 h 8.2726 8.27261 v 1.70704 1.70704 h -8.27261 -8.2726 z"
         id="path2868" />
      <path
         style="fill:#000000;fill-rule:evenodd;stroke:#000000;stroke-width:1.35985;stroke-linecap:round;stroke-linejoin:round;paint-order:stroke markers fill"
         d="m 65.524261,219.68356 v -1.70705 h 8.2726 8.27261 v 1.70705 1.70704 h -8.27261 -8.2726 z"
         id="path2870" />
      <path
         style="fill:#000000;fill-rule:evenodd;stroke:#000000;stroke-width:1.35985;stroke-linecap:round;stroke-linejoin:round;paint-order:stroke markers fill"
         d="m 65.261641,229.40058 v -1.70704 h 8.14129 8.14129 v 1.70704 1.70705 h -8.14129 -8.14129 z"
         id="path2872" />
      <path
         style="fill:#000000;fill-rule:evenodd;stroke:#000000;stroke-width:1.35985;stroke-linecap:round;stroke-linejoin:round;paint-order:stroke markers fill"
         d="m 65.261641,238.06712 v -1.70704 h 8.14129 8.14129 v 1.70704 1.70705 h -8.14129 -8.14129 z"
         id="path2874" />
      <path
         style="fill:#ffffff;fill-rule:evenodd;stroke:#000000;stroke-width:1.35985;stroke-linecap:round;stroke-linejoin:round;paint-order:stroke markers fill"
         d="m 59.324541,206.79359 c 0.0877,-0.22848 0.15941,-1.35119 0.15941,-2.49492 v -2.07949 h 11.56561 11.5656 l -0.0759,2.29794 -0.0759,2.29795 -3.5454,0.16594 c -1.94997,0.0913 -7.19208,0.1799 -11.64913,0.19697 -7.28956,0.0279 -8.08772,-0.0107 -7.94433,-0.38439 z"
         id="path2876" />
      <path
         style="fill:#ffffff;fill-rule:evenodd;stroke:#000000;stroke-width:1.35985;stroke-linecap:round;stroke-linejoin:round;paint-order:stroke markers fill"
         d="m 57.908221,266.64179 c 0,-1.30048 0.075,-3.2516 0.16663,-4.33581 l 0.16664,-1.97127 9.29904,-0.13682 c 5.11447,-0.0752 9.37472,-0.21249 9.46722,-0.30498 0.51403,-0.51404 -1.18736,-0.59391 -9.57977,-0.44977 l -9.25774,0.15901 2.7e-4,-4.00499 c 1.6e-4,-2.20274 0.0298,-4.02008 0.066,-4.03852 0.0361,-0.0184 4.25146,-0.16617 9.36744,-0.32828 7.4931,-0.23743 9.32523,-0.36539 9.42232,-0.65807 0.1017,-0.30658 -1.14577,-0.33623 -7.98868,-0.18986 -4.46006,0.0954 -8.67056,0.24044 -9.35665,0.32231 l -1.24746,0.14885 v -3.96398 -3.96398 h 5.47384 c 7.29572,0 11.85923,-0.25188 11.85923,-0.65455 0,-0.23612 -2.0921,-0.28106 -8.66939,-0.18623 l -8.66939,0.125 0.17063,-3.51579 c 0.0938,-1.93368 0.21476,-3.56648 0.2687,-3.62844 0.0539,-0.062 2.72613,-0.19565 5.9382,-0.29709 3.21206,-0.10144 5.87951,-0.19847 5.92766,-0.21562 0.0481,-0.0171 0.0442,-0.1611 -0.009,-0.31989 -0.10498,-0.31496 -6.72534,-0.35763 -10.12415,-0.0653 l -1.90401,0.16378 v -2.3602 c 0,-1.29811 0.0764,-3.26438 0.16985,-4.36949 l 0.16985,-2.00929 3.70383,-0.002 c 4.94944,-0.002 8.0371,-0.25293 8.0371,-0.65291 0,-0.23805 -1.42953,-0.28345 -5.90901,-0.18764 l -5.909,0.12638 0.004,-4.04105 c 0.002,-2.22258 0.0909,-4.17529 0.19697,-4.33937 0.12761,-0.1973 2.12712,-0.36379 5.90498,-0.49168 4.76135,-0.16117 5.71204,-0.25757 5.71204,-0.5792 0,-0.33348 -0.78414,-0.35991 -5.77769,-0.19474 l -5.77769,0.19112 v -3.71251 -3.71252 l 6.63121,-7.9e-4 c 3.64717,-5.3e-4 8.84709,-0.0782 11.55538,-0.17284 l 4.92417,-0.17209 v 0.82585 0.82585 l -8.73219,0.0692 -8.7322,0.0692 -0.0755,2.42926 -0.0755,2.42926 h 8.80771 8.8077 v 1.44442 1.44442 h -8.80766 -8.80771 l 0.0755,2.42926 0.0755,2.42925 8.60088,0.0693 8.60088,0.0692 v 2.35647 2.35648 l -8.73219,0.0692 -8.73219,0.0692 -0.0755,2.42925 -0.0755,2.42926 h 8.6764 8.67639 v 1.83477 1.83477 l -8.60089,0.0692 -8.60087,0.0692 -0.0755,2.42926 -0.0755,2.42926 h 8.54508 8.54508 v 1.57209 1.5721 l -8.46957,0.0693 -8.46956,0.0693 -0.0755,2.42925 -0.0755,2.42926 h 8.54508 8.54508 l -0.003,1.37877 c -0.002,0.75832 -0.0761,1.82194 -0.16567,2.3636 l -0.16279,0.98483 h -8.50086 -8.50086 v 2.3636 2.36358 h 8.53522 8.53523 v 1.70706 1.70704 h -8.6764 -8.67639 l 0.0755,2.42924 0.0755,2.42928 8.46957,0.0693 8.46957,0.0693 v 1.04685 1.04685 h -8.20695 c -4.51382,0 -9.71374,0.0779 -11.55538,0.17184 l -3.34843,0.17079 z"
         id="path2878" />
      <path
         style="fill:#ffffff;fill-rule:evenodd;stroke:#000000;stroke-width:1.35985;stroke-linecap:round;stroke-linejoin:round;paint-order:stroke markers fill"
         d="m 57.845901,271.74843 c 0.0716,-1.04722 0.16827,-1.94751 0.21483,-2.00072 0.0466,-0.0532 5.23121,-0.15936 11.52145,-0.23596 l 11.4368,-0.13925 v 2.13998 2.13998 h -11.65163 -11.65163 z"
         id="path2880" />
      <path
         style="fill:#373e48;fill-rule:evenodd;stroke:#000000;stroke-width:1.35985;stroke-linecap:round;stroke-linejoin:round;paint-order:stroke markers fill"
         d="m 8.0099805,266.29902 c -0.48391,-0.48392 -0.52525,-0.8754 -0.52525,-4.97493 0,-5.50595 -0.18498,-5.26735 4.0833105,-5.26735 4.13126,0 4.05799,-0.0983 4.05799,5.44729 v 4.23162 l -0.69198,0.5443 c -0.60361,0.47482 -1.05632,0.54432 -3.5454,0.54432 -2.5032605,0 -2.9178805,-0.0645 -3.3786705,-0.52525 z"
         id="path2882" />
      <path
         style="fill:#373e48;fill-rule:evenodd;stroke:#000000;stroke-width:1.35985;stroke-linecap:round;stroke-linejoin:round;paint-order:stroke markers fill"
         d="m 12.890151,275.72703 c -1.14362,-0.12055 -2.16295,-0.31163 -2.26518,-0.42466 -0.16804,-0.18579 -2.6143305,-7.37888 -2.6154705,-7.69056 -2.6e-4,-0.072 1.47227,-0.0947 3.2722805,-0.0505 2.15406,0.053 3.4701,-0.0251 3.85007,-0.22844 l 0.5773,-0.30895 -0.17288,2.43541 c -0.0951,1.33951 -0.17287,3.36272 -0.17287,4.49606 0,1.13335 -0.0886,2.04492 -0.19696,2.02571 -0.10833,-0.0193 -1.13266,-0.13357 -2.27629,-0.25408 z"
         id="path2884" />
      <path
         style="fill:#373e48;fill-rule:evenodd;stroke:#000000;stroke-width:1.35985;stroke-linecap:round;stroke-linejoin:round;paint-order:stroke markers fill"
         d="m 65.845321,195.50741 c -0.54968,-0.385 -0.58368,-0.5981 -0.58368,-3.65795 0,-4.39573 0.0855,-4.47131 4.86023,-4.29457 3.70304,0.13708 3.67499,0.10548 3.67499,4.1412 0,4.2585 0.038,4.22015 -4.18422,4.22015 -2.4564,0 -3.31697,-0.0934 -3.76732,-0.40883 z"
         id="path2886" />
    </g>
    <g
       id="g4872"
       transform="translate(-89.761576,2.7694995)">
      <g
         id="g7794"
         transform="matrix(0.55899155,0,0,0.54600686,118.36486,206.92989)"
         inkscape:export-filename="C:\Users\steven\Desktop\g7806.png"
         inkscape:export-xdpi="96"
         inkscape:export-ydpi="96">
        <path
           id="rect6212"
           style="fill:none;fill-rule:evenodd;stroke:#000000;stroke-width:0.957001;stroke-linecap:round;stroke-linejoin:round;paint-order:stroke markers fill"
           d="m 79.060049,-37.645145 h 9.052677 c 2.173246,0 3.922827,1.74958 3.922827,3.922826 v 9.052678 c 0,2.173246 -1.749581,3.922826 -3.922827,3.922826 h -9.052677 c -2.173246,0 -3.922827,-1.74958 -3.922827,-3.922826 v -9.052678 c 0,-2.173246 1.749581,-3.922826 3.922827,-3.922826 z m -6.31889,16.787782 h 24.989735 c 9.569976,0 17.274316,7.704346 17.274316,17.274317 V 116.74152 c 0,9.56997 -7.70434,17.27432 -17.274316,17.27432 H 72.741159 c -9.569971,0 -17.274316,-7.70435 -17.274316,-17.27432 V -3.583046 c 0,-9.569971 7.704345,-17.274317 17.274316,-17.274317 z M 63.052257,112.67583 104.43201,112.09329 M 64.545777,-0.03886177 106.85158,-0.61727405 M 63.087342,79.470454 96.249515,78.470426 M 63.063641,95.746486 96.273216,95.155814 M 63.066403,63.997612 94.158162,63.404652 M 64.575766,14.790358 85.396924,14.186846 M 64.575766,32.252869 85.396924,31.649357 M 64.575766,49.186213 85.396924,48.582701 M 75.819458,3.828475 H 106.59856 V 11.30041 H 75.819458 Z m 0,14.287494 h 30.779102 v 7.471934 H 75.819458 Z m -0.529167,17.991682 h 30.779099 v 7.471935 H 75.290291 Z m 0,15.875015 h 30.779099 v 7.471935 H 75.290291 Z m 0,14.816681 h 30.779099 v 7.471935 H 75.290291 Z m 0,0 h 30.779099 v 7.471935 H 75.290291 Z m -0.529167,17.462517 h 30.779106 v 7.471935 H 74.761124 Z M 74.231956,99.349663 H 105.01106 V 106.8216 H 74.231956 Z M 65.034966,-10.630616 H 107.89753 M 61.859964,121.60763 h 42.862546 m 3.01758,-132.774228 -3.01758,132.774228 M 64.877521,-11.166598 61.859964,121.60763" />
        <path
           style="color:#000000;fill:#000000;-inkscape-stroke:none"
           d="m 46.333984,-66.910156 c -2.481215,-0.141936 -4.977085,-0.05617 -7.435547,0.257812 -9.828517,1.255246 -19.027745,5.960388 -26.412109,12.525391 -7.3821809,6.563062 -13.01165907,14.916205 -17.1718749,23.84375 -4.1597201,8.926481 -6.8962491,18.436651 -9.0371091,28.0195311 -6.629153,29.6732909 -7.660485,60.5856789 -3.023438,90.6347659 l 0.902344,-0.138672 c -4.619518,-29.93549 -3.592373,-60.735761 3.011719,-90.2968751 2.132764,-9.5466409 4.8550762,-18.9937429 8.9746091,-27.8339839 4.11903726,-8.839178 9.6844275,-17.084489 16.9511719,-23.544922 7.264561,-6.458493 16.307237,-11.072851 25.921875,-12.300782 9.609311,-1.22725 19.784675,1.103941 27.390625,7.060547 6.551198,5.130576 11.023066,12.866219 12.201172,21.103516 l 0.904297,-0.128906 c -1.212599,-8.478472 -5.79801,-16.41257 -12.541016,-21.69336 -5.869455,-4.596668 -13.193073,-7.082006 -20.636719,-7.507812 z"
           id="path6431" />
        <path
           style="color:#000000;fill:#000000;-inkscape-stroke:none"
           d="m 42.560547,-88.853516 c -2.404081,0.04341 -4.805426,0.262465 -7.177735,0.658204 -11.774631,1.964195 -22.551409,8.17581 -31.2031245,16.341796 -8.649049,8.16347 -15.2946625,18.213281 -20.7910155,28.712891 -21.234527,40.5640359 -25.719605,89.565251 -12.203125,133.310547 l 0.943359,-0.291016 c -13.436827,-43.487504 -8.974626,-92.2355553 12.134766,-132.560547 5.464694,-10.439133 12.0553877,-20.394127 20.5937499,-28.453125 8.5356961,-8.056481 19.1500611,-14.161309 30.6875001,-16.085937 9.295123,-1.550574 19.052538,-0.320245 27.642578,3.548828 8.589727,3.868931 15.98836,10.375691 20.861328,18.435547 4.994934,8.261587 7.30814,18.127097 6.507813,27.748047 l 0.984375,0.08203 C 92.358992,-47.23936 89.99766,-57.302325 84.892578,-65.746095 79.912492,-73.983123 72.367899,-80.622222 63.59375,-84.57422 57.013373,-87.538112 49.772788,-88.983747 42.560547,-88.853516 Z"
           id="path7106" />
        <rect
           style="fill:none;fill-rule:evenodd;stroke:#000000;stroke-width:1.065;stroke-linecap:round;stroke-linejoin:round;stroke-miterlimit:4;stroke-dasharray:none;paint-order:stroke markers fill"
           id="rect7524"
           width="16.403166"
           height="21.164722"
           x="-28.3431"
           y="87.787148"
           ry="3.9228182" />
        <path
           style="color:#000000;fill:#000000;-inkscape-stroke:none"
           d="m -27.847656,106.07617 -0.990235,0.31836 6.060547,18.96875 10.589844,0.94531 0.767578,-20.05273 -1.039062,-0.041 -0.72461,18.96094 -8.814453,-0.78711 z"
           id="path7676" />
      </g>
      <path
         style="fill:#ffffff;fill-rule:evenodd;stroke:#000000;stroke-width:1.35985;stroke-linecap:round;stroke-linejoin:round;paint-order:stroke markers fill"
         d="m 154.91906,206.00572 c 0.0877,-0.22848 0.15941,-1.35119 0.15941,-2.49492 v -2.07949 h 11.56561 11.5656 l -0.0759,2.29794 -0.0759,2.29795 -3.5454,0.16594 c -1.94997,0.0913 -7.19208,0.1799 -11.64913,0.19697 -7.28956,0.0279 -8.08772,-0.0107 -7.94433,-0.38439 z"
         id="path2495" />
      <path
         style="fill:#ffffff;fill-rule:evenodd;stroke:#000000;stroke-width:1.35985;stroke-linecap:round;stroke-linejoin:round;paint-order:stroke markers fill"
         d="m 153.44042,270.96056 c 0.0716,-1.04722 0.16827,-1.94751 0.21483,-2.00072 0.0466,-0.0532 5.23121,-0.15936 11.52145,-0.23596 l 11.4368,-0.13925 v 2.13998 2.13998 h -11.65163 -11.65163 z"
         id="path2573" />
      <path
         style="fill:#ffffff;fill-rule:evenodd;stroke:#000000;stroke-width:5.13958;stroke-linecap:round;stroke-linejoin:round;paint-order:stroke markers fill"
         d="m 384.87312,953.05164 c -18.1199,-67.15021 -15.46761,-140.43794 7.51369,-207.61787 11.19864,-32.73632 30.46213,-68.95662 48.65234,-91.47885 12.7523,-15.78928 32.83848,-32.48104 48.73308,-40.49756 53.35947,-26.91211 116.0012,-6.78093 140.04723,45.00699 4.85617,10.45874 7.8067,22.47296 8.57356,34.91049 l 0.61518,9.97783 -9.81657,-0.34709 c -14.53402,-0.51389 -13.3952,-0.0401 -14.92488,-6.20863 -4.61524,-18.6112 -19.17466,-36.20844 -37.3201,-45.10695 -11.7668,-5.77043 -20.99325,-7.75136 -36.48235,-7.83279 -11.65841,-0.0613 -14.68997,0.28255 -23.32582,2.64563 -24.57398,6.72436 -46.38291,22.15086 -63.21278,44.71343 -15.52534,20.81369 -26.07001,45.34785 -34.60761,80.52109 -13.90158,57.27186 -17.36256,118.12398 -10.03825,176.49605 l 1.70454,13.5846 h -9.4833 c -6.57994,0 -10.09859,0.43096 -11.49302,1.40766 -1.94398,1.36162 -2.11195,1.02882 -5.13494,-10.17403 z"
         id="path4086"
         transform="scale(0.26458333)" />
      <path
         style="fill:#ffffff;fill-rule:evenodd;stroke:#000000;stroke-width:5.13958;stroke-linecap:round;stroke-linejoin:round;paint-order:stroke markers fill"
         d="m 391.57606,1003.5067 c -1.82895,-1.8289 -1.98517,-3.3086 -1.98517,-18.80288 0,-20.80993 -0.69916,-19.90805 15.43295,-19.90805 15.61423,0 15.33728,-0.37177 15.33728,20.58814 v 15.99359 l -2.61533,2.0572 c -2.28138,1.7945 -3.99241,2.0572 -13.39994,2.0572 -9.46116,0 -11.02823,-0.2436 -12.76979,-1.9852 z"
         id="path4125"
         transform="scale(0.26458333)" />
      <path
         style="fill:#ffffff;fill-rule:evenodd;stroke:#000000;stroke-width:5.13958;stroke-linecap:round;stroke-linejoin:round;paint-order:stroke markers fill"
         d="m 410.02082,1039.1401 c -4.32235,-0.4556 -8.17496,-1.1778 -8.56134,-1.605 -0.6351,-0.7021 -9.88093,-27.8887 -9.88522,-29.0666 -10e-4,-0.2723 5.56446,-0.3582 12.36768,-0.1908 8.1413,0.2002 13.11533,-0.095 14.55142,-0.8635 l 2.18192,-1.1677 -0.65337,9.2048 c -0.35936,5.0626 -0.65338,12.7094 -0.65338,16.993 0,4.2835 -0.335,7.7288 -0.74444,7.6561 -0.40944,-0.073 -4.28091,-0.5047 -8.60327,-0.9603 z"
         id="path4164"
         transform="scale(0.26458333)" />
      <path
         style="fill:#ffffff;fill-rule:evenodd;stroke:#000000;stroke-width:5.13958;stroke-linecap:round;stroke-linejoin:round;paint-order:stroke markers fill"
         d="m 591.37022,1055.6967 c -9.8456,-3.1481 -18.4074,-10.5034 -22.48085,-19.3131 l -2.12148,-4.5881 V 898.78866 765.78183 l 2.74993,-5.59969 c 3.3494,-6.82039 9.89094,-13.04283 17.42428,-16.57433 l 5.63308,-2.64069 h 34.74059 34.74059 l 5.95553,2.78 c 7.19129,3.35683 13.63147,9.37535 17.20571,16.07918 l 2.64605,4.96294 v 133.99942 133.99944 l -2.63055,4.9826 c -3.25405,6.1635 -11.19139,13.7202 -17.46047,16.623 -4.54143,2.1029 -6.02578,2.196 -38.47168,2.4138 -26.07724,0.1751 -34.69872,-0.077 -37.93073,-1.1108 z m 79.13047,-31.5938 c 0.004,-5.5957 1.34072,-66.45376 2.97043,-135.24013 1.62971,-68.78636 2.96645,-126.40611 2.97055,-128.04388 l 0.008,-2.97777 h -46.56084 -46.56085 l -0.59294,13.89624 c -0.32612,7.64293 -1.69538,64.81601 -3.0428,127.0513 -1.34742,62.23528 -2.6868,118.18004 -2.9764,124.32164 l -0.52705,11.1667 h 47.15231 47.15232 l 0.007,-10.1741 z"
         id="path4203"
         transform="scale(0.26458333)" />
      <path
         style="fill:#ffffff;fill-rule:evenodd;stroke:#000000;stroke-width:5.13958;stroke-linecap:round;stroke-linejoin:round;paint-order:stroke markers fill"
         d="m 580.16783,1027.4529 c 0,-7.6818 0.94456,-9.9618 4.33806,-10.471 1.70849,-0.2563 21.08461,-0.7137 43.05803,-1.0164 l 39.95167,-0.5504 v 7.942 7.9421 h -43.67388 -43.67388 z"
         id="path4242"
         transform="scale(0.26458333)" />
      <path
         style="fill:#ffffff;fill-rule:evenodd;stroke:#000000;stroke-width:5.13958;stroke-linecap:round;stroke-linejoin:round;paint-order:stroke markers fill"
         d="m 580.17489,1003.908 c 0.004,-5.40696 0.28576,-12.7812 0.62641,-16.38717 l 0.61935,-6.5563 35.14937,-0.51714 c 19.33215,-0.28442 35.43542,-0.80318 35.78503,-1.1528 1.94279,-1.94278 -4.48766,-2.24469 -36.20702,-1.69987 l -34.98986,0.60099 10e-4,-15.13697 c 6.1e-4,-8.32533 0.11278,-15.19399 0.24926,-15.26369 0.13648,-0.0697 16.06851,-0.62804 35.40451,-1.24074 28.32037,-0.89739 35.24494,-1.38101 35.61189,-2.48718 0.3844,-1.15875 -4.33045,-1.2708 -30.19342,-0.7176 -16.85692,0.36057 -32.7706,0.90875 -35.36374,1.21818 l -4.71479,0.56259 v -14.98197 -14.98197 h 20.68851 c 27.57439,0 44.82231,-0.95198 44.82231,-2.47392 0,-0.8924 -7.90714,-1.06225 -32.76621,-0.70383 l -32.76621,0.47241 0.64491,-13.288 c 0.3547,-7.30841 0.81171,-13.47961 1.01558,-13.71379 0.20387,-0.23417 10.30348,-0.73947 22.44357,-1.12287 12.14009,-0.3834 22.22178,-0.75013 22.40375,-0.81495 0.18198,-0.0648 0.16719,-0.60889 -0.0329,-1.20901 -0.3968,-1.1904 -25.41861,-1.35169 -38.26452,-0.24666 l -7.19626,0.61902 v -8.92044 c 0,-4.90624 0.28888,-12.33782 0.64195,-16.51461 l 0.64194,-7.59417 13.99873,-0.006 c 18.70655,-0.008 30.37644,-0.95598 30.37644,-2.46771 0,-0.89972 -5.40292,-1.07129 -22.33323,-0.70919 l -22.33324,0.47766 0.0152,-15.27326 c 0.008,-8.40029 0.34336,-15.78063 0.74444,-16.40076 0.48231,-0.74571 8.0395,-1.37496 22.31804,-1.8583 17.99565,-0.60917 21.58879,-0.97352 21.58879,-2.18913 0,-1.2604 -2.96366,-1.36029 -21.83694,-0.73601 l -21.83694,0.72232 v -14.03154 -14.03154 l 25.06285,-0.003 c 13.78457,-0.002 33.43782,-0.2955 43.67389,-0.65323 l 18.61103,-0.65043 v 3.12132 3.12132 l -33.00356,0.26153 -33.00356,0.26153 -0.2854,9.18144 -0.28539,9.18144 h 33.28895 33.28896 v 5.45924 5.45923 H 639.1894 605.90045 l 0.28539,9.18144 0.2854,9.18145 32.50726,0.26171 32.50727,0.26171 v 9.41602 9.41603 h -33.25171 -33.25171 v 8.93329 8.9333 h 32.75542 32.75541 v 7.44441 7.44441 h -32.75541 -32.75542 v 8.93329 8.9333 h 32.25912 32.25912 v 5.94178 5.94177 l -32.01097,0.26191 -32.01097,0.26189 -0.2854,9.18144 -0.28539,9.18144 h 32.29636 32.29637 l -0.0109,5.21109 c -0.006,2.8661 -0.28778,6.88608 -0.62616,8.9333 l -0.61524,3.7222 H 636.11904 603.9898 v 8.9333 8.93329 h 32.25911 32.25912 v 6.45182 6.45183 h -32.75541 -32.75541 v 8.93329 8.93332 h 32.25912 32.25911 v 4.4667 4.4666 h -31.01838 c -17.06011,0 -36.71336,0.2945 -43.67388,0.6494 l -12.6555,0.6455 0.007,-9.8309 z"
         id="path4281"
         transform="scale(0.26458333)" />
      <path
         style="fill:#ffffff;fill-rule:evenodd;stroke:#000000;stroke-width:5.13958;stroke-linecap:round;stroke-linejoin:round;paint-order:stroke markers fill"
         d="m 607.9603,928.19988 v -5.82566 l 3.72221,-0.61524 c 2.04721,-0.33838 15.89381,-0.62016 30.77023,-0.62617 l 27.04803,-0.0109 v 6.45182 6.45183 H 638.73054 607.9603 Z"
         id="path4320"
         transform="scale(0.26458333)" />
      <path
         style="fill:#ffffff;fill-rule:evenodd;stroke:#000000;stroke-width:5.13958;stroke-linecap:round;stroke-linejoin:round;paint-order:stroke markers fill"
         d="m 605.97512,994.57342 v -5.95553 h 30.77024 30.77023 v 5.95553 5.95558 h -30.77023 -30.77024 z"
         id="path4359"
         transform="scale(0.26458333)" />
      <path
         style="fill:#ffffff;fill-rule:evenodd;stroke:#000000;stroke-width:5.13958;stroke-linecap:round;stroke-linejoin:round;paint-order:stroke markers fill"
         d="m 606.96771,963.80319 v -5.95553 h 30.77024 30.77023 v 5.95553 5.95552 h -30.77023 -30.77024 z"
         id="path4437"
         transform="scale(0.26458333)" />
      <path
         style="fill:#ffffff;fill-rule:evenodd;stroke:#000000;stroke-width:5.13958;stroke-linecap:round;stroke-linejoin:round;paint-order:stroke markers fill"
         d="m 607.9603,897.29977 v -5.95553 h 30.77024 30.77023 v 5.95553 5.95553 H 638.73054 607.9603 Z"
         id="path4476"
         transform="scale(0.26458333)" />
      <path
         style="fill:#ffffff;fill-rule:evenodd;stroke:#000000;stroke-width:5.13958;stroke-linecap:round;stroke-linejoin:round;paint-order:stroke markers fill"
         d="m 607.9603,864.54436 v -5.95553 h 30.77024 30.77023 v 5.95553 5.95553 H 638.73054 607.9603 Z"
         id="path4515"
         transform="scale(0.26458333)" />
      <path
         style="fill:#ffffff;fill-rule:evenodd;stroke:#000000;stroke-width:5.13958;stroke-linecap:round;stroke-linejoin:round;paint-order:stroke markers fill"
         d="m 611.68251,833.06318 c -2.62462,-0.3976 -2.72962,-0.64005 -2.72962,-6.3031 v -5.8896 h 31.26653 31.26653 v 6.45182 6.45183 l -28.53691,-0.14873 c -15.69531,-0.0818 -29.76524,-0.33479 -31.26653,-0.56222 z"
         id="path4554"
         transform="scale(0.26458333)" />
      <path
         style="fill:#ffffff;fill-rule:evenodd;stroke:#000000;stroke-width:5.13958;stroke-linecap:round;stroke-linejoin:round;paint-order:stroke markers fill"
         d="m 608.95289,798.17082 v -5.82566 l 3.7222,-0.61524 c 2.04722,-0.33838 16.11716,-0.62016 31.26653,-0.62617 l 27.54433,-0.0109 v 6.45182 6.45183 h -31.26653 -31.26653 z"
         id="path4593"
         transform="scale(0.26458333)" />
      <path
         style="fill:#ffffff;fill-rule:evenodd;stroke:#000000;stroke-width:5.13958;stroke-linecap:round;stroke-linejoin:round;paint-order:stroke markers fill"
         d="m 586.12336,770.33862 v -9.02344 h 43.43309 43.4331 l -0.36064,8.18886 c -0.19836,4.50387 -0.57359,8.41218 -0.83386,8.68514 -0.26027,0.27297 -19.64287,0.64853 -43.07245,0.83459 l -42.59924,0.33828 z"
         id="path4632"
         transform="scale(0.26458333)" />
      <path
         style="fill:#ffffff;fill-rule:evenodd;stroke:#000000;stroke-width:5.13958;stroke-linecap:round;stroke-linejoin:round;paint-order:stroke markers fill"
         d="m 586.44592,1052.6658 c -7.84531,-3.9248 -12.87492,-8.8547 -16.66549,-16.335 l -2.51625,-4.9656 V 898.71244 766.05971 l 3.12576,-5.86453 c 3.75856,-7.05178 8.67482,-11.68977 16.66834,-15.72489 l 5.95659,-3.00687 h 34.33406 34.33407 l 5.27269,2.49438 c 7.01986,3.32092 13.91273,9.53297 17.4811,15.75445 l 2.91194,5.07699 0.009,133.79081 0.009,133.79085 -2.09377,4.1041 c -2.70409,5.3005 -11.23583,13.8122 -16.84021,16.8007 -4.34387,2.3163 -4.77696,2.3451 -39.65187,2.6359 l -35.26004,0.294 -7.07554,-3.5398 z m 84.40195,-28.5629 c 0.61394,-11.4496 5.68597,-243.32158 5.6343,-257.57663 l -0.0333,-9.18144 h -46.58023 -46.58022 l -0.53355,5.21109 c -0.60496,5.90863 -0.89651,17.05709 -3.58864,137.22532 -1.06404,47.49535 -2.23471,97.1868 -2.60148,110.42546 l -0.66685,24.0703 h 47.2022 47.20221 z"
         id="path4671"
         transform="scale(0.26458333)" />
      <path
         style="fill:#ffffff;fill-rule:evenodd;stroke:#000000;stroke-width:5.13958;stroke-linecap:round;stroke-linejoin:round;paint-order:stroke markers fill"
         d="m 610.16633,735.9479 c -2.07751,-1.45515 -2.20603,-2.26057 -2.20603,-13.82534 0,-16.6138 0.32328,-16.89945 18.36938,-16.23144 13.99574,0.51809 13.88974,0.39864 13.88974,15.65177 0,16.09514 0.14373,15.95018 -15.8144,15.95018 -9.28402,0 -12.53658,-0.35297 -14.23869,-1.54517 z"
         id="path4710"
         transform="scale(0.26458333)" />
    </g>
  </g>
  <g
     inkscape:groupmode="layer"
     id="layer2"
     inkscape:label="Layer 2" />
</svg>
