<?xml version="1.0" encoding="UTF-8" standalone="no"?>
<svg
   width="210mm"
   height="297mm"
   viewBox="0 0 210 297"
   version="1.1"
   id="svg8"
   inkscape:version="1.1.2 (0a00cf5339, 2022-02-04, custom)"
   sodipodi:docname="table icon.svg.2022_03_03_13_22_41.0.svg"
   inkscape:export-filename="C:\Users\steven\Desktop\formating icons\table icon.png"
   inkscape:export-xdpi="96"
   inkscape:export-ydpi="96"
   xmlns:inkscape="http://www.inkscape.org/namespaces/inkscape"
   xmlns:sodipodi="http://sodipodi.sourceforge.net/DTD/sodipodi-0.dtd"
   xmlns="http://www.w3.org/2000/svg"
   xmlns:svg="http://www.w3.org/2000/svg"
   xmlns:rdf="http://www.w3.org/1999/02/22-rdf-syntax-ns#"
   xmlns:cc="http://creativecommons.org/ns#"
   xmlns:dc="http://purl.org/dc/elements/1.1/">
  <defs
     id="defs2">
    <inkscape:path-effect
       effect="spiro"
       id="path-effect7641"
       is_visible="true"
       lpeversion="1" />
    <inkscape:path-effect
       effect="spiro"
       id="path-effect7108"
       is_visible="true"
       lpeversion="1" />
    <inkscape:path-effect
       effect="spiro"
       id="path-effect6718"
       is_visible="true"
       lpeversion="1" />
    <inkscape:path-effect
       effect="spiro"
       id="path-effect6521"
       is_visible="true"
       lpeversion="1" />
    <inkscape:path-effect
       effect="spiro"
       id="path-effect6435"
       is_visible="true"
       lpeversion="1" />
    <inkscape:path-effect
       effect="spiro"
       id="path-effect6429"
       is_visible="true"
       lpeversion="1" />
    <inkscape:path-effect
       effect="spiro"
       id="path-effect1953"
       is_visible="true"
       lpeversion="1" />
    <inkscape:path-effect
       effect="spiro"
       id="path-effect1947"
       is_visible="true"
       lpeversion="1" />
    <inkscape:path-effect
       effect="spiro"
       id="path-effect1861"
       is_visible="true"
       lpeversion="1" />
    <inkscape:path-effect
       effect="spiro"
       id="path-effect1855"
       is_visible="true"
       lpeversion="1" />
  </defs>
  <sodipodi:namedview
     id="base"
     pagecolor="#ffffff"
     bordercolor="#666666"
     borderopacity="1.0"
     inkscape:pageopacity="0.0"
     inkscape:pageshadow="2"
     inkscape:zoom="1.0074671"
     inkscape:cx="549.39762"
     inkscape:cy="56.081238"
     inkscape:document-units="mm"
     inkscape:current-layer="layer1"
     inkscape:document-rotation="0"
     showgrid="false"
     inkscape:window-width="1680"
     inkscape:window-height="956"
     inkscape:window-x="-11"
     inkscape:window-y="-11"
     inkscape:window-maximized="1"
     inkscape:pagecheckerboard="0" />
  <metadata
     id="metadata5">
    <rdf:RDF>
      <cc:Work
         rdf:about="">
        <dc:format>image/svg+xml</dc:format>
        <dc:type
           rdf:resource="http://purl.org/dc/dcmitype/StillImage" />
      </cc:Work>
    </rdf:RDF>
  </metadata>
  <g
     inkscape:label="Layer 1"
     inkscape:groupmode="layer"
     id="layer1">
    <g
       id="g7794"
       transform="matrix(0.55899155,0,0,0.54600686,36.426702,58.285667)">
      <path
         id="rect6212"
         style="fill:none;fill-rule:evenodd;stroke:#000000;stroke-width:0.957001;stroke-linecap:round;stroke-linejoin:round;paint-order:stroke markers fill"
         d="m 79.060049,-37.645145 h 9.052677 c 2.173246,0 3.922827,1.74958 3.922827,3.922826 v 9.052678 c 0,2.173246 -1.749581,3.922826 -3.922827,3.922826 h -9.052677 c -2.173246,0 -3.922827,-1.74958 -3.922827,-3.922826 v -9.052678 c 0,-2.173246 1.749581,-3.922826 3.922827,-3.922826 z m -6.31889,16.787782 h 24.989735 c 9.569976,0 17.274316,7.704346 17.274316,17.274317 V 116.74152 c 0,9.56997 -7.70434,17.27432 -17.274316,17.27432 H 72.741159 c -9.569971,0 -17.274316,-7.70435 -17.274316,-17.27432 V -3.583046 c 0,-9.569971 7.704345,-17.274317 17.274316,-17.274317 z M 63.052257,112.67583 104.43201,112.09329 M 64.545777,-0.03886177 106.85158,-0.61727405 M 63.087342,79.470454 96.249515,78.470426 M 63.063641,95.746486 96.273216,95.155814 M 63.066403,63.997612 94.158162,63.404652 M 64.575766,14.790358 85.396924,14.186846 M 64.575766,32.252869 85.396924,31.649357 M 64.575766,49.186213 85.396924,48.582701 M 75.819458,3.828475 H 106.59856 V 11.30041 H 75.819458 Z m 0,14.287494 h 30.779102 v 7.471934 H 75.819458 Z m -0.529167,17.991682 h 30.779099 v 7.471935 H 75.290291 Z m 0,15.875015 h 30.779099 v 7.471935 H 75.290291 Z m 0,14.816681 h 30.779099 v 7.471935 H 75.290291 Z m 0,0 h 30.779099 v 7.471935 H 75.290291 Z m -0.529167,17.462517 h 30.779106 v 7.471935 H 74.761124 Z M 74.231956,99.349663 H 105.01106 V 106.8216 H 74.231956 Z M 65.034966,-10.630616 H 107.89753 M 61.859964,121.60763 h 42.862546 m 3.01758,-132.774228 -3.01758,132.774228 M 64.877521,-11.166598 61.859964,121.60763" />
      <path
         style="color:#000000;fill:#000000;-inkscape-stroke:none"
         d="m 46.333984,-66.910156 c -2.481215,-0.141936 -4.977085,-0.05617 -7.435547,0.257812 -9.828517,1.255246 -19.027745,5.960388 -26.412109,12.525391 -7.3821809,6.563062 -13.01165907,14.916205 -17.1718749,23.84375 -4.1597201,8.926481 -6.8962491,18.436651 -9.0371091,28.0195311 -6.629153,29.6732909 -7.660485,60.5856789 -3.023438,90.6347659 l 0.902344,-0.138672 c -4.619518,-29.93549 -3.592373,-60.735761 3.011719,-90.2968751 2.132764,-9.5466409 4.8550762,-18.9937429 8.9746091,-27.8339839 4.11903726,-8.839178 9.6844275,-17.084489 16.9511719,-23.544922 7.264561,-6.458493 16.307237,-11.072851 25.921875,-12.300782 9.609311,-1.22725 19.784675,1.103941 27.390625,7.060547 6.551198,5.130576 11.023066,12.866219 12.201172,21.103516 l 0.904297,-0.128906 c -1.212599,-8.478472 -5.79801,-16.41257 -12.541016,-21.69336 -5.869455,-4.596668 -13.193073,-7.082006 -20.636719,-7.507812 z"
         id="path6431" />
      <path
         style="color:#000000;fill:#000000;-inkscape-stroke:none"
         d="m 42.560547,-88.853516 c -2.404081,0.04341 -4.805426,0.262465 -7.177735,0.658204 -11.774631,1.964195 -22.551409,8.17581 -31.2031245,16.341796 -8.649049,8.16347 -15.2946625,18.213281 -20.7910155,28.712891 -21.234527,40.5640359 -25.719605,89.565251 -12.203125,133.310547 l 0.943359,-0.291016 c -13.436827,-43.487504 -8.974626,-92.2355553 12.134766,-132.560547 5.464694,-10.439133 12.0553877,-20.394127 20.5937499,-28.453125 8.5356961,-8.056481 19.1500611,-14.161309 30.6875001,-16.085937 9.295123,-1.550574 19.052538,-0.320245 27.642578,3.548828 8.589727,3.868931 15.98836,10.375691 20.861328,18.435547 4.994934,8.261587 7.30814,18.127097 6.507813,27.748047 l 0.984375,0.08203 C 92.358992,-47.23936 89.99766,-57.302325 84.892578,-65.746095 79.912492,-73.983123 72.367899,-80.622222 63.59375,-84.57422 57.013373,-87.538112 49.772788,-88.983747 42.560547,-88.853516 Z"
         id="path7106" />
      <rect
         style="fill:none;fill-rule:evenodd;stroke:#000000;stroke-width:1.065;stroke-linecap:round;stroke-linejoin:round;stroke-miterlimit:4;stroke-dasharray:none;paint-order:stroke markers fill"
         id="rect7524"
         width="16.403166"
         height="21.164722"
         x="-28.3431"
         y="87.787148"
         ry="3.9228182" />
      <path
         style="color:#000000;fill:#000000;-inkscape-stroke:none"
         d="m -27.847656,106.07617 -0.990235,0.31836 6.060547,18.96875 10.589844,0.94531 0.767578,-20.05273 -1.039062,-0.041 -0.72461,18.96094 -8.814453,-0.78711 z"
         id="path7676" />
    </g>
    <g
       id="g7806"
       transform="matrix(0.55899155,0,0,0.54600686,138.68499,59.574637)">
      <path
         id="path7796"
         style="fill:none;fill-rule:evenodd;stroke:#000000;stroke-width:0.957001;stroke-linecap:round;stroke-linejoin:round;paint-order:stroke markers fill"
         d="m 79.060049,-37.645145 h 9.052677 c 2.173246,0 3.922827,1.74958 3.922827,3.922826 v 9.052678 c 0,2.173246 -1.749581,3.922826 -3.922827,3.922826 h -9.052677 c -2.173246,0 -3.922827,-1.74958 -3.922827,-3.922826 v -9.052678 c 0,-2.173246 1.749581,-3.922826 3.922827,-3.922826 z m -6.31889,16.787782 h 24.989735 c 9.569976,0 17.274316,7.704346 17.274316,17.274317 V 116.74152 c 0,9.56997 -7.70434,17.27432 -17.274316,17.27432 H 72.741159 c -9.569971,0 -17.274316,-7.70435 -17.274316,-17.27432 V -3.583046 c 0,-9.569971 7.704345,-17.274317 17.274316,-17.274317 z M 63.052257,112.67583 104.43201,112.09329 M 64.545777,-0.03886177 106.85158,-0.61727405 M 63.087342,79.470454 96.249515,78.470426 M 63.063641,95.746486 96.273216,95.155814 M 63.066403,63.997612 94.158162,63.404652 M 64.575766,14.790358 85.396924,14.186846 M 64.575766,32.252869 85.396924,31.649357 M 64.575766,49.186213 85.396924,48.582701 M 75.819458,3.828475 H 106.59856 V 11.30041 H 75.819458 Z m 0,14.287494 h 30.779102 v 7.471934 H 75.819458 Z m -0.529167,17.991682 h 30.779099 v 7.471935 H 75.290291 Z m 0,15.875015 h 30.779099 v 7.471935 H 75.290291 Z m 0,14.816681 h 30.779099 v 7.471935 H 75.290291 Z m 0,0 h 30.779099 v 7.471935 H 75.290291 Z m -0.529167,17.462517 h 30.779106 v 7.471935 H 74.761124 Z M 74.231956,99.349663 H 105.01106 V 106.8216 H 74.231956 Z M 65.034966,-10.630616 H 107.89753 M 61.859964,121.60763 h 42.862546 m 3.01758,-132.774228 -3.01758,132.774228 M 64.877521,-11.166598 61.859964,121.60763" />
      <path
         style="color:#000000;fill:#000000;-inkscape-stroke:none"
         d="m 46.333984,-66.910156 c -2.481215,-0.141936 -4.977085,-0.05617 -7.435547,0.257812 -9.828517,1.255246 -19.027745,5.960388 -26.412109,12.525391 -7.3821809,6.563062 -13.01165907,14.916205 -17.1718749,23.84375 -4.1597201,8.926481 -6.8962491,18.436651 -9.0371091,28.0195311 -6.629153,29.6732909 -7.660485,60.5856789 -3.023438,90.6347659 l 0.902344,-0.138672 c -4.619518,-29.93549 -3.592373,-60.735761 3.011719,-90.2968751 2.132764,-9.5466409 4.8550762,-18.9937429 8.9746091,-27.8339839 4.11903726,-8.839178 9.6844275,-17.084489 16.9511719,-23.544922 7.264561,-6.458493 16.307237,-11.072851 25.921875,-12.300782 9.609311,-1.22725 19.784675,1.103941 27.390625,7.060547 6.551198,5.130576 11.023066,12.866219 12.201172,21.103516 l 0.904297,-0.128906 c -1.212599,-8.478472 -5.79801,-16.41257 -12.541016,-21.69336 -5.869455,-4.596668 -13.193073,-7.082006 -20.636719,-7.507812 z"
         id="path7798" />
      <path
         style="color:#000000;fill:#000000;-inkscape-stroke:none"
         d="m 42.560547,-88.853516 c -2.404081,0.04341 -4.805426,0.262465 -7.177735,0.658204 -11.774631,1.964195 -22.551409,8.17581 -31.2031245,16.341796 -8.649049,8.16347 -15.2946625,18.213281 -20.7910155,28.712891 -21.234527,40.5640359 -25.719605,89.565251 -12.203125,133.310547 l 0.943359,-0.291016 c -13.436827,-43.487504 -8.974626,-92.2355553 12.134766,-132.560547 5.464694,-10.439133 12.0553877,-20.394127 20.5937499,-28.453125 8.5356961,-8.056481 19.1500611,-14.161309 30.6875001,-16.085937 9.295123,-1.550574 19.052538,-0.320245 27.642578,3.548828 8.589727,3.868931 15.98836,10.375691 20.861328,18.435547 4.994934,8.261587 7.30814,18.127097 6.507813,27.748047 l 0.984375,0.08203 C 92.358992,-47.23936 89.99766,-57.302325 84.892578,-65.746095 79.912492,-73.983123 72.367899,-80.622222 63.59375,-84.57422 57.013373,-87.538112 49.772788,-88.983747 42.560547,-88.853516 Z"
         id="path7800" />
      <rect
         style="fill:none;fill-rule:evenodd;stroke:#000000;stroke-width:1.065;stroke-linecap:round;stroke-linejoin:round;stroke-miterlimit:4;stroke-dasharray:none;paint-order:stroke markers fill"
         id="rect7802"
         width="16.403166"
         height="21.164722"
         x="-28.3431"
         y="87.787148"
         ry="3.9228182" />
      <path
         style="color:#000000;fill:#000000;-inkscape-stroke:none"
         d="m -27.847656,106.07617 -0.990235,0.31836 6.060547,18.96875 10.589844,0.94531 0.767578,-20.05273 -1.039062,-0.041 -0.72461,18.96094 -8.814453,-0.78711 z"
         id="path7804" />
    </g>
  </g>
  <g
     inkscape:groupmode="layer"
     id="layer2"
     inkscape:label="Layer 2" />
</svg>
