<?xml version="1.0" encoding="UTF-8" standalone="no"?>
<!-- Created with Inkscape (http://www.inkscape.org/) -->

<svg
   width="210mm"
   height="297mm"
   viewBox="0 0 210 297"
   version="1.1"
   id="svg5"
   inkscape:version="1.1.2 (0a00cf5339, 2022-02-04, custom)"
   sodipodi:docname="midi track icon.svg"
   xmlns:inkscape="http://www.inkscape.org/namespaces/inkscape"
   xmlns:sodipodi="http://sodipodi.sourceforge.net/DTD/sodipodi-0.dtd"
   xmlns="http://www.w3.org/2000/svg"
   xmlns:svg="http://www.w3.org/2000/svg">
  <sodipodi:namedview
     id="namedview7"
     pagecolor="#ffffff"
     bordercolor="#666666"
     borderopacity="1.0"
     inkscape:pageshadow="2"
     inkscape:pageopacity="0.0"
     inkscape:pagecheckerboard="0"
     inkscape:document-units="mm"
     showgrid="false"
     inkscape:zoom="0.62270623"
     inkscape:cx="123.65381"
     inkscape:cy="533.95965"
     inkscape:window-width="1680"
     inkscape:window-height="956"
     inkscape:window-x="-11"
     inkscape:window-y="-11"
     inkscape:window-maximized="1"
     inkscape:current-layer="layer1" />
  <defs
     id="defs2" />
  <g
     inkscape:label="Layer 1"
     inkscape:groupmode="layer"
     id="layer1">
    <path
       id="rect3558"
       style="fill:none;fill-rule:evenodd;stroke:#000000;stroke-width:1.67859;stroke-linecap:round;stroke-linejoin:round;paint-order:stroke markers fill"
       d="m 34.639292,2.737526 h 7.01072 c 3.50107,0 6.31962,1.55179 6.31962,3.479349 v 13.917391 c 0,1.927558 -2.81855,3.479349 -6.31962,3.479349 h -7.01072 c -3.501066,0 -6.319612,-1.551791 -6.319612,-3.479349 V 6.216875 c 0,-1.927559 2.818546,-3.479349 6.319612,-3.479349 z m 32.84576,43.305219 A 30.51938,22.71699 0 0 1 36.965672,68.759727 30.51938,22.71699 0 0 1 6.4462871,46.042745 30.51938,22.71699 0 0 1 36.965672,23.325756 30.51938,22.71699 0 0 1 67.485052,46.042745 Z m -19.02496,1.158217 a 1.6089119,1.4257138 0 0 1 -1.60891,1.425713 1.6089119,1.4257138 0 0 1 -1.60891,-1.425713 1.6089119,1.4257138 0 0 1 1.60891,-1.425716 1.6089119,1.4257138 0 0 1 1.60891,1.425716 z m -5.8291,0 a 1.6089119,1.4257138 0 0 1 -1.60891,1.425713 1.6089119,1.4257138 0 0 1 -1.60891,-1.425713 1.6089119,1.4257138 0 0 1 1.60891,-1.425716 1.6089119,1.4257138 0 0 1 1.60891,1.425716 z m -6.19344,-0.332922 a 1.6089119,1.4257138 0 0 1 -1.60891,1.425713 1.6089119,1.4257138 0 0 1 -1.60891,-1.425713 1.6089119,1.4257138 0 0 1 1.60891,-1.425716 1.6089119,1.4257138 0 0 1 1.60891,1.425716 z m -5.10048,-0.110972 a 1.6089119,1.4257138 0 0 1 -1.608909,1.425712 1.6089119,1.4257138 0 0 1 -1.608911,-1.425712 1.6089119,1.4257138 0 0 1 1.608911,-1.425716 1.6089119,1.4257138 0 0 1 1.608909,1.425716 z m -6.193441,0 a 1.6089119,1.4257138 0 0 1 -1.60891,1.425712 1.6089119,1.4257138 0 0 1 -1.608916,-1.425712 1.6089119,1.4257138 0 0 1 1.608916,-1.425716 1.6089119,1.4257138 0 0 1 1.60891,1.425716 z m 10.033171,-8.295607 a 19.756506,13.508317 0 0 0 -19.756539,13.508365 19.756506,13.508317 0 0 0 10.163989,11.802531 9.3911729,10.325062 0 0 1 9.16579,-8.114983 9.3911729,10.325062 0 0 1 9.22567,8.400813 19.756506,13.508317 0 0 0 10.95763,-12.088361 19.756506,13.508317 0 0 0 -19.75654,-13.508365 z m 29.2988,12.125069 A 28.426934,17.814536 0 0 1 36.048672,68.401067 28.426934,17.814536 0 0 1 7.6217361,50.58653 28.426934,17.814536 0 0 1 36.048672,32.771993 28.426934,17.814536 0 0 1 64.475602,50.58653 Z" />
  </g>
</svg>
