<?xml version="1.0" encoding="UTF-8" standalone="no"?>
<!-- Created with Inkscape (http://www.inkscape.org/) -->

<svg
   width="210mm"
   height="297mm"
   viewBox="0 0 210 297"
   version="1.1"
   id="svg5"
   inkscape:version="1.1.2 (0a00cf5339, 2022-02-04, custom)"
   sodipodi:docname="midi track.svg"
   xmlns:inkscape="http://www.inkscape.org/namespaces/inkscape"
   xmlns:sodipodi="http://sodipodi.sourceforge.net/DTD/sodipodi-0.dtd"
   xmlns="http://www.w3.org/2000/svg"
   xmlns:svg="http://www.w3.org/2000/svg">
  <sodipodi:namedview
     id="namedview7"
     pagecolor="#ffffff"
     bordercolor="#666666"
     borderopacity="1.0"
     inkscape:pageshadow="2"
     inkscape:pageopacity="0.0"
     inkscape:pagecheckerboard="0"
     inkscape:document-units="mm"
     showgrid="false"
     inkscape:zoom="0.62270623"
     inkscape:cx="110.80666"
     inkscape:cy="533.95965"
     inkscape:window-width="1680"
     inkscape:window-height="956"
     inkscape:window-x="-11"
     inkscape:window-y="-11"
     inkscape:window-maximized="1"
     inkscape:current-layer="layer1" />
  <defs
     id="defs2" />
  <g
     inkscape:label="Layer 1"
     inkscape:groupmode="layer"
     id="layer1">
    <path
       id="path2114"
       style="color:#000000;fill:#000000;stroke-width:0.372504;-inkscape-stroke:none"
       d="m 34.281517,35.414981 c -2.15252,-0.03544 -4.197563,0.318066 -4.197563,0.318066 l 0.107521,0.372464 c 0,0 2.003392,-0.343279 4.079282,-0.309107 1.03795,0.0171 2.09052,0.131079 2.90149,0.414065 0.81097,0.282982 1.37446,0.712446 1.53924,1.413697 0.70329,2.992958 -0.69973,6.626911 -0.69973,6.626911 l 0.47228,0.110715 c 0,0 1.44913,-3.673267 0.71296,-6.806105 -0.19508,-0.830197 -0.91248,-1.375953 -1.82211,-1.693363 -0.90963,-0.317413 -2.01711,-0.429626 -3.09337,-0.447343 z m -27.2481606,0 c -1.07626,0.01773 -2.18374,0.12993 -3.093374,0.447343 -0.909634,0.31741 -1.62703,0.863166 -1.822112,1.693363 -0.736165,3.132838 0.712137,6.806105 0.712137,6.806105 l 0.472277,-0.110715 c 0,0 -1.403027,-3.633953 -0.699731,-6.626911 0.164782,-0.701251 0.7291,-1.130715 1.54007,-1.413697 0.810971,-0.282986 1.863539,-0.396977 2.901485,-0.414065 2.075894,-0.03417 4.0792836,0.309107 4.0792836,0.309107 l 0.106696,-0.372464 c 0,0 -2.0442116,-0.353503 -4.1967316,-0.318066 z M 19.98996,3.3127012 c -3.379053,0 -6.109827,2.112932 -6.109827,4.727474 V 18.760348 c 0,2.614541 2.730774,4.728114 6.109827,4.728114 3.379057,0 6.110655,-2.113573 6.110655,-4.728114 V 8.0401752 c 0,-2.614542 -2.731598,-4.727474 -6.110655,-4.727474 z m 0,0.545256 c 3.000633,0 5.405962,1.860481 5.405962,4.182218 V 18.760348 c 0,2.321736 -2.405329,4.182857 -5.405962,4.182857 -3.000633,0 -5.405133,-1.861121 -5.405133,-4.182857 V 8.0401752 c 0,-2.321737 2.4045,-4.182218 5.405133,-4.182218 z m 0.183616,18.8407788 c -5.372707,0 -9.709387,3.354865 -9.709387,7.511993 v 8.353556 c 0,4.157128 4.33668,7.512631 9.709387,7.512631 5.37271,0 9.709391,-3.355503 9.709391,-7.512631 v -8.353556 c 0,-4.157128 -4.336681,-7.511993 -9.709391,-7.511993 z m 0,0.545256 c 4.994286,0 9.003868,3.102414 9.003868,6.966737 v 8.353556 c 0,3.864322 -4.009582,6.966737 -9.003868,6.966737 -4.994283,0 -9.003866,-3.102415 -9.003866,-6.966737 v -8.353556 c 0,-3.864323 4.009583,-6.966737 9.003866,-6.966737 z m 1.11652,13.631605 c -6.1666,0.07853 -10.572133,1.707348 -13.4652706,3.401754 -3.306444,1.936461 -4.716981,3.979772 -4.716981,3.979772 l 0.727852,0.08431 c 0,0 1.387484,-2.000144 4.608631,-3.886653 3.2211466,-1.886506 8.1974216,-3.638204 15.4891986,-3.207045 7.328772,0.433345 10.824521,2.236722 12.552151,3.949296 1.72762,1.712571 1.6294,3.318789 1.6294,3.318789 l 0.75597,0.0081 c 0,0 0.10873,-1.665532 -1.68647,-3.445094 -1.7952,-1.779562 -5.552092,-3.68869 -13.14353,-4.137566 -0.953554,-0.05639 -1.870006,-0.07691 -2.750951,-0.06569 z m 16.958141,7.430964 v 21.510003 h 0.7477 V 44.306561 Z m -35.1817486,0 v 21.510003 h 0.746876 V 44.306561 Z M 21.163549,59.306639 c -10.238436,0 -18.5106126,3.699379 -18.5106126,8.240937 0,4.541558 8.2721766,8.240934 18.5106126,8.240934 10.238437,0 18.509788,-3.699376 18.509788,-8.240934 0,-4.541558 -8.271351,-8.240937 -18.509788,-8.240937 z m 0,0.349455 c 9.735731,0 17.656218,3.523292 17.656218,7.891482 0,4.36819 -7.920487,7.891481 -17.656218,7.891481 -9.735727,0 -17.6570406,-3.523291 -17.6570406,-7.891481 0,-4.36819 7.9213136,-7.891482 17.6570406,-7.891482 z m 8.188343,6.360592 c -1.199031,0 -2.136412,0.435834 -2.136412,0.948467 0,0.51263 0.937381,0.948131 2.136412,0.948131 1.199031,0 2.136412,-0.435501 2.136412,-0.948131 0,-0.512633 -0.937381,-0.948467 -2.136412,-0.948467 z m 0,0.349452 c 0.689075,0 1.282841,0.257286 1.282841,0.599015 0,0.341726 -0.593766,0.598675 -1.282841,0.598675 -0.689075,0 -1.282842,-0.256949 -1.282842,-0.598675 0,-0.341729 0.593767,-0.599015 1.282842,-0.599015 z m -3.361356,-2.184082 c -1.199031,0 -2.136412,0.435497 -2.136412,0.948127 0,0.512633 0.937381,0.94813 2.136412,0.94813 1.199031,0 2.136412,-0.435497 2.136412,-0.94813 0,-0.51263 -0.937381,-0.948127 -2.136412,-0.948127 z m 0,0.349452 c 0.689075,0 1.282842,0.256949 1.282842,0.598675 0,0.341729 -0.593767,0.598678 -1.282842,0.598678 -0.689075,0 -1.282012,-0.256949 -1.282012,-0.598678 0,-0.341726 0.592937,-0.598675 1.282012,-0.598675 z m -6.050275,-0.349452 c -1.199031,0 -2.136413,0.435497 -2.136413,0.948127 0,0.512633 0.937382,0.94813 2.136413,0.94813 1.199031,0 2.136412,-0.435497 2.136412,-0.94813 0,-0.51263 -0.937381,-0.948127 -2.136412,-0.948127 z m 0,0.349452 c 0.689074,0 1.282011,0.256949 1.282011,0.598675 0,0.341729 -0.592937,0.598678 -1.282011,0.598678 -0.689075,0 -1.282842,-0.256949 -1.282842,-0.598678 0,-0.341726 0.593767,-0.598675 1.282842,-0.598675 z m -3.809646,1.026688 c -1.199031,0 -2.136414,0.435501 -2.13641,0.94813 0,0.512633 0.937379,0.948131 2.13641,0.948131 1.199031,0 2.136412,-0.435498 2.136412,-0.948131 0,-0.512629 -0.937381,-0.94813 -2.136412,-0.94813 z m 0,0.349456 c 0.689071,0 1.282838,0.256948 1.282838,0.598674 0,0.341729 -0.593767,0.598675 -1.282838,0.598675 -0.689074,0 -1.282841,-0.256946 -1.282841,-0.598675 0,-0.341726 0.593767,-0.598674 1.282841,-0.598674 z m -2.688917,1.944001 c -1.199032,0 -2.136414,0.435497 -2.136414,0.94813 0,0.51263 0.937382,0.948468 2.136414,0.948468 1.199031,0 2.13641,-0.435838 2.13641,-0.948468 0,-0.512633 -0.937379,-0.94813 -2.13641,-0.94813 z m 0,0.349452 c 0.689075,0 1.282009,0.256949 1.282009,0.598678 0,0.341726 -0.592934,0.598675 -1.282009,0.598675 -0.689075,0 -1.282841,-0.256949 -1.282841,-0.598675 0,-0.341729 0.593766,-0.598678 1.282841,-0.598678 z m 9.070861,-5.579737 c -8.195028,0 -14.8217246,2.889428 -14.8217246,6.436442 0,3.547011 6.6266966,6.436105 14.8217246,6.436105 8.19503,0 14.821728,-2.889094 14.821728,-6.436105 0,-3.547014 -6.626698,-6.436442 -14.821728,-6.436442 z m 0,0.349455 c 7.704803,0 13.968148,2.717758 13.968148,6.086987 0,3.369229 -6.263345,6.08665 -13.968148,6.08665 -7.704804,0 -13.9673256,-2.717421 -13.9673256,-6.08665 0,-3.369229 6.2625216,-6.086987 13.9673256,-6.086987 z" />
  </g>
</svg>
