<?xml version="1.0" encoding="UTF-8" standalone="no"?>
<!-- Created with Inkscape (http://www.inkscape.org/) -->

<svg
   width="210mm"
   height="297mm"
   viewBox="0 0 210 297"
   version="1.1"
   id="svg5"
   inkscape:version="1.1.1 (3bf5ae0d25, 2021-09-20)"
   sodipodi:docname="omni directional mic track icon svg.svg"
   xmlns:inkscape="http://www.inkscape.org/namespaces/inkscape"
   xmlns:sodipodi="http://sodipodi.sourceforge.net/DTD/sodipodi-0.dtd"
   xmlns="http://www.w3.org/2000/svg"
   xmlns:svg="http://www.w3.org/2000/svg">
  <sodipodi:namedview
     id="namedview7"
     pagecolor="#ffffff"
     bordercolor="#666666"
     borderopacity="1.0"
     inkscape:pageshadow="2"
     inkscape:pageopacity="0.0"
     inkscape:pagecheckerboard="0"
     inkscape:document-units="mm"
     showgrid="false"
     inkscape:zoom="1.5219183"
     inkscape:cx="318.0197"
     inkscape:cy="407.70914"
     inkscape:window-width="1680"
     inkscape:window-height="956"
     inkscape:window-x="-11"
     inkscape:window-y="-11"
     inkscape:window-maximized="1"
     inkscape:current-layer="layer1" />
  <defs
     id="defs2">
    <inkscape:path-effect
       effect="spiro"
       id="path-effect4644"
       is_visible="true"
       lpeversion="1" />
    <inkscape:path-effect
       effect="spiro"
       id="path-effect4640"
       is_visible="true"
       lpeversion="1" />
    <inkscape:path-effect
       effect="spiro"
       id="path-effect4628"
       is_visible="true"
       lpeversion="1" />
    <inkscape:path-effect
       effect="spiro"
       id="path-effect4511"
       is_visible="true"
       lpeversion="1" />
    <inkscape:path-effect
       effect="spiro"
       id="path-effect4076"
       is_visible="true"
       lpeversion="1" />
    <inkscape:path-effect
       effect="spiro"
       id="path-effect4035"
       is_visible="true"
       lpeversion="1" />
    <inkscape:path-effect
       effect="spiro"
       id="path-effect3949"
       is_visible="true"
       lpeversion="1" />
    <inkscape:path-effect
       effect="spiro"
       id="path-effect3943"
       is_visible="true"
       lpeversion="1" />
    <inkscape:path-effect
       effect="spiro"
       id="path-effect2826"
       is_visible="true"
       lpeversion="1" />
    <inkscape:path-effect
       effect="spiro"
       id="path-effect2820"
       is_visible="true"
       lpeversion="1" />
    <inkscape:path-effect
       effect="spiro"
       id="path-effect2415"
       is_visible="true"
       lpeversion="1" />
    <inkscape:path-effect
       effect="spiro"
       id="path-effect2263"
       is_visible="true"
       lpeversion="1" />
    <inkscape:path-effect
       effect="spiro"
       id="path-effect1863"
       is_visible="true"
       lpeversion="1" />
    <inkscape:path-effect
       effect="spiro"
       id="path-effect1613"
       is_visible="true"
       lpeversion="1" />
    <inkscape:path-effect
       effect="spiro"
       id="path-effect1459"
       is_visible="true"
       lpeversion="1" />
    <inkscape:path-effect
       effect="spiro"
       id="path-effect1455"
       is_visible="true"
       lpeversion="1" />
    <inkscape:path-effect
       effect="spiro"
       id="path-effect2916"
       is_visible="true"
       lpeversion="1" />
    <inkscape:path-effect
       effect="spiro"
       id="path-effect2912"
       is_visible="true"
       lpeversion="1" />
    <inkscape:path-effect
       effect="spiro"
       id="path-effect2908"
       is_visible="true"
       lpeversion="1" />
    <inkscape:path-effect
       effect="spiro"
       id="path-effect2904"
       is_visible="true"
       lpeversion="1" />
    <inkscape:path-effect
       effect="spiro"
       id="path-effect1001"
       is_visible="true"
       lpeversion="1" />
    <inkscape:path-effect
       effect="spiro"
       id="path-effect997"
       is_visible="true"
       lpeversion="1" />
    <inkscape:path-effect
       effect="spiro"
       id="path-effect993"
       is_visible="true"
       lpeversion="1" />
    <inkscape:path-effect
       effect="spiro"
       id="path-effect989"
       is_visible="true"
       lpeversion="1" />
    <inkscape:path-effect
       effect="spiro"
       id="path-effect2356"
       is_visible="true"
       lpeversion="1" />
    <inkscape:path-effect
       effect="spiro"
       id="path-effect2352"
       is_visible="true"
       lpeversion="1" />
    <inkscape:path-effect
       effect="spiro"
       id="path-effect2348"
       is_visible="true"
       lpeversion="1" />
    <inkscape:path-effect
       effect="spiro"
       id="path-effect2344"
       is_visible="true"
       lpeversion="1" />
    <inkscape:path-effect
       effect="spiro"
       id="path-effect1589"
       is_visible="true"
       lpeversion="1" />
    <inkscape:path-effect
       effect="spiro"
       id="path-effect1585"
       is_visible="true"
       lpeversion="1" />
    <inkscape:path-effect
       effect="spiro"
       id="path-effect1581"
       is_visible="true"
       lpeversion="1" />
    <inkscape:path-effect
       effect="spiro"
       id="path-effect1577"
       is_visible="true"
       lpeversion="1" />
    <inkscape:path-effect
       effect="spiro"
       id="path-effect1410"
       is_visible="true"
       lpeversion="1" />
    <inkscape:path-effect
       effect="spiro"
       id="path-effect1404"
       is_visible="true"
       lpeversion="1" />
    <inkscape:path-effect
       effect="spiro"
       id="path-effect1318"
       is_visible="true"
       lpeversion="1" />
    <inkscape:path-effect
       effect="spiro"
       id="path-effect1312"
       is_visible="true"
       lpeversion="1" />
    <clipPath
       clipPathUnits="userSpaceOnUse"
       id="clipPath1191">
      <path
         id="path1193"
         style="fill:none;stroke:#000000;stroke-width:1.41875;stroke-linecap:round;stroke-linejoin:round;stroke-opacity:0.955017;paint-order:stroke markers fill"
         d="m 93.174498,158.25273 c -0.02479,0.40278 -0.103537,0.79477 -0.275012,1.16063 -0.113323,0.24179 -0.270908,0.44845 -0.449213,0.62956 -0.01194,0.0438 -0.01879,0.071 -0.03224,0.1212 v 42.77858 h 12.484647 v -44.68997 z" />
    </clipPath>
    <clipPath
       clipPathUnits="userSpaceOnUse"
       id="clipPath1269">
      <path
         id="path1271"
         style="fill:none;stroke:#000000;stroke-width:1.41875;stroke-linecap:round;stroke-linejoin:round;stroke-opacity:0.955017;paint-order:stroke markers fill"
         d="M 60.223626,9.3823553 V 217.41741 H 150.66124 V 9.3823553 Z M 109.94827,138.65573 h 7e-4 c 3.67312,0.17707 2.927,2.08824 3.01417,4.65853 0.0158,0.46685 0.0107,0.94698 0.12208,1.39378 0.0255,0.10247 0.0597,0.20083 0.0974,0.2971 0.0229,-0.33253 0.0459,-0.66512 0.0652,-0.99735 0.002,-0.10921 0.005,-0.21824 0.008,-0.32741 0.01,-0.35165 -0.23693,-0.98559 0.0446,-1.05374 0.28543,-0.0692 0.5738,-0.0956 0.86345,-0.0951 0.86896,8.6e-4 1.75205,0.24333 2.62394,0.29289 -0.004,0.14743 -0.009,0.29456 -0.0144,0.44187 0.0904,0.066 0.0154,0.28315 -0.0192,0.46375 -0.006,0.12479 -0.012,0.24977 -0.0185,0.37454 -0.011,0.86566 -0.0137,1.73174 -0.0124,2.59733 0.78601,0.0368 1.48541,0.43884 1.659,1.05206 0.0666,0.016 0.13294,0.0321 0.19957,0.048 0.0558,-0.17153 0.15238,-0.35679 0.26884,-0.53361 -0.1057,-0.76931 0.21698,-0.87105 0.65565,-0.70699 0.20289,-0.13783 0.37763,-0.16675 0.45126,-0.008 0.64977,0.0641 1.29235,-0.11558 1.94293,-0.12877 0.32563,0.14197 0.72205,0.13993 0.97661,0.42672 0.33483,0.37721 0.43347,0.74019 0.4499,1.12276 0.21517,0.0484 0.40157,0.1513 0.56991,0.28868 0.21763,-0.37299 0.51366,-0.56164 0.81064,-0.56306 0.27858,-0.19795 0.54042,-0.35234 0.91145,-0.44608 0.21671,-0.0547 0.43988,-0.14894 0.65908,-0.1456 0.0506,8.6e-4 0.10091,0.007 0.15088,0.0202 0.40489,0.1042 0.75444,0.4167 1.1316,0.62534 0.13102,0.26563 0.29114,0.5128 0.39297,0.79705 0.14967,0.41778 0.32628,1.85707 0.35594,2.31538 0.0269,0.41439 0.19447,0.88726 0.024,1.24648 -0.26415,0.55667 -0.80385,0.82949 -1.20567,1.24396 -0.28645,-0.0107 -0.5725,-0.0274 -0.85865,-0.0446 -0.33437,2.1212 -2.11309,2.02368 -2.26046,-0.005 -0.26315,-0.17944 -0.37458,-0.45822 -0.42109,-0.77769 -0.15555,-0.0757 -0.30783,-0.18407 -0.44235,-0.36696 -0.0613,0.10377 -0.13933,0.19286 -0.22701,0.27437 0.34222,0.45183 0.27064,0.94174 0.1015,1.97284 -0.0352,0.21481 -0.18887,0.372 -0.28324,0.55801 -0.016,0.0125 -0.0332,0.0274 -0.0507,0.0438 -0.0803,0.14391 -0.19103,0.30431 -0.26198,0.37958 -0.14057,0.14915 -0.30191,0.26874 -0.47185,0.36696 0.0445,0.0391 0.081,0.0865 0.12002,0.1313 h 2.61023 c 0.31037,0.18541 0.94247,0.13297 0.93065,0.55633 -0.008,0.2932 -0.0639,0.57992 -0.15156,0.8568 0.38021,0.10377 0.45494,0.48966 0.15294,1.73633 0.15072,0.84015 0.0538,1.04497 -0.29216,1.08573 -10e-4,0.005 -0.003,0.008 -0.004,0.0126 -0.0546,0.18911 -0.27622,0.0902 -0.47253,0.0345 -0.97018,0.36655 -3.18424,0.42412 -1.72964,1.04954 1.34348,0.57763 0.65729,0.24935 0.1166,0.33414 -1.0637,0.0315 -2.12403,-0.0199 -3.18632,-0.0968 -0.22069,-0.6845 0.51318,1.47313 -1.05479,0.0842 -1.66574,-1.47557 -1.2444,-2.0761 -0.14677,-2.96429 -0.0524,-0.20574 -0.0778,-0.4368 -0.0816,-0.66659 -0.31187,-0.59981 -0.13193,-1.37851 0.53906,-1.77167 -0.59593,-0.39683 -0.86764,-0.91652 -0.88128,-1.38873 -0.0766,-0.0276 -0.10663,-0.0375 -0.1982,-0.0707 -0.13382,2.1e-4 -0.26985,-0.0304 -0.40121,8.6e-4 -0.0248,0.006 0.0249,0.0649 0.011,0.0909 -0.0234,0.0441 -0.0667,0.071 -0.10699,0.0892 -0.17441,0.079 -0.34721,0.19027 -0.53289,0.20199 -0.23533,0.015 -0.43176,0.005 -0.61449,-0.0185 -0.67417,2.7366 -3.31687,2.27677 -3.32896,-1.40976 -1.4e-4,-0.038 6e-5,-0.0523 0,-0.0749 -0.45449,0.68695 -0.91035,0.91685 -1.26534,-0.24155 -0.22175,0.71259 -0.49728,1.40427 -0.72354,2.11507 -0.25203,0.0688 -0.50444,0.27875 -0.75577,0.2062 -0.42909,-0.12386 -0.83695,-0.34551 -1.22831,-0.60262 -0.11222,0.0354 -0.23054,0.0678 -0.36142,0.0968 -0.59064,0.13082 -1.13163,-0.54373 -1.61236,-0.98473 -0.24752,-0.22702 -0.3419,-0.63148 -0.50271,-0.95527 -0.0734,-0.14772 -0.12453,-0.25083 -0.18654,-0.37538 -0.10982,0.0165 -0.22008,0.0316 -0.33057,0.0446 -0.60259,0.24226 -1.2088,0.46368 -1.83456,0.57148 -0.14878,0.0256 -0.0748,-0.33476 -0.0974,-0.53782 -0.15862,0.48851 -0.35561,0.59316 -0.86687,0.8669 0.002,0.002 0.004,0.002 0.005,0.004 0.2014,0.21261 -0.47319,0.29636 -0.70983,0.44439 -0.2868,0.088 -0.79898,0.25225 -1.19058,0.29037 -0.019,0.0651 -0.10289,0.0415 -0.19066,0.0135 -0.10055,0.18622 -0.43358,-0.0238 -0.6385,-0.0429 -0.009,-8.7e-4 -0.0181,-0.003 -0.0274,-0.003 -0.872869,-0.0176 -1.745514,-0.0379 -2.618457,-0.0421 -0.541998,-0.003 -1.086935,-0.0411 -1.626078,0.0269 -0.09368,0.0119 -0.183807,0.0496 -0.275701,0.0749 -0.213647,0.0366 -0.425844,0.12391 -0.64124,0.10942 -0.306815,-0.0207 -0.571434,-0.1509 -0.829841,-0.30216 -0.209577,0.2128 -0.519265,0.13485 -1.373011,-0.0219 -0.149881,0.62816 -0.29403,1.08025 -0.439609,1.40977 0.169561,1.19887 0.499362,2.56149 -0.02742,3.68558 -0.113959,0.24315 -0.272418,0.4511 -0.451956,0.63293 -0.01879,0.0687 -0.02335,0.0927 -0.04595,0.17842 -0.0039,0.0199 -0.0064,0.0404 -0.0096,0.0606 0.01485,0.066 0.02827,0.13284 0.01166,0.19526 -0.120806,0.45437 -0.304459,0.87985 -0.456755,1.31971 -0.673064,0.45646 -1.071197,0.46241 -1.751582,0.29794 -0.727189,-0.17579 -1.133812,-0.65349 -1.299627,-1.17494 -0.432701,-0.005 -0.884798,-0.26498 -1.345578,-0.59505 -0.135832,0.0488 -0.272771,0.0759 -0.412177,0.0631 -0.247733,-0.0226 -0.398442,-0.44897 -0.495162,-0.82565 -0.948296,-1.10721 -0.38924,-2.37261 0.743428,-2.28509 -0.216406,-0.28983 -0.40171,-0.50201 -0.457441,-0.41661 -3.44e-4,-0.003 -1.62e-4,-0.006 -7.02e-4,-0.008 -0.06018,-0.33671 -0.20175,-0.64813 -0.220834,-0.9982 0.141633,-0.49881 0.159124,-1.08123 0.425208,-1.49645 0.108759,-0.16972 0.269513,-0.26431 0.443725,-0.33414 -7.03e-4,-0.0708 0.0013,-0.14266 0.0034,-0.21462 -0.481723,-0.13512 -0.957685,-0.30661 -1.42719,-0.51846 -0.442381,0.18437 -0.90058,0.1712 -1.429933,-0.1759 -0.733806,-0.48112 -0.981031,-1.51342 -1.41896,-2.2935 -0.07085,-0.15328 -0.518569,-1.12155 -0.525338,-1.1396 -0.06304,-0.16767 -0.08734,-0.35436 -0.139221,-0.52771 -0.179534,-0.59982 -0.445907,-1.15513 -0.720796,-1.69424 h -7.02e-4 c -0.731554,-1.43473 -0.276742,-2.45817 0.469786,-2.52495 -0.0035,-0.0789 0.0024,-0.15697 0.02332,-0.23398 0.173066,-0.63758 0.487415,-1.27277 0.937515,-1.65553 0.241334,-0.20526 0.583791,0.0751 0.875792,0.11278 0.20542,0.2161 0.424129,0.41465 0.616551,0.64807 0.05084,0.0617 0.07416,0.15057 0.106302,0.22893 0.03986,0.0972 0.0813,0.19353 0.122076,0.29037 0.429019,-0.10955 0.868814,-0.11113 1.309915,-0.0985 0.01371,-0.0161 0.02582,-0.0321 0.04046,-0.0488 0.947113,-1.07736 1.393597,-1.48601 1.670656,-1.49982 0.277058,-0.0138 0.384251,0.36805 0.6529,0.87026 0.761867,1.42428 0.339948,0.51827 0.996494,2.0873 0.148304,-0.3075 0.302964,-0.60978 0.499963,-0.877 0.06032,-0.0807 0.0918,-0.24367 0.181058,-0.24155 0.06819,0.002 0.0052,0.32149 0.03566,0.2466 0.143858,-0.35369 -0.0032,-1.11943 0.318905,-1.11856 1.741859,0.005 2.048593,0.37232 2.078718,0.91909 0.821146,0.0474 1.902006,1.32548 2.30161,1.76747 0.123987,0.13711 0.264826,0.25058 0.380632,0.39809 0.13213,0.16834 0.240007,0.36392 0.360055,0.5454 0.0018,0.008 0.0032,0.0145 0.0048,0.0219 0.06432,0.0356 0.127443,0.0739 0.188601,0.11783 0.03413,0.0101 0.06581,0.0177 0.100815,0.0286 0.04679,-0.0325 0.09904,-0.0544 0.158424,-0.069 0.367488,-0.32519 0.81629,-0.37167 1.279738,-0.3173 0.307409,-0.22487 0.634235,-0.29247 0.993753,-0.28701 0.106508,0.002 0.216017,0.01 0.328505,0.0219 0.09276,0.0101 0.200862,-0.0258 0.277758,0.0387 0.242985,0.20369 0.462742,0.44524 0.682391,0.68679 0.154917,0.021 0.309457,0.036 0.464307,0.0623 0.33127,-0.40773 0.73487,-0.6043 1.13503,-0.56307 0.002,-0.27184 0.004,-0.543 0.008,-0.81472 -0.0793,-1.71588 -0.43514,-1.82629 3.19661,-2.25562 0.14689,-0.0174 0.2941,0.56252 0.406,1.15306 0.007,-1.3e-4 0.0131,-8.6e-4 0.0199,-8.6e-4 0.75734,0.0193 1.39272,0.60001 2.0266,1.18757 0.47729,-0.14907 1.04571,-0.0352 1.59521,0.45786 0.10006,-2.14579 0.27161,-4.28836 0.4012,-6.43358 0.2615,-0.55179 0.26466,-1.68031 0.78389,-1.65637 z m -2.52656,13.99328 c -0.1359,0.0395 -0.27358,0.0723 -0.41149,0.101 0.016,0.10402 0.17226,0.0446 0.41149,-0.101 z m 13.95642,0.16413 c -0.0167,-0.003 -0.11478,0.0903 -0.33948,0.33834 0.0302,-0.0101 0.0602,-0.0207 0.0905,-0.0303 0.0184,-0.006 -0.0277,0.0318 -0.0425,0.0463 -0.01,0.01 -0.02,0.0192 -0.0302,0.0286 0.014,0.0139 0.0277,0.0277 0.0418,0.0421 0.16916,-0.22783 0.30286,-0.42007 0.27982,-0.42503 z m -33.785514,0.7255 c -0.0068,0.0103 -0.01344,0.0201 -0.02263,0.0337 0.0077,3.9e-4 0.01366,-2.1e-4 0.01989,0.002 7.37e-4,-0.0118 0.002,-0.0235 0.0027,-0.0353 z m 3.117048,3.02657 c -0.05714,0.0369 -0.101332,0.0759 -0.165281,0.11195 0.01678,0.0256 0.03396,0.0512 0.05007,0.0774 0.113597,0.18513 0.133096,0.43368 0.199574,0.65059 0.01591,0.15437 0.029,0.29422 0.03772,0.42251 0.194015,-0.002 0.367801,0.005 0.504075,0.0185 0.04522,-0.0118 0.07632,-0.0368 0.07407,-0.0917 -0.0063,-0.15258 -0.253266,0.0274 -0.37377,-0.0109 -0.07177,-0.0229 -0.150558,-0.0799 -0.176943,-0.16497 -0.07636,-0.24618 -0.07749,-0.51836 -0.115216,-0.77768 -0.01647,-0.1133 -0.02279,-0.15863 -0.03431,-0.23567 z" />
    </clipPath>
    <clipPath
       clipPathUnits="userSpaceOnUse"
       id="clipPath1279">
      <path
         id="path1281"
         style="fill:none;stroke:#000000;stroke-width:1.41875;stroke-linecap:round;stroke-linejoin:round;stroke-opacity:0.955017;paint-order:stroke markers fill"
         d="m 78.560376,146.8534 v 20.76774 H 131.11882 V 146.8534 h -8.23943 c 0.33302,0.37634 0.43146,0.73854 0.44784,1.12024 0.21532,0.0485 0.40355,0.14864 0.57197,0.28617 0.21745,-0.37076 0.5125,-0.55828 0.80858,-0.5597 0.27858,-0.19795 0.54042,-0.35234 0.91146,-0.44608 0.21671,-0.0547 0.43987,-0.14894 0.65907,-0.1456 0.0506,8.6e-4 0.10091,0.007 0.15088,0.0202 0.4049,0.1042 0.75445,0.4167 1.1316,0.62534 0.13102,0.26563 0.29114,0.5128 0.39298,0.79705 0.14967,0.41778 0.32628,1.85707 0.35594,2.31537 0.0269,0.4144 0.19446,0.88727 0.024,1.24649 -0.26415,0.55667 -0.80384,0.82948 -1.20566,1.24396 -0.28645,-0.0107 -0.57251,-0.0274 -0.85865,-0.0446 -0.33438,2.1212 -2.1131,2.02368 -2.26046,-0.005 -0.25832,-0.17613 -0.37032,-0.44791 -0.41835,-0.76001 -0.15703,-0.0754 -0.30938,-0.20095 -0.4451,-0.38548 -0.0615,0.10412 -0.13689,0.19689 -0.22495,0.27859 0.33971,0.45102 0.26831,0.94058 0.0994,1.96947 -0.0352,0.21481 -0.18888,0.372 -0.28325,0.55801 -0.016,0.0125 -0.0331,0.0274 -0.0507,0.0438 -0.0803,0.14391 -0.19103,0.30432 -0.26198,0.37959 -0.14058,0.14915 -0.3019,0.26876 -0.47184,0.36696 0.0458,0.0403 0.0875,0.085 0.12756,0.1313 h 2.60268 c 0.31036,0.18541 0.94248,0.13296 0.93066,0.55633 -0.008,0.29319 -0.0639,0.57992 -0.15157,0.8568 0.38021,0.10376 0.45494,0.48965 0.15294,1.73633 0.15071,0.84015 0.0538,1.04497 -0.29216,1.08573 -0.001,0.005 -0.003,0.009 -0.004,0.0134 -0.0546,0.18911 -0.27621,0.0894 -0.47252,0.0337 -0.97018,0.36655 -3.18424,0.42412 -1.72964,1.04954 1.34349,0.57763 0.65729,0.24934 0.11659,0.33413 -1.06369,0.0315 -2.12404,-0.0199 -3.18632,-0.0968 -0.22069,-0.6845 0.51317,1.47398 -1.05479,0.085 -1.66575,-1.47557 -1.2444,-2.07694 -0.14676,-2.96514 -0.0524,-0.20573 -0.0778,-0.4368 -0.0816,-0.66659 -0.31164,-0.59938 -0.13214,-1.37739 0.53769,-1.77083 -0.59593,-0.39682 -0.86629,-0.91734 -0.87991,-1.38956 -0.0766,-0.0276 -0.10663,-0.0375 -0.1982,-0.0707 -0.13381,2.1e-4 -0.26985,-0.0304 -0.40121,8.6e-4 -0.0248,0.006 0.0248,0.0657 0.011,0.0917 -0.0234,0.0441 -0.0667,0.0702 -0.10699,0.0884 -0.17441,0.079 -0.34721,0.19028 -0.53288,0.202 -0.23504,0.015 -0.43127,0.006 -0.61381,-0.0177 -0.67351,2.73846 -3.31824,2.27668 -3.33034,-1.4106 -1.2e-4,-0.0354 7e-5,-0.0472 0,-0.069 -0.45441,0.68674 -0.9104,0.91165 -1.26533,-0.2466 -0.22176,0.71259 -0.49728,1.40427 -0.72354,2.11507 -0.25205,0.0688 -0.50444,0.27875 -0.75577,0.2062 -0.43457,-0.12543 -0.85663,-0.33237 -1.25231,-0.5942 -0.10508,0.0323 -0.2163,0.0624 -0.33743,0.0892 -0.59064,0.13082 -1.13162,-0.54373 -1.61235,-0.98473 -0.24752,-0.22702 -0.3419,-0.63148 -0.50271,-0.95528 -0.0734,-0.14771 -0.12453,-0.25082 -0.18655,-0.37537 -0.10983,0.0165 -0.22007,0.0308 -0.33056,0.0438 -0.60259,0.24226 -1.20882,0.46368 -1.83457,0.57148 -0.14879,0.0256 -0.0748,-0.33475 -0.0974,-0.53781 -0.15861,0.48851 -0.3556,0.59315 -0.86688,0.8669 0.002,0.002 0.004,0.003 0.006,0.005 0.2014,0.21261 -0.47313,0.29638 -0.70982,0.44439 -0.28558,0.0876 -0.80092,0.258 -1.19195,0.29711 -0.0225,0.0576 -0.10499,0.0306 -0.18997,0.007 -0.10053,0.18622 -0.43291,-0.0238 -0.63781,-0.0429 -0.009,-8.6e-4 -0.0188,-0.003 -0.0281,-0.003 -0.872842,-0.0176 -1.745514,-0.0379 -2.618458,-0.0421 -0.541998,-0.003 -1.086934,-0.0411 -1.626077,0.0269 -0.09368,0.0119 -0.183808,0.0505 -0.275701,0.0757 -0.213647,0.0366 -0.425845,0.12386 -0.64124,0.10941 -0.308217,-0.0209 -0.575813,-0.14656 -0.83533,-0.29878 -0.211638,0.21006 -0.491795,0.1358 -1.368892,-0.0244 -0.149452,0.62604 -0.293799,1.08318 -0.438925,1.41228 0.169741,1.19787 0.498752,2.5586 -0.02742,3.68139 -0.113323,0.24178 -0.270907,0.44842 -0.449212,0.62955 -0.0165,0.0604 -0.02946,0.10885 -0.04869,0.1818 -0.0039,0.0199 -0.0064,0.0404 -0.0096,0.0606 0.01485,0.066 0.02827,0.13283 0.01166,0.19526 -0.120806,0.45436 -0.304459,0.87984 -0.456755,1.31971 -0.673064,0.45646 -1.071197,0.46239 -1.751582,0.29794 -0.72826,-0.17605 -1.147349,-0.65258 -1.312658,-1.17494 -0.428741,-0.01 -0.8764,-0.26829 -1.332548,-0.59505 -0.135832,0.0488 -0.272772,0.0758 -0.412178,0.0631 -0.247733,-0.0226 -0.398441,-0.44896 -0.495161,-0.82566 -0.949449,-1.10854 -0.387897,-2.37601 0.747543,-2.28508 -0.220789,-0.29702 -0.404994,-0.50414 -0.461556,-0.41746 0.0077,0.0643 -0.008,0.22354 -0.01372,0.16749 -0.0088,-0.0866 -0.0037,-0.14079 0.01372,-0.16749 -3.45e-4,-0.003 -1.62e-4,-0.006 -7.03e-4,-0.008 -0.06018,-0.33671 -0.20175,-0.64812 -0.220834,-0.9982 0.141633,-0.49883 0.159124,-1.08123 0.425208,-1.49645 0.109684,-0.17117 0.267001,-0.277 0.44304,-0.34676 -4.57e-4,-0.0657 0.0022,-0.13275 0.0041,-0.19947 -0.477677,-0.13403 -0.949176,-0.30645 -1.414845,-0.51594 -0.445714,0.18934 -0.907916,0.16983 -1.441592,-0.18011 -0.733806,-0.48113 -0.981031,-1.51343 -1.41896,-2.2935 -0.07085,-0.15328 -0.518568,-1.12155 -0.525338,-1.13959 -0.06304,-0.16768 -0.08734,-0.35438 -0.139221,-0.52772 -0.179534,-0.59983 -0.445907,-1.15513 -0.720796,-1.69424 h -7.02e-4 c -0.108571,-0.21293 -0.187662,-0.41549 -0.246895,-0.60852 z m 17.065241,0 c 0.09432,0.13703 0.179411,0.28401 0.271585,0.42336 0.0018,0.008 0.0032,0.0145 0.0048,0.0219 0.06394,0.0354 0.12642,0.0742 0.187227,0.11783 0.03434,0.0102 0.06628,0.0176 0.101504,0.0286 0.04679,-0.0325 0.09904,-0.0544 0.158424,-0.069 0.367488,-0.32522 0.81629,-0.37166 1.279738,-0.3173 0.129448,-0.0947 0.262505,-0.16015 0.399832,-0.20536 z m 3.627299,0 c 0.230344,0.1967 0.440613,0.42607 0.650155,0.65649 0.153889,0.0208 0.307729,0.0439 0.461559,0.0699 0.33269,-0.41468 0.74332,-0.60294 1.14669,-0.56138 3.5e-4,-0.055 7e-4,-0.10998 7e-4,-0.16497 z m 18.211924,0 c 0.46216,0.17477 0.82003,0.49118 0.93341,0.90478 0.0613,0.0148 0.12245,0.0292 0.1838,0.0438 0.0558,-0.17153 0.15237,-0.35679 0.26884,-0.53361 -0.0234,-0.17006 -0.025,-0.30575 -0.0103,-0.41494 z m -10.04313,5.79561 c -0.1359,0.0395 -0.27358,0.0723 -0.41149,0.101 0.016,0.10402 0.17226,0.0446 0.41149,-0.101 z m 13.95642,0.16413 c -0.0167,-0.003 -0.11478,0.0903 -0.33948,0.33834 0.0302,-0.0101 0.0602,-0.0207 0.0905,-0.0303 0.0184,-0.006 -0.0277,0.0318 -0.0425,0.0463 -0.01,0.01 -0.02,0.0192 -0.0302,0.0286 0.014,0.0139 0.0277,0.0277 0.0418,0.0421 0.16916,-0.22783 0.30286,-0.42007 0.27982,-0.42503 z m -33.785514,0.7255 c -0.0068,0.0103 -0.01344,0.0201 -0.02263,0.0337 0.0077,3.9e-4 0.01366,-2.1e-4 0.01989,0.002 7.37e-4,-0.0118 0.002,-0.0235 0.0027,-0.0353 z m 3.118421,3.03584 c -0.05376,0.0343 -0.106964,0.069 -0.166654,0.10268 0.01678,0.0256 0.03396,0.0512 0.05007,0.0774 0.113597,0.18513 0.133096,0.43368 0.199574,0.65059 0.01591,0.15437 0.029,0.29422 0.03772,0.42251 0.191842,-0.002 0.378293,8.6e-4 0.514363,0.0143 0.039,-0.0131 0.06585,-0.0372 0.06378,-0.0875 -0.0063,-0.15258 -0.253266,0.0275 -0.37377,-0.011 -0.07177,-0.0229 -0.150558,-0.0799 -0.176943,-0.16496 -0.07636,-0.24619 -0.07749,-0.51835 -0.115216,-0.77769 -0.01584,-0.10883 -0.02233,-0.1547 -0.0329,-0.2264 z" />
    </clipPath>
  </defs>
  <g
     inkscape:label="Layer 1"
     inkscape:groupmode="layer"
     id="layer1">
    <path
       style="fill:#000000;stroke:#000000;stroke-width:5.12832;stroke-linecap:round;stroke-linejoin:round;stroke-miterlimit:4;stroke-dasharray:none;stroke-opacity:0.955017;paint-order:stroke markers fill"
       d=""
       id="path1507"
       transform="scale(0.26458333)" />
    <path
       style="fill:#000000;stroke:#000000;stroke-width:5.12832;stroke-linecap:round;stroke-linejoin:round;stroke-miterlimit:4;stroke-dasharray:none;stroke-opacity:0.955017;paint-order:stroke markers fill"
       d=""
       id="path1622"
       transform="scale(0.26458333)" />
    <path
       style="fill:#000000;stroke:#000000;stroke-width:5.12832;stroke-linecap:round;stroke-linejoin:round;stroke-miterlimit:4;stroke-dasharray:none;stroke-opacity:0.955017;paint-order:stroke markers fill"
       d=""
       id="path1973"
       transform="scale(0.26458333)" />
    <path
       style="fill:#ffffff;stroke:#000000;stroke-width:3.3948;stroke-linecap:round;stroke-linejoin:round;stroke-opacity:0.955017;paint-order:stroke markers fill"
       d=""
       id="path1530"
       transform="scale(0.26458333)" />
    <path
       style="fill:#ffffff;stroke:#000000;stroke-width:1.36949;stroke-linecap:round;stroke-linejoin:round;stroke-opacity:0.955017;paint-order:stroke markers fill"
       d=""
       id="path1047"
       transform="scale(0.26458333)" />
    <path
       style="fill:#ffffff;stroke:#000000;stroke-width:1.36949;stroke-linecap:round;stroke-linejoin:round;stroke-opacity:0.955017;paint-order:stroke markers fill"
       d=""
       id="path1086"
       transform="scale(0.26458333)" />
    <g
       id="g1569" />
    <g
       id="g1793" />
    <g
       id="g5143"
       transform="matrix(0.75349927,0,0,0.61398891,-40.424239,-3.0533338)">
      <path
         id="rect4374"
         style="fill:none;stroke:#000000;stroke-width:1.165;stroke-linecap:round;stroke-linejoin:round;stroke-opacity:0.955017;paint-order:stroke markers fill"
         d="m 98.043082,149.48213 h 13.961878 c 5.62345,0 10.15063,4.52718 10.15063,10.15064 v 47.05169 c 0,5.62345 -4.52718,10.15063 -10.15063,10.15063 H 98.043082 c -5.623451,0 -10.150634,-4.52718 -10.150634,-10.15063 v -47.05169 c 0,-5.62346 4.527183,-10.15064 10.150634,-10.15064 z m 32.146008,1.25404 C 113.182,149.5017 96.174657,148.26697 79.167042,147.03198 m 67.196048,-43.96632 c -0.4259,9.64789 -0.85153,19.29549 -1.2769,28.94282 -0.42536,9.64733 -9.93167,12.48539 -14.8971,18.72769 M 62.993132,99.361476 c 0.425894,9.647884 0.851524,19.295484 1.276887,28.942814 0.425365,9.64733 9.931614,12.48539 14.897025,18.72769 m 10.633403,-34.49167 c 0,1.36636 -1.31995,2.46636 -2.959528,2.46636 h -3.476267 c -1.639582,0 -2.959527,-1.1 -2.959527,-2.46636 0,-1.36636 1.319945,-2.46634 2.959527,-2.46634 h 3.476267 c 1.639578,0 2.959528,1.09998 2.959528,2.46634 z m 1.95983,-1.95741 v 3.60165 c 0,1.40974 -1.22832,2.54465 -2.75406,2.54465 h -7.541843 c -1.525741,0 -2.754045,-1.13491 -2.754045,-2.54465 v -3.60165 c 0,-1.40974 1.228304,-2.54465 2.754045,-2.54465 h 7.541843 c 1.52574,0 2.75406,1.13491 2.75406,2.54465 z m 11.114343,2.36393 c 0,1.36636 -1.31995,2.46635 -2.959523,2.46635 h -3.47628 c -1.63959,0 -2.95954,-1.09999 -2.95954,-2.46635 0,-1.36636 1.31995,-2.46635 2.95954,-2.46635 h 3.47628 c 1.639573,0 2.959523,1.09999 2.959523,2.46635 z m 1.95981,-1.95742 v 3.60165 c 0,1.40975 -1.2283,2.54466 -2.75403,2.54466 h -7.541873 c -1.52574,0 -2.75406,-1.13491 -2.75406,-2.54466 v -3.60165 c 0,-1.40973 1.22832,-2.54465 2.75406,-2.54465 h 7.541873 c 1.52573,0 2.75403,1.13492 2.75403,2.54465 z m 11.2328,1.5509 c 0,1.36636 -1.31993,2.46636 -2.95951,2.46636 h -3.47624 c -1.63957,0 -2.95952,-1.1 -2.95952,-2.46636 0,-1.36636 1.31995,-2.46634 2.95952,-2.46634 h 3.47624 c 1.63958,0 2.95951,1.09998 2.95951,2.46634 z m 1.95981,-1.95741 v 3.60165 c 0,1.40974 -1.22829,2.54465 -2.75403,2.54465 h -7.5418 c -1.52574,0 -2.75403,-1.13491 -2.75403,-2.54465 v -3.60165 c 0,-1.40974 1.22829,-2.54465 2.75403,-2.54465 h 7.5418 c 1.52574,0 2.75403,1.13491 2.75403,2.54465 z m 11.11424,2.36393 c 0,1.36636 -1.31992,2.46635 -2.9595,2.46635 h -3.47624 c -1.63958,0 -2.95951,-1.09999 -2.95951,-2.46635 0,-1.36636 1.31993,-2.46635 2.95951,-2.46635 h 3.47624 c 1.63958,0 2.9595,1.09999 2.9595,2.46635 z m 1.95982,-1.95742 v 3.60165 c 0,1.40975 -1.22829,2.54466 -2.75403,2.54466 h -7.5418 c -1.52573,0 -2.75404,-1.13491 -2.75404,-2.54466 v -3.60165 c 0,-1.40973 1.22831,-2.54465 2.75404,-2.54465 h 7.5418 c 1.52574,0 2.75403,1.13492 2.75403,2.54465 z m -2.1915,-19.58769 c 2.65436,0 4.79127,2.0231 4.79127,4.53609 v 5.32812 c 0,2.51302 -2.13691,4.53611 -4.79127,4.53611 -2.65437,0 -4.79127,-2.02309 -4.79127,-4.53611 v -5.32812 c 0,-2.51299 2.1369,-4.53609 4.79127,-4.53609 z m -3.8026,-3.00385 h 6.99678 c 2.73864,0 4.94338,1.88264 4.94338,4.22116 v 11.55948 c 0,2.33853 -2.20474,4.22117 -4.94338,4.22117 H 125.107 c -2.73862,0 -4.94336,-1.88264 -4.94336,-4.22117 V 92.61903 c 0,-2.33852 2.20474,-4.22116 4.94336,-4.22116 z m 4.59232,-17.035028 c 2.65436,0 4.79128,2.023086 4.79128,4.536082 v 5.328126 c 0,2.513 -2.13692,4.5361 -4.79128,4.5361 -2.65437,0 -4.79127,-2.0231 -4.79127,-4.5361 v -5.328126 c 0,-2.512996 2.1369,-4.536082 4.79127,-4.536082 z m -3.8026,-3.003832 h 6.99678 c 2.73863,0 4.94338,1.882629 4.94338,4.221141 V 84.13963 c 0,2.33852 -2.20475,4.22116 -4.94338,4.22116 h -6.99678 c -2.73863,0 -4.94338,-1.88264 -4.94338,-4.22116 V 72.580151 c 0,-2.338512 2.20475,-4.221141 4.94338,-4.221141 z m 3.01288,-17.216659 c 2.65436,0 4.79127,2.023091 4.79127,4.536078 v 5.328089 c 0,2.512994 -2.13691,4.536083 -4.79127,4.536083 -2.65437,0 -4.79127,-2.023089 -4.79127,-4.536083 v -5.328089 c 0,-2.512987 2.1369,-4.536078 4.79127,-4.536078 z m -3.8026,-3.003832 h 6.99678 c 2.73864,0 4.94338,1.882629 4.94338,4.22114 v 11.559424 c 0,2.338509 -2.20474,4.22114 -4.94338,4.22114 H 125.107 c -2.73862,0 -4.94336,-1.882631 -4.94336,-4.22114 V 52.359659 c 0,-2.338511 2.20474,-4.22114 4.94336,-4.22114 z m 4.59232,-17.03495 c 2.65436,0 4.79128,2.023091 4.79128,4.536078 v 5.328092 c 0,2.512987 -2.13692,4.536077 -4.79128,4.536077 -2.65437,0 -4.79127,-2.02309 -4.79127,-4.536077 v -5.328092 c 0,-2.512987 2.1369,-4.536078 4.79127,-4.536078 z m -3.8026,-3.003832 h 6.99678 c 2.73863,0 4.94338,1.882629 4.94338,4.22114 v 11.559425 c 0,2.338507 -2.20475,4.221138 -4.94338,4.221138 h -6.99678 c -2.73863,0 -4.94338,-1.882631 -4.94338,-4.221138 V 32.320877 c 0,-2.338511 2.20475,-4.22114 4.94338,-4.22114 z M 111.81536,91.40172 c 2.65436,0 4.79127,2.0231 4.79127,4.53609 v 5.32812 c 0,2.51302 -2.13691,4.53611 -4.79127,4.53611 -2.65437,0 -4.79127,-2.02309 -4.79127,-4.53611 v -5.32812 c 0,-2.51299 2.1369,-4.53609 4.79127,-4.53609 z m -3.80259,-3.00385 h 6.99677 c 2.73864,0 4.94338,1.88264 4.94338,4.22116 v 11.55948 c 0,2.33853 -2.20474,4.22117 -4.94338,4.22117 h -6.99677 c -2.73863,0 -4.94337,-1.88264 -4.94337,-4.22117 V 92.61903 c 0,-2.33852 2.20474,-4.22116 4.94337,-4.22116 z m 4.59231,-17.035028 c 2.65436,0 4.79128,2.023086 4.79128,4.536082 v 5.328126 c 0,2.513 -2.13692,4.5361 -4.79128,4.5361 -2.65437,0 -4.79127,-2.0231 -4.79127,-4.5361 v -5.328126 c 0,-2.512996 2.1369,-4.536082 4.79127,-4.536082 z m -3.80259,-3.003832 h 6.99677 c 2.73863,0 4.94338,1.882629 4.94338,4.221141 V 84.13963 c 0,2.33852 -2.20475,4.22116 -4.94338,4.22116 h -6.99677 c -2.73864,0 -4.94338,-1.88264 -4.94338,-4.22116 V 72.580151 c 0,-2.338512 2.20474,-4.221141 4.94338,-4.221141 z m 3.01287,-17.216659 c 2.65436,0 4.79127,2.023091 4.79127,4.536078 v 5.328089 c 0,2.512994 -2.13691,4.536083 -4.79127,4.536083 -2.65437,0 -4.79127,-2.023089 -4.79127,-4.536083 v -5.328089 c 0,-2.512987 2.1369,-4.536078 4.79127,-4.536078 z m -3.80259,-3.003832 h 6.99677 c 2.73864,0 4.94338,1.882629 4.94338,4.22114 v 11.559424 c 0,2.338509 -2.20474,4.22114 -4.94338,4.22114 h -6.99677 c -2.73863,0 -4.94337,-1.882631 -4.94337,-4.22114 V 52.359659 c 0,-2.338511 2.20474,-4.22114 4.94337,-4.22114 z m 4.59231,-17.03495 c 2.65436,0 4.79128,2.023091 4.79128,4.536078 v 5.328092 c 0,2.512987 -2.13692,4.536077 -4.79128,4.536077 -2.65437,0 -4.79127,-2.02309 -4.79127,-4.536077 v -5.328092 c 0,-2.512987 2.1369,-4.536078 4.79127,-4.536078 z m -3.80259,-3.003832 h 6.99677 c 2.73863,0 4.94338,1.882629 4.94338,4.22114 v 11.559425 c 0,2.338507 -2.20475,4.221138 -4.94338,4.221138 h -6.99677 c -2.73864,0 -4.94338,-1.882631 -4.94338,-4.221138 V 32.320877 c 0,-2.338511 2.20474,-4.22114 4.94338,-4.22114 z M 94.721127,91.40172 c 2.65436,0 4.79127,2.0231 4.79127,4.53609 v 5.32812 c 0,2.51302 -2.13691,4.53611 -4.79127,4.53611 -2.65437,0 -4.79127,-2.02309 -4.79127,-4.53611 v -5.32812 c 0,-2.51299 2.1369,-4.53609 4.79127,-4.53609 z m -3.80259,-3.00385 h 6.99677 c 2.738643,0 4.943383,1.88264 4.943383,4.22116 v 11.55948 c 0,2.33853 -2.20474,4.22117 -4.943383,4.22117 h -6.99677 c -2.73863,0 -4.943361,-1.88264 -4.943361,-4.22117 V 92.61903 c 0,-2.33852 2.204731,-4.22116 4.943361,-4.22116 z m 4.59232,-17.035028 c 2.65436,0 4.791283,2.023086 4.791283,4.536082 v 5.328126 c 0,2.513 -2.136923,4.5361 -4.791283,4.5361 -2.65437,0 -4.79127,-2.0231 -4.79127,-4.5361 v -5.328126 c 0,-2.512996 2.1369,-4.536082 4.79127,-4.536082 z m -3.8026,-3.003832 h 6.99677 c 2.738643,0 4.943393,1.882629 4.943393,4.221141 V 84.13963 c 0,2.33852 -2.20475,4.22116 -4.943393,4.22116 h -6.99677 c -2.73863,0 -4.943368,-1.88264 -4.943368,-4.22116 V 72.580151 c 0,-2.338512 2.204738,-4.221141 4.943368,-4.221141 z m 3.01287,-17.216659 c 2.65436,0 4.79127,2.023091 4.79127,4.536078 v 5.328089 c 0,2.512994 -2.13691,4.536083 -4.79127,4.536083 -2.65437,0 -4.79127,-2.023089 -4.79127,-4.536083 v -5.328089 c 0,-2.512987 2.1369,-4.536078 4.79127,-4.536078 z m -3.80259,-3.003832 h 6.99677 c 2.738643,0 4.943383,1.882629 4.943383,4.22114 v 11.559424 c 0,2.338509 -2.20474,4.22114 -4.943383,4.22114 h -6.99677 c -2.73863,0 -4.943361,-1.882631 -4.943361,-4.22114 V 52.359659 c 0,-2.338511 2.204731,-4.22114 4.943361,-4.22114 z m 4.59232,-17.03495 c 2.65436,0 4.791283,2.023091 4.791283,4.536078 v 5.328092 c 0,2.512987 -2.136923,4.536077 -4.791283,4.536077 -2.65437,0 -4.79127,-2.02309 -4.79127,-4.536077 v -5.328092 c 0,-2.512987 2.1369,-4.536078 4.79127,-4.536078 z m -3.8026,-3.003832 h 6.99677 c 2.738643,0 4.943393,1.882629 4.943393,4.22114 v 11.559425 c 0,2.338507 -2.20475,4.221138 -4.943393,4.221138 h -6.99677 c -2.73863,0 -4.943368,-1.882631 -4.943368,-4.221138 V 32.320877 c 0,-2.338511 2.204738,-4.22114 4.943368,-4.22114 z m -14.0813,63.301983 c 2.654349,0 4.791244,2.0231 4.791244,4.53609 v 5.32812 c 0,2.51302 -2.136895,4.53611 -4.791244,4.53611 -2.654355,0 -4.791241,-2.02309 -4.791241,-4.53611 v -5.32812 c 0,-2.51299 2.136886,-4.53609 4.791241,-4.53609 z m -3.802572,-3.00385 h 6.996732 c 2.738624,0 4.943353,1.88264 4.943353,4.22116 v 11.55948 c 0,2.33853 -2.204729,4.22117 -4.943353,4.22117 h -6.996732 c -2.738618,0 -4.94335,-1.88264 -4.94335,-4.22117 V 92.61903 c 0,-2.33852 2.204732,-4.22116 4.94335,-4.22116 z m 4.592286,-17.035028 c 2.65435,0 4.791252,2.023086 4.791252,4.536082 v 5.328126 c 0,2.513 -2.136902,4.5361 -4.791252,4.5361 -2.654356,0 -4.791242,-2.0231 -4.791242,-4.5361 v -5.328126 c 0,-2.512996 2.136886,-4.536082 4.791242,-4.536082 z M 74.614099,68.35901 h 6.996733 c 2.738621,0 4.94335,1.882629 4.94335,4.221141 V 84.13963 c 0,2.33852 -2.204729,4.22116 -4.94335,4.22116 h -6.996733 c -2.738619,0 -4.943351,-1.88264 -4.943351,-4.22116 V 72.580151 c 0,-2.338512 2.204732,-4.221141 4.943351,-4.221141 z m 3.012858,-17.216659 c 2.654349,0 4.791244,2.023091 4.791244,4.536078 v 5.328089 c 0,2.512994 -2.136895,4.536083 -4.791244,4.536083 -2.654355,0 -4.791241,-2.023089 -4.791241,-4.536083 v -5.328089 c 0,-2.512987 2.136886,-4.536078 4.791241,-4.536078 z m -3.802572,-3.003832 h 6.996732 c 2.738624,0 4.943353,1.882629 4.943353,4.22114 v 11.559424 c 0,2.338509 -2.204729,4.22114 -4.943353,4.22114 h -6.996732 c -2.738618,0 -4.94335,-1.882631 -4.94335,-4.22114 V 52.359659 c 0,-2.338511 2.204732,-4.22114 4.94335,-4.22114 z m 4.592286,-17.03495 c 2.65435,0 4.791252,2.023091 4.791252,4.536078 v 5.328092 c 0,2.512987 -2.136902,4.536077 -4.791252,4.536077 -2.654356,0 -4.791242,-2.02309 -4.791242,-4.536077 v -5.328092 c 0,-2.512987 2.136886,-4.536078 4.791242,-4.536078 z m -3.802572,-3.003832 h 6.996733 c 2.738621,0 4.94335,1.882629 4.94335,4.22114 v 11.559425 c 0,2.338507 -2.204729,4.221138 -4.94335,4.221138 h -6.996733 c -2.738619,0 -4.943351,-1.882631 -4.943351,-4.221138 V 32.320877 c 0,-2.338511 2.204732,-4.22114 4.943351,-4.22114 z m 16.221218,-5.481326 c 0,1.680286 -1.31598,3.033007 -2.95062,3.033007 h -3.46582 c -1.634653,0 -2.950631,-1.352721 -2.950631,-3.033007 0,-1.680289 1.315978,-3.033005 2.950631,-3.033005 h 3.46582 c 1.63464,0 2.95062,1.352716 2.95062,3.033005 z m 1.95394,-2.407147 v 4.42915 c 0,1.733631 -1.22462,3.129292 -2.74577,3.129292 h -7.519175 c -1.521157,0 -2.745769,-1.395661 -2.745769,-3.129292 v -4.42915 c 0,-1.73363 1.224612,-3.129295 2.745769,-3.129295 h 7.519175 c 1.52115,0 2.74577,1.395665 2.74577,3.129295 z m 11.080883,2.907061 c 0,1.680286 -1.31596,3.033007 -2.95061,3.033007 h -3.465823 c -1.63466,0 -2.95064,-1.352721 -2.95064,-3.033007 0,-1.68029 1.31598,-3.033006 2.95064,-3.033006 h 3.465823 c 1.63465,0 2.95061,1.352716 2.95061,3.033006 z m 1.95393,-2.407147 v 4.429151 c 0,1.73363 -1.22461,3.129292 -2.74575,3.129292 h -7.519173 c -1.52116,0 -2.74577,-1.395662 -2.74577,-3.129292 v -4.429151 c 0,-1.733631 1.22461,-3.129295 2.74577,-3.129295 h 7.519173 c 1.52114,0 2.74575,1.395664 2.74575,3.129295 z m 11.19904,1.907233 c 0,1.680286 -1.31598,3.033007 -2.95063,3.033007 h -3.46579 c -1.63464,0 -2.95062,-1.352721 -2.95062,-3.033007 0,-1.680289 1.31598,-3.033005 2.95062,-3.033005 h 3.46579 c 1.63465,0 2.95063,1.352716 2.95063,3.033005 z m 1.9539,-2.407147 v 4.42915 c 0,1.733631 -1.2246,3.129292 -2.74574,3.129292 h -7.51914 c -1.52114,0 -2.74575,-1.395661 -2.74575,-3.129292 v -4.42915 c 0,-1.73363 1.22461,-3.129295 2.74575,-3.129295 h 7.51914 c 1.52114,0 2.74574,1.395665 2.74574,3.129295 z m 11.08084,2.907061 c 0,1.680286 -1.31597,3.033007 -2.9506,3.033007 h -3.4658 c -1.63465,0 -2.95061,-1.352721 -2.95061,-3.033007 0,-1.68029 1.31596,-3.033006 2.95061,-3.033006 h 3.4658 c 1.63463,0 2.9506,1.352716 2.9506,3.033006 z m 1.95392,-2.407147 v 4.429151 c 0,1.73363 -1.2246,3.129292 -2.74575,3.129292 h -7.51913 c -1.52115,0 -2.74574,-1.395662 -2.74574,-3.129292 v -4.429151 c 0,-1.733631 1.22459,-3.129295 2.74574,-3.129295 h 7.51913 c 1.52115,0 2.74575,1.395664 2.74575,3.129295 z M 104.31086,9.9645532 h 2.26314 c 24.10148,0 43.50448,19.4029988 43.50448,43.5044818 V 80.48265 c 0,24.10149 -19.403,43.50449 -43.50448,43.50449 h -2.26314 c -24.101483,0 -43.504482,-19.403 -43.504482,-43.50449 V 53.469035 c 0,-24.101483 19.402999,-43.5044818 43.504482,-43.5044818 z"
         clip-path="url(#clipPath1269)" />
      <path
         id="path4626"
         style="color:#000000;fill:#000000;-inkscape-stroke:none"
         d="m 130.70508,150.60742 -1.03321,0.25781 c 0.7018,2.81729 0.42737,5.88039 -0.76562,8.52735 -1.29337,2.86966 -3.6733,5.2496 -6.54297,6.54297 l 0.4375,0.9707 c 3.11367,-1.40333 5.67283,-3.96252 7.07617,-7.07617 1.29383,-2.87068 1.58924,-6.16725 0.82813,-9.22266 z m -50.931643,-3.7539 -1.21289,0.35742 3.43164,11.60547 5.796875,8.80468 1.056641,-0.69726 -5.693359,-8.64649 z"
         clip-path="url(#clipPath1279)" />
      <path
         style="fill:none;stroke:#000000;stroke-width:1.065;stroke-linecap:butt;stroke-linejoin:miter;stroke-miterlimit:4;stroke-dasharray:none;stroke-opacity:1"
         d="M 62.993132,99.361476 63.91603,96.546203"
         id="path4638"
         inkscape:original-d="m 62.993132,99.361476 c 0.307898,-0.93816 0.615529,-1.876584 0.922898,-2.815273"
         inkscape:path-effect="#path-effect4640" />
      <path
         style="fill:none;stroke:#000000;stroke-width:0.865;stroke-linecap:butt;stroke-linejoin:miter;stroke-miterlimit:4;stroke-dasharray:none;stroke-opacity:1"
         d="M 146.36309,103.06566 145.67478,98.8682"
         id="path4642"
         inkscape:original-d="m 146.36309,103.06566 c -0.22917,-1.39889 -0.45861,-2.79804 -0.68831,-4.19746"
         inkscape:path-effect="#path-effect4644" />
      <rect
         style="fill:none;stroke:#000000;stroke-width:1.41875;stroke-linecap:round;stroke-linejoin:round;stroke-miterlimit:4;stroke-dasharray:none;stroke-opacity:0.955017;paint-order:stroke markers fill"
         id="rect5459"
         width="11.066516"
         height="43.271038"
         x="93.127136"
         y="158.96245"
         ry="6.7905231"
         clip-path="url(#clipPath1191)" />
      <ellipse
         style="fill:none;stroke:#000000;stroke-width:1.41875;stroke-linecap:round;stroke-linejoin:round;stroke-miterlimit:4;stroke-dasharray:none;stroke-opacity:0.955017;paint-order:stroke markers fill"
         id="path5563"
         ry="5.6049032"
         rx="13.554816"
         cy="133.19827"
         cx="89.302124" />
      <rect
         style="fill:none;stroke:#000000;stroke-width:1.375;stroke-linecap:round;stroke-linejoin:round;stroke-opacity:0.955017;paint-order:stroke markers fill"
         id="rect900"
         width="4.7166772"
         height="24.561148"
         x="118.02001"
         y="130.40668"
         ry="3.7918644" />
    </g>
  </g>
</svg>
