<?xml version="1.0" encoding="UTF-8" standalone="no"?>
<!-- Created with Inkscape (http://www.inkscape.org/) -->

<svg
   width="210mm"
   height="297mm"
   viewBox="0 0 210 297"
   version="1.1"
   id="svg5"
   inkscape:version="1.1.1 (3bf5ae0d25, 2021-09-20)"
   sodipodi:docname="Ordumbox card icon svg.svg"
   xmlns:inkscape="http://www.inkscape.org/namespaces/inkscape"
   xmlns:sodipodi="http://sodipodi.sourceforge.net/DTD/sodipodi-0.dtd"
   xmlns="http://www.w3.org/2000/svg"
   xmlns:svg="http://www.w3.org/2000/svg">
  <sodipodi:namedview
     id="namedview7"
     pagecolor="#ffffff"
     bordercolor="#666666"
     borderopacity="1.0"
     inkscape:pageshadow="2"
     inkscape:pageopacity="0.0"
     inkscape:pagecheckerboard="0"
     inkscape:document-units="mm"
     showgrid="false"
     inkscape:zoom="1.0824912"
     inkscape:cx="405.54602"
     inkscape:cy="1144.1202"
     inkscape:window-width="1680"
     inkscape:window-height="956"
     inkscape:window-x="-11"
     inkscape:window-y="-11"
     inkscape:window-maximized="1"
     inkscape:current-layer="layer1" />
  <defs
     id="defs2">
    <inkscape:path-effect
       effect="spiro"
       id="path-effect2916"
       is_visible="true"
       lpeversion="1" />
    <inkscape:path-effect
       effect="spiro"
       id="path-effect2912"
       is_visible="true"
       lpeversion="1" />
    <inkscape:path-effect
       effect="spiro"
       id="path-effect2908"
       is_visible="true"
       lpeversion="1" />
    <inkscape:path-effect
       effect="spiro"
       id="path-effect2904"
       is_visible="true"
       lpeversion="1" />
    <inkscape:path-effect
       effect="spiro"
       id="path-effect1001"
       is_visible="true"
       lpeversion="1" />
    <inkscape:path-effect
       effect="spiro"
       id="path-effect997"
       is_visible="true"
       lpeversion="1" />
    <inkscape:path-effect
       effect="spiro"
       id="path-effect993"
       is_visible="true"
       lpeversion="1" />
    <inkscape:path-effect
       effect="spiro"
       id="path-effect989"
       is_visible="true"
       lpeversion="1" />
    <inkscape:path-effect
       effect="spiro"
       id="path-effect2356"
       is_visible="true"
       lpeversion="1" />
    <inkscape:path-effect
       effect="spiro"
       id="path-effect2352"
       is_visible="true"
       lpeversion="1" />
    <inkscape:path-effect
       effect="spiro"
       id="path-effect2348"
       is_visible="true"
       lpeversion="1" />
    <inkscape:path-effect
       effect="spiro"
       id="path-effect2344"
       is_visible="true"
       lpeversion="1" />
    <inkscape:path-effect
       effect="spiro"
       id="path-effect1589"
       is_visible="true"
       lpeversion="1" />
    <inkscape:path-effect
       effect="spiro"
       id="path-effect1585"
       is_visible="true"
       lpeversion="1" />
    <inkscape:path-effect
       effect="spiro"
       id="path-effect1581"
       is_visible="true"
       lpeversion="1" />
    <inkscape:path-effect
       effect="spiro"
       id="path-effect1577"
       is_visible="true"
       lpeversion="1" />
    <inkscape:path-effect
       effect="spiro"
       id="path-effect1410"
       is_visible="true"
       lpeversion="1" />
    <inkscape:path-effect
       effect="spiro"
       id="path-effect1404"
       is_visible="true"
       lpeversion="1" />
    <inkscape:path-effect
       effect="spiro"
       id="path-effect1318"
       is_visible="true"
       lpeversion="1" />
    <inkscape:path-effect
       effect="spiro"
       id="path-effect1312"
       is_visible="true"
       lpeversion="1" />
  </defs>
  <g
     inkscape:label="Layer 1"
     inkscape:groupmode="layer"
     id="layer1">
    <path
       style="fill:#000000;stroke:#000000;stroke-width:5.12832;stroke-linecap:round;stroke-linejoin:round;stroke-miterlimit:4;stroke-dasharray:none;stroke-opacity:0.955017;paint-order:stroke markers fill"
       d=""
       id="path1507"
       transform="scale(0.26458333)" />
    <path
       style="fill:#000000;stroke:#000000;stroke-width:5.12832;stroke-linecap:round;stroke-linejoin:round;stroke-miterlimit:4;stroke-dasharray:none;stroke-opacity:0.955017;paint-order:stroke markers fill"
       d=""
       id="path1622"
       transform="scale(0.26458333)" />
    <path
       style="fill:#000000;stroke:#000000;stroke-width:5.12832;stroke-linecap:round;stroke-linejoin:round;stroke-miterlimit:4;stroke-dasharray:none;stroke-opacity:0.955017;paint-order:stroke markers fill"
       d=""
       id="path1973"
       transform="scale(0.26458333)" />
    <path
       style="fill:#ffffff;stroke:#000000;stroke-width:3.3948;stroke-linecap:round;stroke-linejoin:round;stroke-opacity:0.955017;paint-order:stroke markers fill"
       d=""
       id="path1530"
       transform="scale(0.26458333)" />
    <path
       style="fill:#ffffff;stroke:#000000;stroke-width:1.36949;stroke-linecap:round;stroke-linejoin:round;stroke-opacity:0.955017;paint-order:stroke markers fill"
       d=""
       id="path1047"
       transform="scale(0.26458333)" />
    <path
       style="fill:#ffffff;stroke:#000000;stroke-width:1.36949;stroke-linecap:round;stroke-linejoin:round;stroke-opacity:0.955017;paint-order:stroke markers fill"
       d=""
       id="path1086"
       transform="scale(0.26458333)" />
    <g
       id="g4940">
      <g
         id="g2900"
         transform="matrix(0.36021016,0,0,0.38253819,138.55434,193.16323)"
         style="stroke-width:2.3464;stroke-miterlimit:4;stroke-dasharray:none">
        <rect
           style="fill:none;stroke:#000000;stroke-width:2.3464;stroke-linecap:round;stroke-linejoin:round;stroke-miterlimit:4;stroke-dasharray:none;stroke-opacity:0.955017;paint-order:stroke markers fill"
           id="rect2882"
           width="139.54796"
           height="181.33772"
           x="29.476711"
           y="55.222187" />
        <rect
           style="fill:none;stroke:#000000;stroke-width:2.3464;stroke-linecap:round;stroke-linejoin:round;stroke-miterlimit:4;stroke-dasharray:none;stroke-opacity:0.955017;paint-order:stroke markers fill"
           id="rect2884"
           width="175.36777"
           height="207.08319"
           x="12.686177"
           y="43.282253"
           ry="26.118603" />
        <path
           style="fill:none;stroke:#000000;stroke-width:2.3464;stroke-linecap:butt;stroke-linejoin:miter;stroke-miterlimit:4;stroke-dasharray:none;stroke-opacity:1"
           d="m 29.47671,236.5599 -7.835583,6.71622"
           id="path2886"
           inkscape:path-effect="#path-effect2904"
           inkscape:original-d="m 29.47671,236.5599 c -2.611596,2.23901 -5.223457,4.47775 -7.835583,6.71622" />
        <path
           style="fill:none;stroke:#000000;stroke-width:2.3464;stroke-linecap:butt;stroke-linejoin:miter;stroke-miterlimit:4;stroke-dasharray:none;stroke-opacity:1"
           d="m 176.27006,244.92466 -6.71622,-7.83558"
           id="path2888"
           inkscape:path-effect="#path-effect2908"
           inkscape:original-d="m 176.27006,244.92466 c -2.23901,-2.61159 -4.47775,-5.22345 -6.71622,-7.83558" />
        <path
           style="fill:none;stroke:#000000;stroke-width:2.3464;stroke-linecap:butt;stroke-linejoin:miter;stroke-miterlimit:4;stroke-dasharray:none;stroke-opacity:1"
           d="m 176.82972,48.206206 -7.83554,6.71622"
           id="path2890"
           inkscape:path-effect="#path-effect2912"
           inkscape:original-d="m 176.82972,48.206206 c -2.61158,2.23901 -5.22342,4.47775 -7.83554,6.71622" />
        <path
           style="fill:none;stroke:#000000;stroke-width:2.3464;stroke-linecap:butt;stroke-linejoin:miter;stroke-miterlimit:4;stroke-dasharray:none;stroke-opacity:1"
           d="m 22.974172,48.704903 6.71622,7.835495"
           id="path2892"
           inkscape:path-effect="#path-effect2916"
           inkscape:original-d="m 22.974172,48.704903 c 2.23901,2.611565 4.47775,5.22339 6.71622,7.835495" />
        <rect
           style="fill:none;stroke:#000000;stroke-width:2.3464;stroke-linecap:round;stroke-linejoin:round;stroke-miterlimit:4;stroke-dasharray:none;stroke-opacity:0.955017;paint-order:stroke markers fill"
           id="rect2894"
           width="17.536777"
           height="43.282253"
           x="125.74241"
           y="62.684647"
           ry="8.7683887" />
        <rect
           style="fill:none;stroke:#000000;stroke-width:2.3464;stroke-linecap:round;stroke-linejoin:round;stroke-miterlimit:4;stroke-dasharray:none;stroke-opacity:0.955017;paint-order:stroke markers fill"
           id="rect2896"
           width="17.163651"
           height="8.9549484"
           x="126.11554"
           y="77.982681"
           ry="4.2909126" />
        <rect
           style="fill:none;stroke:#000000;stroke-width:2.3464;stroke-linecap:round;stroke-linejoin:round;stroke-miterlimit:4;stroke-dasharray:none;stroke-opacity:0.955017;paint-order:stroke markers fill"
           id="rect2898"
           width="92.161354"
           height="89.549492"
           x="57.087803"
           y="109.69814"
           ry="4.2909064" />
      </g>
      <path
         style="fill:#535d6c;stroke:#000000;stroke-width:3.0411;stroke-linecap:round;stroke-linejoin:round;stroke-opacity:0.955017;paint-order:stroke markers fill"
         d="M 566.28636,940.88525 V 812.01584 h 92.8414 92.8414 v 128.86941 128.86945 h -92.8414 -92.8414 z m 160.32042,76.71695 2.26751,-2.2675 v -61.97822 -61.97825 l -2.26751,-2.2675 -2.26749,-2.26749 h -60.48352 -60.48351 l -1.91464,2.43407 c -1.89354,2.40725 -1.91464,3.11328 -1.91464,64.07917 0,60.96592 0.0211,61.67192 1.91464,64.07922 l 1.91464,2.434 h 60.48351 60.48352 z M 714.1879,882.89869 c 5.99816,-4.00703 6.37099,-5.83492 6.3556,-31.15966 -0.0132,-21.71868 -0.0971,-22.77837 -2.07711,-26.23199 -5.45507,-9.51509 -18.99383,-9.04384 -23.77244,0.82745 -1.69006,3.49121 -1.84755,5.7028 -1.84624,25.92715 9.2e-4,19.20646 0.21357,22.53259 1.61664,25.32523 2.31854,4.61476 6.93408,7.40878 12.23885,7.40878 2.98026,0 5.33206,-0.65889 7.4847,-2.09696 z"
         id="path3304"
         transform="scale(0.26458333)" />
      <path
         style="fill:#373748;stroke:#000000;stroke-width:3.0411;stroke-linecap:round;stroke-linejoin:round;stroke-opacity:0.955017;paint-order:stroke markers fill"
         d="m 760.05237,1076.2458 -4.38803,-5.5031 V 940.60011 810.45746 l 4.76806,-4.02048 4.76806,-4.02049 3.20412,3.64493 c 3.97676,4.52387 7.27901,11.48831 8.49998,17.92648 0.5938,3.13113 0.93086,46.27024 0.93086,119.13883 0,122.69367 0.1266,119.17347 -4.62024,128.47797 -1.89128,3.7072 -7.09365,10.1655 -8.17764,10.1517 -0.32843,0 -2.57176,-2.4839 -4.98517,-5.5106 z"
         id="path3470"
         transform="scale(0.26458333)" />
      <path
         style="fill:#373748;stroke:#000000;stroke-width:3.0411;stroke-linecap:round;stroke-linejoin:round;stroke-opacity:0.955017;paint-order:stroke markers fill"
         d="m 560.97454,804.65921 c -2.81371,-3.56757 -2.64682,-4.32524 1.40841,-6.39407 7.43525,-3.79318 10.84727,-3.91486 101.36379,-3.61506 81.66526,0.27049 87.09799,0.38868 91.22367,1.9847 2.41283,0.93339 4.66692,2.15006 5.0091,2.70372 0.34217,0.55365 -1.16578,2.59328 -3.35102,4.5325 l -3.97315,3.52586 -94.80113,-0.0511 -94.80113,-0.0511 z"
         id="path3678"
         transform="scale(0.26458333)" />
      <path
         style="fill:#373748;stroke:#000000;stroke-width:3.0411;stroke-linecap:round;stroke-linejoin:round;stroke-opacity:0.955017;paint-order:stroke markers fill"
         d="m 569.74682,1089.0752 c -3.85151,-0.9077 -12.2718,-4.9498 -13.09882,-6.2879 -0.29213,-0.4727 1.3998,-2.5592 3.75987,-4.6366 l 4.29102,-3.7771 h 94.04628 94.04628 l 4.2766,5.25 4.2766,5.25 -2.58625,1.3551 c -7.23541,3.791 -8.28757,3.8309 -98.70684,3.7457 -47.76021,-0.045 -88.39734,-0.4497 -90.30474,-0.8992 z"
         id="path3809"
         transform="scale(0.26458333)" />
      <path
         style="fill:#373748;stroke:#000000;stroke-width:3.0411;stroke-linecap:round;stroke-linejoin:round;stroke-opacity:0.955017;paint-order:stroke markers fill"
         d="m 550.2018,1075.9488 c -1.28475,-1.6844 -3.28372,-5.1182 -4.44216,-7.6307 l -2.10626,-4.5681 V 942.25151 820.75304 l 2.95086,-5.99404 c 1.62297,-3.29672 4.12458,-7.11854 5.55915,-8.49294 l 2.6083,-2.49891 3.44784,4.25175 3.44785,4.25175 V 941.79184 1071.313 l -4.56483,3.8492 -4.56484,3.8491 z"
         id="path3941"
         transform="scale(0.26458333)" />
      <path
         style="fill:#939dac;stroke:#000000;stroke-width:3.0411;stroke-linecap:round;stroke-linejoin:round;stroke-opacity:0.955017;paint-order:stroke markers fill"
         d="m 604.76703,1014.4852 c -1.38937,-1.5353 -1.52887,-7.1274 -1.52887,-61.28923 0,-56.56612 0.086,-59.67764 1.68938,-61.12868 1.53386,-1.38812 6.97679,-1.52887 59.12288,-1.52887 56.20178,0 57.47313,0.0396 59.2811,1.84759 1.80896,1.80896 1.84759,3.07931 1.84759,60.76492 0,51.82967 -0.173,59.16437 -1.43808,60.97047 l -1.43808,2.0531 h -58.00352 c -55.01967,0 -58.08218,-0.087 -59.5324,-1.6893 z"
         id="path4513"
         transform="scale(0.26458333)" />
      <path
         style="fill:#373e48;stroke:#000000;stroke-width:3.0411;stroke-linecap:round;stroke-linejoin:round;stroke-opacity:0.955017;paint-order:stroke markers fill"
         d="m 696.7764,835.48964 c 0.50103,-6.23124 2.2921,-9.71186 5.82615,-11.32208 7.87514,-3.58816 14.26429,2.02553 14.26102,12.53012 l -10e-4,4.4177 H 706.5935 696.32442 Z"
         id="path4687"
         transform="scale(0.26458333)" />
      <path
         style="fill:#373e48;stroke:#000000;stroke-width:3.0411;stroke-linecap:round;stroke-linejoin:round;stroke-opacity:0.955017;paint-order:stroke markers fill"
         d="m 703.09708,880.16961 c -4.64485,-2.46553 -5.98068,-5.6273 -6.39675,-15.14044 l -0.38744,-8.8585 2.06565,1.1055 c 1.31135,0.70181 5.09361,0.98902 10.35769,0.78651 l 8.29203,-0.31899 -0.3126,8.52881 c -0.29524,8.05502 -0.46656,8.68249 -3.08399,11.29522 -3.24145,3.23563 -7.4039,4.26369 -10.53459,2.60189 z"
         id="path4726"
         transform="scale(0.26458333)" />
      <path
         style="fill:#6f7c91;stroke:#000000;stroke-width:3.0411;stroke-linecap:round;stroke-linejoin:round;stroke-opacity:0.955017;paint-order:stroke markers fill"
         d="m 698.57381,852.47806 c -1.42496,-1.42495 -1.42496,-4.67209 0,-6.09705 0.68337,-0.68337 4.03694,-1.10855 8.74355,-1.10855 6.60303,0 7.76425,0.24152 8.59129,1.78686 1.29923,2.42762 1.20693,3.37331 -0.49538,5.07562 -1.80477,1.80477 -15.10677,2.07581 -16.83946,0.34312 z"
         id="path4802"
         transform="scale(0.26458333)" />
    </g>
    <g
       id="g1442">
      <g
         id="g2805">
        <g
           id="g985"
           transform="matrix(0.36021016,0,0,0.38253819,0.70102721,197.80722)"
           style="stroke-width:2.3464;stroke-miterlimit:4;stroke-dasharray:none">
          <rect
             style="fill:none;stroke:#000000;stroke-width:2.3464;stroke-linecap:round;stroke-linejoin:round;stroke-miterlimit:4;stroke-dasharray:none;stroke-opacity:0.955017;paint-order:stroke markers fill"
             id="rect967"
             width="139.54796"
             height="181.33772"
             x="29.476711"
             y="55.222187" />
          <rect
             style="fill:none;stroke:#000000;stroke-width:2.3464;stroke-linecap:round;stroke-linejoin:round;stroke-miterlimit:4;stroke-dasharray:none;stroke-opacity:0.955017;paint-order:stroke markers fill"
             id="rect969"
             width="175.36777"
             height="207.08319"
             x="12.686177"
             y="43.282253"
             ry="26.118603" />
          <path
             style="fill:none;stroke:#000000;stroke-width:2.3464;stroke-linecap:butt;stroke-linejoin:miter;stroke-miterlimit:4;stroke-dasharray:none;stroke-opacity:1"
             d="m 29.47671,236.5599 -7.835583,6.71622"
             id="path971"
             inkscape:path-effect="#path-effect989"
             inkscape:original-d="m 29.47671,236.5599 c -2.611596,2.23901 -5.223457,4.47775 -7.835583,6.71622" />
          <path
             style="fill:none;stroke:#000000;stroke-width:2.3464;stroke-linecap:butt;stroke-linejoin:miter;stroke-miterlimit:4;stroke-dasharray:none;stroke-opacity:1"
             d="m 176.27006,244.92466 -6.71622,-7.83558"
             id="path973"
             inkscape:path-effect="#path-effect993"
             inkscape:original-d="m 176.27006,244.92466 c -2.23901,-2.61159 -4.47775,-5.22345 -6.71622,-7.83558" />
          <path
             style="fill:none;stroke:#000000;stroke-width:2.3464;stroke-linecap:butt;stroke-linejoin:miter;stroke-miterlimit:4;stroke-dasharray:none;stroke-opacity:1"
             d="m 176.82972,48.206206 -7.83554,6.71622"
             id="path975"
             inkscape:path-effect="#path-effect997"
             inkscape:original-d="m 176.82972,48.206206 c -2.61158,2.23901 -5.22342,4.47775 -7.83554,6.71622" />
          <path
             style="fill:none;stroke:#000000;stroke-width:2.3464;stroke-linecap:butt;stroke-linejoin:miter;stroke-miterlimit:4;stroke-dasharray:none;stroke-opacity:1"
             d="m 22.974172,48.704903 6.71622,7.835495"
             id="path977"
             inkscape:path-effect="#path-effect1001"
             inkscape:original-d="m 22.974172,48.704903 c 2.23901,2.611565 4.47775,5.22339 6.71622,7.835495" />
          <rect
             style="fill:none;stroke:#000000;stroke-width:2.3464;stroke-linecap:round;stroke-linejoin:round;stroke-miterlimit:4;stroke-dasharray:none;stroke-opacity:0.955017;paint-order:stroke markers fill"
             id="rect979"
             width="17.536777"
             height="43.282253"
             x="125.74241"
             y="62.684647"
             ry="8.7683887" />
          <rect
             style="fill:none;stroke:#000000;stroke-width:2.3464;stroke-linecap:round;stroke-linejoin:round;stroke-miterlimit:4;stroke-dasharray:none;stroke-opacity:0.955017;paint-order:stroke markers fill"
             id="rect981"
             width="17.163651"
             height="8.9549484"
             x="126.11554"
             y="77.982681"
             ry="4.2909126" />
          <rect
             style="fill:none;stroke:#000000;stroke-width:2.3464;stroke-linecap:round;stroke-linejoin:round;stroke-miterlimit:4;stroke-dasharray:none;stroke-opacity:0.955017;paint-order:stroke markers fill"
             id="rect983"
             width="92.161354"
             height="89.549492"
             x="57.087803"
             y="109.69814"
             ry="4.2909064" />
        </g>
        <path
           style="fill:#ffffff;stroke:#000000;stroke-width:3.0411;stroke-linecap:round;stroke-linejoin:round;stroke-opacity:0.955017;paint-order:stroke markers fill"
           d="M 45.265957,958.43735 V 829.56794 h 92.841403 92.8414 v 128.86941 128.86945 h -92.8414 -92.841403 z m 160.320423,76.71695 2.2675,-2.2675 v -61.97821 -61.97825 l -2.2675,-2.2675 -2.26749,-2.2675 H 142.83537 82.351857 l -1.91464,2.43407 c -1.893543,2.40725 -1.914639,3.11329 -1.914639,64.07918 0,60.96591 0.0211,61.67191 1.914639,64.07921 l 1.91464,2.434 h 60.483513 60.48352 z M 193.1675,900.4508 c 5.99816,-4.00703 6.37099,-5.83493 6.3556,-31.15967 -0.0132,-21.71867 -0.0971,-22.77837 -2.07711,-26.23199 -5.45507,-9.51508 -18.99383,-9.04384 -23.77244,0.82746 -1.69006,3.49121 -1.84755,5.7028 -1.84624,25.92714 9.2e-4,19.20647 0.21357,22.5326 1.61664,25.32524 2.31854,4.61476 6.93408,7.40877 12.23885,7.40877 2.98026,0 5.33206,-0.65889 7.4847,-2.09695 z"
           id="path1422"
           transform="scale(0.26458333)" />
        <path
           style="fill:#ffffff;stroke:#000000;stroke-width:3.0411;stroke-linecap:round;stroke-linejoin:round;stroke-opacity:0.955017;paint-order:stroke markers fill"
           d="m 83.746628,1032.0373 c -1.389374,-1.5353 -1.52887,-7.1274 -1.52887,-61.28923 0,-56.56611 0.08599,-59.67763 1.689382,-61.12868 1.533855,-1.38812 6.976788,-1.52887 59.12288,-1.52887 56.20178,0 57.47312,0.0396 59.28109,1.84759 1.80897,1.80897 1.84759,3.07932 1.84759,60.76493 0,51.82966 -0.173,59.16436 -1.43807,60.97046 l -1.43808,2.0531 h -58.00352 c -55.019668,0 -58.082182,-0.087 -59.532402,-1.6893 z"
           id="path1527"
           transform="scale(0.26458333)" />
        <path
           style="fill:#ffffff;stroke:#000000;stroke-width:3.0411;stroke-linecap:round;stroke-linejoin:round;stroke-opacity:0.955017;paint-order:stroke markers fill"
           d="m 48.726422,1106.6273 c -3.851512,-0.9077 -12.271808,-4.9498 -13.098821,-6.2879 -0.292137,-0.4727 1.399802,-2.5591 3.759865,-4.6366 l 4.291023,-3.7771 h 94.046281 94.04628 l 4.2766,5.25 4.27659,5.25 -2.58624,1.3551 c -7.23541,3.791 -8.28757,3.8309 -98.70685,3.7457 -47.7602,-0.045 -88.39733,-0.4496 -90.304728,-0.8992 z"
           id="path1633"
           transform="scale(0.26458333)" />
        <path
           style="fill:#ffffff;stroke:#000000;stroke-width:3.0411;stroke-linecap:round;stroke-linejoin:round;stroke-opacity:0.955017;paint-order:stroke markers fill"
           d="m 239.03197,1093.7979 -4.38803,-5.503 V 958.15221 828.00957 l 4.76806,-4.02049 4.76806,-4.02048 3.20412,3.64493 c 3.97676,4.52386 7.279,11.48831 8.49998,17.92648 0.5938,3.13113 0.93086,46.27024 0.93086,119.13883 0,122.69366 0.12659,119.17346 -4.62024,128.47796 -1.89128,3.7072 -7.09365,10.1655 -8.17764,10.1517 -0.32843,0 -2.57176,-2.4839 -4.98517,-5.5106 z"
           id="path1740"
           transform="scale(0.26458333)" />
        <path
           style="fill:#ffffff;stroke:#000000;stroke-width:3.0411;stroke-linecap:round;stroke-linejoin:round;stroke-opacity:0.955017;paint-order:stroke markers fill"
           d="m 29.181398,1093.5009 c -1.28475,-1.6844 -3.283723,-5.1182 -4.442164,-7.6307 l -2.106256,-4.5681 V 959.80362 838.30515 l 2.950855,-5.99404 c 1.622971,-3.29672 4.12459,-7.11855 5.559154,-8.49295 l 2.608298,-2.4989 3.447848,4.25174 3.447849,4.25175 v 129.5212 129.52115 l -4.564838,3.8492 -4.564838,3.8491 z"
           id="path1848"
           transform="scale(0.26458333)" />
        <path
           style="fill:#ffffff;stroke:#000000;stroke-width:3.0411;stroke-linecap:round;stroke-linejoin:round;stroke-opacity:0.955017;paint-order:stroke markers fill"
           d="m 39.954135,822.21131 c -2.813708,-3.56757 -2.646817,-4.32524 1.408416,-6.39406 7.435242,-3.79318 10.847272,-3.91487 101.363779,-3.61506 81.66527,0.27048 87.098,0.38868 91.22368,1.98469 2.41283,0.9334 4.66691,2.15007 5.0091,2.70372 0.34217,0.55365 -1.16579,2.59328 -3.35102,4.53251 l -3.97315,3.52586 -94.80113,-0.0511 -94.801136,-0.0511 z"
           id="path2223"
           transform="scale(0.26458333)" />
        <path
           style="fill:#ffffff;stroke:#000000;stroke-width:3.0411;stroke-linecap:round;stroke-linejoin:round;stroke-opacity:0.955017;paint-order:stroke markers fill"
           d="m 175.756,853.04175 c 0.50103,-6.23124 2.2921,-9.71187 5.82615,-11.32209 7.87513,-3.58815 14.26429,2.02554 14.26102,12.53013 l -10e-4,4.4177 h -10.26908 -10.26907 z"
           id="path2333"
           transform="scale(0.26458333)" />
        <path
           style="fill:#ffffff;stroke:#000000;stroke-width:3.0411;stroke-linecap:round;stroke-linejoin:round;stroke-opacity:0.955017;paint-order:stroke markers fill"
           d="m 177.55341,870.03017 c -1.42496,-1.42496 -1.42496,-4.6721 0,-6.09705 0.68337,-0.68337 4.03694,-1.10855 8.74355,-1.10855 6.60303,0 7.76425,0.24151 8.59129,1.78685 1.29922,2.42763 1.20692,3.37332 -0.49538,5.07562 -1.80477,1.80478 -15.10677,2.07582 -16.83946,0.34313 z"
           id="path2444"
           transform="scale(0.26458333)" />
        <path
           style="fill:#ffffff;stroke:#000000;stroke-width:3.0411;stroke-linecap:round;stroke-linejoin:round;stroke-opacity:0.955017;paint-order:stroke markers fill"
           d="m 182.07668,897.72171 c -4.64485,-2.46553 -5.98068,-5.62729 -6.39675,-15.14043 l -0.38745,-8.85851 2.06566,1.10551 c 1.31135,0.70181 5.09361,0.98902 10.35769,0.78651 l 8.29203,-0.31899 -0.3126,8.52881 c -0.29524,8.05502 -0.46657,8.68249 -3.08399,11.29522 -3.24145,3.23562 -7.4039,4.26368 -10.53459,2.60188 z"
           id="path2556"
           transform="scale(0.26458333)" />
      </g>
      <path
         style="fill:#000000;stroke-width:0.0592928"
         d="m 35.726014,265.24648 c -4.420979,-0.37745 -8.326968,-2.29995 -10.186762,-5.01387 -0.420703,-0.6139 -0.854584,-1.49832 -0.908009,-1.85084 -0.03623,-0.23887 -0.06868,-0.27636 -0.418112,-0.48315 -0.863831,-0.51117 -1.164934,-1.46097 -0.724382,-2.28501 0.133299,-0.24934 0.515613,-0.56768 0.898132,-0.74788 0.118357,-0.0558 0.199901,-0.19739 0.330434,-0.574 0.265628,-0.76636 1.081941,-2.052 1.653617,-2.60432 0.593753,-0.57365 1.6776,-1.46262 2.057741,-1.68776 0.850827,-0.50391 2.402612,-1.21595 3.272035,-1.50138 2.883152,-0.94652 6.492023,-1.09912 9.617985,-0.40666 3.024437,0.66997 5.688446,2.16894 7.269184,4.0902 0.419703,0.51012 0.98789,1.48075 1.198061,2.04667 0.188479,0.50748 0.22924,0.53945 0.815502,0.63941 0.447483,0.0763 0.516172,0.21311 0.276529,0.55073 -0.102022,0.14373 -0.298858,0.38271 -0.437426,0.53107 -0.138559,0.14836 -0.251505,0.28159 -0.250993,0.29607 5.44e-4,0.0145 0.27463,0.23553 0.609151,0.49123 0.54949,0.42 0.606159,0.48163 0.586838,0.63832 -0.01804,0.146 -0.103037,0.22276 -0.537335,0.48503 -0.334427,0.20197 -0.577851,0.3116 -0.691891,0.3116 -0.147279,0 -0.188614,0.0342 -0.253783,0.20973 -0.501703,1.35166 -1.175022,2.34575 -2.281136,3.36788 -1.550012,1.43232 -3.70612,2.49769 -6.231452,3.07905 -1.461404,0.33644 -2.13422,0.4102 -3.882817,0.42565 -0.842463,0.008 -1.643961,0.003 -1.781111,-0.008 z m 6.162638,-1.94753 c 0.350747,-0.0442 1.611322,-0.3016 1.959217,-0.40002 l 0.178114,-0.0504 -0.166441,-0.0437 c -0.324196,-0.0851 -2.537871,-0.15018 -3.965731,-0.11665 -1.45074,0.0341 -2.433936,0.0892 -2.508225,0.14067 -0.150981,0.10457 0.671099,0.41655 1.332691,0.50576 0.504617,0.0681 2.528245,0.0452 3.170375,-0.0357 z m 2.592706,-1.47558 c 1.067701,-0.0666 1.406554,-0.14734 1.847082,-0.4399 0.203066,-0.13485 0.369209,-0.25581 0.369209,-0.26881 0,-0.0378 -0.422626,-0.11747 -0.961804,-0.18135 -0.912838,-0.10813 -7.839632,-0.0225 -8.674218,0.10733 -0.40221,0.0625 -0.466331,0.11479 -0.298503,0.24323 0.06868,0.0526 0.102753,0.0956 0.07569,0.0956 -0.02702,0 -0.01504,0.0442 0.0267,0.0982 0.101557,0.13143 0.387584,0.22639 0.819708,0.27213 0.963765,0.10198 5.546382,0.15163 6.796119,0.0736 z m 2.304355,-1.79717 c 0.607521,-0.10827 0.777027,-0.20171 0.808642,-0.44571 0.01402,-0.10828 0.09159,-0.239 0.180871,-0.30484 l 0.156313,-0.11524 -0.278537,-0.0821 c -0.42231,-0.12457 -1.775841,-0.16088 -5.016284,-0.13457 -4.022448,0.0326 -5.275186,0.0743 -5.514845,0.18298 -0.104085,0.0473 -0.168836,0.10876 -0.143892,0.13672 0.08895,0.0997 0.07537,0.34969 -0.0204,0.37515 -0.05261,0.014 -0.127335,0.0664 -0.166095,0.11662 -0.210509,0.27244 1.92635,0.38788 6.807028,0.36774 2.299842,-0.01 2.779507,-0.024 3.187191,-0.0967 z m 1.453938,-2.27371 c 0.09047,-0.10855 0.252333,-0.31951 0.359694,-0.46879 0.202641,-0.28174 0.326393,-0.39585 0.426461,-0.39325 0.03222,8.7e-4 0.161511,0.0952 0.287382,0.20974 0.125879,0.11449 0.313539,0.27481 0.417026,0.35623 0.103485,0.0814 0.247637,0.19982 0.320336,0.26313 l 0.132187,0.1151 0.270109,-0.13923 c 0.148555,-0.0766 0.326472,-0.18193 0.395358,-0.23413 0.143128,-0.10846 0.178697,-0.0673 -0.491496,-0.56937 -0.747632,-0.56013 -0.769709,-0.58472 -0.658922,-0.73372 0.05435,-0.073 0.114844,-0.14393 0.134496,-0.1575 0.0356,-0.0246 0.09869,-0.0994 0.369752,-0.43854 0.07837,-0.0981 0.171537,-0.19939 0.207028,-0.22517 0.133424,-0.0969 0.05482,-0.16516 -0.251993,-0.21867 -0.17409,-0.0304 -0.396162,-0.0552 -0.493489,-0.0552 -0.181761,0 -0.179753,-0.002 -0.595258,0.55514 -0.09617,0.12891 -0.185715,0.2344 -0.199002,0.2344 -0.04939,0 -0.67554,-0.59511 -0.67554,-0.64206 0,-0.0601 -0.40436,-0.0653 -0.457399,-0.006 -0.02111,0.0236 -0.127186,0.0564 -0.235754,0.0727 -0.108574,0.0163 -0.242675,0.0505 -0.298014,0.0759 -0.08665,0.0398 -0.08665,0.056 0,0.11689 0.05537,0.0389 0.180761,0.1447 0.278717,0.23516 0.09797,0.0904 0.314366,0.28123 0.480902,0.42393 0.277726,0.23798 0.406275,0.51284 0.239849,0.51284 -0.03458,0 -0.08129,0.0389 -0.10373,0.0864 -0.02245,0.0475 -0.126895,0.18628 -0.232122,0.30842 -0.248371,0.28827 -0.454777,0.53681 -0.573779,0.69084 -0.08422,0.10904 -0.08085,0.12537 0.02898,0.1405 0.06837,0.01 0.156195,0.0382 0.195214,0.0639 0.03899,0.0258 0.180643,0.0403 0.31472,0.0323 0.199743,-0.012 0.273504,-0.0502 0.408283,-0.21198 z m -22.151116,-0.0539 c 0.266967,-0.0847 0.547654,-0.32607 0.62574,-0.53816 0.146255,-0.39729 -0.03395,-1.22733 -0.320218,-1.4751 -0.351007,-0.30379 -0.525853,-0.42474 -0.614011,-0.42474 -0.05474,0 -0.09948,-0.0222 -0.09948,-0.0494 0,-0.0288 -0.238108,-0.0494 -0.571834,-0.0494 h -0.571826 l -0.308931,0.21397 c -0.180997,0.12536 -0.331622,0.28373 -0.363742,0.38244 -0.113687,0.34933 -0.03442,1.29246 0.113993,1.35598 0.03505,0.015 0.06372,0.0692 0.06372,0.12056 0,0.14284 0.569856,0.53084 0.819306,0.55784 0.330954,0.0358 0.972737,-0.0134 1.227281,-0.0941 z m -1.34203,-0.40246 c -0.269125,-0.2063 -0.490826,-0.65525 -0.490826,-0.99395 0,-0.37782 0.48369,-0.79487 0.92191,-0.79487 0.213621,0 0.309522,0.0371 0.541747,0.20974 0.347477,0.25826 0.413504,0.34019 0.531168,0.65913 0.121168,0.32842 -0.0055,0.6539 -0.345525,0.89005 -0.209816,0.14558 -0.283554,0.1656 -0.610057,0.1656 -0.314737,0 -0.39839,-0.0207 -0.548417,-0.1357 z m 12.052755,0.23926 c 0.283444,-0.16183 0.530215,-0.47712 0.602449,-0.76973 0.10377,-0.4204 0.178555,-0.74958 0.221402,-0.97459 l 0.04466,-0.2344 H 37.26686 36.86595 v 0.61392 c 0,0.35605 -0.02993,0.62672 -0.07128,0.64441 -0.03914,0.0168 -0.07128,0.064 -0.07128,0.10514 0,0.1148 -0.183186,0.21562 -0.391845,0.21562 -0.327858,0 -0.391845,-0.0966 -0.391845,-0.59188 0,-0.248 0.02756,-0.48829 0.06136,-0.534 0.03371,-0.0457 0.0798,-0.16638 0.102384,-0.26816 l 0.04104,-0.18505 H 35.802007 35.45953 l -0.03875,0.2344 c -0.02134,0.12891 -0.02087,0.34088 7.88e-4,0.47102 0.02496,0.14828 0.0055,0.28055 -0.05103,0.35421 -0.05427,0.0703 -0.07104,0.17362 -0.04159,0.25682 0.02709,0.0766 0.06711,0.20091 0.08889,0.27625 0.06585,0.22738 0.586507,0.51455 0.950698,0.52436 0.101313,0.003 0.289075,-0.0576 0.430462,-0.13834 z m 3.596113,-0.0542 c 0.01095,-0.095 0.04324,-0.42789 0.0716,-0.73977 0.05214,-0.57304 0.131022,-0.74383 0.387197,-0.83879 0.324716,-0.12037 0.633946,0.18804 0.55049,0.54902 -0.02111,0.0913 -0.07199,0.32549 -0.113057,0.52045 -0.04112,0.19495 -0.09533,0.41146 -0.120577,0.48112 -0.04521,0.12471 -0.0397,0.12666 0.353668,0.12666 h 0.399571 v -0.79199 c 0,-0.86563 -0.03143,-0.955 -0.419687,-1.1942 -0.282696,-0.17416 -0.835925,-0.19383 -1.040827,-0.037 -0.161298,0.12345 -0.306465,0.12345 -0.534327,0 -0.237517,-0.12869 -0.756508,-0.12993 -0.996168,-0.002 -0.122247,0.0651 -0.203302,0.0789 -0.262508,0.0449 -0.0471,-0.0271 -0.187172,-0.0422 -0.311239,-0.0335 l -0.225577,0.0157 0.0098,0.81422 c 0.0055,0.44782 0.02875,0.89749 0.0519,0.99926 0.04127,0.18127 0.04852,0.18505 0.354448,0.18505 h 0.312334 l -0.05096,-0.20972 c -0.103834,-0.42761 -0.06332,-0.98715 0.08643,-1.19325 0.309939,-0.42661 0.892745,-0.43895 0.989245,-0.0209 0.05246,0.22738 -0.0152,0.87566 -0.09975,0.95512 -0.0289,0.0272 -0.06947,0.14208 -0.09025,0.2554 -0.0371,0.20253 -0.03331,0.20687 0.221923,0.2545 0.387583,0.0723 0.453981,0.0528 0.476262,-0.1398 z m 6.216921,0.0298 c 0.377541,-0.13523 0.584065,-0.43977 0.584065,-0.86129 0,-0.41586 -0.172144,-0.71511 -0.562548,-0.978 -0.243573,-0.164 -0.83991,-0.164 -1.083484,0 -0.407306,0.27426 -0.477413,0.38695 -0.541692,0.87077 -0.03733,0.28121 0.09414,0.77924 0.228334,0.86477 0.283144,0.18046 1.008408,0.23517 1.375325,0.10375 z m -0.809296,-0.3639 c -0.457297,-0.266 -0.398894,-0.89476 0.106258,-1.1439 0.261824,-0.12913 0.418743,-0.0778 0.639798,0.20896 0.263927,0.34248 0.158338,0.76157 -0.237107,0.94104 -0.225285,0.10224 -0.324723,0.10105 -0.508949,-0.006 z m -17.577572,-0.32708 c -0.05135,-0.81034 -0.02867,-0.89876 0.239754,-0.93594 0.267959,-0.0371 0.42138,0.007 0.42138,0.11918 0,0.0498 0.03205,0.10422 0.07128,0.12099 0.03923,0.0168 0.07128,0.1069 0.07128,0.20029 0,0.15961 0.01433,0.16981 0.237919,0.16981 0.334293,0 0.449303,-0.17499 0.318399,-0.48442 -0.134196,-0.3172 -0.465291,-0.55186 -0.778673,-0.55186 -0.136323,0 -0.278316,0.0197 -0.31554,0.0438 -0.03725,0.0241 -0.139819,0.0589 -0.227986,0.0774 -0.118649,0.0249 -0.160299,0.0135 -0.160299,-0.0438 0,-0.0928 -0.139048,-0.0988 -0.397838,-0.0171 -0.18985,0.0599 -0.190591,0.0622 -0.14627,0.45644 0.02449,0.21793 0.04474,0.64472 0.04498,0.94842 l 5.35e-4,0.55216 0.267171,0.0161 c 0.146941,0.009 0.295936,0.007 0.331104,-0.005 0.03607,-0.0115 0.04608,-0.30216 0.023,-0.6669 z m 3.782756,0.66617 c 0.108213,-0.0401 0.117995,-0.15903 0.09965,-1.21186 l -0.02032,-1.16743 -0.264636,0.0153 -0.264634,0.0153 v 0.27141 c 0,0.14927 -0.02457,0.29761 -0.05458,0.32963 -0.03001,0.0321 -0.227049,0.0731 -0.437881,0.0914 -0.273142,0.0236 -0.457132,0.0753 -0.640075,0.17975 -0.223355,0.12752 -0.256751,0.17463 -0.256751,0.36215 0,0.11854 -0.03205,0.22926 -0.07128,0.24604 -0.03922,0.0168 -0.07128,0.12912 -0.07128,0.24965 0,0.12054 0.03205,0.21914 0.07128,0.21914 0.03923,0 0.07128,0.0322 0.07128,0.0715 0,0.10905 0.432203,0.31299 0.712442,0.33618 0.480603,0.0397 1.007887,0.036 1.12678,-0.008 z m -1.020505,-0.31817 c -0.445901,-0.17714 -0.489898,-0.21969 -0.489898,-0.47369 0,-0.2113 0.02969,-0.26391 0.209619,-0.37107 0.115294,-0.0686 0.250136,-0.1249 0.299646,-0.12493 0.04954,-4e-5 0.14946,-0.0258 0.222111,-0.0572 0.268251,-0.11604 0.339704,-0.029 0.387182,0.47156 0.02466,0.26004 0.02623,0.50634 0.0039,0.54732 -0.04875,0.0879 -0.419121,0.0926 -0.632213,0.008 z m 2.487407,-0.30075 c -0.06309,-0.78676 -0.02205,-0.94382 0.256933,-0.98247 0.11623,-0.0161 0.252119,-0.0185 0.301976,-0.005 0.10269,0.0272 0.267132,0.35584 0.267132,0.5337 0,0.10682 0.02181,0.11484 0.231546,0.0854 0.223246,-0.0314 0.232335,-0.0422 0.253585,-0.29996 0.03584,-0.43481 -0.278347,-0.74061 -0.760927,-0.74061 -0.155257,0 -0.292966,0.0192 -0.306025,0.0428 -0.01308,0.0235 -0.09589,0.0584 -0.184053,0.0774 -0.119255,0.0256 -0.160298,0.0147 -0.160298,-0.0429 0,-0.0915 -0.09036,-0.0968 -0.386954,-0.0225 l -0.21896,0.0548 0.01843,0.40161 c 0.01016,0.22089 0.03733,0.65022 0.06041,0.95406 l 0.04191,0.55245 0.260382,0.0157 c 0.143214,0.009 0.285829,0.008 0.316926,-0.002 0.03111,-0.01 0.03465,-0.28979 0.008,-0.62283 z m 10.201011,0.614 c 0.09612,0 0.299409,-0.0882 0.488771,-0.21212 l 0.324203,-0.21212 v -0.43005 c 0,-0.25374 -0.03646,-0.47417 -0.08906,-0.53768 -0.219748,-0.26559 -0.563342,-0.42156 -0.979604,-0.44467 -0.247394,-0.0137 -0.249639,-0.016 -0.284979,-0.28525 l -0.0356,-0.27141 -0.267163,-0.0154 -0.267164,-0.0153 v 1.20854 1.20852 l 0.160298,0.0239 c 0.08817,0.013 0.301032,0.0146 0.473026,0.003 0.17201,-0.0112 0.386788,-0.0204 0.477295,-0.0204 z m -0.611916,-0.83285 c 0,-0.65017 0.04608,-0.72653 0.402849,-0.66771 0.399697,0.0658 0.665821,0.33877 0.665821,0.68269 0,0.15407 -0.05293,0.24773 -0.218922,0.38718 -0.192598,0.16185 -0.256837,0.18396 -0.534326,0.18396 h -0.315422 z m -8.840233,-2.55411 c 0.0163,-0.01 -1.506521,-0.0129 -3.384108,-0.007 -2.869439,0.01 -3.124102,0.0153 -1.597057,0.0375 1.755741,0.0255 4.920478,0.006 4.981165,-0.0306 z m 1.097031,-0.71243 c 1.249856,-0.042 1.642165,-0.0717 1.874956,-0.14269 0.252049,-0.0768 0.289525,-0.10731 0.260587,-0.21217 -0.02151,-0.078 0.0315,-0.1941 0.145656,-0.31938 l 0.179453,-0.19691 -0.278253,-0.0577 c -0.438425,-0.091 -2.204894,-0.15043 -5.482064,-0.18447 -2.62674,-0.0272 -3.134476,-0.0205 -3.832401,0.0514 -1.016142,0.10452 -1.139288,0.14255 -1.198659,0.37003 -0.02552,0.0976 -0.09287,0.24111 -0.149736,0.31887 -0.127801,0.17472 -0.07992,0.21257 0.420246,0.33221 0.344391,0.0824 0.657725,0.0908 3.429341,0.0923 1.677671,8.7e-4 3.761569,-0.0223 4.630874,-0.0513 z m 0.939372,-1.96854 c 1.237553,-0.0721 1.71658,-0.18947 1.469966,-0.36028 -0.04442,-0.0307 -0.0807,-0.10514 -0.0807,-0.16531 0,-0.19884 -0.427462,-0.25665 -2.316052,-0.31314 -3.00221,-0.0899 -5.787625,-0.0483 -6.520221,0.0973 -0.316461,0.0629 -0.883198,0.4824 -0.774364,0.57322 0.07301,0.061 0.561578,0.18591 0.918823,0.23503 0.302859,0.0416 6.397579,-0.0141 7.302548,-0.0668 z m -0.569951,-1.77934 c 1.064818,-0.0535 1.376781,-0.11236 1.23285,-0.23247 -0.125555,-0.1048 -0.927431,-0.34343 -1.365825,-0.40646 -0.363553,-0.0522 -1.542987,-0.0401 -2.538691,0.0264 -0.388332,0.0259 -1.970417,0.34435 -2.095499,0.4218 -0.305734,0.18932 2.534933,0.30301 4.767165,0.19078 z"
         id="path1218" />
    </g>
    <path
       style="fill:#000000;stroke-width:0.0592928"
       d="m 117.11814,321.21884 c -4.42098,-0.37745 -8.32697,-2.29995 -10.18677,-5.01387 -0.4207,-0.6139 -0.85458,-1.49832 -0.90801,-1.85084 -0.0362,-0.23887 -0.0687,-0.27636 -0.41811,-0.48315 -0.86383,-0.51117 -1.16493,-1.46097 -0.72438,-2.28501 0.1333,-0.24934 0.51561,-0.56768 0.89813,-0.74788 0.11836,-0.0558 0.1999,-0.19739 0.33044,-0.574 0.26562,-0.76636 1.08194,-2.052 1.65361,-2.60432 0.59376,-0.57365 1.6776,-1.46262 2.05774,-1.68776 0.85083,-0.50391 2.40262,-1.21595 3.27204,-1.50138 2.88315,-0.94652 6.49202,-1.09912 9.61798,-0.40666 3.02444,0.66997 5.68845,2.16894 7.26919,4.0902 0.4197,0.51012 0.98789,1.48075 1.19806,2.04667 0.18848,0.50748 0.22924,0.53945 0.8155,0.63941 0.44748,0.0763 0.51617,0.21311 0.27653,0.55073 -0.10202,0.14373 -0.29886,0.38271 -0.43743,0.53107 -0.13855,0.14836 -0.2515,0.28159 -0.25099,0.29607 5.5e-4,0.0145 0.27463,0.23553 0.60915,0.49123 0.54949,0.42 0.60616,0.48163 0.58684,0.63832 -0.018,0.146 -0.10304,0.22276 -0.53733,0.48503 -0.33443,0.20197 -0.57786,0.3116 -0.6919,0.3116 -0.14727,0 -0.18861,0.0342 -0.25378,0.20973 -0.5017,1.35166 -1.17502,2.34575 -2.28113,3.36788 -1.55002,1.43232 -3.70612,2.49769 -6.23146,3.07905 -1.4614,0.33644 -2.13422,0.4102 -3.88281,0.42565 -0.84247,0.008 -1.64396,0.003 -1.78111,-0.008 z m 6.16263,-1.94753 c 0.35075,-0.0442 1.61133,-0.3016 1.95922,-0.40002 l 0.17811,-0.0504 -0.16644,-0.0437 c -0.32419,-0.0851 -2.53787,-0.15018 -3.96573,-0.11665 -1.45074,0.0341 -2.43393,0.0892 -2.50822,0.14067 -0.15098,0.10457 0.6711,0.41655 1.33269,0.50576 0.50462,0.0681 2.52824,0.0452 3.17037,-0.0357 z m 2.59271,-1.47558 c 1.0677,-0.0666 1.40655,-0.14734 1.84708,-0.4399 0.20307,-0.13485 0.36921,-0.25581 0.36921,-0.26881 0,-0.0378 -0.42263,-0.11747 -0.9618,-0.18135 -0.91284,-0.10813 -7.83964,-0.0225 -8.67422,0.10733 -0.40221,0.0625 -0.46633,0.11479 -0.2985,0.24323 0.0687,0.0526 0.10275,0.0956 0.0757,0.0956 -0.027,0 -0.015,0.0442 0.0267,0.0982 0.10155,0.13143 0.38758,0.22639 0.8197,0.27213 0.96377,0.10198 5.54639,0.15163 6.79612,0.0736 z m 2.30435,-1.79717 c 0.60753,-0.10827 0.77703,-0.20171 0.80865,-0.44571 0.014,-0.10828 0.0916,-0.239 0.18087,-0.30484 l 0.15631,-0.11524 -0.27854,-0.0821 c -0.42231,-0.12457 -1.77584,-0.16088 -5.01628,-0.13457 -4.02245,0.0326 -5.27519,0.0743 -5.51485,0.18298 -0.10408,0.0473 -0.16883,0.10876 -0.14389,0.13672 0.0889,0.0997 0.0754,0.34969 -0.0204,0.37515 -0.0526,0.014 -0.12733,0.0664 -0.16609,0.11662 -0.21051,0.27244 1.92635,0.38788 6.80703,0.36774 2.29984,-0.01 2.7795,-0.024 3.18719,-0.0967 z m 1.45394,-2.27371 c 0.0905,-0.10855 0.25234,-0.31951 0.3597,-0.46879 0.20264,-0.28174 0.32639,-0.39585 0.42646,-0.39325 0.0322,8.7e-4 0.16151,0.0952 0.28738,0.20974 0.12588,0.11449 0.31354,0.27481 0.41703,0.35623 0.10348,0.0814 0.24763,0.19982 0.32033,0.26313 l 0.13219,0.1151 0.27011,-0.13923 c 0.14855,-0.0766 0.32647,-0.18193 0.39536,-0.23413 0.14312,-0.10846 0.17869,-0.0673 -0.4915,-0.56937 -0.74763,-0.56013 -0.76971,-0.58472 -0.65892,-0.73372 0.0543,-0.073 0.11484,-0.14393 0.13449,-0.1575 0.0356,-0.0246 0.0987,-0.0994 0.36976,-0.43854 0.0784,-0.0981 0.17153,-0.19939 0.20702,-0.22517 0.13343,-0.0969 0.0548,-0.16516 -0.25199,-0.21867 -0.17409,-0.0304 -0.39616,-0.0552 -0.49349,-0.0552 -0.18176,0 -0.17975,-0.002 -0.59526,0.55514 -0.0962,0.12891 -0.18571,0.2344 -0.199,0.2344 -0.0494,0 -0.67554,-0.59511 -0.67554,-0.64206 0,-0.0601 -0.40436,-0.0653 -0.4574,-0.006 -0.0211,0.0236 -0.12718,0.0564 -0.23575,0.0727 -0.10858,0.0163 -0.24268,0.0505 -0.29802,0.0759 -0.0866,0.0398 -0.0866,0.056 0,0.11689 0.0554,0.0389 0.18077,0.1447 0.27872,0.23516 0.098,0.0904 0.31437,0.28123 0.4809,0.42393 0.27773,0.23798 0.40628,0.51284 0.23985,0.51284 -0.0346,0 -0.0813,0.0389 -0.10373,0.0864 -0.0224,0.0475 -0.12689,0.18628 -0.23212,0.30842 -0.24837,0.28827 -0.45478,0.53681 -0.57378,0.69084 -0.0842,0.10904 -0.0808,0.12537 0.029,0.1405 0.0684,0.01 0.1562,0.0382 0.19522,0.0639 0.039,0.0258 0.18064,0.0403 0.31472,0.0323 0.19974,-0.012 0.2735,-0.0502 0.40828,-0.21198 z m -22.15111,-0.0539 c 0.26696,-0.0847 0.54765,-0.32607 0.62574,-0.53816 0.14625,-0.39729 -0.034,-1.22733 -0.32022,-1.4751 -0.35101,-0.30379 -0.52585,-0.42474 -0.61401,-0.42474 -0.0547,0 -0.0995,-0.0222 -0.0995,-0.0494 0,-0.0288 -0.23811,-0.0494 -0.57184,-0.0494 h -0.57182 l -0.30893,0.21397 c -0.181,0.12536 -0.33163,0.28373 -0.36375,0.38244 -0.11368,0.34933 -0.0344,1.29246 0.114,1.35598 0.035,0.015 0.0637,0.0692 0.0637,0.12056 0,0.14284 0.56985,0.53084 0.8193,0.55784 0.33096,0.0358 0.97274,-0.0134 1.22728,-0.0941 z m -1.34203,-0.40246 c -0.26913,-0.2063 -0.49083,-0.65525 -0.49083,-0.99395 0,-0.37782 0.48369,-0.79487 0.92191,-0.79487 0.21362,0 0.30952,0.0371 0.54175,0.20974 0.34747,0.25826 0.4135,0.34019 0.53117,0.65913 0.12116,0.32842 -0.005,0.6539 -0.34553,0.89005 -0.20982,0.14558 -0.28355,0.1656 -0.61006,0.1656 -0.31473,0 -0.39839,-0.0207 -0.54841,-0.1357 z m 12.05275,0.23926 c 0.28345,-0.16183 0.53022,-0.47712 0.60245,-0.76973 0.10377,-0.4204 0.17856,-0.74958 0.2214,-0.97459 l 0.0447,-0.2344 h -0.40091 -0.40091 v 0.61392 c 0,0.35605 -0.0299,0.62672 -0.0713,0.64441 -0.0391,0.0168 -0.0713,0.064 -0.0713,0.10514 0,0.1148 -0.18318,0.21562 -0.39184,0.21562 -0.32786,0 -0.39185,-0.0966 -0.39185,-0.59188 0,-0.248 0.0276,-0.48829 0.0614,-0.534 0.0337,-0.0457 0.0798,-0.16638 0.10239,-0.26816 l 0.041,-0.18505 h -0.34248 -0.34248 l -0.0387,0.2344 c -0.0213,0.12891 -0.0209,0.34088 7.9e-4,0.47102 0.025,0.14828 0.005,0.28055 -0.051,0.35421 -0.0543,0.0703 -0.071,0.17362 -0.0416,0.25682 0.0271,0.0766 0.0671,0.20091 0.0889,0.27625 0.0659,0.22738 0.58651,0.51455 0.9507,0.52436 0.10131,0.003 0.28907,-0.0576 0.43046,-0.13834 z m 3.59611,-0.0542 c 0.011,-0.095 0.0432,-0.42789 0.0716,-0.73977 0.0521,-0.57304 0.13103,-0.74383 0.3872,-0.83879 0.32472,-0.12037 0.63395,0.18804 0.55049,0.54902 -0.0211,0.0913 -0.072,0.32549 -0.11306,0.52045 -0.0411,0.19495 -0.0953,0.41146 -0.12057,0.48112 -0.0452,0.12471 -0.0397,0.12666 0.35367,0.12666 h 0.39957 v -0.79199 c 0,-0.86563 -0.0314,-0.955 -0.41969,-1.1942 -0.2827,-0.17416 -0.83593,-0.19383 -1.04083,-0.037 -0.1613,0.12345 -0.30646,0.12345 -0.53432,0 -0.23752,-0.12869 -0.75651,-0.12993 -0.99617,-0.002 -0.12225,0.0651 -0.2033,0.0789 -0.26251,0.0449 -0.0471,-0.0271 -0.18717,-0.0422 -0.31124,-0.0335 l -0.22558,0.0157 0.01,0.81422 c 0.005,0.44782 0.0288,0.89749 0.0519,0.99926 0.0413,0.18127 0.0485,0.18505 0.35445,0.18505 h 0.31234 l -0.051,-0.20972 c -0.10384,-0.42761 -0.0633,-0.98715 0.0864,-1.19325 0.30993,-0.42661 0.89274,-0.43895 0.98924,-0.0209 0.0525,0.22738 -0.0152,0.87566 -0.0998,0.95512 -0.0289,0.0272 -0.0695,0.14208 -0.0902,0.2554 -0.0371,0.20253 -0.0333,0.20687 0.22192,0.2545 0.38759,0.0723 0.45398,0.0528 0.47627,-0.1398 z m 6.21693,0.0298 c 0.37754,-0.13523 0.58406,-0.43977 0.58406,-0.86129 0,-0.41586 -0.17214,-0.71511 -0.56255,-0.978 -0.24357,-0.164 -0.83991,-0.164 -1.08348,0 -0.40731,0.27426 -0.47741,0.38695 -0.54169,0.87077 -0.0373,0.28121 0.0941,0.77924 0.22833,0.86477 0.28314,0.18046 1.00841,0.23517 1.37533,0.10375 z m -0.8093,-0.3639 c -0.4573,-0.266 -0.39889,-0.89476 0.10626,-1.1439 0.26182,-0.12913 0.41874,-0.0778 0.6398,0.20896 0.26392,0.34248 0.15833,0.76157 -0.23711,0.94104 -0.22529,0.10224 -0.32472,0.10105 -0.50895,-0.006 z m -17.57757,-0.32708 c -0.0513,-0.81034 -0.0287,-0.89876 0.23975,-0.93594 0.26796,-0.0371 0.42138,0.007 0.42138,0.11918 0,0.0498 0.032,0.10422 0.0713,0.12099 0.0392,0.0168 0.0713,0.1069 0.0713,0.20029 0,0.15961 0.0143,0.16981 0.23792,0.16981 0.33429,0 0.4493,-0.17499 0.3184,-0.48442 -0.1342,-0.3172 -0.46529,-0.55186 -0.77867,-0.55186 -0.13633,0 -0.27832,0.0197 -0.31554,0.0438 -0.0373,0.0241 -0.13982,0.0589 -0.22799,0.0774 -0.11865,0.0249 -0.1603,0.0135 -0.1603,-0.0438 0,-0.0928 -0.13905,-0.0988 -0.39784,-0.0171 -0.18985,0.0599 -0.19059,0.0622 -0.14627,0.45644 0.0245,0.21793 0.0447,0.64472 0.045,0.94842 l 5.4e-4,0.55216 0.26717,0.0161 c 0.14694,0.009 0.29594,0.007 0.3311,-0.005 0.0361,-0.0115 0.0461,-0.30216 0.023,-0.6669 z m 3.78275,0.66617 c 0.10822,-0.0401 0.118,-0.15903 0.0997,-1.21186 l -0.0203,-1.16743 -0.26463,0.0153 -0.26464,0.0153 v 0.27141 c 0,0.14927 -0.0246,0.29761 -0.0546,0.32963 -0.03,0.0321 -0.22705,0.0731 -0.43788,0.0914 -0.27314,0.0236 -0.45713,0.0753 -0.64007,0.17975 -0.22336,0.12752 -0.25675,0.17463 -0.25675,0.36215 0,0.11854 -0.032,0.22926 -0.0713,0.24604 -0.0392,0.0168 -0.0713,0.12912 -0.0713,0.24965 0,0.12054 0.032,0.21914 0.0713,0.21914 0.0392,0 0.0713,0.0322 0.0713,0.0715 0,0.10905 0.4322,0.31299 0.71244,0.33618 0.4806,0.0397 1.00789,0.036 1.12678,-0.008 z m -1.0205,-0.31817 c -0.4459,-0.17714 -0.4899,-0.21969 -0.4899,-0.47369 0,-0.2113 0.0297,-0.26391 0.20962,-0.37107 0.11529,-0.0686 0.25014,-0.1249 0.29965,-0.12493 0.0495,-4e-5 0.14946,-0.0258 0.22211,-0.0572 0.26825,-0.11604 0.3397,-0.029 0.38718,0.47156 0.0247,0.26004 0.0262,0.50634 0.004,0.54732 -0.0488,0.0879 -0.41912,0.0926 -0.63221,0.008 z m 2.48741,-0.30075 c -0.0631,-0.78676 -0.0221,-0.94382 0.25693,-0.98247 0.11623,-0.0161 0.25212,-0.0185 0.30197,-0.005 0.10269,0.0272 0.26714,0.35584 0.26714,0.5337 0,0.10682 0.0218,0.11484 0.23154,0.0854 0.22325,-0.0314 0.23234,-0.0422 0.25359,-0.29996 0.0358,-0.43481 -0.27835,-0.74061 -0.76093,-0.74061 -0.15526,0 -0.29297,0.0192 -0.30602,0.0428 -0.0131,0.0235 -0.0959,0.0584 -0.18406,0.0774 -0.11925,0.0256 -0.1603,0.0147 -0.1603,-0.0429 0,-0.0915 -0.0904,-0.0968 -0.38695,-0.0225 l -0.21896,0.0548 0.0184,0.40161 c 0.0102,0.22089 0.0373,0.65022 0.0604,0.95406 l 0.0419,0.55245 0.26038,0.0157 c 0.14322,0.009 0.28583,0.008 0.31693,-0.002 0.0311,-0.01 0.0346,-0.28979 0.008,-0.62283 z m 10.20101,0.614 c 0.0961,0 0.29941,-0.0882 0.48877,-0.21212 l 0.3242,-0.21212 v -0.43005 c 0,-0.25374 -0.0365,-0.47417 -0.0891,-0.53768 -0.21975,-0.26559 -0.56334,-0.42156 -0.9796,-0.44467 -0.2474,-0.0137 -0.24964,-0.016 -0.28498,-0.28525 l -0.0356,-0.27141 -0.26717,-0.0154 -0.26716,-0.0153 v 1.20854 1.20852 l 0.1603,0.0239 c 0.0882,0.013 0.30103,0.0146 0.47302,0.003 0.17201,-0.0112 0.38679,-0.0204 0.4773,-0.0204 z m -0.61192,-0.83285 c 0,-0.65017 0.0461,-0.72653 0.40285,-0.66771 0.3997,0.0658 0.66582,0.33877 0.66582,0.68269 0,0.15407 -0.0529,0.24773 -0.21892,0.38718 -0.1926,0.16185 -0.25684,0.18396 -0.53433,0.18396 h -0.31542 z m -8.84023,-2.55411 c 0.0163,-0.01 -1.50652,-0.0129 -3.38411,-0.007 -2.86944,0.01 -3.1241,0.0153 -1.59706,0.0375 1.75574,0.0255 4.92048,0.006 4.98117,-0.0306 z m 1.09703,-0.71243 c 1.24985,-0.042 1.64216,-0.0717 1.87495,-0.14269 0.25205,-0.0768 0.28953,-0.10731 0.26059,-0.21217 -0.0215,-0.078 0.0315,-0.1941 0.14566,-0.31938 l 0.17945,-0.19691 -0.27825,-0.0577 c -0.43843,-0.091 -2.2049,-0.15043 -5.48207,-0.18447 -2.62674,-0.0272 -3.13447,-0.0205 -3.8324,0.0514 -1.01614,0.10452 -1.13929,0.14255 -1.19866,0.37003 -0.0255,0.0976 -0.0929,0.24111 -0.14973,0.31887 -0.1278,0.17472 -0.0799,0.21257 0.42024,0.33221 0.34439,0.0824 0.65773,0.0908 3.42934,0.0923 1.67768,8.7e-4 3.76157,-0.0223 4.63088,-0.0513 z m 0.93937,-1.96854 c 1.23755,-0.0721 1.71658,-0.18947 1.46997,-0.36028 -0.0444,-0.0307 -0.0807,-0.10514 -0.0807,-0.16531 0,-0.19884 -0.42747,-0.25665 -2.31606,-0.31314 -3.00221,-0.0899 -5.78762,-0.0483 -6.52022,0.0973 -0.31646,0.0629 -0.88319,0.4824 -0.77436,0.57322 0.073,0.061 0.56158,0.18591 0.91882,0.23503 0.30286,0.0416 6.39758,-0.0141 7.30255,-0.0668 z m -0.56995,-1.77934 c 1.06482,-0.0535 1.37678,-0.11236 1.23285,-0.23247 -0.12556,-0.1048 -0.92743,-0.34343 -1.36583,-0.40646 -0.36355,-0.0522 -1.54298,-0.0401 -2.53869,0.0264 -0.38833,0.0259 -1.97041,0.34435 -2.0955,0.4218 -0.30573,0.18932 2.53494,0.30301 4.76717,0.19078 z"
       id="path1238" />
    <g
       id="g1569">
      <g
         id="g2273">
        <g
           id="g1573"
           transform="matrix(0.36021016,0,0,0.38253819,133.80316,-12.883484)"
           style="stroke-width:2.3464;stroke-miterlimit:4;stroke-dasharray:none">
          <rect
             style="fill:none;stroke:#000000;stroke-width:2.3464;stroke-linecap:round;stroke-linejoin:round;stroke-miterlimit:4;stroke-dasharray:none;stroke-opacity:0.955017;paint-order:stroke markers fill"
             id="rect1555"
             width="139.54796"
             height="181.33772"
             x="29.476711"
             y="55.222187" />
          <rect
             style="fill:none;stroke:#000000;stroke-width:2.3464;stroke-linecap:round;stroke-linejoin:round;stroke-miterlimit:4;stroke-dasharray:none;stroke-opacity:0.955017;paint-order:stroke markers fill"
             id="rect1557"
             width="175.36777"
             height="207.08319"
             x="12.686177"
             y="43.282253"
             ry="26.118603" />
          <path
             style="fill:none;stroke:#000000;stroke-width:2.3464;stroke-linecap:butt;stroke-linejoin:miter;stroke-miterlimit:4;stroke-dasharray:none;stroke-opacity:1"
             d="m 29.47671,236.5599 -7.835583,6.71622"
             id="path1559"
             inkscape:path-effect="#path-effect1577"
             inkscape:original-d="m 29.47671,236.5599 c -2.611596,2.23901 -5.223457,4.47775 -7.835583,6.71622" />
          <path
             style="fill:none;stroke:#000000;stroke-width:2.3464;stroke-linecap:butt;stroke-linejoin:miter;stroke-miterlimit:4;stroke-dasharray:none;stroke-opacity:1"
             d="m 176.27006,244.92466 -6.71622,-7.83558"
             id="path1561"
             inkscape:path-effect="#path-effect1581"
             inkscape:original-d="m 176.27006,244.92466 c -2.23901,-2.61159 -4.47775,-5.22345 -6.71622,-7.83558" />
          <path
             style="fill:none;stroke:#000000;stroke-width:2.3464;stroke-linecap:butt;stroke-linejoin:miter;stroke-miterlimit:4;stroke-dasharray:none;stroke-opacity:1"
             d="m 176.82972,48.206206 -7.83554,6.71622"
             id="path1563"
             inkscape:path-effect="#path-effect1585"
             inkscape:original-d="m 176.82972,48.206206 c -2.61158,2.23901 -5.22342,4.47775 -7.83554,6.71622" />
          <path
             style="fill:none;stroke:#000000;stroke-width:2.3464;stroke-linecap:butt;stroke-linejoin:miter;stroke-miterlimit:4;stroke-dasharray:none;stroke-opacity:1"
             d="m 22.974172,48.704903 6.71622,7.835495"
             id="path1565"
             inkscape:path-effect="#path-effect1589"
             inkscape:original-d="m 22.974172,48.704903 c 2.23901,2.611565 4.47775,5.22339 6.71622,7.835495" />
          <rect
             style="fill:none;stroke:#000000;stroke-width:2.3464;stroke-linecap:round;stroke-linejoin:round;stroke-miterlimit:4;stroke-dasharray:none;stroke-opacity:0.955017;paint-order:stroke markers fill"
             id="rect1567"
             width="17.536777"
             height="43.282253"
             x="125.74241"
             y="62.684647"
             ry="8.7683887" />
          <rect
             style="fill:none;stroke:#000000;stroke-width:2.3464;stroke-linecap:round;stroke-linejoin:round;stroke-miterlimit:4;stroke-dasharray:none;stroke-opacity:0.955017;paint-order:stroke markers fill"
             id="rect1569"
             width="17.163651"
             height="8.9549484"
             x="126.11554"
             y="77.982681"
             ry="4.2909126" />
          <rect
             style="fill:none;stroke:#000000;stroke-width:2.3464;stroke-linecap:round;stroke-linejoin:round;stroke-miterlimit:4;stroke-dasharray:none;stroke-opacity:0.955017;paint-order:stroke markers fill"
             id="rect1571"
             width="92.161354"
             height="89.549492"
             x="57.087803"
             y="109.69814"
             ry="4.2909064" />
        </g>
        <path
           style="fill:#000000;stroke:#000000;stroke-width:4.64243;stroke-linecap:round;stroke-linejoin:round;stroke-miterlimit:4;stroke-dasharray:none;stroke-opacity:0.955017;paint-order:stroke markers fill"
           d="M 548.57879,162.17625 V 33.845478 h 92.36995 92.36995 V 162.17625 290.50702 h -92.36995 -92.36995 z m 160.48397,77.28051 c 1.26578,-1.26578 1.69228,-17.59442 1.69228,-64.79054 v -63.09826 l -3.13425,-2.19531 c -1.72382,-1.20741 -6.00739,-2.19768 -9.51904,-2.20057 l -6.38479,-0.005 4.49669,-2.74183 c 3.02157,-1.84238 4.98514,-4.500727 5.98562,-8.103541 1.90915,-6.875077 1.93576,-39.008461 0.0379,-45.84163 -2.67589,-9.634897 -13.29298,-14.044496 -20.93214,-8.693819 -5.86303,4.106625 -7.21614,10.081403 -7.21377,31.853091 0.002,22.164914 1.64594,28.330659 8.45918,31.735019 2.88671,1.4424 -5.48244,1.76539 -46.18497,1.78241 -47.81559,0.02 -49.81806,0.1283 -52.53101,2.84124 -2.73484,2.73485 -2.82045,4.70076 -2.82045,64.76977 0,54.43725 0.26872,62.21804 2.21607,64.16539 1.94626,1.94625 9.63839,2.21607 63.17823,2.21607 45.5347,0 61.39041,-0.42826 62.65442,-1.69227 z"
           id="path1704"
           transform="scale(0.26458333)" />
        <path
           style="fill:#000000;stroke:#000000;stroke-width:2.16304;stroke-linecap:round;stroke-linejoin:round;stroke-miterlimit:4;stroke-dasharray:none;stroke-opacity:0.955017;paint-order:stroke markers fill"
           d="m 682.52677,102.29834 c -2.12951,-1.96638 -3.77329,-4.044959 -3.76705,-4.763475 0.009,-0.986645 0.32431,-0.785578 1.39695,0.88959 3.69043,5.763415 12.01215,6.197785 16.50244,0.861373 2.48262,-2.950424 3.10779,-5.893482 3.11197,-14.649869 0.002,-5.094921 0.25916,-7.839648 0.76239,-8.150658 0.5675,-0.350733 0.64267,1.668142 0.29825,8.010274 -0.52,9.575255 -1.11831,12.472612 -3.09442,14.984832 -1.82665,2.322203 -8.12413,6.307203 -9.96676,6.306883 -0.8575,-1.4e-4 -3.03331,-1.44783 -5.24377,-3.48895 z"
           id="path1782"
           transform="scale(0.26458333)" />
        <path
           style="fill:#000000;stroke:#000000;stroke-width:2.16304;stroke-linecap:round;stroke-linejoin:round;stroke-miterlimit:4;stroke-dasharray:none;stroke-opacity:0.955017;paint-order:stroke markers fill"
           d="m 685.3193,107.21547 c 0,-0.29879 0.88704,-0.41307 1.9712,-0.25395 2.53393,0.3719 2.53393,0.79722 0,0.79722 -1.08416,0 -1.9712,-0.24447 -1.9712,-0.54327 z"
           id="path1821"
           transform="scale(0.26458333)" />
        <path
           style="fill:#000000;stroke:#000000;stroke-width:2.16304;stroke-linecap:round;stroke-linejoin:round;stroke-miterlimit:4;stroke-dasharray:none;stroke-opacity:0.955017;paint-order:stroke markers fill"
           d="m 680.71984,73.591335 c -1.64178,-1.641783 -1.69792,-4.705518 -0.11252,-6.140286 0.96453,-0.872889 2.62502,-1.087435 8.41626,-1.087435 7.76782,0 9.07707,0.444216 9.76674,3.313766 0.27918,1.161593 -0.0249,2.213355 -0.99732,3.449594 -1.36824,1.739426 -1.55668,1.778492 -8.57899,1.778492 -6.30395,0 -7.34038,-0.160347 -8.49417,-1.314131 z"
           id="path1938"
           transform="scale(0.26458333)" />
        <path
           style="fill:#000000;stroke:#000000;stroke-width:2.16304;stroke-linecap:round;stroke-linejoin:round;stroke-miterlimit:4;stroke-dasharray:none;stroke-opacity:0.955017;paint-order:stroke markers fill"
           d="m 551.97364,310.43387 c -4.452,-0.97275 -9.76122,-3.33328 -12.52288,-5.56779 l -1.64266,-1.32911 4.59946,-4.23964 4.59946,-4.23963 93.96036,0.0187 93.96037,0.0187 4.18189,5.28577 c 4.88517,6.17469 4.8791,6.1986 -2.28196,8.98056 l -4.52819,1.75914 -88.04678,0.11905 c -73.57348,0.0995 -88.74249,-0.033 -92.27907,-0.80569 z"
           id="path2019"
           transform="scale(0.26458333)" />
        <path
           style="fill:#000000;stroke:#000000;stroke-width:2.16304;stroke-linecap:round;stroke-linejoin:round;stroke-miterlimit:4;stroke-dasharray:none;stroke-opacity:0.955017;paint-order:stroke markers fill"
           d="m 532.19821,297.5294 c -2.57486,-3.53296 -4.04439,-6.41464 -5.63441,-11.04885 -1.19738,-3.48982 -1.23994,-7.70717 -1.23994,-122.87124 V 44.35192 l 1.51894,-4.396059 c 1.64163,-4.751113 5.46605,-11.075374 8.23179,-13.612494 l 1.72446,-1.581917 1.30516,1.65924 c 0.71784,0.912582 2.34935,2.909058 3.62558,4.436612 l 2.32043,2.777372 v 129.337306 129.3373 l -4.31478,3.82055 c -2.37313,2.10131 -4.57486,3.91384 -4.89272,4.02783 -0.31787,0.11399 -1.50789,-1.06872 -2.64451,-2.62826 z"
           id="path2058"
           transform="scale(0.26458333)" />
        <path
           style="fill:#000000;stroke:#000000;stroke-width:2.16304;stroke-linecap:round;stroke-linejoin:round;stroke-miterlimit:4;stroke-dasharray:none;stroke-opacity:0.955017;paint-order:stroke markers fill"
           d="m 742.29256,297.93594 -4.40802,-5.50801 V 162.04175 31.655564 l 4.34684,-3.983092 c 3.43576,-3.148245 4.58421,-3.856056 5.47934,-3.377 1.62003,0.867014 6.20685,6.9928 8.1716,10.913332 3.89781,7.77783 3.68538,0.376798 3.68538,128.400506 0,128.52563 0.24099,120.51217 -3.86816,128.6251 -2.10019,4.14652 -5.0513,8.10432 -7.44962,9.99084 l -1.54934,1.21871 z"
           id="path2097"
           transform="scale(0.26458333)" />
        <path
           style="fill:#000000;stroke:#000000;stroke-width:2.16304;stroke-linecap:round;stroke-linejoin:round;stroke-miterlimit:4;stroke-dasharray:none;stroke-opacity:0.955017;paint-order:stroke markers fill"
           d="m 542.67693,25.554892 -2.80979,-3.35599 1.59874,-1.235927 c 2.03816,-1.575619 7.84606,-3.789663 12.01511,-4.580307 4.48233,-0.850056 173.27653,-0.813943 177.90748,0.03806 3.67017,0.675242 11.75287,3.780493 11.75223,4.515031 -2e-4,0.230377 -1.90156,2.119024 -4.22525,4.196994 l -4.22489,3.778126 h -94.60192 -94.60192 z"
           id="path2136"
           transform="scale(0.26458333)" />
      </g>
      <path
         style="fill:#000000;stroke-width:0.0592928"
         d="m 168.4465,55.777883 c -4.42098,-0.37745 -8.32697,-2.29995 -10.18677,-5.01387 -0.4207,-0.6139 -0.85458,-1.49832 -0.90801,-1.85084 -0.0362,-0.23887 -0.0687,-0.27636 -0.41811,-0.48315 -0.86383,-0.51117 -1.16493,-1.46097 -0.72438,-2.28501 0.1333,-0.24934 0.51561,-0.56768 0.89813,-0.74788 0.11836,-0.0558 0.1999,-0.19739 0.33044,-0.574 0.26562,-0.76636 1.08194,-2.052 1.65361,-2.60432 0.59376,-0.57365 1.6776,-1.46262 2.05774,-1.68776 0.85083,-0.50391 2.40262,-1.21595 3.27204,-1.50138 2.88315,-0.94652 6.49202,-1.09912 9.61798,-0.40666 3.02444,0.66997 5.68845,2.16894 7.26919,4.0902 0.4197,0.51012 0.98789,1.48075 1.19806,2.04667 0.18848,0.50748 0.22924,0.53945 0.8155,0.63941 0.44748,0.0763 0.51617,0.21311 0.27653,0.55073 -0.10202,0.14373 -0.29886,0.38271 -0.43743,0.53107 -0.13855,0.14836 -0.2515,0.28159 -0.25099,0.29607 5.5e-4,0.0145 0.27463,0.23553 0.60915,0.49123 0.54949,0.42 0.60616,0.48163 0.58684,0.63832 -0.018,0.146 -0.10304,0.22276 -0.53733,0.48503 -0.33443,0.20197 -0.57786,0.3116 -0.6919,0.3116 -0.14727,0 -0.18861,0.0342 -0.25378,0.20973 -0.5017,1.35166 -1.17502,2.34575 -2.28113,3.36788 -1.55002,1.43232 -3.70612,2.49769 -6.23146,3.07905 -1.4614,0.33644 -2.13422,0.4102 -3.88281,0.42565 -0.84247,0.008 -1.64396,0.003 -1.78111,-0.008 z m 6.16263,-1.94753 c 0.35075,-0.0442 1.61133,-0.3016 1.95922,-0.40002 l 0.17811,-0.0504 -0.16644,-0.0437 c -0.32419,-0.0851 -2.53787,-0.15018 -3.96573,-0.11665 -1.45074,0.0341 -2.43393,0.0892 -2.50822,0.14067 -0.15098,0.10457 0.6711,0.41655 1.33269,0.50576 0.50462,0.0681 2.52824,0.0452 3.17037,-0.0357 z m 2.59271,-1.47558 c 1.0677,-0.0666 1.40655,-0.14734 1.84708,-0.4399 0.20307,-0.13485 0.36921,-0.25581 0.36921,-0.26881 0,-0.0378 -0.42263,-0.11747 -0.9618,-0.18135 -0.91284,-0.10813 -7.83964,-0.0225 -8.67422,0.10733 -0.40221,0.0625 -0.46633,0.11479 -0.2985,0.24323 0.0687,0.0526 0.10275,0.0956 0.0757,0.0956 -0.027,0 -0.015,0.0442 0.0267,0.0982 0.10155,0.13143 0.38758,0.22639 0.8197,0.27213 0.96377,0.10198 5.54639,0.15163 6.79612,0.0736 z m 2.30435,-1.79717 c 0.60753,-0.10827 0.77703,-0.20171 0.80865,-0.44571 0.014,-0.10828 0.0916,-0.239 0.18087,-0.30484 l 0.15631,-0.11524 -0.27854,-0.0821 c -0.42231,-0.12457 -1.77584,-0.16088 -5.01628,-0.13457 -4.02245,0.0326 -5.27519,0.0743 -5.51485,0.18298 -0.10408,0.0473 -0.16883,0.10876 -0.14389,0.13672 0.0889,0.0997 0.0754,0.34969 -0.0204,0.37515 -0.0526,0.014 -0.12733,0.0664 -0.16609,0.11662 -0.21051,0.27244 1.92635,0.38788 6.80703,0.36774 2.29984,-0.01 2.7795,-0.024 3.18719,-0.0967 z m 1.45394,-2.27371 c 0.0905,-0.10855 0.25234,-0.31951 0.3597,-0.46879 0.20264,-0.28174 0.32639,-0.39585 0.42646,-0.39325 0.0322,8.7e-4 0.16151,0.0952 0.28738,0.20974 0.12588,0.11449 0.31354,0.27481 0.41703,0.35623 0.10348,0.0814 0.24763,0.19982 0.32033,0.26313 l 0.13219,0.1151 0.27011,-0.13923 c 0.14855,-0.0766 0.32647,-0.18193 0.39536,-0.23413 0.14312,-0.10846 0.17869,-0.0673 -0.4915,-0.56937 -0.74763,-0.56013 -0.76971,-0.58472 -0.65892,-0.73372 0.0543,-0.073 0.11484,-0.14393 0.13449,-0.1575 0.0356,-0.0246 0.0987,-0.0994 0.36976,-0.43854 0.0784,-0.0981 0.17153,-0.19939 0.20702,-0.22517 0.13343,-0.0969 0.0548,-0.16516 -0.25199,-0.21867 -0.17409,-0.0304 -0.39616,-0.0552 -0.49349,-0.0552 -0.18176,0 -0.17975,-0.002 -0.59526,0.55514 -0.0962,0.12891 -0.18571,0.2344 -0.199,0.2344 -0.0494,0 -0.67554,-0.59511 -0.67554,-0.64206 0,-0.0601 -0.40436,-0.0653 -0.4574,-0.006 -0.0211,0.0236 -0.12718,0.0564 -0.23575,0.0727 -0.10858,0.0163 -0.24268,0.0505 -0.29802,0.0759 -0.0866,0.0398 -0.0866,0.056 0,0.11689 0.0554,0.0389 0.18077,0.1447 0.27872,0.23516 0.098,0.0904 0.31437,0.28123 0.4809,0.42393 0.27773,0.23798 0.40628,0.51284 0.23985,0.51284 -0.0346,0 -0.0813,0.0389 -0.10373,0.0864 -0.0224,0.0475 -0.12689,0.18628 -0.23212,0.30842 -0.24837,0.28827 -0.45478,0.53681 -0.57378,0.69084 -0.0842,0.10904 -0.0808,0.12537 0.029,0.1405 0.0684,0.01 0.1562,0.0382 0.19522,0.0639 0.039,0.0258 0.18064,0.0403 0.31472,0.0323 0.19974,-0.012 0.2735,-0.0502 0.40828,-0.21198 z m -22.15111,-0.0539 c 0.26696,-0.0847 0.54765,-0.32607 0.62574,-0.53816 0.14625,-0.39729 -0.034,-1.22733 -0.32022,-1.4751 -0.35101,-0.30379 -0.52585,-0.42474 -0.61401,-0.42474 -0.0547,0 -0.0995,-0.0222 -0.0995,-0.0494 0,-0.0288 -0.23811,-0.0494 -0.57184,-0.0494 h -0.57182 l -0.30893,0.21397 c -0.181,0.12536 -0.33163,0.28373 -0.36375,0.38244 -0.11368,0.34933 -0.0344,1.29246 0.114,1.35598 0.035,0.015 0.0637,0.0692 0.0637,0.12056 0,0.14284 0.56985,0.53084 0.8193,0.55784 0.33096,0.0358 0.97274,-0.0134 1.22728,-0.0941 z m -1.34203,-0.40246 c -0.26913,-0.2063 -0.49083,-0.65525 -0.49083,-0.99395 0,-0.37782 0.48369,-0.79487 0.92191,-0.79487 0.21362,0 0.30952,0.0371 0.54175,0.20974 0.34747,0.25826 0.4135,0.34019 0.53117,0.65913 0.12116,0.32842 -0.005,0.6539 -0.34553,0.89005 -0.20982,0.14558 -0.28355,0.1656 -0.61006,0.1656 -0.31473,0 -0.39839,-0.0207 -0.54841,-0.1357 z m 12.05275,0.23926 c 0.28345,-0.16183 0.53022,-0.47712 0.60245,-0.76973 0.10377,-0.4204 0.17856,-0.74958 0.2214,-0.97459 l 0.0447,-0.2344 h -0.40091 -0.40091 v 0.61392 c 0,0.35605 -0.0299,0.62672 -0.0713,0.64441 -0.0391,0.0168 -0.0713,0.064 -0.0713,0.10514 0,0.1148 -0.18318,0.21562 -0.39184,0.21562 -0.32786,0 -0.39185,-0.0966 -0.39185,-0.59188 0,-0.248 0.0276,-0.48829 0.0614,-0.534 0.0337,-0.0457 0.0798,-0.16638 0.10239,-0.26816 l 0.041,-0.18505 h -0.34248 -0.34248 l -0.0387,0.2344 c -0.0213,0.12891 -0.0209,0.34088 7.9e-4,0.47102 0.025,0.14828 0.005,0.28055 -0.051,0.35421 -0.0543,0.0703 -0.071,0.17362 -0.0416,0.25682 0.0271,0.0766 0.0671,0.20091 0.0889,0.27625 0.0659,0.22738 0.58651,0.51455 0.9507,0.52436 0.10131,0.003 0.28907,-0.0576 0.43046,-0.13834 z m 3.59611,-0.0542 c 0.011,-0.095 0.0432,-0.42789 0.0716,-0.73977 0.0521,-0.57304 0.13103,-0.74383 0.3872,-0.83879 0.32472,-0.12037 0.63395,0.18804 0.55049,0.54902 -0.0211,0.0913 -0.072,0.32549 -0.11306,0.52045 -0.0411,0.19495 -0.0953,0.41146 -0.12057,0.48112 -0.0452,0.12471 -0.0397,0.12666 0.35367,0.12666 h 0.39957 v -0.79199 c 0,-0.86563 -0.0314,-0.955 -0.41969,-1.1942 -0.2827,-0.17416 -0.83593,-0.19383 -1.04083,-0.037 -0.1613,0.12345 -0.30646,0.12345 -0.53432,0 -0.23752,-0.12869 -0.75651,-0.12993 -0.99617,-0.002 -0.12225,0.0651 -0.2033,0.0789 -0.26251,0.0449 -0.0471,-0.0271 -0.18717,-0.0422 -0.31124,-0.0335 l -0.22558,0.0157 0.01,0.81422 c 0.005,0.44782 0.0288,0.89749 0.0519,0.99926 0.0413,0.18127 0.0485,0.18505 0.35445,0.18505 h 0.31234 l -0.051,-0.20972 c -0.10384,-0.42761 -0.0633,-0.98715 0.0864,-1.19325 0.30993,-0.42661 0.89274,-0.43895 0.98924,-0.0209 0.0525,0.22738 -0.0152,0.87566 -0.0998,0.95512 -0.0289,0.0272 -0.0695,0.14208 -0.0902,0.2554 -0.0371,0.20253 -0.0333,0.20687 0.22192,0.2545 0.38759,0.0723 0.45398,0.0528 0.47627,-0.1398 z m 6.21693,0.0298 c 0.37754,-0.13523 0.58406,-0.43977 0.58406,-0.86129 0,-0.41586 -0.17214,-0.71511 -0.56255,-0.978 -0.24357,-0.164 -0.83991,-0.164 -1.08348,0 -0.40731,0.27426 -0.47741,0.38695 -0.54169,0.87077 -0.0373,0.28121 0.0941,0.77924 0.22833,0.86477 0.28314,0.18046 1.00841,0.23517 1.37533,0.10375 z m -0.8093,-0.3639 c -0.4573,-0.266 -0.39889,-0.89476 0.10626,-1.1439 0.26182,-0.12913 0.41874,-0.0778 0.6398,0.20896 0.26392,0.34248 0.15833,0.76157 -0.23711,0.94104 -0.22529,0.10224 -0.32472,0.10105 -0.50895,-0.006 z m -17.57757,-0.32708 c -0.0513,-0.81034 -0.0287,-0.89876 0.23975,-0.93594 0.26796,-0.0371 0.42138,0.007 0.42138,0.11918 0,0.0498 0.032,0.10422 0.0713,0.12099 0.0392,0.0168 0.0713,0.1069 0.0713,0.20029 0,0.15961 0.0143,0.16981 0.23792,0.16981 0.33429,0 0.4493,-0.17499 0.3184,-0.48442 -0.1342,-0.3172 -0.46529,-0.55186 -0.77867,-0.55186 -0.13633,0 -0.27832,0.0197 -0.31554,0.0438 -0.0373,0.0241 -0.13982,0.0589 -0.22799,0.0774 -0.11865,0.0249 -0.1603,0.0135 -0.1603,-0.0438 0,-0.0928 -0.13905,-0.0988 -0.39784,-0.0171 -0.18985,0.0599 -0.19059,0.0622 -0.14627,0.45644 0.0245,0.21793 0.0447,0.64472 0.045,0.94842 l 5.4e-4,0.55216 0.26717,0.0161 c 0.14694,0.009 0.29594,0.007 0.3311,-0.005 0.0361,-0.0115 0.0461,-0.30216 0.023,-0.6669 z m 3.78275,0.66617 c 0.10822,-0.0401 0.118,-0.15903 0.0997,-1.21186 l -0.0203,-1.16743 -0.26463,0.0153 -0.26464,0.0153 v 0.27141 c 0,0.14927 -0.0246,0.29761 -0.0546,0.32963 -0.03,0.0321 -0.22705,0.0731 -0.43788,0.0914 -0.27314,0.0236 -0.45713,0.0753 -0.64007,0.17975 -0.22336,0.12752 -0.25675,0.17463 -0.25675,0.36215 0,0.11854 -0.032,0.22926 -0.0713,0.24604 -0.0392,0.0168 -0.0713,0.12912 -0.0713,0.24965 0,0.12054 0.032,0.21914 0.0713,0.21914 0.0392,0 0.0713,0.0322 0.0713,0.0715 0,0.10905 0.4322,0.31299 0.71244,0.33618 0.4806,0.0397 1.00789,0.036 1.12678,-0.008 z m -1.0205,-0.31817 c -0.4459,-0.17714 -0.4899,-0.21969 -0.4899,-0.47369 0,-0.2113 0.0297,-0.26391 0.20962,-0.37107 0.11529,-0.0686 0.25014,-0.1249 0.29965,-0.12493 0.0495,-4e-5 0.14946,-0.0258 0.22211,-0.0572 0.26825,-0.11604 0.3397,-0.029 0.38718,0.47156 0.0247,0.26004 0.0262,0.50634 0.004,0.54732 -0.0488,0.0879 -0.41912,0.0926 -0.63221,0.008 z m 2.48741,-0.30075 c -0.0631,-0.78676 -0.0221,-0.94382 0.25693,-0.98247 0.11623,-0.0161 0.25212,-0.0185 0.30197,-0.005 0.10269,0.0272 0.26714,0.35584 0.26714,0.5337 0,0.10682 0.0218,0.11484 0.23154,0.0854 0.22325,-0.0314 0.23234,-0.0422 0.25359,-0.29996 0.0358,-0.43481 -0.27835,-0.74061 -0.76093,-0.74061 -0.15526,0 -0.29297,0.0192 -0.30602,0.0428 -0.0131,0.0235 -0.0959,0.0584 -0.18406,0.0774 -0.11925,0.0256 -0.1603,0.0147 -0.1603,-0.0429 0,-0.0915 -0.0904,-0.0968 -0.38695,-0.0225 l -0.21896,0.0548 0.0184,0.40161 c 0.0102,0.22089 0.0373,0.65022 0.0604,0.95406 l 0.0419,0.55245 0.26038,0.0157 c 0.14322,0.009 0.28583,0.008 0.31693,-0.002 0.0311,-0.01 0.0346,-0.28979 0.008,-0.62283 z m 10.20101,0.614 c 0.0961,0 0.29941,-0.0882 0.48877,-0.21212 l 0.3242,-0.21212 v -0.43005 c 0,-0.25374 -0.0365,-0.47417 -0.0891,-0.53768 -0.21975,-0.26559 -0.56334,-0.42156 -0.9796,-0.44467 -0.2474,-0.0137 -0.24964,-0.016 -0.28498,-0.28525 l -0.0356,-0.27141 -0.26717,-0.0154 -0.26716,-0.0153 v 1.20854 1.20852 l 0.1603,0.0239 c 0.0882,0.013 0.30103,0.0146 0.47302,0.003 0.17201,-0.0112 0.38679,-0.0204 0.4773,-0.0204 z m -0.61192,-0.83285 c 0,-0.65017 0.0461,-0.72653 0.40285,-0.66771 0.3997,0.0658 0.66582,0.33877 0.66582,0.68269 0,0.15407 -0.0529,0.24773 -0.21892,0.38718 -0.1926,0.16185 -0.25684,0.18396 -0.53433,0.18396 h -0.31542 z m -8.84023,-2.55411 c 0.0163,-0.01 -1.50652,-0.0129 -3.38411,-0.007 -2.86944,0.01 -3.1241,0.0153 -1.59706,0.0375 1.75574,0.0255 4.92048,0.006 4.98117,-0.0306 z m 1.09703,-0.71243 c 1.24985,-0.042 1.64216,-0.0717 1.87495,-0.14269 0.25205,-0.0768 0.28953,-0.10731 0.26059,-0.21217 -0.0215,-0.078 0.0315,-0.1941 0.14566,-0.31938 l 0.17945,-0.19691 -0.27825,-0.0577 c -0.43843,-0.091 -2.2049,-0.15043 -5.48207,-0.18447 -2.62674,-0.0272 -3.13447,-0.0205 -3.8324,0.0514 -1.01614,0.10452 -1.13929,0.14255 -1.19866,0.37003 -0.0255,0.0976 -0.0929,0.24111 -0.14973,0.31887 -0.1278,0.17472 -0.0799,0.21257 0.42024,0.33221 0.34439,0.0824 0.65773,0.0908 3.42934,0.0923 1.67768,8.7e-4 3.76157,-0.0223 4.63088,-0.0513 z m 0.93937,-1.96854 c 1.23755,-0.0721 1.71658,-0.18947 1.46997,-0.36028 -0.0444,-0.0307 -0.0807,-0.10514 -0.0807,-0.16531 0,-0.19884 -0.42747,-0.25665 -2.31606,-0.31314 -3.00221,-0.0899 -5.78762,-0.0483 -6.52022,0.0973 -0.31646,0.0629 -0.88319,0.4824 -0.77436,0.57322 0.073,0.061 0.56158,0.18591 0.91882,0.23503 0.30286,0.0416 6.39758,-0.0141 7.30255,-0.0668 z m -0.56995,-1.77934 c 1.06482,-0.0535 1.37678,-0.11236 1.23285,-0.23247 -0.12556,-0.1048 -0.92743,-0.34343 -1.36583,-0.40646 -0.36355,-0.0522 -1.54298,-0.0401 -2.53869,0.0264 -0.38833,0.0259 -1.97041,0.34435 -2.0955,0.4218 -0.30573,0.18932 2.53494,0.30301 4.76717,0.19078 z"
         id="path1444" />
    </g>
    <g
       id="g1793">
      <g
         id="g1529"
         transform="matrix(0.36021016,0,0,0.38253819,-0.52107664,-12.883484)"
         style="stroke-width:2.3464;stroke-miterlimit:4;stroke-dasharray:none">
        <rect
           style="fill:none;stroke:#000000;stroke-width:2.3464;stroke-linecap:round;stroke-linejoin:round;stroke-miterlimit:4;stroke-dasharray:none;stroke-opacity:0.955017;paint-order:stroke markers fill"
           id="rect1273"
           width="139.54796"
           height="181.33772"
           x="29.476711"
           y="55.222187" />
        <rect
           style="fill:none;stroke:#000000;stroke-width:2.3464;stroke-linecap:round;stroke-linejoin:round;stroke-miterlimit:4;stroke-dasharray:none;stroke-opacity:0.955017;paint-order:stroke markers fill"
           id="rect1275"
           width="175.36777"
           height="207.08319"
           x="12.686177"
           y="43.282253"
           ry="26.118603" />
        <path
           style="fill:none;stroke:#000000;stroke-width:2.3464;stroke-linecap:butt;stroke-linejoin:miter;stroke-miterlimit:4;stroke-dasharray:none;stroke-opacity:1"
           d="m 29.47671,236.5599 -7.835583,6.71622"
           id="path1310"
           inkscape:path-effect="#path-effect1312"
           inkscape:original-d="m 29.47671,236.5599 c -2.611596,2.23901 -5.223457,4.47775 -7.835583,6.71622" />
        <path
           style="fill:none;stroke:#000000;stroke-width:2.3464;stroke-linecap:butt;stroke-linejoin:miter;stroke-miterlimit:4;stroke-dasharray:none;stroke-opacity:1"
           d="m 176.27006,244.92466 -6.71622,-7.83558"
           id="path1314"
           inkscape:path-effect="#path-effect1318"
           inkscape:original-d="m 176.27006,244.92466 c -2.23901,-2.61159 -4.47775,-5.22345 -6.71622,-7.83558" />
        <path
           style="fill:none;stroke:#000000;stroke-width:2.3464;stroke-linecap:butt;stroke-linejoin:miter;stroke-miterlimit:4;stroke-dasharray:none;stroke-opacity:1"
           d="m 176.82972,48.206206 -7.83554,6.71622"
           id="path1400"
           inkscape:path-effect="#path-effect1404"
           inkscape:original-d="m 176.82972,48.206206 c -2.61158,2.23901 -5.22342,4.47775 -7.83554,6.71622" />
        <path
           style="fill:none;stroke:#000000;stroke-width:2.3464;stroke-linecap:butt;stroke-linejoin:miter;stroke-miterlimit:4;stroke-dasharray:none;stroke-opacity:1"
           d="m 22.974172,48.704903 6.71622,7.835495"
           id="path1406"
           inkscape:path-effect="#path-effect1410"
           inkscape:original-d="m 22.974172,48.704903 c 2.23901,2.611565 4.47775,5.22339 6.71622,7.835495" />
        <rect
           style="fill:none;stroke:#000000;stroke-width:2.3464;stroke-linecap:round;stroke-linejoin:round;stroke-miterlimit:4;stroke-dasharray:none;stroke-opacity:0.955017;paint-order:stroke markers fill"
           id="rect1434"
           width="17.536777"
           height="43.282253"
           x="125.74241"
           y="62.684647"
           ry="8.7683887" />
        <rect
           style="fill:none;stroke:#000000;stroke-width:2.3464;stroke-linecap:round;stroke-linejoin:round;stroke-miterlimit:4;stroke-dasharray:none;stroke-opacity:0.955017;paint-order:stroke markers fill"
           id="rect1436"
           width="17.163651"
           height="8.9549484"
           x="126.11554"
           y="77.982681"
           ry="4.2909126" />
        <rect
           style="fill:none;stroke:#000000;stroke-width:2.3464;stroke-linecap:round;stroke-linejoin:round;stroke-miterlimit:4;stroke-dasharray:none;stroke-opacity:0.955017;paint-order:stroke markers fill"
           id="rect1438"
           width="92.161354"
           height="89.549492"
           x="57.087803"
           y="109.69814"
           ry="4.2909064" />
      </g>
      <path
         style="fill:#000000;stroke-width:0.0592928"
         d="m 34.50392,54.555779 c -4.42098,-0.37745 -8.32697,-2.29995 -10.18677,-5.01387 -0.4207,-0.6139 -0.85458,-1.49832 -0.90801,-1.85084 -0.0362,-0.23887 -0.0687,-0.27636 -0.41811,-0.48315 -0.86383,-0.51117 -1.16493,-1.46097 -0.72438,-2.28501 0.1333,-0.24934 0.51561,-0.56768 0.89813,-0.74788 0.11836,-0.0558 0.1999,-0.19739 0.33044,-0.574 0.26562,-0.76636 1.08194,-2.052 1.65361,-2.60432 0.59376,-0.57365 1.6776,-1.46262 2.05774,-1.68776 0.85083,-0.50391 2.40262,-1.21595 3.27204,-1.50138 2.88315,-0.94652 6.49202,-1.09912 9.61798,-0.40666 3.02444,0.66997 5.68845,2.16894 7.26919,4.0902 0.4197,0.51012 0.98789,1.48075 1.19806,2.04667 0.18848,0.50748 0.22924,0.53945 0.8155,0.63941 0.44748,0.0763 0.51617,0.21311 0.27653,0.55073 -0.10202,0.14373 -0.29886,0.38271 -0.43743,0.53107 -0.13855,0.14836 -0.2515,0.28159 -0.25099,0.29607 5.5e-4,0.0145 0.27463,0.23553 0.60915,0.49123 0.54949,0.42 0.60616,0.48163 0.58684,0.63832 -0.018,0.146 -0.10304,0.22276 -0.53733,0.48503 -0.33443,0.20197 -0.57786,0.3116 -0.6919,0.3116 -0.14727,0 -0.18861,0.0342 -0.25378,0.20973 -0.5017,1.35166 -1.17502,2.34575 -2.28113,3.36788 -1.55002,1.43232 -3.70612,2.49769 -6.23146,3.07905 -1.4614,0.33644 -2.13422,0.4102 -3.88281,0.42565 -0.84247,0.008 -1.64396,0.003 -1.78111,-0.008 z m 6.16263,-1.94753 c 0.35075,-0.0442 1.61133,-0.3016 1.95922,-0.40002 l 0.17811,-0.0504 -0.16644,-0.0437 c -0.32419,-0.0851 -2.53787,-0.15018 -3.96573,-0.11665 -1.45074,0.0341 -2.43393,0.0892 -2.50822,0.14067 -0.15098,0.10457 0.6711,0.41655 1.33269,0.50576 0.50462,0.0681 2.52824,0.0452 3.17037,-0.0357 z m 2.59271,-1.47558 c 1.0677,-0.0666 1.40655,-0.14734 1.84708,-0.4399 0.20307,-0.13485 0.36921,-0.25581 0.36921,-0.26881 0,-0.0378 -0.42263,-0.11747 -0.9618,-0.18135 -0.91284,-0.10813 -7.83964,-0.0225 -8.67422,0.10733 -0.40221,0.0625 -0.46633,0.11479 -0.2985,0.24323 0.0687,0.0526 0.10275,0.0956 0.0757,0.0956 -0.027,0 -0.015,0.0442 0.0267,0.0982 0.10155,0.13143 0.38758,0.22639 0.8197,0.27213 0.96377,0.10198 5.54639,0.15163 6.79612,0.0736 z m 2.30435,-1.79717 c 0.60753,-0.10827 0.77703,-0.20171 0.80865,-0.44571 0.014,-0.10828 0.0916,-0.239 0.18087,-0.30484 l 0.15631,-0.11524 -0.27854,-0.0821 c -0.42231,-0.12457 -1.77584,-0.16088 -5.01628,-0.13457 -4.02245,0.0326 -5.27519,0.0743 -5.51485,0.18298 -0.10408,0.0473 -0.16883,0.10876 -0.14389,0.13672 0.0889,0.0997 0.0754,0.34969 -0.0204,0.37515 -0.0526,0.014 -0.12733,0.0664 -0.16609,0.11662 -0.21051,0.27244 1.92635,0.38788 6.80703,0.36774 2.29984,-0.01 2.7795,-0.024 3.18719,-0.0967 z m 1.45394,-2.27371 c 0.0905,-0.10855 0.25234,-0.31951 0.3597,-0.46879 0.20264,-0.28174 0.32639,-0.39585 0.42646,-0.39325 0.0322,8.7e-4 0.16151,0.0952 0.28738,0.20974 0.12588,0.11449 0.31354,0.27481 0.41703,0.35623 0.10348,0.0814 0.24763,0.19982 0.32033,0.26313 l 0.13219,0.1151 0.27011,-0.13923 c 0.14855,-0.0766 0.32647,-0.18193 0.39536,-0.23413 0.14312,-0.10846 0.17869,-0.0673 -0.4915,-0.56937 -0.74763,-0.56013 -0.76971,-0.58472 -0.65892,-0.73372 0.0543,-0.073 0.11484,-0.14393 0.13449,-0.1575 0.0356,-0.0246 0.0987,-0.0994 0.36976,-0.43854 0.0784,-0.0981 0.17153,-0.19939 0.20702,-0.22517 0.13343,-0.0969 0.0548,-0.16516 -0.25199,-0.21867 -0.17409,-0.0304 -0.39616,-0.0552 -0.49349,-0.0552 -0.18176,0 -0.17975,-0.002 -0.59526,0.55514 -0.0962,0.12891 -0.18571,0.2344 -0.199,0.2344 -0.0494,0 -0.67554,-0.59511 -0.67554,-0.64206 0,-0.0601 -0.40436,-0.0653 -0.4574,-0.006 -0.0211,0.0236 -0.12718,0.0564 -0.23575,0.0727 -0.10858,0.0163 -0.24268,0.0505 -0.29802,0.0759 -0.0866,0.0398 -0.0866,0.056 0,0.11689 0.0554,0.0389 0.18077,0.1447 0.27872,0.23516 0.098,0.0904 0.31437,0.28123 0.4809,0.42393 0.27773,0.23798 0.40628,0.51284 0.23985,0.51284 -0.0346,0 -0.0813,0.0389 -0.10373,0.0864 -0.0224,0.0475 -0.12689,0.18628 -0.23212,0.30842 -0.24837,0.28827 -0.45478,0.53681 -0.57378,0.69084 -0.0842,0.10904 -0.0808,0.12537 0.029,0.1405 0.0684,0.01 0.1562,0.0382 0.19522,0.0639 0.039,0.0258 0.18064,0.0403 0.31472,0.0323 0.19974,-0.012 0.2735,-0.0502 0.40828,-0.21198 z m -22.15111,-0.0539 c 0.26696,-0.0847 0.54765,-0.32607 0.62574,-0.53816 0.14625,-0.39729 -0.034,-1.22733 -0.32022,-1.4751 -0.35101,-0.30379 -0.52585,-0.42474 -0.61401,-0.42474 -0.0547,0 -0.0995,-0.0222 -0.0995,-0.0494 0,-0.0288 -0.23811,-0.0494 -0.57184,-0.0494 h -0.57182 l -0.30893,0.21397 c -0.181,0.12536 -0.33163,0.28373 -0.36375,0.38244 -0.11368,0.34933 -0.0344,1.29246 0.114,1.35598 0.035,0.015 0.0637,0.0692 0.0637,0.12056 0,0.14284 0.56985,0.53084 0.8193,0.55784 0.33096,0.0358 0.97274,-0.0134 1.22728,-0.0941 z m -1.34203,-0.40246 c -0.26913,-0.2063 -0.49083,-0.65525 -0.49083,-0.99395 0,-0.37782 0.48369,-0.79487 0.92191,-0.79487 0.21362,0 0.30952,0.0371 0.54175,0.20974 0.34747,0.25826 0.4135,0.34019 0.53117,0.65913 0.12116,0.32842 -0.005,0.6539 -0.34553,0.89005 -0.20982,0.14558 -0.28355,0.1656 -0.61006,0.1656 -0.31473,0 -0.39839,-0.0207 -0.54841,-0.1357 z m 12.05275,0.23926 c 0.28345,-0.16183 0.53022,-0.47712 0.60245,-0.76973 0.10377,-0.4204 0.17856,-0.74958 0.2214,-0.97459 l 0.0447,-0.2344 H 36.0448 35.64389 v 0.61392 c 0,0.35605 -0.0299,0.62672 -0.0713,0.64441 -0.0391,0.0168 -0.0713,0.064 -0.0713,0.10514 0,0.1148 -0.18318,0.21562 -0.39184,0.21562 -0.32786,0 -0.39185,-0.0966 -0.39185,-0.59188 0,-0.248 0.0276,-0.48829 0.0614,-0.534 0.0337,-0.0457 0.0798,-0.16638 0.10239,-0.26816 l 0.041,-0.18505 h -0.34248 -0.34248 l -0.0387,0.2344 c -0.0213,0.12891 -0.0209,0.34088 7.9e-4,0.47102 0.025,0.14828 0.005,0.28055 -0.051,0.35421 -0.0543,0.0703 -0.071,0.17362 -0.0416,0.25682 0.0271,0.0766 0.0671,0.20091 0.0889,0.27625 0.0659,0.22738 0.58651,0.51455 0.9507,0.52436 0.10131,0.003 0.28907,-0.0576 0.43046,-0.13834 z m 3.59611,-0.0542 c 0.011,-0.095 0.0432,-0.42789 0.0716,-0.73977 0.0521,-0.57304 0.13103,-0.74383 0.3872,-0.83879 0.32472,-0.12037 0.63395,0.18804 0.55049,0.54902 -0.0211,0.0913 -0.072,0.32549 -0.11306,0.52045 -0.0411,0.19495 -0.0953,0.41146 -0.12057,0.48112 -0.0452,0.12471 -0.0397,0.12666 0.35367,0.12666 h 0.39957 v -0.79199 c 0,-0.86563 -0.0314,-0.955 -0.41969,-1.1942 -0.2827,-0.17416 -0.83593,-0.19383 -1.04083,-0.037 -0.1613,0.12345 -0.30646,0.12345 -0.53432,0 -0.23752,-0.12869 -0.75651,-0.12993 -0.99617,-0.002 -0.12225,0.0651 -0.2033,0.0789 -0.26251,0.0449 -0.0471,-0.0271 -0.18717,-0.0422 -0.31124,-0.0335 l -0.22558,0.0157 0.01,0.81422 c 0.005,0.44782 0.0288,0.89749 0.0519,0.99926 0.0413,0.18127 0.0485,0.18505 0.35445,0.18505 h 0.31234 l -0.051,-0.20972 c -0.10384,-0.42761 -0.0633,-0.98715 0.0864,-1.19325 0.30993,-0.42661 0.89274,-0.43895 0.98924,-0.0209 0.0525,0.22738 -0.0152,0.87566 -0.0998,0.95512 -0.0289,0.0272 -0.0695,0.14208 -0.0902,0.2554 -0.0371,0.20253 -0.0333,0.20687 0.22192,0.2545 0.38759,0.0723 0.45398,0.0528 0.47627,-0.1398 z m 6.21693,0.0298 c 0.37754,-0.13523 0.58406,-0.43977 0.58406,-0.86129 0,-0.41586 -0.17214,-0.71511 -0.56255,-0.978 -0.24357,-0.164 -0.83991,-0.164 -1.08348,0 -0.40731,0.27426 -0.47741,0.38695 -0.54169,0.87077 -0.0373,0.28121 0.0941,0.77924 0.22833,0.86477 0.28314,0.18046 1.00841,0.23517 1.37533,0.10375 z m -0.8093,-0.3639 c -0.4573,-0.266 -0.39889,-0.89476 0.10626,-1.1439 0.26182,-0.12913 0.41874,-0.0778 0.6398,0.20896 0.26392,0.34248 0.15833,0.76157 -0.23711,0.94104 -0.22529,0.10224 -0.32472,0.10105 -0.50895,-0.006 z m -17.57757,-0.32708 c -0.0513,-0.81034 -0.0287,-0.89876 0.23975,-0.93594 0.26796,-0.0371 0.42138,0.007 0.42138,0.11918 0,0.0498 0.032,0.10422 0.0713,0.12099 0.0392,0.0168 0.0713,0.1069 0.0713,0.20029 0,0.15961 0.0143,0.16981 0.23792,0.16981 0.33429,0 0.4493,-0.17499 0.3184,-0.48442 -0.1342,-0.3172 -0.46529,-0.55186 -0.77867,-0.55186 -0.13633,0 -0.27832,0.0197 -0.31554,0.0438 -0.0373,0.0241 -0.13982,0.0589 -0.22799,0.0774 -0.11865,0.0249 -0.1603,0.0135 -0.1603,-0.0438 0,-0.0928 -0.13905,-0.0988 -0.39784,-0.0171 -0.18985,0.0599 -0.19059,0.0622 -0.14627,0.45644 0.0245,0.21793 0.0447,0.64472 0.045,0.94842 l 5.4e-4,0.55216 0.26717,0.0161 c 0.14694,0.009 0.29594,0.007 0.3311,-0.005 0.0361,-0.0115 0.0461,-0.30216 0.023,-0.6669 z m 3.78275,0.66617 c 0.10822,-0.0401 0.118,-0.15903 0.0997,-1.21186 l -0.0203,-1.16743 -0.26463,0.0153 -0.26464,0.0153 v 0.27141 c 0,0.14927 -0.0246,0.29761 -0.0546,0.32963 -0.03,0.0321 -0.22705,0.0731 -0.43788,0.0914 -0.27314,0.0236 -0.45713,0.0753 -0.64007,0.17975 -0.22336,0.12752 -0.25675,0.17463 -0.25675,0.36215 0,0.11854 -0.032,0.22926 -0.0713,0.24604 -0.0392,0.0168 -0.0713,0.12912 -0.0713,0.24965 0,0.12054 0.032,0.21914 0.0713,0.21914 0.0392,0 0.0713,0.0322 0.0713,0.0715 0,0.10905 0.4322,0.31299 0.71244,0.33618 0.4806,0.0397 1.00789,0.036 1.12678,-0.008 z m -1.0205,-0.31817 c -0.4459,-0.17714 -0.4899,-0.21969 -0.4899,-0.47369 0,-0.2113 0.0297,-0.26391 0.20962,-0.37107 0.11529,-0.0686 0.25014,-0.1249 0.29965,-0.12493 0.0495,-4e-5 0.14946,-0.0258 0.22211,-0.0572 0.26825,-0.11604 0.3397,-0.029 0.38718,0.47156 0.0247,0.26004 0.0262,0.50634 0.004,0.54732 -0.0488,0.0879 -0.41912,0.0926 -0.63221,0.008 z m 2.48741,-0.30075 c -0.0631,-0.78676 -0.0221,-0.94382 0.25693,-0.98247 0.11623,-0.0161 0.25212,-0.0185 0.30197,-0.005 0.10269,0.0272 0.26714,0.35584 0.26714,0.5337 0,0.10682 0.0218,0.11484 0.23154,0.0854 0.22325,-0.0314 0.23234,-0.0422 0.25359,-0.29996 0.0358,-0.43481 -0.27835,-0.74061 -0.76093,-0.74061 -0.15526,0 -0.29297,0.0192 -0.30602,0.0428 -0.0131,0.0235 -0.0959,0.0584 -0.18406,0.0774 -0.11925,0.0256 -0.1603,0.0147 -0.1603,-0.0429 0,-0.0915 -0.0904,-0.0968 -0.38695,-0.0225 l -0.21896,0.0548 0.0184,0.40161 c 0.0102,0.22089 0.0373,0.65022 0.0604,0.95406 l 0.0419,0.55245 0.26038,0.0157 c 0.14322,0.009 0.28583,0.008 0.31693,-0.002 0.0311,-0.01 0.0346,-0.28979 0.008,-0.62283 z m 10.20101,0.614 c 0.0961,0 0.29941,-0.0882 0.48877,-0.21212 l 0.3242,-0.21212 v -0.43005 c 0,-0.25374 -0.0365,-0.47417 -0.0891,-0.53768 -0.21975,-0.26559 -0.56334,-0.42156 -0.9796,-0.44467 -0.2474,-0.0137 -0.24964,-0.016 -0.28498,-0.28525 l -0.0356,-0.27141 -0.26717,-0.0154 -0.26716,-0.0153 v 1.20854 1.20852 l 0.1603,0.0239 c 0.0882,0.013 0.30103,0.0146 0.47302,0.003 0.17201,-0.0112 0.38679,-0.0204 0.4773,-0.0204 z m -0.61192,-0.83285 c 0,-0.65017 0.0461,-0.72653 0.40285,-0.66771 0.3997,0.0658 0.66582,0.33877 0.66582,0.68269 0,0.15407 -0.0529,0.24773 -0.21892,0.38718 -0.1926,0.16185 -0.25684,0.18396 -0.53433,0.18396 h -0.31542 z m -8.84023,-2.55411 c 0.0163,-0.01 -1.50652,-0.0129 -3.38411,-0.007 -2.86944,0.01 -3.1241,0.0153 -1.59706,0.0375 1.75574,0.0255 4.92048,0.006 4.98117,-0.0306 z m 1.09703,-0.71243 c 1.24985,-0.042 1.64216,-0.0717 1.87495,-0.14269 0.25205,-0.0768 0.28953,-0.10731 0.26059,-0.21217 -0.0215,-0.078 0.0315,-0.1941 0.14566,-0.31938 l 0.17945,-0.19691 -0.27825,-0.0577 c -0.43843,-0.091 -2.2049,-0.15043 -5.48207,-0.18447 -2.62674,-0.0272 -3.13447,-0.0205 -3.8324,0.0514 -1.01614,0.10452 -1.13929,0.14255 -1.19866,0.37003 -0.0255,0.0976 -0.0929,0.24111 -0.14973,0.31887 -0.1278,0.17472 -0.0799,0.21257 0.42024,0.33221 0.34439,0.0824 0.65773,0.0908 3.42934,0.0923 1.67768,8.7e-4 3.76157,-0.0223 4.63088,-0.0513 z m 0.93937,-1.96854 c 1.23755,-0.0721 1.71658,-0.18947 1.46997,-0.36028 -0.0444,-0.0307 -0.0807,-0.10514 -0.0807,-0.16531 0,-0.19884 -0.42747,-0.25665 -2.31606,-0.31314 -3.00221,-0.0899 -5.78762,-0.0483 -6.52022,0.0973 -0.31646,0.0629 -0.88319,0.4824 -0.77436,0.57322 0.073,0.061 0.56158,0.18591 0.91882,0.23503 0.30286,0.0416 6.39758,-0.0141 7.30255,-0.0668 z m -0.56995,-1.77934 c 1.06482,-0.0535 1.37678,-0.11236 1.23285,-0.23247 -0.12556,-0.1048 -0.92743,-0.34343 -1.36583,-0.40646 -0.36355,-0.0522 -1.54298,-0.0401 -2.53869,0.0264 -0.38833,0.0259 -1.97041,0.34435 -2.0955,0.4218 -0.30573,0.18932 2.53494,0.30301 4.76717,0.19078 z"
         id="path1675" />
    </g>
  </g>
</svg>
