<?xml version="1.0" encoding="UTF-8" standalone="no"?>
<!-- Created with Inkscape (http://www.inkscape.org/) -->

<svg
   width="210mm"
   height="297mm"
   viewBox="0 0 210 297"
   version="1.1"
   id="svg5"
   inkscape:version="1.1.2 (0a00cf5339, 2022-02-04, custom)"
   sodipodi:docname="4 mic audio interface.svg"
   xmlns:inkscape="http://www.inkscape.org/namespaces/inkscape"
   xmlns:sodipodi="http://sodipodi.sourceforge.net/DTD/sodipodi-0.dtd"
   xmlns="http://www.w3.org/2000/svg"
   xmlns:svg="http://www.w3.org/2000/svg">
  <sodipodi:namedview
     id="namedview7"
     pagecolor="#ffffff"
     bordercolor="#666666"
     borderopacity="1.0"
     inkscape:pageshadow="2"
     inkscape:pageopacity="0.0"
     inkscape:pagecheckerboard="0"
     inkscape:document-units="mm"
     showgrid="false"
     inkscape:zoom="0.5894754"
     inkscape:cx="297.72235"
     inkscape:cy="402.90061"
     inkscape:window-width="1680"
     inkscape:window-height="956"
     inkscape:window-x="-11"
     inkscape:window-y="-11"
     inkscape:window-maximized="1"
     inkscape:current-layer="layer4" />
  <defs
     id="defs2">
    <inkscape:path-effect
       effect="skeletal"
       id="path-effect3161"
       is_visible="true"
       lpeversion="1"
       pattern="m 182.71133,36.816874 0.27078,28.580167 24.64656,-14.536578 z m -38.1894,6.580476 v 17.728634 h 31.32522 V 43.39735 Z"
       copytype="repeated"
       prop_scale="1"
       scale_y_rel="false"
       spacing="5.8"
       normal_offset="0"
       tang_offset="1.5"
       prop_units="false"
       vertical_pattern="false"
       hide_knot="false"
       fuse_tolerance="0" />
    <inkscape:path-effect
       effect="skeletal"
       id="path-effect2910"
       is_visible="true"
       lpeversion="1"
       pattern="m 182.71133,36.816874 0.27078,28.580167 24.64656,-14.536578 z m -38.1894,6.580476 v 17.728634 h 31.32522 V 43.39735 Z"
       copytype="repeated"
       prop_scale="1"
       scale_y_rel="false"
       spacing="4.6"
       normal_offset="0.3"
       tang_offset="0"
       prop_units="false"
       vertical_pattern="false"
       hide_knot="false"
       fuse_tolerance="0" />
  </defs>
  <g
     inkscape:label="Layer 1"
     inkscape:groupmode="layer"
     id="layer1">
    <path
       id="rect1864"
       style="fill:none;fill-rule:evenodd;stroke:#000000;stroke-width:0.918;stroke-linecap:round;stroke-linejoin:round;stroke-miterlimit:4;stroke-dasharray:none;paint-order:stroke markers fill"
       d="m 16.544089,38.214849 h 3.27061 c 0.801428,0 1.44662,1.04707 1.44662,2.3477 v 1.63317 c 0,1.30062 -0.645192,2.3477 -1.44662,2.3477 h -3.27061 c -0.801428,0 -1.446621,-1.04708 -1.446621,-2.3477 v -1.63317 c 0,-1.30063 0.645193,-2.3477 1.446621,-2.3477 z M 13.683794,192.55028 h 9.740868 c 1.355069,0 2.445972,1.77041 2.445972,3.96953 v 0.43098 c 0,2.19912 -1.090903,3.96953 -2.445972,3.96953 h -9.740868 c -1.355068,0 -2.445971,-1.77041 -2.445971,-3.96953 v -0.43098 c 0,-2.19912 1.090903,-3.96953 2.445971,-3.96953 z m 7.029331,-21.09631 a 2.7674432,4.1850219 0 0 1 -2.767443,4.18502 2.7674432,4.1850219 0 0 1 -2.767443,-4.18502 2.7674432,4.1850219 0 0 1 2.767443,-4.18502 2.7674432,4.1850219 0 0 1 2.767443,4.18502 z m 0,-15.64443 a 2.7674432,4.1850219 0 0 1 -2.767443,4.18503 2.7674432,4.1850219 0 0 1 -2.767443,-4.18503 2.7674432,4.1850219 0 0 1 2.767443,-4.18502 2.7674432,4.1850219 0 0 1 2.767443,4.18502 z m 0,-15.64441 a 2.7674432,4.1850219 0 0 1 -2.767443,4.18503 2.7674432,4.1850219 0 0 1 -2.767443,-4.18503 2.7674432,4.1850219 0 0 1 2.767443,-4.18502 2.7674432,4.1850219 0 0 1 2.767443,4.18502 z m 0,-19.014 a 2.7674432,4.1850219 0 0 1 -2.767443,4.18502 2.7674432,4.1850219 0 0 1 -2.767443,-4.18502 2.7674432,4.1850219 0 0 1 2.767443,-4.18502 2.7674432,4.1850219 0 0 1 2.767443,4.18502 z m 0,-17.08834 a 2.7674432,4.1850219 0 0 1 -2.767443,4.18502 2.7674432,4.1850219 0 0 1 -2.767443,-4.18502 2.7674432,4.1850219 0 0 1 2.767443,-4.185021 2.7674432,4.1850219 0 0 1 2.767443,4.185021 z m 0,-18.291431 a 2.7674432,4.1850219 0 0 1 -2.767443,4.18502 2.7674432,4.1850219 0 0 1 -2.767443,-4.18502 2.7674432,4.1850219 0 0 1 2.767443,-4.18502 2.7674432,4.1850219 0 0 1 2.767443,4.18502 z m 0,-15.4033 a 2.7674432,4.1850219 0 0 1 -2.767443,4.18502 2.7674432,4.1850219 0 0 1 -2.767443,-4.18502 2.7674432,4.1850219 0 0 1 2.767443,-4.18502 2.7674432,4.1850219 0 0 1 2.767443,4.18502 z m -7.029331,-8.85388 h 9.111903 c 1.355068,0 2.445971,1.77041 2.445971,3.96953 V 188.58076 c 0,2.19912 -1.090903,3.96953 -2.445971,3.96953 h -9.111903 c -1.355068,0 -2.445971,-1.77041 -2.445971,-3.96953 V 65.483709 c 0,-2.19912 1.090903,-3.96953 2.445971,-3.96953 z m 3e-6,-8.26776 h 9.168824 c 1.35507,0 2.445975,1.77041 2.445975,3.96953 v 0.32869 c 0,2.19913 -1.090905,3.96954 -2.445975,3.96954 h -9.168824 c -1.35507,0 -2.445974,-1.77041 -2.445974,-3.96954 v -0.32869 c 0,-2.19912 1.090904,-3.96953 2.445974,-3.96953 z m 1.912256,-32.33986 h 5.380075 c 0.936935,0 1.691218,1.22411 1.691218,2.74465 v 26.58961 c 0,1.52054 -0.754283,2.74465 -1.691218,2.74465 h -5.380075 c -0.936935,0 -1.691218,-1.22411 -1.691218,-2.74465 v -26.58961 c 0,-1.52054 0.754283,-2.74465 1.691218,-2.74465 z" />
    <path
       style="fill:#a0892c;fill-rule:evenodd;stroke:#000000;stroke-width:0.097577;stroke-linecap:round;stroke-linejoin:round;stroke-miterlimit:4;stroke-dasharray:none;paint-order:stroke markers fill"
       d=""
       id="path2961"
       transform="scale(0.26458333)" />
    <path
       style="fill:#ffffff;fill-rule:evenodd;stroke:#000000;stroke-width:5.88592;stroke-linecap:round;stroke-linejoin:round;stroke-miterlimit:4;stroke-dasharray:none;paint-order:stroke markers fill"
       d=""
       id="path3926"
       transform="scale(0.26458333)" />
  </g>
  <g
     inkscape:groupmode="layer"
     id="layer2"
     inkscape:label="Layer 2">
    <path
       id="path2360"
       style="fill:#000000;fill-rule:evenodd;stroke:#000000;stroke-width:0.918;stroke-linecap:round;stroke-linejoin:round;stroke-miterlimit:4;stroke-dasharray:none;paint-order:stroke markers fill"
       d="m 181.7192,24.749487 h 3.27061 c 0.80143,0 1.44662,1.04707 1.44662,2.3477 v 1.63317 c 0,1.30062 -0.64519,2.3477 -1.44662,2.3477 h -3.27061 c -0.80143,0 -1.44662,-1.04708 -1.44662,-2.3477 v -1.63317 c 0,-1.30063 0.64519,-2.3477 1.44662,-2.3477 z m -2.86029,154.335423 h 9.74086 c 1.35507,0 2.44597,1.77041 2.44597,3.96953 v 0.43098 c 0,2.19912 -1.0909,3.96953 -2.44597,3.96953 h -9.74086 c -1.35507,0 -2.44598,-1.77041 -2.44598,-3.96953 v -0.43098 c 0,-2.19912 1.09091,-3.96953 2.44598,-3.96953 z m 7.02932,-21.09631 a 2.7674432,4.1850219 0 0 1 -2.76744,4.18502 2.7674432,4.1850219 0 0 1 -2.76744,-4.18502 2.7674432,4.1850219 0 0 1 2.76744,-4.18502 2.7674432,4.1850219 0 0 1 2.76744,4.18502 z m 0,-15.64443 a 2.7674432,4.1850219 0 0 1 -2.76744,4.18503 2.7674432,4.1850219 0 0 1 -2.76744,-4.18503 2.7674432,4.1850219 0 0 1 2.76744,-4.18502 2.7674432,4.1850219 0 0 1 2.76744,4.18502 z m 0,-15.64441 a 2.7674432,4.1850219 0 0 1 -2.76744,4.18503 2.7674432,4.1850219 0 0 1 -2.76744,-4.18503 2.7674432,4.1850219 0 0 1 2.76744,-4.18502 2.7674432,4.1850219 0 0 1 2.76744,4.18502 z m 0,-19.014 a 2.7674432,4.1850219 0 0 1 -2.76744,4.18502 2.7674432,4.1850219 0 0 1 -2.76744,-4.18502 2.7674432,4.1850219 0 0 1 2.76744,-4.18502 2.7674432,4.1850219 0 0 1 2.76744,4.18502 z m 0,-17.088332 a 2.7674432,4.1850219 0 0 1 -2.76744,4.185017 2.7674432,4.1850219 0 0 1 -2.76744,-4.185017 2.7674432,4.1850219 0 0 1 2.76744,-4.185021 2.7674432,4.1850219 0 0 1 2.76744,4.185021 z m 0,-18.291431 a 2.7674432,4.1850219 0 0 1 -2.76744,4.18502 2.7674432,4.1850219 0 0 1 -2.76744,-4.18502 2.7674432,4.1850219 0 0 1 2.76744,-4.18502 2.7674432,4.1850219 0 0 1 2.76744,4.18502 z m 0,-15.4033 a 2.7674432,4.1850219 0 0 1 -2.76744,4.18502 2.7674432,4.1850219 0 0 1 -2.76744,-4.18502 2.7674432,4.1850219 0 0 1 2.76744,-4.18502 2.7674432,4.1850219 0 0 1 2.76744,4.18502 z m -7.02932,-8.85388 h 9.1119 c 1.35506,0 2.44597,1.77041 2.44597,3.96953 V 175.11539 c 0,2.19912 -1.09091,3.96953 -2.44597,3.96953 h -9.1119 c -1.35507,0 -2.44598,-1.77041 -2.44598,-3.96953 V 52.018347 c 0,-2.19912 1.09091,-3.96953 2.44598,-3.96953 z m 0,-8.26776 h 9.16882 c 1.35507,0 2.44597,1.77041 2.44597,3.96953 v 0.32869 c 0,2.19913 -1.0909,3.96954 -2.44597,3.96954 h -9.16882 c -1.35507,0 -2.44598,-1.77041 -2.44598,-3.96954 v -0.32869 c 0,-2.19912 1.09091,-3.96953 2.44598,-3.96953 z m 1.91225,-32.33986 h 5.38008 c 0.93693,0 1.69121,1.22411 1.69121,2.74465 v 26.58961 c 0,1.52054 -0.75428,2.74465 -1.69121,2.74465 h -5.38008 c -0.93693,0 -1.69121,-1.22411 -1.69121,-2.74465 v -26.58961 c 0,-1.52054 0.75428,-2.74465 1.69121,-2.74465 z" />
  </g>
  <g
     inkscape:groupmode="layer"
     id="layer3"
     inkscape:label="Layer 3">
    <path
       style="fill:#373e48;fill-rule:evenodd;stroke:#000000;stroke-width:2.11928;stroke-linecap:round;stroke-linejoin:round;paint-order:stroke markers fill"
       d=""
       id="path1273"
       transform="scale(0.26458333)" />
    <path
       style="fill:#373e48;fill-rule:evenodd;stroke:#000000;stroke-width:1.06481;stroke-linecap:round;stroke-linejoin:round;paint-order:stroke markers fill"
       d=""
       id="path1936"
       transform="scale(0.26458333)" />
    <path
       style="fill:#373e48;fill-rule:evenodd;stroke:#000000;stroke-width:1.06481;stroke-linecap:round;stroke-linejoin:round;paint-order:stroke markers fill"
       d=""
       id="path2053"
       transform="scale(0.26458333)" />
    <path
       style="fill:#53676c;fill-opacity:1;fill-rule:evenodd;stroke:#000000;stroke-width:0.805482;stroke-linecap:round;stroke-linejoin:round;paint-order:stroke markers fill"
       d=""
       id="path4931"
       transform="scale(0.26458333)" />
    <g
       id="g4256">
      <path
         id="path3252"
         style="fill:none;fill-rule:evenodd;stroke:#000000;stroke-width:0.918;stroke-linecap:round;stroke-linejoin:round;stroke-miterlimit:4;stroke-dasharray:none;paint-order:stroke markers fill"
         d="m 124.71583,91.627454 h 3.27061 c 0.80143,0 1.44662,1.04707 1.44662,2.3477 v 1.63317 c 0,1.30062 -0.64519,2.3477 -1.44662,2.3477 h -3.27061 c -0.80142,0 -1.44662,-1.04708 -1.44662,-2.3477 v -1.63317 c 0,-1.30063 0.6452,-2.3477 1.44662,-2.3477 z m -2.86029,154.335426 h 9.74087 c 1.35507,0 2.44597,1.77041 2.44597,3.96953 v 0.43098 c 0,2.19912 -1.0909,3.96953 -2.44597,3.96953 h -9.74087 c -1.35507,0 -2.44597,-1.77041 -2.44597,-3.96953 v -0.43098 c 0,-2.19912 1.0909,-3.96953 2.44597,-3.96953 z m 7.02933,-21.09631 a 2.7674432,4.1850219 0 0 1 -2.76744,4.18502 2.7674432,4.1850219 0 0 1 -2.76745,-4.18502 2.7674432,4.1850219 0 0 1 2.76745,-4.18502 2.7674432,4.1850219 0 0 1 2.76744,4.18502 z m 0,-15.64443 a 2.7674432,4.1850219 0 0 1 -2.76744,4.18503 2.7674432,4.1850219 0 0 1 -2.76745,-4.18503 2.7674432,4.1850219 0 0 1 2.76745,-4.18502 2.7674432,4.1850219 0 0 1 2.76744,4.18502 z m 0,-15.64441 a 2.7674432,4.1850219 0 0 1 -2.76744,4.18503 2.7674432,4.1850219 0 0 1 -2.76745,-4.18503 2.7674432,4.1850219 0 0 1 2.76745,-4.18502 2.7674432,4.1850219 0 0 1 2.76744,4.18502 z m 0,-19.014 a 2.7674432,4.1850219 0 0 1 -2.76744,4.18502 2.7674432,4.1850219 0 0 1 -2.76745,-4.18502 2.7674432,4.1850219 0 0 1 2.76745,-4.18502 2.7674432,4.1850219 0 0 1 2.76744,4.18502 z m 0,-17.08834 a 2.7674432,4.1850219 0 0 1 -2.76744,4.18502 2.7674432,4.1850219 0 0 1 -2.76745,-4.18502 2.7674432,4.1850219 0 0 1 2.76745,-4.18502 2.7674432,4.1850219 0 0 1 2.76744,4.18502 z m 0,-18.29143 a 2.7674432,4.1850219 0 0 1 -2.76744,4.18502 2.7674432,4.1850219 0 0 1 -2.76745,-4.18502 2.7674432,4.1850219 0 0 1 2.76745,-4.18502 2.7674432,4.1850219 0 0 1 2.76744,4.18502 z m 0,-15.4033 a 2.7674432,4.1850219 0 0 1 -2.76744,4.18502 2.7674432,4.1850219 0 0 1 -2.76745,-4.18502 2.7674432,4.1850219 0 0 1 2.76745,-4.18502 2.7674432,4.1850219 0 0 1 2.76744,4.18502 z m -7.02933,-8.85388 h 9.1119 c 1.35507,0 2.44597,1.77041 2.44597,3.96953 v 123.09705 c 0,2.19912 -1.0909,3.96953 -2.44597,3.96953 h -9.1119 c -1.35507,0 -2.44597,-1.77041 -2.44597,-3.96953 V 118.89631 c 0,-2.19912 1.0909,-3.96953 2.44597,-3.96953 z m 0,-8.26776 h 9.16883 c 1.35507,0 2.44597,1.77041 2.44597,3.96953 v 0.32869 c 0,2.19913 -1.0909,3.96954 -2.44597,3.96954 h -9.16883 c -1.35507,0 -2.44597,-1.77041 -2.44597,-3.96954 v -0.32869 c 0,-2.19912 1.0909,-3.96953 2.44597,-3.96953 z m 1.91226,-32.339856 h 5.38007 c 0.93694,0 1.69122,1.22411 1.69122,2.74465 v 26.589606 c 0,1.52054 -0.75428,2.74465 -1.69122,2.74465 h -5.38007 c -0.93694,0 -1.69122,-1.22411 -1.69122,-2.74465 V 77.063814 c 0,-1.52054 0.75428,-2.74465 1.69122,-2.74465 z" />
      <path
         style="fill:#ffffff;fill-rule:evenodd;stroke:#000000;stroke-width:5.88592;stroke-linecap:round;stroke-linejoin:round;stroke-miterlimit:4;stroke-dasharray:none;paint-order:stroke markers fill"
         d="m 455.76204,921.92642 c -2.82917,-6.20937 -2.82917,-473.71889 0,-479.92824 1.94783,-4.27501 2.18132,-4.32089 21.99382,-4.32089 18.06201,0 20.19725,0.32168 21.78121,3.28133 2.44774,4.57365 2.44774,477.43371 0,482.00735 -1.58396,2.95965 -3.7192,3.28133 -21.78121,3.28133 -19.8125,0 -20.04599,-0.0459 -21.99382,-4.32088 z m 29.26431,-58.57696 c 6.18325,-7.34837 6.18325,-19.53408 0,-26.88245 -2.58244,-3.06907 -6.01489,-5.21944 -8.33131,-5.21944 -6.59273,0 -12.72318,8.99134 -12.72318,18.66066 0,9.66933 6.13045,18.66066 12.72318,18.66066 2.31642,0 5.74887,-2.15037 8.33131,-5.21943 z m -0.74056,-57.50508 c 7.15705,-7.15706 6.72134,-23.68695 -0.79476,-30.15203 -5.8534,-5.03489 -8.60133,-4.8199 -14.56039,1.13918 -4.05169,4.05169 -4.95878,6.3945 -4.95878,12.80742 0,8.12894 3.41971,16.90914 7.17411,18.41972 4.65464,1.87278 9.94412,0.98141 13.13982,-2.21429 z m 0,-59.37483 c 4.31384,-4.31385 5.78537,-10.3807 4.62187,-19.05523 -2.44727,-18.24578 -21.97797,-18.24578 -24.42525,0 -1.70526,12.71369 3.5773,22.40492 12.21263,22.40492 2.33258,0 5.74842,-1.50736 7.59075,-3.34969 z m 0.17365,-72.85888 c 4.15846,-4.15846 4.95877,-6.32778 4.95877,-13.44123 0,-6.6506 -0.94845,-9.60963 -4.39186,-13.70187 -9.30378,-11.05694 -21.05449,-3.07128 -21.05449,14.3084 0,6.44306 0.90214,8.77807 4.95878,12.8347 2.72732,2.72734 6.22131,4.95878 7.7644,4.95878 1.54309,0 5.03707,-2.23144 7.7644,-4.95878 z M 483.604,610.18858 c 9.07884,-7.80929 6.7398,-30.13385 -3.42454,-32.68494 -9.77622,-2.45367 -16.2076,5.0205 -16.2076,18.83551 0,6.41292 0.90709,8.75574 4.95878,12.80742 5.98354,5.98354 8.70389,6.17673 14.67336,1.04201 z m 1.42235,-70.85603 c 3.44341,-4.09226 4.39186,-7.05127 4.39186,-13.70188 0,-7.11344 -0.80031,-9.28277 -4.95877,-13.44123 -2.72733,-2.72733 -6.22131,-4.95878 -7.7644,-4.95878 -1.54309,0 -5.03708,2.23145 -7.7644,4.95878 -4.05169,4.05169 -4.95878,6.3945 -4.95878,12.80742 0,17.69676 11.58753,25.58654 21.05449,14.33569 z m -0.0379,-57.58396 c 7.67544,-7.36364 4.34236,-29.17987 -4.80901,-31.47672 -9.77622,-2.45367 -16.2076,5.0205 -16.2076,18.83551 0,6.4546 0.90176,8.7504 5.07699,12.92564 5.54849,5.54849 9.94142,5.4701 15.93962,-0.28443 z"
         id="path3536"
         transform="scale(0.26458333)" />
      <path
         style="fill:#ffffff;fill-rule:evenodd;stroke:#000000;stroke-width:5.88592;stroke-linecap:round;stroke-linejoin:round;stroke-miterlimit:4;stroke-dasharray:none;paint-order:stroke markers fill"
         d="m 456.1585,954.20248 c -3.49225,-5.32984 -2.26363,-17.50417 2.08759,-20.68586 1.96709,-1.43837 8.86715,-2.18005 20.28167,-2.18005 21.57819,0 25.40043,2.15877 25.14896,14.20393 -0.25634,12.27864 -1.51184,12.93885 -24.60566,12.93885 -19.62386,0 -20.17803,-0.10345 -22.91256,-4.27687 z"
         id="path3575"
         transform="scale(0.26458333)" />
      <path
         style="fill:#ffffff;fill-rule:evenodd;stroke:#000000;stroke-width:5.88592;stroke-linecap:round;stroke-linejoin:round;stroke-miterlimit:4;stroke-dasharray:none;paint-order:stroke markers fill"
         d="m 463.97186,317.77822 c 0,-24.34779 0.49384,-31.07704 2.39652,-32.65613 1.44132,-1.19619 6.68153,-1.7861 13.14728,-1.48003 l 10.75077,0.5089 0.46293,32.18605 c 0.36486,25.36822 0.0235,31.74661 -1.61161,30.11152 -2.67264,-2.67265 -20.4465,-2.70251 -23.11018,-0.0388 -1.58333,1.58333 -2.03571,-4.77922 -2.03571,-28.63148 z"
         id="path3614"
         transform="scale(0.26458333)" />
      <path
         style="fill:#ffffff;fill-rule:evenodd;stroke:#000000;stroke-width:5.88592;stroke-linecap:round;stroke-linejoin:round;stroke-miterlimit:4;stroke-dasharray:none;paint-order:stroke markers fill"
         d="m 465.72797,397.07465 c -0.96586,-1.80472 -1.75611,-9.11146 -1.75611,-16.23719 0,-11.77807 0.24235,-12.71353 2.66581,-10.29007 3.59279,3.59279 18.21837,3.59279 21.81116,0 2.42346,-2.42346 2.66581,-1.37477 2.66581,11.53568 0,8.7837 -0.77661,14.9781 -2.03571,16.2372 -1.11964,1.11964 -6.43651,2.0357 -11.81528,2.0357 -7.93256,0 -10.11124,-0.61972 -11.53568,-3.28132 z"
         id="path3653"
         transform="scale(0.26458333)" />
      <path
         style="fill:#ffffff;fill-rule:evenodd;stroke:#000000;stroke-width:5.88592;stroke-linecap:round;stroke-linejoin:round;stroke-miterlimit:4;stroke-dasharray:none;paint-order:stroke markers fill"
         d="m 458.24609,430.40797 c -4.35122,-3.18169 -5.57984,-15.35602 -2.08759,-20.68586 2.70964,-4.13544 3.40939,-4.27686 21.16093,-4.27686 21.36064,0 23.97375,1.4476 23.97375,13.28086 0,11.75416 -3.56196,13.86191 -23.42569,13.86191 -10.87669,0 -17.67262,-0.75506 -19.6214,-2.18005 z"
         id="path3692"
         transform="scale(0.26458333)" />
      <path
         style="fill:#ffffff;fill-rule:evenodd;stroke:#000000;stroke-width:5.88592;stroke-linecap:round;stroke-linejoin:round;stroke-miterlimit:4;stroke-dasharray:none;paint-order:stroke markers fill"
         d="m 469.78078,365.85599 c -0.52015,-1.3555 -0.70401,-5.40753 -0.40858,-9.00453 l 0.53714,-6.53998 h 7.63391 7.63391 v 8.48212 8.48211 l -7.22533,0.52241 c -5.11821,0.37006 -7.50112,-0.19632 -8.17105,-1.94213 z"
         id="path3731"
         transform="scale(0.26458333)" />
      <path
         style="fill:#ffffff;fill-rule:evenodd;stroke:#000000;stroke-width:5.88592;stroke-linecap:round;stroke-linejoin:round;stroke-miterlimit:4;stroke-dasharray:none;paint-order:stroke markers fill"
         d="m 474.67463,480.35504 c -5.6433,-3.67504 -7.28421,-15.78761 -2.97267,-21.9432 3.35416,-4.78873 6.63199,-4.78873 9.98615,0 5.84758,8.34858 0.0353,26.53351 -7.01348,21.9432 z"
         id="path3770"
         transform="scale(0.26458333)" />
      <path
         style="fill:#ffffff;fill-rule:evenodd;stroke:#000000;stroke-width:5.88592;stroke-linecap:round;stroke-linejoin:round;stroke-miterlimit:4;stroke-dasharray:none;paint-order:stroke markers fill"
         d="m 467.6922,430.95407 c -10.07687,-1.14514 -12.13838,-3.18309 -12.17648,-12.0373 -0.0477,-11.0898 2.37,-12.45025 21.84411,-12.2917 10.94561,0.0891 18.11072,0.90044 19.71569,2.23244 3.75375,3.11533 3.42007,18.06102 -0.4475,20.04401 -4.32858,2.21937 -18.57512,3.22994 -28.93582,2.05255 z"
         id="path3809"
         transform="scale(0.26458333)" />
      <path
         style="fill:#ffffff;fill-rule:evenodd;stroke:#000000;stroke-width:5.88592;stroke-linecap:round;stroke-linejoin:round;stroke-miterlimit:4;stroke-dasharray:none;paint-order:stroke markers fill"
         d="m 471.70196,535.6924 c -5.84719,-8.34803 -0.73148,-25.13721 6.78098,-22.25441 8.35478,3.20603 6.78714,26.02472 -1.7879,26.02472 -1.29374,0 -3.54062,-1.69664 -4.99308,-3.77031 z"
         id="path3848"
         transform="scale(0.26458333)" />
      <path
         style="fill:#ffffff;fill-rule:evenodd;stroke:#000000;stroke-width:5.88592;stroke-linecap:round;stroke-linejoin:round;stroke-miterlimit:4;stroke-dasharray:none;paint-order:stroke markers fill"
         d="m 473.35456,606.71951 c -4.2157,-3.08259 -5.36349,-15.32651 -1.92825,-20.56935 3.45743,-5.2767 6.80492,-5.44194 10.2618,-0.50655 3.11555,4.44807 3.40186,11.364 0.71463,17.26184 -2.38901,5.2433 -5.37325,6.50124 -9.04818,3.81406 z"
         id="path3887"
         transform="scale(0.26458333)" />
      <path
         style="fill:#ffffff;fill-rule:evenodd;stroke:#000000;stroke-width:5.88592;stroke-linecap:round;stroke-linejoin:round;stroke-miterlimit:4;stroke-dasharray:none;paint-order:stroke markers fill"
         d="m 471.70196,740.95966 c -5.17683,-7.39097 -1.88627,-21.67604 4.99308,-21.67604 6.87934,0 10.16991,14.28507 4.99307,21.67604 -1.45245,2.07367 -3.69934,3.77031 -4.99307,3.77031 -1.29374,0 -3.54062,-1.69664 -4.99308,-3.77031 z"
         id="path3965"
         transform="scale(0.26458333)" />
      <path
         style="fill:#ffffff;fill-rule:evenodd;stroke:#000000;stroke-width:5.88592;stroke-linecap:round;stroke-linejoin:round;stroke-miterlimit:4;stroke-dasharray:none;paint-order:stroke markers fill"
         d="m 471.70196,800.33448 c -5.84719,-8.34802 -0.73148,-25.13721 6.78098,-22.25441 8.35478,3.20603 6.78714,26.02473 -1.7879,26.02473 -1.29374,0 -3.54062,-1.69664 -4.99308,-3.77032 z"
         id="path4004"
         transform="scale(0.26458333)" />
      <path
         style="fill:#ffffff;fill-rule:evenodd;stroke:#000000;stroke-width:5.88592;stroke-linecap:round;stroke-linejoin:round;stroke-miterlimit:4;stroke-dasharray:none;paint-order:stroke markers fill"
         d="m 472.4155,860.0483 c -4.54622,-4.54622 -4.54622,-15.73391 0,-20.28013 5.73589,-5.73589 11.91344,-0.47791 11.91344,10.14006 0,10.61797 -6.17755,15.87596 -11.91344,10.14007 z"
         id="path4043"
         transform="scale(0.26458333)" />
    </g>
  </g>
  <g
     inkscape:groupmode="layer"
     id="layer4"
     inkscape:label="Layer 4">
    <g
       id="g3250"
       transform="translate(-25.135343,-35.907633)">
      <path
         id="path2381"
         style="fill:none;fill-rule:evenodd;stroke:#000000;stroke-width:0.918;stroke-linecap:round;stroke-linejoin:round;stroke-miterlimit:4;stroke-dasharray:none;paint-order:stroke markers fill"
         d="m 73.098611,118.55818 h 3.27061 c 0.801428,0 1.44662,1.04707 1.44662,2.3477 v 1.63317 c 0,1.30062 -0.645192,2.3477 -1.44662,2.3477 h -3.27061 c -0.801428,0 -1.446621,-1.04708 -1.446621,-2.3477 v -1.63317 c 0,-1.30063 0.645193,-2.3477 1.446621,-2.3477 z m -2.860295,154.33543 h 9.740868 c 1.355069,0 2.445972,1.77041 2.445972,3.96953 v 0.43098 c 0,2.19912 -1.090903,3.96953 -2.445972,3.96953 h -9.740868 c -1.355068,0 -2.445971,-1.77041 -2.445971,-3.96953 v -0.43098 c 0,-2.19912 1.090903,-3.96953 2.445971,-3.96953 z m 7.029331,-21.09631 a 2.7674432,4.1850219 0 0 1 -2.767443,4.18502 2.7674432,4.1850219 0 0 1 -2.767443,-4.18502 2.7674432,4.1850219 0 0 1 2.767443,-4.18502 2.7674432,4.1850219 0 0 1 2.767443,4.18502 z m 0,-15.64443 a 2.7674432,4.1850219 0 0 1 -2.767443,4.18503 2.7674432,4.1850219 0 0 1 -2.767443,-4.18503 2.7674432,4.1850219 0 0 1 2.767443,-4.18502 2.7674432,4.1850219 0 0 1 2.767443,4.18502 z m 0,-15.64441 a 2.7674432,4.1850219 0 0 1 -2.767443,4.18503 2.7674432,4.1850219 0 0 1 -2.767443,-4.18503 2.7674432,4.1850219 0 0 1 2.767443,-4.18502 2.7674432,4.1850219 0 0 1 2.767443,4.18502 z m 0,-19.014 a 2.7674432,4.1850219 0 0 1 -2.767443,4.18502 2.7674432,4.1850219 0 0 1 -2.767443,-4.18502 2.7674432,4.1850219 0 0 1 2.767443,-4.18502 2.7674432,4.1850219 0 0 1 2.767443,4.18502 z m 0,-17.08834 a 2.7674432,4.1850219 0 0 1 -2.767443,4.18502 2.7674432,4.1850219 0 0 1 -2.767443,-4.18502 2.7674432,4.1850219 0 0 1 2.767443,-4.18502 2.7674432,4.1850219 0 0 1 2.767443,4.18502 z m 0,-18.29143 a 2.7674432,4.1850219 0 0 1 -2.767443,4.18502 2.7674432,4.1850219 0 0 1 -2.767443,-4.18502 2.7674432,4.1850219 0 0 1 2.767443,-4.18502 2.7674432,4.1850219 0 0 1 2.767443,4.18502 z m 0,-15.4033 a 2.7674432,4.1850219 0 0 1 -2.767443,4.18502 2.7674432,4.1850219 0 0 1 -2.767443,-4.18502 2.7674432,4.1850219 0 0 1 2.767443,-4.18502 2.7674432,4.1850219 0 0 1 2.767443,4.18502 z m -7.029331,-8.85388 h 9.111903 c 1.355068,0 2.445971,1.77041 2.445971,3.96953 v 123.09705 c 0,2.19912 -1.090903,3.96953 -2.445971,3.96953 h -9.111903 c -1.355068,0 -2.445971,-1.77041 -2.445971,-3.96953 V 145.82704 c 0,-2.19912 1.090903,-3.96953 2.445971,-3.96953 z m 3e-6,-8.26776 h 9.168824 c 1.35507,0 2.445975,1.77041 2.445975,3.96953 v 0.32869 c 0,2.19913 -1.090905,3.96954 -2.445975,3.96954 h -9.168824 c -1.35507,0 -2.445974,-1.77041 -2.445974,-3.96954 v -0.32869 c 0,-2.19912 1.090904,-3.96953 2.445974,-3.96953 z m 1.912256,-32.33986 h 5.380075 c 0.936935,0 1.691218,1.22411 1.691218,2.74465 v 26.58961 c 0,1.52054 -0.754283,2.74465 -1.691218,2.74465 h -5.380075 c -0.936935,0 -1.691218,-1.22411 -1.691218,-2.74465 v -26.58961 c 0,-1.52054 0.754283,-2.74465 1.691218,-2.74465 z" />
      <path
         style="fill:#806600;fill-rule:evenodd;stroke:#000000;stroke-width:0.097577;stroke-linecap:round;stroke-linejoin:round;stroke-miterlimit:4;stroke-dasharray:none;paint-order:stroke markers fill"
         d="m 260.67333,1023.7118 c -2.82918,-6.2093 -2.82918,-473.71885 0,-479.92821 1.94782,-4.27501 2.18131,-4.32088 21.99382,-4.32088 18.06201,0 20.19725,0.32167 21.7812,3.28132 2.44775,4.57365 2.44775,477.43367 0,482.00737 -1.58395,2.9596 -3.71919,3.2813 -21.7812,3.2813 -19.81251,0 -20.046,-0.046 -21.99382,-4.3209 z m 29.26431,-58.57693 c 6.18325,-7.34836 6.18325,-19.53408 0,-26.88244 -2.58244,-3.06907 -6.01489,-5.21944 -8.33132,-5.21944 -6.59273,0 -12.72318,8.99134 -12.72318,18.66066 0,9.66933 6.13045,18.66066 12.72318,18.66066 2.31643,0 5.74888,-2.15037 8.33132,-5.21944 z m -0.74056,-57.50508 c 7.15704,-7.15705 6.72134,-23.68694 -0.79477,-30.15203 -5.8534,-5.03488 -8.60132,-4.81989 -14.56039,1.13919 -4.05168,4.05168 -4.95878,6.3945 -4.95878,12.80742 0,8.12894 3.41971,16.90913 7.17411,18.41972 4.65465,1.87278 9.94412,0.98141 13.13983,-2.2143 z m 0,-59.37482 c 4.31384,-4.31386 5.78536,-10.38071 4.62186,-19.05523 -2.44727,-18.24579 -21.97797,-18.24579 -24.42524,0 -1.70527,12.71369 3.57729,22.40492 12.21262,22.40492 2.33258,0 5.74842,-1.50736 7.59076,-3.34969 z m 0.17364,-72.85889 c 4.15847,-4.15846 4.95878,-6.32778 4.95878,-13.44122 0,-6.65061 -0.94845,-9.60963 -4.39186,-13.70188 -9.47693,-11.26271 -21.0545,-3.37971 -21.0545,14.33568 0,6.41292 0.9071,8.75574 4.95878,12.80742 2.72733,2.72734 6.22131,4.95879 7.7644,4.95879 1.54309,0 5.03707,-2.23145 7.7644,-4.95879 z M 288.51528,711.974 c 9.07884,-7.8093 6.73981,-30.13385 -3.42453,-32.68494 -9.77622,-2.45368 -16.20761,5.0205 -16.20761,18.83551 0,6.41292 0.9071,8.75574 4.95878,12.80742 5.98354,5.98354 8.70389,6.17673 14.67336,1.04201 z m 1.42236,-70.85603 c 3.44341,-4.09226 4.39186,-7.05127 4.39186,-13.70188 0,-7.11345 -0.80031,-9.28277 -4.95878,-13.44123 -2.72733,-2.72733 -6.22131,-4.95878 -7.7644,-4.95878 -1.54309,0 -5.03707,2.23145 -7.7644,4.95878 -4.05168,4.05168 -4.95878,6.3945 -4.95878,12.80742 0,17.69675 11.58754,25.58653 21.0545,14.33569 z m -0.0379,-57.58397 c 7.67544,-7.36363 4.34236,-29.17987 -4.809,-31.47671 -9.77622,-2.45368 -16.20761,5.02049 -16.20761,18.83551 0,6.4546 0.90176,8.7504 5.077,12.92563 5.54848,5.54849 9.94142,5.4701 15.93961,-0.28443 z"
         id="path2438"
         transform="scale(0.26458333)" />
      <path
         style="fill:#447821;fill-rule:evenodd;stroke:#000000;stroke-width:0.097577;stroke-linecap:round;stroke-linejoin:round;stroke-miterlimit:4;stroke-dasharray:none;paint-order:stroke markers fill"
         d="m 261.06978,1055.9879 c -3.49224,-5.3298 -2.26363,-17.5042 2.08759,-20.6859 1.96709,-1.4383 8.86715,-2.18 20.28168,-2.18 21.57819,0 25.40042,2.1588 25.14896,14.2039 -0.25634,12.2787 -1.51185,12.9389 -24.60566,12.9389 -19.62386,0 -20.17804,-0.1035 -22.91257,-4.2769 z"
         id="path2514"
         transform="scale(0.26458333)" />
      <path
         style="fill:#447821;fill-rule:evenodd;stroke:#000000;stroke-width:0.097577;stroke-linecap:round;stroke-linejoin:round;stroke-miterlimit:4;stroke-dasharray:none;paint-order:stroke markers fill"
         d="m 263.15737,532.19339 c -4.35122,-3.18169 -5.57983,-15.35603 -2.08759,-20.68587 2.70964,-4.13543 3.40939,-4.27686 21.16094,-4.27686 21.36063,0 23.97374,1.4476 23.97374,13.28086 0,11.75417 -3.56196,13.86192 -23.42569,13.86192 -10.87669,0 -17.67262,-0.75507 -19.6214,-2.18005 z"
         id="path2553"
         transform="scale(0.26458333)" />
      <path
         style="fill:#447821;fill-rule:evenodd;stroke:#000000;stroke-width:0.097577;stroke-linecap:round;stroke-linejoin:round;stroke-miterlimit:4;stroke-dasharray:none;paint-order:stroke markers fill"
         d="m 268.88314,419.56364 c 0,-24.34779 0.49384,-31.07704 2.39652,-32.65613 1.44133,-1.19619 6.68153,-1.7861 13.14729,-1.48004 l 10.75076,0.5089 0.46293,32.18605 c 0.36487,25.36822 0.0235,31.74661 -1.6116,30.11152 -2.67265,-2.67264 -20.44651,-2.7025 -23.11019,-0.0388 -1.58333,1.58333 -2.03571,-4.77922 -2.03571,-28.63148 z"
         id="path2592"
         transform="scale(0.26458333)" />
      <path
         style="fill:#447821;fill-rule:evenodd;stroke:#000000;stroke-width:0.097577;stroke-linecap:round;stroke-linejoin:round;stroke-miterlimit:4;stroke-dasharray:none;paint-order:stroke markers fill"
         d="m 270.63925,498.86007 c -0.96586,-1.80473 -1.75611,-9.11147 -1.75611,-16.2372 0,-11.77807 0.24235,-12.71353 2.66581,-10.29006 3.5928,3.59279 18.21837,3.59279 21.81116,0 2.42347,-2.42347 2.66581,-1.37477 2.66581,11.53568 0,8.7837 -0.77661,14.9781 -2.03571,16.23719 -1.11964,1.11964 -6.43651,2.03571 -11.81528,2.03571 -7.93256,0 -10.11123,-0.61972 -11.53568,-3.28132 z"
         id="path2631"
         transform="scale(0.26458333)" />
      <path
         style="fill:#a0892c;fill-rule:evenodd;stroke:#000000;stroke-width:0.097577;stroke-linecap:round;stroke-linejoin:round;stroke-miterlimit:4;stroke-dasharray:none;paint-order:stroke markers fill"
         d="m 274.69207,467.6414 c -0.52016,-1.35549 -0.70402,-5.40753 -0.40859,-9.00452 l 0.53715,-6.53999 h 7.6339 7.63391 v 8.48212 8.48212 l -7.22532,0.52241 c -5.11822,0.37005 -7.50113,-0.19633 -8.17105,-1.94214 z"
         id="path2805"
         transform="scale(0.26458333)" />
      <path
         style="fill:#a0892c;fill-rule:evenodd;stroke:#000000;stroke-width:0.097577;stroke-linecap:round;stroke-linejoin:round;stroke-miterlimit:4;stroke-dasharray:none;paint-order:stroke markers fill"
         d="m 279.58591,582.14045 c -5.6433,-3.67503 -7.2842,-15.78761 -2.97267,-21.94319 3.35416,-4.78873 6.632,-4.78873 9.98616,0 5.84757,8.34858 0.0353,26.53351 -7.01349,21.94319 z"
         id="path2844"
         transform="scale(0.26458333)" />
      <path
         style="fill:#a0892c;fill-rule:evenodd;stroke:#000000;stroke-width:0.097577;stroke-linecap:round;stroke-linejoin:round;stroke-miterlimit:4;stroke-dasharray:none;paint-order:stroke markers fill"
         d="m 276.61324,637.47782 c -5.84718,-8.34803 -0.73148,-25.13721 6.78098,-22.25441 8.35478,3.20603 6.78714,26.02472 -1.7879,26.02472 -1.29373,0 -3.54062,-1.69664 -4.99308,-3.77031 z"
         id="path2883"
         transform="scale(0.26458333)" />
      <path
         style="fill:#a0892c;fill-rule:evenodd;stroke:#000000;stroke-width:0.097577;stroke-linecap:round;stroke-linejoin:round;stroke-miterlimit:4;stroke-dasharray:none;paint-order:stroke markers fill"
         d="m 278.26584,708.50493 c -4.21569,-3.08259 -5.36348,-15.32651 -1.92825,-20.56935 3.45743,-5.27671 6.80492,-5.44195 10.26181,-0.50655 3.11554,4.44807 3.40186,11.364 0.71462,17.26184 -2.389,5.2433 -5.37324,6.50124 -9.04818,3.81406 z"
         id="path2922"
         transform="scale(0.26458333)" />
      <path
         style="fill:#a0892c;fill-rule:evenodd;stroke:#000000;stroke-width:0.097577;stroke-linecap:round;stroke-linejoin:round;stroke-miterlimit:4;stroke-dasharray:none;paint-order:stroke markers fill"
         d="m 277.40414,771.91163 c -7.19799,-7.19799 -1.64083,-27.54857 6.21643,-22.76488 4.31402,2.62648 6.2962,9.25749 4.93548,16.51073 -1.5365,8.19027 -6.45655,10.9495 -11.15191,6.25415 z"
         id="path3000"
         transform="scale(0.26458333)" />
      <path
         style="fill:#a0892c;fill-rule:evenodd;stroke:#000000;stroke-width:0.097577;stroke-linecap:round;stroke-linejoin:round;stroke-miterlimit:4;stroke-dasharray:none;paint-order:stroke markers fill"
         d="m 276.61324,842.74508 c -5.17683,-7.39097 -1.88626,-21.67605 4.99308,-21.67605 6.87934,0 10.16991,14.28508 4.99308,21.67605 -1.45246,2.07367 -3.69934,3.77031 -4.99308,3.77031 -1.29373,0 -3.54062,-1.69664 -4.99308,-3.77031 z"
         id="path3039"
         transform="scale(0.26458333)" />
      <path
         style="fill:#a0892c;fill-rule:evenodd;stroke:#000000;stroke-width:0.097577;stroke-linecap:round;stroke-linejoin:round;stroke-miterlimit:4;stroke-dasharray:none;paint-order:stroke markers fill"
         d="m 276.61324,902.1199 c -5.84718,-8.34803 -0.73148,-25.13721 6.78098,-22.25441 8.35478,3.20603 6.78714,26.02472 -1.7879,26.02472 -1.29373,0 -3.54062,-1.69664 -4.99308,-3.77031 z"
         id="path3078"
         transform="scale(0.26458333)" />
      <path
         style="fill:#a0892c;fill-rule:evenodd;stroke:#000000;stroke-width:0.097577;stroke-linecap:round;stroke-linejoin:round;stroke-miterlimit:4;stroke-dasharray:none;paint-order:stroke markers fill"
         d="m 277.32679,961.83372 c -4.54622,-4.54622 -4.54622,-15.73392 0,-20.28013 5.73589,-5.7359 11.91344,-0.47791 11.91344,10.14006 0,10.61797 -6.17755,15.87596 -11.91344,10.14007 z"
         id="path3117"
         transform="scale(0.26458333)" />
    </g>
  </g>
</svg>
