<?xml version="1.0" encoding="UTF-8" standalone="no"?>
<!-- Created with Inkscape (http://www.inkscape.org/) -->

<svg
   width="210mm"
   height="297mm"
   viewBox="0 0 210 297"
   version="1.1"
   id="svg5"
   inkscape:version="1.1.1 (3bf5ae0d25, 2021-09-20)"
   sodipodi:docname="phone audio output track icon.svg"
   xmlns:inkscape="http://www.inkscape.org/namespaces/inkscape"
   xmlns:sodipodi="http://sodipodi.sourceforge.net/DTD/sodipodi-0.dtd"
   xmlns="http://www.w3.org/2000/svg"
   xmlns:svg="http://www.w3.org/2000/svg">
  <sodipodi:namedview
     id="namedview7"
     pagecolor="#ffffff"
     bordercolor="#666666"
     borderopacity="1.0"
     inkscape:pageshadow="2"
     inkscape:pageopacity="0.0"
     inkscape:pagecheckerboard="0"
     inkscape:document-units="mm"
     showgrid="false"
     inkscape:zoom="1.0824912"
     inkscape:cx="396.30807"
     inkscape:cy="889.15273"
     inkscape:window-width="1680"
     inkscape:window-height="956"
     inkscape:window-x="-11"
     inkscape:window-y="-11"
     inkscape:window-maximized="1"
     inkscape:current-layer="layer1" />
  <defs
     id="defs2" />
  <g
     inkscape:label="Layer 1"
     inkscape:groupmode="layer"
     id="layer1">
    <g
       id="g2101">
      <path
         id="path1518"
         style="fill:none;stroke:#000000;stroke-width:0.4967;stroke-linecap:round;stroke-linejoin:round;stroke-opacity:0.955017;paint-order:stroke markers fill"
         d="m 178.21524,81.776946 h 0.13283 c 1.80293,0 3.25439,1.52504 3.25439,3.41937 v 9.21136 c 0,1.89433 -1.45146,3.41937 -3.25439,3.41937 h -0.13283 c -1.80293,0 -3.25439,-1.52504 -3.25439,-3.41937 v -9.21136 c 0,-1.89433 1.45146,-3.41937 3.25439,-3.41937 z m 0,-11.44443 c 1.80293,0 3.25439,1.52505 3.25439,3.41938 v 4.60568 c 0,1.89433 -1.45146,3.41938 -3.25439,3.41938 -1.80293,0 -3.25439,-1.52505 -3.25439,-3.41938 v -4.60568 c 0,-1.89433 1.45146,-3.41938 3.25439,-3.41938 z M 168.05357,9.9003563 h 24.30829 c 3.01715,0 5.44612,2.5520997 5.44612,5.7222097 v 43.96336 c 0,3.1701 -2.42897,5.72221 -5.44612,5.72221 h -24.30829 c -3.01715,0 -5.44611,-2.55211 -5.44611,-5.72221 v -43.96336 c 0,-3.17011 2.42896,-5.7222097 5.44611,-5.7222097 z m -4.64912,-3.62873 h 33.07521 c 3.01715,0 5.44612,2.55211 5.44612,5.7222097 v 52.4769 c 0,3.17011 -2.42897,5.72221 -5.44612,5.72221 h -33.07521 c -3.01715,0 -5.44612,-2.5521 -5.44612,-5.72221 v -52.4769 c 0,-3.1700997 2.42897,-5.7222097 5.44612,-5.7222097 z" />
      <path
         id="rect1919"
         style="stroke:#000000;stroke-width:0.427296;stroke-linecap:round;stroke-linejoin:round;stroke-opacity:0.955017;paint-order:stroke markers fill"
         d="m 148.3092,-134.7406 h 0.55661 c 0.74051,0 1.33665,0.59615 1.33665,1.33665 v 20.4317 c 0,0.7405 -0.59614,1.33665 -1.33665,1.33665 h -0.55661 c -0.7405,0 -1.33665,-0.59615 -1.33665,-1.33665 v -20.4317 c 0,-0.7405 0.59615,-1.33665 1.33665,-1.33665 z m 21.6221,52.097263 c -2.95241,0.975111 -2.48736,1.348197 -22.15198,-17.771423 -19.73586,-19.1889 -19.31604,-18.69198 -18.32977,-21.69624 0.42309,-1.28876 1.84673,-2.83625 14.16692,-15.39943 15.19804,-15.49778 15.03629,-15.36611 17.94528,-14.60805 2.09676,0.5464 37.20199,34.67872 37.80051,36.7529 0.83112,2.88025 0.96715,2.70656 -14.29746,18.255733 -12.36849,12.599067 -13.89368,14.057024 -15.1335,14.46651 z m 23.81278,-29.370843 c 0.34221,-0.92142 0.49043,-2.39239 0.32939,-3.26884 -0.28342,-1.54244 -0.79639,-2.08316 -15.99797,-16.86343 -15.20156,-14.78026 -15.75667,-15.27802 -17.31205,-15.52342 -3.27182,-0.5162 -3.73274,-0.16742 -15.10904,11.43325 -9.56958,9.75832 -10.21562,10.48428 -10.98171,12.34031 -1.47661,3.5774 -2.00798,2.89606 15.64265,20.05751 17.62027,17.131939 16.93896,16.629178 20.48053,15.113353 1.84001,-0.787546 2.50639,-1.403786 12.13645,-11.223366 9.3116,-9.494897 10.24316,-10.534407 10.81175,-12.065367 z m -4.40234,24.524334 c -1.00915,0.103281 -1.59188,-0.238919 -3.39914,-1.996091 -2.57286,-2.50156 -2.93152,-3.838847 -1.43803,-5.361798 1.72994,-1.764052 3.09411,-1.535475 5.64642,0.946102 2.49397,2.424852 2.81246,3.835955 1.23,5.449631 -0.45172,0.460627 -1.36938,0.893598 -2.03925,0.962156 z m 10.65707,10.361714 c -1.09564,0.112133 -1.59188,-0.238918 -4.94161,-3.495812 -4.29673,-4.177651 -4.68527,-5.123134 -2.86715,-6.977103 1.93114,-1.969232 2.69799,-1.694826 7.02751,2.514708 3.46016,3.364265 3.82472,3.846366 3.73795,4.943192 -0.0529,0.668445 -0.46574,1.592233 -0.91746,2.05286 -0.45171,0.460626 -1.36938,0.893598 -2.03924,0.962155 z"
         transform="matrix(0.63127254,0.77556107,-0.64926655,0.76056094,0,0)" />
    </g>
    <path
       id="rect2001"
       style="fill:none;stroke:#000000;stroke-width:1.324;stroke-linecap:round;stroke-linejoin:round;stroke-opacity:0.955017;paint-order:stroke markers fill;stroke-miterlimit:4;stroke-dasharray:none"
       d="m 30.69407,12.969293 0.351373,0.431685 c 0.467461,0.574308 0.456734,1.490062 -0.02405,2.053262 L 17.755774,30.99379 c -0.480785,0.563199 -1.244175,0.554257 -1.711636,-0.02005 l -0.351372,-0.431685 c -0.467461,-0.574307 -0.456734,-1.490062 0.02405,-2.053262 L 28.982434,12.949244 c 0.480786,-0.5632 1.244175,-0.554258 1.711636,0.02005 z m -2.465955,68.807653 h 0.132832 c 1.802929,0 3.254387,1.52504 3.254387,3.41937 v 9.21136 c 1e-6,1.89433 -1.451458,3.41937 -3.254387,3.41937 h -0.132832 c -1.802934,0 -3.254387,-1.525039 -3.254386,-3.41937 l -10e-7,-9.21136 c 0,-1.89433 1.451453,-3.41937 3.254387,-3.41937 z m 0,-11.44443 c 1.802928,0 3.254386,1.52505 3.254386,3.41938 v 4.60568 c 0,1.89433 -1.451458,3.41938 -3.254386,3.41938 -1.802934,0 -3.254387,-1.525049 -3.254387,-3.419379 v -4.605681 c 0,-1.894331 1.451453,-3.419379 3.254387,-3.41938 z M 18.066446,9.9003564 l 24.308293,-2e-7 c 3.01715,1e-7 5.446113,2.5520998 5.446113,5.7222108 v 43.963359 c 0,3.1701 -2.428963,5.722211 -5.446113,5.72221 H 18.066447 c -3.017152,0 -5.446115,-2.55211 -5.446115,-5.72221 v -43.96336 c 0,-3.17011 2.428963,-5.7222095 5.446114,-5.7222096 z m -4.649125,-3.6287303 33.075219,5e-7 c 3.01715,-7e-7 5.446119,2.5521099 5.446119,5.7222094 v 52.4769 c 0,3.17011 -2.428969,5.72221 -5.446119,5.722211 l -33.075219,-10e-7 c -3.01715,0 -5.4461182,-2.5521 -5.4461187,-5.72221 l 4e-7,-52.4769 c -1e-7,-3.1700998 2.4289683,-5.7222094 5.4461183,-5.7222099 z" />
    <g
       id="g1351"
       transform="translate(-3.6663116,5.1328362)">
      <path
         id="path2103"
         style="fill:none;stroke:#000000;stroke-width:0.423792;stroke-linecap:round;stroke-linejoin:round;stroke-opacity:0.955017;paint-order:stroke markers fill"
         d="m 31.543856,203.32122 0.351373,0.43168 c 0.467461,0.57431 0.456734,1.49006 -0.02405,2.05326 L 18.60556,221.34571 c -0.480785,0.5632 -1.244175,0.55426 -1.711636,-0.02 l -0.351372,-0.43168 c -0.467461,-0.57431 -0.456734,-1.49006 0.02405,-2.05326 L 29.83222,203.30122 c 0.480786,-0.5632 1.244175,-0.55426 1.711636,0.02 z m -2.465955,68.80765 h 0.132832 c 1.802929,0 3.254387,1.52504 3.254387,3.41937 v 9.21136 c 1e-6,1.89433 -1.451458,3.41937 -3.254387,3.41937 h -0.132832 c -1.802934,0 -3.254387,-1.52504 -3.254386,-3.41937 l -1e-6,-9.21136 c 0,-1.89433 1.451453,-3.41937 3.254387,-3.41937 z m 0,-11.44443 c 1.802928,0 3.254386,1.52505 3.254386,3.41938 v 4.60568 c 0,1.89433 -1.451458,3.41938 -3.254386,3.41938 -1.802934,0 -3.254387,-1.52505 -3.254387,-3.41938 v -4.60568 c 0,-1.89433 1.451453,-3.41938 3.254387,-3.41938 z M 18.916232,200.25228 h 24.308293 c 3.01715,0 5.446113,2.5521 5.446113,5.72221 v 43.96336 c 0,3.1701 -2.428963,5.72221 -5.446113,5.72221 H 18.916233 c -3.017152,0 -5.446115,-2.55211 -5.446115,-5.72221 v -43.96336 c 0,-3.17011 2.428963,-5.72221 5.446114,-5.72221 z m -4.649125,-3.62873 h 33.075219 c 3.01715,0 5.446119,2.55211 5.446119,5.72221 v 52.4769 c 0,3.17011 -2.428969,5.72221 -5.446119,5.72221 H 14.267107 c -3.01715,0 -5.4461184,-2.5521 -5.4461194,-5.72221 v -52.4769 c 0,-3.1701 2.4289694,-5.72221 5.4461194,-5.72221 z" />
      <path
         style="fill:#ffffff;stroke:#000000;stroke-width:4.64318;stroke-linecap:round;stroke-linejoin:round;stroke-opacity:0.955017;paint-order:stroke markers fill"
         d="m 65.038694,962.88982 c -2.649724,-1.16962 -6.262985,-3.74607 -8.029468,-5.72544 -3.120418,-3.49648 -3.22314,-6.16387 -3.610842,-93.76272 -0.430182,-97.19703 -0.62814,-94.73615 8.14481,-101.2503 4.384267,-3.25544 6.249837,-3.3666 56.502306,-3.3666 h 51.96834 l 4.94874,4.7412 c 2.7218,2.60766 5.68423,7.47259 6.58316,10.81097 1.03986,3.86175 1.46868,36.92218 1.17881,90.88199 -0.5061,94.21044 0.008,89.83655 -11.38265,96.78205 -4.79167,2.92167 -8.32588,3.12536 -53.30871,3.07227 -36.382693,-0.0429 -49.356227,-0.57746 -52.994496,-2.18342 z M 97.140016,808.00225 c 14.582584,-17.09245 26.513794,-32.13499 26.513794,-33.42786 0,-4.6246 -3.34727,-8.5631 -7.27765,-8.5631 -3.14843,0 -9.26464,6.2275 -30.054006,30.60087 -14.355628,16.83049 -26.339875,32.06578 -26.63166,33.8562 -0.672959,4.12934 4.268904,9.70319 8.053357,9.08325 1.585301,-0.25969 14.813576,-14.4569 29.396165,-31.54936 z"
         id="path1051"
         transform="scale(0.26458333)" />
      <path
         style="fill:#ffffff;stroke:#000000;stroke-width:2.671;stroke-linecap:round;stroke-linejoin:round;stroke-opacity:0.955017;paint-order:stroke markers fill"
         d="m 49.878952,982.99073 c -7.896151,-2.44332 -13.087804,-8.11329 -14.747019,-16.10568 -0.690108,-3.32424 -0.920261,-36.08168 -0.744318,-105.93794 l 0.254699,-101.12569 1.993935,-3.69518 c 2.325897,-4.31037 6.022233,-7.94872 10.234385,-10.07382 2.699234,-1.36181 9.586164,-1.4845 70.738486,-1.2602 l 67.74812,0.24848 3.40846,2.30949 c 4.26171,2.88761 7.69967,7.96271 8.89007,13.12344 0.57325,2.4852 0.92343,41.26181 0.93758,103.82076 0.0245,108.35408 0.17967,104.90988 -5.03393,111.74525 -1.34249,1.76009 -4.18355,4.13167 -6.31349,5.27017 l -3.87261,2.07001 -65.58945,0.16369 c -36.074199,0.0901 -66.631411,-0.15872 -67.904918,-0.55278 z M 171.88867,965.63144 c 4.96911,-2.20549 10.37153,-7.98729 12.00405,-12.84705 0.95463,-2.84178 1.21713,-21.87435 1.26624,-91.80741 l 0.0619,-88.22243 -2.37464,-4.61645 c -1.38453,-2.69162 -4.38407,-6.2545 -7.19401,-8.5451 l -4.81939,-3.92866 -51.92886,0.009 -51.92887,0.009 -4.727086,2.20106 c -2.599899,1.21058 -5.808772,3.61921 -7.13083,5.35252 -5.516244,7.23217 -5.234129,1.90576 -5.212003,98.40418 0.01996,87.06629 0.05047,88.54961 1.904928,92.64013 2.203518,4.86045 4.647069,7.65292 9.144566,10.45035 2.87234,1.78658 5.016301,2.08827 18.491659,2.6021 8.38344,0.31968 31.691326,0.47654 51.795316,0.34857 34.05608,-0.21678 36.83233,-0.35678 40.64698,-2.04986 z"
         id="path1090"
         transform="scale(0.26458333)" />
      <path
         style="fill:#ffffff;stroke:#000000;stroke-width:2.671;stroke-linecap:round;stroke-linejoin:round;stroke-opacity:0.955017;paint-order:stroke markers fill"
         d="m 64.753921,835.19898 c -1.064722,-1.06472 -1.935858,-2.61664 -1.935858,-3.44872 0,-0.83207 2.989999,-5.30093 6.644442,-9.9308 10.549222,-13.36494 37.884405,-44.98252 42.689675,-49.37753 4.2148,-3.85495 4.44979,-3.94638 6.16155,-2.39726 3.91537,3.54336 3.33301,4.39961 -26.974633,39.66168 -10.480789,12.1941 -20.314481,23.354 -21.852649,24.79979 l -2.796669,2.6287 z"
         id="path1129"
         transform="scale(0.26458333)" />
      <path
         style="fill:#ffffff;stroke:#000000;stroke-width:2.671;stroke-linecap:round;stroke-linejoin:round;stroke-opacity:0.955017;paint-order:stroke markers fill"
         d="m 104.66464,1025.4499 c -4.92076,-3.0004 -5.818571,-5.9001 -5.818571,-18.7927 0,-10.39598 0.195012,-11.74609 2.106271,-14.5822 3.7562,-5.57384 8.95834,-6.8758 14.34668,-3.59062 4.53435,2.76451 5.71813,6.58454 5.71813,18.45222 0,11.8677 -1.18378,15.6877 -5.71813,18.4522 -3.84373,2.3435 -6.86272,2.3608 -10.63438,0.061 z"
         id="path1168"
         transform="scale(0.26458333)" />
      <path
         style="fill:#ffffff;stroke:#000000;stroke-width:2.671;stroke-linecap:round;stroke-linejoin:round;stroke-opacity:0.955017;paint-order:stroke markers fill"
         d="m 106.52145,1087.211 c -1.62154,-0.469 -3.90793,-2.1983 -5.08087,-3.8428 -2.047614,-2.8707 -2.143856,-3.7966 -2.414702,-23.2296 -0.307318,-22.0498 0.0047,-23.9245 4.629872,-27.8163 3.16368,-2.6621 7.75459,-3.0067 11.84887,-0.8895 5.1103,2.6426 5.51253,4.685 5.51253,27.9897 0,20.3162 -0.0806,21.271 -2.00269,23.7145 -1.10149,1.4004 -3.37453,3.1193 -5.05121,3.8198 -3.42308,1.4303 -3.38142,1.4288 -7.4418,0.2542 z"
         id="path1207"
         transform="scale(0.26458333)" />
    </g>
    <g
       id="g2181">
      <g
         id="g2172">
        <path
           id="path2105"
           style="fill:none;stroke:#000000;stroke-width:0.423792;stroke-linecap:round;stroke-linejoin:round;stroke-opacity:0.955017;paint-order:stroke markers fill"
           d="m 179.40652,200.77186 0.35137,0.43168 c 0.46746,0.57431 0.45673,1.49006 -0.0241,2.05326 l -13.26562,15.53955 c -0.48078,0.5632 -1.24417,0.55426 -1.71164,-0.02 l -0.35137,-0.43168 c -0.46746,-0.57431 -0.45673,-1.49006 0.024,-2.05326 l 13.26562,-15.53955 c 0.48079,-0.5632 1.24418,-0.55426 1.71164,0.02 z m -2.46596,68.80765 h 0.13283 c 1.80293,0 3.25439,1.52504 3.25439,3.41937 v 9.21136 c 0,1.89433 -1.45146,3.41937 -3.25439,3.41937 h -0.13283 c -1.80293,0 -3.25439,-1.52504 -3.25438,-3.41937 l -1e-5,-9.21136 c 0,-1.89433 1.45146,-3.41937 3.25439,-3.41937 z m 0,-11.44443 c 1.80293,0 3.25439,1.52505 3.25439,3.41938 v 4.60568 c 0,1.89433 -1.45146,3.41938 -3.25439,3.41938 -1.80293,0 -3.25439,-1.52505 -3.25439,-3.41938 v -4.60568 c 0,-1.89433 1.45146,-3.41938 3.25439,-3.41938 z m -10.16167,-60.43216 h 24.3083 c 3.01715,0 5.44611,2.5521 5.44611,5.72221 v 43.96336 c 0,3.1701 -2.42896,5.72221 -5.44611,5.72221 h -24.3083 c -3.01715,0 -5.44611,-2.55211 -5.44611,-5.72221 v -43.96336 c 0,-3.17011 2.42896,-5.72221 5.44611,-5.72221 z m -4.64912,-3.62873 h 33.07522 c 3.01715,0 5.44612,2.55211 5.44612,5.72221 v 52.4769 c 0,3.17011 -2.42897,5.72221 -5.44612,5.72221 h -33.07522 c -3.01715,0 -5.44612,-2.5521 -5.44612,-5.72221 v -52.4769 c 0,-3.1701 2.42897,-5.72221 5.44612,-5.72221 z" />
        <path
           style="fill:#00222b;stroke:#000000;stroke-width:2.671;stroke-linecap:round;stroke-linejoin:round;stroke-opacity:0.955017;paint-order:stroke markers fill;opacity:1"
           d="m 605.06817,971.87895 c -4.259,-2.25256 -7.71986,-5.78038 -9.82666,-10.01678 -1.61836,-3.25423 -1.71752,-8.46334 -1.99086,-104.58037 -0.20477,-72.00759 0.01,-102.53341 0.74383,-105.93726 1.31287,-6.0861 5.35403,-11.67426 10.38604,-14.36195 l 3.93851,-2.10363 h 66.97515 66.97514 l 3.9385,2.10363 c 5.06137,2.70337 9.08835,8.30126 10.3526,14.39114 0.69011,3.32423 0.92026,36.08168 0.74432,105.93793 l -0.2547,101.1257 -1.99394,3.69518 c -1.09667,2.03234 -3.17521,4.81632 -4.61898,6.1866 -5.8371,5.54001 -3.33792,5.36462 -75.80612,5.32 -62.83886,-0.0387 -66.48223,-0.13087 -69.56283,-1.76019 z m 128.01231,-17.1612 c 2.80091,-1.73209 5.58473,-4.51619 7.31682,-7.31757 l 2.79581,-4.52177 0.27495,-89.21901 c 0.19482,-63.21874 -0.0229,-90.24529 -0.74714,-92.74067 -1.25917,-4.33855 -6.54371,-10.33293 -11.20638,-12.71165 -3.32391,-1.69573 -5.96226,-1.78069 -55.29657,-1.78069 -49.68004,0 -51.95219,0.0745 -55.36525,1.81573 -4.54867,2.32056 -9.62387,8.24222 -10.99967,12.83422 -0.78114,2.60722 -1.07212,27.50666 -1.07212,91.74323 v 88.16481 l 2.40499,4.82619 c 1.32275,2.65441 3.81615,5.90253 5.5409,7.21806 6.48236,4.94433 6.07495,4.91298 60.95038,4.69087 l 50.88227,-0.20594 z"
           id="path1408"
           transform="scale(0.26458333)" />
        <path
           style="opacity:1;fill:#004455;stroke:#000000;stroke-width:2.671;stroke-linecap:round;stroke-linejoin:round;stroke-opacity:0.955017;paint-order:stroke markers fill"
           d="m 623.09976,953.67164 c -4.07043,-2.14209 -7.75561,-5.82713 -10.01541,-10.01501 l -1.99393,-3.69518 v -87.29863 c 0,-82.36013 0.0956,-87.54631 1.68931,-91.67687 1.97646,-5.12247 7.30331,-10.08326 12.49874,-11.63985 4.73831,-1.41963 96.92452,-1.50348 102.00442,-0.0928 4.40533,1.22337 9.42193,5.59079 12.03851,10.48064 l 2.02412,3.78264 0.25402,86.29001 c 0.28354,96.31585 0.49783,92.72393 -5.9267,99.33907 -6.07634,6.2566 -4.15179,6.06235 -59.65615,6.0214 -43.85181,-0.0323 -50.49338,-0.22003 -52.91693,-1.49544 z m 32.16179,-155.14736 c 22.6263,-26.50658 26.49919,-31.47206 26.49919,-33.97486 0,-5.02037 -4.56355,-9.61358 -8.35569,-8.41 -1.00063,0.31759 -10.24337,10.42153 -20.53943,22.45321 -34.45314,40.26094 -33.92294,39.5889 -33.92294,42.99797 0,4.02938 3.551,7.97735 7.17522,7.97735 2.33192,0 5.77636,-3.669 29.14365,-31.04367 z"
           id="path1856"
           transform="scale(0.26458333)" />
        <path
           style="opacity:1;fill:#80e5ff;stroke:#000000;stroke-width:2.671;stroke-linecap:round;stroke-linejoin:round;stroke-opacity:0.955017;paint-order:stroke markers fill"
           d="m 623.27973,825.14785 c -0.86112,-0.95153 -1.56567,-2.65647 -1.56567,-3.78875 0,-2.29763 51.15126,-62.92337 53.08982,-62.92337 1.83446,0 4.18548,3.20041 4.18548,5.69766 0,1.6978 -6.83812,10.33845 -25.5303,32.26009 -14.04167,16.46765 -26.22405,30.06341 -27.07198,30.2128 -0.84792,0.14939 -2.24623,-0.50691 -3.10735,-1.45843 z"
           id="path1932"
           transform="scale(0.26458333)" />
        <path
           style="opacity:1;fill:#217867;stroke:#000000;stroke-width:2.671;stroke-linecap:round;stroke-linejoin:round;stroke-opacity:0.955017;paint-order:stroke markers fill"
           d="m 666.55663,1017.2602 c -3.0913,-0.6347 -5.82303,-2.913 -7.34928,-6.1293 -1.69578,-3.5736 -2.09002,-22.75433 -0.5509,-26.80253 3.45678,-9.09201 15.28235,-9.36014 19.88947,-0.45096 1.86774,3.61182 1.91836,23.01549 0.0693,26.56929 -2.6645,5.1211 -7.36515,7.7771 -12.05861,6.8135 z"
           id="path2008"
           transform="scale(0.26458333)" />
        <path
           style="opacity:1;fill:#217867;stroke:#000000;stroke-width:2.671;stroke-linecap:round;stroke-linejoin:round;stroke-opacity:0.955017;paint-order:stroke markers fill"
           d="m 662.92907,1076.1397 c -4.84666,-3.8124 -5.18712,-5.5781 -5.18557,-26.8936 0.002,-22.5668 0.55385,-24.8353 6.78632,-27.8789 3.02279,-1.4762 4.0835,-1.5774 7.09133,-0.6762 1.94528,0.5828 4.60677,2.3312 5.91443,3.8853 l 2.37757,2.8255 v 21.2223 c 0,17.1627 -0.26806,21.7407 -1.40133,23.9322 -2.76574,5.3483 -10.94715,7.2297 -15.58275,3.5834 z"
           id="path2047"
           transform="scale(0.26458333)" />
      </g>
    </g>
  </g>
</svg>
