<?xml version="1.0" encoding="UTF-8" standalone="no"?>
<!-- Created with Inkscape (http://www.inkscape.org/) -->

<svg
   width="210mm"
   height="297mm"
   viewBox="0 0 210 297"
   version="1.1"
   id="svg5"
   inkscape:version="1.1.1 (3bf5ae0d25, 2021-09-20)"
   sodipodi:docname="pincel mic track icon svg.svg"
   xmlns:inkscape="http://www.inkscape.org/namespaces/inkscape"
   xmlns:sodipodi="http://sodipodi.sourceforge.net/DTD/sodipodi-0.dtd"
   xmlns="http://www.w3.org/2000/svg"
   xmlns:svg="http://www.w3.org/2000/svg">
  <sodipodi:namedview
     id="namedview7"
     pagecolor="#ffffff"
     bordercolor="#666666"
     borderopacity="1.0"
     inkscape:pageshadow="2"
     inkscape:pageopacity="0.0"
     inkscape:pagecheckerboard="0"
     inkscape:document-units="mm"
     showgrid="false"
     inkscape:zoom="0.86772068"
     inkscape:cx="228.18403"
     inkscape:cy="172.29047"
     inkscape:window-width="1680"
     inkscape:window-height="956"
     inkscape:window-x="-11"
     inkscape:window-y="-11"
     inkscape:window-maximized="1"
     inkscape:current-layer="layer1" />
  <defs
     id="defs2">
    <inkscape:path-effect
       effect="spiro"
       id="path-effect4354"
       is_visible="true"
       lpeversion="1" />
    <inkscape:path-effect
       effect="spiro"
       id="path-effect3994"
       is_visible="true"
       lpeversion="1" />
    <inkscape:path-effect
       effect="spiro"
       id="path-effect3489"
       is_visible="true"
       lpeversion="1" />
    <inkscape:path-effect
       effect="spiro"
       id="path-effect2084"
       is_visible="true"
       lpeversion="1" />
    <inkscape:path-effect
       effect="spiro"
       id="path-effect1887"
       is_visible="true"
       lpeversion="1" />
    <inkscape:path-effect
       effect="spiro"
       id="path-effect1881"
       is_visible="true"
       lpeversion="1" />
    <inkscape:path-effect
       effect="spiro"
       id="path-effect1511"
       is_visible="true"
       lpeversion="1" />
    <inkscape:path-effect
       effect="spiro"
       id="path-effect1505"
       is_visible="true"
       lpeversion="1" />
    <inkscape:path-effect
       effect="skeletal"
       id="path-effect3161"
       is_visible="true"
       lpeversion="1"
       pattern="m 182.71133,36.816874 0.27078,28.580167 24.64656,-14.536578 z m -38.1894,6.580476 v 17.728634 h 31.32522 V 43.39735 Z"
       copytype="repeated"
       prop_scale="1"
       scale_y_rel="false"
       spacing="5.8"
       normal_offset="0"
       tang_offset="1.5"
       prop_units="false"
       vertical_pattern="false"
       hide_knot="false"
       fuse_tolerance="0" />
    <inkscape:path-effect
       effect="skeletal"
       id="path-effect2910"
       is_visible="true"
       lpeversion="1"
       pattern="m 182.71133,36.816874 0.27078,28.580167 24.64656,-14.536578 z m -38.1894,6.580476 v 17.728634 h 31.32522 V 43.39735 Z"
       copytype="repeated"
       prop_scale="1"
       scale_y_rel="false"
       spacing="4.6"
       normal_offset="0.3"
       tang_offset="0"
       prop_units="false"
       vertical_pattern="false"
       hide_knot="false"
       fuse_tolerance="0" />
    <clipPath
       clipPathUnits="userSpaceOnUse"
       id="clipPath3146">
      <path
         id="path3148"
         style="fill:none;stroke:#000000;stroke-width:1.165;stroke-linecap:round;stroke-linejoin:round;stroke-miterlimit:4;stroke-dasharray:none;stroke-opacity:0.955017;paint-order:stroke markers fill"
         d="m 113.87095,228.1874 v 27.50736 c 0.021,0.0351 0.0404,0.0735 0.0568,0.11576 h 1.98593 v -0.28112 -1.32343 c 0,-0.34774 0.11639,-0.57997 0.27182,-0.69815 V 228.1874 Z" />
    </clipPath>
    <clipPath
       clipPathUnits="userSpaceOnUse"
       id="clipPath3276">
      <path
         id="path3278"
         style="fill:none;stroke:#000000;stroke-width:1.165;stroke-linecap:round;stroke-linejoin:round;stroke-miterlimit:4;stroke-dasharray:none;stroke-opacity:0.955017;paint-order:stroke markers fill"
         d="m 48.253767,228.71657 v 27.62311 h 2.314586 v -27.62311 z" />
    </clipPath>
    <clipPath
       clipPathUnits="userSpaceOnUse"
       id="clipPath3374">
      <path
         id="path3376"
         style="fill:none;stroke:#000000;stroke-width:1.165;stroke-linecap:round;stroke-linejoin:round;stroke-miterlimit:4;stroke-dasharray:none;stroke-opacity:0.955017;paint-order:stroke markers fill"
         d="m 115.53803,242.79426 -66.73236,0.001 v 28.06392 h 12.361521 c -0.01402,-0.0202 -0.02823,-0.0405 -0.04186,-0.0625 -0.03022,-0.0487 -0.06073,-0.0975 -0.09095,-0.14625 -0.125053,-0.22898 -0.178875,-0.29818 -0.249598,-0.56534 -0.02281,-0.0862 0.0269,-0.23412 -0.02016,-0.31212 -0.245764,-0.40771 -0.752885,-0.73798 -1.089337,-1.01079 -0.279951,-0.21222 -0.558186,-0.42657 -0.839743,-0.63666 -0.293669,-0.21912 -0.612574,-0.40691 -0.885735,-0.65112 -0.217281,-0.19426 -0.402656,-0.42341 -0.577225,-0.65681 -0.07896,-0.10557 -0.146847,-0.20599 -0.207741,-0.3054 -0.260799,-0.0816 -0.522742,-0.17127 -0.776695,-0.26046 -0.408141,0.22974 -0.835284,0.43483 -1.230934,0.68058 -0.630333,-0.54048 -1.121487,-1.23021 -1.412317,-2.00142 -0.213479,0.026 -0.426939,0.0515 -0.641302,0.0475 -0.03091,-5.3e-4 -0.03767,-0.0417 -0.04651,-0.077 -0.06734,6e-5 -0.0338,7.9e-4 -0.12764,-0.003 -0.182274,-0.17512 -0.384644,-0.33109 -0.546735,-0.52504 -0.02808,-0.0336 -0.0024,-0.0875 -0.0021,-0.13126 0.0021,-0.30754 0.01021,-0.61845 0.04703,-0.92345 0.03836,-0.0449 0.0068,-0.003 -0.04031,-0.14315 -0.02352,-0.0701 -0.04902,-0.13972 -0.07079,-0.21032 -0.231793,-0.12713 -0.320074,-0.35856 -0.444936,-0.58084 -0.05412,-0.10626 -0.108133,-0.2126 -0.162264,-0.31885 -0.01312,-0.0487 -0.01889,-0.0996 -0.03927,-0.14572 -0.05758,-0.1302 -0.288507,-0.49786 -0.290939,-0.68213 -0.03242,-0.0272 -0.06308,-0.0556 -0.08578,-0.0817 -0.221546,-0.2545 -0.281741,-0.58354 -0.33383,-0.90382 -0.02199,-0.13527 -0.04031,-0.27113 -0.06046,-0.4067 v -0.001 c -0.07501,-0.50468 0.09967,-0.75666 0.334864,-0.76791 0.03806,-0.002 0.07791,0.003 0.118338,0.0139 -0.01333,-0.0787 -0.02207,-0.1598 -0.02582,-0.24494 -0.01143,-0.0527 -0.04472,-0.10513 -0.03462,-0.15813 0.0035,-0.0187 0.03992,0.0324 0.05219,0.0501 -0.04979,-0.0786 -0.116343,-0.14623 -0.16278,-0.22686 -0.166052,-0.28821 -0.249314,-0.6823 -0.282154,-1.00769 -0.05288,-0.52403 0.175601,-0.7846 0.436149,-0.78393 v 5.3e-4 5.3e-4 c 0.260549,8e-4 0.553109,0.26258 0.62787,0.78393 0.02916,0.20335 0.0965,0.40807 0.196371,0.5886 0.007,0.0128 -0.0034,-0.0289 -0.0052,-0.0434 0.0447,0.0886 0.09882,0.17271 0.133842,0.26562 0.03411,0.0905 0.04832,0.18752 0.07235,0.28112 0.0093,0.0704 0.04828,0.44906 0.09509,0.5519 0.01508,0.0332 0.05651,0.0465 0.08165,0.0729 0.04288,0.045 0.08756,0.0889 0.128156,0.1359 0.04743,-0.89325 0.601279,-1.39204 1.198896,-1.38441 0.595519,0.008 1.232453,0.51619 1.447972,1.63298 0.01175,0.0608 0.02339,0.12161 0.03514,0.18241 -0.24724,0.42349 0.112582,-0.23023 0.33383,1.19373 0.0094,0.0602 1.35e-4,0.11952 -0.0181,0.17828 0.04562,0.1166 0.09132,0.23325 0.136943,0.34986 0.234029,0.59841 0.265539,1.12108 0.166399,1.5322 v 5.3e-4 5.3e-4 c 0.117645,0.0971 0.213524,0.20994 0.312127,0.35708 0.115265,0.009 0.244991,0.0225 0.406175,0.0444 0.671909,0.0912 1.143764,0.33617 1.429372,0.64183 0.154738,0.062 0.316891,0.18693 0.461986,0.38395 0.123417,-0.21424 0.246756,-0.4286 0.391708,-0.61753 0.137877,0.0417 0.280106,0.0734 0.420129,0.10955 0.307816,-0.52743 0.780349,-0.77976 1.30793,-0.77204 v -5.3e-4 c 0.440077,0.006 0.918208,0.19321 1.37046,0.55035 0.289375,0.22853 0.499475,0.5427 0.749308,0.8139 0.03626,0.25402 -0.07916,0.47526 -0.260451,0.68213 0.162846,0.0802 0.324295,0.16311 0.487826,0.24185 0.288607,0.24866 0.46631,0.39385 0.6165,0.52503 0.05078,-0.0912 0.108315,-0.17909 0.174668,-0.262 0.203282,-0.25404 0.621302,7.9e-4 0.961697,0.12557 0.191404,-0.0693 0.378187,-0.1713 0.535368,-0.21704 v 5.3e-4 c 1.780283,-0.51837 2.797543,0.30781 2.393135,1.24489 0.204748,-0.0454 0.434213,-0.0708 0.688848,-0.0708 h 0.787548 0.418063 c 0.06236,-0.0345 0.126976,-0.0542 0.19327,-0.0558 0.06795,-0.002 0.137422,0.0156 0.208257,0.0553 0.165565,-5.3e-4 0.149809,0.002 0.04237,0.0243 0.247321,0.1402 0.468582,0.27282 0.666109,0.39843 0.208513,0.0879 0.401746,0.183 0.501261,0.32401 0.385607,0.17467 0.631484,0.42735 0.743625,0.70383 0.247364,0.34124 0.197601,0.58506 -0.01654,0.75861 -0.166249,0.37053 -0.56773,0.69465 -1.191144,0.83923 l -5.29e-4,5.3e-4 c -0.06879,0.0678 -0.132265,0.12216 -0.185002,0.15864 -0.273233,0.18899 -0.606169,0.29218 -0.933791,0.34727 -0.418942,0.0705 -1.1482,-0.0576 -1.594737,-0.12144 -0.366622,-0.0561 -1.122249,-0.087 -1.498616,-0.39946 -0.098,-0.0295 -0.213227,-0.13057 -0.313676,-0.15658 -0.113708,-0.0295 -0.229196,-0.0577 -0.346232,-0.0677 -0.446992,-0.0382 -0.916262,0.0276 -1.361675,0.0641 -0.576781,0.0225 -1.250471,0.14857 -1.778185,-0.18862 -0.162904,-0.10409 -0.32893,-0.25689 -0.494544,-0.42891 -5.29e-4,0.003 -0.0011,0.005 -0.0016,0.008 -0.06978,0.37885 -0.255627,0.59016 -0.453202,0.65733 0.0069,0.0607 0.01683,0.12976 0.03772,0.22117 0.0021,0.01 0.02408,-0.004 0.02997,0.004 0.037,0.0505 0.06206,0.1088 0.09302,0.1633 0.02077,0.0328 0.04124,0.0655 0.06201,0.0982 0.15221,0.23983 0.196493,0.4559 0.170016,0.62684 h 53.340932 z m -2.71043,11.68559 h 5.3e-4 5.3e-4 c 0.26584,2.7e-4 0.53123,0.26378 0.53123,0.79013 v 0.1819 c 0.0348,-0.009 0.07,-0.0145 0.10542,-0.0145 0.26602,0 0.53227,0.26344 0.53227,0.79013 v 1.32344 c -5.3e-4,0.0199 2.6e-4,0.04 0,0.0599 -0.006,0.37766 0.0161,0.75654 0,1.13378 v 0.0966 0.88004 0.96377 0.77721 0.74311 0.87592 c -0.032,-0.07 0.003,0.13112 0.009,0.21394 0.10621,0.12874 0.0753,-0.0101 0.10904,0.34623 10e-4,0.0504 0.002,0.10102 0.002,0.15141 0.007,0.66059 -0.42244,0.90645 -0.73794,0.73846 -0.009,0.009 -0.0182,0.0173 -0.0274,0.0258 -0.0925,0.136 -0.19868,0.24649 -0.31316,0.33228 -0.002,0.002 -0.003,0.005 -0.005,0.007 -0.001,-2.6e-4 -0.002,-1.2e-4 -0.004,-5.3e-4 -0.52071,0.38309 -1.21388,0.25096 -1.61541,-0.39688 -0.0226,-0.0137 -0.0428,-0.029 -0.0646,-0.0429 -0.0391,0.0933 -0.0785,0.18649 -0.11679,0.28009 -0.58069,0.36996 -0.94245,0.54055 -1.33326,0.59428 -0.12437,0.0586 -0.2598,0.10496 -0.40824,0.13746 -0.2506,0.42105 -1.01949,0.73075 -1.43092,0.91467 -0.23149,0.0969 -0.46841,0.16308 -0.70848,0.20619 -0.0311,0.23352 -0.14846,0.38079 -0.3235,0.46199 0.0159,-0.0194 0.0734,-0.10703 0.12506,-0.20568 -0.0871,0.13326 -0.12447,0.19645 -0.12868,0.20774 -0.28739,0.1312 -0.72454,0.0897 -1.17408,-0.0217 0.018,0.0977 0.0308,0.17658 0.031,0.20464 0.002,0.17195 -0.2722,0.11118 -0.49041,0.0904 0.16205,0.26185 0.11396,0.46642 -0.36328,0.54519 -0.002,0.003 -0.003,0.006 -0.005,0.009 -0.17708,0.32726 -0.50326,0.5577 -0.81184,0.76636 -0.0578,0.16594 -0.10595,0.21146 -0.14676,0.1788 -0.0809,0.23236 -0.20266,0.47171 -0.37879,0.72296 -0.7972,1.13718 -0.97824,-0.0344 -1.1684,-1.0294 -0.15211,0.001 -0.30418,-10e-4 -0.45631,0.002 -0.01,0.0322 -0.02,0.0662 -0.032,0.10335 0.18919,0.58308 0.0798,0.53538 -0.35449,0.53227 -0.004,-3e-5 -0.009,2e-5 -0.0135,0 -0.14696,-3e-5 -0.3328,-5.3e-4 -0.4563,-5.3e-4 h -1.625223 c -0.597799,0 -0.855858,-0.34282 -0.775147,-0.63924 -0.11131,-0.009 -0.222483,-0.0182 -0.333314,-0.0315 -0.06157,-0.007 -0.122619,-0.019 -0.183968,-0.0279 -0.0048,0.002 -0.0075,0.002 -0.01241,0.004 l -5.29e-4,-5.3e-4 c -0.03842,0.0119 -0.07487,0.0199 -0.111619,0.0284 -0.151927,0.055 -0.301123,0.0989 -0.551389,0.13488 -0.114097,0.0164 -0.230445,0 -0.345716,0 h -0.771527 c -0.343988,0 -0.57521,-0.11382 -0.694532,-0.26665 -0.137001,-0.009 -0.254955,-0.0392 -0.3483,-0.0884 -0.0389,0.007 -0.07815,0.012 -0.116787,0.0202 -2.00361,0.42539 0.527802,-0.0635 -1.469678,0.38034 -0.565359,0.12559 -1.14789,0.18153 -1.72651,0.16743 H 90.42955 v -5.3e-4 c -1.053375,0 -1.053375,-1.06401 0,-1.06401 h 1.708941 c 0.51811,0.0154 1.039575,-0.0361 1.545125,-0.15193 1.642311,-0.37606 -0.478936,0.0341 1.393714,-0.36432 0.20108,-0.0428 0.405471,-0.0679 0.608232,-0.1018 0.08113,-0.0124 0.160485,-0.0176 0.238228,-0.017 0.03498,2.5e-4 0.06937,0.004 0.10387,0.006 0.04656,-0.005 0.09511,-0.008 0.146759,-0.008 0.130942,0 0.204658,-7.9e-4 0.251148,-10e-4 0.110736,-5.3e-4 0.07926,0.004 0.287322,0.0336 0.123698,-0.0188 0.248914,-0.0279 0.371554,-0.0527 0.105648,-0.0214 0.196903,-0.0882 0.298172,-0.12506 0.123423,-0.045 0.249124,-0.0837 0.373621,-0.12558 0.58802,-0.0719 1.175943,-0.1629 1.768885,-0.18551 0.32671,-0.0124 0.654689,0.0198 0.980819,0.0341 0.22133,-0.0372 0.26258,-0.0464 0.35502,-0.062 -0.0768,-0.37976 -0.0542,-0.71558 0.046,-0.98392 -0.32928,-0.7126 0.17224,-1.60995 1.48725,-1.72289 0.003,-0.12548 0.0178,-0.24464 0.0951,-0.3359 0.27249,-0.32172 0.6415,-0.54322 0.99374,-0.78135 -0.0624,0.14546 -0.0592,0.36029 -0.0263,0.60565 0.0233,-0.0133 0.0456,-0.0254 0.0677,-0.0372 0.0571,-0.0905 0.11861,-0.17841 0.1819,-0.2651 0.0345,-0.18418 0.0599,-0.3566 0.062,-0.50333 -5.3e-4,7e-5 -0.002,2e-5 -0.003,0 7.9e-4,-5.3e-4 0.001,-10e-4 0.003,-0.002 5.3e-4,-0.0328 0.0654,0 0.0982,0 h 0.10697 c 0.0318,-0.14192 0.0444,-0.29187 0.0899,-0.42943 0.0747,-0.22582 0.17019,-0.44397 0.25528,-0.66611 0.5637,-1.09903 0.38081,-1.27574 1.38234,-0.68058 1.39877,0.0469 1.63135,0.32134 1.45418,0.83975 0.002,10e-4 -0.009,0.51733 -0.0191,1.02319 0.30334,-0.0922 0.60634,-0.0933 1.01699,-0.10956 0.21083,-7.9e-4 0.41802,0.009 0.62426,0.0284 0.0502,-0.10196 0.11609,-0.20667 0.14159,-0.30645 0.0197,-0.0771 0.0261,-0.10022 0.0429,-0.16484 -0.0534,-0.88271 -0.14497,-2.85432 0.77515,-2.99413 0.0679,-0.0103 0.13588,-0.0151 0.2036,-0.015 h 5.3e-4 v 5.3e-4 c 0.39527,5.3e-4 0.78515,0.16989 1.14825,0.39222 -8e-5,-0.4501 5.3e-4,-0.90018 -0.002,-1.3503 -7.9e-4,-0.3077 -0.01,-0.52006 0.003,-0.66611 -2.6e-4,-0.0212 -7.9e-4,-0.0609 -0.001,-0.0796 0,-0.066 -0.0671,-0.20192 -0.003,-0.19792 0.052,0.003 0.10091,0.005 0.15089,0.007 0.15127,-0.0636 0.4825,-0.0321 1.05885,-0.0207 v -0.46612 -1.49655 c 0,-0.52601 0.26557,-0.78945 0.53124,-0.79013 z m -8.96121,8.14524 c -0.0104,-7.9e-4 -0.02,-0.002 -0.031,-0.003 -0.0234,-5.3e-4 -0.0452,5.3e-4 -0.0661,0.003 0.003,0.10663 0.0195,0.22578 0.0439,0.35295 0.0261,-0.039 0.0515,-0.0782 0.0749,-0.11886 0.0388,-0.0674 0.063,-0.14078 0.0811,-0.21652 -0.0305,-0.01 -0.0653,-0.0151 -0.10284,-0.0181 z m -50.682176,-2.30994 c -1.85e-4,-2.6e-4 -0.0042,0.009 -0.0047,0.01 2.64e-4,10e-4 0.0011,0.003 0.0016,0.004 0.0016,-0.006 0.0035,-0.013 0.0031,-0.0139 z m -1.092438,0.14676 c 0.0091,0.0222 0.01871,0.0444 0.03049,0.0656 0.0013,0.003 0.0041,0.005 0.0072,0.006 -0.01259,-0.0244 -0.02172,-0.0409 -0.03772,-0.0718 z m 57.093154,0.0434 c 0.0191,0.0106 0.0378,0.0216 0.0568,0.0326 8e-4,-0.0104 10e-4,-0.012 0.002,-0.0227 -0.0197,-0.004 -0.0392,-0.007 -0.0589,-0.01 z m -53.682511,0.0791 c -7.93e-4,-4e-5 -2.17e-4,0.003 0.0031,0.0124 0.0034,0.01 0.0063,0.0193 0.0093,0.0289 0.0028,5.3e-4 0.0054,10e-4 0.0083,0.002 -0.01019,-0.0242 -0.01849,-0.0417 -0.02066,-0.0434 z m -4.0597,0.70383 c 0.003,0.007 0.0055,0.0127 0.0083,0.0176 0.164759,0.10174 0.09196,0.059 -0.0083,-0.0176 z m 1.092957,0.8046 c -0.224394,0.0335 -0.183981,0.0323 -0.0098,0.0693 0.0039,-0.0231 0.0067,-0.0462 0.0098,-0.0693 z m 51.226844,0.53485 c -0.0898,0.0688 -0.18306,0.13402 -0.2775,0.19793 0.0488,-0.11184 0.13632,-0.18314 0.2775,-0.19793 z m 10.00301,0.25735 c -0.004,2.7e-4 -0.005,0.003 -0.001,0.0104 0.0875,0.16872 0.15005,0.27139 0.19637,0.33796 -0.0298,-0.0888 -0.0466,-0.18312 -0.0915,-0.2651 -0.0165,-0.0303 -0.088,-0.0843 -0.10387,-0.0832 z m -57.733428,0.40876 c 0.01717,0.0266 0.03846,0.045 0.06408,0.0522 -0.03394,-0.0319 -0.05503,-0.0535 -0.06408,-0.0522 z m 6.934462,2.3704 c -0.01035,0.002 -0.0159,0.0131 -0.01291,0.0372 0.01307,0.10627 0.07972,0.19913 0.119372,0.29869 2.65e-4,2.1e-4 0.01609,0.0175 0.0181,0.0196 0.12116,-0.10526 -0.07054,-0.36382 -0.12454,-0.35553 z m 1.113626,0.16071 v 5.3e-4 c -0.057,-0.0243 0.07779,0.0327 0.159165,0.0651 5.29e-4,-0.003 0.0011,-0.007 0.0016,-0.0103 -0.05362,-0.0184 -0.108583,-0.033 -0.160713,-0.0553 z m 42.17365,0.81753 c 0.16793,0.47666 0.18991,0.52224 0.21187,0.009 -0.0705,-0.002 -0.14129,-0.005 -0.21187,-0.009 z m -47.295301,0.13642 c -0.0551,0.0102 -0.113287,0.0159 -0.172598,0.0202 0.108802,0.0815 0.250809,0.15667 0.669726,0.46199 0.143177,0.10435 0.284076,0.21131 0.424781,0.31884 8.2e-5,-0.005 5.29e-4,-0.01 5.29e-4,-0.015 -0.150376,-0.11784 -0.289816,-0.23014 -0.406694,-0.32711 -0.177135,-0.14698 -0.345482,-0.30389 -0.515731,-0.45889 z m 11.161594,0.17673 c 0.14977,0.15197 0.319341,0.29044 0.488341,0.42892 0.214019,0.0378 0.40354,0.0937 0.568957,0.1633 -0.133088,-0.0956 -0.282937,-0.19596 -0.44855,-0.30128 -0.21539,-0.0908 -0.446839,-0.17406 -0.608748,-0.29094 z m 1.057298,0.59222 c 0.02487,0.0179 0.04806,0.0352 0.07183,0.0527 -0.0059,-0.0101 -0.01233,-0.0204 -0.01913,-0.03 -0.0172,-0.008 -0.03496,-0.0153 -0.05271,-0.0227 z m -1.82831,-0.46923 c -0.136575,0.0694 -0.264324,0.15803 -0.360185,0.27027 0.06683,-0.004 0.133696,-0.008 0.200504,-0.0109 0.0493,-0.0949 0.102674,-0.1828 0.159681,-0.25941 z" />
    </clipPath>
    <clipPath
       clipPathUnits="userSpaceOnUse"
       id="clipPath3396">
      <path
         id="path3398"
         style="fill:none;stroke:#000000;stroke-width:1.165;stroke-linecap:round;stroke-linejoin:round;stroke-miterlimit:4;stroke-dasharray:none;stroke-opacity:0.955017;paint-order:stroke markers fill"
         d="m 135.68319,226.17069 -63.540824,5.3e-4 V 393.73568 H 142.14378 V 226.1712 h -1.58905 c -0.0268,0.29542 -0.0697,0.58919 -0.10026,0.88419 -0.0104,0.10021 -0.0188,0.20068 -0.0248,0.30127 -5.3e-4,0.01 5.3e-4,0.0249 0.002,0.0408 0.012,0.0355 0.0225,0.0716 0.0289,0.10852 0.01,0.0533 0.001,0.51418 0.001,0.55759 -0.003,0.30301 -0.005,0.60597 -0.005,0.90898 0.004,0.36 0.002,0.72003 0.002,1.08004 -1.9e-4,0.28711 0,0.57434 0,0.86145 -2e-5,0.12655 1e-5,0.25328 0,0.37982 -1e-5,0.20641 -0.0418,0.37109 -0.10748,0.49661 v 0.80615 0.19224 c 0,0.31067 0.007,0.34669 -0.16744,0.60565 -0.002,0.006 -0.003,0.0117 -0.005,0.0176 -0.006,0.006 -0.0132,0.0125 -0.0196,0.0186 -0.0232,0.034 -0.0478,0.0689 -0.077,0.11111 -0.0217,0.0314 -0.11958,0.0916 -0.0966,0.061 0.0487,-0.0655 0.11393,-0.11616 0.17363,-0.17209 0.008,-0.0122 0.0166,-0.0248 0.0243,-0.0362 0.0116,-0.0446 0.0231,-0.0892 0.0346,-0.13384 0.26495,-1.01951 -1.22763,1.04059 -1.06401,0 0.0131,-0.0834 0.0262,-0.16672 0.0393,-0.25011 0.0233,-0.0304 0.0575,-0.0788 0.0935,-0.13023 v -0.2837 -1.67535 -0.88109 -0.89038 -1.61851 -0.89038 -0.46974 h -2.56935 c 0.0102,0.0649 0.016,0.13454 0.016,0.21032 v 0.1819 c 0.0347,-0.009 0.07,-0.0145 0.10542,-0.0145 0.26598,0 0.53226,0.26344 0.53226,0.79013 v 1.32344 c -5.3e-4,0.0199 2.7e-4,0.04 0,0.0599 -0.006,0.37766 0.0161,0.75654 0,1.13378 v 0.0966 0.88004 0.96377 0.77721 0.74311 0.87592 c -0.032,-0.07 0.003,0.13112 0.009,0.21394 0.10621,0.12874 0.0753,-0.0101 0.10904,0.34623 0.001,0.0504 0.002,0.10101 0.002,0.15141 0.007,0.66059 -0.42243,0.90645 -0.73793,0.73846 -0.009,0.009 -0.0185,0.0175 -0.0279,0.0264 -0.0925,0.136 -0.19868,0.24648 -0.31316,0.33228 -0.002,0.002 -0.003,0.005 -0.005,0.007 -0.001,-2.6e-4 -0.002,-1.2e-4 -0.004,-5.3e-4 -0.52072,0.38309 -1.21388,0.25047 -1.61541,-0.39739 -0.0231,-0.014 -0.0443,-0.0287 -0.0667,-0.0429 -0.0391,0.0934 -0.0769,0.18743 -0.11524,0.28112 -0.5807,0.36997 -0.94244,0.54058 -1.33325,0.59428 -0.12437,0.0586 -0.25984,0.10495 -0.40825,0.13746 -0.25063,0.42105 -1.01953,0.73074 -1.43092,0.91467 -0.23232,0.0972 -0.47011,0.1636 -0.71106,0.2067 -0.0317,0.23176 -0.14664,0.38061 -0.32091,0.46147 0.0159,-0.0194 0.0735,-0.10704 0.12505,-0.20567 -0.0871,0.13323 -0.12448,0.19646 -0.12867,0.20774 -0.28738,0.13121 -0.72456,0.0898 -1.17409,-0.0217 0.018,0.0977 0.0313,0.17657 0.0315,0.20464 0.002,0.17241 -0.27088,0.11246 -0.48937,0.0925 0.16053,0.26085 0.11158,0.46456 -0.36432,0.54312 -0.002,0.003 -0.003,0.006 -0.005,0.009 -0.17696,0.32704 -0.5029,0.55731 -0.81132,0.76584 -0.0601,0.17242 -0.11011,0.21582 -0.15193,0.17518 -0.0809,0.23397 -0.19667,0.47395 -0.37414,0.72709 -0.79729,1.1373 -0.97772,-0.0353 -1.16788,-1.03043 -0.15194,0.001 -0.30383,-0.003 -0.45579,-0.003 -0.01,0.0334 -0.021,0.0687 -0.0336,0.10749 0.18918,0.58307 0.0798,0.53535 -0.3545,0.53226 -0.004,-4e-5 -0.009,1e-5 -0.0129,0 -0.14696,-4e-5 -0.3328,-5.3e-4 -0.4563,-5.3e-4 h -1.62523 c -0.59949,0 -0.85749,-0.34483 -0.77463,-0.64182 -0.11152,-0.009 -0.2233,-0.0162 -0.33434,-0.0294 -0.0601,-0.007 -0.11948,-0.0192 -0.17932,-0.0279 -0.006,0.002 -0.01,0.003 -0.016,0.005 l -5.3e-4,-5.3e-4 c -0.0266,0.008 -0.0486,0.008 -0.0744,0.0145 -0.16536,0.0615 -0.31854,0.10999 -0.5886,0.14883 -0.11409,0.0164 -0.23044,0 -0.34571,0 h -0.77153 c -0.34619,0 -0.57796,-0.11544 -0.6966,-0.26975 -0.13128,-0.0102 -0.24414,-0.0402 -0.3359,-0.0879 -0.0424,0.007 -0.0851,0.0133 -0.12712,0.0222 -2.00361,0.42539 0.5278,-0.0635 -1.46968,0.38034 -0.56536,0.12559 -1.14789,0.18153 -1.72651,0.16743 h -1.70894 v -5.3e-4 c -1.05338,0 -1.05338,-1.06402 0,-1.06402 h 1.70894 c 0.51811,0.0154 1.03958,-0.0362 1.54513,-0.15193 1.64232,-0.37606 -0.47894,0.0341 1.39371,-0.36432 0.20108,-0.0428 0.40547,-0.0679 0.60823,-0.1018 0.0811,-0.0124 0.16049,-0.0177 0.23823,-0.0171 0.0437,2.7e-4 0.0867,0.004 0.12971,0.008 0.04,-0.003 0.0757,-0.0114 0.11937,-0.0114 0.13094,0 0.20466,-1.7e-4 0.25115,-5.3e-4 0.11095,-5.3e-4 0.0794,0.004 0.28887,0.0336 0.12319,-0.0187 0.24787,-0.0285 0.37,-0.0532 0.10566,-0.0214 0.19692,-0.0882 0.29818,-0.12505 0.12342,-0.045 0.24912,-0.0837 0.37362,-0.12558 0.58802,-0.0719 1.17594,-0.16292 1.76888,-0.18551 0.32671,-0.0124 0.65468,0.0193 0.98082,0.0336 0.22164,-0.0372 0.26307,-0.0454 0.35553,-0.061 -0.0766,-0.37921 -0.054,-0.71533 0.046,-0.98341 -0.32956,-0.71279 0.17287,-1.61034 1.48879,-1.72289 0.003,-0.12532 0.0155,-0.24563 0.0925,-0.33693 0.27257,-0.32181 0.64192,-0.54262 0.99425,-0.78083 0.0489,-0.11345 0.13737,-0.18566 0.2806,-0.19999 -0.0906,0.0694 -0.18428,0.13556 -0.27957,0.19999 -0.0624,0.14459 -0.0571,0.36055 -0.0248,0.60461 0.0249,-0.0142 0.0484,-0.0273 0.0718,-0.0398 0.0562,-0.0885 0.11317,-0.17651 0.17518,-0.26148 0.0345,-0.18418 0.0599,-0.3566 0.062,-0.50333 -8e-4,1e-4 -0.002,-3e-5 -0.004,0 8e-4,-7.9e-4 0.002,-0.002 0.004,-0.003 5.3e-4,-0.0328 0.0654,0 0.0982,0 h 0.10697 c 0.0318,-0.14191 0.0444,-0.29187 0.0899,-0.42943 0.0747,-0.22583 0.17017,-0.44396 0.25528,-0.66611 0.56372,-1.09901 0.38081,-1.27575 1.38234,-0.68058 1.39877,0.0469 1.63132,0.32135 1.45418,0.83974 0.002,0.001 -0.009,0.51784 -0.0191,1.02371 0.30332,-0.0922 0.60634,-0.0938 1.01699,-0.11007 0.21082,-7.9e-4 0.41802,0.008 0.62426,0.0279 0.0502,-0.10195 0.11608,-0.20616 0.14159,-0.30593 0.0197,-0.0771 0.0261,-0.10075 0.0429,-0.16536 -0.0534,-0.88269 -0.14499,-2.85383 0.77515,-2.99362 0.0679,-0.0103 0.13588,-0.0151 0.2036,-0.015 h 5.3e-4 v 5.3e-4 c 0.3963,5.3e-4 0.78434,0.17574 1.14825,0.39894 -6e-5,-0.45235 10e-4,-0.90467 -0.002,-1.35702 -7.9e-4,-0.3077 -0.0133,-0.52006 0.003,-0.66611 -2.5e-4,-0.0212 -8e-4,-0.0609 -10e-4,-0.0796 0,-0.066 -0.0662,-0.20193 -0.003,-0.19792 0.052,0.003 0.10093,0.005 0.1509,0.007 0.15127,-0.0636 0.4828,-0.0331 1.05885,-0.0217 v -0.46612 -1.49655 c 0,-0.0758 0.006,-0.14544 0.0155,-0.21033 z m 4.68498,1.05316 c 8e-4,0.002 0.002,0.004 0.003,0.006 -5.3e-4,-0.002 -0.001,-0.004 -0.002,-0.006 z m 0.003,0.006 c 0.0156,0.047 0.0343,0.0929 0.0512,0.13952 -2.3e-4,-0.013 -0.001,-0.0259 -0.005,-0.0382 -0.01,-0.0358 -0.0301,-0.0678 -0.046,-0.10128 z m -65.662657,0.60151 v 5.3e-4 c 0.260548,7.9e-4 0.553108,0.26257 0.627869,0.78393 0.02916,0.20335 0.0965,0.40806 0.196371,0.58859 0.007,0.0128 -0.0034,-0.0289 -0.0052,-0.0434 0.0447,0.0886 0.09882,0.17272 0.133842,0.26562 0.03411,0.0905 0.04832,0.18752 0.07235,0.28112 0.0093,0.0704 0.04827,0.44905 0.09508,0.55191 0.01508,0.0332 0.05651,0.0465 0.08165,0.0729 0.04481,0.047 0.09185,0.0926 0.133842,0.14211 0.04672,-0.89449 0.59567,-1.39775 1.193726,-1.3901 0.595522,0.008 1.232453,0.51616 1.447972,1.63298 0.01175,0.0608 0.02339,0.12161 0.03514,0.18242 -0.24724,0.42347 0.112583,-0.23022 0.33383,1.19372 0.0094,0.0602 1.67e-4,0.11951 -0.0181,0.17829 0.04562,0.11657 0.09132,0.23324 0.13694,0.34984 0.234029,0.59841 0.265539,1.1211 0.166399,1.53221 v 5.3e-4 5.3e-4 c 0.118282,0.0976 0.214511,0.21133 0.313677,0.35967 0.116882,0.008 0.23998,0.02 0.404625,0.0424 0.66971,0.0909 1.138833,0.33499 1.42472,0.63924 0.156215,0.0615 0.320085,0.18724 0.466638,0.38654 0.123417,-0.21425 0.246756,-0.42858 0.391708,-0.61753 0.137877,0.0417 0.280111,0.0734 0.420129,0.10955 0.307816,-0.52742 0.780349,-0.77975 1.30793,-0.77204 v -0.001 c 0.440077,0.006 0.918208,0.19321 1.37046,0.55035 0.289375,0.22852 0.499475,0.5427 0.749308,0.81391 0.03264,0.22862 -0.06079,0.43012 -0.211357,0.61908 0.0082,0.005 0.01609,0.008 0.02429,0.0134 0.710903,0.44857 0.726157,0.4507 1.130681,0.65784 0.02402,-0.0349 0.04819,-0.0699 0.07493,-0.10335 0.203282,-0.25404 0.621305,7.9e-4 0.961697,0.12557 0.191404,-0.0693 0.378187,-0.1713 0.535368,-0.21704 v 5.3e-4 c 1.676135,-0.48805 2.679367,0.21554 2.453598,1.08159 0.07679,0.0317 0.148476,0.0766 0.222207,0.11627 0.127643,-0.0151 0.262692,-0.0238 0.406178,-0.0238 h 0.787548 0.418063 c 0.06236,-0.0345 0.126979,-0.0542 0.19327,-0.0558 0.06795,-0.002 0.137422,0.0156 0.208257,0.0553 0.165565,-5.2e-4 0.149822,0.002 0.04237,0.0243 0.247321,0.1402 0.468582,0.27282 0.666109,0.39843 0.208513,0.088 0.401746,0.183 0.501261,0.32401 0.385609,0.17467 0.631484,0.42738 0.743625,0.70383 0.247364,0.34127 0.197612,0.58506 -0.01654,0.75861 -0.166249,0.37053 -0.56773,0.69464 -1.191141,0.83923 l -5.3e-4,5.3e-4 c -0.06879,0.0679 -0.132265,0.12217 -0.184999,0.15864 -0.07711,0.0533 -0.159266,0.099 -0.24443,0.13953 -0.675857,0.62223 -0.532185,0.67496 -1.511019,0.66043 -0.139245,-0.002 -0.279004,-0.0192 -0.413928,-0.0538 -0.424802,-0.10856 -0.866637,-0.37069 -1.314132,-0.37155 -0.886566,0.12727 -1.636004,-0.39716 -2.422076,-0.71004 -0.03319,-0.0132 0.0091,0.003 -0.02273,-0.009 -0.03978,0.004 -0.08097,0.008 -0.120407,0.0114 -0.576784,0.0225 -1.250474,0.14857 -1.778188,-0.18862 -0.163068,-0.10418 -0.329274,-0.25718 -0.495059,-0.42943 -5.29e-4,0.003 -0.0011,0.005 -0.0016,0.008 -0.06976,0.37869 -0.255749,0.59008 -0.453203,0.65732 0.0069,0.0606 0.01688,0.12952 0.03772,0.22066 0.0021,0.01 0.02408,-0.004 0.02997,0.004 0.037,0.0506 0.06206,0.1088 0.09302,0.1633 0.02077,0.0328 0.04124,0.0655 0.06201,0.0982 0.564446,0.88938 -0.346724,1.45959 -0.901756,0.5643 -0.03022,-0.0487 -0.06073,-0.0975 -0.09095,-0.14624 -0.125053,-0.22898 -0.178875,-0.29819 -0.249598,-0.56534 -0.02281,-0.0862 0.02691,-0.23413 -0.02016,-0.31213 -0.245764,-0.40771 -0.752885,-0.73798 -1.089337,-1.01079 -0.279953,-0.21222 -0.558186,-0.42656 -0.839743,-0.63665 -0.293669,-0.21912 -0.612574,-0.40691 -0.885735,-0.65112 -0.217281,-0.19426 -0.402656,-0.42341 -0.577225,-0.65681 -0.07922,-0.10591 -0.147225,-0.20672 -0.208257,-0.30644 -0.260492,-0.0816 -0.521451,-0.1693 -0.775147,-0.25839 -0.408252,0.22983 -0.83567,0.43475 -1.231447,0.68058 -0.630603,-0.54069 -1.122051,-1.23034 -1.412836,-2.00194 -0.213479,0.026 -0.426939,0.0515 -0.641302,0.0475 -0.03104,-5.3e-4 -0.0376,-0.0421 -0.04651,-0.0775 -0.06734,5e-5 -0.0338,7.9e-4 -0.12764,-0.003 -0.182274,-0.17512 -0.384646,-0.33108 -0.546735,-0.52503 -0.02808,-0.0336 -0.0029,-0.0875 -0.0026,-0.13126 0.0021,-0.30754 0.01072,-0.61846 0.04754,-0.92346 0.03836,-0.0449 0.0068,-0.003 -0.04031,-0.14314 -0.02352,-0.0701 -0.04953,-0.13973 -0.07131,-0.21032 -0.231793,-0.12715 -0.320071,-0.35857 -0.444934,-0.58085 -0.05412,-0.10626 -0.108132,-0.21259 -0.162263,-0.31884 -0.01312,-0.0487 -0.01839,-0.0996 -0.03876,-0.14573 -0.05758,-0.13019 -0.288507,-0.49785 -0.290939,-0.68213 -0.03242,-0.0272 -0.06308,-0.0557 -0.08578,-0.0816 -0.221546,-0.2545 -0.281742,-0.58354 -0.33383,-0.90382 -0.02199,-0.13527 -0.04031,-0.27112 -0.06046,-0.40669 v -0.001 c -0.07501,-0.50469 0.09967,-0.75666 0.334865,-0.76791 0.03806,-0.002 0.07791,0.003 0.118337,0.0139 -0.01318,-0.0783 -0.02212,-0.1593 -0.02582,-0.24391 -0.01143,-0.0527 -0.04471,-0.10513 -0.03462,-0.15813 0.0035,-0.0187 0.03992,0.0324 0.05219,0.0501 -0.04979,-0.0785 -0.116342,-0.14624 -0.162779,-0.22686 -0.166053,-0.28822 -0.249314,-0.6823 -0.282154,-1.00769 -0.05288,-0.52403 0.175601,-0.7846 0.436149,-0.78393 z m 19.895425,10.85101 c -0.0172,-0.008 -0.03496,-0.0155 -0.05271,-0.0227 0.02487,0.0179 0.04806,0.0352 0.07183,0.0527 -0.0059,-0.0101 -0.01233,-0.0203 -0.01913,-0.03 z m -0.05271,-0.0227 c -0.133088,-0.0956 -0.282938,-0.19597 -0.448554,-0.30128 -0.215389,-0.0908 -0.446839,-0.17404 -0.608748,-0.29093 0.14977,0.15197 0.319342,0.29043 0.488342,0.42891 0.214021,0.0379 0.40354,0.0937 0.56896,0.1633 z m -17.993217,-7.23263 c -2.07e-4,-5.3e-4 -0.0039,0.01 -0.0047,0.0103 5.29e-4,0.002 5.29e-4,0.003 0.0011,0.005 0.0019,-0.007 0.004,-0.0139 0.0036,-0.015 z m -1.088824,0.15502 c 0.0082,0.0191 0.01617,0.0384 0.02635,0.0568 0.0013,0.002 0.0038,0.005 0.0067,0.006 -0.01103,-0.0213 -0.01942,-0.036 -0.03307,-0.0625 z m 57.089543,0.0346 v 5.3e-4 c 0.0191,0.0105 0.0378,0.0217 0.0568,0.0325 7.9e-4,-0.0104 0.001,-0.012 0.002,-0.0227 -0.0197,-0.004 -0.0392,-0.007 -0.0589,-0.0103 z m -53.682517,0.0796 c -7.94e-4,-3e-5 -1.96e-4,0.003 0.0031,0.0124 0.0034,0.01 0.0063,0.0193 0.0093,0.0289 0.0028,5.3e-4 0.0054,-0.001 0.0083,0.002 -0.01008,-0.0241 -0.01844,-0.0409 -0.02066,-0.0429 z m -4.060216,0.70332 c 0.003,0.007 0.0055,0.0128 0.0083,0.0176 0.164758,0.10174 0.09199,0.059 -0.0083,-0.0176 z m 1.09244,0.8046 c -0.224814,0.0336 -0.183033,0.0322 -0.0067,0.0698 0.0039,-0.0232 0.0036,-0.0467 0.0067,-0.0698 z m 51.300743,0.52865 v 5.3e-4 5.3e-4 5.2e-4 c -0.0234,-5.2e-4 -0.0451,1.2e-4 -0.0661,0.003 0.003,0.10664 0.0195,0.22578 0.0439,0.35295 0.0261,-0.039 0.0515,-0.0782 0.0749,-0.11886 0.0388,-0.0674 0.063,-0.14077 0.0811,-0.21652 -0.039,-0.0122 -0.0831,-0.0204 -0.13384,-0.0217 z m 9.92963,0.26355 c -0.004,2.5e-4 -0.005,0.003 -0.001,0.0103 0.0875,0.16873 0.15005,0.27139 0.19637,0.33796 -0.0298,-0.0887 -0.0466,-0.18312 -0.0915,-0.2651 -0.0165,-0.0303 -0.088,-0.0843 -0.10387,-0.0832 z m -57.732912,0.40876 c 0.01717,0.0266 0.03846,0.045 0.06408,0.0522 -0.03394,-0.0319 -0.05503,-0.0535 -0.06408,-0.0522 z m 8.048088,2.53059 v 5.3e-4 5.3e-4 c -0.057,-0.0243 0.07779,0.0327 0.159163,0.0651 5.29e-4,-0.003 0.0011,-0.007 0.0016,-0.0103 -0.05362,-0.0184 -0.108582,-0.0335 -0.160713,-0.0558 z m 42.172104,0.81752 c 0.16535,0.47 0.19158,0.51956 0.21342,0.01 -0.0711,-0.002 -0.14232,-0.005 -0.21342,-0.01 z m -47.293757,0.1385 c -0.05513,0.0102 -0.11584,0.013 -0.175183,0.017 0.109045,0.082 0.250393,0.15638 0.671795,0.46354 0.143373,0.10447 0.284401,0.21165 0.425297,0.31936 7.6e-5,-0.005 5.29e-4,-0.009 5.29e-4,-0.0139 -0.150376,-0.11785 -0.289817,-0.23014 -0.406694,-0.32711 -0.177133,-0.14697 -0.345477,-0.3039 -0.515731,-0.45889 z m 10.390582,0.29765 c -0.136576,0.0694 -0.264325,0.15802 -0.360186,0.27027 0.06683,-0.004 0.133697,-0.008 0.200504,-0.0109 0.0493,-0.0949 0.102674,-0.1828 0.159682,-0.25941 z m -6.653859,10.90063 c 0.62669,0.003 1.21488,0.37974 1.657782,1.30483 0.166182,0.3471 -0.06795,0.76699 -0.101804,1.15032 -0.301765,1.00212 -0.04034,0.19589 -0.457854,1.29139 -0.04807,0.12613 -0.06211,0.26742 -0.132807,0.38241 -0.072,0.11706 -0.151212,0.22931 -0.235127,0.33848 -0.04742,0.22553 -0.110326,0.46602 -0.173117,0.57515 -0.05644,0.0981 -0.134414,0.17894 -0.221692,0.25167 0.0098,0.52686 0.04201,1.05846 -0.240295,1.54306 -0.154619,0.26542 -0.421314,0.44722 -0.632005,0.67076 -0.663686,0.70424 -0.810619,0.2775 -0.81907,-0.416 -0.09998,0.0699 -0.205573,0.13475 -0.309542,0.20102 0.121629,-0.12199 0.06618,-0.23734 -0.0925,-0.34933 -0.182941,0.0476 -0.380461,0.099 -0.593247,0.17157 0.122854,-0.0922 0.239173,-0.1977 0.353984,-0.30696 -0.939967,-0.44879 -3.103142,-0.87091 -1.514118,-1.52291 0.121769,-0.05 0.243581,-0.0999 0.365353,-0.14986 0.0531,-0.0501 0.104071,-0.0959 0.145727,-0.12092 2.54e-4,-0.002 3.4e-5,-0.003 5.29e-4,-0.005 -0.02209,0.002 -0.04425,0.003 -0.06666,0.003 -0.114464,-8e-4 -0.0034,-0.17202 0.143661,-0.31885 -0.153212,-0.13622 -0.249769,-0.34448 -0.269751,-0.61701 -0.120412,0.20414 -0.266649,0.39364 -0.380857,0.60048 -0.01458,0.0264 -0.02777,0.057 -0.03979,0.0889 0.239086,0.0634 0.178086,0.0585 -0.0098,0.0269 -0.04257,0.12009 -0.07276,0.24773 -0.115236,0.2403 -0.343271,-0.0585 -0.658265,-0.22622 -0.987539,-0.33952 -0.703371,-0.24204 0.620485,0.018 1.102775,0.0992 0.0032,-0.009 0.0065,-0.018 0.0098,-0.0269 -0.01627,-0.004 -0.03104,-0.008 -0.05012,-0.0134 -0.330795,-0.0859 -0.665861,-0.15797 -0.992706,-0.25787 -0.01466,-0.004 0.02027,-0.0234 0.02687,-0.0372 0.05555,-0.11671 0.09739,-0.23994 0.159163,-0.35347 0.06467,-0.11885 0.148378,-0.22624 0.219109,-0.34158 0.396621,-0.64687 0.07796,-0.16597 0.376203,-0.6072 0.03089,-0.029 0.03815,-0.0927 0.0801,-0.0987 0.0059,-8e-4 0.0074,0.004 0.0062,0.0124 0.04619,-0.11471 0.08699,-0.23105 0.144176,-0.34055 -0.0058,-0.0283 -0.01024,-0.0569 -0.01241,-0.0858 -0.0223,-0.29931 0.102288,-0.58189 0.21549,-0.84956 0.160272,-0.37898 0.399532,-0.53908 0.608232,-0.53485 0.222044,0.004 0.409224,0.19508 0.432015,0.5054 0.170955,-0.34217 0.352816,-0.66691 0.511079,-0.81907 0.597694,-0.57466 1.263119,-0.94716 1.889808,-0.94465 z m 0.34675,2.34559 c -0.0021,1.8e-4 -0.0041,5.3e-4 -0.0062,0.002 -0.0027,0.0119 -0.0053,0.0235 -0.0067,0.0341 0.0013,0.0391 0.0026,0.0761 0.0047,0.1204 0.0016,0.0449 0.0026,0.0899 0.0041,0.13488 0.05003,-0.0258 0.09097,-0.071 0.119374,-0.14108 0.02148,-0.053 -0.06132,-0.15421 -0.115239,-0.14986 z m -2.951758,2.51406 v 5.3e-4 c -0.006,0.017 -0.01344,0.0402 -0.01913,0.0553 0.02318,-0.009 0.04623,-0.0196 0.06925,-0.03 v -0.0165 c -0.01667,-0.003 -0.03392,-0.005 -0.05013,-0.009 z m 0.05013,0.0258 v 0.0129 c 0,0.0408 -0.01855,0.10054 -0.02997,0.15297 0.02824,0.0179 0.05475,0.0353 0.08733,0.0553 0.02307,-3e-5 0.04557,0 0.06821,0 -0.01773,-0.0558 -0.01416,-0.13014 0.0021,-0.21394 -0.03613,-0.002 -0.06746,-0.0135 -0.101801,-0.0191 -0.0087,0.004 -0.01733,0.008 -0.02585,0.0119 z m -0.06925,0.03 c -0.03673,0.015 -0.07384,0.0287 -0.111104,0.0408 0.02275,0.0145 0.04714,0.0305 0.07441,0.0481 0.01138,-0.0253 0.02365,-0.0543 0.03669,-0.0889 z m -0.03669,0.0889 c -0.02265,0.0504 -0.04252,0.0842 -0.05943,0.1018 0.04145,2.6e-4 0.08408,5.3e-4 0.127124,5.3e-4 7.94e-4,-0.0161 0.0039,-0.035 0.0083,-0.0548 -0.02625,-0.0166 -0.05316,-0.0328 -0.07596,-0.0475 z m -0.148312,-0.0258 c -0.0016,5.3e-4 -0.0029,5.3e-4 -0.0047,0.001 -0.02943,0.0281 -0.05872,0.0566 -0.08682,0.0853 5.29e-4,0.0126 -5.3e-4,0.0249 -0.0026,0.0367 0.04079,0.002 0.08402,0.003 0.130225,0.004 -0.01524,-0.0227 -0.02703,-0.0674 -0.03617,-0.1266 z m 0.887801,0.28009 c -0.0085,0.0113 -0.01611,0.0218 -0.02479,0.0336 -0.02082,0.0284 -0.04442,0.0551 -0.06666,0.0827 0.169045,0.0845 0.36702,0.17529 0.60203,0.27027 -0.112524,-0.12634 -0.22357,-0.25395 -0.334864,-0.38137 -0.05842,-0.003 -0.117634,-0.001 -0.175699,-0.005 z m -1.11311,0.0176 c -0.0029,0.002 -0.0059,0.004 -0.0088,0.007 -0.0032,0.0265 -0.0042,0.0519 -0.0036,0.0651 -0.02665,-0.002 -0.05313,-0.004 -0.07958,-0.006 -0.08818,0.0617 -0.177964,0.12504 -0.219625,0.20877 -0.07548,0.15167 -0.200613,0.60009 -0.06046,0.50488 0.280318,-0.1905 0.525002,-0.42482 0.759127,-0.67179 -0.130636,-0.008 -0.264618,-0.0243 -0.396357,-0.0357 0.0036,-0.0267 0.0062,-0.0475 0.0093,-0.0718 z m 0.377238,2.12441 c 0.243028,0.0119 0.488672,0.0437 0.730705,0.0538 0.02813,-0.0126 0.05435,-0.0259 0.07855,-0.0382 -0.01717,0.0126 -0.03396,0.0256 -0.05064,0.0388 0.02455,7.9e-4 0.04892,0.002 0.07338,0.002 0.03842,5.3e-4 -0.141113,0.053 -0.11162,0.0284 0.01246,-0.0104 0.02545,-0.0204 0.03824,-0.0305 -0.0093,-2.6e-4 -0.01857,6e-5 -0.02791,-5.3e-4 -0.07425,0.0333 -0.161144,0.0668 -0.264583,0.10128 -0.109443,0.0365 -0.218702,0.0731 -0.328144,0.10955 -0.283973,-0.0664 -1.131518,-0.11582 -0.852147,-0.19946 0.230738,-0.0691 0.471141,-0.077 0.714169,-0.0651 z" />
    </clipPath>
  </defs>
  <g
     inkscape:label="Layer 1"
     inkscape:groupmode="layer"
     id="layer1">
    <g
       id="g3766"
       transform="matrix(1,0,0,1.0164358,0,-2.2702393)" />
    <path
       id="rect5041"
       style="fill:none;stroke:#000000;stroke-width:0.436032;stroke-linecap:round;stroke-linejoin:round;stroke-opacity:0.955017;paint-order:stroke markers fill"
       d="m 46.247736,29.061948 c -0.325248,0.47787 -2.307009,-0.17685 -4.443411,-1.46799 L 20.821996,14.913178 c -2.136401,-1.29115 -3.594478,-2.71531 -3.26923,-3.19318 0.325247,-0.477879 2.30701,0.17684 4.443411,1.46799 l 20.98233,12.68077 c 2.136402,1.29114 3.594477,2.71531 3.269229,3.19319 z m 34.752632,32.78485 a 0.61466277,1.7484223 34.67626 0 0 1.51049,-1.12665 0.61466277,1.7484223 34.67626 0 0 0.45662,-1.76357 0.61466277,1.7484223 34.67626 0 0 -1.51049,1.12666 0.61466277,1.7484223 34.67626 0 0 -0.45662,1.76356 z m -0.0361,-2.97911 a 0.56837209,1.0931311 35.388056 0 0 1.10212,-0.60862 0.56837209,1.0931311 35.388056 0 0 0.12732,-1.19777 0.56837209,1.0931311 35.388056 0 0 -1.10213,0.60863 0.56837209,1.0931311 35.388056 0 0 -0.12731,1.19776 z m -0.39876,-1.87261 a 0.41488963,1.1364957 34.715747 0 0 0.995,-0.72436 0.41488963,1.1364957 34.715747 0 0 0.28362,-1.15429 0.41488963,1.1364957 34.715747 0 0 -0.99499,0.72437 0.41488963,1.1364957 34.715747 0 0 -0.28363,1.15428 z m 2.87966,0.82255 a 0.58377352,1.1805007 35.242749 0 0 1.16449,-0.67292 0.58377352,1.1805007 35.242749 0 0 0.16331,-1.27799 0.58377352,1.1805007 35.242749 0 0 -1.16449,0.67293 0.58377352,1.1805007 35.242749 0 0 -0.16331,1.27798 z m 1.35399,-8.05365 a 0.49168064,1.1803042 34.889963 0 0 1.08545,-0.72068 0.49168064,1.1803042 34.889963 0 0 0.24235,-1.23023 0.49168064,1.1803042 34.889963 0 0 -1.08544,0.7207 0.49168064,1.1803042 34.889963 0 0 -0.24236,1.23021 z m -2.30432,3.60421 a 0.58388272,1.4425642 34.846422 0 0 1.31202,-0.88968 0.58388272,1.4425642 34.846422 0 0 0.31085,-1.49475 0.58388272,1.4425642 34.846422 0 0 -1.31202,0.88969 0.58388272,1.4425642 34.846422 0 0 -0.31085,1.49474 z m 4.72557,-1.83498 a 0.56840306,1.1367944 35.272665 0 0 1.12673,-0.64475 0.56840306,1.1367944 35.272665 0 0 0.15189,-1.2339 0.56840306,1.1367944 35.272665 0 0 -1.12671,0.64476 0.56840306,1.1367944 35.272665 0 0 -0.15191,1.23389 z m -1.96621,3.29867 a 0.58389417,1.4862491 34.804853 0 0 1.3366,-0.92582 0.58389417,1.4862491 34.804853 0 0 0.33544,-1.53087 0.58389417,1.4862491 34.804853 0 0 -1.3366,0.92581 0.58389417,1.4862491 34.804853 0 0 -0.33544,1.53088 z m -2.48602,0.74104 a 0.66066085,1.4863876 35.002295 0 0 1.40248,-0.88602 0.66066085,1.4863876 35.002295 0 0 0.26956,-1.57067 0.66066085,1.4863876 35.002295 0 0 -1.40247,0.886 0.66066085,1.4863876 35.002295 0 0 -0.26957,1.57069 z m 2.42973,-3.93633 a 0.58389417,1.4862491 34.804853 0 0 1.3366,-0.92581 0.58389417,1.4862491 34.804853 0 0 0.33544,-1.53088 0.58389417,1.4862491 34.804853 0 0 -1.3366,0.92582 0.58389417,1.4862491 34.804853 0 0 -0.33544,1.53087 z m -28.085206,-3.79235 -4.634305,-4.08665 m 13.591947,-7.23058 -5.874526,-2.26443 m 1.506052,3.17253 -4.44542,6.53153 c -0.675241,0.99213 -2.93878,0.7514 -5.075187,-0.53975 L 6.2189628,15.649328 c -2.136408,-1.29115 -3.3127102,-3.1293 -2.6374642,-4.12142 L 8.0269148,4.9963786 c 0.675247,-0.99213 2.9387682,-0.7514 5.0751762,0.53974 L 59.064419,33.313678 c 2.136402,1.29115 3.312717,3.12931 2.637476,4.12143 z m 5.955598,3.64766 -4.959919,7.28748 c -0.463907,0.68161 -1.34604,0.92295 -1.977873,0.5411 l -0.526373,-0.31812 c -0.631826,-0.38185 -0.767005,-1.23799 -0.30309,-1.91961 l 4.959911,-7.28747 c 0.463915,-0.68162 1.346048,-0.92295 1.977881,-0.5411 l 0.526373,0.31811 c 0.631825,0.38185 0.767005,1.238 0.30309,1.91961 z m 4.110683,2.48432 -4.959919,7.28748 c -0.463915,0.6816 -1.346048,0.92294 -1.977873,0.54109 l -0.526373,-0.31812 c -0.631833,-0.38185 -0.767005,-1.23799 -0.303097,-1.91961 l 4.959918,-7.28747 c 0.463915,-0.68162 1.34604,-0.92296 1.977873,-0.5411 l 0.526373,0.31811 c 0.631826,0.38185 0.767013,1.238 0.303098,1.91962 z m 4.029747,1.97178 -4.959919,7.28748 c -0.463907,0.68161 -1.34604,0.92295 -1.977858,0.54111 l -0.526388,-0.31813 c -0.631826,-0.38185 -0.766997,-1.23799 -0.303082,-1.91961 l 4.959911,-7.28748 c 0.463916,-0.68161 1.346036,-0.92294 1.977866,-0.54109 l 0.52639,0.31811 c 0.63182,0.38185 0.76699,1.23799 0.30308,1.91961 z m 1.15087,17.33329 c -1.03188,-0.56547 -2.05317,-1.15411 -3.06019,-1.76448 -2.560647,-1.55176 -5.026522,-3.24167 -7.329787,-5.02244 l 0.291004,-0.16294 c 2.265091,1.75125 4.689598,3.41273 7.207673,4.93897 0.99043,0.60025 1.99534,1.17976 3.01021,1.73587 z m 10.45526,-16.2988 c -0.97579,-0.64789 -1.96951,-1.27702 -2.97825,-1.88489 -2.56482,-1.5456 -5.22314,-2.95277 -7.90138,-4.18259 l -0.0358,0.31718 c 2.63385,1.20945 5.24762,2.59287 7.76995,4.11284 0.99205,0.59787 1.97013,1.21682 2.92981,1.854 z m 0,0 c -0.97579,-0.64789 -1.96951,-1.27702 -2.97825,-1.88489 -2.56482,-1.5456 -5.22314,-2.95277 -7.90138,-4.18259 l -0.0358,0.31718 c 2.63385,1.20945 5.24762,2.59287 7.76995,4.11284 0.99205,0.59787 1.97013,1.21682 2.92981,1.854 z m 1.79939,7.56641 -4.56688,6.71 c -1.70707,2.50815 -4.85256,3.45691 -7.05269,2.12725 -2.20012,-1.32965 -2.59706,-4.4193 -0.88999,-6.92745 l 4.56688,-6.71 c 1.70707,-2.50815 4.85257,-3.45691 7.05269,-2.12725 2.20013,1.32966 2.59706,4.4193 0.88999,6.92745 z m -8.22611,-4.38378 -4.28345,6.29358 c -1.70707,2.50815 -7.436821,1.8951 -12.846958,-1.37454 -5.410145,-3.26964 -8.391322,-7.92109 -6.684254,-10.42924 l 4.283458,-6.29357 c 1.70707,-2.50816 7.436817,-1.89511 12.846954,1.37454 5.41014,3.26964 8.39132,7.92108 6.68425,10.42924 z" />
    <path
       id="path5167"
       style="fill:none;stroke:#000000;stroke-width:0.436032;stroke-linecap:round;stroke-linejoin:round;stroke-opacity:0.955017;paint-order:stroke markers fill"
       d="m 116.98863,-46.557624 c -0.32525,0.47787 -2.30701,-0.17685 -4.44341,-1.46799 l -20.982331,-12.68078 c -2.1364,-1.29115 -3.59448,-2.71531 -3.26923,-3.19318 0.32524,-0.477879 2.30701,0.17684 4.44341,1.46799 l 20.982331,12.68077 c 2.1364,1.29114 3.59448,2.71531 3.26923,3.19319 z m 34.75263,32.78485 a 0.61466277,1.7484223 34.67626 0 0 1.51049,-1.12665 0.61466277,1.7484223 34.67626 0 0 0.45662,-1.76357 0.61466277,1.7484223 34.67626 0 0 -1.51049,1.12666 0.61466277,1.7484223 34.67626 0 0 -0.45662,1.76356 z m -0.0361,-2.97911 a 0.56837209,1.0931311 35.388056 0 0 1.10212,-0.60862 0.56837209,1.0931311 35.388056 0 0 0.12732,-1.19777 0.56837209,1.0931311 35.388056 0 0 -1.10213,0.60863 0.56837209,1.0931311 35.388056 0 0 -0.12731,1.19776 z m -0.39876,-1.87261 a 0.41488963,1.1364957 34.715747 0 0 0.995,-0.72436 0.41488963,1.1364957 34.715747 0 0 0.28362,-1.15429 0.41488963,1.1364957 34.715747 0 0 -0.99499,0.72437 0.41488963,1.1364957 34.715747 0 0 -0.28363,1.15428 z m 2.87966,0.82255 a 0.58377352,1.1805007 35.242749 0 0 1.16449,-0.67292 0.58377352,1.1805007 35.242749 0 0 0.16331,-1.27799 0.58377352,1.1805007 35.242749 0 0 -1.16449,0.67293 0.58377352,1.1805007 35.242749 0 0 -0.16331,1.27798 z m 1.35399,-8.05365 a 0.49168064,1.1803042 34.889963 0 0 1.08545,-0.72068 0.49168064,1.1803042 34.889963 0 0 0.24235,-1.23023 0.49168064,1.1803042 34.889963 0 0 -1.08544,0.7207 0.49168064,1.1803042 34.889963 0 0 -0.24236,1.23021 z m -2.30432,3.60421 a 0.58388272,1.4425642 34.846422 0 0 1.31202,-0.88968 0.58388272,1.4425642 34.846422 0 0 0.31085,-1.49475 0.58388272,1.4425642 34.846422 0 0 -1.31202,0.88969 0.58388272,1.4425642 34.846422 0 0 -0.31085,1.49474 z m 4.72557,-1.83498 a 0.56840306,1.1367944 35.272665 0 0 1.12673,-0.64475 0.56840306,1.1367944 35.272665 0 0 0.15189,-1.2339 0.56840306,1.1367944 35.272665 0 0 -1.12671,0.64476 0.56840306,1.1367944 35.272665 0 0 -0.15191,1.23389 z m -1.96621,3.29867 a 0.58389417,1.4862491 34.804853 0 0 1.3366,-0.92582 0.58389417,1.4862491 34.804853 0 0 0.33544,-1.53087 0.58389417,1.4862491 34.804853 0 0 -1.3366,0.92581 0.58389417,1.4862491 34.804853 0 0 -0.33544,1.53088 z m -2.48602,0.74104 a 0.66066085,1.4863876 35.002295 0 0 1.40248,-0.88602 0.66066085,1.4863876 35.002295 0 0 0.26956,-1.57067 0.66066085,1.4863876 35.002295 0 0 -1.40247,0.886 0.66066085,1.4863876 35.002295 0 0 -0.26957,1.57069 z m 2.42973,-3.93633 a 0.58389417,1.4862491 34.804853 0 0 1.3366,-0.92581 0.58389417,1.4862491 34.804853 0 0 0.33544,-1.53088 0.58389417,1.4862491 34.804853 0 0 -1.3366,0.92582 0.58389417,1.4862491 34.804853 0 0 -0.33544,1.53087 z m -28.08521,-3.79235 -4.6343,-4.08665 m 13.59195,-7.23058 -5.87453,-2.26443 m 1.50605,3.17253 -4.44542,6.53153 c -0.67524,0.99213 -2.93878,0.7514 -5.07519,-0.53975 l -45.962301,-27.77756 c -2.1364,-1.29115 -3.31271,-3.1293 -2.63746,-4.12142 l 4.44542,-6.531529 c 0.67524,-0.99213 2.93876,-0.7514 5.07517,0.53974 l 45.962331,27.777559 c 2.1364,1.29115 3.31272,3.12931 2.63748,4.12143 z m 5.9556,3.64766 -4.95992,7.28748 c -0.46391,0.68161 -1.34604,0.92295 -1.97787,0.5411 l -0.52638,-0.31812 c -0.63182,-0.38185 -0.767,-1.23799 -0.30309,-1.91961 l 4.95992,-7.28747 c 0.46391,-0.68162 1.34604,-0.92295 1.97788,-0.5411 l 0.52637,0.31811 c 0.63182,0.38185 0.767,1.238 0.30309,1.91961 z m 4.11068,2.48432 -4.95992,7.28748 c -0.46391,0.6816 -1.34604,0.92294 -1.97787,0.54109 l -0.52637,-0.31812 c -0.63184,-0.38185 -0.76701,-1.23799 -0.3031,-1.91961 l 4.95992,-7.28747 c 0.46391,-0.68162 1.34604,-0.92296 1.97787,-0.5411 l 0.52637,0.31811 c 0.63183,0.38185 0.76702,1.238 0.3031,1.91962 z m 4.02975,1.97178 -4.95992,7.28748 c -0.46391,0.68161 -1.34604,0.92295 -1.97786,0.54111 l -0.52639,-0.31813 c -0.63182,-0.38185 -0.76699,-1.23799 -0.30308,-1.91961 l 4.95991,-7.28748 c 0.46392,-0.68161 1.34604,-0.92294 1.97787,-0.54109 l 0.52639,0.31811 c 0.63182,0.38185 0.76699,1.23799 0.30308,1.91961 z m 1.15087,17.33329 c -1.03188,-0.56547 -2.05317,-1.15411 -3.06019,-1.76448 -2.56065,-1.55176 -5.02652,-3.24167 -7.32979,-5.02244 l 0.29101,-0.16294 c 2.26509,1.75125 4.68959,3.41273 7.20767,4.93897 0.99043,0.60025 1.99534,1.17976 3.01021,1.73587 z m 10.45526,-16.2988 c -0.97579,-0.64789 -1.96951,-1.27702 -2.97825,-1.88489 -2.56482,-1.5456 -5.22314,-2.95277 -7.90138,-4.18259 l -0.0358,0.31718 c 2.63385,1.20945 5.24762,2.59287 7.76995,4.11284 0.99205,0.59787 1.97013,1.21682 2.92981,1.854 z m 0,0 c -0.97579,-0.64789 -1.96951,-1.27702 -2.97825,-1.88489 -2.56482,-1.5456 -5.22314,-2.95277 -7.90138,-4.18259 l -0.0358,0.31718 c 2.63385,1.20945 5.24762,2.59287 7.76995,4.11284 0.99205,0.59787 1.97013,1.21682 2.92981,1.854 z m 1.79939,7.56641 -4.56688,6.71 c -1.70707,2.50815 -4.85256,3.45691 -7.05269,2.12725 -2.20012,-1.32965 -2.59706,-4.4193 -0.88999,-6.92745 l 4.56688,-6.71 c 1.70707,-2.50815 4.85257,-3.45691 7.05269,-2.12725 2.20013,1.32966 2.59706,4.4193 0.88999,6.92745 z m -8.22611,-4.38378 -4.28345,6.29358 c -1.70707,2.50815 -7.43682,1.8951 -12.84696,-1.37454 -5.41014,-3.26964 -8.39132,-7.92109 -6.68425,-10.42924 l 4.28346,-6.29357 c 1.70707,-2.50816 7.43681,-1.89511 12.84695,1.37454 5.41014,3.26964 8.39132,7.92108 6.68425,10.42924 z" />
  </g>
</svg>
