<?xml version="1.0" encoding="UTF-8" standalone="no"?>
<svg
   width="210mm"
   height="297mm"
   viewBox="0 0 210 297"
   version="1.1"
   id="svg8"
   inkscape:version="1.1.2 (0a00cf5339, 2022-02-04, custom)"
   sodipodi:docname="Radio fx procssor track icon.svg"
   inkscape:export-filename="C:\Users\steven\Desktop\formating icons\table icon.png"
   inkscape:export-xdpi="96"
   inkscape:export-ydpi="96"
   xmlns:inkscape="http://www.inkscape.org/namespaces/inkscape"
   xmlns:sodipodi="http://sodipodi.sourceforge.net/DTD/sodipodi-0.dtd"
   xmlns="http://www.w3.org/2000/svg"
   xmlns:svg="http://www.w3.org/2000/svg"
   xmlns:rdf="http://www.w3.org/1999/02/22-rdf-syntax-ns#"
   xmlns:cc="http://creativecommons.org/ns#"
   xmlns:dc="http://purl.org/dc/elements/1.1/">
  <defs
     id="defs2">
    <inkscape:path-effect
       effect="spiro"
       id="path-effect1578"
       is_visible="true"
       lpeversion="1" />
    <inkscape:path-effect
       effect="spiro"
       id="path-effect1069"
       is_visible="true"
       lpeversion="1" />
    <inkscape:path-effect
       effect="spiro"
       id="path-effect1953"
       is_visible="true"
       lpeversion="1" />
    <inkscape:path-effect
       effect="spiro"
       id="path-effect1947"
       is_visible="true"
       lpeversion="1" />
    <inkscape:path-effect
       effect="spiro"
       id="path-effect1861"
       is_visible="true"
       lpeversion="1" />
    <inkscape:path-effect
       effect="spiro"
       id="path-effect1855"
       is_visible="true"
       lpeversion="1" />
  </defs>
  <sodipodi:namedview
     id="base"
     pagecolor="#ffffff"
     bordercolor="#666666"
     borderopacity="1.0"
     inkscape:pageopacity="0.0"
     inkscape:pageshadow="2"
     inkscape:zoom="1.1789508"
     inkscape:cx="349.88737"
     inkscape:cy="467.78881"
     inkscape:document-units="mm"
     inkscape:current-layer="layer1"
     inkscape:document-rotation="0"
     showgrid="false"
     inkscape:window-width="1680"
     inkscape:window-height="956"
     inkscape:window-x="-11"
     inkscape:window-y="-11"
     inkscape:window-maximized="1"
     inkscape:pagecheckerboard="0" />
  <metadata
     id="metadata5">
    <rdf:RDF>
      <cc:Work
         rdf:about="">
        <dc:format>image/svg+xml</dc:format>
        <dc:type
           rdf:resource="http://purl.org/dc/dcmitype/StillImage" />
      </cc:Work>
    </rdf:RDF>
  </metadata>
  <g
     inkscape:label="Layer 1"
     inkscape:groupmode="layer"
     id="layer1">
    <rect
       style="fill:none;fill-rule:evenodd;stroke:#ffffff;stroke-width:1.265;stroke-linecap:round;stroke-linejoin:round;stroke-miterlimit:4;stroke-dasharray:none;paint-order:stroke markers fill"
       id="rect4074"
       width="29.48665"
       height="68.573608"
       x="54.173145"
       y="42.515633"
       ry="4.8172951" />
    <path
       id="path1064"
       style="fill:none;fill-rule:evenodd;stroke:#000000;stroke-width:0.406078;stroke-linecap:round;stroke-linejoin:round;paint-order:stroke markers fill"
       d="m 19.255163,65.501394 c 0.51029,-0.2119 1.10009,0.0086 1.322427,0.494344 l 1.914042,4.181812 c 0.222341,0.485765 -0.0095,1.04742 -0.519767,1.25932 -0.510291,0.211896 -1.100091,-0.0086 -1.322427,-0.494344 l -1.914037,-4.181812 c -0.222341,-0.485761 0.0094,-1.04742 0.519762,-1.25932 z m 6.60125,2.043869 a 4.6510895,4.47295 33.442754 0 1 -2.26632,5.917719 4.6510895,4.47295 33.442754 0 1 -6.094404,-2.445901 4.6510895,4.47295 33.442754 0 1 2.26632,-5.917719 4.6510895,4.47295 33.442754 0 1 6.094404,2.445901 z m 45.352302,1.027533 c 0.11748,0.60207 -0.0388,1.26951 -0.35038,1.4965 l -2.68234,1.95415 c -0.31159,0.227 -0.657,-0.075 -0.77448,-0.67703 -0.11747,-0.60207 0.0388,-1.26951 0.35038,-1.4965 l 2.68234,-1.95415 c 0.31158,-0.22699 0.657,0.075 0.77448,0.67703 z m -1.48307,7.49611 a 2.8476177,5.3064088 1.4151422 0 1 -3.64472,-2.9781 2.8476177,5.3064088 1.4151422 0 1 1.71996,-6.8864 2.8476177,5.3064088 1.4151422 0 1 3.64472,2.9781 2.8476177,5.3064088 1.4151422 0 1 -1.71996,6.8864 z M 45.545889,70.751657 c 0.952911,0 1.720059,0.698874 1.720059,1.566977 v 4.700931 c 0,0.868103 -0.767148,1.566976 -1.720059,1.566976 -0.952915,0 -1.720059,-0.698873 -1.720059,-1.566976 v -4.700931 c 0,-0.868103 0.767144,-1.566977 1.720059,-1.566977 z m 5.542416,5.720832 a 4.8734985,6.0067425 0 0 1 -4.8735,6.00674 4.8734985,6.0067425 0 0 1 -4.873499,-6.00674 4.8734985,6.0067425 0 0 1 4.873499,-6.006743 4.8734985,6.0067425 0 0 1 4.8735,6.006743 z m 12.51381,0.116965 A 18.161358,19.926379 0 0 1 45.440755,96.515832 18.161358,19.926379 0 0 1 27.279397,76.589454 18.161358,19.926379 0 0 1 45.440755,56.663072 18.161358,19.926379 0 0 1 63.602115,76.589454 Z m -3.509991,0.622875 A 14.162991,14.860135 0 0 1 45.929133,92.072466 14.162991,14.860135 0 0 1 31.766143,77.212329 14.162991,14.860135 0 0 1 45.929133,62.352196 14.162991,14.860135 0 0 1 60.092124,77.212329 Z m 0.508002,-30.223604 a 0.73625677,0.87910317 0 0 1 -0.73626,0.8791 0.73625677,0.87910317 0 0 1 -0.736256,-0.8791 0.73625677,0.87910317 0 0 1 0.736256,-0.879105 0.73625677,0.87910317 0 0 1 0.73626,0.879105 z M 64.63356,42.61906 a 0.99234606,0.38783962 0 0 1 -0.992353,0.387841 0.99234606,0.38783962 0 0 1 -0.992352,-0.387841 0.99234606,0.38783962 0 0 1 0.992352,-0.387837 0.99234606,0.38783962 0 0 1 0.992353,0.387837 z m -2.881023,-0.103427 a 0.92832376,0.5429755 0 0 1 -0.92833,0.542979 0.92832376,0.5429755 0 0 1 -0.92833,-0.542979 0.92832376,0.5429755 0 0 1 0.92833,-0.542975 0.92832376,0.5429755 0 0 1 0.92833,0.542975 z m 1.856659,4.809217 a 0.73625677,0.59468743 0 0 1 -0.736265,0.594691 0.73625677,0.59468743 0 0 1 -0.736261,-0.594691 0.73625677,0.59468743 0 0 1 0.736261,-0.59469 0.73625677,0.59468743 0 0 1 0.736265,0.59469 z m 0.448161,-2.430464 a 0.48016744,0.85324723 0 0 1 -0.480173,0.853247 0.48016744,0.85324723 0 0 1 -0.480168,-0.853247 0.48016744,0.85324723 0 0 1 0.480168,-0.853247 0.48016744,0.85324723 0 0 1 0.480173,0.853247 z m -1.98471,-0.284414 a 0.51217857,0.93081506 0 0 1 -0.512175,0.930816 0.51217857,0.93081506 0 0 1 -0.512184,-0.930816 0.51217857,0.93081506 0 0 1 0.512184,-0.930816 0.51217857,0.93081506 0 0 1 0.512175,0.930816 z m -9.051912,2.378753 a 0.73625677,0.87910317 0 0 1 -0.736261,0.8791 0.73625677,0.87910317 0 0 1 -0.73626,-0.8791 0.73625677,0.87910317 0 0 1 0.73626,-0.879105 0.73625677,0.87910317 0 0 1 0.736261,0.879105 z m 4.033433,-4.369665 a 0.99234606,0.38783962 0 0 1 -0.992357,0.387841 0.99234606,0.38783962 0 0 1 -0.992348,-0.387841 0.99234606,0.38783962 0 0 1 0.992348,-0.387837 0.99234606,0.38783962 0 0 1 0.992357,0.387837 z m -2.881023,-0.103427 a 0.92832376,0.5429755 0 0 1 -0.928334,0.542979 0.92832376,0.5429755 0 0 1 -0.928325,-0.542979 0.92832376,0.5429755 0 0 1 0.928325,-0.542975 0.92832376,0.5429755 0 0 1 0.928334,0.542975 z m 1.856659,4.809217 a 0.73625677,0.59468743 0 0 1 -0.736265,0.594691 0.73625677,0.59468743 0 0 1 -0.73626,-0.594691 0.73625677,0.59468743 0 0 1 0.73626,-0.59469 0.73625677,0.59468743 0 0 1 0.736265,0.59469 z m 0.448161,-2.430464 a 0.48016744,0.85324723 0 0 1 -0.480173,0.853247 0.48016744,0.85324723 0 0 1 -0.480168,-0.853247 0.48016744,0.85324723 0 0 1 0.480168,-0.853247 0.48016744,0.85324723 0 0 1 0.480173,0.853247 z m -1.984709,-0.284414 a 0.51217857,0.93081506 0 0 1 -0.512176,0.930816 0.51217857,0.93081506 0 0 1 -0.512184,-0.930816 0.51217857,0.93081506 0 0 1 0.512184,-0.930816 0.51217857,0.93081506 0 0 1 0.512176,0.930816 z m 5.661026,-12.834603 a 0.73625677,0.87910317 0 0 1 -0.736261,0.879102 0.73625677,0.87910317 0 0 1 -0.73626,-0.879102 0.73625677,0.87910317 0 0 1 0.73626,-0.879106 0.73625677,0.87910317 0 0 1 0.736261,0.879106 z m 4.033429,-4.369661 a 0.99234606,0.38783962 0 0 1 -0.992349,0.387837 0.99234606,0.38783962 0 0 1 -0.992356,-0.387837 0.99234606,0.38783962 0 0 1 0.992356,-0.387836 0.99234606,0.38783962 0 0 1 0.992349,0.387836 z m -2.881024,-0.103424 a 0.92832376,0.5429755 0 0 1 -0.928325,0.542975 0.92832376,0.5429755 0 0 1 -0.928329,-0.542975 0.92832376,0.5429755 0 0 1 0.928329,-0.542974 0.92832376,0.5429755 0 0 1 0.928325,0.542974 z m 1.856664,4.809212 a 0.73625677,0.59468743 0 0 1 -0.736261,0.594689 0.73625677,0.59468743 0 0 1 -0.736264,-0.594689 0.73625677,0.59468743 0 0 1 0.736264,-0.594689 0.73625677,0.59468743 0 0 1 0.736261,0.594689 z m 0.448157,-2.430465 a 0.48016744,0.85324723 0 0 1 -0.480169,0.853246 0.48016744,0.85324723 0 0 1 -0.480172,-0.853246 0.48016744,0.85324723 0 0 1 0.480172,-0.853247 0.48016744,0.85324723 0 0 1 0.480169,0.853247 z m -1.984701,-0.284413 a 0.51217857,0.93081506 0 0 1 -0.512184,0.930816 0.51217857,0.93081506 0 0 1 -0.51218,-0.930816 0.51217857,0.93081506 0 0 1 0.51218,-0.930815 0.51217857,0.93081506 0 0 1 0.512184,0.930815 z m -1.918374,10.385778 a 0.73625677,0.87910317 0 0 1 -0.736261,0.879107 0.73625677,0.87910317 0 0 1 -0.736261,-0.879107 0.73625677,0.87910317 0 0 1 0.736261,-0.879101 0.73625677,0.87910317 0 0 1 0.736261,0.879101 z m 4.033437,-4.36966 a 0.99234606,0.38783962 0 0 1 -0.992357,0.387841 0.99234606,0.38783962 0 0 1 -0.992352,-0.387841 0.99234606,0.38783962 0 0 1 0.992352,-0.387841 0.99234606,0.38783962 0 0 1 0.992357,0.387841 z m -2.881027,-0.103424 a 0.92832376,0.5429755 0 0 1 -0.92833,0.542979 0.92832376,0.5429755 0 0 1 -0.92833,-0.542979 0.92832376,0.5429755 0 0 1 0.92833,-0.542975 0.92832376,0.5429755 0 0 1 0.92833,0.542975 z m 1.856659,4.809211 a 0.73625677,0.59468743 0 0 1 -0.736261,0.594689 0.73625677,0.59468743 0 0 1 -0.73626,-0.594689 0.73625677,0.59468743 0 0 1 0.73626,-0.594688 0.73625677,0.59468743 0 0 1 0.736261,0.594688 z m 0.448161,-2.43046 a 0.48016744,0.85324723 0 0 1 -0.480173,0.853246 0.48016744,0.85324723 0 0 1 -0.480172,-0.853246 0.48016744,0.85324723 0 0 1 0.480172,-0.853247 0.48016744,0.85324723 0 0 1 0.480173,0.853247 z m -1.984705,-0.284417 a 0.51217857,0.93081506 0 0 1 -0.512184,0.930816 0.51217857,0.93081506 0 0 1 -0.512176,-0.930816 0.51217857,0.93081506 0 0 1 0.512176,-0.930811 0.51217857,0.93081506 0 0 1 0.512184,0.930811 z m -8.160223,1.463664 a 0.73625677,0.87910317 0 0 1 -0.736261,0.879102 0.73625677,0.87910317 0 0 1 -0.73626,-0.879102 0.73625677,0.87910317 0 0 1 0.73626,-0.879105 0.73625677,0.87910317 0 0 1 0.736261,0.879105 z m 4.033433,-4.369665 a 0.99234606,0.38783962 0 0 1 -0.992357,0.387841 0.99234606,0.38783962 0 0 1 -0.992348,-0.387841 0.99234606,0.38783962 0 0 1 0.992348,-0.387836 0.99234606,0.38783962 0 0 1 0.992357,0.387836 z m -2.881023,-0.103424 a 0.92832376,0.5429755 0 0 1 -0.928334,0.542979 0.92832376,0.5429755 0 0 1 -0.928325,-0.542979 0.92832376,0.5429755 0 0 1 0.928325,-0.542974 0.92832376,0.5429755 0 0 1 0.928334,0.542974 z m 1.856659,4.809216 a 0.73625677,0.59468743 0 0 1 -0.736265,0.594689 0.73625677,0.59468743 0 0 1 -0.73626,-0.594689 0.73625677,0.59468743 0 0 1 0.73626,-0.594689 0.73625677,0.59468743 0 0 1 0.736265,0.594689 z m 0.448161,-2.430465 a 0.48016744,0.85324723 0 0 1 -0.480173,0.853247 0.48016744,0.85324723 0 0 1 -0.480168,-0.853247 0.48016744,0.85324723 0 0 1 0.480168,-0.853246 0.48016744,0.85324723 0 0 1 0.480173,0.853246 z m -1.984709,-0.284413 a 0.51217857,0.93081506 0 0 1 -0.512176,0.930816 0.51217857,0.93081506 0 0 1 -0.512184,-0.930816 0.51217857,0.93081506 0 0 1 0.512184,-0.930815 0.51217857,0.93081506 0 0 1 0.512176,0.930815 z m -0.02815,-6.070344 a 0.73625677,0.87910317 0 0 1 -0.736256,0.879102 0.73625677,0.87910317 0 0 1 -0.736265,-0.879102 0.73625677,0.87910317 0 0 1 0.736265,-0.879105 0.73625677,0.87910317 0 0 1 0.736256,0.879105 z m 4.033438,-4.369661 a 0.99234606,0.38783962 0 0 1 -0.992357,0.387841 0.99234606,0.38783962 0 0 1 -0.992348,-0.387841 0.99234606,0.38783962 0 0 1 0.992348,-0.38784 0.99234606,0.38783962 0 0 1 0.992357,0.38784 z M 55.617521,25.94513 a 0.92832376,0.5429755 0 0 1 -0.92833,0.542975 0.92832376,0.5429755 0 0 1 -0.928334,-0.542975 0.92832376,0.5429755 0 0 1 0.928334,-0.542974 0.92832376,0.5429755 0 0 1 0.92833,0.542974 z m 1.856655,4.809212 a 0.73625677,0.59468743 0 0 1 -0.736261,0.594689 0.73625677,0.59468743 0 0 1 -0.73626,-0.594689 0.73625677,0.59468743 0 0 1 0.73626,-0.594689 0.73625677,0.59468743 0 0 1 0.736261,0.594689 z m 0.448161,-2.430461 a 0.48016744,0.85324723 0 0 1 -0.480169,0.853247 0.48016744,0.85324723 0 0 1 -0.480168,-0.853247 0.48016744,0.85324723 0 0 1 0.480168,-0.853246 0.48016744,0.85324723 0 0 1 0.480169,0.853246 z m -1.984705,-0.284417 a 0.51217857,0.93081506 0 0 1 -0.512185,0.930816 0.51217857,0.93081506 0 0 1 -0.512175,-0.930816 0.51217857,0.93081506 0 0 1 0.512175,-0.930815 0.51217857,0.93081506 0 0 1 0.512185,0.930815 z m 3.655094,-6.144458 a 0.73625677,0.87910317 0 0 1 -0.736256,0.879105 0.73625677,0.87910317 0 0 1 -0.736265,-0.879105 0.73625677,0.87910317 0 0 1 0.736265,-0.879102 0.73625677,0.87910317 0 0 1 0.736256,0.879102 z m 4.033438,-4.369657 a 0.99234606,0.38783962 0 0 1 -0.992357,0.387836 0.99234606,0.38783962 0 0 1 -0.992348,-0.387836 0.99234606,0.38783962 0 0 1 0.992348,-0.387841 0.99234606,0.38783962 0 0 1 0.992357,0.387841 z m -2.881027,-0.103428 a 0.92832376,0.5429755 0 0 1 -0.928334,0.542979 0.92832376,0.5429755 0 0 1 -0.928326,-0.542979 0.92832376,0.5429755 0 0 1 0.928326,-0.542975 0.92832376,0.5429755 0 0 1 0.928334,0.542975 z m 1.856659,4.809211 a 0.73625677,0.59468743 0 0 1 -0.736261,0.594689 0.73625677,0.59468743 0 0 1 -0.73626,-0.594689 0.73625677,0.59468743 0 0 1 0.73626,-0.594684 0.73625677,0.59468743 0 0 1 0.736261,0.594684 z m 0.448161,-2.43046 a 0.48016744,0.85324723 0 0 1 -0.480173,0.853246 0.48016744,0.85324723 0 0 1 -0.480172,-0.853246 0.48016744,0.85324723 0 0 1 0.480172,-0.853247 0.48016744,0.85324723 0 0 1 0.480173,0.853247 z m -1.984705,-0.284413 a 0.51217857,0.93081506 0 0 1 -0.512185,0.930811 0.51217857,0.93081506 0 0 1 -0.512175,-0.930811 0.51217857,0.93081506 0 0 1 0.512175,-0.930816 0.51217857,0.93081506 0 0 1 0.512185,0.930816 z m -8.865678,2.008174 a 0.73625677,0.87910317 0 0 1 -0.73626,0.879101 0.73625677,0.87910317 0 0 1 -0.736261,-0.879101 0.73625677,0.87910317 0 0 1 0.736261,-0.879102 0.73625677,0.87910317 0 0 1 0.73626,0.879102 z m 4.033434,-4.369661 a 0.99234606,0.38783962 0 0 1 -0.992357,0.38784 0.99234606,0.38783962 0 0 1 -0.992348,-0.38784 0.99234606,0.38783962 0 0 1 0.992348,-0.387837 0.99234606,0.38783962 0 0 1 0.992357,0.387837 z m -2.881019,-0.103424 a 0.92832376,0.5429755 0 0 1 -0.928326,0.542979 0.92832376,0.5429755 0 0 1 -0.928334,-0.542979 0.92832376,0.5429755 0 0 1 0.928334,-0.542975 0.92832376,0.5429755 0 0 1 0.928326,0.542975 z m 1.856659,4.809211 a 0.73625677,0.59468743 0 0 1 -0.736261,0.594689 0.73625677,0.59468743 0 0 1 -0.736265,-0.594689 0.73625677,0.59468743 0 0 1 0.736265,-0.594684 0.73625677,0.59468743 0 0 1 0.736261,0.594684 z m 0.448161,-2.43046 a 0.48016744,0.85324723 0 0 1 -0.480173,0.853246 0.48016744,0.85324723 0 0 1 -0.480168,-0.853246 0.48016744,0.85324723 0 0 1 0.480168,-0.853247 0.48016744,0.85324723 0 0 1 0.480173,0.853247 z m -1.984705,-0.284417 a 0.51217857,0.93081506 0 0 1 -0.512184,0.930815 0.51217857,0.93081506 0 0 1 -0.512176,-0.930815 0.51217857,0.93081506 0 0 1 0.512176,-0.930816 0.51217857,0.93081506 0 0 1 0.512184,0.930816 z m -6.251817,-7.002735 h 21.705964 c 0.549867,0 0.99254,0.454293 0.99254,1.018591 v 37.691356 c 0,0.564298 -0.442673,1.018587 -0.99254,1.018587 H 47.420287 c -0.549872,0 -0.992549,-0.454289 -0.992549,-1.018587 V 13.161538 c 0,-0.564298 0.442677,-1.018591 0.992549,-1.018591 z m 3.779036,2.966087 h 14.292331 c 0.562139,0 1.014686,0.464427 1.014686,1.041314 v 30.824366 c 0,0.576885 -0.452547,1.041314 -1.014686,1.041314 H 51.199323 c -0.562139,0 -1.01469,-0.464429 -1.01469,-1.041314 V 16.150348 c 0,-0.576887 0.452551,-1.041314 1.01469,-1.041314 z M 33.561806,46.988725 a 0.73625677,0.87910317 0 0 1 -0.736256,0.8791 0.73625677,0.87910317 0 0 1 -0.736256,-0.8791 0.73625677,0.87910317 0 0 1 0.736256,-0.879105 0.73625677,0.87910317 0 0 1 0.736256,0.879105 z m 4.033408,-4.369665 a 0.99234606,0.38783962 0 0 1 -0.992348,0.387841 0.99234606,0.38783962 0 0 1 -0.992344,-0.387841 0.99234606,0.38783962 0 0 1 0.992344,-0.387837 0.99234606,0.38783962 0 0 1 0.992348,0.387837 z m -2.881006,-0.103427 a 0.92832376,0.5429755 0 0 1 -0.928325,0.542979 0.92832376,0.5429755 0 0 1 -0.928321,-0.542979 0.92832376,0.5429755 0 0 1 0.928321,-0.542975 0.92832376,0.5429755 0 0 1 0.928325,0.542975 z m 1.856651,4.809217 a 0.73625677,0.59468743 0 0 1 -0.736261,0.594691 0.73625677,0.59468743 0 0 1 -0.736256,-0.594691 0.73625677,0.59468743 0 0 1 0.736256,-0.59469 0.73625677,0.59468743 0 0 1 0.736261,0.59469 z m 0.448157,-2.430464 a 0.48016744,0.85324723 0 0 1 -0.480169,0.853247 0.48016744,0.85324723 0 0 1 -0.480168,-0.853247 0.48016744,0.85324723 0 0 1 0.480168,-0.853247 0.48016744,0.85324723 0 0 1 0.480169,0.853247 z m -1.984697,-0.284414 a 0.51217857,0.93081506 0 0 1 -0.512176,0.930816 0.51217857,0.93081506 0 0 1 -0.51218,-0.930816 0.51217857,0.93081506 0 0 1 0.51218,-0.930816 0.51217857,0.93081506 0 0 1 0.512176,0.930816 z m -9.051862,2.378753 a 0.73625677,0.87910317 0 0 1 -0.736256,0.8791 0.73625677,0.87910317 0 0 1 -0.736256,-0.8791 0.73625677,0.87910317 0 0 1 0.736256,-0.879105 0.73625677,0.87910317 0 0 1 0.736256,0.879105 z m 4.033408,-4.369665 a 0.99234606,0.38783962 0 0 1 -0.992348,0.387841 0.99234606,0.38783962 0 0 1 -0.992344,-0.387841 0.99234606,0.38783962 0 0 1 0.992344,-0.387837 0.99234606,0.38783962 0 0 1 0.992348,0.387837 z m -2.881006,-0.103427 a 0.92832376,0.5429755 0 0 1 -0.928326,0.542979 0.92832376,0.5429755 0 0 1 -0.928321,-0.542979 0.92832376,0.5429755 0 0 1 0.928321,-0.542975 0.92832376,0.5429755 0 0 1 0.928326,0.542975 z m 1.85665,4.809217 a 0.73625677,0.59468743 0 0 1 -0.73626,0.594691 0.73625677,0.59468743 0 0 1 -0.736256,-0.594691 0.73625677,0.59468743 0 0 1 0.736256,-0.59469 0.73625677,0.59468743 0 0 1 0.73626,0.59469 z m 0.448157,-2.430464 a 0.48016744,0.85324723 0 0 1 -0.480168,0.853247 0.48016744,0.85324723 0 0 1 -0.480168,-0.853247 0.48016744,0.85324723 0 0 1 0.480168,-0.853247 0.48016744,0.85324723 0 0 1 0.480168,0.853247 z M 27.45497,44.609972 a 0.51217857,0.93081506 0 0 1 -0.512176,0.930816 0.51217857,0.93081506 0 0 1 -0.51218,-0.930816 0.51217857,0.93081506 0 0 1 0.51218,-0.930816 0.51217857,0.93081506 0 0 1 0.512176,0.930816 z m 5.660992,-12.834603 a 0.73625677,0.87910317 0 0 1 -0.736257,0.879102 0.73625677,0.87910317 0 0 1 -0.736256,-0.879102 0.73625677,0.87910317 0 0 1 0.736256,-0.879106 0.73625677,0.87910317 0 0 1 0.736257,0.879106 z m 4.033407,-4.369661 a 0.99234606,0.38783962 0 0 1 -0.992344,0.387837 0.99234606,0.38783962 0 0 1 -0.992348,-0.387837 0.99234606,0.38783962 0 0 1 0.992348,-0.387836 0.99234606,0.38783962 0 0 1 0.992344,0.387836 z m -2.881006,-0.103424 a 0.92832376,0.5429755 0 0 1 -0.928321,0.542975 0.92832376,0.5429755 0 0 1 -0.928325,-0.542975 0.92832376,0.5429755 0 0 1 0.928325,-0.542974 0.92832376,0.5429755 0 0 1 0.928321,0.542974 z m 1.856651,4.809212 a 0.73625677,0.59468743 0 0 1 -0.736256,0.594689 0.73625677,0.59468743 0 0 1 -0.736261,-0.594689 0.73625677,0.59468743 0 0 1 0.736261,-0.594689 0.73625677,0.59468743 0 0 1 0.736256,0.594689 z m 0.448157,-2.430465 a 0.48016744,0.85324723 0 0 1 -0.480169,0.853246 0.48016744,0.85324723 0 0 1 -0.480168,-0.853246 0.48016744,0.85324723 0 0 1 0.480168,-0.853247 0.48016744,0.85324723 0 0 1 0.480169,0.853247 z m -1.984693,-0.284413 a 0.51217857,0.93081506 0 0 1 -0.51218,0.930816 0.51217857,0.93081506 0 0 1 -0.512175,-0.930816 0.51217857,0.93081506 0 0 1 0.512175,-0.930815 0.51217857,0.93081506 0 0 1 0.51218,0.930815 z m -1.918361,10.385778 a 0.73625677,0.87910317 0 0 1 -0.736257,0.879107 0.73625677,0.87910317 0 0 1 -0.736256,-0.879107 0.73625677,0.87910317 0 0 1 0.736256,-0.879101 0.73625677,0.87910317 0 0 1 0.736257,0.879101 z m 4.033412,-4.36966 a 0.99234606,0.38783962 0 0 1 -0.992348,0.387841 0.99234606,0.38783962 0 0 1 -0.992349,-0.387841 0.99234606,0.38783962 0 0 1 0.992349,-0.387841 0.99234606,0.38783962 0 0 1 0.992348,0.387841 z m -2.881011,-0.103424 a 0.92832376,0.5429755 0 0 1 -0.928321,0.542979 0.92832376,0.5429755 0 0 1 -0.928325,-0.542979 0.92832376,0.5429755 0 0 1 0.928325,-0.542975 0.92832376,0.5429755 0 0 1 0.928321,0.542975 z m 1.856651,4.809211 a 0.73625677,0.59468743 0 0 1 -0.736256,0.594689 0.73625677,0.59468743 0 0 1 -0.736256,-0.594689 0.73625677,0.59468743 0 0 1 0.736256,-0.594688 0.73625677,0.59468743 0 0 1 0.736256,0.594688 z m 0.448157,-2.43046 a 0.48016744,0.85324723 0 0 1 -0.480168,0.853246 0.48016744,0.85324723 0 0 1 -0.480169,-0.853246 0.48016744,0.85324723 0 0 1 0.480169,-0.853247 0.48016744,0.85324723 0 0 1 0.480168,0.853247 z m -1.984693,-0.284417 a 0.51217857,0.93081506 0 0 1 -0.512179,0.930816 0.51217857,0.93081506 0 0 1 -0.512176,-0.930816 0.51217857,0.93081506 0 0 1 0.512176,-0.930811 0.51217857,0.93081506 0 0 1 0.512179,0.930811 z m -8.160176,1.463664 a 0.73625677,0.87910317 0 0 1 -0.736256,0.879102 0.73625677,0.87910317 0 0 1 -0.736256,-0.879102 0.73625677,0.87910317 0 0 1 0.736256,-0.879105 0.73625677,0.87910317 0 0 1 0.736256,0.879105 z m 4.033408,-4.369665 a 0.99234606,0.38783962 0 0 1 -0.992348,0.387841 0.99234606,0.38783962 0 0 1 -0.992344,-0.387841 0.99234606,0.38783962 0 0 1 0.992344,-0.387836 0.99234606,0.38783962 0 0 1 0.992348,0.387836 z m -2.881006,-0.103424 a 0.92832376,0.5429755 0 0 1 -0.928326,0.542979 0.92832376,0.5429755 0 0 1 -0.928321,-0.542979 0.92832376,0.5429755 0 0 1 0.928321,-0.542974 0.92832376,0.5429755 0 0 1 0.928326,0.542974 z m 1.85665,4.809216 a 0.73625677,0.59468743 0 0 1 -0.73626,0.594689 0.73625677,0.59468743 0 0 1 -0.736256,-0.594689 0.73625677,0.59468743 0 0 1 0.736256,-0.594689 0.73625677,0.59468743 0 0 1 0.73626,0.594689 z m 0.448157,-2.430465 a 0.48016744,0.85324723 0 0 1 -0.480168,0.853247 0.48016744,0.85324723 0 0 1 -0.480168,-0.853247 0.48016744,0.85324723 0 0 1 0.480168,-0.853246 0.48016744,0.85324723 0 0 1 0.480168,0.853246 z M 27.45497,36.488559 a 0.51217857,0.93081506 0 0 1 -0.512176,0.930816 0.51217857,0.93081506 0 0 1 -0.51218,-0.930816 0.51217857,0.93081506 0 0 1 0.51218,-0.930815 0.51217857,0.93081506 0 0 1 0.512176,0.930815 z m -0.02815,-6.070344 a 0.73625677,0.87910317 0 0 1 -0.736252,0.879102 0.73625677,0.87910317 0 0 1 -0.73626,-0.879102 0.73625677,0.87910317 0 0 1 0.73626,-0.879105 0.73625677,0.87910317 0 0 1 0.736252,0.879105 z m 4.033413,-4.369661 a 0.99234606,0.38783962 0 0 1 -0.992349,0.387841 0.99234606,0.38783962 0 0 1 -0.992344,-0.387841 0.99234606,0.38783962 0 0 1 0.992344,-0.38784 0.99234606,0.38783962 0 0 1 0.992349,0.38784 z M 28.579226,25.94513 a 0.92832376,0.5429755 0 0 1 -0.928325,0.542975 0.92832376,0.5429755 0 0 1 -0.928325,-0.542975 0.92832376,0.5429755 0 0 1 0.928325,-0.542974 0.92832376,0.5429755 0 0 1 0.928325,0.542974 z m 1.856647,4.809212 a 0.73625677,0.59468743 0 0 1 -0.736257,0.594689 0.73625677,0.59468743 0 0 1 -0.736256,-0.594689 0.73625677,0.59468743 0 0 1 0.736256,-0.594689 0.73625677,0.59468743 0 0 1 0.736257,0.594689 z m 0.448157,-2.430461 a 0.48016744,0.85324723 0 0 1 -0.480165,0.853247 0.48016744,0.85324723 0 0 1 -0.480168,-0.853247 0.48016744,0.85324723 0 0 1 0.480168,-0.853246 0.48016744,0.85324723 0 0 1 0.480165,0.853246 z m -1.984693,-0.284417 a 0.51217857,0.93081506 0 0 1 -0.51218,0.930816 0.51217857,0.93081506 0 0 1 -0.512175,-0.930816 0.51217857,0.93081506 0 0 1 0.512175,-0.930815 0.51217857,0.93081506 0 0 1 0.51218,0.930815 z m 3.655074,-6.144458 a 0.73625677,0.87910317 0 0 1 -0.736252,0.879105 0.73625677,0.87910317 0 0 1 -0.736261,-0.879105 0.73625677,0.87910317 0 0 1 0.736261,-0.879102 0.73625677,0.87910317 0 0 1 0.736252,0.879102 z m 4.033412,-4.369657 a 0.99234606,0.38783962 0 0 1 -0.992349,0.387836 0.99234606,0.38783962 0 0 1 -0.992344,-0.387836 0.99234606,0.38783962 0 0 1 0.992344,-0.387841 0.99234606,0.38783962 0 0 1 0.992349,0.387841 z m -2.881011,-0.103428 a 0.92832376,0.5429755 0 0 1 -0.928325,0.542979 0.92832376,0.5429755 0 0 1 -0.928321,-0.542979 0.92832376,0.5429755 0 0 1 0.928321,-0.542975 0.92832376,0.5429755 0 0 1 0.928325,0.542975 z m 1.856651,4.809211 a 0.73625677,0.59468743 0 0 1 -0.736256,0.594689 0.73625677,0.59468743 0 0 1 -0.736257,-0.594689 0.73625677,0.59468743 0 0 1 0.736257,-0.594684 0.73625677,0.59468743 0 0 1 0.736256,0.594684 z m 0.448157,-2.43046 a 0.48016744,0.85324723 0 0 1 -0.480169,0.853246 0.48016744,0.85324723 0 0 1 -0.480168,-0.853246 0.48016744,0.85324723 0 0 1 0.480168,-0.853247 0.48016744,0.85324723 0 0 1 0.480169,0.853247 z m -1.984693,-0.284413 a 0.51217857,0.93081506 0 0 1 -0.51218,0.930811 0.51217857,0.93081506 0 0 1 -0.512175,-0.930811 0.51217857,0.93081506 0 0 1 0.512175,-0.930816 0.51217857,0.93081506 0 0 1 0.51218,0.930816 z m -8.865626,2.008174 a 0.73625677,0.87910317 0 0 1 -0.736256,0.879101 0.73625677,0.87910317 0 0 1 -0.736256,-0.879101 0.73625677,0.87910317 0 0 1 0.736256,-0.879102 0.73625677,0.87910317 0 0 1 0.736256,0.879102 z m 4.033408,-4.369661 a 0.99234606,0.38783962 0 0 1 -0.992348,0.38784 0.99234606,0.38783962 0 0 1 -0.992344,-0.38784 0.99234606,0.38783962 0 0 1 0.992344,-0.387837 0.99234606,0.38783962 0 0 1 0.992348,0.387837 z m -2.881006,-0.103424 a 0.92832376,0.5429755 0 0 1 -0.928321,0.542979 0.92832376,0.5429755 0 0 1 -0.928326,-0.542979 0.92832376,0.5429755 0 0 1 0.928326,-0.542975 0.92832376,0.5429755 0 0 1 0.928321,0.542975 z m 1.856651,4.809211 a 0.73625677,0.59468743 0 0 1 -0.736257,0.594689 0.73625677,0.59468743 0 0 1 -0.73626,-0.594689 0.73625677,0.59468743 0 0 1 0.73626,-0.594684 0.73625677,0.59468743 0 0 1 0.736257,0.594684 z m 0.448156,-2.43046 a 0.48016744,0.85324723 0 0 1 -0.480168,0.853246 0.48016744,0.85324723 0 0 1 -0.480168,-0.853246 0.48016744,0.85324723 0 0 1 0.480168,-0.853247 0.48016744,0.85324723 0 0 1 0.480168,0.853247 z m -1.984692,-0.284417 a 0.51217857,0.93081506 0 0 1 -0.51218,0.930815 0.51217857,0.93081506 0 0 1 -0.512176,-0.930815 0.51217857,0.93081506 0 0 1 0.512176,-0.930816 0.51217857,0.93081506 0 0 1 0.51218,0.930816 z m -6.251779,-7.002735 h 21.705853 c 0.549867,0 0.99254,0.454293 0.99254,1.018591 v 37.691356 c 0,0.564298 -0.442673,1.018587 -0.99254,1.018587 H 20.382039 c -0.549867,0 -0.99254,-0.454289 -0.99254,-1.018587 V 13.161538 c 0,-0.564298 0.442673,-1.018591 0.99254,-1.018591 z m 3.779015,2.966087 h 14.29225 c 0.562135,0 1.014682,0.464427 1.014682,1.041314 v 30.824366 c 0,0.576885 -0.452547,1.041314 -1.014682,1.041314 h -14.29225 c -0.562135,0 -1.014686,-0.464429 -1.014686,-1.041314 V 16.150348 c 0,-0.576887 0.452551,-1.041314 1.014686,-1.041314 z M 16.388334,4.6913182 h 54.979217 c 4.792342,0 8.65044,3.5147332 8.65044,7.8805678 v 86.92505 c 0,4.365844 -3.858098,7.880574 -8.65044,7.880574 H 16.388334 c -4.792343,0 -8.6504397,-3.51473 -8.6504397,-7.880574 v -86.92505 c 0,-4.3658346 3.8580967,-7.8805678 8.6504397,-7.8805678 z m 6.837306,7.2965938 h 43.062763 c 4.792347,0 8.650441,3.514733 8.650441,7.880567 v 74.467463 c 0,4.365836 -3.858094,7.880568 -8.650441,7.880568 H 23.22564 c -4.792343,0 -8.65044,-3.514732 -8.65044,-7.880568 V 19.868479 c 0,-4.365834 3.858097,-7.880567 8.65044,-7.880567 z" />
  </g>
  <g
     inkscape:groupmode="layer"
     id="layer2"
     inkscape:label="Layer 2" />
  <g
     inkscape:groupmode="layer"
     id="layer3"
     inkscape:label="Layer 3" />
  <g
     inkscape:groupmode="layer"
     id="layer4"
     inkscape:label="Layer 4" />
</svg>
