<?xml version="1.0" encoding="UTF-8" standalone="no"?>
<svg
   width="210mm"
   height="297mm"
   viewBox="0 0 210 297"
   version="1.1"
   id="svg8"
   inkscape:version="1.1.2 (0a00cf5339, 2022-02-04, custom)"
   sodipodi:docname="Radio fx procssor track icon.svg"
   inkscape:export-filename="C:\Users\steven\Desktop\formating icons\table icon.png"
   inkscape:export-xdpi="96"
   inkscape:export-ydpi="96"
   xmlns:inkscape="http://www.inkscape.org/namespaces/inkscape"
   xmlns:sodipodi="http://sodipodi.sourceforge.net/DTD/sodipodi-0.dtd"
   xmlns="http://www.w3.org/2000/svg"
   xmlns:svg="http://www.w3.org/2000/svg"
   xmlns:rdf="http://www.w3.org/1999/02/22-rdf-syntax-ns#"
   xmlns:cc="http://creativecommons.org/ns#"
   xmlns:dc="http://purl.org/dc/elements/1.1/">
  <defs
     id="defs2">
    <inkscape:path-effect
       effect="spiro"
       id="path-effect1578"
       is_visible="true"
       lpeversion="1" />
    <inkscape:path-effect
       effect="spiro"
       id="path-effect1069"
       is_visible="true"
       lpeversion="1" />
    <inkscape:path-effect
       effect="spiro"
       id="path-effect1953"
       is_visible="true"
       lpeversion="1" />
    <inkscape:path-effect
       effect="spiro"
       id="path-effect1947"
       is_visible="true"
       lpeversion="1" />
    <inkscape:path-effect
       effect="spiro"
       id="path-effect1861"
       is_visible="true"
       lpeversion="1" />
    <inkscape:path-effect
       effect="spiro"
       id="path-effect1855"
       is_visible="true"
       lpeversion="1" />
  </defs>
  <sodipodi:namedview
     id="base"
     pagecolor="#ffffff"
     bordercolor="#666666"
     borderopacity="1.0"
     inkscape:pageopacity="0.0"
     inkscape:pageshadow="2"
     inkscape:zoom="0.63446243"
     inkscape:cx="349.11444"
     inkscape:cy="286.06895"
     inkscape:document-units="mm"
     inkscape:current-layer="layer3"
     inkscape:document-rotation="0"
     showgrid="false"
     inkscape:window-width="1680"
     inkscape:window-height="956"
     inkscape:window-x="-11"
     inkscape:window-y="-11"
     inkscape:window-maximized="1"
     inkscape:pagecheckerboard="0" />
  <metadata
     id="metadata5">
    <rdf:RDF>
      <cc:Work
         rdf:about="">
        <dc:format>image/svg+xml</dc:format>
        <dc:type
           rdf:resource="http://purl.org/dc/dcmitype/StillImage" />
      </cc:Work>
    </rdf:RDF>
  </metadata>
  <g
     inkscape:label="Layer 1"
     inkscape:groupmode="layer"
     id="layer1">
    <path
       id="path834"
       style="fill:none;fill-rule:evenodd;stroke:#000000;stroke-width:0.406078;stroke-linecap:round;stroke-linejoin:round;paint-order:stroke markers fill"
       d="m 16.420753,60.385456 c 0.51029,-0.2119 1.1001,0.009 1.32243,0.49435 l 1.91405,4.18181 c 0.22234,0.48577 -0.01,1.04742 -0.51977,1.25932 -0.5103,0.2119 -1.10009,-0.009 -1.32243,-0.49434 l -1.91404,-4.18182 c -0.22235,-0.48576 0.009,-1.04742 0.51976,-1.25932 z m 6.60128,2.04387 a 4.6510895,4.47295 33.442754 0 1 -2.26633,5.91772 4.6510895,4.47295 33.442754 0 1 -6.09443,-2.4459 4.6510895,4.47295 33.442754 0 1 2.26633,-5.91772 4.6510895,4.47295 33.442754 0 1 6.09443,2.4459 z m 45.352541,1.02754 c 0.11748,0.60207 -0.0388,1.26951 -0.35038,1.4965 l -2.68236,1.95415 c -0.31159,0.227 -0.657,-0.075 -0.77448,-0.67703 -0.11747,-0.60207 0.0388,-1.26951 0.35038,-1.4965 l 2.68236,-1.95415 c 0.31158,-0.22699 0.657,0.075 0.77448,0.67703 z m -1.48308,7.49611 a 2.8476177,5.3064088 1.4151422 0 1 -3.64473,-2.9781 2.8476177,5.3064088 1.4151422 0 1 1.71996,-6.8864 2.8476177,5.3064088 1.4151422 0 1 3.64474,2.9781 2.8476177,5.3064088 1.4151422 0 1 -1.71997,6.8864 z m -24.179871,-5.31725 c 0.95291,0 1.72007,0.69887 1.72007,1.56697 v 4.70093 c 0,0.86811 -0.76716,1.56698 -1.72007,1.56698 -0.95292,0 -1.72007,-0.69887 -1.72007,-1.56698 v -4.70093 c 0,-0.8681 0.76715,-1.56697 1.72007,-1.56697 z m 5.54244,5.72083 a 4.8734985,6.0067425 0 0 1 -4.87352,6.00674 4.8734985,6.0067425 0 0 1 -4.87353,-6.00674 4.8734985,6.0067425 0 0 1 4.87353,-6.00674 4.8734985,6.0067425 0 0 1 4.87352,6.00674 z m 12.51388,0.11696 a 18.161358,19.926379 0 0 1 -18.16146,19.92638 18.161358,19.926379 0 0 1 -18.16146,-19.92638 18.161358,19.926379 0 0 1 18.16146,-19.92638 18.161358,19.926379 0 0 1 18.16146,19.92638 z m -3.51002,0.62288 a 14.162991,14.860135 0 0 1 -14.16306,14.86014 14.162991,14.860135 0 0 1 -14.16307,-14.86014 14.162991,14.860135 0 0 1 14.16307,-14.86013 14.162991,14.860135 0 0 1 14.16306,14.86013 z m 0.50801,-30.2236 a 0.73625677,0.87910317 0 0 1 -0.73626,0.8791 0.73625677,0.87910317 0 0 1 -0.73627,-0.8791 0.73625677,0.87910317 0 0 1 0.73627,-0.87911 0.73625677,0.87910317 0 0 1 0.73626,0.87911 z m 4.033461,-4.36967 a 0.99234606,0.38783962 0 0 1 -0.992361,0.38784 0.99234606,0.38783962 0 0 1 -0.99236,-0.38784 0.99234606,0.38783962 0 0 1 0.99236,-0.38784 0.99234606,0.38783962 0 0 1 0.992361,0.38784 z m -2.881041,-0.10343 a 0.92832376,0.5429755 0 0 1 -0.92834,0.54298 0.92832376,0.5429755 0 0 1 -0.92833,-0.54298 0.92832376,0.5429755 0 0 1 0.92833,-0.54297 0.92832376,0.5429755 0 0 1 0.92834,0.54297 z m 1.85667,4.80922 a 0.73625677,0.59468743 0 0 1 -0.73627,0.59469 0.73625677,0.59468743 0 0 1 -0.73627,-0.59469 0.73625677,0.59468743 0 0 1 0.73627,-0.59469 0.73625677,0.59468743 0 0 1 0.73627,0.59469 z m 0.44816,-2.43046 a 0.48016744,0.85324723 0 0 1 -0.48017,0.85324 0.48016744,0.85324723 0 0 1 -0.48018,-0.85324 0.48016744,0.85324723 0 0 1 0.48018,-0.85325 0.48016744,0.85324723 0 0 1 0.48017,0.85325 z m -1.98472,-0.28442 a 0.51217857,0.93081506 0 0 1 -0.51218,0.93082 0.51217857,0.93081506 0 0 1 -0.51219,-0.93082 0.51217857,0.93081506 0 0 1 0.51219,-0.93081 0.51217857,0.93081506 0 0 1 0.51218,0.93081 z m -9.05195,2.37876 a 0.73625677,0.87910317 0 0 1 -0.73627,0.8791 0.73625677,0.87910317 0 0 1 -0.73626,-0.8791 0.73625677,0.87910317 0 0 1 0.73626,-0.87911 0.73625677,0.87910317 0 0 1 0.73627,0.87911 z m 4.03344,-4.36967 a 0.99234606,0.38783962 0 0 1 -0.99235,0.38784 0.99234606,0.38783962 0 0 1 -0.99235,-0.38784 0.99234606,0.38783962 0 0 1 0.99235,-0.38784 0.99234606,0.38783962 0 0 1 0.99235,0.38784 z m -2.88103,-0.10343 a 0.92832376,0.5429755 0 0 1 -0.92834,0.54298 0.92832376,0.5429755 0 0 1 -0.92833,-0.54298 0.92832376,0.5429755 0 0 1 0.92833,-0.54297 0.92832376,0.5429755 0 0 1 0.92834,0.54297 z m 1.85667,4.80922 a 0.73625677,0.59468743 0 0 1 -0.73627,0.59469 0.73625677,0.59468743 0 0 1 -0.73626,-0.59469 0.73625677,0.59468743 0 0 1 0.73626,-0.59469 0.73625677,0.59468743 0 0 1 0.73627,0.59469 z m 0.44816,-2.43046 a 0.48016744,0.85324723 0 0 1 -0.48017,0.85324 0.48016744,0.85324723 0 0 1 -0.48017,-0.85324 0.48016744,0.85324723 0 0 1 0.48017,-0.85325 0.48016744,0.85324723 0 0 1 0.48017,0.85325 z m -1.98471,-0.28442 a 0.51217857,0.93081506 0 0 1 -0.51218,0.93082 0.51217857,0.93081506 0 0 1 -0.51219,-0.93082 0.51217857,0.93081506 0 0 1 0.51219,-0.93081 0.51217857,0.93081506 0 0 1 0.51218,0.93081 z m 5.66104,-12.834599 a 0.73625677,0.87910317 0 0 1 -0.73626,0.879102 0.73625677,0.87910317 0 0 1 -0.73627,-0.879102 0.73625677,0.87910317 0 0 1 0.73627,-0.879106 0.73625677,0.87910317 0 0 1 0.73626,0.879106 z m 4.03346,-4.369661 a 0.99234606,0.38783962 0 0 1 -0.99236,0.387837 0.99234606,0.38783962 0 0 1 -0.99236,-0.387837 0.99234606,0.38783962 0 0 1 0.99236,-0.387836 0.99234606,0.38783962 0 0 1 0.99236,0.387836 z m -2.88105,-0.103424 a 0.92832376,0.5429755 0 0 1 -0.92832,0.542975 0.92832376,0.5429755 0 0 1 -0.92834,-0.542975 0.92832376,0.5429755 0 0 1 0.92834,-0.542974 0.92832376,0.5429755 0 0 1 0.92832,0.542974 z m 1.85668,4.809212 a 0.73625677,0.59468743 0 0 1 -0.73627,0.594689 0.73625677,0.59468743 0 0 1 -0.73626,-0.594689 0.73625677,0.59468743 0 0 1 0.73626,-0.594689 0.73625677,0.59468743 0 0 1 0.73627,0.594689 z m 0.44816,-2.430465 a 0.48016744,0.85324723 0 0 1 -0.48017,0.853246 0.48016744,0.85324723 0 0 1 -0.48018,-0.853246 0.48016744,0.85324723 0 0 1 0.48018,-0.853247 0.48016744,0.85324723 0 0 1 0.48017,0.853247 z m -1.98471,-0.284413 a 0.51217857,0.93081506 0 0 1 -0.51219,0.930816 0.51217857,0.93081506 0 0 1 -0.51218,-0.930816 0.51217857,0.93081506 0 0 1 0.51218,-0.930815 0.51217857,0.93081506 0 0 1 0.51219,0.930815 z m -1.91839,10.38578 a 0.73625677,0.87910317 0 0 1 -0.73626,0.8791 0.73625677,0.87910317 0 0 1 -0.73627,-0.8791 0.73625677,0.87910317 0 0 1 0.73627,-0.8791 0.73625677,0.87910317 0 0 1 0.73626,0.8791 z m 4.03346,-4.369662 a 0.99234606,0.38783962 0 0 1 -0.99236,0.387841 0.99234606,0.38783962 0 0 1 -0.99236,-0.387841 0.99234606,0.38783962 0 0 1 0.99236,-0.387841 0.99234606,0.38783962 0 0 1 0.99236,0.387841 z m -2.88104,-0.103424 a 0.92832376,0.5429755 0 0 1 -0.92834,0.542979 0.92832376,0.5429755 0 0 1 -0.92833,-0.542979 0.92832376,0.5429755 0 0 1 0.92833,-0.542975 0.92832376,0.5429755 0 0 1 0.92834,0.542975 z m 1.85667,4.809206 a 0.73625677,0.59468743 0 0 1 -0.73627,0.59469 0.73625677,0.59468743 0 0 1 -0.73626,-0.59469 0.73625677,0.59468743 0 0 1 0.73626,-0.59468 0.73625677,0.59468743 0 0 1 0.73627,0.59468 z m 0.44816,-2.43046 a 0.48016744,0.85324723 0 0 1 -0.48017,0.85325 0.48016744,0.85324723 0 0 1 -0.48018,-0.85325 0.48016744,0.85324723 0 0 1 0.48018,-0.853242 0.48016744,0.85324723 0 0 1 0.48017,0.853242 z m -1.98472,-0.28441 a 0.51217857,0.93081506 0 0 1 -0.51218,0.93081 0.51217857,0.93081506 0 0 1 -0.51218,-0.93081 0.51217857,0.93081506 0 0 1 0.51218,-0.930813 0.51217857,0.93081506 0 0 1 0.51218,0.930813 z m -8.16025,1.46366 a 0.73625677,0.87910317 0 0 1 -0.73627,0.8791 0.73625677,0.87910317 0 0 1 -0.73626,-0.8791 0.73625677,0.87910317 0 0 1 0.73626,-0.8791 0.73625677,0.87910317 0 0 1 0.73627,0.8791 z m 4.03344,-4.369663 a 0.99234606,0.38783962 0 0 1 -0.99235,0.387841 0.99234606,0.38783962 0 0 1 -0.99235,-0.387841 0.99234606,0.38783962 0 0 1 0.99235,-0.387836 0.99234606,0.38783962 0 0 1 0.99235,0.387836 z m -2.88103,-0.103424 a 0.92832376,0.5429755 0 0 1 -0.92834,0.542979 0.92832376,0.5429755 0 0 1 -0.92833,-0.542979 0.92832376,0.5429755 0 0 1 0.92833,-0.542974 0.92832376,0.5429755 0 0 1 0.92834,0.542974 z m 1.85667,4.809217 a 0.73625677,0.59468743 0 0 1 -0.73627,0.59469 0.73625677,0.59468743 0 0 1 -0.73626,-0.59469 0.73625677,0.59468743 0 0 1 0.73626,-0.59469 0.73625677,0.59468743 0 0 1 0.73627,0.59469 z m 0.44816,-2.430466 a 0.48016744,0.85324723 0 0 1 -0.48017,0.853246 0.48016744,0.85324723 0 0 1 -0.48017,-0.853246 0.48016744,0.85324723 0 0 1 0.48017,-0.853246 0.48016744,0.85324723 0 0 1 0.48017,0.853246 z m -1.98471,-0.284413 a 0.51217857,0.93081506 0 0 1 -0.51218,0.930819 0.51217857,0.93081506 0 0 1 -0.51219,-0.930819 0.51217857,0.93081506 0 0 1 0.51219,-0.930815 0.51217857,0.93081506 0 0 1 0.51218,0.930815 z m -0.0281,-6.070344 a 0.73625677,0.87910317 0 0 1 -0.73626,0.879102 0.73625677,0.87910317 0 0 1 -0.73627,-0.879102 0.73625677,0.87910317 0 0 1 0.73627,-0.879105 0.73625677,0.87910317 0 0 1 0.73626,0.879105 z m 4.03345,-4.369661 a 0.99234606,0.38783962 0 0 1 -0.99237,0.387841 0.99234606,0.38783962 0 0 1 -0.99234,-0.387841 0.99234606,0.38783962 0 0 1 0.99234,-0.38784 0.99234606,0.38783962 0 0 1 0.99237,0.38784 z m -2.88103,-0.103424 a 0.92832376,0.5429755 0 0 1 -0.92834,0.542975 0.92832376,0.5429755 0 0 1 -0.92834,-0.542975 0.92832376,0.5429755 0 0 1 0.92834,-0.542974 0.92832376,0.5429755 0 0 1 0.92834,0.542974 z m 1.85665,4.809212 a 0.73625677,0.59468743 0 0 1 -0.73626,0.594689 0.73625677,0.59468743 0 0 1 -0.73626,-0.594689 0.73625677,0.59468743 0 0 1 0.73626,-0.594689 0.73625677,0.59468743 0 0 1 0.73626,0.594689 z m 0.44817,-2.430461 a 0.48016744,0.85324723 0 0 1 -0.48018,0.853247 0.48016744,0.85324723 0 0 1 -0.48017,-0.853247 0.48016744,0.85324723 0 0 1 0.48017,-0.853246 0.48016744,0.85324723 0 0 1 0.48018,0.853246 z m -1.98471,-0.284417 a 0.51217857,0.93081506 0 0 1 -0.51219,0.930816 0.51217857,0.93081506 0 0 1 -0.51218,-0.930816 0.51217857,0.93081506 0 0 1 0.51218,-0.930815 0.51217857,0.93081506 0 0 1 0.51219,0.930815 z m 3.6551,-6.144458 a 0.73625677,0.87910317 0 0 1 -0.73626,0.879105 0.73625677,0.87910317 0 0 1 -0.73627,-0.879105 0.73625677,0.87910317 0 0 1 0.73627,-0.879102 0.73625677,0.87910317 0 0 1 0.73626,0.879102 z m 4.03347,-4.369657 a 0.99234606,0.38783962 0 0 1 -0.99237,0.387836 0.99234606,0.38783962 0 0 1 -0.99235,-0.387836 0.99234606,0.38783962 0 0 1 0.99235,-0.387841 0.99234606,0.38783962 0 0 1 0.99237,0.387841 z m -2.88105,-0.103428 a 0.92832376,0.5429755 0 0 1 -0.92834,0.542979 0.92832376,0.5429755 0 0 1 -0.92833,-0.542979 0.92832376,0.5429755 0 0 1 0.92833,-0.542975 0.92832376,0.5429755 0 0 1 0.92834,0.542975 z m 1.85667,4.809211 a 0.73625677,0.59468743 0 0 1 -0.73627,0.594689 0.73625677,0.59468743 0 0 1 -0.73626,-0.594689 0.73625677,0.59468743 0 0 1 0.73626,-0.594684 0.73625677,0.59468743 0 0 1 0.73627,0.594684 z m 0.44817,-2.43046 a 0.48016744,0.85324723 0 0 1 -0.48018,0.853246 0.48016744,0.85324723 0 0 1 -0.48018,-0.853246 0.48016744,0.85324723 0 0 1 0.48018,-0.853247 0.48016744,0.85324723 0 0 1 0.48018,0.853247 z m -1.98472,-0.284413 a 0.51217857,0.93081506 0 0 1 -0.51219,0.930811 0.51217857,0.93081506 0 0 1 -0.51218,-0.930811 0.51217857,0.93081506 0 0 1 0.51218,-0.930816 0.51217857,0.93081506 0 0 1 0.51219,0.930816 z m -8.86572,2.008174 a 0.73625677,0.87910317 0 0 1 -0.73626,0.879101 0.73625677,0.87910317 0 0 1 -0.73627,-0.879101 0.73625677,0.87910317 0 0 1 0.73627,-0.879102 0.73625677,0.87910317 0 0 1 0.73626,0.879102 z m 4.03345,-4.369661 a 0.99234606,0.38783962 0 0 1 -0.99236,0.38784 0.99234606,0.38783962 0 0 1 -0.99235,-0.38784 0.99234606,0.38783962 0 0 1 0.99235,-0.387837 0.99234606,0.38783962 0 0 1 0.99236,0.387837 z m -2.88103,-0.103424 a 0.92832376,0.5429755 0 0 1 -0.92833,0.542979 0.92832376,0.5429755 0 0 1 -0.92834,-0.542979 0.92832376,0.5429755 0 0 1 0.92834,-0.542975 0.92832376,0.5429755 0 0 1 0.92833,0.542975 z m 1.85667,4.809211 a 0.73625677,0.59468743 0 0 1 -0.73627,0.594689 0.73625677,0.59468743 0 0 1 -0.73626,-0.594689 0.73625677,0.59468743 0 0 1 0.73626,-0.594684 0.73625677,0.59468743 0 0 1 0.73627,0.594684 z m 0.44817,-2.43046 a 0.48016744,0.85324723 0 0 1 -0.48018,0.853246 0.48016744,0.85324723 0 0 1 -0.48017,-0.853246 0.48016744,0.85324723 0 0 1 0.48017,-0.853247 0.48016744,0.85324723 0 0 1 0.48018,0.853247 z m -1.98472,-0.284417 a 0.51217857,0.93081506 0 0 1 -0.51219,0.930815 0.51217857,0.93081506 0 0 1 -0.51218,-0.930815 0.51217857,0.93081506 0 0 1 0.51218,-0.930816 0.51217857,0.93081506 0 0 1 0.51219,0.930816 z m -6.25186,-7.0027348 h 21.706071 c 0.54987,0 0.99255,0.454293 0.99255,1.018591 V 45.736956 c 0,0.5643 -0.44268,1.01859 -0.99255,1.01859 H 44.586023 c -0.54987,0 -0.99255,-0.45429 -0.99255,-1.01859 V 8.0456062 c 0,-0.564298 0.44268,-1.018591 0.99255,-1.018591 z m 3.77906,2.9660868 h 14.292411 c 0.56213,0 1.01468,0.464427 1.01468,1.041314 v 30.82437 c 0,0.57688 -0.45255,1.04131 -1.01468,1.04131 H 48.365083 c -0.56214,0 -1.01469,-0.46443 -1.01469,-1.04131 v -30.82437 c 0,-0.576887 0.45255,-1.041314 1.01469,-1.041314 z m -17.63766,31.879694 a 0.73625677,0.87910317 0 0 1 -0.73626,0.8791 0.73625677,0.87910317 0 0 1 -0.73627,-0.8791 0.73625677,0.87910317 0 0 1 0.73627,-0.87911 0.73625677,0.87910317 0 0 1 0.73626,0.87911 z m 4.03343,-4.36967 a 0.99234606,0.38783962 0 0 1 -0.99236,0.38784 0.99234606,0.38783962 0 0 1 -0.99235,-0.38784 0.99234606,0.38783962 0 0 1 0.99235,-0.38784 0.99234606,0.38783962 0 0 1 0.99236,0.38784 z m -2.88103,-0.10343 a 0.92832376,0.5429755 0 0 1 -0.92833,0.54298 0.92832376,0.5429755 0 0 1 -0.92832,-0.54298 0.92832376,0.5429755 0 0 1 0.92832,-0.54297 0.92832376,0.5429755 0 0 1 0.92833,0.54297 z m 1.85667,4.80922 a 0.73625677,0.59468743 0 0 1 -0.73627,0.59469 0.73625677,0.59468743 0 0 1 -0.73626,-0.59469 0.73625677,0.59468743 0 0 1 0.73626,-0.59469 0.73625677,0.59468743 0 0 1 0.73627,0.59469 z m 0.44815,-2.43046 a 0.48016744,0.85324723 0 0 1 -0.48017,0.85324 0.48016744,0.85324723 0 0 1 -0.48017,-0.85324 0.48016744,0.85324723 0 0 1 0.48017,-0.85325 0.48016744,0.85324723 0 0 1 0.48017,0.85325 z m -1.9847,-0.28442 a 0.51217857,0.93081506 0 0 1 -0.51218,0.93082 0.51217857,0.93081506 0 0 1 -0.51218,-0.93082 0.51217857,0.93081506 0 0 1 0.51218,-0.93081 0.51217857,0.93081506 0 0 1 0.51218,0.93081 z m -9.05192,2.37876 a 0.73625677,0.87910317 0 0 1 -0.73626,0.8791 0.73625677,0.87910317 0 0 1 -0.73626,-0.8791 0.73625677,0.87910317 0 0 1 0.73626,-0.87911 0.73625677,0.87910317 0 0 1 0.73626,0.87911 z m 4.03343,-4.36967 a 0.99234606,0.38783962 0 0 1 -0.99235,0.38784 0.99234606,0.38783962 0 0 1 -0.99235,-0.38784 0.99234606,0.38783962 0 0 1 0.99235,-0.38784 0.99234606,0.38783962 0 0 1 0.99235,0.38784 z m -2.88102,-0.10343 a 0.92832376,0.5429755 0 0 1 -0.92833,0.54298 0.92832376,0.5429755 0 0 1 -0.92833,-0.54298 0.92832376,0.5429755 0 0 1 0.92833,-0.54297 0.92832376,0.5429755 0 0 1 0.92833,0.54297 z m 1.85666,4.80922 a 0.73625677,0.59468743 0 0 1 -0.73626,0.59469 0.73625677,0.59468743 0 0 1 -0.73626,-0.59469 0.73625677,0.59468743 0 0 1 0.73626,-0.59469 0.73625677,0.59468743 0 0 1 0.73626,0.59469 z m 0.44816,-2.43046 a 0.48016744,0.85324723 0 0 1 -0.48017,0.85324 0.48016744,0.85324723 0 0 1 -0.48017,-0.85324 0.48016744,0.85324723 0 0 1 0.48017,-0.85325 0.48016744,0.85324723 0 0 1 0.48017,0.85325 z m -1.98471,-0.28442 a 0.51217857,0.93081506 0 0 1 -0.51218,0.93082 0.51217857,0.93081506 0 0 1 -0.51218,-0.93082 0.51217857,0.93081506 0 0 1 0.51218,-0.93081 0.51217857,0.93081506 0 0 1 0.51218,0.93081 z m 5.66103,-12.834599 a 0.73625677,0.87910317 0 0 1 -0.73626,0.879102 0.73625677,0.87910317 0 0 1 -0.73626,-0.879102 0.73625677,0.87910317 0 0 1 0.73626,-0.879106 0.73625677,0.87910317 0 0 1 0.73626,0.879106 z m 4.03343,-4.369661 a 0.99234606,0.38783962 0 0 1 -0.99235,0.387837 0.99234606,0.38783962 0 0 1 -0.99235,-0.387837 0.99234606,0.38783962 0 0 1 0.99235,-0.387836 0.99234606,0.38783962 0 0 1 0.99235,0.387836 z m -2.88102,-0.103424 a 0.92832376,0.5429755 0 0 1 -0.92833,0.542975 0.92832376,0.5429755 0 0 1 -0.92833,-0.542975 0.92832376,0.5429755 0 0 1 0.92833,-0.542974 0.92832376,0.5429755 0 0 1 0.92833,0.542974 z m 1.85666,4.809212 a 0.73625677,0.59468743 0 0 1 -0.73626,0.594689 0.73625677,0.59468743 0 0 1 -0.73627,-0.594689 0.73625677,0.59468743 0 0 1 0.73627,-0.594689 0.73625677,0.59468743 0 0 1 0.73626,0.594689 z m 0.44816,-2.430465 a 0.48016744,0.85324723 0 0 1 -0.48017,0.853246 0.48016744,0.85324723 0 0 1 -0.48017,-0.853246 0.48016744,0.85324723 0 0 1 0.48017,-0.853247 0.48016744,0.85324723 0 0 1 0.48017,0.853247 z m -1.98471,-0.284413 a 0.51217857,0.93081506 0 0 1 -0.51218,0.930816 0.51217857,0.93081506 0 0 1 -0.51218,-0.930816 0.51217857,0.93081506 0 0 1 0.51218,-0.930815 0.51217857,0.93081506 0 0 1 0.51218,0.930815 z m -1.91837,10.38578 a 0.73625677,0.87910317 0 0 1 -0.73626,0.8791 0.73625677,0.87910317 0 0 1 -0.73626,-0.8791 0.73625677,0.87910317 0 0 1 0.73626,-0.8791 0.73625677,0.87910317 0 0 1 0.73626,0.8791 z m 4.03344,-4.369662 a 0.99234606,0.38783962 0 0 1 -0.99236,0.387841 0.99234606,0.38783962 0 0 1 -0.99235,-0.387841 0.99234606,0.38783962 0 0 1 0.99235,-0.387841 0.99234606,0.38783962 0 0 1 0.99236,0.387841 z m -2.88103,-0.103424 a 0.92832376,0.5429755 0 0 1 -0.92833,0.542979 0.92832376,0.5429755 0 0 1 -0.92833,-0.542979 0.92832376,0.5429755 0 0 1 0.92833,-0.542975 0.92832376,0.5429755 0 0 1 0.92833,0.542975 z m 1.85666,4.809206 a 0.73625677,0.59468743 0 0 1 -0.73626,0.59469 0.73625677,0.59468743 0 0 1 -0.73626,-0.59469 0.73625677,0.59468743 0 0 1 0.73626,-0.59468 0.73625677,0.59468743 0 0 1 0.73626,0.59468 z m 0.44816,-2.43046 a 0.48016744,0.85324723 0 0 1 -0.48017,0.85325 0.48016744,0.85324723 0 0 1 -0.48017,-0.85325 0.48016744,0.85324723 0 0 1 0.48017,-0.853242 0.48016744,0.85324723 0 0 1 0.48017,0.853242 z m -1.9847,-0.28441 a 0.51217857,0.93081506 0 0 1 -0.51219,0.93081 0.51217857,0.93081506 0 0 1 -0.51218,-0.93081 0.51217857,0.93081506 0 0 1 0.51218,-0.930813 0.51217857,0.93081506 0 0 1 0.51219,0.930813 z m -8.16023,1.46366 a 0.73625677,0.87910317 0 0 1 -0.73626,0.8791 0.73625677,0.87910317 0 0 1 -0.73626,-0.8791 0.73625677,0.87910317 0 0 1 0.73626,-0.8791 0.73625677,0.87910317 0 0 1 0.73626,0.8791 z m 4.03343,-4.369663 a 0.99234606,0.38783962 0 0 1 -0.99235,0.387841 0.99234606,0.38783962 0 0 1 -0.99235,-0.387841 0.99234606,0.38783962 0 0 1 0.99235,-0.387836 0.99234606,0.38783962 0 0 1 0.99235,0.387836 z m -2.88102,-0.103424 a 0.92832376,0.5429755 0 0 1 -0.92833,0.542979 0.92832376,0.5429755 0 0 1 -0.92833,-0.542979 0.92832376,0.5429755 0 0 1 0.92833,-0.542974 0.92832376,0.5429755 0 0 1 0.92833,0.542974 z m 1.85666,4.809217 a 0.73625677,0.59468743 0 0 1 -0.73626,0.59469 0.73625677,0.59468743 0 0 1 -0.73626,-0.59469 0.73625677,0.59468743 0 0 1 0.73626,-0.59469 0.73625677,0.59468743 0 0 1 0.73626,0.59469 z m 0.44816,-2.430466 a 0.48016744,0.85324723 0 0 1 -0.48017,0.853246 0.48016744,0.85324723 0 0 1 -0.48017,-0.853246 0.48016744,0.85324723 0 0 1 0.48017,-0.853246 0.48016744,0.85324723 0 0 1 0.48017,0.853246 z m -1.98471,-0.284413 a 0.51217857,0.93081506 0 0 1 -0.51218,0.930819 0.51217857,0.93081506 0 0 1 -0.51218,-0.930819 0.51217857,0.93081506 0 0 1 0.51218,-0.930815 0.51217857,0.93081506 0 0 1 0.51218,0.930815 z m -0.0281,-6.070344 a 0.73625677,0.87910317 0 0 1 -0.73625,0.879102 0.73625677,0.87910317 0 0 1 -0.73626,-0.879102 0.73625677,0.87910317 0 0 1 0.73626,-0.879105 0.73625677,0.87910317 0 0 1 0.73625,0.879105 z m 4.03344,-4.369661 a 0.99234606,0.38783962 0 0 1 -0.99235,0.387841 0.99234606,0.38783962 0 0 1 -0.99235,-0.387841 0.99234606,0.38783962 0 0 1 0.99235,-0.38784 0.99234606,0.38783962 0 0 1 0.99235,0.38784 z m -2.88102,-0.103424 a 0.92832376,0.5429755 0 0 1 -0.92833,0.542975 0.92832376,0.5429755 0 0 1 -0.92833,-0.542975 0.92832376,0.5429755 0 0 1 0.92833,-0.542974 0.92832376,0.5429755 0 0 1 0.92833,0.542974 z m 1.85665,4.809212 a 0.73625677,0.59468743 0 0 1 -0.73626,0.594689 0.73625677,0.59468743 0 0 1 -0.73626,-0.594689 0.73625677,0.59468743 0 0 1 0.73626,-0.594689 0.73625677,0.59468743 0 0 1 0.73626,0.594689 z m 0.44816,-2.430461 a 0.48016744,0.85324723 0 0 1 -0.48016,0.853247 0.48016744,0.85324723 0 0 1 -0.48017,-0.853247 0.48016744,0.85324723 0 0 1 0.48017,-0.853246 0.48016744,0.85324723 0 0 1 0.48016,0.853246 z m -1.9847,-0.284417 a 0.51217857,0.93081506 0 0 1 -0.51218,0.930816 0.51217857,0.93081506 0 0 1 -0.51218,-0.930816 0.51217857,0.93081506 0 0 1 0.51218,-0.930815 0.51217857,0.93081506 0 0 1 0.51218,0.930815 z m 3.65509,-6.144458 a 0.73625677,0.87910317 0 0 1 -0.73625,0.879105 0.73625677,0.87910317 0 0 1 -0.73627,-0.879105 0.73625677,0.87910317 0 0 1 0.73627,-0.879102 0.73625677,0.87910317 0 0 1 0.73625,0.879102 z m 4.03344,-4.369657 a 0.99234606,0.38783962 0 0 1 -0.99235,0.387836 0.99234606,0.38783962 0 0 1 -0.99235,-0.387836 0.99234606,0.38783962 0 0 1 0.99235,-0.387841 0.99234606,0.38783962 0 0 1 0.99235,0.387841 z m -2.88103,-0.103428 a 0.92832376,0.5429755 0 0 1 -0.92833,0.542979 0.92832376,0.5429755 0 0 1 -0.92832,-0.542979 0.92832376,0.5429755 0 0 1 0.92832,-0.542975 0.92832376,0.5429755 0 0 1 0.92833,0.542975 z m 1.85666,4.809211 a 0.73625677,0.59468743 0 0 1 -0.73626,0.594689 0.73625677,0.59468743 0 0 1 -0.73626,-0.594689 0.73625677,0.59468743 0 0 1 0.73626,-0.594684 0.73625677,0.59468743 0 0 1 0.73626,0.594684 z m 0.44816,-2.43046 a 0.48016744,0.85324723 0 0 1 -0.48017,0.853246 0.48016744,0.85324723 0 0 1 -0.48017,-0.853246 0.48016744,0.85324723 0 0 1 0.48017,-0.853247 0.48016744,0.85324723 0 0 1 0.48017,0.853247 z m -1.9847,-0.284413 a 0.51217857,0.93081506 0 0 1 -0.51218,0.930811 0.51217857,0.93081506 0 0 1 -0.51218,-0.930811 0.51217857,0.93081506 0 0 1 0.51218,-0.930816 0.51217857,0.93081506 0 0 1 0.51218,0.930816 z m -8.86568,2.008174 a 0.73625677,0.87910317 0 0 1 -0.73626,0.879101 0.73625677,0.87910317 0 0 1 -0.73626,-0.879101 0.73625677,0.87910317 0 0 1 0.73626,-0.879102 0.73625677,0.87910317 0 0 1 0.73626,0.879102 z m 4.03343,-4.369661 a 0.99234606,0.38783962 0 0 1 -0.99235,0.38784 0.99234606,0.38783962 0 0 1 -0.99235,-0.38784 0.99234606,0.38783962 0 0 1 0.99235,-0.387837 0.99234606,0.38783962 0 0 1 0.99235,0.387837 z m -2.88102,-0.103424 a 0.92832376,0.5429755 0 0 1 -0.92833,0.542979 0.92832376,0.5429755 0 0 1 -0.92833,-0.542979 0.92832376,0.5429755 0 0 1 0.92833,-0.542975 0.92832376,0.5429755 0 0 1 0.92833,0.542975 z m 1.85666,4.809211 a 0.73625677,0.59468743 0 0 1 -0.73626,0.594689 0.73625677,0.59468743 0 0 1 -0.73626,-0.594689 0.73625677,0.59468743 0 0 1 0.73626,-0.594684 0.73625677,0.59468743 0 0 1 0.73626,0.594684 z m 0.44816,-2.43046 a 0.48016744,0.85324723 0 0 1 -0.48017,0.853246 0.48016744,0.85324723 0 0 1 -0.48017,-0.853246 0.48016744,0.85324723 0 0 1 0.48017,-0.853247 0.48016744,0.85324723 0 0 1 0.48017,0.853247 z m -1.9847,-0.284417 a 0.51217857,0.93081506 0 0 1 -0.51218,0.930815 0.51217857,0.93081506 0 0 1 -0.51218,-0.930815 0.51217857,0.93081506 0 0 1 0.51218,-0.930816 0.51217857,0.93081506 0 0 1 0.51218,0.930816 z m -6.25181,-7.0027348 h 21.70597 c 0.54987,0 0.99255,0.454293 0.99255,1.018591 V 45.736956 c 0,0.5643 -0.44268,1.01859 -0.99255,1.01859 h -21.70602 c -0.54987,0 -0.99254,-0.45429 -0.99254,-1.01859 V 8.0456062 c 0,-0.564298 0.44267,-1.018591 0.99254,-1.018591 z m 3.77903,2.9660868 h 14.29233 c 0.56214,0 1.01469,0.464427 1.01469,1.041314 v 30.82437 c 0,0.57688 -0.45255,1.04131 -1.01469,1.04131 h -14.29238 c -0.56214,0 -1.01469,-0.46443 -1.01469,-1.04131 v -30.82437 c 0,-0.576887 0.45255,-1.041314 1.01469,-1.041314 z m -7.77281,-10.41771477 h 54.979511 c 4.79236,0 8.65049,3.51473297 8.65049,7.88056697 V 94.381006 c 0,4.365845 -3.85813,7.880574 -8.65049,7.880574 H 13.553903 c -4.7923705,0 -8.6504905,-3.514729 -8.6504905,-7.880574 V 7.4559542 c 0,-4.365834 3.85812,-7.88056697 8.6504905,-7.88056697 z m 6.83734,7.29659297 h 43.062991 c 4.79237,0 8.65049,3.5147328 8.65049,7.8805668 v 74.467459 c 0,4.36584 -3.85812,7.88057 -8.65049,7.88057 H 20.391243 c -4.79236,0 -8.65048,-3.51473 -8.65048,-7.88057 V 14.752547 c 0,-4.365834 3.85812,-7.8805668 8.65048,-7.8805668 z" />
    <path
       id="path1015"
       style="fill:none;fill-rule:evenodd;stroke:#000000;stroke-width:0.406078;stroke-linecap:round;stroke-linejoin:round;paint-order:stroke markers fill"
       d="m 16.420753,60.385456 c 0.51029,-0.2119 1.1001,0.009 1.32243,0.49435 l 1.91405,4.18181 c 0.22234,0.48577 -0.01,1.04742 -0.51977,1.25932 -0.5103,0.2119 -1.10009,-0.009 -1.32243,-0.49434 l -1.91404,-4.18182 c -0.22235,-0.48576 0.009,-1.04742 0.51976,-1.25932 z m 6.60128,2.04387 a 4.6510895,4.47295 33.442754 0 1 -2.26633,5.91772 4.6510895,4.47295 33.442754 0 1 -6.09443,-2.4459 4.6510895,4.47295 33.442754 0 1 2.26633,-5.91772 4.6510895,4.47295 33.442754 0 1 6.09443,2.4459 z m 45.352541,1.02754 c 0.11748,0.60207 -0.0388,1.26951 -0.35038,1.4965 l -2.68236,1.95415 c -0.31159,0.227 -0.657,-0.075 -0.77448,-0.67703 -0.11747,-0.60207 0.0388,-1.26951 0.35038,-1.4965 l 2.68236,-1.95415 c 0.31158,-0.22699 0.657,0.075 0.77448,0.67703 z m -1.48308,7.49611 a 2.8476177,5.3064088 1.4151422 0 1 -3.64473,-2.9781 2.8476177,5.3064088 1.4151422 0 1 1.71996,-6.8864 2.8476177,5.3064088 1.4151422 0 1 3.64474,2.9781 2.8476177,5.3064088 1.4151422 0 1 -1.71997,6.8864 z m -24.179871,-5.31725 c 0.95291,0 1.72007,0.69887 1.72007,1.56697 v 4.70093 c 0,0.86811 -0.76716,1.56698 -1.72007,1.56698 -0.95292,0 -1.72007,-0.69887 -1.72007,-1.56698 v -4.70093 c 0,-0.8681 0.76715,-1.56697 1.72007,-1.56697 z m 5.54244,5.72083 a 4.8734985,6.0067425 0 0 1 -4.87352,6.00674 4.8734985,6.0067425 0 0 1 -4.87353,-6.00674 4.8734985,6.0067425 0 0 1 4.87353,-6.00674 4.8734985,6.0067425 0 0 1 4.87352,6.00674 z m 12.51388,0.11696 a 18.161358,19.926379 0 0 1 -18.16146,19.92638 18.161358,19.926379 0 0 1 -18.16146,-19.92638 18.161358,19.926379 0 0 1 18.16146,-19.92638 18.161358,19.926379 0 0 1 18.16146,19.92638 z m -3.51002,0.62288 a 14.162991,14.860135 0 0 1 -14.16306,14.86014 14.162991,14.860135 0 0 1 -14.16307,-14.86014 14.162991,14.860135 0 0 1 14.16307,-14.86013 14.162991,14.860135 0 0 1 14.16306,14.86013 z m 0.50801,-30.2236 a 0.73625677,0.87910317 0 0 1 -0.73626,0.8791 0.73625677,0.87910317 0 0 1 -0.73627,-0.8791 0.73625677,0.87910317 0 0 1 0.73627,-0.87911 0.73625677,0.87910317 0 0 1 0.73626,0.87911 z m 4.033461,-4.36967 a 0.99234606,0.38783962 0 0 1 -0.992361,0.38784 0.99234606,0.38783962 0 0 1 -0.99236,-0.38784 0.99234606,0.38783962 0 0 1 0.99236,-0.38784 0.99234606,0.38783962 0 0 1 0.992361,0.38784 z m -2.881041,-0.10343 a 0.92832376,0.5429755 0 0 1 -0.92834,0.54298 0.92832376,0.5429755 0 0 1 -0.92833,-0.54298 0.92832376,0.5429755 0 0 1 0.92833,-0.54297 0.92832376,0.5429755 0 0 1 0.92834,0.54297 z m 1.85667,4.80922 a 0.73625677,0.59468743 0 0 1 -0.73627,0.59469 0.73625677,0.59468743 0 0 1 -0.73627,-0.59469 0.73625677,0.59468743 0 0 1 0.73627,-0.59469 0.73625677,0.59468743 0 0 1 0.73627,0.59469 z m 0.44816,-2.43046 a 0.48016744,0.85324723 0 0 1 -0.48017,0.85324 0.48016744,0.85324723 0 0 1 -0.48018,-0.85324 0.48016744,0.85324723 0 0 1 0.48018,-0.85325 0.48016744,0.85324723 0 0 1 0.48017,0.85325 z m -1.98472,-0.28442 a 0.51217857,0.93081506 0 0 1 -0.51218,0.93082 0.51217857,0.93081506 0 0 1 -0.51219,-0.93082 0.51217857,0.93081506 0 0 1 0.51219,-0.93081 0.51217857,0.93081506 0 0 1 0.51218,0.93081 z m -9.05195,2.37876 a 0.73625677,0.87910317 0 0 1 -0.73627,0.8791 0.73625677,0.87910317 0 0 1 -0.73626,-0.8791 0.73625677,0.87910317 0 0 1 0.73626,-0.87911 0.73625677,0.87910317 0 0 1 0.73627,0.87911 z m 4.03344,-4.36967 a 0.99234606,0.38783962 0 0 1 -0.99235,0.38784 0.99234606,0.38783962 0 0 1 -0.99235,-0.38784 0.99234606,0.38783962 0 0 1 0.99235,-0.38784 0.99234606,0.38783962 0 0 1 0.99235,0.38784 z m -2.88103,-0.10343 a 0.92832376,0.5429755 0 0 1 -0.92834,0.54298 0.92832376,0.5429755 0 0 1 -0.92833,-0.54298 0.92832376,0.5429755 0 0 1 0.92833,-0.54297 0.92832376,0.5429755 0 0 1 0.92834,0.54297 z m 1.85667,4.80922 a 0.73625677,0.59468743 0 0 1 -0.73627,0.59469 0.73625677,0.59468743 0 0 1 -0.73626,-0.59469 0.73625677,0.59468743 0 0 1 0.73626,-0.59469 0.73625677,0.59468743 0 0 1 0.73627,0.59469 z m 0.44816,-2.43046 a 0.48016744,0.85324723 0 0 1 -0.48017,0.85324 0.48016744,0.85324723 0 0 1 -0.48017,-0.85324 0.48016744,0.85324723 0 0 1 0.48017,-0.85325 0.48016744,0.85324723 0 0 1 0.48017,0.85325 z m -1.98471,-0.28442 a 0.51217857,0.93081506 0 0 1 -0.51218,0.93082 0.51217857,0.93081506 0 0 1 -0.51219,-0.93082 0.51217857,0.93081506 0 0 1 0.51219,-0.93081 0.51217857,0.93081506 0 0 1 0.51218,0.93081 z m 5.66104,-12.834599 a 0.73625677,0.87910317 0 0 1 -0.73626,0.879102 0.73625677,0.87910317 0 0 1 -0.73627,-0.879102 0.73625677,0.87910317 0 0 1 0.73627,-0.879106 0.73625677,0.87910317 0 0 1 0.73626,0.879106 z m 4.03346,-4.369661 a 0.99234606,0.38783962 0 0 1 -0.99236,0.387837 0.99234606,0.38783962 0 0 1 -0.99236,-0.387837 0.99234606,0.38783962 0 0 1 0.99236,-0.387836 0.99234606,0.38783962 0 0 1 0.99236,0.387836 z m -2.88105,-0.103424 a 0.92832376,0.5429755 0 0 1 -0.92832,0.542975 0.92832376,0.5429755 0 0 1 -0.92834,-0.542975 0.92832376,0.5429755 0 0 1 0.92834,-0.542974 0.92832376,0.5429755 0 0 1 0.92832,0.542974 z m 1.85668,4.809212 a 0.73625677,0.59468743 0 0 1 -0.73627,0.594689 0.73625677,0.59468743 0 0 1 -0.73626,-0.594689 0.73625677,0.59468743 0 0 1 0.73626,-0.594689 0.73625677,0.59468743 0 0 1 0.73627,0.594689 z m 0.44816,-2.430465 a 0.48016744,0.85324723 0 0 1 -0.48017,0.853246 0.48016744,0.85324723 0 0 1 -0.48018,-0.853246 0.48016744,0.85324723 0 0 1 0.48018,-0.853247 0.48016744,0.85324723 0 0 1 0.48017,0.853247 z m -1.98471,-0.284413 a 0.51217857,0.93081506 0 0 1 -0.51219,0.930816 0.51217857,0.93081506 0 0 1 -0.51218,-0.930816 0.51217857,0.93081506 0 0 1 0.51218,-0.930815 0.51217857,0.93081506 0 0 1 0.51219,0.930815 z m -1.91839,10.38578 a 0.73625677,0.87910317 0 0 1 -0.73626,0.8791 0.73625677,0.87910317 0 0 1 -0.73627,-0.8791 0.73625677,0.87910317 0 0 1 0.73627,-0.8791 0.73625677,0.87910317 0 0 1 0.73626,0.8791 z m 4.03346,-4.369662 a 0.99234606,0.38783962 0 0 1 -0.99236,0.387841 0.99234606,0.38783962 0 0 1 -0.99236,-0.387841 0.99234606,0.38783962 0 0 1 0.99236,-0.387841 0.99234606,0.38783962 0 0 1 0.99236,0.387841 z m -2.88104,-0.103424 a 0.92832376,0.5429755 0 0 1 -0.92834,0.542979 0.92832376,0.5429755 0 0 1 -0.92833,-0.542979 0.92832376,0.5429755 0 0 1 0.92833,-0.542975 0.92832376,0.5429755 0 0 1 0.92834,0.542975 z m 1.85667,4.809206 a 0.73625677,0.59468743 0 0 1 -0.73627,0.59469 0.73625677,0.59468743 0 0 1 -0.73626,-0.59469 0.73625677,0.59468743 0 0 1 0.73626,-0.59468 0.73625677,0.59468743 0 0 1 0.73627,0.59468 z m 0.44816,-2.43046 a 0.48016744,0.85324723 0 0 1 -0.48017,0.85325 0.48016744,0.85324723 0 0 1 -0.48018,-0.85325 0.48016744,0.85324723 0 0 1 0.48018,-0.853242 0.48016744,0.85324723 0 0 1 0.48017,0.853242 z m -1.98472,-0.28441 a 0.51217857,0.93081506 0 0 1 -0.51218,0.93081 0.51217857,0.93081506 0 0 1 -0.51218,-0.93081 0.51217857,0.93081506 0 0 1 0.51218,-0.930813 0.51217857,0.93081506 0 0 1 0.51218,0.930813 z m -8.16025,1.46366 a 0.73625677,0.87910317 0 0 1 -0.73627,0.8791 0.73625677,0.87910317 0 0 1 -0.73626,-0.8791 0.73625677,0.87910317 0 0 1 0.73626,-0.8791 0.73625677,0.87910317 0 0 1 0.73627,0.8791 z m 4.03344,-4.369663 a 0.99234606,0.38783962 0 0 1 -0.99235,0.387841 0.99234606,0.38783962 0 0 1 -0.99235,-0.387841 0.99234606,0.38783962 0 0 1 0.99235,-0.387836 0.99234606,0.38783962 0 0 1 0.99235,0.387836 z m -2.88103,-0.103424 a 0.92832376,0.5429755 0 0 1 -0.92834,0.542979 0.92832376,0.5429755 0 0 1 -0.92833,-0.542979 0.92832376,0.5429755 0 0 1 0.92833,-0.542974 0.92832376,0.5429755 0 0 1 0.92834,0.542974 z m 1.85667,4.809217 a 0.73625677,0.59468743 0 0 1 -0.73627,0.59469 0.73625677,0.59468743 0 0 1 -0.73626,-0.59469 0.73625677,0.59468743 0 0 1 0.73626,-0.59469 0.73625677,0.59468743 0 0 1 0.73627,0.59469 z m 0.44816,-2.430466 a 0.48016744,0.85324723 0 0 1 -0.48017,0.853246 0.48016744,0.85324723 0 0 1 -0.48017,-0.853246 0.48016744,0.85324723 0 0 1 0.48017,-0.853246 0.48016744,0.85324723 0 0 1 0.48017,0.853246 z m -1.98471,-0.284413 a 0.51217857,0.93081506 0 0 1 -0.51218,0.930819 0.51217857,0.93081506 0 0 1 -0.51219,-0.930819 0.51217857,0.93081506 0 0 1 0.51219,-0.930815 0.51217857,0.93081506 0 0 1 0.51218,0.930815 z m -0.0281,-6.070344 a 0.73625677,0.87910317 0 0 1 -0.73626,0.879102 0.73625677,0.87910317 0 0 1 -0.73627,-0.879102 0.73625677,0.87910317 0 0 1 0.73627,-0.879105 0.73625677,0.87910317 0 0 1 0.73626,0.879105 z m 4.03345,-4.369661 a 0.99234606,0.38783962 0 0 1 -0.99237,0.387841 0.99234606,0.38783962 0 0 1 -0.99234,-0.387841 0.99234606,0.38783962 0 0 1 0.99234,-0.38784 0.99234606,0.38783962 0 0 1 0.99237,0.38784 z m -2.88103,-0.103424 a 0.92832376,0.5429755 0 0 1 -0.92834,0.542975 0.92832376,0.5429755 0 0 1 -0.92834,-0.542975 0.92832376,0.5429755 0 0 1 0.92834,-0.542974 0.92832376,0.5429755 0 0 1 0.92834,0.542974 z m 1.85665,4.809212 a 0.73625677,0.59468743 0 0 1 -0.73626,0.594689 0.73625677,0.59468743 0 0 1 -0.73626,-0.594689 0.73625677,0.59468743 0 0 1 0.73626,-0.594689 0.73625677,0.59468743 0 0 1 0.73626,0.594689 z m 0.44817,-2.430461 a 0.48016744,0.85324723 0 0 1 -0.48018,0.853247 0.48016744,0.85324723 0 0 1 -0.48017,-0.853247 0.48016744,0.85324723 0 0 1 0.48017,-0.853246 0.48016744,0.85324723 0 0 1 0.48018,0.853246 z m -1.98471,-0.284417 a 0.51217857,0.93081506 0 0 1 -0.51219,0.930816 0.51217857,0.93081506 0 0 1 -0.51218,-0.930816 0.51217857,0.93081506 0 0 1 0.51218,-0.930815 0.51217857,0.93081506 0 0 1 0.51219,0.930815 z m 3.6551,-6.144458 a 0.73625677,0.87910317 0 0 1 -0.73626,0.879105 0.73625677,0.87910317 0 0 1 -0.73627,-0.879105 0.73625677,0.87910317 0 0 1 0.73627,-0.879102 0.73625677,0.87910317 0 0 1 0.73626,0.879102 z m 4.03347,-4.369657 a 0.99234606,0.38783962 0 0 1 -0.99237,0.387836 0.99234606,0.38783962 0 0 1 -0.99235,-0.387836 0.99234606,0.38783962 0 0 1 0.99235,-0.387841 0.99234606,0.38783962 0 0 1 0.99237,0.387841 z m -2.88105,-0.103428 a 0.92832376,0.5429755 0 0 1 -0.92834,0.542979 0.92832376,0.5429755 0 0 1 -0.92833,-0.542979 0.92832376,0.5429755 0 0 1 0.92833,-0.542975 0.92832376,0.5429755 0 0 1 0.92834,0.542975 z m 1.85667,4.809211 a 0.73625677,0.59468743 0 0 1 -0.73627,0.594689 0.73625677,0.59468743 0 0 1 -0.73626,-0.594689 0.73625677,0.59468743 0 0 1 0.73626,-0.594684 0.73625677,0.59468743 0 0 1 0.73627,0.594684 z m 0.44817,-2.43046 a 0.48016744,0.85324723 0 0 1 -0.48018,0.853246 0.48016744,0.85324723 0 0 1 -0.48018,-0.853246 0.48016744,0.85324723 0 0 1 0.48018,-0.853247 0.48016744,0.85324723 0 0 1 0.48018,0.853247 z m -1.98472,-0.284413 a 0.51217857,0.93081506 0 0 1 -0.51219,0.930811 0.51217857,0.93081506 0 0 1 -0.51218,-0.930811 0.51217857,0.93081506 0 0 1 0.51218,-0.930816 0.51217857,0.93081506 0 0 1 0.51219,0.930816 z m -8.86572,2.008174 a 0.73625677,0.87910317 0 0 1 -0.73626,0.879101 0.73625677,0.87910317 0 0 1 -0.73627,-0.879101 0.73625677,0.87910317 0 0 1 0.73627,-0.879102 0.73625677,0.87910317 0 0 1 0.73626,0.879102 z m 4.03345,-4.369661 a 0.99234606,0.38783962 0 0 1 -0.99236,0.38784 0.99234606,0.38783962 0 0 1 -0.99235,-0.38784 0.99234606,0.38783962 0 0 1 0.99235,-0.387837 0.99234606,0.38783962 0 0 1 0.99236,0.387837 z m -2.88103,-0.103424 a 0.92832376,0.5429755 0 0 1 -0.92833,0.542979 0.92832376,0.5429755 0 0 1 -0.92834,-0.542979 0.92832376,0.5429755 0 0 1 0.92834,-0.542975 0.92832376,0.5429755 0 0 1 0.92833,0.542975 z m 1.85667,4.809211 a 0.73625677,0.59468743 0 0 1 -0.73627,0.594689 0.73625677,0.59468743 0 0 1 -0.73626,-0.594689 0.73625677,0.59468743 0 0 1 0.73626,-0.594684 0.73625677,0.59468743 0 0 1 0.73627,0.594684 z m 0.44817,-2.43046 a 0.48016744,0.85324723 0 0 1 -0.48018,0.853246 0.48016744,0.85324723 0 0 1 -0.48017,-0.853246 0.48016744,0.85324723 0 0 1 0.48017,-0.853247 0.48016744,0.85324723 0 0 1 0.48018,0.853247 z m -1.98472,-0.284417 a 0.51217857,0.93081506 0 0 1 -0.51219,0.930815 0.51217857,0.93081506 0 0 1 -0.51218,-0.930815 0.51217857,0.93081506 0 0 1 0.51218,-0.930816 0.51217857,0.93081506 0 0 1 0.51219,0.930816 z m -6.25186,-7.0027348 h 21.706071 c 0.54987,0 0.99255,0.454293 0.99255,1.018591 V 45.736956 c 0,0.5643 -0.44268,1.01859 -0.99255,1.01859 H 44.586023 c -0.54987,0 -0.99255,-0.45429 -0.99255,-1.01859 V 8.0456062 c 0,-0.564298 0.44268,-1.018591 0.99255,-1.018591 z m 3.77906,2.9660868 h 14.292411 c 0.56213,0 1.01468,0.464427 1.01468,1.041314 v 30.82437 c 0,0.57688 -0.45255,1.04131 -1.01468,1.04131 H 48.365083 c -0.56214,0 -1.01469,-0.46443 -1.01469,-1.04131 v -30.82437 c 0,-0.576887 0.45255,-1.041314 1.01469,-1.041314 z m -17.63766,31.879694 a 0.73625677,0.87910317 0 0 1 -0.73626,0.8791 0.73625677,0.87910317 0 0 1 -0.73627,-0.8791 0.73625677,0.87910317 0 0 1 0.73627,-0.87911 0.73625677,0.87910317 0 0 1 0.73626,0.87911 z m 4.03343,-4.36967 a 0.99234606,0.38783962 0 0 1 -0.99236,0.38784 0.99234606,0.38783962 0 0 1 -0.99235,-0.38784 0.99234606,0.38783962 0 0 1 0.99235,-0.38784 0.99234606,0.38783962 0 0 1 0.99236,0.38784 z m -2.88103,-0.10343 a 0.92832376,0.5429755 0 0 1 -0.92833,0.54298 0.92832376,0.5429755 0 0 1 -0.92832,-0.54298 0.92832376,0.5429755 0 0 1 0.92832,-0.54297 0.92832376,0.5429755 0 0 1 0.92833,0.54297 z m 1.85667,4.80922 a 0.73625677,0.59468743 0 0 1 -0.73627,0.59469 0.73625677,0.59468743 0 0 1 -0.73626,-0.59469 0.73625677,0.59468743 0 0 1 0.73626,-0.59469 0.73625677,0.59468743 0 0 1 0.73627,0.59469 z m 0.44815,-2.43046 a 0.48016744,0.85324723 0 0 1 -0.48017,0.85324 0.48016744,0.85324723 0 0 1 -0.48017,-0.85324 0.48016744,0.85324723 0 0 1 0.48017,-0.85325 0.48016744,0.85324723 0 0 1 0.48017,0.85325 z m -1.9847,-0.28442 a 0.51217857,0.93081506 0 0 1 -0.51218,0.93082 0.51217857,0.93081506 0 0 1 -0.51218,-0.93082 0.51217857,0.93081506 0 0 1 0.51218,-0.93081 0.51217857,0.93081506 0 0 1 0.51218,0.93081 z m -9.05192,2.37876 a 0.73625677,0.87910317 0 0 1 -0.73626,0.8791 0.73625677,0.87910317 0 0 1 -0.73626,-0.8791 0.73625677,0.87910317 0 0 1 0.73626,-0.87911 0.73625677,0.87910317 0 0 1 0.73626,0.87911 z m 4.03343,-4.36967 a 0.99234606,0.38783962 0 0 1 -0.99235,0.38784 0.99234606,0.38783962 0 0 1 -0.99235,-0.38784 0.99234606,0.38783962 0 0 1 0.99235,-0.38784 0.99234606,0.38783962 0 0 1 0.99235,0.38784 z m -2.88102,-0.10343 a 0.92832376,0.5429755 0 0 1 -0.92833,0.54298 0.92832376,0.5429755 0 0 1 -0.92833,-0.54298 0.92832376,0.5429755 0 0 1 0.92833,-0.54297 0.92832376,0.5429755 0 0 1 0.92833,0.54297 z m 1.85666,4.80922 a 0.73625677,0.59468743 0 0 1 -0.73626,0.59469 0.73625677,0.59468743 0 0 1 -0.73626,-0.59469 0.73625677,0.59468743 0 0 1 0.73626,-0.59469 0.73625677,0.59468743 0 0 1 0.73626,0.59469 z m 0.44816,-2.43046 a 0.48016744,0.85324723 0 0 1 -0.48017,0.85324 0.48016744,0.85324723 0 0 1 -0.48017,-0.85324 0.48016744,0.85324723 0 0 1 0.48017,-0.85325 0.48016744,0.85324723 0 0 1 0.48017,0.85325 z m -1.98471,-0.28442 a 0.51217857,0.93081506 0 0 1 -0.51218,0.93082 0.51217857,0.93081506 0 0 1 -0.51218,-0.93082 0.51217857,0.93081506 0 0 1 0.51218,-0.93081 0.51217857,0.93081506 0 0 1 0.51218,0.93081 z m 5.66103,-12.834599 a 0.73625677,0.87910317 0 0 1 -0.73626,0.879102 0.73625677,0.87910317 0 0 1 -0.73626,-0.879102 0.73625677,0.87910317 0 0 1 0.73626,-0.879106 0.73625677,0.87910317 0 0 1 0.73626,0.879106 z m 4.03343,-4.369661 a 0.99234606,0.38783962 0 0 1 -0.99235,0.387837 0.99234606,0.38783962 0 0 1 -0.99235,-0.387837 0.99234606,0.38783962 0 0 1 0.99235,-0.387836 0.99234606,0.38783962 0 0 1 0.99235,0.387836 z m -2.88102,-0.103424 a 0.92832376,0.5429755 0 0 1 -0.92833,0.542975 0.92832376,0.5429755 0 0 1 -0.92833,-0.542975 0.92832376,0.5429755 0 0 1 0.92833,-0.542974 0.92832376,0.5429755 0 0 1 0.92833,0.542974 z m 1.85666,4.809212 a 0.73625677,0.59468743 0 0 1 -0.73626,0.594689 0.73625677,0.59468743 0 0 1 -0.73627,-0.594689 0.73625677,0.59468743 0 0 1 0.73627,-0.594689 0.73625677,0.59468743 0 0 1 0.73626,0.594689 z m 0.44816,-2.430465 a 0.48016744,0.85324723 0 0 1 -0.48017,0.853246 0.48016744,0.85324723 0 0 1 -0.48017,-0.853246 0.48016744,0.85324723 0 0 1 0.48017,-0.853247 0.48016744,0.85324723 0 0 1 0.48017,0.853247 z m -1.98471,-0.284413 a 0.51217857,0.93081506 0 0 1 -0.51218,0.930816 0.51217857,0.93081506 0 0 1 -0.51218,-0.930816 0.51217857,0.93081506 0 0 1 0.51218,-0.930815 0.51217857,0.93081506 0 0 1 0.51218,0.930815 z m -1.91837,10.38578 a 0.73625677,0.87910317 0 0 1 -0.73626,0.8791 0.73625677,0.87910317 0 0 1 -0.73626,-0.8791 0.73625677,0.87910317 0 0 1 0.73626,-0.8791 0.73625677,0.87910317 0 0 1 0.73626,0.8791 z m 4.03344,-4.369662 a 0.99234606,0.38783962 0 0 1 -0.99236,0.387841 0.99234606,0.38783962 0 0 1 -0.99235,-0.387841 0.99234606,0.38783962 0 0 1 0.99235,-0.387841 0.99234606,0.38783962 0 0 1 0.99236,0.387841 z m -2.88103,-0.103424 a 0.92832376,0.5429755 0 0 1 -0.92833,0.542979 0.92832376,0.5429755 0 0 1 -0.92833,-0.542979 0.92832376,0.5429755 0 0 1 0.92833,-0.542975 0.92832376,0.5429755 0 0 1 0.92833,0.542975 z m 1.85666,4.809206 a 0.73625677,0.59468743 0 0 1 -0.73626,0.59469 0.73625677,0.59468743 0 0 1 -0.73626,-0.59469 0.73625677,0.59468743 0 0 1 0.73626,-0.59468 0.73625677,0.59468743 0 0 1 0.73626,0.59468 z m 0.44816,-2.43046 a 0.48016744,0.85324723 0 0 1 -0.48017,0.85325 0.48016744,0.85324723 0 0 1 -0.48017,-0.85325 0.48016744,0.85324723 0 0 1 0.48017,-0.853242 0.48016744,0.85324723 0 0 1 0.48017,0.853242 z m -1.9847,-0.28441 a 0.51217857,0.93081506 0 0 1 -0.51219,0.93081 0.51217857,0.93081506 0 0 1 -0.51218,-0.93081 0.51217857,0.93081506 0 0 1 0.51218,-0.930813 0.51217857,0.93081506 0 0 1 0.51219,0.930813 z m -8.16023,1.46366 a 0.73625677,0.87910317 0 0 1 -0.73626,0.8791 0.73625677,0.87910317 0 0 1 -0.73626,-0.8791 0.73625677,0.87910317 0 0 1 0.73626,-0.8791 0.73625677,0.87910317 0 0 1 0.73626,0.8791 z m 4.03343,-4.369663 a 0.99234606,0.38783962 0 0 1 -0.99235,0.387841 0.99234606,0.38783962 0 0 1 -0.99235,-0.387841 0.99234606,0.38783962 0 0 1 0.99235,-0.387836 0.99234606,0.38783962 0 0 1 0.99235,0.387836 z m -2.88102,-0.103424 a 0.92832376,0.5429755 0 0 1 -0.92833,0.542979 0.92832376,0.5429755 0 0 1 -0.92833,-0.542979 0.92832376,0.5429755 0 0 1 0.92833,-0.542974 0.92832376,0.5429755 0 0 1 0.92833,0.542974 z m 1.85666,4.809217 a 0.73625677,0.59468743 0 0 1 -0.73626,0.59469 0.73625677,0.59468743 0 0 1 -0.73626,-0.59469 0.73625677,0.59468743 0 0 1 0.73626,-0.59469 0.73625677,0.59468743 0 0 1 0.73626,0.59469 z m 0.44816,-2.430466 a 0.48016744,0.85324723 0 0 1 -0.48017,0.853246 0.48016744,0.85324723 0 0 1 -0.48017,-0.853246 0.48016744,0.85324723 0 0 1 0.48017,-0.853246 0.48016744,0.85324723 0 0 1 0.48017,0.853246 z m -1.98471,-0.284413 a 0.51217857,0.93081506 0 0 1 -0.51218,0.930819 0.51217857,0.93081506 0 0 1 -0.51218,-0.930819 0.51217857,0.93081506 0 0 1 0.51218,-0.930815 0.51217857,0.93081506 0 0 1 0.51218,0.930815 z m -0.0281,-6.070344 a 0.73625677,0.87910317 0 0 1 -0.73625,0.879102 0.73625677,0.87910317 0 0 1 -0.73626,-0.879102 0.73625677,0.87910317 0 0 1 0.73626,-0.879105 0.73625677,0.87910317 0 0 1 0.73625,0.879105 z m 4.03344,-4.369661 a 0.99234606,0.38783962 0 0 1 -0.99235,0.387841 0.99234606,0.38783962 0 0 1 -0.99235,-0.387841 0.99234606,0.38783962 0 0 1 0.99235,-0.38784 0.99234606,0.38783962 0 0 1 0.99235,0.38784 z m -2.88102,-0.103424 a 0.92832376,0.5429755 0 0 1 -0.92833,0.542975 0.92832376,0.5429755 0 0 1 -0.92833,-0.542975 0.92832376,0.5429755 0 0 1 0.92833,-0.542974 0.92832376,0.5429755 0 0 1 0.92833,0.542974 z m 1.85665,4.809212 a 0.73625677,0.59468743 0 0 1 -0.73626,0.594689 0.73625677,0.59468743 0 0 1 -0.73626,-0.594689 0.73625677,0.59468743 0 0 1 0.73626,-0.594689 0.73625677,0.59468743 0 0 1 0.73626,0.594689 z m 0.44816,-2.430461 a 0.48016744,0.85324723 0 0 1 -0.48016,0.853247 0.48016744,0.85324723 0 0 1 -0.48017,-0.853247 0.48016744,0.85324723 0 0 1 0.48017,-0.853246 0.48016744,0.85324723 0 0 1 0.48016,0.853246 z m -1.9847,-0.284417 a 0.51217857,0.93081506 0 0 1 -0.51218,0.930816 0.51217857,0.93081506 0 0 1 -0.51218,-0.930816 0.51217857,0.93081506 0 0 1 0.51218,-0.930815 0.51217857,0.93081506 0 0 1 0.51218,0.930815 z m 3.65509,-6.144458 a 0.73625677,0.87910317 0 0 1 -0.73625,0.879105 0.73625677,0.87910317 0 0 1 -0.73627,-0.879105 0.73625677,0.87910317 0 0 1 0.73627,-0.879102 0.73625677,0.87910317 0 0 1 0.73625,0.879102 z m 4.03344,-4.369657 a 0.99234606,0.38783962 0 0 1 -0.99235,0.387836 0.99234606,0.38783962 0 0 1 -0.99235,-0.387836 0.99234606,0.38783962 0 0 1 0.99235,-0.387841 0.99234606,0.38783962 0 0 1 0.99235,0.387841 z m -2.88103,-0.103428 a 0.92832376,0.5429755 0 0 1 -0.92833,0.542979 0.92832376,0.5429755 0 0 1 -0.92832,-0.542979 0.92832376,0.5429755 0 0 1 0.92832,-0.542975 0.92832376,0.5429755 0 0 1 0.92833,0.542975 z m 1.85666,4.809211 a 0.73625677,0.59468743 0 0 1 -0.73626,0.594689 0.73625677,0.59468743 0 0 1 -0.73626,-0.594689 0.73625677,0.59468743 0 0 1 0.73626,-0.594684 0.73625677,0.59468743 0 0 1 0.73626,0.594684 z m 0.44816,-2.43046 a 0.48016744,0.85324723 0 0 1 -0.48017,0.853246 0.48016744,0.85324723 0 0 1 -0.48017,-0.853246 0.48016744,0.85324723 0 0 1 0.48017,-0.853247 0.48016744,0.85324723 0 0 1 0.48017,0.853247 z m -1.9847,-0.284413 a 0.51217857,0.93081506 0 0 1 -0.51218,0.930811 0.51217857,0.93081506 0 0 1 -0.51218,-0.930811 0.51217857,0.93081506 0 0 1 0.51218,-0.930816 0.51217857,0.93081506 0 0 1 0.51218,0.930816 z m -8.86568,2.008174 a 0.73625677,0.87910317 0 0 1 -0.73626,0.879101 0.73625677,0.87910317 0 0 1 -0.73626,-0.879101 0.73625677,0.87910317 0 0 1 0.73626,-0.879102 0.73625677,0.87910317 0 0 1 0.73626,0.879102 z m 4.03343,-4.369661 a 0.99234606,0.38783962 0 0 1 -0.99235,0.38784 0.99234606,0.38783962 0 0 1 -0.99235,-0.38784 0.99234606,0.38783962 0 0 1 0.99235,-0.387837 0.99234606,0.38783962 0 0 1 0.99235,0.387837 z m -2.88102,-0.103424 a 0.92832376,0.5429755 0 0 1 -0.92833,0.542979 0.92832376,0.5429755 0 0 1 -0.92833,-0.542979 0.92832376,0.5429755 0 0 1 0.92833,-0.542975 0.92832376,0.5429755 0 0 1 0.92833,0.542975 z m 1.85666,4.809211 a 0.73625677,0.59468743 0 0 1 -0.73626,0.594689 0.73625677,0.59468743 0 0 1 -0.73626,-0.594689 0.73625677,0.59468743 0 0 1 0.73626,-0.594684 0.73625677,0.59468743 0 0 1 0.73626,0.594684 z m 0.44816,-2.43046 a 0.48016744,0.85324723 0 0 1 -0.48017,0.853246 0.48016744,0.85324723 0 0 1 -0.48017,-0.853246 0.48016744,0.85324723 0 0 1 0.48017,-0.853247 0.48016744,0.85324723 0 0 1 0.48017,0.853247 z m -1.9847,-0.284417 a 0.51217857,0.93081506 0 0 1 -0.51218,0.930815 0.51217857,0.93081506 0 0 1 -0.51218,-0.930815 0.51217857,0.93081506 0 0 1 0.51218,-0.930816 0.51217857,0.93081506 0 0 1 0.51218,0.930816 z m -6.25181,-7.0027348 h 21.70597 c 0.54987,0 0.99255,0.454293 0.99255,1.018591 V 45.736956 c 0,0.5643 -0.44268,1.01859 -0.99255,1.01859 h -21.70602 c -0.54987,0 -0.99254,-0.45429 -0.99254,-1.01859 V 8.0456062 c 0,-0.564298 0.44267,-1.018591 0.99254,-1.018591 z m 3.77903,2.9660868 h 14.29233 c 0.56214,0 1.01469,0.464427 1.01469,1.041314 v 30.82437 c 0,0.57688 -0.45255,1.04131 -1.01469,1.04131 h -14.29238 c -0.56214,0 -1.01469,-0.46443 -1.01469,-1.04131 v -30.82437 c 0,-0.576887 0.45255,-1.041314 1.01469,-1.041314 z m -7.77281,-10.41771477 h 54.979511 c 4.79236,0 8.65049,3.51473297 8.65049,7.88056697 V 94.381006 c 0,4.365845 -3.85813,7.880574 -8.65049,7.880574 H 13.553903 c -4.7923705,0 -8.6504905,-3.514729 -8.6504905,-7.880574 V 7.4559542 c 0,-4.365834 3.85812,-7.88056697 8.6504905,-7.88056697 z m 6.83734,7.29659297 h 43.062991 c 4.79237,0 8.65049,3.5147328 8.65049,7.8805668 v 74.467459 c 0,4.36584 -3.85812,7.88057 -8.65049,7.88057 H 20.391243 c -4.79236,0 -8.65048,-3.51473 -8.65048,-7.88057 V 14.752547 c 0,-4.365834 3.85812,-7.8805668 8.65048,-7.8805668 z" />
  </g>
  <g
     inkscape:groupmode="layer"
     id="layer2"
     inkscape:label="Layer 2">
    <path
       id="path833"
       style="fill:#000000;fill-rule:evenodd;stroke:#000000;stroke-width:0.406078;stroke-linecap:round;stroke-linejoin:round;paint-order:stroke markers fill"
       d="m 120.11587,62.808321 c 0.51029,-0.2119 1.1001,0.0086 1.32243,0.494344 l 1.91405,4.181812 c 0.22234,0.485765 -0.01,1.04742 -0.51977,1.25932 -0.5103,0.211896 -1.10009,-0.0086 -1.32243,-0.494344 l -1.91404,-4.181812 c -0.22235,-0.485761 0.009,-1.04742 0.51976,-1.25932 z m 6.60128,2.043869 a 4.6510895,4.47295 33.442754 0 1 -2.26633,5.917719 4.6510895,4.47295 33.442754 0 1 -6.09443,-2.445901 4.6510895,4.47295 33.442754 0 1 2.26633,-5.917719 4.6510895,4.47295 33.442754 0 1 6.09443,2.445901 z m 45.35254,1.027533 c 0.11748,0.60207 -0.0388,1.26951 -0.35038,1.4965 l -2.68236,1.95415 c -0.31159,0.227 -0.657,-0.075 -0.77448,-0.67703 -0.11747,-0.60207 0.0388,-1.26951 0.35038,-1.4965 l 2.68236,-1.95415 c 0.31158,-0.22699 0.657,0.075 0.77448,0.67703 z m -1.48308,7.49611 a 2.8476177,5.3064088 1.4151422 0 1 -3.64473,-2.9781 2.8476177,5.3064088 1.4151422 0 1 1.71996,-6.8864 2.8476177,5.3064088 1.4151422 0 1 3.64474,2.9781 2.8476177,5.3064088 1.4151422 0 1 -1.71997,6.8864 z m -24.17987,-5.317249 c 0.95291,0 1.72007,0.698874 1.72007,1.566977 v 4.700931 c 0,0.868103 -0.76716,1.566976 -1.72007,1.566976 -0.95292,0 -1.72007,-0.698873 -1.72007,-1.566976 v -4.700931 c 0,-0.868103 0.76715,-1.566977 1.72007,-1.566977 z m 5.54244,5.720832 a 4.8734985,6.0067425 0 0 1 -4.87352,6.00674 4.8734985,6.0067425 0 0 1 -4.87353,-6.00674 4.8734985,6.0067425 0 0 1 4.87353,-6.006743 4.8734985,6.0067425 0 0 1 4.87352,6.006743 z m 12.51388,0.116965 A 18.161358,19.926379 0 0 1 146.3016,93.822759 18.161358,19.926379 0 0 1 128.14014,73.896381 18.161358,19.926379 0 0 1 146.3016,53.969999 18.161358,19.926379 0 0 1 164.46306,73.896381 Z m -3.51002,0.622875 a 14.162991,14.860135 0 0 1 -14.16306,14.860137 14.162991,14.860135 0 0 1 -14.16307,-14.860137 14.162991,14.860135 0 0 1 14.16307,-14.860133 14.162991,14.860135 0 0 1 14.16306,14.860133 z m 0.50801,-30.223604 a 0.73625677,0.87910317 0 0 1 -0.73626,0.8791 0.73625677,0.87910317 0 0 1 -0.73627,-0.8791 0.73625677,0.87910317 0 0 1 0.73627,-0.879105 0.73625677,0.87910317 0 0 1 0.73626,0.879105 z m 4.03346,-4.369665 a 0.99234606,0.38783962 0 0 1 -0.99236,0.387841 0.99234606,0.38783962 0 0 1 -0.99236,-0.387841 0.99234606,0.38783962 0 0 1 0.99236,-0.387837 0.99234606,0.38783962 0 0 1 0.99236,0.387837 z m -2.88104,-0.103427 a 0.92832376,0.5429755 0 0 1 -0.92834,0.542979 0.92832376,0.5429755 0 0 1 -0.92833,-0.542979 0.92832376,0.5429755 0 0 1 0.92833,-0.542975 0.92832376,0.5429755 0 0 1 0.92834,0.542975 z m 1.85667,4.809217 a 0.73625677,0.59468743 0 0 1 -0.73627,0.594691 0.73625677,0.59468743 0 0 1 -0.73627,-0.594691 0.73625677,0.59468743 0 0 1 0.73627,-0.59469 0.73625677,0.59468743 0 0 1 0.73627,0.59469 z m 0.44816,-2.430464 a 0.48016744,0.85324723 0 0 1 -0.48017,0.853247 0.48016744,0.85324723 0 0 1 -0.48018,-0.853247 0.48016744,0.85324723 0 0 1 0.48018,-0.853247 0.48016744,0.85324723 0 0 1 0.48017,0.853247 z m -1.98472,-0.284414 a 0.51217857,0.93081506 0 0 1 -0.51218,0.930816 0.51217857,0.93081506 0 0 1 -0.51219,-0.930816 0.51217857,0.93081506 0 0 1 0.51219,-0.930816 0.51217857,0.93081506 0 0 1 0.51218,0.930816 z m -9.05195,2.378753 a 0.73625677,0.87910317 0 0 1 -0.73627,0.8791 0.73625677,0.87910317 0 0 1 -0.73626,-0.8791 0.73625677,0.87910317 0 0 1 0.73626,-0.879105 0.73625677,0.87910317 0 0 1 0.73627,0.879105 z m 4.03344,-4.369665 a 0.99234606,0.38783962 0 0 1 -0.99235,0.387841 0.99234606,0.38783962 0 0 1 -0.99235,-0.387841 0.99234606,0.38783962 0 0 1 0.99235,-0.387837 0.99234606,0.38783962 0 0 1 0.99235,0.387837 z m -2.88103,-0.103427 a 0.92832376,0.5429755 0 0 1 -0.92834,0.542979 0.92832376,0.5429755 0 0 1 -0.92833,-0.542979 0.92832376,0.5429755 0 0 1 0.92833,-0.542975 0.92832376,0.5429755 0 0 1 0.92834,0.542975 z m 1.85667,4.809217 a 0.73625677,0.59468743 0 0 1 -0.73627,0.594691 0.73625677,0.59468743 0 0 1 -0.73626,-0.594691 0.73625677,0.59468743 0 0 1 0.73626,-0.59469 0.73625677,0.59468743 0 0 1 0.73627,0.59469 z m 0.44816,-2.430464 a 0.48016744,0.85324723 0 0 1 -0.48017,0.853247 0.48016744,0.85324723 0 0 1 -0.48017,-0.853247 0.48016744,0.85324723 0 0 1 0.48017,-0.853247 0.48016744,0.85324723 0 0 1 0.48017,0.853247 z m -1.98471,-0.284414 a 0.51217857,0.93081506 0 0 1 -0.51218,0.930816 0.51217857,0.93081506 0 0 1 -0.51219,-0.930816 0.51217857,0.93081506 0 0 1 0.51219,-0.930816 0.51217857,0.93081506 0 0 1 0.51218,0.930816 z m 5.66104,-12.834603 a 0.73625677,0.87910317 0 0 1 -0.73626,0.879102 0.73625677,0.87910317 0 0 1 -0.73627,-0.879102 0.73625677,0.87910317 0 0 1 0.73627,-0.879106 0.73625677,0.87910317 0 0 1 0.73626,0.879106 z m 4.03346,-4.369661 a 0.99234606,0.38783962 0 0 1 -0.99236,0.387837 0.99234606,0.38783962 0 0 1 -0.99236,-0.387837 0.99234606,0.38783962 0 0 1 0.99236,-0.387836 0.99234606,0.38783962 0 0 1 0.99236,0.387836 z m -2.88105,-0.103424 a 0.92832376,0.5429755 0 0 1 -0.92832,0.542975 0.92832376,0.5429755 0 0 1 -0.92834,-0.542975 0.92832376,0.5429755 0 0 1 0.92834,-0.542974 0.92832376,0.5429755 0 0 1 0.92832,0.542974 z m 1.85668,4.809212 a 0.73625677,0.59468743 0 0 1 -0.73627,0.594689 0.73625677,0.59468743 0 0 1 -0.73626,-0.594689 0.73625677,0.59468743 0 0 1 0.73626,-0.594689 0.73625677,0.59468743 0 0 1 0.73627,0.594689 z m 0.44816,-2.430465 a 0.48016744,0.85324723 0 0 1 -0.48017,0.853246 0.48016744,0.85324723 0 0 1 -0.48018,-0.853246 0.48016744,0.85324723 0 0 1 0.48018,-0.853247 0.48016744,0.85324723 0 0 1 0.48017,0.853247 z m -1.98471,-0.284413 a 0.51217857,0.93081506 0 0 1 -0.51219,0.930816 0.51217857,0.93081506 0 0 1 -0.51218,-0.930816 0.51217857,0.93081506 0 0 1 0.51218,-0.930815 0.51217857,0.93081506 0 0 1 0.51219,0.930815 z m -1.91839,10.385778 a 0.73625677,0.87910317 0 0 1 -0.73626,0.879107 0.73625677,0.87910317 0 0 1 -0.73627,-0.879107 0.73625677,0.87910317 0 0 1 0.73627,-0.879101 0.73625677,0.87910317 0 0 1 0.73626,0.879101 z m 4.03346,-4.36966 a 0.99234606,0.38783962 0 0 1 -0.99236,0.387841 0.99234606,0.38783962 0 0 1 -0.99236,-0.387841 0.99234606,0.38783962 0 0 1 0.99236,-0.387841 0.99234606,0.38783962 0 0 1 0.99236,0.387841 z m -2.88104,-0.103424 a 0.92832376,0.5429755 0 0 1 -0.92834,0.542979 0.92832376,0.5429755 0 0 1 -0.92833,-0.542979 0.92832376,0.5429755 0 0 1 0.92833,-0.542975 0.92832376,0.5429755 0 0 1 0.92834,0.542975 z m 1.85667,4.809211 a 0.73625677,0.59468743 0 0 1 -0.73627,0.594689 0.73625677,0.59468743 0 0 1 -0.73626,-0.594689 0.73625677,0.59468743 0 0 1 0.73626,-0.594688 0.73625677,0.59468743 0 0 1 0.73627,0.594688 z m 0.44816,-2.43046 a 0.48016744,0.85324723 0 0 1 -0.48017,0.853246 0.48016744,0.85324723 0 0 1 -0.48018,-0.853246 0.48016744,0.85324723 0 0 1 0.48018,-0.853247 0.48016744,0.85324723 0 0 1 0.48017,0.853247 z m -1.98472,-0.284417 a 0.51217857,0.93081506 0 0 1 -0.51218,0.930816 0.51217857,0.93081506 0 0 1 -0.51218,-0.930816 0.51217857,0.93081506 0 0 1 0.51218,-0.930811 0.51217857,0.93081506 0 0 1 0.51218,0.930811 z m -8.16025,1.463664 a 0.73625677,0.87910317 0 0 1 -0.73627,0.879102 0.73625677,0.87910317 0 0 1 -0.73626,-0.879102 0.73625677,0.87910317 0 0 1 0.73626,-0.879105 0.73625677,0.87910317 0 0 1 0.73627,0.879105 z m 4.03344,-4.369665 a 0.99234606,0.38783962 0 0 1 -0.99235,0.387841 0.99234606,0.38783962 0 0 1 -0.99235,-0.387841 0.99234606,0.38783962 0 0 1 0.99235,-0.387836 0.99234606,0.38783962 0 0 1 0.99235,0.387836 z m -2.88103,-0.103424 a 0.92832376,0.5429755 0 0 1 -0.92834,0.542979 0.92832376,0.5429755 0 0 1 -0.92833,-0.542979 0.92832376,0.5429755 0 0 1 0.92833,-0.542974 0.92832376,0.5429755 0 0 1 0.92834,0.542974 z m 1.85667,4.809216 a 0.73625677,0.59468743 0 0 1 -0.73627,0.594689 0.73625677,0.59468743 0 0 1 -0.73626,-0.594689 0.73625677,0.59468743 0 0 1 0.73626,-0.594689 0.73625677,0.59468743 0 0 1 0.73627,0.594689 z m 0.44816,-2.430465 a 0.48016744,0.85324723 0 0 1 -0.48017,0.853247 0.48016744,0.85324723 0 0 1 -0.48017,-0.853247 0.48016744,0.85324723 0 0 1 0.48017,-0.853246 0.48016744,0.85324723 0 0 1 0.48017,0.853246 z m -1.98471,-0.284413 a 0.51217857,0.93081506 0 0 1 -0.51218,0.930816 0.51217857,0.93081506 0 0 1 -0.51219,-0.930816 0.51217857,0.93081506 0 0 1 0.51219,-0.930815 0.51217857,0.93081506 0 0 1 0.51218,0.930815 z m -0.0281,-6.070344 a 0.73625677,0.87910317 0 0 1 -0.73626,0.879102 0.73625677,0.87910317 0 0 1 -0.73627,-0.879102 0.73625677,0.87910317 0 0 1 0.73627,-0.879105 0.73625677,0.87910317 0 0 1 0.73626,0.879105 z m 4.03345,-4.369661 a 0.99234606,0.38783962 0 0 1 -0.99237,0.387841 0.99234606,0.38783962 0 0 1 -0.99234,-0.387841 0.99234606,0.38783962 0 0 1 0.99234,-0.38784 0.99234606,0.38783962 0 0 1 0.99237,0.38784 z m -2.88103,-0.103424 a 0.92832376,0.5429755 0 0 1 -0.92834,0.542975 0.92832376,0.5429755 0 0 1 -0.92834,-0.542975 0.92832376,0.5429755 0 0 1 0.92834,-0.542974 0.92832376,0.5429755 0 0 1 0.92834,0.542974 z m 1.85665,4.809212 a 0.73625677,0.59468743 0 0 1 -0.73626,0.594689 0.73625677,0.59468743 0 0 1 -0.73626,-0.594689 0.73625677,0.59468743 0 0 1 0.73626,-0.594689 0.73625677,0.59468743 0 0 1 0.73626,0.594689 z m 0.44817,-2.430461 a 0.48016744,0.85324723 0 0 1 -0.48018,0.853247 0.48016744,0.85324723 0 0 1 -0.48017,-0.853247 0.48016744,0.85324723 0 0 1 0.48017,-0.853246 0.48016744,0.85324723 0 0 1 0.48018,0.853246 z m -1.98471,-0.284417 a 0.51217857,0.93081506 0 0 1 -0.51219,0.930816 0.51217857,0.93081506 0 0 1 -0.51218,-0.930816 0.51217857,0.93081506 0 0 1 0.51218,-0.930815 0.51217857,0.93081506 0 0 1 0.51219,0.930815 z m 3.6551,-6.144458 a 0.73625677,0.87910317 0 0 1 -0.73626,0.879105 0.73625677,0.87910317 0 0 1 -0.73627,-0.879105 0.73625677,0.87910317 0 0 1 0.73627,-0.879102 0.73625677,0.87910317 0 0 1 0.73626,0.879102 z m 4.03347,-4.369657 a 0.99234606,0.38783962 0 0 1 -0.99237,0.387836 0.99234606,0.38783962 0 0 1 -0.99235,-0.387836 0.99234606,0.38783962 0 0 1 0.99235,-0.387841 0.99234606,0.38783962 0 0 1 0.99237,0.387841 z m -2.88105,-0.103428 a 0.92832376,0.5429755 0 0 1 -0.92834,0.542979 0.92832376,0.5429755 0 0 1 -0.92833,-0.542979 0.92832376,0.5429755 0 0 1 0.92833,-0.542975 0.92832376,0.5429755 0 0 1 0.92834,0.542975 z m 1.85667,4.809211 a 0.73625677,0.59468743 0 0 1 -0.73627,0.594689 0.73625677,0.59468743 0 0 1 -0.73626,-0.594689 0.73625677,0.59468743 0 0 1 0.73626,-0.594684 0.73625677,0.59468743 0 0 1 0.73627,0.594684 z m 0.44817,-2.43046 a 0.48016744,0.85324723 0 0 1 -0.48018,0.853246 0.48016744,0.85324723 0 0 1 -0.48018,-0.853246 0.48016744,0.85324723 0 0 1 0.48018,-0.853247 0.48016744,0.85324723 0 0 1 0.48018,0.853247 z m -1.98472,-0.284413 a 0.51217857,0.93081506 0 0 1 -0.51219,0.930811 0.51217857,0.93081506 0 0 1 -0.51218,-0.930811 0.51217857,0.93081506 0 0 1 0.51218,-0.930816 0.51217857,0.93081506 0 0 1 0.51219,0.930816 z m -8.86572,2.008174 a 0.73625677,0.87910317 0 0 1 -0.73626,0.879101 0.73625677,0.87910317 0 0 1 -0.73627,-0.879101 0.73625677,0.87910317 0 0 1 0.73627,-0.879102 0.73625677,0.87910317 0 0 1 0.73626,0.879102 z m 4.03345,-4.369661 a 0.99234606,0.38783962 0 0 1 -0.99236,0.38784 0.99234606,0.38783962 0 0 1 -0.99235,-0.38784 0.99234606,0.38783962 0 0 1 0.99235,-0.387837 0.99234606,0.38783962 0 0 1 0.99236,0.387837 z m -2.88103,-0.103424 a 0.92832376,0.5429755 0 0 1 -0.92833,0.542979 0.92832376,0.5429755 0 0 1 -0.92834,-0.542979 0.92832376,0.5429755 0 0 1 0.92834,-0.542975 0.92832376,0.5429755 0 0 1 0.92833,0.542975 z m 1.85667,4.809211 a 0.73625677,0.59468743 0 0 1 -0.73627,0.594689 0.73625677,0.59468743 0 0 1 -0.73626,-0.594689 0.73625677,0.59468743 0 0 1 0.73626,-0.594684 0.73625677,0.59468743 0 0 1 0.73627,0.594684 z m 0.44817,-2.43046 a 0.48016744,0.85324723 0 0 1 -0.48018,0.853246 0.48016744,0.85324723 0 0 1 -0.48017,-0.853246 0.48016744,0.85324723 0 0 1 0.48017,-0.853247 0.48016744,0.85324723 0 0 1 0.48018,0.853247 z m -1.98472,-0.284417 a 0.51217857,0.93081506 0 0 1 -0.51219,0.930815 0.51217857,0.93081506 0 0 1 -0.51218,-0.930815 0.51217857,0.93081506 0 0 1 0.51218,-0.930816 0.51217857,0.93081506 0 0 1 0.51219,0.930816 z m -6.25186,-7.0027345 h 21.70607 c 0.54987,0 0.99255,0.454293 0.99255,1.0185905 v 37.691356 c 0,0.564298 -0.44268,1.018587 -0.99255,1.018587 h -21.70612 c -0.54987,0 -0.99255,-0.454289 -0.99255,-1.018587 V 10.468465 c 0,-0.5642975 0.44268,-1.0185905 0.99255,-1.0185905 z m 3.77906,2.9660865 h 14.29241 c 0.56213,0 1.01468,0.464427 1.01468,1.041314 v 30.824366 c 0,0.576885 -0.45255,1.041314 -1.01468,1.041314 H 152.0602 c -0.56214,0 -1.01469,-0.464429 -1.01469,-1.041314 V 13.457275 c 0,-0.576887 0.45255,-1.041314 1.01469,-1.041314 z m -17.63766,31.879691 a 0.73625677,0.87910317 0 0 1 -0.73626,0.8791 0.73625677,0.87910317 0 0 1 -0.73627,-0.8791 0.73625677,0.87910317 0 0 1 0.73627,-0.879105 0.73625677,0.87910317 0 0 1 0.73626,0.879105 z m 4.03343,-4.369665 a 0.99234606,0.38783962 0 0 1 -0.99236,0.387841 0.99234606,0.38783962 0 0 1 -0.99235,-0.387841 0.99234606,0.38783962 0 0 1 0.99235,-0.387837 0.99234606,0.38783962 0 0 1 0.99236,0.387837 z m -2.88103,-0.103427 a 0.92832376,0.5429755 0 0 1 -0.92833,0.542979 0.92832376,0.5429755 0 0 1 -0.92832,-0.542979 0.92832376,0.5429755 0 0 1 0.92832,-0.542975 0.92832376,0.5429755 0 0 1 0.92833,0.542975 z m 1.85667,4.809217 a 0.73625677,0.59468743 0 0 1 -0.73627,0.594691 0.73625677,0.59468743 0 0 1 -0.73626,-0.594691 0.73625677,0.59468743 0 0 1 0.73626,-0.59469 0.73625677,0.59468743 0 0 1 0.73627,0.59469 z m 0.44815,-2.430464 a 0.48016744,0.85324723 0 0 1 -0.48017,0.853247 0.48016744,0.85324723 0 0 1 -0.48017,-0.853247 0.48016744,0.85324723 0 0 1 0.48017,-0.853247 0.48016744,0.85324723 0 0 1 0.48017,0.853247 z m -1.9847,-0.284414 a 0.51217857,0.93081506 0 0 1 -0.51218,0.930816 0.51217857,0.93081506 0 0 1 -0.51218,-0.930816 0.51217857,0.93081506 0 0 1 0.51218,-0.930816 0.51217857,0.93081506 0 0 1 0.51218,0.930816 z m -9.05192,2.378753 a 0.73625677,0.87910317 0 0 1 -0.73626,0.8791 0.73625677,0.87910317 0 0 1 -0.73626,-0.8791 0.73625677,0.87910317 0 0 1 0.73626,-0.879105 0.73625677,0.87910317 0 0 1 0.73626,0.879105 z m 4.03343,-4.369665 a 0.99234606,0.38783962 0 0 1 -0.99235,0.387841 0.99234606,0.38783962 0 0 1 -0.99235,-0.387841 0.99234606,0.38783962 0 0 1 0.99235,-0.387837 0.99234606,0.38783962 0 0 1 0.99235,0.387837 z M 127.9956,39.82256 a 0.92832376,0.5429755 0 0 1 -0.92833,0.542979 0.92832376,0.5429755 0 0 1 -0.92833,-0.542979 0.92832376,0.5429755 0 0 1 0.92833,-0.542975 0.92832376,0.5429755 0 0 1 0.92833,0.542975 z m 1.85666,4.809217 a 0.73625677,0.59468743 0 0 1 -0.73626,0.594691 0.73625677,0.59468743 0 0 1 -0.73626,-0.594691 0.73625677,0.59468743 0 0 1 0.73626,-0.59469 0.73625677,0.59468743 0 0 1 0.73626,0.59469 z m 0.44816,-2.430464 a 0.48016744,0.85324723 0 0 1 -0.48017,0.853247 0.48016744,0.85324723 0 0 1 -0.48017,-0.853247 0.48016744,0.85324723 0 0 1 0.48017,-0.853247 0.48016744,0.85324723 0 0 1 0.48017,0.853247 z m -1.98471,-0.284414 a 0.51217857,0.93081506 0 0 1 -0.51218,0.930816 0.51217857,0.93081506 0 0 1 -0.51218,-0.930816 0.51217857,0.93081506 0 0 1 0.51218,-0.930816 0.51217857,0.93081506 0 0 1 0.51218,0.930816 z m 5.66103,-12.834603 a 0.73625677,0.87910317 0 0 1 -0.73626,0.879102 0.73625677,0.87910317 0 0 1 -0.73626,-0.879102 0.73625677,0.87910317 0 0 1 0.73626,-0.879106 0.73625677,0.87910317 0 0 1 0.73626,0.879106 z m 4.03343,-4.369661 a 0.99234606,0.38783962 0 0 1 -0.99235,0.387837 0.99234606,0.38783962 0 0 1 -0.99235,-0.387837 0.99234606,0.38783962 0 0 1 0.99235,-0.387836 0.99234606,0.38783962 0 0 1 0.99235,0.387836 z m -2.88102,-0.103424 a 0.92832376,0.5429755 0 0 1 -0.92833,0.542975 0.92832376,0.5429755 0 0 1 -0.92833,-0.542975 0.92832376,0.5429755 0 0 1 0.92833,-0.542974 0.92832376,0.5429755 0 0 1 0.92833,0.542974 z m 1.85666,4.809212 a 0.73625677,0.59468743 0 0 1 -0.73626,0.594689 0.73625677,0.59468743 0 0 1 -0.73627,-0.594689 0.73625677,0.59468743 0 0 1 0.73627,-0.594689 0.73625677,0.59468743 0 0 1 0.73626,0.594689 z m 0.44816,-2.430465 a 0.48016744,0.85324723 0 0 1 -0.48017,0.853246 0.48016744,0.85324723 0 0 1 -0.48017,-0.853246 0.48016744,0.85324723 0 0 1 0.48017,-0.853247 0.48016744,0.85324723 0 0 1 0.48017,0.853247 z m -1.98471,-0.284413 a 0.51217857,0.93081506 0 0 1 -0.51218,0.930816 0.51217857,0.93081506 0 0 1 -0.51218,-0.930816 0.51217857,0.93081506 0 0 1 0.51218,-0.930815 0.51217857,0.93081506 0 0 1 0.51218,0.930815 z m -1.91837,10.385778 a 0.73625677,0.87910317 0 0 1 -0.73626,0.879107 0.73625677,0.87910317 0 0 1 -0.73626,-0.879107 0.73625677,0.87910317 0 0 1 0.73626,-0.879101 0.73625677,0.87910317 0 0 1 0.73626,0.879101 z m 4.03344,-4.36966 a 0.99234606,0.38783962 0 0 1 -0.99236,0.387841 0.99234606,0.38783962 0 0 1 -0.99235,-0.387841 0.99234606,0.38783962 0 0 1 0.99235,-0.387841 0.99234606,0.38783962 0 0 1 0.99236,0.387841 z m -2.88103,-0.103424 a 0.92832376,0.5429755 0 0 1 -0.92833,0.542979 0.92832376,0.5429755 0 0 1 -0.92833,-0.542979 0.92832376,0.5429755 0 0 1 0.92833,-0.542975 0.92832376,0.5429755 0 0 1 0.92833,0.542975 z m 1.85666,4.809211 a 0.73625677,0.59468743 0 0 1 -0.73626,0.594689 0.73625677,0.59468743 0 0 1 -0.73626,-0.594689 0.73625677,0.59468743 0 0 1 0.73626,-0.594688 0.73625677,0.59468743 0 0 1 0.73626,0.594688 z m 0.44816,-2.43046 a 0.48016744,0.85324723 0 0 1 -0.48017,0.853246 0.48016744,0.85324723 0 0 1 -0.48017,-0.853246 0.48016744,0.85324723 0 0 1 0.48017,-0.853247 0.48016744,0.85324723 0 0 1 0.48017,0.853247 z m -1.9847,-0.284417 a 0.51217857,0.93081506 0 0 1 -0.51219,0.930816 0.51217857,0.93081506 0 0 1 -0.51218,-0.930816 0.51217857,0.93081506 0 0 1 0.51218,-0.930811 0.51217857,0.93081506 0 0 1 0.51219,0.930811 z m -8.16023,1.463664 a 0.73625677,0.87910317 0 0 1 -0.73626,0.879102 0.73625677,0.87910317 0 0 1 -0.73626,-0.879102 0.73625677,0.87910317 0 0 1 0.73626,-0.879105 0.73625677,0.87910317 0 0 1 0.73626,0.879105 z m 4.03343,-4.369665 a 0.99234606,0.38783962 0 0 1 -0.99235,0.387841 0.99234606,0.38783962 0 0 1 -0.99235,-0.387841 0.99234606,0.38783962 0 0 1 0.99235,-0.387836 0.99234606,0.38783962 0 0 1 0.99235,0.387836 z m -2.88102,-0.103424 a 0.92832376,0.5429755 0 0 1 -0.92833,0.542979 0.92832376,0.5429755 0 0 1 -0.92833,-0.542979 0.92832376,0.5429755 0 0 1 0.92833,-0.542974 0.92832376,0.5429755 0 0 1 0.92833,0.542974 z m 1.85666,4.809216 a 0.73625677,0.59468743 0 0 1 -0.73626,0.594689 0.73625677,0.59468743 0 0 1 -0.73626,-0.594689 0.73625677,0.59468743 0 0 1 0.73626,-0.594689 0.73625677,0.59468743 0 0 1 0.73626,0.594689 z m 0.44816,-2.430465 a 0.48016744,0.85324723 0 0 1 -0.48017,0.853247 0.48016744,0.85324723 0 0 1 -0.48017,-0.853247 0.48016744,0.85324723 0 0 1 0.48017,-0.853246 0.48016744,0.85324723 0 0 1 0.48017,0.853246 z m -1.98471,-0.284413 a 0.51217857,0.93081506 0 0 1 -0.51218,0.930816 0.51217857,0.93081506 0 0 1 -0.51218,-0.930816 0.51217857,0.93081506 0 0 1 0.51218,-0.930815 0.51217857,0.93081506 0 0 1 0.51218,0.930815 z m -0.0281,-6.070344 a 0.73625677,0.87910317 0 0 1 -0.73625,0.879102 0.73625677,0.87910317 0 0 1 -0.73626,-0.879102 0.73625677,0.87910317 0 0 1 0.73626,-0.879105 0.73625677,0.87910317 0 0 1 0.73625,0.879105 z m 4.03344,-4.369661 a 0.99234606,0.38783962 0 0 1 -0.99235,0.387841 0.99234606,0.38783962 0 0 1 -0.99235,-0.387841 0.99234606,0.38783962 0 0 1 0.99235,-0.38784 0.99234606,0.38783962 0 0 1 0.99235,0.38784 z m -2.88102,-0.103424 a 0.92832376,0.5429755 0 0 1 -0.92833,0.542975 0.92832376,0.5429755 0 0 1 -0.92833,-0.542975 0.92832376,0.5429755 0 0 1 0.92833,-0.542974 0.92832376,0.5429755 0 0 1 0.92833,0.542974 z m 1.85665,4.809212 a 0.73625677,0.59468743 0 0 1 -0.73626,0.594689 0.73625677,0.59468743 0 0 1 -0.73626,-0.594689 0.73625677,0.59468743 0 0 1 0.73626,-0.594689 0.73625677,0.59468743 0 0 1 0.73626,0.594689 z m 0.44816,-2.430461 a 0.48016744,0.85324723 0 0 1 -0.48016,0.853247 0.48016744,0.85324723 0 0 1 -0.48017,-0.853247 0.48016744,0.85324723 0 0 1 0.48017,-0.853246 0.48016744,0.85324723 0 0 1 0.48016,0.853246 z m -1.9847,-0.284417 a 0.51217857,0.93081506 0 0 1 -0.51218,0.930816 0.51217857,0.93081506 0 0 1 -0.51218,-0.930816 0.51217857,0.93081506 0 0 1 0.51218,-0.930815 0.51217857,0.93081506 0 0 1 0.51218,0.930815 z m 3.65509,-6.144458 a 0.73625677,0.87910317 0 0 1 -0.73625,0.879105 0.73625677,0.87910317 0 0 1 -0.73627,-0.879105 0.73625677,0.87910317 0 0 1 0.73627,-0.879102 0.73625677,0.87910317 0 0 1 0.73625,0.879102 z m 4.03344,-4.369657 a 0.99234606,0.38783962 0 0 1 -0.99235,0.387836 0.99234606,0.38783962 0 0 1 -0.99235,-0.387836 0.99234606,0.38783962 0 0 1 0.99235,-0.387841 0.99234606,0.38783962 0 0 1 0.99235,0.387841 z m -2.88103,-0.103428 a 0.92832376,0.5429755 0 0 1 -0.92833,0.542979 0.92832376,0.5429755 0 0 1 -0.92832,-0.542979 0.92832376,0.5429755 0 0 1 0.92832,-0.542975 0.92832376,0.5429755 0 0 1 0.92833,0.542975 z m 1.85666,4.809211 a 0.73625677,0.59468743 0 0 1 -0.73626,0.594689 0.73625677,0.59468743 0 0 1 -0.73626,-0.594689 0.73625677,0.59468743 0 0 1 0.73626,-0.594684 0.73625677,0.59468743 0 0 1 0.73626,0.594684 z m 0.44816,-2.43046 a 0.48016744,0.85324723 0 0 1 -0.48017,0.853246 0.48016744,0.85324723 0 0 1 -0.48017,-0.853246 0.48016744,0.85324723 0 0 1 0.48017,-0.853247 0.48016744,0.85324723 0 0 1 0.48017,0.853247 z m -1.9847,-0.284413 a 0.51217857,0.93081506 0 0 1 -0.51218,0.930811 0.51217857,0.93081506 0 0 1 -0.51218,-0.930811 0.51217857,0.93081506 0 0 1 0.51218,-0.930816 0.51217857,0.93081506 0 0 1 0.51218,0.930816 z m -8.86568,2.008174 a 0.73625677,0.87910317 0 0 1 -0.73626,0.879101 0.73625677,0.87910317 0 0 1 -0.73626,-0.879101 0.73625677,0.87910317 0 0 1 0.73626,-0.879102 0.73625677,0.87910317 0 0 1 0.73626,0.879102 z m 4.03343,-4.369661 a 0.99234606,0.38783962 0 0 1 -0.99235,0.38784 0.99234606,0.38783962 0 0 1 -0.99235,-0.38784 0.99234606,0.38783962 0 0 1 0.99235,-0.387837 0.99234606,0.38783962 0 0 1 0.99235,0.387837 z m -2.88102,-0.103424 a 0.92832376,0.5429755 0 0 1 -0.92833,0.542979 0.92832376,0.5429755 0 0 1 -0.92833,-0.542979 0.92832376,0.5429755 0 0 1 0.92833,-0.542975 0.92832376,0.5429755 0 0 1 0.92833,0.542975 z m 1.85666,4.809211 a 0.73625677,0.59468743 0 0 1 -0.73626,0.594689 0.73625677,0.59468743 0 0 1 -0.73626,-0.594689 0.73625677,0.59468743 0 0 1 0.73626,-0.594684 0.73625677,0.59468743 0 0 1 0.73626,0.594684 z m 0.44816,-2.43046 a 0.48016744,0.85324723 0 0 1 -0.48017,0.853246 0.48016744,0.85324723 0 0 1 -0.48017,-0.853246 0.48016744,0.85324723 0 0 1 0.48017,-0.853247 0.48016744,0.85324723 0 0 1 0.48017,0.853247 z m -1.9847,-0.284417 a 0.51217857,0.93081506 0 0 1 -0.51218,0.930815 0.51217857,0.93081506 0 0 1 -0.51218,-0.930815 0.51217857,0.93081506 0 0 1 0.51218,-0.930816 0.51217857,0.93081506 0 0 1 0.51218,0.930816 z M 121.2428,9.4498745 h 21.70597 c 0.54987,0 0.99255,0.454293 0.99255,1.0185905 v 37.691356 c 0,0.564298 -0.44268,1.018587 -0.99255,1.018587 h -21.70602 c -0.54987,0 -0.99254,-0.454289 -0.99254,-1.018587 V 10.468465 c 0,-0.5642975 0.44267,-1.0185905 0.99254,-1.0185905 z m 3.77903,2.9660865 h 14.29233 c 0.56214,0 1.01469,0.464427 1.01469,1.041314 v 30.824366 c 0,0.576885 -0.45255,1.041314 -1.01469,1.041314 h -14.29238 c -0.56214,0 -1.01469,-0.464429 -1.01469,-1.041314 V 13.457275 c 0,-0.576887 0.45255,-1.041314 1.01469,-1.041314 z M 117.24902,1.9982457 h 54.97951 c 4.79236,0 8.65049,3.5147332 8.65049,7.8805678 V 96.803863 c 0,4.365847 -3.85813,7.880577 -8.65049,7.880577 h -54.97951 c -4.79237,0 -8.65049,-3.51473 -8.65049,-7.880577 V 9.8788135 c 0,-4.3658346 3.85812,-7.8805678 8.65049,-7.8805678 z m 6.83734,7.2965938 h 43.06299 c 4.79237,0 8.65049,3.5147325 8.65049,7.8805665 v 74.467463 c 0,4.365836 -3.85812,7.880568 -8.65049,7.880568 h -43.06299 c -4.79236,0 -8.65048,-3.514732 -8.65048,-7.880568 V 17.175406 c 0,-4.365834 3.85812,-7.8805665 8.65048,-7.8805665 z" />
  </g>
  <g
     inkscape:groupmode="layer"
     id="layer3"
     inkscape:label="Layer 3">
    <path
       id="path835"
       style="fill:#ffffff;fill-rule:evenodd;stroke:#000000;stroke-width:1.306;stroke-linecap:round;stroke-linejoin:round;stroke-miterlimit:4;stroke-dasharray:none;paint-order:stroke markers fill"
       d="m 9.7484378,180.49139 c 0.5102902,-0.2119 1.1001002,0.009 1.3224302,0.49435 l 1.91405,4.18183 c 0.22234,0.48578 -0.01,1.04743 -0.51977,1.25933 -0.5103,0.2119 -1.10009,-0.009 -1.32243,-0.49434 l -1.9140402,-4.18185 c -0.22235,-0.48576 0.009,-1.04742 0.51976,-1.25932 z m 6.6012802,2.04388 a 4.6510895,4.47295 33.442754 0 1 -2.26633,5.91775 4.6510895,4.47295 33.442754 0 1 -6.0944302,-2.44591 4.6510895,4.47295 33.442754 0 1 2.2663302,-5.91775 4.6510895,4.47295 33.442754 0 1 6.09443,2.44591 z m 45.352541,1.02754 c 0.11748,0.60208 -0.0388,1.26952 -0.35038,1.49651 l -2.68236,1.95416 c -0.31159,0.227 -0.657,-0.075 -0.77448,-0.67703 -0.11747,-0.60207 0.0388,-1.26952 0.35038,-1.49651 l 2.68236,-1.95416 c 0.31158,-0.22699 0.657,0.075 0.77448,0.67703 z m -1.48308,7.49616 a 2.8476177,5.3064088 1.4151422 0 1 -3.64473,-2.97812 2.8476177,5.3064088 1.4151422 0 1 1.71996,-6.88644 2.8476177,5.3064088 1.4151422 0 1 3.64474,2.97812 2.8476177,5.3064088 1.4151422 0 1 -1.71997,6.88644 z m -24.179871,-5.31728 c 0.95291,0 1.72007,0.69887 1.72007,1.56698 v 4.70095 c 0,0.86812 -0.76716,1.56699 -1.72007,1.56699 -0.95292,0 -1.72007,-0.69887 -1.72007,-1.56699 v -4.70095 c 0,-0.86811 0.76715,-1.56698 1.72007,-1.56698 z m 5.54244,5.72086 a 4.8734985,6.0067425 0 0 1 -4.87352,6.00677 4.8734985,6.0067425 0 0 1 -4.87353,-6.00677 4.8734985,6.0067425 0 0 1 4.87353,-6.00677 4.8734985,6.0067425 0 0 1 4.87352,6.00677 z m 12.51388,0.11696 a 18.161358,19.926379 0 0 1 -18.16146,19.92647 18.161358,19.926379 0 0 1 -18.16146,-19.92647 18.161358,19.926379 0 0 1 18.16146,-19.92649 18.161358,19.926379 0 0 1 18.16146,19.92649 z m -3.51002,0.62288 a 14.162991,14.860135 0 0 1 -14.16306,14.86021 14.162991,14.860135 0 0 1 -14.16307,-14.86021 14.162991,14.860135 0 0 1 14.16307,-14.86021 14.162991,14.860135 0 0 1 14.16306,14.86021 z m 0.50801,-30.22372 a 0.73625677,0.87910317 0 0 1 -0.73626,0.8791 0.73625677,0.87910317 0 0 1 -0.73627,-0.8791 0.73625677,0.87910317 0 0 1 0.73627,-0.87911 0.73625677,0.87910317 0 0 1 0.73626,0.87911 z m 4.033461,-4.36967 a 0.99234606,0.38783962 0 0 1 -0.992361,0.38784 0.99234606,0.38783962 0 0 1 -0.99236,-0.38784 0.99234606,0.38783962 0 0 1 0.99236,-0.38784 0.99234606,0.38783962 0 0 1 0.992361,0.38784 z m -2.881041,-0.10343 a 0.92832376,0.5429755 0 0 1 -0.92834,0.54298 0.92832376,0.5429755 0 0 1 -0.92833,-0.54298 0.92832376,0.5429755 0 0 1 0.92833,-0.54297 0.92832376,0.5429755 0 0 1 0.92834,0.54297 z m 1.85667,4.80922 a 0.73625677,0.59468743 0 0 1 -0.73627,0.59469 0.73625677,0.59468743 0 0 1 -0.73627,-0.59469 0.73625677,0.59468743 0 0 1 0.73627,-0.59469 0.73625677,0.59468743 0 0 1 0.73627,0.59469 z m 0.44816,-2.43046 a 0.48016744,0.85324723 0 0 1 -0.48017,0.85324 0.48016744,0.85324723 0 0 1 -0.48018,-0.85324 0.48016744,0.85324723 0 0 1 0.48018,-0.85325 0.48016744,0.85324723 0 0 1 0.48017,0.85325 z m -1.98472,-0.28442 a 0.51217857,0.93081506 0 0 1 -0.51218,0.93082 0.51217857,0.93081506 0 0 1 -0.51219,-0.93082 0.51217857,0.93081506 0 0 1 0.51219,-0.93081 0.51217857,0.93081506 0 0 1 0.51218,0.93081 z m -9.05195,2.37876 a 0.73625677,0.87910317 0 0 1 -0.73627,0.8791 0.73625677,0.87910317 0 0 1 -0.73626,-0.8791 0.73625677,0.87910317 0 0 1 0.73626,-0.87911 0.73625677,0.87910317 0 0 1 0.73627,0.87911 z m 4.03344,-4.36967 a 0.99234606,0.38783962 0 0 1 -0.99235,0.38784 0.99234606,0.38783962 0 0 1 -0.99235,-0.38784 0.99234606,0.38783962 0 0 1 0.99235,-0.38784 0.99234606,0.38783962 0 0 1 0.99235,0.38784 z m -2.88103,-0.10343 a 0.92832376,0.5429755 0 0 1 -0.92834,0.54298 0.92832376,0.5429755 0 0 1 -0.92833,-0.54298 0.92832376,0.5429755 0 0 1 0.92833,-0.54297 0.92832376,0.5429755 0 0 1 0.92834,0.54297 z m 1.85667,4.80922 a 0.73625677,0.59468743 0 0 1 -0.73627,0.59469 0.73625677,0.59468743 0 0 1 -0.73626,-0.59469 0.73625677,0.59468743 0 0 1 0.73626,-0.59469 0.73625677,0.59468743 0 0 1 0.73627,0.59469 z m 0.44816,-2.43046 a 0.48016744,0.85324723 0 0 1 -0.48017,0.85324 0.48016744,0.85324723 0 0 1 -0.48017,-0.85324 0.48016744,0.85324723 0 0 1 0.48017,-0.85325 0.48016744,0.85324723 0 0 1 0.48017,0.85325 z m -1.98471,-0.28442 a 0.51217857,0.93081506 0 0 1 -0.51218,0.93082 0.51217857,0.93081506 0 0 1 -0.51219,-0.93082 0.51217857,0.93081506 0 0 1 0.51219,-0.93081 0.51217857,0.93081506 0 0 1 0.51218,0.93081 z m 5.66104,-12.8346 a 0.73625677,0.87910317 0 0 1 -0.73626,0.87911 0.73625677,0.87910317 0 0 1 -0.73627,-0.87911 0.73625677,0.87910317 0 0 1 0.73627,-0.8791 0.73625677,0.87910317 0 0 1 0.73626,0.8791 z m 4.03346,-4.36966 a 0.99234606,0.38783962 0 0 1 -0.99236,0.38784 0.99234606,0.38783962 0 0 1 -0.99236,-0.38784 0.99234606,0.38783962 0 0 1 0.99236,-0.38783 0.99234606,0.38783962 0 0 1 0.99236,0.38783 z m -2.88105,-0.10342 a 0.92832376,0.5429755 0 0 1 -0.92832,0.54297 0.92832376,0.5429755 0 0 1 -0.92834,-0.54297 0.92832376,0.5429755 0 0 1 0.92834,-0.54297 0.92832376,0.5429755 0 0 1 0.92832,0.54297 z m 1.85668,4.80921 a 0.73625677,0.59468743 0 0 1 -0.73627,0.59469 0.73625677,0.59468743 0 0 1 -0.73626,-0.59469 0.73625677,0.59468743 0 0 1 0.73626,-0.59469 0.73625677,0.59468743 0 0 1 0.73627,0.59469 z m 0.44816,-2.43046 a 0.48016744,0.85324723 0 0 1 -0.48017,0.85324 0.48016744,0.85324723 0 0 1 -0.48018,-0.85324 0.48016744,0.85324723 0 0 1 0.48018,-0.85325 0.48016744,0.85324723 0 0 1 0.48017,0.85325 z m -1.98471,-0.28442 a 0.51217857,0.93081506 0 0 1 -0.51219,0.93082 0.51217857,0.93081506 0 0 1 -0.51218,-0.93082 0.51217857,0.93081506 0 0 1 0.51218,-0.93081 0.51217857,0.93081506 0 0 1 0.51219,0.93081 z m -1.91839,10.38578 a 0.73625677,0.87910317 0 0 1 -0.73626,0.8791 0.73625677,0.87910317 0 0 1 -0.73627,-0.8791 0.73625677,0.87910317 0 0 1 0.73627,-0.8791 0.73625677,0.87910317 0 0 1 0.73626,0.8791 z m 4.03346,-4.36966 a 0.99234606,0.38783962 0 0 1 -0.99236,0.38784 0.99234606,0.38783962 0 0 1 -0.99236,-0.38784 0.99234606,0.38783962 0 0 1 0.99236,-0.38784 0.99234606,0.38783962 0 0 1 0.99236,0.38784 z m -2.88104,-0.10342 a 0.92832376,0.5429755 0 0 1 -0.92834,0.54298 0.92832376,0.5429755 0 0 1 -0.92833,-0.54298 0.92832376,0.5429755 0 0 1 0.92833,-0.54298 0.92832376,0.5429755 0 0 1 0.92834,0.54298 z m 1.85667,4.8092 a 0.73625677,0.59468743 0 0 1 -0.73627,0.59469 0.73625677,0.59468743 0 0 1 -0.73626,-0.59469 0.73625677,0.59468743 0 0 1 0.73626,-0.59468 0.73625677,0.59468743 0 0 1 0.73627,0.59468 z m 0.44816,-2.43046 a 0.48016744,0.85324723 0 0 1 -0.48017,0.85325 0.48016744,0.85324723 0 0 1 -0.48018,-0.85325 0.48016744,0.85324723 0 0 1 0.48018,-0.85324 0.48016744,0.85324723 0 0 1 0.48017,0.85324 z m -1.98472,-0.28441 a 0.51217857,0.93081506 0 0 1 -0.51218,0.93081 0.51217857,0.93081506 0 0 1 -0.51218,-0.93081 0.51217857,0.93081506 0 0 1 0.51218,-0.93081 0.51217857,0.93081506 0 0 1 0.51218,0.93081 z m -8.16025,1.46366 a 0.73625677,0.87910317 0 0 1 -0.73627,0.8791 0.73625677,0.87910317 0 0 1 -0.73626,-0.8791 0.73625677,0.87910317 0 0 1 0.73626,-0.8791 0.73625677,0.87910317 0 0 1 0.73627,0.8791 z m 4.03344,-4.36966 a 0.99234606,0.38783962 0 0 1 -0.99235,0.38784 0.99234606,0.38783962 0 0 1 -0.99235,-0.38784 0.99234606,0.38783962 0 0 1 0.99235,-0.38784 0.99234606,0.38783962 0 0 1 0.99235,0.38784 z m -2.88103,-0.10342 a 0.92832376,0.5429755 0 0 1 -0.92834,0.54298 0.92832376,0.5429755 0 0 1 -0.92833,-0.54298 0.92832376,0.5429755 0 0 1 0.92833,-0.54298 0.92832376,0.5429755 0 0 1 0.92834,0.54298 z m 1.85667,4.80921 a 0.73625677,0.59468743 0 0 1 -0.73627,0.59469 0.73625677,0.59468743 0 0 1 -0.73626,-0.59469 0.73625677,0.59468743 0 0 1 0.73626,-0.59469 0.73625677,0.59468743 0 0 1 0.73627,0.59469 z m 0.44816,-2.43046 a 0.48016744,0.85324723 0 0 1 -0.48017,0.85324 0.48016744,0.85324723 0 0 1 -0.48017,-0.85324 0.48016744,0.85324723 0 0 1 0.48017,-0.85325 0.48016744,0.85324723 0 0 1 0.48017,0.85325 z m -1.98471,-0.28442 a 0.51217857,0.93081506 0 0 1 -0.51218,0.93082 0.51217857,0.93081506 0 0 1 -0.51219,-0.93082 0.51217857,0.93081506 0 0 1 0.51219,-0.93081 0.51217857,0.93081506 0 0 1 0.51218,0.93081 z m -0.0281,-6.07034 a 0.73625677,0.87910317 0 0 1 -0.73626,0.8791 0.73625677,0.87910317 0 0 1 -0.73627,-0.8791 0.73625677,0.87910317 0 0 1 0.73627,-0.8791 0.73625677,0.87910317 0 0 1 0.73626,0.8791 z m 4.03345,-4.36966 a 0.99234606,0.38783962 0 0 1 -0.99237,0.38784 0.99234606,0.38783962 0 0 1 -0.99234,-0.38784 0.99234606,0.38783962 0 0 1 0.99234,-0.38784 0.99234606,0.38783962 0 0 1 0.99237,0.38784 z m -2.88103,-0.10342 a 0.92832376,0.5429755 0 0 1 -0.92834,0.54297 0.92832376,0.5429755 0 0 1 -0.92834,-0.54297 0.92832376,0.5429755 0 0 1 0.92834,-0.54298 0.92832376,0.5429755 0 0 1 0.92834,0.54298 z m 1.85665,4.80921 a 0.73625677,0.59468743 0 0 1 -0.73626,0.59469 0.73625677,0.59468743 0 0 1 -0.73626,-0.59469 0.73625677,0.59468743 0 0 1 0.73626,-0.59469 0.73625677,0.59468743 0 0 1 0.73626,0.59469 z m 0.44817,-2.43046 a 0.48016744,0.85324723 0 0 1 -0.48018,0.85324 0.48016744,0.85324723 0 0 1 -0.48017,-0.85324 0.48016744,0.85324723 0 0 1 0.48017,-0.85325 0.48016744,0.85324723 0 0 1 0.48018,0.85325 z m -1.98471,-0.28442 a 0.51217857,0.93081506 0 0 1 -0.51219,0.93082 0.51217857,0.93081506 0 0 1 -0.51218,-0.93082 0.51217857,0.93081506 0 0 1 0.51218,-0.93082 0.51217857,0.93081506 0 0 1 0.51219,0.93082 z m 3.6551,-6.14446 a 0.73625677,0.87910317 0 0 1 -0.73626,0.87911 0.73625677,0.87910317 0 0 1 -0.73627,-0.87911 0.73625677,0.87910317 0 0 1 0.73627,-0.8791 0.73625677,0.87910317 0 0 1 0.73626,0.8791 z m 4.03347,-4.36966 a 0.99234606,0.38783962 0 0 1 -0.99237,0.38784 0.99234606,0.38783962 0 0 1 -0.99235,-0.38784 0.99234606,0.38783962 0 0 1 0.99235,-0.38784 0.99234606,0.38783962 0 0 1 0.99237,0.38784 z m -2.88105,-0.10342 a 0.92832376,0.5429755 0 0 1 -0.92834,0.54298 0.92832376,0.5429755 0 0 1 -0.92833,-0.54298 0.92832376,0.5429755 0 0 1 0.92833,-0.54298 0.92832376,0.5429755 0 0 1 0.92834,0.54298 z m 1.85667,4.80921 a 0.73625677,0.59468743 0 0 1 -0.73627,0.59469 0.73625677,0.59468743 0 0 1 -0.73626,-0.59469 0.73625677,0.59468743 0 0 1 0.73626,-0.59469 0.73625677,0.59468743 0 0 1 0.73627,0.59469 z m 0.44817,-2.43046 a 0.48016744,0.85324723 0 0 1 -0.48018,0.85324 0.48016744,0.85324723 0 0 1 -0.48018,-0.85324 0.48016744,0.85324723 0 0 1 0.48018,-0.85325 0.48016744,0.85324723 0 0 1 0.48018,0.85325 z m -1.98472,-0.28442 a 0.51217857,0.93081506 0 0 1 -0.51219,0.93082 0.51217857,0.93081506 0 0 1 -0.51218,-0.93082 0.51217857,0.93081506 0 0 1 0.51218,-0.93081 0.51217857,0.93081506 0 0 1 0.51219,0.93081 z m -8.86572,2.00818 a 0.73625677,0.87910317 0 0 1 -0.73626,0.8791 0.73625677,0.87910317 0 0 1 -0.73627,-0.8791 0.73625677,0.87910317 0 0 1 0.73627,-0.8791 0.73625677,0.87910317 0 0 1 0.73626,0.8791 z m 4.03345,-4.36966 a 0.99234606,0.38783962 0 0 1 -0.99236,0.38784 0.99234606,0.38783962 0 0 1 -0.99235,-0.38784 0.99234606,0.38783962 0 0 1 0.99235,-0.38784 0.99234606,0.38783962 0 0 1 0.99236,0.38784 z m -2.88103,-0.10343 a 0.92832376,0.5429755 0 0 1 -0.92833,0.54298 0.92832376,0.5429755 0 0 1 -0.92834,-0.54298 0.92832376,0.5429755 0 0 1 0.92834,-0.54297 0.92832376,0.5429755 0 0 1 0.92833,0.54297 z m 1.85667,4.80921 a 0.73625677,0.59468743 0 0 1 -0.73627,0.59469 0.73625677,0.59468743 0 0 1 -0.73626,-0.59469 0.73625677,0.59468743 0 0 1 0.73626,-0.59468 0.73625677,0.59468743 0 0 1 0.73627,0.59468 z m 0.44817,-2.43046 a 0.48016744,0.85324723 0 0 1 -0.48018,0.85325 0.48016744,0.85324723 0 0 1 -0.48017,-0.85325 0.48016744,0.85324723 0 0 1 0.48017,-0.85324 0.48016744,0.85324723 0 0 1 0.48018,0.85324 z m -1.98472,-0.28441 a 0.51217857,0.93081506 0 0 1 -0.51219,0.93081 0.51217857,0.93081506 0 0 1 -0.51218,-0.93081 0.51217857,0.93081506 0 0 1 0.51218,-0.93082 0.51217857,0.93081506 0 0 1 0.51219,0.93082 z m -6.25186,-7.00274 h 21.706071 c 0.54987,0 0.99255,0.45429 0.99255,1.01859 v 37.69135 c 0,0.5643 -0.44268,1.01859 -0.99255,1.01859 H 37.913708 c -0.54987,0 -0.99255,-0.45429 -0.99255,-1.01859 v -37.69135 c 0,-0.5643 0.44268,-1.01859 0.99255,-1.01859 z m 3.77906,2.96609 h 14.292411 c 0.56213,0 1.01468,0.46443 1.01468,1.04131 v 30.82437 c 0,0.57688 -0.45255,1.04131 -1.01468,1.04131 H 41.692768 c -0.56214,0 -1.01469,-0.46443 -1.01469,-1.04131 v -30.82437 c 0,-0.57688 0.45255,-1.04131 1.01469,-1.04131 z m -17.63766,31.87969 a 0.73625677,0.87910317 0 0 1 -0.73626,0.8791 0.73625677,0.87910317 0 0 1 -0.73627,-0.8791 0.73625677,0.87910317 0 0 1 0.73627,-0.87911 0.73625677,0.87910317 0 0 1 0.73626,0.87911 z m 4.03343,-4.36967 a 0.99234606,0.38783962 0 0 1 -0.99236,0.38784 0.99234606,0.38783962 0 0 1 -0.99235,-0.38784 0.99234606,0.38783962 0 0 1 0.99235,-0.38784 0.99234606,0.38783962 0 0 1 0.99236,0.38784 z m -2.88103,-0.10343 a 0.92832376,0.5429755 0 0 1 -0.92833,0.54298 0.92832376,0.5429755 0 0 1 -0.92832,-0.54298 0.92832376,0.5429755 0 0 1 0.92832,-0.54297 0.92832376,0.5429755 0 0 1 0.92833,0.54297 z m 1.85667,4.80922 a 0.73625677,0.59468743 0 0 1 -0.73627,0.59469 0.73625677,0.59468743 0 0 1 -0.73626,-0.59469 0.73625677,0.59468743 0 0 1 0.73626,-0.59469 0.73625677,0.59468743 0 0 1 0.73627,0.59469 z m 0.44815,-2.43046 a 0.48016744,0.85324723 0 0 1 -0.48017,0.85324 0.48016744,0.85324723 0 0 1 -0.48017,-0.85324 0.48016744,0.85324723 0 0 1 0.48017,-0.85325 0.48016744,0.85324723 0 0 1 0.48017,0.85325 z m -1.9847,-0.28442 a 0.51217857,0.93081506 0 0 1 -0.51218,0.93082 0.51217857,0.93081506 0 0 1 -0.51218,-0.93082 0.51217857,0.93081506 0 0 1 0.51218,-0.93081 0.51217857,0.93081506 0 0 1 0.51218,0.93081 z m -9.05192,2.37876 a 0.73625677,0.87910317 0 0 1 -0.73626,0.8791 0.73625677,0.87910317 0 0 1 -0.73626,-0.8791 0.73625677,0.87910317 0 0 1 0.73626,-0.87911 0.73625677,0.87910317 0 0 1 0.73626,0.87911 z m 4.03343,-4.36967 a 0.99234606,0.38783962 0 0 1 -0.99235,0.38784 0.99234606,0.38783962 0 0 1 -0.99235,-0.38784 0.99234606,0.38783962 0 0 1 0.99235,-0.38784 0.99234606,0.38783962 0 0 1 0.99235,0.38784 z m -2.88102,-0.10343 a 0.92832376,0.5429755 0 0 1 -0.92833,0.54298 0.92832376,0.5429755 0 0 1 -0.92833,-0.54298 0.92832376,0.5429755 0 0 1 0.92833,-0.54297 0.92832376,0.5429755 0 0 1 0.92833,0.54297 z m 1.85666,4.80922 a 0.73625677,0.59468743 0 0 1 -0.73626,0.59469 0.73625677,0.59468743 0 0 1 -0.73626,-0.59469 0.73625677,0.59468743 0 0 1 0.73626,-0.59469 0.73625677,0.59468743 0 0 1 0.73626,0.59469 z m 0.44816,-2.43046 a 0.48016744,0.85324723 0 0 1 -0.48017,0.85324 0.48016744,0.85324723 0 0 1 -0.48017,-0.85324 0.48016744,0.85324723 0 0 1 0.48017,-0.85325 0.48016744,0.85324723 0 0 1 0.48017,0.85325 z m -1.98471,-0.28442 a 0.51217857,0.93081506 0 0 1 -0.51218,0.93082 0.51217857,0.93081506 0 0 1 -0.51218,-0.93082 0.51217857,0.93081506 0 0 1 0.51218,-0.93081 0.51217857,0.93081506 0 0 1 0.51218,0.93081 z m 5.66103,-12.8346 a 0.73625677,0.87910317 0 0 1 -0.73626,0.87911 0.73625677,0.87910317 0 0 1 -0.73626,-0.87911 0.73625677,0.87910317 0 0 1 0.73626,-0.8791 0.73625677,0.87910317 0 0 1 0.73626,0.8791 z m 4.03343,-4.36966 a 0.99234606,0.38783962 0 0 1 -0.99235,0.38784 0.99234606,0.38783962 0 0 1 -0.99235,-0.38784 0.99234606,0.38783962 0 0 1 0.99235,-0.38783 0.99234606,0.38783962 0 0 1 0.99235,0.38783 z m -2.88102,-0.10342 a 0.92832376,0.5429755 0 0 1 -0.92833,0.54297 0.92832376,0.5429755 0 0 1 -0.92833,-0.54297 0.92832376,0.5429755 0 0 1 0.92833,-0.54297 0.92832376,0.5429755 0 0 1 0.92833,0.54297 z m 1.85666,4.80921 a 0.73625677,0.59468743 0 0 1 -0.73626,0.59469 0.73625677,0.59468743 0 0 1 -0.73627,-0.59469 0.73625677,0.59468743 0 0 1 0.73627,-0.59469 0.73625677,0.59468743 0 0 1 0.73626,0.59469 z m 0.44816,-2.43046 a 0.48016744,0.85324723 0 0 1 -0.48017,0.85324 0.48016744,0.85324723 0 0 1 -0.48017,-0.85324 0.48016744,0.85324723 0 0 1 0.48017,-0.85325 0.48016744,0.85324723 0 0 1 0.48017,0.85325 z m -1.98471,-0.28442 a 0.51217857,0.93081506 0 0 1 -0.51218,0.93082 0.51217857,0.93081506 0 0 1 -0.51218,-0.93082 0.51217857,0.93081506 0 0 1 0.51218,-0.93081 0.51217857,0.93081506 0 0 1 0.51218,0.93081 z m -1.91837,10.38578 a 0.73625677,0.87910317 0 0 1 -0.73626,0.8791 0.73625677,0.87910317 0 0 1 -0.73626,-0.8791 0.73625677,0.87910317 0 0 1 0.73626,-0.8791 0.73625677,0.87910317 0 0 1 0.73626,0.8791 z m 4.03344,-4.36966 a 0.99234606,0.38783962 0 0 1 -0.99236,0.38784 0.99234606,0.38783962 0 0 1 -0.99235,-0.38784 0.99234606,0.38783962 0 0 1 0.99235,-0.38784 0.99234606,0.38783962 0 0 1 0.99236,0.38784 z m -2.88103,-0.10342 a 0.92832376,0.5429755 0 0 1 -0.92833,0.54298 0.92832376,0.5429755 0 0 1 -0.92833,-0.54298 0.92832376,0.5429755 0 0 1 0.92833,-0.54298 0.92832376,0.5429755 0 0 1 0.92833,0.54298 z m 1.85666,4.8092 a 0.73625677,0.59468743 0 0 1 -0.73626,0.59469 0.73625677,0.59468743 0 0 1 -0.73626,-0.59469 0.73625677,0.59468743 0 0 1 0.73626,-0.59468 0.73625677,0.59468743 0 0 1 0.73626,0.59468 z m 0.44816,-2.43046 a 0.48016744,0.85324723 0 0 1 -0.48017,0.85325 0.48016744,0.85324723 0 0 1 -0.48017,-0.85325 0.48016744,0.85324723 0 0 1 0.48017,-0.85324 0.48016744,0.85324723 0 0 1 0.48017,0.85324 z m -1.9847,-0.28441 a 0.51217857,0.93081506 0 0 1 -0.51219,0.93081 0.51217857,0.93081506 0 0 1 -0.51218,-0.93081 0.51217857,0.93081506 0 0 1 0.51218,-0.93081 0.51217857,0.93081506 0 0 1 0.51219,0.93081 z m -8.16023,1.46366 a 0.73625677,0.87910317 0 0 1 -0.73626,0.8791 0.73625677,0.87910317 0 0 1 -0.73626,-0.8791 0.73625677,0.87910317 0 0 1 0.73626,-0.8791 0.73625677,0.87910317 0 0 1 0.73626,0.8791 z m 4.03343,-4.36966 a 0.99234606,0.38783962 0 0 1 -0.99235,0.38784 0.99234606,0.38783962 0 0 1 -0.99235,-0.38784 0.99234606,0.38783962 0 0 1 0.99235,-0.38784 0.99234606,0.38783962 0 0 1 0.99235,0.38784 z m -2.88102,-0.10342 a 0.92832376,0.5429755 0 0 1 -0.92833,0.54298 0.92832376,0.5429755 0 0 1 -0.92833,-0.54298 0.92832376,0.5429755 0 0 1 0.92833,-0.54298 0.92832376,0.5429755 0 0 1 0.92833,0.54298 z m 1.85666,4.80921 a 0.73625677,0.59468743 0 0 1 -0.73626,0.59469 0.73625677,0.59468743 0 0 1 -0.73626,-0.59469 0.73625677,0.59468743 0 0 1 0.73626,-0.59469 0.73625677,0.59468743 0 0 1 0.73626,0.59469 z m 0.44816,-2.43046 a 0.48016744,0.85324723 0 0 1 -0.48017,0.85324 0.48016744,0.85324723 0 0 1 -0.48017,-0.85324 0.48016744,0.85324723 0 0 1 0.48017,-0.85325 0.48016744,0.85324723 0 0 1 0.48017,0.85325 z m -1.98471,-0.28442 a 0.51217857,0.93081506 0 0 1 -0.51218,0.93082 0.51217857,0.93081506 0 0 1 -0.51218,-0.93082 0.51217857,0.93081506 0 0 1 0.51218,-0.93081 0.51217857,0.93081506 0 0 1 0.51218,0.93081 z m -0.0281,-6.07034 a 0.73625677,0.87910317 0 0 1 -0.73625,0.8791 0.73625677,0.87910317 0 0 1 -0.73626,-0.8791 0.73625677,0.87910317 0 0 1 0.73626,-0.8791 0.73625677,0.87910317 0 0 1 0.73625,0.8791 z m 4.03344,-4.36966 a 0.99234606,0.38783962 0 0 1 -0.99235,0.38784 0.99234606,0.38783962 0 0 1 -0.99235,-0.38784 0.99234606,0.38783962 0 0 1 0.99235,-0.38784 0.99234606,0.38783962 0 0 1 0.99235,0.38784 z m -2.88102,-0.10342 a 0.92832376,0.5429755 0 0 1 -0.92833,0.54297 0.92832376,0.5429755 0 0 1 -0.92833,-0.54297 0.92832376,0.5429755 0 0 1 0.92833,-0.54298 0.92832376,0.5429755 0 0 1 0.92833,0.54298 z m 1.85665,4.80921 a 0.73625677,0.59468743 0 0 1 -0.73626,0.59469 0.73625677,0.59468743 0 0 1 -0.73626,-0.59469 0.73625677,0.59468743 0 0 1 0.73626,-0.59469 0.73625677,0.59468743 0 0 1 0.73626,0.59469 z m 0.44816,-2.43046 a 0.48016744,0.85324723 0 0 1 -0.48016,0.85324 0.48016744,0.85324723 0 0 1 -0.48017,-0.85324 0.48016744,0.85324723 0 0 1 0.48017,-0.85325 0.48016744,0.85324723 0 0 1 0.48016,0.85325 z m -1.9847,-0.28442 a 0.51217857,0.93081506 0 0 1 -0.51218,0.93082 0.51217857,0.93081506 0 0 1 -0.51218,-0.93082 0.51217857,0.93081506 0 0 1 0.51218,-0.93082 0.51217857,0.93081506 0 0 1 0.51218,0.93082 z m 3.65509,-6.14446 a 0.73625677,0.87910317 0 0 1 -0.73625,0.87911 0.73625677,0.87910317 0 0 1 -0.73627,-0.87911 0.73625677,0.87910317 0 0 1 0.73627,-0.8791 0.73625677,0.87910317 0 0 1 0.73625,0.8791 z m 4.03344,-4.36966 a 0.99234606,0.38783962 0 0 1 -0.99235,0.38784 0.99234606,0.38783962 0 0 1 -0.99235,-0.38784 0.99234606,0.38783962 0 0 1 0.99235,-0.38784 0.99234606,0.38783962 0 0 1 0.99235,0.38784 z m -2.88103,-0.10342 a 0.92832376,0.5429755 0 0 1 -0.92833,0.54298 0.92832376,0.5429755 0 0 1 -0.92832,-0.54298 0.92832376,0.5429755 0 0 1 0.92832,-0.54298 0.92832376,0.5429755 0 0 1 0.92833,0.54298 z m 1.85666,4.80921 a 0.73625677,0.59468743 0 0 1 -0.73626,0.59469 0.73625677,0.59468743 0 0 1 -0.73626,-0.59469 0.73625677,0.59468743 0 0 1 0.73626,-0.59469 0.73625677,0.59468743 0 0 1 0.73626,0.59469 z m 0.44816,-2.43046 a 0.48016744,0.85324723 0 0 1 -0.48017,0.85324 0.48016744,0.85324723 0 0 1 -0.48017,-0.85324 0.48016744,0.85324723 0 0 1 0.48017,-0.85325 0.48016744,0.85324723 0 0 1 0.48017,0.85325 z m -1.9847,-0.28442 a 0.51217857,0.93081506 0 0 1 -0.51218,0.93082 0.51217857,0.93081506 0 0 1 -0.51218,-0.93082 0.51217857,0.93081506 0 0 1 0.51218,-0.93081 0.51217857,0.93081506 0 0 1 0.51218,0.93081 z m -8.86568,2.00818 a 0.73625677,0.87910317 0 0 1 -0.73626,0.8791 0.73625677,0.87910317 0 0 1 -0.73626,-0.8791 0.73625677,0.87910317 0 0 1 0.73626,-0.8791 0.73625677,0.87910317 0 0 1 0.73626,0.8791 z m 4.03343,-4.36966 a 0.99234606,0.38783962 0 0 1 -0.99235,0.38784 0.99234606,0.38783962 0 0 1 -0.99235,-0.38784 0.99234606,0.38783962 0 0 1 0.99235,-0.38784 0.99234606,0.38783962 0 0 1 0.99235,0.38784 z m -2.88102,-0.10343 a 0.92832376,0.5429755 0 0 1 -0.92833,0.54298 0.92832376,0.5429755 0 0 1 -0.92833,-0.54298 0.92832376,0.5429755 0 0 1 0.92833,-0.54297 0.92832376,0.5429755 0 0 1 0.92833,0.54297 z m 1.85666,4.80921 a 0.73625677,0.59468743 0 0 1 -0.73626,0.59469 0.73625677,0.59468743 0 0 1 -0.73626,-0.59469 0.73625677,0.59468743 0 0 1 0.73626,-0.59468 0.73625677,0.59468743 0 0 1 0.73626,0.59468 z m 0.44816,-2.43046 a 0.48016744,0.85324723 0 0 1 -0.48017,0.85325 0.48016744,0.85324723 0 0 1 -0.48017,-0.85325 0.48016744,0.85324723 0 0 1 0.48017,-0.85324 0.48016744,0.85324723 0 0 1 0.48017,0.85324 z m -1.9847,-0.28441 a 0.51217857,0.93081506 0 0 1 -0.51218,0.93081 0.51217857,0.93081506 0 0 1 -0.51218,-0.93081 0.51217857,0.93081506 0 0 1 0.51218,-0.93082 0.51217857,0.93081506 0 0 1 0.51218,0.93082 z m -6.25181,-7.00274 h 21.70597 c 0.54987,0 0.99255,0.45429 0.99255,1.01859 v 37.69135 c 0,0.5643 -0.44268,1.01859 -0.99255,1.01859 h -21.70602 c -0.54987,0 -0.9925402,-0.45429 -0.9925402,-1.01859 v -37.69135 c 0,-0.5643 0.4426702,-1.01859 0.9925402,-1.01859 z m 3.77903,2.96609 h 14.29233 c 0.56214,0 1.01469,0.46443 1.01469,1.04131 v 30.82437 c 0,0.57688 -0.45255,1.04131 -1.01469,1.04131 h -14.29238 c -0.56214,0 -1.01469,-0.46443 -1.01469,-1.04131 v -30.82437 c 0,-0.57688 0.45255,-1.04131 1.01469,-1.04131 z M 6.8815878,119.68126 H 61.861099 c 4.79236,0 8.65049,3.51473 8.65049,7.88057 v 86.92528 c 0,4.36587 -3.85813,7.88061 -8.65049,7.88061 H 6.8815878 c -4.7923705,0 -8.6504905,-3.51474 -8.6504905,-7.88061 v -86.92528 c 0,-4.36584 3.85812,-7.88057 8.6504905,-7.88057 z m 6.8373402,7.2966 h 43.062991 c 4.79237,0 8.65049,3.51473 8.65049,7.88056 v 74.46766 c 0,4.36587 -3.85812,7.88062 -8.65049,7.88062 H 13.718928 c -4.7923602,0 -8.6504802,-3.51475 -8.6504802,-7.88062 v -74.46766 c 0,-4.36583 3.85812,-7.88056 8.6504802,-7.88056 z" />
    <path
       style="fill:#ffffff;fill-rule:evenodd;stroke:#000000;stroke-width:7.77991;stroke-linecap:round;stroke-linejoin:round;stroke-miterlimit:4;stroke-dasharray:none;paint-order:stroke markers fill"
       d="m 42.84726,816.41262 c -2.440274,-0.73246 -6.873906,-3.19059 -9.852516,-5.46248 -10.879159,-8.29794 -10.232407,2.42192 -9.770363,-161.943 l 0.417681,-148.5835 3.653635,-5.12245 c 2.009499,-2.81734 4.3146,-5.12244 5.122446,-5.12244 0.885554,0 1.468812,27.72635 1.468812,69.82288 0,52.20518 0.477229,70.30012 1.891365,71.71426 2.698426,2.69842 89.66323,2.69842 92.36165,0 1.4166,-1.4166 1.89137,-20.20959 1.89137,-74.86653 0,-71.92441 0.0454,-72.97516 3.15227,-72.97516 3.10689,0 3.15228,1.05075 3.15228,72.97516 0,54.65694 0.47477,73.44993 1.89136,74.86653 2.69843,2.69842 89.66323,2.69842 92.36166,0 1.41414,-1.41414 1.89136,-19.50908 1.89136,-71.71426 0,-42.09653 0.58327,-69.82288 1.46882,-69.82288 0.80783,0 3.11294,2.3051 5.12245,5.12244 l 3.65363,5.12245 0.41985,148.15692 c 0.30643,108.1383 -0.0652,149.32963 -1.37633,152.49855 -2.49402,6.02842 -11.207,13.29331 -18.30813,15.26531 -7.22018,2.00507 -173.950756,2.06802 -180.6133,0.0683 z M 165.3738,795.37456 c 25.89133,-12.79619 41.82253,-39.77788 41.86957,-70.9119 0.0345,-22.82892 -6.95539,-41.04986 -21.66239,-56.46861 -15.79782,-16.56237 -30.40892,-22.49637 -52.95457,-21.50644 -12.08737,0.53073 -16.13685,1.43869 -25.06847,5.62082 -14.900558,6.97701 -26.562002,18.49416 -34.22218,33.79872 l -6.196212,12.37966 -1.012522,-5.3972 c -1.322348,-7.04872 -9.00893,-14.78907 -15.986182,-16.09802 -13.445786,-2.52243 -24.11661,5.98374 -24.128684,19.23405 -0.01661,18.22385 22.107984,27.61597 34.905992,14.81797 l 4.49097,-4.49096 -0.984294,10.59062 c -3.363539,36.19035 17.460509,70.48534 49.653412,81.77385 8.7918,3.08288 12.74147,3.55999 25.06129,3.02742 12.95643,-0.5601 15.94898,-1.28672 26.23427,-6.36998 z m 66.35825,-72.90748 c 4.62655,-4.99212 6.07251,-11.78138 5.16913,-24.27057 -0.83116,-11.49049 -5.28562,-17.30513 -13.25708,-17.30513 -9.66273,0 -15.68414,15.58134 -12.52634,32.41386 2.27658,12.1352 13.31288,17.04019 20.61429,9.16184 z"
       id="path893"
       transform="scale(0.26458333)" />
    <path
       style="fill:#ffffff;fill-rule:evenodd;stroke:#000000;stroke-width:7.77991;stroke-linecap:round;stroke-linejoin:round;stroke-miterlimit:4;stroke-dasharray:none;paint-order:stroke markers fill"
       d="m 122.7157,776.89286 c -8.01423,-2.32222 -19.69064,-11.29329 -25.307558,-19.44398 -11.458957,-16.62805 -12.836872,-36.81259 -3.770287,-55.22944 17.517105,-35.58229 63.704675,-38.09201 85.775555,-4.66083 5.7648,8.73205 9.48489,24.39446 8.21266,34.57708 -2.35053,18.81303 -17.30255,38.46343 -33.45451,43.96695 -7.95328,2.70996 -23.48417,3.10012 -31.45586,0.79022 z m 27.50219,-31.07596 c 8.52689,-5.53646 12.34996,-22.57711 7.61017,-33.92102 -5.55791,-13.30195 -20.89098,-17.94805 -31.04238,-9.40621 -9.21645,7.75514 -11.88655,20.8923 -6.81997,33.55495 5.00811,12.51649 19.04318,17.0502 30.25218,9.77228 z"
       id="path932"
       transform="scale(0.26458333)" />
  </g>
  <g
     inkscape:groupmode="layer"
     id="layer4"
     inkscape:label="Layer 4" />
</svg>
