<?xml version="1.0" encoding="UTF-8" standalone="no"?>
<svg
   width="210mm"
   height="297mm"
   viewBox="0 0 210 297"
   version="1.1"
   id="svg8"
   inkscape:version="1.1.2 (0a00cf5339, 2022-02-04, custom)"
   sodipodi:docname="Radio fx procssor track icon.svg"
   inkscape:export-filename="C:\Users\steven\Desktop\formating icons\table icon.png"
   inkscape:export-xdpi="96"
   inkscape:export-ydpi="96"
   xmlns:inkscape="http://www.inkscape.org/namespaces/inkscape"
   xmlns:sodipodi="http://sodipodi.sourceforge.net/DTD/sodipodi-0.dtd"
   xmlns="http://www.w3.org/2000/svg"
   xmlns:svg="http://www.w3.org/2000/svg"
   xmlns:rdf="http://www.w3.org/1999/02/22-rdf-syntax-ns#"
   xmlns:cc="http://creativecommons.org/ns#"
   xmlns:dc="http://purl.org/dc/elements/1.1/">
  <defs
     id="defs2">
    <inkscape:path-effect
       effect="spiro"
       id="path-effect1578"
       is_visible="true"
       lpeversion="1" />
    <inkscape:path-effect
       effect="spiro"
       id="path-effect1069"
       is_visible="true"
       lpeversion="1" />
    <inkscape:path-effect
       effect="spiro"
       id="path-effect1953"
       is_visible="true"
       lpeversion="1" />
    <inkscape:path-effect
       effect="spiro"
       id="path-effect1947"
       is_visible="true"
       lpeversion="1" />
    <inkscape:path-effect
       effect="spiro"
       id="path-effect1861"
       is_visible="true"
       lpeversion="1" />
    <inkscape:path-effect
       effect="spiro"
       id="path-effect1855"
       is_visible="true"
       lpeversion="1" />
  </defs>
  <sodipodi:namedview
     id="base"
     pagecolor="#ffffff"
     bordercolor="#666666"
     borderopacity="1.0"
     inkscape:pageopacity="0.0"
     inkscape:pageshadow="2"
     inkscape:zoom="1.1789508"
     inkscape:cx="349.88737"
     inkscape:cy="291.36076"
     inkscape:document-units="mm"
     inkscape:current-layer="layer1"
     inkscape:document-rotation="0"
     showgrid="false"
     inkscape:window-width="1680"
     inkscape:window-height="956"
     inkscape:window-x="-11"
     inkscape:window-y="-11"
     inkscape:window-maximized="1"
     inkscape:pagecheckerboard="0" />
  <metadata
     id="metadata5">
    <rdf:RDF>
      <cc:Work
         rdf:about="">
        <dc:format>image/svg+xml</dc:format>
        <dc:type
           rdf:resource="http://purl.org/dc/dcmitype/StillImage" />
      </cc:Work>
    </rdf:RDF>
  </metadata>
  <g
     inkscape:label="Layer 1"
     inkscape:groupmode="layer"
     id="layer1">
    <path
       id="path834"
       style="fill:none;fill-rule:evenodd;stroke:#000000;stroke-width:0.406078;stroke-linecap:round;stroke-linejoin:round;paint-order:stroke markers fill"
       d="m 16.420753,60.385456 c 0.51029,-0.2119 1.1001,0.009 1.32243,0.49435 l 1.91405,4.18181 c 0.22234,0.48577 -0.01,1.04742 -0.51977,1.25932 -0.5103,0.2119 -1.10009,-0.009 -1.32243,-0.49434 l -1.91404,-4.18182 c -0.22235,-0.48576 0.009,-1.04742 0.51976,-1.25932 z m 6.60128,2.04387 a 4.6510895,4.47295 33.442754 0 1 -2.26633,5.91772 4.6510895,4.47295 33.442754 0 1 -6.09443,-2.4459 4.6510895,4.47295 33.442754 0 1 2.26633,-5.91772 4.6510895,4.47295 33.442754 0 1 6.09443,2.4459 z m 45.352541,1.02754 c 0.11748,0.60207 -0.0388,1.26951 -0.35038,1.4965 l -2.68236,1.95415 c -0.31159,0.227 -0.657,-0.075 -0.77448,-0.67703 -0.11747,-0.60207 0.0388,-1.26951 0.35038,-1.4965 l 2.68236,-1.95415 c 0.31158,-0.22699 0.657,0.075 0.77448,0.67703 z m -1.48308,7.49611 a 2.8476177,5.3064088 1.4151422 0 1 -3.64473,-2.9781 2.8476177,5.3064088 1.4151422 0 1 1.71996,-6.8864 2.8476177,5.3064088 1.4151422 0 1 3.64474,2.9781 2.8476177,5.3064088 1.4151422 0 1 -1.71997,6.8864 z m -24.179871,-5.31725 c 0.95291,0 1.72007,0.69887 1.72007,1.56697 v 4.70093 c 0,0.86811 -0.76716,1.56698 -1.72007,1.56698 -0.95292,0 -1.72007,-0.69887 -1.72007,-1.56698 v -4.70093 c 0,-0.8681 0.76715,-1.56697 1.72007,-1.56697 z m 5.54244,5.72083 a 4.8734985,6.0067425 0 0 1 -4.87352,6.00674 4.8734985,6.0067425 0 0 1 -4.87353,-6.00674 4.8734985,6.0067425 0 0 1 4.87353,-6.00674 4.8734985,6.0067425 0 0 1 4.87352,6.00674 z m 12.51388,0.11696 a 18.161358,19.926379 0 0 1 -18.16146,19.92638 18.161358,19.926379 0 0 1 -18.16146,-19.92638 18.161358,19.926379 0 0 1 18.16146,-19.92638 18.161358,19.926379 0 0 1 18.16146,19.92638 z m -3.51002,0.62288 a 14.162991,14.860135 0 0 1 -14.16306,14.86014 14.162991,14.860135 0 0 1 -14.16307,-14.86014 14.162991,14.860135 0 0 1 14.16307,-14.86013 14.162991,14.860135 0 0 1 14.16306,14.86013 z m 0.50801,-30.2236 a 0.73625677,0.87910317 0 0 1 -0.73626,0.8791 0.73625677,0.87910317 0 0 1 -0.73627,-0.8791 0.73625677,0.87910317 0 0 1 0.73627,-0.87911 0.73625677,0.87910317 0 0 1 0.73626,0.87911 z m 4.033461,-4.36967 a 0.99234606,0.38783962 0 0 1 -0.992361,0.38784 0.99234606,0.38783962 0 0 1 -0.99236,-0.38784 0.99234606,0.38783962 0 0 1 0.99236,-0.38784 0.99234606,0.38783962 0 0 1 0.992361,0.38784 z m -2.881041,-0.10343 a 0.92832376,0.5429755 0 0 1 -0.92834,0.54298 0.92832376,0.5429755 0 0 1 -0.92833,-0.54298 0.92832376,0.5429755 0 0 1 0.92833,-0.54297 0.92832376,0.5429755 0 0 1 0.92834,0.54297 z m 1.85667,4.80922 a 0.73625677,0.59468743 0 0 1 -0.73627,0.59469 0.73625677,0.59468743 0 0 1 -0.73627,-0.59469 0.73625677,0.59468743 0 0 1 0.73627,-0.59469 0.73625677,0.59468743 0 0 1 0.73627,0.59469 z m 0.44816,-2.43046 a 0.48016744,0.85324723 0 0 1 -0.48017,0.85324 0.48016744,0.85324723 0 0 1 -0.48018,-0.85324 0.48016744,0.85324723 0 0 1 0.48018,-0.85325 0.48016744,0.85324723 0 0 1 0.48017,0.85325 z m -1.98472,-0.28442 a 0.51217857,0.93081506 0 0 1 -0.51218,0.93082 0.51217857,0.93081506 0 0 1 -0.51219,-0.93082 0.51217857,0.93081506 0 0 1 0.51219,-0.93081 0.51217857,0.93081506 0 0 1 0.51218,0.93081 z m -9.05195,2.37876 a 0.73625677,0.87910317 0 0 1 -0.73627,0.8791 0.73625677,0.87910317 0 0 1 -0.73626,-0.8791 0.73625677,0.87910317 0 0 1 0.73626,-0.87911 0.73625677,0.87910317 0 0 1 0.73627,0.87911 z m 4.03344,-4.36967 a 0.99234606,0.38783962 0 0 1 -0.99235,0.38784 0.99234606,0.38783962 0 0 1 -0.99235,-0.38784 0.99234606,0.38783962 0 0 1 0.99235,-0.38784 0.99234606,0.38783962 0 0 1 0.99235,0.38784 z m -2.88103,-0.10343 a 0.92832376,0.5429755 0 0 1 -0.92834,0.54298 0.92832376,0.5429755 0 0 1 -0.92833,-0.54298 0.92832376,0.5429755 0 0 1 0.92833,-0.54297 0.92832376,0.5429755 0 0 1 0.92834,0.54297 z m 1.85667,4.80922 a 0.73625677,0.59468743 0 0 1 -0.73627,0.59469 0.73625677,0.59468743 0 0 1 -0.73626,-0.59469 0.73625677,0.59468743 0 0 1 0.73626,-0.59469 0.73625677,0.59468743 0 0 1 0.73627,0.59469 z m 0.44816,-2.43046 a 0.48016744,0.85324723 0 0 1 -0.48017,0.85324 0.48016744,0.85324723 0 0 1 -0.48017,-0.85324 0.48016744,0.85324723 0 0 1 0.48017,-0.85325 0.48016744,0.85324723 0 0 1 0.48017,0.85325 z m -1.98471,-0.28442 a 0.51217857,0.93081506 0 0 1 -0.51218,0.93082 0.51217857,0.93081506 0 0 1 -0.51219,-0.93082 0.51217857,0.93081506 0 0 1 0.51219,-0.93081 0.51217857,0.93081506 0 0 1 0.51218,0.93081 z m 5.66104,-12.834599 a 0.73625677,0.87910317 0 0 1 -0.73626,0.879102 0.73625677,0.87910317 0 0 1 -0.73627,-0.879102 0.73625677,0.87910317 0 0 1 0.73627,-0.879106 0.73625677,0.87910317 0 0 1 0.73626,0.879106 z m 4.03346,-4.369661 a 0.99234606,0.38783962 0 0 1 -0.99236,0.387837 0.99234606,0.38783962 0 0 1 -0.99236,-0.387837 0.99234606,0.38783962 0 0 1 0.99236,-0.387836 0.99234606,0.38783962 0 0 1 0.99236,0.387836 z m -2.88105,-0.103424 a 0.92832376,0.5429755 0 0 1 -0.92832,0.542975 0.92832376,0.5429755 0 0 1 -0.92834,-0.542975 0.92832376,0.5429755 0 0 1 0.92834,-0.542974 0.92832376,0.5429755 0 0 1 0.92832,0.542974 z m 1.85668,4.809212 a 0.73625677,0.59468743 0 0 1 -0.73627,0.594689 0.73625677,0.59468743 0 0 1 -0.73626,-0.594689 0.73625677,0.59468743 0 0 1 0.73626,-0.594689 0.73625677,0.59468743 0 0 1 0.73627,0.594689 z m 0.44816,-2.430465 a 0.48016744,0.85324723 0 0 1 -0.48017,0.853246 0.48016744,0.85324723 0 0 1 -0.48018,-0.853246 0.48016744,0.85324723 0 0 1 0.48018,-0.853247 0.48016744,0.85324723 0 0 1 0.48017,0.853247 z m -1.98471,-0.284413 a 0.51217857,0.93081506 0 0 1 -0.51219,0.930816 0.51217857,0.93081506 0 0 1 -0.51218,-0.930816 0.51217857,0.93081506 0 0 1 0.51218,-0.930815 0.51217857,0.93081506 0 0 1 0.51219,0.930815 z m -1.91839,10.38578 a 0.73625677,0.87910317 0 0 1 -0.73626,0.8791 0.73625677,0.87910317 0 0 1 -0.73627,-0.8791 0.73625677,0.87910317 0 0 1 0.73627,-0.8791 0.73625677,0.87910317 0 0 1 0.73626,0.8791 z m 4.03346,-4.369662 a 0.99234606,0.38783962 0 0 1 -0.99236,0.387841 0.99234606,0.38783962 0 0 1 -0.99236,-0.387841 0.99234606,0.38783962 0 0 1 0.99236,-0.387841 0.99234606,0.38783962 0 0 1 0.99236,0.387841 z m -2.88104,-0.103424 a 0.92832376,0.5429755 0 0 1 -0.92834,0.542979 0.92832376,0.5429755 0 0 1 -0.92833,-0.542979 0.92832376,0.5429755 0 0 1 0.92833,-0.542975 0.92832376,0.5429755 0 0 1 0.92834,0.542975 z m 1.85667,4.809206 a 0.73625677,0.59468743 0 0 1 -0.73627,0.59469 0.73625677,0.59468743 0 0 1 -0.73626,-0.59469 0.73625677,0.59468743 0 0 1 0.73626,-0.59468 0.73625677,0.59468743 0 0 1 0.73627,0.59468 z m 0.44816,-2.43046 a 0.48016744,0.85324723 0 0 1 -0.48017,0.85325 0.48016744,0.85324723 0 0 1 -0.48018,-0.85325 0.48016744,0.85324723 0 0 1 0.48018,-0.853242 0.48016744,0.85324723 0 0 1 0.48017,0.853242 z m -1.98472,-0.28441 a 0.51217857,0.93081506 0 0 1 -0.51218,0.93081 0.51217857,0.93081506 0 0 1 -0.51218,-0.93081 0.51217857,0.93081506 0 0 1 0.51218,-0.930813 0.51217857,0.93081506 0 0 1 0.51218,0.930813 z m -8.16025,1.46366 a 0.73625677,0.87910317 0 0 1 -0.73627,0.8791 0.73625677,0.87910317 0 0 1 -0.73626,-0.8791 0.73625677,0.87910317 0 0 1 0.73626,-0.8791 0.73625677,0.87910317 0 0 1 0.73627,0.8791 z m 4.03344,-4.369663 a 0.99234606,0.38783962 0 0 1 -0.99235,0.387841 0.99234606,0.38783962 0 0 1 -0.99235,-0.387841 0.99234606,0.38783962 0 0 1 0.99235,-0.387836 0.99234606,0.38783962 0 0 1 0.99235,0.387836 z m -2.88103,-0.103424 a 0.92832376,0.5429755 0 0 1 -0.92834,0.542979 0.92832376,0.5429755 0 0 1 -0.92833,-0.542979 0.92832376,0.5429755 0 0 1 0.92833,-0.542974 0.92832376,0.5429755 0 0 1 0.92834,0.542974 z m 1.85667,4.809217 a 0.73625677,0.59468743 0 0 1 -0.73627,0.59469 0.73625677,0.59468743 0 0 1 -0.73626,-0.59469 0.73625677,0.59468743 0 0 1 0.73626,-0.59469 0.73625677,0.59468743 0 0 1 0.73627,0.59469 z m 0.44816,-2.430466 a 0.48016744,0.85324723 0 0 1 -0.48017,0.853246 0.48016744,0.85324723 0 0 1 -0.48017,-0.853246 0.48016744,0.85324723 0 0 1 0.48017,-0.853246 0.48016744,0.85324723 0 0 1 0.48017,0.853246 z m -1.98471,-0.284413 a 0.51217857,0.93081506 0 0 1 -0.51218,0.930819 0.51217857,0.93081506 0 0 1 -0.51219,-0.930819 0.51217857,0.93081506 0 0 1 0.51219,-0.930815 0.51217857,0.93081506 0 0 1 0.51218,0.930815 z m -0.0281,-6.070344 a 0.73625677,0.87910317 0 0 1 -0.73626,0.879102 0.73625677,0.87910317 0 0 1 -0.73627,-0.879102 0.73625677,0.87910317 0 0 1 0.73627,-0.879105 0.73625677,0.87910317 0 0 1 0.73626,0.879105 z m 4.03345,-4.369661 a 0.99234606,0.38783962 0 0 1 -0.99237,0.387841 0.99234606,0.38783962 0 0 1 -0.99234,-0.387841 0.99234606,0.38783962 0 0 1 0.99234,-0.38784 0.99234606,0.38783962 0 0 1 0.99237,0.38784 z m -2.88103,-0.103424 a 0.92832376,0.5429755 0 0 1 -0.92834,0.542975 0.92832376,0.5429755 0 0 1 -0.92834,-0.542975 0.92832376,0.5429755 0 0 1 0.92834,-0.542974 0.92832376,0.5429755 0 0 1 0.92834,0.542974 z m 1.85665,4.809212 a 0.73625677,0.59468743 0 0 1 -0.73626,0.594689 0.73625677,0.59468743 0 0 1 -0.73626,-0.594689 0.73625677,0.59468743 0 0 1 0.73626,-0.594689 0.73625677,0.59468743 0 0 1 0.73626,0.594689 z m 0.44817,-2.430461 a 0.48016744,0.85324723 0 0 1 -0.48018,0.853247 0.48016744,0.85324723 0 0 1 -0.48017,-0.853247 0.48016744,0.85324723 0 0 1 0.48017,-0.853246 0.48016744,0.85324723 0 0 1 0.48018,0.853246 z m -1.98471,-0.284417 a 0.51217857,0.93081506 0 0 1 -0.51219,0.930816 0.51217857,0.93081506 0 0 1 -0.51218,-0.930816 0.51217857,0.93081506 0 0 1 0.51218,-0.930815 0.51217857,0.93081506 0 0 1 0.51219,0.930815 z m 3.6551,-6.144458 a 0.73625677,0.87910317 0 0 1 -0.73626,0.879105 0.73625677,0.87910317 0 0 1 -0.73627,-0.879105 0.73625677,0.87910317 0 0 1 0.73627,-0.879102 0.73625677,0.87910317 0 0 1 0.73626,0.879102 z m 4.03347,-4.369657 a 0.99234606,0.38783962 0 0 1 -0.99237,0.387836 0.99234606,0.38783962 0 0 1 -0.99235,-0.387836 0.99234606,0.38783962 0 0 1 0.99235,-0.387841 0.99234606,0.38783962 0 0 1 0.99237,0.387841 z m -2.88105,-0.103428 a 0.92832376,0.5429755 0 0 1 -0.92834,0.542979 0.92832376,0.5429755 0 0 1 -0.92833,-0.542979 0.92832376,0.5429755 0 0 1 0.92833,-0.542975 0.92832376,0.5429755 0 0 1 0.92834,0.542975 z m 1.85667,4.809211 a 0.73625677,0.59468743 0 0 1 -0.73627,0.594689 0.73625677,0.59468743 0 0 1 -0.73626,-0.594689 0.73625677,0.59468743 0 0 1 0.73626,-0.594684 0.73625677,0.59468743 0 0 1 0.73627,0.594684 z m 0.44817,-2.43046 a 0.48016744,0.85324723 0 0 1 -0.48018,0.853246 0.48016744,0.85324723 0 0 1 -0.48018,-0.853246 0.48016744,0.85324723 0 0 1 0.48018,-0.853247 0.48016744,0.85324723 0 0 1 0.48018,0.853247 z m -1.98472,-0.284413 a 0.51217857,0.93081506 0 0 1 -0.51219,0.930811 0.51217857,0.93081506 0 0 1 -0.51218,-0.930811 0.51217857,0.93081506 0 0 1 0.51218,-0.930816 0.51217857,0.93081506 0 0 1 0.51219,0.930816 z m -8.86572,2.008174 a 0.73625677,0.87910317 0 0 1 -0.73626,0.879101 0.73625677,0.87910317 0 0 1 -0.73627,-0.879101 0.73625677,0.87910317 0 0 1 0.73627,-0.879102 0.73625677,0.87910317 0 0 1 0.73626,0.879102 z m 4.03345,-4.369661 a 0.99234606,0.38783962 0 0 1 -0.99236,0.38784 0.99234606,0.38783962 0 0 1 -0.99235,-0.38784 0.99234606,0.38783962 0 0 1 0.99235,-0.387837 0.99234606,0.38783962 0 0 1 0.99236,0.387837 z m -2.88103,-0.103424 a 0.92832376,0.5429755 0 0 1 -0.92833,0.542979 0.92832376,0.5429755 0 0 1 -0.92834,-0.542979 0.92832376,0.5429755 0 0 1 0.92834,-0.542975 0.92832376,0.5429755 0 0 1 0.92833,0.542975 z m 1.85667,4.809211 a 0.73625677,0.59468743 0 0 1 -0.73627,0.594689 0.73625677,0.59468743 0 0 1 -0.73626,-0.594689 0.73625677,0.59468743 0 0 1 0.73626,-0.594684 0.73625677,0.59468743 0 0 1 0.73627,0.594684 z m 0.44817,-2.43046 a 0.48016744,0.85324723 0 0 1 -0.48018,0.853246 0.48016744,0.85324723 0 0 1 -0.48017,-0.853246 0.48016744,0.85324723 0 0 1 0.48017,-0.853247 0.48016744,0.85324723 0 0 1 0.48018,0.853247 z m -1.98472,-0.284417 a 0.51217857,0.93081506 0 0 1 -0.51219,0.930815 0.51217857,0.93081506 0 0 1 -0.51218,-0.930815 0.51217857,0.93081506 0 0 1 0.51218,-0.930816 0.51217857,0.93081506 0 0 1 0.51219,0.930816 z m -6.25186,-7.0027348 h 21.706071 c 0.54987,0 0.99255,0.454293 0.99255,1.018591 V 45.736956 c 0,0.5643 -0.44268,1.01859 -0.99255,1.01859 H 44.586023 c -0.54987,0 -0.99255,-0.45429 -0.99255,-1.01859 V 8.0456062 c 0,-0.564298 0.44268,-1.018591 0.99255,-1.018591 z m 3.77906,2.9660868 h 14.292411 c 0.56213,0 1.01468,0.464427 1.01468,1.041314 v 30.82437 c 0,0.57688 -0.45255,1.04131 -1.01468,1.04131 H 48.365083 c -0.56214,0 -1.01469,-0.46443 -1.01469,-1.04131 v -30.82437 c 0,-0.576887 0.45255,-1.041314 1.01469,-1.041314 z m -17.63766,31.879694 a 0.73625677,0.87910317 0 0 1 -0.73626,0.8791 0.73625677,0.87910317 0 0 1 -0.73627,-0.8791 0.73625677,0.87910317 0 0 1 0.73627,-0.87911 0.73625677,0.87910317 0 0 1 0.73626,0.87911 z m 4.03343,-4.36967 a 0.99234606,0.38783962 0 0 1 -0.99236,0.38784 0.99234606,0.38783962 0 0 1 -0.99235,-0.38784 0.99234606,0.38783962 0 0 1 0.99235,-0.38784 0.99234606,0.38783962 0 0 1 0.99236,0.38784 z m -2.88103,-0.10343 a 0.92832376,0.5429755 0 0 1 -0.92833,0.54298 0.92832376,0.5429755 0 0 1 -0.92832,-0.54298 0.92832376,0.5429755 0 0 1 0.92832,-0.54297 0.92832376,0.5429755 0 0 1 0.92833,0.54297 z m 1.85667,4.80922 a 0.73625677,0.59468743 0 0 1 -0.73627,0.59469 0.73625677,0.59468743 0 0 1 -0.73626,-0.59469 0.73625677,0.59468743 0 0 1 0.73626,-0.59469 0.73625677,0.59468743 0 0 1 0.73627,0.59469 z m 0.44815,-2.43046 a 0.48016744,0.85324723 0 0 1 -0.48017,0.85324 0.48016744,0.85324723 0 0 1 -0.48017,-0.85324 0.48016744,0.85324723 0 0 1 0.48017,-0.85325 0.48016744,0.85324723 0 0 1 0.48017,0.85325 z m -1.9847,-0.28442 a 0.51217857,0.93081506 0 0 1 -0.51218,0.93082 0.51217857,0.93081506 0 0 1 -0.51218,-0.93082 0.51217857,0.93081506 0 0 1 0.51218,-0.93081 0.51217857,0.93081506 0 0 1 0.51218,0.93081 z m -9.05192,2.37876 a 0.73625677,0.87910317 0 0 1 -0.73626,0.8791 0.73625677,0.87910317 0 0 1 -0.73626,-0.8791 0.73625677,0.87910317 0 0 1 0.73626,-0.87911 0.73625677,0.87910317 0 0 1 0.73626,0.87911 z m 4.03343,-4.36967 a 0.99234606,0.38783962 0 0 1 -0.99235,0.38784 0.99234606,0.38783962 0 0 1 -0.99235,-0.38784 0.99234606,0.38783962 0 0 1 0.99235,-0.38784 0.99234606,0.38783962 0 0 1 0.99235,0.38784 z m -2.88102,-0.10343 a 0.92832376,0.5429755 0 0 1 -0.92833,0.54298 0.92832376,0.5429755 0 0 1 -0.92833,-0.54298 0.92832376,0.5429755 0 0 1 0.92833,-0.54297 0.92832376,0.5429755 0 0 1 0.92833,0.54297 z m 1.85666,4.80922 a 0.73625677,0.59468743 0 0 1 -0.73626,0.59469 0.73625677,0.59468743 0 0 1 -0.73626,-0.59469 0.73625677,0.59468743 0 0 1 0.73626,-0.59469 0.73625677,0.59468743 0 0 1 0.73626,0.59469 z m 0.44816,-2.43046 a 0.48016744,0.85324723 0 0 1 -0.48017,0.85324 0.48016744,0.85324723 0 0 1 -0.48017,-0.85324 0.48016744,0.85324723 0 0 1 0.48017,-0.85325 0.48016744,0.85324723 0 0 1 0.48017,0.85325 z m -1.98471,-0.28442 a 0.51217857,0.93081506 0 0 1 -0.51218,0.93082 0.51217857,0.93081506 0 0 1 -0.51218,-0.93082 0.51217857,0.93081506 0 0 1 0.51218,-0.93081 0.51217857,0.93081506 0 0 1 0.51218,0.93081 z m 5.66103,-12.834599 a 0.73625677,0.87910317 0 0 1 -0.73626,0.879102 0.73625677,0.87910317 0 0 1 -0.73626,-0.879102 0.73625677,0.87910317 0 0 1 0.73626,-0.879106 0.73625677,0.87910317 0 0 1 0.73626,0.879106 z m 4.03343,-4.369661 a 0.99234606,0.38783962 0 0 1 -0.99235,0.387837 0.99234606,0.38783962 0 0 1 -0.99235,-0.387837 0.99234606,0.38783962 0 0 1 0.99235,-0.387836 0.99234606,0.38783962 0 0 1 0.99235,0.387836 z m -2.88102,-0.103424 a 0.92832376,0.5429755 0 0 1 -0.92833,0.542975 0.92832376,0.5429755 0 0 1 -0.92833,-0.542975 0.92832376,0.5429755 0 0 1 0.92833,-0.542974 0.92832376,0.5429755 0 0 1 0.92833,0.542974 z m 1.85666,4.809212 a 0.73625677,0.59468743 0 0 1 -0.73626,0.594689 0.73625677,0.59468743 0 0 1 -0.73627,-0.594689 0.73625677,0.59468743 0 0 1 0.73627,-0.594689 0.73625677,0.59468743 0 0 1 0.73626,0.594689 z m 0.44816,-2.430465 a 0.48016744,0.85324723 0 0 1 -0.48017,0.853246 0.48016744,0.85324723 0 0 1 -0.48017,-0.853246 0.48016744,0.85324723 0 0 1 0.48017,-0.853247 0.48016744,0.85324723 0 0 1 0.48017,0.853247 z m -1.98471,-0.284413 a 0.51217857,0.93081506 0 0 1 -0.51218,0.930816 0.51217857,0.93081506 0 0 1 -0.51218,-0.930816 0.51217857,0.93081506 0 0 1 0.51218,-0.930815 0.51217857,0.93081506 0 0 1 0.51218,0.930815 z m -1.91837,10.38578 a 0.73625677,0.87910317 0 0 1 -0.73626,0.8791 0.73625677,0.87910317 0 0 1 -0.73626,-0.8791 0.73625677,0.87910317 0 0 1 0.73626,-0.8791 0.73625677,0.87910317 0 0 1 0.73626,0.8791 z m 4.03344,-4.369662 a 0.99234606,0.38783962 0 0 1 -0.99236,0.387841 0.99234606,0.38783962 0 0 1 -0.99235,-0.387841 0.99234606,0.38783962 0 0 1 0.99235,-0.387841 0.99234606,0.38783962 0 0 1 0.99236,0.387841 z m -2.88103,-0.103424 a 0.92832376,0.5429755 0 0 1 -0.92833,0.542979 0.92832376,0.5429755 0 0 1 -0.92833,-0.542979 0.92832376,0.5429755 0 0 1 0.92833,-0.542975 0.92832376,0.5429755 0 0 1 0.92833,0.542975 z m 1.85666,4.809206 a 0.73625677,0.59468743 0 0 1 -0.73626,0.59469 0.73625677,0.59468743 0 0 1 -0.73626,-0.59469 0.73625677,0.59468743 0 0 1 0.73626,-0.59468 0.73625677,0.59468743 0 0 1 0.73626,0.59468 z m 0.44816,-2.43046 a 0.48016744,0.85324723 0 0 1 -0.48017,0.85325 0.48016744,0.85324723 0 0 1 -0.48017,-0.85325 0.48016744,0.85324723 0 0 1 0.48017,-0.853242 0.48016744,0.85324723 0 0 1 0.48017,0.853242 z m -1.9847,-0.28441 a 0.51217857,0.93081506 0 0 1 -0.51219,0.93081 0.51217857,0.93081506 0 0 1 -0.51218,-0.93081 0.51217857,0.93081506 0 0 1 0.51218,-0.930813 0.51217857,0.93081506 0 0 1 0.51219,0.930813 z m -8.16023,1.46366 a 0.73625677,0.87910317 0 0 1 -0.73626,0.8791 0.73625677,0.87910317 0 0 1 -0.73626,-0.8791 0.73625677,0.87910317 0 0 1 0.73626,-0.8791 0.73625677,0.87910317 0 0 1 0.73626,0.8791 z m 4.03343,-4.369663 a 0.99234606,0.38783962 0 0 1 -0.99235,0.387841 0.99234606,0.38783962 0 0 1 -0.99235,-0.387841 0.99234606,0.38783962 0 0 1 0.99235,-0.387836 0.99234606,0.38783962 0 0 1 0.99235,0.387836 z m -2.88102,-0.103424 a 0.92832376,0.5429755 0 0 1 -0.92833,0.542979 0.92832376,0.5429755 0 0 1 -0.92833,-0.542979 0.92832376,0.5429755 0 0 1 0.92833,-0.542974 0.92832376,0.5429755 0 0 1 0.92833,0.542974 z m 1.85666,4.809217 a 0.73625677,0.59468743 0 0 1 -0.73626,0.59469 0.73625677,0.59468743 0 0 1 -0.73626,-0.59469 0.73625677,0.59468743 0 0 1 0.73626,-0.59469 0.73625677,0.59468743 0 0 1 0.73626,0.59469 z m 0.44816,-2.430466 a 0.48016744,0.85324723 0 0 1 -0.48017,0.853246 0.48016744,0.85324723 0 0 1 -0.48017,-0.853246 0.48016744,0.85324723 0 0 1 0.48017,-0.853246 0.48016744,0.85324723 0 0 1 0.48017,0.853246 z m -1.98471,-0.284413 a 0.51217857,0.93081506 0 0 1 -0.51218,0.930819 0.51217857,0.93081506 0 0 1 -0.51218,-0.930819 0.51217857,0.93081506 0 0 1 0.51218,-0.930815 0.51217857,0.93081506 0 0 1 0.51218,0.930815 z m -0.0281,-6.070344 a 0.73625677,0.87910317 0 0 1 -0.73625,0.879102 0.73625677,0.87910317 0 0 1 -0.73626,-0.879102 0.73625677,0.87910317 0 0 1 0.73626,-0.879105 0.73625677,0.87910317 0 0 1 0.73625,0.879105 z m 4.03344,-4.369661 a 0.99234606,0.38783962 0 0 1 -0.99235,0.387841 0.99234606,0.38783962 0 0 1 -0.99235,-0.387841 0.99234606,0.38783962 0 0 1 0.99235,-0.38784 0.99234606,0.38783962 0 0 1 0.99235,0.38784 z m -2.88102,-0.103424 a 0.92832376,0.5429755 0 0 1 -0.92833,0.542975 0.92832376,0.5429755 0 0 1 -0.92833,-0.542975 0.92832376,0.5429755 0 0 1 0.92833,-0.542974 0.92832376,0.5429755 0 0 1 0.92833,0.542974 z m 1.85665,4.809212 a 0.73625677,0.59468743 0 0 1 -0.73626,0.594689 0.73625677,0.59468743 0 0 1 -0.73626,-0.594689 0.73625677,0.59468743 0 0 1 0.73626,-0.594689 0.73625677,0.59468743 0 0 1 0.73626,0.594689 z m 0.44816,-2.430461 a 0.48016744,0.85324723 0 0 1 -0.48016,0.853247 0.48016744,0.85324723 0 0 1 -0.48017,-0.853247 0.48016744,0.85324723 0 0 1 0.48017,-0.853246 0.48016744,0.85324723 0 0 1 0.48016,0.853246 z m -1.9847,-0.284417 a 0.51217857,0.93081506 0 0 1 -0.51218,0.930816 0.51217857,0.93081506 0 0 1 -0.51218,-0.930816 0.51217857,0.93081506 0 0 1 0.51218,-0.930815 0.51217857,0.93081506 0 0 1 0.51218,0.930815 z m 3.65509,-6.144458 a 0.73625677,0.87910317 0 0 1 -0.73625,0.879105 0.73625677,0.87910317 0 0 1 -0.73627,-0.879105 0.73625677,0.87910317 0 0 1 0.73627,-0.879102 0.73625677,0.87910317 0 0 1 0.73625,0.879102 z m 4.03344,-4.369657 a 0.99234606,0.38783962 0 0 1 -0.99235,0.387836 0.99234606,0.38783962 0 0 1 -0.99235,-0.387836 0.99234606,0.38783962 0 0 1 0.99235,-0.387841 0.99234606,0.38783962 0 0 1 0.99235,0.387841 z m -2.88103,-0.103428 a 0.92832376,0.5429755 0 0 1 -0.92833,0.542979 0.92832376,0.5429755 0 0 1 -0.92832,-0.542979 0.92832376,0.5429755 0 0 1 0.92832,-0.542975 0.92832376,0.5429755 0 0 1 0.92833,0.542975 z m 1.85666,4.809211 a 0.73625677,0.59468743 0 0 1 -0.73626,0.594689 0.73625677,0.59468743 0 0 1 -0.73626,-0.594689 0.73625677,0.59468743 0 0 1 0.73626,-0.594684 0.73625677,0.59468743 0 0 1 0.73626,0.594684 z m 0.44816,-2.43046 a 0.48016744,0.85324723 0 0 1 -0.48017,0.853246 0.48016744,0.85324723 0 0 1 -0.48017,-0.853246 0.48016744,0.85324723 0 0 1 0.48017,-0.853247 0.48016744,0.85324723 0 0 1 0.48017,0.853247 z m -1.9847,-0.284413 a 0.51217857,0.93081506 0 0 1 -0.51218,0.930811 0.51217857,0.93081506 0 0 1 -0.51218,-0.930811 0.51217857,0.93081506 0 0 1 0.51218,-0.930816 0.51217857,0.93081506 0 0 1 0.51218,0.930816 z m -8.86568,2.008174 a 0.73625677,0.87910317 0 0 1 -0.73626,0.879101 0.73625677,0.87910317 0 0 1 -0.73626,-0.879101 0.73625677,0.87910317 0 0 1 0.73626,-0.879102 0.73625677,0.87910317 0 0 1 0.73626,0.879102 z m 4.03343,-4.369661 a 0.99234606,0.38783962 0 0 1 -0.99235,0.38784 0.99234606,0.38783962 0 0 1 -0.99235,-0.38784 0.99234606,0.38783962 0 0 1 0.99235,-0.387837 0.99234606,0.38783962 0 0 1 0.99235,0.387837 z m -2.88102,-0.103424 a 0.92832376,0.5429755 0 0 1 -0.92833,0.542979 0.92832376,0.5429755 0 0 1 -0.92833,-0.542979 0.92832376,0.5429755 0 0 1 0.92833,-0.542975 0.92832376,0.5429755 0 0 1 0.92833,0.542975 z m 1.85666,4.809211 a 0.73625677,0.59468743 0 0 1 -0.73626,0.594689 0.73625677,0.59468743 0 0 1 -0.73626,-0.594689 0.73625677,0.59468743 0 0 1 0.73626,-0.594684 0.73625677,0.59468743 0 0 1 0.73626,0.594684 z m 0.44816,-2.43046 a 0.48016744,0.85324723 0 0 1 -0.48017,0.853246 0.48016744,0.85324723 0 0 1 -0.48017,-0.853246 0.48016744,0.85324723 0 0 1 0.48017,-0.853247 0.48016744,0.85324723 0 0 1 0.48017,0.853247 z m -1.9847,-0.284417 a 0.51217857,0.93081506 0 0 1 -0.51218,0.930815 0.51217857,0.93081506 0 0 1 -0.51218,-0.930815 0.51217857,0.93081506 0 0 1 0.51218,-0.930816 0.51217857,0.93081506 0 0 1 0.51218,0.930816 z m -6.25181,-7.0027348 h 21.70597 c 0.54987,0 0.99255,0.454293 0.99255,1.018591 V 45.736956 c 0,0.5643 -0.44268,1.01859 -0.99255,1.01859 h -21.70602 c -0.54987,0 -0.99254,-0.45429 -0.99254,-1.01859 V 8.0456062 c 0,-0.564298 0.44267,-1.018591 0.99254,-1.018591 z m 3.77903,2.9660868 h 14.29233 c 0.56214,0 1.01469,0.464427 1.01469,1.041314 v 30.82437 c 0,0.57688 -0.45255,1.04131 -1.01469,1.04131 h -14.29238 c -0.56214,0 -1.01469,-0.46443 -1.01469,-1.04131 v -30.82437 c 0,-0.576887 0.45255,-1.041314 1.01469,-1.041314 z m -7.77281,-10.41771477 h 54.979511 c 4.79236,0 8.65049,3.51473297 8.65049,7.88056697 V 94.381006 c 0,4.365845 -3.85813,7.880574 -8.65049,7.880574 H 13.553903 c -4.7923705,0 -8.6504905,-3.514729 -8.6504905,-7.880574 V 7.4559542 c 0,-4.365834 3.85812,-7.88056697 8.6504905,-7.88056697 z m 6.83734,7.29659297 h 43.062991 c 4.79237,0 8.65049,3.5147328 8.65049,7.8805668 v 74.467459 c 0,4.36584 -3.85812,7.88057 -8.65049,7.88057 H 20.391243 c -4.79236,0 -8.65048,-3.51473 -8.65048,-7.88057 V 14.752547 c 0,-4.365834 3.85812,-7.8805668 8.65048,-7.8805668 z" />
    <path
       id="path1015"
       style="fill:none;fill-rule:evenodd;stroke:#000000;stroke-width:0.406078;stroke-linecap:round;stroke-linejoin:round;paint-order:stroke markers fill"
       d="m 16.420753,60.385456 c 0.51029,-0.2119 1.1001,0.009 1.32243,0.49435 l 1.91405,4.18181 c 0.22234,0.48577 -0.01,1.04742 -0.51977,1.25932 -0.5103,0.2119 -1.10009,-0.009 -1.32243,-0.49434 l -1.91404,-4.18182 c -0.22235,-0.48576 0.009,-1.04742 0.51976,-1.25932 z m 6.60128,2.04387 a 4.6510895,4.47295 33.442754 0 1 -2.26633,5.91772 4.6510895,4.47295 33.442754 0 1 -6.09443,-2.4459 4.6510895,4.47295 33.442754 0 1 2.26633,-5.91772 4.6510895,4.47295 33.442754 0 1 6.09443,2.4459 z m 45.352541,1.02754 c 0.11748,0.60207 -0.0388,1.26951 -0.35038,1.4965 l -2.68236,1.95415 c -0.31159,0.227 -0.657,-0.075 -0.77448,-0.67703 -0.11747,-0.60207 0.0388,-1.26951 0.35038,-1.4965 l 2.68236,-1.95415 c 0.31158,-0.22699 0.657,0.075 0.77448,0.67703 z m -1.48308,7.49611 a 2.8476177,5.3064088 1.4151422 0 1 -3.64473,-2.9781 2.8476177,5.3064088 1.4151422 0 1 1.71996,-6.8864 2.8476177,5.3064088 1.4151422 0 1 3.64474,2.9781 2.8476177,5.3064088 1.4151422 0 1 -1.71997,6.8864 z m -24.179871,-5.31725 c 0.95291,0 1.72007,0.69887 1.72007,1.56697 v 4.70093 c 0,0.86811 -0.76716,1.56698 -1.72007,1.56698 -0.95292,0 -1.72007,-0.69887 -1.72007,-1.56698 v -4.70093 c 0,-0.8681 0.76715,-1.56697 1.72007,-1.56697 z m 5.54244,5.72083 a 4.8734985,6.0067425 0 0 1 -4.87352,6.00674 4.8734985,6.0067425 0 0 1 -4.87353,-6.00674 4.8734985,6.0067425 0 0 1 4.87353,-6.00674 4.8734985,6.0067425 0 0 1 4.87352,6.00674 z m 12.51388,0.11696 a 18.161358,19.926379 0 0 1 -18.16146,19.92638 18.161358,19.926379 0 0 1 -18.16146,-19.92638 18.161358,19.926379 0 0 1 18.16146,-19.92638 18.161358,19.926379 0 0 1 18.16146,19.92638 z m -3.51002,0.62288 a 14.162991,14.860135 0 0 1 -14.16306,14.86014 14.162991,14.860135 0 0 1 -14.16307,-14.86014 14.162991,14.860135 0 0 1 14.16307,-14.86013 14.162991,14.860135 0 0 1 14.16306,14.86013 z m 0.50801,-30.2236 a 0.73625677,0.87910317 0 0 1 -0.73626,0.8791 0.73625677,0.87910317 0 0 1 -0.73627,-0.8791 0.73625677,0.87910317 0 0 1 0.73627,-0.87911 0.73625677,0.87910317 0 0 1 0.73626,0.87911 z m 4.033461,-4.36967 a 0.99234606,0.38783962 0 0 1 -0.992361,0.38784 0.99234606,0.38783962 0 0 1 -0.99236,-0.38784 0.99234606,0.38783962 0 0 1 0.99236,-0.38784 0.99234606,0.38783962 0 0 1 0.992361,0.38784 z m -2.881041,-0.10343 a 0.92832376,0.5429755 0 0 1 -0.92834,0.54298 0.92832376,0.5429755 0 0 1 -0.92833,-0.54298 0.92832376,0.5429755 0 0 1 0.92833,-0.54297 0.92832376,0.5429755 0 0 1 0.92834,0.54297 z m 1.85667,4.80922 a 0.73625677,0.59468743 0 0 1 -0.73627,0.59469 0.73625677,0.59468743 0 0 1 -0.73627,-0.59469 0.73625677,0.59468743 0 0 1 0.73627,-0.59469 0.73625677,0.59468743 0 0 1 0.73627,0.59469 z m 0.44816,-2.43046 a 0.48016744,0.85324723 0 0 1 -0.48017,0.85324 0.48016744,0.85324723 0 0 1 -0.48018,-0.85324 0.48016744,0.85324723 0 0 1 0.48018,-0.85325 0.48016744,0.85324723 0 0 1 0.48017,0.85325 z m -1.98472,-0.28442 a 0.51217857,0.93081506 0 0 1 -0.51218,0.93082 0.51217857,0.93081506 0 0 1 -0.51219,-0.93082 0.51217857,0.93081506 0 0 1 0.51219,-0.93081 0.51217857,0.93081506 0 0 1 0.51218,0.93081 z m -9.05195,2.37876 a 0.73625677,0.87910317 0 0 1 -0.73627,0.8791 0.73625677,0.87910317 0 0 1 -0.73626,-0.8791 0.73625677,0.87910317 0 0 1 0.73626,-0.87911 0.73625677,0.87910317 0 0 1 0.73627,0.87911 z m 4.03344,-4.36967 a 0.99234606,0.38783962 0 0 1 -0.99235,0.38784 0.99234606,0.38783962 0 0 1 -0.99235,-0.38784 0.99234606,0.38783962 0 0 1 0.99235,-0.38784 0.99234606,0.38783962 0 0 1 0.99235,0.38784 z m -2.88103,-0.10343 a 0.92832376,0.5429755 0 0 1 -0.92834,0.54298 0.92832376,0.5429755 0 0 1 -0.92833,-0.54298 0.92832376,0.5429755 0 0 1 0.92833,-0.54297 0.92832376,0.5429755 0 0 1 0.92834,0.54297 z m 1.85667,4.80922 a 0.73625677,0.59468743 0 0 1 -0.73627,0.59469 0.73625677,0.59468743 0 0 1 -0.73626,-0.59469 0.73625677,0.59468743 0 0 1 0.73626,-0.59469 0.73625677,0.59468743 0 0 1 0.73627,0.59469 z m 0.44816,-2.43046 a 0.48016744,0.85324723 0 0 1 -0.48017,0.85324 0.48016744,0.85324723 0 0 1 -0.48017,-0.85324 0.48016744,0.85324723 0 0 1 0.48017,-0.85325 0.48016744,0.85324723 0 0 1 0.48017,0.85325 z m -1.98471,-0.28442 a 0.51217857,0.93081506 0 0 1 -0.51218,0.93082 0.51217857,0.93081506 0 0 1 -0.51219,-0.93082 0.51217857,0.93081506 0 0 1 0.51219,-0.93081 0.51217857,0.93081506 0 0 1 0.51218,0.93081 z m 5.66104,-12.834599 a 0.73625677,0.87910317 0 0 1 -0.73626,0.879102 0.73625677,0.87910317 0 0 1 -0.73627,-0.879102 0.73625677,0.87910317 0 0 1 0.73627,-0.879106 0.73625677,0.87910317 0 0 1 0.73626,0.879106 z m 4.03346,-4.369661 a 0.99234606,0.38783962 0 0 1 -0.99236,0.387837 0.99234606,0.38783962 0 0 1 -0.99236,-0.387837 0.99234606,0.38783962 0 0 1 0.99236,-0.387836 0.99234606,0.38783962 0 0 1 0.99236,0.387836 z m -2.88105,-0.103424 a 0.92832376,0.5429755 0 0 1 -0.92832,0.542975 0.92832376,0.5429755 0 0 1 -0.92834,-0.542975 0.92832376,0.5429755 0 0 1 0.92834,-0.542974 0.92832376,0.5429755 0 0 1 0.92832,0.542974 z m 1.85668,4.809212 a 0.73625677,0.59468743 0 0 1 -0.73627,0.594689 0.73625677,0.59468743 0 0 1 -0.73626,-0.594689 0.73625677,0.59468743 0 0 1 0.73626,-0.594689 0.73625677,0.59468743 0 0 1 0.73627,0.594689 z m 0.44816,-2.430465 a 0.48016744,0.85324723 0 0 1 -0.48017,0.853246 0.48016744,0.85324723 0 0 1 -0.48018,-0.853246 0.48016744,0.85324723 0 0 1 0.48018,-0.853247 0.48016744,0.85324723 0 0 1 0.48017,0.853247 z m -1.98471,-0.284413 a 0.51217857,0.93081506 0 0 1 -0.51219,0.930816 0.51217857,0.93081506 0 0 1 -0.51218,-0.930816 0.51217857,0.93081506 0 0 1 0.51218,-0.930815 0.51217857,0.93081506 0 0 1 0.51219,0.930815 z m -1.91839,10.38578 a 0.73625677,0.87910317 0 0 1 -0.73626,0.8791 0.73625677,0.87910317 0 0 1 -0.73627,-0.8791 0.73625677,0.87910317 0 0 1 0.73627,-0.8791 0.73625677,0.87910317 0 0 1 0.73626,0.8791 z m 4.03346,-4.369662 a 0.99234606,0.38783962 0 0 1 -0.99236,0.387841 0.99234606,0.38783962 0 0 1 -0.99236,-0.387841 0.99234606,0.38783962 0 0 1 0.99236,-0.387841 0.99234606,0.38783962 0 0 1 0.99236,0.387841 z m -2.88104,-0.103424 a 0.92832376,0.5429755 0 0 1 -0.92834,0.542979 0.92832376,0.5429755 0 0 1 -0.92833,-0.542979 0.92832376,0.5429755 0 0 1 0.92833,-0.542975 0.92832376,0.5429755 0 0 1 0.92834,0.542975 z m 1.85667,4.809206 a 0.73625677,0.59468743 0 0 1 -0.73627,0.59469 0.73625677,0.59468743 0 0 1 -0.73626,-0.59469 0.73625677,0.59468743 0 0 1 0.73626,-0.59468 0.73625677,0.59468743 0 0 1 0.73627,0.59468 z m 0.44816,-2.43046 a 0.48016744,0.85324723 0 0 1 -0.48017,0.85325 0.48016744,0.85324723 0 0 1 -0.48018,-0.85325 0.48016744,0.85324723 0 0 1 0.48018,-0.853242 0.48016744,0.85324723 0 0 1 0.48017,0.853242 z m -1.98472,-0.28441 a 0.51217857,0.93081506 0 0 1 -0.51218,0.93081 0.51217857,0.93081506 0 0 1 -0.51218,-0.93081 0.51217857,0.93081506 0 0 1 0.51218,-0.930813 0.51217857,0.93081506 0 0 1 0.51218,0.930813 z m -8.16025,1.46366 a 0.73625677,0.87910317 0 0 1 -0.73627,0.8791 0.73625677,0.87910317 0 0 1 -0.73626,-0.8791 0.73625677,0.87910317 0 0 1 0.73626,-0.8791 0.73625677,0.87910317 0 0 1 0.73627,0.8791 z m 4.03344,-4.369663 a 0.99234606,0.38783962 0 0 1 -0.99235,0.387841 0.99234606,0.38783962 0 0 1 -0.99235,-0.387841 0.99234606,0.38783962 0 0 1 0.99235,-0.387836 0.99234606,0.38783962 0 0 1 0.99235,0.387836 z m -2.88103,-0.103424 a 0.92832376,0.5429755 0 0 1 -0.92834,0.542979 0.92832376,0.5429755 0 0 1 -0.92833,-0.542979 0.92832376,0.5429755 0 0 1 0.92833,-0.542974 0.92832376,0.5429755 0 0 1 0.92834,0.542974 z m 1.85667,4.809217 a 0.73625677,0.59468743 0 0 1 -0.73627,0.59469 0.73625677,0.59468743 0 0 1 -0.73626,-0.59469 0.73625677,0.59468743 0 0 1 0.73626,-0.59469 0.73625677,0.59468743 0 0 1 0.73627,0.59469 z m 0.44816,-2.430466 a 0.48016744,0.85324723 0 0 1 -0.48017,0.853246 0.48016744,0.85324723 0 0 1 -0.48017,-0.853246 0.48016744,0.85324723 0 0 1 0.48017,-0.853246 0.48016744,0.85324723 0 0 1 0.48017,0.853246 z m -1.98471,-0.284413 a 0.51217857,0.93081506 0 0 1 -0.51218,0.930819 0.51217857,0.93081506 0 0 1 -0.51219,-0.930819 0.51217857,0.93081506 0 0 1 0.51219,-0.930815 0.51217857,0.93081506 0 0 1 0.51218,0.930815 z m -0.0281,-6.070344 a 0.73625677,0.87910317 0 0 1 -0.73626,0.879102 0.73625677,0.87910317 0 0 1 -0.73627,-0.879102 0.73625677,0.87910317 0 0 1 0.73627,-0.879105 0.73625677,0.87910317 0 0 1 0.73626,0.879105 z m 4.03345,-4.369661 a 0.99234606,0.38783962 0 0 1 -0.99237,0.387841 0.99234606,0.38783962 0 0 1 -0.99234,-0.387841 0.99234606,0.38783962 0 0 1 0.99234,-0.38784 0.99234606,0.38783962 0 0 1 0.99237,0.38784 z m -2.88103,-0.103424 a 0.92832376,0.5429755 0 0 1 -0.92834,0.542975 0.92832376,0.5429755 0 0 1 -0.92834,-0.542975 0.92832376,0.5429755 0 0 1 0.92834,-0.542974 0.92832376,0.5429755 0 0 1 0.92834,0.542974 z m 1.85665,4.809212 a 0.73625677,0.59468743 0 0 1 -0.73626,0.594689 0.73625677,0.59468743 0 0 1 -0.73626,-0.594689 0.73625677,0.59468743 0 0 1 0.73626,-0.594689 0.73625677,0.59468743 0 0 1 0.73626,0.594689 z m 0.44817,-2.430461 a 0.48016744,0.85324723 0 0 1 -0.48018,0.853247 0.48016744,0.85324723 0 0 1 -0.48017,-0.853247 0.48016744,0.85324723 0 0 1 0.48017,-0.853246 0.48016744,0.85324723 0 0 1 0.48018,0.853246 z m -1.98471,-0.284417 a 0.51217857,0.93081506 0 0 1 -0.51219,0.930816 0.51217857,0.93081506 0 0 1 -0.51218,-0.930816 0.51217857,0.93081506 0 0 1 0.51218,-0.930815 0.51217857,0.93081506 0 0 1 0.51219,0.930815 z m 3.6551,-6.144458 a 0.73625677,0.87910317 0 0 1 -0.73626,0.879105 0.73625677,0.87910317 0 0 1 -0.73627,-0.879105 0.73625677,0.87910317 0 0 1 0.73627,-0.879102 0.73625677,0.87910317 0 0 1 0.73626,0.879102 z m 4.03347,-4.369657 a 0.99234606,0.38783962 0 0 1 -0.99237,0.387836 0.99234606,0.38783962 0 0 1 -0.99235,-0.387836 0.99234606,0.38783962 0 0 1 0.99235,-0.387841 0.99234606,0.38783962 0 0 1 0.99237,0.387841 z m -2.88105,-0.103428 a 0.92832376,0.5429755 0 0 1 -0.92834,0.542979 0.92832376,0.5429755 0 0 1 -0.92833,-0.542979 0.92832376,0.5429755 0 0 1 0.92833,-0.542975 0.92832376,0.5429755 0 0 1 0.92834,0.542975 z m 1.85667,4.809211 a 0.73625677,0.59468743 0 0 1 -0.73627,0.594689 0.73625677,0.59468743 0 0 1 -0.73626,-0.594689 0.73625677,0.59468743 0 0 1 0.73626,-0.594684 0.73625677,0.59468743 0 0 1 0.73627,0.594684 z m 0.44817,-2.43046 a 0.48016744,0.85324723 0 0 1 -0.48018,0.853246 0.48016744,0.85324723 0 0 1 -0.48018,-0.853246 0.48016744,0.85324723 0 0 1 0.48018,-0.853247 0.48016744,0.85324723 0 0 1 0.48018,0.853247 z m -1.98472,-0.284413 a 0.51217857,0.93081506 0 0 1 -0.51219,0.930811 0.51217857,0.93081506 0 0 1 -0.51218,-0.930811 0.51217857,0.93081506 0 0 1 0.51218,-0.930816 0.51217857,0.93081506 0 0 1 0.51219,0.930816 z m -8.86572,2.008174 a 0.73625677,0.87910317 0 0 1 -0.73626,0.879101 0.73625677,0.87910317 0 0 1 -0.73627,-0.879101 0.73625677,0.87910317 0 0 1 0.73627,-0.879102 0.73625677,0.87910317 0 0 1 0.73626,0.879102 z m 4.03345,-4.369661 a 0.99234606,0.38783962 0 0 1 -0.99236,0.38784 0.99234606,0.38783962 0 0 1 -0.99235,-0.38784 0.99234606,0.38783962 0 0 1 0.99235,-0.387837 0.99234606,0.38783962 0 0 1 0.99236,0.387837 z m -2.88103,-0.103424 a 0.92832376,0.5429755 0 0 1 -0.92833,0.542979 0.92832376,0.5429755 0 0 1 -0.92834,-0.542979 0.92832376,0.5429755 0 0 1 0.92834,-0.542975 0.92832376,0.5429755 0 0 1 0.92833,0.542975 z m 1.85667,4.809211 a 0.73625677,0.59468743 0 0 1 -0.73627,0.594689 0.73625677,0.59468743 0 0 1 -0.73626,-0.594689 0.73625677,0.59468743 0 0 1 0.73626,-0.594684 0.73625677,0.59468743 0 0 1 0.73627,0.594684 z m 0.44817,-2.43046 a 0.48016744,0.85324723 0 0 1 -0.48018,0.853246 0.48016744,0.85324723 0 0 1 -0.48017,-0.853246 0.48016744,0.85324723 0 0 1 0.48017,-0.853247 0.48016744,0.85324723 0 0 1 0.48018,0.853247 z m -1.98472,-0.284417 a 0.51217857,0.93081506 0 0 1 -0.51219,0.930815 0.51217857,0.93081506 0 0 1 -0.51218,-0.930815 0.51217857,0.93081506 0 0 1 0.51218,-0.930816 0.51217857,0.93081506 0 0 1 0.51219,0.930816 z m -6.25186,-7.0027348 h 21.706071 c 0.54987,0 0.99255,0.454293 0.99255,1.018591 V 45.736956 c 0,0.5643 -0.44268,1.01859 -0.99255,1.01859 H 44.586023 c -0.54987,0 -0.99255,-0.45429 -0.99255,-1.01859 V 8.0456062 c 0,-0.564298 0.44268,-1.018591 0.99255,-1.018591 z m 3.77906,2.9660868 h 14.292411 c 0.56213,0 1.01468,0.464427 1.01468,1.041314 v 30.82437 c 0,0.57688 -0.45255,1.04131 -1.01468,1.04131 H 48.365083 c -0.56214,0 -1.01469,-0.46443 -1.01469,-1.04131 v -30.82437 c 0,-0.576887 0.45255,-1.041314 1.01469,-1.041314 z m -17.63766,31.879694 a 0.73625677,0.87910317 0 0 1 -0.73626,0.8791 0.73625677,0.87910317 0 0 1 -0.73627,-0.8791 0.73625677,0.87910317 0 0 1 0.73627,-0.87911 0.73625677,0.87910317 0 0 1 0.73626,0.87911 z m 4.03343,-4.36967 a 0.99234606,0.38783962 0 0 1 -0.99236,0.38784 0.99234606,0.38783962 0 0 1 -0.99235,-0.38784 0.99234606,0.38783962 0 0 1 0.99235,-0.38784 0.99234606,0.38783962 0 0 1 0.99236,0.38784 z m -2.88103,-0.10343 a 0.92832376,0.5429755 0 0 1 -0.92833,0.54298 0.92832376,0.5429755 0 0 1 -0.92832,-0.54298 0.92832376,0.5429755 0 0 1 0.92832,-0.54297 0.92832376,0.5429755 0 0 1 0.92833,0.54297 z m 1.85667,4.80922 a 0.73625677,0.59468743 0 0 1 -0.73627,0.59469 0.73625677,0.59468743 0 0 1 -0.73626,-0.59469 0.73625677,0.59468743 0 0 1 0.73626,-0.59469 0.73625677,0.59468743 0 0 1 0.73627,0.59469 z m 0.44815,-2.43046 a 0.48016744,0.85324723 0 0 1 -0.48017,0.85324 0.48016744,0.85324723 0 0 1 -0.48017,-0.85324 0.48016744,0.85324723 0 0 1 0.48017,-0.85325 0.48016744,0.85324723 0 0 1 0.48017,0.85325 z m -1.9847,-0.28442 a 0.51217857,0.93081506 0 0 1 -0.51218,0.93082 0.51217857,0.93081506 0 0 1 -0.51218,-0.93082 0.51217857,0.93081506 0 0 1 0.51218,-0.93081 0.51217857,0.93081506 0 0 1 0.51218,0.93081 z m -9.05192,2.37876 a 0.73625677,0.87910317 0 0 1 -0.73626,0.8791 0.73625677,0.87910317 0 0 1 -0.73626,-0.8791 0.73625677,0.87910317 0 0 1 0.73626,-0.87911 0.73625677,0.87910317 0 0 1 0.73626,0.87911 z m 4.03343,-4.36967 a 0.99234606,0.38783962 0 0 1 -0.99235,0.38784 0.99234606,0.38783962 0 0 1 -0.99235,-0.38784 0.99234606,0.38783962 0 0 1 0.99235,-0.38784 0.99234606,0.38783962 0 0 1 0.99235,0.38784 z m -2.88102,-0.10343 a 0.92832376,0.5429755 0 0 1 -0.92833,0.54298 0.92832376,0.5429755 0 0 1 -0.92833,-0.54298 0.92832376,0.5429755 0 0 1 0.92833,-0.54297 0.92832376,0.5429755 0 0 1 0.92833,0.54297 z m 1.85666,4.80922 a 0.73625677,0.59468743 0 0 1 -0.73626,0.59469 0.73625677,0.59468743 0 0 1 -0.73626,-0.59469 0.73625677,0.59468743 0 0 1 0.73626,-0.59469 0.73625677,0.59468743 0 0 1 0.73626,0.59469 z m 0.44816,-2.43046 a 0.48016744,0.85324723 0 0 1 -0.48017,0.85324 0.48016744,0.85324723 0 0 1 -0.48017,-0.85324 0.48016744,0.85324723 0 0 1 0.48017,-0.85325 0.48016744,0.85324723 0 0 1 0.48017,0.85325 z m -1.98471,-0.28442 a 0.51217857,0.93081506 0 0 1 -0.51218,0.93082 0.51217857,0.93081506 0 0 1 -0.51218,-0.93082 0.51217857,0.93081506 0 0 1 0.51218,-0.93081 0.51217857,0.93081506 0 0 1 0.51218,0.93081 z m 5.66103,-12.834599 a 0.73625677,0.87910317 0 0 1 -0.73626,0.879102 0.73625677,0.87910317 0 0 1 -0.73626,-0.879102 0.73625677,0.87910317 0 0 1 0.73626,-0.879106 0.73625677,0.87910317 0 0 1 0.73626,0.879106 z m 4.03343,-4.369661 a 0.99234606,0.38783962 0 0 1 -0.99235,0.387837 0.99234606,0.38783962 0 0 1 -0.99235,-0.387837 0.99234606,0.38783962 0 0 1 0.99235,-0.387836 0.99234606,0.38783962 0 0 1 0.99235,0.387836 z m -2.88102,-0.103424 a 0.92832376,0.5429755 0 0 1 -0.92833,0.542975 0.92832376,0.5429755 0 0 1 -0.92833,-0.542975 0.92832376,0.5429755 0 0 1 0.92833,-0.542974 0.92832376,0.5429755 0 0 1 0.92833,0.542974 z m 1.85666,4.809212 a 0.73625677,0.59468743 0 0 1 -0.73626,0.594689 0.73625677,0.59468743 0 0 1 -0.73627,-0.594689 0.73625677,0.59468743 0 0 1 0.73627,-0.594689 0.73625677,0.59468743 0 0 1 0.73626,0.594689 z m 0.44816,-2.430465 a 0.48016744,0.85324723 0 0 1 -0.48017,0.853246 0.48016744,0.85324723 0 0 1 -0.48017,-0.853246 0.48016744,0.85324723 0 0 1 0.48017,-0.853247 0.48016744,0.85324723 0 0 1 0.48017,0.853247 z m -1.98471,-0.284413 a 0.51217857,0.93081506 0 0 1 -0.51218,0.930816 0.51217857,0.93081506 0 0 1 -0.51218,-0.930816 0.51217857,0.93081506 0 0 1 0.51218,-0.930815 0.51217857,0.93081506 0 0 1 0.51218,0.930815 z m -1.91837,10.38578 a 0.73625677,0.87910317 0 0 1 -0.73626,0.8791 0.73625677,0.87910317 0 0 1 -0.73626,-0.8791 0.73625677,0.87910317 0 0 1 0.73626,-0.8791 0.73625677,0.87910317 0 0 1 0.73626,0.8791 z m 4.03344,-4.369662 a 0.99234606,0.38783962 0 0 1 -0.99236,0.387841 0.99234606,0.38783962 0 0 1 -0.99235,-0.387841 0.99234606,0.38783962 0 0 1 0.99235,-0.387841 0.99234606,0.38783962 0 0 1 0.99236,0.387841 z m -2.88103,-0.103424 a 0.92832376,0.5429755 0 0 1 -0.92833,0.542979 0.92832376,0.5429755 0 0 1 -0.92833,-0.542979 0.92832376,0.5429755 0 0 1 0.92833,-0.542975 0.92832376,0.5429755 0 0 1 0.92833,0.542975 z m 1.85666,4.809206 a 0.73625677,0.59468743 0 0 1 -0.73626,0.59469 0.73625677,0.59468743 0 0 1 -0.73626,-0.59469 0.73625677,0.59468743 0 0 1 0.73626,-0.59468 0.73625677,0.59468743 0 0 1 0.73626,0.59468 z m 0.44816,-2.43046 a 0.48016744,0.85324723 0 0 1 -0.48017,0.85325 0.48016744,0.85324723 0 0 1 -0.48017,-0.85325 0.48016744,0.85324723 0 0 1 0.48017,-0.853242 0.48016744,0.85324723 0 0 1 0.48017,0.853242 z m -1.9847,-0.28441 a 0.51217857,0.93081506 0 0 1 -0.51219,0.93081 0.51217857,0.93081506 0 0 1 -0.51218,-0.93081 0.51217857,0.93081506 0 0 1 0.51218,-0.930813 0.51217857,0.93081506 0 0 1 0.51219,0.930813 z m -8.16023,1.46366 a 0.73625677,0.87910317 0 0 1 -0.73626,0.8791 0.73625677,0.87910317 0 0 1 -0.73626,-0.8791 0.73625677,0.87910317 0 0 1 0.73626,-0.8791 0.73625677,0.87910317 0 0 1 0.73626,0.8791 z m 4.03343,-4.369663 a 0.99234606,0.38783962 0 0 1 -0.99235,0.387841 0.99234606,0.38783962 0 0 1 -0.99235,-0.387841 0.99234606,0.38783962 0 0 1 0.99235,-0.387836 0.99234606,0.38783962 0 0 1 0.99235,0.387836 z m -2.88102,-0.103424 a 0.92832376,0.5429755 0 0 1 -0.92833,0.542979 0.92832376,0.5429755 0 0 1 -0.92833,-0.542979 0.92832376,0.5429755 0 0 1 0.92833,-0.542974 0.92832376,0.5429755 0 0 1 0.92833,0.542974 z m 1.85666,4.809217 a 0.73625677,0.59468743 0 0 1 -0.73626,0.59469 0.73625677,0.59468743 0 0 1 -0.73626,-0.59469 0.73625677,0.59468743 0 0 1 0.73626,-0.59469 0.73625677,0.59468743 0 0 1 0.73626,0.59469 z m 0.44816,-2.430466 a 0.48016744,0.85324723 0 0 1 -0.48017,0.853246 0.48016744,0.85324723 0 0 1 -0.48017,-0.853246 0.48016744,0.85324723 0 0 1 0.48017,-0.853246 0.48016744,0.85324723 0 0 1 0.48017,0.853246 z m -1.98471,-0.284413 a 0.51217857,0.93081506 0 0 1 -0.51218,0.930819 0.51217857,0.93081506 0 0 1 -0.51218,-0.930819 0.51217857,0.93081506 0 0 1 0.51218,-0.930815 0.51217857,0.93081506 0 0 1 0.51218,0.930815 z m -0.0281,-6.070344 a 0.73625677,0.87910317 0 0 1 -0.73625,0.879102 0.73625677,0.87910317 0 0 1 -0.73626,-0.879102 0.73625677,0.87910317 0 0 1 0.73626,-0.879105 0.73625677,0.87910317 0 0 1 0.73625,0.879105 z m 4.03344,-4.369661 a 0.99234606,0.38783962 0 0 1 -0.99235,0.387841 0.99234606,0.38783962 0 0 1 -0.99235,-0.387841 0.99234606,0.38783962 0 0 1 0.99235,-0.38784 0.99234606,0.38783962 0 0 1 0.99235,0.38784 z m -2.88102,-0.103424 a 0.92832376,0.5429755 0 0 1 -0.92833,0.542975 0.92832376,0.5429755 0 0 1 -0.92833,-0.542975 0.92832376,0.5429755 0 0 1 0.92833,-0.542974 0.92832376,0.5429755 0 0 1 0.92833,0.542974 z m 1.85665,4.809212 a 0.73625677,0.59468743 0 0 1 -0.73626,0.594689 0.73625677,0.59468743 0 0 1 -0.73626,-0.594689 0.73625677,0.59468743 0 0 1 0.73626,-0.594689 0.73625677,0.59468743 0 0 1 0.73626,0.594689 z m 0.44816,-2.430461 a 0.48016744,0.85324723 0 0 1 -0.48016,0.853247 0.48016744,0.85324723 0 0 1 -0.48017,-0.853247 0.48016744,0.85324723 0 0 1 0.48017,-0.853246 0.48016744,0.85324723 0 0 1 0.48016,0.853246 z m -1.9847,-0.284417 a 0.51217857,0.93081506 0 0 1 -0.51218,0.930816 0.51217857,0.93081506 0 0 1 -0.51218,-0.930816 0.51217857,0.93081506 0 0 1 0.51218,-0.930815 0.51217857,0.93081506 0 0 1 0.51218,0.930815 z m 3.65509,-6.144458 a 0.73625677,0.87910317 0 0 1 -0.73625,0.879105 0.73625677,0.87910317 0 0 1 -0.73627,-0.879105 0.73625677,0.87910317 0 0 1 0.73627,-0.879102 0.73625677,0.87910317 0 0 1 0.73625,0.879102 z m 4.03344,-4.369657 a 0.99234606,0.38783962 0 0 1 -0.99235,0.387836 0.99234606,0.38783962 0 0 1 -0.99235,-0.387836 0.99234606,0.38783962 0 0 1 0.99235,-0.387841 0.99234606,0.38783962 0 0 1 0.99235,0.387841 z m -2.88103,-0.103428 a 0.92832376,0.5429755 0 0 1 -0.92833,0.542979 0.92832376,0.5429755 0 0 1 -0.92832,-0.542979 0.92832376,0.5429755 0 0 1 0.92832,-0.542975 0.92832376,0.5429755 0 0 1 0.92833,0.542975 z m 1.85666,4.809211 a 0.73625677,0.59468743 0 0 1 -0.73626,0.594689 0.73625677,0.59468743 0 0 1 -0.73626,-0.594689 0.73625677,0.59468743 0 0 1 0.73626,-0.594684 0.73625677,0.59468743 0 0 1 0.73626,0.594684 z m 0.44816,-2.43046 a 0.48016744,0.85324723 0 0 1 -0.48017,0.853246 0.48016744,0.85324723 0 0 1 -0.48017,-0.853246 0.48016744,0.85324723 0 0 1 0.48017,-0.853247 0.48016744,0.85324723 0 0 1 0.48017,0.853247 z m -1.9847,-0.284413 a 0.51217857,0.93081506 0 0 1 -0.51218,0.930811 0.51217857,0.93081506 0 0 1 -0.51218,-0.930811 0.51217857,0.93081506 0 0 1 0.51218,-0.930816 0.51217857,0.93081506 0 0 1 0.51218,0.930816 z m -8.86568,2.008174 a 0.73625677,0.87910317 0 0 1 -0.73626,0.879101 0.73625677,0.87910317 0 0 1 -0.73626,-0.879101 0.73625677,0.87910317 0 0 1 0.73626,-0.879102 0.73625677,0.87910317 0 0 1 0.73626,0.879102 z m 4.03343,-4.369661 a 0.99234606,0.38783962 0 0 1 -0.99235,0.38784 0.99234606,0.38783962 0 0 1 -0.99235,-0.38784 0.99234606,0.38783962 0 0 1 0.99235,-0.387837 0.99234606,0.38783962 0 0 1 0.99235,0.387837 z m -2.88102,-0.103424 a 0.92832376,0.5429755 0 0 1 -0.92833,0.542979 0.92832376,0.5429755 0 0 1 -0.92833,-0.542979 0.92832376,0.5429755 0 0 1 0.92833,-0.542975 0.92832376,0.5429755 0 0 1 0.92833,0.542975 z m 1.85666,4.809211 a 0.73625677,0.59468743 0 0 1 -0.73626,0.594689 0.73625677,0.59468743 0 0 1 -0.73626,-0.594689 0.73625677,0.59468743 0 0 1 0.73626,-0.594684 0.73625677,0.59468743 0 0 1 0.73626,0.594684 z m 0.44816,-2.43046 a 0.48016744,0.85324723 0 0 1 -0.48017,0.853246 0.48016744,0.85324723 0 0 1 -0.48017,-0.853246 0.48016744,0.85324723 0 0 1 0.48017,-0.853247 0.48016744,0.85324723 0 0 1 0.48017,0.853247 z m -1.9847,-0.284417 a 0.51217857,0.93081506 0 0 1 -0.51218,0.930815 0.51217857,0.93081506 0 0 1 -0.51218,-0.930815 0.51217857,0.93081506 0 0 1 0.51218,-0.930816 0.51217857,0.93081506 0 0 1 0.51218,0.930816 z m -6.25181,-7.0027348 h 21.70597 c 0.54987,0 0.99255,0.454293 0.99255,1.018591 V 45.736956 c 0,0.5643 -0.44268,1.01859 -0.99255,1.01859 h -21.70602 c -0.54987,0 -0.99254,-0.45429 -0.99254,-1.01859 V 8.0456062 c 0,-0.564298 0.44267,-1.018591 0.99254,-1.018591 z m 3.77903,2.9660868 h 14.29233 c 0.56214,0 1.01469,0.464427 1.01469,1.041314 v 30.82437 c 0,0.57688 -0.45255,1.04131 -1.01469,1.04131 h -14.29238 c -0.56214,0 -1.01469,-0.46443 -1.01469,-1.04131 v -30.82437 c 0,-0.576887 0.45255,-1.041314 1.01469,-1.041314 z m -7.77281,-10.41771477 h 54.979511 c 4.79236,0 8.65049,3.51473297 8.65049,7.88056697 V 94.381006 c 0,4.365845 -3.85813,7.880574 -8.65049,7.880574 H 13.553903 c -4.7923705,0 -8.6504905,-3.514729 -8.6504905,-7.880574 V 7.4559542 c 0,-4.365834 3.85812,-7.88056697 8.6504905,-7.88056697 z m 6.83734,7.29659297 h 43.062991 c 4.79237,0 8.65049,3.5147328 8.65049,7.8805668 v 74.467459 c 0,4.36584 -3.85812,7.88057 -8.65049,7.88057 H 20.391243 c -4.79236,0 -8.65048,-3.51473 -8.65048,-7.88057 V 14.752547 c 0,-4.365834 3.85812,-7.8805668 8.65048,-7.8805668 z" />
  </g>
  <g
     inkscape:groupmode="layer"
     id="layer2"
     inkscape:label="Layer 2">
    <path
       id="path833"
       style="fill:#000000;fill-rule:evenodd;stroke:#000000;stroke-width:0.406078;stroke-linecap:round;stroke-linejoin:round;paint-order:stroke markers fill"
       d="m 120.11587,62.808321 c 0.51029,-0.2119 1.1001,0.0086 1.32243,0.494344 l 1.91405,4.181812 c 0.22234,0.485765 -0.01,1.04742 -0.51977,1.25932 -0.5103,0.211896 -1.10009,-0.0086 -1.32243,-0.494344 l -1.91404,-4.181812 c -0.22235,-0.485761 0.009,-1.04742 0.51976,-1.25932 z m 6.60128,2.043869 a 4.6510895,4.47295 33.442754 0 1 -2.26633,5.917719 4.6510895,4.47295 33.442754 0 1 -6.09443,-2.445901 4.6510895,4.47295 33.442754 0 1 2.26633,-5.917719 4.6510895,4.47295 33.442754 0 1 6.09443,2.445901 z m 45.35254,1.027533 c 0.11748,0.60207 -0.0388,1.26951 -0.35038,1.4965 l -2.68236,1.95415 c -0.31159,0.227 -0.657,-0.075 -0.77448,-0.67703 -0.11747,-0.60207 0.0388,-1.26951 0.35038,-1.4965 l 2.68236,-1.95415 c 0.31158,-0.22699 0.657,0.075 0.77448,0.67703 z m -1.48308,7.49611 a 2.8476177,5.3064088 1.4151422 0 1 -3.64473,-2.9781 2.8476177,5.3064088 1.4151422 0 1 1.71996,-6.8864 2.8476177,5.3064088 1.4151422 0 1 3.64474,2.9781 2.8476177,5.3064088 1.4151422 0 1 -1.71997,6.8864 z m -24.17987,-5.317249 c 0.95291,0 1.72007,0.698874 1.72007,1.566977 v 4.700931 c 0,0.868103 -0.76716,1.566976 -1.72007,1.566976 -0.95292,0 -1.72007,-0.698873 -1.72007,-1.566976 v -4.700931 c 0,-0.868103 0.76715,-1.566977 1.72007,-1.566977 z m 5.54244,5.720832 a 4.8734985,6.0067425 0 0 1 -4.87352,6.00674 4.8734985,6.0067425 0 0 1 -4.87353,-6.00674 4.8734985,6.0067425 0 0 1 4.87353,-6.006743 4.8734985,6.0067425 0 0 1 4.87352,6.006743 z m 12.51388,0.116965 A 18.161358,19.926379 0 0 1 146.3016,93.822759 18.161358,19.926379 0 0 1 128.14014,73.896381 18.161358,19.926379 0 0 1 146.3016,53.969999 18.161358,19.926379 0 0 1 164.46306,73.896381 Z m -3.51002,0.622875 a 14.162991,14.860135 0 0 1 -14.16306,14.860137 14.162991,14.860135 0 0 1 -14.16307,-14.860137 14.162991,14.860135 0 0 1 14.16307,-14.860133 14.162991,14.860135 0 0 1 14.16306,14.860133 z m 0.50801,-30.223604 a 0.73625677,0.87910317 0 0 1 -0.73626,0.8791 0.73625677,0.87910317 0 0 1 -0.73627,-0.8791 0.73625677,0.87910317 0 0 1 0.73627,-0.879105 0.73625677,0.87910317 0 0 1 0.73626,0.879105 z m 4.03346,-4.369665 a 0.99234606,0.38783962 0 0 1 -0.99236,0.387841 0.99234606,0.38783962 0 0 1 -0.99236,-0.387841 0.99234606,0.38783962 0 0 1 0.99236,-0.387837 0.99234606,0.38783962 0 0 1 0.99236,0.387837 z m -2.88104,-0.103427 a 0.92832376,0.5429755 0 0 1 -0.92834,0.542979 0.92832376,0.5429755 0 0 1 -0.92833,-0.542979 0.92832376,0.5429755 0 0 1 0.92833,-0.542975 0.92832376,0.5429755 0 0 1 0.92834,0.542975 z m 1.85667,4.809217 a 0.73625677,0.59468743 0 0 1 -0.73627,0.594691 0.73625677,0.59468743 0 0 1 -0.73627,-0.594691 0.73625677,0.59468743 0 0 1 0.73627,-0.59469 0.73625677,0.59468743 0 0 1 0.73627,0.59469 z m 0.44816,-2.430464 a 0.48016744,0.85324723 0 0 1 -0.48017,0.853247 0.48016744,0.85324723 0 0 1 -0.48018,-0.853247 0.48016744,0.85324723 0 0 1 0.48018,-0.853247 0.48016744,0.85324723 0 0 1 0.48017,0.853247 z m -1.98472,-0.284414 a 0.51217857,0.93081506 0 0 1 -0.51218,0.930816 0.51217857,0.93081506 0 0 1 -0.51219,-0.930816 0.51217857,0.93081506 0 0 1 0.51219,-0.930816 0.51217857,0.93081506 0 0 1 0.51218,0.930816 z m -9.05195,2.378753 a 0.73625677,0.87910317 0 0 1 -0.73627,0.8791 0.73625677,0.87910317 0 0 1 -0.73626,-0.8791 0.73625677,0.87910317 0 0 1 0.73626,-0.879105 0.73625677,0.87910317 0 0 1 0.73627,0.879105 z m 4.03344,-4.369665 a 0.99234606,0.38783962 0 0 1 -0.99235,0.387841 0.99234606,0.38783962 0 0 1 -0.99235,-0.387841 0.99234606,0.38783962 0 0 1 0.99235,-0.387837 0.99234606,0.38783962 0 0 1 0.99235,0.387837 z m -2.88103,-0.103427 a 0.92832376,0.5429755 0 0 1 -0.92834,0.542979 0.92832376,0.5429755 0 0 1 -0.92833,-0.542979 0.92832376,0.5429755 0 0 1 0.92833,-0.542975 0.92832376,0.5429755 0 0 1 0.92834,0.542975 z m 1.85667,4.809217 a 0.73625677,0.59468743 0 0 1 -0.73627,0.594691 0.73625677,0.59468743 0 0 1 -0.73626,-0.594691 0.73625677,0.59468743 0 0 1 0.73626,-0.59469 0.73625677,0.59468743 0 0 1 0.73627,0.59469 z m 0.44816,-2.430464 a 0.48016744,0.85324723 0 0 1 -0.48017,0.853247 0.48016744,0.85324723 0 0 1 -0.48017,-0.853247 0.48016744,0.85324723 0 0 1 0.48017,-0.853247 0.48016744,0.85324723 0 0 1 0.48017,0.853247 z m -1.98471,-0.284414 a 0.51217857,0.93081506 0 0 1 -0.51218,0.930816 0.51217857,0.93081506 0 0 1 -0.51219,-0.930816 0.51217857,0.93081506 0 0 1 0.51219,-0.930816 0.51217857,0.93081506 0 0 1 0.51218,0.930816 z m 5.66104,-12.834603 a 0.73625677,0.87910317 0 0 1 -0.73626,0.879102 0.73625677,0.87910317 0 0 1 -0.73627,-0.879102 0.73625677,0.87910317 0 0 1 0.73627,-0.879106 0.73625677,0.87910317 0 0 1 0.73626,0.879106 z m 4.03346,-4.369661 a 0.99234606,0.38783962 0 0 1 -0.99236,0.387837 0.99234606,0.38783962 0 0 1 -0.99236,-0.387837 0.99234606,0.38783962 0 0 1 0.99236,-0.387836 0.99234606,0.38783962 0 0 1 0.99236,0.387836 z m -2.88105,-0.103424 a 0.92832376,0.5429755 0 0 1 -0.92832,0.542975 0.92832376,0.5429755 0 0 1 -0.92834,-0.542975 0.92832376,0.5429755 0 0 1 0.92834,-0.542974 0.92832376,0.5429755 0 0 1 0.92832,0.542974 z m 1.85668,4.809212 a 0.73625677,0.59468743 0 0 1 -0.73627,0.594689 0.73625677,0.59468743 0 0 1 -0.73626,-0.594689 0.73625677,0.59468743 0 0 1 0.73626,-0.594689 0.73625677,0.59468743 0 0 1 0.73627,0.594689 z m 0.44816,-2.430465 a 0.48016744,0.85324723 0 0 1 -0.48017,0.853246 0.48016744,0.85324723 0 0 1 -0.48018,-0.853246 0.48016744,0.85324723 0 0 1 0.48018,-0.853247 0.48016744,0.85324723 0 0 1 0.48017,0.853247 z m -1.98471,-0.284413 a 0.51217857,0.93081506 0 0 1 -0.51219,0.930816 0.51217857,0.93081506 0 0 1 -0.51218,-0.930816 0.51217857,0.93081506 0 0 1 0.51218,-0.930815 0.51217857,0.93081506 0 0 1 0.51219,0.930815 z m -1.91839,10.385778 a 0.73625677,0.87910317 0 0 1 -0.73626,0.879107 0.73625677,0.87910317 0 0 1 -0.73627,-0.879107 0.73625677,0.87910317 0 0 1 0.73627,-0.879101 0.73625677,0.87910317 0 0 1 0.73626,0.879101 z m 4.03346,-4.36966 a 0.99234606,0.38783962 0 0 1 -0.99236,0.387841 0.99234606,0.38783962 0 0 1 -0.99236,-0.387841 0.99234606,0.38783962 0 0 1 0.99236,-0.387841 0.99234606,0.38783962 0 0 1 0.99236,0.387841 z m -2.88104,-0.103424 a 0.92832376,0.5429755 0 0 1 -0.92834,0.542979 0.92832376,0.5429755 0 0 1 -0.92833,-0.542979 0.92832376,0.5429755 0 0 1 0.92833,-0.542975 0.92832376,0.5429755 0 0 1 0.92834,0.542975 z m 1.85667,4.809211 a 0.73625677,0.59468743 0 0 1 -0.73627,0.594689 0.73625677,0.59468743 0 0 1 -0.73626,-0.594689 0.73625677,0.59468743 0 0 1 0.73626,-0.594688 0.73625677,0.59468743 0 0 1 0.73627,0.594688 z m 0.44816,-2.43046 a 0.48016744,0.85324723 0 0 1 -0.48017,0.853246 0.48016744,0.85324723 0 0 1 -0.48018,-0.853246 0.48016744,0.85324723 0 0 1 0.48018,-0.853247 0.48016744,0.85324723 0 0 1 0.48017,0.853247 z m -1.98472,-0.284417 a 0.51217857,0.93081506 0 0 1 -0.51218,0.930816 0.51217857,0.93081506 0 0 1 -0.51218,-0.930816 0.51217857,0.93081506 0 0 1 0.51218,-0.930811 0.51217857,0.93081506 0 0 1 0.51218,0.930811 z m -8.16025,1.463664 a 0.73625677,0.87910317 0 0 1 -0.73627,0.879102 0.73625677,0.87910317 0 0 1 -0.73626,-0.879102 0.73625677,0.87910317 0 0 1 0.73626,-0.879105 0.73625677,0.87910317 0 0 1 0.73627,0.879105 z m 4.03344,-4.369665 a 0.99234606,0.38783962 0 0 1 -0.99235,0.387841 0.99234606,0.38783962 0 0 1 -0.99235,-0.387841 0.99234606,0.38783962 0 0 1 0.99235,-0.387836 0.99234606,0.38783962 0 0 1 0.99235,0.387836 z m -2.88103,-0.103424 a 0.92832376,0.5429755 0 0 1 -0.92834,0.542979 0.92832376,0.5429755 0 0 1 -0.92833,-0.542979 0.92832376,0.5429755 0 0 1 0.92833,-0.542974 0.92832376,0.5429755 0 0 1 0.92834,0.542974 z m 1.85667,4.809216 a 0.73625677,0.59468743 0 0 1 -0.73627,0.594689 0.73625677,0.59468743 0 0 1 -0.73626,-0.594689 0.73625677,0.59468743 0 0 1 0.73626,-0.594689 0.73625677,0.59468743 0 0 1 0.73627,0.594689 z m 0.44816,-2.430465 a 0.48016744,0.85324723 0 0 1 -0.48017,0.853247 0.48016744,0.85324723 0 0 1 -0.48017,-0.853247 0.48016744,0.85324723 0 0 1 0.48017,-0.853246 0.48016744,0.85324723 0 0 1 0.48017,0.853246 z m -1.98471,-0.284413 a 0.51217857,0.93081506 0 0 1 -0.51218,0.930816 0.51217857,0.93081506 0 0 1 -0.51219,-0.930816 0.51217857,0.93081506 0 0 1 0.51219,-0.930815 0.51217857,0.93081506 0 0 1 0.51218,0.930815 z m -0.0281,-6.070344 a 0.73625677,0.87910317 0 0 1 -0.73626,0.879102 0.73625677,0.87910317 0 0 1 -0.73627,-0.879102 0.73625677,0.87910317 0 0 1 0.73627,-0.879105 0.73625677,0.87910317 0 0 1 0.73626,0.879105 z m 4.03345,-4.369661 a 0.99234606,0.38783962 0 0 1 -0.99237,0.387841 0.99234606,0.38783962 0 0 1 -0.99234,-0.387841 0.99234606,0.38783962 0 0 1 0.99234,-0.38784 0.99234606,0.38783962 0 0 1 0.99237,0.38784 z m -2.88103,-0.103424 a 0.92832376,0.5429755 0 0 1 -0.92834,0.542975 0.92832376,0.5429755 0 0 1 -0.92834,-0.542975 0.92832376,0.5429755 0 0 1 0.92834,-0.542974 0.92832376,0.5429755 0 0 1 0.92834,0.542974 z m 1.85665,4.809212 a 0.73625677,0.59468743 0 0 1 -0.73626,0.594689 0.73625677,0.59468743 0 0 1 -0.73626,-0.594689 0.73625677,0.59468743 0 0 1 0.73626,-0.594689 0.73625677,0.59468743 0 0 1 0.73626,0.594689 z m 0.44817,-2.430461 a 0.48016744,0.85324723 0 0 1 -0.48018,0.853247 0.48016744,0.85324723 0 0 1 -0.48017,-0.853247 0.48016744,0.85324723 0 0 1 0.48017,-0.853246 0.48016744,0.85324723 0 0 1 0.48018,0.853246 z m -1.98471,-0.284417 a 0.51217857,0.93081506 0 0 1 -0.51219,0.930816 0.51217857,0.93081506 0 0 1 -0.51218,-0.930816 0.51217857,0.93081506 0 0 1 0.51218,-0.930815 0.51217857,0.93081506 0 0 1 0.51219,0.930815 z m 3.6551,-6.144458 a 0.73625677,0.87910317 0 0 1 -0.73626,0.879105 0.73625677,0.87910317 0 0 1 -0.73627,-0.879105 0.73625677,0.87910317 0 0 1 0.73627,-0.879102 0.73625677,0.87910317 0 0 1 0.73626,0.879102 z m 4.03347,-4.369657 a 0.99234606,0.38783962 0 0 1 -0.99237,0.387836 0.99234606,0.38783962 0 0 1 -0.99235,-0.387836 0.99234606,0.38783962 0 0 1 0.99235,-0.387841 0.99234606,0.38783962 0 0 1 0.99237,0.387841 z m -2.88105,-0.103428 a 0.92832376,0.5429755 0 0 1 -0.92834,0.542979 0.92832376,0.5429755 0 0 1 -0.92833,-0.542979 0.92832376,0.5429755 0 0 1 0.92833,-0.542975 0.92832376,0.5429755 0 0 1 0.92834,0.542975 z m 1.85667,4.809211 a 0.73625677,0.59468743 0 0 1 -0.73627,0.594689 0.73625677,0.59468743 0 0 1 -0.73626,-0.594689 0.73625677,0.59468743 0 0 1 0.73626,-0.594684 0.73625677,0.59468743 0 0 1 0.73627,0.594684 z m 0.44817,-2.43046 a 0.48016744,0.85324723 0 0 1 -0.48018,0.853246 0.48016744,0.85324723 0 0 1 -0.48018,-0.853246 0.48016744,0.85324723 0 0 1 0.48018,-0.853247 0.48016744,0.85324723 0 0 1 0.48018,0.853247 z m -1.98472,-0.284413 a 0.51217857,0.93081506 0 0 1 -0.51219,0.930811 0.51217857,0.93081506 0 0 1 -0.51218,-0.930811 0.51217857,0.93081506 0 0 1 0.51218,-0.930816 0.51217857,0.93081506 0 0 1 0.51219,0.930816 z m -8.86572,2.008174 a 0.73625677,0.87910317 0 0 1 -0.73626,0.879101 0.73625677,0.87910317 0 0 1 -0.73627,-0.879101 0.73625677,0.87910317 0 0 1 0.73627,-0.879102 0.73625677,0.87910317 0 0 1 0.73626,0.879102 z m 4.03345,-4.369661 a 0.99234606,0.38783962 0 0 1 -0.99236,0.38784 0.99234606,0.38783962 0 0 1 -0.99235,-0.38784 0.99234606,0.38783962 0 0 1 0.99235,-0.387837 0.99234606,0.38783962 0 0 1 0.99236,0.387837 z m -2.88103,-0.103424 a 0.92832376,0.5429755 0 0 1 -0.92833,0.542979 0.92832376,0.5429755 0 0 1 -0.92834,-0.542979 0.92832376,0.5429755 0 0 1 0.92834,-0.542975 0.92832376,0.5429755 0 0 1 0.92833,0.542975 z m 1.85667,4.809211 a 0.73625677,0.59468743 0 0 1 -0.73627,0.594689 0.73625677,0.59468743 0 0 1 -0.73626,-0.594689 0.73625677,0.59468743 0 0 1 0.73626,-0.594684 0.73625677,0.59468743 0 0 1 0.73627,0.594684 z m 0.44817,-2.43046 a 0.48016744,0.85324723 0 0 1 -0.48018,0.853246 0.48016744,0.85324723 0 0 1 -0.48017,-0.853246 0.48016744,0.85324723 0 0 1 0.48017,-0.853247 0.48016744,0.85324723 0 0 1 0.48018,0.853247 z m -1.98472,-0.284417 a 0.51217857,0.93081506 0 0 1 -0.51219,0.930815 0.51217857,0.93081506 0 0 1 -0.51218,-0.930815 0.51217857,0.93081506 0 0 1 0.51218,-0.930816 0.51217857,0.93081506 0 0 1 0.51219,0.930816 z m -6.25186,-7.0027345 h 21.70607 c 0.54987,0 0.99255,0.454293 0.99255,1.0185905 v 37.691356 c 0,0.564298 -0.44268,1.018587 -0.99255,1.018587 h -21.70612 c -0.54987,0 -0.99255,-0.454289 -0.99255,-1.018587 V 10.468465 c 0,-0.5642975 0.44268,-1.0185905 0.99255,-1.0185905 z m 3.77906,2.9660865 h 14.29241 c 0.56213,0 1.01468,0.464427 1.01468,1.041314 v 30.824366 c 0,0.576885 -0.45255,1.041314 -1.01468,1.041314 H 152.0602 c -0.56214,0 -1.01469,-0.464429 -1.01469,-1.041314 V 13.457275 c 0,-0.576887 0.45255,-1.041314 1.01469,-1.041314 z m -17.63766,31.879691 a 0.73625677,0.87910317 0 0 1 -0.73626,0.8791 0.73625677,0.87910317 0 0 1 -0.73627,-0.8791 0.73625677,0.87910317 0 0 1 0.73627,-0.879105 0.73625677,0.87910317 0 0 1 0.73626,0.879105 z m 4.03343,-4.369665 a 0.99234606,0.38783962 0 0 1 -0.99236,0.387841 0.99234606,0.38783962 0 0 1 -0.99235,-0.387841 0.99234606,0.38783962 0 0 1 0.99235,-0.387837 0.99234606,0.38783962 0 0 1 0.99236,0.387837 z m -2.88103,-0.103427 a 0.92832376,0.5429755 0 0 1 -0.92833,0.542979 0.92832376,0.5429755 0 0 1 -0.92832,-0.542979 0.92832376,0.5429755 0 0 1 0.92832,-0.542975 0.92832376,0.5429755 0 0 1 0.92833,0.542975 z m 1.85667,4.809217 a 0.73625677,0.59468743 0 0 1 -0.73627,0.594691 0.73625677,0.59468743 0 0 1 -0.73626,-0.594691 0.73625677,0.59468743 0 0 1 0.73626,-0.59469 0.73625677,0.59468743 0 0 1 0.73627,0.59469 z m 0.44815,-2.430464 a 0.48016744,0.85324723 0 0 1 -0.48017,0.853247 0.48016744,0.85324723 0 0 1 -0.48017,-0.853247 0.48016744,0.85324723 0 0 1 0.48017,-0.853247 0.48016744,0.85324723 0 0 1 0.48017,0.853247 z m -1.9847,-0.284414 a 0.51217857,0.93081506 0 0 1 -0.51218,0.930816 0.51217857,0.93081506 0 0 1 -0.51218,-0.930816 0.51217857,0.93081506 0 0 1 0.51218,-0.930816 0.51217857,0.93081506 0 0 1 0.51218,0.930816 z m -9.05192,2.378753 a 0.73625677,0.87910317 0 0 1 -0.73626,0.8791 0.73625677,0.87910317 0 0 1 -0.73626,-0.8791 0.73625677,0.87910317 0 0 1 0.73626,-0.879105 0.73625677,0.87910317 0 0 1 0.73626,0.879105 z m 4.03343,-4.369665 a 0.99234606,0.38783962 0 0 1 -0.99235,0.387841 0.99234606,0.38783962 0 0 1 -0.99235,-0.387841 0.99234606,0.38783962 0 0 1 0.99235,-0.387837 0.99234606,0.38783962 0 0 1 0.99235,0.387837 z M 127.9956,39.82256 a 0.92832376,0.5429755 0 0 1 -0.92833,0.542979 0.92832376,0.5429755 0 0 1 -0.92833,-0.542979 0.92832376,0.5429755 0 0 1 0.92833,-0.542975 0.92832376,0.5429755 0 0 1 0.92833,0.542975 z m 1.85666,4.809217 a 0.73625677,0.59468743 0 0 1 -0.73626,0.594691 0.73625677,0.59468743 0 0 1 -0.73626,-0.594691 0.73625677,0.59468743 0 0 1 0.73626,-0.59469 0.73625677,0.59468743 0 0 1 0.73626,0.59469 z m 0.44816,-2.430464 a 0.48016744,0.85324723 0 0 1 -0.48017,0.853247 0.48016744,0.85324723 0 0 1 -0.48017,-0.853247 0.48016744,0.85324723 0 0 1 0.48017,-0.853247 0.48016744,0.85324723 0 0 1 0.48017,0.853247 z m -1.98471,-0.284414 a 0.51217857,0.93081506 0 0 1 -0.51218,0.930816 0.51217857,0.93081506 0 0 1 -0.51218,-0.930816 0.51217857,0.93081506 0 0 1 0.51218,-0.930816 0.51217857,0.93081506 0 0 1 0.51218,0.930816 z m 5.66103,-12.834603 a 0.73625677,0.87910317 0 0 1 -0.73626,0.879102 0.73625677,0.87910317 0 0 1 -0.73626,-0.879102 0.73625677,0.87910317 0 0 1 0.73626,-0.879106 0.73625677,0.87910317 0 0 1 0.73626,0.879106 z m 4.03343,-4.369661 a 0.99234606,0.38783962 0 0 1 -0.99235,0.387837 0.99234606,0.38783962 0 0 1 -0.99235,-0.387837 0.99234606,0.38783962 0 0 1 0.99235,-0.387836 0.99234606,0.38783962 0 0 1 0.99235,0.387836 z m -2.88102,-0.103424 a 0.92832376,0.5429755 0 0 1 -0.92833,0.542975 0.92832376,0.5429755 0 0 1 -0.92833,-0.542975 0.92832376,0.5429755 0 0 1 0.92833,-0.542974 0.92832376,0.5429755 0 0 1 0.92833,0.542974 z m 1.85666,4.809212 a 0.73625677,0.59468743 0 0 1 -0.73626,0.594689 0.73625677,0.59468743 0 0 1 -0.73627,-0.594689 0.73625677,0.59468743 0 0 1 0.73627,-0.594689 0.73625677,0.59468743 0 0 1 0.73626,0.594689 z m 0.44816,-2.430465 a 0.48016744,0.85324723 0 0 1 -0.48017,0.853246 0.48016744,0.85324723 0 0 1 -0.48017,-0.853246 0.48016744,0.85324723 0 0 1 0.48017,-0.853247 0.48016744,0.85324723 0 0 1 0.48017,0.853247 z m -1.98471,-0.284413 a 0.51217857,0.93081506 0 0 1 -0.51218,0.930816 0.51217857,0.93081506 0 0 1 -0.51218,-0.930816 0.51217857,0.93081506 0 0 1 0.51218,-0.930815 0.51217857,0.93081506 0 0 1 0.51218,0.930815 z m -1.91837,10.385778 a 0.73625677,0.87910317 0 0 1 -0.73626,0.879107 0.73625677,0.87910317 0 0 1 -0.73626,-0.879107 0.73625677,0.87910317 0 0 1 0.73626,-0.879101 0.73625677,0.87910317 0 0 1 0.73626,0.879101 z m 4.03344,-4.36966 a 0.99234606,0.38783962 0 0 1 -0.99236,0.387841 0.99234606,0.38783962 0 0 1 -0.99235,-0.387841 0.99234606,0.38783962 0 0 1 0.99235,-0.387841 0.99234606,0.38783962 0 0 1 0.99236,0.387841 z m -2.88103,-0.103424 a 0.92832376,0.5429755 0 0 1 -0.92833,0.542979 0.92832376,0.5429755 0 0 1 -0.92833,-0.542979 0.92832376,0.5429755 0 0 1 0.92833,-0.542975 0.92832376,0.5429755 0 0 1 0.92833,0.542975 z m 1.85666,4.809211 a 0.73625677,0.59468743 0 0 1 -0.73626,0.594689 0.73625677,0.59468743 0 0 1 -0.73626,-0.594689 0.73625677,0.59468743 0 0 1 0.73626,-0.594688 0.73625677,0.59468743 0 0 1 0.73626,0.594688 z m 0.44816,-2.43046 a 0.48016744,0.85324723 0 0 1 -0.48017,0.853246 0.48016744,0.85324723 0 0 1 -0.48017,-0.853246 0.48016744,0.85324723 0 0 1 0.48017,-0.853247 0.48016744,0.85324723 0 0 1 0.48017,0.853247 z m -1.9847,-0.284417 a 0.51217857,0.93081506 0 0 1 -0.51219,0.930816 0.51217857,0.93081506 0 0 1 -0.51218,-0.930816 0.51217857,0.93081506 0 0 1 0.51218,-0.930811 0.51217857,0.93081506 0 0 1 0.51219,0.930811 z m -8.16023,1.463664 a 0.73625677,0.87910317 0 0 1 -0.73626,0.879102 0.73625677,0.87910317 0 0 1 -0.73626,-0.879102 0.73625677,0.87910317 0 0 1 0.73626,-0.879105 0.73625677,0.87910317 0 0 1 0.73626,0.879105 z m 4.03343,-4.369665 a 0.99234606,0.38783962 0 0 1 -0.99235,0.387841 0.99234606,0.38783962 0 0 1 -0.99235,-0.387841 0.99234606,0.38783962 0 0 1 0.99235,-0.387836 0.99234606,0.38783962 0 0 1 0.99235,0.387836 z m -2.88102,-0.103424 a 0.92832376,0.5429755 0 0 1 -0.92833,0.542979 0.92832376,0.5429755 0 0 1 -0.92833,-0.542979 0.92832376,0.5429755 0 0 1 0.92833,-0.542974 0.92832376,0.5429755 0 0 1 0.92833,0.542974 z m 1.85666,4.809216 a 0.73625677,0.59468743 0 0 1 -0.73626,0.594689 0.73625677,0.59468743 0 0 1 -0.73626,-0.594689 0.73625677,0.59468743 0 0 1 0.73626,-0.594689 0.73625677,0.59468743 0 0 1 0.73626,0.594689 z m 0.44816,-2.430465 a 0.48016744,0.85324723 0 0 1 -0.48017,0.853247 0.48016744,0.85324723 0 0 1 -0.48017,-0.853247 0.48016744,0.85324723 0 0 1 0.48017,-0.853246 0.48016744,0.85324723 0 0 1 0.48017,0.853246 z m -1.98471,-0.284413 a 0.51217857,0.93081506 0 0 1 -0.51218,0.930816 0.51217857,0.93081506 0 0 1 -0.51218,-0.930816 0.51217857,0.93081506 0 0 1 0.51218,-0.930815 0.51217857,0.93081506 0 0 1 0.51218,0.930815 z m -0.0281,-6.070344 a 0.73625677,0.87910317 0 0 1 -0.73625,0.879102 0.73625677,0.87910317 0 0 1 -0.73626,-0.879102 0.73625677,0.87910317 0 0 1 0.73626,-0.879105 0.73625677,0.87910317 0 0 1 0.73625,0.879105 z m 4.03344,-4.369661 a 0.99234606,0.38783962 0 0 1 -0.99235,0.387841 0.99234606,0.38783962 0 0 1 -0.99235,-0.387841 0.99234606,0.38783962 0 0 1 0.99235,-0.38784 0.99234606,0.38783962 0 0 1 0.99235,0.38784 z m -2.88102,-0.103424 a 0.92832376,0.5429755 0 0 1 -0.92833,0.542975 0.92832376,0.5429755 0 0 1 -0.92833,-0.542975 0.92832376,0.5429755 0 0 1 0.92833,-0.542974 0.92832376,0.5429755 0 0 1 0.92833,0.542974 z m 1.85665,4.809212 a 0.73625677,0.59468743 0 0 1 -0.73626,0.594689 0.73625677,0.59468743 0 0 1 -0.73626,-0.594689 0.73625677,0.59468743 0 0 1 0.73626,-0.594689 0.73625677,0.59468743 0 0 1 0.73626,0.594689 z m 0.44816,-2.430461 a 0.48016744,0.85324723 0 0 1 -0.48016,0.853247 0.48016744,0.85324723 0 0 1 -0.48017,-0.853247 0.48016744,0.85324723 0 0 1 0.48017,-0.853246 0.48016744,0.85324723 0 0 1 0.48016,0.853246 z m -1.9847,-0.284417 a 0.51217857,0.93081506 0 0 1 -0.51218,0.930816 0.51217857,0.93081506 0 0 1 -0.51218,-0.930816 0.51217857,0.93081506 0 0 1 0.51218,-0.930815 0.51217857,0.93081506 0 0 1 0.51218,0.930815 z m 3.65509,-6.144458 a 0.73625677,0.87910317 0 0 1 -0.73625,0.879105 0.73625677,0.87910317 0 0 1 -0.73627,-0.879105 0.73625677,0.87910317 0 0 1 0.73627,-0.879102 0.73625677,0.87910317 0 0 1 0.73625,0.879102 z m 4.03344,-4.369657 a 0.99234606,0.38783962 0 0 1 -0.99235,0.387836 0.99234606,0.38783962 0 0 1 -0.99235,-0.387836 0.99234606,0.38783962 0 0 1 0.99235,-0.387841 0.99234606,0.38783962 0 0 1 0.99235,0.387841 z m -2.88103,-0.103428 a 0.92832376,0.5429755 0 0 1 -0.92833,0.542979 0.92832376,0.5429755 0 0 1 -0.92832,-0.542979 0.92832376,0.5429755 0 0 1 0.92832,-0.542975 0.92832376,0.5429755 0 0 1 0.92833,0.542975 z m 1.85666,4.809211 a 0.73625677,0.59468743 0 0 1 -0.73626,0.594689 0.73625677,0.59468743 0 0 1 -0.73626,-0.594689 0.73625677,0.59468743 0 0 1 0.73626,-0.594684 0.73625677,0.59468743 0 0 1 0.73626,0.594684 z m 0.44816,-2.43046 a 0.48016744,0.85324723 0 0 1 -0.48017,0.853246 0.48016744,0.85324723 0 0 1 -0.48017,-0.853246 0.48016744,0.85324723 0 0 1 0.48017,-0.853247 0.48016744,0.85324723 0 0 1 0.48017,0.853247 z m -1.9847,-0.284413 a 0.51217857,0.93081506 0 0 1 -0.51218,0.930811 0.51217857,0.93081506 0 0 1 -0.51218,-0.930811 0.51217857,0.93081506 0 0 1 0.51218,-0.930816 0.51217857,0.93081506 0 0 1 0.51218,0.930816 z m -8.86568,2.008174 a 0.73625677,0.87910317 0 0 1 -0.73626,0.879101 0.73625677,0.87910317 0 0 1 -0.73626,-0.879101 0.73625677,0.87910317 0 0 1 0.73626,-0.879102 0.73625677,0.87910317 0 0 1 0.73626,0.879102 z m 4.03343,-4.369661 a 0.99234606,0.38783962 0 0 1 -0.99235,0.38784 0.99234606,0.38783962 0 0 1 -0.99235,-0.38784 0.99234606,0.38783962 0 0 1 0.99235,-0.387837 0.99234606,0.38783962 0 0 1 0.99235,0.387837 z m -2.88102,-0.103424 a 0.92832376,0.5429755 0 0 1 -0.92833,0.542979 0.92832376,0.5429755 0 0 1 -0.92833,-0.542979 0.92832376,0.5429755 0 0 1 0.92833,-0.542975 0.92832376,0.5429755 0 0 1 0.92833,0.542975 z m 1.85666,4.809211 a 0.73625677,0.59468743 0 0 1 -0.73626,0.594689 0.73625677,0.59468743 0 0 1 -0.73626,-0.594689 0.73625677,0.59468743 0 0 1 0.73626,-0.594684 0.73625677,0.59468743 0 0 1 0.73626,0.594684 z m 0.44816,-2.43046 a 0.48016744,0.85324723 0 0 1 -0.48017,0.853246 0.48016744,0.85324723 0 0 1 -0.48017,-0.853246 0.48016744,0.85324723 0 0 1 0.48017,-0.853247 0.48016744,0.85324723 0 0 1 0.48017,0.853247 z m -1.9847,-0.284417 a 0.51217857,0.93081506 0 0 1 -0.51218,0.930815 0.51217857,0.93081506 0 0 1 -0.51218,-0.930815 0.51217857,0.93081506 0 0 1 0.51218,-0.930816 0.51217857,0.93081506 0 0 1 0.51218,0.930816 z M 121.2428,9.4498745 h 21.70597 c 0.54987,0 0.99255,0.454293 0.99255,1.0185905 v 37.691356 c 0,0.564298 -0.44268,1.018587 -0.99255,1.018587 h -21.70602 c -0.54987,0 -0.99254,-0.454289 -0.99254,-1.018587 V 10.468465 c 0,-0.5642975 0.44267,-1.0185905 0.99254,-1.0185905 z m 3.77903,2.9660865 h 14.29233 c 0.56214,0 1.01469,0.464427 1.01469,1.041314 v 30.824366 c 0,0.576885 -0.45255,1.041314 -1.01469,1.041314 h -14.29238 c -0.56214,0 -1.01469,-0.464429 -1.01469,-1.041314 V 13.457275 c 0,-0.576887 0.45255,-1.041314 1.01469,-1.041314 z M 117.24902,1.9982457 h 54.97951 c 4.79236,0 8.65049,3.5147332 8.65049,7.8805678 V 96.803863 c 0,4.365847 -3.85813,7.880577 -8.65049,7.880577 h -54.97951 c -4.79237,0 -8.65049,-3.51473 -8.65049,-7.880577 V 9.8788135 c 0,-4.3658346 3.85812,-7.8805678 8.65049,-7.8805678 z m 6.83734,7.2965938 h 43.06299 c 4.79237,0 8.65049,3.5147325 8.65049,7.8805665 v 74.467463 c 0,4.365836 -3.85812,7.880568 -8.65049,7.880568 h -43.06299 c -4.79236,0 -8.65048,-3.514732 -8.65048,-7.880568 V 17.175406 c 0,-4.365834 3.85812,-7.8805665 8.65048,-7.8805665 z" />
  </g>
  <g
     inkscape:groupmode="layer"
     id="layer3"
     inkscape:label="Layer 3" />
  <g
     inkscape:groupmode="layer"
     id="layer4"
     inkscape:label="Layer 4" />
</svg>
