<?xml version="1.0" encoding="UTF-8" standalone="no"?>
<!-- Created with Inkscape (http://www.inkscape.org/) -->

<svg
   width="210mm"
   height="297mm"
   viewBox="0 0 210 297"
   version="1.1"
   id="svg5"
   inkscape:version="1.1.1 (3bf5ae0d25, 2021-09-20)"
   sodipodi:docname="ribbon mic track icon svg.svg"
   xmlns:inkscape="http://www.inkscape.org/namespaces/inkscape"
   xmlns:sodipodi="http://sodipodi.sourceforge.net/DTD/sodipodi-0.dtd"
   xmlns="http://www.w3.org/2000/svg"
   xmlns:svg="http://www.w3.org/2000/svg">
  <sodipodi:namedview
     id="namedview7"
     pagecolor="#ffffff"
     bordercolor="#666666"
     borderopacity="1.0"
     inkscape:pageshadow="2"
     inkscape:pageopacity="0.0"
     inkscape:pagecheckerboard="0"
     inkscape:document-units="mm"
     showgrid="false"
     inkscape:zoom="1.2432572"
     inkscape:cx="539.71133"
     inkscape:cy="842.54488"
     inkscape:window-width="1680"
     inkscape:window-height="956"
     inkscape:window-x="-11"
     inkscape:window-y="-11"
     inkscape:window-maximized="1"
     inkscape:current-layer="g1619"
     inkscape:lockguides="true" />
  <defs
     id="defs2" />
  <g
     inkscape:label="Layer 1"
     inkscape:groupmode="layer"
     id="layer1">
    <path
       style="fill:#000000;stroke:#000000;stroke-width:5.12832;stroke-linecap:round;stroke-linejoin:round;stroke-miterlimit:4;stroke-dasharray:none;stroke-opacity:0.955017;paint-order:stroke markers fill"
       d=""
       id="path1507"
       transform="scale(0.26458333)" />
    <path
       style="fill:#000000;stroke:#000000;stroke-width:5.12832;stroke-linecap:round;stroke-linejoin:round;stroke-miterlimit:4;stroke-dasharray:none;stroke-opacity:0.955017;paint-order:stroke markers fill"
       d=""
       id="path1622"
       transform="scale(0.26458333)" />
    <path
       style="fill:#000000;stroke:#000000;stroke-width:5.12832;stroke-linecap:round;stroke-linejoin:round;stroke-miterlimit:4;stroke-dasharray:none;stroke-opacity:0.955017;paint-order:stroke markers fill"
       d=""
       id="path1973"
       transform="scale(0.26458333)" />
    <path
       style="fill:#ffffff;stroke:#000000;stroke-width:3.3948;stroke-linecap:round;stroke-linejoin:round;stroke-opacity:0.955017;paint-order:stroke markers fill"
       d=""
       id="path1530"
       transform="scale(0.26458333)" />
    <path
       style="fill:#ffffff;stroke:#000000;stroke-width:1.36949;stroke-linecap:round;stroke-linejoin:round;stroke-opacity:0.955017;paint-order:stroke markers fill"
       d=""
       id="path1047"
       transform="scale(0.26458333)" />
    <path
       style="fill:#ffffff;stroke:#000000;stroke-width:1.36949;stroke-linecap:round;stroke-linejoin:round;stroke-opacity:0.955017;paint-order:stroke markers fill"
       d=""
       id="path1086"
       transform="scale(0.26458333)" />
    <g
       id="g1619"
       transform="matrix(0.2766488,0,0,0.49070896,-0.56691107,-7.3976264)"
       style="fill:none;stroke:#000000;stroke-width:4.22002;stroke-miterlimit:4;stroke-dasharray:none">
      <g
         id="g1475"
         style="fill:none;stroke:#000000;stroke-width:4.22002;stroke-miterlimit:4;stroke-dasharray:none" />
      <path
         id="rect1499"
         style="stroke-linecap:round;stroke-linejoin:round;stroke-opacity:0.955017;paint-order:stroke markers fill"
         d="m 60.445908,185.81519 c 2.480521,0 4.477475,4.09386 4.477475,9.17905 v 32.01348 c 0,5.0852 -1.996954,9.17906 -4.477475,9.17906 -2.480521,0 -4.477475,-4.09386 -4.477475,-9.17906 v -32.01348 c 0,-5.08519 1.996954,-9.17905 4.477475,-9.17905 z M 53.207557,46.768738 h 64.848293 c 5.0852,0 9.17906,3.161843 9.17906,7.089335 0,3.927491 -4.09386,7.089335 -9.17906,7.089335 H 53.207557 c -5.085198,0 -9.179057,-3.161844 -9.179057,-7.089335 0,-3.927492 4.093859,-7.089335 9.179057,-7.089335 z m 0,105.303892 h 64.848293 c 5.0852,0 9.17906,3.16185 9.17906,7.08934 0,3.92749 -4.09386,7.08933 -9.17906,7.08933 H 53.207557 c -5.085198,0 -9.179057,-3.16184 -9.179057,-7.08933 0,-3.92749 4.093859,-7.08934 9.179057,-7.08934 z m 0,-26.45801 h 64.848293 c 5.0852,0 9.17906,3.16184 9.17906,7.08933 0,3.92749 -4.09386,7.08934 -9.17906,7.08934 H 53.207557 c -5.085198,0 -9.179057,-3.16185 -9.179057,-7.08934 0,-3.92749 4.093859,-7.08933 9.179057,-7.08933 z m 0,-25.4 h 64.848293 c 5.0852,0 9.17906,3.16185 9.17906,7.08934 0,3.92749 -4.09386,7.08933 -9.17906,7.08933 H 53.207557 c -5.085198,0 -9.179057,-3.16184 -9.179057,-7.08933 0,-3.92749 4.093859,-7.08934 9.179057,-7.08934 z m 0,-28.575025 h 64.848293 c 5.0852,0 9.17906,3.161843 9.17906,7.089335 0,3.927492 -4.09386,7.089335 -9.17906,7.089335 H 53.207557 c -5.085198,0 -9.179057,-3.161843 -9.179057,-7.089335 0,-3.927492 4.093859,-7.089335 9.179057,-7.089335 z m -15.222248,-7.74057 c 3.204006,0 5.783405,4.093859 5.783405,9.179057 v 82.011948 c 0,5.0852 -2.579399,9.17906 -5.783405,9.17906 -3.204006,0 -5.783405,-4.09386 -5.783405,-9.17906 V 73.078082 c 0,-5.085198 2.579399,-9.179057 5.783405,-9.179057 z m 95.779241,-1.587502 c 3.20401,0 5.78341,4.09386 5.78341,9.179058 v 82.011949 c 0,5.0852 -2.5794,9.17906 -5.78341,9.17906 -3.204,0 -5.7834,-4.09386 -5.7834,-9.17906 V 71.490581 c 0,-5.085198 2.5794,-9.179058 5.7834,-9.179058 z M 53.207557,27.984217 h 65.594533 c 5.0852,0 9.17906,4.093859 9.17906,9.179057 V 237.82831 c 0,5.08519 -4.09386,9.17905 -9.17906,9.17905 H 53.207557 c -5.085198,0 -9.179057,-4.09386 -9.179057,-9.17905 V 37.163274 c 0,-5.085198 4.093859,-9.179057 9.179057,-9.179057 z" />
      <g
         id="g1672">
        <path
           id="path843"
           style="stroke-linecap:round;stroke-linejoin:round;stroke-opacity:0.955017;paint-order:stroke markers fill"
           d="m 640.39725,534.82738 c 2.48052,0 4.47748,4.09386 4.47748,9.17905 v 32.01348 c 0,5.0852 -1.99696,9.17906 -4.47748,9.17906 -2.48052,0 -4.47747,-4.09386 -4.47747,-9.17906 v -32.01348 c 0,-5.08519 1.99695,-9.17905 4.47747,-9.17905 z M 633.1589,395.78092 h 64.84829 c 5.0852,0 9.17906,3.16185 9.17906,7.08934 0,3.92749 -4.09386,7.08933 -9.17906,7.08933 H 633.1589 c -5.0852,0 -9.17906,-3.16184 -9.17906,-7.08933 0,-3.92749 4.09386,-7.08934 9.17906,-7.08934 z m 0,105.3039 h 64.84829 c 5.0852,0 9.17906,3.16185 9.17906,7.08934 0,3.92749 -4.09386,7.08933 -9.17906,7.08933 H 633.1589 c -5.0852,0 -9.17906,-3.16184 -9.17906,-7.08933 0,-3.92749 4.09386,-7.08934 9.17906,-7.08934 z m 0,-26.45801 h 64.84829 c 5.0852,0 9.17906,3.16184 9.17906,7.08933 0,3.92749 -4.09386,7.08934 -9.17906,7.08934 H 633.1589 c -5.0852,0 -9.17906,-3.16185 -9.17906,-7.08934 0,-3.92749 4.09386,-7.08933 9.17906,-7.08933 z m 0,-25.4 h 64.84829 c 5.0852,0 9.17906,3.16185 9.17906,7.08934 0,3.92749 -4.09386,7.08933 -9.17906,7.08933 H 633.1589 c -5.0852,0 -9.17906,-3.16184 -9.17906,-7.08933 0,-3.92749 4.09386,-7.08934 9.17906,-7.08934 z m 0,-28.57503 h 64.84829 c 5.0852,0 9.17906,3.16184 9.17906,7.08934 0,3.92749 -4.09386,7.08933 -9.17906,7.08933 H 633.1589 c -5.0852,0 -9.17906,-3.16184 -9.17906,-7.08933 0,-3.9275 4.09386,-7.08934 9.17906,-7.08934 z m -15.22225,-7.74057 c 3.20401,0 5.78341,4.09386 5.78341,9.17906 v 82.01195 c 0,5.0852 -2.5794,9.17906 -5.78341,9.17906 -3.204,0 -5.7834,-4.09386 -5.7834,-9.17906 v -82.01195 c 0,-5.0852 2.5794,-9.17906 5.7834,-9.17906 z m 95.77924,-1.5875 c 3.20401,0 5.78341,4.09386 5.78341,9.17906 v 82.01195 c 0,5.0852 -2.5794,9.17906 -5.78341,9.17906 -3.204,0 -5.7834,-4.09386 -5.7834,-9.17906 v -82.01195 c 0,-5.0852 2.5794,-9.17906 5.7834,-9.17906 z M 633.1589,376.9964 h 65.59453 c 5.0852,0 9.17906,4.09386 9.17906,9.17906 V 586.8405 c 0,5.08519 -4.09386,9.17905 -9.17906,9.17905 H 633.1589 c -5.0852,0 -9.17906,-4.09386 -9.17906,-9.17905 V 386.17546 c 0,-5.0852 4.09386,-9.17906 9.17906,-9.17906 z" />
        <path
           style="fill:#918a6f;stroke:#000000;stroke-width:9.06099;stroke-linecap:round;stroke-linejoin:round;stroke-opacity:0.955017;paint-order:stroke markers fill"
           d="m 656.32726,1070.2162 c -2.55151,-2.8183 -2.70617,-6.3782 -3.07863,-70.86393 l -0.39215,-67.89651 38.95128,0.417 c 28.17678,0.30165 39.50035,-0.0387 40.93623,-1.23035 1.70184,-1.4124 1.98493,8.23245 1.98493,67.62651 0,67.39358 -0.0766,69.35038 -2.82046,72.09428 -2.66909,2.6691 -4.70076,2.8205 -37.85759,2.8205 -33.8244,0 -35.13013,-0.1027 -37.72361,-2.9675 z m 16.34088,-13.2674 c 2.94797,-5.8422 3.14966,-84.99201 0.23417,-91.89879 -2.47412,-5.86119 -5.86196,-7.11061 -8.94772,-3.29986 -3.69765,4.56641 -4.19546,11.76657 -3.71135,53.68015 0.40048,34.6726 0.72347,39.2662 3.00562,42.7457 3.16265,4.8219 6.59242,4.3751 9.41928,-1.2272 z"
           id="path918"
           transform="matrix(0.95638706,0,0,0.53918586,2.0492085,15.075385)" />
        <path
           style="fill:#918a6f;stroke:#000000;stroke-width:9.06099;stroke-linecap:round;stroke-linejoin:round;stroke-opacity:0.955017;paint-order:stroke markers fill"
           d="m 652.93568,889.85402 v -7.75625 h 40.89662 40.89662 v 7.75625 7.75626 H 693.8323 652.93568 Z"
           id="path957"
           transform="matrix(0.95638706,0,0,0.53918586,2.0492085,15.075385)" />
        <path
           style="fill:#918a6f;stroke:#000000;stroke-width:9.06099;stroke-linecap:round;stroke-linejoin:round;stroke-opacity:0.955017;paint-order:stroke markers fill"
           d="m 652.93568,841.90626 c 0,-8.02662 0.17015,-8.46954 2.72774,-7.10075 3.67675,1.96773 72.66101,1.96773 76.33775,0 2.5576,-1.36879 2.72775,-0.92587 2.72775,7.10075 0,8.02662 -0.17015,8.46955 -2.72775,7.10076 -3.67674,-1.96773 -72.661,-1.96773 -76.33775,0 -2.55759,1.36879 -2.72774,0.92586 -2.72774,-7.10076 z"
           id="path996"
           transform="matrix(0.95638706,0,0,0.53918586,2.0492085,15.075385)" />
        <path
           style="fill:#918a6f;stroke:#000000;stroke-width:9.06099;stroke-linecap:round;stroke-linejoin:round;stroke-opacity:0.955017;paint-order:stroke markers fill"
           d="m 652.93568,791.84316 v -9.8716 h 40.89662 40.89662 v 9.8716 9.8716 H 693.8323 652.93568 Z"
           id="path1035"
           transform="matrix(0.95638706,0,0,0.53918586,2.0492085,15.075385)" />
        <path
           style="fill:#918a6f;stroke:#000000;stroke-width:9.06099;stroke-linecap:round;stroke-linejoin:round;stroke-opacity:0.955017;paint-order:stroke markers fill"
           d="m 652.93568,742.56969 c 0,-7.75891 0.006,-7.76883 3.61737,-6.39564 4.71292,1.79185 69.84558,1.79185 74.55849,0 3.61177,-1.37319 3.61738,-1.36327 3.61738,6.39564 0,7.24593 -0.1843,7.67234 -2.72775,6.31113 -3.67674,-1.96774 -72.661,-1.96774 -76.33775,0 -2.54344,1.36121 -2.72774,0.9348 -2.72774,-6.31113 z"
           id="path1074"
           transform="matrix(0.95638706,0,0,0.53918586,2.0492085,15.075385)" />
        <path
           style="fill:#918a6f;stroke:#000000;stroke-width:9.06099;stroke-linecap:round;stroke-linejoin:round;stroke-opacity:0.955017;paint-order:stroke markers fill"
           d="m 653.14183,692.58804 c 0.81147,-17.86897 -1.0564,-17.08871 40.90904,-17.08871 42.40291,0 40.67805,-0.71609 40.67805,16.88783 v 11.24693 l -3.61738,-1.37533 c -4.83406,-1.8379 -69.85527,-1.78816 -74.70882,0.0572 l -3.76771,1.43248 z"
           id="path1113"
           transform="matrix(0.95638706,0,0,0.53918586,2.0492085,15.075385)" />
        <path
           style="fill:#918a6f;stroke:#000000;stroke-width:9.06099;stroke-linecap:round;stroke-linejoin:round;stroke-opacity:0.955017;paint-order:stroke markers fill"
           d="m 742.21068,912.97421 c -0.62466,-2.24516 -1.13574,-41.33347 -1.13574,-86.86292 0,-62.99185 0.40887,-83.18958 1.71038,-84.49078 4.23272,-4.23169 4.72291,5.86904 4.32591,89.13868 -0.29541,61.96197 -0.82133,83.35512 -2.08009,84.61325 -1.30589,1.30524 -1.94011,0.76597 -2.82046,-2.39823 z"
           id="path1152"
           transform="matrix(0.95638706,0,0,0.53918586,2.0492085,15.075385)" />
        <path
           style="fill:#918a6f;stroke:#000000;stroke-width:9.06099;stroke-linecap:round;stroke-linejoin:round;stroke-opacity:0.955017;paint-order:stroke markers fill"
           d="m 642.08447,915.79466 c -0.62465,-2.24515 -1.13573,-41.33346 -1.13573,-86.86291 0,-62.99186 0.40887,-83.18959 1.71038,-84.49078 4.23272,-4.23169 4.72291,5.86903 4.32591,89.13868 -0.29541,61.96197 -0.82133,83.35511 -2.0801,84.61325 -1.30589,1.30524 -1.94011,0.76596 -2.82046,-2.39824 z"
           id="path1191"
           transform="matrix(0.95638706,0,0,0.53918586,2.0492085,15.075385)" />
        <path
           style="fill:#e3e2db;stroke:#000000;stroke-width:5.16804;stroke-linecap:round;stroke-linejoin:round;stroke-opacity:0.955017;paint-order:stroke markers fill"
           d="m 666.2497,1049.1636 c -1.06604,-5.046 -0.82775,-75.94881 0.26324,-78.32669 l 0.92259,-2.01084 0.90948,2.32298 c 1.30589,3.33547 0.84759,78.85335 -0.48663,80.18685 -0.72941,0.729 -1.10207,0.2257 -1.60868,-2.1723 z"
           id="path1306"
           transform="matrix(0.95638706,0,0,0.53918586,2.0492085,15.075385)" />
        <path
           style="fill:#484537;stroke:#000000;stroke-width:5.16804;stroke-linecap:round;stroke-linejoin:round;stroke-opacity:0.955017;paint-order:stroke markers fill"
           d="m 656.94369,922.51215 c -1.96646,-1.14535 -3.8206,-5.01754 -3.8206,-7.97895 0,-3.06807 1.90584,-6.91102 3.97714,-8.01954 0.99411,-0.53204 14.20585,-0.82819 36.94641,-0.82819 h 35.39893 l 2.13483,1.83631 c 4.02974,3.46623 3.30091,12.62417 -1.19623,15.03096 -2.10456,1.12633 -71.50286,1.08797 -73.44048,-0.0406 z"
           id="path1382"
           transform="matrix(0.95638706,0,0,0.53918586,2.0492085,15.075385)" />
        <path
           style="fill:#484537;stroke:#000000;stroke-width:5.16804;stroke-linecap:round;stroke-linejoin:round;stroke-opacity:0.955017;paint-order:stroke markers fill"
           d="m 656.94369,873.44749 c -1.96646,-1.14536 -3.8206,-5.01755 -3.8206,-7.97896 0,-3.06806 1.90584,-6.91101 3.97714,-8.01954 0.99411,-0.53203 14.20585,-0.82818 36.94641,-0.82818 h 35.39893 l 2.13483,1.8363 c 4.02974,3.46623 3.30091,12.62417 -1.19623,15.03097 -2.10456,1.12633 -71.50286,1.08797 -73.44048,-0.0406 z"
           id="path1421"
           transform="matrix(0.95638706,0,0,0.53918586,2.0492085,15.075385)" />
        <path
           style="fill:#484537;stroke:#000000;stroke-width:5.16804;stroke-linecap:round;stroke-linejoin:round;stroke-opacity:0.955017;paint-order:stroke markers fill"
           d="m 655.20544,824.38554 c -3.01603,-3.58435 -2.90647,-8.64237 0.26408,-12.19176 l 2.34642,-2.62679 34.04991,-0.24664 c 21.67106,-0.15697 35.07829,0.0537 36.87863,0.57935 5.58995,1.63227 7.55913,9.70282 3.53449,14.48584 l -2.08235,2.47473 H 693.7422 657.28779 Z"
           id="path1460"
           transform="matrix(0.95638706,0,0,0.53918586,2.0492085,15.075385)" />
        <path
           style="fill:#484537;stroke:#000000;stroke-width:5.16804;stroke-linecap:round;stroke-linejoin:round;stroke-opacity:0.955017;paint-order:stroke markers fill"
           d="m 658.2613,773.80278 c -5.21907,-2.14819 -6.86327,-9.92041 -3.05586,-14.44525 l 2.08235,-2.47473 h 36.45441 36.45442 l 2.08235,2.47473 c 3.01604,3.58437 2.90648,8.64238 -0.26412,12.19176 l -2.34645,2.62679 -34.85421,0.16294 c -19.16982,0.0896 -35.61862,-0.15169 -36.55289,-0.53624 z"
           id="path1499"
           transform="matrix(0.95638706,0,0,0.53918586,2.0492085,15.075385)" />
        <path
           style="fill:#484537;stroke:#000000;stroke-width:5.16804;stroke-linecap:round;stroke-linejoin:round;stroke-opacity:0.955017;paint-order:stroke markers fill"
           d="m 656.94369,727.05783 c -5.2039,-3.03099 -4.82421,-13.40307 0.58079,-15.86575 2.63486,-1.20052 69.20446,-1.37647 72.32208,-0.19115 2.62509,0.99806 4.51475,4.72493 4.51475,8.90421 0,2.59611 -0.51219,3.83136 -2.35115,5.67032 l -2.35114,2.35114 -35.65386,-0.0245 c -22.71706,-0.0156 -36.16461,-0.32194 -37.06147,-0.84431 z"
           id="path1538"
           transform="matrix(0.95638706,0,0,0.53918586,2.0492085,15.075385)" />
      </g>
    </g>
    <g
       id="g1102"
       transform="translate(0,1.0583333)">
      <g
         id="g858"
         transform="matrix(0.2766488,0,0,0.49070896,153.78391,-8.2049075)"
         style="fill:none;stroke:#000000;stroke-width:4.22002;stroke-miterlimit:4;stroke-dasharray:none">
        <g
           id="g854"
           style="fill:none;stroke:#000000;stroke-width:4.22002;stroke-miterlimit:4;stroke-dasharray:none">
          <rect
             style="fill:none;stroke:#000000;stroke-width:4.22002;stroke-linecap:round;stroke-linejoin:round;stroke-miterlimit:4;stroke-dasharray:none;stroke-opacity:0.955017;paint-order:stroke markers fill"
             id="rect838"
             width="83.952652"
             height="219.02315"
             x="44.0285"
             y="27.984217"
             rx="9.1790571" />
          <rect
             style="fill:none;stroke:#000000;stroke-width:4.22002;stroke-linecap:round;stroke-linejoin:round;stroke-miterlimit:4;stroke-dasharray:none;stroke-opacity:0.955017;paint-order:stroke markers fill"
             id="rect840"
             width="11.56681"
             height="100.37006"
             x="127.98115"
             y="62.311523"
             rx="9.1790571" />
          <rect
             style="fill:none;stroke:#000000;stroke-width:4.22002;stroke-linecap:round;stroke-linejoin:round;stroke-miterlimit:4;stroke-dasharray:none;stroke-opacity:0.955017;paint-order:stroke markers fill"
             id="rect842"
             width="11.56681"
             height="100.37006"
             x="32.201904"
             y="63.899025"
             rx="9.1790571" />
          <rect
             style="fill:none;stroke:#000000;stroke-width:4.22002;stroke-linecap:round;stroke-linejoin:round;stroke-miterlimit:4;stroke-dasharray:none;stroke-opacity:0.955017;paint-order:stroke markers fill"
             id="rect844"
             width="83.206406"
             height="14.17867"
             x="44.0285"
             y="71.639595"
             rx="9.1790571" />
          <rect
             style="fill:none;stroke:#000000;stroke-width:4.22002;stroke-linecap:round;stroke-linejoin:round;stroke-miterlimit:4;stroke-dasharray:none;stroke-opacity:0.955017;paint-order:stroke markers fill"
             id="rect846"
             width="83.206406"
             height="14.17867"
             x="44.0285"
             y="100.21462"
             rx="9.1790571" />
          <rect
             style="fill:none;stroke:#000000;stroke-width:4.22002;stroke-linecap:round;stroke-linejoin:round;stroke-miterlimit:4;stroke-dasharray:none;stroke-opacity:0.955017;paint-order:stroke markers fill"
             id="rect848"
             width="83.206406"
             height="14.17867"
             x="44.0285"
             y="125.61462"
             rx="9.1790571" />
          <rect
             style="fill:none;stroke:#000000;stroke-width:4.22002;stroke-linecap:round;stroke-linejoin:round;stroke-miterlimit:4;stroke-dasharray:none;stroke-opacity:0.955017;paint-order:stroke markers fill"
             id="rect850"
             width="83.206406"
             height="14.17867"
             x="44.0285"
             y="152.07263"
             rx="9.1790571" />
          <rect
             style="fill:none;stroke:#000000;stroke-width:4.22002;stroke-linecap:round;stroke-linejoin:round;stroke-miterlimit:4;stroke-dasharray:none;stroke-opacity:0.955017;paint-order:stroke markers fill"
             id="rect852"
             width="83.206406"
             height="14.17867"
             x="44.0285"
             y="46.768738"
             rx="9.1790571" />
        </g>
        <rect
           style="fill:none;stroke:#000000;stroke-width:4.22002;stroke-linecap:round;stroke-linejoin:round;stroke-miterlimit:4;stroke-dasharray:none;stroke-opacity:0.955017;paint-order:stroke markers fill"
           id="rect856"
           width="8.9549494"
           height="50.37159"
           x="55.968433"
           y="185.81519"
           rx="9.1790571" />
      </g>
      <path
         style="fill:#000000;stroke:#000000;stroke-width:9.06099;stroke-linecap:round;stroke-linejoin:round;stroke-opacity:0.955017;paint-order:stroke markers fill"
         d="m 643.06408,360.31332 c 0,-24.91404 0.50426,-38.78128 1.41023,-38.78128 0.90596,0 1.41023,13.86724 1.41023,38.78128 0,24.91403 -0.50427,38.78127 -1.41023,38.78127 -0.90597,0 -1.41023,-13.86724 -1.41023,-38.78127 z"
         id="path934"
         transform="scale(0.26458333)" />
    </g>
  </g>
</svg>
