<?xml version="1.0" encoding="UTF-8" standalone="no"?>
<!-- Created with Inkscape (http://www.inkscape.org/) -->

<svg
   width="210mm"
   height="297mm"
   viewBox="0 0 210 297"
   version="1.1"
   id="svg5"
   inkscape:version="1.1.1 (3bf5ae0d25, 2021-09-20)"
   sodipodi:docname="sampler memory card svg.svg"
   xmlns:inkscape="http://www.inkscape.org/namespaces/inkscape"
   xmlns:sodipodi="http://sodipodi.sourceforge.net/DTD/sodipodi-0.dtd"
   xmlns="http://www.w3.org/2000/svg"
   xmlns:svg="http://www.w3.org/2000/svg">
  <sodipodi:namedview
     id="namedview7"
     pagecolor="#ffffff"
     bordercolor="#666666"
     borderopacity="1.0"
     inkscape:pageshadow="2"
     inkscape:pageopacity="0.0"
     inkscape:pagecheckerboard="0"
     inkscape:document-units="mm"
     showgrid="false"
     inkscape:zoom="1.5219183"
     inkscape:cx="220.774"
     inkscape:cy="906.42184"
     inkscape:window-width="1680"
     inkscape:window-height="956"
     inkscape:window-x="-11"
     inkscape:window-y="-11"
     inkscape:window-maximized="1"
     inkscape:current-layer="layer1" />
  <defs
     id="defs2" />
  <g
     inkscape:label="Layer 1"
     inkscape:groupmode="layer"
     id="layer1">
    <path
       id="path1071"
       style="fill:none;stroke:#000000;stroke-width:1.367;stroke-linecap:round;stroke-linejoin:round;stroke-miterlimit:4;stroke-dasharray:none;stroke-opacity:0.955017;paint-order:stroke markers fill"
       d="M 61.657994,53.387641 A 26.706818,13.300157 0 0 1 34.951173,66.687799 26.706818,13.300157 0 0 1 8.2443541,53.387641 26.706818,13.300157 0 0 1 34.951173,40.087483 26.706818,13.300157 0 0 1 61.657994,53.387641 Z m 2.97335,-44.6878424 a 1.6098231,5.2121571 0 0 1 -1.60982,5.2121574 1.6098231,5.2121571 0 0 1 -1.60982,-5.2121574 1.6098231,5.2121571 0 0 1 1.60982,-5.212157 1.6098231,5.2121571 0 0 1 1.60982,5.212157 z m -5.346306,0 a 1.6098231,5.2121571 0 0 1 -1.609828,5.2121574 1.6098231,5.2121571 0 0 1 -1.609817,-5.2121574 1.6098231,5.2121571 0 0 1 1.609817,-5.212157 1.6098231,5.2121571 0 0 1 1.609828,5.212157 z m -48.117332,0 a 1.6098231,5.2121571 0 0 1 -1.6098239,5.2121574 1.6098231,5.2121571 0 0 1 -1.609823,-5.2121574 1.6098231,5.2121571 0 0 1 1.609823,-5.212157 1.6098231,5.2121571 0 0 1 1.6098239,5.212157 z m 6.682985,0 a 1.6098231,5.2121571 0 0 1 -1.609823,5.2121574 1.6098231,5.2121571 0 0 1 -1.609824,-5.2121574 1.6098231,5.2121571 0 0 1 1.609824,-5.212157 1.6098231,5.2121571 0 0 1 1.609823,5.212157 z m 6.415666,0 a 1.6098231,5.2121571 0 0 1 -1.609823,5.2121574 1.6098231,5.2121571 0 0 1 -1.609823,-5.2121574 1.6098231,5.2121571 0 0 1 1.609823,-5.212157 1.6098231,5.2121571 0 0 1 1.609823,5.212157 z m 5.881027,0 a 1.6098231,5.2121571 0 0 1 -1.609823,5.2121574 1.6098231,5.2121571 0 0 1 -1.609823,-5.2121574 1.6098231,5.2121571 0 0 1 1.609823,-5.212157 1.6098231,5.2121571 0 0 1 1.609823,5.212157 z m 22.454762,0 A 1.6098231,5.2121571 0 0 1 50.992323,13.911956 1.6098231,5.2121571 0 0 1 49.3825,8.6997986 a 1.6098231,5.2121571 0 0 1 1.609823,-5.212157 1.6098231,5.2121571 0 0 1 1.609823,5.212157 z m -4.811695,0 a 1.6098231,5.2121571 0 0 1 -1.609823,5.2121574 1.6098231,5.2121571 0 0 1 -1.609827,-5.2121574 1.6098231,5.2121571 0 0 1 1.609827,-5.212157 1.6098231,5.2121571 0 0 1 1.609823,5.212157 z m -6.148338,0 a 1.6098231,5.2121571 0 0 1 -1.609822,5.2121574 1.6098231,5.2121571 0 0 1 -1.609828,-5.2121574 1.6098231,5.2121571 0 0 1 1.609828,-5.212157 1.6098231,5.2121571 0 0 1 1.609822,5.212157 z m -5.881013,0 a 1.6098231,5.2121571 0 0 1 -1.609823,5.2121574 1.6098231,5.2121571 0 0 1 -1.609822,-5.2121574 1.6098231,5.2121571 0 0 1 1.609822,-5.212157 1.6098231,5.2121571 0 0 1 1.609823,5.212157 z m -5.613716,0 a 1.6098231,5.2121571 0 0 1 -1.609823,5.2121574 1.6098231,5.2121571 0 0 1 -1.609823,-5.2121574 1.6098231,5.2121571 0 0 1 1.609823,-5.212157 1.6098231,5.2121571 0 0 1 1.609823,5.212157 z M 4.1488161,3.0071756 H 67.669474 V 15.246873 H 4.1488161 Z m 0.02646,12.4427934 H 67.637314 V 89.274622 H 4.1752751 Z" />
    <path
       style="fill:#000000;stroke:#000000;stroke-width:5.12832;stroke-linecap:round;stroke-linejoin:round;stroke-miterlimit:4;stroke-dasharray:none;stroke-opacity:0.955017;paint-order:stroke markers fill"
       d=""
       id="path1507"
       transform="scale(0.26458333)" />
    <path
       style="fill:#000000;stroke:#000000;stroke-width:5.12832;stroke-linecap:round;stroke-linejoin:round;stroke-miterlimit:4;stroke-dasharray:none;stroke-opacity:0.955017;paint-order:stroke markers fill"
       d=""
       id="path1622"
       transform="scale(0.26458333)" />
    <path
       style="fill:#000000;stroke:#000000;stroke-width:5.12832;stroke-linecap:round;stroke-linejoin:round;stroke-miterlimit:4;stroke-dasharray:none;stroke-opacity:0.955017;paint-order:stroke markers fill"
       d=""
       id="path1973"
       transform="scale(0.26458333)" />
    <g
       id="g2260">
      <path
         id="path1316"
         style="fill:none;stroke:#000000;stroke-width:1.367;stroke-linecap:round;stroke-linejoin:round;stroke-miterlimit:4;stroke-dasharray:none;stroke-opacity:0.955017;paint-order:stroke markers fill"
         d="m 197.62366,55.512105 a 26.706818,13.300157 0 0 1 -26.70682,13.300158 26.706818,13.300157 0 0 1 -26.70682,-13.300158 26.706818,13.300157 0 0 1 26.70682,-13.300158 26.706818,13.300157 0 0 1 26.70682,13.300158 z m 2.97335,-44.687843 a 1.6098231,5.2121571 0 0 1 -1.60982,5.212158 1.6098231,5.2121571 0 0 1 -1.60982,-5.212158 1.6098231,5.2121571 0 0 1 1.60982,-5.2121569 1.6098231,5.2121571 0 0 1 1.60982,5.2121569 z m -5.34631,0 a 1.6098231,5.2121571 0 0 1 -1.60982,5.212158 1.6098231,5.2121571 0 0 1 -1.60982,-5.212158 1.6098231,5.2121571 0 0 1 1.60982,-5.2121569 1.6098231,5.2121571 0 0 1 1.60982,5.2121569 z m -48.11733,0 a 1.6098231,5.2121571 0 0 1 -1.60982,5.212158 1.6098231,5.2121571 0 0 1 -1.60983,-5.212158 1.6098231,5.2121571 0 0 1 1.60983,-5.2121569 1.6098231,5.2121571 0 0 1 1.60982,5.2121569 z m 6.68299,0 a 1.6098231,5.2121571 0 0 1 -1.60983,5.212158 1.6098231,5.2121571 0 0 1 -1.60982,-5.212158 1.6098231,5.2121571 0 0 1 1.60982,-5.2121569 1.6098231,5.2121571 0 0 1 1.60983,5.2121569 z m 6.41566,0 a 1.6098231,5.2121571 0 0 1 -1.60982,5.212158 1.6098231,5.2121571 0 0 1 -1.60982,-5.212158 1.6098231,5.2121571 0 0 1 1.60982,-5.2121569 1.6098231,5.2121571 0 0 1 1.60982,5.2121569 z m 5.88103,0 a 1.6098231,5.2121571 0 0 1 -1.60982,5.212158 1.6098231,5.2121571 0 0 1 -1.60983,-5.212158 1.6098231,5.2121571 0 0 1 1.60983,-5.2121569 1.6098231,5.2121571 0 0 1 1.60982,5.2121569 z m 22.45476,0 a 1.6098231,5.2121571 0 0 1 -1.60982,5.212158 1.6098231,5.2121571 0 0 1 -1.60982,-5.212158 1.6098231,5.2121571 0 0 1 1.60982,-5.2121569 1.6098231,5.2121571 0 0 1 1.60982,5.2121569 z m -4.81169,0 a 1.6098231,5.2121571 0 0 1 -1.60983,5.212158 1.6098231,5.2121571 0 0 1 -1.60982,-5.212158 1.6098231,5.2121571 0 0 1 1.60982,-5.2121569 1.6098231,5.2121571 0 0 1 1.60983,5.2121569 z m -6.14834,0 a 1.6098231,5.2121571 0 0 1 -1.60982,5.212158 1.6098231,5.2121571 0 0 1 -1.60983,-5.212158 1.6098231,5.2121571 0 0 1 1.60983,-5.2121569 1.6098231,5.2121571 0 0 1 1.60982,5.2121569 z m -5.88101,0 a 1.6098231,5.2121571 0 0 1 -1.60983,5.212158 1.6098231,5.2121571 0 0 1 -1.60982,-5.212158 1.6098231,5.2121571 0 0 1 1.60982,-5.2121569 1.6098231,5.2121571 0 0 1 1.60983,5.2121569 z m -5.61372,0 a 1.6098231,5.2121571 0 0 1 -1.60982,5.212158 1.6098231,5.2121571 0 0 1 -1.60983,-5.212158 1.6098231,5.2121571 0 0 1 1.60983,-5.2121569 1.6098231,5.2121571 0 0 1 1.60982,5.2121569 z M 140.11448,5.1316391 h 63.52066 V 17.371337 h -63.52066 z m 0.0265,12.4427939 h 63.46204 v 73.824653 h -63.46204 z" />
      <path
         style="fill:#000000;stroke:#000000;stroke-width:8.29703;stroke-linecap:round;stroke-linejoin:round;stroke-miterlimit:4;stroke-dasharray:none;stroke-opacity:0.955017;paint-order:stroke markers fill"
         d="M 533.1567,205.55439 V 69.053428 H 649.584 766.01129 V 205.55439 342.05535 H 649.584 533.1567 Z m 138.90981,56.13618 c 36.50994,-5.2367 63.02696,-18.23765 73.13166,-35.85548 15.87421,-27.67711 -10.9879,-56.34755 -61.89041,-66.0568 -46.76093,-8.91928 -100.78648,0.36361 -126.46572,21.72986 -19.35594,16.10498 -19.57011,38.95431 -0.52227,55.72089 22.75192,20.02703 72.84923,30.61445 115.74674,24.46153 z"
         id="path1468"
         transform="scale(0.26458333)" />
      <path
         style="fill:#000000;stroke:#000000;stroke-width:5.12832;stroke-linecap:round;stroke-linejoin:round;stroke-miterlimit:4;stroke-dasharray:none;stroke-opacity:0.955017;paint-order:stroke markers fill"
         d="m 548.92017,54.096062 c -1.82928,-4.6234 -2.37779,-16.261345 -1.06428,-22.581384 2.27448,-10.943805 4.56089,-5.705123 4.44043,10.17403 -0.0435,5.732198 -0.55581,11.538839 -1.13851,12.903648 l -1.05946,2.481471 z"
         id="path1661"
         transform="scale(0.26458333)" />
      <path
         style="fill:#000000;stroke:#000000;stroke-width:5.12832;stroke-linecap:round;stroke-linejoin:round;stroke-miterlimit:4;stroke-dasharray:none;stroke-opacity:0.955017;paint-order:stroke markers fill"
         d="m 573.86565,53.103473 c -1.50034,-5.266278 -1.32048,-20.944251 0.29037,-25.311001 l 1.28154,-3.474059 1.28408,4.466647 c 1.731,6.021263 1.57562,20.419482 -0.26779,24.814708 l -1.45706,3.474059 z"
         id="path1700"
         transform="scale(0.26458333)" />
      <path
         style="fill:#000000;stroke:#000000;stroke-width:5.12832;stroke-linecap:round;stroke-linejoin:round;stroke-miterlimit:4;stroke-dasharray:none;stroke-opacity:0.955017;paint-order:stroke markers fill"
         d="m 598.05162,53.847915 c -2.29476,-5.764295 -1.12559,-28.040619 1.47171,-28.040619 1.60512,0 3.22822,11.362957 2.69387,18.859177 -0.54827,7.691481 -1.34445,10.918471 -2.69387,10.918471 -0.42911,0 -1.09138,-0.781663 -1.47171,-1.737029 z"
         id="path1739"
         transform="scale(0.26458333)" />
      <path
         style="fill:#000000;stroke:#000000;stroke-width:5.12832;stroke-linecap:round;stroke-linejoin:round;stroke-miterlimit:4;stroke-dasharray:none;stroke-opacity:0.955017;paint-order:stroke markers fill"
         d="m 620.30634,53.003375 c -1.69519,-5.025126 -1.6787,-19.637727 0.0279,-24.698918 l 1.33346,-3.954662 1.4047,3.954662 c 1.64108,4.620141 1.37331,23.645126 -0.37558,26.684094 -0.97479,1.693863 -1.21727,1.492495 -2.39044,-1.985176 z"
         id="path1817"
         transform="scale(0.26458333)" />
      <path
         style="fill:#000000;stroke:#000000;stroke-width:5.12832;stroke-linecap:round;stroke-linejoin:round;stroke-miterlimit:4;stroke-dasharray:none;stroke-opacity:0.955017;paint-order:stroke markers fill"
         d="m 641.3461,52.232094 c -2.20306,-8.74914 -0.69485,-28.375205 1.97536,-25.704996 2.03202,2.032017 3.21771,14.094 2.0971,21.333726 -1.37368,8.874745 -2.60553,10.19698 -4.07246,4.37127 z"
         id="path1856"
         transform="scale(0.26458333)" />
      <path
         style="fill:#000000;stroke:#000000;stroke-width:5.12832;stroke-linecap:round;stroke-linejoin:round;stroke-miterlimit:4;stroke-dasharray:none;stroke-opacity:0.955017;paint-order:stroke markers fill"
         d="m 664.04977,54.096062 c -2.31132,-5.452307 -1.56609,-28.288766 0.92316,-28.288766 1.55517,0 2.27749,3.4185 2.72654,12.903647 0.3092,6.53127 0.0109,10.802477 -0.97048,13.896236 l -1.41689,4.466648 z"
         id="path1895"
         transform="scale(0.26458333)" />
      <path
         style="fill:#000000;stroke:#000000;stroke-width:5.12832;stroke-linecap:round;stroke-linejoin:round;stroke-miterlimit:4;stroke-dasharray:none;stroke-opacity:0.955017;paint-order:stroke markers fill"
         d="m 687.02072,53.103473 c -1.50034,-5.266278 -1.32049,-20.944251 0.29036,-25.311001 l 1.28155,-3.474059 1.28408,4.466647 c 1.731,6.021263 1.57562,20.419482 -0.26779,24.814708 l -1.45707,3.474059 z"
         id="path1934"
         transform="scale(0.26458333)" />
      <path
         style="fill:#000000;stroke:#000000;stroke-width:5.12832;stroke-linecap:round;stroke-linejoin:round;stroke-miterlimit:4;stroke-dasharray:none;stroke-opacity:0.955017;paint-order:stroke markers fill"
         d="m 704.68765,50.883521 c -1.77009,-8.517159 -0.41032,-25.076225 2.05916,-25.076225 1.14278,0 2.95382,9.128575 2.95382,14.888824 0,5.600998 -1.75062,14.626701 -2.98495,15.38956 -0.46151,0.285227 -1.37412,-2.055743 -2.02803,-5.202159 z"
         id="path2012"
         transform="scale(0.26458333)" />
      <path
         style="fill:#000000;stroke:#000000;stroke-width:5.12832;stroke-linecap:round;stroke-linejoin:round;stroke-miterlimit:4;stroke-dasharray:none;stroke-opacity:0.955017;paint-order:stroke markers fill"
         d="m 750.45595,52.880736 c -2.22272,-8.003965 -0.56636,-28.970222 2.07965,-26.324212 2.09463,2.094634 3.14628,14.323928 1.87713,21.828635 -0.66902,3.95601 -1.59882,7.429095 -2.06622,7.717968 -0.46741,0.288873 -1.31816,-1.161203 -1.89056,-3.222391 z"
         id="path2090"
         transform="scale(0.26458333)" />
      <path
         style="fill:#000000;stroke:#000000;stroke-width:5.12832;stroke-linecap:round;stroke-linejoin:round;stroke-miterlimit:4;stroke-dasharray:none;stroke-opacity:0.955017;paint-order:stroke markers fill"
         d="m 731.26477,55.946568 c -0.30113,-0.487242 -1.06259,-3.72637 -1.69213,-7.198063 -1.24221,-6.850385 -0.59696,-16.653957 1.41195,-21.452327 l 1.24668,-2.977765 1.26988,5.572855 c 2.04731,8.984627 0.2384,30.059584 -2.23638,26.0553 z"
         id="path2129"
         transform="scale(0.26458333)" />
    </g>
    <path
       id="path2262"
       style="fill:none;stroke:#000000;stroke-width:1.367;stroke-linecap:round;stroke-linejoin:round;stroke-miterlimit:4;stroke-dasharray:none;stroke-opacity:0.955017;paint-order:stroke markers fill"
       d="M 61.657994,255.86945 A 26.706818,13.300157 0 0 1 34.951173,269.16961 26.706818,13.300157 0 0 1 8.2443541,255.86945 26.706818,13.300157 0 0 1 34.951173,242.56929 26.706818,13.300157 0 0 1 61.657994,255.86945 Z m 2.97335,-44.68784 a 1.6098231,5.2121571 0 0 1 -1.60982,5.21215 1.6098231,5.2121571 0 0 1 -1.60982,-5.21215 1.6098231,5.2121571 0 0 1 1.60982,-5.21216 1.6098231,5.2121571 0 0 1 1.60982,5.21216 z m -5.346306,0 a 1.6098231,5.2121571 0 0 1 -1.609828,5.21215 1.6098231,5.2121571 0 0 1 -1.609817,-5.21215 1.6098231,5.2121571 0 0 1 1.609817,-5.21216 1.6098231,5.2121571 0 0 1 1.609828,5.21216 z m -48.117332,0 a 1.6098231,5.2121571 0 0 1 -1.6098239,5.21215 1.6098231,5.2121571 0 0 1 -1.609823,-5.21215 1.6098231,5.2121571 0 0 1 1.609823,-5.21216 1.6098231,5.2121571 0 0 1 1.6098239,5.21216 z m 6.682985,0 a 1.6098231,5.2121571 0 0 1 -1.609823,5.21215 1.6098231,5.2121571 0 0 1 -1.609824,-5.21215 1.6098231,5.2121571 0 0 1 1.609824,-5.21216 1.6098231,5.2121571 0 0 1 1.609823,5.21216 z m 6.415666,0 a 1.6098231,5.2121571 0 0 1 -1.609823,5.21215 1.6098231,5.2121571 0 0 1 -1.609823,-5.21215 1.6098231,5.2121571 0 0 1 1.609823,-5.21216 1.6098231,5.2121571 0 0 1 1.609823,5.21216 z m 5.881027,0 a 1.6098231,5.2121571 0 0 1 -1.609823,5.21215 1.6098231,5.2121571 0 0 1 -1.609823,-5.21215 1.6098231,5.2121571 0 0 1 1.609823,-5.21216 1.6098231,5.2121571 0 0 1 1.609823,5.21216 z m 22.454762,0 a 1.6098231,5.2121571 0 0 1 -1.609823,5.21215 1.6098231,5.2121571 0 0 1 -1.609823,-5.21215 1.6098231,5.2121571 0 0 1 1.609823,-5.21216 1.6098231,5.2121571 0 0 1 1.609823,5.21216 z m -4.811695,0 a 1.6098231,5.2121571 0 0 1 -1.609823,5.21215 1.6098231,5.2121571 0 0 1 -1.609827,-5.21215 1.6098231,5.2121571 0 0 1 1.609827,-5.21216 1.6098231,5.2121571 0 0 1 1.609823,5.21216 z m -6.148338,0 a 1.6098231,5.2121571 0 0 1 -1.609822,5.21215 1.6098231,5.2121571 0 0 1 -1.609828,-5.21215 1.6098231,5.2121571 0 0 1 1.609828,-5.21216 1.6098231,5.2121571 0 0 1 1.609822,5.21216 z m -5.881013,0 a 1.6098231,5.2121571 0 0 1 -1.609823,5.21215 1.6098231,5.2121571 0 0 1 -1.609822,-5.21215 1.6098231,5.2121571 0 0 1 1.609822,-5.21216 1.6098231,5.2121571 0 0 1 1.609823,5.21216 z m -5.613716,0 a 1.6098231,5.2121571 0 0 1 -1.609823,5.21215 1.6098231,5.2121571 0 0 1 -1.609823,-5.21215 1.6098231,5.2121571 0 0 1 1.609823,-5.21216 1.6098231,5.2121571 0 0 1 1.609823,5.21216 z M 4.1488161,205.48898 H 67.669474 v 12.2397 H 4.1488161 Z m 0.02646,12.4428 H 67.637314 v 73.82465 H 4.1752751 Z" />
    <path
       style="fill:#ffffff;stroke:#000000;stroke-width:5.12832;stroke-linecap:round;stroke-linejoin:round;stroke-miterlimit:4;stroke-dasharray:none;stroke-opacity:0.955017;paint-order:stroke markers fill"
       d="M 18.859177,963.30693 V 826.82604 H 135.4883 252.11743 V 963.30693 1099.7878 H 135.4883 18.859177 Z m 133.149813,56.03017 c 40.60487,-4.1227 71.42876,-19.1862 81.13957,-39.65246 3.75532,-7.91464 3.6072,-18.07391 -0.3806,-26.10556 -4.11321,-8.28419 -14.6511,-17.95068 -25.83616,-23.69969 -20.73482,-10.6575 -44.70629,-15.68952 -74.79017,-15.69972 -39.891087,-0.0135 -72.278353,9.63437 -91.124587,27.14528 -14.208002,13.20132 -16.729716,29.0217 -6.945841,43.57584 14.082177,20.94821 51.858656,34.84321 96.100848,35.34811 6.35675,0.072 16.18338,-0.3378 21.83694,-0.9118 z"
       id="path2319"
       transform="scale(0.26458333)" />
    <path
       style="fill:#ffffff;stroke:#000000;stroke-width:5.12832;stroke-linecap:round;stroke-linejoin:round;stroke-miterlimit:4;stroke-dasharray:none;stroke-opacity:0.955017;paint-order:stroke markers fill"
       d="m 112.65877,1013.3298 c -29.131421,-3.1712 -55.481794,-13.2371 -68.357506,-26.11282 -26.851044,-26.85104 4.643573,-58.43777 65.849996,-66.04259 10.78499,-1.34002 32.9166,-1.34195 43.72596,-0.004 44.22857,5.47521 75.61982,24.34334 75.76993,45.54254 0.12228,17.26818 -19.65636,33.28877 -51.51544,41.72707 -18.11397,4.7978 -46.70271,6.9328 -65.47294,4.8896 z"
       id="path2358"
       transform="scale(0.26458333)" />
    <path
       style="fill:#ffffff;stroke:#000000;stroke-width:5.12832;stroke-linecap:round;stroke-linejoin:round;stroke-miterlimit:4;stroke-dasharray:none;stroke-opacity:0.955017;paint-order:stroke markers fill"
       d="M 18.859177,963.30693 V 826.82604 H 135.4883 252.11743 V 963.30693 1099.7878 H 135.4883 18.859177 Z M 159.67933,1018.83 c 37.76702,-5.5518 63.3518,-18.92905 73.91866,-38.64906 3.20784,-5.98652 3.03686,-19.92896 -0.32865,-26.79989 -2.9511,-6.02486 -13.57047,-16.6656 -21.12992,-21.17242 -13.98114,-8.33534 -34.29549,-14.71115 -54.31906,-17.04843 -13.78546,-1.60913 -50.07491,-0.82698 -61.552643,1.32665 -35.818731,6.72087 -62.014061,23.31783 -67.450748,42.73576 -5.640265,20.14505 11.774683,40.86299 43.760588,52.06029 9.142856,3.2006 24.092515,6.6621 34.621983,8.0163 11.43637,1.4709 41.08495,1.2058 52.47979,-0.4692 z"
       id="path2397"
       transform="scale(0.26458333)" />
    <path
       style="fill:#ffffff;stroke:#000000;stroke-width:3.3948;stroke-linecap:round;stroke-linejoin:round;stroke-opacity:0.955017;paint-order:stroke markers fill"
       d="m 236.90207,811.72498 c -2.35827,-6.64953 -2.01321,-23.45236 0.58341,-28.4092 l 0.81141,-1.54895 0.75032,1.87748 c 2.29154,5.73399 2.85179,18.73951 1.09742,25.47501 -1.55847,5.98337 -1.93682,6.28741 -3.24256,2.60566 z"
       id="path879"
       transform="scale(0.26458333)" />
    <path
       style="fill:#ffffff;stroke:#000000;stroke-width:3.3948;stroke-linecap:round;stroke-linejoin:round;stroke-opacity:0.955017;paint-order:stroke markers fill"
       d="m 222.63776,818.19742 c 2.94991,-4.14276 3.72171,-8.33811 3.71456,-20.19139 -0.006,-9.6639 -0.19143,-11.67956 -1.37642,-14.94824 l -1.36967,-3.77812 h 4.42857 4.42858 l -1.3136,4.10666 c -1.66507,5.20546 -2.28504,17.34947 -1.23087,24.1107 0.81702,5.24023 2.43235,9.54864 4.26839,11.38468 1.07664,1.07665 0.77064,1.13602 -5.85485,1.13602 h -6.99087 z"
       id="path918"
       transform="scale(0.26458333)" />
    <path
       style="fill:#ffffff;stroke:#000000;stroke-width:3.3948;stroke-linecap:round;stroke-linejoin:round;stroke-opacity:0.955017;paint-order:stroke markers fill"
       d="m 216.9648,812.49139 c -1.40712,-3.08828 -2.27546,-11.05728 -1.90059,-17.44215 0.38821,-6.61209 2.11959,-13.70901 3.10426,-12.72434 0.31921,0.3192 1.07299,2.49964 1.67508,4.84542 1.92279,7.49133 1.18625,22.56444 -1.2665,25.91878 -0.75528,1.03292 -0.89246,0.98206 -1.61225,-0.59771 z"
       id="path996"
       transform="scale(0.26458333)" />
    <path
       style="fill:#ffffff;stroke:#000000;stroke-width:3.3948;stroke-linecap:round;stroke-linejoin:round;stroke-opacity:0.955017;paint-order:stroke markers fill"
       d="m 155.58778,818.52062 c 4.63022,-4.92865 6.1508,-23.9731 2.77416,-34.74503 -0.71848,-2.29206 -1.31015,-4.24131 -1.31481,-4.33166 -0.005,-0.0903 2.68427,-0.16426 5.97541,-0.16426 5.44802,0 5.9399,0.10297 5.49268,1.14986 -1.92524,4.50676 -2.47865,8.35314 -2.52889,17.5765 -0.0597,10.96092 1.07029,16.59924 4.03219,20.11925 l 1.59239,1.89245 h -8.7148 -8.71479 z"
       id="path1035"
       transform="scale(0.26458333)" />
    <path
       style="fill:#ffffff;stroke:#000000;stroke-width:3.3948;stroke-linecap:round;stroke-linejoin:round;stroke-opacity:0.955017;paint-order:stroke markers fill"
       d="m 173.54079,812.66006 c -1.56159,-4.10729 -2.21248,-10.08783 -1.86582,-17.1436 0.35758,-7.27789 2.03404,-14.28579 3.15003,-13.16768 1.35963,1.36221 2.5821,8.7904 2.57242,15.63104 -0.0148,10.4405 -2.24334,18.92352 -3.85663,14.68024 z"
       id="path1074"
       transform="scale(0.26458333)" />
    <path
       style="fill:#ffffff;stroke:#000000;stroke-width:3.3948;stroke-linecap:round;stroke-linejoin:round;stroke-opacity:0.955017;paint-order:stroke markers fill"
       d="m 192.03993,813.06454 c -2.36285,-4.61967 -2.99818,-19.17492 -1.14487,-26.22862 0.56971,-2.16832 1.29389,-4.20092 1.6093,-4.51689 1.02376,-1.0256 2.7666,6.29181 3.11951,13.09745 0.35715,6.88734 -0.5584,14.5211 -2.0772,17.31953 -0.82118,1.51306 -0.89289,1.52869 -1.50674,0.32853 z"
       id="path1113"
       transform="scale(0.26458333)" />
    <path
       style="fill:#ffffff;stroke:#000000;stroke-width:3.3948;stroke-linecap:round;stroke-linejoin:round;stroke-opacity:0.955017;paint-order:stroke markers fill"
       d="m 150.17377,811.96715 c -2.80131,-6.64863 -2.15317,-26.23783 0.98095,-29.64812 0.95354,-1.03755 2.68662,6.35892 3.06098,13.06372 0.38722,6.93496 -0.53158,14.54188 -2.10253,17.40726 l -0.90059,1.64266 z"
       id="path1183"
       transform="scale(0.26458333)" />
    <path
       style="fill:#ffffff;stroke:#000000;stroke-width:3.3948;stroke-linecap:round;stroke-linejoin:round;stroke-opacity:0.955017;paint-order:stroke markers fill"
       d="m 156.32393,818.2108 c 2.77486,-3.86936 3.67449,-8.96197 3.62731,-20.5333 -0.0335,-8.22061 -0.3061,-11.62978 -1.12749,-14.10196 -0.76824,-2.31218 -0.87209,-3.3909 -0.3571,-3.70918 0.73663,-0.45527 8.94306,-0.29063 9.42273,0.18903 0.14365,0.14366 -0.22817,1.5802 -0.82627,3.19233 -0.86896,2.3422 -1.08518,5.37352 -1.07609,15.08685 0.012,12.87675 0.46832,15.40398 3.56679,19.75537 l 1.3727,1.92779 h -7.9492 -7.9492 z"
       id="path1222"
       transform="scale(0.26458333)" />
    <path
       style="fill:#ffffff;stroke:#000000;stroke-width:3.3948;stroke-linecap:round;stroke-linejoin:round;stroke-opacity:0.955017;paint-order:stroke markers fill"
       d="m 192.00883,811.86181 c -1.40601,-3.08586 -2.21751,-13.42405 -1.5288,-19.47622 0.74871,-6.57936 1.81517,-9.93366 2.70205,-8.49865 2.16813,3.50811 2.55617,22.704 0.5562,27.51461 l -0.92519,2.22541 z"
       id="path1261"
       transform="scale(0.26458333)" />
    <path
       style="fill:#ffffff;stroke:#000000;stroke-width:3.3948;stroke-linecap:round;stroke-linejoin:round;stroke-opacity:0.955017;paint-order:stroke markers fill"
       d="m 173.38867,811.09426 c -1.31409,-3.72288 -1.17944,-22.64554 0.18658,-26.21915 l 1.00069,-2.61787 0.92307,2.61787 c 1.40322,3.9796 1.29725,24.27743 -0.14032,26.87621 l -1.06104,1.91812 z"
       id="path1300"
       transform="scale(0.26458333)" />
    <path
       style="fill:#ffffff;stroke:#000000;stroke-width:3.3948;stroke-linecap:round;stroke-linejoin:round;stroke-opacity:0.955017;paint-order:stroke markers fill"
       d="m 128.51552,813.54289 c -0.19807,-0.32048 -0.80986,-2.30934 -1.35953,-4.41969 -1.81592,-6.97178 -1.02141,-21.79913 1.39992,-26.12581 0.61769,-1.10375 0.74205,-1.04628 1.4228,0.65747 1.44163,3.60804 2.05948,7.84185 2.07539,14.22147 0.0214,8.59047 -2.1019,17.99116 -3.53858,15.66656 z"
       id="path1374"
       transform="scale(0.26458333)" />
    <path
       style="fill:#ffffff;stroke:#000000;stroke-width:3.3948;stroke-linecap:round;stroke-linejoin:round;stroke-opacity:0.955017;paint-order:stroke markers fill"
       d="m 112.69715,817.64014 c 4.86453,-7.16829 5.52177,-26.26964 1.28034,-37.21061 -0.40028,-1.03254 0.0572,-1.14986 4.48363,-1.14986 h 4.92939 l -1.33407,4.10666 c -1.683,5.18079 -2.30902,18.12683 -1.18871,24.58273 0.85919,4.95118 2.49899,9.16495 4.24669,10.91265 1.07665,1.07665 0.73969,1.13602 -6.44736,1.13602 h -7.58339 z"
       id="path1413"
       transform="scale(0.26458333)" />
    <path
       style="fill:#ffffff;stroke:#000000;stroke-width:3.3948;stroke-linecap:round;stroke-linejoin:round;stroke-opacity:0.955017;paint-order:stroke markers fill"
       d="m 106.10279,809.99748 c -2.10318,-7.3692 -1.3627,-23.53611 1.24111,-27.09704 0.74524,-1.01917 0.98652,-0.70818 2.09951,2.70612 1.71797,5.27018 1.7673,19.20922 0.0875,24.71945 -0.63348,2.07797 -1.40024,3.77813 -1.70391,3.77813 -0.30367,0 -1.07955,-1.848 -1.72418,-4.10666 z"
       id="path1452"
       transform="scale(0.26458333)" />
    <path
       style="fill:#ffffff;stroke:#000000;stroke-width:3.3948;stroke-linecap:round;stroke-linejoin:round;stroke-opacity:0.955017;paint-order:stroke markers fill"
       d=""
       id="path1530"
       transform="scale(0.26458333)" />
    <path
       style="fill:#ffffff;stroke:#000000;stroke-width:3.3948;stroke-linecap:round;stroke-linejoin:round;stroke-opacity:0.955017;paint-order:stroke markers fill"
       d="m 128.07401,811.14734 c -1.28557,-3.62596 -1.29076,-21.8493 -0.007,-25.95408 l 0.92444,-2.9568 1.26221,3.9424 c 1.07334,3.35246 1.22099,5.36804 0.98671,13.46984 -0.1858,6.42544 -0.59435,10.27621 -1.25481,11.82718 l -0.97932,2.29973 z"
       id="path1569"
       transform="scale(0.26458333)" />
    <path
       style="fill:#ffffff;stroke:#000000;stroke-width:3.3948;stroke-linecap:round;stroke-linejoin:round;stroke-opacity:0.955017;paint-order:stroke markers fill"
       d="m 179.73276,817.2252 c 2.75406,-4.83143 3.793,-11.30704 3.43763,-21.42645 -0.23899,-6.80581 -0.64207,-9.87209 -1.67486,-12.74096 l -1.36012,-3.77812 h 3.46214 3.46215 l -1.30766,3.77812 c -0.96223,2.7801 -1.39086,6.14576 -1.62262,12.74096 -0.3556,10.11943 0.68324,16.59479 3.43743,21.42645 l 1.59182,2.79253 h -5.50887 -5.50886 z"
       id="path1687"
       transform="scale(0.26458333)" />
    <path
       style="fill:#ffffff;stroke:#000000;stroke-width:3.3948;stroke-linecap:round;stroke-linejoin:round;stroke-opacity:0.955017;paint-order:stroke markers fill"
       d="m 242.18518,818.88171 c 1.83604,-1.83604 3.45137,-6.14445 4.26839,-11.38468 1.05417,-6.76123 0.4342,-18.90524 -1.23087,-24.1107 l -1.3136,-4.10666 h 4.53055 4.53056 v 20.36903 20.36903 h -5.96052 c -5.64901,0 -5.90115,-0.0594 -4.82451,-1.13602 z"
       id="path1726"
       transform="scale(0.26458333)" />
    <path
       style="fill:#ffffff;stroke:#000000;stroke-width:3.3948;stroke-linecap:round;stroke-linejoin:round;stroke-opacity:0.955017;paint-order:stroke markers fill"
       d="m 157.43231,816.84732 c 0.90467,-1.74372 1.91945,-5.07012 2.25505,-7.39198 0.80443,-5.56542 0.79523,-18.40339 -0.0164,-22.94795 -1.21614,-6.80911 -1.53994,-6.21823 3.52813,-6.43829 3.86936,-0.16802 4.46133,-0.0492 4.12474,0.82795 -1.2958,3.37681 -1.88029,10.78302 -1.61526,20.46764 0.28616,10.45707 0.34713,10.84076 2.33503,14.69523 l 2.0412,3.95781 h -7.14866 -7.14866 z"
       id="path1765"
       transform="scale(0.26458333)" />
    <path
       style="fill:#ffffff;stroke:#000000;stroke-width:3.3948;stroke-linecap:round;stroke-linejoin:round;stroke-opacity:0.955017;paint-order:stroke markers fill"
       d="m 150.5659,811.75689 c -1.50962,-3.31325 -2.20512,-12.84971 -1.43853,-19.72456 0.75228,-6.74648 1.72173,-9.66287 2.69084,-8.09483 2.10697,3.40915 2.47701,22.76868 0.52495,27.46405 l -0.9252,2.22541 z"
       id="path1804"
       transform="scale(0.26458333)" />
    <path
       style="fill:#ffffff;stroke:#000000;stroke-width:3.3948;stroke-linecap:round;stroke-linejoin:round;stroke-opacity:0.955017;paint-order:stroke markers fill"
       d="m 128.1353,809.19327 c -0.96937,-4.64678 -0.64409,-22.34763 0.44619,-24.28047 0.61644,-1.09281 0.82453,-0.7729 1.52068,2.33786 0.9359,4.18202 0.59579,21.62901 -0.47225,24.22522 -0.62132,1.51033 -0.74172,1.32645 -1.49462,-2.28261 z"
       id="path1882"
       transform="scale(0.26458333)" />
    <path
       style="fill:#ffffff;stroke:#000000;stroke-width:3.3948;stroke-linecap:round;stroke-linejoin:round;stroke-opacity:0.955017;paint-order:stroke markers fill"
       d="m 18.397834,799.6487 v -20.36903 h 5.990223 c 5.909921,0 5.984076,0.0198 5.53163,1.47839 -2.600948,8.38482 -3.349907,15.98948 -2.369162,24.05561 0.778171,6.40005 2.49881,11.88068 4.383877,13.96366 1.09393,1.20878 0.9357,1.2404 -6.207011,1.2404 h -7.329557 z"
       id="path1921"
       transform="scale(0.26458333)" />
    <path
       style="fill:#ffffff;stroke:#000000;stroke-width:3.3948;stroke-linecap:round;stroke-linejoin:round;stroke-opacity:0.955017;paint-order:stroke markers fill"
       d="m 40.342802,818.77733 c 4.761367,-5.26125 6.277719,-25.45549 2.685556,-35.76528 -0.526373,-1.51073 -0.961345,-2.96854 -0.966604,-3.23958 -0.0053,-0.27104 3.064067,-0.4928 6.820724,-0.4928 h 6.830287 l -1.334069,4.10666 c -1.683005,5.18079 -2.309018,18.12683 -1.18871,24.58273 0.859189,4.95118 2.498992,9.16495 4.246694,10.91265 1.076643,1.07665 0.630303,1.13602 -8.540205,1.13602 -9.442877,0 -9.649149,-0.0299 -8.553673,-1.2404 z"
       id="path1960"
       transform="scale(0.26458333)" />
    <path
       style="fill:#ffffff;stroke:#000000;stroke-width:3.3948;stroke-linecap:round;stroke-linejoin:round;stroke-opacity:0.955017;paint-order:stroke markers fill"
       d="m 60.837775,813.54289 c -1.231469,-1.99256 -2.358947,-9.12759 -2.358947,-14.92816 0,-6.79844 0.621535,-11.53526 1.976619,-15.06414 l 0.756938,-1.97119 0.870055,1.64684 c 2.377218,4.49959 3.041292,17.87569 1.273362,25.64869 -1.007545,4.42983 -1.780084,5.86198 -2.518027,4.66796 z"
       id="path2038"
       transform="scale(0.26458333)" />
    <path
       style="fill:#ffffff;stroke:#000000;stroke-width:3.3948;stroke-linecap:round;stroke-linejoin:round;stroke-opacity:0.955017;paint-order:stroke markers fill"
       d="m 34.383865,810.32601 c -1.593834,-5.30836 -1.60409,-18.78479 -0.01825,-23.98289 0.633948,-2.07797 1.428598,-3.77812 1.765889,-3.77812 0.990703,0 2.533049,6.15413 3.006612,11.99672 0.591876,7.30228 -1.307249,19.54242 -3.032114,19.54242 -0.323264,0 -1.098225,-1.70016 -1.722135,-3.77813 z"
       id="path2077"
       transform="scale(0.26458333)" />
    <path
       style="fill:#ffffff;stroke:#000000;stroke-width:3.3948;stroke-linecap:round;stroke-linejoin:round;stroke-opacity:0.955017;paint-order:stroke markers fill"
       d="m 84.938251,813.06454 c -2.362849,-4.61967 -2.99818,-19.17492 -1.144869,-26.22862 0.56971,-2.16832 1.293895,-4.20092 1.6093,-4.51689 1.023764,-1.0256 2.766606,6.29181 3.119516,13.09745 0.357146,6.88734 -0.5584,14.5211 -2.077199,17.31953 -0.821182,1.51306 -0.892896,1.52869 -1.506748,0.32853 z"
       id="path2116"
       transform="scale(0.26458333)" />
  </g>
</svg>
