<?xml version="1.0" encoding="UTF-8" standalone="no"?>
<!-- Created with Inkscape (http://www.inkscape.org/) -->

<svg
   width="210mm"
   height="297mm"
   viewBox="0 0 210 297"
   version="1.1"
   id="svg5"
   inkscape:version="1.1.1 (3bf5ae0d25, 2021-09-20)"
   sodipodi:docname="sampler memory card 3 svg.svg"
   xmlns:inkscape="http://www.inkscape.org/namespaces/inkscape"
   xmlns:sodipodi="http://sodipodi.sourceforge.net/DTD/sodipodi-0.dtd"
   xmlns="http://www.w3.org/2000/svg"
   xmlns:svg="http://www.w3.org/2000/svg">
  <sodipodi:namedview
     id="namedview7"
     pagecolor="#ffffff"
     bordercolor="#666666"
     borderopacity="1.0"
     inkscape:pageshadow="2"
     inkscape:pageopacity="0.0"
     inkscape:pagecheckerboard="0"
     inkscape:document-units="mm"
     showgrid="false"
     inkscape:zoom="0.96102398"
     inkscape:cx="381.88433"
     inkscape:cy="230.48332"
     inkscape:window-width="1680"
     inkscape:window-height="956"
     inkscape:window-x="-11"
     inkscape:window-y="-11"
     inkscape:window-maximized="1"
     inkscape:current-layer="layer1" />
  <defs
     id="defs2" />
  <g
     inkscape:label="Layer 1"
     inkscape:groupmode="layer"
     id="layer1">
    <path
       id="rect1497"
       style="fill:none;stroke:#000000;stroke-width:0.534744;stroke-linecap:round;stroke-linejoin:round;stroke-opacity:0.955017;paint-order:stroke markers fill"
       d="m 10.057103,9.0537365 h 43.260985 c 0.550616,0 0.993898,0.3559403 0.993898,0.7980709 V 30.285439 c 0,0.442131 -0.443282,0.798071 -0.993898,0.798071 H 10.057103 c -0.5506203,0 -0.9938988,-0.35594 -0.9938988,-0.798071 V 9.8518074 c 0,-0.4421306 0.4432785,-0.7980709 0.9938988,-0.7980709 z M 46.877115,71.272512 h 0.836437 c 0.507746,0 0.916497,0.330443 0.916497,0.740905 v 3.332121 c 0,0.410453 -0.408751,0.740895 -0.916497,0.740895 h -0.836437 c -0.507739,0 -0.916497,-0.330442 -0.916497,-0.740895 v -3.332121 c 0,-0.410462 0.408758,-0.740905 0.916497,-0.740905 z m -7.586943,0 h 0.836435 c 0.507733,0 0.916484,0.330443 0.916484,0.740905 v 3.332121 c 0,0.410453 -0.408751,0.740895 -0.916484,0.740895 h -0.836435 c -0.50774,0 -0.916498,-0.330442 -0.916498,-0.740895 v -3.332121 c 0,-0.410462 0.408758,-0.740905 0.916498,-0.740905 z m -5.517788,0 h 0.836435 c 0.507739,0 0.916497,0.330443 0.916497,0.740905 v 3.332121 c 0,0.410453 -0.408758,0.740895 -0.916497,0.740895 h -0.836435 c -0.507739,0 -0.916498,-0.330442 -0.916498,-0.740895 v -3.332121 c 0,-0.410462 0.408759,-0.740905 0.916498,-0.740905 z m -7.586957,0 h 0.836435 c 0.507739,0 0.916496,0.330443 0.916496,0.740905 v 3.332121 c 0,0.410453 -0.408757,0.740895 -0.916496,0.740895 h -0.836435 c -0.507741,0 -0.916498,-0.330442 -0.916498,-0.740895 v -3.332121 c 0,-0.410462 0.408757,-0.740905 0.916498,-0.740905 z m -6.552374,0 h 0.836437 c 0.507738,0 0.916496,0.330443 0.916496,0.740905 v 3.332121 c 0,0.410453 -0.408758,0.740895 -0.916496,0.740895 h -0.836437 c -0.507739,0 -0.916495,-0.330442 -0.916495,-0.740895 v -3.332121 c 0,-0.410462 0.408756,-0.740905 0.916495,-0.740905 z m -6.207509,0 h 0.836435 c 0.50774,0 0.916497,0.330443 0.916497,0.740905 v 3.332121 c 0,0.410453 -0.408757,0.740895 -0.916497,0.740895 h -0.836435 c -0.507739,0 -0.916499,-0.330442 -0.916499,-0.740895 v -3.332121 c 0,-0.410462 0.40876,-0.740905 0.916499,-0.740905 z M 5.8279366,70.276536 H 57.383515 c 0.507746,0 0.916503,0.330442 0.916503,0.740895 v 5.98808 c 0,0.410453 -0.408757,0.740896 -0.916503,0.740896 H 5.8279366 c -0.5077388,0 -0.9164961,-0.330443 -0.9164961,-0.740896 v -5.98808 c 0,-0.410453 0.4087573,-0.740895 0.9164961,-0.740895 z M 5.9890648,43.053023 H 57.066259 c 0.511177,0 0.922697,0.330438 0.922697,0.740893 v 25.741725 c 0,0.410452 -0.41152,0.740895 -0.922697,0.740895 H 5.9890648 c -0.5111703,0 -0.9226912,-0.330443 -0.9226912,-0.740895 V 43.793916 c 0,-0.410455 0.4115209,-0.740893 0.9226912,-0.740893 z m 0,-9.129837 H 57.066259 c 0.511171,0 0.922691,0.330439 0.922691,0.740894 v 7.648051 c 0,0.410454 -0.41152,0.740892 -0.922691,0.740892 H 5.9890648 c -0.5111703,0 -0.9226912,-0.330438 -0.9226912,-0.740892 V 34.66408 c 0,-0.410455 0.4115209,-0.740894 0.9226912,-0.740894 z m 0,-28.7174858 H 56.859525 c 0.51117,0 0.92269,0.3304388 0.92269,0.7408946 V 33.182291 c 0,0.410456 -0.41152,0.740894 -0.92269,0.740894 H 5.9890648 c -0.5111703,0 -0.9226912,-0.330438 -0.9226912,-0.740894 V 5.9465948 c 0,-0.4104558 0.4115209,-0.7408946 0.9226912,-0.7408946 z" />
    <path
       id="path1604"
       style="fill:none;stroke:#000000;stroke-width:0.534744;stroke-linecap:round;stroke-linejoin:round;stroke-opacity:0.955017;paint-order:stroke markers fill"
       d="m 151.01786,8.5031085 h 43.26098 c 0.55062,0 0.9939,0.3559403 0.9939,0.7980709 V 29.734811 c 0,0.442131 -0.44328,0.798071 -0.9939,0.798071 h -43.26098 c -0.55062,0 -0.9939,-0.35594 -0.9939,-0.798071 V 9.3011794 c 0,-0.4421306 0.44328,-0.7980709 0.9939,-0.7980709 z m 36.82001,62.2187755 h 0.83644 c 0.50774,0 0.91649,0.330443 0.91649,0.740905 v 3.332121 c 0,0.410453 -0.40875,0.740895 -0.91649,0.740895 h -0.83644 c -0.50774,0 -0.9165,-0.330442 -0.9165,-0.740895 v -3.332121 c 0,-0.410462 0.40876,-0.740905 0.9165,-0.740905 z m -7.58694,0 h 0.83643 c 0.50774,0 0.91649,0.330443 0.91649,0.740905 v 3.332121 c 0,0.410453 -0.40875,0.740895 -0.91649,0.740895 h -0.83643 c -0.50774,0 -0.9165,-0.330442 -0.9165,-0.740895 v -3.332121 c 0,-0.410462 0.40876,-0.740905 0.9165,-0.740905 z m -5.51779,0 h 0.83643 c 0.50774,0 0.9165,0.330443 0.9165,0.740905 v 3.332121 c 0,0.410453 -0.40876,0.740895 -0.9165,0.740895 h -0.83643 c -0.50774,0 -0.9165,-0.330442 -0.9165,-0.740895 v -3.332121 c 0,-0.410462 0.40876,-0.740905 0.9165,-0.740905 z m -7.58696,0 h 0.83644 c 0.50774,0 0.91649,0.330443 0.91649,0.740905 v 3.332121 c 0,0.410453 -0.40875,0.740895 -0.91649,0.740895 h -0.83644 c -0.50774,0 -0.9165,-0.330442 -0.9165,-0.740895 v -3.332121 c 0,-0.410462 0.40876,-0.740905 0.9165,-0.740905 z m -6.55237,0 h 0.83644 c 0.50773,0 0.91649,0.330443 0.91649,0.740905 v 3.332121 c 0,0.410453 -0.40876,0.740895 -0.91649,0.740895 h -0.83644 c -0.50774,0 -0.9165,-0.330442 -0.9165,-0.740895 v -3.332121 c 0,-0.410462 0.40876,-0.740905 0.9165,-0.740905 z m -6.20751,0 h 0.83643 c 0.50774,0 0.9165,0.330443 0.9165,0.740905 v 3.332121 c 0,0.410453 -0.40876,0.740895 -0.9165,0.740895 h -0.83643 c -0.50774,0 -0.9165,-0.330442 -0.9165,-0.740895 v -3.332121 c 0,-0.410462 0.40876,-0.740905 0.9165,-0.740905 z m -7.59761,-0.995976 h 51.55558 c 0.50775,0 0.9165,0.330442 0.9165,0.740895 v 5.98808 c 0,0.410453 -0.40875,0.740896 -0.9165,0.740896 h -51.55558 c -0.50774,0 -0.91649,-0.330443 -0.91649,-0.740896 v -5.98808 c 0,-0.410453 0.40875,-0.740895 0.91649,-0.740895 z m 0.16113,-27.223513 h 51.07719 c 0.51118,0 0.9227,0.330438 0.9227,0.740893 v 25.741725 c 0,0.410452 -0.41152,0.740895 -0.9227,0.740895 h -51.07719 c -0.51117,0 -0.92269,-0.330443 -0.92269,-0.740895 V 43.243288 c 0,-0.410455 0.41152,-0.740893 0.92269,-0.740893 z m 0,-9.129837 h 51.07719 c 0.51118,0 0.9227,0.330439 0.9227,0.740894 v 7.648051 c 0,0.410454 -0.41152,0.740892 -0.9227,0.740892 h -51.07719 c -0.51117,0 -0.92269,-0.330438 -0.92269,-0.740892 v -7.648051 c 0,-0.410455 0.41152,-0.740894 0.92269,-0.740894 z m 0,-28.7174858 h 50.87046 c 0.51117,0 0.92269,0.3304388 0.92269,0.7408946 V 32.631663 c 0,0.410456 -0.41152,0.740894 -0.92269,0.740894 h -50.87046 c -0.51117,0 -0.92269,-0.330438 -0.92269,-0.740894 V 5.3959668 c 0,-0.4104558 0.41152,-0.7408946 0.92269,-0.7408946 z" />
    <path
       style="fill:#000000;stroke:#000000;stroke-width:3.36649;stroke-linecap:round;stroke-linejoin:round;stroke-miterlimit:4;stroke-dasharray:none;stroke-opacity:0.955017;paint-order:stroke markers fill"
       d="m 554.27521,261.5319 c -0.38446,-0.38445 -0.69901,-22.86286 -0.69901,-49.95203 v -49.25302 h 98.3427 98.3427 l -0.27022,49.68659 -0.27023,49.68659 -97.37347,0.26544 c -53.55541,0.14599 -97.68802,-0.0491 -98.07247,-0.43357 z"
       id="path1719"
       transform="scale(0.26458333)" />
    <path
       style="fill:#000000;stroke:#000000;stroke-width:3.36649;stroke-linecap:round;stroke-linejoin:round;stroke-miterlimit:4;stroke-dasharray:none;stroke-opacity:0.955017;paint-order:stroke markers fill"
       d="m 554.27521,158.51678 c -0.38446,-0.38445 -0.69901,-7.4106 -0.69901,-15.61365 v -14.91465 h 98.36043 98.36043 l -0.28796,15.34821 -0.28795,15.34822 -97.37347,0.26544 c -53.55541,0.14599 -97.68802,-0.0491 -98.07247,-0.43357 z"
       id="path1882"
       transform="scale(0.26458333)" />
  </g>
</svg>
