<?xml version="1.0" encoding="UTF-8" standalone="no"?>
<!-- Created with Inkscape (http://www.inkscape.org/) -->

<svg
   width="210mm"
   height="297mm"
   viewBox="0 0 210 297"
   version="1.1"
   id="svg5"
   inkscape:version="1.1.1 (3bf5ae0d25, 2021-09-20)"
   sodipodi:docname="sampler memory card 3 svg.svg"
   xmlns:inkscape="http://www.inkscape.org/namespaces/inkscape"
   xmlns:sodipodi="http://sodipodi.sourceforge.net/DTD/sodipodi-0.dtd"
   xmlns="http://www.w3.org/2000/svg"
   xmlns:svg="http://www.w3.org/2000/svg">
  <sodipodi:namedview
     id="namedview7"
     pagecolor="#ffffff"
     bordercolor="#666666"
     borderopacity="1.0"
     inkscape:pageshadow="2"
     inkscape:pageopacity="0.0"
     inkscape:pagecheckerboard="0"
     inkscape:document-units="mm"
     showgrid="false"
     inkscape:zoom="1.4468942"
     inkscape:cx="545.30595"
     inkscape:cy="230.49371"
     inkscape:window-width="1680"
     inkscape:window-height="956"
     inkscape:window-x="-11"
     inkscape:window-y="-11"
     inkscape:window-maximized="1"
     inkscape:current-layer="layer1" />
  <defs
     id="defs2" />
  <g
     inkscape:label="Layer 1"
     inkscape:groupmode="layer"
     id="layer1">
    <path
       id="rect1497"
       style="fill:none;stroke:#000000;stroke-width:0.534744;stroke-linecap:round;stroke-linejoin:round;stroke-opacity:0.955017;paint-order:stroke markers fill"
       d="m 10.057103,9.0537365 h 43.260985 c 0.550616,0 0.993898,0.3559403 0.993898,0.7980709 V 30.285439 c 0,0.442131 -0.443282,0.798071 -0.993898,0.798071 H 10.057103 c -0.5506203,0 -0.9938988,-0.35594 -0.9938988,-0.798071 V 9.8518074 c 0,-0.4421306 0.4432785,-0.7980709 0.9938988,-0.7980709 z M 46.877115,71.272512 h 0.836437 c 0.507746,0 0.916497,0.330443 0.916497,0.740905 v 3.332121 c 0,0.410453 -0.408751,0.740895 -0.916497,0.740895 h -0.836437 c -0.507739,0 -0.916497,-0.330442 -0.916497,-0.740895 v -3.332121 c 0,-0.410462 0.408758,-0.740905 0.916497,-0.740905 z m -7.586943,0 h 0.836435 c 0.507733,0 0.916484,0.330443 0.916484,0.740905 v 3.332121 c 0,0.410453 -0.408751,0.740895 -0.916484,0.740895 h -0.836435 c -0.50774,0 -0.916498,-0.330442 -0.916498,-0.740895 v -3.332121 c 0,-0.410462 0.408758,-0.740905 0.916498,-0.740905 z m -5.517788,0 h 0.836435 c 0.507739,0 0.916497,0.330443 0.916497,0.740905 v 3.332121 c 0,0.410453 -0.408758,0.740895 -0.916497,0.740895 h -0.836435 c -0.507739,0 -0.916498,-0.330442 -0.916498,-0.740895 v -3.332121 c 0,-0.410462 0.408759,-0.740905 0.916498,-0.740905 z m -7.586957,0 h 0.836435 c 0.507739,0 0.916496,0.330443 0.916496,0.740905 v 3.332121 c 0,0.410453 -0.408757,0.740895 -0.916496,0.740895 h -0.836435 c -0.507741,0 -0.916498,-0.330442 -0.916498,-0.740895 v -3.332121 c 0,-0.410462 0.408757,-0.740905 0.916498,-0.740905 z m -6.552374,0 h 0.836437 c 0.507738,0 0.916496,0.330443 0.916496,0.740905 v 3.332121 c 0,0.410453 -0.408758,0.740895 -0.916496,0.740895 h -0.836437 c -0.507739,0 -0.916495,-0.330442 -0.916495,-0.740895 v -3.332121 c 0,-0.410462 0.408756,-0.740905 0.916495,-0.740905 z m -6.207509,0 h 0.836435 c 0.50774,0 0.916497,0.330443 0.916497,0.740905 v 3.332121 c 0,0.410453 -0.408757,0.740895 -0.916497,0.740895 h -0.836435 c -0.507739,0 -0.916499,-0.330442 -0.916499,-0.740895 v -3.332121 c 0,-0.410462 0.40876,-0.740905 0.916499,-0.740905 z M 5.8279366,70.276536 H 57.383515 c 0.507746,0 0.916503,0.330442 0.916503,0.740895 v 5.98808 c 0,0.410453 -0.408757,0.740896 -0.916503,0.740896 H 5.8279366 c -0.5077388,0 -0.9164961,-0.330443 -0.9164961,-0.740896 v -5.98808 c 0,-0.410453 0.4087573,-0.740895 0.9164961,-0.740895 z M 5.9890648,43.053023 H 57.066259 c 0.511177,0 0.922697,0.330438 0.922697,0.740893 v 25.741725 c 0,0.410452 -0.41152,0.740895 -0.922697,0.740895 H 5.9890648 c -0.5111703,0 -0.9226912,-0.330443 -0.9226912,-0.740895 V 43.793916 c 0,-0.410455 0.4115209,-0.740893 0.9226912,-0.740893 z m 0,-9.129837 H 57.066259 c 0.511171,0 0.922691,0.330439 0.922691,0.740894 v 7.648051 c 0,0.410454 -0.41152,0.740892 -0.922691,0.740892 H 5.9890648 c -0.5111703,0 -0.9226912,-0.330438 -0.9226912,-0.740892 V 34.66408 c 0,-0.410455 0.4115209,-0.740894 0.9226912,-0.740894 z m 0,-28.7174858 H 56.859525 c 0.51117,0 0.92269,0.3304388 0.92269,0.7408946 V 33.182291 c 0,0.410456 -0.41152,0.740894 -0.92269,0.740894 H 5.9890648 c -0.5111703,0 -0.9226912,-0.330438 -0.9226912,-0.740894 V 5.9465948 c 0,-0.4104558 0.4115209,-0.7408946 0.9226912,-0.7408946 z" />
    <path
       id="path1604"
       style="fill:none;stroke:#000000;stroke-width:0.534744;stroke-linecap:round;stroke-linejoin:round;stroke-opacity:0.955017;paint-order:stroke markers fill"
       d="m 151.01786,8.5031085 h 43.26098 c 0.55062,0 0.9939,0.3559403 0.9939,0.7980709 V 29.734811 c 0,0.442131 -0.44328,0.798071 -0.9939,0.798071 h -43.26098 c -0.55062,0 -0.9939,-0.35594 -0.9939,-0.798071 V 9.3011794 c 0,-0.4421306 0.44328,-0.7980709 0.9939,-0.7980709 z m 36.82001,62.2187755 h 0.83644 c 0.50774,0 0.91649,0.330443 0.91649,0.740905 v 3.332121 c 0,0.410453 -0.40875,0.740895 -0.91649,0.740895 h -0.83644 c -0.50774,0 -0.9165,-0.330442 -0.9165,-0.740895 v -3.332121 c 0,-0.410462 0.40876,-0.740905 0.9165,-0.740905 z m -7.58694,0 h 0.83643 c 0.50774,0 0.91649,0.330443 0.91649,0.740905 v 3.332121 c 0,0.410453 -0.40875,0.740895 -0.91649,0.740895 h -0.83643 c -0.50774,0 -0.9165,-0.330442 -0.9165,-0.740895 v -3.332121 c 0,-0.410462 0.40876,-0.740905 0.9165,-0.740905 z m -5.51779,0 h 0.83643 c 0.50774,0 0.9165,0.330443 0.9165,0.740905 v 3.332121 c 0,0.410453 -0.40876,0.740895 -0.9165,0.740895 h -0.83643 c -0.50774,0 -0.9165,-0.330442 -0.9165,-0.740895 v -3.332121 c 0,-0.410462 0.40876,-0.740905 0.9165,-0.740905 z m -7.58696,0 h 0.83644 c 0.50774,0 0.91649,0.330443 0.91649,0.740905 v 3.332121 c 0,0.410453 -0.40875,0.740895 -0.91649,0.740895 h -0.83644 c -0.50774,0 -0.9165,-0.330442 -0.9165,-0.740895 v -3.332121 c 0,-0.410462 0.40876,-0.740905 0.9165,-0.740905 z m -6.55237,0 h 0.83644 c 0.50773,0 0.91649,0.330443 0.91649,0.740905 v 3.332121 c 0,0.410453 -0.40876,0.740895 -0.91649,0.740895 h -0.83644 c -0.50774,0 -0.9165,-0.330442 -0.9165,-0.740895 v -3.332121 c 0,-0.410462 0.40876,-0.740905 0.9165,-0.740905 z m -6.20751,0 h 0.83643 c 0.50774,0 0.9165,0.330443 0.9165,0.740905 v 3.332121 c 0,0.410453 -0.40876,0.740895 -0.9165,0.740895 h -0.83643 c -0.50774,0 -0.9165,-0.330442 -0.9165,-0.740895 v -3.332121 c 0,-0.410462 0.40876,-0.740905 0.9165,-0.740905 z m -7.59761,-0.995976 h 51.55558 c 0.50775,0 0.9165,0.330442 0.9165,0.740895 v 5.98808 c 0,0.410453 -0.40875,0.740896 -0.9165,0.740896 h -51.55558 c -0.50774,0 -0.91649,-0.330443 -0.91649,-0.740896 v -5.98808 c 0,-0.410453 0.40875,-0.740895 0.91649,-0.740895 z m 0.16113,-27.223513 h 51.07719 c 0.51118,0 0.9227,0.330438 0.9227,0.740893 v 25.741725 c 0,0.410452 -0.41152,0.740895 -0.9227,0.740895 h -51.07719 c -0.51117,0 -0.92269,-0.330443 -0.92269,-0.740895 V 43.243288 c 0,-0.410455 0.41152,-0.740893 0.92269,-0.740893 z m 0,-9.129837 h 51.07719 c 0.51118,0 0.9227,0.330439 0.9227,0.740894 v 7.648051 c 0,0.410454 -0.41152,0.740892 -0.9227,0.740892 h -51.07719 c -0.51117,0 -0.92269,-0.330438 -0.92269,-0.740892 v -7.648051 c 0,-0.410455 0.41152,-0.740894 0.92269,-0.740894 z m 0,-28.7174858 h 50.87046 c 0.51117,0 0.92269,0.3304388 0.92269,0.7408946 V 32.631663 c 0,0.410456 -0.41152,0.740894 -0.92269,0.740894 h -50.87046 c -0.51117,0 -0.92269,-0.330438 -0.92269,-0.740894 V 5.3959668 c 0,-0.4104558 0.41152,-0.7408946 0.92269,-0.7408946 z" />
    <path
       style="fill:#000000;stroke:#000000;stroke-width:3.36649;stroke-linecap:round;stroke-linejoin:round;stroke-miterlimit:4;stroke-dasharray:none;stroke-opacity:0.955017;paint-order:stroke markers fill"
       d="m 554.27521,261.5319 c -0.38446,-0.38445 -0.69901,-22.86286 -0.69901,-49.95203 v -49.25302 h 98.3427 98.3427 l -0.27022,49.68659 -0.27023,49.68659 -97.37347,0.26544 c -53.55541,0.14599 -97.68802,-0.0491 -98.07247,-0.43357 z"
       id="path1719"
       transform="scale(0.26458333)" />
    <path
       style="fill:#000000;stroke:#000000;stroke-width:3.36649;stroke-linecap:round;stroke-linejoin:round;stroke-miterlimit:4;stroke-dasharray:none;stroke-opacity:0.955017;paint-order:stroke markers fill"
       d="m 554.27521,158.51678 c -0.38446,-0.38445 -0.69901,-7.4106 -0.69901,-15.61365 v -14.91465 h 98.36043 98.36043 l -0.28796,15.34821 -0.28795,15.34822 -97.37347,0.26544 c -53.55541,0.14599 -97.68802,-0.0491 -98.07247,-0.43357 z"
       id="path1882"
       transform="scale(0.26458333)" />
    <path
       style="fill:#000000;stroke:#000000;stroke-width:3.36649;stroke-linecap:round;stroke-linejoin:round;stroke-miterlimit:4;stroke-dasharray:none;stroke-opacity:0.955017;paint-order:stroke markers fill"
       d="m 582.4127,283.42606 c -1.17259,-1.17259 -0.86204,-13.72452 0.35823,-14.47869 0.60483,-0.37381 2.26478,-0.38723 3.68877,-0.0298 2.47824,0.622 2.57593,0.94913 2.28211,7.642 -0.29048,6.61672 -0.44874,7.00871 -2.9473,7.30009 -1.45218,0.16935 -2.97399,-0.0258 -3.38181,-0.43357 z"
       id="path1929"
       transform="scale(0.26458333)" />
    <path
       style="fill:#000000;stroke:#000000;stroke-width:2.23601;stroke-linecap:round;stroke-linejoin:round;stroke-miterlimit:4;stroke-dasharray:none;stroke-opacity:0.955017;paint-order:stroke markers fill"
       d="m 605.05459,283.1791 c -0.20133,-0.52466 -0.27591,-3.8852 -0.16574,-7.46786 l 0.20032,-6.51394 h 3.45568 3.45568 v 7.25692 7.25692 l -3.28994,0.21094 c -2.31285,0.14829 -3.39866,-0.0724 -3.656,-0.74298 z"
       id="path2007"
       transform="scale(0.26458333)" />
    <path
       style="fill:#000000;stroke:#000000;stroke-width:2.23601;stroke-linecap:round;stroke-linejoin:round;stroke-miterlimit:4;stroke-dasharray:none;stroke-opacity:0.955017;paint-order:stroke markers fill"
       d="m 629.92083,283.14094 c -0.19328,-0.50367 -0.26127,-3.84704 -0.1511,-7.4297 l 0.20032,-6.51394 h 3.45568 3.45568 l 0.20392,5.87465 c 0.29458,8.48644 0.0897,8.98476 -3.69446,8.98476 -1.95151,0 -3.25014,-0.34272 -3.47004,-0.91577 z"
       id="path2046"
       transform="scale(0.26458333)" />
    <path
       style="fill:#000000;stroke:#000000;stroke-width:2.23601;stroke-linecap:round;stroke-linejoin:round;stroke-miterlimit:4;stroke-dasharray:none;stroke-opacity:0.955017;paint-order:stroke markers fill"
       d="m 708.03379,283.1791 c -0.20133,-0.52466 -0.27592,-3.8852 -0.16574,-7.46786 l 0.20032,-6.51394 h 3.45568 3.45568 v 7.25692 7.25692 l -3.28995,0.21094 c -2.31284,0.14829 -3.39866,-0.0724 -3.65599,-0.74298 z"
       id="path2085"
       transform="scale(0.26458333)" />
    <path
       style="fill:#000000;stroke:#000000;stroke-width:2.23601;stroke-linecap:round;stroke-linejoin:round;stroke-miterlimit:4;stroke-dasharray:none;stroke-opacity:0.955017;paint-order:stroke markers fill"
       d="m 679.69795,283.18099 c -0.20173,-0.52569 -0.27663,-3.88709 -0.16646,-7.46975 l 0.20032,-6.51394 h 3.11011 3.11011 v 7.25692 7.25692 l -2.94365,0.21283 c -2.02364,0.14632 -3.05828,-0.0859 -3.31043,-0.74298 z"
       id="path2124"
       transform="scale(0.26458333)" />
    <path
       style="fill:#000000;stroke:#000000;stroke-width:2.23601;stroke-linecap:round;stroke-linejoin:round;stroke-miterlimit:4;stroke-dasharray:none;stroke-opacity:0.955017;paint-order:stroke markers fill"
       d="m 658.82185,283.2588 c -0.98308,-0.98309 -1.19881,-12.11283 -0.26337,-13.58799 0.37239,-0.58725 1.65233,-0.83176 3.61787,-0.69113 l 3.04162,0.21762 v 7.25692 7.25692 l -2.76765,0.20423 c -1.55422,0.11469 -3.14507,-0.17317 -3.62847,-0.65657 z"
       id="path2163"
       transform="scale(0.26458333)" />
    <path
       style="fill:#000000;stroke:#000000;stroke-width:2.23601;stroke-linecap:round;stroke-linejoin:round;stroke-miterlimit:4;stroke-dasharray:none;stroke-opacity:0.955017;paint-order:stroke markers fill"
       d="m 554.46349,124.63781 c -0.68047,-0.27458 -0.86392,-11.47423 -0.86392,-52.743364 0,-47.139605 0.10966,-52.43684 1.09323,-52.814275 2.00582,-0.769704 192.40437,-0.479036 193.85244,0.295941 1.30343,0.697575 1.33683,2.009505 1.33683,52.501985 0,50.492483 -0.0334,51.804413 -1.33683,52.501983 -1.36125,0.72852 -192.28668,0.98205 -194.08175,0.25773 z m 183.2305,-9.26834 1.82105,-1.43243 V 74.055123 c 0,-34.977669 -0.13231,-40.070804 -1.07589,-41.41797 l -1.0759,-1.536053 h -84.49281 c -71.88114,0 -84.69307,0.146426 -85.83441,0.98099 -1.30163,0.951774 -1.34158,2.188574 -1.34158,41.529197 V 114.1595 l 1.63162,1.3212 c 1.58635,1.28455 3.94715,1.32121 85.08925,1.32121 83.38532,0 83.45921,-0.001 85.27867,-1.43244 z"
       id="path2216"
       transform="scale(0.26458333)" />
  </g>
</svg>
