<?xml version="1.0" encoding="UTF-8" standalone="no"?>
<!-- Created with Inkscape (http://www.inkscape.org/) -->

<svg
   width="210mm"
   height="297mm"
   viewBox="0 0 210 297"
   version="1.1"
   id="svg5"
   inkscape:version="1.1.1 (3bf5ae0d25, 2021-09-20)"
   sodipodi:docname="sampler memory card svg.svg"
   xmlns:inkscape="http://www.inkscape.org/namespaces/inkscape"
   xmlns:sodipodi="http://sodipodi.sourceforge.net/DTD/sodipodi-0.dtd"
   xmlns="http://www.w3.org/2000/svg"
   xmlns:svg="http://www.w3.org/2000/svg">
  <sodipodi:namedview
     id="namedview7"
     pagecolor="#ffffff"
     bordercolor="#666666"
     borderopacity="1.0"
     inkscape:pageshadow="2"
     inkscape:pageopacity="0.0"
     inkscape:pagecheckerboard="0"
     inkscape:document-units="mm"
     showgrid="false"
     inkscape:zoom="1.5219183"
     inkscape:cx="369.92787"
     inkscape:cy="906.42184"
     inkscape:window-width="1680"
     inkscape:window-height="956"
     inkscape:window-x="-11"
     inkscape:window-y="-11"
     inkscape:window-maximized="1"
     inkscape:current-layer="layer1" />
  <defs
     id="defs2" />
  <g
     inkscape:label="Layer 1"
     inkscape:groupmode="layer"
     id="layer1">
    <path
       id="path1071"
       style="fill:none;stroke:#000000;stroke-width:1.367;stroke-linecap:round;stroke-linejoin:round;stroke-miterlimit:4;stroke-dasharray:none;stroke-opacity:0.955017;paint-order:stroke markers fill"
       d="M 61.657994,53.387641 A 26.706818,13.300157 0 0 1 34.951173,66.687799 26.706818,13.300157 0 0 1 8.2443541,53.387641 26.706818,13.300157 0 0 1 34.951173,40.087483 26.706818,13.300157 0 0 1 61.657994,53.387641 Z m 2.97335,-44.6878424 a 1.6098231,5.2121571 0 0 1 -1.60982,5.2121574 1.6098231,5.2121571 0 0 1 -1.60982,-5.2121574 1.6098231,5.2121571 0 0 1 1.60982,-5.212157 1.6098231,5.2121571 0 0 1 1.60982,5.212157 z m -5.346306,0 a 1.6098231,5.2121571 0 0 1 -1.609828,5.2121574 1.6098231,5.2121571 0 0 1 -1.609817,-5.2121574 1.6098231,5.2121571 0 0 1 1.609817,-5.212157 1.6098231,5.2121571 0 0 1 1.609828,5.212157 z m -48.117332,0 a 1.6098231,5.2121571 0 0 1 -1.6098239,5.2121574 1.6098231,5.2121571 0 0 1 -1.609823,-5.2121574 1.6098231,5.2121571 0 0 1 1.609823,-5.212157 1.6098231,5.2121571 0 0 1 1.6098239,5.212157 z m 6.682985,0 a 1.6098231,5.2121571 0 0 1 -1.609823,5.2121574 1.6098231,5.2121571 0 0 1 -1.609824,-5.2121574 1.6098231,5.2121571 0 0 1 1.609824,-5.212157 1.6098231,5.2121571 0 0 1 1.609823,5.212157 z m 6.415666,0 a 1.6098231,5.2121571 0 0 1 -1.609823,5.2121574 1.6098231,5.2121571 0 0 1 -1.609823,-5.2121574 1.6098231,5.2121571 0 0 1 1.609823,-5.212157 1.6098231,5.2121571 0 0 1 1.609823,5.212157 z m 5.881027,0 a 1.6098231,5.2121571 0 0 1 -1.609823,5.2121574 1.6098231,5.2121571 0 0 1 -1.609823,-5.2121574 1.6098231,5.2121571 0 0 1 1.609823,-5.212157 1.6098231,5.2121571 0 0 1 1.609823,5.212157 z m 22.454762,0 A 1.6098231,5.2121571 0 0 1 50.992323,13.911956 1.6098231,5.2121571 0 0 1 49.3825,8.6997986 a 1.6098231,5.2121571 0 0 1 1.609823,-5.212157 1.6098231,5.2121571 0 0 1 1.609823,5.212157 z m -4.811695,0 a 1.6098231,5.2121571 0 0 1 -1.609823,5.2121574 1.6098231,5.2121571 0 0 1 -1.609827,-5.2121574 1.6098231,5.2121571 0 0 1 1.609827,-5.212157 1.6098231,5.2121571 0 0 1 1.609823,5.212157 z m -6.148338,0 a 1.6098231,5.2121571 0 0 1 -1.609822,5.2121574 1.6098231,5.2121571 0 0 1 -1.609828,-5.2121574 1.6098231,5.2121571 0 0 1 1.609828,-5.212157 1.6098231,5.2121571 0 0 1 1.609822,5.212157 z m -5.881013,0 a 1.6098231,5.2121571 0 0 1 -1.609823,5.2121574 1.6098231,5.2121571 0 0 1 -1.609822,-5.2121574 1.6098231,5.2121571 0 0 1 1.609822,-5.212157 1.6098231,5.2121571 0 0 1 1.609823,5.212157 z m -5.613716,0 a 1.6098231,5.2121571 0 0 1 -1.609823,5.2121574 1.6098231,5.2121571 0 0 1 -1.609823,-5.2121574 1.6098231,5.2121571 0 0 1 1.609823,-5.212157 1.6098231,5.2121571 0 0 1 1.609823,5.212157 z M 4.1488161,3.0071756 H 67.669474 V 15.246873 H 4.1488161 Z m 0.02646,12.4427934 H 67.637314 V 89.274622 H 4.1752751 Z" />
    <path
       style="fill:#000000;stroke:#000000;stroke-width:5.12832;stroke-linecap:round;stroke-linejoin:round;stroke-miterlimit:4;stroke-dasharray:none;stroke-opacity:0.955017;paint-order:stroke markers fill"
       d=""
       id="path1507"
       transform="scale(0.26458333)" />
    <path
       style="fill:#000000;stroke:#000000;stroke-width:5.12832;stroke-linecap:round;stroke-linejoin:round;stroke-miterlimit:4;stroke-dasharray:none;stroke-opacity:0.955017;paint-order:stroke markers fill"
       d=""
       id="path1622"
       transform="scale(0.26458333)" />
    <path
       style="fill:#000000;stroke:#000000;stroke-width:5.12832;stroke-linecap:round;stroke-linejoin:round;stroke-miterlimit:4;stroke-dasharray:none;stroke-opacity:0.955017;paint-order:stroke markers fill"
       d=""
       id="path1973"
       transform="scale(0.26458333)" />
    <g
       id="g2260">
      <path
         id="path1316"
         style="fill:none;stroke:#000000;stroke-width:1.367;stroke-linecap:round;stroke-linejoin:round;stroke-miterlimit:4;stroke-dasharray:none;stroke-opacity:0.955017;paint-order:stroke markers fill"
         d="m 197.62366,55.512105 a 26.706818,13.300157 0 0 1 -26.70682,13.300158 26.706818,13.300157 0 0 1 -26.70682,-13.300158 26.706818,13.300157 0 0 1 26.70682,-13.300158 26.706818,13.300157 0 0 1 26.70682,13.300158 z m 2.97335,-44.687843 a 1.6098231,5.2121571 0 0 1 -1.60982,5.212158 1.6098231,5.2121571 0 0 1 -1.60982,-5.212158 1.6098231,5.2121571 0 0 1 1.60982,-5.2121569 1.6098231,5.2121571 0 0 1 1.60982,5.2121569 z m -5.34631,0 a 1.6098231,5.2121571 0 0 1 -1.60982,5.212158 1.6098231,5.2121571 0 0 1 -1.60982,-5.212158 1.6098231,5.2121571 0 0 1 1.60982,-5.2121569 1.6098231,5.2121571 0 0 1 1.60982,5.2121569 z m -48.11733,0 a 1.6098231,5.2121571 0 0 1 -1.60982,5.212158 1.6098231,5.2121571 0 0 1 -1.60983,-5.212158 1.6098231,5.2121571 0 0 1 1.60983,-5.2121569 1.6098231,5.2121571 0 0 1 1.60982,5.2121569 z m 6.68299,0 a 1.6098231,5.2121571 0 0 1 -1.60983,5.212158 1.6098231,5.2121571 0 0 1 -1.60982,-5.212158 1.6098231,5.2121571 0 0 1 1.60982,-5.2121569 1.6098231,5.2121571 0 0 1 1.60983,5.2121569 z m 6.41566,0 a 1.6098231,5.2121571 0 0 1 -1.60982,5.212158 1.6098231,5.2121571 0 0 1 -1.60982,-5.212158 1.6098231,5.2121571 0 0 1 1.60982,-5.2121569 1.6098231,5.2121571 0 0 1 1.60982,5.2121569 z m 5.88103,0 a 1.6098231,5.2121571 0 0 1 -1.60982,5.212158 1.6098231,5.2121571 0 0 1 -1.60983,-5.212158 1.6098231,5.2121571 0 0 1 1.60983,-5.2121569 1.6098231,5.2121571 0 0 1 1.60982,5.2121569 z m 22.45476,0 a 1.6098231,5.2121571 0 0 1 -1.60982,5.212158 1.6098231,5.2121571 0 0 1 -1.60982,-5.212158 1.6098231,5.2121571 0 0 1 1.60982,-5.2121569 1.6098231,5.2121571 0 0 1 1.60982,5.2121569 z m -4.81169,0 a 1.6098231,5.2121571 0 0 1 -1.60983,5.212158 1.6098231,5.2121571 0 0 1 -1.60982,-5.212158 1.6098231,5.2121571 0 0 1 1.60982,-5.2121569 1.6098231,5.2121571 0 0 1 1.60983,5.2121569 z m -6.14834,0 a 1.6098231,5.2121571 0 0 1 -1.60982,5.212158 1.6098231,5.2121571 0 0 1 -1.60983,-5.212158 1.6098231,5.2121571 0 0 1 1.60983,-5.2121569 1.6098231,5.2121571 0 0 1 1.60982,5.2121569 z m -5.88101,0 a 1.6098231,5.2121571 0 0 1 -1.60983,5.212158 1.6098231,5.2121571 0 0 1 -1.60982,-5.212158 1.6098231,5.2121571 0 0 1 1.60982,-5.2121569 1.6098231,5.2121571 0 0 1 1.60983,5.2121569 z m -5.61372,0 a 1.6098231,5.2121571 0 0 1 -1.60982,5.212158 1.6098231,5.2121571 0 0 1 -1.60983,-5.212158 1.6098231,5.2121571 0 0 1 1.60983,-5.2121569 1.6098231,5.2121571 0 0 1 1.60982,5.2121569 z M 140.11448,5.1316391 h 63.52066 V 17.371337 h -63.52066 z m 0.0265,12.4427939 h 63.46204 v 73.824653 h -63.46204 z" />
      <path
         style="fill:#000000;stroke:#000000;stroke-width:8.29703;stroke-linecap:round;stroke-linejoin:round;stroke-miterlimit:4;stroke-dasharray:none;stroke-opacity:0.955017;paint-order:stroke markers fill"
         d="M 533.1567,205.55439 V 69.053428 H 649.584 766.01129 V 205.55439 342.05535 H 649.584 533.1567 Z m 138.90981,56.13618 c 36.50994,-5.2367 63.02696,-18.23765 73.13166,-35.85548 15.87421,-27.67711 -10.9879,-56.34755 -61.89041,-66.0568 -46.76093,-8.91928 -100.78648,0.36361 -126.46572,21.72986 -19.35594,16.10498 -19.57011,38.95431 -0.52227,55.72089 22.75192,20.02703 72.84923,30.61445 115.74674,24.46153 z"
         id="path1468"
         transform="scale(0.26458333)" />
      <path
         style="fill:#000000;stroke:#000000;stroke-width:5.12832;stroke-linecap:round;stroke-linejoin:round;stroke-miterlimit:4;stroke-dasharray:none;stroke-opacity:0.955017;paint-order:stroke markers fill"
         d="m 548.92017,54.096062 c -1.82928,-4.6234 -2.37779,-16.261345 -1.06428,-22.581384 2.27448,-10.943805 4.56089,-5.705123 4.44043,10.17403 -0.0435,5.732198 -0.55581,11.538839 -1.13851,12.903648 l -1.05946,2.481471 z"
         id="path1661"
         transform="scale(0.26458333)" />
      <path
         style="fill:#000000;stroke:#000000;stroke-width:5.12832;stroke-linecap:round;stroke-linejoin:round;stroke-miterlimit:4;stroke-dasharray:none;stroke-opacity:0.955017;paint-order:stroke markers fill"
         d="m 573.86565,53.103473 c -1.50034,-5.266278 -1.32048,-20.944251 0.29037,-25.311001 l 1.28154,-3.474059 1.28408,4.466647 c 1.731,6.021263 1.57562,20.419482 -0.26779,24.814708 l -1.45706,3.474059 z"
         id="path1700"
         transform="scale(0.26458333)" />
      <path
         style="fill:#000000;stroke:#000000;stroke-width:5.12832;stroke-linecap:round;stroke-linejoin:round;stroke-miterlimit:4;stroke-dasharray:none;stroke-opacity:0.955017;paint-order:stroke markers fill"
         d="m 598.05162,53.847915 c -2.29476,-5.764295 -1.12559,-28.040619 1.47171,-28.040619 1.60512,0 3.22822,11.362957 2.69387,18.859177 -0.54827,7.691481 -1.34445,10.918471 -2.69387,10.918471 -0.42911,0 -1.09138,-0.781663 -1.47171,-1.737029 z"
         id="path1739"
         transform="scale(0.26458333)" />
      <path
         style="fill:#000000;stroke:#000000;stroke-width:5.12832;stroke-linecap:round;stroke-linejoin:round;stroke-miterlimit:4;stroke-dasharray:none;stroke-opacity:0.955017;paint-order:stroke markers fill"
         d="m 620.30634,53.003375 c -1.69519,-5.025126 -1.6787,-19.637727 0.0279,-24.698918 l 1.33346,-3.954662 1.4047,3.954662 c 1.64108,4.620141 1.37331,23.645126 -0.37558,26.684094 -0.97479,1.693863 -1.21727,1.492495 -2.39044,-1.985176 z"
         id="path1817"
         transform="scale(0.26458333)" />
      <path
         style="fill:#000000;stroke:#000000;stroke-width:5.12832;stroke-linecap:round;stroke-linejoin:round;stroke-miterlimit:4;stroke-dasharray:none;stroke-opacity:0.955017;paint-order:stroke markers fill"
         d="m 641.3461,52.232094 c -2.20306,-8.74914 -0.69485,-28.375205 1.97536,-25.704996 2.03202,2.032017 3.21771,14.094 2.0971,21.333726 -1.37368,8.874745 -2.60553,10.19698 -4.07246,4.37127 z"
         id="path1856"
         transform="scale(0.26458333)" />
      <path
         style="fill:#000000;stroke:#000000;stroke-width:5.12832;stroke-linecap:round;stroke-linejoin:round;stroke-miterlimit:4;stroke-dasharray:none;stroke-opacity:0.955017;paint-order:stroke markers fill"
         d="m 664.04977,54.096062 c -2.31132,-5.452307 -1.56609,-28.288766 0.92316,-28.288766 1.55517,0 2.27749,3.4185 2.72654,12.903647 0.3092,6.53127 0.0109,10.802477 -0.97048,13.896236 l -1.41689,4.466648 z"
         id="path1895"
         transform="scale(0.26458333)" />
      <path
         style="fill:#000000;stroke:#000000;stroke-width:5.12832;stroke-linecap:round;stroke-linejoin:round;stroke-miterlimit:4;stroke-dasharray:none;stroke-opacity:0.955017;paint-order:stroke markers fill"
         d="m 687.02072,53.103473 c -1.50034,-5.266278 -1.32049,-20.944251 0.29036,-25.311001 l 1.28155,-3.474059 1.28408,4.466647 c 1.731,6.021263 1.57562,20.419482 -0.26779,24.814708 l -1.45707,3.474059 z"
         id="path1934"
         transform="scale(0.26458333)" />
      <path
         style="fill:#000000;stroke:#000000;stroke-width:5.12832;stroke-linecap:round;stroke-linejoin:round;stroke-miterlimit:4;stroke-dasharray:none;stroke-opacity:0.955017;paint-order:stroke markers fill"
         d="m 704.68765,50.883521 c -1.77009,-8.517159 -0.41032,-25.076225 2.05916,-25.076225 1.14278,0 2.95382,9.128575 2.95382,14.888824 0,5.600998 -1.75062,14.626701 -2.98495,15.38956 -0.46151,0.285227 -1.37412,-2.055743 -2.02803,-5.202159 z"
         id="path2012"
         transform="scale(0.26458333)" />
      <path
         style="fill:#000000;stroke:#000000;stroke-width:5.12832;stroke-linecap:round;stroke-linejoin:round;stroke-miterlimit:4;stroke-dasharray:none;stroke-opacity:0.955017;paint-order:stroke markers fill"
         d="m 750.45595,52.880736 c -2.22272,-8.003965 -0.56636,-28.970222 2.07965,-26.324212 2.09463,2.094634 3.14628,14.323928 1.87713,21.828635 -0.66902,3.95601 -1.59882,7.429095 -2.06622,7.717968 -0.46741,0.288873 -1.31816,-1.161203 -1.89056,-3.222391 z"
         id="path2090"
         transform="scale(0.26458333)" />
      <path
         style="fill:#000000;stroke:#000000;stroke-width:5.12832;stroke-linecap:round;stroke-linejoin:round;stroke-miterlimit:4;stroke-dasharray:none;stroke-opacity:0.955017;paint-order:stroke markers fill"
         d="m 731.26477,55.946568 c -0.30113,-0.487242 -1.06259,-3.72637 -1.69213,-7.198063 -1.24221,-6.850385 -0.59696,-16.653957 1.41195,-21.452327 l 1.24668,-2.977765 1.26988,5.572855 c 2.04731,8.984627 0.2384,30.059584 -2.23638,26.0553 z"
         id="path2129"
         transform="scale(0.26458333)" />
    </g>
    <path
       id="path2262"
       style="fill:none;stroke:#000000;stroke-width:1.367;stroke-linecap:round;stroke-linejoin:round;stroke-miterlimit:4;stroke-dasharray:none;stroke-opacity:0.955017;paint-order:stroke markers fill"
       d="M 61.657994,255.86945 A 26.706818,13.300157 0 0 1 34.951173,269.16961 26.706818,13.300157 0 0 1 8.2443541,255.86945 26.706818,13.300157 0 0 1 34.951173,242.56929 26.706818,13.300157 0 0 1 61.657994,255.86945 Z m 2.97335,-44.68784 a 1.6098231,5.2121571 0 0 1 -1.60982,5.21215 1.6098231,5.2121571 0 0 1 -1.60982,-5.21215 1.6098231,5.2121571 0 0 1 1.60982,-5.21216 1.6098231,5.2121571 0 0 1 1.60982,5.21216 z m -5.346306,0 a 1.6098231,5.2121571 0 0 1 -1.609828,5.21215 1.6098231,5.2121571 0 0 1 -1.609817,-5.21215 1.6098231,5.2121571 0 0 1 1.609817,-5.21216 1.6098231,5.2121571 0 0 1 1.609828,5.21216 z m -48.117332,0 a 1.6098231,5.2121571 0 0 1 -1.6098239,5.21215 1.6098231,5.2121571 0 0 1 -1.609823,-5.21215 1.6098231,5.2121571 0 0 1 1.609823,-5.21216 1.6098231,5.2121571 0 0 1 1.6098239,5.21216 z m 6.682985,0 a 1.6098231,5.2121571 0 0 1 -1.609823,5.21215 1.6098231,5.2121571 0 0 1 -1.609824,-5.21215 1.6098231,5.2121571 0 0 1 1.609824,-5.21216 1.6098231,5.2121571 0 0 1 1.609823,5.21216 z m 6.415666,0 a 1.6098231,5.2121571 0 0 1 -1.609823,5.21215 1.6098231,5.2121571 0 0 1 -1.609823,-5.21215 1.6098231,5.2121571 0 0 1 1.609823,-5.21216 1.6098231,5.2121571 0 0 1 1.609823,5.21216 z m 5.881027,0 a 1.6098231,5.2121571 0 0 1 -1.609823,5.21215 1.6098231,5.2121571 0 0 1 -1.609823,-5.21215 1.6098231,5.2121571 0 0 1 1.609823,-5.21216 1.6098231,5.2121571 0 0 1 1.609823,5.21216 z m 22.454762,0 a 1.6098231,5.2121571 0 0 1 -1.609823,5.21215 1.6098231,5.2121571 0 0 1 -1.609823,-5.21215 1.6098231,5.2121571 0 0 1 1.609823,-5.21216 1.6098231,5.2121571 0 0 1 1.609823,5.21216 z m -4.811695,0 a 1.6098231,5.2121571 0 0 1 -1.609823,5.21215 1.6098231,5.2121571 0 0 1 -1.609827,-5.21215 1.6098231,5.2121571 0 0 1 1.609827,-5.21216 1.6098231,5.2121571 0 0 1 1.609823,5.21216 z m -6.148338,0 a 1.6098231,5.2121571 0 0 1 -1.609822,5.21215 1.6098231,5.2121571 0 0 1 -1.609828,-5.21215 1.6098231,5.2121571 0 0 1 1.609828,-5.21216 1.6098231,5.2121571 0 0 1 1.609822,5.21216 z m -5.881013,0 a 1.6098231,5.2121571 0 0 1 -1.609823,5.21215 1.6098231,5.2121571 0 0 1 -1.609822,-5.21215 1.6098231,5.2121571 0 0 1 1.609822,-5.21216 1.6098231,5.2121571 0 0 1 1.609823,5.21216 z m -5.613716,0 a 1.6098231,5.2121571 0 0 1 -1.609823,5.21215 1.6098231,5.2121571 0 0 1 -1.609823,-5.21215 1.6098231,5.2121571 0 0 1 1.609823,-5.21216 1.6098231,5.2121571 0 0 1 1.609823,5.21216 z M 4.1488161,205.48898 H 67.669474 v 12.2397 H 4.1488161 Z m 0.02646,12.4428 H 67.637314 v 73.82465 H 4.1752751 Z" />
    <path
       style="fill:#ffffff;stroke:#000000;stroke-width:5.12832;stroke-linecap:round;stroke-linejoin:round;stroke-miterlimit:4;stroke-dasharray:none;stroke-opacity:0.955017;paint-order:stroke markers fill"
       d="M 18.859177,963.30693 V 826.82604 H 135.4883 252.11743 V 963.30693 1099.7878 H 135.4883 18.859177 Z m 133.149813,56.03017 c 40.60487,-4.1227 71.42876,-19.1862 81.13957,-39.65246 3.75532,-7.91464 3.6072,-18.07391 -0.3806,-26.10556 -4.11321,-8.28419 -14.6511,-17.95068 -25.83616,-23.69969 -20.73482,-10.6575 -44.70629,-15.68952 -74.79017,-15.69972 -39.891087,-0.0135 -72.278353,9.63437 -91.124587,27.14528 -14.208002,13.20132 -16.729716,29.0217 -6.945841,43.57584 14.082177,20.94821 51.858656,34.84321 96.100848,35.34811 6.35675,0.072 16.18338,-0.3378 21.83694,-0.9118 z"
       id="path2319"
       transform="scale(0.26458333)" />
    <path
       style="fill:#ffffff;stroke:#000000;stroke-width:5.12832;stroke-linecap:round;stroke-linejoin:round;stroke-miterlimit:4;stroke-dasharray:none;stroke-opacity:0.955017;paint-order:stroke markers fill"
       d="m 112.65877,1013.3298 c -29.131421,-3.1712 -55.481794,-13.2371 -68.357506,-26.11282 -26.851044,-26.85104 4.643573,-58.43777 65.849996,-66.04259 10.78499,-1.34002 32.9166,-1.34195 43.72596,-0.004 44.22857,5.47521 75.61982,24.34334 75.76993,45.54254 0.12228,17.26818 -19.65636,33.28877 -51.51544,41.72707 -18.11397,4.7978 -46.70271,6.9328 -65.47294,4.8896 z"
       id="path2358"
       transform="scale(0.26458333)" />
    <path
       style="fill:#ffffff;stroke:#000000;stroke-width:5.12832;stroke-linecap:round;stroke-linejoin:round;stroke-miterlimit:4;stroke-dasharray:none;stroke-opacity:0.955017;paint-order:stroke markers fill"
       d="M 18.859177,963.30693 V 826.82604 H 135.4883 252.11743 V 963.30693 1099.7878 H 135.4883 18.859177 Z M 159.67933,1018.83 c 37.76702,-5.5518 63.3518,-18.92905 73.91866,-38.64906 3.20784,-5.98652 3.03686,-19.92896 -0.32865,-26.79989 -2.9511,-6.02486 -13.57047,-16.6656 -21.12992,-21.17242 -13.98114,-8.33534 -34.29549,-14.71115 -54.31906,-17.04843 -13.78546,-1.60913 -50.07491,-0.82698 -61.552643,1.32665 -35.818731,6.72087 -62.014061,23.31783 -67.450748,42.73576 -5.640265,20.14505 11.774683,40.86299 43.760588,52.06029 9.142856,3.2006 24.092515,6.6621 34.621983,8.0163 11.43637,1.4709 41.08495,1.2058 52.47979,-0.4692 z"
       id="path2397"
       transform="scale(0.26458333)" />
    <path
       style="fill:#ffffff;stroke:#000000;stroke-width:3.3948;stroke-linecap:round;stroke-linejoin:round;stroke-opacity:0.955017;paint-order:stroke markers fill"
       d="m 236.90207,811.72498 c -2.35827,-6.64953 -2.01321,-23.45236 0.58341,-28.4092 l 0.81141,-1.54895 0.75032,1.87748 c 2.29154,5.73399 2.85179,18.73951 1.09742,25.47501 -1.55847,5.98337 -1.93682,6.28741 -3.24256,2.60566 z"
       id="path879"
       transform="scale(0.26458333)" />
    <path
       style="fill:#ffffff;stroke:#000000;stroke-width:3.3948;stroke-linecap:round;stroke-linejoin:round;stroke-opacity:0.955017;paint-order:stroke markers fill"
       d="m 222.63776,818.19742 c 2.94991,-4.14276 3.72171,-8.33811 3.71456,-20.19139 -0.006,-9.6639 -0.19143,-11.67956 -1.37642,-14.94824 l -1.36967,-3.77812 h 4.42857 4.42858 l -1.3136,4.10666 c -1.66507,5.20546 -2.28504,17.34947 -1.23087,24.1107 0.81702,5.24023 2.43235,9.54864 4.26839,11.38468 1.07664,1.07665 0.77064,1.13602 -5.85485,1.13602 h -6.99087 z"
       id="path918"
       transform="scale(0.26458333)" />
    <path
       style="fill:#ffffff;stroke:#000000;stroke-width:3.3948;stroke-linecap:round;stroke-linejoin:round;stroke-opacity:0.955017;paint-order:stroke markers fill"
       d="m 216.9648,812.49139 c -1.40712,-3.08828 -2.27546,-11.05728 -1.90059,-17.44215 0.38821,-6.61209 2.11959,-13.70901 3.10426,-12.72434 0.31921,0.3192 1.07299,2.49964 1.67508,4.84542 1.92279,7.49133 1.18625,22.56444 -1.2665,25.91878 -0.75528,1.03292 -0.89246,0.98206 -1.61225,-0.59771 z"
       id="path996"
       transform="scale(0.26458333)" />
    <path
       style="fill:#ffffff;stroke:#000000;stroke-width:3.3948;stroke-linecap:round;stroke-linejoin:round;stroke-opacity:0.955017;paint-order:stroke markers fill"
       d="m 155.58778,818.52062 c 4.63022,-4.92865 6.1508,-23.9731 2.77416,-34.74503 -0.71848,-2.29206 -1.31015,-4.24131 -1.31481,-4.33166 -0.005,-0.0903 2.68427,-0.16426 5.97541,-0.16426 5.44802,0 5.9399,0.10297 5.49268,1.14986 -1.92524,4.50676 -2.47865,8.35314 -2.52889,17.5765 -0.0597,10.96092 1.07029,16.59924 4.03219,20.11925 l 1.59239,1.89245 h -8.7148 -8.71479 z"
       id="path1035"
       transform="scale(0.26458333)" />
    <path
       style="fill:#ffffff;stroke:#000000;stroke-width:3.3948;stroke-linecap:round;stroke-linejoin:round;stroke-opacity:0.955017;paint-order:stroke markers fill"
       d="m 173.54079,812.66006 c -1.56159,-4.10729 -2.21248,-10.08783 -1.86582,-17.1436 0.35758,-7.27789 2.03404,-14.28579 3.15003,-13.16768 1.35963,1.36221 2.5821,8.7904 2.57242,15.63104 -0.0148,10.4405 -2.24334,18.92352 -3.85663,14.68024 z"
       id="path1074"
       transform="scale(0.26458333)" />
    <path
       style="fill:#ffffff;stroke:#000000;stroke-width:3.3948;stroke-linecap:round;stroke-linejoin:round;stroke-opacity:0.955017;paint-order:stroke markers fill"
       d="m 192.03993,813.06454 c -2.36285,-4.61967 -2.99818,-19.17492 -1.14487,-26.22862 0.56971,-2.16832 1.29389,-4.20092 1.6093,-4.51689 1.02376,-1.0256 2.7666,6.29181 3.11951,13.09745 0.35715,6.88734 -0.5584,14.5211 -2.0772,17.31953 -0.82118,1.51306 -0.89289,1.52869 -1.50674,0.32853 z"
       id="path1113"
       transform="scale(0.26458333)" />
  </g>
</svg>
