<?xml version="1.0" encoding="UTF-8" standalone="no"?>
<!-- Created with Inkscape (http://www.inkscape.org/) -->

<svg
   width="210mm"
   height="297mm"
   viewBox="0 0 210 297"
   version="1.1"
   id="svg5"
   inkscape:version="1.1.1 (3bf5ae0d25, 2021-09-20)"
   sodipodi:docname="shotgun mic track icon icon svg.svg"
   xmlns:inkscape="http://www.inkscape.org/namespaces/inkscape"
   xmlns:sodipodi="http://sodipodi.sourceforge.net/DTD/sodipodi-0.dtd"
   xmlns="http://www.w3.org/2000/svg"
   xmlns:svg="http://www.w3.org/2000/svg">
  <sodipodi:namedview
     id="namedview7"
     pagecolor="#ffffff"
     bordercolor="#666666"
     borderopacity="1.0"
     inkscape:pageshadow="2"
     inkscape:pageopacity="0.0"
     inkscape:pagecheckerboard="0"
     inkscape:document-units="mm"
     showgrid="false"
     inkscape:zoom="0.93303299"
     inkscape:cx="652.71004"
     inkscape:cy="965.132"
     inkscape:window-width="1680"
     inkscape:window-height="956"
     inkscape:window-x="-11"
     inkscape:window-y="-11"
     inkscape:window-maximized="1"
     inkscape:current-layer="layer1" />
  <defs
     id="defs2">
    <inkscape:path-effect
       effect="spiro"
       id="path-effect2617"
       is_visible="true"
       lpeversion="1" />
    <inkscape:path-effect
       effect="spiro"
       id="path-effect2420"
       is_visible="true"
       lpeversion="1" />
    <inkscape:path-effect
       effect="spiro"
       id="path-effect2416"
       is_visible="true"
       lpeversion="1" />
    <inkscape:path-effect
       effect="spiro"
       id="path-effect2299"
       is_visible="true"
       lpeversion="1" />
    <inkscape:path-effect
       effect="spiro"
       id="path-effect2182"
       is_visible="true"
       lpeversion="1" />
    <inkscape:path-effect
       effect="spiro"
       id="path-effect2065"
       is_visible="true"
       lpeversion="1" />
    <inkscape:path-effect
       effect="spiro"
       id="path-effect1940"
       is_visible="true"
       lpeversion="1" />
    <inkscape:path-effect
       effect="spiro"
       id="path-effect1934"
       is_visible="true"
       lpeversion="1" />
    <inkscape:path-effect
       effect="spiro"
       id="path-effect1245"
       is_visible="true"
       lpeversion="1" />
    <inkscape:path-effect
       effect="skeletal"
       id="path-effect3161"
       is_visible="true"
       lpeversion="1"
       pattern="m 182.71133,36.816874 0.27078,28.580167 24.64656,-14.536578 z m -38.1894,6.580476 v 17.728634 h 31.32522 V 43.39735 Z"
       copytype="repeated"
       prop_scale="1"
       scale_y_rel="false"
       spacing="5.8"
       normal_offset="0"
       tang_offset="1.5"
       prop_units="false"
       vertical_pattern="false"
       hide_knot="false"
       fuse_tolerance="0" />
    <inkscape:path-effect
       effect="skeletal"
       id="path-effect2910"
       is_visible="true"
       lpeversion="1"
       pattern="m 182.71133,36.816874 0.27078,28.580167 24.64656,-14.536578 z m -38.1894,6.580476 v 17.728634 h 31.32522 V 43.39735 Z"
       copytype="repeated"
       prop_scale="1"
       scale_y_rel="false"
       spacing="4.6"
       normal_offset="0.3"
       tang_offset="0"
       prop_units="false"
       vertical_pattern="false"
       hide_knot="false"
       fuse_tolerance="0" />
    <clipPath
       clipPathUnits="userSpaceOnUse"
       id="clipPath3088">
      <path
         id="path3090"
         style="fill:none;stroke:#000000;stroke-width:1.865;stroke-linecap:round;stroke-linejoin:round;stroke-miterlimit:4;stroke-dasharray:none;stroke-opacity:0.955017;paint-order:stroke markers fill"
         d="M -39.799122,76.740536 V 269.29882 H 143.47703 V 76.740536 Z M 7.8961589,147.05459 c 0.043162,0.002 0.083435,0.0209 0.1193725,0.0615 0.1308246,0.14784 0.2479895,0.31468 0.3482991,0.49403 0.1021617,-0.0251 0.213478,-0.0609 0.2604493,-0.0233 0.1330888,-0.0366 0.3607146,0.0586 0.7317382,0.3452 0.2545641,-0.0974 0.2550629,0.31642 0.1477947,0.73019 0.1713248,0.54662 0.1272355,0.66576 -0.040824,0.56689 0.097958,0.16938 0.1961721,0.33894 0.3074747,0.49558 -0.010049,0.0557 -0.00497,0.15893 -0.00723,0.23874 0,0 0,5.3e-4 0,5.3e-4 0.1098759,0.40466 0.089365,0.88922 0.1245402,1.17564 -0.1631177,0.20484 -0.3040502,0.43152 -0.4619874,0.64131 0.017113,0.0199 0.037609,0.0364 0.053227,0.0579 0.1839635,0.25305 0.212943,0.53042 0.1565796,0.80254 0.032581,0.0401 0.067073,0.0838 0.1038696,0.13229 0.2489362,-0.14787 0.4581646,-0.2743 0.6480226,-0.38861 -0.07389,-0.74298 0.70784,-1.42281 2.088244,-1.05678 0.03466,-0.0141 0.06724,-0.0278 0.103353,-0.0424 0.338796,-0.13642 0.683564,-0.27996 1.045931,-0.32556 0.307768,-0.0387 0.846272,-0.22181 0.927592,0.0775 0.66413,2.44463 0.2119,2.30445 -1.066602,2.69079 -0.215209,0.0595 -0.422359,0.0888 -0.626835,0.0951 -0.19035,0.088 -0.379063,0.17999 -0.564823,0.27699 -0.436058,0.22769 -0.84678,0.50046 -1.270207,0.75086 -0.310275,0.19366 -0.612562,0.4009 -0.930692,0.58136 -0.1843492,0.10457 -1.1347081,0.45658 -1.210262,0.41858 -1.0033228,-0.50476 -1.2762929,-0.67 -1.3327354,-0.99064 -0.202896,0.0503 -0.4050284,0.10431 -0.6123657,0.12712 -0.2528051,0.0278 -0.9244078,-0.0395 -1.1870076,-0.0749 -0.078841,-0.0106 -0.2978608,-0.002 -0.2335773,-0.0486 1.4217621,-1.03654 2.3538685,-0.56312 -1.0805544,-0.80409 -0.1277456,-0.42732 -0.081396,-0.85067 0.05116,-1.25625 -0.2662859,0.0155 -0.5280517,0.0326 -0.8903851,0.0553 -0.3311014,-0.0136 -0.6903172,0.0936 -0.9932209,-0.0408 -0.01705,-0.008 -0.032956,-0.0156 -0.049609,-0.0233 -0.2951069,0.16455 -0.5896283,0.33064 -0.8810832,0.50178 -0.077771,0.0457 -0.1506826,0.0867 -0.2216919,0.12557 -0.078269,0.29385 -0.133505,0.52335 -0.135909,0.52762 -0.2418338,0.42876 -1.44269184,1.31257 -2.00349524,0.89193 -0.55557176,-0.41671 -0.62773796,-1.23874 -0.94154456,-1.85828 0.6098446,-0.81123 0.64080176,-0.94434 1.00045568,-1.17719 0.22548059,-0.69968 0.61013579,-0.87822 1.34875487,-1.63453 0.30374015,-0.15729 0.51767725,-0.27817 0.71881915,-0.38085 -0.044867,-0.17918 0.012136,-0.46959 0.2046387,-0.93948 -0.4831577,-1.17961 -0.1124883,-1.22721 0.587561,-1.22318 0.057281,-0.10744 0.1589893,-0.14142 0.2826701,-0.13901 0.061988,-0.0551 0.1290485,-0.11176 0.2015381,-0.17053 0.4763731,-0.38626 1.992887,-0.0854 2.5099243,-0.14728 0.3726238,0.005 0.7451376,0.0105 1.1177612,0.0155 0.333956,-0.004 0.6680319,-0.0144 1.0020061,-0.0124 0.1095383,5.2e-4 0.250108,-0.051 0.3560506,-0.0383 0.067031,-0.053 0.1337866,-0.0847 0.1948201,-0.0822 z m 1.5668294,2.17454 c -0.022789,-0.0394 -0.0458,-0.0786 -0.06873,-0.11782 -0.00337,0.0212 -0.00697,0.0424 -0.010335,0.0636 0.02871,0.0223 0.055114,0.0402 0.079065,0.0543 z m -0.06873,-0.11782 c 0.010668,-0.0672 0.02137,-0.13437 0.032039,-0.20154 -0.019444,0.0526 -0.040104,0.10324 -0.062012,0.1509 0.00999,0.0169 0.020058,0.0337 0.029972,0.0506 z m -0.029972,-0.0506 c -0.1698514,-0.28767 -0.3513466,-0.5643 -0.6102985,-0.76688 -0.00407,-0.003 -0.012909,-0.006 -0.024805,-0.008 0.00478,0.0437 0.00813,0.0875 0.012401,0.13126 0.1112406,0.15101 0.2031989,0.28935 0.2785361,0.41754 0.1151374,0.11552 0.2223575,0.22095 0.3100586,0.29559 0.011599,-0.0224 0.023006,-0.0456 0.034106,-0.0698 z m -0.6351032,-0.77463 c -0.024281,-0.22174 -0.054941,-0.44186 -0.082682,-0.65578 -0.00257,-0.0198 -0.01052,-0.034 -0.02222,-0.0434 -0.088665,0.0243 -0.1353368,0.10727 -0.1545125,0.231 0.068925,0.14863 0.1269302,0.30348 0.1715657,0.46147 0.037083,0.001 0.068415,0.003 0.08785,0.007 z m -8.28786636,5.59087 c -0.24984035,0.0934 -0.2275868,0.10672 0.0454753,0.33073 -0.0186492,-0.11349 -0.0326572,-0.2237 -0.0454753,-0.33073 z M 21.833809,163.2598 v 5.3e-4 c 0.08711,-0.001 0.164451,0.0294 0.225826,0.10335 0.140186,0.16878 0.260103,0.31773 0.37052,0.45734 0.39202,-0.30773 0.829232,-0.45073 1.262455,-0.14676 0.582035,0.40836 0.441033,1.36455 0.504362,2.07274 0.01206,0.13483 -0.164642,0.31988 -0.294038,0.28008 -0.0086,-0.003 -0.01563,-0.006 -0.02222,-0.0103 0.0043,0.0615 0.0063,0.12189 0.0047,0.1788 -0.0061,0.18413 -0.04445,0.35857 -0.101802,0.52658 0.928484,-4e-5 1.855978,-0.0423 2.779674,-0.16123 0.565512,0.29273 1.450009,0.29087 1.696537,0.87798 0.738447,1.75867 -1.950587,2.1846 -2.783292,2.43965 -1.994843,0.61102 -1.160504,0.31818 -2.727482,0.91984 v -5.3e-4 c -1.254041,0.48151 -2.170456,0.11504 -2.367297,-0.49093 -0.0081,-5.2e-4 -0.01619,-5.2e-4 -0.02429,-0.001 -0.303024,0.0991 -0.631664,0.17897 -1.07952,0.26406 -0.208031,0.0397 -0.479755,0.1811 -0.634587,0.0367 -0.315992,-0.2948 -0.537854,-0.66981 -0.754993,-1.04903 -0.291068,0.0225 -0.582101,0.0434 -0.873848,0.0512 -0.09317,0.002 -0.186331,0.003 -0.27957,0.003 -0.07991,0.0388 -0.187866,0.0791 -0.343131,0.12299 -0.348653,0.0985 -0.723462,0.0403 -1.085205,0.0605 -0.687656,-0.33507 -1.321797,-0.48152 -1.078487,-1.72651 0.07693,-0.39363 0.491452,-0.64754 0.861962,-0.84181 -0.06703,-0.20394 -0.08886,-0.37809 -0.09043,-0.53847 -0.228521,0.002 -0.457219,0.003 -0.685747,0.006 -0.404958,0.005 -0.810041,0.0122 -1.214913,0.0222 -0.221379,0.005 -0.579532,0.22838 -0.664042,0.0238 -0.0021,-0.005 -0.0041,-0.0103 -0.0062,-0.0155 -0.03935,0.003 -0.07904,0.007 -0.118339,0.0108 0.0059,-0.11547 0.0076,-0.2319 0.0078,-0.34829 -0.173261,-0.66825 -0.122259,-1.39712 -0.216524,-2.0867 0.112007,-0.01 0.230126,-0.02 0.343648,-0.03 0.04873,-0.0923 0.194379,-0.0622 0.340548,-0.0305 1.502055,-0.13355 3.099353,-0.27393 4.557861,-0.16123 0.535546,0.0414 0.900177,0.0923 1.223698,0.16433 0.03703,1.5e-4 0.07407,2.4e-4 0.111104,5.3e-4 0.521634,0.002 1.04318,0.006 1.564763,0.007 0.12328,-0.049 0.244121,-0.10419 0.363802,-0.16123 0.06367,-0.0303 0.125294,-0.0653 0.186035,-0.10129 0.0081,-0.13418 0.01674,-0.23358 0.02739,-0.23719 0.0089,-0.003 0.01895,0.07 0.02946,0.18655 0.271264,-0.29022 0.681304,-0.67429 0.983919,-0.678 z m 1.943551,2.11356 c -0.0042,-0.004 0.04295,0.1835 0.07648,0.40825 0.0071,-0.0491 0.01295,-0.0976 0.0088,-0.13746 -0.05954,-0.19011 -0.08261,-0.26798 -0.08527,-0.27079 z m -8.544181,2.20917 c -8.47e-4,2.7e-4 -0.0017,8e-4 -0.0026,0.001 -0.04348,0.0178 -0.100425,0.15724 -0.06666,0.12454 0.02949,-0.0286 0.05788,-0.0588 0.08578,-0.0889 -3.44e-4,-8e-4 -7.94e-4,-0.001 -10e-4,-0.002 -0.0057,-0.0118 -0.01004,-0.023 -0.0155,-0.0346 z m 19.198828,7.38612 c 0.03087,-8e-4 0.05436,0.012 0.06615,0.0465 0.07857,0.22989 0.148939,0.4657 0.209288,0.70435 0.250047,-0.0874 0.414756,-0.0587 0.843878,-0.0134 0.184007,0.0372 0.340873,0.0857 0.47439,0.14418 h 5.29e-4 c 0.04715,-0.024 0.09393,-0.0483 0.140044,-0.0739 0.412062,-0.10212 0.816025,-0.24514 1.236099,-0.30644 0.189786,-0.0277 0.39034,-0.0433 0.593762,-0.0429 v 5.3e-4 c 0.610267,0.001 1.248153,0.14492 1.708941,0.52451 0.211836,0.17458 0.474223,0.39582 0.478523,0.67025 0.0027,0.17258 -0.02043,0.34201 -0.05736,0.51005 0.10246,0.32046 0.1186,0.6739 0.05943,1.0051 0.311338,0.0178 0.621882,0.0457 0.930177,0.10026 1.242066,0.61337 1.387989,0.75526 0.489376,2.54609 -0.08976,0.17898 -0.374517,0.14657 -0.570507,0.18707 -0.372933,0.0771 -0.756709,0.0876 -1.136883,0.12144 0.448873,0.41771 1.107559,0.75617 1.117761,1.33945 0.0082,0.47027 -0.327864,0.75373 -0.771012,0.93121 -0.09756,0.15342 -0.200615,0.30182 -0.33693,0.41962 -0.984335,0.85062 -2.307183,0.80496 -3.501594,0.62528 -0.120375,-0.0181 -0.234035,-0.0413 -0.341067,-0.0687 -0.07817,0.0393 -0.152844,0.0811 -0.222723,0.12506 -0.0049,0.1781 -0.0031,0.35666 0.0098,0.53485 0.625168,0.37262 0.28983,1.90164 -0.111623,2.06344 -1.829697,0.73743 -1.963274,-0.54986 -2.261359,-1.4671 -0.0067,-0.0562 -0.01876,-0.18685 -0.03049,-0.35863 -0.105185,-0.32961 -0.105624,-0.4625 -0.03152,-0.75861 -0.0035,-0.24855 0.0013,-0.51545 0.01654,-0.7798 -0.01654,-0.005 -0.03307,-0.0104 -0.04961,-0.0155 -0.07655,0.046 -0.144238,0.0622 -0.183967,-0.002 -0.02212,-0.0363 -0.04226,-0.0716 -0.06305,-0.10748 -0.577424,0.18367 -1.021504,0.28073 -1.452108,0.33899 -0.837205,0.23163 -1.72544,0.32872 -2.568318,0.36949 -0.367797,0.0178 -0.73587,-0.0286 -1.10381,-0.0429 -0.740831,-0.21048 -1.651802,-0.29076 -1.446424,-1.64331 0.0436,-0.28714 0.268078,-0.49033 0.530717,-0.66405 -0.142351,0.0255 -0.281355,0.0471 -0.30489,-0.0636 -0.169556,-0.79718 -0.222975,-1.66088 -0.0021,-2.44533 0.01154,-0.041 0.03723,-0.0642 0.06821,-0.0811 -1.312725,-0.71026 -1.199812,-2.14496 0.366903,-2.17299 0.157546,-0.003 0.329782,0.009 0.516763,0.0367 1.12636,0.1674 0.630158,0.0564 1.496549,0.29146 0.384752,0.10436 0.686673,0.25797 0.913122,0.43821 -0.0098,-0.0608 -0.02027,-0.12144 -0.03152,-0.1819 -0.105222,0.0206 -0.119261,-0.008 0.03101,-0.12609 -0.01143,0.0318 -0.02339,0.0634 -0.03669,0.0941 0.0021,0.0105 0.0037,0.021 0.0057,0.0315 0.117377,-0.023 0.344985,-0.10547 0.579811,-0.1912 0.134286,-0.31684 0.07284,-0.40014 -0.509014,0.0341 -0.01492,0.0111 -0.0267,0.0206 -0.03927,0.0305 0.08058,-0.22538 0.125368,-0.47425 0.285772,-0.64751 0.478633,-0.51696 0.644707,-0.41844 1.064019,-0.61908 0.229169,-0.10967 0.456761,-0.22171 0.683678,-0.33435 0.439121,-0.49926 0.358304,-0.5173 1.094507,-0.70487 0.01085,-0.003 0.02212,-0.005 0.03307,-0.007 -0.03489,0.0182 -0.06266,0.0897 -0.08527,0.19896 0.06811,-0.0327 0.136247,-0.0655 0.204639,-0.0977 -0.03742,-0.0699 -0.06957,-0.103 -0.09767,-0.10542 0.09879,-0.0173 0.200377,-0.0179 0.299206,-0.0362 0.111353,-0.0205 0.267732,-0.1626 0.343133,-0.10594 0.03261,-0.0142 0.06546,-0.0283 0.09818,-0.0424 0.105844,-0.0272 0.264459,-0.15233 0.357085,-0.15503 z m 6.111256,7.97419 c -0.0091,-8e-4 -0.02016,0.001 -0.02376,0.005 -0.01299,0.0167 -0.02574,0.0335 -0.03824,0.0506 0.02445,-0.0163 0.04913,-0.032 0.07338,-0.0486 0.0048,-0.003 -0.0024,-0.006 -0.01138,-0.007 z m -4.935617,1.79834 c -0.02564,0.0654 -0.04864,0.133 -0.08113,0.19223 0.07281,0.0108 0.150482,0.005 0.221692,0.0212 -0.02732,-0.0762 -0.07044,-0.1547 -0.14056,-0.21343 z m 13.740763,3.82043 c 0.714364,0.25957 1.098647,1.0375 1.607653,1.61593 0.06149,-0.0801 0.123195,-0.16004 0.184486,-0.2403 0.0928,-0.12152 0.02074,0.0926 -0.107487,0.32401 0.0132,0.0141 0.02588,0.0286 0.03928,0.0424 0.0065,0.006 -0.02249,0.006 -0.02739,-0.002 -0.0052,-0.008 -0.01005,-0.0215 -0.01394,-0.0362 -0.02156,0.0388 -0.04504,0.0771 -0.06925,0.11524 0.0048,-0.0562 0.0123,-0.11176 0.02894,-0.16485 -0.01154,-0.0128 -0.0232,-0.0255 -0.03462,-0.0382 -0.129085,0.16817 -0.258112,0.33647 -0.387572,0.50436 0.113355,0.0667 0.267538,-0.10285 0.393258,-0.30076 -0.005,0.0586 -0.0075,0.11798 -0.01603,0.1757 -0.02757,0.31303 -0.02082,0.63087 -0.08268,0.93896 -0.02821,0.1405 -0.102439,0.27076 -0.183968,0.38861 -0.170373,0.24626 -0.342982,0.49776 -0.566891,0.6966 -0.05993,0.0532 -0.12909,0.0948 -0.193786,0.14211 0.366863,-0.20868 0.655254,-0.30373 0.938443,-0.30283 0.404124,0.001 0.800354,0.19391 1.41025,0.51677 0.153776,0.37489 0.443521,0.72019 0.46147,1.12499 0.01609,0.36284 -0.09318,0.69144 -0.278534,0.98392 1.270669,0.70775 -0.01905,0.50095 -0.679546,0.72451 0.0016,0.0547 0.003,0.10605 0.0047,0.16278 0.0021,0.0863 -1.421969,1.13703 -1.42317,1.13791 -0.05534,0.044 -0.110196,0.0887 -0.16588,0.13229 -0.02527,0.0676 -0.05128,0.1353 -0.07493,0.20309 -0.0177,0.45225 -0.02416,0.90463 -0.0093,1.35961 -0.05565,0.25722 -0.106725,0.51586 -0.166915,0.77205 -0.0021,0.01 -0.0035,0.0137 -0.0057,0.0227 -0.0019,0.0369 -0.0084,0.0695 -0.02326,0.0966 -0.105344,0.43038 -0.06506,0.16307 -0.109554,0.48214 2.65e-4,9e-5 7.94e-4,-9e-5 0.0011,0 0.02069,0.006 -0.01312,0.0848 -0.0098,0.0636 0.0051,-0.036 0.0051,-0.037 0.0088,-0.0636 -0.236305,-0.0645 -0.479682,-0.10959 -0.723988,-0.15089 -1.624883,0.55197 -1.827733,0.43641 -1.660363,-0.42892 -0.0076,-0.004 -0.01516,-0.007 -0.02273,-0.0114 -0.186732,-0.0957 0.01849,-0.41927 0.0279,-0.6289 -0.006,-0.0905 -0.0087,-0.18038 -0.0088,-0.26975 -0.280958,-0.17105 -0.490659,-0.50051 -0.546219,-0.94619 -0.531246,0.20294 -0.880666,0.17183 -0.57826,-0.60875 0.05144,-0.13278 0.09126,-0.24168 0.125058,-0.33642 H 45.58434 c -1.022945,0 -1.611908,-0.43718 -1.769917,-0.94154 -0.120928,0.001 -0.241834,0.004 -0.36277,0.005 -0.382953,-0.01 -0.767413,0.007 -1.148765,-0.0289 -0.106074,-0.0101 -0.190146,-0.0207 -0.265618,-0.032 -0.462632,0.32851 -0.939885,0.70404 -1.474846,1.17047 -0.02741,0.0239 -0.04532,0.0394 -0.07131,0.062 0.05678,0.31869 0.0931,0.64494 0.04444,0.87954 -0.07797,0.37597 -0.253376,0.73458 -0.469223,1.05213 -0.482653,0.71007 -1.885407,0.86627 -2.504757,0.47077 -0.474287,-0.30287 -0.351732,-1.06897 -0.527616,-1.60352 0.199292,-0.42086 0.322564,-0.88692 0.597897,-1.26245 0.07515,-0.1025 0.153297,-0.20293 0.233061,-0.30231 -0.123748,-0.81802 -0.07941,-1.1469 0.834057,-2.04742 0.139991,-0.13802 0.363775,-0.15177 0.534852,-0.24857 0.111432,-0.0631 0.205626,-0.15221 0.308507,-0.22841 0.552109,-0.26059 1.128175,-0.47024 1.728579,-0.50591 -1.004563,-0.39469 -0.819232,-1.80242 0.896585,-2.40347 0.107498,-0.0377 0.218004,-0.0683 0.326594,-0.10335 -0.03843,-0.12081 -0.179094,-0.76004 -0.194302,-0.82734 0.115681,-0.82036 0.0752,-1.22685 0.482139,-1.23817 0.316511,-0.009 0.903619,0.2213 2.044838,0.68161 0.21186,0.0855 0.100028,0.44647 0.134358,0.67231 0.04971,0.32696 0.06018,0.6482 0.05478,0.971 0.283964,-0.089 0.567698,-0.17831 0.859896,-0.23151 0.08781,-0.0161 0.176249,-0.0269 0.265099,-0.0346 0.0016,-0.0993 0.0067,-0.1987 0.01757,-0.29766 0.02824,-0.25718 0.172371,-0.48896 0.280604,-0.72398 0.225661,-0.49004 0.452789,-0.72054 0.820621,-0.71882 0.294106,0.001 0.680929,0.15342 1.225764,0.43822 0.02516,-0.0176 0.04958,-0.0366 0.07493,-0.0538 0.07816,0.0552 0.133244,0.0961 0.175699,0.12402 0.04507,-0.0939 0.100759,-0.20271 0.172083,-0.33693 0.07549,-0.14204 0.17604,-0.49387 0.293005,-0.38343 0.008,0.008 0.01543,0.0155 0.02326,0.0232 0.03708,-0.0608 0.0774,-0.12417 0.124024,-0.19327 z m 1.684652,1.69964 c -0.0013,-0.002 -0.0027,-0.003 -0.0041,-0.005 7.94e-4,0.003 0.0013,0.006 0.0021,0.008 5.29e-4,-8e-4 0.0013,-0.002 0.0021,-0.003 z m -8.460984,0.35967 c -0.01161,0.0204 -0.02249,0.039 -0.03152,0.0543 0.01109,-0.004 0.02204,-0.007 0.03307,-0.0114 -5.29e-4,-0.0143 -7.94e-4,-0.0286 -0.0016,-0.0429 z m 6.890536,2.40089 c -0.0637,0.0367 -0.126653,0.0753 -0.190169,0.11162 -0.175149,0.10027 -0.321252,0.18268 -0.451136,0.25425 0.0596,0.0115 0.111046,0.0295 0.166399,0.0444 0.0087,-0.007 0.0136,-0.009 0.02273,-0.0165 0.157901,-0.12219 0.297804,-0.26756 0.452168,-0.39377 z" />
    </clipPath>
    <clipPath
       clipPathUnits="userSpaceOnUse"
       id="clipPath4580">
      <path
         id="path4582"
         style="fill:none;stroke:#000000;stroke-width:1.87556;stroke-linecap:round;stroke-linejoin:round;stroke-miterlimit:4;stroke-dasharray:none;stroke-opacity:0.955017;paint-order:stroke markers fill"
         d="m -56.623863,111.25906 -50.045347,53.26366 39.241784,36.07118 c 0.06367,-0.13173 0.12508,-0.26482 0.191168,-0.39496 -0.08566,-0.22624 -0.154752,-0.45763 -0.164676,-0.70759 -0.0515,-1.29814 0.426919,-1.6193 0.996016,-2.67442 0.01593,-0.0295 -0.02531,-0.0609 -0.01151,-0.0912 0.114139,-0.25058 0.197087,-0.40745 0.277146,-0.5442 -0.196091,-0.18617 -0.108923,-0.27738 0.120535,-0.30922 0.0097,-0.0332 0.01853,-0.0637 0.02925,-0.0994 -0.373551,-0.27081 -0.606144,-0.95136 -0.449992,-1.94154 0.03157,-0.20015 0.204727,-0.5195 0.298834,-0.81721 -0.04217,-0.24127 -0.08922,-0.48092 -0.139576,-0.71952 -0.114788,-0.23609 -0.205579,-0.48572 -0.309476,-0.72808 -0.150271,-0.28684 -0.300743,-0.57362 -0.451013,-0.86046 -0.13608,-0.3298 -0.296682,-0.64779 -0.40847,-0.98952 -0.128878,-0.39394 -0.211251,-0.80767 -0.311857,-1.21344 -0.05844,-0.23569 -0.100963,-0.47735 -0.164916,-0.71086 -0.0051,-0.0177 -0.05951,-0.032 -0.04015,-0.0361 0.02555,-0.005 0.04891,-0.01 0.07376,-0.0151 -0.335893,-0.81214 -0.281503,-0.94914 1.490993,-1.14123 0.183406,-0.39359 0.407721,-0.77705 0.639105,-1.1512 -0.0012,-0.0664 -0.0047,-0.1313 -0.001,-0.20028 0.02048,-0.37763 0.07181,-0.72569 0.141417,-1.06083 -0.03243,-0.0339 -0.06549,-0.0704 -0.101419,-0.11453 -0.226971,-0.2784 -0.537157,-0.49917 -0.680321,-0.83536 -0.197377,-0.46352 0.05647,-1.37022 0.147966,-1.84083 0.120997,-0.45851 0.255428,-1.07739 0.448273,-1.64087 -0.132779,-0.18988 -0.265757,-0.3794 -0.410262,-0.55745 0.208435,-0.23568 0.412559,-0.4667 0.609982,-0.69708 0.0041,-0.0108 0.0086,-0.0216 0.01231,-0.0328 0.04837,-0.0726 0.08839,-0.15113 0.128105,-0.22998 -0.01893,-0.0421 -0.03812,-0.084 -0.05797,-0.12557 0.314758,-1.10758 -0.0075,-0.10539 0.412929,-1.10268 0.0064,-0.0152 0.4566,-1.22446 0.487422,-1.26856 0.03935,-0.0562 0.199001,0.0523 0.192247,-0.008 -0.01994,-0.18305 -0.162835,-0.31344 -0.244167,-0.47021 -0.114735,-0.31311 -0.275643,-0.60686 -0.343883,-0.93928 -0.06312,-0.30742 -0.0357,-0.63981 -0.04632,-0.96099 -0.0053,-0.16106 -0.01046,-0.32203 -0.0157,-0.48316 -0.184605,0.23801 -0.401618,0.40672 -0.675069,0.4242 -0.224169,0.0143 -0.376485,-0.0483 -0.474475,-0.16525 -0.279693,-0.0775 -0.588584,-0.11238 -0.797004,-0.29509 -0.575195,-0.50585 -0.566099,-1.18358 -0.427714,-1.93779 0.04699,-0.2561 0.187709,-0.5001 0.268006,-0.75272 0.674487,-2.12183 -0.03511,-0.29679 1.036323,-2.79335 0.307707,-0.45171 0.597433,-0.91458 0.923185,-1.35499 0.387129,-0.52339 0.885838,-0.97222 1.234026,-1.51896 0.18698,-0.29361 0.32359,-0.61094 0.488699,-0.91509 0.796396,-1.46698 0.348472,-0.57207 0.970795,-1.86821 0.79303,-1.65168 2.21957,-1.7715 2.408725,-0.77397 0.06689,-0.0185 0.133831,-0.0365 0.200699,-0.0552 0.0087,0.0547 0.01466,0.10918 0.02008,0.16379 0.07581,-0.0108 0.03755,0.12984 0.01435,0.24451 0.004,0.2328 -0.01894,0.46456 -0.05805,0.69613 0.309242,-0.40602 0.692016,-0.82277 1.190997,-1.27394 0.05242,-0.0474 0.08306,-0.0658 0.132591,-0.10943 0.129873,-0.47479 0.323098,-0.94328 0.519488,-1.41181 -0.213952,-0.18155 -0.414047,-0.37514 -0.558742,-0.61556 -0.0774,-0.12863 0.0217,-0.30416 0.105655,-0.47433 -0.394553,-0.11587 0.36682,-1.02933 0.148393,-1.25833 -0.01332,-0.0142 -0.05468,0.0301 -0.06298,0.0121 -0.09716,-0.2037 -0.203166,-0.40739 -0.264091,-0.62854 -0.225893,0.30896 -0.532003,0.66401 -0.717223,0.88233 -0.0061,0.0108 -0.0118,0.0188 -0.01859,0.024 -0.0044,0.005 -0.01104,0.0146 -0.01506,0.0196 -0.393784,-0.22031 -0.82113,-0.39768 -1.219599,-0.61202 -0.07774,0.14946 -0.155527,0.29889 -0.233327,0.44828 -0.141905,0.22593 -0.29111,0.44814 -0.425754,0.67772 -0.05309,0.0905 -0.07857,0.19352 -0.08883,0.28815 0.08147,0.49373 -0.0315,0.2908 0,0 -0.02469,-0.14963 -0.06694,-0.36046 -0.137256,-0.65652 -0.227909,0.11011 -0.489476,0.13942 -0.782726,0.0361 -0.151537,1.09352 -0.306978,2.28502 -0.652005,1.20858 -0.428859,-1.33793 -0.648572,-1.2532 -0.223059,-1.92468 -0.07241,-0.1748 -0.05532,-0.35633 0.01425,-0.53475 -0.05588,-0.24357 -0.01168,-0.81372 0.06411,-1.4256 -0.02277,0.008 -0.04648,0.017 -0.06896,0.0241 -5.75e-4,2.5e-4 -0.0023,0.001 -0.0031,0.001 -0.02543,0.0599 -0.0514,0.12002 -0.07652,0.18 -0.02506,0.0599 0.01578,-0.15635 0.07652,-0.18 0.03227,-0.076 0.0641,-0.15194 0.09641,-0.22792 0.101048,-0.76356 0.23553,-1.53418 0.268651,-1.74891 0.06985,-1.6933 -0.225341,-3.29756 -0.01736,-5.00903 0.08354,-0.68752 0.297937,-1.32751 0.469577,-1.9888 -0.02314,-0.4431 -0.01592,-0.88927 0.06548,-1.33836 0.03917,-0.21611 0.108642,-0.42749 0.195431,-0.63605 -0.331914,-0.69168 -0.90321,-1.57712 -0.416749,-1.93609 1.101643,-0.81294 1.595331,-1.03529 2.023212,-0.89169 0.05763,-0.0715 0.117374,-0.13873 0.178868,-0.20234 0.0082,-0.0303 0.0172,-0.0599 0.02521,-0.0902 -0.01684,-0.49789 -0.06352,-1.24261 0.04881,-1.90989 -0.02513,-0.15652 -0.05167,-0.31045 -0.09275,-0.44973 -0.179386,-0.60817 -0.284831,-1.2456 -0.435691,-1.86523 -0.148573,-0.61024 -0.308739,-1.21612 -0.463032,-1.82417 0.36528,-0.42229 -0.778367,-1.32203 -0.350211,-1.88862 0.328146,-0.43424 0.818126,-0.71045 1.262932,-1.03508 7.4e-4,-0.0841 0.0016,-0.16863 0.0055,-0.25293 -0.102067,0.026 -0.191572,0.0493 -0.190851,0.0384 0.01122,-0.17282 0.120246,-0.32931 0.236591,-0.48484 0.08245,-0.46928 0.422237,-0.93862 0.563466,-1.39878 0.05158,0.0914 0.235229,-1.13649 0.440017,-1.15615 -0.0472,-0.11758 -0.07697,-0.24071 -0.06964,-0.37294 0.02985,-0.53823 0.433885,-0.84821 0.709296,-1.23506 0.427707,-0.73343 0.140607,-0.14749 0.423178,-1.32762 0.05167,-0.21581 0.170436,-0.42736 0.185789,-0.64339 0.0276,-0.38857 -0.02357,-0.76787 -0.05857,-1.1465 -0.083,-0.89835 -0.165313,-1.38898 -0.286654,-2.0851 -0.420279,-0.85954 -0.140019,0.34824 -0.75627,-1.47053 -0.08169,-0.24112 -0.167656,-0.492 -0.155668,-0.75942 0.003,-0.068 0.01188,-0.13604 0.02378,-0.20413 -0.179855,-0.16988 0.106792,-0.62757 0.210772,-0.80305 -0.0624,0.26748 -0.164092,0.53573 -0.210772,0.80305 0.03844,0.0365 0.09905,0.0594 0.186865,0.0637 -0.07358,-0.12021 -0.145684,-0.24094 -0.04994,-0.33125 1.059641,-0.9996 1.769083,-1.43713 2.095386,-1.27124 0.105633,-0.17925 0.259734,-0.35376 0.484611,-0.52775 0.09291,-1.55536 2.166492,-1.35866 2.320774,0.65026 6.84e-4,0.009 5.61e-4,0.0179 0.0012,0.0269 0.01743,0.0302 0.03473,0.0602 0.04972,0.0921 0.117296,0.24979 0.209632,0.50061 0.280933,0.75282 0.06566,-0.0821 0.146422,-0.14373 0.251561,-0.17129 0.09662,-0.0253 0.186952,-0.0403 0.27522,-0.0521 0.140754,-0.3062 0.293308,-0.60619 0.45637,-0.89687 0.142893,-0.84365 0.340534,-1.56903 0.544792,-2.34273 z m 20.732217,19.05713 c -0.04673,0.26325 -0.103196,0.53532 -0.175913,0.82367 -0.531819,2.10879 -1.980746,3.80528 -3.087044,5.67083 0.299928,0.2718 0.507932,0.73217 0.730344,1.25875 0.05948,0.39861 0.151584,0.78885 0.178345,1.19573 0.02577,0.39184 -0.02214,2.75628 -0.06009,3.08425 -0.231941,2.00482 -1.110022,3.95193 -1.845764,5.87819 -0.290774,0.84439 -0.616913,1.7123 -0.90739,2.58924 -0.39476,1.75492 -0.509525,3.51939 -0.475824,5.25724 0.0016,0.0806 0.0049,0.16115 0.0079,0.24158 0.100716,0.14921 0.206335,0.33449 0.29326,0.68197 0.08785,0.35118 0.05367,0.7394 0.08062,1.10894 -0.741484,0.26022 -1.478221,0.79338 -2.224409,0.78057 -0.312563,-0.005 -0.288439,-0.52461 -0.344308,-0.82478 -0.04945,-0.26565 -0.07837,-0.53776 -0.09587,-0.81251 -0.160928,-0.38717 -0.265175,-0.84377 -0.277463,-0.9642 -0.01036,-0.10154 -0.01237,-0.20211 -0.01942,-0.30319 -0.01124,0.004 -0.0206,0.007 -0.03205,0.0109 -0.09612,0.0295 -0.187206,0.029 -0.274708,0.0108 -0.02708,0.36347 -0.04644,0.5757 -0.07656,1.01011 -0.343894,1.6991 -0.652227,3.40099 -1.031779,5.09775 -0.04038,0.18052 -0.09154,0.36032 -0.139848,0.54028 1.162473,3.17531 2.339916,6.34802 3.295856,9.61749 0.439697,1.50379 1.047485,3.69705 1.56958,6.05765 0.144824,-0.14855 0.287856,-0.29901 0.434357,-0.4461 0.494773,-0.49678 1.014264,-1.39067 1.642637,-1.30543 0.169393,0.023 0.321309,0.0467 0.472647,0.0707 0.08636,-0.0687 0.166959,-0.13703 0.225291,-0.20456 1.119321,-1.30149 2.236306,-2.71089 3.50681,-3.87806 1.673494,-1.53737 1.284074,0.51804 1.133049,2.01926 l 21.157935,-22.51856 z m -2.207016,-0.17361 c -1.16068,-0.71393 -0.746904,0.23717 -0.316192,1.17714 0.09846,-0.2661 0.182508,-0.53829 0.246299,-0.81833 0.02745,-0.12048 0.0504,-0.24 0.06989,-0.35881 z m -8.578472,-5.08218 c -0.08154,0.11926 -0.169707,0.23472 -0.266068,0.34513 -0.0328,0.0792 -0.0656,0.15839 -0.09826,0.23763 0.0305,0.22561 -0.07485,0.50606 -0.08946,0.74715 -0.03972,0.65521 -0.06238,0.78424 -0.07292,0.84149 0.03159,0.45389 0.05876,1.38967 -0.19001,1.61804 0.0099,-0.008 0.02034,-0.0158 0.02999,-0.0242 0.02273,-0.003 0.0456,-0.005 0.06833,-0.008 0.153625,-0.16385 0.307836,-0.32731 0.461126,-0.4915 0.16698,-0.1788 0.289322,-0.50409 0.471693,-0.63016 -0.07126,-0.45586 -0.140898,-0.91223 -0.215036,-1.36718 -0.02769,-0.42376 -0.06525,-0.84592 -0.0994,-1.26848 z m 6.219852,7.19118 c -0.01852,0.0668 -0.03791,0.13306 -0.05918,0.19746 0.0209,0.064 0.03282,0.0993 0.06177,0.18841 -0.0037,-0.14051 -0.0037,-0.27126 -0.0026,-0.38587 z m -6.963135,-3.3805 c -0.01451,0.01 -0.02916,0.0186 -0.04542,0.0237 -0.502008,0.15635 -0.884352,0.2501 -1.182322,0.29806 0.02238,0.33082 0.04792,0.66091 0.06789,0.99223 0.08118,-0.0862 0.16229,-0.17241 0.243575,-0.25851 0.09583,-0.20824 0.207027,-0.39698 0.337681,-0.55019 0.166196,-0.19491 0.380953,-0.34151 0.578594,-0.50527 z m 3.732673,3.75827 c -0.07617,0.0306 -0.150002,0.055 -0.221273,0.0736 -0.0065,0.0216 -0.01418,0.0414 -0.02049,0.0633 0.08208,-0.0257 0.162363,-0.0462 0.241052,-0.0622 2.91e-4,-0.0258 5.38e-4,-0.0481 7.11e-4,-0.0747 z m 2.031436,4.21013 c -0.723976,-0.0961 -0.950247,-0.43811 -1.174117,-0.9012 -0.102046,0.12829 -0.210505,0.25782 -0.333597,0.38883 -0.254457,0.27082 -0.67186,0.6898 -1.065382,1.13678 0.05317,1.11312 0.145266,2.19942 0.225869,3.21852 0.367556,-0.39945 0.740456,-0.79096 1.105579,-1.17668 0.13878,-0.1627 0.280392,-0.32297 0.420783,-0.48445 0.03274,-0.56916 0.472184,-1.18742 0.647966,-1.77385 0.05564,-0.13298 0.115615,-0.26402 0.177901,-0.39422 -0.0016,-0.005 -0.0034,-0.009 -0.005,-0.0137 z m -10.883799,-8.84099 c -0.05747,0.18612 -0.124912,0.36995 -0.194404,0.55329 0.0724,-0.12133 0.147444,-0.24586 0.209828,-0.35498 -0.0054,-0.0661 -0.01,-0.13226 -0.01542,-0.19831 z m 11.991816,12.19851 c -0.09691,0.0659 -0.194,0.12881 -0.290518,0.18037 -0.127462,0.14914 -0.254579,0.2969 -0.380821,0.44966 -0.224845,0.25264 -0.463998,0.50685 -0.707049,0.76308 0.141867,0.71981 0.241846,1.63042 0.272355,1.96163 0.0576,0.62526 0.07712,1.25853 0.108613,1.88949 0.0064,0.12842 0.0093,0.1652 0.01513,0.27185 0.439051,-1.13801 0.836917,-2.28722 0.954546,-3.45822 0.04201,-0.4183 0.01226,-0.83012 0.01513,-1.24464 0.0029,-0.42335 0.0084,-0.62595 0.01262,-0.81322 z m -11.844508,-10.2453 c -0.128473,0.0351 -0.258452,0.0683 -0.375657,0.1196 -0.368478,0.16132 -0.555873,0.1636 -0.626538,0.0663 -0.05602,0.13352 -0.113269,0.26656 -0.165662,0.4009 0.272452,0.0888 0.54615,0.17591 0.753822,0.35584 0.14763,0.12795 0.282973,0.28006 0.408302,0.4476 0.02442,-0.0508 0.04881,-0.10153 0.0725,-0.1525 0.0051,5.2e-4 0.0103,9.3e-4 0.01539,0.001 -0.02439,-0.41356 -0.05341,-0.82634 -0.08216,-1.23895 z m 4.413848,5.7586 c -0.123032,0.16007 -0.243732,0.3106 -0.362853,0.45096 0.0067,0.45516 0.01026,0.91084 0.01395,1.36647 0.03118,-0.10138 0.05822,-0.19941 0.09235,-0.30316 0.05192,-0.15783 0.135446,-0.32537 0.231524,-0.49635 2.82e-4,-0.33705 0.01008,-0.67659 0.02503,-1.01792 z m -9.697969,-1.96657 c -0.04227,0.10033 -0.09853,0.20359 -0.166511,0.30958 0.07544,0.14755 0.153549,0.29303 0.231427,0.43871 -0.0058,-0.0616 -0.01188,-0.12324 -0.01742,-0.18493 -0.01679,-0.18758 -0.03203,-0.37547 -0.0475,-0.56336 z m -0.893333,0.84447 c -0.07912,0.0212 -0.158111,0.0422 -0.233953,0.0688 0.0017,0.007 0.0037,0.0148 0.0054,0.0217 0.06796,-0.0243 0.147466,-0.0552 0.22855,-0.0905 z m 0.940019,5.41961 c -9.98e-4,0.0465 6.79e-4,0.0398 -6.29e-4,0.0915 -0.01842,0.72657 -0.05194,1.04562 -0.08205,1.29193 0.145201,-0.27704 0.35864,-0.52814 0.550633,-0.78739 -0.138725,-0.16776 -0.324315,-0.3775 -0.467954,-0.59603 z m 7.449313,15.62296 c -0.181088,0.012 -0.307315,-0.0103 -0.400689,-0.0586 -0.165557,0.75595 -0.447366,1.60331 -1.094397,1.90753 -0.280402,0.13184 -0.523003,0.18988 -0.73367,0.19228 -0.0015,0.11691 -0.0053,0.2375 -0.0065,0.35397 0.359205,0.0686 0.554303,0.21869 0.629178,0.44062 0.01342,-0.037 0.02588,-0.0739 0.04708,-0.11347 -0.02487,-0.0155 2.84e-4,-0.0368 0.03694,-0.0612 0.120116,-0.20175 0.324364,-0.46485 0.564951,-0.7963 0.0025,-0.004 0.0054,-0.009 0.0079,-0.0133 0.213839,-0.4006 0.397227,-0.81325 0.595826,-1.21989 0.13162,-0.21479 0.248178,-0.4245 0.35336,-0.63165 z m -0.453734,4.03195 c -0.657564,-0.35736 -1.003396,-0.59514 -1.12935,-0.82353 -0.03501,0.44637 -0.272507,1.03569 -0.53476,1.73714 -0.0651,0.085 -0.08958,0.12086 -0.145902,0.19612 -0.0048,0.35228 -0.0059,0.68117 -0.01652,1.06378 1.136991,0.33138 2.400934,2.33635 2.520589,2.48281 0.0153,0.0314 0.03074,0.0615 0.04605,0.0918 0.0027,-0.0125 0.0043,-0.0252 0.007,-0.0377 -0.01929,-0.0847 -0.03887,-0.16933 -0.05624,-0.25486 -0.0291,-0.406 -0.08158,-0.80856 -0.128816,-1.21183 -0.572564,-0.85981 -1.117045,-1.72041 -0.881094,-2.7563 0.04803,-0.21087 0.162509,-0.36657 0.31905,-0.48742 z m 11.88712,19.31719 c -0.315897,-0.16804 -0.633462,-0.33191 -0.962632,-0.46027 0.440954,0.51054 0.338167,0.39272 0.962632,0.46027 z m -6.958697,-4.21951 c 6.65e-4,0.12683 0.0013,0.2459 0.0023,0.37567 0.03839,0.007 0.07679,0.0123 0.115073,0.019 -0.03755,-0.13257 -0.07918,-0.2626 -0.117324,-0.39471 z m -5.77845,-4.54914 c -0.578313,1.01496 -1.104883,2.04449 -1.571379,3.08754 0.08059,0.29636 0.160385,0.59306 0.23731,0.89077 0.181377,-0.38094 0.382889,-0.75462 0.573653,-1.13223 0.505466,-0.004 1.022375,-0.0533 1.537681,-0.0954 -0.0074,-0.12098 -0.0085,-0.24362 -0.02484,-0.3622 -0.09803,-0.71186 -0.399259,-1.54586 -0.752427,-2.38845 z m -9.265671,3.75333 c 0.0012,0.0248 0.0017,0.0399 0.003,0.0651 -3.27e-4,0.005 -5.97e-4,0.009 -9.08e-4,0.0136 0.0031,-0.0148 0.0064,-0.0296 0.0095,-0.0446 -0.0045,-0.0126 -0.0071,-0.0217 -0.01152,-0.0342 z m -5.279989,5.08025 c -0.06695,0.0179 -0.184923,0.23145 -0.144273,0.17326 0.04298,-0.0615 0.09236,-0.11798 0.144273,-0.17326 z m 13.416488,12.33247 c -0.0089,0.048 -0.01675,0.096 -0.02547,0.14399 0.009,0.002 0.01733,0.006 0.02615,0.008 -7.62e-4,-0.0506 -2.24e-4,-0.10141 -6.83e-4,-0.15205 z m -12.123621,-9.76378 c -0.199362,-0.17371 -0.243118,0.19469 -0.255618,0.70855 0.09519,-0.21298 0.19969,-0.43505 0.305734,-0.65488 -0.01735,-0.02 -0.03468,-0.0402 -0.05012,-0.0537 z m 10.281657,15.11131 c -0.02321,-1.4e-4 -0.04626,0.005 -0.06958,0.002 -0.07916,-0.009 -0.145338,-0.022 -0.218593,-0.0328 0.0097,0.15283 0.02449,0.34613 0.03597,0.51015 0.0778,-0.14474 0.169683,-0.32439 0.252199,-0.47962 z" />
    </clipPath>
  </defs>
  <g
     inkscape:label="Layer 1"
     inkscape:groupmode="layer"
     id="layer1">
    <g
       id="g4830"
       transform="matrix(0.30371152,0,0,0.34804143,16.277389,-25.393322)">
      <g
         id="g4688"
         transform="translate(1.2042194,-1.2042194)">
        <g
           id="g4025">
          <path
             id="path2615"
             style="fill:none;stroke:#000000;stroke-width:1.865;stroke-linecap:butt;stroke-linejoin:miter;stroke-miterlimit:4;stroke-dasharray:none;stroke-opacity:1"
             d="M -25.084667,113.08009 -35.835238,97.153313 m 1.194507,24.686497 c -3.388169,-4.79529 -4.845359,-10.91548 -3.981694,-16.72311 0.477858,-3.21331 1.63396,-6.303626 3.185356,-9.157896 3.006898,-5.532113 7.537606,-10.225989 12.959918,-13.426653 5.422312,-3.200664 11.721105,-4.899189 18.0174584,-4.858567 6.2963532,0.04062 12.5727065,1.820278 17.9532696,5.090638 5.380563,3.27036 9.85033,8.022304 12.785598,13.592754 M 61.716245,142.94278 26.279175,96.356976 M 13.935926,160.46223 -25.084667,113.08009 M -1.9908466,166.0366 -34.640731,121.83981 M 91.180773,261.19907 C 83.521113,256.07712 76.079638,250.6289 68.883291,244.87413 41.161109,222.70528 17.112057,195.95409 -1.9908466,166.0366 M 61.716245,142.94278 129.8032,215.80777 M 13.935926,160.46223 82.02288,233.32722 m 60.52174,6.37072 a 30.858124,28.66819 0 0 1 -30.85813,28.66819 30.858124,28.66819 0 0 1 -30.858121,-28.66819 30.858124,28.66819 0 0 1 30.858121,-28.66819 30.858124,28.66819 0 0 1 30.85813,28.66819 z"
             clip-path="url(#clipPath3088)" />
          <path
             id="ellipse2845"
             style="fill:none;stroke:#000000;stroke-width:1.865;stroke-linecap:round;stroke-linejoin:round;stroke-opacity:0.955017;paint-order:stroke markers fill"
             transform="rotate(-31.600614)"
             d="m -39.265804,131.09134 a 25.084667,5.3752856 0 0 1 -25.084667,5.37528 25.084667,5.3752856 0 0 1 -25.084668,-5.37528 25.084667,5.3752856 0 0 1 25.084668,-5.37529 25.084667,5.3752856 0 0 1 25.084667,5.37529 z m 1.840049,22.25583 a 25.084667,5.3752856 0 0 1 -25.084667,5.37528 25.084667,5.3752856 0 0 1 -25.084667,-5.37528 25.084667,5.3752856 0 0 1 25.084667,-5.37529 25.084667,5.3752856 0 0 1 25.084667,5.37529 z m 3.679173,36.43431 a 25.084667,5.3752856 0 0 1 -25.084667,5.37528 25.084667,5.3752856 0 0 1 -25.084667,-5.37528 25.084667,5.3752856 0 0 1 25.084667,-5.37529 25.084667,5.3752856 0 0 1 25.084667,5.37529 z m -1.97818,-17.99181 a 25.084667,5.3752856 0 0 1 -25.084667,5.37529 25.084667,5.3752856 0 0 1 -25.084667,-5.37529 25.084667,5.3752856 0 0 1 25.084667,-5.37528 25.084667,5.3752856 0 0 1 25.084667,5.37528 z" />
        </g>
        <path
           id="ellipse4278"
           style="fill:none;stroke:#000000;stroke-width:1.68964;stroke-linecap:round;stroke-linejoin:round;stroke-opacity:0.955017;paint-order:stroke markers fill"
           transform="matrix(0.78120788,-0.62427096,0.7340055,0.67914353,0,0)"
           d="m -41.407351,127.53637 a 14.206868,5.5716028 0 0 1 -14.206869,5.5716 14.206868,5.5716028 0 0 1 -14.206868,-5.5716 14.206868,5.5716028 0 0 1 14.206868,-5.5716 14.206868,5.5716028 0 0 1 14.206869,5.5716 z m -1.91251,20.05891 a 14.206868,5.5716028 0 0 1 -14.206869,5.5716 14.206868,5.5716028 0 0 1 -14.206868,-5.5716 14.206868,5.5716028 0 0 1 14.206868,-5.57161 14.206868,5.5716028 0 0 1 14.206869,5.57161 z m -3.513161,22.48336 a 14.206868,5.5716028 0 0 1 -14.206868,5.57161 14.206868,5.5716028 0 0 1 -14.206868,-5.57161 14.206868,5.5716028 0 0 1 14.206868,-5.5716 14.206868,5.5716028 0 0 1 14.206868,5.5716 z m -2.246609,18.97255 a 14.206868,5.5716028 0 0 1 -14.206868,5.57161 14.206868,5.5716028 0 0 1 -14.206868,-5.57161 14.206868,5.5716028 0 0 1 14.206868,-5.5716 14.206868,5.5716028 0 0 1 14.206868,5.5716 z"
           clip-path="url(#clipPath4580)" />
      </g>
      <path
         id="rect4712"
         style="fill:none;stroke:#000000;stroke-width:1.6926;stroke-linecap:round;stroke-linejoin:round;stroke-miterlimit:4;stroke-dasharray:none;stroke-opacity:0.955017;paint-order:stroke markers fill"
         d="m 92.155455,219.65241 c -0.49835,0 -0.794083,0.35536 -0.662959,0.79665 l 1.19489,4.02141 h -4.347577 c -0.466599,0 -0.743431,0.33272 -0.620695,0.74587 l 0.519908,1.74972 c 0.12274,0.41314 0.5973,0.74563 1.063884,0.74563 h 4.347541 l 3.156498,10.62302 h -4.347597 c -0.466571,0 -0.743457,0.3327 -0.620691,0.74588 l 0.519913,1.74971 c 0.122747,0.41316 0.597254,0.74561 1.063856,0.74561 h 4.347571 l 2.567923,8.64219 h -4.34757 c -0.466577,0 -0.74346,0.33272 -0.62069,0.74588 l 0.519907,1.74972 c 0.122751,0.41314 0.597373,0.74586 1.063949,0.74586 h 4.347554 l 1.78347,6.00226 c 0.13113,0.44129 0.63794,0.7964 1.13632,0.7964 h 1.83315 c 0.49836,0 0.79387,-0.35511 0.66273,-0.7964 l -1.78347,-6.00226 h 7.27181 l 1.7835,6.00226 c 0.13112,0.44129 0.63764,0.7964 1.13602,0.7964 h 1.83317 c 0.49835,0 0.79414,-0.35511 0.66301,-0.7964 l -1.78347,-6.00226 h 10.34705 l 1.78347,6.00226 c 0.13109,0.44129 0.63789,0.7964 1.13628,0.7964 h 1.83318 c 0.49836,0 0.79386,-0.35511 0.66274,-0.7964 l -1.78351,-6.00226 h 8.38632 c 0.46657,0 0.74315,-0.33272 0.62039,-0.74586 l -0.51988,-1.74972 c -0.12278,-0.41316 -0.59704,-0.74588 -1.06367,-0.74588 h -8.38629 l -2.56794,-8.64219 h 8.38628 c 0.4666,0 0.74327,-0.33245 0.62051,-0.74561 l -0.51991,-1.74971 c -0.12279,-0.41318 -0.59703,-0.74588 -1.06367,-0.74588 h -8.3863 l -3.15653,-10.62302 h 8.38631 c 0.46658,0 0.74326,-0.33249 0.62051,-0.74563 l -0.51995,-1.74972 c -0.12275,-0.41315 -0.59702,-0.74587 -1.06362,-0.74587 h -8.3863 l -1.19494,-4.02141 c -0.13109,-0.44129 -0.63761,-0.79665 -1.1361,-0.79665 h -1.83316 c -0.49834,0 -0.79405,0.35536 -0.66294,0.79665 l 1.19494,4.02141 h -10.34696 l -1.19495,-4.02141 c -0.1311,-0.44129 -0.63795,-0.79665 -1.13637,-0.79665 h -1.83312 c -0.49833,0 -0.79383,0.35536 -0.66268,0.79665 l 1.19492,4.02141 h -7.271818 l -1.194903,-4.02141 c -0.131112,-0.44129 -0.637613,-0.79665 -1.136083,-0.79665 z m 5.127244,8.05928 h 7.271791 l 3.15648,10.62302 h -7.27182 z m 10.903991,0 h 10.34697 l 3.15649,10.62302 h -10.34697 z m -6.78447,13.86421 h 7.27183 l 2.56788,8.6422 h -7.27181 z m 10.90404,0 h 10.34702 l 2.56793,8.6422 h -10.34702 z" />
    </g>
    <path
       style="fill:#000000;stroke:#000000;stroke-width:2.35298;stroke-linecap:round;stroke-linejoin:round;stroke-opacity:0.955017;paint-order:stroke markers fill"
       d=""
       id="path1322"
       transform="scale(0.26458333)" />
    <g
       id="g1603">
      <g
         id="g856"
         transform="matrix(0.30371152,0,0,0.34804143,155.23848,-22.207967)">
        <g
           id="g852"
           transform="translate(1.2042194,-1.2042194)">
          <g
             id="g848">
            <path
               id="path844"
               style="fill:none;stroke:#000000;stroke-width:1.865;stroke-linecap:butt;stroke-linejoin:miter;stroke-miterlimit:4;stroke-dasharray:none;stroke-opacity:1"
               d="M -25.084667,113.08009 -35.835238,97.153313 m 1.194507,24.686497 c -3.388169,-4.79529 -4.845359,-10.91548 -3.981694,-16.72311 0.477858,-3.21331 1.63396,-6.303626 3.185356,-9.157896 3.006898,-5.532113 7.537606,-10.225989 12.959918,-13.426653 5.422312,-3.200664 11.721105,-4.899189 18.0174584,-4.858567 6.2963532,0.04062 12.5727065,1.820278 17.9532696,5.090638 5.380563,3.27036 9.85033,8.022304 12.785598,13.592754 M 61.716245,142.94278 26.279175,96.356976 M 13.935926,160.46223 -25.084667,113.08009 M -1.9908466,166.0366 -34.640731,121.83981 M 91.180773,261.19907 C 83.521113,256.07712 76.079638,250.6289 68.883291,244.87413 41.161109,222.70528 17.112057,195.95409 -1.9908466,166.0366 M 61.716245,142.94278 129.8032,215.80777 M 13.935926,160.46223 82.02288,233.32722 m 60.52174,6.37072 a 30.858124,28.66819 0 0 1 -30.85813,28.66819 30.858124,28.66819 0 0 1 -30.858121,-28.66819 30.858124,28.66819 0 0 1 30.858121,-28.66819 30.858124,28.66819 0 0 1 30.85813,28.66819 z"
               clip-path="url(#clipPath3088)" />
            <path
               id="path846"
               style="fill:none;stroke:#000000;stroke-width:1.865;stroke-linecap:round;stroke-linejoin:round;stroke-opacity:0.955017;paint-order:stroke markers fill"
               transform="rotate(-31.600614)"
               d="m -39.265804,131.09134 a 25.084667,5.3752856 0 0 1 -25.084667,5.37528 25.084667,5.3752856 0 0 1 -25.084668,-5.37528 25.084667,5.3752856 0 0 1 25.084668,-5.37529 25.084667,5.3752856 0 0 1 25.084667,5.37529 z m 1.840049,22.25583 a 25.084667,5.3752856 0 0 1 -25.084667,5.37528 25.084667,5.3752856 0 0 1 -25.084667,-5.37528 25.084667,5.3752856 0 0 1 25.084667,-5.37529 25.084667,5.3752856 0 0 1 25.084667,5.37529 z m 3.679173,36.43431 a 25.084667,5.3752856 0 0 1 -25.084667,5.37528 25.084667,5.3752856 0 0 1 -25.084667,-5.37528 25.084667,5.3752856 0 0 1 25.084667,-5.37529 25.084667,5.3752856 0 0 1 25.084667,5.37529 z m -1.97818,-17.99181 a 25.084667,5.3752856 0 0 1 -25.084667,5.37529 25.084667,5.3752856 0 0 1 -25.084667,-5.37529 25.084667,5.3752856 0 0 1 25.084667,-5.37528 25.084667,5.3752856 0 0 1 25.084667,5.37528 z" />
          </g>
          <path
             id="path850"
             style="fill:none;stroke:#000000;stroke-width:1.68964;stroke-linecap:round;stroke-linejoin:round;stroke-opacity:0.955017;paint-order:stroke markers fill"
             transform="matrix(0.78120788,-0.62427096,0.7340055,0.67914353,0,0)"
             d="m -41.407351,127.53637 a 14.206868,5.5716028 0 0 1 -14.206869,5.5716 14.206868,5.5716028 0 0 1 -14.206868,-5.5716 14.206868,5.5716028 0 0 1 14.206868,-5.5716 14.206868,5.5716028 0 0 1 14.206869,5.5716 z m -1.91251,20.05891 a 14.206868,5.5716028 0 0 1 -14.206869,5.5716 14.206868,5.5716028 0 0 1 -14.206868,-5.5716 14.206868,5.5716028 0 0 1 14.206868,-5.57161 14.206868,5.5716028 0 0 1 14.206869,5.57161 z m -3.513161,22.48336 a 14.206868,5.5716028 0 0 1 -14.206868,5.57161 14.206868,5.5716028 0 0 1 -14.206868,-5.57161 14.206868,5.5716028 0 0 1 14.206868,-5.5716 14.206868,5.5716028 0 0 1 14.206868,5.5716 z m -2.246609,18.97255 a 14.206868,5.5716028 0 0 1 -14.206868,5.57161 14.206868,5.5716028 0 0 1 -14.206868,-5.57161 14.206868,5.5716028 0 0 1 14.206868,-5.5716 14.206868,5.5716028 0 0 1 14.206868,5.5716 z"
             clip-path="url(#clipPath4580)" />
        </g>
        <path
           id="path854"
           style="fill:none;stroke:#000000;stroke-width:1.6926;stroke-linecap:round;stroke-linejoin:round;stroke-miterlimit:4;stroke-dasharray:none;stroke-opacity:0.955017;paint-order:stroke markers fill"
           d="m 92.155455,219.65241 c -0.49835,0 -0.794083,0.35536 -0.662959,0.79665 l 1.19489,4.02141 h -4.347577 c -0.466599,0 -0.743431,0.33272 -0.620695,0.74587 l 0.519908,1.74972 c 0.12274,0.41314 0.5973,0.74563 1.063884,0.74563 h 4.347541 l 3.156498,10.62302 h -4.347597 c -0.466571,0 -0.743457,0.3327 -0.620691,0.74588 l 0.519913,1.74971 c 0.122747,0.41316 0.597254,0.74561 1.063856,0.74561 h 4.347571 l 2.567923,8.64219 h -4.34757 c -0.466577,0 -0.74346,0.33272 -0.62069,0.74588 l 0.519907,1.74972 c 0.122751,0.41314 0.597373,0.74586 1.063949,0.74586 h 4.347554 l 1.78347,6.00226 c 0.13113,0.44129 0.63794,0.7964 1.13632,0.7964 h 1.83315 c 0.49836,0 0.79387,-0.35511 0.66273,-0.7964 l -1.78347,-6.00226 h 7.27181 l 1.7835,6.00226 c 0.13112,0.44129 0.63764,0.7964 1.13602,0.7964 h 1.83317 c 0.49835,0 0.79414,-0.35511 0.66301,-0.7964 l -1.78347,-6.00226 h 10.34705 l 1.78347,6.00226 c 0.13109,0.44129 0.63789,0.7964 1.13628,0.7964 h 1.83318 c 0.49836,0 0.79386,-0.35511 0.66274,-0.7964 l -1.78351,-6.00226 h 8.38632 c 0.46657,0 0.74315,-0.33272 0.62039,-0.74586 l -0.51988,-1.74972 c -0.12278,-0.41316 -0.59704,-0.74588 -1.06367,-0.74588 h -8.38629 l -2.56794,-8.64219 h 8.38628 c 0.4666,0 0.74327,-0.33245 0.62051,-0.74561 l -0.51991,-1.74971 c -0.12279,-0.41318 -0.59703,-0.74588 -1.06367,-0.74588 h -8.3863 l -3.15653,-10.62302 h 8.38631 c 0.46658,0 0.74326,-0.33249 0.62051,-0.74563 l -0.51995,-1.74972 c -0.12275,-0.41315 -0.59702,-0.74587 -1.06362,-0.74587 h -8.3863 l -1.19494,-4.02141 c -0.13109,-0.44129 -0.63761,-0.79665 -1.1361,-0.79665 h -1.83316 c -0.49834,0 -0.79405,0.35536 -0.66294,0.79665 l 1.19494,4.02141 h -10.34696 l -1.19495,-4.02141 c -0.1311,-0.44129 -0.63795,-0.79665 -1.13637,-0.79665 h -1.83312 c -0.49833,0 -0.79383,0.35536 -0.66268,0.79665 l 1.19492,4.02141 h -7.271818 l -1.194903,-4.02141 c -0.131112,-0.44129 -0.637613,-0.79665 -1.136083,-0.79665 z m 5.127244,8.05928 h 7.271791 l 3.15648,10.62302 h -7.27182 z m 10.903991,0 h 10.34697 l 3.15649,10.62302 h -10.34697 z m -6.78447,13.86421 h 7.27183 l 2.56788,8.6422 h -7.27181 z m 10.90404,0 h 10.34702 l 2.56793,8.6422 h -10.34702 z" />
      </g>
      <path
         style="fill:#000000;stroke:#000000;stroke-width:5.80734;stroke-linecap:round;stroke-linejoin:round;stroke-opacity:0.955017;paint-order:stroke markers fill"
         d="m 581.2558,120.84762 c 5.95564,-10.42511 35.39163,-31.514674 43.98695,-31.514674 2.16781,0 2.17094,0.02465 0.39214,3.082616 -3.86771,6.649011 -19.48757,18.998768 -32.63349,25.801478 -7.43723,3.8486 -13.17563,5.13379 -11.7456,2.63058 z"
         id="path932"
         transform="scale(0.26458333)" />
      <path
         style="fill:#000000;stroke:#000000;stroke-width:5.80734;stroke-linecap:round;stroke-linejoin:round;stroke-opacity:0.955017;paint-order:stroke markers fill"
         d="m 596.54556,145.06063 c 0,-1.14385 6.85489,-10.06741 7.73803,-10.07322 0.38443,-0.003 2.03897,-1.25152 3.67674,-2.77554 12.13436,-11.29158 34.24429,-22.86486 34.24429,-17.92492 0,2.12797 -14.38067,15.28091 -22.91228,20.95617 -11.74733,7.81437 -22.74678,12.56173 -22.74678,9.81751 z"
         id="path971"
         transform="scale(0.26458333)" />
      <path
         style="fill:#000000;stroke:#000000;stroke-width:5.80734;stroke-linecap:round;stroke-linejoin:round;stroke-opacity:0.955017;paint-order:stroke markers fill"
         d="m 609.44921,164.20096 c 0,-2.59792 13.38861,-15.18418 22.84005,-21.4713 11.1977,-7.44873 22.81901,-12.3725 22.81901,-9.66805 0,1.92512 -11.19204,12.98554 -19.14579,18.92062 -7.13738,5.32591 -18.94904,11.78956 -24.27995,13.28662 -1.68902,0.47432 -2.23332,0.21406 -2.23332,-1.06789 z"
         id="path1010"
         transform="scale(0.26458333)" />
      <path
         style="fill:#000000;stroke:#000000;stroke-width:5.80734;stroke-linecap:round;stroke-linejoin:round;stroke-opacity:0.955017;paint-order:stroke markers fill"
         d="m 622.35286,182.84885 c 0,-4.83418 26.40366,-25.48595 38.25193,-29.91895 9.97575,-3.73241 9.9254,-2.34672 -0.28543,7.85508 -10.33828,10.32913 -25.18528,19.9796 -35.23689,22.90377 -2.19392,0.63825 -2.72961,0.47342 -2.72961,-0.8399 z"
         id="path1049"
         transform="scale(0.26458333)" />
      <path
         style="fill:#000000;stroke:#000000;stroke-width:5.80734;stroke-linecap:round;stroke-linejoin:round;stroke-opacity:0.955017;paint-order:stroke markers fill"
         d="m 633.74657,84.335939 c -0.83083,-1.344302 2.84595,-8.402935 4.37701,-8.402935 0.65097,0 2.08641,1.425932 3.18987,3.168737 l 2.00631,3.168737 -2.98975,1.546057 c -3.47104,1.794946 -5.68706,1.96978 -6.58344,0.519404 z"
         id="path1088"
         transform="scale(0.26458333)" />
      <path
         style="fill:#000000;stroke:#000000;stroke-width:4.70595;stroke-linecap:round;stroke-linejoin:round;stroke-opacity:0.955017;paint-order:stroke markers fill"
         d="m 649.1014,102.51325 c 0,-2.18487 2.0642,-6.800811 3.03693,-6.791146 0.32043,0.0032 1.56158,1.537516 2.75811,3.409628 l 2.17552,3.403838 -1.77335,0.98573 c -0.97534,0.54216 -2.76872,0.99856 -3.98528,1.01424 -1.84211,0.0237 -2.21193,-0.31438 -2.21193,-2.02229 z"
         id="path1166"
         transform="scale(0.26458333)" />
      <path
         style="fill:#000000;stroke:#000000;stroke-width:4.70595;stroke-linecap:round;stroke-linejoin:round;stroke-opacity:0.955017;paint-order:stroke markers fill"
         d="m 678.86194,144.13765 c 0,-1.23861 0.99536,-3.78951 2.21193,-5.66866 l 2.21193,-3.41664 2.99227,3.45672 c 1.64574,1.9012 3.00306,3.72083 3.01627,4.04363 0.04,0.97939 -6.20802,3.83696 -8.38951,3.83696 -1.7012,0 -2.04289,-0.37667 -2.04289,-2.25201 z"
         id="path1205"
         transform="scale(0.26458333)" />
      <path
         style="fill:#000000;stroke:#000000;stroke-width:4.70595;stroke-linecap:round;stroke-linejoin:round;stroke-opacity:0.955017;paint-order:stroke markers fill"
         d="m 664.74781,127.02372 c -0.64786,-1.04825 1.71222,-7.50507 3.19217,-8.73332 0.81481,-0.67623 1.74536,-0.0402 4.04234,2.76296 l 2.98387,3.64142 -3.48142,1.57988 c -3.93931,1.78767 -5.95645,2.01195 -6.73696,0.74906 z"
         id="path1244"
         transform="scale(0.26458333)" />
      <path
         style="fill:#000000;stroke:#000000;stroke-width:2.35298;stroke-linecap:round;stroke-linejoin:round;stroke-opacity:0.955017;paint-order:stroke markers fill"
         d="m 705.78701,255.27702 c -0.2494,-0.94007 -0.77209,-2.88556 -1.16154,-4.32332 l -0.70808,-2.6141 -3.07675,-0.11746 c -2.7466,-0.10486 -3.07674,-0.20195 -3.07674,-0.90488 0,-0.69475 0.28548,-0.78742 2.42564,-0.78742 1.89861,0 2.48185,-0.14649 2.68436,-0.67423 0.28385,-0.73969 -2.51942,-12.08987 -3.18579,-12.89899 -0.25677,-0.31177 -1.44675,-0.50271 -3.13306,-0.50271 -2.36075,0 -2.74615,-0.10369 -2.92482,-0.78693 -0.18694,-0.71484 0.039,-0.79773 2.46665,-0.90488 l 2.67244,-0.11795 -0.0829,-1.60868 c -0.0456,-0.88477 -0.85996,-4.5043 -1.80976,-8.04339 l -1.7269,-6.43471 -3.01248,-0.20108 c -2.41753,-0.16137 -3.03816,-0.33617 -3.14248,-0.88503 -0.10941,-0.57563 0.2721,-0.703 2.40922,-0.80434 2.41956,-0.11472 2.5451,-0.17118 2.66375,-1.19807 0.0685,-0.59272 -0.14797,-1.99528 -0.48103,-3.11681 -0.60039,-2.02174 -0.59792,-2.03914 0.29038,-2.03914 0.7813,0 0.99722,0.39878 1.68754,3.11681 l 0.7916,3.11681 h 5.02712 5.02712 l -0.0225,-1.60867 c -0.0124,-0.88478 -0.16824,-2.28734 -0.34639,-3.11682 -0.28967,-1.34869 -0.23873,-1.50813 0.48186,-1.50813 0.66336,0 0.927,0.49464 1.49159,2.7985 0.37719,1.53918 0.91858,2.99169 1.20308,3.22781 0.33185,0.2754 2.80473,0.38951 6.89819,0.31831 l 6.38091,-0.111 0.12814,-1.11504 c 0.0705,-0.61328 -0.13593,-2.01584 -0.45867,-3.11682 -0.57855,-1.97361 -0.57432,-2.00176 0.30104,-2.00176 0.77269,0 0.97908,0.38697 1.5912,2.98343 0.42133,1.78719 0.94776,3.07723 1.31293,3.21736 0.33527,0.12865 2.74714,0.23392 5.3597,0.23392 3.96049,0 4.79069,0.10575 4.99423,0.63615 0.13426,0.34988 0.24411,0.71183 0.24411,0.80433 0,0.0925 -2.17739,0.1682 -4.83865,0.1682 -4.21362,0 -4.87311,0.0898 -5.10531,0.69488 -0.25048,0.65274 2.81722,13.56366 3.58552,15.09027 0.3097,0.61538 1.0033,0.70379 5.52134,0.70379 4.82892,0 5.18092,0.0526 5.37749,0.80434 0.2016,0.77094 0.0123,0.80434 -4.55806,0.80434 -4.02951,0 -4.82643,0.10371 -5.14295,0.66929 -0.25988,0.46438 0.10638,2.51256 1.19631,6.69003 0.86397,3.3114 1.66762,6.17731 1.78589,6.36867 0.11827,0.19137 2.53594,0.34794 5.37261,0.34794 4.79318,0 5.17219,0.056 5.36474,0.79229 0.19661,0.75182 -0.0424,0.79803 -4.67858,0.90488 l -4.88577,0.11259 -0.12666,1.09971 c -0.0697,0.60484 0.24705,2.46187 0.7038,4.12673 1.00557,3.66531 1.00258,3.4202 0.0416,3.4202 -0.59042,0 -0.90029,-0.42991 -1.23195,-1.70922 -0.24371,-0.94007 -0.76355,-2.88556 -1.15521,-4.32332 l -0.71209,-2.6141 -6.71148,-0.11031 c -5.92426,-0.0974 -6.74127,-0.0326 -6.9656,0.55196 -0.21428,0.55842 0.28648,3.29634 1.33519,7.30011 0.18967,0.72414 0.0701,0.90488 -0.59873,0.90488 -0.6284,0 -0.93236,-0.37415 -1.22517,-1.50813 -0.21419,-0.82948 -0.72059,-2.77497 -1.12533,-4.32332 l -0.73589,-2.81519 h -5.02326 -5.02326 l -0.12665,1.09971 c -0.0697,0.60484 0.24705,2.46187 0.70379,4.12673 1.00557,3.66531 1.00259,3.4202 0.0416,3.4202 -0.5888,0 -0.90382,-0.43343 -1.24228,-1.70922 z m 9.5639,-9.44683 c 0.14766,-0.38481 -0.45324,-3.50665 -1.33534,-6.93743 l -1.60382,-6.23777 -4.80582,-0.11413 c -4.01295,-0.0953 -4.88277,-0.009 -5.2722,0.52366 -0.3668,0.50164 -0.13629,1.92193 1.07974,6.65271 0.85036,3.3082 1.65704,6.19439 1.79261,6.41376 0.14076,0.22775 2.31203,0.39885 5.06142,0.39885 4.20378,0 4.849,-0.0888 5.08341,-0.69965 z m 16.08367,0.008 c 0.29053,-0.75713 -2.51534,-12.06418 -3.19903,-12.89135 -0.3183,-0.3851 -2.03283,-0.48501 -6.90148,-0.40217 l -6.47797,0.11023 -0.12356,1.06764 c -0.10492,0.90655 2.46851,11.61393 3.00561,12.50558 0.0999,0.1659 3.16279,0.30163 6.80637,0.30163 5.89355,0 6.65397,-0.0763 6.89006,-0.69156 z m -20.11854,-15.65837 c 0.24238,-0.63165 -2.83288,-13.63244 -3.57651,-15.11983 -0.30578,-0.61161 -0.98376,-0.70379 -5.17637,-0.70379 -4.20021,0 -4.85901,0.0899 -5.09116,0.69488 -0.25048,0.65274 2.81722,13.56366 3.58552,15.09027 0.30774,0.61148 0.98699,0.70379 5.17871,0.70379 4.11747,0 4.86192,-0.0975 5.07981,-0.66532 z m 16.0724,0.0375 c 0.21242,-0.55356 -2.62107,-12.58661 -3.52182,-14.9562 -0.3376,-0.88811 -0.4674,-0.90488 -7.00235,-0.90488 -5.74049,0 -6.6925,0.089 -6.906,0.64532 -0.22272,0.58039 2.54784,12.35952 3.48982,14.83712 l 0.38267,1.0065 h 6.65838 c 5.66352,0 6.69436,-0.0938 6.8993,-0.62786 z"
         id="path1361"
         transform="scale(0.26458333)" />
    </g>
    <g
       id="g5390">
      <g
         id="g874"
         transform="matrix(0.30371152,0,0,0.34804143,161.42219,194.37606)">
        <g
           id="g870"
           transform="translate(1.2042194,-1.2042194)">
          <g
             id="g866">
            <path
               id="path862"
               style="fill:none;stroke:#000000;stroke-width:1.865;stroke-linecap:butt;stroke-linejoin:miter;stroke-miterlimit:4;stroke-dasharray:none;stroke-opacity:1"
               d="M -25.084667,113.08009 -35.835238,97.153313 m 1.194507,24.686497 c -3.388169,-4.79529 -4.845359,-10.91548 -3.981694,-16.72311 0.477858,-3.21331 1.63396,-6.303626 3.185356,-9.157896 3.006898,-5.532113 7.537606,-10.225989 12.959918,-13.426653 5.422312,-3.200664 11.721105,-4.899189 18.0174584,-4.858567 6.2963532,0.04062 12.5727065,1.820278 17.9532696,5.090638 5.380563,3.27036 9.85033,8.022304 12.785598,13.592754 M 61.716245,142.94278 26.279175,96.356976 M 13.935926,160.46223 -25.084667,113.08009 M -1.9908466,166.0366 -34.640731,121.83981 M 91.180773,261.19907 C 83.521113,256.07712 76.079638,250.6289 68.883291,244.87413 41.161109,222.70528 17.112057,195.95409 -1.9908466,166.0366 M 61.716245,142.94278 129.8032,215.80777 M 13.935926,160.46223 82.02288,233.32722 m 60.52174,6.37072 a 30.858124,28.66819 0 0 1 -30.85813,28.66819 30.858124,28.66819 0 0 1 -30.858121,-28.66819 30.858124,28.66819 0 0 1 30.858121,-28.66819 30.858124,28.66819 0 0 1 30.85813,28.66819 z"
               clip-path="url(#clipPath3088)" />
            <path
               id="path864"
               style="fill:none;stroke:#000000;stroke-width:1.865;stroke-linecap:round;stroke-linejoin:round;stroke-opacity:0.955017;paint-order:stroke markers fill"
               transform="rotate(-31.600614)"
               d="m -39.265804,131.09134 a 25.084667,5.3752856 0 0 1 -25.084667,5.37528 25.084667,5.3752856 0 0 1 -25.084668,-5.37528 25.084667,5.3752856 0 0 1 25.084668,-5.37529 25.084667,5.3752856 0 0 1 25.084667,5.37529 z m 1.840049,22.25583 a 25.084667,5.3752856 0 0 1 -25.084667,5.37528 25.084667,5.3752856 0 0 1 -25.084667,-5.37528 25.084667,5.3752856 0 0 1 25.084667,-5.37529 25.084667,5.3752856 0 0 1 25.084667,5.37529 z m 3.679173,36.43431 a 25.084667,5.3752856 0 0 1 -25.084667,5.37528 25.084667,5.3752856 0 0 1 -25.084667,-5.37528 25.084667,5.3752856 0 0 1 25.084667,-5.37529 25.084667,5.3752856 0 0 1 25.084667,5.37529 z m -1.97818,-17.99181 a 25.084667,5.3752856 0 0 1 -25.084667,5.37529 25.084667,5.3752856 0 0 1 -25.084667,-5.37529 25.084667,5.3752856 0 0 1 25.084667,-5.37528 25.084667,5.3752856 0 0 1 25.084667,5.37528 z" />
          </g>
          <path
             id="path868"
             style="fill:none;stroke:#000000;stroke-width:1.68964;stroke-linecap:round;stroke-linejoin:round;stroke-opacity:0.955017;paint-order:stroke markers fill"
             transform="matrix(0.78120788,-0.62427096,0.7340055,0.67914353,0,0)"
             d="m -41.407351,127.53637 a 14.206868,5.5716028 0 0 1 -14.206869,5.5716 14.206868,5.5716028 0 0 1 -14.206868,-5.5716 14.206868,5.5716028 0 0 1 14.206868,-5.5716 14.206868,5.5716028 0 0 1 14.206869,5.5716 z m -1.91251,20.05891 a 14.206868,5.5716028 0 0 1 -14.206869,5.5716 14.206868,5.5716028 0 0 1 -14.206868,-5.5716 14.206868,5.5716028 0 0 1 14.206868,-5.57161 14.206868,5.5716028 0 0 1 14.206869,5.57161 z m -3.513161,22.48336 a 14.206868,5.5716028 0 0 1 -14.206868,5.57161 14.206868,5.5716028 0 0 1 -14.206868,-5.57161 14.206868,5.5716028 0 0 1 14.206868,-5.5716 14.206868,5.5716028 0 0 1 14.206868,5.5716 z m -2.246609,18.97255 a 14.206868,5.5716028 0 0 1 -14.206868,5.57161 14.206868,5.5716028 0 0 1 -14.206868,-5.57161 14.206868,5.5716028 0 0 1 14.206868,-5.5716 14.206868,5.5716028 0 0 1 14.206868,5.5716 z"
             clip-path="url(#clipPath4580)" />
        </g>
        <path
           id="path872"
           style="fill:none;stroke:#000000;stroke-width:1.6926;stroke-linecap:round;stroke-linejoin:round;stroke-miterlimit:4;stroke-dasharray:none;stroke-opacity:0.955017;paint-order:stroke markers fill"
           d="m 92.155455,219.65241 c -0.49835,0 -0.794083,0.35536 -0.662959,0.79665 l 1.19489,4.02141 h -4.347577 c -0.466599,0 -0.743431,0.33272 -0.620695,0.74587 l 0.519908,1.74972 c 0.12274,0.41314 0.5973,0.74563 1.063884,0.74563 h 4.347541 l 3.156498,10.62302 h -4.347597 c -0.466571,0 -0.743457,0.3327 -0.620691,0.74588 l 0.519913,1.74971 c 0.122747,0.41316 0.597254,0.74561 1.063856,0.74561 h 4.347571 l 2.567923,8.64219 h -4.34757 c -0.466577,0 -0.74346,0.33272 -0.62069,0.74588 l 0.519907,1.74972 c 0.122751,0.41314 0.597373,0.74586 1.063949,0.74586 h 4.347554 l 1.78347,6.00226 c 0.13113,0.44129 0.63794,0.7964 1.13632,0.7964 h 1.83315 c 0.49836,0 0.79387,-0.35511 0.66273,-0.7964 l -1.78347,-6.00226 h 7.27181 l 1.7835,6.00226 c 0.13112,0.44129 0.63764,0.7964 1.13602,0.7964 h 1.83317 c 0.49835,0 0.79414,-0.35511 0.66301,-0.7964 l -1.78347,-6.00226 h 10.34705 l 1.78347,6.00226 c 0.13109,0.44129 0.63789,0.7964 1.13628,0.7964 h 1.83318 c 0.49836,0 0.79386,-0.35511 0.66274,-0.7964 l -1.78351,-6.00226 h 8.38632 c 0.46657,0 0.74315,-0.33272 0.62039,-0.74586 l -0.51988,-1.74972 c -0.12278,-0.41316 -0.59704,-0.74588 -1.06367,-0.74588 h -8.38629 l -2.56794,-8.64219 h 8.38628 c 0.4666,0 0.74327,-0.33245 0.62051,-0.74561 l -0.51991,-1.74971 c -0.12279,-0.41318 -0.59703,-0.74588 -1.06367,-0.74588 h -8.3863 l -3.15653,-10.62302 h 8.38631 c 0.46658,0 0.74326,-0.33249 0.62051,-0.74563 l -0.51995,-1.74972 c -0.12275,-0.41315 -0.59702,-0.74587 -1.06362,-0.74587 h -8.3863 l -1.19494,-4.02141 c -0.13109,-0.44129 -0.63761,-0.79665 -1.1361,-0.79665 h -1.83316 c -0.49834,0 -0.79405,0.35536 -0.66294,0.79665 l 1.19494,4.02141 h -10.34696 l -1.19495,-4.02141 c -0.1311,-0.44129 -0.63795,-0.79665 -1.13637,-0.79665 h -1.83312 c -0.49833,0 -0.79383,0.35536 -0.66268,0.79665 l 1.19492,4.02141 h -7.271818 l -1.194903,-4.02141 c -0.131112,-0.44129 -0.637613,-0.79665 -1.136083,-0.79665 z m 5.127244,8.05928 h 7.271791 l 3.15648,10.62302 h -7.27182 z m 10.903991,0 h 10.34697 l 3.15649,10.62302 h -10.34697 z m -6.78447,13.86421 h 7.27183 l 2.56788,8.6422 h -7.27181 z m 10.90404,0 h 10.34702 l 2.56793,8.6422 h -10.34702 z" />
      </g>
      <path
         style="fill:#373e48;stroke:#000000;stroke-width:8.25083;stroke-linecap:round;stroke-linejoin:round;stroke-opacity:0.955017;paint-order:stroke markers fill"
         d="m 688.30767,1015.569 c -8.79085,-10.8128 -15.9065,-20.04517 -15.81254,-20.51644 0.094,-0.47127 4.14,-4.20929 8.99121,-8.30671 8.94886,-7.55838 14.16519,-15.21229 12.79717,-18.77729 -1.71308,-4.46422 -13.81789,-0.84396 -26.61301,7.95931 -3.53572,2.43264 -7.34558,4.0711 -8.46636,3.64102 -3.07589,-1.18033 -2.47212,-2.82627 2.0074,-5.47238 2.22486,-1.31426 7.61898,-5.9067 11.98694,-10.20543 6.12235,-6.0253 7.94176,-8.77829 7.94176,-12.01679 0,-3.73776 -0.4716,-4.20091 -4.27757,-4.20091 -4.65784,0 -15.43731,4.99402 -25.14426,11.64908 -4.94061,3.38728 -6.39525,3.83619 -7.3821,2.2782 -1.82045,-2.87403 -1.84671,-2.83955 7.38369,-9.6966 10.42425,-7.74393 16.72819,-15.3934 16.72819,-20.29869 0,-3.07248 -0.63599,-3.67293 -3.87813,-3.66141 -4.97297,0.0177 -17.2163,5.71864 -25.77703,12.00279 -3.67595,2.69839 -7.03126,4.90617 -7.45625,4.90617 -0.42498,0 -2.07368,-1.82705 -3.66376,-4.06011 l -2.89105,-4.06012 5.26293,-3.49765 c 8.15784,-5.42158 19.96818,-16.52923 22.2343,-20.91143 2.50333,-4.84089 1.37887,-8.36768 -2.66742,-8.3662 -4.21405,0.002 -19.75087,7.56003 -28.02513,13.6339 -3.80265,2.7914 -7.40671,4.51443 -8.00902,3.82895 -3.89205,-4.42948 -30.26896,-42.52948 -35.25172,-50.91918 l -6.04988,-10.18645 2.85999,-4.62094 c 6.86511,-11.0921 18.5898,-17.93535 30.81776,-17.98714 11.8697,-0.0503 22.69599,5.6402 28.99885,15.24226 1.86832,2.84629 8.04202,12.32538 13.71932,21.06465 l 10.32238,15.88958 -2.46586,4.57883 c -3.47723,6.45681 -2.50559,11.47112 2.33094,12.02927 2.09461,0.24173 5.08731,-0.24496 6.65044,-1.08152 2.35747,-1.26168 3.20922,-0.96067 4.9954,1.7654 1.93901,2.9593 1.92383,3.87071 -0.15253,9.1566 -3.14031,7.99447 -1.02724,10.77997 7.23745,9.54061 5.25755,-0.78842 6.06213,-0.48222 8.93181,3.39923 2.9586,4.00172 3.01423,4.47869 0.89889,7.70709 -1.24018,1.89276 -2.05012,5.22756 -1.79985,7.41066 0.35798,3.12283 1.26717,4.06301 4.26341,4.40878 2.09461,0.24172 5.18301,-0.29618 6.8631,-1.19534 2.44361,-1.30778 3.48473,-1.20483 5.20416,0.5146 1.92576,1.92576 1.85062,2.75339 -0.72209,7.9533 -4.90226,9.90836 -1.41934,14.055 8.84223,10.52724 4.97368,-1.70987 5.52907,-1.62142 7.79611,1.24166 1.34251,1.69548 9.741,11.96713 18.66332,22.82589 8.9223,10.85876 16.13308,19.83286 16.02394,19.94236 -0.10915,0.1096 -3.37145,-0.4584 -7.24958,-1.2621 -14.34918,-2.9738 -31.76358,6.2073 -38.36054,20.224 l -2.65403,5.6391 z"
         id="path950"
         transform="scale(0.26458333)" />
      <path
         style="fill:#374548;stroke:#000000;stroke-width:8.25083;stroke-linecap:round;stroke-linejoin:round;stroke-opacity:0.955017;paint-order:stroke markers fill"
         d="m 586.34142,912.59163 c -15.87025,-24.76375 -19.6708,-34.00116 -17.12784,-41.63003 1.23352,-3.70057 1.54163,-3.40535 9.70399,9.29803 8.59356,13.37449 29.84198,43.57228 31.55839,44.8501 0.52092,0.38781 -1.29403,3.03865 -4.03324,5.89076 l -4.98038,5.18565 z"
         id="path1026"
         transform="scale(0.26458333)" />
      <path
         style="fill:#374548;stroke:#000000;stroke-width:8.25083;stroke-linecap:round;stroke-linejoin:round;stroke-opacity:0.955017;paint-order:stroke markers fill"
         d="m 612.16507,952.82943 c -4.99882,-8.73703 -5.14911,-9.38674 -2.17132,-9.38674 1.20195,0 3.99473,-0.93566 6.20618,-2.07924 3.88609,-2.00958 4.13757,-1.92616 7.50568,2.48967 l 3.48488,4.5689 -5.33436,6.01107 -5.33435,6.01107 z"
         id="path1065"
         transform="scale(0.26458333)" />
      <path
         style="fill:#374548;stroke:#000000;stroke-width:8.25083;stroke-linecap:round;stroke-linejoin:round;stroke-opacity:0.955017;paint-order:stroke markers fill"
         d="m 686.27202,1047.7672 c -16.13801,-15.5993 -37.56703,-39.2087 -37.56703,-41.3896 0,-0.4867 0.86257,-0.8849 1.91683,-0.8849 1.05425,0 5.43929,-1.8797 9.74452,-4.1771 l 7.82769,-4.17705 2.47946,3.82455 c 4.36488,6.7328 30.43858,38.3751 31.62161,38.3751 0.62723,0 0.80279,2.5171 0.39015,5.5936 -0.41264,3.0765 -0.006,8.5478 0.90281,12.1585 0.90918,3.6107 1.37301,6.8449 1.03073,7.1872 -0.34228,0.3423 -8.59832,-7.0874 -18.34677,-16.5103 z"
         id="path1104"
         transform="scale(0.26458333)" />
      <path
         style="fill:#374548;stroke:#000000;stroke-width:3.11937;stroke-linecap:round;stroke-linejoin:round;stroke-opacity:0.955017;paint-order:stroke markers fill"
         d="m 637.82572,993.66782 c -3.59681,-4.92944 -4.20837,-6.04299 -3.46555,-6.31008 0.49611,-0.17838 2.66208,-0.88269 4.81327,-1.56513 2.1512,-0.68245 6.16348,-2.48519 8.91617,-4.0061 4.49576,-2.484 5.03672,-2.66503 5.31774,-1.77959 0.17207,0.54214 1.12997,1.65924 2.12866,2.48245 l 1.81581,1.49674 -3.9872,3.44747 c -3.93584,3.40306 -9.1171,9.17682 -10.0532,11.20284 -0.26474,0.57298 -0.62463,1.03624 -0.79974,1.02947 -0.17512,-0.007 -2.2838,-2.7059 -4.68596,-5.99807 z"
         id="path1143"
         transform="scale(0.26458333)" />
      <path
         style="fill:#374548;stroke:#000000;stroke-width:3.11937;stroke-linecap:round;stroke-linejoin:round;stroke-opacity:0.955017;paint-order:stroke markers fill"
         d="m 624.89172,974.76427 -4.32871,-6.78643 3.21403,-0.71389 c 1.76772,-0.39264 5.77914,-2.01724 8.91428,-3.61022 3.13514,-1.59298 5.83628,-2.89633 6.00253,-2.89633 0.16626,0 0.86647,1.06349 1.55602,2.3633 0.68955,1.29982 1.61505,2.50196 2.05666,2.67142 0.57905,0.2222 -0.67215,1.75601 -4.48729,5.50083 -2.90961,2.856 -5.95765,6.33235 -6.7734,7.72524 -0.81575,1.39288 -1.56019,2.53252 -1.6543,2.53252 -0.0941,0 -2.11903,-3.0539 -4.49982,-6.78644 z"
         id="path1182"
         transform="scale(0.26458333)" />
      <path
         style="fill:#b7c4c8;stroke:#000000;stroke-width:3.11937;stroke-linecap:round;stroke-linejoin:round;stroke-opacity:0.955017;paint-order:stroke markers fill"
         d="m 604.07222,940.34856 c 0,-0.37502 1.56943,-2.23442 3.48764,-4.132 1.9182,-1.89758 4.32514,-4.64976 5.34875,-6.11596 2.09018,-2.99392 2.63296,-3.42099 11.95691,-9.40805 8.78877,-5.64341 23.02054,-12.8013 23.83433,-11.98751 0.62254,0.62255 -1.80917,3.73466 -6.58628,8.42913 -6.15123,6.04483 -10.13781,9.37681 -15.64856,13.07904 -2.19929,1.47753 -4.4468,3.18636 -4.99445,3.7974 -0.54766,0.61104 -2.22712,1.51367 -3.73213,2.00584 -1.50502,0.49217 -3.62655,1.34181 -4.71451,1.88809 -1.08797,0.54628 -2.53676,0.99323 -3.21953,0.99323 -0.68278,0 -2.1826,0.47985 -3.33295,1.06632 -2.47413,1.26139 -2.39922,1.24939 -2.39922,0.38447 z"
         id="path1258"
         transform="scale(0.26458333)" />
      <path
         style="fill:#b7c4c8;stroke:#000000;stroke-width:3.11937;stroke-linecap:round;stroke-linejoin:round;stroke-opacity:0.955017;paint-order:stroke markers fill"
         d="m 658.99958,900.91 c 0.0123,-1.25622 1.738,-5.4274 2.74993,-6.6467 0.46441,-0.55957 1.06326,-0.004 2.82627,2.61999 l 2.237,3.33002 -2.69237,0.94815 c -3.75376,1.32193 -5.13552,1.25408 -5.12083,-0.25146 z"
         id="path1297"
         transform="scale(0.26458333)" />
      <path
         style="fill:#b7c4c8;stroke:#000000;stroke-width:3.11937;stroke-linecap:round;stroke-linejoin:round;stroke-opacity:0.955017;paint-order:stroke markers fill"
         d="m 619.69895,964.58786 c -0.57916,-0.36159 11.55185,-14.53714 12.81388,-14.97351 0.33919,-0.11728 0.73666,-0.3572 0.88328,-0.53316 0.82304,-0.98774 16.30891,-10.90697 19.4604,-12.46505 4.71273,-2.32995 10.31687,-4.37382 10.76472,-3.92596 0.57763,0.57763 -3.52972,6.05819 -6.83048,9.11411 -1.71787,1.59045 -5.22522,4.50688 -7.79411,6.48097 -2.56889,1.97409 -5.67333,4.54146 -6.89874,5.70527 -5.33025,5.06229 -20.08407,12.04258 -22.39895,10.59733 z"
         id="path1336"
         transform="scale(0.26458333)" />
      <path
         style="fill:#b7c4c8;stroke:#000000;stroke-width:3.11937;stroke-linecap:round;stroke-linejoin:round;stroke-opacity:0.955017;paint-order:stroke markers fill"
         d="m 632.17083,983.87983 c -1.57696,-1.57695 11.33575,-15.07555 17.32395,-18.11 1.38652,-0.70261 4.61489,-2.64236 7.17414,-4.31057 7.62201,-4.96827 18.74152,-10.04878 19.76134,-9.02895 1.11266,1.11265 -9.91931,12.30056 -17.58817,17.8368 -2.55897,1.84734 -4.65267,3.56088 -4.65267,3.80786 0,0.24698 -1.50295,1.39825 -3.3399,2.55838 -8.25542,5.21378 -17.22977,8.69541 -18.67869,7.24648 z"
         id="path1375"
         transform="scale(0.26458333)" />
      <path
         style="fill:#b7c4c8;stroke:#000000;stroke-width:3.11937;stroke-linecap:round;stroke-linejoin:round;stroke-opacity:0.955017;paint-order:stroke markers fill"
         d="m 644.59251,1002.4484 c 0,-0.2358 0.72527,-1.5724 1.61171,-2.97019 3.10332,-4.89343 13.68144,-14.37707 19.0361,-17.06651 1.53279,-0.76986 4.65179,-2.61758 6.9311,-4.10604 2.27932,-1.48846 5.82367,-3.50647 7.87634,-4.48447 4.17813,-1.99069 9.33033,-3.6359 9.33033,-2.97938 0,0.72154 -2.65607,4.45747 -4.71712,6.63493 -1.07107,1.13156 -5.05696,4.85036 -8.85753,8.264 -6.59405,5.92272 -7.33475,6.42002 -16.19282,10.87179 -5.10548,2.56584 -9.80754,4.66517 -10.44901,4.66517 -0.64148,0 -1.63205,0.3522 -2.20126,0.7828 -1.13609,0.8593 -2.36784,1.0611 -2.36784,0.3879 z"
         id="path1414"
         transform="scale(0.26458333)" />
      <path
         style="fill:#b7c4c8;stroke:#000000;stroke-width:3.11937;stroke-linecap:round;stroke-linejoin:round;stroke-opacity:0.955017;paint-order:stroke markers fill"
         d="m 689.91291,943.29635 c 9.2e-4,-0.51316 0.66071,-2.31394 1.4662,-4.00172 l 1.46453,-3.06869 2.45964,3.09235 2.45964,3.09235 -2.19866,0.90937 c -2.96559,1.22658 -5.65355,1.21533 -5.65135,-0.0237 z"
         id="path1453"
         transform="scale(0.26458333)" />
      <path
         style="fill:#b7c4c8;stroke:#000000;stroke-width:3.11937;stroke-linecap:round;stroke-linejoin:round;stroke-opacity:0.955017;paint-order:stroke markers fill"
         d="m 703.62166,962.2236 c 0.12843,-0.65979 0.99487,-2.82828 1.92543,-4.81887 l 1.69192,-3.61925 2.84149,3.61925 2.8415,3.61925 -3.64124,1.17275 c -4.87003,1.5685 -5.96018,1.57368 -5.6591,0.0269 z"
         id="path1492"
         transform="scale(0.26458333)" />
      <path
         style="fill:#b7c4c8;fill-opacity:1;stroke:#000000;stroke-width:3.11937;stroke-linecap:round;stroke-linejoin:round;stroke-opacity:0.955017;paint-order:stroke markers fill"
         d="m 673.38324,921.42069 c 0,-0.28633 0.56594,-2.02605 1.25765,-3.86604 l 1.25766,-3.34543 2.25566,3.32161 c 1.24062,1.82689 2.17419,3.39611 2.07461,3.48716 -0.53408,0.48829 -6.84558,0.85957 -6.84558,0.4027 z"
         id="path4298"
         transform="scale(0.26458333)" />
      <path
         style="fill:#b7bec8;fill-opacity:1;stroke:#000000;stroke-width:3.11937;stroke-linecap:round;stroke-linejoin:round;stroke-opacity:0.955017;paint-order:stroke markers fill"
         d="m 732.03103,1083.6106 c -6.29068,-1.6521 -13.23745,-5.9979 -17.52502,-10.9633 -2.58046,-2.9884 -5.40094,-7.9703 -5.40094,-9.5398 0,-0.777 -0.49247,-3.771 -1.09438,-6.6534 -1.55158,-7.43 -1.26724,-16.4593 0.635,-20.1648 1.15862,-2.2569 1.40932,-2.4717 2.02257,-1.7327 0.46084,0.5552 1.57632,0.8434 3.26462,0.8434 1.98047,0 2.62832,0.2126 2.84434,0.9331 1.00489,3.3516 2.45793,9.0187 2.45793,9.5862 0,0.4106 -0.69248,0.6771 -1.75944,0.6771 -2.93383,0 -3.70738,1.6558 -2.4537,5.2521 0.5584,1.6018 0.71681,1.679 3.445,1.679 h 2.85968 l 0.58785,2.266 c 0.32331,1.2462 0.81106,3.1056 1.0839,4.132 0.709,2.6671 0.70977,2.6658 -1.56536,2.6658 -2.49969,0 -3.4364,0.9549 -2.95721,3.0147 0.72407,3.1123 1.63319,3.9164 4.42793,3.9164 h 2.57775 l 1.0088,3.8477 c 1.17517,4.4822 2.68796,5.8663 5.37109,4.9143 1.31425,-0.4663 1.49876,-0.7981 1.4727,-2.6482 -0.0164,-1.1633 -0.22557,-3.0284 -0.46486,-4.1446 l -0.43506,-2.0294 2.83251,0.1634 2.83252,0.1634 0.936,3.7183 c 0.5148,2.0451 1.35461,4.0245 1.86625,4.3986 1.2779,0.9344 3.67566,0.8538 4.68707,-0.1576 1.02469,-1.0247 1.0271,-1.3422 0.0381,-5.0269 -0.4329,-1.6129 -0.78993,-3.0018 -0.79341,-3.0865 -0.003,-0.085 2.07831,-0.085 4.6262,0 l 4.63254,0.1541 0.93391,3.7059 c 0.58645,2.3271 1.34471,4.0157 2.03807,4.5387 1.07386,0.81 1.01987,0.8792 -1.96761,2.5207 -6.60125,3.6272 -16.09951,4.8857 -23.06532,3.0563 z"
         id="path4760"
         transform="scale(0.26458333)" />
      <path
         style="fill:#b7bec8;fill-opacity:1;stroke:#000000;stroke-width:3.11937;stroke-linecap:round;stroke-linejoin:round;stroke-opacity:0.955017;paint-order:stroke markers fill"
         d="m 769.4687,1063.6458 c -0.57929,-0.9276 -1.25447,-1.0545 -5.60998,-1.0545 h -4.95143 l -1.09905,-4.5129 -1.09906,-4.5129 4.85539,-0.1523 4.85539,-0.1522 -0.10997,-2.3569 c -0.1621,-3.4742 -0.97112,-3.9964 -6.67297,-4.3077 l -4.88361,-0.2665 -1.21797,-4.7985 c -0.66988,-2.6392 -1.22389,-5.0984 -1.23112,-5.4649 -0.01,-0.4821 1.245,-0.6665 4.53546,-0.6665 5.07231,0 5.42028,-0.2492 4.81936,-3.4524 -0.57336,-3.0563 -1.3893,-3.4787 -6.71969,-3.4787 h -4.73982 l -0.60331,-2.2659 c -0.79062,-2.9694 -1.8972,-4.1338 -3.91901,-4.1238 -2.73026,0.014 -3.18519,0.6054 -2.82202,3.6718 l 0.32189,2.7179 h -4.48535 -4.48535 l -0.64655,-2.2659 c -0.3556,-1.2463 -1.00222,-2.6858 -1.43694,-3.199 -1.64487,-1.9417 -6.39215,-0.5708 -5.73358,1.6557 1.16322,3.9327 1.22752,3.8092 -1.98456,3.8092 h -2.94333 l -0.37663,-2.2292 c -0.21457,-1.27 -0.89149,-2.6879 -1.57312,-3.295 l -1.19649,-1.0658 1.39297,-1.1578 c 4.10354,-3.4106 10.59759,-6.2658 16.34169,-7.1848 3.20161,-0.5122 4.66482,-0.4325 10.64303,0.5799 5.72683,0.9698 7.46641,1.4932 10.01201,3.0126 4.01673,2.3975 9.19998,7.6752 11.72798,11.9416 5.73999,9.6872 6.7828,23.0445 2.60567,33.3758 -0.84831,2.0981 -0.95696,2.1811 -1.56993,1.1996 z"
         id="path4799"
         transform="scale(0.26458333)" />
      <path
         style="fill:#b7bec8;fill-opacity:1;stroke:#000000;stroke-width:3.11937;stroke-linecap:round;stroke-linejoin:round;stroke-opacity:0.955017;paint-order:stroke markers fill"
         d="m 738.71114,1045.93 c -0.11964,-0.3666 -0.80795,-2.8858 -1.52959,-5.5982 l -1.31207,-4.9318 h 4.67983 4.67983 l 1.15439,4.6652 c 0.63491,2.5658 1.28035,5.085 1.4343,5.5982 0.25139,0.838 -0.18722,0.933 -4.30463,0.933 -3.19618,0 -4.65041,-0.2018 -4.80206,-0.6664 z"
         id="path4838"
         transform="scale(0.26458333)" />
      <path
         style="fill:#b7bec8;fill-opacity:1;stroke:#000000;stroke-width:3.11937;stroke-linecap:round;stroke-linejoin:round;stroke-opacity:0.955017;paint-order:stroke markers fill"
         d="m 741.94151,1058.7259 c -0.52125,-2.126 -1.06496,-4.1654 -1.20824,-4.5319 -0.1965,-0.5027 0.90274,-0.6665 4.47328,-0.6665 h 4.7338 l 1.10368,4.5319 1.10368,4.5319 h -4.62924 -4.62924 z"
         id="path4877"
         transform="scale(0.26458333)" />
      <path
         style="fill:#b7bec8;fill-opacity:1;stroke:#000000;stroke-width:3.11937;stroke-linecap:round;stroke-linejoin:round;stroke-opacity:0.955017;paint-order:stroke markers fill"
         d="m 725.17221,1042.1979 c -0.61873,-2.4193 -1.27598,-4.9385 -1.46055,-5.5982 -0.31811,-1.1372 -0.18597,-1.1997 2.53696,-1.1997 h 2.87255 l 1.272,4.9318 c 0.69961,2.7124 1.37999,5.2316 1.51197,5.5982 0.17331,0.4813 -0.57228,0.6664 -2.684,0.6664 h -2.92396 z"
         id="path4916"
         transform="scale(0.26458333)" />
      <path
         style="fill:#b7bec8;fill-opacity:1;stroke:#000000;stroke-width:3.11937;stroke-linecap:round;stroke-linejoin:round;stroke-opacity:0.955017;paint-order:stroke markers fill"
         d="m 729.8848,1060.3253 c -0.32331,-1.2462 -0.81107,-3.1056 -1.0839,-4.132 -0.7295,-2.7442 -0.7377,-2.7351 2.29709,-2.5603 l 2.7991,0.1611 1.15306,4.3986 1.15306,4.3986 h -2.86528 -2.86529 z"
         id="path4955"
         transform="scale(0.26458333)" />
      <path
         style="fill:#b7bec8;fill-opacity:1;stroke:#000000;stroke-width:1.17649;stroke-linecap:round;stroke-linejoin:round;stroke-opacity:0.955017;paint-order:stroke markers fill"
         d="m 712.36277,1028.498 c 0.34871,-0.6066 1.80061,-2.5527 1.90834,-2.558 0.0653,0 0.23524,0.5144 0.37754,1.1504 0.1423,0.6359 0.30211,1.2693 0.35514,1.4076 0.0716,0.1866 -0.27441,0.2513 -1.34456,0.2513 -1.09579,0 -1.40635,-0.06 -1.29646,-0.2513 z"
         id="path5033"
         transform="scale(0.26458333)" />
      <path
         style="fill:#b7bec8;fill-opacity:1;stroke:#000000;stroke-width:2.04923;stroke-linecap:round;stroke-linejoin:round;stroke-opacity:0.955017;paint-order:stroke markers fill"
         d="m 761.47977,1072.6109 c -0.41759,-1.665 -0.69413,-3.0923 -0.61452,-3.1719 0.0796,-0.08 1.60809,-0.099 3.39664,-0.043 l 3.25191,0.1013 -2.13824,2.6564 c -3.21298,3.9916 -3.01529,3.9684 -3.89579,0.4577 z"
         id="path5072"
         transform="scale(0.26458333)" />
      <path
         style="fill:#3e3748;fill-opacity:1;stroke:#000000;stroke-width:2.04923;stroke-linecap:round;stroke-linejoin:round;stroke-opacity:0.955017;paint-order:stroke markers fill"
         d="m 729.19444,1074.1377 c -0.22499,-0.8187 -0.74331,-2.7495 -1.15182,-4.2906 l -0.74275,-2.802 -3.02638,-0.1007 c -2.90333,-0.097 -3.03309,-0.1357 -3.19127,-0.9632 -0.16202,-0.8475 -0.12383,-0.8625 2.19542,-0.8625 3.53864,0 3.52728,0.045 1.75614,-6.9252 -0.81888,-3.2225 -1.63125,-6.1286 -1.80526,-6.4579 -0.25183,-0.4767 -0.90496,-0.6196 -3.20118,-0.7005 -2.67082,-0.094 -2.89295,-0.159 -2.99466,-0.874 -0.10357,-0.7281 0.0366,-0.7781 2.45177,-0.8756 l 2.56163,-0.1033 0.0827,-1.0508 c 0.0455,-0.5779 -0.74816,-4.203 -1.76361,-8.0558 l -1.84628,-7.0051 -3.05237,-0.1012 c -1.6788,-0.056 -3.05236,-0.2398 -3.05236,-0.4091 0,-0.1694 -0.0957,-0.5573 -0.2126,-0.862 -0.18243,-0.4754 0.16708,-0.5541 2.46276,-0.5541 3.26721,0 3.35789,-0.1406 2.40166,-3.724 l -0.69841,-2.6173 0.87838,0.1059 c 0.90779,0.1096 0.99844,0.3087 2.16069,4.7469 l 0.38982,1.4885 h 4.84716 c 5.86283,0 5.91644,-0.033 5.11889,-3.1104 -0.30226,-1.1665 -0.64223,-2.3623 -0.75549,-2.6575 -0.15161,-0.395 0.0284,-0.5366 0.68232,-0.5366 0.91695,0 1.13097,0.4666 2.24915,4.9035 l 0.30894,1.2259 6.72845,0.095 c 6.03087,0.085 6.75185,0.034 6.95416,-0.4931 0.20386,-0.5312 -0.33438,-3.9518 -0.82165,-5.2216 -0.14,-0.3648 0.0603,-0.5099 0.70393,-0.5099 0.76454,0 0.95734,0.2235 1.28414,1.4886 0.21149,0.8187 0.57729,2.1978 0.81289,3.0647 l 0.42836,1.5761 5.33003,0.097 c 2.93152,0.053 5.33003,0.2373 5.33003,0.4092 0,0.1718 0.0957,0.5618 0.2126,0.8665 0.18764,0.489 -0.36467,0.554 -4.70481,0.554 -4.58404,0 -4.93224,0.047 -5.1363,0.6897 -0.16747,0.5276 2.25887,10.9315 3.53326,15.1502 0.16056,0.5315 0.82065,0.6155 5.50305,0.7005 5.19677,0.094 5.32319,0.1147 5.43123,0.8746 0.10914,0.7678 0.0466,0.7794 -4.72842,0.8757 l -4.83902,0.098 -0.10764,0.9301 c -0.13739,1.1873 2.68801,12.2943 3.21453,12.6368 0.2176,0.1415 2.62477,0.2597 5.34927,0.2627 5.06274,0.01 5.37882,0.09 5.37882,1.435 0,0.18 -2.16351,0.3216 -4.91452,0.3216 -4.16558,0 -4.94705,0.085 -5.12789,0.556 -0.11734,0.3058 0.20284,2.108 0.7115,4.0049 1.12106,4.1807 1.12153,4.1954 0.1314,4.1954 -0.7041,0 -0.88195,-0.3451 -1.57935,-3.0647 -0.43224,-1.6856 -0.94947,-3.6557 -1.1494,-4.3781 l -0.36351,-1.3135 h -6.78986 c -6.15919,0 -6.80787,0.057 -6.98372,0.613 -0.10661,0.3371 0.2519,2.3153 0.7967,4.3961 l 0.99055,3.7831 -0.89828,-0.1055 c -0.83668,-0.098 -0.97325,-0.3937 -1.99149,-4.3085 l -1.0932,-4.203 h -5.0458 -5.0458 l -0.1065,0.9182 c -0.0924,0.7972 0.93254,5.5129 1.54541,7.11 0.15935,0.4153 -0.0118,0.5529 -0.68743,0.5529 -0.76069,0 -0.96278,-0.2298 -1.30868,-1.4885 z m 9.46473,-9.5156 c 0.32271,-0.3888 0.0946,-1.7376 -1.05127,-6.217 -0.80487,-3.1462 -1.59758,-6.075 -1.76158,-6.5085 -0.28877,-0.7632 -0.44617,-0.7881 -4.99237,-0.7881 -3.8468,0 -4.77693,0.1 -5.15251,0.5523 -0.38408,0.4628 -0.21161,1.5265 1.06477,6.5672 0.83771,3.3083 1.6744,6.212 1.85933,6.4528 0.51102,0.6654 9.47621,0.6129 10.03363,-0.059 z m 16.08015,-0.1164 c 0.2214,-0.4247 -0.1405,-2.4163 -1.17864,-6.4863 -0.82397,-3.2303 -1.58903,-6.1102 -1.70011,-6.3997 -0.17182,-0.4477 -1.20984,-0.5121 -6.95242,-0.4312 l -6.75045,0.095 -0.11616,0.8204 c -0.13381,0.9451 2.63328,11.9193 3.17113,12.5767 0.2629,0.3214 2.06764,0.4379 6.78267,0.4379 5.76333,0 6.45735,-0.063 6.74398,-0.613 z m -19.97004,-15.9636 c 0.14682,-0.765 -3.37587,-14.5802 -3.87807,-15.2089 -0.2483,-0.3108 -1.70336,-0.4378 -5.01784,-0.4378 -3.96472,0 -4.71662,0.087 -4.98997,0.5751 -0.17703,0.3164 -0.26202,0.8286 -0.18889,1.1384 0.67974,2.8788 3.69066,14.2158 3.83944,14.4566 0.10563,0.1709 2.42415,0.267 5.15226,0.2137 4.48247,-0.088 4.97205,-0.1587 5.08307,-0.7371 z m 16.0518,0.2747 c 0.2248,-0.5859 -3.28637,-14.7645 -3.83432,-15.4836 -0.52898,-0.6941 -12.97197,-0.6179 -13.55372,0.083 -0.35007,0.4218 -0.0834,1.8704 1.40223,7.618 1.00898,3.9034 1.97782,7.3729 2.15298,7.71 0.28632,0.5511 0.99012,0.613 6.97194,0.613 5.67392,0 6.68401,-0.08 6.86089,-0.5405 z"
         id="path5148"
         transform="scale(0.26458333)" />
    </g>
    <path
       style="fill:#3e3748;fill-opacity:1;stroke:#000000;stroke-width:2.04923;stroke-linecap:round;stroke-linejoin:round;stroke-opacity:0.955017;paint-order:stroke markers fill"
       d=""
       id="path5187"
       transform="scale(0.26458333)" />
  </g>
  <g
     inkscape:groupmode="layer"
     id="layer2"
     inkscape:label="Layer 2" />
</svg>
