<?xml version="1.0" encoding="UTF-8" standalone="no"?>
<!-- Created with Inkscape (http://www.inkscape.org/) -->

<svg
   width="210mm"
   height="297mm"
   viewBox="0 0 210 297"
   version="1.1"
   id="svg5"
   inkscape:version="1.1.1 (3bf5ae0d25, 2021-09-20)"
   sodipodi:docname="super cardioid mic track icon svg.svg"
   xmlns:inkscape="http://www.inkscape.org/namespaces/inkscape"
   xmlns:sodipodi="http://sodipodi.sourceforge.net/DTD/sodipodi-0.dtd"
   xmlns="http://www.w3.org/2000/svg"
   xmlns:svg="http://www.w3.org/2000/svg">
  <sodipodi:namedview
     id="namedview7"
     pagecolor="#ffffff"
     bordercolor="#666666"
     borderopacity="1.0"
     inkscape:pageshadow="2"
     inkscape:pageopacity="0.0"
     inkscape:pagecheckerboard="0"
     inkscape:document-units="mm"
     showgrid="false"
     inkscape:zoom="0.41053452"
     inkscape:cx="389.7358"
     inkscape:cy="468.90089"
     inkscape:window-width="1680"
     inkscape:window-height="956"
     inkscape:window-x="-11"
     inkscape:window-y="-11"
     inkscape:window-maximized="1"
     inkscape:current-layer="layer1" />
  <defs
     id="defs2">
    <inkscape:path-effect
       effect="spiro"
       id="path-effect4302"
       is_visible="true"
       lpeversion="1" />
    <inkscape:path-effect
       effect="spiro"
       id="path-effect4275"
       is_visible="true"
       lpeversion="1" />
    <inkscape:path-effect
       effect="spiro"
       id="path-effect4250"
       is_visible="true"
       lpeversion="1" />
    <inkscape:path-effect
       effect="spiro"
       id="path-effect4246"
       is_visible="true"
       lpeversion="1" />
    <inkscape:path-effect
       effect="spiro"
       id="path-effect4236"
       is_visible="true"
       lpeversion="1" />
    <inkscape:path-effect
       effect="spiro"
       id="path-effect4232"
       is_visible="true"
       lpeversion="1" />
    <inkscape:path-effect
       effect="spiro"
       id="path-effect4218"
       is_visible="true"
       lpeversion="1" />
    <inkscape:path-effect
       effect="spiro"
       id="path-effect4193"
       is_visible="true"
       lpeversion="1" />
    <inkscape:path-effect
       effect="spiro"
       id="path-effect4187"
       is_visible="true"
       lpeversion="1" />
    <inkscape:path-effect
       effect="spiro"
       id="path-effect4073"
       is_visible="true"
       lpeversion="1" />
    <inkscape:path-effect
       effect="spiro"
       id="path-effect3987"
       is_visible="true"
       lpeversion="1" />
    <inkscape:path-effect
       effect="spiro"
       id="path-effect3981"
       is_visible="true"
       lpeversion="1" />
    <inkscape:path-effect
       effect="spiro"
       id="path-effect3784"
       is_visible="true"
       lpeversion="1" />
    <inkscape:path-effect
       effect="spiro"
       id="path-effect3780"
       is_visible="true"
       lpeversion="1" />
    <inkscape:path-effect
       effect="spiro"
       id="path-effect3663"
       is_visible="true"
       lpeversion="1" />
    <inkscape:path-effect
       effect="spiro"
       id="path-effect3632"
       is_visible="true"
       lpeversion="1" />
    <inkscape:path-effect
       effect="spiro"
       id="path-effect3607"
       is_visible="true"
       lpeversion="1" />
    <inkscape:path-effect
       effect="spiro"
       id="path-effect3521"
       is_visible="true"
       lpeversion="1" />
    <inkscape:path-effect
       effect="spiro"
       id="path-effect3446"
       is_visible="true"
       lpeversion="1" />
    <inkscape:path-effect
       effect="spiro"
       id="path-effect3360"
       is_visible="true"
       lpeversion="1" />
    <inkscape:path-effect
       effect="spiro"
       id="path-effect3354"
       is_visible="true"
       lpeversion="1" />
    <inkscape:path-effect
       effect="spiro"
       id="path-effect3317"
       is_visible="true"
       lpeversion="1" />
    <inkscape:path-effect
       effect="spiro"
       id="path-effect3231"
       is_visible="true"
       lpeversion="1" />
    <inkscape:path-effect
       effect="spiro"
       id="path-effect3114"
       is_visible="true"
       lpeversion="1" />
    <inkscape:path-effect
       effect="spiro"
       id="path-effect3108"
       is_visible="true"
       lpeversion="1" />
    <inkscape:path-effect
       effect="spiro"
       id="path-effect2727"
       is_visible="true"
       lpeversion="1" />
    <inkscape:path-effect
       effect="spiro"
       id="path-effect2591"
       is_visible="true"
       lpeversion="1" />
    <inkscape:path-effect
       effect="spiro"
       id="path-effect1946"
       is_visible="true"
       lpeversion="1" />
  </defs>
  <g
     inkscape:label="Layer 1"
     inkscape:groupmode="layer"
     id="layer1">
    <g
       id="g1844"
       transform="translate(-2.5493567,135.11588)" />
    <path
       style="fill:none;stroke:#000000;stroke-width:0.865;stroke-linecap:butt;stroke-linejoin:miter;stroke-opacity:1;stroke-miterlimit:4;stroke-dasharray:none"
       d="m 185.79155,313.96921 c 2.11687,1.84021 4.1461,3.78122 6.07853,5.81425 0.90233,0.94931 1.78357,1.91867 2.64284,2.90713"
       id="path2725"
       inkscape:original-d="m 185.79155,313.96921 c 2.02644,1.85026 4.05262,3.87644 6.07853,5.81425 2.02591,1.93783 1.76216,1.93836 2.64284,2.90713"
       inkscape:path-effect="#path-effect2727" />
    <g
       id="g4222" />
    <g
       id="g4228"
       transform="translate(26.458344,1.0583333)" />
    <g
       id="g4242"
       transform="matrix(1.1114127,0,0,0.96556174,47.538016,4.0970982)">
      <path
         id="path4271"
         style="fill:none;stroke:#000000;stroke-width:1.00007381;stroke-linecap:butt;stroke-linejoin:miter;stroke-miterlimit:4;stroke-dasharray:none;stroke-opacity:1"
         inkscape:path-effect="#path-effect4275"
         inkscape:original-d="m -10.125142,44.001041 c 1.0304936,2.400205 2.0608906,4.800309 3.0911926,7.200318 1.030302,2.400013 -0.901502,3.008229 -1.352398,4.512202 M 0.35043362,45.422673 c -1.280444,2.108877 -2.56077102,4.217663 -3.84097302,6.326365 -1.280207,2.108706 1.120162,2.643097 1.680427,3.964523 m 0.22636,-10.867569 c -1.280444,2.108876 -2.560771,4.217662 -3.840974,6.326364 -1.280207,2.108706 1.120162,2.643097 1.680428,3.964523 m -4.640077,-11.135838 c 1.030494,2.400205 2.060891,4.800309 3.091195,7.200318 1.0303,2.400013 -0.901504,3.008229 -1.3524,4.512202 m -1.738795,-11.71252 c 1.030494,2.400205 2.060891,4.800309 3.091195,7.200318 1.0303,2.400013 -0.901504,3.008229 -1.3524,4.512202 m -3.092725,-22.669474 c 1.030494,2.400206 2.060892,4.800309 3.091194,7.200318 1.0303,2.400013 -0.901502,3.008229 -1.352398,4.512202 M 0.73727362,34.46572 c -1.280448,2.108876 -2.56077102,4.217662 -3.84097702,6.326364 -1.280207,2.108706 1.120165,2.643097 1.680427,3.964523 m 0.226364,-10.867569 c -1.280448,2.108876 -2.560771,4.217662 -3.840978,6.326364 -1.280206,2.108706 1.120166,2.643097 1.680428,3.964524 m -4.640076,-11.135839 c 1.030495,2.400206 2.060894,4.800309 3.091194,7.200318 1.030299,2.400013 -0.9015,3.008229 -1.352396,4.512202 m -1.738798,-11.71252 c 1.030495,2.400206 2.060894,4.800309 3.091194,7.200318 1.030299,2.400013 -0.9015,3.008229 -1.352396,4.512202 M -19.409236,43.808814 c 1.030493,2.400205 2.060891,4.800309 3.091192,7.200318 1.030301,2.400012 -0.901501,3.008229 -1.352397,4.512202 m 8.7367816,-10.290888 c -1.2804446,2.108877 -2.5607706,4.217662 -3.8409756,6.326365 -1.280207,2.108705 1.120164,2.643096 1.680427,3.964523 m 0.226363,-10.86757 c -1.280445,2.108877 -2.560771,4.217663 -3.840977,6.326365 -1.280206,2.108706 1.120165,2.643096 1.680428,3.964523 M -17.66847,43.808814 c 1.030495,2.400205 2.060893,4.800309 3.091193,7.200318 1.030302,2.400012 -0.9015,3.008229 -1.352396,4.512202 m -1.738797,-11.71252 c 1.030495,2.400205 2.060893,4.800309 3.091193,7.200318 1.030302,2.400012 -0.9015,3.008229 -1.352396,4.512202 M -19.022399,32.85186 c 1.030494,2.400205 2.060891,4.800309 3.091192,7.200318 1.030301,2.400013 -0.901501,3.008229 -1.352397,4.512202 m 8.7367826,-10.290888 c -1.280446,2.108877 -2.5607716,4.217663 -3.8409766,6.326365 -1.280206,2.108706 1.120164,2.643097 1.680427,3.964523 m 0.226363,-10.867569 c -1.280445,2.108876 -2.560771,4.217662 -3.840976,6.326364 -1.280206,2.108706 1.120164,2.643097 1.680427,3.964523 M -17.281632,32.85186 c 1.030494,2.400205 2.060892,4.800309 3.091193,7.200318 1.030301,2.400013 -0.901502,3.008229 -1.352397,4.512202 m -1.738796,-11.71252 c 1.030494,2.400205 2.060892,4.800309 3.091193,7.200318 1.030301,2.400013 -0.901502,3.008229 -1.352397,4.512202 m -13.53733,-1.140017 c 1.030494,2.400205 2.060891,4.800309 3.091192,7.200318 1.030302,2.400012 -0.901501,3.008229 -1.352397,4.512202 m 8.736783,-10.290888 c -1.280445,2.108877 -2.560771,4.217663 -3.840977,6.326365 -1.280206,2.108706 1.120165,2.643096 1.680428,3.964523 m 0.226363,-10.86757 c -1.280446,2.108877 -2.560772,4.217663 -3.840977,6.326365 -1.280206,2.108706 1.120164,2.643097 1.680427,3.964523 m -4.640075,-11.135838 c 1.030494,2.400205 2.060892,4.800309 3.091193,7.200318 1.030301,2.400012 -0.901501,3.008229 -1.352397,4.512202 m -1.738796,-11.71252 c 1.030494,2.400205 2.060892,4.800309 3.091193,7.200318 1.030301,2.400012 -0.901501,3.008229 -1.352397,4.512202 m -3.092726,-22.669474 c 1.030494,2.400205 2.060892,4.800309 3.091193,7.200318 1.030301,2.400013 -0.901502,3.008229 -1.352398,4.512202 m 8.736783,-10.290887 c -1.280445,2.108876 -2.560771,4.217662 -3.840976,6.326364 -1.280207,2.108706 1.120164,2.643097 1.680427,3.964523 m 0.226363,-10.867569 c -1.280445,2.108876 -2.560771,4.217662 -3.840977,6.326364 -1.280206,2.108706 1.120165,2.643097 1.680428,3.964523 m -4.640076,-11.135838 c 1.030494,2.400205 2.060892,4.800309 3.091193,7.200318 1.030302,2.400013 -0.901501,3.008229 -1.352397,4.512202 m -1.738796,-11.71252 c 1.030494,2.400205 2.060892,4.800309 3.091193,7.200318 1.030302,2.400013 -0.901501,3.008229 -1.352397,4.512202 m 15.4774326,-22.84836 c 1.030494,2.400205 2.060891,4.800307 3.091192,7.200316 1.0303,2.400013 -0.901501,3.008229 -1.352397,4.512202 M 0.73924362,22.753201 c -1.280444,2.108877 -2.56077102,4.217661 -3.84097702,6.326363 -1.280207,2.108706 1.120165,2.643097 1.680427,3.964523 m 0.226364,-10.867568 c -1.280444,2.108877 -2.560771,4.217661 -3.840978,6.326363 -1.280206,2.108706 1.120166,2.643097 1.680428,3.964523 m -4.640074,-11.135836 c 1.030494,2.400205 2.060892,4.800307 3.091192,7.200316 1.030303,2.400013 -0.9015,3.008229 -1.352396,4.512202 m -1.738796,-11.712518 c 1.030494,2.400205 2.060892,4.800307 3.091192,7.200316 1.030303,2.400013 -0.9015,3.008229 -1.352396,4.512202 m -3.092726,-22.669472 c 1.030494,2.400205 2.060892,4.800309 3.091191,7.200318 1.030303,2.400012 -0.901499,3.008229 -1.352395,4.512202 m 8.736784,-10.290888 c -1.28044798,2.108877 -2.560771,4.217663 -3.840978,6.326365 -1.280206,2.108706 1.120166,2.643096 1.680428,3.964523 m 0.22636302,-10.86757 c -1.28044702,2.108877 -2.56077102,4.217663 -3.84097702,6.326365 -1.280207,2.108706 1.120165,2.643097 1.680427,3.964523 m -4.640076,-11.135838 c 1.030496,2.400205 2.060891,4.800309 3.091194,7.200318 1.0303,2.400012 -0.901503,3.008229 -1.352399,4.512202 m -1.738795,-11.71252 c 1.030496,2.400205 2.060891,4.800309 3.091194,7.200318 1.0303,2.400012 -0.901503,3.008229 -1.352399,4.512202 M -19.020427,21.139341 c 1.030493,2.400206 2.060891,4.800309 3.091192,7.200317 1.030301,2.400012 -0.901501,3.008229 -1.352397,4.512202 m 8.7367826,-10.290886 c -1.280446,2.108876 -2.5607716,4.217661 -3.8409766,6.326363 -1.280206,2.108706 1.120164,2.643096 1.680427,3.964523 m 0.226363,-10.867568 c -1.280445,2.108876 -2.560771,4.217661 -3.840976,6.326363 -1.280207,2.108706 1.120164,2.643097 1.680427,3.964523 m -4.640076,-11.135837 c 1.030495,2.400206 2.060893,4.800309 3.091194,7.200317 1.030301,2.400012 -0.901502,3.008229 -1.352398,4.512202 m -1.738796,-11.712519 c 1.030495,2.400206 2.060893,4.800309 3.091194,7.200317 1.030301,2.400012 -0.901502,3.008229 -1.352398,4.512202 M -18.63359,10.182388 c 1.030494,2.400205 2.060891,4.800308 3.091192,7.200317 1.030301,2.400013 -0.901501,3.00823 -1.352397,4.512203 M -8.1580124,11.60402 c -1.280446,2.108877 -2.5607706,4.217662 -3.8409766,6.326364 -1.280206,2.108706 1.120165,2.643097 1.680428,3.964524 m 0.226362,-10.86757 c -1.280445,2.108877 -2.560771,4.217662 -3.840976,6.326365 -1.280207,2.108705 1.120164,2.643096 1.680427,3.964523 m -4.640075,-11.135838 c 1.030494,2.400205 2.060892,4.800308 3.091193,7.200317 1.030301,2.400013 -0.901501,3.00823 -1.352397,4.512203 m -1.738796,-11.71252 c 1.030494,2.400205 2.060892,4.800308 3.091193,7.200317 1.030301,2.400013 -0.901501,3.00823 -1.352397,4.512203 m -13.53733,-1.140018 c 1.030494,2.400206 2.060891,4.800309 3.091192,7.200317 1.030302,2.400013 -0.901501,3.008229 -1.352397,4.512202 m 8.736783,-10.290886 c -1.280445,2.108876 -2.560771,4.217661 -3.840977,6.326363 -1.280206,2.108706 1.120165,2.643096 1.680428,3.964523 m 0.226363,-10.867568 c -1.280446,2.108877 -2.560772,4.217662 -3.840977,6.326363 -1.280206,2.108706 1.120164,2.643097 1.680427,3.964523 M -26.95059,20.75489 c 1.030494,2.400206 2.060892,4.800309 3.091193,7.200317 1.030301,2.400013 -0.901501,3.008229 -1.352397,4.512202 M -26.95059,20.75489 c 1.030494,2.400206 2.060892,4.800309 3.091193,7.200317 1.030301,2.400013 -0.901501,3.008229 -1.352397,4.512202 M -28.30452,9.797937 c 1.030494,2.400205 2.060891,4.800309 3.091192,7.200318 1.030302,2.400012 -0.901501,3.008229 -1.352397,4.512202 m 8.736783,-10.290888 c -1.280445,2.108877 -2.560771,4.217662 -3.840976,6.326365 -1.280207,2.108705 1.120164,2.643096 1.680427,3.964523 m 0.226363,-10.86757 c -1.280446,2.108877 -2.560771,4.217663 -3.840977,6.326365 -1.280206,2.108706 1.120165,2.643096 1.680428,3.964523 M -26.563753,9.797937 c 1.030494,2.400205 2.060892,4.800309 3.091193,7.200318 1.030302,2.400012 -0.901501,3.008229 -1.352397,4.512202 m -1.738796,-11.71252 c 1.030494,2.400205 2.060892,4.800309 3.091193,7.200318 1.030302,2.400012 -0.901501,3.008229 -1.352397,4.512202 M 3.3836076,5.664947 c 0.737643,17.508416 1.475198,35.016731 2.212666,52.524934 M -34.554997,8.070557 c 0.737637,16.706541 1.475188,33.412981 2.212652,50.119324 M -34.554997,8.070557 c 0.737637,16.706541 1.475188,33.412981 2.212652,50.119324 M -34.554844,8.06958 C -31.04377,7.177277 -27.5328,6.284874 -24.021938,5.392373 -20.511074,4.499871 -5.8350174,5.590783 3.2582836,5.68984 m -34.0722206,5.171296 c 2.937644,-0.894364 5.875202,-1.788827 8.812666,-2.68339 C -19.063803,7.283183 -6.7846454,8.376615 0.82353562,8.4759 M 2.1833546,58.171096 C 1.7423346,41.572716 1.3012196,24.974226 0.86002062,8.375636 M -29.489527,58.170468 c -0.441456,-15.769399 -0.882999,-31.5389 -1.324628,-47.308495 m 0.69533,95.152957 c -0.811132,0.6961 -1.564405,1.3921 -2.346739,2.088 -0.782332,0.69589 -0.405521,0.26524 -0.608413,0.39771 m 0.731632,-50.310759 H 5.1328586 c 0.35717,0 0.644717,0.32894 0.644717,0.737526 v 50.426563 c 0,0.40859 -0.287547,0.73753 -0.644717,0.73753 H -32.342345 c -0.357174,0 -0.644716,-0.32894 -0.644716,-0.73753 V 58.927407 c 0,-0.408586 0.287542,-0.737526 0.644716,-0.737526 z m 11.653928,11.533687 h 14.6019296 c 1.613077,0 2.911691,1.48557 2.911691,3.33085 v 1.69028 c 0,1.84529 -1.298614,3.33085 -2.911691,3.33085 H -20.688417 c -1.61308,0 -2.911693,-1.48556 -2.911693,-3.33085 v -1.69028 c 0,-1.84528 1.298613,-3.33085 2.911693,-3.33085 z m -9.256575,-3.59165 32.1590026,-0.0994 m -32.1590026,2.09026 32.1590026,-0.0994 m -32.1590026,11.84535 32.1590026,-0.0994 m -32.1590026,2.09026 32.1590026,-0.0994 m -8.681881,4.94478 a 0.82570412,1.1980617 0 0 1 -0.825702,1.19806 0.82570412,1.1980617 0 0 1 -0.825705,-1.19806 0.82570412,1.1980617 0 0 1 0.825705,-1.19806 0.82570412,1.1980617 0 0 1 0.825702,1.19806 z m -3.123801,-1.30823 h 5.465358 c 0.528667,0 0.954269,0.63476 0.954269,1.42325 v 0.12938 c 0,0.78848 -0.425602,1.42325 -0.954269,1.42325 h -5.465358 c -0.5286656,0 -0.9542686,-0.63477 -0.9542686,-1.42325 v -0.12938 c 0,-0.78849 0.425603,-1.42325 0.9542686,-1.42325 z m -1.1477166,-1.69829 h 8.1084596 c 0.42637,0 0.769622,0.39267 0.769622,0.88042 v 4.50317 c 0,0.48774 -0.343252,0.88041 -0.769622,0.88041 h -8.1084596 c -0.426369,0 -0.769622,-0.39267 -0.769622,-0.88041 v -4.50317 c 0,-0.48775 0.343253,-0.88042 0.769622,-0.88042 z m -11.565259,3.00652 a 0.82570412,1.1980617 0 0 1 -0.825702,1.19806 0.82570412,1.1980617 0 0 1 -0.825706,-1.19806 0.82570412,1.1980617 0 0 1 0.825706,-1.19806 0.82570412,1.1980617 0 0 1 0.825702,1.19806 z m -3.123802,-1.30823 h 5.465358 c 0.528666,0 0.954269,0.63476 0.954269,1.42325 v 0.12938 c 0,0.78848 -0.425603,1.42325 -0.954269,1.42325 h -5.465358 c -0.528666,0 -0.954269,-0.63477 -0.954269,-1.42325 v -0.12938 c 0,-0.78849 0.425603,-1.42325 0.954269,-1.42325 z m -1.147717,-1.69829 h 8.108461 c 0.42637,0 0.769622,0.39267 0.769622,0.88042 v 4.50317 c 0,0.48774 -0.343252,0.88041 -0.769622,0.88041 h -8.108461 c -0.426369,0 -0.769622,-0.39267 -0.769622,-0.88041 v -4.50317 c 0,-0.48775 0.343253,-0.88042 0.769622,-0.88042 z m -2.913361,-25.52798 H 1.6716296 c 0.35717,0 0.64471,0.328937 0.64471,0.737523 v 46.584139 c 0,0.40859 -0.28754,0.73752 -0.64471,0.73752 H -29.489527 c -0.357171,0 -0.644712,-0.32893 -0.644712,-0.73752 V 58.907991 c 0,-0.408586 0.287541,-0.737523 0.644712,-0.737523 z"
         d="m -10.125142,44.001041 c 2.0161059,1.792296 3.1803623,4.504199 3.0911926,7.200318 -0.052483,1.586879 -0.5233984,3.158061 -1.352398,4.512202 M 0.35043362,45.422673 c -1.20022129,0.532094 -2.23124482,1.438599 -2.91259672,2.560835 -0.6813518,1.122237 -1.0099857,2.455188 -0.9283763,3.76553 0.090949,1.460306 0.6942641,2.883668 1.680427,3.964523 m 0.22636,-10.867569 c -1.2002215,0.532094 -2.2312453,1.438598 -2.9125974,2.560834 -0.6813521,1.122237 -1.009986,2.455188 -0.9283766,3.76553 0.090949,1.460306 0.6942646,2.883668 1.680428,3.964523 m -4.640077,-11.135838 c 2.0161076,1.792295 3.1803651,4.504199 3.091195,7.200318 -0.052484,1.586879 -0.5233994,3.158061 -1.3524,4.512202 m -1.738795,-11.71252 c 2.0161076,1.792295 3.1803651,4.504199 3.091195,7.200318 -0.052484,1.586879 -0.5233994,3.158061 -1.3524,4.512202 m -3.092725,-22.669474 c 2.0161066,1.792295 3.1803635,4.504199 3.091194,7.200318 -0.052483,1.586879 -0.5233984,3.158061 -1.352398,4.512202 M 0.73727362,34.46572 c -1.20022207,0.532093 -2.23124652,1.438597 -2.91259922,2.560834 -0.6813526,1.122236 -1.009987,2.455188 -0.9283778,3.76553 0.090949,1.460306 0.6942639,2.883668 1.680427,3.964523 m 0.226364,-10.867569 c -1.2002223,0.532093 -2.231247,1.438597 -2.9125999,2.560833 -0.6813528,1.122237 -1.0099873,2.455189 -0.9283781,3.765531 0.090949,1.460307 0.6942643,2.883669 1.680428,3.964524 m -4.640076,-11.135839 c 2.0161061,1.792296 3.1803629,4.504199 3.091194,7.200318 -0.052483,1.586878 -0.5233973,3.158061 -1.352396,4.512202 m -1.738798,-11.71252 c 2.0161061,1.792296 3.1803629,4.504199 3.091194,7.200318 -0.052483,1.586878 -0.5233973,3.158061 -1.352396,4.512202 M -19.409236,43.808814 c 2.016105,1.792296 3.180361,4.504199 3.091192,7.200318 -0.05248,1.586878 -0.523398,3.158061 -1.352397,4.512202 m 8.7367816,-10.290888 c -1.2002216,0.532094 -2.2312456,1.438598 -2.9125986,2.560835 -0.681352,1.122236 -1.009986,2.455188 -0.928377,3.76553 0.09095,1.460306 0.694264,2.883668 1.680427,3.964523 m 0.226363,-10.86757 c -1.200222,0.532093 -2.231247,1.438597 -2.9126,2.560834 -0.681352,1.122237 -1.009986,2.455189 -0.928377,3.765531 0.09095,1.460306 0.694265,2.883668 1.680428,3.964523 M -17.66847,43.808814 c 2.016106,1.792296 3.180362,4.504199 3.091193,7.200318 -0.05248,1.586878 -0.523397,3.158061 -1.352396,4.512202 m -1.738797,-11.71252 c 2.016106,1.792296 3.180362,4.504199 3.091193,7.200318 -0.05248,1.586878 -0.523397,3.158061 -1.352396,4.512202 M -19.022399,32.85186 c 2.016105,1.792296 3.180361,4.504199 3.091192,7.200318 -0.05248,1.586878 -0.523398,3.158061 -1.352397,4.512202 m 8.7367826,-10.290888 c -1.2002221,0.532094 -2.2312466,1.438598 -2.9125986,2.560834 -0.681353,1.122237 -1.009987,2.455189 -0.928378,3.765531 0.09095,1.460306 0.694264,2.883668 1.680427,3.964523 m 0.226363,-10.867569 c -1.200222,0.532094 -2.231246,1.438597 -2.912599,2.560834 -0.681352,1.122237 -1.009986,2.455188 -0.928377,3.76553 0.09095,1.460306 0.694264,2.883668 1.680427,3.964523 M -17.281632,32.85186 c 2.016106,1.792296 3.180362,4.504199 3.091193,7.200318 -0.05248,1.586879 -0.523398,3.158061 -1.352397,4.512202 m -1.738796,-11.71252 c 2.016106,1.792296 3.180362,4.504199 3.091193,7.200318 -0.05248,1.586879 -0.523398,3.158061 -1.352397,4.512202 m -13.53733,-1.140017 c 2.016105,1.792296 3.180361,4.504199 3.091192,7.200318 -0.05248,1.586878 -0.523398,3.158061 -1.352397,4.512202 m 8.736783,-10.290888 c -1.200222,0.532093 -2.231247,1.438597 -2.9126,2.560834 -0.681352,1.122237 -1.009986,2.455189 -0.928377,3.765531 0.09095,1.460306 0.694265,2.883668 1.680428,3.964523 m 0.226363,-10.86757 c -1.200222,0.532094 -2.231247,1.438598 -2.912599,2.560834 -0.681353,1.122237 -1.009987,2.455189 -0.928378,3.765531 0.09095,1.460306 0.694264,2.883668 1.680427,3.964523 m -4.640075,-11.135838 c 2.016106,1.792296 3.180362,4.504199 3.091193,7.200318 -0.05248,1.586879 -0.523398,3.158061 -1.352397,4.512202 m -1.738796,-11.71252 c 2.016106,1.792296 3.180362,4.504199 3.091193,7.200318 -0.05248,1.586879 -0.523398,3.158061 -1.352397,4.512202 m -3.092726,-22.669474 c 2.016106,1.792296 3.180363,4.504199 3.091193,7.200318 -0.05248,1.586879 -0.523398,3.158061 -1.352398,4.512202 m 8.736783,-10.290887 c -1.200222,0.532094 -2.231246,1.438597 -2.912599,2.560834 -0.681352,1.122237 -1.009986,2.455188 -0.928377,3.76553 0.09095,1.460306 0.694264,2.883668 1.680427,3.964523 m 0.226363,-10.867569 c -1.200222,0.532093 -2.231247,1.438597 -2.912599,2.560834 -0.681353,1.122236 -1.009987,2.455188 -0.928378,3.76553 0.09095,1.460306 0.694264,2.883668 1.680428,3.964523 m -4.640076,-11.135838 c 2.016106,1.792296 3.180362,4.504199 3.091193,7.200318 -0.05248,1.586879 -0.523398,3.158061 -1.352397,4.512202 m -1.738796,-11.71252 c 2.016106,1.792296 3.180362,4.504199 3.091193,7.200318 -0.05248,1.586879 -0.523398,3.158061 -1.352397,4.512202 m 15.4774326,-22.84836 c 2.0161051,1.792296 3.1803612,4.504198 3.091192,7.200316 -0.052483,1.586879 -0.5233978,3.158061 -1.352397,4.512202 M 0.73924362,22.753201 c -1.20022199,0.532093 -2.23124642,1.438597 -2.91259912,2.560833 -0.6813526,1.122237 -1.009987,2.455188 -0.9283779,3.76553 0.090949,1.460306 0.6942639,2.883668 1.680427,3.964523 m 0.226364,-10.867568 c -1.2002223,0.532093 -2.2312471,1.438596 -2.9125999,2.560833 -0.6813529,1.122236 -1.0099874,2.455188 -0.9283781,3.76553 0.090949,1.460306 0.6942644,2.883668 1.680428,3.964523 m -4.640074,-11.135836 c 2.0161049,1.792296 3.1803608,4.504198 3.091192,7.200316 -0.052483,1.586878 -0.5233973,3.158061 -1.352396,4.512202 m -1.738796,-11.712518 c 2.0161049,1.792296 3.1803608,4.504198 3.091192,7.200316 -0.052483,1.586878 -0.5233973,3.158061 -1.352396,4.512202 m -3.092726,-22.669472 c 2.0161044,1.792297 3.1803598,4.5042 3.091191,7.200318 -0.052483,1.586878 -0.5233969,3.15806 -1.352395,4.512202 m 8.736784,-10.290888 c -1.20022247,0.532093 -2.2312473,1.438597 -2.9126002,2.560834 -0.6813528,1.122237 -1.0099872,2.455189 -0.9283778,3.765531 0.090949,1.460306 0.6942645,2.883668 1.680428,3.964523 m 0.22636302,-10.86757 c -1.20022212,0.532094 -2.23124672,1.438598 -2.91259932,2.560834 -0.6813527,1.122237 -1.009987,2.455189 -0.9283777,3.765531 0.090949,1.460306 0.694264,2.883668 1.680427,3.964523 m -4.640076,-11.135838 c 2.0161068,1.792295 3.1803639,4.504199 3.091194,7.200318 -0.052484,1.586879 -0.5233989,3.158061 -1.352399,4.512202 m -1.738795,-11.71252 c 2.0161068,1.792295 3.1803639,4.504199 3.091194,7.200318 -0.052484,1.586879 -0.5233989,3.158061 -1.352399,4.512202 M -19.020427,21.139341 c 2.016105,1.792296 3.180361,4.504199 3.091192,7.200317 -0.05248,1.586879 -0.523398,3.158061 -1.352397,4.512202 m 8.7367826,-10.290886 c -1.2002219,0.532093 -2.2312466,1.438597 -2.9125986,2.560833 -0.681353,1.122237 -1.009987,2.455188 -0.928378,3.76553 0.09095,1.460306 0.694264,2.883668 1.680427,3.964523 m 0.226363,-10.867568 c -1.200222,0.532093 -2.231246,1.438597 -2.912598,2.560833 -0.681353,1.122237 -1.009987,2.455188 -0.928378,3.76553 0.09095,1.460306 0.694264,2.883668 1.680427,3.964523 m -4.640076,-11.135837 c 2.016106,1.792295 3.180363,4.504198 3.091194,7.200317 -0.05248,1.586879 -0.523398,3.158061 -1.352398,4.512202 m -1.738796,-11.712519 c 2.016106,1.792295 3.180363,4.504198 3.091194,7.200317 -0.05248,1.586879 -0.523398,3.158061 -1.352398,4.512202 M -18.63359,10.182388 c 2.016105,1.792296 3.180361,4.504199 3.091192,7.200317 -0.05248,1.586879 -0.523398,3.158062 -1.352397,4.512203 M -8.1580124,11.60402 c -1.200222,0.532093 -2.2312466,1.438597 -2.9125986,2.560834 -0.681353,1.122236 -1.009987,2.455188 -0.928378,3.76553 0.09095,1.460307 0.694264,2.883669 1.680428,3.964524 m 0.226362,-10.86757 c -1.200222,0.532094 -2.231246,1.438598 -2.912599,2.560835 -0.681352,1.122236 -1.009986,2.455188 -0.928377,3.76553 0.09095,1.460306 0.694264,2.883668 1.680427,3.964523 m -4.640075,-11.135838 c 2.016106,1.792296 3.180362,4.504199 3.091193,7.200317 -0.05248,1.586879 -0.523398,3.158062 -1.352397,4.512203 m -1.738796,-11.71252 c 2.016106,1.792296 3.180362,4.504199 3.091193,7.200317 -0.05248,1.586879 -0.523398,3.158062 -1.352397,4.512203 m -13.53733,-1.140018 c 2.016105,1.792296 3.180361,4.504199 3.091192,7.200317 -0.05248,1.586879 -0.523398,3.158061 -1.352397,4.512202 m 8.736783,-10.290886 c -1.200222,0.532093 -2.231247,1.438597 -2.912599,2.560833 -0.681353,1.122237 -1.009987,2.455188 -0.928378,3.76553 0.09095,1.460306 0.694264,2.883668 1.680428,3.964523 m 0.226363,-10.867568 c -1.200222,0.532093 -2.231246,1.438597 -2.912599,2.560833 -0.681353,1.122237 -1.009987,2.455188 -0.928378,3.76553 0.09095,1.460306 0.694264,2.883668 1.680427,3.964523 M -26.95059,20.75489 c 2.016106,1.792296 3.180362,4.504199 3.091193,7.200317 -0.05248,1.586879 -0.523398,3.158061 -1.352397,4.512202 M -26.95059,20.75489 c 2.016106,1.792296 3.180362,4.504199 3.091193,7.200317 -0.05248,1.586879 -0.523398,3.158061 -1.352397,4.512202 M -28.30452,9.797937 c 2.016105,1.792296 3.180361,4.504199 3.091192,7.200318 -0.05248,1.586878 -0.523398,3.158061 -1.352397,4.512202 m 8.736783,-10.290888 c -1.200222,0.532094 -2.231246,1.438598 -2.912599,2.560835 -0.681352,1.122236 -1.009986,2.455188 -0.928377,3.76553 0.09095,1.460306 0.694264,2.883668 1.680427,3.964523 m 0.226363,-10.86757 c -1.200222,0.532093 -2.231247,1.438597 -2.9126,2.560834 -0.681352,1.122237 -1.009986,2.455189 -0.928377,3.765531 0.09095,1.460306 0.694265,2.883668 1.680428,3.964523 M -26.563753,9.797937 c 2.016106,1.792296 3.180362,4.504199 3.091193,7.200318 -0.05248,1.586879 -0.523398,3.158061 -1.352397,4.512202 m -1.738796,-11.71252 c 2.016106,1.792296 3.180362,4.504199 3.091193,7.200318 -0.05248,1.586879 -0.523398,3.158061 -1.352397,4.512202 M 3.3836076,5.664947 5.5962736,58.189881 M -34.554997,8.070557 l 2.212652,50.119324 m -2.212652,-50.119324 2.212652,50.119324 M -34.554844,8.06958 c 3.438781,-1.1497352 6.962487,-2.045375 10.532906,-2.677207 9.006687,-1.5938501 18.3104309,-1.4924009 27.2802216,0.297467 m -34.0722206,5.171296 c 2.850922,-1.1515592 5.803759,-2.0506757 8.812666,-2.68339 C -14.494613,6.5992424 -6.6393291,6.7018537 0.82353562,8.4759 M 2.1833546,58.171096 0.86002062,8.375636 M -29.489527,58.170468 -30.814155,10.861973 m 0.69533,95.152957 c -0.694687,0.78679 -1.484497,1.48952 -2.346739,2.088 -0.199068,0.13817 -0.401977,0.27081 -0.608413,0.39771 m 0.731632,-50.310759 c 12.278262,-2.823588 25.1969419,-2.823588 37.4752036,0 0.089084,0.02049 0.1785449,0.04145 0.2630568,0.07628 0.084512,0.03483 0.1638456,0.0843 0.2264458,0.150913 0.0626,0.06661 0.1069713,0.149668 0.1301659,0.238085 0.023195,0.08842 0.025048,0.180837 0.025048,0.272246 v 50.426563 c 0,0.0955 -1.117e-4,0.19154 -0.017193,0.28546 -0.017081,0.0939 -0.052377,0.18573 -0.1115752,0.26062 -0.059198,0.0749 -0.1417192,0.1305 -0.2326048,0.15971 -0.090886,0.0292 -0.1878796,0.0317 -0.2833443,0.0317 H -32.342345 c -0.09546,0 -0.192459,-0.003 -0.283344,-0.0317 -0.09089,-0.0292 -0.173407,-0.0848 -0.232605,-0.15971 -0.0592,-0.0749 -0.09449,-0.16669 -0.111574,-0.26062 -0.01708,-0.0939 -0.01719,-0.19 -0.01719,-0.28546 V 58.927407 c 0,-0.09141 0.0019,-0.183829 0.02505,-0.272246 0.0232,-0.08842 0.06757,-0.171475 0.130166,-0.238085 0.0626,-0.06661 0.141934,-0.11608 0.226445,-0.150913 0.08451,-0.03483 0.173973,-0.0558 0.263057,-0.07628 z m 11.653928,11.533687 c 4.800823,-0.983966 9.801107,-0.983966 14.6019296,0 0.4052702,0.08306 0.8112541,0.174578 1.1939643,0.331665 0.3827103,0.157087 0.7407793,0.383076 1.0223235,0.686187 0.2815441,0.303111 0.4800194,0.680125 0.5836377,1.080633 0.1036183,0.400508 0.1117655,0.81867 0.1117655,1.232365 v 1.69028 c 0,0.43114 -5.044e-4,0.865032 -0.077647,1.289215 -0.077142,0.424183 -0.2365476,0.838774 -0.5039003,1.177011 -0.2673528,0.338237 -0.640037,0.589345 -1.0504972,0.72127 -0.4104602,0.131925 -0.8485069,0.143354 -1.279647,0.143354 H -20.688417 c -0.43114,0 -0.869187,-0.01143 -1.279647,-0.143354 -0.410461,-0.131925 -0.783145,-0.383032 -1.050498,-0.721269 -0.267353,-0.338237 -0.426759,-0.752829 -0.503901,-1.177012 -0.07714,-0.424182 -0.07765,-0.858075 -0.07765,-1.289215 v -1.69028 c 0,-0.413695 0.0081,-0.831857 0.111766,-1.232366 0.103618,-0.400508 0.302094,-0.777522 0.583638,-1.080633 0.281545,-0.303111 0.639614,-0.529099 1.022324,-0.686186 0.382711,-0.157087 0.788695,-0.248602 1.193965,-0.331665 z m -9.256575,-3.59165 32.1590026,-0.0994 m -32.1590026,2.09026 32.1590026,-0.0994 m -32.1590026,11.84535 32.1590026,-0.0994 m -32.1590026,2.09026 32.1590026,-0.0994 m -8.681881,4.94478 c 0,0.270118 -0.038251,0.548092 -0.1733962,0.781971 -0.067573,0.116939 -0.1591144,0.221034 -0.2714326,0.296038 -0.1123183,0.075 -0.2458142,0.120051 -0.3808732,0.120051 -0.1350592,0 -0.2685555,-0.04505 -0.3808742,-0.12005 -0.1123186,-0.075 -0.2038606,-0.179099 -0.2714337,-0.296038 -0.1351463,-0.233879 -0.1733971,-0.511854 -0.1733971,-0.781972 0,-0.270118 0.038251,-0.548093 0.1733971,-0.781972 0.067573,-0.116939 0.1591151,-0.221034 0.2714337,-0.296038 0.1123187,-0.075 0.245815,-0.12005 0.3808742,-0.12005 0.135059,0 0.2685549,0.04505 0.3808732,0.120051 0.1123182,0.075 0.2038598,0.179099 0.2714326,0.296038 0.1351457,0.233879 0.1733962,0.511853 0.1733962,0.781971 z m -3.123801,-1.30823 c 1.7167076,-0.753465 3.7486504,-0.753465 5.465358,0 0.1415857,0.06214 0.2815508,0.129684 0.4094374,0.216593 0.1278866,0.08691 0.2430957,0.193872 0.3314574,0.32076 0.088362,0.126887 0.1484186,0.272721 0.1797296,0.424141 0.031311,0.151419 0.033645,0.307133 0.033645,0.461756 v 0.12938 c 0,0.167996 0.00362,0.336153 -0.00564,0.503894 -0.00925,0.16774 -0.035112,0.337482 -0.1077386,0.488968 -0.072626,0.151485 -0.1954954,0.279682 -0.347792,0.350592 -0.1522966,0.07091 -0.3251069,0.0798 -0.4931025,0.0798 h -5.465358 c -0.1679955,0 -0.3408059,-0.0089 -0.4931026,-0.0798 -0.152296,-0.07091 -0.275166,-0.199107 -0.347792,-0.350593 -0.07263,-0.151485 -0.09848,-0.321227 -0.107738,-0.488967 -0.0093,-0.167741 -0.0056,-0.335898 -0.0056,-0.503894 v -0.12938 c 0,-0.154623 0.0023,-0.310337 0.03364,-0.461756 0.03131,-0.15142 0.09137,-0.297254 0.179729,-0.424141 0.08836,-0.126888 0.203571,-0.233851 0.331457,-0.32076 0.1278869,-0.08691 0.2678519,-0.154451 0.4094376,-0.216593 z m -1.1477166,-1.69829 c 2.6609559,-0.581724 5.4475037,-0.581724 8.1084596,0 0.106702,0.02333 0.2137274,0.04797 0.3147353,0.08953 0.1010079,0.04156 0.1956841,0.100918 0.2702714,0.180707 0.074587,0.07979 0.1273248,0.179166 0.1548771,0.284856 0.027552,0.105689 0.029738,0.216106 0.029738,0.325328 v 4.50317 c 0,0.113959 -1.334e-4,0.228646 -0.020524,0.340766 -0.02039,0.11212 -0.062525,0.221705 -0.1331924,0.311108 -0.070667,0.0894 -0.1691756,0.155775 -0.2776687,0.190645 -0.1084931,0.03487 -0.2242778,0.03789 -0.338237,0.03789 h -8.1084596 c -0.113959,0 -0.229744,-0.003 -0.338237,-0.03789 -0.108493,-0.03487 -0.207002,-0.101243 -0.277669,-0.190645 -0.07067,-0.0894 -0.112802,-0.198988 -0.133192,-0.311108 -0.02039,-0.11212 -0.02052,-0.226807 -0.02052,-0.340766 v -4.50317 c 0,-0.109222 0.0022,-0.219639 0.02974,-0.325328 0.02755,-0.10569 0.08029,-0.205068 0.154877,-0.284856 0.07459,-0.07979 0.169264,-0.139152 0.270272,-0.180707 0.101008,-0.04156 0.208033,-0.0662 0.314735,-0.08953 z m -11.565259,3.00652 c 0,0.270118 -0.03825,0.548092 -0.173396,0.781971 -0.06757,0.116939 -0.159115,0.221034 -0.271433,0.296038 -0.112318,0.075 -0.245814,0.120051 -0.380873,0.120051 -0.135059,0 -0.268556,-0.04505 -0.380874,-0.12005 -0.112319,-0.075 -0.203861,-0.179098 -0.271435,-0.296038 -0.135146,-0.233879 -0.173397,-0.511853 -0.173397,-0.781972 0,-0.270119 0.03825,-0.548093 0.173397,-0.781972 0.06757,-0.11694 0.159116,-0.221034 0.271435,-0.296038 0.112318,-0.075 0.245815,-0.12005 0.380874,-0.12005 0.135059,0 0.268555,0.04505 0.380873,0.120051 0.112318,0.075 0.20386,0.179099 0.271433,0.296038 0.135145,0.233879 0.173396,0.511853 0.173396,0.781971 z m -3.123802,-1.30823 c 1.716708,-0.753465 3.74865,-0.753465 5.465358,0 0.141586,0.06214 0.281551,0.129684 0.409437,0.216593 0.127887,0.08691 0.243096,0.193872 0.331458,0.320759 0.08836,0.126888 0.148418,0.272722 0.179729,0.424142 0.03131,0.151419 0.03364,0.307133 0.03364,0.461756 v 0.12938 c 0,0.167996 0.0036,0.336153 -0.0056,0.503894 -0.0093,0.16774 -0.03511,0.337482 -0.107738,0.488968 -0.07263,0.151485 -0.195496,0.279682 -0.347792,0.350592 -0.152297,0.07091 -0.325107,0.0798 -0.493103,0.0798 h -5.465358 c -0.167996,0 -0.340806,-0.0089 -0.493103,-0.0798 -0.152296,-0.07091 -0.275165,-0.199107 -0.347792,-0.350592 -0.07263,-0.151486 -0.09848,-0.321228 -0.107738,-0.488968 -0.0093,-0.167741 -0.0056,-0.335898 -0.0056,-0.503894 v -0.12938 c 0,-0.154623 0.0023,-0.310337 0.03364,-0.461756 0.03131,-0.15142 0.09137,-0.297254 0.179729,-0.424142 0.08836,-0.126887 0.203571,-0.233851 0.331458,-0.320759 0.127886,-0.08691 0.267851,-0.154451 0.409437,-0.216593 z m -1.147717,-1.69829 c 2.660956,-0.581724 5.447505,-0.581724 8.108461,0 0.106702,0.02333 0.213727,0.04797 0.314735,0.08953 0.101008,0.04156 0.195684,0.100918 0.270272,0.180707 0.07459,0.07979 0.127325,0.179166 0.154877,0.284856 0.02755,0.105689 0.02974,0.216106 0.02974,0.325328 v 4.50317 c 0,0.113959 -1.33e-4,0.228646 -0.02052,0.340766 -0.02039,0.11212 -0.06253,0.221705 -0.133192,0.311108 -0.07067,0.0894 -0.169176,0.155775 -0.277669,0.190645 -0.108493,0.03487 -0.224278,0.03789 -0.338237,0.03789 h -8.108461 c -0.113959,0 -0.229744,-0.003 -0.338237,-0.03789 -0.108493,-0.03487 -0.207002,-0.101243 -0.277669,-0.190645 -0.07067,-0.0894 -0.112802,-0.198988 -0.133192,-0.311108 -0.02039,-0.11212 -0.02052,-0.226807 -0.02052,-0.340766 v -4.50317 c 0,-0.109222 0.0022,-0.219639 0.02974,-0.325328 0.02755,-0.10569 0.08029,-0.205068 0.154877,-0.284856 0.07459,-0.07979 0.169264,-0.139152 0.270272,-0.180707 0.101008,-0.04156 0.208033,-0.0662 0.314735,-0.08953 z m -2.913361,-25.52798 c 10.210342,-2.342604 20.9508146,-2.342604 31.1611566,0 0.089098,0.02044 0.1785668,0.04139 0.2630828,0.07622 0.084516,0.03483 0.1638477,0.08431 0.2264416,0.150935 0.062594,0.06662 0.1069551,0.149686 0.130144,0.238109 0.023189,0.08842 0.025042,0.180845 0.025042,0.272257 v 46.584139 c 0,0.0955 -1.117e-4,0.19154 -0.017193,0.28546 -0.017081,0.0939 -0.052377,0.18572 -0.1115743,0.26061 -0.059198,0.0749 -0.1417178,0.1305 -0.2326023,0.15971 -0.090885,0.0292 -0.1878773,0.0317 -0.2833408,0.0317 H -29.489527 c -0.09546,0 -0.192456,-0.003 -0.283341,-0.0317 -0.09089,-0.0292 -0.173405,-0.0848 -0.232603,-0.15971 -0.0592,-0.0749 -0.09449,-0.16669 -0.111575,-0.26061 -0.01708,-0.0939 -0.01719,-0.19 -0.01719,-0.28546 V 58.907991 c 0,-0.09141 0.0019,-0.183835 0.02504,-0.272258 0.02319,-0.08842 0.06755,-0.171488 0.130145,-0.238108 0.06259,-0.06662 0.141926,-0.116103 0.226442,-0.150935 0.08452,-0.03483 0.173985,-0.05578 0.263083,-0.07622 z" />
    </g>
  </g>
</svg>
