<?xml version="1.0" encoding="UTF-8" standalone="no"?>
<!-- Created with Inkscape (http://www.inkscape.org/) -->

<svg
   width="210mm"
   height="297mm"
   viewBox="0 0 210 297"
   version="1.1"
   id="svg324"
   inkscape:version="1.2.2 (b0a8486541, 2022-12-01)"
   sodipodi:docname="Tonge drum track icon.svg"
   xmlns:inkscape="http://www.inkscape.org/namespaces/inkscape"
   xmlns:sodipodi="http://sodipodi.sourceforge.net/DTD/sodipodi-0.dtd"
   xmlns="http://www.w3.org/2000/svg"
   xmlns:svg="http://www.w3.org/2000/svg">
  <sodipodi:namedview
     id="namedview326"
     pagecolor="#ffffff"
     bordercolor="#666666"
     borderopacity="1.0"
     inkscape:showpageshadow="2"
     inkscape:pageopacity="0.0"
     inkscape:pagecheckerboard="0"
     inkscape:deskcolor="#d1d1d1"
     inkscape:document-units="mm"
     showgrid="false"
     inkscape:zoom="1.1039267"
     inkscape:cx="378.1954"
     inkscape:cy="241.41096"
     inkscape:window-width="1680"
     inkscape:window-height="956"
     inkscape:window-x="-11"
     inkscape:window-y="-11"
     inkscape:window-maximized="1"
     inkscape:current-layer="layer1" />
  <defs
     id="defs321">
    <inkscape:path-effect
       effect="bend_path"
       id="path-effect2709"
       is_visible="true"
       lpeversion="1"
       bendpath="m 62.555103,115.04388 c 12.088621,-4.26185 24.608106,-20.294043 46.017547,0"
       prop_scale="1"
       scale_y_rel="false"
       vertical="false"
       hide_knot="false"
       bendpath-nodetypes="cc" />
    <inkscape:path-effect
       effect="bend_path"
       id="path-effect2696"
       is_visible="true"
       lpeversion="1"
       bendpath="m 127.0276,122.59363 c 14.84248,-7.56232 23.3583,-51.119926 47.93495,0"
       prop_scale="1"
       scale_y_rel="false"
       vertical="false"
       hide_knot="false"
       bendpath-nodetypes="cc" />
  </defs>
  <g
     inkscape:label="Layer 1"
     inkscape:groupmode="layer"
     id="layer1">
    <path
       id="rect2707"
       style="fill:none;fill-rule:evenodd;stroke:#1a1a1a;stroke-width:0.805;stroke-linecap:round;stroke-linejoin:round;stroke-dasharray:none;paint-order:stroke markers fill"
       transform="matrix(-0.35330719,0,0,-0.57575447,56.236212,81.504364)"
       d="m 63.078605,112.92588 c 2.634942,-1.06918 5.189401,-2.61554 7.881858,-4.10456 3.294577,-1.84624 6.779819,-3.64799 10.633274,-4.71961 4.213557,-1.15506 8.73455,-1.17574 12.963001,0.0566 h 2e-6 c 5.421522,1.62753 10.08401,4.84892 14.10844,8.51228 0.59495,0.54156 0.96289,1.0846 0.84719,1.20707 l -2.05057,2.17057 c -0.1161,0.1229 -0.65415,-0.19618 -1.21732,-0.70263 -3.81714,-3.43272 -8.010383,-6.39595 -12.700695,-7.73782 h -10e-7 c -3.539131,-1.04869 -7.405918,-1.02202 -11.000383,-0.0386 h -2e-6 c -3.367821,0.90615 -6.586906,2.59925 -9.834804,4.39368 -2.613139,1.46336 -5.299285,3.07032 -8.276917,4.28632 -0.766078,0.31285 -1.442332,0.40447 -1.498048,0.24401 l -0.979441,-2.82071 c -0.05523,-0.15907 0.453286,-0.47423 1.124416,-0.74655 z M 124.7009,79.429452 c -1.23097,0.62754 -2.40723,1.353998 -3.56525,2.117649 -2.41958,1.617988 -4.61709,3.423154 -6.83377,5.272278 -2.26252,1.892013 -4.51555,3.838808 -6.97803,5.731395 h -10e-6 c -2.20791,1.707646 -4.64813,3.410597 -7.598713,4.853261 -2.49675,1.247303 -5.594349,2.240245 -9.130798,2.492865 -3.892118,0.18847 -7.555983,-0.613514 -10.484182,-1.876575 v -10e-7 C 75.569482,96.090142 72.142468,93.477791 69.228718,90.858383 65.36737,87.429243 62.118761,83.785493 59.161142,80.088447 58.008125,78.647168 57.467297,77.380326 57.885971,77.253633 l 3.038506,-0.919482 c 0.422501,-0.127852 1.634372,0.919287 2.759306,2.324681 2.892025,3.613065 6.00852,7.120412 9.671203,10.360728 2.837069,2.478248 5.823095,4.821455 9.558463,6.354506 v 0 c 2.285337,0.918615 4.8529,1.547861 7.195234,1.358374 2.217254,-0.09619 4.446721,-0.873303 6.526415,-1.845383 2.475757,-1.188891 4.641232,-2.724064 6.774492,-4.349904 v -9e-6 c 2.34256,-1.797083 4.55272,-3.709541 6.84946,-5.628401 2.23032,-1.867898 4.54533,-3.760928 7.18625,-5.535877 1.23814,-0.842911 2.58905,-1.670683 4.0892,-2.4216 2.20899,-1.105742 4.43596,-1.543052 4.652,-1.269319 l 1.49966,1.900122 c 0.19362,0.245322 -1.2413,0.95832 -2.98526,1.847383 z M 13.628405,131.7 A 26.282879,12.902815 24.283677 0 0 43.293474,131.4238 26.282879,12.902815 24.283677 0 0 25.894129,108.94139 26.282879,12.902815 24.283677 0 0 0.40412212,105.31549 L -89.369817,64.971127 c -1.967586,-0.884225 -4.541917,0.635278 -5.772148,3.407129 -1.230204,2.771861 -0.636868,5.715832 1.33069,6.600066 l 89.2968893,40.129958 a 26.282879,12.902815 24.283677 0 0 7.3007861,9.73775 c -0.1958652,-1.12013 0.4340522,-3.78124 1.6523107,-7.03406 1.2162748,-0.55151 2.3576281,-1.72356 3.0603564,-3.3069 0.6822288,-1.53718 0.8020891,-3.12557 0.439244,-4.38779 1.8077957,-3.31603 3.4801845,-5.42422 4.1984735,-5.10142 l 1.420483,0.63836 c 0.9838,0.44212 -0.204869,5.26076 -2.665291,10.80447 l -0.158735,0.35754 c -2.460436,5.54371 -5.2330939,9.65049 -6.2168939,9.20838 l -0.6570157,-0.29527 a 26.282879,12.902815 24.283677 0 0 8.8627546,5.53751 z m -9.7690445,-5.97066 a 26.282879,12.902815 24.283677 0 1 -1.0729601,-0.88331 c 0.049525,0.28304 0.1510951,0.469 0.3095066,0.54021 z M 139.30354,17.586737 c 2.15488,0 3.8897,6.536467 3.8897,14.656159 v 23.526478 c 0,8.119693 -1.73482,14.657009 -3.8897,14.657009 H 31.55863 c -2.154897,0 -3.889699,-6.537316 -3.889699,-14.657009 V 32.242896 c 0,-8.119692 1.734802,-14.656159 3.889699,-14.656159 z m 0.11495,53.111381 A 54.592316,48.602477 0 0 1 112.86993,113.77459 54.592316,48.602477 0 0 1 57.682044,114.22186 54.592316,48.602477 0 0 1 30.257923,71.582538 l 54.589921,0.48103 z" />
  </g>
  <g
     inkscape:groupmode="layer"
     id="layer2"
     inkscape:label="Layer 2" />
</svg>
