<?xml version="1.0" encoding="UTF-8" standalone="no"?>
<!-- Created with Inkscape (http://www.inkscape.org/) -->

<svg
   width="210mm"
   height="297mm"
   viewBox="0 0 210 297"
   version="1.1"
   id="svg5"
   inkscape:version="1.1 (c68e22c387, 2021-05-23)"
   sodipodi:docname="Touche control svg.svg"
   xmlns:inkscape="http://www.inkscape.org/namespaces/inkscape"
   xmlns:sodipodi="http://sodipodi.sourceforge.net/DTD/sodipodi-0.dtd"
   xmlns="http://www.w3.org/2000/svg"
   xmlns:svg="http://www.w3.org/2000/svg">
  <sodipodi:namedview
     id="namedview7"
     pagecolor="#ffffff"
     bordercolor="#666666"
     borderopacity="1.0"
     inkscape:pageshadow="2"
     inkscape:pageopacity="0.0"
     inkscape:pagecheckerboard="0"
     inkscape:document-units="mm"
     showgrid="false"
     inkscape:zoom="0.8122524"
     inkscape:cx="566.32643"
     inkscape:cy="962.13936"
     inkscape:window-width="1680"
     inkscape:window-height="956"
     inkscape:window-x="-11"
     inkscape:window-y="-11"
     inkscape:window-maximized="1"
     inkscape:current-layer="layer1" />
  <defs
     id="defs2">
    <inkscape:path-effect
       effect="spiro"
       id="path-effect1972"
       is_visible="true"
       lpeversion="1" />
    <inkscape:path-effect
       effect="spiro"
       id="path-effect1775"
       is_visible="true"
       lpeversion="1" />
    <inkscape:path-effect
       effect="spiro"
       id="path-effect1769"
       is_visible="true"
       lpeversion="1" />
    <inkscape:path-effect
       effect="spiro"
       id="path-effect1394"
       is_visible="true"
       lpeversion="1" />
    <inkscape:path-effect
       effect="spiro"
       id="path-effect1388"
       is_visible="true"
       lpeversion="1" />
  </defs>
  <g
     inkscape:label="Layer 1"
     inkscape:groupmode="layer"
     id="layer1">
    <g
       id="g1498"
       transform="matrix(0.8964064,0,0,0.88458923,10.022456,-5.5610962)" />
    <g
       id="g2058"
       transform="matrix(0.83533174,0,0,0.83086363,21.205787,21.164558)" />
    <path
       id="path2218"
       style="fill:none;stroke:#000000;stroke-width:1.42919;stroke-linecap:round;stroke-linejoin:round;stroke-opacity:0.955017;paint-order:stroke markers fill"
       d="m 165.11219,118.66448 h 15.05676 c 1.82987,0 3.30302,1.70675 3.30302,3.8268 v 8.5874 c 0,2.12005 -1.47315,3.8268 -3.30302,3.8268 h -15.05676 c -1.82988,0 -3.30303,-1.70675 -3.30303,-3.8268 v -8.5874 c 0,-2.12005 1.47315,-3.8268 3.30303,-3.8268 z m -26.2234,-0.87659 h 14.65133 c 1.89046,0 3.41239,1.76327 3.41239,3.95352 v 8.87173 c 0,2.19025 -1.52193,3.95352 -3.41239,3.95352 h -14.65133 c -1.89047,0 -3.4124,-1.76327 -3.4124,-3.95352 v -8.87173 c 0,-2.19025 1.52193,-3.95352 3.4124,-3.95352 z m 26.23712,-11.11864 c 0.73041,1.06611 1.46068,2.13208 2.19082,3.1979 0.73015,1.06582 0.7791,0.8978 1.16844,1.34648 m -14.8976,-2.52465 c -0.48671,1.23442 -0.97357,2.4687 -1.46054,3.70283 m 16.63771,-3.53453 a 9.2619504,8.4010723 0 0 1 -9.26195,8.40108 9.2619504,8.4010723 0 0 1 -9.26194,-8.40108 9.2619504,8.4010723 0 0 1 9.26194,-8.40107 9.2619504,8.4010723 0 0 1 9.26195,8.40107 z m -3.93094,-1.34647 a 5.6231163,6.2274869 0 0 1 -5.62312,6.22748 5.6231163,6.2274869 0 0 1 -5.62311,-6.22748 5.6231163,6.2274869 0 0 1 5.62311,-6.22749 5.6231163,6.2274869 0 0 1 5.62312,6.22749 z m -39.63721,-93.7615 h 64.24126 c 1.9172,0 3.46066,1.78821 3.46066,4.00944 v 113.52486 c 0,2.22123 -1.54346,4.00943 -3.46066,4.00943 h -64.24126 c -1.91721,0 -3.46067,-1.7882 -3.46067,-4.00943 V 17.75875 c 0,-2.22123 1.54346,-4.00944 3.46067,-4.00944 z m 41.17706,54.86413 c 0.62328,4.86604 1.2467,9.73191 1.87026,14.59762 0.62355,4.86571 -2.38992,7.58335 -3.58467,11.37478 m -16.9512,-23.28678 c -0.6268,4.59946 -1.25373,9.19877 -1.8808,13.79792 -0.62707,4.59915 2.40339,7.16791 3.60487,10.75163 M 177.99602,56.69476 A 21.90273,41.885636 0 0 1 156.09329,98.5804 21.90273,41.885636 0 0 1 134.19057,56.69476 21.90273,41.885636 0 0 1 156.09329,14.80913 21.90273,41.885636 0 0 1 177.99602,56.69476 Z M 175.28347,44.127 a 19.656973,28.431998 0 0 1 -19.65696,28.432 19.656973,28.431998 0 0 1 -19.65698,-28.432 19.656973,28.431998 0 0 1 19.65698,-28.432 19.656973,28.431998 0 0 1 19.65696,28.432 z" />
    <g
       id="g1088">
      <path
         id="rect2084"
         style="fill:none;stroke:#000000;stroke-width:1.42919;stroke-linecap:round;stroke-linejoin:round;stroke-opacity:0.955017;paint-order:stroke markers fill"
         d="m 49.896648,115.04514 h 15.05676 c 1.82987,0 3.30302,1.70675 3.30302,3.8268 v 8.5874 c 0,2.12005 -1.47315,3.8268 -3.30302,3.8268 h -15.05676 c -1.82988,0 -3.30303,-1.70675 -3.30303,-3.8268 v -8.5874 c 0,-2.12005 1.47315,-3.8268 3.30303,-3.8268 z m -26.223405,-0.87659 h 14.65133 c 1.890465,0 3.412395,1.76327 3.412395,3.95352 v 8.87173 c 0,2.19025 -1.52193,3.95352 -3.412395,3.95352 h -14.65133 c -1.890467,0 -3.412396,-1.76327 -3.412396,-3.95352 v -8.87173 c 0,-2.19025 1.521929,-3.95352 3.412396,-3.95352 z m 26.237125,-11.11864 c 0.73041,1.06611 1.46068,2.13208 2.19082,3.1979 0.73015,1.06582 0.7791,0.8978 1.16844,1.34648 m -14.897604,-2.52465 c -0.486715,1.23442 -0.973569,2.4687 -1.460545,3.70283 m 16.637719,-3.53453 a 9.2619504,8.4010723 0 0 1 -9.26195,8.40108 9.2619504,8.4010723 0 0 1 -9.261947,-8.40108 9.2619504,8.4010723 0 0 1 9.261947,-8.40107 9.2619504,8.4010723 0 0 1 9.26195,8.40107 z m -3.93094,-1.34647 a 5.6231163,6.2274869 0 0 1 -5.62312,6.22748 5.6231163,6.2274869 0 0 1 -5.623114,-6.22748 5.6231163,6.2274869 0 0 1 5.623114,-6.22749 5.6231163,6.2274869 0 0 1 5.62312,6.22749 z M 9.981044,10.129972 h 64.241264 c 1.9172,0 3.46066,1.788211 3.46066,4.009441 V 127.66427 c 0,2.22123 -1.54346,4.00943 -3.46066,4.00943 H 9.981044 c -1.917209,0 -3.460666,-1.7882 -3.460666,-4.00943 V 14.139413 c 0,-2.22123 1.543457,-4.009441 3.460666,-4.009441 z m 41.177064,54.86413 c 0.62328,4.866039 1.2467,9.731911 1.87026,14.597621 0.62355,4.86571 -2.38992,7.58335 -3.58467,11.374777 M 32.492494,67.679719 c -0.626796,4.599468 -1.253731,9.198775 -1.880805,13.797928 -0.627068,4.599146 2.403391,7.167909 3.604878,10.751623 M 62.780478,53.075426 A 21.90273,41.885636 0 0 1 40.877748,94.96106 21.90273,41.885636 0 0 1 18.975019,53.075426 21.90273,41.885636 0 0 1 40.877748,11.18979 21.90273,41.885636 0 0 1 62.780478,53.075426 Z M 60.067928,40.50766 A 19.656973,28.431998 0 0 1 40.410968,68.939661 19.656973,28.431998 0 0 1 20.753984,40.50766 19.656973,28.431998 0 0 1 40.410968,12.075664 19.656973,28.431998 0 0 1 60.067928,40.50766 Z" />
      <path
         style="fill:#000000;stroke:#000000;stroke-width:16.9323;stroke-linecap:round;stroke-linejoin:round;stroke-opacity:0.955017;paint-order:stroke markers fill"
         d="m 32.924289,491.5016 c -4.327994,-3.1647 -4.425575,-8.09525 -4.425575,-223.61369 0,-215.518447 0.09758,-220.448996 4.425575,-223.613703 3.496944,-2.557027 14.701712,-3.23606 53.398483,-3.23606 h 48.972908 l -10.41334,6.897512 c -27.2733,18.065082 -39.734388,39.790335 -50.277177,87.655611 -7.257792,32.95108 -7.221564,100.23406 0.06963,129.30257 14.007554,55.84534 41.317257,92.5984 71.903457,96.76678 l 10.92437,1.4888 -9.03671,4.04586 c -21.48715,9.62009 -26.33267,37.99594 -9.38267,54.94595 l 6.47942,6.47942 h -31.65437 c -41.101403,0 -40.951581,-0.12307 -40.951581,33.63829 0,13.0124 1.062051,25.64337 2.360113,28.06881 2.25068,4.20543 1.425184,4.40992 -17.803423,4.40992 -13.815623,0 -21.556797,-1.01878 -24.589108,-3.23607 z"
         id="path887"
         transform="scale(0.26458333)" />
      <path
         style="fill:#000000;stroke:#000000;stroke-width:16.9323;stroke-linecap:round;stroke-linejoin:round;stroke-opacity:0.955017;paint-order:stroke markers fill"
         d="m 260.03434,489.94231 c 1.57966,-2.95162 2.26793,-13.54933 1.79013,-27.56356 -1.07659,-31.57717 -0.92863,-31.47341 -44.91685,-31.49323 l -33.3759,-0.015 6.51754,-4.29695 c 3.58466,-2.36331 8.45118,-7.22982 10.81449,-10.81448 5.75449,-8.72834 5.7452,-26.96279 -0.0185,-36.41495 -4.64568,-7.61846 -21.00851,-16.84048 -29.88052,-16.84048 -4.12738,0 -2.71252,-1.35296 5.90619,-5.64786 22.01546,-10.97077 39.81657,-35.68075 50.93969,-70.71014 9.43925,-29.72648 12.51034,-50.71898 12.51034,-85.5147 0,-34.79571 -3.07109,-55.78821 -12.51034,-85.51469 -10.31349,-32.479668 -25.098,-54.526521 -45.29527,-67.544886 l -10.13592,-6.533217 h 53.51665 c 44.74681,0 54.347,0.5816 58.58373,3.549125 l 5.06709,3.549125 V 267.66384 c 0,250.03846 2.04378,227.07383 -20.20883,227.07383 -11.35804,0 -11.75944,-0.20702 -9.30376,-4.79536 z"
         id="path926"
         transform="scale(0.26458333)" />
      <path
         style="fill:#000000;stroke:#000000;stroke-width:9.75975;stroke-linecap:round;stroke-linejoin:round;stroke-opacity:0.955017;paint-order:stroke markers fill"
         d="m 158.64757,489.84232 c 1.97622,-3.61704 2.33347,-7.69124 2.33347,-26.61115 0,-20.27685 -0.25276,-22.76786 -2.73664,-26.9702 l -2.73664,-4.62998 9.3073,0.51693 c 9.73852,0.54088 11.81784,1.74607 10.5498,6.11476 -2.65313,9.14059 -3.151,13.39719 -3.151,26.93968 0,14.00541 0.82279,20.82262 3.21177,26.61116 0.85523,2.07225 -0.043,2.29973 -9.08121,2.29973 h -10.03033 z"
         id="path965"
         transform="scale(0.26458333)" />
    </g>
    <path
       style="fill:#ffffff;stroke:#000000;stroke-width:13.7238;stroke-linecap:round;stroke-linejoin:round;stroke-opacity:0.955017;paint-order:stroke markers fill"
       d=""
       id="path1301"
       transform="scale(0.26458333)" />
    <g
       id="g2102">
      <path
         id="path2214"
         style="fill:none;stroke:#000000;stroke-width:1.42919;stroke-linecap:round;stroke-linejoin:round;stroke-opacity:0.955017;paint-order:stroke markers fill"
         d="m 55.325653,258.61216 h 15.05676 c 1.82987,0 3.30302,1.70675 3.30302,3.8268 v 8.5874 c 0,2.12005 -1.47315,3.8268 -3.30302,3.8268 h -15.05676 c -1.82988,0 -3.30303,-1.70675 -3.30303,-3.8268 v -8.5874 c 0,-2.12005 1.47315,-3.8268 3.30303,-3.8268 z m -26.223405,-0.87659 h 14.65133 c 1.890465,0 3.412395,1.76327 3.412395,3.95352 v 8.87173 c 0,2.19025 -1.52193,3.95352 -3.412395,3.95352 h -14.65133 c -1.890467,0 -3.412396,-1.76327 -3.412396,-3.95352 v -8.87173 c 0,-2.19025 1.521929,-3.95352 3.412396,-3.95352 z m 26.237125,-11.11864 c 0.73041,1.06611 1.46068,2.13208 2.19082,3.1979 0.73015,1.06582 0.7791,0.8978 1.16844,1.34648 m -14.897604,-2.52465 c -0.486715,1.23442 -0.973569,2.4687 -1.460545,3.70283 m 16.637719,-3.53453 a 9.2619504,8.4010723 0 0 1 -9.26195,8.40108 9.2619504,8.4010723 0 0 1 -9.261947,-8.40108 9.2619504,8.4010723 0 0 1 9.261947,-8.40107 9.2619504,8.4010723 0 0 1 9.26195,8.40107 z m -3.93094,-1.34647 a 5.6231163,6.2274869 0 0 1 -5.62312,6.22748 5.6231163,6.2274869 0 0 1 -5.623114,-6.22748 5.6231163,6.2274869 0 0 1 5.623114,-6.22749 5.6231163,6.2274869 0 0 1 5.62312,6.22749 z m -39.637214,-93.7615 h 64.241264 c 1.9172,0 3.46066,1.78821 3.46066,4.00944 v 113.52486 c 0,2.22123 -1.54346,4.00943 -3.46066,4.00943 H 15.410049 c -1.917209,0 -3.460666,-1.7882 -3.460666,-4.00943 V 157.70643 c 0,-2.22123 1.543457,-4.00944 3.460666,-4.00944 z m 41.177064,54.86413 c 0.62328,4.86604 1.2467,9.73191 1.87026,14.59762 0.62355,4.86571 -2.38992,7.58335 -3.58467,11.37478 M 37.921499,211.24674 c -0.626796,4.59946 -1.253731,9.19877 -1.880805,13.79792 -0.627068,4.59915 2.403391,7.16791 3.604878,10.75163 m 28.563911,-39.15385 a 21.90273,41.885636 0 0 1 -21.90273,41.88564 21.90273,41.885636 0 0 1 -21.902729,-41.88564 21.90273,41.885636 0 0 1 21.902729,-41.88563 21.90273,41.885636 0 0 1 21.90273,41.88563 z m -2.71255,-12.56776 a 19.656973,28.431998 0 0 1 -19.65696,28.432 19.656973,28.431998 0 0 1 -19.656984,-28.432 19.656973,28.431998 0 0 1 19.656984,-28.432 19.656973,28.431998 0 0 1 19.65696,28.432 z" />
      <path
         style="fill:#ffffff;stroke:#000000;stroke-width:13.7238;stroke-linecap:round;stroke-linejoin:round;stroke-opacity:0.955017;paint-order:stroke markers fill"
         d="m 52.799497,1033.7626 c -1.595575,-1.5956 -3.341774,-4.7139 -3.880443,-6.9296 -0.538668,-2.2157 -0.747804,-101.18533 -0.464745,-219.93259 l 0.514651,-215.90409 4.362458,-3.53229 c 4.060965,-3.28816 7.828369,-3.52728 54.512612,-3.45995 43.16009,0.0622 49.3703,0.4121 44.55509,2.51 -9.45385,4.11886 -27.62047,20.51972 -34.93475,31.53915 -9.8557,14.84823 -15.61552,30.13147 -20.568534,54.57701 -8.841473,43.63696 -10.277191,72.64323 -5.426973,109.64278 8.988637,68.5692 39.380197,116.63011 77.352457,122.3244 l 8.86451,1.32932 -7.07399,3.23128 c -22.67141,10.35592 -28.18651,37.38411 -11.21787,54.97612 l 5.79281,6.00563 h -30.07081 -30.0708 l -5.40151,5.40152 -5.401511,5.4015 v 24.28611 c 0,13.3574 0.860806,25.8946 1.912902,27.8605 1.839519,3.4371 1.100286,3.5742 -19.270805,3.5742 -16.785471,0 -21.786029,-0.6023 -24.084749,-2.901 z"
         id="path1145"
         transform="scale(0.26458333)" />
      <path
         style="fill:#ffffff;stroke:#000000;stroke-width:13.7238;stroke-linecap:round;stroke-linejoin:round;stroke-opacity:0.955017;paint-order:stroke markers fill"
         d="m 163.53785,798.50824 c -26.04754,-6.73842 -47.33169,-32.3673 -56.43283,-67.95242 -5.09056,-19.90388 -4.97876,-49.4103 0.25199,-66.50839 9.64299,-31.52061 28.17786,-58.99175 45.44011,-67.34827 33.41532,-16.17607 72.93246,12.52719 86.7294,62.99589 4.5541,16.65872 4.5541,55.40879 0,72.06752 -12.02484,43.98642 -46.59339,74.35016 -75.98867,66.74567 z"
         id="path1184"
         transform="scale(0.26458333)" />
      <path
         style="fill:#ffffff;stroke:#000000;stroke-width:13.7238;stroke-linecap:round;stroke-linejoin:round;stroke-opacity:0.955017;paint-order:stroke markers fill"
         d="m 163.99104,895.11323 c -8.38505,-2.57824 -9.12333,-3.37205 -16.169,-17.38518 -8.53379,-16.97287 -8.7598,-19.76564 -4.3342,-53.55653 l 3.04856,-23.27674 10.34861,3.51082 c 13.50035,4.58008 26.77044,3.28346 41.59489,-4.06422 6.14035,-3.04344 11.48682,-5.21099 11.88104,-4.81676 0.39423,0.39422 2.32594,12.61069 4.29269,27.14771 3.96776,29.32716 3.74726,31.22862 -6.04891,52.16256 -5.85844,12.51922 -10.91803,17.42195 -21.78208,21.10683 -7.91899,2.68597 -11.86775,2.54268 -22.8316,-0.82849 z"
         id="path1223"
         transform="scale(0.26458333)" />
      <path
         style="fill:#ffffff;stroke:#000000;stroke-width:13.7238;stroke-linecap:round;stroke-linejoin:round;stroke-opacity:0.955017;paint-order:stroke markers fill"
         d="m 129.93781,868.40951 c -13.83751,-20.17134 -23.79719,-46.70056 -29.01193,-77.27796 -3.28338,-19.25256 -6.140651,-64.7254 -3.938607,-62.68202 0.774473,0.71867 3.446497,7.37106 5.937837,14.78309 6.18932,18.41395 14.23125,31.93506 26.04555,43.79108 l 9.95279,9.98794 -2.93785,24.38127 c -3.4289,28.4564 -3.71089,42.21595 -0.97013,47.3371 4.14803,7.75066 0.29219,7.50728 -5.07766,-0.3205 z"
         id="path1262"
         transform="scale(0.26458333)" />
      <path
         style="fill:#ffffff;stroke:#000000;stroke-width:13.7238;stroke-linecap:round;stroke-linejoin:round;stroke-opacity:0.955017;paint-order:stroke markers fill"
         d="m 221.77774,866.09056 c -0.0173,-0.82036 0.89203,-5.15926 2.02079,-9.642 1.66729,-6.62141 1.2762,-13.86115 -2.08472,-38.59146 l -4.13703,-30.44103 6.83974,-7.96198 c 12.22783,-14.23416 25.04799,-45.88014 25.04799,-61.82984 0,-3.28367 0.83155,-6.48423 1.84789,-7.11236 3.2444,-2.00515 3.10873,48.46255 -0.19623,72.99147 -3.55178,26.3609 -13.39172,57.2758 -23.82068,74.83935 -3.01743,5.08169 -5.50041,8.56822 -5.51775,7.74785 z"
         id="path1340"
         transform="scale(0.26458333)" />
      <path
         style="fill:#ffffff;stroke:#000000;stroke-width:13.7238;stroke-linecap:round;stroke-linejoin:round;stroke-opacity:0.955017;paint-order:stroke markers fill"
         d="m 203.03167,1031.7599 c -3.57486,-4.3074 -3.57486,-43.16953 0,-47.47698 2.18047,-2.6273 7.02468,-3.05584 34.54307,-3.05584 39.25806,0 37.76017,-1.06289 37.76017,26.79432 0,27.8572 1.49789,26.7944 -37.76017,26.7944 -27.51839,0 -32.3626,-0.4286 -34.54307,-3.0559 z"
         id="path1379"
         transform="scale(0.26458333)" />
      <path
         style="fill:#ffffff;stroke:#000000;stroke-width:13.7238;stroke-linecap:round;stroke-linejoin:round;stroke-opacity:0.955017;paint-order:stroke markers fill"
         d="m 107.90682,1033.0748 c -4.7432,-1.9969 -6.22459,-9.5692 -6.25279,-31.9618 -0.0302,-24.00308 -0.67599,-23.58169 36.1377,-23.58169 38.07575,0 36.83343,-0.97057 36.83343,28.77639 0,28.5269 1.31192,27.4688 -34.70873,27.9946 -15.46565,0.2257 -29.86998,-0.3266 -32.00961,-1.2275 z"
         id="path1418"
         transform="scale(0.26458333)" />
      <path
         style="fill:#ffffff;stroke:#000000;stroke-width:9.75975;stroke-linecap:round;stroke-linejoin:round;stroke-opacity:0.955017;paint-order:stroke markers fill"
         d="m 178.78627,1032.4358 c 5.61746,-9.5209 4.6639,-48.94749 -1.33836,-55.33659 l -2.76141,-2.93939 9.57391,0.60832 c 5.26565,0.33457 12.03239,-0.0566 15.03719,-0.86932 8.29288,-2.24293 17.62826,-9.19375 22.09517,-16.45135 3.57564,-5.8095 3.97882,-7.54783 3.96234,-17.0837 -0.0207,-11.97896 -1.66526,-16.1545 -9.4146,-23.90385 -5.94817,-5.94816 -14.22232,-9.69609 -23.52535,-10.65625 l -7.13544,-0.73645 10.19089,-5.01574 c 5.60499,-2.75866 13.04237,-7.48886 16.5275,-10.51156 18.32559,-15.89398 33.41274,-45.31025 42.05984,-82.00644 6.85581,-29.09441 9.18458,-69.3464 5.5881,-96.58862 -8.0519,-60.99085 -29.28209,-105.18607 -58.60543,-121.99987 l -7.2063,-4.13204 55.29296,-0.0123 55.29296,-0.0123 2.85734,3.0415 2.85733,3.04149 v 219.76344 219.76352 l -3.2256,3.2255 c -2.97414,2.9742 -4.20344,3.2256 -15.76957,3.2256 -6.89918,0 -12.54397,-0.2234 -12.54397,-0.4965 0,-0.2732 0.88703,-2.6196 1.97119,-5.2144 1.43511,-3.4347 1.9712,-9.7441 1.9712,-23.1999 0,-20.13707 -1.05406,-24.58558 -7.16172,-30.22509 l -3.55805,-3.28532 -32.42138,-0.36097 c -36.62172,-0.40772 -39.5649,0.18889 -43.91799,8.90282 -3.07429,6.15405 -3.36505,42.22016 -0.39763,49.32216 l 1.90415,4.5572 h -10.40168 -10.40167 z"
         id="path1457"
         transform="scale(0.26458333)" />
      <path
         style="fill:#ffffff;stroke:#000000;stroke-width:9.75975;stroke-linecap:round;stroke-linejoin:round;stroke-opacity:0.955017;paint-order:stroke markers fill"
         d="m 181.35007,954.44514 c -6.66594,-2.43677 -11.82717,-10.92978 -11.82717,-19.46209 0,-22.63051 27.22204,-27.0674 34.10895,-5.55937 4.62185,14.43417 -9.09794,29.84089 -22.28178,25.02146 z"
         id="path1496"
         transform="scale(0.26458333)" />
      <path
         style="fill:#ffffff;stroke:#000000;stroke-width:7.87434;stroke-linecap:round;stroke-linejoin:round;stroke-opacity:0.955017;paint-order:stroke markers fill"
         d="m 224.49417,850.17626 c 0.40879,-9.68544 -0.15421,-16.95265 -2.88184,-37.19929 l -3.38987,-25.16233 5.89971,-7.10773 c 12.48966,-15.04704 23.9964,-42.29536 25.72777,-60.92414 0.37238,-4.00667 1.03974,-7.28485 1.48303,-7.28485 3.00905,0 1.81554,54.85612 -1.66091,76.33906 -3.35806,20.75136 -11.19939,45.94281 -19.14162,61.49536 -6.73307,13.18474 -6.59948,13.1882 -6.03627,-0.15608 z"
         id="path1535"
         transform="scale(0.26458333)" />
      <path
         style="fill:#ffffff;stroke:#000000;stroke-width:7.87434;stroke-linecap:round;stroke-linejoin:round;stroke-opacity:0.955017;paint-order:stroke markers fill"
         d="m 130.98654,868.71834 c -5.66726,-7.59951 -16.98897,-31.10587 -21.15934,-43.93144 -6.86159,-21.1022 -10.073904,-40.12562 -12.343294,-73.09745 -1.679244,-24.39762 -1.353676,-25.18073 4.171604,-10.03425 8.14745,22.33464 14.22488,32.49166 28.07084,46.91394 l 8.47073,8.82331 -2.38647,20.90356 c -3.56581,31.23349 -3.96903,42.33131 -1.78106,49.02062 0.99215,3.03332 1.57457,5.74446 1.29427,6.02476 -0.2803,0.2803 -2.23208,-1.80008 -4.33728,-4.62305 z"
         id="path1574"
         transform="scale(0.26458333)" />
      <path
         style="fill:#ffffff;stroke:#000000;stroke-width:7.87434;stroke-linecap:round;stroke-linejoin:round;stroke-opacity:0.955017;paint-order:stroke markers fill"
         d="m 164.81235,894.78709 c -3.53123,-1.0992 -7.42899,-3.08233 -8.6617,-4.40695 -3.7098,-3.98639 -12.79774,-22.76165 -14.13464,-29.2015 -0.75529,-3.63818 -0.97777,-9.17973 -0.56209,-14.00036 0.81569,-9.45963 4.85546,-42.41192 5.42442,-44.24693 0.28458,-0.91782 2.58384,-0.51364 8.13451,1.42993 5.84623,2.04707 9.9409,2.7261 16.75004,2.77769 10.50758,0.0796 15.12819,-1.04273 27.99068,-6.79895 6.43594,-2.88021 9.66981,-3.84456 10.17132,-3.03311 1.14622,1.85463 5.43651,33.32793 6.07693,44.5801 0.69808,12.26504 -0.61897,17.50315 -8.21718,32.68081 -6.04465,12.0744 -10.75694,16.90059 -19.80836,20.28716 -6.99001,2.6153 -14.6159,2.59295 -23.16393,-0.0679 z"
         id="path1613"
         transform="scale(0.26458333)" />
      <path
         style="fill:#ffffff;stroke:#000000;stroke-width:7.87434;stroke-linecap:round;stroke-linejoin:round;stroke-opacity:0.955017;paint-order:stroke markers fill"
         d="m 219.89934,1033.892 c -8.86028,-0.4236 -14.48245,-1.1575 -15.52799,-2.0271 -2.41287,-2.0068 -3.10402,-7.422 -3.08657,-24.1834 0.0167,-16.07697 1.1994,-23.02331 4.15303,-24.39262 2.3547,-1.09164 49.85076,-1.88907 57.27738,-0.96165 3.57386,0.44629 6.64374,1.59548 8.48212,3.17521 l 2.88113,2.47577 0.34732,17.32359 c 0.41107,20.5027 -0.45522,24.7688 -5.45076,26.8423 -4.19371,1.7406 -30.00087,2.6598 -49.07566,1.7479 z"
         id="path1652"
         transform="scale(0.26458333)" />
      <path
         style="fill:#ffffff;stroke:#000000;stroke-width:7.87434;stroke-linecap:round;stroke-linejoin:round;stroke-opacity:0.955017;paint-order:stroke markers fill"
         d="m 109.9928,1033.0439 c -4.71937,-0.7885 -6.29975,-5.3347 -7.49185,-21.5513 -1.26734,-17.24035 -0.44419,-25.47121 2.9409,-29.40661 2.34192,-2.72264 3.02756,-2.86938 17.94917,-3.84136 9.85435,-0.64191 20.74515,-0.64051 29.85261,0.004 13.54445,0.95825 14.49815,1.17404 17.22401,3.89728 l 2.88565,2.88287 0.34549,18.26822 c 0.40175,21.2433 -0.38673,25.3229 -5.42246,28.0562 -2.94756,1.5999 -6.89591,1.8705 -29.38164,2.014 -14.28706,0.091 -27.29291,-0.054 -28.90188,-0.3231 z"
         id="path1691"
         transform="scale(0.26458333)" />
      <path
         style="fill:#ffffff;stroke:#000000;stroke-width:7.87434;stroke-linecap:round;stroke-linejoin:round;stroke-opacity:0.955017;paint-order:stroke markers fill"
         d="m 182.75593,954.05599 c -4.89562,-1.28806 -10.54592,-8.09459 -11.8788,-14.30957 -1.92896,-8.99445 0.90183,-16.25907 8.29683,-21.29207 9.71888,-6.61461 23.0663,1.72878 24.17617,15.11238 1.06036,12.7866 -9.59146,23.38415 -20.5942,20.48926 z"
         id="path1730"
         transform="scale(0.26458333)" />
      <path
         style="fill:#ffffff;stroke:#000000;stroke-width:7.87434;stroke-linecap:round;stroke-linejoin:round;stroke-opacity:0.955017;paint-order:stroke markers fill"
         d="m 179.94549,967.98668 c -5.94666,-1.49228 -10.18945,-3.96391 -14.06355,-8.19273 -3.06749,-3.34834 -3.32692,-4.08853 -2.28587,-6.5218 0.64589,-1.50963 1.32948,-2.95678 1.51909,-3.21588 0.18962,-0.25909 1.76235,1.2487 3.49496,3.35066 4.32905,5.25189 10.92968,8.25877 18.06616,8.22992 10.23577,-0.0414 17.81478,-5.19414 22.18865,-15.08548 1.22484,-2.76994 2.37982,-5.03626 2.56661,-5.03626 0.60628,0 5.92274,8.40832 5.92274,9.36718 0,0.51179 -1.66836,3.11551 -3.70747,5.78605 -6.7915,8.89455 -22.43029,14.14673 -33.70132,11.31834 z"
         id="path1808"
         transform="scale(0.26458333)" />
      <path
         style="fill:#ffffff;stroke:#000000;stroke-width:7.87434;stroke-linecap:round;stroke-linejoin:round;stroke-opacity:0.955017;paint-order:stroke markers fill"
         d="m 157.61741,946.66593 c -1.32428,-4.94704 -0.63175,-11.08054 1.85382,-16.41875 2.46128,-5.286 6.1619,-9.51151 4.44463,-5.07504 -0.43204,1.11617 -1.18077,5.36923 -1.66384,9.45125 -0.48306,4.08202 -1.57288,9.02404 -2.42182,10.98228 -1.48592,3.42758 -1.56848,3.46714 -2.21279,1.06026 z"
         id="path1847"
         transform="scale(0.26458333)" />
      <path
         style="fill:#ffffff;stroke:#000000;stroke-width:5.58824;stroke-linecap:round;stroke-linejoin:round;stroke-opacity:0.955017;paint-order:stroke markers fill"
         d="m 214.76718,934.72599 c -2.43126,-3.62114 -4.80143,-7.65246 -5.26703,-8.95848 -0.46561,-1.30602 -1.7582,-3.93017 -2.87242,-5.83146 -1.11423,-1.90128 -1.70028,-3.45687 -1.30234,-3.45687 1.92674,0 9.24707,7.97066 11.47309,12.49235 2.0387,4.14117 3.8645,12.33837 2.7482,12.33837 -0.19746,0 -2.34823,-2.96276 -4.7795,-6.58391 z"
         id="path1925"
         transform="scale(0.26458333)" />
    </g>
    <path
       style="fill:#ffffff;stroke:#000000;stroke-width:5.58824;stroke-linecap:round;stroke-linejoin:round;stroke-opacity:0.955017;paint-order:stroke markers fill"
       d=""
       id="path1964"
       transform="scale(0.26458333)" />
    <path
       style="fill:#000000;stroke:#000000;stroke-width:4.87988;stroke-linecap:round;stroke-linejoin:round;stroke-opacity:0.955017;paint-order:stroke markers fill"
       d=""
       id="path2796"
       transform="scale(0.26458333)" />
    <path
       style="fill:#000000;stroke:#000000;stroke-width:4.87988;stroke-linecap:round;stroke-linejoin:round;stroke-opacity:0.955017;paint-order:stroke markers fill"
       d=""
       id="path2835"
       transform="scale(0.26458333)" />
    <path
       style="fill:#000000;stroke:#000000;stroke-width:4.87988;stroke-linecap:round;stroke-linejoin:round;stroke-opacity:0.955017;paint-order:stroke markers fill"
       d=""
       id="path2874"
       transform="scale(0.26458333)" />
    <path
       style="fill:#374548;fill-opacity:1;stroke:#000000;stroke-width:3.68586;stroke-linecap:round;stroke-linejoin:round;stroke-opacity:0.955017;paint-order:stroke markers fill"
       d=""
       id="path4783"
       transform="scale(0.26458333)" />
    <g
       id="g4994">
      <path
         id="path2216"
         style="fill:none;stroke:#000000;stroke-width:1.42919;stroke-linecap:round;stroke-linejoin:round;stroke-opacity:0.955017;paint-order:stroke markers fill"
         d="m 173.55731,267.05728 h 15.05676 c 1.82987,0 3.30302,1.70675 3.30302,3.8268 v 8.5874 c 0,2.12005 -1.47315,3.8268 -3.30302,3.8268 h -15.05676 c -1.82988,0 -3.30303,-1.70675 -3.30303,-3.8268 v -8.5874 c 0,-2.12005 1.47315,-3.8268 3.30303,-3.8268 z m -26.2234,-0.87659 h 14.65133 c 1.89046,0 3.41239,1.76327 3.41239,3.95352 v 8.87173 c 0,2.19025 -1.52193,3.95352 -3.41239,3.95352 h -14.65133 c -1.89047,0 -3.4124,-1.76327 -3.4124,-3.95352 v -8.87173 c 0,-2.19025 1.52193,-3.95352 3.4124,-3.95352 z m 26.23712,-11.11864 c 0.73041,1.06611 1.46068,2.13208 2.19082,3.1979 0.73015,1.06582 0.7791,0.8978 1.16844,1.34648 m -14.8976,-2.52465 c -0.48671,1.23442 -0.97357,2.4687 -1.46054,3.70283 m 16.63771,-3.53453 a 9.2619504,8.4010723 0 0 1 -9.26195,8.40108 9.2619504,8.4010723 0 0 1 -9.26194,-8.40108 9.2619504,8.4010723 0 0 1 9.26194,-8.40107 9.2619504,8.4010723 0 0 1 9.26195,8.40107 z m -3.93094,-1.34647 a 5.6231163,6.2274869 0 0 1 -5.62312,6.22748 5.6231163,6.2274869 0 0 1 -5.62311,-6.22748 5.6231163,6.2274869 0 0 1 5.62311,-6.22749 5.6231163,6.2274869 0 0 1 5.62312,6.22749 z m -39.63721,-93.7615 h 64.24126 c 1.9172,0 3.46066,1.78821 3.46066,4.00944 v 113.52486 c 0,2.22123 -1.54346,4.00943 -3.46066,4.00943 h -64.24126 c -1.91721,0 -3.46067,-1.7882 -3.46067,-4.00943 V 166.15155 c 0,-2.22123 1.54346,-4.00944 3.46067,-4.00944 z m 41.17706,54.86413 c 0.62328,4.86604 1.2467,9.73191 1.87026,14.59762 0.62355,4.86571 -2.38992,7.58335 -3.58467,11.37478 m -16.9512,-23.28678 c -0.6268,4.59946 -1.25373,9.19877 -1.8808,13.79792 -0.62707,4.59915 2.40339,7.16791 3.60487,10.75163 m 28.56391,-39.15385 a 21.90273,41.885636 0 0 1 -21.90273,41.88564 21.90273,41.885636 0 0 1 -21.90272,-41.88564 21.90273,41.885636 0 0 1 21.90272,-41.88563 21.90273,41.885636 0 0 1 21.90273,41.88563 z m -2.71255,-12.56776 a 19.656973,28.431998 0 0 1 -19.65696,28.432 19.656973,28.431998 0 0 1 -19.65698,-28.432 19.656973,28.431998 0 0 1 19.65698,-28.432 19.656973,28.431998 0 0 1 19.65696,28.432 z" />
      <path
         style="fill:#374548;stroke:#000000;stroke-width:9.70709;stroke-linecap:round;stroke-linejoin:round;stroke-opacity:0.955017;paint-order:stroke markers fill"
         d="m 626.10775,1063.6045 c 3.64347,-8.0268 3.72413,-43.4255 0.11703,-51.3667 l -2.40443,-5.2936 10.60214,-0.025 c 16.12248,-0.039 27.02377,-5.9212 34.48128,-18.60704 3.04182,-5.17438 3.56425,-7.51802 3.53843,-15.87349 -0.0231,-7.47295 -0.69483,-11.04539 -2.82631,-15.03097 -6.32015,-11.81783 -18.22704,-18.89252 -33.65433,-19.99633 l -9.1052,-0.6515 6.98682,-1.78806 c 10.29001,-2.6334 19.24428,-7.94474 28.28114,-16.77534 43.63803,-42.64201 59.01638,-147.98103 33.19195,-227.359 -11.74125,-36.08971 -30.35137,-62.09942 -51.59867,-72.11488 l -6.53521,-3.08053 55.28739,-0.0128 c 61.01244,-0.0141 61.39323,0.0333 64.16514,7.9848 1.03758,2.97638 1.44875,65.13484 1.44875,219.01103 0,230.47501 0.25,221.59621 -6.33863,225.12231 -1.45134,0.7768 -8.27863,1.4123 -15.17175,1.4123 h -12.53294 l 2.31745,-3.5369 c 3.41272,-5.2085 3.44188,-44.7283 0.0376,-50.9527 -4.48774,-8.2055 -4.72822,-8.2531 -41.47008,-8.2021 -36.10173,0.05 -37.3386,0.2634 -41.93137,7.2306 -2.24422,3.4044 -2.52769,6.288 -2.53534,25.7908 -0.007,17.1389 0.42903,22.8041 1.98552,25.8141 l 1.99413,3.8562 h -10.42599 -10.42599 z"
         id="path2215"
         transform="scale(0.26458333)" />
      <path
         style="fill:#374548;stroke:#000000;stroke-width:9.70709;stroke-linecap:round;stroke-linejoin:round;stroke-opacity:0.955017;paint-order:stroke markers fill"
         d="m 652.68923,1066.359 c -4.77492,-2.3726 -5.70403,-6.7944 -5.70403,-27.1468 0,-17.6148 0.24519,-19.6796 2.70895,-22.8117 l 2.70894,-3.4439 h 31.6998 c 40.50596,0 37.38364,-2.2601 37.38364,27.0606 0,29.4533 3.03035,27.1096 -35.49931,27.4553 -19.44256,0.1744 -31.51873,-0.2294 -33.29799,-1.1135 z"
         id="path2254"
         transform="scale(0.26458333)" />
      <path
         style="fill:#374548;stroke:#000000;stroke-width:9.70709;stroke-linecap:round;stroke-linejoin:round;stroke-opacity:0.955017;paint-order:stroke markers fill"
         d="m 553.35413,1065.0166 c -4.83383,-2.3406 -5.70615,-6.6954 -5.66246,-28.268 0.0434,-21.4202 0.4558,-23.1966 6.08095,-26.1926 3.68428,-1.9622 58.28804,-2.1163 61.916,-0.1747 5.25355,2.8116 6.4628,7.9401 6.4628,27.4091 0,19.469 -1.20925,24.5975 -6.4628,27.4091 -3.34652,1.791 -58.5927,1.6289 -62.33449,-0.1829 z"
         id="path2293"
         transform="scale(0.26458333)" />
      <path
         style="fill:#374548;stroke:#000000;stroke-width:9.70709;stroke-linecap:round;stroke-linejoin:round;stroke-opacity:0.955017;paint-order:stroke markers fill"
         d="m 499.17773,1065.3275 -3.83189,-3.8319 0.33807,-219.63588 0.33808,-219.63587 2.97592,-2.97705 2.97592,-2.97706 51.91979,-0.31781 51.91979,-0.31781 -6.32967,3.27554 c -13.82163,7.15256 -28.16377,20.36428 -36.85389,33.94913 -9.29255,14.52659 -13.64209,27.05836 -19.47345,56.10633 -6.15708,30.67049 -7.79832,48.98181 -6.86266,76.56641 1.16837,34.44512 6.43558,61.43012 17.15672,87.89742 14.16371,34.96595 36.14168,57.97266 59.63704,62.42846 9.36307,1.77567 10.02056,2.58851 4.20123,5.1939 -18.53315,8.29753 -26.08808,29.62124 -16.6416,46.97075 2.12258,3.89837 6.15312,8.75076 8.95675,10.78309 l 5.09751,3.69515 h -30.71827 c -29.81144,0 -30.84883,0.088 -35.14041,2.9801 -7.15309,4.8204 -7.68779,7.063 -7.70366,32.31 -0.0129,20.5169 0.25242,23.3108 2.5756,27.1211 l 2.58998,4.2479 h -21.6475 -21.6475 z"
         id="path2332"
         transform="scale(0.26458333)" />
      <path
         style="fill:#374548;stroke:#000000;stroke-width:9.70709;stroke-linecap:round;stroke-linejoin:round;stroke-opacity:0.955017;paint-order:stroke markers fill"
         d="m 611.89622,928.6 c -3.84319,-1.05534 -7.79396,-2.37006 -8.7795,-2.92159 -2.37577,-1.32955 -14.67666,-26.59076 -16.15737,-33.18093 -0.85652,-3.81207 -0.19249,-12.27735 2.50898,-31.9854 2.02058,-14.74072 3.91963,-27.04716 4.22012,-27.34765 0.30049,-0.30049 3.87205,0.62255 7.9368,2.05119 14.95706,5.25698 36.57193,2.66743 49.57814,-5.93968 2.68128,-1.77438 5.34793,-3.22615 5.9259,-3.22615 1.3398,0 7.4669,48.27557 7.17253,56.51247 -0.15597,4.36428 -2.22109,10.53575 -6.99784,20.91266 -3.72712,8.09669 -7.60467,15.68418 -8.61679,16.86109 -2.83327,3.2946 -15.98689,8.6379 -23.26816,9.45206 -3.96624,0.44348 -9.28201,-0.0235 -13.52281,-1.18807 z"
         id="path2371"
         transform="scale(0.26458333)" />
      <path
         style="fill:#374548;stroke:#000000;stroke-width:9.70709;stroke-linecap:round;stroke-linejoin:round;stroke-opacity:0.955017;paint-order:stroke markers fill"
         d="m 579.12282,904.88381 c -23.16403,-29.55887 -36.90389,-79.18824 -36.60902,-132.23442 0.0505,-9.08946 0.59736,-17.70262 1.21518,-19.14036 1.01012,-2.3507 1.13256,-2.26666 1.21517,0.83406 0.2706,10.15697 10.52342,37.21757 18.8594,49.77626 4.31628,6.50276 15.49476,18.44217 20.87406,22.29499 2.30374,1.65001 2.24176,2.80199 -1.69936,31.58875 -4.52187,33.02867 -4.37431,36.65706 2.00262,49.24132 1.84979,3.65038 3.08948,6.91081 2.75488,7.24541 -0.3346,0.3346 -4.21042,-3.98811 -8.61293,-9.60601 z"
         id="path2410"
         transform="scale(0.26458333)" />
      <path
         style="fill:#374548;stroke:#000000;stroke-width:9.70709;stroke-linecap:round;stroke-linejoin:round;stroke-opacity:0.955017;paint-order:stroke markers fill"
         d="m 604.13277,828.8062 c -19.09313,-6.59511 -36.05727,-25.44762 -45.90099,-51.0105 -6.37462,-16.55405 -8.39304,-28.61052 -8.4423,-50.42749 -0.0435,-19.25146 0.0434,-19.86249 4.8103,-33.8258 15.09817,-44.22619 34.8332,-66.89997 60.5705,-69.59005 16.27215,-1.70078 30.27216,4.19745 45.01558,18.96512 33.04489,33.09927 40.48016,97.81415 16.77313,145.98965 -9.77763,19.86932 -26.27449,35.69726 -42.10606,40.39873 -8.91281,2.64681 -22.23841,2.43008 -30.72016,-0.49966 z"
         id="path2449"
         transform="scale(0.26458333)" />
      <path
         style="fill:#374548;stroke:#000000;stroke-width:9.70709;stroke-linecap:round;stroke-linejoin:round;stroke-opacity:0.955017;paint-order:stroke markers fill"
         d="m 668.3696,896.50762 c 3.61523,-12.86962 3.5998,-14.74288 -0.38059,-46.20358 l -3.93975,-31.13956 5.51866,-6.1901 c 11.85376,-13.29597 21.38354,-34.44739 25.02547,-55.54423 1.11689,-6.46985 2.43274,-14.11604 2.92412,-16.99153 l 0.89341,-5.22817 1.10587,7.18873 c 2.01658,13.1089 1.54364,54.36377 -0.81503,71.09506 -4.03966,28.65539 -12.6673,56.45716 -23.57064,75.95414 -5.06836,9.06309 -8.26066,12.39595 -6.76152,7.05924 z"
         id="path2488"
         transform="scale(0.26458333)" />
      <path
         style="fill:#374548;stroke:#000000;stroke-width:9.70709;stroke-linecap:round;stroke-linejoin:round;stroke-opacity:0.955017;paint-order:stroke markers fill"
         d="m 622.07744,981.66758 c -8.50924,-8.94507 -8.16091,-22.16241 0.79121,-30.02248 11.38144,-9.99303 28.03767,-1.16026 28.03767,14.86832 0,12.39071 -7.07123,20.28808 -18.17419,20.2975 -5.00467,0.004 -6.39751,-0.66812 -10.65469,-5.14334 z"
         id="path2527"
         transform="scale(0.26458333)" />
      <path
         style="fill:#374548;stroke:#000000;stroke-width:4.87988;stroke-linecap:round;stroke-linejoin:round;stroke-opacity:0.955017;paint-order:stroke markers fill"
         d="m 624.86928,999.47168 c -5.52843,-1.78738 -9.09634,-3.84606 -12.89963,-7.44305 -3.2056,-3.03172 -3.40163,-3.38742 -2.58544,-4.69116 0.48574,-0.77589 1.23473,-2.5195 1.66442,-3.8747 0.42969,-1.3552 1.01471,-2.464 1.30005,-2.464 0.28533,0 1.29654,1.17526 2.24712,2.61168 2.35899,3.56468 7.57851,7.55536 11.65109,8.90805 2.48053,0.8239 4.7928,1.04308 8.71957,0.82651 6.39225,-0.35255 10.78495,-2.31171 15.29476,-6.82151 2.84347,-2.84348 6.80269,-9.95501 6.80375,-12.22087 10e-4,-2.34642 1.11958,-1.56184 4.37572,3.06941 l 3.3742,4.79915 -1.82591,3.19192 c -3.68068,6.43428 -10.9479,11.89382 -19.01979,14.28875 -4.83992,1.43604 -14.37935,1.34604 -19.09991,-0.18018 z"
         id="path2605"
         transform="scale(0.26458333)" />
      <path
         style="fill:#374548;stroke:#000000;stroke-width:4.87988;stroke-linecap:round;stroke-linejoin:round;stroke-opacity:0.955017;paint-order:stroke markers fill"
         d="m 603.97304,979.53922 c -1.77436,-7.04037 -1.28357,-12.69362 1.61614,-18.6156 1.67403,-3.41882 7.05131,-10.14986 8.1085,-10.14986 0.30451,0 -0.30212,1.71258 -1.34808,3.80572 -1.87436,3.75093 -3.60149,12.25426 -2.87403,14.14998 0.28742,0.74902 -3.75793,12.58507 -4.58354,13.41068 -0.11574,0.11575 -0.52929,-1.05467 -0.91899,-2.60092 z"
         id="path2644"
         transform="scale(0.26458333)" />
      <path
         style="fill:#374548;stroke:#000000;stroke-width:4.87988;stroke-linecap:round;stroke-linejoin:round;stroke-opacity:0.955017;paint-order:stroke markers fill"
         d="m 662.32201,967.86649 c -5.1923,-7.3777 -4.89883,-6.87568 -6.22284,-10.64471 -0.59497,-1.69368 -1.93372,-4.34795 -2.97499,-5.89836 -1.04127,-1.55042 -1.76852,-2.94364 -1.61612,-3.09604 0.52303,-0.52303 5.67549,3.46445 8.23729,6.37481 3.27764,3.72359 5.66205,8.62028 6.55377,13.45896 1.16114,6.30071 0.574,6.27198 -3.97711,-0.19466 z"
         id="path2683"
         transform="scale(0.26458333)" />
      <path
         style="fill:#374548;fill-opacity:1;stroke:#000000;stroke-width:3.68586;stroke-linecap:round;stroke-linejoin:round;stroke-opacity:0.955017;paint-order:stroke markers fill"
         d="m 662.0798,908.34236 c 0.0129,-0.20472 0.64018,-1.56322 1.394,-3.01887 1.18052,-2.27963 1.4585,-2.54072 2.00456,-1.88276 0.53318,0.64244 0.33429,1.12242 -1.25094,3.01887 -1.92628,2.30444 -2.18861,2.53442 -2.14762,1.88276 z"
         id="path4822"
         transform="scale(0.26458333)" />
    </g>
  </g>
</svg>
