<?xml version="1.0" encoding="UTF-8" standalone="no"?>
<!-- Created with Inkscape (http://www.inkscape.org/) -->

<svg
   width="210mm"
   height="297mm"
   viewBox="0 0 210 297"
   version="1.1"
   id="svg5"
   inkscape:version="1.1.2 (0a00cf5339, 2022-02-04, custom)"
   sodipodi:docname="usb mic 2 track icon svg.svg"
   xmlns:inkscape="http://www.inkscape.org/namespaces/inkscape"
   xmlns:sodipodi="http://sodipodi.sourceforge.net/DTD/sodipodi-0.dtd"
   xmlns="http://www.w3.org/2000/svg"
   xmlns:svg="http://www.w3.org/2000/svg">
  <sodipodi:namedview
     id="namedview7"
     pagecolor="#ffffff"
     bordercolor="#666666"
     borderopacity="1.0"
     inkscape:pageshadow="2"
     inkscape:pageopacity="0.0"
     inkscape:pagecheckerboard="0"
     inkscape:document-units="mm"
     showgrid="false"
     inkscape:zoom="0.72776573"
     inkscape:cx="753.6766"
     inkscape:cy="253.51565"
     inkscape:window-width="1680"
     inkscape:window-height="956"
     inkscape:window-x="-11"
     inkscape:window-y="-11"
     inkscape:window-maximized="1"
     inkscape:current-layer="layer2"
     showguides="false"
     inkscape:guide-bbox="true" />
  <defs
     id="defs2">
    <inkscape:path-effect
       effect="skeletal"
       id="path-effect3390"
       is_visible="true"
       lpeversion="1"
       pattern="M 93.013732,56.442232 A 43.324369,35.246521 0 0 0 55.319253,74.344861 43.324369,35.246521 0 0 0 89.516612,87.978578 43.324369,35.246521 0 0 0 127.2213,70.062891 43.324369,35.246521 0 0 0 93.013732,56.442232 Z m -3.123612,5.227904 a 30.697508,20.923862 0 0 0 -26.708446,10.627775 30.697508,20.923862 0 0 0 24.23056,8.093564 30.697508,20.923862 0 0 0 26.715686,-10.635527 30.697508,20.923862 0 0 0 -24.2378,-8.085812 z"
       copytype="repeated_stretched"
       prop_scale="1"
       scale_y_rel="false"
       spacing="0"
       normal_offset="0"
       tang_offset="0"
       prop_units="false"
       vertical_pattern="false"
       hide_knot="false"
       fuse_tolerance="0" />
    <inkscape:path-effect
       effect="skeletal"
       id="path-effect3338"
       is_visible="true"
       lpeversion="1"
       pattern="M 93.013732,56.442232 A 43.324369,35.246521 0 0 0 55.319253,74.344861 43.324369,35.246521 0 0 0 89.516612,87.978578 43.324369,35.246521 0 0 0 127.2213,70.062891 43.324369,35.246521 0 0 0 93.013732,56.442232 Z m -3.123612,5.227904 a 30.697508,20.923862 0 0 0 -26.708446,10.627775 30.697508,20.923862 0 0 0 24.23056,8.093564 30.697508,20.923862 0 0 0 26.715686,-10.635527 30.697508,20.923862 0 0 0 -24.2378,-8.085812 z"
       copytype="repeated_stretched"
       prop_scale="1"
       scale_y_rel="false"
       spacing="0"
       normal_offset="0"
       tang_offset="0"
       prop_units="false"
       vertical_pattern="false"
       hide_knot="false"
       fuse_tolerance="0" />
    <inkscape:path-effect
       effect="spiro"
       id="path-effect6262"
       is_visible="true"
       lpeversion="1" />
    <inkscape:path-effect
       effect="spiro"
       id="path-effect6137"
       is_visible="true"
       lpeversion="1" />
    <inkscape:path-effect
       effect="spiro"
       id="path-effect6112"
       is_visible="true"
       lpeversion="1" />
    <inkscape:path-effect
       effect="spiro"
       id="path-effect6106"
       is_visible="true"
       lpeversion="1" />
    <inkscape:path-effect
       effect="spiro"
       id="path-effect5402"
       is_visible="true"
       lpeversion="1" />
    <inkscape:path-effect
       effect="spiro"
       id="path-effect5285"
       is_visible="true"
       lpeversion="1" />
    <inkscape:path-effect
       effect="spiro"
       id="path-effect5279"
       is_visible="true"
       lpeversion="1" />
    <inkscape:path-effect
       effect="spiro"
       id="path-effect5143"
       is_visible="true"
       lpeversion="1" />
    <inkscape:path-effect
       effect="spiro"
       id="path-effect5106"
       is_visible="true"
       lpeversion="1" />
    <inkscape:path-effect
       effect="spiro"
       id="path-effect4316"
       is_visible="true"
       lpeversion="1" />
    <inkscape:path-effect
       effect="spiro"
       id="path-effect4310"
       is_visible="true"
       lpeversion="1" />
    <inkscape:path-effect
       effect="spiro"
       id="path-effect2247"
       is_visible="true"
       lpeversion="1" />
    <inkscape:path-effect
       effect="spiro"
       id="path-effect2142"
       is_visible="true"
       lpeversion="1" />
    <inkscape:path-effect
       effect="spiro"
       id="path-effect2138"
       is_visible="true"
       lpeversion="1" />
    <inkscape:path-effect
       effect="spiro"
       id="path-effect1988"
       is_visible="true"
       lpeversion="1" />
    <inkscape:path-effect
       effect="spiro"
       id="path-effect1982"
       is_visible="true"
       lpeversion="1" />
    <inkscape:path-effect
       effect="spiro"
       id="path-effect1865"
       is_visible="true"
       lpeversion="1" />
    <inkscape:path-effect
       effect="spiro"
       id="path-effect1779"
       is_visible="true"
       lpeversion="1" />
    <inkscape:path-effect
       effect="spiro"
       id="path-effect1674"
       is_visible="true"
       lpeversion="1" />
    <inkscape:path-effect
       effect="spiro"
       id="path-effect1670"
       is_visible="true"
       lpeversion="1" />
    <inkscape:path-effect
       effect="spiro"
       id="path-effect1553"
       is_visible="true"
       lpeversion="1" />
    <inkscape:path-effect
       effect="spiro"
       id="path-effect1547"
       is_visible="true"
       lpeversion="1" />
    <inkscape:path-effect
       effect="spiro"
       id="path-effect1669"
       is_visible="true"
       lpeversion="1" />
    <inkscape:path-effect
       effect="spiro"
       id="path-effect1663"
       is_visible="true"
       lpeversion="1" />
    <inkscape:path-effect
       effect="spiro"
       id="path-effect1544"
       is_visible="true"
       lpeversion="1" />
    <inkscape:path-effect
       effect="spiro"
       id="path-effect2054"
       is_visible="true"
       lpeversion="1" />
    <inkscape:path-effect
       effect="spiro"
       id="path-effect1881"
       is_visible="true"
       lpeversion="1" />
    <inkscape:path-effect
       effect="spiro"
       id="path-effect1875"
       is_visible="true"
       lpeversion="1" />
    <inkscape:path-effect
       effect="spiro"
       id="path-effect1360"
       is_visible="true"
       lpeversion="1" />
    <inkscape:path-effect
       effect="spiro"
       id="path-effect1157"
       is_visible="true"
       lpeversion="1" />
    <inkscape:path-effect
       effect="spiro"
       id="path-effect2785"
       is_visible="true"
       lpeversion="1" />
    <inkscape:path-effect
       effect="spiro"
       id="path-effect2650"
       is_visible="true"
       lpeversion="1" />
    <inkscape:path-effect
       effect="spiro"
       id="path-effect2453"
       is_visible="true"
       lpeversion="1" />
    <inkscape:path-effect
       effect="rough_hatches"
       id="path-effect2461"
       is_visible="true"
       lpeversion="1"
       direction="69.99843,260.92094 , 8.1437712,0"
       dist_rdm="6;1"
       growth="0"
       do_bend="true"
       bender="69.99843,265.92094 , 5,0"
       bottom_edge_variation="1.4602372;1"
       top_edge_variation="1.4602372;1"
       bottom_tgt_variation="0;1"
       top_tgt_variation="0;1"
       scale_bf="1"
       scale_bb="1"
       scale_tf="1"
       scale_tb="1"
       top_smth_variation="0;1"
       bottom_smth_variation="0;1"
       fat_output="true"
       stroke_width_top="1"
       stroke_width_bottom="1"
       front_thickness="1"
       back_thickness="0.25" />
    <inkscape:path-effect
       effect="skeletal"
       id="path-effect1945"
       is_visible="true"
       lpeversion="1"
       pattern="m 33.860958,87.614548 h 14.800324 c 5.651367,0 10.201025,4.549657 10.201025,10.201025 v 12.157417 c 0,5.65137 -4.549658,10.20103 -10.201025,10.20103 H 33.860958 c -5.651368,0 -10.201025,-4.54966 -10.201025,-10.20103 V 97.815573 c 0,-5.651368 4.549657,-10.201025 10.201025,-10.201025 z"
       copytype="repeated"
       prop_scale="1.28"
       scale_y_rel="false"
       spacing="2.6"
       normal_offset="0"
       tang_offset="0"
       prop_units="false"
       vertical_pattern="false"
       hide_knot="false"
       fuse_tolerance="0" />
    <inkscape:path-effect
       effect="skeletal"
       id="path-effect1762"
       is_visible="true"
       lpeversion="1"
       pattern="#rect1629"
       copytype="repeated"
       prop_scale="1"
       scale_y_rel="false"
       spacing="0"
       normal_offset="0"
       tang_offset="0"
       prop_units="false"
       vertical_pattern="false"
       hide_knot="false"
       fuse_tolerance="0" />
    <clipPath
       clipPathUnits="userSpaceOnUse"
       id="clipPath2716">
      <path
         id="path2718"
         style="fill:none;stroke:#000000;stroke-width:1.265;stroke-linecap:round;stroke-linejoin:round;stroke-miterlimit:4;stroke-dasharray:none;stroke-opacity:0.955017;paint-order:stroke markers fill"
         d="m 171.94247,92.538537 v 93.056333 h 63.42766 V 92.538537 Z m 1.8154,27.651543 c 0.3048,-5e-5 0.6134,0.29795 0.6134,0.894 v 0.49764 c 0.025,0.0197 0.0443,0.0352 0.0754,0.0594 -0.0191,-0.0239 -0.0814,-0.0908 -0.0574,-0.0718 0.35281,0.27864 0.45167,0.3023 0.52917,0.75809 -0.006,0.11727 -0.0131,0.23413 -0.0191,0.3514 0.0277,-0.0604 0.0147,-0.0598 0.0388,0.004 0.0859,0.28692 0.0325,0.58407 0.0305,0.87695 0.003,0.22514 0.004,0.45027 0.004,0.67541 0.0766,-0.0457 0.15873,-0.0718 0.24184,-0.0718 0.0408,0 0.0814,0.006 0.12144,0.0171 v -0.80874 c 0,-0.59503 0.29995,-0.89298 0.60048,-0.894 v 5.3e-4 h 5.3e-4 c 0.3009,2.6e-4 0.60152,0.29828 0.60152,0.894 v 1.39216 1.12448 1.37821 c 0.0567,-0.29605 0.0576,-0.26053 0.0594,-0.21394 0.0186,-0.0582 0.041,-0.11104 0.0667,-0.15864 0.001,-0.006 0.001,-0.003 0.003,-0.009 0.0294,-0.12516 0.0424,-0.25354 0.0636,-0.38034 h -0.001 c 0.0892,-0.53274 0.33706,-0.77868 0.58291,-0.77773 0.29672,0.001 0.59045,0.36198 0.59789,1.01389 10e-4,0.10111 -0.0177,0.19737 -0.0429,0.29249 0.0713,0.14079 0.11576,0.32478 0.11576,0.55294 v 1.45262 c -0.0237,0.34855 -0.13495,0.66485 -0.24081,0.99116 v 0.45165 c 0,1.11188 -1.04705,1.18648 -1.18805,0.22428 -0.17076,-0.083 -0.31469,-0.26974 -0.36483,-0.56276 -0.34057,0.21245 -0.80769,-0.0317 -0.84698,-0.72709 -0.3623,0.30307 -1.02482,0.0418 -0.98857,-0.77876 0.002,-0.0559 0.005,-0.11205 0.007,-0.16795 0.008,-0.0387 0.0168,-0.0888 0.0279,-0.14418 -0.0137,-0.0477 -0.007,-0.0903 0.0279,-0.12299 -0.0107,0.0426 -0.02,0.084 -0.0279,0.12299 0.058,0.2023 0.4812,0.50379 0.71107,0.6072 0.0308,0.0139 0.13028,-0.0514 0.23461,-0.12867 v -0.31006 c -0.18047,-0.0918 -0.36886,-0.31369 -0.56844,-0.43305 -0.0831,0.0184 -0.1765,0.0511 -0.28112,0.10025 -0.0171,0.17295 0.005,0.35404 -0.0217,0.0104 -0.001,5.3e-4 -0.002,0.001 -0.004,0.002 -0.0171,0.008 -0.0306,0.018 -0.0418,0.0284 0.0123,-0.0488 0.0268,-0.0984 0.0444,-0.14676 0.002,-0.21005 -0.002,-0.25354 0.045,-0.51004 0.0173,-0.0934 0.0465,-0.18435 0.0718,-0.27596 -0.25462,-0.34269 -0.61231,-1.84643 -0.71934,-0.96583 -0.0243,0.20019 0.0306,0.4274 -0.0729,0.60048 -0.085,0.14224 -0.11324,-0.42935 -0.11524,-0.45475 -0.0403,-0.14283 -0.12568,-0.4406 -0.14418,-0.54312 -0.0332,-0.18404 0.0284,-0.38509 0,-0.56999 v -1.36219 c 0,-0.35008 0.10499,-0.59453 0.25167,-0.73898 0.004,-0.0736 0.006,-0.14676 0.002,-0.21859 -0.0536,-0.20233 -0.0729,-0.23854 -0.0739,-0.45268 -0.0249,-0.0116 -0.0499,-0.023 -0.0744,-0.0351 0.19801,0.0499 -0.13475,-0.0277 -0.27388,-0.21032 -0.28065,-0.36836 -0.18164,-0.81235 -0.19224,-1.23456 -0.015,-0.59586 0.28637,-0.89395 0.59118,-0.894 z m 0.0165,2.40502 c 0.015,0.0194 0.0307,0.0377 0.0512,0.0506 0.0497,0.0315 0.21618,0.091 0.16588,0.0605 -0.0695,-0.0421 -0.1431,-0.0771 -0.21704,-0.1111 z m 53.54919,0.44545 v 5.3e-4 5.3e-4 c 0.23913,-0.006 0.5121,0.17404 0.69195,0.60358 0.1061,0.2534 0.23772,0.49751 0.31832,0.76016 0.18101,0.5901 0.28893,1.11131 0.38138,1.65261 0.24153,0.0852 0.44751,0.37362 0.44751,0.86662 v 0.46509 c 0.17404,-0.30525 0.39801,-0.45168 0.60255,-0.47388 v -0.29197 c 0,-0.59605 0.30098,-0.894 0.60203,-0.894 0.009,0 0.0182,0.003 0.0274,0.004 0.0552,-0.27863 0.19067,-0.45921 0.35037,-0.5457 0.0671,-0.44178 0.32578,-0.66301 0.58497,-0.66301 0.30106,0 0.60255,0.29795 0.60255,0.89401 v 1.11414 c 0.11682,0.15512 0.16028,0.59889 0.15038,0.78238 -0.004,0.0691 -0.0217,0.13686 -0.0326,0.20516 -0.004,0.0114 -0.008,0.0228 -0.0114,0.0341 0.001,-7.9e-4 0.002,2.7e-4 0.003,0.002 0.032,0.078 0.0116,0.6811 0.0124,0.78497 0.002,0.27842 -0.004,0.55718 -0.002,0.8356 7e-5,0.0121 5.3e-4,0.0241 5.3e-4,0.0362 0.003,0.52925 -0.23205,0.82453 -0.49557,0.88573 -0.0679,0.5869 -0.4593,0.81442 -0.7767,0.67489 -0.25025,0.32889 -0.68475,0.29165 -0.89452,-0.11058 -0.1006,0.21278 -0.25198,0.33849 -0.41083,0.38189 -7.9e-4,0.0313 -0.0709,0.055 -0.25114,0.0667 -0.0304,0.002 -0.061,0.005 -0.0915,0.008 -5e-5,0.005 6e-5,0.007 0,0.0114 -0.0174,0.24271 -0.0309,0.48566 -0.0517,0.72812 0.15541,0.0128 0.21709,0.11304 0.0791,0.38292 -0.2783,0.54229 -0.24936,0.81681 -1.19941,0.3545 -0.12467,-0.0607 -0.13935,-0.2551 -0.12609,-0.44183 0.066,0.0686 0.61391,-0.18556 1.0051,-0.26975 -0.55671,-0.31293 -0.56029,-0.2466 -0.83664,0.0248 -0.0907,0.0891 -0.14314,0.15008 -0.16433,0.19069 0.012,-0.12284 0.0331,-0.23627 0.0388,-0.29818 0.0174,-0.19098 0.0294,-0.38233 0.0429,-0.5736 -0.0367,0.001 -0.10147,0.001 -0.20877,-0.003 -0.003,0.1686 -0.0477,0.0956 -0.3638,0.002 -0.85874,0.0368 -0.83887,0.29404 -0.8413,-0.14831 v -5.3e-4 c -5e-5,-0.007 8e-5,-0.0133 0,-0.0212 0.007,-0.21925 0.003,-0.13215 0.0181,-0.37723 0.005,-0.073 0.007,-0.14621 0.0139,-0.21911 0.002,-0.0229 0.003,-0.0466 0.0119,-0.0677 0.002,-0.005 0.016,0.009 0.015,0.004 -0.007,-0.0311 -0.0227,-0.0596 -0.0341,-0.0894 -0.0849,-0.226 -0.15951,-0.44774 -0.21911,-0.68575 -0.007,-0.0267 0.018,0.0532 0.0336,0.0754 0.009,0.0126 -0.008,-0.0292 -0.0124,-0.0439 -0.37529,-0.72619 -0.43411,-1.56411 -0.42168,-2.36988 0.009,-0.59599 0.31001,-0.89399 0.60875,-0.894 0.29874,-2e-5 0.59532,0.29795 0.59532,0.894 0,0.0307 1e-4,0.0252 0,0.0522 0.10496,-0.10814 0.23296,-0.16279 0.36122,-0.16279 0.0688,0 0.1374,0.0165 0.20257,0.0476 -0.11477,-0.77567 -0.23289,-1.60322 -0.45734,-2.35438 -0.0708,-0.23676 -0.1891,-0.45643 -0.2837,-0.68471 -0.2781,-0.6711 0.0119,-1.13272 0.38499,-1.14205 z m -50.78501,6.28696 c 0,0.14578 -0.0185,0.27328 -0.0501,0.38343 0.0202,0.005 0.031,0.007 0.0501,0.0119 v -0.0424 z m 51.39892,1.09915 c -0.0562,0.0948 -0.12572,0.16613 -0.20205,0.21498 -0.009,0.15264 -0.0206,0.30569 -0.0253,0.4563 5.3e-4,0.0353 0.001,0.0652 0.002,0.0909 0.0962,0.0104 0.16913,0.0193 0.2098,0.0264 0.002,-0.0329 0.005,-0.0658 0.007,-0.0987 0.004,-0.28401 0.005,-0.47104 0.009,-0.68988 z m -0.0987,1.67483 c -0.002,0.0177 -0.003,0.0353 -0.004,0.0532 -0.01,-0.0101 -0.009,-0.0275 0.004,-0.0532 z m 1.08262,13.01626 h 5.3e-4 c 0.21847,0 0.43559,0.159 0.53899,0.47284 0.0928,-0.0738 0.19841,-0.11162 0.30437,-0.11162 0.30106,0 0.60203,0.29796 0.60203,0.894 v 0.37776 c 0.0762,-0.0446 0.15842,-0.0677 0.24081,-0.0677 0.25155,0 0.50079,0.21078 0.57671,0.62684 0.0478,-0.0159 0.0967,-0.0248 0.14573,-0.0248 0.30106,0 0.60203,0.29794 0.60203,0.894 v 1.57303 c 0.0157,0.12506 -0.0213,0.26017 -0.002,0.38447 0.001,0.001 0.002,0.002 0.003,0.004 5.3e-4,-0.0211 10e-4,-0.0686 0.0165,-0.0615 0.0166,0.007 0.0473,0.0964 0.0729,0.17828 0.21492,0.32555 0.17921,0.67555 0.14366,1.06402 -0.001,0.26308 0.009,0.52596 0.008,0.78909 -0.002,0.31037 -0.002,0.62083 -0.001,0.93121 1.4e-4,0.17229 -5.3e-4,0.34498 -5.3e-4,0.51729 4e-5,0.15635 5.3e-4,0.31234 5.3e-4,0.4687 -5e-5,1.19211 -1.2044,1.19212 -1.20458,0 v -0.17467 c -0.13995,0.14334 -0.10051,0.033 0,-0.21445 v -0.0796 -0.12868 c -0.19323,0.20208 -0.46501,0.22038 -0.67179,0.0517 -0.0626,0.006 -0.12279,0.0116 -0.1757,0.0124 -0.008,0.0333 -0.0161,0.0691 -0.0243,0.10542 0.0843,0.0908 0.17785,0.17577 0.23151,0.28576 0.0486,0.0995 -0.16348,-0.1488 -0.24546,-0.22324 0.005,-0.022 0.009,-0.0415 0.0134,-0.0625 -0.0331,-0.0357 -0.0647,-0.0722 -0.092,-0.11163 -0.12086,-0.0178 -0.1689,-0.0773 -0.077,-0.216 -0.003,-0.0378 -0.002,-0.0762 -5.3e-4,-0.11421 -0.12402,0.0924 -0.26899,0.12063 -0.40617,0.0827 v 0.34985 c 0,1.19211 -1.20406,1.19211 -1.20406,0 v -0.41134 c -0.12021,-0.0281 -0.23409,-0.10348 -0.32195,-0.22635 -0.22015,-0.10482 -0.40049,-0.38283 -0.40049,-0.84284 v -0.0811 -0.88057 -0.12247 c -0.0589,-0.17822 -0.10784,-0.35978 -0.13281,-0.54932 0.0163,-0.15638 0.0122,-0.20264 0.0543,-0.34261 0.007,-0.0225 0.0144,0.0459 0.03,0.0636 0.007,0.007 0.008,-0.0184 0.0124,-0.0274 -0.0194,-0.0469 -0.0395,-0.0937 -0.0589,-0.14056 -0.15553,-0.26576 -0.19167,-0.28798 -0.26407,-0.63045 -0.0135,-0.0638 0,-0.13066 0,-0.19586 V 148.3 h -5.2e-4 c 0,-0.42015 0.15862,-0.69129 0.3607,-0.81494 v -1.41231 c 0,-0.59604 0.30096,-0.89401 0.60203,-0.89401 0.1172,0 0.23439,0.0456 0.33383,0.13591 0.1097,-0.1289 0.2486,-0.19585 0.3886,-0.19585 z m -51.42166,1.20303 h 5.3e-4 5.2e-4 l 5.3e-4,5.3e-4 v 5.3e-4 h 5.3e-4 5.3e-4 c 0.25897,2.6e-4 0.51689,0.22218 0.58395,0.66353 0.10806,-0.12084 0.24322,-0.1819 0.37878,-0.1819 0.0779,0 0.1557,0.0206 0.22841,0.0605 0.004,-1e-4 0.008,-5.3e-4 0.0119,-5.3e-4 0.30103,0 0.60255,0.29846 0.60255,0.89452 v 1.38441 c 0,0.16557 -0.0197,0.33273 0,0.49713 0.0154,0.12848 0.0696,0.24899 0.10438,0.37362 0.0464,0.0885 0.094,0.17641 0.13901,0.26561 0.11147,0.22077 0.25827,0.51673 0.34159,0.74879 0.0666,0.18558 0.13183,0.64856 0.13384,0.4377 0.15825,0.28567 0.17203,0.6006 0.14934,0.91829 -0.008,0.11723 -0.0348,0.23223 -0.0351,0.34985 0.0163,0.31146 0.014,0.6236 0.0104,0.93535 -0.0149,1.19208 -1.21966,1.17721 -1.20406,-0.015 0.004,-0.30295 0.001,-0.60616 -0.008,-0.90899 -0.30267,0.0992 -0.55627,-1.91869 -0.83458,-0.93844 -2.6e-4,0.001 2e-5,0.001 -5.3e-4,0.002 v 1.38131 1.12758 c 0,0.32519 -0.0905,0.55929 -0.22066,0.70693 -3e-5,0.0104 5.3e-4,0.0188 5.3e-4,0.0295 0.22492,-0.0232 0.29567,-0.0269 0,0.002 -1e-4,0.0122 2e-4,0.0233 0,0.0362 -5.3e-4,0.0583 0.0471,0.16566 -0.0108,0.17466 -0.39678,0.0588 -0.80241,0.004 -1.20355,0.006 -0.38895,0.002 -0.26841,-0.0332 0.0248,-0.077 -0.051,-0.0604 -0.009,-0.23636 -0.0372,-0.62942 -0.007,-0.0622 -0.014,-0.11544 -0.0212,-0.17364 -0.0982,-0.41871 -0.17525,-0.88901 -0.3979,-0.56224 0.097,0.21276 0.10499,0.35451 0.10025,0.65785 0.0334,0.0894 -0.0812,0.19213 -0.0589,0.28783 0.22797,0.97981 -0.87041,1.08436 -1.14412,0.38189 -0.31692,-0.015 -0.83571,-1.66454 -0.9555,-0.70125 -0.007,0.0543 -0.0247,0.10819 -0.0207,0.16278 2.2e-4,0.003 0.001,0.006 0.002,0.009 0.0145,0.032 0.0273,0.0641 0.0403,0.0966 0.004,0.0102 0.002,0.0436 -5.3e-4,0.0331 -0.0138,-0.0431 -0.0347,-0.085 -0.0403,-0.1297 -0.0537,-0.11873 -0.11361,-0.23501 -0.15244,-0.35916 -0.016,-0.0511 7.9e-4,-0.10721 0.001,-0.16071 0.002,-0.41579 -0.009,-0.83116 -0.008,-1.24695 0.0195,-0.5605 0.0847,-1.12031 -0.0418,-1.67535 h 5.3e-4 c -0.10073,-0.44212 0.007,-0.74923 0.1943,-0.8971 -0.0337,-0.0525 -0.0617,-0.0948 -0.11007,-0.17415 -0.0441,-0.0724 -0.0626,-0.15842 -0.0827,-0.24082 -0.0892,-0.36566 -0.0839,-0.72048 -0.0739,-1.09399 h 5.3e-4 c 0.0155,-0.59586 0.29116,-0.89293 0.57567,-0.89245 0.13904,2.4e-4 0.27989,0.0723 0.39378,0.21446 0.0356,-0.2545 0.1861,-0.4201 0.37672,-0.46664 0.0375,-0.0148 0.0775,-0.024 0.1204,-0.0248 0.1841,-0.003 0.41338,0.12813 0.64493,0.44338 1.8e-4,2.3e-4 0.63781,0.864 0.66611,0.91881 0.0918,0.17751 0.16737,0.36318 0.23254,0.55242 v -0.42116 -1.88929 c 0,-0.59572 0.30061,-0.89366 0.60151,-0.894 z m -2.40606,2.76624 c -0.008,0.17824 -0.0165,0.35526 0.046,0.52658 0.0112,0.0307 0.008,0.0775 0.0382,0.0904 0.0215,0.009 0.007,-0.0461 0.0103,-0.0692 0.0307,0.0441 0.0613,0.0882 0.092,0.13229 -0.0553,-0.22866 -0.11301,-0.45655 -0.18655,-0.68006 z m 0.72451,3.78013 c 2e-5,0.003 -3e-5,0.006 0,0.009 -1.3e-4,0.0127 1.2e-4,0.0255 0,0.0382 0.0125,0.0163 0.0255,0.0341 0.0372,0.0486 -0.0112,-0.0327 -0.0228,-0.065 -0.0372,-0.0956 z m 0.25734,0.59118 c 8e-5,2.7e-4 5.3e-4,7.9e-4 5.3e-4,0.001 -1e-5,-2.7e-4 -3e-5,-5.3e-4 0,-0.001 z m 5.3e-4,0.002 c -0.002,0.0208 -0.004,0.0421 -0.008,0.0667 0.01,-0.002 0.0178,-0.001 0.0248,0.008 -0.006,-0.0255 -0.0112,-0.0496 -0.017,-0.0744 z" />
    </clipPath>
    <clipPath
       clipPathUnits="userSpaceOnUse"
       id="clipPath1703">
      <path
         id="path1705"
         style="fill:none;stroke:#000000;stroke-width:1.265;stroke-linecap:round;stroke-linejoin:round;stroke-opacity:0.955017;paint-order:stroke markers fill"
         d="M 34.332272,58.324089 V 148.51548 H 139.66589 V 75.964357 c -0.69979,0.134226 -1.42004,0.146441 -2.14199,0.116787 -0.79869,0.212712 -1.59035,0.454668 -2.37763,0.711068 0.001,0.06258 0.001,0.125563 0,0.188618 0.24659,0.491345 0.47814,0.987539 0.59014,1.521355 0.0381,0.181419 -0.36413,0.07614 -0.53795,0.140559 -0.31414,0.116422 -0.60972,0.278887 -0.92191,0.400492 -0.19531,0.07608 -0.39084,0.163119 -0.59841,0.192239 -0.0358,0.0051 0.005,-0.07272 0.007,-0.109038 -0.0852,0.128799 -0.1706,0.257223 -0.25579,0.386022 -0.11067,0.135652 -0.21995,0.259395 -0.32815,0.377756 0.0143,0.01519 0.028,0.03158 0.0424,0.04703 0.30331,-0.158118 0.57815,-0.234088 0.81598,-0.240295 0.67587,-0.01765 1.05754,0.51412 0.97565,1.230416 0.14537,-0.014 0.29082,-0.02601 0.43666,-0.03514 -0.0626,-0.57732 -0.0645,-0.776208 0.0615,-0.0036 0.15172,-0.0087 0.30389,-0.01416 0.4563,-0.01551 0.0174,0.921872 0.0349,1.843857 0.0522,2.765721 0.0164,0.875067 -0.0745,0.628809 -0.19069,-0.01601 -1.21552,-0.01881 -2.49199,0.345728 -3.74758,0.356566 -0.20049,0.0016 -0.40101,0.0027 -0.60151,0.0041 -0.0988,-5.29e-4 -0.19736,-0.0021 -0.29611,-0.0031 -0.12653,0.02819 -0.2534,0.05315 -0.38085,0.07545 -0.10932,0.373049 -0.23154,0.738894 -0.46406,1.042829 -0.29054,0.37978 -1.31759,0.09044 -1.72909,0.134358 -0.22764,0.03093 -0.45734,0.04768 -0.68264,0.0925 -0.29368,0.05841 -0.52714,0.129051 -0.72348,0.18242 -0.1622,0.146177 -0.31132,0.235852 -0.40204,0.09095 -0.003,-0.0046 -0.005,-0.0088 -0.008,-0.01344 -0.36478,0.0097 -0.59563,-0.264006 -0.98909,-1.262972 -0.24046,0.15 -0.4798,0.302762 -0.74466,0.398941 -1.20679,0.438232 -1.96943,0.37433 -3.24734,0.418579 -0.85801,0.02971 -1.34117,0.03018 -1.78698,0.05064 0.04,0.114959 0.077,0.230306 0.10904,0.346231 0.47825,0.02143 0.95899,0.07185 1.43557,0.114723 0.005,1.22e-4 0.009,1.72e-4 0.0139,5.29e-4 0.27066,0.810292 0.67161,1.588231 0.81235,2.43086 0.0266,0.159117 -0.21288,0.249965 -0.35037,0.334346 -1.34884,0.827841 -2.25336,0.877829 -3.78375,0.951881 -0.66839,0.04002 -1.31214,-0.147717 -1.96732,-0.221176 -0.13713,-0.01537 -0.35324,0.03479 -0.48317,0.04496 -0.077,0.0037 -0.15485,0.0084 -0.23358,0.01241 -0.78009,0.518869 -0.76266,0.538004 -2.47065,-0.226859 -0.21545,-0.09649 -0.20783,-0.427519 -0.26613,-0.656291 -0.24924,-0.97876 -0.17239,-1.972945 -0.18139,-2.969845 0.026,-0.585277 0.003,-0.631312 0.10181,-1.044382 -0.0294,-0.122097 -0.0765,-0.242067 -0.11059,-0.351398 -0.33462,-0.838081 -0.41475,-0.85666 0.0377,-1.334286 0.008,-0.163663 0.011,-0.322175 -0.009,-0.458888 -0.0351,-0.466707 -0.0417,-0.91404 0.0207,-1.373042 -0.3858,-0.596985 -0.39406,-1.614829 -0.34881,-1.987992 0.068,-0.561239 1.60363,-0.921575 1.86551,-1.008724 2.04126,-0.229751 1.29857,-0.193185 3.42098,-0.232545 0.26182,-0.0048 0.80135,-0.01783 1.37563,-0.01704 0.0946,1.22e-4 0.18983,0.0021 0.28525,0.0031 0.0915,-0.209709 0.19361,-0.416124 0.31317,-0.6134 -0.11483,-1.075917 0.54542,-1.423085 1.3472,-1.58905 0.0966,-0.162843 0.19963,-0.320678 0.31419,-0.469739 -0.0104,-0.0042 -0.0206,-0.0088 -0.031,-0.01291 -0.0479,0.02955 -0.0959,0.05841 -0.14521,0.08526 -0.0461,0.02508 0.0778,-0.112228 0.1266,-0.09302 0.006,0.0024 0.0124,0.0053 0.0186,0.0078 0.0277,-0.01709 0.0552,-0.03479 0.0827,-0.05219 0.0489,-0.06053 0.0989,-0.119772 0.15245,-0.176734 0.2727,-0.290158 0.71866,-0.345871 1.09089,-0.487307 0.54342,-0.206483 1.09847,-0.387564 1.66036,-0.545187 0.12902,-0.161279 0.29126,-0.332473 0.56482,-0.65474 0.45292,-0.326671 0.36996,-0.297773 1.2051,-0.538467 0.0372,-0.01072 0.0759,-0.01323 0.11472,-0.01241 0.0647,0.0013 0.13082,0.01241 0.19534,0.01241 h 1.92701 5.3e-4 c 1.29911,0 1.97748,0.625777 2.03812,1.280541 0.22788,0.24438 0.24489,0.361463 0.1173,0.396359 0.0781,0.04177 0.15783,0.09283 0.23978,0.156578 0.11952,0.09296 0.64322,0.429807 1.09555,0.789098 0.0415,0.0048 0.0884,0.0039 0.12815,0.01035 0.23789,-0.09393 0.47636,-0.186952 0.71779,-0.271302 0.66235,-0.231417 1.33185,-0.442034 2.00246,-0.648541 0.42318,-0.959157 0.54733,-0.915363 1.28106,-0.90692 0.4859,0.03127 0.97353,0.07223 1.46141,0.09922 0.65064,-0.165971 1.31379,-0.303144 2.09083,-0.410311 0.10056,-0.01386 0.2168,-0.04785 0.33486,-0.08165 V 58.324089 Z M 136.41906,73.478718 c -0.0489,0.0021 -0.0968,0.03899 -0.14469,0.101288 0.0768,-0.02252 0.15503,-0.04646 0.23099,-0.06821 -0.029,-0.02315 -0.0578,-0.03438 -0.0863,-0.03307 z m -22.59552,5.067909 c -0.009,-0.006 0.0521,0.039 0.17053,0.130741 0.005,-0.0047 0.009,-0.0099 0.0134,-0.01447 -0.10306,-0.06141 -0.17457,-0.109979 -0.18396,-0.116271 z m 11.40964,0.196887 c -1.12215,0.170555 -2.2474,0.31591 -3.37861,0.417028 -0.0894,0.388541 -0.18114,0.776221 -0.27853,1.162719 0.002,2.9e-5 0.004,-1.6e-5 0.006,0 1.03722,0.01021 2.38658,-0.146743 2.69958,1.357024 0.0805,-0.06124 0.17653,-0.21055 0.24959,-0.195336 0.36687,0.0764 0.69142,0.128587 0.99064,0.177765 -0.10733,-0.170571 -0.0622,-0.646403 0.26407,-1.661395 -0.75435,-0.642676 -0.84513,-0.968232 -0.55294,-1.257805 z m 1.5198,2.290815 c -0.30078,0.232161 -0.68125,0.573593 -0.94981,0.675413 0.60634,0.105817 1.01679,0.21637 1.14877,0.521414 0.51994,-0.332621 0.64105,-0.419336 0.76223,-0.490927 -0.51636,-0.109868 -0.83612,-0.3766 -0.96119,-0.7059 z m -2.27376,0.675413 c -0.0511,0.0058 -0.10844,0.08581 -0.16175,0.185001 0.003,0.02619 0.007,0.05149 0.0104,0.07855 0.002,0.02339 10e-4,0.04568 10e-4,0.06821 0.0979,-0.04936 0.15817,-0.156046 0.23823,-0.232543 -0.0206,-0.07468 -0.0516,-0.103362 -0.0879,-0.09922 z m 6.1526,2.360578 c -0.10928,0.01783 -0.21899,0.0353 -0.32866,0.04858 0.0531,0.12705 0.0977,0.229997 0.15657,0.373621 0.0575,-0.140679 0.11472,-0.281461 0.17209,-0.422198 z m -17.93948,0.276471 c -0.004,0.02662 -0.007,0.05139 -0.008,0.06976 -0.003,0.04313 0.0224,0.170305 0.0259,0.127125 0.004,-0.06503 -0.005,-0.131318 -0.0181,-0.196887 z m 3.70314,1.712555 c -0.004,0.04892 -0.007,0.09785 -0.0104,0.146762 -0.003,0.04437 -0.002,0.09097 0.001,0.137975 0.0301,0.0016 0.0604,0.0024 0.0904,0.0031 0.005,-0.07452 -0.004,-0.1475 -0.0403,-0.217556 -0.0125,-0.02439 -0.0265,-0.04748 -0.0408,-0.07028 z M 60.830912,107.67921 v 0.001 c 0.04136,0.25607 0.114372,0.51383 0.192236,0.77205 0.521195,0.43274 0.978395,0.96698 1.499135,1.40043 -0.532347,0.39668 -0.579782,0.44686 -1.130681,0.74259 0.009,0.0113 0.01677,0.0229 0.02119,0.0351 0.571807,1.59604 0.220919,2.18679 -0.45062,2.45463 0.117583,7.9e-4 0.257577,-0.003 0.363802,0 0.09337,0.002 0.250571,-0.0388 0.351401,-0.0336 0.0605,0.003 0.101145,0.0234 0.09508,0.0791 -0.05431,0.50016 -0.08139,0.78832 -0.114204,1.12603 0.06334,-0.025 0.126793,-0.0499 0.191203,-0.0729 0.218406,-0.078 0.640012,-0.35055 0.684713,-0.12299 0.353782,1.80112 0.434967,2.46502 0.09405,2.76727 0.01696,0.01 0.04148,0.0106 0.06925,0.005 0.08464,-0.0416 0.165214,-0.0806 0.271817,-0.13436 0.08691,-0.0438 -0.136234,0.11204 -0.271817,0.13436 -0.729234,0.35861 -0.696444,0.29922 -0.57671,0.21032 -0.0016,2.6e-4 -0.003,2.7e-4 -0.0047,5.3e-4 -0.190254,0.12183 -0.640387,0.40334 -1.46916,0.91209 2.482813,-0.21651 1.999644,0.27449 1.708938,1.85002 -0.586451,0.71454 -1.143965,1.67668 -1.89394,2.2102 -0.41026,0.2918 -0.961985,0.20755 -1.427303,0.22634 -0.570669,5.3e-4 -1.140243,-0.0323 -1.710491,-0.0124 -0.365519,0.0272 -0.688293,0.0686 -0.996321,0.0641 -0.0037,0.10266 -0.008,0.20536 -0.0093,0.308 -0.356764,1.19711 -0.03336,0.15624 -0.22996,0.70228 -0.0011,0.0145 -0.0016,0.029 -0.0031,0.0434 -0.0038,0.0365 -0.06014,0.13399 -0.04806,0.0992 0.02318,-0.0665 0.0354,-0.0988 0.05116,-0.14262 0.0095,-0.13227 0.0024,-0.26521 0.0047,-0.39791 0.0058,-0.33469 -0.02957,-0.53666 -0.0956,-0.64079 -0.08625,-0.0138 -0.172048,-0.0311 -0.257865,-0.0584 -0.716537,0.3264 -2.278327,3.31389 -2.346627,1.2361 -0.01537,-0.46753 -0.0021,-0.88476 0.199472,-1.3069 -0.143211,-0.50582 -0.169918,-0.99295 -0.08372,-1.44694 -0.754824,0.73051 0.237141,-0.16857 -1.681551,1.54203 -0.277998,0.12999 -0.61654,0.60662 -0.834057,0.39015 -0.363228,-0.36151 -0.674825,-0.79817 -0.905372,-1.27072 0.0074,0.37176 -0.191416,0.55496 -0.550871,1.32085 -0.318283,0.24081 -0.605589,0.5295 -0.954979,0.72243 -0.250185,0.13815 -0.510061,0.25749 -0.775147,0.36587 -0.27441,0.3652 -0.550828,0.72893 -0.813387,1.10226 0.03443,0.0784 0.06657,0.15752 0.09405,0.23875 0.05084,0.15031 0.0024,0.31727 0.0011,0.47594 -5.29e-4,0.0506 -0.0019,0.10092 -0.0026,0.15141 0.403346,0.0443 0.701563,0.23676 0.694531,0.7121 -0.0055,0.37381 -0.105759,0.73672 -0.205155,1.10019 0.01296,0.13327 -0.0024,0.27032 0.0041,0.40463 0.009,0.18852 0.02143,0.3769 0.03204,0.56534 0.03214,0.56299 0.133713,1.18886 -0.503327,1.60869 -0.09169,0.0604 -0.190008,0.10339 -0.293008,0.13435 -0.251391,0.31558 -0.653923,0.51488 -1.296043,0.49558 -0.414681,0.0187 -1.741072,0.33639 -1.944068,-0.0791 -0.675217,-1.3818 -0.77856,-1.8201 -0.483693,-2.15595 -0.05,-0.0225 -0.08503,-0.0752 -0.131773,-0.10593 -0.146772,-0.0964 -0.292039,-0.19607 -0.446484,-0.27957 -0.912932,-0.49375 -1.35527,-0.45089 -2.365232,-0.22324 -0.54341,-0.006 -1.26165,0.3816 -1.629873,-0.0181 -0.480119,-0.52113 -0.405961,-1.36312 -0.409795,-2.08514 -0.151773,0.008 -0.303239,0.0166 -0.454753,0.0274 -0.441595,-0.0167 -1.053274,0.29889 -1.324983,-0.0496 -0.167619,-0.21499 -0.263276,-0.46513 -0.327112,-0.73122 -0.097,-0.09 -0.18746,-0.1897 -0.287322,-0.27543 0.08052,0.0151 0.160367,0.0281 0.239263,0.0398 -0.09905,-0.55838 -0.113631,-1.16108 -0.378788,-1.64951 -0.0164,-0.0302 -0.04293,-0.0329 -0.07493,-0.0176 -0.08473,0.083 -0.168005,0.1674 -0.241329,0.25889 0.07788,-0.10864 0.17199,-0.22567 0.241329,-0.25889 0.06519,-0.0639 0.130884,-0.1273 0.194302,-0.19172 0.04333,-0.044 0.09536,-0.10017 0.157096,-0.0982 0.365133,0.009 0.729073,0.0397 1.092957,0.0734 -0.448511,-0.44064 -0.624475,-0.83898 -0.517282,-1.21956 -0.417361,-0.0312 -0.813585,-0.0973 -1.074353,-0.39016 -1.059358,-1.18987 0.864436,-2.54659 1.603004,-2.85874 0.531516,-0.22464 1.096886,-0.37855 1.667082,-0.46715 0.775305,-0.12047 1.565825,-0.10428 2.348693,-0.15658 0.790781,-0.0117 1.581713,-0.0214 2.372465,-0.0351 0.429694,-0.007 0.885595,-0.14498 1.313614,-0.14625 0.194556,-5.3e-4 0.383236,0.027 0.561208,0.10749 0.294971,0.13348 0.562621,0.25906 0.809252,0.37775 0.01553,-0.003 0.03149,-0.006 0.04599,-0.008 -0.01058,0.004 -0.01966,0.009 -0.02635,0.0171 0.02908,0.014 0.0589,0.028 0.08733,0.0419 0.0011,-0.0109 0.0019,-0.021 0.0031,-0.032 0.0032,-0.0292 -0.0258,-0.0315 -0.06305,-0.0269 0.07759,-0.0249 0.264964,0.0717 0.671795,0.24857 0.01048,0.023 0.01775,0.0382 0.02791,0.0605 0.0336,-0.0379 0.07075,-0.0762 0.115237,-0.11472 0.0087,-0.008 0.07189,0.13623 0.148828,0.32711 1.873094,1.02089 1.431766,1.27367 0.727604,1.10432 -0.01262,0.009 -0.02453,0.0186 -0.03721,0.0274 0.614551,0.16173 1.290077,0.0602 1.897041,0.25528 0.03326,0.0107 0.06116,0.0299 0.0863,0.0527 0.07532,-0.24151 1.477541,-1.24341 1.630391,-1.37666 0.153265,-0.13361 0.271939,-0.30298 0.416513,-0.44596 0.21445,-0.21207 0.439909,-0.41227 0.659907,-0.61857 0.138809,-0.0747 0.392227,-0.20831 0.665076,-0.3545 0.08515,-0.0798 0.128685,-0.12187 0.22221,-0.20929 0.397272,-0.37148 0.802587,-0.73404 1.206127,-1.09864 -0.183502,-0.0265 -0.352094,-0.0563 -0.45837,-0.0734 -0.216251,-0.0143 -0.43276,-0.024 -0.649573,-0.0315 -0.02119,0.003 -0.04253,0.007 -0.06356,0.0124 -0.153651,0.003 -0.307297,0.007 -0.460954,0.008 -0.03338,0.002 -0.06686,0.004 -0.100253,0.006 -0.07563,0.014 -0.17176,0.0516 -0.208257,0.016 -0.155093,0.0221 -0.282969,0.0219 -0.387056,0 -0.467765,-7.9e-4 -0.93631,-0.0244 -1.404048,-0.0238 -0.311568,0.001 -0.794944,0.2818 -0.934826,0.003 -0.157086,0.002 -0.314405,0.005 -0.471289,0.006 -0.0416,-0.001 -0.131236,0.0377 -0.124542,-0.004 0.04322,-0.26552 0.07161,-0.53812 0.100769,-0.8108 -0.04819,-0.009 -0.09692,-0.0186 -0.146243,-0.0289 0.01177,-0.89445 -0.306351,-1.857 0.03566,-2.68356 0.142435,-0.34424 0.741389,-0.0786 1.113626,-0.0941 0.102026,-0.004 0.2042,-0.007 0.30644,-0.009 0.429702,-0.34391 0.115131,-0.16756 1.136883,-0.50591 0.15956,-0.004 0.318643,0.001 0.478007,0.002 0.0067,-0.006 0.01341,-0.0122 0.02016,-0.0181 0.08167,-0.0133 0.173757,0.002 0.245462,-0.0398 0.443222,-0.25517 0.855763,-0.56012 1.283644,-0.84026 -0.15781,0.0371 -0.614169,0.19282 -0.473874,0.11162 0.529072,-0.30629 0.998244,-0.33241 1.580267,-0.42891 v -5.3e-4 c 0.204369,-0.0339 0.395692,-0.0488 0.57464,-0.0486 0.212212,-0.47289 0.544219,-0.83278 0.994773,-1.2392 0.629922,-0.25596 -1.123831,0.46176 0.743106,-0.36897 0.588566,-0.2619 1.209154,-0.44285 1.820561,-0.63975 0.374393,-0.12058 0.766344,-0.52343 1.123963,-0.35967 0.06551,0.03 0.128934,0.0623 0.19172,0.0966 0.167846,-0.10619 0.323043,-0.21315 0.451651,-0.32556 z M 47.72887,119.787 c -0.03822,-0.01 -0.07649,-0.0213 -0.114205,-0.0336 -0.0236,-0.008 -0.0222,-0.0208 -0.01188,-0.0362 -0.612188,-0.19445 -1.300017,-0.66814 -0.870234,-1.22422 -0.181475,-0.0944 -0.379497,-0.1941 -0.597894,-0.30024 -0.02313,0.21635 -0.04116,0.41618 -0.0553,0.60255 0.0084,0.0981 0.01651,0.2043 0.02066,0.32763 0.318225,0.22836 0.511533,0.55545 0.566373,0.8971 0.221056,0.006 0.447955,0.0182 0.632521,0.0501 0.144555,-0.0928 0.28879,-0.18575 0.429947,-0.28319 z m -0.996323,-1.29398 c 0.02839,0.0148 0.05775,0.0305 0.08527,0.045 -0.01519,-0.0331 -0.02747,-0.0602 -0.04341,-0.0951 -0.01487,0.0167 -0.02903,0.0335 -0.04186,0.0501 z m 12.811623,0.0729 c -0.0063,0.003 -0.01275,0.007 -0.01913,0.01 0.0016,0.005 0.0026,0.01 0.0041,0.0145 0.0048,-0.008 0.01029,-0.0159 0.01497,-0.0243 z m -0.0646,0.1049 c -0.01029,10e-4 -0.0181,0.003 -0.02894,0.004 0.0056,0.003 0.01847,2e-4 0.02585,0.002 0.0011,-0.002 0.0019,-0.004 0.0031,-0.006 z m -9.340516,1.31826 c -0.05404,0.001 -0.09437,0.13535 -0.143143,0.18759 0.110215,-0.0981 0.09504,-0.0845 0.186034,-0.16536 -0.0063,-0.005 -0.01225,-0.009 -0.0186,-0.0139 -0.0083,-0.006 -0.01656,-0.008 -0.02429,-0.008 z m -13.075172,2.73214 c -0.06985,-0.002 0.137316,0.0431 0.206706,0.0351 0.0391,-0.005 0.07824,-0.0105 0.117306,-0.016 -0.0678,-0.0109 -0.161772,-0.0137 -0.324012,-0.0191 z m 9.907924,2.21382 c -0.01053,0.001 -0.02101,0.003 -0.03152,0.005 -0.01765,0.0254 -0.03572,0.0505 -0.05323,0.076 -0.02212,0.0322 0.123447,-0.0856 0.08475,-0.0806 z m -1.580266,5.46891 c -0.02141,0.0107 -0.04282,0.0211 -0.06615,0.0238 -0.502214,0.0582 -0.70312,-0.0438 -0.397391,0.0796 0.254545,-0.0178 0.399608,-0.0257 0.463537,-0.10335 z" />
    </clipPath>
  </defs>
  <g
     inkscape:label="Layer 1"
     inkscape:groupmode="layer"
     id="layer1"
     style="display:inline">
    <path
       id="path3132"
       style="fill:none;fill-rule:evenodd;stroke:#000000;stroke-width:0.628575;stroke-linecap:round;stroke-linejoin:round;paint-order:stroke markers fill"
       d="m 49.90253,73.552596 a 4.9313647,6.1656894 0 0 1 -4.93136,6.16569 4.9313647,6.1656894 0 0 1 -4.93137,-6.16569 4.9313647,6.1656894 0 0 1 4.93137,-6.16569 4.9313647,6.1656894 0 0 1 4.93136,6.16569 z m -1.19992,0.32901 a 3.8296309,3.3998063 0 0 1 -3.82964,3.39981 3.8296309,3.3998063 0 0 1 -3.82963,-3.39981 3.8296309,3.3998063 0 0 1 3.82963,-3.3998 3.8296309,3.3998063 0 0 1 3.82964,3.3998 z m -2.96025,-13.04605 a 2.8283954,2.554101 0 0 1 -2.8284,2.5541 2.8283954,2.554101 0 0 1 -2.82839,-2.5541 2.8283954,2.554101 0 0 1 2.82839,-2.5541 2.8283954,2.554101 0 0 1 2.8284,2.5541 z m 2.3014,25.26075 c 1.41598,0 2.55592,0.63209 2.55592,1.41724 v 4.7968 c 0,0.78515 -1.13994,1.41723 -2.55592,1.41723 -1.41597,0 -2.55591,-0.63208 -2.55591,-1.41723 v -4.7968 c 0,-0.78515 1.13994,-1.41724 2.55591,-1.41724 z m 9.04402,5.36379 a 8.0609753,5.3963978 0 0 1 -8.06098,5.3964 8.0609753,5.3963978 0 0 1 -8.06097,-5.3964 8.0609753,5.3963978 0 0 1 8.06097,-5.3964 8.0609753,5.3963978 0 0 1 8.06098,5.3964 z M 46.98104,6.1130556 a 7.4697693,7.5006657 0 0 1 0.0761,0.12946 h -3.86421 a 7.4697693,7.5006657 0 0 1 0.0946,-0.1291 c 0.0108,-10e-6 0.0214,-3.7e-4 0.0322,-3.7e-4 z m -3.7881,0.12946 A 7.4697693,7.5006657 0 0 0 41.57,10.877146 a 7.4697693,7.5006657 0 0 0 2.8894,5.92053 7.4697693,7.5006657 0 0 0 -3.79686,6.52773 7.4697693,7.5006657 0 0 0 2.8894,5.92054 7.4697693,7.5006657 0 0 0 -3.79686,6.52773 7.4697693,7.5006657 0 0 0 2.8894,5.92053 7.4697693,7.5006657 0 0 0 -3.79687,6.52774 7.4697693,7.5006657 0 0 0 0.58483,2.87205 h -1.75392 a 7.4697693,7.5006657 0 0 0 1.02596,-3.76349 7.4697693,7.5006657 0 0 0 -2.88667,-5.92223 7.4697693,7.5006657 0 0 0 3.79413,-6.52604 7.4697693,7.5006657 0 0 0 -2.88655,-5.92223 7.4697693,7.5006657 0 0 0 3.79401,-6.52604 7.4697693,7.5006657 0 0 0 -2.88655,-5.92223 7.4697693,7.5006657 0 0 0 3.79401,-6.5260404 7.4697693,7.5006657 0 0 0 -0.96331,-3.67796 c 0.62513,-0.0424 1.2572,-0.0652 1.89618,-0.0652 z m -2.72939,0.0652 c -0.58048,0.0394 -1.15448,0.0968 -1.72129,0.17142 a 4.4343786,5.3146013 0 0 0 -0.002,-0.003 c 0.55884,-0.0898 1.12482,-0.16362 1.69741,-0.22053 a 7.4697693,7.5006657 0 0 1 0.0261,0.0516 z m -1.72129,0.17142 a 4.4343786,5.3146013 0 0 1 1.57673,4.0473704 4.4343786,5.3146013 0 0 1 -2.25234,4.62398 4.4343786,5.3146013 0 0 1 -1.71526,-4.19499 4.4343786,5.3146013 0 0 1 1.98675,-4.4109604 c -0.94112,0.16527 -1.86082,0.37634 -2.75557,0.63047 a 7.4697693,7.5006657 0 0 0 -0.83912,3.4161804 7.4697693,7.5006657 0 0 0 2.8894,5.92053 7.4697693,7.5006657 0 0 0 -3.79686,6.52774 7.4697693,7.5006657 0 0 0 2.8894,5.92053 7.4697693,7.5006657 0 0 0 -3.79686,6.52774 7.4697693,7.5006657 0 0 0 2.88928,5.92053 7.4697693,7.5006657 0 0 0 -3.79675,6.52774 7.4697693,7.5006657 0 0 0 0.7065,3.1638 h -1.0541 c -0.58007,0 -1.14783,0.0407 -1.70125,0.11523 a 7.4697693,7.5006657 0 0 0 2.08073,-5.17143 7.4697693,7.5006657 0 0 0 -2.88667,-5.92232 7.4697693,7.5006657 0 0 0 3.79413,-6.52594 7.4697693,7.5006657 0 0 0 -2.88667,-5.92232 7.4697693,7.5006657 0 0 0 3.79413,-6.52595 7.4697693,7.5006657 0 0 0 -2.88656,-5.92232 7.4697693,7.5006657 0 0 0 3.79402,-6.5259504 7.4697693,7.5006657 0 0 0 -0.11653,-1.2443 c -0.3902,0.12619 -0.77475,0.26125 -1.1542,0.40376 a 4.4343786,5.3146013 0 0 1 0.16285,1.38127 4.4343786,5.3146013 0 0 1 -2.25233,4.6239904 4.4343786,5.3146013 0 0 1 -1.71527,-4.1950004 4.4343786,5.3146013 0 0 1 6.7e-4,-0.01 c -0.50972,0.29706 -1.00347,0.6110104 -1.48144,0.9397604 a 7.4697693,7.5006657 0 0 0 2.76225,4.62604 7.4697693,7.5006657 0 0 0 -3.79686,6.52774 7.4697693,7.5006657 0 0 0 2.88918,5.92053 7.4697693,7.5006657 0 0 0 -3.79686,6.52773 7.4697693,7.5006657 0 0 0 2.8894,5.92053 7.4697693,7.5006657 0 0 0 -3.79687,6.52774 7.4697693,7.5006657 0 0 0 2.08828,5.18324 c -0.49376,0.18029 -0.96663,0.39096 -1.41518,0.62984 -0.82485,-0.71489 -1.58021,-1.48385 -2.25628,-2.30071 a 7.4697693,7.5006657 0 0 1 -0.0734,0.10897 c -0.18742,-0.23368 -0.36883,-0.47083 -0.54387,-0.71153 a 4.4343786,5.3146013 0 0 0 0.0603,-0.10566 c 0.17924,0.23968 0.36464,0.47586 0.55679,0.70804 a 7.4697693,7.5006657 0 0 0 1.44027,-4.40363 7.4697693,7.5006657 0 0 0 -2.88655,-5.92232 7.4697693,7.5006657 0 0 0 3.79401,-6.52595 7.4697693,7.5006657 0 0 0 -2.88656,-5.92232 7.4697693,7.5006657 0 0 0 3.79413,-6.52595 7.4697693,7.5006657 0 0 0 -2.88666,-5.92232 7.4697693,7.5006657 0 0 0 3.25759,-3.75875 c -1.36158,1.02733 -2.57268,2.1853 -3.604,3.45054 a 7.4697693,7.5006657 0 0 0 0.34641,0.30821 7.4697693,7.5006657 0 0 0 -1.27785,0.93555 c -1.16781,1.70164 -2.02737,3.565 -2.51562,5.5412 a 7.4697693,7.5006657 0 0 0 -0.003,0.051 7.4697693,7.5006657 0 0 0 2.8894,5.92053 7.4697693,7.5006657 0 0 0 -3.29144,3.88445 v -6.7268 c 0,-9.13268 8.10705,-16.6604504 18.78652,-18.0655004 z M 19.95574,31.271436 v 5.28998 a 7.4697693,7.5006657 0 0 1 -0.0614,-0.14807 v -4.99509 a 7.4697693,7.5006657 0 0 1 0.0614,-0.14682 z m 0,5.28998 a 7.4697693,7.5006657 0 0 0 2.38398,3.27384 7.4697693,7.5006657 0 0 0 -2.2611,1.99376 c -0.0807,-0.63449 -0.12288,-1.27863 -0.12288,-1.93113 z m 0.12288,5.2676 c 0.10984,0.86314 0.29308,1.70779 0.54354,2.53038 a 4.4343786,5.3146013 0 0 0 -0.0326,0.0703 c -0.25213,-0.82909 -0.43824,-1.67984 -0.55394,-2.54845 a 7.4697693,7.5006657 0 0 1 0.043,-0.0522 z m 0.54354,2.53038 a 4.4343786,5.3146013 0 0 1 1.78261,-2.25724 4.4343786,5.3146013 0 0 1 1.71362,4.19624 4.4343786,5.3146013 0 0 1 -0.88917,3.15477 c -1.1651,-1.55805 -2.05211,-3.2711 -2.60706,-5.09377 z m 17.05636,6.73458 a 7.4697693,7.5006657 0 0 1 -0.003,0.006 h 1.75841 a 7.4697693,7.5006657 0 0 1 -0.002,-0.006 h 1.55669 a 4.4343786,5.3146013 0 0 0 0.002,0.006 h 2.67716 a 4.4343786,5.3146013 0 0 0 0.003,-0.006 h 1.00023 a 7.4697693,7.5006657 0 0 1 -0.003,0.006 h 1.48441 a 7.4697693,7.5006657 0 0 1 -0.002,-0.006 h 1.55569 a 4.4343786,5.3146013 0 0 0 0.002,0.006 h 2.58461 a 4.4343786,5.3146013 0 0 0 0.003,-0.006 h 0.99836 a 7.4697693,7.5006657 0 0 1 -0.003,0.006 h 1.56763 a 7.4697693,7.5006657 0 0 1 -0.002,-0.006 h 1.55887 a 4.4343786,5.3146013 0 0 0 0.002,0.006 h 2.86267 a 4.4343786,5.3146013 0 0 0 0.002,-0.006 h 0.61592 c 8.93801,0 16.13357,5.87816 16.13357,13.17975 v 30.78558 c 0,0.3166 -0.0184,0.6294 -0.045,0.94029 -0.41949,0.84068 -0.66236,1.81298 -0.66236,2.85425 v 0.0882 c -2.01969,5.394644 -8.14404,9.296994 -15.4262,9.296994 H 33.92732 c -8.938,0 -16.13356,-5.87816 -16.13356,-13.179744 v -30.78558 c 0,-7.30159 7.19556,-13.17975 16.13356,-13.17975 h 0.37313 a 4.4343786,5.3146013 0 0 0 0.002,0.006 h 2.37609 a 4.4343786,5.3146013 0 0 0 0.003,-0.006 z m -0.99508,0 h -2.38146 a 4.4343786,5.3146013 0 0 1 -0.67309,-2.79368 4.4343786,5.3146013 0 0 1 2.25398,-4.62523 4.4343786,5.3146013 0 0 1 1.71362,4.19624 4.4343786,5.3146013 0 0 1 -0.91305,3.22267 z m 36.64247,47.84808 c 0.35175,-0.93955 0.57527,-1.92509 0.66236,-2.94246 0.86388,-1.73127 2.48806,-2.89594 4.36154,-2.89594 2.78322,0 5.02389,2.56459 5.02389,5.75019 v 32.636104 c 0,2.83228 -1.77273,5.16877 -4.12169,5.65329 -1.71902,0.7007 -4.0469,1.13068 -6.61946,1.13068 H 18.19667 c -4.88005,0 -8.8834703,-1.54442 -9.5045803,-3.55773 -0.54325,-0.91885 -0.86037,-2.0285 -0.86037,-3.22624 V 98.853846 c 0,-3.1856 2.2406703,-5.75019 5.0238903,-5.75019 2.78323,0 5.02379,2.56459 5.02379,5.75019 v 31.215284 c 0.10557,-0.002 0.21085,-0.003 0.31727,-0.003 h 54.43588 c 0.23349,0 0.46415,0.005 0.69336,0.0117 z M 57.28379,51.093976 h -2.86684 a 4.4343786,5.3146013 0 0 1 -0.45592,-2.31709 4.4343786,5.3146013 0 0 1 2.25398,-4.62523 4.4343786,5.3146013 0 0 1 1.71362,4.19624 4.4343786,5.3146013 0 0 1 -0.64484,2.74608 z m -4.42571,0 h -1.56347 a 7.4697693,7.5006657 0 0 0 0.91535,-3.57284 7.4697693,7.5006657 0 0 0 -2.88667,-5.92223 7.4697693,7.5006657 0 0 0 3.79413,-6.52604 7.4697693,7.5006657 0 0 0 -2.88667,-5.92223 7.4697693,7.5006657 0 0 0 3.79413,-6.52604 7.4697693,7.5006657 0 0 0 -2.88655,-5.92223 7.4697693,7.5006657 0 0 0 3.79401,-6.52603 7.4697693,7.5006657 0 0 0 -0.93342,-3.6155204 c -0.65477,-0.11725 -1.32006,-0.2119 -1.99442,-0.28361 11.76843,0.57501 21.03338,8.5042104 21.03338,18.2674304 v 15.35325 c 0,5.11501 -2.54372,9.72622 -6.65735,13.04098 -0.42972,-0.28077 -0.88761,-0.53361 -1.37006,-0.7559 a 7.4697693,7.5006657 0 0 0 0.67769,-3.08883 7.4697693,7.5006657 0 0 0 -2.88666,-5.92232 7.4697693,7.5006657 0 0 0 3.79412,-6.52595 7.4697693,7.5006657 0 0 0 -2.88666,-5.92232 7.4697693,7.5006657 0 0 0 3.79412,-6.52595 7.4697693,7.5006657 0 0 0 -2.88666,-5.92232 7.4697693,7.5006657 0 0 0 3.3922,-4.15285 c -0.25397,-0.29077 -0.51843,-0.57489 -0.79149,-0.85315 a 4.4343786,5.3146013 0 0 1 -2.16691,3.64477 4.4343786,5.3146013 0 0 1 -1.71526,-4.19499 4.4343786,5.3146013 0 0 1 0.4373,-2.29302 C 63.29354,10.106076 62.7984,9.8019056 62.28896,9.5132956 a 7.4697693,7.5006657 0 0 0 -0.56194,2.8414504 7.4697693,7.5006657 0 0 0 2.8894,5.92053 7.4697693,7.5006657 0 0 0 -3.79686,6.52774 7.4697693,7.5006657 0 0 0 2.8894,5.92053 7.4697693,7.5006657 0 0 0 -3.79686,6.52774 7.4697693,7.5006657 0 0 0 2.8894,5.92053 7.4697693,7.5006657 0 0 0 -3.79686,6.52774 7.4697693,7.5006657 0 0 0 0.14336,1.40024 h -0.87767 a 7.4697693,7.5006657 0 0 0 0.76618,-3.29263 7.4697693,7.5006657 0 0 0 -2.88656,-5.92232 7.4697693,7.5006657 0 0 0 3.79413,-6.52595 7.4697693,7.5006657 0 0 0 -2.88666,-5.92232 7.4697693,7.5006657 0 0 0 3.79412,-6.52595 7.4697693,7.5006657 0 0 0 -2.88666,-5.92232 7.4697693,7.5006657 0 0 0 3.79412,-6.52595 7.4697693,7.5006657 0 0 0 -0.12966,-1.3102404 c -0.5073,-0.26701 -1.02798,-0.51855 -1.56139,-0.75357 a 4.4343786,5.3146013 0 0 1 0.58306,2.6046304 4.4343786,5.3146013 0 0 1 -2.25233,4.62399 4.4343786,5.3146013 0 0 1 -1.71526,-4.19499 4.4343786,5.3146013 0 0 1 1.37137,-3.8218304 c -0.58985,-0.20299 -1.19287,-0.38561 -1.80649,-0.54941 a 7.4697693,7.5006657 0 0 0 -1.17282,4.0068404 7.4697693,7.5006657 0 0 0 2.8894,5.92053 7.4697693,7.5006657 0 0 0 -3.79686,6.52774 7.4697693,7.5006657 0 0 0 2.8894,5.92053 7.4697693,7.5006657 0 0 0 -3.79687,6.52774 7.4697693,7.5006657 0 0 0 2.8894,5.92053 7.4697693,7.5006657 0 0 0 -3.79686,6.52774 7.4697693,7.5006657 0 0 0 0.50499,2.68139 z M 52.0045,6.2772056 c -0.45344,-0.0222 -0.91013,-0.0347 -1.37061,-0.0347 H 49.7883 a 7.4697693,7.5006657 0 0 1 0.0794,-0.11291 c 0.72138,0.0231 1.43402,0.0729 2.1368,0.14762 z m -2.2162,-0.0347 a 7.4697693,7.5006657 0 0 0 -1.53937,4.5393404 7.4697693,7.5006657 0 0 0 2.8894,5.92053 7.4697693,7.5006657 0 0 0 -3.79686,6.52774 7.4697693,7.5006657 0 0 0 2.88928,5.92053 7.4697693,7.5006657 0 0 0 -3.79686,6.52774 7.4697693,7.5006657 0 0 0 2.8894,5.92053 7.4697693,7.5006657 0 0 0 -3.79686,6.52774 7.4697693,7.5006657 0 0 0 0.62458,2.96733 h -1.4798 a 7.4697693,7.5006657 0 0 0 0.85993,-3.47747 7.4697693,7.5006657 0 0 0 -2.88666,-5.92232 7.4697693,7.5006657 0 0 0 3.79412,-6.52595 7.4697693,7.5006657 0 0 0 -2.88666,-5.92231 7.4697693,7.5006657 0 0 0 3.79412,-6.52595 7.4697693,7.5006657 0 0 0 -2.88666,-5.92232 7.4697693,7.5006657 0 0 0 3.79413,-6.52595 7.4697693,7.5006657 0 0 0 -1.19638,-4.0292104 z M 50.29625,51.093986 H 47.7067 a 4.4343786,5.3146013 0 0 1 -0.57233,-2.60302 4.4343786,5.3146013 0 0 1 2.25398,-4.62524 4.4343786,5.3146013 0 0 1 1.71361,4.19625 4.4343786,5.3146013 0 0 1 -0.80571,3.03201 z m -6.62526,0 h -2.68187 a 4.4343786,5.3146013 0 0 1 -0.53357,-2.50774 4.4343786,5.3146013 0 0 1 2.25398,-4.62524 4.4343786,5.3146013 0 0 1 1.71362,4.19625 4.4343786,5.3146013 0 0 1 -0.75216,2.93673 z M 52.11084,6.5209256 a 4.4343786,5.3146013 0 0 1 1.71362,4.1962404 4.4343786,5.3146013 0 0 1 -2.25233,4.62398 4.4343786,5.3146013 0 0 1 -1.71527,-4.19499 4.4343786,5.3146013 0 0 1 2.25398,-4.6252304 z m -6.67892,0.0954 a 4.4343786,5.3146013 0 0 1 1.71362,4.1962404 4.4343786,5.3146013 0 0 1 -2.25234,4.62398 4.4343786,5.3146013 0 0 1 -1.71526,-4.19499 4.4343786,5.3146013 0 0 1 2.25398,-4.6252304 z m 23.72116,8.9512904 a 7.4697693,7.5006657 0 0 0 1.21663,1.94661 c -0.36105,-0.67012 -0.76757,-1.31982 -1.21663,-1.94661 z m -44.93338,1.63804 a 4.4343786,5.3146013 0 0 1 1.71361,4.19625 4.4343786,5.3146013 0 0 1 -2.25233,4.62398 4.4343786,5.3146013 0 0 1 -1.71527,-4.19499 4.4343786,5.3146013 0 0 1 2.25399,-4.62524 z m 6.82655,0.28594 a 4.4343786,5.3146013 0 0 1 1.71362,4.19624 4.4343786,5.3146013 0 0 1 -2.25234,4.62398 4.4343786,5.3146013 0 0 1 -1.71526,-4.19499 4.4343786,5.3146013 0 0 1 2.25398,-4.62523 z m 6.65165,1.28697 a 4.4343786,5.3146013 0 0 1 1.71362,4.19625 4.4343786,5.3146013 0 0 1 -2.25234,4.62398 4.4343786,5.3146013 0 0 1 -1.71526,-4.19499 4.4343786,5.3146013 0 0 1 2.25398,-4.62524 z m 33.31598,0.0651 a 7.4697693,7.5006657 0 0 0 -3.36766,6.24539 7.4697693,7.5006657 0 0 0 2.8894,5.92053 7.4697693,7.5006657 0 0 0 -3.79686,6.52774 7.4697693,7.5006657 0 0 0 2.8894,5.92044 7.4697693,7.5006657 0 0 0 -3.79686,6.52782 7.4697693,7.5006657 0 0 0 0.48746,2.6279 c 0.4271,-0.38602 0.83436,-0.78691 1.22211,-1.20073 a 4.4343786,5.3146013 0 0 1 -0.10164,-1.06286 4.4343786,5.3146013 0 0 1 2.25399,-4.62523 4.4343786,5.3146013 0 0 1 0.95696,1.2375 c 0.25708,-0.52037 0.48724,-1.05201 0.68865,-1.59421 a 7.4697693,7.5006657 0 0 0 -1.71067,-1.91019 7.4697693,7.5006657 0 0 0 2.68548,-2.61475 c 0.0238,-0.3552 0.0369,-0.71284 0.0369,-1.07306 v -6.69236 a 7.4697693,7.5006657 0 0 0 -1.81493,-2.06801 7.4697693,7.5006657 0 0 0 1.81493,-1.46681 v -1.3742 a 4.4343786,5.3146013 0 0 1 -1.38113,1.47977 4.4343786,5.3146013 0 0 1 -1.71526,-4.19499 4.4343786,5.3146013 0 0 1 2.25398,-4.62523 4.4343786,5.3146013 0 0 1 0.31015,0.33702 c -0.20965,-0.79357 -0.47899,-1.56844 -0.80441,-2.32148 z m -19.8105,0.12553 a 4.4343786,5.3146013 0 0 1 1.71362,4.19624 4.4343786,5.3146013 0 0 1 -2.25234,4.62398 4.4343786,5.3146013 0 0 1 -1.71526,-4.19499 4.4343786,5.3146013 0 0 1 2.25398,-4.62523 z m -6.67892,0.0953 a 4.4343786,5.3146013 0 0 1 1.71361,4.19624 4.4343786,5.3146013 0 0 1 -2.25233,4.62398 4.4343786,5.3146013 0 0 1 -1.71526,-4.1949 4.4343786,5.3146013 0 0 1 2.25398,-4.62532 z m 13.50547,0.19074 a 4.4343786,5.3146013 0 0 1 1.71362,4.19624 4.4343786,5.3146013 0 0 1 -2.25234,4.62399 4.4343786,5.3146013 0 0 1 -1.71526,-4.195 4.4343786,5.3146013 0 0 1 2.25398,-4.62523 z m 6.65155,1.28688 a 4.4343786,5.3146013 0 0 1 1.71361,4.19625 4.4343786,5.3146013 0 0 1 -2.25233,4.62398 4.4343786,5.3146013 0 0 1 -1.71526,-4.19499 4.4343786,5.3146013 0 0 1 2.25398,-4.62524 z m -41.36925,9.1118 a 4.4343786,5.3146013 0 0 1 1.71362,4.19625 4.4343786,5.3146013 0 0 1 -2.25233,4.62398 4.4343786,5.3146013 0 0 1 -1.71527,-4.19499 4.4343786,5.3146013 0 0 1 2.25398,-4.62524 z m 6.82655,0.28594 a 4.4343786,5.3146013 0 0 1 1.71363,4.19624 4.4343786,5.3146013 0 0 1 -2.25234,4.62398 4.4343786,5.3146013 0 0 1 -1.71526,-4.19499 4.4343786,5.3146013 0 0 1 2.25397,-4.62523 z m 6.65166,1.28697 a 4.4343786,5.3146013 0 0 1 1.71362,4.19624 4.4343786,5.3146013 0 0 1 -2.25234,4.62399 4.4343786,5.3146013 0 0 1 -1.71526,-4.19499 4.4343786,5.3146013 0 0 1 2.25398,-4.62524 z m 13.50537,0.19065 a 4.4343786,5.3146013 0 0 1 1.71362,4.19625 4.4343786,5.3146013 0 0 1 -2.25234,4.62398 4.4343786,5.3146013 0 0 1 -1.71526,-4.19499 4.4343786,5.3146013 0 0 1 2.25398,-4.62524 z m -6.67882,0.0953 a 4.4343786,5.3146013 0 0 1 1.71362,4.19624 4.4343786,5.3146013 0 0 1 -2.25233,4.62398 4.4343786,5.3146013 0 0 1 -1.71527,-4.19499 4.4343786,5.3146013 0 0 1 2.25398,-4.62523 z m 13.50548,0.19074 a 4.4343786,5.3146013 0 0 1 1.71362,4.19624 4.4343786,5.3146013 0 0 1 -2.25234,4.62398 4.4343786,5.3146013 0 0 1 -1.71526,-4.19499 4.4343786,5.3146013 0 0 1 2.25398,-4.62523 z m 6.65154,1.28688 a 4.4343786,5.3146013 0 0 1 1.71362,4.19625 4.4343786,5.3146013 0 0 1 -2.25233,4.62398 4.4343786,5.3146013 0 0 1 -1.71527,-4.19499 4.4343786,5.3146013 0 0 1 2.25398,-4.62524 z m 6.82667,0.28603 a 4.4343786,5.3146013 0 0 1 1.71361,4.19624 4.4343786,5.3146013 0 0 1 -2.25233,4.62398 4.4343786,5.3146013 0 0 1 -1.71526,-4.19499 4.4343786,5.3146013 0 0 1 2.25398,-4.62523 z m -41.36936,9.11171 a 4.4343786,5.3146013 0 0 1 1.71362,4.19624 4.4343786,5.3146013 0 0 1 -2.25233,4.62398 4.4343786,5.3146013 0 0 1 -1.71526,-4.19499 4.4343786,5.3146013 0 0 1 2.25397,-4.62523 z m 33.63523,3.05053 a 4.4343786,5.3146013 0 0 1 1.71363,4.19625 4.4343786,5.3146013 0 0 1 -0.40763,2.20266 c -1.06827,-0.39166 -2.23364,-0.63872 -3.46065,-0.71215 a 4.4343786,5.3146013 0 0 1 -0.0993,-1.06152 4.4343786,5.3146013 0 0 1 2.25398,-4.62524 z" />
  </g>
  <g
     inkscape:groupmode="layer"
     id="layer2"
     inkscape:label="Layer 2"
     style="display:inline">
    <path
       style="fill:#000000;fill-rule:evenodd;stroke:#000000;stroke-width:1.76519;stroke-linecap:round;stroke-linejoin:round;paint-order:stroke markers fill"
       d=""
       id="path2155"
       transform="scale(0.26458333)" />
    <path
       style="fill:#000000;fill-rule:evenodd;stroke:#000000;stroke-width:1.76519;stroke-linecap:round;stroke-linejoin:round;paint-order:stroke markers fill"
       d=""
       id="path3715"
       transform="scale(0.26458333)" />
    <path
       style="fill:#000000;fill-rule:evenodd;stroke:#000000;stroke-width:1.0103;stroke-linecap:round;stroke-linejoin:round;paint-order:stroke markers fill"
       d=""
       id="path3902"
       transform="scale(0.26458333)" />
    <path
       style="fill:#000000;fill-rule:evenodd;stroke:#000000;stroke-width:1.0103;stroke-linecap:round;stroke-linejoin:round;paint-order:stroke markers fill"
       d=""
       id="path3941"
       transform="scale(0.26458333)" />
    <path
       style="fill:#000000;stroke-width:0.264583"
       d="m 131.28129,139.92255 c -1.89869,-0.31721 -4.18382,-1.21316 -5.13454,-2.01314 -0.44068,-0.3708 -1.0639,-1.16522 -1.38494,-1.76538 l -0.58371,-1.0912 v -18.25625 c 0,-18.18372 0.002,-18.26045 0.56957,-19.31458 0.7149,-1.3284 1.54486,-2.1092 2.79898,-2.6332 2.0542,-0.8583 3.95294,-0.37931 5.56114,1.40289 l 0.99219,1.09954 V 80.67338 c 0,-16.18311 0.0163,-16.726247 0.54945,-18.308884 1.01993,-3.02763 3.43721,-5.912752 6.16747,-7.361155 0.67132,-0.356132 1.22051,-0.70725 1.22043,-0.780259 -8e-5,-0.07301 -0.51137,-0.668528 -1.13621,-1.323372 -2.11002,-2.211345 -3.86543,-5.532977 -4.41802,-8.359878 -0.20943,-1.071425 -0.27481,-4.719674 -0.20815,-11.616163 0.0908,-9.393235 0.13325,-10.150218 0.64593,-11.515321 1.94634,-5.182465 5.03271,-8.523593 10.27597,-11.124165 3.32605,-1.6496637 5.94415,-2.3162087 10.35545,-2.6364017 4.54229,-0.329701 12.07355,-0.119531 14.88854,0.415485 7.21152,1.370622 13.3589,5.7918727 15.9622,11.4801627 1.44358,3.154265 1.56796,4.434863 1.46649,15.099362 l -0.0919,9.657961 -0.71311,2.116667 c -0.83462,2.477354 -2.26592,4.763542 -4.14114,6.614583 -0.7371,0.727604 -1.34157,1.392161 -1.34326,1.476796 -0.002,0.08463 0.56843,0.524189 1.26692,0.976796 3.00374,1.94636 5.34181,5.401165 5.8802,8.68879 0.14268,0.871209 0.25576,8.296531 0.25662,16.849776 l 0.002,15.29215 1.04128,-0.83679 c 2.40929,-1.93616 5.90465,-1.01861 7.50313,1.96962 0.58293,1.08973 0.58381,1.11496 0.65709,18.76316 0.0489,11.78711 -0.0195,18.01703 -0.20565,18.70815 -0.47187,1.75241 -1.80499,3.22647 -3.54601,3.9209 -3.46179,1.38079 -3.26613,1.37323 -34.64343,1.33993 -16.03093,-0.017 -29.76066,-0.13344 -30.51057,-0.25873 z m 63.14368,-0.98911 c 2.64378,-0.803 3.76578,-1.57927 4.53201,-3.13555 l 0.62737,-1.27422 0.0736,-17.17067 c 0.0817,-19.06391 0.0788,-19.10271 -1.60127,-20.88405 -1.79389,-1.90208 -4.43392,-1.87702 -6.27755,0.0596 -1.52141,1.59815 -1.5875,2.43068 -1.5875,19.99651 v 15.48507 h -28.03826 -28.03826 l -0.0737,-16.77846 -0.0737,-16.77846 -0.79728,-1.14706 c -0.85068,-1.22386 -2.67692,-2.33768 -3.83292,-2.33768 -1.28413,0 -2.98453,1.10562 -3.83339,2.49252 l -0.79682,1.30189 -0.0753,17.31817 c -0.0838,19.27879 -0.074,19.40724 1.61792,21.0939 1.01618,1.01304 3.29978,1.90392 5.68584,2.21816 0.97206,0.12802 14.98331,0.21258 31.13612,0.18791 l 29.36875,-0.0449 z m -4.82639,-22.23517 0.0684,-14.6504 -1.19257,1.61998 c -2.0655,2.80578 -5.27251,4.8321 -9.26289,5.85267 -1.94751,0.49809 -2.93495,0.52919 -16.80114,0.52919 -13.69274,0 -14.873,-0.0361 -16.73054,-0.51114 -4.55034,-1.16378 -8.09598,-3.73432 -10.18766,-7.3859 l -0.85674,-1.49567 -0.003,15.23559 c -0.002,8.37958 0.0768,15.31552 0.17446,15.41321 0.0977,0.0977 12.45043,0.1473 27.45052,0.11024 l 27.2729,-0.0674 z m -9.33135,-8.0571 c 5.10382,-1.80359 8.66836,-5.23257 9.47539,-9.11507 0.22494,-1.08214 0.31517,-6.50374 0.31582,-18.97743 l 7.9e-4,-17.462502 -0.86402,-1.824461 c -1.69941,-3.588699 -5.65259,-6.580433 -10.24836,-7.755969 -1.67062,-0.427323 -3.29079,-0.473736 -16.53646,-0.473736 -16.50027,0 -16.16082,-0.03335 -20.29727,1.993834 -3.68408,1.805485 -6.40109,5.006784 -7.20355,8.487544 -0.16481,0.714881 -0.26997,7.575386 -0.27396,17.87161 -0.006,15.66868 0.0248,16.81181 0.4948,18.3219 1.05447,3.38801 3.62378,6.1999 7.26553,7.95151 3.77728,1.8168 4.0195,1.83752 20.8082,1.78057 l 14.94896,-0.0507 z M 162.22149,98.28878 c -1.62364,-0.50742 -3.39701,-1.61735 -4.05057,-2.53519 -2.47954,-3.48219 0.16108,-7.29731 5.69468,-8.22757 3.5644,-0.59922 7.54738,0.7463 9.20942,3.11109 1.98323,2.8218 0.0399,6.39954 -4.15224,7.64448 -1.6067,0.47714 -5.18529,0.48098 -6.70129,0.007 z m 7.47701,-0.91695 c 5.04719,-2.23186 4.64188,-7.02283 -0.74892,-8.85278 -1.55539,-0.52799 -2.29044,-0.57309 -1.82961,-0.11226 0.20718,0.20718 0.3175,1.29617 0.3175,3.13399 0,2.44486 -0.0673,2.87738 -0.50982,3.27788 -0.69797,0.63165 -2.20468,0.93201 -3.36386,0.67057 -1.66165,-0.37476 -1.81486,-0.70989 -1.81486,-3.9698 0,-1.59554 -0.066,-2.90097 -0.14663,-2.90097 -0.0806,0 -0.6871,0.34275 -1.34765,0.76166 -3.35069,2.12494 -3.04819,5.83556 0.63028,7.73147 1.54731,0.7975 2.80126,1.01903 5.2417,0.92604 1.60358,-0.0611 2.64219,-0.2547 3.57187,-0.6658 z m -9.50075,-16.01704 c -1.25452,-0.45099 -2.41437,-1.52166 -3.16623,-2.92279 -0.81311,-1.51529 -0.81311,-5.099287 0,-6.614582 1.41875,-2.643934 4.21103,-3.797035 6.42379,-2.652771 1.0694,0.553009 2.52029,2.336237 2.88135,3.541358 0.40598,1.355053 0.37114,3.89387 -0.0704,5.131225 -1.00421,2.81396 -3.69194,4.3719 -6.06848,3.51756 z m 2.95339,-0.7825 c 2.65764,-1.38842 3.74374,-5.215961 2.33718,-8.236519 -1.49526,-3.211049 -4.52021,-3.970866 -6.78643,-1.704641 -2.82784,2.827837 -2.19449,8.13101 1.19496,10.00565 0.74317,0.41103 2.40718,0.37805 3.25429,-0.0645 z m -3.86276,-1.96654 c -2.34327,-1.24948 -2.57254,-4.579418 -0.41274,-5.994579 3.37632,-2.21225 7.93329,0.899665 6.27402,4.284479 -0.99999,2.03992 -3.74225,2.84001 -5.86128,1.7101 z m -1.32349,-13.713221 c -2.17171,-1.070279 -2.11783,-3.920747 0.0939,-4.970304 2.4334,-1.154721 5.37183,1.256223 4.285,3.515786 -0.42614,0.885968 -1.9348,1.898809 -2.81684,1.891091 -0.37866,-0.0033 -1.08161,-0.199771 -1.5621,-0.436573 z M 144.7562,53.267791 c 0.0886,-0.0886 -0.12847,-0.598639 -0.48237,-1.133425 -1.58769,-2.399152 -1.21547,-6.084006 0.80466,-7.965906 l 0.71005,-0.661458 0.64374,0.79375 c 1.8174,2.24087 1.70913,5.873583 -0.23854,8.003646 -0.29939,0.327422 -0.43429,0.595082 -0.29978,0.594802 0.48312,-0.0011 1.9537,-2.540141 2.23248,-3.854657 0.45387,-2.140066 -0.4024,-4.987962 -1.92762,-6.4111 l -0.65266,-0.608973 -1.19825,1.198245 c -2.49448,2.494484 -2.75247,6.238219 -0.64395,9.344459 0.59238,0.872678 0.76515,0.987713 1.05224,0.700617 z m 37.0799,-2.617039 c 7.9e-4,-1.53974 -0.12657,-2.085359 -0.75541,-3.235328 -0.41602,-0.760783 -0.97398,-1.580147 -1.2399,-1.820809 -0.44565,-0.403302 -0.53445,-0.404186 -1.13413,-0.01127 -1.55823,1.021003 -2.80252,3.520588 -2.80252,5.629841 0,0.636547 0.0498,1.157359 0.11065,1.157359 0.0609,0 0.29899,0.07227 0.52917,0.160599 0.3458,0.132696 0.41953,-0.06268 0.42432,-1.124479 0.007,-1.492208 0.68641,-3.128809 1.67908,-4.043177 l 0.69636,-0.641435 0.65282,0.613291 c 0.97637,0.917252 1.56186,2.94745 1.36644,4.738195 -0.13386,1.226688 -0.10669,1.394809 0.15489,0.958464 0.17448,-0.291042 0.31768,-1.362604 0.31823,-2.381251 z m 1.64688,2.451708 c 0.11096,-0.179527 0.23566,-0.895934 0.27712,-1.592016 0.0859,-1.442482 0.77336,-2.946916 1.77281,-3.879771 0.64915,-0.605893 0.71017,-0.615534 1.18369,-0.187015 0.45832,0.414782 0.51284,0.41638 0.66514,0.0195 0.17026,-0.443688 -0.73466,-1.971781 -1.16766,-1.971781 -0.54182,0 -2.11894,1.704734 -2.75152,2.974152 -0.52916,1.061884 -0.67925,1.760852 -0.67925,3.163213 0,1.699016 0.24348,2.211856 0.69967,1.473718 z m -33.44665,-2.58487 c -0.15676,-2.190882 0.32674,-3.74482 1.52128,-4.889257 0.6689,-0.640847 0.83989,-0.696663 1.20526,-0.39343 1.3253,1.099902 2.01906,4.144939 1.36953,6.011161 -0.21525,0.618464 -0.28955,1.12448 -0.16512,1.12448 0.43891,0 1.10114,-2.950988 0.93472,-4.165201 -0.20448,-1.491813 -0.96806,-3.168443 -1.87006,-4.106132 l -0.70288,-0.730708 -0.91067,0.694598 c -0.52418,0.399817 -1.26341,1.411136 -1.74185,2.382988 -0.75176,1.527037 -0.81877,1.862071 -0.70116,3.505769 0.13955,1.950413 0.30365,2.418686 0.84759,2.418686 0.26455,0 0.31474,-0.435946 0.21336,-1.852954 z m 6.78846,0.795094 c -0.40937,-1.821958 0.35811,-4.262448 1.74745,-5.556724 l 0.71004,-0.661458 0.64375,0.79375 c 1.04613,1.289889 1.55337,3.413919 1.1906,4.985536 -0.36417,1.577662 -0.21061,1.922216 0.24348,0.546311 0.75495,-2.287505 0.0355,-5.556723 -1.5591,-7.084425 l -0.7189,-0.688744 -0.95782,0.789516 c -1.42108,1.171377 -2.32929,3.180014 -2.32487,5.141775 0.005,2.071621 0.20931,2.792323 0.79287,2.792323 0.41176,0 0.44065,-0.131456 0.2325,-1.05786 z m 6.69347,-0.63576 c -0.0594,-0.933524 0.0366,-2.131157 0.2139,-2.668526 0.34889,-1.05714 1.72161,-2.782716 2.21137,-2.779797 0.47157,0.0028 1.43022,1.586322 1.79754,2.969196 0.25214,0.949233 0.26255,1.587802 0.0432,2.645834 -0.33218,1.601903 -0.24081,1.942446 0.22431,0.836003 0.17671,-0.420364 0.32362,-1.597736 0.32647,-2.616382 0.004,-1.542973 -0.1208,-2.082943 -0.74964,-3.235328 -0.41516,-0.760783 -0.97241,-1.580147 -1.23833,-1.820809 -0.44565,-0.403302 -0.53445,-0.404186 -1.13413,-0.01127 -0.92427,0.605604 -1.93174,2.004422 -2.40045,3.332895 -0.69282,1.963639 -0.40964,5.041794 0.46382,5.041794 0.26483,0 0.32362,-0.411448 0.24198,-1.693619 z m 6.95619,1.41976 c -0.0931,-0.150625 -0.16589,-0.976561 -0.16179,-1.835417 0.008,-1.724356 0.59604,-3.16298 1.72152,-4.21341 0.57897,-0.540372 0.74214,-0.582115 1.10342,-0.282284 1.21395,1.007485 1.90238,3.97883 1.36687,5.899536 -0.12942,0.464211 -0.11239,0.690038 0.0447,0.592931 0.53243,-0.329057 0.85427,-2.841358 0.55109,-4.301794 -0.2768,-1.333304 -1.68106,-3.778242 -2.28585,-3.979839 -0.4505,-0.150167 -1.88552,1.199954 -2.63534,2.479429 -1.17361,2.002605 -1.2233,5.914708 -0.0751,5.914708 0.30465,0 0.46602,-0.119288 0.37049,-0.27386 z m -29.33604,-2.822498 c 0.68291,-2.349111 0.0438,-5.053531 -1.59734,-6.759374 l -0.70001,-0.727607 -0.79219,0.585687 c -0.82522,0.610111 -1.20684,1.504352 -0.93941,2.201273 0.12329,0.321275 0.31787,0.225877 0.9248,-0.453393 0.67896,-0.759886 0.82071,-0.817086 1.21465,-0.490143 1.35712,1.12631 2.01981,4.088725 1.37793,6.159751 -0.21416,0.690959 -0.28359,1.190916 -0.1543,1.111012 0.12929,-0.0799 0.42893,-0.812147 0.66587,-1.627206 z m 46.35231,-5.711053 c 0.61238,-0.623972 1.11342,-1.217535 1.11342,-1.319032 0,-0.101494 -0.39841,0.2502 -0.88535,0.781545 -1.11552,1.217244 -1.57115,1.07265 -2.42948,-0.770996 -1.06322,-2.283741 -0.78544,-4.837009 0.72568,-6.670262 0.95865,-1.163003 1.32721,-1.177719 2.02954,-0.08103 l 0.5507,0.859896 0.004,-0.85572 c 0.003,-0.573517 -0.24697,-1.137116 -0.75792,-1.708976 l -0.76238,-0.853253 -0.89805,0.684971 c -0.49392,0.376734 -1.25216,1.324366 -1.68497,2.10585 -0.67882,1.225677 -0.78621,1.693492 -0.78172,3.405253 0.004,1.411608 0.14636,2.251665 0.49422,2.910417 0.62099,1.176004 1.71672,2.645833 1.97241,2.645833 0.10781,0 0.69707,-0.510521 1.30945,-1.134494 z m -6.27455,-0.815676 c 2.18512,-2.777931 2.01242,-7.202212 -0.36663,-9.392237 l -0.68088,-0.626783 -0.71808,0.56484 c -3.13969,2.469683 -3.5573,7.14749 -0.90752,10.165428 l 0.85303,0.97155 0.65099,-0.512061 c 0.35804,-0.281636 0.88413,-0.808466 1.16909,-1.170737 z m -2.5889,-0.364934 c -1.34622,-2.290186 -0.88333,-5.920983 0.96837,-7.595648 0.73189,-0.661916 1.23306,-0.374483 2.05406,1.17805 0.72686,1.374505 0.81462,3.748637 0.19353,5.235471 -0.4623,1.106713 -1.63175,2.438898 -2.14098,2.438898 -0.18492,0 -0.66866,-0.565547 -1.07498,-1.256771 z m -4.74587,-0.213331 c 2.75259,-2.673278 3.01703,-6.998107 0.59894,-9.795418 l -0.87312,-1.010054 -0.74465,0.585741 c -2.5087,1.973341 -3.45067,5.893286 -2.07197,8.622354 0.54276,1.074367 1.64515,2.538312 1.91142,2.538312 0.11579,0 0.64651,-0.423421 1.17938,-0.940935 z m -1.37459,-0.198773 c -0.15791,-0.190278 -0.52706,-0.874888 -0.82033,-1.521355 -0.96552,-2.12834 -0.59654,-4.780885 0.90697,-6.520195 1.04253,-1.206035 1.44094,-1.079738 2.35027,0.745045 1.13042,2.268453 0.86048,4.981766 -0.66892,6.723653 -0.86204,0.98181 -1.30852,1.126474 -1.76799,0.572852 z m -12.36357,0.245483 c 0.45403,-0.346303 1.17962,-1.269037 1.61243,-2.050521 0.6766,-1.221669 0.78693,-1.699091 0.78693,-3.405254 0,-1.694426 -0.11199,-2.18649 -0.76644,-3.367619 -0.42155,-0.760784 -0.98632,-1.582223 -1.25505,-1.82542 -0.46296,-0.418977 -0.55655,-0.374169 -1.78385,0.854078 -1.96492,1.966437 -2.56909,4.417987 -1.75843,7.13521 0.34307,1.149914 1.76399,3.289168 2.1847,3.289168 0.0848,0 0.52568,-0.28334 0.97971,-0.629642 z m -1.2779,-0.70965 c -1.34895,-1.603134 -1.59273,-4.325929 -0.58172,-6.49723 0.34682,-0.744826 0.9112,-1.552818 1.25419,-1.795537 0.60185,-0.425901 0.64845,-0.413754 1.3349,0.34794 1.61319,1.790034 1.69163,5.090177 0.17364,7.30553 -0.98037,1.430766 -1.40925,1.556478 -2.18101,0.639297 z m 9.62246,-1.638676 c 0.9944,-1.989978 1.08558,-4.174553 0.25118,-6.017865 -0.50563,-1.117026 -1.71943,-2.645834 -2.10066,-2.645834 -0.094,0 -0.62369,0.446485 -1.17699,0.992188 -1.44084,1.421039 -2.09089,3.008982 -2.085,5.093229 0.006,1.966254 0.45274,3.192137 1.67029,4.578847 l 0.85035,0.968489 0.89453,-0.682292 c 0.492,-0.375263 1.25533,-1.404305 1.6963,-2.286762 z m -3.35428,0.927447 c -1.34622,-2.290186 -0.88333,-5.920983 0.96837,-7.595648 0.73189,-0.661915 1.23306,-0.374482 2.05406,1.17805 0.72686,1.374505 0.81462,3.748637 0.19353,5.235471 -0.4623,1.106713 -1.63175,2.438898 -2.14098,2.438898 -0.18492,0 -0.66866,-0.565547 -1.07498,-1.256771 z m -11.31287,0.628385 c 2.5133,-2.623028 2.62963,-6.882418 0.26217,-9.598946 l -0.88672,-1.01746 -1.33079,1.372425 c -1.33986,1.381778 -2.15492,3.214426 -2.15492,4.845284 0,1.799129 1.8209,5.556249 2.69285,5.556249 0.16955,0 0.80739,-0.520898 1.41741,-1.157552 z m -1.5356,0.152326 c -0.96729,-1.104228 -1.37013,-2.319501 -1.37705,-4.154148 -0.006,-1.556589 0.11043,-2.05182 0.72892,-3.103989 0.93489,-1.590402 1.71228,-2.06103 2.24859,-1.361282 1.52239,1.986336 1.8012,4.709036 0.70705,6.904705 -0.37075,0.74399 -0.95291,1.535406 -1.29371,1.758704 -0.56273,0.368713 -0.65582,0.364675 -1.0138,-0.04399 z m -5.49237,-1.013613 c 0.45488,-0.382757 1.14563,-1.305491 1.53499,-2.050521 0.58128,-1.11225 0.70912,-1.709616 0.71456,-3.338973 0.006,-1.701639 -0.10258,-2.18146 -0.75982,-3.367619 -0.42155,-0.760784 -0.98927,-1.584892 -1.2616,-1.83135 -0.47191,-0.42707 -0.55632,-0.384651 -1.79801,0.903585 -1.96641,2.040114 -2.5429,4.392775 -1.73772,7.091633 0.37013,1.240613 1.77491,3.289168 2.25553,3.289168 0.12376,0 0.59719,-0.313166 1.05207,-0.695923 z m -1.41928,-0.641213 c -1.79737,-2.136052 -1.54538,-6.033709 0.52386,-8.102952 l 0.71213,-0.712131 0.74042,0.828673 c 1.45082,1.623753 1.71673,4.419134 0.62817,6.603605 -0.37075,0.74399 -0.95775,1.538574 -1.30445,1.76574 -0.60007,0.393178 -0.66256,0.374771 -1.30013,-0.382935 z m -5.04055,-0.09122 c 2.61904,-2.733379 2.574,-7.61814 -0.0925,-10.031289 -0.51449,-0.465606 -0.55574,-0.455359 -1.49822,0.372147 -1.59728,1.402433 -1.99632,2.482978 -1.99632,5.405806 0,1.413116 0.13578,2.798061 0.30583,3.119395 0.52649,0.994902 1.59676,2.29771 1.88759,2.29771 0.1532,0 0.78033,-0.523695 1.39362,-1.163769 z m -1.5269,0.174733 c -0.98177,-1.11947 -1.38475,-2.32705 -1.3917,-4.170338 -0.006,-1.556589 0.11043,-2.051821 0.72892,-3.103988 0.93489,-1.590403 1.71228,-2.061031 2.24859,-1.361283 1.55465,2.028424 1.80752,4.729325 0.65353,6.980225 -0.91211,1.779093 -1.6515,2.325674 -2.23934,1.655384 z m 49.79819,-8.960164 c 0,-0.06797 -0.24574,0.0079 -0.54608,0.168669 -0.6763,0.361945 -1.14468,0.02423 -1.8228,-1.314268 -1.12709,-2.224704 -0.87311,-4.752403 0.68224,-6.790023 0.50873,-0.666483 0.81542,-1.323772 0.72618,-1.556336 -0.21642,-0.56398 -0.42735,-0.507943 -1.2234,0.325013 -2.37105,2.480989 -2.37582,7.171248 -0.01,9.647048 l 0.68555,0.717361 0.75407,-0.53694 c 0.41473,-0.295317 0.75406,-0.592553 0.75406,-0.660524 z m -6.7658,-0.395303 c 2.22908,-2.649122 2.48028,-5.957031 0.66923,-8.812771 -1.06338,-1.676763 -1.41062,-1.749442 -2.63699,-0.551923 -1.55596,1.519354 -2.20373,3.265888 -2.05596,5.543349 0.1266,1.951252 0.51963,2.971099 1.67341,4.342287 0.7954,0.945288 1.19018,0.857786 2.35031,-0.520942 z m -1.78206,0.08222 c -1.88485,-2.082736 -1.57888,-7.067401 0.51815,-8.44143 0.60297,-0.395082 0.68005,-0.383401 1.29745,0.196619 0.64599,0.606873 1.44059,2.715417 1.44059,3.822724 0,1.142092 -0.82034,3.279801 -1.5642,4.076106 -0.8847,0.947076 -1.10689,0.992509 -1.69199,0.345981 z m -4.80123,-1.43956 c 0.402,-0.476223 0.94801,-1.342111 1.21336,-1.924194 0.61186,-1.342232 0.65144,-4.188941 0.0773,-5.562956 -0.4865,-1.164352 -1.70959,-2.7714 -2.10927,-2.771411 -0.50125,-1.4e-5 -2.19708,1.961189 -2.74538,3.174992 -1.08716,2.406691 -0.53589,5.885566 1.22455,7.727704 0.7933,0.830122 1.18626,0.721926 2.3394,-0.644135 z m -1.79154,0.126327 c -1.49922,-1.709878 -1.82632,-4.594984 -0.76648,-6.760591 0.76257,-1.558193 1.68837,-2.264119 2.30173,-1.755073 2.00071,1.660437 2.00402,6.316596 0.006,8.314694 -0.78715,0.787149 -1.00258,0.815241 -1.54117,0.20097 z m -11.79632,-0.241815 c 2.42965,-2.560576 2.36987,-7.541257 -0.118,-9.830455 l -0.66665,-0.613415 -0.94526,0.829949 c -2.85791,2.509276 -3.12505,7.355536 -0.55806,10.123918 0.76125,0.820976 1.09581,0.746402 2.28797,-0.509997 z m -2.01217,-0.281962 c -1.6005,-2.443735 -1.47768,-5.54174 0.29762,-7.506775 0.5125,-0.567286 1.03535,-1.031428 1.16187,-1.031428 0.44736,0 1.5582,2.018976 1.78819,3.250089 0.42163,2.256831 -0.59846,5.217532 -2.06876,6.004415 -0.45263,0.242239 -0.61625,0.142824 -1.17892,-0.716301 z m 8.62817,0.281962 c 1.98201,-2.084681 2.4842,-5.44075 1.20467,-8.050574 -0.39892,-0.813652 -0.96087,-1.692548 -1.24877,-1.953101 -0.49159,-0.44488 -0.56449,-0.446856 -1.19696,-0.03245 -0.96027,0.629189 -2.20232,2.436689 -2.54536,3.704129 -0.3699,1.366669 -0.16998,4.030002 0.38274,5.098835 0.23215,0.448922 0.73379,1.186666 1.11477,1.63943 0.77609,0.922328 1.07642,0.869019 2.28891,-0.406273 z m -1.72066,-0.03245 c -1.42354,-1.572999 -1.67357,-4.879945 -0.52808,-6.984588 1.00684,-1.849891 1.57098,-2.092147 2.48633,-1.067691 1.60486,1.796152 1.58115,5.207467 -0.0519,7.461764 -0.84888,1.17185 -1.26395,1.300418 -1.9064,0.590515 z m -11.78802,-0.232131 c 2.50723,-2.693446 2.55218,-7.142732 0.098,-9.695634 -0.65073,-0.676886 -0.76532,-0.70986 -1.28462,-0.369668 -0.88796,0.581691 -2.24032,2.478976 -2.54247,3.566924 -0.68591,2.469736 -0.0681,5.355339 1.49735,6.993417 0.76858,0.804246 1.08835,0.733316 2.23178,-0.495039 z m -1.68391,-0.02277 c -1.94629,-2.219768 -1.74101,-6.221432 0.42275,-8.240917 0.81442,-0.760121 1.21017,-0.542664 2.08489,1.145613 1.08329,2.090817 0.66284,5.212439 -0.93784,6.963013 -0.65473,0.716051 -1.03022,0.747694 -1.5698,0.132291 z m -5.16817,-1.058333 c 1.39946,-1.438498 2.04029,-3.0352 2.04415,-5.093229 0.004,-1.931866 -0.75912,-3.919012 -1.91114,-4.97904 l -0.66665,-0.613415 -0.94526,0.829949 c -0.51989,0.456472 -1.26079,1.474874 -1.64644,2.263115 -0.60923,1.245228 -0.68724,1.685228 -0.59487,3.35534 0.0587,1.062041 0.30859,2.337812 0.55837,2.851013 0.47344,0.972767 1.65333,2.378454 1.9964,2.378454 0.1101,0 0.63454,-0.446484 1.16544,-0.992187 z m -1.75687,-0.523776 c -1.70195,-2.615845 -1.39118,-5.998995 0.7332,-7.981724 0.82734,-0.772175 1.18416,-0.558919 2.04695,1.223362 1.23018,2.541217 0.36663,6.419198 -1.67243,7.510473 -0.36763,0.19675 -0.58748,0.04748 -1.10772,-0.752111 z m -4.93535,0.04478 c 1.43201,-1.553553 1.93992,-2.777027 1.97046,-4.746523 0.0305,-1.969155 -0.61262,-3.720041 -1.78325,-4.85466 l -0.87809,-0.851079 -0.66958,0.669581 c -0.98279,0.982794 -2.329,3.889521 -2.51028,5.420215 -0.11248,0.949692 -0.024,1.682408 0.30825,2.55236 0.44699,1.170435 1.82207,3.016708 2.2468,3.016708 0.11191,0 0.70397,-0.542971 1.31569,-1.206602 z m -1.63336,-0.05017 c -1.86901,-2.131627 -1.65815,-6.333019 0.41359,-8.240917 0.82482,-0.759589 1.21854,-0.544196 2.09406,1.145613 1.08328,2.090817 0.66283,5.212439 -0.93784,6.963013 -0.65474,0.716051 -1.03023,0.747694 -1.56981,0.132291 z m 48.61034,-6.598721 c -0.23677,-0.408906 -0.34986,-0.505341 -0.25133,-0.214299 0.0985,0.291041 0.24604,0.764221 0.3278,1.051509 0.0817,0.287289 0.19485,0.383724 0.25132,0.2143 0.0565,-0.169424 -0.091,-0.642603 -0.32779,-1.05151 z m -5.64115,-2.397112 c 1.01468,-1.061466 1.5483,-1.933766 1.527,-2.496147 -0.007,-0.191468 -0.25156,0.142942 -0.5429,0.743133 -0.64817,1.335312 -1.66649,2.333541 -2.17962,2.136634 -0.20976,-0.08049 -0.70885,-0.815682 -1.1091,-1.633756 -0.64881,-1.326127 -0.7112,-1.684491 -0.57534,-3.305008 0.12621,-1.505439 0.0807,-1.845115 -0.26515,-1.97782 -0.56313,-0.216094 -0.59937,-0.15279 -0.7785,1.359664 -0.20456,1.72715 0.46745,4.028662 1.5295,5.238267 0.44776,0.509971 0.95621,0.927221 1.12988,0.927221 0.17368,0 0.74258,-0.446485 1.26423,-0.992188 z m 4.30559,-0.355317 c -0.23275,-0.450086 -0.48344,-0.758072 -0.5571,-0.684414 -0.13254,0.132546 0.6622,1.502752 0.87163,1.502752 0.0598,0 -0.0818,-0.368252 -0.31453,-0.818338 z m -10.58799,-1.349734 c 1.47377,-1.72177 2.24599,-5.017767 1.34986,-5.761487 -0.33435,-0.277487 -0.36559,-0.138063 -0.22846,1.019741 0.20907,1.765261 -0.29033,3.473241 -1.38029,4.72064 -0.72027,0.824312 -0.95411,0.949149 -1.34014,0.715425 -1.47386,-0.892356 -2.15178,-4.684048 -1.21579,-6.800006 0.52268,-1.1816007 0.52309,-1.2052537 0.0232,-1.3359767 -0.8444,-0.220815 -1.41383,1.1986397 -1.41383,3.5243187 0,2.073027 0.29311,2.921548 1.62283,4.697848 0.76909,1.027387 1.12796,0.918932 2.58262,-0.780503 z m -14.01377,0.382135 c 1.95703,-1.93013 2.6747,-4.860298 1.7983,-7.3421887 -0.3705,-1.049196 -0.60386,-1.342184 -1.12788,-1.416037 -0.63369,-0.08931 -0.64209,-0.07252 -0.20541,0.410011 0.61639,0.681106 1.26301,2.5859107 1.26301,3.7205737 0,1.465338 -0.53789,2.888938 -1.52908,4.046926 -0.89252,1.042704 -0.92809,1.057256 -1.4501,0.593308 -1.94344,-1.727273 -2.01825,-6.208643 -0.13707,-8.2110667 l 0.56266,-0.598923 h -0.83449 c -0.71312,0 -0.91652,0.160774 -1.39839,1.105325 -0.77882,1.5266167 -0.94709,3.7805387 -0.40425,5.4148757 0.40789,1.228035 1.81617,3.269383 2.25547,3.269383 0.11067,0 0.65393,-0.446484 1.20723,-0.992187 z m -6.9093,-0.213331 c 1.23912,-1.203421 2.01188,-2.725635 2.20303,-4.339625 0.17754,-1.499008 -0.3446,-3.9579857 -0.88442,-4.1651347 -0.62945,-0.241541 -0.65263,0.05262 -0.10013,1.270361 0.97789,2.1553337 0.59058,4.9090307 -0.92079,6.5466707 -1.04924,1.136903 -1.49369,1.01854 -2.34657,-0.624916 -0.79665,-1.535105 -0.87472,-3.736812 -0.18758,-5.290204 0.3088,-0.6980837 0.51699,-1.3137067 0.46264,-1.3680497 -0.0543,-0.05434 -0.39913,0.01538 -0.76619,0.154933 -1.28542,0.488716 -1.61897,4.1071647 -0.56983,6.1817717 0.55952,1.106411 1.66055,2.575128 1.93046,2.575128 0.11579,0 0.64651,-0.423421 1.17938,-0.940935 z m 13.71385,-0.05125 c 1.28877,-1.345172 1.83548,-2.518023 1.99333,-4.276236 0.15175,-1.690203 -0.29587,-3.6828497 -0.87743,-3.9060127 -0.62235,-0.23882 -0.67301,0.02348 -0.19109,0.989506 0.5827,1.1680377 0.74634,3.2684947 0.36498,4.6847507 -0.32245,1.19748 -1.6844,2.971013 -2.28153,2.971013 -0.60646,0 -1.72834,-2.251145 -1.88674,-3.785904 -0.16967,-1.643926 0.21443,-3.089965 1.15546,-4.3500337 l 0.64217,-0.859896 h -0.80183 c -0.66408,0 -0.89124,0.17524 -1.32218,1.019949 -0.78959,1.5477177 -0.94783,3.4090757 -0.4387,5.1604137 0.4268,1.468131 1.76053,3.344638 2.3772,3.344638 0.17368,0 0.74354,-0.446485 1.26636,-0.992188 z m -20.2947,-1.304431 c 0.55143,-0.535536 1.23016,-1.488155 1.5083,-2.11693 0.62596,-1.415096 0.9502,-3.7885347 0.51756,-3.7885347 -0.17903,0 -0.30144,0.46435 -0.30144,1.1434917 0,1.643382 -0.67996,3.404911 -1.69351,4.387288 l -0.8783,0.851283 -0.70792,-0.84131 c -0.38935,-0.46272 -0.84742,-1.362904 -1.01793,-2.000407 -0.1705,-0.637503 -0.40811,-1.159096 -0.52802,-1.159096 -0.40962,0 -0.51452,0.77102 -0.22448,1.649857 0.29558,0.895615 1.74783,2.84806 2.11842,2.84806 0.1126,0 0.6559,-0.438166 1.20732,-0.973702 z M 142.16977,15.0643 c 0.26339,-0.291041 0.41936,-0.529166 0.3466,-0.529166 -0.0728,0 -0.3478,0.238125 -0.61119,0.529166 -0.26338,0.291042 -0.41935,0.529167 -0.34659,0.529167 0.0728,0 0.34779,-0.238125 0.61118,-0.529167 z m 16.49398,-5.9655747 c 0.41062,-0.90121 0.40582,-0.913592 -0.3544,-0.913592 -0.70684,0 -0.7418,0.07012 -0.49469,0.992187 0.20827,0.777175 0.47023,0.752927 0.84909,-0.07859 z"
       id="path4285" />
  </g>
  <g
     inkscape:groupmode="layer"
     id="layer3"
     inkscape:label="Layer 3"
     style="display:inline">
    <path
       style="fill:#ffffff;fill-opacity:1;fill-rule:evenodd;stroke:#000000;stroke-width:1.07744;stroke-linecap:round;stroke-linejoin:round;stroke-miterlimit:4;stroke-dasharray:none;paint-order:stroke markers fill"
       d=""
       id="path16962"
       transform="scale(0.26458333)" />
    <path
       style="fill:#ffffff;fill-opacity:1;fill-rule:evenodd;stroke:#000000;stroke-width:1.07744;stroke-linecap:round;stroke-linejoin:round;stroke-miterlimit:4;stroke-dasharray:none;paint-order:stroke markers fill"
       d=""
       id="path17898"
       transform="scale(0.26458333)" />
  </g>
  <g
     inkscape:groupmode="layer"
     id="layer4"
     inkscape:label="Layer 4">
    <path
       style="fill:#53676c;fill-rule:evenodd;stroke:#000000;stroke-width:1.87606;stroke-linecap:round;stroke-linejoin:round;stroke-miterlimit:4;stroke-dasharray:none;paint-order:stroke markers fill"
       d=""
       id="path7393"
       transform="scale(0.26458333)" />
    <path
       style="fill:#4d4d4d;fill-rule:evenodd;stroke:#000000;stroke-width:0.756475;stroke-linecap:round;stroke-linejoin:round;stroke-miterlimit:4;stroke-dasharray:none;paint-order:stroke markers fill"
       d=""
       id="path9842"
       transform="scale(0.26458333)" />
  </g>
</svg>
