<?xml version="1.0" encoding="UTF-8" standalone="no"?>
<!-- Created with Inkscape (http://www.inkscape.org/) -->

<svg
   width="210mm"
   height="297mm"
   viewBox="0 0 210 297"
   version="1.1"
   id="svg5"
   inkscape:version="1.1 (c68e22c387, 2021-05-23)"
   sodipodi:docname="sine waveform.svg"
   xmlns:inkscape="http://www.inkscape.org/namespaces/inkscape"
   xmlns:sodipodi="http://sodipodi.sourceforge.net/DTD/sodipodi-0.dtd"
   xmlns="http://www.w3.org/2000/svg"
   xmlns:svg="http://www.w3.org/2000/svg">
  <sodipodi:namedview
     id="namedview7"
     pagecolor="#ffffff"
     bordercolor="#666666"
     borderopacity="1.0"
     inkscape:pageshadow="2"
     inkscape:pageopacity="0.0"
     inkscape:pagecheckerboard="0"
     inkscape:document-units="mm"
     showgrid="false"
     inkscape:zoom="0.8359833"
     inkscape:cx="362.44743"
     inkscape:cy="-17.344844"
     inkscape:window-width="1680"
     inkscape:window-height="956"
     inkscape:window-x="-11"
     inkscape:window-y="-11"
     inkscape:window-maximized="1"
     inkscape:current-layer="layer1" />
  <defs
     id="defs2">
    <inkscape:path-effect
       effect="spiro"
       id="path-effect2262"
       is_visible="true"
       lpeversion="1" />
    <inkscape:path-effect
       effect="spiro"
       id="path-effect2256"
       is_visible="true"
       lpeversion="1" />
    <inkscape:path-effect
       effect="spiro"
       id="path-effect2250"
       is_visible="true"
       lpeversion="1" />
    <inkscape:path-effect
       effect="spiro"
       id="path-effect2067"
       is_visible="true"
       lpeversion="1" />
    <inkscape:path-effect
       effect="spiro"
       id="path-effect2063"
       is_visible="true"
       lpeversion="1" />
    <inkscape:path-effect
       effect="spiro"
       id="path-effect1826"
       is_visible="true"
       lpeversion="1" />
  </defs>
  <g
     inkscape:label="Layer 1"
     inkscape:groupmode="layer"
     id="layer1">
    <path
       style="fill:#80e5ff;stroke:#000000;stroke-width:1.41741;stroke-linecap:round;stroke-linejoin:round;stroke-opacity:0.955017;paint-order:stroke markers fill"
       d=""
       id="path2441"
       transform="scale(0.26458333)" />
    <path
       style="fill:#80e5ff;stroke:#000000;stroke-width:1.41741;stroke-linecap:round;stroke-linejoin:round;stroke-opacity:0.955017;paint-order:stroke markers fill"
       d=""
       id="path2480"
       transform="scale(0.26458333)" />
    <path
       style="fill:#000000;stroke:#000000;stroke-width:1.41741;stroke-linecap:round;stroke-linejoin:round;stroke-opacity:0.955017;paint-order:stroke markers fill"
       d=""
       id="path2712"
       transform="scale(0.26458333)" />
    <path
       style="fill:#000000;stroke:#000000;stroke-width:1.41741;stroke-linecap:round;stroke-linejoin:round;stroke-opacity:0.955017;paint-order:stroke markers fill"
       d=""
       id="path2751"
       transform="scale(0.26458333)" />
    <path
       style="fill:#000000;stroke:#000000;stroke-width:1.41741;stroke-linecap:round;stroke-linejoin:round;stroke-opacity:0.955017;paint-order:stroke markers fill"
       d=""
       id="path2829"
       transform="scale(0.26458333)" />
    <path
       style="fill:#000000;stroke:#000000;stroke-width:1.41741;stroke-linecap:round;stroke-linejoin:round;stroke-opacity:0.955017;paint-order:stroke markers fill"
       d=""
       id="path2944"
       transform="scale(0.26458333)" />
    <path
       style="fill:#000000;stroke:#000000;stroke-width:1.41741;stroke-linecap:round;stroke-linejoin:round;stroke-opacity:0.955017;paint-order:stroke markers fill"
       d=""
       id="path3022"
       transform="scale(0.26458333)" />
    <path
       style="fill:#ffffff;stroke:#000000;stroke-width:1.7445;stroke-linecap:round;stroke-linejoin:round;stroke-opacity:0.955017;paint-order:stroke markers fill"
       d=""
       id="path4120"
       transform="scale(0.26458333)" />
    <path
       style="fill:#ffffff;stroke:#000000;stroke-width:1.7445;stroke-linecap:round;stroke-linejoin:round;stroke-opacity:0.955017;paint-order:stroke markers fill"
       d=""
       id="path4198"
       transform="scale(0.26458333)" />
    <path
       style="fill:#ffffff;stroke:#000000;stroke-width:1.7445;stroke-linecap:round;stroke-linejoin:round;stroke-opacity:0.955017;paint-order:stroke markers fill"
       d=""
       id="path4237"
       transform="scale(0.26458333)" />
    <path
       id="path2252"
       style="fill:none;stroke:#000000;stroke-width:0.921842;stroke-linecap:butt;stroke-linejoin:miter;stroke-miterlimit:4;stroke-dasharray:none;stroke-opacity:1"
       inkscape:path-effect="#path-effect2256"
       inkscape:original-d="m 37.224705,27.421087 3.81434,-0.40064 m -34.6095213,-0.2793 c 2.197775,0.66404 5.9764693,1.9939 4.5419403,0.47607 m 30.067581,-0.19677 A 17.305499,21.373658 0 0 0 23.846625,5.6472369 17.305499,21.373658 0 0 0 6.4295247,26.741147 m 30.7951803,0.67994 a 13.12718,15.602024 0 0 0 -13.04142,-15.60169 13.12718,15.602024 0 0 0 -13.211821,15.39782 m -5.8527603,6.30129 36.0459713,0.27709 m -35.6332313,17.31838 36.0459713,0.2771 m -36.5962913,-4.9877 36.0459713,0.2771 m -35.2204913,-9.55975 36.0459713,0.2771 m -36.4587103,3.74077 36.0459703,0.27709 M 6.8454517,27.153697 H 40.036435 c 0.8537,0 1.54098,0.6921 1.54098,1.5518 v 25.15164 c 0,0.8597 -0.68728,1.55181 -1.54098,1.55181 H 6.8454517 c -0.8537,0 -1.540975,-0.69211 -1.540975,-1.55181 v -25.15164 c 0,-0.8597 0.687275,-1.5518 1.540975,-1.5518 z"
       d="m 37.224705,27.421087 3.81434,-0.40064 m -34.6095213,-0.2793 4.5419403,0.47607 m 30.067581,-0.19677 C 42.136434,21.902989 40.810919,16.319542 37.530484,12.241382 34.250049,8.163223 29.080364,5.6719919 23.846625,5.6472369 18.632557,5.6225749 13.458338,8.045406 10.138498,12.066075 6.8186587,16.086744 5.4186832,21.625943 6.4295247,26.741147 m 30.7951803,0.67994 c 0.664588,-3.799264 -0.42486,-7.869388 -2.898497,-10.828645 -2.473637,-2.959258 -6.286021,-4.753285 -10.142923,-4.773045 -3.845182,-0.0197 -7.664496,1.723914 -10.168436,4.64215 -2.503939,2.918235 -3.64705,6.958118 -3.043385,10.75567 m -5.8527603,6.30129 36.0459713,0.27709 m -35.6332313,17.31838 36.0459713,0.2771 m -36.5962913,-4.9877 36.0459713,0.2771 m -35.2204913,-9.55975 36.0459713,0.2771 m -36.4587103,3.74077 36.0459703,0.27709 M 6.8454517,27.153697 c 11.0208433,-1.191663 22.1701403,-1.191663 33.1909833,0 0.207289,0.02241 0.415743,0.04597 0.615685,0.105077 0.199943,0.05911 0.39094,0.155896 0.543446,0.298067 0.152507,0.142172 0.262353,0.328072 0.319772,0.528506 0.05742,0.200435 0.06208,0.411653 0.06208,0.62015 v 25.15164 c 0,0.212953 -0.0028,0.428134 -0.05379,0.634882 -0.05104,0.206747 -0.151738,0.402931 -0.3014,0.554425 -0.149661,0.151494 -0.344762,0.254567 -0.551155,0.307017 -0.206393,0.05245 -0.421682,0.05549 -0.634635,0.05549 H 6.8454517 c -0.2129529,0 -0.428241,-0.003 -0.6346336,-0.05549 C 6.0044255,55.301011 5.809325,55.197938 5.6596642,55.046443 5.5100034,54.894949 5.4093016,54.698765 5.3582661,54.492018 5.3072305,54.285271 5.3044767,54.07009 5.3044767,53.857137 v -25.15164 c 0,-0.208497 0.00466,-0.419714 0.062076,-0.620149 0.057419,-0.200434 0.1672639,-0.386334 0.3197699,-0.528506 0.152506,-0.142171 0.343502,-0.238959 0.5434444,-0.298068 0.1999423,-0.05911 0.4083959,-0.08266 0.6156843,-0.105077 z" />
    <g
       id="g2498">
      <path
         id="path2258"
         style="fill:none;stroke:#000000;stroke-width:0.921842;stroke-linecap:butt;stroke-linejoin:miter;stroke-miterlimit:4;stroke-dasharray:none;stroke-opacity:1"
         inkscape:path-effect="#path-effect2262"
         inkscape:original-d="m 196.34089,31.359606 3.81434,-0.40064 m -34.60952,-0.2793 c 2.19777,0.66404 5.97647,1.9939 4.54194,0.47607 m 30.06758,-0.19677 A 17.305499,21.373658 0 0 0 182.96281,9.5857563 17.305499,21.373658 0 0 0 165.54571,30.679666 m 30.79518,0.67994 a 13.12718,15.602024 0 0 0 -13.04142,-15.60169 13.12718,15.602024 0 0 0 -13.21182,15.39782 m -5.85276,6.30129 36.04597,0.27709 m -35.63323,17.31838 36.04597,0.2771 m -36.59629,-4.9877 36.04597,0.2771 m -35.22049,-9.55975 36.04597,0.2771 m -36.45871,3.74077 36.04597,0.27709 m -34.59439,-14.26199 h 33.19099 c 0.8537,0 1.54098,0.6921 1.54098,1.5518 v 25.15164 c 0,0.8597 -0.68728,1.55181 -1.54098,1.55181 h -33.19099 c -0.8537,0 -1.54097,-0.69211 -1.54097,-1.55181 v -25.15164 c 0,-0.8597 0.68727,-1.5518 1.54097,-1.5518 z"
         d="m 196.34089,31.359606 3.81434,-0.40064 m -34.60952,-0.2793 4.54194,0.47607 m 30.06758,-0.19677 c 1.09739,-5.117458 -0.22813,-10.700905 -3.50856,-14.779065 -3.28044,-4.078159 -8.45012,-6.5693897 -13.68386,-6.5941447 -5.21407,-0.024662 -10.38829,2.3981687 -13.70813,6.4188377 -3.31984,4.020669 -4.71981,9.559868 -3.70897,14.675072 m 30.79518,0.67994 c 0.66459,-3.799264 -0.42486,-7.869388 -2.8985,-10.828645 -2.47363,-2.959258 -6.28602,-4.753285 -10.14292,-4.773045 -3.84518,-0.0197 -7.6645,1.723914 -10.16844,4.64215 -2.50393,2.918236 -3.64704,6.958118 -3.04338,10.75567 m -5.85276,6.30129 36.04597,0.27709 m -35.63323,17.31838 36.04597,0.2771 m -36.59629,-4.9877 36.04597,0.2771 m -35.22049,-9.55975 36.04597,0.2771 m -36.45871,3.74077 36.04597,0.27709 m -34.59439,-14.26199 c 11.02084,-1.191695 22.17015,-1.191695 33.19099,0 0.20729,0.02241 0.41574,0.04597 0.61568,0.105078 0.19995,0.05911 0.39094,0.155896 0.54345,0.298068 0.15251,0.142171 0.26235,0.32807 0.31977,0.528505 0.0574,0.200434 0.0621,0.411652 0.0621,0.620149 v 25.15164 c 0,0.212953 -0.003,0.428134 -0.0538,0.634882 -0.051,0.206747 -0.15174,0.402931 -0.3014,0.554425 -0.14966,0.151494 -0.34476,0.254567 -0.55116,0.307017 -0.20639,0.05245 -0.42168,0.05549 -0.63463,0.05549 h -33.19099 c -0.21295,0 -0.42824,-0.003 -0.63463,-0.05549 -0.20639,-0.05245 -0.40149,-0.155524 -0.55115,-0.307019 -0.14966,-0.151495 -0.25037,-0.347679 -0.3014,-0.554425 -0.051,-0.206747 -0.0538,-0.421927 -0.0538,-0.63488 v -25.15164 c 0,-0.208496 0.005,-0.419713 0.0621,-0.620147 0.0574,-0.200434 0.16726,-0.386334 0.31976,-0.528505 0.15251,-0.142172 0.34351,-0.23896 0.54345,-0.298069 0.19994,-0.05911 0.40839,-0.08267 0.61568,-0.105079 z" />
      <path
         style="fill:#000000;stroke:#000000;stroke-width:8.76009;stroke-linecap:round;stroke-linejoin:round;stroke-miterlimit:4;stroke-dasharray:none;stroke-opacity:0.955017;paint-order:stroke markers fill"
         d="m 748.47421,114.49894 c -2.70345,-0.53115 -3.24144,-1.9335 -3.90286,-10.17331 -1.03077,-12.841248 -6.54829,-23.740456 -16.72798,-33.044113 -10.46604,-9.565371 -20.84648,-13.522332 -35.47365,-13.522332 -14.54615,0 -25.01685,3.965408 -35.30934,13.372162 -9.4551,8.641425 -15.72071,21.323761 -16.88649,34.180263 l -0.79123,8.72576 h -5.5535 c -5.14434,0 -5.62317,-0.37139 -6.49916,-5.04077 -1.12472,-5.99529 0.0216,-15.14853 3.17102,-25.319832 9.07521,-29.309244 41.14346,-49.410007 70.20514,-44.005421 26.29298,4.889692 45.75722,22.750096 52.53498,48.206146 2.99695,11.256012 2.57946,28.129277 -0.67893,27.439187 -0.52376,-0.11092 -2.36336,-0.47891 -4.088,-0.81774 z"
         id="path2377"
         transform="scale(0.26458333)" />
    </g>
    <g
       id="g2956"
       transform="translate(4.4309099,-0.94948069)">
      <path
         id="path2065"
         style="fill:none;stroke:#000000;stroke-width:0.921842;stroke-linecap:butt;stroke-linejoin:miter;stroke-miterlimit:4;stroke-dasharray:none;stroke-opacity:1"
         inkscape:path-effect="#path-effect2067"
         inkscape:original-d="m 35.610873,266.95991 3.81434,-0.40064 m -34.6095216,-0.2793 c 2.197775,0.66404 5.9764696,1.9939 4.54194,0.47607 M 39.425213,266.55927 A 17.305499,21.373658 0 0 0 22.232793,245.18606 17.305499,21.373658 0 0 0 4.8156924,266.27997 m 30.7951806,0.67994 A 13.12718,15.602024 0 0 0 22.569453,251.35822 13.12718,15.602024 0 0 0 9.3576314,266.75604 m -5.85276,6.30129 36.0459716,0.27709 M 3.9176114,290.6528 39.963583,290.9299 m -36.5962916,-4.9877 36.0459716,0.2771 m -35.2204916,-9.55975 36.0459716,0.2771 m -36.4587106,3.74077 36.0459706,0.27709 M 5.2316194,266.69252 H 38.422603 c 0.8537,0 1.54098,0.6921 1.54098,1.5518 v 25.15164 c 0,0.8597 -0.68728,1.55181 -1.54098,1.55181 H 5.2316194 c -0.8537,0 -1.540975,-0.69211 -1.540975,-1.55181 v -25.15164 c 0,-0.8597 0.687275,-1.5518 1.540975,-1.5518 z"
         d="m 35.610873,266.95991 3.81434,-0.40064 m -34.6095216,-0.2793 4.54194,0.47607 m 30.0675816,-0.19677 c 1.097389,-5.11746 -0.228126,-10.70091 -3.508561,-14.77906 -3.280435,-4.07816 -8.45012,-6.56939 -13.683859,-6.59415 -5.214068,-0.0247 -10.388287,2.39817 -13.7081269,6.41884 -3.3198395,4.02067 -4.7198151,9.55987 -3.7089737,14.67507 m 30.7951806,0.67994 c 0.664588,-3.79926 -0.42486,-7.86939 -2.898497,-10.82865 -2.473637,-2.95925 -6.286021,-4.75328 -10.142923,-4.77304 -3.845182,-0.0197 -7.664497,1.72391 -10.168436,4.64215 -2.5039394,2.91824 -3.6470501,6.95812 -3.0433856,10.75567 m -5.85276,6.30129 36.0459716,0.27709 M 3.9176114,290.6528 39.963583,290.9299 m -36.5962916,-4.9877 36.0459716,0.2771 m -35.2204916,-9.55975 36.0459716,0.2771 m -36.4587106,3.74077 36.0459706,0.27709 M 5.2316194,266.69252 c 11.0208436,-1.19166 22.1701396,-1.19166 33.1909836,0 0.207289,0.0224 0.415743,0.046 0.615685,0.10508 0.199943,0.0591 0.39094,0.15589 0.543446,0.29806 0.152507,0.14218 0.262353,0.32808 0.319772,0.52851 0.05742,0.20044 0.06208,0.41165 0.06208,0.62015 v 25.15164 c 0,0.21295 -0.0028,0.42813 -0.05379,0.63488 -0.05104,0.20675 -0.151738,0.40293 -0.3014,0.55443 -0.149661,0.15149 -0.344762,0.25456 -0.551155,0.30701 -0.206393,0.0524 -0.421682,0.0555 -0.634635,0.0555 H 5.2316194 c -0.2129529,0 -0.428241,-0.003 -0.6346336,-0.0555 -0.2063926,-0.0525 -0.4014931,-0.15552 -0.5511539,-0.30701 -0.1496608,-0.1515 -0.2503626,-0.34768 -0.3013981,-0.55443 -0.051036,-0.20675 -0.053789,-0.42193 -0.053789,-0.63488 v -25.15164 c 0,-0.2085 0.00466,-0.41971 0.062076,-0.62015 0.057419,-0.20043 0.1672639,-0.38633 0.3197699,-0.5285 0.152506,-0.14218 0.343502,-0.23896 0.5434444,-0.29807 0.1999423,-0.0591 0.4083959,-0.0827 0.6156843,-0.10508 z" />
      <path
         style="fill:#ffffff;stroke:#000000;stroke-width:8.76009;stroke-linecap:round;stroke-linejoin:round;stroke-miterlimit:4;stroke-dasharray:none;stroke-opacity:0.955017;paint-order:stroke markers fill"
         d="m 138.55256,1003.751 c -0.31291,-1.0182 -0.94608,-5.51089 -1.40704,-9.98373 -1.09644,-10.63889 -8.23056,-24.92747 -15.90999,-31.86538 -3.3562,-3.03213 -9.84766,-7.26918 -14.42545,-9.41566 -7.16904,-3.36149 -10.274352,-3.90142 -22.392809,-3.89354 -12.914094,0.008 -14.799305,0.39303 -22.955574,4.68347 -4.887316,2.57088 -11.350394,7.23193 -14.362396,10.35788 -7.327843,7.60509 -13.466292,21.3811 -14.246128,31.9714 l -0.627075,8.51576 h -5.7178 c -4.992135,0 -5.846571,-0.513 -6.732442,-4.0426 -1.549006,-6.17177 1.578092,-24.17082 5.802471,-33.39808 11.332229,-24.75285 40.777978,-40.87475 66.892576,-36.62449 18.681767,3.04053 38.726627,16.76942 47.191207,32.32165 6.75136,12.40446 10.10051,30.20685 7.50491,39.89232 -0.9807,3.6594 -7.59549,4.7967 -8.61446,1.481 z"
         id="path2555"
         transform="scale(0.26458333)" />
      <path
         style="fill:#ffffff;stroke:#000000;stroke-width:8.76009;stroke-linecap:round;stroke-linejoin:round;stroke-miterlimit:4;stroke-dasharray:none;stroke-opacity:0.955017;paint-order:stroke markers fill"
         d="m 43.990077,1029.6703 -27.838654,-0.4379 0.440066,-9.2233 0.440066,-9.2234 21.474568,-1.9183 c 25.60314,-2.2871 90.776037,-1.5342 93.932167,1.0852 1.10293,0.9153 4.9115,1.4773 8.4635,1.2487 l 6.45818,-0.4156 0.43792,9.9968 0.43792,9.9968 -38.20354,-0.3355 c -21.011948,-0.1846 -50.730934,-0.5326 -66.042193,-0.7735 z"
         id="path2594"
         transform="scale(0.26458333)" />
      <path
         style="fill:#ffffff;stroke:#000000;stroke-width:5.74881;stroke-linecap:round;stroke-linejoin:round;stroke-miterlimit:4;stroke-dasharray:none;stroke-opacity:0.955017;paint-order:stroke markers fill"
         d="m 73.13618,1044.0738 -56.613721,-0.2588 v -4.8088 -4.8087 l 60.015404,0.4799 c 33.008467,0.264 62.748897,0.7169 66.089837,1.0064 l 6.07443,0.5263 v 4.2962 4.2963 l -9.47611,-0.235 c -5.21187,-0.1293 -34.95229,-0.3515 -66.08984,-0.4938 z"
         id="path2633"
         transform="scale(0.26458333)" />
      <path
         style="fill:#ffffff;stroke:#000000;stroke-width:5.74881;stroke-linecap:round;stroke-linejoin:round;stroke-miterlimit:4;stroke-dasharray:none;stroke-opacity:0.955017;paint-order:stroke markers fill"
         d="m 32.801941,1058.6539 -16.279482,-0.2916 v -5.4796 -5.4796 l 35.147676,0.6436 c 19.331221,0.3539 49.071645,0.6435 66.089835,0.6435 h 30.94216 v 5.3455 5.3455 l -49.810352,-0.2178 c -27.395695,-0.1198 -57.136122,-0.3491 -66.089837,-0.5095 z"
         id="path2672"
         transform="scale(0.26458333)" />
      <path
         style="fill:#ffffff;stroke:#000000;stroke-width:5.74881;stroke-linecap:round;stroke-linejoin:round;stroke-miterlimit:4;stroke-dasharray:none;stroke-opacity:0.955017;paint-order:stroke markers fill"
         d="m 65.360905,1079.0626 -48.838446,-0.2612 v -7.7663 -7.7663 h 36.203624 c 19.911993,9e-4 49.652417,0.2902 66.089837,0.6427 l 29.88621,0.6411 v 7.6185 7.6184 l -17.25139,-0.2338 c -9.48826,-0.1286 -39.22869,-0.3513 -66.089835,-0.4949 z"
         id="path2711"
         transform="scale(0.26458333)" />
      <path
         style="fill:#ffffff;stroke:#000000;stroke-width:5.74881;stroke-linecap:round;stroke-linejoin:round;stroke-miterlimit:4;stroke-dasharray:none;stroke-opacity:0.955017;paint-order:stroke markers fill"
         d="m 81.883364,1079.0625 -65.360905,-0.2568 v -7.8254 -7.8253 l 52.240129,0.5679 c 28.73207,0.3123 58.472492,0.8208 66.089832,1.1299 l 13.84971,0.5619 v 7.1883 c 0,3.9536 -0.32802,7.0821 -0.72893,6.9523 -0.40091,-0.1298 -30.14134,-0.3516 -66.089836,-0.4928 z"
         id="path2750"
         transform="scale(0.26458333)" />
      <path
         style="fill:#ffffff;stroke:#000000;stroke-width:5.74881;stroke-linecap:round;stroke-linejoin:round;stroke-miterlimit:4;stroke-dasharray:none;stroke-opacity:0.955017;paint-order:stroke markers fill"
         d="m 46.408672,1096.5573 -29.886213,-0.2716 v -6.9448 -6.9448 l 23.483206,0.6414 c 12.915764,0.3528 42.656191,0.6414 66.089835,0.6414 h 42.60663 v 6.8034 6.8034 l -36.20362,-0.2284 c -19.911994,-0.1257 -49.652421,-0.3507 -66.089838,-0.5 z"
         id="path2789"
         transform="scale(0.26458333)" />
      <path
         style="fill:#ffffff;stroke:#000000;stroke-width:5.74881;stroke-linecap:round;stroke-linejoin:round;stroke-miterlimit:4;stroke-dasharray:none;stroke-opacity:0.955017;paint-order:stroke markers fill"
         d="m 17.737346,1112.1925 c -0.76205,-0.3074 -1.214887,-2.4525 -1.214887,-5.7547 v -5.2645 l 56.613721,0.01 c 31.13755,0 60.87797,0.2874 66.08984,0.6326 l 9.47611,0.6275 v 4.609 c 0,3.3062 -0.43455,4.7757 -1.53735,5.1989 -1.83745,0.7051 -127.676339,0.6528 -129.427434,-0.054 z"
         id="path2828"
         transform="scale(0.26458333)" />
    </g>
    <g
       id="g3600">
      <path
         id="path2246"
         style="fill:none;stroke:#000000;stroke-width:0.921842;stroke-linecap:butt;stroke-linejoin:miter;stroke-miterlimit:4;stroke-dasharray:none;stroke-opacity:1"
         inkscape:path-effect="#path-effect2250"
         inkscape:original-d="m 201.8356,264.42388 3.81434,-0.40064 m -34.60952,-0.2793 c 2.19777,0.66404 5.97647,1.9939 4.54194,0.47607 m 30.06758,-0.19677 a 17.305499,21.373658 0 0 0 -17.19242,-21.37321 17.305499,21.373658 0 0 0 -17.4171,21.09391 m 30.79518,0.67994 a 13.12718,15.602024 0 0 0 -13.04142,-15.60169 13.12718,15.602024 0 0 0 -13.21182,15.39782 m -5.85276,6.30129 36.04597,0.27709 m -35.63323,17.31838 36.04597,0.2771 m -36.59629,-4.9877 36.04597,0.2771 m -35.22049,-9.55975 36.04597,0.2771 m -36.45871,3.74077 36.04597,0.27709 m -34.59438,-14.26199 h 33.19098 c 0.8537,0 1.54098,0.6921 1.54098,1.5518 v 25.15164 c 0,0.8597 -0.68728,1.55181 -1.54098,1.55181 h -33.19098 c -0.8537,0 -1.54098,-0.69211 -1.54098,-1.55181 v -25.15164 c 0,-0.8597 0.68728,-1.5518 1.54098,-1.5518 z"
         d="m 201.8356,264.42388 3.81434,-0.40064 m -34.60952,-0.2793 4.54194,0.47607 m 30.06758,-0.19677 c 1.09739,-5.11746 -0.22813,-10.70091 -3.50856,-14.77906 -3.28044,-4.07816 -8.45012,-6.5694 -13.68386,-6.59415 -5.21407,-0.0247 -10.38829,2.39817 -13.70813,6.41884 -3.31984,4.02067 -4.71981,9.55987 -3.70897,14.67507 m 30.79518,0.67994 c 0.66459,-3.79926 -0.42486,-7.86939 -2.8985,-10.82865 -2.47363,-2.95925 -6.28602,-4.75328 -10.14292,-4.77304 -3.84518,-0.0197 -7.6645,1.72391 -10.16844,4.64215 -2.50393,2.91824 -3.64704,6.95812 -3.04338,10.75567 m -5.85276,6.30129 36.04597,0.27709 m -35.63323,17.31838 36.04597,0.2771 m -36.59629,-4.9877 36.04597,0.2771 m -35.22049,-9.55975 36.04597,0.2771 m -36.45871,3.74077 36.04597,0.27709 m -34.59438,-14.26199 c 11.02084,-1.19163 22.17014,-1.19163 33.19098,0 0.20729,0.0224 0.41574,0.046 0.61569,0.10508 0.19994,0.0591 0.39094,0.15589 0.54344,0.29806 0.15251,0.14218 0.26235,0.32808 0.31977,0.52851 0.0574,0.20043 0.0621,0.41165 0.0621,0.62015 v 25.15164 c 0,0.21295 -0.003,0.42813 -0.0538,0.63488 -0.051,0.20675 -0.15174,0.40293 -0.3014,0.55443 -0.14966,0.15149 -0.34476,0.25456 -0.55116,0.30701 -0.20639,0.0525 -0.42168,0.0555 -0.63463,0.0555 h -33.19098 c -0.21295,0 -0.42824,-0.003 -0.63463,-0.0555 -0.2064,-0.0524 -0.4015,-0.15552 -0.55116,-0.30701 -0.14966,-0.1515 -0.25036,-0.34768 -0.3014,-0.55443 -0.051,-0.20675 -0.0538,-0.42193 -0.0538,-0.63488 v -25.15164 c 0,-0.2085 0.005,-0.41972 0.0621,-0.62015 0.0574,-0.20043 0.16726,-0.38633 0.31977,-0.52851 0.1525,-0.14217 0.3435,-0.23896 0.54344,-0.29806 0.19995,-0.0591 0.4084,-0.0827 0.61569,-0.10508 z" />
      <path
         style="fill:#93a7ac;stroke:#000000;stroke-width:7.07545;stroke-linecap:round;stroke-linejoin:round;stroke-miterlimit:4;stroke-dasharray:none;stroke-opacity:0.955017;paint-order:stroke markers fill"
         d="m 768.85507,995.57461 c -3.11465,-0.47183 -3.28954,-0.83718 -3.28954,-6.87195 0,-8.4437 -3.74741,-20.13309 -8.89215,-27.73752 -11.07781,-16.37407 -32.72089,-25.59133 -51.82542,-22.07119 -24.67156,4.54592 -41.23286,22.78528 -43.97982,48.43607 l -0.84658,7.90517 h -5.72937 -5.72938 l -0.78127,-5.68193 c -0.94987,-6.90804 0.9472,-19.58724 4.25238,-28.42112 13.42084,-35.87041 56.05924,-51.86475 90.01552,-33.76624 19.99502,10.65723 32.4202,30.27612 33.93942,53.58902 0.62917,9.65478 -0.5724,15.80382 -2.98918,15.29724 -0.47029,-0.0986 -2.33536,-0.40348 -4.14461,-0.67755 z"
         id="path3013"
         transform="scale(0.26458333)" />
      <path
         style="fill:#89a02c;stroke:#000000;stroke-width:7.07545;stroke-linecap:round;stroke-linejoin:round;stroke-miterlimit:4;stroke-dasharray:none;stroke-opacity:0.955017;paint-order:stroke markers fill"
         d="m 645.54719,1102.0954 c -0.43861,-0.4386 -0.79747,-3.2158 -0.79747,-6.1715 v -5.374 l 26.01727,0.7857 c 14.30949,0.4321 44.18449,0.7869 66.38888,0.7885 h 40.37162 v 3.4907 c 0,7.8299 5.0579,7.275 -66.3175,7.275 -35.67594,0 -65.2242,-0.3588 -65.6628,-0.7974 z"
         id="path3200"
         transform="scale(0.26458333)" />
      <path
         style="fill:#89a02c;stroke:#000000;stroke-width:7.07545;stroke-linecap:round;stroke-linejoin:round;stroke-miterlimit:4;stroke-dasharray:none;stroke-opacity:0.955017;paint-order:stroke markers fill"
         d="m 651.02975,1086.4604 -6.28003,-0.4393 v -6.6957 -6.6957 l 10.94953,0.7772 c 6.02224,0.4275 35.89724,0.7772 66.38889,0.7772 h 55.43935 v 6.5791 6.5791 l -60.10885,-0.2213 c -33.05987,-0.1217 -62.93487,-0.419 -66.38889,-0.6606 z"
         id="path3239"
         transform="scale(0.26458333)" />
      <path
         style="fill:#89a02c;stroke:#000000;stroke-width:7.07545;stroke-linecap:round;stroke-linejoin:round;stroke-miterlimit:4;stroke-dasharray:none;stroke-opacity:0.955017;paint-order:stroke markers fill"
         d="m 647.44116,1068.5552 c -2.43029,-0.4681 -2.69144,-1.2068 -2.69144,-7.6124 v -7.094 l 52.93168,0.01 c 29.11242,0 58.98742,0.3544 66.38889,0.7809 l 13.4572,0.7754 v 6.9944 6.9945 l -63.69744,-0.1629 c -35.0336,-0.09 -64.90859,-0.3962 -66.38889,-0.6813 z"
         id="path3278"
         transform="scale(0.26458333)" />
      <path
         style="fill:#89a02c;stroke:#000000;stroke-width:7.07545;stroke-linecap:round;stroke-linejoin:round;stroke-miterlimit:4;stroke-dasharray:none;stroke-opacity:0.955017;paint-order:stroke markers fill"
         d="m 696.4852,1020.6547 -51.73548,-0.3248 v -9.4836 -9.4835 l 5.3749,-0.8061 c 2.95619,-0.4433 7.21263,-0.4612 9.45875,-0.04 2.70983,0.5083 4.24484,0.2831 4.56235,-0.66942 0.67585,-2.02755 66.45015,-2.85339 84.07497,-1.05562 7.23698,0.73819 16.38788,1.63954 20.33533,2.00304 3.94745,0.3635 7.57265,1.2798 8.05601,2.0363 0.48336,0.7565 0.88708,5.2781 0.89715,10.0479 l 0.0183,8.6724 -14.6534,-0.286 c -8.05937,-0.1573 -37.93437,-0.4322 -66.38889,-0.6108 z"
         id="path3356"
         transform="scale(0.26458333)" />
      <path
         style="fill:#89a02c;stroke:#000000;stroke-width:7.07545;stroke-linecap:round;stroke-linejoin:round;stroke-miterlimit:4;stroke-dasharray:none;stroke-opacity:0.955017;paint-order:stroke markers fill"
         d="m 668.37459,1033.814 -23.62487,-0.3511 v -4.1614 -4.1614 h 60.83905 c 33.46148,0 63.33647,0.3423 66.38889,0.7607 5.35174,0.7335 5.54983,0.9043 5.54983,4.7848 v 4.0241 l -42.76401,-0.2723 c -23.52021,-0.1497 -53.3952,-0.4303 -66.38889,-0.6234 z"
         id="path3395"
         transform="scale(0.26458333)" />
      <path
         style="fill:#89a02c;stroke:#000000;stroke-width:7.07545;stroke-linecap:round;stroke-linejoin:round;stroke-miterlimit:4;stroke-dasharray:none;stroke-opacity:0.955017;paint-order:stroke markers fill"
         d="m 691.10232,1049.3635 -46.3526,-0.3276 v -5.3688 -5.3688 h 18.84009 c 10.36205,9e-4 40.23705,0.3575 66.38889,0.7925 l 47.54879,0.7909 v 5.1885 5.1884 l -20.03628,-0.2846 c -11.01996,-0.1565 -40.89496,-0.432 -66.38889,-0.6121 z"
         id="path3473"
         transform="scale(0.26458333)" />
    </g>
  </g>
</svg>
