<?xml version="1.0" encoding="UTF-8" standalone="no"?>
<!-- Created with Inkscape (http://www.inkscape.org/) -->

<svg
   width="210mm"
   height="297mm"
   viewBox="0 0 210 297"
   version="1.1"
   id="svg5"
   inkscape:version="1.1.1 (3bf5ae0d25, 2021-09-20)"
   sodipodi:docname="OSC tablet control svg.svg"
   xmlns:inkscape="http://www.inkscape.org/namespaces/inkscape"
   xmlns:sodipodi="http://sodipodi.sourceforge.net/DTD/sodipodi-0.dtd"
   xmlns="http://www.w3.org/2000/svg"
   xmlns:svg="http://www.w3.org/2000/svg">
  <sodipodi:namedview
     id="namedview7"
     pagecolor="#ffffff"
     bordercolor="#666666"
     borderopacity="1.0"
     inkscape:pageshadow="2"
     inkscape:pageopacity="0.0"
     inkscape:pagecheckerboard="0"
     inkscape:document-units="mm"
     showgrid="false"
     inkscape:zoom="0.54115914"
     inkscape:cx="255.00817"
     inkscape:cy="387.13196"
     inkscape:window-width="1680"
     inkscape:window-height="956"
     inkscape:window-x="-11"
     inkscape:window-y="-11"
     inkscape:window-maximized="1"
     inkscape:current-layer="layer1" />
  <defs
     id="defs2" />
  <g
     inkscape:label="Layer 1"
     inkscape:groupmode="layer"
     id="layer1">
    <path
       style="fill:#ffffff;stroke:#000000;stroke-width:10.7127;stroke-linecap:round;stroke-linejoin:round;stroke-opacity:0.955017;paint-order:stroke markers fill"
       d=""
       id="path2168"
       transform="scale(0.26458333)" />
    <path
       style="fill:#00aad4;stroke:#000000;stroke-width:6.62142;stroke-linecap:round;stroke-linejoin:round;stroke-opacity:0.955017;paint-order:stroke markers fill"
       d=""
       id="path2428"
       transform="scale(0.26458333)" />
    <path
       style="fill:#000000;fill-opacity:1;stroke:#000000;stroke-width:2.17627;stroke-linecap:round;stroke-linejoin:round;stroke-opacity:0.955017;paint-order:stroke markers fill"
       d=""
       id="path31236"
       transform="scale(0.26458333)" />
    <path
       style="fill:#000000;fill-opacity:1;stroke:#000000;stroke-width:2.17627;stroke-linecap:round;stroke-linejoin:round;stroke-opacity:0.955017;paint-order:stroke markers fill"
       d=""
       id="path31275"
       transform="scale(0.26458333)" />
    <path
       style="fill:#000000;fill-opacity:1;stroke:#000000;stroke-width:1.76822;stroke-linecap:round;stroke-linejoin:round;stroke-opacity:0.955017;paint-order:stroke markers fill"
       d=""
       id="path31390"
       transform="scale(0.26458333)" />
    <path
       style="fill:#000000;fill-opacity:1;stroke:#000000;stroke-width:1.76822;stroke-linecap:round;stroke-linejoin:round;stroke-opacity:0.955017;paint-order:stroke markers fill"
       d=""
       id="path31429"
       transform="scale(0.26458333)" />
    <path
       style="fill:#000000;fill-opacity:1;stroke:#000000;stroke-width:1.76822;stroke-linecap:round;stroke-linejoin:round;stroke-opacity:0.955017;paint-order:stroke markers fill"
       d=""
       id="path31544"
       transform="scale(0.26458333)" />
    <path
       style="fill:#000000;fill-opacity:1;stroke:#000000;stroke-width:1.76822;stroke-linecap:round;stroke-linejoin:round;stroke-opacity:0.955017;paint-order:stroke markers fill"
       d=""
       id="path31622"
       transform="scale(0.26458333)" />
    <path
       id="path1609"
       style="fill:#000000;stroke:#000000;stroke-width:1.51979;stroke-linecap:round;stroke-linejoin:round;stroke-opacity:0.955017;paint-order:stroke markers fill"
       d="m 156.32967,33.912826 a 3.8944013,4.8380516 0 0 1 -3.8944,4.838051 3.8944013,4.8380516 0 0 1 -3.8944,-4.838051 3.8944013,4.8380516 0 0 1 3.8944,-4.838055 3.8944013,4.8380516 0 0 1 3.8944,4.838055 z m 33.53511,0.604757 a 3.8944013,4.8380516 0 0 1 -3.8944,4.838051 3.8944013,4.8380516 0 0 1 -3.8944,-4.838051 3.8944013,4.8380516 0 0 1 3.8944,-4.838051 3.8944013,4.8380516 0 0 1 3.8944,4.838051 z m -4.11075,-14.917327 a 3.8944013,4.8380516 0 0 1 -3.89441,4.838051 3.8944013,4.8380516 0 0 1 -3.8944,-4.838051 3.8944013,4.8380516 0 0 1 3.8944,-4.838052 3.8944013,4.8380516 0 0 1 3.89441,4.838052 z m -13.1977,-2.822195 a 3.8944013,4.8380516 0 0 1 -3.89439,4.838051 3.8944013,4.8380516 0 0 1 -3.89441,-4.838051 3.8944013,4.8380516 0 0 1 3.89441,-4.838052 3.8944013,4.8380516 0 0 1 3.89439,4.838052 z m -13.19768,4.636467 a 3.8944013,4.8380516 0 0 1 -3.8944,4.838053 3.8944013,4.8380516 0 0 1 -3.8944,-4.838053 3.8944013,4.8380516 0 0 1 3.8944,-4.838052 3.8944013,4.8380516 0 0 1 3.8944,4.838052 z M 171.36631,5.5962137 a 29.8505,27.946424 0 0 0 -29.85037,27.9464793 29.8505,27.946424 0 0 0 19.48551,26.191544 14.507117,13.143872 0 0 1 13.25376,-7.821412 14.507117,13.143872 0 0 1 12.04874,5.824893 29.8505,27.946424 0 0 0 14.91297,-24.195025 29.8505,27.946424 0 0 0 -29.85061,-27.9464793 z" />
    <path
       id="path1611"
       style="fill:none;stroke:#000000;stroke-width:2.22;stroke-linecap:round;stroke-linejoin:round;stroke-opacity:0.955017;paint-order:stroke markers fill;stroke-miterlimit:4;stroke-dasharray:none"
       d="m 95.214715,116.05132 a 3.8944013,4.8380516 0 0 1 -3.8944,4.83805 3.8944013,4.8380516 0 0 1 -3.8944,-4.83805 3.8944013,4.8380516 0 0 1 3.8944,-4.83805 3.8944013,4.8380516 0 0 1 3.8944,4.83805 z m 33.535115,0.60476 a 3.8944013,4.8380516 0 0 1 -3.8944,4.83805 3.8944013,4.8380516 0 0 1 -3.8944,-4.83805 3.8944013,4.8380516 0 0 1 3.8944,-4.83805 3.8944013,4.8380516 0 0 1 3.8944,4.83805 z m -4.11075,-14.91732 a 3.8944013,4.8380516 0 0 1 -3.89441,4.83805 3.8944013,4.8380516 0 0 1 -3.8944,-4.83805 3.8944013,4.8380516 0 0 1 3.8944,-4.838056 3.8944013,4.8380516 0 0 1 3.89441,4.838056 z m -13.1977,-2.822199 a 3.8944013,4.8380516 0 0 1 -3.89439,4.838049 3.8944013,4.8380516 0 0 1 -3.89442,-4.838049 3.8944013,4.8380516 0 0 1 3.89442,-4.838052 3.8944013,4.8380516 0 0 1 3.89439,4.838052 z m -13.197685,4.636469 a 3.8944013,4.8380516 0 0 1 -3.8944,4.83805 3.8944013,4.8380516 0 0 1 -3.8944,-4.83805 3.8944013,4.8380516 0 0 1 3.8944,-4.838054 3.8944013,4.8380516 0 0 1 3.8944,4.838054 z M 110.25136,87.734714 a 29.8505,27.946424 0 0 0 -29.850375,27.946476 29.8505,27.946424 0 0 0 19.48551,26.19154 14.507117,13.143872 0 0 1 13.253765,-7.82141 14.507117,13.143872 0 0 1 12.04874,5.82489 29.8505,27.946424 0 0 0 14.91297,-24.19502 29.8505,27.946424 0 0 0 -29.85061,-27.946476 z" />
    <path
       id="path1613"
       style="fill:none;stroke:#000000;stroke-width:1.51979;stroke-linecap:round;stroke-linejoin:round;stroke-opacity:0.955017;paint-order:stroke markers fill"
       d="m 22.854608,234.8588 a 3.8944013,4.8380516 0 0 1 -3.8944,4.83805 3.8944013,4.8380516 0 0 1 -3.8944,-4.83805 3.8944013,4.8380516 0 0 1 3.8944,-4.83805 3.8944013,4.8380516 0 0 1 3.8944,4.83805 z m 33.535112,0.60476 a 3.8944013,4.8380516 0 0 1 -3.8944,4.83805 3.8944013,4.8380516 0 0 1 -3.8944,-4.83805 3.8944013,4.8380516 0 0 1 3.8944,-4.83805 3.8944013,4.8380516 0 0 1 3.8944,4.83805 z m -4.11075,-14.91733 a 3.8944013,4.8380516 0 0 1 -3.89441,4.83805 3.8944013,4.8380516 0 0 1 -3.8944,-4.83805 3.8944013,4.8380516 0 0 1 3.8944,-4.83805 3.8944013,4.8380516 0 0 1 3.89441,4.83805 z m -13.1977,-2.8222 a 3.8944013,4.8380516 0 0 1 -3.89439,4.83805 3.8944013,4.8380516 0 0 1 -3.894412,-4.83805 3.8944013,4.8380516 0 0 1 3.894412,-4.83805 3.8944013,4.8380516 0 0 1 3.89439,4.83805 z m -13.197682,4.63647 a 3.8944013,4.8380516 0 0 1 -3.8944,4.83806 3.8944013,4.8380516 0 0 1 -3.8944,-4.83806 3.8944013,4.8380516 0 0 1 3.8944,-4.83805 3.8944013,4.8380516 0 0 1 3.8944,4.83805 z M 37.89125,206.54219 A 29.8505,27.946424 0 0 0 8.0408777,234.48867 29.8505,27.946424 0 0 0 27.526388,260.68021 14.507117,13.143872 0 0 1 40.78015,252.8588 14.507117,13.143872 0 0 1 52.82889,258.68369 29.8505,27.946424 0 0 0 67.74186,234.48867 29.8505,27.946424 0 0 0 37.89125,206.54219 Z" />
    <g
       id="g1868">
      <path
         id="ellipse1583"
         style="fill:none;stroke:#000000;stroke-width:1.51979;stroke-linecap:round;stroke-linejoin:round;stroke-opacity:0.955017;paint-order:stroke markers fill"
         d="m 25.788129,41.73554 a 3.8944013,4.8380516 0 0 1 -3.894402,4.838051 3.8944013,4.8380516 0 0 1 -3.894401,-4.838051 3.8944013,4.8380516 0 0 1 3.894401,-4.838055 3.8944013,4.8380516 0 0 1 3.894402,4.838055 z m 33.53511,0.604757 a 3.8944013,4.8380516 0 0 1 -3.894399,4.838051 3.8944013,4.8380516 0 0 1 -3.894404,-4.838051 3.8944013,4.8380516 0 0 1 3.894404,-4.838051 3.8944013,4.8380516 0 0 1 3.894399,4.838051 z M 55.212484,27.42297 a 3.8944013,4.8380516 0 0 1 -3.894404,4.838051 3.8944013,4.8380516 0 0 1 -3.8944,-4.838051 3.8944013,4.8380516 0 0 1 3.8944,-4.838052 3.8944013,4.8380516 0 0 1 3.894404,4.838052 z M 42.01479,24.600775 a 3.8944013,4.8380516 0 0 1 -3.894399,4.838051 3.8944013,4.8380516 0 0 1 -3.894404,-4.838051 3.8944013,4.8380516 0 0 1 3.894404,-4.838052 3.8944013,4.8380516 0 0 1 3.894399,4.838052 z m -13.197684,4.636467 a 3.8944013,4.8380516 0 0 1 -3.894402,4.838053 3.8944013,4.8380516 0 0 1 -3.894401,-4.838053 3.8944013,4.8380516 0 0 1 3.894401,-4.838052 3.8944013,4.8380516 0 0 1 3.894402,4.838052 z M 40.824763,13.418928 A 29.8505,27.946424 0 0 0 10.974397,41.365407 29.8505,27.946424 0 0 0 30.459904,67.556951 14.507117,13.143872 0 0 1 43.713669,59.735539 14.507117,13.143872 0 0 1 55.76241,65.560432 29.8505,27.946424 0 0 0 70.675377,41.365407 29.8505,27.946424 0 0 0 40.824763,13.418928 Z" />
      <path
         style="fill:#ffffff;stroke:#000000;stroke-width:24.8495;stroke-linecap:round;stroke-linejoin:round;stroke-opacity:0.955017;paint-order:stroke markers fill"
         d="M 98.861862,243.47442 C 92.702008,240.20119 82.025849,231.80311 74.839353,224.57784 54.957533,204.58874 46.259861,183.75401 46.219064,156.01973 46.151838,110.31937 78.900412,70.44936 126.58014,58.183501 c 14.21857,-3.6578 41.21799,-3.6578 55.43656,0 37.38062,9.61636 67.05414,37.548143 77.43493,72.889779 3.30683,11.25818 3.82793,35.64968 1.02155,47.81714 -4.67626,20.27463 -22.12603,45.58147 -39.82733,57.76028 l -8.13677,5.59824 -6.93071,-5.54738 c -17.34905,-13.8863 -38.2461,-17.87102 -59.64098,-11.37252 -11.23494,3.41251 -15.00273,5.68078 -23.42301,14.10107 -5.51893,5.51893 -10.60384,10.01224 -11.29981,9.98515 -0.69597,-0.0271 -6.25469,-2.70046 -12.352708,-5.94084 z M 222.88551,174.95619 c 4.25754,-5.0598 4.70547,-6.92912 3.9994,-16.69043 -0.97436,-13.47043 -6.60453,-19.67437 -17.85481,-19.67437 -17.05402,0 -24.33252,25.86709 -10.79078,38.34939 7.87664,7.26041 17.52046,6.48386 24.64619,-1.98459 z m -129.088565,0.13094 c 8.012535,-8.55349 9.630345,-18.29832 4.746485,-28.59029 -5.455014,-11.4956 -19.92395,-14.07484 -28.391866,-5.06115 -8.024941,8.54215 -6.541141,28.72099 2.581797,35.11095 5.939033,4.15986 16.484064,3.42919 21.063584,-1.45951 z m 6.791655,-43.84122 c 13.12929,-4.99174 16.09739,-27.39501 4.94912,-37.355985 -7.597935,-6.788754 -14.993208,-6.788754 -22.591142,0 -13.336324,11.916005 -6.140347,38.139095 10.713302,39.040685 1.204259,0.0644 4.322183,-0.69369 6.92872,-1.6847 z m 104.61161,-10.6714 c 10.10402,-9.02871 9.33908,-27.101936 -1.50822,-35.63442 -6.6323,-5.216963 -14.06774,-4.599592 -21.18417,1.758937 -5.57859,4.984471 -6.03478,6.253118 -6.03478,16.782543 0,10.52943 0.45619,11.79808 6.03478,16.78255 7.78494,6.95584 15.14285,7.05649 22.69239,0.31039 z m -49.25145,-11.34309 c 15.2872,-15.956394 1.07792,-44.447845 -18.15858,-36.410323 -19.29938,8.063799 -14.17787,41.747793 6.34759,41.747793 4.97185,0 8.01486,-1.37516 11.81099,-5.33747 z"
         id="path1728"
         transform="scale(0.26458333)" />
    </g>
    <g
       id="g2046">
      <path
         id="path1615"
         style="fill:none;stroke:#000000;stroke-width:1.51979;stroke-linecap:round;stroke-linejoin:round;stroke-opacity:0.955017;paint-order:stroke markers fill"
         d="m 160.72995,234.8588 a 3.8944013,4.8380516 0 0 1 -3.8944,4.83805 3.8944013,4.8380516 0 0 1 -3.8944,-4.83805 3.8944013,4.8380516 0 0 1 3.8944,-4.83805 3.8944013,4.8380516 0 0 1 3.8944,4.83805 z m 33.53511,0.60476 a 3.8944013,4.8380516 0 0 1 -3.8944,4.83805 3.8944013,4.8380516 0 0 1 -3.8944,-4.83805 3.8944013,4.8380516 0 0 1 3.8944,-4.83805 3.8944013,4.8380516 0 0 1 3.8944,4.83805 z m -4.11075,-14.91733 a 3.8944013,4.8380516 0 0 1 -3.89441,4.83805 3.8944013,4.8380516 0 0 1 -3.8944,-4.83805 3.8944013,4.8380516 0 0 1 3.8944,-4.83805 3.8944013,4.8380516 0 0 1 3.89441,4.83805 z m -13.1977,-2.8222 a 3.8944013,4.8380516 0 0 1 -3.89439,4.83805 3.8944013,4.8380516 0 0 1 -3.89441,-4.83805 3.8944013,4.8380516 0 0 1 3.89441,-4.83805 3.8944013,4.8380516 0 0 1 3.89439,4.83805 z m -13.19768,4.63647 a 3.8944013,4.8380516 0 0 1 -3.8944,4.83806 3.8944013,4.8380516 0 0 1 -3.8944,-4.83806 3.8944013,4.8380516 0 0 1 3.8944,-4.83805 3.8944013,4.8380516 0 0 1 3.8944,4.83805 z m 12.00766,-15.81831 a 29.8505,27.946424 0 0 0 -29.85037,27.94648 29.8505,27.946424 0 0 0 19.48551,26.19154 14.507117,13.143872 0 0 1 13.25376,-7.82141 14.507117,13.143872 0 0 1 12.04874,5.82489 29.8505,27.946424 0 0 0 14.91297,-24.19502 29.8505,27.946424 0 0 0 -29.85061,-27.94648 z" />
      <path
         style="fill:#53676c;stroke:#000000;stroke-width:15.5048;stroke-linecap:round;stroke-linejoin:round;stroke-miterlimit:4;stroke-dasharray:none;stroke-opacity:0.955017;paint-order:stroke markers fill"
         d="m 608.87819,973.3891 c -6.15985,-3.27323 -16.83601,-11.67131 -24.0225,-18.89658 -19.88182,-19.9891 -28.5795,-40.82383 -28.62029,-68.55811 -0.0672,-45.70036 32.68134,-85.57037 80.36107,-97.83623 14.21857,-3.6578 41.218,-3.6578 55.43656,0 37.38062,9.61636 67.05414,37.54814 77.43493,72.88977 3.30683,11.25819 3.82793,35.64969 1.02155,47.81715 -4.67626,20.27463 -22.12602,45.58147 -39.82733,57.76028 l -8.13677,5.59824 -6.93071,-5.54739 c -17.34905,-13.88629 -38.2461,-17.87101 -59.64098,-11.37251 -11.23493,3.4125 -15.00273,5.68078 -23.42301,14.10106 -5.51892,5.51894 -10.60383,10.01225 -11.2998,9.98516 -0.69597,-0.0271 -6.25469,-2.70046 -12.35272,-5.94084 z m 124.02365,-68.51823 c 4.25754,-5.0598 4.70547,-6.92912 3.9994,-16.69044 -0.97436,-13.47042 -6.60453,-19.67436 -17.85481,-19.67436 -17.05402,0 -24.33252,25.86709 -10.79078,38.34939 7.87664,7.2604 17.52047,6.48385 24.64619,-1.98459 z m -129.08856,0.13094 c 8.01253,-8.55349 9.63034,-18.29833 4.74648,-28.59029 -5.45501,-11.4956 -19.92395,-14.07484 -28.39186,-5.06116 -8.02494,8.54216 -6.54114,28.721 2.58179,35.11096 5.93904,4.15986 16.48407,3.42919 21.06359,-1.45951 z m 6.79165,-43.84122 c 13.12929,-4.99174 16.09739,-27.39501 4.94912,-37.35599 -7.59793,-6.78875 -14.99321,-6.78875 -22.59114,0 -13.33632,11.91601 -6.14035,38.1391 10.7133,39.04069 1.20426,0.0644 4.32219,-0.69369 6.92872,-1.6847 z m 104.61161,-10.6714 c 10.10402,-9.02871 9.33908,-27.10194 -1.50822,-35.63442 -6.63229,-5.21696 -14.06773,-4.59959 -21.18416,1.75894 -5.5786,4.98447 -6.03478,6.25311 -6.03478,16.78254 0,10.52943 0.45618,11.79808 6.03478,16.78255 7.78493,6.95584 15.14284,7.05649 22.69238,0.31039 z M 665.9651,839.1461 c 15.28719,-15.95639 1.07791,-44.44785 -18.15858,-36.41032 -19.29939,8.0638 -14.17787,41.74779 6.34758,41.74779 4.97186,0 8.01486,-1.37516 11.811,-5.33747 z"
         id="path1925"
         transform="scale(0.26458333)" />
    </g>
  </g>
</svg>
