<?xml version="1.0" encoding="UTF-8" standalone="no"?>
<!-- Created with Inkscape (http://www.inkscape.org/) -->

<svg
   width="210mm"
   height="297mm"
   viewBox="0 0 210 297"
   version="1.1"
   id="svg5"
   inkscape:version="1.1 (c68e22c387, 2021-05-23)"
   sodipodi:docname="headphone amp icon svg.svg"
   xmlns:inkscape="http://www.inkscape.org/namespaces/inkscape"
   xmlns:sodipodi="http://sodipodi.sourceforge.net/DTD/sodipodi-0.dtd"
   xmlns="http://www.w3.org/2000/svg"
   xmlns:svg="http://www.w3.org/2000/svg">
  <sodipodi:namedview
     id="namedview7"
     pagecolor="#ffffff"
     bordercolor="#666666"
     borderopacity="1.0"
     inkscape:pageshadow="2"
     inkscape:pageopacity="0.0"
     inkscape:pagecheckerboard="0"
     inkscape:document-units="mm"
     showgrid="false"
     inkscape:zoom="0.79834536"
     inkscape:cx="492.26816"
     inkscape:cy="794.76882"
     inkscape:window-width="1680"
     inkscape:window-height="956"
     inkscape:window-x="-11"
     inkscape:window-y="-11"
     inkscape:window-maximized="1"
     inkscape:current-layer="layer1" />
  <defs
     id="defs2" />
  <g
     inkscape:label="Layer 1"
     inkscape:groupmode="layer"
     id="layer1">
    <path
       id="path1694"
       style="fill:none;stroke:#000000;stroke-width:0.846227;stroke-linecap:round;stroke-linejoin:round;stroke-dasharray:0.211557, 0.211557;stroke-opacity:0.955017;paint-order:stroke markers fill"
       inkscape:transform-center-x="2.6073899"
       inkscape:transform-center-y="-0.069916723"
       d="M 18.315664,67.32663 18.053692,48.61687 1.673771,58.215051 Z m 67.307554,-0.896204 0.261973,-18.709768 16.379909,9.598189 z m -23.555379,23.04437 -16.378763,0.299244 8.402366,18.7111 z M 61.5448,22.595776 45.166037,22.296524 53.568413,3.5854225 Z M 61.433224,58.6235 v -2.511447 c 0,-1.166205 0.821882,-2.105071 1.842808,-2.105071 h 20.807325 c 1.020926,0 1.842808,0.938866 1.842808,2.105071 V 58.6235 c 0,1.166214 -0.821882,2.105071 -1.842808,2.105071 H 63.276032 c -1.020926,0 -1.842808,-0.938857 -1.842808,-2.105071 z m -43.004091,0.890585 v -2.500183 c 0,-1.185348 0.835379,-2.139623 1.873046,-2.139623 h 21.14877 c 1.037675,0 1.87305,0.954275 1.87305,2.139623 v 2.500183 c 0,1.185357 -0.835375,2.139623 -1.87305,2.139623 h -21.14877 c -1.037667,0 -1.873046,-0.954266 -1.873046,-2.139623 z M 51.108001,22.289276 h 2.556877 c 0.946669,0 1.70879,0.870581 1.70879,1.95197 V 46.28121 c 0,1.081397 -0.762121,1.951981 -1.70879,1.951981 h -2.556877 c -0.946669,0 -1.70879,-0.870584 -1.70879,-1.951981 V 24.241246 c 0,-1.081389 0.762121,-1.95197 1.70879,-1.95197 z m 0.459856,47.088131 h 3.206282 c 0.741766,0 1.338936,0.682158 1.338936,1.529499 v 17.269705 c 0,0.847332 -0.59717,1.529496 -1.338936,1.529496 h -3.206282 c -0.741775,0 -1.338945,-0.682164 -1.338945,-1.529496 V 70.906906 c 0,-0.847341 0.59717,-1.529499 1.338945,-1.529499 z M 61.604951,58.936155 a 9.2838996,10.605176 0 0 1 -9.283893,10.605177 9.2838996,10.605176 0 0 1 -9.283902,-10.605177 9.2838996,10.605176 0 0 1 9.283902,-10.605177 9.2838996,10.605176 0 0 1 9.283893,10.605177 z" />
    <g
       id="g2057">
      <path
         id="path1719"
         style="fill:none;stroke:#000000;stroke-width:0.846227;stroke-linecap:round;stroke-linejoin:round;stroke-dasharray:0.211557, 0.211557;stroke-opacity:0.955017;paint-order:stroke markers fill"
         inkscape:transform-center-x="2.6073899"
         inkscape:transform-center-y="-0.069916723"
         d="m 126.68825,66.663801 -0.26197,-18.70976 -16.37992,9.598181 z m 67.30755,-0.896204 0.26198,-18.709768 16.3799,9.598189 z m -23.55538,23.04437 -16.37876,0.299244 8.40237,18.711099 z M 169.91738,21.932947 153.53862,21.633695 161.941,2.9225932 Z m -0.11157,36.027724 v -2.511447 c 0,-1.166205 0.82188,-2.105071 1.84281,-2.105071 h 20.80732 c 1.02093,0 1.84281,0.938866 1.84281,2.105071 v 2.511447 c 0,1.166214 -0.82188,2.105071 -1.84281,2.105071 h -20.80732 c -1.02093,0 -1.84281,-0.938857 -1.84281,-2.105071 z m -43.00409,0.890585 v -2.500183 c 0,-1.185348 0.83538,-2.139623 1.87304,-2.139623 h 21.14877 c 1.03768,0 1.87305,0.954275 1.87305,2.139623 v 2.500183 c 0,1.185357 -0.83537,2.139623 -1.87305,2.139623 h -21.14877 c -1.03766,0 -1.87304,-0.954266 -1.87304,-2.139623 z m 32.67887,-37.224809 h 2.55687 c 0.94667,0 1.70879,0.870581 1.70879,1.95197 v 22.039964 c 0,1.081397 -0.76212,1.951981 -1.70879,1.951981 h -2.55687 c -0.94667,0 -1.70879,-0.870584 -1.70879,-1.951981 V 23.578417 c 0,-1.081389 0.76212,-1.95197 1.70879,-1.95197 z m 0.45985,47.088131 h 3.20628 c 0.74177,0 1.33894,0.682158 1.33894,1.529499 v 17.269705 c 0,0.847332 -0.59717,1.529496 -1.33894,1.529496 h -3.20628 c -0.74177,0 -1.33894,-0.682164 -1.33894,-1.529496 V 70.244077 c 0,-0.847341 0.59717,-1.529499 1.33894,-1.529499 z m 10.0371,-10.441252 a 9.2838996,10.605176 0 0 1 -9.2839,10.605177 9.2838996,10.605176 0 0 1 -9.2839,-10.605177 9.2838996,10.605176 0 0 1 9.2839,-10.605177 9.2838996,10.605176 0 0 1 9.2839,10.605177 z" />
      <path
         style="fill:#000000;stroke:#000000;stroke-width:12.0249;stroke-linecap:round;stroke-linejoin:round;stroke-dasharray:3.00622, 3.00622;stroke-opacity:0.955017;paint-order:stroke markers fill"
         d="m 596.23319,255.43013 c -12.6707,-5.72889 -20.10288,-17.26259 -21.02482,-32.6276 -0.68127,-11.35392 1.45661,-18.90824 7.79541,-27.54551 7.82486,-10.66218 23.57808,-15.41556 35.11434,-10.59541 6.61002,2.76185 15.10582,11.37622 18.34395,18.59998 4.02013,8.96828 4.18249,25.18923 0.33574,33.5417 -7.99368,17.35668 -25.54687,25.41692 -40.56462,18.62684 z"
         id="path1776"
         transform="scale(0.26458333)" />
      <path
         style="fill:#000000;stroke:#000000;stroke-width:12.0249;stroke-linecap:round;stroke-linejoin:round;stroke-dasharray:3.00622, 3.00622;stroke-opacity:0.955017;paint-order:stroke markers fill"
         d="m 447.93998,232.3887 c -14.39108,-7.90299 -26.35396,-14.55744 -26.58417,-14.78765 -0.35281,-0.35281 8.58733,-5.67475 50.55775,-30.0963 l 4.07092,-2.36877 v 30.8122 c 0,16.94671 -0.42275,30.81161 -0.93944,30.8109 -0.5167,-7.1e-4 -12.71397,-6.46738 -27.10506,-14.37038 z"
         id="path1815"
         transform="scale(0.26458333)" />
      <path
         style="fill:#000000;stroke:#000000;stroke-width:12.0249;stroke-linecap:round;stroke-linejoin:round;stroke-dasharray:3.00622, 3.00622;stroke-opacity:0.955017;paint-order:stroke markers fill"
         d="m 736.04846,213.99158 c 0.45194,-16.76787 1.0018,-30.69819 1.22191,-30.95627 0.51171,-0.59996 53.11832,30.22736 53.10272,31.11804 -0.009,0.5417 -50.49024,28.44467 -54.09443,29.90041 -0.57854,0.23368 -0.68213,-13.2943 -0.2302,-30.06218 z"
         id="path1854"
         transform="scale(0.26458333)" />
      <path
         style="fill:#000000;stroke:#000000;stroke-width:12.0249;stroke-linecap:round;stroke-linejoin:round;stroke-dasharray:3.00622, 3.00622;stroke-opacity:0.955017;paint-order:stroke markers fill"
         d="m 610.8058,394.56608 c -16.84043,-36.89081 -24.44153,-54.43115 -23.84648,-55.02833 0.92586,-0.92917 53.11454,-1.73563 53.11454,-0.82076 0,0.56674 -16.55359,40.41021 -24.2442,58.35427 l -1.87896,4.38407 z"
         id="path1893"
         transform="scale(0.26458333)" />
      <path
         style="fill:#000000;stroke:#000000;stroke-width:12.0249;stroke-linecap:round;stroke-linejoin:round;stroke-dasharray:3.00622, 3.00622;stroke-opacity:0.955017;paint-order:stroke markers fill"
         d="m 584.0578,79.226364 c 0.2741,-0.516694 6.60219,-14.607781 14.06243,-31.313527 7.46023,-16.705745 13.77415,-30.163999 14.03091,-29.90723 0.25677,0.256769 6.30426,14.347856 13.43887,31.313526 l 12.97202,30.846674 h -27.5013 c -15.12571,0 -27.27703,-0.422749 -27.00293,-0.939443 z"
         id="path1932"
         transform="scale(0.26458333)" />
    </g>
    <g
       id="g2557"
       transform="translate(9.9424389,-2.6513171)">
      <path
         id="path2059"
         style="fill:none;stroke:#000000;stroke-width:0.846227;stroke-linecap:round;stroke-linejoin:round;stroke-dasharray:0.211557, 0.211557;stroke-opacity:0.955017;paint-order:stroke markers fill"
         inkscape:transform-center-x="2.6073899"
         inkscape:transform-center-y="-0.069916723"
         d="m 57.091176,161.11697 -0.261972,-18.70976 -16.379921,9.59819 z m 67.307554,-0.8962 0.26197,-18.70977 16.37991,9.59819 z m -23.55538,23.04437 -16.378766,0.29924 8.40237,18.7111 z m -0.52304,-66.87902 -16.378756,-0.29925 8.40237,-18.711107 z m -0.11158,36.02772 v -2.51144 c 0,-1.16621 0.82188,-2.10507 1.84281,-2.10507 h 20.80733 c 1.02092,0 1.8428,0.93886 1.8428,2.10507 v 2.51144 c 0,1.16622 -0.82188,2.10508 -1.8428,2.10508 h -20.80733 c -1.02093,0 -1.84281,-0.93886 -1.84281,-2.10508 z m -43.004085,0.89059 v -2.50018 c 0,-1.18535 0.835379,-2.13963 1.873046,-2.13963 h 21.14877 c 1.037675,0 1.87305,0.95428 1.87305,2.13963 v 2.50018 c 0,1.18536 -0.835375,2.13962 -1.87305,2.13962 h -21.14877 c -1.037667,0 -1.873046,-0.95426 -1.873046,-2.13962 z m 32.678869,-37.22481 h 2.55688 c 0.94667,0 1.70879,0.87058 1.70879,1.95197 v 22.03996 c 0,1.0814 -0.76212,1.95199 -1.70879,1.95199 h -2.55688 c -0.94667,0 -1.70879,-0.87059 -1.70879,-1.95199 v -22.03996 c 0,-1.08139 0.76212,-1.95197 1.70879,-1.95197 z m 0.45986,47.08813 h 3.20628 c 0.74176,0 1.33893,0.68216 1.33893,1.5295 v 17.26971 c 0,0.84733 -0.59717,1.52949 -1.33893,1.52949 h -3.20628 c -0.74178,0 -1.33895,-0.68216 -1.33895,-1.52949 v -17.26971 c 0,-0.84734 0.59717,-1.5295 1.33895,-1.5295 z M 100.38046,152.7265 a 9.2838996,10.605176 0 0 1 -9.283886,10.60518 9.2838996,10.605176 0 0 1 -9.283906,-10.60518 9.2838996,10.605176 0 0 1 9.283906,-10.60518 9.2838996,10.605176 0 0 1 9.283886,10.60518 z" />
      <path
         style="fill:#ffffff;stroke:#000000;stroke-width:3.18159;stroke-linecap:round;stroke-linejoin:round;stroke-dasharray:0.795396, 0.795396;stroke-opacity:0.955017;paint-order:stroke markers fill"
         d="m 57.991015,153.92488 c -0.552262,-1.45256 -0.393192,-3.39432 0.33796,-4.12547 0.635505,-0.6355 1.104715,-0.66283 11.382438,-0.66283 12.52574,0 11.820033,-0.2032 11.509592,3.31415 l -0.190129,2.15419 -11.357496,0.0872 -11.357496,0.0872 z"
         id="path2116" />
      <path
         style="fill:#ffffff;stroke:#000000;stroke-width:3.18159;stroke-linecap:round;stroke-linejoin:round;stroke-dasharray:0.795396, 0.795396;stroke-opacity:0.955017;paint-order:stroke markers fill"
         d="m 48.920381,155.93934 c -3.807642,-2.09099 -6.972821,-3.85165 -7.033731,-3.91256 -0.09286,-0.0929 2.521869,-1.6494 13.342615,-7.94285 l 1.042974,-0.6066 -0.01455,8.13226 c -0.008,4.47274 -0.1045,8.13211 -0.214439,8.13192 -0.109937,-1.9e-4 -3.315229,-1.71116 -7.122869,-3.80217 z"
         id="path2155" />
      <path
         style="fill:#ffffff;stroke:#000000;stroke-width:3.18159;stroke-linecap:round;stroke-linejoin:round;stroke-dasharray:0.795396, 0.795396;stroke-opacity:0.955017;paint-order:stroke markers fill"
         d="m 88.15629,162.03572 c -1.935419,-0.87507 -3.503263,-2.3967 -4.520393,-4.38716 -0.760619,-1.48847 -0.805534,-1.85328 -0.665745,-5.40719 0.145786,-3.70633 0.182402,-3.85998 1.33272,-5.59249 2.078072,-3.1298 5.98528,-4.5789 9.351036,-3.4681 1.761633,0.58139 4.227939,3.00374 5.148167,5.05642 1.061726,2.3683 1.103813,6.66223 0.08694,8.87017 -2.114992,4.59229 -6.759276,6.72489 -10.732722,4.92835 z"
         id="path2194" />
      <path
         style="fill:#ffffff;stroke:#000000;stroke-width:3.18159;stroke-linecap:round;stroke-linejoin:round;stroke-dasharray:0.795396, 0.795396;stroke-opacity:0.955017;paint-order:stroke markers fill"
         d="m 84.934885,115.41515 c 0.07252,-0.13671 1.746829,-3.86498 3.720684,-8.28504 1.973855,-4.42007 3.644411,-7.980894 3.712348,-7.912957 0.06794,0.06794 1.668002,3.796197 3.555701,8.285037 l 3.432177,8.16152 H 92.07941 c -4.002011,0 -7.217048,-0.11186 -7.144525,-0.24856 z"
         id="path2233" />
      <path
         style="fill:#ffffff;stroke:#000000;stroke-width:3.18159;stroke-linecap:round;stroke-linejoin:round;stroke-dasharray:0.795396, 0.795396;stroke-opacity:0.955017;paint-order:stroke markers fill"
         d="m 89.054079,140.9757 c -0.129227,-0.12922 -0.23496,-5.50445 -0.23496,-11.94494 v -11.70998 h 2.324089 2.32409 l -0.08704,11.84807 -0.08704,11.84807 -2.002089,0.0969 c -1.101148,0.0533 -2.107822,-0.009 -2.23705,-0.13809 z"
         id="path2272" />
      <path
         style="fill:#ffffff;stroke:#000000;stroke-width:3.18159;stroke-linecap:round;stroke-linejoin:round;stroke-dasharray:0.795396, 0.795396;stroke-opacity:0.955017;paint-order:stroke markers fill"
         d="m 89.879646,182.54318 c -0.289431,-0.28944 -0.397696,-2.80326 -0.397696,-9.23424 v -8.83654 l 2.236968,-0.17956 c 1.508728,-0.1211 2.316263,-0.055 2.480535,0.20319 0.386828,0.60788 0.304212,17.06841 -0.08936,17.8038 -0.272494,0.50917 -0.702029,0.64105 -2.087911,0.64105 -0.95966,0 -1.923802,-0.17897 -2.142535,-0.3977 z"
         id="path2311" />
      <path
         style="fill:#ffffff;stroke:#000000;stroke-width:3.18159;stroke-linecap:round;stroke-linejoin:round;stroke-dasharray:0.795396, 0.795396;stroke-opacity:0.955017;paint-order:stroke markers fill"
         d="m 92.01196,198.84878 c -4.315219,-9.45296 -6.470756,-14.39753 -6.335446,-14.53284 0.0889,-0.0889 0.944206,-0.13612 1.900682,-0.10494 3.55609,0.11596 6.787333,0.0737 9.444435,-0.12346 1.503796,-0.11159 2.734172,-0.11913 2.734172,-0.0168 0,0.1509 -4.372303,10.67561 -6.414614,15.44081 l -0.497141,1.15995 z"
         id="path2350" />
      <path
         style="fill:#ffffff;stroke:#000000;stroke-width:3.18159;stroke-linecap:round;stroke-linejoin:round;stroke-dasharray:0.795396, 0.795396;stroke-opacity:0.955017;paint-order:stroke markers fill"
         d="m 125.14908,151.07178 c 0.11958,-4.43651 0.26506,-8.12224 0.3233,-8.19052 0.13539,-0.15874 14.05422,7.99766 14.05009,8.23331 -0.002,0.14333 -13.35887,7.52599 -14.31248,7.91115 -0.15308,0.0618 -0.18048,-3.51745 -0.0609,-7.95394 z"
         id="path2389" />
      <path
         style="fill:#ffffff;stroke:#000000;stroke-width:3.18159;stroke-linecap:round;stroke-linejoin:round;stroke-dasharray:0.795396, 0.795396;stroke-opacity:0.955017;paint-order:stroke markers fill"
         d="m 101.29019,151.43223 c -0.11983,-1.28929 -0.13244,-2.48238 -0.028,-2.65132 0.11044,-0.17869 4.82426,-0.30716 11.27059,-0.30716 h 11.08075 l -0.139,0.74569 c -0.0765,0.41012 -0.15009,1.60321 -0.16363,2.65131 l -0.0246,1.90564 h -10.8891 -10.88909 z"
         id="path2428" />
    </g>
    <path
       style="fill:#00ffff;stroke:#000000;stroke-width:12.0249;stroke-linecap:round;stroke-linejoin:round;stroke-dasharray:3.00622, 3.00622;stroke-opacity:0.955017;paint-order:stroke markers fill"
       d=""
       id="path3160"
       transform="scale(0.26458333)" />
    <g
       id="g3406"
       transform="translate(-10.605268,1.3256585)">
      <path
         id="path2559"
         style="fill:none;stroke:#000000;stroke-width:0.846227;stroke-linecap:round;stroke-linejoin:round;stroke-dasharray:0.211557, 0.211557;stroke-opacity:0.955017;paint-order:stroke markers fill"
         inkscape:transform-center-x="2.6073899"
         inkscape:transform-center-y="-0.069916723"
         d="m 29.915176,250.59892 -0.261972,-18.70976 -16.379921,9.59818 z m 67.307554,-0.8962 0.261973,-18.70977 16.379907,9.59819 z m -23.555379,23.04437 -16.378763,0.29924 8.402366,18.7111 z m -0.523039,-66.87902 -16.378763,-0.29925 8.402376,-18.71111 z m -0.111576,36.02772 v -2.51145 c 0,-1.1662 0.821882,-2.10507 1.842808,-2.10507 h 20.807325 c 1.020926,0 1.842808,0.93887 1.842808,2.10507 v 2.51145 c 0,1.16622 -0.821882,2.10507 -1.842808,2.10507 H 74.875544 c -1.020926,0 -1.842808,-0.93885 -1.842808,-2.10507 z m -43.004091,0.89059 v -2.50019 c 0,-1.18534 0.835379,-2.13962 1.873046,-2.13962 h 21.14877 c 1.037675,0 1.87305,0.95428 1.87305,2.13962 v 2.50019 c 0,1.18535 -0.835375,2.13962 -1.87305,2.13962 h -21.14877 c -1.037667,0 -1.873046,-0.95427 -1.873046,-2.13962 z m 32.678868,-37.22481 h 2.556877 c 0.946669,0 1.70879,0.87058 1.70879,1.95197 v 22.03996 c 0,1.0814 -0.762121,1.95198 -1.70879,1.95198 h -2.556877 c -0.946669,0 -1.70879,-0.87058 -1.70879,-1.95198 v -22.03996 c 0,-1.08139 0.762121,-1.95197 1.70879,-1.95197 z m 0.459856,47.08813 h 3.206282 c 0.741766,0 1.338936,0.68216 1.338936,1.5295 v 17.2697 c 0,0.84733 -0.59717,1.5295 -1.338936,1.5295 h -3.206282 c -0.741775,0 -1.338945,-0.68217 -1.338945,-1.5295 v -17.2697 c 0,-0.84734 0.59717,-1.5295 1.338945,-1.5295 z m 10.037094,-10.44125 a 9.2838996,10.605176 0 0 1 -9.283893,10.60517 9.2838996,10.605176 0 0 1 -9.283902,-10.60517 9.2838996,10.605176 0 0 1 9.283902,-10.60518 9.2838996,10.605176 0 0 1 9.283893,10.60518 z" />
      <path
         style="fill:#00ffff;stroke:#000000;stroke-width:12.0249;stroke-linecap:round;stroke-linejoin:round;stroke-dasharray:3.00622, 3.00622;stroke-opacity:0.955017;paint-order:stroke markers fill"
         d="m 230.47669,950.61799 c -7.31442,-3.30712 -13.18735,-9.00883 -17.31642,-16.8116 -2.90608,-5.49165 -3.31652,-7.72842 -3.33278,-18.16256 -0.0157,-10.04137 0.44927,-12.84992 2.9772,-17.98508 6.10563,-12.40283 16.67596,-19.53763 28.94532,-19.53763 12.32633,0 23.11557,7.65597 29.04869,20.61273 3.94874,8.6233 4.06786,24.95153 0.24261,33.25729 -7.99367,17.35668 -25.54687,25.41693 -40.56462,18.62685 z"
         id="path2926"
         transform="scale(0.26458333)" />
      <path
         style="fill:#00ffff;stroke:#000000;stroke-width:12.0249;stroke-linecap:round;stroke-linejoin:round;stroke-dasharray:3.00622, 3.00622;stroke-opacity:0.955017;paint-order:stroke markers fill"
         d="m 116.45994,919.94635 c -2.08159,-5.47497 -1.47665,-12.8156 1.28359,-15.57584 2.40202,-2.40202 4.1753,-2.50518 43.06101,-2.50518 31.0058,0 40.82241,0.3687 41.68795,1.56574 0.62266,0.86115 0.92726,5.65231 0.67688,10.64702 l -0.45524,9.08128 h -42.51631 -42.5163 z"
         id="path2965"
         transform="scale(0.26458333)" />
      <path
         style="fill:#00ffff;stroke:#000000;stroke-width:12.0249;stroke-linecap:round;stroke-linejoin:round;stroke-dasharray:3.00622, 3.00622;stroke-opacity:0.955017;paint-order:stroke markers fill"
         d="m 82.18349,927.57656 c -14.391084,-7.903 -26.353963,-14.55744 -26.584175,-14.78765 -0.350958,-0.35096 9.531463,-6.23396 50.428785,-30.02021 l 3.94195,-2.29268 -0.055,30.73611 c -0.0302,16.90485 -0.39496,30.73552 -0.81047,30.73481 -0.41552,-7.2e-4 -12.530005,-6.46739 -26.92109,-14.37038 z"
         id="path3004"
         transform="scale(0.26458333)" />
      <path
         style="fill:#00ffff;stroke:#000000;stroke-width:12.0249;stroke-linecap:round;stroke-linejoin:round;stroke-dasharray:3.00622, 3.00622;stroke-opacity:0.955017;paint-order:stroke markers fill"
         d="m 370.29197,909.17944 c 0.45193,-16.76787 1.00179,-30.69819 1.2219,-30.95627 0.51171,-0.59996 53.11832,30.22735 53.10273,31.11804 -0.009,0.5417 -50.49025,28.44467 -54.09443,29.90041 -0.57855,0.23367 -0.68214,-13.29431 -0.2302,-30.06218 z"
         id="path3043"
         transform="scale(0.26458333)" />
      <path
         style="fill:#00ffff;stroke:#000000;stroke-width:12.0249;stroke-linecap:round;stroke-linejoin:round;stroke-dasharray:3.00622, 3.00622;stroke-opacity:0.955017;paint-order:stroke markers fill"
         d="m 280.11663,910.54179 c -0.45288,-4.8729 -0.50056,-9.38222 -0.10594,-10.02073 0.4174,-0.67537 18.23343,-1.16091 42.59749,-1.16091 h 41.88 l -0.52535,2.81833 c -0.28895,1.55008 -0.56724,6.0594 -0.61844,10.02072 l -0.0931,7.2024 h -41.15562 -41.15562 z"
         id="path3082"
         transform="scale(0.26458333)" />
      <path
         style="fill:#00ffff;stroke:#000000;stroke-width:12.0249;stroke-linecap:round;stroke-linejoin:round;stroke-dasharray:3.00622, 3.00622;stroke-opacity:0.955017;paint-order:stroke markers fill"
         d="m 233.86991,871.02107 c -0.48842,-0.48842 -0.88803,-20.6915 -0.88803,-44.89573 0,-32.55808 0.39106,-44.39875 1.50311,-45.51079 1.97336,-1.97337 11.21159,-1.93184 13.93294,0.0626 1.95502,1.43282 2.10826,5.34064 1.80515,46.03271 l -0.33123,44.46698 -7.56695,0.36612 c -4.16182,0.20137 -7.96657,-0.0335 -8.45499,-0.52191 z"
         id="path3121"
         transform="scale(0.26458333)" />
      <path
         style="fill:#00ffff;stroke:#000000;stroke-width:12.0249;stroke-linecap:round;stroke-linejoin:round;stroke-dasharray:3.00622, 3.00622;stroke-opacity:0.955017;paint-order:stroke markers fill"
         d="m 218.22795,774.5329 c 0.31445,-0.58197 6.67555,-14.72646 14.13578,-31.43221 7.46024,-16.70574 13.77415,-30.164 14.03092,-29.90723 0.25677,0.25677 6.32663,14.40104 13.48857,31.43172 l 13.02172,30.96486 -12.13284,-0.81407 c -15.27104,-1.02463 -24.99328,-1.02293 -35.13989,0.006 -4.38678,0.4449 -7.7187,0.33276 -7.40426,-0.24921 z"
         id="path3199"
         transform="scale(0.26458333)" />
      <path
         style="fill:#00ffff;stroke:#000000;stroke-width:12.0249;stroke-linecap:round;stroke-linejoin:round;stroke-dasharray:3.00622, 3.00622;stroke-opacity:0.955017;paint-order:stroke markers fill"
         d="m 236.99017,1028.1265 c -1.09392,-1.0939 -1.50311,-10.595 -1.50311,-34.90107 v -33.39794 l 8.45469,-0.67866 c 5.70227,-0.45773 8.75437,-0.20772 9.37525,0.76795 1.46203,2.29749 1.14977,64.51052 -0.33774,67.28992 -1.02991,1.9244 -2.65335,2.4229 -7.89132,2.4229 -3.62707,0 -7.27106,-0.6764 -8.09777,-1.5031 z"
         id="path3238"
         transform="scale(0.26458333)" />
      <path
         style="fill:#00ffff;stroke:#000000;stroke-width:12.0249;stroke-linecap:round;stroke-linejoin:round;stroke-dasharray:3.00622, 3.00622;stroke-opacity:0.955017;paint-order:stroke markers fill"
         d="m 245.0493,1089.7539 c -16.30948,-35.7277 -24.4564,-54.4158 -23.94499,-54.9272 0.336,-0.336 3.56866,-0.5145 7.18368,-0.3966 13.44034,0.4382 25.65291,0.2786 35.69551,-0.4667 5.68363,-0.4217 10.33387,-0.4502 10.33387,-0.063 0,0.5703 -16.52524,40.3487 -24.24421,58.3589 l -1.87895,4.3841 z"
         id="path3277"
         transform="scale(0.26458333)" />
    </g>
  </g>
</svg>
