<?xml version="1.0" encoding="UTF-8" standalone="no"?>
<!-- Created with Inkscape (http://www.inkscape.org/) -->

<svg
   width="210mm"
   height="297mm"
   viewBox="0 0 210 297"
   version="1.1"
   id="svg5"
   inkscape:version="1.1 (c68e22c387, 2021-05-23)"
   sodipodi:docname="tuning fork svg.svg"
   xmlns:inkscape="http://www.inkscape.org/namespaces/inkscape"
   xmlns:sodipodi="http://sodipodi.sourceforge.net/DTD/sodipodi-0.dtd"
   xmlns="http://www.w3.org/2000/svg"
   xmlns:svg="http://www.w3.org/2000/svg">
  <sodipodi:namedview
     id="namedview7"
     pagecolor="#ffffff"
     bordercolor="#666666"
     borderopacity="1.0"
     inkscape:pageshadow="2"
     inkscape:pageopacity="0.0"
     inkscape:pagecheckerboard="0"
     inkscape:document-units="mm"
     showgrid="false"
     inkscape:zoom="0.62270623"
     inkscape:cx="396.65574"
     inkscape:cy="525.93018"
     inkscape:window-width="1680"
     inkscape:window-height="956"
     inkscape:window-x="-11"
     inkscape:window-y="-11"
     inkscape:window-maximized="1"
     inkscape:current-layer="layer1" />
  <defs
     id="defs2">
    <inkscape:path-effect
       effect="bend_path"
       id="path-effect995"
       is_visible="true"
       lpeversion="1"
       bendpath="M 92.526889,109.93357 V 222.53251"
       prop_scale="1"
       scale_y_rel="false"
       vertical="false"
       hide_knot="false" />
    <inkscape:path-effect
       effect="perspective-envelope"
       up_left_point="36.327419,157.84641"
       up_right_point="148.92636,157.84641"
       down_left_point="36.327419,174.41967"
       down_right_point="148.92636,174.41967"
       id="path-effect993"
       is_visible="true"
       lpeversion="1"
       deform_type="perspective"
       horizontal_mirror="false"
       vertical_mirror="false"
       overflow_perspective="false" />
    <inkscape:path-effect
       effect="skeletal"
       id="path-effect991"
       is_visible="true"
       lpeversion="1"
       pattern="M 0,0 H 1"
       copytype="single_stretched"
       prop_scale="1"
       scale_y_rel="false"
       spacing="0"
       normal_offset="0"
       tang_offset="0"
       prop_units="false"
       vertical_pattern="false"
       hide_knot="false"
       fuse_tolerance="0" />
  </defs>
  <g
     inkscape:label="Layer 1"
     inkscape:groupmode="layer"
     id="layer1">
    <path
       id="rect1922"
       style="fill:none;stroke:#000000;stroke-width:1.33525;stroke-linecap:round;stroke-linejoin:round;stroke-dasharray:0.333812, 0.333812;stroke-opacity:0.955017;paint-order:stroke markers fill"
       d="m 43.762816,135.22364 h 7.551593 c 1.441656,0 2.602274,1.0684 2.602274,2.39552 v 36.60365 c 0,1.32712 -1.160618,2.39553 -2.602274,2.39553 h -7.551593 c -1.441665,0 -2.602281,-1.06841 -2.602281,-2.39553 v -36.60365 c 0,-1.32712 1.160616,-2.39552 2.602281,-2.39552 z M 21.184505,95.5225 h 3.497157 c 1.2005,0 2.166969,0.889683 2.166969,1.99481 v 4.9471 c 0,1.10511 -0.966469,1.9948 -2.166969,1.9948 h -3.497157 c -1.2005,0 -2.166969,-0.88969 -2.166969,-1.9948 v -4.9471 c 0,-1.105127 0.966469,-1.99481 2.166969,-1.99481 z m 53.66426,0.541825 h 4.47442 c 1.23211,0 2.22404,0.913117 2.22404,2.047345 v 5.0774 c 0,1.13423 -0.99193,2.04735 -2.22404,2.04735 h -4.47442 c -1.23212,0 -2.22405,-0.91312 -2.22405,-2.04735 v -5.0774 c 0,-1.134228 0.99193,-2.047345 2.22405,-2.047345 z m 6.33271,5.950455 A 31.107038,33.79947 0 0 1 50.659912,135.80826 31.107038,33.79947 0 0 1 18.989444,103.28684 m 53.654181,0.85386 A 23.024313,18.78143 0 0 1 50.052654,122.91882 23.024313,18.78143 0 0 1 26.611315,104.84756" />
    <g
       id="g2514">
      <path
         id="path2277"
         style="fill:none;stroke:#000000;stroke-width:1.33525;stroke-linecap:round;stroke-linejoin:round;stroke-dasharray:0.333812, 0.333812;stroke-opacity:0.955017;paint-order:stroke markers fill"
         d="m 145.73706,183.6614 h 7.5516 c 1.44165,0 2.60227,1.0684 2.60227,2.39552 v 36.60365 c 0,1.32712 -1.16062,2.39553 -2.60227,2.39553 h -7.5516 c -1.44166,0 -2.60228,-1.06841 -2.60228,-2.39553 v -36.60365 c 0,-1.32712 1.16062,-2.39552 2.60228,-2.39552 z m -22.57831,-39.70113 h 3.49716 c 1.2005,0 2.16697,0.88968 2.16697,1.99481 v 4.94709 c 0,1.10512 -0.96647,1.99481 -2.16697,1.99481 h -3.49716 c -1.2005,0 -2.16697,-0.88969 -2.16697,-1.99481 v -4.94709 c 0,-1.10513 0.96647,-1.99481 2.16697,-1.99481 z m 53.66426,0.54182 h 4.47442 c 1.23211,0 2.22404,0.91312 2.22404,2.04735 v 5.0774 c 0,1.13423 -0.99193,2.04735 -2.22404,2.04735 h -4.47442 c -1.23212,0 -2.22405,-0.91312 -2.22405,-2.04735 v -5.0774 c 0,-1.13423 0.99193,-2.04735 2.22405,-2.04735 z m 6.33271,5.95046 a 31.107038,33.79947 0 0 1 -30.52156,33.79347 31.107038,33.79947 0 0 1 -31.67047,-32.52141 m 53.65418,0.85386 a 23.024313,18.78143 0 0 1 -22.59097,18.77811 23.024313,18.78143 0 0 1 -23.44134,-18.07126" />
      <path
         style="fill:#000000;stroke:#000000;stroke-width:15.4166;stroke-linecap:round;stroke-linejoin:round;stroke-dasharray:3.85415, 3.85415;stroke-opacity:0.955017;paint-order:stroke markers fill"
         d="m 547.20827,846.17734 c -2.61048,-1.52046 -2.81031,-6.76573 -2.81031,-73.76577 0,-83.53861 -1.73965,-76.32175 17.74671,-73.62136 6.53483,0.90559 14.22761,1.37263 17.09506,1.03787 3.40065,-0.39701 5.50876,0.16064 6.06251,1.60369 0.46692,1.21679 0.84895,33.47661 0.84895,71.68849 0,65.26788 -0.17788,69.63712 -2.93676,72.13387 -2.30481,2.08583 -6.19243,2.64723 -18.0663,2.6089 -8.32125,-0.0269 -16.39418,-0.78542 -17.93986,-1.68569 z"
         id="path2353"
         transform="scale(0.26458333)" />
      <path
         style="fill:#000000;stroke:#000000;stroke-width:15.4166;stroke-linecap:round;stroke-linejoin:round;stroke-dasharray:3.85415, 3.85415;stroke-opacity:0.955017;paint-order:stroke markers fill"
         d="m 566.88047,690.42137 c -23.56048,-1.76284 -25.84763,-2.24157 -37.67345,-7.88551 -35.20241,-16.80056 -59.97034,-51.76317 -67.42683,-95.18025 l -1.03424,-6.0221 h 11.10258 11.10258 l 0.861,6.41925 c 1.43723,10.71534 9.96502,26.67618 19.16762,35.87462 34.38678,34.37121 99.63592,36.01277 135.88835,3.41873 12.79452,-11.50338 20.14919,-23.86382 23.37765,-39.28902 0.81902,-3.91328 1.14649,-4.00138 12.95852,-3.48639 14.22776,0.62032 14.11315,0.36683 8.81337,19.49173 -3.52839,12.73263 -11.54102,29.90444 -19.03903,40.80242 -8.84597,12.85718 -27.85132,29.16876 -42.13224,36.16051 -13.37453,6.548 -29.61813,11.61956 -35.82813,11.18623 -1.80173,-0.12573 -10.86371,-0.79633 -20.13775,-1.49022 z"
         id="path2392"
         transform="scale(0.26458333)" />
    </g>
    <g
       id="g2833">
      <path
         id="path2516"
         style="fill:none;stroke:#000000;stroke-width:1.33525;stroke-linecap:round;stroke-linejoin:round;stroke-dasharray:0.333812, 0.333812;stroke-opacity:0.955017;paint-order:stroke markers fill"
         d="m 46.312172,237.19789 h 7.551593 c 1.441656,0 2.602274,1.0684 2.602274,2.39552 v 36.60365 c 0,1.32712 -1.160618,2.39553 -2.602274,2.39553 h -7.551593 c -1.441665,0 -2.602281,-1.06841 -2.602281,-2.39553 v -36.60365 c 0,-1.32712 1.160616,-2.39552 2.602281,-2.39552 z M 23.733861,197.49675 h 3.497157 c 1.2005,0 2.166969,0.88968 2.166969,1.99481 v 4.9471 c 0,1.10511 -0.966469,1.9948 -2.166969,1.9948 h -3.497157 c -1.2005,0 -2.166969,-0.88969 -2.166969,-1.9948 v -4.9471 c 0,-1.10513 0.966469,-1.99481 2.166969,-1.99481 z m 53.664264,0.54182 h 4.47442 c 1.23211,0 2.22404,0.91312 2.22404,2.04735 v 5.0774 c 0,1.13423 -0.99193,2.04735 -2.22404,2.04735 h -4.47442 c -1.23212,0 -2.22405,-0.91312 -2.22405,-2.04735 v -5.0774 c 0,-1.13423 0.99193,-2.04735 2.22405,-2.04735 z m 6.33271,5.95046 A 31.107038,33.79947 0 0 1 53.209268,237.78251 31.107038,33.79947 0 0 1 21.5388,205.26109 m 53.654185,0.85386 A 23.024313,18.78143 0 0 1 52.60201,224.89307 23.024313,18.78143 0 0 1 29.160671,206.82181" />
      <path
         style="fill:#ffffff;stroke:#000000;stroke-width:4.07898;stroke-linecap:round;stroke-linejoin:round;stroke-dasharray:1.01974, 1.01974;stroke-opacity:0.955017;paint-order:stroke markers fill"
         d="m 45.357296,277.42089 c -0.690692,-0.40228 -0.743563,-1.79009 -0.743563,-19.51719 0,-22.10292 -0.460283,-20.19346 4.695483,-19.47898 1.729007,0.2396 3.764389,0.36317 4.523068,0.2746 0.899758,-0.10504 1.457526,0.0425 1.604039,0.42431 0.123542,0.32195 0.224621,8.85736 0.224621,18.96758 0,17.26878 -0.04707,18.42483 -0.77702,19.08541 -0.609815,0.5519 -1.638412,0.70043 -4.780042,0.69027 -2.201664,-0.007 -4.337627,-0.2078 -4.746586,-0.446 z"
         id="path2592" />
      <path
         style="fill:#ffffff;stroke:#000000;stroke-width:4.07898;stroke-linecap:round;stroke-linejoin:round;stroke-dasharray:1.01974, 1.01974;stroke-opacity:0.955017;paint-order:stroke markers fill"
         d="m 50.56223,236.21046 c -6.233708,-0.46641 -6.838852,-0.59308 -9.967767,-2.08637 -9.313971,-4.44515 -15.867152,-13.69567 -17.840015,-25.18311 l -0.273643,-1.59334 h 2.937558 2.937557 l 0.227807,1.69842 c 0.380267,2.8351 2.636578,7.05808 5.071432,9.49183 9.098169,9.09405 26.362004,9.52838 35.953793,0.90454 3.385216,-3.0436 5.331139,-6.31397 6.185336,-10.39522 0.216699,-1.03539 0.303345,-1.0587 3.428608,-0.92244 3.764431,0.16412 3.734105,0.0971 2.331871,5.15718 -0.933553,3.36885 -3.053559,7.91222 -5.03741,10.79564 -2.340496,3.4018 -7.368995,7.71757 -11.147488,9.56747 -3.538678,1.73249 -7.836464,3.07435 -9.479526,2.95969 -0.476705,-0.0333 -2.874357,-0.21069 -5.328113,-0.39429 z"
         id="path2631" />
      <path
         style="fill:#ffffff;stroke:#000000;stroke-width:4.07898;stroke-linecap:round;stroke-linejoin:round;stroke-dasharray:1.01974, 1.01974;stroke-opacity:0.955017;paint-order:stroke markers fill"
         d="m 22.607662,201.93025 0.124098,-3.29291 h 2.761803 2.7618 l 0.124097,3.29291 0.124095,3.29292 h -3.009992 -3.009996 z"
         id="path2670" />
      <path
         style="fill:#ffffff;stroke:#000000;stroke-width:4.07898;stroke-linecap:round;stroke-linejoin:round;stroke-dasharray:1.01974, 1.01974;stroke-opacity:0.955017;paint-order:stroke markers fill"
         d="m 76.236224,205.68347 c -0.09924,-0.0974 -0.180432,-1.46017 -0.180432,-3.02844 0,-3.55014 0.350213,-3.88864 3.848983,-3.72026 3.308252,0.15921 3.588245,0.54023 3.182327,4.33063 l -0.306698,2.8639 -3.181873,-0.1344 c -1.750031,-0.0739 -3.26307,-0.21405 -3.362307,-0.31143 z"
         id="path2709" />
    </g>
    <g
       id="g3337">
      <path
         id="path2835"
         style="fill:none;stroke:#000000;stroke-width:1.33525;stroke-linecap:round;stroke-linejoin:round;stroke-dasharray:0.333812, 0.333812;stroke-opacity:0.955017;paint-order:stroke markers fill"
         d="m 149.98599,81.687159 h 7.55159 c 1.44166,0 2.60228,1.0684 2.60228,2.39552 v 36.603651 c 0,1.32712 -1.16062,2.39553 -2.60228,2.39553 h -7.55159 c -1.44166,0 -2.60228,-1.06841 -2.60228,-2.39553 V 84.082679 c 0,-1.32712 1.16062,-2.39552 2.60228,-2.39552 z m -22.57831,-39.70114 h 3.49716 c 1.2005,0 2.16697,0.889683 2.16697,1.99481 v 4.9471 c 0,1.10511 -0.96647,1.9948 -2.16697,1.9948 h -3.49716 c -1.2005,0 -2.16697,-0.88969 -2.16697,-1.9948 v -4.9471 c 0,-1.105127 0.96647,-1.99481 2.16697,-1.99481 z m 53.66426,0.541825 h 4.47442 c 1.23211,0 2.22404,0.913117 2.22404,2.047345 v 5.0774 c 0,1.13423 -0.99193,2.04735 -2.22404,2.04735 h -4.47442 c -1.23212,0 -2.22405,-0.91312 -2.22405,-2.04735 v -5.0774 c 0,-1.134228 0.99193,-2.047345 2.22405,-2.047345 z m 6.33271,5.950455 a 31.107038,33.79947 0 0 1 -30.52156,33.79348 31.107038,33.79947 0 0 1 -31.67047,-32.52142 m 53.65418,0.85386 a 23.024313,18.78143 0 0 1 -22.59097,18.77812 23.024313,18.78143 0 0 1 -23.44134,-18.07126" />
      <path
         style="fill:#6f8a91;stroke:#000000;stroke-width:15.4166;stroke-linecap:round;stroke-linejoin:round;stroke-dasharray:3.85415, 3.85415;stroke-opacity:0.955017;paint-order:stroke markers fill"
         d="m 580.53057,305.1181 c -25.83915,-1.43592 -36.46517,-5.67382 -58.80243,-23.45175 -22.47848,-17.89031 -38.16233,-46.38034 -43.88901,-79.72522 l -1.03424,-6.0221 h 11.10258 11.10257 l 0.861,6.41924 c 1.43723,10.71535 9.96503,26.67619 19.16763,35.87462 34.38677,34.37121 99.63592,36.01278 135.88834,3.41873 12.79453,-11.50337 20.1492,-23.86381 23.37765,-39.28902 0.81903,-3.91327 1.1465,-4.00138 12.95852,-3.48638 14.22777,0.62031 14.11316,0.36683 8.81337,19.49172 -3.52839,12.73264 -11.54101,29.90445 -19.03902,40.80242 -8.84597,12.85718 -27.85132,29.16876 -42.13225,36.16052 -13.46078,6.59023 -29.71542,11.6472 -35.82812,11.14647 -1.80173,-0.14759 -11.94769,-0.75025 -22.54659,-1.33925 z"
         id="path2983"
         transform="scale(0.26458333)" />
      <path
         style="fill:#6f8a91;stroke:#000000;stroke-width:15.4166;stroke-linecap:round;stroke-linejoin:round;stroke-dasharray:3.85415, 3.85415;stroke-opacity:0.955017;paint-order:stroke markers fill"
         d="m 563.26721,460.76286 c -2.61046,-1.52046 -2.81031,-6.76462 -2.81031,-73.74248 0,-61.27927 0.3492,-72.30105 2.32575,-73.40718 1.27916,-0.71586 10.49298,-0.5711 20.47514,0.32168 l 18.14939,1.62323 0.41855,70.51401 c 0.37932,63.90671 0.1679,70.79096 -2.25626,73.46964 -2.25034,2.48659 -5.12,2.94787 -18.08338,2.90679 -8.47471,-0.0269 -16.67321,-0.78542 -18.21888,-1.68569 z"
         id="path3022"
         transform="scale(0.26458333)" />
      <path
         style="fill:#b7c4c8;stroke:#000000;stroke-width:15.4166;stroke-linecap:round;stroke-linejoin:round;stroke-dasharray:3.85415, 3.85415;stroke-opacity:0.955017;paint-order:stroke markers fill"
         d="m 680.08203,189.74916 c -0.43395,-0.43395 -0.789,-5.63864 -0.789,-11.56598 0,-13.41785 1.32364,-14.69722 14.54733,-14.06082 12.4899,0.60109 13.56095,2.05044 12.03628,16.2876 l -1.15059,10.74406 -11.92751,-0.30793 c -6.56013,-0.16936 -12.28256,-0.66298 -12.71651,-1.09693 z"
         id="path3135"
         transform="scale(0.26458333)" />
      <path
         style="fill:#b7c4c8;stroke:#000000;stroke-width:15.4166;stroke-linecap:round;stroke-linejoin:round;stroke-dasharray:3.85415, 3.85415;stroke-opacity:0.955017;paint-order:stroke markers fill"
         d="m 477.28435,175.44388 0.46902,-12.44567 h 10.43831 10.43831 l 0.46902,12.44567 0.46903,12.44568 h -11.37636 -11.37636 z"
         id="path3213"
         transform="scale(0.26458333)" />
    </g>
  </g>
</svg>
