<?xml version="1.0" encoding="UTF-8" standalone="no"?>
<!-- Created with Inkscape (http://www.inkscape.org/) -->

<svg
   width="210mm"
   height="297mm"
   viewBox="0 0 210 297"
   version="1.1"
   id="svg5"
   inkscape:version="1.1.1 (3bf5ae0d25, 2021-09-20)"
   sodipodi:docname="midi icon svg.svg"
   xmlns:inkscape="http://www.inkscape.org/namespaces/inkscape"
   xmlns:sodipodi="http://sodipodi.sourceforge.net/DTD/sodipodi-0.dtd"
   xmlns="http://www.w3.org/2000/svg"
   xmlns:svg="http://www.w3.org/2000/svg">
  <sodipodi:namedview
     id="namedview7"
     pagecolor="#ffffff"
     bordercolor="#666666"
     borderopacity="1.0"
     inkscape:pageshadow="2"
     inkscape:pageopacity="0.0"
     inkscape:pagecheckerboard="0"
     inkscape:document-units="mm"
     showgrid="false"
     inkscape:zoom="0.54115914"
     inkscape:cx="255.00817"
     inkscape:cy="575.61626"
     inkscape:window-width="1680"
     inkscape:window-height="956"
     inkscape:window-x="-11"
     inkscape:window-y="-11"
     inkscape:window-maximized="1"
     inkscape:current-layer="layer1" />
  <defs
     id="defs2" />
  <g
     inkscape:label="Layer 1"
     inkscape:groupmode="layer"
     id="layer1">
    <path
       style="fill:#ffffff;stroke:#000000;stroke-width:10.7127;stroke-linecap:round;stroke-linejoin:round;stroke-opacity:0.955017;paint-order:stroke markers fill"
       d=""
       id="path2168"
       transform="scale(0.26458333)" />
    <path
       style="fill:#00aad4;stroke:#000000;stroke-width:6.62142;stroke-linecap:round;stroke-linejoin:round;stroke-opacity:0.955017;paint-order:stroke markers fill"
       d=""
       id="path2428"
       transform="scale(0.26458333)" />
    <path
       style="fill:#000000;fill-opacity:1;stroke:#000000;stroke-width:2.17627;stroke-linecap:round;stroke-linejoin:round;stroke-opacity:0.955017;paint-order:stroke markers fill"
       d=""
       id="path31236"
       transform="scale(0.26458333)" />
    <path
       style="fill:#000000;fill-opacity:1;stroke:#000000;stroke-width:2.17627;stroke-linecap:round;stroke-linejoin:round;stroke-opacity:0.955017;paint-order:stroke markers fill"
       d=""
       id="path31275"
       transform="scale(0.26458333)" />
    <path
       style="fill:#000000;fill-opacity:1;stroke:#000000;stroke-width:1.76822;stroke-linecap:round;stroke-linejoin:round;stroke-opacity:0.955017;paint-order:stroke markers fill"
       d=""
       id="path31390"
       transform="scale(0.26458333)" />
    <path
       style="fill:#000000;fill-opacity:1;stroke:#000000;stroke-width:1.76822;stroke-linecap:round;stroke-linejoin:round;stroke-opacity:0.955017;paint-order:stroke markers fill"
       d=""
       id="path31429"
       transform="scale(0.26458333)" />
    <path
       style="fill:#000000;fill-opacity:1;stroke:#000000;stroke-width:1.76822;stroke-linecap:round;stroke-linejoin:round;stroke-opacity:0.955017;paint-order:stroke markers fill"
       d=""
       id="path31544"
       transform="scale(0.26458333)" />
    <path
       style="fill:#000000;fill-opacity:1;stroke:#000000;stroke-width:1.76822;stroke-linecap:round;stroke-linejoin:round;stroke-opacity:0.955017;paint-order:stroke markers fill"
       d=""
       id="path31622"
       transform="scale(0.26458333)" />
    <path
       id="ellipse1573"
       style="fill:none;stroke:#000000;stroke-width:1.519;stroke-linecap:round;stroke-linejoin:round;stroke-opacity:0.955017;paint-order:stroke markers fill;stroke-miterlimit:4;stroke-dasharray:none"
       d="m 35.058199,33.745633 a 3.9255753,4.4442808 0 0 1 -3.925575,4.444279 3.9255753,4.4442808 0 0 1 -3.925576,-4.444279 3.9255753,4.4442808 0 0 1 3.925576,-4.444279 3.9255753,4.4442808 0 0 1 3.925575,4.444279 z m 5.947838,-11.531109 a 3.9255753,4.4442808 0 0 1 -3.925573,4.444282 3.9255753,4.4442808 0 0 1 -3.925578,-4.444282 3.9255753,4.4442808 0 0 1 3.925578,-4.444281 3.9255753,4.4442808 0 0 1 3.925573,4.444281 z M 27.44496,23.17545 a 3.9255753,4.4442808 0 0 1 -3.925575,4.444283 3.9255753,4.4442808 0 0 1 -3.925575,-4.444283 3.9255753,4.4442808 0 0 1 3.925575,-4.44428 3.9255753,4.4442808 0 0 1 3.925575,4.44428 z M 16.314492,12.932395 A 17.224791,20.618802 0 0 0 13.194156,24.753832 17.224791,20.618802 0 0 0 30.418974,45.372689 17.224791,20.618802 0 0 0 47.64379,24.753832 17.224791,20.618802 0 0 0 44.529928,12.932395 Z M 53.615465,27.379496 A 23.791366,23.302445 0 0 1 29.8241,50.68194 23.791366,23.302445 0 0 1 6.0327337,27.379496 23.791366,23.302445 0 0 1 29.8241,4.0770497 23.791366,23.302445 0 0 1 53.615465,27.379496 Z" />
    <g
       id="g1900">
      <path
         id="path1598"
         style="fill:none;stroke:#000000;stroke-width:0.618554;stroke-linecap:round;stroke-linejoin:round;stroke-opacity:0.955017;paint-order:stroke markers fill"
         d="m 186.62329,39.123749 a 3.9255753,4.4442808 0 0 1 -3.92558,4.444279 3.9255753,4.4442808 0 0 1 -3.92557,-4.444279 3.9255753,4.4442808 0 0 1 3.92557,-4.444279 3.9255753,4.4442808 0 0 1 3.92558,4.444279 z m 5.94784,-11.531109 a 3.9255753,4.4442808 0 0 1 -3.92558,4.444282 3.9255753,4.4442808 0 0 1 -3.92557,-4.444282 3.9255753,4.4442808 0 0 1 3.92557,-4.444281 3.9255753,4.4442808 0 0 1 3.92558,4.444281 z m -13.56108,0.960926 a 3.9255753,4.4442808 0 0 1 -3.92558,4.444283 3.9255753,4.4442808 0 0 1 -3.92557,-4.444283 3.9255753,4.4442808 0 0 1 3.92557,-4.44428 3.9255753,4.4442808 0 0 1 3.92558,4.44428 z M 167.87958,18.310511 a 17.224791,20.618802 0 0 0 -3.12033,11.821437 17.224791,20.618802 0 0 0 17.22481,20.618857 17.224791,20.618802 0 0 0 17.22482,-20.618857 17.224791,20.618802 0 0 0 -3.11386,-11.821437 z m 37.30097,14.447101 A 23.791366,23.302445 0 0 1 181.38919,56.060056 23.791366,23.302445 0 0 1 157.59782,32.757612 23.791366,23.302445 0 0 1 181.38919,9.4551658 23.791366,23.302445 0 0 1 205.18055,32.757612 Z" />
      <path
         style="fill:#000000;stroke:#000000;stroke-width:8.83493;stroke-linecap:round;stroke-linejoin:round;stroke-opacity:0.955017;paint-order:stroke markers fill"
         d="m 673.36432,208.64552 c -41.88347,-5.19519 -74.94127,-42.61825 -74.94127,-84.83721 0,-63.158033 67.3477,-104.373845 125.457,-76.777861 53.44207,25.379523 65.40646,96.087141 23.22696,137.267521 -11.67926,11.4026 -31.58523,21.82146 -45.11509,23.61341 -15.67418,2.07594 -17.44415,2.12133 -28.6276,0.73414 z m 38.53115,-20.13701 c 18.02727,-8.47382 31.93871,-25.27041 38.66737,-46.68676 6.59121,-20.97886 4.31869,-51.847697 -5.16742,-70.191809 l -2.64045,-5.106072 H 687.58048 632.406 l -3.81197,9.701398 c -5.98922,15.242439 -7.68319,23.496968 -7.69428,37.493413 -0.0296,37.33551 19.65181,67.49024 50.80654,77.84298 10.10566,3.35812 29.71979,1.86804 40.18918,-3.05315 z"
         id="path1659"
         transform="scale(0.26458333)" />
      <path
         style="fill:#000000;stroke:#000000;stroke-width:8.83493;stroke-linecap:round;stroke-linejoin:round;stroke-opacity:0.955017;paint-order:stroke markers fill"
         d="m 704.17841,113.39574 c -4.31981,-5.49175 -4.81357,-10.13619 -1.70537,-16.041275 2.77767,-5.277148 5.15687,-6.745393 10.98624,-6.779791 6.45871,-0.03811 11.6509,6.125566 11.6509,13.830846 0,12.93393 -13.32714,18.65795 -20.93177,8.99022 z"
         id="path1698"
         transform="scale(0.26458333)" />
      <path
         style="fill:#000000;stroke:#000000;stroke-width:8.83493;stroke-linecap:round;stroke-linejoin:round;stroke-opacity:0.955017;paint-order:stroke markers fill"
         d="m 682.70961,158.07819 c -6.00072,-6.00073 -6.00072,-14.49401 0,-20.49473 2.49465,-2.49465 6.09166,-4.53572 7.99337,-4.53572 5.24481,0 12.10938,8.38024 12.10938,14.78308 0,6.40284 -6.86457,14.78308 -12.10938,14.78308 -1.90171,0 -5.49872,-2.04107 -7.99337,-4.53571 z"
         id="path1737"
         transform="scale(0.26458333)" />
      <path
         style="fill:#000000;stroke:#000000;stroke-width:8.83493;stroke-linecap:round;stroke-linejoin:round;stroke-opacity:0.955017;paint-order:stroke markers fill"
         d="m 653.53579,118.60538 c -8.11559,-8.96763 -3.24646,-24.397422 7.67928,-24.334935 5.98135,0.03421 8.34531,1.473102 11.13853,6.779795 3.1082,5.90508 2.61444,10.54952 -1.70537,16.04127 -4.5483,5.78223 -12.60463,6.49494 -17.11244,1.51387 z"
         id="path1776"
         transform="scale(0.26458333)" />
    </g>
    <g
       id="g2257">
      <path
         id="path1602"
         style="fill:none;stroke:#000000;stroke-width:0.618554;stroke-linecap:round;stroke-linejoin:round;stroke-opacity:0.955017;paint-order:stroke markers fill"
         d="m 35.0582,277.71654 a 3.9255753,4.4442808 0 0 1 -3.92558,4.44428 3.9255753,4.4442808 0 0 1 -3.92557,-4.44428 3.9255753,4.4442808 0 0 1 3.92557,-4.44428 3.9255753,4.4442808 0 0 1 3.92558,4.44428 z m 5.94784,-11.53111 a 3.9255753,4.4442808 0 0 1 -3.92558,4.44428 3.9255753,4.4442808 0 0 1 -3.92557,-4.44428 3.9255753,4.4442808 0 0 1 3.92557,-4.44428 3.9255753,4.4442808 0 0 1 3.92558,4.44428 z m -13.56108,0.96092 a 3.9255753,4.4442808 0 0 1 -3.92558,4.44429 3.9255753,4.4442808 0 0 1 -3.92557,-4.44429 3.9255753,4.4442808 0 0 1 3.92557,-4.44428 3.9255753,4.4442808 0 0 1 3.92558,4.44428 z M 16.31449,256.9033 a 17.224791,20.618802 0 0 0 -3.12033,11.82144 17.224791,20.618802 0 0 0 17.22481,20.61885 17.224791,20.618802 0 0 0 17.22482,-20.61885 17.224791,20.618802 0 0 0 -3.11386,-11.82144 z m 37.30097,14.4471 A 23.791366,23.302445 0 0 1 29.8241,294.65284 23.791366,23.302445 0 0 1 6.0327301,271.3504 23.791366,23.302445 0 0 1 29.8241,248.04795 23.791366,23.302445 0 0 1 53.61546,271.3504 Z" />
      <path
         style="fill:#ffffff;stroke:#000000;stroke-width:10.6089;stroke-linecap:round;stroke-linejoin:round;stroke-miterlimit:4;stroke-dasharray:none;stroke-opacity:0.955017;paint-order:stroke markers fill"
         d="m 100.0743,1110.3647 c -41.490553,-5.1235 -74.495678,-42.6888 -74.495678,-84.7884 0,-63.15801 67.347699,-104.37383 125.456998,-76.77784 53.44207,25.37952 65.40646,96.08714 23.22696,137.26754 -11.67926,11.4026 -31.58523,21.8214 -45.11509,23.6134 -15.69765,2.079 -17.45206,2.1204 -29.07319,0.6853 z m 38.97674,-20.0882 c 18.02727,-8.4738 31.93871,-25.2704 38.66737,-46.6867 6.59121,-20.9789 4.31869,-51.84774 -5.16742,-70.19185 l -2.64045,-5.10607 H 114.73605 59.561568 l -3.811975,9.7014 c -5.989216,15.24243 -7.683183,23.49692 -7.69427,37.49342 -0.02958,37.3355 19.651808,67.4902 50.806539,77.843 10.105658,3.3581 29.719788,1.868 40.189178,-3.0532 z"
         id="path1976"
         transform="scale(0.26458333)" />
      <path
         style="fill:#ffffff;stroke:#000000;stroke-width:10.6089;stroke-linecap:round;stroke-linejoin:round;stroke-miterlimit:4;stroke-dasharray:none;stroke-opacity:0.955017;paint-order:stroke markers fill"
         d="m 131.33397,1015.1637 c -4.31981,-5.4917 -4.81356,-10.1361 -1.70537,-16.04123 2.77768,-5.27714 5.15688,-6.74539 10.98625,-6.77979 6.45871,-0.0381 11.6509,6.12557 11.6509,13.83082 0,12.934 -13.32714,18.658 -20.93178,8.9902 z"
         id="path2015"
         transform="scale(0.26458333)" />
      <path
         style="fill:#ffffff;stroke:#000000;stroke-width:10.6089;stroke-linecap:round;stroke-linejoin:round;stroke-miterlimit:4;stroke-dasharray:none;stroke-opacity:0.955017;paint-order:stroke markers fill"
         d="m 80.691355,1020.3734 c -8.115585,-8.9676 -3.24646,-24.39743 7.679286,-24.33495 5.981344,0.0342 8.345305,1.47311 11.138527,6.77975 3.108202,5.9051 2.614442,10.5496 -1.705369,16.0413 -4.548301,5.7822 -12.604635,6.495 -17.112444,1.5139 z"
         id="path2054"
         transform="scale(0.26458333)" />
      <path
         style="fill:#ffffff;stroke:#000000;stroke-width:10.6089;stroke-linecap:round;stroke-linejoin:round;stroke-miterlimit:4;stroke-dasharray:none;stroke-opacity:0.955017;paint-order:stroke markers fill"
         d="m 109.86518,1059.8462 c -6.00072,-6.0007 -6.00072,-14.494 0,-20.4947 2.49464,-2.4947 6.09166,-4.5358 7.99337,-4.5358 5.24481,0 12.10938,8.3803 12.10938,14.7831 0,6.4029 -6.86457,14.7831 -12.10938,14.7831 -1.90171,0 -5.49873,-2.0411 -7.99337,-4.5357 z"
         id="path2093"
         transform="scale(0.26458333)" />
      <path
         style="fill:#ffffff;stroke:#000000;stroke-width:10.6089;stroke-linecap:round;stroke-linejoin:round;stroke-miterlimit:4;stroke-dasharray:none;stroke-opacity:0.955017;paint-order:stroke markers fill"
         d="M 92.941134,1083.7111 C 60.045843,1067.3187 45.712973,1023.378 60.416325,983.9989 l 3.449811,-9.23942 51.009574,-0.49083 51.00958,-0.49083 3.03369,7.58193 c 11.68195,29.19605 6.39749,65.66895 -12.7568,88.04645 -15.39802,17.9891 -43.20278,24.2805 -63.221046,14.3049 z m 35.103916,-17.5102 c 14.56866,-11.4597 7.14624,-36.9288 -10.76211,-36.9288 -4.5857,0 -7.39844,1.562 -11.76205,6.5319 -7.927049,9.0284 -7.927049,18.5613 0,27.5897 6.76247,7.702 14.99676,8.7283 22.52416,2.8072 z m -30.004775,-38.8315 c 4.985085,-2.6679 9.137075,-11.4828 9.137075,-19.3984 0,-13.11658 -15.852778,-22.00684 -27.82064,-15.60183 -4.515758,2.41676 -9.13707,11.26793 -9.13707,17.50013 0,5.9932 4.498651,14.9147 8.777414,17.4069 4.217155,2.4562 14.5335,2.5068 19.043221,0.093 z m 53.021005,-4.6318 c 5.97752,-4.1868 8.84624,-15.3586 6.08906,-23.71294 -2.78444,-8.43692 -8.16216,-12.25393 -17.26437,-12.25393 -9.74879,0 -17.92554,7.98471 -17.92554,17.50457 0,7.6642 4.0375,16.5444 8.77741,19.3051 4.84681,2.823 15.7344,2.3715 20.32344,-0.8428 z"
         id="path2132"
         transform="scale(0.26458333)" />
    </g>
    <g
       id="g2512">
      <path
         id="path1600"
         style="fill:none;stroke:#000000;stroke-width:0.618554;stroke-linecap:round;stroke-linejoin:round;stroke-opacity:0.955017;paint-order:stroke markers fill"
         d="m 185.64545,273.80518 a 3.9255753,4.4442808 0 0 1 -3.92558,4.44428 3.9255753,4.4442808 0 0 1 -3.92557,-4.44428 3.9255753,4.4442808 0 0 1 3.92557,-4.44428 3.9255753,4.4442808 0 0 1 3.92558,4.44428 z m 5.94784,-11.53111 a 3.9255753,4.4442808 0 0 1 -3.92558,4.44428 3.9255753,4.4442808 0 0 1 -3.92557,-4.44428 3.9255753,4.4442808 0 0 1 3.92557,-4.44428 3.9255753,4.4442808 0 0 1 3.92558,4.44428 z m -13.56108,0.96092 a 3.9255753,4.4442808 0 0 1 -3.92558,4.44429 3.9255753,4.4442808 0 0 1 -3.92557,-4.44429 3.9255753,4.4442808 0 0 1 3.92557,-4.44428 3.9255753,4.4442808 0 0 1 3.92558,4.44428 z m -11.13047,-10.24305 a 17.224791,20.618802 0 0 0 -3.12033,11.82144 17.224791,20.618802 0 0 0 17.22481,20.61885 17.224791,20.618802 0 0 0 17.22482,-20.61885 17.224791,20.618802 0 0 0 -3.11386,-11.82144 z m 37.30097,14.4471 a 23.791366,23.302445 0 0 1 -23.79136,23.30244 23.791366,23.302445 0 0 1 -23.79137,-23.30244 23.791366,23.302445 0 0 1 23.79137,-23.30245 23.791366,23.302445 0 0 1 23.79136,23.30245 z" />
      <path
         style="fill:#6f7c91;stroke:#000000;stroke-width:10.6089;stroke-linecap:round;stroke-linejoin:round;stroke-miterlimit:4;stroke-dasharray:none;stroke-opacity:0.955017;paint-order:stroke markers fill"
         d="m 669.22296,1095.5817 c -41.49055,-5.1235 -74.49568,-42.6888 -74.49568,-84.7885 0,-63.158 67.3477,-104.37381 125.457,-76.77782 53.44207,25.37952 65.40646,96.08712 23.22696,137.26752 -11.67926,11.4026 -31.58523,21.8215 -45.11509,23.6134 -15.69765,2.0791 -17.45205,2.1204 -29.07319,0.6854 z m 38.97674,-20.0883 c 18.02727,-8.4738 31.93871,-25.2704 38.66737,-46.6867 6.59121,-20.9789 4.31869,-51.84772 -5.16742,-70.19183 l -2.64045,-5.10607 h -55.17449 -55.17448 l -3.81198,9.70139 c -5.98921,15.24244 -7.68318,23.49697 -7.69427,37.49341 -0.0296,37.3355 19.65181,67.4903 50.80654,77.843 10.10566,3.3581 29.71979,1.868 40.18918,-3.0532 z"
         id="path2314"
         transform="scale(0.26458333)" />
      <path
         style="fill:#53536c;stroke:#000000;stroke-width:10.6089;stroke-linecap:round;stroke-linejoin:round;stroke-miterlimit:4;stroke-dasharray:none;stroke-opacity:0.955017;paint-order:stroke markers fill"
         d="m 662.08979,1068.9281 c -32.89529,-16.3925 -47.22816,-60.3332 -32.5248,-99.71228 l 3.44981,-9.23943 51.00958,-0.49083 51.00958,-0.49082 3.03368,7.58193 c 11.68195,29.19605 6.39749,65.66893 -12.7568,88.04643 -15.39802,17.9891 -43.20278,24.2805 -63.22105,14.305 z m 35.16898,-19.4093 c 8.87536,-6.9814 8.17072,-23.8698 -1.27186,-30.4837 -6.25544,-4.3815 -15.48866,-3.4027 -20.67308,2.1913 -6.43958,6.9485 -6.4374,21.0908 0.004,27.5325 5.69136,5.6913 15.25046,6.0224 21.9407,0.7599 z m -33.03341,-37.6452 c 7.64297,-3.1934 10.25276,-7.707 10.25276,-17.73199 0,-6.0678 -1.1673,-8.82247 -5.62938,-13.28455 -4.84564,-4.84564 -6.56682,-5.47726 -12.36276,-4.5367 -8.56337,1.38964 -13.24608,6.08714 -14.64182,14.68806 -1.50028,9.24518 2.3472,17.79208 9.38963,20.85858 7.06439,3.076 5.64712,3.0753 12.99157,0.01 z m 50.68664,-3.1286 c 19.83978,-6.9162 10.64257,-40.83513 -9.6889,-35.73226 -15.03744,3.77416 -16.77314,30.13456 -2.36701,35.94816 5.28934,2.1345 5.31482,2.1341 12.05591,-0.2159 z"
         id="path2390"
         transform="scale(0.26458333)" />
    </g>
  </g>
</svg>
