<?xml version="1.0" encoding="UTF-8" standalone="no"?>
<!-- Created with Inkscape (http://www.inkscape.org/) -->

<svg
   width="210mm"
   height="297mm"
   viewBox="0 0 210 297"
   version="1.1"
   id="svg5"
   inkscape:version="1.1.2 (0a00cf5339, 2022-02-04, custom)"
   sodipodi:docname="loop record  botton icon svg.svg"
   xmlns:inkscape="http://www.inkscape.org/namespaces/inkscape"
   xmlns:sodipodi="http://sodipodi.sourceforge.net/DTD/sodipodi-0.dtd"
   xmlns="http://www.w3.org/2000/svg"
   xmlns:svg="http://www.w3.org/2000/svg">
  <sodipodi:namedview
     id="namedview7"
     pagecolor="#ffffff"
     bordercolor="#666666"
     borderopacity="1.0"
     inkscape:pageshadow="2"
     inkscape:pageopacity="0.0"
     inkscape:pagecheckerboard="0"
     inkscape:document-units="mm"
     showgrid="false"
     inkscape:zoom="0.62270623"
     inkscape:cx="525.93018"
     inkscape:cy="476.14748"
     inkscape:window-width="1680"
     inkscape:window-height="956"
     inkscape:window-x="-11"
     inkscape:window-y="-11"
     inkscape:window-maximized="1"
     inkscape:current-layer="layer5" />
  <defs
     id="defs2">
    <inkscape:path-effect
       effect="skeletal"
       id="path-effect3161"
       is_visible="true"
       lpeversion="1"
       pattern="m 182.71133,36.816874 0.27078,28.580167 24.64656,-14.536578 z m -38.1894,6.580476 v 17.728634 h 31.32522 V 43.39735 Z"
       copytype="repeated"
       prop_scale="1"
       scale_y_rel="false"
       spacing="5.8"
       normal_offset="0"
       tang_offset="1.5"
       prop_units="false"
       vertical_pattern="false"
       hide_knot="false"
       fuse_tolerance="0" />
    <inkscape:path-effect
       effect="skeletal"
       id="path-effect2910"
       is_visible="true"
       lpeversion="1"
       pattern="m 182.71133,36.816874 0.27078,28.580167 24.64656,-14.536578 z m -38.1894,6.580476 v 17.728634 h 31.32522 V 43.39735 Z"
       copytype="repeated"
       prop_scale="1"
       scale_y_rel="false"
       spacing="4.6"
       normal_offset="0.3"
       tang_offset="0"
       prop_units="false"
       vertical_pattern="false"
       hide_knot="false"
       fuse_tolerance="0" />
  </defs>
  <g
     inkscape:label="Layer 1"
     inkscape:groupmode="layer"
     id="layer1"
     style="display:inline">
    <g
       id="g4352"
       transform="matrix(0.68472143,0,0,0.66755261,17.146962,-34.783879)" />
    <path
       id="circle896"
       style="fill:none;fill-rule:evenodd;stroke:#000000;stroke-width:1.265;stroke-linecap:round;stroke-linejoin:round;paint-order:stroke markers fill"
       d="m 181.85407,173.78111 a 38.240341,38.240341 0 0 1 -38.24034,38.24034 38.240341,38.240341 0 0 1 -38.24034,-38.24034 38.240341,38.240341 0 0 1 38.24034,-38.24034 38.240341,38.240341 0 0 1 38.24034,38.24034 z m -14.41605,20.68541 c -3.46061,-2.70263 -6.90786,-5.42217 -10.34161,-8.15861 -0.008,0.57784 -0.0451,1.16373 -0.11347,1.75557 -0.32078,3.044 -1.55025,6.31518 -3.68793,9.3203 3.65636,0.30944 7.6929,-0.21378 11.69275,-1.80792 0.8224,-0.32936 1.64029,-0.69944 2.45026,-1.10934 z m 4.37917,-20.19392 -8.20929,-0.2114 c -0.10629,3.9609 -1.30441,7.95137 -3.40623,11.30205 l 6.95907,4.29472 c 2.90098,-4.6063 4.51583,-9.95789 4.65645,-15.38537 z m -41.0467,28.90259 c 1.79831,-3.9908 3.6169,-7.97269 5.45569,-11.9455 -2.83126,0.67997 -6.11987,0.69848 -9.47447,-0.17843 -0.76854,-0.20075 -1.53957,-0.44767 -2.30876,-0.73968 0.13183,0.79626 0.30743,1.60036 0.52978,2.4092 0.99291,3.58612 2.92866,7.22276 5.79776,10.45441 z m 21.09087,-1.57228 -2.55956,-7.71778 c -1.9027,0.62419 -3.88364,0.956 -5.84267,0.93945 -1.86686,0.0158 -3.75363,-0.28481 -5.57361,-0.8533 l -2.44755,7.75214 c 2.57915,0.79555 5.28176,1.2236 8.02116,1.23572 2.87464,-0.0127 5.70877,-0.48345 8.40223,-1.35623 z M 112.14723,170.8595 c 4.40389,0.29526 8.80636,0.61067 13.20727,0.9462 -1.99188,-3.02818 -3.30209,-6.97712 -3.43991,-11.36021 -3.75063,2.32673 -7.22966,5.85751 -9.76736,10.41401 z m 7.82218,19.13006 6.90065,-4.38529 c -2.14525,-3.31946 -3.39133,-7.29484 -3.55012,-11.25678 l -8.20614,0.31721 c 0.21154,5.42344 1.89279,10.75484 4.85561,15.32486 z m 15.89238,-47.98313 c 1.17594,4.20494 2.32973,8.41562 3.4613,12.63189 1.0809,-1.45843 2.45961,-2.81111 4.13604,-3.9442 1.58737,-1.08974 3.45355,-1.96517 5.51506,-2.57638 -1.55507,-1.43859 -3.39407,-2.72553 -5.51506,-3.76746 -2.2879,-1.1053 -4.85451,-1.90611 -7.59734,-2.34385 z m -15.38472,14.23154 6.76028,4.59354 c 0.61919,-0.89479 1.30598,-1.73685 2.05643,-2.51213 1.94126,-2.03111 4.36926,-3.66183 7.00069,-4.73389 l -3.10462,-7.52518 c -3.70848,1.49625 -7.08869,3.77054 -9.85729,6.66457 -1.0459,1.10091 -1.99904,2.27662 -2.85549,3.51309 z m 49.9636,0.65189 c -3.80715,2.19954 -7.62473,4.3814 -11.45262,6.54557 3.34888,1.38871 6.6598,3.9445 9.25881,7.50192 1.79089,-4.01549 2.68227,-8.86314 2.19381,-14.04749 z m -17.70432,-11.20839 -2.81574,7.63264 c 2.90106,1.05795 5.59083,2.79441 7.70387,5.00527 0.57608,0.59514 1.11464,1.22963 1.61391,1.89711 l 6.59019,-4.83041 c -0.69178,-0.92691 -1.44,-1.81609 -2.24287,-2.6612 -3.01361,-3.15014 -6.75187,-5.56598 -10.84936,-7.04341 z" />
  </g>
  <g
     inkscape:groupmode="layer"
     id="layer2"
     inkscape:label="Layer 2"
     style="display:inline">
    <g
       id="g1830"
       transform="translate(1.6995708,28.042918)">
      <circle
         style="fill:#ff0000;fill-rule:evenodd;stroke:#000000;stroke-width:3.365;stroke-linecap:round;stroke-linejoin:round;stroke-miterlimit:4;stroke-dasharray:none;paint-order:stroke markers fill"
         id="circle892"
         cx="47.163097"
         cy="19.545055"
         r="38.240341" />
      <g
         id="g4890"
         transform="matrix(0.70457542,0,0,0.60775267,-69.605817,-8.2647595)">
        <path
           id="path3276"
           d="m 201.39597,76.69333 c -5.05405,-4.04856 -10.08858,-8.12247 -15.10339,-12.22168 -0.0116,0.86562 -0.0658,1.74329 -0.16572,2.62987 -0.46848,4.55993 -2.26406,9.46019 -5.38602,13.96189 5.33992,0.46354 11.23507,-0.32025 17.07665,-2.70828 1.20107,-0.49338 2.39556,-1.04777 3.57848,-1.6618 z m 6.39555,-30.250681 -11.98924,-0.316686 c -0.15524,5.933475 -1.90503,11.911234 -4.97463,16.930577 l 10.16336,6.43354 c 4.23673,-6.90029 6.59514,-14.917012 6.80051,-23.047431 z M 147.84495,89.739 c 2.62634,-5.97826 5.2823,-11.94316 7.96776,-17.89448 -4.13491,1.01861 -8.93776,1.04634 -13.83699,-0.26729 -1.1224,-0.30072 -2.24845,-0.6706 -3.37181,-1.10804 0.19254,1.19281 0.44898,2.39736 0.77372,3.60901 1.45008,5.37203 4.27715,10.81975 8.46732,15.6608 z m 30.80212,-2.3553 -3.73811,-11.5613 c -2.77879,0.93504 -5.67185,1.43209 -8.53291,1.40731 -2.72646,0.0236 -5.48198,-0.42666 -8.13997,-1.27825 l -3.57451,11.61277 c 3.76671,1.19174 7.71373,1.83296 11.71448,1.85112 4.19826,-0.019 8.33735,-0.72421 12.27102,-2.03165 z M 120.64665,41.3298 c 6.43165,0.442291 12.86123,0.914777 19.28854,1.417409 -2.90905,-4.53624 -4.82253,-10.451795 -5.02382,-17.017702 -5.47762,3.485473 -10.55854,8.774598 -14.26472,15.600293 z m 11.42388,28.657 10.07804,-6.56921 c -3.13302,-4.972579 -4.95286,-10.927739 -5.18476,-16.862759 l -11.98464,0.475187 c 0.30894,8.124356 2.76431,16.110852 7.09136,22.956782 z m 23.21001,-71.8791728 c 1.71739,6.2990411 3.40244,12.6066748 5.05505,18.9226798 1.57858,-2.184739 3.59213,-4.211057 6.04046,-5.908453 2.31826,-1.6324307 5.04374,-2.9438367 8.05445,-3.8594267 -2.27109,-2.155019 -4.95686,-4.082875 -8.05445,-5.6436971 -3.34137,-1.65574397 -7.08976,-2.855362 -11.09551,-3.511103 z m -22.4686,21.3189708 9.87305,6.881171 c 0.90429,-1.340411 1.90732,-2.601821 3.00331,-3.763191 2.83509,-3.042632 6.38108,-5.485464 10.22413,-7.091415 L 151.37831,4.1803783 c -5.41605,2.241404 -10.35267,5.648295 -14.39607,9.9835927 -1.52748,1.649162 -2.9195,3.410385 -4.1703,5.262627 z m 72.96924,0.976553 c -5.56014,3.294915 -11.13553,6.563369 -16.72596,9.805306 4.89087,2.08031 9.7263,5.908895 13.52202,11.237951 2.61549,-6.015237 3.91731,-13.277064 3.20394,-21.043257 z M 179.92494,3.6128673 175.8127,15.046635 c 4.23685,1.584821 8.16511,4.186054 11.2511,7.497943 0.84133,0.891519 1.62788,1.841988 2.35703,2.841892 l 9.62463,-7.236006 c -1.01031,-1.38852 -2.10305,-2.720524 -3.2756,-3.986493 -4.40122,-4.7189487 -9.86075,-8.3379027 -15.84492,-10.5511037 z"
           style="fill:none;stroke:#000000;stroke-width:1.73197;stroke-linecap:round;stroke-linejoin:round;stroke-dasharray:0.432991, 0.432991;stroke-opacity:0.955017;paint-order:stroke markers fill" />
        <path
           style="fill:#00ffff;stroke:#000000;stroke-width:15.4166;stroke-linecap:round;stroke-linejoin:round;stroke-dasharray:3.85415, 3.85415;stroke-opacity:0.955017;paint-order:stroke markers fill"
           d="m 604.65126,331.53727 c -7.04818,-1.3338 -13.25572,-2.94547 -13.79455,-3.58149 -0.53882,-0.63603 1.47964,-8.87208 4.48547,-18.30233 l 5.46515,-17.14592 5.92055,1.08698 c 6.89194,1.26532 36.76794,1.44857 45.9336,0.28174 l 6.28927,-0.80065 5.3206,16.76091 c 2.92633,9.21851 5.04881,17.03271 4.71663,17.36489 -0.33219,0.33219 -4.47265,1.64774 -9.20103,2.92345 -13.21967,3.56664 -40.11178,4.25554 -55.13569,1.41242 z"
           id="path4409"
           transform="scale(0.26458333)" />
        <path
           style="fill:#00ffff;stroke:#000000;stroke-width:15.4166;stroke-linecap:round;stroke-linejoin:round;stroke-dasharray:3.85415, 3.85415;stroke-opacity:0.955017;paint-order:stroke markers fill"
           d="m 552.1297,323.42451 c -9.9667,-13.66136 -24.67621,-46.86057 -21.96408,-49.57269 0.43723,-0.43723 3.27638,-0.0117 6.30923,0.94561 3.03285,0.95732 14.33975,2.20961 25.12645,2.78285 l 19.61217,1.04227 -10.00863,22.48252 c -5.50474,12.36538 -10.75733,24.21576 -11.6724,26.33417 -1.64048,3.79775 -1.74412,3.74155 -7.40274,-4.01473 z"
           id="path4448"
           transform="scale(0.26458333)" />
        <path
           style="fill:#00ffff;stroke:#000000;stroke-width:15.4166;stroke-linecap:round;stroke-linejoin:round;stroke-dasharray:3.85415, 3.85415;stroke-opacity:0.955017;paint-order:stroke markers fill"
           d="m 493.381,244.49731 c -3.6215,-7.72836 -8.02637,-18.84083 -9.78859,-24.69439 -3.30174,-10.96737 -7.71983,-36.25653 -6.51701,-37.30343 0.37288,-0.32454 8.70757,-1.05792 18.52153,-1.62972 l 17.84356,-1.03963 2.00153,12.46065 c 2.07856,12.94025 9.36517,34.97641 13.80726,41.7559 1.40699,2.14733 2.31975,4.09636 2.02837,4.33117 -2.08636,1.68127 -30.24019,20.17102 -30.71386,20.17102 -0.32904,0 -3.56129,-6.3232 -7.18279,-14.05157 z"
           id="path4487"
           transform="scale(0.26458333)" />
        <path
           style="fill:#00ffff;stroke:#000000;stroke-width:15.4166;stroke-linecap:round;stroke-linejoin:round;stroke-dasharray:3.85415, 3.85415;stroke-opacity:0.955017;paint-order:stroke markers fill"
           d="m 491.70118,154.91841 c -14.40975,-1.11691 -26.61206,-2.44326 -27.11625,-2.94745 -2.3213,-2.3213 18.69107,-28.41076 31.12858,-38.65 4.94852,-4.07389 9.29498,-7.1094 9.65881,-6.74557 0.36384,0.36383 1.9802,7.06526 3.59192,14.89207 1.61172,7.82681 4.82376,18.87172 7.13786,24.54426 4.69533,11.50963 4.67921,11.44976 3.00303,11.15165 -0.66243,-0.11781 -12.99421,-1.12805 -27.40395,-2.24496 z"
           id="path4526"
           transform="scale(0.26458333)" />
        <path
           style="fill:#00ffff;stroke:#000000;stroke-width:15.4166;stroke-linecap:round;stroke-linejoin:round;stroke-dasharray:3.85415, 3.85415;stroke-opacity:0.955017;paint-order:stroke markers fill"
           d="m 742.30969,246.71627 c -7.29481,-4.69592 -13.62441,-8.89915 -14.06577,-9.34052 -0.44137,-0.44137 1.28524,-5.43311 3.83691,-11.09277 5.25884,-11.66424 11.44795,-34.75665 11.44795,-42.7139 0,-5.27157 0.0622,-5.31479 7.62799,-5.30346 4.1954,0.006 12.5059,0.4721 18.46778,1.03516 l 10.83978,1.02375 v 5.45611 c 0,7.13229 -4.27966,27.8102 -8.13849,39.32253 -4.43694,13.23705 -12.85538,30.24054 -14.94835,30.19253 -0.99248,-0.0228 -7.77299,-3.88351 -15.0678,-8.57943 z"
           id="path4565"
           transform="scale(0.26458333)" />
        <path
           style="fill:#00ffff;stroke:#000000;stroke-width:15.4166;stroke-linecap:round;stroke-linejoin:round;stroke-dasharray:3.85415, 3.85415;stroke-opacity:0.955017;paint-order:stroke markers fill"
           d="m 695.14451,294.28002 c 5.25744,-10.42567 11.44871,-29.35446 11.44871,-35.00257 0,-2.06294 0.70161,-4.18443 1.55914,-4.71441 0.85753,-0.52998 11.38878,7.01827 23.40278,16.77389 l 21.84363,17.7375 -6.94237,2.97506 c -11.54281,4.94652 -23.9486,8.0513 -39.1108,9.7882 -7.92136,0.90742 -14.95487,1.65579 -15.63001,1.66304 -0.67515,0.007 0.86787,-4.14207 3.42892,-9.22071 z"
           id="path4604"
           transform="scale(0.26458333)" />
        <path
           style="fill:#00ffff;stroke:#000000;stroke-width:15.4166;stroke-linecap:round;stroke-linejoin:round;stroke-dasharray:3.85415, 3.85415;stroke-opacity:0.955017;paint-order:stroke markers fill"
           d="m 754.71517,137.22056 c -4.82765,-4.90367 -13.65123,-12.25486 -19.60794,-16.33598 -5.95672,-4.08112 -10.65396,-7.58439 -10.43831,-7.78505 0.95808,-0.8915 48.11453,-27.987165 48.70801,-27.987165 1.35351,0 0.60631,23.820965 -1.03598,33.027355 -2.29255,12.85166 -6.51231,27.99661 -7.80056,27.99661 -0.57621,0 -4.99756,-4.0121 -9.82522,-8.91577 z"
           id="path4643"
           transform="scale(0.26458333)" />
        <path
           style="fill:#00ffff;stroke:#000000;stroke-width:15.4166;stroke-linecap:round;stroke-linejoin:round;stroke-dasharray:3.85415, 3.85415;stroke-opacity:0.955017;paint-order:stroke markers fill"
           d="M 708.1027,80.908657 C 698.66892,71.257575 684.04269,60.567732 675.238,56.888896 l -5.49169,-2.294576 5.81929,-16.457379 c 3.20062,-9.051556 6.31961,-17.030895 6.93109,-17.731863 1.45124,-1.663606 20.0339,8.065941 32.64171,17.090614 10.19279,7.296001 29.99627,26.851007 29.99627,29.619906 0,0.853573 -4.15525,4.659907 -9.23389,8.458523 -5.07864,3.798616 -11.44523,8.563743 -14.14798,10.589172 l -4.9141,3.682596 z"
           id="path4682"
           transform="scale(0.26458333)" />
        <path
           style="fill:#00ffff;stroke:#000000;stroke-width:15.4166;stroke-linecap:round;stroke-linejoin:round;stroke-dasharray:3.85415, 3.85415;stroke-opacity:0.955017;paint-order:stroke markers fill"
           d="m 600.19407,26.740739 c -4.0166,-15.149027 -7.06635,-27.791205 -6.77724,-28.0937285 1.07478,-1.1246098 19.60423,5.0393684 30.47287,10.137055 6.18269,2.8998515 14.77077,7.8330625 19.08463,10.9626905 l 7.84338,5.690234 -11.46199,5.772168 c -6.3041,3.174691 -16.05127,9.665365 -21.66037,14.423716 l -10.19838,8.65155 z"
           id="path4721"
           transform="scale(0.26458333)" />
        <path
           style="fill:#00ffff;stroke:#000000;stroke-width:15.4166;stroke-linecap:round;stroke-linejoin:round;stroke-dasharray:3.85415, 3.85415;stroke-opacity:0.955017;paint-order:stroke markers fill"
           d="m 523.52134,83.424977 c -7.50755,-5.27758 -13.87247,-10.611623 -14.14426,-11.85343 -0.27178,-1.241807 5.87076,-8.739213 13.6501,-16.6609 12.74662,-12.979851 27.6581,-24.199946 41.68595,-31.36644 l 5.05917,-2.584614 6.59063,16.418923 c 3.62485,9.030408 6.58745,16.886114 6.58355,17.457125 -0.004,0.57101 -5.25372,4.308296 -11.6663,8.305078 -6.41257,3.996782 -16.59754,12.382079 -22.63325,18.633995 -6.03572,6.251916 -11.08686,11.339837 -11.22476,11.306491 -0.1379,-0.03335 -6.39328,-4.378649 -13.90083,-9.656228 z"
           id="path4760"
           transform="scale(0.26458333)" />
      </g>
    </g>
  </g>
  <g
     inkscape:groupmode="layer"
     id="layer3"
     inkscape:label="Layer 3"
     style="display:inline">
    <path
       id="circle898"
       style="fill:none;fill-rule:evenodd;stroke:#000000;stroke-width:1.265;stroke-linecap:round;stroke-linejoin:round;paint-order:stroke markers fill"
       d="M 192.0515,62.459221 A 38.240341,38.240341 0 0 1 153.81116,100.69957 38.240341,38.240341 0 0 1 115.57083,62.459221 38.240341,38.240341 0 0 1 153.81116,24.21888 38.240341,38.240341 0 0 1 192.0515,62.459221 Z m -13.619,20.839526 c -3.60738,-2.64606 -7.20081,-5.30869 -10.78017,-7.98786 -0.009,0.56575 -0.047,1.13938 -0.11828,1.71884 -0.33439,2.98027 -1.61599,6.183 -3.84432,9.12522 3.81141,0.30297 8.01912,-0.20931 12.1886,-1.77008 0.85727,-0.32246 1.70984,-0.6848 2.55417,-1.08612 z m 4.56485,-19.771283 -8.5574,-0.206974 c -0.1108,3.878012 -1.35973,7.784956 -3.55068,11.065507 l 7.25418,4.20484 c 3.02399,-4.5099 4.70732,-9.749476 4.8539,-15.063373 z m -42.78732,28.297683 c 1.87457,-3.90727 3.77028,-7.80582 5.68705,-11.69549 -2.95133,0.66574 -6.3794,0.68386 -9.87626,-0.1747 -0.80112,-0.19654 -1.60485,-0.43829 -2.40665,-0.72419 0.13742,0.7796 0.32046,1.56687 0.55225,2.35878 1.035,3.51106 3.05285,7.07159 6.04361,10.2356 z m 21.98525,-1.53938 -2.6681,-7.55624 c -1.98339,0.61112 -4.04834,0.93598 -6.09043,0.91979 -1.94603,0.0154 -3.91281,-0.27886 -5.80997,-0.83544 l -2.55134,7.58989 c 2.68852,0.77889 5.50575,1.19799 8.36131,1.20985 2.99654,-0.0124 5.95085,-0.47333 8.75853,-1.32785 z M 120.79703,60.185806 c 4.59064,0.289069 9.17981,0.597885 13.76735,0.926392 -2.07635,-2.964801 -3.44212,-6.831097 -3.58579,-11.122452 -3.90969,2.278038 -7.53624,5.734913 -10.18156,10.19606 z m 8.15389,18.729681 7.19328,-4.29351 c -2.23622,-3.249986 -3.53514,-7.142171 -3.70067,-11.021191 l -8.55413,0.310576 c 0.22051,5.309927 1.97305,10.529745 5.06152,15.004125 z M 145.51724,31.93661 c 1.2258,4.116935 2.42853,8.239479 3.60808,12.367507 1.12672,-1.42791 2.56391,-2.752272 4.31143,-3.861657 1.65468,-1.06693 3.60001,-1.924035 5.74893,-2.522452 -1.62101,-1.408473 -3.538,-2.66849 -5.74893,-3.688611 -2.38493,-1.082167 -5.06038,-1.866216 -7.91951,-2.294787 z m -16.03714,13.933671 7.04697,4.497404 c 0.64544,-0.876064 1.36136,-1.700496 2.14363,-2.459545 2.02357,-1.988611 4.55455,-3.585202 7.29756,-4.634825 l -3.23627,-7.367669 c -3.86574,1.464937 -7.3893,3.691608 -10.2753,6.525086 -1.09025,1.077858 -2.08382,2.228964 -2.97659,3.439549 z m 52.08237,0.638259 c -3.96859,2.153497 -7.94807,4.289696 -11.93829,6.408568 3.4909,1.359648 6.94223,3.861941 9.65145,7.344916 1.86683,-3.931449 2.79601,-8.677649 2.28684,-13.753484 z m -18.45509,-10.97381 -2.93515,7.472893 c 3.02409,1.035807 5.82792,2.735927 8.03057,4.900517 0.6005,0.582676 1.16191,1.203892 1.68234,1.857406 l 6.86966,-4.729323 c -0.72112,-0.907508 -1.50107,-1.77808 -2.33798,-2.605491 -3.14142,-3.084218 -7.03819,-5.449501 -11.30944,-6.896002 z" />
  </g>
  <g
     inkscape:groupmode="layer"
     id="layer4"
     inkscape:label="Layer 4"
     style="display:inline">
    <path
       style="display:inline;fill:#000000;fill-rule:evenodd;stroke:#000000;stroke-width:1.17873;stroke-linecap:round;stroke-linejoin:round;stroke-miterlimit:4;stroke-dasharray:none;paint-order:stroke markers fill"
       d="m 41.921469,177.63219 c -12.51675,-1.6198 -24.1148,-10.24566 -29.37527,-21.84739 -2.46797,-5.44297 -3.13533,-8.74351 -3.13533,-15.50622 0,-6.76272 0.66736,-10.06326 3.13533,-15.50624 6.64384,-14.65269 22.69654,-23.83985 38.23736,-21.88372 15.85925,1.99621 27.97618,12.43114 32.42009,27.91974 1.36971,4.77393 1.36971,14.16649 0,18.94043 -3.11546,10.85847 -9.95112,19.24965 -19.63648,24.10498 -4.00729,2.00888 -6.91597,2.92673 -11.47401,3.62069 -4.39847,0.66966 -6.02132,0.69483 -10.17169,0.15773 z M 37.996479,165.972 c 1.67721,-3.62913 3.04947,-6.74292 3.04947,-6.91953 0,-0.17661 -1.88581,-0.24536 -4.19069,-0.15278 -3.01995,0.12129 -4.84841,-0.0229 -6.54501,-0.5161 -1.29487,-0.37643 -2.58833,-0.68442 -2.87434,-0.68442 -0.78115,0 -0.183,2.99063 1.30947,6.54716 1.32588,3.15953 4.86866,8.32408 5.71016,8.32408 0.27031,0 1.86373,-2.96928 3.54094,-6.59841 z m 17.19674,5.58077 c 1.3545,-0.31871 2.58573,-0.70249 2.73607,-0.85283 0.15035,-0.15034 -0.3773,-2.28652 -1.17255,-4.74706 l -1.44592,-4.47371 -1.71505,0.34068 c -1.86314,0.37011 -8.05333,0.43961 -10.3964,0.11674 l -1.45817,-0.20094 -1.39482,4.441 c -0.76715,2.44255 -1.30908,4.52674 -1.20429,4.63153 1.25581,1.25581 11.79976,1.74493 16.05113,0.74459 z m 12.62097,-5.84807 c 2.73231,-0.53125 7.64807,-2.41305 7.64807,-2.92774 0,-0.51154 -11.51907,-9.32672 -12.18751,-9.32672 -0.3526,0 -0.55927,0.53301 -0.55927,1.44237 0,2.10966 -1.47709,6.54045 -2.95901,8.87604 -0.70946,1.11814 -1.28992,2.10793 -1.28992,2.19952 0,0.70884 5.08391,0.56555 9.34764,-0.26347 z m -41.54733,-9.35109 c 5.02945,-3.13727 4.86361,-2.90308 3.6032,-5.08794 -1.36672,-2.36915 -2.39662,-5.47193 -2.76645,-8.33447 -0.16036,-1.24117 -0.43497,-2.25017 -0.61024,-2.24221 -0.17526,0.008 -2.42188,0.0145 -4.99249,0.0145 h -4.67381 l 0.003,1.80578 c 0.004,2.31722 1.37064,7.99397 2.58316,10.72854 0.98792,2.22804 2.81138,5.31116 3.14118,5.31116 0.10618,0 1.77679,-0.98791 3.71248,-2.19535 z m 50.4006,-1.73491 c 1.91712,-3.90797 2.86266,-7.19957 3.29545,-11.47211 l 0.29052,-2.86801 h -5.0616 -5.0616 l -0.50661,3.18408 c -0.29017,1.82374 -1.1526,4.58225 -2.01864,6.45666 -1.15178,2.49289 -1.3829,3.34969 -0.97007,3.59625 0.29807,0.17803 2.07155,1.2722 3.94108,2.4315 1.86953,1.1593 3.618,2.12339 3.8855,2.14241 0.26749,0.019 1.26018,-1.54283 2.20597,-3.47078 z m -47.72616,-16.04744 c 0.14706,-0.23795 -0.13211,-1.07903 -0.62037,-1.86906 -1.27919,-2.06977 -2.48622,-5.81875 -2.81822,-8.75325 -0.15815,-1.39789 -0.43302,-2.54162 -0.61082,-2.54162 -0.71972,0 -5.43303,3.81452 -7.34717,5.94612 -2.26063,2.51746 -4.3656,5.8437 -3.95681,6.25249 0.14477,0.14478 3.37063,0.49309 7.16857,0.77404 3.79794,0.28094 7.13307,0.53626 7.41139,0.56736 0.27832,0.0311 0.62636,-0.13813 0.77343,-0.37608 z m 48.17497,-3.49762 c 1.53077,-4.65374 2.23244,-12.29488 1.22182,-13.3055 -0.29917,-0.29917 -13.49815,7.04032 -13.49815,7.50585 0,0.20238 0.96578,0.85735 2.14617,1.4555 1.1804,0.59815 3.52262,2.41171 5.20494,4.03014 1.68232,1.61842 3.28217,2.94867 3.55524,2.95609 0.27306,0.007 0.88955,-1.18151 1.36998,-2.64208 z M 33.624519,124.2145 c 1.65422,-1.61641 3.93645,-3.35025 5.17333,-3.93025 1.2173,-0.57082 2.2211,-1.26314 2.23068,-1.53849 0.01,-0.27534 -0.77656,-2.34416 -1.74698,-4.59738 -2.05974,-4.78251 -1.94117,-4.75152 -6.9459,-1.81576 -3.18302,1.86716 -9.56009,7.85396 -9.56009,8.97503 0,0.54499 6.82075,5.68593 7.66227,5.77521 0.12465,0.0132 1.55867,-1.27754 3.18669,-2.86836 z m 35.96444,-0.34729 c 1.8652,-1.31444 3.48959,-2.64607 3.60973,-2.95916 0.59678,-1.55518 -5.35684,-6.89723 -10.63864,-9.54582 -1.83816,-0.92176 -3.5809,-1.67593 -3.87276,-1.67593 -0.48779,0 -3.61988,7.5111 -3.61988,8.68088 0,0.28078 1.17244,1.07089 2.60541,1.75579 1.43298,0.6849 3.7752,2.3368 5.20494,3.6709 1.42974,1.33409 2.76161,2.43409 2.95972,2.44443 0.19811,0.0104 1.88627,-1.05664 3.75148,-2.37109 z m -23.1794,-5.69508 c 2.04635,-1.93536 6.79755,-4.66062 8.12673,-4.66146 1.30319,-7.9e-4 0.30004,-1.3425 -2.36549,-3.16377 -4.38059,-2.99313 -13.39055,-5.79299 -12.72243,-3.95351 0.1061,0.29211 1.01981,3.54254 2.03048,7.22317 1.01066,3.68063 2.02524,6.69206 2.25463,6.69206 0.22938,0 1.43362,-0.96142 2.67608,-2.13649 z"
       id="path1285" />
  </g>
  <g
     inkscape:groupmode="layer"
     id="layer5"
     inkscape:label="Layer 5">
    <g
       id="g1815"
       style="display:inline">
      <circle
         style="fill:#ff0000;fill-rule:evenodd;stroke:#000000;stroke-width:3.365;stroke-linecap:round;stroke-linejoin:round;stroke-miterlimit:4;stroke-dasharray:none;paint-order:stroke markers fill"
         id="circle1780"
         cx="111.32189"
         cy="256.63519"
         r="38.240341" />
      <g
         id="g5183"
         transform="translate(-64.158796,213.72103)">
        <path
           id="path4583"
           d="m 200.26801,61.034769 c -3.60739,-2.646057 -7.20081,-5.308689 -10.78017,-7.987859 -0.009,0.565753 -0.047,1.139381 -0.11828,1.718839 -0.3344,2.980276 -1.616,6.183002 -3.84433,9.125224 3.81141,0.302967 8.01913,-0.209312 12.18861,-1.770077 0.85727,-0.322466 1.70984,-0.684802 2.55417,-1.086127 z m 4.56485,-19.771279 -8.5574,-0.206974 c -0.11081,3.878012 -1.35974,7.784956 -3.55068,11.065504 l 7.25418,4.204842 c 3.02398,-4.509899 4.70732,-9.749475 4.8539,-15.063372 z m -42.78732,28.297683 c 1.87456,-3.907274 3.77028,-7.805821 5.68704,-11.695494 -2.95132,0.665743 -6.37939,0.683867 -9.87625,-0.174695 -0.80112,-0.196542 -1.60485,-0.438289 -2.40665,-0.724195 0.13742,0.779603 0.32046,1.56687 0.55224,2.358785 1.03501,3.511056 3.05285,7.071588 6.04362,10.235599 z m 21.98524,-1.539377 -2.6681,-7.556245 c -1.98338,0.611123 -4.04834,0.935982 -6.09043,0.919792 -1.94602,0.0154 -3.9128,-0.278856 -5.80997,-0.835442 l -2.55134,7.58989 c 2.68852,0.778897 5.50575,1.197989 8.36131,1.209852 2.99654,-0.01238 5.95085,-0.473327 8.75853,-1.327847 z M 142.63254,37.921832 c 4.59064,0.289069 9.1798,0.597885 13.76734,0.926392 -2.07635,-2.964801 -3.44211,-6.831097 -3.58578,-11.122452 -3.9097,2.278038 -7.53625,5.734913 -10.18156,10.19606 z m 8.15388,18.729678 7.19329,-4.29351 c -2.23622,-3.249983 -3.53515,-7.142168 -3.70067,-11.021188 l -8.55413,0.310576 c 0.22051,5.309927 1.97304,10.529747 5.06151,15.004122 z M 167.35274,9.6726352 c 1.22581,4.1169348 2.42853,8.2394798 3.60808,12.3675078 1.12672,-1.42791 2.56392,-2.752272 4.31143,-3.861657 1.65469,-1.06693 3.60001,-1.924035 5.74893,-2.522452 -1.621,-1.408474 -3.53799,-2.668491 -5.74893,-3.688612 -2.38493,-1.082167 -5.06037,-1.866216 -7.91951,-2.2947868 z m -16.03713,13.9336718 7.04697,4.497404 c 0.64544,-0.876064 1.36136,-1.700496 2.14363,-2.459545 2.02356,-1.988611 4.55454,-3.585202 7.29755,-4.634825 l -3.23627,-7.36767 c -3.86573,1.464937 -7.38929,3.691609 -10.2753,6.525087 -1.09024,1.077858 -2.08381,2.228964 -2.97658,3.439549 z m 52.08237,0.638259 c -3.96859,2.153497 -7.94807,4.289696 -11.93829,6.408568 3.4909,1.359648 6.94223,3.861941 9.65145,7.344916 1.86683,-3.931449 2.79601,-8.677649 2.28684,-13.753484 z m -18.45509,-10.973811 -2.93516,7.472894 c 3.02409,1.035807 5.82792,2.735927 8.03057,4.900517 0.60051,0.582676 1.16192,1.203892 1.68235,1.857406 l 6.86966,-4.729323 c -0.72112,-0.907508 -1.50107,-1.77808 -2.33798,-2.605491 -3.14142,-3.084218 -7.03819,-5.449502 -11.30944,-6.896003 z"
           style="fill:none;stroke:#000000;stroke-width:1.18295;stroke-linecap:round;stroke-linejoin:round;stroke-dasharray:0.295736, 0.295736;stroke-opacity:0.955017;paint-order:stroke markers fill" />
        <path
           style="fill:#6f917c;fill-opacity:1;stroke:#000000;stroke-width:15.4166;stroke-linecap:round;stroke-linejoin:round;stroke-dasharray:1.54166, 1.54166;stroke-opacity:0.955017;paint-order:stroke markers fill"
           d="m 750.97604,129.25637 c -4.2948,-3.79354 -10.25667,-8.21566 -13.24862,-9.82692 -2.99195,-1.61127 -5.43918,-3.30724 -5.4383,-3.76882 8.9e-4,-0.46158 7.58873,-4.92455 16.86189,-9.91772 l 16.86028,-9.078486 v 7.958526 c 0,8.2974 -4.27172,29.76008 -6.14679,30.88373 -0.59386,0.35587 -4.59366,-2.45677 -8.88846,-6.25031 z"
           id="path4622"
           transform="scale(0.26458333)" />
        <path
           style="fill:#6f917c;fill-opacity:1;stroke:#000000;stroke-width:15.4166;stroke-linecap:round;stroke-linejoin:round;stroke-dasharray:1.54166, 1.54166;stroke-opacity:0.955017;paint-order:stroke markers fill"
           d="m 717.148,92.098534 c -4.35215,-3.9715 -11.57868,-9.06166 -16.05894,-11.311464 -4.48027,-2.249804 -8.3254,-4.243302 -8.54475,-4.429997 -0.40668,-0.346142 7.52876,-20.51417 8.45535,-21.489399 0.93621,-0.985339 15.03375,5.869152 22.80338,11.087431 7.96881,5.352051 21.33163,17.428548 21.33163,19.278219 0,0.953797 -4.26728,4.017272 -16.05894,11.528688 -3.90435,2.487114 -4.2323,2.358893 -11.92773,-4.663478 z"
           id="path4661"
           transform="scale(0.26458333)" />
        <path
           style="fill:#6f917c;fill-opacity:1;stroke:#000000;stroke-width:15.4166;stroke-linecap:round;stroke-linejoin:round;stroke-dasharray:1.54166, 1.54166;stroke-opacity:0.955017;paint-order:stroke markers fill"
           d="m 642.44489,59.227909 c -2.86273,-9.740562 -4.95683,-17.953281 -4.65355,-18.250487 2.29501,-2.249113 38.30099,13.270047 38.28388,16.500972 -0.003,0.625198 -3.21672,2.457017 -7.14092,4.070708 -3.9242,1.613688 -10.31855,5.736342 -14.20968,9.16145 l -7.07478,6.227467 z"
           id="path4700"
           transform="scale(0.26458333)" />
        <path
           style="fill:#6f917c;fill-opacity:1;stroke:#000000;stroke-width:15.4166;stroke-linecap:round;stroke-linejoin:round;stroke-dasharray:1.54166, 1.54166;stroke-opacity:0.955017;paint-order:stroke markers fill"
           d="m 587.35561,95.378553 c -5.07863,-3.138715 -9.23388,-6.654787 -9.23388,-7.813494 0,-5.07239 34.39343,-31.35878 41.0302,-31.35878 1.58257,0 11.15608,20.703522 10.02558,21.681158 -0.25857,0.223609 -3.44596,1.90669 -7.08309,3.740181 -3.63712,1.83349 -10.60364,6.980882 -15.48115,11.43865 -4.87751,4.457768 -9.1282,8.085682 -9.44598,8.062032 -0.31778,-0.0236 -4.73304,-2.611033 -9.81168,-5.749747 z"
           id="path4739"
           transform="scale(0.26458333)" />
        <path
           style="fill:#6f917c;fill-opacity:1;stroke:#000000;stroke-width:15.4166;stroke-linecap:round;stroke-linejoin:round;stroke-dasharray:1.54166, 1.54166;stroke-opacity:0.955017;paint-order:stroke markers fill"
           d="m 555.22805,141.43654 -10.84947,-0.92084 7.15073,-9.09506 c 3.9329,-5.00228 10.60901,-11.73566 14.83581,-14.96305 l 7.68508,-5.868 2.60269,10.14537 c 1.43148,5.57996 3.75601,12.85532 5.16561,16.16748 l 2.56291,6.0221 -9.15194,-0.28358 c -5.03357,-0.15597 -14.03421,-0.69796 -20.00142,-1.20442 z"
           id="path4778"
           transform="scale(0.26458333)" />
        <path
           style="fill:#6f917c;fill-opacity:1;stroke:#000000;stroke-width:15.4166;stroke-linecap:round;stroke-linejoin:round;stroke-dasharray:1.54166, 1.54166;stroke-opacity:0.955017;paint-order:stroke markers fill"
           d="m 565.52152,200.14269 c -5.26855,-10.30945 -8.89956,-21.38678 -10.65228,-32.49751 l -1.04026,-6.59429 12.39762,-1.12344 c 13.9604,-1.26506 14.20687,-1.11366 15.67967,9.6316 0.52741,3.84786 3.04495,11.59673 5.59452,17.2197 l 4.6356,10.2236 -10.79202,6.49232 -10.79202,6.49232 z"
           id="path4817"
           transform="scale(0.26458333)" />
        <path
           style="fill:#6f917c;fill-opacity:1;stroke:#000000;stroke-width:15.4166;stroke-linecap:round;stroke-linejoin:round;stroke-dasharray:1.54166, 1.54166;stroke-opacity:0.955017;paint-order:stroke markers fill"
           d="m 604.07207,246.89768 c -8.37835,-12.85959 -14.3455,-28.84008 -9.69595,-25.9665 0.99075,0.61232 8.91987,1.55828 17.62029,2.10214 l 15.81893,0.98885 -7.89433,16.46041 c -4.34188,9.05322 -8.21154,16.46041 -8.59924,16.46041 -0.38771,0 -3.65007,-4.52039 -7.2497,-10.04531 z"
           id="path4856"
           transform="scale(0.26458333)" />
        <path
           style="fill:#6f917c;fill-opacity:1;stroke:#000000;stroke-width:15.4166;stroke-linecap:round;stroke-linejoin:round;stroke-dasharray:1.54166, 1.54166;stroke-opacity:0.955017;paint-order:stroke markers fill"
           d="m 642.35747,257.39126 c -6.54017,-1.17329 -6.95773,-2.84198 -3.39172,-13.55415 l 3.38873,-10.17958 h 20.80794 20.80795 l 3.83478,10.76035 3.83477,10.76036 -7.85838,1.68532 c -7.6588,1.64252 -33.38316,1.97022 -41.42407,0.5277 z"
           id="path4895"
           transform="scale(0.26458333)" />
        <path
           style="fill:#6f917c;fill-opacity:1;stroke:#000000;stroke-width:15.4166;stroke-linecap:round;stroke-linejoin:round;stroke-dasharray:1.54166, 1.54166;stroke-opacity:0.955017;paint-order:stroke markers fill"
           d="m 745.13467,203.08896 c -4.85783,-2.98727 -9.52539,-5.69223 -10.37236,-6.01103 -0.84697,-0.3188 0.37571,-4.99676 2.71707,-10.39547 2.34136,-5.39872 4.7234,-12.57491 5.29343,-15.9471 2.08337,-12.32488 1.3292,-11.75189 15.46792,-11.75189 h 12.88962 l -1.15021,8.36303 c -1.51699,11.02983 -6.48707,26.12043 -11.39372,34.59463 -2.17348,3.75378 -4.10198,6.76974 -4.28556,6.70214 -0.18358,-0.0676 -4.30836,-2.56704 -9.16619,-5.55431 z"
           id="path4934"
           transform="scale(0.26458333)" />
        <path
           style="fill:#6f917c;fill-opacity:1;stroke:#000000;stroke-width:15.4166;stroke-linecap:round;stroke-linejoin:round;stroke-dasharray:1.54166, 1.54166;stroke-opacity:0.955017;paint-order:stroke markers fill"
           d="m 710.59696,232.51922 c 2.15337,-3.8528 4.8434,-10.63195 5.97784,-15.06477 1.13444,-4.43281 2.68435,-8.30756 3.44424,-8.61053 0.75988,-0.30298 7.9864,4.39985 16.05893,10.45072 l 14.67733,11.00159 -11.24126,3.49062 c -6.18269,1.91985 -16.09924,3.99617 -22.03678,4.61405 l -10.79552,1.12342 z"
           id="path4973"
           transform="scale(0.26458333)" />
      </g>
    </g>
  </g>
</svg>
