<?xml version="1.0" encoding="UTF-8" standalone="no"?>
<!-- Created with Inkscape (http://www.inkscape.org/) -->

<svg
   width="210mm"
   height="297mm"
   viewBox="0 0 210 297"
   version="1.1"
   id="svg5"
   inkscape:version="1.1 (c68e22c387, 2021-05-23)"
   sodipodi:docname="tab tempo icon svg.svg"
   xmlns:inkscape="http://www.inkscape.org/namespaces/inkscape"
   xmlns:sodipodi="http://sodipodi.sourceforge.net/DTD/sodipodi-0.dtd"
   xmlns="http://www.w3.org/2000/svg"
   xmlns:svg="http://www.w3.org/2000/svg">
  <sodipodi:namedview
     id="namedview7"
     pagecolor="#ffffff"
     bordercolor="#666666"
     borderopacity="1.0"
     inkscape:pageshadow="2"
     inkscape:pageopacity="0.0"
     inkscape:pagecheckerboard="0"
     inkscape:document-units="mm"
     showgrid="false"
     inkscape:zoom="0.50776505"
     inkscape:cx="395.85237"
     inkscape:cy="540.60436"
     inkscape:window-width="1680"
     inkscape:window-height="956"
     inkscape:window-x="-11"
     inkscape:window-y="-11"
     inkscape:window-maximized="1"
     inkscape:current-layer="layer1" />
  <defs
     id="defs2">
    <inkscape:path-effect
       effect="spiro"
       id="path-effect987"
       is_visible="true"
       lpeversion="1" />
    <inkscape:path-effect
       effect="spiro"
       id="path-effect863"
       is_visible="true"
       lpeversion="1" />
    <inkscape:path-effect
       effect="spiro"
       id="path-effect859"
       is_visible="true"
       lpeversion="1" />
  </defs>
  <g
     inkscape:label="Layer 1"
     inkscape:groupmode="layer"
     id="layer1">
    <path
       id="rect1546"
       style="fill:none;stroke:#000000;stroke-width:1.14872;stroke-linecap:round;stroke-linejoin:round;stroke-miterlimit:4;stroke-dasharray:none;stroke-opacity:0.955017;paint-order:stroke markers fill"
       d="m 20.74271,9.9532759 1.693545,0.4481641 c 1.313714,0.347648 1.850852,1.438623 1.204343,2.446131 l -6.153182,9.589014 c -0.646507,1.007507 -2.224595,1.53873 -3.538309,1.191081 L 12.255562,23.179503 C 10.94185,22.831854 10.404713,21.740879 11.051221,20.733372 l 6.153183,-9.589014 C 17.850912,10.13685 19.428997,9.6056279 20.74271,9.9532759 Z m 8.590988,10.2345581 -2.899463,1.155285 -0.01422,-0.01717 -20.0024472,7.969957 1.723057,2.075016 19.9061892,-7.93154 9.730272,11.718311 -0.05723,0.02284 1.72306,2.07511 19.97289,-7.958217 9.804026,11.80725 2.995447,-1.193598 -11.50511,-13.856068 -2.966175,1.181764 -0.0217,-0.02612 -16.949783,6.753532 z m 42.881581,19.723227 c 3.8188,-2.304896 6.60027,-5.758154 7.7004,-9.560235 1.10013,-3.802084 0.51007,-7.922344 -1.63357,-11.406812 C 75.307569,14.108938 69.307421,10.635458 62.79517,9.9786459 56.282916,9.3218319 49.448935,11.500883 45.156035,15.602979 M 72.215279,39.911061 32.02913,59.499382 M 6.4175518,29.584718 C 5.0948738,26.182534 5.0743838,22.442892 6.3597218,19.030937 7.6450658,15.618982 10.230298,12.55049 13.655602,10.371233 19.048843,6.9399299 26.511501,5.8601779 32.993399,7.5732999 39.475301,9.2864169 44.797086,13.745016 46.783618,19.126745 M 6.4175518,29.584718 32.02913,59.499382" />
  </g>
</svg>
