<?xml version="1.0" encoding="UTF-8" standalone="no"?>
<!-- Created with Inkscape (http://www.inkscape.org/) -->

<svg
   width="210mm"
   height="297mm"
   viewBox="0 0 210 297"
   version="1.1"
   id="svg5"
   inkscape:version="1.1 (c68e22c387, 2021-05-23)"
   sodipodi:docname="tab tempo icon svg.svg"
   xmlns:inkscape="http://www.inkscape.org/namespaces/inkscape"
   xmlns:sodipodi="http://sodipodi.sourceforge.net/DTD/sodipodi-0.dtd"
   xmlns="http://www.w3.org/2000/svg"
   xmlns:svg="http://www.w3.org/2000/svg">
  <sodipodi:namedview
     id="namedview7"
     pagecolor="#ffffff"
     bordercolor="#666666"
     borderopacity="1.0"
     inkscape:pageshadow="2"
     inkscape:pageopacity="0.0"
     inkscape:pagecheckerboard="0"
     inkscape:document-units="mm"
     showgrid="false"
     inkscape:zoom="0.8359833"
     inkscape:cx="395.94092"
     inkscape:cy="361.84933"
     inkscape:window-width="1680"
     inkscape:window-height="956"
     inkscape:window-x="-11"
     inkscape:window-y="-11"
     inkscape:window-maximized="1"
     inkscape:current-layer="layer1" />
  <defs
     id="defs2">
    <inkscape:path-effect
       effect="spiro"
       id="path-effect987"
       is_visible="true"
       lpeversion="1" />
    <inkscape:path-effect
       effect="spiro"
       id="path-effect863"
       is_visible="true"
       lpeversion="1" />
    <inkscape:path-effect
       effect="spiro"
       id="path-effect859"
       is_visible="true"
       lpeversion="1" />
  </defs>
  <g
     inkscape:label="Layer 1"
     inkscape:groupmode="layer"
     id="layer1">
    <path
       id="rect1546"
       style="fill:none;stroke:#000000;stroke-width:1.14872;stroke-linecap:round;stroke-linejoin:round;stroke-miterlimit:4;stroke-dasharray:none;stroke-opacity:0.955017;paint-order:stroke markers fill"
       d="m 20.74271,9.9532759 1.693545,0.4481641 c 1.313714,0.347648 1.850852,1.438623 1.204343,2.446131 l -6.153182,9.589014 c -0.646507,1.007507 -2.224595,1.53873 -3.538309,1.191081 L 12.255562,23.179503 C 10.94185,22.831854 10.404713,21.740879 11.051221,20.733372 l 6.153183,-9.589014 C 17.850912,10.13685 19.428997,9.6056279 20.74271,9.9532759 Z m 8.590988,10.2345581 -2.899463,1.155285 -0.01422,-0.01717 -20.0024472,7.969957 1.723057,2.075016 19.9061892,-7.93154 9.730272,11.718311 -0.05723,0.02284 1.72306,2.07511 19.97289,-7.958217 9.804026,11.80725 2.995447,-1.193598 -11.50511,-13.856068 -2.966175,1.181764 -0.0217,-0.02612 -16.949783,6.753532 z m 42.881581,19.723227 c 3.8188,-2.304896 6.60027,-5.758154 7.7004,-9.560235 1.10013,-3.802084 0.51007,-7.922344 -1.63357,-11.406812 C 75.307569,14.108938 69.307421,10.635458 62.79517,9.9786459 56.282916,9.3218319 49.448935,11.500883 45.156035,15.602979 M 72.215279,39.911061 32.02913,59.499382 M 6.4175518,29.584718 C 5.0948738,26.182534 5.0743838,22.442892 6.3597218,19.030937 7.6450658,15.618982 10.230298,12.55049 13.655602,10.371233 19.048843,6.9399299 26.511501,5.8601779 32.993399,7.5732999 39.475301,9.2864169 44.797086,13.745016 46.783618,19.126745 M 6.4175518,29.584718 32.02913,59.499382" />
    <g
       id="g2047">
      <path
         id="path1656"
         style="fill:none;stroke:#000000;stroke-width:1.14872;stroke-linecap:round;stroke-linejoin:round;stroke-miterlimit:4;stroke-dasharray:none;stroke-opacity:0.955017;paint-order:stroke markers fill"
         d="m 144.56801,9.9532759 1.69355,0.4481641 c 1.31372,0.347648 1.85086,1.438623 1.20435,2.446131 l -6.1532,9.589014 c -0.64652,1.007507 -2.2246,1.53873 -3.53832,1.191081 l -1.69356,-0.448163 c -1.31372,-0.347649 -1.85086,-1.438624 -1.20435,-2.446131 l 6.15321,-9.589014 c 0.64651,-1.007508 2.22461,-1.5387301 3.53832,-1.1910821 z m 8.59104,10.2345581 -2.89949,1.155285 -0.0142,-0.01717 -20.00254,7.969957 1.72307,2.075016 19.90629,-7.93154 9.73032,11.718311 -0.0572,0.02284 1.72307,2.07511 19.973,-7.958217 9.80408,11.80725 2.99547,-1.193598 -11.50518,-13.856068 -2.96619,1.181764 -0.0217,-0.02612 -16.94988,6.753532 z m 42.88182,19.723227 c 3.81882,-2.304896 6.60031,-5.758154 7.70044,-9.560235 1.10014,-3.802084 0.51008,-7.922344 -1.63358,-11.406812 -2.97455,-4.835076 -8.97474,-8.308556 -15.48702,-8.9653681 -6.51229,-0.656814 -13.34631,1.5222371 -17.63924,5.6243331 m 27.0594,24.308082 -40.18638,19.588321 m -25.6117,-29.914664 c -1.32269,-3.402184 -1.34318,-7.141826 -0.0578,-10.553781 1.28535,-3.411955 3.8706,-6.480447 7.29592,-8.659704 5.39326,-3.4313031 12.85595,-4.5110551 19.33789,-2.7979331 6.48194,1.713117 11.80375,6.1717161 13.79029,11.5534451 m -40.36627,10.457973 25.6117,29.914664" />
      <path
         style="fill:#000000;stroke:#000000;stroke-width:10.6878;stroke-linecap:round;stroke-linejoin:round;stroke-miterlimit:4;stroke-dasharray:none;stroke-opacity:0.955017;paint-order:stroke markers fill"
         d="m 547.5423,171.88197 c -23.23747,-27.09953 -42.62937,-49.89062 -43.09312,-50.64687 -0.56846,-0.92702 10.50443,-5.91447 33.98578,-15.30789 19.15593,-7.663078 34.95482,-13.772927 35.10865,-13.57744 8.17968,10.39463 41.87531,50.71274 42.61442,50.98978 0.57829,0.21676 17.50605,-6.10813 37.61725,-14.05531 20.11121,-7.94718 37.00035,-14.44941 37.53142,-14.44941 1.81204,0 33.84909,39.69223 32.81971,40.66191 -0.92257,0.86908 -59.71793,29.67548 -113.73356,55.72302 l -20.60062,9.93407 z"
         id="path1886"
         transform="scale(0.26458333)" />
      <path
         style="fill:#000000;stroke:#000000;stroke-width:10.6878;stroke-linecap:round;stroke-linejoin:round;stroke-miterlimit:4;stroke-dasharray:none;stroke-opacity:0.955017;paint-order:stroke markers fill"
         d="m 720.05545,121.11486 c -11.28989,-13.65159 -21.15942,-24.97207 -21.93229,-25.156624 -0.77288,-0.184555 -17.70727,6.140334 -37.632,14.055304 -19.92472,7.91497 -36.62485,14.39086 -37.11141,14.39086 -0.48655,0 -10.22291,-11.30405 -21.63635,-25.12012 -13.65914,-16.534494 -21.52533,-25.120119 -23.01518,-25.120119 -1.24491,0 -11.83214,3.768018 -23.52718,8.373373 -21.15483,8.330504 -25.22435,9.620187 -21.58347,6.840085 3.32362,-2.537847 27.39842,-41.036606 27.39842,-43.813659 0,-4.660706 -2.20939,-7.032631 -8.49559,-9.120571 -7.23958,-2.404604 -15.62544,-1.832458 -19.08945,1.302426 -4.50127,4.073598 -27.43998,40.945205 -27.43998,44.106943 0,6.037092 7.65547,10.161465 19.13914,10.311181 5.04158,0.06573 4.22676,0.53437 -12.85107,7.391251 -10.02868,4.02659 -18.64129,6.91374 -19.13914,6.41589 -0.49785,-0.49785 -0.90519,-6.943988 -0.90519,-14.324747 0,-13.182973 0.0824,-13.587182 4.67333,-22.927093 9.23343,-18.784689 29.00035,-33.167221 52.61239,-38.281101 13.78632,-2.98583 33.91266,-1.962797 46.78335,2.378022 18.88698,6.369898 35.5503,19.824407 43.22853,34.904122 5.56644,10.932233 10.49072,8.365616 5.14327,-2.680751 -1.45902,-3.013938 -2.17379,-5.830575 -1.58837,-6.259193 25.24132,-18.480438 53.04203,-23.29995 80.51065,-13.957268 40.45024,13.758011 57.25556,52.547275 36.38709,83.986949 -4.55109,6.85652 -15.22833,17.12591 -17.80606,17.12591 -0.87799,0 -10.83354,-11.16948 -22.12344,-24.82107 z"
         id="path1925"
         transform="scale(0.26458333)" />
    </g>
  </g>
</svg>
