<?xml version="1.0" encoding="UTF-8" standalone="no"?>
<!-- Created with Inkscape (http://www.inkscape.org/) -->

<svg
   width="210mm"
   height="297mm"
   viewBox="0 0 210 297"
   version="1.1"
   id="svg5"
   inkscape:version="1.1 (c68e22c387, 2021-05-23)"
   sodipodi:docname="tab tempo icon svg.svg"
   xmlns:inkscape="http://www.inkscape.org/namespaces/inkscape"
   xmlns:sodipodi="http://sodipodi.sourceforge.net/DTD/sodipodi-0.dtd"
   xmlns="http://www.w3.org/2000/svg"
   xmlns:svg="http://www.w3.org/2000/svg">
  <sodipodi:namedview
     id="namedview7"
     pagecolor="#ffffff"
     bordercolor="#666666"
     borderopacity="1.0"
     inkscape:pageshadow="2"
     inkscape:pageopacity="0.0"
     inkscape:pagecheckerboard="0"
     inkscape:document-units="mm"
     showgrid="false"
     inkscape:zoom="1.5540715"
     inkscape:cx="395.73468"
     inkscape:cy="358.09163"
     inkscape:window-width="1680"
     inkscape:window-height="956"
     inkscape:window-x="-11"
     inkscape:window-y="-11"
     inkscape:window-maximized="1"
     inkscape:current-layer="layer1" />
  <defs
     id="defs2">
    <inkscape:path-effect
       effect="spiro"
       id="path-effect987"
       is_visible="true"
       lpeversion="1" />
    <inkscape:path-effect
       effect="spiro"
       id="path-effect863"
       is_visible="true"
       lpeversion="1" />
    <inkscape:path-effect
       effect="spiro"
       id="path-effect859"
       is_visible="true"
       lpeversion="1" />
  </defs>
  <g
     inkscape:label="Layer 1"
     inkscape:groupmode="layer"
     id="layer1">
    <path
       id="rect1546"
       style="fill:none;stroke:#000000;stroke-width:1.14872;stroke-linecap:round;stroke-linejoin:round;stroke-miterlimit:4;stroke-dasharray:none;stroke-opacity:0.955017;paint-order:stroke markers fill"
       d="m 20.74271,9.9532759 1.693545,0.4481641 c 1.313714,0.347648 1.850852,1.438623 1.204343,2.446131 l -6.153182,9.589014 c -0.646507,1.007507 -2.224595,1.53873 -3.538309,1.191081 L 12.255562,23.179503 C 10.94185,22.831854 10.404713,21.740879 11.051221,20.733372 l 6.153183,-9.589014 C 17.850912,10.13685 19.428997,9.6056279 20.74271,9.9532759 Z m 8.590988,10.2345581 -2.899463,1.155285 -0.01422,-0.01717 -20.0024472,7.969957 1.723057,2.075016 19.9061892,-7.93154 9.730272,11.718311 -0.05723,0.02284 1.72306,2.07511 19.97289,-7.958217 9.804026,11.80725 2.995447,-1.193598 -11.50511,-13.856068 -2.966175,1.181764 -0.0217,-0.02612 -16.949783,6.753532 z m 42.881581,19.723227 c 3.8188,-2.304896 6.60027,-5.758154 7.7004,-9.560235 1.10013,-3.802084 0.51007,-7.922344 -1.63357,-11.406812 C 75.307569,14.108938 69.307421,10.635458 62.79517,9.9786459 56.282916,9.3218319 49.448935,11.500883 45.156035,15.602979 M 72.215279,39.911061 32.02913,59.499382 M 6.4175518,29.584718 C 5.0948738,26.182534 5.0743838,22.442892 6.3597218,19.030937 7.6450658,15.618982 10.230298,12.55049 13.655602,10.371233 19.048843,6.9399299 26.511501,5.8601779 32.993399,7.5732999 39.475301,9.2864169 44.797086,13.745016 46.783618,19.126745 M 6.4175518,29.584718 32.02913,59.499382" />
    <g
       id="g2047">
      <path
         id="path1656"
         style="fill:none;stroke:#000000;stroke-width:1.14872;stroke-linecap:round;stroke-linejoin:round;stroke-miterlimit:4;stroke-dasharray:none;stroke-opacity:0.955017;paint-order:stroke markers fill"
         d="m 144.56801,9.9532759 1.69355,0.4481641 c 1.31372,0.347648 1.85086,1.438623 1.20435,2.446131 l -6.1532,9.589014 c -0.64652,1.007507 -2.2246,1.53873 -3.53832,1.191081 l -1.69356,-0.448163 c -1.31372,-0.347649 -1.85086,-1.438624 -1.20435,-2.446131 l 6.15321,-9.589014 c 0.64651,-1.007508 2.22461,-1.5387301 3.53832,-1.1910821 z m 8.59104,10.2345581 -2.89949,1.155285 -0.0142,-0.01717 -20.00254,7.969957 1.72307,2.075016 19.90629,-7.93154 9.73032,11.718311 -0.0572,0.02284 1.72307,2.07511 19.973,-7.958217 9.80408,11.80725 2.99547,-1.193598 -11.50518,-13.856068 -2.96619,1.181764 -0.0217,-0.02612 -16.94988,6.753532 z m 42.88182,19.723227 c 3.81882,-2.304896 6.60031,-5.758154 7.70044,-9.560235 1.10014,-3.802084 0.51008,-7.922344 -1.63358,-11.406812 -2.97455,-4.835076 -8.97474,-8.308556 -15.48702,-8.9653681 -6.51229,-0.656814 -13.34631,1.5222371 -17.63924,5.6243331 m 27.0594,24.308082 -40.18638,19.588321 m -25.6117,-29.914664 c -1.32269,-3.402184 -1.34318,-7.141826 -0.0578,-10.553781 1.28535,-3.411955 3.8706,-6.480447 7.29592,-8.659704 5.39326,-3.4313031 12.85595,-4.5110551 19.33789,-2.7979331 6.48194,1.713117 11.80375,6.1717161 13.79029,11.5534451 m -40.36627,10.457973 25.6117,29.914664" />
      <path
         style="fill:#000000;stroke:#000000;stroke-width:10.6878;stroke-linecap:round;stroke-linejoin:round;stroke-miterlimit:4;stroke-dasharray:none;stroke-opacity:0.955017;paint-order:stroke markers fill"
         d="m 547.5423,171.88197 c -23.23747,-27.09953 -42.62937,-49.89062 -43.09312,-50.64687 -0.56846,-0.92702 10.50443,-5.91447 33.98578,-15.30789 19.15593,-7.663078 34.95482,-13.772927 35.10865,-13.57744 8.17968,10.39463 41.87531,50.71274 42.61442,50.98978 0.57829,0.21676 17.50605,-6.10813 37.61725,-14.05531 20.11121,-7.94718 37.00035,-14.44941 37.53142,-14.44941 1.81204,0 33.84909,39.69223 32.81971,40.66191 -0.92257,0.86908 -59.71793,29.67548 -113.73356,55.72302 l -20.60062,9.93407 z"
         id="path1886"
         transform="scale(0.26458333)" />
      <path
         style="fill:#000000;stroke:#000000;stroke-width:10.6878;stroke-linecap:round;stroke-linejoin:round;stroke-miterlimit:4;stroke-dasharray:none;stroke-opacity:0.955017;paint-order:stroke markers fill"
         d="m 720.05545,121.11486 c -11.28989,-13.65159 -21.15942,-24.97207 -21.93229,-25.156624 -0.77288,-0.184555 -17.70727,6.140334 -37.632,14.055304 -19.92472,7.91497 -36.62485,14.39086 -37.11141,14.39086 -0.48655,0 -10.22291,-11.30405 -21.63635,-25.12012 -13.65914,-16.534494 -21.52533,-25.120119 -23.01518,-25.120119 -1.24491,0 -11.83214,3.768018 -23.52718,8.373373 -21.15483,8.330504 -25.22435,9.620187 -21.58347,6.840085 3.32362,-2.537847 27.39842,-41.036606 27.39842,-43.813659 0,-4.660706 -2.20939,-7.032631 -8.49559,-9.120571 -7.23958,-2.404604 -15.62544,-1.832458 -19.08945,1.302426 -4.50127,4.073598 -27.43998,40.945205 -27.43998,44.106943 0,6.037092 7.65547,10.161465 19.13914,10.311181 5.04158,0.06573 4.22676,0.53437 -12.85107,7.391251 -10.02868,4.02659 -18.64129,6.91374 -19.13914,6.41589 -0.49785,-0.49785 -0.90519,-6.943988 -0.90519,-14.324747 0,-13.182973 0.0824,-13.587182 4.67333,-22.927093 9.23343,-18.784689 29.00035,-33.167221 52.61239,-38.281101 13.78632,-2.98583 33.91266,-1.962797 46.78335,2.378022 18.88698,6.369898 35.5503,19.824407 43.22853,34.904122 5.56644,10.932233 10.49072,8.365616 5.14327,-2.680751 -1.45902,-3.013938 -2.17379,-5.830575 -1.58837,-6.259193 25.24132,-18.480438 53.04203,-23.29995 80.51065,-13.957268 40.45024,13.758011 57.25556,52.547275 36.38709,83.986949 -4.55109,6.85652 -15.22833,17.12591 -17.80606,17.12591 -0.87799,0 -10.83354,-11.16948 -22.12344,-24.82107 z"
         id="path1925"
         transform="scale(0.26458333)" />
    </g>
    <path
       id="path2061"
       style="fill:none;stroke:#000000;stroke-width:1.14872;stroke-linecap:round;stroke-linejoin:round;stroke-miterlimit:4;stroke-dasharray:none;stroke-opacity:0.955017;paint-order:stroke markers fill"
       d="m 20.74271,67.632479 1.693545,0.448164 c 1.313714,0.347648 1.850852,1.438623 1.204343,2.446131 l -6.153182,9.589014 c -0.646507,1.007507 -2.224595,1.53873 -3.538309,1.191081 L 12.255562,80.858706 C 10.94185,80.511057 10.404713,79.420082 11.051221,78.412575 l 6.153183,-9.589014 c 0.646508,-1.007508 2.224593,-1.53873 3.538306,-1.191082 z m 8.590988,10.234558 -2.899463,1.155285 -0.01422,-0.01717 -20.0024472,7.969957 1.723057,2.075016 19.9061892,-7.93154 9.730272,11.718311 -0.05723,0.02284 1.72306,2.07511 19.97289,-7.958217 9.804026,11.80725 2.995447,-1.193598 -11.50511,-13.856068 -2.966175,1.181764 -0.0217,-0.02612 -16.949783,6.753532 z m 42.881581,19.723227 c 3.8188,-2.304896 6.60027,-5.758154 7.7004,-9.560235 1.10013,-3.802084 0.51007,-7.922344 -1.63357,-11.406812 -2.97454,-4.835076 -8.974688,-8.308556 -15.486939,-8.965368 -6.512254,-0.656815 -13.346235,1.522237 -17.639135,5.624333 M 72.215279,97.590264 32.02913,117.17868 M 6.4175518,87.263921 c -1.322678,-3.402184 -1.343168,-7.141826 -0.05783,-10.553781 1.285344,-3.411955 3.8705762,-6.480447 7.2958802,-8.659704 5.393241,-3.431305 12.855899,-4.511058 19.337797,-2.797935 6.481902,1.713118 11.803687,6.171718 13.790219,11.553447 M 6.4175518,87.263921 32.02913,117.17868" />
    <path
       style="fill:#ffffff;stroke:#000000;stroke-width:10.6878;stroke-linecap:round;stroke-linejoin:round;stroke-miterlimit:4;stroke-dasharray:none;stroke-opacity:0.955017;paint-order:stroke markers fill"
       d="m 252.02999,339.11027 c -11.71545,-14.13878 -21.67379,-25.69379 -22.12963,-25.67779 -0.45584,0.016 -17.49109,6.66765 -37.85611,14.78143 l -37.02731,14.75233 -20.9882,-25.48932 C 122.3057,303.23976 112.15417,291.96205 111.03267,291.92973 109.92835,291.8979 90.280827,299.35002 67.371513,308.49 l -41.653296,16.61815 -0.97447,-3.16094 c -0.535959,-1.73852 -0.990208,-7.46724 -1.009443,-12.73051 -0.07999,-21.88686 13.798095,-42.05669 36.673601,-53.29989 14.720483,-7.23505 22.501628,-8.90042 41.268765,-8.83261 14.8917,0.0538 16.96439,0.34523 26.62878,3.74408 5.76407,2.02716 13.51479,5.49722 17.22381,7.71126 9.71973,5.80202 20.83092,17.34222 25.62631,26.61575 2.24794,4.34715 4.77692,7.90591 5.61995,7.90834 3.05229,0.009 3.05538,-4.06391 0.007,-9.7799 l -3.0704,-5.75806 8.39952,-5.584 c 4.61974,-3.07119 13.03837,-7.22974 18.70805,-9.24122 9.59459,-3.40394 11.46833,-3.65954 27.05527,-3.69061 14.41635,-0.0287 17.91193,0.3553 25.12012,2.75977 13.28339,4.43101 22.09146,9.73155 31.13811,18.73839 23.02139,22.92008 22.76503,53.13586 -0.64594,76.13262 -4.59078,4.50956 -8.75412,8.1941 -9.25186,8.18787 -0.49774,-0.006 -10.49035,-11.57943 -22.20581,-25.71822 z M 65.750581,306.52526 c 4.215752,-3.86709 26.012473,-37.38813 27.081906,-41.64909 1.13069,-4.50503 -2.203915,-8.39439 -9.185106,-10.71317 -8.191188,-2.72068 -14.837066,-1.80242 -19.045018,2.63142 -1.763366,1.85803 -8.407663,11.50112 -14.765103,21.42909 -12.199578,19.05121 -13.659858,23.33825 -9.295122,27.28829 3.055766,2.76543 7.85207,4.07688 15.361159,4.20018 5.244023,0.0861 6.843732,-0.43157 9.847284,-3.18672 z"
       id="path2137"
       transform="scale(0.26458333)" />
    <path
       style="fill:#ffffff;stroke:#000000;stroke-width:10.6878;stroke-linecap:round;stroke-linejoin:round;stroke-miterlimit:4;stroke-dasharray:none;stroke-opacity:0.955017;paint-order:stroke markers fill"
       d="m 78.209733,388.42191 -43.204175,-50.4965 4.925899,-1.98238 c 2.709244,-1.0903 18.492708,-7.34794 35.074363,-13.90586 l 30.14846,-11.92349 16.44328,19.88685 c 9.0438,10.93776 18.53894,22.44371 21.10031,25.56877 2.56137,3.12507 5.40449,5.68194 6.31804,5.68194 0.91356,0 18.05096,-6.54558 38.0831,-14.54572 l 36.42208,-14.54572 2.92682,3.48091 c 21.93014,26.08181 30.57251,37.01222 29.83293,37.7311 -0.98035,0.95289 -133.52336,65.65853 -134.3533,65.58939 -0.2825,-0.0235 -19.95551,-22.76622 -43.717807,-50.53929 z"
       id="path2176"
       transform="scale(0.26458333)" />
    <path
       style="fill:#ffffff;stroke:#000000;stroke-width:10.6878;stroke-linecap:round;stroke-linejoin:round;stroke-miterlimit:4;stroke-dasharray:none;stroke-opacity:0.955017;paint-order:stroke markers fill"
       d="m 47.891656,302.50593 c -1.620673,-0.64694 -3.138518,-1.36809 -3.372987,-1.60255 -0.860241,-0.86025 5.063994,-11.20685 14.932048,-26.07865 7.134551,-10.75223 10.974923,-15.46718 13.015264,-15.97928 3.42899,-0.86062 8.43296,0.2182 12.143644,2.61807 l 2.670191,1.72693 -4.932827,8.05929 c -6.988593,11.41801 -18.430589,28.3066 -20.747141,30.62315 -2.176204,2.17621 -9.047407,2.49352 -13.708192,0.63304 z"
       id="path2215"
       transform="scale(0.26458333)" />
    <path
       style="fill:#ffffff;stroke:#000000;stroke-width:5.74929;stroke-linecap:round;stroke-linejoin:round;stroke-miterlimit:4;stroke-dasharray:none;stroke-opacity:0.955017;paint-order:stroke markers fill"
       d="m 257.33369,364.07128 c -9.14137,-11.35089 -27.15269,-33.02235 -29.43656,-35.41845 -1.26499,-1.32716 -2.85639,-2.41302 -3.53644,-2.41302 -0.68005,0 -13.72396,4.95869 -28.98647,11.01931 -32.34786,12.84508 -43.96394,17.29342 -45.15879,17.29342 -0.47363,0 -9.75576,-10.78619 -20.62694,-23.9693 -10.87119,-13.18311 -20.36987,-24.46959 -21.10818,-25.08106 -0.73831,-0.61147 -2.00918,-1.11821 -2.82416,-1.12608 -1.3142,-0.0127 -26.351573,9.66503 -62.13986,24.01897 l -12.143955,4.87069 -1.162394,-1.42169 c -0.639317,-0.78194 -0.965777,-1.62142 -0.725466,-1.86553 0.492951,-0.50075 54.96786,-22.17517 70.196671,-27.92978 l 9.916934,-3.74738 4.17892,4.47802 c 2.2984,2.46291 9.95059,11.4275 17.00487,19.92132 22.54675,27.14779 21.56969,26.06058 23.42016,26.06058 0.92511,0 16.9195,-6.04441 35.54309,-13.43201 43.18597,-17.13102 38.51351,-15.56051 40.20181,-13.51257 3.34447,4.0569 30.92782,36.74228 34.7279,41.15145 l 4.2029,4.87653 -3.00991,1.07875 c -1.65545,0.59332 -3.17931,1.07733 -3.38636,1.07558 -0.20706,-0.002 -2.52355,-2.66924 -5.14777,-5.92775 z"
       id="path2254"
       transform="scale(0.26458333)" />
  </g>
</svg>
