<?xml version="1.0" encoding="UTF-8" standalone="no"?>
<!-- Created with Inkscape (http://www.inkscape.org/) -->

<svg
   width="210mm"
   height="297mm"
   viewBox="0 0 210 297"
   version="1.1"
   id="svg5"
   inkscape:version="1.1 (c68e22c387, 2021-05-23)"
   sodipodi:docname="tab tempo icon svg.svg"
   xmlns:inkscape="http://www.inkscape.org/namespaces/inkscape"
   xmlns:sodipodi="http://sodipodi.sourceforge.net/DTD/sodipodi-0.dtd"
   xmlns="http://www.w3.org/2000/svg"
   xmlns:svg="http://www.w3.org/2000/svg">
  <sodipodi:namedview
     id="namedview7"
     pagecolor="#ffffff"
     bordercolor="#666666"
     borderopacity="1.0"
     inkscape:pageshadow="2"
     inkscape:pageopacity="0.0"
     inkscape:pagecheckerboard="0"
     inkscape:document-units="mm"
     showgrid="false"
     inkscape:zoom="0.83972969"
     inkscape:cx="277.47024"
     inkscape:cy="445.97685"
     inkscape:window-width="1680"
     inkscape:window-height="956"
     inkscape:window-x="-11"
     inkscape:window-y="-11"
     inkscape:window-maximized="1"
     inkscape:current-layer="layer1" />
  <defs
     id="defs2">
    <inkscape:path-effect
       effect="spiro"
       id="path-effect987"
       is_visible="true"
       lpeversion="1" />
    <inkscape:path-effect
       effect="spiro"
       id="path-effect863"
       is_visible="true"
       lpeversion="1" />
    <inkscape:path-effect
       effect="spiro"
       id="path-effect859"
       is_visible="true"
       lpeversion="1" />
  </defs>
  <g
     inkscape:label="Layer 1"
     inkscape:groupmode="layer"
     id="layer1">
    <path
       id="rect1546"
       style="fill:none;stroke:#000000;stroke-width:1.14872;stroke-linecap:round;stroke-linejoin:round;stroke-miterlimit:4;stroke-dasharray:none;stroke-opacity:0.955017;paint-order:stroke markers fill"
       d="m 20.74271,9.9532759 1.693545,0.4481641 c 1.313714,0.347648 1.850852,1.438623 1.204343,2.446131 l -6.153182,9.589014 c -0.646507,1.007507 -2.224595,1.53873 -3.538309,1.191081 L 12.255562,23.179503 C 10.94185,22.831854 10.404713,21.740879 11.051221,20.733372 l 6.153183,-9.589014 C 17.850912,10.13685 19.428997,9.6056279 20.74271,9.9532759 Z m 8.590988,10.2345581 -2.899463,1.155285 -0.01422,-0.01717 -20.0024472,7.969957 1.723057,2.075016 19.9061892,-7.93154 9.730272,11.718311 -0.05723,0.02284 1.72306,2.07511 19.97289,-7.958217 9.804026,11.80725 2.995447,-1.193598 -11.50511,-13.856068 -2.966175,1.181764 -0.0217,-0.02612 -16.949783,6.753532 z m 42.881581,19.723227 c 3.8188,-2.304896 6.60027,-5.758154 7.7004,-9.560235 1.10013,-3.802084 0.51007,-7.922344 -1.63357,-11.406812 C 75.307569,14.108938 69.307421,10.635458 62.79517,9.9786459 56.282916,9.3218319 49.448935,11.500883 45.156035,15.602979 M 72.215279,39.911061 32.02913,59.499382 M 6.4175518,29.584718 C 5.0948738,26.182534 5.0743838,22.442892 6.3597218,19.030937 7.6450658,15.618982 10.230298,12.55049 13.655602,10.371233 19.048843,6.9399299 26.511501,5.8601779 32.993399,7.5732999 39.475301,9.2864169 44.797086,13.745016 46.783618,19.126745 M 6.4175518,29.584718 32.02913,59.499382" />
    <g
       id="g2047">
      <path
         id="path1656"
         style="fill:none;stroke:#000000;stroke-width:1.14872;stroke-linecap:round;stroke-linejoin:round;stroke-miterlimit:4;stroke-dasharray:none;stroke-opacity:0.955017;paint-order:stroke markers fill"
         d="m 144.56801,9.9532759 1.69355,0.4481641 c 1.31372,0.347648 1.85086,1.438623 1.20435,2.446131 l -6.1532,9.589014 c -0.64652,1.007507 -2.2246,1.53873 -3.53832,1.191081 l -1.69356,-0.448163 c -1.31372,-0.347649 -1.85086,-1.438624 -1.20435,-2.446131 l 6.15321,-9.589014 c 0.64651,-1.007508 2.22461,-1.5387301 3.53832,-1.1910821 z m 8.59104,10.2345581 -2.89949,1.155285 -0.0142,-0.01717 -20.00254,7.969957 1.72307,2.075016 19.90629,-7.93154 9.73032,11.718311 -0.0572,0.02284 1.72307,2.07511 19.973,-7.958217 9.80408,11.80725 2.99547,-1.193598 -11.50518,-13.856068 -2.96619,1.181764 -0.0217,-0.02612 -16.94988,6.753532 z m 42.88182,19.723227 c 3.81882,-2.304896 6.60031,-5.758154 7.70044,-9.560235 1.10014,-3.802084 0.51008,-7.922344 -1.63358,-11.406812 -2.97455,-4.835076 -8.97474,-8.308556 -15.48702,-8.9653681 -6.51229,-0.656814 -13.34631,1.5222371 -17.63924,5.6243331 m 27.0594,24.308082 -40.18638,19.588321 m -25.6117,-29.914664 c -1.32269,-3.402184 -1.34318,-7.141826 -0.0578,-10.553781 1.28535,-3.411955 3.8706,-6.480447 7.29592,-8.659704 5.39326,-3.4313031 12.85595,-4.5110551 19.33789,-2.7979331 6.48194,1.713117 11.80375,6.1717161 13.79029,11.5534451 m -40.36627,10.457973 25.6117,29.914664" />
      <path
         style="fill:#000000;stroke:#000000;stroke-width:10.6878;stroke-linecap:round;stroke-linejoin:round;stroke-miterlimit:4;stroke-dasharray:none;stroke-opacity:0.955017;paint-order:stroke markers fill"
         d="m 547.5423,171.88197 c -23.23747,-27.09953 -42.62937,-49.89062 -43.09312,-50.64687 -0.56846,-0.92702 10.50443,-5.91447 33.98578,-15.30789 19.15593,-7.663078 34.95482,-13.772927 35.10865,-13.57744 8.17968,10.39463 41.87531,50.71274 42.61442,50.98978 0.57829,0.21676 17.50605,-6.10813 37.61725,-14.05531 20.11121,-7.94718 37.00035,-14.44941 37.53142,-14.44941 1.81204,0 33.84909,39.69223 32.81971,40.66191 -0.92257,0.86908 -59.71793,29.67548 -113.73356,55.72302 l -20.60062,9.93407 z"
         id="path1886"
         transform="scale(0.26458333)" />
      <path
         style="fill:#000000;stroke:#000000;stroke-width:10.6878;stroke-linecap:round;stroke-linejoin:round;stroke-miterlimit:4;stroke-dasharray:none;stroke-opacity:0.955017;paint-order:stroke markers fill"
         d="m 720.05545,121.11486 c -11.28989,-13.65159 -21.15942,-24.97207 -21.93229,-25.156624 -0.77288,-0.184555 -17.70727,6.140334 -37.632,14.055304 -19.92472,7.91497 -36.62485,14.39086 -37.11141,14.39086 -0.48655,0 -10.22291,-11.30405 -21.63635,-25.12012 -13.65914,-16.534494 -21.52533,-25.120119 -23.01518,-25.120119 -1.24491,0 -11.83214,3.768018 -23.52718,8.373373 -21.15483,8.330504 -25.22435,9.620187 -21.58347,6.840085 3.32362,-2.537847 27.39842,-41.036606 27.39842,-43.813659 0,-4.660706 -2.20939,-7.032631 -8.49559,-9.120571 -7.23958,-2.404604 -15.62544,-1.832458 -19.08945,1.302426 -4.50127,4.073598 -27.43998,40.945205 -27.43998,44.106943 0,6.037092 7.65547,10.161465 19.13914,10.311181 5.04158,0.06573 4.22676,0.53437 -12.85107,7.391251 -10.02868,4.02659 -18.64129,6.91374 -19.13914,6.41589 -0.49785,-0.49785 -0.90519,-6.943988 -0.90519,-14.324747 0,-13.182973 0.0824,-13.587182 4.67333,-22.927093 9.23343,-18.784689 29.00035,-33.167221 52.61239,-38.281101 13.78632,-2.98583 33.91266,-1.962797 46.78335,2.378022 18.88698,6.369898 35.5503,19.824407 43.22853,34.904122 5.56644,10.932233 10.49072,8.365616 5.14327,-2.680751 -1.45902,-3.013938 -2.17379,-5.830575 -1.58837,-6.259193 25.24132,-18.480438 53.04203,-23.29995 80.51065,-13.957268 40.45024,13.758011 57.25556,52.547275 36.38709,83.986949 -4.55109,6.85652 -15.22833,17.12591 -17.80606,17.12591 -0.87799,0 -10.83354,-11.16948 -22.12344,-24.82107 z"
         id="path1925"
         transform="scale(0.26458333)" />
    </g>
    <g
       id="g2467"
       transform="translate(0,3.7041668)">
      <path
         id="path2061"
         style="fill:none;stroke:#000000;stroke-width:1.14872;stroke-linecap:round;stroke-linejoin:round;stroke-miterlimit:4;stroke-dasharray:none;stroke-opacity:0.955017;paint-order:stroke markers fill"
         d="m 20.74271,67.632479 1.693545,0.448164 c 1.313714,0.347648 1.850852,1.438623 1.204343,2.446131 l -6.153182,9.589014 c -0.646507,1.007507 -2.224595,1.53873 -3.538309,1.191081 L 12.255562,80.858706 C 10.94185,80.511057 10.404713,79.420082 11.051221,78.412575 l 6.153183,-9.589014 c 0.646508,-1.007508 2.224593,-1.53873 3.538306,-1.191082 z m 8.590988,10.234558 -2.899463,1.155285 -0.01422,-0.01717 -20.0024472,7.969957 1.723057,2.075016 19.9061892,-7.93154 9.730272,11.718311 -0.05723,0.02284 1.72306,2.07511 19.97289,-7.958217 9.804026,11.80725 2.995447,-1.193598 -11.50511,-13.856068 -2.966175,1.181764 -0.0217,-0.02612 -16.949783,6.753532 z m 42.881581,19.723227 c 3.8188,-2.304896 6.60027,-5.758154 7.7004,-9.560235 1.10013,-3.802084 0.51007,-7.922344 -1.63357,-11.406812 -2.97454,-4.835076 -8.974688,-8.308556 -15.486939,-8.965368 -6.512254,-0.656815 -13.346235,1.522237 -17.639135,5.624333 M 72.215279,97.590264 32.02913,117.17868 M 6.4175518,87.263921 c -1.322678,-3.402184 -1.343168,-7.141826 -0.05783,-10.553781 1.285344,-3.411955 3.8705762,-6.480447 7.2958802,-8.659704 5.393241,-3.431305 12.855899,-4.511058 19.337797,-2.797935 6.481902,1.713118 11.803687,6.171718 13.790219,11.553447 M 6.4175518,87.263921 32.02913,117.17868" />
      <path
         style="fill:#ffffff;stroke:#000000;stroke-width:10.6878;stroke-linecap:round;stroke-linejoin:round;stroke-miterlimit:4;stroke-dasharray:none;stroke-opacity:0.955017;paint-order:stroke markers fill"
         d="m 252.02999,339.11027 c -11.71545,-14.13878 -21.67379,-25.69379 -22.12963,-25.67779 -0.45584,0.016 -17.49109,6.66765 -37.85611,14.78143 l -37.02731,14.75233 -20.9882,-25.48932 C 122.3057,303.23976 112.15417,291.96205 111.03267,291.92973 109.92835,291.8979 90.280827,299.35002 67.371513,308.49 l -41.653296,16.61815 -0.97447,-3.16094 c -0.535959,-1.73852 -0.990208,-7.46724 -1.009443,-12.73051 -0.07999,-21.88686 13.798095,-42.05669 36.673601,-53.29989 14.720483,-7.23505 22.501628,-8.90042 41.268765,-8.83261 14.8917,0.0538 16.96439,0.34523 26.62878,3.74408 5.76407,2.02716 13.51479,5.49722 17.22381,7.71126 9.71973,5.80202 20.83092,17.34222 25.62631,26.61575 2.24794,4.34715 4.77692,7.90591 5.61995,7.90834 3.05229,0.009 3.05538,-4.06391 0.007,-9.7799 l -3.0704,-5.75806 8.39952,-5.584 c 4.61974,-3.07119 13.03837,-7.22974 18.70805,-9.24122 9.59459,-3.40394 11.46833,-3.65954 27.05527,-3.69061 14.41635,-0.0287 17.91193,0.3553 25.12012,2.75977 13.28339,4.43101 22.09146,9.73155 31.13811,18.73839 23.02139,22.92008 22.76503,53.13586 -0.64594,76.13262 -4.59078,4.50956 -8.75412,8.1941 -9.25186,8.18787 -0.49774,-0.006 -10.49035,-11.57943 -22.20581,-25.71822 z M 65.750581,306.52526 c 4.215752,-3.86709 26.012473,-37.38813 27.081906,-41.64909 1.13069,-4.50503 -2.203915,-8.39439 -9.185106,-10.71317 -8.191188,-2.72068 -14.837066,-1.80242 -19.045018,2.63142 -1.763366,1.85803 -8.407663,11.50112 -14.765103,21.42909 -12.199578,19.05121 -13.659858,23.33825 -9.295122,27.28829 3.055766,2.76543 7.85207,4.07688 15.361159,4.20018 5.244023,0.0861 6.843732,-0.43157 9.847284,-3.18672 z"
         id="path2137"
         transform="scale(0.26458333)" />
      <path
         style="fill:#ffffff;stroke:#000000;stroke-width:10.6878;stroke-linecap:round;stroke-linejoin:round;stroke-miterlimit:4;stroke-dasharray:none;stroke-opacity:0.955017;paint-order:stroke markers fill"
         d="m 78.209733,388.42191 -43.204175,-50.4965 4.925899,-1.98238 c 2.709244,-1.0903 18.492708,-7.34794 35.074363,-13.90586 l 30.14846,-11.92349 16.44328,19.88685 c 9.0438,10.93776 18.53894,22.44371 21.10031,25.56877 2.56137,3.12507 5.40449,5.68194 6.31804,5.68194 0.91356,0 18.05096,-6.54558 38.0831,-14.54572 l 36.42208,-14.54572 2.92682,3.48091 c 21.93014,26.08181 30.57251,37.01222 29.83293,37.7311 -0.98035,0.95289 -133.52336,65.65853 -134.3533,65.58939 -0.2825,-0.0235 -19.95551,-22.76622 -43.717807,-50.53929 z"
         id="path2176"
         transform="scale(0.26458333)" />
    </g>
    <g
       id="g2820">
      <path
         id="path2485"
         style="fill:none;stroke:#000000;stroke-width:1.14872;stroke-linecap:round;stroke-linejoin:round;stroke-miterlimit:4;stroke-dasharray:none;stroke-opacity:0.955017;paint-order:stroke markers fill"
         d="m 130.80962,70.278314 1.69355,0.448164 c 1.31372,0.347648 1.85086,1.438623 1.20435,2.446131 l -6.15321,9.589014 c -0.64652,1.007507 -2.22461,1.53873 -3.53833,1.191081 l -1.69356,-0.448163 c -1.31372,-0.347649 -1.85086,-1.438624 -1.20435,-2.446131 l 6.15322,-9.589014 c 0.64651,-1.007508 2.22461,-1.53873 3.53833,-1.191082 z m 8.59104,10.234558 -2.89949,1.155285 -0.0142,-0.01717 -20.00256,7.969957 1.72307,2.075016 19.90631,-7.93154 9.73032,11.718311 -0.0572,0.02284 1.72307,2.07511 19.973,-7.958217 9.80408,11.807256 2.99547,-1.1936 -11.50518,-13.856072 -2.96619,1.181764 -0.0217,-0.02612 -16.94988,6.753532 z m 42.88182,19.723228 c 3.81882,-2.304897 6.60031,-5.758155 7.70044,-9.560236 1.10014,-3.802084 0.51008,-7.922344 -1.63358,-11.406812 -2.97455,-4.835076 -8.97474,-8.308556 -15.48702,-8.965368 -6.51229,-0.656815 -13.34631,1.522237 -17.63924,5.624333 m 27.0594,24.308083 -40.18638,19.58843 M 116.48438,89.909756 c -1.32269,-3.402184 -1.34318,-7.141826 -0.0578,-10.553781 1.28535,-3.411955 3.8706,-6.480447 7.29592,-8.659704 5.39327,-3.431305 12.85597,-4.511058 19.33791,-2.797935 6.48194,1.713118 11.80375,6.171718 13.79029,11.553447 m -40.36629,10.457973 25.61172,29.914774" />
      <path
         style="fill:#aa0044;stroke:#000000;stroke-width:9.29717;stroke-linecap:round;stroke-linejoin:round;stroke-miterlimit:4;stroke-dasharray:none;stroke-opacity:0.955017;paint-order:stroke markers fill"
         d="m 494.38801,398.67727 -43.53485,-50.75237 34.72542,-13.79915 c 19.09898,-7.58953 35.11145,-13.64499 35.58327,-13.45657 0.80346,0.32086 25.55503,29.87906 37.09796,44.30222 2.86092,3.57478 5.78411,6.50134 6.49597,6.50348 0.71187,0.002 17.73351,-6.56949 37.82587,-14.60361 26.96507,-10.78224 36.88052,-14.31789 37.86413,-13.50158 1.57997,1.31127 32.15809,38.30179 32.53051,39.35235 0.14099,0.39772 -13.6724,7.49648 -30.69643,15.77503 -17.02402,8.27854 -47.46872,23.12505 -67.65489,32.99224 l -36.70211,17.94033 z"
         id="path2542"
         transform="scale(0.26458333)" />
      <path
         style="fill:#aa0044;stroke:#000000;stroke-width:9.29717;stroke-linecap:round;stroke-linejoin:round;stroke-miterlimit:4;stroke-dasharray:none;stroke-opacity:0.955017;paint-order:stroke markers fill"
         d="m 667.93167,349.10679 c -11.63341,-14.0215 -21.58137,-25.49364 -22.10659,-25.49364 -0.52521,0 -17.56072,6.61107 -37.85668,14.69126 -30.90083,12.30218 -37.11732,14.45966 -38.22724,13.2671 -0.729,-0.78329 -10.31513,-12.31099 -21.30249,-25.61711 -10.98737,-13.30611 -20.63284,-24.19294 -21.43438,-24.19294 -0.80154,0 -20.2315,7.49201 -43.17768,16.64891 -22.94618,9.1569 -41.89193,16.64891 -42.10167,16.64891 -0.20973,0 -0.94094,-2.69244 -1.62492,-5.9832 -4.17985,-20.1102 6.19752,-43.20023 25.65598,-57.0855 14.66202,-10.4626 31.04752,-15.33158 51.40071,-15.2738 15.95106,0.0453 25.34248,2.26916 39.54116,9.36329 12.94373,6.46713 24.93104,17.90379 30.58272,29.17791 2.79015,5.56585 4.32408,7.54404 5.84984,7.54404 2.8696,0 2.67132,-3.17917 -0.60512,-9.70241 l -2.67315,-5.32213 3.45357,-2.90933 c 4.71507,-3.97203 20.81427,-11.85827 28.42693,-13.92503 3.52597,-0.95726 12.17252,-1.91608 19.86601,-2.20295 11.56949,-0.4314 14.93576,-0.1759 22.33492,1.69519 21.81008,5.5153 39.66986,18.59642 47.72244,34.95352 4.27471,8.68317 5.64986,15.91851 5.03711,26.50262 -0.59944,10.35397 -4.27348,19.68899 -11.36877,28.88581 -3.99072,5.1727 -13.66159,13.82312 -15.45379,13.82312 -0.433,0 -10.3055,-11.47213 -21.93891,-25.49364 z M 477.90911,319.07426 c 4.61356,-1.95271 5.73625,-3.38215 19.1287,-24.3551 12.71434,-19.91101 13.78913,-22.9857 9.45319,-27.04298 -1.28769,-1.20493 -5.16052,-2.97237 -8.6063,-3.92764 -6.93907,-1.92372 -12.98291,-1.07161 -16.93368,2.38743 -1.13538,0.99407 -7.58427,10.47003 -14.33087,21.0577 -13.07946,20.52602 -14.37276,24.05209 -10.28398,28.0384 2.23388,2.1779 10.79105,5.07331 15.3296,5.18694 1.59223,0.0399 4.40173,-0.56528 6.24334,-1.34475 z"
         id="path2581"
         transform="scale(0.26458333)" />
      <path
         style="fill:#ffffff;stroke:#000000;stroke-width:6.61624;stroke-linecap:round;stroke-linejoin:round;stroke-miterlimit:4;stroke-dasharray:none;stroke-opacity:0.955017;paint-order:stroke markers fill"
         d="m 466.43507,314.02148 c -2.69209,-0.72264 -5.27459,-1.54868 -5.7389,-1.83564 -1.14917,-0.71023 -1.06112,-3.05041 0.20704,-5.50277 2.78896,-5.39325 22.19714,-34.79622 24.14875,-36.58483 1.70404,-1.56172 2.96464,-2.03638 5.40814,-2.03638 3.63178,0 9.82457,1.67135 11.94923,3.22494 1.392,1.01786 1.39543,1.13331 0.11792,3.96632 -2.29056,5.07956 -22.97039,36.66309 -24.90322,38.03375 -2.80156,1.98673 -5.79282,2.18312 -11.18896,0.73461 z"
         id="path2657"
         transform="scale(0.26458333)" />
      <path
         style="fill:#ffffff;stroke:#000000;stroke-width:6.61624;stroke-linecap:round;stroke-linejoin:round;stroke-miterlimit:4;stroke-dasharray:none;stroke-opacity:0.955017;paint-order:stroke markers fill"
         d="m 659.86349,357.92595 c -16.6294,-20.13897 -18.21972,-21.84666 -19.99357,-21.46904 -1.05991,0.22565 -18.08859,6.91134 -37.84149,14.85709 l -35.91436,14.44682 -2.22151,-2.69506 c -28.09957,-34.08945 -40.79122,-49.09275 -41.52875,-49.09275 -0.50055,0 -17.51959,6.63631 -37.8201,14.74735 l -36.91002,14.74735 -1.27942,-1.60343 c -0.70368,-0.88189 -1.28543,-1.77005 -1.29279,-1.97369 -0.0175,-0.48468 79.30072,-31.86229 80.51383,-31.85058 0.51117,0.005 10.12184,11.08874 21.35706,24.63068 11.23522,13.54194 21.02467,25.05297 21.75433,25.58006 1.14629,0.82806 4.58514,-0.34374 25.29459,-8.61923 23.49263,-9.38765 48.30654,-19.07235 49.99963,-19.51452 0.74969,-0.19579 40.24327,46.4803 40.24327,47.56212 0,0.46985 -4.53451,2.21882 -5.60634,2.16236 -0.37836,-0.0199 -8.81782,-9.88191 -18.75436,-21.91553 z"
         id="path2696"
         transform="scale(0.26458333)" />
    </g>
  </g>
</svg>
