<?xml version="1.0" encoding="UTF-8" standalone="no"?>
<!-- Created with Inkscape (http://www.inkscape.org/) -->

<svg
   width="210mm"
   height="297mm"
   viewBox="0 0 210 297"
   version="1.1"
   id="svg5"
   inkscape:version="1.1.2 (0a00cf5339, 2022-02-04, custom)"
   sodipodi:docname="arp plugin icon.svg"
   xmlns:inkscape="http://www.inkscape.org/namespaces/inkscape"
   xmlns:sodipodi="http://sodipodi.sourceforge.net/DTD/sodipodi-0.dtd"
   xmlns:xlink="http://www.w3.org/1999/xlink"
   xmlns="http://www.w3.org/2000/svg"
   xmlns:svg="http://www.w3.org/2000/svg">
  <sodipodi:namedview
     id="namedview7"
     pagecolor="#ffffff"
     bordercolor="#666666"
     borderopacity="1.0"
     inkscape:pageshadow="2"
     inkscape:pageopacity="0.0"
     inkscape:pagecheckerboard="0"
     inkscape:document-units="mm"
     showgrid="false"
     inkscape:zoom="0.62270623"
     inkscape:cx="396.65574"
     inkscape:cy="580.53057"
     inkscape:window-width="1680"
     inkscape:window-height="956"
     inkscape:window-x="-11"
     inkscape:window-y="-11"
     inkscape:window-maximized="1"
     inkscape:current-layer="layer1" />
  <defs
     id="defs2">
    <linearGradient
       inkscape:collect="always"
       id="linearGradient2346">
      <stop
         style="stop-color:#800080;stop-opacity:1;"
         offset="0"
         id="stop2342" />
      <stop
         style="stop-color:#800080;stop-opacity:0.43529412;"
         offset="0.56431812"
         id="stop3246" />
      <stop
         style="stop-color:#800080;stop-opacity:0.24313725;"
         offset="0.75565612"
         id="stop3948" />
      <stop
         style="stop-color:#800080;stop-opacity:0;"
         offset="1"
         id="stop2344" />
    </linearGradient>
    <linearGradient
       inkscape:collect="always"
       xlink:href="#linearGradient2346"
       id="linearGradient2348"
       x1="167.40773"
       y1="294.87555"
       x2="164.43347"
       y2="232.41631"
       gradientUnits="userSpaceOnUse"
       gradientTransform="translate(2.1244635,-2.5493562)" />
  </defs>
  <g
     inkscape:label="Layer 1"
     inkscape:groupmode="layer"
     id="layer1">
    <path
       id="path1889"
       style="fill:none;fill-opacity:0.630189;fill-rule:evenodd;stroke:#000000;stroke-width:0.465308;stroke-linecap:round;stroke-linejoin:round;stroke-miterlimit:4;stroke-dasharray:none;paint-order:stroke markers fill"
       d="m 30.803234,32.709764 v 7.832414 c 0,0.21883 -0.364596,0.40423 -0.817479,0.4157 l -1.167819,0.0296 c -0.452883,0.0115 -0.817479,-0.15548 -0.817479,-0.37431 v -7.832402 c 0,-0.218834 0.364596,-0.404237 0.817479,-0.415699 l 1.167819,-0.02955 c 0.452883,-0.01147 0.817479,0.155476 0.817479,0.37431 z m 5.32528,-0.225094 v 7.832408 c 0,0.21883 -0.364596,0.40424 -0.817479,0.4157 l -1.167819,0.0296 c -0.452883,0.0115 -0.817482,-0.15548 -0.817482,-0.37431 v -7.832411 c 0,-0.218829 0.364599,-0.404233 0.817482,-0.415699 l 1.167819,-0.02955 c 0.452883,-0.01147 0.817479,0.155476 0.817479,0.374309 z m 4.858144,-0.303565 v 7.832418 c 0,0.218835 -0.364597,0.404235 -0.817478,0.415695 l -1.16782,0.0296 c -0.452883,0.0115 -0.817478,-0.15547 -0.817478,-0.374312 v -7.832404 c 0,-0.218834 0.364595,-0.404237 0.817478,-0.415704 l 1.16782,-0.02955 c 0.452881,-0.01147 0.817478,0.155481 0.817478,0.374315 z m 5.360104,-0.228256 v 7.832413 c 0,0.218829 -0.364597,0.404236 -0.817479,0.415706 l -1.167821,0.0296 c -0.452881,0.0115 -0.817478,-0.15548 -0.817478,-0.374313 v -7.832404 c 0,-0.218833 0.364597,-0.404237 0.817478,-0.415704 l 1.167821,-0.02955 c 0.452882,-0.01147 0.817479,0.155476 0.817479,0.37431 z m 5.325274,-0.225099 v 7.832413 c 0,0.218834 -0.364593,0.404242 -0.817478,0.415704 l -1.167818,0.02955 c -0.452883,0.01147 -0.817479,-0.155481 -0.817479,-0.374315 v -7.832398 c 0,-0.218839 0.364596,-0.404238 0.817479,-0.415704 l 1.167818,-0.02955 c 0.452885,-0.01147 0.817478,0.155481 0.817478,0.374314 z m 4.858145,-0.30356 v 7.832418 c 0,0.218829 -0.364594,0.404238 -0.817474,0.415699 l -1.167819,0.02955 c -0.45289,0.01147 -0.817479,-0.155477 -0.817479,-0.37431 v -7.832404 c 0,-0.218833 0.364589,-0.404237 0.817479,-0.415704 l 1.167819,-0.02955 c 0.45288,-0.01147 0.817474,0.155476 0.817474,0.37431 z m 22.497771,20.618328 h -8.89371 c -0.24849,0 -0.07648,0.61203 0.385664,1.37227 l 1.191712,1.96039 c 0.462146,0.76024 1.034248,1.37227 1.282733,1.37227 h 8.893711 c 0.24849,0 0.0765,-0.61203 -0.38566,-1.37227 l -1.19172,-1.96039 c -0.46214,-0.76024 -1.03424,-1.37227 -1.28273,-1.37227 z m -5.33169,-8.93938 h -8.893718 c -0.248486,0 -0.07648,0.61203 0.385669,1.37227 l 1.191712,1.96038 c 0.462146,0.76024 1.034247,1.37229 1.282733,1.37229 h 8.893714 c 0.24849,0 0.0765,-0.61205 -0.38567,-1.37229 l -1.19171,-1.96038 c -0.46215,-0.76024 -1.03424,-1.37227 -1.28273,-1.37227 z m -4.752484,-8.155219 h -8.893717 c -0.248485,0 -0.07648,0.612036 0.38567,1.372276 l 1.191712,1.960382 c 0.462146,0.760239 1.034242,1.372276 1.282732,1.372276 h 8.893717 c 0.248485,0 0.07648,-0.612037 -0.38567,-1.372276 l -1.191711,-1.960382 c -0.462146,-0.76024 -1.034243,-1.372276 -1.282733,-1.372276 z M 63.57914,25.950078 h -8.893717 c -0.248485,0 -0.07648,0.612037 0.38567,1.372277 l 1.191707,1.960382 c 0.462151,0.760239 1.034247,1.372276 1.282737,1.372276 h 8.893717 c 0.248485,0 0.07648,-0.612037 -0.38567,-1.372276 L 64.861873,27.322355 C 64.399726,26.562115 63.82763,25.950078 63.57914,25.950078 Z m -5.331693,-8.939374 h -8.893715 c -0.248485,0 -0.07648,0.612035 0.38567,1.372275 l 1.19171,1.960383 c 0.462146,0.76024 1.034247,1.372276 1.282732,1.372276 h 8.893717 c 0.24849,0 0.07648,-0.612036 -0.38567,-1.372276 l -1.191712,-1.960383 c -0.462146,-0.76024 -1.034242,-1.372275 -1.282732,-1.372275 z M 53.494965,8.8554854 H 44.60125 c -0.248485,0 -0.07648,0.612035 0.38567,1.3722746 l 1.191707,1.960383 c 0.46215,0.760241 1.034247,1.372277 1.282732,1.372277 h 8.89372 c 0.248485,0 0.07648,-0.612036 -0.38567,-1.372277 L 54.777697,10.22776 C 54.315551,9.4675204 53.74345,8.8554854 53.494965,8.8554854 Z M 7.2252643,51.023278 h 8.8937167 c 0.248486,0 0.07648,0.61204 -0.38567,1.37228 l -1.191708,1.96038 c -0.462147,0.76024 -1.034247,1.37228 -1.282733,1.37228 H 4.3651533 c -0.248487,0 -0.07648,-0.61204 0.38567,-1.37228 l 1.191709,-1.96038 c 0.462146,-0.76024 1.034246,-1.37228 1.282732,-1.37228 z m 5.3316937,-8.93938 h 8.893717 c 0.248486,0 0.07648,0.61204 -0.385669,1.37228 l -1.191709,1.96038 c -0.462147,0.76024 -1.03425,1.37228 -1.282736,1.37228 H 9.6968442 c -0.248486,0 -0.07647,-0.61204 0.3856728,-1.37228 l 1.191709,-1.96038 c 0.462147,-0.76024 1.034246,-1.37228 1.282732,-1.37228 z m 4.752482,-8.155214 h 8.893717 c 0.248486,0 0.07648,0.612037 -0.385669,1.372277 l -1.191709,1.960382 c -0.462147,0.760239 -1.034247,1.372276 -1.282733,1.372276 h -8.893717 c -0.248486,0 -0.07648,-0.612037 0.38567,-1.372276 l 1.191709,-1.960382 c 0.462146,-0.76024 1.034246,-1.372277 1.282732,-1.372277 z m 5.364638,-8.99784 h 8.893716 c 0.248487,0 0.07648,0.612037 -0.385669,1.372277 l -1.191709,1.960382 c -0.462147,0.760239 -1.034247,1.372276 -1.282733,1.372276 h -8.893716 c -0.248487,0 -0.07648,-0.612037 0.38567,-1.372276 l 1.191708,-1.960382 c 0.462147,-0.76024 1.034247,-1.372277 1.282733,-1.372277 z m 5.331691,-8.939376 h 8.893717 c 0.248486,0 0.07648,0.612035 -0.385669,1.372276 l -1.191709,1.960382 c -0.462147,0.76024 -1.034248,1.372277 -1.282734,1.372277 h -8.893717 c -0.248486,0 -0.07647,-0.612037 0.385671,-1.372277 l 1.191709,-1.960382 c 0.462148,-0.760241 1.034246,-1.372276 1.282732,-1.372276 z m 4.752484,-8.1552186 h 8.893717 c 0.248486,0 0.07648,0.612035 -0.385669,1.372276 l -1.19171,1.9603826 c -0.462147,0.76024 -1.034246,1.372275 -1.282732,1.372275 h -8.893717 c -0.248487,0 -0.07648,-0.612035 0.385669,-1.372275 l 1.19171,-1.9603826 c 0.462147,-0.760241 1.034245,-1.372276 1.282732,-1.372276 z" />
    <path
       id="path2052"
       style="fill:#000000;fill-opacity:0.96842104;fill-rule:evenodd;stroke:#000000;stroke-width:0.465308;stroke-linecap:round;stroke-linejoin:round;stroke-miterlimit:4;stroke-dasharray:none;paint-order:stroke markers fill"
       d="m 154.44701,32.709764 v 7.832414 c 0,0.21883 -0.3646,0.40423 -0.81748,0.4157 l -1.16782,0.0296 c -0.45288,0.0115 -0.81748,-0.15548 -0.81748,-0.37431 v -7.832402 c 0,-0.218834 0.3646,-0.404237 0.81748,-0.415699 l 1.16782,-0.02955 c 0.45288,-0.01147 0.81748,0.155476 0.81748,0.37431 z m 5.32528,-0.225094 v 7.832408 c 0,0.21883 -0.3646,0.40424 -0.81748,0.4157 l -1.16782,0.0296 c -0.45288,0.0115 -0.81748,-0.15548 -0.81748,-0.37431 v -7.832411 c 0,-0.218829 0.3646,-0.404233 0.81748,-0.415699 l 1.16782,-0.02955 c 0.45288,-0.01147 0.81748,0.155476 0.81748,0.374309 z m 4.85814,-0.303565 v 7.832418 c 0,0.218835 -0.36459,0.404235 -0.81747,0.415695 l -1.16782,0.0296 c -0.45289,0.0115 -0.81748,-0.15547 -0.81748,-0.374312 v -7.832404 c 0,-0.218834 0.36459,-0.404237 0.81748,-0.415704 l 1.16782,-0.02955 c 0.45288,-0.01147 0.81747,0.155481 0.81747,0.374315 z m 5.36011,-0.228256 v 7.832413 c 0,0.218829 -0.3646,0.404236 -0.81748,0.415706 l -1.16782,0.0296 c -0.45288,0.0115 -0.81748,-0.15548 -0.81748,-0.374313 v -7.832404 c 0,-0.218833 0.3646,-0.404237 0.81748,-0.415704 l 1.16782,-0.02955 c 0.45288,-0.01147 0.81748,0.155476 0.81748,0.37431 z m 5.32527,-0.225099 v 7.832413 c 0,0.218834 -0.36459,0.404242 -0.81748,0.415704 l -1.16781,0.02955 c -0.45289,0.01147 -0.81748,-0.155481 -0.81748,-0.374315 v -7.832398 c 0,-0.218839 0.36459,-0.404238 0.81748,-0.415704 l 1.16781,-0.02955 c 0.45289,-0.01147 0.81748,0.155481 0.81748,0.374314 z m 4.85815,-0.30356 v 7.832418 c 0,0.218829 -0.3646,0.404238 -0.81748,0.415699 l -1.16782,0.02955 c -0.45289,0.01147 -0.81748,-0.155477 -0.81748,-0.37431 v -7.832404 c 0,-0.218833 0.36459,-0.404237 0.81748,-0.415704 l 1.16782,-0.02955 c 0.45288,-0.01147 0.81748,0.155476 0.81748,0.37431 z m 22.49777,20.618328 h -8.89371 c -0.24849,0 -0.0765,0.61203 0.38566,1.37227 l 1.19171,1.96039 c 0.46215,0.76024 1.03425,1.37227 1.28274,1.37227 h 8.89371 c 0.24849,0 0.0765,-0.61203 -0.38566,-1.37227 l -1.19172,-1.96039 c -0.46214,-0.76024 -1.03424,-1.37227 -1.28273,-1.37227 z m -5.33169,-8.93938 h -8.89372 c -0.24849,0 -0.0765,0.61203 0.38567,1.37227 l 1.19171,1.96038 c 0.46215,0.76024 1.03425,1.37229 1.28273,1.37229 h 8.89372 c 0.24849,0 0.0765,-0.61205 -0.38567,-1.37229 l -1.19171,-1.96038 c -0.46215,-0.76024 -1.03424,-1.37227 -1.28273,-1.37227 z m -4.75249,-8.155219 h -8.89371 c -0.24849,0 -0.0765,0.612036 0.38567,1.372276 l 1.19171,1.960382 c 0.46214,0.760239 1.03424,1.372276 1.28273,1.372276 h 8.89372 c 0.24848,0 0.0765,-0.612037 -0.38567,-1.372276 l -1.19171,-1.960382 c -0.46215,-0.76024 -1.03425,-1.372276 -1.28274,-1.372276 z m -5.36463,-8.997841 h -8.89372 c -0.24849,0 -0.0765,0.612037 0.38567,1.372277 l 1.19171,1.960382 c 0.46215,0.760239 1.03424,1.372276 1.28273,1.372276 h 8.89372 c 0.24848,0 0.0765,-0.612037 -0.38567,-1.372276 l -1.19171,-1.960382 c -0.46215,-0.76024 -1.03424,-1.372277 -1.28273,-1.372277 z m -5.3317,-8.939374 h -8.89371 c -0.24849,0 -0.0765,0.612035 0.38567,1.372275 l 1.19171,1.960383 c 0.46214,0.76024 1.03424,1.372276 1.28273,1.372276 h 8.89372 c 0.24849,0 0.0765,-0.612036 -0.38567,-1.372276 l -1.19172,-1.960383 c -0.46214,-0.76024 -1.03424,-1.372275 -1.28273,-1.372275 z m -4.75248,-8.1552186 h -8.89371 c -0.24849,0 -0.0765,0.612035 0.38567,1.3722746 l 1.1917,1.960383 c 0.46215,0.760241 1.03425,1.372277 1.28273,1.372277 h 8.89372 c 0.24849,0 0.0765,-0.612036 -0.38567,-1.372277 l -1.19171,-1.960383 c -0.46214,-0.7602396 -1.03424,-1.3722746 -1.28273,-1.3722746 z m -46.2697,42.1677926 h 8.89372 c 0.24848,0 0.0765,0.61204 -0.38567,1.37228 l -1.19171,1.96038 c -0.46215,0.76024 -1.03425,1.37228 -1.28273,1.37228 h -8.89372 c -0.24849,0 -0.0765,-0.61204 0.38567,-1.37228 l 1.19171,-1.96038 c 0.46214,-0.76024 1.03424,-1.37228 1.28273,-1.37228 z m 5.33169,-8.93938 h 8.89372 c 0.24849,0 0.0765,0.61204 -0.38567,1.37228 l -1.19171,1.96038 c -0.46214,0.76024 -1.03425,1.37228 -1.28273,1.37228 h -8.89372 c -0.24849,0 -0.0765,-0.61204 0.38567,-1.37228 l 1.19171,-1.96038 c 0.46215,-0.76024 1.03425,-1.37228 1.28273,-1.37228 z m 4.75249,-8.155214 h 8.89371 c 0.24849,0 0.0765,0.612037 -0.38567,1.372277 l -1.19171,1.960382 c -0.46214,0.760239 -1.03424,1.372276 -1.28273,1.372276 h -8.89372 c -0.24848,0 -0.0765,-0.612037 0.38567,-1.372276 l 1.19171,-1.960382 c 0.46215,-0.76024 1.03425,-1.372277 1.28274,-1.372277 z m 5.36463,-8.99784 h 8.89372 c 0.24849,0 0.0765,0.612037 -0.38567,1.372277 l -1.19171,1.960382 c -0.46215,0.760239 -1.03425,1.372276 -1.28273,1.372276 h -8.89372 c -0.24848,0 -0.0765,-0.612037 0.38567,-1.372276 l 1.19171,-1.960382 c 0.46215,-0.76024 1.03425,-1.372277 1.28273,-1.372277 z m 5.33169,-8.939376 h 8.89372 c 0.24849,0 0.0765,0.612035 -0.38567,1.372276 l -1.19171,1.960382 c -0.46214,0.76024 -1.03424,1.372277 -1.28273,1.372277 h -8.89372 c -0.24848,0 -0.0765,-0.612037 0.38567,-1.372277 l 1.19171,-1.960382 c 0.46215,-0.760241 1.03425,-1.372276 1.28273,-1.372276 z m 4.75249,-8.1552186 h 8.89372 c 0.24848,0 0.0765,0.612035 -0.38567,1.372276 l -1.19171,1.9603826 c -0.46215,0.76024 -1.03425,1.372275 -1.28274,1.372275 h -8.89371 c -0.24849,0 -0.0765,-0.612035 0.38567,-1.372275 l 1.19171,-1.9603826 c 0.46214,-0.760241 1.03424,-1.372276 1.28273,-1.372276 z" />
    <path
       id="path2072"
       style="fill:#ffffff;fill-opacity:0.630189;fill-rule:evenodd;stroke:#000000;stroke-width:0.865;stroke-linecap:round;stroke-linejoin:round;stroke-miterlimit:4;stroke-dasharray:none;paint-order:stroke markers fill"
       d="m 32.502805,264.27629 v 7.83241 c 0,0.21883 -0.364596,0.40423 -0.817479,0.4157 l -1.167819,0.0296 c -0.452883,0.0115 -0.817479,-0.15548 -0.817479,-0.37431 v -7.8324 c 0,-0.21883 0.364596,-0.40423 0.817479,-0.4157 l 1.167819,-0.0296 c 0.452883,-0.0115 0.817479,0.15548 0.817479,0.37431 z m 5.32528,-0.22509 v 7.8324 c 0,0.21883 -0.364596,0.40424 -0.817479,0.4157 l -1.167819,0.0296 c -0.452883,0.0115 -0.817482,-0.15548 -0.817482,-0.37431 v -7.83241 c 0,-0.21883 0.364599,-0.40423 0.817482,-0.4157 l 1.167819,-0.0296 c 0.452883,-0.0115 0.817479,0.15548 0.817479,0.37431 z m 4.858144,-0.30357 v 7.83242 c 0,0.21883 -0.364597,0.40423 -0.817478,0.41569 l -1.16782,0.0296 c -0.452883,0.0115 -0.817478,-0.15547 -0.817478,-0.37431 v -7.8324 c 0,-0.21884 0.364595,-0.40424 0.817478,-0.41571 l 1.16782,-0.0296 c 0.452881,-0.0115 0.817478,0.15549 0.817478,0.37432 z m 5.360104,-0.22825 v 7.83241 c 0,0.21883 -0.364597,0.40423 -0.817479,0.4157 l -1.167821,0.0296 c -0.452881,0.0115 -0.817478,-0.15548 -0.817478,-0.37431 v -7.8324 c 0,-0.21884 0.364597,-0.40424 0.817478,-0.41571 l 1.167821,-0.0296 c 0.452882,-0.0115 0.817479,0.15548 0.817479,0.37431 z m 5.325274,-0.2251 v 7.83241 c 0,0.21883 -0.364593,0.40424 -0.817478,0.4157 l -1.167818,0.0296 c -0.452883,0.0115 -0.817479,-0.15548 -0.817479,-0.37431 v -7.8324 c 0,-0.21884 0.364596,-0.40424 0.817479,-0.4157 l 1.167818,-0.0296 c 0.452885,-0.0115 0.817478,0.15548 0.817478,0.37431 z m 4.858145,-0.30356 v 7.83241 c 0,0.21883 -0.364594,0.40424 -0.817474,0.4157 l -1.167819,0.0296 c -0.45289,0.0115 -0.817479,-0.15547 -0.817479,-0.37431 v -7.8324 c 0,-0.21883 0.364589,-0.40424 0.817479,-0.4157 l 1.167819,-0.0296 c 0.45288,-0.0115 0.817474,0.15547 0.817474,0.37431 z m 22.497771,20.61832 h -8.89371 c -0.24849,0 -0.07648,0.61203 0.385664,1.37227 l 1.191712,1.96039 c 0.462146,0.76024 1.034248,1.37227 1.282733,1.37227 h 8.893711 c 0.24849,0 0.0765,-0.61203 -0.38566,-1.37227 l -1.19172,-1.96039 c -0.46214,-0.76024 -1.03424,-1.37227 -1.28273,-1.37227 z m -5.33169,-8.93938 h -8.893718 c -0.248486,0 -0.07648,0.61203 0.385669,1.37227 l 1.191712,1.96038 c 0.462146,0.76024 1.034247,1.37229 1.282733,1.37229 h 8.893714 c 0.24849,0 0.0765,-0.61205 -0.38567,-1.37229 l -1.19171,-1.96038 c -0.46215,-0.76024 -1.03424,-1.37227 -1.28273,-1.37227 z m -4.752484,-8.15521 h -8.893717 c -0.248485,0 -0.07648,0.61203 0.38567,1.37227 l 1.191712,1.96038 c 0.462146,0.76024 1.034242,1.37228 1.282732,1.37228 h 8.893717 c 0.248485,0 0.07648,-0.61204 -0.38567,-1.37228 l -1.191711,-1.96038 c -0.462146,-0.76024 -1.034243,-1.37227 -1.282733,-1.37227 z m -5.364638,-8.99785 h -8.893717 c -0.248485,0 -0.07648,0.61204 0.38567,1.37228 l 1.191707,1.96038 c 0.462151,0.76024 1.034247,1.37228 1.282737,1.37228 h 8.893717 c 0.248485,0 0.07648,-0.61204 -0.38567,-1.37228 l -1.191711,-1.96038 c -0.462147,-0.76024 -1.034243,-1.37228 -1.282733,-1.37228 z m -5.331693,-8.93937 h -8.893715 c -0.248485,0 -0.07648,0.61204 0.38567,1.37228 l 1.19171,1.96038 c 0.462146,0.76024 1.034247,1.37227 1.282732,1.37227 h 8.893717 c 0.24849,0 0.07648,-0.61203 -0.38567,-1.37227 l -1.191712,-1.96038 c -0.462146,-0.76024 -1.034242,-1.37228 -1.282732,-1.37228 z m -4.752482,-8.15522 h -8.893715 c -0.248485,0 -0.07648,0.61204 0.38567,1.37228 l 1.191707,1.96038 c 0.46215,0.76024 1.034247,1.37228 1.282732,1.37228 h 8.89372 c 0.248485,0 0.07648,-0.61204 -0.38567,-1.37228 l -1.191712,-1.96038 c -0.462146,-0.76024 -1.034247,-1.37228 -1.282732,-1.37228 z M 8.9248352,282.5898 h 8.8937168 c 0.248486,0 0.07648,0.61204 -0.38567,1.37228 l -1.191708,1.96038 c -0.462147,0.76024 -1.034247,1.37228 -1.282733,1.37228 H 6.0647241 c -0.248487,0 -0.07648,-0.61204 0.38567,-1.37228 l 1.191709,-1.96038 c 0.462146,-0.76024 1.0342461,-1.37228 1.2827321,-1.37228 z m 5.3316938,-8.93938 h 8.893717 c 0.248486,0 0.07648,0.61204 -0.385669,1.37228 l -1.191709,1.96038 c -0.462147,0.76024 -1.03425,1.37228 -1.282736,1.37228 h -8.893717 c -0.248486,0 -0.07647,-0.61204 0.385673,-1.37228 l 1.191709,-1.96038 c 0.462147,-0.76024 1.034246,-1.37228 1.282732,-1.37228 z m 4.752482,-8.15521 h 8.893717 c 0.248486,0 0.07648,0.61204 -0.385669,1.37228 l -1.191709,1.96038 c -0.462147,0.76024 -1.034247,1.37228 -1.282733,1.37228 H 16.1489 c -0.248486,0 -0.07648,-0.61204 0.38567,-1.37228 l 1.191709,-1.96038 c 0.462146,-0.76024 1.034246,-1.37228 1.282732,-1.37228 z m 5.364638,-8.99784 h 8.893716 c 0.248487,0 0.07648,0.61204 -0.385669,1.37228 l -1.191709,1.96038 c -0.462147,0.76024 -1.034247,1.37228 -1.282733,1.37228 h -8.893716 c -0.248487,0 -0.07648,-0.61204 0.38567,-1.37228 l 1.191708,-1.96038 c 0.462147,-0.76024 1.034247,-1.37228 1.282733,-1.37228 z m 5.331691,-8.93938 h 8.893717 c 0.248486,0 0.07648,0.61204 -0.385669,1.37228 l -1.191709,1.96038 c -0.462147,0.76024 -1.034248,1.37228 -1.282734,1.37228 h -8.893717 c -0.248486,0 -0.07647,-0.61204 0.385671,-1.37228 l 1.191709,-1.96038 c 0.462148,-0.76024 1.034246,-1.37228 1.282732,-1.37228 z m 4.752484,-8.15521 h 8.893717 c 0.248486,0 0.07648,0.61203 -0.385669,1.37227 l -1.19171,1.96039 c -0.462147,0.76024 -1.034246,1.37227 -1.282732,1.37227 h -8.893717 c -0.248487,0 -0.07648,-0.61203 0.385669,-1.37227 l 1.19171,-1.96039 c 0.462147,-0.76024 1.034245,-1.37227 1.282732,-1.37227 z" />
    <path
       id="path2092"
       style="fill:url(#linearGradient2348);fill-opacity:1;fill-rule:evenodd;stroke:#000000;stroke-width:0.465308;stroke-linecap:round;stroke-linejoin:round;stroke-miterlimit:4;stroke-dasharray:none;paint-order:stroke markers fill"
       d="m 155.72169,265.97585 v 7.83242 c 0,0.21883 -0.3646,0.40423 -0.81748,0.4157 l -1.16782,0.0296 c -0.45289,0.0115 -0.81748,-0.15548 -0.81748,-0.37431 v -7.8324 c 0,-0.21884 0.36459,-0.40424 0.81748,-0.4157 l 1.16782,-0.0296 c 0.45288,-0.0115 0.81748,0.15547 0.81748,0.37431 z m 5.32528,-0.22509 v 7.83241 c 0,0.21883 -0.3646,0.40424 -0.81748,0.4157 l -1.16782,0.0296 c -0.45289,0.0115 -0.81748,-0.15548 -0.81748,-0.37431 v -7.83241 c 0,-0.21883 0.36459,-0.40424 0.81748,-0.4157 l 1.16782,-0.0295 c 0.45288,-0.0115 0.81748,0.15547 0.81748,0.37431 z m 4.85814,-0.30356 v 7.83241 c 0,0.21884 -0.3646,0.40424 -0.81748,0.4157 l -1.16782,0.0296 c -0.45288,0.0115 -0.81748,-0.15547 -0.81748,-0.37431 v -7.83241 c 0,-0.21883 0.3646,-0.40423 0.81748,-0.4157 l 1.16782,-0.0296 c 0.45288,-0.0115 0.81748,0.15548 0.81748,0.37431 z m 5.3601,-0.22826 v 7.83241 c 0,0.21883 -0.36459,0.40424 -0.81748,0.41571 l -1.16782,0.0296 c -0.45288,0.0115 -0.81747,-0.15548 -0.81747,-0.37431 v -7.83241 c 0,-0.21883 0.36459,-0.40424 0.81747,-0.4157 l 1.16782,-0.0296 c 0.45289,-0.0115 0.81748,0.15547 0.81748,0.37431 z m 5.32528,-0.2251 v 7.83241 c 0,0.21884 -0.3646,0.40425 -0.81748,0.41571 l -1.16782,0.0296 c -0.45288,0.0115 -0.81748,-0.15548 -0.81748,-0.37432 v -7.8324 c 0,-0.21883 0.3646,-0.40423 0.81748,-0.4157 l 1.16782,-0.0295 c 0.45288,-0.0115 0.81748,0.15548 0.81748,0.37431 z m 4.85814,-0.30356 v 7.83242 c 0,0.21883 -0.36459,0.40424 -0.81747,0.4157 l -1.16782,0.0296 c -0.45289,0.0115 -0.81748,-0.15548 -0.81748,-0.37431 v -7.83241 c 0,-0.21883 0.36459,-0.40423 0.81748,-0.4157 l 1.16782,-0.0295 c 0.45288,-0.0115 0.81747,0.15548 0.81747,0.37431 z m 22.49777,20.61833 h -8.89371 c -0.24849,0 -0.0765,0.61203 0.38567,1.37227 l 1.19171,1.96039 c 0.46215,0.76024 1.03425,1.37227 1.28273,1.37227 h 8.89371 c 0.24849,0 0.0765,-0.61203 -0.38566,-1.37227 l -1.19172,-1.96039 c -0.46214,-0.76024 -1.03424,-1.37227 -1.28273,-1.37227 z m -5.33169,-8.93938 H 189.721 c -0.24849,0 -0.0765,0.61203 0.38566,1.37227 l 1.19172,1.96038 c 0.46214,0.76024 1.03424,1.37229 1.28273,1.37229 h 8.89371 c 0.24849,0 0.0765,-0.61205 -0.38567,-1.37229 l -1.19171,-1.96038 c -0.46215,-0.76024 -1.03424,-1.37227 -1.28273,-1.37227 z m -4.75248,-8.15522 h -8.89372 c -0.24848,0 -0.0765,0.61204 0.38567,1.37228 l 1.19171,1.96038 c 0.46215,0.76024 1.03425,1.37227 1.28274,1.37227 h 8.89371 c 0.24849,0 0.0765,-0.61203 -0.38567,-1.37227 l -1.19171,-1.96038 c -0.46214,-0.76024 -1.03424,-1.37228 -1.28273,-1.37228 z m -5.36464,-8.99784 h -8.89372 c -0.24848,0 -0.0765,0.61204 0.38567,1.37228 l 1.19171,1.96038 c 0.46215,0.76024 1.03425,1.37227 1.28274,1.37227 h 8.89372 c 0.24848,0 0.0765,-0.61203 -0.38567,-1.37227 l -1.19172,-1.96038 c -0.46214,-0.76024 -1.03424,-1.37228 -1.28273,-1.37228 z m -5.33169,-8.93938 h -8.89372 c -0.24848,0 -0.0765,0.61204 0.38567,1.37228 l 1.19171,1.96038 c 0.46215,0.76024 1.03425,1.37228 1.28274,1.37228 h 8.89371 c 0.24849,0 0.0765,-0.61204 -0.38567,-1.37228 l -1.19171,-1.96038 c -0.46215,-0.76024 -1.03424,-1.37228 -1.28273,-1.37228 z m -4.75248,-8.15521 h -8.89372 c -0.24848,0 -0.0765,0.61203 0.38567,1.37227 l 1.19171,1.96038 c 0.46215,0.76024 1.03425,1.37228 1.28273,1.37228 h 8.89372 c 0.24849,0 0.0765,-0.61204 -0.38567,-1.37228 l -1.19171,-1.96038 c -0.46215,-0.76024 -1.03425,-1.37227 -1.28273,-1.37227 z m -46.2697,42.16779 h 8.89371 c 0.24849,0 0.0765,0.61204 -0.38567,1.37228 l -1.19171,1.96038 c -0.46214,0.76024 -1.03424,1.37228 -1.28273,1.37228 h -8.89372 c -0.24848,0 -0.0765,-0.61204 0.38567,-1.37228 l 1.19171,-1.96038 c 0.46215,-0.76024 1.03425,-1.37228 1.28274,-1.37228 z m 5.33169,-8.93938 h 8.89372 c 0.24848,0 0.0765,0.61204 -0.38567,1.37228 l -1.19171,1.96038 c -0.46215,0.76024 -1.03425,1.37228 -1.28274,1.37228 h -8.89371 c -0.24849,0 -0.0765,-0.61204 0.38567,-1.37228 l 1.19171,-1.96038 c 0.46214,-0.76024 1.03424,-1.37228 1.28273,-1.37228 z m 4.75248,-8.15522 h 8.89372 c 0.24848,0 0.0765,0.61204 -0.38567,1.37228 l -1.19171,1.96038 c -0.46215,0.76024 -1.03425,1.37228 -1.28273,1.37228 h -8.89372 c -0.24849,0 -0.0765,-0.61204 0.38567,-1.37228 l 1.19171,-1.96038 c 0.46215,-0.76024 1.03425,-1.37228 1.28273,-1.37228 z m 5.36464,-8.99784 h 8.89372 c 0.24848,0 0.0765,0.61204 -0.38567,1.37228 l -1.19171,1.96038 c -0.46215,0.76024 -1.03425,1.37228 -1.28274,1.37228 h -8.89371 c -0.24849,0 -0.0765,-0.61204 0.38567,-1.37228 l 1.19171,-1.96038 c 0.46214,-0.76024 1.03424,-1.37228 1.28273,-1.37228 z m 5.33169,-8.93937 h 8.89372 c 0.24848,0 0.0765,0.61203 -0.38567,1.37227 l -1.19171,1.96039 c -0.46215,0.76024 -1.03425,1.37227 -1.28273,1.37227 h -8.89372 c -0.24849,0 -0.0765,-0.61203 0.38567,-1.37227 l 1.19171,-1.96039 c 0.46215,-0.76024 1.03424,-1.37227 1.28273,-1.37227 z m 4.75248,-8.15522 h 8.89372 c 0.24849,0 0.0765,0.61204 -0.38567,1.37228 l -1.19171,1.96038 c -0.46214,0.76024 -1.03424,1.37227 -1.28273,1.37227 h -8.89372 c -0.24848,0 -0.0765,-0.61203 0.38567,-1.37227 l 1.19171,-1.96038 c 0.46215,-0.76024 1.03425,-1.37228 1.28273,-1.37228 z" />
  </g>
</svg>
