<?xml version="1.0" encoding="UTF-8" standalone="no"?>
<!-- Created with Inkscape (http://www.inkscape.org/) -->

<svg
   width="210mm"
   height="297mm"
   viewBox="0 0 210 297"
   version="1.1"
   id="svg5"
   inkscape:version="1.1 (c68e22c387, 2021-05-23)"
   sodipodi:docname="LV2 Plugin  icon svg.svg"
   xmlns:inkscape="http://www.inkscape.org/namespaces/inkscape"
   xmlns:sodipodi="http://sodipodi.sourceforge.net/DTD/sodipodi-0.dtd"
   xmlns="http://www.w3.org/2000/svg"
   xmlns:svg="http://www.w3.org/2000/svg">
  <sodipodi:namedview
     id="namedview7"
     pagecolor="#ffffff"
     bordercolor="#666666"
     borderopacity="1.0"
     inkscape:pageshadow="2"
     inkscape:pageopacity="0.0"
     inkscape:pagecheckerboard="0"
     inkscape:document-units="mm"
     showgrid="false"
     inkscape:zoom="0.41053452"
     inkscape:cx="526.14334"
     inkscape:cy="744.1518"
     inkscape:window-width="1680"
     inkscape:window-height="956"
     inkscape:window-x="-11"
     inkscape:window-y="-11"
     inkscape:window-maximized="1"
     inkscape:current-layer="layer1" />
  <defs
     id="defs2">
    <inkscape:path-effect
       effect="skeletal"
       id="path-effect3161"
       is_visible="true"
       lpeversion="1"
       pattern="m 182.71133,36.816874 0.27078,28.580167 24.64656,-14.536578 z m -38.1894,6.580476 v 17.728634 h 31.32522 V 43.39735 Z"
       copytype="repeated"
       prop_scale="1"
       scale_y_rel="false"
       spacing="5.8"
       normal_offset="0"
       tang_offset="1.5"
       prop_units="false"
       vertical_pattern="false"
       hide_knot="false"
       fuse_tolerance="0" />
    <inkscape:path-effect
       effect="skeletal"
       id="path-effect2910"
       is_visible="true"
       lpeversion="1"
       pattern="m 182.71133,36.816874 0.27078,28.580167 24.64656,-14.536578 z m -38.1894,6.580476 v 17.728634 h 31.32522 V 43.39735 Z"
       copytype="repeated"
       prop_scale="1"
       scale_y_rel="false"
       spacing="4.6"
       normal_offset="0.3"
       tang_offset="0"
       prop_units="false"
       vertical_pattern="false"
       hide_knot="false"
       fuse_tolerance="0" />
  </defs>
  <g
     inkscape:label="Layer 1"
     inkscape:groupmode="layer"
     id="layer1">
    <path
       id="rect2271"
       style="fill:#ffffff;stroke:#000000;stroke-width:1.7722;stroke-linecap:round;stroke-linejoin:round;stroke-miterlimit:4;stroke-dasharray:none;stroke-dashoffset:16.32;stroke-opacity:0.955017;paint-order:stroke markers fill"
       d="m 28.223665,89.625959 c -3.416312,0 -6.166537,2.889547 -6.166537,6.478909 v 44.356242 c 0,0.21691 0.01048,0.43108 0.0301,0.64241 -0.01802,0.11572 -0.0301,0.23211 -0.0301,0.34974 0,0.46313 0.143562,0.91209 0.410733,1.34116 0.888026,2.42941 3.123444,4.14562 5.755804,4.14562 h 1.024931 c 0.670962,0 1.315614,-0.11288 1.919409,-0.31921 1.433625,0.20306 2.971329,0.31921 4.582774,0.31921 h 86.158861 c 0.63641,0.26215 1.32945,0.40753 2.05643,0.40753 0.72693,0 1.42007,-0.14541 2.05643,-0.40753 h 3.47757 c 7.58631,0 13.69365,-2.44702 13.69365,-5.48678 0,-3.02944 -6.06696,-5.46917 -13.61752,-5.48568 v -32.14735 h 3.79107 c 3.9851,0 7.1932,-2.62886 7.1932,-5.894316 0,-3.26545 -3.2081,-5.894303 -7.1932,-5.894303 H 84.120777 c -3.985096,0 -7.193542,2.628853 -7.193542,5.894303 0,1.171954 0.415013,2.260886 1.129083,3.176746 L 64.360593,131.19629 50.141328,99.952372 c -1.404614,-3.086365 -4.797094,-4.529594 -7.606354,-3.235631 -2.80926,1.293953 -3.93995,4.820589 -2.535336,7.906959 L 54.26354,135.96613 H 35.750779 c -0.113248,0 -0.222726,0.005 -0.3353,0.007 V 96.105251 c 0,-3.589362 -2.750571,-6.478909 -6.166883,-6.478909 z m 60.863631,14.194271 h 3.375842 v 32.1459 H 74.457642 Z m 14.596094,0 h 14.67256 v 32.1459 h -14.67256 z" />
    <path
       id="path2888"
       style="fill:#000000;stroke:#000000;stroke-width:1.78323;stroke-linecap:round;stroke-linejoin:round;stroke-miterlimit:4;stroke-dasharray:none;stroke-dashoffset:16.32;stroke-opacity:0.955017;paint-order:stroke markers fill"
       d="m 22.723528,11.004308 c -3.579584,0 -6.461246,2.792206 -6.461246,6.260652 v 42.86199 c 0,0.209607 0.01098,0.416562 0.03154,0.62077 -0.01889,0.111822 -0.03154,0.224295 -0.03154,0.337958 0,0.447537 0.150422,0.881368 0.430362,1.295983 0.930467,2.347569 3.272719,4.005962 6.030884,4.005962 h 1.073914 c 0.703028,0 1.37849,-0.109075 2.011141,-0.308457 1.502141,0.196221 3.113335,0.308457 4.801793,0.308457 h 90.276544 c 0.66682,0.25332 1.39299,0.393806 2.15471,0.393806 0.76167,0 1.48793,-0.140512 2.15471,-0.393806 h 3.64377 c 7.94888,0 14.34809,-2.364583 14.34809,-5.301945 0,-2.92739 -6.35691,-5.284928 -14.26833,-5.300885 V 24.720416 h 3.97225 c 4.17556,0 7.53698,-2.540303 7.53698,-5.695757 0,-3.155446 -3.36142,-5.695739 -7.53698,-5.695739 H 81.29206 c -4.175551,0 -7.537334,2.540293 -7.537334,5.695739 0,1.132475 0.434847,2.184724 1.183044,3.069725 L 60.587503,51.174239 45.688674,20.982851 c -1.471743,-2.982394 -5.026355,-4.377004 -7.969875,-3.126631 -2.943519,1.250364 -4.128246,4.658196 -2.656503,7.64059 L 50.007894,55.783393 H 30.610376 c -0.118661,0 -0.23337,0.0053 -0.351325,0.007 V 17.26533 c 0,-3.468446 -2.882025,-6.260652 -6.461609,-6.260652 z m 63.77241,13.716108 h 3.537179 v 31.062977 h -18.86601 z m 15.293662,0 h 15.37379 V 55.783393 H 101.7896 Z" />
    <g
       id="g3105"
       transform="matrix(0.80733502,0,0,1.0177685,76.890505,-13.080369)">
      <path
         id="path2908"
         style="fill:#ffffff;stroke:#000000;stroke-width:1.95604;stroke-linecap:round;stroke-linejoin:round;stroke-miterlimit:4;stroke-dasharray:none;stroke-dashoffset:16.32;stroke-opacity:0.955017;paint-order:stroke markers fill"
         d="m 23.19483,166.41159 c -3.792821,0 -6.846145,3.17071 -6.846145,7.10933 v 48.67227 c 0,0.23802 0.01163,0.47303 0.03342,0.70492 -0.02001,0.12698 -0.03342,0.2547 -0.03342,0.38377 0,0.5082 0.159383,1.00084 0.455999,1.47166 0.985895,2.6658 3.467676,4.549 6.390146,4.549 h 1.137887 c 0.744908,0 1.460607,-0.12386 2.130945,-0.35027 1.591624,0.22282 3.298797,0.35027 5.087837,0.35027 h 95.654341 c 0.70655,0.28766 1.47597,0.44719 2.28307,0.44719 0.80704,0 1.57657,-0.15956 2.28307,-0.44719 h 3.86083 c 8.42239,0 15.20281,-2.68512 15.20281,-6.02066 0,-3.32422 -6.7356,-6.00134 -15.1183,-6.01946 v -35.2754 h 4.20888 c 4.4243,0 7.98596,-2.88466 7.98596,-6.46786 0,-3.58319 -3.56166,-6.46784 -7.98596,-6.46784 H 85.252306 c -4.42429,0 -7.986335,2.88465 -7.986335,6.46784 0,1.28599 0.460751,2.48088 1.253518,3.48585 L 63.314372,212.02687 47.528016,177.7428 c -1.559415,-3.38668 -5.325777,-4.97034 -8.444643,-3.55047 -3.118865,1.41986 -4.374167,5.28965 -2.814752,8.67634 l 15.835912,34.39216 H 31.551499 c -0.125729,0 -0.247272,0.006 -0.372253,0.008 v -43.74749 c 0,-3.93862 -3.053708,-7.10933 -6.846529,-7.10933 z m 67.57135,15.57543 h 3.74789 v 35.27381 H 74.524207 Z m 16.20471,0 h 16.28961 v 35.27381 h -16.28961 z" />
      <path
         style="fill:#ffffff;stroke:#000000;stroke-width:23.3841;stroke-linecap:round;stroke-linejoin:round;stroke-miterlimit:4;stroke-dasharray:none;stroke-dashoffset:16.32;stroke-opacity:0.955017;paint-order:stroke markers fill"
         d="M 282.55846,865.36472 C 129.48669,864.9233 80.24544,864.07317 75.912464,861.79709 63.616784,855.33824 63.332068,852.75753 63.332068,747.7664 c 0,-67.16961 0.850558,-99.37823 2.720941,-103.03557 7.95069,-15.54677 28.175307,-18.81637 41.694871,-6.74057 l 7.95494,7.10542 0.69569,89.1106 0.6957,89.11061 h 40.10477 c 24.37365,0 40.10477,-0.92977 40.10477,-2.37034 0,-1.30368 -13.70165,-32.19898 -30.44811,-68.65621 -16.74646,-36.45724 -30.44811,-69.455 -30.44811,-73.32835 0,-8.89941 11.82928,-21.28282 20.33045,-21.28282 12.98053,0 19.12365,9.46063 50.50438,77.77863 16.6391,36.22443 31.16651,65.57468 32.28315,65.22277 1.11664,-0.3519 14.62752,-28.01262 30.02418,-61.46826 25.17177,-54.69611 27.76272,-61.59386 25.70045,-68.42104 -3.08465,-10.2118 1.78264,-21.39797 11.49627,-26.42108 6.61165,-3.41902 21.15094,-3.80012 122.17767,-3.20244 l 114.67294,0.6784 7.10618,7.95494 c 3.90839,4.37522 7.10617,10.43408 7.10617,13.46414 0,13.35937 -15.32943,23.64413 -35.24157,23.64413 h -11.03956 v 67.87027 67.87027 l 15.37313,1.23401 c 17.89718,1.43661 36.62031,8.95178 40.5375,16.27109 3.89879,7.28496 -5.46059,15.97175 -22.16567,20.57277 -18.1186,4.99034 -35.25974,5.29288 -262.71474,4.63695 z m 75.51131,-110.2516 v -68.20376 h -8.09737 -8.09735 l -29.80078,64.72209 c -16.39044,35.59716 -30.40201,66.28885 -31.13683,68.20377 -1.12417,2.92952 4.88602,3.48167 37.89814,3.48167 h 39.23419 z m 109.6132,0 v -68.20376 h -32.88396 -32.88396 v 66.57986 c 0,36.61893 0.73075,67.31062 1.62391,68.20377 0.89312,0.89314 15.69091,1.6239 32.88395,1.6239 h 31.26006 z"
         id="path2984"
         transform="scale(0.26458333)" />
    </g>
    <path
       id="path3107"
       style="fill:#ffffff;stroke:#000000;stroke-width:1.95604;stroke-linecap:round;stroke-linejoin:round;stroke-miterlimit:4;stroke-dasharray:none;stroke-dashoffset:16.32;stroke-opacity:0.955017;paint-order:stroke markers fill"
       d="m 26.463662,228.95227 c -3.792821,0 -6.846145,3.17071 -6.846145,7.10933 v 48.67226 c 0,0.23802 0.01163,0.47303 0.03342,0.70492 -0.02001,0.12698 -0.03342,0.2547 -0.03342,0.38377 0,0.5082 0.159383,1.00084 0.455999,1.47166 0.985895,2.6658 3.467676,4.549 6.390146,4.549 h 1.137887 c 0.744908,0 1.460607,-0.12386 2.130945,-0.35027 1.591624,0.22282 3.298797,0.35027 5.087837,0.35027 h 95.654339 c 0.70655,0.28766 1.47597,0.44719 2.28307,0.44719 0.80704,0 1.57657,-0.15956 2.28307,-0.44719 h 3.86083 c 8.42239,0 15.20281,-2.68512 15.20281,-6.02066 0,-3.32422 -6.7356,-6.00134 -15.1183,-6.01946 V 244.5277 h 4.20888 c 4.4243,0 7.98596,-2.88466 7.98596,-6.46786 0,-3.58319 -3.56166,-6.46784 -7.98596,-6.46784 H 88.521138 c -4.42429,0 -7.986335,2.88465 -7.986335,6.46784 0,1.28599 0.460751,2.48088 1.253518,3.48585 L 66.583204,274.56754 50.796848,240.28348 c -1.559415,-3.38668 -5.325777,-4.97034 -8.444643,-3.55047 -3.118865,1.41986 -4.374167,5.28965 -2.814752,8.67633 L 55.373365,279.8015 H 34.820331 c -0.125729,0 -0.247272,0.006 -0.372253,0.008 v -43.74748 c 0,-3.93862 -3.053708,-7.10933 -6.846529,-7.10933 z m 67.57135,15.57543 h 3.74789 v 35.2738 H 77.793039 Z m 16.204708,0 h 16.28961 v 35.2738 h -16.28961 z" />
  </g>
</svg>
