<?xml version="1.0" encoding="UTF-8" standalone="no"?>
<!-- Created with Inkscape (http://www.inkscape.org/) -->

<svg
   width="210mm"
   height="297mm"
   viewBox="0 0 210 297"
   version="1.1"
   id="svg5"
   inkscape:version="1.1 (c68e22c387, 2021-05-23)"
   sodipodi:docname="plug in icon svg.svg"
   xmlns:inkscape="http://www.inkscape.org/namespaces/inkscape"
   xmlns:sodipodi="http://sodipodi.sourceforge.net/DTD/sodipodi-0.dtd"
   xmlns="http://www.w3.org/2000/svg"
   xmlns:svg="http://www.w3.org/2000/svg">
  <sodipodi:namedview
     id="namedview7"
     pagecolor="#ffffff"
     bordercolor="#666666"
     borderopacity="1.0"
     inkscape:pageshadow="2"
     inkscape:pageopacity="0.0"
     inkscape:pagecheckerboard="0"
     inkscape:document-units="mm"
     showgrid="false"
     inkscape:zoom="0.62270623"
     inkscape:cx="595.78656"
     inkscape:cy="906.52698"
     inkscape:window-width="1680"
     inkscape:window-height="956"
     inkscape:window-x="-11"
     inkscape:window-y="-11"
     inkscape:window-maximized="1"
     inkscape:current-layer="layer1" />
  <defs
     id="defs2" />
  <g
     inkscape:label="Layer 1"
     inkscape:groupmode="layer"
     id="layer1">
    <g
       id="g1243"
       transform="matrix(0.45329123,0,0,0.56417672,4.6206904,40.343613)">
      <path
         id="rect918"
         style="fill:none;stroke:#000000;stroke-width:9.6;stroke-linecap:round;stroke-linejoin:round;stroke-dasharray:2.4, 2.4;stroke-opacity:0.955017;paint-order:stroke markers fill"
         d="m 307.5293,448.04492 c -11.12083,0 -20.07422,8.95144 -20.07422,20.07227 v 364.53906 c 0,11.12083 8.95339,20.07422 20.07422,20.07422 h 292.27148 c 11.12083,0 20.07422,-8.95339 20.07422,-20.07422 V 773.10352 A 151.48566,111.33837 0 0 0 747.27148,663.23438 151.48566,111.33837 0 0 0 619.875,553.31836 v -85.20117 c 0,-11.12083 -8.95339,-20.07227 -20.07422,-20.07227 z m -138.38672,78.24024 c -11.21502,0 -20.24414,9.02717 -20.24414,20.24218 v 66.40039 c 0,11.21502 9.02912,20.24415 20.24414,20.24415 h 96.91211 c 11.21501,0 20.24414,-9.02913 20.24414,-20.24415 v -66.40039 c 0,-11.21501 -9.02913,-20.24218 -20.24414,-20.24218 z m -9.74024,178.07422 c -11.25683,0 -20.31836,9.06152 -20.31836,20.31835 v 63.39649 c 0,11.25683 9.06153,20.31836 20.31836,20.31836 H 266.1582 c 11.25683,0 20.32032,-9.06153 20.32032,-20.31836 v -63.39649 c 0,-11.25683 -9.06349,-20.31835 -20.32032,-20.31835 z"
         transform="scale(0.26458333)" />
      <path
         id="rect1155"
         style="fill:none;stroke:#000000;stroke-width:9.94647;stroke-linecap:round;stroke-linejoin:round;stroke-dasharray:2.48662, 2.48662;stroke-opacity:0.955017;paint-order:stroke markers fill"
         d="m 432.6582,447.61328 c -11.93799,0 -21.54882,9.61083 -21.54882,21.54883 v 362.01953 c -10e-6,11.938 9.61083,21.54883 21.54882,21.54883 h 3.47266 c 11.938,0 21.54883,-9.61083 21.54883,-21.54883 V 469.16211 c 0,-11.938 -9.61083,-21.54883 -21.54883,-21.54883 z m 80.29492,0 c -11.93799,0 -21.54882,9.61083 -21.54882,21.54883 v 362.01953 c 0,11.938 9.61083,21.54883 21.54882,21.54883 h 3.47266 c 11.938,0 21.54883,-9.61083 21.54883,-21.54883 V 469.16211 c 0,-11.938 -9.61083,-21.54883 -21.54883,-21.54883 z"
         transform="scale(0.26458333)" />
    </g>
    <g
       id="g1844"
       transform="translate(-2.5493567,135.11588)" />
    <path
       id="path2634"
       style="fill:none;stroke:#000000;stroke-width:1.60982;stroke-linecap:round;stroke-linejoin:round;stroke-dasharray:0.402454, 0.402454;stroke-opacity:0.955017;paint-order:stroke markers fill"
       d="m 39.06731,278.56881 v -0.40969 h 3.39748 3.397481 v 0.40969 0.4097 H 42.46479 39.06731 Z m -1.02954,0 v -1.0925 h 4.42702 4.427021 v 1.0925 1.09252 H 42.46479 38.03777 Z m 0,0 v -1.0925 h 4.42702 4.427021 v 1.0925 1.09252 H 42.46479 38.03777 Z m -2.100129,1.67629 c -0.03405,-0.43375 -0.03344,-1.54143 0.0013,-2.46153 l 0.06324,-1.67291 h 6.474331 6.474331 v 2.45093 2.45092 l -6.475671,0.0106 -6.475672,0.0106 z m 1.07059,-1.67629 v -1.77532 h 5.456559 5.456559 v 1.77532 1.77533 H 42.46479 37.008231 Z m 0,0 v -1.77532 h 5.456559 5.456559 v 1.77532 1.77533 H 42.46479 37.008231 Z m -1.07059,1.67629 c -0.03405,-0.43375 -0.03344,-1.54143 0.0013,-2.46153 l 0.06324,-1.67291 h 6.474331 6.474331 v 2.45093 2.45092 l -6.475671,0.0106 -6.475672,0.0106 z m 0.455395,1.48442 -1.335872,-0.088 -0.147602,-0.54626 c -0.252849,-0.93576 -0.08372,-5.36711 0.21234,-5.56344 0.38331,-0.25421 14.310265,-0.24913 14.693818,0.005 0.368439,0.24446 0.387481,5.80645 0.02071,6.04966 -0.277322,0.18389 -11.078256,0.29854 -13.443395,0.1427 z m 0,0 -1.335872,-0.088 -0.147602,-0.54626 c -0.252849,-0.93576 -0.08372,-5.36711 0.21234,-5.56344 0.38331,-0.25421 14.310265,-0.24913 14.693818,0.005 0.368439,0.24446 0.387481,5.80645 0.02071,6.04966 -0.277322,0.18389 -11.078256,0.29854 -13.443395,0.1427 z m -1.627128,0.60907 c -0.957698,-0.35205 -1.037116,-0.63649 -1.044908,-3.74242 -0.0079,-3.16535 0.09434,-3.51478 1.119444,-3.82456 0.763071,-0.23058 14.485621,-0.23058 15.248693,0 1.021009,0.30854 1.126739,0.66362 1.126739,3.784 0,3.10633 -0.09593,3.44851 -1.059401,3.77895 -0.801141,0.27477 -14.644207,0.27839 -15.390567,0.004 z m 5.536849,-18.79179 v -0.54625 h 2.779757 2.779757 v 0.54625 0.54626 h -2.779757 -2.779757 z m 0,0 v -0.54625 h 2.779757 2.779757 v 0.54625 0.54626 h -2.779757 -2.779757 z m -1.029539,0 v -1.22907 h 3.809296 3.809297 v 1.22907 1.22908 h -3.809297 -3.809296 z m -0.900361,1.95667 c -0.330328,-0.061 -0.367216,-0.16016 -0.257385,-0.69161 0.07051,-0.3412 0.128206,-1.19559 0.128206,-1.89865 v -1.2783 h 4.807511 4.807512 l 0.140895,1.86198 c 0.07749,1.02409 0.08401,1.89981 0.01449,1.94604 -0.155482,0.10338 -9.105252,0.15958 -9.641229,0.0605 z m -1.974184,1.12178 c -0.472443,-0.33353 -0.474828,-0.35374 -0.379258,-3.21368 0.06696,-2.00388 0.172324,-2.92853 0.346884,-3.0443 0.365597,-0.24247 13.073219,-0.23824 13.439184,0.005 0.183711,0.12185 0.282524,0.99428 0.344957,3.04567 0.08673,2.84977 0.08335,2.87783 -0.386012,3.2092 l -0.473508,0.33429 h -6.208406 -6.208407 z m 0.81691,-0.55086 c -0.19445,-0.1554 -0.21922,-0.78685 -0.10447,-2.663 l 0.15042,-2.4593 h 5.813035 5.813036 l 0.134596,1.66021 c 0.196105,2.41887 0.167275,3.31635 -0.112493,3.5019 -0.180058,0.11942 -1.765205,0.16388 -5.843162,0.16388 -4.708996,0 -5.636478,-0.0323 -5.850962,-0.20369 z m -0.81691,0.55086 c -0.472443,-0.33353 -0.474828,-0.35374 -0.379258,-3.21368 0.06696,-2.00388 0.172324,-2.92853 0.346884,-3.0443 0.365597,-0.24247 13.073219,-0.23824 13.439184,0.005 0.183711,0.12185 0.282524,0.99428 0.344957,3.04567 0.08673,2.84977 0.08335,2.87783 -0.386012,3.2092 l -0.473508,0.33429 h -6.208406 -6.208407 z m -0.749435,0.55415 -0.700087,-0.46432 v -3.07991 c 0,-1.92365 0.08389,-3.20203 0.223454,-3.40518 0.515289,-0.75007 0.81977,-0.7801 7.909909,-0.7801 7.090139,0 7.394619,0.03 7.909909,0.7801 0.139564,0.20315 0.223453,1.48153 0.223453,3.40518 v 3.07991 l -0.700087,0.46432 -0.700086,0.46431 h -6.733189 -6.733189 z m 45.110238,18.91166 c -0.759689,-0.14522 -1.344788,-0.51547 -1.544532,-0.97738 -0.199641,-0.46168 -0.10043,-26.49566 0.113908,-29.89052 0.119317,-1.88985 0.256791,-2.10447 1.442533,-2.252 0.827225,-0.10292 1.806057,0.18321 2.196377,0.64204 0.382987,0.45022 0.386804,30.94509 0.004,31.66024 -0.327838,0.6124 -1.336189,0.98507 -2.212249,0.81762 z m 0.567528,-3.18635 c 0.124356,-3.44336 0.07735,-25.40661 -0.05618,-26.25437 -0.07099,-0.45067 -0.146686,2.22257 -0.168218,5.94052 -0.02153,3.71794 -0.09663,10.2474 -0.166875,14.5099 -0.09151,5.5524 -0.06411,7.74998 0.09664,7.74998 0.148092,0 0.248252,-0.66152 0.294641,-1.94603 z m -0.955905,2.36984 c -0.330426,-0.24216 -0.349259,-1.27301 -0.289298,-15.83462 0.04818,-11.69931 0.124349,-15.61553 0.306079,-15.73601 0.317726,-0.21066 1.219942,-0.20508 1.610595,0.01 0.272084,0.14977 0.309497,2.05595 0.309497,15.76902 0,14.9383 -0.01594,15.60823 -0.376552,15.82468 -0.498751,0.29935 -1.124878,0.2861 -1.560321,-0.033 z m 0.958293,-1.41389 c 0.166982,-1.95068 0.129871,-27.62998 -0.04061,-28.09799 -0.107262,-0.29446 -0.183375,1.25226 -0.198245,4.02863 -0.01328,2.47863 -0.0833,9.13099 -0.155597,14.78302 -0.093,7.2698 -0.06693,10.27642 0.08912,10.27642 0.128755,0 0.255859,-0.41215 0.305331,-0.99008 z m -0.866658,1.4315 -0.449504,-0.2414 0.08382,-15.42929 c 0.0461,-8.4861 0.156262,-15.56755 0.2448,-15.73655 0.176416,-0.33673 0.877544,-0.41092 1.567842,-0.1659 0.390202,0.1385 0.39828,0.45799 0.39828,15.75195 0,14.94983 -0.01594,15.62014 -0.376552,15.83659 -0.483913,0.29045 -0.90746,0.286 -1.468686,-0.0154 z m -0.847405,0.52504 -0.601884,-0.39919 v -15.8567 c 0,-17.59185 -0.100897,-16.35144 1.355979,-16.67033 0.911148,-0.19943 1.774857,-0.0675 2.438301,0.37255 l 0.529786,0.35136 v 15.90156 15.90156 l -0.601884,0.39919 c -0.492802,0.32684 -0.775559,0.39919 -1.56015,0.39919 -0.784589,0 -1.067348,-0.0723 -1.560148,-0.39919 z m -9.539626,-0.54265 c -0.330425,-0.24216 -0.34926,-1.27301 -0.289298,-15.83462 0.04818,-11.69931 0.12435,-15.61553 0.30608,-15.73601 0.317724,-0.21066 1.219941,-0.20508 1.610595,0.01 0.272083,0.14977 0.309495,2.05595 0.309495,15.76902 0,14.9383 -0.01594,15.60823 -0.376552,15.82468 -0.49875,0.29935 -1.124876,0.2861 -1.56032,-0.033 z m 0.958293,-1.41389 c 0.166983,-1.95068 0.129872,-27.62998 -0.04061,-28.09799 -0.107262,-0.29446 -0.183375,1.25226 -0.198245,4.02863 -0.01328,2.47863 -0.08329,9.13099 -0.155597,14.78302 -0.093,7.2698 -0.06693,10.27642 0.08912,10.27642 0.128755,0 0.255858,-0.41215 0.30533,-0.99008 z m -0.866657,1.4315 -0.449506,-0.2414 0.08382,-15.42929 c 0.0461,-8.4861 0.156262,-15.56755 0.2448,-15.73655 0.176416,-0.33673 0.877543,-0.41092 1.567841,-0.1659 0.390201,0.1385 0.398279,0.45799 0.398279,15.75195 0,14.94983 -0.01594,15.62014 -0.376552,15.83659 -0.483913,0.29045 -0.90746,0.286 -1.468684,-0.0154 z m -0.847405,0.52504 -0.601884,-0.39919 v -15.8567 c 0,-17.59185 -0.100897,-16.35144 1.355979,-16.67033 0.911146,-0.19943 1.774856,-0.0675 2.438301,0.37255 l 0.529785,0.35136 v 15.90156 15.90156 l -0.601885,0.39919 c -0.4928,0.32684 -0.775558,0.39919 -1.560148,0.39919 -0.784589,0 -1.067348,-0.0723 -1.560148,-0.39919 z m 1.337553,-33.50528 c -1.530691,0 -2.762993,0.8173 -2.762993,1.83249 v 30.78581 c -10e-7,1.0152 1.232302,1.8325 2.762993,1.8325 h 0.445265 c 1.530692,0 2.762994,-0.8173 2.762994,-1.8325 v -30.78581 c 0,-1.01519 -1.232302,-1.83249 -2.762994,-1.83249 z m 10.295426,0 c -1.530691,0 -2.762993,0.8173 -2.762993,1.83249 v 30.78581 c 0,1.0152 1.232302,1.8325 2.762993,1.8325 h 0.445265 c 1.530692,0 2.762994,-0.8173 2.762994,-1.8325 v -30.78581 c 0,-1.01519 -1.232302,-1.83249 -2.762994,-1.83249 z m -26.339471,0.0367 c -1.425915,0 -2.573919,0.76122 -2.573919,1.70692 v 31.00007 c 0,0.94571 1.148004,1.7071 2.573919,1.7071 h 37.47509 c 1.425914,0 2.573919,-0.76139 2.573919,-1.7071 v -5.06431 a 19.423513,9.468114 0 0 0 16.334799,-9.34317 19.423513,9.468114 0 0 0 -16.334799,-9.34715 v -7.24544 c 0,-0.9457 -1.148005,-1.70692 -2.573919,-1.70692 z m -17.743965,6.65348 c -1.437991,0 -2.595706,0.76766 -2.595706,1.72137 v 5.64663 c 0,0.95371 1.157715,1.72155 2.595706,1.72155 h 12.426085 c 1.43799,0 2.595706,-0.76784 2.595706,-1.72155 v -5.64663 c 0,-0.95371 -1.157716,-1.72137 -2.595706,-1.72137 z m -1.248895,15.14327 c -1.443352,0 -2.605223,0.77058 -2.605223,1.72785 v 5.39118 c 0,0.95727 1.161871,1.72786 2.605223,1.72786 h 13.688252 c 1.443352,0 2.605474,-0.77059 2.605474,-1.72786 v -5.39118 c 0,-0.95727 -1.162122,-1.72785 -2.605474,-1.72785 z" />
    <g
       id="g4125"
       transform="matrix(0.85073314,0,0,0.86990472,11.338964,36.686469)">
      <g
         id="g2776"
         transform="matrix(0.45329123,0,0,0.56417672,96.822407,104.92731)">
        <path
           id="path2772"
           style="fill:none;stroke:#000000;stroke-width:9.6;stroke-linecap:round;stroke-linejoin:round;stroke-dasharray:2.4, 2.4;stroke-opacity:0.955017;paint-order:stroke markers fill"
           d="m 307.5293,448.04492 c -11.12083,0 -20.07422,8.95144 -20.07422,20.07227 v 364.53906 c 0,11.12083 8.95339,20.07422 20.07422,20.07422 h 292.27148 c 11.12083,0 20.07422,-8.95339 20.07422,-20.07422 V 773.10352 A 151.48566,111.33837 0 0 0 747.27148,663.23438 151.48566,111.33837 0 0 0 619.875,553.31836 v -85.20117 c 0,-11.12083 -8.95339,-20.07227 -20.07422,-20.07227 z m -138.38672,78.24024 c -11.21502,0 -20.24414,9.02717 -20.24414,20.24218 v 66.40039 c 0,11.21502 9.02912,20.24415 20.24414,20.24415 h 96.91211 c 11.21501,0 20.24414,-9.02913 20.24414,-20.24415 v -66.40039 c 0,-11.21501 -9.02913,-20.24218 -20.24414,-20.24218 z m -9.74024,178.07422 c -11.25683,0 -20.31836,9.06152 -20.31836,20.31835 v 63.39649 c 0,11.25683 9.06153,20.31836 20.31836,20.31836 H 266.1582 c 11.25683,0 20.32032,-9.06153 20.32032,-20.31836 v -63.39649 c 0,-11.25683 -9.06349,-20.31835 -20.32032,-20.31835 z"
           transform="scale(0.26458333)" />
        <path
           id="path2774"
           style="fill:none;stroke:#000000;stroke-width:9.94647;stroke-linecap:round;stroke-linejoin:round;stroke-dasharray:2.48662, 2.48662;stroke-opacity:0.955017;paint-order:stroke markers fill"
           d="m 432.6582,447.61328 c -11.93799,0 -21.54882,9.61083 -21.54882,21.54883 v 362.01953 c -10e-6,11.938 9.61083,21.54883 21.54882,21.54883 h 3.47266 c 11.938,0 21.54883,-9.61083 21.54883,-21.54883 V 469.16211 c 0,-11.938 -9.61083,-21.54883 -21.54883,-21.54883 z m 80.29492,0 c -11.93799,0 -21.54882,9.61083 -21.54882,21.54883 v 362.01953 c 0,11.938 9.61083,21.54883 21.54882,21.54883 h 3.47266 c 11.938,0 21.54883,-9.61083 21.54883,-21.54883 V 469.16211 c 0,-11.938 -9.61083,-21.54883 -21.54883,-21.54883 z"
           transform="scale(0.26458333)" />
      </g>
      <path
         style="fill:#ffffff;stroke:none;stroke-width:4.07898;stroke-linecap:round;stroke-linejoin:round;stroke-dasharray:1.01974, 1.01974;stroke-opacity:0.955017;paint-order:stroke markers fill"
         d="m 114.96383,224.10055 c -0.53969,-0.53969 -0.66769,-1.74519 -0.66769,-6.28841 0,-3.80515 0.16469,-5.78542 0.50987,-6.13059 0.35602,-0.35602 2.65934,-0.50987 7.63312,-0.50987 6.60769,0 7.15508,0.0595 7.56309,0.82185 0.24191,0.45202 0.43984,3.19481 0.43984,6.09509 0,7.00797 0.40222,6.67962 -8.18229,6.67962 -5.45916,0 -6.74602,-0.11777 -7.29594,-0.66769 z"
         id="path3338" />
      <path
         style="fill:#ffffff;stroke:none;stroke-width:4.07898;stroke-linecap:round;stroke-linejoin:round;stroke-dasharray:1.01974, 1.01974;stroke-opacity:0.955017;paint-order:stroke markers fill"
         d="m 114.96383,224.10055 c -0.53969,-0.53969 -0.66769,-1.74519 -0.66769,-6.28841 0,-3.80515 0.16469,-5.78542 0.50987,-6.13059 0.35602,-0.35602 2.65934,-0.50987 7.63312,-0.50987 6.60769,0 7.15508,0.0595 7.56309,0.82185 0.24191,0.45202 0.43984,3.19481 0.43984,6.09509 0,7.00797 0.40222,6.67962 -8.18229,6.67962 -5.45916,0 -6.74602,-0.11777 -7.29594,-0.66769 z"
         id="path3377" />
      <path
         style="fill:#ffffff;stroke:none;stroke-width:4.07898;stroke-linecap:round;stroke-linejoin:round;stroke-dasharray:1.01974, 1.01974;stroke-opacity:0.955017;paint-order:stroke markers fill"
         d="m 114.96383,224.10055 c -0.53969,-0.53969 -0.66769,-1.74519 -0.66769,-6.28841 0,-3.80515 0.16469,-5.78542 0.50987,-6.13059 0.35602,-0.35602 2.65934,-0.50987 7.63312,-0.50987 6.60769,0 7.15508,0.0595 7.56309,0.82185 0.24191,0.45202 0.43984,3.19481 0.43984,6.09509 0,7.00797 0.40222,6.67962 -8.18229,6.67962 -5.45916,0 -6.74602,-0.11777 -7.29594,-0.66769 z"
         id="path3416" />
      <path
         style="fill:#ffffff;stroke:none;stroke-width:4.07898;stroke-linecap:round;stroke-linejoin:round;stroke-dasharray:1.01974, 1.01974;stroke-opacity:0.955017;paint-order:stroke markers fill"
         d="m 114.96383,224.10055 c -0.53969,-0.53969 -0.66769,-1.74519 -0.66769,-6.28841 0,-3.80515 0.16469,-5.78542 0.50987,-6.13059 0.35602,-0.35602 2.65934,-0.50987 7.63312,-0.50987 6.60769,0 7.15508,0.0595 7.56309,0.82185 0.24191,0.45202 0.43984,3.19481 0.43984,6.09509 0,7.00797 0.40222,6.67962 -8.18229,6.67962 -5.45916,0 -6.74602,-0.11777 -7.29594,-0.66769 z"
         id="path3455" />
      <path
         style="fill:#ffffff;stroke:none;stroke-width:4.07898;stroke-linecap:round;stroke-linejoin:round;stroke-dasharray:1.01974, 1.01974;stroke-opacity:0.955017;paint-order:stroke markers fill"
         d="m 114.96383,224.10055 c -0.53969,-0.53969 -0.66769,-1.74519 -0.66769,-6.28841 0,-3.80515 0.16469,-5.78542 0.50987,-6.13059 0.35602,-0.35602 2.65934,-0.50987 7.63312,-0.50987 6.60769,0 7.15508,0.0595 7.56309,0.82185 0.24191,0.45202 0.43984,3.19481 0.43984,6.09509 0,7.00797 0.40222,6.67962 -8.18229,6.67962 -5.45916,0 -6.74602,-0.11777 -7.29594,-0.66769 z"
         id="path3457" />
      <path
         style="fill:#ffffff;stroke:none;stroke-width:4.07898;stroke-linecap:round;stroke-linejoin:round;stroke-dasharray:1.01974, 1.01974;stroke-opacity:0.955017;paint-order:stroke markers fill"
         d="m 114.96383,224.10055 c -0.53969,-0.53969 -0.66769,-1.74519 -0.66769,-6.28841 0,-3.80515 0.16469,-5.78542 0.50987,-6.13059 0.35602,-0.35602 2.65934,-0.50987 7.63312,-0.50987 6.60769,0 7.15508,0.0595 7.56309,0.82185 0.24191,0.45202 0.43984,3.19481 0.43984,6.09509 0,7.00797 0.40222,6.67962 -8.18229,6.67962 -5.45916,0 -6.74602,-0.11777 -7.29594,-0.66769 z"
         id="path3459" />
      <path
         style="fill:#ffffff;stroke:none;stroke-width:4.07898;stroke-linecap:round;stroke-linejoin:round;stroke-dasharray:1.01974, 1.01974;stroke-opacity:0.955017;paint-order:stroke markers fill"
         d="m 114.96383,224.10055 c -0.53969,-0.53969 -0.66769,-1.74519 -0.66769,-6.28841 0,-3.80515 0.16469,-5.78542 0.50987,-6.13059 0.35602,-0.35602 2.65934,-0.50987 7.63312,-0.50987 6.60769,0 7.15508,0.0595 7.56309,0.82185 0.24191,0.45202 0.43984,3.19481 0.43984,6.09509 0,7.00797 0.40222,6.67962 -8.18229,6.67962 -5.45916,0 -6.74602,-0.11777 -7.29594,-0.66769 z"
         id="path3461" />
      <path
         style="fill:#ffffff;stroke:none;stroke-width:4.07898;stroke-linecap:round;stroke-linejoin:round;stroke-dasharray:1.01974, 1.01974;stroke-opacity:0.955017;paint-order:stroke markers fill"
         d="m 114.96383,224.10055 c -0.53969,-0.53969 -0.66769,-1.74519 -0.66769,-6.28841 0,-3.80515 0.16469,-5.78542 0.50987,-6.13059 0.35602,-0.35602 2.65934,-0.50987 7.63312,-0.50987 6.60769,0 7.15508,0.0595 7.56309,0.82185 0.24191,0.45202 0.43984,3.19481 0.43984,6.09509 0,7.00797 0.40222,6.67962 -8.18229,6.67962 -5.45916,0 -6.74602,-0.11777 -7.29594,-0.66769 z"
         id="path3463" />
      <path
         style="fill:#ffffff;stroke:none;stroke-width:4.07898;stroke-linecap:round;stroke-linejoin:round;stroke-dasharray:1.01974, 1.01974;stroke-opacity:0.955017;paint-order:stroke markers fill"
         d="m 114.96383,224.10055 c -0.53969,-0.53969 -0.66769,-1.74519 -0.66769,-6.28841 0,-3.80515 0.16469,-5.78542 0.50987,-6.13059 0.35602,-0.35602 2.65934,-0.50987 7.63312,-0.50987 6.60769,0 7.15508,0.0595 7.56309,0.82185 0.24191,0.45202 0.43984,3.19481 0.43984,6.09509 0,7.00797 0.40222,6.67962 -8.18229,6.67962 -5.45916,0 -6.74602,-0.11777 -7.29594,-0.66769 z"
         id="path3465" />
      <path
         style="fill:#ffffff;stroke:none;stroke-width:4.07898;stroke-linecap:round;stroke-linejoin:round;stroke-dasharray:1.01974, 1.01974;stroke-opacity:0.955017;paint-order:stroke markers fill"
         d="m 114.96383,224.10055 c -0.53969,-0.53969 -0.66769,-1.74519 -0.66769,-6.28841 0,-3.80515 0.16469,-5.78542 0.50987,-6.13059 0.35602,-0.35602 2.65934,-0.50987 7.63312,-0.50987 6.60769,0 7.15508,0.0595 7.56309,0.82185 0.24191,0.45202 0.43984,3.19481 0.43984,6.09509 0,7.00797 0.40222,6.67962 -8.18229,6.67962 -5.45916,0 -6.74602,-0.11777 -7.29594,-0.66769 z"
         id="path3467" />
      <path
         style="fill:#ffffff;stroke:none;stroke-width:4.07898;stroke-linecap:round;stroke-linejoin:round;stroke-dasharray:1.01974, 1.01974;stroke-opacity:0.955017;paint-order:stroke markers fill"
         d="m 116.08069,197.91502 c -0.7105,-0.7105 -0.7105,-12.29121 0,-13.00171 0.35041,-0.35042 2.46707,-0.50988 6.76793,-0.50988 5.12263,0 6.37921,0.12115 6.92575,0.66769 0.53848,0.53848 0.66769,1.73614 0.66769,6.18888 0,3.03665 -0.19793,5.89102 -0.43984,6.34304 -0.40537,0.75744 -0.94818,0.82185 -6.92575,0.82185 -4.47807,0 -6.64375,-0.15784 -6.99578,-0.50987 z"
         id="path3506" />
      <path
         style="fill:#ffffff;stroke:none;stroke-width:4.07898;stroke-linecap:round;stroke-linejoin:round;stroke-dasharray:1.01974, 1.01974;stroke-opacity:0.955017;paint-order:stroke markers fill"
         d="m 116.08069,197.91502 c -0.7105,-0.7105 -0.7105,-12.29121 0,-13.00171 0.35041,-0.35042 2.46707,-0.50988 6.76793,-0.50988 5.12263,0 6.37921,0.12115 6.92575,0.66769 0.53848,0.53848 0.66769,1.73614 0.66769,6.18888 0,3.03665 -0.19793,5.89102 -0.43984,6.34304 -0.40537,0.75744 -0.94818,0.82185 -6.92575,0.82185 -4.47807,0 -6.64375,-0.15784 -6.99578,-0.50987 z"
         id="path3545" />
      <path
         style="fill:#ffffff;stroke:none;stroke-width:4.07898;stroke-linecap:round;stroke-linejoin:round;stroke-dasharray:1.01974, 1.01974;stroke-opacity:0.955017;paint-order:stroke markers fill"
         d="m 116.08069,197.91502 c -0.7105,-0.7105 -0.7105,-12.29121 0,-13.00171 0.35041,-0.35042 2.46707,-0.50988 6.76793,-0.50988 5.12263,0 6.37921,0.12115 6.92575,0.66769 0.53848,0.53848 0.66769,1.73614 0.66769,6.18888 0,3.03665 -0.19793,5.89102 -0.43984,6.34304 -0.40537,0.75744 -0.94818,0.82185 -6.92575,0.82185 -4.47807,0 -6.64375,-0.15784 -6.99578,-0.50987 z"
         id="path3584" />
      <path
         style="fill:#ffffff;stroke:none;stroke-width:4.07898;stroke-linecap:round;stroke-linejoin:round;stroke-dasharray:1.01974, 1.01974;stroke-opacity:0.955017;paint-order:stroke markers fill"
         d="m 116.08069,197.91502 c -0.7105,-0.7105 -0.7105,-12.29121 0,-13.00171 0.35041,-0.35042 2.46707,-0.50988 6.76793,-0.50988 5.12263,0 6.37921,0.12115 6.92575,0.66769 0.53848,0.53848 0.66769,1.73614 0.66769,6.18888 0,3.03665 -0.19793,5.89102 -0.43984,6.34304 -0.40537,0.75744 -0.94818,0.82185 -6.92575,0.82185 -4.47807,0 -6.64375,-0.15784 -6.99578,-0.50987 z"
         id="path3623" />
      <path
         style="fill:#ffffff;stroke:none;stroke-width:4.07898;stroke-linecap:round;stroke-linejoin:round;stroke-dasharray:1.01974, 1.01974;stroke-opacity:0.955017;paint-order:stroke markers fill"
         d="m 116.08069,197.91502 c -0.7105,-0.7105 -0.7105,-12.29121 0,-13.00171 0.35041,-0.35042 2.46707,-0.50988 6.76793,-0.50988 5.12263,0 6.37921,0.12115 6.92575,0.66769 0.53848,0.53848 0.66769,1.73614 0.66769,6.18888 0,3.03665 -0.19793,5.89102 -0.43984,6.34304 -0.40537,0.75744 -0.94818,0.82185 -6.92575,0.82185 -4.47807,0 -6.64375,-0.15784 -6.99578,-0.50987 z"
         id="path3662" />
      <path
         style="fill:#ffffff;stroke:none;stroke-width:4.07898;stroke-linecap:round;stroke-linejoin:round;stroke-dasharray:1.01974, 1.01974;stroke-opacity:0.955017;paint-order:stroke markers fill"
         d="m 116.08069,197.91502 c -0.7105,-0.7105 -0.7105,-12.29121 0,-13.00171 0.35041,-0.35042 2.46707,-0.50988 6.76793,-0.50988 5.12263,0 6.37921,0.12115 6.92575,0.66769 0.53848,0.53848 0.66769,1.73614 0.66769,6.18888 0,3.03665 -0.19793,5.89102 -0.43984,6.34304 -0.40537,0.75744 -0.94818,0.82185 -6.92575,0.82185 -4.47807,0 -6.64375,-0.15784 -6.99578,-0.50987 z"
         id="path3664" />
      <path
         style="fill:#ffffff;stroke:none;stroke-width:4.07898;stroke-linecap:round;stroke-linejoin:round;stroke-dasharray:1.01974, 1.01974;stroke-opacity:0.955017;paint-order:stroke markers fill"
         d="m 116.08069,197.91502 c -0.7105,-0.7105 -0.7105,-12.29121 0,-13.00171 0.35041,-0.35042 2.46707,-0.50988 6.76793,-0.50988 5.12263,0 6.37921,0.12115 6.92575,0.66769 0.53848,0.53848 0.66769,1.73614 0.66769,6.18888 0,3.03665 -0.19793,5.89102 -0.43984,6.34304 -0.40537,0.75744 -0.94818,0.82185 -6.92575,0.82185 -4.47807,0 -6.64375,-0.15784 -6.99578,-0.50987 z"
         id="path3666" />
      <path
         style="fill:#ffffff;stroke:none;stroke-width:4.07898;stroke-linecap:round;stroke-linejoin:round;stroke-dasharray:1.01974, 1.01974;stroke-opacity:0.955017;paint-order:stroke markers fill"
         d="m 147.52275,230.63176 c -0.73718,-0.73718 -0.73718,-56.45338 0,-57.19056 0.6554,-0.6554 2.14889,-0.6554 2.80429,0 0.73718,0.73718 0.73718,56.45338 0,57.19056 -0.28043,0.28043 -0.91139,0.50987 -1.40215,0.50987 -0.49075,0 -1.12171,-0.22944 -1.40214,-0.50987 z"
         id="path3668" />
      <path
         style="fill:#ffffff;stroke:none;stroke-width:4.07898;stroke-linecap:round;stroke-linejoin:round;stroke-dasharray:1.01974, 1.01974;stroke-opacity:0.955017;paint-order:stroke markers fill"
         d="m 147.52275,230.63176 c -0.73718,-0.73718 -0.73718,-56.45338 0,-57.19056 0.6554,-0.6554 2.14889,-0.6554 2.80429,0 0.73718,0.73718 0.73718,56.45338 0,57.19056 -0.28043,0.28043 -0.91139,0.50987 -1.40215,0.50987 -0.49075,0 -1.12171,-0.22944 -1.40214,-0.50987 z"
         id="path3707" />
      <path
         style="fill:#ffffff;stroke:none;stroke-width:4.07898;stroke-linecap:round;stroke-linejoin:round;stroke-dasharray:1.01974, 1.01974;stroke-opacity:0.955017;paint-order:stroke markers fill"
         d="m 147.52275,230.63176 c -0.73718,-0.73718 -0.73718,-56.45338 0,-57.19056 0.6554,-0.6554 2.14889,-0.6554 2.80429,0 0.73718,0.73718 0.73718,56.45338 0,57.19056 -0.28043,0.28043 -0.91139,0.50987 -1.40215,0.50987 -0.49075,0 -1.12171,-0.22944 -1.40214,-0.50987 z"
         id="path3746" />
      <path
         style="fill:#ffffff;stroke:none;stroke-width:4.07898;stroke-linecap:round;stroke-linejoin:round;stroke-dasharray:1.01974, 1.01974;stroke-opacity:0.955017;paint-order:stroke markers fill"
         d="m 147.52275,230.63176 c -0.73718,-0.73718 -0.73718,-56.45338 0,-57.19056 0.6554,-0.6554 2.14889,-0.6554 2.80429,0 0.73718,0.73718 0.73718,56.45338 0,57.19056 -0.28043,0.28043 -0.91139,0.50987 -1.40215,0.50987 -0.49075,0 -1.12171,-0.22944 -1.40214,-0.50987 z"
         id="path3785" />
      <path
         style="fill:#ffffff;stroke:none;stroke-width:4.07898;stroke-linecap:round;stroke-linejoin:round;stroke-dasharray:1.01974, 1.01974;stroke-opacity:0.955017;paint-order:stroke markers fill"
         d="m 147.52275,230.63176 c -0.73718,-0.73718 -0.73718,-56.45338 0,-57.19056 0.6554,-0.6554 2.14889,-0.6554 2.80429,0 0.73718,0.73718 0.73718,56.45338 0,57.19056 -0.28043,0.28043 -0.91139,0.50987 -1.40215,0.50987 -0.49075,0 -1.12171,-0.22944 -1.40214,-0.50987 z"
         id="path3824" />
      <path
         style="fill:#ffffff;stroke:none;stroke-width:4.07898;stroke-linecap:round;stroke-linejoin:round;stroke-dasharray:1.01974, 1.01974;stroke-opacity:0.955017;paint-order:stroke markers fill"
         d="m 147.52275,230.63176 c -0.73718,-0.73718 -0.73718,-56.45338 0,-57.19056 0.6554,-0.6554 2.14889,-0.6554 2.80429,0 0.73718,0.73718 0.73718,56.45338 0,57.19056 -0.28043,0.28043 -0.91139,0.50987 -1.40215,0.50987 -0.49075,0 -1.12171,-0.22944 -1.40214,-0.50987 z"
         id="path3826" />
      <path
         style="fill:#ffffff;stroke:none;stroke-width:4.07898;stroke-linecap:round;stroke-linejoin:round;stroke-dasharray:1.01974, 1.01974;stroke-opacity:0.955017;paint-order:stroke markers fill"
         d="m 147.52275,230.63176 c -0.73718,-0.73718 -0.73718,-56.45338 0,-57.19056 0.6554,-0.6554 2.14889,-0.6554 2.80429,0 0.73718,0.73718 0.73718,56.45338 0,57.19056 -0.28043,0.28043 -0.91139,0.50987 -1.40215,0.50987 -0.49075,0 -1.12171,-0.22944 -1.40214,-0.50987 z"
         id="path3828" />
      <path
         style="fill:#ffffff;stroke:none;stroke-width:4.07898;stroke-linecap:round;stroke-linejoin:round;stroke-dasharray:1.01974, 1.01974;stroke-opacity:0.955017;paint-order:stroke markers fill"
         d="m 147.52275,230.63176 c -0.73718,-0.73718 -0.73718,-56.45338 0,-57.19056 0.6554,-0.6554 2.14889,-0.6554 2.80429,0 0.73718,0.73718 0.73718,56.45338 0,57.19056 -0.28043,0.28043 -0.91139,0.50987 -1.40215,0.50987 -0.49075,0 -1.12171,-0.22944 -1.40214,-0.50987 z"
         id="path3830" />
      <path
         style="fill:#ffffff;stroke:none;stroke-width:4.07898;stroke-linecap:round;stroke-linejoin:round;stroke-dasharray:1.01974, 1.01974;stroke-opacity:0.955017;paint-order:stroke markers fill"
         d="m 157.1561,230.43921 c -0.47797,-0.57574 -0.60396,-5.55854 -0.6986,-27.62925 -0.0635,-14.80976 0.0432,-27.54319 0.237,-28.29651 0.28082,-1.09127 0.60231,-1.39867 1.58163,-1.51235 2.3963,-0.27814 2.33331,-1.05917 2.33331,28.93208 0,18.18854 -0.14961,27.8443 -0.43984,28.3866 -0.53881,1.00678 -2.22146,1.07347 -3.0135,0.11943 z"
         id="path3869" />
      <path
         style="fill:#ffffff;stroke:none;stroke-width:4.07898;stroke-linecap:round;stroke-linejoin:round;stroke-dasharray:1.01974, 1.01974;stroke-opacity:0.955017;paint-order:stroke markers fill"
         d="m 157.1561,230.43921 c -0.47797,-0.57574 -0.60396,-5.55854 -0.6986,-27.62925 -0.0635,-14.80976 0.0432,-27.54319 0.237,-28.29651 0.28082,-1.09127 0.60231,-1.39867 1.58163,-1.51235 2.3963,-0.27814 2.33331,-1.05917 2.33331,28.93208 0,18.18854 -0.14961,27.8443 -0.43984,28.3866 -0.53881,1.00678 -2.22146,1.07347 -3.0135,0.11943 z"
         id="path3908" />
      <path
         style="fill:#ffffff;stroke:none;stroke-width:4.07898;stroke-linecap:round;stroke-linejoin:round;stroke-dasharray:1.01974, 1.01974;stroke-opacity:0.955017;paint-order:stroke markers fill"
         d="m 157.1561,230.43921 c -0.47797,-0.57574 -0.60396,-5.55854 -0.6986,-27.62925 -0.0635,-14.80976 0.0432,-27.54319 0.237,-28.29651 0.28082,-1.09127 0.60231,-1.39867 1.58163,-1.51235 2.3963,-0.27814 2.33331,-1.05917 2.33331,28.93208 0,18.18854 -0.14961,27.8443 -0.43984,28.3866 -0.53881,1.00678 -2.22146,1.07347 -3.0135,0.11943 z"
         id="path3947" />
      <path
         style="fill:#ffffff;stroke:none;stroke-width:4.07898;stroke-linecap:round;stroke-linejoin:round;stroke-dasharray:1.01974, 1.01974;stroke-opacity:0.955017;paint-order:stroke markers fill"
         d="m 157.1561,230.43921 c -0.47797,-0.57574 -0.60396,-5.55854 -0.6986,-27.62925 -0.0635,-14.80976 0.0432,-27.54319 0.237,-28.29651 0.28082,-1.09127 0.60231,-1.39867 1.58163,-1.51235 2.3963,-0.27814 2.33331,-1.05917 2.33331,28.93208 0,18.18854 -0.14961,27.8443 -0.43984,28.3866 -0.53881,1.00678 -2.22146,1.07347 -3.0135,0.11943 z"
         id="path3949" />
      <path
         style="fill:#ffffff;stroke:none;stroke-width:4.07898;stroke-linecap:round;stroke-linejoin:round;stroke-dasharray:1.01974, 1.01974;stroke-opacity:0.955017;paint-order:stroke markers fill"
         d="m 157.1561,230.43921 c -0.47797,-0.57574 -0.60396,-5.55854 -0.6986,-27.62925 -0.0635,-14.80976 0.0432,-27.54319 0.237,-28.29651 0.28082,-1.09127 0.60231,-1.39867 1.58163,-1.51235 2.3963,-0.27814 2.33331,-1.05917 2.33331,28.93208 0,18.18854 -0.14961,27.8443 -0.43984,28.3866 -0.53881,1.00678 -2.22146,1.07347 -3.0135,0.11943 z"
         id="path3951" />
      <path
         style="fill:#ffffff;stroke:none;stroke-width:4.07898;stroke-linecap:round;stroke-linejoin:round;stroke-dasharray:1.01974, 1.01974;stroke-opacity:0.955017;paint-order:stroke markers fill"
         d="m 157.1561,230.43921 c -0.47797,-0.57574 -0.60396,-5.55854 -0.6986,-27.62925 -0.0635,-14.80976 0.0432,-27.54319 0.237,-28.29651 0.28082,-1.09127 0.60231,-1.39867 1.58163,-1.51235 2.3963,-0.27814 2.33331,-1.05917 2.33331,28.93208 0,18.18854 -0.14961,27.8443 -0.43984,28.3866 -0.53881,1.00678 -2.22146,1.07347 -3.0135,0.11943 z"
         id="path3990" />
    </g>
    <g
       id="g4131"
       transform="matrix(0.45329123,0,0,0.56417672,101.07133,42.468077)">
      <path
         id="path4127"
         style="fill:none;stroke:#000000;stroke-width:9.6;stroke-linecap:round;stroke-linejoin:round;stroke-dasharray:2.4, 2.4;stroke-opacity:0.955017;paint-order:stroke markers fill"
         d="m 307.5293,448.04492 c -11.12083,0 -20.07422,8.95144 -20.07422,20.07227 v 364.53906 c 0,11.12083 8.95339,20.07422 20.07422,20.07422 h 292.27148 c 11.12083,0 20.07422,-8.95339 20.07422,-20.07422 V 773.10352 A 151.48566,111.33837 0 0 0 747.27148,663.23438 151.48566,111.33837 0 0 0 619.875,553.31836 v -85.20117 c 0,-11.12083 -8.95339,-20.07227 -20.07422,-20.07227 z m -138.38672,78.24024 c -11.21502,0 -20.24414,9.02717 -20.24414,20.24218 v 66.40039 c 0,11.21502 9.02912,20.24415 20.24414,20.24415 h 96.91211 c 11.21501,0 20.24414,-9.02913 20.24414,-20.24415 v -66.40039 c 0,-11.21501 -9.02913,-20.24218 -20.24414,-20.24218 z m -9.74024,178.07422 c -11.25683,0 -20.31836,9.06152 -20.31836,20.31835 v 63.39649 c 0,11.25683 9.06153,20.31836 20.31836,20.31836 H 266.1582 c 11.25683,0 20.32032,-9.06153 20.32032,-20.31836 v -63.39649 c 0,-11.25683 -9.06349,-20.31835 -20.32032,-20.31835 z"
         transform="scale(0.26458333)" />
      <path
         id="path4129"
         style="fill:none;stroke:#000000;stroke-width:9.94647;stroke-linecap:round;stroke-linejoin:round;stroke-dasharray:2.48662, 2.48662;stroke-opacity:0.955017;paint-order:stroke markers fill"
         d="m 432.6582,447.61328 c -11.93799,0 -21.54882,9.61083 -21.54882,21.54883 v 362.01953 c -10e-6,11.938 9.61083,21.54883 21.54882,21.54883 h 3.47266 c 11.938,0 21.54883,-9.61083 21.54883,-21.54883 V 469.16211 c 0,-11.938 -9.61083,-21.54883 -21.54883,-21.54883 z m 80.29492,0 c -11.93799,0 -21.54882,9.61083 -21.54882,21.54883 v 362.01953 c 0,11.938 9.61083,21.54883 21.54882,21.54883 h 3.47266 c 11.938,0 21.54883,-9.61083 21.54883,-21.54883 V 469.16211 c 0,-11.938 -9.61083,-21.54883 -21.54883,-21.54883 z"
         transform="scale(0.26458333)" />
    </g>
    <path
       style="fill:#53676c;stroke:none;stroke-width:15.4166;stroke-linecap:round;stroke-linejoin:round;stroke-dasharray:3.85415, 3.85415;stroke-opacity:0.955017;paint-order:stroke markers fill"
       d="m 563.66868,802.94684 v -96.35362 h 11.9877 c 10.20833,0 12.23446,0.46107 13.6501,3.10621 0.91694,1.71333 1.6624,13.10368 1.6624,25.40103 v 22.29482 l 9.1558,2.88611 c 28.49791,8.98317 44.5889,35.29478 37.55642,61.41138 -4.30589,15.99088 -18.8253,30.37822 -35.95357,35.62654 l -9.95571,3.05056 -0.80294,17.9229 c -0.60646,13.53698 -1.39242,18.29433 -3.21179,19.44071 -1.32486,0.83479 -7.28674,1.52888 -13.24862,1.5424 l -10.83979,0.0246 z"
       id="path4607"
       transform="scale(0.26458333)" />
    <path
       style="fill:#53676c;stroke:none;stroke-width:15.4166;stroke-linecap:round;stroke-linejoin:round;stroke-dasharray:3.85415, 3.85415;stroke-opacity:0.955017;paint-order:stroke markers fill"
       d="m 468.97746,896.19425 c -2.29216,-4.28294 -2.29216,-182.21187 0,-186.49482 1.50706,-2.81597 3.53273,-3.10621 21.67956,-3.10621 h 20.01717 v 96.35362 96.35362 h -20.01717 c -18.14683,0 -20.1725,-0.29023 -21.67956,-3.10621 z"
       id="path4646"
       transform="scale(0.26458333)" />
    <path
       style="fill:#53676c;stroke:none;stroke-width:15.4166;stroke-linecap:round;stroke-linejoin:round;stroke-dasharray:3.85415, 3.85415;stroke-opacity:0.955017;paint-order:stroke markers fill"
       d="m 532.35376,802.94684 v -96.35362 h 4.81768 4.81768 v 96.35362 96.35362 h -4.81768 -4.81768 z"
       id="path4685"
       transform="scale(0.26458333)" />
    <path
       style="fill:#535d6c;stroke:none;stroke-width:15.4166;stroke-linecap:round;stroke-linejoin:round;stroke-dasharray:3.85415, 3.85415;stroke-opacity:0.955017;paint-order:stroke markers fill"
       d="m 517.15427,896.19425 c -2.53162,-4.73037 -2.2772,-185.13209 0.26467,-187.67396 2.8936,-2.8936 7.38412,-2.32164 9.25769,1.17914 1.08966,2.03605 1.66239,34.36285 1.66239,93.83008 0,80.33504 -0.28897,91.01283 -2.52355,93.2474 -3.39758,3.39759 -6.64807,3.17892 -8.6612,-0.58266 z"
       id="path4761"
       transform="scale(0.26458333)" />
    <path
       style="fill:#535d6c;stroke:none;stroke-width:15.4166;stroke-linecap:round;stroke-linejoin:round;stroke-dasharray:3.85415, 3.85415;stroke-opacity:0.955017;paint-order:stroke markers fill"
       d="m 548.5274,896.77691 c -2.23458,-2.23457 -2.52355,-12.91236 -2.52355,-93.2474 0,-59.46723 0.57274,-91.79403 1.6624,-93.83008 1.87356,-3.50078 6.36408,-4.07274 9.25768,-1.17914 2.78218,2.78219 2.78218,186.07092 0,188.8531 -2.61722,2.61722 -5.37903,2.42103 -8.39653,-0.59648 z"
       id="path4839"
       transform="scale(0.26458333)" />
    <path
       style="fill:#535d6c;stroke:none;stroke-width:15.4166;stroke-linecap:round;stroke-linejoin:round;stroke-dasharray:3.85415, 3.85415;stroke-opacity:0.955017;paint-order:stroke markers fill"
       d="m 416.24764,789.77851 c -2.66404,-2.66404 -2.66404,-40.05273 0,-42.71677 1.29755,-1.29754 8.62359,-1.92707 22.42601,-1.92707 18.62314,0 20.65106,0.28424 22.16134,3.10621 0.91431,1.70842 1.66239,11.05128 1.66239,20.76191 0,23.27331 0.62032,22.7028 -24.68488,22.7028 -13.13264,0 -20.27614,-0.63836 -21.56486,-1.92708 z"
       id="path4878"
       transform="scale(0.26458333)" />
    <path
       style="fill:#535d6c;stroke:none;stroke-width:15.4166;stroke-linecap:round;stroke-linejoin:round;stroke-dasharray:3.85415, 3.85415;stroke-opacity:0.955017;paint-order:stroke markers fill"
       d="m 416.24141,877.35836 c -2.097,-0.44576 -4.41851,-2.64631 -5.35886,-5.07965 -2.3147,-5.98972 -1.04936,-34.54496 1.67629,-37.82917 3.13633,-3.77905 43.64658,-3.84147 47.41499,-0.0731 3.78226,3.78225 3.67303,37.8822 -0.13146,41.04042 -2.67644,2.22179 -35.42273,3.67991 -43.60096,1.94146 z"
       id="path4917"
       transform="scale(0.26458333)" />
  </g>
</svg>
