<?xml version="1.0" encoding="UTF-8" standalone="no"?>
<!-- Created with Inkscape (http://www.inkscape.org/) -->

<svg
   width="210mm"
   height="297mm"
   viewBox="0 0 210 297"
   version="1.1"
   id="svg5"
   inkscape:version="1.1.1 (3bf5ae0d25, 2021-09-20)"
   sodipodi:docname="Cardinal effect plugin icon.svg"
   xmlns:inkscape="http://www.inkscape.org/namespaces/inkscape"
   xmlns:sodipodi="http://sodipodi.sourceforge.net/DTD/sodipodi-0.dtd"
   xmlns="http://www.w3.org/2000/svg"
   xmlns:svg="http://www.w3.org/2000/svg">
  <sodipodi:namedview
     id="namedview7"
     pagecolor="#ffffff"
     bordercolor="#666666"
     borderopacity="1.0"
     inkscape:pageshadow="2"
     inkscape:pageopacity="0.0"
     inkscape:pagecheckerboard="0"
     inkscape:document-units="mm"
     showgrid="false"
     inkscape:zoom="0.8117387"
     inkscape:cx="506.32057"
     inkscape:cy="217.4345"
     inkscape:window-width="1680"
     inkscape:window-height="956"
     inkscape:window-x="-11"
     inkscape:window-y="-11"
     inkscape:window-maximized="1"
     inkscape:current-layer="layer1" />
  <defs
     id="defs2">
    <inkscape:path-effect
       effect="spiro"
       id="path-effect1988"
       is_visible="true"
       lpeversion="1" />
    <inkscape:path-effect
       effect="spiro"
       id="path-effect1984"
       is_visible="true"
       lpeversion="1" />
    <inkscape:path-effect
       effect="spiro"
       id="path-effect1012"
       is_visible="true"
       lpeversion="1" />
    <inkscape:path-effect
       effect="spiro"
       id="path-effect1006"
       is_visible="true"
       lpeversion="1" />
  </defs>
  <g
     inkscape:label="Layer 1"
     inkscape:groupmode="layer"
     id="layer1">
    <path
       style="fill:#000000;stroke:#000000;stroke-width:4.64318;stroke-linecap:round;stroke-linejoin:round;stroke-opacity:0.955017;paint-order:stroke markers fill"
       d=""
       id="path902"
       transform="scale(0.26458333)" />
    <path
       style="fill:#008000;stroke:#000000;stroke-width:4.64318;stroke-linecap:round;stroke-linejoin:round;stroke-opacity:0.955017;paint-order:stroke markers fill"
       d=""
       id="path1669"
       transform="scale(0.26458333)" />
    <path
       style="fill:#008000;stroke:#000000;stroke-width:4.64318;stroke-linecap:round;stroke-linejoin:round;stroke-opacity:0.955017;paint-order:stroke markers fill"
       d=""
       id="path1708"
       transform="scale(0.26458333)" />
    <path
       id="path1430"
       style="fill:none;stroke:#000000;stroke-width:1.01732;stroke-linecap:round;stroke-linejoin:round;stroke-opacity:0.955017;paint-order:stroke markers fill"
       d="m 89.646604,63.474358 a 3.2131805,1.6101617 0 0 1 -3.21318,1.61016 3.2131805,1.6101617 0 0 1 -3.21318,-1.61016 3.2131805,1.6101617 0 0 1 3.21318,-1.61017 3.2131805,1.6101617 0 0 1 3.21318,1.61017 z m -13.24027,0 a 3.2131805,1.6101617 0 0 1 -3.21318,1.61016 3.2131805,1.6101617 0 0 1 -3.21317,-1.61016 3.2131805,1.6101617 0 0 1 3.21317,-1.61017 3.2131805,1.6101617 0 0 1 3.21318,1.61017 z m -11.70082,0 a 3.2131805,1.6101617 0 0 1 -3.21318,1.61016 3.2131805,1.6101617 0 0 1 -3.21319,-1.61016 3.2131805,1.6101617 0 0 1 3.21319,-1.61017 3.2131805,1.6101617 0 0 1 3.21318,1.61017 z m -11.70083,0 a 3.2131805,1.6101617 0 0 1 -3.21319,1.61016 3.2131805,1.6101617 0 0 1 -3.21318,-1.61016 3.2131805,1.6101617 0 0 1 3.21318,-1.61017 3.2131805,1.6101617 0 0 1 3.21319,1.61017 z m -6.60727,-4.29377 h 50.260597 c 1.575171,0 2.843252,0.90023 2.843252,2.01846 v 4.01389 c 0,1.11823 -1.268081,2.01846 -2.843252,2.01846 H 46.397414 c -1.57517,0 -2.84327,-0.90023 -2.84327,-2.01846 v -4.01389 c 0,-1.11823 1.2681,-2.01846 2.84327,-2.01846 z m 43.24919,-32.21137 a 3.2131805,1.6101617 0 0 1 -3.21318,1.61016 3.2131805,1.6101617 0 0 1 -3.21318,-1.61016 3.2131805,1.6101617 0 0 1 3.21318,-1.61016 3.2131805,1.6101617 0 0 1 3.21318,1.61016 z m -13.24027,0 a 3.2131805,1.6101617 0 0 1 -3.21318,1.61016 3.2131805,1.6101617 0 0 1 -3.21317,-1.61016 3.2131805,1.6101617 0 0 1 3.21317,-1.61016 3.2131805,1.6101617 0 0 1 3.21318,1.61016 z m -11.70082,0 a 3.2131805,1.6101617 0 0 1 -3.21318,1.61016 3.2131805,1.6101617 0 0 1 -3.21319,-1.61016 3.2131805,1.6101617 0 0 1 3.21319,-1.61016 3.2131805,1.6101617 0 0 1 3.21318,1.61016 z m -11.70083,0 a 3.2131805,1.6101617 0 0 1 -3.21319,1.61016 3.2131805,1.6101617 0 0 1 -3.21318,-1.61016 3.2131805,1.6101617 0 0 1 3.21318,-1.61016 3.2131805,1.6101617 0 0 1 3.21319,1.61016 z m -6.60727,-4.29376 h 50.260597 c 1.575171,0 2.843252,0.90023 2.843252,2.01845 v 4.01389 c 0,1.11823 -1.268081,2.01846 -2.843252,2.01846 H 46.397414 c -1.57517,0 -2.84327,-0.90023 -2.84327,-2.01846 v -4.01389 c 0,-1.11822 1.2681,-2.01845 2.84327,-2.01845 z M 7.3553755,17.899142 H 103.08089 c 1.35462,0 2.44516,0.900232 2.44516,2.018459 v 48.830057 c 0,1.11823 -1.09054,2.01846 -2.44516,2.01846 H 7.3553755 c -1.3546191,0 -2.4451586,-0.90023 -2.4451586,-2.01846 V 19.917601 c 0,-1.118227 1.0905395,-2.018459 2.4451586,-2.018459 z m 4.2261885,4.696306 h 29.40685 c 1.35462,0 2.44516,0.90023 2.44516,2.01846 v 40.64507 c 0,1.11822 -1.09054,2.01846 -2.44516,2.01846 h -29.40685 c -1.35462,0 -2.4451594,-0.90024 -2.4451594,-2.01846 v -40.64507 c 0,-1.11823 1.0905394,-2.01846 2.4451594,-2.01846 z m 0,0 h 85.810241 c 1.354614,0 2.445148,0.90023 2.445148,2.01846 v 40.51089 c 0,1.11823 -1.090534,2.01846 -2.445148,2.01846 H 11.581564 c -1.35462,0 -2.4451594,-0.90023 -2.4451594,-2.01846 v -40.51089 c 0,-1.11823 1.0905394,-2.01846 2.4451594,-2.01846 z M 34.47875,33.591691 h 6.479624 c 0.603686,0 1.089681,0.537729 1.089681,1.20567 v 0.462861 c 0,0.66795 -0.485995,1.205679 -1.089681,1.205679 H 34.47875 c -0.603684,0 -1.089682,-0.537729 -1.089682,-1.205679 v -0.462861 c 0,-0.667941 0.485998,-1.20567 1.089682,-1.20567 z m -0.773396,15.869577 c 1.060091,0.02759 2.333329,-0.224462 3.068978,0.853218 0.991076,1.346997 0.463191,3.85223 -1.21059,4.164368 -0.889607,0.04442 -1.825414,0.16233 -2.686366,-0.136481 -1.826533,-0.779451 -1.715824,-4.200016 0.195253,-4.775838 0.204498,-0.07022 0.418651,-0.105374 0.632725,-0.105267 z M 26.669521,32.218782 c 1.659386,0.02812 3.325315,-0.05858 4.980279,0.04756 1.628358,0.28217 2.273661,2.796682 1.073746,4.018107 -0.924222,1.020841 -2.28941,0.59558 -3.454519,0.686553 -1.07639,-0.04434 -2.170388,0.103404 -3.232228,-0.105268 -1.674131,-0.478678 -2.02469,-3.256793 -0.555972,-4.246814 0.34824,-0.261229 0.768127,-0.401472 1.188694,-0.400147 z m -1.630441,0.989905 c -4.808105,0.308968 -9.269467,4.122282 -10.634551,9.254961 -1.361583,4.580879 -0.165735,9.889869 2.915719,13.283242 3.469823,3.972123 9.288208,5.081913 13.742828,2.564105 1.615038,-0.875879 3.057213,-2.148007 4.16801,-3.715104 -0.599148,-0.498347 -1.012451,1.095253 -1.62662,1.361462 -3.043395,3.084019 -7.608894,4.158448 -11.509097,2.635274 -4.72183,-1.657828 -8.08108,-7.001516 -7.894694,-12.468959 0.07206,-4.583969 2.524556,-9.013229 6.237976,-11.079319 1.429108,-0.827628 3.012054,-1.337332 4.623118,-1.452954 -0.0076,-0.127569 -0.01512,-0.255138 -0.02268,-0.382708 z m -0.185084,2.855563 c -4.271111,0.385207 -8.058652,4.191624 -8.733235,8.889315 -0.888597,4.920156 1.805901,10.249344 6.060753,11.985193 3.67946,1.67343 8.19089,0.481419 10.82935,-2.798688 -0.71912,-0.44811 -1.437746,1.425851 -2.320851,1.62373 -3.559123,2.518695 -8.589347,1.868783 -11.553391,-1.449327 -2.821392,-2.998027 -3.643522,-7.984005 -1.935718,-11.883024 1.359267,-3.31846 4.416431,-5.656015 7.684933,-5.985369 -0.01061,-0.127282 -0.02123,-0.254556 -0.03184,-0.38183 z m 9.941039,3.958294 h 0.203418 c 0.603685,0 1.089684,0.53773 1.089684,1.20568 v 7.027365 c 0,0.66795 -0.485999,1.205679 -1.089684,1.205679 h -0.203418 c -0.603683,0 -1.089681,-0.537729 -1.089681,-1.205679 v -7.027365 c 0,-0.66795 0.485998,-1.20568 1.089681,-1.20568 z" />
    <path
       style="fill:#000000;stroke-width:0.253743;fill-rule:evenodd"
       d="m 126.81617,71.072736 -7.71493,-0.169709 -0.70176,-0.825707 -0.70177,-0.825698 V 42.442944 15.634269 l 0.61197,-0.696186 c 0.33658,-0.382906 0.87765,-0.788018 1.20239,-0.900255 0.7717,-0.266717 83.77443,-0.266717 84.54613,0 0.32472,0.112237 0.8658,0.517349 1.20239,0.900255 l 0.61196,0.696186 v 26.812265 26.812271 l -0.5153,0.576128 c -1.20492,1.347147 0.42424,1.286498 -36.23291,1.348763 -19.02628,0.0323 -38.06497,-0.01763 -42.30817,-0.11096 z m 24.04444,-5.42683 c 0.20784,-0.255124 0.27483,-4.581467 0.27483,-17.749062 V 30.485143 l -0.47467,0.740735 c -0.47072,0.734564 -0.49983,0.74063 -3.49264,0.728391 -1.88468,-0.0074 -3.3338,-0.150795 -3.85902,-0.381058 -0.76754,-0.336484 -0.88232,-0.318071 -1.31308,0.21069 -0.42182,0.517795 -0.75857,0.580729 -3.16689,0.591907 -1.48218,0.0064 -3.17732,-0.09839 -3.76697,-0.233907 -0.95138,-0.218659 -1.24022,-0.149839 -2.56525,0.611288 -3.78028,2.171463 -5.89586,7.426308 -5.23396,13.000638 0.3382,2.848361 1.28963,5.326301 2.73245,7.116483 1.63229,2.025268 2.99304,2.780253 5.29119,2.935691 1.81866,0.122999 1.97234,0.085 3.56342,-0.880205 2.20133,-1.335469 2.59128,-1.864049 2.20962,-2.995087 -0.63816,-1.891144 0.11033,-4.712952 1.38149,-5.208179 0.35936,-0.140011 0.3836,-0.58889 0.2739,-5.073673 -0.11879,-4.856373 -0.11347,-4.929062 0.41104,-5.614387 0.61734,-0.806635 1.27253,-0.8871 1.8649,-0.22904 0.3778,0.419691 0.41884,0.989306 0.41884,5.815313 0,5.08264 0.0245,5.382116 0.49094,5.991533 0.62014,0.810269 0.83772,3.079666 0.39366,4.105671 -0.38104,0.880343 -3.59927,4.545774 -5.11543,5.826235 -3.14794,2.658572 -7.75745,2.649009 -11.14985,-0.02316 -2.35257,-1.853073 -4.55282,-5.748331 -5.32663,-9.430082 -0.54364,-2.586647 -0.48755,-7.409828 0.11444,-9.839614 1.32683,-5.35548 4.1013,-8.956297 8.1882,-10.627006 0.99175,-0.405422 1.99847,-0.918584 2.23714,-1.140347 0.32311,-0.300241 1.18299,-0.405506 3.36692,-0.412157 l 2.93299,-0.0084 0.62228,0.8363 0.62226,0.836301 3.88158,0.07735 3.88156,0.07735 0.28941,0.702826 c 0.24618,0.597836 0.28991,0.08649 0.29279,-3.423756 0.002,-3.380479 -0.0617,-4.206453 -0.35653,-4.568353 -0.31904,-0.39163 -1.89355,-0.44177 -13.87109,-0.44177 -8.87565,0 -13.6632,0.09988 -13.95421,0.291017 -0.43206,0.283836 -0.44293,0.819832 -0.44047,21.717237 0.002,11.784417 0.0655,21.893761 0.14246,22.465202 0.12206,0.906237 0.23147,1.053143 0.85633,1.149814 0.39401,0.061 6.64757,0.131074 13.8968,0.15581 9.98753,0.0341 13.24699,-0.03677 13.45525,-0.292357 z m 8.22601,-2.555143 c 0.35326,-0.43362 0.32167,-0.495419 -0.45763,-0.895112 -0.4604,-0.236128 -1.1529,-0.429329 -1.53888,-0.429329 -0.82463,0 -2.29026,0.695451 -2.29026,1.086741 0,0.90408 3.58209,1.1027 4.28677,0.2377 z m 10.07713,0 c 0.35324,-0.43362 0.32165,-0.495419 -0.45765,-0.895112 -1.05445,-0.54081 -2.01499,-0.545071 -3.05137,-0.0135 -1.41635,0.726425 -0.33625,1.600116 1.80572,1.460637 0.85028,-0.05536 1.45956,-0.25282 1.7033,-0.551988 z m 9.91095,0.139586 c 0.45318,-0.450442 0.46896,-0.542574 0.14886,-0.868666 -0.89328,-0.91002 -4.15247,-0.533138 -3.99633,0.462129 0.14852,0.946581 3.00092,1.247979 3.84747,0.406537 z m 11.77062,-0.05451 c 0.39328,-0.482752 -0.40223,-1.177492 -1.52636,-1.333025 -1.91319,-0.264699 -3.49727,0.917924 -2.16925,1.619506 0.62429,0.329801 3.36674,0.117208 3.69561,-0.286481 z M 175.8702,57.689941 c 18.14317,0 22.89308,0.07364 23.30336,0.361305 l 0.5153,0.361305 V 43.191595 c 0,-14.400507 -0.0216,-15.20796 -0.40079,-14.980025 -0.22043,0.132509 -10.64087,0.274953 -23.1565,0.31654 -19.45165,0.06461 -22.85185,0.01668 -23.41787,-0.329865 l -0.66215,-0.405484 v 15.309901 15.309889 l 0.51531,-0.361305 c 0.41026,-0.28766 5.16017,-0.361305 23.30334,-0.361305 z M 159.01155,24.401858 c 0.90258,-0.919476 -1.25451,-1.749199 -3.02561,-1.163796 -0.97701,0.322937 -1.18074,0.743924 -0.67078,1.386142 0.37425,0.47132 3.18122,0.302473 3.69639,-0.222346 z m 10.27654,0.0135 c 0.19968,-0.245117 0.16659,-0.444151 -0.13545,-0.814371 -0.55562,-0.681065 -3.18364,-0.685825 -3.73684,-0.0064 -0.33089,0.406166 -0.34045,0.538388 -0.0681,0.941344 0.25997,0.38451 0.61896,0.445022 1.99649,0.336505 0.92374,-0.07278 1.79845,-0.278288 1.9438,-0.456709 z m 10.06073,0.02008 c 0.22154,-0.271947 0.19647,-0.447742 -0.11905,-0.834495 -0.57263,-0.701921 -3.18681,-0.684857 -3.75652,0.02454 -0.38697,0.481839 -0.38465,0.522428 0.0534,0.929911 0.55118,0.512705 3.37907,0.423972 3.82216,-0.11994 z m 11.30701,0.09839 c 0.4269,-0.388431 0.42831,-0.42475 0.0356,-0.913664 -0.58284,-0.725628 -3.17971,-0.725628 -3.76255,0 -0.39272,0.488914 -0.3913,0.525233 0.0356,0.913664 0.59361,0.540129 3.09775,0.540129 3.69137,0 z"
       id="path1895" />
    <g
       id="g2308"
       transform="translate(-124.88057,85.801057)">
      <g
         id="g2293"
         transform="translate(13.967361,-11.693604)">
        <path
           id="path1995"
           style="fill:none;stroke:#000000;stroke-width:1.01732;stroke-linecap:round;stroke-linejoin:round;stroke-opacity:0.955017;paint-order:stroke markers fill"
           d="m 199.76303,191.7848 a 3.2131805,1.6101617 0 0 1 -3.21318,1.61016 3.2131805,1.6101617 0 0 1 -3.21318,-1.61016 3.2131805,1.6101617 0 0 1 3.21318,-1.61017 3.2131805,1.6101617 0 0 1 3.21318,1.61017 z m -13.24027,0 a 3.2131805,1.6101617 0 0 1 -3.21318,1.61016 3.2131805,1.6101617 0 0 1 -3.21317,-1.61016 3.2131805,1.6101617 0 0 1 3.21317,-1.61017 3.2131805,1.6101617 0 0 1 3.21318,1.61017 z m -11.70082,0 a 3.2131805,1.6101617 0 0 1 -3.21318,1.61016 3.2131805,1.6101617 0 0 1 -3.21319,-1.61016 3.2131805,1.6101617 0 0 1 3.21319,-1.61017 3.2131805,1.6101617 0 0 1 3.21318,1.61017 z m -11.70083,0 a 3.2131805,1.6101617 0 0 1 -3.21319,1.61016 3.2131805,1.6101617 0 0 1 -3.21318,-1.61016 3.2131805,1.6101617 0 0 1 3.21318,-1.61017 3.2131805,1.6101617 0 0 1 3.21319,1.61017 z m -6.60727,-4.29377 h 50.2606 c 1.57518,0 2.84327,0.90023 2.84327,2.01846 v 4.01389 c 0,1.11823 -1.26809,2.01846 -2.84327,2.01846 h -50.2606 c -1.57517,0 -2.84327,-0.90023 -2.84327,-2.01846 v -4.01389 c 0,-1.11823 1.2681,-2.01846 2.84327,-2.01846 z m 43.24919,-32.21137 a 3.2131805,1.6101617 0 0 1 -3.21318,1.61016 3.2131805,1.6101617 0 0 1 -3.21318,-1.61016 3.2131805,1.6101617 0 0 1 3.21318,-1.61016 3.2131805,1.6101617 0 0 1 3.21318,1.61016 z m -13.24027,0 a 3.2131805,1.6101617 0 0 1 -3.21318,1.61016 3.2131805,1.6101617 0 0 1 -3.21317,-1.61016 3.2131805,1.6101617 0 0 1 3.21317,-1.61016 3.2131805,1.6101617 0 0 1 3.21318,1.61016 z m -11.70082,0 a 3.2131805,1.6101617 0 0 1 -3.21318,1.61016 3.2131805,1.6101617 0 0 1 -3.21319,-1.61016 3.2131805,1.6101617 0 0 1 3.21319,-1.61016 3.2131805,1.6101617 0 0 1 3.21318,1.61016 z m -11.70083,0 a 3.2131805,1.6101617 0 0 1 -3.21319,1.61016 3.2131805,1.6101617 0 0 1 -3.21318,-1.61016 3.2131805,1.6101617 0 0 1 3.21318,-1.61016 3.2131805,1.6101617 0 0 1 3.21319,1.61016 z m -6.60727,-4.29376 h 50.2606 c 1.57518,0 2.84327,0.90023 2.84327,2.01845 v 4.01389 c 0,1.11823 -1.26809,2.01846 -2.84327,2.01846 h -50.2606 c -1.57517,0 -2.84327,-0.90023 -2.84327,-2.01846 v -4.01389 c 0,-1.11822 1.2681,-2.01845 2.84327,-2.01845 z m -39.04204,-4.77631 h 95.72554 c 1.35462,0 2.44516,0.90023 2.44516,2.01846 v 48.83005 c 0,1.11823 -1.09054,2.01846 -2.44516,2.01846 H 117.4718 c -1.35462,0 -2.44516,-0.90023 -2.44516,-2.01846 v -48.83005 c 0,-1.11823 1.09054,-2.01846 2.44516,-2.01846 z m 4.22619,4.6963 h 29.40685 c 1.35462,0 2.44516,0.90023 2.44516,2.01846 v 40.64507 c 0,1.11822 -1.09054,2.01846 -2.44516,2.01846 h -29.40685 c -1.35462,0 -2.44516,-0.90024 -2.44516,-2.01846 v -40.64507 c 0,-1.11823 1.09054,-2.01846 2.44516,-2.01846 z m 0,0 h 85.81025 c 1.35462,0 2.44516,0.90023 2.44516,2.01846 v 40.51089 c 0,1.11823 -1.09054,2.01846 -2.44516,2.01846 h -85.81025 c -1.35462,0 -2.44516,-0.90023 -2.44516,-2.01846 v -40.51089 c 0,-1.11823 1.09054,-2.01846 2.44516,-2.01846 z" />
        <path
           style="fill:#ffffff;stroke:#000000;stroke-width:9.62807;stroke-linecap:round;stroke-linejoin:round;stroke-opacity:0.955017;paint-order:stroke markers fill"
           d="m 455.74059,734.69387 -2.72852,-1.91113 v -77.80006 c 0,-69.09042 0.21597,-78.01603 1.9292,-79.72926 1.70008,-1.70007 8.90729,-1.9292 60.68223,-1.9292 51.77493,0 58.98214,0.22913 60.68221,1.9292 1.71318,1.71317 1.92921,10.62787 1.92921,79.6086 0,73.6954 -0.11516,77.78361 -2.2451,79.71118 -2.02198,1.82988 -7.97314,2.03179 -59.88291,2.03179 -50.17977,0 -57.99086,-0.24729 -60.36632,-1.91112 z"
           id="path2052"
           transform="scale(0.26458333)" />
        <path
           style="fill:#ffffff;stroke:#000000;stroke-width:9.62807;stroke-linecap:round;stroke-linejoin:round;stroke-opacity:0.955017;paint-order:stroke markers fill"
           d="m 585.67647,734.45656 c -2.36012,-1.91207 -2.61144,-3.15792 -2.28444,-11.32431 0.33558,-8.38049 0.63348,-9.31009 3.43661,-10.72406 4.47448,-2.25704 194.40888,-2.25704 198.88335,0 2.80314,1.41397 3.10104,2.34357 3.43662,10.72406 0.59518,14.86367 11.21633,13.47274 -102.87829,13.47274 -91.4494,0 -98.11778,-0.14242 -100.59385,-2.14843 z m 29.83697,-4.07905 c 9.16608,-7.21003 -2.33866,-16.31797 -16.71705,-13.23436 -9.73137,2.08701 -12.40218,9.77845 -4.82431,13.89312 5.17673,2.81088 17.61396,2.43054 21.54136,-0.65876 z m 44.1963,0 c 9.16608,-7.21003 -2.33866,-16.31797 -16.71705,-13.23436 -9.51635,2.04089 -12.1944,9.88688 -4.75458,13.92965 5.11252,2.77813 17.56869,2.37477 21.47163,-0.69529 z m 44.26411,-0.0533 c 4.15821,-3.27085 3.85863,-7.85198 -0.73685,-11.26752 -6.35004,-4.71961 -23.05509,-2.20206 -24.60046,3.70743 -1.65127,6.31447 3.71658,10.05173 14.52735,10.11438 5.83017,0.0338 8.24523,-0.53687 10.80996,-2.55429 z m 50.9561,-0.38979 c 7.82943,-7.08555 -4.02118,-16.04689 -17.28084,-13.06764 -7.15491,1.6076 -10.48659,5.16816 -8.94301,9.55733 1.74407,4.95921 5.98296,6.65815 15.48169,6.20501 5.88933,-0.28096 8.91318,-1.0395 10.74216,-2.6947 z"
           id="path2091"
           transform="scale(0.26458333)" />
        <path
           style="fill:#ffffff;stroke:#000000;stroke-width:9.62807;stroke-linecap:round;stroke-linejoin:round;stroke-opacity:0.955017;paint-order:stroke markers fill"
           d="m 588.09098,597.75382 c -4.33793,-1.75272 -4.90549,-3.18011 -4.92656,-12.39015 -0.0163,-7.1115 0.34834,-8.47436 2.70971,-10.12832 2.41422,-1.69098 14.01987,-1.91113 100.75006,-1.91113 65.22099,0 98.81617,0.42527 100.39619,1.27087 2.03784,1.09062 2.37464,2.63642 2.37464,10.89875 0,7.45689 -0.45767,10.00782 -2.02966,11.3128 -1.67699,1.39215 -18.90232,1.72734 -99.13475,1.92909 -62.38913,0.15688 -98.18998,-0.19416 -100.13963,-0.98191 z m 27.43811,-5.18951 c 4.35902,-2.85614 4.42539,-8.5717 0.1322,-11.3847 -7.08378,-4.64147 -20.90211,-3.13814 -24.72046,2.68941 -1.77508,2.70912 -1.76535,3.225 0.11505,6.09485 1.12986,1.72437 3.26509,3.65278 4.74498,4.28536 4.0706,1.73997 16.06456,0.7156 19.72823,-1.68492 z m 44.1963,0 c 4.35902,-2.85614 4.42539,-8.5717 0.1322,-11.3847 -7.08378,-4.64147 -20.90211,-3.13814 -24.72046,2.68941 -1.77509,2.70912 -1.76535,3.225 0.11505,6.09485 1.12986,1.72437 3.2651,3.65278 4.74498,4.28536 4.0706,1.73997 16.06456,0.7156 19.72823,-1.68492 z m 44.19629,0 c 4.35902,-2.85614 4.4254,-8.5717 0.13221,-11.3847 -7.08378,-4.64147 -20.90211,-3.13814 -24.72046,2.68941 -1.77509,2.70912 -1.76535,3.225 0.11505,6.09485 1.12986,1.72437 3.2651,3.65278 4.74498,4.28536 4.0706,1.73997 16.06456,0.7156 19.72822,-1.68492 z m 48.02499,1.09745 c 7.71712,-3.22442 6.92776,-11.50904 -1.35711,-14.24329 -10.7968,-3.56327 -23.95249,1.76779 -22.144,8.97337 1.53936,6.13329 14.48632,9.03654 23.50111,5.26992 z"
           id="path2130"
           transform="scale(0.26458333)" />
        <path
           style="fill:#ffffff;stroke:#000000;stroke-width:9.62807;stroke-linecap:round;stroke-linejoin:round;stroke-opacity:0.955017;paint-order:stroke markers fill"
           d="m 439.78081,748.1983 -2.72851,-1.91114 v -93.7779 -93.77791 l 2.72851,-1.91113 c 2.43979,-1.7089 22.02707,-1.91113 185.10576,-1.91113 163.07869,0 182.66597,0.20223 185.10575,1.91113 l 2.72852,1.91113 v 93.77791 93.7779 l -2.72852,1.91114 c -4.16363,2.91631 -366.04787,2.91631 -370.21151,0 z m 349.45693,-8.03941 c 2.14067,-0.74624 4.43293,-2.36729 5.09389,-3.60232 0.74868,-1.39892 1.20176,-32.44734 1.20176,-82.35288 v -80.10738 l -2.66934,-2.8414 -2.66936,-2.84139 H 622.16141 454.12814 l -3.01339,3.01338 -3.01338,3.01339 v 81.1004 81.1004 l 3.98994,2.43271 c 3.92511,2.39318 6.66551,2.43278 168.62212,2.4373 117.04518,0.004 165.75719,-0.38759 168.52431,-1.35221 z"
           id="path2169"
           transform="scale(0.26458333)" />
      </g>
      <g
         id="g1456"
         transform="matrix(0.50137851,0,0,0.61764244,132.79466,-1.7822969)">
        <path
           id="path1079"
           style="fill:none;stroke:#000000;stroke-width:0.829521;stroke-linecap:round;stroke-linejoin:round;stroke-miterlimit:4;stroke-dasharray:none;stroke-opacity:0.955017;paint-order:stroke markers fill"
           d="m 45.658501,247.07456 h 11.804472 c 1.099784,0 1.985162,0.91321 1.985162,2.04756 v 0.78606 c 0,1.13435 -0.885378,2.04756 -1.985162,2.04756 H 45.658501 c -1.099781,0 -1.985165,-0.91321 -1.985165,-2.04756 v -0.78606 c 0,-1.13435 0.885384,-2.04756 1.985165,-2.04756 z m -1.40896,26.95079 c 1.931256,0.0469 4.250819,-0.3812 5.591013,1.44899 1.805527,2.28757 0.843834,6.54212 -2.205432,7.07221 -1.620671,0.0755 -3.32551,0.27568 -4.893977,-0.23178 -3.327549,-1.32371 -3.125859,-7.13275 0.355709,-8.11064 0.37255,-0.11919 0.762691,-0.17897 1.152687,-0.17878 z M 31.431778,244.74299 c 3.02304,0.0478 6.058002,-0.0994 9.072989,0.0808 2.966516,0.4792 4.142117,4.74952 1.956132,6.82383 -1.683731,1.73366 -4.170808,1.01145 -6.293385,1.16595 -1.96095,-0.0753 -3.953977,0.17561 -5.888419,-0.17878 -3.049904,-0.81292 -3.688547,-5.5309 -1.012861,-7.21222 0.634419,-0.44364 1.399363,-0.6818 2.165544,-0.67955 z m -2.97031,1.68114 c -8.759328,0.5247 -16.886961,7.00072 -19.3738489,15.71739 -2.48051,7.77956 -0.301934,16.79564 5.3118069,22.5585 6.321268,6.74572 16.921106,8.63044 25.036457,4.35453 2.94225,-1.48748 5.56958,-3.6479 7.593211,-6.30924 -1.091517,-0.84633 -1.844466,1.86002 -2.963348,2.31213 -5.544409,5.23748 -13.861758,7.06215 -20.967083,4.4754 C 14.496511,286.7174 8.3766861,277.6424 8.7162411,268.35721 c 0.131283,-7.78481 4.5991939,-15.30687 11.3642399,-18.81564 2.603525,-1.40553 5.487311,-2.27114 8.42232,-2.4675 -0.01377,-0.21665 -0.02755,-0.4333 -0.04133,-0.64994 z m -0.337185,4.8495 c -7.781038,0.65419 -14.681118,7.1185 -15.910061,15.09644 -1.618832,8.35573 3.289959,17.40612 11.041379,20.35405 6.703178,2.84194 14.922026,0.81759 19.72873,-4.75291 -1.310081,-0.76102 -2.619263,2.42146 -4.228087,2.75752 -6.483951,4.27742 -15.647931,3.1737 -21.047777,-2.46134 -5.139965,-5.09146 -6.637708,-13.55897 -3.526459,-20.18056 2.476289,-5.63563 8.04578,-9.60542 14.000285,-10.16475 -0.01933,-0.21615 -0.03868,-0.4323 -0.05801,-0.64845 z m 18.110421,6.72224 h 0.370583 c 1.099785,0 1.985168,0.91321 1.985168,2.04756 v 11.93436 c 0,1.13435 -0.885383,2.04756 -1.985168,2.04756 h -0.370583 c -1.099781,0 -1.985163,-0.91321 -1.985163,-2.04756 v -11.93436 c 0,-1.13435 0.885382,-2.04756 1.985163,-2.04756 z" />
        <path
           style="fill:#ffffff;stroke:#000000;stroke-width:4.64318;stroke-linecap:round;stroke-linejoin:round;stroke-opacity:0.955017;paint-order:stroke markers fill"
           d="m 161.94572,1063.7194 c -5.69576,-3.0097 -7.88355,-9.5673 -5.56607,-16.6836 2.3363,-7.1741 7.73547,-9.9397 17.76532,-9.0996 14.46799,1.2117 20.25854,14.0808 10.65633,23.6831 -3.82762,3.8276 -5.97683,4.6627 -11.64273,4.5238 -3.82171,-0.094 -8.8675,-1.1844 -11.21285,-2.4237 z"
           id="path1136"
           transform="scale(0.26458333)" />
        <path
           style="fill:#ffffff;stroke:#000000;stroke-width:4.64318;stroke-linecap:round;stroke-linejoin:round;stroke-opacity:0.955017;paint-order:stroke markers fill"
           d="m 170.93365,1030.5148 c -0.4379,-1.1411 -0.59588,-13.2455 -0.35107,-26.8987 0.44463,-24.79786 0.44912,-24.82447 4.27822,-25.36588 2.10822,-0.29808 4.44577,0.42457 5.19456,1.6059 1.54655,2.4399 1.92747,46.30628 0.43587,50.19338 -1.16949,3.0476 -8.43099,3.4012 -9.55758,0.4653 z"
           id="path1175"
           transform="scale(0.26458333)" />
        <path
           style="fill:#ffffff;stroke:#000000;stroke-width:4.64318;stroke-linecap:round;stroke-linejoin:round;stroke-opacity:0.955017;paint-order:stroke markers fill"
           d="m 169.53649,948.16551 c -1.38795,-1.38795 -2.52355,-3.82875 -2.52355,-5.42399 0,-5.85904 3.5455,-6.60739 29.12224,-6.14686 l 24.6752,0.4443 0.53924,4.73849 c 0.89089,7.82859 -2.41817,8.91161 -27.22871,8.91161 -17.91415,0 -22.53522,-0.47435 -24.58442,-2.52355 z"
           id="path1214"
           transform="scale(0.26458333)" />
        <path
           style="fill:#ffffff;stroke:#000000;stroke-width:4.64318;stroke-linecap:round;stroke-linejoin:round;stroke-opacity:0.955017;paint-order:stroke markers fill"
           d="m 117.23024,952.81693 c -8.49507,-1.72412 -13.64484,-11.26325 -8.90691,-16.4986 1.36969,-1.51349 2.10998,-3.13216 1.64508,-3.59705 -0.46489,-0.4649 0.36974,-1.85156 1.85474,-3.08147 1.98769,-1.64626 7.96591,-2.23621 22.66051,-2.23621 19.87983,0 19.97618,0.0182 23.83606,4.50576 5.07407,5.89918 4.98841,12.35667 -0.22892,17.2581 -3.72311,3.49768 -5.62551,3.88421 -20.47515,4.16012 -9.00387,0.16729 -18.17731,-0.0625 -20.38541,-0.51065 z"
           id="path1292"
           transform="scale(0.26458333)" />
        <path
           style="fill:#ffffff;stroke:#000000;stroke-width:4.64318;stroke-linecap:round;stroke-linejoin:round;stroke-opacity:0.955017;paint-order:stroke markers fill"
           d="m 100.36836,1095.1567 c -31.183183,-6.3923 -54.543221,-28.8248 -62.579011,-60.0941 -6.799121,-26.4572 1.689398,-56.37229 21.656973,-76.32321 12.906548,-12.89578 38.446093,-24.51433 41.900998,-19.06177 3.29547,5.20095 1.50181,7.55108 -7.804013,10.22511 -18.556562,5.33224 -35.32492,20.09394 -44.266492,38.96913 -4.865073,10.26992 -5.114739,11.73764 -5.114739,30.06764 0,18.2649 0.261075,19.8156 5.001937,29.7091 2.751066,5.741 7.310577,13.3016 10.132249,16.8013 22.720809,28.1799 64.964428,33.19 94.780318,11.2408 7.14602,-5.2606 10.54286,-6.8672 12.36443,-5.8478 2.05785,1.1517 1.24847,2.4308 -4.48035,7.0807 -9.78686,7.9437 -22.40348,13.9434 -34.88457,16.5889 -11.73452,2.4873 -17.08711,2.6163 -26.70773,0.6442 z"
           id="path1331"
           transform="scale(0.26458333)" />
      </g>
    </g>
    <g
       id="g3827"
       transform="matrix(1.2219372,0,0,1.5272004,-30.083386,-90.369233)">
      <g
         id="g3803"
         transform="translate(51.825483,48.727008)">
        <path
           id="path2310"
           style="fill:none;stroke:#000000;stroke-width:1.01732;stroke-linecap:round;stroke-linejoin:round;stroke-opacity:0.955017;paint-order:stroke markers fill"
           d="m 169.61655,168.75072 a 3.2131805,1.6101617 0 0 1 -3.21318,1.61016 3.2131805,1.6101617 0 0 1 -3.21318,-1.61016 3.2131805,1.6101617 0 0 1 3.21318,-1.61017 3.2131805,1.6101617 0 0 1 3.21318,1.61017 z m -13.24027,0 a 3.2131805,1.6101617 0 0 1 -3.21318,1.61016 3.2131805,1.6101617 0 0 1 -3.21317,-1.61016 3.2131805,1.6101617 0 0 1 3.21317,-1.61017 3.2131805,1.6101617 0 0 1 3.21318,1.61017 z m -11.70082,0 a 3.2131805,1.6101617 0 0 1 -3.21318,1.61016 3.2131805,1.6101617 0 0 1 -3.21319,-1.61016 3.2131805,1.6101617 0 0 1 3.21319,-1.61017 3.2131805,1.6101617 0 0 1 3.21318,1.61017 z m -11.70083,0 a 3.2131805,1.6101617 0 0 1 -3.21319,1.61016 3.2131805,1.6101617 0 0 1 -3.21318,-1.61016 3.2131805,1.6101617 0 0 1 3.21318,-1.61017 3.2131805,1.6101617 0 0 1 3.21319,1.61017 z m -6.60727,-4.29377 h 50.2606 c 1.57518,0 2.84327,0.90023 2.84327,2.01846 v 4.01389 c 0,1.11823 -1.26809,2.01846 -2.84327,2.01846 h -50.2606 c -1.57517,0 -2.84327,-0.90023 -2.84327,-2.01846 v -4.01389 c 0,-1.11823 1.2681,-2.01846 2.84327,-2.01846 z m 43.24919,-32.21137 a 3.2131805,1.6101617 0 0 1 -3.21318,1.61016 3.2131805,1.6101617 0 0 1 -3.21318,-1.61016 3.2131805,1.6101617 0 0 1 3.21318,-1.61016 3.2131805,1.6101617 0 0 1 3.21318,1.61016 z m -13.24027,0 a 3.2131805,1.6101617 0 0 1 -3.21318,1.61016 3.2131805,1.6101617 0 0 1 -3.21317,-1.61016 3.2131805,1.6101617 0 0 1 3.21317,-1.61016 3.2131805,1.6101617 0 0 1 3.21318,1.61016 z m -11.70082,0 a 3.2131805,1.6101617 0 0 1 -3.21318,1.61016 3.2131805,1.6101617 0 0 1 -3.21319,-1.61016 3.2131805,1.6101617 0 0 1 3.21319,-1.61016 3.2131805,1.6101617 0 0 1 3.21318,1.61016 z m -11.70083,0 a 3.2131805,1.6101617 0 0 1 -3.21319,1.61016 3.2131805,1.6101617 0 0 1 -3.21318,-1.61016 3.2131805,1.6101617 0 0 1 3.21318,-1.61016 3.2131805,1.6101617 0 0 1 3.21319,1.61016 z m -6.60727,-4.29376 h 50.2606 c 1.57518,0 2.84327,0.90023 2.84327,2.01845 v 4.01389 c 0,1.11823 -1.26809,2.01846 -2.84327,2.01846 h -50.2606 c -1.57517,0 -2.84327,-0.90023 -2.84327,-2.01846 v -4.01389 c 0,-1.11822 1.2681,-2.01845 2.84327,-2.01845 z M 87.325321,123.1755 h 95.725539 c 1.35462,0 2.44516,0.90023 2.44516,2.01846 v 48.83006 c 0,1.11823 -1.09054,2.01846 -2.44516,2.01846 H 87.325321 c -1.35462,0 -2.44516,-0.90023 -2.44516,-2.01846 v -48.83006 c 0,-1.11823 1.09054,-2.01846 2.44516,-2.01846 z m 4.22619,4.69631 h 29.406849 c 1.35462,0 2.44516,0.90023 2.44516,2.01846 v 40.64507 c 0,1.11822 -1.09054,2.01846 -2.44516,2.01846 H 91.551511 c -1.35462,0 -2.44516,-0.90024 -2.44516,-2.01846 v -40.64507 c 0,-1.11823 1.09054,-2.01846 2.44516,-2.01846 z m 0,0 h 85.810249 c 1.35462,0 2.44516,0.90023 2.44516,2.01846 v 40.51089 c 0,1.11823 -1.09054,2.01846 -2.44516,2.01846 H 91.551511 c -1.35462,0 -2.44516,-0.90023 -2.44516,-2.01846 v -40.51089 c 0,-1.11823 1.09054,-2.01846 2.44516,-2.01846 z" />
        <path
           style="fill:#374845;stroke:#000000;stroke-width:9.62807;stroke-linecap:round;stroke-linejoin:round;stroke-opacity:0.955017;paint-order:stroke markers fill"
           d="m 341.60057,646.76299 -2.76227,-3.00571 v -54.66252 c 0,-55.26109 1.00199,-98.18454 2.33963,-100.22567 0.4081,-0.62274 26.80944,-1.44615 59.9199,-1.8688 52.27185,-0.66724 59.41085,-0.53505 61.07683,1.13093 1.65746,1.65745 1.8842,11.30296 1.86769,79.44924 -0.01,42.6595 -0.46824,78.27104 -1.01756,79.13672 -0.77868,1.22718 -13.96149,1.73676 -59.83035,2.31275 l -58.83161,0.73878 z"
           id="path2870"
           transform="scale(0.26458333)" />
        <path
           style="fill:#374845;stroke:#000000;stroke-width:9.62807;stroke-linecap:round;stroke-linejoin:round;stroke-opacity:0.955017;paint-order:stroke markers fill"
           d="m 470.24651,645.84484 c -1.46578,-2.73883 -1.69183,-15.94621 -0.31012,-18.1192 2.4336,-3.82729 8.53151,-4.0666 103.16083,-4.04865 74.42677,0.0141 96.04585,0.35911 98.441,1.57085 2.91003,1.47224 3.06919,2.09201 3.06919,11.95174 v 10.39898 l -101.54312,0.314 c -99.40778,0.3074 -101.56993,0.26392 -102.81778,-2.06772 z m 30.90507,-1.88892 c 4.79851,-2.01159 4.20389,-10.39394 -0.90235,-12.7205 -4.46065,-2.03241 -15.99619,-1.78515 -20.28928,0.43489 -2.94575,1.52331 -3.62205,2.66139 -3.62205,6.09518 0,3.11616 0.72356,4.61458 2.76226,5.72032 5.73299,3.1094 15.27056,3.31273 22.05142,0.47011 z m 44.85687,-0.48247 c 2.77638,-1.49341 3.75698,-6.60561 1.82271,-9.50245 -3.79163,-5.6785 -22.56578,-5.6785 -26.35741,0 -1.93283,2.89468 -0.95304,8.00932 1.82271,9.51481 6.17569,3.34951 16.47238,3.34391 22.71199,-0.0124 z m 44.1963,0 c 2.0411,-1.0979 2.76227,-2.58814 2.76227,-5.70796 0,-5.41929 -4.47827,-7.96822 -13.99953,-7.96822 -11.00032,0 -15.90019,3.87477 -13.69318,10.82844 1.7881,5.63383 16.60445,7.32626 24.93044,2.84774 z m 50.6768,-0.81746 c 3.36358,-3.04399 3.0281,-7.29159 -0.81461,-10.31427 -2.44441,-1.92277 -5.00892,-2.54445 -10.4962,-2.54445 -11.36366,0 -17.84745,4.80472 -14.62051,10.83433 3.26369,6.09825 19.98714,7.4038 25.93132,2.02439 z"
           id="path2909"
           transform="scale(0.26458333)" />
        <path
           style="fill:#374845;stroke:#000000;stroke-width:9.62807;stroke-linecap:round;stroke-linejoin:round;stroke-opacity:0.955017;paint-order:stroke markers fill"
           d="m 473.9172,510.57382 c -4.2987,-1.71551 -4.90534,-3.17233 -4.92656,-11.83086 -0.0339,-13.85392 -10.48022,-12.58366 103.4851,-12.58366 77.77975,0 99.04345,0.32923 100.72606,1.55959 1.77546,1.29824 2.07194,3.19589 1.76924,11.32396 -0.33561,9.01166 -0.60023,9.88373 -3.43282,11.31289 -3.87868,1.95696 -192.74154,2.16537 -197.62102,0.21808 z m 28.13238,-5.32268 c 1.41173,-1.27759 2.52484,-3.8123 2.52484,-5.74939 0,-10.5305 -26.81423,-11.18563 -28.01831,-0.68455 -0.76574,6.67813 4.15295,9.5807 15.36515,9.06715 5.32322,-0.24382 8.36068,-1.03351 10.12832,-2.63321 z m 44.1963,0 c 1.41173,-1.27759 2.52484,-3.8123 2.52484,-5.74939 0,-10.5305 -26.81423,-11.18563 -28.01832,-0.68455 -0.76573,6.67813 4.15296,9.5807 15.36516,9.06715 5.32322,-0.24382 8.36068,-1.03351 10.12832,-2.63321 z m 44.1963,0 c 1.41173,-1.27759 2.52484,-3.8123 2.52484,-5.74939 0,-10.5305 -26.81423,-11.18563 -28.01832,-0.68455 -0.76573,6.67813 4.15296,9.5807 15.36516,9.06715 5.32322,-0.24382 8.36068,-1.03351 10.12832,-2.63321 z m 48.86957,0.56441 c 5.01405,-3.05712 5.57447,-8.74003 1.14793,-11.64041 -7.18176,-4.70567 -21.15232,-3.29047 -24.96535,2.52895 -1.77509,2.70912 -1.76535,3.225 0.11503,6.09485 2.61243,3.98709 5.88802,5.28441 13.57405,5.3761 4.0638,0.0485 7.48685,-0.74896 10.12832,-2.35949 z"
           id="path2948"
           transform="scale(0.26458333)" />
        <path
           style="fill:#a05a2c;stroke:#000000;stroke-width:9.62807;stroke-linecap:round;stroke-linejoin:round;stroke-opacity:0.955017;paint-order:stroke markers fill"
           d="m 325.33387,660.48914 c -2.41199,-2.41198 -2.45535,-4.09224 -2.45535,-95.14481 0,-91.05256 0.0434,-92.73282 2.45535,-95.14481 2.43335,-2.43334 4.09225,-2.45535 185.10576,-2.45535 163.32592,0 182.93909,0.2022 185.37892,1.91113 l 2.72852,1.91112 v 93.65725 c 0,89.17449 -0.10742,93.7545 -2.2451,95.68903 -2.06797,1.8715 -16.69379,2.03179 -185.37892,2.03179 -181.49693,0 -183.15577,-0.0219 -185.58918,-2.45535 z m 351.04079,-7.7347 c 6.30833,-3.0249 6.22749,-1.84159 5.90203,-86.39099 l -0.30323,-78.77976 -2.97627,-3.16755 -2.97628,-3.16754 -167.67054,0.039 c -129.86762,0.0302 -168.10973,0.37623 -169.61846,1.53459 -4.74526,3.6433 -4.80431,4.69582 -4.80431,85.63335 v 78.77467 l 3.98994,3.86718 3.98994,3.86718 165.69779,-0.36866 c 125.6817,-0.27963 166.43958,-0.72435 168.76939,-1.84151 z"
           id="path3282"
           transform="scale(0.26458333)" />
        <path
           style="fill:#784421;stroke:#000000;stroke-width:9.62807;stroke-linecap:round;stroke-linejoin:round;stroke-opacity:0.955017;paint-order:stroke markers fill"
           d="m 468.97185,567.79968 v -53.34309 l 3.1491,1.19729 c 4.26609,1.62197 196.91278,1.62197 201.17886,0 l 3.14911,-1.19729 v 53.34309 53.34309 l -3.14911,-1.19729 c -1.9501,-0.74142 -40.24898,-1.19729 -100.58943,-1.19729 -60.34045,0 -98.63932,0.45587 -100.58943,1.19729 l -3.1491,1.19729 z"
           id="path3358"
           transform="scale(0.26458333)" />
        <path
           style="fill:#784421;stroke:#000000;stroke-width:3.8922;stroke-linecap:round;stroke-linejoin:round;stroke-opacity:0.955017;paint-order:stroke markers fill"
           d="m 624.3573,502.69958 c -2.76649,-0.5422 -4.95797,-2.50903 -4.03489,-3.62127 2.13658,-2.57442 11.18757,-3.40438 15.55446,-1.42633 2.65699,1.20352 2.93176,2.08868 1.09653,3.53228 -2.31497,1.82095 -7.73502,2.47195 -12.6161,1.51532 z"
           id="path3397"
           transform="scale(0.26458333)" />
        <path
           style="fill:#784421;stroke:#000000;stroke-width:3.8922;stroke-linecap:round;stroke-linejoin:round;stroke-opacity:0.955017;paint-order:stroke markers fill"
           d="m 571.84732,502.03299 c -3.23533,-1.46614 -2.32213,-3.70388 2.04018,-4.99935 4.302,-1.27755 10.44627,-0.65894 12.94027,1.30284 1.0694,0.84119 1.16581,1.14108 0.69736,2.16922 -0.77218,1.69474 -1.43436,1.86427 -8.10172,2.07418 -4.51879,0.14226 -6.34648,0.0103 -7.57609,-0.54689 z"
           id="path3436"
           transform="scale(0.26458333)" />
        <path
           style="fill:#784421;stroke:#000000;stroke-width:3.8922;stroke-linecap:round;stroke-linejoin:round;stroke-opacity:0.955017;paint-order:stroke markers fill"
           d="m 528.23287,502.40251 c -1.65549,-0.32382 -2.9708,-2.01985 -2.35416,-3.03558 2.03353,-3.34965 12.96963,-4.02681 16.76887,-1.03833 1.81198,1.42531 0.93958,3.14545 -1.96639,3.87718 -2.03788,0.51314 -10.1734,0.64171 -12.44832,0.19673 z"
           id="path3475"
           transform="scale(0.26458333)" />
        <path
           style="fill:#784421;stroke:#000000;stroke-width:3.8922;stroke-linecap:round;stroke-linejoin:round;stroke-opacity:0.955017;paint-order:stroke markers fill"
           d="m 484.06269,502.40251 c -1.65549,-0.32382 -2.9708,-2.01985 -2.35416,-3.03558 1.52496,-2.51192 8.4281,-3.7793 13.13258,-2.41107 3.69346,1.0742 4.65621,1.84666 4.26153,3.41921 -0.24681,0.98334 -0.79775,1.379 -2.52628,1.81425 -2.08953,0.52615 -10.20672,0.66444 -12.51367,0.21319 z"
           id="path3514"
           transform="scale(0.26458333)" />
        <path
           style="fill:#784421;stroke:#000000;stroke-width:3.8922;stroke-linecap:round;stroke-linejoin:round;stroke-opacity:0.955017;paint-order:stroke markers fill"
           d="m 626.26536,640.69685 c -2.98497,-0.35593 -6.46372,-1.81402 -6.78332,-2.84318 -0.3406,-1.0968 4.07449,-2.62578 8.45664,-2.9286 4.6004,-0.3179 7.81143,0.32875 9.36956,1.88687 0.93498,0.93499 0.94904,1.0706 0.19712,1.90146 -1.44954,1.60173 -6.68839,2.5262 -11.24,1.98345 z"
           id="path3553"
           transform="scale(0.26458333)" />
        <path
           style="fill:#784421;stroke:#000000;stroke-width:3.8922;stroke-linecap:round;stroke-linejoin:round;stroke-opacity:0.955017;paint-order:stroke markers fill"
           d="m 575.70121,640.69065 c -3.35437,-0.38773 -5.95553,-1.65823 -5.95553,-2.90887 0,-1.75885 3.16782,-2.73367 8.93329,-2.749 5.70535,-0.0152 8.70728,0.71495 9.18977,2.23512 0.43686,1.37645 0.0224,1.79155 -2.61971,2.62375 -2.98606,0.94054 -6.08202,1.19962 -9.54782,0.799 z"
           id="path3592"
           transform="scale(0.26458333)" />
        <path
           style="fill:#784421;stroke:#000000;stroke-width:3.8922;stroke-linecap:round;stroke-linejoin:round;stroke-opacity:0.955017;paint-order:stroke markers fill"
           d="m 528.55326,640.12995 c -3.56081,-1.01733 -4.09439,-2.96866 -1.14835,-4.19959 5.61928,-2.34788 17.42882,-0.60679 16.2752,2.39947 -0.77646,2.02342 -10.3554,3.16333 -15.12685,1.80012 z"
           id="path3631"
           transform="scale(0.26458333)" />
        <path
           style="fill:#784421;stroke:#000000;stroke-width:3.8922;stroke-linecap:round;stroke-linejoin:round;stroke-opacity:0.955017;paint-order:stroke markers fill"
           d="m 483.73206,639.91278 c -2.15744,-0.66297 -2.37311,-0.86331 -2.23332,-2.07469 0.22315,-1.93377 2.87742,-2.71594 9.33617,-2.7512 6.31558,-0.0345 8.18885,0.63027 8.18885,2.90592 0,1.33982 -0.21452,1.53795 -2.23332,2.06262 -3.12203,0.8114 -10.20549,0.73402 -13.05838,-0.14265 z"
           id="path3670"
           transform="scale(0.26458333)" />
      </g>
      <g
         id="g1987"
         transform="matrix(0.58826675,0,0,0.58066516,53.550151,46.740035)">
        <path
           id="path1458"
           style="fill:none;stroke:#000000;stroke-width:0.829521;stroke-linecap:round;stroke-linejoin:round;stroke-miterlimit:4;stroke-dasharray:none;stroke-opacity:0.955017;paint-order:stroke markers fill"
           d="m 189.27223,244.5252 h 11.80448 c 1.09978,0 1.98516,0.91321 1.98516,2.04756 v 0.78607 c 0,1.13434 -0.88538,2.04755 -1.98516,2.04755 h -11.80448 c -1.09978,0 -1.98516,-0.91321 -1.98516,-2.04755 v -0.78607 c 0,-1.13435 0.88538,-2.04756 1.98516,-2.04756 z m -1.40896,26.95079 c 1.93126,0.0469 4.25082,-0.38119 5.59102,1.44899 1.80552,2.28757 0.84383,6.54212 -2.20543,7.07222 -1.62068,0.0755 -3.32551,0.27567 -4.89398,-0.23179 -3.32755,-1.32371 -3.12586,-7.13274 0.35571,-8.11064 0.37255,-0.11919 0.76269,-0.17896 1.15268,-0.17878 z m -12.81776,-29.28235 c 3.02304,0.0478 6.058,-0.0994 9.07299,0.0808 2.96652,0.4792 4.14212,4.74952 1.95613,6.82382 -1.68373,1.73367 -4.17081,1.01146 -6.29338,1.16595 -1.96095,-0.0753 -3.95398,0.17561 -5.88842,-0.17877 -3.04991,-0.81293 -3.68855,-5.5309 -1.01286,-7.21223 0.63442,-0.44364 1.39936,-0.6818 2.16554,-0.67955 z m -2.97031,1.68113 c -8.75933,0.5247 -16.88696,7.00073 -19.37385,15.71739 -2.48051,7.77957 -0.30193,16.79565 5.31181,22.5585 6.32127,6.74573 16.92111,8.63045 25.03646,4.35453 2.94225,-1.48748 5.56958,-3.64789 7.59321,-6.30924 -1.09152,-0.84633 -1.84447,1.86003 -2.96335,2.31213 -5.54441,5.23749 -13.86176,7.06216 -20.96708,4.4754 -8.60216,-2.81544 -14.72198,-11.89044 -14.38243,-21.17563 0.13129,-7.7848 4.5992,-15.30687 11.36424,-18.81564 2.60353,-1.40553 5.48732,-2.27114 8.42232,-2.4675 -0.0138,-0.21665 -0.0276,-0.43329 -0.0413,-0.64994 z m -0.33718,4.84951 c -7.78104,0.65418 -14.68112,7.11849 -15.91006,15.09643 -1.61884,8.35573 3.28995,17.40612 11.04137,20.35405 6.70318,2.84194 14.92203,0.81759 19.72873,-4.75291 -1.31008,-0.76102 -2.61926,2.42147 -4.22808,2.75752 -6.48395,4.27743 -15.64793,3.1737 -21.04778,-2.46134 -5.13996,-5.09145 -6.63771,-13.55897 -3.52646,-20.18056 2.47629,-5.63562 8.04578,-9.60542 14.00029,-10.16475 -0.0193,-0.21615 -0.0387,-0.43229 -0.058,-0.64844 z m 18.11042,6.72224 h 0.37058 c 1.09979,0 1.98517,0.91321 1.98517,2.04756 v 11.93435 c 0,1.13435 -0.88538,2.04756 -1.98517,2.04756 h -0.37058 c -1.09978,0 -1.98517,-0.91321 -1.98517,-2.04756 v -11.93435 c 0,-1.13435 0.88539,-2.04756 1.98517,-2.04756 z" />
        <path
           style="fill:#00ff00;stroke:#000000;stroke-width:4.64318;stroke-linecap:round;stroke-linejoin:round;stroke-opacity:0.955017;paint-order:stroke markers fill"
           d="m 643.16042,1085.5213 c -31.18318,-6.3923 -54.54322,-28.8248 -62.57901,-60.0941 -6.79912,-26.45715 1.6894,-56.37226 21.65698,-76.32317 12.90654,-12.89578 38.44609,-24.51433 41.90099,-19.06177 3.29548,5.20095 1.50181,7.55108 -7.80401,10.22511 -18.55656,5.33224 -35.32492,20.09393 -44.26649,38.96913 -4.86507,10.26992 -5.11474,11.73761 -5.11474,30.0677 0,18.2649 0.26108,19.8155 5.00194,29.709 2.75106,5.7411 7.31057,13.3017 10.13225,16.8013 22.72081,28.18 64.96442,33.19 94.78032,11.2408 7.14602,-5.2606 10.54285,-6.8671 12.36442,-5.8477 2.05786,1.1516 1.24848,2.4307 -4.48035,7.0807 -9.78685,7.9437 -22.40348,13.9433 -34.88457,16.5888 -11.73452,2.4873 -17.08711,2.6164 -26.70773,0.6442 z"
           id="path1515"
           transform="scale(0.26458333)" />
        <path
           style="fill:#008000;stroke:#000000;stroke-width:4.64318;stroke-linecap:round;stroke-linejoin:round;stroke-opacity:0.955017;paint-order:stroke markers fill"
           d="m 660.0223,943.18157 c -8.49506,-1.72412 -13.64484,-11.26325 -8.9069,-16.49861 1.36968,-1.51348 2.10997,-3.13215 1.64508,-3.59705 -0.46489,-0.46489 0.36974,-1.85155 1.85473,-3.08146 1.98769,-1.64626 7.96592,-2.23621 22.66051,-2.23621 19.87983,0 19.97618,0.0182 23.83606,4.50576 5.07407,5.89918 4.98842,12.35667 -0.22892,17.2581 -3.72311,3.49768 -5.62551,3.88421 -20.47514,4.16011 -9.00388,0.1673 -18.17731,-0.0625 -20.38542,-0.51064 z"
           id="path1591"
           transform="scale(0.26458333)" />
        <path
           style="fill:#008000;stroke:#000000;stroke-width:4.64318;stroke-linecap:round;stroke-linejoin:round;stroke-opacity:0.955017;paint-order:stroke markers fill"
           d="m 704.73779,1054.084 c -5.69577,-3.0097 -7.88356,-9.5673 -5.56608,-16.6836 2.33631,-7.1741 7.73547,-9.9396 17.76532,-9.0996 14.468,1.2117 20.25854,14.0809 10.65634,23.6831 -3.82763,3.8276 -5.97683,4.6627 -11.64273,4.5238 -3.82172,-0.094 -8.8675,-1.1843 -11.21285,-2.4237 z"
           id="path1630"
           transform="scale(0.26458333)" />
        <path
           style="fill:#999999;stroke:#000000;stroke-width:4.64318;stroke-linecap:round;stroke-linejoin:round;stroke-opacity:0.955017;paint-order:stroke markers fill"
           d="m 712.32855,938.53015 c -1.38795,-1.38795 -2.52354,-3.82875 -2.52354,-5.42399 0,-5.85904 3.5455,-6.60739 29.12223,-6.14686 l 24.67521,0.4443 0.53924,4.73849 c 0.89089,7.82859 -2.41818,8.91161 -27.22872,8.91161 -17.91414,0 -22.53521,-0.47435 -24.58442,-2.52355 z"
           id="path1823"
           transform="scale(0.26458333)" />
        <path
           style="fill:#999999;stroke:#000000;stroke-width:4.64318;stroke-linecap:round;stroke-linejoin:round;stroke-opacity:0.955017;paint-order:stroke markers fill"
           d="m 713.72571,1020.8795 c -0.43789,-1.1412 -0.59587,-13.2456 -0.35107,-26.89874 0.44463,-24.79788 0.44912,-24.82449 4.27822,-25.3659 2.10822,-0.29809 4.44578,0.42457 5.19457,1.60589 1.54654,2.43991 1.92747,46.30625 0.43586,50.19335 -1.16949,3.0476 -8.43099,3.4012 -9.55758,0.4654 z"
           id="path1862"
           transform="scale(0.26458333)" />
      </g>
    </g>
  </g>
</svg>
