<?xml version="1.0" encoding="UTF-8" standalone="no"?>
<!-- Created with Inkscape (http://www.inkscape.org/) -->

<svg
   width="210mm"
   height="297mm"
   viewBox="0 0 210 297"
   version="1.1"
   id="svg3102"
   inkscape:version="1.1.1 (3bf5ae0d25, 2021-09-20)"
   sodipodi:docname="DISTRHO.svg"
   xmlns:inkscape="http://www.inkscape.org/namespaces/inkscape"
   xmlns:sodipodi="http://sodipodi.sourceforge.net/DTD/sodipodi-0.dtd"
   xmlns="http://www.w3.org/2000/svg"
   xmlns:svg="http://www.w3.org/2000/svg">
  <sodipodi:namedview
     id="namedview3104"
     pagecolor="#ffffff"
     bordercolor="#666666"
     borderopacity="1.0"
     inkscape:pageshadow="2"
     inkscape:pageopacity="0.0"
     inkscape:pagecheckerboard="0"
     inkscape:document-units="mm"
     showgrid="false"
     inkscape:zoom="0.62270623"
     inkscape:cx="396.65574"
     inkscape:cy="704.18438"
     inkscape:window-width="1680"
     inkscape:window-height="956"
     inkscape:window-x="-11"
     inkscape:window-y="-11"
     inkscape:window-maximized="1"
     inkscape:current-layer="layer1" />
  <defs
     id="defs3099" />
  <g
     inkscape:label="Layer 1"
     inkscape:groupmode="layer"
     id="layer1">
    <path
       id="path3666"
       style="fill:none;stroke:#000000;stroke-width:1.096;stroke-linecap:round;stroke-linejoin:round;stroke-opacity:0.955017;paint-order:stroke markers fill;stroke-miterlimit:4;stroke-dasharray:none"
       d="M 69.783676,42.500383 A 25.655958,22.131716 0 0 1 44.12771,64.632102 25.655958,22.131716 0 0 1 18.471755,42.500383 25.655958,22.131716 0 0 1 44.12771,20.368668 25.655958,22.131716 0 0 1 69.783676,42.500383 Z m -4.704223,0.463145 A 21.304192,16.853696 0 0 1 43.775257,59.817222 21.304192,16.853696 0 0 1 22.471067,42.963528 21.304192,16.853696 0 0 1 43.775257,26.109831 21.304192,16.853696 0 0 1 65.079453,42.963528 Z M 86.730844,41.08685 A 41.371608,37.122682 0 0 1 45.359233,78.209522 41.371608,37.122682 0 0 1 3.9876269,41.08685 41.371608,37.122682 0 0 1 45.359233,3.9641671 41.371608,37.122682 0 0 1 86.730844,41.08685 Z m -7.58581,0.776858 A 34.354152,28.269583 0 0 1 44.790879,70.133282 34.354152,28.269583 0 0 1 10.436729,41.863708 34.354152,28.269583 0 0 1 44.790879,13.594121 34.354152,28.269583 0 0 1 79.145034,41.863708 Z" />
    <path
       id="path3962"
       style="fill:#ffffff;stroke:#000000;stroke-width:2.133;stroke-linecap:round;stroke-linejoin:round;stroke-opacity:0.955017;paint-order:stroke markers fill;stroke-miterlimit:4;stroke-dasharray:none"
       d="m 38.235439,273.85488 c -8.185166,-2.14451 -14.637044,-7.69502 -17.154189,-14.75764 -1.19362,-3.34906 -1.19362,-8.7593 0,-12.10836 1.862241,-5.22509 5.807255,-9.61051 11.18974,-12.43893 14.268031,-7.49764 33.028598,-1.01061 37.330168,12.90804 4.25719,13.77498 -7.89378,27.33124 -24.40831,27.2312 -2.363579,-0.0143 -5.06331,-0.33806 -6.957409,-0.83431 z m 13.717439,-4.10332 c 5.72554,-1.42417 11.11773,-5.56877 13.29785,-10.22113 0.96671,-2.06294 1.14814,-3.02256 1.14622,-6.06248 -0.002,-3.11156 -0.17091,-3.95565 -1.22026,-6.09673 -2.32679,-4.74755 -7.6075,-8.71978 -13.63175,-10.25403 -3.253036,-0.82847 -9.952548,-0.82847 -13.205582,0 -6.022877,1.5339 -11.301684,5.50404 -13.634031,10.25403 -1.05681,2.15227 -1.219028,2.9689 -1.211062,6.09673 0.0076,2.97731 0.201049,4.02201 1.101582,5.9485 4.114403,8.80185 15.789307,13.21247 27.357033,10.33511 z M 38.698714,287.67799 C 29.658692,286.03816 22.108188,282.10261 15.836997,275.76176 3.7927891,263.58378 2.2045561,245.73394 11.950029,232.07688 c 3.949851,-5.53521 11.061695,-11.16939 17.311796,-13.71483 7.436729,-3.02871 16.137501,-4.12323 23.643403,-2.97424 15.9517,2.44185 28.39981,12.36081 33.126,26.39559 1.03788,3.08207 1.14572,3.99366 1.15612,9.77254 0.0109,6.07382 -0.0519,6.55608 -1.33673,10.26027 -4.63821,13.37216 -16.6849,23.28663 -31.41606,25.85552 -4.388286,0.76526 -11.535939,0.7681 -15.735844,0.006 z m 17.290644,-7.86615 c 1.98637,-0.48136 5.5236,-1.81651 7.86051,-2.96701 14.91288,-7.34182 20.81344,-22.53284 13.93178,-35.8674 -1.11537,-2.16125 -2.6506,-4.10962 -5.40775,-6.86304 -3.34686,-3.3423 -4.43345,-4.13024 -8.31158,-6.0271 -6.44802,-3.15384 -10.67096,-4.11408 -18.05794,-4.10614 -7.38328,0.008 -11.736205,0.97833 -17.845492,3.97825 -10.732696,5.2702 -16.783262,14.0834 -16.783262,24.44632 0,13.85973 10.873325,24.84271 27.809058,28.0895 4.060563,0.77845 12.125706,0.45048 16.804676,-0.68338 z" />
    <path
       id="path4180"
       style="fill:#000000;stroke:#000000;stroke-width:1.73276;stroke-linecap:round;stroke-linejoin:round;stroke-opacity:0.955017;paint-order:stroke markers fill"
       d="m 152.20316,62.026412 c -8.18516,-2.14451 -14.63704,-7.69502 -17.15419,-14.75764 -1.19362,-3.34906 -1.19362,-8.7593 0,-12.10836 1.86224,-5.22509 5.80726,-9.61051 11.18974,-12.43893 14.26803,-7.497639 33.0286,-1.01061 37.33017,12.90804 4.25719,13.77498 -7.89378,27.33124 -24.40831,27.2312 -2.36358,-0.0143 -5.06331,-0.33806 -6.95741,-0.83431 z m 13.71744,-4.10332 c 5.72554,-1.42417 11.11773,-5.56877 13.29785,-10.22113 0.96671,-2.06294 1.14814,-3.02256 1.14622,-6.06248 -0.002,-3.11156 -0.17091,-3.95565 -1.22026,-6.09673 -2.32679,-4.74755 -7.6075,-8.71978 -13.63175,-10.25403 -3.25304,-0.82847 -9.95255,-0.82847 -13.20558,0 -6.02288,1.5339 -11.30169,5.50404 -13.63403,10.25403 -1.05681,2.15227 -1.21903,2.9689 -1.21106,6.09673 0.008,2.97731 0.20104,4.02201 1.10158,5.9485 4.1144,8.80185 15.7893,13.21247 27.35703,10.33511 z m -13.25416,17.92643 c -9.04003,-1.63983 -16.59053,-5.57538 -22.86172,-11.91623 -12.04421,-12.17798 -13.63244,-30.02782 -3.88697,-43.68488 3.94985,-5.535217 11.0617,-11.1693983 17.3118,-13.7148363 7.43673,-3.028707 16.1375,-4.123227 23.6434,-2.97424 15.9517,2.441853 28.39981,12.3608083 33.126,26.3955963 1.03788,3.08207 1.14572,3.99366 1.15612,9.77254 0.0109,6.07382 -0.0519,6.55608 -1.33673,10.26027 -4.63821,13.37216 -16.6849,23.28663 -31.41606,25.85552 -4.38829,0.76526 -11.53594,0.7681 -15.73584,0.006 z m 17.29064,-7.86615 c 1.98637,-0.48136 5.5236,-1.81651 7.86051,-2.96701 14.91288,-7.34182 20.81344,-22.53284 13.93178,-35.8674 -1.11537,-2.16125 -2.6506,-4.10962 -5.40775,-6.86304 -3.34686,-3.342308 -4.43345,-4.130246 -8.31158,-6.027105 -6.44802,-3.153837 -10.67096,-4.114076 -18.05794,-4.106134 -7.38328,0.0079 -11.7362,0.978322 -17.84549,3.978242 -10.7327,5.270207 -16.78326,14.083407 -16.78326,24.446327 0,13.85973 10.87332,24.84271 27.80905,28.0895 4.06057,0.77845 12.12571,0.45048 16.80468,-0.68338 z" />
    <path
       id="path4200"
       style="fill:#4d4d4d;stroke:#000000;stroke-width:3.433;stroke-linecap:round;stroke-linejoin:round;stroke-miterlimit:4;stroke-dasharray:none;stroke-opacity:0.955017;paint-order:stroke markers fill"
       d="m 152.82883,274.04787 c -8.18517,-2.14451 -14.63705,-7.69502 -17.15419,-14.75764 -1.19362,-3.34906 -1.19362,-8.7593 0,-12.10836 1.86224,-5.22509 5.80725,-9.61051 11.18974,-12.43893 14.26803,-7.49764 33.0286,-1.01061 37.33017,12.90804 4.25719,13.77498 -7.89378,27.33124 -24.40831,27.2312 -2.36358,-0.0143 -5.06331,-0.33806 -6.95741,-0.83431 z m 13.71744,-4.10332 c 5.72554,-1.42417 11.11773,-5.56877 13.29785,-10.22113 0.96671,-2.06294 1.14814,-3.02256 1.14622,-6.06248 -0.002,-3.11156 -0.17091,-3.95565 -1.22026,-6.09673 -2.32679,-4.74755 -7.6075,-8.71978 -13.63175,-10.25403 -3.25304,-0.82847 -9.95255,-0.82847 -13.20559,0 -6.02287,1.5339 -11.30168,5.50404 -13.63403,10.25403 -1.05681,2.15227 -1.21903,2.9689 -1.21106,6.09673 0.008,2.97731 0.20105,4.02201 1.10158,5.9485 4.11441,8.80185 15.78931,13.21247 27.35704,10.33511 z m -13.25417,17.92643 c -9.04002,-1.63983 -16.59052,-5.57538 -22.86172,-11.91623 -12.04421,-12.17798 -13.63244,-30.02782 -3.88696,-43.68488 3.94985,-5.53521 11.06169,-11.16939 17.31179,-13.71483 7.43673,-3.02871 16.1375,-4.12323 23.64341,-2.97424 15.9517,2.44185 28.39981,12.36081 33.126,26.39559 1.03788,3.08207 1.14572,3.99366 1.15612,9.77254 0.0109,6.07382 -0.0519,6.55608 -1.33673,10.26027 -4.63821,13.37216 -16.6849,23.28663 -31.41606,25.85552 -4.38829,0.76526 -11.53594,0.7681 -15.73585,0.006 z m 17.29065,-7.86615 c 1.98637,-0.48136 5.5236,-1.81651 7.86051,-2.96701 14.91288,-7.34182 20.81344,-22.53284 13.93178,-35.8674 -1.11537,-2.16125 -2.6506,-4.10962 -5.40775,-6.86304 -3.34686,-3.3423 -4.43345,-4.13024 -8.31158,-6.0271 -6.44802,-3.15384 -10.67096,-4.11408 -18.05794,-4.10614 -7.38328,0.008 -11.73621,0.97833 -17.8455,3.97825 -10.73269,5.2702 -16.78326,14.0834 -16.78326,24.44632 0,13.85973 10.87333,24.84271 27.80906,28.0895 4.06056,0.77845 12.12571,0.45048 16.80468,-0.68338 z" />
  </g>
</svg>
