<?xml version="1.0" encoding="UTF-8" standalone="no"?>
<!-- Created with Inkscape (http://www.inkscape.org/) -->

<svg
   width="210mm"
   height="297mm"
   viewBox="0 0 210 297"
   version="1.1"
   id="svg5"
   inkscape:version="1.1.2 (0a00cf5339, 2022-02-04, custom)"
   sodipodi:docname="audio icon.svg"
   xmlns:inkscape="http://www.inkscape.org/namespaces/inkscape"
   xmlns:sodipodi="http://sodipodi.sourceforge.net/DTD/sodipodi-0.dtd"
   xmlns="http://www.w3.org/2000/svg"
   xmlns:svg="http://www.w3.org/2000/svg">
  <sodipodi:namedview
     id="namedview7"
     pagecolor="#ffffff"
     bordercolor="#666666"
     borderopacity="1.0"
     inkscape:pageshadow="2"
     inkscape:pageopacity="0.0"
     inkscape:pagecheckerboard="0"
     inkscape:document-units="mm"
     showgrid="false"
     inkscape:zoom="0.82106903"
     inkscape:cx="396.43439"
     inkscape:cy="337.97402"
     inkscape:window-width="1680"
     inkscape:window-height="956"
     inkscape:window-x="-11"
     inkscape:window-y="-11"
     inkscape:window-maximized="1"
     inkscape:current-layer="layer4" />
  <defs
     id="defs2" />
  <g
     inkscape:label="Layer 1"
     inkscape:groupmode="layer"
     id="layer1">
    <path
       style="fill:#b3ff80;stroke:#000000;stroke-width:15.4166;stroke-linecap:round;stroke-linejoin:round;stroke-dasharray:3.85415, 3.85415;stroke-opacity:0.955017;paint-order:stroke markers fill"
       d=""
       id="path1715"
       transform="scale(0.26458333)" />
    <path
       id="path1188"
       style="fill:none;stroke:#000000;stroke-width:0.662;stroke-linecap:butt;stroke-linejoin:miter;stroke-miterlimit:4;stroke-dasharray:none;stroke-opacity:1"
       d="M 25.898887,8.1778668 23.743829,19.226827 c 0,0 -5.877759,-2.89373 -7.836987,-8.681303 -1.95923,-5.7875742 -10.5798967,11.311963 -10.5798967,11.311963 0,0 8.6206667,17.099847 10.5798967,11.312277 1.959228,-5.78758 7.836987,-8.6813 7.836987,-8.6813 l 2.155058,11.04896 c 0,0 3.330595,-14.995048 11.16751,-7.36597 7.836916,7.62907 7.249174,1.31513 9.796174,-1.57865 2.547001,-2.893784 9.992221,9.73377 12.931064,3.15698 2.938844,-6.57679 4.506058,-6.839885 12.342976,-4.73531 7.836916,2.10457 5.289986,7.62909 7.836986,2.36765 V 16.333166 c -1.878823,-3.881153 -0.990241,-1.893179 -3.53807,0.261723 h -2.44e-4 l -7.462878,0.552559 -7.181224,0.531443 C 61.133592,16.771396 60.503567,15.554267 59.793629,13.96551 56.854786,7.3887218 49.409566,20.015956 46.862565,17.122173 44.315565,14.228384 44.903306,7.9147668 37.066391,15.54384 29.229476,23.172917 25.898881,8.1778668 25.898881,8.1778668 Z" />
  </g>
  <g
     inkscape:groupmode="layer"
     id="layer2"
     inkscape:label="Layer 2">
    <path
       id="path1387"
       style="fill:#000000;stroke:#000000;stroke-width:0.662;stroke-linecap:butt;stroke-linejoin:miter;stroke-miterlimit:4;stroke-dasharray:none;stroke-opacity:1"
       d="m 146.54921,8.1778668 -2.15507,11.0489602 c 0,0 -5.87779,-2.89373 -7.83703,-8.681303 -1.95924,-5.7875742 -10.57995,11.311963 -10.57995,11.311963 0,0 8.62071,17.099847 10.57995,11.312277 1.95924,-5.78758 7.83703,-8.6813 7.83703,-8.6813 l 2.15507,11.04896 c 0,0 3.33062,-14.995048 11.16758,-7.36597 7.83696,7.62907 7.24921,1.31513 9.79623,-1.57865 2.54701,-2.893784 9.99227,9.73377 12.93114,3.15698 2.93885,-6.57679 4.50608,-6.839885 12.34304,-4.73531 7.83695,2.10457 5.29002,7.62909 7.83702,2.36765 V 16.333166 c -1.87883,-3.881153 -0.99024,-1.893179 -3.53808,0.261723 h -2.4e-4 l -7.46292,0.552559 -7.18127,0.531443 c -0.65759,-0.907495 -1.28762,-2.124624 -1.99756,-3.713381 -2.93886,-6.5767882 -10.38412,6.050446 -12.93114,3.156663 -2.54701,-2.893789 -1.95927,-9.2074062 -9.79623,-1.578333 -7.83696,7.629077 -11.16757,-7.3659732 -11.16757,-7.3659732 z" />
  </g>
  <g
     inkscape:groupmode="layer"
     id="layer3"
     inkscape:label="Layer 3">
    <path
       id="path1408"
       style="fill:#ffffff;stroke:#000000;stroke-width:0.662;stroke-linecap:butt;stroke-linejoin:miter;stroke-miterlimit:4;stroke-dasharray:none;stroke-opacity:1"
       d="m 92.603084,56.836483 -2.155058,11.048961 c 0,0 -5.877759,-2.89373 -7.836987,-8.681303 -1.95923,-5.787575 -10.579897,11.311963 -10.579897,11.311963 0,0 8.620667,17.099847 10.579897,11.312277 1.959228,-5.78758 7.836987,-8.6813 7.836987,-8.6813 l 2.155058,11.04896 c 0,0 3.330595,-14.995048 11.167506,-7.36597 7.83692,7.62907 7.24917,1.31513 9.79617,-1.57865 2.54701,-2.893784 9.99223,9.73377 12.93107,3.15698 2.93884,-6.57679 4.50606,-6.839885 12.34297,-4.73531 7.83692,2.10457 5.28999,7.62909 7.83699,2.36765 V 64.991783 c -1.87882,-3.881153 -0.99024,-1.893179 -3.53807,0.261723 h -2.4e-4 l -7.46288,0.552559 -7.18123,0.531443 c -0.65758,-0.907495 -1.28761,-2.124624 -1.99755,-3.713381 -2.93884,-6.576789 -10.38406,6.050446 -12.93106,3.156663 -2.547,-2.893789 -1.95926,-9.207407 -9.79618,-1.578333 -7.836907,7.629077 -11.167502,-7.365974 -11.167502,-7.365974 z" />
  </g>
  <g
     inkscape:groupmode="layer"
     id="layer4"
     inkscape:label="Layer 4">
    <path
       id="path1431"
       style="fill:#00ffff;stroke:#000000;stroke-width:0.662;stroke-linecap:butt;stroke-linejoin:miter;stroke-miterlimit:4;stroke-dasharray:none;stroke-opacity:1"
       d="m 25.898887,108.71964 -2.155058,11.04903 c 0,0 -5.877759,-2.89375 -7.836987,-8.68136 -1.95923,-5.7876 -10.5798967,11.31203 -10.5798967,11.31203 0,0 8.6206667,17.09994 10.5798967,11.31234 1.959228,-5.78761 7.836987,-8.68135 7.836987,-8.68135 l 2.155058,11.04903 c 0,0 3.330595,-14.99514 11.16751,-7.36602 7.836916,7.62912 7.249174,1.31514 9.796174,-1.57865 2.547001,-2.89381 9.992221,9.73382 12.931064,3.15699 2.938844,-6.57683 4.506058,-6.83992 12.342976,-4.73533 7.836916,2.10458 5.289986,7.62913 7.836986,2.36766 v -11.04902 c -1.878823,-3.88118 -0.990241,-1.89319 -3.53807,0.26172 h -2.44e-4 l -7.462878,0.55257 -7.181224,0.53144 c -0.657589,-0.9075 -1.287614,-2.12463 -1.997552,-3.7134 -2.938843,-6.57683 -10.384063,6.05048 -12.931064,3.15668 -2.547,-2.89381 -1.959259,-9.20746 -9.796174,-1.57834 -7.836915,7.62912 -11.16751,-7.36602 -11.16751,-7.36602 z" />
  </g>
</svg>
