<?xml version="1.0" encoding="UTF-8" standalone="no"?>
<!-- Created with Inkscape (http://www.inkscape.org/) -->

<svg
   width="210mm"
   height="297mm"
   viewBox="0 0 210 297"
   version="1.1"
   id="svg5"
   inkscape:version="1.1.2 (0a00cf5339, 2022-02-04, custom)"
   sodipodi:docname="percussion icon.svg"
   xmlns:inkscape="http://www.inkscape.org/namespaces/inkscape"
   xmlns:sodipodi="http://sodipodi.sourceforge.net/DTD/sodipodi-0.dtd"
   xmlns="http://www.w3.org/2000/svg"
   xmlns:svg="http://www.w3.org/2000/svg">
  <sodipodi:namedview
     id="namedview7"
     pagecolor="#ffffff"
     bordercolor="#666666"
     borderopacity="1.0"
     inkscape:pageshadow="2"
     inkscape:pageopacity="0.0"
     inkscape:pagecheckerboard="0"
     inkscape:document-units="mm"
     showgrid="false"
     inkscape:zoom="1.0263363"
     inkscape:cx="579.24484"
     inkscape:cy="973.85234"
     inkscape:window-width="1680"
     inkscape:window-height="956"
     inkscape:window-x="-11"
     inkscape:window-y="-11"
     inkscape:window-maximized="1"
     inkscape:current-layer="layer4" />
  <defs
     id="defs2">
    <inkscape:path-effect
       effect="bend_path"
       id="path-effect1519"
       is_visible="true"
       lpeversion="1"
       bendpath="m 71.457367,44.300886 h 8.790774"
       prop_scale="1"
       scale_y_rel="false"
       vertical="false"
       hide_knot="false" />
  </defs>
  <g
     inkscape:label="Layer 1"
     inkscape:groupmode="layer"
     id="layer1">
    <path
       style="fill:#b3ff80;stroke:#000000;stroke-width:15.4166;stroke-linecap:round;stroke-linejoin:round;stroke-dasharray:3.85415, 3.85415;stroke-opacity:0.955017;paint-order:stroke markers fill"
       d=""
       id="path1715"
       transform="scale(0.26458333)" />
    <path
       id="path2103"
       style="fill:none;fill-rule:evenodd;stroke:#000000;stroke-width:0.365291;stroke-linecap:round;stroke-linejoin:round;paint-order:stroke markers fill"
       d="m 60.154027,36.455412 c -0.608517,0.237182 -0.881541,0.972053 -0.61216,1.647694 l 3.531651,8.857911 c 0.269374,0.675641 0.976132,1.028624 1.584643,0.791441 0.608517,-0.237184 0.881541,-0.972056 0.612166,-1.647696 l -3.531651,-8.857911 c -0.26938,-0.67564 -0.976132,-1.028622 -1.584649,-0.791439 z M 51.65592,8.3889498 a 8.4663526,6.0523689 67.80002 0 1 7.461892,5.9557042 8.4663526,6.0523689 67.80002 0 1 0.135114,7.440139 8.3464775,7.9091287 64.352949 0 1 -8.53426,-5.343079 8.3464775,7.9091287 64.352949 0 1 0.937254,-8.0527642 z m -2.615234,-0.812859 a 9.0387222,12.46018 69.197366 0 1 14.956722,3.8718152 9.0387222,12.46018 69.197366 0 1 -3.071253,9.684709 1.658381,7.1974552 68.730382 0 1 1.360615,0.400575 1.658381,7.1974552 68.730382 0 1 -4.660252,3.553639 c 0.294362,0.04328 0.568269,0.256022 0.696274,0.577077 l 17.05095,42.766336 c 0.18241,0.457514 -0.0024,0.955106 -0.414521,1.115718 l -3.368467,1.312934 c -0.412066,0.16062 -0.890617,-0.0784 -1.073027,-0.53591 l -17.05095,-42.76634 c -0.156316,-0.392064 -0.04226,-0.812771 0.252689,-1.026423 A 1.658381,7.1974552 68.730382 0 1 48.874624,26.760868 1.658381,7.1974552 68.730382 0 1 49.620593,25.503796 9.0387222,12.46018 69.197366 0 1 40.779258,20.49769 9.0387222,12.46018 69.197366 0 1 49.040686,7.5760908 Z M 18.107065,34.918221 c 0.608516,0.237182 0.881541,0.972053 0.612163,1.647693 l -3.531652,8.857912 c -0.269377,0.675641 -0.97613,1.028625 -1.584646,0.791441 -0.608516,-0.237183 -0.88154,-0.972055 -0.612163,-1.647696 l 3.531652,-8.857911 c 0.269378,-0.67564 0.97613,-1.028622 1.584646,-0.791439 z M 26.605173,6.8517588 a 6.0523689,8.4663526 22.19998 0 0 -7.46189,5.9557042 6.0523689,8.4663526 22.19998 0 0 -0.135114,7.440138 7.9091287,8.3464775 25.647051 0 0 8.534259,-5.343078 7.9091287,8.3464775 25.647051 0 0 -0.937255,-8.0527642 z m 2.615235,-0.812859 a 12.46018,9.0387222 20.802634 0 0 -14.956723,3.871815 12.46018,9.0387222 20.802634 0 0 3.071256,9.6847092 7.1974552,1.658381 21.269618 0 0 -1.360618,0.400575 7.1974552,1.658381 21.269618 0 0 4.660253,3.553639 c -0.294362,0.04328 -0.568271,0.256021 -0.696275,0.577077 L 2.8873525,66.893051 c -0.182411,0.457515 0.0024,0.955107 0.41452,1.115719 l 3.36847,1.312938 c 0.412063,0.160612 0.890614,-0.0784 1.073025,-0.535917 L 24.794317,26.019453 c 0.156316,-0.392064 0.04226,-0.812771 -0.252689,-1.026423 a 7.1974552,1.658381 21.269618 0 0 4.844841,0.230647 7.1974552,1.658381 21.269618 0 0 -0.745968,-1.257072 12.46018,9.0387222 20.802634 0 0 8.841334,-5.006106 12.46018,9.0387222 20.802634 0 0 -8.261427,-12.9215992 z" />
  </g>
  <g
     inkscape:groupmode="layer"
     id="layer2"
     inkscape:label="Layer 2">
    <path
       id="path828"
       style="fill:#000000;fill-rule:evenodd;stroke:#000000;stroke-width:0.365291;stroke-linecap:round;stroke-linejoin:round;paint-order:stroke markers fill"
       d="m 188.21294,36.455412 c -0.60852,0.237182 -0.88155,0.972053 -0.61216,1.647694 l 3.53167,8.857911 c 0.26937,0.675641 0.97614,1.028624 1.58465,0.791441 0.60852,-0.237184 0.88154,-0.972056 0.61217,-1.647696 l -3.53167,-8.857911 c -0.26938,-0.67564 -0.97614,-1.028622 -1.58466,-0.791439 z M 179.71478,8.3889498 a 8.4663526,6.0523689 67.80002 0 1 7.46194,5.9557042 8.4663526,6.0523689 67.80002 0 1 0.13511,7.440139 8.3464775,7.9091287 64.352949 0 1 -8.53431,-5.343079 8.3464775,7.9091287 64.352949 0 1 0.93726,-8.0527642 z m -2.61525,-0.812859 a 9.0387222,12.46018 69.197366 0 1 14.95681,3.8718152 9.0387222,12.46018 69.197366 0 1 -3.07127,9.684709 1.658381,7.1974552 68.730382 0 1 1.36062,0.400575 1.658381,7.1974552 68.730382 0 1 -4.66028,3.553639 c 0.29437,0.04328 0.56828,0.256022 0.69628,0.577077 l 17.05105,42.766336 c 0.18241,0.457514 -0.002,0.955106 -0.41452,1.115718 l -3.36849,1.312934 c -0.41207,0.16062 -0.89062,-0.0784 -1.07303,-0.53591 l -17.05105,-42.76634 c -0.15632,-0.392064 -0.0423,-0.812771 0.25269,-1.026423 a 1.658381,7.1974552 68.730382 0 1 -4.84487,0.230647 1.658381,7.1974552 68.730382 0 1 0.74597,-1.257072 9.0387222,12.46018 69.197366 0 1 -8.84138,-5.006106 9.0387222,12.46018 69.197366 0 1 8.26147,-12.9215992 z M 146.16574,34.918221 c 0.60852,0.237182 0.88154,0.972053 0.61217,1.647693 l -3.53168,8.857912 c -0.26937,0.675641 -0.97613,1.028625 -1.58465,0.791441 -0.60852,-0.237183 -0.88155,-0.972055 -0.61217,-1.647696 l 3.53167,-8.857911 c 0.26938,-0.67564 0.97614,-1.028622 1.58466,-0.791439 z M 154.6639,6.8517588 a 6.0523689,8.4663526 22.19998 0 0 -7.46194,5.9557042 6.0523689,8.4663526 22.19998 0 0 -0.13511,7.440138 7.9091287,8.3464775 25.647051 0 0 8.53431,-5.343078 7.9091287,8.3464775 25.647051 0 0 -0.93726,-8.0527642 z m 2.61525,-0.812859 a 12.46018,9.0387222 20.802634 0 0 -14.95681,3.871815 12.46018,9.0387222 20.802634 0 0 3.07127,9.6847092 7.1974552,1.658381 21.269618 0 0 -1.36062,0.400575 7.1974552,1.658381 21.269618 0 0 4.66028,3.553639 c -0.29437,0.04328 -0.56828,0.256021 -0.69629,0.577077 l -17.05104,42.766336 c -0.18242,0.457515 0.002,0.955107 0.41452,1.115719 l 3.36849,1.312938 c 0.41207,0.160612 0.89062,-0.0784 1.07303,-0.535917 l 17.05105,-42.766338 c 0.15632,-0.392064 0.0423,-0.812771 -0.25269,-1.026423 a 7.1974552,1.658381 21.269618 0 0 4.84487,0.230647 7.1974552,1.658381 21.269618 0 0 -0.74597,-1.257072 12.46018,9.0387222 20.802634 0 0 8.84138,-5.006106 12.46018,9.0387222 20.802634 0 0 -8.26147,-12.9215992 z" />
  </g>
  <g
     inkscape:groupmode="layer"
     id="layer3"
     inkscape:label="Layer 3">
    <g
       id="g1108">
      <path
         id="path838"
         style="fill:#ffffff;fill-rule:evenodd;stroke:#000000;stroke-width:1.865;stroke-linecap:round;stroke-linejoin:round;stroke-miterlimit:4;stroke-dasharray:none;paint-order:stroke markers fill"
         d="m 60.154027,257.6481 c -0.608517,0.23718 -0.881541,0.97206 -0.61216,1.6477 l 3.531651,8.85796 c 0.269374,0.67565 0.976132,1.02863 1.584643,0.79145 0.608517,-0.23719 0.881541,-0.97206 0.612166,-1.6477 l -3.531651,-8.85797 c -0.26938,-0.67564 -0.976132,-1.02862 -1.584649,-0.79144 z M 51.65592,229.58148 a 8.4663526,6.0523689 67.80002 0 1 7.461892,5.95574 8.4663526,6.0523689 67.80002 0 1 0.135114,7.44018 8.3464775,7.9091287 64.352949 0 1 -8.53426,-5.34311 8.3464775,7.9091287 64.352949 0 1 0.937254,-8.05281 z m -2.615234,-0.81287 a 9.0387222,12.46018 69.197366 0 1 14.956722,3.87184 9.0387222,12.46018 69.197366 0 1 -3.071253,9.68476 1.658381,7.1974552 68.730382 0 1 1.360615,0.40058 1.658381,7.1974552 68.730382 0 1 -4.660252,3.55366 c 0.294362,0.0433 0.568269,0.25602 0.696274,0.57708 l 17.05095,42.76658 c 0.18241,0.45752 -0.0024,0.95511 -0.414521,1.11573 l -3.368467,1.31294 c -0.412066,0.16062 -0.890617,-0.0784 -1.073027,-0.53592 l -17.05095,-42.76658 c -0.156316,-0.39206 -0.04226,-0.81277 0.252689,-1.02643 a 1.658381,7.1974552 68.730382 0 1 -4.844842,0.23065 1.658381,7.1974552 68.730382 0 1 0.745969,-1.25708 9.0387222,12.46018 69.197366 0 1 -8.841335,-5.00613 9.0387222,12.46018 69.197366 0 1 8.261428,-12.92168 z M 18.107065,256.1109 c 0.608516,0.23718 0.881541,0.97206 0.612163,1.6477 l -3.531652,8.85796 c -0.269377,0.67565 -0.97613,1.02863 -1.584646,0.79145 -0.608516,-0.23719 -0.88154,-0.97206 -0.612163,-1.6477 l 3.531652,-8.85797 c 0.269378,-0.67564 0.97613,-1.02862 1.584646,-0.79144 z m 8.498108,-28.06662 a 6.0523689,8.4663526 22.19998 0 0 -7.46189,5.95574 6.0523689,8.4663526 22.19998 0 0 -0.135114,7.44018 7.9091287,8.3464775 25.647051 0 0 8.534259,-5.34311 7.9091287,8.3464775 25.647051 0 0 -0.937255,-8.05281 z m 2.615235,-0.81286 a 12.46018,9.0387222 20.802634 0 0 -14.956723,3.87183 12.46018,9.0387222 20.802634 0 0 3.071256,9.68477 7.1974552,1.658381 21.269618 0 0 -1.360618,0.40057 7.1974552,1.658381 21.269618 0 0 4.660253,3.55366 c -0.294362,0.0433 -0.568271,0.25603 -0.696275,0.57708 L 2.8873525,288.08591 c -0.182411,0.45752 0.0024,0.95511 0.41452,1.11573 l 3.36847,1.31294 c 0.412063,0.16062 0.890614,-0.0784 1.073025,-0.53592 L 24.794317,247.21208 c 0.156316,-0.39206 0.04226,-0.81277 -0.252689,-1.02643 a 7.1974552,1.658381 21.269618 0 0 4.844841,0.23065 7.1974552,1.658381 21.269618 0 0 -0.745968,-1.25708 12.46018,9.0387222 20.802634 0 0 8.841334,-5.00613 12.46018,9.0387222 20.802634 0 0 -8.261427,-12.92167 z" />
      <path
         style="fill:#ffffff;fill-rule:evenodd;stroke:#000000;stroke-width:3.75816;stroke-linecap:round;stroke-linejoin:round;paint-order:stroke markers fill"
         d="m 215.66391,914.07024 c -5.35968,-1.16066 -9.85403,-3.65039 -13.90858,-7.70494 -8.6042,-8.6042 -10.86822,-20.9549 -5.90008,-32.1862 1.13928,-2.57553 1.16962,-2.59721 3.24567,-2.31875 6.55447,0.87914 14.96598,8.09157 19.11143,16.38706 3.96239,7.92914 5.37626,16.94062 3.75793,23.9516 -0.71219,3.08538 -0.70691,3.08382 -6.30637,1.87123 z"
         id="path867"
         transform="scale(0.26458333)" />
      <path
         style="fill:#ffffff;fill-rule:evenodd;stroke:#000000;stroke-width:3.75816;stroke-linecap:round;stroke-linejoin:round;paint-order:stroke markers fill"
         d="m 73.919258,906.72387 c -0.957753,-3.80359 -0.750157,-11.35808 0.439995,-16.01153 2.737184,-10.70228 10.685218,-20.65559 18.969132,-23.755 4.679312,-1.75075 5.207171,-1.59366 6.835225,2.03413 3.59246,8.00506 3.20033,16.52807 -1.140903,24.79755 -4.323678,8.23605 -12.401422,13.84462 -21.593867,14.99314 l -2.90006,0.36234 z"
         id="path906"
         transform="scale(0.26458333)" />
      <path
         style="fill:#ffffff;fill-rule:evenodd;stroke:#000000;stroke-width:1.7445;stroke-linecap:round;stroke-linejoin:round;paint-order:stroke markers fill"
         d="m 242.13132,1012.5479 c -0.37606,-0.4408 -13.57455,-33.39378 -13.76333,-34.36324 -0.13821,-0.70974 0.47078,-1.18952 0.99652,-0.7851 0.50459,0.38815 13.83893,33.71244 13.88369,34.69714 0.0397,0.8744 -0.55195,1.1134 -1.11688,0.4512 z"
         id="path945"
         transform="scale(0.26458333)" />
      <path
         style="fill:#ffffff;fill-rule:evenodd;stroke:#000000;stroke-width:1.7445;stroke-linecap:round;stroke-linejoin:round;paint-order:stroke markers fill"
         d="m 52.431973,1006.9047 c -0.07913,-0.2062 -0.09012,-0.5681 -0.02443,-0.8043 0.359832,-1.2936 13.639589,-34.14345 13.918983,-34.43112 0.434831,-0.4477 1.114186,-0.17778 1.114186,0.44269 0,0.55893 -13.181446,33.73793 -13.745511,34.59873 -0.42601,0.6502 -1.051325,0.7462 -1.26323,0.194 z"
         id="path984"
         transform="scale(0.26458333)" />
    </g>
  </g>
  <g
     inkscape:groupmode="layer"
     id="layer4"
     inkscape:label="Layer 4">
    <g
       id="g2228"
       transform="matrix(0.31419541,0,0,0.369354,10.389536,5.8783861)"
       style="stroke-width:3.52257;stroke-miterlimit:4;stroke-dasharray:none" />
    <path
       style="fill:#a05a2c;fill-rule:evenodd;stroke:#000000;stroke-width:4.67251;stroke-linecap:round;stroke-linejoin:round;paint-order:stroke markers fill"
       d=""
       id="path1195"
       transform="scale(0.26458333)" />
    <path
       style="fill:#d38d5f;fill-opacity:1;fill-rule:evenodd;stroke:#000000;stroke-width:1.44423;stroke-linecap:round;stroke-linejoin:round;paint-order:stroke markers fill"
       d=""
       id="path2636"
       transform="scale(0.26458333)" />
    <path
       style="fill:#d38d5f;fill-opacity:1;fill-rule:evenodd;stroke:#000000;stroke-width:1.44423;stroke-linecap:round;stroke-linejoin:round;paint-order:stroke markers fill"
       d=""
       id="path2675"
       transform="scale(0.26458333)" />
    <g
       id="g2958">
      <path
         id="path835"
         style="fill:none;fill-rule:evenodd;stroke:#000000;stroke-width:0.365291;stroke-linecap:round;stroke-linejoin:round;paint-order:stroke markers fill"
         d="m 183.03583,260.40569 c -0.60852,0.23718 -0.88154,0.97205 -0.61216,1.64769 l 3.53165,8.85791 c 0.26937,0.67564 0.97613,1.02863 1.58464,0.79144 0.60852,-0.23718 0.88154,-0.97205 0.61217,-1.64769 l -3.53165,-8.85791 c -0.26938,-0.67564 -0.97613,-1.02863 -1.58465,-0.79144 z m -8.49811,-28.06647 a 8.4663526,6.0523689 67.80002 0 1 7.46189,5.95571 8.4663526,6.0523689 67.80002 0 1 0.13512,7.44014 8.3464775,7.9091287 64.352949 0 1 -8.53426,-5.34308 8.3464775,7.9091287 64.352949 0 1 0.93725,-8.05277 z m -2.61523,-0.81285 a 9.0387222,12.46018 69.197366 0 1 14.95672,3.87181 9.0387222,12.46018 69.197366 0 1 -3.07125,9.68471 1.658381,7.1974552 68.730382 0 1 1.36061,0.40057 1.658381,7.1974552 68.730382 0 1 -4.66025,3.55364 c 0.29436,0.0433 0.56827,0.25603 0.69627,0.57708 l 17.05095,42.76634 c 0.18241,0.45751 -0.002,0.9551 -0.41452,1.11571 l -3.36846,1.31294 c -0.41207,0.16062 -0.89062,-0.0784 -1.07303,-0.53591 l -17.05095,-42.76634 c -0.15632,-0.39207 -0.0423,-0.81277 0.25269,-1.02642 a 1.658381,7.1974552 68.730382 0 1 -4.84484,0.23064 1.658381,7.1974552 68.730382 0 1 0.74597,-1.25707 9.0387222,12.46018 69.197366 0 1 -8.84134,-5.00611 9.0387222,12.46018 69.197366 0 1 8.26143,-12.92159 z m -30.93362,27.34213 c 0.60851,0.23718 0.88154,0.97205 0.61216,1.64769 l -3.53165,8.85791 c -0.26938,0.67564 -0.97613,1.02863 -1.58465,0.79144 -0.60851,-0.23718 -0.88154,-0.97205 -0.61216,-1.64769 l 3.53165,-8.85792 c 0.26938,-0.67564 0.97613,-1.02862 1.58465,-0.79143 z m 8.49811,-28.06647 a 6.0523689,8.4663526 22.19998 0 0 -7.46189,5.95571 6.0523689,8.4663526 22.19998 0 0 -0.13512,7.44014 7.9091287,8.3464775 25.647051 0 0 8.53426,-5.34308 7.9091287,8.3464775 25.647051 0 0 -0.93725,-8.05277 z m 2.61523,-0.81286 a 12.46018,9.0387222 20.802634 0 0 -14.95672,3.87182 12.46018,9.0387222 20.802634 0 0 3.07125,9.68471 7.1974552,1.658381 21.269618 0 0 -1.36061,0.40057 7.1974552,1.658381 21.269618 0 0 4.66025,3.55364 c -0.29436,0.0433 -0.56827,0.25602 -0.69628,0.57708 l -17.05095,42.76634 c -0.18241,0.45751 0.002,0.9551 0.41452,1.11571 l 3.36847,1.31294 c 0.41207,0.16061 0.89062,-0.0784 1.07303,-0.53591 l 17.05095,-42.76634 c 0.15632,-0.39207 0.0423,-0.81277 -0.25269,-1.02643 a 7.1974552,1.658381 21.269618 0 0 4.84484,0.23065 7.1974552,1.658381 21.269618 0 0 -0.74597,-1.25707 12.46018,9.0387222 20.802634 0 0 8.84134,-5.00611 12.46018,9.0387222 20.802634 0 0 -8.26143,-12.9216 z" />
      <path
         style="fill:#d38d5f;fill-rule:evenodd;stroke:#000000;stroke-width:4.67251;stroke-linecap:round;stroke-linejoin:round;paint-order:stroke markers fill"
         d="m 483.7311,1104.6595 c -3.36118,-1.3628 -6.28716,-3.0262 -6.50218,-3.6966 -0.21503,-0.6704 7.58301,-21.2773 17.32897,-45.7931 15.67589,-39.4326 17.77129,-43.9434 18.1651,-39.1051 0.36669,4.5052 1.00266,5.5482 3.60792,5.9176 1.73952,0.2466 3.94948,-0.2046 4.91102,-1.0026 0.96154,-0.798 5.06114,-9.8476 9.11023,-20.1102 5.67155,-14.37482 7.03218,-19.18552 5.92571,-20.95115 -2.05934,-3.28611 -7.50319,-3.73033 -9.6548,-0.78782 -0.98561,1.3479 -1.794,1.86962 -1.79642,1.15939 -0.009,-2.75219 16.83185,-43.14061 17.98887,-43.14061 3.2377,0 0.56318,-3.03362 -5.29247,-6.00306 -3.58463,-1.81779 -7.69374,-4.60671 -9.13136,-6.1976 -2.58061,-2.85574 -2.57625,-2.89252 0.34303,-2.89252 3.92464,0 3.77883,-0.59323 -1.82741,-7.4349 -11.15561,-13.61395 -11.63311,-28.04499 -1.26779,-38.31507 23.73654,-23.51844 80.14587,-0.95958 80.14587,32.05142 0,14.3935 -10.09965,24.12007 -27.78517,26.75879 -6.39232,0.95375 -8.01944,2.31485 -4.99892,4.18164 2.96649,1.83339 -1.61119,2.95542 -7.4472,1.82538 -8.40775,-1.62801 -9.16457,-1.50305 -9.16457,1.51328 0,3.30184 -64.38305,164.68693 -65.65656,164.57733 -0.48986,-0.042 -3.6407,-1.1917 -7.00187,-2.5545 z m 64.75418,-181.74102 c 14.16884,-4.26419 23.27185,-16.90705 23.27185,-32.32149 0,-17.94257 -7.97662,-23.68213 -21.21755,-15.26704 -11.27587,7.16623 -17.89882,20.63319 -17.72233,36.03617 0.15385,13.42611 2.84613,15.41119 15.66803,11.55236 z"
         id="path930"
         transform="scale(0.26458333)" />
      <path
         style="fill:#d38d5f;fill-rule:evenodd;stroke:#000000;stroke-width:4.67251;stroke-linecap:round;stroke-linejoin:round;paint-order:stroke markers fill"
         d="m 516.05199,1017.1715 c -0.78976,-2.4883 10.08286,-31.97654 13.18383,-35.75662 1.67614,-2.04321 3.82788,-0.99577 3.82788,1.86338 0,3.17252 -11.99769,32.31794 -14.21739,34.53764 -1.70639,1.7064 -2.07519,1.6213 -2.79432,-0.6444 z"
         id="path1043"
         transform="scale(0.26458333)" />
      <path
         style="fill:#d38d5f;fill-rule:evenodd;stroke:#000000;stroke-width:4.67251;stroke-linecap:round;stroke-linejoin:round;paint-order:stroke markers fill"
         d="m 700.4608,1031.6579 c -17.73449,-44.66915 -32.0851,-82.42466 -31.89024,-83.90111 0.37438,-2.83675 0.52129,-2.83643 -13.73233,-0.0304 -3.68899,0.72622 -5.2638,-1.26129 -2.40119,-3.03048 2.65125,-1.63856 1.33179,-3.43026 -2.52614,-3.43026 -6.22032,0 -16.39546,-3.57103 -21.69695,-7.61467 -5.65587,-4.31394 -10.01199,-12.92001 -10.03605,-19.82748 -0.0429,-12.31924 13.10087,-28.22237 29.77411,-36.02471 7.22269,-3.37991 11.50028,-4.4096 20.20198,-4.86297 13.01009,-0.67784 20.26423,1.00098 27.74701,6.42148 13.03669,9.44373 13.78196,26.21795 1.83503,41.30218 -4.69071,5.9225 -4.98117,6.88509 -2.07761,6.88509 1.13199,0 2.05816,0.63105 2.05816,1.40233 0,1.21019 -4.03202,4.08376 -14.59848,10.40415 -1.97215,1.17965 -2.18507,1.94012 -0.96043,3.43027 1.60985,1.95886 16.93102,39.35501 16.93102,41.3255 0,0.59923 -1.23703,0.31698 -2.74896,-0.62724 -3.4601,-2.16087 -7.34283,-0.0553 -7.99341,4.33486 -0.65126,4.39462 13.25231,38.29996 16.39548,39.98206 3.65183,1.9544 7.78534,-0.6062 8.3198,-5.1539 0.38048,-3.2375 13.05062,26.8624 32.59551,77.4358 l 2.7806,7.195 -5.04191,2.1066 c -11.34814,4.7416 -7.25036,12.1595 -42.935,-77.7221 z m -9.19738,-106.85755 c 1.73394,-6.64457 0.41357,-19.01603 -2.80643,-26.29537 -5.34017,-12.07235 -17.04383,-21.61862 -26.60189,-21.69826 -8.39712,-0.07 -12.06222,22.92539 -5.61145,35.20707 5.68252,10.81901 17.71006,18.39407 28.35802,17.86014 4.94644,-0.24804 5.51561,-0.68151 6.66175,-5.07358 z"
         id="path1082"
         transform="scale(0.26458333)" />
      <path
         style="fill:#a05a2c;fill-rule:evenodd;stroke:#000000;stroke-width:1.44423;stroke-linecap:round;stroke-linejoin:round;paint-order:stroke markers fill"
         d="m 516.51172,1017.5968 c -0.15261,-0.6081 -0.0376,-2.1825 0.25565,-3.4989 1.14963,-5.1609 8.08939,-23.85581 11.04282,-29.74809 1.97352,-3.93729 3.63023,-4.75057 4.73554,-2.32468 0.60395,1.32552 -0.12838,3.82138 -4.10419,13.98759 -5.5728,14.24978 -9.76388,22.68968 -11.26719,22.68968 -0.21183,0 -0.51001,-0.4975 -0.66263,-1.1056 z"
         id="path1234"
         transform="scale(0.26458333)" />
      <path
         style="fill:#a05a2c;fill-rule:evenodd;stroke:#000000;stroke-width:1.44423;stroke-linecap:round;stroke-linejoin:round;paint-order:stroke markers fill"
         d="m 705.49946,1024.6389 c -2.44736,-3.437 -9.93351,-20.871 -12.8806,-29.99669 -1.76338,-5.46034 -1.91664,-7.36942 -0.69008,-8.59598 1.00987,-1.00987 1.75289,-1.06011 3.36314,-0.22742 1.06718,0.55186 1.98492,2.5966 8.26542,18.41539 7.54905,19.0139 7.58499,19.1515 5.44288,20.8365 -1.48808,1.1705 -2.44373,1.0526 -3.50076,-0.4318 z"
         id="path1273"
         transform="scale(0.26458333)" />
      <path
         style="fill:#a05a2c;fill-rule:evenodd;stroke:#000000;stroke-width:1.44423;stroke-linecap:round;stroke-linejoin:round;paint-order:stroke markers fill"
         d="m 680.64846,927.105 c -5.86041,-0.88158 -11.08649,-3.69945 -16.11822,-8.69088 -6.05309,-6.0046 -8.39537,-11.2429 -8.91862,-19.94576 -0.44654,-7.42695 1.63951,-15.75677 4.56179,-18.21571 0.98344,-0.8275 1.51229,-0.96318 3.0089,-0.77195 4.88142,0.62374 10.84107,4.20366 15.68345,9.42094 6.80385,7.33062 9.87788,15.08226 10.4107,26.25222 0.23585,4.94418 -0.35373,10.0249 -1.30246,11.22408 -0.62134,0.78536 -4.42705,1.16308 -7.32554,0.72706 z"
         id="path1312"
         transform="scale(0.26458333)" />
      <path
         style="fill:#a05a2c;fill-rule:evenodd;stroke:#000000;stroke-width:1.44423;stroke-linecap:round;stroke-linejoin:round;paint-order:stroke markers fill"
         d="m 537.4673,921.51318 c -1.28548,-1.00836 -1.71904,-2.99949 -1.92429,-8.83727 -0.14521,-4.13027 -0.0124,-6.81192 0.4768,-9.62508 2.12423,-12.21621 9.08764,-22.29146 18.6835,-27.03286 8.68539,-4.29154 12.96178,-1.20529 14.22398,10.26538 1.4229,12.93106 -4.25517,25.18787 -14.44165,31.17405 -5.38313,3.16345 -15.1796,5.49812 -17.01834,4.05578 z"
         id="path1351"
         transform="scale(0.26458333)" />
      <path
         style="fill:#d38d5f;fill-opacity:1;fill-rule:evenodd;stroke:#000000;stroke-width:1.44423;stroke-linecap:round;stroke-linejoin:round;paint-order:stroke markers fill"
         d="m 512.39263,1011.9913 c -0.71122,-0.081 -1.11913,-0.3404 -1.00191,-0.6361 2.24375,-5.66 11.41652,-28.50874 11.46493,-28.55834 0.0368,-0.0377 0.56967,0.028 1.18413,0.14608 l 1.1172,0.21466 -1.58777,3.67087 c -0.87328,2.01898 -3.03901,7.48782 -4.81274,12.15299 -5.15748,13.56484 -4.96441,13.17014 -6.36384,13.00984 z"
         id="path2558"
         transform="scale(0.26458333)" />
      <path
         style="fill:#d38d5f;fill-opacity:1;fill-rule:evenodd;stroke:#000000;stroke-width:1.44423;stroke-linecap:round;stroke-linejoin:round;paint-order:stroke markers fill"
         d="m 711.47412,1019.0205 c -0.20166,-0.5249 -3.15127,-7.9081 -6.55469,-16.4073 -3.40342,-8.4991 -6.14374,-15.49723 -6.0896,-15.55138 0.0541,-0.0541 0.57517,-0.21444 1.15784,-0.35623 1.03878,-0.25279 1.17841,0.0415 7.17778,15.12731 3.36511,8.4618 6.37352,16.0054 6.68536,16.7635 0.56642,1.377 0.56573,1.3783 -0.72154,1.3783 -0.94485,0 -1.38629,-0.2545 -1.65515,-0.9542 z"
         id="path2829"
         transform="scale(0.26458333)" />
    </g>
  </g>
</svg>
