<?xml version="1.0" encoding="UTF-8" standalone="no"?>
<!-- Created with Inkscape (http://www.inkscape.org/) -->

<svg
   width="210mm"
   height="297mm"
   viewBox="0 0 210 297"
   version="1.1"
   id="svg5"
   inkscape:version="1.1.2 (0a00cf5339, 2022-02-04, custom)"
   sodipodi:docname="percussion icon.svg"
   xmlns:inkscape="http://www.inkscape.org/namespaces/inkscape"
   xmlns:sodipodi="http://sodipodi.sourceforge.net/DTD/sodipodi-0.dtd"
   xmlns="http://www.w3.org/2000/svg"
   xmlns:svg="http://www.w3.org/2000/svg">
  <sodipodi:namedview
     id="namedview7"
     pagecolor="#ffffff"
     bordercolor="#666666"
     borderopacity="1.0"
     inkscape:pageshadow="2"
     inkscape:pageopacity="0.0"
     inkscape:pagecheckerboard="0"
     inkscape:document-units="mm"
     showgrid="false"
     inkscape:zoom="0.94316065"
     inkscape:cx="458.56451"
     inkscape:cy="826.47638"
     inkscape:window-width="1680"
     inkscape:window-height="956"
     inkscape:window-x="-11"
     inkscape:window-y="-11"
     inkscape:window-maximized="1"
     inkscape:current-layer="layer3" />
  <defs
     id="defs2">
    <inkscape:path-effect
       effect="bend_path"
       id="path-effect1519"
       is_visible="true"
       lpeversion="1"
       bendpath="m 71.457367,44.300886 h 8.790774"
       prop_scale="1"
       scale_y_rel="false"
       vertical="false"
       hide_knot="false" />
  </defs>
  <g
     inkscape:label="Layer 1"
     inkscape:groupmode="layer"
     id="layer1">
    <path
       style="fill:#b3ff80;stroke:#000000;stroke-width:15.4166;stroke-linecap:round;stroke-linejoin:round;stroke-dasharray:3.85415, 3.85415;stroke-opacity:0.955017;paint-order:stroke markers fill"
       d=""
       id="path1715"
       transform="scale(0.26458333)" />
    <path
       id="path2103"
       style="fill:none;fill-rule:evenodd;stroke:#000000;stroke-width:0.365291;stroke-linecap:round;stroke-linejoin:round;paint-order:stroke markers fill"
       d="m 60.154027,36.455412 c -0.608517,0.237182 -0.881541,0.972053 -0.61216,1.647694 l 3.531651,8.857911 c 0.269374,0.675641 0.976132,1.028624 1.584643,0.791441 0.608517,-0.237184 0.881541,-0.972056 0.612166,-1.647696 l -3.531651,-8.857911 c -0.26938,-0.67564 -0.976132,-1.028622 -1.584649,-0.791439 z M 51.65592,8.3889498 a 8.4663526,6.0523689 67.80002 0 1 7.461892,5.9557042 8.4663526,6.0523689 67.80002 0 1 0.135114,7.440139 8.3464775,7.9091287 64.352949 0 1 -8.53426,-5.343079 8.3464775,7.9091287 64.352949 0 1 0.937254,-8.0527642 z m -2.615234,-0.812859 a 9.0387222,12.46018 69.197366 0 1 14.956722,3.8718152 9.0387222,12.46018 69.197366 0 1 -3.071253,9.684709 1.658381,7.1974552 68.730382 0 1 1.360615,0.400575 1.658381,7.1974552 68.730382 0 1 -4.660252,3.553639 c 0.294362,0.04328 0.568269,0.256022 0.696274,0.577077 l 17.05095,42.766336 c 0.18241,0.457514 -0.0024,0.955106 -0.414521,1.115718 l -3.368467,1.312934 c -0.412066,0.16062 -0.890617,-0.0784 -1.073027,-0.53591 l -17.05095,-42.76634 c -0.156316,-0.392064 -0.04226,-0.812771 0.252689,-1.026423 A 1.658381,7.1974552 68.730382 0 1 48.874624,26.760868 1.658381,7.1974552 68.730382 0 1 49.620593,25.503796 9.0387222,12.46018 69.197366 0 1 40.779258,20.49769 9.0387222,12.46018 69.197366 0 1 49.040686,7.5760908 Z M 18.107065,34.918221 c 0.608516,0.237182 0.881541,0.972053 0.612163,1.647693 l -3.531652,8.857912 c -0.269377,0.675641 -0.97613,1.028625 -1.584646,0.791441 -0.608516,-0.237183 -0.88154,-0.972055 -0.612163,-1.647696 l 3.531652,-8.857911 c 0.269378,-0.67564 0.97613,-1.028622 1.584646,-0.791439 z M 26.605173,6.8517588 a 6.0523689,8.4663526 22.19998 0 0 -7.46189,5.9557042 6.0523689,8.4663526 22.19998 0 0 -0.135114,7.440138 7.9091287,8.3464775 25.647051 0 0 8.534259,-5.343078 7.9091287,8.3464775 25.647051 0 0 -0.937255,-8.0527642 z m 2.615235,-0.812859 a 12.46018,9.0387222 20.802634 0 0 -14.956723,3.871815 12.46018,9.0387222 20.802634 0 0 3.071256,9.6847092 7.1974552,1.658381 21.269618 0 0 -1.360618,0.400575 7.1974552,1.658381 21.269618 0 0 4.660253,3.553639 c -0.294362,0.04328 -0.568271,0.256021 -0.696275,0.577077 L 2.8873525,66.893051 c -0.182411,0.457515 0.0024,0.955107 0.41452,1.115719 l 3.36847,1.312938 c 0.412063,0.160612 0.890614,-0.0784 1.073025,-0.535917 L 24.794317,26.019453 c 0.156316,-0.392064 0.04226,-0.812771 -0.252689,-1.026423 a 7.1974552,1.658381 21.269618 0 0 4.844841,0.230647 7.1974552,1.658381 21.269618 0 0 -0.745968,-1.257072 12.46018,9.0387222 20.802634 0 0 8.841334,-5.006106 12.46018,9.0387222 20.802634 0 0 -8.261427,-12.9215992 z" />
  </g>
  <g
     inkscape:groupmode="layer"
     id="layer2"
     inkscape:label="Layer 2">
    <path
       id="path828"
       style="fill:#000000;fill-rule:evenodd;stroke:#000000;stroke-width:0.365291;stroke-linecap:round;stroke-linejoin:round;paint-order:stroke markers fill"
       d="m 188.21294,36.455412 c -0.60852,0.237182 -0.88155,0.972053 -0.61216,1.647694 l 3.53167,8.857911 c 0.26937,0.675641 0.97614,1.028624 1.58465,0.791441 0.60852,-0.237184 0.88154,-0.972056 0.61217,-1.647696 l -3.53167,-8.857911 c -0.26938,-0.67564 -0.97614,-1.028622 -1.58466,-0.791439 z M 179.71478,8.3889498 a 8.4663526,6.0523689 67.80002 0 1 7.46194,5.9557042 8.4663526,6.0523689 67.80002 0 1 0.13511,7.440139 8.3464775,7.9091287 64.352949 0 1 -8.53431,-5.343079 8.3464775,7.9091287 64.352949 0 1 0.93726,-8.0527642 z m -2.61525,-0.812859 a 9.0387222,12.46018 69.197366 0 1 14.95681,3.8718152 9.0387222,12.46018 69.197366 0 1 -3.07127,9.684709 1.658381,7.1974552 68.730382 0 1 1.36062,0.400575 1.658381,7.1974552 68.730382 0 1 -4.66028,3.553639 c 0.29437,0.04328 0.56828,0.256022 0.69628,0.577077 l 17.05105,42.766336 c 0.18241,0.457514 -0.002,0.955106 -0.41452,1.115718 l -3.36849,1.312934 c -0.41207,0.16062 -0.89062,-0.0784 -1.07303,-0.53591 l -17.05105,-42.76634 c -0.15632,-0.392064 -0.0423,-0.812771 0.25269,-1.026423 a 1.658381,7.1974552 68.730382 0 1 -4.84487,0.230647 1.658381,7.1974552 68.730382 0 1 0.74597,-1.257072 9.0387222,12.46018 69.197366 0 1 -8.84138,-5.006106 9.0387222,12.46018 69.197366 0 1 8.26147,-12.9215992 z M 146.16574,34.918221 c 0.60852,0.237182 0.88154,0.972053 0.61217,1.647693 l -3.53168,8.857912 c -0.26937,0.675641 -0.97613,1.028625 -1.58465,0.791441 -0.60852,-0.237183 -0.88155,-0.972055 -0.61217,-1.647696 l 3.53167,-8.857911 c 0.26938,-0.67564 0.97614,-1.028622 1.58466,-0.791439 z M 154.6639,6.8517588 a 6.0523689,8.4663526 22.19998 0 0 -7.46194,5.9557042 6.0523689,8.4663526 22.19998 0 0 -0.13511,7.440138 7.9091287,8.3464775 25.647051 0 0 8.53431,-5.343078 7.9091287,8.3464775 25.647051 0 0 -0.93726,-8.0527642 z m 2.61525,-0.812859 a 12.46018,9.0387222 20.802634 0 0 -14.95681,3.871815 12.46018,9.0387222 20.802634 0 0 3.07127,9.6847092 7.1974552,1.658381 21.269618 0 0 -1.36062,0.400575 7.1974552,1.658381 21.269618 0 0 4.66028,3.553639 c -0.29437,0.04328 -0.56828,0.256021 -0.69629,0.577077 l -17.05104,42.766336 c -0.18242,0.457515 0.002,0.955107 0.41452,1.115719 l 3.36849,1.312938 c 0.41207,0.160612 0.89062,-0.0784 1.07303,-0.535917 l 17.05105,-42.766338 c 0.15632,-0.392064 0.0423,-0.812771 -0.25269,-1.026423 a 7.1974552,1.658381 21.269618 0 0 4.84487,0.230647 7.1974552,1.658381 21.269618 0 0 -0.74597,-1.257072 12.46018,9.0387222 20.802634 0 0 8.84138,-5.006106 12.46018,9.0387222 20.802634 0 0 -8.26147,-12.9215992 z" />
  </g>
  <g
     inkscape:groupmode="layer"
     id="layer3"
     inkscape:label="Layer 3">
    <path
       id="path838"
       style="fill:#ffffff;fill-rule:evenodd;stroke:#000000;stroke-width:1.865;stroke-linecap:round;stroke-linejoin:round;paint-order:stroke markers fill;stroke-miterlimit:4;stroke-dasharray:none"
       d="m 60.154027,257.6481 c -0.608517,0.23718 -0.881541,0.97206 -0.61216,1.6477 l 3.531651,8.85796 c 0.269374,0.67565 0.976132,1.02863 1.584643,0.79145 0.608517,-0.23719 0.881541,-0.97206 0.612166,-1.6477 l -3.531651,-8.85797 c -0.26938,-0.67564 -0.976132,-1.02862 -1.584649,-0.79144 z M 51.65592,229.58148 a 8.4663526,6.0523689 67.80002 0 1 7.461892,5.95574 8.4663526,6.0523689 67.80002 0 1 0.135114,7.44018 8.3464775,7.9091287 64.352949 0 1 -8.53426,-5.34311 8.3464775,7.9091287 64.352949 0 1 0.937254,-8.05281 z m -2.615234,-0.81287 a 9.0387222,12.46018 69.197366 0 1 14.956722,3.87184 9.0387222,12.46018 69.197366 0 1 -3.071253,9.68476 1.658381,7.1974552 68.730382 0 1 1.360615,0.40058 1.658381,7.1974552 68.730382 0 1 -4.660252,3.55366 c 0.294362,0.0433 0.568269,0.25602 0.696274,0.57708 l 17.05095,42.76658 c 0.18241,0.45752 -0.0024,0.95511 -0.414521,1.11573 l -3.368467,1.31294 c -0.412066,0.16062 -0.890617,-0.0784 -1.073027,-0.53592 l -17.05095,-42.76658 c -0.156316,-0.39206 -0.04226,-0.81277 0.252689,-1.02643 a 1.658381,7.1974552 68.730382 0 1 -4.844842,0.23065 1.658381,7.1974552 68.730382 0 1 0.745969,-1.25708 9.0387222,12.46018 69.197366 0 1 -8.841335,-5.00613 9.0387222,12.46018 69.197366 0 1 8.261428,-12.92168 z M 18.107065,256.1109 c 0.608516,0.23718 0.881541,0.97206 0.612163,1.6477 l -3.531652,8.85796 c -0.269377,0.67565 -0.97613,1.02863 -1.584646,0.79145 -0.608516,-0.23719 -0.88154,-0.97206 -0.612163,-1.6477 l 3.531652,-8.85797 c 0.269378,-0.67564 0.97613,-1.02862 1.584646,-0.79144 z m 8.498108,-28.06662 a 6.0523689,8.4663526 22.19998 0 0 -7.46189,5.95574 6.0523689,8.4663526 22.19998 0 0 -0.135114,7.44018 7.9091287,8.3464775 25.647051 0 0 8.534259,-5.34311 7.9091287,8.3464775 25.647051 0 0 -0.937255,-8.05281 z m 2.615235,-0.81286 a 12.46018,9.0387222 20.802634 0 0 -14.956723,3.87183 12.46018,9.0387222 20.802634 0 0 3.071256,9.68477 7.1974552,1.658381 21.269618 0 0 -1.360618,0.40057 7.1974552,1.658381 21.269618 0 0 4.660253,3.55366 c -0.294362,0.0433 -0.568271,0.25603 -0.696275,0.57708 L 2.8873525,288.08591 c -0.182411,0.45752 0.0024,0.95511 0.41452,1.11573 l 3.36847,1.31294 c 0.412063,0.16062 0.890614,-0.0784 1.073025,-0.53592 L 24.794317,247.21208 c 0.156316,-0.39206 0.04226,-0.81277 -0.252689,-1.02643 a 7.1974552,1.658381 21.269618 0 0 4.844841,0.23065 7.1974552,1.658381 21.269618 0 0 -0.745968,-1.25708 12.46018,9.0387222 20.802634 0 0 8.841334,-5.00613 12.46018,9.0387222 20.802634 0 0 -8.261427,-12.92167 z" />
  </g>
  <g
     inkscape:groupmode="layer"
     id="layer4"
     inkscape:label="Layer 4">
    <g
       id="g2228"
       transform="matrix(0.31419541,0,0,0.369354,10.389536,5.8783861)"
       style="stroke-width:3.52257;stroke-miterlimit:4;stroke-dasharray:none" />
  </g>
</svg>
