<?xml version="1.0" encoding="UTF-8" standalone="no"?>
<!-- Created with Inkscape (http://www.inkscape.org/) -->

<svg
   width="210mm"
   height="297mm"
   viewBox="0 0 210 297"
   version="1.1"
   id="svg5"
   inkscape:version="1.1.2 (0a00cf5339, 2022-02-04, custom)"
   sodipodi:docname="string icon.svg"
   xmlns:inkscape="http://www.inkscape.org/namespaces/inkscape"
   xmlns:sodipodi="http://sodipodi.sourceforge.net/DTD/sodipodi-0.dtd"
   xmlns="http://www.w3.org/2000/svg"
   xmlns:svg="http://www.w3.org/2000/svg">
  <sodipodi:namedview
     id="namedview7"
     pagecolor="#ffffff"
     bordercolor="#666666"
     borderopacity="1.0"
     inkscape:pageshadow="2"
     inkscape:pageopacity="0.0"
     inkscape:pagecheckerboard="0"
     inkscape:document-units="mm"
     showgrid="false"
     inkscape:zoom="1.0263363"
     inkscape:cx="169.0479"
     inkscape:cy="223.61092"
     inkscape:window-width="1680"
     inkscape:window-height="956"
     inkscape:window-x="-11"
     inkscape:window-y="-11"
     inkscape:window-maximized="1"
     inkscape:current-layer="layer2" />
  <defs
     id="defs2">
    <inkscape:path-effect
       effect="bend_path"
       id="path-effect1519"
       is_visible="true"
       lpeversion="1"
       bendpath="m 71.457367,44.300886 h 8.790774"
       prop_scale="1"
       scale_y_rel="false"
       vertical="false"
       hide_knot="false" />
  </defs>
  <g
     inkscape:label="Layer 1"
     inkscape:groupmode="layer"
     id="layer1">
    <path
       style="fill:#b3ff80;stroke:#000000;stroke-width:15.4166;stroke-linecap:round;stroke-linejoin:round;stroke-dasharray:3.85415, 3.85415;stroke-opacity:0.955017;paint-order:stroke markers fill"
       d=""
       id="path1715"
       transform="scale(0.26458333)" />
    <path
       id="path1446"
       style="fill:none;stroke:#000000;stroke-width:0.454843;stroke-linecap:butt;stroke-linejoin:miter;stroke-miterlimit:4;stroke-dasharray:none;stroke-opacity:1"
       d="m 51.374107,35.911233 3.184678,-2.336564 m -9.155953,2.336564 3.184677,-2.336564 m -6.634747,0.333795 3.184679,-2.336565 m -10.350209,4.339334 3.18468,-2.336564 m -7.430921,0.44506 3.18468,-2.336565 m -11.544466,4.228069 3.18468,-2.336564 m -8.22709,0 3.18468,-2.336565 M 9.7078735,35.911233 12.892554,33.574669 M 4.7318115,31.300199 H 56.88095 c 1.539504,0 2.778888,1.039225 2.778888,2.330102 0,1.290877 -1.239384,2.330103 -2.778888,2.330103 H 4.7318115 c -1.539504,0 -2.778889,-1.039226 -2.778889,-2.330103 0,-1.290877 1.239385,-2.330102 2.778889,-2.330102 z m 46.6422955,-9.092408 3.184678,-2.336564 m -9.155953,2.336564 3.184677,-2.336564 m -6.634747,0.333795 3.184679,-2.336565 m -10.350209,4.339334 3.18468,-2.336564 m -7.430921,0.44506 3.18468,-2.336565 m -11.544466,4.228069 3.18468,-2.336564 m -8.22709,0 3.18468,-2.336565 M 9.7078735,22.207791 12.892554,19.871227 M 4.7318115,17.596757 H 56.88095 c 1.539504,0 2.778888,1.039225 2.778888,2.330102 0,1.290877 -1.239384,2.330103 -2.778888,2.330103 H 4.7318115 c -1.539504,0 -2.778889,-1.039226 -2.778889,-2.330103 0,-1.290877 1.239385,-2.330102 2.778889,-2.330102 z M 51.374107,9.6463032 54.558785,7.3097392 m -9.155953,2.336564 3.184677,-2.336564 m -6.634747,0.333795 3.184679,-2.336565 m -10.350209,4.339334 3.18468,-2.336564 m -7.430921,0.445059 3.18468,-2.336564 m -11.544466,4.228069 3.18468,-2.336564 m -8.22709,0 3.18468,-2.336565 M 9.7078735,9.6463032 12.892554,7.3097392 M 4.7318115,5.0352692 H 56.88095 c 1.539504,0 2.778888,1.039225 2.778888,2.330102 0,1.290877 -1.239384,2.330103 -2.778888,2.330103 H 4.7318115 c -1.539504,0 -2.778889,-1.039226 -2.778889,-2.330103 0,-1.290877 1.239385,-2.330102 2.778889,-2.330102 z" />
  </g>
  <g
     inkscape:groupmode="layer"
     id="layer2"
     inkscape:label="Layer 2">
    <path
       id="path831"
       style="fill:#000000;stroke:#000000;stroke-width:0.454843;stroke-linecap:butt;stroke-linejoin:miter;stroke-miterlimit:4;stroke-dasharray:none;stroke-opacity:1"
       d="m 136.04103,35.911233 3.1847,-2.336564 m -9.15601,2.336564 3.18469,-2.336564 m -6.63478,0.333795 3.1847,-2.336565 m -10.35027,4.339334 3.1847,-2.336564 m -7.43097,0.44506 3.1847,-2.336565 m -11.54453,4.228069 3.1847,-2.336564 m -8.22714,0 3.1847,-2.336565 m -10.615627,4.673129 3.184681,-2.336564 m -8.160746,-2.27447 H 141.5479 c 1.53952,0 2.77891,1.039225 2.77891,2.330102 0,1.290877 -1.23939,2.330103 -2.77891,2.330103 H 89.398528 c -1.539504,0 -2.77889,-1.039226 -2.77889,-2.330103 0,-1.290877 1.239386,-2.330102 2.77889,-2.330102 z m 46.642502,-9.092408 3.1847,-2.336564 m -9.15601,2.336564 3.18469,-2.336564 m -6.63478,0.333795 3.1847,-2.336565 m -10.35027,4.339334 3.1847,-2.336564 m -7.43097,0.44506 3.1847,-2.336565 m -11.54453,4.228069 3.1847,-2.336564 m -8.22714,0 3.1847,-2.336565 m -10.615627,4.673129 3.184681,-2.336564 m -8.160746,-2.27447 H 141.5479 c 1.53952,0 2.77891,1.039225 2.77891,2.330102 0,1.290877 -1.23939,2.330103 -2.77891,2.330103 H 89.398528 c -1.539504,0 -2.77889,-1.039226 -2.77889,-2.330103 0,-1.290877 1.239386,-2.330102 2.77889,-2.330102 z m 46.642502,-7.9504538 3.1847,-2.336564 m -9.15601,2.336564 3.18469,-2.336564 m -6.63478,0.333795 3.1847,-2.336565 m -10.35027,4.339334 3.1847,-2.336564 m -7.43097,0.445059 3.1847,-2.336564 m -11.54453,4.228069 3.1847,-2.336564 m -8.22714,0 3.1847,-2.336565 m -10.615627,4.673129 3.184681,-2.336564 m -8.160746,-2.27447 H 141.5479 c 1.53952,0 2.77891,1.039225 2.77891,2.330102 0,1.290877 -1.23939,2.330103 -2.77891,2.330103 H 89.398528 c -1.539504,0 -2.77889,-1.039226 -2.77889,-2.330103 0,-1.290877 1.239386,-2.330102 2.77889,-2.330102 z" />
  </g>
  <g
     inkscape:groupmode="layer"
     id="layer3"
     inkscape:label="Layer 3" />
  <g
     inkscape:groupmode="layer"
     id="layer4"
     inkscape:label="Layer 4">
    <g
       id="g2228"
       transform="matrix(0.31419541,0,0,0.369354,10.389536,5.8783861)"
       style="stroke-width:3.52257;stroke-miterlimit:4;stroke-dasharray:none" />
    <path
       style="fill:#a05a2c;fill-rule:evenodd;stroke:#000000;stroke-width:4.67251;stroke-linecap:round;stroke-linejoin:round;paint-order:stroke markers fill"
       d=""
       id="path1195"
       transform="scale(0.26458333)" />
    <path
       style="fill:#d38d5f;fill-opacity:1;fill-rule:evenodd;stroke:#000000;stroke-width:1.44423;stroke-linecap:round;stroke-linejoin:round;paint-order:stroke markers fill"
       d=""
       id="path2636"
       transform="scale(0.26458333)" />
    <path
       style="fill:#d38d5f;fill-opacity:1;fill-rule:evenodd;stroke:#000000;stroke-width:1.44423;stroke-linecap:round;stroke-linejoin:round;paint-order:stroke markers fill"
       d=""
       id="path2675"
       transform="scale(0.26458333)" />
  </g>
</svg>
