<?xml version="1.0" encoding="UTF-8" standalone="no"?>
<!-- Created with Inkscape (http://www.inkscape.org/) -->

<svg
   width="210mm"
   height="297mm"
   viewBox="0 0 210 297"
   version="1.1"
   id="svg5"
   inkscape:version="1.1 (c68e22c387, 2021-05-23)"
   sodipodi:docname="2 mic audio interface.svg"
   xmlns:inkscape="http://www.inkscape.org/namespaces/inkscape"
   xmlns:sodipodi="http://sodipodi.sourceforge.net/DTD/sodipodi-0.dtd"
   xmlns="http://www.w3.org/2000/svg"
   xmlns:svg="http://www.w3.org/2000/svg">
  <sodipodi:namedview
     id="namedview7"
     pagecolor="#ffffff"
     bordercolor="#666666"
     borderopacity="1.0"
     inkscape:pageshadow="2"
     inkscape:pageopacity="0.0"
     inkscape:pagecheckerboard="0"
     inkscape:document-units="mm"
     showgrid="false"
     inkscape:zoom="1.1009789"
     inkscape:cx="239.78661"
     inkscape:cy="-45.868271"
     inkscape:window-width="1680"
     inkscape:window-height="956"
     inkscape:window-x="-11"
     inkscape:window-y="-11"
     inkscape:window-maximized="1"
     inkscape:current-layer="layer1" />
  <defs
     id="defs2">
    <inkscape:path-effect
       effect="spiro"
       id="path-effect1642"
       is_visible="true"
       lpeversion="1" />
    <inkscape:path-effect
       effect="spiro"
       id="path-effect1525"
       is_visible="true"
       lpeversion="1" />
    <inkscape:path-effect
       effect="skeletal"
       id="path-effect1521"
       is_visible="true"
       lpeversion="1"
       pattern="m 105.24064,180.3497 a 9.3049065,7.6477915 0 0 1 -9.304903,7.6478 9.3049065,7.6477915 0 0 1 -9.304906,-7.6478 9.3049065,7.6477915 0 0 1 9.304906,-7.64779 9.3049065,7.6477915 0 0 1 9.304903,7.64779 z m 3.42813,-0.62008 a 12.855461,11.368339 0 0 1 -12.855465,11.36834 12.855461,11.368339 0 0 1 -12.855461,-11.36834 12.855461,11.368339 0 0 1 12.855461,-11.36834 12.855461,11.368339 0 0 1 12.855465,11.36834 z"
       copytype="repeated_stretched"
       prop_scale="1"
       scale_y_rel="false"
       spacing="0"
       normal_offset="0"
       tang_offset="0"
       prop_units="false"
       vertical_pattern="false"
       hide_knot="false"
       fuse_tolerance="0" />
  </defs>
  <g
     inkscape:label="Layer 1"
     inkscape:groupmode="layer"
     id="layer1">
    <path
       id="path4070"
       style="fill:none;fill-rule:evenodd;stroke:#000000;stroke-width:0.645825;stroke-linecap:round;stroke-linejoin:round;stroke-miterlimit:4;stroke-dasharray:none;stroke-opacity:0.955017;paint-order:stroke markers fill"
       d="m 31.865087,29.99385 a 1.5941543,1.7189101 0 0 1 -1.594162,1.71891 1.5941543,1.7189101 0 0 1 -1.594168,-1.71891 1.5941543,1.7189101 0 0 1 1.594168,-1.718913 1.5941543,1.7189101 0 0 1 1.594162,1.718913 z m -0.260866,0.506054 a 1.2898157,1.2164594 0 0 1 -1.289823,1.216461 1.2898157,1.2164594 0 0 1 -1.289819,-1.216461 1.2898157,1.2164594 0 0 1 1.289819,-1.21646 1.2898157,1.2164594 0 0 1 1.289823,1.21646 z M 25.351196,19.949626 a 0.70581213,1.4467282 0 0 1 -0.70581,1.446729 0.70581213,1.4467282 0 0 1 -0.705811,-1.446729 0.70581213,1.4467282 0 0 1 0.705811,-1.446727 0.70581213,1.4467282 0 0 1 0.70581,1.446727 z m 2.113348,-2.757718 h 0.154816 c 0.105978,0 0.191295,0.180437 0.191295,0.404566 v 2.462685 c 0,0.224132 -0.08532,0.404566 -0.191295,0.404566 h -0.154816 c -0.105977,0 -0.191293,-0.180434 -0.191293,-0.404566 v -2.462685 c 0,-0.224129 0.08532,-0.404566 0.191293,-0.404566 z m 1.668761,2.572262 a 1.4936349,2.5905373 0 0 1 -1.49364,2.590539 1.4936349,2.5905373 0 0 1 -1.493643,-2.590539 1.4936349,2.5905373 0 0 1 1.493643,-2.590536 1.4936349,2.5905373 0 0 1 1.49364,2.590536 z m -3.854479,7.414911 a 0.8153251,1.4029095 0 0 0 -0.775882,0.973606 h -0.755109 c -0.135504,0 -0.244597,0.206022 -0.244597,0.461935 0,0.255911 0.109093,0.461935 0.244597,0.461935 h 0.768373 a 0.8153251,1.4029095 0 0 0 0.451294,0.801272 v 1.289054 c 0,0.255909 0.109097,0.461936 0.244603,0.461936 0.135504,0 0.244572,-0.206027 0.244572,-0.461936 v -1.215976 a 0.8153251,1.4029095 0 0 0 0.584773,-0.87435 h 0.702591 c 0.135506,0 0.244602,-0.206024 0.244602,-0.461935 0,-0.255913 -0.109096,-0.461935 -0.244602,-0.461935 h -0.689062 a 0.8153251,1.4029095 0 0 0 -0.776153,-0.973606 z m 2.78541,2.035934 a 2.930349,5.1405972 0 0 1 -2.930349,5.140593 2.930349,5.1405972 0 0 1 -2.930351,-5.140593 2.930349,5.1405972 0 0 1 2.930351,-5.1406 2.930349,5.1405972 0 0 1 2.930349,5.1406 z m -0.393783,0.01712 a 2.4731529,4.4824666 0 0 1 -2.473156,4.482465 2.4731529,4.4824666 0 0 1 -2.473149,-4.482466 2.4731529,4.4824666 0 0 1 2.473149,-4.482467 2.4731529,4.4824666 0 0 1 2.473156,4.482468 z m 3.119046,9.191931 a 1.8657401,2.3995257 0 0 1 -1.865741,2.399528 1.8657401,2.3995257 0 0 1 -1.86574,-2.399528 1.8657401,2.3995257 0 0 1 1.86574,-2.399524 1.8657401,2.3995257 0 0 1 1.865741,2.399524 z m -0.3053,0.706432 A 1.5095532,1.6981259 0 0 1 28.974646,40.828625 1.5095532,1.6981259 0 0 1 27.465085,39.1305 1.5095532,1.6981259 0 0 1 28.974646,37.432372 1.5095532,1.6981259 0 0 1 30.484199,39.1305 Z M 18.194856,29.99385 a 1.5941543,1.7189101 0 0 1 -1.594151,1.71891 1.5941543,1.7189101 0 0 1 -1.594154,-1.71891 1.5941543,1.7189101 0 0 1 1.594154,-1.718913 1.5941543,1.7189101 0 0 1 1.594151,1.718913 z m -0.26086,0.506054 a 1.2898157,1.2164594 0 0 1 -1.289812,1.216461 1.2898157,1.2164594 0 0 1 -1.289818,-1.216461 1.2898157,1.2164594 0 0 1 1.289818,-1.21646 1.2898157,1.2164594 0 0 1 1.289812,1.21646 z M 11.681,19.949626 a 0.70581213,1.4467282 0 0 1 -0.705818,1.446729 0.70581213,1.4467282 0 0 1 -0.70581,-1.446729 0.70581213,1.4467282 0 0 1 0.70581,-1.446727 0.70581213,1.4467282 0 0 1 0.705818,1.446727 z m 2.113344,-2.757718 h 0.154807 c 0.105979,0 0.191301,0.180437 0.191301,0.404566 v 2.462685 c 0,0.224132 -0.08532,0.404566 -0.191301,0.404566 h -0.154807 c -0.10598,0 -0.191297,-0.180434 -0.191297,-0.404566 v -2.462685 c 0,-0.224129 0.08532,-0.404566 0.191297,-0.404566 z m 1.668752,2.572262 a 1.4936349,2.5905373 0 0 1 -1.493639,2.590539 1.4936349,2.5905373 0 0 1 -1.493632,-2.590539 1.4936349,2.5905373 0 0 1 1.493632,-2.590536 1.4936349,2.5905373 0 0 1 1.493639,2.590536 z m -3.854467,7.414911 a 0.8153251,1.4029095 0 0 0 -0.775887,0.973606 h -0.755103 c -0.1355113,0 -0.2446028,0.206022 -0.2446028,0.461935 0,0.255911 0.1090915,0.461935 0.2446028,0.461935 h 0.768371 a 0.8153251,1.4029095 0 0 0 0.451296,0.801272 v 1.289054 c 0,0.255909 0.109089,0.461936 0.244595,0.461936 0.135511,0 0.244581,-0.206027 0.244581,-0.461936 v -1.215976 a 0.8153251,1.4029095 0 0 0 0.584766,-0.87435 h 0.702591 c 0.135511,0 0.244601,-0.206024 0.244601,-0.461935 0,-0.255913 -0.10909,-0.461935 -0.244601,-0.461935 h -0.689063 a 0.8153251,1.4029095 0 0 0 -0.776147,-0.973606 z m 2.785405,2.035934 a 2.930349,5.1405972 0 0 1 -2.93035,5.140593 2.930349,5.1405972 0 0 1 -2.9303507,-5.140593 2.930349,5.1405972 0 0 1 2.9303507,-5.1406 2.930349,5.1405972 0 0 1 2.93035,5.1406 z m -0.393782,0.01712 a 2.4731529,4.4824666 0 0 1 -2.473156,4.482459 2.4731529,4.4824666 0 0 1 -2.4731498,-4.482466 2.4731529,4.4824666 0 0 1 2.4731498,-4.482466 2.4731529,4.4824666 0 0 1 2.473156,4.482468 z m -7.9860012,-6.89532 h 0.1766468 c 0.4586917,0 0.8279681,0.524316 0.8279681,1.175592 V 38.07419 c 0,0.651278 -0.3692764,1.17559 -0.8279681,1.17559 H 6.0142508 c -0.4586917,0 -0.8279623,-0.524312 -0.8279623,-1.17559 V 23.512406 c 0,-0.651276 0.3692706,-1.175591 0.8279623,-1.175591 z m 82.1389882,0 h 0.176645 c 0.458686,0 0.827971,0.524316 0.827971,1.175592 V 38.07419 c 0,0.651278 -0.369285,1.17559 -0.827971,1.17559 h -0.176645 c -0.458693,0 -0.827957,-0.524312 -0.827957,-1.17559 V 23.512406 c 0,-0.651276 0.369264,-1.175591 0.827957,-1.175591 z M 62.432583,4.8365585 h 25.737826 c 0.458963,0 0.828436,0.5246154 0.828436,1.1762625 v 8.80513 c 0,0.651647 -0.369473,1.176258 -0.828436,1.176258 H 62.432583 c -0.458949,0 -0.828433,-0.524611 -0.828433,-1.176258 v -8.80513 c 0,-0.6516471 0.369484,-1.1762625 0.828433,-1.1762625 z m -27.578029,-0.00396 h 24.544659 c 0.459279,0 0.829018,0.5249814 0.829018,1.1770916 v 8.8113139 c 0,0.652109 -0.369739,1.177088 -0.829018,1.177088 H 34.854554 c -0.459278,0 -0.829021,-0.524979 -0.829021,-1.177088 V 6.0097279 c 0,-0.6521075 0.369743,-1.1770865 0.829021,-1.1770865 z m 26.055421,0.07057 c 0.408811,0 0.737927,0.5276884 0.737927,1.1831551 v 8.7215184 c 0,0.655468 -0.329116,1.183154 -0.737927,1.183154 -0.408813,0 -0.737928,-0.527686 -0.737928,-1.183154 V 6.086391 c 0,-0.6554702 0.329115,-1.1831589 0.737928,-1.1831589 z m -27.693667,0 c 0.408812,0 0.737928,0.5276884 0.737928,1.1831551 v 8.7215184 c 0,0.655468 -0.329116,1.183154 -0.737928,1.183154 -0.408815,0 -0.737929,-0.527686 -0.737929,-1.183154 V 6.086391 c 0,-0.6554702 0.329114,-1.1831589 0.737929,-1.1831589 z M 61.114799,15.99106 h 27.204533 c 0.4587,0 0.827957,0.524315 0.827957,1.175593 V 41.95474 c 0,0.651278 -0.369257,1.175593 -0.827957,1.175593 H 61.114799 c -0.458693,0 -0.827966,-0.524315 -0.827966,-1.175593 V 17.166628 c 0,-0.651279 0.369273,-1.175593 0.827966,-1.175593 z m -27.693663,0 h 27.204537 c 0.458685,0 0.827958,0.524315 0.827958,1.175593 V 41.95474 c 0,0.651278 -0.369273,1.175593 -0.827958,1.175593 H 33.421136 c -0.458693,0 -0.827963,-0.524315 -0.827963,-1.175593 V 17.166628 c 0,-0.651279 0.36927,-1.175593 0.827963,-1.175593 z m -27.4581827,0 H 33.16748 c 0.458692,0 0.827969,0.524315 0.827969,1.175593 V 41.95474 c 0,0.651278 -0.369277,1.175593 -0.827969,1.175593 H 5.9629533 c -0.4586917,0 -0.8279674,-0.524315 -0.8279674,-1.175593 V 17.166628 c 0,-0.651279 0.3692757,-1.175593 0.8279674,-1.175593 z m 39.9315237,1.541362 c 0.458693,0 0.827962,0.524314 0.827962,1.175589 v 10.681073 c 0,0.651278 -0.369269,1.17559 -0.827962,1.17559 -0.458691,0 -0.827962,-0.524312 -0.827962,-1.17559 V 18.707985 c 0,-0.651278 0.369271,-1.175589 0.827962,-1.175589 z M 59.070933,29.086754 A 11.68612,11.554357 0 0 1 47.384812,40.641115 11.68612,11.554357 0 0 1 35.698691,29.086758 11.68612,11.554357 0 0 1 47.384812,17.5324 11.68612,11.554357 0 0 1 59.070933,29.086758 Z m -3.02798,-1.007649 A 9.3205092,10.546711 0 0 1 46.722439,38.625818 9.3205092,10.546711 0 0 1 37.401932,28.079109 9.3205092,10.546711 0 0 1 46.722439,17.532397 9.3205092,10.546711 0 0 1 56.042953,28.079109 Z M 5.8665627,4.8365585 H 31.604389 c 0.458957,0 0.828441,0.5246154 0.828441,1.1762625 v 8.80513 c 0,0.651647 -0.369484,1.176258 -0.828441,1.176258 H 5.8665627 c -0.4589501,0 -0.8284345,-0.524611 -0.8284345,-1.176258 v -8.80513 c 0,-0.6516471 0.3694844,-1.1762625 0.8284345,-1.1762625 z M 82.611413,36.679195 a 2.0722215,2.4182664 0 0 1 -2.072221,2.418268 2.0722215,2.4182664 0 0 1 -2.072221,-2.418268 2.0722215,2.4182664 0 0 1 2.072221,-2.418266 2.0722215,2.4182664 0 0 1 2.072221,2.418266 z m 0.763449,-0.196072 a 2.8629371,3.5947204 0 0 1 -2.862938,3.594719 2.8629371,3.5947204 0 0 1 -2.862933,-3.594719 2.8629371,3.5947204 0 0 1 2.862933,-3.594722 2.8629371,3.5947204 0 0 1 2.862938,3.594722 z m -1.902073,-12.004362 0.128423,0.375075 c 0.08793,0.25677 -0.0033,0.575361 -0.204676,0.714334 l -2.212025,1.526972 c -0.201315,0.138971 -0.434169,0.04413 -0.522093,-0.212637 L 78.533989,26.50743 c -0.08791,-0.256764 0.0033,-0.575361 0.204689,-0.714328 l 2.21201,-1.526975 c 0.201329,-0.13897 0.434184,-0.04413 0.522101,0.212634 z m -0.926034,5.638015 a 3.9672855,2.6241835 85.144154 0 1 -3.566002,-2.012578 3.9672855,2.6241835 85.144154 0 1 1.087728,-5.22507 3.9672855,2.6241835 85.144154 0 1 3.565996,2.012576 3.9672855,2.6241835 85.144154 0 1 -1.087722,5.225072 z" />
  </g>
</svg>
