<?xml version="1.0" encoding="UTF-8" standalone="no"?>
<!-- Created with Inkscape (http://www.inkscape.org/) -->

<svg
   width="210mm"
   height="297mm"
   viewBox="0 0 210 297"
   version="1.1"
   id="svg5"
   inkscape:version="1.1.2 (0a00cf5339, 2022-02-04, custom)"
   sodipodi:docname="2 mic audio interface.svg"
   xmlns:inkscape="http://www.inkscape.org/namespaces/inkscape"
   xmlns:sodipodi="http://sodipodi.sourceforge.net/DTD/sodipodi-0.dtd"
   xmlns="http://www.w3.org/2000/svg"
   xmlns:svg="http://www.w3.org/2000/svg">
  <sodipodi:namedview
     id="namedview7"
     pagecolor="#ffffff"
     bordercolor="#666666"
     borderopacity="1.0"
     inkscape:pageshadow="2"
     inkscape:pageopacity="0.0"
     inkscape:pagecheckerboard="0"
     inkscape:document-units="mm"
     showgrid="false"
     inkscape:zoom="0.89571167"
     inkscape:cx="259.57014"
     inkscape:cy="252.87155"
     inkscape:window-width="1680"
     inkscape:window-height="956"
     inkscape:window-x="-11"
     inkscape:window-y="-11"
     inkscape:window-maximized="1"
     inkscape:current-layer="layer2" />
  <defs
     id="defs2">
    <inkscape:path-effect
       effect="spiro"
       id="path-effect1642"
       is_visible="true"
       lpeversion="1" />
    <inkscape:path-effect
       effect="spiro"
       id="path-effect1525"
       is_visible="true"
       lpeversion="1" />
    <inkscape:path-effect
       effect="skeletal"
       id="path-effect1521"
       is_visible="true"
       lpeversion="1"
       pattern="m 105.24064,180.3497 a 9.3049065,7.6477915 0 0 1 -9.304903,7.6478 9.3049065,7.6477915 0 0 1 -9.304906,-7.6478 9.3049065,7.6477915 0 0 1 9.304906,-7.64779 9.3049065,7.6477915 0 0 1 9.304903,7.64779 z m 3.42813,-0.62008 a 12.855461,11.368339 0 0 1 -12.855465,11.36834 12.855461,11.368339 0 0 1 -12.855461,-11.36834 12.855461,11.368339 0 0 1 12.855461,-11.36834 12.855461,11.368339 0 0 1 12.855465,11.36834 z"
       copytype="repeated_stretched"
       prop_scale="1"
       scale_y_rel="false"
       spacing="0"
       normal_offset="0"
       tang_offset="0"
       prop_units="false"
       vertical_pattern="false"
       hide_knot="false"
       fuse_tolerance="0" />
  </defs>
  <g
     inkscape:label="Layer 1"
     inkscape:groupmode="layer"
     id="layer1">
    <path
       id="path4070"
       style="display:inline;fill:none;fill-rule:evenodd;stroke:#000000;stroke-width:0.645825;stroke-linecap:round;stroke-linejoin:round;stroke-miterlimit:4;stroke-dasharray:none;stroke-opacity:0.955017;paint-order:stroke markers fill"
       d="m 35.216409,33.087378 a 1.5941543,1.7189101 0 0 1 -1.594162,1.71891 1.5941543,1.7189101 0 0 1 -1.594168,-1.71891 1.5941543,1.7189101 0 0 1 1.594168,-1.718913 1.5941543,1.7189101 0 0 1 1.594162,1.718913 z m -0.260866,0.506054 a 1.2898157,1.2164594 0 0 1 -1.289823,1.216461 1.2898157,1.2164594 0 0 1 -1.289819,-1.216461 1.2898157,1.2164594 0 0 1 1.289819,-1.21646 1.2898157,1.2164594 0 0 1 1.289823,1.21646 z M 28.702518,23.043154 a 0.70581213,1.4467282 0 0 1 -0.70581,1.446729 0.70581213,1.4467282 0 0 1 -0.705811,-1.446729 0.70581213,1.4467282 0 0 1 0.705811,-1.446727 0.70581213,1.4467282 0 0 1 0.70581,1.446727 z m 2.113348,-2.757718 h 0.154816 c 0.105978,0 0.191295,0.180437 0.191295,0.404566 v 2.462685 c 0,0.224132 -0.08532,0.404566 -0.191295,0.404566 h -0.154816 c -0.105977,0 -0.191293,-0.180434 -0.191293,-0.404566 v -2.462685 c 0,-0.224129 0.08532,-0.404566 0.191293,-0.404566 z m 1.668761,2.572262 a 1.4936349,2.5905373 0 0 1 -1.49364,2.590539 1.4936349,2.5905373 0 0 1 -1.493643,-2.590539 1.4936349,2.5905373 0 0 1 1.493643,-2.590536 1.4936349,2.5905373 0 0 1 1.49364,2.590536 z m -3.854479,7.414911 a 0.8153251,1.4029095 0 0 0 -0.775882,0.973606 h -0.755109 c -0.135504,0 -0.244597,0.206022 -0.244597,0.461935 0,0.255911 0.109093,0.461935 0.244597,0.461935 h 0.768373 a 0.8153251,1.4029095 0 0 0 0.451294,0.801272 v 1.289054 c 0,0.255909 0.109097,0.461936 0.244603,0.461936 0.135504,0 0.244572,-0.206027 0.244572,-0.461936 v -1.215976 a 0.8153251,1.4029095 0 0 0 0.584773,-0.87435 h 0.702591 c 0.135506,0 0.244602,-0.206024 0.244602,-0.461935 0,-0.255913 -0.109096,-0.461935 -0.244602,-0.461935 h -0.689062 a 0.8153251,1.4029095 0 0 0 -0.776153,-0.973606 z m 2.78541,2.035934 a 2.930349,5.1405972 0 0 1 -2.930349,5.140593 2.930349,5.1405972 0 0 1 -2.930351,-5.140593 2.930349,5.1405972 0 0 1 2.930351,-5.1406 2.930349,5.1405972 0 0 1 2.930349,5.1406 z m -0.393783,0.01712 a 2.4731529,4.4824666 0 0 1 -2.473156,4.482465 2.4731529,4.4824666 0 0 1 -2.473149,-4.482466 2.4731529,4.4824666 0 0 1 2.473149,-4.482467 2.4731529,4.4824666 0 0 1 2.473156,4.482468 z m 3.119046,9.191931 a 1.8657401,2.3995257 0 0 1 -1.865741,2.399528 1.8657401,2.3995257 0 0 1 -1.86574,-2.399528 1.8657401,2.3995257 0 0 1 1.86574,-2.399524 1.8657401,2.3995257 0 0 1 1.865741,2.399524 z m -0.3053,0.706432 a 1.5095532,1.6981259 0 0 1 -1.509553,1.698127 1.5095532,1.6981259 0 0 1 -1.509561,-1.698125 1.5095532,1.6981259 0 0 1 1.509561,-1.698128 1.5095532,1.6981259 0 0 1 1.509553,1.698128 z M 21.546178,33.087378 a 1.5941543,1.7189101 0 0 1 -1.594151,1.71891 1.5941543,1.7189101 0 0 1 -1.594154,-1.71891 1.5941543,1.7189101 0 0 1 1.594154,-1.718913 1.5941543,1.7189101 0 0 1 1.594151,1.718913 z m -0.26086,0.506054 a 1.2898157,1.2164594 0 0 1 -1.289812,1.216461 1.2898157,1.2164594 0 0 1 -1.289818,-1.216461 1.2898157,1.2164594 0 0 1 1.289818,-1.21646 1.2898157,1.2164594 0 0 1 1.289812,1.21646 z M 15.032322,23.043154 a 0.70581213,1.4467282 0 0 1 -0.705818,1.446729 0.70581213,1.4467282 0 0 1 -0.70581,-1.446729 0.70581213,1.4467282 0 0 1 0.70581,-1.446727 0.70581213,1.4467282 0 0 1 0.705818,1.446727 z m 2.113344,-2.757718 h 0.154807 c 0.105979,0 0.191301,0.180437 0.191301,0.404566 v 2.462685 c 0,0.224132 -0.08532,0.404566 -0.191301,0.404566 h -0.154807 c -0.10598,0 -0.191297,-0.180434 -0.191297,-0.404566 v -2.462685 c 0,-0.224129 0.08532,-0.404566 0.191297,-0.404566 z m 1.668752,2.572262 a 1.4936349,2.5905373 0 0 1 -1.493639,2.590539 1.4936349,2.5905373 0 0 1 -1.493632,-2.590539 1.4936349,2.5905373 0 0 1 1.493632,-2.590536 1.4936349,2.5905373 0 0 1 1.493639,2.590536 z m -3.854467,7.414911 a 0.8153251,1.4029095 0 0 0 -0.775887,0.973606 h -0.755103 c -0.135511,0 -0.244603,0.206022 -0.244603,0.461935 0,0.255911 0.109092,0.461935 0.244603,0.461935 h 0.768371 a 0.8153251,1.4029095 0 0 0 0.451296,0.801272 v 1.289054 c 0,0.255909 0.109089,0.461936 0.244595,0.461936 0.135511,0 0.244581,-0.206027 0.244581,-0.461936 v -1.215976 a 0.8153251,1.4029095 0 0 0 0.584766,-0.87435 h 0.702591 c 0.135511,0 0.244601,-0.206024 0.244601,-0.461935 0,-0.255913 -0.10909,-0.461935 -0.244601,-0.461935 h -0.689063 a 0.8153251,1.4029095 0 0 0 -0.776147,-0.973606 z m 2.785405,2.035934 a 2.930349,5.1405972 0 0 1 -2.93035,5.140593 2.930349,5.1405972 0 0 1 -2.930351,-5.140593 2.930349,5.1405972 0 0 1 2.930351,-5.1406 2.930349,5.1405972 0 0 1 2.93035,5.1406 z m -0.393782,0.01712 a 2.4731529,4.4824666 0 0 1 -2.473156,4.482459 2.4731529,4.4824666 0 0 1 -2.47315,-4.482466 2.4731529,4.4824666 0 0 1 2.47315,-4.482466 2.4731529,4.4824666 0 0 1 2.473156,4.482468 z m -7.9860013,-6.89532 h 0.1766468 c 0.4586915,0 0.8279685,0.524316 0.8279685,1.175592 v 14.561783 c 0,0.651278 -0.369277,1.17559 -0.8279685,1.17559 H 9.3655727 c -0.4586917,0 -0.8279623,-0.524312 -0.8279623,-1.17559 V 26.605934 c 0,-0.651276 0.3692706,-1.175591 0.8279623,-1.175591 z m 82.1389883,0 h 0.176645 c 0.458686,0 0.827971,0.524316 0.827971,1.175592 v 14.561783 c 0,0.651278 -0.369285,1.17559 -0.827971,1.17559 h -0.176645 c -0.458693,0 -0.827957,-0.524312 -0.827957,-1.17559 V 26.605934 c 0,-0.651276 0.369264,-1.175591 0.827957,-1.175591 z M 65.783905,7.9300864 h 25.737826 c 0.458963,0 0.828436,0.5246154 0.828436,1.1762625 v 8.8051301 c 0,0.651647 -0.369473,1.176258 -0.828436,1.176258 H 65.783905 c -0.458949,0 -0.828433,-0.524611 -0.828433,-1.176258 V 9.1063489 c 0,-0.6516471 0.369484,-1.1762625 0.828433,-1.1762625 z m -27.578029,-0.00396 h 24.544659 c 0.459279,0 0.829018,0.5249814 0.829018,1.1770916 v 8.811314 c 0,0.652109 -0.369739,1.177088 -0.829018,1.177088 H 38.205876 c -0.459278,0 -0.829021,-0.524979 -0.829021,-1.177088 V 9.1032558 c 0,-0.6521075 0.369743,-1.1770865 0.829021,-1.1770865 z m 26.055421,0.07057 c 0.408811,0 0.737927,0.5276884 0.737927,1.1831551 V 17.90137 c 0,0.655468 -0.329116,1.183154 -0.737927,1.183154 -0.408813,0 -0.737928,-0.527686 -0.737928,-1.183154 V 9.1799189 c 0,-0.6554702 0.329115,-1.1831589 0.737928,-1.1831589 z m -27.693667,0 c 0.408812,0 0.737928,0.5276884 0.737928,1.1831551 V 17.90137 c 0,0.655468 -0.329116,1.183154 -0.737928,1.183154 -0.408815,0 -0.737929,-0.527686 -0.737929,-1.183154 V 9.1799189 c 0,-0.6554702 0.329114,-1.1831589 0.737929,-1.1831589 z M 64.466121,19.084588 h 27.204533 c 0.4587,0 0.827957,0.524315 0.827957,1.175593 v 24.788087 c 0,0.651278 -0.369257,1.175593 -0.827957,1.175593 H 64.466121 c -0.458693,0 -0.827966,-0.524315 -0.827966,-1.175593 V 20.260156 c 0,-0.651279 0.369273,-1.175593 0.827966,-1.175593 z m -27.693663,0 h 27.204537 c 0.458685,0 0.827958,0.524315 0.827958,1.175593 v 24.788087 c 0,0.651278 -0.369273,1.175593 -0.827958,1.175593 H 36.772458 c -0.458693,0 -0.827963,-0.524315 -0.827963,-1.175593 V 20.260156 c 0,-0.651279 0.36927,-1.175593 0.827963,-1.175593 z m -27.4581828,0 H 36.518802 c 0.458692,0 0.827969,0.524315 0.827969,1.175593 v 24.788087 c 0,0.651278 -0.369277,1.175593 -0.827969,1.175593 H 9.3142752 c -0.4586917,0 -0.8279674,-0.524315 -0.8279674,-1.175593 V 20.260156 c 0,-0.651279 0.3692757,-1.175593 0.8279674,-1.175593 z M 49.245799,20.62595 c 0.458693,0 0.827962,0.524314 0.827962,1.175589 v 10.681073 c 0,0.651278 -0.369269,1.17559 -0.827962,1.17559 -0.458691,0 -0.827962,-0.524312 -0.827962,-1.17559 V 21.801513 c 0,-0.651278 0.369271,-1.175589 0.827962,-1.175589 z M 62.422255,32.180282 A 11.68612,11.554357 0 0 1 50.736134,43.734643 11.68612,11.554357 0 0 1 39.050013,32.180286 11.68612,11.554357 0 0 1 50.736134,20.625928 11.68612,11.554357 0 0 1 62.422255,32.180286 Z m -3.02798,-1.007649 A 9.3205092,10.546711 0 0 1 50.073761,41.719346 9.3205092,10.546711 0 0 1 40.753254,31.172637 9.3205092,10.546711 0 0 1 50.073761,20.625925 9.3205092,10.546711 0 0 1 59.394275,31.172637 Z M 9.2178846,7.9300864 H 34.955711 c 0.458957,0 0.828441,0.5246154 0.828441,1.1762625 v 8.8051301 c 0,0.651647 -0.369484,1.176258 -0.828441,1.176258 H 9.2178846 c -0.4589501,0 -0.8284345,-0.524611 -0.8284345,-1.176258 V 9.1063489 c 0,-0.6516471 0.3694844,-1.1762625 0.8284345,-1.1762625 z M 85.962735,39.772723 a 2.0722215,2.4182664 0 0 1 -2.072221,2.418268 2.0722215,2.4182664 0 0 1 -2.072221,-2.418268 2.0722215,2.4182664 0 0 1 2.072221,-2.418266 2.0722215,2.4182664 0 0 1 2.072221,2.418266 z m 0.763449,-0.196072 a 2.8629371,3.5947204 0 0 1 -2.862938,3.594719 2.8629371,3.5947204 0 0 1 -2.862933,-3.594719 2.8629371,3.5947204 0 0 1 2.862933,-3.594722 2.8629371,3.5947204 0 0 1 2.862938,3.594722 z m -1.902073,-12.004362 0.128423,0.375075 c 0.08793,0.25677 -0.0033,0.575361 -0.204676,0.714334 l -2.212025,1.526972 c -0.201315,0.138971 -0.434169,0.04413 -0.522093,-0.212637 l -0.128429,-0.375075 c -0.08791,-0.256764 0.0033,-0.575361 0.204689,-0.714328 l 2.21201,-1.526975 c 0.201329,-0.13897 0.434184,-0.04413 0.522101,0.212634 z m -0.926034,5.638015 a 3.9672855,2.6241835 85.144154 0 1 -3.566002,-2.012578 3.9672855,2.6241835 85.144154 0 1 1.087728,-5.22507 3.9672855,2.6241835 85.144154 0 1 3.565996,2.012576 3.9672855,2.6241835 85.144154 0 1 -1.087722,5.225072 z" />
    <path
       style="display:inline;fill:#373e48;fill-opacity:1;fill-rule:evenodd;stroke:#000000;stroke-width:0.916023;stroke-linecap:round;stroke-linejoin:round;paint-order:stroke markers fill"
       d=""
       id="path4334"
       transform="scale(0.26458333)" />
  </g>
  <g
     inkscape:groupmode="layer"
     id="layer2"
     inkscape:label="Layer 2">
    <path
       style="display:inline;fill:#000000;stroke-width:0.264583"
       d="m 118.85523,42.405551 c -0.29702,-0.35782 -0.36185,-2.778328 -0.35609,-13.295311 0.004,-7.071817 0.0207,-13.095973 0.0374,-13.387015 0.0167,-0.291042 -0.0213,-2.835896 -0.0845,-5.655233 -0.10198,-4.5520656 -0.0645,-5.1816436 0.33433,-5.6223956 0.42781,-0.472722 1.07569,-0.496329 13.62172,-0.496329 8.51998,0 13.23046,0.0937 13.33651,0.265299 0.10305,0.16674 0.33255,0.175075 0.61776,0.02243 0.27629,-0.147867 0.62533,-0.146866 0.89234,0.0026 0.27818,0.155677 0.49909,0.147473 0.6041,-0.02243 0.23349,-0.377802 25.44094,-0.368404 25.67454,0.0096 0.11294,0.182739 0.27821,0.188839 0.48421,0.01787 0.19482,-0.161681 5.55879,-0.269445 14.22462,-0.285778 11.82032,-0.02228 13.9595,0.03117 14.22867,0.35549 0.22106,0.266363 0.32709,2.047837 0.35089,5.8953256 0.0188,3.032489 0.0747,11.395367 0.12437,18.584174 0.0824,11.927923 0.0515,13.113336 -0.35258,13.559894 -0.42724,0.472098 -1.90388,0.489338 -41.90902,0.489338 -38.24596,0 -41.49438,-0.03397 -41.8293,-0.437465 z m 27.00334,-6.375556 c -0.0124,-4.367958 -0.0982,-6.118576 -0.28127,-5.741768 -0.66528,1.369383 -2.5685,1.465255 -3.25284,0.16386 l -0.37122,-0.705946 -0.19259,0.79375 c -0.37794,1.557624 -1.18302,2.790108 -2.11187,3.23305 -0.84436,0.402643 -0.98592,0.403516 -1.80871,0.01116 -1.42567,-0.679865 -2.15142,-2.449549 -2.14425,-5.22859 0.006,-2.449012 0.58674,-4.048996 1.76932,-4.877307 1.89414,-1.326709 4.44259,1.069276 4.44259,4.176811 v 0.792738 l 0.61236,-0.575288 c 1.07309,-1.008115 2.66085,-0.633493 3.16868,0.74763 0.0803,0.218281 0.15533,-2.682871 0.16682,-6.447005 l 0.0209,-6.843879 -0.59532,0.159538 c -0.32742,0.08774 -6.34007,0.161163 -13.36145,0.16315 l -12.76615,0.0036 v 2.778125 c 0,2.574714 0.0376,2.778125 0.51416,2.778125 0.28279,0 0.69951,0.264617 0.92605,0.588038 0.34967,0.499224 0.41187,1.740648 0.41187,8.219477 0,4.754568 -0.10325,7.824364 -0.27389,8.143211 -0.15706,0.293473 -0.55207,0.511773 -0.92604,0.511773 -0.61861,0 -0.65215,0.07937 -0.65215,1.543402 0,0.848873 0.0794,1.622779 0.17639,1.719792 0.097,0.09701 6.10967,0.176389 13.36146,0.176389 h 13.18507 l -0.0179,-6.283854 z m -4.72016,3.796319 c -1.9318,-2.056308 0.22805,-5.765168 2.49308,-4.281067 0.81969,0.53708 1.22343,1.982986 0.89046,3.188928 -0.46916,1.699135 -2.26786,2.279724 -3.38354,1.092139 z m 2.11192,-3.116527 c 0.77481,0.482089 0.93416,0.207909 0.26694,-0.459306 -0.69121,-0.691216 -1.19899,-0.697191 -1.87413,-0.02205 -0.78239,0.782391 -0.64226,1.098433 0.25851,0.583007 0.66845,-0.382495 0.87259,-0.397881 1.34868,-0.101653 z m -19.55954,-3.267004 c -1.09324,-0.919895 -1.76067,-2.784223 -1.74964,-4.887267 0.0162,-3.083816 1.30145,-5.291666 3.08053,-5.291666 1.6331,0 2.54743,1.147723 3.14902,3.952864 0.28127,1.311479 0.31559,1.353309 0.68161,0.830743 0.26201,-0.374073 0.67384,-0.550274 1.28615,-0.550274 1.80963,0 2.62214,2.027431 1.33025,3.319317 -0.84679,0.846791 -1.60072,0.821237 -2.50692,-0.08496 l -0.73439,-0.734397 -0.31186,1.166004 c -0.37924,1.417912 -1.81311,2.948622 -2.7621,2.948622 -0.36719,0 -1.02538,-0.301043 -1.46265,-0.668983 z m 2.77365,-1.652283 c 0.57733,-0.858827 1.08227,-2.867528 0.79344,-3.156361 -0.36781,-0.367806 -1.45924,0.744186 -1.53874,1.567721 -0.055,0.569621 -0.24065,0.892675 -0.54631,0.950576 -0.36509,0.06916 -0.46388,-0.09826 -0.46707,-0.791582 -0.005,-1.071582 -0.21288,-1.409398 -0.98814,-1.605338 -0.5313,-0.134282 -0.59531,-0.05242 -0.59531,0.761353 0,0.991114 0.83924,2.873219 1.38199,3.09929 0.71303,0.296994 1.39998,0.0076 1.96014,-0.825659 z m 4.43096,-3.551536 c -0.17361,-0.280911 -0.9321,-0.264093 -1.39823,0.031 -0.25447,0.161105 -0.0716,0.226999 0.57881,0.208562 0.52295,-0.01482 0.89169,-0.122628 0.81942,-0.239565 z m -6.42644,-1.431831 c 0.40075,-0.482876 1.15067,-0.469164 1.56377,0.02859 0.18115,0.218281 0.5063,0.396875 0.72253,0.396875 0.54166,0 0.21507,-1.259094 -0.53499,-2.062554 -1.0328,-1.106329 -2.52851,-0.312181 -2.97777,1.58105 -0.14709,0.619833 -0.0997,0.691192 0.37627,0.566721 0.29949,-0.07832 0.68208,-0.308129 0.85019,-0.510684 z m 1.9006,-5.582168 c -0.29383,-0.448433 -0.46913,-1.218997 -0.46913,-2.062157 0,-1.745984 0.63895,-2.778125 1.7198,-2.778125 1.08434,0 1.70089,1.007024 1.70089,2.778125 0,1.771101 -0.61655,2.778125 -1.70089,2.778125 -0.55756,0 -0.916,-0.205196 -1.25067,-0.715968 z m 2.03511,-0.324971 c 0.34415,-0.64306 0.35005,-2.665133 0.009,-3.192394 -0.18537,-0.286841 -0.25761,-0.04613 -0.26054,0.8682 -0.003,0.913242 -0.12185,1.310279 -0.42763,1.427616 -0.54662,0.209761 -0.88324,-0.338417 -0.92237,-1.502066 l -0.0311,-0.926042 -0.21031,0.890319 c -0.19364,0.819776 -0.0197,2.007753 0.39144,2.672938 0.27961,0.45241 1.15878,0.307881 1.45123,-0.238571 z m 11.64433,0.313335 c -0.47618,-0.603374 -0.55575,-0.985666 -0.46606,-2.239043 0.12049,-1.683737 0.70996,-2.589603 1.68513,-2.589603 0.97752,0 1.69799,1.178772 1.69799,2.778125 0,2.463666 -1.66651,3.635124 -2.91706,2.050521 z m 2.06147,-0.597656 c 0.39258,-0.742832 0.28354,-2.792206 -0.17284,-3.248583 -0.21626,-0.216265 -0.29449,0.111266 -0.29449,1.233035 0,1.311862 -0.0654,1.515123 -0.46302,1.439683 -0.34245,-0.06497 -0.50055,-0.431724 -0.60715,-1.408463 l -0.14413,-1.32062 -0.21572,0.990448 c -0.50985,2.340903 0.9453,4.115982 1.89735,2.3145 z m -18.1851,0.01974 c -0.69286,-1.294618 0.0232,-3.343823 0.96738,-2.768573 0.57417,0.349806 0.80003,2.336675 0.33,2.903025 -0.4366,0.526068 -0.97367,0.47041 -1.29738,-0.134452 z m 13.76424,0.133239 c -0.36216,-0.436386 -0.44178,-1.604732 -0.1681,-2.467009 0.23276,-0.733367 1.09223,-0.781582 1.46649,-0.08227 0.82765,1.546473 -0.29739,3.7554 -1.29839,2.549277 z m 35.96811,8.249887 V 15.723225 h -12.89843 -12.89844 v 13.295281 13.295282 l 12.89844,3e-5 12.89843,3.1e-5 z m -14.28749,11.165579 c -4.31273,-0.555194 -7.99215,-3.47803 -9.64264,-7.659852 -0.70713,-1.791655 -0.84373,-5.10884 -0.28896,-7.017189 0.63621,-2.188492 1.32437,-3.438546 2.70613,-4.915764 3.13153,-3.347856 7.23573,-4.58663 11.70548,-3.533078 3.42138,0.806444 6.46324,3.330807 8.01852,6.65437 2.10215,4.492188 0.80485,10.408006 -2.99694,13.666392 -1.45843,1.249974 -4.00091,2.481609 -5.54655,2.686881 -2.23448,0.296754 -2.50542,0.304856 -3.95504,0.11824 z m 5.08187,-1.04057 c 7.75319,-2.394717 10.41725,-12.190927 4.93324,-18.140374 -0.89555,-0.971559 -3.29726,-2.766407 -3.70176,-2.766407 -0.0674,0 0.42247,0.580588 1.08869,1.290197 4.1761,4.448104 4.15149,11.648449 -0.0546,15.969404 -1.83122,1.881238 -3.77283,2.699969 -6.42141,2.707767 -1.7922,0.0053 -2.34945,-0.107892 -3.63523,-0.738243 -4.09329,-2.006743 -6.58839,-7.0231 -5.81492,-11.690824 0.15694,-0.947162 0.59228,-2.405678 0.9674,-3.241145 0.56975,-1.268922 0.59446,-1.410122 0.15009,-0.857573 -1.80192,2.240575 -2.66249,5.612643 -2.16812,8.495584 1.18002,6.881353 7.96919,11.037148 14.65661,8.971614 z m -0.91449,-2.132658 c 2.76309,-1.199636 5.08452,-4.460372 5.6426,-7.925737 0.86313,-5.359552 -2.76308,-10.896321 -7.69332,-11.746718 l -0.92604,-0.159729 0.08,5.766899 c 0.0877,6.319387 -0.0492,7.197411 -1.12253,7.197411 -0.38044,0 -0.77439,-0.216186 -0.93259,-0.511772 -0.16451,-0.307396 -0.27389,-2.790437 -0.27389,-6.217709 0,-4.219471 -0.0816,-5.705935 -0.31334,-5.705935 -0.77208,0 -2.65064,1.193013 -3.78038,2.400802 -0.67923,0.726145 -1.55405,2.001071 -1.94405,2.833168 -0.64027,1.366042 -0.7091,1.808271 -0.7091,4.555613 0,2.741818 0.0696,3.191195 0.7039,4.544258 0.77164,1.646053 2.45456,3.623747 3.78148,4.443828 2.14979,1.328645 5.15216,1.539417 7.48721,0.525621 z m 38.68581,4.791186 c 0.15064,-0.281474 0.27389,-1.05538 0.27389,-1.719791 0,-1.084152 -0.0624,-1.208019 -0.60854,-1.208019 -1.21933,0 -1.24355,-0.168121 -1.24355,-8.632976 0,-6.918109 0.0561,-8.054113 0.41578,-8.41375 0.22867,-0.228675 0.64539,-0.415773 0.92604,-0.415773 0.46748,0 0.50993,-0.205204 0.50622,-2.447396 -0.002,-1.346068 -0.0987,-2.596522 -0.21446,-2.778787 -0.16312,-0.256904 -3.22491,-0.346109 -13.62205,-0.396875 l -13.41163,-0.06548 5e-5,13.295312 5e-5,13.295312 h 13.35215 c 12.93009,0 13.36081,-0.01617 13.62605,-0.511773 z m -9.66916,-2.368396 c -1.04118,-0.634907 -1.69862,-2.024049 -1.69862,-3.589102 0,-2.271765 1.34967,-3.849478 3.29308,-3.849478 1.81887,0 3.12252,1.567624 3.14341,3.77993 0.0158,1.671693 -0.59049,2.930302 -1.75298,3.639113 -1.06419,0.648877 -1.94341,0.654632 -2.98489,0.01953 z m 2.78009,-2.050304 c 1.50132,-1.908617 -0.65083,-4.399042 -2.42819,-2.809848 -0.58162,0.520046 -0.60968,2.121527 -0.0511,2.918949 0.58395,0.833707 1.77909,0.781116 2.47933,-0.109101 z m -3.62963,-7.654719 c -1.48754,-1.041911 -2.18417,-4.650493 -1.24746,-6.461885 1.39315,-2.694065 4.41264,-1.729957 5.16915,1.650483 0.75201,3.360331 -1.69943,6.367933 -3.92169,4.811402 z m 2.23059,-0.501145 c 0.74708,-0.523282 1.20736,-1.725035 1.10552,-2.886457 l -0.0842,-0.959618 -1.16105,0.770951 c -1.25118,0.830794 -1.74847,0.824336 -1.97073,-0.02559 -0.14757,-0.564313 0.3354,-1.170605 1.80887,-2.270729 l 0.79375,-0.592632 -0.62463,-0.528959 c -2.18707,-1.852106 -4.1976,2.03015 -2.67752,5.1702 0.7421,1.532993 1.79932,2.030699 2.80994,1.322837 z m -46.73592,-0.275121 c 0,-11.928612 -0.10604,-14.051988 -0.63315,-12.67836 -0.20976,0.546634 -0.20976,24.810088 0,25.35672 0.52711,1.373629 0.63315,-0.749747 0.63315,-12.67836 z m 27.51667,0 c 0,-8.378472 -0.0918,-12.832291 -0.26459,-12.832291 -0.17275,0 -0.26458,4.453819 -0.26458,12.832291 0,8.378473 0.0918,12.832292 0.26458,12.832292 0.17276,0 0.26459,-4.453819 0.26459,-12.832292 z m -54.51348,8.880936 c 0.1695,-0.316707 0.2739,-3.247938 0.2739,-7.690311 0,-7.345324 -0.14762,-8.583532 -0.9445,-7.922186 -0.31237,0.259245 -0.37842,1.663076 -0.37842,8.042778 0,4.250793 0.0794,7.80809 0.17639,7.905102 0.30413,0.30413 0.58896,0.194659 0.87263,-0.335383 z m 82.13413,0.09326 c 0.0883,-0.230182 0.1606,-3.690821 0.1606,-7.69031 0,-7.43906 -0.14601,-8.67813 -0.9445,-8.015444 -0.31237,0.259245 -0.37842,1.663076 -0.37842,8.042778 0,4.250793 0.0794,7.80809 0.17639,7.905102 0.31276,0.312758 0.82089,0.18797 0.98593,-0.242126 z M 139.38382,32.62393 c 0.62002,-0.237927 1.46557,-2.040022 1.46557,-3.123525 0,-0.773871 -0.077,-0.899379 -0.46302,-0.754541 -0.69139,0.25943 -1.10663,0.909506 -1.11606,1.747284 -0.006,0.566184 -0.1205,0.725765 -0.47144,0.659259 -0.32494,-0.06158 -0.48774,-0.386818 -0.54591,-1.090648 -0.0632,-0.765358 -0.22902,-1.05846 -0.69985,-1.237472 -0.33934,-0.129014 -0.67959,-0.391093 -0.75612,-0.582398 -0.31961,-0.798906 -0.12732,1.589445 0.2024,2.513958 0.6078,1.704203 1.3323,2.271819 2.38443,1.868083 z m 4.94828,-4.187014 c 0.37018,0.117489 0.49261,0.0787 0.37127,-0.117634 -0.27304,-0.441792 -1.35967,-0.351439 -1.77106,0.147263 -0.32983,0.399826 -0.30762,0.410613 0.24218,0.117634 0.33292,-0.177407 0.85385,-0.243675 1.15761,-0.147263 z m -6.0176,-1.80662 c 0.34854,-0.348545 0.57446,-0.391029 0.96577,-0.18161 0.28093,0.150353 0.51079,0.374355 0.51079,0.497784 0,0.123428 0.24894,0.289516 0.55321,0.369083 0.48584,0.127049 0.53272,0.05831 0.38494,-0.564454 -0.65158,-2.74576 -3.05164,-2.753825 -3.79326,-0.01275 -0.25418,0.939493 -0.24677,0.9541 0.33179,0.653939 0.32548,-0.16886 0.79652,-0.511759 1.04676,-0.761996 z m 7.23684,-16.7940466 -0.0717,-5.225521 -12.96458,-0.0693 c -11.95322,-0.06389 -12.99039,-0.03414 -13.29531,0.381299 -0.3464,0.47194 -0.49352,8.8777926 -0.17013,9.7205236 0.14347,0.373896 1.56857,0.418515 13.36705,0.418515 h 13.20645 z m 1.64805,-0.103809 c 0,-3.909093 -0.0739,-5.008944 -0.33073,-4.923515 -0.24445,0.08131 -0.34964,1.344402 -0.40321,4.8418 -0.0737,4.8128386 -0.006,5.5728106 0.46749,5.2799076 0.16377,-0.101217 0.26645,-2.104384 0.26645,-5.1981926 z m 26.1332,0.103809 -0.0717,-5.225521 h -12.56775 -12.56771 l -0.0723,4.886279 c -0.0398,2.6874536 -0.0138,5.0389376 0.0578,5.2255206 0.10336,0.269352 2.72219,0.339242 12.71178,0.339242 h 12.58161 z m 1.52002,4.6302076 c 0.0807,-0.327422 0.11269,-2.609572 0.0712,-5.0714446 -0.0555,-3.290612 -0.16305,-4.505261 -0.40618,-4.586111 -0.25707,-0.08548 -0.33073,1.04404 -0.33073,5.071445 0,3.2108036 0.0987,5.1814236 0.25954,5.1814236 0.14275,0 0.32553,-0.267891 0.40618,-0.595313 z m 27.32006,-4.397321 c 0.0499,-3.3607016 -0.0213,-4.9730156 -0.23083,-5.2255206 -0.24997,-0.301195 -2.5188,-0.365178 -12.94904,-0.365178 -6.95528,0 -12.83429,0.07227 -13.06448,0.160599 -0.36101,0.138534 -0.41851,0.841334 -0.41851,5.115277 0,2.7250736 0.0805,5.0351526 0.17883,5.1335106 0.0984,0.09836 6.08125,0.147967 13.29531,0.110243 l 13.11648,-0.06859 z"
       id="path2329" />
  </g>
  <g
     inkscape:groupmode="layer"
     id="layer3"
     inkscape:label="Layer 3">
    <g
       id="g2723"
       transform="translate(-7.6801128,170.14403)">
      <path
         id="path866"
         style="display:inline;fill:none;fill-rule:evenodd;stroke:#000000;stroke-width:0.645825;stroke-linecap:round;stroke-linejoin:round;stroke-miterlimit:4;stroke-dasharray:none;stroke-opacity:0.955017;paint-order:stroke markers fill"
         d="m 39.341113,108.62102 a 1.5941543,1.7189101 0 0 1 -1.594162,1.71891 1.5941543,1.7189101 0 0 1 -1.594168,-1.71891 1.5941543,1.7189101 0 0 1 1.594168,-1.71891 1.5941543,1.7189101 0 0 1 1.594162,1.71891 z m -0.260866,0.50605 a 1.2898157,1.2164594 0 0 1 -1.289823,1.21646 1.2898157,1.2164594 0 0 1 -1.289819,-1.21646 1.2898157,1.2164594 0 0 1 1.289819,-1.21646 1.2898157,1.2164594 0 0 1 1.289823,1.21646 z M 32.827222,98.576794 a 0.70581213,1.4467282 0 0 1 -0.70581,1.446726 0.70581213,1.4467282 0 0 1 -0.705811,-1.446726 0.70581213,1.4467282 0 0 1 0.705811,-1.446727 0.70581213,1.4467282 0 0 1 0.70581,1.446727 z m 2.113348,-2.757718 h 0.154816 c 0.105978,0 0.191295,0.180437 0.191295,0.404566 v 2.462685 c 0,0.224132 -0.08532,0.404566 -0.191295,0.404566 H 34.94057 c -0.105977,0 -0.191293,-0.180434 -0.191293,-0.404566 v -2.462685 c 0,-0.224129 0.08532,-0.404566 0.191293,-0.404566 z m 1.668761,2.572262 a 1.4936349,2.5905373 0 0 1 -1.49364,2.590542 1.4936349,2.5905373 0 0 1 -1.493643,-2.590542 1.4936349,2.5905373 0 0 1 1.493643,-2.590536 1.4936349,2.5905373 0 0 1 1.49364,2.590536 z m -3.854479,7.414912 a 0.8153251,1.4029095 0 0 0 -0.775882,0.97361 h -0.755109 c -0.135504,0 -0.244597,0.20602 -0.244597,0.46193 0,0.25591 0.109093,0.46194 0.244597,0.46194 h 0.768373 a 0.8153251,1.4029095 0 0 0 0.451294,0.80127 v 1.28905 c 0,0.25591 0.109097,0.46194 0.244603,0.46194 0.135504,0 0.244572,-0.20603 0.244572,-0.46194 v -1.21597 a 0.8153251,1.4029095 0 0 0 0.584773,-0.87435 h 0.702591 c 0.135506,0 0.244602,-0.20603 0.244602,-0.46194 0,-0.25591 -0.109096,-0.46193 -0.244602,-0.46193 h -0.689062 a 0.8153251,1.4029095 0 0 0 -0.776153,-0.97361 z m 2.78541,2.03593 a 2.930349,5.1405972 0 0 1 -2.930349,5.1406 2.930349,5.1405972 0 0 1 -2.930351,-5.1406 2.930349,5.1405972 0 0 1 2.930351,-5.1406 2.930349,5.1405972 0 0 1 2.930349,5.1406 z m -0.393783,0.0171 a 2.4731529,4.4824666 0 0 1 -2.473156,4.48247 2.4731529,4.4824666 0 0 1 -2.473149,-4.48247 2.4731529,4.4824666 0 0 1 2.473149,-4.48246 2.4731529,4.4824666 0 0 1 2.473156,4.48246 z m 3.119046,9.19193 a 1.8657401,2.3995257 0 0 1 -1.865741,2.39953 1.8657401,2.3995257 0 0 1 -1.86574,-2.39953 1.8657401,2.3995257 0 0 1 1.86574,-2.39952 1.8657401,2.3995257 0 0 1 1.865741,2.39952 z m -0.3053,0.70644 a 1.5095532,1.6981259 0 0 1 -1.509553,1.69812 1.5095532,1.6981259 0 0 1 -1.509561,-1.69812 1.5095532,1.6981259 0 0 1 1.509561,-1.69813 1.5095532,1.6981259 0 0 1 1.509553,1.69813 z M 25.670882,108.621 a 1.5941543,1.7189101 0 0 1 -1.594151,1.71891 1.5941543,1.7189101 0 0 1 -1.594154,-1.71891 1.5941543,1.7189101 0 0 1 1.594154,-1.71891 1.5941543,1.7189101 0 0 1 1.594151,1.71891 z m -0.26086,0.50605 a 1.2898157,1.2164594 0 0 1 -1.289812,1.21646 1.2898157,1.2164594 0 0 1 -1.289818,-1.21646 1.2898157,1.2164594 0 0 1 1.289818,-1.21646 1.2898157,1.2164594 0 0 1 1.289812,1.21646 z M 19.157026,98.576794 a 0.70581213,1.4467282 0 0 1 -0.705818,1.446726 0.70581213,1.4467282 0 0 1 -0.70581,-1.446726 0.70581213,1.4467282 0 0 1 0.70581,-1.446727 0.70581213,1.4467282 0 0 1 0.705818,1.446727 z m 2.113344,-2.757718 h 0.154807 c 0.105979,0 0.191301,0.180437 0.191301,0.404566 v 2.462685 c 0,0.224132 -0.08532,0.404566 -0.191301,0.404566 H 21.27037 c -0.10598,0 -0.191297,-0.180434 -0.191297,-0.404566 v -2.462685 c 0,-0.224129 0.08532,-0.404566 0.191297,-0.404566 z m 1.668752,2.572262 a 1.4936349,2.5905373 0 0 1 -1.493639,2.590542 1.4936349,2.5905373 0 0 1 -1.493632,-2.590542 1.4936349,2.5905373 0 0 1 1.493632,-2.590536 1.4936349,2.5905373 0 0 1 1.493639,2.590536 z m -3.854467,7.414912 a 0.8153251,1.4029095 0 0 0 -0.775887,0.97361 h -0.755103 c -0.135511,0 -0.244603,0.20602 -0.244603,0.46193 0,0.25591 0.109092,0.46194 0.244603,0.46194 h 0.768371 a 0.8153251,1.4029095 0 0 0 0.451296,0.80127 v 1.28905 c 0,0.25591 0.109089,0.46194 0.244595,0.46194 0.135511,0 0.244581,-0.20603 0.244581,-0.46194 v -1.21597 a 0.8153251,1.4029095 0 0 0 0.584766,-0.87435 h 0.702591 c 0.135511,0 0.244601,-0.20603 0.244601,-0.46194 0,-0.25591 -0.10909,-0.46193 -0.244601,-0.46193 h -0.689063 a 0.8153251,1.4029095 0 0 0 -0.776147,-0.97361 z m 2.785405,2.03593 a 2.930349,5.1405972 0 0 1 -2.93035,5.1406 2.930349,5.1405972 0 0 1 -2.930351,-5.1406 2.930349,5.1405972 0 0 1 2.930351,-5.1406 2.930349,5.1405972 0 0 1 2.93035,5.1406 z m -0.393782,0.0171 a 2.4731529,4.4824666 0 0 1 -2.473156,4.48246 2.4731529,4.4824666 0 0 1 -2.47315,-4.48246 2.4731529,4.4824666 0 0 1 2.47315,-4.48247 2.4731529,4.4824666 0 0 1 2.473156,4.48247 z m -7.986001,-6.89532 h 0.176646 c 0.458692,0 0.827969,0.52432 0.827969,1.1756 v 14.56178 c 0,0.65128 -0.369277,1.17559 -0.827969,1.17559 h -0.176646 c -0.458692,0 -0.827963,-0.52431 -0.827963,-1.17559 v -14.56179 c 0,-0.65127 0.369271,-1.17559 0.827963,-1.17559 z m 82.138988,0 h 0.176645 c 0.458686,0 0.827971,0.52432 0.827971,1.1756 v 14.56178 c 0,0.65128 -0.369285,1.17559 -0.827971,1.17559 h -0.176645 c -0.458693,0 -0.827957,-0.52431 -0.827957,-1.17559 v -14.56179 c 0,-0.65127 0.369264,-1.17559 0.827957,-1.17559 z M 69.908609,83.463726 h 25.737826 c 0.458963,0 0.828436,0.524616 0.828436,1.176263 v 8.80513 c 0,0.651647 -0.369473,1.176258 -0.828436,1.176258 H 69.908609 c -0.458949,0 -0.828433,-0.524611 -0.828433,-1.176258 v -8.80513 c 0,-0.651647 0.369484,-1.176263 0.828433,-1.176263 z m -27.578029,-0.004 h 24.544659 c 0.459279,0 0.829018,0.524982 0.829018,1.177092 v 8.811314 c 0,0.652109 -0.369739,1.177088 -0.829018,1.177088 H 42.33058 c -0.459278,0 -0.829021,-0.524979 -0.829021,-1.177088 v -8.811276 c 0,-0.652108 0.369743,-1.177087 0.829021,-1.177087 z m 26.055421,0.07057 c 0.408811,0 0.737927,0.527689 0.737927,1.183156 v 8.721518 c 0,0.655468 -0.329116,1.183154 -0.737927,1.183154 -0.408813,0 -0.737928,-0.527686 -0.737928,-1.183154 v -8.721451 c 0,-0.65547 0.329115,-1.183159 0.737928,-1.183159 z m -27.693667,0 c 0.408812,0 0.737928,0.527689 0.737928,1.183156 v 8.721518 c 0,0.655468 -0.329116,1.183154 -0.737928,1.183154 -0.408815,0 -0.737929,-0.527686 -0.737929,-1.183154 v -8.721451 c 0,-0.65547 0.329114,-1.183159 0.737929,-1.183159 z m 27.898491,11.087892 h 27.204533 c 0.4587,0 0.827957,0.524315 0.827957,1.175593 v 24.788089 c 0,0.65128 -0.369257,1.17559 -0.827957,1.17559 H 68.590825 c -0.458693,0 -0.827966,-0.52431 -0.827966,-1.17559 V 95.793796 c 0,-0.651279 0.369273,-1.175593 0.827966,-1.175593 z m -27.693663,0 h 27.204537 c 0.458685,0 0.827958,0.524315 0.827958,1.175593 v 24.788089 c 0,0.65128 -0.369273,1.17559 -0.827958,1.17559 H 40.897162 c -0.458693,0 -0.827963,-0.52431 -0.827963,-1.17559 V 95.793796 c 0,-0.651279 0.36927,-1.175593 0.827963,-1.175593 z m -27.458183,0 h 27.204527 c 0.458692,0 0.827969,0.524315 0.827969,1.175593 v 24.788089 c 0,0.65128 -0.369277,1.17559 -0.827969,1.17559 H 13.438979 c -0.458692,0 -0.827967,-0.52431 -0.827967,-1.17559 V 95.793796 c 0,-0.651279 0.369275,-1.175593 0.827967,-1.175593 z m 39.931524,1.541362 c 0.458693,0 0.827962,0.524314 0.827962,1.175589 v 10.681071 c 0,0.65128 -0.369269,1.17559 -0.827962,1.17559 -0.458691,0 -0.827962,-0.52431 -0.827962,-1.17559 V 97.335153 c 0,-0.651278 0.369271,-1.175589 0.827962,-1.175589 z m 13.176456,11.55433 A 11.68612,11.554357 0 0 1 54.860838,119.26828 11.68612,11.554357 0 0 1 43.174717,107.71393 11.68612,11.554357 0 0 1 54.860838,96.159568 11.68612,11.554357 0 0 1 66.546959,107.71393 Z m -3.02798,-1.00765 a 9.3205092,10.546711 0 0 1 -9.320514,10.54672 9.3205092,10.546711 0 0 1 -9.320507,-10.54671 9.3205092,10.546711 0 0 1 9.320507,-10.546715 9.3205092,10.546711 0 0 1 9.320514,10.546715 z M 13.342588,83.463726 h 25.737827 c 0.458957,0 0.828441,0.524616 0.828441,1.176263 v 8.80513 c 0,0.651647 -0.369484,1.176258 -0.828441,1.176258 H 13.342588 c -0.45895,0 -0.828434,-0.524611 -0.828434,-1.176258 v -8.80513 c 0,-0.651647 0.369484,-1.176263 0.828434,-1.176263 z m 76.744851,31.842634 a 2.0722215,2.4182664 0 0 1 -2.072221,2.41827 2.0722215,2.4182664 0 0 1 -2.072221,-2.41827 2.0722215,2.4182664 0 0 1 2.072221,-2.41826 2.0722215,2.4182664 0 0 1 2.072221,2.41826 z m 0.763449,-0.19607 a 2.8629371,3.5947204 0 0 1 -2.862938,3.59472 2.8629371,3.5947204 0 0 1 -2.862933,-3.59472 2.8629371,3.5947204 0 0 1 2.862933,-3.59472 2.8629371,3.5947204 0 0 1 2.862938,3.59472 z m -1.902073,-12.00436 0.128423,0.37507 c 0.08793,0.25677 -0.0033,0.57537 -0.204676,0.71434 l -2.212025,1.52697 c -0.201315,0.13897 -0.434169,0.0441 -0.522093,-0.21264 l -0.128429,-0.37507 c -0.08791,-0.25677 0.0033,-0.57536 0.204689,-0.71433 l 2.21201,-1.52697 c 0.201329,-0.13897 0.434184,-0.0441 0.522101,0.21263 z m -0.926034,5.63801 a 3.9672855,2.6241835 85.144154 0 1 -3.566002,-2.01257 3.9672855,2.6241835 85.144154 0 1 1.087728,-5.22507 3.9672855,2.6241835 85.144154 0 1 3.565996,2.01257 3.9672855,2.6241835 85.144154 0 1 -1.087722,5.22507 z" />
      <path
         style="fill:#ffffff;fill-rule:evenodd;stroke:#000000;stroke-width:4.48902;stroke-linecap:round;stroke-linejoin:round;paint-order:stroke markers fill"
         d="m 158.97973,354.98436 c -0.35726,-0.35726 -0.64956,-8.63418 -0.64956,-18.39315 0,-13.79946 0.29549,-17.98883 1.32935,-18.84685 0.95824,-0.79527 14.21864,-1.03258 47.49905,-0.85006 l 46.1697,0.25321 0.26418,19.2432 0.26419,19.24321 h -47.11368 c -25.91252,0 -47.40597,-0.2923 -47.76323,-0.64956 z"
         id="path979"
         transform="scale(0.26458333)" />
      <path
         style="fill:#ffffff;fill-rule:evenodd;stroke:#000000;stroke-width:4.48902;stroke-linecap:round;stroke-linejoin:round;paint-order:stroke markers fill"
         d="m 263.24289,354.99319 c -1.23369,-1.23368 -0.75726,-35.89557 0.51081,-37.16364 1.8385,-1.8385 96.58573,-1.66895 98.11656,0.17557 0.7717,0.92986 1.03398,6.86728 0.85005,19.24321 l -0.26602,17.89842 -49.2765,0.25242 c -27.10208,0.13883 -49.57278,-0.0439 -49.9349,-0.40598 z"
         id="path1018"
         transform="scale(0.26458333)" />
      <path
         style="fill:#ffffff;fill-rule:evenodd;stroke:#000000;stroke-width:4.48902;stroke-linecap:round;stroke-linejoin:round;paint-order:stroke markers fill"
         d="m 262.09733,409.22282 v -49.69131 l 50.31782,-1.1e-4 c 44.98452,-1.1e-4 50.38051,0.16323 50.90924,1.54107 0.32528,0.84766 0.59141,5.45142 0.59141,10.23057 0,8.49976 -0.0505,8.68937 -2.31655,8.68937 -4.85093,0 -4.99099,0.94334 -4.99099,33.61471 0,32.67137 0.14006,33.61471 4.99099,33.61471 2.05933,0 2.31655,0.43987 2.31655,3.96141 0,2.17878 -0.45387,4.8095 -1.00861,5.84604 -0.97704,1.82561 -2.57122,1.88463 -50.90925,1.88473 l -49.90061,1.1e-4 z m 76.86089,38.88732 c 7.54523,-5.93508 8.07407,-17.96669 1.0964,-24.94436 -7.82425,-7.82425 -19.88957,-0.80512 -19.96269,11.61351 -0.0317,5.3882 2.72842,11.39074 6.21561,13.51719 4.01667,2.44932 9.4008,2.37002 12.65068,-0.18634 z m -4.51887,-36.39399 c 5.08674,-4.28021 6.65506,-15.09158 3.2703,-22.5441 -5.25358,-11.56724 -17.28791,-10.62148 -20.58356,1.61763 -3.87883,14.40489 8.00013,28.76295 17.31326,20.92647 z"
         id="path1057"
         transform="scale(0.26458333)" />
      <path
         style="fill:#ffffff;fill-rule:evenodd;stroke:#000000;stroke-width:4.48902;stroke-linecap:round;stroke-linejoin:round;paint-order:stroke markers fill"
         d="m 50.373352,457.7447 c -0.643064,-0.64307 -1.169207,-3.27378 -1.169207,-5.84604 0,-4.23061 0.213813,-4.67683 2.240981,-4.67683 4.509985,0 4.579395,-0.5095 4.579395,-33.61471 0,-33.14364 -0.06465,-33.61471 -4.613481,-33.61471 -2.25395,0 -2.272489,-0.0927 -1.997396,-9.98698 l 0.277671,-9.98698 49.934899,-0.25244 49.934896,-0.25243 v 22.96108 22.96107 l -2.16548,-1.51676 c -2.76433,-1.93621 -6.54546,-1.93621 -9.30979,0 -1.7518,1.22701 -2.16548,1.26079 -2.16548,0.17685 0,-3.54259 -3.24154,-11.57189 -5.76026,-14.26819 -2.28315,-2.44413 -3.59051,-3.01485 -6.90615,-3.01485 -3.31564,0 -4.62301,0.57072 -6.90616,3.01485 -5.34679,5.72376 -7.23154,17.98427 -4.28823,27.89547 1.77875,5.98972 6.86996,10.98628 11.19439,10.98628 4.08767,0 9.23677,-4.85869 10.8155,-10.20549 1.25805,-4.26076 1.31512,-4.30632 3.05493,-2.43885 2.85117,3.06036 6.34006,3.45272 9.55649,1.0747 l 2.80907,-2.07683 0.27917,21.92635 0.27917,21.92634 -49.25286,-8.5e-4 c -37.007694,-6.3e-4 -49.543547,-0.29153 -50.422068,-1.17005 z m 92.782058,-7.12653 c 4.25581,-4.5921 4.17346,-12.18323 -0.17939,-16.53608 -3.36719,-3.36719 -7.40838,-3.2212 -11.02797,0.39838 -2.41105,2.41105 -2.84807,3.6186 -2.84807,7.86966 0,4.25107 0.43702,5.45862 2.84807,7.86967 3.67175,3.67175 8.03012,3.82667 11.20736,0.39837 z M 77.808307,425.77758 c 2.010697,-1.76542 3.833861,-4.60732 4.582655,-7.14333 1.198991,-4.06073 1.306515,-4.14851 3.003185,-2.45184 5.691047,5.69105 14.582766,0.57182 13.064434,-7.52158 -1.053975,-5.61817 -7.262641,-8.06895 -12.012739,-4.74186 -1.751798,1.22701 -2.165475,1.26079 -2.165475,0.17685 0,-3.54259 -3.241536,-11.57189 -5.760259,-14.26819 -2.283152,-2.44413 -3.590513,-3.01485 -6.906155,-3.01485 -3.315641,0 -4.623002,0.57072 -6.906154,3.01485 -7.88397,8.43981 -7.535083,28.70909 0.617365,35.86703 4.46086,3.91669 8.089269,3.94079 12.483143,0.0829 z m 8.431418,-46.02876 c 3.873872,-6.35361 1.746598,-17.54615 -3.589394,-18.88539 -3.225848,-0.80964 -5.241499,0.3969 -7.26084,4.34623 -1.361894,2.66353 -1.753312,2.89179 -2.798737,1.63213 -1.692203,-2.03898 -4.611012,-1.82806 -5.814217,0.42015 -1.531144,2.86097 -1.223592,9.45328 0.522485,11.19936 2.244632,2.24463 4.064255,1.87846 5.706313,-1.14833 1.065749,-1.96448 1.464026,-2.21531 1.492626,-0.94006 0.08052,3.59028 3.01294,6.54251 6.498597,6.54251 2.691521,0 3.674371,-0.59359 5.243167,-3.1666 z m 51.175185,1.18141 c 2.53379,-2.7998 3.13119,-12.29247 1.02938,-16.35692 -1.71934,-3.32484 -5.71416,-4.96938 -8.27719,-3.40745 -0.85486,0.52096 -2.26678,2.34067 -3.13762,4.0438 -1.36189,2.66353 -1.75331,2.89179 -2.79873,1.63213 -1.6922,-2.03898 -4.61101,-1.82806 -5.81422,0.42015 -1.53114,2.86097 -1.22359,9.45328 0.52249,11.19936 2.24463,2.24463 4.06425,1.87846 5.70631,-1.14833 1.06575,-1.96448 1.46402,-2.21531 1.49262,-0.94006 0.0215,0.95666 0.74712,2.82008 1.61258,4.14095 2.01342,3.07286 7.06339,3.29044 9.66438,0.41637 z"
         id="path1096"
         transform="scale(0.26458333)" />
      <path
         style="fill:#ffffff;fill-rule:evenodd;stroke:#000000;stroke-width:4.48902;stroke-linecap:round;stroke-linejoin:round;paint-order:stroke markers fill"
         d="m 197.30375,440.523 c -13.27176,-4.36958 -22.62098,-15.69745 -25.41074,-30.78862 -2.62448,-14.19713 4.1444,-30.83042 15.74014,-38.67849 2.90734,-1.96771 6.27259,-3.86068 7.47834,-4.2066 l 2.19226,-0.62895 v 22.76776 c 0,23.90468 0.20983,25.10619 4.38453,25.10619 4.18413,0 4.38452,-1.17245 4.38452,-25.65222 v -23.31381 l 4.08553,0.6533 c 9.71238,1.55307 19.16471,9.60052 24.49719,20.85622 2.85255,6.0211 3.08332,7.27392 3.08332,16.73877 0,9.46486 -0.23077,10.71768 -3.08332,16.73878 -6.1714,13.02646 -15.99902,20.25797 -28.37685,20.88068 -3.59649,0.18093 -7.6352,-0.0319 -8.97492,-0.47301 z"
         id="path1135"
         transform="scale(0.26458333)" />
      <path
         style="fill:#ffffff;fill-rule:evenodd;stroke:#000000;stroke-width:2.25063;stroke-linecap:round;stroke-linejoin:round;paint-order:stroke markers fill"
         d="m 257.71726,355.20239 c -0.34361,-0.64205 -0.52256,-7.06132 -0.52256,-18.74538 0,-14.26388 0.13185,-17.94929 0.66844,-18.68312 1.53005,-2.09246 1.77405,0.54812 1.77405,19.19846 0,15.05453 -0.11584,18.1429 -0.69868,18.62661 -0.55794,0.46305 -0.80395,0.38317 -1.22125,-0.39657 z"
         id="path1252"
         transform="scale(0.26458333)" />
      <path
         style="fill:#ffffff;fill-rule:evenodd;stroke:#000000;stroke-width:2.25063;stroke-linecap:round;stroke-linejoin:round;paint-order:stroke markers fill"
         d="m 325.76326,409.91787 c -2.15612,-1.35344 -3.95794,-3.88842 -5.13295,-7.22153 -1.46445,-4.15413 -1.13342,-10.61208 0.72969,-14.23516 2.62835,-5.11123 7.21867,-5.93815 10.92557,-1.96818 l 1.08328,1.16016 -3.25571,2.18362 c -5.38868,3.61422 -6.48259,4.73722 -6.48259,6.65498 0,0.92587 0.33539,2.33196 0.7453,3.12464 1.17216,2.26671 3.02171,1.96366 7.60153,-1.24551 2.10885,-1.47771 3.95124,-2.68674 4.09421,-2.68674 0.14296,0 0.25994,1.42061 0.25994,3.15692 0,8.22411 -5.66081,14.15731 -10.56827,11.0768 z"
         id="path1291"
         transform="scale(0.26458333)" />
      <path
         style="fill:#ffffff;fill-rule:evenodd;stroke:#000000;stroke-width:2.25063;stroke-linecap:round;stroke-linejoin:round;paint-order:stroke markers fill"
         d="m 326.83812,397.75188 c -0.85613,-0.85613 0.19757,-2.12125 3.84777,-4.61984 3.28371,-2.24772 4.14276,-2.64639 4.37851,-2.03203 0.16131,0.42037 0.17563,0.95471 0.0318,1.18741 -0.48505,0.78483 -7.97894,5.74361 -8.25809,5.46446 z"
         id="path1330"
         transform="scale(0.26458333)" />
      <path
         style="fill:#ffffff;fill-rule:evenodd;stroke:#000000;stroke-width:1.6991;stroke-linecap:round;stroke-linejoin:round;paint-order:stroke markers fill"
         d="m 257.82209,457.45103 c -0.394,-1.02674 -0.24594,-96.54137 0.15058,-97.1454 0.3228,-0.49172 0.40349,-0.49172 0.72629,0 0.39573,0.60282 0.53469,95.43362 0.14199,96.89898 -0.25954,0.96845 -0.70084,1.07518 -1.01886,0.24642 z"
         id="path1408"
         transform="scale(0.26458333)" />
      <path
         style="fill:#ffffff;fill-rule:evenodd;stroke:#000000;stroke-width:1.6991;stroke-linecap:round;stroke-linejoin:round;paint-order:stroke markers fill"
         d="m 323.40623,433.43941 c 0.23346,-4.06449 2.71009,-8.14781 5.86947,-9.67724 4.08289,-1.97649 8.68328,0.0245 11.14853,4.84913 1.05735,2.06929 1.21227,3.72011 0.16554,1.764 -1.57102,-2.93592 -4.99739,-5.16303 -7.94323,-5.16303 -4.25809,0 -8.28454,3.84406 -9.06955,8.65873 l -0.30191,1.85172 z"
         id="path1447"
         transform="scale(0.26458333)" />
      <path
         style="fill:#ffffff;fill-rule:evenodd;stroke:#000000;stroke-width:1.6991;stroke-linecap:round;stroke-linejoin:round;paint-order:stroke markers fill"
         d="m 330.43382,446.90832 c -1.32119,-0.49144 -3.24672,-1.79242 -3.00727,-2.03187 0.0934,-0.0934 0.84317,0.1736 1.66608,0.59342 1.64893,0.84122 5.10871,1.04268 6.36451,0.37059 0.40358,-0.21598 0.93202,-0.32571 1.17432,-0.24384 0.72655,0.24551 -1.82623,1.37391 -3.51757,1.55486 -0.86554,0.0926 -2.07157,-0.0168 -2.68007,-0.24316 z"
         id="path1525"
         transform="scale(0.26458333)" />
      <path
         style="fill:#ffffff;fill-rule:evenodd;stroke:#000000;stroke-width:1.6991;stroke-linecap:round;stroke-linejoin:round;paint-order:stroke markers fill"
         d="m 360.34128,443.22187 c -0.52705,-0.75248 -0.58884,-3.86122 -0.58884,-29.62642 0,-31.35781 -0.0622,-30.42498 2.02834,-30.42498 2.09011,0 2.02882,-0.91604 2.02289,30.23045 -0.004,22.23193 -0.10866,28.79626 -0.46953,29.51316 -0.63528,1.26206 -2.21096,1.4241 -2.99286,0.30779 z"
         id="path1564"
         transform="scale(0.26458333)" />
      <path
         style="fill:#ffffff;fill-rule:evenodd;stroke:#000000;stroke-width:1.6991;stroke-linecap:round;stroke-linejoin:round;paint-order:stroke markers fill"
         d="m 141.00823,415.08278 c -1.38239,-0.77682 -1.93472,-2.53651 -1.22621,-3.90661 0.65819,-1.27281 1.5835,-1.82177 3.07069,-1.82177 1.54261,0 3.37163,1.60708 3.37163,2.96252 0,2.35647 -3.05856,3.97829 -5.21611,2.76586 z"
         id="path1603"
         transform="scale(0.26458333)" />
      <path
         style="fill:#ffffff;fill-rule:evenodd;stroke:#000000;stroke-width:1.6991;stroke-linecap:round;stroke-linejoin:round;paint-order:stroke markers fill"
         d="m 139.89514,406.66055 c 0.90311,-1.08818 2.79377,-1.46311 4.26924,-0.84662 0.72731,0.30389 1.32238,0.61287 1.32238,0.68663 0,0.0738 -0.95423,0.12372 -2.12052,0.11102 -1.1663,-0.0127 -2.53412,0.12531 -3.03961,0.30669 -0.81471,0.29234 -0.86371,0.26307 -0.43149,-0.25772 z"
         id="path1642"
         transform="scale(0.26458333)" />
      <path
         style="fill:#ffffff;fill-rule:evenodd;stroke:#000000;stroke-width:1.6991;stroke-linecap:round;stroke-linejoin:round;paint-order:stroke markers fill"
         d="m 122.46915,422.95309 c -2.61712,-0.7085 -5.25098,-4.80271 -6.31263,-9.8127 -0.60092,-2.8358 -0.7227,-7.48794 -0.1593,-6.08555 0.35304,0.87875 1.69211,1.56198 3.06137,1.56198 1.24312,0 2.02418,1.90773 2.16795,5.29525 0.10655,2.51046 0.23823,2.99143 0.98444,3.59568 1.08087,0.87523 1.58394,0.87606 2.66045,0.004 0.72156,-0.58428 0.88007,-1.11795 1.00881,-3.39649 0.19472,-3.44589 1.2673,-5.29885 3.25384,-5.62122 0.72098,-0.117 1.55293,-0.51071 1.84877,-0.87492 0.47806,-0.58854 0.51259,-0.33967 0.3104,2.23748 -0.42367,5.40011 -2.56824,10.44659 -5.22725,12.30046 -1.36318,0.95042 -2.27784,1.15276 -3.59685,0.79568 z"
         id="path1681"
         transform="scale(0.26458333)" />
      <path
         style="fill:#ffffff;fill-rule:evenodd;stroke:#000000;stroke-width:1.6991;stroke-linecap:round;stroke-linejoin:round;paint-order:stroke markers fill"
         d="m 123.0912,408.53691 c -0.20845,-0.2603 -0.50466,-0.88816 -0.65824,-1.39524 -0.36345,-1.20003 -0.80752,-1.46266 -2.48475,-1.4695 -0.76062,-0.003 -1.38295,-0.17161 -1.38295,-0.37444 0,-0.20283 0.71386,-0.36879 1.58635,-0.36879 1.55797,0 1.60057,-0.0336 2.38069,-1.88014 1.05499,-2.49708 1.43559,-2.35426 3.04486,1.14257 0.15176,0.32976 0.87243,0.59898 1.78437,0.66658 1.98559,0.14719 1.97547,0.73345 -0.0152,0.87956 -1.37753,0.10111 -1.62733,0.27045 -2.30493,1.56251 -0.84224,1.606 -1.381,1.9477 -1.95023,1.23689 z"
         id="path1720"
         transform="scale(0.26458333)" />
      <path
         style="fill:#ffffff;fill-rule:evenodd;stroke:#000000;stroke-width:1.6991;stroke-linecap:round;stroke-linejoin:round;paint-order:stroke markers fill"
         d="m 120.83515,375.90153 c -1.02846,-1.92171 -0.65795,-6.61786 0.55331,-7.01299 1.24456,-0.40599 1.60713,5.95299 0.4078,7.15231 -0.52412,0.52412 -0.61293,0.51125 -0.96111,-0.13932 z"
         id="path1759"
         transform="scale(0.26458333)" />
      <path
         style="fill:#ffffff;fill-rule:evenodd;stroke:#000000;stroke-width:1.6991;stroke-linecap:round;stroke-linejoin:round;paint-order:stroke markers fill"
         d="m 79.126155,379.13648 c -2.189414,-2.34378 -2.924888,-8.76941 -1.395565,-12.19268 0.563792,-1.262 0.577309,-1.19138 0.606722,3.16974 0.03435,5.09303 0.385676,5.83439 2.660888,5.61491 1.807556,-0.17436 2.149534,-1.18112 2.169728,-6.38752 0.01552,-4.00016 0.06993,-4.35567 0.566162,-3.69928 1.405749,1.85945 1.877988,7.03953 0.937187,10.28019 -0.602989,2.07703 -2.520321,4.29832 -3.710148,4.29832 -0.452463,0 -1.278201,-0.48765 -1.834974,-1.08368 z"
         id="path1798"
         transform="scale(0.26458333)" />
      <path
         style="fill:#ffffff;fill-rule:evenodd;stroke:#000000;stroke-width:1.6991;stroke-linecap:round;stroke-linejoin:round;paint-order:stroke markers fill"
         d="m 69.130765,375.76306 c -0.784305,-1.46548 -0.803376,-4.4603 -0.03855,-6.05335 l 0.708227,-1.47515 0.595598,1.37111 c 0.738968,1.70116 0.763533,3.96687 0.06123,5.6477 -0.622501,1.48986 -0.771338,1.54705 -1.326512,0.50969 z"
         id="path1837"
         transform="scale(0.26458333)" />
      <path
         style="fill:#ffffff;fill-rule:evenodd;stroke:#000000;stroke-width:1.6991;stroke-linecap:round;stroke-linejoin:round;paint-order:stroke markers fill"
         d="m 121.00234,375.85936 c -0.52851,-0.85514 -0.67239,-4.0545 -0.24111,-5.3613 0.79635,-2.41297 1.47779,-1.32767 1.48687,2.36806 0.005,2.05529 -0.73158,3.82521 -1.24576,2.99324 z"
         id="path1876"
         transform="scale(0.26458333)" />
      <path
         style="fill:#ffffff;fill-rule:evenodd;stroke:#000000;stroke-width:1.6991;stroke-linecap:round;stroke-linejoin:round;paint-order:stroke markers fill"
         d="m 203.51383,449.12775 c -16.51164,-1.36643 -31.05287,-12.63932 -36.55781,-28.34093 -4.20753,-12.00107 -2.58527,-25.30559 4.44268,-36.4352 0.80656,-1.27729 1.52701,-2.26179 1.60101,-2.18779 0.074,0.074 -0.42023,1.45095 -1.0983,3.05991 -2.4739,5.87025 -3.55054,11.33234 -3.54832,18.00177 0.004,12.23121 4.15296,22.80997 12.07462,30.78753 3.31182,3.33519 6.34754,5.4746 10.56052,7.44247 5.10385,2.384 6.96264,2.74478 14.05776,2.72855 5.85742,-0.0134 6.47537,-0.0823 9.40408,-1.04875 15.71243,-5.18492 26.09907,-19.77076 26.81302,-37.65319 0.33492,-8.38876 -0.88539,-14.70956 -4.16058,-21.55043 -2.35155,-4.91166 -4.58111,-8.10464 -8.15427,-11.6778 -1.70355,-1.70355 -2.9937,-3.09736 -2.86701,-3.09736 0.12668,0 1.25399,0.59806 2.50512,1.32903 9.89695,5.78222 17.14348,15.07887 19.96146,25.60872 2.52655,9.44089 1.86249,18.74376 -1.97301,27.64029 -7.17464,16.64172 -24.60509,26.92051 -43.06097,25.39318 z"
         id="path1915"
         transform="scale(0.26458333)" />
      <path
         style="fill:#ffffff;fill-rule:evenodd;stroke:#000000;stroke-width:1.6991;stroke-linecap:round;stroke-linejoin:round;paint-order:stroke markers fill"
         d="m 200.75789,410.58869 c -0.41366,-0.49824 -0.52458,-4.55086 -0.60704,-22.17872 -0.0887,-18.95396 -0.0317,-21.67463 0.46949,-22.4396 0.77343,-1.1804 1.83979,-1.11012 2.36416,0.15582 0.66857,1.61407 0.3958,43.63829 -0.28859,44.46256 -0.64323,0.77469 -1.29483,0.77467 -1.93802,-6e-5 z"
         id="path1954"
         transform="scale(0.26458333)" />
      <path
         style="fill:#ffffff;fill-rule:evenodd;stroke:#000000;stroke-width:1.6991;stroke-linecap:round;stroke-linejoin:round;paint-order:stroke markers fill"
         d="m 153.29485,457.47339 c -0.32349,-0.71 -0.43233,-13.00352 -0.43233,-48.83307 0,-46.77679 0.0165,-47.90433 0.71253,-48.75482 l 0.71252,-0.87063 0.57823,1.37111 c 0.51509,1.22137 0.57764,6.53761 0.5728,48.67998 -0.006,48.23872 -0.0205,48.79952 -1.31397,49.22544 -0.21859,0.072 -0.59199,-0.29613 -0.82978,-0.81801 z"
         id="path1993"
         transform="scale(0.26458333)" />
      <path
         style="fill:#ffffff;fill-rule:evenodd;stroke:#000000;stroke-width:1.6991;stroke-linecap:round;stroke-linejoin:round;paint-order:stroke markers fill"
         d="m 153.10786,355.48649 c -0.55251,-0.78882 -0.61413,-2.67342 -0.61413,-18.78328 0,-15.6099 0.0736,-18.01161 0.5741,-18.72612 0.31575,-0.4508 0.70399,-0.81963 0.86277,-0.81963 1.00711,0 1.14465,2.36783 1.14465,19.70664 0,16.74319 -0.0412,17.87884 -0.67663,18.66359 l -0.67662,0.8356 z"
         id="path2071"
         transform="scale(0.26458333)" />
      <path
         style="fill:#ffffff;fill-rule:evenodd;stroke:#000000;stroke-width:1.6991;stroke-linecap:round;stroke-linejoin:round;paint-order:stroke markers fill"
         d="m 157.84115,408.8934 v -49.87853 h 48.72 48.71999 l -0.3166,1.10393 c -0.45141,1.57396 -0.40957,96.51668 0.0431,97.70718 l 0.35966,0.94597 h -48.76305 l -48.76306,-1e-5 z m 59.58763,42.1823 c 28.88585,-6.62859 43.7754,-37.90398 30.57605,-64.22477 -6.32643,-12.61552 -18.65475,-21.67613 -32.79969,-24.10589 -5.05406,-0.86817 -13.70017,-0.80235 -17.60585,0.13403 -25.70865,6.16358 -40.8527,31.0127 -34.2013,56.11918 1.12481,4.24571 4.6083,11.40565 7.23975,14.88053 7.19962,9.50724 18.09967,15.99447 30.03247,17.87402 3.48458,0.54887 13.11101,0.15993 16.75857,-0.6771 z"
         id="path2221"
         transform="scale(0.26458333)" />
      <path
         style="fill:#ffffff;fill-rule:evenodd;stroke:#000000;stroke-width:1.6991;stroke-linecap:round;stroke-linejoin:round;paint-order:stroke markers fill"
         d="m 49.438469,355.42933 c -0.500658,-0.71479 -0.574093,-3.13373 -0.574093,-18.91051 0,-15.77679 0.07344,-18.19573 0.574093,-18.91052 l 0.574094,-0.81963 h 48.970702 48.970695 l 0.70254,0.7763 c 0.67085,0.74128 0.70254,1.59602 0.70254,18.95385 0,17.35782 -0.0317,18.21256 -0.70254,18.95385 l -0.70254,0.77629 H 98.983265 50.012563 Z"
         id="path2297"
         transform="scale(0.26458333)" />
      <path
         style="fill:#ffffff;fill-rule:evenodd;stroke:#000000;stroke-width:1.6991;stroke-linecap:round;stroke-linejoin:round;paint-order:stroke markers fill"
         d="m 49.795816,442.93239 c -0.490159,-0.94786 -0.561952,-4.7372 -0.557216,-29.41082 0.0058,-30.44948 -0.01863,-30.05502 1.878614,-30.27755 2.061171,-0.24177 1.988221,-1.35539 1.988221,30.35143 0,31.44579 0.06306,30.42499 -1.879624,30.42499 -0.587473,0 -1.048897,-0.35108 -1.429995,-1.08805 z"
         id="path2336"
         transform="scale(0.26458333)" />
      <path
         style="fill:#ffffff;fill-rule:evenodd;stroke:#000000;stroke-width:1.6991;stroke-linecap:round;stroke-linejoin:round;paint-order:stroke markers fill"
         d="m 69.289633,422.17843 c -0.585145,-0.45161 -1.275534,-1.07394 -1.534197,-1.38295 -1.099829,-1.31392 -2.760351,-5.07506 -3.240315,-7.33943 -0.59068,-2.78669 -0.706526,-7.79101 -0.148183,-6.40121 0.353036,0.87875 1.692107,1.56198 3.061363,1.56198 1.243129,0 2.024181,1.90773 2.167955,5.29525 0.10655,2.51046 0.238233,2.99143 0.984443,3.59568 1.075255,0.87069 1.584411,0.87567 2.633976,0.0258 0.696772,-0.56421 0.859589,-1.13915 1.01694,-3.591 0.224105,-3.49203 1.209323,-5.11338 3.314772,-5.45505 0.697556,-0.1132 1.494277,-0.5038 1.770493,-0.86801 0.454194,-0.59888 0.5021,-0.53879 0.501072,0.62856 -0.0035,3.98385 -1.781439,9.6782 -3.881423,12.43142 -1.805557,2.3672 -4.681583,3.01579 -6.646896,1.49898 z"
         id="path2375"
         transform="scale(0.26458333)" />
      <path
         style="fill:#ffffff;fill-rule:evenodd;stroke:#000000;stroke-width:1.6991;stroke-linecap:round;stroke-linejoin:round;paint-order:stroke markers fill"
         d="m 64.36124,402.51338 c 0.01413,-1.30663 1.707922,-5.56288 2.907766,-7.30679 0.68269,-0.99226 1.819722,-2.04127 2.698456,-2.48957 1.31033,-0.66848 1.708937,-0.71773 2.906079,-0.35906 2.54369,0.76211 5.452322,5.08035 6.116422,9.08062 0.184133,1.10914 0.172168,1.11818 -1.294845,0.97828 -1.228916,-0.11719 -1.556973,-0.32536 -1.929279,-1.22418 -1.117908,-2.69887 -4.377022,-3.4311 -6.26689,-1.40799 -0.578071,0.61883 -1.1537,1.4486 -1.279176,1.84394 -0.172472,0.54341 -0.564015,0.7188 -1.604679,0.7188 -0.757098,0 -1.575688,0.19914 -1.819087,0.44254 -0.344202,0.34421 -0.440817,0.28274 -0.434767,-0.27659 z"
         id="path2414"
         transform="scale(0.26458333)" />
      <path
         style="fill:#ffffff;fill-rule:evenodd;stroke:#000000;stroke-width:1.6991;stroke-linecap:round;stroke-linejoin:round;paint-order:stroke markers fill"
         d="m 122.05046,422.48081 c -3.04714,-1.32725 -6.04519,-7.68308 -6.06126,-12.84982 -0.006,-1.873 0.0315,-1.92547 1.01372,-1.42634 0.3522,0.17898 1.13785,0.47326 1.74588,0.65396 1.45949,0.43376 2.04098,1.74367 2.30116,5.18382 0.23375,3.09068 0.87609,4.16287 2.49393,4.16287 1.53797,0 2.25465,-1.09157 2.50966,-3.82244 0.33517,-3.58929 1.02267,-4.78885 3.28294,-5.72818 l 1.87377,-0.7787 -0.23602,2.5395 c -0.47946,5.15875 -2.65986,9.93244 -5.36435,11.74447 -1.42995,0.95808 -1.98218,1.00786 -3.55943,0.32086 z"
         id="path2453"
         transform="scale(0.26458333)" />
      <path
         style="fill:#ffffff;fill-rule:evenodd;stroke:#000000;stroke-width:1.6991;stroke-linecap:round;stroke-linejoin:round;paint-order:stroke markers fill"
         d="m 116.1789,402.17403 c 0.94112,-5.80128 4.80573,-10.65187 7.93844,-9.96381 2.86456,0.62916 5.49367,4.48936 6.77868,9.95281 0.20989,0.89241 0.16959,1.01722 -0.20843,0.64538 -0.25775,-0.25354 -0.99615,-0.46098 -1.6409,-0.46098 -0.95772,0 -1.25707,-0.20477 -1.6357,-1.11886 -0.65389,-1.57863 -2.06116,-2.56902 -3.65038,-2.56902 -1.67336,0 -2.70736,0.7034 -3.50503,2.38436 -0.5523,1.16389 -0.77276,1.30352 -2.05809,1.30352 -0.96957,0 -1.57281,0.21069 -1.84782,0.64538 -0.32093,0.50728 -0.35747,0.33208 -0.17077,-0.81878 z"
         id="path2492"
         transform="scale(0.26458333)" />
      <path
         style="fill:#ffffff;fill-rule:evenodd;stroke:#000000;stroke-width:1.6991;stroke-linecap:round;stroke-linejoin:round;paint-order:stroke markers fill"
         d="m 331.32391,443.2992 c -2.64072,-0.80028 -4.63146,-3.41187 -5.00501,-6.56596 -0.50673,-4.27855 2.62497,-8.56573 6.25969,-8.56929 1.66823,-0.002 2.60303,0.43175 4.20854,1.95114 3.60289,3.40961 2.63581,10.49762 -1.7337,12.70679 -1.73886,0.87915 -2.20619,0.93896 -3.72952,0.47732 z"
         id="path2531"
         transform="scale(0.26458333)" />
      <path
         style="fill:#ffffff;fill-rule:evenodd;stroke:#000000;stroke-width:1.6991;stroke-linecap:round;stroke-linejoin:round;paint-order:stroke markers fill"
         d="m 135.16711,448.87782 c -2.1694,-2.16939 -2.16799,-5.55236 0.003,-7.63247 3.1418,-3.01003 7.87576,0.72499 6.65675,5.25206 -0.87784,3.26004 -4.48943,4.55091 -6.65993,2.38041 z"
         id="path2570"
         transform="scale(0.26458333)" />
    </g>
  </g>
  <g
     inkscape:groupmode="layer"
     id="layer4"
     inkscape:label="Layer 4">
    <g
       id="g9046"
       transform="translate(-2.9001826,-0.6928213)">
      <path
         id="path826"
         style="fill:none;fill-rule:evenodd;stroke:#000000;stroke-width:0.645825;stroke-linecap:round;stroke-linejoin:round;stroke-miterlimit:4;stroke-dasharray:none;stroke-opacity:0.955017;paint-order:stroke markers fill"
         d="m 148.51678,281.00797 a 1.5941543,1.7189101 0 0 1 -1.59416,1.71891 1.5941543,1.7189101 0 0 1 -1.59417,-1.71891 1.5941543,1.7189101 0 0 1 1.59417,-1.71892 1.5941543,1.7189101 0 0 1 1.59416,1.71892 z m -0.26087,0.50605 a 1.2898157,1.2164594 0 0 1 -1.28982,1.21646 1.2898157,1.2164594 0 0 1 -1.28982,-1.21646 1.2898157,1.2164594 0 0 1 1.28982,-1.21646 1.2898157,1.2164594 0 0 1 1.28982,1.21646 z m -6.25302,-10.55028 a 0.70581213,1.4467282 0 0 1 -0.70581,1.44673 0.70581213,1.4467282 0 0 1 -0.70581,-1.44673 0.70581213,1.4467282 0 0 1 0.70581,-1.44672 0.70581213,1.4467282 0 0 1 0.70581,1.44672 z m 2.11335,-2.75772 h 0.15481 c 0.10598,0 0.1913,0.18044 0.1913,0.40457 v 2.46269 c 0,0.22413 -0.0853,0.40456 -0.1913,0.40456 h -0.15481 c -0.10598,0 -0.1913,-0.18043 -0.1913,-0.40456 v -2.46269 c 0,-0.22413 0.0853,-0.40457 0.1913,-0.40457 z m 1.66876,2.57227 a 1.4936349,2.5905373 0 0 1 -1.49364,2.59054 1.4936349,2.5905373 0 0 1 -1.49365,-2.59054 1.4936349,2.5905373 0 0 1 1.49365,-2.59054 1.4936349,2.5905373 0 0 1 1.49364,2.59054 z m -3.85448,7.41491 a 0.8153251,1.4029095 0 0 0 -0.77588,0.9736 h -0.75511 c -0.13551,0 -0.2446,0.20603 -0.2446,0.46194 0,0.25591 0.10909,0.46193 0.2446,0.46193 h 0.76837 a 0.8153251,1.4029095 0 0 0 0.45129,0.80128 v 1.28905 c 0,0.25591 0.1091,0.46194 0.24461,0.46194 0.1355,0 0.24457,-0.20603 0.24457,-0.46194 v -1.21598 a 0.8153251,1.4029095 0 0 0 0.58477,-0.87435 h 0.70259 c 0.13551,0 0.24461,-0.20602 0.24461,-0.46193 0,-0.25591 -0.1091,-0.46194 -0.24461,-0.46194 h -0.68906 a 0.8153251,1.4029095 0 0 0 -0.77615,-0.9736 z m 2.78541,2.03593 a 2.930349,5.1405972 0 0 1 -2.93035,5.1406 2.930349,5.1405972 0 0 1 -2.93035,-5.1406 2.930349,5.1405972 0 0 1 2.93035,-5.1406 2.930349,5.1405972 0 0 1 2.93035,5.1406 z m -0.39378,0.0171 a 2.4731529,4.4824666 0 0 1 -2.47316,4.48247 2.4731529,4.4824666 0 0 1 -2.47315,-4.48247 2.4731529,4.4824666 0 0 1 2.47315,-4.48247 2.4731529,4.4824666 0 0 1 2.47316,4.48247 z m 3.11904,9.19193 a 1.8657401,2.3995257 0 0 1 -1.86574,2.39953 1.8657401,2.3995257 0 0 1 -1.86574,-2.39953 1.8657401,2.3995257 0 0 1 1.86574,-2.39952 1.8657401,2.3995257 0 0 1 1.86574,2.39952 z m -0.3053,0.70643 a 1.5095532,1.6981259 0 0 1 -1.50955,1.69813 1.5095532,1.6981259 0 0 1 -1.50956,-1.69812 1.5095532,1.6981259 0 0 1 1.50956,-1.69813 1.5095532,1.6981259 0 0 1 1.50955,1.69813 z m -12.28934,-9.13664 a 1.5941543,1.7189101 0 0 1 -1.59415,1.71891 1.5941543,1.7189101 0 0 1 -1.59416,-1.71891 1.5941543,1.7189101 0 0 1 1.59416,-1.71892 1.5941543,1.7189101 0 0 1 1.59415,1.71892 z m -0.26086,0.50605 a 1.2898157,1.2164594 0 0 1 -1.28981,1.21646 1.2898157,1.2164594 0 0 1 -1.28982,-1.21646 1.2898157,1.2164594 0 0 1 1.28982,-1.21646 1.2898157,1.2164594 0 0 1 1.28981,1.21646 z m -6.253,-10.55028 a 0.70581213,1.4467282 0 0 1 -0.70582,1.44673 0.70581213,1.4467282 0 0 1 -0.70581,-1.44673 0.70581213,1.4467282 0 0 1 0.70581,-1.44672 0.70581213,1.4467282 0 0 1 0.70582,1.44672 z m 2.11335,-2.75772 h 0.1548 c 0.10598,0 0.1913,0.18044 0.1913,0.40457 v 2.46269 c 0,0.22413 -0.0853,0.40456 -0.1913,0.40456 h -0.1548 c -0.10598,0 -0.1913,-0.18043 -0.1913,-0.40456 v -2.46269 c 0,-0.22413 0.0853,-0.40457 0.1913,-0.40457 z m 1.66875,2.57227 a 1.4936349,2.5905373 0 0 1 -1.49364,2.59054 1.4936349,2.5905373 0 0 1 -1.49363,-2.59054 1.4936349,2.5905373 0 0 1 1.49363,-2.59054 1.4936349,2.5905373 0 0 1 1.49364,2.59054 z m -3.85447,7.41491 a 0.8153251,1.4029095 0 0 0 -0.77589,0.9736 h -0.7551 c -0.13551,0 -0.2446,0.20603 -0.2446,0.46194 0,0.25591 0.10909,0.46193 0.2446,0.46193 h 0.76837 a 0.8153251,1.4029095 0 0 0 0.4513,0.80128 v 1.28905 c 0,0.25591 0.10909,0.46194 0.24459,0.46194 0.13551,0 0.24458,-0.20603 0.24458,-0.46194 V 280.965 a 0.8153251,1.4029095 0 0 0 0.58477,-0.87435 h 0.70259 c 0.13551,0 0.2446,-0.20602 0.2446,-0.46193 0,-0.25591 -0.10909,-0.46194 -0.2446,-0.46194 h -0.68906 a 0.8153251,1.4029095 0 0 0 -0.77615,-0.9736 z m 2.78541,2.03593 a 2.930349,5.1405972 0 0 1 -2.93035,5.1406 2.930349,5.1405972 0 0 1 -2.93035,-5.1406 2.930349,5.1405972 0 0 1 2.93035,-5.1406 2.930349,5.1405972 0 0 1 2.93035,5.1406 z m -0.39379,0.0171 a 2.4731529,4.4824666 0 0 1 -2.47315,4.48246 2.4731529,4.4824666 0 0 1 -2.47315,-4.48247 2.4731529,4.4824666 0 0 1 2.47315,-4.48246 2.4731529,4.4824666 0 0 1 2.47315,4.48247 z m -7.986,-6.89532 h 0.17665 c 0.45869,0 0.82797,0.52432 0.82797,1.17559 v 14.56179 c 0,0.65128 -0.36928,1.17559 -0.82797,1.17559 h -0.17665 c -0.45869,0 -0.82796,-0.52431 -0.82796,-1.17559 v -14.56179 c 0,-0.65127 0.36927,-1.17559 0.82796,-1.17559 z m 82.13899,0 h 0.17664 c 0.45869,0 0.82797,0.52432 0.82797,1.17559 v 14.56179 c 0,0.65128 -0.36928,1.17559 -0.82797,1.17559 h -0.17664 c -0.4587,0 -0.82796,-0.52431 -0.82796,-1.17559 v -14.56179 c 0,-0.65127 0.36926,-1.17559 0.82796,-1.17559 z m -25.72065,-17.50025 h 25.73782 c 0.45896,0 0.82843,0.52461 0.82843,1.17626 v 8.80513 c 0,0.65165 -0.36947,1.17626 -0.82843,1.17626 h -25.73782 c -0.45895,0 -0.82844,-0.52461 -0.82844,-1.17626 v -8.80513 c 0,-0.65165 0.36949,-1.17626 0.82844,-1.17626 z m -27.57803,-0.004 h 24.54466 c 0.45927,0 0.82901,0.52498 0.82901,1.17709 v 8.81131 c 0,0.65211 -0.36974,1.17709 -0.82901,1.17709 h -24.54466 c -0.45928,0 -0.82902,-0.52498 -0.82902,-1.17709 v -8.81128 c 0,-0.6521 0.36974,-1.17708 0.82902,-1.17708 z m 26.05542,0.0706 c 0.40881,0 0.73792,0.52768 0.73792,1.18315 v 8.72152 c 0,0.65547 -0.32911,1.18315 -0.73792,1.18315 -0.40882,0 -0.73793,-0.52768 -0.73793,-1.18315 v -8.72145 c 0,-0.65547 0.32911,-1.18316 0.73793,-1.18316 z m -27.69367,0 c 0.40881,0 0.73793,0.52768 0.73793,1.18315 v 8.72152 c 0,0.65547 -0.32912,1.18315 -0.73793,1.18315 -0.40881,0 -0.73793,-0.52768 -0.73793,-1.18315 v -8.72145 c 0,-0.65547 0.32912,-1.18316 0.73793,-1.18316 z m 27.89849,11.08789 h 27.20453 c 0.4587,0 0.82796,0.52431 0.82796,1.17559 v 24.78809 c 0,0.65128 -0.36926,1.17559 -0.82796,1.17559 h -27.20453 c -0.45869,0 -0.82796,-0.52431 -0.82796,-1.17559 v -24.78808 c 0,-0.65127 0.36927,-1.17559 0.82796,-1.17559 z m -27.69366,0 h 27.20454 c 0.45868,0 0.82795,0.52431 0.82795,1.17559 v 24.78809 c 0,0.65128 -0.36927,1.17559 -0.82795,1.17559 h -27.20454 c -0.45869,0 -0.82796,-0.52431 -0.82796,-1.17559 v -24.78808 c 0,-0.65127 0.36927,-1.17559 0.82796,-1.17559 z m -27.45818,0 h 27.20452 c 0.45869,0 0.82797,0.52431 0.82797,1.17559 v 24.78809 c 0,0.65128 -0.36928,1.17559 -0.82797,1.17559 h -27.20452 c -0.4587,0 -0.82797,-0.52431 -0.82797,-1.17559 v -24.78808 c 0,-0.65127 0.36927,-1.17559 0.82797,-1.17559 z m 39.93152,1.54136 c 0.45869,0 0.82796,0.52431 0.82796,1.17559 v 10.68111 c 0,0.65128 -0.36927,1.17559 -0.82796,1.17559 -0.45869,0 -0.82796,-0.52431 -0.82796,-1.17559 v -10.6811 c 0,-0.65128 0.36927,-1.17559 0.82796,-1.17559 z m 13.17646,11.55437 a 11.68612,11.554357 0 0 1 -11.68613,11.55436 11.68612,11.554357 0 0 1 -11.68612,-11.55436 11.68612,11.554357 0 0 1 11.68612,-11.55435 11.68612,11.554357 0 0 1 11.68613,11.55435 z m -3.02798,-1.00765 a 9.3205092,10.546711 0 0 1 -9.32052,10.54672 9.3205092,10.546711 0 0 1 -9.32051,-10.54671 9.3205092,10.546711 0 0 1 9.32051,-10.54672 9.3205092,10.546711 0 0 1 9.32052,10.54672 z m -50.17639,-23.24254 h 25.73782 c 0.45896,0 0.82844,0.52461 0.82844,1.17626 v 8.80513 c 0,0.65165 -0.36948,1.17626 -0.82844,1.17626 h -25.73782 c -0.45895,0 -0.82844,-0.52461 -0.82844,-1.17626 v -8.80513 c 0,-0.65165 0.36949,-1.17626 0.82844,-1.17626 z m 76.74485,31.84263 a 2.0722215,2.4182664 0 0 1 -2.07223,2.41827 2.0722215,2.4182664 0 0 1 -2.07222,-2.41827 2.0722215,2.4182664 0 0 1 2.07222,-2.41826 2.0722215,2.4182664 0 0 1 2.07223,2.41826 z m 0.76344,-0.19607 a 2.8629371,3.5947204 0 0 1 -2.86293,3.59472 2.8629371,3.5947204 0 0 1 -2.86294,-3.59472 2.8629371,3.5947204 0 0 1 2.86294,-3.59472 2.8629371,3.5947204 0 0 1 2.86293,3.59472 z m -1.90207,-12.00436 0.12842,0.37507 c 0.0879,0.25677 -0.003,0.57536 -0.20467,0.71434 l -2.21203,1.52697 c -0.20131,0.13897 -0.43417,0.0441 -0.52209,-0.21264 l -0.12843,-0.37507 c -0.0879,-0.25677 0.003,-0.57536 0.20469,-0.71433 l 2.21201,-1.52698 c 0.20133,-0.13897 0.43418,-0.0441 0.5221,0.21264 z m -0.92603,5.63801 a 3.9672855,2.6241835 85.144154 0 1 -3.566,-2.01258 3.9672855,2.6241835 85.144154 0 1 1.08772,-5.22507 3.9672855,2.6241835 85.144154 0 1 3.566,2.01258 3.9672855,2.6241835 85.144154 0 1 -1.08772,5.22507 z" />
      <path
         style="fill:#b7c4c8;fill-rule:evenodd;stroke:#000000;stroke-width:2.11081;stroke-linecap:round;stroke-linejoin:round;paint-order:stroke markers fill"
         d="m 570.42882,1060.4746 v -50.0376 h 48.42349 48.4235 v 50.0376 50.0376 h -48.4235 -48.42349 z m 55.6403,42.8832 c 10.72741,-1.4827 18.94757,-5.6316 26.76373,-13.5084 18.7408,-18.8863 16.44564,-50.8965 -4.79411,-66.8627 -8.41684,-6.327 -15.11339,-8.6681 -26.17898,-9.1519 -8.69518,-0.3802 -12.38658,0.1698 -18.89918,2.8161 -9.5171,3.8672 -18.84597,12.1457 -23.35411,20.7247 -4.90651,9.3371 -6.56407,22.56 -4.02867,32.1381 4.71391,17.8079 19.57174,31.2138 37.48676,33.8236 5.50782,0.8024 7.32617,0.8053 13.00456,0.02 z"
         id="path883"
         transform="scale(0.26458333)" />
      <path
         style="fill:#b7c4c8;fill-rule:evenodd;stroke:#000000;stroke-width:2.11081;stroke-linecap:round;stroke-linejoin:round;paint-order:stroke markers fill"
         d="m 462.92865,1109.8803 c -0.70288,-0.4442 -1.03021,-2.1066 -1.19359,-6.0616 l -0.22511,-5.4496 2.40571,0.068 c 1.78739,0.051 2.71647,-0.3155 3.61476,-1.4249 1.14285,-1.4113 1.20905,-3.1352 1.20905,-31.4866 0,-34.2088 0.0687,-33.749 -5.04921,-33.7726 l -2.1438,-0.01 0.20686,-10.0322 c 0.16608,-8.0545 0.39779,-10.1528 1.17533,-10.6433 0.58695,-0.3703 20.51694,-0.6149 50.59093,-0.6209 44.98647,-0.01 49.58584,0.086 49.23055,1.0114 -0.21555,0.5617 -0.3919,11.2894 -0.3919,23.8392 v 22.818 l -1.88727,-1.8872 c -1.58267,-1.5827 -2.40832,-1.8873 -5.11551,-1.8873 -2.744,0 -3.52622,0.298 -5.21484,1.9866 l -1.9866,1.9866 v -2.5747 c 0,-3.5922 -2.12476,-10.0383 -4.20994,-12.7721 -8.53396,-11.1886 -20.42038,-1.7471 -20.41521,16.2159 0.004,13.7408 6.67889,22.8894 14.90262,20.4255 3.35452,-1.005 6.84096,-5.1224 8.24217,-9.7338 0.59989,-1.9743 1.16535,-3.6976 1.25656,-3.8296 0.0912,-0.132 1.07286,0.667 2.18143,1.7755 1.70245,1.7025 2.50165,2.0156 5.14448,2.0156 2.63308,0 3.44371,-0.3148 5.11551,-1.9866 l 1.9866,-1.9866 0.009,20.8718 c 0.005,11.4794 0.18401,21.5254 0.39813,22.3244 l 0.3893,1.4527 -49.62868,-0.01 c -30.14484,-0.01 -50.00893,-0.2503 -50.59718,-0.6221 z m 92.15857,-7.2517 c 2.46961,-2.3064 3.39713,-4.6578 3.39713,-8.6121 0,-6.8734 -3.50139,-10.9602 -8.91784,-10.4088 -6.66454,0.6785 -9.97198,8.902 -6.41627,15.9532 2.55129,5.0593 8.23924,6.5211 11.93698,3.0677 z m -67.82744,-23.1504 c 0.99966,-0.3788 2.50948,-1.323 3.35515,-2.0984 1.69845,-1.5571 5.24039,-8.5092 5.24119,-10.2873 7.1e-4,-1.5626 0.4471,-1.4283 2.68242,0.8071 1.61925,1.6192 2.45015,1.9369 5.06585,1.9369 2.6246,0 3.44514,-0.3162 5.09096,-1.9621 2.32964,-2.3296 3.06999,-5.4828 2.02837,-8.6389 -1.0901,-3.303 -3.41716,-4.8945 -7.15674,-4.8945 -2.59131,0 -3.41292,0.3214 -5.0781,1.9866 l -1.98661,1.9866 v -2.5747 c 0,-3.5922 -2.12476,-10.0383 -4.20994,-12.7721 -4.60353,-6.0355 -10.80076,-6.3396 -15.49543,-0.7603 -6.67433,7.932 -6.77635,25.7137 -0.19334,33.7 3.13307,3.801 6.80326,5.0309 10.65622,3.5711 z m 10.63646,-47.0567 c 3.91984,-4.243 3.8501,-14.2572 -0.12698,-18.2343 -1.94209,-1.942 -4.80039,-2.3864 -7.17514,-1.1155 -1.57499,0.8429 -3.7207,5.3462 -3.8206,8.0185 l -0.0724,1.9369 -0.605,-2.095 c -0.79316,-2.7465 -3.21615,-4.3955 -5.03126,-3.4241 -0.72589,0.3885 -1.61699,1.2617 -1.98024,1.9404 -0.89401,1.6705 -0.83613,7.3291 0.0959,9.3746 1.52188,3.3402 5.83028,2.6366 6.9186,-1.1298 0.33111,-1.1459 0.62822,-1.5635 0.66024,-0.9279 0.10649,2.1133 2.62357,6.2184 4.4199,7.2084 2.31418,1.2754 4.59084,0.7493 6.717,-1.5522 z m 51.13093,0.6997 c 3.18037,-2.7975 4.34835,-8.963 2.74365,-14.483 -1.56637,-5.3881 -5.53006,-7.7045 -9.52497,-5.5665 -1.57499,0.8429 -3.7207,5.3462 -3.8206,8.0185 l -0.0724,1.9369 -0.605,-2.095 c -0.79316,-2.7465 -3.21615,-4.3955 -5.03126,-3.4241 -1.9644,1.0513 -2.64068,2.7754 -2.64068,6.732 0,2.8226 0.31955,3.929 1.54691,5.3559 1.35874,1.5796 1.77107,1.7206 3.38965,1.1589 1.25551,-0.4357 2.03611,-1.2936 2.44958,-2.6921 l 0.60685,-2.0527 1.33009,3.3509 c 2.03021,5.1147 6.2256,6.7532 9.62819,3.7603 z"
         id="path922"
         transform="scale(0.26458333)" />
      <path
         style="fill:#b7c4c8;fill-rule:evenodd;stroke:#000000;stroke-width:2.11081;stroke-linecap:round;stroke-linejoin:round;paint-order:stroke markers fill"
         d="m 674.37793,1060.4746 v -50.0376 h 50.06989 c 38.08239,0 50.2554,0.1855 50.84468,0.7748 0.53508,0.5351 0.77477,3.8308 0.77477,10.6532 v 9.8783 h -1.91178 c -1.13526,0 -2.44651,0.574 -3.22824,1.4131 -1.28628,1.3806 -1.31644,2.1114 -1.31644,31.888 0,28.6545 0.0711,30.5627 1.19068,31.9453 0.78382,0.968 1.88691,1.4705 3.22823,1.4705 h 2.03755 v 5.2512 c 0,3.2235 -0.29918,5.5505 -0.77477,6.0261 -0.58928,0.5892 -12.76229,0.7747 -50.84468,0.7747 h -50.06989 z m 75.73413,40.0915 c 8.55393,-4.4506 9.79082,-19.9341 2.10879,-26.3981 -2.56435,-2.1577 -4.37251,-2.6391 -8.4437,-2.2479 -5.7485,0.5523 -9.89593,5.4222 -10.74849,12.6207 -0.76545,6.463 2.35505,13.5594 6.96006,15.828 2.678,1.3193 7.77595,1.4186 10.12334,0.1973 z m -2.74754,-37.8594 c 3.16127,-3.064 4.4927,-6.9962 4.48259,-13.2387 -0.007,-4.5626 -0.26777,-5.7227 -2.13639,-9.5184 -1.66955,-3.3913 -2.72311,-4.6713 -4.89065,-5.9416 -6.50682,-3.8132 -12.57826,-0.3884 -14.91543,8.4137 -2.25416,8.4894 0.73962,17.6489 7.10101,21.7258 3.01589,1.9328 7.52532,1.3056 10.35887,-1.4408 z"
         id="path961"
         transform="scale(0.26458333)" />
      <path
         style="fill:#6f7c91;fill-rule:evenodd;stroke:#000000;stroke-width:0.916023;stroke-linecap:round;stroke-linejoin:round;paint-order:stroke markers fill"
         d="m 566.09745,1109.5233 c -0.52055,-0.5752 -0.53376,-1.7874 -0.53376,-48.9755 0,-46.624 0.0189,-48.4146 0.51888,-49.1777 l 0.51889,-0.7919 0.60187,0.6019 0.60188,0.6018 0.0724,48.3344 c 0.0644,42.9872 0.0249,48.4263 -0.35743,49.1656 -0.51072,0.9876 -0.71592,1.0225 -1.42274,0.2414 z"
         id="path1115"
         transform="scale(0.26458333)" />
      <path
         style="fill:#6f7c91;fill-rule:evenodd;stroke:#000000;stroke-width:0.916023;stroke-linecap:round;stroke-linejoin:round;paint-order:stroke markers fill"
         d="m 670.55092,1109.1436 c -0.52983,-1.1629 -0.48358,-96.7884 0.0472,-97.5142 0.36812,-0.5035 0.39883,-0.4972 0.77052,0.1566 0.32422,0.5702 0.40049,8.3301 0.46934,47.7528 0.0452,25.8896 0.009,47.5908 -0.0815,48.2249 -0.0901,0.6342 -0.3225,1.3701 -0.51651,1.6354 -0.32303,0.4418 -0.38107,0.4203 -0.68898,-0.2555 z"
         id="path1193"
         transform="scale(0.26458333)" />
      <path
         style="fill:#6f7c91;fill-rule:evenodd;stroke:#000000;stroke-width:0.916023;stroke-linecap:round;stroke-linejoin:round;paint-order:stroke markers fill"
         d="m 670.37067,1007.221 c -0.38402,-0.5482 -0.43617,-2.8227 -0.43617,-19.02186 0,-17.79228 0.0179,-18.42098 0.54331,-19.06063 l 0.54331,-0.66147 0.6475,0.63809 0.6475,0.6381 0.0724,18.13464 c 0.0706,17.69073 0.0587,18.15693 -0.48622,19.04523 -0.65884,1.074 -0.94353,1.1275 -1.53163,0.2879 z"
         id="path1232"
         transform="scale(0.26458333)" />
      <path
         style="fill:#6f7c91;fill-rule:evenodd;stroke:#000000;stroke-width:0.916023;stroke-linecap:round;stroke-linejoin:round;paint-order:stroke markers fill"
         d="m 565.73523,1007.1196 c -0.34107,-0.4336 -0.61793,-1.3589 -0.72977,-2.4389 -0.0991,-0.9572 -0.14015,-9.05324 -0.0912,-17.99131 0.0818,-14.9371 0.12926,-16.32465 0.58656,-17.16164 0.63073,-1.15442 1.17611,-1.15442 1.80684,0 0.46168,0.845 0.49753,2.18262 0.49753,18.56259 0,18.27466 -0.0516,19.16426 -1.1361,19.58046 -0.21138,0.081 -0.63163,-0.1669 -0.93388,-0.5512 z"
         id="path1271"
         transform="scale(0.26458333)" />
      <path
         style="fill:#8080ff;fill-rule:evenodd;stroke:#000000;stroke-width:0.916023;stroke-linecap:round;stroke-linejoin:round;paint-order:stroke markers fill"
         d="m 553.75836,1066.7066 c -1.7602,-1.0733 -2.24659,-2.6556 -1.30587,-4.2481 1.1665,-1.9747 4.01336,-2.1681 5.64861,-0.3837 0.82748,0.9029 0.92513,1.166 0.79444,2.1404 -0.17362,1.2944 -0.81634,2.1129 -2.07879,2.6472 -1.22547,0.5187 -2.0185,0.4783 -3.05839,-0.1558 z"
         id="path1347"
         transform="scale(0.26458333)" />
      <path
         style="fill:#8080ff;fill-rule:evenodd;stroke:#000000;stroke-width:0.916023;stroke-linecap:round;stroke-linejoin:round;paint-order:stroke markers fill"
         d="m 502.24073,1066.8233 c -1.24413,-0.6628 -1.80797,-1.5355 -1.815,-2.8091 -0.007,-1.3056 0.53131,-2.2029 1.678,-2.7958 2.62195,-1.3559 5.76383,0.8942 5.01839,3.594 -0.5192,1.8804 -3.11731,2.9507 -4.88139,2.0109 z"
         id="path1386"
         transform="scale(0.26458333)" />
      <path
         style="fill:#0000ff;fill-rule:evenodd;stroke:#000000;stroke-width:0.916023;stroke-linecap:round;stroke-linejoin:round;paint-order:stroke markers fill"
         d="m 552.02778,1058.5383 c 0.0714,-0.2141 0.7103,-0.688 1.41984,-1.0532 1.57058,-0.8082 3.19535,-0.6499 4.35698,0.4246 0.61001,0.5642 0.64712,0.6624 0.19396,0.5131 -1.74345,-0.5744 -3.69873,-0.4727 -5.57199,0.2897 -0.38668,0.1574 -0.49373,0.1106 -0.39879,-0.1742 z"
         id="path1462"
         transform="scale(0.26458333)" />
      <path
         style="fill:#0000ff;fill-rule:evenodd;stroke:#000000;stroke-width:0.916023;stroke-linecap:round;stroke-linejoin:round;paint-order:stroke markers fill"
         d="m 500.39167,1058.47 c 1.05423,-1.1572 2.88788,-1.7482 4.20196,-1.3545 1.00638,0.3015 2.69564,1.3908 2.48441,1.6021 -0.0525,0.053 -0.59504,-0.082 -1.20556,-0.2999 -1.81534,-0.6465 -2.78703,-0.5479 -5.59308,0.5678 -0.49813,0.198 -0.48566,0.1408 0.11227,-0.5155 z"
         id="path1501"
         transform="scale(0.26458333)" />
      <path
         style="fill:#0000ff;fill-rule:evenodd;stroke:#000000;stroke-width:0.916023;stroke-linecap:round;stroke-linejoin:round;paint-order:stroke markers fill"
         d="m 544.96972,1091.0987 c 0,-1.0841 2.0009,-3.6627 3.41841,-4.4054 1.91763,-1.0046 4.50743,-0.047 6.03801,2.2332 0.50084,0.7461 0.91061,1.4631 0.91061,1.5934 0,0.1303 -0.65081,-0.1676 -1.44626,-0.6621 -1.27803,-0.7944 -1.67727,-0.8982 -3.43233,-0.8916 -2.13574,0.01 -3.31826,0.4486 -4.71792,1.7581 -0.42378,0.3965 -0.77052,0.565 -0.77052,0.3744 z"
         id="path1540"
         transform="scale(0.26458333)" />
      <path
         style="fill:#8080ff;fill-opacity:1;fill-rule:evenodd;stroke:#000000;stroke-width:0.916023;stroke-linecap:round;stroke-linejoin:round;paint-order:stroke markers fill"
         d="m 545.24991,1090.5303 c 0,-0.4565 1.67068,-2.5157 2.64236,-3.2568 1.89488,-1.4453 4.69101,-0.6878 6.34733,1.7196 0.49147,0.7143 0.78178,1.2446 0.64513,1.1783 -2.83831,-1.3762 -3.0098,-1.4209 -4.92746,-1.2837 -1.50958,0.108 -2.22042,0.3232 -3.31454,1.0033 -0.76605,0.4762 -1.39282,0.7639 -1.39282,0.6393 z"
         id="path1579"
         transform="scale(0.26458333)" />
      <path
         style="fill:#8080ff;fill-opacity:1;fill-rule:evenodd;stroke:#000000;stroke-width:0.916023;stroke-linecap:round;stroke-linejoin:round;paint-order:stroke markers fill"
         d="m 548.75229,1101.1484 c -4.2695,-2.1278 -2.98214,-9.5278 1.65753,-9.5278 3.66207,0 5.65167,5.1434 3.19682,8.2642 -0.60068,0.7636 -2.49996,1.8048 -3.31331,1.8162 -0.23115,0 -0.92463,-0.2454 -1.54104,-0.5526 z"
         id="path3566"
         transform="scale(0.26458333)" />
      <path
         style="fill:#374548;fill-opacity:1;fill-rule:evenodd;stroke:#000000;stroke-width:0.916023;stroke-linecap:round;stroke-linejoin:round;paint-order:stroke markers fill"
         d="m 612.30792,1092.905 c -13.79523,-2.629 -24.51238,-14.037 -27.885,-29.6823 -0.9028,-4.188 -0.89721,-12.5129 0.0112,-16.7127 2.5137,-11.6211 8.67924,-20.6187 17.80075,-25.9773 2.00765,-1.1794 6.33656,-2.8823 7.32718,-2.8823 0.34501,0 0.41247,3.1413 0.47685,22.2051 0.0711,21.0569 0.10213,22.2596 0.59986,23.2613 0.69522,1.399 1.91793,2.228 3.50363,2.3755 1.70995,0.1591 3.00556,-0.6894 3.95691,-2.5916 l 0.70048,-1.4006 v -21.9949 c 0,-17.5994 -0.0732,-22.1232 -0.36641,-22.6371 l -0.36641,-0.6422 1.48717,0.1749 c 8.59026,1.0105 15.04841,4.1861 20.82723,10.2413 9.11365,9.5495 12.89241,23.7563 9.93294,37.3444 -3.07045,14.0977 -12.96153,25.1351 -25.43277,28.3803 -3.38328,0.8804 -9.42199,1.1389 -12.57364,0.5382 z"
         id="path3642"
         transform="scale(0.26458333)" />
      <path
         style="fill:#374548;fill-opacity:1;fill-rule:evenodd;stroke:#000000;stroke-width:0.916023;stroke-linecap:round;stroke-linejoin:round;paint-order:stroke markers fill"
         d="m 544.10566,1031.302 c -2.86723,-1.9323 -3.93249,-8.8919 -2.00378,-13.0912 l 0.5791,-1.2609 0.0236,4.5658 c 0.0231,4.4593 0.0397,4.5819 0.71135,5.2536 1.0824,1.0824 2.82238,0.834 3.56874,-0.5095 0.21446,-0.386 0.4072,-2.3869 0.50543,-5.2471 l 0.15878,-4.6232 0.74759,1.5411 c 0.88597,1.8263 1.42825,4.8868 1.18582,6.6926 -0.45836,3.4141 -1.73514,6.1331 -3.24708,6.9149 -1.01601,0.5254 -1.11501,0.5149 -2.22956,-0.2361 z"
         id="path3681"
         transform="scale(0.26458333)" />
      <path
         style="fill:#374548;fill-opacity:1;fill-rule:evenodd;stroke:#000000;stroke-width:0.916023;stroke-linecap:round;stroke-linejoin:round;paint-order:stroke markers fill"
         d="m 492.97914,1031.6688 c -0.31663,-0.1268 -0.97286,-0.6829 -1.45828,-1.2357 -1.98901,-2.2654 -2.63833,-7.5042 -1.39835,-11.2822 l 0.63043,-1.9208 0.14009,4.4379 0.1401,4.438 0.78615,0.6755 c 1.25357,1.0772 2.7333,0.8763 3.42706,-0.4652 0.3112,-0.6018 0.41143,-1.9264 0.41616,-5.4998 0.006,-4.6125 0.0165,-4.6938 0.51732,-4.0425 1.11387,1.4484 1.57787,3.3952 1.57787,6.6203 0,3.6762 -0.50907,5.4431 -2.04824,7.109 -1.12479,1.2174 -1.83916,1.5224 -2.73031,1.1655 z"
         id="path3720"
         transform="scale(0.26458333)" />
      <path
         style="fill:#374548;fill-opacity:1;fill-rule:evenodd;stroke:#000000;stroke-width:0.916023;stroke-linecap:round;stroke-linejoin:round;paint-order:stroke markers fill"
         d="m 739.00136,1061.8188 c -2.86978,-1.3449 -5.49415,-5.2533 -6.46872,-9.6338 -0.34358,-1.5444 -0.42801,-2.9 -0.32461,-5.212 0.16688,-3.7314 0.85235,-6.1285 2.37617,-8.3097 2.90791,-4.1623 6.81012,-4.4449 10.39956,-0.7532 l 1.21918,1.2539 -4.4686,3.1023 c -2.45773,1.7063 -4.63286,3.3003 -4.83362,3.5422 -0.52191,0.6289 -0.68478,2.9803 -0.28941,4.1783 0.56209,1.7032 1.57739,2.6881 2.76519,2.6826 0.84161,0 1.78042,-0.5276 5.22826,-2.9159 2.80512,-1.9432 4.27103,-2.8033 4.4087,-2.587 0.34388,0.5404 0.23002,4.6899 -0.18189,6.6284 -1.06093,4.993 -4.21377,8.6658 -7.4486,8.677 -0.53936,0 -1.61109,-0.292 -2.38161,-0.6531 z"
         id="path3759"
         transform="scale(0.26458333)" />
      <path
         style="fill:#ffffff;fill-opacity:1;fill-rule:evenodd;stroke:#000000;stroke-width:0.916023;stroke-linecap:round;stroke-linejoin:round;paint-order:stroke markers fill"
         d="m 739.17208,1048.9991 c -0.16695,-0.4789 -0.20375,-1.0491 -0.0818,-1.267 0.12197,-0.218 2.04314,-1.6602 4.26926,-3.2049 l 4.04749,-2.8085 0.3376,0.7845 c 0.18568,0.4315 0.34329,0.935 0.35024,1.1188 0.01,0.2542 -5.99396,4.6331 -8.27955,6.0389 -0.22243,0.1368 -0.44452,-0.092 -0.64327,-0.6618 z"
         id="path3835"
         transform="scale(0.26458333)" />
      <path
         style="fill:#ffffff;fill-opacity:1;fill-rule:evenodd;stroke:#000000;stroke-width:0.916023;stroke-linecap:round;stroke-linejoin:round;paint-order:stroke markers fill"
         d="m 613.05692,1061.5893 c -0.52976,-1.1673 -0.54874,-1.9394 -0.53942,-21.944 0.007,-15.3135 0.0971,-20.9877 0.34408,-21.7043 0.26498,-0.7688 0.52659,-1.0094 1.2598,-1.1585 0.79352,-0.1613 0.99313,-0.085 1.40095,0.5376 0.43511,0.6639 0.48174,2.5385 0.548,22.0326 0.0675,19.8581 0.0389,21.3736 -0.42029,22.2875 -0.3567,0.71 -0.70681,1.0053 -1.26837,1.0699 -0.67539,0.078 -0.84665,-0.067 -1.32475,-1.1208 z"
         id="path3913"
         transform="scale(0.26458333)" />
      <path
         style="fill:#666666;fill-opacity:1;fill-rule:evenodd;stroke:#000000;stroke-width:0.916023;stroke-linecap:round;stroke-linejoin:round;paint-order:stroke markers fill"
         d="m 614.87715,1100.6951 c -8.83142,-1.2916 -16.45686,-4.6826 -23.01578,-10.235 -6.9104,-5.8499 -11.78952,-14.1764 -13.87652,-23.6811 -0.82085,-3.7383 -0.89135,-11.8668 -0.13561,-15.6357 0.96827,-4.8289 2.88334,-9.9422 5.1303,-13.6981 1.16163,-1.9417 3.51668,-5.2599 3.6433,-5.1333 0.0457,0.046 -0.41357,1.0718 -1.02063,2.2802 -8.27441,16.4707 -5.39294,37.3806 6.93663,50.3368 5.29838,5.5677 11.36778,8.9972 18.62147,10.522 2.84859,0.5988 8.98072,0.6609 11.98244,0.1214 15.0627,-2.7074 27.01578,-15.5454 30.15815,-32.391 0.79094,-4.24 0.72595,-13.5017 -0.12221,-17.4179 -1.97493,-9.1187 -5.45937,-15.6266 -11.71431,-21.8788 -1.88863,-1.8878 -3.36703,-3.4323 -3.28535,-3.4323 0.4906,0 4.81813,2.5226 6.93078,4.0401 9.39451,6.7479 15.77439,17.3224 17.28081,28.6425 0.42544,3.197 0.17705,11.0234 -0.4389,13.829 -3.68328,16.7766 -16.31774,29.3436 -33.26949,33.0917 -1.96312,0.4341 -3.8634,0.5973 -7.781,0.6684 -2.85093,0.052 -5.56177,0.039 -6.02408,-0.029 z"
         id="path3989"
         transform="scale(0.26458333)" />
      <path
         style="fill:#ffffff;fill-opacity:1;fill-rule:evenodd;stroke:#000000;stroke-width:0.916023;stroke-linecap:round;stroke-linejoin:round;paint-order:stroke markers fill"
         d="m 739.27728,1048.7381 c -0.10261,-0.3233 -0.0215,-0.7674 0.18575,-1.0171 0.46306,-0.558 7.80667,-5.7847 7.94009,-5.6513 0.0542,0.054 0.18206,0.4315 0.2842,0.8384 0.16845,0.6712 -0.0183,0.8945 -2.0086,2.4014 -2.83202,2.1443 -5.5909,4.0024 -5.94263,4.0024 -0.15218,0 -0.35864,-0.2582 -0.45881,-0.5738 z"
         id="path4065"
         transform="scale(0.26458333)" />
      <path
         style="fill:#00ff00;fill-opacity:1;fill-rule:evenodd;stroke:#000000;stroke-width:0.916023;stroke-linecap:round;stroke-linejoin:round;paint-order:stroke markers fill"
         d="m 481.72643,1027.387 c -0.70131,-1.2899 -0.70332,-5.3881 -0.003,-6.4567 0.66782,-1.0192 0.90314,-0.9588 1.43411,0.3682 0.62176,1.554 0.57311,4.3207 -0.10212,5.8083 -0.29729,0.655 -0.6065,1.1908 -0.68713,1.1908 -0.0806,0 -0.3694,-0.4098 -0.6417,-0.9106 z"
         id="path4141"
         transform="scale(0.26458333)" />
      <path
         style="fill:#00ff00;fill-opacity:1;fill-rule:evenodd;stroke:#000000;stroke-width:0.916023;stroke-linecap:round;stroke-linejoin:round;paint-order:stroke markers fill"
         d="m 533.30428,1027.1068 c -0.91608,-1.7665 -0.36605,-6.9347 0.73803,-6.9347 1.07622,0 1.61512,4.8109 0.76112,6.7946 -0.55483,1.2888 -0.88735,1.3199 -1.49915,0.1401 z"
         id="path4180"
         transform="scale(0.26458333)" />
      <path
         style="fill:#373e48;fill-opacity:1;fill-rule:evenodd;stroke:#000000;stroke-width:0.916023;stroke-linecap:round;stroke-linejoin:round;paint-order:stroke markers fill"
         d="m 482.55107,1074.2162 c -3.30761,-1.6373 -5.62277,-6.9672 -5.82768,-13.4165 -0.0831,-2.6142 -0.0401,-3.2747 0.16928,-2.6043 0.37019,1.1849 1.25243,1.7637 2.68838,1.7637 1.08983,0 1.22281,0.087 1.89899,1.2407 0.62692,1.0698 0.7271,1.5659 0.7271,3.6007 0,3.6282 0.56011,4.6851 2.48296,4.6851 1.47365,0 2.00008,-1.0418 2.00008,-3.9581 0,-2.4045 0.0304,-2.5213 0.98067,-3.7662 0.53936,-0.7066 0.98066,-1.4012 0.98066,-1.5435 0,-0.1423 0.52774,-0.2587 1.17275,-0.2587 0.81785,0 1.36866,-0.184 1.82013,-0.6082 0.35606,-0.3345 0.69083,-0.5551 0.74393,-0.4903 0.0531,0.065 -0.001,1.2824 -0.12094,2.7058 -0.51186,6.0906 -2.90403,11.1849 -5.943,12.656 -1.526,0.7387 -2.27078,0.7375 -3.77331,-0.01 z"
         id="path4256"
         transform="scale(0.26458333)" />
      <path
         style="fill:#373e48;fill-opacity:1;fill-rule:evenodd;stroke:#000000;stroke-width:0.916023;stroke-linecap:round;stroke-linejoin:round;paint-order:stroke markers fill"
         d="m 477.01401,1053.9014 c 0.30748,-2.0503 1.73759,-5.7009 2.80257,-7.154 1.58224,-2.1588 2.7709,-2.8992 4.65431,-2.8992 1.37495,0 1.76231,0.1246 2.68362,0.8631 2.11878,1.6984 4.09544,5.4324 4.73447,8.9435 0.20009,1.0994 0.19346,1.1114 -0.348,0.6305 -0.3181,-0.2826 -1.01749,-0.4959 -1.65067,-0.5035 -1.00738,-0.012 -1.14679,-0.1109 -1.67724,-1.1908 -1.57165,-3.1994 -5.36334,-3.2321 -6.90466,-0.06 -0.58785,1.2099 -0.66553,1.2635 -1.83164,1.2635 -0.93544,0 -1.38536,0.1676 -1.94068,0.7229 l -0.72292,0.723 z"
         id="path4295"
         transform="scale(0.26458333)" />
      <path
         style="fill:#373e48;fill-opacity:1;fill-rule:evenodd;stroke:#000000;stroke-width:0.916023;stroke-linecap:round;stroke-linejoin:round;paint-order:stroke markers fill"
         d="m 534.46259,1074.2864 c -2.27454,-1.0359 -4.43042,-4.3256 -5.50692,-8.4031 -0.40136,-1.5202 -0.59295,-3.2798 -0.66031,-6.0643 -0.0522,-2.1575 -0.0383,-3.5444 0.0309,-3.0821 0.39098,2.6123 0.92939,3.2222 2.84458,3.2222 1.28429,0 1.35287,0.042 1.93864,1.1908 0.4615,0.905 0.63723,1.8519 0.73217,3.9452 0.14904,3.2861 0.61871,4.1974 2.2346,4.3358 1.81043,0.1551 2.43916,-1.0749 2.46049,-4.8136 0.0103,-1.7985 0.0936,-2.0926 0.84057,-2.9665 0.45605,-0.5335 0.82918,-1.1324 0.82918,-1.3309 0,-0.2385 0.40937,-0.3608 1.2073,-0.3608 1.25639,0 1.85465,-0.312 2.41801,-1.2609 0.26583,-0.4477 0.30029,-0.018 0.17147,2.1402 -0.28746,4.8151 -1.82385,9.3512 -3.9756,11.7376 -1.09403,1.2133 -2.85608,2.2209 -3.88394,2.2209 -0.30821,0 -1.06472,-0.2297 -1.68114,-0.5105 z"
         id="path4412"
         transform="scale(0.26458333)" />
      <path
         style="fill:#0b1728;fill-opacity:1;fill-rule:evenodd;stroke:#000000;stroke-width:0.564881;stroke-linecap:round;stroke-linejoin:round;paint-order:stroke markers fill"
         d="m 484.01606,1060.1443 c -0.27816,-0.3168 -0.60624,-0.935 -0.72906,-1.3737 -0.33722,-1.2044 -0.65749,-1.4051 -2.4035,-1.506 -1.35062,-0.078 -1.4946,-0.1197 -1.4946,-0.432 0,-0.313 0.13021,-0.3498 1.38227,-0.3906 1.85832,-0.061 2.06658,-0.1925 2.49012,-1.5773 0.35161,-1.1496 1.0234,-2.0925 1.4909,-2.0925 0.52851,0 1.61969,1.632 1.63066,2.4389 0.002,0.1535 0.16494,0.4839 0.3619,0.7343 0.33307,0.4235 0.4539,0.4553 1.72784,0.4553 1.34586,0 1.36973,0.01 1.36973,0.4319 0,0.4217 -0.0303,0.432 -1.27258,0.432 -1.47758,0 -2.07809,0.3309 -2.27703,1.2548 -0.23282,1.0812 -1.01101,2.2009 -1.52962,2.2009 -0.1327,0 -0.46886,-0.2592 -0.74703,-0.576 z"
         id="path4664"
         transform="scale(0.26458333)" />
      <path
         style="fill:#0b1728;fill-opacity:1;fill-rule:evenodd;stroke:#000000;stroke-width:0.564881;stroke-linecap:round;stroke-linejoin:round;paint-order:stroke markers fill"
         d="m 535.74887,1060.2358 c -0.2553,-0.2665 -0.62471,-0.9599 -0.82091,-1.5408 -0.19619,-0.581 -0.48781,-1.117 -0.64804,-1.1911 -0.16022,-0.074 -0.95221,-0.1777 -1.75998,-0.2302 -1.32164,-0.086 -1.46866,-0.1301 -1.46866,-0.4411 0,-0.3135 0.14398,-0.3535 1.55505,-0.4319 0.85528,-0.047 1.64464,-0.1446 1.75413,-0.2157 0.10949,-0.071 0.35911,-0.6563 0.55472,-1.3002 0.41339,-1.361 1.14562,-2.2185 1.73479,-2.0315 0.41879,0.1329 1.11609,1.2626 1.37568,2.2287 0.30862,1.1486 0.58247,1.3187 2.12356,1.3187 1.33067,0 1.35549,0.01 1.35549,0.4319 0,0.4217 -0.0303,0.432 -1.27257,0.432 -1.02581,0 -1.36087,0.069 -1.72784,0.3581 -0.2504,0.197 -0.45697,0.4885 -0.45906,0.648 -0.006,0.4398 -0.61098,1.6821 -1.01761,2.0887 -0.47909,0.4791 -0.72398,0.4554 -1.27875,-0.1236 z"
         id="path4703"
         transform="scale(0.26458333)" />
      <path
         style="fill:#373e48;fill-opacity:1;fill-rule:evenodd;stroke:#000000;stroke-width:0.564881;stroke-linecap:round;stroke-linejoin:round;paint-order:stroke markers fill"
         d="m 528.30297,1055.5063 c 1.03439,-6.9759 4.25912,-11.8834 7.81294,-11.8899 2.77065,-0.01 5.62482,3.3051 7.00712,8.1267 0.49791,1.7367 0.75418,3.3595 0.45584,2.8865 -0.32323,-0.5124 -1.147,-0.8206 -2.19517,-0.8213 l -1.00209,-7e-4 -0.33632,-0.8175 c -0.40771,-0.9912 -1.5348,-2.2573 -2.29309,-2.576 -0.79923,-0.3359 -2.0265,-0.2895 -2.8016,0.106 -0.83963,0.4283 -1.81792,1.5615 -2.1906,2.5373 l -0.28701,0.7515 -1.14281,7e-4 c -0.82849,4e-4 -1.29497,0.093 -1.69598,0.3379 -0.55124,0.3361 -1.08829,1.1403 -1.08829,1.6297 0,0.1416 -0.0796,0.3067 -0.17686,0.3668 -0.11634,0.072 -0.13895,-0.1463 -0.0661,-0.6377 z"
         id="path6300"
         transform="scale(0.26458333)" />
      <path
         style="fill:#333333;fill-opacity:1;fill-rule:evenodd;stroke:#000000;stroke-width:0.564881;stroke-linecap:round;stroke-linejoin:round;paint-order:stroke markers fill"
         d="m 743.40268,1094.8305 c -1.63577,-0.5833 -3.32324,-2.3931 -4.07791,-4.3735 -0.45382,-1.1909 -0.6273,-3.7087 -0.34593,-5.0207 0.48216,-2.2482 1.99559,-4.34 3.83454,-5.2999 0.80904,-0.4223 1.13253,-0.4886 2.40353,-0.4921 1.81186,-0.01 2.95044,0.4653 4.20746,1.7386 3.80616,3.8553 2.81785,11.0106 -1.82414,13.2067 -0.89966,0.4256 -1.29631,0.5121 -2.29693,0.5009 -0.66522,-0.01 -1.5205,-0.1244 -1.90062,-0.26 z"
         id="path7965"
         transform="scale(0.26458333)" />
      <path
         style="fill:#373748;fill-opacity:1;fill-rule:evenodd;stroke:#000000;stroke-width:0.564881;stroke-linecap:round;stroke-linejoin:round;paint-order:stroke markers fill"
         d="m 743.33436,1098.6432 c -1.48326,-0.4166 -2.60645,-1.1104 -3.90571,-2.4129 -2.4648,-2.4708 -3.71486,-5.7353 -3.71486,-9.7013 0,-8.338 6.59649,-14.3107 12.6339,-11.4393 2.84516,1.3532 4.97387,4.2168 5.95153,8.0061 0.34538,1.3386 0.43542,5.184 0.14882,6.3562 -0.12053,0.493 -0.16208,0 -0.16848,-1.987 -0.008,-2.3949 -0.0503,-2.7579 -0.45698,-3.891 -0.60174,-1.6768 -1.17046,-2.6075 -2.38963,-3.9108 -1.66389,-1.7787 -3.75753,-2.6992 -6.12965,-2.695 -2.48403,0 -4.07713,0.6937 -5.96686,2.5812 -2.18459,2.1821 -3.1043,4.488 -3.1043,7.783 0,2.1749 0.27495,3.3799 1.20475,5.2798 1.57918,3.2268 4.4674,5.0996 7.86645,5.1007 3.49161,10e-4 6.53195,-2.0953 8.1272,-5.604 0.22311,-0.4908 0.41013,-0.7652 0.41561,-0.6099 0.0175,0.4963 -1.32936,2.9652 -2.20249,4.0372 -2.12543,2.6098 -5.53726,3.8855 -8.3093,3.107 z"
         id="path8041"
         transform="scale(0.26458333)" />
      <path
         style="fill:#373748;fill-opacity:1;fill-rule:evenodd;stroke:#000000;stroke-width:0.564881;stroke-linecap:round;stroke-linejoin:round;paint-order:stroke markers fill"
         d="m 773.52734,1095.5327 c -0.25195,-0.1368 -0.64071,-0.6197 -0.86392,-1.0729 l -0.40584,-0.8242 v -28.4229 c 0,-27.1212 0.0145,-28.4605 0.31596,-29.2418 0.78632,-2.038 2.82516,-2.0652 3.66758,-0.049 0.21447,0.5133 0.24782,4.6239 0.23652,29.1556 -0.01,21.4191 -0.0639,28.6892 -0.21598,29.0826 -0.56571,1.4629 -1.60637,1.9853 -2.73432,1.3726 z"
         id="path8080"
         transform="scale(0.26458333)" />
      <path
         style="fill:#373748;fill-opacity:1;fill-rule:evenodd;stroke:#000000;stroke-width:0.564881;stroke-linecap:round;stroke-linejoin:round;paint-order:stroke markers fill"
         d="m 462.99592,1095.4367 c -0.27328,-0.2154 -0.6409,-0.7088 -0.81693,-1.0964 -0.30738,-0.6767 -0.32018,-1.8317 -0.3229,-29.1276 -0.002,-18.7935 0.0569,-28.6379 0.17336,-29.0573 0.27731,-0.9985 1.03543,-1.6983 1.83977,-1.6983 0.84061,0 1.33625,0.3426 1.82887,1.2641 l 0.38645,0.7229 v 28.5094 c 0,26.9566 -0.0168,28.5529 -0.30859,29.3089 -0.38795,1.0052 -0.78387,1.366 -1.62182,1.4777 -0.51411,0.069 -0.77197,0 -1.15821,-0.3034 z"
         id="path8119"
         transform="scale(0.26458333)" />
      <path
         style="fill:#53676c;fill-opacity:1;fill-rule:evenodd;stroke:#000000;stroke-width:2.26061;stroke-linecap:round;stroke-linejoin:round;paint-order:stroke markers fill"
         d="m 461.92412,1006.1296 c -0.43669,-0.816 -0.7158,-7.84377 -0.7158,-18.02361 0,-10.17984 0.27911,-17.20763 0.7158,-18.0236 0.69735,-1.30302 1.97913,-1.33747 49.76128,-1.33747 47.78214,0 49.06392,0.0344 49.76128,1.33747 0.43668,0.81597 0.71579,7.84376 0.71579,18.0236 0,10.17984 -0.27911,17.20761 -0.71579,18.02361 -0.69736,1.303 -1.97914,1.3375 -49.76128,1.3375 -47.78215,0 -49.06393,-0.034 -49.76128,-1.3375 z"
         id="path8811"
         transform="scale(0.26458333)" />
      <path
         style="fill:#53676c;fill-opacity:1;fill-rule:evenodd;stroke:#000000;stroke-width:2.26061;stroke-linecap:round;stroke-linejoin:round;paint-order:stroke markers fill"
         d="m 571.46561,1006.5967 c -0.18572,-0.484 -0.25457,-9.12083 -0.153,-19.193 l 0.18466,-18.31305 h 47.36547 47.36547 v 19.01534 19.01531 l -47.21246,0.1777 c -37.70882,0.1419 -47.28044,5e-4 -47.55014,-0.7023 z"
         id="path8850"
         transform="scale(0.26458333)" />
      <path
         style="fill:#53676c;fill-opacity:1;fill-rule:evenodd;stroke:#000000;stroke-width:2.26061;stroke-linecap:round;stroke-linejoin:round;paint-order:stroke markers fill"
         d="m 675.87525,1006.5919 c -0.18471,-0.4813 -0.25273,-9.11603 -0.15117,-19.1882 l 0.18467,-18.31305 49.39619,-0.17751 c 39.05942,-0.14036 49.51165,0.004 49.94789,0.69147 0.63887,1.0063 0.78102,35.13249 0.15315,36.76869 -0.3773,0.9832 -5.41015,1.0938 -49.80731,1.0938 -39.19795,0 -49.45688,-0.1806 -49.72342,-0.8752 z"
         id="path8889"
         transform="scale(0.26458333)" />
    </g>
  </g>
</svg>
