<?xml version="1.0" encoding="UTF-8" standalone="no"?>
<!-- Created with Inkscape (http://www.inkscape.org/) -->

<svg
   width="210mm"
   height="297mm"
   viewBox="0 0 210 297"
   version="1.1"
   id="svg5"
   inkscape:version="1.1.2 (0a00cf5339, 2022-02-04, custom)"
   sodipodi:docname="2 mic audio interface.svg"
   xmlns:inkscape="http://www.inkscape.org/namespaces/inkscape"
   xmlns:sodipodi="http://sodipodi.sourceforge.net/DTD/sodipodi-0.dtd"
   xmlns="http://www.w3.org/2000/svg"
   xmlns:svg="http://www.w3.org/2000/svg">
  <sodipodi:namedview
     id="namedview7"
     pagecolor="#ffffff"
     bordercolor="#666666"
     borderopacity="1.0"
     inkscape:pageshadow="2"
     inkscape:pageopacity="0.0"
     inkscape:pagecheckerboard="0"
     inkscape:document-units="mm"
     showgrid="false"
     inkscape:zoom="1.5488348"
     inkscape:cx="555.25613"
     inkscape:cy="123.64134"
     inkscape:window-width="1680"
     inkscape:window-height="956"
     inkscape:window-x="-11"
     inkscape:window-y="-11"
     inkscape:window-maximized="1"
     inkscape:current-layer="layer1" />
  <defs
     id="defs2">
    <inkscape:path-effect
       effect="spiro"
       id="path-effect1642"
       is_visible="true"
       lpeversion="1" />
    <inkscape:path-effect
       effect="spiro"
       id="path-effect1525"
       is_visible="true"
       lpeversion="1" />
    <inkscape:path-effect
       effect="skeletal"
       id="path-effect1521"
       is_visible="true"
       lpeversion="1"
       pattern="m 105.24064,180.3497 a 9.3049065,7.6477915 0 0 1 -9.304903,7.6478 9.3049065,7.6477915 0 0 1 -9.304906,-7.6478 9.3049065,7.6477915 0 0 1 9.304906,-7.64779 9.3049065,7.6477915 0 0 1 9.304903,7.64779 z m 3.42813,-0.62008 a 12.855461,11.368339 0 0 1 -12.855465,11.36834 12.855461,11.368339 0 0 1 -12.855461,-11.36834 12.855461,11.368339 0 0 1 12.855461,-11.36834 12.855461,11.368339 0 0 1 12.855465,11.36834 z"
       copytype="repeated_stretched"
       prop_scale="1"
       scale_y_rel="false"
       spacing="0"
       normal_offset="0"
       tang_offset="0"
       prop_units="false"
       vertical_pattern="false"
       hide_knot="false"
       fuse_tolerance="0" />
  </defs>
  <g
     inkscape:label="Layer 1"
     inkscape:groupmode="layer"
     id="layer1">
    <path
       id="path4070"
       style="fill:none;fill-rule:evenodd;stroke:#000000;stroke-width:0.645825;stroke-linecap:round;stroke-linejoin:round;stroke-miterlimit:4;stroke-dasharray:none;stroke-opacity:0.955017;paint-order:stroke markers fill"
       d="m 31.865087,29.99385 a 1.5941543,1.7189101 0 0 1 -1.594162,1.71891 1.5941543,1.7189101 0 0 1 -1.594168,-1.71891 1.5941543,1.7189101 0 0 1 1.594168,-1.718913 1.5941543,1.7189101 0 0 1 1.594162,1.718913 z m -0.260866,0.506054 a 1.2898157,1.2164594 0 0 1 -1.289823,1.216461 1.2898157,1.2164594 0 0 1 -1.289819,-1.216461 1.2898157,1.2164594 0 0 1 1.289819,-1.21646 1.2898157,1.2164594 0 0 1 1.289823,1.21646 z M 25.351196,19.949626 a 0.70581213,1.4467282 0 0 1 -0.70581,1.446729 0.70581213,1.4467282 0 0 1 -0.705811,-1.446729 0.70581213,1.4467282 0 0 1 0.705811,-1.446727 0.70581213,1.4467282 0 0 1 0.70581,1.446727 z m 2.113348,-2.757718 h 0.154816 c 0.105978,0 0.191295,0.180437 0.191295,0.404566 v 2.462685 c 0,0.224132 -0.08532,0.404566 -0.191295,0.404566 h -0.154816 c -0.105977,0 -0.191293,-0.180434 -0.191293,-0.404566 v -2.462685 c 0,-0.224129 0.08532,-0.404566 0.191293,-0.404566 z m 1.668761,2.572262 a 1.4936349,2.5905373 0 0 1 -1.49364,2.590539 1.4936349,2.5905373 0 0 1 -1.493643,-2.590539 1.4936349,2.5905373 0 0 1 1.493643,-2.590536 1.4936349,2.5905373 0 0 1 1.49364,2.590536 z m -3.854479,7.414911 a 0.8153251,1.4029095 0 0 0 -0.775882,0.973606 h -0.755109 c -0.135504,0 -0.244597,0.206022 -0.244597,0.461935 0,0.255911 0.109093,0.461935 0.244597,0.461935 h 0.768373 a 0.8153251,1.4029095 0 0 0 0.451294,0.801272 v 1.289054 c 0,0.255909 0.109097,0.461936 0.244603,0.461936 0.135504,0 0.244572,-0.206027 0.244572,-0.461936 v -1.215976 a 0.8153251,1.4029095 0 0 0 0.584773,-0.87435 h 0.702591 c 0.135506,0 0.244602,-0.206024 0.244602,-0.461935 0,-0.255913 -0.109096,-0.461935 -0.244602,-0.461935 h -0.689062 a 0.8153251,1.4029095 0 0 0 -0.776153,-0.973606 z m 2.78541,2.035934 a 2.930349,5.1405972 0 0 1 -2.930349,5.140593 2.930349,5.1405972 0 0 1 -2.930351,-5.140593 2.930349,5.1405972 0 0 1 2.930351,-5.1406 2.930349,5.1405972 0 0 1 2.930349,5.1406 z m -0.393783,0.01712 a 2.4731529,4.4824666 0 0 1 -2.473156,4.482465 2.4731529,4.4824666 0 0 1 -2.473149,-4.482466 2.4731529,4.4824666 0 0 1 2.473149,-4.482467 2.4731529,4.4824666 0 0 1 2.473156,4.482468 z m 3.119046,9.191931 a 1.8657401,2.3995257 0 0 1 -1.865741,2.399528 1.8657401,2.3995257 0 0 1 -1.86574,-2.399528 1.8657401,2.3995257 0 0 1 1.86574,-2.399524 1.8657401,2.3995257 0 0 1 1.865741,2.399524 z m -0.3053,0.706432 A 1.5095532,1.6981259 0 0 1 28.974646,40.828625 1.5095532,1.6981259 0 0 1 27.465085,39.1305 1.5095532,1.6981259 0 0 1 28.974646,37.432372 1.5095532,1.6981259 0 0 1 30.484199,39.1305 Z M 18.194856,29.99385 a 1.5941543,1.7189101 0 0 1 -1.594151,1.71891 1.5941543,1.7189101 0 0 1 -1.594154,-1.71891 1.5941543,1.7189101 0 0 1 1.594154,-1.718913 1.5941543,1.7189101 0 0 1 1.594151,1.718913 z m -0.26086,0.506054 a 1.2898157,1.2164594 0 0 1 -1.289812,1.216461 1.2898157,1.2164594 0 0 1 -1.289818,-1.216461 1.2898157,1.2164594 0 0 1 1.289818,-1.21646 1.2898157,1.2164594 0 0 1 1.289812,1.21646 z M 11.681,19.949626 a 0.70581213,1.4467282 0 0 1 -0.705818,1.446729 0.70581213,1.4467282 0 0 1 -0.70581,-1.446729 0.70581213,1.4467282 0 0 1 0.70581,-1.446727 0.70581213,1.4467282 0 0 1 0.705818,1.446727 z m 2.113344,-2.757718 h 0.154807 c 0.105979,0 0.191301,0.180437 0.191301,0.404566 v 2.462685 c 0,0.224132 -0.08532,0.404566 -0.191301,0.404566 h -0.154807 c -0.10598,0 -0.191297,-0.180434 -0.191297,-0.404566 v -2.462685 c 0,-0.224129 0.08532,-0.404566 0.191297,-0.404566 z m 1.668752,2.572262 a 1.4936349,2.5905373 0 0 1 -1.493639,2.590539 1.4936349,2.5905373 0 0 1 -1.493632,-2.590539 1.4936349,2.5905373 0 0 1 1.493632,-2.590536 1.4936349,2.5905373 0 0 1 1.493639,2.590536 z m -3.854467,7.414911 a 0.8153251,1.4029095 0 0 0 -0.775887,0.973606 h -0.755103 c -0.1355113,0 -0.2446028,0.206022 -0.2446028,0.461935 0,0.255911 0.1090915,0.461935 0.2446028,0.461935 h 0.768371 a 0.8153251,1.4029095 0 0 0 0.451296,0.801272 v 1.289054 c 0,0.255909 0.109089,0.461936 0.244595,0.461936 0.135511,0 0.244581,-0.206027 0.244581,-0.461936 v -1.215976 a 0.8153251,1.4029095 0 0 0 0.584766,-0.87435 h 0.702591 c 0.135511,0 0.244601,-0.206024 0.244601,-0.461935 0,-0.255913 -0.10909,-0.461935 -0.244601,-0.461935 h -0.689063 a 0.8153251,1.4029095 0 0 0 -0.776147,-0.973606 z m 2.785405,2.035934 a 2.930349,5.1405972 0 0 1 -2.93035,5.140593 2.930349,5.1405972 0 0 1 -2.9303507,-5.140593 2.930349,5.1405972 0 0 1 2.9303507,-5.1406 2.930349,5.1405972 0 0 1 2.93035,5.1406 z m -0.393782,0.01712 a 2.4731529,4.4824666 0 0 1 -2.473156,4.482459 2.4731529,4.4824666 0 0 1 -2.4731498,-4.482466 2.4731529,4.4824666 0 0 1 2.4731498,-4.482466 2.4731529,4.4824666 0 0 1 2.473156,4.482468 z m -7.9860012,-6.89532 h 0.1766468 c 0.4586917,0 0.8279681,0.524316 0.8279681,1.175592 V 38.07419 c 0,0.651278 -0.3692764,1.17559 -0.8279681,1.17559 H 6.0142508 c -0.4586917,0 -0.8279623,-0.524312 -0.8279623,-1.17559 V 23.512406 c 0,-0.651276 0.3692706,-1.175591 0.8279623,-1.175591 z m 82.1389882,0 h 0.176645 c 0.458686,0 0.827971,0.524316 0.827971,1.175592 V 38.07419 c 0,0.651278 -0.369285,1.17559 -0.827971,1.17559 h -0.176645 c -0.458693,0 -0.827957,-0.524312 -0.827957,-1.17559 V 23.512406 c 0,-0.651276 0.369264,-1.175591 0.827957,-1.175591 z M 62.432583,4.8365585 h 25.737826 c 0.458963,0 0.828436,0.5246154 0.828436,1.1762625 v 8.80513 c 0,0.651647 -0.369473,1.176258 -0.828436,1.176258 H 62.432583 c -0.458949,0 -0.828433,-0.524611 -0.828433,-1.176258 v -8.80513 c 0,-0.6516471 0.369484,-1.1762625 0.828433,-1.1762625 z m -27.578029,-0.00396 h 24.544659 c 0.459279,0 0.829018,0.5249814 0.829018,1.1770916 v 8.8113139 c 0,0.652109 -0.369739,1.177088 -0.829018,1.177088 H 34.854554 c -0.459278,0 -0.829021,-0.524979 -0.829021,-1.177088 V 6.0097279 c 0,-0.6521075 0.369743,-1.1770865 0.829021,-1.1770865 z m 26.055421,0.07057 c 0.408811,0 0.737927,0.5276884 0.737927,1.1831551 v 8.7215184 c 0,0.655468 -0.329116,1.183154 -0.737927,1.183154 -0.408813,0 -0.737928,-0.527686 -0.737928,-1.183154 V 6.086391 c 0,-0.6554702 0.329115,-1.1831589 0.737928,-1.1831589 z m -27.693667,0 c 0.408812,0 0.737928,0.5276884 0.737928,1.1831551 v 8.7215184 c 0,0.655468 -0.329116,1.183154 -0.737928,1.183154 -0.408815,0 -0.737929,-0.527686 -0.737929,-1.183154 V 6.086391 c 0,-0.6554702 0.329114,-1.1831589 0.737929,-1.1831589 z M 61.114799,15.99106 h 27.204533 c 0.4587,0 0.827957,0.524315 0.827957,1.175593 V 41.95474 c 0,0.651278 -0.369257,1.175593 -0.827957,1.175593 H 61.114799 c -0.458693,0 -0.827966,-0.524315 -0.827966,-1.175593 V 17.166628 c 0,-0.651279 0.369273,-1.175593 0.827966,-1.175593 z m -27.693663,0 h 27.204537 c 0.458685,0 0.827958,0.524315 0.827958,1.175593 V 41.95474 c 0,0.651278 -0.369273,1.175593 -0.827958,1.175593 H 33.421136 c -0.458693,0 -0.827963,-0.524315 -0.827963,-1.175593 V 17.166628 c 0,-0.651279 0.36927,-1.175593 0.827963,-1.175593 z m -27.4581827,0 H 33.16748 c 0.458692,0 0.827969,0.524315 0.827969,1.175593 V 41.95474 c 0,0.651278 -0.369277,1.175593 -0.827969,1.175593 H 5.9629533 c -0.4586917,0 -0.8279674,-0.524315 -0.8279674,-1.175593 V 17.166628 c 0,-0.651279 0.3692757,-1.175593 0.8279674,-1.175593 z m 39.9315237,1.541362 c 0.458693,0 0.827962,0.524314 0.827962,1.175589 v 10.681073 c 0,0.651278 -0.369269,1.17559 -0.827962,1.17559 -0.458691,0 -0.827962,-0.524312 -0.827962,-1.17559 V 18.707985 c 0,-0.651278 0.369271,-1.175589 0.827962,-1.175589 z M 59.070933,29.086754 A 11.68612,11.554357 0 0 1 47.384812,40.641115 11.68612,11.554357 0 0 1 35.698691,29.086758 11.68612,11.554357 0 0 1 47.384812,17.5324 11.68612,11.554357 0 0 1 59.070933,29.086758 Z m -3.02798,-1.007649 A 9.3205092,10.546711 0 0 1 46.722439,38.625818 9.3205092,10.546711 0 0 1 37.401932,28.079109 9.3205092,10.546711 0 0 1 46.722439,17.532397 9.3205092,10.546711 0 0 1 56.042953,28.079109 Z M 5.8665627,4.8365585 H 31.604389 c 0.458957,0 0.828441,0.5246154 0.828441,1.1762625 v 8.80513 c 0,0.651647 -0.369484,1.176258 -0.828441,1.176258 H 5.8665627 c -0.4589501,0 -0.8284345,-0.524611 -0.8284345,-1.176258 v -8.80513 c 0,-0.6516471 0.3694844,-1.1762625 0.8284345,-1.1762625 z M 82.611413,36.679195 a 2.0722215,2.4182664 0 0 1 -2.072221,2.418268 2.0722215,2.4182664 0 0 1 -2.072221,-2.418268 2.0722215,2.4182664 0 0 1 2.072221,-2.418266 2.0722215,2.4182664 0 0 1 2.072221,2.418266 z m 0.763449,-0.196072 a 2.8629371,3.5947204 0 0 1 -2.862938,3.594719 2.8629371,3.5947204 0 0 1 -2.862933,-3.594719 2.8629371,3.5947204 0 0 1 2.862933,-3.594722 2.8629371,3.5947204 0 0 1 2.862938,3.594722 z m -1.902073,-12.004362 0.128423,0.375075 c 0.08793,0.25677 -0.0033,0.575361 -0.204676,0.714334 l -2.212025,1.526972 c -0.201315,0.138971 -0.434169,0.04413 -0.522093,-0.212637 L 78.533989,26.50743 c -0.08791,-0.256764 0.0033,-0.575361 0.204689,-0.714328 l 2.21201,-1.526975 c 0.201329,-0.13897 0.434184,-0.04413 0.522101,0.212634 z m -0.926034,5.638015 a 3.9672855,2.6241835 85.144154 0 1 -3.566002,-2.012578 3.9672855,2.6241835 85.144154 0 1 1.087728,-5.22507 3.9672855,2.6241835 85.144154 0 1 3.565996,2.012576 3.9672855,2.6241835 85.144154 0 1 -1.087722,5.225072 z" />
    <path
       style="fill:#000000;stroke-width:0.264583"
       d="m 118.85523,42.405551 c -0.29702,-0.35782 -0.36185,-2.778328 -0.35609,-13.295311 0.004,-7.071817 0.0207,-13.095973 0.0374,-13.387015 0.0167,-0.291042 -0.0213,-2.835896 -0.0845,-5.655233 -0.10198,-4.5520656 -0.0645,-5.1816436 0.33433,-5.6223956 0.42781,-0.472722 1.07569,-0.496329 13.62172,-0.496329 8.51998,0 13.23046,0.0937 13.33651,0.265299 0.10305,0.16674 0.33255,0.175075 0.61776,0.02243 0.27629,-0.147867 0.62533,-0.146866 0.89234,0.0026 0.27818,0.155677 0.49909,0.147473 0.6041,-0.02243 0.23349,-0.377802 25.44094,-0.368404 25.67454,0.0096 0.11294,0.182739 0.27821,0.188839 0.48421,0.01787 0.19482,-0.161681 5.55879,-0.269445 14.22462,-0.285778 11.82032,-0.02228 13.9595,0.03117 14.22867,0.35549 0.22106,0.266363 0.32709,2.047837 0.35089,5.8953256 0.0188,3.032489 0.0747,11.395367 0.12437,18.584174 0.0824,11.927923 0.0515,13.113336 -0.35258,13.559894 -0.42724,0.472098 -1.90388,0.489338 -41.90902,0.489338 -38.24596,0 -41.49438,-0.03397 -41.8293,-0.437465 z m 27.00334,-6.375556 c -0.0124,-4.367958 -0.0982,-6.118576 -0.28127,-5.741768 -0.66528,1.369383 -2.5685,1.465255 -3.25284,0.16386 l -0.37122,-0.705946 -0.19259,0.79375 c -0.37794,1.557624 -1.18302,2.790108 -2.11187,3.23305 -0.84436,0.402643 -0.98592,0.403516 -1.80871,0.01116 -1.42567,-0.679865 -2.15142,-2.449549 -2.14425,-5.22859 0.006,-2.449012 0.58674,-4.048996 1.76932,-4.877307 1.89414,-1.326709 4.44259,1.069276 4.44259,4.176811 v 0.792738 l 0.61236,-0.575288 c 1.07309,-1.008115 2.66085,-0.633493 3.16868,0.74763 0.0803,0.218281 0.15533,-2.682871 0.16682,-6.447005 l 0.0209,-6.843879 -0.59532,0.159538 c -0.32742,0.08774 -6.34007,0.161163 -13.36145,0.16315 l -12.76615,0.0036 v 2.778125 c 0,2.574714 0.0376,2.778125 0.51416,2.778125 0.28279,0 0.69951,0.264617 0.92605,0.588038 0.34967,0.499224 0.41187,1.740648 0.41187,8.219477 0,4.754568 -0.10325,7.824364 -0.27389,8.143211 -0.15706,0.293473 -0.55207,0.511773 -0.92604,0.511773 -0.61861,0 -0.65215,0.07937 -0.65215,1.543402 0,0.848873 0.0794,1.622779 0.17639,1.719792 0.097,0.09701 6.10967,0.176389 13.36146,0.176389 h 13.18507 l -0.0179,-6.283854 z m -4.72016,3.796319 c -1.9318,-2.056308 0.22805,-5.765168 2.49308,-4.281067 0.81969,0.53708 1.22343,1.982986 0.89046,3.188928 -0.46916,1.699135 -2.26786,2.279724 -3.38354,1.092139 z m 2.11192,-3.116527 c 0.77481,0.482089 0.93416,0.207909 0.26694,-0.459306 -0.69121,-0.691216 -1.19899,-0.697191 -1.87413,-0.02205 -0.78239,0.782391 -0.64226,1.098433 0.25851,0.583007 0.66845,-0.382495 0.87259,-0.397881 1.34868,-0.101653 z m -19.55954,-3.267004 c -1.09324,-0.919895 -1.76067,-2.784223 -1.74964,-4.887267 0.0162,-3.083816 1.30145,-5.291666 3.08053,-5.291666 1.6331,0 2.54743,1.147723 3.14902,3.952864 0.28127,1.311479 0.31559,1.353309 0.68161,0.830743 0.26201,-0.374073 0.67384,-0.550274 1.28615,-0.550274 1.80963,0 2.62214,2.027431 1.33025,3.319317 -0.84679,0.846791 -1.60072,0.821237 -2.50692,-0.08496 l -0.73439,-0.734397 -0.31186,1.166004 c -0.37924,1.417912 -1.81311,2.948622 -2.7621,2.948622 -0.36719,0 -1.02538,-0.301043 -1.46265,-0.668983 z m 2.77365,-1.652283 c 0.57733,-0.858827 1.08227,-2.867528 0.79344,-3.156361 -0.36781,-0.367806 -1.45924,0.744186 -1.53874,1.567721 -0.055,0.569621 -0.24065,0.892675 -0.54631,0.950576 -0.36509,0.06916 -0.46388,-0.09826 -0.46707,-0.791582 -0.005,-1.071582 -0.21288,-1.409398 -0.98814,-1.605338 -0.5313,-0.134282 -0.59531,-0.05242 -0.59531,0.761353 0,0.991114 0.83924,2.873219 1.38199,3.09929 0.71303,0.296994 1.39998,0.0076 1.96014,-0.825659 z m 4.43096,-3.551536 c -0.17361,-0.280911 -0.9321,-0.264093 -1.39823,0.031 -0.25447,0.161105 -0.0716,0.226999 0.57881,0.208562 0.52295,-0.01482 0.89169,-0.122628 0.81942,-0.239565 z m -6.42644,-1.431831 c 0.40075,-0.482876 1.15067,-0.469164 1.56377,0.02859 0.18115,0.218281 0.5063,0.396875 0.72253,0.396875 0.54166,0 0.21507,-1.259094 -0.53499,-2.062554 -1.0328,-1.106329 -2.52851,-0.312181 -2.97777,1.58105 -0.14709,0.619833 -0.0997,0.691192 0.37627,0.566721 0.29949,-0.07832 0.68208,-0.308129 0.85019,-0.510684 z m 1.9006,-5.582168 c -0.29383,-0.448433 -0.46913,-1.218997 -0.46913,-2.062157 0,-1.745984 0.63895,-2.778125 1.7198,-2.778125 1.08434,0 1.70089,1.007024 1.70089,2.778125 0,1.771101 -0.61655,2.778125 -1.70089,2.778125 -0.55756,0 -0.916,-0.205196 -1.25067,-0.715968 z m 2.03511,-0.324971 c 0.34415,-0.64306 0.35005,-2.665133 0.009,-3.192394 -0.18537,-0.286841 -0.25761,-0.04613 -0.26054,0.8682 -0.003,0.913242 -0.12185,1.310279 -0.42763,1.427616 -0.54662,0.209761 -0.88324,-0.338417 -0.92237,-1.502066 l -0.0311,-0.926042 -0.21031,0.890319 c -0.19364,0.819776 -0.0197,2.007753 0.39144,2.672938 0.27961,0.45241 1.15878,0.307881 1.45123,-0.238571 z m 11.64433,0.313335 c -0.47618,-0.603374 -0.55575,-0.985666 -0.46606,-2.239043 0.12049,-1.683737 0.70996,-2.589603 1.68513,-2.589603 0.97752,0 1.69799,1.178772 1.69799,2.778125 0,2.463666 -1.66651,3.635124 -2.91706,2.050521 z m 2.06147,-0.597656 c 0.39258,-0.742832 0.28354,-2.792206 -0.17284,-3.248583 -0.21626,-0.216265 -0.29449,0.111266 -0.29449,1.233035 0,1.311862 -0.0654,1.515123 -0.46302,1.439683 -0.34245,-0.06497 -0.50055,-0.431724 -0.60715,-1.408463 l -0.14413,-1.32062 -0.21572,0.990448 c -0.50985,2.340903 0.9453,4.115982 1.89735,2.3145 z m -18.1851,0.01974 c -0.69286,-1.294618 0.0232,-3.343823 0.96738,-2.768573 0.57417,0.349806 0.80003,2.336675 0.33,2.903025 -0.4366,0.526068 -0.97367,0.47041 -1.29738,-0.134452 z m 13.76424,0.133239 c -0.36216,-0.436386 -0.44178,-1.604732 -0.1681,-2.467009 0.23276,-0.733367 1.09223,-0.781582 1.46649,-0.08227 0.82765,1.546473 -0.29739,3.7554 -1.29839,2.549277 z m 35.96811,8.249887 V 15.723225 h -12.89843 -12.89844 v 13.295281 13.295282 l 12.89844,3e-5 12.89843,3.1e-5 z m -14.28749,11.165579 c -4.31273,-0.555194 -7.99215,-3.47803 -9.64264,-7.659852 -0.70713,-1.791655 -0.84373,-5.10884 -0.28896,-7.017189 0.63621,-2.188492 1.32437,-3.438546 2.70613,-4.915764 3.13153,-3.347856 7.23573,-4.58663 11.70548,-3.533078 3.42138,0.806444 6.46324,3.330807 8.01852,6.65437 2.10215,4.492188 0.80485,10.408006 -2.99694,13.666392 -1.45843,1.249974 -4.00091,2.481609 -5.54655,2.686881 -2.23448,0.296754 -2.50542,0.304856 -3.95504,0.11824 z m 5.08187,-1.04057 c 7.75319,-2.394717 10.41725,-12.190927 4.93324,-18.140374 -0.89555,-0.971559 -3.29726,-2.766407 -3.70176,-2.766407 -0.0674,0 0.42247,0.580588 1.08869,1.290197 4.1761,4.448104 4.15149,11.648449 -0.0546,15.969404 -1.83122,1.881238 -3.77283,2.699969 -6.42141,2.707767 -1.7922,0.0053 -2.34945,-0.107892 -3.63523,-0.738243 -4.09329,-2.006743 -6.58839,-7.0231 -5.81492,-11.690824 0.15694,-0.947162 0.59228,-2.405678 0.9674,-3.241145 0.56975,-1.268922 0.59446,-1.410122 0.15009,-0.857573 -1.80192,2.240575 -2.66249,5.612643 -2.16812,8.495584 1.18002,6.881353 7.96919,11.037148 14.65661,8.971614 z m -0.91449,-2.132658 c 2.76309,-1.199636 5.08452,-4.460372 5.6426,-7.925737 0.86313,-5.359552 -2.76308,-10.896321 -7.69332,-11.746718 l -0.92604,-0.159729 0.08,5.766899 c 0.0877,6.319387 -0.0492,7.197411 -1.12253,7.197411 -0.38044,0 -0.77439,-0.216186 -0.93259,-0.511772 -0.16451,-0.307396 -0.27389,-2.790437 -0.27389,-6.217709 0,-4.219471 -0.0816,-5.705935 -0.31334,-5.705935 -0.77208,0 -2.65064,1.193013 -3.78038,2.400802 -0.67923,0.726145 -1.55405,2.001071 -1.94405,2.833168 -0.64027,1.366042 -0.7091,1.808271 -0.7091,4.555613 0,2.741818 0.0696,3.191195 0.7039,4.544258 0.77164,1.646053 2.45456,3.623747 3.78148,4.443828 2.14979,1.328645 5.15216,1.539417 7.48721,0.525621 z m 38.68581,4.791186 c 0.15064,-0.281474 0.27389,-1.05538 0.27389,-1.719791 0,-1.084152 -0.0624,-1.208019 -0.60854,-1.208019 -1.21933,0 -1.24355,-0.168121 -1.24355,-8.632976 0,-6.918109 0.0561,-8.054113 0.41578,-8.41375 0.22867,-0.228675 0.64539,-0.415773 0.92604,-0.415773 0.46748,0 0.50993,-0.205204 0.50622,-2.447396 -0.002,-1.346068 -0.0987,-2.596522 -0.21446,-2.778787 -0.16312,-0.256904 -3.22491,-0.346109 -13.62205,-0.396875 l -13.41163,-0.06548 5e-5,13.295312 5e-5,13.295312 h 13.35215 c 12.93009,0 13.36081,-0.01617 13.62605,-0.511773 z m -9.66916,-2.368396 c -1.04118,-0.634907 -1.69862,-2.024049 -1.69862,-3.589102 0,-2.271765 1.34967,-3.849478 3.29308,-3.849478 1.81887,0 3.12252,1.567624 3.14341,3.77993 0.0158,1.671693 -0.59049,2.930302 -1.75298,3.639113 -1.06419,0.648877 -1.94341,0.654632 -2.98489,0.01953 z m 2.78009,-2.050304 c 1.50132,-1.908617 -0.65083,-4.399042 -2.42819,-2.809848 -0.58162,0.520046 -0.60968,2.121527 -0.0511,2.918949 0.58395,0.833707 1.77909,0.781116 2.47933,-0.109101 z m -3.62963,-7.654719 c -1.48754,-1.041911 -2.18417,-4.650493 -1.24746,-6.461885 1.39315,-2.694065 4.41264,-1.729957 5.16915,1.650483 0.75201,3.360331 -1.69943,6.367933 -3.92169,4.811402 z m 2.23059,-0.501145 c 0.74708,-0.523282 1.20736,-1.725035 1.10552,-2.886457 l -0.0842,-0.959618 -1.16105,0.770951 c -1.25118,0.830794 -1.74847,0.824336 -1.97073,-0.02559 -0.14757,-0.564313 0.3354,-1.170605 1.80887,-2.270729 l 0.79375,-0.592632 -0.62463,-0.528959 c -2.18707,-1.852106 -4.1976,2.03015 -2.67752,5.1702 0.7421,1.532993 1.79932,2.030699 2.80994,1.322837 z m -46.73592,-0.275121 c 0,-11.928612 -0.10604,-14.051988 -0.63315,-12.67836 -0.20976,0.546634 -0.20976,24.810088 0,25.35672 0.52711,1.373629 0.63315,-0.749747 0.63315,-12.67836 z m 27.51667,0 c 0,-8.378472 -0.0918,-12.832291 -0.26459,-12.832291 -0.17275,0 -0.26458,4.453819 -0.26458,12.832291 0,8.378473 0.0918,12.832292 0.26458,12.832292 0.17276,0 0.26459,-4.453819 0.26459,-12.832292 z m -54.51348,8.880936 c 0.1695,-0.316707 0.2739,-3.247938 0.2739,-7.690311 0,-7.345324 -0.14762,-8.583532 -0.9445,-7.922186 -0.31237,0.259245 -0.37842,1.663076 -0.37842,8.042778 0,4.250793 0.0794,7.80809 0.17639,7.905102 0.30413,0.30413 0.58896,0.194659 0.87263,-0.335383 z m 82.13413,0.09326 c 0.0883,-0.230182 0.1606,-3.690821 0.1606,-7.69031 0,-7.43906 -0.14601,-8.67813 -0.9445,-8.015444 -0.31237,0.259245 -0.37842,1.663076 -0.37842,8.042778 0,4.250793 0.0794,7.80809 0.17639,7.905102 0.31276,0.312758 0.82089,0.18797 0.98593,-0.242126 z M 139.38382,32.62393 c 0.62002,-0.237927 1.46557,-2.040022 1.46557,-3.123525 0,-0.773871 -0.077,-0.899379 -0.46302,-0.754541 -0.69139,0.25943 -1.10663,0.909506 -1.11606,1.747284 -0.006,0.566184 -0.1205,0.725765 -0.47144,0.659259 -0.32494,-0.06158 -0.48774,-0.386818 -0.54591,-1.090648 -0.0632,-0.765358 -0.22902,-1.05846 -0.69985,-1.237472 -0.33934,-0.129014 -0.67959,-0.391093 -0.75612,-0.582398 -0.31961,-0.798906 -0.12732,1.589445 0.2024,2.513958 0.6078,1.704203 1.3323,2.271819 2.38443,1.868083 z m 4.94828,-4.187014 c 0.37018,0.117489 0.49261,0.0787 0.37127,-0.117634 -0.27304,-0.441792 -1.35967,-0.351439 -1.77106,0.147263 -0.32983,0.399826 -0.30762,0.410613 0.24218,0.117634 0.33292,-0.177407 0.85385,-0.243675 1.15761,-0.147263 z m -6.0176,-1.80662 c 0.34854,-0.348545 0.57446,-0.391029 0.96577,-0.18161 0.28093,0.150353 0.51079,0.374355 0.51079,0.497784 0,0.123428 0.24894,0.289516 0.55321,0.369083 0.48584,0.127049 0.53272,0.05831 0.38494,-0.564454 -0.65158,-2.74576 -3.05164,-2.753825 -3.79326,-0.01275 -0.25418,0.939493 -0.24677,0.9541 0.33179,0.653939 0.32548,-0.16886 0.79652,-0.511759 1.04676,-0.761996 z m 7.23684,-16.7940466 -0.0717,-5.225521 -12.96458,-0.0693 c -11.95322,-0.06389 -12.99039,-0.03414 -13.29531,0.381299 -0.3464,0.47194 -0.49352,8.8777926 -0.17013,9.7205236 0.14347,0.373896 1.56857,0.418515 13.36705,0.418515 h 13.20645 z m 1.64805,-0.103809 c 0,-3.909093 -0.0739,-5.008944 -0.33073,-4.923515 -0.24445,0.08131 -0.34964,1.344402 -0.40321,4.8418 -0.0737,4.8128386 -0.006,5.5728106 0.46749,5.2799076 0.16377,-0.101217 0.26645,-2.104384 0.26645,-5.1981926 z m 26.1332,0.103809 -0.0717,-5.225521 h -12.56775 -12.56771 l -0.0723,4.886279 c -0.0398,2.6874536 -0.0138,5.0389376 0.0578,5.2255206 0.10336,0.269352 2.72219,0.339242 12.71178,0.339242 h 12.58161 z m 1.52002,4.6302076 c 0.0807,-0.327422 0.11269,-2.609572 0.0712,-5.0714446 -0.0555,-3.290612 -0.16305,-4.505261 -0.40618,-4.586111 -0.25707,-0.08548 -0.33073,1.04404 -0.33073,5.071445 0,3.2108036 0.0987,5.1814236 0.25954,5.1814236 0.14275,0 0.32553,-0.267891 0.40618,-0.595313 z m 27.32006,-4.397321 c 0.0499,-3.3607016 -0.0213,-4.9730156 -0.23083,-5.2255206 -0.24997,-0.301195 -2.5188,-0.365178 -12.94904,-0.365178 -6.95528,0 -12.83429,0.07227 -13.06448,0.160599 -0.36101,0.138534 -0.41851,0.841334 -0.41851,5.115277 0,2.7250736 0.0805,5.0351526 0.17883,5.1335106 0.0984,0.09836 6.08125,0.147967 13.29531,0.110243 l 13.11648,-0.06859 z"
       id="path2329" />
  </g>
</svg>
