<?xml version="1.0" encoding="UTF-8" standalone="no"?>
<!-- Created with Inkscape (http://www.inkscape.org/) -->

<svg
   width="210mm"
   height="297mm"
   viewBox="0 0 210 297"
   version="1.1"
   id="svg5"
   inkscape:version="1.1.2 (0a00cf5339, 2022-02-04, custom)"
   sodipodi:docname="4 mic audio interface.svg"
   xmlns:inkscape="http://www.inkscape.org/namespaces/inkscape"
   xmlns:sodipodi="http://sodipodi.sourceforge.net/DTD/sodipodi-0.dtd"
   xmlns="http://www.w3.org/2000/svg"
   xmlns:svg="http://www.w3.org/2000/svg">
  <sodipodi:namedview
     id="namedview7"
     pagecolor="#ffffff"
     bordercolor="#666666"
     borderopacity="1.0"
     inkscape:pageshadow="2"
     inkscape:pageopacity="0.0"
     inkscape:pagecheckerboard="0"
     inkscape:document-units="mm"
     showgrid="false"
     inkscape:zoom="0.96459612"
     inkscape:cx="750.57321"
     inkscape:cy="407.94276"
     inkscape:window-width="1680"
     inkscape:window-height="956"
     inkscape:window-x="-11"
     inkscape:window-y="-11"
     inkscape:window-maximized="1"
     inkscape:current-layer="layer1" />
  <defs
     id="defs2">
    <inkscape:path-effect
       effect="skeletal"
       id="path-effect3161"
       is_visible="true"
       lpeversion="1"
       pattern="m 182.71133,36.816874 0.27078,28.580167 24.64656,-14.536578 z m -38.1894,6.580476 v 17.728634 h 31.32522 V 43.39735 Z"
       copytype="repeated"
       prop_scale="1"
       scale_y_rel="false"
       spacing="5.8"
       normal_offset="0"
       tang_offset="1.5"
       prop_units="false"
       vertical_pattern="false"
       hide_knot="false"
       fuse_tolerance="0" />
    <inkscape:path-effect
       effect="skeletal"
       id="path-effect2910"
       is_visible="true"
       lpeversion="1"
       pattern="m 182.71133,36.816874 0.27078,28.580167 24.64656,-14.536578 z m -38.1894,6.580476 v 17.728634 h 31.32522 V 43.39735 Z"
       copytype="repeated"
       prop_scale="1"
       scale_y_rel="false"
       spacing="4.6"
       normal_offset="0.3"
       tang_offset="0"
       prop_units="false"
       vertical_pattern="false"
       hide_knot="false"
       fuse_tolerance="0" />
  </defs>
  <g
     inkscape:label="Layer 1"
     inkscape:groupmode="layer"
     id="layer1">
    <path
       id="path3294"
       style="fill:none;fill-rule:evenodd;stroke:#000000;stroke-width:0.344648;stroke-linecap:round;stroke-linejoin:round;stroke-miterlimit:4;stroke-dasharray:none;paint-order:stroke markers fill"
       d="m 125.18585,35.840856 a 2.4321492,2.1088814 0 0 1 -2.43216,2.108877 2.4321492,2.1088814 0 0 1 -2.43216,-2.108877 2.4321492,2.1088814 0 0 1 2.43216,-2.108884 2.4321492,2.1088814 0 0 1 2.43216,2.108884 z m -0.78702,0.0017 a 1.4785401,1.2713763 0 0 1 -1.47855,1.271381 1.4785401,1.2713763 0 0 1 -1.47855,-1.271381 1.4785401,1.2713763 0 0 1 1.47855,-1.271374 1.4785401,1.2713763 0 0 1 1.47855,1.271374 z m -2.39728,-9.614328 h 0.66016 c 0.17933,0 0.32368,0.119659 0.32368,0.268299 v 2.410705 c 0,0.148635 -0.14435,0.268294 -0.32368,0.268294 h -0.66016 c -0.17932,0 -0.32366,-0.119659 -0.32366,-0.268294 v -2.410705 c 0,-0.14864 0.14434,-0.268299 0.32366,-0.268299 z m 4.05768,2.80745 a 3.3341213,2.7170405 0 0 1 -3.33414,2.717039 3.3341213,2.7170405 0 0 1 -3.33414,-2.717039 3.3341213,2.7170405 0 0 1 3.33414,-2.717044 3.3341213,2.7170405 0 0 1 3.33414,2.717044 z m 1.21666,-6.705346 h 2.63035 c 0.34869,0 0.6294,0.246495 0.6294,0.552672 v 3.068623 c 0,0.306183 -0.28071,0.552673 -0.6294,0.552673 h -2.63035 c -0.3487,0 -0.6294,-0.24649 -0.6294,-0.552673 v -3.068623 c 0,-0.306177 0.2807,-0.552672 0.6294,-0.552672 z m -12.10905,0 h 2.63037 c 0.34869,0 0.62941,0.246495 0.62941,0.552672 v 3.068623 c 0,0.306183 -0.28072,0.552673 -0.62941,0.552673 h -2.63037 c -0.34869,0 -0.62939,-0.24649 -0.62939,-0.552673 v -3.068623 c 0,-0.306177 0.2807,-0.552672 0.62939,-0.552672 z m 1.83695,23.631424 a 1.179076,1.2504806 0 0 1 -1.17909,1.25049 1.179076,1.2504806 0 0 1 -1.17908,-1.25049 1.179076,1.2504806 0 0 1 1.17908,-1.250482 1.179076,1.2504806 0 0 1 1.17909,1.250482 z m 2.05582,-3.775377 a 1.179076,1.2504806 0 0 1 -1.17908,1.250482 1.179076,1.2504806 0 0 1 -1.17908,-1.250482 1.179076,1.2504806 0 0 1 1.17908,-1.250479 1.179076,1.2504806 0 0 1 1.17908,1.250479 z m -3.91586,0 a 1.179076,1.2504806 0 0 1 -1.17907,1.250482 1.179076,1.2504806 0 0 1 -1.17908,-1.250482 1.179076,1.2504806 0 0 1 1.17908,-1.250479 1.179076,1.2504806 0 0 1 1.17907,1.250479 z m 6.38169,1.667308 a 5.5169905,4.5992067 0 0 1 -5.51702,4.599213 5.5169905,4.5992067 0 0 1 -5.51703,-4.599213 5.5169905,4.5992067 0 0 1 5.51703,-4.599207 5.5169905,4.5992067 0 0 1 5.51702,4.599207 z m -17.63561,-8.01285 a 2.4321492,2.1088814 0 0 1 -2.43216,2.108877 2.4321492,2.1088814 0 0 1 -2.432165,-2.108877 2.4321492,2.1088814 0 0 1 2.432165,-2.108884 2.4321492,2.1088814 0 0 1 2.43216,2.108884 z m -0.78703,0.0017 a 1.4785401,1.2713763 0 0 1 -1.47855,1.271381 1.4785401,1.2713763 0 0 1 -1.47854,-1.271381 1.4785401,1.2713763 0 0 1 1.47854,-1.271374 1.4785401,1.2713763 0 0 1 1.47855,1.271374 z m -7.395036,10.1192 a 1.179076,1.2504806 0 0 1 -1.179084,1.25049 1.179076,1.2504806 0 0 1 -1.179078,-1.25049 1.179076,1.2504806 0 0 1 1.179078,-1.250483 1.179076,1.2504806 0 0 1 1.179084,1.250483 z m 2.055822,-3.775379 a 1.179076,1.2504806 0 0 1 -1.179078,1.250484 1.179076,1.2504806 0 0 1 -1.179084,-1.250484 1.179076,1.2504806 0 0 1 1.179084,-1.250478 1.179076,1.2504806 0 0 1 1.179078,1.250478 z m -3.915858,0 a 1.179076,1.2504806 0 0 1 -1.179078,1.250484 1.179076,1.2504806 0 0 1 -1.179085,-1.250484 1.179076,1.2504806 0 0 1 1.179085,-1.250478 1.179076,1.2504806 0 0 1 1.179078,1.250478 z m 6.381682,1.667308 a 5.5169905,4.5992067 0 0 1 -5.517016,4.599215 5.5169905,4.5992067 0 0 1 -5.517024,-4.599215 5.5169905,4.5992067 0 0 1 5.517024,-4.599206 5.5169905,4.5992067 0 0 1 5.517016,4.599206 z m -1.181376,-14.911997 0.211143,-0.761531 c 0.05738,-0.20685 0.196636,-0.335104 0.312314,-0.287564 l 1.876039,0.77102 c 0.11567,0.04754 0.16263,0.252332 0.10527,0.459181 l -0.21114,0.761534 c -0.0574,0.206848 -0.19664,0.335096 -0.3123,0.287558 l -1.87605,-0.771019 c -0.115671,-0.04754 -0.162624,-0.252329 -0.105276,-0.459179 z m 3.482566,-3.782815 a 2.2619962,4.0048444 12.245279 0 1 1.04807,4.715092 2.2619962,4.0048444 12.245279 0 1 -3.18079,2.977097 2.2619962,4.0048444 12.245279 0 1 -1.048083,-4.715088 2.2619962,4.0048444 12.245279 0 1 3.180803,-2.977101 z M 93.870816,22.33035 h 2.630374 c 0.348686,0 0.629398,0.246495 0.629398,0.552673 v 3.068622 c 0,0.306183 -0.280712,0.552672 -0.629398,0.552672 h -2.630374 c -0.348685,0 -0.629391,-0.246489 -0.629391,-0.552672 v -3.068622 c 0,-0.306178 0.280706,-0.552673 0.629391,-0.552673 z m 12.109044,0 h 2.63036 c 0.34869,0 0.62939,0.246495 0.62939,0.552673 v 3.068622 c 0,0.306183 -0.2807,0.552672 -0.62939,0.552672 h -2.63036 c -0.34869,0 -0.6294,-0.246489 -0.6294,-0.552672 v -3.068622 c 0,-0.306178 0.28071,-0.552673 0.6294,-0.552673 z M 81.141806,35.840848 a 2.4321492,2.1088814 0 0 1 -2.432163,2.108877 2.4321492,2.1088814 0 0 1 -2.432163,-2.108877 2.4321492,2.1088814 0 0 1 2.432163,-2.108884 2.4321492,2.1088814 0 0 1 2.432163,2.108884 z m -0.787026,0.0017 a 1.4785401,1.2713763 0 0 1 -1.478549,1.271381 1.4785401,1.2713763 0 0 1 -1.478544,-1.271381 1.4785401,1.2713763 0 0 1 1.478544,-1.271374 1.4785401,1.2713763 0 0 1 1.478549,1.271374 z m -7.39504,10.1192 a 1.179076,1.2504806 0 0 1 -1.179082,1.25049 1.179076,1.2504806 0 0 1 -1.179082,-1.25049 1.179076,1.2504806 0 0 1 1.179082,-1.250483 1.179076,1.2504806 0 0 1 1.179082,1.250483 z m 2.055825,-3.775359 a 1.179076,1.2504806 0 0 1 -1.179082,1.250483 1.179076,1.2504806 0 0 1 -1.179082,-1.250483 1.179076,1.2504806 0 0 1 1.179082,-1.250479 1.179076,1.2504806 0 0 1 1.179082,1.250479 z m -3.915857,0 a 1.179076,1.2504806 0 0 1 -1.179082,1.250483 1.179076,1.2504806 0 0 1 -1.179082,-1.250483 1.179076,1.2504806 0 0 1 1.179082,-1.250479 1.179076,1.2504806 0 0 1 1.179082,1.250479 z m 6.381682,1.667307 a 5.5169905,4.5992067 0 0 1 -5.517022,4.599215 5.5169905,4.5992067 0 0 1 -5.517022,-4.599215 5.5169905,4.5992067 0 0 1 5.517022,-4.599206 5.5169905,4.5992067 0 0 1 5.517022,4.599206 z m 2.112523,-17.541031 0.504018,0.519096 c 0.136903,0.140998 0.183641,0.345865 0.104794,0.459347 l -1.2788,1.840504 c -0.07885,0.113478 -0.252532,0.09132 -0.389436,-0.04967 l -0.504017,-0.51908 c -0.136899,-0.140998 -0.183633,-0.345861 -0.104791,-0.459339 l 1.278801,-1.840504 c 0.07885,-0.113482 0.252533,-0.09133 0.389431,0.04966 z m 1.608661,5.334005 a 3.7116134,2.4407022 54.785689 0 1 -3.986819,-0.547296 3.7116134,2.4407022 54.785689 0 1 -1.104218,-4.696052 3.7116134,2.4407022 54.785689 0 1 3.986815,0.547287 3.7116134,2.4407022 54.785689 0 1 1.104222,4.696061 z m 2.029259,-9.316328 h 2.630365 c 0.348686,0 0.629392,0.246496 0.629392,0.552673 v 3.068622 c 0,0.306183 -0.280706,0.552672 -0.629392,0.552672 h -2.630365 c -0.348684,0 -0.629396,-0.246489 -0.629396,-0.552672 v -3.068622 c 0,-0.306177 0.280712,-0.552673 0.629396,-0.552673 z m -12.109039,0 h 2.630374 c 0.348684,0 0.629397,0.246496 0.629397,0.552673 v 3.068622 c 0,0.306183 -0.280713,0.552672 -0.629397,0.552672 h -2.630374 c -0.348685,0 -0.629392,-0.246489 -0.629392,-0.552672 v -3.068622 c 0,-0.306177 0.280707,-0.552673 0.629392,-0.552673 z M 58.393806,35.840856 a 2.4321492,2.1088814 0 0 1 -2.432154,2.108877 2.4321492,2.1088814 0 0 1 -2.432145,-2.108877 2.4321492,2.1088814 0 0 1 2.432145,-2.108884 2.4321492,2.1088814 0 0 1 2.432154,2.108884 z m -0.787021,0.0017 a 1.4785401,1.2713763 0 0 1 -1.47854,1.271381 1.4785401,1.2713763 0 0 1 -1.478539,-1.271381 1.4785401,1.2713763 0 0 1 1.478539,-1.271374 1.4785401,1.2713763 0 0 1 1.47854,1.271374 z m -2.397267,-9.614321 h 0.660164 c 0.179311,0 0.323667,0.119659 0.323667,0.268299 v 2.410705 c 0,0.148635 -0.144356,0.268294 -0.323667,0.268294 h -0.660164 c -0.179313,0 -0.323668,-0.119659 -0.323668,-0.268294 v -2.410705 c 0,-0.14864 0.144355,-0.268299 0.323668,-0.268299 z m 4.05765,2.80745 a 3.3341213,2.7170405 0 0 1 -3.334121,2.717039 3.3341213,2.7170405 0 0 1 -3.334121,-2.717039 3.3341213,2.7170405 0 0 1 3.334121,-2.717044 3.3341213,2.7170405 0 0 1 3.334121,2.717044 z m 1.216651,-6.705346 h 2.630356 c 0.348684,0 0.629392,0.246495 0.629392,0.552672 v 3.068622 c 0,0.306184 -0.280708,0.552673 -0.629392,0.552673 h -2.630356 c -0.348685,0 -0.629392,-0.246489 -0.629392,-0.552673 v -3.068622 c 0,-0.306177 0.280707,-0.552672 0.629392,-0.552672 z m -12.108969,0 h 2.630357 c 0.348682,0 0.629391,0.246495 0.629391,0.552672 v 3.068622 c 0,0.306184 -0.280709,0.552673 -0.629391,0.552673 H 48.37485 c -0.348683,0 -0.629392,-0.246489 -0.629392,-0.552673 v -3.068622 c 0,-0.306177 0.280709,-0.552672 0.629392,-0.552672 z m 1.836935,23.631425 a 1.179076,1.2504806 0 0 1 -1.179076,1.250489 1.179076,1.2504806 0 0 1 -1.179077,-1.250489 1.179076,1.2504806 0 0 1 1.179077,-1.250483 1.179076,1.2504806 0 0 1 1.179076,1.250483 z m 2.055813,-3.775379 a 1.179076,1.2504806 0 0 1 -1.179076,1.250483 1.179076,1.2504806 0 0 1 -1.179077,-1.250483 1.179076,1.2504806 0 0 1 1.179077,-1.250478 1.179076,1.2504806 0 0 1 1.179076,1.250478 z m -3.915833,0 a 1.179076,1.2504806 0 0 1 -1.179077,1.250483 1.179076,1.2504806 0 0 1 -1.179076,-1.250483 1.179076,1.2504806 0 0 1 1.179076,-1.250478 1.179076,1.2504806 0 0 1 1.179077,1.250478 z m 6.381644,1.667308 a 5.5169905,4.5992067 0 0 1 -5.516991,4.599214 5.5169905,4.5992067 0 0 1 -5.51699,-4.599214 5.5169905,4.5992067 0 0 1 5.51699,-4.599207 5.5169905,4.5992067 0 0 1 5.516991,4.599207 z M 38.495704,42.407959 a 1.9325283,1.7011299 0 0 1 -1.932528,1.70113 1.9325283,1.7011299 0 0 1 -1.932528,-1.70113 1.9325283,1.7011299 0 0 1 1.932528,-1.701129 1.9325283,1.7011299 0 0 1 1.932528,1.701129 z m -1.476072,5.448639 h 0.495465 c 0.784998,0 1.416963,0.592728 1.416963,1.328981 v 0.410951 c 0,0.736258 -0.631965,1.328986 -1.416963,1.328986 h -0.495465 c -0.784999,0 -1.416969,-0.592728 -1.416969,-1.328986 v -0.410951 c 0,-0.736253 0.63197,-1.328981 1.416969,-1.328981 z M 34.260219,46.97735 h 6.014964 c 0.867134,0 1.565225,0.406422 1.565225,0.911244 v 3.062192 c 0,0.504833 -0.698091,0.911244 -1.565225,0.911244 h -6.014964 c -0.867129,0 -1.565219,-0.406411 -1.565219,-0.911244 v -3.062192 c 0,-0.504822 0.69809,-0.911244 1.565219,-0.911244 z m 1.342444,0.879248 h 3.665681 c 0.867134,0 1.565224,0.406411 1.565224,0.911249 v 1.254847 c 0,0.504833 -0.69809,0.911249 -1.565224,0.911249 h -3.665681 c -0.867133,0 -1.565224,-0.406416 -1.565224,-0.911249 v -1.254847 c 0,-0.504838 0.698091,-0.911249 1.565224,-0.911249 z M 137.36757,31.007864 h 0.46083 c 0.73015,0 1.31796,0.866511 1.31796,1.942849 v 0.600773 c 0,1.076343 -0.58781,1.942854 -1.31796,1.942854 h -0.46083 c -0.73014,0 -1.31795,-0.866511 -1.31795,-1.942854 v -0.600773 c 0,-1.076338 0.58781,-1.942849 1.31795,-1.942849 z m -2.56659,-1.285371 h 5.59464 c 0.80654,0 1.45585,0.594142 1.45585,1.332153 v 4.476642 c 0,0.738017 -0.64931,1.332154 -1.45585,1.332154 h -5.59464 c -0.80653,0 -1.45584,-0.594137 -1.45584,-1.332154 v -4.476642 c 0,-0.738011 0.64931,-1.332153 1.45584,-1.332153 z m 1.24864,1.285371 h 3.40952 c 0.80654,0 1.45584,0.594136 1.45584,1.332159 v 1.834481 c 0,0.738016 -0.6493,1.332157 -1.45584,1.332157 h -3.40952 c -0.80654,0 -1.45585,-0.594141 -1.45585,-1.332157 v -1.834481 c 0,-0.738023 0.64931,-1.332159 1.45585,-1.332159 z m 1.20617,12.384227 h 0.46085 c 0.73013,0 1.31794,0.866512 1.31794,1.942847 v 0.600777 c 0,1.07634 -0.58781,1.942854 -1.31794,1.942854 h -0.46085 c -0.73014,0 -1.31795,-0.866514 -1.31795,-1.942854 v -0.600777 c 0,-1.076335 0.58781,-1.942847 1.31795,-1.942847 z M 134.6892,42.10672 h 5.59465 c 0.80653,0 1.45584,0.594142 1.45584,1.332152 v 4.476643 c 0,0.738018 -0.64931,1.332156 -1.45584,1.332156 h -5.59465 c -0.80653,0 -1.45585,-0.594138 -1.45585,-1.332156 v -4.476643 c 0,-0.73801 0.64932,-1.332152 1.45585,-1.332152 z m 1.24864,1.285371 h 3.40952 c 0.80655,0 1.45585,0.594137 1.45585,1.332158 v 1.834483 c 0,0.738013 -0.6493,1.332156 -1.45585,1.332156 h -3.40952 c -0.80654,0 -1.45585,-0.594143 -1.45585,-1.332156 v -1.834483 c 0,-0.738021 0.64931,-1.332158 1.45585,-1.332158 z m 16.06373,-0.740859 0.22533,0.668748 c 0.0613,0.181646 -0.003,0.384505 -0.14374,0.45485 l -2.28424,1.140892 c -0.14084,0.07034 -0.3035,-0.01927 -0.3647,-0.200906 l -0.22534,-0.668752 c -0.0612,-0.181641 0.003,-0.384507 0.14374,-0.454851 l 2.28426,-1.140885 c 0.14084,-0.07035 0.30349,0.01926 0.36469,0.200904 z m -1.27518,5.439074 a 3.6215473,2.8050762 84.1365 0 1 -3.71254,-2.09162 3.6215473,2.8050762 84.1365 0 1 1.43648,-4.663348 3.6215473,2.8050762 84.1365 0 1 3.71254,2.091617 3.6215473,2.8050762 84.1365 0 1 -1.43648,4.663351 z m -3.81701,-17.4608 h 2.36556 c 0.31357,0 0.56603,0.307357 0.56603,0.689141 v 3.826366 c 0,0.381784 -0.25246,0.689142 -0.56603,0.689142 h -2.36556 c -0.31358,0 -0.56603,-0.307358 -0.56603,-0.689142 v -3.826366 c 0,-0.381784 0.25245,-0.689141 0.56603,-0.689141 z M 185.28024,15.69537 h 9.81283 c 0.65467,0 1.18171,0.307357 1.18171,0.689142 V 55.55326 c 0,0.381783 -0.52704,0.689142 -1.18171,0.689142 h -9.81283 c -0.65467,0 -1.18171,-0.307359 -1.18171,-0.689142 V 16.384512 c 0,-0.381785 0.52704,-0.689142 1.18171,-0.689142 z m -165.797089,0 h 9.812847 c 0.65466,0 1.181696,0.307357 1.181696,0.689142 V 55.55326 c 0,0.381783 -0.527036,0.689142 -1.181696,0.689142 h -9.812847 c -0.654659,0 -1.181695,-0.307359 -1.181695,-0.689142 V 16.384512 c 0,-0.381785 0.527036,-0.689142 1.181695,-0.689142 z m 12.551412,3.377722 H 182.34154 c 0.84032,0 1.51684,0.394527 1.51684,0.884587 v 35.37309 c 0,0.490057 -0.67652,0.884581 -1.51684,0.884581 H 32.034563 c -0.840326,0 -1.516834,-0.394524 -1.516834,-0.884581 v -35.37309 c 0,-0.49006 0.676508,-0.884587 1.516834,-0.884587 z m 128.522347,13.391691 0.17017,-0.692516 c 0.0462,-0.188093 0.20083,-0.296757 0.34667,-0.243633 l 2.3654,0.861578 c 0.14584,0.05312 0.22604,0.247314 0.17982,0.435408 l -0.17017,0.692515 c -0.0462,0.188094 -0.20084,0.296756 -0.34668,0.24364 l -2.36539,-0.861579 c -0.14585,-0.05312 -0.22605,-0.24732 -0.17982,-0.435413 z m 3.80059,-3.253087 a 2.7952775,3.6342423 4.4471355 0 1 1.80656,4.468537 2.7952775,3.6342423 4.4471355 0 1 -3.5254,2.526417 2.7952775,3.6342423 4.4471355 0 1 -1.80654,-4.468542 2.7952775,3.6342423 4.4471355 0 1 3.52538,-2.526412 z m 4.46848,14.187578 a 3.9160171,3.9397355 0 0 1 -3.91601,3.939735 3.9160171,3.9397355 0 0 1 -3.91602,-3.939735 3.9160171,3.9397355 0 0 1 3.91602,-3.939733 3.9160171,3.9397355 0 0 1 3.91601,3.939733 z m -1.26718,0.0034 a 2.3806057,2.3751389 0 0 1 -2.38061,2.375139 2.3806057,2.3751389 0 0 1 -2.3806,-2.375139 2.3806057,2.3751389 0 0 1 2.3806,-2.375138 2.3806057,2.3751389 0 0 1 2.38061,2.375138 z m 10.54029,-13.153594 0.48243,0.421304 c 0.13104,0.114431 0.1651,0.327798 0.0764,0.478403 l -1.43904,2.442605 c -0.0887,0.150605 -0.26564,0.179719 -0.39669,0.06529 l -0.48241,-0.421343 c -0.13104,-0.114431 -0.16509,-0.327798 -0.0764,-0.478403 l 1.43904,-2.442605 c 0.0887,-0.150606 0.26564,-0.179725 0.39668,-0.06529 z m 1.28938,5.434106 a 3.499564,2.9028519 78.940956 0 1 -4.05841,0.625233 3.499564,2.9028519 78.940956 0 1 -0.81461,-4.880764 3.499564,2.9028519 78.940956 0 1 4.05842,-0.625234 3.499564,2.9028519 78.940956 0 1 0.8146,4.880765 z m 1.31066,8.463869 a 3.9160171,3.9397355 0 0 1 -3.91601,3.939731 3.9160171,3.9397355 0 0 1 -3.91602,-3.939731 3.9160171,3.9397355 0 0 1 3.91602,-3.939732 3.9160171,3.9397355 0 0 1 3.91601,3.939732 z m -1.26719,0.0034 a 2.3806057,2.3751389 0 0 1 -2.3806,2.375135 2.3806057,2.3751389 0 0 1 -2.3806,-2.375135 2.3806057,2.3751389 0 0 1 2.3806,-2.375139 2.3806057,2.3751389 0 0 1 2.3806,2.375139 z" />
  </g>
</svg>
