<?xml version="1.0" encoding="UTF-8" standalone="no"?>
<!-- Created with Inkscape (http://www.inkscape.org/) -->

<svg
   width="210mm"
   height="297mm"
   viewBox="0 0 210 297"
   version="1.1"
   id="svg5"
   inkscape:version="1.1.2 (0a00cf5339, 2022-02-04, custom)"
   sodipodi:docname="guitar interface icon svg.svg"
   xmlns:inkscape="http://www.inkscape.org/namespaces/inkscape"
   xmlns:sodipodi="http://sodipodi.sourceforge.net/DTD/sodipodi-0.dtd"
   xmlns="http://www.w3.org/2000/svg"
   xmlns:svg="http://www.w3.org/2000/svg">
  <sodipodi:namedview
     id="namedview7"
     pagecolor="#ffffff"
     bordercolor="#666666"
     borderopacity="1.0"
     inkscape:pageshadow="2"
     inkscape:pageopacity="0.0"
     inkscape:pagecheckerboard="0"
     inkscape:document-units="mm"
     showgrid="false"
     inkscape:zoom="0.70910507"
     inkscape:cx="498.51568"
     inkscape:cy="281.34053"
     inkscape:window-width="1680"
     inkscape:window-height="956"
     inkscape:window-x="-11"
     inkscape:window-y="-11"
     inkscape:window-maximized="1"
     inkscape:current-layer="layer2" />
  <defs
     id="defs2">
    <inkscape:path-effect
       effect="spiro"
       id="path-effect857"
       is_visible="true"
       lpeversion="1" />
    <inkscape:path-effect
       effect="spiro"
       id="path-effect2699"
       is_visible="true"
       lpeversion="1" />
    <inkscape:path-effect
       effect="spiro"
       id="path-effect2379"
       is_visible="true"
       lpeversion="1" />
    <inkscape:path-effect
       effect="spiro"
       id="path-effect2342"
       is_visible="true"
       lpeversion="1" />
    <inkscape:path-effect
       effect="spiro"
       id="path-effect2256"
       is_visible="true"
       lpeversion="1" />
    <inkscape:path-effect
       effect="spiro"
       id="path-effect2059"
       is_visible="true"
       lpeversion="1" />
    <inkscape:path-effect
       effect="spiro"
       id="path-effect1973"
       is_visible="true"
       lpeversion="1" />
    <inkscape:path-effect
       effect="spiro"
       id="path-effect1696"
       is_visible="true"
       lpeversion="1" />
    <inkscape:path-effect
       effect="spiro"
       id="path-effect1690"
       is_visible="true"
       lpeversion="1" />
    <inkscape:path-effect
       effect="spiro"
       id="path-effect1214"
       is_visible="true"
       lpeversion="1" />
    <inkscape:path-effect
       effect="spiro"
       id="path-effect1128"
       is_visible="true"
       lpeversion="1" />
    <inkscape:path-effect
       effect="spiro"
       id="path-effect1122"
       is_visible="true"
       lpeversion="1" />
    <inkscape:path-effect
       effect="spiro"
       id="path-effect1005"
       is_visible="true"
       lpeversion="1" />
    <inkscape:path-effect
       effect="spiro"
       id="path-effect999"
       is_visible="true"
       lpeversion="1" />
    <inkscape:path-effect
       effect="skeletal"
       id="path-effect3161"
       is_visible="true"
       lpeversion="1"
       pattern="m 182.71133,36.816874 0.27078,28.580167 24.64656,-14.536578 z m -38.1894,6.580476 v 17.728634 h 31.32522 V 43.39735 Z"
       copytype="repeated"
       prop_scale="1"
       scale_y_rel="false"
       spacing="5.8"
       normal_offset="0"
       tang_offset="1.5"
       prop_units="false"
       vertical_pattern="false"
       hide_knot="false"
       fuse_tolerance="0" />
    <inkscape:path-effect
       effect="skeletal"
       id="path-effect2910"
       is_visible="true"
       lpeversion="1"
       pattern="m 182.71133,36.816874 0.27078,28.580167 24.64656,-14.536578 z m -38.1894,6.580476 v 17.728634 h 31.32522 V 43.39735 Z"
       copytype="repeated"
       prop_scale="1"
       scale_y_rel="false"
       spacing="4.6"
       normal_offset="0.3"
       tang_offset="0"
       prop_units="false"
       vertical_pattern="false"
       hide_knot="false"
       fuse_tolerance="0" />
  </defs>
  <g
     inkscape:label="Layer 1"
     inkscape:groupmode="layer"
     id="layer1">
    <g
       id="g3626"
       transform="matrix(0.57464349,0,0,0.72492317,-25.79402,-8.6034939)">
      <path
         id="path2377"
         style="fill:none;stroke:#000000;stroke-width:0.965;stroke-linecap:butt;stroke-linejoin:miter;stroke-miterlimit:4;stroke-dasharray:none;stroke-opacity:1"
         d="m 51.412018,117.69528 c 0.209686,5.91735 1.984675,11.77221 5.09615,16.80984 3.111474,5.03762 7.55207,9.24608 12.749342,12.08286 6.2905,3.43348 13.675043,4.8248 20.783698,3.91583 M 106.61206,129.68405 90.041209,150.50381 M 67.982829,96.875535 51.412018,117.69528 M 137.44112,19.769202 c 4.16842,-1.779251 8.79667,-2.46824 13.3026,-1.980307 4.50593,0.487933 8.87941,2.15169 12.57033,4.782005 3.69092,2.630315 6.691,6.22127 8.62286,10.321193 1.93187,4.099924 2.79119,8.699592 2.46987,13.220459 -0.26518,3.73097 -1.32885,7.403224 -3.09878,10.69834 M 67.982831,96.875536 c -1.779251,4.168424 -2.468242,8.796674 -1.980309,13.302604 0.487933,4.50593 2.15169,8.8794 4.782005,12.57033 2.630314,3.69092 6.221269,6.69099 10.321192,8.62286 4.099924,1.93187 8.699593,2.79119 13.22046,2.46987 3.730971,-0.26518 7.403221,-1.32885 10.698341,-3.09878 M 67.982831,96.875536 c -1.779251,4.168424 -2.468242,8.796674 -1.980309,13.302604 0.487933,4.50593 2.15169,8.8794 4.782005,12.57033 2.630314,3.69092 6.221269,6.69099 10.321192,8.62286 4.099924,1.93187 8.699593,2.79119 13.22046,2.46987 3.730971,-0.26518 7.403221,-1.32885 10.698341,-3.09878 M 171.308,56.810892 105.02452,130.74242 M 137.44112,19.769202 67.982831,96.875536"
         inkscape:original-d="m 51.412018,117.69528 c 5.948762,9.63116 11.897259,19.26206 17.845492,28.8927 5.948233,9.63064 13.856062,2.61082 20.783698,3.91583 m 16.570852,-20.81976 c -5.52337,6.94019 -11.046984,13.88011 -16.570851,20.81976 M 67.982829,96.875535 C 62.459491,103.81571 56.935885,110.75563 51.412018,117.69528 M 137.44112,19.769202 c 12.32215,8.78138 24.64404,17.56249 36.96566,26.34335 12.32163,8.78085 -2.06559,7.13249 -3.09878,10.69834 M 67.982831,96.875536 c 8.781381,12.322154 17.562497,24.644044 26.343348,36.965664 8.780851,12.32163 7.132491,-2.06559 10.698341,-3.09878 M 67.982831,96.875536 c 8.781381,12.322154 17.562497,24.644044 26.343348,36.965664 8.780851,12.32163 7.132491,-2.06559 10.698341,-3.09878 M 171.308,56.810892 c -22.09416,24.64404 -44.18867,49.287958 -66.28348,73.931528 M 137.44112,19.769202 C 114.28863,45.47159 91.135869,71.173699 67.982831,96.875536"
         inkscape:path-effect="#path-effect2379" />
      <path
         id="path3341"
         style="fill:none;fill-rule:evenodd;stroke:#000000;stroke-width:0.964999;stroke-linecap:round;stroke-linejoin:round;paint-order:stroke markers fill"
         d="M 107.49786,98.787552 A 10.834764,12.959227 0 0 1 96.663094,111.74678 10.834764,12.959227 0 0 1 85.82833,98.787552 10.834764,12.959227 0 0 1 96.663094,85.828325 10.834764,12.959227 0 0 1 107.49786,98.787552 Z m 17.14186,-34.043038 a 5.3111587,6.5858369 0 0 1 -5.31116,6.585837 5.3111587,6.5858369 0 0 1 -5.31116,-6.585837 5.3111587,6.5858369 0 0 1 5.31116,-6.585836 5.3111587,6.5858369 0 0 1 5.31116,6.585836 z m 4.63402,-2.342159 4.8009,10.318091 c 2.19537,4.718282 0.16429,10.284136 -4.55399,12.479503 l -0.30202,0.140527 c -4.71828,2.195367 -10.28413,0.164291 -12.4795,-4.55399 l -4.8009,-10.318092 c -2.19537,-4.718281 -0.16429,-10.284135 4.55398,-12.479502 l 0.30202,-0.140527 c 4.71828,-2.195367 10.28414,-0.164291 12.47951,4.55399 z m 21.1148,0.519783 a 2.9742489,3.6115878 0 0 1 -2.97425,3.611587 2.9742489,3.6115878 0 0 1 -2.97425,-3.611587 2.9742489,3.6115878 0 0 1 2.97425,-3.611588 2.9742489,3.6115878 0 0 1 2.97425,3.611588 z m -2.6458,-10.054177 a 2.9742489,3.6115878 0 0 1 -2.97425,3.611588 2.9742489,3.6115878 0 0 1 -2.97424,-3.611588 2.9742489,3.6115878 0 0 1 2.97424,-3.611587 2.9742489,3.6115878 0 0 1 2.97425,3.611587 z m -3.70411,-8.466674 a 2.9742489,3.6115878 0 0 1 -2.97425,3.611587 2.9742489,3.6115878 0 0 1 -2.97425,-3.611587 2.9742489,3.6115878 0 0 1 2.97425,-3.611588 2.9742489,3.6115878 0 0 1 2.97425,3.611588 z" />
      <rect
         style="fill:none;fill-rule:evenodd;stroke:#000000;stroke-width:0.964999;stroke-linecap:round;stroke-linejoin:round;stroke-miterlimit:4;stroke-dasharray:none;paint-order:stroke markers fill"
         id="rect3365"
         width="4.2489271"
         height="15.72103"
         x="93.252258"
         y="86.156738"
         ry="2.1244636" />
      <path
         id="path3510"
         style="fill:none;fill-rule:evenodd;stroke:#000000;stroke-width:0.421061;stroke-linecap:round;stroke-linejoin:round;paint-order:stroke markers fill"
         d="m 68.158323,126.10053 a 5.3706825,5.1582354 0 0 1 -5.370682,5.15824 5.3706825,5.1582354 0 0 1 -5.370683,-5.15824 5.3706825,5.1582354 0 0 1 5.370683,-5.15823 5.3706825,5.1582354 0 0 1 5.370682,5.15823 z m -1.905726,0.19839 a 3.6382039,3.5710857 0 0 1 -3.638204,3.57109 3.6382039,3.5710857 0 0 1 -3.638204,-3.57109 3.6382039,3.5710857 0 0 1 3.638204,-3.57108 3.6382039,3.5710857 0 0 1 3.638204,3.57108 z" />
      <path
         id="path3613"
         style="fill:none;fill-rule:evenodd;stroke:#000000;stroke-width:0.421061;stroke-linecap:round;stroke-linejoin:round;paint-order:stroke markers fill"
         d="m 89.85417,141.44646 a 5.3706825,5.1582354 0 0 1 -5.370682,5.15824 5.3706825,5.1582354 0 0 1 -5.370683,-5.15824 5.3706825,5.1582354 0 0 1 5.370683,-5.15823 5.3706825,5.1582354 0 0 1 5.370682,5.15823 z m -1.905726,0.19839 a 3.6382039,3.5710857 0 0 1 -3.638204,3.57109 3.6382039,3.5710857 0 0 1 -3.638204,-3.57109 3.6382039,3.5710857 0 0 1 3.638204,-3.57108 3.6382039,3.5710857 0 0 1 3.638204,3.57108 z" />
    </g>
  </g>
  <g
     inkscape:groupmode="layer"
     id="layer2"
     inkscape:label="Layer 2">
    <path
       style="fill:#000000;stroke-width:0.264583"
       d="m 138.82732,120.50634 c -8.22865,-1.76536 -14.49014,-9.55468 -16.2103,-20.1657 -0.22779,-1.405136 -0.35714,-2.914626 -0.28746,-3.354416 0.32052,-2.02269 9.54459,-15.676971 29.36493,-43.468542 18.66071,-26.165546 20.13854,-28.161942 21.17607,-28.606683 5.10246,-2.187169 10.36678,-0.968451 14.73082,3.410264 5.30857,5.326415 7.18546,14.385613 4.64068,22.399189 -0.54022,1.701143 -2.38593,4.397697 -19.09205,27.893147 -10.17171,14.305475 -18.75271,26.555051 -19.06886,27.221301 -1.15801,2.44031 -8.98144,14.4396 -9.62817,14.76735 -0.84843,0.42997 -3.37525,0.38689 -5.62566,-0.0959 z m 9.7829,-6.8455 c 2.21827,-3.4925 4.03955,-6.42546 4.0473,-6.51768 0.008,-0.0922 -0.71578,0.12712 -1.60784,0.48744 -4.56841,1.84526 -8.96275,1.24129 -12.98123,-1.78419 -5.19791,-3.91346 -8.2073,-11.801626 -7.35906,-19.289504 0.154,-1.359427 0.24717,-2.500773 0.20704,-2.536328 -0.0401,-0.03555 -1.90023,2.839683 -4.13358,6.389414 l -4.06063,6.454052 0.18069,1.65152 c 0.49088,4.486716 1.82094,8.608376 3.94165,12.214656 0.61109,1.03915 2.08653,2.85682 3.36403,4.14431 1.82573,1.84001 2.72397,2.51554 4.5442,3.4175 2.91392,1.44391 4.52907,1.82673 7.45537,1.76709 l 2.36884,-0.0483 z m -8.25433,3.73941 c -0.44349,-0.19885 -1.00904,-0.67089 -1.25678,-1.04898 -0.68587,-1.04677 -0.54172,-1.06085 0.40947,-0.04 0.47295,0.50758 1.21709,0.9867 1.65365,1.06472 1.0403,0.1859 2.42215,-0.66838 2.91502,-1.80213 0.21875,-0.50319 0.37582,-0.66267 0.38191,-0.38778 0.0158,0.71314 -1.60448,2.29525 -2.50318,2.44418 -0.43656,0.0723 -1.15661,-0.0312 -1.60009,-0.23001 z m -0.2536,-1.29243 c -1.38316,-1.18975 -1.03653,-4.10005 0.56067,-4.70731 0.9339,-0.35506 1.02221,-0.3356 1.92518,0.42419 0.96084,0.8085 1.29359,2.15535 0.81686,3.30629 -0.65644,1.58478 -2.09968,2.01164 -3.30271,0.97683 z m -1.67929,-2.13365 c -0.0429,-1.4043 0.21578,-2.06637 1.23356,-3.1576 1.16796,-1.25224 3.48814,-0.89139 4.32521,0.67269 0.21793,0.4072 0.0552,0.32453 -0.54747,-0.27815 -0.65805,-0.65804 -1.08536,-0.85756 -1.83668,-0.85756 -1.786,0 -2.69272,1.05077 -2.96801,3.43958 l -0.16771,1.45521 z m 6.10791,-0.18104 c 0,-0.50932 0.0545,-0.71768 0.121,-0.46302 0.0665,0.25466 0.0665,0.67138 0,0.92604 -0.0666,0.25466 -0.121,0.0463 -0.121,-0.46302 z m -16.75838,-7.52673 c -0.60794,-0.34196 -1.55926,-1.47236 -1.55926,-1.85278 0,-0.0757 0.38695,0.27757 0.8599,0.78515 0.47294,0.50758 1.21708,0.9867 1.65364,1.06472 1.04031,0.18591 2.42215,-0.66838 2.91503,-1.80213 0.21874,-0.50319 0.37581,-0.66267 0.38191,-0.38778 0.006,0.2568 -0.3766,0.886 -0.84954,1.39823 -1.00368,1.08706 -2.33066,1.39702 -3.40168,0.79459 z m -0.2567,-1.44875 c -0.57046,-0.57046 -0.77339,-1.02517 -0.77339,-1.73293 0,-1.25386 0.65085,-2.47952 1.4851,-2.79671 0.9339,-0.355056 1.02221,-0.335596 1.92518,0.42419 0.96084,0.8085 1.2936,2.15535 0.81686,3.30629 -0.6978,1.68463 -2.21679,2.03611 -3.45375,0.79916 z m -1.53094,-1.92136 c -0.0448,-1.53285 0.28011,-2.42491 1.19036,-3.268496 0.84099,-0.7794 2.55319,-0.88655 3.5057,-0.21939 0.77463,0.54257 1.61568,2.359556 1.57589,3.404516 -0.0265,0.6967 -0.0431,0.71287 -0.13579,0.13229 -0.21868,-1.37009 -0.93032,-2.88207 -1.54653,-3.285816 -1.01575,-0.66555 -2.37291,-0.53263 -3.33452,0.32657 -0.71124,0.635496 -0.862,0.995006 -1.02631,2.447396 -0.17856,1.5784 -0.19524,1.61214 -0.2288,0.46293 z m 23.11484,4.7115 c 0.7276,-0.19703 1.90114,-0.6421 2.60786,-0.98905 1.23051,-0.6041 2.09225,-1.7669 20.34443,-27.452075 11.46908,-16.139744 19.2556,-27.337395 19.55193,-28.117275 1.33393,-3.51062 1.59781,-9.228364 0.6088,-13.191673 -0.63676,-2.551733 -2.79029,-6.771112 -4.34613,-8.515297 -1.75034,-1.96223 -4.12374,-3.525004 -6.40647,-4.218362 -2.43113,-0.738435 -6.03007,-0.617275 -8.056,0.27121 -1.35583,0.594604 -1.42386,0.685791 -21.26158,28.499408 -13.48622,18.908453 -20.01325,28.274555 -20.24839,29.055872 -1.6605,5.517409 -0.5769,13.245996 2.5208,17.979172 1.38442,2.11535 3.98198,4.64906 5.64342,5.50469 2.86642,1.4762 6.28475,1.91982 9.04133,1.17338 z m -2.80266,-15.596786 c -2.39411,-1.263622 -3.93724,-4.319943 -4.14915,-8.217793 -0.25,-4.598617 1.41118,-8.542837 4.19643,-9.963763 3.70846,-1.891916 7.60489,1.419315 8.46353,7.192412 0.86163,5.7932 -2.30205,11.604604 -6.31745,11.604604 -0.565,0 -1.55201,-0.27696 -2.19336,-0.61546 z m 4.60274,-0.883342 c 2.64211,-1.691047 4.1296,-6.500418 3.27015,-10.573099 -0.69733,-3.304421 -2.115,-5.430882 -4.20184,-6.302602 -1.2585,-0.525706 -1.34092,-0.517475 -1.00999,0.100862 0.15945,0.297929 0.27389,2.484448 0.27389,5.232794 0,5.144532 -0.18571,5.897099 -1.45521,5.897099 -1.27558,0 -1.45521,-0.74323 -1.45521,-6.021305 0,-4.779542 -0.007,-4.841351 -0.53456,-4.559141 -0.82399,0.440989 -2.29031,2.865845 -2.78778,4.61016 -0.66629,2.336269 -0.43628,6.151883 0.49323,8.1822 1.12261,2.452102 2.0247,3.392402 3.86666,4.030434 1.18374,0.41003 2.2469,0.23065 3.54066,-0.597402 z m 11.95826,-17.446598 c -1.99612,-1.090231 -2.38876,-1.752089 -4.65741,-7.850719 -1.72141,-4.627515 -1.99707,-6.462313 -1.32889,-8.845357 1.03253,-3.682558 4.92456,-5.635331 7.83371,-3.930459 1.57633,0.923793 2.25329,2.093018 4.14575,7.160479 1.60569,4.299569 1.67976,4.602925 1.67976,6.879167 0,2.174571 -0.0713,2.507554 -0.82121,3.836458 -1.1304,2.003116 -2.5657,2.983037 -4.53523,3.09635 -1.05029,0.06043 -1.769,-0.0469 -2.31648,-0.345919 z m 3.70644,-0.59804 c 1.33032,-0.604351 2.57397,-2.002936 3.17087,-3.565895 0.79327,-2.077149 0.47054,-4.120965 -1.46885,-9.302121 -1.86497,-4.98235 -2.88444,-6.498521 -4.71068,-7.00578 -1.6863,-0.468394 -2.14052,-0.327557 -1.02633,0.31823 1.44529,0.837698 2.18344,2.482316 2.17029,4.835467 -0.0289,5.175835 -4.3822,6.850782 -6.10193,2.347746 -0.59059,-1.546445 -0.4144,-4.106436 0.38866,-5.647148 0.44549,-0.854688 0.49227,-1.071284 0.17439,-0.807471 -0.76473,0.634669 -1.71512,2.517791 -1.98265,3.928433 -0.353,1.861399 -0.0844,3.059472 1.87533,8.36445 1.36543,3.696205 1.8306,4.656796 2.6537,5.479894 1.51573,1.515731 3.08942,1.857279 4.8572,1.054195 z m 9.64633,-14.108472 c -1.21822,-1.941007 -0.0425,-5.31309 1.7,-4.875752 2.34094,0.587539 2.06551,5.43161 -0.32237,5.669502 -0.69221,0.06896 -0.91773,-0.06098 -1.37763,-0.79375 z m -0.87599,-6.599817 c -0.58353,-0.339198 -1.23198,-1.792303 -1.23198,-2.760721 0,-0.992333 0.75301,-2.447292 1.36754,-2.642336 1.41831,-0.450156 2.60121,0.821741 2.60121,2.79693 0,1.00511 -0.62807,2.26932 -1.30827,2.63335 -0.62683,0.335471 -0.81058,0.331967 -1.4285,-0.02722 z m -2.4171,-6.417665 c -0.79793,-0.797928 -1.08948,-2.29554 -0.69999,-3.595571 0.35593,-1.187959 0.85399,-1.659511 1.75281,-1.659511 0.89883,0 1.39689,0.471552 1.75281,1.659511 0.3895,1.300031 0.0979,2.797643 -0.69998,3.595571 -0.79742,0.797419 -1.30823,0.797419 -2.10565,0 z"
       id="path1435" />
  </g>
</svg>
