<?xml version="1.0" encoding="UTF-8" standalone="no"?>
<!-- Created with Inkscape (http://www.inkscape.org/) -->

<svg
   width="210mm"
   height="297mm"
   viewBox="0 0 210 297"
   version="1.1"
   id="svg5"
   inkscape:version="1.1.2 (0a00cf5339, 2022-02-04, custom)"
   sodipodi:docname="guitar interface icon svg.svg"
   xmlns:inkscape="http://www.inkscape.org/namespaces/inkscape"
   xmlns:sodipodi="http://sodipodi.sourceforge.net/DTD/sodipodi-0.dtd"
   xmlns="http://www.w3.org/2000/svg"
   xmlns:svg="http://www.w3.org/2000/svg">
  <sodipodi:namedview
     id="namedview7"
     pagecolor="#ffffff"
     bordercolor="#666666"
     borderopacity="1.0"
     inkscape:pageshadow="2"
     inkscape:pageopacity="0.0"
     inkscape:pagecheckerboard="0"
     inkscape:document-units="mm"
     showgrid="false"
     inkscape:zoom="1.1476306"
     inkscape:cx="592.08949"
     inkscape:cy="909.26472"
     inkscape:window-width="1680"
     inkscape:window-height="956"
     inkscape:window-x="-11"
     inkscape:window-y="-11"
     inkscape:window-maximized="1"
     inkscape:current-layer="layer4" />
  <defs
     id="defs2">
    <inkscape:path-effect
       effect="spiro"
       id="path-effect907"
       is_visible="true"
       lpeversion="1" />
    <inkscape:path-effect
       effect="spiro"
       id="path-effect860"
       is_visible="true"
       lpeversion="1" />
    <inkscape:path-effect
       effect="spiro"
       id="path-effect857"
       is_visible="true"
       lpeversion="1" />
    <inkscape:path-effect
       effect="spiro"
       id="path-effect2699"
       is_visible="true"
       lpeversion="1" />
    <inkscape:path-effect
       effect="spiro"
       id="path-effect2379"
       is_visible="true"
       lpeversion="1" />
    <inkscape:path-effect
       effect="spiro"
       id="path-effect2342"
       is_visible="true"
       lpeversion="1" />
    <inkscape:path-effect
       effect="spiro"
       id="path-effect2256"
       is_visible="true"
       lpeversion="1" />
    <inkscape:path-effect
       effect="spiro"
       id="path-effect2059"
       is_visible="true"
       lpeversion="1" />
    <inkscape:path-effect
       effect="spiro"
       id="path-effect1973"
       is_visible="true"
       lpeversion="1" />
    <inkscape:path-effect
       effect="spiro"
       id="path-effect1696"
       is_visible="true"
       lpeversion="1" />
    <inkscape:path-effect
       effect="spiro"
       id="path-effect1690"
       is_visible="true"
       lpeversion="1" />
    <inkscape:path-effect
       effect="spiro"
       id="path-effect1214"
       is_visible="true"
       lpeversion="1" />
    <inkscape:path-effect
       effect="spiro"
       id="path-effect1128"
       is_visible="true"
       lpeversion="1" />
    <inkscape:path-effect
       effect="spiro"
       id="path-effect1122"
       is_visible="true"
       lpeversion="1" />
    <inkscape:path-effect
       effect="spiro"
       id="path-effect1005"
       is_visible="true"
       lpeversion="1" />
    <inkscape:path-effect
       effect="spiro"
       id="path-effect999"
       is_visible="true"
       lpeversion="1" />
    <inkscape:path-effect
       effect="skeletal"
       id="path-effect3161"
       is_visible="true"
       lpeversion="1"
       pattern="m 182.71133,36.816874 0.27078,28.580167 24.64656,-14.536578 z m -38.1894,6.580476 v 17.728634 h 31.32522 V 43.39735 Z"
       copytype="repeated"
       prop_scale="1"
       scale_y_rel="false"
       spacing="5.8"
       normal_offset="0"
       tang_offset="1.5"
       prop_units="false"
       vertical_pattern="false"
       hide_knot="false"
       fuse_tolerance="0" />
    <inkscape:path-effect
       effect="skeletal"
       id="path-effect2910"
       is_visible="true"
       lpeversion="1"
       pattern="m 182.71133,36.816874 0.27078,28.580167 24.64656,-14.536578 z m -38.1894,6.580476 v 17.728634 h 31.32522 V 43.39735 Z"
       copytype="repeated"
       prop_scale="1"
       scale_y_rel="false"
       spacing="4.6"
       normal_offset="0.3"
       tang_offset="0"
       prop_units="false"
       vertical_pattern="false"
       hide_knot="false"
       fuse_tolerance="0" />
  </defs>
  <g
     inkscape:label="Layer 1"
     inkscape:groupmode="layer"
     id="layer1">
    <g
       id="g3626"
       transform="matrix(0.57464349,0,0,0.72492317,-25.79402,-8.6034939)">
      <path
         id="path2377"
         style="fill:none;stroke:#000000;stroke-width:0.965;stroke-linecap:butt;stroke-linejoin:miter;stroke-miterlimit:4;stroke-dasharray:none;stroke-opacity:1"
         d="m 51.412018,117.69528 c 0.209686,5.91735 1.984675,11.77221 5.09615,16.80984 3.111474,5.03762 7.55207,9.24608 12.749342,12.08286 6.2905,3.43348 13.675043,4.8248 20.783698,3.91583 M 106.61206,129.68405 90.041209,150.50381 M 67.982829,96.875535 51.412018,117.69528 M 137.44112,19.769202 c 4.16842,-1.779251 8.79667,-2.46824 13.3026,-1.980307 4.50593,0.487933 8.87941,2.15169 12.57033,4.782005 3.69092,2.630315 6.691,6.22127 8.62286,10.321193 1.93187,4.099924 2.79119,8.699592 2.46987,13.220459 -0.26518,3.73097 -1.32885,7.403224 -3.09878,10.69834 M 67.982831,96.875536 c -1.779251,4.168424 -2.468242,8.796674 -1.980309,13.302604 0.487933,4.50593 2.15169,8.8794 4.782005,12.57033 2.630314,3.69092 6.221269,6.69099 10.321192,8.62286 4.099924,1.93187 8.699593,2.79119 13.22046,2.46987 3.730971,-0.26518 7.403221,-1.32885 10.698341,-3.09878 M 67.982831,96.875536 c -1.779251,4.168424 -2.468242,8.796674 -1.980309,13.302604 0.487933,4.50593 2.15169,8.8794 4.782005,12.57033 2.630314,3.69092 6.221269,6.69099 10.321192,8.62286 4.099924,1.93187 8.699593,2.79119 13.22046,2.46987 3.730971,-0.26518 7.403221,-1.32885 10.698341,-3.09878 M 171.308,56.810892 105.02452,130.74242 M 137.44112,19.769202 67.982831,96.875536"
         inkscape:original-d="m 51.412018,117.69528 c 5.948762,9.63116 11.897259,19.26206 17.845492,28.8927 5.948233,9.63064 13.856062,2.61082 20.783698,3.91583 m 16.570852,-20.81976 c -5.52337,6.94019 -11.046984,13.88011 -16.570851,20.81976 M 67.982829,96.875535 C 62.459491,103.81571 56.935885,110.75563 51.412018,117.69528 M 137.44112,19.769202 c 12.32215,8.78138 24.64404,17.56249 36.96566,26.34335 12.32163,8.78085 -2.06559,7.13249 -3.09878,10.69834 M 67.982831,96.875536 c 8.781381,12.322154 17.562497,24.644044 26.343348,36.965664 8.780851,12.32163 7.132491,-2.06559 10.698341,-3.09878 M 67.982831,96.875536 c 8.781381,12.322154 17.562497,24.644044 26.343348,36.965664 8.780851,12.32163 7.132491,-2.06559 10.698341,-3.09878 M 171.308,56.810892 c -22.09416,24.64404 -44.18867,49.287958 -66.28348,73.931528 M 137.44112,19.769202 C 114.28863,45.47159 91.135869,71.173699 67.982831,96.875536"
         inkscape:path-effect="#path-effect2379" />
      <path
         id="path3341"
         style="fill:none;fill-rule:evenodd;stroke:#000000;stroke-width:0.964999;stroke-linecap:round;stroke-linejoin:round;paint-order:stroke markers fill"
         d="M 107.49786,98.787552 A 10.834764,12.959227 0 0 1 96.663094,111.74678 10.834764,12.959227 0 0 1 85.82833,98.787552 10.834764,12.959227 0 0 1 96.663094,85.828325 10.834764,12.959227 0 0 1 107.49786,98.787552 Z m 17.14186,-34.043038 a 5.3111587,6.5858369 0 0 1 -5.31116,6.585837 5.3111587,6.5858369 0 0 1 -5.31116,-6.585837 5.3111587,6.5858369 0 0 1 5.31116,-6.585836 5.3111587,6.5858369 0 0 1 5.31116,6.585836 z m 4.63402,-2.342159 4.8009,10.318091 c 2.19537,4.718282 0.16429,10.284136 -4.55399,12.479503 l -0.30202,0.140527 c -4.71828,2.195367 -10.28413,0.164291 -12.4795,-4.55399 l -4.8009,-10.318092 c -2.19537,-4.718281 -0.16429,-10.284135 4.55398,-12.479502 l 0.30202,-0.140527 c 4.71828,-2.195367 10.28414,-0.164291 12.47951,4.55399 z m 21.1148,0.519783 a 2.9742489,3.6115878 0 0 1 -2.97425,3.611587 2.9742489,3.6115878 0 0 1 -2.97425,-3.611587 2.9742489,3.6115878 0 0 1 2.97425,-3.611588 2.9742489,3.6115878 0 0 1 2.97425,3.611588 z m -2.6458,-10.054177 a 2.9742489,3.6115878 0 0 1 -2.97425,3.611588 2.9742489,3.6115878 0 0 1 -2.97424,-3.611588 2.9742489,3.6115878 0 0 1 2.97424,-3.611587 2.9742489,3.6115878 0 0 1 2.97425,3.611587 z m -3.70411,-8.466674 a 2.9742489,3.6115878 0 0 1 -2.97425,3.611587 2.9742489,3.6115878 0 0 1 -2.97425,-3.611587 2.9742489,3.6115878 0 0 1 2.97425,-3.611588 2.9742489,3.6115878 0 0 1 2.97425,3.611588 z" />
      <rect
         style="fill:none;fill-rule:evenodd;stroke:#000000;stroke-width:0.964999;stroke-linecap:round;stroke-linejoin:round;stroke-miterlimit:4;stroke-dasharray:none;paint-order:stroke markers fill"
         id="rect3365"
         width="4.2489271"
         height="15.72103"
         x="93.252258"
         y="86.156738"
         ry="2.1244636" />
      <path
         id="path3510"
         style="fill:none;fill-rule:evenodd;stroke:#000000;stroke-width:0.421061;stroke-linecap:round;stroke-linejoin:round;paint-order:stroke markers fill"
         d="m 68.158323,126.10053 a 5.3706825,5.1582354 0 0 1 -5.370682,5.15824 5.3706825,5.1582354 0 0 1 -5.370683,-5.15824 5.3706825,5.1582354 0 0 1 5.370683,-5.15823 5.3706825,5.1582354 0 0 1 5.370682,5.15823 z m -1.905726,0.19839 a 3.6382039,3.5710857 0 0 1 -3.638204,3.57109 3.6382039,3.5710857 0 0 1 -3.638204,-3.57109 3.6382039,3.5710857 0 0 1 3.638204,-3.57108 3.6382039,3.5710857 0 0 1 3.638204,3.57108 z" />
      <path
         id="path3613"
         style="fill:none;fill-rule:evenodd;stroke:#000000;stroke-width:0.421061;stroke-linecap:round;stroke-linejoin:round;paint-order:stroke markers fill"
         d="m 89.85417,141.44646 a 5.3706825,5.1582354 0 0 1 -5.370682,5.15824 5.3706825,5.1582354 0 0 1 -5.370683,-5.15824 5.3706825,5.1582354 0 0 1 5.370683,-5.15823 5.3706825,5.1582354 0 0 1 5.370682,5.15823 z m -1.905726,0.19839 a 3.6382039,3.5710857 0 0 1 -3.638204,3.57109 3.6382039,3.5710857 0 0 1 -3.638204,-3.57109 3.6382039,3.5710857 0 0 1 3.638204,-3.57108 3.6382039,3.5710857 0 0 1 3.638204,3.57108 z" />
    </g>
  </g>
  <g
     inkscape:groupmode="layer"
     id="layer2"
     inkscape:label="Layer 2">
    <path
       style="fill:#000000;stroke-width:0.264583"
       d="m 138.82732,120.50634 c -8.22865,-1.76536 -14.49014,-9.55468 -16.2103,-20.1657 -0.22779,-1.405136 -0.35714,-2.914626 -0.28746,-3.354416 0.32052,-2.02269 9.54459,-15.676971 29.36493,-43.468542 18.66071,-26.165546 20.13854,-28.161942 21.17607,-28.606683 5.10246,-2.187169 10.36678,-0.968451 14.73082,3.410264 5.30857,5.326415 7.18546,14.385613 4.64068,22.399189 -0.54022,1.701143 -2.38593,4.397697 -19.09205,27.893147 -10.17171,14.305475 -18.75271,26.555051 -19.06886,27.221301 -1.15801,2.44031 -8.98144,14.4396 -9.62817,14.76735 -0.84843,0.42997 -3.37525,0.38689 -5.62566,-0.0959 z m 9.7829,-6.8455 c 2.21827,-3.4925 4.03955,-6.42546 4.0473,-6.51768 0.008,-0.0922 -0.71578,0.12712 -1.60784,0.48744 -4.56841,1.84526 -8.96275,1.24129 -12.98123,-1.78419 -5.19791,-3.91346 -8.2073,-11.801626 -7.35906,-19.289504 0.154,-1.359427 0.24717,-2.500773 0.20704,-2.536328 -0.0401,-0.03555 -1.90023,2.839683 -4.13358,6.389414 l -4.06063,6.454052 0.18069,1.65152 c 0.49088,4.486716 1.82094,8.608376 3.94165,12.214656 0.61109,1.03915 2.08653,2.85682 3.36403,4.14431 1.82573,1.84001 2.72397,2.51554 4.5442,3.4175 2.91392,1.44391 4.52907,1.82673 7.45537,1.76709 l 2.36884,-0.0483 z m -8.25433,3.73941 c -0.44349,-0.19885 -1.00904,-0.67089 -1.25678,-1.04898 -0.68587,-1.04677 -0.54172,-1.06085 0.40947,-0.04 0.47295,0.50758 1.21709,0.9867 1.65365,1.06472 1.0403,0.1859 2.42215,-0.66838 2.91502,-1.80213 0.21875,-0.50319 0.37582,-0.66267 0.38191,-0.38778 0.0158,0.71314 -1.60448,2.29525 -2.50318,2.44418 -0.43656,0.0723 -1.15661,-0.0312 -1.60009,-0.23001 z m -0.2536,-1.29243 c -1.38316,-1.18975 -1.03653,-4.10005 0.56067,-4.70731 0.9339,-0.35506 1.02221,-0.3356 1.92518,0.42419 0.96084,0.8085 1.29359,2.15535 0.81686,3.30629 -0.65644,1.58478 -2.09968,2.01164 -3.30271,0.97683 z m -1.67929,-2.13365 c -0.0429,-1.4043 0.21578,-2.06637 1.23356,-3.1576 1.16796,-1.25224 3.48814,-0.89139 4.32521,0.67269 0.21793,0.4072 0.0552,0.32453 -0.54747,-0.27815 -0.65805,-0.65804 -1.08536,-0.85756 -1.83668,-0.85756 -1.786,0 -2.69272,1.05077 -2.96801,3.43958 l -0.16771,1.45521 z m 6.10791,-0.18104 c 0,-0.50932 0.0545,-0.71768 0.121,-0.46302 0.0665,0.25466 0.0665,0.67138 0,0.92604 -0.0666,0.25466 -0.121,0.0463 -0.121,-0.46302 z m -16.75838,-7.52673 c -0.60794,-0.34196 -1.55926,-1.47236 -1.55926,-1.85278 0,-0.0757 0.38695,0.27757 0.8599,0.78515 0.47294,0.50758 1.21708,0.9867 1.65364,1.06472 1.04031,0.18591 2.42215,-0.66838 2.91503,-1.80213 0.21874,-0.50319 0.37581,-0.66267 0.38191,-0.38778 0.006,0.2568 -0.3766,0.886 -0.84954,1.39823 -1.00368,1.08706 -2.33066,1.39702 -3.40168,0.79459 z m -0.2567,-1.44875 c -0.57046,-0.57046 -0.77339,-1.02517 -0.77339,-1.73293 0,-1.25386 0.65085,-2.47952 1.4851,-2.79671 0.9339,-0.355056 1.02221,-0.335596 1.92518,0.42419 0.96084,0.8085 1.2936,2.15535 0.81686,3.30629 -0.6978,1.68463 -2.21679,2.03611 -3.45375,0.79916 z m -1.53094,-1.92136 c -0.0448,-1.53285 0.28011,-2.42491 1.19036,-3.268496 0.84099,-0.7794 2.55319,-0.88655 3.5057,-0.21939 0.77463,0.54257 1.61568,2.359556 1.57589,3.404516 -0.0265,0.6967 -0.0431,0.71287 -0.13579,0.13229 -0.21868,-1.37009 -0.93032,-2.88207 -1.54653,-3.285816 -1.01575,-0.66555 -2.37291,-0.53263 -3.33452,0.32657 -0.71124,0.635496 -0.862,0.995006 -1.02631,2.447396 -0.17856,1.5784 -0.19524,1.61214 -0.2288,0.46293 z m 23.11484,4.7115 c 0.7276,-0.19703 1.90114,-0.6421 2.60786,-0.98905 1.23051,-0.6041 2.09225,-1.7669 20.34443,-27.452075 11.46908,-16.139744 19.2556,-27.337395 19.55193,-28.117275 1.33393,-3.51062 1.59781,-9.228364 0.6088,-13.191673 -0.63676,-2.551733 -2.79029,-6.771112 -4.34613,-8.515297 -1.75034,-1.96223 -4.12374,-3.525004 -6.40647,-4.218362 -2.43113,-0.738435 -6.03007,-0.617275 -8.056,0.27121 -1.35583,0.594604 -1.42386,0.685791 -21.26158,28.499408 -13.48622,18.908453 -20.01325,28.274555 -20.24839,29.055872 -1.6605,5.517409 -0.5769,13.245996 2.5208,17.979172 1.38442,2.11535 3.98198,4.64906 5.64342,5.50469 2.86642,1.4762 6.28475,1.91982 9.04133,1.17338 z m -2.80266,-15.596786 c -2.39411,-1.263622 -3.93724,-4.319943 -4.14915,-8.217793 -0.25,-4.598617 1.41118,-8.542837 4.19643,-9.963763 3.70846,-1.891916 7.60489,1.419315 8.46353,7.192412 0.86163,5.7932 -2.30205,11.604604 -6.31745,11.604604 -0.565,0 -1.55201,-0.27696 -2.19336,-0.61546 z m 4.60274,-0.883342 c 2.64211,-1.691047 4.1296,-6.500418 3.27015,-10.573099 -0.69733,-3.304421 -2.115,-5.430882 -4.20184,-6.302602 -1.2585,-0.525706 -1.34092,-0.517475 -1.00999,0.100862 0.15945,0.297929 0.27389,2.484448 0.27389,5.232794 0,5.144532 -0.18571,5.897099 -1.45521,5.897099 -1.27558,0 -1.45521,-0.74323 -1.45521,-6.021305 0,-4.779542 -0.007,-4.841351 -0.53456,-4.559141 -0.82399,0.440989 -2.29031,2.865845 -2.78778,4.61016 -0.66629,2.336269 -0.43628,6.151883 0.49323,8.1822 1.12261,2.452102 2.0247,3.392402 3.86666,4.030434 1.18374,0.41003 2.2469,0.23065 3.54066,-0.597402 z m 11.95826,-17.446598 c -1.99612,-1.090231 -2.38876,-1.752089 -4.65741,-7.850719 -1.72141,-4.627515 -1.99707,-6.462313 -1.32889,-8.845357 1.03253,-3.682558 4.92456,-5.635331 7.83371,-3.930459 1.57633,0.923793 2.25329,2.093018 4.14575,7.160479 1.60569,4.299569 1.67976,4.602925 1.67976,6.879167 0,2.174571 -0.0713,2.507554 -0.82121,3.836458 -1.1304,2.003116 -2.5657,2.983037 -4.53523,3.09635 -1.05029,0.06043 -1.769,-0.0469 -2.31648,-0.345919 z m 3.70644,-0.59804 c 1.33032,-0.604351 2.57397,-2.002936 3.17087,-3.565895 0.79327,-2.077149 0.47054,-4.120965 -1.46885,-9.302121 -1.86497,-4.98235 -2.88444,-6.498521 -4.71068,-7.00578 -1.6863,-0.468394 -2.14052,-0.327557 -1.02633,0.31823 1.44529,0.837698 2.18344,2.482316 2.17029,4.835467 -0.0289,5.175835 -4.3822,6.850782 -6.10193,2.347746 -0.59059,-1.546445 -0.4144,-4.106436 0.38866,-5.647148 0.44549,-0.854688 0.49227,-1.071284 0.17439,-0.807471 -0.76473,0.634669 -1.71512,2.517791 -1.98265,3.928433 -0.353,1.861399 -0.0844,3.059472 1.87533,8.36445 1.36543,3.696205 1.8306,4.656796 2.6537,5.479894 1.51573,1.515731 3.08942,1.857279 4.8572,1.054195 z m 9.64633,-14.108472 c -1.21822,-1.941007 -0.0425,-5.31309 1.7,-4.875752 2.34094,0.587539 2.06551,5.43161 -0.32237,5.669502 -0.69221,0.06896 -0.91773,-0.06098 -1.37763,-0.79375 z m -0.87599,-6.599817 c -0.58353,-0.339198 -1.23198,-1.792303 -1.23198,-2.760721 0,-0.992333 0.75301,-2.447292 1.36754,-2.642336 1.41831,-0.450156 2.60121,0.821741 2.60121,2.79693 0,1.00511 -0.62807,2.26932 -1.30827,2.63335 -0.62683,0.335471 -0.81058,0.331967 -1.4285,-0.02722 z m -2.4171,-6.417665 c -0.79793,-0.797928 -1.08948,-2.29554 -0.69999,-3.595571 0.35593,-1.187959 0.85399,-1.659511 1.75281,-1.659511 0.89883,0 1.39689,0.471552 1.75281,1.659511 0.3895,1.300031 0.0979,2.797643 -0.69998,3.595571 -0.79742,0.797419 -1.30823,0.797419 -2.10565,0 z"
       id="path1435" />
  </g>
  <g
     inkscape:groupmode="layer"
     id="layer3"
     inkscape:label="Layer 3">
    <g
       id="g1726">
      <g
         id="g855"
         transform="matrix(0.57464349,0,0,0.72492317,-23.555283,183.92792)">
        <path
           id="path845"
           style="fill:none;stroke:#000000;stroke-width:0.965;stroke-linecap:butt;stroke-linejoin:miter;stroke-miterlimit:4;stroke-dasharray:none;stroke-opacity:1"
           d="m 51.412018,117.69528 c 0.209686,5.91735 1.984675,11.77221 5.09615,16.80984 3.111474,5.03762 7.55207,9.24608 12.749342,12.08286 6.2905,3.43348 13.675043,4.8248 20.783698,3.91583 M 106.61206,129.68405 90.041209,150.50381 M 67.982829,96.875535 51.412018,117.69528 M 137.44112,19.769202 c 4.16842,-1.779251 8.79667,-2.46824 13.3026,-1.980307 4.50593,0.487933 8.87941,2.15169 12.57033,4.782005 3.69092,2.630315 6.691,6.22127 8.62286,10.321193 1.93187,4.099924 2.79119,8.699592 2.46987,13.220459 -0.26518,3.73097 -1.32885,7.403224 -3.09878,10.69834 M 67.982831,96.875536 c -1.779251,4.168424 -2.468242,8.796674 -1.980309,13.302604 0.487933,4.50593 2.15169,8.8794 4.782005,12.57033 2.630314,3.69092 6.221269,6.69099 10.321192,8.62286 4.099924,1.93187 8.699593,2.79119 13.22046,2.46987 3.730971,-0.26518 7.403221,-1.32885 10.698341,-3.09878 M 67.982831,96.875536 c -1.779251,4.168424 -2.468242,8.796674 -1.980309,13.302604 0.487933,4.50593 2.15169,8.8794 4.782005,12.57033 2.630314,3.69092 6.221269,6.69099 10.321192,8.62286 4.099924,1.93187 8.699593,2.79119 13.22046,2.46987 3.730971,-0.26518 7.403221,-1.32885 10.698341,-3.09878 M 171.308,56.810892 105.02452,130.74242 M 137.44112,19.769202 67.982831,96.875536"
           inkscape:original-d="m 51.412018,117.69528 c 5.948762,9.63116 11.897259,19.26206 17.845492,28.8927 5.948233,9.63064 13.856062,2.61082 20.783698,3.91583 m 16.570852,-20.81976 c -5.52337,6.94019 -11.046984,13.88011 -16.570851,20.81976 M 67.982829,96.875535 C 62.459491,103.81571 56.935885,110.75563 51.412018,117.69528 M 137.44112,19.769202 c 12.32215,8.78138 24.64404,17.56249 36.96566,26.34335 12.32163,8.78085 -2.06559,7.13249 -3.09878,10.69834 M 67.982831,96.875536 c 8.781381,12.322154 17.562497,24.644044 26.343348,36.965664 8.780851,12.32163 7.132491,-2.06559 10.698341,-3.09878 M 67.982831,96.875536 c 8.781381,12.322154 17.562497,24.644044 26.343348,36.965664 8.780851,12.32163 7.132491,-2.06559 10.698341,-3.09878 M 171.308,56.810892 c -22.09416,24.64404 -44.18867,49.287958 -66.28348,73.931528 M 137.44112,19.769202 C 114.28863,45.47159 91.135869,71.173699 67.982831,96.875536"
           inkscape:path-effect="#path-effect860" />
        <path
           id="path847"
           style="fill:none;fill-rule:evenodd;stroke:#000000;stroke-width:0.964999;stroke-linecap:round;stroke-linejoin:round;paint-order:stroke markers fill"
           d="M 107.49786,98.787552 A 10.834764,12.959227 0 0 1 96.663094,111.74678 10.834764,12.959227 0 0 1 85.82833,98.787552 10.834764,12.959227 0 0 1 96.663094,85.828325 10.834764,12.959227 0 0 1 107.49786,98.787552 Z m 17.14186,-34.043038 a 5.3111587,6.5858369 0 0 1 -5.31116,6.585837 5.3111587,6.5858369 0 0 1 -5.31116,-6.585837 5.3111587,6.5858369 0 0 1 5.31116,-6.585836 5.3111587,6.5858369 0 0 1 5.31116,6.585836 z m 4.63402,-2.342159 4.8009,10.318091 c 2.19537,4.718282 0.16429,10.284136 -4.55399,12.479503 l -0.30202,0.140527 c -4.71828,2.195367 -10.28413,0.164291 -12.4795,-4.55399 l -4.8009,-10.318092 c -2.19537,-4.718281 -0.16429,-10.284135 4.55398,-12.479502 l 0.30202,-0.140527 c 4.71828,-2.195367 10.28414,-0.164291 12.47951,4.55399 z m 21.1148,0.519783 a 2.9742489,3.6115878 0 0 1 -2.97425,3.611587 2.9742489,3.6115878 0 0 1 -2.97425,-3.611587 2.9742489,3.6115878 0 0 1 2.97425,-3.611588 2.9742489,3.6115878 0 0 1 2.97425,3.611588 z m -2.6458,-10.054177 a 2.9742489,3.6115878 0 0 1 -2.97425,3.611588 2.9742489,3.6115878 0 0 1 -2.97424,-3.611588 2.9742489,3.6115878 0 0 1 2.97424,-3.611587 2.9742489,3.6115878 0 0 1 2.97425,3.611587 z m -3.70411,-8.466674 a 2.9742489,3.6115878 0 0 1 -2.97425,3.611587 2.9742489,3.6115878 0 0 1 -2.97425,-3.611587 2.9742489,3.6115878 0 0 1 2.97425,-3.611588 2.9742489,3.6115878 0 0 1 2.97425,3.611588 z" />
        <rect
           style="fill:none;fill-rule:evenodd;stroke:#000000;stroke-width:0.964999;stroke-linecap:round;stroke-linejoin:round;stroke-miterlimit:4;stroke-dasharray:none;paint-order:stroke markers fill"
           id="rect849"
           width="4.2489271"
           height="15.72103"
           x="93.252258"
           y="86.156738"
           ry="2.1244636" />
        <path
           id="path851"
           style="fill:none;fill-rule:evenodd;stroke:#000000;stroke-width:0.421061;stroke-linecap:round;stroke-linejoin:round;paint-order:stroke markers fill"
           d="m 68.158323,126.10053 a 5.3706825,5.1582354 0 0 1 -5.370682,5.15824 5.3706825,5.1582354 0 0 1 -5.370683,-5.15824 5.3706825,5.1582354 0 0 1 5.370683,-5.15823 5.3706825,5.1582354 0 0 1 5.370682,5.15823 z m -1.905726,0.19839 a 3.6382039,3.5710857 0 0 1 -3.638204,3.57109 3.6382039,3.5710857 0 0 1 -3.638204,-3.57109 3.6382039,3.5710857 0 0 1 3.638204,-3.57108 3.6382039,3.5710857 0 0 1 3.638204,3.57108 z" />
        <path
           id="path853"
           style="fill:none;fill-rule:evenodd;stroke:#000000;stroke-width:0.421061;stroke-linecap:round;stroke-linejoin:round;paint-order:stroke markers fill"
           d="m 89.85417,141.44646 a 5.3706825,5.1582354 0 0 1 -5.370682,5.15824 5.3706825,5.1582354 0 0 1 -5.370683,-5.15824 5.3706825,5.1582354 0 0 1 5.370683,-5.15823 5.3706825,5.1582354 0 0 1 5.370682,5.15823 z m -1.905726,0.19839 a 3.6382039,3.5710857 0 0 1 -3.638204,3.57109 3.6382039,3.5710857 0 0 1 -3.638204,-3.57109 3.6382039,3.5710857 0 0 1 3.638204,-3.57108 3.6382039,3.5710857 0 0 1 3.638204,3.57108 z" />
      </g>
      <path
         style="fill:#ffffff;fill-rule:evenodd;stroke:#000000;stroke-width:3.16878;stroke-linecap:round;stroke-linejoin:round;paint-order:stroke markers fill"
         d="m 101.15588,1058.3734 c -11.039173,-3.0733 -15.694694,-5.9083 -24.543846,-14.9463 -14.403539,-14.7109 -21.851176,-36.2224 -20.457306,-59.08816 0.401903,-6.59305 1.613076,-14.54836 2.691494,-17.67848 1.078419,-3.13015 35.816427,-53.08737 77.195578,-111.01608 l 75.2348,-105.32491 7.00939,-2.32814 c 10.50611,-3.48957 25.12565,-2.19779 34.85087,3.07943 25.76366,13.98019 39.84381,48.29513 33.22326,80.96891 -1.30863,6.4583 -3.58761,14.01738 -5.06442,16.79795 -1.47682,2.78057 -34.28123,49.47777 -72.89871,103.77156 -69.59311,97.84362 -70.28206,98.74982 -77.96037,102.54392 -9.77694,4.8311 -19.61013,5.9126 -29.28074,3.2203 z m 30.81868,-58.91293 c 2.81358,-1.89606 6.50971,-6.62324 9.02248,-11.53936 3.91576,-7.66096 4.25286,-9.46395 4.21131,-22.52485 -0.0401,-12.5896 -0.47135,-15.0149 -3.8088,-21.41731 -7.06484,-13.55287 -16.53987,-18.30478 -27.64159,-13.86274 -11.13944,4.45711 -17.790763,18.217 -17.689602,36.59525 0.07595,13.79796 3.909178,23.71563 11.986762,31.01324 4.67496,4.2236 6.47713,4.9476 12.31491,4.9476 4.78104,0 8.27246,-0.9663 11.60453,-3.21183 z m 60.35381,-68.78498 c 8.36706,-4.70254 12.03975,-11.41343 12.62395,-23.06693 0.46047,-9.18559 -0.0788,-11.54575 -6.63416,-29.03636 -7.94385,-21.1952 -12.55676,-27.22373 -22.21787,-29.03616 -7.74782,-1.4535 -16.99984,3.7207 -21.66008,12.11342 -5.64885,10.17313 -4.85822,20.61271 3.17877,41.97286 7.38111,19.617 10.27904,24.36382 16.8519,27.60346 6.25496,3.08294 11.69109,2.91543 17.85749,-0.55029 z m 43.78251,-54.40882 c 7.88982,-10.03027 -1.04875,-26.03473 -10.01076,-17.92421 -3.71423,3.36133 -3.56469,15.0133 0.24151,18.81951 3.78077,3.78077 6.27054,3.55259 9.76925,-0.8953 z m -4.91341,-27.62305 c 3.73815,-5.33695 2.26855,-16.51019 -2.59905,-19.76037 -5.20674,-3.47663 -10.71816,2.25642 -10.71816,11.14919 0,10.64118 8.18725,15.93522 13.31721,8.61118 z m -9.08652,-22.24987 c 2.0154,-2.0154 2.82046,-4.70076 2.82046,-9.40799 0,-7.46526 -2.87698,-11.74543 -7.89486,-11.74543 -7.21485,0 -10.26778,13.17329 -4.69484,20.25813 3.4987,4.44789 5.98847,4.67606 9.76924,0.89529 z"
         id="path924"
         transform="scale(0.26458333)" />
      <path
         style="fill:#ffffff;fill-rule:evenodd;stroke:#000000;stroke-width:3.16878;stroke-linecap:round;stroke-linejoin:round;paint-order:stroke markers fill"
         d="m 80.38301,1103.6416 c -10.767571,-3.4143 -18.38567,-8.3528 -28.262074,-18.3211 -14.789409,-14.927 -24.655789,-36.1396 -26.872445,-57.7754 l -0.912721,-8.9087 13.921338,-22.07689 13.921337,-22.07688 0.765985,17.26784 c 0.561352,12.65473 1.620646,19.78843 3.965155,26.70293 6.09799,17.9843 19.024407,33.6072 33.74503,40.7844 8.698652,4.2411 27.659355,5.3416 36.915975,2.1426 3.46003,-1.1957 6.39851,-2.0435 6.52996,-1.884 0.13145,0.1596 -6.1898,10.5748 -14.04722,23.1449 l -14.28621,22.8547 -9.871599,-0.033 c -5.429379,-0.018 -12.410009,-0.8377 -15.512511,-1.8215 z m 22.20318,-8.9206 c 5.8497,-5.2716 5.85693,-17.7716 0.0137,-23.6149 -9.856047,-9.856 -24.245114,1.7319 -20.099521,16.1868 0.709373,2.4734 2.087651,5.4585 3.062838,6.6335 4.094387,4.9335 12.019764,5.3034 17.023033,0.7946 z m -49.624517,-39.9121 c 7.884725,-4.2198 9.162563,-20.2762 2.097324,-26.3534 -8.899888,-7.6554 -20.59847,-0.4644 -20.458433,12.5755 0.116355,10.8347 10.001076,18.2521 18.361109,13.7779 z"
         id="path963"
         transform="scale(0.26458333)" />
      <path
         style="fill:#ffffff;fill-rule:evenodd;stroke:#000000;stroke-width:1.94123;stroke-linecap:round;stroke-linejoin:round;paint-order:stroke markers fill"
         d="m 228.72724,874.07049 c -2.64666,-2.84473 -3.19167,-7.3605 -1.32942,-11.01497 2.19274,-4.30302 5.28685,-4.19788 7.46139,0.25354 1.88658,3.86197 1.42324,7.99594 -1.21341,10.82605 -2.18945,2.3501 -2.67794,2.34368 -4.91856,-0.0646 z"
         id="path1041"
         transform="scale(0.26458333)" />
      <path
         style="fill:#ffffff;fill-rule:evenodd;stroke:#000000;stroke-width:1.94123;stroke-linecap:round;stroke-linejoin:round;paint-order:stroke markers fill"
         d="m 222.52196,846.09258 c -3.13225,-3.98201 -1.91139,-12.57106 1.9616,-13.8003 1.2838,-0.40746 2.32916,0.1 3.85124,1.86951 1.77572,2.06441 2.02684,3.07724 1.67382,6.75116 -0.29823,3.10369 -0.96087,4.76413 -2.35022,5.88916 -2.53805,2.05519 -3.01336,1.98953 -5.13644,-0.70953 z"
         id="path1080"
         transform="scale(0.26458333)" />
      <path
         style="fill:#ffffff;fill-rule:evenodd;stroke:#000000;stroke-width:1.94123;stroke-linecap:round;stroke-linejoin:round;paint-order:stroke markers fill"
         d="m 215.35752,824.12427 c -3.8502,-2.24405 -3.62002,-12.59249 0.32707,-14.70491 2.47549,-1.32484 4.07184,-0.40367 5.58774,3.22438 1.58369,3.79031 0.97332,8.29333 -1.45302,10.71967 -1.89888,1.89888 -2.37109,1.97941 -4.46179,0.76086 z"
         id="path1119"
         transform="scale(0.26458333)" />
      <path
         style="fill:#ffffff;fill-rule:evenodd;stroke:#000000;stroke-width:1.94123;stroke-linecap:round;stroke-linejoin:round;paint-order:stroke markers fill"
         d="m 165.58402,886.80144 c -6.99509,-5.88599 -6.94172,-22.64454 0.091,-28.56216 9.25952,-7.79137 18.59108,10.85894 12.18634,24.35594 -1.50979,3.18165 -5.635,6.36881 -8.25086,6.37465 -0.79506,0.002 -2.60696,-0.97402 -4.02645,-2.16843 z"
         id="path1158"
         transform="scale(0.26458333)" />
      <path
         style="fill:#ffffff;fill-rule:evenodd;stroke:#000000;stroke-width:1.94123;stroke-linecap:round;stroke-linejoin:round;paint-order:stroke markers fill"
         d="m 90.537923,1090.6956 c -4.330765,-3.0334 -4.330765,-11.6479 0,-14.6813 4.603893,-3.2247 10.108687,0.3119 10.108687,6.4943 0,7.5319 -5.121714,11.68 -10.108687,8.187 z"
         id="path1197"
         transform="scale(0.26458333)" />
      <path
         style="fill:#ffffff;fill-rule:evenodd;stroke:#000000;stroke-width:1.94123;stroke-linecap:round;stroke-linejoin:round;paint-order:stroke markers fill"
         d="m 43.825735,1049.0839 c -1.760636,-0.7084 -3.653481,-5.1207 -3.653481,-8.5165 0,-2.311 0.66262,-3.7957 2.525303,-5.6584 3.794335,-3.7943 7.480873,-3.0801 10.083923,1.9537 3.537534,6.8408 -2.352223,14.8781 -8.955745,12.2212 z"
         id="path1236"
         transform="scale(0.26458333)" />
      <path
         style="fill:#ffffff;fill-rule:evenodd;stroke:#000000;stroke-width:1.94123;stroke-linecap:round;stroke-linejoin:round;paint-order:stroke markers fill"
         d="m 116.2851,971.58336 c -0.68826,-0.8293 -0.91669,-6.62661 -0.75373,-19.12882 0.21155,-16.22953 0.38272,-18.0301 1.79629,-18.8962 1.25064,-0.76626 1.81098,-0.62264 2.80774,0.71967 0.9853,1.32688 1.24528,5.22176 1.24528,18.65635 0,15.35217 -0.15141,17.11639 -1.57988,18.40915 -1.91831,1.73604 -2.25491,1.75901 -3.5157,0.23985 z"
         id="path1275"
         transform="scale(0.26458333)" />
      <path
         style="fill:#ffffff;fill-rule:evenodd;stroke:#000000;stroke-width:1.28621;stroke-linecap:round;stroke-linejoin:round;paint-order:stroke markers fill"
         d="m 91.674893,1095.3423 c -4.578288,-1.6461 -7.253571,-5.7878 -7.693016,-11.9097 -0.350183,-4.8784 0.821296,-8.1825 3.881359,-10.947 4.188383,-3.784 8.543823,-3.9637 12.634864,-0.5213 3.6618,3.0812 5.47123,10.0735 4.007,15.4846 -1.59485,5.8937 -7.790588,9.7055 -12.830207,7.8934 z m 6.502576,-2.7492 c 2.850001,-1.9368 4.285091,-5.1509 4.281011,-9.5879 -0.006,-6.4724 -3.718493,-10.6453 -9.030757,-10.1505 -3.197424,0.2978 -5.1842,1.8487 -6.770113,5.285 -4.143386,8.9775 4.190824,19.434 11.519859,14.4534 z"
         id="path1314"
         transform="scale(0.26458333)" />
      <path
         style="fill:#ffffff;fill-rule:evenodd;stroke:#000000;stroke-width:1.28621;stroke-linecap:round;stroke-linejoin:round;paint-order:stroke markers fill"
         d="m 176.20791,927.90866 c -3.98495,-2.01651 -6.94623,-4.99595 -8.96736,-9.02234 -1.66769,-3.32228 -12.06726,-31.52384 -13.0201,-35.30789 -0.96763,-3.84284 -0.39002,-12.46511 1.09226,-16.30459 1.1717,-3.035 3.99844,-7.80634 4.39178,-7.413 0.11095,0.11096 -0.27913,1.61571 -0.86685,3.3439 -4.07577,11.98467 0.48767,26.27782 9.1331,28.60579 6.30037,1.69651 12.41964,-3.94021 14.4241,-13.28667 0.88897,-4.14514 0.31001,-12.05547 -1.16688,-15.94307 -1.41056,-3.71301 -4.35086,-7.3793 -7.043,-8.78196 l -1.88868,-0.98405 2.72079,0.31571 c 4.96595,0.57623 9.75625,3.83632 12.94988,8.81316 2.48248,3.86862 13.66784,34.59655 14.46868,39.74774 1.20419,7.74569 -1.69007,16.97095 -6.98578,22.26665 -3.73695,3.73696 -6.84902,5.19735 -11.70532,5.49291 -3.61107,0.21978 -4.35556,0.0674 -7.53662,-1.54229 z"
         id="path1550"
         transform="scale(0.26458333)" />
      <path
         style="fill:#ffffff;fill-rule:evenodd;stroke:#000000;stroke-width:1.28621;stroke-linecap:round;stroke-linejoin:round;paint-order:stroke markers fill"
         d="m 43.492736,1053.0144 c -3.662134,-1.5957 -7.144518,-7.624 -7.144518,-12.3678 0,-3.4773 1.804643,-7.6989 4.330536,-10.1304 3.955216,-3.8075 8.731869,-4.026 12.65774,-0.579 3.047552,2.6758 4.171836,5.5877 4.134881,10.7094 -0.04487,6.2188 -1.274122,8.9126 -5.318578,11.6556 -2.499417,1.695 -5.784389,1.9652 -8.660061,0.7122 z m 7.28564,-2.1398 c 1.723718,-0.9026 3.805699,-4.1625 4.425864,-6.9298 1.711182,-7.6356 -3.947259,-14.8425 -10.237168,-13.0386 -8.464946,2.4277 -8.6449,18.0561 -0.23727,20.606 1.708874,0.5183 4.378748,0.2369 6.048574,-0.6376 z"
         id="path1589"
         transform="scale(0.26458333)" />
    </g>
  </g>
  <g
     inkscape:groupmode="layer"
     id="layer4"
     inkscape:label="Layer 4">
    <path
       style="fill:#005522;fill-rule:evenodd;stroke:#000000;stroke-width:2.09415;stroke-linecap:round;stroke-linejoin:round;paint-order:stroke markers fill"
       d=""
       id="path1330"
       transform="scale(0.26458333)" />
    <g
       id="g2464">
      <g
         id="g903"
         transform="matrix(0.57464349,0,0,0.72492317,102.67607,180.46397)">
        <path
           id="path893"
           style="fill:none;stroke:#000000;stroke-width:0.965;stroke-linecap:butt;stroke-linejoin:miter;stroke-miterlimit:4;stroke-dasharray:none;stroke-opacity:1"
           d="m 51.412018,117.69528 c 0.209686,5.91735 1.984675,11.77221 5.09615,16.80984 3.111474,5.03762 7.55207,9.24608 12.749342,12.08286 6.2905,3.43348 13.675043,4.8248 20.783698,3.91583 M 106.61206,129.68405 90.041209,150.50381 M 67.982829,96.875535 51.412018,117.69528 M 137.44112,19.769202 c 4.16842,-1.779251 8.79667,-2.46824 13.3026,-1.980307 4.50593,0.487933 8.87941,2.15169 12.57033,4.782005 3.69092,2.630315 6.691,6.22127 8.62286,10.321193 1.93187,4.099924 2.79119,8.699592 2.46987,13.220459 -0.26518,3.73097 -1.32885,7.403224 -3.09878,10.69834 M 67.982831,96.875536 c -1.779251,4.168424 -2.468242,8.796674 -1.980309,13.302604 0.487933,4.50593 2.15169,8.8794 4.782005,12.57033 2.630314,3.69092 6.221269,6.69099 10.321192,8.62286 4.099924,1.93187 8.699593,2.79119 13.22046,2.46987 3.730971,-0.26518 7.403221,-1.32885 10.698341,-3.09878 M 67.982831,96.875536 c -1.779251,4.168424 -2.468242,8.796674 -1.980309,13.302604 0.487933,4.50593 2.15169,8.8794 4.782005,12.57033 2.630314,3.69092 6.221269,6.69099 10.321192,8.62286 4.099924,1.93187 8.699593,2.79119 13.22046,2.46987 3.730971,-0.26518 7.403221,-1.32885 10.698341,-3.09878 M 171.308,56.810892 105.02452,130.74242 M 137.44112,19.769202 67.982831,96.875536"
           inkscape:original-d="m 51.412018,117.69528 c 5.948762,9.63116 11.897259,19.26206 17.845492,28.8927 5.948233,9.63064 13.856062,2.61082 20.783698,3.91583 m 16.570852,-20.81976 c -5.52337,6.94019 -11.046984,13.88011 -16.570851,20.81976 M 67.982829,96.875535 C 62.459491,103.81571 56.935885,110.75563 51.412018,117.69528 M 137.44112,19.769202 c 12.32215,8.78138 24.64404,17.56249 36.96566,26.34335 12.32163,8.78085 -2.06559,7.13249 -3.09878,10.69834 M 67.982831,96.875536 c 8.781381,12.322154 17.562497,24.644044 26.343348,36.965664 8.780851,12.32163 7.132491,-2.06559 10.698341,-3.09878 M 67.982831,96.875536 c 8.781381,12.322154 17.562497,24.644044 26.343348,36.965664 8.780851,12.32163 7.132491,-2.06559 10.698341,-3.09878 M 171.308,56.810892 c -22.09416,24.64404 -44.18867,49.287958 -66.28348,73.931528 M 137.44112,19.769202 C 114.28863,45.47159 91.135869,71.173699 67.982831,96.875536"
           inkscape:path-effect="#path-effect907" />
        <path
           id="path895"
           style="fill:none;fill-rule:evenodd;stroke:#000000;stroke-width:0.964999;stroke-linecap:round;stroke-linejoin:round;paint-order:stroke markers fill"
           d="M 107.49786,98.787552 A 10.834764,12.959227 0 0 1 96.663094,111.74678 10.834764,12.959227 0 0 1 85.82833,98.787552 10.834764,12.959227 0 0 1 96.663094,85.828325 10.834764,12.959227 0 0 1 107.49786,98.787552 Z m 17.14186,-34.043038 a 5.3111587,6.5858369 0 0 1 -5.31116,6.585837 5.3111587,6.5858369 0 0 1 -5.31116,-6.585837 5.3111587,6.5858369 0 0 1 5.31116,-6.585836 5.3111587,6.5858369 0 0 1 5.31116,6.585836 z m 4.63402,-2.342159 4.8009,10.318091 c 2.19537,4.718282 0.16429,10.284136 -4.55399,12.479503 l -0.30202,0.140527 c -4.71828,2.195367 -10.28413,0.164291 -12.4795,-4.55399 l -4.8009,-10.318092 c -2.19537,-4.718281 -0.16429,-10.284135 4.55398,-12.479502 l 0.30202,-0.140527 c 4.71828,-2.195367 10.28414,-0.164291 12.47951,4.55399 z m 21.1148,0.519783 a 2.9742489,3.6115878 0 0 1 -2.97425,3.611587 2.9742489,3.6115878 0 0 1 -2.97425,-3.611587 2.9742489,3.6115878 0 0 1 2.97425,-3.611588 2.9742489,3.6115878 0 0 1 2.97425,3.611588 z m -2.6458,-10.054177 a 2.9742489,3.6115878 0 0 1 -2.97425,3.611588 2.9742489,3.6115878 0 0 1 -2.97424,-3.611588 2.9742489,3.6115878 0 0 1 2.97424,-3.611587 2.9742489,3.6115878 0 0 1 2.97425,3.611587 z m -3.70411,-8.466674 a 2.9742489,3.6115878 0 0 1 -2.97425,3.611587 2.9742489,3.6115878 0 0 1 -2.97425,-3.611587 2.9742489,3.6115878 0 0 1 2.97425,-3.611588 2.9742489,3.6115878 0 0 1 2.97425,3.611588 z" />
        <rect
           style="fill:none;fill-rule:evenodd;stroke:#000000;stroke-width:0.964999;stroke-linecap:round;stroke-linejoin:round;stroke-miterlimit:4;stroke-dasharray:none;paint-order:stroke markers fill"
           id="rect897"
           width="4.2489271"
           height="15.72103"
           x="93.252258"
           y="86.156738"
           ry="2.1244636" />
        <path
           id="path899"
           style="fill:none;fill-rule:evenodd;stroke:#000000;stroke-width:0.421061;stroke-linecap:round;stroke-linejoin:round;paint-order:stroke markers fill"
           d="m 68.158323,126.10053 a 5.3706825,5.1582354 0 0 1 -5.370682,5.15824 5.3706825,5.1582354 0 0 1 -5.370683,-5.15824 5.3706825,5.1582354 0 0 1 5.370683,-5.15823 5.3706825,5.1582354 0 0 1 5.370682,5.15823 z m -1.905726,0.19839 a 3.6382039,3.5710857 0 0 1 -3.638204,3.57109 3.6382039,3.5710857 0 0 1 -3.638204,-3.57109 3.6382039,3.5710857 0 0 1 3.638204,-3.57108 3.6382039,3.5710857 0 0 1 3.638204,3.57108 z" />
        <path
           id="path901"
           style="fill:none;fill-rule:evenodd;stroke:#000000;stroke-width:0.421061;stroke-linecap:round;stroke-linejoin:round;paint-order:stroke markers fill"
           d="m 89.85417,141.44646 a 5.3706825,5.1582354 0 0 1 -5.370682,5.15824 5.3706825,5.1582354 0 0 1 -5.370683,-5.15824 5.3706825,5.1582354 0 0 1 5.370683,-5.15823 5.3706825,5.1582354 0 0 1 5.370682,5.15823 z m -1.905726,0.19839 a 3.6382039,3.5710857 0 0 1 -3.638204,3.57109 3.6382039,3.5710857 0 0 1 -3.638204,-3.57109 3.6382039,3.5710857 0 0 1 3.638204,-3.57108 3.6382039,3.5710857 0 0 1 3.638204,3.57108 z" />
      </g>
      <path
         style="fill:#93a7ac;fill-rule:evenodd;stroke:#000000;stroke-width:2.09415;stroke-linecap:round;stroke-linejoin:round;paint-order:stroke markers fill"
         d="m 559.86606,1091.3309 c -30.63212,-8.026 -53.47822,-38.8619 -57.86895,-78.1071 l -0.86414,-7.7239 14.47777,-23.0148 c 7.96277,-12.65815 14.56828,-23.1288 14.67892,-23.26812 0.11064,-0.13931 0.01,5.73214 -0.224,13.04768 -0.34616,10.82933 -0.0836,14.94796 1.41292,22.1641 5.70713,27.51954 23.17466,48.92194 44.45015,54.46354 9.95372,2.5926 22.67481,1.7841 31.49676,-2.0019 1.92742,-0.8271 3.72869,-1.2796 4.0028,-1.0055 0.27413,0.2741 -6.12584,11.0259 -14.22214,23.8928 l -14.72055,23.3944 -7.9218,-0.033 c -4.69297,-0.02 -10.68361,-0.7565 -14.69774,-1.8083 z m 19.06977,-9.4307 c 6.39151,-5.8915 6.62382,-17.3521 0.49345,-24.3433 -0.78847,-0.8992 -3.0292,-2.0645 -4.97941,-2.5897 -11.55313,-3.1109 -19.85441,12.5188 -12.77029,24.044 1.029,1.6741 2.98589,3.6731 4.34864,4.4422 3.50876,1.9803 9.9098,1.2101 12.90761,-1.5532 z m -49.53535,-40.4962 c 8.43661,-4.0035 10.10057,-17.9216 3.02148,-25.2731 -3.44086,-3.5732 -7.02084,-4.5327 -11.4539,-3.0696 -5.1166,1.6886 -8.24292,6.541 -8.62706,13.3902 -0.38436,6.8529 1.48286,11.1579 6.20901,14.3152 3.7321,2.4932 6.58613,2.6608 10.85047,0.6373 z"
         id="path989"
         transform="scale(0.26458333)" />
      <path
         style="fill:#53676c;fill-rule:evenodd;stroke:#000000;stroke-width:2.09415;stroke-linecap:round;stroke-linejoin:round;paint-order:stroke markers fill"
         d="m 580.45125,1046.1804 c -26.87406,-6.0239 -45.71503,-32.0894 -47.51936,-65.74064 -0.54533,-10.17054 1.1726,-23.94668 3.75443,-30.10697 0.68651,-1.63801 34.91165,-50.10023 76.05587,-107.69383 l 74.80767,-104.71561 5.25044,-2.46174 c 4.76161,-2.23254 6.29167,-2.46173 16.43417,-2.46173 h 11.18372 l 8.27452,3.9754 c 19.55671,9.3958 33.08186,30.70151 36.16352,56.96714 1.33258,11.35784 0.12895,24.11675 -3.29105,34.88642 -2.074,6.53104 -7.40747,14.31854 -74.34733,108.55601 -64.48708,90.78445 -72.55656,101.77065 -76.30695,103.88855 -8.82998,4.9862 -21.20926,6.9805 -30.45965,4.907 z m 25.72339,-58.24586 c 13.61943,-6.94812 20.63805,-31.34812 14.62164,-50.83171 -4.71837,-15.28002 -16.24556,-23.99277 -27.72098,-20.9527 -5.69373,1.50838 -13.65714,9.77398 -16.43045,17.05394 -8.33845,21.88849 -1.09437,49.20613 14.72238,55.51855 3.89593,1.55486 10.95087,1.17937 14.80741,-0.78808 z M 668.35826,917.934 c 4.78235,-2.3151 9.23115,-7.17132 11.85168,-12.93702 1.4882,-3.27437 1.93003,-6.15342 1.93807,-12.62904 0.0101,-8.07076 -0.22378,-9.01421 -6.18567,-24.96136 -7.22417,-19.32357 -9.7776,-24.06615 -14.71729,-27.33508 -8.1319,-5.38143 -16.65907,-4.66817 -24.09266,2.01528 -6.45871,5.80694 -8.88698,11.73656 -8.95033,21.85586 -0.0476,7.60534 0.22286,8.65337 6.77061,26.23462 7.29279,19.58178 10.1318,24.27846 16.80772,27.80559 4.57138,2.41523 11.53012,2.39471 16.57787,-0.0488 z m 45.31299,-55.04986 c 4.01975,-5.40758 2.67626,-15.62537 -2.50049,-19.01731 -5.08143,-3.32948 -10.79008,2.34482 -10.79008,10.72516 0,3.98618 1.00215,6.69139 3.56704,9.62886 2.17449,2.49036 7.41409,1.77006 9.72353,-1.33671 z m -7.42587,-25.98341 c 7.24152,-5.69617 4.45499,-21.42089 -3.79592,-21.42089 -4.17163,0 -6.9573,3.64708 -7.46539,9.77388 -0.47713,5.75366 0.90054,10.08588 3.86847,12.1647 2.63545,1.84594 4.55924,1.71123 7.39284,-0.51769 z m -8.52046,-22.42788 c 4.40224,-2.35601 5.95256,-12.9412 2.68119,-18.30652 -3.62175,-5.93997 -10.55936,-4.79816 -12.97578,2.13559 -3.40784,9.77854 3.10958,20.01623 10.29459,16.17093 z"
         id="path1217"
         transform="scale(0.26458333)" />
      <path
         style="fill:#005522;fill-rule:evenodd;stroke:#000000;stroke-width:2.09415;stroke-linecap:round;stroke-linejoin:round;paint-order:stroke markers fill"
         d="m 691.52774,809.8889 c -2.36073,-2.60857 -2.41163,-9.45182 -0.0894,-12.01838 2.47797,-2.73867 4.9157,-2.44731 6.58846,0.78745 1.96593,3.8017 1.77771,7.73037 -0.5097,10.63833 -2.31303,2.94055 -3.737,3.08144 -5.98937,0.5926 z"
         id="path1369"
         transform="scale(0.26458333)" />
      <path
         style="fill:#784421;fill-rule:evenodd;stroke:#000000;stroke-width:2.09415;stroke-linecap:round;stroke-linejoin:round;paint-order:stroke markers fill"
         d="m 699.42546,832.48842 c -3.35091,-4.24634 -1.45376,-13.28067 2.78885,-13.28067 4.44893,0 6.61098,8.57943 3.39785,13.48329 -1.99117,3.0389 -3.67216,2.98385 -6.1867,-0.20262 z"
         id="path1558"
         transform="scale(0.26458333)" />
      <path
         style="fill:#aa0000;fill-rule:evenodd;stroke:#000000;stroke-width:2.09415;stroke-linecap:round;stroke-linejoin:round;paint-order:stroke markers fill"
         d="m 704.43633,858.92045 c -1.83592,-3.84998 -1.12294,-8.88091 1.609,-11.35327 2.50707,-2.26887 4.62721,-0.97022 6.33515,3.88051 1.11577,3.16888 1.09172,4.09449 -0.18543,7.13608 -2.00214,4.76817 -5.57163,4.92306 -7.75872,0.33668 z"
         id="path1634"
         transform="scale(0.26458333)" />
      <path
         style="fill:#b7c4c8;fill-rule:evenodd;stroke:#000000;stroke-width:0.733051;stroke-linecap:round;stroke-linejoin:round;paint-order:stroke markers fill"
         d="m 568.88908,1082.5124 c -3.67164,-1.309 -6.08387,-3.8727 -7.51441,-7.9863 -0.72283,-2.0785 -0.80046,-2.7382 -0.66928,-5.6877 0.13481,-3.0312 0.25804,-3.5583 1.34713,-5.7619 3.46991,-7.0209 10.74795,-8.8933 15.98032,-4.1112 3.20078,2.9253 4.64014,6.7383 4.385,11.6161 -0.13514,2.5837 -0.32075,3.357 -1.29669,5.4024 -1.37766,2.8873 -3.31471,4.9521 -5.64775,6.0202 -2.39684,1.0973 -4.48118,1.2582 -6.58432,0.5084 z m 5.77442,-2.804 c 3.22489,-1.5883 5.06302,-5.4971 4.83434,-10.2802 -0.16652,-3.4829 -1.2059,-5.8887 -3.36529,-7.7895 -5.99786,-5.2795 -14.30947,0.7436 -13.39859,9.7095 0.72494,7.1357 6.37562,11.0957 11.92954,8.3602 z"
         id="path1823"
         transform="scale(0.26458333)" />
      <path
         style="fill:#b7c4c8;fill-rule:evenodd;stroke:#000000;stroke-width:0.733051;stroke-linecap:round;stroke-linejoin:round;paint-order:stroke markers fill"
         d="m 521.55401,1040.4184 c -3.22959,-1.1519 -6.06875,-4.2051 -7.27707,-7.8257 -0.57599,-1.7259 -0.66942,-2.659 -0.57234,-5.716 0.10721,-3.3761 0.20016,-3.8243 1.22487,-5.9058 1.24905,-2.5372 3.20179,-4.6661 5.30323,-5.7818 2.0401,-1.0831 6.34103,-1.0831 8.38113,0 4.75178,2.5228 7.5495,8.7099 6.62562,14.6524 -1.19724,7.701 -7.68678,12.7164 -13.68544,10.5769 z m 4.33731,-2.0509 c 5.792,-1.6072 8.49413,-9.9438 5.25339,-16.2078 -1.53044,-2.9581 -5.11101,-4.9473 -8.09869,-4.4993 -6.10389,0.9153 -9.39068,9.4345 -6.16661,15.9835 1.19983,2.4372 2.80042,3.9256 4.93397,4.588 1.8335,0.5694 2.44188,0.5896 4.07794,0.1356 z"
         id="path1862"
         transform="scale(0.26458333)" />
      <path
         style="fill:#1c2224;fill-rule:evenodd;stroke:#000000;stroke-width:0.733051;stroke-linecap:round;stroke-linejoin:round;paint-order:stroke markers fill"
         d="m 568.43478,1078.4275 c -3.99855,-2.1104 -5.60623,-7.784 -3.55611,-12.5496 0.75322,-1.7509 2.68312,-3.7787 4.11401,-4.3228 1.65795,-0.6303 3.81753,-0.3715 5.42944,0.6508 5.69308,3.6104 5.14379,13.5949 -0.90044,16.3676 -1.76408,0.8092 -3.36415,0.7633 -5.0869,-0.146 z"
         id="path1938"
         transform="scale(0.26458333)" />
      <path
         style="fill:#1c2224;fill-rule:evenodd;stroke:#000000;stroke-width:0.733051;stroke-linecap:round;stroke-linejoin:round;paint-order:stroke markers fill"
         d="m 521.65026,1036.5622 c -3.01117,-1.5807 -4.74105,-4.7079 -4.71609,-8.5254 0.0525,-8.0369 7.42038,-11.7861 12.1965,-6.2063 3.81295,4.4546 2.24754,12.6476 -2.82108,14.7649 -1.53499,0.6412 -3.39988,0.6279 -4.65933,-0.033 z"
         id="path1977"
         transform="scale(0.26458333)" />
      <path
         style="fill:#164450;fill-rule:evenodd;stroke:#000000;stroke-width:0.733051;stroke-linecap:round;stroke-linejoin:round;paint-order:stroke markers fill"
         d="m 595.02415,986.37773 c -8.62912,-1.87754 -15.50817,-10.76485 -18.31149,-23.65733 -1.06171,-4.88284 -1.20812,-13.71025 -0.30842,-18.59541 1.56389,-8.49149 5.47037,-16.28479 10.37199,-20.69176 3.02072,-2.71589 2.74293,-4.33547 2.63844,15.38278 -0.10296,19.43182 -0.0616,19.89363 1.97616,22.05427 3.06147,3.2461 7.87675,1.74865 9.21848,-2.86675 0.43515,-1.49688 0.49292,-4.18667 0.41121,-19.14671 -0.0881,-16.12261 -0.13892,-17.48555 -0.69004,-18.49576 -0.32723,-0.59982 -0.52063,-1.16492 -0.42978,-1.25578 0.36728,-0.36728 2.98976,0.3551 5.07337,1.39748 9.5103,4.75781 15.97371,19.34869 15.25649,34.44088 -0.77171,16.23888 -8.75511,29.18728 -19.3843,31.4397 -2.63382,0.55813 -3.2338,0.55755 -5.82211,-0.006 z"
         id="path2053"
         transform="scale(0.26458333)" />
      <path
         style="fill:#164450;fill-rule:evenodd;stroke:#000000;stroke-width:0.733051;stroke-linecap:round;stroke-linejoin:round;paint-order:stroke markers fill"
         d="m 644.31474,875.17423 c -6.83057,-3.18757 -9.5587,-16.46793 -5.24773,-25.54561 4.20567,-8.85593 12.19124,-8.8309 16.35342,0.0513 2.77309,5.91782 2.77309,13.6563 0,19.57412 -1.3696,2.92274 -3.00223,4.78055 -5.13516,5.84344 -2.10987,1.05139 -3.83457,1.07357 -5.97053,0.0768 z"
         id="path2092"
         transform="scale(0.26458333)" />
      <path
         style="fill:#999999;fill-rule:evenodd;stroke:#000000;stroke-width:0.733051;stroke-linecap:round;stroke-linejoin:round;paint-order:stroke markers fill"
         d="m 655.24362,915.9568 c -4.75731,-1.68409 -8.73358,-5.36373 -11.33641,-10.49069 -0.36436,-0.71772 -3.3172,-8.51221 -6.56185,-17.32108 -6.59123,-17.89442 -7.10875,-19.82382 -6.78621,-25.29971 0.33017,-5.60529 2.04529,-10.75871 4.90782,-14.7465 1.55648,-2.16832 3.46489,-4.13825 3.46489,-3.57658 0,0.19103 -0.19843,0.51201 -0.44096,0.71329 -0.71615,0.59435 -2.43888,4.61486 -3.17178,7.4023 -0.95798,3.64348 -0.95646,10.01669 0.003,13.68004 1.45161,5.54094 4.52417,10.04911 8.01366,11.75791 1.81027,0.88649 6.01139,0.89384 7.7846,0.0136 1.84472,-0.9157 4.27767,-3.33735 5.59907,-5.57305 4.20616,-7.11644 4.19774,-19.07702 -0.0184,-26.09882 -2.04779,-3.41054 -4.39405,-5.37192 -7.39072,-6.17837 l -1.73354,-0.46652 2.44677,-0.0135 c 3.03656,-0.0168 4.80938,0.38043 7.40846,1.65977 3.93353,1.9362 7.86104,6.39928 9.77415,11.10701 2.41138,5.93387 11.52019,31.12742 11.95573,33.0677 1.63229,7.27166 0.48197,15.09148 -3.11396,21.1686 -2.6156,4.42035 -7.54886,8.28924 -12.12268,9.50714 -2.60667,0.6941 -6.20411,0.56459 -8.68194,-0.31256 z"
         id="path2244"
         transform="scale(0.26458333)" />
      <path
         style="fill:#ffffff;fill-rule:evenodd;stroke:#000000;stroke-width:0.733051;stroke-linecap:round;stroke-linejoin:round;paint-order:stroke markers fill"
         d="m 593.83393,959.2736 c -1.90163,-1.03181 -1.87996,-0.80528 -1.87996,-19.65146 v -17.25842 l 0.74413,-1.10421 c 1.40625,-2.08674 3.6302,-2.08674 5.03646,0 l 0.74412,1.10421 -0.002,17.32378 c -0.002,16.57476 -0.0294,17.36515 -0.63282,18.28049 -0.66747,1.01254 -1.81368,1.79417 -2.62738,1.79168 -0.26915,-9.8e-4 -0.89123,-0.21956 -1.3824,-0.48607 z"
         id="path2320"
         transform="scale(0.26458333)" />
    </g>
  </g>
</svg>
