<?xml version="1.0" encoding="UTF-8" standalone="no"?>
<!-- Created with Inkscape (http://www.inkscape.org/) -->

<svg
   width="210mm"
   height="297mm"
   viewBox="0 0 210 297"
   version="1.1"
   id="svg5"
   inkscape:version="1.1.2 (0a00cf5339, 2022-02-04, custom)"
   sodipodi:docname="guitar interface icon svg.svg"
   xmlns:inkscape="http://www.inkscape.org/namespaces/inkscape"
   xmlns:sodipodi="http://sodipodi.sourceforge.net/DTD/sodipodi-0.dtd"
   xmlns="http://www.w3.org/2000/svg"
   xmlns:svg="http://www.w3.org/2000/svg">
  <sodipodi:namedview
     id="namedview7"
     pagecolor="#ffffff"
     bordercolor="#666666"
     borderopacity="1.0"
     inkscape:pageshadow="2"
     inkscape:pageopacity="0.0"
     inkscape:pagecheckerboard="0"
     inkscape:document-units="mm"
     showgrid="false"
     inkscape:zoom="0.62270623"
     inkscape:cx="525.93018"
     inkscape:cy="283.44023"
     inkscape:window-width="1680"
     inkscape:window-height="956"
     inkscape:window-x="-11"
     inkscape:window-y="-11"
     inkscape:window-maximized="1"
     inkscape:current-layer="layer1" />
  <defs
     id="defs2">
    <inkscape:path-effect
       effect="spiro"
       id="path-effect2699"
       is_visible="true"
       lpeversion="1" />
    <inkscape:path-effect
       effect="spiro"
       id="path-effect2379"
       is_visible="true"
       lpeversion="1" />
    <inkscape:path-effect
       effect="spiro"
       id="path-effect2342"
       is_visible="true"
       lpeversion="1" />
    <inkscape:path-effect
       effect="spiro"
       id="path-effect2256"
       is_visible="true"
       lpeversion="1" />
    <inkscape:path-effect
       effect="spiro"
       id="path-effect2059"
       is_visible="true"
       lpeversion="1" />
    <inkscape:path-effect
       effect="spiro"
       id="path-effect1973"
       is_visible="true"
       lpeversion="1" />
    <inkscape:path-effect
       effect="spiro"
       id="path-effect1696"
       is_visible="true"
       lpeversion="1" />
    <inkscape:path-effect
       effect="spiro"
       id="path-effect1690"
       is_visible="true"
       lpeversion="1" />
    <inkscape:path-effect
       effect="spiro"
       id="path-effect1214"
       is_visible="true"
       lpeversion="1" />
    <inkscape:path-effect
       effect="spiro"
       id="path-effect1128"
       is_visible="true"
       lpeversion="1" />
    <inkscape:path-effect
       effect="spiro"
       id="path-effect1122"
       is_visible="true"
       lpeversion="1" />
    <inkscape:path-effect
       effect="spiro"
       id="path-effect1005"
       is_visible="true"
       lpeversion="1" />
    <inkscape:path-effect
       effect="spiro"
       id="path-effect999"
       is_visible="true"
       lpeversion="1" />
    <inkscape:path-effect
       effect="skeletal"
       id="path-effect3161"
       is_visible="true"
       lpeversion="1"
       pattern="m 182.71133,36.816874 0.27078,28.580167 24.64656,-14.536578 z m -38.1894,6.580476 v 17.728634 h 31.32522 V 43.39735 Z"
       copytype="repeated"
       prop_scale="1"
       scale_y_rel="false"
       spacing="5.8"
       normal_offset="0"
       tang_offset="1.5"
       prop_units="false"
       vertical_pattern="false"
       hide_knot="false"
       fuse_tolerance="0" />
    <inkscape:path-effect
       effect="skeletal"
       id="path-effect2910"
       is_visible="true"
       lpeversion="1"
       pattern="m 182.71133,36.816874 0.27078,28.580167 24.64656,-14.536578 z m -38.1894,6.580476 v 17.728634 h 31.32522 V 43.39735 Z"
       copytype="repeated"
       prop_scale="1"
       scale_y_rel="false"
       spacing="4.6"
       normal_offset="0.3"
       tang_offset="0"
       prop_units="false"
       vertical_pattern="false"
       hide_knot="false"
       fuse_tolerance="0" />
  </defs>
  <g
     inkscape:label="Layer 1"
     inkscape:groupmode="layer"
     id="layer1">
    <g
       id="g3626"
       transform="matrix(0.57464349,0,0,0.72492317,-25.79402,-8.6034939)">
      <path
         id="path2377"
         style="fill:none;stroke:#000000;stroke-width:0.965;stroke-linecap:butt;stroke-linejoin:miter;stroke-miterlimit:4;stroke-dasharray:none;stroke-opacity:1"
         d="m 51.412018,117.69528 c 0.209686,5.91735 1.984675,11.77221 5.09615,16.80984 3.111474,5.03762 7.55207,9.24608 12.749342,12.08286 6.2905,3.43348 13.675043,4.8248 20.783698,3.91583 M 106.61206,129.68405 90.041209,150.50381 M 67.982829,96.875535 51.412018,117.69528 M 137.44112,19.769202 c 4.16842,-1.779251 8.79667,-2.46824 13.3026,-1.980307 4.50593,0.487933 8.87941,2.15169 12.57033,4.782005 3.69092,2.630315 6.691,6.22127 8.62286,10.321193 1.93187,4.099924 2.79119,8.699592 2.46987,13.220459 -0.26518,3.73097 -1.32885,7.403224 -3.09878,10.69834 M 67.982831,96.875536 c -1.779251,4.168424 -2.468242,8.796674 -1.980309,13.302604 0.487933,4.50593 2.15169,8.8794 4.782005,12.57033 2.630314,3.69092 6.221269,6.69099 10.321192,8.62286 4.099924,1.93187 8.699593,2.79119 13.22046,2.46987 3.730971,-0.26518 7.403221,-1.32885 10.698341,-3.09878 M 67.982831,96.875536 c -1.779251,4.168424 -2.468242,8.796674 -1.980309,13.302604 0.487933,4.50593 2.15169,8.8794 4.782005,12.57033 2.630314,3.69092 6.221269,6.69099 10.321192,8.62286 4.099924,1.93187 8.699593,2.79119 13.22046,2.46987 3.730971,-0.26518 7.403221,-1.32885 10.698341,-3.09878 M 171.308,56.810892 105.02452,130.74242 M 137.44112,19.769202 67.982831,96.875536"
         inkscape:original-d="m 51.412018,117.69528 c 5.948762,9.63116 11.897259,19.26206 17.845492,28.8927 5.948233,9.63064 13.856062,2.61082 20.783698,3.91583 m 16.570852,-20.81976 c -5.52337,6.94019 -11.046984,13.88011 -16.570851,20.81976 M 67.982829,96.875535 C 62.459491,103.81571 56.935885,110.75563 51.412018,117.69528 M 137.44112,19.769202 c 12.32215,8.78138 24.64404,17.56249 36.96566,26.34335 12.32163,8.78085 -2.06559,7.13249 -3.09878,10.69834 M 67.982831,96.875536 c 8.781381,12.322154 17.562497,24.644044 26.343348,36.965664 8.780851,12.32163 7.132491,-2.06559 10.698341,-3.09878 M 67.982831,96.875536 c 8.781381,12.322154 17.562497,24.644044 26.343348,36.965664 8.780851,12.32163 7.132491,-2.06559 10.698341,-3.09878 M 171.308,56.810892 c -22.09416,24.64404 -44.18867,49.287958 -66.28348,73.931528 M 137.44112,19.769202 C 114.28863,45.47159 91.135869,71.173699 67.982831,96.875536"
         inkscape:path-effect="#path-effect2379" />
      <path
         id="path3341"
         style="fill:none;fill-rule:evenodd;stroke:#000000;stroke-width:0.964999;stroke-linecap:round;stroke-linejoin:round;paint-order:stroke markers fill"
         d="M 107.49786,98.787552 A 10.834764,12.959227 0 0 1 96.663094,111.74678 10.834764,12.959227 0 0 1 85.82833,98.787552 10.834764,12.959227 0 0 1 96.663094,85.828325 10.834764,12.959227 0 0 1 107.49786,98.787552 Z m 17.14186,-34.043038 a 5.3111587,6.5858369 0 0 1 -5.31116,6.585837 5.3111587,6.5858369 0 0 1 -5.31116,-6.585837 5.3111587,6.5858369 0 0 1 5.31116,-6.585836 5.3111587,6.5858369 0 0 1 5.31116,6.585836 z m 4.63402,-2.342159 4.8009,10.318091 c 2.19537,4.718282 0.16429,10.284136 -4.55399,12.479503 l -0.30202,0.140527 c -4.71828,2.195367 -10.28413,0.164291 -12.4795,-4.55399 l -4.8009,-10.318092 c -2.19537,-4.718281 -0.16429,-10.284135 4.55398,-12.479502 l 0.30202,-0.140527 c 4.71828,-2.195367 10.28414,-0.164291 12.47951,4.55399 z m 21.1148,0.519783 a 2.9742489,3.6115878 0 0 1 -2.97425,3.611587 2.9742489,3.6115878 0 0 1 -2.97425,-3.611587 2.9742489,3.6115878 0 0 1 2.97425,-3.611588 2.9742489,3.6115878 0 0 1 2.97425,3.611588 z m -2.6458,-10.054177 a 2.9742489,3.6115878 0 0 1 -2.97425,3.611588 2.9742489,3.6115878 0 0 1 -2.97424,-3.611588 2.9742489,3.6115878 0 0 1 2.97424,-3.611587 2.9742489,3.6115878 0 0 1 2.97425,3.611587 z m -3.70411,-8.466674 a 2.9742489,3.6115878 0 0 1 -2.97425,3.611587 2.9742489,3.6115878 0 0 1 -2.97425,-3.611587 2.9742489,3.6115878 0 0 1 2.97425,-3.611588 2.9742489,3.6115878 0 0 1 2.97425,3.611588 z" />
      <rect
         style="fill:none;fill-rule:evenodd;stroke:#000000;stroke-width:0.964999;stroke-linecap:round;stroke-linejoin:round;stroke-miterlimit:4;stroke-dasharray:none;paint-order:stroke markers fill"
         id="rect3365"
         width="4.2489271"
         height="15.72103"
         x="93.252258"
         y="86.156738"
         ry="2.1244636" />
      <path
         id="path3510"
         style="fill:none;fill-rule:evenodd;stroke:#000000;stroke-width:0.421061;stroke-linecap:round;stroke-linejoin:round;paint-order:stroke markers fill"
         d="m 68.158323,126.10053 a 5.3706825,5.1582354 0 0 1 -5.370682,5.15824 5.3706825,5.1582354 0 0 1 -5.370683,-5.15824 5.3706825,5.1582354 0 0 1 5.370683,-5.15823 5.3706825,5.1582354 0 0 1 5.370682,5.15823 z m -1.905726,0.19839 a 3.6382039,3.5710857 0 0 1 -3.638204,3.57109 3.6382039,3.5710857 0 0 1 -3.638204,-3.57109 3.6382039,3.5710857 0 0 1 3.638204,-3.57108 3.6382039,3.5710857 0 0 1 3.638204,3.57108 z" />
      <path
         id="path3613"
         style="fill:none;fill-rule:evenodd;stroke:#000000;stroke-width:0.421061;stroke-linecap:round;stroke-linejoin:round;paint-order:stroke markers fill"
         d="m 89.85417,141.44646 a 5.3706825,5.1582354 0 0 1 -5.370682,5.15824 5.3706825,5.1582354 0 0 1 -5.370683,-5.15824 5.3706825,5.1582354 0 0 1 5.370683,-5.15823 5.3706825,5.1582354 0 0 1 5.370682,5.15823 z m -1.905726,0.19839 a 3.6382039,3.5710857 0 0 1 -3.638204,3.57109 3.6382039,3.5710857 0 0 1 -3.638204,-3.57109 3.6382039,3.5710857 0 0 1 3.638204,-3.57108 3.6382039,3.5710857 0 0 1 3.638204,3.57108 z" />
    </g>
  </g>
</svg>
