<?xml version="1.0" encoding="UTF-8" standalone="no"?>
<!-- Created with Inkscape (http://www.inkscape.org/) -->

<svg
   width="210mm"
   height="297mm"
   viewBox="0 0 210 297"
   version="1.1"
   id="svg5"
   inkscape:version="1.1 (c68e22c387, 2021-05-23)"
   sodipodi:docname="loop botton icon svg.svg"
   xmlns:inkscape="http://www.inkscape.org/namespaces/inkscape"
   xmlns:sodipodi="http://sodipodi.sourceforge.net/DTD/sodipodi-0.dtd"
   xmlns="http://www.w3.org/2000/svg"
   xmlns:svg="http://www.w3.org/2000/svg">
  <sodipodi:namedview
     id="namedview7"
     pagecolor="#ffffff"
     bordercolor="#666666"
     borderopacity="1.0"
     inkscape:pageshadow="2"
     inkscape:pageopacity="0.0"
     inkscape:pagecheckerboard="0"
     inkscape:document-units="mm"
     showgrid="false"
     inkscape:zoom="0.62270623"
     inkscape:cx="526.73313"
     inkscape:cy="452.05907"
     inkscape:window-width="1680"
     inkscape:window-height="956"
     inkscape:window-x="-11"
     inkscape:window-y="-11"
     inkscape:window-maximized="1"
     inkscape:current-layer="layer1" />
  <defs
     id="defs2">
    <inkscape:path-effect
       effect="skeletal"
       id="path-effect3161"
       is_visible="true"
       lpeversion="1"
       pattern="m 182.71133,36.816874 0.27078,28.580167 24.64656,-14.536578 z m -38.1894,6.580476 v 17.728634 h 31.32522 V 43.39735 Z"
       copytype="repeated"
       prop_scale="1"
       scale_y_rel="false"
       spacing="5.8"
       normal_offset="0"
       tang_offset="1.5"
       prop_units="false"
       vertical_pattern="false"
       hide_knot="false"
       fuse_tolerance="0" />
    <inkscape:path-effect
       effect="skeletal"
       id="path-effect2910"
       is_visible="true"
       lpeversion="1"
       pattern="m 182.71133,36.816874 0.27078,28.580167 24.64656,-14.536578 z m -38.1894,6.580476 v 17.728634 h 31.32522 V 43.39735 Z"
       copytype="repeated"
       prop_scale="1"
       scale_y_rel="false"
       spacing="4.6"
       normal_offset="0.3"
       tang_offset="0"
       prop_units="false"
       vertical_pattern="false"
       hide_knot="false"
       fuse_tolerance="0" />
  </defs>
  <g
     inkscape:label="Layer 1"
     inkscape:groupmode="layer"
     id="layer1">
    <path
       id="path3024"
       d="m 138.06769,57.693111 c -3.60738,-2.646057 -7.20081,-5.308689 -10.78017,-7.987859 -0.009,0.565753 -0.047,1.139381 -0.11828,1.718839 -0.33439,2.980276 -1.61599,6.183002 -3.84432,9.125224 3.81141,0.302967 8.01912,-0.209312 12.1886,-1.770077 0.85727,-0.322466 1.70984,-0.684802 2.55417,-1.086127 z m 4.56485,-19.771279 -8.5574,-0.206974 c -0.1108,3.878012 -1.35973,7.784956 -3.55068,11.065504 l 7.25418,4.204842 c 3.02399,-4.509899 4.70732,-9.749475 4.8539,-15.063372 z M 99.845225,66.219515 c 1.874565,-3.907274 3.770275,-7.805821 5.687045,-11.695494 -2.95133,0.665743 -6.379395,0.683867 -9.876252,-0.174695 -0.801125,-0.196542 -1.604852,-0.438289 -2.406655,-0.724195 0.137422,0.779603 0.320463,1.56687 0.552245,2.358785 1.035008,3.511056 3.052852,7.071588 6.043617,10.235599 z m 21.985245,-1.539377 -2.6681,-7.556245 c -1.98339,0.611123 -4.04834,0.935982 -6.09043,0.919792 -1.94603,0.0154 -3.91281,-0.278856 -5.80997,-0.835442 l -2.55134,7.58989 c 2.68852,0.778897 5.50575,1.197989 8.36131,1.209852 2.99654,-0.01238 5.95085,-0.473327 8.75853,-1.327847 z M 80.432225,34.580174 c 4.59064,0.289069 9.179803,0.597885 13.767345,0.926392 -2.076353,-2.964801 -3.442118,-6.831097 -3.585786,-11.122452 -3.909696,2.278038 -7.536245,5.734913 -10.181559,10.19606 z m 8.153884,18.729678 7.193283,-4.29351 C 93.543171,45.766359 92.244249,41.874174 92.078726,37.995154 l -8.554133,0.310576 c 0.220508,5.309927 1.973047,10.529747 5.061516,15.004122 z M 105.15243,6.3309772 c 1.2258,4.1169348 2.42853,8.2394798 3.60808,12.3675078 1.12672,-1.42791 2.56391,-2.752272 4.31143,-3.861657 1.65468,-1.06693 3.60001,-1.924035 5.74893,-2.522452 -1.62101,-1.408474 -3.538,-2.6684908 -5.74893,-3.688612 -2.38493,-1.0821667 -5.06038,-1.866216 -7.91951,-2.2947868 z m -16.037135,13.9336718 7.046967,4.497404 c 0.645445,-0.876064 1.361362,-1.700496 2.143635,-2.459545 2.023563,-1.988611 4.554543,-3.585202 7.297553,-4.634825 l -3.23627,-7.36767 c -3.865737,1.464937 -7.389295,3.691609 -10.2753,6.525087 -1.090247,1.077858 -2.083814,2.228964 -2.976585,3.439549 z m 52.082365,0.638259 c -3.96859,2.153497 -7.94807,4.289696 -11.93829,6.408568 3.4909,1.359648 6.94223,3.861941 9.65145,7.344916 1.86683,-3.931449 2.79601,-8.677649 2.28684,-13.753484 z M 122.74257,9.9290967 119.80742,17.401991 c 3.02409,1.035807 5.82792,2.735927 8.03057,4.900517 0.6005,0.582676 1.16191,1.203892 1.68234,1.857406 l 6.86966,-4.729323 c -0.72112,-0.907508 -1.50107,-1.77808 -2.33798,-2.605491 -3.14142,-3.084218 -7.03819,-5.449502 -11.30944,-6.8960033 z"
       style="fill:none;stroke:#000000;stroke-width:1.18295;stroke-linecap:round;stroke-linejoin:round;stroke-dasharray:0.295736, 0.295736;stroke-opacity:0.955017;paint-order:stroke markers fill" />
    <g
       id="g3814"
       transform="matrix(0.75174134,0,0,0.7175269,12.399723,-55.326232)">
      <path
         id="path3272"
         d="m 83.700697,280.64182 c -5.05405,-4.04856 -10.08858,-8.12247 -15.10339,-12.22168 -0.0116,0.86562 -0.0658,1.74329 -0.16572,2.62987 -0.46848,4.55993 -2.26406,9.46019 -5.38602,13.96189 5.33992,0.46354 11.23507,-0.32025 17.07665,-2.70828 1.20107,-0.49338 2.39556,-1.04777 3.57848,-1.6618 z m 6.39555,-30.25068 -11.98924,-0.31668 c -0.15524,5.93347 -1.90503,11.91123 -4.97463,16.93057 l 10.16336,6.43354 c 4.23673,-6.90029 6.59514,-14.91701 6.80051,-23.04743 z m -59.946579,43.29635 c 2.626339,-5.97826 5.282302,-11.94316 7.967764,-17.89448 -4.134912,1.01861 -8.937761,1.04634 -13.836986,-0.26729 -1.122405,-0.30072 -2.248456,-0.6706 -3.37181,-1.10804 0.192533,1.19281 0.44898,2.39736 0.773715,3.60901 1.450083,5.37203 4.277154,10.81975 8.467317,15.6608 z m 30.802126,-2.3553 -3.73811,-11.5613 c -2.778793,0.93504 -5.671856,1.43209 -8.532909,1.40731 -2.72646,0.0236 -5.48198,-0.42666 -8.139975,-1.27825 l -3.574512,11.61277 c 3.766713,1.19174 7.713738,1.83296 11.714487,1.85112 4.198253,-0.019 8.337349,-0.72421 12.271019,-2.03165 z M 2.9513706,245.27829 c 6.4316492,0.44229 12.8612294,0.91478 19.2885384,1.41741 -2.909043,-4.53624 -4.822529,-10.45179 -5.023813,-17.0177 -5.477622,3.48547 -10.5585472,8.7746 -14.2647254,15.60029 z m 11.4238814,28.657 10.078044,-6.56921 c -3.133024,-4.97258 -4.952861,-10.92774 -5.184764,-16.86276 l -11.9846432,0.47519 c 0.308938,8.12436 2.7643082,16.11085 7.0913632,22.95678 z m 23.210009,-71.87917 c 1.717392,6.29904 3.402445,12.60668 5.055048,18.92268 1.578585,-2.18474 3.59213,-4.21106 6.040466,-5.90845 2.31826,-1.63243 5.043732,-2.94384 8.054449,-3.85943 -2.27109,-2.15502 -4.956861,-4.08288 -8.054449,-5.6437 -3.34137,-1.65574 -7.089768,-2.85536 -11.095514,-3.5111 z m -22.468601,21.31897 9.873051,6.88117 c 0.904292,-1.34041 1.907317,-2.60182 3.003308,-3.76319 2.835096,-3.04263 6.381082,-5.48546 10.224136,-7.09141 L 33.68303,208.12887 c -5.416044,2.2414 -10.352673,5.6483 -14.396068,9.98359 -1.527476,1.64917 -2.919498,3.41039 -4.170302,5.26263 z m 72.969247,0.97655 c -5.56014,3.29492 -11.13553,6.56337 -16.72596,9.80531 4.89087,2.08031 9.7263,5.9089 13.52202,11.23795 2.61549,-6.01524 3.91731,-13.27706 3.20394,-21.04326 z m -25.85624,-16.79028 -4.112243,11.43377 c 4.236853,1.58482 8.165113,4.18605 11.251103,7.49794 0.84133,0.89152 1.62788,1.84199 2.35703,2.84189 l 9.62463,-7.236 c -1.01031,-1.38852 -2.10305,-2.72053 -3.2756,-3.9865 -4.40122,-4.71894 -9.86075,-8.3379 -15.84492,-10.5511 z"
         style="fill:none;stroke:#000000;stroke-width:1.73197;stroke-linecap:round;stroke-linejoin:round;stroke-dasharray:0.432991, 0.432991;stroke-opacity:0.955017;paint-order:stroke markers fill" />
      <path
         style="fill:#000000;stroke:#000000;stroke-width:15.4166;stroke-linecap:round;stroke-linejoin:round;stroke-dasharray:3.85415, 3.85415;stroke-opacity:0.955017;paint-order:stroke markers fill"
         d="m 48.548446,1015.3263 c -3.621501,-7.7284 -8.026363,-18.84086 -9.788583,-24.69441 -3.301745,-10.96738 -7.71983,-36.25654 -6.517012,-37.30343 0.372883,-0.32454 8.707572,-1.05792 18.521531,-1.62972 l 17.84356,-1.03963 2.001525,12.46065 c 2.07856,12.94025 9.365172,34.97641 13.807264,41.75594 1.406987,2.1473 2.319753,4.0963 2.02837,4.3311 -2.086358,1.6813 -30.240189,20.1711 -30.713863,20.1711 -0.329035,0 -3.561291,-6.3233 -7.182792,-14.0516 z"
         id="path3333"
         transform="scale(0.26458333)" />
      <path
         style="fill:#000000;stroke:#000000;stroke-width:15.4166;stroke-linecap:round;stroke-linejoin:round;stroke-dasharray:3.85415, 3.85415;stroke-opacity:0.955017;paint-order:stroke markers fill"
         d="m 46.868627,925.74738 c -14.409745,-1.11691 -26.612058,-2.44326 -27.116251,-2.94746 -2.321295,-2.32129 18.691073,-28.41075 31.12858,-38.64999 4.948519,-4.07389 9.294988,-7.1094 9.658817,-6.74557 0.363832,0.36383 1.980193,7.06526 3.591916,14.89207 1.611721,7.8268 4.823759,18.87172 7.137858,24.54426 4.695333,11.50963 4.67921,11.44976 3.003036,11.15165 -0.662431,-0.11781 -12.994211,-1.12805 -27.403956,-2.24496 z"
         id="path3372"
         transform="scale(0.26458333)" />
      <path
         style="fill:#000000;stroke:#000000;stroke-width:15.4166;stroke-linecap:round;stroke-linejoin:round;stroke-dasharray:3.85415, 3.85415;stroke-opacity:0.955017;paint-order:stroke markers fill"
         d="m 78.688791,854.25395 c -7.507553,-5.27758 -13.872469,-10.61163 -14.144258,-11.85343 -0.271788,-1.24181 5.870755,-8.73922 13.650097,-16.6609 12.746615,-12.97986 27.6581,-24.19995 41.68595,-31.36644 l 5.05917,-2.58462 6.59063,16.41892 c 3.62485,9.03041 6.58745,16.88612 6.58355,17.45713 -0.004,0.57101 -5.25373,4.3083 -11.6663,8.30508 -6.41257,3.99678 -16.59754,12.38208 -22.63325,18.63399 -6.035719,6.25192 -11.08686,11.33984 -11.224762,11.30649 -0.137903,-0.0333 -6.393275,-4.37865 -13.900827,-9.65622 z"
         id="path3411"
         transform="scale(0.26458333)" />
      <path
         style="fill:#000000;stroke:#000000;stroke-width:15.4166;stroke-linecap:round;stroke-linejoin:round;stroke-dasharray:3.85415, 3.85415;stroke-opacity:0.955017;paint-order:stroke markers fill"
         d="m 155.36152,797.56971 c -4.0166,-15.14903 -7.06636,-27.79121 -6.77724,-28.09373 1.07478,-1.12461 19.60423,5.03937 30.47287,10.13705 6.18269,2.89985 14.77077,7.83307 19.08463,10.96269 l 7.84338,5.69024 -11.46199,5.77217 c -6.3041,3.17469 -16.05127,9.66536 -21.66037,14.42371 l -10.19838,8.65155 z"
         id="path3450"
         transform="scale(0.26458333)" />
      <path
         style="fill:#000000;stroke:#000000;stroke-width:15.4166;stroke-linecap:round;stroke-linejoin:round;stroke-dasharray:3.85415, 3.85415;stroke-opacity:0.955017;paint-order:stroke markers fill"
         d="m 263.27015,851.73763 c -9.43378,-9.65109 -24.06001,-20.34093 -32.8647,-24.01977 l -5.49169,-2.29457 5.81929,-16.45738 c 3.20062,-9.05156 6.3196,-17.0309 6.93109,-17.73186 1.45124,-1.66361 20.0339,8.06594 32.64171,17.09061 10.19279,7.296 29.99627,26.85101 29.99627,29.61991 0,0.85357 -4.15525,4.6599 -9.23389,8.45852 -5.07864,3.79862 -11.44523,8.56374 -14.14798,10.58917 l -4.9141,3.6826 z"
         id="path3489"
         transform="scale(0.26458333)" />
      <path
         style="fill:#000000;stroke:#000000;stroke-width:15.4166;stroke-linecap:round;stroke-linejoin:round;stroke-dasharray:3.85415, 3.85415;stroke-opacity:0.955017;paint-order:stroke markers fill"
         d="m 309.88262,908.04953 c -4.82765,-4.90367 -13.65123,-12.25486 -19.60794,-16.33598 -5.95672,-4.08112 -10.65396,-7.58439 -10.43831,-7.78505 0.95808,-0.89151 48.11453,-27.98717 48.70801,-27.98717 1.35351,0 0.60631,23.82097 -1.03598,33.02736 -2.29255,12.85166 -6.51231,27.9966 -7.80056,27.9966 -0.57621,0 -4.99756,-4.01209 -9.82522,-8.91576 z"
         id="path3528"
         transform="scale(0.26458333)" />
      <path
         style="fill:#000000;stroke:#000000;stroke-width:15.4166;stroke-linecap:round;stroke-linejoin:round;stroke-dasharray:3.85415, 3.85415;stroke-opacity:0.955017;paint-order:stroke markers fill"
         d="m 297.47714,1017.5452 c -7.29481,-4.6959 -13.62441,-8.8991 -14.06577,-9.3405 -0.44137,-0.4414 1.28524,-5.4331 3.83691,-11.09275 5.25884,-11.66424 11.44795,-34.75665 11.44795,-42.7139 0,-5.27157 0.0622,-5.31479 7.62799,-5.30347 4.1954,0.006 12.5059,0.47211 18.46778,1.03517 l 10.83978,1.02375 v 5.45611 c 0,7.13228 -4.27966,27.8102 -8.13849,39.32253 -4.43694,13.23706 -12.85538,30.24056 -14.94835,30.19256 -0.99248,-0.023 -7.77299,-3.8835 -15.0678,-8.5795 z"
         id="path3567"
         transform="scale(0.26458333)" />
      <path
         style="fill:#000000;stroke:#000000;stroke-width:15.4166;stroke-linecap:round;stroke-linejoin:round;stroke-dasharray:3.85415, 3.85415;stroke-opacity:0.955017;paint-order:stroke markers fill"
         d="m 250.31196,1065.109 c 5.25744,-10.4257 11.44871,-29.3545 11.44871,-35.0026 0,-2.0629 0.70161,-4.1844 1.55914,-4.7144 0.85753,-0.53 11.38878,7.0183 23.40278,16.7739 l 21.84363,17.7375 -6.94237,2.9751 c -11.54281,4.9465 -23.9486,8.0513 -39.1108,9.7882 -7.92136,0.9074 -14.95487,1.6558 -15.63001,1.663 -0.67515,0.01 0.86786,-4.1421 3.42892,-9.2207 z"
         id="path3606"
         transform="scale(0.26458333)" />
      <path
         style="fill:#000000;stroke:#000000;stroke-width:15.4166;stroke-linecap:round;stroke-linejoin:round;stroke-dasharray:3.85415, 3.85415;stroke-opacity:0.955017;paint-order:stroke markers fill"
         d="m 159.81871,1102.3662 c -7.04818,-1.3338 -13.25572,-2.9454 -13.79455,-3.5815 -0.53882,-0.636 1.47964,-8.872 4.48547,-18.3023 l 5.46515,-17.1459 5.92055,1.087 c 6.89194,1.2653 36.76794,1.4485 45.9336,0.2817 l 6.28927,-0.8006 5.3206,16.7609 c 2.92633,9.2185 5.04881,17.0327 4.71663,17.3649 -0.33219,0.3322 -4.47265,1.6477 -9.20103,2.9234 -13.21967,3.5667 -40.11178,4.2556 -55.13569,1.4124 z"
         id="path3645"
         transform="scale(0.26458333)" />
      <path
         style="fill:#000000;stroke:#000000;stroke-width:15.4166;stroke-linecap:round;stroke-linejoin:round;stroke-dasharray:3.85415, 3.85415;stroke-opacity:0.955017;paint-order:stroke markers fill"
         d="m 107.29715,1094.2535 c -9.966695,-13.6614 -24.676207,-46.8606 -21.964081,-49.5727 0.437231,-0.4372 3.276385,-0.012 6.309232,0.9456 3.032847,0.9573 14.339749,2.2096 25.126449,2.7829 l 19.61217,1.0422 -10.00863,22.4825 c -5.50475,12.3654 -10.75733,24.2158 -11.6724,26.3342 -1.64048,3.7978 -1.74412,3.7416 -7.40274,-4.0147 z"
         id="path3684"
         transform="scale(0.26458333)" />
    </g>
    <g
       id="g4352"
       transform="matrix(0.88083614,0,0,0.8449379,-7.5233577,-195.99082)">
      <path
         id="path3274"
         d="m 205.22,422.98088 c -5.05405,-4.04856 -10.08858,-8.12247 -15.10339,-12.22168 -0.0116,0.86562 -0.0658,1.74329 -0.16572,2.62987 -0.46848,4.55993 -2.26406,9.46019 -5.38602,13.96189 5.33992,0.46354 11.23507,-0.32025 17.07665,-2.70828 1.20107,-0.49338 2.39556,-1.04777 3.57848,-1.6618 z m 6.39555,-30.25068 -11.98924,-0.31668 c -0.15524,5.93347 -1.90503,11.91123 -4.97463,16.93057 l 10.16336,6.43354 c 4.23673,-6.90029 6.59514,-14.91701 6.80051,-23.04743 z m -59.94658,43.29635 c 2.62634,-5.97826 5.2823,-11.94316 7.96776,-17.89448 -4.13491,1.01861 -8.93776,1.04634 -13.83698,-0.26729 -1.12241,-0.30072 -2.24846,-0.6706 -3.37181,-1.10804 0.19253,1.19281 0.44898,2.39736 0.77371,3.60901 1.45009,5.37203 4.27716,10.81975 8.46732,15.6608 z m 30.80213,-2.3553 -3.73811,-11.5613 c -2.7788,0.93504 -5.67186,1.43209 -8.53291,1.40731 -2.72646,0.0236 -5.48198,-0.42666 -8.13998,-1.27825 l -3.57451,11.61277 c 3.76671,1.19174 7.71374,1.83296 11.71449,1.85112 4.19825,-0.019 8.33735,-0.72421 12.27102,-2.03165 z m -58.00042,-46.0539 c 6.43165,0.44229 12.86123,0.91478 19.28853,1.41741 -2.90904,-4.53624 -4.82253,-10.45179 -5.02381,-17.0177 -5.47761,3.48547 -10.55854,8.7746 -14.26472,15.60029 z m 11.42388,28.657 10.07804,-6.56921 c -3.13303,-4.97258 -4.95286,-10.92774 -5.18477,-16.86276 l -11.98463,0.47519 c 0.30894,8.12436 2.76431,16.11085 7.09136,22.95678 z m 23.21,-71.87917 c 1.7174,6.29904 3.40245,12.60668 5.05505,18.92268 1.57859,-2.18474 3.59213,-4.21106 6.04047,-5.90845 2.31826,-1.63243 5.04373,-2.94384 8.05445,-3.85943 -2.27109,-2.15502 -4.95686,-4.08288 -8.05445,-5.6437 -3.34137,-1.65574 -7.08977,-2.85536 -11.09552,-3.5111 z m -22.46859,21.31897 9.87304,6.88117 c 0.9043,-1.34041 1.90732,-2.60182 3.00331,-3.76319 2.8351,-3.04263 6.38108,-5.48546 10.22414,-7.09141 l -4.53413,-11.27279 c -5.41604,2.2414 -10.35267,5.6483 -14.39607,9.98359 -1.52747,1.64917 -2.91949,3.41039 -4.17029,5.26263 z m 72.96924,0.97655 c -5.56014,3.29492 -11.13553,6.56337 -16.72596,9.80531 4.89087,2.08031 9.7263,5.9089 13.52202,11.23795 2.61549,-6.01524 3.91731,-13.27706 3.20394,-21.04326 z m -25.85624,-16.79028 -4.11224,11.43377 c 4.23685,1.58482 8.16511,4.18605 11.2511,7.49794 0.84133,0.89152 1.62788,1.84199 2.35703,2.84189 l 9.62463,-7.236 c -1.01031,-1.38852 -2.10305,-2.72053 -3.2756,-3.9865 -4.40122,-4.71894 -9.86075,-8.3379 -15.84492,-10.5511 z"
         style="fill:none;stroke:#000000;stroke-width:1.73197;stroke-linecap:round;stroke-linejoin:round;stroke-dasharray:0.432991, 0.432991;stroke-opacity:0.955017;paint-order:stroke markers fill" />
    </g>
    <g
       id="g4890"
       transform="matrix(0.70457542,0,0,0.60775267,-79.803242,7.0313775)">
      <path
         id="path3276"
         d="m 201.39597,76.69333 c -5.05405,-4.04856 -10.08858,-8.12247 -15.10339,-12.22168 -0.0116,0.86562 -0.0658,1.74329 -0.16572,2.62987 -0.46848,4.55993 -2.26406,9.46019 -5.38602,13.96189 5.33992,0.46354 11.23507,-0.32025 17.07665,-2.70828 1.20107,-0.49338 2.39556,-1.04777 3.57848,-1.6618 z m 6.39555,-30.250681 -11.98924,-0.316686 c -0.15524,5.933475 -1.90503,11.911234 -4.97463,16.930577 l 10.16336,6.43354 c 4.23673,-6.90029 6.59514,-14.917012 6.80051,-23.047431 z M 147.84495,89.739 c 2.62634,-5.97826 5.2823,-11.94316 7.96776,-17.89448 -4.13491,1.01861 -8.93776,1.04634 -13.83699,-0.26729 -1.1224,-0.30072 -2.24845,-0.6706 -3.37181,-1.10804 0.19254,1.19281 0.44898,2.39736 0.77372,3.60901 1.45008,5.37203 4.27715,10.81975 8.46732,15.6608 z m 30.80212,-2.3553 -3.73811,-11.5613 c -2.77879,0.93504 -5.67185,1.43209 -8.53291,1.40731 -2.72646,0.0236 -5.48198,-0.42666 -8.13997,-1.27825 l -3.57451,11.61277 c 3.76671,1.19174 7.71373,1.83296 11.71448,1.85112 4.19826,-0.019 8.33735,-0.72421 12.27102,-2.03165 z M 120.64665,41.3298 c 6.43165,0.442291 12.86123,0.914777 19.28854,1.417409 -2.90905,-4.53624 -4.82253,-10.451795 -5.02382,-17.017702 -5.47762,3.485473 -10.55854,8.774598 -14.26472,15.600293 z m 11.42388,28.657 10.07804,-6.56921 c -3.13302,-4.972579 -4.95286,-10.927739 -5.18476,-16.862759 l -11.98464,0.475187 c 0.30894,8.124356 2.76431,16.110852 7.09136,22.956782 z m 23.21001,-71.8791728 c 1.71739,6.2990411 3.40244,12.6066748 5.05505,18.9226798 1.57858,-2.184739 3.59213,-4.211057 6.04046,-5.908453 2.31826,-1.6324307 5.04374,-2.9438367 8.05445,-3.8594267 -2.27109,-2.155019 -4.95686,-4.082875 -8.05445,-5.6436971 -3.34137,-1.65574397 -7.08976,-2.855362 -11.09551,-3.511103 z m -22.4686,21.3189708 9.87305,6.881171 c 0.90429,-1.340411 1.90732,-2.601821 3.00331,-3.763191 2.83509,-3.042632 6.38108,-5.485464 10.22413,-7.091415 L 151.37831,4.1803783 c -5.41605,2.241404 -10.35267,5.648295 -14.39607,9.9835927 -1.52748,1.649162 -2.9195,3.410385 -4.1703,5.262627 z m 72.96924,0.976553 c -5.56014,3.294915 -11.13553,6.563369 -16.72596,9.805306 4.89087,2.08031 9.7263,5.908895 13.52202,11.237951 2.61549,-6.015237 3.91731,-13.277064 3.20394,-21.043257 z M 179.92494,3.6128673 175.8127,15.046635 c 4.23685,1.584821 8.16511,4.186054 11.2511,7.497943 0.84133,0.891519 1.62788,1.841988 2.35703,2.841892 l 9.62463,-7.236006 c -1.01031,-1.38852 -2.10305,-2.720524 -3.2756,-3.986493 -4.40122,-4.7189487 -9.86075,-8.3379027 -15.84492,-10.5511037 z"
         style="fill:none;stroke:#000000;stroke-width:1.73197;stroke-linecap:round;stroke-linejoin:round;stroke-dasharray:0.432991, 0.432991;stroke-opacity:0.955017;paint-order:stroke markers fill" />
      <path
         style="fill:#00ffff;stroke:#000000;stroke-width:15.4166;stroke-linecap:round;stroke-linejoin:round;stroke-dasharray:3.85415, 3.85415;stroke-opacity:0.955017;paint-order:stroke markers fill"
         d="m 604.65126,331.53727 c -7.04818,-1.3338 -13.25572,-2.94547 -13.79455,-3.58149 -0.53882,-0.63603 1.47964,-8.87208 4.48547,-18.30233 l 5.46515,-17.14592 5.92055,1.08698 c 6.89194,1.26532 36.76794,1.44857 45.9336,0.28174 l 6.28927,-0.80065 5.3206,16.76091 c 2.92633,9.21851 5.04881,17.03271 4.71663,17.36489 -0.33219,0.33219 -4.47265,1.64774 -9.20103,2.92345 -13.21967,3.56664 -40.11178,4.25554 -55.13569,1.41242 z"
         id="path4409"
         transform="scale(0.26458333)" />
      <path
         style="fill:#00ffff;stroke:#000000;stroke-width:15.4166;stroke-linecap:round;stroke-linejoin:round;stroke-dasharray:3.85415, 3.85415;stroke-opacity:0.955017;paint-order:stroke markers fill"
         d="m 552.1297,323.42451 c -9.9667,-13.66136 -24.67621,-46.86057 -21.96408,-49.57269 0.43723,-0.43723 3.27638,-0.0117 6.30923,0.94561 3.03285,0.95732 14.33975,2.20961 25.12645,2.78285 l 19.61217,1.04227 -10.00863,22.48252 c -5.50474,12.36538 -10.75733,24.21576 -11.6724,26.33417 -1.64048,3.79775 -1.74412,3.74155 -7.40274,-4.01473 z"
         id="path4448"
         transform="scale(0.26458333)" />
      <path
         style="fill:#00ffff;stroke:#000000;stroke-width:15.4166;stroke-linecap:round;stroke-linejoin:round;stroke-dasharray:3.85415, 3.85415;stroke-opacity:0.955017;paint-order:stroke markers fill"
         d="m 493.381,244.49731 c -3.6215,-7.72836 -8.02637,-18.84083 -9.78859,-24.69439 -3.30174,-10.96737 -7.71983,-36.25653 -6.51701,-37.30343 0.37288,-0.32454 8.70757,-1.05792 18.52153,-1.62972 l 17.84356,-1.03963 2.00153,12.46065 c 2.07856,12.94025 9.36517,34.97641 13.80726,41.7559 1.40699,2.14733 2.31975,4.09636 2.02837,4.33117 -2.08636,1.68127 -30.24019,20.17102 -30.71386,20.17102 -0.32904,0 -3.56129,-6.3232 -7.18279,-14.05157 z"
         id="path4487"
         transform="scale(0.26458333)" />
      <path
         style="fill:#00ffff;stroke:#000000;stroke-width:15.4166;stroke-linecap:round;stroke-linejoin:round;stroke-dasharray:3.85415, 3.85415;stroke-opacity:0.955017;paint-order:stroke markers fill"
         d="m 491.70118,154.91841 c -14.40975,-1.11691 -26.61206,-2.44326 -27.11625,-2.94745 -2.3213,-2.3213 18.69107,-28.41076 31.12858,-38.65 4.94852,-4.07389 9.29498,-7.1094 9.65881,-6.74557 0.36384,0.36383 1.9802,7.06526 3.59192,14.89207 1.61172,7.82681 4.82376,18.87172 7.13786,24.54426 4.69533,11.50963 4.67921,11.44976 3.00303,11.15165 -0.66243,-0.11781 -12.99421,-1.12805 -27.40395,-2.24496 z"
         id="path4526"
         transform="scale(0.26458333)" />
      <path
         style="fill:#00ffff;stroke:#000000;stroke-width:15.4166;stroke-linecap:round;stroke-linejoin:round;stroke-dasharray:3.85415, 3.85415;stroke-opacity:0.955017;paint-order:stroke markers fill"
         d="m 742.30969,246.71627 c -7.29481,-4.69592 -13.62441,-8.89915 -14.06577,-9.34052 -0.44137,-0.44137 1.28524,-5.43311 3.83691,-11.09277 5.25884,-11.66424 11.44795,-34.75665 11.44795,-42.7139 0,-5.27157 0.0622,-5.31479 7.62799,-5.30346 4.1954,0.006 12.5059,0.4721 18.46778,1.03516 l 10.83978,1.02375 v 5.45611 c 0,7.13229 -4.27966,27.8102 -8.13849,39.32253 -4.43694,13.23705 -12.85538,30.24054 -14.94835,30.19253 -0.99248,-0.0228 -7.77299,-3.88351 -15.0678,-8.57943 z"
         id="path4565"
         transform="scale(0.26458333)" />
      <path
         style="fill:#00ffff;stroke:#000000;stroke-width:15.4166;stroke-linecap:round;stroke-linejoin:round;stroke-dasharray:3.85415, 3.85415;stroke-opacity:0.955017;paint-order:stroke markers fill"
         d="m 695.14451,294.28002 c 5.25744,-10.42567 11.44871,-29.35446 11.44871,-35.00257 0,-2.06294 0.70161,-4.18443 1.55914,-4.71441 0.85753,-0.52998 11.38878,7.01827 23.40278,16.77389 l 21.84363,17.7375 -6.94237,2.97506 c -11.54281,4.94652 -23.9486,8.0513 -39.1108,9.7882 -7.92136,0.90742 -14.95487,1.65579 -15.63001,1.66304 -0.67515,0.007 0.86787,-4.14207 3.42892,-9.22071 z"
         id="path4604"
         transform="scale(0.26458333)" />
      <path
         style="fill:#00ffff;stroke:#000000;stroke-width:15.4166;stroke-linecap:round;stroke-linejoin:round;stroke-dasharray:3.85415, 3.85415;stroke-opacity:0.955017;paint-order:stroke markers fill"
         d="m 754.71517,137.22056 c -4.82765,-4.90367 -13.65123,-12.25486 -19.60794,-16.33598 -5.95672,-4.08112 -10.65396,-7.58439 -10.43831,-7.78505 0.95808,-0.8915 48.11453,-27.987165 48.70801,-27.987165 1.35351,0 0.60631,23.820965 -1.03598,33.027355 -2.29255,12.85166 -6.51231,27.99661 -7.80056,27.99661 -0.57621,0 -4.99756,-4.0121 -9.82522,-8.91577 z"
         id="path4643"
         transform="scale(0.26458333)" />
      <path
         style="fill:#00ffff;stroke:#000000;stroke-width:15.4166;stroke-linecap:round;stroke-linejoin:round;stroke-dasharray:3.85415, 3.85415;stroke-opacity:0.955017;paint-order:stroke markers fill"
         d="M 708.1027,80.908657 C 698.66892,71.257575 684.04269,60.567732 675.238,56.888896 l -5.49169,-2.294576 5.81929,-16.457379 c 3.20062,-9.051556 6.31961,-17.030895 6.93109,-17.731863 1.45124,-1.663606 20.0339,8.065941 32.64171,17.090614 10.19279,7.296001 29.99627,26.851007 29.99627,29.619906 0,0.853573 -4.15525,4.659907 -9.23389,8.458523 -5.07864,3.798616 -11.44523,8.563743 -14.14798,10.589172 l -4.9141,3.682596 z"
         id="path4682"
         transform="scale(0.26458333)" />
      <path
         style="fill:#00ffff;stroke:#000000;stroke-width:15.4166;stroke-linecap:round;stroke-linejoin:round;stroke-dasharray:3.85415, 3.85415;stroke-opacity:0.955017;paint-order:stroke markers fill"
         d="m 600.19407,26.740739 c -4.0166,-15.149027 -7.06635,-27.791205 -6.77724,-28.0937285 1.07478,-1.1246098 19.60423,5.0393684 30.47287,10.137055 6.18269,2.8998515 14.77077,7.8330625 19.08463,10.9626905 l 7.84338,5.690234 -11.46199,5.772168 c -6.3041,3.174691 -16.05127,9.665365 -21.66037,14.423716 l -10.19838,8.65155 z"
         id="path4721"
         transform="scale(0.26458333)" />
      <path
         style="fill:#00ffff;stroke:#000000;stroke-width:15.4166;stroke-linecap:round;stroke-linejoin:round;stroke-dasharray:3.85415, 3.85415;stroke-opacity:0.955017;paint-order:stroke markers fill"
         d="m 523.52134,83.424977 c -7.50755,-5.27758 -13.87247,-10.611623 -14.14426,-11.85343 -0.27178,-1.241807 5.87076,-8.739213 13.6501,-16.6609 12.74662,-12.979851 27.6581,-24.199946 41.68595,-31.36644 l 5.05917,-2.584614 6.59063,16.418923 c 3.62485,9.030408 6.58745,16.886114 6.58355,17.457125 -0.004,0.57101 -5.25372,4.308296 -11.6663,8.305078 -6.41257,3.996782 -16.59754,12.382079 -22.63325,18.633995 -6.03572,6.251916 -11.08686,11.339837 -11.22476,11.306491 -0.1379,-0.03335 -6.39328,-4.378649 -13.90083,-9.656228 z"
         id="path4760"
         transform="scale(0.26458333)" />
    </g>
    <g
       id="g5183"
       transform="translate(-119.81974,159.33476)">
      <path
         id="path4583"
         d="m 200.26801,61.034769 c -3.60739,-2.646057 -7.20081,-5.308689 -10.78017,-7.987859 -0.009,0.565753 -0.047,1.139381 -0.11828,1.718839 -0.3344,2.980276 -1.616,6.183002 -3.84433,9.125224 3.81141,0.302967 8.01913,-0.209312 12.18861,-1.770077 0.85727,-0.322466 1.70984,-0.684802 2.55417,-1.086127 z m 4.56485,-19.771279 -8.5574,-0.206974 c -0.11081,3.878012 -1.35974,7.784956 -3.55068,11.065504 l 7.25418,4.204842 c 3.02398,-4.509899 4.70732,-9.749475 4.8539,-15.063372 z m -42.78732,28.297683 c 1.87456,-3.907274 3.77028,-7.805821 5.68704,-11.695494 -2.95132,0.665743 -6.37939,0.683867 -9.87625,-0.174695 -0.80112,-0.196542 -1.60485,-0.438289 -2.40665,-0.724195 0.13742,0.779603 0.32046,1.56687 0.55224,2.358785 1.03501,3.511056 3.05285,7.071588 6.04362,10.235599 z m 21.98524,-1.539377 -2.6681,-7.556245 c -1.98338,0.611123 -4.04834,0.935982 -6.09043,0.919792 -1.94602,0.0154 -3.9128,-0.278856 -5.80997,-0.835442 l -2.55134,7.58989 c 2.68852,0.778897 5.50575,1.197989 8.36131,1.209852 2.99654,-0.01238 5.95085,-0.473327 8.75853,-1.327847 z M 142.63254,37.921832 c 4.59064,0.289069 9.1798,0.597885 13.76734,0.926392 -2.07635,-2.964801 -3.44211,-6.831097 -3.58578,-11.122452 -3.9097,2.278038 -7.53625,5.734913 -10.18156,10.19606 z m 8.15388,18.729678 7.19329,-4.29351 c -2.23622,-3.249983 -3.53515,-7.142168 -3.70067,-11.021188 l -8.55413,0.310576 c 0.22051,5.309927 1.97304,10.529747 5.06151,15.004122 z M 167.35274,9.6726352 c 1.22581,4.1169348 2.42853,8.2394798 3.60808,12.3675078 1.12672,-1.42791 2.56392,-2.752272 4.31143,-3.861657 1.65469,-1.06693 3.60001,-1.924035 5.74893,-2.522452 -1.621,-1.408474 -3.53799,-2.668491 -5.74893,-3.688612 -2.38493,-1.082167 -5.06037,-1.866216 -7.91951,-2.2947868 z m -16.03713,13.9336718 7.04697,4.497404 c 0.64544,-0.876064 1.36136,-1.700496 2.14363,-2.459545 2.02356,-1.988611 4.55454,-3.585202 7.29755,-4.634825 l -3.23627,-7.36767 c -3.86573,1.464937 -7.38929,3.691609 -10.2753,6.525087 -1.09024,1.077858 -2.08381,2.228964 -2.97658,3.439549 z m 52.08237,0.638259 c -3.96859,2.153497 -7.94807,4.289696 -11.93829,6.408568 3.4909,1.359648 6.94223,3.861941 9.65145,7.344916 1.86683,-3.931449 2.79601,-8.677649 2.28684,-13.753484 z m -18.45509,-10.973811 -2.93516,7.472894 c 3.02409,1.035807 5.82792,2.735927 8.03057,4.900517 0.60051,0.582676 1.16192,1.203892 1.68235,1.857406 l 6.86966,-4.729323 c -0.72112,-0.907508 -1.50107,-1.77808 -2.33798,-2.605491 -3.14142,-3.084218 -7.03819,-5.449502 -11.30944,-6.896003 z"
         style="fill:none;stroke:#000000;stroke-width:1.18295;stroke-linecap:round;stroke-linejoin:round;stroke-dasharray:0.295736, 0.295736;stroke-opacity:0.955017;paint-order:stroke markers fill" />
      <path
         style="fill:#6f917c;fill-opacity:1;stroke:#000000;stroke-width:15.4166;stroke-linecap:round;stroke-linejoin:round;stroke-dasharray:1.54166, 1.54166;stroke-opacity:0.955017;paint-order:stroke markers fill"
         d="m 750.97604,129.25637 c -4.2948,-3.79354 -10.25667,-8.21566 -13.24862,-9.82692 -2.99195,-1.61127 -5.43918,-3.30724 -5.4383,-3.76882 8.9e-4,-0.46158 7.58873,-4.92455 16.86189,-9.91772 l 16.86028,-9.078486 v 7.958526 c 0,8.2974 -4.27172,29.76008 -6.14679,30.88373 -0.59386,0.35587 -4.59366,-2.45677 -8.88846,-6.25031 z"
         id="path4622"
         transform="scale(0.26458333)" />
      <path
         style="fill:#6f917c;fill-opacity:1;stroke:#000000;stroke-width:15.4166;stroke-linecap:round;stroke-linejoin:round;stroke-dasharray:1.54166, 1.54166;stroke-opacity:0.955017;paint-order:stroke markers fill"
         d="m 717.148,92.098534 c -4.35215,-3.9715 -11.57868,-9.06166 -16.05894,-11.311464 -4.48027,-2.249804 -8.3254,-4.243302 -8.54475,-4.429997 -0.40668,-0.346142 7.52876,-20.51417 8.45535,-21.489399 0.93621,-0.985339 15.03375,5.869152 22.80338,11.087431 7.96881,5.352051 21.33163,17.428548 21.33163,19.278219 0,0.953797 -4.26728,4.017272 -16.05894,11.528688 -3.90435,2.487114 -4.2323,2.358893 -11.92773,-4.663478 z"
         id="path4661"
         transform="scale(0.26458333)" />
      <path
         style="fill:#6f917c;fill-opacity:1;stroke:#000000;stroke-width:15.4166;stroke-linecap:round;stroke-linejoin:round;stroke-dasharray:1.54166, 1.54166;stroke-opacity:0.955017;paint-order:stroke markers fill"
         d="m 642.44489,59.227909 c -2.86273,-9.740562 -4.95683,-17.953281 -4.65355,-18.250487 2.29501,-2.249113 38.30099,13.270047 38.28388,16.500972 -0.003,0.625198 -3.21672,2.457017 -7.14092,4.070708 -3.9242,1.613688 -10.31855,5.736342 -14.20968,9.16145 l -7.07478,6.227467 z"
         id="path4700"
         transform="scale(0.26458333)" />
      <path
         style="fill:#6f917c;fill-opacity:1;stroke:#000000;stroke-width:15.4166;stroke-linecap:round;stroke-linejoin:round;stroke-dasharray:1.54166, 1.54166;stroke-opacity:0.955017;paint-order:stroke markers fill"
         d="m 587.35561,95.378553 c -5.07863,-3.138715 -9.23388,-6.654787 -9.23388,-7.813494 0,-5.07239 34.39343,-31.35878 41.0302,-31.35878 1.58257,0 11.15608,20.703522 10.02558,21.681158 -0.25857,0.223609 -3.44596,1.90669 -7.08309,3.740181 -3.63712,1.83349 -10.60364,6.980882 -15.48115,11.43865 -4.87751,4.457768 -9.1282,8.085682 -9.44598,8.062032 -0.31778,-0.0236 -4.73304,-2.611033 -9.81168,-5.749747 z"
         id="path4739"
         transform="scale(0.26458333)" />
      <path
         style="fill:#6f917c;fill-opacity:1;stroke:#000000;stroke-width:15.4166;stroke-linecap:round;stroke-linejoin:round;stroke-dasharray:1.54166, 1.54166;stroke-opacity:0.955017;paint-order:stroke markers fill"
         d="m 555.22805,141.43654 -10.84947,-0.92084 7.15073,-9.09506 c 3.9329,-5.00228 10.60901,-11.73566 14.83581,-14.96305 l 7.68508,-5.868 2.60269,10.14537 c 1.43148,5.57996 3.75601,12.85532 5.16561,16.16748 l 2.56291,6.0221 -9.15194,-0.28358 c -5.03357,-0.15597 -14.03421,-0.69796 -20.00142,-1.20442 z"
         id="path4778"
         transform="scale(0.26458333)" />
      <path
         style="fill:#6f917c;fill-opacity:1;stroke:#000000;stroke-width:15.4166;stroke-linecap:round;stroke-linejoin:round;stroke-dasharray:1.54166, 1.54166;stroke-opacity:0.955017;paint-order:stroke markers fill"
         d="m 565.52152,200.14269 c -5.26855,-10.30945 -8.89956,-21.38678 -10.65228,-32.49751 l -1.04026,-6.59429 12.39762,-1.12344 c 13.9604,-1.26506 14.20687,-1.11366 15.67967,9.6316 0.52741,3.84786 3.04495,11.59673 5.59452,17.2197 l 4.6356,10.2236 -10.79202,6.49232 -10.79202,6.49232 z"
         id="path4817"
         transform="scale(0.26458333)" />
      <path
         style="fill:#6f917c;fill-opacity:1;stroke:#000000;stroke-width:15.4166;stroke-linecap:round;stroke-linejoin:round;stroke-dasharray:1.54166, 1.54166;stroke-opacity:0.955017;paint-order:stroke markers fill"
         d="m 604.07207,246.89768 c -8.37835,-12.85959 -14.3455,-28.84008 -9.69595,-25.9665 0.99075,0.61232 8.91987,1.55828 17.62029,2.10214 l 15.81893,0.98885 -7.89433,16.46041 c -4.34188,9.05322 -8.21154,16.46041 -8.59924,16.46041 -0.38771,0 -3.65007,-4.52039 -7.2497,-10.04531 z"
         id="path4856"
         transform="scale(0.26458333)" />
      <path
         style="fill:#6f917c;fill-opacity:1;stroke:#000000;stroke-width:15.4166;stroke-linecap:round;stroke-linejoin:round;stroke-dasharray:1.54166, 1.54166;stroke-opacity:0.955017;paint-order:stroke markers fill"
         d="m 642.35747,257.39126 c -6.54017,-1.17329 -6.95773,-2.84198 -3.39172,-13.55415 l 3.38873,-10.17958 h 20.80794 20.80795 l 3.83478,10.76035 3.83477,10.76036 -7.85838,1.68532 c -7.6588,1.64252 -33.38316,1.97022 -41.42407,0.5277 z"
         id="path4895"
         transform="scale(0.26458333)" />
      <path
         style="fill:#6f917c;fill-opacity:1;stroke:#000000;stroke-width:15.4166;stroke-linecap:round;stroke-linejoin:round;stroke-dasharray:1.54166, 1.54166;stroke-opacity:0.955017;paint-order:stroke markers fill"
         d="m 745.13467,203.08896 c -4.85783,-2.98727 -9.52539,-5.69223 -10.37236,-6.01103 -0.84697,-0.3188 0.37571,-4.99676 2.71707,-10.39547 2.34136,-5.39872 4.7234,-12.57491 5.29343,-15.9471 2.08337,-12.32488 1.3292,-11.75189 15.46792,-11.75189 h 12.88962 l -1.15021,8.36303 c -1.51699,11.02983 -6.48707,26.12043 -11.39372,34.59463 -2.17348,3.75378 -4.10198,6.76974 -4.28556,6.70214 -0.18358,-0.0676 -4.30836,-2.56704 -9.16619,-5.55431 z"
         id="path4934"
         transform="scale(0.26458333)" />
      <path
         style="fill:#6f917c;fill-opacity:1;stroke:#000000;stroke-width:15.4166;stroke-linecap:round;stroke-linejoin:round;stroke-dasharray:1.54166, 1.54166;stroke-opacity:0.955017;paint-order:stroke markers fill"
         d="m 710.59696,232.51922 c 2.15337,-3.8528 4.8434,-10.63195 5.97784,-15.06477 1.13444,-4.43281 2.68435,-8.30756 3.44424,-8.61053 0.75988,-0.30298 7.9864,4.39985 16.05893,10.45072 l 14.67733,11.00159 -11.24126,3.49062 c -6.18269,1.91985 -16.09924,3.99617 -22.03678,4.61405 l -10.79552,1.12342 z"
         id="path4973"
         transform="scale(0.26458333)" />
    </g>
  </g>
</svg>
