<?xml version="1.0" encoding="UTF-8" standalone="no"?>
<!-- Created with Inkscape (http://www.inkscape.org/) -->

<svg
   width="210mm"
   height="297mm"
   viewBox="0 0 210 297"
   version="1.1"
   id="svg5"
   inkscape:version="1.1 (c68e22c387, 2021-05-23)"
   sodipodi:docname="Metronome icon svg.svg"
   xmlns:inkscape="http://www.inkscape.org/namespaces/inkscape"
   xmlns:sodipodi="http://sodipodi.sourceforge.net/DTD/sodipodi-0.dtd"
   xmlns="http://www.w3.org/2000/svg"
   xmlns:svg="http://www.w3.org/2000/svg">
  <sodipodi:namedview
     id="namedview7"
     pagecolor="#ffffff"
     bordercolor="#666666"
     borderopacity="1.0"
     inkscape:pageshadow="2"
     inkscape:pageopacity="0.0"
     inkscape:pagecheckerboard="0"
     inkscape:document-units="mm"
     showgrid="false"
     inkscape:zoom="0.66468037"
     inkscape:cx="386.65201"
     inkscape:cy="748.48006"
     inkscape:window-width="1680"
     inkscape:window-height="956"
     inkscape:window-x="-11"
     inkscape:window-y="-11"
     inkscape:window-maximized="1"
     inkscape:current-layer="layer1"
     showguides="true"
     inkscape:guide-bbox="true" />
  <defs
     id="defs2">
    <inkscape:path-effect
       effect="spiro"
       id="path-effect2829"
       is_visible="true"
       lpeversion="1" />
    <inkscape:path-effect
       effect="spiro"
       id="path-effect2743"
       is_visible="true"
       lpeversion="1" />
    <inkscape:path-effect
       effect="spiro"
       id="path-effect2737"
       is_visible="true"
       lpeversion="1" />
    <inkscape:path-effect
       effect="rough_hatches"
       id="path-effect2461"
       is_visible="true"
       lpeversion="1"
       direction="69.99843,260.92094 , 8.1437712,0"
       dist_rdm="6;1"
       growth="0"
       do_bend="true"
       bender="69.99843,265.92094 , 5,0"
       bottom_edge_variation="1.4602372;1"
       top_edge_variation="1.4602372;1"
       bottom_tgt_variation="0;1"
       top_tgt_variation="0;1"
       scale_bf="1"
       scale_bb="1"
       scale_tf="1"
       scale_tb="1"
       top_smth_variation="0;1"
       bottom_smth_variation="0;1"
       fat_output="true"
       stroke_width_top="1"
       stroke_width_bottom="1"
       front_thickness="1"
       back_thickness="0.25" />
    <inkscape:path-effect
       effect="skeletal"
       id="path-effect1945"
       is_visible="true"
       lpeversion="1"
       pattern="m 33.860958,87.614548 h 14.800324 c 5.651367,0 10.201025,4.549657 10.201025,10.201025 v 12.157417 c 0,5.65137 -4.549658,10.20103 -10.201025,10.20103 H 33.860958 c -5.651368,0 -10.201025,-4.54966 -10.201025,-10.20103 V 97.815573 c 0,-5.651368 4.549657,-10.201025 10.201025,-10.201025 z"
       copytype="repeated"
       prop_scale="1.28"
       scale_y_rel="false"
       spacing="2.6"
       normal_offset="0"
       tang_offset="0"
       prop_units="false"
       vertical_pattern="false"
       hide_knot="false"
       fuse_tolerance="0" />
    <inkscape:path-effect
       effect="skeletal"
       id="path-effect1762"
       is_visible="true"
       lpeversion="1"
       pattern="#rect1629"
       copytype="repeated"
       prop_scale="1"
       scale_y_rel="false"
       spacing="0"
       normal_offset="0"
       tang_offset="0"
       prop_units="false"
       vertical_pattern="false"
       hide_knot="false"
       fuse_tolerance="0" />
  </defs>
  <g
     inkscape:label="Layer 1"
     inkscape:groupmode="layer"
     id="layer1">
    <path
       id="path3130"
       style="fill:none;stroke:#000000;stroke-width:1.824;stroke-linecap:round;stroke-linejoin:round;stroke-opacity:0.955017;paint-order:stroke markers fill;stroke-miterlimit:4;stroke-dasharray:none"
       d="m 180.03929,20.332111 c -1.30654,0 -2.35854,1.188519 -2.35854,2.664675 v 15.840237 c -1.47414,0.25684 -2.71909,0.675268 -3.19616,1.224759 -1.35233,1.557612 -0.96085,8.908987 0.63197,10.243609 0.45717,0.383066 1.41238,0.599941 2.56419,0.684673 v 11.086715 c 0,1.476154 1.052,2.664443 2.35854,2.664443 1.30655,0 2.35833,-1.188289 2.35833,-2.664443 V 50.712185 c 1.48945,-0.270785 2.7477,-0.698669 3.23017,-1.245053 1.36692,-1.548016 0.84433,-8.811217 -0.73312,-10.152753 -0.44706,-0.380202 -1.37561,-0.604945 -2.49705,-0.703583 v -15.61401 c 0,-1.476156 -1.05178,-2.664675 -2.35833,-2.664675 z m 11.03419,44.862204 c -1.93397,1.745404 -20.75187,-1.25744 -22.43437,-3.511879 -1.6825,-2.254439 -5.48609,-30.373174 -4.59058,-33.540665 0.8955,-3.16749 17.18866,-17.880908 19.42281,-17.545051 2.23416,0.335858 16.18232,19.724851 16.66654,23.089664 0.48422,3.364813 -7.13044,29.762533 -9.0644,31.507931 z M 182.83401,3.822401 c -2.89861,-0.076745 -22.6767,19.054901 -23.67307,22.826835 -0.99636,3.771936 5.58681,36.029096 7.8759,38.497095 0.13704,0.147756 0.35716,0.290453 0.64227,0.42825 h -0.22099 c -5.46459,0 -9.86391,4.864426 -9.86391,10.90675 0,6.042323 4.39932,10.906755 9.86391,10.906755 h 28.48514 c 5.46459,0 9.86392,-4.864432 9.86392,-10.906755 0,-5.830443 -4.09965,-10.550429 -9.29658,-10.875245 2.92618,-5.585518 10.3897,-33.629445 9.64905,-37.246411 -0.7934,-3.874596 -20.42704,-24.460529 -23.32564,-24.537274 z" />
    <g
       id="g1275">
      <path
         id="path3128"
         style="fill:none;stroke:#000000;stroke-width:0.924481;stroke-linecap:round;stroke-linejoin:round;stroke-opacity:0.955017;paint-order:stroke markers fill"
         d="m 24.795502,220.15874 c -1.306545,0 -2.358538,1.18852 -2.358538,2.66467 v 15.84024 c -1.474149,0.25684 -2.719098,0.67527 -3.196169,1.22476 -1.352324,1.55761 -0.96085,8.90898 0.63197,10.24361 0.457176,0.38306 1.412385,0.59994 2.564199,0.68467 v 11.08671 c 0,1.47616 1.051993,2.66445 2.358538,2.66445 1.306546,0 2.35833,-1.18829 2.35833,-2.66445 v -11.36459 c 1.489451,-0.27078 2.747695,-0.69867 3.230164,-1.24505 1.366925,-1.54802 0.844335,-8.81122 -0.733114,-10.15276 -0.447061,-0.3802 -1.375608,-0.60494 -2.49705,-0.70358 v -15.61401 c 0,-1.47615 -1.051784,-2.66467 -2.35833,-2.66467 z m 11.034186,44.8622 c -1.933964,1.7454 -20.75187,-1.25744 -22.434369,-3.51188 -1.6825,-2.25444 -5.48609,-30.37317 -4.590583,-33.54066 0.895506,-3.16749 17.188664,-17.88091 19.422817,-17.54505 2.234152,0.33585 16.18232,19.72485 16.666541,23.08966 0.484217,3.36481 -7.130441,29.76253 -9.064406,31.50793 z m -8.239471,-61.37191 c -2.898604,-0.0768 -22.676694,19.0549 -23.673063,22.82683 -0.996369,3.77194 5.586805,36.0291 7.875894,38.4971 0.137044,0.14775 0.35716,0.29045 0.642271,0.42825 h -0.220985 c -5.464596,0 -9.863916,4.86442 -9.863916,10.90675 0,6.04232 4.39932,10.90675 9.863916,10.90675 h 28.485132 c 5.464598,0 9.863919,-4.86443 9.863919,-10.90675 0,-5.83045 -4.099647,-10.55043 -9.296573,-10.87525 2.926173,-5.58552 10.389694,-33.62944 9.649049,-37.24641 -0.793399,-3.8746 -20.42704,-24.46053 -23.325644,-24.53727 z" />
      <path
         style="fill:#000000;stroke:#000000;stroke-width:8.33033;stroke-linecap:round;stroke-linejoin:round;stroke-opacity:0.955017;paint-order:stroke markers fill"
         d="m 35.543046,1081.0172 c -13.641582,-4.8626 -23.490492,-20.3568 -23.459447,-36.9063 0.03803,-20.271 12.13986,-35.1472 31.170274,-38.3163 6.327766,-1.0537 8.578921,-4.1534 4.228784,-5.82269 -5.704959,-2.1892 -24.386455,-82.68682 -29.484864,-127.04879 -1.76226,-15.33367 -1.744757,-15.52443 1.932603,-21.06276 10.825506,-16.30387 57.147878,-61.75713 75.825797,-74.40313 l 8.309387,-5.62592 7.01815,4.79906 c 8.94061,6.11364 45.96274,43.13876 59.85708,59.86191 15.87805,19.11074 18.62399,23.72562 18.62399,31.2999 0,13.72707 -15.93417,77.79723 -27.94832,112.37818 -3.73723,10.75705 -7.17286,20.71234 -7.63474,22.12294 -0.62347,1.904 0.26651,2.804 3.45518,3.4941 19.00611,4.1136 30.5386,18.5684 30.57566,38.3235 0.0322,17.1727 -10.67965,32.9855 -25.31549,37.3705 -8.99545,2.6951 -119.421741,2.2919 -127.154044,-0.4642 z m 96.741194,-75.4743 c 3.77065,-0.7541 5.52027,-2.4211 8.28989,-7.8985 8.97981,-17.75903 29.19309,-89.7838 30.44848,-108.49523 l 0.75705,-11.28362 -7.70429,-12.7881 c -19.74405,-32.77256 -51.28973,-72.21516 -57.75673,-72.21516 -6.559881,0 -30.062619,18.43914 -54.569806,42.81289 -21.831972,21.71311 -22.336329,22.7408 -21.044407,42.88096 1.954376,30.46733 11.740236,96.60033 15.921535,107.59797 0.793364,2.0867 3.650053,5.13652 6.348201,6.77735 11.531434,7.01269 64.884447,15.49664 79.310077,12.61144 z"
         id="path1114"
         transform="scale(0.26458333)" />
      <path
         style="fill:#000000;stroke:#000000;stroke-width:8.33033;stroke-linecap:round;stroke-linejoin:round;stroke-opacity:0.955017;paint-order:stroke markers fill"
         d="m 90.268951,996.02398 c -1.799972,-1.15186 -2.408974,-6.40413 -3.008965,-25.95043 l -0.752241,-24.50628 -4.1702,-0.47923 c -6.102576,-0.70128 -8.975172,-6.24154 -9.7438,-18.79247 -0.875358,-14.2937 0.836486,-18.43436 8.580374,-20.75449 l 6.085867,-1.82337 v -31.45489 c 0,-32.43474 0.777245,-37.27502 5.985554,-37.27502 6.629415,0 7.55479,4.64805 7.55479,37.94682 V 904.194 l 3.38508,0.023 c 6.64636,0.0452 9.06425,3.94608 10.70987,17.27851 1.54587,12.52433 -0.30807,17.57776 -7.71296,21.02382 l -6.38199,2.97003 -0.0222,21.85394 c -0.0226,22.26652 -1.373221,28.92327 -6.033539,29.73725 -1.220415,0.21316 -3.234462,-0.2623 -4.47566,-1.0566 z"
         id="path1153"
         transform="scale(0.26458333)" />
    </g>
    <g
       id="g1539">
      <path
         id="rect2575"
         style="fill:none;stroke:#000000;stroke-width:0.924481;stroke-linecap:round;stroke-linejoin:round;stroke-opacity:0.955017;paint-order:stroke markers fill"
         d="m 30.766417,19.93405 c -1.306545,0 -2.358538,1.188519 -2.358538,2.664675 v 15.840237 c -1.474149,0.25684 -2.719098,0.675268 -3.196169,1.224759 -1.352324,1.557612 -0.96085,8.908987 0.63197,10.243609 0.457176,0.383066 1.412385,0.599941 2.564199,0.684673 v 11.086715 c 0,1.476154 1.051993,2.664443 2.358538,2.664443 1.306546,0 2.35833,-1.188289 2.35833,-2.664443 V 50.314124 c 1.489451,-0.270785 2.747695,-0.698669 3.230164,-1.245053 1.366925,-1.548016 0.844335,-8.811217 -0.733114,-10.152753 -0.447061,-0.380202 -1.375608,-0.604945 -2.49705,-0.703583 v -15.61401 c 0,-1.476156 -1.051784,-2.664675 -2.35833,-2.664675 z m 11.034186,44.862204 c -1.933964,1.745404 -20.75187,-1.25744 -22.434369,-3.511879 -1.6825,-2.254439 -5.48609,-30.373174 -4.590583,-33.540665 0.895506,-3.16749 17.188664,-17.880908 19.422817,-17.545051 2.234152,0.335858 16.18232,19.724851 16.666541,23.089664 0.484217,3.364813 -7.130441,29.762533 -9.064406,31.507931 z M 33.561132,3.42434 C 30.662528,3.347595 10.884438,22.479241 9.8880689,26.251175 c -0.996369,3.771936 5.5868051,36.029096 7.8758941,38.497095 0.137044,0.147756 0.35716,0.290453 0.642271,0.42825 h -0.220985 c -5.464596,0 -9.8639161,4.864426 -9.8639161,10.90675 0,6.042323 4.3993201,10.906755 9.8639161,10.906755 h 28.485132 c 5.464598,0 9.863919,-4.864432 9.863919,-10.906755 0,-5.830443 -4.099647,-10.550429 -9.296573,-10.875245 C 50.1639,59.622507 57.627421,31.57858 56.886776,27.961614 56.093377,24.087018 36.459736,3.501085 33.561132,3.42434 Z" />
      <path
         style="fill:#ffffff;stroke:#000000;stroke-width:8.33033;stroke-linecap:round;stroke-linejoin:round;stroke-opacity:0.955017;paint-order:stroke markers fill"
         d="m 58.110284,324.26246 c -13.641583,-4.86252 -23.490492,-20.35678 -23.459447,-36.9063 0.03802,-20.27094 12.13986,-35.14721 31.170273,-38.31625 6.327767,-1.05374 8.578922,-4.15341 4.228785,-5.82271 C 64.344936,241.028 45.66344,160.53038 40.565031,116.16841 38.802771,100.83474 38.820274,100.64398 42.497634,95.105654 53.323139,78.801786 99.645512,33.348525 118.32343,20.702522 l 8.30939,-5.625921 7.01815,4.799055 c 8.94061,6.11365 45.96274,43.138766 59.85708,59.861918 15.87805,19.110733 18.62399,23.725616 18.62399,31.299896 0,13.72707 -15.93417,77.79723 -27.94832,112.37818 -3.73723,10.75705 -7.17286,20.71235 -7.63474,22.12289 -0.62347,1.90403 0.2665,2.80406 3.45517,3.49419 19.00612,4.11356 30.53861,18.56834 30.57567,38.32343 0.0322,17.17275 -10.67965,32.9855 -25.3155,37.37051 -8.99544,2.6951 -119.421733,2.29195 -127.154036,-0.46421 z m 96.741196,-75.47423 c 3.77065,-0.75413 5.52027,-2.42115 8.28989,-7.89854 8.9798,-17.75903 29.19309,-89.7838 30.44848,-108.49523 l 0.75705,-11.28362 -7.70429,-12.7881 C 166.89855,75.550185 135.35288,36.107581 128.88588,36.107581 c -6.55988,0 -30.062622,18.439136 -54.569808,42.81289 C 52.4841,100.63358 51.979743,101.66128 53.271665,121.80143 55.22604,152.26876 65.0119,218.40176 69.1932,229.3994 c 0.793364,2.08671 3.650052,5.13652 6.3482,6.77735 11.531435,7.01269 64.88445,15.49661 79.31008,12.61148 z"
         id="path1338"
         transform="scale(0.26458333)" />
      <path
         style="fill:#ffffff;stroke:#000000;stroke-width:8.33033;stroke-linecap:round;stroke-linejoin:round;stroke-opacity:0.955017;paint-order:stroke markers fill"
         d="m 112.83619,239.26927 c -1.79997,-1.15186 -2.40898,-6.40413 -3.00897,-25.95043 l -0.75224,-24.50628 -4.1702,-0.47923 c -6.102573,-0.70128 -8.975169,-6.24154 -9.743797,-18.79246 -0.875358,-14.29371 0.836486,-18.43437 8.580377,-20.75449 l 6.08586,-1.82337 v -31.4549 c 0,-32.434737 0.77725,-37.275019 5.98556,-37.275019 6.62941,0 7.55479,4.648046 7.55479,37.946819 v 31.25938 l 3.38508,0.023 c 6.64636,0.0452 9.06425,3.94608 10.70986,17.27851 1.54588,12.52434 -0.30806,17.57776 -7.71295,21.02382 l -6.38199,2.97003 -0.0222,21.85394 c -0.0226,22.26652 -1.37322,28.92327 -6.03354,29.73725 -1.22042,0.21316 -3.23446,-0.2623 -4.47566,-1.0566 z"
         id="path1377"
         transform="scale(0.26458333)" />
      <path
         style="fill:#ffffff;stroke:#000000;stroke-width:8.33033;stroke-linecap:round;stroke-linejoin:round;stroke-opacity:0.955017;paint-order:stroke markers fill"
         d="m 126.83207,242.53505 c -1.18791,-0.75516 -1.32382,-1.89987 -0.39916,-3.36203 0.77112,-1.21937 1.4124,-12.2085 1.42507,-24.42033 l 0.023,-22.20328 6.00224,-2.40163 c 5.05601,-2.02301 6.26923,-3.38485 7.69582,-8.63859 2.06212,-7.59423 0.88887,-24.13931 -2.24338,-31.63583 -1.73325,-4.14825 -3.41492,-5.71569 -6.87461,-6.40763 l -4.58007,-0.91601 v -30.56994 c 0,-29.887953 -0.0786,-30.661307 -3.5231,-34.665782 -4.56928,-5.312102 -12.25418,-5.628321 -16.26961,-0.669464 -2.49703,3.083694 -2.77452,6.546791 -2.77452,34.625626 v 31.19925 l -6.007614,2.35986 c -7.95232,3.12376 -9.455805,7.39254 -8.728644,24.78287 0.625948,14.96978 3.549318,21.72799 9.803998,22.66477 3.80174,0.56939 4.93226,7.58235 4.93226,30.59648 0,12.21679 -0.48271,16.33933 -1.91317,16.33933 -3.924192,0 -22.137366,-5.65798 -25.67528,-7.97612 -2.825271,-1.85119 -4.217499,-4.93308 -6.047743,-13.38752 C 63.837015,181.63114 56.156006,115.60084 58.73675,106.60232 c 1.841766,-6.42187 12.800643,-18.762793 32.20007,-36.2609 18.20729,-16.422807 33.80543,-28.215909 37.31976,-28.215909 5.67838,0 40.77619,45.816591 56.59939,73.884709 4.70145,8.33969 4.73929,8.57148 3.19295,19.55827 -3.02907,21.52171 -19.64821,80.2266 -28.17004,99.5069 l -3.82361,8.65078 -13.71101,-0.023 c -7.54105,-0.012 -14.52154,-0.5383 -15.51219,-1.16808 z"
         id="path1416"
         transform="scale(0.26458333)" />
    </g>
    <g
       id="g1755">
      <path
         id="path3132"
         style="fill:#ffffff;stroke:#000000;stroke-width:0.924481;stroke-linecap:round;stroke-linejoin:round;stroke-opacity:0.955017;paint-order:stroke markers fill"
         d="m 166.50521,224.93547 c -1.30654,0 -2.35853,1.18852 -2.35853,2.66467 v 15.84024 c -1.47415,0.25684 -2.7191,0.67527 -3.19617,1.22476 -1.35233,1.55761 -0.96085,8.90898 0.63197,10.24361 0.45717,0.38306 1.41238,0.59994 2.5642,0.68467 v 11.08671 c 0,1.47616 1.05199,2.66445 2.35853,2.66445 1.30655,0 2.35833,-1.18829 2.35833,-2.66445 v -11.36459 c 1.48945,-0.27078 2.7477,-0.69867 3.23017,-1.24505 1.36692,-1.54802 0.84433,-8.81122 -0.73312,-10.15276 -0.44706,-0.3802 -1.3756,-0.60494 -2.49705,-0.70358 v -15.61401 c 0,-1.47615 -1.05178,-2.66467 -2.35833,-2.66467 z m 11.03419,44.8622 c -1.93396,1.7454 -20.75187,-1.25744 -22.43437,-3.51188 -1.6825,-2.25444 -5.48609,-30.37317 -4.59058,-33.54066 0.8955,-3.16749 17.18866,-17.88091 19.42281,-17.54505 2.23416,0.33585 16.18232,19.72485 16.66655,23.08966 0.48421,3.36481 -7.13045,29.76253 -9.06441,31.50793 z m -8.23947,-61.37191 c -2.89861,-0.0768 -22.6767,19.0549 -23.67306,22.82683 -0.99637,3.77194 5.5868,36.0291 7.87589,38.4971 0.13704,0.14775 0.35716,0.29045 0.64227,0.42825 h -0.22098 c -5.4646,0 -9.86392,4.86442 -9.86392,10.90675 0,6.04232 4.39932,10.90675 9.86392,10.90675 h 28.48513 c 5.4646,0 9.86392,-4.86443 9.86392,-10.90675 0,-5.83045 -4.09965,-10.55043 -9.29658,-10.87525 2.92618,-5.58552 10.3897,-33.62944 9.64905,-37.24641 -0.7934,-3.8746 -20.42704,-24.46053 -23.32564,-24.53727 z" />
      <path
         style="fill:#a05a2c;stroke:#000000;stroke-width:8.33033;stroke-linecap:round;stroke-linejoin:round;stroke-opacity:0.955017;paint-order:stroke markers fill"
         d="m 567.88067,1099.2248 c -13.89774,-6.4717 -22.21012,-20.3501 -22.17582,-37.025 0.0429,-20.839 12.72268,-36.4258 32.54138,-40.002 3.18485,-0.5747 5.14111,-1.4647 4.34725,-1.9779 -2.8688,-1.8544 -6.29722,-10.566 -10.78416,-27.40257 -8.79126,-32.98789 -18.57257,-83.91807 -20.48768,-106.67712 -0.92239,-10.96157 -0.80835,-11.4943 3.99556,-18.66482 10.43258,-15.57214 58.65999,-62.63032 76.0417,-74.19815 7.37002,-4.90488 7.96147,-5.04947 12.03586,-2.94244 8.2285,4.25527 47.64012,42.95333 65.42834,64.24373 15.27934,18.28759 18.24665,23.52535 18.05851,31.87608 -0.35268,15.65437 -20.98324,96.41025 -31.6428,123.86209 l -4.34915,11.2004 6.22796,1.6554 c 9.02876,2.3998 15.46038,6.8073 20.32419,13.9278 15.03338,22.0087 8.32267,51.7135 -14.03474,62.1245 -7.56013,3.5204 -7.77257,3.5315 -67.7632,3.5315 -59.99064,0 -60.20308,-0.011 -67.7632,-3.5315 z m 104.81347,-80.7432 c 6.28809,-7.2735 30.84034,-91.66757 32.37362,-111.27864 0.73634,-9.41789 0.52129,-10.19995 -5.82152,-21.17085 -14.26254,-24.66932 -47.00102,-68.05334 -54.30373,-71.96163 -3.45029,-1.84654 -4.48507,-1.66869 -10.32777,1.77502 -16.46523,9.70467 -62.52785,53.16439 -66.05816,62.32536 -2.51766,6.53321 1.32864,47.80379 8.52457,91.46813 5.34165,32.41281 6.99732,37.46851 13.24042,40.43101 9.02953,4.2848 33.91628,9.3042 59.61488,12.0237 9.7341,1.0301 20.17748,-0.6275 22.75769,-3.6121 z"
         id="path1178"
         transform="scale(0.26458333)" />
      <path
         style="fill:#666666;stroke:#000000;stroke-width:8.33033;stroke-linecap:round;stroke-linejoin:round;stroke-opacity:0.955017;paint-order:stroke markers fill"
         d="m 641.92745,1015.9718 c -1.69414,-0.438 -2.41337,-1.5691 -1.8806,-2.9575 0.47449,-1.2365 0.8627,-12.015 0.8627,-23.95226 V 967.3579 l 6.00224,-2.40162 c 5.05601,-2.02301 6.26923,-3.38485 7.69582,-8.63859 2.06212,-7.59424 0.88887,-24.13931 -2.24338,-31.63583 -1.73324,-4.14825 -3.41492,-5.71569 -6.87461,-6.40763 l -4.58007,-0.91601 v -30.56994 c 0,-29.88795 -0.0786,-30.66131 -3.5231,-34.66578 -4.56928,-5.3121 -12.25418,-5.62832 -16.26961,-0.66947 -2.49703,3.0837 -2.77452,6.54679 -2.77452,34.62563 v 31.19925 l -6.00761,2.35986 c -7.95232,3.12376 -9.45581,7.39254 -8.72865,24.78287 0.63779,15.25287 3.38419,21.34886 10.35844,22.99189 3.60409,0.84907 3.62804,0.98545 4.04214,23.01798 l 0.41656,22.16389 -4.17777,-0.9224 c -10.27885,-2.2694 -20.89618,-5.5968 -22.76441,-7.1342 -3.14697,-2.5897 -4.33934,-6.83614 -8.41708,-29.97634 -5.28819,-30.00921 -9.8561,-68.64696 -9.8561,-83.36803 v -12.42075 l 13.16422,-13.83851 c 15.39456,-16.18307 42.65097,-39.98353 50.68998,-44.26278 l 5.60789,-2.98514 5.22822,6.01793 c 15.41017,17.73784 41.80447,54.94987 49.10158,69.22593 3.53492,6.91571 3.72508,8.26775 2.43058,17.28182 -3.28966,22.9071 -25.93891,99.59767 -30.87112,104.52987 -1.66178,1.6618 -5.24552,2.2406 -13.08839,2.1139 -5.94002,-0.096 -12.03453,-0.4937 -13.54335,-0.8839 z"
         id="path1367"
         transform="scale(0.26458333)" />
      <path
         style="fill:#374845;stroke:#000000;stroke-width:8.33033;stroke-linecap:round;stroke-linejoin:round;stroke-opacity:0.955017;paint-order:stroke markers fill"
         d="m 627.74533,1014.4374 -4.88957,-0.6068 v -20.86952 c 0,-22.91283 -1.11322,-27.9415 -6.65171,-30.04723 -2.03319,-0.77302 -4.32584,-2.62267 -5.09478,-4.11035 -2.09035,-4.04422 -3.58642,-20.70202 -2.41844,-26.92787 0.86737,-4.62348 2.03145,-5.90591 7.59466,-8.36678 l 6.57027,-2.90635 0.17801,-28.89089 c 0.2054,-33.33743 0.80439,-37.73237 5.22901,-38.3665 6.5204,-0.9345 7.33439,2.69991 8.13333,36.31498 l 0.75224,31.65023 4.7775,1.23495 c 3.62245,0.93638 5.18558,2.47141 6.46534,6.34912 1.8124,5.49165 2.37897,25.39037 0.79586,27.9519 -0.52758,0.85364 -3.62137,2.91019 -6.87509,4.57012 l -5.91585,3.01804 v 18.56547 c 0,19.04948 -1.20068,32.71158 -2.83734,32.28498 -0.50813,-0.1324 -3.12417,-0.5138 -5.81344,-0.8475 z"
         id="path1595"
         transform="scale(0.26458333)" />
    </g>
  </g>
</svg>
