<?xml version="1.0" encoding="UTF-8" standalone="no"?>
<!-- Created with Inkscape (http://www.inkscape.org/) -->

<svg
   width="210mm"
   height="297mm"
   viewBox="0 0 210 297"
   version="1.1"
   id="svg5"
   inkscape:version="1.1 (c68e22c387, 2021-05-23)"
   sodipodi:docname="Metronome icon svg.svg"
   xmlns:inkscape="http://www.inkscape.org/namespaces/inkscape"
   xmlns:sodipodi="http://sodipodi.sourceforge.net/DTD/sodipodi-0.dtd"
   xmlns="http://www.w3.org/2000/svg"
   xmlns:svg="http://www.w3.org/2000/svg">
  <sodipodi:namedview
     id="namedview7"
     pagecolor="#ffffff"
     bordercolor="#666666"
     borderopacity="1.0"
     inkscape:pageshadow="2"
     inkscape:pageopacity="0.0"
     inkscape:pagecheckerboard="0"
     inkscape:document-units="mm"
     showgrid="false"
     inkscape:zoom="0.66468037"
     inkscape:cx="386.65201"
     inkscape:cy="193.326"
     inkscape:window-width="1680"
     inkscape:window-height="956"
     inkscape:window-x="-11"
     inkscape:window-y="-11"
     inkscape:window-maximized="1"
     inkscape:current-layer="layer1"
     showguides="true"
     inkscape:guide-bbox="true" />
  <defs
     id="defs2">
    <inkscape:path-effect
       effect="spiro"
       id="path-effect2829"
       is_visible="true"
       lpeversion="1" />
    <inkscape:path-effect
       effect="spiro"
       id="path-effect2743"
       is_visible="true"
       lpeversion="1" />
    <inkscape:path-effect
       effect="spiro"
       id="path-effect2737"
       is_visible="true"
       lpeversion="1" />
    <inkscape:path-effect
       effect="rough_hatches"
       id="path-effect2461"
       is_visible="true"
       lpeversion="1"
       direction="69.99843,260.92094 , 8.1437712,0"
       dist_rdm="6;1"
       growth="0"
       do_bend="true"
       bender="69.99843,265.92094 , 5,0"
       bottom_edge_variation="1.4602372;1"
       top_edge_variation="1.4602372;1"
       bottom_tgt_variation="0;1"
       top_tgt_variation="0;1"
       scale_bf="1"
       scale_bb="1"
       scale_tf="1"
       scale_tb="1"
       top_smth_variation="0;1"
       bottom_smth_variation="0;1"
       fat_output="true"
       stroke_width_top="1"
       stroke_width_bottom="1"
       front_thickness="1"
       back_thickness="0.25" />
    <inkscape:path-effect
       effect="skeletal"
       id="path-effect1945"
       is_visible="true"
       lpeversion="1"
       pattern="m 33.860958,87.614548 h 14.800324 c 5.651367,0 10.201025,4.549657 10.201025,10.201025 v 12.157417 c 0,5.65137 -4.549658,10.20103 -10.201025,10.20103 H 33.860958 c -5.651368,0 -10.201025,-4.54966 -10.201025,-10.20103 V 97.815573 c 0,-5.651368 4.549657,-10.201025 10.201025,-10.201025 z"
       copytype="repeated"
       prop_scale="1.28"
       scale_y_rel="false"
       spacing="2.6"
       normal_offset="0"
       tang_offset="0"
       prop_units="false"
       vertical_pattern="false"
       hide_knot="false"
       fuse_tolerance="0" />
    <inkscape:path-effect
       effect="skeletal"
       id="path-effect1762"
       is_visible="true"
       lpeversion="1"
       pattern="#rect1629"
       copytype="repeated"
       prop_scale="1"
       scale_y_rel="false"
       spacing="0"
       normal_offset="0"
       tang_offset="0"
       prop_units="false"
       vertical_pattern="false"
       hide_knot="false"
       fuse_tolerance="0" />
  </defs>
  <g
     inkscape:label="Layer 1"
     inkscape:groupmode="layer"
     id="layer1">
    <path
       id="path3130"
       style="fill:none;stroke:#000000;stroke-width:0.924481;stroke-linecap:round;stroke-linejoin:round;stroke-opacity:0.955017;paint-order:stroke markers fill"
       d="m 180.03929,20.332111 c -1.30654,0 -2.35854,1.188519 -2.35854,2.664675 v 15.840237 c -1.47414,0.25684 -2.71909,0.675268 -3.19616,1.224759 -1.35233,1.557612 -0.96085,8.908987 0.63197,10.243609 0.45717,0.383066 1.41238,0.599941 2.56419,0.684673 v 11.086715 c 0,1.476154 1.052,2.664443 2.35854,2.664443 1.30655,0 2.35833,-1.188289 2.35833,-2.664443 V 50.712185 c 1.48945,-0.270785 2.7477,-0.698669 3.23017,-1.245053 1.36692,-1.548016 0.84433,-8.811217 -0.73312,-10.152753 -0.44706,-0.380202 -1.37561,-0.604945 -2.49705,-0.703583 v -15.61401 c 0,-1.476156 -1.05178,-2.664675 -2.35833,-2.664675 z m 11.03419,44.862204 c -1.93397,1.745404 -20.75187,-1.25744 -22.43437,-3.511879 -1.6825,-2.254439 -5.48609,-30.373174 -4.59058,-33.540665 0.8955,-3.16749 17.18866,-17.880908 19.42281,-17.545051 2.23416,0.335858 16.18232,19.724851 16.66654,23.089664 0.48422,3.364813 -7.13044,29.762533 -9.0644,31.507931 z M 182.83401,3.822401 c -2.89861,-0.076745 -22.6767,19.054901 -23.67307,22.826835 -0.99636,3.771936 5.58681,36.029096 7.8759,38.497095 0.13704,0.147756 0.35716,0.290453 0.64227,0.42825 h -0.22099 c -5.46459,0 -9.86391,4.864426 -9.86391,10.90675 0,6.042323 4.39932,10.906755 9.86391,10.906755 h 28.48514 c 5.46459,0 9.86392,-4.864432 9.86392,-10.906755 0,-5.830443 -4.09965,-10.550429 -9.29658,-10.875245 2.92618,-5.585518 10.3897,-33.629445 9.64905,-37.246411 -0.7934,-3.874596 -20.42704,-24.460529 -23.32564,-24.537274 z" />
    <g
       id="g1281"
       style="fill:#ffffff">
      <path
         id="path3132"
         style="fill:#ffffff;stroke:#000000;stroke-width:0.924481;stroke-linecap:round;stroke-linejoin:round;stroke-opacity:0.955017;paint-order:stroke markers fill"
         d="m 180.43735,221.75098 c -1.30654,0 -2.35853,1.18852 -2.35853,2.66467 v 15.84024 c -1.47415,0.25684 -2.7191,0.67527 -3.19617,1.22476 -1.35233,1.55761 -0.96085,8.90898 0.63197,10.24361 0.45717,0.38306 1.41238,0.59994 2.5642,0.68467 v 11.08671 c 0,1.47616 1.05199,2.66445 2.35853,2.66445 1.30655,0 2.35833,-1.18829 2.35833,-2.66445 v -11.36459 c 1.48945,-0.27078 2.7477,-0.69867 3.23017,-1.24505 1.36692,-1.54802 0.84433,-8.81122 -0.73312,-10.15276 -0.44706,-0.3802 -1.3756,-0.60494 -2.49705,-0.70358 v -15.61401 c 0,-1.47615 -1.05178,-2.66467 -2.35833,-2.66467 z m 11.03419,44.8622 c -1.93396,1.7454 -20.75187,-1.25744 -22.43437,-3.51188 -1.6825,-2.25444 -5.48609,-30.37317 -4.59058,-33.54066 0.8955,-3.16749 17.18866,-17.88091 19.42281,-17.54505 2.23416,0.33585 16.18232,19.72485 16.66655,23.08966 0.48421,3.36481 -7.13045,29.76253 -9.06441,31.50793 z m -8.23947,-61.37191 c -2.89861,-0.0768 -22.6767,19.0549 -23.67306,22.82683 -0.99637,3.77194 5.5868,36.0291 7.87589,38.4971 0.13704,0.14775 0.35716,0.29045 0.64227,0.42825 h -0.22098 c -5.4646,0 -9.86392,4.86442 -9.86392,10.90675 0,6.04232 4.39932,10.90675 9.86392,10.90675 h 28.48513 c 5.4646,0 9.86392,-4.86443 9.86392,-10.90675 0,-5.83045 -4.09965,-10.55043 -9.29658,-10.87525 2.92618,-5.58552 10.3897,-33.62944 9.64905,-37.24641 -0.7934,-3.8746 -20.42704,-24.46053 -23.32564,-24.53727 z" />
      <path
         style="fill:#ffffff;stroke:#000000;stroke-width:8.33033;stroke-linecap:round;stroke-linejoin:round;stroke-opacity:0.955017;paint-order:stroke markers fill"
         d="m 623.79571,1087.0351 c -13.64158,-4.8625 -23.49049,-20.3568 -23.45944,-36.9063 0.038,-20.2709 12.13986,-35.1472 31.17027,-38.3163 6.32777,-1.0537 8.57892,-4.1534 4.22878,-5.8227 -5.70496,-2.1892 -24.38645,-82.68678 -29.48486,-127.04875 -1.76226,-15.33367 -1.74476,-15.52443 1.9326,-21.06276 10.82551,-16.30387 57.14788,-61.75713 75.8258,-74.40313 l 8.30938,-5.62592 7.01816,4.79906 c 8.94061,6.11364 45.96274,43.13876 59.85708,59.86191 15.87805,19.11074 18.62398,23.72562 18.62398,31.2999 0,13.72707 -15.93417,77.79723 -27.94832,112.37818 -3.73722,10.75705 -7.17285,20.71231 -7.63473,22.12291 -0.62347,1.904 0.2665,2.804 3.45517,3.4942 19.00612,4.1135 30.53861,18.5683 30.57566,38.3234 0.0322,17.1728 -10.67964,32.9855 -25.31549,37.3705 -8.99544,2.6951 -119.42173,2.292 -127.15404,-0.4642 z m 96.7412,-75.4742 c 3.77065,-0.7542 5.52026,-2.4212 8.28989,-7.8986 8.9798,-17.759 29.19309,-89.78377 30.44847,-108.4952 l 0.75706,-11.28362 -7.70429,-12.7881 c -19.74406,-32.77256 -51.28973,-72.21516 -57.75673,-72.21516 -6.55988,0 -30.06262,18.43914 -54.56981,42.81289 -21.83197,21.71311 -22.33633,22.7408 -21.04441,42.88096 1.95438,30.46733 11.74024,96.60033 15.92154,107.59797 0.79336,2.0867 3.65005,5.13652 6.3482,6.77735 11.53143,7.01271 64.88445,15.49661 79.31008,12.61151 z"
         id="path886"
         transform="scale(0.26458333)" />
      <path
         style="fill:#ffffff;stroke:#000000;stroke-width:8.33033;stroke-linecap:round;stroke-linejoin:round;stroke-opacity:0.955017;paint-order:stroke markers fill"
         d="m 692.5175,1005.3077 c -1.18792,-0.7552 -1.32382,-1.8999 -0.39916,-3.362 0.77111,-1.2194 1.41239,-12.20854 1.42506,-24.42037 l 0.023,-22.20329 6.00224,-2.40162 c 5.05601,-2.02301 6.26922,-3.38485 7.69581,-8.63859 2.06213,-7.59424 0.88888,-24.13931 -2.24337,-31.63583 -1.73325,-4.14825 -3.41492,-5.71569 -6.87461,-6.40763 l -4.58007,-0.91601 v -30.56994 c 0,-29.88795 -0.0786,-30.66131 -3.5231,-34.66578 -4.56928,-5.3121 -12.25418,-5.62832 -16.26962,-0.66947 -2.49702,3.0837 -2.77451,6.54679 -2.77451,34.62563 v 31.19925 l -6.00762,2.35986 c -7.95232,3.12376 -9.4558,7.39254 -8.72864,24.78287 0.63779,15.25285 3.38414,21.34877 10.35843,22.99198 3.61128,0.85085 3.62722,0.94449 4.04089,23.73141 0.32605,17.9605 -0.004,22.87723 -1.53704,22.87723 -3.9557,0 -22.15848,-5.64618 -25.71447,-7.97616 -2.82527,-1.85119 -4.2175,-4.93308 -6.04774,-13.38752 -7.84058,-36.21794 -15.52159,-102.24824 -12.94084,-111.24676 1.84176,-6.42187 12.80064,-18.76279 32.20007,-36.2609 18.20729,-16.42281 33.80543,-28.21591 37.31976,-28.21591 5.67838,0 40.77619,45.81659 56.59939,73.8847 4.70144,8.3397 4.73928,8.57149 3.19295,19.55828 -3.02907,21.5217 -19.64821,80.2266 -28.17004,99.5069 l -3.82361,8.65077 -13.71101,-0.023 c -7.54105,-0.012 -14.52154,-0.5383 -15.51219,-1.1681 z"
         id="path962"
         transform="scale(0.26458333)" />
      <path
         style="fill:#ffffff;stroke:#000000;stroke-width:8.33033;stroke-linecap:round;stroke-linejoin:round;stroke-opacity:0.955017;paint-order:stroke markers fill"
         d="m 678.52162,1002.0208 c -1.80121,-1.1358 -2.40856,-6.36958 -3.00897,-25.92932 l -0.75224,-24.50628 -4.1702,-0.47923 c -5.75554,-0.6614 -8.17347,-5.24398 -9.27297,-17.57456 -1.33524,-14.97433 0.14234,-19.04773 7.89636,-21.76861 l 6.29905,-2.21034 0.17801,-29.38379 c 0.20499,-33.83955 0.79496,-38.22394 5.22901,-38.85942 6.5913,-0.94466 7.35009,2.60444 7.86423,36.7838 0.47894,31.83871 0.51175,32.11908 3.76121,32.14191 7.39322,0.052 10.13198,5.98191 10.21623,22.1202 0.0643,12.31687 -1.02842,14.52639 -8.38472,16.95419 l -4.96707,1.63928 -0.60686,23.84587 c -0.69652,27.369 -2.49626,32.1351 -10.28107,27.2263 z"
         id="path1038"
         transform="scale(0.26458333)" />
    </g>
    <g
       id="g1275">
      <path
         id="path3128"
         style="fill:none;stroke:#000000;stroke-width:0.924481;stroke-linecap:round;stroke-linejoin:round;stroke-opacity:0.955017;paint-order:stroke markers fill"
         d="m 24.795502,220.15874 c -1.306545,0 -2.358538,1.18852 -2.358538,2.66467 v 15.84024 c -1.474149,0.25684 -2.719098,0.67527 -3.196169,1.22476 -1.352324,1.55761 -0.96085,8.90898 0.63197,10.24361 0.457176,0.38306 1.412385,0.59994 2.564199,0.68467 v 11.08671 c 0,1.47616 1.051993,2.66445 2.358538,2.66445 1.306546,0 2.35833,-1.18829 2.35833,-2.66445 v -11.36459 c 1.489451,-0.27078 2.747695,-0.69867 3.230164,-1.24505 1.366925,-1.54802 0.844335,-8.81122 -0.733114,-10.15276 -0.447061,-0.3802 -1.375608,-0.60494 -2.49705,-0.70358 v -15.61401 c 0,-1.47615 -1.051784,-2.66467 -2.35833,-2.66467 z m 11.034186,44.8622 c -1.933964,1.7454 -20.75187,-1.25744 -22.434369,-3.51188 -1.6825,-2.25444 -5.48609,-30.37317 -4.590583,-33.54066 0.895506,-3.16749 17.188664,-17.88091 19.422817,-17.54505 2.234152,0.33585 16.18232,19.72485 16.666541,23.08966 0.484217,3.36481 -7.130441,29.76253 -9.064406,31.50793 z m -8.239471,-61.37191 c -2.898604,-0.0768 -22.676694,19.0549 -23.673063,22.82683 -0.996369,3.77194 5.586805,36.0291 7.875894,38.4971 0.137044,0.14775 0.35716,0.29045 0.642271,0.42825 h -0.220985 c -5.464596,0 -9.863916,4.86442 -9.863916,10.90675 0,6.04232 4.39932,10.90675 9.863916,10.90675 h 28.485132 c 5.464598,0 9.863919,-4.86443 9.863919,-10.90675 0,-5.83045 -4.099647,-10.55043 -9.296573,-10.87525 2.926173,-5.58552 10.389694,-33.62944 9.649049,-37.24641 -0.793399,-3.8746 -20.42704,-24.46053 -23.325644,-24.53727 z" />
      <path
         style="fill:#000000;stroke:#000000;stroke-width:8.33033;stroke-linecap:round;stroke-linejoin:round;stroke-opacity:0.955017;paint-order:stroke markers fill"
         d="m 35.543046,1081.0172 c -13.641582,-4.8626 -23.490492,-20.3568 -23.459447,-36.9063 0.03803,-20.271 12.13986,-35.1472 31.170274,-38.3163 6.327766,-1.0537 8.578921,-4.1534 4.228784,-5.82269 -5.704959,-2.1892 -24.386455,-82.68682 -29.484864,-127.04879 -1.76226,-15.33367 -1.744757,-15.52443 1.932603,-21.06276 10.825506,-16.30387 57.147878,-61.75713 75.825797,-74.40313 l 8.309387,-5.62592 7.01815,4.79906 c 8.94061,6.11364 45.96274,43.13876 59.85708,59.86191 15.87805,19.11074 18.62399,23.72562 18.62399,31.2999 0,13.72707 -15.93417,77.79723 -27.94832,112.37818 -3.73723,10.75705 -7.17286,20.71234 -7.63474,22.12294 -0.62347,1.904 0.26651,2.804 3.45518,3.4941 19.00611,4.1136 30.5386,18.5684 30.57566,38.3235 0.0322,17.1727 -10.67965,32.9855 -25.31549,37.3705 -8.99545,2.6951 -119.421741,2.2919 -127.154044,-0.4642 z m 96.741194,-75.4743 c 3.77065,-0.7541 5.52027,-2.4211 8.28989,-7.8985 8.97981,-17.75903 29.19309,-89.7838 30.44848,-108.49523 l 0.75705,-11.28362 -7.70429,-12.7881 c -19.74405,-32.77256 -51.28973,-72.21516 -57.75673,-72.21516 -6.559881,0 -30.062619,18.43914 -54.569806,42.81289 -21.831972,21.71311 -22.336329,22.7408 -21.044407,42.88096 1.954376,30.46733 11.740236,96.60033 15.921535,107.59797 0.793364,2.0867 3.650053,5.13652 6.348201,6.77735 11.531434,7.01269 64.884447,15.49664 79.310077,12.61144 z"
         id="path1114"
         transform="scale(0.26458333)" />
      <path
         style="fill:#000000;stroke:#000000;stroke-width:8.33033;stroke-linecap:round;stroke-linejoin:round;stroke-opacity:0.955017;paint-order:stroke markers fill"
         d="m 90.268951,996.02398 c -1.799972,-1.15186 -2.408974,-6.40413 -3.008965,-25.95043 l -0.752241,-24.50628 -4.1702,-0.47923 c -6.102576,-0.70128 -8.975172,-6.24154 -9.7438,-18.79247 -0.875358,-14.2937 0.836486,-18.43436 8.580374,-20.75449 l 6.085867,-1.82337 v -31.45489 c 0,-32.43474 0.777245,-37.27502 5.985554,-37.27502 6.629415,0 7.55479,4.64805 7.55479,37.94682 V 904.194 l 3.38508,0.023 c 6.64636,0.0452 9.06425,3.94608 10.70987,17.27851 1.54587,12.52433 -0.30807,17.57776 -7.71296,21.02382 l -6.38199,2.97003 -0.0222,21.85394 c -0.0226,22.26652 -1.373221,28.92327 -6.033539,29.73725 -1.220415,0.21316 -3.234462,-0.2623 -4.47566,-1.0566 z"
         id="path1153"
         transform="scale(0.26458333)" />
    </g>
    <g
       id="g1539">
      <path
         id="rect2575"
         style="fill:none;stroke:#000000;stroke-width:0.924481;stroke-linecap:round;stroke-linejoin:round;stroke-opacity:0.955017;paint-order:stroke markers fill"
         d="m 30.766417,19.93405 c -1.306545,0 -2.358538,1.188519 -2.358538,2.664675 v 15.840237 c -1.474149,0.25684 -2.719098,0.675268 -3.196169,1.224759 -1.352324,1.557612 -0.96085,8.908987 0.63197,10.243609 0.457176,0.383066 1.412385,0.599941 2.564199,0.684673 v 11.086715 c 0,1.476154 1.051993,2.664443 2.358538,2.664443 1.306546,0 2.35833,-1.188289 2.35833,-2.664443 V 50.314124 c 1.489451,-0.270785 2.747695,-0.698669 3.230164,-1.245053 1.366925,-1.548016 0.844335,-8.811217 -0.733114,-10.152753 -0.447061,-0.380202 -1.375608,-0.604945 -2.49705,-0.703583 v -15.61401 c 0,-1.476156 -1.051784,-2.664675 -2.35833,-2.664675 z m 11.034186,44.862204 c -1.933964,1.745404 -20.75187,-1.25744 -22.434369,-3.511879 -1.6825,-2.254439 -5.48609,-30.373174 -4.590583,-33.540665 0.895506,-3.16749 17.188664,-17.880908 19.422817,-17.545051 2.234152,0.335858 16.18232,19.724851 16.666541,23.089664 0.484217,3.364813 -7.130441,29.762533 -9.064406,31.507931 z M 33.561132,3.42434 C 30.662528,3.347595 10.884438,22.479241 9.8880689,26.251175 c -0.996369,3.771936 5.5868051,36.029096 7.8758941,38.497095 0.137044,0.147756 0.35716,0.290453 0.642271,0.42825 h -0.220985 c -5.464596,0 -9.8639161,4.864426 -9.8639161,10.90675 0,6.042323 4.3993201,10.906755 9.8639161,10.906755 h 28.485132 c 5.464598,0 9.863919,-4.864432 9.863919,-10.906755 0,-5.830443 -4.099647,-10.550429 -9.296573,-10.875245 C 50.1639,59.622507 57.627421,31.57858 56.886776,27.961614 56.093377,24.087018 36.459736,3.501085 33.561132,3.42434 Z" />
      <path
         style="fill:#ffffff;stroke:#000000;stroke-width:8.33033;stroke-linecap:round;stroke-linejoin:round;stroke-opacity:0.955017;paint-order:stroke markers fill"
         d="m 58.110284,324.26246 c -13.641583,-4.86252 -23.490492,-20.35678 -23.459447,-36.9063 0.03802,-20.27094 12.13986,-35.14721 31.170273,-38.31625 6.327767,-1.05374 8.578922,-4.15341 4.228785,-5.82271 C 64.344936,241.028 45.66344,160.53038 40.565031,116.16841 38.802771,100.83474 38.820274,100.64398 42.497634,95.105654 53.323139,78.801786 99.645512,33.348525 118.32343,20.702522 l 8.30939,-5.625921 7.01815,4.799055 c 8.94061,6.11365 45.96274,43.138766 59.85708,59.861918 15.87805,19.110733 18.62399,23.725616 18.62399,31.299896 0,13.72707 -15.93417,77.79723 -27.94832,112.37818 -3.73723,10.75705 -7.17286,20.71235 -7.63474,22.12289 -0.62347,1.90403 0.2665,2.80406 3.45517,3.49419 19.00612,4.11356 30.53861,18.56834 30.57567,38.32343 0.0322,17.17275 -10.67965,32.9855 -25.3155,37.37051 -8.99544,2.6951 -119.421733,2.29195 -127.154036,-0.46421 z m 96.741196,-75.47423 c 3.77065,-0.75413 5.52027,-2.42115 8.28989,-7.89854 8.9798,-17.75903 29.19309,-89.7838 30.44848,-108.49523 l 0.75705,-11.28362 -7.70429,-12.7881 C 166.89855,75.550185 135.35288,36.107581 128.88588,36.107581 c -6.55988,0 -30.062622,18.439136 -54.569808,42.81289 C 52.4841,100.63358 51.979743,101.66128 53.271665,121.80143 55.22604,152.26876 65.0119,218.40176 69.1932,229.3994 c 0.793364,2.08671 3.650052,5.13652 6.3482,6.77735 11.531435,7.01269 64.88445,15.49661 79.31008,12.61148 z"
         id="path1338"
         transform="scale(0.26458333)" />
      <path
         style="fill:#ffffff;stroke:#000000;stroke-width:8.33033;stroke-linecap:round;stroke-linejoin:round;stroke-opacity:0.955017;paint-order:stroke markers fill"
         d="m 112.83619,239.26927 c -1.79997,-1.15186 -2.40898,-6.40413 -3.00897,-25.95043 l -0.75224,-24.50628 -4.1702,-0.47923 c -6.102573,-0.70128 -8.975169,-6.24154 -9.743797,-18.79246 -0.875358,-14.29371 0.836486,-18.43437 8.580377,-20.75449 l 6.08586,-1.82337 v -31.4549 c 0,-32.434737 0.77725,-37.275019 5.98556,-37.275019 6.62941,0 7.55479,4.648046 7.55479,37.946819 v 31.25938 l 3.38508,0.023 c 6.64636,0.0452 9.06425,3.94608 10.70986,17.27851 1.54588,12.52434 -0.30806,17.57776 -7.71295,21.02382 l -6.38199,2.97003 -0.0222,21.85394 c -0.0226,22.26652 -1.37322,28.92327 -6.03354,29.73725 -1.22042,0.21316 -3.23446,-0.2623 -4.47566,-1.0566 z"
         id="path1377"
         transform="scale(0.26458333)" />
      <path
         style="fill:#ffffff;stroke:#000000;stroke-width:8.33033;stroke-linecap:round;stroke-linejoin:round;stroke-opacity:0.955017;paint-order:stroke markers fill"
         d="m 126.83207,242.53505 c -1.18791,-0.75516 -1.32382,-1.89987 -0.39916,-3.36203 0.77112,-1.21937 1.4124,-12.2085 1.42507,-24.42033 l 0.023,-22.20328 6.00224,-2.40163 c 5.05601,-2.02301 6.26923,-3.38485 7.69582,-8.63859 2.06212,-7.59423 0.88887,-24.13931 -2.24338,-31.63583 -1.73325,-4.14825 -3.41492,-5.71569 -6.87461,-6.40763 l -4.58007,-0.91601 v -30.56994 c 0,-29.887953 -0.0786,-30.661307 -3.5231,-34.665782 -4.56928,-5.312102 -12.25418,-5.628321 -16.26961,-0.669464 -2.49703,3.083694 -2.77452,6.546791 -2.77452,34.625626 v 31.19925 l -6.007614,2.35986 c -7.95232,3.12376 -9.455805,7.39254 -8.728644,24.78287 0.625948,14.96978 3.549318,21.72799 9.803998,22.66477 3.80174,0.56939 4.93226,7.58235 4.93226,30.59648 0,12.21679 -0.48271,16.33933 -1.91317,16.33933 -3.924192,0 -22.137366,-5.65798 -25.67528,-7.97612 -2.825271,-1.85119 -4.217499,-4.93308 -6.047743,-13.38752 C 63.837015,181.63114 56.156006,115.60084 58.73675,106.60232 c 1.841766,-6.42187 12.800643,-18.762793 32.20007,-36.2609 18.20729,-16.422807 33.80543,-28.215909 37.31976,-28.215909 5.67838,0 40.77619,45.816591 56.59939,73.884709 4.70145,8.33969 4.73929,8.57148 3.19295,19.55827 -3.02907,21.52171 -19.64821,80.2266 -28.17004,99.5069 l -3.82361,8.65078 -13.71101,-0.023 c -7.54105,-0.012 -14.52154,-0.5383 -15.51219,-1.16808 z"
         id="path1416"
         transform="scale(0.26458333)" />
    </g>
  </g>
</svg>
