<?xml version="1.0" encoding="UTF-8" standalone="no"?>
<!-- Created with Inkscape (http://www.inkscape.org/) -->

<svg
   width="210mm"
   height="297mm"
   viewBox="0 0 210 297"
   version="1.1"
   id="svg851"
   sodipodi:docname="midi interface icon svg.svg"
   inkscape:version="1.1.2 (0a00cf5339, 2022-02-04, custom)"
   xmlns:inkscape="http://www.inkscape.org/namespaces/inkscape"
   xmlns:sodipodi="http://sodipodi.sourceforge.net/DTD/sodipodi-0.dtd"
   xmlns="http://www.w3.org/2000/svg"
   xmlns:svg="http://www.w3.org/2000/svg">
  <sodipodi:namedview
     id="namedview853"
     pagecolor="#ffffff"
     bordercolor="#666666"
     borderopacity="1.0"
     inkscape:pageshadow="2"
     inkscape:pageopacity="0.0"
     inkscape:pagecheckerboard="0"
     inkscape:document-units="mm"
     showgrid="false"
     inkscape:zoom="0.9983453"
     inkscape:cx="345.07099"
     inkscape:cy="908.00247"
     inkscape:window-width="1680"
     inkscape:window-height="956"
     inkscape:window-x="-11"
     inkscape:window-y="-11"
     inkscape:window-maximized="1"
     inkscape:current-layer="layer4" />
  <defs
     id="defs848">
    <inkscape:path-effect
       effect="spiro"
       id="path-effect1658"
       is_visible="true"
       lpeversion="1" />
    <inkscape:path-effect
       effect="spiro"
       id="path-effect1652"
       is_visible="true"
       lpeversion="1" />
  </defs>
  <g
     inkscape:label="Layer 1"
     inkscape:groupmode="layer"
     id="layer1">
    <g
       id="g1780"
       transform="matrix(0.52436303,0,0,0.47494246,34.945094,-3.9306896)">
      <path
         id="ellipse1465"
         style="fill:none;fill-rule:evenodd;stroke:#000000;stroke-width:0.957147;stroke-linecap:round;stroke-linejoin:round;stroke-miterlimit:4;stroke-dasharray:none;paint-order:stroke markers fill"
         d="m 45.715731,84.125354 a 1.4187344,6.8956199 13.350088 0 1 -2.960618,6.070556 1.4187344,6.8956199 13.350088 0 1 0.340505,-7.30697 1.4187344,6.8956199 13.350088 0 1 2.960617,-6.070562 1.4187344,6.8956199 13.350088 0 1 -0.340504,7.306976 z M 24.141462,82.163228 a 6.7977139,1.4391682 72.995452 0 1 0.792521,7.239645 6.7977139,1.4391682 72.995452 0 1 -3.326279,-5.696972 6.7977139,1.4391682 72.995452 0 1 -0.792521,-7.23965 6.7977139,1.4391682 72.995452 0 1 3.326279,5.696977 z m 5.871289,0.584789 a 6.967549,1.4040882 79.938948 0 1 -0.07892,7.321323 6.967549,1.4040882 79.938948 0 1 -2.603764,-6.375654 6.967549,1.4040882 79.938948 0 1 0.07892,-7.321311 6.967549,1.4040882 79.938948 0 1 2.60376,6.375642 z m 5.011607,-0.09975 a 1.3842332,7.0674892 0 0 1 -1.384231,7.067486 1.3842332,7.0674892 0 0 1 -1.384234,-7.067486 1.3842332,7.0674892 0 0 1 1.384233,-7.067496 1.3842332,7.0674892 0 0 1 1.384232,7.067496 z m 5.097729,0.919838 a 1.420541,6.8868501 13.706386 0 1 -2.99774,6.035624 1.420541,6.8868501 13.706386 0 1 0.385306,-7.302716 1.420541,6.8868501 13.706386 0 1 2.997743,-6.035621 1.420541,6.8868501 13.706386 0 1 -0.385309,7.302713 z m 15.370599,4.59712 A 21.129978,21.979762 0 0 1 34.362708,110.145 21.129978,21.979762 0 0 1 13.23273,88.165229 21.129978,21.979762 0 0 1 34.362708,66.185467 21.129978,21.979762 0 0 1 55.492686,88.165227 Z" />
      <rect
         style="fill:none;fill-rule:evenodd;stroke:#000000;stroke-width:1.008;stroke-linecap:round;stroke-linejoin:round;stroke-miterlimit:4;stroke-dasharray:none;paint-order:stroke markers fill"
         id="rect1533"
         width="238.36481"
         height="123.64378"
         x="-14.446351"
         y="22.944206"
         ry="2.7618003" />
      <rect
         style="fill:none;fill-rule:evenodd;stroke:#000000;stroke-width:0.979519;stroke-linecap:round;stroke-linejoin:round;stroke-miterlimit:4;stroke-dasharray:none;paint-order:stroke markers fill"
         id="rect1535"
         width="214.59929"
         height="113.04994"
         x="-3.4133823"
         y="33.552284"
         ry="2.7624962" />
      <path
         style="color:#000000;fill:#000000;-inkscape-stroke:none"
         d="m -14.111328,22.595703 -0.669922,0.697266 11.0332031,10.607422 0.6699219,-0.695313 z"
         id="path1650" />
      <path
         style="color:#000000;fill:#000000;-inkscape-stroke:none"
         d="m 221.4668,22.595703 -11.03321,10.609375 0.66993,0.695313 11.0332,-10.607422 z"
         id="path1654" />
      <path
         id="path1740"
         style="fill:none;fill-rule:evenodd;stroke:#000000;stroke-width:0.957147;stroke-linecap:round;stroke-linejoin:round;stroke-miterlimit:4;stroke-dasharray:none;paint-order:stroke markers fill"
         d="m 106.56997,84.125354 a 1.4187344,6.8956199 13.350088 0 1 -2.96063,6.070556 1.4187344,6.8956199 13.350088 0 1 0.3405,-7.30697 1.4187344,6.8956199 13.350088 0 1 2.96064,-6.070562 1.4187344,6.8956199 13.350088 0 1 -0.34051,7.306976 z M 84.995667,82.163228 a 6.7977139,1.4391682 72.995452 0 1 0.792521,7.239645 6.7977139,1.4391682 72.995452 0 1 -3.326279,-5.696972 6.7977139,1.4391682 72.995452 0 1 -0.792521,-7.23965 6.7977139,1.4391682 72.995452 0 1 3.326279,5.696977 z m 5.871287,0.584789 a 6.967549,1.4040882 79.938948 0 1 -0.0789,7.321323 6.967549,1.4040882 79.938948 0 1 -2.603762,-6.375654 6.967549,1.4040882 79.938948 0 1 0.07892,-7.321311 6.967549,1.4040882 79.938948 0 1 2.603762,6.375642 z m 5.01161,-0.09975 a 1.3842332,7.0674892 0 0 1 -1.384231,7.067486 1.3842332,7.0674892 0 0 1 -1.384231,-7.067486 1.3842332,7.0674892 0 0 1 1.384231,-7.067496 1.3842332,7.0674892 0 0 1 1.384231,7.067496 z m 5.097726,0.919838 a 1.420541,6.8868501 13.706386 0 1 -2.997738,6.035624 1.420541,6.8868501 13.706386 0 1 0.38531,-7.302716 1.420541,6.8868501 13.706386 0 1 2.997748,-6.035621 1.420541,6.8868501 13.706386 0 1 -0.38532,7.302713 z m 15.37069,4.59712 A 21.129978,21.979762 0 0 1 95.21691,110.145 21.129978,21.979762 0 0 1 74.086935,88.165229 21.129978,21.979762 0 0 1 95.21691,66.185467 a 21.129978,21.979762 0 0 1 21.13007,21.97976 z" />
      <path
         id="path1742"
         style="fill:none;fill-rule:evenodd;stroke:#000000;stroke-width:0.957147;stroke-linecap:round;stroke-linejoin:round;stroke-miterlimit:4;stroke-dasharray:none;paint-order:stroke markers fill"
         d="m 165.30784,84.125354 a 1.4187344,6.8956199 13.350088 0 1 -2.96063,6.070556 1.4187344,6.8956199 13.350088 0 1 0.3405,-7.30697 1.4187344,6.8956199 13.350088 0 1 2.96064,-6.070562 1.4187344,6.8956199 13.350088 0 1 -0.34051,7.306976 z m -21.57439,-1.962126 a 6.7977139,1.4391682 72.995452 0 1 0.79253,7.239645 6.7977139,1.4391682 72.995452 0 1 -3.3263,-5.696972 6.7977139,1.4391682 72.995452 0 1 -0.79253,-7.23965 6.7977139,1.4391682 72.995452 0 1 3.3263,5.696977 z m 5.87132,0.584789 a 6.967549,1.4040882 79.938948 0 1 -0.0789,7.321323 6.967549,1.4040882 79.938948 0 1 -2.60378,-6.375654 6.967549,1.4040882 79.938948 0 1 0.0789,-7.321311 6.967549,1.4040882 79.938948 0 1 2.60378,6.375642 z m 5.01164,-0.09975 a 1.3842332,7.0674892 0 0 1 -1.38424,7.067486 1.3842332,7.0674892 0 0 1 -1.38424,-7.067486 1.3842332,7.0674892 0 0 1 1.38424,-7.067496 1.3842332,7.0674892 0 0 1 1.38424,7.067496 z m 5.09775,0.919838 a 1.420541,6.8868501 13.706386 0 1 -2.99775,6.035624 1.420541,6.8868501 13.706386 0 1 0.38531,-7.302716 1.420541,6.8868501 13.706386 0 1 2.99776,-6.035621 1.420541,6.8868501 13.706386 0 1 -0.38532,7.302713 z m 15.37069,4.59712 a 21.129978,21.979762 0 0 1 -21.1301,21.979775 21.129978,21.979762 0 0 1 -21.13009,-21.979771 21.129978,21.979762 0 0 1 21.13009,-21.979762 21.129978,21.979762 0 0 1 21.1301,21.97976 z" />
    </g>
    <path
       style="fill:#000000;fill-rule:evenodd;stroke:#000000;stroke-width:2.23882;stroke-linecap:round;stroke-linejoin:round;paint-order:stroke markers fill"
       d=""
       id="path1156"
       transform="scale(0.26458333)" />
    <path
       style="fill:#000000;fill-rule:evenodd;stroke:#000000;stroke-width:2.23882;stroke-linecap:round;stroke-linejoin:round;paint-order:stroke markers fill"
       d=""
       id="path1312"
       transform="scale(0.26458333)" />
    <path
       style="fill:#000000;fill-rule:evenodd;stroke:#000000;stroke-width:2.23882;stroke-linecap:round;stroke-linejoin:round;paint-order:stroke markers fill"
       d=""
       id="path1429"
       transform="scale(0.26458333)" />
    <path
       style="fill:#000000;fill-rule:evenodd;stroke:#000000;stroke-width:2.23882;stroke-linecap:round;stroke-linejoin:round;paint-order:stroke markers fill"
       d=""
       id="path1546"
       transform="scale(0.26458333)" />
    <path
       style="fill:#000000;fill-rule:evenodd;stroke:#000000;stroke-width:2.23882;stroke-linecap:round;stroke-linejoin:round;paint-order:stroke markers fill"
       d=""
       id="path1858"
       transform="scale(0.26458333)" />
    <path
       style="fill:#000000;fill-rule:evenodd;stroke:#000000;stroke-width:2.23882;stroke-linecap:round;stroke-linejoin:round;paint-order:stroke markers fill"
       d=""
       id="path2170"
       transform="scale(0.26458333)" />
    <path
       style="fill:#000000;fill-rule:evenodd;stroke:#000000;stroke-width:2.23882;stroke-linecap:round;stroke-linejoin:round;paint-order:stroke markers fill"
       d=""
       id="path2287"
       transform="scale(0.26458333)" />
  </g>
  <g
     inkscape:groupmode="layer"
     id="layer2"
     inkscape:label="Layer 2">
    <path
       style="fill:#000000;stroke-width:0.264583"
       d="m 29.934476,136.87297 c -0.52813,-0.52813 -0.532042,-0.77611 -0.463021,-29.34674 0.03829,-15.847712 0.168824,-28.91324 0.290086,-29.034483 0.121261,-0.121244 28.070438,-0.250955 62.10928,-0.288246 61.645819,-0.06754 61.890889,-0.06572 62.419629,0.463021 0.52482,0.524822 0.53082,0.853871 0.53082,29.105748 0,28.22222 -0.007,28.58153 -0.52916,29.10417 -0.52614,0.52614 -0.88195,0.52916 -62.177087,0.52916 -61.428769,0 -61.64981,-0.002 -62.180547,-0.53263 z m 117.469154,-0.50831 c 0.18338,-0.34265 0.27389,-8.96079 0.27389,-26.07885 0,-17.118021 -0.0905,-25.736124 -0.27389,-26.078774 -0.26945,-0.50347 -1.17196,-0.51177 -55.641873,-0.51177 -42.71121,0 -55.440562,0.0726 -55.685484,0.3175 -0.460505,0.4605 -0.460505,52.085664 0,52.546174 0.244922,0.24492 12.974274,0.3175 55.685484,0.3175 54.469913,0 55.372423,-0.008 55.641873,-0.51178 z M 51.52717,119.43021 c -3.061628,-1.00605 -5.308046,-3.01887 -6.710651,-6.01282 -0.629349,-1.34338 -0.723371,-1.87153 -0.723371,-4.06337 0,-2.30502 0.07277,-2.66709 0.855564,-4.257 1.082322,-2.19828 3.181283,-4.21526 5.558326,-5.341237 1.682494,-0.796977 1.960227,-0.846324 4.69861,-0.834844 2.407555,0.0101 3.159911,0.116017 4.354417,0.613094 3.077668,1.280737 5.367094,3.631497 6.406417,6.578037 0.793417,2.24937 0.60656,5.49282 -0.439838,7.63471 -1.039267,2.1273 -3.134468,4.16552 -5.353753,5.20814 -1.582423,0.74342 -2.101996,0.85057 -4.438076,0.91525 -2.054553,0.0569 -2.994861,-0.0414 -4.207645,-0.43996 z m 7.598725,-0.55002 c 4.261011,-1.59425 6.902857,-5.30864 6.864257,-9.65104 -0.02305,-2.5936 -0.801269,-4.51425 -2.629016,-6.48843 -5.154811,-5.567792 -14.5868,-4.337738 -17.870836,2.3306 -0.796787,1.6179 -0.867985,1.96916 -0.867985,4.28223 0,2.18016 0.09557,2.72366 0.709098,4.03267 1.382641,2.94995 4.423171,5.34949 7.625277,6.01776 1.660173,0.34647 4.484044,0.10671 6.169205,-0.52379 z m -6.942828,-8.95365 c -0.493111,-0.92138 -1.078461,-3.5484 -1.078461,-4.84008 0,-2.60924 1.292706,-1.652 1.987706,1.4719 0.515718,2.31805 0.449569,3.68747 -0.183916,3.80739 -0.244843,0.0463 -0.571241,-0.15129 -0.725329,-0.43921 z m 2.270592,-0.0583 c -0.502582,-0.71754 -0.625545,-4.74494 -0.180601,-5.91523 0.283692,-0.74617 0.922137,-0.90314 1.159325,-0.28503 0.590912,1.53989 0.467854,5.44805 -0.200316,6.36183 -0.317803,0.43462 -0.368133,0.42418 -0.778408,-0.16157 z m 4.778863,0.0302 c -0.200443,-0.76649 0.457488,-3.71348 1.11819,-5.00857 0.614317,-1.20415 1.200298,-1.40339 1.430459,-0.48635 0.203324,0.81011 -0.490837,4.02061 -1.091806,5.04961 -0.582321,0.99707 -1.258506,1.20376 -1.456843,0.44531 z m -9.860111,-0.38821 c -1.058175,-1.61498 -1.92335,-4.9864 -1.461766,-5.69622 0.216162,-0.33241 0.32396,-0.32054 0.772092,0.085 0.988542,0.89462 2.339858,4.94166 1.970994,5.90291 -0.211601,0.55142 -0.819574,0.41302 -1.28132,-0.2917 z m 6.898534,0.13603 c -0.38127,-1.20127 1.293,-6.10735 2.084221,-6.10735 0.800386,0 0.697688,2.14439 -0.226986,4.73965 -0.662945,1.86067 -1.504156,2.48016 -1.857235,1.3677 z m 27.241664,9.82089 c -6.258375,-2.1641 -9.27917,-8.53759 -6.753098,-14.24819 3.035877,-6.863098 12.654637,-8.622929 18.294826,-3.34721 4.184512,3.91412 4.484662,10.11443 0.690587,14.26575 -1.624497,1.77746 -2.781107,2.54481 -4.923647,3.26658 -2.043187,0.6883 -5.416376,0.71741 -7.308668,0.0631 z m 6.222415,-0.20386 c 3.251105,-0.73945 6.135572,-3.10394 7.411863,-6.07574 1.641452,-3.82207 0.444164,-8.73825 -2.769441,-11.37156 -4.405553,-3.610008 -10.738744,-3.446048 -14.787224,0.38282 -3.324405,3.14408 -4.173487,7.37221 -2.283158,11.3693 1.331103,2.81462 3.816519,4.79249 7.147232,5.6877 1.894456,0.50919 3.067571,0.51085 5.280728,0.007 z m -5.662157,-9.44053 c -0.447469,-0.69837 -0.844616,-2.18369 -1.078862,-4.0349 -0.12531,-0.99032 -0.0641,-1.45595 0.243477,-1.85208 0.40716,-0.52438 0.414483,-0.52449 0.810202,-0.0122 0.605822,0.78426 0.954823,2.17772 1.113023,4.44399 0.123251,1.76559 0.08411,2.05052 -0.281631,2.05052 -0.233624,0 -0.596418,-0.26789 -0.806209,-0.59531 z m 2.184173,0.0309 c -0.389446,-0.69007 -0.49493,-4.64063 -0.156248,-5.8517 0.111914,-0.40019 0.382752,-0.72761 0.601861,-0.72761 0.664679,0 0.961205,1.32798 0.869408,3.89359 -0.06543,1.82874 -0.196554,2.54757 -0.524439,2.87514 -0.406392,0.40599 -0.462086,0.39265 -0.790582,-0.18942 z m 4.79965,-0.44762 c 0,-1.31635 0.906454,-4.298 1.547201,-5.08929 1.274067,-1.57341 1.455687,1.39215 0.26875,4.38824 -0.475697,1.20077 -0.769273,1.60115 -1.221107,1.66537 -0.530921,0.0755 -0.594844,-0.0282 -0.594844,-0.96432 z m -9.600354,0.28123 c -0.825322,-0.91197 -1.590569,-3.06705 -1.617765,-4.55594 -0.03302,-1.80752 0.468852,-1.95692 1.349666,-0.40177 1.602248,2.8289 1.809472,6.66091 0.268099,4.95771 z m 6.777287,-1.28858 c 0.18624,-1.9944 1.359437,-4.72746 2.029317,-4.72746 0.628345,0 0.442103,2.89408 -0.30811,4.78781 -0.486535,1.22815 -0.754716,1.5814 -1.254186,1.65204 -0.630933,0.0892 -0.634156,0.0774 -0.467021,-1.71239 z m 25.706577,10.92536 c -3.02927,-1.12657 -5.03046,-2.91237 -6.42217,-5.73095 -0.63671,-1.28951 -0.71853,-1.75646 -0.71858,-4.10104 -5e-5,-2.4283 0.0696,-2.7929 0.84729,-4.43465 3.96148,-8.363029 16.58639,-8.321109 20.56226,0.0683 0.73285,1.54636 0.8154,1.97502 0.8154,4.23409 0,2.19496 -0.0931,2.7124 -0.73479,4.08255 -1.44037,3.07569 -3.63793,5.00606 -6.8299,5.99951 -2.26909,0.70622 -5.43726,0.6566 -7.51951,-0.11778 z m 5.96675,0.0879 c 3.29391,-0.62468 6.24438,-2.78721 7.75259,-5.68222 0.76715,-1.47255 0.82951,-1.7903 0.83248,-4.2417 0.003,-2.46299 -0.058,-2.77436 -0.86477,-4.41452 -2.02453,-4.11588 -6.57846,-6.402361 -11.41792,-5.732824 -3.38702,0.468587 -6.31934,2.516864 -7.97518,5.570794 -0.86752,1.59999 -0.90558,1.78699 -0.90558,4.44833 0,2.49629 0.0739,2.92869 0.72887,4.2623 1.33636,2.72117 4.58064,5.1689 7.65214,5.77334 1.6175,0.31831 2.58584,0.32212 4.19737,0.0165 z m -5.35871,-10.25023 c -0.7057,-1.59535 -0.85518,-5.49045 -0.2107,-5.49045 0.55715,0 1.23268,1.54467 1.59598,3.6494 0.53513,3.10019 -0.32352,4.24133 -1.38528,1.84105 z m 2.76106,1.03293 c -0.83631,-0.52853 -0.91773,-5.90264 -0.10179,-6.71858 0.78987,-0.78986 1.4921,1.80648 1.21301,4.48482 -0.18702,1.79482 -0.57421,2.57314 -1.11122,2.23376 z m 4.53699,-0.16751 c -0.22282,-0.58066 0.59519,-4.28259 1.16002,-5.24973 0.26977,-0.4619 0.6924,-0.87871 0.93918,-0.92624 0.3725,-0.0717 0.4487,0.13338 0.4487,1.20788 0,1.4118 -0.6165,3.82052 -1.21928,4.76378 -0.43391,0.67902 -1.10675,0.78249 -1.32862,0.20431 z m -9.73541,-0.46889 c -0.7555,-1.15542 -1.44226,-2.99233 -1.61948,-4.33173 -0.19638,-1.48425 0.11972,-1.99117 0.86029,-1.37959 1.24507,1.02821 2.5641,6.30663 1.57597,6.30663 -0.23514,0 -0.60269,-0.26789 -0.81678,-0.59531 z m 6.82163,0.19555 c -0.23456,-0.61126 0.42806,-3.71156 1.06132,-4.96572 0.31014,-0.61425 0.78912,-1.15855 1.06438,-1.20957 0.46167,-0.0856 0.49028,0.0497 0.36901,1.74469 -0.21359,2.98512 -1.90004,5.98026 -2.49471,4.4306 z"
       id="path2945" />
  </g>
  <g
     inkscape:groupmode="layer"
     id="layer3"
     inkscape:label="Layer 3">
    <g
       id="g2218"
       transform="translate(1.0583333,-18.520838)">
      <g
         id="g854"
         transform="matrix(0.52436302,0,0,0.47494246,31.05291,166.58403)">
        <path
           id="path840"
           style="fill:none;fill-rule:evenodd;stroke:#000000;stroke-width:0.957147;stroke-linecap:round;stroke-linejoin:round;stroke-miterlimit:4;stroke-dasharray:none;paint-order:stroke markers fill"
           d="m 45.715731,84.125354 a 1.4187344,6.8956199 13.350088 0 1 -2.960618,6.070556 1.4187344,6.8956199 13.350088 0 1 0.340505,-7.30697 1.4187344,6.8956199 13.350088 0 1 2.960617,-6.070562 1.4187344,6.8956199 13.350088 0 1 -0.340504,7.306976 z M 24.141462,82.163228 a 6.7977139,1.4391682 72.995452 0 1 0.792521,7.239645 6.7977139,1.4391682 72.995452 0 1 -3.326279,-5.696972 6.7977139,1.4391682 72.995452 0 1 -0.792521,-7.23965 6.7977139,1.4391682 72.995452 0 1 3.326279,5.696977 z m 5.871289,0.584789 a 6.967549,1.4040882 79.938948 0 1 -0.07892,7.321323 6.967549,1.4040882 79.938948 0 1 -2.603764,-6.375654 6.967549,1.4040882 79.938948 0 1 0.07892,-7.321311 6.967549,1.4040882 79.938948 0 1 2.60376,6.375642 z m 5.011607,-0.09975 a 1.3842332,7.0674892 0 0 1 -1.384231,7.067486 1.3842332,7.0674892 0 0 1 -1.384234,-7.067486 1.3842332,7.0674892 0 0 1 1.384233,-7.067496 1.3842332,7.0674892 0 0 1 1.384232,7.067496 z m 5.097729,0.919838 a 1.420541,6.8868501 13.706386 0 1 -2.99774,6.035624 1.420541,6.8868501 13.706386 0 1 0.385306,-7.302716 1.420541,6.8868501 13.706386 0 1 2.997743,-6.035621 1.420541,6.8868501 13.706386 0 1 -0.385309,7.302713 z m 15.370599,4.59712 A 21.129978,21.979762 0 0 1 34.362708,110.145 21.129978,21.979762 0 0 1 13.23273,88.165229 21.129978,21.979762 0 0 1 34.362708,66.185467 21.129978,21.979762 0 0 1 55.492686,88.165227 Z" />
        <rect
           style="fill:none;fill-rule:evenodd;stroke:#000000;stroke-width:1.008;stroke-linecap:round;stroke-linejoin:round;stroke-miterlimit:4;stroke-dasharray:none;paint-order:stroke markers fill"
           id="rect842"
           width="238.36481"
           height="123.64378"
           x="-14.446351"
           y="22.944206"
           ry="2.7618003" />
        <rect
           style="fill:none;fill-rule:evenodd;stroke:#000000;stroke-width:0.979519;stroke-linecap:round;stroke-linejoin:round;stroke-miterlimit:4;stroke-dasharray:none;paint-order:stroke markers fill"
           id="rect844"
           width="214.59929"
           height="113.04994"
           x="-3.4133823"
           y="33.552284"
           ry="2.7624962" />
        <path
           style="color:#000000;fill:#000000;-inkscape-stroke:none"
           d="m -14.111328,22.595703 -0.669922,0.697266 11.0332031,10.607422 0.6699219,-0.695313 z"
           id="path846" />
        <path
           style="color:#000000;fill:#000000;-inkscape-stroke:none"
           d="m 221.4668,22.595703 -11.03321,10.609375 0.66993,0.695313 11.0332,-10.607422 z"
           id="path848" />
        <path
           id="path850"
           style="fill:none;fill-rule:evenodd;stroke:#000000;stroke-width:0.957147;stroke-linecap:round;stroke-linejoin:round;stroke-miterlimit:4;stroke-dasharray:none;paint-order:stroke markers fill"
           d="m 106.56997,84.125354 a 1.4187344,6.8956199 13.350088 0 1 -2.96063,6.070556 1.4187344,6.8956199 13.350088 0 1 0.3405,-7.30697 1.4187344,6.8956199 13.350088 0 1 2.96064,-6.070562 1.4187344,6.8956199 13.350088 0 1 -0.34051,7.306976 z M 84.995667,82.163228 a 6.7977139,1.4391682 72.995452 0 1 0.792521,7.239645 6.7977139,1.4391682 72.995452 0 1 -3.326279,-5.696972 6.7977139,1.4391682 72.995452 0 1 -0.792521,-7.23965 6.7977139,1.4391682 72.995452 0 1 3.326279,5.696977 z m 5.871287,0.584789 a 6.967549,1.4040882 79.938948 0 1 -0.0789,7.321323 6.967549,1.4040882 79.938948 0 1 -2.603762,-6.375654 6.967549,1.4040882 79.938948 0 1 0.07892,-7.321311 6.967549,1.4040882 79.938948 0 1 2.603762,6.375642 z m 5.01161,-0.09975 a 1.3842332,7.0674892 0 0 1 -1.384231,7.067486 1.3842332,7.0674892 0 0 1 -1.384231,-7.067486 1.3842332,7.0674892 0 0 1 1.384231,-7.067496 1.3842332,7.0674892 0 0 1 1.384231,7.067496 z m 5.097726,0.919838 a 1.420541,6.8868501 13.706386 0 1 -2.997738,6.035624 1.420541,6.8868501 13.706386 0 1 0.38531,-7.302716 1.420541,6.8868501 13.706386 0 1 2.997748,-6.035621 1.420541,6.8868501 13.706386 0 1 -0.38532,7.302713 z m 15.37069,4.59712 A 21.129978,21.979762 0 0 1 95.21691,110.145 21.129978,21.979762 0 0 1 74.086935,88.165229 21.129978,21.979762 0 0 1 95.21691,66.185467 a 21.129978,21.979762 0 0 1 21.13007,21.97976 z" />
        <path
           id="path852"
           style="fill:none;fill-rule:evenodd;stroke:#000000;stroke-width:0.957147;stroke-linecap:round;stroke-linejoin:round;stroke-miterlimit:4;stroke-dasharray:none;paint-order:stroke markers fill"
           d="m 165.30784,84.125354 a 1.4187344,6.8956199 13.350088 0 1 -2.96063,6.070556 1.4187344,6.8956199 13.350088 0 1 0.3405,-7.30697 1.4187344,6.8956199 13.350088 0 1 2.96064,-6.070562 1.4187344,6.8956199 13.350088 0 1 -0.34051,7.306976 z m -21.57439,-1.962126 a 6.7977139,1.4391682 72.995452 0 1 0.79253,7.239645 6.7977139,1.4391682 72.995452 0 1 -3.3263,-5.696972 6.7977139,1.4391682 72.995452 0 1 -0.79253,-7.23965 6.7977139,1.4391682 72.995452 0 1 3.3263,5.696977 z m 5.87132,0.584789 a 6.967549,1.4040882 79.938948 0 1 -0.0789,7.321323 6.967549,1.4040882 79.938948 0 1 -2.60378,-6.375654 6.967549,1.4040882 79.938948 0 1 0.0789,-7.321311 6.967549,1.4040882 79.938948 0 1 2.60378,6.375642 z m 5.01164,-0.09975 a 1.3842332,7.0674892 0 0 1 -1.38424,7.067486 1.3842332,7.0674892 0 0 1 -1.38424,-7.067486 1.3842332,7.0674892 0 0 1 1.38424,-7.067496 1.3842332,7.0674892 0 0 1 1.38424,7.067496 z m 5.09775,0.919838 a 1.420541,6.8868501 13.706386 0 1 -2.99775,6.035624 1.420541,6.8868501 13.706386 0 1 0.38531,-7.302716 1.420541,6.8868501 13.706386 0 1 2.99776,-6.035621 1.420541,6.8868501 13.706386 0 1 -0.38532,7.302713 z m 15.37069,4.59712 a 21.129978,21.979762 0 0 1 -21.1301,21.979775 21.129978,21.979762 0 0 1 -21.13009,-21.979771 21.129978,21.979762 0 0 1 21.13009,-21.979762 21.129978,21.979762 0 0 1 21.1301,21.97976 z" />
      </g>
      <path
         style="fill:#ffffff;fill-rule:evenodd;stroke:#000000;stroke-width:2.55491;stroke-linecap:round;stroke-linejoin:round;paint-order:stroke markers fill"
         d="m 113.57636,890.29167 -1.84573,-1.45185 V 791.598 c 0,-94.69997 0.035,-97.28505 1.33912,-98.89556 l 1.33912,-1.65374 H 323.2833 532.15773 l 1.33911,1.65374 c 1.30408,1.61046 1.33912,4.19146 1.33912,98.62799 v 96.97425 l -1.71942,1.71942 -1.71942,1.71943 H 323.40961 115.4221 Z m 83.77597,-63.38148 c 10.97159,-2.83083 22.29928,-11.83591 27.02278,-21.48209 7.65752,-15.63795 4.58768,-33.47179 -7.87174,-45.72986 -7.62794,-7.50468 -16.98206,-11.46564 -28.48574,-12.06217 -13.98927,-0.72541 -24.33453,3.07739 -33.61286,12.35572 -8.95819,8.9582 -12.32996,17.67481 -11.67244,30.17532 0.85962,16.3429 10.77861,29.37734 27.0028,35.48411 8.49353,3.19696 18.36236,3.64684 27.6172,1.25897 z m 117.09404,0.75462 c 11.0758,-1.97384 22.66205,-9.55952 28.5024,-18.66091 5.41342,-8.43609 7.50503,-20.1129 5.28712,-29.5164 -3.56785,-15.12696 -15.944,-27.34382 -31.38904,-30.98504 -5.7077,-1.34561 -15.79488,-1.33271 -21.58377,0.0276 -15.32209,3.60048 -28.4653,16.55027 -31.45482,30.99194 -4.63388,22.38513 10.44323,43.79166 33.90659,48.1407 6.43913,1.19352 10.04362,1.19397 16.73152,0.002 z m 116.01427,0.0327 c 23.81987,-4.31466 38.93585,-25.57232 34.25684,-48.1755 -2.98952,-14.44167 -16.13273,-27.39146 -31.45482,-30.99194 -5.17378,-1.21577 -15.62388,-1.39858 -20.31466,-0.35537 -20.53632,4.56718 -34.62882,22.28473 -33.40314,41.99554 0.65925,10.60166 4.71323,19.00792 12.8271,26.59805 10.12748,9.47376 24.05735,13.47081 38.08868,10.92922 z"
         id="path1007"
         transform="scale(0.26458333)" />
      <path
         style="fill:#ffffff;fill-rule:evenodd;stroke:#000000;stroke-width:2.55491;stroke-linecap:round;stroke-linejoin:round;paint-order:stroke markers fill"
         d="M 536.58723,791.06095 V 690.37836 l 2.45177,-2.18931 c 1.34847,-1.20412 6.03721,-5.29493 10.41941,-9.0907 l 7.96765,-6.90139 1.31405,1.62279 c 1.27218,1.57107 1.31405,5.01426 1.31405,108.05386 v 106.43107 l -1.71942,1.71942 c -1.66519,1.66519 -2.03528,1.71943 -11.73347,1.71943 h -10.01404 z"
         id="path1046"
         transform="scale(0.26458333)" />
      <path
         style="fill:#ffffff;fill-rule:evenodd;stroke:#000000;stroke-width:2.55491;stroke-linecap:round;stroke-linejoin:round;paint-order:stroke markers fill"
         d="m 412.2475,824.79196 c -17.7567,-4.66342 -30.14233,-19.90024 -30.11342,-37.04555 0.0302,-17.90572 13.28336,-33.19417 32.28083,-37.23815 13.24294,-2.81902 28.2813,1.89088 38.07552,11.92497 9.37246,9.602 12.80889,24.55865 8.49358,36.96733 -4.27943,12.30548 -15.56182,22.37006 -28.49408,25.41846 -5.59293,1.31837 -15.16823,1.30557 -20.24243,-0.0271 z m 29.39242,-33.35118 c 2.55317,-2.74051 6.28898,-14.90069 6.3212,-20.57569 0.0155,-2.72631 -1.44094,-4.73941 -3.18642,-4.40435 -2.78316,0.53425 -6.62758,10.31022 -7.72439,19.64236 -0.71791,6.10831 1.48492,8.67018 4.58961,5.33768 z m -25.78665,-1.97106 c 1.08371,-5.2575 -2.17107,-20.20014 -4.94719,-22.71249 -2.02313,-1.83092 -3.77347,-1.14826 -4.36283,1.70155 -1.08194,5.23162 1.929,19.40142 4.79569,22.56908 1.84223,2.03564 3.92149,1.31797 4.51433,-1.55814 z m -10.57814,0.63943 c 1.08416,-2.02577 0.2362,-7.50861 -2.1977,-14.21016 -3.2908,-9.06099 -7.37852,-12.8733 -9.06031,-8.44987 -1.39559,3.67069 2.70249,17.44118 6.46616,21.72776 2.41854,2.75456 3.68475,3.0009 4.79185,0.93227 z m 18.71694,-2.04044 c 0.63701,-2.13531 0.85746,-5.86418 0.6833,-11.55834 -0.28425,-9.29396 -1.17888,-12.25885 -3.69901,-12.25885 -2.61249,0 -3.47507,3.39063 -3.47507,13.65986 0,10.74738 0.86396,13.86173 3.75108,13.52159 1.46184,-0.17223 1.97568,-0.8032 2.7397,-3.36426 z m 7.45285,0.87563 c 2.29215,-3.53222 4.61477,-11.3584 5.1242,-17.26625 0.35702,-4.14034 0.23657,-4.96398 -0.84115,-5.75203 -1.97828,-1.44655 -3.77028,0.0214 -5.98271,4.90079 -1.85861,4.09908 -4.18816,13.30894 -4.18816,16.55787 0,4.60844 3.33594,5.49209 5.88782,1.55962 z"
         id="path1085"
         transform="scale(0.26458333)" />
      <path
         style="fill:#ffffff;fill-rule:evenodd;stroke:#000000;stroke-width:2.55491;stroke-linecap:round;stroke-linejoin:round;paint-order:stroke markers fill"
         d="m 536.97578,791.15446 0.0383,-100.80627 9.78296,-8.40607 c 5.38063,-4.62333 10.08987,-8.51049 10.46497,-8.63813 0.37511,-0.12763 0.96688,0.51719 1.31505,1.43295 0.36289,0.95446 0.73841,46.90799 0.87994,107.68205 l 0.24691,106.01704 -1.75126,1.30397 c -1.42059,1.05777 -3.56998,1.39054 -11.38322,1.76236 l -9.63195,0.45837 z"
         id="path1241"
         transform="scale(0.26458333)" />
      <path
         style="fill:#ffffff;fill-rule:evenodd;stroke:#000000;stroke-width:2.55491;stroke-linecap:round;stroke-linejoin:round;paint-order:stroke markers fill"
         d="m 111.61201,689.33692 c -0.1274,-0.35741 -4.42378,-4.29922 -9.54752,-8.75959 -5.499273,-4.78727 -8.943151,-8.25133 -8.406071,-8.45532 0.500404,-0.19006 104.137331,-0.26488 230.304271,-0.16626 l 229.39444,0.1793 -9.43943,8.23782 -9.43943,8.23783 -210.01246,-0.0103 c -138.25303,-0.007 -210.45832,0.2283 -211.31731,0.68802 -0.78322,0.41916 -1.39745,0.43856 -1.53649,0.0485 z"
         id="path1280"
         transform="scale(0.26458333)" />
      <path
         style="fill:#ffffff;fill-rule:evenodd;stroke:#000000;stroke-width:2.55491;stroke-linecap:round;stroke-linejoin:round;paint-order:stroke markers fill"
         d="m 92.466729,890.90646 c -0.770556,-0.43696 -1.632605,-1.13663 -1.915664,-1.55484 -0.84452,-1.24773 -0.656014,-214.92152 0.189359,-214.63973 0.399005,0.133 4.890997,3.85966 9.982206,8.28146 l 9.25674,8.03964 v 100.35527 100.35527 l -8.05582,-0.0213 c -4.674327,-0.0123 -8.643894,-0.35478 -9.456821,-0.81576 z"
         id="path1319"
         transform="scale(0.26458333)" />
      <path
         style="fill:#ffffff;fill-rule:evenodd;stroke:#000000;stroke-width:2.55491;stroke-linecap:round;stroke-linejoin:round;paint-order:stroke markers fill"
         d="m 175.32839,824.80924 c -13.01748,-3.15611 -24.71892,-13.84437 -28.66434,-26.18242 -2.07522,-6.4896 -2.05083,-15.62775 0.0581,-21.7662 4.04842,-11.78372 13.28751,-20.80805 25.44487,-24.85341 10.84068,-3.60724 21.38016,-2.91673 31.92651,2.09171 6.38122,3.03043 14.87788,11.2274 17.78495,17.15766 10.80812,22.04794 -1.62863,47.27895 -26.40949,53.57814 -5.0996,1.29629 -14.73916,1.2841 -20.1406,-0.0255 z m 30.02549,-34.50596 c 2.85426,-4.23544 4.72603,-11.16925 4.76341,-17.64569 0.0339,-5.86785 0.009,-5.9543 -1.68899,-5.9543 -3.44431,0 -7.46179,9.30587 -8.2336,19.07184 -0.58537,7.40683 1.80525,9.50504 5.15918,4.52815 z m -26.64105,0.1322 c 1.1962,-4.76601 -1.48229,-19.20143 -4.30601,-23.20681 -1.40944,-1.99925 -3.54503,-2.02347 -4.60005,-0.0521 -1.68773,3.15355 0.9654,18.76846 3.99614,23.51908 1.44724,2.26854 4.31338,2.11669 4.90992,-0.26012 z m -11.3493,0.71056 c 3.8539,-1.47888 -2.6119,-23.65594 -7.33393,-25.15465 -1.99794,-0.63412 -3.46662,0.82859 -3.46662,3.45252 0,5.49479 5.16149,19.14574 7.98754,21.12518 1.66554,1.16659 1.41196,1.11458 2.81301,0.57695 z m 19.44199,-2.2017 c 1.33988,-3.78483 1.24173,-19.46513 -0.13923,-22.24105 -1.28626,-2.58559 -3.76928,-3.1357 -4.87002,-1.07895 -2.09016,3.9055 -2.10854,20.63424 -0.0269,24.52373 0.43907,0.82042 1.46991,1.42317 2.43394,1.42317 1.3001,0 1.87927,-0.58466 2.60225,-2.6269 z m 7.60608,0.35025 c 3.94869,-6.41331 6.74211,-22.04733 4.21946,-23.6152 -1.28603,-0.79929 -3.19137,0.19045 -4.64888,2.41489 -2.98811,4.56043 -5.94466,17.59643 -4.91831,21.68576 0.67706,2.6976 3.5484,2.43695 5.34773,-0.48545 z"
         id="path1358"
         transform="scale(0.26458333)" />
      <path
         style="fill:#ffffff;fill-rule:evenodd;stroke:#000000;stroke-width:2.55491;stroke-linecap:round;stroke-linejoin:round;paint-order:stroke markers fill"
         d="m 296.11558,824.88077 c -6.97615,-1.68915 -14.11282,-5.79852 -19.4159,-11.17986 -7.60209,-7.71428 -10.83398,-15.46832 -10.84952,-26.03044 -0.0293,-19.928 16.25907,-36.30698 37.66165,-37.87111 18.8459,-1.37728 37.10628,11.3503 41.8477,29.16808 5.242,19.69888 -8.05454,40.44044 -29.40357,45.86728 -4.98657,1.26757 -14.70244,1.29011 -19.84036,0.046 z m 29.18681,-33.57205 c 3.33862,-3.55379 7.22127,-19.16757 5.7371,-23.07125 -0.9234,-2.42873 -3.00992,-2.44577 -4.90227,-0.04 -0.79794,1.01441 -2.25833,4.4007 -3.24533,7.52509 -3.89615,12.33351 -2.57274,20.89062 2.4105,15.5862 z m -26.26148,-0.14503 c 0.78599,-2.04825 0.43436,-10.13361 -0.64648,-14.86529 -2.03281,-8.8992 -6.27505,-13.49686 -8.09023,-8.76805 -1.38886,3.61817 0.70074,16.33893 3.62577,22.07248 0.99945,1.95908 1.80363,2.66891 3.02366,2.66891 0.91415,0 1.85342,-0.49862 2.08728,-1.10805 z m -10.04977,-1.42949 c 1.97975,-5.20714 -5.20284,-24.08167 -9.16414,-24.08167 -2.5615,0 -3.15969,2.8748 -1.85205,8.90057 2.60605,12.00901 8.91611,20.70472 11.01619,15.1811 z m 18.27067,-0.43961 c 1.33293,-3.15901 1.3219,-19.6333 -0.0153,-22.80328 -0.79255,-1.87886 -1.31393,-2.27367 -2.77519,-2.10152 -2.79045,0.32875 -3.74697,4.58039 -3.43606,15.27285 0.27735,9.5387 0.99861,11.9086 3.62426,11.9086 1.18805,0 1.90706,-0.62905 2.60225,-2.27665 z m 7.63119,0 c 2.21691,-3.61492 4.16853,-9.39169 5.01729,-14.85111 1.23695,-7.95635 -0.33915,-11.06512 -3.99998,-7.88975 -3.6284,3.14725 -7.90101,19.946 -5.98408,23.52781 1.17334,2.19242 3.35125,1.84734 4.96677,-0.78695 z"
         id="path1397"
         transform="scale(0.26458333)" />
      <path
         style="fill:#ffffff;fill-rule:evenodd;stroke:#000000;stroke-width:1.56101;stroke-linecap:round;stroke-linejoin:round;paint-order:stroke markers fill"
         d="m 439.35793,788.15608 c -0.0172,-4.6209 3.13159,-15.71722 5.1618,-18.18986 l 0.87854,-1.07 -0.23424,3.63798 c -0.35992,5.58992 -2.95876,14.16803 -5.12182,16.90587 -0.64051,0.81072 -0.67671,0.7428 -0.68428,-1.28399 z"
         id="path1436"
         transform="scale(0.26458333)" />
      <path
         style="fill:#ffffff;fill-rule:evenodd;stroke:#000000;stroke-width:1.56101;stroke-linecap:round;stroke-linejoin:round;paint-order:stroke markers fill"
         d="m 428.22976,787.30009 c -0.0164,-4.54364 3.09364,-15.59552 5.11873,-18.18987 l 0.83521,-1.06999 0.01,2.6201 c 0.0156,4.29182 -2.57184,13.31105 -4.89639,17.06775 l -1.05933,1.71199 z"
         id="path1514"
         transform="scale(0.26458333)" />
      <path
         style="fill:#ffffff;fill-rule:evenodd;stroke:#000000;stroke-width:1.56101;stroke-linecap:round;stroke-linejoin:round;paint-order:stroke markers fill"
         d="m 420.79102,788.37008 c -1.57363,-3.86558 -1.47958,-19.44431 0.12746,-21.11345 1.42805,-1.48324 2.10633,15.84209 0.77631,19.82946 -0.41866,1.25515 -0.73345,1.70237 -0.90377,1.28399 z"
         id="path1553"
         transform="scale(0.26458333)" />
      <path
         style="fill:#ffffff;fill-rule:evenodd;stroke:#000000;stroke-width:1.56101;stroke-linecap:round;stroke-linejoin:round;paint-order:stroke markers fill"
         d="m 412.90763,789.14274 c -2.02478,-2.45658 -4.77895,-15.8711 -4.01971,-19.57848 l 0.30145,-1.47194 1.13258,2.54193 c 2.00855,4.50792 3.52529,12.34493 3.25974,16.84309 -0.11395,1.93025 -0.22652,2.20838 -0.67406,1.6654 z"
         id="path1592"
         transform="scale(0.26458333)" />
      <path
         style="fill:#ffffff;fill-rule:evenodd;stroke:#000000;stroke-width:1.56101;stroke-linecap:round;stroke-linejoin:round;paint-order:stroke markers fill"
         d="m 401.58365,786.48254 c -2.72316,-4.33416 -5.70964,-13.82779 -5.3871,-17.12492 l 0.12847,-1.31334 1.36657,2.13796 c 2.68414,4.19928 6.04386,14.86102 5.62168,17.83988 -0.11919,0.84104 -0.37937,0.60945 -1.72962,-1.53958 z"
         id="path1631"
         transform="scale(0.26458333)" />
      <path
         style="fill:#ffffff;fill-rule:evenodd;stroke:#000000;stroke-width:1.56101;stroke-linecap:round;stroke-linejoin:round;paint-order:stroke markers fill"
         d="m 323.1156,786.87209 c 0.13738,-1.88319 0.52267,-4.58199 0.8562,-5.99734 0.89289,-3.78903 3.12529,-9.68146 4.13281,-10.90853 l 0.87853,-1.07 -0.23424,3.63798 c -0.36517,5.67146 -3.01514,14.34643 -5.1643,16.90587 -0.68121,0.81125 -0.70572,0.67703 -0.469,-2.56798 z"
         id="path1670"
         transform="scale(0.26458333)" />
      <path
         style="fill:#ffffff;fill-rule:evenodd;stroke:#000000;stroke-width:1.56101;stroke-linecap:round;stroke-linejoin:round;paint-order:stroke markers fill"
         d="m 311.80128,787.28832 c 0.0121,-4.5906 3.1207,-15.6013 5.13209,-18.1781 l 0.83521,-1.06999 0.01,2.61168 c 0.0166,4.55563 -2.91431,14.38426 -5.30888,17.80298 -0.6512,0.92971 -0.67338,0.89098 -0.66794,-1.16657 z"
         id="path1709"
         transform="scale(0.26458333)" />
      <path
         style="fill:#ffffff;fill-rule:evenodd;stroke:#000000;stroke-width:1.56101;stroke-linecap:round;stroke-linejoin:round;paint-order:stroke markers fill"
         d="m 304.43677,788.58054 c -1.38442,-2.24844 -1.58548,-17.25151 -0.27241,-20.32631 l 0.63971,-1.49799 0.60682,2.35398 c 0.83018,3.2205 0.76794,15.305 -0.0926,17.97233 -0.34111,1.05735 -0.73781,1.73144 -0.88155,1.49799 z"
         id="path1748"
         transform="scale(0.26458333)" />
      <path
         style="fill:#ffffff;fill-rule:evenodd;stroke:#000000;stroke-width:1.56101;stroke-linecap:round;stroke-linejoin:round;paint-order:stroke markers fill"
         d="m 296.48796,789.13689 c -0.85004,-1.03067 -2.60783,-6.56984 -3.28963,-10.36632 -0.61808,-3.44166 -0.84064,-6.38614 -0.69783,-9.23235 l 0.0752,-1.49799 1.04329,2.00351 c 2.01635,3.87217 3.80818,12.56164 3.55072,17.21922 -0.11681,2.11315 -0.22932,2.42244 -0.68171,1.87393 z"
         id="path1787"
         transform="scale(0.26458333)" />
      <path
         style="fill:#ffffff;fill-rule:evenodd;stroke:#000000;stroke-width:1.56101;stroke-linecap:round;stroke-linejoin:round;paint-order:stroke markers fill"
         d="m 285.09452,786.37554 c -2.54032,-4.06124 -5.41602,-13.11788 -5.3891,-16.9723 l 0.01,-1.36301 0.85332,1.06999 c 1.40744,1.76481 3.759,6.99862 4.87538,10.85102 1.02888,3.55048 1.86788,8.83683 1.40249,8.83683 -0.12996,0 -0.91818,-1.09014 -1.7516,-2.42253 z"
         id="path1826"
         transform="scale(0.26458333)" />
      <path
         style="fill:#ffffff;fill-rule:evenodd;stroke:#000000;stroke-width:1.56101;stroke-linecap:round;stroke-linejoin:round;paint-order:stroke markers fill"
         d="m 202.44632,786.55109 c 0.16759,-1.70664 0.771,-4.91026 1.3409,-7.11917 1.01359,-3.92859 3.64891,-10.3217 4.25472,-10.3217 0.64062,0 -0.24632,7.66024 -1.31323,11.34192 -1.31145,4.52556 -3.39159,9.20193 -4.09318,9.20193 -0.35584,0 -0.40873,-0.86752 -0.18921,-3.10298 z"
         id="path1865"
         transform="scale(0.26458333)" />
      <path
         style="fill:#ffffff;fill-rule:evenodd;stroke:#000000;stroke-width:1.56101;stroke-linecap:round;stroke-linejoin:round;paint-order:stroke markers fill"
         d="m 191.31628,788.37285 c -0.86899,-1.40606 1.52107,-11.95576 3.85115,-16.9989 1.73582,-3.75697 2.5436,-3.82894 2.1282,-0.18962 -0.82895,7.26247 -4.89324,18.94588 -5.97935,17.18852 z"
         id="path1943"
         transform="scale(0.26458333)" />
      <path
         style="fill:#ffffff;fill-rule:evenodd;stroke:#000000;stroke-width:1.56101;stroke-linecap:round;stroke-linejoin:round;paint-order:stroke markers fill"
         d="m 183.36777,787.08609 c -1.27286,-4.88679 -0.47323,-22.0994 0.91169,-19.62469 1.38358,2.47232 1.58273,15.89907 0.29743,20.05268 l -0.59598,1.92599 z"
         id="path1982"
         transform="scale(0.26458333)" />
      <path
         style="fill:#ffffff;fill-rule:evenodd;stroke:#000000;stroke-width:1.56101;stroke-linecap:round;stroke-linejoin:round;paint-order:stroke markers fill"
         d="m 175.33125,787.98688 c -1.69533,-3.17835 -3.11674,-9.57278 -3.33983,-15.02469 -0.18594,-4.54408 -0.14934,-4.85703 0.47681,-4.07629 1.00532,1.25353 3.07844,8.07862 3.64324,11.99423 0.27164,1.88319 0.43299,4.67587 0.35855,6.20596 l -0.13534,2.78198 z"
         id="path2021"
         transform="scale(0.26458333)" />
      <path
         style="fill:#ffffff;fill-rule:evenodd;stroke:#000000;stroke-width:1.56101;stroke-linecap:round;stroke-linejoin:round;paint-order:stroke markers fill"
         d="m 165.3737,787.93012 c -3.07914,-4.73204 -6.37361,-14.38317 -6.35122,-18.6059 l 0.007,-1.28399 0.88895,1.06869 c 2.85789,3.43574 6.71942,14.86986 6.28892,18.6217 l -0.1444,1.25843 z"
         id="path2060"
         transform="scale(0.26458333)" />
    </g>
  </g>
  <g
     inkscape:groupmode="layer"
     id="layer4"
     inkscape:label="Layer 4">
    <path
       style="fill:#1c2224;fill-rule:evenodd;stroke:#000000;stroke-width:2.08773;stroke-linecap:round;stroke-linejoin:round;paint-order:stroke markers fill"
       d=""
       id="path1819"
       transform="scale(0.26458333)" />
    <path
       style="fill:#1c2224;fill-rule:evenodd;stroke:#000000;stroke-width:2.08773;stroke-linecap:round;stroke-linejoin:round;paint-order:stroke markers fill"
       d=""
       id="path1937"
       transform="scale(0.26458333)" />
    <path
       style="fill:#1c2224;fill-rule:evenodd;stroke:#000000;stroke-width:2.08773;stroke-linecap:round;stroke-linejoin:round;paint-order:stroke markers fill"
       d=""
       id="path1976"
       transform="scale(0.26458333)" />
    <path
       style="fill:#1c2224;fill-rule:evenodd;stroke:#000000;stroke-width:2.08773;stroke-linecap:round;stroke-linejoin:round;paint-order:stroke markers fill"
       d=""
       id="path2210"
       transform="scale(0.26458333)" />
    <path
       style="fill:#1c2224;fill-rule:evenodd;stroke:#000000;stroke-width:2.08773;stroke-linecap:round;stroke-linejoin:round;paint-order:stroke markers fill"
       d=""
       id="path2288"
       transform="scale(0.26458333)" />
    <path
       style="fill:#1c2224;fill-rule:evenodd;stroke:#000000;stroke-width:2.08773;stroke-linecap:round;stroke-linejoin:round;paint-order:stroke markers fill"
       d=""
       id="path2327"
       transform="scale(0.26458333)" />
    <path
       style="fill:#1c2224;fill-rule:evenodd;stroke:#000000;stroke-width:2.08773;stroke-linecap:round;stroke-linejoin:round;paint-order:stroke markers fill"
       d=""
       id="path2483"
       transform="scale(0.26458333)" />
    <path
       style="fill:#1c2224;fill-rule:evenodd;stroke:#000000;stroke-width:2.08773;stroke-linecap:round;stroke-linejoin:round;paint-order:stroke markers fill"
       d=""
       id="path2522"
       transform="scale(0.26458333)" />
    <path
       style="fill:#1c2224;fill-rule:evenodd;stroke:#000000;stroke-width:2.08773;stroke-linecap:round;stroke-linejoin:round;paint-order:stroke markers fill"
       d=""
       id="path2639"
       transform="scale(0.26458333)" />
    <path
       style="fill:#1c2224;fill-rule:evenodd;stroke:#000000;stroke-width:2.08773;stroke-linecap:round;stroke-linejoin:round;paint-order:stroke markers fill"
       d=""
       id="path2717"
       transform="scale(0.26458333)" />
    <path
       style="fill:#1c2224;fill-rule:evenodd;stroke:#000000;stroke-width:2.08773;stroke-linecap:round;stroke-linejoin:round;paint-order:stroke markers fill"
       d=""
       id="path2756"
       transform="scale(0.26458333)" />
    <path
       style="fill:#1c2224;fill-rule:evenodd;stroke:#000000;stroke-width:2.08773;stroke-linecap:round;stroke-linejoin:round;paint-order:stroke markers fill"
       d=""
       id="path2795"
       transform="scale(0.26458333)" />
    <path
       style="fill:#1c2224;fill-rule:evenodd;stroke:#000000;stroke-width:2.08773;stroke-linecap:round;stroke-linejoin:round;paint-order:stroke markers fill"
       d=""
       id="path2834"
       transform="scale(0.26458333)" />
    <g
       id="g3061"
       transform="translate(-0.79506559,6.3605248)">
      <g
         id="g887"
         transform="matrix(0.52436302,0,0,0.47494246,28.79031,212.78048)">
        <path
           id="path873"
           style="fill:none;fill-rule:evenodd;stroke:#000000;stroke-width:0.957147;stroke-linecap:round;stroke-linejoin:round;stroke-miterlimit:4;stroke-dasharray:none;paint-order:stroke markers fill"
           d="m 45.715731,84.125354 a 1.4187344,6.8956199 13.350088 0 1 -2.960618,6.070556 1.4187344,6.8956199 13.350088 0 1 0.340505,-7.30697 1.4187344,6.8956199 13.350088 0 1 2.960617,-6.070562 1.4187344,6.8956199 13.350088 0 1 -0.340504,7.306976 z M 24.141462,82.163228 a 6.7977139,1.4391682 72.995452 0 1 0.792521,7.239645 6.7977139,1.4391682 72.995452 0 1 -3.326279,-5.696972 6.7977139,1.4391682 72.995452 0 1 -0.792521,-7.23965 6.7977139,1.4391682 72.995452 0 1 3.326279,5.696977 z m 5.871289,0.584789 a 6.967549,1.4040882 79.938948 0 1 -0.07892,7.321323 6.967549,1.4040882 79.938948 0 1 -2.603764,-6.375654 6.967549,1.4040882 79.938948 0 1 0.07892,-7.321311 6.967549,1.4040882 79.938948 0 1 2.60376,6.375642 z m 5.011607,-0.09975 a 1.3842332,7.0674892 0 0 1 -1.384231,7.067486 1.3842332,7.0674892 0 0 1 -1.384234,-7.067486 1.3842332,7.0674892 0 0 1 1.384233,-7.067496 1.3842332,7.0674892 0 0 1 1.384232,7.067496 z m 5.097729,0.919838 a 1.420541,6.8868501 13.706386 0 1 -2.99774,6.035624 1.420541,6.8868501 13.706386 0 1 0.385306,-7.302716 1.420541,6.8868501 13.706386 0 1 2.997743,-6.035621 1.420541,6.8868501 13.706386 0 1 -0.385309,7.302713 z m 15.370599,4.59712 A 21.129978,21.979762 0 0 1 34.362708,110.145 21.129978,21.979762 0 0 1 13.23273,88.165229 21.129978,21.979762 0 0 1 34.362708,66.185467 21.129978,21.979762 0 0 1 55.492686,88.165227 Z" />
        <rect
           style="fill:none;fill-rule:evenodd;stroke:#000000;stroke-width:1.008;stroke-linecap:round;stroke-linejoin:round;stroke-miterlimit:4;stroke-dasharray:none;paint-order:stroke markers fill"
           id="rect875"
           width="238.36481"
           height="123.64378"
           x="-14.446351"
           y="22.944206"
           ry="2.7618003" />
        <rect
           style="fill:none;fill-rule:evenodd;stroke:#000000;stroke-width:0.979519;stroke-linecap:round;stroke-linejoin:round;stroke-miterlimit:4;stroke-dasharray:none;paint-order:stroke markers fill"
           id="rect877"
           width="214.59929"
           height="113.04994"
           x="-3.4133823"
           y="33.552284"
           ry="2.7624962" />
        <path
           style="color:#000000;fill:#000000;-inkscape-stroke:none"
           d="m -14.111328,22.595703 -0.669922,0.697266 11.0332031,10.607422 0.6699219,-0.695313 z"
           id="path879" />
        <path
           style="color:#000000;fill:#000000;-inkscape-stroke:none"
           d="m 221.4668,22.595703 -11.03321,10.609375 0.66993,0.695313 11.0332,-10.607422 z"
           id="path881" />
        <path
           id="path883"
           style="fill:none;fill-rule:evenodd;stroke:#000000;stroke-width:0.957147;stroke-linecap:round;stroke-linejoin:round;stroke-miterlimit:4;stroke-dasharray:none;paint-order:stroke markers fill"
           d="m 106.56997,84.125354 a 1.4187344,6.8956199 13.350088 0 1 -2.96063,6.070556 1.4187344,6.8956199 13.350088 0 1 0.3405,-7.30697 1.4187344,6.8956199 13.350088 0 1 2.96064,-6.070562 1.4187344,6.8956199 13.350088 0 1 -0.34051,7.306976 z M 84.995667,82.163228 a 6.7977139,1.4391682 72.995452 0 1 0.792521,7.239645 6.7977139,1.4391682 72.995452 0 1 -3.326279,-5.696972 6.7977139,1.4391682 72.995452 0 1 -0.792521,-7.23965 6.7977139,1.4391682 72.995452 0 1 3.326279,5.696977 z m 5.871287,0.584789 a 6.967549,1.4040882 79.938948 0 1 -0.0789,7.321323 6.967549,1.4040882 79.938948 0 1 -2.603762,-6.375654 6.967549,1.4040882 79.938948 0 1 0.07892,-7.321311 6.967549,1.4040882 79.938948 0 1 2.603762,6.375642 z m 5.01161,-0.09975 a 1.3842332,7.0674892 0 0 1 -1.384231,7.067486 1.3842332,7.0674892 0 0 1 -1.384231,-7.067486 1.3842332,7.0674892 0 0 1 1.384231,-7.067496 1.3842332,7.0674892 0 0 1 1.384231,7.067496 z m 5.097726,0.919838 a 1.420541,6.8868501 13.706386 0 1 -2.997738,6.035624 1.420541,6.8868501 13.706386 0 1 0.38531,-7.302716 1.420541,6.8868501 13.706386 0 1 2.997748,-6.035621 1.420541,6.8868501 13.706386 0 1 -0.38532,7.302713 z m 15.37069,4.59712 A 21.129978,21.979762 0 0 1 95.21691,110.145 21.129978,21.979762 0 0 1 74.086935,88.165229 21.129978,21.979762 0 0 1 95.21691,66.185467 a 21.129978,21.979762 0 0 1 21.13007,21.97976 z" />
        <path
           id="path885"
           style="fill:none;fill-rule:evenodd;stroke:#000000;stroke-width:0.957147;stroke-linecap:round;stroke-linejoin:round;stroke-miterlimit:4;stroke-dasharray:none;paint-order:stroke markers fill"
           d="m 165.30784,84.125354 a 1.4187344,6.8956199 13.350088 0 1 -2.96063,6.070556 1.4187344,6.8956199 13.350088 0 1 0.3405,-7.30697 1.4187344,6.8956199 13.350088 0 1 2.96064,-6.070562 1.4187344,6.8956199 13.350088 0 1 -0.34051,7.306976 z m -21.57439,-1.962126 a 6.7977139,1.4391682 72.995452 0 1 0.79253,7.239645 6.7977139,1.4391682 72.995452 0 1 -3.3263,-5.696972 6.7977139,1.4391682 72.995452 0 1 -0.79253,-7.23965 6.7977139,1.4391682 72.995452 0 1 3.3263,5.696977 z m 5.87132,0.584789 a 6.967549,1.4040882 79.938948 0 1 -0.0789,7.321323 6.967549,1.4040882 79.938948 0 1 -2.60378,-6.375654 6.967549,1.4040882 79.938948 0 1 0.0789,-7.321311 6.967549,1.4040882 79.938948 0 1 2.60378,6.375642 z m 5.01164,-0.09975 a 1.3842332,7.0674892 0 0 1 -1.38424,7.067486 1.3842332,7.0674892 0 0 1 -1.38424,-7.067486 1.3842332,7.0674892 0 0 1 1.38424,-7.067496 1.3842332,7.0674892 0 0 1 1.38424,7.067496 z m 5.09775,0.919838 a 1.420541,6.8868501 13.706386 0 1 -2.99775,6.035624 1.420541,6.8868501 13.706386 0 1 0.38531,-7.302716 1.420541,6.8868501 13.706386 0 1 2.99776,-6.035621 1.420541,6.8868501 13.706386 0 1 -0.38532,7.302713 z m 15.37069,4.59712 a 21.129978,21.979762 0 0 1 -21.1301,21.979775 21.129978,21.979762 0 0 1 -21.13009,-21.979771 21.129978,21.979762 0 0 1 21.13009,-21.979762 21.129978,21.979762 0 0 1 21.1301,21.97976 z" />
      </g>
      <path
         style="fill:#53676c;fill-rule:evenodd;stroke:#000000;stroke-width:0.962282;stroke-linecap:round;stroke-linejoin:round;paint-order:stroke markers fill"
         d="m 27.557827,281.46353 c -0.182851,-0.34166 -0.273121,-8.9145 -0.273121,-25.93761 0,-21.54343 0.0572,-25.50548 0.374478,-25.9394 0.368339,-0.50374 1.275051,-0.51325 55.317479,-0.57995 48.949517,-0.0604 55.010207,-0.0238 55.559117,0.33587 l 0.61612,0.4037 v 25.79724 c 0,19.71276 -0.0747,25.87194 -0.31661,26.11385 -0.24423,0.24423 -12.96702,0.31662 -55.660473,0.31662 -54.446836,0 -55.348298,-0.008 -55.61699,-0.51032 z m 23.023531,-16.64195 c 3.280542,-1.01325 6.16649,-3.84598 7.192579,-7.05993 0.680849,-2.1326 0.436467,-5.52368 -0.546286,-7.58026 -1.00471,-2.10252 -2.997922,-4.05343 -5.281379,-5.16929 -1.793981,-0.87667 -1.921391,-0.89897 -5.137576,-0.89897 -3.216182,0 -3.343593,0.0223 -5.137573,0.89897 -2.266403,1.10753 -4.262758,3.05296 -5.289463,5.15453 -1.047107,2.14333 -1.237848,5.5935 -0.43511,7.87048 1.999223,5.67089 8.493241,8.6814 14.634808,6.78447 z m 31.924365,0 c 3.231975,-0.99825 6.068264,-3.74999 7.145134,-6.93214 0.597537,-1.76572 0.555723,-4.84917 -0.0907,-6.68835 -1.130342,-3.21603 -4.078369,-5.8999 -7.497058,-6.8253 -1.240145,-0.33569 -2.36288,-0.43047 -4.16306,-0.35143 -3.12274,0.1371 -5.345864,1.08751 -7.433599,3.17795 -1.967954,1.9705 -2.873734,3.94489 -3.027378,6.59898 -0.158549,2.73888 0.265999,4.5471 1.524913,6.49491 2.722195,4.21174 8.406741,6.11142 13.541745,4.52538 z M 114.65489,264.236 c 2.42151,-1.19679 4.18881,-2.92907 5.31584,-5.21049 0.78049,-1.57993 0.84445,-1.91005 0.84445,-4.35888 0,-2.44721 -0.0644,-2.77995 -0.84296,-4.35885 -1.43109,-2.90205 -3.56748,-4.75042 -6.72161,-5.81541 -1.37843,-0.46543 -2.13008,-0.54648 -4.30813,-0.46459 -2.29163,0.0862 -2.8715,0.20874 -4.41225,0.9326 -3.33369,1.56622 -5.60419,4.43771 -6.290011,7.95495 -0.875903,4.49209 1.776401,9.3871 6.164341,11.37669 2.13422,0.96768 2.46618,1.02483 5.6173,0.96686 2.48894,-0.0458 2.7908,-0.11242 4.63303,-1.02288 z"
         id="path1203" />
      <path
         style="fill:#374845;fill-rule:evenodd;stroke:#000000;stroke-width:0.962282;stroke-linecap:round;stroke-linejoin:round;paint-order:stroke markers fill"
         d="m 25.024865,226.47062 c -1.296524,-1.14184 -2.396895,-2.1807 -2.445266,-2.30857 -0.05057,-0.13369 25.774631,-0.2325 60.766372,-0.2325 h 60.854319 l -2.32632,2.00764 c -1.27947,1.1042 -2.44504,2.14307 -2.59015,2.30858 -0.19602,0.22358 -14.61285,0.30094 -56.082737,0.30094 H 27.382186 Z"
         id="path1279" />
      <path
         style="fill:#374845;fill-rule:evenodd;stroke:#000000;stroke-width:0.962282;stroke-linecap:round;stroke-linejoin:round;paint-order:stroke markers fill"
         d="m 139.86157,255.3922 0.0501,-26.58166 2.58829,-2.30683 c 1.42357,-1.26875 2.70703,-2.26804 2.85214,-2.22064 0.39545,0.12918 0.49518,56.85729 0.1008,57.33251 -0.21465,0.25863 -1.04037,0.35827 -2.96936,0.35825 h -2.67204 z"
         id="path1318" />
      <path
         style="fill:#374845;fill-rule:evenodd;stroke:#000000;stroke-width:0.962282;stroke-linecap:round;stroke-linejoin:round;paint-order:stroke markers fill"
         d="m 21.753395,281.46353 c -0.301408,-0.5632 -0.40348,-56.26033 -0.10365,-56.56015 0.09321,-0.0932 0.877731,0.45095 1.74339,1.20925 0.865655,0.7583 2.023856,1.74173 2.573779,2.18541 0.773181,0.62381 0.945031,0.90465 0.758023,1.23881 -0.143343,0.25615 -0.212913,11.02172 -0.170828,26.4346 l 0.071,26.00246 -2.299295,-3e-5 c -2.003203,-3e-5 -2.334469,-0.0657 -2.572419,-0.51035 z"
         id="path1357" />
      <path
         style="fill:#939dac;fill-rule:evenodd;stroke:#000000;stroke-width:0.962282;stroke-linecap:round;stroke-linejoin:round;paint-order:stroke markers fill"
         d="m 105.55611,263.92951 c -3.02421,-1.27191 -4.58562,-2.75452 -5.9107,-5.61245 -0.586007,-1.26389 -0.715229,-1.92029 -0.721331,-3.66411 -0.0068,-1.93296 0.08224,-2.30581 0.987854,-4.13821 3.934907,-7.96173 15.622887,-7.79987 19.404627,0.26871 0.60317,1.28691 0.70711,1.85851 0.70711,3.88874 0,2.15659 -0.0813,2.54518 -0.86554,4.13824 -1.01232,2.05632 -2.79593,3.78957 -5.0201,4.87841 -1.30369,0.63823 -1.86731,0.74531 -4.27212,0.81169 -2.44948,0.0676 -2.94858,0.003 -4.3098,-0.57102 z m 2.05369,-10.45639 c -0.0102,-1.69881 -0.14938,-2.53762 -0.5788,-3.48959 -0.70539,-1.56379 -1.5353,-1.73894 -1.79063,-0.37793 -0.26615,1.41873 0.6062,5.31297 1.3574,6.05954 0.11455,0.11385 0.39216,0.17042 0.6169,0.12568 0.33172,-0.066 0.40608,-0.50221 0.39513,-2.3177 z m 2.38803,-1.44486 c 0,-2.32852 -0.0901,-3.1054 -0.39575,-3.41092 -0.85072,-0.85046 -1.57044,0.71275 -1.57044,3.41092 0,2.69817 0.71972,4.26138 1.57044,3.41093 0.30562,-0.30552 0.39575,-1.08241 0.39575,-3.41093 z m 5.37899,2.11071 c 0.34696,-0.87066 0.69036,-2.39487 0.76313,-3.38714 0.13065,-1.7818 0.12449,-1.80302 -0.49845,-1.71495 -0.81963,0.11587 -1.75885,1.97385 -2.14891,4.25096 -0.34149,1.99366 -0.17318,2.63689 0.65904,2.51862 0.45176,-0.0642 0.74569,-0.46424 1.22519,-1.66749 z m -10.31114,0.48514 c 0.17845,-1.83316 -1.50142,-5.7619 -2.4637,-5.7619 -1.14267,0 -0.29493,4.6986 1.13234,6.27591 0.62604,0.69186 1.23694,0.45601 1.33136,-0.51401 z m 7.13598,-0.19772 c 0.7576,-1.61174 1.14741,-3.29647 1.04706,-4.52535 -0.0669,-0.81933 -0.20144,-1.05549 -0.63666,-1.11766 -0.44567,-0.0637 -0.68516,0.21826 -1.24486,1.46545 -0.70365,1.56795 -1.17219,4.17939 -0.8844,4.92932 0.31478,0.82032 1.15203,0.45413 1.71886,-0.75176 z"
         id="path1433" />
      <path
         style="fill:#939dac;fill-rule:evenodd;stroke:#000000;stroke-width:0.962282;stroke-linecap:round;stroke-linejoin:round;paint-order:stroke markers fill"
         d="m 76.668872,264.5421 c -3.006331,-0.59164 -6.301507,-3.04615 -7.569914,-5.63867 -2.986709,-6.1046 1.005189,-13.05134 8.138009,-14.16181 3.453677,-0.53769 6.990572,0.74965 9.496681,3.45655 2.017607,2.17925 2.637428,3.88698 2.499109,6.88555 -0.130826,2.83618 -0.933008,4.61502 -2.934986,6.50841 -1.673463,1.58268 -3.015694,2.30748 -5.247822,2.83374 -1.824429,0.43013 -2.67171,0.45259 -4.381077,0.11623 z m 0.350869,-9.48711 c 0.219081,-0.99745 -0.289875,-4.04035 -0.881351,-5.26934 -0.287438,-0.59726 -0.629935,-0.92344 -0.969616,-0.92344 -0.484237,0 -0.524144,0.1749 -0.511704,2.24263 0.01027,1.70521 0.148961,2.54293 0.5788,3.49583 0.684229,1.51688 1.504606,1.72583 1.783871,0.45432 z m 2.164345,-0.47977 c 0.457123,-2.18631 0.125478,-5.93233 -0.548087,-6.1908 -0.654254,-0.25106 -0.981731,0.26207 -1.267381,1.98591 -0.312946,1.88857 0.03611,4.88796 0.610129,5.24274 0.548505,0.33899 0.998469,-0.0484 1.205339,-1.03785 z m 4.769429,0.9489 c 0.732205,-0.88731 1.546678,-4.38671 1.412367,-6.06827 -0.05365,-0.67174 -1.006848,-0.57346 -1.482759,0.15288 -0.762588,1.16384 -1.607066,4.82695 -1.320755,5.72904 0.184298,0.58066 0.978021,0.687 1.391147,0.18635 z m -9.75488,-1.07177 c 0.04551,-0.55079 -0.174461,-1.77433 -0.488813,-2.71894 -0.683448,-2.05375 -1.54029,-3.17326 -2.227048,-2.90972 -1.238925,0.47542 0.875242,6.963 2.188067,6.71437 0.305509,-0.0579 0.471001,-0.3983 0.527794,-1.08571 z m 7.36225,-0.36492 c 0.469779,-1.02613 0.727623,-2.12111 0.813097,-3.45297 0.124095,-1.93366 0.119777,-1.94959 -0.504648,-1.8613 -0.830056,0.11736 -1.672495,1.79076 -2.096802,4.16503 -0.366519,2.05092 -0.241911,2.65189 0.549871,2.65189 0.413207,0 0.722169,-0.37486 1.238482,-1.50265 z"
         id="path1472" />
      <path
         style="fill:#939dac;fill-rule:evenodd;stroke:#000000;stroke-width:0.962282;stroke-linecap:round;stroke-linejoin:round;paint-order:stroke markers fill"
         d="m 44.170319,264.34573 c -2.27148,-0.59373 -3.863862,-1.56261 -5.486845,-3.33841 -3.078176,-3.36801 -3.339944,-8.38499 -0.625149,-11.98146 1.26942,-1.68169 2.30134,-2.52157 4.176085,-3.39894 2.148147,-1.00533 6.091007,-1.16926 8.292227,-0.34477 3.001147,1.12412 5.531805,3.6166 6.436021,6.33894 0.613963,1.84846 0.555355,4.58812 -0.137782,6.44068 -0.686326,1.83438 -2.838204,4.25127 -4.675354,5.25118 -1.381657,0.752 -4.165182,1.51101 -5.472745,1.49233 -0.435332,-0.006 -1.563237,-0.21302 -2.506458,-0.45955 z m 0.953079,-9.1756 c 0.225359,-0.89791 -0.328065,-4.21306 -0.898866,-5.38448 -0.291174,-0.59756 -0.636186,-0.92344 -0.977644,-0.92344 -0.445582,0 -0.541372,0.20524 -0.615704,1.31918 -0.09722,1.45695 0.341509,3.82347 0.917123,4.94697 0.48265,0.94205 1.343403,0.96488 1.575091,0.0418 z m 2.146006,-0.33472 c 0.248825,-0.90109 0.248825,-4.71321 0,-5.6143 -0.274963,-0.99576 -0.89875,-1.13672 -1.431583,-0.32352 -0.632392,0.96516 -0.632392,5.29621 0,6.26135 0.532833,0.8132 1.15662,0.67223 1.431583,-0.32353 z m 5.15343,-0.0732 c 0.610846,-1.24926 1.266822,-4.40455 1.074775,-5.16972 -0.194686,-0.77571 -1.023411,-0.77829 -1.508102,-0.005 -0.807225,1.28833 -1.638286,4.84642 -1.34662,5.76537 0.268718,0.84667 1.233654,0.52631 1.779947,-0.59094 z M 42.258842,253.9411 c -0.142928,-1.72212 -1.121238,-4.29363 -1.868149,-4.91052 -0.239281,-0.19762 -0.630719,-0.28423 -0.869863,-0.19246 -0.834946,0.3204 -0.003,4.05658 1.371275,6.15833 0.213489,0.32649 0.639135,0.59364 0.94588,0.59364 0.522838,0 0.549156,-0.10313 0.420857,-1.64899 z m 7.202503,0.56565 c 0.678989,-1.33093 1.338913,-4.36186 1.130501,-5.19226 -0.248423,-0.98978 -1.178142,-0.64753 -1.848406,0.68046 -0.639577,1.26719 -1.305755,4.5272 -1.057388,5.17443 0.309372,0.80621 1.194487,0.47585 1.775293,-0.66263 z"
         id="path1511" />
      <path
         style="fill:#1c2224;fill-rule:evenodd;stroke:#000000;stroke-width:0.552379;stroke-linecap:round;stroke-linejoin:round;paint-order:stroke markers fill"
         d="m 41.186668,254.09103 c -0.579324,-1.06944 -1.152358,-2.80387 -1.260147,-3.81413 -0.08647,-0.81041 -0.08135,-0.8256 0.165362,-0.4918 0.729541,0.98705 1.655217,3.72009 1.56582,4.62306 -0.04597,0.46437 -0.04869,0.46255 -0.471035,-0.31713 z"
         id="path1663" />
      <path
         style="fill:#1c2224;fill-rule:evenodd;stroke:#000000;stroke-width:0.552379;stroke-linecap:round;stroke-linejoin:round;paint-order:stroke markers fill"
         d="m 44.007875,254.34881 c -0.447032,-1.14837 -0.807606,-2.96634 -0.799484,-4.03095 l 0.0067,-0.87722 0.298376,0.56512 c 0.477502,0.90437 0.919152,3.02546 0.868791,4.17248 l -0.04467,1.01753 z"
         id="path1780" />
      <path
         style="fill:#1c2224;fill-rule:evenodd;stroke:#000000;stroke-width:0.552379;stroke-linecap:round;stroke-linejoin:round;paint-order:stroke markers fill"
         d="m 46.232531,254.21134 c -0.224345,-0.8218 -0.147156,-4.32269 0.10509,-4.76626 0.152884,-0.26885 0.182306,-0.23879 0.29645,0.3029 0.176972,0.83981 0.135811,4.30791 -0.05657,4.76625 -0.153736,0.36629 -0.164989,0.35642 -0.344972,-0.30289 z"
         id="path1859" />
      <path
         style="fill:#1c2224;fill-rule:evenodd;stroke:#000000;stroke-width:0.552379;stroke-linecap:round;stroke-linejoin:round;paint-order:stroke markers fill"
         d="m 51.334894,255.01805 c -0.248071,-0.40137 0.50405,-3.56407 1.146281,-4.82015 0.406625,-0.79529 0.495741,-0.48011 0.26634,0.94194 -0.287041,1.77935 -1.185437,4.24582 -1.412621,3.87821 z"
         id="path1898" />
      <path
         style="fill:#1c2224;fill-rule:evenodd;stroke:#000000;stroke-width:0.552379;stroke-linecap:round;stroke-linejoin:round;paint-order:stroke markers fill"
         d="m 48.401189,253.9463 c 0.132037,-1.23229 0.497075,-2.54029 1.003839,-3.59695 l 0.435809,-0.90871 0.01236,0.74758 c 0.0068,0.41116 -0.09848,1.19493 -0.233929,1.74169 -0.261514,1.05561 -1.025686,2.88724 -1.204582,2.88724 -0.05874,0 -0.06481,-0.39187 -0.01349,-0.87085 z"
         id="path2015" />
      <path
         style="fill:#1c2224;fill-rule:evenodd;stroke:#000000;stroke-width:0.552379;stroke-linecap:round;stroke-linejoin:round;paint-order:stroke markers fill"
         d="m 73.148593,254.20771 c -0.540112,-0.92416 -1.323427,-3.31819 -1.319307,-4.03217 l 0.0034,-0.58346 0.292155,0.37865 c 0.640279,0.82978 1.680999,4.13181 1.486321,4.71585 -0.03754,0.11261 -0.238363,-0.0953 -0.462536,-0.47887 z"
         id="path2093" />
      <path
         style="fill:#1c2224;fill-rule:evenodd;stroke:#000000;stroke-width:0.552379;stroke-linecap:round;stroke-linejoin:round;paint-order:stroke markers fill"
         d="m 76.011819,254.57006 c -0.417515,-0.87556 -0.852189,-2.92232 -0.848103,-3.99354 0.0033,-0.86836 0.02833,-0.952 0.212201,-0.70948 0.3401,0.44863 0.850061,2.58252 0.94765,3.96536 0.04998,0.70821 0.05929,1.28765 0.02069,1.28765 -0.03859,0 -0.188195,-0.24749 -0.332449,-0.54999 z"
         id="path2171" />
      <path
         style="fill:#1c2224;fill-rule:evenodd;stroke:#000000;stroke-width:0.552379;stroke-linecap:round;stroke-linejoin:round;paint-order:stroke markers fill"
         d="m 78.08996,253.9463 c -0.239618,-1.49301 -0.0722,-4.58139 0.248348,-4.58139 0.319937,0 0.493549,3.14251 0.253103,4.58139 -0.06612,0.39566 -0.180012,0.71941 -0.253103,0.71941 -0.07309,0 -0.184846,-0.32375 -0.248348,-0.71941 z"
         id="path2249" />
      <path
         style="fill:#1c2224;fill-rule:evenodd;stroke:#000000;stroke-width:0.552379;stroke-linecap:round;stroke-linejoin:round;paint-order:stroke markers fill"
         d="m 83.184737,254.76924 c 0,-1.06559 0.835966,-4.14203 1.287653,-4.73874 0.198411,-0.2621 0.217641,-0.22358 0.222041,0.44505 0.0061,0.92935 -0.50759,2.95574 -0.991257,3.91023 -0.415758,0.82044 -0.518437,0.89641 -0.518437,0.38346 z"
         id="path2366" />
      <path
         style="fill:#1c2224;fill-rule:evenodd;stroke:#000000;stroke-width:0.552379;stroke-linecap:round;stroke-linejoin:round;paint-order:stroke markers fill"
         d="m 80.307171,254.19353 c 0,-0.91062 0.503385,-2.84784 1.015052,-3.90633 l 0.409223,-0.84656 0.05612,0.51109 c 0.103372,0.94141 -0.669441,3.77502 -1.259216,4.61703 -0.207761,0.29663 -0.221178,0.27387 -0.221178,-0.37523 z"
         id="path2405" />
      <path
         style="fill:#1c2224;fill-rule:evenodd;stroke:#000000;stroke-width:0.552379;stroke-linecap:round;stroke-linejoin:round;paint-order:stroke markers fill"
         d="m 103.83854,253.98141 c -0.80023,-1.53077 -1.60279,-4.53831 -1.13368,-4.24841 0.56088,0.34666 1.74873,3.69636 1.65465,4.66609 -0.0468,0.48228 -0.0532,0.47712 -0.52097,-0.41768 z"
         id="path2444" />
      <path
         style="fill:#1c2224;fill-rule:evenodd;stroke:#000000;stroke-width:0.552379;stroke-linecap:round;stroke-linejoin:round;paint-order:stroke markers fill"
         d="m 106.53,253.8311 c -0.39788,-1.21203 -0.66212,-2.86091 -0.59812,-3.73231 l 0.0483,-0.65815 0.27401,0.60581 c 0.41818,0.92454 0.70807,2.15059 0.80951,3.42374 0.1187,1.48971 -0.11197,1.64568 -0.53373,0.36091 z"
         id="path2561" />
      <path
         style="fill:#1c2224;fill-rule:evenodd;stroke:#000000;stroke-width:0.552379;stroke-linecap:round;stroke-linejoin:round;paint-order:stroke markers fill"
         d="m 114.09307,254.42488 c -0.0157,-0.97914 0.47578,-2.92129 1.01217,-3.99981 0.36519,-0.7343 0.41968,-0.78637 0.45996,-0.4396 0.0793,0.68304 -0.53523,3.28898 -1.00672,4.26878 l -0.45306,0.94152 z"
         id="path2678" />
      <path
         style="fill:#1c2224;fill-rule:evenodd;stroke:#000000;stroke-width:0.552379;stroke-linecap:round;stroke-linejoin:round;paint-order:stroke markers fill"
         d="m 111.05276,254.32492 c 0.003,-1.21652 1.19817,-4.92768 1.52281,-4.72704 0.28028,0.17322 -0.33583,3.05459 -0.915,4.27926 -0.2445,0.517 -0.48152,0.94001 -0.52671,0.94001 -0.0452,0 -0.0817,-0.22151 -0.0811,-0.49223 z"
         id="path2873" />
      <path
         style="fill:#1c2224;fill-rule:evenodd;stroke:#000000;stroke-width:0.552379;stroke-linecap:round;stroke-linejoin:round;paint-order:stroke markers fill"
         d="m 108.98661,254.43851 c -0.16993,-0.5896 -0.16993,-4.2568 0,-4.84643 0.24299,-0.84313 0.37785,0.0217 0.37785,2.42322 0,2.40149 -0.13486,3.26636 -0.37785,2.42321 z"
         id="path2912" />
    </g>
  </g>
</svg>
