<?xml version="1.0" encoding="UTF-8" standalone="no"?>
<!-- Created with Inkscape (http://www.inkscape.org/) -->

<svg
   width="210mm"
   height="297mm"
   viewBox="0 0 210 297"
   version="1.1"
   id="svg5"
   inkscape:version="1.1 (c68e22c387, 2021-05-23)"
   sodipodi:docname="pause botton icon svg.svg"
   xmlns:inkscape="http://www.inkscape.org/namespaces/inkscape"
   xmlns:sodipodi="http://sodipodi.sourceforge.net/DTD/sodipodi-0.dtd"
   xmlns="http://www.w3.org/2000/svg"
   xmlns:svg="http://www.w3.org/2000/svg">
  <sodipodi:namedview
     id="namedview7"
     pagecolor="#ffffff"
     bordercolor="#666666"
     borderopacity="1.0"
     inkscape:pageshadow="2"
     inkscape:pageopacity="0.0"
     inkscape:pagecheckerboard="0"
     inkscape:document-units="mm"
     showgrid="false"
     inkscape:zoom="0.62270623"
     inkscape:cx="526.73313"
     inkscape:cy="411.91173"
     inkscape:window-width="1680"
     inkscape:window-height="956"
     inkscape:window-x="-11"
     inkscape:window-y="-11"
     inkscape:window-maximized="1"
     inkscape:current-layer="layer1" />
  <defs
     id="defs2">
    <inkscape:path-effect
       effect="skeletal"
       id="path-effect3161"
       is_visible="true"
       lpeversion="1"
       pattern="m 182.71133,36.816874 0.27078,28.580167 24.64656,-14.536578 z m -38.1894,6.580476 v 17.728634 h 31.32522 V 43.39735 Z"
       copytype="repeated"
       prop_scale="1"
       scale_y_rel="false"
       spacing="5.8"
       normal_offset="0"
       tang_offset="1.5"
       prop_units="false"
       vertical_pattern="false"
       hide_knot="false"
       fuse_tolerance="0" />
    <inkscape:path-effect
       effect="skeletal"
       id="path-effect2910"
       is_visible="true"
       lpeversion="1"
       pattern="m 182.71133,36.816874 0.27078,28.580167 24.64656,-14.536578 z m -38.1894,6.580476 v 17.728634 h 31.32522 V 43.39735 Z"
       copytype="repeated"
       prop_scale="1"
       scale_y_rel="false"
       spacing="4.6"
       normal_offset="0.3"
       tang_offset="0"
       prop_units="false"
       vertical_pattern="false"
       hide_knot="false"
       fuse_tolerance="0" />
  </defs>
  <g
     inkscape:label="Layer 1"
     inkscape:groupmode="layer"
     id="layer1">
    <path
       id="path1296"
       style="fill:none;stroke:#000000;stroke-width:3.12827;stroke-linecap:round;stroke-linejoin:round;stroke-dasharray:0.312827, 0.312827;stroke-opacity:0.955017;paint-order:stroke markers fill"
       d="M 38.679141,71.967738 A 18.580529,27.861638 0 0 1 23.524173,46.253019 18.580529,27.861638 0 0 1 36.506298,17.99146 Z M 88.93335,45.888414 A 41.770273,40.495562 0 0 1 47.163072,86.383976 41.770273,40.495562 0 0 1 5.392798,45.888414 41.770273,40.495562 0 0 1 47.163072,5.3928516 41.770273,40.495562 0 0 1 88.93335,45.888414 Z" />
    <g
       id="g1644">
      <path
         id="path1401"
         style="fill:none;stroke:#000000;stroke-width:3.12827;stroke-linecap:round;stroke-linejoin:round;stroke-dasharray:0.312827, 0.312827;stroke-opacity:0.955017;paint-order:stroke markers fill"
         d="M 42.928068,170.54285 A 18.580529,27.861638 0 0 1 27.7731,144.82813 18.580529,27.861638 0 0 1 40.755225,116.56657 Z M 93.182277,144.46352 A 41.770273,40.495562 0 0 1 51.411999,184.95908 41.770273,40.495562 0 0 1 9.641725,144.46352 41.770273,40.495562 0 0 1 51.411999,103.96796 41.770273,40.495562 0 0 1 93.182277,144.46352 Z" />
      <path
         style="fill:#000000;stroke:#000000;stroke-width:15.4166;stroke-linecap:round;stroke-linejoin:round;stroke-dasharray:1.54166, 1.54166;stroke-opacity:0.955017;paint-order:stroke markers fill"
         d="M 169.24938,690.4987 C 99.185547,677.87335 47.632185,621.75445 43.886132,554.03332 40.095972,485.51484 84.147043,425.72263 153.36285,405.43637 c 20.57453,-6.03012 48.73262,-7.12496 69.85637,-2.71613 32.41717,6.76592 60.10297,21.77677 81.20626,44.02887 18.48765,19.49409 29.04722,37.91603 36.3767,63.46178 5.21201,18.16567 5.1773,53.50057 -0.0707,71.92557 -11.97647,42.04824 -42.65522,78.10885 -81.3957,95.67462 -20.70073,9.38616 -36.6015,12.97716 -60.20504,13.59662 -11.92376,0.31292 -25.3704,-0.0962 -29.88143,-0.909 z m -3.11485,-40.66094 c 2.85565,-2.0881 2.81576,-5.41402 -1.2833,-107.01 -2.81663,-69.81071 -4.83821,-105.5871 -6.04873,-107.04569 -3.88742,-4.68405 -12.2428,-0.96097 -25.26656,11.25852 -33.04839,31.00753 -44.601016,91.43346 -27.35724,143.09182 9.19659,27.55086 23.70102,46.28114 43.51582,56.19408 12.93553,6.47138 12.51474,6.3815 16.44001,3.51127 z"
         id="path1523"
         transform="scale(0.26458333)" />
    </g>
    <g
       id="g2012"
       transform="translate(45.463519,-88.377682)">
      <g
         id="g1406"
         transform="translate(-44.613734,91.351931)">
        <path
           id="path1403"
           style="fill:none;stroke:#000000;stroke-width:3.12827;stroke-linecap:round;stroke-linejoin:round;stroke-dasharray:0.312827, 0.312827;stroke-opacity:0.955017;paint-order:stroke markers fill"
           d="m 152.55038,171.81752 a 18.580529,27.861638 0 0 1 -15.15496,-25.71472 18.580529,27.861638 0 0 1 12.98212,-28.26155 z m 50.25421,-26.07932 a 41.770273,40.495562 0 0 1 -41.77027,40.49556 41.770273,40.495562 0 0 1 -41.77028,-40.49556 41.770273,40.495562 0 0 1 41.77028,-40.49556 41.770273,40.495562 0 0 1 41.77027,40.49556 z" />
      </g>
      <path
         style="fill:#ff0000;stroke:#000000;stroke-width:15.4166;stroke-linecap:round;stroke-linejoin:round;stroke-dasharray:1.54166, 1.54166;stroke-opacity:0.955017;paint-order:stroke markers fill"
         d="m 414.50262,1040.519 c -22.76595,-4.0596 -50.06812,-16.0269 -67.51688,-29.5946 -35.02281,-27.23281 -55.05852,-64.51535 -57.39788,-106.80626 -2.20471,-39.85673 10.97841,-75.89841 38.53479,-105.35132 46.43257,-49.62822 118.21664,-62.70165 180.1427,-32.80788 16.44631,7.93919 31.05745,19.06082 45.18747,34.39556 38.42404,41.70009 48.19266,102.72615 24.7276,154.47724 -13.81412,30.46638 -41.90456,58.64496 -72.71788,72.94606 -19.9269,9.2484 -36.92061,13.0925 -60.62999,13.7147 -11.92376,0.3129 -25.57223,-0.1251 -30.32993,-0.9735 z m -2.66635,-40.59642 c 2.85564,-2.0881 2.81575,-5.41401 -1.28331,-107.00999 -2.81663,-69.81072 -4.83821,-105.58711 -6.04873,-107.04569 -3.88741,-4.68405 -12.2428,-0.96098 -25.26655,11.25851 -33.04839,31.00753 -44.60102,91.43346 -27.35725,143.09183 9.19659,27.55085 23.70103,46.28113 43.51582,56.19407 12.93553,6.47139 12.51474,6.38149 16.44002,3.51127 z"
         id="path1813"
         transform="scale(0.26458333)" />
      <path
         style="fill:#800000;stroke:#000000;stroke-width:15.4166;stroke-linecap:round;stroke-linejoin:round;stroke-dasharray:1.54166, 1.54166;stroke-opacity:0.955017;paint-order:stroke markers fill"
         d="m 393.76913,979.64608 c -35.81253,-25.94245 -47.29134,-97.86349 -23.51047,-147.30596 3.24177,-6.73992 9.31377,-15.60433 14.34468,-20.94156 l 8.7235,-9.25467 0.17814,4.81768 c 0.098,2.64973 1.79441,43.47958 3.76984,90.733 1.97544,47.25342 3.48233,86.10102 3.34864,86.32801 -0.13369,0.22698 -3.21814,-1.74244 -6.85433,-4.3765 z"
         id="path1889"
         transform="scale(0.26458333)" />
    </g>
    <g
       id="g2346">
      <path
         id="path1399"
         style="fill:none;stroke:#000000;stroke-width:3.12827;stroke-linecap:round;stroke-linejoin:round;stroke-dasharray:0.312827, 0.312827;stroke-opacity:0.955017;paint-order:stroke markers fill"
         d="M 151.27571,72.817523 A 18.580529,27.861638 0 0 1 136.12074,47.102804 18.580529,27.861638 0 0 1 149.10286,18.841245 Z M 201.52992,46.738199 A 41.770273,40.495562 0 0 1 159.75964,87.233761 41.770273,40.495562 0 0 1 117.98936,46.738199 41.770273,40.495562 0 0 1 159.75964,6.242637 41.770273,40.495562 0 0 1 201.52992,46.738199 Z" />
      <path
         style="fill:#ffffff;stroke:#000000;stroke-width:15.4166;stroke-linecap:round;stroke-linejoin:round;stroke-dasharray:1.54166, 1.54166;stroke-opacity:0.955017;paint-order:stroke markers fill"
         d="m 578.30377,321.07861 c -22.76594,-4.05954 -50.06811,-16.02687 -67.51687,-29.59457 -35.02282,-27.23282 -55.05852,-64.51536 -57.39788,-106.80627 -2.20471,-39.85673 10.9784,-75.89841 38.53478,-105.351321 59.88743,-64.009085 162.28767,-64.900632 222.00456,-1.932881 18.48766,19.494083 29.04723,37.916022 36.37671,63.461772 5.21201,18.16567 5.1773,53.50058 -0.0707,71.92557 -11.97647,42.04824 -42.65522,78.10886 -81.3957,95.67462 -20.70073,9.38616 -36.6015,12.97716 -60.20504,13.59662 -11.92376,0.31292 -25.57223,-0.1251 -30.32993,-0.97354 z m -2.66635,-40.5964 c 2.85565,-2.08809 2.81576,-5.41401 -1.2833,-107.00999 -2.81663,-69.81071 -4.83821,-105.587108 -6.04873,-107.045693 -3.88742,-4.68405 -12.2428,-0.960977 -25.26656,11.258519 -33.04839,31.007524 -44.60102,91.433454 -27.35724,143.091824 9.19658,27.55085 23.70102,46.28113 43.51582,56.19407 12.93553,6.47138 12.51473,6.3815 16.44001,3.51127 z"
         id="path2185"
         transform="scale(0.26458333)" />
      <path
         style="fill:#ffffff;stroke:#000000;stroke-width:15.4166;stroke-linecap:round;stroke-linejoin:round;stroke-dasharray:1.54166, 1.54166;stroke-opacity:0.955017;paint-order:stroke markers fill"
         d="m 557.57028,260.20572 c -35.81252,-25.94246 -47.29133,-97.8635 -23.51046,-147.30596 3.24177,-6.73993 9.31376,-15.604336 14.34467,-20.941571 l 8.72351,-9.254664 0.17813,4.817681 c 0.098,2.649724 1.79441,43.479574 3.76985,90.732994 1.97544,47.25342 3.48233,86.10102 3.34864,86.32801 -0.13369,0.22698 -3.21814,-1.74244 -6.85434,-4.37649 z"
         id="path2224"
         transform="scale(0.26458333)" />
    </g>
  </g>
</svg>
