<?xml version="1.0" encoding="UTF-8" standalone="no"?>
<!-- Created with Inkscape (http://www.inkscape.org/) -->

<svg
   width="210mm"
   height="297mm"
   viewBox="0 0 210 297"
   version="1.1"
   id="svg5"
   inkscape:version="1.1 (c68e22c387, 2021-05-23)"
   sodipodi:docname="loop botton icon svg.svg"
   xmlns:inkscape="http://www.inkscape.org/namespaces/inkscape"
   xmlns:sodipodi="http://sodipodi.sourceforge.net/DTD/sodipodi-0.dtd"
   xmlns="http://www.w3.org/2000/svg"
   xmlns:svg="http://www.w3.org/2000/svg">
  <sodipodi:namedview
     id="namedview7"
     pagecolor="#ffffff"
     bordercolor="#666666"
     borderopacity="1.0"
     inkscape:pageshadow="2"
     inkscape:pageopacity="0.0"
     inkscape:pagecheckerboard="0"
     inkscape:document-units="mm"
     showgrid="false"
     inkscape:zoom="0.5894754"
     inkscape:cx="223.92792"
     inkscape:cy="323.1687"
     inkscape:window-width="1680"
     inkscape:window-height="956"
     inkscape:window-x="-11"
     inkscape:window-y="-11"
     inkscape:window-maximized="1"
     inkscape:current-layer="layer1"
     showguides="false" />
  <defs
     id="defs2">
    <inkscape:path-effect
       effect="spiro"
       id="path-effect2616"
       is_visible="true"
       lpeversion="1" />
    <inkscape:path-effect
       effect="spiro"
       id="path-effect2610"
       is_visible="true"
       lpeversion="1" />
    <inkscape:path-effect
       effect="spiro"
       id="path-effect2604"
       is_visible="true"
       lpeversion="1" />
    <inkscape:path-effect
       effect="spiro"
       id="path-effect2480"
       is_visible="true"
       lpeversion="1" />
    <inkscape:path-effect
       effect="spiro"
       id="path-effect2476"
       is_visible="true"
       lpeversion="1" />
    <inkscape:path-effect
       effect="spiro"
       id="path-effect2359"
       is_visible="true"
       lpeversion="1" />
    <inkscape:path-effect
       effect="spiro"
       id="path-effect2353"
       is_visible="true"
       lpeversion="1" />
    <inkscape:path-effect
       effect="spiro"
       id="path-effect2281"
       is_visible="true"
       lpeversion="1" />
    <inkscape:path-effect
       effect="spiro"
       id="path-effect2277"
       is_visible="true"
       lpeversion="1" />
    <inkscape:path-effect
       effect="spiro"
       id="path-effect2273"
       is_visible="true"
       lpeversion="1" />
    <inkscape:path-effect
       effect="spiro"
       id="path-effect2269"
       is_visible="true"
       lpeversion="1" />
    <inkscape:path-effect
       effect="spiro"
       id="path-effect2235"
       is_visible="true"
       lpeversion="1" />
    <inkscape:path-effect
       effect="spiro"
       id="path-effect2231"
       is_visible="true"
       lpeversion="1" />
    <inkscape:path-effect
       effect="spiro"
       id="path-effect2227"
       is_visible="true"
       lpeversion="1" />
    <inkscape:path-effect
       effect="spiro"
       id="path-effect2223"
       is_visible="true"
       lpeversion="1" />
    <inkscape:path-effect
       effect="spiro"
       id="path-effect1978"
       is_visible="true"
       lpeversion="1" />
    <inkscape:path-effect
       effect="spiro"
       id="path-effect1974"
       is_visible="true"
       lpeversion="1" />
    <inkscape:path-effect
       effect="spiro"
       id="path-effect1970"
       is_visible="true"
       lpeversion="1" />
    <inkscape:path-effect
       effect="spiro"
       id="path-effect1966"
       is_visible="true"
       lpeversion="1" />
    <inkscape:path-effect
       effect="spiro"
       id="path-effect1872"
       is_visible="true"
       lpeversion="1" />
    <inkscape:path-effect
       effect="spiro"
       id="path-effect1864"
       is_visible="true"
       lpeversion="1" />
    <inkscape:path-effect
       effect="spiro"
       id="path-effect1776"
       is_visible="true"
       lpeversion="1" />
    <inkscape:path-effect
       effect="spiro"
       id="path-effect1770"
       is_visible="true"
       lpeversion="1" />
    <inkscape:path-effect
       effect="skeletal"
       id="path-effect1495"
       is_visible="true"
       lpeversion="1"
       pattern="M 0,4.9921382 C 0,2.2364779 2.2364779,0 4.9921382,0 c 2.7556604,0 4.9921383,2.2364779 4.9921383,4.9921382 0,2.7556604 -2.2364779,4.9921383 -4.9921383,4.9921383 C 2.2364779,9.9842765 0,7.7477986 0,4.9921382 Z"
       copytype="single_stretched"
       prop_scale="1"
       scale_y_rel="false"
       spacing="0"
       normal_offset="0"
       tang_offset="0"
       prop_units="false"
       vertical_pattern="false"
       hide_knot="false"
       fuse_tolerance="0" />
    <inkscape:path-effect
       effect="spiro"
       id="path-effect1349"
       is_visible="true"
       lpeversion="1" />
    <inkscape:path-effect
       effect="skeletal"
       id="path-effect1345"
       is_visible="true"
       lpeversion="1"
       pattern="M 0,4.9921382 C 0,2.2364779 2.2364779,0 4.9921382,0 c 2.7556604,0 4.9921383,2.2364779 4.9921383,4.9921382 0,2.7556604 -2.2364779,4.9921383 -4.9921383,4.9921383 C 2.2364779,9.9842765 0,7.7477986 0,4.9921382 Z"
       copytype="single_stretched"
       prop_scale="9"
       scale_y_rel="false"
       spacing="0"
       normal_offset="0"
       tang_offset="0"
       prop_units="false"
       vertical_pattern="false"
       hide_knot="false"
       fuse_tolerance="0" />
  </defs>
  <g
     inkscape:label="Layer 1"
     inkscape:groupmode="layer"
     id="layer1">
    <path
       style="fill:#000000;stroke:#000000;stroke-width:9.96588;stroke-linecap:round;stroke-linejoin:round;stroke-miterlimit:4;stroke-dasharray:none;stroke-opacity:0.955017;paint-order:stroke markers fill"
       d=""
       id="path2731"
       transform="scale(0.26458333)" />
    <path
       style="fill:#ffffff;stroke:#000000;stroke-width:9.96588;stroke-linecap:round;stroke-linejoin:round;stroke-miterlimit:4;stroke-dasharray:none;stroke-opacity:0.955017;paint-order:stroke markers fill"
       d=""
       id="path3494"
       transform="scale(0.26458333)" />
    <path
       style="fill:#ffffff;stroke:#000000;stroke-width:9.96588;stroke-linecap:round;stroke-linejoin:round;stroke-miterlimit:4;stroke-dasharray:none;stroke-opacity:0.955017;paint-order:stroke markers fill"
       d=""
       id="path3533"
       transform="scale(0.26458333)" />
    <path
       style="fill:#ffffff;stroke:#000000;stroke-width:9.96588;stroke-linecap:round;stroke-linejoin:round;stroke-miterlimit:4;stroke-dasharray:none;stroke-opacity:0.955017;paint-order:stroke markers fill"
       d=""
       id="path3611"
       transform="scale(0.26458333)" />
    <path
       style="fill:#ffffff;stroke:#000000;stroke-width:9.96588;stroke-linecap:round;stroke-linejoin:round;stroke-miterlimit:4;stroke-dasharray:none;stroke-opacity:0.955017;paint-order:stroke markers fill"
       d=""
       id="path3689"
       transform="scale(0.26458333)" />
    <path
       style="fill:#0055d4;stroke:#000000;stroke-width:9.96588;stroke-linecap:round;stroke-linejoin:round;stroke-miterlimit:4;stroke-dasharray:none;stroke-opacity:0.955017;paint-order:stroke markers fill"
       d=""
       id="path4203"
       transform="scale(0.26458333)" />
    <path
       style="fill:#0055d4;stroke:#000000;stroke-width:9.96588;stroke-linecap:round;stroke-linejoin:round;stroke-miterlimit:4;stroke-dasharray:none;stroke-opacity:0.955017;paint-order:stroke markers fill"
       d=""
       id="path4320"
       transform="scale(0.26458333)" />
    <path
       id="path1488"
       style="fill:none;stroke:#000000;stroke-width:2.458;stroke-linecap:round;stroke-linejoin:round;stroke-miterlimit:4;stroke-dasharray:none;stroke-opacity:0.955017;paint-order:stroke markers fill"
       inkscape:transform-center-x="3.7510375"
       inkscape:transform-center-y="0.19614156"
       d="m 39.735692,70.667266 c 1.288822,-1.454113 1.102123,-27.082404 1.112387,-30.072096 0.01025,-2.989685 0.631397,-27.992429 -0.634096,-29.501528 -1.2655,-1.509095 -11.948576,11.416515 -13.228179,12.893587 -1.279599,1.477077 -12.575705,13.113164 -12.611519,16.107999 -0.03577,2.994835 11.158726,15.466118 12.412268,17.013154 1.253544,1.547036 11.660307,15.013013 12.949139,13.558884 z M 66.541013,65.64828 C 67.82984,64.194159 67.643141,38.56587 67.653394,35.576184 67.663641,32.586498 68.284802,7.583749 67.019303,6.074654 65.753804,4.56556 55.070728,17.491171 53.79113,18.968243 52.511526,20.445315 41.215428,32.081402 41.179609,35.076237 c -0.03581,2.994834 11.158717,15.466117 12.41226,17.013155 1.253549,1.547041 11.660317,15.013009 12.949144,13.558888 z" />
    <path
       id="path1517"
       style="fill:#000000;stroke:#000000;stroke-width:1.27868;stroke-linecap:round;stroke-linejoin:round;stroke-miterlimit:4;stroke-dasharray:none;stroke-opacity:0.955017;paint-order:stroke markers fill"
       inkscape:transform-center-x="4.7200184"
       inkscape:transform-center-y="0.19002673"
       d="m 108.52307,229.30214 c 1.62176,-1.4088 1.38683,-26.23843 1.39975,-29.13496 0.0128,-2.89651 0.79449,-27.1201 -0.7979,-28.58216 -1.5924,-1.46208 -15.035177,11.06074 -16.645327,12.49178 -1.61016,1.43104 -15.82431,12.70451 -15.86937,15.60602 -0.0451,2.90151 14.04129,14.98415 15.61865,16.48298 1.57736,1.49883 14.672437,14.54515 16.294197,13.13634 z m 33.72977,-4.86258 c 1.62177,-1.40881 1.38684,-26.23843 1.39974,-29.13495 0.0129,-2.89652 0.79452,-27.12012 -0.79789,-28.58218 -1.59241,-1.46206 -15.03518,11.06076 -16.64532,12.49179 -1.61016,1.43104 -15.82431,12.70451 -15.86937,15.60601 -0.0452,2.90151 14.04127,14.98416 15.61863,16.48298 1.57737,1.49883 14.67246,14.54516 16.29421,13.13635 z" />
    <g
       id="g1791"
       transform="matrix(-1,0,0,1,98.177029,0)">
      <path
         id="path1513"
         style="fill:none;stroke:#000000;stroke-width:0.946051;stroke-linecap:round;stroke-linejoin:round;stroke-miterlimit:4;stroke-dasharray:none;stroke-opacity:0.955017;paint-order:stroke markers fill"
         inkscape:transform-center-x="-3.8992046"
         inkscape:transform-center-y="0.12591976"
         d="m 50.56204,154.812 c -1.339731,-0.93351 -1.145659,-17.38624 -1.15633,-19.30555 -0.01065,-1.9193 -0.656334,-17.97045 0.659147,-18.93925 1.315483,-0.96881 12.420543,7.32912 13.750689,8.27736 1.330146,0.94825 13.072446,8.41833 13.109676,10.34094 0.0372,1.92261 -11.599497,9.92887 -12.902555,10.92203 -1.303058,0.99316 -12.120888,9.63798 -13.460627,8.70447 z m -27.864129,-3.22207 c -1.339738,-0.93351 -1.14566,-17.38624 -1.156324,-19.30554 -0.01065,-1.91931 -0.656347,-17.97046 0.659141,-18.93926 1.315483,-0.9688 12.420543,7.32913 13.750683,8.27737 1.330151,0.94824 13.072445,8.41832 13.109673,10.34093 0.03725,1.92261 -11.599481,9.92887 -12.902539,10.92203 -1.303065,0.99316 -12.120902,9.63798 -13.460634,8.70447 z" />
      <path
         style="fill:#ffffff;stroke:#000000;stroke-width:19.7389;stroke-linecap:round;stroke-linejoin:round;stroke-miterlimit:4;stroke-dasharray:none;stroke-opacity:0.955017;paint-order:stroke markers fill"
         d="m 190.56412,561.61409 c -2.23831,-28.75329 -1.83856,-110.10102 0.55965,-113.88564 1.67482,-2.64304 3.09574,-2.68515 7.73864,-0.22931 9.58969,5.07242 71.94878,48.28567 80.44971,55.74958 l 8.00324,7.02694 -6.69322,7.06241 c -11.03663,11.6454 -82.23323,63.97419 -87.08187,64.00431 -0.79183,0.005 -2.1311,-8.87281 -2.97615,-19.72829 z"
         id="path1630"
         transform="scale(0.26458333)" />
      <path
         style="fill:#ffffff;stroke:#000000;stroke-width:19.7389;stroke-linecap:round;stroke-linejoin:round;stroke-miterlimit:4;stroke-dasharray:none;stroke-opacity:0.955017;paint-order:stroke markers fill"
         d="m 85.29886,549.65213 c -0.845048,-10.85548 -1.542904,-41.03341 -1.55079,-67.06207 -0.01193,-39.36461 0.575143,-47.55104 3.490233,-48.66966 3.145167,-1.20692 56.220687,33.15205 80.827257,52.32433 10.82546,8.43469 11.51801,15.30375 2.39239,23.729 -12.87476,11.88666 -78.478558,59.41563 -82.010836,59.41563 -0.886492,0 -2.303207,-8.88175 -3.148254,-19.73723 z"
         id="path1669"
         transform="scale(0.26458333)" />
    </g>
    <g
       id="g2028"
       transform="matrix(-1,0,0,1,314.1026,0)">
      <path
         id="path1515"
         style="fill:none;stroke:#000000;stroke-width:1.02164;stroke-linecap:round;stroke-linejoin:round;stroke-miterlimit:4;stroke-dasharray:none;stroke-opacity:0.955017;paint-order:stroke markers fill"
         inkscape:transform-center-x="-4.2937667"
         inkscape:transform-center-y="0.13335069"
         d="m 158.62927,148.44022 c -1.4753,-0.98861 -1.26159,-18.41248 -1.27334,-20.44507 -0.0117,-2.0326 -0.72275,-19.03118 0.72585,-20.05717 1.4486,-1.02598 13.67739,7.76174 15.14213,8.76595 1.46474,1.00422 14.39525,8.91523 14.43625,10.95132 0.0409,2.03609 -12.77326,10.51493 -14.20817,11.56671 -1.43492,1.05178 -13.34741,10.20688 -14.82272,9.21826 z m -30.68371,-3.41225 c -1.47531,-0.98861 -1.26159,-18.41248 -1.27333,-20.44507 -0.0117,-2.0326 -0.72277,-19.03118 0.72584,-20.05717 1.44859,-1.02598 13.67738,7.76174 15.14212,8.76595 1.46475,1.00421 14.39525,8.91522 14.43624,10.95132 0.041,2.03609 -12.77323,10.51493 -14.20815,11.56671 -1.43492,1.05178 -13.34742,10.20687 -14.82272,9.21826 z" />
      <path
         style="fill:#00ffff;stroke:#000000;stroke-width:19.7389;stroke-linecap:round;stroke-linejoin:round;stroke-miterlimit:4;stroke-dasharray:none;stroke-opacity:0.955017;paint-order:stroke markers fill"
         d="m 484.66117,541.53986 c -2.28494,-5.95445 -4.79085,-122.76883 -2.85501,-133.08774 0.96558,-5.14695 3.06123,-8.92261 4.95244,-8.92261 4.52366,0 97.14587,62.39645 100.36518,67.61262 2.13096,3.45275 1.30407,5.28374 -4.57626,10.13333 -10.82053,8.92382 -77.70901,56.99781 -87.653,62.99782 -7.86836,4.74762 -8.85089,4.86923 -10.23335,1.26658 z"
         id="path1867"
         transform="scale(0.26458333)" />
      <path
         style="fill:#00ffff;stroke:#000000;stroke-width:19.7389;stroke-linecap:round;stroke-linejoin:round;stroke-miterlimit:4;stroke-dasharray:none;stroke-opacity:0.955017;paint-order:stroke markers fill"
         d="m 599.63362,548.45593 c -1.83374,-11.09412 -2.03643,-136.96446 -0.22055,-136.96446 4.71234,0 76.35742,46.16063 97.51617,62.82925 l 9.11645,7.18185 -6.72406,7.06963 c -10.32592,10.8566 -91.75491,68.81626 -96.72385,68.84626 -0.81469,0.005 -2.14857,-4.02822 -2.96416,-8.96253 z"
         id="path1906"
         transform="scale(0.26458333)" />
    </g>
    <g
       id="g6017"
       transform="matrix(-1,0,0,1,336.83837,0)">
      <path
         id="path1511"
         style="fill:none;stroke:#000000;stroke-width:1.24276;stroke-linecap:round;stroke-linejoin:round;stroke-miterlimit:4;stroke-dasharray:none;stroke-opacity:0.955017;paint-order:stroke markers fill"
         inkscape:transform-center-x="-4.4115266"
         inkscape:transform-center-y="0.19205304"
         d="m 170.12803,67.765943 c -1.51577,-1.423809 -1.2962,-26.518066 -1.30827,-29.445459 -0.0121,-2.927388 -0.74257,-27.409135 0.74576,-28.8867875 1.48833,-1.4776485 14.05253,11.1786225 15.55745,12.6249165 1.50492,1.446298 14.79009,12.839916 14.83221,15.772346 0.042,2.93243 -13.12361,15.143842 -14.59788,16.658641 -1.47427,1.5148 -13.7135,14.700178 -15.22927,13.276343 z m -31.5253,-4.914398 c -1.51578,-1.423821 -1.2962,-26.518075 -1.30827,-29.445464 -0.0121,-2.927387 -0.74259,-27.4091399 0.74576,-28.8867884 1.48832,-1.4776484 14.05251,11.1786244 15.55742,12.6249174 1.50493,1.446293 14.7901,12.839912 14.83222,15.772342 0.0421,2.932429 -13.12359,15.143841 -14.59786,16.658642 -1.47429,1.514805 -13.71352,14.700172 -15.22927,13.276351 z" />
      <path
         style="fill:#6f917c;fill-opacity:1;stroke:#000000;stroke-width:13.9967;stroke-linecap:round;stroke-linejoin:round;stroke-miterlimit:4;stroke-dasharray:none;stroke-opacity:0.955017;paint-order:stroke markers fill"
         d="m 525.02242,231.10666 c -0.66443,-1.61573 -1.88358,-39.19874 -2.70922,-83.5178 -1.45979,-78.358905 -0.73346,-124.767305 1.97894,-126.44366 2.11798,-1.308989 19.45184,13.386274 54.92482,46.564071 36.45738,34.098499 51.02753,49.161109 52.72392,54.505959 0.76205,2.401 -0.3635,5.83992 -3.48355,10.6434 -5.20845,8.01865 -92.95195,96.41043 -98.57948,99.30782 -2.98382,1.53624 -3.86715,1.34343 -4.85543,-1.05979 z"
         id="path5776"
         transform="scale(0.26458333)" />
      <path
         style="fill:#6f917c;fill-opacity:1;stroke:#000000;stroke-width:13.9967;stroke-linecap:round;stroke-linejoin:round;stroke-miterlimit:4;stroke-dasharray:none;stroke-opacity:0.955017;paint-order:stroke markers fill"
         d="m 643.81833,248.06009 c -1.80694,-6.94911 -3.08102,-200.779911 -1.34982,-205.352583 l 1.49324,-3.944142 9.00842,6.768793 c 10.8785,8.173951 67.97693,61.541632 85.7741,80.169722 8.50852,8.90578 12.77139,14.70306 12.77139,17.36845 0,2.47283 -4.13275,8.79681 -10.82121,16.55872 -13.54469,15.71852 -87.14365,88.61315 -92.04676,91.16588 -3.20653,1.66945 -3.76661,1.35227 -4.82936,-2.73484 z"
         id="path5815"
         transform="scale(0.26458333)" />
    </g>
  </g>
</svg>
