<?xml version="1.0" encoding="UTF-8" standalone="no"?>
<!-- Created with Inkscape (http://www.inkscape.org/) -->

<svg
   width="210mm"
   height="297mm"
   viewBox="0 0 210 297"
   version="1.1"
   id="svg5"
   inkscape:version="1.1.2 (0a00cf5339, 2022-02-04, custom)"
   sodipodi:docname="USB mic Iicon.svg"
   inkscape:export-filename="C:\Users\steven\Desktop\beast icons\USB mic Iicon.png"
   inkscape:export-xdpi="96"
   inkscape:export-ydpi="96"
   xmlns:inkscape="http://www.inkscape.org/namespaces/inkscape"
   xmlns:sodipodi="http://sodipodi.sourceforge.net/DTD/sodipodi-0.dtd"
   xmlns="http://www.w3.org/2000/svg"
   xmlns:svg="http://www.w3.org/2000/svg">
  <sodipodi:namedview
     id="namedview7"
     pagecolor="#ffffff"
     bordercolor="#666666"
     borderopacity="1.0"
     inkscape:pageshadow="2"
     inkscape:pageopacity="0.0"
     inkscape:pagecheckerboard="0"
     inkscape:document-units="mm"
     showgrid="false"
     inkscape:zoom="0.54115914"
     inkscape:cx="410.23053"
     inkscape:cy="512.78817"
     inkscape:window-width="1680"
     inkscape:window-height="956"
     inkscape:window-x="-11"
     inkscape:window-y="-11"
     inkscape:window-maximized="1"
     inkscape:current-layer="layer2" />
  <defs
     id="defs2">
    <inkscape:path-effect
       effect="bend_path"
       id="path-effect1270"
       is_visible="true"
       lpeversion="1"
       bendpath="M 19.791059,203.37528 H 31.01584"
       prop_scale="1"
       scale_y_rel="false"
       vertical="false"
       hide_knot="false" />
    <inkscape:path-effect
       effect="spiro"
       id="path-effect1642"
       is_visible="true"
       lpeversion="1" />
    <inkscape:path-effect
       effect="spiro"
       id="path-effect1525"
       is_visible="true"
       lpeversion="1" />
    <inkscape:path-effect
       effect="skeletal"
       id="path-effect1521"
       is_visible="true"
       lpeversion="1"
       pattern="m 105.24064,180.3497 a 9.3049065,7.6477915 0 0 1 -9.304903,7.6478 9.3049065,7.6477915 0 0 1 -9.304906,-7.6478 9.3049065,7.6477915 0 0 1 9.304906,-7.64779 9.3049065,7.6477915 0 0 1 9.304903,7.64779 z m 3.42813,-0.62008 a 12.855461,11.368339 0 0 1 -12.855465,11.36834 12.855461,11.368339 0 0 1 -12.855461,-11.36834 12.855461,11.368339 0 0 1 12.855461,-11.36834 12.855461,11.368339 0 0 1 12.855465,11.36834 z"
       copytype="repeated_stretched"
       prop_scale="1"
       scale_y_rel="false"
       spacing="0"
       normal_offset="0"
       tang_offset="0"
       prop_units="false"
       vertical_pattern="false"
       hide_knot="false"
       fuse_tolerance="0" />
  </defs>
  <g
     inkscape:label="Layer 1"
     inkscape:groupmode="layer"
     id="layer1">
    <path
       id="path853"
       style="fill:none;fill-rule:evenodd;stroke:#000000;stroke-width:0.441254;stroke-linecap:round;stroke-linejoin:round;paint-order:stroke markers fill"
       d="m 56.841049,117.10895 a 10.839045,19.911687 0 0 0 -10.838943,19.9115 10.839045,19.911687 0 0 0 0.02909,1.42821 c -1.70025,-1.20574 -3.921588,-0.70672 -5.110675,1.21007 L 9.3419661,190.56317 c -1.253036,2.01988 -0.870802,4.82524 0.8570399,6.29007 l 5.581054,4.73124 c 1.727844,1.46482 4.127592,1.01798 5.380629,-1.00191 l 29.38097,-47.36212 a 10.839045,19.911687 0 0 0 6.299392,3.71192 10.839045,19.911687 0 0 0 4.029087,-1.43898 l 27.971251,45.08918 c 1.253037,2.01989 3.652785,2.46673 5.380628,1.00191 l 5.581043,-4.73124 c 1.72785,-1.46483 2.11009,-4.27019 0.85705,-6.29007 L 69.081553,139.65873 c -0.384321,-0.61952 -0.876664,-1.09077 -1.424262,-1.40456 a 10.839045,19.911687 0 0 0 0.0227,-1.23372 10.839045,19.911687 0 0 0 -10.838944,-19.9115 z m 2.257314,-31.986254 c 0.605728,0 1.093372,0.49249 1.093372,1.10424 v 4.8771 c 0,0.61176 -0.487644,1.10426 -1.093372,1.10426 -0.605735,0 -1.093379,-0.4925 -1.093379,-1.10426 v -4.8771 c 0,-0.61175 0.487644,-1.10424 1.093379,-1.10424 z m 5.46688,5.65022 a 5.2846498,5.7973074 0 0 1 -5.284647,5.79731 5.2846498,5.7973074 0 0 1 -5.284647,-5.79731 5.2846498,5.7973074 0 0 1 5.284647,-5.79731 5.2846498,5.7973074 0 0 1 5.284647,5.79731 z m -6.6921,-27.10119 a 1.3031872,1.4706069 0 0 1 -1.30318,1.4706 1.3031872,1.4706069 0 0 1 -1.303194,-1.4706 1.3031872,1.4706069 0 0 1 1.303194,-1.47061 1.3031872,1.4706069 0 0 1 1.30318,1.47061 z m 4.06595,10.76695 a 4.3787089,4.6744297 0 0 1 -4.378706,4.67443 4.3787089,4.6744297 0 0 1 -4.378711,-4.67443 4.3787089,4.6744297 0 0 1 4.378711,-4.67444 4.3787089,4.6744297 0 0 1 4.378706,4.67444 z M 42.614982,58.629646 h 29.890804 c 1.654494,0 2.98645,1.34203 2.98645,3.00904 V 114.4449 c 0,1.667 -1.331956,3.00904 -2.98645,3.00904 H 42.614982 c -1.654499,0 -2.986458,-1.34204 -2.986458,-3.00904 V 61.638686 c 0,-1.66701 1.331959,-3.00904 2.986458,-3.00904 z M 41.539108,4.0673174 h 33.81489 c 1.198619,0 2.163576,0.957009 2.163576,2.14576 V 56.528706 c 0,1.18875 -0.964957,2.14577 -2.163576,2.14577 h -33.81489 c -1.198619,0 -2.163574,-0.95702 -2.163574,-2.14577 V 6.2130774 c 0,-1.188751 0.964955,-2.14576 2.163574,-2.14576 z m 3.172212,4.494416 h 28.527874 c 1.198613,0 2.16357,0.957009 2.16357,2.1457606 v 43.424192 c 0,1.18875 -0.964957,2.14576 -2.16357,2.14576 H 44.71132 c -1.198619,0 -2.163576,-0.95701 -2.163576,-2.14576 V 10.707494 c 0,-1.1887516 0.964957,-2.1457606 2.163576,-2.1457606 z M 74.023991,29.453615 a 3.2280604,2.3022698 0 0 1 -3.228062,2.302267 3.2280604,2.3022698 0 0 1 -3.228062,-2.302267 3.2280604,2.3022698 0 0 1 3.228062,-2.302256 3.2280604,2.3022698 0 0 1 3.228062,2.302256 z m 0.467888,-0.101588 a 3.6959483,2.7809908 0 0 1 -3.69595,2.780985 3.6959483,2.7809908 0 0 1 -3.69595,-2.780985 3.6959483,2.7809908 0 0 1 3.69595,-2.780976 3.6959483,2.7809908 0 0 1 3.69595,2.780976 z m -7.823378,-0.126989 a 3.2280604,2.3022698 0 0 1 -3.228062,2.302268 3.2280604,2.3022698 0 0 1 -3.228056,-2.302268 3.2280604,2.3022698 0 0 1 3.228056,-2.302256 3.2280604,2.3022698 0 0 1 3.228062,2.302256 z m 0.467888,-0.101584 a 3.6959483,2.7809908 0 0 1 -3.69595,2.780985 3.6959483,2.7809908 0 0 1 -3.69595,-2.780985 3.6959483,2.7809908 0 0 1 3.69595,-2.780977 3.6959483,2.7809908 0 0 1 3.69595,2.780977 z m 6.450639,-5.246593 a 3.2280604,2.3022698 0 0 1 -3.228062,2.302256 3.2280604,2.3022698 0 0 1 -3.228055,-2.302256 3.2280604,2.3022698 0 0 1 3.228055,-2.302255 3.2280604,2.3022698 0 0 1 3.228062,2.302255 z m 0.467888,-0.101588 a 3.6959483,2.7809908 0 0 1 -3.69595,2.780977 3.6959483,2.7809908 0 0 1 -3.69595,-2.780977 3.6959483,2.7809908 0 0 1 3.69595,-2.780974 3.6959483,2.7809908 0 0 1 3.69595,2.780974 z m -7.823378,-0.126985 a 3.2280604,2.3022698 0 0 1 -3.228056,2.302256 3.2280604,2.3022698 0 0 1 -3.228069,-2.302256 3.2280604,2.3022698 0 0 1 3.228069,-2.302256 3.2280604,2.3022698 0 0 1 3.228056,2.302256 z M 66.699432,23.5467 a 3.6959483,2.7809908 0 0 1 -3.69595,2.780973 3.6959483,2.7809908 0 0 1 -3.695949,-2.780973 3.6959483,2.7809908 0 0 1 3.695949,-2.780976 3.6959483,2.7809908 0 0 1 3.69595,2.780976 z m 6.99839,-5.194383 a 3.2280604,2.3022698 0 0 1 -3.228055,2.302255 3.2280604,2.3022698 0 0 1 -3.228062,-2.302255 3.2280604,2.3022698 0 0 1 3.228062,-2.302257 3.2280604,2.3022698 0 0 1 3.228055,2.302257 z m 0.467895,-0.101588 a 3.6959483,2.7809908 0 0 1 -3.69595,2.780974 3.6959483,2.7809908 0 0 1 -3.69595,-2.780974 3.6959483,2.7809908 0 0 1 3.69595,-2.780975 3.6959483,2.7809908 0 0 1 3.69595,2.780975 z m -7.823372,-0.126987 a 3.2280604,2.3022698 0 0 1 -3.228062,2.302259 3.2280604,2.3022698 0 0 1 -3.228055,-2.302259 3.2280604,2.3022698 0 0 1 3.228055,-2.302256 3.2280604,2.3022698 0 0 1 3.228062,2.302256 z m 0.467888,-0.101586 a 3.6959483,2.7809908 0 0 1 -3.69595,2.780974 3.6959483,2.7809908 0 0 1 -3.69595,-2.780974 3.6959483,2.7809908 0 0 1 3.69595,-2.780974 3.6959483,2.7809908 0 0 1 3.69595,2.780974 z m 6.450633,-5.246592 a 3.2280604,2.3022698 0 0 1 -3.228055,2.302256 3.2280604,2.3022698 0 0 1 -3.228069,-2.302256 3.2280604,2.3022698 0 0 1 3.228069,-2.30227 3.2280604,2.3022698 0 0 1 3.228055,2.30227 z m 0.467888,-0.101589 a 3.6959483,2.7809908 0 0 1 -3.695943,2.780976 3.6959483,2.7809908 0 0 1 -3.69595,-2.780976 3.6959483,2.7809908 0 0 1 3.69595,-2.7809896 3.6959483,2.7809908 0 0 1 3.695943,2.7809896 z m -7.823372,-0.126986 a 3.2280604,2.3022698 0 0 1 -3.228062,2.302257 3.2280604,2.3022698 0 0 1 -3.228055,-2.302257 3.2280604,2.3022698 0 0 1 3.228055,-2.30227 3.2280604,2.3022698 0 0 1 3.228062,2.30227 z m 0.467895,-0.101588 a 3.6959483,2.7809908 0 0 1 -3.695957,2.780976 3.6959483,2.7809908 0 0 1 -3.695943,-2.780976 3.6959483,2.7809908 0 0 1 3.695943,-2.7809906 3.6959483,2.7809908 0 0 1 3.695957,2.7809906 z m 7.650714,39.256425 a 3.2280604,2.3022698 0 0 1 -3.228062,2.30227 3.2280604,2.3022698 0 0 1 -3.228062,-2.30227 3.2280604,2.3022698 0 0 1 3.228062,-2.30227 3.2280604,2.3022698 0 0 1 3.228062,2.30227 z m 0.467888,-0.10159 a 3.6959483,2.7809908 0 0 1 -3.69595,2.781 3.6959483,2.7809908 0 0 1 -3.69595,-2.781 3.6959483,2.7809908 0 0 1 3.69595,-2.78099 3.6959483,2.7809908 0 0 1 3.69595,2.78099 z m -7.823378,-0.12699 a 3.2280604,2.3022698 0 0 1 -3.228062,2.30227 3.2280604,2.3022698 0 0 1 -3.228056,-2.30227 3.2280604,2.3022698 0 0 1 3.228056,-2.30226 3.2280604,2.3022698 0 0 1 3.228062,2.30226 z m 0.467888,-0.10158 a 3.6959483,2.7809908 0 0 1 -3.69595,2.78099 3.6959483,2.7809908 0 0 1 -3.69595,-2.78099 3.6959483,2.7809908 0 0 1 3.69595,-2.78099 3.6959483,2.7809908 0 0 1 3.69595,2.78099 z m 6.450639,-5.246627 a 3.2280604,2.3022698 0 0 1 -3.228062,2.302277 3.2280604,2.3022698 0 0 1 -3.228055,-2.302277 3.2280604,2.3022698 0 0 1 3.228055,-2.302261 3.2280604,2.3022698 0 0 1 3.228062,2.302261 z m 0.467888,-0.101586 a 3.6959483,2.7809908 0 0 1 -3.69595,2.780993 3.6959483,2.7809908 0 0 1 -3.69595,-2.780993 3.6959483,2.7809908 0 0 1 3.69595,-2.780989 3.6959483,2.7809908 0 0 1 3.69595,2.780989 z m -7.823378,-0.126985 a 3.2280604,2.3022698 0 0 1 -3.228056,2.302268 3.2280604,2.3022698 0 0 1 -3.228069,-2.302268 3.2280604,2.3022698 0 0 1 3.228069,-2.302269 3.2280604,2.3022698 0 0 1 3.228056,2.302269 z m 0.467894,-0.101586 a 3.6959483,2.7809908 0 0 1 -3.69595,2.780984 3.6959483,2.7809908 0 0 1 -3.695949,-2.780984 3.6959483,2.7809908 0 0 1 3.695949,-2.780989 3.6959483,2.7809908 0 0 1 3.69595,2.780989 z m 6.99839,-5.194409 a 3.2280604,2.3022698 0 0 1 -3.228055,2.302261 3.2280604,2.3022698 0 0 1 -3.228062,-2.302261 3.2280604,2.3022698 0 0 1 3.228062,-2.302277 3.2280604,2.3022698 0 0 1 3.228055,2.302277 z m 0.467895,-0.101594 a 3.6959483,2.7809908 0 0 1 -3.69595,2.780989 3.6959483,2.7809908 0 0 1 -3.69595,-2.780989 3.6959483,2.7809908 0 0 1 3.69595,-2.780988 3.6959483,2.7809908 0 0 1 3.69595,2.780988 z m -7.823372,-0.126984 a 3.2280604,2.3022698 0 0 1 -3.228062,2.302268 3.2280604,2.3022698 0 0 1 -3.228055,-2.302268 3.2280604,2.3022698 0 0 1 3.228055,-2.302269 3.2280604,2.3022698 0 0 1 3.228062,2.302269 z m 0.467888,-0.101586 a 3.6959483,2.7809908 0 0 1 -3.69595,2.780988 3.6959483,2.7809908 0 0 1 -3.69595,-2.780988 3.6959483,2.7809908 0 0 1 3.69595,-2.780989 3.6959483,2.7809908 0 0 1 3.69595,2.780989 z m 6.450633,-5.246627 a 3.2280604,2.3022698 0 0 1 -3.228055,2.302269 3.2280604,2.3022698 0 0 1 -3.228069,-2.302269 3.2280604,2.3022698 0 0 1 3.228069,-2.302268 3.2280604,2.3022698 0 0 1 3.228055,2.302268 z m 0.467888,-0.101586 a 3.6959483,2.7809908 0 0 1 -3.695943,2.780989 3.6959483,2.7809908 0 0 1 -3.69595,-2.780989 3.6959483,2.7809908 0 0 1 3.69595,-2.78099 3.6959483,2.7809908 0 0 1 3.695943,2.78099 z m -7.823372,-0.126984 a 3.2280604,2.3022698 0 0 1 -3.228062,2.302268 3.2280604,2.3022698 0 0 1 -3.228055,-2.302268 3.2280604,2.3022698 0 0 1 3.228055,-2.302271 3.2280604,2.3022698 0 0 1 3.228062,2.302271 z m 0.467895,-0.101594 a 3.6959483,2.7809908 0 0 1 -3.695957,2.780996 3.6959483,2.7809908 0 0 1 -3.695943,-2.780996 3.6959483,2.7809908 0 0 1 3.695943,-2.78099 3.6959483,2.7809908 0 0 1 3.695957,2.78099 z M 59.2206,29.453615 a 3.2280604,2.3022698 0 0 1 -3.228055,2.302267 3.2280604,2.3022698 0 0 1 -3.228069,-2.302267 3.2280604,2.3022698 0 0 1 3.228069,-2.302256 3.2280604,2.3022698 0 0 1 3.228055,2.302256 z m 0.467888,-0.101588 a 3.6959483,2.7809908 0 0 1 -3.695943,2.780985 3.6959483,2.7809908 0 0 1 -3.695957,-2.780985 3.6959483,2.7809908 0 0 1 3.695957,-2.780976 3.6959483,2.7809908 0 0 1 3.695943,2.780976 z m -7.823379,-0.126989 a 3.2280604,2.3022698 0 0 1 -3.228062,2.302268 3.2280604,2.3022698 0 0 1 -3.228055,-2.302268 3.2280604,2.3022698 0 0 1 3.228055,-2.302256 3.2280604,2.3022698 0 0 1 3.228062,2.302256 z m 0.467895,-0.101584 a 3.6959483,2.7809908 0 0 1 -3.695957,2.780985 3.6959483,2.7809908 0 0 1 -3.695943,-2.780985 3.6959483,2.7809908 0 0 1 3.695943,-2.780977 3.6959483,2.7809908 0 0 1 3.695957,2.780977 z m 6.450633,-5.246593 a 3.2280604,2.3022698 0 0 1 -3.228055,2.302256 3.2280604,2.3022698 0 0 1 -3.228063,-2.302256 3.2280604,2.3022698 0 0 1 3.228063,-2.302255 3.2280604,2.3022698 0 0 1 3.228055,2.302255 z m 0.467894,-0.101588 a 3.6959483,2.7809908 0 0 1 -3.695949,2.780977 3.6959483,2.7809908 0 0 1 -3.69595,-2.780977 3.6959483,2.7809908 0 0 1 3.69595,-2.780974 3.6959483,2.7809908 0 0 1 3.695949,2.780974 z m -7.823378,-0.126985 a 3.2280604,2.3022698 0 0 1 -3.228062,2.302256 3.2280604,2.3022698 0 0 1 -3.228055,-2.302256 3.2280604,2.3022698 0 0 1 3.228055,-2.302256 3.2280604,2.3022698 0 0 1 3.228062,2.302256 z M 51.896041,23.5467 a 3.6959483,2.7809908 0 0 1 -3.69595,2.780973 3.6959483,2.7809908 0 0 1 -3.69595,-2.780973 3.6959483,2.7809908 0 0 1 3.69595,-2.780976 3.6959483,2.7809908 0 0 1 3.69595,2.780976 z m 6.998397,-5.194383 a 3.2280604,2.3022698 0 0 1 -3.228056,2.302255 3.2280604,2.3022698 0 0 1 -3.228069,-2.302255 3.2280604,2.3022698 0 0 1 3.228069,-2.302257 3.2280604,2.3022698 0 0 1 3.228056,2.302257 z m 0.467887,-0.101588 a 3.6959483,2.7809908 0 0 1 -3.695943,2.780974 3.6959483,2.7809908 0 0 1 -3.695957,-2.780974 3.6959483,2.7809908 0 0 1 3.695957,-2.780975 3.6959483,2.7809908 0 0 1 3.695943,2.780975 z m -7.823371,-0.126987 a 3.2280604,2.3022698 0 0 1 -3.228062,2.302259 3.2280604,2.3022698 0 0 1 -3.228055,-2.302259 3.2280604,2.3022698 0 0 1 3.228055,-2.302256 3.2280604,2.3022698 0 0 1 3.228062,2.302256 z m 0.467895,-0.101586 a 3.6959483,2.7809908 0 0 1 -3.695957,2.780974 3.6959483,2.7809908 0 0 1 -3.69595,-2.780974 3.6959483,2.7809908 0 0 1 3.69595,-2.780974 3.6959483,2.7809908 0 0 1 3.695957,2.780974 z m 6.450626,-5.246592 a 3.2280604,2.3022698 0 0 1 -3.228056,2.302256 3.2280604,2.3022698 0 0 1 -3.228062,-2.302256 3.2280604,2.3022698 0 0 1 3.228062,-2.30227 3.2280604,2.3022698 0 0 1 3.228056,2.30227 z m 0.467887,-0.101589 a 3.6959483,2.7809908 0 0 1 -3.695943,2.780976 3.6959483,2.7809908 0 0 1 -3.69595,-2.780976 3.6959483,2.7809908 0 0 1 3.69595,-2.7809896 3.6959483,2.7809908 0 0 1 3.695943,2.7809896 z m -7.823364,-0.126986 a 3.2280604,2.3022698 0 0 1 -3.228062,2.302257 3.2280604,2.3022698 0 0 1 -3.228056,-2.302257 3.2280604,2.3022698 0 0 1 3.228056,-2.30227 3.2280604,2.3022698 0 0 1 3.228062,2.30227 z m 0.467888,-0.101588 a 3.6959483,2.7809908 0 0 1 -3.69595,2.780976 3.6959483,2.7809908 0 0 1 -3.69595,-2.780976 3.6959483,2.7809908 0 0 1 3.69595,-2.7809906 3.6959483,2.7809908 0 0 1 3.69595,2.7809906 z M 59.2206,51.701826 a 3.2280604,2.3022698 0 0 1 -3.228055,2.30227 3.2280604,2.3022698 0 0 1 -3.228069,-2.30227 3.2280604,2.3022698 0 0 1 3.228069,-2.30227 3.2280604,2.3022698 0 0 1 3.228055,2.30227 z m 0.467888,-0.10159 a 3.6959483,2.7809908 0 0 1 -3.695943,2.781 3.6959483,2.7809908 0 0 1 -3.695957,-2.781 3.6959483,2.7809908 0 0 1 3.695957,-2.78099 3.6959483,2.7809908 0 0 1 3.695943,2.78099 z m -7.823379,-0.12699 a 3.2280604,2.3022698 0 0 1 -3.228062,2.30227 3.2280604,2.3022698 0 0 1 -3.228055,-2.30227 3.2280604,2.3022698 0 0 1 3.228055,-2.30226 3.2280604,2.3022698 0 0 1 3.228062,2.30226 z m 0.467895,-0.10158 a 3.6959483,2.7809908 0 0 1 -3.695957,2.78099 3.6959483,2.7809908 0 0 1 -3.695943,-2.78099 3.6959483,2.7809908 0 0 1 3.695943,-2.78099 3.6959483,2.7809908 0 0 1 3.695957,2.78099 z m 6.450633,-5.246627 a 3.2280604,2.3022698 0 0 1 -3.228055,2.302277 3.2280604,2.3022698 0 0 1 -3.228063,-2.302277 3.2280604,2.3022698 0 0 1 3.228063,-2.302261 3.2280604,2.3022698 0 0 1 3.228055,2.302261 z m 0.467894,-0.101586 a 3.6959483,2.7809908 0 0 1 -3.695949,2.780993 3.6959483,2.7809908 0 0 1 -3.69595,-2.780993 3.6959483,2.7809908 0 0 1 3.69595,-2.780989 3.6959483,2.7809908 0 0 1 3.695949,2.780989 z m -7.823378,-0.126985 a 3.2280604,2.3022698 0 0 1 -3.228062,2.302268 3.2280604,2.3022698 0 0 1 -3.228055,-2.302268 3.2280604,2.3022698 0 0 1 3.228055,-2.302269 3.2280604,2.3022698 0 0 1 3.228062,2.302269 z m 0.467888,-0.101586 a 3.6959483,2.7809908 0 0 1 -3.69595,2.780984 3.6959483,2.7809908 0 0 1 -3.69595,-2.780984 3.6959483,2.7809908 0 0 1 3.69595,-2.780989 3.6959483,2.7809908 0 0 1 3.69595,2.780989 z m 6.998397,-5.194409 a 3.2280604,2.3022698 0 0 1 -3.228056,2.302261 3.2280604,2.3022698 0 0 1 -3.228069,-2.302261 3.2280604,2.3022698 0 0 1 3.228069,-2.302277 3.2280604,2.3022698 0 0 1 3.228056,2.302277 z m 0.467887,-0.101594 a 3.6959483,2.7809908 0 0 1 -3.695943,2.780989 3.6959483,2.7809908 0 0 1 -3.695957,-2.780989 3.6959483,2.7809908 0 0 1 3.695957,-2.780988 3.6959483,2.7809908 0 0 1 3.695943,2.780988 z m -7.823371,-0.126984 a 3.2280604,2.3022698 0 0 1 -3.228062,2.302268 3.2280604,2.3022698 0 0 1 -3.228055,-2.302268 3.2280604,2.3022698 0 0 1 3.228055,-2.302269 3.2280604,2.3022698 0 0 1 3.228062,2.302269 z m 0.467895,-0.101586 a 3.6959483,2.7809908 0 0 1 -3.695957,2.780988 3.6959483,2.7809908 0 0 1 -3.69595,-2.780988 3.6959483,2.7809908 0 0 1 3.69595,-2.780989 3.6959483,2.7809908 0 0 1 3.695957,2.780989 z m 6.450626,-5.246627 a 3.2280604,2.3022698 0 0 1 -3.228056,2.302269 3.2280604,2.3022698 0 0 1 -3.228062,-2.302269 3.2280604,2.3022698 0 0 1 3.228062,-2.302268 3.2280604,2.3022698 0 0 1 3.228056,2.302268 z m 0.467887,-0.101586 a 3.6959483,2.7809908 0 0 1 -3.695943,2.780989 3.6959483,2.7809908 0 0 1 -3.69595,-2.780989 3.6959483,2.7809908 0 0 1 3.69595,-2.78099 3.6959483,2.7809908 0 0 1 3.695943,2.78099 z m -7.823364,-0.126984 a 3.2280604,2.3022698 0 0 1 -3.228062,2.302268 3.2280604,2.3022698 0 0 1 -3.228056,-2.302268 3.2280604,2.3022698 0 0 1 3.228056,-2.302271 3.2280604,2.3022698 0 0 1 3.228062,2.302271 z m 0.467888,-0.101594 a 3.6959483,2.7809908 0 0 1 -3.69595,2.780996 3.6959483,2.7809908 0 0 1 -3.69595,-2.780996 3.6959483,2.7809908 0 0 1 3.69595,-2.78099 3.6959483,2.7809908 0 0 1 3.69595,2.78099 z" />
  </g>
  <g
     inkscape:groupmode="layer"
     id="layer2"
     inkscape:label="Layer 2">
    <path
       style="fill:#000000;stroke-width:0.264583"
       d="m 120.94855,200.67409 c -0.40486,-0.21942 -2.21028,-1.66078 -4.01203,-3.20302 -2.43744,-2.08636 -3.38335,-3.07256 -3.69565,-3.85308 -0.5223,-1.30534 -0.53497,-2.6316 -0.0366,-3.82446 0.21074,-0.50439 6.00469,-9.9958 12.87544,-21.09203 18.08138,-29.20135 19.01244,-30.68494 19.7559,-31.47977 0.80057,-0.85591 2.01325,-1.30395 3.25721,-1.20343 l 0.90137,0.0728 0.18003,-2.24896 c 0.60619,-7.57266 2.6926,-13.13166 6.11928,-16.30416 l 1.53692,-1.42292 -5.76977,-0.001 c -5.32038,-7.9e-4 -5.83798,-0.0426 -6.64559,-0.53496 -1.71619,-1.04627 -1.63772,0.34793 -1.63772,-29.097324 0,-28.170819 -0.0132,-27.841444 1.15668,-28.811676 0.41103,-0.340879 0.39944,-0.391631 -0.15224,-0.666674 -1.302,-0.649118 -1.26967,0.09084 -1.20109,-27.49617 l 0.0644,-25.8859747 0.74235,-0.6385042 0.74236,-0.6385043 h 17.69758 17.69757 l 0.74236,0.6385498 0.74236,0.6385497 V 29.830653 56.039961 l -0.55648,0.556488 c -0.30652,0.306511 -1.05468,0.623305 -1.66554,0.705239 l -1.10906,0.148756 0.60721,0.646293 0.6072,0.646289 0.0698,27.627645 0.0697,27.627649 -0.90883,0.99224 -0.90884,0.99224 -6.96612,0.13229 c -4.00917,0.0761 -6.71705,0.22295 -6.37933,0.34586 1.05381,0.38353 3.45006,3.34064 4.57815,5.64969 1.409,2.88404 2.31815,6.51616 2.69862,10.78122 0.28075,3.14717 0.36995,3.51068 1.13617,4.63021 0.79061,1.15515 8.32196,13.26666 24.57788,39.5248 4.0354,6.51837 7.52072,12.29108 7.74517,12.82825 0.45132,1.08016 0.35391,2.88212 -0.22442,4.15141 -0.50991,1.11912 -7.2258,6.70532 -8.30465,6.90772 -1.16389,0.21835 -2.22713,-0.0424 -3.08026,-0.75545 -0.38673,-0.32322 -6.08654,-9.27923 -12.66626,-19.90225 -6.57972,-10.62302 -12.9029,-20.82852 -14.05152,-22.67889 l -2.08839,-3.3643 -1.07748,0.56161 c -2.43381,1.26857 -5.31966,0.79012 -7.59988,-1.25998 -0.71693,-0.64459 -1.36318,-1.17198 -1.43611,-1.17198 -0.25149,0 -4.894,7.33985 -17.34784,27.4271 -7.75692,12.51139 -12.75858,20.3248 -13.19284,20.60934 -0.96623,0.63309 -2.68323,0.76455 -3.58718,0.27464 z m 73.89341,-0.50429 c 0,-0.0455 -0.38695,-0.43249 -0.85989,-0.85989 l -0.8599,-0.77711 0.7771,0.8599 c 0.72438,0.80154 0.94269,0.98151 0.94269,0.7771 z m 10.31875,-10.44997 c 0,-0.11771 -0.18053,-0.44513 -0.40117,-0.72761 -0.37201,-0.47624 -0.37854,-0.46068 -0.0898,0.21402 0.31153,0.728 0.491,0.91573 0.491,0.51359 z m -26.62383,-74.68422 c 0.37204,-0.29265 0.79894,-0.97316 0.94866,-1.51224 0.3751,-1.35059 0.3751,-52.732651 0,-54.083235 -0.14972,-0.539086 -0.58183,-1.223696 -0.96025,-1.521354 -0.67589,-0.531657 -0.97012,-0.541203 -16.67999,-0.541203 h -15.99196 l -0.7734,0.773398 -0.77339,0.773396 v 27.557374 27.557384 l 0.76116,0.76116 0.76116,0.76116 16.01578,0.003 c 15.64693,0.003 16.03136,-0.009 16.69223,-0.52897 z M 161.76905,94.805834 c -4.16549,-1.870226 -4.80644,-7.956669 -1.1114,-10.553642 2.09493,-1.47237 5.15464,-1.166874 6.83513,0.68245 1.71869,1.89135 2.0821,4.893003 0.87639,7.238717 -1.28966,2.509055 -4.24746,3.688775 -6.60012,2.632475 z m 2.32833,-4.672838 c 0.20503,-0.205031 0.3175,-1.264121 0.3175,-2.989792 0,-2.735768 -0.18714,-3.307292 -1.08294,-3.307292 -0.64881,0 -0.76914,0.533244 -0.76914,3.408307 0,2.500297 0.2039,3.206277 0.92604,3.206277 0.16007,0 0.43391,-0.142875 0.60854,-0.3175 z m -4.22527,-12.903621 c -1.89945,-1.032984 -2.90665,-3.446529 -2.33077,-5.585188 0.45775,-1.699956 2.15793,-3.313946 3.74099,-3.551341 4.69595,-0.704202 7.13413,5.798296 3.2772,8.740122 -1.29513,0.987838 -3.28972,1.156518 -4.68742,0.396407 z m -0.062,-14.074966 c -0.23226,-0.3316 -0.42229,-0.788049 -0.42229,-1.014331 0,-0.880808 0.80791,-1.620803 1.67722,-1.536221 1.833,0.178345 1.833,2.894097 0,3.072442 -0.62352,0.06067 -0.9387,-0.07041 -1.25493,-0.52189 z m 21.27354,-6.835164 c 0.52197,-0.521968 0.52916,-0.881944 0.52916,-26.458335 0,-25.5763894 -0.007,-25.9363667 -0.52916,-26.4583338 -0.51864,-0.518636 -0.88195,-0.5291667 -18.25625,-0.5291667 -17.37431,0 -17.73761,0.010531 -18.25625,0.5291667 -0.52197,0.5219671 -0.52917,0.8819444 -0.52917,26.4583338 0,25.576391 0.007,25.936367 0.52917,26.458335 0.51864,0.518636 0.88194,0.529166 18.25625,0.529166 17.3743,0 17.73761,-0.01053 18.25625,-0.529166 z m -33.0677,-1.659287 c -1.36426,-0.6975 -1.32979,-0.03873 -1.2605,-24.094412 l 0.0647,-22.4464041 0.74235,-0.638491 0.74236,-0.638491 h 15.05175 15.05174 l 0.74236,0.638549 0.74235,0.63855 V 30.888986 53.658711 l -0.60252,0.602663 -0.60253,0.602662 -15.00789,0.06572 c -11.70484,0.05126 -15.15232,-0.0081 -15.66413,-0.269798 z m 30.95103,-0.721963 c 0.52087,-0.520867 0.52917,-0.881944 0.52917,-23.018751 0,-22.1368061 -0.008,-22.4978851 -0.52917,-23.0187511 -0.51679,-0.516788 -0.88194,-0.529167 -15.61041,-0.529167 -14.72848,0 -15.09363,0.01238 -15.61042,0.529167 -0.52087,0.520866 -0.52917,0.881945 -0.52917,23.0187511 0,22.136807 0.008,22.497884 0.52917,23.018751 0.51679,0.516789 0.88194,0.529166 15.61042,0.529166 14.72847,0 15.09362,-0.01238 15.61041,-0.529166 z m -20.02492,-1.08529 c -0.46346,-0.134096 -1.18483,-0.586001 -1.60306,-1.004231 l -0.76042,-0.76042 -0.60399,0.627549 c -1.70885,1.775486 -5.49787,1.272368 -6.51196,-0.864674 -0.59898,-1.262237 -0.21009,-2.378956 1.15608,-3.319802 l 0.6236,-0.429455 -0.80598,-0.416785 c -1.0803,-0.558647 -1.63185,-1.404978 -1.63185,-2.504022 0,-0.714492 0.22446,-1.121662 1.05264,-1.909485 0.97125,-0.923933 1.01075,-1.014638 0.51091,-1.173282 -0.63381,-0.20116 -1.56157,-1.611397 -1.56157,-2.373646 0,-0.778578 0.93317,-2.1742 1.594,-2.383941 0.55835,-0.177212 0.55339,-0.195027 -0.18018,-0.647199 -2.46424,-1.518947 -2.34487,-4.044191 0.24376,-5.156807 l 0.73351,-0.315269 -0.6554,-0.350756 c -0.64582,-0.345638 -1.48201,-1.734295 -1.46371,-2.430806 0.0165,-0.627907 0.66541,-1.564732 1.43234,-2.067826 l 0.74457,-0.488432 -0.8125,-0.420159 c -1.08657,-0.561885 -1.63837,-1.406376 -1.63837,-2.507394 0,-0.71449 0.22446,-1.121659 1.05264,-1.909483 0.97125,-0.923934 1.01075,-1.014638 0.51091,-1.173282 -0.63381,-0.201162 -1.56157,-1.611397 -1.56157,-2.373646 0,-0.77858 0.93317,-2.174201 1.594,-2.38394 0.55835,-0.177213 0.55339,-0.195028 -0.18018,-0.6472 -2.07882,-1.281377 -2.40058,-2.953036 -0.84313,-4.3803301 1.66508,-1.525937 4.40192,-1.46386 6.00192,0.136135 0.62528,0.625282 0.81241,0.701118 0.9359,0.379289 0.21074,-0.549161 2.21692,-1.425407 3.27978,-1.432519 1.08175,-0.0072 2.46762,0.5569 3.13936,1.277921 l 0.51081,0.548296 0.73174,-0.775277 c 0.66901,-0.708814 2.09496,-1.318383 3.08407,-1.318383 0.92241,0 2.36248,0.579601 2.98381,1.200928 l 0.66787,0.667876 0.9789,-0.664297 c 1.87461,-1.272148 4.00302,-1.212478 5.56154,0.155918 0.76473,0.671446 0.92038,0.9883551 0.92038,1.8739371 0,0.87698 -0.16541,1.221834 -0.93355,1.946286 l -0.93356,0.880457 0.7852,0.406044 c 1.03823,0.536886 1.61108,1.396172 1.61108,2.416632 0,0.927615 -0.79676,2.107089 -1.5944,2.360251 -0.70675,0.224312 -0.65667,0.513089 0.15294,0.881973 0.81611,0.371847 1.51406,1.90944 1.28358,2.827754 -0.0918,0.365614 -0.58259,1.007446 -1.09072,1.426293 -0.85991,0.708808 -0.88611,0.773528 -0.37843,0.93466 0.3,0.09522 0.84834,0.533079 1.21853,0.973029 1.21838,1.447958 0.67286,3.431823 -1.15145,4.187481 l -0.78413,0.324797 0.90745,0.796758 c 0.75152,0.659839 0.90746,0.979914 0.90746,1.862588 0,0.876977 -0.16541,1.221832 -0.93355,1.946285 l -0.93356,0.880457 0.7852,0.406043 c 1.03823,0.536887 1.61108,1.396172 1.61108,2.416632 0,0.927616 -0.79676,2.107089 -1.5944,2.360251 -0.70675,0.224311 -0.65667,0.51309 0.15294,0.881972 0.8118,0.369882 1.51399,1.909718 1.28568,2.819379 -0.0906,0.361006 -0.5652,1.007989 -1.05466,1.437738 -0.80317,0.705186 -0.84026,0.797124 -0.38053,0.943036 0.28017,0.08892 0.81228,0.521634 1.18247,0.961583 2.36284,2.808073 -1.82504,5.894645 -5.47064,4.031996 -0.39587,-0.20226 -0.84969,-0.610528 -1.0085,-0.907261 -0.2825,-0.527865 -0.30792,-0.522674 -1.17707,0.24045 -1.55998,1.369688 -4.43438,1.323256 -5.85217,-0.09453 l -0.62688,-0.62688 -0.75262,0.752618 c -0.70313,0.703139 -2.3182,1.357451 -3.22445,1.30633 -0.21829,-0.0123 -0.77606,-0.132101 -1.23951,-0.2662 z m 2.62077,-0.778552 c 2.74888,-0.763439 2.16461,-3.607335 -0.79965,-3.892161 -3.252,-0.312476 -4.63222,2.558494 -1.81841,3.782441 1.02437,0.445582 1.35834,0.459579 2.61806,0.10972 z m 15.212,-0.24152 c 1.77154,-0.804222 1.81093,-2.421165 0.0808,-3.315859 -1.6055,-0.830238 -4.20558,-0.166679 -4.63382,1.182587 -0.23775,0.749097 0.47914,1.803779 1.53964,2.265072 1.12962,0.49136 1.6952,0.466622 3.0134,-0.1318 z m -21.64326,-0.481107 c 0.97164,-0.722032 1.03406,-1.879553 0.14634,-2.713527 -0.57534,-0.540499 -0.96163,-0.65313 -2.24009,-0.65313 -1.27086,0 -1.66598,0.113774 -2.22765,0.641432 -2.24616,2.110164 1.75421,4.632931 4.3214,2.725225 z m 14.81667,-0.0024 c 1.05182,-0.785296 0.95396,-2.103173 -0.21466,-2.890702 -1.88604,-1.271016 -4.78951,-0.368538 -4.78951,1.488694 0,1.850303 3.20212,2.747425 5.00417,1.401995 z m -4.55764,-3.793715 c 0.66954,-0.439208 0.68357,-0.484621 0.20257,-0.655328 -0.28425,-0.100877 -0.81447,-0.455893 -1.17827,-0.788921 l -0.66146,-0.605504 -0.97485,0.896546 c -0.82937,0.762756 -0.90472,0.918808 -0.50487,1.045715 0.25849,0.08204 0.75366,0.451125 1.10037,0.820187 0.58405,0.621687 0.65491,0.637503 0.96376,0.21512 0.18335,-0.250746 0.65709,-0.668264 1.05275,-0.927815 z m -7.72135,0.445704 0.95076,-0.645205 -0.60828,-0.313163 c -0.33456,-0.172241 -0.93571,-0.618548 -1.33589,-0.991796 -0.40019,-0.373248 -0.72761,-0.535543 -0.72761,-0.360656 0,0.174884 -0.36921,0.542507 -0.82048,0.816938 -0.73488,0.44691 -0.76685,0.515982 -0.30643,0.662114 0.28273,0.08974 0.79176,0.458764 1.13119,0.820066 0.33942,0.361299 0.65062,0.65691 0.69155,0.65691 0.0409,0 0.50227,-0.290343 1.02519,-0.645208 z m 14.83509,-0.01252 c 0.84015,-0.570137 0.90336,-0.680923 0.47477,-0.832022 -0.27193,-0.09587 -0.88137,-0.53763 -1.35432,-0.981691 -0.47294,-0.444058 -0.85989,-0.66321 -0.85989,-0.487005 0,0.176207 -0.36922,0.544909 -0.82048,0.81934 -0.73489,0.446911 -0.76686,0.515983 -0.30643,0.662115 0.28272,0.08974 0.79176,0.458763 1.13118,0.820065 0.33942,0.361299 0.65063,0.65691 0.69156,0.65691 0.0409,0 0.51055,-0.295971 1.04361,-0.657712 z m -10.80693,-0.295891 c -0.0879,-0.08792 -0.31613,-0.09732 -0.50712,-0.02088 -0.21107,0.08446 -0.14837,0.147156 0.15985,0.159851 0.27892,0.01148 0.43519,-0.05105 0.34727,-0.138964 z m 12.7,0 c -0.0879,-0.08792 -0.31613,-0.09732 -0.50712,-0.02088 -0.21107,0.08446 -0.14837,0.147156 0.15985,0.159851 0.27892,0.01148 0.43519,-0.05105 0.34727,-0.138964 z m 2.11666,0 c -0.0879,-0.08792 -0.31612,-0.09732 -0.50711,-0.02088 -0.21107,0.08446 -0.14838,0.147156 0.15985,0.159851 0.27891,0.01148 0.43518,-0.05105 0.34726,-0.138964 z m -23.93928,-0.279961 c -0.1819,-0.0734 -0.47955,-0.0734 -0.66145,0 -0.1819,0.0734 -0.0331,0.133453 0.33073,0.133453 0.3638,0 0.51263,-0.06005 0.33072,-0.133453 z m 1.5875,0 c -0.1819,-0.0734 -0.47955,-0.0734 -0.66145,0 -0.1819,0.0734 -0.0331,0.133453 0.33073,0.133453 0.3638,0 0.51263,-0.06005 0.33072,-0.133453 z m 13.22917,0 c -0.1819,-0.0734 -0.47956,-0.0734 -0.66146,0 -0.1819,0.0734 -0.0331,0.133453 0.33073,0.133453 0.3638,0 0.51263,-0.06005 0.33073,-0.133453 z m 1.5875,0 c -0.1819,-0.0734 -0.47956,-0.0734 -0.66146,0 -0.1819,0.0734 -0.0331,0.133453 0.33073,0.133453 0.3638,0 0.51263,-0.06005 0.33073,-0.133453 z m -6.94531,-1.387914 c 1.82888,-1.319734 0.48133,-3.463941 -2.17695,-3.463941 -1.68186,0 -2.83858,0.870487 -2.84608,2.141805 -0.0106,1.793192 3.19937,2.638099 5.02303,1.322136 z m 14.81667,0 c 1.77175,-1.278512 0.44401,-3.463941 -2.10449,-3.463941 -1.8853,0 -2.9226,0.791329 -2.9226,2.229591 0,1.713203 3.25569,2.512605 5.02709,1.23435 z m -22.89854,0.130035 c 0.49333,-0.206129 1.1017,-0.687256 1.35195,-1.069174 1.29182,-1.97158 -2.41451,-3.704137 -4.67418,-2.184982 -2.53015,1.700991 0.33133,4.50383 3.32223,3.254156 z m 14.81666,0 c 0.49333,-0.206129 1.09257,-0.673307 1.33164,-1.038175 1.37716,-2.101811 -3.06773,-3.864195 -5.04973,-2.002203 -1.92922,1.812412 0.97439,4.18677 3.71809,3.040378 z m -11.00518,-4.117055 0.6244,-0.320429 -0.83172,-0.505801 c -0.45745,-0.278191 -0.89885,-0.680712 -0.98088,-0.894488 -0.11688,-0.304575 -0.36704,-0.205761 -1.156,0.456613 l -1.00685,0.845299 0.7769,0.472456 c 0.42729,0.259852 0.85073,0.664882 0.94098,0.900067 0.14425,0.375897 0.21517,0.363458 0.58643,-0.102838 0.23228,-0.291748 0.70332,-0.674642 1.04674,-0.850879 z m 7.17676,-1.105561 c -0.40258,-0.244825 -0.80533,-0.563846 -0.895,-0.708935 -0.092,-0.148789 -0.48056,0.05371 -0.89131,0.46447 -0.40055,0.40055 -0.90572,0.807265 -1.12261,0.903814 -0.33764,0.150307 -0.33989,0.200025 -0.0156,0.34588 0.2083,0.09369 0.62502,0.42396 0.92604,0.733943 l 0.54732,0.563608 1.09157,-0.928823 1.09156,-0.928822 z m 7.45732,1.208524 0.81239,-0.420106 -0.80231,-0.487915 c -0.44127,-0.268354 -0.90206,-0.662517 -1.02398,-0.875922 -0.18083,-0.316513 -0.40764,-0.226621 -1.23101,0.487879 -0.94035,0.816006 -0.97152,0.887886 -0.45597,1.051512 0.30435,0.0966 0.7486,0.473594 0.98722,0.837769 0.37069,0.565748 0.46786,0.60134 0.66756,0.244509 0.12854,-0.229693 0.59929,-0.606668 1.0461,-0.837726 z m -14.19315,0.206631 c -0.0815,-0.08146 -0.29495,-1.69e-4 -0.47443,0.180653 -0.25936,0.261307 -0.22897,0.291698 0.14811,0.148113 0.26094,-0.09936 0.40778,-0.247303 0.32632,-0.328766 z m -6.29636,-0.475535 c -0.0879,-0.08792 -0.31613,-0.09732 -0.50712,-0.02088 -0.21107,0.08446 -0.14838,0.147156 0.15985,0.159851 0.27891,0.01148 0.43518,-0.05105 0.34727,-0.138965 z m 1.85208,0 c -0.0879,-0.08792 -0.31613,-0.09732 -0.50712,-0.02088 -0.21107,0.08446 -0.14837,0.147156 0.15985,0.159851 0.27892,0.01148 0.43519,-0.05105 0.34727,-0.138965 z m 12.96458,0 c -0.0879,-0.08792 -0.31612,-0.09732 -0.50712,-0.02088 -0.21106,0.08446 -0.14837,0.147156 0.15986,0.159851 0.27891,0.01148 0.43518,-0.05105 0.34726,-0.138965 z m 1.85208,0 c -0.0879,-0.08792 -0.31612,-0.09732 -0.50711,-0.02088 -0.21107,0.08446 -0.14838,0.147156 0.15985,0.159851 0.27891,0.01148 0.43518,-0.05105 0.34726,-0.138965 z m -6.38889,-1.333926 c 2.56791,-1.68256 -1.02858,-4.599684 -3.86349,-3.133691 -1.92673,0.99635 -1.54779,3.038192 0.67778,3.652012 0.80301,0.22147 2.47077,-0.04988 3.18571,-0.518321 z m 14.1039,0.284115 c 2.60675,-1.043017 1.57063,-3.817419 -1.42564,-3.817419 -2.54636,0 -3.98587,2.322795 -2.17489,3.509393 1.19253,0.781376 2.20173,0.867715 3.60053,0.308026 z m -22.07596,-0.223122 c 1.59757,-0.667509 1.91398,-2.185103 0.65135,-3.124086 -0.98639,-0.733555 -2.61632,-0.888286 -3.74005,-0.355042 -3.20879,1.522672 -0.23792,4.86908 3.0887,3.479128 z m 14.83737,-0.0087 c 1.15863,-0.484102 1.65588,-1.462188 1.2246,-2.408745 -0.33203,-0.728731 -1.72638,-1.441461 -2.82,-1.441461 -1.96207,0 -3.46592,1.492975 -2.78515,2.765005 0.70155,1.310857 2.67212,1.799031 4.38055,1.085201 z m -10.90166,-4.115779 c 0.17073,-5.29e-4 -0.10629,-0.249819 -0.61562,-0.553945 -0.50932,-0.304125 -1.13175,-0.809693 -1.38318,-1.123489 -0.25142,-0.313793 -0.45978,-0.433398 -0.46302,-0.265787 -0.003,0.167611 -0.3728,0.537061 -0.82125,0.821004 l -0.81537,0.516255 0.95397,0.562859 c 0.52468,0.309571 1.02336,0.743688 1.10817,0.964708 0.12751,0.332288 0.29024,0.287388 0.94004,-0.259384 0.4322,-0.363675 0.92552,-0.661676 1.09626,-0.662221 z m 7.36189,-0.264583 c 0.19628,-5.29e-4 -0.0577,-0.253741 -0.5645,-0.562658 -0.50675,-0.308917 -1.04253,-0.720468 -1.19062,-0.914558 -0.21381,-0.280221 -0.4721,-0.164979 -1.25423,0.559599 l -0.98496,0.912489 0.73965,0.382487 c 0.40681,0.210371 0.89306,0.567336 1.08056,0.793261 0.30138,0.363143 0.42651,0.319148 1.07907,-0.379428 0.40599,-0.43461 0.89875,-0.790647 1.09503,-0.791192 z m 7.3828,0.26307 c 0.21032,-0.0013 -0.11046,-0.297934 -0.71283,-0.659016 -0.60238,-0.36108 -1.17643,-0.865971 -1.27567,-1.121977 -0.16082,-0.414856 -0.21434,-0.420994 -0.49227,-0.05645 -0.17151,0.22496 -0.58499,0.597046 -0.91884,0.826858 l -0.60702,0.41784 0.94405,0.557004 c 0.51923,0.306353 1.01631,0.745302 1.10462,0.975444 0.13523,0.352394 0.27225,0.311452 0.86807,-0.259381 0.38912,-0.372803 0.87957,-0.67895 1.08989,-0.680326 z m -13.57988,0.107233 c -0.0879,-0.08792 -0.31613,-0.09732 -0.50712,-0.02088 -0.21107,0.08446 -0.14837,0.147156 0.15985,0.159851 0.27892,0.01148 0.43519,-0.05105 0.34727,-0.138964 z m 2.11667,0 c -0.0879,-0.08792 -0.31613,-0.09732 -0.50712,-0.02088 -0.21107,0.08446 -0.14838,0.147156 0.15985,0.159851 0.27891,0.01148 0.43518,-0.05105 0.34727,-0.138964 z m 12.69999,0 c -0.0879,-0.08792 -0.31612,-0.09732 -0.50711,-0.02088 -0.21107,0.08446 -0.14838,0.147156 0.15985,0.159851 0.27891,0.01148 0.43518,-0.05105 0.34726,-0.138964 z m 1.85209,0 c -0.0879,-0.08792 -0.31613,-0.09732 -0.50712,-0.02088 -0.21107,0.08446 -0.14837,0.147156 0.15985,0.159851 0.27892,0.01148 0.43519,-0.05105 0.34727,-0.138964 z m -22.61273,-0.290978 c -0.32542,-0.0628 -0.92073,-0.06443 -1.32291,-0.0036 -0.40219,0.06082 -0.13593,0.1122 0.59167,0.114187 0.7276,0.0019 1.05666,-0.04777 0.73124,-0.110575 z m 14.81667,0 c -0.32542,-0.0628 -0.92073,-0.06443 -1.32292,-0.0036 -0.40218,0.06082 -0.13593,0.1122 0.59168,0.114187 0.7276,0.0019 1.05666,-0.04777 0.73124,-0.110575 z m -6.41978,-1.375013 c 1.52285,-1.094574 0.60846,-3.099004 -1.54552,-3.387913 -2.02322,-0.271373 -3.48157,0.565438 -3.48157,1.997749 0,1.855923 3.1624,2.730434 5.02709,1.390164 z m 13.81667,0.491169 c 2.74889,-0.763439 2.16461,-3.607334 -0.79964,-3.892161 -2.4096,-0.231534 -4.10678,1.360901 -3.01732,2.831098 0.43772,0.590706 1.77942,1.280885 2.56799,1.320995 0.14552,0.0074 0.70756,-0.109566 1.24897,-0.259932 z M 154.3378,34.682727 c 0.97164,-0.722032 1.03406,-1.879552 0.14634,-2.713527 -0.57534,-0.540499 -0.96163,-0.653129 -2.24009,-0.653129 -1.27086,0 -1.66598,0.113773 -2.22765,0.641432 -2.24616,2.110163 1.75421,4.632931 4.3214,2.725224 z m 14.81667,0 c 0.97164,-0.722032 1.03406,-1.879552 0.14634,-2.713527 -0.57534,-0.540499 -0.96164,-0.653129 -2.2401,-0.653129 -1.27085,0 -1.66597,0.113773 -2.22764,0.641432 -2.24617,2.110163 1.7542,4.632931 4.3214,2.725224 z m -11.62531,-3.760817 0.80827,-0.334795 -0.86388,-0.85352 -0.86388,-0.853519 -0.8691,0.754978 c -0.47801,0.415237 -1.07332,0.755761 -1.32292,0.756719 -0.31919,0.0013 -0.2244,0.152976 0.31957,0.511569 0.42536,0.280405 0.88338,0.706371 1.01781,0.946589 0.22195,0.396597 0.2776,0.389403 0.60514,-0.07823 0.1984,-0.283247 0.72444,-0.665652 1.16899,-0.849791 z m 7.78258,-0.417547 c 0.45261,-0.197014 0.69149,-0.362865 0.53084,-0.368561 -0.16065,-0.0057 -0.61703,-0.311494 -1.01417,-0.679551 l -0.72208,-0.669197 -0.49821,0.633383 c -0.27402,0.348358 -0.86313,0.784532 -1.30914,0.969272 l -0.81091,0.335891 0.60351,0.41156 c 0.33193,0.226356 0.70646,0.581395 0.83228,0.788976 0.18505,0.305266 0.3565,0.239679 0.89686,-0.343074 0.36745,-0.396272 1.0384,-0.881684 1.49102,-1.078699 z m 5.95868,1.104758 c 0.16816,-0.202626 0.6512,-0.511498 1.0734,-0.686382 l 0.76766,-0.317971 -0.84257,-0.859182 -0.84257,-0.859184 -0.86911,0.751814 c -0.478,0.413498 -1.04543,0.751813 -1.26094,0.751813 -0.24009,0 -0.0572,0.304393 0.47223,0.785995 0.9947,0.90482 1.08806,0.931744 1.5019,0.433097 z m 4.44988,-0.585195 c -0.0879,-0.08792 -0.31612,-0.09732 -0.50711,-0.02088 -0.21107,0.08446 -0.14838,0.147156 0.15985,0.159851 0.27891,0.01148 0.43518,-0.05104 0.34726,-0.138965 z m -23.93928,-0.27991 c -0.1819,-0.0734 -0.47955,-0.0734 -0.66145,0 -0.1819,0.0734 -0.0331,0.133453 0.33073,0.133453 0.3638,0 0.51263,-0.06006 0.33072,-0.133453 z m 1.5875,0 c -0.1819,-0.0734 -0.47955,-0.0734 -0.66145,0 -0.1819,0.0734 -0.0331,0.133453 0.33073,0.133453 0.3638,0 0.51263,-0.06006 0.33072,-0.133453 z m 13.22917,0 c -0.1819,-0.0734 -0.47956,-0.0734 -0.66146,0 -0.1819,0.0734 -0.0331,0.133453 0.33073,0.133453 0.3638,0 0.51263,-0.06006 0.33073,-0.133453 z m 1.5875,0 c -0.1819,-0.0734 -0.47956,-0.0734 -0.66146,0 -0.1819,0.0734 -0.0331,0.133453 0.33073,0.133453 0.3638,0 0.51263,-0.06006 0.33073,-0.133453 z m -6.41378,-1.047213 c 2.54183,-1.017042 1.88267,-3.462032 -1.00825,-3.739813 -2.4096,-0.231532 -4.10678,1.360901 -3.01732,2.831099 0.4527,0.610912 1.79066,1.284004 2.62879,1.322472 0.17895,0.0082 0.80751,-0.177978 1.39678,-0.413758 z m 14.81667,0 c 2.54183,-1.017042 1.88266,-3.462032 -1.00825,-3.739813 -1.52233,-0.146276 -2.83165,0.416037 -3.28487,1.410749 -0.24852,0.545429 -0.20885,0.778073 0.23468,1.376337 0.48012,0.647609 1.80365,1.327104 2.66165,1.366485 0.17896,0.0082 0.80751,-0.177978 1.39679,-0.413758 z m -21.45653,-0.570278 c 0.97164,-0.722032 1.03406,-1.879553 0.14634,-2.713526 -0.57534,-0.5405 -0.96163,-0.65313 -2.24009,-0.65313 -1.27086,0 -1.66598,0.113772 -2.22765,0.641433 -2.24616,2.110162 1.75421,4.63293 4.3214,2.725223 z m 14.81667,-8e-6 c 0.91377,-0.679034 1.0269,-1.785831 0.26541,-2.596403 -1.56076,-1.66135 -5.26958,-0.828432 -5.26958,1.18343 0,1.857066 3.19325,2.758707 5.00417,1.412973 z m -4.36656,-3.967892 c 0.48026,-0.247947 0.47369,-0.277253 -0.13229,-0.590493 -0.35069,-0.181279 -0.87574,-0.544655 -1.16678,-0.807502 -0.5147,-0.464833 -0.55583,-0.453413 -1.50402,0.417611 -0.82928,0.761794 -0.90467,0.917789 -0.50487,1.044681 0.25849,0.08204 0.75015,0.44739 1.09257,0.811885 l 0.6226,0.662718 0.54373,-0.639002 c 0.29906,-0.351451 0.77114,-0.756405 1.04906,-0.899898 z m -7.91243,0.617496 0.95076,-0.645207 -0.60828,-0.313163 c -0.33456,-0.172241 -0.93571,-0.618548 -1.33589,-0.991796 -0.40019,-0.373247 -0.72761,-0.535542 -0.72761,-0.360657 0,0.174885 -0.35028,0.530992 -0.7784,0.791349 l -0.7784,0.473375 0.89516,0.482079 c 0.49234,0.265143 0.95795,0.645687 1.03468,0.845652 0.18476,0.481459 0.24073,0.469764 1.34798,-0.281632 z m 14.81666,0 0.95077,-0.645207 -0.60829,-0.313163 c -0.33456,-0.172241 -0.93571,-0.618548 -1.33589,-0.991796 -0.40018,-0.373247 -0.7276,-0.548985 -0.7276,-0.390529 0,0.158457 -0.37364,0.524675 -0.83031,0.813818 -0.75343,0.477035 -0.7818,0.541112 -0.30643,0.691988 0.28813,0.09145 0.80159,0.461883 1.14101,0.823184 0.33942,0.361301 0.65063,0.656911 0.69156,0.656911 0.0409,0 0.50226,-0.290343 1.02518,-0.645206 z m -12.90517,-0.308397 c -0.0879,-0.08792 -0.31612,-0.09732 -0.50712,-0.02089 -0.21106,0.08446 -0.14837,0.147156 0.15986,0.159852 0.27891,0.01149 0.43518,-0.05104 0.34726,-0.138964 z m 14.81667,0 c -0.0879,-0.08792 -0.31613,-0.09732 -0.50712,-0.02089 -0.21107,0.08446 -0.14837,0.147156 0.15985,0.159852 0.27892,0.01149 0.43519,-0.05104 0.34727,-0.138964 z m -21.96042,-0.264583 c -0.0879,-0.08792 -0.31612,-0.09732 -0.50712,-0.02089 -0.21106,0.08446 -0.14837,0.147157 0.15986,0.159853 0.27891,0.01149 0.43518,-0.05105 0.34726,-0.138965 z m 1.85209,0 c -0.0879,-0.08792 -0.31613,-0.09732 -0.50712,-0.02089 -0.21107,0.08446 -0.14838,0.147157 0.15985,0.159853 0.27891,0.01149 0.43518,-0.05105 0.34727,-0.138965 z m 12.96458,0 c -0.0879,-0.08792 -0.31613,-0.09732 -0.50712,-0.02089 -0.21107,0.08446 -0.14837,0.147157 0.15985,0.159853 0.27892,0.01149 0.43519,-0.05105 0.34727,-0.138965 z m 1.85208,0 c -0.0879,-0.08792 -0.31612,-0.09732 -0.50712,-0.02089 -0.21106,0.08446 -0.14837,0.147157 0.15986,0.159853 0.27891,0.01149 0.43518,-0.05105 0.34726,-0.138965 z m -7.07209,-1.416394 c 1.83901,-1.290609 0.47624,-3.450837 -2.17695,-3.450837 -1.68678,0 -2.83862,0.870298 -2.84608,2.150416 -0.005,0.818346 0.42121,1.223945 1.77937,1.694223 1.15818,0.401032 2.31042,0.261143 3.24366,-0.393802 z m 14.81667,0 c 1.81558,-1.274172 0.48047,-3.450837 -2.11667,-3.450837 -1.87332,0 -2.91042,0.794497 -2.91042,2.229591 0,1.685872 3.24258,2.473603 5.02709,1.221246 z m -22.89854,0.143138 c 1.10673,-0.462424 1.84142,-1.509064 1.59789,-2.276359 -0.0978,-0.308207 -0.55417,-0.789842 -1.01412,-1.070299 -2.60312,-1.587264 -6.351,0.849039 -4.27124,2.776502 1.02953,0.954134 2.29878,1.150385 3.68747,0.570156 z m 14.81666,0 c 2.87794,-1.202478 1.52905,-4.10978 -1.76016,-3.793728 -0.85914,0.08255 -1.50501,0.327855 -1.94056,0.737031 -1.94465,1.826909 0.94052,4.209984 3.70072,3.056697 z m -11.18777,-4.014091 0.8124,-0.420104 -0.83443,-0.507446 c -0.45894,-0.279095 -0.90155,-0.682354 -0.98358,-0.896131 -0.11688,-0.304573 -0.36704,-0.205761 -1.156,0.456613 l -1.00685,0.845298 0.7769,0.472458 c 0.42729,0.259851 0.85017,0.663402 0.93972,0.896778 0.14926,0.388962 0.18269,0.388835 0.40114,-0.0015 0.13107,-0.234213 0.60389,-0.614888 1.0507,-0.845946 z M 164.94,18.70727 c -0.40258,-0.244825 -0.80533,-0.563846 -0.895,-0.708936 -0.092,-0.148787 -0.48056,0.05372 -0.89131,0.464473 -0.40055,0.400549 -0.90572,0.807265 -1.12261,0.903812 -0.33764,0.150308 -0.33989,0.200026 -0.0156,0.34588 0.2083,0.09369 0.62502,0.423961 0.92604,0.733944 l 0.54732,0.563606 1.09157,-0.928822 1.09156,-0.928821 z m 7.45732,1.208524 0.81239,-0.420104 -0.80231,-0.487916 c -0.44127,-0.268354 -0.90839,-0.677471 -1.03805,-0.909149 -0.20489,-0.366123 -0.31781,-0.333865 -0.8631,0.246568 -0.34505,0.36729 -0.7852,0.6678 -0.97812,0.6678 -0.54518,0 -0.41277,0.473823 0.18546,0.663696 0.29492,0.0936 0.73145,0.468148 0.97007,0.832322 0.37069,0.565747 0.46786,0.60134 0.66756,0.24451 0.12854,-0.229692 0.59929,-0.606669 1.0461,-0.837727 z m -10.96451,-0.0043 c -0.0879,-0.08792 -0.31613,-0.09732 -0.50712,-0.02089 -0.21107,0.08446 -0.14838,0.147156 0.15985,0.159852 0.27891,0.01149 0.43518,-0.05104 0.34727,-0.138964 z m 12.43541,0 c -0.0879,-0.08792 -0.31612,-0.09732 -0.50712,-0.02089 -0.21106,0.08446 -0.14837,0.147156 0.15986,0.159852 0.27891,0.01149 0.43518,-0.05104 0.34726,-0.138964 z M 151.90781,19.64689 c -0.0879,-0.08792 -0.31613,-0.09732 -0.50712,-0.02089 -0.21107,0.08446 -0.14838,0.147157 0.15985,0.159853 0.27891,0.01149 0.43518,-0.05105 0.34727,-0.138965 z m 14.81666,0 c -0.0879,-0.08792 -0.31612,-0.09732 -0.50712,-0.02089 -0.21106,0.08446 -0.14837,0.147157 0.15986,0.159853 0.27891,0.01149 0.43518,-0.05105 0.34726,-0.138965 z m -5.26269,-1.044565 c 1.85999,-0.744219 2.09086,-2.3298 0.48208,-3.310766 -2.2547,-1.374817 -5.71428,0.320071 -4.66298,2.284447 0.32712,0.611224 1.81618,1.397118 2.69687,1.423353 0.25172,0.0075 0.91953,-0.171167 1.48403,-0.397034 z m 14.71498,0.03589 c 1.10673,-0.462424 1.84142,-1.509063 1.59789,-2.276358 -0.42823,-1.349265 -3.02831,-2.012825 -4.63382,-1.182586 -2.97054,1.536129 -0.12404,4.779262 3.03593,3.458944 z m -21.41329,-0.530788 c 0.67807,-0.44429 1.08011,-1.470975 0.83062,-2.121137 -0.45133,-1.176147 -2.98446,-1.795079 -4.46717,-1.091487 -1.58665,0.752915 -1.81082,1.992283 -0.56103,3.101645 0.94554,0.839288 3.00302,0.893685 4.19758,0.110979 z m 14.81666,0 c 2.15173,-1.409865 -0.0385,-4.017397 -2.92033,-3.47676 -1.10903,0.208056 -2.24492,1.196221 -2.24492,1.952968 0,0.626687 1.16629,1.825941 1.93857,1.993367 0.96232,0.208624 2.54261,-0.02135 3.22668,-0.469575 z m -11.64754,-3.803009 0.52916,-0.282924 -0.52916,-0.188357 c -0.29104,-0.103596 -0.91612,-0.551678 -1.38907,-0.995737 -0.47294,-0.444059 -0.85989,-0.676654 -0.85989,-0.516877 0,0.159777 -0.38345,0.533284 -0.8521,0.830016 l -0.8521,0.539512 0.69556,0.264454 c 0.38256,0.145449 0.91484,0.559216 1.18283,0.919482 0.47055,0.632556 0.50542,0.638876 1.01643,0.184192 0.29105,-0.25896 0.7673,-0.598152 1.05834,-0.753761 z m 7.30967,-0.196893 c 0.50649,-0.160754 0.48072,-0.215768 -0.33295,-0.710589 -0.48507,-0.294989 -1.00312,-0.69223 -1.15121,-0.882757 -0.21218,-0.272972 -0.48441,-0.157612 -1.28411,0.544144 l -1.01486,0.890556 0.76954,0.397944 c 0.42325,0.218869 0.92328,0.583183 1.11117,0.809586 0.30358,0.365787 0.39799,0.34 0.84753,-0.231499 0.27824,-0.353727 0.75294,-0.721551 1.05489,-0.817385 z m 7.01471,-0.3862 c -0.31076,-0.218282 -0.80589,-0.65275 -1.10029,-0.965487 l -0.53528,-0.56861 -0.8392,0.749824 -0.8392,0.749825 0.91725,0.541189 c 0.50448,0.297654 0.98685,0.722573 1.07192,0.944263 0.12671,0.330198 0.31153,0.271342 1.02224,-0.325527 l 0.86757,-0.728602 z m -12.94083,0.633897 c -0.0879,-0.08792 -0.31613,-0.09732 -0.50712,-0.02089 -0.21107,0.08446 -0.14837,0.147157 0.15985,0.159853 0.27892,0.01149 0.43519,-0.05105 0.34727,-0.138965 z m 2.11667,0 c -0.0879,-0.08792 -0.31613,-0.09732 -0.50712,-0.02089 -0.21107,0.08446 -0.14838,0.147157 0.15985,0.159853 0.27891,0.01149 0.43518,-0.05105 0.34727,-0.138965 z m 12.69999,0 c -0.0879,-0.08792 -0.31612,-0.09732 -0.50711,-0.02089 -0.21107,0.08446 -0.14838,0.147157 0.15985,0.159853 0.27891,0.01149 0.43518,-0.05105 0.34726,-0.138965 z m 2.11667,0 c -0.0879,-0.08792 -0.31612,-0.09732 -0.50712,-0.02089 -0.21106,0.08446 -0.14837,0.147157 0.15986,0.159853 0.27891,0.01149 0.43518,-0.05105 0.34726,-0.138965 z m -23.93928,-0.279959 c -0.1819,-0.0734 -0.47956,-0.0734 -0.66146,0 -0.1819,0.0734 -0.0331,0.133452 0.33073,0.133452 0.3638,0 0.51263,-0.06005 0.33073,-0.133452 z m 1.32292,0 c -0.1819,-0.0734 -0.47956,-0.0734 -0.66146,0 -0.1819,0.0734 -0.0331,0.133452 0.33073,0.133452 0.3638,0 0.51263,-0.06005 0.33073,-0.133452 z m 13.49375,0 c -0.1819,-0.0734 -0.47956,-0.0734 -0.66146,0 -0.1819,0.0734 -0.0331,0.133452 0.33073,0.133452 0.3638,0 0.51263,-0.06005 0.33073,-0.133452 z m 1.32291,0 c -0.1819,-0.0734 -0.47955,-0.0734 -0.66145,0 -0.1819,0.0734 -0.0331,0.133452 0.33073,0.133452 0.3638,0 0.51263,-0.06005 0.33072,-0.133452 z M 160.76906,13.1804 c 2.59461,-0.720594 2.20226,-3.5105281 -0.54553,-3.8790831 -2.02322,-0.271371 -3.48157,0.565439 -3.48157,1.9977501 0,0.855428 0.6512,1.554097 1.75751,1.885628 1.02971,0.308576 1.14382,0.308361 2.26959,-0.0043 z m 15.02527,-0.152351 c 2.54183,-1.01704 1.88266,-3.4620311 -1.00825,-3.7398111 -2.4096,-0.231532 -4.10678,1.3609001 -3.01732,2.8310991 0.4527,0.610912 1.79066,1.284003 2.62878,1.322471 0.17896,0.0082 0.80751,-0.177978 1.39679,-0.413759 z M 154.3378,12.455891 c 1.94359,-1.449639 0.24248,-3.7397471 -2.54456,-3.4256071 -1.40544,0.158414 -2.45961,1.0371641 -2.45961,2.0503201 0,1.824566 3.21659,2.708573 5.00417,1.375287 z m 14.81667,0.0019 c 0.97164,-0.722031 1.03406,-1.879551 0.14634,-2.7135241 -0.57534,-0.540498 -0.96164,-0.653129 -2.2401,-0.653129 -1.27085,0 -1.66597,0.113772 -2.22764,0.641433 -2.24617,2.1101621 1.7542,4.6329301 4.3214,2.7252221 z m 4.44917,-3.6587991 c -0.0879,-0.08792 -0.31613,-0.09732 -0.50712,-0.02089 -0.21107,0.08446 -0.14837,0.147157 0.15985,0.159853 0.27892,0.01149 0.43519,-0.05105 0.34727,-0.138963 z m -21.96042,-0.264603 c -0.0879,-0.08792 -0.31612,-0.09732 -0.50712,-0.02089 -0.21106,0.08446 -0.14837,0.147156 0.15986,0.159852 0.27891,0.01149 0.43518,-0.05105 0.34726,-0.138964 z m 1.85209,0 c -0.0879,-0.08792 -0.31613,-0.09732 -0.50712,-0.02089 -0.21107,0.08446 -0.14838,0.147156 0.15985,0.159852 0.27891,0.01149 0.43518,-0.05105 0.34727,-0.138964 z m 12.96458,0 c -0.0879,-0.08792 -0.31613,-0.09732 -0.50712,-0.02089 -0.21107,0.08446 -0.14837,0.147156 0.15985,0.159852 0.27892,0.01149 0.43519,-0.05105 0.34727,-0.138964 z m 1.85208,0 c -0.0879,-0.08792 -0.31612,-0.09732 -0.50712,-0.02089 -0.21106,0.08446 -0.14837,0.147156 0.15986,0.159852 0.27891,0.01149 0.43518,-0.05105 0.34726,-0.138964 z"
       id="path1780" />
  </g>
  <g
     inkscape:groupmode="layer"
     id="layer3"
     inkscape:label="Layer 3" />
  <g
     inkscape:groupmode="layer"
     id="layer4"
     inkscape:label="Layer 4" />
</svg>
