<?xml version="1.0" encoding="UTF-8" standalone="no"?>
<!-- Created with Inkscape (http://www.inkscape.org/) -->

<svg
   width="210mm"
   height="297mm"
   viewBox="0 0 210 297"
   version="1.1"
   id="svg5"
   inkscape:version="1.1.2 (0a00cf5339, 2022-02-04, custom)"
   sodipodi:docname="USB mic Iicon.svg"
   xmlns:inkscape="http://www.inkscape.org/namespaces/inkscape"
   xmlns:sodipodi="http://sodipodi.sourceforge.net/DTD/sodipodi-0.dtd"
   xmlns="http://www.w3.org/2000/svg"
   xmlns:svg="http://www.w3.org/2000/svg">
  <sodipodi:namedview
     id="namedview7"
     pagecolor="#ffffff"
     bordercolor="#666666"
     borderopacity="1.0"
     inkscape:pageshadow="2"
     inkscape:pageopacity="0.0"
     inkscape:pagecheckerboard="0"
     inkscape:document-units="mm"
     showgrid="false"
     inkscape:zoom="0.41053452"
     inkscape:cx="410.44052"
     inkscape:cy="166.85564"
     inkscape:window-width="1680"
     inkscape:window-height="956"
     inkscape:window-x="-11"
     inkscape:window-y="-11"
     inkscape:window-maximized="1"
     inkscape:current-layer="layer1" />
  <defs
     id="defs2">
    <inkscape:path-effect
       effect="bend_path"
       id="path-effect1270"
       is_visible="true"
       lpeversion="1"
       bendpath="M 19.791059,203.37528 H 31.01584"
       prop_scale="1"
       scale_y_rel="false"
       vertical="false"
       hide_knot="false" />
    <inkscape:path-effect
       effect="spiro"
       id="path-effect1642"
       is_visible="true"
       lpeversion="1" />
    <inkscape:path-effect
       effect="spiro"
       id="path-effect1525"
       is_visible="true"
       lpeversion="1" />
    <inkscape:path-effect
       effect="skeletal"
       id="path-effect1521"
       is_visible="true"
       lpeversion="1"
       pattern="m 105.24064,180.3497 a 9.3049065,7.6477915 0 0 1 -9.304903,7.6478 9.3049065,7.6477915 0 0 1 -9.304906,-7.6478 9.3049065,7.6477915 0 0 1 9.304906,-7.64779 9.3049065,7.6477915 0 0 1 9.304903,7.64779 z m 3.42813,-0.62008 a 12.855461,11.368339 0 0 1 -12.855465,11.36834 12.855461,11.368339 0 0 1 -12.855461,-11.36834 12.855461,11.368339 0 0 1 12.855461,-11.36834 12.855461,11.368339 0 0 1 12.855465,11.36834 z"
       copytype="repeated_stretched"
       prop_scale="1"
       scale_y_rel="false"
       spacing="0"
       normal_offset="0"
       tang_offset="0"
       prop_units="false"
       vertical_pattern="false"
       hide_knot="false"
       fuse_tolerance="0" />
  </defs>
  <g
     inkscape:label="Layer 1"
     inkscape:groupmode="layer"
     id="layer1">
    <path
       style="display:inline;fill:#373e48;fill-opacity:1;fill-rule:evenodd;stroke:#000000;stroke-width:0.916023;stroke-linecap:round;stroke-linejoin:round;paint-order:stroke markers fill"
       d=""
       id="path4334"
       transform="scale(0.26458333)" />
    <path
       id="path853"
       style="fill:none;fill-rule:evenodd;stroke:#000000;stroke-width:0.441254;stroke-linecap:round;stroke-linejoin:round;paint-order:stroke markers fill"
       d="m 56.841049,117.10895 a 10.839045,19.911687 0 0 0 -10.838943,19.9115 10.839045,19.911687 0 0 0 0.02909,1.42821 c -1.70025,-1.20574 -3.921588,-0.70672 -5.110675,1.21007 L 9.3419661,190.56317 c -1.253036,2.01988 -0.870802,4.82524 0.8570399,6.29007 l 5.581054,4.73124 c 1.727844,1.46482 4.127592,1.01798 5.380629,-1.00191 l 29.38097,-47.36212 a 10.839045,19.911687 0 0 0 6.299392,3.71192 10.839045,19.911687 0 0 0 4.029087,-1.43898 l 27.971251,45.08918 c 1.253037,2.01989 3.652785,2.46673 5.380628,1.00191 l 5.581043,-4.73124 c 1.72785,-1.46483 2.11009,-4.27019 0.85705,-6.29007 L 69.081553,139.65873 c -0.384321,-0.61952 -0.876664,-1.09077 -1.424262,-1.40456 a 10.839045,19.911687 0 0 0 0.0227,-1.23372 10.839045,19.911687 0 0 0 -10.838944,-19.9115 z m 2.257314,-31.986254 c 0.605728,0 1.093372,0.49249 1.093372,1.10424 v 4.8771 c 0,0.61176 -0.487644,1.10426 -1.093372,1.10426 -0.605735,0 -1.093379,-0.4925 -1.093379,-1.10426 v -4.8771 c 0,-0.61175 0.487644,-1.10424 1.093379,-1.10424 z m 5.46688,5.65022 a 5.2846498,5.7973074 0 0 1 -5.284647,5.79731 5.2846498,5.7973074 0 0 1 -5.284647,-5.79731 5.2846498,5.7973074 0 0 1 5.284647,-5.79731 5.2846498,5.7973074 0 0 1 5.284647,5.79731 z m -6.6921,-27.10119 a 1.3031872,1.4706069 0 0 1 -1.30318,1.4706 1.3031872,1.4706069 0 0 1 -1.303194,-1.4706 1.3031872,1.4706069 0 0 1 1.303194,-1.47061 1.3031872,1.4706069 0 0 1 1.30318,1.47061 z m 4.06595,10.76695 a 4.3787089,4.6744297 0 0 1 -4.378706,4.67443 4.3787089,4.6744297 0 0 1 -4.378711,-4.67443 4.3787089,4.6744297 0 0 1 4.378711,-4.67444 4.3787089,4.6744297 0 0 1 4.378706,4.67444 z M 42.614982,58.629646 h 29.890804 c 1.654494,0 2.98645,1.34203 2.98645,3.00904 V 114.4449 c 0,1.667 -1.331956,3.00904 -2.98645,3.00904 H 42.614982 c -1.654499,0 -2.986458,-1.34204 -2.986458,-3.00904 V 61.638686 c 0,-1.66701 1.331959,-3.00904 2.986458,-3.00904 z M 41.539108,4.0673174 h 33.81489 c 1.198619,0 2.163576,0.957009 2.163576,2.14576 V 56.528706 c 0,1.18875 -0.964957,2.14577 -2.163576,2.14577 h -33.81489 c -1.198619,0 -2.163574,-0.95702 -2.163574,-2.14577 V 6.2130774 c 0,-1.188751 0.964955,-2.14576 2.163574,-2.14576 z m 3.172212,4.494416 h 28.527874 c 1.198613,0 2.16357,0.957009 2.16357,2.1457606 v 43.424192 c 0,1.18875 -0.964957,2.14576 -2.16357,2.14576 H 44.71132 c -1.198619,0 -2.163576,-0.95701 -2.163576,-2.14576 V 10.707494 c 0,-1.1887516 0.964957,-2.1457606 2.163576,-2.1457606 z M 74.023991,29.453615 a 3.2280604,2.3022698 0 0 1 -3.228062,2.302267 3.2280604,2.3022698 0 0 1 -3.228062,-2.302267 3.2280604,2.3022698 0 0 1 3.228062,-2.302256 3.2280604,2.3022698 0 0 1 3.228062,2.302256 z m 0.467888,-0.101588 a 3.6959483,2.7809908 0 0 1 -3.69595,2.780985 3.6959483,2.7809908 0 0 1 -3.69595,-2.780985 3.6959483,2.7809908 0 0 1 3.69595,-2.780976 3.6959483,2.7809908 0 0 1 3.69595,2.780976 z m -7.823378,-0.126989 a 3.2280604,2.3022698 0 0 1 -3.228062,2.302268 3.2280604,2.3022698 0 0 1 -3.228056,-2.302268 3.2280604,2.3022698 0 0 1 3.228056,-2.302256 3.2280604,2.3022698 0 0 1 3.228062,2.302256 z m 0.467888,-0.101584 a 3.6959483,2.7809908 0 0 1 -3.69595,2.780985 3.6959483,2.7809908 0 0 1 -3.69595,-2.780985 3.6959483,2.7809908 0 0 1 3.69595,-2.780977 3.6959483,2.7809908 0 0 1 3.69595,2.780977 z m 6.450639,-5.246593 a 3.2280604,2.3022698 0 0 1 -3.228062,2.302256 3.2280604,2.3022698 0 0 1 -3.228055,-2.302256 3.2280604,2.3022698 0 0 1 3.228055,-2.302255 3.2280604,2.3022698 0 0 1 3.228062,2.302255 z m 0.467888,-0.101588 a 3.6959483,2.7809908 0 0 1 -3.69595,2.780977 3.6959483,2.7809908 0 0 1 -3.69595,-2.780977 3.6959483,2.7809908 0 0 1 3.69595,-2.780974 3.6959483,2.7809908 0 0 1 3.69595,2.780974 z m -7.823378,-0.126985 a 3.2280604,2.3022698 0 0 1 -3.228056,2.302256 3.2280604,2.3022698 0 0 1 -3.228069,-2.302256 3.2280604,2.3022698 0 0 1 3.228069,-2.302256 3.2280604,2.3022698 0 0 1 3.228056,2.302256 z M 66.699432,23.5467 a 3.6959483,2.7809908 0 0 1 -3.69595,2.780973 3.6959483,2.7809908 0 0 1 -3.695949,-2.780973 3.6959483,2.7809908 0 0 1 3.695949,-2.780976 3.6959483,2.7809908 0 0 1 3.69595,2.780976 z m 6.99839,-5.194383 a 3.2280604,2.3022698 0 0 1 -3.228055,2.302255 3.2280604,2.3022698 0 0 1 -3.228062,-2.302255 3.2280604,2.3022698 0 0 1 3.228062,-2.302257 3.2280604,2.3022698 0 0 1 3.228055,2.302257 z m 0.467895,-0.101588 a 3.6959483,2.7809908 0 0 1 -3.69595,2.780974 3.6959483,2.7809908 0 0 1 -3.69595,-2.780974 3.6959483,2.7809908 0 0 1 3.69595,-2.780975 3.6959483,2.7809908 0 0 1 3.69595,2.780975 z m -7.823372,-0.126987 a 3.2280604,2.3022698 0 0 1 -3.228062,2.302259 3.2280604,2.3022698 0 0 1 -3.228055,-2.302259 3.2280604,2.3022698 0 0 1 3.228055,-2.302256 3.2280604,2.3022698 0 0 1 3.228062,2.302256 z m 0.467888,-0.101586 a 3.6959483,2.7809908 0 0 1 -3.69595,2.780974 3.6959483,2.7809908 0 0 1 -3.69595,-2.780974 3.6959483,2.7809908 0 0 1 3.69595,-2.780974 3.6959483,2.7809908 0 0 1 3.69595,2.780974 z m 6.450633,-5.246592 a 3.2280604,2.3022698 0 0 1 -3.228055,2.302256 3.2280604,2.3022698 0 0 1 -3.228069,-2.302256 3.2280604,2.3022698 0 0 1 3.228069,-2.30227 3.2280604,2.3022698 0 0 1 3.228055,2.30227 z m 0.467888,-0.101589 a 3.6959483,2.7809908 0 0 1 -3.695943,2.780976 3.6959483,2.7809908 0 0 1 -3.69595,-2.780976 3.6959483,2.7809908 0 0 1 3.69595,-2.7809896 3.6959483,2.7809908 0 0 1 3.695943,2.7809896 z m -7.823372,-0.126986 a 3.2280604,2.3022698 0 0 1 -3.228062,2.302257 3.2280604,2.3022698 0 0 1 -3.228055,-2.302257 3.2280604,2.3022698 0 0 1 3.228055,-2.30227 3.2280604,2.3022698 0 0 1 3.228062,2.30227 z m 0.467895,-0.101588 a 3.6959483,2.7809908 0 0 1 -3.695957,2.780976 3.6959483,2.7809908 0 0 1 -3.695943,-2.780976 3.6959483,2.7809908 0 0 1 3.695943,-2.7809906 3.6959483,2.7809908 0 0 1 3.695957,2.7809906 z m 7.650714,39.256425 a 3.2280604,2.3022698 0 0 1 -3.228062,2.30227 3.2280604,2.3022698 0 0 1 -3.228062,-2.30227 3.2280604,2.3022698 0 0 1 3.228062,-2.30227 3.2280604,2.3022698 0 0 1 3.228062,2.30227 z m 0.467888,-0.10159 a 3.6959483,2.7809908 0 0 1 -3.69595,2.781 3.6959483,2.7809908 0 0 1 -3.69595,-2.781 3.6959483,2.7809908 0 0 1 3.69595,-2.78099 3.6959483,2.7809908 0 0 1 3.69595,2.78099 z m -7.823378,-0.12699 a 3.2280604,2.3022698 0 0 1 -3.228062,2.30227 3.2280604,2.3022698 0 0 1 -3.228056,-2.30227 3.2280604,2.3022698 0 0 1 3.228056,-2.30226 3.2280604,2.3022698 0 0 1 3.228062,2.30226 z m 0.467888,-0.10158 a 3.6959483,2.7809908 0 0 1 -3.69595,2.78099 3.6959483,2.7809908 0 0 1 -3.69595,-2.78099 3.6959483,2.7809908 0 0 1 3.69595,-2.78099 3.6959483,2.7809908 0 0 1 3.69595,2.78099 z m 6.450639,-5.246627 a 3.2280604,2.3022698 0 0 1 -3.228062,2.302277 3.2280604,2.3022698 0 0 1 -3.228055,-2.302277 3.2280604,2.3022698 0 0 1 3.228055,-2.302261 3.2280604,2.3022698 0 0 1 3.228062,2.302261 z m 0.467888,-0.101586 a 3.6959483,2.7809908 0 0 1 -3.69595,2.780993 3.6959483,2.7809908 0 0 1 -3.69595,-2.780993 3.6959483,2.7809908 0 0 1 3.69595,-2.780989 3.6959483,2.7809908 0 0 1 3.69595,2.780989 z m -7.823378,-0.126985 a 3.2280604,2.3022698 0 0 1 -3.228056,2.302268 3.2280604,2.3022698 0 0 1 -3.228069,-2.302268 3.2280604,2.3022698 0 0 1 3.228069,-2.302269 3.2280604,2.3022698 0 0 1 3.228056,2.302269 z m 0.467894,-0.101586 a 3.6959483,2.7809908 0 0 1 -3.69595,2.780984 3.6959483,2.7809908 0 0 1 -3.695949,-2.780984 3.6959483,2.7809908 0 0 1 3.695949,-2.780989 3.6959483,2.7809908 0 0 1 3.69595,2.780989 z m 6.99839,-5.194409 a 3.2280604,2.3022698 0 0 1 -3.228055,2.302261 3.2280604,2.3022698 0 0 1 -3.228062,-2.302261 3.2280604,2.3022698 0 0 1 3.228062,-2.302277 3.2280604,2.3022698 0 0 1 3.228055,2.302277 z m 0.467895,-0.101594 a 3.6959483,2.7809908 0 0 1 -3.69595,2.780989 3.6959483,2.7809908 0 0 1 -3.69595,-2.780989 3.6959483,2.7809908 0 0 1 3.69595,-2.780988 3.6959483,2.7809908 0 0 1 3.69595,2.780988 z m -7.823372,-0.126984 a 3.2280604,2.3022698 0 0 1 -3.228062,2.302268 3.2280604,2.3022698 0 0 1 -3.228055,-2.302268 3.2280604,2.3022698 0 0 1 3.228055,-2.302269 3.2280604,2.3022698 0 0 1 3.228062,2.302269 z m 0.467888,-0.101586 a 3.6959483,2.7809908 0 0 1 -3.69595,2.780988 3.6959483,2.7809908 0 0 1 -3.69595,-2.780988 3.6959483,2.7809908 0 0 1 3.69595,-2.780989 3.6959483,2.7809908 0 0 1 3.69595,2.780989 z m 6.450633,-5.246627 a 3.2280604,2.3022698 0 0 1 -3.228055,2.302269 3.2280604,2.3022698 0 0 1 -3.228069,-2.302269 3.2280604,2.3022698 0 0 1 3.228069,-2.302268 3.2280604,2.3022698 0 0 1 3.228055,2.302268 z m 0.467888,-0.101586 a 3.6959483,2.7809908 0 0 1 -3.695943,2.780989 3.6959483,2.7809908 0 0 1 -3.69595,-2.780989 3.6959483,2.7809908 0 0 1 3.69595,-2.78099 3.6959483,2.7809908 0 0 1 3.695943,2.78099 z m -7.823372,-0.126984 a 3.2280604,2.3022698 0 0 1 -3.228062,2.302268 3.2280604,2.3022698 0 0 1 -3.228055,-2.302268 3.2280604,2.3022698 0 0 1 3.228055,-2.302271 3.2280604,2.3022698 0 0 1 3.228062,2.302271 z m 0.467895,-0.101594 a 3.6959483,2.7809908 0 0 1 -3.695957,2.780996 3.6959483,2.7809908 0 0 1 -3.695943,-2.780996 3.6959483,2.7809908 0 0 1 3.695943,-2.78099 3.6959483,2.7809908 0 0 1 3.695957,2.78099 z M 59.2206,29.453615 a 3.2280604,2.3022698 0 0 1 -3.228055,2.302267 3.2280604,2.3022698 0 0 1 -3.228069,-2.302267 3.2280604,2.3022698 0 0 1 3.228069,-2.302256 3.2280604,2.3022698 0 0 1 3.228055,2.302256 z m 0.467888,-0.101588 a 3.6959483,2.7809908 0 0 1 -3.695943,2.780985 3.6959483,2.7809908 0 0 1 -3.695957,-2.780985 3.6959483,2.7809908 0 0 1 3.695957,-2.780976 3.6959483,2.7809908 0 0 1 3.695943,2.780976 z m -7.823379,-0.126989 a 3.2280604,2.3022698 0 0 1 -3.228062,2.302268 3.2280604,2.3022698 0 0 1 -3.228055,-2.302268 3.2280604,2.3022698 0 0 1 3.228055,-2.302256 3.2280604,2.3022698 0 0 1 3.228062,2.302256 z m 0.467895,-0.101584 a 3.6959483,2.7809908 0 0 1 -3.695957,2.780985 3.6959483,2.7809908 0 0 1 -3.695943,-2.780985 3.6959483,2.7809908 0 0 1 3.695943,-2.780977 3.6959483,2.7809908 0 0 1 3.695957,2.780977 z m 6.450633,-5.246593 a 3.2280604,2.3022698 0 0 1 -3.228055,2.302256 3.2280604,2.3022698 0 0 1 -3.228063,-2.302256 3.2280604,2.3022698 0 0 1 3.228063,-2.302255 3.2280604,2.3022698 0 0 1 3.228055,2.302255 z m 0.467894,-0.101588 a 3.6959483,2.7809908 0 0 1 -3.695949,2.780977 3.6959483,2.7809908 0 0 1 -3.69595,-2.780977 3.6959483,2.7809908 0 0 1 3.69595,-2.780974 3.6959483,2.7809908 0 0 1 3.695949,2.780974 z m -7.823378,-0.126985 a 3.2280604,2.3022698 0 0 1 -3.228062,2.302256 3.2280604,2.3022698 0 0 1 -3.228055,-2.302256 3.2280604,2.3022698 0 0 1 3.228055,-2.302256 3.2280604,2.3022698 0 0 1 3.228062,2.302256 z M 51.896041,23.5467 a 3.6959483,2.7809908 0 0 1 -3.69595,2.780973 3.6959483,2.7809908 0 0 1 -3.69595,-2.780973 3.6959483,2.7809908 0 0 1 3.69595,-2.780976 3.6959483,2.7809908 0 0 1 3.69595,2.780976 z m 6.998397,-5.194383 a 3.2280604,2.3022698 0 0 1 -3.228056,2.302255 3.2280604,2.3022698 0 0 1 -3.228069,-2.302255 3.2280604,2.3022698 0 0 1 3.228069,-2.302257 3.2280604,2.3022698 0 0 1 3.228056,2.302257 z m 0.467887,-0.101588 a 3.6959483,2.7809908 0 0 1 -3.695943,2.780974 3.6959483,2.7809908 0 0 1 -3.695957,-2.780974 3.6959483,2.7809908 0 0 1 3.695957,-2.780975 3.6959483,2.7809908 0 0 1 3.695943,2.780975 z m -7.823371,-0.126987 a 3.2280604,2.3022698 0 0 1 -3.228062,2.302259 3.2280604,2.3022698 0 0 1 -3.228055,-2.302259 3.2280604,2.3022698 0 0 1 3.228055,-2.302256 3.2280604,2.3022698 0 0 1 3.228062,2.302256 z m 0.467895,-0.101586 a 3.6959483,2.7809908 0 0 1 -3.695957,2.780974 3.6959483,2.7809908 0 0 1 -3.69595,-2.780974 3.6959483,2.7809908 0 0 1 3.69595,-2.780974 3.6959483,2.7809908 0 0 1 3.695957,2.780974 z m 6.450626,-5.246592 a 3.2280604,2.3022698 0 0 1 -3.228056,2.302256 3.2280604,2.3022698 0 0 1 -3.228062,-2.302256 3.2280604,2.3022698 0 0 1 3.228062,-2.30227 3.2280604,2.3022698 0 0 1 3.228056,2.30227 z m 0.467887,-0.101589 a 3.6959483,2.7809908 0 0 1 -3.695943,2.780976 3.6959483,2.7809908 0 0 1 -3.69595,-2.780976 3.6959483,2.7809908 0 0 1 3.69595,-2.7809896 3.6959483,2.7809908 0 0 1 3.695943,2.7809896 z m -7.823364,-0.126986 a 3.2280604,2.3022698 0 0 1 -3.228062,2.302257 3.2280604,2.3022698 0 0 1 -3.228056,-2.302257 3.2280604,2.3022698 0 0 1 3.228056,-2.30227 3.2280604,2.3022698 0 0 1 3.228062,2.30227 z m 0.467888,-0.101588 a 3.6959483,2.7809908 0 0 1 -3.69595,2.780976 3.6959483,2.7809908 0 0 1 -3.69595,-2.780976 3.6959483,2.7809908 0 0 1 3.69595,-2.7809906 3.6959483,2.7809908 0 0 1 3.69595,2.7809906 z M 59.2206,51.701826 a 3.2280604,2.3022698 0 0 1 -3.228055,2.30227 3.2280604,2.3022698 0 0 1 -3.228069,-2.30227 3.2280604,2.3022698 0 0 1 3.228069,-2.30227 3.2280604,2.3022698 0 0 1 3.228055,2.30227 z m 0.467888,-0.10159 a 3.6959483,2.7809908 0 0 1 -3.695943,2.781 3.6959483,2.7809908 0 0 1 -3.695957,-2.781 3.6959483,2.7809908 0 0 1 3.695957,-2.78099 3.6959483,2.7809908 0 0 1 3.695943,2.78099 z m -7.823379,-0.12699 a 3.2280604,2.3022698 0 0 1 -3.228062,2.30227 3.2280604,2.3022698 0 0 1 -3.228055,-2.30227 3.2280604,2.3022698 0 0 1 3.228055,-2.30226 3.2280604,2.3022698 0 0 1 3.228062,2.30226 z m 0.467895,-0.10158 a 3.6959483,2.7809908 0 0 1 -3.695957,2.78099 3.6959483,2.7809908 0 0 1 -3.695943,-2.78099 3.6959483,2.7809908 0 0 1 3.695943,-2.78099 3.6959483,2.7809908 0 0 1 3.695957,2.78099 z m 6.450633,-5.246627 a 3.2280604,2.3022698 0 0 1 -3.228055,2.302277 3.2280604,2.3022698 0 0 1 -3.228063,-2.302277 3.2280604,2.3022698 0 0 1 3.228063,-2.302261 3.2280604,2.3022698 0 0 1 3.228055,2.302261 z m 0.467894,-0.101586 a 3.6959483,2.7809908 0 0 1 -3.695949,2.780993 3.6959483,2.7809908 0 0 1 -3.69595,-2.780993 3.6959483,2.7809908 0 0 1 3.69595,-2.780989 3.6959483,2.7809908 0 0 1 3.695949,2.780989 z m -7.823378,-0.126985 a 3.2280604,2.3022698 0 0 1 -3.228062,2.302268 3.2280604,2.3022698 0 0 1 -3.228055,-2.302268 3.2280604,2.3022698 0 0 1 3.228055,-2.302269 3.2280604,2.3022698 0 0 1 3.228062,2.302269 z m 0.467888,-0.101586 a 3.6959483,2.7809908 0 0 1 -3.69595,2.780984 3.6959483,2.7809908 0 0 1 -3.69595,-2.780984 3.6959483,2.7809908 0 0 1 3.69595,-2.780989 3.6959483,2.7809908 0 0 1 3.69595,2.780989 z m 6.998397,-5.194409 a 3.2280604,2.3022698 0 0 1 -3.228056,2.302261 3.2280604,2.3022698 0 0 1 -3.228069,-2.302261 3.2280604,2.3022698 0 0 1 3.228069,-2.302277 3.2280604,2.3022698 0 0 1 3.228056,2.302277 z m 0.467887,-0.101594 a 3.6959483,2.7809908 0 0 1 -3.695943,2.780989 3.6959483,2.7809908 0 0 1 -3.695957,-2.780989 3.6959483,2.7809908 0 0 1 3.695957,-2.780988 3.6959483,2.7809908 0 0 1 3.695943,2.780988 z m -7.823371,-0.126984 a 3.2280604,2.3022698 0 0 1 -3.228062,2.302268 3.2280604,2.3022698 0 0 1 -3.228055,-2.302268 3.2280604,2.3022698 0 0 1 3.228055,-2.302269 3.2280604,2.3022698 0 0 1 3.228062,2.302269 z m 0.467895,-0.101586 a 3.6959483,2.7809908 0 0 1 -3.695957,2.780988 3.6959483,2.7809908 0 0 1 -3.69595,-2.780988 3.6959483,2.7809908 0 0 1 3.69595,-2.780989 3.6959483,2.7809908 0 0 1 3.695957,2.780989 z m 6.450626,-5.246627 a 3.2280604,2.3022698 0 0 1 -3.228056,2.302269 3.2280604,2.3022698 0 0 1 -3.228062,-2.302269 3.2280604,2.3022698 0 0 1 3.228062,-2.302268 3.2280604,2.3022698 0 0 1 3.228056,2.302268 z m 0.467887,-0.101586 a 3.6959483,2.7809908 0 0 1 -3.695943,2.780989 3.6959483,2.7809908 0 0 1 -3.69595,-2.780989 3.6959483,2.7809908 0 0 1 3.69595,-2.78099 3.6959483,2.7809908 0 0 1 3.695943,2.78099 z m -7.823364,-0.126984 a 3.2280604,2.3022698 0 0 1 -3.228062,2.302268 3.2280604,2.3022698 0 0 1 -3.228056,-2.302268 3.2280604,2.3022698 0 0 1 3.228056,-2.302271 3.2280604,2.3022698 0 0 1 3.228062,2.302271 z m 0.467888,-0.101594 a 3.6959483,2.7809908 0 0 1 -3.69595,2.780996 3.6959483,2.7809908 0 0 1 -3.69595,-2.780996 3.6959483,2.7809908 0 0 1 3.69595,-2.78099 3.6959483,2.7809908 0 0 1 3.69595,2.78099 z" />
  </g>
  <g
     inkscape:groupmode="layer"
     id="layer2"
     inkscape:label="Layer 2" />
  <g
     inkscape:groupmode="layer"
     id="layer3"
     inkscape:label="Layer 3" />
  <g
     inkscape:groupmode="layer"
     id="layer4"
     inkscape:label="Layer 4" />
</svg>
