<?xml version="1.0" encoding="UTF-8" standalone="no"?>
<!-- Created with Inkscape (http://www.inkscape.org/) -->

<svg
   width="210mm"
   height="297mm"
   viewBox="0 0 210 297"
   version="1.1"
   id="svg5"
   inkscape:version="1.1.2 (0a00cf5339, 2022-02-04, custom)"
   sodipodi:docname="clap plugin icon.svg"
   xmlns:inkscape="http://www.inkscape.org/namespaces/inkscape"
   xmlns:sodipodi="http://sodipodi.sourceforge.net/DTD/sodipodi-0.dtd"
   xmlns="http://www.w3.org/2000/svg"
   xmlns:svg="http://www.w3.org/2000/svg">
  <sodipodi:namedview
     id="namedview7"
     pagecolor="#ffffff"
     bordercolor="#666666"
     borderopacity="1.0"
     inkscape:pageshadow="2"
     inkscape:pageopacity="0.0"
     inkscape:pagecheckerboard="0"
     inkscape:document-units="mm"
     showgrid="false"
     inkscape:zoom="0.8117387"
     inkscape:cx="164.46179"
     inkscape:cy="885.13705"
     inkscape:window-width="1680"
     inkscape:window-height="956"
     inkscape:window-x="-11"
     inkscape:window-y="-11"
     inkscape:window-maximized="1"
     inkscape:current-layer="layer2" />
  <defs
     id="defs2">
    <clipPath
       clipPathUnits="userSpaceOnUse"
       id="clipPath2998">
      <path
         id="path3000"
         style="fill:none;fill-rule:evenodd;stroke:#000000;stroke-width:0.791001;stroke-linecap:round;stroke-linejoin:round;paint-order:stroke markers fill"
         d="M 20.135722,52.538913 V 201.70345 H 173.03336 V 52.538913 Z m 106.176978,47.116503 -5.3e-4,0.0011 0.002,0.0016 c 0.77104,0.0038 1.62442,0.656534 2.12235,2.137844 0.0209,0.0622 0.0382,0.12524 0.0584,0.18759 0.28702,-0.002 0.52318,-0.0142 0.79065,-0.0212 0.0671,-0.0191 0.13564,-0.03 0.20413,-0.03 0.0557,0 0.11145,0.007 0.16639,0.0196 0.12317,-0.005 0.28173,-0.004 0.39171,-0.0104 -0.065,-0.20824 -0.0716,-0.3652 0.12764,-0.33848 1.25539,0.16832 0.84564,0.28101 -0.12764,0.33848 0.0395,0.12654 0.0955,0.26748 0.1447,0.40256 0.16213,0.23929 0.26871,0.58175 0.26871,1.03043 v 1.09295 1.00821 0.94723 0.25735 c 0,0.28231 -0.0428,0.52196 -0.1142,0.7214 0.0169,0.20285 0.0193,0.40283 0.004,0.60927 -0.007,0.0554 -0.01,0.11003 -0.0103,0.16226 0.28411,0.34659 0.14011,0.48606 -0.16537,0.54312 v 1.07384 0.0357 c 0,1.93639 -0.98476,2.89715 -1.96267,2.88406 0.25128,0.7619 0.0214,0.83189 -0.43821,0.59531 0.0695,0.23155 0.13486,0.46502 0.21342,0.69299 0.15593,0.45265 0.32497,0.85381 0.50953,1.27692 1.11605,-0.003 0.85691,0.12126 0.0631,0.30541 -0.16288,2.44178 0.26548,1.93173 -2.29805,1.52652 0.01,0.0504 0.0181,0.0923 0.0279,0.14831 5.3e-4,0.003 10e-4,0.005 10e-4,0.008 -0.0392,-0.0556 -0.0778,-0.11163 -0.11679,-0.16743 -0.14119,-0.0217 -0.32438,-0.038 -0.48369,-0.0584 -0.37413,1.47557 -0.91977,4.60395 -2.43448,2.64687 -0.0481,-0.0621 -0.0961,-0.12445 -0.14418,-0.18656 -0.50292,-0.71726 -0.96855,-1.49233 -1.56114,-2.14095 -0.34228,-0.37463 -0.72847,-0.70779 -1.0728,-1.08055 -0.20428,-0.22114 -0.39518,-0.45378 -0.58911,-0.6842 v 2.03864 c 0,3.84678 -3.88556,3.84678 -3.88556,0 v -2.26963 -0.57413 c -0.15163,0.0656 -0.32113,-0.0167 -0.50487,-0.3514 0.16398,0.0346 0.3385,0.0137 0.50436,-0.0641 v -0.8847 c -0.29789,-0.0369 -0.63344,-0.0942 -0.88677,-0.0775 h -0.001 c -0.067,-0.23954 -0.13488,-0.51575 -0.20412,-0.83147 -0.0419,0.0198 -0.0575,0.10434 -0.092,0.28473 -0.0106,0.0553 -0.0182,0.10916 -0.0248,0.16175 -0.0335,-0.0346 -0.0841,-0.0863 -0.13333,-0.13643 0.0389,0.0477 0.0823,0.10204 0.13022,0.16382 10e-4,-0.009 0.002,-0.0183 0.003,-0.0274 0.19074,0.19681 0.15134,0.16571 0.0382,0.0801 -0.0149,-0.0195 -0.0273,-0.0346 -0.0413,-0.0527 -0.004,0.0358 -0.007,0.0714 -0.01,0.10593 2.6e-4,5.3e-4 8e-4,2.7e-4 0.001,0.002 -5e-5,7.9e-4 5e-5,0.001 0,0.002 0.007,0.011 0.0139,0.0222 0.0212,0.0331 0.0357,0.0536 0.13533,0.21317 0.12093,0.15038 -0.009,-0.0388 -0.031,-0.0721 -0.0563,-0.10387 0.0487,0.0599 0.0985,0.11882 0.14625,0.17932 v 5.2e-4 c -0.0146,0.003 -0.0291,0.005 -0.0429,0.008 -0.0837,0.0199 0.22687,0.25668 0.18087,0.18397 -0.0421,-0.0666 -0.0886,-0.12983 -0.13746,-0.19172 0.0318,-0.005 0.0656,-0.009 0.10077,-0.0114 0.13189,0.47149 0.25869,0.80275 0.37982,1.02423 -0.41714,-0.0897 -0.76276,-0.53209 -0.71365,-1.27331 -2.6e-4,-5.3e-4 -7.9e-4,-0.001 -10e-4,-0.002 5e-5,-7.9e-4 -5e-5,-5.2e-4 0,-0.002 -0.0632,-0.0978 -0.12176,-0.19921 -0.17983,-0.30024 -0.009,-0.0163 -0.0332,-0.0662 -0.0202,-0.0527 0.0361,0.0367 0.0508,0.0523 0.0806,0.0827 -0.31568,-0.38633 -0.35294,-0.35457 -0.35708,-0.57413 -2.3e-4,-2.6e-4 -2.3e-4,-7.9e-4 -5.3e-4,-10e-4 h 5.3e-4 c 1e-5,5.2e-4 -1e-5,5.2e-4 0,10e-4 0.009,0.0115 0.017,0.023 0.0258,0.0346 0.0505,0.0429 0.1013,0.0854 0.15192,0.12816 0.003,0.005 0.006,0.0104 0.009,0.0155 0.021,0.0353 0.12873,0.10323 0.0982,0.076 -0.0347,-0.0311 -0.0704,-0.0614 -0.10594,-0.0915 -0.0722,-0.12198 -0.13732,-0.2496 -0.18035,-0.38448 10e-4,0.0945 -2.7e-4,0.16614 0.002,0.22015 -0.0806,-0.10588 -0.16372,-0.20982 -0.23926,-0.31936 -0.0163,-0.0236 -0.0614,-0.0836 -0.0331,-0.0796 0.0373,0.005 0.0495,0.0568 0.0744,0.0847 l -0.0904,-0.185 -5.3e-4,-0.001 c 10e-4,0.009 0.003,0.0173 0.003,0.0248 0.002,0.14129 -0.14169,-0.24454 -0.21239,-0.3669 -0.11735,-0.37278 -0.049,-0.12508 -0.0284,-0.339 l -5.3e-4,-5.2e-4 c 4e-5,-2.6e-4 -4e-5,-0.001 0,-0.002 -0.13154,-0.1744 -0.42516,-0.61764 -0.41393,-0.80099 0.0395,0.0663 0.10667,0.25889 0.11627,0.18604 0.0103,-0.0779 -0.10008,-0.28218 -0.11576,-0.20516 -7.9e-4,0.004 -7.9e-4,0.009 -0.002,0.0134 -0.0532,-0.18274 -0.11851,-0.36245 -0.15968,-0.54828 -0.0124,-0.0558 0,-0.11394 0,-0.17105 v -1.25729 h -5.3e-4 c 0,-0.9617 0.48579,-1.4428 0.97152,-1.4428 0.48573,0 0.97151,0.4811 0.97151,1.4428 v 1.25677 c 0,0.0136 0.001,0.0342 0.003,0.0558 -0.0112,-0.0239 -0.0228,-0.0475 -0.0336,-0.0708 9e-5,5.3e-4 0,5.3e-4 0,10e-4 0.002,0.0152 0.002,0.0303 0.004,0.0455 0.01,0.008 0.0195,0.016 0.0289,0.0248 v 5.3e-4 c 0,0 0,5.3e-4 0,5.3e-4 0.12179,0.11401 0.23046,0.343 0.49919,0.84129 0.0529,0.098 0.0234,0.21864 -5.3e-4,0.3328 -0.002,-0.005 -0.005,-0.01 -0.007,-0.0145 0.004,0.0121 0.005,0.0158 0.008,0.0253 l 5.3e-4,-5.2e-4 c 2.6e-4,-0.002 7.9e-4,-0.003 0.002,-0.005 0.11182,0.21855 0.24533,0.51102 0.12558,0.20722 0.001,-0.005 -2.7e-4,-0.0205 0.004,-0.0165 0.0938,0.094 0.16552,0.16721 0.22376,0.23978 v -1.43764 c 0,-0.17072 0.0102,-0.33069 0.0248,-0.48627 -1.38377,-1.76377 -0.62092,-3.31774 0.90899,-3.28197 0.32141,0.008 0.6766,0.0859 1.05213,0.24649 -0.5165,-1.75798 0.31401,-2.86784 1.3994,-2.88561 l 5.3e-4,-10e-4 c 0.82241,-0.0135 1.78813,0.59913 2.41794,2.02933 0.57543,1.30674 1.27008,2.66301 2.34456,3.6406 -0.009,-0.12866 -0.0183,-0.25735 -0.0274,-0.38602 -0.027,-0.3808 -0.031,-0.76412 -0.0811,-1.14257 -0.10591,-0.80053 -0.27229,-1.18357 -0.45527,-1.96164 -0.22357,-0.95068 -0.32533,-1.63681 -0.49868,-2.62877 h 0.001 c -0.3311,-1.89469 0.40672,-2.82722 1.3441,-2.81999 v -5.3e-4 c 0.21823,0.002 0.44758,0.0595 0.67645,0.16279 0.30879,-0.42688 0.74001,-0.661669 1.20303,-0.659391 z m -10.66602,11.187424 c -7.9e-4,0.003 -0.001,0.007 -0.002,0.0104 -0.0519,-0.10257 -0.0786,-0.15608 -0.0966,-0.19172 0.0189,0.0216 0.0523,0.0815 0.0904,0.15503 -0.0346,-0.1087 -0.10088,-0.30564 -0.13953,-0.31988 l -10e-4,5.3e-4 c -0.0387,-0.0142 -0.0496,0.15421 0.0269,0.77721 0.0136,0.1106 0.0696,-0.14853 0.0971,-0.30179 0.0679,0.17884 0.14422,0.33574 0.1173,0.22325 -0.0218,-0.0913 -0.0618,-0.20299 -0.10232,-0.30593 -0.001,0.006 -0.002,0.0116 -0.003,0.0171 -0.003,0.016 -0.008,0.0428 -0.0124,0.0651 -0.041,-0.10815 -0.0787,-0.22443 -0.0894,-0.29352 -0.003,-0.0213 -5.3e-4,-0.0296 0.005,-0.0274 -0.0251,-0.0569 -0.0192,-0.047 0.008,0.006 -0.003,-0.003 -0.005,-0.005 -0.007,-0.006 0.0238,0.054 0.0616,0.14002 0.10025,0.23823 0.002,-0.0118 0.004,-0.0236 0.007,-0.0357 0.007,0.0144 0.006,0.0117 0.0139,0.0284 -0.002,-0.006 -0.008,-0.0246 -0.0124,-0.0393 z m -0.49971,-1.18494 h -5.3e-4 c 0.004,0.0695 0.0101,0.15617 -0.003,0.11472 -0.002,-0.007 -0.003,-0.0134 -0.005,-0.0202 -0.009,0.0275 -0.0222,0.10187 0.20722,0.38396 0.0593,0.0729 -0.0739,-0.21124 -0.19895,-0.47852 z m 15.19391,-1.48466 c -0.0325,-0.0396 -0.0707,-0.0814 -0.11472,-0.12661 -0.0337,-0.0346 -0.0394,-0.0403 -0.0506,-0.0517 v 0.13435 0.0352 c 0.24405,0.5745 0.15973,0.38168 0.16537,0.009 z m -65.424428,-7.398 c 0.957736,0 1.915139,0.93555 1.941999,2.805 0.295133,0.0198 0.589206,0.0569 0.863513,0.11162 0.04768,0.01 0.442712,0.40352 0.818555,0.78342 0.963893,0.40129 2.289876,0.95122 2.317689,0.96273 0.496242,0.21444 2.120157,0.83011 2.683039,1.31568 0.161825,0.13959 0.369557,0.27929 0.534334,0.43718 0.09672,-0.12199 0.233677,-0.2207 0.404627,-0.2837 0.242181,-1.34133 1.038577,-2.01749 1.843815,-2.01745 0.490006,3e-5 0.980263,0.25109 1.349272,0.74776 0.07733,-0.79297 0.516509,-1.19114 0.957564,-1.19114 0.48573,0 0.971519,0.4811 0.971519,1.4428 v 1.17874 c -0.01183,0.002 0.0039,0.5002 0,0.5979 -2.65e-4,0.01 7.93e-4,0.0589 0,0.0589 -0.0013,8e-5 -0.0028,-8e-5 -0.0041,0 -0.0011,0.008 -0.0021,0.0154 -0.0036,0.0227 0.0026,2.6e-4 0.0052,1.7e-4 0.0078,5.3e-4 0.05578,0.007 0,0.11268 0,0.16898 v 1.13688 c -0.08101,0.5336 -0.17221,0.7629 -0.457338,1.22111 -0.04574,0.0735 -0.07659,0.117 -0.09818,0.14366 -0.0062,0.0314 -0.01466,0.0757 -0.02326,0.13281 -0.0016,0.01 -0.0046,0.12166 -0.0062,0.13436 -5.29e-4,-0.006 -7.94e-4,-0.0301 -5.29e-4,-0.0827 1.64e-4,-0.0545 -0.0019,-0.10365 -0.0047,-0.14883 0.0075,-0.006 0.01844,-0.0157 0.03462,-0.0357 0.01495,-0.0761 0.01019,-0.0623 -0.03462,0.0346 -0.05086,-0.84337 -0.587261,-0.10765 -1.082106,0.4346 -0.113951,0.48673 -0.360289,0.79692 -0.645438,0.92035 -0.79094,1.00881 -2.209168,0.88104 -2.919201,-0.51159 -0.06075,0.0369 -0.122335,0.0724 -0.182936,0.10955 0.01611,-0.002 0.02901,-0.003 0.04548,-0.005 0.01971,-0.002 -0.07481,0.0233 -0.05788,0.0129 0.0042,-0.003 0.0083,-0.005 0.01241,-0.008 -0.813274,0.0976 -1.194221,0.13615 -1.827279,-0.1881 -0.117004,0.0378 -0.226187,0.0718 -0.352949,0.1204 -0.196641,0.0754 -0.381222,0.18149 -0.580845,0.24857 -0.343323,0.11543 -0.690031,0.22011 -1.036629,0.32556 -0.44663,1.78652 -2.120022,2.13656 -3.08405,1.03353 -1.413907,0.6121 -1.483953,1.34751 -2.504755,-1.73168 0.259924,-0.0555 0.586666,-0.16785 0.937927,-0.29817 -0.07089,-0.0738 -0.137266,-0.15093 -0.206706,-0.22583 -0.256429,0.16533 -0.536831,0.25064 -0.818038,0.25477 0.02813,0.0863 0.06046,0.18918 0.08682,0.26871 -0.415671,0.0887 -0.655296,0.0269 -0.557588,-0.33796 -0.800465,-0.25262 -1.493451,-1.19108 -1.493451,-2.81533 v -1.07694 c -0.17181,-0.24014 -0.285769,-0.59141 -0.285769,-1.05575 v -0.63872 -0.79581 -0.82579 -1.09296 c 0,-0.9617 0.485786,-1.44229 0.971516,-1.44229 0.132601,0 0.264848,0.0369 0.387572,0.10852 0.325853,-0.30598 0.710658,-0.4656 1.098127,-0.4656 z m 0.81752,10.14099 c 0.363226,0.37801 0.736116,0.74846 1.07332,1.14566 -0.110594,-0.32603 -0.180092,-0.70502 -0.196371,-1.13688 -0.06362,-0.0264 -0.06232,-0.0225 -0.142111,-0.0558 -0.0947,-0.0395 -0.201255,-0.066 -0.288353,-0.11886 -0.150077,0.0569 -0.301821,0.11219 -0.446485,0.16589 z m 13.860653,-3.1688 c -0.259342,-0.0309 -0.62181,0.0536 -0.963766,0.12454 0.470067,0.0975 0.900362,0.16889 0.963766,-0.12454 z m -0.963766,0.12454 c -0.113937,-0.0237 -0.229229,-0.0474 -0.343132,-0.0693 5.29e-4,0.0413 -0.0013,0.0894 -0.0016,0.13281 0.10876,-0.0158 0.225446,-0.0388 0.344681,-0.0636 z m 0.967383,-0.14728 c 0.0026,-0.0183 0.0041,-0.038 0.0041,-0.0589 0,-0.38669 -0.461801,-0.27687 -0.971519,-0.13385 0.342813,0.0962 0.7067,0.207 0.967383,0.19276 z m -0.967383,-0.19276 c -0.128185,-0.036 -0.253444,-0.0697 -0.368969,-0.094 0.005,0.0638 0.0122,0.12504 0.01498,0.19121 0.117507,-0.0308 0.236416,-0.0641 0.353984,-0.0972 z m 50.163341,-5.19864 c -0.0612,0.0141 -0.11519,0.0214 -0.17828,0.0372 0.0187,0.0644 0.0346,0.12913 0.0517,0.19378 0.0369,-0.0857 0.0793,-0.16273 0.12661,-0.23099 z m -57.988702,3.95376 c -0.05285,0.017 -0.10599,0.0331 -0.158647,0.0506 0.0086,0.009 0.0172,0.0178 0.02585,0.0264 0.02214,-0.004 0.04719,-0.01 0.06305,-0.008 0.04783,0.007 0.09447,0.0198 0.14211,0.0279 -0.02347,-0.0337 -0.04777,-0.0653 -0.07235,-0.0966 z m -0.187069,0.06 c -0.06951,0.024 -0.137289,0.0516 -0.199472,0.0904 -0.07282,0.0455 0.09647,-0.0382 0.225309,-0.0693 -0.0087,-0.007 -0.01728,-0.0141 -0.02585,-0.0212 z m 2.930054,0.61443 c 0.05126,0.0358 0.08944,0.074 0.132808,0.1111 0.119944,0.069 0.224084,0.1467 0.321945,0.22738 0.01048,-0.0192 0.02191,-0.038 0.0341,-0.0563 -0.179888,-0.10695 -0.347898,-0.2054 -0.488858,-0.28215 z m 2.284614,0.0966 c 0.268494,0.12498 0.482314,0.26635 0.667144,0.43253 0.04289,-0.0115 0.08506,-0.0262 0.128156,-0.0367 -0.257362,-0.17822 -0.51645,-0.33636 -0.7953,-0.39584 z m 0.7953,0.39584 c 0.331214,0.22938 0.66244,0.47765 1.031463,0.57258 v -0.10956 c 0,-0.0563 -0.05579,-0.16198 0,-0.16898 0.0024,-2.6e-4 0.0052,-2e-4 0.0078,-5.3e-4 -0.0016,-0.007 -0.0024,-0.015 -0.0036,-0.0227 -0.0013,-8e-5 -0.0028,8e-5 -0.0041,0 -0.0021,-1.3e-4 -0.0019,-0.0409 -0.0016,-0.0884 -0.119613,-0.15882 -0.273209,-0.30458 -0.396359,-0.29249 -0.214519,0.0211 -0.425241,0.0595 -0.633553,0.11007 z m 1.035596,0.27079 c 0.0199,0.001 0.04148,-1.9e-4 0.06253,-5.3e-4 -0.019,-0.0305 -0.04213,-0.0536 -0.0646,-0.0837 -5.29e-4,0.009 -0.0021,0.0161 -0.0021,0.0253 0,0.0209 0.0016,0.0406 0.0041,0.0589 z m 0.0036,0.0227 c 0.01894,0.0877 0.07147,0.14208 0.147278,0.17363 -0.01397,-0.0519 -0.0407,-0.11249 -0.07958,-0.17777 -0.02289,0.001 -0.04615,0.002 -0.06769,0.004 z m 37.301597,1.5136 c 0.0146,0.0448 0.0749,0.1766 0.14366,0.32401 l 5.3e-4,5.3e-4 c 10e-6,-5.3e-4 6e-5,-7.9e-4 0,-0.002 v -5.3e-4 c -0.004,-0.0429 -0.008,-0.0857 -0.0134,-0.12816 -0.11425,-0.19723 -0.1453,-0.23846 -0.13074,-0.19378 z m -0.43821,0.24494 c 0.46006,0.1927 0.57797,0.21561 0.60409,0.22945 -0.008,-0.0329 -0.0122,-0.0666 -0.016,-0.10025 -0.12006,-0.0927 -0.26485,-0.0903 -0.58808,-0.1292 z m -38.436935,0.45062 c -0.0075,-0.0187 -0.02339,0.19899 -0.03204,0.32608 -0.04783,-0.0699 -0.06889,-0.10106 -0.122475,-0.17932 -0.04799,0.0982 -0.05897,0.11537 -0.166397,0.34934 -0.04321,0.0259 -0.08647,0.0517 -0.129709,0.0775 0.133739,0.0858 0.271584,0.15661 0.414962,0.20516 -0.0092,-0.11442 -0.01095,-0.23669 -0.0021,-0.36794 7.94e-4,-0.0101 0.0028,-0.0422 0.0057,-0.0842 0.03387,0.0495 0.06833,0.10012 0.08682,0.12712 -0.03818,-0.14665 0.0019,-0.31252 -0.05478,-0.45372 z m 0.05478,0.45372 c 5.3e-4,0.002 0.0011,0.004 0.0016,0.006 -0.09678,-0.10536 -0.104661,-0.11428 0.02894,0.0718 -0.0094,-0.0177 -0.01696,-0.0348 -0.0217,-0.0486 -0.0026,-0.008 -0.0052,-0.0149 -0.0072,-0.0227 0.0039,0.004 0.0045,0.005 0.0088,0.009 -0.0019,-0.003 -0.0081,-0.0118 -0.01035,-0.015 z m 0.03049,0.0775 c 0.07067,0.13281 0.24937,0.34956 0.186034,0.26045 -0.07945,-0.11182 -0.140462,-0.19695 -0.186034,-0.26045 z m 37.182745,-0.16589 c 0,0 5.3e-4,5.3e-4 5.3e-4,5.3e-4 -7e-5,8e-4 5.2e-4,0.002 5.2e-4,0.003 -2.6e-4,-7.9e-4 -7.9e-4,-10e-4 -0.001,-0.002 h -5.3e-4 c 1e-4,-5.3e-4 5.3e-4,-8e-5 5.3e-4,-0.002 z m 0.38757,0.13075 c -0.0226,-0.002 -0.0872,0.24464 -0.0274,0.30334 0.0204,0.02 0.037,0.037 0.0558,0.0558 -0.004,-0.0925 -0.0105,-0.20283 -0.0217,-0.34158 -0.001,-0.0113 -0.004,-0.0166 -0.007,-0.0176 z m 0.0284,0.35915 c 0.007,0.15766 0.006,0.25644 0,0.31729 0,0 5.3e-4,5.3e-4 5.3e-4,5.3e-4 v 5.3e-4 c 0.0297,0.0393 0.0536,0.0695 0.0605,0.0739 0.12532,0.0798 0.26874,0.12052 0.416,0.15193 -0.0675,-0.0773 -0.16565,-0.23232 -0.47698,-0.54416 z m 1.86914,0.0207 c -1.6e-4,5.3e-4 -2.4e-4,8e-5 -5.3e-4,0.002 l -5.3e-4,-5.3e-4 z m 5.3e-4,0.004 c 1.7e-4,2.6e-4 2.5e-4,7.9e-4 5.3e-4,0.001 h -5.3e-4 c 1.2e-4,-2.1e-4 -1.4e-4,-8e-4 0,-0.001 z m -1.39268,0.52038 c 0.0777,0.0889 0.11843,0.0776 0.40566,0.0889 -0.13129,-0.0384 -0.27009,-0.06 -0.40566,-0.0889 z m -0.4501,0.0217 0.21032,0.43201 c -0.0277,-0.18333 -0.28745,-0.57288 -0.21032,-0.43201 z m 2.08256,0.0935 c 0.0359,0.0608 0.076,0.11949 0.11627,0.17829 v -0.0956 c -0.0294,-0.0215 -0.0645,-0.0461 -0.11627,-0.0827 z m -1.59061,0.40049 c -0.002,-0.068 -0.0176,0.1449 0.003,0.21239 5.3e-4,0.002 7.9e-4,0.004 0.002,0.005 -5.3e-4,-0.0619 -0.002,-0.13137 -0.005,-0.21755 z m 0.90951,0.39636 v 5.3e-4 c -0.2162,-0.005 -0.35101,0.0491 -0.30799,0.24805 0.004,0.0207 0.009,0.0391 0.0134,0.0594 0.09,-0.0426 0.30387,0.21552 1.09089,0.47749 v -0.67593 c -0.28253,-0.0394 -0.58012,-0.10429 -0.79633,-0.10955 z m 12.31863,0.33641 c 0.0803,0.18678 0.1489,0.37817 0.20929,0.5731 0.13066,-0.0382 0.26096,-0.0763 0.40359,-0.11628 0.11978,-0.0336 0.0779,-0.2023 0.0537,-0.35295 -0.15254,-0.004 -0.30407,-0.0325 -0.45217,-0.0842 -0.0715,-0.004 -0.14302,-0.006 -0.21446,-0.0196 z m -5.00176,0.0946 c 0.0189,0.0256 0.0374,0.0515 0.0563,0.077 0.27841,0.31832 0.54569,0.6466 0.8351,0.95498 0.21083,0.22465 0.44167,0.42962 0.66094,0.64596 -0.0641,-0.22848 -0.13253,-0.44537 -0.19327,-0.53279 -0.16043,-0.23091 -0.39263,-0.40244 -0.58912,-0.60358 -0.24416,-0.17073 -0.50893,-0.35645 -0.76997,-0.54157 z m -55.328924,0.11524 c -0.09866,0.0852 -0.197049,0.1707 -0.297141,0.25425 -0.09807,0.0818 0.19185,-0.0598 0.334349,-0.20257 -0.01289,-0.0163 -0.02463,-0.0348 -0.03721,-0.0517 z m 48.301954,1.61954 c 5.3e-4,1.1e-4 0.001,5.3e-4 0.002,5.3e-4 -5.3e-4,-1.1e-4 -10e-4,1e-4 -0.002,0 z m 9.89811,0.66714 c -0.23867,0.0175 -0.31688,0.1235 -0.34468,0.42013 0.17622,0.23183 0.34744,0.4676 0.51573,0.70538 0.98806,-0.22916 2.21764,-0.4653 2.99413,-0.64543 0.003,-0.0464 0.006,-0.091 0.009,-0.13953 -0.0247,-0.0563 -0.0472,-0.11052 -0.0713,-0.16588 -0.023,7e-5 -0.0403,-8e-4 -0.0646,-5.3e-4 -1.79698,0.0129 -2.64027,-0.20335 -3.03806,-0.17415 z" />
    </clipPath>
  </defs>
  <g
     inkscape:label="Layer 1"
     inkscape:groupmode="layer"
     id="layer1">
    <path
       id="path2713"
       style="fill:none;fill-rule:evenodd;stroke:#000000;stroke-width:1.55326;stroke-linecap:round;stroke-linejoin:round;stroke-miterlimit:4;stroke-dasharray:none;paint-order:stroke markers fill"
       d="m 107.10714,55.857392 -2.35925,0.73588 c -4.3091,1.344068 -6.950483,5.079687 -5.922372,8.375826 l 13.466992,43.175412 c 1.02811,3.29614 5.32486,4.86767 9.63396,3.5236 l 2.35925,-0.73588 c 4.30911,-1.34407 6.95049,-5.07969 5.92238,-8.37583 l -13.467,-43.175415 c -1.02811,-3.296139 -5.32486,-4.867661 -9.63396,-3.523593 z m 2.11234,5.583043 -2.69728,0.841316 c -4.3091,1.344068 -6.950481,5.079688 -5.92237,8.375828 l 11.69268,37.486931 c 1.02811,3.29614 5.32486,4.86767 9.63396,3.5236 l 2.69728,-0.84132 c 4.3091,-1.34407 6.95048,-5.07969 5.92237,-8.37583 L 118.85344,64.96403 c -1.02811,-3.29614 -5.32485,-4.867663 -9.63396,-3.523595 z m 20.7935,69.624965 c -4.58808,1.43108 -7.20483,6.03576 -5.86715,10.32439 l 10.15112,32.54467 c 1.33768,4.28863 6.10824,6.58911 10.69632,5.15803 4.58808,-1.43109 7.20483,-6.03576 5.86715,-10.3244 L 140.7093,136.22342 c -1.33769,-4.28863 -6.10824,-6.58911 -10.69632,-5.15802 z M 109.63923,68.124844 c 4.95875,-1.546701 9.94757,0.403431 11.18567,4.37279 l 13.25037,42.480926 c 0.11171,-0.0401 0.22501,-0.0765 0.33944,-0.11216 4.30911,-1.34407 8.60613,0.22755 9.63424,3.5237 l 1.44838,4.64352 c 0.71175,2.2819 -0.33544,4.77418 -2.47685,6.53802 a 35.617224,21.245507 72.676596 0 1 18.49318,25.78466 35.617224,21.245507 72.676596 0 1 2.29649,10.974 c 2.41779,0.50807 4.33198,1.95217 4.98957,4.0604 l 3.70993,11.8941 c 1.09467,3.50952 -1.71792,7.48729 -6.306,8.91837 l -14.36617,4.481 -16.73258,5.21912 c -4.58808,1.43108 -9.16294,-0.24244 -10.2576,-3.75196 l -3.70994,-11.89412 c -0.87047,-2.79073 0.73123,-5.87573 3.73011,-7.74258 a 35.617224,21.245507 72.676596 0 1 -3.91737,-9.50604 35.617224,21.245507 72.676596 0 1 -2.44474,-13.56375 l -6.05592,-19.4154 c -1.03021,-3.30285 1.17995,-6.9099 4.95555,-8.08757 0.23332,-0.0728 0.46707,-0.13468 0.70041,-0.18568 L 102.9231,78.081447 c -1.2381,-3.969358 1.75738,-8.409901 6.71613,-9.956603 z m -23.577104,-14.816808 2.359244,0.73588 c 4.309106,1.344068 6.950486,5.079687 5.922375,8.375826 L 80.876754,105.59515 c -1.02811,3.29614 -5.32486,4.86767 -9.633966,3.5236 l -2.359244,-0.73588 c -4.309107,-1.34407 -6.950487,-5.07969 -5.922377,-8.37583 L 76.428159,56.831629 c 1.02811,-3.296139 5.32486,-4.867661 9.633967,-3.523593 z m -2.112341,5.583043 2.697273,0.841316 c 4.309106,1.344068 6.950486,5.079688 5.922376,8.375828 L 80.876756,105.59515 c -1.02811,3.29614 -5.32486,4.86767 -9.633966,3.5236 l -2.697273,-0.84132 c -4.309108,-1.34407 -6.950488,-5.07969 -5.922377,-8.375828 L 74.315818,62.414674 c 1.02811,-3.29614 5.324859,-4.867663 9.633967,-3.523595 z M 63.156286,128.51604 c 4.588081,1.43108 7.204828,6.03576 5.867147,10.32439 L 58.872311,171.3851 c -1.337682,4.28863 -6.10824,6.58911 -10.69632,5.15803 -4.58808,-1.43109 -7.204827,-6.03576 -5.867146,-10.3244 l 10.151122,-32.54467 c 1.337682,-4.28863 6.10824,-6.58911 10.696319,-5.15802 z M 83.53003,65.575488 c -4.95875,-1.546701 -9.94757,0.403431 -11.185666,4.37279 L 59.093993,112.4292 c -0.111711,-0.0401 -0.225007,-0.0765 -0.339442,-0.11216 -4.309109,-1.34407 -8.606124,0.22755 -9.634237,3.5237 l -1.448379,4.64352 c -0.711753,2.2819 0.335433,4.77418 2.476845,6.53802 a 21.245507,35.617224 17.323404 0 0 -18.493176,25.78466 21.245507,35.617224 17.323404 0 0 -2.296494,10.974 c -2.417791,0.50807 -4.331982,1.95217 -4.989569,4.0604 l -3.709929,11.8941 c -1.094667,3.50952 1.717922,7.48729 6.306004,8.91837 l 14.366171,4.481 16.732576,5.21912 c 4.588078,1.43108 9.162935,-0.24244 10.257602,-3.75196 L 72.0319,182.70785 c 0.870468,-2.79073 -0.731226,-5.87573 -3.730109,-7.74258 a 21.245507,35.617224 17.323404 0 0 3.917369,-9.50604 21.245507,35.617224 17.323404 0 0 2.444742,-13.56375 l 6.055923,-19.4154 c 1.030204,-3.30285 -1.179956,-6.9099 -4.955555,-8.08757 -0.233315,-0.0728 -0.467068,-0.13468 -0.700411,-0.18568 L 90.246167,75.532091 C 91.484263,71.562733 88.488783,67.12219 83.53003,65.575488 Z"
       clip-path="url(#clipPath2998)"
       transform="matrix(0.56965362,0,0,0.66221612,-5.1912911,-31.104678)" />
  </g>
  <g
     inkscape:groupmode="layer"
     id="layer3"
     inkscape:label="Layer 2">
    <g
       id="g1181">
      <path
         id="path825"
         style="fill:none;fill-rule:evenodd;stroke:#000000;stroke-width:0.576531;stroke-linecap:round;stroke-linejoin:round;paint-order:stroke markers fill"
         d="m 107.10714,55.857392 -2.35925,0.73588 c -4.3091,1.344068 -6.950483,5.079687 -5.922372,8.375826 l 13.466992,43.175412 c 1.02811,3.29614 5.32486,4.86767 9.63396,3.5236 l 2.35925,-0.73588 c 4.30911,-1.34407 6.95049,-5.07969 5.92238,-8.37583 l -13.467,-43.175415 c -1.02811,-3.296139 -5.32486,-4.867661 -9.63396,-3.523593 z m 2.11234,5.583043 -2.69728,0.841316 c -4.3091,1.344068 -6.950481,5.079688 -5.92237,8.375828 l 11.69268,37.486931 c 1.02811,3.29614 5.32486,4.86767 9.63396,3.5236 l 2.69728,-0.84132 c 4.3091,-1.34407 6.95048,-5.07969 5.92237,-8.37583 L 118.85344,64.96403 c -1.02811,-3.29614 -5.32485,-4.867663 -9.63396,-3.523595 z m 20.7935,69.624965 c -4.58808,1.43108 -7.20483,6.03576 -5.86715,10.32439 l 10.15112,32.54467 c 1.33768,4.28863 6.10824,6.58911 10.69632,5.15803 4.58808,-1.43109 7.20483,-6.03576 5.86715,-10.3244 L 140.7093,136.22342 c -1.33769,-4.28863 -6.10824,-6.58911 -10.69632,-5.15802 z M 109.63923,68.124844 c 4.95875,-1.546701 9.94757,0.403431 11.18567,4.37279 l 13.25037,42.480926 c 0.11171,-0.0401 0.22501,-0.0765 0.33944,-0.11216 4.30911,-1.34407 8.60613,0.22755 9.63424,3.5237 l 1.44838,4.64352 c 0.71175,2.2819 -0.33544,4.77418 -2.47685,6.53802 a 35.617224,21.245507 72.676596 0 1 18.49318,25.78466 35.617224,21.245507 72.676596 0 1 2.29649,10.974 c 2.41779,0.50807 4.33198,1.95217 4.98957,4.0604 l 3.70993,11.8941 c 1.09467,3.50952 -1.71792,7.48729 -6.306,8.91837 l -14.36617,4.481 -16.73258,5.21912 c -4.58808,1.43108 -9.16294,-0.24244 -10.2576,-3.75196 l -3.70994,-11.89412 c -0.87047,-2.79073 0.73123,-5.87573 3.73011,-7.74258 a 35.617224,21.245507 72.676596 0 1 -3.91737,-9.50604 35.617224,21.245507 72.676596 0 1 -2.44474,-13.56375 l -6.05592,-19.4154 c -1.03021,-3.30285 1.17995,-6.9099 4.95555,-8.08757 0.23332,-0.0728 0.46707,-0.13468 0.70041,-0.18568 L 102.9231,78.081447 c -1.2381,-3.969358 1.75738,-8.409901 6.71613,-9.956603 z m -23.577104,-14.816808 2.359244,0.73588 c 4.309106,1.344068 6.950486,5.079687 5.922375,8.375826 L 80.876754,105.59515 c -1.02811,3.29614 -5.32486,4.86767 -9.633966,3.5236 l -2.359244,-0.73588 c -4.309107,-1.34407 -6.950487,-5.07969 -5.922377,-8.37583 L 76.428159,56.831629 c 1.02811,-3.296139 5.32486,-4.867661 9.633967,-3.523593 z m -2.112341,5.583043 2.697273,0.841316 c 4.309106,1.344068 6.950486,5.079688 5.922376,8.375828 L 80.876756,105.59515 c -1.02811,3.29614 -5.32486,4.86767 -9.633966,3.5236 l -2.697273,-0.84132 c -4.309108,-1.34407 -6.950488,-5.07969 -5.922377,-8.375828 L 74.315818,62.414674 c 1.02811,-3.29614 5.324859,-4.867663 9.633967,-3.523595 z M 63.156286,128.51604 c 4.588081,1.43108 7.204828,6.03576 5.867147,10.32439 L 58.872311,171.3851 c -1.337682,4.28863 -6.10824,6.58911 -10.69632,5.15803 -4.58808,-1.43109 -7.204827,-6.03576 -5.867146,-10.3244 l 10.151122,-32.54467 c 1.337682,-4.28863 6.10824,-6.58911 10.696319,-5.15802 z M 83.53003,65.575488 c -4.95875,-1.546701 -9.94757,0.403431 -11.185666,4.37279 L 59.093993,112.4292 c -0.111711,-0.0401 -0.225007,-0.0765 -0.339442,-0.11216 -4.309109,-1.34407 -8.606124,0.22755 -9.634237,3.5237 l -1.448379,4.64352 c -0.711753,2.2819 0.335433,4.77418 2.476845,6.53802 a 21.245507,35.617224 17.323404 0 0 -18.493176,25.78466 21.245507,35.617224 17.323404 0 0 -2.296494,10.974 c -2.417791,0.50807 -4.331982,1.95217 -4.989569,4.0604 l -3.709929,11.8941 c -1.094667,3.50952 1.717922,7.48729 6.306004,8.91837 l 14.366171,4.481 16.732576,5.21912 c 4.588078,1.43108 9.162935,-0.24244 10.257602,-3.75196 L 72.0319,182.70785 c 0.870468,-2.79073 -0.731226,-5.87573 -3.730109,-7.74258 a 21.245507,35.617224 17.323404 0 0 3.917369,-9.50604 21.245507,35.617224 17.323404 0 0 2.444742,-13.56375 l 6.055923,-19.4154 c 1.030204,-3.30285 -1.179956,-6.9099 -4.955555,-8.08757 -0.233315,-0.0728 -0.467068,-0.13468 -0.700411,-0.18568 L 90.246167,75.532091 C 91.484263,71.562733 88.488783,67.12219 83.53003,65.575488 Z"
         clip-path="url(#clipPath2998)"
         transform="matrix(0.56965362,0,0,0.66221612,96.408764,-31.104678)" />
      <path
         style="fill:#000000;fill-rule:evenodd;stroke:#000000;stroke-width:18.9319;stroke-linecap:round;stroke-linejoin:round;paint-order:stroke markers fill"
         d="m 643.06408,384.1335 c -1.63743,-0.67019 -4.09793,-2.46983 -5.46777,-3.99922 -3.26821,-3.64884 -12.14706,-37.07098 -11.03028,-41.5206 0.47693,-1.90027 2.54632,-5.45059 4.59864,-7.88963 l 3.73148,-4.43462 -2.98631,-6.96678 c -4.22615,-9.8592 -8.57738,-27.73085 -10.34344,-42.48328 -0.83077,-6.9396 -4.20448,-22.32689 -7.49715,-34.19401 -7.24819,-26.12324 -7.51819,-31.45387 -1.87877,-37.09329 2.25934,-2.25934 5.00768,-4.40783 6.10743,-4.77441 1.57685,-0.52562 0.97596,-4.43175 -2.84259,-18.47836 -2.66317,-9.79651 -4.95395,-18.81663 -5.09061,-20.04471 -0.13667,-1.22807 -1.02025,-4.57736 -1.9635,-7.44287 -4.75576,-14.44739 -21.15738,-78.365765 -21.14886,-82.418665 0.0361,-17.135428 26.42618,-25.938226 34.20219,-11.408617 2.78363,5.201252 22.35383,80.134362 22.35383,85.591442 0,2.98892 0.59878,5.06433 1.33062,4.61203 0.73184,-0.4523 2.46191,3.79396 3.8446,9.43614 l 2.51397,10.25851 7.44549,-0.22041 c 6.39495,-0.1893 7.93601,0.34936 10.92196,3.81763 1.91206,2.22091 4.32889,7.84706 5.37075,12.50254 1.741,7.77963 1.64715,8.91568 -1.15989,14.0403 l -3.05415,5.57578 10.69755,11.08603 c 8.08354,8.37707 12.38338,14.50807 17.59656,25.09032 7.44729,15.11729 13.51079,34.20752 15.22635,47.93844 0.91685,7.33814 1.67185,8.90717 5.15206,10.70686 2.24279,1.15979 4.81789,3.9824 5.72245,6.27248 3.14798,7.96972 9.19471,31.56998 9.19471,35.88675 0,5.15741 -4.5285,11.37621 -10.55253,14.49135 -6.01913,3.11262 -73.81895,27.49169 -76.13377,27.37574 -1.03613,-0.0519 -3.22359,-0.64269 -4.86102,-1.31287 z m 39.20821,-54.9884 c 4.50722,-3.20943 9.17722,-12.60669 9.1615,-18.43535 -0.01,-3.57219 -21.28238,-83.9643 -24.02761,-90.80305 -2.72731,-6.7941 -9.54689,-11.50709 -16.64129,-11.50074 -10.93781,0.0104 -18.55649,6.90944 -20.8254,18.85994 -1.03159,5.43343 20.91473,89.87046 25.27867,97.258 5.32479,9.01415 17.87435,11.15778 27.05413,4.6212 z M 614.7176,162.35745 c 0.47103,-0.76214 0.17563,-1.80646 -0.65644,-2.32071 -0.83207,-0.51425 -1.51285,0.10932 -1.51285,1.38572 0,2.61472 0.89323,2.99971 2.16929,0.93499 z"
         id="path882"
         transform="scale(0.26458333)" />
      <path
         style="fill:#000000;fill-rule:evenodd;stroke:#000000;stroke-width:18.9319;stroke-linecap:round;stroke-linejoin:round;paint-order:stroke markers fill"
         d="m 454.75944,364.73204 c -47.87223,-17.40846 -48.04653,-17.60157 -40.9809,-45.40098 4.62235,-18.1864 6.75498,-22.61681 11.81248,-24.53966 2.78566,-1.05911 3.59911,-2.78234 4.3604,-9.23716 3.46514,-29.38033 21.18798,-66.65311 38.03885,-79.99925 l 5.85256,-4.63532 -3.12963,-5.71356 c -2.90934,-5.3114 -2.99268,-6.32551 -1.18399,-14.40758 1.32573,-5.92399 3.33875,-10.08713 6.31805,-13.06644 3.86668,-3.86667 5.10194,-4.27242 10.67954,-3.50793 l 6.30711,0.86449 14.69581,-54.95726 c 15.76305,-58.948375 16.51044,-60.724065 26.55586,-63.092861 9.85113,-2.322982 23.36673,8.728725 23.37991,19.117779 0.006,4.29922 -17.86968,73.349912 -21.17419,81.794702 -0.92621,2.36697 -1.80186,5.71626 -1.94588,7.44287 -0.14402,1.7266 -2.47984,11.14033 -5.19073,20.9194 -4.00959,14.46396 -4.53819,17.91035 -2.83416,18.47836 1.15209,0.38402 3.94326,2.54679 6.2026,4.80613 5.60371,5.60371 5.36029,9.60646 -2.40378,39.52865 -3.58141,13.80253 -7.30244,31.12424 -8.26895,38.49268 -0.96651,7.36844 -3.98651,20.09231 -6.71111,28.27527 l -4.95382,14.87813 3.54748,4.21594 c 5.52709,6.56857 5.59487,9.82292 0.59856,28.73822 -5.34172,20.22299 -8.36977,24.40641 -17.60286,24.31936 -3.08533,-0.0291 -21.50743,-5.87317 -41.96921,-13.31398 z m 30.32443,-41.82686 c 2.16238,-1.70094 4.53868,-4.22694 5.28067,-5.61337 3.10019,-5.79276 23.93787,-87.00102 23.93787,-93.29028 0,-11.46622 -5.77403,-19.33254 -15.86021,-21.60734 -7.91486,-1.7851 -17.01057,2.33437 -20.21322,9.1546 -3.03851,6.47068 -24.95812,88.5234 -24.95812,93.42693 0,5.64814 5.36362,15.50403 10.00108,18.37743 5.8944,3.6522 16.88641,3.42644 21.81193,-0.44797 z"
         id="path960"
         transform="scale(0.26458333)" />
      <path
         style="fill:#000000;fill-rule:evenodd;stroke:#000000;stroke-width:11.7489;stroke-linecap:round;stroke-linejoin:round;paint-order:stroke markers fill"
         d="m 578.89238,47.199141 c -2.20608,-7.363255 -0.72113,-12.463043 5.17926,-17.787194 4.62131,-4.169983 14.97819,-7.801023 19.70432,-6.908178 5.35109,1.01091 8.80409,3.749104 10.57484,8.385754 1.80744,4.732715 1.49876,5.772903 -1.27294,4.289534 -3.32977,-1.782036 -11.76853,-1.168232 -17.83637,1.297351 -7.37211,2.995559 -11.20756,6.003557 -13.46003,10.556207 l -1.8305,3.699761 z"
         id="path999"
         transform="scale(0.26458333)" />
      <path
         style="fill:#000000;fill-rule:evenodd;stroke:#000000;stroke-width:11.7489;stroke-linecap:round;stroke-linejoin:round;paint-order:stroke markers fill"
         d="m 562.73777,40.515758 c -2.18046,-4.612953 -6.4864,-7.863258 -14.05808,-10.611628 -6.42768,-2.333123 -12.56488,-2.79065 -16.64173,-1.240638 -1.37376,0.522303 -2.63668,0.81071 -2.80648,0.640903 -1.04258,-1.042578 2.0404,-7.426256 4.72474,-9.783137 4.57934,-4.020711 8.64889,-4.518026 16.43933,-2.008947 11.42478,3.679596 17.37251,11.30931 15.98253,20.502292 -0.90932,6.014048 -1.7174,6.569253 -3.64031,2.501155 z"
         id="path1038"
         transform="scale(0.26458333)" />
    </g>
  </g>
  <g
     inkscape:groupmode="layer"
     id="layer2"
     inkscape:label="Layer 3">
    <g
       id="g1286"
       transform="translate(14.015697,9.1265002)">
      <path
         id="path831"
         style="fill:#ffffff;fill-rule:evenodd;stroke:#000000;stroke-width:3.18141;stroke-linecap:round;stroke-linejoin:round;stroke-miterlimit:4;stroke-dasharray:none;paint-order:stroke markers fill"
         d="m 107.10714,55.857392 -2.35925,0.73588 c -4.3091,1.344068 -6.950483,5.079687 -5.922372,8.375826 l 13.466992,43.175412 c 1.02811,3.29614 5.32486,4.86767 9.63396,3.5236 l 2.35925,-0.73588 c 4.30911,-1.34407 6.95049,-5.07969 5.92238,-8.37583 l -13.467,-43.175415 c -1.02811,-3.296139 -5.32486,-4.867661 -9.63396,-3.523593 z m 2.11234,5.583043 -2.69728,0.841316 c -4.3091,1.344068 -6.950481,5.079688 -5.92237,8.375828 l 11.69268,37.486931 c 1.02811,3.29614 5.32486,4.86767 9.63396,3.5236 l 2.69728,-0.84132 c 4.3091,-1.34407 6.95048,-5.07969 5.92237,-8.37583 L 118.85344,64.96403 c -1.02811,-3.29614 -5.32485,-4.867663 -9.63396,-3.523595 z m 20.7935,69.624965 c -4.58808,1.43108 -7.20483,6.03576 -5.86715,10.32439 l 10.15112,32.54467 c 1.33768,4.28863 6.10824,6.58911 10.69632,5.15803 4.58808,-1.43109 7.20483,-6.03576 5.86715,-10.3244 L 140.7093,136.22342 c -1.33769,-4.28863 -6.10824,-6.58911 -10.69632,-5.15802 z M 109.63923,68.124844 c 4.95875,-1.546701 9.94757,0.403431 11.18567,4.37279 l 13.25037,42.480926 c 0.11171,-0.0401 0.22501,-0.0765 0.33944,-0.11216 4.30911,-1.34407 8.60613,0.22755 9.63424,3.5237 l 1.44838,4.64352 c 0.71175,2.2819 -0.33544,4.77418 -2.47685,6.53802 a 35.617224,21.245507 72.676596 0 1 18.49318,25.78466 35.617224,21.245507 72.676596 0 1 2.29649,10.974 c 2.41779,0.50807 4.33198,1.95217 4.98957,4.0604 l 3.70993,11.8941 c 1.09467,3.50952 -1.71792,7.48729 -6.306,8.91837 l -14.36617,4.481 -16.73258,5.21912 c -4.58808,1.43108 -9.16294,-0.24244 -10.2576,-3.75196 l -3.70994,-11.89412 c -0.87047,-2.79073 0.73123,-5.87573 3.73011,-7.74258 a 35.617224,21.245507 72.676596 0 1 -3.91737,-9.50604 35.617224,21.245507 72.676596 0 1 -2.44474,-13.56375 l -6.05592,-19.4154 c -1.03021,-3.30285 1.17995,-6.9099 4.95555,-8.08757 0.23332,-0.0728 0.46707,-0.13468 0.70041,-0.18568 L 102.9231,78.081447 c -1.2381,-3.969358 1.75738,-8.409901 6.71613,-9.956603 z m -23.577104,-14.816808 2.359244,0.73588 c 4.309106,1.344068 6.950486,5.079687 5.922375,8.375826 L 80.876754,105.59515 c -1.02811,3.29614 -5.32486,4.86767 -9.633966,3.5236 l -2.359244,-0.73588 c -4.309107,-1.34407 -6.950487,-5.07969 -5.922377,-8.37583 L 76.428159,56.831629 c 1.02811,-3.296139 5.32486,-4.867661 9.633967,-3.523593 z m -2.112341,5.583043 2.697273,0.841316 c 4.309106,1.344068 6.950486,5.079688 5.922376,8.375828 L 80.876756,105.59515 c -1.02811,3.29614 -5.32486,4.86767 -9.633966,3.5236 l -2.697273,-0.84132 c -4.309108,-1.34407 -6.950488,-5.07969 -5.922377,-8.375828 L 74.315818,62.414674 c 1.02811,-3.29614 5.324859,-4.867663 9.633967,-3.523595 z M 63.156286,128.51604 c 4.588081,1.43108 7.204828,6.03576 5.867147,10.32439 L 58.872311,171.3851 c -1.337682,4.28863 -6.10824,6.58911 -10.69632,5.15803 -4.58808,-1.43109 -7.204827,-6.03576 -5.867146,-10.3244 l 10.151122,-32.54467 c 1.337682,-4.28863 6.10824,-6.58911 10.696319,-5.15802 z M 83.53003,65.575488 c -4.95875,-1.546701 -9.94757,0.403431 -11.185666,4.37279 L 59.093993,112.4292 c -0.111711,-0.0401 -0.225007,-0.0765 -0.339442,-0.11216 -4.309109,-1.34407 -8.606124,0.22755 -9.634237,3.5237 l -1.448379,4.64352 c -0.711753,2.2819 0.335433,4.77418 2.476845,6.53802 a 21.245507,35.617224 17.323404 0 0 -18.493176,25.78466 21.245507,35.617224 17.323404 0 0 -2.296494,10.974 c -2.417791,0.50807 -4.331982,1.95217 -4.989569,4.0604 l -3.709929,11.8941 c -1.094667,3.50952 1.717922,7.48729 6.306004,8.91837 l 14.366171,4.481 16.732576,5.21912 c 4.588078,1.43108 9.162935,-0.24244 10.257602,-3.75196 L 72.0319,182.70785 c 0.870468,-2.79073 -0.731226,-5.87573 -3.730109,-7.74258 a 21.245507,35.617224 17.323404 0 0 3.917369,-9.50604 21.245507,35.617224 17.323404 0 0 2.444742,-13.56375 l 6.055923,-19.4154 c 1.030204,-3.30285 -1.179956,-6.9099 -4.955555,-8.08757 -0.233315,-0.0728 -0.467068,-0.13468 -0.700411,-0.18568 L 90.246167,75.532091 C 91.484263,71.562733 88.488783,67.12219 83.53003,65.575488 Z"
         clip-path="url(#clipPath2998)"
         transform="matrix(0.56965362,0,0,0.66221612,-14.894573,145.15416)" />
      <path
         style="fill:#ffffff;fill-rule:evenodd;stroke:#000000;stroke-width:3.3309;stroke-linecap:round;stroke-linejoin:round;stroke-miterlimit:4;stroke-dasharray:none;paint-order:stroke markers fill"
         d="m 243.05512,991.30443 c -1.4709,-0.96969 -3.41709,-2.94156 -4.32487,-4.38194 -1.33515,-2.1185 -17.1198,-58.83588 -23.50505,-84.45831 -1.78648,-7.16867 -0.94258,-11.93984 2.92476,-16.53591 6.46566,-7.684 17.61574,-7.42562 22.53782,0.52225 0.96753,1.56231 6.99173,22.31118 13.38711,46.1086 12.52045,46.58899 12.60171,47.10394 8.4143,53.31763 -4.63461,6.8773 -13.48552,9.34924 -19.43407,5.42768 z"
         id="path926"
         transform="scale(0.26458333)" />
      <path
         style="fill:#ffffff;fill-rule:evenodd;stroke:#000000;stroke-width:3.3309;stroke-linecap:round;stroke-linejoin:round;stroke-miterlimit:4;stroke-dasharray:none;paint-order:stroke markers fill"
         d="m 50.808727,986.61102 c -4.210117,-0.91283 -6.605381,-2.469 -9.360872,-6.08164 -4.836391,-6.34082 -4.564611,-8.22027 7.941675,-54.91926 6.186352,-23.10009 11.968881,-43.24588 12.850066,-44.76841 4.745702,-8.19976 15.396019,-9.2433 22.01261,-2.15685 2.544798,2.72551 4.894015,8.24386 4.894015,11.49611 0,3.55715 -22.88036,88.11489 -24.520012,90.61731 -2.778261,4.24017 -8.999583,6.85735 -13.817482,5.81274 z"
         id="path965"
         transform="scale(0.26458333)" />
      <path
         style="fill:#ffffff;fill-rule:evenodd;stroke:#000000;stroke-width:2.21329;stroke-linecap:round;stroke-linejoin:round;stroke-miterlimit:4;stroke-dasharray:none;paint-order:stroke markers fill"
         d="m 136.9783,717.70957 c -2.27123,-3.2774 -5.73069,-5.95871 -10.6704,-8.27028 -3.50391,-1.63967 -4.84281,-1.92955 -9.0442,-1.95808 -2.71229,-0.0184 -5.99305,0.19102 -7.29057,0.46543 l -2.35913,0.49894 0.41133,-2.03353 c 0.90379,-4.46809 4.60298,-7.24852 9.64592,-7.25019 3.56323,-0.001 12.42468,3.12126 15.80267,5.56827 4.73044,3.42671 7.32971,9.76364 5.7315,13.9732 -0.53388,1.40621 -0.57739,1.3868 -2.22712,-0.99376 z"
         id="path1043"
         transform="scale(0.26458333)" />
      <path
         style="fill:#ffffff;fill-rule:evenodd;stroke:#000000;stroke-width:2.21329;stroke-linecap:round;stroke-linejoin:round;stroke-miterlimit:4;stroke-dasharray:none;paint-order:stroke markers fill"
         d="m 163.84902,723.99418 c -0.56295,-3.00077 0.11405,-5.87834 2.06714,-8.78643 2.25624,-3.35946 4.92003,-5.22498 10.5049,-7.35685 6.02595,-2.30024 9.13952,-2.79796 12.25505,-1.95903 3.47438,0.93555 5.44958,2.87492 6.47882,6.36127 0.80619,2.73081 0.7941,2.93207 -0.15364,2.55905 -2.8743,-1.1313 -8.3637,-1.53701 -11.964,-0.88425 -5.87984,1.06606 -10.04947,3.34537 -14.66964,8.01908 l -4.12068,4.16844 z"
         id="path1082"
         transform="scale(0.26458333)" />
      <path
         style="fill:#ffffff;fill-rule:evenodd;stroke:#000000;stroke-width:2.21329;stroke-linecap:round;stroke-linejoin:round;stroke-miterlimit:4;stroke-dasharray:none;paint-order:stroke markers fill"
         d="m 159.16377,719.67224 c -0.17856,-0.30889 -0.95661,-3.12085 -1.72901,-6.24881 -1.25017,-5.06277 -1.32227,-6.054 -0.65671,-9.02805 0.91222,-4.07621 4.17682,-8.67772 8.01448,-11.29652 1.53366,-1.04656 5.26787,-2.76753 8.29826,-3.82438 6.15479,-2.14648 10.5743,-2.21886 14.49049,-0.23732 4.45328,2.2533 6.09877,4.60889 7.99202,11.44091 1.45758,5.25985 1.45437,5.31024 -0.23699,3.72128 -1.97924,-1.85939 -6.17799,-3.19693 -10.03571,-3.19693 -3.08188,0 -11.31102,2.36721 -15.04821,4.32879 -4.81412,2.52685 -8.85382,7.37969 -10.0435,12.06512 -0.39626,1.56063 -0.86657,2.58479 -1.04512,2.27591 z"
         id="path1121"
         transform="scale(0.26458333)" />
      <path
         style="fill:#ffffff;fill-rule:evenodd;stroke:#000000;stroke-width:2.21329;stroke-linecap:round;stroke-linejoin:round;stroke-miterlimit:4;stroke-dasharray:none;paint-order:stroke markers fill"
         d="m 143.33105,712.03109 c 0,-2.29934 -2.97164,-7.14418 -6.11593,-9.97117 -2.12417,-1.90981 -4.72144,-3.41703 -8.1673,-4.73957 -9.02984,-3.46568 -14.29919,-3.55508 -19.79251,-0.33578 -2.3824,1.39618 -2.86968,1.52035 -2.53406,0.64575 0.22853,-0.59556 0.72754,-2.35934 1.10889,-3.91953 1.4745,-6.03237 4.84031,-10.22827 9.41622,-11.73846 3.57994,-1.18148 9.75626,-0.4788 15.4324,1.75575 5.84451,2.30082 9.6803,5.41171 12.05692,9.77834 2.48289,4.56189 2.69935,7.67123 0.99014,14.22246 -1.36678,5.23872 -2.39477,7.0855 -2.39477,4.30221 z"
         id="path1160"
         transform="scale(0.26458333)" />
    </g>
  </g>
</svg>
