<?xml version="1.0" encoding="UTF-8" standalone="no"?>
<!-- Created with Inkscape (http://www.inkscape.org/) -->

<svg
   width="210mm"
   height="297mm"
   viewBox="0 0 210 297"
   version="1.1"
   id="svg5"
   inkscape:version="1.1.2 (0a00cf5339, 2022-02-04, custom)"
   sodipodi:docname="hydrogen lable svg.svg"
   xmlns:inkscape="http://www.inkscape.org/namespaces/inkscape"
   xmlns:sodipodi="http://sodipodi.sourceforge.net/DTD/sodipodi-0.dtd"
   xmlns="http://www.w3.org/2000/svg"
   xmlns:svg="http://www.w3.org/2000/svg">
  <sodipodi:namedview
     id="namedview7"
     pagecolor="#ffffff"
     bordercolor="#666666"
     borderopacity="1.0"
     inkscape:pageshadow="2"
     inkscape:pageopacity="0.0"
     inkscape:pagecheckerboard="0"
     inkscape:document-units="mm"
     showgrid="false"
     inkscape:zoom="0.5894754"
     inkscape:cx="458.88259"
     inkscape:cy="440.22193"
     inkscape:window-width="1680"
     inkscape:window-height="956"
     inkscape:window-x="-11"
     inkscape:window-y="-11"
     inkscape:window-maximized="1"
     inkscape:current-layer="layer1"
     showguides="true" />
  <defs
     id="defs2">
    <rect
       x="268.03493"
       y="412.23094"
       width="378.30247"
       height="49.196282"
       id="rect2068" />
    <inkscape:path-effect
       effect="spiro"
       id="path-effect2616"
       is_visible="true"
       lpeversion="1" />
    <inkscape:path-effect
       effect="spiro"
       id="path-effect2610"
       is_visible="true"
       lpeversion="1" />
    <inkscape:path-effect
       effect="spiro"
       id="path-effect2604"
       is_visible="true"
       lpeversion="1" />
    <inkscape:path-effect
       effect="spiro"
       id="path-effect2480"
       is_visible="true"
       lpeversion="1" />
    <inkscape:path-effect
       effect="spiro"
       id="path-effect2476"
       is_visible="true"
       lpeversion="1" />
    <inkscape:path-effect
       effect="spiro"
       id="path-effect2359"
       is_visible="true"
       lpeversion="1" />
    <inkscape:path-effect
       effect="spiro"
       id="path-effect2353"
       is_visible="true"
       lpeversion="1" />
    <inkscape:path-effect
       effect="spiro"
       id="path-effect2281"
       is_visible="true"
       lpeversion="1" />
    <inkscape:path-effect
       effect="spiro"
       id="path-effect2277"
       is_visible="true"
       lpeversion="1" />
    <inkscape:path-effect
       effect="spiro"
       id="path-effect2273"
       is_visible="true"
       lpeversion="1" />
    <inkscape:path-effect
       effect="spiro"
       id="path-effect2269"
       is_visible="true"
       lpeversion="1" />
    <inkscape:path-effect
       effect="spiro"
       id="path-effect2235"
       is_visible="true"
       lpeversion="1" />
    <inkscape:path-effect
       effect="spiro"
       id="path-effect2231"
       is_visible="true"
       lpeversion="1" />
    <inkscape:path-effect
       effect="spiro"
       id="path-effect2227"
       is_visible="true"
       lpeversion="1" />
    <inkscape:path-effect
       effect="spiro"
       id="path-effect2223"
       is_visible="true"
       lpeversion="1" />
    <inkscape:path-effect
       effect="spiro"
       id="path-effect1978"
       is_visible="true"
       lpeversion="1" />
    <inkscape:path-effect
       effect="spiro"
       id="path-effect1974"
       is_visible="true"
       lpeversion="1" />
    <inkscape:path-effect
       effect="spiro"
       id="path-effect1970"
       is_visible="true"
       lpeversion="1" />
    <inkscape:path-effect
       effect="spiro"
       id="path-effect1966"
       is_visible="true"
       lpeversion="1" />
    <inkscape:path-effect
       effect="spiro"
       id="path-effect1872"
       is_visible="true"
       lpeversion="1" />
    <inkscape:path-effect
       effect="spiro"
       id="path-effect1864"
       is_visible="true"
       lpeversion="1" />
    <inkscape:path-effect
       effect="spiro"
       id="path-effect1776"
       is_visible="true"
       lpeversion="1" />
    <inkscape:path-effect
       effect="spiro"
       id="path-effect1770"
       is_visible="true"
       lpeversion="1" />
    <inkscape:path-effect
       effect="skeletal"
       id="path-effect1495"
       is_visible="true"
       lpeversion="1"
       pattern="M 0,4.9921382 C 0,2.2364779 2.2364779,0 4.9921382,0 c 2.7556604,0 4.9921383,2.2364779 4.9921383,4.9921382 0,2.7556604 -2.2364779,4.9921383 -4.9921383,4.9921383 C 2.2364779,9.9842765 0,7.7477986 0,4.9921382 Z"
       copytype="single_stretched"
       prop_scale="1"
       scale_y_rel="false"
       spacing="0"
       normal_offset="0"
       tang_offset="0"
       prop_units="false"
       vertical_pattern="false"
       hide_knot="false"
       fuse_tolerance="0" />
    <inkscape:path-effect
       effect="spiro"
       id="path-effect1349"
       is_visible="true"
       lpeversion="1" />
    <inkscape:path-effect
       effect="skeletal"
       id="path-effect1345"
       is_visible="true"
       lpeversion="1"
       pattern="M 0,4.9921382 C 0,2.2364779 2.2364779,0 4.9921382,0 c 2.7556604,0 4.9921383,2.2364779 4.9921383,4.9921382 0,2.7556604 -2.2364779,4.9921383 -4.9921383,4.9921383 C 2.2364779,9.9842765 0,7.7477986 0,4.9921382 Z"
       copytype="single_stretched"
       prop_scale="9"
       scale_y_rel="false"
       spacing="0"
       normal_offset="0"
       tang_offset="0"
       prop_units="false"
       vertical_pattern="false"
       hide_knot="false"
       fuse_tolerance="0" />
  </defs>
  <g
     inkscape:label="Layer 1"
     inkscape:groupmode="layer"
     id="layer1">
    <path
       style="fill:#000000;stroke:#000000;stroke-width:9.96588;stroke-linecap:round;stroke-linejoin:round;stroke-miterlimit:4;stroke-dasharray:none;stroke-opacity:0.955017;paint-order:stroke markers fill"
       d=""
       id="path2731"
       transform="scale(0.26458333)" />
    <path
       style="fill:#ffffff;stroke:#000000;stroke-width:9.96588;stroke-linecap:round;stroke-linejoin:round;stroke-miterlimit:4;stroke-dasharray:none;stroke-opacity:0.955017;paint-order:stroke markers fill"
       d=""
       id="path3494"
       transform="scale(0.26458333)" />
    <path
       style="fill:#ffffff;stroke:#000000;stroke-width:9.96588;stroke-linecap:round;stroke-linejoin:round;stroke-miterlimit:4;stroke-dasharray:none;stroke-opacity:0.955017;paint-order:stroke markers fill"
       d=""
       id="path3533"
       transform="scale(0.26458333)" />
    <path
       style="fill:#ffffff;stroke:#000000;stroke-width:9.96588;stroke-linecap:round;stroke-linejoin:round;stroke-miterlimit:4;stroke-dasharray:none;stroke-opacity:0.955017;paint-order:stroke markers fill"
       d=""
       id="path3611"
       transform="scale(0.26458333)" />
    <path
       style="fill:#ffffff;stroke:#000000;stroke-width:9.96588;stroke-linecap:round;stroke-linejoin:round;stroke-miterlimit:4;stroke-dasharray:none;stroke-opacity:0.955017;paint-order:stroke markers fill"
       d=""
       id="path3689"
       transform="scale(0.26458333)" />
    <path
       style="fill:#0055d4;stroke:#000000;stroke-width:9.96588;stroke-linecap:round;stroke-linejoin:round;stroke-miterlimit:4;stroke-dasharray:none;stroke-opacity:0.955017;paint-order:stroke markers fill"
       d=""
       id="path4203"
       transform="scale(0.26458333)" />
    <path
       style="fill:#0055d4;stroke:#000000;stroke-width:9.96588;stroke-linecap:round;stroke-linejoin:round;stroke-miterlimit:4;stroke-dasharray:none;stroke-opacity:0.955017;paint-order:stroke markers fill"
       d=""
       id="path4320"
       transform="scale(0.26458333)" />
    <g
       id="g6710"
       transform="translate(29.623798,3.5907634)">
      <path
         style="fill:#000000;stroke-width:0.0303964"
         d="m 15.248472,31.755888 c -0.205909,-0.09892 -0.204093,-0.08832 -0.214855,-1.253514 -0.01078,-1.167666 -0.0019,-1.243523 0.157616,-1.338324 0.09285,-0.0552 0.162266,-0.05846 1.237366,-0.05815 1.250966,3.41e-4 1.254015,8.14e-4 1.347517,0.179946 0.04978,0.0954 0.05386,0.200085 0.04618,1.186511 -0.0077,0.98913 -0.01325,1.089053 -0.06469,1.165544 -0.108483,0.16131 -0.167675,0.168754 -1.335707,0.168009 -0.930276,-5.66e-4 -1.084193,-0.0072 -1.17342,-0.05002 z m 4.72025,0.0259 c -0.09557,-0.0314 -0.153089,-0.07376 -0.209648,-0.154458 -0.04656,-0.06643 -0.05201,-0.192731 -0.05201,-1.20495 v -1.13074 l 0.108814,-0.09315 0.108814,-0.09315 h 1.171788 1.171785 l 0.104666,0.102046 0.104665,0.102047 v 1.101476 c 0,0.916818 -0.0078,1.117379 -0.04617,1.196332 -0.09048,0.185908 -0.07631,0.183831 -1.292923,0.189555 -0.609516,0.0029 -1.135918,-0.0038 -1.16978,-0.01501 z M 6.9119218,26.586386 c -0.057,-0.03389 -0.1101987,-0.0987 -0.1292497,-0.157461 -0.02208,-0.0681 -0.03921,-2.63034 -0.05386,-8.054747 -0.02024,-7.493287 -0.01841,-7.961205 0.03159,-8.06391 0.1040377,-0.21376 -0.03392,-0.203713 2.7971472,-0.203713 h 2.5394417 l 0.09561,0.08708 c 0.05258,0.04789 0.09895,0.1188 0.103042,0.157573 0.0041,0.03877 0.0075,1.421121 0.0077,3.071885 l 2.32e-4,3.001387 1.920261,0.0078 1.92026,0.0078 -0.02291,-3.009333 c -0.02517,-3.305858 -0.03199,-3.163311 0.157256,-3.2842 0.08268,-0.05281 0.354053,-0.05449 7.275215,-0.04494 7.062208,0.0097 7.191593,0.01097 7.316919,0.06868 0.08323,0.03832 0.141167,0.09073 0.166657,0.150727 0.03143,0.07397 0.03487,1.651618 0.0176,8.060962 -0.02317,8.600994 -0.01202,8.101707 -0.183427,8.211209 -0.07486,0.04783 -0.549465,0.05115 -7.302995,0.05115 h -7.222929 l -0.104665,-0.102046 -0.104664,-0.102048 -0.0055,-1.901379 c -0.003,-1.045758 -0.0092,-1.989171 -0.01374,-2.096469 -0.0046,-0.1073 -0.009,-0.293011 -0.0099,-0.412691 l -0.0016,-0.217601 h -1.908616 -1.908588 v 2.30439 c 0,2.531203 0.01096,2.384174 -0.185042,2.482996 -0.07678,0.03872 -0.431336,0.04483 -2.5916567,0.04474 -2.4131395,-1.14e-4 -2.5061685,-0.0022 -2.5995735,-0.05771 z M 28.911382,24.700757 c 0.216601,-0.105499 0.21782,-0.114137 0.208447,-1.478137 -0.009,-1.315337 -0.006,-1.292016 -0.179882,-1.392148 -0.07628,-0.04394 -0.423357,-0.04852 -3.673485,-0.04852 h -3.589246 v -0.98997 -0.989971 l 3.593995,-0.008 c 3.937683,-0.0088 3.656839,0.0045 3.789214,-0.177819 0.04673,-0.06434 0.05175,-0.368127 0.05924,-3.589213 0.009,-3.880058 0.01929,-3.668227 -0.183347,-3.788679 -0.101119,-0.06011 -0.140919,-0.06057 -5.191947,-0.06069 -5.588682,-1.14e-4 -5.224267,-0.01225 -5.339277,0.177583 -0.04727,0.07802 -0.05252,0.213291 -0.05252,1.353012 0,1.13972 0.0053,1.274995 0.05252,1.353013 0.113725,0.187707 -0.106018,0.177695 3.900141,0.177695 h 3.65091 v 0.885051 0.88505 l -3.676398,0.0079 -3.676399,0.0079 -0.08691,0.06292 c -0.0478,0.0346 -0.104017,0.09538 -0.124932,0.135062 -0.02954,0.05607 -0.03813,0.876393 -0.03848,3.680266 l -4.58e-4,3.608125 0.09383,0.104195 c 0.05161,0.05731 0.124332,0.109962 0.161613,0.117011 0.03728,0.007 2.346546,0.01463 5.131701,0.01685 4.764294,0.0038 5.070289,8.73e-4 5.171657,-0.04843 z"
         id="path908" />
      <rect
         style="fill:none;fill-rule:evenodd;stroke:#000000;stroke-width:1.49978;stroke-linecap:round;stroke-linejoin:round;paint-order:stroke markers fill"
         id="rect1468"
         width="133.44724"
         height="28.579386"
         x="2.8474271"
         y="5.8273611"
         ry="3.2769434" />
      <text
         xml:space="preserve"
         transform="matrix(0.26458333,0,0,0.26458333,-35.009943,-94.706383)"
         id="text2066"
         style="font-style:normal;font-weight:normal;font-size:40px;line-height:1.25;font-family:sans-serif;white-space:pre;shape-inside:url(#rect2068);fill:#000000;fill-opacity:1;stroke:none"><tspan
           x="268.03516"
           y="448.62548"
           id="tspan6755">Hydrogen  Drun Kit</tspan></text>
    </g>
  </g>
</svg>
