<?xml version="1.0" encoding="UTF-8" standalone="no"?>
<!-- Created with Inkscape (http://www.inkscape.org/) -->

<svg
   width="210mm"
   height="297mm"
   viewBox="0 0 210 297"
   version="1.1"
   id="svg5"
   inkscape:version="1.1.1 (3bf5ae0d25, 2021-09-20)"
   sodipodi:docname="hydrogen card 2 icon svg.svg"
   xmlns:inkscape="http://www.inkscape.org/namespaces/inkscape"
   xmlns:sodipodi="http://sodipodi.sourceforge.net/DTD/sodipodi-0.dtd"
   xmlns="http://www.w3.org/2000/svg"
   xmlns:svg="http://www.w3.org/2000/svg">
  <sodipodi:namedview
     id="namedview7"
     pagecolor="#ffffff"
     bordercolor="#666666"
     borderopacity="1.0"
     inkscape:pageshadow="2"
     inkscape:pageopacity="0.0"
     inkscape:pagecheckerboard="0"
     inkscape:document-units="mm"
     showgrid="false"
     inkscape:zoom="0.5894754"
     inkscape:cx="544.55199"
     inkscape:cy="550.48947"
     inkscape:window-width="1680"
     inkscape:window-height="956"
     inkscape:window-x="-11"
     inkscape:window-y="-11"
     inkscape:window-maximized="1"
     inkscape:current-layer="layer1" />
  <defs
     id="defs2" />
  <g
     inkscape:label="Layer 1"
     inkscape:groupmode="layer"
     id="layer1">
    <g
       id="g1491">
      <path
         id="rect1497"
         style="fill:none;stroke:#000000;stroke-width:1.235;stroke-linecap:round;stroke-linejoin:round;stroke-opacity:0.955017;paint-order:stroke markers fill;stroke-miterlimit:4;stroke-dasharray:none"
         d="m 10.057103,9.0537365 h 43.260985 c 0.550616,0 0.993898,0.3559403 0.993898,0.7980709 V 30.285439 c 0,0.442131 -0.443282,0.798071 -0.993898,0.798071 H 10.057103 c -0.5506203,0 -0.9938988,-0.35594 -0.9938988,-0.798071 V 9.8518074 c 0,-0.4421306 0.4432785,-0.7980709 0.9938988,-0.7980709 z M 46.877115,71.272512 h 0.836437 c 0.507746,0 0.916497,0.330443 0.916497,0.740905 v 3.332121 c 0,0.410453 -0.408751,0.740895 -0.916497,0.740895 h -0.836437 c -0.507739,0 -0.916497,-0.330442 -0.916497,-0.740895 v -3.332121 c 0,-0.410462 0.408758,-0.740905 0.916497,-0.740905 z m -7.586943,0 h 0.836435 c 0.507733,0 0.916484,0.330443 0.916484,0.740905 v 3.332121 c 0,0.410453 -0.408751,0.740895 -0.916484,0.740895 h -0.836435 c -0.50774,0 -0.916498,-0.330442 -0.916498,-0.740895 v -3.332121 c 0,-0.410462 0.408758,-0.740905 0.916498,-0.740905 z m -5.517788,0 h 0.836435 c 0.507739,0 0.916497,0.330443 0.916497,0.740905 v 3.332121 c 0,0.410453 -0.408758,0.740895 -0.916497,0.740895 h -0.836435 c -0.507739,0 -0.916498,-0.330442 -0.916498,-0.740895 v -3.332121 c 0,-0.410462 0.408759,-0.740905 0.916498,-0.740905 z m -7.586957,0 h 0.836435 c 0.507739,0 0.916496,0.330443 0.916496,0.740905 v 3.332121 c 0,0.410453 -0.408757,0.740895 -0.916496,0.740895 h -0.836435 c -0.507741,0 -0.916498,-0.330442 -0.916498,-0.740895 v -3.332121 c 0,-0.410462 0.408757,-0.740905 0.916498,-0.740905 z m -6.552374,0 h 0.836437 c 0.507738,0 0.916496,0.330443 0.916496,0.740905 v 3.332121 c 0,0.410453 -0.408758,0.740895 -0.916496,0.740895 h -0.836437 c -0.507739,0 -0.916495,-0.330442 -0.916495,-0.740895 v -3.332121 c 0,-0.410462 0.408756,-0.740905 0.916495,-0.740905 z m -6.207509,0 h 0.836435 c 0.50774,0 0.916497,0.330443 0.916497,0.740905 v 3.332121 c 0,0.410453 -0.408757,0.740895 -0.916497,0.740895 h -0.836435 c -0.507739,0 -0.916499,-0.330442 -0.916499,-0.740895 v -3.332121 c 0,-0.410462 0.40876,-0.740905 0.916499,-0.740905 z M 5.8279366,70.276536 H 57.383515 c 0.507746,0 0.916503,0.330442 0.916503,0.740895 v 5.98808 c 0,0.410453 -0.408757,0.740896 -0.916503,0.740896 H 5.8279366 c -0.5077388,0 -0.9164961,-0.330443 -0.9164961,-0.740896 v -5.98808 c 0,-0.410453 0.4087573,-0.740895 0.9164961,-0.740895 z M 5.9890648,43.053023 H 57.066259 c 0.511177,0 0.922697,0.330438 0.922697,0.740893 v 25.741725 c 0,0.410452 -0.41152,0.740895 -0.922697,0.740895 H 5.9890648 c -0.5111703,0 -0.9226912,-0.330443 -0.9226912,-0.740895 V 43.793916 c 0,-0.410455 0.4115209,-0.740893 0.9226912,-0.740893 z m 0,-9.129837 H 57.066259 c 0.511171,0 0.922691,0.330439 0.922691,0.740894 v 7.648051 c 0,0.410454 -0.41152,0.740892 -0.922691,0.740892 H 5.9890648 c -0.5111703,0 -0.9226912,-0.330438 -0.9226912,-0.740892 V 34.66408 c 0,-0.410455 0.4115209,-0.740894 0.9226912,-0.740894 z m 0,-28.7174858 H 56.859525 c 0.51117,0 0.92269,0.3304388 0.92269,0.7408946 V 33.182291 c 0,0.410456 -0.41152,0.740894 -0.92269,0.740894 H 5.9890648 c -0.5111703,0 -0.9226912,-0.330438 -0.9226912,-0.740894 V 5.9465948 c 0,-0.4104558 0.4115209,-0.7408946 0.9226912,-0.7408946 z" />
      <path
         style="fill:#000000;stroke-width:0.0258374"
         d="m 28.335915,27.215252 c -0.238217,-0.06178 -0.236115,-0.05516 -0.248567,-0.782866 -0.01248,-0.729251 -0.0021,-0.776626 0.182345,-0.835834 0.107421,-0.03448 0.187726,-0.03649 1.431512,-0.03633 1.447244,2.11e-4 1.45077,4.96e-4 1.558943,0.112386 0.0576,0.05958 0.06231,0.124958 0.05342,0.74102 -0.0089,0.617747 -0.01533,0.680154 -0.07484,0.727926 -0.125504,0.100742 -0.193983,0.105389 -1.545282,0.104924 -1.076237,-3.53e-4 -1.254305,-0.0042 -1.35753,-0.03126 z m 5.460864,0.01616 c -0.110569,-0.01959 -0.177109,-0.0461 -0.24254,-0.09647 -0.05387,-0.0415 -0.06018,-0.120369 -0.06018,-0.752536 v -0.706187 l 0.125887,-0.05818 0.125887,-0.05818 h 1.355642 1.355643 l 0.121087,0.06373 0.121087,0.06373 v 0.687911 c 0,0.57259 -0.0089,0.697849 -0.05341,0.747156 -0.10468,0.116109 -0.08828,0.11481 -1.495786,0.118384 -0.705151,0.0016 -1.314145,-0.0026 -1.353321,-0.0093 z M 18.691341,23.986687 c -0.06595,-0.02117 -0.127489,-0.06164 -0.149529,-0.09834 -0.02554,-0.04256 -0.04536,-1.642746 -0.06231,-5.030491 -0.02341,-4.679837 -0.02129,-4.972065 0.03654,-5.03621 0.120361,-0.133501 -0.03924,-0.127228 3.236027,-0.127228 h 2.937885 l 0.110607,0.05439 c 0.06084,0.02989 0.114478,0.07419 0.119209,0.09841 0.0047,0.02424 0.0087,0.887543 0.0089,1.918504 l 2.69e-4,1.874477 2.221555,0.0048 2.221553,0.0048 -0.0265,-1.87944 c -0.02911,-2.064636 -0.03701,-1.975611 0.181931,-2.051108 0.09565,-0.033 0.409603,-0.03401 8.41671,-0.02809 8.170278,0.0061 8.319966,0.0069 8.464954,0.04288 0.09628,0.02392 0.163319,0.05666 0.192806,0.09414 0.03638,0.0462 0.04035,1.031494 0.02035,5.034366 -0.02682,5.371641 -0.01389,5.059819 -0.212205,5.128209 -0.0866,0.02989 -0.63568,0.03195 -8.448848,0.03195 h -8.356209 l -0.121087,-0.06373 -0.121087,-0.06373 -0.0063,-1.187485 c -0.0035,-0.653114 -0.01063,-1.24231 -0.01589,-1.309322 -0.0053,-0.06701 -0.01043,-0.182994 -0.01148,-0.257742 l -0.0019,-0.135899 h -2.20805 -2.208049 v 1.439175 c 0,1.580835 0.01268,1.489006 -0.214076,1.550727 -0.08883,0.02418 -0.499012,0.02798 -2.998291,0.02793 -2.791769,-6.9e-5 -2.899393,-0.0016 -3.007455,-0.03601 z m 25.451215,-1.177648 c 0.250592,-0.06589 0.251998,-0.07128 0.241157,-0.923148 -0.01044,-0.821481 -0.007,-0.806913 -0.20811,-0.869453 -0.08825,-0.02746 -0.489778,-0.03031 -4.249857,-0.03031 H 35.77334 V 20.367855 19.74958 l 4.157901,-0.0048 c 4.555512,-0.0055 4.230601,0.0026 4.383749,-0.111055 0.05406,-0.04018 0.05986,-0.229909 0.06854,-2.2416 0.01044,-2.423236 0.02231,-2.290944 -0.212115,-2.366167 -0.116986,-0.03754 -0.163034,-0.03786 -6.006574,-0.03791 -6.465557,-6.8e-5 -6.043966,-0.0077 -6.177019,0.110908 -0.05468,0.04874 -0.06076,0.133206 -0.06076,0.845005 0,0.711799 0.0061,0.796284 0.06076,0.84501 0.131569,0.117228 -0.122655,0.110976 4.512079,0.110976 h 4.223742 v 0.552746 0.552746 l -4.253229,0.0048 -4.253233,0.0048 -0.100543,0.03928 c -0.0553,0.0216 -0.120339,0.05957 -0.144534,0.08435 -0.03419,0.03501 -0.04411,0.547344 -0.04452,2.298463 l -5.39e-4,2.253412 0.108552,0.06507 c 0.05971,0.0358 0.143842,0.06867 0.186973,0.07308 0.04313,0.0042 2.714723,0.0091 5.936871,0.01051 5.511819,0.0021 5.865831,5.28e-4 5.983101,-0.03026 z"
         id="path931" />
    </g>
    <g
       id="g1362">
      <g
         id="g3147"
         transform="translate(1.0971777,1.4629036)">
        <path
           id="path2378"
           style="fill:none;stroke:#000000;stroke-width:0.534744;stroke-linecap:round;stroke-linejoin:round;stroke-opacity:0.955017;paint-order:stroke markers fill"
           d="m 9.87424,222.82052 h 43.260985 c 0.550616,0 0.993898,0.35594 0.993898,0.79807 v 20.43364 c 0,0.44213 -0.443282,0.79807 -0.993898,0.79807 H 9.87424 c -0.55062,0 -0.993899,-0.35594 -0.993899,-0.79807 v -20.43364 c 0,-0.44213 0.443279,-0.79807 0.993899,-0.79807 z m 36.820012,62.21878 h 0.836437 c 0.507746,0 0.916497,0.33044 0.916497,0.7409 v 3.33212 c 0,0.41046 -0.408751,0.7409 -0.916497,0.7409 h -0.836437 c -0.507739,0 -0.916497,-0.33044 -0.916497,-0.7409 v -3.33212 c 0,-0.41046 0.408758,-0.7409 0.916497,-0.7409 z m -7.586943,0 h 0.836435 c 0.507733,0 0.916484,0.33044 0.916484,0.7409 v 3.33212 c 0,0.41046 -0.408751,0.7409 -0.916484,0.7409 h -0.836435 c -0.50774,0 -0.916498,-0.33044 -0.916498,-0.7409 v -3.33212 c 0,-0.41046 0.408758,-0.7409 0.916498,-0.7409 z m -5.517788,0 h 0.836435 c 0.507739,0 0.916497,0.33044 0.916497,0.7409 v 3.33212 c 0,0.41046 -0.408758,0.7409 -0.916497,0.7409 h -0.836435 c -0.507739,0 -0.916498,-0.33044 -0.916498,-0.7409 v -3.33212 c 0,-0.41046 0.408759,-0.7409 0.916498,-0.7409 z m -7.586957,0 h 0.836435 c 0.507739,0 0.916496,0.33044 0.916496,0.7409 v 3.33212 c 0,0.41046 -0.408757,0.7409 -0.916496,0.7409 h -0.836435 c -0.507741,0 -0.916498,-0.33044 -0.916498,-0.7409 v -3.33212 c 0,-0.41046 0.408757,-0.7409 0.916498,-0.7409 z m -6.552374,0 h 0.836437 c 0.507738,0 0.916496,0.33044 0.916496,0.7409 v 3.33212 c 0,0.41046 -0.408758,0.7409 -0.916496,0.7409 H 19.45019 c -0.507739,0 -0.916495,-0.33044 -0.916495,-0.7409 v -3.33212 c 0,-0.41046 0.408756,-0.7409 0.916495,-0.7409 z m -6.207509,0 h 0.836435 c 0.50774,0 0.916497,0.33044 0.916497,0.7409 v 3.33212 c 0,0.41046 -0.408757,0.7409 -0.916497,0.7409 h -0.836435 c -0.507739,0 -0.916499,-0.33044 -0.916499,-0.7409 v -3.33212 c 0,-0.41046 0.40876,-0.7409 0.916499,-0.7409 z M 5.6450737,284.04332 H 57.200652 c 0.507746,0 0.916503,0.33044 0.916503,0.7409 v 5.98808 c 0,0.41045 -0.408757,0.74089 -0.916503,0.74089 H 5.6450737 c -0.5077388,0 -0.9164961,-0.33044 -0.9164961,-0.74089 v -5.98808 c 0,-0.41046 0.4087573,-0.7409 0.9164961,-0.7409 z M 5.8062019,256.81981 H 56.883396 c 0.511177,0 0.922697,0.33044 0.922697,0.74089 v 25.74173 c 0,0.41045 -0.41152,0.74089 -0.922697,0.74089 H 5.8062019 c -0.5111703,0 -0.9226912,-0.33044 -0.9226912,-0.74089 V 257.5607 c 0,-0.41045 0.4115209,-0.74089 0.9226912,-0.74089 z m 0,-9.12984 H 56.883396 c 0.511171,0 0.922691,0.33044 0.922691,0.7409 v 7.64805 c 0,0.41045 -0.41152,0.74089 -0.922691,0.74089 H 5.8062019 c -0.5111703,0 -0.9226912,-0.33044 -0.9226912,-0.74089 v -7.64805 c 0,-0.41046 0.4115209,-0.7409 0.9226912,-0.7409 z m 0,-28.71748 H 56.676662 c 0.51117,0 0.92269,0.33044 0.92269,0.74089 v 27.2357 c 0,0.41045 -0.41152,0.74089 -0.92269,0.74089 H 5.8062019 c -0.5111703,0 -0.9226912,-0.33044 -0.9226912,-0.74089 v -27.2357 c 0,-0.41045 0.4115209,-0.74089 0.9226912,-0.74089 z" />
        <path
           style="fill:#ffffff;stroke:#000000;stroke-width:2.23601;stroke-linecap:round;stroke-linejoin:round;stroke-miterlimit:4;stroke-dasharray:none;stroke-opacity:0.955017;paint-order:stroke markers fill"
           d="m 20.042931,1022.2658 c 0,-44.67339 0.110374,-49.73255 1.09323,-50.10971 1.650812,-0.63347 194.020049,-0.48247 195.021129,0.15308 0.6868,0.43604 0.83143,10.88326 0.69113,49.92393 l -0.17743,49.3726 -98.31403,0.1751 -98.314029,0.1752 z"
           id="path2452"
           transform="scale(0.26458333)" />
        <path
           style="fill:#ffffff;stroke:#000000;stroke-width:2.23601;stroke-linecap:round;stroke-linejoin:round;stroke-miterlimit:4;stroke-dasharray:none;stroke-opacity:0.955017;paint-order:stroke markers fill"
           d="m 21.252418,969.18676 c -1.106325,-0.28912 -1.209487,-1.63181 -1.209487,-15.742 0,-13.42887 0.141531,-15.48024 1.09323,-15.84544 1.423825,-0.54638 192.285489,-0.53056 194.325349,0.0161 1.55248,0.41605 1.55505,0.44171 1.55505,15.51679 0,14.22164 -0.0778,15.14168 -1.33683,15.81551 -1.32225,0.70765 -191.73829,0.94175 -194.427312,0.23904 z"
           id="path2509"
           transform="scale(0.26458333)" />
        <path
           style="fill:#ffffff;stroke:#000000;stroke-width:2.23601;stroke-linecap:round;stroke-linejoin:round;stroke-miterlimit:4;stroke-dasharray:none;stroke-opacity:0.955017;paint-order:stroke markers fill"
           d="m 20.90685,934.64867 c -0.680472,-0.27457 -0.863919,-11.47422 -0.863919,-52.74336 0,-47.13961 0.10965,-52.43684 1.09323,-52.81427 2.005818,-0.76971 192.404369,-0.47904 193.852429,0.29594 1.30343,0.69757 1.33684,2.0095 1.33684,52.50198 0,50.49248 -0.0334,51.80441 -1.33684,52.50199 -1.36125,0.72851 -192.286672,0.98205 -194.08174,0.25772 z m 183.53895,-9.2451 1.51259,-1.40919 v -40.1773 c 0,-36.41552 -0.10709,-40.29564 -1.14382,-41.44121 -1.09623,-1.21132 -4.65957,-1.26391 -85.65144,-1.26391 -75.903594,0 -84.618196,0.11058 -85.593689,1.08607 -0.962739,0.96274 -1.08607,5.70654 -1.08607,41.77451 v 40.68844 l 1.536053,1.0759 c 1.369717,0.95939 10.598541,1.07589 85.224916,1.07589 83.26652,0 83.6965,-0.007 85.20146,-1.4092 z"
           id="path2567"
           transform="scale(0.26458333)" />
        <path
           style="fill:#ffffff;stroke:#000000;stroke-width:2.23601;stroke-linecap:round;stroke-linejoin:round;stroke-miterlimit:4;stroke-dasharray:none;stroke-opacity:0.955017;paint-order:stroke markers fill"
           d="m 35.70867,923.58747 c -0.253416,-0.25341 -0.460757,-18.25578 -0.460757,-40.00525 v -39.5445 l 1.555055,-0.41674 c 2.858261,-0.76598 163.609162,-0.49344 165.054052,0.27984 1.29762,0.69447 1.33683,1.868 1.33683,40.01192 0,35.19567 -0.11408,39.34024 -1.09323,39.71598 -1.4987,0.5751 -165.816331,0.53437 -166.39195,-0.0413 z"
           id="path2626"
           transform="scale(0.26458333)" />
        <path
           style="fill:#ffffff;stroke:#000000;stroke-width:2.23601;stroke-linecap:round;stroke-linejoin:round;stroke-miterlimit:4;stroke-dasharray:none;stroke-opacity:0.955017;paint-order:stroke markers fill"
           d="m 19.814894,1099.8294 c -0.254704,-0.2547 -0.463099,-5.8207 -0.463099,-12.3689 0,-10.2189 0.154891,-11.9651 1.09323,-12.3252 0.601276,-0.2307 45.037767,-0.4195 98.747755,-0.4195 82.26325,0 97.77949,0.1505 98.44737,0.9553 0.54483,0.6565 0.73345,4.6021 0.60298,12.6132 l -0.18986,11.6579 -98.88764,0.1752 c -54.3882,0.096 -99.096031,-0.033 -99.350736,-0.288 z m 36.858221,-4.3796 c 1.221214,-1.2212 1.382271,-2.3037 1.382271,-9.2911 0,-7.3893 -0.100907,-7.9795 -1.536053,-8.9848 -1.938602,-1.3578 -8.098843,-1.4176 -9.908371,-0.096 -1.157056,0.845 -1.373156,2.0105 -1.571127,8.4738 -0.208939,6.8214 -0.09587,7.664 1.259651,9.3873 1.296349,1.6481 1.974937,1.8932 5.240275,1.8932 2.829569,0 4.09066,-0.3396 5.133354,-1.3823 z m 23.498609,0 c 1.214723,-1.2147 1.382271,-2.3037 1.382271,-8.9847 0,-9.3304 -0.643333,-10.367 -6.433691,-10.367 -5.733723,0 -6.30858,0.7508 -6.592797,8.6115 -0.381274,10.545 0.465904,12.1225 6.510067,12.1225 2.830365,0 4.091384,-0.3395 5.13415,-1.3823 z m 24.880876,0 c 1.21473,-1.2147 1.38227,-2.3037 1.38227,-8.9847 0,-9.3786 -0.62603,-10.367 -6.565783,-10.367 -5.93975,0 -6.565788,0.9884 -6.565788,10.367 0,9.3785 0.626038,10.367 6.565788,10.367 2.879733,0 4.136343,-0.3351 5.183513,-1.3823 z m 28.18278,0.3064 c 1.43739,-1.0068 1.53605,-1.5915 1.53605,-9.1031 0,-9.8295 -0.41934,-10.555 -6.10013,-10.555 -5.94754,0 -6.34031,0.6464 -6.34031,10.4349 0,7.6357 0.0965,8.2149 1.53606,9.2232 0.84482,0.5918 2.9527,1.0759 4.68416,1.0759 1.73146,0 3.83934,-0.4841 4.68417,-1.0759 z m 21.00621,-0.068 c 1.08507,-0.982 1.26391,-2.27 1.26391,-9.1031 0,-9.7539 -0.42652,-10.4871 -6.10014,-10.4871 -5.94753,0 -6.3403,0.6464 -6.3403,10.4349 0,7.6357 0.0965,8.2149 1.53605,9.2232 2.08854,1.4629 7.99496,1.4213 9.64048,-0.068 z m 28.90933,-0.2385 c 1.21473,-1.2147 1.38227,-2.3037 1.38227,-8.9847 0,-9.3304 -0.64333,-10.367 -6.43369,-10.367 -5.73372,0 -6.30858,0.7508 -6.5928,8.6115 -0.38127,10.545 0.4659,12.1225 6.51007,12.1225 2.83037,0 4.09139,-0.3395 5.13415,-1.3823 z"
           id="path2665"
           transform="scale(0.26458333)" />
        <path
           style="fill:#ffffff;stroke:#000000;stroke-width:2.23601;stroke-linecap:round;stroke-linejoin:round;stroke-miterlimit:4;stroke-dasharray:none;stroke-opacity:0.955017;paint-order:stroke markers fill"
           d="m 174.47714,1093.19 c -0.20133,-0.5247 -0.27591,-3.8852 -0.16573,-7.4679 l 0.20032,-6.5139 h 3.45567 3.45568 v 7.2569 7.2569 l -3.28994,0.2109 c -2.31285,0.1483 -3.39866,-0.072 -3.656,-0.7429 z"
           id="path2821"
           transform="scale(0.26458333)" />
        <path
           style="fill:#ffffff;stroke:#000000;stroke-width:2.23601;stroke-linecap:round;stroke-linejoin:round;stroke-miterlimit:4;stroke-dasharray:none;stroke-opacity:0.955017;paint-order:stroke markers fill"
           d="m 146.14131,1093.1919 c -0.20173,-0.5257 -0.27664,-3.8871 -0.16646,-7.4698 l 0.20032,-6.5139 3.30667,-0.2117 3.30667,-0.2116 -0.19656,7.4686 -0.19656,7.4685 -2.94365,0.2128 c -2.02364,0.1464 -3.05828,-0.086 -3.31043,-0.7429 z"
           id="path2860"
           transform="scale(0.26458333)" />
        <path
           style="fill:#ffffff;stroke:#000000;stroke-width:2.23601;stroke-linecap:round;stroke-linejoin:round;stroke-miterlimit:4;stroke-dasharray:none;stroke-opacity:0.955017;paint-order:stroke markers fill"
           d="m 125.40724,1093.1919 c -0.20173,-0.5257 -0.27663,-3.8871 -0.16646,-7.4698 l 0.20032,-6.5139 h 3.11011 3.11011 v 7.2569 7.2569 l -2.94365,0.2128 c -2.02364,0.1464 -3.05828,-0.086 -3.31043,-0.7429 z"
           id="path2899"
           transform="scale(0.26458333)" />
        <path
           style="fill:#ffffff;stroke:#000000;stroke-width:2.23601;stroke-linecap:round;stroke-linejoin:round;stroke-miterlimit:4;stroke-dasharray:none;stroke-opacity:0.955017;paint-order:stroke markers fill"
           d="m 96.378824,1093.19 c -0.20133,-0.5247 -0.27591,-3.8852 -0.165735,-7.4679 l 0.20032,-6.5139 h 3.455678 3.455673 v 7.2569 7.2569 l -3.28994,0.2109 c -2.312846,0.1483 -3.398658,-0.072 -3.655996,-0.7429 z"
           id="path2938"
           transform="scale(0.26458333)" />
        <path
           style="fill:#ffffff;stroke:#000000;stroke-width:2.23601;stroke-linecap:round;stroke-linejoin:round;stroke-miterlimit:4;stroke-dasharray:none;stroke-opacity:0.955017;paint-order:stroke markers fill"
           d="m 71.497944,1093.19 c -0.20133,-0.5247 -0.27591,-3.8852 -0.165734,-7.4679 l 0.200319,-6.5139 h 3.455678 3.455678 v 7.2569 7.2569 l -3.289943,0.2109 c -2.312848,0.1483 -3.39866,-0.072 -3.655998,-0.7429 z"
           id="path2977"
           transform="scale(0.26458333)" />
        <path
           style="fill:#ffffff;stroke:#000000;stroke-width:2.23601;stroke-linecap:round;stroke-linejoin:round;stroke-miterlimit:4;stroke-dasharray:none;stroke-opacity:0.955017;paint-order:stroke markers fill"
           d="m 48.465655,1093.1347 c -0.551572,-0.6646 -0.763883,-3.1745 -0.631375,-7.4639 l 0.199641,-6.4626 h 3.455677 3.455678 v 7.2569 7.2569 l -2.824303,0.207 c -1.835629,0.1345 -3.115208,-0.1435 -3.655318,-0.7943 z"
           id="path3016"
           transform="scale(0.26458333)" />
      </g>
      <path
         style="fill:#000000;stroke-width:0.0258374"
         d="m 28.335915,243.1099 c -0.238217,-0.0618 -0.236115,-0.0552 -0.248567,-0.78287 -0.01248,-0.72925 -0.0021,-0.77662 0.182345,-0.83583 0.107421,-0.0345 0.187726,-0.0365 1.431512,-0.0363 1.447244,2.1e-4 1.45077,4.9e-4 1.558943,0.11238 0.0576,0.0596 0.06231,0.12496 0.05342,0.74102 -0.0089,0.61775 -0.01533,0.68016 -0.07484,0.72793 -0.125504,0.10074 -0.193983,0.10539 -1.545282,0.10492 -1.076237,-3.5e-4 -1.254305,-0.004 -1.35753,-0.0313 z m 5.460864,0.0162 c -0.110569,-0.0196 -0.177109,-0.0461 -0.24254,-0.0965 -0.05387,-0.0415 -0.06018,-0.12037 -0.06018,-0.75254 v -0.70619 l 0.125887,-0.0582 0.125887,-0.0582 h 1.355642 1.355643 l 0.121087,0.0637 0.121087,0.0637 v 0.68792 c 0,0.57259 -0.0089,0.69784 -0.05341,0.74715 -0.10468,0.11611 -0.08828,0.11481 -1.495786,0.11839 -0.705151,0.002 -1.314145,-0.003 -1.353321,-0.009 z m -15.105438,-3.24473 c -0.06595,-0.0212 -0.127489,-0.0616 -0.149529,-0.0983 -0.02554,-0.0426 -0.04536,-1.64274 -0.06231,-5.03049 -0.02341,-4.67984 -0.02129,-4.97206 0.03654,-5.03621 0.120361,-0.1335 -0.03924,-0.12723 3.236027,-0.12723 h 2.937885 l 0.110607,0.0544 c 0.06084,0.0299 0.114478,0.0742 0.119209,0.0984 0.0047,0.0242 0.0087,0.88755 0.0089,1.91851 l 2.69e-4,1.87447 2.221555,0.005 2.221553,0.005 -0.0265,-1.87944 c -0.02911,-2.06463 -0.03701,-1.97561 0.181931,-2.0511 0.09565,-0.033 0.409603,-0.034 8.41671,-0.0281 8.170278,0.006 8.319966,0.007 8.464954,0.0429 0.09628,0.0239 0.163319,0.0567 0.192806,0.0941 0.03638,0.0462 0.04035,1.03149 0.02035,5.03436 -0.02682,5.37164 -0.01389,5.05982 -0.212205,5.12821 -0.0866,0.0299 -0.63568,0.0319 -8.448848,0.0319 h -8.356209 l -0.121087,-0.0637 -0.121087,-0.0637 -0.0063,-1.18748 c -0.0035,-0.65312 -0.01063,-1.24231 -0.01589,-1.30933 -0.0053,-0.067 -0.01043,-0.18299 -0.01148,-0.25774 l -0.0019,-0.1359 h -2.20805 -2.208049 v 1.43918 c 0,1.58083 0.01268,1.489 -0.214076,1.55073 -0.08883,0.0242 -0.499012,0.028 -2.998291,0.0279 -2.791769,-7e-5 -2.899393,-0.002 -3.007455,-0.036 z m 25.451215,-1.17765 c 0.250592,-0.0659 0.251998,-0.0713 0.241157,-0.92314 -0.01044,-0.82148 -0.007,-0.80692 -0.20811,-0.86946 -0.08825,-0.0275 -0.489778,-0.0303 -4.249857,-0.0303 H 35.77334 v -0.61827 -0.61827 l 4.157901,-0.005 c 4.555512,-0.006 4.230601,0.003 4.383749,-0.11106 0.05406,-0.0402 0.05986,-0.22991 0.06854,-2.2416 0.01044,-2.42324 0.02231,-2.29094 -0.212115,-2.36617 -0.116986,-0.0375 -0.163034,-0.0379 -6.006574,-0.0379 -6.465557,-6e-5 -6.043966,-0.008 -6.177019,0.11091 -0.05468,0.0487 -0.06076,0.13321 -0.06076,0.84501 0,0.7118 0.0061,0.79628 0.06076,0.84501 0.131569,0.11722 -0.122655,0.11097 4.512079,0.11097 h 4.223742 v 0.55275 0.55274 l -4.253229,0.005 -4.253233,0.005 -0.100543,0.0393 c -0.0553,0.0216 -0.120339,0.0596 -0.144534,0.0844 -0.03419,0.035 -0.04411,0.54735 -0.04452,2.29847 l -5.39e-4,2.25341 0.108552,0.0651 c 0.05971,0.0358 0.143842,0.0687 0.186973,0.0731 0.04313,0.004 2.714723,0.009 5.936871,0.0105 5.511819,0.002 5.865831,5.3e-4 5.983101,-0.0303 z"
         id="path1033" />
    </g>
    <g
       id="g1299">
      <g
         id="g4145">
        <path
           id="path3178"
           style="fill:none;stroke:#000000;stroke-width:0.534744;stroke-linecap:round;stroke-linejoin:round;stroke-opacity:0.955017;paint-order:stroke markers fill"
           d="m 153.67929,223.35483 h 43.26099 c 0.55061,0 0.99389,0.35594 0.99389,0.79807 v 20.43363 c 0,0.44213 -0.44328,0.79807 -0.99389,0.79807 h -43.26099 c -0.55062,0 -0.9939,-0.35594 -0.9939,-0.79807 V 224.1529 c 0,-0.44213 0.44328,-0.79807 0.9939,-0.79807 z m 36.82001,62.21877 h 0.83644 c 0.50775,0 0.9165,0.33045 0.9165,0.74091 v 3.33212 c 0,0.41045 -0.40875,0.74089 -0.9165,0.74089 h -0.83644 c -0.50774,0 -0.91649,-0.33044 -0.91649,-0.74089 v -3.33212 c 0,-0.41046 0.40875,-0.74091 0.91649,-0.74091 z m -7.58694,0 h 0.83643 c 0.50774,0 0.91649,0.33045 0.91649,0.74091 v 3.33212 c 0,0.41045 -0.40875,0.74089 -0.91649,0.74089 h -0.83643 c -0.50774,0 -0.9165,-0.33044 -0.9165,-0.74089 v -3.33212 c 0,-0.41046 0.40876,-0.74091 0.9165,-0.74091 z m -5.51779,0 h 0.83644 c 0.50774,0 0.91649,0.33045 0.91649,0.74091 v 3.33212 c 0,0.41045 -0.40875,0.74089 -0.91649,0.74089 h -0.83644 c -0.50774,0 -0.9165,-0.33044 -0.9165,-0.74089 v -3.33212 c 0,-0.41046 0.40876,-0.74091 0.9165,-0.74091 z m -7.58696,0 h 0.83644 c 0.50774,0 0.9165,0.33045 0.9165,0.74091 v 3.33212 c 0,0.41045 -0.40876,0.74089 -0.9165,0.74089 h -0.83644 c -0.50774,0 -0.91649,-0.33044 -0.91649,-0.74089 v -3.33212 c 0,-0.41046 0.40875,-0.74091 0.91649,-0.74091 z m -6.55237,0 h 0.83644 c 0.50774,0 0.91649,0.33045 0.91649,0.74091 v 3.33212 c 0,0.41045 -0.40875,0.74089 -0.91649,0.74089 h -0.83644 c -0.50774,0 -0.91649,-0.33044 -0.91649,-0.74089 v -3.33212 c 0,-0.41046 0.40875,-0.74091 0.91649,-0.74091 z m -6.20751,0 h 0.83644 c 0.50774,0 0.91649,0.33045 0.91649,0.74091 v 3.33212 c 0,0.41045 -0.40875,0.74089 -0.91649,0.74089 h -0.83644 c -0.50774,0 -0.9165,-0.33044 -0.9165,-0.74089 v -3.33212 c 0,-0.41046 0.40876,-0.74091 0.9165,-0.74091 z m -7.59761,-0.99597 h 51.55558 c 0.50775,0 0.91651,0.33044 0.91651,0.74089 v 5.98808 c 0,0.41045 -0.40876,0.7409 -0.91651,0.7409 h -51.55558 c -0.50773,0 -0.91649,-0.33045 -0.91649,-0.7409 v -5.98808 c 0,-0.41045 0.40876,-0.74089 0.91649,-0.74089 z m 0.16113,-27.22352 h 51.0772 c 0.51117,0 0.92269,0.33044 0.92269,0.7409 v 25.74172 c 0,0.41045 -0.41152,0.7409 -0.92269,0.7409 h -51.0772 c -0.51117,0 -0.92269,-0.33045 -0.92269,-0.7409 v -25.74172 c 0,-0.41046 0.41152,-0.7409 0.92269,-0.7409 z m 0,-9.12983 h 51.0772 c 0.51117,0 0.92269,0.33044 0.92269,0.74089 v 7.64805 c 0,0.41046 -0.41152,0.74089 -0.92269,0.74089 h -51.0772 c -0.51117,0 -0.92269,-0.33043 -0.92269,-0.74089 v -7.64805 c 0,-0.41045 0.41152,-0.74089 0.92269,-0.74089 z m 0,-28.71749 h 50.87046 c 0.51117,0 0.92269,0.33044 0.92269,0.7409 v 27.23569 c 0,0.41046 -0.41152,0.7409 -0.92269,0.7409 h -50.87046 c -0.51117,0 -0.92269,-0.33044 -0.92269,-0.7409 v -27.23569 c 0,-0.41046 0.41152,-0.7409 0.92269,-0.7409 z" />
        <path
           style="fill:#374548;stroke:#000000;stroke-width:2.56851;stroke-linecap:round;stroke-linejoin:round;stroke-miterlimit:4;stroke-dasharray:none;stroke-opacity:0.955017;paint-order:stroke markers fill"
           d="m 564.0393,1073.1659 c -0.20934,-0.5475 -0.28799,-22.9668 -0.17476,-49.8207 l 0.20586,-48.82526 h 98.04743 98.04742 v 49.61916 49.6191 l -97.87266,0.2016 c -77.8791,0.1604 -97.95042,0 -98.25329,-0.7939 z"
           id="path3474"
           transform="scale(0.26458333)" />
        <path
           style="fill:#374548;stroke:#000000;stroke-width:2.56851;stroke-linecap:round;stroke-linejoin:round;stroke-miterlimit:4;stroke-dasharray:none;stroke-opacity:0.955017;paint-order:stroke markers fill"
           d="m 564.20585,936.28325 c -0.29282,-0.29282 -0.5324,-24.05327 -0.5324,-52.80102 v -52.26862 l 97.84895,0.2016 97.84895,0.20161 v 52.39781 52.39781 l -97.31656,0.20161 c -53.5241,0.11088 -97.55613,-0.038 -97.84894,-0.3308 z m 183.4772,-8.64879 1.76447,-1.23588 v -40.38749 c 0,-35.65737 -0.14611,-40.53361 -1.24757,-41.63507 -1.11851,-1.11851 -9.98225,-1.24756 -85.68517,-1.24756 -75.70291,0 -84.56666,0.12905 -85.68517,1.24756 -1.10116,1.10117 -1.24757,5.94571 -1.24757,41.28313 0,38.97702 0.042,40.07754 1.58782,41.62337 1.5677,1.5677 2.64635,1.58781 85.16827,1.58781 74.36194,0 83.77508,-0.13631 85.34492,-1.23587 z"
           id="path3552"
           transform="scale(0.26458333)" />
        <path
           style="fill:#6f8a91;stroke:#000000;stroke-width:2.56851;stroke-linecap:round;stroke-linejoin:round;stroke-miterlimit:4;stroke-dasharray:none;stroke-opacity:0.955017;paint-order:stroke markers fill"
           d="m 578.9488,885.80092 0.20582,-39.89379 82.87742,-0.20217 c 60.58114,-0.14778 83.16747,0.0386 83.95559,0.69264 0.88077,0.73098 1.07817,7.84208 1.07817,38.84017 0,20.86995 -0.21685,38.51046 -0.48189,39.20115 -0.43521,1.13412 -8.58901,1.25579 -84.16141,1.25579 h -83.67952 z"
           id="path3628"
           transform="scale(0.26458333)" />
        <path
           style="fill:#a0892c;stroke:#000000;stroke-width:2.56851;stroke-linecap:round;stroke-linejoin:round;stroke-miterlimit:4;stroke-dasharray:none;stroke-opacity:0.955017;paint-order:stroke markers fill"
           d="m 592.45255,1095.8588 c -0.68954,-0.2783 -0.99238,-2.5561 -0.99238,-7.4643 0,-6.8112 0.0688,-7.0812 1.92197,-7.5463 4.38747,-1.1012 4.80721,-0.5084 5.05753,7.1421 0.24307,7.4287 -0.16396,8.4226 -3.40692,8.3194 -0.8733,-0.028 -2.03439,-0.2307 -2.5802,-0.4509 z"
           id="path3704"
           transform="scale(0.26458333)" />
        <path
           style="fill:#a0892c;stroke:#000000;stroke-width:2.56851;stroke-linecap:round;stroke-linejoin:round;stroke-miterlimit:4;stroke-dasharray:none;stroke-opacity:0.955017;paint-order:stroke markers fill"
           d="m 615.61515,1095.3258 c -0.22345,-0.5823 -0.30155,-4.0656 -0.17356,-7.7406 0.23231,-6.67 0.23666,-6.6823 2.46397,-6.9377 3.71551,-0.426 4.51695,0.9467 4.51695,7.7364 0,3.6822 -0.37715,6.4724 -0.95268,7.048 -1.28537,1.2853 -5.34898,1.2117 -5.85468,-0.1061 z"
           id="path3743"
           transform="scale(0.26458333)" />
        <path
           style="fill:#a0892c;stroke:#000000;stroke-width:2.56851;stroke-linecap:round;stroke-linejoin:round;stroke-miterlimit:4;stroke-dasharray:none;stroke-opacity:0.955017;paint-order:stroke markers fill"
           d="m 640.84801,1095.7098 c -0.7425,-0.471 -0.96142,-2.5997 -0.79391,-7.7195 0.25033,-7.6505 0.67007,-8.2433 5.05754,-7.1421 1.85273,0.465 1.92197,0.7362 1.92197,7.5275 0,5.6918 -0.24122,7.1376 -1.25579,7.527 -1.72445,0.6617 -3.70491,0.5842 -4.92981,-0.1929 z"
           id="path3782"
           transform="scale(0.26458333)" />
        <path
           style="fill:#a0892c;stroke:#000000;stroke-width:2.56851;stroke-linecap:round;stroke-linejoin:round;stroke-miterlimit:4;stroke-dasharray:none;stroke-opacity:0.955017;paint-order:stroke markers fill"
           d="m 669.46146,1095.8588 c -0.68898,-0.278 -0.99238,-2.5484 -0.99238,-7.426 0,-6.4098 0.14417,-7.0712 1.64511,-7.5476 0.90481,-0.2872 2.51247,-0.3044 3.57258,-0.038 1.85954,0.4667 1.92746,0.7321 1.92746,7.5289 0,5.6918 -0.24122,7.1376 -1.25579,7.527 -1.44317,0.5538 -3.46056,0.5357 -4.89698,-0.044 z"
           id="path3821"
           transform="scale(0.26458333)" />
        <path
           style="fill:#a0892c;stroke:#000000;stroke-width:2.56851;stroke-linecap:round;stroke-linejoin:round;stroke-miterlimit:4;stroke-dasharray:none;stroke-opacity:0.955017;paint-order:stroke markers fill"
           d="m 718.67974,1095.4677 c -0.61703,-0.6171 -0.98847,-3.279 -0.98847,-7.0838 0,-6.7897 0.80144,-8.1624 4.51695,-7.7364 l 2.23125,0.2559 v 7.5421 7.5421 l -2.38563,0.2343 c -1.31209,0.1288 -2.83043,-0.2106 -3.3741,-0.7542 z"
           id="path3860"
           transform="scale(0.26458333)" />
        <path
           style="fill:#a0892c;stroke:#000000;stroke-width:2.56851;stroke-linecap:round;stroke-linejoin:round;stroke-miterlimit:4;stroke-dasharray:none;stroke-opacity:0.955017;paint-order:stroke markers fill"
           d="m 690.09912,1095.4677 c -0.62954,-0.6296 -0.98848,-3.3758 -0.98848,-7.5628 0,-6.2932 0.0822,-6.5949 1.92197,-7.0567 4.47796,-1.1239 4.82623,-0.5749 4.82623,7.6082 v 7.5312 l -2.38562,0.2343 c -1.31209,0.1288 -2.83044,-0.2106 -3.3741,-0.7542 z"
           id="path3938"
           transform="scale(0.26458333)" />
        <path
           style="fill:#53676c;stroke:#000000;stroke-width:2.56851;stroke-linecap:round;stroke-linejoin:round;stroke-miterlimit:4;stroke-dasharray:none;stroke-opacity:0.955017;paint-order:stroke markers fill"
           d="m 563.87193,1102.21 c -0.73369,-0.296 -0.99239,-3.5917 -0.99239,-12.6429 v -12.2424 l 99.43676,0.2015 99.43676,0.2016 0.22145,11.5055 c 0.19486,10.1242 0.0576,11.6253 -1.14412,12.504 -1.08047,0.79 -21.67961,0.9854 -98.66582,0.9358 -53.51514,-0.034 -97.74683,-0.2428 -98.29264,-0.4631 z m 36.45717,-4.7576 c 2.03717,-1.8436 2.14378,-15.6594 0.13795,-17.8758 -1.54047,-1.7022 -8.88173,-2.0534 -10.43591,-0.4992 -0.62282,0.6228 -0.95269,3.9078 -0.95269,9.4874 0,7.2908 0.2025,8.6527 1.38934,9.344 2.23194,1.3 8.22712,1.0225 9.86131,-0.4564 z m 22.93951,0.492 c 1.37443,-0.7355 1.53562,-1.7326 1.53562,-9.4989 0,-9.9086 -0.26514,-10.3208 -6.6393,-10.3208 -5.40899,0 -6.0632,1.0916 -6.0632,10.1165 0,9.1823 0.78198,10.5251 6.12954,10.5251 1.92595,0 4.19275,-0.3699 5.03734,-0.8219 z m 25.91691,-1.5598 c 1.29395,-2.5674 1.29418,-13.3101 3.4e-4,-15.8782 -0.84944,-1.686 -1.63756,-2.0213 -5.23548,-2.2277 -6.47154,-0.3713 -7.23755,0.6902 -7.23755,10.0289 0,9.5819 0.72321,10.6333 7.08177,10.2952 3.76915,-0.2004 4.53219,-0.5144 5.39092,-2.2182 z m 28.36847,0.6172 c 0.88475,-1.2632 1.23587,-3.6941 1.23587,-8.5563 0,-8.9631 -0.88771,-10.3208 -6.7482,-10.3208 -5.86049,0 -6.74821,1.3577 -6.74821,10.3208 0,8.9631 0.88772,10.3208 6.74821,10.3208 3.51917,0 4.49529,-0.3125 5.51233,-1.7645 z m 20.42558,0.4506 c 1.21278,-1.0976 1.45185,-2.558 1.45185,-8.869 0,-9.1095 -0.7907,-10.4587 -6.12953,-10.4587 -6.29971,0 -6.57297,0.4286 -6.57297,10.3093 0,7.4154 0.20044,8.7823 1.38934,9.4748 2.23194,1.3 8.22712,1.0225 9.86131,-0.4564 z m 28.78491,0.066 c 0.9654,-0.9654 1.24757,-3.0175 1.24757,-9.0732 0,-9.2494 -0.62942,-10.3208 -6.0632,-10.3208 -6.37296,0 -6.6393,0.4136 -6.6393,10.3093 0,7.4154 0.20044,8.7823 1.38933,9.4748 2.20401,1.2837 8.64128,1.0342 10.0656,-0.3901 z"
           id="path4014"
           transform="scale(0.26458333)" />
        <path
           style="fill:#1c2422;stroke:#000000;stroke-width:2.56851;stroke-linecap:round;stroke-linejoin:round;stroke-opacity:0.955017;paint-order:stroke markers fill"
           d="m 563.67347,955.55428 c 0,-13.30982 0.1704,-15.46474 1.25579,-15.88124 1.64271,-0.63037 191.50898,-0.60795 193.86349,0.0229 l 1.80308,0.4831 -0.21527,15.18571 -0.21528,15.1857 -98.24591,0.20159 -98.2459,0.20159 z"
           id="path1146"
           transform="scale(0.26458333)" />
      </g>
      <path
         style="fill:#3771c8;stroke-width:0.0258374"
         d="m 173.31298,241.76335 c -0.23822,-0.0618 -0.23612,-0.0552 -0.24857,-0.78287 -0.0125,-0.72925 -0.002,-0.77662 0.18235,-0.83583 0.10742,-0.0345 0.18772,-0.0365 1.43151,-0.0363 1.44724,2.1e-4 1.45077,5e-4 1.55894,0.11239 0.0576,0.0596 0.0623,0.12495 0.0534,0.74102 -0.009,0.61774 -0.0153,0.68015 -0.0748,0.72792 -0.1255,0.10074 -0.19398,0.10539 -1.54528,0.10493 -1.07624,-3.6e-4 -1.25431,-0.004 -1.35753,-0.0313 z m 5.46086,0.0162 c -0.11057,-0.0196 -0.17711,-0.0461 -0.24254,-0.0965 -0.0539,-0.0415 -0.0602,-0.12037 -0.0602,-0.75254 v -0.70618 l 0.12589,-0.0582 0.12589,-0.0582 h 1.35564 1.35564 l 0.12109,0.0637 0.12109,0.0637 v 0.68791 c 0,0.57259 -0.009,0.69785 -0.0534,0.74715 -0.10468,0.11611 -0.0883,0.11481 -1.49579,0.11839 -0.70515,0.002 -1.31415,-0.003 -1.35332,-0.009 z m -15.10544,-3.24472 c -0.0659,-0.0212 -0.12748,-0.0616 -0.14952,-0.0983 -0.0255,-0.0426 -0.0454,-1.64275 -0.0623,-5.0305 -0.0234,-4.67983 -0.0213,-4.97206 0.0365,-5.03621 0.12036,-0.1335 -0.0392,-0.12722 3.23602,-0.12722 h 2.93789 l 0.1106,0.0544 c 0.0608,0.0299 0.11448,0.0742 0.11921,0.0984 0.005,0.0242 0.009,0.88754 0.009,1.9185 l 2.7e-4,1.87448 2.22156,0.005 2.22155,0.005 -0.0265,-1.87944 c -0.0291,-2.06464 -0.037,-1.97561 0.18193,-2.05111 0.0957,-0.033 0.4096,-0.034 8.41671,-0.0281 8.17028,0.006 8.31997,0.007 8.46496,0.0429 0.0963,0.0239 0.16331,0.0567 0.1928,0.0941 0.0364,0.0462 0.0403,1.03149 0.0203,5.03437 -0.0268,5.37164 -0.0139,5.05981 -0.2122,5.1282 -0.0866,0.0299 -0.63568,0.032 -8.44885,0.032 h -8.35621 l -0.12109,-0.0637 -0.12108,-0.0637 -0.006,-1.18748 c -0.004,-0.65311 -0.0106,-1.24231 -0.0159,-1.30932 -0.005,-0.067 -0.0104,-0.183 -0.0115,-0.25774 l -0.002,-0.1359 h -2.20805 -2.20805 v 1.43917 c 0,1.58084 0.0127,1.48901 -0.21408,1.55073 -0.0888,0.0242 -0.49901,0.028 -2.99829,0.0279 -2.79177,-7e-5 -2.89939,-0.002 -3.00746,-0.036 z m 25.45122,-1.17765 c 0.25059,-0.0659 0.252,-0.0713 0.24116,-0.92315 -0.0104,-0.82148 -0.007,-0.80691 -0.20811,-0.86945 -0.0882,-0.0275 -0.48978,-0.0303 -4.24986,-0.0303 h -4.15241 v -0.61833 -0.61827 l 4.1579,-0.005 c 4.55552,-0.005 4.23061,0.003 4.38375,-0.11106 0.0541,-0.0402 0.0599,-0.22991 0.0685,-2.2416 0.0104,-2.42323 0.0223,-2.29094 -0.21211,-2.36616 -0.11699,-0.0375 -0.16304,-0.0379 -6.00658,-0.0379 -6.46555,-7e-5 -6.04396,-0.008 -6.17701,0.1109 -0.0547,0.0487 -0.0608,0.13321 -0.0608,0.84501 0,0.7118 0.006,0.79628 0.0608,0.84501 0.13156,0.11723 -0.12266,0.11098 4.51207,0.11098 h 4.22375 v 0.55274 0.55275 l -4.25323,0.005 -4.25324,0.005 -0.10054,0.0393 c -0.0553,0.0216 -0.12034,0.0596 -0.14453,0.0844 -0.0342,0.035 -0.0441,0.54734 -0.0445,2.29846 l -5.4e-4,2.25341 0.10855,0.0651 c 0.0597,0.0358 0.14384,0.0687 0.18697,0.0731 0.0431,0.004 2.71473,0.009 5.93687,0.0105 5.51182,0.002 5.86584,5.3e-4 5.98311,-0.0303 z"
         id="path1031" />
    </g>
    <g
       id="g1438">
      <g
         id="g2360"
         style="stroke-width:1.3;stroke-miterlimit:4;stroke-dasharray:none">
        <path
           id="path1604"
           style="fill:none;stroke:#000000;stroke-width:1.3;stroke-linecap:round;stroke-linejoin:round;stroke-opacity:0.955017;paint-order:stroke markers fill;stroke-miterlimit:4;stroke-dasharray:none"
           d="m 151.01786,8.5031085 h 43.26098 c 0.55062,0 0.9939,0.3559403 0.9939,0.7980709 V 29.734811 c 0,0.442131 -0.44328,0.798071 -0.9939,0.798071 h -43.26098 c -0.55062,0 -0.9939,-0.35594 -0.9939,-0.798071 V 9.3011794 c 0,-0.4421306 0.44328,-0.7980709 0.9939,-0.7980709 z m 36.82001,62.2187755 h 0.83644 c 0.50774,0 0.91649,0.330443 0.91649,0.740905 v 3.332121 c 0,0.410453 -0.40875,0.740895 -0.91649,0.740895 h -0.83644 c -0.50774,0 -0.9165,-0.330442 -0.9165,-0.740895 v -3.332121 c 0,-0.410462 0.40876,-0.740905 0.9165,-0.740905 z m -7.58694,0 h 0.83643 c 0.50774,0 0.91649,0.330443 0.91649,0.740905 v 3.332121 c 0,0.410453 -0.40875,0.740895 -0.91649,0.740895 h -0.83643 c -0.50774,0 -0.9165,-0.330442 -0.9165,-0.740895 v -3.332121 c 0,-0.410462 0.40876,-0.740905 0.9165,-0.740905 z m -5.51779,0 h 0.83643 c 0.50774,0 0.9165,0.330443 0.9165,0.740905 v 3.332121 c 0,0.410453 -0.40876,0.740895 -0.9165,0.740895 h -0.83643 c -0.50774,0 -0.9165,-0.330442 -0.9165,-0.740895 v -3.332121 c 0,-0.410462 0.40876,-0.740905 0.9165,-0.740905 z m -7.58696,0 h 0.83644 c 0.50774,0 0.91649,0.330443 0.91649,0.740905 v 3.332121 c 0,0.410453 -0.40875,0.740895 -0.91649,0.740895 h -0.83644 c -0.50774,0 -0.9165,-0.330442 -0.9165,-0.740895 v -3.332121 c 0,-0.410462 0.40876,-0.740905 0.9165,-0.740905 z m -6.55237,0 h 0.83644 c 0.50773,0 0.91649,0.330443 0.91649,0.740905 v 3.332121 c 0,0.410453 -0.40876,0.740895 -0.91649,0.740895 h -0.83644 c -0.50774,0 -0.9165,-0.330442 -0.9165,-0.740895 v -3.332121 c 0,-0.410462 0.40876,-0.740905 0.9165,-0.740905 z m -6.20751,0 h 0.83643 c 0.50774,0 0.9165,0.330443 0.9165,0.740905 v 3.332121 c 0,0.410453 -0.40876,0.740895 -0.9165,0.740895 h -0.83643 c -0.50774,0 -0.9165,-0.330442 -0.9165,-0.740895 v -3.332121 c 0,-0.410462 0.40876,-0.740905 0.9165,-0.740905 z m -7.59761,-0.995976 h 51.55558 c 0.50775,0 0.9165,0.330442 0.9165,0.740895 v 5.98808 c 0,0.410453 -0.40875,0.740896 -0.9165,0.740896 h -51.55558 c -0.50774,0 -0.91649,-0.330443 -0.91649,-0.740896 v -5.98808 c 0,-0.410453 0.40875,-0.740895 0.91649,-0.740895 z m 0.16113,-27.223513 h 51.07719 c 0.51118,0 0.9227,0.330438 0.9227,0.740893 v 25.741725 c 0,0.410452 -0.41152,0.740895 -0.9227,0.740895 h -51.07719 c -0.51117,0 -0.92269,-0.330443 -0.92269,-0.740895 V 43.243288 c 0,-0.410455 0.41152,-0.740893 0.92269,-0.740893 z m 0,-9.129837 h 51.07719 c 0.51118,0 0.9227,0.330439 0.9227,0.740894 v 7.648051 c 0,0.410454 -0.41152,0.740892 -0.9227,0.740892 h -51.07719 c -0.51117,0 -0.92269,-0.330438 -0.92269,-0.740892 v -7.648051 c 0,-0.410455 0.41152,-0.740894 0.92269,-0.740894 z m 0,-28.7174858 h 50.87046 c 0.51117,0 0.92269,0.3304388 0.92269,0.7408946 V 32.631663 c 0,0.410456 -0.41152,0.740894 -0.92269,0.740894 h -50.87046 c -0.51117,0 -0.92269,-0.330438 -0.92269,-0.740894 V 5.3959668 c 0,-0.4104558 0.41152,-0.7408946 0.92269,-0.7408946 z" />
        <path
           style="fill:#000000;stroke:#000000;stroke-width:4.91338589;stroke-linecap:round;stroke-linejoin:round;stroke-miterlimit:4;stroke-dasharray:none;stroke-opacity:0.955017;paint-order:stroke markers fill"
           d="m 554.27521,261.5319 c -0.38446,-0.38445 -0.69901,-22.86286 -0.69901,-49.95203 v -49.25302 h 98.3427 98.3427 l -0.27022,49.68659 -0.27023,49.68659 -97.37347,0.26544 c -53.55541,0.14599 -97.68802,-0.0491 -98.07247,-0.43357 z"
           id="path1719"
           transform="scale(0.26458333)" />
        <path
           style="fill:#000000;stroke:#000000;stroke-width:4.91338589;stroke-linecap:round;stroke-linejoin:round;stroke-miterlimit:4;stroke-dasharray:none;stroke-opacity:0.955017;paint-order:stroke markers fill"
           d="m 554.27521,158.51678 c -0.38446,-0.38445 -0.69901,-7.4106 -0.69901,-15.61365 v -14.91465 h 98.36043 98.36043 l -0.28796,15.34821 -0.28795,15.34822 -97.37347,0.26544 c -53.55541,0.14599 -97.68802,-0.0491 -98.07247,-0.43357 z"
           id="path1882"
           transform="scale(0.26458333)" />
        <path
           style="fill:#000000;stroke:#000000;stroke-width:4.91338589;stroke-linecap:round;stroke-linejoin:round;stroke-miterlimit:4;stroke-dasharray:none;stroke-opacity:0.955017;paint-order:stroke markers fill"
           d="m 582.4127,283.42606 c -1.17259,-1.17259 -0.86204,-13.72452 0.35823,-14.47869 0.60483,-0.37381 2.26478,-0.38723 3.68877,-0.0298 2.47824,0.622 2.57593,0.94913 2.28211,7.642 -0.29048,6.61672 -0.44874,7.00871 -2.9473,7.30009 -1.45218,0.16935 -2.97399,-0.0258 -3.38181,-0.43357 z"
           id="path1929"
           transform="scale(0.26458333)" />
        <path
           style="fill:#000000;stroke:#000000;stroke-width:4.91338589;stroke-linecap:round;stroke-linejoin:round;stroke-miterlimit:4;stroke-dasharray:none;stroke-opacity:0.955017;paint-order:stroke markers fill"
           d="m 605.05459,283.1791 c -0.20133,-0.52466 -0.27591,-3.8852 -0.16574,-7.46786 l 0.20032,-6.51394 h 3.45568 3.45568 v 7.25692 7.25692 l -3.28994,0.21094 c -2.31285,0.14829 -3.39866,-0.0724 -3.656,-0.74298 z"
           id="path2007"
           transform="scale(0.26458333)" />
        <path
           style="fill:#000000;stroke:#000000;stroke-width:4.91338589;stroke-linecap:round;stroke-linejoin:round;stroke-miterlimit:4;stroke-dasharray:none;stroke-opacity:0.955017;paint-order:stroke markers fill"
           d="m 629.92083,283.14094 c -0.19328,-0.50367 -0.26127,-3.84704 -0.1511,-7.4297 l 0.20032,-6.51394 h 3.45568 3.45568 l 0.20392,5.87465 c 0.29458,8.48644 0.0897,8.98476 -3.69446,8.98476 -1.95151,0 -3.25014,-0.34272 -3.47004,-0.91577 z"
           id="path2046"
           transform="scale(0.26458333)" />
        <path
           style="fill:#000000;stroke:#000000;stroke-width:4.91338589;stroke-linecap:round;stroke-linejoin:round;stroke-miterlimit:4;stroke-dasharray:none;stroke-opacity:0.955017;paint-order:stroke markers fill"
           d="m 708.03379,283.1791 c -0.20133,-0.52466 -0.27592,-3.8852 -0.16574,-7.46786 l 0.20032,-6.51394 h 3.45568 3.45568 v 7.25692 7.25692 l -3.28995,0.21094 c -2.31284,0.14829 -3.39866,-0.0724 -3.65599,-0.74298 z"
           id="path2085"
           transform="scale(0.26458333)" />
        <path
           style="fill:#000000;stroke:#000000;stroke-width:4.91338589;stroke-linecap:round;stroke-linejoin:round;stroke-miterlimit:4;stroke-dasharray:none;stroke-opacity:0.955017;paint-order:stroke markers fill"
           d="m 679.69795,283.18099 c -0.20173,-0.52569 -0.27663,-3.88709 -0.16646,-7.46975 l 0.20032,-6.51394 h 3.11011 3.11011 v 7.25692 7.25692 l -2.94365,0.21283 c -2.02364,0.14632 -3.05828,-0.0859 -3.31043,-0.74298 z"
           id="path2124"
           transform="scale(0.26458333)" />
        <path
           style="fill:#000000;stroke:#000000;stroke-width:4.91338589;stroke-linecap:round;stroke-linejoin:round;stroke-miterlimit:4;stroke-dasharray:none;stroke-opacity:0.955017;paint-order:stroke markers fill"
           d="m 658.82185,283.2588 c -0.98308,-0.98309 -1.19881,-12.11283 -0.26337,-13.58799 0.37239,-0.58725 1.65233,-0.83176 3.61787,-0.69113 l 3.04162,0.21762 v 7.25692 7.25692 l -2.76765,0.20423 c -1.55422,0.11469 -3.14507,-0.17317 -3.62847,-0.65657 z"
           id="path2163"
           transform="scale(0.26458333)" />
        <path
           style="fill:#000000;stroke:#000000;stroke-width:4.91338589;stroke-linecap:round;stroke-linejoin:round;stroke-miterlimit:4;stroke-dasharray:none;stroke-opacity:0.955017;paint-order:stroke markers fill"
           d="m 554.46349,124.63781 c -0.68047,-0.27458 -0.86392,-11.47423 -0.86392,-52.743364 0,-47.139605 0.10966,-52.43684 1.09323,-52.814275 2.00582,-0.769704 192.40437,-0.479036 193.85244,0.295941 1.30343,0.697575 1.33683,2.009505 1.33683,52.501985 0,50.492483 -0.0334,51.804413 -1.33683,52.501983 -1.36125,0.72852 -192.28668,0.98205 -194.08175,0.25773 z m 183.2305,-9.26834 1.82105,-1.43243 V 74.055123 c 0,-34.977669 -0.13231,-40.070804 -1.07589,-41.41797 l -1.0759,-1.536053 h -84.49281 c -71.88114,0 -84.69307,0.146426 -85.83441,0.98099 -1.30163,0.951774 -1.34158,2.188574 -1.34158,41.529197 V 114.1595 l 1.63162,1.3212 c 1.58635,1.28455 3.94715,1.32121 85.08925,1.32121 83.38532,0 83.45921,-0.001 85.27867,-1.43244 z"
           id="path2216"
           transform="scale(0.26458333)" />
      </g>
      <path
         style="fill:#000000;stroke-width:0.0258374"
         d="m 167.47799,24.971025 c -0.23821,-0.06178 -0.23611,-0.05516 -0.24856,-0.782866 -0.0125,-0.729251 -0.002,-0.776626 0.18234,-0.835834 0.10742,-0.03448 0.18773,-0.03649 1.43151,-0.03633 1.44725,2.11e-4 1.45077,4.96e-4 1.55895,0.112386 0.0576,0.05958 0.0623,0.124958 0.0534,0.74102 -0.009,0.617747 -0.0153,0.680154 -0.0748,0.727926 -0.12551,0.100742 -0.19399,0.105389 -1.54528,0.104924 -1.07624,-3.53e-4 -1.25431,-0.0042 -1.35753,-0.03126 z m 5.46087,0.01616 c -0.11057,-0.01959 -0.17711,-0.0461 -0.24254,-0.09647 -0.0539,-0.0415 -0.0602,-0.120369 -0.0602,-0.752536 v -0.706187 l 0.12589,-0.05818 0.12588,-0.05818 h 1.35564 1.35565 l 0.12108,0.06373 0.12109,0.06373 v 0.687911 c 0,0.57259 -0.009,0.697849 -0.0534,0.747156 -0.10468,0.116109 -0.0883,0.11481 -1.49578,0.118384 -0.70516,0.0016 -1.31415,-0.0026 -1.35333,-0.0093 z M 157.83342,21.74246 c -0.0659,-0.02117 -0.12749,-0.06164 -0.14953,-0.09834 -0.0255,-0.04256 -0.0454,-1.642746 -0.0623,-5.030491 -0.0234,-4.679837 -0.0213,-4.972065 0.0365,-5.03621 0.12036,-0.133501 -0.0392,-0.127228 3.23603,-0.127228 h 2.93788 l 0.11061,0.05439 c 0.0608,0.02989 0.11448,0.07419 0.11921,0.09841 0.005,0.02424 0.009,0.887543 0.009,1.918504 l 2.7e-4,1.874477 2.22155,0.0048 2.22156,0.0048 -0.0265,-1.87944 c -0.0291,-2.064636 -0.037,-1.975611 0.18193,-2.051108 0.0957,-0.033 0.4096,-0.03401 8.41671,-0.02809 8.17028,0.0061 8.31996,0.0069 8.46495,0.04288 0.0963,0.02392 0.16332,0.05666 0.19281,0.09414 0.0364,0.0462 0.0403,1.031494 0.0203,5.034366 -0.0268,5.371641 -0.0139,5.059819 -0.21221,5.128209 -0.0866,0.02989 -0.63568,0.03195 -8.44885,0.03195 h -8.3562 l -0.12109,-0.06373 -0.12109,-0.06373 -0.006,-1.187485 c -0.004,-0.653114 -0.0106,-1.24231 -0.0159,-1.309322 -0.005,-0.06701 -0.0104,-0.182994 -0.0115,-0.257742 l -0.002,-0.135899 h -2.20805 -2.20805 v 1.439175 c 0,1.580835 0.0127,1.489006 -0.21407,1.550727 -0.0888,0.02418 -0.49902,0.02798 -2.99829,0.02793 -2.79177,-6.9e-5 -2.8994,-0.0016 -3.00746,-0.03601 z m 25.45122,-1.177648 c 0.25059,-0.06589 0.25199,-0.07128 0.24115,-0.923148 -0.0104,-0.821481 -0.007,-0.806913 -0.20811,-0.869453 -0.0882,-0.02746 -0.48978,-0.03031 -4.24985,-0.03031 h -4.15241 v -0.618273 -0.618275 l 4.1579,-0.0048 c 4.55551,-0.0055 4.2306,0.0026 4.38375,-0.111055 0.0541,-0.04018 0.0599,-0.229909 0.0685,-2.2416 0.0104,-2.423236 0.0223,-2.290944 -0.21212,-2.366167 -0.11698,-0.03754 -0.16303,-0.03786 -6.00657,-0.03791 -6.46556,-6.8e-5 -6.04397,-0.0077 -6.17702,0.110908 -0.0547,0.04874 -0.0608,0.133206 -0.0608,0.845005 0,0.711799 0.006,0.796284 0.0608,0.84501 0.13157,0.117228 -0.12265,0.110976 4.51208,0.110976 h 4.22374 v 0.552746 0.552746 l -4.25323,0.0048 -4.25323,0.0048 -0.10054,0.03928 c -0.0553,0.0216 -0.12034,0.05957 -0.14454,0.08435 -0.0342,0.03501 -0.0441,0.547344 -0.0445,2.298463 l -5.4e-4,2.253412 0.10856,0.06507 c 0.0597,0.0358 0.14384,0.06867 0.18697,0.07308 0.0431,0.0042 2.71472,0.0091 5.93687,0.01051 5.51182,0.0021 5.86583,5.28e-4 5.9831,-0.03026 z"
         id="path1035" />
    </g>
  </g>
</svg>
