<?xml version="1.0" encoding="UTF-8" standalone="no"?>
<!-- Created with Inkscape (http://www.inkscape.org/) -->

<svg
   width="210mm"
   height="297mm"
   viewBox="0 0 210 297"
   version="1.1"
   id="svg5"
   inkscape:version="1.1.1 (3bf5ae0d25, 2021-09-20)"
   sodipodi:docname="memory card box icon svg.svg"
   xmlns:inkscape="http://www.inkscape.org/namespaces/inkscape"
   xmlns:sodipodi="http://sodipodi.sourceforge.net/DTD/sodipodi-0.dtd"
   xmlns="http://www.w3.org/2000/svg"
   xmlns:svg="http://www.w3.org/2000/svg">
  <sodipodi:namedview
     id="namedview7"
     pagecolor="#ffffff"
     bordercolor="#666666"
     borderopacity="1.0"
     inkscape:pageshadow="2"
     inkscape:pageopacity="0.0"
     inkscape:pagecheckerboard="0"
     inkscape:document-units="mm"
     showgrid="false"
     inkscape:zoom="1.5219183"
     inkscape:cx="783.22206"
     inkscape:cy="195.47698"
     inkscape:window-width="1680"
     inkscape:window-height="956"
     inkscape:window-x="-11"
     inkscape:window-y="-11"
     inkscape:window-maximized="1"
     inkscape:current-layer="layer1"
     showguides="true"
     inkscape:guide-bbox="true" />
  <defs
     id="defs2">
    <inkscape:path-effect
       effect="spiro"
       id="path-effect3301"
       is_visible="true"
       lpeversion="1" />
    <inkscape:path-effect
       effect="spiro"
       id="path-effect3215"
       is_visible="true"
       lpeversion="1" />
    <inkscape:path-effect
       effect="spiro"
       id="path-effect3211"
       is_visible="true"
       lpeversion="1" />
    <inkscape:path-effect
       effect="spiro"
       id="path-effect3094"
       is_visible="true"
       lpeversion="1" />
    <inkscape:path-effect
       effect="spiro"
       id="path-effect3088"
       is_visible="true"
       lpeversion="1" />
    <inkscape:path-effect
       effect="spiro"
       id="path-effect3051"
       is_visible="true"
       lpeversion="1" />
    <inkscape:path-effect
       effect="spiro"
       id="path-effect3045"
       is_visible="true"
       lpeversion="1" />
    <inkscape:path-effect
       effect="spiro"
       id="path-effect2959"
       is_visible="true"
       lpeversion="1" />
    <inkscape:path-effect
       effect="spiro"
       id="path-effect2562"
       is_visible="true"
       lpeversion="1" />
    <inkscape:path-effect
       effect="spiro"
       id="path-effect2558"
       is_visible="true"
       lpeversion="1" />
    <inkscape:path-effect
       effect="spiro"
       id="path-effect2361"
       is_visible="true"
       lpeversion="1" />
    <inkscape:path-effect
       effect="spiro"
       id="path-effect1889"
       is_visible="true"
       lpeversion="1" />
    <inkscape:path-effect
       effect="spiro"
       id="path-effect1885"
       is_visible="true"
       lpeversion="1" />
    <inkscape:path-effect
       effect="spiro"
       id="path-effect1768"
       is_visible="true"
       lpeversion="1" />
    <inkscape:path-effect
       effect="spiro"
       id="path-effect1682"
       is_visible="true"
       lpeversion="1" />
    <inkscape:path-effect
       effect="spiro"
       id="path-effect1678"
       is_visible="true"
       lpeversion="1" />
    <inkscape:path-effect
       effect="spiro"
       id="path-effect1481"
       is_visible="true"
       lpeversion="1" />
    <inkscape:path-effect
       effect="spiro"
       id="path-effect1475"
       is_visible="true"
       lpeversion="1" />
    <inkscape:path-effect
       effect="rough_hatches"
       id="path-effect2461"
       is_visible="true"
       lpeversion="1"
       direction="69.99843,260.92094 , 8.1437712,0"
       dist_rdm="6;1"
       growth="0"
       do_bend="true"
       bender="69.99843,265.92094 , 5,0"
       bottom_edge_variation="1.4602372;1"
       top_edge_variation="1.4602372;1"
       bottom_tgt_variation="0;1"
       top_tgt_variation="0;1"
       scale_bf="1"
       scale_bb="1"
       scale_tf="1"
       scale_tb="1"
       top_smth_variation="0;1"
       bottom_smth_variation="0;1"
       fat_output="true"
       stroke_width_top="1"
       stroke_width_bottom="1"
       front_thickness="1"
       back_thickness="0.25" />
    <inkscape:path-effect
       effect="skeletal"
       id="path-effect1945"
       is_visible="true"
       lpeversion="1"
       pattern="m 33.860958,87.614548 h 14.800324 c 5.651367,0 10.201025,4.549657 10.201025,10.201025 v 12.157417 c 0,5.65137 -4.549658,10.20103 -10.201025,10.20103 H 33.860958 c -5.651368,0 -10.201025,-4.54966 -10.201025,-10.20103 V 97.815573 c 0,-5.651368 4.549657,-10.201025 10.201025,-10.201025 z"
       copytype="repeated"
       prop_scale="1.28"
       scale_y_rel="false"
       spacing="2.6"
       normal_offset="0"
       tang_offset="0"
       prop_units="false"
       vertical_pattern="false"
       hide_knot="false"
       fuse_tolerance="0" />
    <inkscape:path-effect
       effect="skeletal"
       id="path-effect1762"
       is_visible="true"
       lpeversion="1"
       pattern="#rect1629"
       copytype="repeated"
       prop_scale="1"
       scale_y_rel="false"
       spacing="0"
       normal_offset="0"
       tang_offset="0"
       prop_units="false"
       vertical_pattern="false"
       hide_knot="false"
       fuse_tolerance="0" />
  </defs>
  <g
     inkscape:label="Layer 1"
     inkscape:groupmode="layer"
     id="layer1">
    <path
       style="fill:#917c6f;stroke:#000000;stroke-width:14.443;stroke-linecap:round;stroke-linejoin:round;stroke-opacity:0.955017;paint-order:stroke markers fill"
       d=""
       id="path1102"
       transform="scale(0.26458333)" />
    <path
       style="fill:#917c6f;stroke:#000000;stroke-width:14.443;stroke-linecap:round;stroke-linejoin:round;stroke-opacity:0.955017;paint-order:stroke markers fill"
       d=""
       id="path1570"
       transform="scale(0.26458333)" />
    <path
       style="fill:#6c5353;stroke:#000000;stroke-width:2.49623;stroke-linecap:round;stroke-linejoin:round;stroke-opacity:0.955017;paint-order:stroke markers fill"
       d=""
       id="path1429"
       transform="scale(0.26458333)" />
    <path
       style="fill:#6c5353;stroke:#000000;stroke-width:2.49623;stroke-linecap:round;stroke-linejoin:round;stroke-opacity:0.955017;paint-order:stroke markers fill"
       d=""
       id="path1585"
       transform="scale(0.26458333)" />
    <path
       style="fill:#ffffff;fill-opacity:1;stroke:#000000;stroke-width:2.49623;stroke-linecap:round;stroke-linejoin:round;stroke-opacity:0.955017;paint-order:stroke markers fill"
       d=""
       id="path8243"
       transform="scale(0.26458333)" />
    <path
       style="fill:#ffffff;fill-opacity:1;stroke:#000000;stroke-width:1.53925;stroke-linecap:round;stroke-linejoin:round;stroke-opacity:0.955017;paint-order:stroke markers fill"
       d=""
       id="path8399"
       transform="scale(0.26458333)" />
    <g
       id="g2207" />
    <path
       id="path3297"
       style="fill:none;stroke:#000000;stroke-width:1.08732;stroke-linecap:butt;stroke-linejoin:miter;stroke-miterlimit:4;stroke-dasharray:none;stroke-opacity:1"
       d="m 24.043458,16.833658 -0.05172,16.481381 M 47.197551,16.833658 47.145831,33.315039 M 24.032006,16.594953 47.19757,16.833884 m -2.584164,2.419983 2.584164,-2.419983 m -20.581414,2.181052 -2.58415,-2.419983 m 2.579569,2.422266 17.523966,0.362096 M 44.032088,33.241487 44.390996,19.014936 M 26.257243,33.241487 26.616152,19.014936 M 60.949908,6.3257094 58.953079,35.36905 M 4.7419018,6.3261617 9.7391808,34.8481 M 4.7440736,6.3257094 H 60.949912 M 54.326594,14.237161 60.949912,6.3257094 M 11.367354,14.237161 4.7440736,6.3257094 M 24.391188,38.700185 h 15.628056 c 2.24754,0 4.05693,1.848474 4.05693,4.14457 v 0.975573 c 0,2.296096 -1.80939,4.144581 -4.05693,4.144581 H 24.391188 c -2.24754,0 -4.056931,-1.848485 -4.056931,-4.144581 v -0.975573 c 0,-2.296096 1.809391,-4.14457 4.056931,-4.14457 z M 15.526182,11.426511 h 35.294104 c 2.247536,0 4.056927,1.848474 4.056927,4.14457 v 13.467328 c 0,2.296097 -1.809391,4.144581 -4.056927,4.144581 H 15.526182 c -2.247541,0 -4.056931,-1.848484 -4.056931,-4.144581 V 15.571081 c 0,-2.296096 1.80939,-4.14457 4.056931,-4.14457 z M 12.673076,33.18299 h 42.834458 c 2.24754,0 4.056931,1.848484 4.056931,4.144581 v 11.489465 c 0,2.296097 -1.809391,4.144571 -4.056931,4.144571 H 12.673076 c -2.247539,0 -4.0569305,-1.848474 -4.0569305,-4.144571 V 37.327571 c 0,-2.296097 1.8093915,-4.144581 4.0569305,-4.144581 z" />
    <g
       id="g1402">
      <path
         id="path850"
         style="fill:none;stroke:#000000;stroke-width:1.08732;stroke-linecap:butt;stroke-linejoin:miter;stroke-miterlimit:4;stroke-dasharray:none;stroke-opacity:1"
         d="m 164.80224,16.833658 -0.0517,16.481381 m 23.20594,-16.481381 -0.0517,16.481381 m -23.11397,-16.720086 23.16569,0.238931 m -2.58418,2.419983 2.58418,-2.419983 m -20.58153,2.181052 -2.58416,-2.419983 m 2.57958,2.422266 17.52406,0.362096 m -0.10345,13.862172 0.35891,-14.226551 m -18.13388,14.226551 0.35891,-14.226551 M 201.70889,6.3257094 199.71205,35.36905 M 145.50057,6.3261617 150.49788,34.8481 M 145.50275,6.3257094 h 56.20615 m -6.62336,7.9114516 6.62336,-7.9114516 m -49.58283,7.9114516 -6.62332,-7.9114516 m 19.64723,32.3744756 h 15.62813 c 2.24755,0 4.05695,1.848474 4.05695,4.14457 v 0.975573 c 0,2.296096 -1.8094,4.144581 -4.05695,4.144581 h -15.62813 c -2.24756,0 -4.05696,-1.848485 -4.05696,-4.144581 v -0.975573 c 0,-2.296096 1.8094,-4.14457 4.05696,-4.14457 z m -8.86506,-27.273674 h 35.2943 c 2.24754,0 4.05694,1.848474 4.05694,4.14457 v 13.467328 c 0,2.296097 -1.8094,4.144581 -4.05694,4.144581 h -35.2943 c -2.24755,0 -4.05696,-1.848484 -4.05696,-4.144581 V 15.571081 c 0,-2.296096 1.80941,-4.14457 4.05696,-4.14457 z M 153.4318,33.18299 h 42.83469 c 2.24755,0 4.05695,1.848484 4.05695,4.144581 v 11.489465 c 0,2.296097 -1.8094,4.144571 -4.05695,4.144571 H 153.4318 c -2.24756,0 -4.05696,-1.848474 -4.05696,-4.144571 V 37.327571 c 0,-2.296097 1.8094,-4.144581 4.05696,-4.144581 z" />
      <path
         style="fill:#000000;stroke:#000000;stroke-width:3.67979;stroke-linecap:round;stroke-linejoin:round;stroke-opacity:0.955017;paint-order:stroke markers fill"
         d="m 617.42292,176.39483 c -3.33083,-2.0311 -6.42701,-8.27907 -6.38988,-12.89452 0.0121,-1.50386 0.87817,-4.62007 1.9246,-6.92491 3.31174,-7.29434 3.50459,-7.32844 41.44067,-7.32844 32.81755,0 33.52402,0.0423 36.23079,2.17149 7.41659,5.83389 7.26457,19.35357 -0.27801,24.72436 -2.9472,2.09859 -3.85474,2.15212 -36.42341,2.14847 -30.98356,-0.003 -33.62553,-0.14073 -36.50476,-1.89645 z"
         id="path965"
         transform="scale(0.26458333)" />
      <path
         style="fill:#000000;stroke:#000000;stroke-width:3.67979;stroke-linecap:round;stroke-linejoin:round;stroke-opacity:0.955017;paint-order:stroke markers fill"
         d="m 634.47464,98.923563 c 0.39784,-13.354167 0.80292,-24.325685 0.90017,-24.381151 0.75702,-0.431725 60.77558,1.248139 61.24154,1.714094 0.33124,0.331245 0.29141,11.029911 -0.0885,23.774814 l -0.6908,23.17255 h -31.04286 -31.04287 z"
         id="path1004"
         transform="scale(0.26458333)" />
      <path
         style="fill:#000000;stroke:#000000;stroke-width:2.41386;stroke-linecap:round;stroke-linejoin:round;stroke-opacity:0.955017;paint-order:stroke markers fill"
         d="m 660.67935,70.16789 -26.93969,-0.582789 -2.29973,-2.344487 -2.29973,-2.344487 16.42664,0.403787 c 9.03465,0.222083 26.03622,0.413252 37.78127,0.424819 l 21.35462,0.02103 -2.95679,2.589046 -2.95679,2.589046 -5.58506,-0.08659 c -3.07178,-0.04762 -17.70792,-0.348844 -32.52474,-0.669378 z"
         id="path1160"
         transform="scale(0.26458333)" />
      <path
         style="fill:#000000;stroke:#000000;stroke-width:2.41386;stroke-linecap:round;stroke-linejoin:round;stroke-opacity:0.955017;paint-order:stroke markers fill"
         d="m 624.87168,105.29474 c 10e-4,-9.667072 0.19574,-21.802787 0.43204,-26.968252 l 0.42964,-9.391754 2.25457,2.164034 2.25456,2.164034 -0.39444,16.098104 c -0.21695,8.853958 -0.56917,20.015854 -0.78273,24.804224 l -0.38827,8.70612 h -1.90389 -1.90388 z"
         id="path1199"
         transform="scale(0.26458333)" />
      <path
         style="fill:#000000;stroke:#000000;stroke-width:2.41386;stroke-linecap:round;stroke-linejoin:round;stroke-opacity:0.955017;paint-order:stroke markers fill"
         d="m 701.31077,106.60888 c 0.23778,-8.944309 0.43296,-19.605981 0.43375,-23.69261 l 0.001,-7.430234 2.94156,-3.082814 2.94157,-3.082813 0.0152,26.775418 0.0152,26.775423 h -3.39054 -3.39054 z"
         id="path1277"
         transform="scale(0.26458333)" />
    </g>
  </g>
</svg>
