<?xml version="1.0" encoding="UTF-8" standalone="no"?>
<!-- Created with Inkscape (http://www.inkscape.org/) -->

<svg
   width="210mm"
   height="297mm"
   viewBox="0 0 210 297"
   version="1.1"
   id="svg5"
   inkscape:version="1.2.2 (b0a8486541, 2022-12-01)"
   sodipodi:docname="memory card box icon svg.svg"
   xmlns:inkscape="http://www.inkscape.org/namespaces/inkscape"
   xmlns:sodipodi="http://sodipodi.sourceforge.net/DTD/sodipodi-0.dtd"
   xmlns="http://www.w3.org/2000/svg"
   xmlns:svg="http://www.w3.org/2000/svg">
  <sodipodi:namedview
     id="namedview7"
     pagecolor="#ffffff"
     bordercolor="#666666"
     borderopacity="1.0"
     inkscape:pageshadow="2"
     inkscape:pageopacity="0.0"
     inkscape:pagecheckerboard="0"
     inkscape:document-units="mm"
     showgrid="false"
     inkscape:zoom="0.9983453"
     inkscape:cx="91.651656"
     inkscape:cy="39.565469"
     inkscape:window-width="1680"
     inkscape:window-height="956"
     inkscape:window-x="-11"
     inkscape:window-y="-11"
     inkscape:window-maximized="1"
     inkscape:current-layer="layer2"
     showguides="true"
     inkscape:guide-bbox="true"
     inkscape:showpageshadow="2"
     inkscape:deskcolor="#d1d1d1" />
  <defs
     id="defs2">
    <inkscape:path-effect
       effect="spiro"
       id="path-effect3301"
       is_visible="true"
       lpeversion="1" />
    <inkscape:path-effect
       effect="spiro"
       id="path-effect3215"
       is_visible="true"
       lpeversion="1" />
    <inkscape:path-effect
       effect="spiro"
       id="path-effect3211"
       is_visible="true"
       lpeversion="1" />
    <inkscape:path-effect
       effect="spiro"
       id="path-effect3094"
       is_visible="true"
       lpeversion="1" />
    <inkscape:path-effect
       effect="spiro"
       id="path-effect3088"
       is_visible="true"
       lpeversion="1" />
    <inkscape:path-effect
       effect="spiro"
       id="path-effect3051"
       is_visible="true"
       lpeversion="1" />
    <inkscape:path-effect
       effect="spiro"
       id="path-effect3045"
       is_visible="true"
       lpeversion="1" />
    <inkscape:path-effect
       effect="spiro"
       id="path-effect2959"
       is_visible="true"
       lpeversion="1" />
    <inkscape:path-effect
       effect="spiro"
       id="path-effect2562"
       is_visible="true"
       lpeversion="1" />
    <inkscape:path-effect
       effect="spiro"
       id="path-effect2558"
       is_visible="true"
       lpeversion="1" />
    <inkscape:path-effect
       effect="spiro"
       id="path-effect2361"
       is_visible="true"
       lpeversion="1" />
    <inkscape:path-effect
       effect="spiro"
       id="path-effect1889"
       is_visible="true"
       lpeversion="1" />
    <inkscape:path-effect
       effect="spiro"
       id="path-effect1885"
       is_visible="true"
       lpeversion="1" />
    <inkscape:path-effect
       effect="spiro"
       id="path-effect1768"
       is_visible="true"
       lpeversion="1" />
    <inkscape:path-effect
       effect="spiro"
       id="path-effect1682"
       is_visible="true"
       lpeversion="1" />
    <inkscape:path-effect
       effect="spiro"
       id="path-effect1678"
       is_visible="true"
       lpeversion="1" />
    <inkscape:path-effect
       effect="spiro"
       id="path-effect1481"
       is_visible="true"
       lpeversion="1" />
    <inkscape:path-effect
       effect="spiro"
       id="path-effect1475"
       is_visible="true"
       lpeversion="1" />
    <inkscape:path-effect
       effect="rough_hatches"
       id="path-effect2461"
       is_visible="true"
       lpeversion="1"
       direction="69.99843,260.92094 , 8.1437712,0"
       dist_rdm="6;1"
       growth="0"
       do_bend="true"
       bender="69.99843,265.92094 , 5,0"
       bottom_edge_variation="1.4602372;1"
       top_edge_variation="1.4602372;1"
       bottom_tgt_variation="0;1"
       top_tgt_variation="0;1"
       scale_bf="1"
       scale_bb="1"
       scale_tf="1"
       scale_tb="1"
       top_smth_variation="0;1"
       bottom_smth_variation="0;1"
       fat_output="true"
       stroke_width_top="1"
       stroke_width_bottom="1"
       front_thickness="1"
       back_thickness="0.25" />
    <inkscape:path-effect
       effect="skeletal"
       id="path-effect1945"
       is_visible="true"
       lpeversion="1"
       pattern="m 33.860958,87.614548 h 14.800324 c 5.651367,0 10.201025,4.549657 10.201025,10.201025 v 12.157417 c 0,5.65137 -4.549658,10.20103 -10.201025,10.20103 H 33.860958 c -5.651368,0 -10.201025,-4.54966 -10.201025,-10.20103 V 97.815573 c 0,-5.651368 4.549657,-10.201025 10.201025,-10.201025 z"
       copytype="repeated"
       prop_scale="1.28"
       scale_y_rel="false"
       spacing="2.6"
       normal_offset="0"
       tang_offset="0"
       prop_units="false"
       vertical_pattern="false"
       hide_knot="false"
       fuse_tolerance="0" />
    <inkscape:path-effect
       effect="skeletal"
       id="path-effect1762"
       is_visible="true"
       lpeversion="1"
       pattern="#rect1629"
       copytype="repeated"
       prop_scale="1"
       scale_y_rel="false"
       spacing="0"
       normal_offset="0"
       tang_offset="0"
       prop_units="false"
       vertical_pattern="false"
       hide_knot="false"
       fuse_tolerance="0" />
  </defs>
  <g
     inkscape:label="Layer 1"
     inkscape:groupmode="layer"
     id="layer1">
    <path
       style="fill:#917c6f;stroke:#000000;stroke-width:14.443;stroke-linecap:round;stroke-linejoin:round;stroke-opacity:0.955017;paint-order:stroke markers fill"
       d=""
       id="path1102"
       transform="scale(0.26458333)" />
    <path
       style="fill:#917c6f;stroke:#000000;stroke-width:14.443;stroke-linecap:round;stroke-linejoin:round;stroke-opacity:0.955017;paint-order:stroke markers fill"
       d=""
       id="path1570"
       transform="scale(0.26458333)" />
    <path
       style="fill:#6c5353;stroke:#000000;stroke-width:2.49623;stroke-linecap:round;stroke-linejoin:round;stroke-opacity:0.955017;paint-order:stroke markers fill"
       d=""
       id="path1429"
       transform="scale(0.26458333)" />
    <path
       style="fill:#6c5353;stroke:#000000;stroke-width:2.49623;stroke-linecap:round;stroke-linejoin:round;stroke-opacity:0.955017;paint-order:stroke markers fill"
       d=""
       id="path1585"
       transform="scale(0.26458333)" />
    <path
       style="fill:#ffffff;fill-opacity:1;stroke:#000000;stroke-width:2.49623;stroke-linecap:round;stroke-linejoin:round;stroke-opacity:0.955017;paint-order:stroke markers fill"
       d=""
       id="path8243"
       transform="scale(0.26458333)" />
    <path
       style="fill:#ffffff;fill-opacity:1;stroke:#000000;stroke-width:1.53925;stroke-linecap:round;stroke-linejoin:round;stroke-opacity:0.955017;paint-order:stroke markers fill"
       d=""
       id="path8399"
       transform="scale(0.26458333)" />
    <g
       id="g2207" />
    <path
       id="path3297"
       style="fill:none;stroke:#000000;stroke-width:1.08732;stroke-linecap:butt;stroke-linejoin:miter;stroke-miterlimit:4;stroke-dasharray:none;stroke-opacity:1"
       d="m 24.043458,16.833658 -0.05172,16.481381 M 47.197551,16.833658 47.145831,33.315039 M 24.032006,16.594953 47.19757,16.833884 m -2.584164,2.419983 2.584164,-2.419983 m -20.581414,2.181052 -2.58415,-2.419983 m 2.579569,2.422266 17.523966,0.362096 M 44.032088,33.241487 44.390996,19.014936 M 26.257243,33.241487 26.616152,19.014936 M 60.949908,6.3257094 58.953079,35.36905 M 4.7419018,6.3261617 9.7391808,34.8481 M 4.7440736,6.3257094 H 60.949912 M 54.326594,14.237161 60.949912,6.3257094 M 11.367354,14.237161 4.7440736,6.3257094 M 24.391188,38.700185 h 15.628056 c 2.24754,0 4.05693,1.848474 4.05693,4.14457 v 0.975573 c 0,2.296096 -1.80939,4.144581 -4.05693,4.144581 H 24.391188 c -2.24754,0 -4.056931,-1.848485 -4.056931,-4.144581 v -0.975573 c 0,-2.296096 1.809391,-4.14457 4.056931,-4.14457 z M 15.526182,11.426511 h 35.294104 c 2.247536,0 4.056927,1.848474 4.056927,4.14457 v 13.467328 c 0,2.296097 -1.809391,4.144581 -4.056927,4.144581 H 15.526182 c -2.247541,0 -4.056931,-1.848484 -4.056931,-4.144581 V 15.571081 c 0,-2.296096 1.80939,-4.14457 4.056931,-4.14457 z M 12.673076,33.18299 h 42.834458 c 2.24754,0 4.056931,1.848484 4.056931,4.144581 v 11.489465 c 0,2.296097 -1.809391,4.144571 -4.056931,4.144571 H 12.673076 c -2.247539,0 -4.0569305,-1.848474 -4.0569305,-4.144571 V 37.327571 c 0,-2.296097 1.8093915,-4.144581 4.0569305,-4.144581 z" />
    <g
       id="g1402">
      <path
         id="path850"
         style="fill:none;stroke:#000000;stroke-width:1.08732;stroke-linecap:butt;stroke-linejoin:miter;stroke-miterlimit:4;stroke-dasharray:none;stroke-opacity:1"
         d="m 164.80224,16.833658 -0.0517,16.481381 m 23.20594,-16.481381 -0.0517,16.481381 m -23.11397,-16.720086 23.16569,0.238931 m -2.58418,2.419983 2.58418,-2.419983 m -20.58153,2.181052 -2.58416,-2.419983 m 2.57958,2.422266 17.52406,0.362096 m -0.10345,13.862172 0.35891,-14.226551 m -18.13388,14.226551 0.35891,-14.226551 M 201.70889,6.3257094 199.71205,35.36905 M 145.50057,6.3261617 150.49788,34.8481 M 145.50275,6.3257094 h 56.20615 m -6.62336,7.9114516 6.62336,-7.9114516 m -49.58283,7.9114516 -6.62332,-7.9114516 m 19.64723,32.3744756 h 15.62813 c 2.24755,0 4.05695,1.848474 4.05695,4.14457 v 0.975573 c 0,2.296096 -1.8094,4.144581 -4.05695,4.144581 h -15.62813 c -2.24756,0 -4.05696,-1.848485 -4.05696,-4.144581 v -0.975573 c 0,-2.296096 1.8094,-4.14457 4.05696,-4.14457 z m -8.86506,-27.273674 h 35.2943 c 2.24754,0 4.05694,1.848474 4.05694,4.14457 v 13.467328 c 0,2.296097 -1.8094,4.144581 -4.05694,4.144581 h -35.2943 c -2.24755,0 -4.05696,-1.848484 -4.05696,-4.144581 V 15.571081 c 0,-2.296096 1.80941,-4.14457 4.05696,-4.14457 z M 153.4318,33.18299 h 42.83469 c 2.24755,0 4.05695,1.848484 4.05695,4.144581 v 11.489465 c 0,2.296097 -1.8094,4.144571 -4.05695,4.144571 H 153.4318 c -2.24756,0 -4.05696,-1.848474 -4.05696,-4.144571 V 37.327571 c 0,-2.296097 1.8094,-4.144581 4.05696,-4.144581 z" />
      <path
         style="fill:#000000;stroke:#000000;stroke-width:3.67979;stroke-linecap:round;stroke-linejoin:round;stroke-opacity:0.955017;paint-order:stroke markers fill"
         d="m 617.42292,176.39483 c -3.33083,-2.0311 -6.42701,-8.27907 -6.38988,-12.89452 0.0121,-1.50386 0.87817,-4.62007 1.9246,-6.92491 3.31174,-7.29434 3.50459,-7.32844 41.44067,-7.32844 32.81755,0 33.52402,0.0423 36.23079,2.17149 7.41659,5.83389 7.26457,19.35357 -0.27801,24.72436 -2.9472,2.09859 -3.85474,2.15212 -36.42341,2.14847 -30.98356,-0.003 -33.62553,-0.14073 -36.50476,-1.89645 z"
         id="path965"
         transform="scale(0.26458333)" />
      <path
         style="fill:#000000;stroke:#000000;stroke-width:3.67979;stroke-linecap:round;stroke-linejoin:round;stroke-opacity:0.955017;paint-order:stroke markers fill"
         d="m 634.47464,98.923563 c 0.39784,-13.354167 0.80292,-24.325685 0.90017,-24.381151 0.75702,-0.431725 60.77558,1.248139 61.24154,1.714094 0.33124,0.331245 0.29141,11.029911 -0.0885,23.774814 l -0.6908,23.17255 h -31.04286 -31.04287 z"
         id="path1004"
         transform="scale(0.26458333)" />
      <path
         style="fill:#000000;stroke:#000000;stroke-width:2.41386;stroke-linecap:round;stroke-linejoin:round;stroke-opacity:0.955017;paint-order:stroke markers fill"
         d="m 660.67935,70.16789 -26.93969,-0.582789 -2.29973,-2.344487 -2.29973,-2.344487 16.42664,0.403787 c 9.03465,0.222083 26.03622,0.413252 37.78127,0.424819 l 21.35462,0.02103 -2.95679,2.589046 -2.95679,2.589046 -5.58506,-0.08659 c -3.07178,-0.04762 -17.70792,-0.348844 -32.52474,-0.669378 z"
         id="path1160"
         transform="scale(0.26458333)" />
      <path
         style="fill:#000000;stroke:#000000;stroke-width:2.41386;stroke-linecap:round;stroke-linejoin:round;stroke-opacity:0.955017;paint-order:stroke markers fill"
         d="m 624.87168,105.29474 c 10e-4,-9.667072 0.19574,-21.802787 0.43204,-26.968252 l 0.42964,-9.391754 2.25457,2.164034 2.25456,2.164034 -0.39444,16.098104 c -0.21695,8.853958 -0.56917,20.015854 -0.78273,24.804224 l -0.38827,8.70612 h -1.90389 -1.90388 z"
         id="path1199"
         transform="scale(0.26458333)" />
      <path
         style="fill:#000000;stroke:#000000;stroke-width:2.41386;stroke-linecap:round;stroke-linejoin:round;stroke-opacity:0.955017;paint-order:stroke markers fill"
         d="m 701.31077,106.60888 c 0.23778,-8.944309 0.43296,-19.605981 0.43375,-23.69261 l 0.001,-7.430234 2.94156,-3.082814 2.94157,-3.082813 0.0152,26.775418 0.0152,26.775423 h -3.39054 -3.39054 z"
         id="path1277"
         transform="scale(0.26458333)" />
    </g>
    <g
       id="g3899">
      <path
         id="path858"
         style="fill:none;stroke:#000000;stroke-width:1.08732;stroke-linecap:butt;stroke-linejoin:miter;stroke-miterlimit:4;stroke-dasharray:none;stroke-opacity:1"
         d="m 166.59409,255.7016 -0.0517,16.48138 m 23.20594,-16.48138 -0.0517,16.48138 m -23.11395,-16.72008 23.16569,0.23893 m -2.58418,2.41998 2.58418,-2.41998 m -20.58153,2.18105 -2.58416,-2.41998 m 2.57958,2.42226 17.52407,0.3621 m -0.10346,13.86217 0.35891,-14.22655 m -18.13385,14.22655 0.35891,-14.22655 m 34.33395,-12.68923 -1.99684,29.04334 m -54.21149,-29.04288 4.99731,28.52193 m -4.99514,-28.52239 h 56.20616 m -6.62335,7.91146 6.62335,-7.91146 m -49.58284,7.91146 -6.62332,-7.91146 m 19.64723,32.37448 h 15.62815 c 2.24755,0 4.05695,1.84847 4.05695,4.14457 v 0.97557 c 0,2.2961 -1.8094,4.14458 -4.05695,4.14458 h -15.62817 c -2.24755,0 -4.05695,-1.84848 -4.05695,-4.14458 v -0.97557 c 0,-2.2961 1.8094,-4.14457 4.05695,-4.14457 z m -8.86505,-27.27367 h 35.2943 c 2.24755,0 4.05695,1.84847 4.05695,4.14457 v 13.46732 c 0,2.2961 -1.8094,4.14458 -4.05695,4.14458 h -35.29434 c -2.24756,0 -4.05696,-1.84848 -4.05696,-4.14458 v -13.46732 c 0,-2.2961 1.8094,-4.14457 4.05696,-4.14457 z m -2.85313,21.75647 h 42.83471 c 2.24755,0 4.05695,1.84849 4.05695,4.14459 v 11.48946 c 0,2.2961 -1.8094,4.14457 -4.05695,4.14457 h -42.83475 c -2.24755,0 -4.05695,-1.84847 -4.05695,-4.14457 v -11.48946 c 0,-2.2961 1.8094,-4.14459 4.05695,-4.14459 z" />
      <path
         style="fill:#fff6d5;stroke:#000000;stroke-width:4.61045;stroke-linecap:round;stroke-linejoin:round;stroke-opacity:0.955017;paint-order:stroke markers fill"
         d="m 589.36693,1021.1137 -4.12221,-4.1222 v -30.23606 -30.23609 l 3.71787,-3.71787 3.71788,-3.71787 h 71.60397 71.60398 l 3.65094,4.33888 3.65092,4.33889 v 29.61507 29.61505 l -4.12221,4.1222 c -3.57058,3.5706 -5.17463,4.1222 -11.98694,4.1222 h -7.86473 v -28.79431 c 0,-15.83689 -0.38519,-29.79815 -0.85599,-31.02502 -0.75531,-1.96832 -6.04528,-2.23068 -44.97643,-2.23068 -40.70609,0 -44.19624,0.19098 -45.10011,2.4679 -0.53882,1.35734 -1.33619,15.3186 -1.77193,31.02502 l -0.79226,28.55709 h -16.11527 c -15.93132,0 -16.16233,-0.047 -20.23748,-4.1222 z"
         id="path1143"
         transform="scale(0.26458333)" />
      <path
         style="fill:#fff6d5;stroke:#000000;stroke-width:4.61045;stroke-linecap:round;stroke-linejoin:round;stroke-opacity:0.955017;paint-order:stroke markers fill"
         d="m 572.04271,940.64905 -9.46613,-11.30864 H 662.88039 763.1842 l -3.86603,4.58324 c -2.1263,2.52079 -6.1174,7.27155 -8.86909,10.55726 l -5.00308,5.97402 -3.35682,-3.15356 -3.35681,-3.15356 H 664.19649 589.6606 l -4.07588,3.90494 -4.07588,3.90494 z"
         id="path1182"
         transform="scale(0.26458333)" />
      <path
         style="fill:#fff6d5;stroke:#000000;stroke-width:4.61045;stroke-linecap:round;stroke-linejoin:round;stroke-opacity:0.955017;paint-order:stroke markers fill"
         d="m 569.41333,983.21789 c -4.31511,-24.59105 -7.68975,-44.88081 -7.49919,-45.08836 0.19056,-0.20756 4.24869,4.34017 9.01807,10.10606 l 8.6716,10.48344 0.009,29.38032 c 0.007,22.98365 0.45634,30.23855 2.06475,33.32215 1.85796,3.562 1.82315,4.0245 -0.36125,4.8007 -1.32952,0.4724 -2.78624,1.0496 -3.23715,1.2828 -0.45092,0.2331 -4.3504,-19.6961 -8.66552,-44.28711 z"
         id="path1221"
         transform="scale(0.26458333)" />
      <path
         style="fill:#fff6d5;stroke:#000000;stroke-width:4.61045;stroke-linecap:round;stroke-linejoin:round;stroke-opacity:0.955017;paint-order:stroke markers fill"
         d="m 755.17722,1026.6462 c -1.55125,-0.6666 -4.58191,-1.2566 -6.7348,-1.3112 -3.87584,-0.098 -3.89318,-0.14 -1.76278,-4.2597 1.73456,-3.3543 2.15156,-10.0885 2.15156,-34.74619 V 955.7436 l 7.95002,-9.71729 c 4.37251,-5.34452 8.15582,-9.5115 8.40735,-9.25997 0.75415,0.75415 -5.65252,91.29826 -6.45244,91.19096 -0.40615,-0.054 -2.00766,-0.6445 -3.55891,-1.3111 z"
         id="path1260"
         transform="scale(0.26458333)" />
      <path
         style="fill:#484537;stroke:#000000;stroke-width:4.61045;stroke-linecap:round;stroke-linejoin:round;stroke-opacity:0.955017;paint-order:stroke markers fill"
         d="m 641.42534,1001.616 c 0.26213,-12.99252 0.666,-23.81505 0.89748,-24.05012 0.23148,-0.23507 14.13692,0.0204 30.90097,0.5678 l 30.4801,0.99521 -0.007,9.30379 c -0.004,5.11709 -0.41703,15.49122 -0.91781,23.05352 l -0.91052,13.7497 h -30.45977 -30.45976 z"
         id="path1412"
         transform="scale(0.26458333)" />
      <path
         style="fill:#484537;stroke:#000000;stroke-width:4.61045;stroke-linecap:round;stroke-linejoin:round;stroke-opacity:0.955017;paint-order:stroke markers fill"
         d="m 650.11522,972.00618 c -5.04157,-0.27932 -9.76936,-1.10895 -10.5062,-1.84362 -0.84346,-0.84097 11.88815,-1.33576 34.37071,-1.33576 31.5827,0 35.5075,0.24451 33.95485,2.11534 -1.44933,1.74633 -5.84612,2.06794 -25.20423,1.84362 -12.89676,-0.14944 -27.57357,-0.50025 -32.61513,-0.77958 z"
         id="path1451"
         transform="scale(0.26458333)" />
      <path
         style="fill:#484537;stroke:#000000;stroke-width:4.61045;stroke-linecap:round;stroke-linejoin:round;stroke-opacity:0.955017;paint-order:stroke markers fill"
         d="m 631.78225,998.26892 c 0,-23.81078 0.24758,-26.76154 2.11534,-25.21143 3.15413,2.61769 3.15413,52.17841 0,52.17841 -1.80655,0 -2.11534,-3.9365 -2.11534,-26.96698 z"
         id="path1490"
         transform="scale(0.26458333)" />
      <path
         style="fill:#484537;stroke:#000000;stroke-width:4.61045;stroke-linecap:round;stroke-linejoin:round;stroke-opacity:0.955017;paint-order:stroke markers fill"
         d="m 708.59199,1001.6146 c 0.86863,-20.52388 1.35338,-23.98602 3.69672,-26.4026 2.66211,-2.74529 2.69691,-2.61754 2.68971,9.8716 -0.004,6.95908 -0.41703,18.8403 -0.91781,26.4026 -0.82332,12.433 -1.17663,13.7497 -3.68943,13.7497 -2.69426,0 -2.74846,-0.7196 -1.77919,-23.6213 z"
         id="path1607"
         transform="scale(0.26458333)" />
      <path
         style="fill:#ac9d93;stroke:#000000;stroke-width:4.61045;stroke-linecap:round;stroke-linejoin:round;stroke-opacity:0.955017;paint-order:stroke markers fill"
         d="m 578.62478,1096.5776 -3.95677,-3.4004 -0.44046,-25.4093 c -0.48399,-27.92 0.57775,-32.8522 7.65095,-35.5414 5.51867,-2.0982 167.27936,-1.7829 171.9279,0.3351 6.72017,3.0619 7.71685,7.3068 7.71685,32.8658 0,24.7383 -1.09902,29.9549 -6.97303,33.0986 -1.77438,0.9496 -31.9949,1.452 -87.34091,1.452 h -84.62777 z m 117.97914,-11.134 c 14.37331,-4.9505 15.44193,-29.7081 1.59145,-36.8704 -6.14448,-3.1775 -68.74886,-3.2154 -75.42844,-0.046 -6.50106,3.0849 -9.31765,8.7347 -9.31765,18.6901 0,9.5718 3.04872,14.8382 10.45711,18.0639 5.78434,2.5185 65.46958,2.6516 72.69753,0.1621 z"
         id="path2017"
         transform="scale(0.26458333)" />
      <path
         style="fill:#666666;stroke:#000000;stroke-width:4.61045;stroke-linecap:round;stroke-linejoin:round;stroke-opacity:0.955017;paint-order:stroke markers fill"
         d="m 626.84645,1080.3491 c -6.23933,-2.6361 -8.63025,-8.0853 -7.96892,-18.162 0.11697,-1.7822 1.89184,-4.7966 3.94416,-6.6986 l 3.7315,-3.4582 h 33.74803 33.74803 l 4.12221,4.1222 c 5.49052,5.4905 5.81635,14.903 0.72109,20.8307 l -3.40112,3.9567 -32.91226,0.3005 c -18.10174,0.1652 -34.18147,-0.2358 -35.73272,-0.8913 z"
         id="path2130"
         transform="scale(0.26458333)" />
    </g>
    <path
       style="fill:#ffffff;stroke:#000000;stroke-width:4.61045;stroke-linecap:round;stroke-linejoin:round;stroke-opacity:0.955017;paint-order:stroke markers fill"
       d=""
       id="path2362"
       transform="scale(0.26458333)" />
    <g
       id="g3004">
      <path
         id="path1444"
         style="fill:none;stroke:#000000;stroke-width:1.08732;stroke-linecap:butt;stroke-linejoin:miter;stroke-miterlimit:4;stroke-dasharray:none;stroke-opacity:1"
         d="m 22.131124,255.7016 -0.05172,16.48138 m 23.205813,-16.48138 -0.05172,16.48138 m -23.113825,-16.72008 23.165564,0.23893 m -2.584164,2.41998 2.584164,-2.41998 m -20.581414,2.18105 -2.58415,-2.41998 m 2.579569,2.42226 17.523966,0.3621 m -0.103453,13.86217 0.358908,-14.22655 m -18.133753,14.22655 0.358909,-14.22655 m 34.333756,-12.68923 -1.996829,29.04334 M 2.8295675,245.19411 7.8268465,273.71604 M 2.8317393,245.19365 H 59.037578 m -6.623318,7.91146 6.623318,-7.91146 M 9.4550197,253.10511 2.8317393,245.19365 M 22.478854,277.56813 H 38.10691 c 2.24754,0 4.05693,1.84847 4.05693,4.14457 v 0.97557 c 0,2.2961 -1.80939,4.14458 -4.05693,4.14458 H 22.478854 c -2.24754,0 -4.056931,-1.84848 -4.056931,-4.14458 v -0.97557 c 0,-2.2961 1.809391,-4.14457 4.056931,-4.14457 z m -8.865006,-27.27367 h 35.294104 c 2.247536,0 4.056927,1.84847 4.056927,4.14457 v 13.46732 c 0,2.2961 -1.809391,4.14458 -4.056927,4.14458 H 13.613848 c -2.247541,0 -4.0569313,-1.84848 -4.0569313,-4.14458 v -13.46732 c 0,-2.2961 1.8093903,-4.14457 4.0569313,-4.14457 z m -2.853106,21.75647 H 53.5952 c 2.24754,0 4.056931,1.84849 4.056931,4.14459 v 11.48946 c 0,2.2961 -1.809391,4.14457 -4.056931,4.14457 H 10.760742 c -2.2475393,0 -4.0569308,-1.84847 -4.0569308,-4.14457 v -11.48946 c 0,-2.2961 1.8093915,-4.14459 4.0569308,-4.14459 z" />
      <path
         style="fill:#ffffff;stroke:#000000;stroke-width:4.61045;stroke-linecap:round;stroke-linejoin:round;stroke-opacity:0.955017;paint-order:stroke markers fill"
         d="m 32.32677,1095.8558 -4.122205,-4.1222 v -26.3062 -26.3061 l 4.122205,-4.1223 4.122206,-4.1222 h 84.699924 84.69993 l 4.60548,4.1133 4.6055,4.1132 0.48825,20.7286 c 0.59432,25.2315 -0.32918,32.359 -4.7678,36.7976 l -3.3485,3.3485 h -85.4914 -85.491384 z m 121.61917,-11.8254 c 8.00924,-5.4377 10.7846,-20.0374 5.46694,-28.7587 -5.1265,-8.4077 -7.54101,-8.8823 -45.18439,-8.8823 -37.710119,0 -40.269888,0.5065 -44.663615,8.8378 -3.430968,6.5057 -3.232308,18.2666 0.392034,23.2089 6.195809,8.4488 9.098512,8.9834 46.386921,8.5438 29.9151,-0.3527 34.28172,-0.6952 37.60211,-2.9495 z"
         id="path2206"
         transform="scale(0.26458333)" />
      <path
         style="fill:#ffffff;stroke:#000000;stroke-width:4.61045;stroke-linecap:round;stroke-linejoin:round;stroke-opacity:0.955017;paint-order:stroke markers fill"
         d="m 77.718707,1078.0345 c -5.121265,-4.3093 -6.894847,-11.488 -4.353839,-17.6225 3.382498,-8.1661 4.444627,-8.3817 41.285882,-8.3817 h 33.64017 l 4.12221,4.1222 c 4.40296,4.4029 5.39359,10.6831 2.77256,17.577 -2.70208,7.107 -6.93971,7.9156 -41.48408,7.9156 H 82.009638 Z"
         id="path2245"
         transform="scale(0.26458333)" />
      <path
         style="fill:#ffffff;stroke:#000000;stroke-width:4.61045;stroke-linecap:round;stroke-linejoin:round;stroke-opacity:0.955017;paint-order:stroke markers fill"
         d="m 33.00641,948.80626 c -1.58524,-1.78652 -5.929662,-6.89719 -9.654269,-11.35704 l -6.772014,-8.10881 H 116.96741 217.35469 l -8.82149,10.35075 -8.82149,10.35075 -4.86224,-3.29961 -4.86224,-3.29961 h -72.11618 c -65.638008,0 -72.429395,0.21588 -75.602976,2.40319 -1.917738,1.32174 -4.137635,3.2594 -4.933102,4.30589 -1.17067,1.5401 -1.995603,1.28367 -4.328562,-1.34551 z"
         id="path2284"
         transform="scale(0.26458333)" />
      <path
         style="fill:#ffffff;stroke:#000000;stroke-width:4.61045;stroke-linecap:round;stroke-linejoin:round;stroke-opacity:0.955017;paint-order:stroke markers fill"
         d="m 31.007626,1027.0819 c -0.0096,-0.6275 -3.482793,-20.7777 -7.718281,-44.77839 -4.235487,-24.00064 -7.527559,-43.81085 -7.315715,-44.0227 0.211844,-0.21184 4.319674,4.32954 9.12851,10.09195 l 8.743338,10.47712 v 30.05879 c 0,24.96693 0.373146,30.59153 2.202802,33.20373 2.028004,2.8954 2.000028,3.2173 -0.352557,4.0568 -1.405448,0.5015 -3.031311,1.1688 -3.613031,1.4827 -0.581719,0.314 -1.065499,0.057 -1.075066,-0.57 z"
         id="path2323"
         transform="scale(0.26458333)" />
      <path
         style="fill:#ffffff;stroke:#000000;stroke-width:4.61045;stroke-linecap:round;stroke-linejoin:round;stroke-opacity:0.955017;paint-order:stroke markers fill"
         d="m 43.204265,1021.5181 -3.717874,-3.7179 v -30.89684 -30.89682 l 3.461469,-3.46146 3.461469,-3.46147 h 71.389111 71.38911 l 4.12219,4.1222 4.12221,4.12221 v 29.83175 29.83173 l -4.12221,4.1222 c -3.57058,3.5706 -5.17463,4.1222 -11.98694,4.1222 h -7.86473 v -28.79431 c 0,-15.83689 -0.38519,-29.79815 -0.85599,-31.02502 -0.75505,-1.96763 -6.00532,-2.23068 -44.52292,-2.23068 -35.964366,0 -44.022291,0.35536 -45.681539,2.01461 -1.615419,1.61542 -2.014611,7.76297 -2.014611,31.02502 v 29.01038 H 63.652575 c -16.196258,0 -16.849141,-0.1187 -20.44831,-3.7178 z"
         id="path2401"
         transform="scale(0.26458333)" />
      <path
         style="fill:#ffffff;stroke:#000000;stroke-width:4.61045;stroke-linecap:round;stroke-linejoin:round;stroke-opacity:0.955017;paint-order:stroke markers fill"
         d="m 53.588673,1024.1945 c -4.416928,-0.3819 -7.524921,-1.6733 -10.224155,-4.2482 l -3.878127,-3.6994 v -29.79225 -29.79222 l 3.955294,-3.78941 3.955293,-3.78941 h 70.510162 70.51017 l 4.50731,4.65037 4.50733,4.65038 v 28.94928 c 0,28.74536 -0.0238,28.97166 -3.38927,32.13336 -3.3077,3.1074 -11.06822,5.6677 -17.38409,5.7353 l -3.14551,0.034 -0.38006,-30.67243 -0.38006,-30.67247 -44.25318,-0.3729 c -31.479197,-0.26527 -44.810798,0.0899 -46.184971,1.23034 -1.522698,1.26373 -1.931799,7.83827 -1.931799,31.04537 v 29.44209 L 70.158855,1024.99 c -5.623285,-0.1356 -13.079867,-0.4933 -16.570182,-0.7951 z"
         id="path2440"
         transform="scale(0.26458333)" />
      <path
         style="fill:#ffffff;stroke:#000000;stroke-width:4.61045;stroke-linecap:round;stroke-linejoin:round;stroke-opacity:0.955017;paint-order:stroke markers fill"
         d="m 94.983475,1014.4464 c 0.501625,-5.9342 0.912045,-16.76492 0.912045,-24.0683 v -13.27885 l 30.67246,0.98506 c 16.86986,0.54178 30.85413,1.13613 31.07616,1.32078 0.22202,0.18464 -0.034,10.57212 -0.56883,23.08331 l -0.97251,22.7475 H 125.08711 94.07143 Z"
         id="path2479"
         transform="scale(0.26458333)" />
      <path
         style="fill:#ffffff;stroke:#000000;stroke-width:2.8244;stroke-linecap:round;stroke-linejoin:round;stroke-opacity:0.955017;paint-order:stroke markers fill"
         d="m 162.09066,1006.6821 c 0.55744,-27.06267 0.77546,-28.86869 3.83921,-31.80395 l 2.53442,-2.42813 v 26.51118 26.5112 h -3.38034 -3.38034 z"
         id="path2596"
         transform="scale(0.26458333)" />
      <path
         style="fill:#ffffff;stroke:#000000;stroke-width:1.62253;stroke-linecap:round;stroke-linejoin:round;stroke-opacity:0.955017;paint-order:stroke markers fill"
         d="m 120.71845,973.01901 -26.432758,-0.55389 -2.318505,-2.31851 -2.318505,-2.3185 24.036468,0.23252 c 13.22006,0.12788 30.14411,0.36494 37.60901,0.52679 l 13.57254,0.29428 -2.38726,2.42371 -2.38727,2.4237 -6.47048,-0.0781 c -3.55876,-0.043 -18.36522,-0.32736 -32.90324,-0.632 z"
         id="path2713"
         transform="scale(0.26458333)" />
      <path
         style="fill:#ffffff;stroke:#000000;stroke-width:1.62253;stroke-linecap:round;stroke-linejoin:round;stroke-opacity:0.955017;paint-order:stroke markers fill"
         d="m 85.858887,998.50212 v -27.33789 l 1.908844,1.51184 c 3.421412,2.7098 3.240109,1.55649 2.87966,18.31841 -0.180269,8.38305 -0.471846,19.65272 -0.647947,25.04372 l -0.320185,9.8018 h -1.910186 -1.910186 z"
         id="path2752"
         transform="scale(0.26458333)" />
      <path
         style="fill:#ffffff;stroke:#000000;stroke-width:1.62253;stroke-linecap:round;stroke-linejoin:round;stroke-opacity:0.955017;paint-order:stroke markers fill"
         d="m 210.32821,1027.8859 c -2.9601,-1.5113 -3.87236,-1.7247 -8.2841,-1.9371 l -4.95769,-0.2387 1.43743,-1.7962 c 0.79059,-0.9878 1.95011,-2.9128 2.57672,-4.2776 l 1.13929,-2.4815 0.14346,-28.51037 c 0.0789,-15.68073 -0.0528,-29.43079 -0.29276,-30.55569 l -0.43621,-2.04527 9.20651,-10.98712 c 5.06359,-6.04292 9.2599,-10.93375 9.32514,-10.86851 0.11077,0.11077 -6.08826,91.40996 -6.39223,94.14466 l -0.13914,1.2519 z"
         id="path2854"
         transform="scale(0.26458333)" />
    </g>
  </g>
  <g
     inkscape:groupmode="layer"
     id="layer2"
     inkscape:label="Layer 2">
    <path
       id="path349"
       style="fill:none;stroke:#4d4d4d;stroke-width:2.087;stroke-linecap:butt;stroke-linejoin:miter;stroke-miterlimit:4;stroke-dasharray:none;stroke-opacity:1"
       d="M 85.263509,62.417419 85.211789,78.8988 M 108.4176,62.417419 108.36588,78.8988 M 85.252057,62.178714 108.41762,62.417645 m -2.58416,2.419983 2.58416,-2.419983 m -20.581413,2.181052 -2.58415,-2.419983 m 2.579569,2.422266 17.523964,0.362096 m -0.10345,13.862172 0.35891,-14.226551 M 87.477294,78.825248 87.836203,64.598697 M 122.16996,51.90947 120.17313,80.952811 M 65.961953,51.909922 70.959232,80.431861 M 65.964124,51.90947 h 56.205836 m -6.62332,7.911452 6.62332,-7.911452 M 72.587405,59.820922 65.964124,51.90947 m 19.647115,32.374476 h 15.628051 c 2.24754,0 4.05693,1.848474 4.05693,4.14457 v 0.975573 c 0,2.296096 -1.80939,4.144581 -4.05693,4.144581 H 85.611239 c -2.24754,0 -4.056931,-1.848485 -4.056931,-4.144581 v -0.975573 c 0,-2.296096 1.809391,-4.14457 4.056931,-4.14457 z M 76.746233,57.010272 h 35.294107 c 2.24753,0 4.05692,1.848474 4.05692,4.14457 V 74.62217 c 0,2.296097 -1.80939,4.144581 -4.05692,4.144581 H 76.746233 c -2.247541,0 -4.056931,-1.848484 -4.056931,-4.144581 V 61.154842 c 0,-2.296096 1.80939,-4.14457 4.056931,-4.14457 z m -2.853106,21.756479 h 42.834453 c 2.24754,0 4.05694,1.848484 4.05694,4.144581 v 11.489465 c 0,2.296097 -1.8094,4.144571 -4.05694,4.144571 H 73.893127 c -2.247539,0 -4.056931,-1.848474 -4.056931,-4.144571 V 82.911332 c 0,-2.296097 1.809392,-4.144581 4.056931,-4.144581 z" />
  </g>
</svg>
