<?xml version="1.0" encoding="UTF-8" standalone="no"?>
<!-- Created with Inkscape (http://www.inkscape.org/) -->

<svg
   width="210mm"
   height="297mm"
   viewBox="0 0 210 297"
   version="1.1"
   id="svg5"
   inkscape:version="1.1.1 (3bf5ae0d25, 2021-09-20)"
   sodipodi:docname="sampler memory card 4 icon svg.svg"
   xmlns:inkscape="http://www.inkscape.org/namespaces/inkscape"
   xmlns:sodipodi="http://sodipodi.sourceforge.net/DTD/sodipodi-0.dtd"
   xmlns="http://www.w3.org/2000/svg"
   xmlns:svg="http://www.w3.org/2000/svg">
  <sodipodi:namedview
     id="namedview7"
     pagecolor="#ffffff"
     bordercolor="#666666"
     borderopacity="1.0"
     inkscape:pageshadow="2"
     inkscape:pageopacity="0.0"
     inkscape:pagecheckerboard="0"
     inkscape:document-units="mm"
     showgrid="false"
     inkscape:zoom="0.93974427"
     inkscape:cx="712.95992"
     inkscape:cy="343.17847"
     inkscape:window-width="1680"
     inkscape:window-height="956"
     inkscape:window-x="-11"
     inkscape:window-y="-11"
     inkscape:window-maximized="1"
     inkscape:current-layer="layer1" />
  <defs
     id="defs2">
    <inkscape:path-effect
       effect="spiro"
       id="path-effect2585"
       is_visible="true"
       lpeversion="1" />
    <inkscape:path-effect
       effect="spiro"
       id="path-effect2499"
       is_visible="true"
       lpeversion="1" />
    <inkscape:path-effect
       effect="spiro"
       id="path-effect1857"
       is_visible="true"
       lpeversion="1" />
    <inkscape:path-effect
       effect="spiro"
       id="path-effect1771"
       is_visible="true"
       lpeversion="1" />
    <inkscape:path-effect
       effect="spiro"
       id="path-effect1574"
       is_visible="true"
       lpeversion="1" />
    <inkscape:path-effect
       effect="spiro"
       id="path-effect1123"
       is_visible="true"
       lpeversion="1" />
    <inkscape:path-effect
       effect="spiro"
       id="path-effect4644"
       is_visible="true"
       lpeversion="1" />
    <inkscape:path-effect
       effect="spiro"
       id="path-effect4640"
       is_visible="true"
       lpeversion="1" />
    <inkscape:path-effect
       effect="spiro"
       id="path-effect4628"
       is_visible="true"
       lpeversion="1" />
    <inkscape:path-effect
       effect="spiro"
       id="path-effect4511"
       is_visible="true"
       lpeversion="1" />
    <inkscape:path-effect
       effect="spiro"
       id="path-effect4076"
       is_visible="true"
       lpeversion="1" />
    <inkscape:path-effect
       effect="spiro"
       id="path-effect4035"
       is_visible="true"
       lpeversion="1" />
    <inkscape:path-effect
       effect="spiro"
       id="path-effect3949"
       is_visible="true"
       lpeversion="1" />
    <inkscape:path-effect
       effect="spiro"
       id="path-effect3943"
       is_visible="true"
       lpeversion="1" />
    <inkscape:path-effect
       effect="spiro"
       id="path-effect2826"
       is_visible="true"
       lpeversion="1" />
    <inkscape:path-effect
       effect="spiro"
       id="path-effect2820"
       is_visible="true"
       lpeversion="1" />
    <inkscape:path-effect
       effect="spiro"
       id="path-effect2415"
       is_visible="true"
       lpeversion="1" />
    <inkscape:path-effect
       effect="spiro"
       id="path-effect2263"
       is_visible="true"
       lpeversion="1" />
    <inkscape:path-effect
       effect="spiro"
       id="path-effect1863"
       is_visible="true"
       lpeversion="1" />
    <inkscape:path-effect
       effect="spiro"
       id="path-effect1613"
       is_visible="true"
       lpeversion="1" />
    <inkscape:path-effect
       effect="spiro"
       id="path-effect1459"
       is_visible="true"
       lpeversion="1" />
    <inkscape:path-effect
       effect="spiro"
       id="path-effect1455"
       is_visible="true"
       lpeversion="1" />
    <inkscape:path-effect
       effect="spiro"
       id="path-effect2916"
       is_visible="true"
       lpeversion="1" />
    <inkscape:path-effect
       effect="spiro"
       id="path-effect2912"
       is_visible="true"
       lpeversion="1" />
    <inkscape:path-effect
       effect="spiro"
       id="path-effect2908"
       is_visible="true"
       lpeversion="1" />
    <inkscape:path-effect
       effect="spiro"
       id="path-effect2904"
       is_visible="true"
       lpeversion="1" />
    <inkscape:path-effect
       effect="spiro"
       id="path-effect1001"
       is_visible="true"
       lpeversion="1" />
    <inkscape:path-effect
       effect="spiro"
       id="path-effect997"
       is_visible="true"
       lpeversion="1" />
    <inkscape:path-effect
       effect="spiro"
       id="path-effect993"
       is_visible="true"
       lpeversion="1" />
    <inkscape:path-effect
       effect="spiro"
       id="path-effect989"
       is_visible="true"
       lpeversion="1" />
    <inkscape:path-effect
       effect="spiro"
       id="path-effect2356"
       is_visible="true"
       lpeversion="1" />
    <inkscape:path-effect
       effect="spiro"
       id="path-effect2352"
       is_visible="true"
       lpeversion="1" />
    <inkscape:path-effect
       effect="spiro"
       id="path-effect2348"
       is_visible="true"
       lpeversion="1" />
    <inkscape:path-effect
       effect="spiro"
       id="path-effect2344"
       is_visible="true"
       lpeversion="1" />
    <inkscape:path-effect
       effect="spiro"
       id="path-effect1589"
       is_visible="true"
       lpeversion="1" />
    <inkscape:path-effect
       effect="spiro"
       id="path-effect1585"
       is_visible="true"
       lpeversion="1" />
    <inkscape:path-effect
       effect="spiro"
       id="path-effect1581"
       is_visible="true"
       lpeversion="1" />
    <inkscape:path-effect
       effect="spiro"
       id="path-effect1577"
       is_visible="true"
       lpeversion="1" />
    <inkscape:path-effect
       effect="spiro"
       id="path-effect1410"
       is_visible="true"
       lpeversion="1" />
    <inkscape:path-effect
       effect="spiro"
       id="path-effect1404"
       is_visible="true"
       lpeversion="1" />
    <inkscape:path-effect
       effect="spiro"
       id="path-effect1318"
       is_visible="true"
       lpeversion="1" />
    <inkscape:path-effect
       effect="spiro"
       id="path-effect1312"
       is_visible="true"
       lpeversion="1" />
  </defs>
  <g
     inkscape:label="Layer 1"
     inkscape:groupmode="layer"
     id="layer1">
    <path
       style="fill:#000000;stroke:#000000;stroke-width:5.12832;stroke-linecap:round;stroke-linejoin:round;stroke-miterlimit:4;stroke-dasharray:none;stroke-opacity:0.955017;paint-order:stroke markers fill"
       d=""
       id="path1507"
       transform="scale(0.26458333)" />
    <path
       style="fill:#000000;stroke:#000000;stroke-width:5.12832;stroke-linecap:round;stroke-linejoin:round;stroke-miterlimit:4;stroke-dasharray:none;stroke-opacity:0.955017;paint-order:stroke markers fill"
       d=""
       id="path1622"
       transform="scale(0.26458333)" />
    <path
       style="fill:#000000;stroke:#000000;stroke-width:5.12832;stroke-linecap:round;stroke-linejoin:round;stroke-miterlimit:4;stroke-dasharray:none;stroke-opacity:0.955017;paint-order:stroke markers fill"
       d=""
       id="path1973"
       transform="scale(0.26458333)" />
    <path
       style="fill:#ffffff;stroke:#000000;stroke-width:3.3948;stroke-linecap:round;stroke-linejoin:round;stroke-opacity:0.955017;paint-order:stroke markers fill"
       d=""
       id="path1530"
       transform="scale(0.26458333)" />
    <path
       style="fill:#ffffff;stroke:#000000;stroke-width:1.36949;stroke-linecap:round;stroke-linejoin:round;stroke-opacity:0.955017;paint-order:stroke markers fill"
       d=""
       id="path1047"
       transform="scale(0.26458333)" />
    <path
       style="fill:#ffffff;stroke:#000000;stroke-width:1.36949;stroke-linecap:round;stroke-linejoin:round;stroke-opacity:0.955017;paint-order:stroke markers fill"
       d=""
       id="path1086"
       transform="scale(0.26458333)" />
    <g
       id="g1569" />
    <g
       id="g1793" />
    <path
       id="path2581"
       style="color:#000000;fill:#000000;stroke-width:4.254;stroke-miterlimit:4;stroke-dasharray:none"
       d="m 63.622957,7.0069826 c -0.892937,0.128504 -1.747002,0.488619 -2.45425,1.033686 -0.707244,0.545067 -1.262435,1.271494 -1.594559,2.0871324 -0.124871,0.306657 -0.218385,0.624719 -0.279085,0.949192 l 0.411615,0.07291 c 0.05577,-0.298134 0.14191,-0.591112 0.256643,-0.872876 0.304676,-0.7482254 0.816045,-1.4181274 1.464837,-1.9181454 0.648791,-0.500017 1.436671,-0.83199 2.255804,-0.949873 z m -56.1321914,0.18466 -0.06101,0.402026 c 0.819131,0.117886 1.607019,0.449857 2.255806,0.949874 0.6487884,0.500017 1.1601644,1.169922 1.4648374,1.9181454 0.114732,0.281764 0.200874,0.574741 0.256644,0.872875 l 0.411613,-0.07291 C 11.757956,10.93718 11.664441,10.619118 11.539572,10.312461 11.20745,9.4968246 10.652253,8.7703956 9.9450116,8.2253286 9.2377696,7.6802616 8.3836946,7.3201496 7.4907616,7.1916426 Z m 2.9058314,-1.853412 c -2.3853834,0 -4.3131684,1.872634 -4.3131684,4.190618 V 64.723052 c 0,2.31798 1.927785,4.19061 4.3131684,4.19061 h 50.100348 c 2.385383,0 4.313168,-1.87263 4.313168,-4.19061 V 9.5288486 c 0,-2.317984 -1.927785,-4.190618 -4.313168,-4.190618 z m 0,0.440867 h 50.100348 c 2.141633,0 3.858783,1.66863 3.858783,3.749751 V 64.723052 c 0,2.08112 -1.71715,3.74906 -3.858783,3.74906 h -2.295074 c 1.592975,-0.61548 2.723516,-2.10953 2.723516,-3.87921 v -0.2603 c 0,-0.29179 -0.112241,-0.54761 -0.170395,-0.82245 a 0.22708119,0.22066503 0 0 0 0.06872,-0.14514 l 0.319052,-7.53903 c 0.0159,-0.16441 0.05049,-0.32344 0.05049,-0.49197 v -0.70865 l 0.03228,-0.76317 a 0.22708119,0.22066503 0 0 0 -0.03228,-0.11857 V 14.882621 c 0,-2.903908 -2.413107,-5.2488354 -5.401452,-5.2488354 h -40.42219 c -2.988343,0 -5.4014524,2.3449274 -5.4014524,5.2488354 v 40.451391 c 0,0.41524 0.06167,0.81417 0.1549684,1.20132 l -0.2881994,6.81128 a 0.22708119,0.22066503 0 0 0 0.2173764,0.22964 0.22708119,0.22066503 0 0 0 0.07854,-0.028 c -0.05301,0.26297 -0.1626814,0.50603 -0.1626814,0.78429 v 0.2603 c 0,1.76969 1.1305394,3.26373 2.7235154,3.87922 h -2.295074 c -2.1416334,0 -3.8587814,-1.66795 -3.8587814,-3.74907 V 9.5288486 c 0,-2.081121 1.717148,-3.749751 3.8587814,-3.749751 z m 4.973011,4.2962364 h 40.42219 c 2.744595,0 4.947067,2.140241 4.947067,4.807287 v 39.741371 l -0.05119,1.20336 c -0.2554,2.42923 -2.325354,4.31395 -4.895877,4.31395 h -40.42219 c -2.333765,0 -4.260968,-1.55342 -4.789994,-3.6564 l 0.110792,-2.62271 a 0.22708119,0.22066503 0 0 0 -0.218077,-0.229637 0.22708119,0.22066503 0 0 0 -0.04979,0.01772 V 14.882621 c 0,-2.667045 2.202473,-4.807287 4.947066,-4.807287 z m 12.726335,13.617124 c -2.988345,0 -5.401452,2.344928 -5.401452,5.248838 v 9.860559 c 0,2.90391 2.413107,5.248835 5.401452,5.248835 h 17.916723 c 2.988345,0 5.401452,-2.344925 5.401452,-5.248835 v -9.860559 c 0,-2.90391 -2.413107,-5.248838 -5.401452,-5.248838 z m 0,0.44155 h 17.916723 c 2.744595,0 4.947067,2.140241 4.947067,4.807288 v 9.860559 c 0,2.66705 -2.202472,4.807285 -4.947067,4.807285 H 28.095943 c -2.744595,0 -4.947065,-2.140235 -4.947065,-4.807285 v -9.860559 c 0,-2.667047 2.20247,-4.807288 4.947065,-4.807288 z M 10.53123,57.627612 c 0.621662,1.23787 1.721388,2.19051 3.075526,2.64588 -1.473822,0.2339 -2.719772,1.11611 -3.289396,2.4108 z m 50.079313,0.0361 -0.201949,4.77799 c -0.588282,-1.11133 -1.661947,-1.8798 -2.959825,-2.13619 1.388286,-0.43586 2.520501,-1.38991 3.161774,-2.6418 z m -46.329219,2.91913 h 1.088284 40.42219 0.820422 c 2.141632,0 3.858782,1.66863 3.858782,3.74975 v 0.2603 c 0,2.08112 -1.71715,3.74907 -3.858782,3.74907 H 14.281324 c -2.141632,0 -3.858782,-1.66795 -3.858782,-3.74907 v -0.2603 c 0,-2.08112 1.71715,-3.74975 3.858782,-3.74975 z m 41.460688,0.35569 c -0.989424,-1e-5 -1.801419,0.76919 -1.801419,1.71781 0,0.85013 0.663626,1.52384 1.511118,1.66126 -0.847532,0.13739 -1.511118,0.8111 -1.511118,1.66125 0,0.94863 0.811995,1.71783 1.801419,1.71782 0.989425,10e-6 1.80072,-0.76919 1.80072,-1.71782 0,-0.85006 -0.663023,-1.52375 -1.510418,-1.66125 0.847355,-0.13753 1.510418,-0.81122 1.510418,-1.66126 0,-0.94862 -0.811295,-1.71782 -1.80072,-1.71781 z m -39.886463,0.12606 c -0.989419,0 -1.801419,0.76851 -1.801419,1.71713 0,0.84988 0.663289,1.52354 1.510415,1.66126 -0.847192,0.13766 -1.510415,0.81201 -1.510415,1.66193 0,0.94863 0.812,1.71782 1.801419,1.71782 0.98942,0 1.800719,-0.76919 1.800718,-1.71782 1e-6,-0.84982 -0.66266,-1.52416 -1.509714,-1.66193 0.846988,-0.13783 1.509715,-0.81147 1.509714,-1.66126 1e-6,-0.94862 -0.811298,-1.71713 -1.800718,-1.71713 z m 4.939353,0 c -0.98942,0 -1.801419,0.76851 -1.801419,1.71713 0,0.84988 0.663288,1.52354 1.510415,1.66126 -0.847193,0.13766 -1.510415,0.81201 -1.510415,1.66193 0,0.94863 0.811999,1.71782 1.801419,1.71782 0.989419,0 1.800718,-0.76919 1.800718,-1.71782 0,-0.84982 -0.66266,-1.52416 -1.509714,-1.66193 0.846988,-0.13783 1.509714,-0.81147 1.509714,-1.66126 0,-0.94862 -0.811299,-1.71713 -1.800718,-1.71713 z m 4.559294,0 c -0.989419,0 -1.800718,0.76851 -1.800717,1.71713 -1e-6,0.84979 0.662726,1.52343 1.509714,1.66126 -0.847055,0.13777 -1.509715,0.81211 -1.509714,1.66193 -1e-6,0.94863 0.811298,1.71782 1.800717,1.71782 0.98942,0 1.80142,-0.76919 1.80142,-1.71782 0,-0.84992 -0.663223,-1.52427 -1.510416,-1.66193 0.847127,-0.13772 1.510416,-0.81138 1.510416,-1.66126 0,-0.94862 -0.812,-1.71713 -1.80142,-1.71713 z m 4.939353,0 c -0.989419,0 -1.800718,0.76851 -1.800718,1.71713 0,0.84979 0.662726,1.52343 1.509714,1.66126 -0.847054,0.13777 -1.509714,0.81211 -1.509714,1.66193 0,0.94863 0.811299,1.71782 1.800718,1.71782 0.989419,0 1.801419,-0.76919 1.801419,-1.71782 0,-0.84992 -0.663222,-1.52427 -1.510415,-1.66193 0.847126,-0.13772 1.510415,-0.81138 1.510415,-1.66126 0,-0.94862 -0.812,-1.71713 -1.801419,-1.71713 z m 5.069077,0.0327 c -0.989415,0 -1.80142,0.76919 -1.801419,1.71781 -1e-6,0.84992 0.663226,1.52428 1.510415,1.66194 -0.847123,0.13772 -1.510416,0.81138 -1.510415,1.66126 -1e-6,0.94861 0.812004,1.7178 1.801419,1.71781 0.989421,0 1.800716,-0.76919 1.800716,-1.71781 0,-0.84979 -0.662721,-1.52343 -1.509711,-1.66126 0.847054,-0.13777 1.509711,-0.81211 1.509711,-1.66194 0,-0.94862 -0.811295,-1.71781 -1.800716,-1.71781 z m 5.319412,0 c -0.98942,0 -1.80142,0.76919 -1.80142,1.71781 0,0.84993 0.663221,1.52428 1.510415,1.66194 -0.847126,0.13771 -1.510415,0.81138 -1.510415,1.66126 0,0.94862 0.812,1.71781 1.80142,1.71781 0.989421,0 1.800716,-0.76919 1.800716,-1.71781 0,-0.84979 -0.662725,-1.52343 -1.509714,-1.66126 0.847057,-0.13777 1.509714,-0.81211 1.509714,-1.66194 0,-0.94862 -0.811295,-1.71781 -1.800716,-1.71781 z m 4.719871,0.0974 c -0.989421,0 -1.80072,0.76851 -1.80072,1.71713 0,0.85006 0.663031,1.52444 1.510419,1.66194 -0.847349,0.13753 -1.510419,0.81123 -1.510419,1.66126 0,0.94861 0.811299,1.71781 1.80072,1.71781 0.989421,0 1.80142,-0.76919 1.80142,-1.71781 0,-0.85013 -0.663627,-1.52384 -1.511119,-1.66126 0.847532,-0.13739 1.511119,-0.81178 1.511119,-1.66194 0,-0.94862 -0.811999,-1.71714 -1.80142,-1.71713 z m 5.020691,0.11311 c -0.98942,0 -1.801416,0.76919 -1.801416,1.71781 0,0.85039 0.663953,1.52414 1.511815,1.66126 -0.847862,0.13712 -1.511815,0.81087 -1.511815,1.66126 0,0.94862 0.811996,1.71782 1.801416,1.71781 0.989425,10e-6 1.80072,-0.76919 1.80072,-1.71781 0,-0.85052 -0.663759,-1.5243 -1.511818,-1.66126 0.848059,-0.13696 1.511818,-0.81073 1.511818,-1.66126 0,-0.94862 -0.811295,-1.71781 -1.80072,-1.71781 z m 5.319412,0.0722 c 0.749196,0 1.347032,0.57134 1.347032,1.27627 0,0.70492 -0.597836,1.27626 -1.347032,1.27626 -0.749195,0 -1.347031,-0.57134 -1.347031,-1.27626 0,-0.70493 0.597836,-1.27627 1.347031,-1.27627 z m -39.886463,0.12538 c 0.749194,0 1.346332,0.57134 1.346332,1.27626 0,0.70493 -0.597138,1.27695 -1.346332,1.27695 -0.749193,0 -1.347032,-0.57202 -1.347032,-1.27695 0,-0.70492 0.597839,-1.27626 1.347032,-1.27626 z m 4.939353,0 c 0.749194,0 1.347032,0.57134 1.347032,1.27626 0,0.70493 -0.597838,1.27695 -1.347032,1.27695 -0.749194,0 -1.347033,-0.57202 -1.347032,-1.27695 -1e-6,-0.70492 0.597838,-1.27626 1.347032,-1.27626 z m 4.559294,0 c 0.749194,0 1.347033,0.57134 1.347033,1.27626 0,0.70493 -0.597839,1.27695 -1.347033,1.27695 -0.749193,0 -1.347032,-0.57202 -1.347032,-1.27695 0,-0.70492 0.597839,-1.27626 1.347032,-1.27626 z m 4.939353,0 c 0.749194,0 1.347032,0.57134 1.347032,1.27626 0,0.70493 -0.597838,1.27695 -1.347032,1.27695 -0.749194,0 -1.346331,-0.57202 -1.346331,-1.27695 0,-0.70492 0.597137,-1.27626 1.346331,-1.27626 z m 5.069077,0.0334 c 0.749196,0 1.347032,0.57134 1.347032,1.27626 0,0.70493 -0.597836,1.27627 -1.347032,1.27627 -0.749191,-1e-5 -1.347033,-0.57135 -1.347032,-1.27627 -10e-7,-0.70492 0.597841,-1.27626 1.347032,-1.27626 z m 5.319412,0 c 0.749196,-10e-6 1.347031,0.57134 1.347031,1.27626 0,0.70493 -0.597835,1.27627 -1.347031,1.27627 -0.749195,0 -1.347035,-0.57135 -1.347035,-1.27627 0,-0.70492 0.59784,-1.27626 1.347035,-1.27626 z m 4.719871,0.0968 c 0.749196,-10e-6 1.347031,0.57134 1.347031,1.27626 0,0.70493 -0.597835,1.27695 -1.347031,1.27695 -0.749192,0 -1.347031,-0.57202 -1.347031,-1.27695 0,-0.70492 0.597839,-1.27626 1.347031,-1.27626 z m 5.020691,0.11311 c 0.7492,-10e-6 1.347035,0.57202 1.347035,1.27694 0,0.70493 -0.597835,1.27628 -1.347035,1.27627 -0.749195,1e-5 -1.347031,-0.57134 -1.347031,-1.27627 0,-0.70492 0.597836,-1.27695 1.347031,-1.27694 z m 5.319412,2.95387 c 0.749196,0 1.347032,0.57134 1.347032,1.27627 0,0.70493 -0.597836,1.27695 -1.347032,1.27694 -0.749195,1e-5 -1.347031,-0.57201 -1.347031,-1.27694 0,-0.70493 0.597836,-1.27627 1.347031,-1.27627 z m -39.886463,0.12608 c 0.749194,0 1.346332,0.57134 1.346332,1.27626 0,0.70493 -0.597138,1.27627 -1.346332,1.27627 -0.749193,0 -1.347032,-0.57134 -1.347032,-1.27627 0,-0.70492 0.597839,-1.27626 1.347032,-1.27626 z m 4.939353,0 c 0.749194,0 1.347032,0.57134 1.347032,1.27626 0,0.70493 -0.597838,1.27627 -1.347032,1.27627 -0.749194,0 -1.347033,-0.57134 -1.347032,-1.27627 -1e-6,-0.70492 0.597838,-1.27626 1.347032,-1.27626 z m 4.559294,0 c 0.749194,0 1.347033,0.57134 1.347033,1.27626 0,0.70493 -0.597839,1.27627 -1.347033,1.27627 -0.749193,0 -1.347032,-0.57134 -1.347032,-1.27627 0,-0.70492 0.597839,-1.27626 1.347032,-1.27626 z m 4.939353,0 c 0.749194,0 1.347032,0.57134 1.347032,1.27626 0,0.70493 -0.597838,1.27627 -1.347032,1.27627 -0.749194,0 -1.346331,-0.57134 -1.346331,-1.27627 0,-0.70492 0.597137,-1.27626 1.346331,-1.27626 z m 5.069077,0.0334 c 0.749196,0 1.347032,0.57134 1.347032,1.27627 0,0.70492 -0.597836,1.27626 -1.347032,1.27626 -0.749191,0 -1.347033,-0.57134 -1.347032,-1.27626 -10e-7,-0.70493 0.597841,-1.27626 1.347032,-1.27627 z m 5.319412,0 c 0.749196,0 1.347031,0.57134 1.347031,1.27627 0,0.70492 -0.597835,1.27626 -1.347031,1.27626 -0.749195,0 -1.347035,-0.57134 -1.347035,-1.27626 0,-0.70493 0.59784,-1.27627 1.347035,-1.27627 z m 4.719871,0.0968 c 0.749196,0 1.347031,0.57134 1.347031,1.27626 0,0.70493 -0.597835,1.27627 -1.347031,1.27627 -0.749192,0 -1.347031,-0.57134 -1.347031,-1.27627 0,-0.70492 0.597839,-1.27626 1.347031,-1.27626 z m 5.020691,0.11311 c 0.7492,0 1.347035,0.57134 1.347035,1.27627 0,0.70492 -0.597835,1.27626 -1.347035,1.27626 -0.749195,0 -1.347031,-0.57134 -1.347031,-1.27626 0,-0.70493 0.597836,-1.27627 1.347031,-1.27627 z" />
    <path
       id="path2618"
       style="color:#000000;fill:#000000;stroke-width:5.154;stroke-miterlimit:4;stroke-dasharray:none"
       d="m 63.622957,7.0069826 c -0.892937,0.128504 -1.747002,0.488619 -2.45425,1.033686 -0.707244,0.545067 -1.262435,1.271494 -1.594559,2.0871324 -0.124871,0.306657 -0.218385,0.624719 -0.279085,0.949192 l 0.411615,0.07291 c 0.05577,-0.298134 0.14191,-0.591112 0.256643,-0.872876 0.304676,-0.7482254 0.816045,-1.4181274 1.464837,-1.9181454 0.648791,-0.500017 1.436671,-0.83199 2.255804,-0.949873 z m -56.1321914,0.18466 -0.06101,0.402026 c 0.819131,0.117886 1.607019,0.449857 2.255806,0.949874 0.6487884,0.500017 1.1601644,1.169922 1.4648374,1.9181454 0.114732,0.281764 0.200874,0.574741 0.256644,0.872875 l 0.411613,-0.07291 C 11.757956,10.93718 11.664441,10.619118 11.539572,10.312461 11.20745,9.4968246 10.652253,8.7703956 9.9450116,8.2253286 9.2377696,7.6802616 8.3836946,7.3201496 7.4907616,7.1916426 Z m 2.9058314,-1.853412 c -2.3853834,0 -4.3131684,1.872634 -4.3131684,4.190618 V 64.723052 c 0,2.31798 1.927785,4.19061 4.3131684,4.19061 h 50.100348 c 2.385383,0 4.313168,-1.87263 4.313168,-4.19061 V 9.5288486 c 0,-2.317984 -1.927785,-4.190618 -4.313168,-4.190618 z m 0,0.440867 h 50.100348 c 2.141633,0 3.858783,1.66863 3.858783,3.749751 V 64.723052 c 0,2.08112 -1.71715,3.74906 -3.858783,3.74906 h -2.295074 c 1.592975,-0.61548 2.723516,-2.10953 2.723516,-3.87921 v -0.2603 c 0,-0.29179 -0.112241,-0.54761 -0.170395,-0.82245 a 0.22708119,0.22066503 0 0 0 0.06872,-0.14514 l 0.319052,-7.53903 c 0.0159,-0.16441 0.05049,-0.32344 0.05049,-0.49197 v -0.70865 l 0.03228,-0.76317 a 0.22708119,0.22066503 0 0 0 -0.03228,-0.11857 V 14.882621 c 0,-2.903908 -2.413107,-5.2488354 -5.401452,-5.2488354 h -40.42219 c -2.988343,0 -5.4014524,2.3449274 -5.4014524,5.2488354 v 40.451391 c 0,0.41524 0.06167,0.81417 0.1549684,1.20132 l -0.2881994,6.81128 a 0.22708119,0.22066503 0 0 0 0.2173764,0.22964 0.22708119,0.22066503 0 0 0 0.07854,-0.028 c -0.05301,0.26297 -0.1626814,0.50603 -0.1626814,0.78429 v 0.2603 c 0,1.76969 1.1305394,3.26373 2.7235154,3.87922 h -2.295074 c -2.1416334,0 -3.8587814,-1.66795 -3.8587814,-3.74907 V 9.5288486 c 0,-2.081121 1.717148,-3.749751 3.8587814,-3.749751 z m 4.973011,4.2962364 h 40.42219 c 2.744595,0 4.947067,2.140241 4.947067,4.807287 v 39.741371 l -0.05119,1.20336 c -0.2554,2.42923 -2.325354,4.31395 -4.895877,4.31395 h -40.42219 c -2.333765,0 -4.260968,-1.55342 -4.789994,-3.6564 l 0.110792,-2.62271 a 0.22708119,0.22066503 0 0 0 -0.218077,-0.229637 0.22708119,0.22066503 0 0 0 -0.04979,0.01772 V 14.882621 c 0,-2.667045 2.202473,-4.807287 4.947066,-4.807287 z m 12.726335,13.617124 c -2.988345,0 -5.401452,2.344928 -5.401452,5.248838 v 9.860559 c 0,2.90391 2.413107,5.248835 5.401452,5.248835 h 17.916723 c 2.988345,0 5.401452,-2.344925 5.401452,-5.248835 v -9.860559 c 0,-2.90391 -2.413107,-5.248838 -5.401452,-5.248838 z m 0,0.44155 h 17.916723 c 2.744595,0 4.947067,2.140241 4.947067,4.807288 v 9.860559 c 0,2.66705 -2.202472,4.807285 -4.947067,4.807285 H 28.095943 c -2.744595,0 -4.947065,-2.140235 -4.947065,-4.807285 v -9.860559 c 0,-2.667047 2.20247,-4.807288 4.947065,-4.807288 z M 10.53123,57.627612 c 0.621662,1.23787 1.721388,2.19051 3.075526,2.64588 -1.473822,0.2339 -2.719772,1.11611 -3.289396,2.4108 z m 50.079313,0.0361 -0.201949,4.77799 c -0.588282,-1.11133 -1.661947,-1.8798 -2.959825,-2.13619 1.388286,-0.43586 2.520501,-1.38991 3.161774,-2.6418 z m -46.329219,2.91913 h 1.088284 40.42219 0.820422 c 2.141632,0 3.858782,1.66863 3.858782,3.74975 v 0.2603 c 0,2.08112 -1.71715,3.74907 -3.858782,3.74907 H 14.281324 c -2.141632,0 -3.858782,-1.66795 -3.858782,-3.74907 v -0.2603 c 0,-2.08112 1.71715,-3.74975 3.858782,-3.74975 z m 41.460688,0.35569 c -0.989424,-1e-5 -1.801419,0.76919 -1.801419,1.71781 0,0.85013 0.663626,1.52384 1.511118,1.66126 -0.847532,0.13739 -1.511118,0.8111 -1.511118,1.66125 0,0.94863 0.811995,1.71783 1.801419,1.71782 0.989425,10e-6 1.80072,-0.76919 1.80072,-1.71782 0,-0.85006 -0.663023,-1.52375 -1.510418,-1.66125 0.847355,-0.13753 1.510418,-0.81122 1.510418,-1.66126 0,-0.94862 -0.811295,-1.71782 -1.80072,-1.71781 z m -39.886463,0.12606 c -0.989419,0 -1.801419,0.76851 -1.801419,1.71713 0,0.84988 0.663289,1.52354 1.510415,1.66126 -0.847192,0.13766 -1.510415,0.81201 -1.510415,1.66193 0,0.94863 0.812,1.71782 1.801419,1.71782 0.98942,0 1.800719,-0.76919 1.800718,-1.71782 1e-6,-0.84982 -0.66266,-1.52416 -1.509714,-1.66193 0.846988,-0.13783 1.509715,-0.81147 1.509714,-1.66126 1e-6,-0.94862 -0.811298,-1.71713 -1.800718,-1.71713 z m 4.939353,0 c -0.98942,0 -1.801419,0.76851 -1.801419,1.71713 0,0.84988 0.663288,1.52354 1.510415,1.66126 -0.847193,0.13766 -1.510415,0.81201 -1.510415,1.66193 0,0.94863 0.811999,1.71782 1.801419,1.71782 0.989419,0 1.800718,-0.76919 1.800718,-1.71782 0,-0.84982 -0.66266,-1.52416 -1.509714,-1.66193 0.846988,-0.13783 1.509714,-0.81147 1.509714,-1.66126 0,-0.94862 -0.811299,-1.71713 -1.800718,-1.71713 z m 4.559294,0 c -0.989419,0 -1.800718,0.76851 -1.800717,1.71713 -1e-6,0.84979 0.662726,1.52343 1.509714,1.66126 -0.847055,0.13777 -1.509715,0.81211 -1.509714,1.66193 -1e-6,0.94863 0.811298,1.71782 1.800717,1.71782 0.98942,0 1.80142,-0.76919 1.80142,-1.71782 0,-0.84992 -0.663223,-1.52427 -1.510416,-1.66193 0.847127,-0.13772 1.510416,-0.81138 1.510416,-1.66126 0,-0.94862 -0.812,-1.71713 -1.80142,-1.71713 z m 4.939353,0 c -0.989419,0 -1.800718,0.76851 -1.800718,1.71713 0,0.84979 0.662726,1.52343 1.509714,1.66126 -0.847054,0.13777 -1.509714,0.81211 -1.509714,1.66193 0,0.94863 0.811299,1.71782 1.800718,1.71782 0.989419,0 1.801419,-0.76919 1.801419,-1.71782 0,-0.84992 -0.663222,-1.52427 -1.510415,-1.66193 0.847126,-0.13772 1.510415,-0.81138 1.510415,-1.66126 0,-0.94862 -0.812,-1.71713 -1.801419,-1.71713 z m 5.069077,0.0327 c -0.989415,0 -1.80142,0.76919 -1.801419,1.71781 -1e-6,0.84992 0.663226,1.52428 1.510415,1.66194 -0.847123,0.13772 -1.510416,0.81138 -1.510415,1.66126 -1e-6,0.94861 0.812004,1.7178 1.801419,1.71781 0.989421,0 1.800716,-0.76919 1.800716,-1.71781 0,-0.84979 -0.662721,-1.52343 -1.509711,-1.66126 0.847054,-0.13777 1.509711,-0.81211 1.509711,-1.66194 0,-0.94862 -0.811295,-1.71781 -1.800716,-1.71781 z m 5.319412,0 c -0.98942,0 -1.80142,0.76919 -1.80142,1.71781 0,0.84993 0.663221,1.52428 1.510415,1.66194 -0.847126,0.13771 -1.510415,0.81138 -1.510415,1.66126 0,0.94862 0.812,1.71781 1.80142,1.71781 0.989421,0 1.800716,-0.76919 1.800716,-1.71781 0,-0.84979 -0.662725,-1.52343 -1.509714,-1.66126 0.847057,-0.13777 1.509714,-0.81211 1.509714,-1.66194 0,-0.94862 -0.811295,-1.71781 -1.800716,-1.71781 z m 4.719871,0.0974 c -0.989421,0 -1.80072,0.76851 -1.80072,1.71713 0,0.85006 0.663031,1.52444 1.510419,1.66194 -0.847349,0.13753 -1.510419,0.81123 -1.510419,1.66126 0,0.94861 0.811299,1.71781 1.80072,1.71781 0.989421,0 1.80142,-0.76919 1.80142,-1.71781 0,-0.85013 -0.663627,-1.52384 -1.511119,-1.66126 0.847532,-0.13739 1.511119,-0.81178 1.511119,-1.66194 0,-0.94862 -0.811999,-1.71714 -1.80142,-1.71713 z m 5.020691,0.11311 c -0.98942,0 -1.801416,0.76919 -1.801416,1.71781 0,0.85039 0.663953,1.52414 1.511815,1.66126 -0.847862,0.13712 -1.511815,0.81087 -1.511815,1.66126 0,0.94862 0.811996,1.71782 1.801416,1.71781 0.989425,10e-6 1.80072,-0.76919 1.80072,-1.71781 0,-0.85052 -0.663759,-1.5243 -1.511818,-1.66126 0.848059,-0.13696 1.511818,-0.81073 1.511818,-1.66126 0,-0.94862 -0.811295,-1.71781 -1.80072,-1.71781 z m 5.319412,0.0722 c 0.749196,0 1.347032,0.57134 1.347032,1.27627 0,0.70492 -0.597836,1.27626 -1.347032,1.27626 -0.749195,0 -1.347031,-0.57134 -1.347031,-1.27626 0,-0.70493 0.597836,-1.27627 1.347031,-1.27627 z m -39.886463,0.12538 c 0.749194,0 1.346332,0.57134 1.346332,1.27626 0,0.70493 -0.597138,1.27695 -1.346332,1.27695 -0.749193,0 -1.347032,-0.57202 -1.347032,-1.27695 0,-0.70492 0.597839,-1.27626 1.347032,-1.27626 z m 4.939353,0 c 0.749194,0 1.347032,0.57134 1.347032,1.27626 0,0.70493 -0.597838,1.27695 -1.347032,1.27695 -0.749194,0 -1.347033,-0.57202 -1.347032,-1.27695 -1e-6,-0.70492 0.597838,-1.27626 1.347032,-1.27626 z m 4.559294,0 c 0.749194,0 1.347033,0.57134 1.347033,1.27626 0,0.70493 -0.597839,1.27695 -1.347033,1.27695 -0.749193,0 -1.347032,-0.57202 -1.347032,-1.27695 0,-0.70492 0.597839,-1.27626 1.347032,-1.27626 z m 4.939353,0 c 0.749194,0 1.347032,0.57134 1.347032,1.27626 0,0.70493 -0.597838,1.27695 -1.347032,1.27695 -0.749194,0 -1.346331,-0.57202 -1.346331,-1.27695 0,-0.70492 0.597137,-1.27626 1.346331,-1.27626 z m 5.069077,0.0334 c 0.749196,0 1.347032,0.57134 1.347032,1.27626 0,0.70493 -0.597836,1.27627 -1.347032,1.27627 -0.749191,-1e-5 -1.347033,-0.57135 -1.347032,-1.27627 -10e-7,-0.70492 0.597841,-1.27626 1.347032,-1.27626 z m 5.319412,0 c 0.749196,-10e-6 1.347031,0.57134 1.347031,1.27626 0,0.70493 -0.597835,1.27627 -1.347031,1.27627 -0.749195,0 -1.347035,-0.57135 -1.347035,-1.27627 0,-0.70492 0.59784,-1.27626 1.347035,-1.27626 z m 4.719871,0.0968 c 0.749196,-10e-6 1.347031,0.57134 1.347031,1.27626 0,0.70493 -0.597835,1.27695 -1.347031,1.27695 -0.749192,0 -1.347031,-0.57202 -1.347031,-1.27695 0,-0.70492 0.597839,-1.27626 1.347031,-1.27626 z m 5.020691,0.11311 c 0.7492,-10e-6 1.347035,0.57202 1.347035,1.27694 0,0.70493 -0.597835,1.27628 -1.347035,1.27627 -0.749195,1e-5 -1.347031,-0.57134 -1.347031,-1.27627 0,-0.70492 0.597836,-1.27695 1.347031,-1.27694 z m 5.319412,2.95387 c 0.749196,0 1.347032,0.57134 1.347032,1.27627 0,0.70493 -0.597836,1.27695 -1.347032,1.27694 -0.749195,1e-5 -1.347031,-0.57201 -1.347031,-1.27694 0,-0.70493 0.597836,-1.27627 1.347031,-1.27627 z m -39.886463,0.12608 c 0.749194,0 1.346332,0.57134 1.346332,1.27626 0,0.70493 -0.597138,1.27627 -1.346332,1.27627 -0.749193,0 -1.347032,-0.57134 -1.347032,-1.27627 0,-0.70492 0.597839,-1.27626 1.347032,-1.27626 z m 4.939353,0 c 0.749194,0 1.347032,0.57134 1.347032,1.27626 0,0.70493 -0.597838,1.27627 -1.347032,1.27627 -0.749194,0 -1.347033,-0.57134 -1.347032,-1.27627 -1e-6,-0.70492 0.597838,-1.27626 1.347032,-1.27626 z m 4.559294,0 c 0.749194,0 1.347033,0.57134 1.347033,1.27626 0,0.70493 -0.597839,1.27627 -1.347033,1.27627 -0.749193,0 -1.347032,-0.57134 -1.347032,-1.27627 0,-0.70492 0.597839,-1.27626 1.347032,-1.27626 z m 4.939353,0 c 0.749194,0 1.347032,0.57134 1.347032,1.27626 0,0.70493 -0.597838,1.27627 -1.347032,1.27627 -0.749194,0 -1.346331,-0.57134 -1.346331,-1.27627 0,-0.70492 0.597137,-1.27626 1.346331,-1.27626 z m 5.069077,0.0334 c 0.749196,0 1.347032,0.57134 1.347032,1.27627 0,0.70492 -0.597836,1.27626 -1.347032,1.27626 -0.749191,0 -1.347033,-0.57134 -1.347032,-1.27626 -10e-7,-0.70493 0.597841,-1.27626 1.347032,-1.27627 z m 5.319412,0 c 0.749196,0 1.347031,0.57134 1.347031,1.27627 0,0.70492 -0.597835,1.27626 -1.347031,1.27626 -0.749195,0 -1.347035,-0.57134 -1.347035,-1.27626 0,-0.70493 0.59784,-1.27627 1.347035,-1.27627 z m 4.719871,0.0968 c 0.749196,0 1.347031,0.57134 1.347031,1.27626 0,0.70493 -0.597835,1.27627 -1.347031,1.27627 -0.749192,0 -1.347031,-0.57134 -1.347031,-1.27627 0,-0.70492 0.597839,-1.27626 1.347031,-1.27626 z m 5.020691,0.11311 c 0.7492,0 1.347035,0.57134 1.347035,1.27627 0,0.70492 -0.597835,1.27626 -1.347035,1.27626 -0.749195,0 -1.347031,-0.57134 -1.347031,-1.27626 0,-0.70493 0.597836,-1.27627 1.347031,-1.27627 z" />
    <path
       style="fill:#000000;stroke:#000000;stroke-width:1.7088;stroke-linecap:round;stroke-linejoin:round;stroke-miterlimit:4;stroke-dasharray:none;stroke-opacity:0.955017;paint-order:stroke markers fill"
       d=""
       id="path1377"
       transform="scale(0.26458333)" />
    <g
       id="g2858">
      <path
         id="path929"
         style="color:#000000;fill:#000000;stroke-width:5.154;stroke-miterlimit:4;stroke-dasharray:none"
         d="m 199.61944,7.0069826 c -0.89294,0.128504 -1.74701,0.488619 -2.45427,1.033686 -0.70724,0.545067 -1.26244,1.271494 -1.59456,2.0871324 -0.12487,0.306657 -0.21839,0.624719 -0.27909,0.949192 l 0.41162,0.07291 c 0.0558,-0.298134 0.14191,-0.591112 0.25664,-0.872876 0.30468,-0.7482254 0.81605,-1.4181274 1.46485,-1.9181454 0.64879,-0.500017 1.43668,-0.83199 2.25581,-0.949873 z m -56.13251,0.18466 -0.061,0.402026 c 0.81913,0.117886 1.60703,0.449857 2.25582,0.949874 0.64879,0.500017 1.16017,1.169922 1.46484,1.9181454 0.11474,0.281764 0.20088,0.574741 0.25665,0.872875 l 0.41161,-0.07291 c -0.0607,-0.324473 -0.15421,-0.642535 -0.27908,-0.949192 -0.33212,-0.8156364 -0.88732,-1.5420654 -1.59457,-2.0871324 -0.70725,-0.545067 -1.56133,-0.905179 -2.45427,-1.033686 z m 2.90585,-1.853412 c -2.3854,0 -4.3132,1.872634 -4.3132,4.190618 V 64.723052 c 0,2.31798 1.9278,4.19061 4.3132,4.19061 h 50.10063 c 2.38539,0 4.31319,-1.87263 4.31319,-4.19061 V 9.5288486 c 0,-2.317984 -1.9278,-4.190618 -4.31319,-4.190618 z m 0,0.440867 h 50.10063 c 2.14164,0 3.8588,1.66863 3.8588,3.749751 V 64.723052 c 0,2.08112 -1.71716,3.74906 -3.8588,3.74906 h -2.29509 c 1.59299,-0.61548 2.72353,-2.10953 2.72353,-3.87921 v -0.2603 c 0,-0.29179 -0.11224,-0.54761 -0.17039,-0.82245 a 0.22708119,0.22066503 0 0 0 0.0687,-0.14514 l 0.31905,-7.53903 c 0.0159,-0.16441 0.0505,-0.32344 0.0505,-0.49197 v -0.70865 l 0.0323,-0.76317 a 0.22708119,0.22066503 0 0 0 -0.0323,-0.11857 V 14.882621 c 0,-2.903908 -2.41312,-5.2488354 -5.40148,-5.2488354 H 151.3658 c -2.98836,0 -5.40148,2.3449274 -5.40148,5.2488354 v 40.451391 c 0,0.41524 0.0617,0.81417 0.15497,1.20132 l -0.28821,6.81128 a 0.22708119,0.22066503 0 0 0 0.21738,0.22964 0.22708119,0.22066503 0 0 0 0.0785,-0.028 c -0.053,0.26297 -0.16268,0.50603 -0.16268,0.78429 v 0.2603 c 0,1.76969 1.13055,3.26373 2.72353,3.87922 h -2.29507 c -2.14164,0 -3.8588,-1.66795 -3.8588,-3.74907 V 9.5288486 c 0,-2.081121 1.71716,-3.749751 3.8588,-3.749751 z m 4.97304,4.2962364 h 40.42242 c 2.74461,0 4.94709,2.140241 4.94709,4.807287 v 39.741371 l -0.0512,1.20336 c -0.2554,2.42923 -2.32537,4.31395 -4.8959,4.31395 h -40.42242 c -2.33378,0 -4.26099,-1.55342 -4.79002,-3.6564 l 0.11079,-2.62271 a 0.22708119,0.22066503 0 0 0 -0.21808,-0.229637 0.22708119,0.22066503 0 0 0 -0.0498,0.01772 V 14.882621 c 0,-2.667045 2.20248,-4.807287 4.94709,-4.807287 z m 12.7264,13.617124 c -2.98836,0 -5.40148,2.344928 -5.40148,5.248838 v 9.860559 c 0,2.90391 2.41312,5.248835 5.40148,5.248835 h 17.91683 c 2.98836,0 5.40148,-2.344925 5.40148,-5.248835 v -9.860559 c 0,-2.90391 -2.41312,-5.248838 -5.40148,-5.248838 z m 0,0.44155 h 17.91683 c 2.74461,0 4.94709,2.140241 4.94709,4.807288 v 9.860559 c 0,2.66705 -2.20248,4.807285 -4.94709,4.807285 h -17.91683 c -2.74461,0 -4.94709,-2.140235 -4.94709,-4.807285 v -9.860559 c 0,-2.667047 2.20248,-4.807288 4.94709,-4.807288 z m -17.56481,33.493604 c 0.62167,1.23787 1.7214,2.19051 3.07554,2.64588 -1.47383,0.2339 -2.71978,1.11611 -3.28941,2.4108 z m 50.0796,0.0361 -0.20195,4.77799 c -0.58829,-1.11133 -1.66196,-1.8798 -2.95984,-2.13619 1.38829,-0.43586 2.52051,-1.38991 3.16179,-2.6418 z m -46.32948,2.91913 h 1.08829 40.42242 0.82042 c 2.14165,0 3.85881,1.66863 3.85881,3.74975 v 0.2603 c 0,2.08112 -1.71716,3.74907 -3.85881,3.74907 h -42.33113 c -2.14165,0 -3.85881,-1.66795 -3.85881,-3.74907 v -0.2603 c 0,-2.08112 1.71716,-3.74975 3.85881,-3.74975 z m 41.46092,0.35569 c -0.98943,-1e-5 -1.80143,0.76919 -1.80143,1.71781 0,0.85013 0.66363,1.52384 1.51113,1.66126 -0.84754,0.13739 -1.51113,0.8111 -1.51113,1.66125 0,0.94863 0.812,1.71783 1.80143,1.71782 0.98943,10e-6 1.80073,-0.76919 1.80073,-1.71782 0,-0.85006 -0.66303,-1.52375 -1.51043,-1.66125 0.84736,-0.13753 1.51043,-0.81122 1.51043,-1.66126 0,-0.94862 -0.8113,-1.71782 -1.80073,-1.71781 z m -39.88669,0.12606 c -0.98942,0 -1.80143,0.76851 -1.80143,1.71713 0,0.84988 0.66329,1.52354 1.51042,1.66126 -0.84719,0.13766 -1.51042,0.81201 -1.51042,1.66193 0,0.94863 0.81201,1.71782 1.80143,1.71782 0.98942,0 1.80073,-0.76919 1.80073,-1.71782 0,-0.84982 -0.66266,-1.52416 -1.50972,-1.66193 0.84699,-0.13783 1.50972,-0.81147 1.50972,-1.66126 0,-0.94862 -0.81131,-1.71713 -1.80073,-1.71713 z m 4.93938,0 c -0.98942,0 -1.80143,0.76851 -1.80143,1.71713 0,0.84988 0.66329,1.52354 1.51042,1.66126 -0.84719,0.13766 -1.51042,0.81201 -1.51042,1.66193 0,0.94863 0.81201,1.71782 1.80143,1.71782 0.98943,0 1.80073,-0.76919 1.80073,-1.71782 0,-0.84982 -0.66266,-1.52416 -1.50972,-1.66193 0.84699,-0.13783 1.50972,-0.81147 1.50972,-1.66126 0,-0.94862 -0.8113,-1.71713 -1.80073,-1.71713 z m 4.55932,0 c -0.98942,0 -1.80073,0.76851 -1.80073,1.71713 0,0.84979 0.66273,1.52343 1.50973,1.66126 -0.84706,0.13777 -1.50973,0.81211 -1.50973,1.66193 0,0.94863 0.81131,1.71782 1.80073,1.71782 0.98943,0 1.80143,-0.76919 1.80143,-1.71782 0,-0.84992 -0.66322,-1.52427 -1.51042,-1.66193 0.84713,-0.13772 1.51042,-0.81138 1.51042,-1.66126 0,-0.94862 -0.812,-1.71713 -1.80143,-1.71713 z m 4.93938,0 c -0.98942,0 -1.80073,0.76851 -1.80073,1.71713 0,0.84979 0.66273,1.52343 1.50973,1.66126 -0.84706,0.13777 -1.50973,0.81211 -1.50973,1.66193 0,0.94863 0.81131,1.71782 1.80073,1.71782 0.98943,0 1.80143,-0.76919 1.80143,-1.71782 0,-0.84992 -0.66322,-1.52427 -1.51042,-1.66193 0.84713,-0.13772 1.51042,-0.81138 1.51042,-1.66126 0,-0.94862 -0.812,-1.71713 -1.80143,-1.71713 z m 5.06911,0.0327 c -0.98942,0 -1.80143,0.76919 -1.80143,1.71781 0,0.84992 0.66323,1.52428 1.51042,1.66194 -0.84713,0.13772 -1.51042,0.81138 -1.51042,1.66126 0,0.94861 0.81201,1.7178 1.80143,1.71781 0.98942,0 1.80072,-0.76919 1.80072,-1.71781 0,-0.84979 -0.66272,-1.52343 -1.50972,-1.66126 0.84706,-0.13777 1.50972,-0.81211 1.50972,-1.66194 0,-0.94862 -0.8113,-1.71781 -1.80072,-1.71781 z m 5.31944,0 c -0.98942,0 -1.80143,0.76919 -1.80143,1.71781 0,0.84993 0.66322,1.52428 1.51042,1.66194 -0.84713,0.13771 -1.51042,0.81138 -1.51042,1.66126 0,0.94862 0.81201,1.71781 1.80143,1.71781 0.98943,0 1.80073,-0.76919 1.80073,-1.71781 0,-0.84979 -0.66273,-1.52343 -1.50973,-1.66126 0.84707,-0.13777 1.50973,-0.81211 1.50973,-1.66194 0,-0.94862 -0.8113,-1.71781 -1.80073,-1.71781 z m 4.7199,0.0974 c -0.98943,0 -1.80073,0.76851 -1.80073,1.71713 0,0.85006 0.66303,1.52444 1.51043,1.66194 -0.84736,0.13753 -1.51043,0.81123 -1.51043,1.66126 0,0.94861 0.8113,1.71781 1.80073,1.71781 0.98942,0 1.80143,-0.76919 1.80143,-1.71781 0,-0.85013 -0.66363,-1.52384 -1.51113,-1.66126 0.84754,-0.13739 1.51113,-0.81178 1.51113,-1.66194 0,-0.94862 -0.81201,-1.71714 -1.80143,-1.71713 z m 5.02072,0.11311 c -0.98943,0 -1.80143,0.76919 -1.80143,1.71781 0,0.85039 0.66396,1.52414 1.51182,1.66126 -0.84786,0.13712 -1.51182,0.81087 -1.51182,1.66126 0,0.94862 0.812,1.71782 1.80143,1.71781 0.98943,10e-6 1.80073,-0.76919 1.80073,-1.71781 0,-0.85052 -0.66377,-1.5243 -1.51183,-1.66126 0.84806,-0.13696 1.51183,-0.81073 1.51183,-1.66126 0,-0.94862 -0.8113,-1.71781 -1.80073,-1.71781 z m 5.31944,0.0722 c 0.7492,0 1.34704,0.57134 1.34704,1.27627 0,0.70492 -0.59784,1.27626 -1.34704,1.27626 -0.7492,0 -1.34704,-0.57134 -1.34704,-1.27626 0,-0.70493 0.59784,-1.27627 1.34704,-1.27627 z m -39.88669,0.12538 c 0.7492,0 1.34634,0.57134 1.34634,1.27626 0,0.70493 -0.59714,1.27695 -1.34634,1.27695 -0.7492,0 -1.34704,-0.57202 -1.34704,-1.27695 0,-0.70492 0.59784,-1.27626 1.34704,-1.27626 z m 4.93938,0 c 0.7492,0 1.34704,0.57134 1.34704,1.27626 0,0.70493 -0.59784,1.27695 -1.34704,1.27695 -0.7492,0 -1.34704,-0.57202 -1.34704,-1.27695 0,-0.70492 0.59784,-1.27626 1.34704,-1.27626 z m 4.55932,0 c 0.7492,0 1.34704,0.57134 1.34704,1.27626 0,0.70493 -0.59784,1.27695 -1.34704,1.27695 -0.7492,0 -1.34704,-0.57202 -1.34704,-1.27695 0,-0.70492 0.59784,-1.27626 1.34704,-1.27626 z m 4.93938,0 c 0.7492,0 1.34704,0.57134 1.34704,1.27626 0,0.70493 -0.59784,1.27695 -1.34704,1.27695 -0.7492,0 -1.34634,-0.57202 -1.34634,-1.27695 0,-0.70492 0.59714,-1.27626 1.34634,-1.27626 z m 5.06911,0.0334 c 0.7492,0 1.34704,0.57134 1.34704,1.27626 0,0.70493 -0.59784,1.27627 -1.34704,1.27627 -0.7492,-1e-5 -1.34704,-0.57135 -1.34704,-1.27627 0,-0.70492 0.59784,-1.27626 1.34704,-1.27626 z m 5.31944,0 c 0.7492,-10e-6 1.34704,0.57134 1.34704,1.27626 0,0.70493 -0.59784,1.27627 -1.34704,1.27627 -0.7492,0 -1.34704,-0.57135 -1.34704,-1.27627 0,-0.70492 0.59784,-1.27626 1.34704,-1.27626 z m 4.7199,0.0968 c 0.7492,-10e-6 1.34704,0.57134 1.34704,1.27626 0,0.70493 -0.59784,1.27695 -1.34704,1.27695 -0.7492,0 -1.34704,-0.57202 -1.34704,-1.27695 0,-0.70492 0.59784,-1.27626 1.34704,-1.27626 z m 5.02072,0.11311 c 0.7492,-10e-6 1.34704,0.57202 1.34704,1.27694 0,0.70493 -0.59784,1.27628 -1.34704,1.27627 -0.7492,1e-5 -1.34704,-0.57134 -1.34704,-1.27627 0,-0.70492 0.59784,-1.27695 1.34704,-1.27694 z m 5.31944,2.95387 c 0.7492,0 1.34704,0.57134 1.34704,1.27627 0,0.70493 -0.59784,1.27695 -1.34704,1.27694 -0.7492,1e-5 -1.34704,-0.57201 -1.34704,-1.27694 0,-0.70493 0.59784,-1.27627 1.34704,-1.27627 z m -39.88669,0.12608 c 0.7492,0 1.34634,0.57134 1.34634,1.27626 0,0.70493 -0.59714,1.27627 -1.34634,1.27627 -0.7492,0 -1.34704,-0.57134 -1.34704,-1.27627 0,-0.70492 0.59784,-1.27626 1.34704,-1.27626 z m 4.93938,0 c 0.7492,0 1.34704,0.57134 1.34704,1.27626 0,0.70493 -0.59784,1.27627 -1.34704,1.27627 -0.7492,0 -1.34704,-0.57134 -1.34704,-1.27627 0,-0.70492 0.59784,-1.27626 1.34704,-1.27626 z m 4.55932,0 c 0.7492,0 1.34704,0.57134 1.34704,1.27626 0,0.70493 -0.59784,1.27627 -1.34704,1.27627 -0.7492,0 -1.34704,-0.57134 -1.34704,-1.27627 0,-0.70492 0.59784,-1.27626 1.34704,-1.27626 z m 4.93938,0 c 0.7492,0 1.34704,0.57134 1.34704,1.27626 0,0.70493 -0.59784,1.27627 -1.34704,1.27627 -0.7492,0 -1.34634,-0.57134 -1.34634,-1.27627 0,-0.70492 0.59714,-1.27626 1.34634,-1.27626 z m 5.06911,0.0334 c 0.7492,0 1.34704,0.57134 1.34704,1.27627 0,0.70492 -0.59784,1.27626 -1.34704,1.27626 -0.7492,0 -1.34704,-0.57134 -1.34704,-1.27626 0,-0.70493 0.59784,-1.27626 1.34704,-1.27627 z m 5.31944,0 c 0.7492,0 1.34704,0.57134 1.34704,1.27627 0,0.70492 -0.59784,1.27626 -1.34704,1.27626 -0.7492,0 -1.34704,-0.57134 -1.34704,-1.27626 0,-0.70493 0.59784,-1.27627 1.34704,-1.27627 z m 4.7199,0.0968 c 0.7492,0 1.34704,0.57134 1.34704,1.27626 0,0.70493 -0.59784,1.27627 -1.34704,1.27627 -0.7492,0 -1.34704,-0.57134 -1.34704,-1.27627 0,-0.70492 0.59784,-1.27626 1.34704,-1.27626 z m 5.02072,0.11311 c 0.7492,0 1.34704,0.57134 1.34704,1.27627 0,0.70492 -0.59784,1.27626 -1.34704,1.27626 -0.7492,0 -1.34704,-0.57134 -1.34704,-1.27626 0,-0.70493 0.59784,-1.27627 1.34704,-1.27627 z" />
      <path
         style="fill:#000000;stroke:#000000;stroke-width:1.7088;stroke-linecap:round;stroke-linejoin:round;stroke-miterlimit:4;stroke-dasharray:none;stroke-opacity:0.955017;paint-order:stroke markers fill"
         d="m 553.42185,232.70491 c 0,-1.21724 0.15568,-4.75742 0.34594,-7.86705 l 0.34594,-5.65388 1.7585,2.30304 c 1.59634,2.09066 6.15123,5.63987 7.23794,5.63987 1.26363,0 0.16372,0.98084 -1.73928,1.55099 -1.33988,0.40144 -3.29329,1.73076 -5.06503,3.44683 l -2.88401,2.79337 z"
         id="path1260"
         transform="scale(0.26458333)" />
      <path
         style="fill:#000000;stroke:#000000;stroke-width:1.7088;stroke-linecap:round;stroke-linejoin:round;stroke-miterlimit:4;stroke-dasharray:none;stroke-opacity:0.955017;paint-order:stroke markers fill"
         d="m 740.44574,232.78119 c -0.79682,-1.00185 -2.85691,-2.52519 -4.57797,-3.38522 l -3.12921,-1.56368 2.29746,-1.21879 c 1.2636,-0.67034 3.50363,-2.49415 4.97784,-4.05292 l 2.6804,-2.83412 -0.0529,3.03376 c -0.0291,1.66857 -0.20904,5.01573 -0.39987,7.43813 l -0.34695,4.40437 z"
         id="path1416"
         transform="scale(0.26458333)" />
      <path
         style="fill:#000000;stroke:#000000;stroke-width:1.7088;stroke-linecap:round;stroke-linejoin:round;stroke-miterlimit:4;stroke-dasharray:none;stroke-opacity:0.955017;paint-order:stroke markers fill"
         d="m 722.4928,240.79992 c -1.39604,-0.79754 -2.67597,-2.76952 -2.7056,-4.1685 -0.0104,-0.49067 0.60224,-1.63031 1.36141,-2.53252 1.81627,-2.15852 4.93155,-2.30812 6.90794,-0.33173 3.50434,3.50435 -1.24081,9.50236 -5.56375,7.03275 z"
         id="path1455"
         transform="scale(0.26458333)" />
      <path
         style="fill:#000000;stroke:#000000;stroke-width:1.7088;stroke-linecap:round;stroke-linejoin:round;stroke-miterlimit:4;stroke-dasharray:none;stroke-opacity:0.955017;paint-order:stroke markers fill"
         d="m 721.32678,252.2265 c -2.31133,-2.31132 -1.83027,-5.18644 1.12335,-6.71381 4.66627,-2.41303 9.2986,3.44843 5.50433,6.96484 -2.00784,1.8608 -4.61458,1.76207 -6.62768,-0.25103 z"
         id="path1494"
         transform="scale(0.26458333)" />
      <path
         style="fill:#000000;stroke:#000000;stroke-width:1.7088;stroke-linecap:round;stroke-linejoin:round;stroke-miterlimit:4;stroke-dasharray:none;stroke-opacity:0.955017;paint-order:stroke markers fill"
         d="m 701.34999,241.27991 c -1.78351,-1.78351 -1.76659,-4.4732 0.0388,-6.16929 3.3799,-3.17526 9.07836,0.14249 7.58796,4.41785 -1.10825,3.17914 -5.24833,4.12988 -7.62678,1.75144 z"
         id="path1533"
         transform="scale(0.26458333)" />
      <path
         style="fill:#000000;stroke:#000000;stroke-width:1.7088;stroke-linecap:round;stroke-linejoin:round;stroke-miterlimit:4;stroke-dasharray:none;stroke-opacity:0.955017;paint-order:stroke markers fill"
         d="m 702.34188,254.74918 c -1.77161,-0.85631 -2.84095,-3.45016 -2.19099,-5.31461 1.45588,-4.17636 7.38874,-4.17636 8.84462,0 1.30439,3.74177 -2.92254,7.11805 -6.65363,5.31461 z"
         id="path1572"
         transform="scale(0.26458333)" />
      <path
         style="fill:#000000;stroke:#000000;stroke-width:1.7088;stroke-linecap:round;stroke-linejoin:round;stroke-miterlimit:4;stroke-dasharray:none;stroke-opacity:0.955017;paint-order:stroke markers fill"
         d="m 682.15617,240.74675 c -2.3065,-2.3065 -1.50344,-5.68309 1.66664,-7.00763 3.80984,-1.59186 7.61733,1.95942 6.08,5.67086 -0.81441,1.96617 -1.97311,2.64544 -4.51262,2.64544 -1.33331,0 -2.32776,-0.40241 -3.23402,-1.30867 z"
         id="path1611"
         transform="scale(0.26458333)" />
      <path
         style="fill:#000000;stroke:#000000;stroke-width:1.7088;stroke-linecap:round;stroke-linejoin:round;stroke-miterlimit:4;stroke-dasharray:none;stroke-opacity:0.955017;paint-order:stroke markers fill"
         d="m 682.40598,253.29282 c -0.93953,-0.93952 -1.55848,-2.12041 -1.55848,-2.9734 0,-2.021 2.65858,-4.53187 4.79846,-4.53187 2.13988,0 4.79845,2.51087 4.79845,4.53187 0,2.021 -2.65857,4.53188 -4.79845,4.53188 -1.14763,0 -2.17633,-0.49482 -3.23998,-1.55848 z"
         id="path1650"
         transform="scale(0.26458333)" />
      <path
         style="fill:#000000;stroke:#000000;stroke-width:1.7088;stroke-linecap:round;stroke-linejoin:round;stroke-miterlimit:4;stroke-dasharray:none;stroke-opacity:0.955017;paint-order:stroke markers fill"
         d="m 665.2593,241.22085 c -2.53528,-1.37563 -2.85328,-5.01508 -0.61421,-7.02957 2.95781,-2.66114 7.67183,-0.65763 7.67183,3.26063 0,1.40336 -0.39125,2.17212 -1.6404,3.22321 -1.84914,1.55595 -3.28821,1.70092 -5.41722,0.54573 z"
         id="path1689"
         transform="scale(0.26458333)" />
      <path
         style="fill:#000000;stroke:#000000;stroke-width:1.7088;stroke-linecap:round;stroke-linejoin:round;stroke-miterlimit:4;stroke-dasharray:none;stroke-opacity:0.955017;paint-order:stroke markers fill"
         d="m 664.52694,253.06961 c -1.94692,-1.67467 -1.96505,-4.16732 -0.0443,-6.0881 2.88018,-2.88018 7.83425,-1.03247 7.83425,2.92192 0,3.92601 -4.69035,5.83237 -7.78998,3.16618 z"
         id="path1728"
         transform="scale(0.26458333)" />
      <path
         style="fill:#000000;stroke:#000000;stroke-width:1.7088;stroke-linecap:round;stroke-linejoin:round;stroke-miterlimit:4;stroke-dasharray:none;stroke-opacity:0.955017;paint-order:stroke markers fill"
         d="m 646.19199,241.67888 c -3.24558,-1.18644 -4.23201,-5.03683 -1.8903,-7.37854 1.89103,-1.89103 4.69294,-1.78703 6.72977,0.2498 1.74979,1.74979 1.89837,2.63565 0.79871,4.76215 -1.08585,2.09981 -3.54467,3.13189 -5.63818,2.36659 z"
         id="path1767"
         transform="scale(0.26458333)" />
      <path
         style="fill:#000000;stroke:#000000;stroke-width:1.7088;stroke-linecap:round;stroke-linejoin:round;stroke-miterlimit:4;stroke-dasharray:none;stroke-opacity:0.955017;paint-order:stroke markers fill"
         d="m 644.30169,253.00947 c -2.26135,-2.26136 -1.33607,-6.09661 1.75432,-7.27158 1.97185,-0.74969 4.77287,0.32334 5.74345,2.20024 1.13169,2.18844 0.99274,3.06079 -0.768,4.82153 -2.03683,2.03683 -4.83874,2.14084 -6.72977,0.24981 z"
         id="path1806"
         transform="scale(0.26458333)" />
      <path
         style="fill:#000000;stroke:#000000;stroke-width:1.7088;stroke-linecap:round;stroke-linejoin:round;stroke-miterlimit:4;stroke-dasharray:none;stroke-opacity:0.955017;paint-order:stroke markers fill"
         d="m 626.64028,241.27819 c -4.67243,-2.03247 -3.2492,-8.28652 1.88575,-8.28652 1.70104,0 2.37674,0.31762 3.48978,1.64039 0.75917,0.90221 1.3803,1.97058 1.3803,2.37414 0,1.58375 -1.2961,3.43727 -2.95355,4.22378 -2.045,0.97042 -1.69251,0.96595 -3.80228,0.0482 z"
         id="path1845"
         transform="scale(0.26458333)" />
      <path
         style="fill:#000000;stroke:#000000;stroke-width:1.7088;stroke-linecap:round;stroke-linejoin:round;stroke-miterlimit:4;stroke-dasharray:none;stroke-opacity:0.955017;paint-order:stroke markers fill"
         d="m 626.19843,253.67417 c -2.95361,-1.69389 -3.27075,-4.92585 -0.69595,-7.0924 2.92342,-2.4599 6.91727,-1.01089 7.67646,2.78511 0.28742,1.43709 0.0836,1.9679 -1.27893,3.33041 -1.72703,1.72703 -3.78018,2.07881 -5.70158,0.97688 z"
         id="path1884"
         transform="scale(0.26458333)" />
      <path
         style="fill:#000000;stroke:#000000;stroke-width:1.7088;stroke-linecap:round;stroke-linejoin:round;stroke-miterlimit:4;stroke-dasharray:none;stroke-opacity:0.955017;paint-order:stroke markers fill"
         d="m 607.97962,241.27819 c -4.67243,-2.03247 -3.2492,-8.28652 1.88575,-8.28652 1.70104,0 2.37674,0.31762 3.48978,1.64039 0.75917,0.90221 1.3803,1.97058 1.3803,2.37414 0,1.58375 -1.2961,3.43727 -2.95355,4.22378 -2.045,0.97042 -1.69251,0.96595 -3.80228,0.0482 z"
         id="path1923"
         transform="scale(0.26458333)" />
      <path
         style="fill:#000000;stroke:#000000;stroke-width:1.7088;stroke-linecap:round;stroke-linejoin:round;stroke-miterlimit:4;stroke-dasharray:none;stroke-opacity:0.955017;paint-order:stroke markers fill"
         d="m 607.53777,253.67417 c -2.95361,-1.69389 -3.27075,-4.92585 -0.69595,-7.0924 2.92342,-2.4599 6.91727,-1.01089 7.67646,2.78511 0.28742,1.43709 0.0836,1.9679 -1.27893,3.33041 -1.72703,1.72703 -3.78018,2.07881 -5.70158,0.97688 z"
         id="path1962"
         transform="scale(0.26458333)" />
      <path
         style="fill:#000000;stroke:#000000;stroke-width:1.7088;stroke-linecap:round;stroke-linejoin:round;stroke-miterlimit:4;stroke-dasharray:none;stroke-opacity:0.955017;paint-order:stroke markers fill"
         d="m 591.00975,241.53825 c -3.24309,-1.28741 -4.12665,-5.17514 -1.65861,-7.29806 3.07265,-2.64298 7.78997,-0.84898 7.78997,2.96253 0,3.09681 -3.32647,5.44898 -6.13136,4.33553 z"
         id="path2001"
         transform="scale(0.26458333)" />
      <path
         style="fill:#000000;stroke:#000000;stroke-width:1.7088;stroke-linecap:round;stroke-linejoin:round;stroke-miterlimit:4;stroke-dasharray:none;stroke-opacity:0.955017;paint-order:stroke markers fill"
         d="m 589.85054,253.52673 c -2.80619,-1.96554 -2.33528,-6.40214 0.81819,-7.70834 3.22008,-1.33381 6.47238,0.67219 6.47238,3.99211 0,3.66193 -4.26457,5.83572 -7.29057,3.71623 z"
         id="path2040"
         transform="scale(0.26458333)" />
      <path
         style="fill:#000000;stroke:#000000;stroke-width:1.7088;stroke-linecap:round;stroke-linejoin:round;stroke-miterlimit:4;stroke-dasharray:none;stroke-opacity:0.955017;paint-order:stroke markers fill"
         d="m 572.3491,241.53825 c -3.2431,-1.28741 -4.12666,-5.17514 -1.65862,-7.29806 3.07265,-2.64298 7.78997,-0.84898 7.78997,2.96253 0,3.09681 -3.32647,5.44898 -6.13135,4.33553 z"
         id="path2079"
         transform="scale(0.26458333)" />
      <path
         style="fill:#000000;stroke:#000000;stroke-width:1.7088;stroke-linecap:round;stroke-linejoin:round;stroke-miterlimit:4;stroke-dasharray:none;stroke-opacity:0.955017;paint-order:stroke markers fill"
         d="m 571.18988,253.52673 c -2.80619,-1.96554 -2.33528,-6.40214 0.81819,-7.70834 3.22008,-1.33381 6.47238,0.67219 6.47238,3.99211 0,3.66193 -4.26457,5.83572 -7.29057,3.71623 z"
         id="path2118"
         transform="scale(0.26458333)" />
      <path
         style="fill:#000000;stroke:#000000;stroke-width:3.41054;stroke-linecap:round;stroke-linejoin:round;stroke-miterlimit:4;stroke-dasharray:none;stroke-opacity:0.955017;paint-order:stroke markers fill"
         d="m 563.55121,224.24563 c -2.28604,-1.30721 -5.15916,-3.72852 -6.38472,-5.38066 -2.21028,-2.97964 -2.23059,-3.66582 -2.51369,-84.92789 -0.3205,-91.995586 -0.74856,-86.768685 7.5561,-92.265358 l 4.27778,-2.831368 79.35531,-0.322359 c 57.30347,-0.232779 80.53812,0.01631 83.61178,0.896366 4.68173,1.340485 9.47768,5.30245 11.80032,9.748312 1.25357,2.399534 1.50117,16.140554 1.50117,83.309727 0,78.31366 -0.0561,80.54623 -2.12644,84.60442 -1.31271,2.57312 -3.89356,5.20377 -6.74424,6.87438 l -4.6178,2.70621 -80.77957,-0.0175 -80.77957,-0.0175 z m 132.91486,-59.19632 c 4.95426,-2.29376 9.49646,-6.82849 11.10555,-11.08732 0.67241,-1.77965 1.13182,-12.33374 1.13182,-26.00098 0,-21.34593 -0.16457,-23.34536 -2.28159,-27.71852 -1.51663,-3.132939 -3.9055,-5.742982 -7.12511,-7.784801 l -4.84351,-3.071669 h -39.73032 c -43.43076,0 -43.98247,0.06902 -49.79714,6.229681 -5.13587,5.441459 -5.65781,8.382819 -5.74566,32.378819 -0.0648,17.6915 0.24846,22.90304 1.56601,26.0564 2.19706,5.2583 5.43903,8.62706 10.59041,11.00458 3.8886,1.7947 7.56736,1.96449 42.56477,1.96449 35.04571,0 38.67081,-0.16784 42.56477,-1.97068 z"
         id="path2514"
         transform="scale(0.26458333)" />
      <path
         style="fill:#000000;stroke:#000000;stroke-width:3.41054;stroke-linecap:round;stroke-linejoin:round;stroke-miterlimit:4;stroke-dasharray:none;stroke-opacity:0.955017;paint-order:stroke markers fill"
         d="m 556.36605,35.585107 c -1.79726,-2.886749 -4.43165,-5.217214 -7.66936,-6.784563 -2.71245,-1.313078 -4.93174,-2.608559 -4.93174,-2.878846 0,-0.270288 1.66061,-1.185278 3.69024,-2.033313 3.13085,-1.308152 18.39022,-1.54188 100.66448,-1.54188 88.18974,0 97.31181,0.160181 100.70062,1.768282 l 3.72639,1.768282 -4.0048,1.947965 c -5.39678,2.625032 -7.65406,4.816407 -9.11072,8.8447 l -1.22332,3.383046 -3.80395,-1.939363 c -3.58302,-1.826726 -8.56747,-1.939361 -85.82319,-1.939361 -76.65186,0 -82.26326,0.124409 -85.74814,1.901099 l -3.72889,1.901099 z"
         id="path2553"
         transform="scale(0.26458333)" />
      <path
         style="fill:#000000;stroke:#000000;stroke-width:3.41054;stroke-linecap:round;stroke-linejoin:round;stroke-miterlimit:4;stroke-dasharray:none;stroke-opacity:0.955017;paint-order:stroke markers fill"
         d="m 547.48937,256.57464 c -8.58813,-3.95383 -7.98089,4.86632 -7.98089,-115.92201 0,-59.119982 0.29066,-108.248314 0.6459,-109.174079 1.58737,-4.136619 10.88328,0.175812 14.318,6.642206 1.83952,3.463202 1.82514,3.64054 -0.69042,8.512954 l -2.56908,4.976074 -0.02,98.196675 c -0.0146,71.52255 0.30991,98.83844 1.1946,100.55927 0.66804,1.29943 2.44284,3.67945 3.94399,5.28893 l 2.72937,2.92633 -3.65748,-0.0234 c -2.01161,-0.0128 -5.57289,-0.90516 -7.91395,-1.98294 z"
         id="path2592"
         transform="scale(0.26458333)" />
      <path
         style="fill:#000000;stroke:#000000;stroke-width:3.41054;stroke-linecap:round;stroke-linejoin:round;stroke-miterlimit:4;stroke-dasharray:none;stroke-opacity:0.955017;paint-order:stroke markers fill"
         d="m 739.82818,255.65466 c 1.53542,-1.60948 3.37248,-4.36289 4.08234,-6.11869 0.96512,-2.38715 1.41735,-27.54769 1.79291,-99.75269 l 0.50225,-96.560326 -2.89512,-5.917417 c -2.57745,-5.268107 -2.74964,-6.268645 -1.56928,-9.11829 1.40265,-3.386295 6.36948,-7.671234 10.26022,-8.851598 1.70558,-0.517436 2.63578,-0.134323 3.47324,1.43048 0.79953,1.493936 1.05925,34.792551 0.8629,110.634021 l -0.28089,108.49683 -2.6603,2.88297 c -3.24143,3.51273 -8.34356,5.80104 -12.93434,5.80104 h -3.42562 z"
         id="path2631"
         transform="scale(0.26458333)" />
    </g>
  </g>
</svg>
