<?xml version="1.0" encoding="UTF-8" standalone="no"?>
<!-- Created with Inkscape (http://www.inkscape.org/) -->

<svg
   width="210mm"
   height="297mm"
   viewBox="0 0 210 297"
   version="1.1"
   id="svg5"
   inkscape:version="1.1.1 (3bf5ae0d25, 2021-09-20)"
   sodipodi:docname="sampler memory card 4 icon svg.svg"
   xmlns:inkscape="http://www.inkscape.org/namespaces/inkscape"
   xmlns:sodipodi="http://sodipodi.sourceforge.net/DTD/sodipodi-0.dtd"
   xmlns="http://www.w3.org/2000/svg"
   xmlns:svg="http://www.w3.org/2000/svg">
  <sodipodi:namedview
     id="namedview7"
     pagecolor="#ffffff"
     bordercolor="#666666"
     borderopacity="1.0"
     inkscape:pageshadow="2"
     inkscape:pageopacity="0.0"
     inkscape:pagecheckerboard="0"
     inkscape:document-units="mm"
     showgrid="false"
     inkscape:zoom="0.8117387"
     inkscape:cx="665.2387"
     inkscape:cy="764.40854"
     inkscape:window-width="1680"
     inkscape:window-height="956"
     inkscape:window-x="-11"
     inkscape:window-y="-11"
     inkscape:window-maximized="1"
     inkscape:current-layer="layer1" />
  <defs
     id="defs2">
    <inkscape:path-effect
       effect="spiro"
       id="path-effect2585"
       is_visible="true"
       lpeversion="1" />
    <inkscape:path-effect
       effect="spiro"
       id="path-effect2499"
       is_visible="true"
       lpeversion="1" />
    <inkscape:path-effect
       effect="spiro"
       id="path-effect1857"
       is_visible="true"
       lpeversion="1" />
    <inkscape:path-effect
       effect="spiro"
       id="path-effect1771"
       is_visible="true"
       lpeversion="1" />
    <inkscape:path-effect
       effect="spiro"
       id="path-effect1574"
       is_visible="true"
       lpeversion="1" />
    <inkscape:path-effect
       effect="spiro"
       id="path-effect1123"
       is_visible="true"
       lpeversion="1" />
    <inkscape:path-effect
       effect="spiro"
       id="path-effect4644"
       is_visible="true"
       lpeversion="1" />
    <inkscape:path-effect
       effect="spiro"
       id="path-effect4640"
       is_visible="true"
       lpeversion="1" />
    <inkscape:path-effect
       effect="spiro"
       id="path-effect4628"
       is_visible="true"
       lpeversion="1" />
    <inkscape:path-effect
       effect="spiro"
       id="path-effect4511"
       is_visible="true"
       lpeversion="1" />
    <inkscape:path-effect
       effect="spiro"
       id="path-effect4076"
       is_visible="true"
       lpeversion="1" />
    <inkscape:path-effect
       effect="spiro"
       id="path-effect4035"
       is_visible="true"
       lpeversion="1" />
    <inkscape:path-effect
       effect="spiro"
       id="path-effect3949"
       is_visible="true"
       lpeversion="1" />
    <inkscape:path-effect
       effect="spiro"
       id="path-effect3943"
       is_visible="true"
       lpeversion="1" />
    <inkscape:path-effect
       effect="spiro"
       id="path-effect2826"
       is_visible="true"
       lpeversion="1" />
    <inkscape:path-effect
       effect="spiro"
       id="path-effect2820"
       is_visible="true"
       lpeversion="1" />
    <inkscape:path-effect
       effect="spiro"
       id="path-effect2415"
       is_visible="true"
       lpeversion="1" />
    <inkscape:path-effect
       effect="spiro"
       id="path-effect2263"
       is_visible="true"
       lpeversion="1" />
    <inkscape:path-effect
       effect="spiro"
       id="path-effect1863"
       is_visible="true"
       lpeversion="1" />
    <inkscape:path-effect
       effect="spiro"
       id="path-effect1613"
       is_visible="true"
       lpeversion="1" />
    <inkscape:path-effect
       effect="spiro"
       id="path-effect1459"
       is_visible="true"
       lpeversion="1" />
    <inkscape:path-effect
       effect="spiro"
       id="path-effect1455"
       is_visible="true"
       lpeversion="1" />
    <inkscape:path-effect
       effect="spiro"
       id="path-effect2916"
       is_visible="true"
       lpeversion="1" />
    <inkscape:path-effect
       effect="spiro"
       id="path-effect2912"
       is_visible="true"
       lpeversion="1" />
    <inkscape:path-effect
       effect="spiro"
       id="path-effect2908"
       is_visible="true"
       lpeversion="1" />
    <inkscape:path-effect
       effect="spiro"
       id="path-effect2904"
       is_visible="true"
       lpeversion="1" />
    <inkscape:path-effect
       effect="spiro"
       id="path-effect1001"
       is_visible="true"
       lpeversion="1" />
    <inkscape:path-effect
       effect="spiro"
       id="path-effect997"
       is_visible="true"
       lpeversion="1" />
    <inkscape:path-effect
       effect="spiro"
       id="path-effect993"
       is_visible="true"
       lpeversion="1" />
    <inkscape:path-effect
       effect="spiro"
       id="path-effect989"
       is_visible="true"
       lpeversion="1" />
    <inkscape:path-effect
       effect="spiro"
       id="path-effect2356"
       is_visible="true"
       lpeversion="1" />
    <inkscape:path-effect
       effect="spiro"
       id="path-effect2352"
       is_visible="true"
       lpeversion="1" />
    <inkscape:path-effect
       effect="spiro"
       id="path-effect2348"
       is_visible="true"
       lpeversion="1" />
    <inkscape:path-effect
       effect="spiro"
       id="path-effect2344"
       is_visible="true"
       lpeversion="1" />
    <inkscape:path-effect
       effect="spiro"
       id="path-effect1589"
       is_visible="true"
       lpeversion="1" />
    <inkscape:path-effect
       effect="spiro"
       id="path-effect1585"
       is_visible="true"
       lpeversion="1" />
    <inkscape:path-effect
       effect="spiro"
       id="path-effect1581"
       is_visible="true"
       lpeversion="1" />
    <inkscape:path-effect
       effect="spiro"
       id="path-effect1577"
       is_visible="true"
       lpeversion="1" />
    <inkscape:path-effect
       effect="spiro"
       id="path-effect1410"
       is_visible="true"
       lpeversion="1" />
    <inkscape:path-effect
       effect="spiro"
       id="path-effect1404"
       is_visible="true"
       lpeversion="1" />
    <inkscape:path-effect
       effect="spiro"
       id="path-effect1318"
       is_visible="true"
       lpeversion="1" />
    <inkscape:path-effect
       effect="spiro"
       id="path-effect1312"
       is_visible="true"
       lpeversion="1" />
  </defs>
  <g
     inkscape:label="Layer 1"
     inkscape:groupmode="layer"
     id="layer1">
    <path
       style="fill:#000000;stroke:#000000;stroke-width:5.12832;stroke-linecap:round;stroke-linejoin:round;stroke-miterlimit:4;stroke-dasharray:none;stroke-opacity:0.955017;paint-order:stroke markers fill"
       d=""
       id="path1507"
       transform="scale(0.26458333)" />
    <path
       style="fill:#000000;stroke:#000000;stroke-width:5.12832;stroke-linecap:round;stroke-linejoin:round;stroke-miterlimit:4;stroke-dasharray:none;stroke-opacity:0.955017;paint-order:stroke markers fill"
       d=""
       id="path1622"
       transform="scale(0.26458333)" />
    <path
       style="fill:#000000;stroke:#000000;stroke-width:5.12832;stroke-linecap:round;stroke-linejoin:round;stroke-miterlimit:4;stroke-dasharray:none;stroke-opacity:0.955017;paint-order:stroke markers fill"
       d=""
       id="path1973"
       transform="scale(0.26458333)" />
    <path
       style="fill:#ffffff;stroke:#000000;stroke-width:3.3948;stroke-linecap:round;stroke-linejoin:round;stroke-opacity:0.955017;paint-order:stroke markers fill"
       d=""
       id="path1530"
       transform="scale(0.26458333)" />
    <path
       style="fill:#ffffff;stroke:#000000;stroke-width:1.36949;stroke-linecap:round;stroke-linejoin:round;stroke-opacity:0.955017;paint-order:stroke markers fill"
       d=""
       id="path1047"
       transform="scale(0.26458333)" />
    <path
       style="fill:#ffffff;stroke:#000000;stroke-width:1.36949;stroke-linecap:round;stroke-linejoin:round;stroke-opacity:0.955017;paint-order:stroke markers fill"
       d=""
       id="path1086"
       transform="scale(0.26458333)" />
    <g
       id="g1569" />
    <g
       id="g1793" />
    <path
       id="path2581"
       style="color:#000000;fill:#000000;stroke-width:4.254;stroke-miterlimit:4;stroke-dasharray:none"
       d="m 63.622957,7.0069826 c -0.892937,0.128504 -1.747002,0.488619 -2.45425,1.033686 -0.707244,0.545067 -1.262435,1.271494 -1.594559,2.0871324 -0.124871,0.306657 -0.218385,0.624719 -0.279085,0.949192 l 0.411615,0.07291 c 0.05577,-0.298134 0.14191,-0.591112 0.256643,-0.872876 0.304676,-0.7482254 0.816045,-1.4181274 1.464837,-1.9181454 0.648791,-0.500017 1.436671,-0.83199 2.255804,-0.949873 z m -56.1321914,0.18466 -0.06101,0.402026 c 0.819131,0.117886 1.607019,0.449857 2.255806,0.949874 0.6487884,0.500017 1.1601644,1.169922 1.4648374,1.9181454 0.114732,0.281764 0.200874,0.574741 0.256644,0.872875 l 0.411613,-0.07291 C 11.757956,10.93718 11.664441,10.619118 11.539572,10.312461 11.20745,9.4968246 10.652253,8.7703956 9.9450116,8.2253286 9.2377696,7.6802616 8.3836946,7.3201496 7.4907616,7.1916426 Z m 2.9058314,-1.853412 c -2.3853834,0 -4.3131684,1.872634 -4.3131684,4.190618 V 64.723052 c 0,2.31798 1.927785,4.19061 4.3131684,4.19061 h 50.100348 c 2.385383,0 4.313168,-1.87263 4.313168,-4.19061 V 9.5288486 c 0,-2.317984 -1.927785,-4.190618 -4.313168,-4.190618 z m 0,0.440867 h 50.100348 c 2.141633,0 3.858783,1.66863 3.858783,3.749751 V 64.723052 c 0,2.08112 -1.71715,3.74906 -3.858783,3.74906 h -2.295074 c 1.592975,-0.61548 2.723516,-2.10953 2.723516,-3.87921 v -0.2603 c 0,-0.29179 -0.112241,-0.54761 -0.170395,-0.82245 a 0.22708119,0.22066503 0 0 0 0.06872,-0.14514 l 0.319052,-7.53903 c 0.0159,-0.16441 0.05049,-0.32344 0.05049,-0.49197 v -0.70865 l 0.03228,-0.76317 a 0.22708119,0.22066503 0 0 0 -0.03228,-0.11857 V 14.882621 c 0,-2.903908 -2.413107,-5.2488354 -5.401452,-5.2488354 h -40.42219 c -2.988343,0 -5.4014524,2.3449274 -5.4014524,5.2488354 v 40.451391 c 0,0.41524 0.06167,0.81417 0.1549684,1.20132 l -0.2881994,6.81128 a 0.22708119,0.22066503 0 0 0 0.2173764,0.22964 0.22708119,0.22066503 0 0 0 0.07854,-0.028 c -0.05301,0.26297 -0.1626814,0.50603 -0.1626814,0.78429 v 0.2603 c 0,1.76969 1.1305394,3.26373 2.7235154,3.87922 h -2.295074 c -2.1416334,0 -3.8587814,-1.66795 -3.8587814,-3.74907 V 9.5288486 c 0,-2.081121 1.717148,-3.749751 3.8587814,-3.749751 z m 4.973011,4.2962364 h 40.42219 c 2.744595,0 4.947067,2.140241 4.947067,4.807287 v 39.741371 l -0.05119,1.20336 c -0.2554,2.42923 -2.325354,4.31395 -4.895877,4.31395 h -40.42219 c -2.333765,0 -4.260968,-1.55342 -4.789994,-3.6564 l 0.110792,-2.62271 a 0.22708119,0.22066503 0 0 0 -0.218077,-0.229637 0.22708119,0.22066503 0 0 0 -0.04979,0.01772 V 14.882621 c 0,-2.667045 2.202473,-4.807287 4.947066,-4.807287 z m 12.726335,13.617124 c -2.988345,0 -5.401452,2.344928 -5.401452,5.248838 v 9.860559 c 0,2.90391 2.413107,5.248835 5.401452,5.248835 h 17.916723 c 2.988345,0 5.401452,-2.344925 5.401452,-5.248835 v -9.860559 c 0,-2.90391 -2.413107,-5.248838 -5.401452,-5.248838 z m 0,0.44155 h 17.916723 c 2.744595,0 4.947067,2.140241 4.947067,4.807288 v 9.860559 c 0,2.66705 -2.202472,4.807285 -4.947067,4.807285 H 28.095943 c -2.744595,0 -4.947065,-2.140235 -4.947065,-4.807285 v -9.860559 c 0,-2.667047 2.20247,-4.807288 4.947065,-4.807288 z M 10.53123,57.627612 c 0.621662,1.23787 1.721388,2.19051 3.075526,2.64588 -1.473822,0.2339 -2.719772,1.11611 -3.289396,2.4108 z m 50.079313,0.0361 -0.201949,4.77799 c -0.588282,-1.11133 -1.661947,-1.8798 -2.959825,-2.13619 1.388286,-0.43586 2.520501,-1.38991 3.161774,-2.6418 z m -46.329219,2.91913 h 1.088284 40.42219 0.820422 c 2.141632,0 3.858782,1.66863 3.858782,3.74975 v 0.2603 c 0,2.08112 -1.71715,3.74907 -3.858782,3.74907 H 14.281324 c -2.141632,0 -3.858782,-1.66795 -3.858782,-3.74907 v -0.2603 c 0,-2.08112 1.71715,-3.74975 3.858782,-3.74975 z m 41.460688,0.35569 c -0.989424,-1e-5 -1.801419,0.76919 -1.801419,1.71781 0,0.85013 0.663626,1.52384 1.511118,1.66126 -0.847532,0.13739 -1.511118,0.8111 -1.511118,1.66125 0,0.94863 0.811995,1.71783 1.801419,1.71782 0.989425,10e-6 1.80072,-0.76919 1.80072,-1.71782 0,-0.85006 -0.663023,-1.52375 -1.510418,-1.66125 0.847355,-0.13753 1.510418,-0.81122 1.510418,-1.66126 0,-0.94862 -0.811295,-1.71782 -1.80072,-1.71781 z m -39.886463,0.12606 c -0.989419,0 -1.801419,0.76851 -1.801419,1.71713 0,0.84988 0.663289,1.52354 1.510415,1.66126 -0.847192,0.13766 -1.510415,0.81201 -1.510415,1.66193 0,0.94863 0.812,1.71782 1.801419,1.71782 0.98942,0 1.800719,-0.76919 1.800718,-1.71782 1e-6,-0.84982 -0.66266,-1.52416 -1.509714,-1.66193 0.846988,-0.13783 1.509715,-0.81147 1.509714,-1.66126 1e-6,-0.94862 -0.811298,-1.71713 -1.800718,-1.71713 z m 4.939353,0 c -0.98942,0 -1.801419,0.76851 -1.801419,1.71713 0,0.84988 0.663288,1.52354 1.510415,1.66126 -0.847193,0.13766 -1.510415,0.81201 -1.510415,1.66193 0,0.94863 0.811999,1.71782 1.801419,1.71782 0.989419,0 1.800718,-0.76919 1.800718,-1.71782 0,-0.84982 -0.66266,-1.52416 -1.509714,-1.66193 0.846988,-0.13783 1.509714,-0.81147 1.509714,-1.66126 0,-0.94862 -0.811299,-1.71713 -1.800718,-1.71713 z m 4.559294,0 c -0.989419,0 -1.800718,0.76851 -1.800717,1.71713 -1e-6,0.84979 0.662726,1.52343 1.509714,1.66126 -0.847055,0.13777 -1.509715,0.81211 -1.509714,1.66193 -1e-6,0.94863 0.811298,1.71782 1.800717,1.71782 0.98942,0 1.80142,-0.76919 1.80142,-1.71782 0,-0.84992 -0.663223,-1.52427 -1.510416,-1.66193 0.847127,-0.13772 1.510416,-0.81138 1.510416,-1.66126 0,-0.94862 -0.812,-1.71713 -1.80142,-1.71713 z m 4.939353,0 c -0.989419,0 -1.800718,0.76851 -1.800718,1.71713 0,0.84979 0.662726,1.52343 1.509714,1.66126 -0.847054,0.13777 -1.509714,0.81211 -1.509714,1.66193 0,0.94863 0.811299,1.71782 1.800718,1.71782 0.989419,0 1.801419,-0.76919 1.801419,-1.71782 0,-0.84992 -0.663222,-1.52427 -1.510415,-1.66193 0.847126,-0.13772 1.510415,-0.81138 1.510415,-1.66126 0,-0.94862 -0.812,-1.71713 -1.801419,-1.71713 z m 5.069077,0.0327 c -0.989415,0 -1.80142,0.76919 -1.801419,1.71781 -1e-6,0.84992 0.663226,1.52428 1.510415,1.66194 -0.847123,0.13772 -1.510416,0.81138 -1.510415,1.66126 -1e-6,0.94861 0.812004,1.7178 1.801419,1.71781 0.989421,0 1.800716,-0.76919 1.800716,-1.71781 0,-0.84979 -0.662721,-1.52343 -1.509711,-1.66126 0.847054,-0.13777 1.509711,-0.81211 1.509711,-1.66194 0,-0.94862 -0.811295,-1.71781 -1.800716,-1.71781 z m 5.319412,0 c -0.98942,0 -1.80142,0.76919 -1.80142,1.71781 0,0.84993 0.663221,1.52428 1.510415,1.66194 -0.847126,0.13771 -1.510415,0.81138 -1.510415,1.66126 0,0.94862 0.812,1.71781 1.80142,1.71781 0.989421,0 1.800716,-0.76919 1.800716,-1.71781 0,-0.84979 -0.662725,-1.52343 -1.509714,-1.66126 0.847057,-0.13777 1.509714,-0.81211 1.509714,-1.66194 0,-0.94862 -0.811295,-1.71781 -1.800716,-1.71781 z m 4.719871,0.0974 c -0.989421,0 -1.80072,0.76851 -1.80072,1.71713 0,0.85006 0.663031,1.52444 1.510419,1.66194 -0.847349,0.13753 -1.510419,0.81123 -1.510419,1.66126 0,0.94861 0.811299,1.71781 1.80072,1.71781 0.989421,0 1.80142,-0.76919 1.80142,-1.71781 0,-0.85013 -0.663627,-1.52384 -1.511119,-1.66126 0.847532,-0.13739 1.511119,-0.81178 1.511119,-1.66194 0,-0.94862 -0.811999,-1.71714 -1.80142,-1.71713 z m 5.020691,0.11311 c -0.98942,0 -1.801416,0.76919 -1.801416,1.71781 0,0.85039 0.663953,1.52414 1.511815,1.66126 -0.847862,0.13712 -1.511815,0.81087 -1.511815,1.66126 0,0.94862 0.811996,1.71782 1.801416,1.71781 0.989425,10e-6 1.80072,-0.76919 1.80072,-1.71781 0,-0.85052 -0.663759,-1.5243 -1.511818,-1.66126 0.848059,-0.13696 1.511818,-0.81073 1.511818,-1.66126 0,-0.94862 -0.811295,-1.71781 -1.80072,-1.71781 z m 5.319412,0.0722 c 0.749196,0 1.347032,0.57134 1.347032,1.27627 0,0.70492 -0.597836,1.27626 -1.347032,1.27626 -0.749195,0 -1.347031,-0.57134 -1.347031,-1.27626 0,-0.70493 0.597836,-1.27627 1.347031,-1.27627 z m -39.886463,0.12538 c 0.749194,0 1.346332,0.57134 1.346332,1.27626 0,0.70493 -0.597138,1.27695 -1.346332,1.27695 -0.749193,0 -1.347032,-0.57202 -1.347032,-1.27695 0,-0.70492 0.597839,-1.27626 1.347032,-1.27626 z m 4.939353,0 c 0.749194,0 1.347032,0.57134 1.347032,1.27626 0,0.70493 -0.597838,1.27695 -1.347032,1.27695 -0.749194,0 -1.347033,-0.57202 -1.347032,-1.27695 -1e-6,-0.70492 0.597838,-1.27626 1.347032,-1.27626 z m 4.559294,0 c 0.749194,0 1.347033,0.57134 1.347033,1.27626 0,0.70493 -0.597839,1.27695 -1.347033,1.27695 -0.749193,0 -1.347032,-0.57202 -1.347032,-1.27695 0,-0.70492 0.597839,-1.27626 1.347032,-1.27626 z m 4.939353,0 c 0.749194,0 1.347032,0.57134 1.347032,1.27626 0,0.70493 -0.597838,1.27695 -1.347032,1.27695 -0.749194,0 -1.346331,-0.57202 -1.346331,-1.27695 0,-0.70492 0.597137,-1.27626 1.346331,-1.27626 z m 5.069077,0.0334 c 0.749196,0 1.347032,0.57134 1.347032,1.27626 0,0.70493 -0.597836,1.27627 -1.347032,1.27627 -0.749191,-1e-5 -1.347033,-0.57135 -1.347032,-1.27627 -10e-7,-0.70492 0.597841,-1.27626 1.347032,-1.27626 z m 5.319412,0 c 0.749196,-10e-6 1.347031,0.57134 1.347031,1.27626 0,0.70493 -0.597835,1.27627 -1.347031,1.27627 -0.749195,0 -1.347035,-0.57135 -1.347035,-1.27627 0,-0.70492 0.59784,-1.27626 1.347035,-1.27626 z m 4.719871,0.0968 c 0.749196,-10e-6 1.347031,0.57134 1.347031,1.27626 0,0.70493 -0.597835,1.27695 -1.347031,1.27695 -0.749192,0 -1.347031,-0.57202 -1.347031,-1.27695 0,-0.70492 0.597839,-1.27626 1.347031,-1.27626 z m 5.020691,0.11311 c 0.7492,-10e-6 1.347035,0.57202 1.347035,1.27694 0,0.70493 -0.597835,1.27628 -1.347035,1.27627 -0.749195,1e-5 -1.347031,-0.57134 -1.347031,-1.27627 0,-0.70492 0.597836,-1.27695 1.347031,-1.27694 z m 5.319412,2.95387 c 0.749196,0 1.347032,0.57134 1.347032,1.27627 0,0.70493 -0.597836,1.27695 -1.347032,1.27694 -0.749195,1e-5 -1.347031,-0.57201 -1.347031,-1.27694 0,-0.70493 0.597836,-1.27627 1.347031,-1.27627 z m -39.886463,0.12608 c 0.749194,0 1.346332,0.57134 1.346332,1.27626 0,0.70493 -0.597138,1.27627 -1.346332,1.27627 -0.749193,0 -1.347032,-0.57134 -1.347032,-1.27627 0,-0.70492 0.597839,-1.27626 1.347032,-1.27626 z m 4.939353,0 c 0.749194,0 1.347032,0.57134 1.347032,1.27626 0,0.70493 -0.597838,1.27627 -1.347032,1.27627 -0.749194,0 -1.347033,-0.57134 -1.347032,-1.27627 -1e-6,-0.70492 0.597838,-1.27626 1.347032,-1.27626 z m 4.559294,0 c 0.749194,0 1.347033,0.57134 1.347033,1.27626 0,0.70493 -0.597839,1.27627 -1.347033,1.27627 -0.749193,0 -1.347032,-0.57134 -1.347032,-1.27627 0,-0.70492 0.597839,-1.27626 1.347032,-1.27626 z m 4.939353,0 c 0.749194,0 1.347032,0.57134 1.347032,1.27626 0,0.70493 -0.597838,1.27627 -1.347032,1.27627 -0.749194,0 -1.346331,-0.57134 -1.346331,-1.27627 0,-0.70492 0.597137,-1.27626 1.346331,-1.27626 z m 5.069077,0.0334 c 0.749196,0 1.347032,0.57134 1.347032,1.27627 0,0.70492 -0.597836,1.27626 -1.347032,1.27626 -0.749191,0 -1.347033,-0.57134 -1.347032,-1.27626 -10e-7,-0.70493 0.597841,-1.27626 1.347032,-1.27627 z m 5.319412,0 c 0.749196,0 1.347031,0.57134 1.347031,1.27627 0,0.70492 -0.597835,1.27626 -1.347031,1.27626 -0.749195,0 -1.347035,-0.57134 -1.347035,-1.27626 0,-0.70493 0.59784,-1.27627 1.347035,-1.27627 z m 4.719871,0.0968 c 0.749196,0 1.347031,0.57134 1.347031,1.27626 0,0.70493 -0.597835,1.27627 -1.347031,1.27627 -0.749192,0 -1.347031,-0.57134 -1.347031,-1.27627 0,-0.70492 0.597839,-1.27626 1.347031,-1.27626 z m 5.020691,0.11311 c 0.7492,0 1.347035,0.57134 1.347035,1.27627 0,0.70492 -0.597835,1.27626 -1.347035,1.27626 -0.749195,0 -1.347031,-0.57134 -1.347031,-1.27626 0,-0.70493 0.597836,-1.27627 1.347031,-1.27627 z" />
    <path
       id="path2618"
       style="color:#000000;fill:#000000;stroke-width:5.154;stroke-miterlimit:4;stroke-dasharray:none"
       d="m 63.622957,7.0069826 c -0.892937,0.128504 -1.747002,0.488619 -2.45425,1.033686 -0.707244,0.545067 -1.262435,1.271494 -1.594559,2.0871324 -0.124871,0.306657 -0.218385,0.624719 -0.279085,0.949192 l 0.411615,0.07291 c 0.05577,-0.298134 0.14191,-0.591112 0.256643,-0.872876 0.304676,-0.7482254 0.816045,-1.4181274 1.464837,-1.9181454 0.648791,-0.500017 1.436671,-0.83199 2.255804,-0.949873 z m -56.1321914,0.18466 -0.06101,0.402026 c 0.819131,0.117886 1.607019,0.449857 2.255806,0.949874 0.6487884,0.500017 1.1601644,1.169922 1.4648374,1.9181454 0.114732,0.281764 0.200874,0.574741 0.256644,0.872875 l 0.411613,-0.07291 C 11.757956,10.93718 11.664441,10.619118 11.539572,10.312461 11.20745,9.4968246 10.652253,8.7703956 9.9450116,8.2253286 9.2377696,7.6802616 8.3836946,7.3201496 7.4907616,7.1916426 Z m 2.9058314,-1.853412 c -2.3853834,0 -4.3131684,1.872634 -4.3131684,4.190618 V 64.723052 c 0,2.31798 1.927785,4.19061 4.3131684,4.19061 h 50.100348 c 2.385383,0 4.313168,-1.87263 4.313168,-4.19061 V 9.5288486 c 0,-2.317984 -1.927785,-4.190618 -4.313168,-4.190618 z m 0,0.440867 h 50.100348 c 2.141633,0 3.858783,1.66863 3.858783,3.749751 V 64.723052 c 0,2.08112 -1.71715,3.74906 -3.858783,3.74906 h -2.295074 c 1.592975,-0.61548 2.723516,-2.10953 2.723516,-3.87921 v -0.2603 c 0,-0.29179 -0.112241,-0.54761 -0.170395,-0.82245 a 0.22708119,0.22066503 0 0 0 0.06872,-0.14514 l 0.319052,-7.53903 c 0.0159,-0.16441 0.05049,-0.32344 0.05049,-0.49197 v -0.70865 l 0.03228,-0.76317 a 0.22708119,0.22066503 0 0 0 -0.03228,-0.11857 V 14.882621 c 0,-2.903908 -2.413107,-5.2488354 -5.401452,-5.2488354 h -40.42219 c -2.988343,0 -5.4014524,2.3449274 -5.4014524,5.2488354 v 40.451391 c 0,0.41524 0.06167,0.81417 0.1549684,1.20132 l -0.2881994,6.81128 a 0.22708119,0.22066503 0 0 0 0.2173764,0.22964 0.22708119,0.22066503 0 0 0 0.07854,-0.028 c -0.05301,0.26297 -0.1626814,0.50603 -0.1626814,0.78429 v 0.2603 c 0,1.76969 1.1305394,3.26373 2.7235154,3.87922 h -2.295074 c -2.1416334,0 -3.8587814,-1.66795 -3.8587814,-3.74907 V 9.5288486 c 0,-2.081121 1.717148,-3.749751 3.8587814,-3.749751 z m 4.973011,4.2962364 h 40.42219 c 2.744595,0 4.947067,2.140241 4.947067,4.807287 v 39.741371 l -0.05119,1.20336 c -0.2554,2.42923 -2.325354,4.31395 -4.895877,4.31395 h -40.42219 c -2.333765,0 -4.260968,-1.55342 -4.789994,-3.6564 l 0.110792,-2.62271 a 0.22708119,0.22066503 0 0 0 -0.218077,-0.229637 0.22708119,0.22066503 0 0 0 -0.04979,0.01772 V 14.882621 c 0,-2.667045 2.202473,-4.807287 4.947066,-4.807287 z m 12.726335,13.617124 c -2.988345,0 -5.401452,2.344928 -5.401452,5.248838 v 9.860559 c 0,2.90391 2.413107,5.248835 5.401452,5.248835 h 17.916723 c 2.988345,0 5.401452,-2.344925 5.401452,-5.248835 v -9.860559 c 0,-2.90391 -2.413107,-5.248838 -5.401452,-5.248838 z m 0,0.44155 h 17.916723 c 2.744595,0 4.947067,2.140241 4.947067,4.807288 v 9.860559 c 0,2.66705 -2.202472,4.807285 -4.947067,4.807285 H 28.095943 c -2.744595,0 -4.947065,-2.140235 -4.947065,-4.807285 v -9.860559 c 0,-2.667047 2.20247,-4.807288 4.947065,-4.807288 z M 10.53123,57.627612 c 0.621662,1.23787 1.721388,2.19051 3.075526,2.64588 -1.473822,0.2339 -2.719772,1.11611 -3.289396,2.4108 z m 50.079313,0.0361 -0.201949,4.77799 c -0.588282,-1.11133 -1.661947,-1.8798 -2.959825,-2.13619 1.388286,-0.43586 2.520501,-1.38991 3.161774,-2.6418 z m -46.329219,2.91913 h 1.088284 40.42219 0.820422 c 2.141632,0 3.858782,1.66863 3.858782,3.74975 v 0.2603 c 0,2.08112 -1.71715,3.74907 -3.858782,3.74907 H 14.281324 c -2.141632,0 -3.858782,-1.66795 -3.858782,-3.74907 v -0.2603 c 0,-2.08112 1.71715,-3.74975 3.858782,-3.74975 z m 41.460688,0.35569 c -0.989424,-1e-5 -1.801419,0.76919 -1.801419,1.71781 0,0.85013 0.663626,1.52384 1.511118,1.66126 -0.847532,0.13739 -1.511118,0.8111 -1.511118,1.66125 0,0.94863 0.811995,1.71783 1.801419,1.71782 0.989425,10e-6 1.80072,-0.76919 1.80072,-1.71782 0,-0.85006 -0.663023,-1.52375 -1.510418,-1.66125 0.847355,-0.13753 1.510418,-0.81122 1.510418,-1.66126 0,-0.94862 -0.811295,-1.71782 -1.80072,-1.71781 z m -39.886463,0.12606 c -0.989419,0 -1.801419,0.76851 -1.801419,1.71713 0,0.84988 0.663289,1.52354 1.510415,1.66126 -0.847192,0.13766 -1.510415,0.81201 -1.510415,1.66193 0,0.94863 0.812,1.71782 1.801419,1.71782 0.98942,0 1.800719,-0.76919 1.800718,-1.71782 1e-6,-0.84982 -0.66266,-1.52416 -1.509714,-1.66193 0.846988,-0.13783 1.509715,-0.81147 1.509714,-1.66126 1e-6,-0.94862 -0.811298,-1.71713 -1.800718,-1.71713 z m 4.939353,0 c -0.98942,0 -1.801419,0.76851 -1.801419,1.71713 0,0.84988 0.663288,1.52354 1.510415,1.66126 -0.847193,0.13766 -1.510415,0.81201 -1.510415,1.66193 0,0.94863 0.811999,1.71782 1.801419,1.71782 0.989419,0 1.800718,-0.76919 1.800718,-1.71782 0,-0.84982 -0.66266,-1.52416 -1.509714,-1.66193 0.846988,-0.13783 1.509714,-0.81147 1.509714,-1.66126 0,-0.94862 -0.811299,-1.71713 -1.800718,-1.71713 z m 4.559294,0 c -0.989419,0 -1.800718,0.76851 -1.800717,1.71713 -1e-6,0.84979 0.662726,1.52343 1.509714,1.66126 -0.847055,0.13777 -1.509715,0.81211 -1.509714,1.66193 -1e-6,0.94863 0.811298,1.71782 1.800717,1.71782 0.98942,0 1.80142,-0.76919 1.80142,-1.71782 0,-0.84992 -0.663223,-1.52427 -1.510416,-1.66193 0.847127,-0.13772 1.510416,-0.81138 1.510416,-1.66126 0,-0.94862 -0.812,-1.71713 -1.80142,-1.71713 z m 4.939353,0 c -0.989419,0 -1.800718,0.76851 -1.800718,1.71713 0,0.84979 0.662726,1.52343 1.509714,1.66126 -0.847054,0.13777 -1.509714,0.81211 -1.509714,1.66193 0,0.94863 0.811299,1.71782 1.800718,1.71782 0.989419,0 1.801419,-0.76919 1.801419,-1.71782 0,-0.84992 -0.663222,-1.52427 -1.510415,-1.66193 0.847126,-0.13772 1.510415,-0.81138 1.510415,-1.66126 0,-0.94862 -0.812,-1.71713 -1.801419,-1.71713 z m 5.069077,0.0327 c -0.989415,0 -1.80142,0.76919 -1.801419,1.71781 -1e-6,0.84992 0.663226,1.52428 1.510415,1.66194 -0.847123,0.13772 -1.510416,0.81138 -1.510415,1.66126 -1e-6,0.94861 0.812004,1.7178 1.801419,1.71781 0.989421,0 1.800716,-0.76919 1.800716,-1.71781 0,-0.84979 -0.662721,-1.52343 -1.509711,-1.66126 0.847054,-0.13777 1.509711,-0.81211 1.509711,-1.66194 0,-0.94862 -0.811295,-1.71781 -1.800716,-1.71781 z m 5.319412,0 c -0.98942,0 -1.80142,0.76919 -1.80142,1.71781 0,0.84993 0.663221,1.52428 1.510415,1.66194 -0.847126,0.13771 -1.510415,0.81138 -1.510415,1.66126 0,0.94862 0.812,1.71781 1.80142,1.71781 0.989421,0 1.800716,-0.76919 1.800716,-1.71781 0,-0.84979 -0.662725,-1.52343 -1.509714,-1.66126 0.847057,-0.13777 1.509714,-0.81211 1.509714,-1.66194 0,-0.94862 -0.811295,-1.71781 -1.800716,-1.71781 z m 4.719871,0.0974 c -0.989421,0 -1.80072,0.76851 -1.80072,1.71713 0,0.85006 0.663031,1.52444 1.510419,1.66194 -0.847349,0.13753 -1.510419,0.81123 -1.510419,1.66126 0,0.94861 0.811299,1.71781 1.80072,1.71781 0.989421,0 1.80142,-0.76919 1.80142,-1.71781 0,-0.85013 -0.663627,-1.52384 -1.511119,-1.66126 0.847532,-0.13739 1.511119,-0.81178 1.511119,-1.66194 0,-0.94862 -0.811999,-1.71714 -1.80142,-1.71713 z m 5.020691,0.11311 c -0.98942,0 -1.801416,0.76919 -1.801416,1.71781 0,0.85039 0.663953,1.52414 1.511815,1.66126 -0.847862,0.13712 -1.511815,0.81087 -1.511815,1.66126 0,0.94862 0.811996,1.71782 1.801416,1.71781 0.989425,10e-6 1.80072,-0.76919 1.80072,-1.71781 0,-0.85052 -0.663759,-1.5243 -1.511818,-1.66126 0.848059,-0.13696 1.511818,-0.81073 1.511818,-1.66126 0,-0.94862 -0.811295,-1.71781 -1.80072,-1.71781 z m 5.319412,0.0722 c 0.749196,0 1.347032,0.57134 1.347032,1.27627 0,0.70492 -0.597836,1.27626 -1.347032,1.27626 -0.749195,0 -1.347031,-0.57134 -1.347031,-1.27626 0,-0.70493 0.597836,-1.27627 1.347031,-1.27627 z m -39.886463,0.12538 c 0.749194,0 1.346332,0.57134 1.346332,1.27626 0,0.70493 -0.597138,1.27695 -1.346332,1.27695 -0.749193,0 -1.347032,-0.57202 -1.347032,-1.27695 0,-0.70492 0.597839,-1.27626 1.347032,-1.27626 z m 4.939353,0 c 0.749194,0 1.347032,0.57134 1.347032,1.27626 0,0.70493 -0.597838,1.27695 -1.347032,1.27695 -0.749194,0 -1.347033,-0.57202 -1.347032,-1.27695 -1e-6,-0.70492 0.597838,-1.27626 1.347032,-1.27626 z m 4.559294,0 c 0.749194,0 1.347033,0.57134 1.347033,1.27626 0,0.70493 -0.597839,1.27695 -1.347033,1.27695 -0.749193,0 -1.347032,-0.57202 -1.347032,-1.27695 0,-0.70492 0.597839,-1.27626 1.347032,-1.27626 z m 4.939353,0 c 0.749194,0 1.347032,0.57134 1.347032,1.27626 0,0.70493 -0.597838,1.27695 -1.347032,1.27695 -0.749194,0 -1.346331,-0.57202 -1.346331,-1.27695 0,-0.70492 0.597137,-1.27626 1.346331,-1.27626 z m 5.069077,0.0334 c 0.749196,0 1.347032,0.57134 1.347032,1.27626 0,0.70493 -0.597836,1.27627 -1.347032,1.27627 -0.749191,-1e-5 -1.347033,-0.57135 -1.347032,-1.27627 -10e-7,-0.70492 0.597841,-1.27626 1.347032,-1.27626 z m 5.319412,0 c 0.749196,-10e-6 1.347031,0.57134 1.347031,1.27626 0,0.70493 -0.597835,1.27627 -1.347031,1.27627 -0.749195,0 -1.347035,-0.57135 -1.347035,-1.27627 0,-0.70492 0.59784,-1.27626 1.347035,-1.27626 z m 4.719871,0.0968 c 0.749196,-10e-6 1.347031,0.57134 1.347031,1.27626 0,0.70493 -0.597835,1.27695 -1.347031,1.27695 -0.749192,0 -1.347031,-0.57202 -1.347031,-1.27695 0,-0.70492 0.597839,-1.27626 1.347031,-1.27626 z m 5.020691,0.11311 c 0.7492,-10e-6 1.347035,0.57202 1.347035,1.27694 0,0.70493 -0.597835,1.27628 -1.347035,1.27627 -0.749195,1e-5 -1.347031,-0.57134 -1.347031,-1.27627 0,-0.70492 0.597836,-1.27695 1.347031,-1.27694 z m 5.319412,2.95387 c 0.749196,0 1.347032,0.57134 1.347032,1.27627 0,0.70493 -0.597836,1.27695 -1.347032,1.27694 -0.749195,1e-5 -1.347031,-0.57201 -1.347031,-1.27694 0,-0.70493 0.597836,-1.27627 1.347031,-1.27627 z m -39.886463,0.12608 c 0.749194,0 1.346332,0.57134 1.346332,1.27626 0,0.70493 -0.597138,1.27627 -1.346332,1.27627 -0.749193,0 -1.347032,-0.57134 -1.347032,-1.27627 0,-0.70492 0.597839,-1.27626 1.347032,-1.27626 z m 4.939353,0 c 0.749194,0 1.347032,0.57134 1.347032,1.27626 0,0.70493 -0.597838,1.27627 -1.347032,1.27627 -0.749194,0 -1.347033,-0.57134 -1.347032,-1.27627 -1e-6,-0.70492 0.597838,-1.27626 1.347032,-1.27626 z m 4.559294,0 c 0.749194,0 1.347033,0.57134 1.347033,1.27626 0,0.70493 -0.597839,1.27627 -1.347033,1.27627 -0.749193,0 -1.347032,-0.57134 -1.347032,-1.27627 0,-0.70492 0.597839,-1.27626 1.347032,-1.27626 z m 4.939353,0 c 0.749194,0 1.347032,0.57134 1.347032,1.27626 0,0.70493 -0.597838,1.27627 -1.347032,1.27627 -0.749194,0 -1.346331,-0.57134 -1.346331,-1.27627 0,-0.70492 0.597137,-1.27626 1.346331,-1.27626 z m 5.069077,0.0334 c 0.749196,0 1.347032,0.57134 1.347032,1.27627 0,0.70492 -0.597836,1.27626 -1.347032,1.27626 -0.749191,0 -1.347033,-0.57134 -1.347032,-1.27626 -10e-7,-0.70493 0.597841,-1.27626 1.347032,-1.27627 z m 5.319412,0 c 0.749196,0 1.347031,0.57134 1.347031,1.27627 0,0.70492 -0.597835,1.27626 -1.347031,1.27626 -0.749195,0 -1.347035,-0.57134 -1.347035,-1.27626 0,-0.70493 0.59784,-1.27627 1.347035,-1.27627 z m 4.719871,0.0968 c 0.749196,0 1.347031,0.57134 1.347031,1.27626 0,0.70493 -0.597835,1.27627 -1.347031,1.27627 -0.749192,0 -1.347031,-0.57134 -1.347031,-1.27627 0,-0.70492 0.597839,-1.27626 1.347031,-1.27626 z m 5.020691,0.11311 c 0.7492,0 1.347035,0.57134 1.347035,1.27627 0,0.70492 -0.597835,1.27626 -1.347035,1.27626 -0.749195,0 -1.347031,-0.57134 -1.347031,-1.27626 0,-0.70493 0.597836,-1.27627 1.347031,-1.27627 z" />
    <path
       style="fill:#000000;stroke:#000000;stroke-width:1.7088;stroke-linecap:round;stroke-linejoin:round;stroke-miterlimit:4;stroke-dasharray:none;stroke-opacity:0.955017;paint-order:stroke markers fill"
       d=""
       id="path1377"
       transform="scale(0.26458333)" />
    <path
       style="fill:#000000;stroke-width:0.264583"
       d="m 140.70783,68.877796 c -0.5684,-0.32503 -1.28277,-0.92709 -1.5875,-1.33791 -0.5533,-0.74595 -0.55413,-0.78537 -0.62366,-29.435065 -0.0771,-31.76392 -0.18149,-29.81684 1.67453,-31.23259 l 0.9996,-0.76248 26.28368,-0.0699 c 25.79643,-0.0686 26.30284,-0.0602 27.31661,0.45703 0.5681,0.28982 1.31084,0.9166 1.65051,1.39284 l 0.6176,0.86589 v 28.97187 28.971865 l -0.63529,0.89073 c -0.3494,0.4899 -1.12331,1.11237 -1.71979,1.38325 -1.03391,0.46955 -2.29405,0.4926 -27.01367,0.49399 l -25.92916,0.002 -1.03346,-0.59096 z m 49.96976,-0.45305 c 1.37158,-0.66398 2.0523,-1.8022 2.07752,-3.47382 0.0225,-1.49487 -0.54575,-2.4449 -1.96128,-3.27868 -0.87903,-0.51777 -1.37423,-0.52917 -22.99109,-0.52917 -24.35097,0 -22.97358,-0.0916 -24.3183,1.6179 -0.86435,1.09885 -0.78026,3.49481 0.16196,4.61458 1.36088,1.61731 0.33752,1.55107 24.13895,1.56238 21.20315,0.0101 21.84086,-0.004 22.89224,-0.51319 z m -8.92953,-0.27446 c -0.85675,-0.67391 -0.93211,-1.63187 -0.18699,-2.377 l 0.52917,-0.52916 -0.5452,-0.5452 c -0.71526,-0.71526 -0.57888,-1.76884 0.31497,-2.43312 0.74477,-0.5535 1.50425,-0.47236 2.21304,0.23642 0.60196,0.60197 0.50069,1.84652 -0.1896,2.33002 l -0.58804,0.41188 0.58804,0.41187 c 0.36545,0.25597 0.58804,0.68752 0.58804,1.14006 0,1.57084 -1.4999,2.31666 -2.72343,1.35423 z m -34.72713,-0.3806 c -0.8102,-0.8102 -0.81911,-1.3216 -0.0367,-2.10405 l 0.61277,-0.61277 -0.61277,-0.54581 c -0.73931,-0.65852 -0.78039,-1.37857 -0.12483,-2.18813 0.66338,-0.81925 2.06491,-0.81925 2.72829,0 0.63852,0.78854 0.61554,1.15984 -0.12506,2.02084 l -0.61299,0.71265 0.61299,0.61299 c 0.33715,0.33715 0.613,0.80241 0.613,1.03392 0,0.60461 -1.20097,1.7198 -1.85209,1.7198 -0.30427,0 -0.84546,-0.29225 -1.20265,-0.64944 z m 5.30369,0.33327 c -1.08844,-0.61721 -1.24858,-1.74254 -0.37262,-2.6185 l 0.55342,-0.55342 -0.55342,-0.38763 c -1.49038,-1.0439 0.2888,-3.55325 1.91315,-2.69831 0.31688,0.16678 0.66362,0.43425 0.77053,0.59436 0.36991,0.554 0.20031,1.66629 -0.32682,2.14334 l -0.52931,0.47902 0.52931,0.37074 c 0.69033,0.48353 0.69041,1.76713 1.4e-4,2.4574 -0.59274,0.59274 -1.19981,0.6579 -1.98438,0.213 z m 4.26902,-0.2322 c -0.87184,-0.68579 -0.89948,-1.63532 -0.0667,-2.29041 l 0.63048,-0.49593 -0.63048,-0.56159 c -0.75613,-0.6735 -0.80241,-1.38901 -0.14254,-2.2039 0.56283,-0.69508 1.97499,-0.82175 2.53896,-0.22776 0.70125,0.73859 0.72572,1.47961 0.0739,2.23743 l -0.62259,0.72382 0.62942,0.62942 c 0.71714,0.71714 0.62972,1.51404 -0.24949,2.27427 -0.70374,0.60851 -1.30926,0.5846 -2.16096,-0.0854 z m 4.8591,0.0192 c -0.68473,-0.68473 -0.67442,-1.70683 0.0242,-2.4055 l 0.55342,-0.55342 -0.55342,-0.38763 c -1.1724,-0.82118 -0.34749,-2.80501 1.16637,-2.80501 1.54207,0 2.33632,1.98556 1.13176,2.82927 l -0.58804,0.41187 0.58804,0.41188 c 1.20452,0.84368 0.38813,3.02771 -1.13176,3.02771 -0.3638,0 -0.89958,-0.23813 -1.19062,-0.52917 z m 5.02708,0 c -0.29104,-0.29104 -0.52916,-0.81832 -0.52916,-1.17173 0,-0.63256 0.6081,-1.4741 1.0652,-1.4741 0.12851,0 -0.0586,-0.29225 -0.41577,-0.64944 -0.76948,-0.76947 -0.83806,-1.74368 -0.16558,-2.35226 0.61212,-0.55396 1.99606,-0.56601 2.53996,-0.0221 0.57774,0.57774 0.5195,1.78959 -0.11354,2.36248 l -0.52931,0.47901 0.52931,0.37075 c 0.75294,0.52737 0.71866,2.03019 -0.0587,2.57469 -0.80207,0.5618 -1.68804,0.51706 -2.32238,-0.11728 z m 5.33779,-0.0832 c -0.76242,-0.81156 -0.72694,-1.61119 0.10036,-2.26194 0.66472,-0.52287 0.66691,-0.53615 0.13542,-0.82059 -0.76028,-0.40689 -0.96345,-1.45708 -0.43726,-2.26016 0.50996,-0.77829 1.98022,-0.91353 2.65,-0.24375 0.57416,0.57415 0.52084,1.78837 -0.10332,2.35323 -0.51515,0.46621 -0.5149,0.47317 0.0331,0.91689 0.74319,0.6018 0.72341,1.83201 -0.0394,2.44968 -0.80295,0.65018 -1.64806,0.602 -2.33889,-0.13336 z m 4.6251,0.12851 c -0.63554,-0.70225 -0.55043,-1.7878 0.18357,-2.34145 l 0.62145,-0.46876 -0.62145,-0.48884 c -1.71846,-1.35174 0.4287,-3.68154 2.23009,-2.4198 0.7502,0.52546 0.77868,1.77115 0.0559,2.44453 l -0.53215,0.49577 0.53215,0.48159 c 0.66371,0.60064 0.68769,1.76428 0.0483,2.34293 -0.64222,0.58121 -1.97224,0.55692 -2.51784,-0.046 z m 10.29274,-0.36877 c -0.58894,-0.84082 -0.50889,-1.69533 0.20958,-2.23726 l 0.62145,-0.46877 -0.62145,-0.48883 c -1.71846,-1.35174 0.42869,-3.68155 2.23009,-2.4198 0.77077,0.53987 0.81197,2.0471 0.0701,2.56669 -0.51412,0.3601 -0.51412,0.36596 0,0.80616 0.65302,0.55913 0.6709,1.81562 0.034,2.39197 -0.70952,0.64211 -2.04411,0.56333 -2.54385,-0.15016 z m -5.95788,-24.023425 c 0.57612,-0.29392 1.37505,-1.02927 1.77539,-1.63411 l 0.7279,-1.09972 v -6.23724 c 0,-7.01988 -0.0456,-7.21472 -2.07508,-8.85503 l -1.01674,-0.8218 H 169.8287 c -5.69818,0 -10.67858,0.0893 -11.06755,0.19836 -0.92927,0.26065 -2.25524,1.39253 -2.74833,2.34607 -0.51241,0.99089 -0.80744,9.06871 -0.43568,11.92855 0.30328,2.33301 0.909,3.3901 2.39118,4.17306 0.91174,0.48162 1.60404,0.51358 11.36631,0.52456 9.91974,0.0112 10.44337,-0.0128 11.44294,-0.5227 z"
       id="path1028" />
    <path
       style="fill:#918a6f;fill-rule:evenodd;stroke:#000000;stroke-width:4.18133;stroke-linecap:round;stroke-linejoin:round;stroke-opacity:0.955017;paint-order:stroke markers fill"
       d=""
       id="path2238"
       transform="scale(0.26458333)" />
    <g
       id="g3080"
       transform="translate(1.9556787,44.980608)">
      <path
         id="path1222"
         style="color:#000000;fill:#000000;stroke-width:5.154;stroke-miterlimit:4;stroke-dasharray:none"
         d="m 201.86314,185.79011 c -0.89294,0.1285 -1.74701,0.48862 -2.45425,1.03368 -0.70725,0.54507 -1.26244,1.2715 -1.59456,2.08714 -0.12487,0.30665 -0.21839,0.62471 -0.27909,0.94919 l 0.41162,0.0729 c 0.0558,-0.29814 0.14191,-0.59111 0.25664,-0.87288 0.30468,-0.74822 0.81605,-1.41813 1.46484,-1.91814 0.64879,-0.50002 1.43667,-0.83199 2.2558,-0.94988 z m -56.13219,0.18466 -0.061,0.40202 c 0.81913,0.11789 1.60701,0.44986 2.2558,0.94988 0.64879,0.50001 1.16017,1.16992 1.46484,1.91814 0.11473,0.28177 0.20087,0.57474 0.25664,0.87288 l 0.41162,-0.0729 c -0.0607,-0.32448 -0.15422,-0.64254 -0.27909,-0.94919 -0.33212,-0.81564 -0.88732,-1.54207 -1.59456,-2.08714 -0.70724,-0.54506 -1.56132,-0.90518 -2.45425,-1.03368 z m 2.90583,-1.85342 c -2.38539,0 -4.31317,1.87264 -4.31317,4.19062 v 55.19421 c 0,2.31798 1.92778,4.19061 4.31317,4.19061 h 50.10034 c 2.38539,0 4.31317,-1.87263 4.31317,-4.19061 v -55.19421 c 0,-2.31798 -1.92778,-4.19062 -4.31317,-4.19062 z m 0,0.44087 h 50.10034 c 2.14164,0 3.85879,1.66863 3.85879,3.74975 v 55.19421 c 0,2.08112 -1.71715,3.74906 -3.85879,3.74906 h -2.29507 c 1.59298,-0.61548 2.72352,-2.10953 2.72352,-3.87921 v -0.2603 c 0,-0.29179 -0.11224,-0.54761 -0.1704,-0.82245 a 0.22708119,0.22066503 0 0 0 0.0687,-0.14514 l 0.31905,-7.53903 c 0.0159,-0.16441 0.0505,-0.32344 0.0505,-0.49197 v -0.70865 l 0.0323,-0.76317 a 0.22708119,0.22066503 0 0 0 -0.0323,-0.11857 v -38.861 c 0,-2.90391 -2.4131,-5.24884 -5.40145,-5.24884 h -40.42219 c -2.98834,0 -5.40145,2.34493 -5.40145,5.24884 v 40.45139 c 0,0.41524 0.0617,0.81417 0.15497,1.20132 l -0.2882,6.81128 a 0.22708119,0.22066503 0 0 0 0.21737,0.22964 0.22708119,0.22066503 0 0 0 0.0785,-0.028 c -0.053,0.26297 -0.16268,0.50603 -0.16268,0.78429 v 0.2603 c 0,1.76969 1.13054,3.26373 2.72352,3.87922 h -2.29508 c -2.14163,0 -3.85878,-1.66795 -3.85878,-3.74907 v -55.19415 c 0,-2.08112 1.71715,-3.74975 3.85878,-3.74975 z m 4.97301,4.29624 h 40.42219 c 2.74459,0 4.94706,2.14024 4.94706,4.80729 v 39.74137 l -0.0512,1.20336 c -0.2554,2.42923 -2.32535,4.31395 -4.89587,4.31395 h -40.42219 c -2.33377,0 -4.26097,-1.55342 -4.79,-3.6564 l 0.1108,-2.62271 a 0.22708119,0.22066503 0 0 0 -0.21808,-0.22964 0.22708119,0.22066503 0 0 0 -0.0498,0.0177 v -38.76765 c 0,-2.66705 2.20247,-4.80729 4.94706,-4.80729 z m 12.72633,13.61712 c -2.98834,0 -5.40145,2.34493 -5.40145,5.24884 v 9.86056 c 0,2.90391 2.41311,5.24883 5.40145,5.24883 h 17.91673 c 2.98834,0 5.40145,-2.34492 5.40145,-5.24883 v -9.86056 c 0,-2.90391 -2.41311,-5.24884 -5.40145,-5.24884 z m 0,0.44155 h 17.91673 c 2.74459,0 4.94706,2.14024 4.94706,4.80729 v 9.86056 c 0,2.66705 -2.20247,4.80728 -4.94706,4.80728 h -17.91673 c -2.74459,0 -4.94706,-2.14023 -4.94706,-4.80728 v -9.86056 c 0,-2.66705 2.20247,-4.80729 4.94706,-4.80729 z m -17.56471,33.49361 c 0.62166,1.23787 1.72139,2.19051 3.07553,2.64588 -1.47383,0.2339 -2.71978,1.11611 -3.2894,2.4108 z m 50.07931,0.0361 -0.20195,4.77799 c -0.58828,-1.11133 -1.66194,-1.8798 -2.95982,-2.13619 1.38828,-0.43586 2.5205,-1.38991 3.16177,-2.6418 z m -46.32922,2.91913 h 1.08829 40.42219 0.82042 c 2.14163,0 3.85878,1.66863 3.85878,3.74975 v 0.2603 c 0,2.08112 -1.71715,3.74907 -3.85878,3.74907 h -42.3309 c -2.14163,0 -3.85878,-1.66795 -3.85878,-3.74907 v -0.2603 c 0,-2.08112 1.71715,-3.74975 3.85878,-3.74975 z m 41.46069,0.35569 c -0.98942,-1e-5 -1.80142,0.76919 -1.80142,1.71781 0,0.85013 0.66363,1.52384 1.51112,1.66126 -0.84753,0.13739 -1.51112,0.8111 -1.51112,1.66125 0,0.94863 0.812,1.71783 1.80142,1.71782 0.98943,10e-6 1.80072,-0.76919 1.80072,-1.71782 0,-0.85006 -0.66302,-1.52375 -1.51042,-1.66125 0.84736,-0.13753 1.51042,-0.81122 1.51042,-1.66126 0,-0.94862 -0.81129,-1.71782 -1.80072,-1.71781 z m -39.88646,0.12606 c -0.98942,0 -1.80142,0.76851 -1.80142,1.71713 0,0.84988 0.66329,1.52354 1.51041,1.66126 -0.84719,0.13766 -1.51041,0.81201 -1.51041,1.66193 0,0.94863 0.812,1.71782 1.80142,1.71782 0.98942,0 1.80072,-0.76919 1.80072,-1.71782 0,-0.84982 -0.66266,-1.52416 -1.50972,-1.66193 0.84699,-0.13783 1.50972,-0.81147 1.50972,-1.66126 0,-0.94862 -0.8113,-1.71713 -1.80072,-1.71713 z m 4.93935,0 c -0.98942,0 -1.80142,0.76851 -1.80142,1.71713 0,0.84988 0.66329,1.52354 1.51042,1.66126 -0.8472,0.13766 -1.51042,0.81201 -1.51042,1.66193 0,0.94863 0.812,1.71782 1.80142,1.71782 0.98942,0 1.80072,-0.76919 1.80072,-1.71782 0,-0.84982 -0.66266,-1.52416 -1.50971,-1.66193 0.84698,-0.13783 1.50971,-0.81147 1.50971,-1.66126 0,-0.94862 -0.8113,-1.71713 -1.80072,-1.71713 z m 4.5593,0 c -0.98942,0 -1.80072,0.76851 -1.80072,1.71713 0,0.84979 0.66272,1.52343 1.50971,1.66126 -0.84705,0.13777 -1.50971,0.81211 -1.50971,1.66193 0,0.94863 0.8113,1.71782 1.80072,1.71782 0.98942,0 1.80142,-0.76919 1.80142,-1.71782 0,-0.84992 -0.66323,-1.52427 -1.51042,-1.66193 0.84713,-0.13772 1.51042,-0.81138 1.51042,-1.66126 0,-0.94862 -0.812,-1.71713 -1.80142,-1.71713 z m 4.93935,0 c -0.98942,0 -1.80072,0.76851 -1.80072,1.71713 0,0.84979 0.66273,1.52343 1.50971,1.66126 -0.84705,0.13777 -1.50971,0.81211 -1.50971,1.66193 0,0.94863 0.8113,1.71782 1.80072,1.71782 0.98942,0 1.80142,-0.76919 1.80142,-1.71782 0,-0.84992 -0.66322,-1.52427 -1.51042,-1.66193 0.84713,-0.13772 1.51042,-0.81138 1.51042,-1.66126 0,-0.94862 -0.812,-1.71713 -1.80142,-1.71713 z m 5.06908,0.0327 c -0.98942,0 -1.80142,0.76919 -1.80142,1.71781 0,0.84992 0.66322,1.52428 1.51041,1.66194 -0.84712,0.13772 -1.51041,0.81138 -1.51041,1.66126 0,0.94861 0.812,1.7178 1.80142,1.71781 0.98942,0 1.80071,-0.76919 1.80071,-1.71781 0,-0.84979 -0.66272,-1.52343 -1.50971,-1.66126 0.84705,-0.13777 1.50971,-0.81211 1.50971,-1.66194 0,-0.94862 -0.81129,-1.71781 -1.80071,-1.71781 z m 5.31941,0 c -0.98942,0 -1.80142,0.76919 -1.80142,1.71781 0,0.84993 0.66322,1.52428 1.51041,1.66194 -0.84712,0.13771 -1.51041,0.81138 -1.51041,1.66126 0,0.94862 0.812,1.71781 1.80142,1.71781 0.98942,0 1.80071,-0.76919 1.80071,-1.71781 0,-0.84979 -0.66272,-1.52343 -1.50971,-1.66126 0.84706,-0.13777 1.50971,-0.81211 1.50971,-1.66194 0,-0.94862 -0.81129,-1.71781 -1.80071,-1.71781 z m 4.71987,0.0974 c -0.98942,0 -1.80072,0.76851 -1.80072,1.71713 0,0.85006 0.66303,1.52444 1.51042,1.66194 -0.84735,0.13753 -1.51042,0.81123 -1.51042,1.66126 0,0.94861 0.8113,1.71781 1.80072,1.71781 0.98942,0 1.80142,-0.76919 1.80142,-1.71781 0,-0.85013 -0.66363,-1.52384 -1.51112,-1.66126 0.84753,-0.13739 1.51112,-0.81178 1.51112,-1.66194 0,-0.94862 -0.812,-1.71714 -1.80142,-1.71713 z m 5.02069,0.11311 c -0.98942,0 -1.80142,0.76919 -1.80142,1.71781 0,0.85039 0.66396,1.52414 1.51182,1.66126 -0.84786,0.13712 -1.51182,0.81087 -1.51182,1.66126 0,0.94862 0.812,1.71782 1.80142,1.71781 0.98942,10e-6 1.80072,-0.76919 1.80072,-1.71781 0,-0.85052 -0.66376,-1.5243 -1.51182,-1.66126 0.84806,-0.13696 1.51182,-0.81073 1.51182,-1.66126 0,-0.94862 -0.8113,-1.71781 -1.80072,-1.71781 z m 5.31941,0.0722 c 0.7492,0 1.34703,0.57134 1.34703,1.27627 0,0.70492 -0.59783,1.27626 -1.34703,1.27626 -0.74919,0 -1.34703,-0.57134 -1.34703,-1.27626 0,-0.70493 0.59784,-1.27627 1.34703,-1.27627 z m -39.88646,0.12538 c 0.74919,0 1.34633,0.57134 1.34633,1.27626 0,0.70493 -0.59714,1.27695 -1.34633,1.27695 -0.74919,0 -1.34703,-0.57202 -1.34703,-1.27695 0,-0.70492 0.59784,-1.27626 1.34703,-1.27626 z m 4.93935,0 c 0.7492,0 1.34703,0.57134 1.34703,1.27626 0,0.70493 -0.59783,1.27695 -1.34703,1.27695 -0.74919,0 -1.34703,-0.57202 -1.34703,-1.27695 0,-0.70492 0.59784,-1.27626 1.34703,-1.27626 z m 4.5593,0 c 0.74919,0 1.34703,0.57134 1.34703,1.27626 0,0.70493 -0.59784,1.27695 -1.34703,1.27695 -0.7492,0 -1.34704,-0.57202 -1.34704,-1.27695 0,-0.70492 0.59784,-1.27626 1.34704,-1.27626 z m 4.93935,0 c 0.74919,0 1.34703,0.57134 1.34703,1.27626 0,0.70493 -0.59784,1.27695 -1.34703,1.27695 -0.7492,0 -1.34633,-0.57202 -1.34633,-1.27695 0,-0.70492 0.59713,-1.27626 1.34633,-1.27626 z m 5.06908,0.0334 c 0.74919,0 1.34703,0.57134 1.34703,1.27626 0,0.70493 -0.59784,1.27627 -1.34703,1.27627 -0.7492,-1e-5 -1.34704,-0.57135 -1.34704,-1.27627 0,-0.70492 0.59784,-1.27626 1.34704,-1.27626 z m 5.31941,0 c 0.74919,-1e-5 1.34703,0.57134 1.34703,1.27626 0,0.70493 -0.59784,1.27627 -1.34703,1.27627 -0.7492,0 -1.34704,-0.57135 -1.34704,-1.27627 0,-0.70492 0.59784,-1.27626 1.34704,-1.27626 z m 4.71987,0.0968 c 0.74919,-1e-5 1.34703,0.57134 1.34703,1.27626 0,0.70493 -0.59784,1.27695 -1.34703,1.27695 -0.74919,0 -1.34703,-0.57202 -1.34703,-1.27695 0,-0.70492 0.59784,-1.27626 1.34703,-1.27626 z m 5.02069,0.11311 c 0.7492,-1e-5 1.34703,0.57202 1.34703,1.27694 0,0.70493 -0.59783,1.27628 -1.34703,1.27627 -0.7492,1e-5 -1.34703,-0.57134 -1.34703,-1.27627 0,-0.70492 0.59783,-1.27695 1.34703,-1.27694 z m 5.31941,2.95387 c 0.7492,0 1.34703,0.57134 1.34703,1.27627 0,0.70493 -0.59783,1.27695 -1.34703,1.27694 -0.74919,10e-6 -1.34703,-0.57201 -1.34703,-1.27694 0,-0.70493 0.59784,-1.27627 1.34703,-1.27627 z m -39.88646,0.12608 c 0.74919,0 1.34633,0.57134 1.34633,1.27626 0,0.70493 -0.59714,1.27627 -1.34633,1.27627 -0.74919,0 -1.34703,-0.57134 -1.34703,-1.27627 0,-0.70492 0.59784,-1.27626 1.34703,-1.27626 z m 4.93935,0 c 0.7492,0 1.34703,0.57134 1.34703,1.27626 0,0.70493 -0.59783,1.27627 -1.34703,1.27627 -0.74919,0 -1.34703,-0.57134 -1.34703,-1.27627 0,-0.70492 0.59784,-1.27626 1.34703,-1.27626 z m 4.5593,0 c 0.74919,0 1.34703,0.57134 1.34703,1.27626 0,0.70493 -0.59784,1.27627 -1.34703,1.27627 -0.7492,0 -1.34704,-0.57134 -1.34704,-1.27627 0,-0.70492 0.59784,-1.27626 1.34704,-1.27626 z m 4.93935,0 c 0.74919,0 1.34703,0.57134 1.34703,1.27626 0,0.70493 -0.59784,1.27627 -1.34703,1.27627 -0.7492,0 -1.34633,-0.57134 -1.34633,-1.27627 0,-0.70492 0.59713,-1.27626 1.34633,-1.27626 z m 5.06908,0.0334 c 0.74919,0 1.34703,0.57134 1.34703,1.27627 0,0.70492 -0.59784,1.27626 -1.34703,1.27626 -0.7492,0 -1.34704,-0.57134 -1.34704,-1.27626 0,-0.70493 0.59784,-1.27626 1.34704,-1.27627 z m 5.31941,0 c 0.74919,0 1.34703,0.57134 1.34703,1.27627 0,0.70492 -0.59784,1.27626 -1.34703,1.27626 -0.7492,0 -1.34704,-0.57134 -1.34704,-1.27626 0,-0.70493 0.59784,-1.27627 1.34704,-1.27627 z m 4.71987,0.0968 c 0.74919,0 1.34703,0.57134 1.34703,1.27626 0,0.70493 -0.59784,1.27627 -1.34703,1.27627 -0.74919,0 -1.34703,-0.57134 -1.34703,-1.27627 0,-0.70492 0.59784,-1.27626 1.34703,-1.27626 z m 5.02069,0.11311 c 0.7492,0 1.34703,0.57134 1.34703,1.27627 0,0.70492 -0.59783,1.27626 -1.34703,1.27626 -0.7492,0 -1.34703,-0.57134 -1.34703,-1.27626 0,-0.70493 0.59783,-1.27627 1.34703,-1.27627 z" />
      <path
         style="fill:#b7c4c8;fill-rule:evenodd;stroke:#000000;stroke-width:8.34538;stroke-linecap:round;stroke-linejoin:round;stroke-opacity:0.955017;paint-order:stroke markers fill"
         d="m 571.99558,899.94517 c -2.32375,-1.31613 -5.31659,-4.01276 -6.65074,-5.99251 l -2.42574,-3.59955 v -81.35297 c 0,-91.23266 -0.43184,-86.16237 7.80276,-91.61267 l 4.27778,-2.83137 79.3553,-0.32236 c 54.57231,-0.22168 80.58657,0.0364 83.29779,0.82644 2.16838,0.63184 5.41784,2.39021 7.22103,3.9075 6.72562,5.65923 6.39614,1.03779 6.37695,89.4441 l -0.0176,80.65988 -2.37676,4.17665 c -1.48171,2.60377 -4.14291,5.10836 -7.06664,6.65074 l -4.68983,2.4741 -80.43966,-0.0175 -80.43967,-0.0175 z m 132.99258,-59.14726 c 5.36626,-2.43784 10.86089,-8.61205 11.70828,-13.15639 0.35702,-1.91462 0.50036,-13.81315 0.31852,-26.44116 -0.32946,-22.87974 -0.34061,-22.97511 -3.18674,-27.27216 -1.73549,-2.62024 -4.71545,-5.21222 -7.59504,-6.60621 -4.63494,-2.24373 -5.62498,-2.28743 -45.10889,-1.99112 l -40.36994,0.30296 -3.74075,2.56434 c -2.05741,1.41038 -4.8947,4.2469 -6.30509,6.30337 -2.48338,3.62099 -2.57537,4.46386 -2.91377,26.69894 -0.3785,24.86978 0.15817,28.65325 4.85626,34.23662 5.99946,7.12995 7.14954,7.29864 49.76325,7.29864 34.78254,0 38.70088,-0.17836 42.57391,-1.93783 z"
         id="path1542"
         transform="scale(0.26458333)" />
      <path
         style="fill:#53676c;fill-rule:evenodd;stroke:#000000;stroke-width:8.34538;stroke-linecap:round;stroke-linejoin:round;stroke-opacity:0.955017;paint-order:stroke markers fill"
         d="m 564.32607,710.41856 c -1.28615,-1.98637 -4.48259,-4.62725 -7.1828,-5.93441 -2.67595,-1.2954 -4.86536,-2.57642 -4.86536,-2.84671 0,-0.27028 1.66061,-1.18527 3.69024,-2.03331 3.13085,-1.30815 18.39022,-1.54188 100.66448,-1.54188 87.92566,0 97.3196,0.16388 100.67549,1.75636 l 3.70127,1.75636 -4.60457,2.29962 c -2.53249,1.26479 -5.74804,4.04396 -7.14565,6.17593 l -2.5411,3.87631 -3.31156,-1.8136 c -3.02699,-1.65777 -10.47217,-1.83863 -86.64533,-2.10478 -82.1903,-0.28718 -83.37528,-0.26163 -86.35793,1.8622 -1.66328,1.18437 -3.18965,2.14746 -3.39194,2.14022 -0.20229,-0.007 -1.41064,-1.62378 -2.68524,-3.59231 z"
         id="path1618"
         transform="scale(0.26458333)" />
      <path
         style="fill:#53676c;fill-rule:evenodd;stroke:#000000;stroke-width:8.34538;stroke-linecap:round;stroke-linejoin:round;stroke-opacity:0.955017;paint-order:stroke markers fill"
         d="m 556.00233,932.29039 c -8.59037,-3.95485 -7.98291,4.91339 -7.9646,-116.27508 0.009,-59.31416 0.37881,-108.4141 0.8219,-109.11099 1.04708,-1.64685 9.73525,3.6376 12.22309,7.43452 1.64752,2.51444 1.64342,2.92998 -0.0615,6.24402 -1.68741,3.27994 -1.82571,11.04637 -1.81603,101.98135 0.006,54.13707 0.37182,99.7391 0.81346,101.33784 0.44165,1.59875 2.28224,4.59158 4.09021,6.65075 l 3.28722,3.74393 -3.56862,-0.0234 c -1.96275,-0.0128 -5.48404,-0.90515 -7.8251,-1.98293 z"
         id="path1657"
         transform="scale(0.26458333)" />
      <path
         style="fill:#53676c;fill-rule:evenodd;stroke:#000000;stroke-width:8.34538;stroke-linecap:round;stroke-linejoin:round;stroke-opacity:0.955017;paint-order:stroke markers fill"
         d="m 747.52924,931.98983 c 4.72203,-3.71435 5.68659,-7.55686 5.79619,-23.09016 0.055,-7.79315 0.58638,-15.07823 1.18088,-16.18905 0.71265,-1.3316 0.97962,-30.21089 0.78361,-84.7665 -0.29581,-82.33593 -0.30865,-82.76844 -2.58575,-87.09911 l -2.28846,-4.35228 2.6547,-3.39208 c 1.46008,-1.86564 4.50355,-4.33529 6.76326,-5.48811 l 4.10856,-2.09603 0.62118,3.45568 c 0.34166,1.90062 0.48284,51.42227 0.31374,110.04812 l -0.30744,106.59244 -2.6603,2.88296 c -3.34622,3.62627 -8.3738,5.80102 -13.41082,5.80102 h -3.9021 z"
         id="path1735"
         transform="scale(0.26458333)" />
      <path
         style="fill:#53676c;fill-rule:evenodd;stroke:#000000;stroke-width:4.18133;stroke-linecap:round;stroke-linejoin:round;stroke-opacity:0.955017;paint-order:stroke markers fill"
         d="m 747.7092,907.38587 c -0.55831,-0.61692 -1.81278,-1.53091 -2.78772,-2.03108 l -1.77261,-0.90941 2.97167,-1.97307 2.97166,-1.97307 v 4.00415 c 0,2.20229 -0.0828,4.00416 -0.18395,4.00416 -0.10117,0 -0.64074,-0.50475 -1.19905,-1.12168 z"
         id="path1813"
         transform="scale(0.26458333)" />
      <path
         style="fill:#53676c;fill-rule:evenodd;stroke:#000000;stroke-width:4.18133;stroke-linecap:round;stroke-linejoin:round;stroke-opacity:0.955017;paint-order:stroke markers fill"
         d="m 564.08509,903.5556 v -4.32097 l 1.73277,1.6235 c 0.95303,0.89292 2.26238,1.97508 2.90967,2.4048 1.15993,0.77005 1.13498,0.8089 -1.73278,2.69747 l -2.90966,1.91616 z"
         id="path1852"
         transform="scale(0.26458333)" />
      <path
         style="fill:#93a7ac;fill-rule:evenodd;stroke:#000000;stroke-width:4.18133;stroke-linecap:round;stroke-linejoin:round;stroke-opacity:0.955017;paint-order:stroke markers fill"
         d="m 572.61568,933.19694 c -0.81087,-0.24894 -3.64385,-3.61895 -6.79782,-8.08645 -1.67107,-2.36702 -1.73277,-2.64112 -1.73277,-7.69766 0,-2.88379 0.24887,-5.70827 0.55305,-6.27663 0.30418,-0.56836 2.12773,-2.08976 4.05235,-3.38089 3.41237,-2.28918 3.5439,-2.32886 5.2946,-1.59737 0.98742,0.41257 2.57617,0.75013 3.53055,0.75013 1.72445,0 1.72786,0.005 0.54724,0.83211 -1.52971,1.07145 -2.78194,3.50708 -2.7794,5.40606 0.002,1.80067 1.66183,4.6698 3.1667,5.47518 1.05507,0.56466 1.02955,0.64082 -0.73376,2.18902 -4.09331,3.59398 -2.59697,9.67694 2.73349,11.11229 7.41227,1.99591 12.16193,-6.90585 6.22587,-11.66845 -1.12841,-0.90534 -1.33027,-1.29937 -0.76793,-1.49899 1.30635,-0.46373 3.0916,-2.72872 3.41151,-4.32827 0.44397,-2.21984 -0.53526,-5.17238 -2.132,-6.42838 l -1.38644,-1.09057 h 6.05531 c 5.6392,0 5.97367,0.0572 4.86731,0.83211 -3.62107,2.53629 -3.56186,8.14908 0.11136,10.55587 l 1.34777,0.88309 -1.87216,1.7286 c -4.6637,4.30607 -1.61116,11.23665 4.94913,11.23665 2.82234,0 4.82289,-1.32958 6.21363,-4.12963 0.8526,-1.71659 0.91073,-2.32107 0.39024,-4.0583 -0.33637,-1.12271 -1.29491,-2.61626 -2.13009,-3.31902 l -1.5185,-1.27773 1.71579,-1.63257 c 0.94369,-0.89791 1.85967,-2.35193 2.03552,-3.23116 0.45654,-2.28274 -0.50334,-5.22708 -2.11821,-6.49734 l -1.38644,-1.09057 h 5.09592 5.09593 l -1.55848,1.55847 c -2.71682,2.71682 -2.09347,7.92893 1.1795,9.86232 l 1.62644,0.96076 -1.19777,0.60704 c -4.33004,2.19446 -4.43378,8.56765 -0.18479,11.3517 1.73122,1.13434 5.31971,1.14786 7.4762,0.0282 1.73454,-0.90061 3.40416,-3.70008 3.40416,-5.70779 0,-1.85057 -1.52228,-4.57695 -2.99588,-5.3656 l -1.34816,-0.72151 1.38721,-1.0105 c 3.61046,-2.63004 3.88002,-6.83322 0.66461,-10.36344 l -1.09263,-1.19961 h 5.63847 5.63846 l -1.54682,1.65587 c -2.67176,2.86013 -2.06406,7.84202 1.19116,9.76492 l 1.62644,0.96076 -1.19778,0.60704 c -4.33003,2.19446 -4.43377,8.56765 -0.18478,11.3517 1.76429,1.15601 5.33171,1.14156 7.5901,-0.0307 1.79879,-0.93373 3.29026,-3.51048 3.29026,-5.68448 0,-1.81877 -1.53377,-4.54751 -2.99588,-5.33001 l -1.34816,-0.72151 1.38721,-1.0105 c 3.61046,-2.63004 3.88002,-6.83322 0.66461,-10.36344 l -1.09263,-1.19961 h 5.99873 5.99873 l -1.56745,1.56744 c -2.9045,2.9045 -2.52251,7.70777 0.79024,9.93684 l 1.70405,1.14661 -1.27598,0.58138 c -1.88681,0.85969 -3.10958,3.08228 -3.10958,5.6522 0,7.17744 10.56063,9.20389 13.33696,2.55919 0.4812,-1.15167 0.68672,-2.67654 0.50865,-3.77389 -0.32497,-2.00255 -2.70157,-4.87269 -4.03744,-4.87588 -0.45912,-10e-4 -0.0668,-0.46932 0.87361,-1.04275 4.0898,-2.4937 4.39362,-8.2456 0.57675,-10.91903 -1.1027,-0.77237 -0.69247,-0.83211 5.71379,-0.83211 6.40625,0 6.81648,0.0597 5.71378,0.83211 -3.81687,2.67343 -3.51305,8.42533 0.57675,10.91903 0.94046,0.57343 1.33273,1.04165 0.87361,1.04275 -1.33587,0.003 -3.71247,2.87333 -4.03743,4.87588 -0.17808,1.09735 0.0275,2.62222 0.50864,3.77389 2.77633,6.6447 13.33696,4.61825 13.33696,-2.55919 0,-2.56992 -1.22277,-4.79251 -3.10958,-5.6522 l -1.27598,-0.58138 1.70405,-1.14661 c 3.31275,-2.22907 3.69474,-7.03234 0.79024,-9.93684 l -1.56745,-1.56744 6.03909,0.0213 c 5.51548,0.0195 5.91858,0.0869 4.64927,0.77675 -2.08082,1.13099 -3.14207,3.12407 -3.14207,5.90099 0,2.09962 0.27264,2.74394 1.81275,4.28405 l 1.81275,1.81275 -1.81275,1.81275 c -1.59675,1.59675 -1.81275,2.1431 -1.81275,4.58519 0,2.44209 0.216,2.98844 1.81275,4.58519 3.16985,3.16985 9.27833,2.42602 11.24069,-1.36877 1.6068,-3.10722 0.31014,-7.95756 -2.35332,-8.80291 -1.0388,-0.3297 -0.9965,-0.45053 0.72653,-2.07555 3.21943,-3.03632 3.21995,-7.06552 10e-4,-9.89157 l -1.8679,-1.64021 h 16.10634 16.10634 l -1.23585,1.3155 c -0.83964,0.89376 -1.31902,2.18103 -1.49526,4.01523 -0.2494,2.5955 -0.17619,2.77889 1.89641,4.75051 l 2.15582,2.05079 -1.33214,0.71294 c -2.90239,1.55331 -3.70106,5.98074 -1.63257,9.05017 2.48453,3.68679 7.60711,4.0518 10.88341,0.7755 1.52999,-1.52999 1.7707,-2.13057 1.7707,-4.41793 0,-2.81218 -1.26364,-5.10916 -3.13799,-5.70406 -0.85125,-0.27017 -0.7117,-0.57608 1.08023,-2.36802 1.76399,-1.76398 2.05776,-2.3923 2.05776,-4.40108 0,-2.11663 -0.98635,-4.41857 -2.27101,-5.30009 -0.25672,-0.17616 0.2783,-0.6289 1.18894,-1.0061 1.43928,-0.59617 1.90401,-0.5543 3.55539,0.32028 1.04484,0.55336 2.91247,1.96579 4.1503,3.13875 l 2.25059,2.13264 -0.37382,5.5982 c -0.46326,6.93762 -1.23513,8.84327 -4.66048,11.50615 -1.47827,1.14921 -2.94184,2.6293 -3.2524,3.28909 l -0.56465,1.19961 -83.31794,-0.0618 c -45.82488,-0.034 -83.67784,-0.17234 -84.11769,-0.30737 z M 717.00129,931.953 c 4.18737,-2.55297 4.04263,-8.68922 -0.26177,-11.09809 -0.8106,-0.45363 -0.72618,-0.66743 0.75598,-1.91458 3.38073,-2.8447 3.4089,-7.33392 0.0637,-10.14875 -1.28676,-1.08274 -2.17938,-1.35035 -4.50411,-1.35035 -2.53061,0 -3.13797,0.22035 -4.77603,1.73278 -2.31864,2.14079 -2.88381,4.76029 -1.60741,7.4501 0.48523,1.02253 1.47118,2.17435 2.19101,2.55959 1.66937,0.89342 1.642,1.12658 -0.25926,2.20824 -1.81026,1.02989 -3.04224,4.32916 -2.46917,6.61246 0.20236,0.80627 1.16952,2.26754 2.14925,3.24727 1.53087,1.53087 2.14489,1.78104 4.36716,1.77933 1.65222,-10e-4 3.22303,-0.39048 4.35069,-1.078 z"
         id="path1928"
         transform="scale(0.26458333)" />
      <path
         style="fill:#918a6f;fill-rule:evenodd;stroke:#000000;stroke-width:4.18133;stroke-linecap:round;stroke-linejoin:round;stroke-opacity:0.955017;paint-order:stroke markers fill"
         d="m 599.00718,929.21836 c -2.84305,-1.55502 -3.19153,-4.29054 -0.8343,-6.54892 2.11616,-2.0274 4.08594,-1.96989 6.00262,0.17525 1.90473,2.13176 1.88928,3.47931 -0.0623,5.43086 -1.62511,1.62511 -3.29491,1.93343 -5.10605,0.94281 z"
         id="path2004"
         transform="scale(0.26458333)" />
      <path
         style="fill:#918a6f;fill-rule:evenodd;stroke:#000000;stroke-width:4.18133;stroke-linecap:round;stroke-linejoin:round;stroke-opacity:0.955017;paint-order:stroke markers fill"
         d="m 598.24834,916.191 c -2.18895,-1.84188 -2.26152,-4.39854 -0.17964,-6.32897 2.08092,-1.92954 4.45012,-1.82068 6.2227,0.28592 1.80882,2.14965 1.75467,3.93204 -0.17817,5.86488 -1.93284,1.93284 -3.71523,1.98699 -5.86489,0.17817 z"
         id="path2043"
         transform="scale(0.26458333)" />
      <path
         style="fill:#918a6f;fill-rule:evenodd;stroke:#000000;stroke-width:4.18133;stroke-linecap:round;stroke-linejoin:round;stroke-opacity:0.955017;paint-order:stroke markers fill"
         d="m 634.6466,916.54176 c -2.24184,-1.36698 -2.83893,-3.88 -1.38571,-5.83216 2.08974,-2.80725 5.58995,-2.87641 7.20499,-0.14238 1.38804,2.34978 1.17435,4.0359 -0.71274,5.62378 -1.9584,1.64789 -2.87591,1.71091 -5.10654,0.35076 z"
         id="path2121"
         transform="scale(0.26458333)" />
      <path
         style="fill:#918a6f;fill-rule:evenodd;stroke:#000000;stroke-width:4.18133;stroke-linecap:round;stroke-linejoin:round;stroke-opacity:0.955017;paint-order:stroke markers fill"
         d="m 633.88826,928.27555 c -0.85716,-0.85716 -1.55847,-1.92552 -1.55847,-2.37414 0,-1.64307 1.21279,-3.404 2.89783,-4.20754 1.56421,-0.74592 1.89381,-0.74353 3.48118,0.0253 2.38775,1.15642 3.39459,3.56087 2.34279,5.59483 -1.46369,2.83047 -4.84108,3.28385 -7.16333,0.9616 z"
         id="path2160"
         transform="scale(0.26458333)" />
      <path
         style="fill:#918a6f;fill-rule:evenodd;stroke:#000000;stroke-width:4.18133;stroke-linecap:round;stroke-linejoin:round;stroke-opacity:0.955017;paint-order:stroke markers fill"
         d="m 615.98594,916.54176 c -2.24184,-1.36698 -2.83893,-3.88 -1.38571,-5.83216 2.08974,-2.80725 5.58995,-2.87641 7.20499,-0.14238 1.38804,2.34978 1.17435,4.0359 -0.71274,5.62378 -1.9584,1.64789 -2.87591,1.71091 -5.10654,0.35076 z"
         id="path2199"
         transform="scale(0.26458333)" />
      <path
         style="fill:#918a6f;fill-rule:evenodd;stroke:#000000;stroke-width:4.18133;stroke-linecap:round;stroke-linejoin:round;stroke-opacity:0.955017;paint-order:stroke markers fill"
         d="m 615.29335,928.34129 c -0.89332,-0.89332 -1.62422,-1.99126 -1.62422,-2.43988 0,-1.64825 1.21504,-3.40508 2.91597,-4.21619 1.54545,-0.73698 1.92213,-0.74283 3.2804,-0.051 2.0117,1.02466 2.86738,2.21157 2.86738,3.97734 0,2.04624 -1.54475,3.67028 -3.84069,4.03783 -1.70719,0.2733 -2.1946,0.0961 -3.59884,-1.30811 z"
         id="path2277"
         transform="scale(0.26458333)" />
      <path
         style="fill:#918a6f;fill-rule:evenodd;stroke:#000000;stroke-width:4.18133;stroke-linecap:round;stroke-linejoin:round;stroke-opacity:0.955017;paint-order:stroke markers fill"
         d="m 579.48854,916.0751 c -2.14513,-1.91668 -2.20264,-3.88646 -0.17524,-6.00262 2.07653,-2.16742 4.45407,-2.13902 6.31744,0.0755 1.85006,2.19867 1.76707,3.96843 -0.27557,5.87654 -2.08108,1.94402 -3.7316,1.95826 -5.86663,0.0506 z"
         id="path2316"
         transform="scale(0.26458333)" />
      <path
         style="fill:#918a6f;fill-rule:evenodd;stroke:#000000;stroke-width:4.18133;stroke-linecap:round;stroke-linejoin:round;stroke-opacity:0.955017;paint-order:stroke markers fill"
         d="m 580.6131,929.45578 c -3.05024,-1.12156 -3.58336,-4.40797 -1.10088,-6.78634 2.11616,-2.0274 4.08594,-1.96989 6.00262,0.17525 1.90473,2.13176 1.88928,3.47931 -0.0623,5.43086 -1.48051,1.48051 -3.00901,1.85327 -4.83947,1.18023 z"
         id="path2355"
         transform="scale(0.26458333)" />
      <path
         style="fill:#918a6f;fill-rule:evenodd;stroke:#000000;stroke-width:4.18133;stroke-linecap:round;stroke-linejoin:round;stroke-opacity:0.955017;paint-order:stroke markers fill"
         d="m 653.08208,916.01283 c -2.02228,-2.02228 -2.02228,-3.92453 0,-5.9468 1.76553,-1.76554 3.46408,-1.97248 5.38729,-0.65635 1.80032,1.23203 2.10035,1.76042 2.10982,3.71564 0.006,1.23336 -0.43179,2.05558 -1.63222,3.06568 -2.14966,1.80882 -3.93205,1.75467 -5.86489,-0.17817 z"
         id="path2394"
         transform="scale(0.26458333)" />
      <path
         style="fill:#918a6f;fill-rule:evenodd;stroke:#000000;stroke-width:4.18133;stroke-linecap:round;stroke-linejoin:round;stroke-opacity:0.955017;paint-order:stroke markers fill"
         d="m 652.83228,928.52535 c -1.76074,-1.76074 -1.67343,-3.74021 0.2498,-5.66344 1.66343,-1.66343 3.13022,-1.93824 5.00781,-0.93823 2.67238,1.42332 3.25371,4.13932 1.39245,6.50554 -1.51433,1.92515 -4.77392,1.97227 -6.65006,0.0961 z"
         id="path2433"
         transform="scale(0.26458333)" />
      <path
         style="fill:#918a6f;fill-rule:evenodd;stroke:#000000;stroke-width:4.18133;stroke-linecap:round;stroke-linejoin:round;stroke-opacity:0.955017;paint-order:stroke markers fill"
         d="m 673.42415,916.191 c -1.6278,-1.3697 -2.21462,-3.90065 -1.23236,-5.31512 0.76921,-1.10769 3.04928,-2.36833 4.28348,-2.36833 1.71364,0 4.37223,2.75567 4.37223,4.53188 0,1.8206 -2.66226,4.53187 -4.44995,4.53187 -0.73316,0 -2.07119,-0.62113 -2.9734,-1.3803 z"
         id="path2472"
         transform="scale(0.26458333)" />
      <path
         style="fill:#918a6f;fill-rule:evenodd;stroke:#000000;stroke-width:4.18133;stroke-linecap:round;stroke-linejoin:round;stroke-opacity:0.955017;paint-order:stroke markers fill"
         d="m 672.88877,928.42922 c -2.39279,-3.04195 -0.27264,-7.12579 3.6994,-7.12579 1.60976,0 4.25933,2.80868 4.25933,4.5151 0,3.65797 -5.67152,5.51839 -7.95873,2.61069 z"
         id="path2511"
         transform="scale(0.26458333)" />
      <path
         style="fill:#918a6f;fill-rule:evenodd;stroke:#000000;stroke-width:4.18133;stroke-linecap:round;stroke-linejoin:round;stroke-opacity:0.955017;paint-order:stroke markers fill"
         d="m 690.99148,916.17278 c -1.97368,-2.2479 -1.8855,-3.97744 0.30248,-5.93245 1.79667,-1.60537 3.82073,-1.52192 5.65251,0.23304 1.99948,1.91562 1.97749,4.03203 -0.0631,6.07262 -2.12359,2.12359 -3.79249,2.01787 -5.89189,-0.37321 z"
         id="path2550"
         transform="scale(0.26458333)" />
      <path
         style="fill:#918a6f;fill-rule:evenodd;stroke:#000000;stroke-width:4.18133;stroke-linecap:round;stroke-linejoin:round;stroke-opacity:0.955017;paint-order:stroke markers fill"
         d="m 690.93656,928.80871 c -2.03174,-2.03174 -1.96746,-3.47079 0.25428,-5.69253 2.13992,-2.13991 2.76671,-2.2121 5.1728,-0.59573 1.49648,1.00532 1.83962,1.59764 1.97261,3.40507 0.1355,1.84166 -0.0658,2.36643 -1.27152,3.31485 -2.04171,1.60602 -4.24574,1.45077 -6.12817,-0.43166 z"
         id="path2589"
         transform="scale(0.26458333)" />
      <path
         style="fill:#918a6f;fill-rule:evenodd;stroke:#000000;stroke-width:4.18133;stroke-linecap:round;stroke-linejoin:round;stroke-opacity:0.955017;paint-order:stroke markers fill"
         d="m 711.11783,917.80653 c -2.99563,-1.62567 -3.40806,-4.74661 -0.90553,-6.85235 0.90222,-0.75917 2.20339,-1.3803 2.89149,-1.3803 1.80009,0 4.53187,2.47109 4.53187,4.09942 0,1.44475 -3.10749,4.97969 -4.34527,4.94298 -0.39587,-0.0117 -1.37352,-0.37613 -2.17256,-0.80975 z"
         id="path2628"
         transform="scale(0.26458333)" />
      <path
         style="fill:#918a6f;fill-rule:evenodd;stroke:#000000;stroke-width:4.18133;stroke-linecap:round;stroke-linejoin:round;stroke-opacity:0.955017;paint-order:stroke markers fill"
         d="m 710.24376,929.54651 c -2.25866,-1.90053 -2.26426,-4.06289 -0.016,-6.1631 2.09447,-1.95652 3.65755,-1.95652 5.75201,0 2.91362,2.72173 1.70497,6.35166 -2.40377,7.21926 -1.32751,0.28032 -1.9956,0.0686 -3.33226,-1.05616 z"
         id="path2667"
         transform="scale(0.26458333)" />
      <path
         style="fill:#918a6f;fill-rule:evenodd;stroke:#000000;stroke-width:4.18133;stroke-linecap:round;stroke-linejoin:round;stroke-opacity:0.955017;paint-order:stroke markers fill"
         d="m 730.08406,915.30536 c -1.41911,-1.5151 -1.57156,-1.96557 -1.21362,-3.58601 1.01557,-4.59747 6.46207,-5.11559 8.27076,-0.78678 0.96476,2.30901 1.02448,2.02896 -0.90011,4.22095 -2.15461,2.45396 -3.9591,2.49846 -6.15703,0.15184 z"
         id="path2706"
         transform="scale(0.26458333)" />
      <path
         style="fill:#918a6f;fill-rule:evenodd;stroke:#000000;stroke-width:4.18133;stroke-linecap:round;stroke-linejoin:round;stroke-opacity:0.955017;paint-order:stroke markers fill"
         d="m 730.23686,928.19584 c -2.06465,-1.62406 -1.99244,-4.80188 0.1437,-6.32294 2.79013,-1.98675 5.83115,-1.19743 6.9747,1.81034 0.71698,1.88579 0.31358,3.16673 -1.42894,4.53739 -1.76022,1.38459 -3.90962,1.37523 -5.68946,-0.0248 z"
         id="path2745"
         transform="scale(0.26458333)" />
      <path
         style="fill:#b7c4c8;fill-rule:evenodd;stroke:#000000;stroke-width:4.18133;stroke-linecap:round;stroke-linejoin:round;stroke-opacity:0.955017;paint-order:stroke markers fill"
         d="m 626.03674,837.5533 c -2.14161,-0.25648 -4.74937,-0.87233 -5.79505,-1.36853 -2.38876,-1.13354 -6.28745,-6.04133 -7.092,-8.92762 -0.87934,-3.15457 -1.25515,-23.25317 -0.67897,-36.31175 0.55642,-12.61076 0.64741,-12.93318 4.75542,-16.84976 4.85357,-4.6274 0.5053,-4.21049 43.87972,-4.20716 23.66024,0.002 39.40031,0.20617 40.55335,0.5265 3.08095,0.85593 6.60128,3.41737 8.3732,6.09247 2.21951,3.35086 2.35467,4.98346 2.4549,29.653 0.0816,20.09119 0.0599,20.55049 -1.07136,22.66339 -1.49945,2.80055 -5.46627,6.4324 -8.61516,7.88768 -2.46928,1.1412 -2.82603,1.15285 -37.68156,1.23012 -19.35377,0.0429 -36.94089,-0.13184 -39.08249,-0.38834 z"
         id="path2934"
         transform="scale(0.26458333)" />
    </g>
  </g>
</svg>
