<?xml version="1.0" encoding="UTF-8" standalone="no"?>
<!-- Created with Inkscape (http://www.inkscape.org/) -->

<svg
   width="210mm"
   height="297mm"
   viewBox="0 0 210 297"
   version="1.1"
   id="svg5"
   inkscape:version="1.1.1 (3bf5ae0d25, 2021-09-20)"
   sodipodi:docname="sampler memory card 4 icon svg.svg"
   xmlns:inkscape="http://www.inkscape.org/namespaces/inkscape"
   xmlns:sodipodi="http://sodipodi.sourceforge.net/DTD/sodipodi-0.dtd"
   xmlns="http://www.w3.org/2000/svg"
   xmlns:svg="http://www.w3.org/2000/svg">
  <sodipodi:namedview
     id="namedview7"
     pagecolor="#ffffff"
     bordercolor="#666666"
     borderopacity="1.0"
     inkscape:pageshadow="2"
     inkscape:pageopacity="0.0"
     inkscape:pagecheckerboard="0"
     inkscape:document-units="mm"
     showgrid="false"
     inkscape:zoom="0.70910507"
     inkscape:cx="485.11852"
     inkscape:cy="343.39058"
     inkscape:window-width="1680"
     inkscape:window-height="956"
     inkscape:window-x="-11"
     inkscape:window-y="-11"
     inkscape:window-maximized="1"
     inkscape:current-layer="layer1" />
  <defs
     id="defs2">
    <inkscape:path-effect
       effect="spiro"
       id="path-effect2585"
       is_visible="true"
       lpeversion="1" />
    <inkscape:path-effect
       effect="spiro"
       id="path-effect2499"
       is_visible="true"
       lpeversion="1" />
    <inkscape:path-effect
       effect="spiro"
       id="path-effect1857"
       is_visible="true"
       lpeversion="1" />
    <inkscape:path-effect
       effect="spiro"
       id="path-effect1771"
       is_visible="true"
       lpeversion="1" />
    <inkscape:path-effect
       effect="spiro"
       id="path-effect1574"
       is_visible="true"
       lpeversion="1" />
    <inkscape:path-effect
       effect="spiro"
       id="path-effect1123"
       is_visible="true"
       lpeversion="1" />
    <inkscape:path-effect
       effect="spiro"
       id="path-effect4644"
       is_visible="true"
       lpeversion="1" />
    <inkscape:path-effect
       effect="spiro"
       id="path-effect4640"
       is_visible="true"
       lpeversion="1" />
    <inkscape:path-effect
       effect="spiro"
       id="path-effect4628"
       is_visible="true"
       lpeversion="1" />
    <inkscape:path-effect
       effect="spiro"
       id="path-effect4511"
       is_visible="true"
       lpeversion="1" />
    <inkscape:path-effect
       effect="spiro"
       id="path-effect4076"
       is_visible="true"
       lpeversion="1" />
    <inkscape:path-effect
       effect="spiro"
       id="path-effect4035"
       is_visible="true"
       lpeversion="1" />
    <inkscape:path-effect
       effect="spiro"
       id="path-effect3949"
       is_visible="true"
       lpeversion="1" />
    <inkscape:path-effect
       effect="spiro"
       id="path-effect3943"
       is_visible="true"
       lpeversion="1" />
    <inkscape:path-effect
       effect="spiro"
       id="path-effect2826"
       is_visible="true"
       lpeversion="1" />
    <inkscape:path-effect
       effect="spiro"
       id="path-effect2820"
       is_visible="true"
       lpeversion="1" />
    <inkscape:path-effect
       effect="spiro"
       id="path-effect2415"
       is_visible="true"
       lpeversion="1" />
    <inkscape:path-effect
       effect="spiro"
       id="path-effect2263"
       is_visible="true"
       lpeversion="1" />
    <inkscape:path-effect
       effect="spiro"
       id="path-effect1863"
       is_visible="true"
       lpeversion="1" />
    <inkscape:path-effect
       effect="spiro"
       id="path-effect1613"
       is_visible="true"
       lpeversion="1" />
    <inkscape:path-effect
       effect="spiro"
       id="path-effect1459"
       is_visible="true"
       lpeversion="1" />
    <inkscape:path-effect
       effect="spiro"
       id="path-effect1455"
       is_visible="true"
       lpeversion="1" />
    <inkscape:path-effect
       effect="spiro"
       id="path-effect2916"
       is_visible="true"
       lpeversion="1" />
    <inkscape:path-effect
       effect="spiro"
       id="path-effect2912"
       is_visible="true"
       lpeversion="1" />
    <inkscape:path-effect
       effect="spiro"
       id="path-effect2908"
       is_visible="true"
       lpeversion="1" />
    <inkscape:path-effect
       effect="spiro"
       id="path-effect2904"
       is_visible="true"
       lpeversion="1" />
    <inkscape:path-effect
       effect="spiro"
       id="path-effect1001"
       is_visible="true"
       lpeversion="1" />
    <inkscape:path-effect
       effect="spiro"
       id="path-effect997"
       is_visible="true"
       lpeversion="1" />
    <inkscape:path-effect
       effect="spiro"
       id="path-effect993"
       is_visible="true"
       lpeversion="1" />
    <inkscape:path-effect
       effect="spiro"
       id="path-effect989"
       is_visible="true"
       lpeversion="1" />
    <inkscape:path-effect
       effect="spiro"
       id="path-effect2356"
       is_visible="true"
       lpeversion="1" />
    <inkscape:path-effect
       effect="spiro"
       id="path-effect2352"
       is_visible="true"
       lpeversion="1" />
    <inkscape:path-effect
       effect="spiro"
       id="path-effect2348"
       is_visible="true"
       lpeversion="1" />
    <inkscape:path-effect
       effect="spiro"
       id="path-effect2344"
       is_visible="true"
       lpeversion="1" />
    <inkscape:path-effect
       effect="spiro"
       id="path-effect1589"
       is_visible="true"
       lpeversion="1" />
    <inkscape:path-effect
       effect="spiro"
       id="path-effect1585"
       is_visible="true"
       lpeversion="1" />
    <inkscape:path-effect
       effect="spiro"
       id="path-effect1581"
       is_visible="true"
       lpeversion="1" />
    <inkscape:path-effect
       effect="spiro"
       id="path-effect1577"
       is_visible="true"
       lpeversion="1" />
    <inkscape:path-effect
       effect="spiro"
       id="path-effect1410"
       is_visible="true"
       lpeversion="1" />
    <inkscape:path-effect
       effect="spiro"
       id="path-effect1404"
       is_visible="true"
       lpeversion="1" />
    <inkscape:path-effect
       effect="spiro"
       id="path-effect1318"
       is_visible="true"
       lpeversion="1" />
    <inkscape:path-effect
       effect="spiro"
       id="path-effect1312"
       is_visible="true"
       lpeversion="1" />
  </defs>
  <g
     inkscape:label="Layer 1"
     inkscape:groupmode="layer"
     id="layer1">
    <path
       style="fill:#000000;stroke:#000000;stroke-width:5.12832;stroke-linecap:round;stroke-linejoin:round;stroke-miterlimit:4;stroke-dasharray:none;stroke-opacity:0.955017;paint-order:stroke markers fill"
       d=""
       id="path1507"
       transform="scale(0.26458333)" />
    <path
       style="fill:#000000;stroke:#000000;stroke-width:5.12832;stroke-linecap:round;stroke-linejoin:round;stroke-miterlimit:4;stroke-dasharray:none;stroke-opacity:0.955017;paint-order:stroke markers fill"
       d=""
       id="path1622"
       transform="scale(0.26458333)" />
    <path
       style="fill:#000000;stroke:#000000;stroke-width:5.12832;stroke-linecap:round;stroke-linejoin:round;stroke-miterlimit:4;stroke-dasharray:none;stroke-opacity:0.955017;paint-order:stroke markers fill"
       d=""
       id="path1973"
       transform="scale(0.26458333)" />
    <path
       style="fill:#ffffff;stroke:#000000;stroke-width:3.3948;stroke-linecap:round;stroke-linejoin:round;stroke-opacity:0.955017;paint-order:stroke markers fill"
       d=""
       id="path1530"
       transform="scale(0.26458333)" />
    <path
       style="fill:#ffffff;stroke:#000000;stroke-width:1.36949;stroke-linecap:round;stroke-linejoin:round;stroke-opacity:0.955017;paint-order:stroke markers fill"
       d=""
       id="path1047"
       transform="scale(0.26458333)" />
    <path
       style="fill:#ffffff;stroke:#000000;stroke-width:1.36949;stroke-linecap:round;stroke-linejoin:round;stroke-opacity:0.955017;paint-order:stroke markers fill"
       d=""
       id="path1086"
       transform="scale(0.26458333)" />
    <g
       id="g1569" />
    <g
       id="g1793" />
    <path
       id="path2581"
       style="color:#000000;fill:#000000;stroke-width:4.254;stroke-miterlimit:4;stroke-dasharray:none"
       d="m 63.622957,7.0069826 c -0.892937,0.128504 -1.747002,0.488619 -2.45425,1.033686 -0.707244,0.545067 -1.262435,1.271494 -1.594559,2.0871324 -0.124871,0.306657 -0.218385,0.624719 -0.279085,0.949192 l 0.411615,0.07291 c 0.05577,-0.298134 0.14191,-0.591112 0.256643,-0.872876 0.304676,-0.7482254 0.816045,-1.4181274 1.464837,-1.9181454 0.648791,-0.500017 1.436671,-0.83199 2.255804,-0.949873 z m -56.1321914,0.18466 -0.06101,0.402026 c 0.819131,0.117886 1.607019,0.449857 2.255806,0.949874 0.6487884,0.500017 1.1601644,1.169922 1.4648374,1.9181454 0.114732,0.281764 0.200874,0.574741 0.256644,0.872875 l 0.411613,-0.07291 C 11.757956,10.93718 11.664441,10.619118 11.539572,10.312461 11.20745,9.4968246 10.652253,8.7703956 9.9450116,8.2253286 9.2377696,7.6802616 8.3836946,7.3201496 7.4907616,7.1916426 Z m 2.9058314,-1.853412 c -2.3853834,0 -4.3131684,1.872634 -4.3131684,4.190618 V 64.723052 c 0,2.31798 1.927785,4.19061 4.3131684,4.19061 h 50.100348 c 2.385383,0 4.313168,-1.87263 4.313168,-4.19061 V 9.5288486 c 0,-2.317984 -1.927785,-4.190618 -4.313168,-4.190618 z m 0,0.440867 h 50.100348 c 2.141633,0 3.858783,1.66863 3.858783,3.749751 V 64.723052 c 0,2.08112 -1.71715,3.74906 -3.858783,3.74906 h -2.295074 c 1.592975,-0.61548 2.723516,-2.10953 2.723516,-3.87921 v -0.2603 c 0,-0.29179 -0.112241,-0.54761 -0.170395,-0.82245 a 0.22708119,0.22066503 0 0 0 0.06872,-0.14514 l 0.319052,-7.53903 c 0.0159,-0.16441 0.05049,-0.32344 0.05049,-0.49197 v -0.70865 l 0.03228,-0.76317 a 0.22708119,0.22066503 0 0 0 -0.03228,-0.11857 V 14.882621 c 0,-2.903908 -2.413107,-5.2488354 -5.401452,-5.2488354 h -40.42219 c -2.988343,0 -5.4014524,2.3449274 -5.4014524,5.2488354 v 40.451391 c 0,0.41524 0.06167,0.81417 0.1549684,1.20132 l -0.2881994,6.81128 a 0.22708119,0.22066503 0 0 0 0.2173764,0.22964 0.22708119,0.22066503 0 0 0 0.07854,-0.028 c -0.05301,0.26297 -0.1626814,0.50603 -0.1626814,0.78429 v 0.2603 c 0,1.76969 1.1305394,3.26373 2.7235154,3.87922 h -2.295074 c -2.1416334,0 -3.8587814,-1.66795 -3.8587814,-3.74907 V 9.5288486 c 0,-2.081121 1.717148,-3.749751 3.8587814,-3.749751 z m 4.973011,4.2962364 h 40.42219 c 2.744595,0 4.947067,2.140241 4.947067,4.807287 v 39.741371 l -0.05119,1.20336 c -0.2554,2.42923 -2.325354,4.31395 -4.895877,4.31395 h -40.42219 c -2.333765,0 -4.260968,-1.55342 -4.789994,-3.6564 l 0.110792,-2.62271 a 0.22708119,0.22066503 0 0 0 -0.218077,-0.229637 0.22708119,0.22066503 0 0 0 -0.04979,0.01772 V 14.882621 c 0,-2.667045 2.202473,-4.807287 4.947066,-4.807287 z m 12.726335,13.617124 c -2.988345,0 -5.401452,2.344928 -5.401452,5.248838 v 9.860559 c 0,2.90391 2.413107,5.248835 5.401452,5.248835 h 17.916723 c 2.988345,0 5.401452,-2.344925 5.401452,-5.248835 v -9.860559 c 0,-2.90391 -2.413107,-5.248838 -5.401452,-5.248838 z m 0,0.44155 h 17.916723 c 2.744595,0 4.947067,2.140241 4.947067,4.807288 v 9.860559 c 0,2.66705 -2.202472,4.807285 -4.947067,4.807285 H 28.095943 c -2.744595,0 -4.947065,-2.140235 -4.947065,-4.807285 v -9.860559 c 0,-2.667047 2.20247,-4.807288 4.947065,-4.807288 z M 10.53123,57.627612 c 0.621662,1.23787 1.721388,2.19051 3.075526,2.64588 -1.473822,0.2339 -2.719772,1.11611 -3.289396,2.4108 z m 50.079313,0.0361 -0.201949,4.77799 c -0.588282,-1.11133 -1.661947,-1.8798 -2.959825,-2.13619 1.388286,-0.43586 2.520501,-1.38991 3.161774,-2.6418 z m -46.329219,2.91913 h 1.088284 40.42219 0.820422 c 2.141632,0 3.858782,1.66863 3.858782,3.74975 v 0.2603 c 0,2.08112 -1.71715,3.74907 -3.858782,3.74907 H 14.281324 c -2.141632,0 -3.858782,-1.66795 -3.858782,-3.74907 v -0.2603 c 0,-2.08112 1.71715,-3.74975 3.858782,-3.74975 z m 41.460688,0.35569 c -0.989424,-1e-5 -1.801419,0.76919 -1.801419,1.71781 0,0.85013 0.663626,1.52384 1.511118,1.66126 -0.847532,0.13739 -1.511118,0.8111 -1.511118,1.66125 0,0.94863 0.811995,1.71783 1.801419,1.71782 0.989425,10e-6 1.80072,-0.76919 1.80072,-1.71782 0,-0.85006 -0.663023,-1.52375 -1.510418,-1.66125 0.847355,-0.13753 1.510418,-0.81122 1.510418,-1.66126 0,-0.94862 -0.811295,-1.71782 -1.80072,-1.71781 z m -39.886463,0.12606 c -0.989419,0 -1.801419,0.76851 -1.801419,1.71713 0,0.84988 0.663289,1.52354 1.510415,1.66126 -0.847192,0.13766 -1.510415,0.81201 -1.510415,1.66193 0,0.94863 0.812,1.71782 1.801419,1.71782 0.98942,0 1.800719,-0.76919 1.800718,-1.71782 1e-6,-0.84982 -0.66266,-1.52416 -1.509714,-1.66193 0.846988,-0.13783 1.509715,-0.81147 1.509714,-1.66126 1e-6,-0.94862 -0.811298,-1.71713 -1.800718,-1.71713 z m 4.939353,0 c -0.98942,0 -1.801419,0.76851 -1.801419,1.71713 0,0.84988 0.663288,1.52354 1.510415,1.66126 -0.847193,0.13766 -1.510415,0.81201 -1.510415,1.66193 0,0.94863 0.811999,1.71782 1.801419,1.71782 0.989419,0 1.800718,-0.76919 1.800718,-1.71782 0,-0.84982 -0.66266,-1.52416 -1.509714,-1.66193 0.846988,-0.13783 1.509714,-0.81147 1.509714,-1.66126 0,-0.94862 -0.811299,-1.71713 -1.800718,-1.71713 z m 4.559294,0 c -0.989419,0 -1.800718,0.76851 -1.800717,1.71713 -1e-6,0.84979 0.662726,1.52343 1.509714,1.66126 -0.847055,0.13777 -1.509715,0.81211 -1.509714,1.66193 -1e-6,0.94863 0.811298,1.71782 1.800717,1.71782 0.98942,0 1.80142,-0.76919 1.80142,-1.71782 0,-0.84992 -0.663223,-1.52427 -1.510416,-1.66193 0.847127,-0.13772 1.510416,-0.81138 1.510416,-1.66126 0,-0.94862 -0.812,-1.71713 -1.80142,-1.71713 z m 4.939353,0 c -0.989419,0 -1.800718,0.76851 -1.800718,1.71713 0,0.84979 0.662726,1.52343 1.509714,1.66126 -0.847054,0.13777 -1.509714,0.81211 -1.509714,1.66193 0,0.94863 0.811299,1.71782 1.800718,1.71782 0.989419,0 1.801419,-0.76919 1.801419,-1.71782 0,-0.84992 -0.663222,-1.52427 -1.510415,-1.66193 0.847126,-0.13772 1.510415,-0.81138 1.510415,-1.66126 0,-0.94862 -0.812,-1.71713 -1.801419,-1.71713 z m 5.069077,0.0327 c -0.989415,0 -1.80142,0.76919 -1.801419,1.71781 -1e-6,0.84992 0.663226,1.52428 1.510415,1.66194 -0.847123,0.13772 -1.510416,0.81138 -1.510415,1.66126 -1e-6,0.94861 0.812004,1.7178 1.801419,1.71781 0.989421,0 1.800716,-0.76919 1.800716,-1.71781 0,-0.84979 -0.662721,-1.52343 -1.509711,-1.66126 0.847054,-0.13777 1.509711,-0.81211 1.509711,-1.66194 0,-0.94862 -0.811295,-1.71781 -1.800716,-1.71781 z m 5.319412,0 c -0.98942,0 -1.80142,0.76919 -1.80142,1.71781 0,0.84993 0.663221,1.52428 1.510415,1.66194 -0.847126,0.13771 -1.510415,0.81138 -1.510415,1.66126 0,0.94862 0.812,1.71781 1.80142,1.71781 0.989421,0 1.800716,-0.76919 1.800716,-1.71781 0,-0.84979 -0.662725,-1.52343 -1.509714,-1.66126 0.847057,-0.13777 1.509714,-0.81211 1.509714,-1.66194 0,-0.94862 -0.811295,-1.71781 -1.800716,-1.71781 z m 4.719871,0.0974 c -0.989421,0 -1.80072,0.76851 -1.80072,1.71713 0,0.85006 0.663031,1.52444 1.510419,1.66194 -0.847349,0.13753 -1.510419,0.81123 -1.510419,1.66126 0,0.94861 0.811299,1.71781 1.80072,1.71781 0.989421,0 1.80142,-0.76919 1.80142,-1.71781 0,-0.85013 -0.663627,-1.52384 -1.511119,-1.66126 0.847532,-0.13739 1.511119,-0.81178 1.511119,-1.66194 0,-0.94862 -0.811999,-1.71714 -1.80142,-1.71713 z m 5.020691,0.11311 c -0.98942,0 -1.801416,0.76919 -1.801416,1.71781 0,0.85039 0.663953,1.52414 1.511815,1.66126 -0.847862,0.13712 -1.511815,0.81087 -1.511815,1.66126 0,0.94862 0.811996,1.71782 1.801416,1.71781 0.989425,10e-6 1.80072,-0.76919 1.80072,-1.71781 0,-0.85052 -0.663759,-1.5243 -1.511818,-1.66126 0.848059,-0.13696 1.511818,-0.81073 1.511818,-1.66126 0,-0.94862 -0.811295,-1.71781 -1.80072,-1.71781 z m 5.319412,0.0722 c 0.749196,0 1.347032,0.57134 1.347032,1.27627 0,0.70492 -0.597836,1.27626 -1.347032,1.27626 -0.749195,0 -1.347031,-0.57134 -1.347031,-1.27626 0,-0.70493 0.597836,-1.27627 1.347031,-1.27627 z m -39.886463,0.12538 c 0.749194,0 1.346332,0.57134 1.346332,1.27626 0,0.70493 -0.597138,1.27695 -1.346332,1.27695 -0.749193,0 -1.347032,-0.57202 -1.347032,-1.27695 0,-0.70492 0.597839,-1.27626 1.347032,-1.27626 z m 4.939353,0 c 0.749194,0 1.347032,0.57134 1.347032,1.27626 0,0.70493 -0.597838,1.27695 -1.347032,1.27695 -0.749194,0 -1.347033,-0.57202 -1.347032,-1.27695 -1e-6,-0.70492 0.597838,-1.27626 1.347032,-1.27626 z m 4.559294,0 c 0.749194,0 1.347033,0.57134 1.347033,1.27626 0,0.70493 -0.597839,1.27695 -1.347033,1.27695 -0.749193,0 -1.347032,-0.57202 -1.347032,-1.27695 0,-0.70492 0.597839,-1.27626 1.347032,-1.27626 z m 4.939353,0 c 0.749194,0 1.347032,0.57134 1.347032,1.27626 0,0.70493 -0.597838,1.27695 -1.347032,1.27695 -0.749194,0 -1.346331,-0.57202 -1.346331,-1.27695 0,-0.70492 0.597137,-1.27626 1.346331,-1.27626 z m 5.069077,0.0334 c 0.749196,0 1.347032,0.57134 1.347032,1.27626 0,0.70493 -0.597836,1.27627 -1.347032,1.27627 -0.749191,-1e-5 -1.347033,-0.57135 -1.347032,-1.27627 -10e-7,-0.70492 0.597841,-1.27626 1.347032,-1.27626 z m 5.319412,0 c 0.749196,-10e-6 1.347031,0.57134 1.347031,1.27626 0,0.70493 -0.597835,1.27627 -1.347031,1.27627 -0.749195,0 -1.347035,-0.57135 -1.347035,-1.27627 0,-0.70492 0.59784,-1.27626 1.347035,-1.27626 z m 4.719871,0.0968 c 0.749196,-10e-6 1.347031,0.57134 1.347031,1.27626 0,0.70493 -0.597835,1.27695 -1.347031,1.27695 -0.749192,0 -1.347031,-0.57202 -1.347031,-1.27695 0,-0.70492 0.597839,-1.27626 1.347031,-1.27626 z m 5.020691,0.11311 c 0.7492,-10e-6 1.347035,0.57202 1.347035,1.27694 0,0.70493 -0.597835,1.27628 -1.347035,1.27627 -0.749195,1e-5 -1.347031,-0.57134 -1.347031,-1.27627 0,-0.70492 0.597836,-1.27695 1.347031,-1.27694 z m 5.319412,2.95387 c 0.749196,0 1.347032,0.57134 1.347032,1.27627 0,0.70493 -0.597836,1.27695 -1.347032,1.27694 -0.749195,1e-5 -1.347031,-0.57201 -1.347031,-1.27694 0,-0.70493 0.597836,-1.27627 1.347031,-1.27627 z m -39.886463,0.12608 c 0.749194,0 1.346332,0.57134 1.346332,1.27626 0,0.70493 -0.597138,1.27627 -1.346332,1.27627 -0.749193,0 -1.347032,-0.57134 -1.347032,-1.27627 0,-0.70492 0.597839,-1.27626 1.347032,-1.27626 z m 4.939353,0 c 0.749194,0 1.347032,0.57134 1.347032,1.27626 0,0.70493 -0.597838,1.27627 -1.347032,1.27627 -0.749194,0 -1.347033,-0.57134 -1.347032,-1.27627 -1e-6,-0.70492 0.597838,-1.27626 1.347032,-1.27626 z m 4.559294,0 c 0.749194,0 1.347033,0.57134 1.347033,1.27626 0,0.70493 -0.597839,1.27627 -1.347033,1.27627 -0.749193,0 -1.347032,-0.57134 -1.347032,-1.27627 0,-0.70492 0.597839,-1.27626 1.347032,-1.27626 z m 4.939353,0 c 0.749194,0 1.347032,0.57134 1.347032,1.27626 0,0.70493 -0.597838,1.27627 -1.347032,1.27627 -0.749194,0 -1.346331,-0.57134 -1.346331,-1.27627 0,-0.70492 0.597137,-1.27626 1.346331,-1.27626 z m 5.069077,0.0334 c 0.749196,0 1.347032,0.57134 1.347032,1.27627 0,0.70492 -0.597836,1.27626 -1.347032,1.27626 -0.749191,0 -1.347033,-0.57134 -1.347032,-1.27626 -10e-7,-0.70493 0.597841,-1.27626 1.347032,-1.27627 z m 5.319412,0 c 0.749196,0 1.347031,0.57134 1.347031,1.27627 0,0.70492 -0.597835,1.27626 -1.347031,1.27626 -0.749195,0 -1.347035,-0.57134 -1.347035,-1.27626 0,-0.70493 0.59784,-1.27627 1.347035,-1.27627 z m 4.719871,0.0968 c 0.749196,0 1.347031,0.57134 1.347031,1.27626 0,0.70493 -0.597835,1.27627 -1.347031,1.27627 -0.749192,0 -1.347031,-0.57134 -1.347031,-1.27627 0,-0.70492 0.597839,-1.27626 1.347031,-1.27626 z m 5.020691,0.11311 c 0.7492,0 1.347035,0.57134 1.347035,1.27627 0,0.70492 -0.597835,1.27626 -1.347035,1.27626 -0.749195,0 -1.347031,-0.57134 -1.347031,-1.27626 0,-0.70493 0.597836,-1.27627 1.347031,-1.27627 z" />
    <path
       id="path2618"
       style="color:#000000;fill:#000000;stroke-width:5.154;stroke-miterlimit:4;stroke-dasharray:none"
       d="m 63.622957,7.0069826 c -0.892937,0.128504 -1.747002,0.488619 -2.45425,1.033686 -0.707244,0.545067 -1.262435,1.271494 -1.594559,2.0871324 -0.124871,0.306657 -0.218385,0.624719 -0.279085,0.949192 l 0.411615,0.07291 c 0.05577,-0.298134 0.14191,-0.591112 0.256643,-0.872876 0.304676,-0.7482254 0.816045,-1.4181274 1.464837,-1.9181454 0.648791,-0.500017 1.436671,-0.83199 2.255804,-0.949873 z m -56.1321914,0.18466 -0.06101,0.402026 c 0.819131,0.117886 1.607019,0.449857 2.255806,0.949874 0.6487884,0.500017 1.1601644,1.169922 1.4648374,1.9181454 0.114732,0.281764 0.200874,0.574741 0.256644,0.872875 l 0.411613,-0.07291 C 11.757956,10.93718 11.664441,10.619118 11.539572,10.312461 11.20745,9.4968246 10.652253,8.7703956 9.9450116,8.2253286 9.2377696,7.6802616 8.3836946,7.3201496 7.4907616,7.1916426 Z m 2.9058314,-1.853412 c -2.3853834,0 -4.3131684,1.872634 -4.3131684,4.190618 V 64.723052 c 0,2.31798 1.927785,4.19061 4.3131684,4.19061 h 50.100348 c 2.385383,0 4.313168,-1.87263 4.313168,-4.19061 V 9.5288486 c 0,-2.317984 -1.927785,-4.190618 -4.313168,-4.190618 z m 0,0.440867 h 50.100348 c 2.141633,0 3.858783,1.66863 3.858783,3.749751 V 64.723052 c 0,2.08112 -1.71715,3.74906 -3.858783,3.74906 h -2.295074 c 1.592975,-0.61548 2.723516,-2.10953 2.723516,-3.87921 v -0.2603 c 0,-0.29179 -0.112241,-0.54761 -0.170395,-0.82245 a 0.22708119,0.22066503 0 0 0 0.06872,-0.14514 l 0.319052,-7.53903 c 0.0159,-0.16441 0.05049,-0.32344 0.05049,-0.49197 v -0.70865 l 0.03228,-0.76317 a 0.22708119,0.22066503 0 0 0 -0.03228,-0.11857 V 14.882621 c 0,-2.903908 -2.413107,-5.2488354 -5.401452,-5.2488354 h -40.42219 c -2.988343,0 -5.4014524,2.3449274 -5.4014524,5.2488354 v 40.451391 c 0,0.41524 0.06167,0.81417 0.1549684,1.20132 l -0.2881994,6.81128 a 0.22708119,0.22066503 0 0 0 0.2173764,0.22964 0.22708119,0.22066503 0 0 0 0.07854,-0.028 c -0.05301,0.26297 -0.1626814,0.50603 -0.1626814,0.78429 v 0.2603 c 0,1.76969 1.1305394,3.26373 2.7235154,3.87922 h -2.295074 c -2.1416334,0 -3.8587814,-1.66795 -3.8587814,-3.74907 V 9.5288486 c 0,-2.081121 1.717148,-3.749751 3.8587814,-3.749751 z m 4.973011,4.2962364 h 40.42219 c 2.744595,0 4.947067,2.140241 4.947067,4.807287 v 39.741371 l -0.05119,1.20336 c -0.2554,2.42923 -2.325354,4.31395 -4.895877,4.31395 h -40.42219 c -2.333765,0 -4.260968,-1.55342 -4.789994,-3.6564 l 0.110792,-2.62271 a 0.22708119,0.22066503 0 0 0 -0.218077,-0.229637 0.22708119,0.22066503 0 0 0 -0.04979,0.01772 V 14.882621 c 0,-2.667045 2.202473,-4.807287 4.947066,-4.807287 z m 12.726335,13.617124 c -2.988345,0 -5.401452,2.344928 -5.401452,5.248838 v 9.860559 c 0,2.90391 2.413107,5.248835 5.401452,5.248835 h 17.916723 c 2.988345,0 5.401452,-2.344925 5.401452,-5.248835 v -9.860559 c 0,-2.90391 -2.413107,-5.248838 -5.401452,-5.248838 z m 0,0.44155 h 17.916723 c 2.744595,0 4.947067,2.140241 4.947067,4.807288 v 9.860559 c 0,2.66705 -2.202472,4.807285 -4.947067,4.807285 H 28.095943 c -2.744595,0 -4.947065,-2.140235 -4.947065,-4.807285 v -9.860559 c 0,-2.667047 2.20247,-4.807288 4.947065,-4.807288 z M 10.53123,57.627612 c 0.621662,1.23787 1.721388,2.19051 3.075526,2.64588 -1.473822,0.2339 -2.719772,1.11611 -3.289396,2.4108 z m 50.079313,0.0361 -0.201949,4.77799 c -0.588282,-1.11133 -1.661947,-1.8798 -2.959825,-2.13619 1.388286,-0.43586 2.520501,-1.38991 3.161774,-2.6418 z m -46.329219,2.91913 h 1.088284 40.42219 0.820422 c 2.141632,0 3.858782,1.66863 3.858782,3.74975 v 0.2603 c 0,2.08112 -1.71715,3.74907 -3.858782,3.74907 H 14.281324 c -2.141632,0 -3.858782,-1.66795 -3.858782,-3.74907 v -0.2603 c 0,-2.08112 1.71715,-3.74975 3.858782,-3.74975 z m 41.460688,0.35569 c -0.989424,-1e-5 -1.801419,0.76919 -1.801419,1.71781 0,0.85013 0.663626,1.52384 1.511118,1.66126 -0.847532,0.13739 -1.511118,0.8111 -1.511118,1.66125 0,0.94863 0.811995,1.71783 1.801419,1.71782 0.989425,10e-6 1.80072,-0.76919 1.80072,-1.71782 0,-0.85006 -0.663023,-1.52375 -1.510418,-1.66125 0.847355,-0.13753 1.510418,-0.81122 1.510418,-1.66126 0,-0.94862 -0.811295,-1.71782 -1.80072,-1.71781 z m -39.886463,0.12606 c -0.989419,0 -1.801419,0.76851 -1.801419,1.71713 0,0.84988 0.663289,1.52354 1.510415,1.66126 -0.847192,0.13766 -1.510415,0.81201 -1.510415,1.66193 0,0.94863 0.812,1.71782 1.801419,1.71782 0.98942,0 1.800719,-0.76919 1.800718,-1.71782 1e-6,-0.84982 -0.66266,-1.52416 -1.509714,-1.66193 0.846988,-0.13783 1.509715,-0.81147 1.509714,-1.66126 1e-6,-0.94862 -0.811298,-1.71713 -1.800718,-1.71713 z m 4.939353,0 c -0.98942,0 -1.801419,0.76851 -1.801419,1.71713 0,0.84988 0.663288,1.52354 1.510415,1.66126 -0.847193,0.13766 -1.510415,0.81201 -1.510415,1.66193 0,0.94863 0.811999,1.71782 1.801419,1.71782 0.989419,0 1.800718,-0.76919 1.800718,-1.71782 0,-0.84982 -0.66266,-1.52416 -1.509714,-1.66193 0.846988,-0.13783 1.509714,-0.81147 1.509714,-1.66126 0,-0.94862 -0.811299,-1.71713 -1.800718,-1.71713 z m 4.559294,0 c -0.989419,0 -1.800718,0.76851 -1.800717,1.71713 -1e-6,0.84979 0.662726,1.52343 1.509714,1.66126 -0.847055,0.13777 -1.509715,0.81211 -1.509714,1.66193 -1e-6,0.94863 0.811298,1.71782 1.800717,1.71782 0.98942,0 1.80142,-0.76919 1.80142,-1.71782 0,-0.84992 -0.663223,-1.52427 -1.510416,-1.66193 0.847127,-0.13772 1.510416,-0.81138 1.510416,-1.66126 0,-0.94862 -0.812,-1.71713 -1.80142,-1.71713 z m 4.939353,0 c -0.989419,0 -1.800718,0.76851 -1.800718,1.71713 0,0.84979 0.662726,1.52343 1.509714,1.66126 -0.847054,0.13777 -1.509714,0.81211 -1.509714,1.66193 0,0.94863 0.811299,1.71782 1.800718,1.71782 0.989419,0 1.801419,-0.76919 1.801419,-1.71782 0,-0.84992 -0.663222,-1.52427 -1.510415,-1.66193 0.847126,-0.13772 1.510415,-0.81138 1.510415,-1.66126 0,-0.94862 -0.812,-1.71713 -1.801419,-1.71713 z m 5.069077,0.0327 c -0.989415,0 -1.80142,0.76919 -1.801419,1.71781 -1e-6,0.84992 0.663226,1.52428 1.510415,1.66194 -0.847123,0.13772 -1.510416,0.81138 -1.510415,1.66126 -1e-6,0.94861 0.812004,1.7178 1.801419,1.71781 0.989421,0 1.800716,-0.76919 1.800716,-1.71781 0,-0.84979 -0.662721,-1.52343 -1.509711,-1.66126 0.847054,-0.13777 1.509711,-0.81211 1.509711,-1.66194 0,-0.94862 -0.811295,-1.71781 -1.800716,-1.71781 z m 5.319412,0 c -0.98942,0 -1.80142,0.76919 -1.80142,1.71781 0,0.84993 0.663221,1.52428 1.510415,1.66194 -0.847126,0.13771 -1.510415,0.81138 -1.510415,1.66126 0,0.94862 0.812,1.71781 1.80142,1.71781 0.989421,0 1.800716,-0.76919 1.800716,-1.71781 0,-0.84979 -0.662725,-1.52343 -1.509714,-1.66126 0.847057,-0.13777 1.509714,-0.81211 1.509714,-1.66194 0,-0.94862 -0.811295,-1.71781 -1.800716,-1.71781 z m 4.719871,0.0974 c -0.989421,0 -1.80072,0.76851 -1.80072,1.71713 0,0.85006 0.663031,1.52444 1.510419,1.66194 -0.847349,0.13753 -1.510419,0.81123 -1.510419,1.66126 0,0.94861 0.811299,1.71781 1.80072,1.71781 0.989421,0 1.80142,-0.76919 1.80142,-1.71781 0,-0.85013 -0.663627,-1.52384 -1.511119,-1.66126 0.847532,-0.13739 1.511119,-0.81178 1.511119,-1.66194 0,-0.94862 -0.811999,-1.71714 -1.80142,-1.71713 z m 5.020691,0.11311 c -0.98942,0 -1.801416,0.76919 -1.801416,1.71781 0,0.85039 0.663953,1.52414 1.511815,1.66126 -0.847862,0.13712 -1.511815,0.81087 -1.511815,1.66126 0,0.94862 0.811996,1.71782 1.801416,1.71781 0.989425,10e-6 1.80072,-0.76919 1.80072,-1.71781 0,-0.85052 -0.663759,-1.5243 -1.511818,-1.66126 0.848059,-0.13696 1.511818,-0.81073 1.511818,-1.66126 0,-0.94862 -0.811295,-1.71781 -1.80072,-1.71781 z m 5.319412,0.0722 c 0.749196,0 1.347032,0.57134 1.347032,1.27627 0,0.70492 -0.597836,1.27626 -1.347032,1.27626 -0.749195,0 -1.347031,-0.57134 -1.347031,-1.27626 0,-0.70493 0.597836,-1.27627 1.347031,-1.27627 z m -39.886463,0.12538 c 0.749194,0 1.346332,0.57134 1.346332,1.27626 0,0.70493 -0.597138,1.27695 -1.346332,1.27695 -0.749193,0 -1.347032,-0.57202 -1.347032,-1.27695 0,-0.70492 0.597839,-1.27626 1.347032,-1.27626 z m 4.939353,0 c 0.749194,0 1.347032,0.57134 1.347032,1.27626 0,0.70493 -0.597838,1.27695 -1.347032,1.27695 -0.749194,0 -1.347033,-0.57202 -1.347032,-1.27695 -1e-6,-0.70492 0.597838,-1.27626 1.347032,-1.27626 z m 4.559294,0 c 0.749194,0 1.347033,0.57134 1.347033,1.27626 0,0.70493 -0.597839,1.27695 -1.347033,1.27695 -0.749193,0 -1.347032,-0.57202 -1.347032,-1.27695 0,-0.70492 0.597839,-1.27626 1.347032,-1.27626 z m 4.939353,0 c 0.749194,0 1.347032,0.57134 1.347032,1.27626 0,0.70493 -0.597838,1.27695 -1.347032,1.27695 -0.749194,0 -1.346331,-0.57202 -1.346331,-1.27695 0,-0.70492 0.597137,-1.27626 1.346331,-1.27626 z m 5.069077,0.0334 c 0.749196,0 1.347032,0.57134 1.347032,1.27626 0,0.70493 -0.597836,1.27627 -1.347032,1.27627 -0.749191,-1e-5 -1.347033,-0.57135 -1.347032,-1.27627 -10e-7,-0.70492 0.597841,-1.27626 1.347032,-1.27626 z m 5.319412,0 c 0.749196,-10e-6 1.347031,0.57134 1.347031,1.27626 0,0.70493 -0.597835,1.27627 -1.347031,1.27627 -0.749195,0 -1.347035,-0.57135 -1.347035,-1.27627 0,-0.70492 0.59784,-1.27626 1.347035,-1.27626 z m 4.719871,0.0968 c 0.749196,-10e-6 1.347031,0.57134 1.347031,1.27626 0,0.70493 -0.597835,1.27695 -1.347031,1.27695 -0.749192,0 -1.347031,-0.57202 -1.347031,-1.27695 0,-0.70492 0.597839,-1.27626 1.347031,-1.27626 z m 5.020691,0.11311 c 0.7492,-10e-6 1.347035,0.57202 1.347035,1.27694 0,0.70493 -0.597835,1.27628 -1.347035,1.27627 -0.749195,1e-5 -1.347031,-0.57134 -1.347031,-1.27627 0,-0.70492 0.597836,-1.27695 1.347031,-1.27694 z m 5.319412,2.95387 c 0.749196,0 1.347032,0.57134 1.347032,1.27627 0,0.70493 -0.597836,1.27695 -1.347032,1.27694 -0.749195,1e-5 -1.347031,-0.57201 -1.347031,-1.27694 0,-0.70493 0.597836,-1.27627 1.347031,-1.27627 z m -39.886463,0.12608 c 0.749194,0 1.346332,0.57134 1.346332,1.27626 0,0.70493 -0.597138,1.27627 -1.346332,1.27627 -0.749193,0 -1.347032,-0.57134 -1.347032,-1.27627 0,-0.70492 0.597839,-1.27626 1.347032,-1.27626 z m 4.939353,0 c 0.749194,0 1.347032,0.57134 1.347032,1.27626 0,0.70493 -0.597838,1.27627 -1.347032,1.27627 -0.749194,0 -1.347033,-0.57134 -1.347032,-1.27627 -1e-6,-0.70492 0.597838,-1.27626 1.347032,-1.27626 z m 4.559294,0 c 0.749194,0 1.347033,0.57134 1.347033,1.27626 0,0.70493 -0.597839,1.27627 -1.347033,1.27627 -0.749193,0 -1.347032,-0.57134 -1.347032,-1.27627 0,-0.70492 0.597839,-1.27626 1.347032,-1.27626 z m 4.939353,0 c 0.749194,0 1.347032,0.57134 1.347032,1.27626 0,0.70493 -0.597838,1.27627 -1.347032,1.27627 -0.749194,0 -1.346331,-0.57134 -1.346331,-1.27627 0,-0.70492 0.597137,-1.27626 1.346331,-1.27626 z m 5.069077,0.0334 c 0.749196,0 1.347032,0.57134 1.347032,1.27627 0,0.70492 -0.597836,1.27626 -1.347032,1.27626 -0.749191,0 -1.347033,-0.57134 -1.347032,-1.27626 -10e-7,-0.70493 0.597841,-1.27626 1.347032,-1.27627 z m 5.319412,0 c 0.749196,0 1.347031,0.57134 1.347031,1.27627 0,0.70492 -0.597835,1.27626 -1.347031,1.27626 -0.749195,0 -1.347035,-0.57134 -1.347035,-1.27626 0,-0.70493 0.59784,-1.27627 1.347035,-1.27627 z m 4.719871,0.0968 c 0.749196,0 1.347031,0.57134 1.347031,1.27626 0,0.70493 -0.597835,1.27627 -1.347031,1.27627 -0.749192,0 -1.347031,-0.57134 -1.347031,-1.27627 0,-0.70492 0.597839,-1.27626 1.347031,-1.27626 z m 5.020691,0.11311 c 0.7492,0 1.347035,0.57134 1.347035,1.27627 0,0.70492 -0.597835,1.27626 -1.347035,1.27626 -0.749195,0 -1.347031,-0.57134 -1.347031,-1.27626 0,-0.70493 0.597836,-1.27627 1.347031,-1.27627 z" />
  </g>
</svg>
