<?xml version="1.0" encoding="UTF-8" standalone="no"?>
<!-- Created with Inkscape (http://www.inkscape.org/) -->

<svg
   width="210mm"
   height="297mm"
   viewBox="0 0 210 297"
   version="1.1"
   id="svg5"
   inkscape:version="1.1.1 (3bf5ae0d25, 2021-09-20)"
   sodipodi:docname="blop plugin  icon.svg"
   xmlns:inkscape="http://www.inkscape.org/namespaces/inkscape"
   xmlns:sodipodi="http://sodipodi.sourceforge.net/DTD/sodipodi-0.dtd"
   xmlns="http://www.w3.org/2000/svg"
   xmlns:svg="http://www.w3.org/2000/svg">
  <sodipodi:namedview
     id="namedview7"
     pagecolor="#ffffff"
     bordercolor="#666666"
     borderopacity="1.0"
     inkscape:pageshadow="2"
     inkscape:pageopacity="0.0"
     inkscape:pagecheckerboard="0"
     inkscape:document-units="mm"
     showgrid="false"
     inkscape:zoom="0.96459612"
     inkscape:cx="396.02067"
     inkscape:cy="716.88035"
     inkscape:window-width="1680"
     inkscape:window-height="956"
     inkscape:window-x="-11"
     inkscape:window-y="-11"
     inkscape:window-maximized="1"
     inkscape:current-layer="layer1" />
  <defs
     id="defs2" />
  <g
     inkscape:label="Layer 1"
     inkscape:groupmode="layer"
     id="layer1">
    <path
       id="rect1536"
       style="fill:none;stroke:#000000;stroke-width:0.731;stroke-linecap:round;stroke-linejoin:round;stroke-opacity:0.955017;paint-order:stroke markers fill;stroke-miterlimit:4;stroke-dasharray:none"
       d="m 156.83156,128.51068 h 4.36073 v 1.8202 h -4.36073 z m -9.84735,1.94155 h 2.99454 v 7.15941 h -2.99454 z m -1.32276,-3.96971 h 4.64187 v 3.98658 h -4.64187 z m 4.51555,2.02816 h 6.65456 v 5.94596 H 150.177 Z m 17.33713,1.8202 h -7.65274 v 4.4898 h 7.65274 z m 0,-3.27635 h -6.32184 v 3.27635 h 6.32184 z m 7.32005,0 h -7.32005 v 5.94596 h 7.32005 z m -14.30735,-19.17267 h -7.09818 v 3.76173 h 7.09818 z m 4.65821,3.88308 h -5.87821 v 5.21788 h 5.87821 z m 0,-3.88308 h -4.65821 v 3.88308 h 4.65821 z m 4.88003,0 h -4.88003 v 7.6448 h 4.88003 z m 11.9782,7.40211 h -5.10181 v 4.61115 h 5.10181 z m 0.11087,10.79978 h -7.32001 v 6.91674 h 7.32001 z m -7.32001,-5.09652 h -4.32547 v 6.18864 h 4.32547 z m 4.76909,-1.09211 h -4.76909 v 6.18864 h 4.76909 z m -4.76909,-4.4898 h -6.32185 v 5.58191 h 6.32185 z m 2.10728,-0.12135 h -2.10728 v 4.61115 h 2.10728 z m 0.55454,-7.40211 h -7.43093 v 2.9123 h 7.43093 z m -0.55454,2.9123 h -3.21638 v 4.48981 h 3.21638 z m -37.60993,19.65807 h 7.65273 v 4.4898 h -7.65273 z m 0,-3.27634 h 6.32183 v 3.27634 h -6.32183 z m -7.32,0 h 7.32 v 5.94594 h -7.32 z m 14.30727,-19.17268 h 7.09819 v 3.76173 h -7.09819 z m -4.65818,3.88307 h 5.87818 v 5.21788 h -5.87818 z m 0,-3.88307 h 4.65818 v 3.88307 h -4.65818 z m -4.87999,0 h 4.87999 v 7.6448 h -4.88001 z m -11.97819,7.40211 h 5.10181 v 4.61115 h -5.10183 z m -0.11087,10.79978 h 7.32001 v 6.91673 h -7.32001 z m 7.32001,-5.09652 h 4.32546 v 6.18864 h -4.32546 z m -4.76909,-1.09211 h 4.76909 v 6.18864 h -4.76909 z m 4.76909,-4.48981 h 6.32182 v 5.58192 h -6.32182 z m -2.10728,-0.12134 h 2.10728 v 4.61115 h -2.10728 z m -0.55455,-7.40211 h 7.43091 v 2.9123 h -7.43091 z m 0.55455,2.9123 h 3.21636 v 4.48981 h -3.21636 z m -19.49952,16.60084 h 10.78464 v 9.85642 h -10.78464 z m -11.274847,2.36142 h 11.438247 v 3.79884 H 99.129883 Z m -10.363809,-3.2222 h 10.200419 v 8.86912 H 88.766074 Z m -13.273748,2.46411 h 13.437153 v 4.53299 H 75.492326 Z m 3.364324,-6.85926 h 6.043696 v 6.83537 H 78.85665 Z m -6.349575,-5.06322 h 15.415119 v 5.06322 H 72.507075 Z m 7.961226,-6.32906 h 5.237871 v 6.32906 h -5.237871 z m -3.932094,0 h 3.932094 v 6.32906 h -3.932094 z m 10e-7,-9.1138 h 7.45389 v 9.1138 h -7.45389 z m -4.529081,-6.961952 h 15.915067 v 6.961952 H 72.007127 Z m 6.043697,-8.860666 h 5.439326 v 8.860666 H 78.050824 Z M 18.023411,140.49414 h 8.037125 v 6.24481 h -8.037125 z m 12.099684,-8.43429 h 9.870481 v 6.60515 h -9.870481 z m 9.870485,1.73876 h 13.40441 v 7.07095 H 39.99358 Z m 13.363827,-5.39336 h 11.080976 v 10.66439 H 53.357407 Z m 4.289406,-6.46079 h 4.82559 v 6.37546 h -4.82559 z m -4.333266,-7.27433 h 10.544806 v 7.30278 H 53.313547 Z m -14.294759,-2.6661 H 53.31682 v 6.49137 H 39.018788 Z m -8.716968,-8.66428 h 9.870481 v 6.49459 H 30.30182 Z m 9.870485,1.70966 h 13.40441 V 112.002 H 40.172305 Z M 53.536132,99.746332 H 64.617113 V 110.23221 H 53.536132 Z m 4.289401,-6.352636 h 4.82559 v 6.268731 h -4.82559 z m -4.333261,-7.152577 h 10.544801 v 7.180545 H 53.492272 Z M 39.197513,83.619651 h 14.298031 v 6.382708 H 39.197513 Z M 16.182508,132.05985 h 13.940587 v 8.43429 H 16.182508 Z m -4.289411,-6.5743 h 20.91088 v 6.6603 h -20.91088 z m 2.680882,-10.59986 h 15.906565 v 10.59986 H 14.573979 Z m 3.217058,-7.53087 h 9.47245 v 7.52247 h -9.47245 z m -5.361768,-8.176271 h 17.872542 v 8.206341 H 12.429269 Z m 4.104132,-7.922444 h 9.472446 v 7.978382 H 16.533401 Z M 14.752704,83.61965 h 12.153331 v 7.636455 H 14.752704 Z m 0,-6.724636 h 8.757546 v 6.724637 h -8.757546 z m 12.153331,6.724637 h 12.291478 v 4.445102 H 26.906035 Z" />
  </g>
</svg>
