<?xml version="1.0" encoding="UTF-8" standalone="no"?>
<!-- Created with Inkscape (http://www.inkscape.org/) -->

<svg
   width="210mm"
   height="297mm"
   viewBox="0 0 210 297"
   version="1.1"
   id="svg5"
   inkscape:version="1.1.1 (3bf5ae0d25, 2021-09-20)"
   sodipodi:docname="blop plugin  icon.svg"
   xmlns:inkscape="http://www.inkscape.org/namespaces/inkscape"
   xmlns:sodipodi="http://sodipodi.sourceforge.net/DTD/sodipodi-0.dtd"
   xmlns="http://www.w3.org/2000/svg"
   xmlns:svg="http://www.w3.org/2000/svg">
  <sodipodi:namedview
     id="namedview7"
     pagecolor="#ffffff"
     bordercolor="#666666"
     borderopacity="1.0"
     inkscape:pageshadow="2"
     inkscape:pageopacity="0.0"
     inkscape:pagecheckerboard="0"
     inkscape:document-units="mm"
     showgrid="false"
     inkscape:zoom="1.3435675"
     inkscape:cx="713.77135"
     inkscape:cy="893.5167"
     inkscape:window-width="1680"
     inkscape:window-height="956"
     inkscape:window-x="-11"
     inkscape:window-y="-11"
     inkscape:window-maximized="1"
     inkscape:current-layer="layer1"
     showguides="false" />
  <defs
     id="defs2" />
  <g
     inkscape:label="Layer 1"
     inkscape:groupmode="layer"
     id="layer1">
    <path
       id="rect2331"
       style="fill:none;stroke:#000000;stroke-width:0.721592;stroke-linecap:round;stroke-linejoin:round;stroke-miterlimit:4;stroke-dasharray:none;stroke-opacity:0.955017;paint-order:stroke markers fill"
       d="m 75.1019,18.857087 h 0.947486 v 0.924427 H 75.1019 Z m 0,0 h 0.947486 v 0.924427 H 75.1019 Z m -0.41689,7.235617 h 1.364376 v 1.275953 H 74.68501 Z m 9.44123,-1.839288 c 0.221719,0 0.443432,0 0.665139,0 0,-0.322417 0,-0.644819 0,-0.967237 -0.221707,0 -0.44342,0 -0.665139,0 0,0.322418 0,0.64482 0,0.967237 z m -0.728502,1.469697 c 0.559569,0 1.119147,0 1.678721,0 0,-0.489904 0,-0.979793 0,-1.469697 -0.559574,0 -1.119152,0 -1.678721,0 0,0.489904 0,0.979793 0,1.469697 z m -0.570133,0 c 0.190044,0 0.380088,0 0.570133,0 0,-0.314041 0,-0.628068 0,-0.942124 -0.190045,0 -0.380089,0 -0.570133,0 0,0.314056 0,0.628083 0,0.942124 z m 0,1.281278 c 0.570133,0 1.14026,0 1.710393,0 0,-0.427108 0,-0.854185 0,-1.281278 -0.570133,0 -1.14026,0 -1.710393,0 0,0.427093 0,0.85417 0,1.281278 z m -2.153829,0 c 0.71794,0 1.435887,0 2.153829,0 0,-0.18848 0,-0.376868 0,-0.565302 -0.717942,0 -1.435889,0 -2.153829,0 0,0.18848 0,0.376868 0,0.565302 z m 0,0.288914 c 0.432879,0 0.865753,0 1.298632,0 0.04163,-0.234051 -0.02084,-0.349162 -0.236654,-0.288914 -0.353989,0 -0.707985,0 -1.061978,0 0,0.09642 0,0.192538 0,0.288914 z m -2.217172,0.527573 c 0.739056,0 1.478116,0 2.217172,0 0,-0.485724 0,-0.971417 0,-1.457156 -0.739056,0 -1.478116,0 -2.217172,0 0,0.485739 0,0.971432 0,1.457156 z m -2.407218,-0.452221 c 0.802403,0 1.60481,0 2.407218,0 0,-0.192538 0,-0.385198 0,-0.577827 -0.802408,0 -1.604815,0 -2.407218,0 0,0.192538 0,0.385213 0,0.577827 z m 8.076854,-5.049715 c 0.221719,0 0.443432,0 0.665139,0 0,0.322403 0,0.64482 0,0.967237 -0.221707,0 -0.44342,0 -0.665139,0 0,-0.322417 0,-0.644834 0,-0.967237 z M 83.397738,20.84923 c 0.559569,0 1.119147,0 1.678721,0 0,0.489904 0,0.979808 0,1.469712 -0.559574,0 -1.119152,0 -1.678721,0 0,-0.489904 0,-0.979808 0,-1.469712 z m -0.570133,0 c 0.190044,0 0.380088,0 0.570133,0 0,0.314072 0,0.628114 0,0.94214 -0.190045,0 -0.380089,0 -0.570133,0 0,-0.314026 0,-0.628068 0,-0.94214 z m 0,-1.281248 c 0.570133,0 1.14026,0 1.710393,0 0,0.427093 0,0.854171 0,1.281248 -0.570133,0 -1.14026,0 -1.710393,0 0,-0.427077 0,-0.854155 0,-1.281248 z m -2.153829,0 c 0.71794,0 1.435887,0 2.153829,0 0,0.18848 0,0.376838 0,0.565242 -0.717942,0 -1.435889,0 -2.153829,0 0,-0.188465 0,-0.376838 0,-0.565242 z m 0,-0.288913 c 0.432879,0 0.865753,0 1.298632,0 0.04163,0.234051 -0.02084,0.349131 -0.236654,0.288913 -0.353989,0 -0.707985,0 -1.061978,0 0,-0.09642 0,-0.192538 0,-0.288913 z m -2.217172,-0.527604 c 0.739056,0 1.478116,0 2.217172,0 0,0.485709 0,0.971433 0,1.457126 -0.739056,0 -1.478116,0 -2.217172,0 0,-0.485693 0,-0.971417 0,-1.457126 z m -2.407218,0.452236 c 0.802403,0 1.60481,0 2.407218,0 0,0.192538 0,0.385213 0,0.577813 -0.802408,0 -1.604815,0 -2.407218,0 0,-0.192538 0,-0.385229 0,-0.577813 z M 71.539378,18.857087 H 75.1019 v 3.769459 h -3.562522 z m 1.932855,16.767624 h 2.349755 v 4.85263 h -2.349755 z m -1.553865,0 h 1.553865 v 3.942758 h -1.553865 z m 0,-4.549376 h 2.766638 v 4.549376 H 71.918368 Z M 72.75215,28.82232 h 0.947483 v 2.253015 H 72.75215 Z m -1.099076,-2.729616 h 3.031936 v 2.686287 h -3.031936 z m 0.833781,-3.422845 h 1.288574 v 3.422845 h -1.288574 z m -13.165226,4.531312 h 1.698357 v 0.831346 h -1.698357 z m -3.835214,0.886758 h 1.166275 v 3.269943 H 55.486415 Z M 54.971243,26.274837 H 56.7791 v 1.820812 h -1.807857 z m 1.758658,0.926334 h 2.591728 v 2.715717 h -2.591728 z m 6.752232,0.831346 h -2.980488 v 2.050637 h 2.980488 z m 0,-1.496411 h -2.462147 v 1.496411 h 2.462147 z m 2.850913,0 h -2.850913 v 2.715702 h 2.850913 z m -5.572234,-8.75679 H 57.99631 v 1.718105 h 2.764502 z m 1.814216,1.773547 h -2.289367 v 2.38317 h 2.289367 z m 0,-1.773547 h -1.814216 v 1.773547 h 1.814216 z m 1.900608,0 h -1.900608 v 3.491621 h 1.900608 z m 4.66511,3.380782 h -1.986983 v 2.106065 h 1.986983 z m 0.04315,4.932606 h -2.850899 v 3.159104 h 2.850899 z m -2.850899,-2.327743 h -1.684619 v 2.826557 h 1.684625 z m 1.857401,-0.498798 h -1.857401 v 2.826541 h 1.857401 z m -1.857396,-2.050638 h -2.462153 v 2.549436 h 2.462153 z m 0.820712,-0.05523 h -0.820712 v 2.106049 h 0.820712 z m 0.215976,-3.380798 h -2.894099 v 1.330161 h 2.894099 z m -0.215976,1.330161 h -1.252667 v 2.050637 h 1.252667 z m -14.647805,8.978439 h 2.98048 v 2.050667 h -2.98048 z m 0,-1.496396 h 2.462142 v 1.496396 h -2.462142 z m -2.850895,0 h 2.850895 v 2.715717 h -2.850895 z m 5.572202,-8.756775 h 2.76451 v 1.718105 h -2.764514 z m -1.814203,1.773517 h 2.289353 v 2.3832 h -2.289353 z m 0,-1.773517 h 1.814203 v 1.773517 h -1.814203 z m -1.900596,0 h 1.900596 v 3.491622 h -1.900599 z m -4.665099,3.380783 h 1.986984 v 2.106064 H 46.84731 Z m -0.04316,4.932605 h 2.850893 v 3.159104 h -2.850892 z m 2.850893,-2.327743 h 1.684625 v 2.826557 h -1.684625 z m -1.857395,-0.498798 h 1.857395 v 2.826541 h -1.857395 z m 1.857395,-2.050637 h 2.462137 v 2.549435 h -2.462137 z m -0.820713,-0.05523 h 0.820713 v 2.106064 h -0.820713 z m -0.215979,-3.380782 h 2.894092 v 1.330114 h -2.894092 z m 0.215979,1.330114 h 1.252663 v 2.050668 h -1.252663 z m -7.594408,7.582155 h 4.200257 v 4.50176 H 41.23993 Z m -4.391174,1.078549 h 4.454814 v 1.735039 h -4.454814 z m -4.036355,-1.471833 h 3.972721 v 4.050821 h -3.972721 z m -5.16968,1.125463 h 5.233319 v 2.070364 h -5.233319 z m 1.310291,-3.132848 h 2.353816 v 3.121924 h -2.353816 z m -2.472947,-2.312531 h 6.003672 v 2.312531 h -6.003672 z m 3.100632,-2.890695 h 2.039974 v 2.890695 h -2.039993 z m -1.531421,0 h 1.531421 v 2.890695 h -1.53142 z m 1e-6,-4.162576 h 2.903042 v 4.162576 h -2.903042 z m -1.763925,-3.179741 h 6.198385 v 3.179741 h -6.198385 z m 2.353817,-4.0469533 h 2.118437 V 11.801181 H 28.639194 Z M 5.260531,32.674408 h 3.1301895 v 2.852203 H 5.260531 Z m 4.7124215,-3.85221 h 3.8442205 v 3.016775 H 9.9729525 Z m 3.8442215,0.794135 h 5.220569 v 3.229529 h -5.220569 z m 5.204762,-2.463312 h 4.315671 v 4.87077 h -4.315671 z m 1.67058,-2.950852 h 1.879406 v 2.911871 h -1.879406 z m -1.687661,-3.32241 h 4.106848 v 3.335424 h -4.106866 z m -5.567348,-1.21772 h 5.568605 v 2.964842 h -5.568605 z m -3.394966,-3.957237 h 3.84422 v 2.966292 h -3.84422 z m 3.844223,0.780848 h 5.220568 v 3.175474 h -5.220568 z m 5.204762,-2.42209 h 4.315669 v 4.78924 h -4.315669 z m 1.670577,-2.901449 h 1.879406 v 2.86314 h -1.879406 z m -1.68766,-3.2668083 h 4.106847 v 3.2795823 h -4.106847 z m -5.567328,-1.19731 h 5.568603 v 2.915184 H 13.507115 Z M 4.543542,28.822198 h 5.4293915 v 3.85221 H 4.543542 Z M 2.872961,25.819504 h 8.144086 v 3.041964 H 2.872961 Z m 1.044112,-4.841295 h 6.195074 v 4.841295 H 3.917073 Z M 5.17001,17.538613 H 8.8592105 V 20.97438 H 5.17001 Z M 3.081781,13.804244 h 6.960756 v 3.7481 H 3.081781 Z m 1.598422,-3.618438 h 3.6891995 v 3.643978 H 4.680203 Z M 3.986681,6.6979927 H 8.7199965 V 10.185806 H 3.986681 Z m 0,-3.071361 h 3.4107715 v 3.071361 H 3.986681 Z m 4.7333155,3.071361 h 4.7871185 v 2.030222 H 8.7199965 Z" />
    <path
       style="fill:#000000;stroke:#000000;stroke-width:0.211797;stroke-linecap:round;stroke-linejoin:round;stroke-miterlimit:4;stroke-dasharray:none;stroke-opacity:0.955017;paint-order:stroke markers fill"
       d=""
       id="path5492"
       transform="scale(0.26458333)" />
    <path
       id="path6196"
       style="fill:#000000;stroke:#000000;stroke-width:0.721592;stroke-linecap:round;stroke-linejoin:round;stroke-miterlimit:4;stroke-dasharray:none;stroke-opacity:0.955017;paint-order:stroke markers fill"
       d="m 184.00196,22.204829 h 0.94749 v 0.924427 h -0.94749 z m 0,0 h 0.94749 v 0.924427 h -0.94749 z m -0.41689,7.235617 h 1.36438 v 1.275953 h -1.36438 z m 9.44123,-1.839288 c 0.22172,0 0.44343,0 0.66514,0 0,-0.322417 0,-0.644819 0,-0.967237 -0.22171,0 -0.44342,0 -0.66514,0 0,0.322418 0,0.64482 0,0.967237 z m -0.7285,1.469697 c 0.55957,0 1.11915,0 1.67872,0 0,-0.489904 0,-0.979793 0,-1.469697 -0.55957,0 -1.11915,0 -1.67872,0 0,0.489904 0,0.979793 0,1.469697 z m -0.57013,0 c 0.19004,0 0.38008,0 0.57013,0 0,-0.314041 0,-0.628068 0,-0.942124 -0.19005,0 -0.38009,0 -0.57013,0 0,0.314056 0,0.628083 0,0.942124 z m 0,1.281278 c 0.57013,0 1.14026,0 1.71039,0 0,-0.427108 0,-0.854185 0,-1.281278 -0.57013,0 -1.14026,0 -1.71039,0 0,0.427093 0,0.85417 0,1.281278 z m -2.15383,0 c 0.71794,0 1.43588,0 2.15383,0 0,-0.18848 0,-0.376868 0,-0.565302 -0.71795,0 -1.43589,0 -2.15383,0 0,0.18848 0,0.376868 0,0.565302 z m 0,0.288914 c 0.43288,0 0.86575,0 1.29863,0 0.0416,-0.234051 -0.0208,-0.349162 -0.23665,-0.288914 -0.35399,0 -0.70799,0 -1.06198,0 0,0.09642 0,0.192538 0,0.288914 z m -2.21717,0.527573 c 0.73905,0 1.47811,0 2.21717,0 0,-0.485724 0,-0.971417 0,-1.457156 -0.73906,0 -1.47812,0 -2.21717,0 0,0.485739 0,0.971432 0,1.457156 z m -2.40722,-0.452221 c 0.8024,0 1.60481,0 2.40722,0 0,-0.192538 0,-0.385198 0,-0.577827 -0.80241,0 -1.60482,0 -2.40722,0 0,0.192538 0,0.385213 0,0.577827 z m 8.07685,-5.049715 c 0.22172,0 0.44343,0 0.66514,0 0,0.322403 0,0.64482 0,0.967237 -0.22171,0 -0.44342,0 -0.66514,0 0,-0.322417 0,-0.644834 0,-0.967237 z m -0.7285,-1.469712 c 0.55957,0 1.11915,0 1.67872,0 0,0.489904 0,0.979808 0,1.469712 -0.55957,0 -1.11915,0 -1.67872,0 0,-0.489904 0,-0.979808 0,-1.469712 z m -0.57013,0 c 0.19004,0 0.38008,0 0.57013,0 0,0.314072 0,0.628114 0,0.94214 -0.19005,0 -0.38009,0 -0.57013,0 0,-0.314026 0,-0.628068 0,-0.94214 z m 0,-1.281248 c 0.57013,0 1.14026,0 1.71039,0 0,0.427093 0,0.854171 0,1.281248 -0.57013,0 -1.14026,0 -1.71039,0 0,-0.427077 0,-0.854155 0,-1.281248 z m -2.15383,0 c 0.71794,0 1.43588,0 2.15383,0 0,0.18848 0,0.376838 0,0.565242 -0.71795,0 -1.43589,0 -2.15383,0 0,-0.188465 0,-0.376838 0,-0.565242 z m 0,-0.288913 c 0.43288,0 0.86575,0 1.29863,0 0.0416,0.234051 -0.0208,0.349131 -0.23665,0.288913 -0.35399,0 -0.70799,0 -1.06198,0 0,-0.09642 0,-0.192538 0,-0.288913 z m -2.21717,-0.527604 c 0.73905,0 1.47811,0 2.21717,0 0,0.485709 0,0.971433 0,1.457126 -0.73906,0 -1.47812,0 -2.21717,0 0,-0.485693 0,-0.971417 0,-1.457126 z m -2.40722,0.452236 c 0.8024,0 1.60481,0 2.40722,0 0,0.192538 0,0.385213 0,0.577813 -0.80241,0 -1.60482,0 -2.40722,0 0,-0.192538 0,-0.385229 0,-0.577813 z m -4.51001,-0.346614 h 3.56252 v 3.769459 h -3.56252 z m 1.93285,16.767624 h 2.34976 v 4.85263 h -2.34976 z m -1.55386,0 h 1.55386 v 3.942758 h -1.55386 z m 0,-4.549376 h 2.76664 v 4.549376 h -2.76664 z m 0.83378,-2.253015 h 0.94748 v 2.253015 h -0.94748 z m -1.09907,-2.729616 h 3.03193 v 2.686287 h -3.03193 z m 0.83378,-3.422845 h 1.28857 v 3.422845 h -1.28857 z m -13.16523,4.531312 h 1.69836 v 0.831346 h -1.69836 z m -3.83521,0.886758 h 1.16627 v 3.269943 h -1.16627 z m -0.51518,-1.813092 h 1.80786 v 1.820812 h -1.80786 z m 1.75866,0.926334 h 2.59173 v 2.715717 h -2.59173 z m 6.75223,0.831346 h -2.98048 v 2.050637 h 2.98048 z m 0,-1.496411 h -2.46214 v 1.496411 h 2.46214 z m 2.85092,0 h -2.85092 v 2.715702 h 2.85092 z m -5.57224,-8.75679 h -2.7645 v 1.718105 h 2.7645 z m 1.81422,1.773547 h -2.28937 v 2.38317 h 2.28937 z m 0,-1.773547 h -1.81422 v 1.773547 h 1.81422 z m 1.90061,0 h -1.90061 v 3.491621 h 1.90061 z m 4.66511,3.380782 h -1.98699 v 2.106065 h 1.98699 z m 0.0431,4.932606 h -2.8509 v 3.159104 h 2.8509 z m -2.8509,-2.327743 h -1.68462 v 2.826557 h 1.68462 z m 1.8574,-0.498798 h -1.8574 v 2.826541 h 1.8574 z m -1.8574,-2.050638 h -2.46215 v 2.549436 h 2.46215 z m 0.82072,-0.05523 h -0.82072 v 2.106049 h 0.82072 z m 0.21597,-3.380798 h -2.8941 V 22.4574 h 2.8941 z m -0.21597,1.330161 h -1.25267 v 2.050637 h 1.25267 z m -14.64781,8.978439 h 2.98048 v 2.050667 h -2.98048 z m 0,-1.496396 h 2.46214 v 1.496396 h -2.46214 z m -2.85089,0 h 2.85089 v 2.715717 h -2.85089 z m 5.5722,-8.756775 h 2.76451 v 1.718105 h -2.76452 z m -1.81421,1.773517 h 2.28936 v 2.3832 h -2.28936 z m 0,-1.773517 h 1.81421 v 1.773517 h -1.81421 z m -1.90059,0 h 1.90059 v 3.491622 h -1.90059 z m -4.6651,3.380783 h 1.98698 v 2.106064 h -1.98699 z m -0.0432,4.932605 h 2.85089 v 3.159104 h -2.85089 z m 2.85089,-2.327743 h 1.68463 v 2.826557 h -1.68463 z m -1.85739,-0.498798 h 1.85739 v 2.826541 h -1.85739 z m 1.85739,-2.050637 h 2.46214 v 2.549435 h -2.46214 z m -0.82071,-0.05523 h 0.82071 v 2.106064 h -0.82071 z m -0.21598,-3.380782 h 2.89409 v 1.330114 h -2.89409 z m 0.21598,1.330114 h 1.25266 v 2.050668 h -1.25266 z m -7.59441,7.582155 h 4.20026 v 4.50176 h -4.20026 z m -4.39117,1.078549 h 4.45481 v 1.735039 h -4.45481 z m -4.03636,-1.471833 h 3.97272 v 4.050821 h -3.97272 z m -5.16968,1.125463 h 5.23332 v 2.070364 h -5.23332 z m 1.31029,-3.132848 h 2.35382 v 3.121924 h -2.35382 z m -2.47294,-2.312531 h 6.00367 v 2.312531 h -6.00367 z m 3.10063,-2.890695 h 2.03997 v 2.890695 h -2.03999 z m -1.53142,0 h 1.53142 v 2.890695 h -1.53142 z m 0,-4.162576 h 2.90304 v 4.162576 h -2.90304 z m -1.76393,-3.179741 h 6.19839 v 3.179741 h -6.19839 z m 2.35382,-4.046954 h 2.11844 v 4.046954 h -2.11841 z M 114.16059,36.02215 h 3.13019 v 2.852203 h -3.13019 z m 4.71242,-3.85221 h 3.84422 v 3.016775 h -3.84422 z m 3.84423,0.794135 h 5.22056 v 3.229529 h -5.22056 z m 5.20476,-2.463312 h 4.31567 v 4.87077 H 127.922 Z m 1.67058,-2.950852 h 1.8794 v 2.911871 h -1.8794 z m -1.68766,-3.32241 h 4.10684 v 3.335424 h -4.10686 z m -5.56735,-1.21772 h 5.5686 v 2.964842 h -5.5686 z m -3.39497,-3.957237 h 3.84422 v 2.966292 h -3.84422 z m 3.84423,0.780848 h 5.22056 v 3.175474 h -5.22056 z m 5.20476,-2.42209 h 4.31567 v 4.78924 h -4.31567 z m 1.67057,-2.901449 h 1.87941 v 2.86314 h -1.87941 z m -1.68766,-3.266809 h 4.10685 v 3.279583 h -4.10685 z m -5.56732,-1.19731 h 5.5686 v 2.915184 h -5.5686 z M 113.4436,32.16994 h 5.42939 v 3.85221 h -5.42939 z m -1.67058,-3.002694 h 8.14409 v 3.041964 h -8.14409 z m 1.04411,-4.841295 h 6.19508 v 4.841295 h -6.19508 z m 1.25294,-3.439596 h 3.6892 v 3.435767 h -3.6892 z m -2.08823,-3.734369 h 6.96076 v 3.7481 h -6.96076 z m 1.59842,-3.618438 h 3.6892 v 3.643978 h -3.6892 z m -0.69352,-3.487814 h 4.73332 v 3.487814 h -4.73332 z m 0,-3.0713608 h 3.41077 v 3.0713608 h -3.41077 z m 4.73332,3.0713608 h 4.78712 v 2.030222 h -4.78712 z" />
    <path
       id="path6216"
       style="fill:#ffffff;stroke:#000000;stroke-width:1.122;stroke-linecap:round;stroke-linejoin:round;stroke-miterlimit:4;stroke-dasharray:none;stroke-opacity:0.955017;paint-order:stroke markers fill"
       d="m 77.268086,273.08851 h 0.947486 v 0.92443 h -0.947486 z m 0,0 h 0.947486 v 0.92443 h -0.947486 z m -0.41689,7.23562 h 1.364376 v 1.27595 h -1.364376 z m 9.441231,-1.83929 c 0.221719,0 0.443432,0 0.665139,0 0,-0.32242 0,-0.64482 0,-0.96724 -0.221707,0 -0.44342,0 -0.665139,0 0,0.32242 0,0.64482 0,0.96724 z m -0.728502,1.4697 c 0.559569,0 1.119147,0 1.678721,0 0,-0.48991 0,-0.9798 0,-1.4697 -0.559574,0 -1.119152,0 -1.678721,0 0,0.4899 0,0.97979 0,1.4697 z m -0.570133,0 c 0.190044,0 0.380088,0 0.570133,0 0,-0.31404 0,-0.62807 0,-0.94213 -0.190045,0 -0.380089,0 -0.570133,0 0,0.31406 0,0.62809 0,0.94213 z m 0,1.28127 c 0.570133,0 1.14026,0 1.710393,0 0,-0.4271 0,-0.85418 0,-1.28127 -0.570133,0 -1.14026,0 -1.710393,0 0,0.42709 0,0.85417 0,1.28127 z m -2.15383,0 c 0.71794,0 1.435888,0 2.15383,0 0,-0.18848 0,-0.37686 0,-0.5653 -0.717942,0 -1.43589,0 -2.15383,0 0,0.18848 0,0.37687 0,0.5653 z m 0,0.28892 c 0.432879,0 0.865753,0 1.298633,0 0.04163,-0.23405 -0.02084,-0.34916 -0.236654,-0.28892 -0.35399,0 -0.707986,0 -1.061979,0 0,0.0964 0,0.19254 0,0.28892 z m -2.217172,0.52757 c 0.739056,0 1.478116,0 2.217172,0 0,-0.48572 0,-0.97142 0,-1.45715 -0.739056,0 -1.478116,0 -2.217172,0 0,0.48573 0,0.97143 0,1.45715 z m -2.407218,-0.45222 c 0.802403,0 1.60481,0 2.407218,0 0,-0.19254 0,-0.3852 0,-0.57783 -0.802408,0 -1.604815,0 -2.407218,0 0,0.19254 0,0.38522 0,0.57783 z m 8.076855,-5.04971 c 0.221719,0 0.443432,0 0.665139,0 0,0.3224 0,0.64482 0,0.96723 -0.221707,0 -0.44342,0 -0.665139,0 0,-0.32241 0,-0.64483 0,-0.96723 z m -0.728502,-1.46972 c 0.559569,0 1.119147,0 1.678721,0 0,0.48991 0,0.97981 0,1.46972 -0.559574,0 -1.119152,0 -1.678721,0 0,-0.48991 0,-0.97981 0,-1.46972 z m -0.570133,0 c 0.190044,0 0.380088,0 0.570133,0 0,0.31408 0,0.62812 0,0.94214 -0.190045,0 -0.380089,0 -0.570133,0 0,-0.31402 0,-0.62806 0,-0.94214 z m 0,-1.28124 c 0.570133,0 1.14026,0 1.710393,0 0,0.42709 0,0.85417 0,1.28124 -0.570133,0 -1.14026,0 -1.710393,0 0,-0.42707 0,-0.85415 0,-1.28124 z m -2.15383,0 c 0.71794,0 1.435888,0 2.15383,0 0,0.18848 0,0.37684 0,0.56524 -0.717942,0 -1.43589,0 -2.15383,0 0,-0.18846 0,-0.37684 0,-0.56524 z m 0,-0.28891 c 0.432879,0 0.865753,0 1.298633,0 0.04163,0.23405 -0.02084,0.34913 -0.236654,0.28891 -0.35399,0 -0.707986,0 -1.061979,0 0,-0.0964 0,-0.19254 0,-0.28891 z m -2.217172,-0.52761 c 0.739056,0 1.478116,0 2.217172,0 0,0.48571 0,0.97144 0,1.45712 -0.739056,0 -1.478116,0 -2.217172,0 0,-0.48568 0,-0.97141 0,-1.45712 z m -2.407218,0.45224 c 0.802403,0 1.60481,0 2.407218,0 0,0.19254 0,0.38521 0,0.57781 -0.802408,0 -1.604815,0 -2.407218,0 0,-0.19254 0,-0.38523 0,-0.57781 z m -4.510008,-0.34662 h 3.562522 v 3.76946 h -3.562522 z m 1.932855,16.76762 h 2.349755 v 4.85263 h -2.349755 z m -1.553865,0 h 1.553865 v 3.94276 h -1.553865 z m 0,-4.54937 h 2.766638 v 4.54937 h -2.766638 z m 0.833782,-2.25302 h 0.947483 v 2.25302 h -0.947483 z m -1.099076,-2.72961 h 3.031936 v 2.68628 H 73.81926 Z m 0.833781,-3.42285 h 1.288574 v 3.42285 h -1.288574 z m -13.165226,4.53131 h 1.698357 v 0.83135 h -1.698357 z m -3.835214,0.88676 h 1.166275 v 3.26995 h -1.166275 z m -0.515172,-1.81309 h 1.807857 v 1.82081 h -1.807857 z m 1.758658,0.92633 h 2.591728 v 2.71572 h -2.591728 z m 6.752232,0.83135 h -2.980488 v 2.05064 h 2.980488 z m 0,-1.49641 h -2.462147 v 1.49641 h 2.462147 z m 2.850913,0 h -2.850913 v 2.7157 h 2.850913 z m -5.572234,-8.75679 h -2.764502 v 1.71811 h 2.764502 z m 1.814216,1.77355 h -2.289367 v 2.38317 h 2.289367 z m 0,-1.77355 h -1.814216 v 1.77355 h 1.814216 z m 1.900608,0 h -1.900608 v 3.49162 h 1.900608 z m 4.66511,3.38078 h -1.986983 v 2.10607 h 1.986983 z m 0.04315,4.93261 h -2.850899 v 3.1591 h 2.850899 z m -2.850899,-2.32775 h -1.684619 v 2.82656 h 1.684625 z m 1.857401,-0.49879 h -1.857401 v 2.82654 h 1.857401 z m -1.857396,-2.05064 h -2.462153 v 2.54943 h 2.462153 z m 0.820712,-0.0552 h -0.820712 v 2.10605 H 69.3199 Z m 0.215976,-3.3808 h -2.894099 v 1.33017 h 2.894099 z m -0.215976,1.33017 h -1.252667 v 2.05063 H 69.3199 Z m -14.647805,8.97843 h 2.98048 v 2.05067 h -2.98048 z m 0,-1.4964 h 2.462142 v 1.4964 h -2.462142 z m -2.850895,0 h 2.850895 v 2.71572 H 51.8212 Z m 5.572202,-8.75677 h 2.76451 v 1.71811 h -2.764514 z m -1.814203,1.77352 h 2.289353 v 2.3832 h -2.289353 z m 0,-1.77352 h 1.814203 v 1.77352 h -1.814203 z m -1.900596,0 h 1.900596 V 275.558 H 53.6786 Z m -4.665099,3.38078 h 1.986984 v 2.10607 h -1.986992 z m -0.04316,4.93261 h 2.850893 v 3.1591 h -2.850892 z m 2.850893,-2.32775 h 1.684625 v 2.82656 h -1.684625 z m -1.857395,-0.49879 h 1.857395 v 2.82654 h -1.857395 z m 1.857395,-2.05064 h 2.462137 v 2.54943 h -2.462137 z m -0.820713,-0.0552 h 0.820713 v 2.10606 h -0.820713 z m -0.215979,-3.38078 h 2.894092 v 1.33012 h -2.894092 z m 0.215979,1.33012 h 1.252663 v 2.05066 h -1.252663 z m -7.594408,7.58215 h 4.200257 v 4.50176 h -4.200257 z m -4.391174,1.07855 h 4.454814 v 1.73503 h -4.454814 z m -4.036355,-1.47184 h 3.972721 v 4.05082 h -3.972721 z m -5.16968,1.12547 h 5.233319 v 2.07036 h -5.233319 z m 1.310291,-3.13285 h 2.353816 v 3.12192 h -2.353816 z m -2.472947,-2.31253 h 6.003672 v 2.31253 h -6.003672 z m 3.100632,-2.89069 h 2.039974 v 2.89069 h -2.039993 z m -1.531421,0 h 1.531421 v 2.89069 h -1.53142 z m 1e-6,-4.16258 h 2.903042 v 4.16258 h -2.903042 z m -1.763925,-3.17974 h 6.198385 v 3.17974 h -6.198385 z m 2.353817,-4.04695 h 2.118437 v 4.04695 H 30.80538 Z M 7.4267172,286.90583 h 3.1301898 v 2.8522 H 7.4267172 Z m 4.7124218,-3.85221 h 3.84422 v 3.01678 h -3.84422 z m 3.844221,0.79414 h 5.220569 v 3.22953 H 15.98336 Z m 5.204762,-2.46332 h 4.315671 v 4.87077 h -4.315671 z m 1.67058,-2.95085 h 1.879406 v 2.91187 h -1.879406 z m -1.687661,-3.32241 h 4.106848 v 3.33543 h -4.106866 z m -5.567348,-1.21771 h 5.568605 v 2.96483 h -5.568605 z m -3.394965,-3.95724 h 3.844219 v 2.96629 h -3.844219 z m 3.844222,0.78085 h 5.220568 v 3.17547 H 16.05295 Z m 5.204762,-2.42209 h 4.315669 v 4.78924 h -4.315669 z m 1.670577,-2.90145 h 1.879406 v 2.86314 h -1.879406 z m -1.68766,-3.26681 h 4.106847 v 3.27958 h -4.106847 z m -5.567328,-1.19731 h 5.568603 v 2.91518 h -5.568603 z m -8.9635728,22.1242 H 12.13912 v 3.85221 H 6.7097282 Z m -1.670581,-3.00269 h 8.1440868 v 3.04196 H 5.0391472 Z m 1.044112,-4.8413 h 6.1950748 v 4.8413 H 6.0832592 Z m 1.252937,-3.43959 h 3.6892008 v 3.43576 H 7.3361962 Z m -2.088229,-3.73437 h 6.9607568 v 3.7481 H 5.2479672 Z m 1.598422,-3.61844 h 3.6891998 v 3.64398 H 6.8463892 Z m -0.693522,-3.48781 h 4.7333158 v 3.48781 H 6.1528672 Z m 0,-3.07136 h 3.410772 v 3.07136 h -3.410772 z m 4.7333158,3.07136 h 4.787118 v 2.03022 h -4.787118 z" />
    <path
       id="path6352"
       style="fill:none;stroke:#000000;stroke-width:0.721592;stroke-linecap:round;stroke-linejoin:round;stroke-miterlimit:4;stroke-dasharray:none;stroke-opacity:0.955017;paint-order:stroke markers fill"
       d="m 191.48515,265.01455 h 0.94748 v 0.92443 h -0.94748 z m 0,0 h 0.94748 v 0.92443 h -0.94748 z m -0.41689,7.23562 h 1.36437 v 1.27595 h -1.36437 z m 9.44123,-1.83929 c 0.22172,0 0.44343,0 0.66514,0 0,-0.32242 0,-0.64482 0,-0.96724 -0.22171,0 -0.44342,0 -0.66514,0 0,0.32242 0,0.64482 0,0.96724 z m -0.7285,1.46969 c 0.55956,0 1.11914,0 1.67872,0 0,-0.4899 0,-0.97979 0,-1.46969 -0.55958,0 -1.11916,0 -1.67872,0 0,0.4899 0,0.97979 0,1.46969 z m -0.57014,0 c 0.19005,0 0.38009,0 0.57014,0 0,-0.31404 0,-0.62806 0,-0.94212 -0.19005,0 -0.38009,0 -0.57014,0 0,0.31406 0,0.62808 0,0.94212 z m 0,1.28128 c 0.57014,0 1.14026,0 1.7104,0 0,-0.42711 0,-0.85418 0,-1.28128 -0.57014,0 -1.14026,0 -1.7104,0 0,0.4271 0,0.85417 0,1.28128 z m -2.15383,0 c 0.71794,0 1.43589,0 2.15383,0 0,-0.18848 0,-0.37687 0,-0.5653 -0.71794,0 -1.43589,0 -2.15383,0 0,0.18848 0,0.37687 0,0.5653 z m 0,0.28892 c 0.43288,0 0.86576,0 1.29864,0 0.0416,-0.23405 -0.0208,-0.34917 -0.23666,-0.28892 -0.35399,0 -0.70798,0 -1.06198,0 0,0.0964 0,0.19254 0,0.28892 z m -2.21717,0.52757 c 0.73906,0 1.47812,0 2.21717,0 0,-0.48572 0,-0.97142 0,-1.45716 -0.73905,0 -1.47811,0 -2.21717,0 0,0.48574 0,0.97144 0,1.45716 z m -2.40722,-0.45222 c 0.80241,0 1.60481,0 2.40722,0 0,-0.19254 0,-0.3852 0,-0.57783 -0.80241,0 -1.60481,0 -2.40722,0 0,0.19254 0,0.38521 0,0.57783 z m 8.07686,-5.04972 c 0.22172,0 0.44343,0 0.66514,0 0,0.32241 0,0.64482 0,0.96724 -0.22171,0 -0.44342,0 -0.66514,0 0,-0.32242 0,-0.64483 0,-0.96724 z m -0.7285,-1.46971 c 0.55956,0 1.11914,0 1.67872,0 0,0.48991 0,0.97981 0,1.46971 -0.55958,0 -1.11916,0 -1.67872,0 0,-0.4899 0,-0.9798 0,-1.46971 z m -0.57014,0 c 0.19005,0 0.38009,0 0.57014,0 0,0.31407 0,0.62812 0,0.94214 -0.19005,0 -0.38009,0 -0.57014,0 0,-0.31402 0,-0.62807 0,-0.94214 z m 0,-1.28125 c 0.57014,0 1.14026,0 1.7104,0 0,0.4271 0,0.85417 0,1.28125 -0.57014,0 -1.14026,0 -1.7104,0 0,-0.42708 0,-0.85415 0,-1.28125 z m -2.15383,0 c 0.71794,0 1.43589,0 2.15383,0 0,0.18848 0,0.37684 0,0.56525 -0.71794,0 -1.43589,0 -2.15383,0 0,-0.18847 0,-0.37684 0,-0.56525 z m 0,-0.28891 c 0.43288,0 0.86576,0 1.29864,0 0.0416,0.23405 -0.0208,0.34913 -0.23666,0.28891 -0.35399,0 -0.70798,0 -1.06198,0 0,-0.0964 0,-0.19253 0,-0.28891 z m -2.21717,-0.5276 c 0.73906,0 1.47812,0 2.21717,0 0,0.48571 0,0.97143 0,1.45712 -0.73905,0 -1.47811,0 -2.21717,0 0,-0.48569 0,-0.97141 0,-1.45712 z m -2.40722,0.45223 c 0.80241,0 1.60481,0 2.40722,0 0,0.19254 0,0.38522 0,0.57782 -0.80241,0 -1.60481,0 -2.40722,0 0,-0.19254 0,-0.38523 0,-0.57782 z m -4.51,-0.34661 h 3.56252 v 3.76946 h -3.56252 z m 1.93285,16.76762 h 2.34976 v 4.85263 h -2.34976 z m -1.55386,0 h 1.55386 v 3.94276 h -1.55386 z m 0,-4.54937 h 2.76663 v 4.54937 h -2.76663 z m 0.83378,-2.25302 h 0.94748 v 2.25302 h -0.94748 z m -1.09908,-2.72961 h 3.03194 v 2.68628 h -3.03194 z m 0.83378,-3.42285 h 1.28858 v 3.42285 h -1.28858 z m -13.16522,4.53131 h 1.69835 v 0.83135 h -1.69835 z m -3.83522,0.88676 h 1.16628 v 3.26994 h -1.16628 z m -0.51517,-1.81309 h 1.80786 v 1.82081 h -1.80786 z m 1.75866,0.92633 h 2.59173 v 2.71572 h -2.59173 z m 6.75223,0.83135 h -2.98049 v 2.05064 h 2.98049 z m 0,-1.49641 h -2.46215 v 1.49641 h 2.46215 z m 2.85091,0 h -2.85091 v 2.7157 h 2.85091 z m -5.57223,-8.75679 h -2.7645 v 1.7181 h 2.7645 z m 1.81422,1.77354 h -2.28937 v 2.38317 h 2.28937 z m 0,-1.77354 h -1.81422 v 1.77354 h 1.81422 z m 1.9006,0 h -1.9006 v 3.49162 h 1.9006 z m 4.66511,3.38078 h -1.98698 v 2.10606 h 1.98698 z m 0.0431,4.93261 h -2.8509 v 3.1591 h 2.8509 z m -2.8509,-2.32775 h -1.68461 v 2.82656 h 1.68462 z m 1.85741,-0.4988 h -1.85741 v 2.82655 h 1.85741 z m -1.8574,-2.05063 h -2.46215 v 2.54943 h 2.46215 z m 0.82071,-0.0552 h -0.82071 v 2.10605 h 0.82071 z m 0.21598,-3.3808 h -2.8941 v 1.33016 h 2.8941 z m -0.21598,1.33016 h -1.25267 v 2.05064 h 1.25267 z m -14.6478,8.97844 h 2.98048 v 2.05067 h -2.98048 z m 0,-1.4964 h 2.46214 v 1.4964 h -2.46214 z m -2.8509,0 h 2.8509 v 2.71572 h -2.8509 z m 5.5722,-8.75677 h 2.76451 v 1.7181 h -2.76451 z m -1.8142,1.77351 h 2.28935 v 2.3832 h -2.28935 z m 0,-1.77351 h 1.8142 v 1.77351 h -1.8142 z m -1.9006,0 h 1.9006 v 3.49162 h -1.9006 z m -4.66509,3.38078 h 1.98698 v 2.10606 h -1.98699 z m -0.0432,4.93261 h 2.85089 v 3.1591 h -2.85089 z m 2.85089,-2.32775 h 1.68462 v 2.82656 h -1.68462 z m -1.8574,-0.4988 h 1.8574 v 2.82655 h -1.8574 z m 1.8574,-2.05063 h 2.46214 v 2.54943 h -2.46214 z m -0.82071,-0.0552 h 0.82071 v 2.10606 h -0.82071 z m -0.21598,-3.38078 h 2.89409 v 1.33011 h -2.89409 z m 0.21598,1.33011 h 1.25266 v 2.05067 h -1.25266 z m -7.59441,7.58215 h 4.20025 v 4.50176 h -4.20025 z m -4.39118,1.07855 h 4.45482 v 1.73504 H 153.232 Z m -4.03635,-1.47183 h 3.97272 v 4.05082 h -3.97272 z m -5.16968,1.12546 h 5.23332 v 2.07037 h -5.23332 z m 1.31029,-3.13284 h 2.35382 v 3.12192 h -2.35382 z m -2.47295,-2.31254 h 6.00367 v 2.31254 h -6.00367 z m 3.10063,-2.89069 h 2.03998 v 2.89069 h -2.03999 z m -1.53142,0 h 1.53142 v 2.89069 h -1.53142 z m 0,-4.16258 h 2.90305 v 4.16258 h -2.90305 z m -1.76392,-3.17974 h 6.19838 v 3.17974 h -6.19838 z m 2.35382,-4.04695 h 2.11843 v 4.04695 h -2.11841 z m -23.37864,24.92018 h 3.13019 v 2.8522 h -3.13019 z m 4.71242,-3.85221 h 3.84422 v 3.01677 h -3.84422 z m 3.84422,0.79413 h 5.22057 v 3.22953 h -5.22057 z m 5.20476,-2.46331 h 4.31567 v 4.87077 h -4.31567 z m 1.67058,-2.95085 h 1.87941 v 2.91187 h -1.87941 z m -1.68766,-3.32241 h 4.10685 v 3.33542 h -4.10687 z m -5.56735,-1.21772 h 5.56861 v 2.96484 h -5.56861 z m -3.39496,-3.95724 h 3.84422 v 2.9663 h -3.84422 z m 3.84422,0.78085 h 5.22057 v 3.17548 h -5.22057 z m 5.20476,-2.42209 h 4.31567 v 4.78924 h -4.31567 z m 1.67058,-2.90145 h 1.87941 v 2.86314 h -1.87941 z m -1.68766,-3.26681 h 4.10685 v 3.27959 h -4.10685 z m -5.56733,-1.19731 h 5.56861 v 2.91519 h -5.56861 z m -8.96357,22.12421 h 5.42939 v 3.85221 h -5.42939 z m -1.67058,-3.00269 h 8.14408 v 3.04196 h -8.14408 z m 1.04411,-4.8413 h 6.19507 v 4.8413 h -6.19507 z m 1.25294,-3.4396 h 3.6892 v 3.43577 h -3.6892 z m -2.08823,-3.73436 h 6.96075 v 3.7481 h -6.96075 z m 1.59842,-3.61844 h 3.6892 v 3.64398 h -3.6892 z m -0.69352,-3.48782 h 4.73331 v 3.48782 h -4.73331 z m 0,-3.07136 h 3.41077 v 3.07136 h -3.41077 z m 4.73331,3.07136 h 4.78712 v 2.03023 h -4.78712 z" />
  </g>
</svg>
