<?xml version="1.0" encoding="UTF-8" standalone="no"?>
<!-- Created with Inkscape (http://www.inkscape.org/) -->

<svg
   width="210mm"
   height="297mm"
   viewBox="0 0 210 297"
   version="1.1"
   id="svg5"
   inkscape:version="1.1.1 (3bf5ae0d25, 2021-09-20)"
   sodipodi:docname="blop plugin  icon.svg"
   xmlns:inkscape="http://www.inkscape.org/namespaces/inkscape"
   xmlns:sodipodi="http://sodipodi.sourceforge.net/DTD/sodipodi-0.dtd"
   xmlns="http://www.w3.org/2000/svg"
   xmlns:svg="http://www.w3.org/2000/svg">
  <sodipodi:namedview
     id="namedview7"
     pagecolor="#ffffff"
     bordercolor="#666666"
     borderopacity="1.0"
     inkscape:pageshadow="2"
     inkscape:pageopacity="0.0"
     inkscape:pagecheckerboard="0"
     inkscape:document-units="mm"
     showgrid="false"
     inkscape:zoom="0.96459612"
     inkscape:cx="249.8455"
     inkscape:cy="237.92341"
     inkscape:window-width="1680"
     inkscape:window-height="956"
     inkscape:window-x="-11"
     inkscape:window-y="-11"
     inkscape:window-maximized="1"
     inkscape:current-layer="layer1"
     showguides="false" />
  <defs
     id="defs2" />
  <g
     inkscape:label="Layer 1"
     inkscape:groupmode="layer"
     id="layer1">
    <path
       id="rect2331"
       style="fill:none;stroke:#000000;stroke-width:0.721592;stroke-linecap:round;stroke-linejoin:round;stroke-miterlimit:4;stroke-dasharray:none;stroke-opacity:0.955017;paint-order:stroke markers fill"
       d="m 78.252716,19.054013 h 0.947486 v 0.924427 h -0.947486 z m 0,0 h 0.947486 v 0.924427 h -0.947486 z m -0.41689,7.235617 h 1.364376 v 1.275953 h -1.364376 z m 9.44123,-1.839288 c 0.221719,0 0.443432,0 0.665139,0 0,-0.322417 0,-0.644819 0,-0.967237 -0.221707,0 -0.44342,0 -0.665139,0 0,0.322418 0,0.64482 0,0.967237 z m -0.728502,1.469697 c 0.559569,0 1.119147,0 1.678721,0 0,-0.489904 0,-0.979793 0,-1.469697 -0.559574,0 -1.119152,0 -1.678721,0 0,0.489904 0,0.979793 0,1.469697 z m -0.570133,0 c 0.190044,0 0.380088,0 0.570133,0 0,-0.314041 0,-0.628068 0,-0.942124 -0.190045,0 -0.380089,0 -0.570133,0 0,0.314056 0,0.628083 0,0.942124 z m 0,1.281278 c 0.570133,0 1.14026,0 1.710393,0 0,-0.427108 0,-0.854185 0,-1.281278 -0.570133,0 -1.14026,0 -1.710393,0 0,0.427093 0,0.85417 0,1.281278 z m -2.153829,0 c 0.71794,0 1.435887,0 2.153829,0 0,-0.18848 0,-0.376868 0,-0.565302 -0.717942,0 -1.435889,0 -2.153829,0 0,0.18848 0,0.376868 0,0.565302 z m 0,0.288914 c 0.432879,0 0.865753,0 1.298632,0 0.04163,-0.234051 -0.02084,-0.349162 -0.236654,-0.288914 -0.353989,0 -0.707985,0 -1.061978,0 0,0.09642 0,0.192538 0,0.288914 z m -2.217172,0.527573 c 0.739056,0 1.478116,0 2.217172,0 0,-0.485724 0,-0.971417 0,-1.457156 -0.739056,0 -1.478116,0 -2.217172,0 0,0.485739 0,0.971432 0,1.457156 z m -2.407218,-0.452221 c 0.802403,0 1.60481,0 2.407218,0 0,-0.192538 0,-0.385198 0,-0.577827 -0.802408,0 -1.604815,0 -2.407218,0 0,0.192538 0,0.385213 0,0.577827 z m 8.076854,-5.049715 c 0.221719,0 0.443432,0 0.665139,0 0,0.322403 0,0.64482 0,0.967237 -0.221707,0 -0.44342,0 -0.665139,0 0,-0.322417 0,-0.644834 0,-0.967237 z m -0.728502,-1.469712 c 0.559569,0 1.119147,0 1.678721,0 0,0.489904 0,0.979808 0,1.469712 -0.559574,0 -1.119152,0 -1.678721,0 0,-0.489904 0,-0.979808 0,-1.469712 z m -0.570133,0 c 0.190044,0 0.380088,0 0.570133,0 0,0.314072 0,0.628114 0,0.94214 -0.190045,0 -0.380089,0 -0.570133,0 0,-0.314026 0,-0.628068 0,-0.94214 z m 0,-1.281248 c 0.570133,0 1.14026,0 1.710393,0 0,0.427093 0,0.854171 0,1.281248 -0.570133,0 -1.14026,0 -1.710393,0 0,-0.427077 0,-0.854155 0,-1.281248 z m -2.153829,0 c 0.71794,0 1.435887,0 2.153829,0 0,0.18848 0,0.376838 0,0.565242 -0.717942,0 -1.435889,0 -2.153829,0 0,-0.188465 0,-0.376838 0,-0.565242 z m 0,-0.288913 c 0.432879,0 0.865753,0 1.298632,0 0.04163,0.234051 -0.02084,0.349131 -0.236654,0.288913 -0.353989,0 -0.707985,0 -1.061978,0 0,-0.09642 0,-0.192538 0,-0.288913 z M 81.60742,18.948391 c 0.739056,0 1.478116,0 2.217172,0 0,0.485709 0,0.971433 0,1.457126 -0.739056,0 -1.478116,0 -2.217172,0 0,-0.485693 0,-0.971417 0,-1.457126 z m -2.407218,0.452236 c 0.802403,0 1.60481,0 2.407218,0 0,0.192538 0,0.385213 0,0.577813 -0.802408,0 -1.604815,0 -2.407218,0 0,-0.192538 0,-0.385229 0,-0.577813 z m -4.510008,-0.346614 h 3.562522 v 3.769459 h -3.562522 z m 1.932855,16.767624 h 2.349755 v 4.85263 h -2.349755 z m -1.553865,0 h 1.553865 v 3.942758 h -1.553865 z m 0,-4.549376 h 2.766638 v 4.549376 h -2.766638 z m 0.833782,-2.253015 h 0.947483 v 2.253015 H 75.902966 Z M 74.80389,26.28963 h 3.031936 v 2.686287 H 74.80389 Z m 0.833781,-3.422845 h 1.288574 v 3.422845 h -1.288574 z m -13.165226,4.531312 h 1.698357 v 0.831346 h -1.698357 z m -3.835214,0.886758 h 1.166275 v 3.269943 h -1.166275 z m -0.515172,-1.813092 h 1.807857 v 1.820812 h -1.807857 z m 1.758658,0.926334 h 2.591728 v 2.715717 h -2.591728 z m 6.752232,0.831346 h -2.980488 v 2.050637 h 2.980488 z m 0,-1.496411 h -2.462147 v 1.496411 h 2.462147 z m 2.850913,0 h -2.850913 v 2.715702 h 2.850913 z m -5.572234,-8.75679 h -2.764502 v 1.718105 h 2.764502 z m 1.814216,1.773547 h -2.289367 v 2.38317 h 2.289367 z m 0,-1.773547 h -1.814216 v 1.773547 h 1.814216 z m 1.900608,0 h -1.900608 v 3.491621 h 1.900608 z m 4.66511,3.380782 h -1.986983 v 2.106065 h 1.986983 z m 0.04315,4.932606 h -2.850899 v 3.159104 h 2.850899 z m -2.850899,-2.327743 h -1.684619 v 2.826557 h 1.684625 z m 1.857401,-0.498798 h -1.857401 v 2.826541 h 1.857401 z m -1.857396,-2.050638 h -2.462153 v 2.549436 h 2.462153 z m 0.820712,-0.05523 h -0.820712 v 2.106049 h 0.820712 z m 0.215976,-3.380798 h -2.894099 v 1.330161 h 2.894099 z m -0.215976,1.330161 h -1.252667 v 2.050637 h 1.252667 z m -14.647805,8.978439 h 2.98048 v 2.050667 h -2.98048 z m 0,-1.496396 h 2.462142 v 1.496396 h -2.462142 z m -2.850895,0 h 2.850895 v 2.715717 H 52.80583 Z m 5.572202,-8.756775 h 2.76451 v 1.718105 h -2.764514 z m -1.814203,1.773517 h 2.289353 v 2.3832 h -2.289353 z m 0,-1.773517 h 1.814203 v 1.773517 h -1.814203 z m -1.900596,0 h 1.900596 v 3.491622 H 54.66323 Z m -4.665099,3.380783 h 1.986984 v 2.106064 h -1.986992 z m -0.04316,4.932605 h 2.850893 v 3.159104 h -2.850892 z m 2.850893,-2.327743 h 1.684625 v 2.826557 h -1.684625 z m -1.857395,-0.498798 h 1.857395 v 2.826541 h -1.857395 z m 1.857395,-2.050637 h 2.462137 v 2.549435 h -2.462137 z m -0.820713,-0.05523 h 0.820713 v 2.106064 H 51.985154 Z M 51.769175,18.03205 h 2.894092 v 1.330114 h -2.894092 z m 0.215979,1.330114 h 1.252663 v 2.050668 h -1.252663 z m -7.594408,7.582155 h 4.200257 v 4.50176 h -4.200257 z m -4.391174,1.078549 h 4.454814 v 1.735039 h -4.454814 z m -4.036355,-1.471833 h 3.972721 v 4.050821 h -3.972721 z m -5.16968,1.125463 h 5.233319 v 2.070364 h -5.233319 z m 1.310291,-3.132848 h 2.353816 v 3.121924 h -2.353816 z m -2.472947,-2.312531 h 6.003672 v 2.312531 h -6.003672 z m 3.100632,-2.890695 h 2.039974 v 2.890695 h -2.039993 z m -1.531421,0 h 1.531421 v 2.890695 h -1.53142 z m 10e-7,-4.162576 h 2.903042 v 4.162576 h -2.903042 z m -1.763925,-3.179741 h 6.198385 v 3.179741 h -6.198385 z m 2.353817,-4.0469533 h 2.118437 V 11.998107 H 31.79001 Z M 8.4113465,32.871334 h 3.1301895 v 2.852203 H 8.4113465 Z m 4.7124215,-3.85221 h 3.844221 v 3.016775 h -3.844221 z m 3.844222,0.794135 h 5.220569 v 3.229529 H 16.96799 Z m 5.204762,-2.463312 h 4.315671 v 4.87077 h -4.315671 z m 1.67058,-2.950852 h 1.879406 v 2.911871 h -1.879406 z m -1.687661,-3.32241 h 4.106848 v 3.335424 h -4.106866 z m -5.567348,-1.21772 h 5.568605 v 2.964842 h -5.568605 z m -3.394966,-3.957237 h 3.84422 v 2.966292 h -3.84422 z m 3.844223,0.780848 h 5.220568 V 19.85805 H 17.03758 Z m 5.204762,-2.42209 h 4.315669 v 4.78924 h -4.315669 z m 1.670577,-2.901449 h 1.879406 v 2.86314 h -1.879406 z m -1.68766,-3.2668083 h 4.106847 v 3.2795823 h -4.106847 z m -5.567328,-1.19731 h 5.568603 v 2.915184 H 16.657931 Z M 7.6943575,29.019124 h 5.4293915 v 3.85221 H 7.6943575 Z M 6.0237765,26.01643 h 8.1440865 v 3.041964 H 6.0237765 Z m 1.044112,-4.841295 H 13.262963 V 26.01643 H 7.0678885 Z m 1.252937,-3.439596 h 3.6892005 v 3.435767 H 8.3208255 Z M 6.2325965,14.00117 h 6.9607565 v 3.7481 H 6.2325965 Z m 1.598422,-3.618438 H 11.520218 V 14.02671 H 7.8310185 Z M 7.1374965,6.8949187 H 11.870812 V 10.382732 H 7.1374965 Z m 0,-3.071361 h 3.4107715 v 3.071361 H 7.1374965 Z m 4.7333155,3.071361 h 4.787119 v 2.030222 h -4.787119 z" />
  </g>
</svg>
