<?xml version="1.0" encoding="UTF-8" standalone="no"?>
<!-- Created with Inkscape (http://www.inkscape.org/) -->

<svg
   width="210mm"
   height="297mm"
   viewBox="0 0 210 297"
   version="1.1"
   id="svg5"
   inkscape:version="1.1 (c68e22c387, 2021-05-23)"
   sodipodi:docname="dealy svg.svg"
   xmlns:inkscape="http://www.inkscape.org/namespaces/inkscape"
   xmlns:sodipodi="http://sodipodi.sourceforge.net/DTD/sodipodi-0.dtd"
   xmlns="http://www.w3.org/2000/svg"
   xmlns:svg="http://www.w3.org/2000/svg">
  <sodipodi:namedview
     id="namedview7"
     pagecolor="#ffffff"
     bordercolor="#666666"
     borderopacity="1.0"
     inkscape:pageshadow="2"
     inkscape:pageopacity="0.0"
     inkscape:pagecheckerboard="0"
     inkscape:document-units="mm"
     showgrid="false"
     inkscape:zoom="0.27057957"
     inkscape:cx="1160.472"
     inkscape:cy="145.98294"
     inkscape:window-width="1680"
     inkscape:window-height="956"
     inkscape:window-x="-11"
     inkscape:window-y="-11"
     inkscape:window-maximized="1"
     inkscape:current-layer="layer1" />
  <defs
     id="defs2">
    <inkscape:path-effect
       effect="spiro"
       id="path-effect2734"
       is_visible="true"
       lpeversion="1" />
    <inkscape:path-effect
       effect="spiro"
       id="path-effect2445"
       is_visible="true"
       lpeversion="1" />
    <inkscape:path-effect
       effect="spiro"
       id="path-effect1012"
       is_visible="true"
       lpeversion="1" />
    <inkscape:path-effect
       effect="spiro"
       id="path-effect905"
       is_visible="true"
       lpeversion="1" />
  </defs>
  <g
     inkscape:label="Layer 1"
     inkscape:groupmode="layer"
     id="layer1">
    <path
       id="path903"
       style="fill:none;stroke:#000000;stroke-width:0.14076px;stroke-linecap:butt;stroke-linejoin:miter;stroke-opacity:1"
       inkscape:path-effect="#path-effect905"
       inkscape:original-d="m 88.8123,100.39978 c 1.23659,1.32257 2.473046,2.64498 3.709379,3.96723 M 49.86386,70.149646 c 0.453676,-2.059851 2.578636,-0.212391 2.907894,0.92719 0.978091,3.385172 -2.002761,6.166693 -4.514541,6.36756 -4.639618,0.371025 -7.873889,-5.096664 -7.711453,-10.265844 0.243753,-7.756915 6.562634,-12.915068 12.667846,-12.237957 8.276203,0.917897 13.66056,10.762237 12.663778,20.314989 C 64.605821,87.441709 54.510973,95.27074 44.715503,93.52503 32.715867,91.386497 25.069128,76.897286 26.987721,62.855544 29.270968,46.14499 43.2864,35.55657 56.847848,38.439821 72.640022,41.797343 82.604728,61.060184 79.722898,79.670267 76.423276,100.9783 58.401894,114.38044 41.016203,110.32118 21.377477,105.73588 9.056536,81.613547 12.927418,58.372386 17.251803,32.408361 39.340687,16.152395 60.597826,21.413574 84.127301,27.237161 98.834139,56.284284 93.955746,84.208431 92.963528,89.887949 91.217691,95.369868 88.8123,100.39978 M 49.86386,70.149646 c 0.529686,-2.268858 2.854339,-0.184092 3.202944,1.082525 1.035536,3.762583 -2.298516,6.779704 -5.078772,6.952378 -5.135533,0.318934 -8.637638,-5.790903 -8.387723,-11.503781 0.375024,-8.572806 7.432586,-14.15229 14.174518,-13.283338 9.13934,1.177936 14.959501,12.169807 13.727353,22.713619 C 65.930377,89.561427 54.661025,98.020035 43.852937,95.89679 30.612822,93.295758 22.354093,77.12306 24.66662,61.633477 27.418672,43.199898 43.060921,31.767137 58.017963,35.222423 75.435293,39.246056 86.192314,60.743079 82.752508,81.26536 78.814033,104.76283 58.703737,119.22812 39.533848,114.39714 17.879701,108.94011 4.5832377,82.023069 9.1797037,56.399196 14.314681,27.773319 38.961621,10.232331 62.396222,16.468614 c 25.939695,6.902937 41.807508,39.312777 36.033262,70.09525 -1.174427,6.260874 -3.179532,12.288417 -5.907805,17.803146"
       d="m 88.8123,100.39978 3.709379,3.96723 M 49.86386,70.149646 c 0.520406,-0.114494 1.0709,-0.08913 1.57857,0.07275 0.50767,0.161872 0.971245,0.459842 1.329324,0.854444 0.559948,0.61706 0.848166,1.462476 0.825573,2.29542 -0.02259,0.832944 -0.346834,1.647617 -0.868553,2.29732 -0.521719,0.649704 -1.234307,1.1365 -2.014336,1.429519 -0.78003,0.293018 -1.625523,0.39607 -2.457225,0.345301 -1.184032,-0.07228 -2.343412,-0.454966 -3.357439,-1.070519 -1.014026,-0.615552 -1.883244,-1.460721 -2.557923,-2.436407 -1.349358,-1.951373 -1.896412,-4.388569 -1.796091,-6.758918 0.137899,-3.258236 1.495908,-6.46944 3.816038,-8.761189 2.32013,-2.291749 5.593674,-3.617048 8.851808,-3.476768 2.258518,0.09724 4.470892,0.879216 6.341836,2.148044 1.870944,1.268828 3.402828,3.014381 4.500039,4.990864 2.194423,3.952966 2.609041,8.723908 1.821903,13.176081 -0.890254,5.035415 -3.317096,9.847954 -7.104488,13.283594 -3.787391,3.43564 -8.961057,5.404561 -14.057393,4.985852 -3.333237,-0.273855 -6.56115,-1.544238 -9.265331,-3.512199 -2.704181,-1.96796 -4.888191,-4.619347 -6.419706,-7.592548 -3.063031,-5.946402 -3.457353,-13.027099 -2.042745,-19.564739 1.490427,-6.888037 4.999538,-13.417715 10.329804,-18.027995 5.330266,-4.610281 12.526397,-7.169681 19.530323,-6.387728 4.416268,0.493054 8.658972,2.279736 12.198831,4.965984 3.539858,2.686248 6.381364,6.254653 8.356303,10.235375 3.949878,7.961443 4.355632,17.377961 2.319916,26.029087 -2.066889,8.7836 -6.672761,17.076973 -13.580695,22.882503 -6.907933,5.80552 -16.179921,8.94795 -25.126,7.76841 -5.507753,-0.7262 -10.77048,-3.0446 -15.149215,-6.46358 C 21.488252,100.43863 17.987923,95.939818 15.567326,90.939476 10.726132,80.938792 10.29934,69.167943 12.927418,58.372386 15.541106,47.635937 21.216312,37.498249 29.729184,30.453129 c 8.512872,-7.04512 19.953752,-10.762306 30.868642,-9.039555 6.552869,1.034272 12.760597,3.966771 17.893015,8.170115 5.132417,4.203345 9.199113,9.652272 12.013193,15.659831 5.628159,12.015118 6.159703,25.976223 3.451712,38.964911 -1.157802,5.553318 -2.884194,10.987925 -5.143446,16.191349 M 49.86386,70.149646 c 0.578548,-0.11784 1.188104,-0.0797 1.747449,0.109351 0.559344,0.189046 1.067059,0.528515 1.455495,0.973174 0.60357,0.690933 0.904356,1.626794 0.864459,2.54336 -0.0399,0.916567 -0.410378,1.807713 -0.994877,2.514853 -0.584498,0.70714 -1.375853,1.232643 -2.238568,1.544746 -0.862715,0.312104 -1.794698,0.414995 -2.709786,0.349419 -1.313205,-0.0941 -2.595262,-0.533791 -3.712078,-1.230989 -1.116817,-0.697198 -2.069035,-1.648268 -2.802292,-2.741747 -1.466515,-2.186959 -2.030662,-4.902603 -1.873353,-7.531045 0.214698,-3.587345 1.770262,-7.099059 4.365774,-9.584709 2.595512,-2.48565 6.220334,-3.894728 9.808744,-3.698629 2.504426,0.136862 4.948835,1.033729 7.007036,2.467149 2.0582,1.433419 3.732915,3.392155 4.920406,5.601395 2.374984,4.418482 2.75644,9.72079 1.799911,14.645075 -1.074729,5.532789 -3.839659,10.789862 -8.074069,14.509616 -4.234409,3.719754 -9.963818,5.80478 -15.575174,5.276125 C 40.159223,95.548799 36.595487,94.096476 33.622919,91.876462 30.650352,89.656449 28.2649,86.684385 26.609967,83.363871 23.3001,76.722843 22.976247,68.85851 24.66662,61.633477 c 1.769689,-7.564044 5.761026,-14.693013 11.717879,-19.679241 5.956853,-4.986227 13.924107,-7.686999 21.633464,-6.731813 4.89166,0.606075 9.573662,2.644554 13.463148,5.672351 3.889487,3.027797 6.991545,7.025697 9.123876,11.469663 4.264661,8.88793 4.565397,19.343909 2.147521,28.900923 -2.439647,9.643067 -7.674045,18.695001 -15.391957,24.96991 -7.717912,6.2749 -17.981777,9.58245 -27.826703,8.16187 C 33.4354,113.51716 27.62999,110.87499 22.820764,107.02313 18.011538,103.17128 14.192173,98.132611 11.580499,92.551877 6.3571507,81.390407 6.0687679,68.323283 9.1797037,56.399196 12.255185,44.611005 18.70065,33.54243 28.210805,25.928168 37.72096,18.313906 50.388429,14.411201 62.396222,16.468614 c 7.247879,1.241851 14.085186,4.584 19.711099,9.319299 5.625913,4.735298 10.051485,10.835822 13.080083,17.536683 6.057196,13.401722 6.435596,28.88318 3.24208,43.239268 -1.360037,6.113902 -3.342846,12.089086 -5.907805,17.803146" />
    <path
       style="fill:#000000;stroke:#000000;stroke-width:7.72165;stroke-linecap:round;stroke-linejoin:round;stroke-dasharray:1.93041, 1.93041;stroke-opacity:0.955017;paint-order:stroke markers fill"
       d=""
       id="path1320"
       transform="scale(0.26458333)" />
    <path
       style="fill:#000000;stroke:#000000;stroke-width:2.73083;stroke-linecap:round;stroke-linejoin:round;stroke-dasharray:0.682707, 0.682707;stroke-opacity:0.955017;paint-order:stroke markers fill"
       d=""
       id="path1472"
       transform="scale(0.26458333)" />
    <g
       id="g1768"
       transform="matrix(0.5042605,0,0,0.58025146,20.083298,111.91949)">
      <path
         id="path1008"
         style="fill:none;stroke:#000000;stroke-width:0.237046px;stroke-linecap:butt;stroke-linejoin:miter;stroke-opacity:1"
         d="m 321.122,285.86676 6.66599,6.26079 m -76.65881,-53.99937 c 0.90942,-0.31447 1.91491,-0.3446 2.84153,-0.0851 0.92661,0.25946 1.77026,0.80736 2.38414,1.54836 0.87321,1.05404 1.25785,2.47756 1.12083,3.83944 -0.13702,1.36189 -0.77596,2.65366 -1.71177,3.65253 -0.93581,0.99888 -2.1572,1.71113 -3.46277,2.12219 -1.30558,0.41106 -2.69364,0.52816 -4.0592,0.43467 -3.90675,-0.26746 -7.62167,-2.29735 -10.11525,-5.31667 -2.49358,-3.01931 -3.77778,-6.96842 -3.74272,-10.88415 0.0501,-5.59065 2.79338,-11.05168 7.10611,-14.60952 4.31272,-3.55784 10.09095,-5.21029 15.65881,-4.70353 7.29757,0.66419 14.06827,4.98711 18.16958,11.05958 4.1013,6.07248 5.59541,13.74191 4.58803,21.00007 -1.21332,8.74191 -6.03035,16.92293 -13.06904,22.24741 -7.03868,5.32449 -16.20968,7.73367 -24.9602,6.5841 -10.70954,-1.40693 -20.46123,-8.09445 -26.20993,-17.23918 -5.7487,-9.14473 -7.57451,-20.53282 -5.64802,-31.16119 2.17474,-11.99796 9.10293,-23.08419 18.98926,-30.22148 9.88633,-7.1373 22.62904,-10.22405 34.67128,-8.30964 14.15597,2.25044 26.90363,11.34397 34.33145,23.60299 7.42783,12.25902 9.6234,27.41574 6.77647,41.46391 -3.10477,15.32051 -12.17776,29.38691 -24.97284,38.36708 -12.79509,8.98017 -29.19318,12.73023 -44.58555,10.00398 -17.64005,-3.12435 -33.41187,-14.66403 -42.53765,-30.08003 -9.12578,-15.416 -11.70144,-34.38661 -7.93967,-51.9018 4.01771,-18.70691 15.2401,-35.8338 30.99,-46.69801 15.7499,-10.86422 35.89297,-15.26925 54.67674,-11.62773 21.09245,4.08909 39.78018,18.18414 50.55515,36.7721 10.77497,18.58796 13.77608,41.29328 9.39115,62.32622 -1.85474,8.89652 -4.97699,17.52779 -9.2431,25.55203 m -69.99282,-47.73859 c 1.01139,-0.33289 2.12447,-0.34928 3.14522,-0.0463 1.02075,0.30296 1.94466,0.92393 2.61068,1.75468 0.94561,1.17949 1.3457,2.75798 1.17137,4.25964 -0.17433,1.50166 -0.9012,2.91753 -1.95082,4.0055 -1.04962,1.08797 -2.40966,1.85515 -3.85789,2.28877 -1.44822,0.43362 -2.98288,0.54168 -4.48954,0.41782 -4.32072,-0.3552 -8.40205,-2.66092 -11.11336,-6.04375 -2.71132,-3.38284 -4.06679,-7.77671 -3.95991,-12.11069 0.15227,-6.17465 3.27551,-12.15939 8.09854,-16.01787 4.82303,-3.85848 11.23126,-5.59041 17.37397,-4.94493 8.06748,0.84774 15.49542,5.73868 19.93801,12.5259 4.44259,6.78722 5.97061,15.30249 4.73091,23.3191 -1.49019,9.63641 -6.95156,18.59084 -14.81649,24.35486 -7.86493,5.76402 -18.03359,8.27519 -27.6827,6.86956 -11.83207,-1.72363 -22.52262,-9.2776 -28.74018,-19.49086 -6.21755,-10.21326 -8.05309,-22.85017 -5.73885,-34.58103 2.60749,-13.21736 10.45157,-25.34503 21.49345,-33.06347 11.04189,-7.71845 25.16707,-10.91863 38.44103,-8.61655 15.63326,2.71125 29.60253,12.97427 37.6295,26.66066 8.02697,13.6864 10.21123,30.501 6.82005,46.00099 -3.69143,16.87233 -13.95654,32.25549 -28.24336,41.96061 -14.28681,9.70511 -32.46074,13.57723 -49.42331,10.32557 -19.47529,-3.73334 -36.75322,-16.7507 -46.60943,-33.95768 -9.85621,-17.20697 -12.40004,-38.24891 -7.93889,-57.57048 4.75621,-20.59947 17.44722,-39.32929 35.03087,-51.06705 17.58365,-11.73777 39.90763,-16.27044 60.60258,-11.94851 23.27579,4.86091 43.73059,20.75728 55.35703,41.49894 11.62644,20.74166 14.58452,45.91513 9.39703,69.12032 -2.19145,9.803 -5.77755,19.29314 -10.6167,28.09563"
         inkscape:original-d="m 321.122,285.86676 c 2.22223,2.08718 4.44422,4.17411 6.66599,6.26079 m -76.65881,-53.99937 c 0.81529,-3.25071 4.63398,-0.33518 5.22567,1.46322 1.7577,5.34224 -3.59909,9.73183 -8.11291,10.04883 -8.33769,0.58552 -14.14988,-8.04319 -13.85797,-16.20082 0.43804,-12.2414 11.79347,-20.38163 22.76492,-19.31305 14.87286,1.44855 24.54889,16.98418 22.75761,32.05965 -2.28508,19.23126 -20.42616,31.58647 -38.02924,28.83151 -21.56411,-3.37488 -35.30579,-26.2407 -31.85795,-48.40037 4.10314,-26.37139 29.28976,-43.08127 53.66054,-38.53112 28.37954,5.29859 46.28675,35.69782 41.10792,65.0669 -5.92963,33.62681 -38.3152,54.77709 -69.55839,48.37106 -35.29204,-7.23618 -57.43355,-45.30431 -50.47732,-81.98183 7.77119,-40.97454 47.46631,-66.62855 85.66674,-58.32574 42.28396,9.19037 68.71308,55.03044 59.9463,99.09832 -1.78308,8.963 -4.92046,17.61417 -9.2431,25.55203 m -69.99282,-47.73859 c 0.95188,-3.58055 5.12943,-0.29052 5.7559,1.70837 1.86092,5.93783 -4.13058,10.69923 -9.12688,10.97173 -9.22888,0.50333 -15.52238,-9.13878 -15.07327,-18.15444 0.67394,-13.52897 13.35683,-22.33411 25.47251,-20.9628 16.42397,1.85894 26.88317,19.20551 24.66892,35.845 -2.82463,21.22641 -23.07637,34.57518 -42.49919,31.22442 -23.79333,-4.10475 -38.63479,-29.62734 -34.47903,-54.07189 4.94561,-29.09054 33.05573,-47.13289 59.93448,-41.68002 31.30005,6.34982 50.6311,40.27487 44.44955,72.66165 -7.07769,37.08202 -43.21717,59.91009 -77.66667,52.28618 -38.91388,-8.6119 -62.80847,-51.09042 -54.54832,-91.52816 9.22787,-45.17529 53.51999,-72.85723 95.63345,-63.01556 46.61528,10.89371 75.13075,62.04057 64.75406,110.61926 -2.11052,9.88046 -5.71382,19.39269 -10.6167,28.09563"
         inkscape:path-effect="#path-effect1012" />
      <path
         style="fill:#000000;stroke:#000000;stroke-width:15.4166;stroke-linecap:round;stroke-linejoin:round;stroke-dasharray:3.85415, 3.85415;stroke-opacity:0.955017;paint-order:stroke markers fill"
         d="m 901.7093,1165.8792 c -40.85624,-4.3582 -78.47246,-18.128 -113.45762,-41.5323 -61.92544,-41.4269 -102.67007,-104.3294 -117.32281,-181.12573 -3.12638,-16.38565 -3.62431,-24.16073 -3.58407,-55.96491 0.0431,-34.07311 0.3893,-38.55344 4.46716,-57.81217 20.73842,-97.94265 81.32292,-178.88762 165.51642,-221.14108 29.52672,-14.81832 55.29675,-23.22803 90.87817,-29.65688 22.965,-4.14932 71.79138,-3.75664 96.63895,0.7772 47.5915,8.68383 94.6314,30.27256 135.4127,62.147 14.5445,11.36796 44.6192,41.739 55.6421,56.19048 29.0264,38.05497 52.1476,87.99158 62.1794,134.29364 11.4171,52.69631 11.1548,113.19797 -0.7211,166.36365 -5.2566,23.5321 -15.865,54.9773 -26.2318,77.7551 -13.3154,29.2565 -10.4828,27.5294 -24.151,14.726 l -11.7284,-10.9863 6.4291,-12.8219 c 13.7501,-27.4222 25.0977,-63.5908 31.0225,-98.87835 4.785,-28.49904 5.2338,-78.16339 0.9551,-105.6933 -16.3603,-105.26519 -76.284,-189.25797 -165.6611,-232.20102 -36.6219,-17.59572 -65.4913,-24.68187 -105.98901,-26.0156 -48.30748,-1.59094 -86.9225,6.21555 -128.81378,26.04126 -118.16485,55.92339 -183.8046,190.05615 -155.9795,318.73918 14.44784,66.81703 51.83679,121.74773 107.48543,157.91433 38.71322,25.1601 76.57865,36.3988 122.63483,36.3988 27.01526,0 46.18924,-2.9228 70.5942,-10.761 36.52633,-11.7314 66.70623,-30.7855 94.30523,-59.5397 30.7064,-31.9917 51.4928,-71.6455 61.0602,-116.48334 4.6322,-21.70934 5.0446,-65.38173 0.8182,-86.65131 -12.826,-64.54649 -50.2706,-115.40924 -105.4602,-143.25142 -28.6145,-14.43549 -52.55485,-19.40193 -87.12538,-18.0742 -24.78276,0.95181 -38.51066,3.77847 -59.85172,12.32385 -52.27312,20.93117 -91.86723,67.04243 -106.9414,124.54384 -3.26591,12.45805 -3.7889,18.22139 -3.7889,41.75324 0,32.59099 2.95652,46.7255 15.11577,72.26522 19.02912,39.96947 51.12125,66.93122 93.09352,78.21132 17.25122,4.6362 45.91163,4.5661 63.58277,-0.1557 24.04271,-6.4241 43.12164,-17.1433 59.28874,-33.3105 24.4074,-24.40738 37.8311,-56.39034 37.8566,-90.19614 0.024,-31.40903 -10.1202,-57.36014 -30.3268,-77.58501 -29.73217,-29.75923 -70.63395,-37.01065 -105.16183,-18.64401 -41.77792,22.22319 -52.70275,79.64868 -21.07265,110.76652 4.26446,4.1954 6.9689,7.62799 6.00988,7.62799 -3.21552,0 -16.55832,-14.77297 -20.66834,-22.88368 -6.49172,-12.8108 -9.12292,-28.48611 -7.05578,-42.03473 4.93001,-32.31291 29.69241,-59.02793 62.66241,-67.60364 15.19448,-3.95217 38.85344,-2.6147 53.57404,3.02863 77.92107,29.87205 95.55667,134.85682 33.84937,201.50637 -29.222,31.5624 -68.00289,47.1577 -111.20496,44.7196 -36.6298,-2.0672 -70.36283,-18.0633 -97.63792,-46.2994 -20.63782,-21.36498 -33.47302,-44.81675 -41.99899,-76.73819 -3.62859,-13.58552 -4.11119,-18.55103 -4.14762,-42.67465 -0.0551,-36.51671 3.95209,-54.09133 19.79717,-86.82489 32.44112,-67.01846 100.74795,-109.89709 175.0691,-109.89709 73.93942,0 143.97132,44.30295 179.56362,113.59392 69.6288,135.55293 -7.8502,309.4735 -157.09404,352.6363 -28.22514,8.163 -66.14912,11.907 -92.32596,9.1147 z"
         id="path1244"
         transform="scale(0.26458333)" />
      <path
         style="fill:#000000;stroke:#000000;stroke-width:3.86083;stroke-linecap:round;stroke-linejoin:round;stroke-dasharray:0.965207, 0.965207;stroke-opacity:0.955017;paint-order:stroke markers fill"
         d="m 934.2395,947.09764 c -5.65908,-0.79147 -15.85355,-4.00078 -18.7828,-5.91298 l -0.88625,-0.57855 0.88625,-1.37133 c 0.48745,-0.75422 1.06724,-1.29308 1.28843,-1.19746 0.22119,0.0956 2.12144,0.9292 4.22278,1.85238 7.1473,3.14003 15.48505,4.68829 22.92366,4.25676 13.00813,-0.75463 23.37571,-6.95175 27.80207,-16.61841 1.57109,-3.4311 2.02896,-5.72365 2.03307,-10.17966 0.004,-4.39349 0.59117,-3.817 0.98612,0.96826 0.5805,7.03351 -2.45045,14.14496 -8.46283,19.85614 -4.38762,4.16781 -9.85159,6.94725 -16.48056,8.38342 -3.45871,0.74933 -11.93139,1.04472 -15.52994,0.54143 z"
         id="path1396"
         transform="scale(0.26458333)" />
      <path
         style="fill:#000000;stroke:#000000;stroke-width:1.56867;stroke-linecap:round;stroke-linejoin:round;stroke-dasharray:0.392168, 0.392168;stroke-opacity:0.955017;paint-order:stroke markers fill"
         d="m 972.91009,912.07651 c -0.12017,-0.47182 -0.4638,-1.44114 -0.76363,-2.15404 -0.29983,-0.7129 -0.51743,-1.3239 -0.48354,-1.35778 0.0896,-0.0896 1.01912,1.65432 1.58219,2.96819 0.37603,0.8774 0.43791,1.161 0.27581,1.26387 -0.34452,0.21862 -0.38337,0.17281 -0.61083,-0.72024 z"
         id="path1585"
         transform="scale(0.26458333)" />
      <path
         style="fill:#000000;stroke:#000000;stroke-width:1.10855;stroke-linecap:round;stroke-linejoin:round;stroke-dasharray:0.277139, 0.277139;stroke-opacity:0.955017;paint-order:stroke markers fill"
         d="m 937.47876,948.43596 c -0.89754,-0.0693 -3.99207,-0.39346 -4.47464,-0.46874 -0.40142,-0.0626 -0.43303,-0.096 -0.43303,-0.45695 0,-0.21417 0.039,-0.38937 0.0866,-0.38933 0.0476,4e-5 1.02195,0.11346 2.16514,0.25206 1.71729,0.2082 2.72076,0.25327 5.77372,0.25937 3.88367,0.008 4.88611,-0.0657 7.91,-0.57991 7.33846,-1.24779 13.59814,-4.28437 18.37758,-8.91497 2.4802,-2.40296 4.03227,-4.49897 5.53273,-7.47172 2.12206,-4.20429 2.9986,-8.74221 2.52692,-13.08203 -0.11721,-1.07842 -0.59747,-3.47044 -0.80791,-4.02395 -0.1,-0.26291 -0.10695,-0.2639 -0.48075,-0.0678 -0.20863,0.10945 -0.39224,0.20328 -0.40804,0.20849 -0.0158,0.005 0.0565,0.55083 0.16068,1.21248 0.2265,1.43864 0.25397,4.45906 0.0535,5.87972 -0.83038,5.88365 -4.02999,11.51167 -8.83717,15.54434 -5.11051,4.28712 -11.80343,6.90459 -19.29306,7.54512 -3.14768,0.26919 -7.93562,0.0946 -11.20101,-0.40841 -1.6025,-0.24687 -1.55891,-0.22719 -1.55891,-0.70348 0,-0.36611 0.0272,-0.40217 0.25982,-0.3446 0.60402,0.14948 3.61385,0.54105 5.10974,0.66477 2.05002,0.16955 7.1371,0.0677 8.94927,-0.17908 6.30929,-0.8594 11.55341,-2.90615 16.0017,-6.24539 5.7389,-4.30808 9.31445,-10.52664 9.8688,-17.16371 0.13543,-1.62143 0.0726,-2.89971 -0.2403,-4.88744 -0.6426,-4.0825 -2.39022,-7.45407 -5.33284,-10.28832 -4.35077,-4.19055 -10.33197,-5.79591 -16.3135,-4.37857 -0.63511,0.15049 -1.23948,0.30654 -1.34306,0.34678 -0.13785,0.0536 -0.22177,-0.0228 -0.31313,-0.28487 -0.11605,-0.33291 -0.10284,-0.36641 0.18832,-0.47743 1.54882,-0.59053 4.55158,-0.97737 6.77969,-0.87339 11.49423,0.53638 20.0826,10.18606 19.64795,22.07594 -0.24502,6.70258 -3.10848,12.8637 -8.34641,17.95842 -5.39653,5.249 -12.52455,8.43946 -21.29007,9.52932 -1.37745,0.17127 -7.36502,0.31772 -8.71831,0.21325 z m 36.13133,-36.40494 c -0.81727,-2.17129 -2.6959,-5.21418 -3.96108,-6.41593 -0.49764,-0.47268 -0.44535,-0.29983 0.14588,0.48221 0.76756,1.0153 1.73186,2.67831 2.19617,3.78748 0.35098,0.83844 0.53553,1.38496 1.06107,3.14216 0.0328,0.10981 0.1386,0.0987 0.4433,-0.0466 l 0.40016,-0.19083 z"
         id="path1624"
         transform="scale(0.26458333)" />
    </g>
    <path
       style="fill:#ffffff;stroke:#000000;stroke-width:11.5607;stroke-linecap:round;stroke-linejoin:round;stroke-dasharray:2.89018, 2.89018;stroke-opacity:0.955017;paint-order:stroke markers fill"
       d=""
       id="path2523"
       transform="scale(0.26458333)" />
    <path
       style="fill:#ffffff;stroke:#000000;stroke-width:8.21754;stroke-linecap:round;stroke-linejoin:round;stroke-dasharray:2.05438, 2.05438;stroke-opacity:0.955017;paint-order:stroke markers fill"
       d=""
       id="path2562"
       transform="scale(0.26458333)" />
    <g
       id="g2728"
       transform="matrix(0.63759833,0,0,0.62007267,49.491401,27.796798)">
      <path
         style="fill:#ffffff;stroke:#000000;stroke-width:11.5607;stroke-linecap:round;stroke-linejoin:round;stroke-dasharray:2.89018, 2.89018;stroke-opacity:0.955017;paint-order:stroke markers fill"
         d="m 542.2996,504.54149 c -64.61221,-8.12654 -124.09822,-41.24162 -167.58719,-93.29358 -32.49144,-38.88903 -54.01834,-89.44088 -61.79374,-145.1109 -2.08953,-14.9606 -2.11994,-63.29202 -0.0489,-77.67347 C 323.08622,117.52079 352.49514,56.868372 400.9038,6.9037264 446.4099,-40.065073 501.14978,-69.416456 565.29226,-81.24097 c 63.38404,-11.684693 123.88766,-3.318532 181.93853,25.15762 81.29509,39.878317 141.82855,111.6299 168.46963,199.69064 21.66888,71.62532 21.51309,147.27097 -0.4532,220.07314 -7.62987,25.2874 -18.44614,51.88736 -29.03327,71.40021 l -3.13019,5.76914 -11.59834,-10.97664 -11.59835,-10.97665 4.03927,-8.03913 c 2.22161,-4.42152 6.22189,-13.18726 8.88951,-19.47941 39.7838,-93.83838 38.05351,-199.9414 -4.67388,-286.60908 C 853.26554,74.593675 837.95361,52.89355 814.72819,29.070663 778.91239,-7.6664835 738.99906,-32.389998 692.95334,-46.36036 608.19044,-72.077579 512.27247,-52.551488 441.1425,4.9009587 396.19681,41.204078 359.69643,98.559324 345.01681,155.94906 c -7.23049,28.2675 -8.4354,38.71897 -8.39932,72.85651 0.0365,34.55547 1.88216,49.03129 9.72837,76.3022 26.74879,92.97031 101.5018,160.69759 193.75571,175.54542 14.10853,2.2707 51.36856,1.9354 66.23319,-0.59602 64.24904,-10.94149 115.15945,-42.63044 152.90639,-95.17585 10.19852,-14.1968 25.47782,-44.60656 31.10965,-61.91627 15.33189,-47.12329 15.57449,-96.7043 0.69925,-142.90357 -5.19946,-16.1484 -18.91134,-42.81317 -28.80975,-56.02478 -30.78027,-41.083096 -73.37861,-67.513114 -121.57038,-75.428016 -8.62028,-1.415765 -16.5202,-1.72281 -31.92668,-1.240885 -29.98386,0.93791 -49.2014,5.647921 -74.66287,18.299075 -76.1956,37.859616 -116.10846,127.521986 -92.7229,208.297686 6.99523,24.16211 17.90537,43.6008 34.31727,61.14338 33.83073,36.16146 80.96067,51.98921 126.36622,42.43786 48.59535,-10.22235 85.76307,-45.83529 99.08283,-94.93807 2.24526,-8.27708 2.67557,-13.01599 2.69847,-29.71736 0.0234,-17.01441 -0.3695,-21.32944 -2.7334,-30.02552 -8.87207,-32.63764 -30.36916,-57.8551 -59.27154,-69.52929 -39.51116,-15.95926 -85.01363,-0.95178 -103.18343,34.03164 -6.29802,12.12594 -8.76836,21.76488 -8.76836,34.21293 0,25.34742 12.05315,45.7024 33.2755,56.1946 9.05055,4.47455 9.74266,4.61951 22.05392,4.61951 10.14344,0 13.68287,-0.47354 17.52709,-2.34498 2.64933,-1.28974 5.35887,-2.59714 6.0212,-2.90537 0.66233,-0.30821 0.47748,0.32012 -0.41076,1.39633 -2.89289,3.50496 -14.1447,6.86462 -22.99024,6.86462 -21.95261,0 -42.65558,-13.51381 -52.64393,-34.3632 -11.33956,-23.66989 -9.23565,-51.00863 5.63673,-73.24467 10.82974,-16.19181 24.73403,-26.79071 44.20249,-33.69445 9.85612,-3.4951 11.66033,-3.74359 27.40995,-3.77498 14.37822,-0.0287 18.18855,0.38207 25.89116,2.79087 38.16435,11.93496 64.70642,40.88051 74.92046,81.70476 2.20386,8.80857 2.64224,13.87068 2.58706,29.87356 -0.058,16.82163 -0.46577,20.76815 -3.21184,31.08526 -23.57623,88.57693 -118.78462,132.08372 -200.13875,91.45616 -44.44586,-22.1959 -75.06387,-63.01146 -86.33464,-115.08909 -2.25234,-10.40714 -2.65532,-16.01612 -2.65517,-36.95621 1.6e-4,-21.02599 0.39461,-26.47273 2.65991,-36.72931 13.911,-62.98478 52.72836,-113.330281 107.72988,-139.723979 16.41177,-7.875548 31.33048,-12.84983 49.34261,-16.452107 18.21656,-3.643163 50.95822,-3.895794 68.94924,-0.532006 64.15144,11.994417 121.1948,56.9366 149.99166,118.172412 22.27738,47.3723 27.92437,105.38405 15.45064,158.72489 -10.13278,43.3303 -33.24836,85.9824 -64.35852,118.75224 -37.90559,39.92777 -84.96072,65.07006 -140.22158,74.92255 -15.7408,2.80643 -53.73902,4.03906 -68.25,2.21395 z"
         id="path2484"
         transform="scale(0.26458333)" />
      <g
         id="g2722">
        <path
           id="path2441"
           style="fill:none;stroke:#000000;stroke-width:0.237046px;stroke-linecap:butt;stroke-linejoin:miter;stroke-opacity:1"
           inkscape:path-effect="#path-effect2445"
           inkscape:original-d="m 227.10375,110.92889 c 2.22223,2.08718 4.44422,4.17411 6.66599,6.26079 M 157.11093,63.19031 c 0.81529,-3.25071 4.63398,-0.33518 5.22567,1.46322 1.7577,5.34224 -3.59908,9.73183 -8.11291,10.04883 -8.33769,0.58552 -14.14988,-8.04319 -13.85797,-16.20082 0.43804,-12.2414 11.79347,-20.38163 22.76492,-19.31305 14.87286,1.44855 24.54889,16.98418 22.75761,32.05965 -2.28508,19.23126 -20.42616,31.58647 -38.02924,28.83151 -21.56411,-3.37488 -35.30578,-26.2407 -31.85795,-48.40037 4.10314,-26.37139 29.28976,-43.0812698 53.66054,-38.53113 28.37954,5.2986 46.28675,35.69783 41.10792,65.06691 -5.92963,33.62681 -38.3152,54.77709 -69.55839,48.37106 C 105.9191,119.34994 83.777586,81.28181 90.733806,44.60429 98.505,3.6297452 138.20012,-22.024261 176.40055,-13.721449 c 42.28396,9.1903642 68.71308,55.030439 59.9463,99.098319 -1.78308,8.963 -4.92046,17.61417 -9.2431,25.55203 M 157.11093,63.19031 c 0.95188,-3.58055 5.12943,-0.29052 5.7559,1.70837 1.86092,5.93783 -4.13058,10.69923 -9.12688,10.97173 -9.22888,0.50333 -15.52238,-9.13878 -15.07327,-18.15444 0.67395,-13.52897 13.35683,-22.33411 25.47251,-20.9628 16.42397,1.85894 26.88317,19.20551 24.66892,35.845 -2.82463,21.22641 -23.07637,34.57518 -42.49918,31.22442 C 122.5156,99.71784 107.67414,74.19525 111.8299,49.7507 116.77551,20.66016 144.88562,2.6178092 171.76437,8.0706802 203.06442,14.4205 222.39547,48.34555 216.21392,80.73233 c -7.07769,37.08202 -43.21717,59.91009 -77.66667,52.28618 -38.913876,-8.6119 -62.808464,-51.09042 -54.548324,-91.52816 9.227881,-45.1752958 53.519994,-72.85723 95.633454,-63.015565 46.61528,10.893717 75.13075,62.040575 64.75406,110.619265 -2.11052,9.88046 -5.71382,19.39269 -10.6167,28.09563"
           d="m 227.10375,110.92889 6.66599,6.26079 M 157.11093,63.19031 c 0.90942,-0.314469 1.91491,-0.344596 2.84153,-0.08514 0.92661,0.259458 1.77026,0.807355 2.38414,1.548358 0.87321,1.054036 1.25785,2.477564 1.12083,3.839445 -0.13702,1.36188 -0.77596,2.653651 -1.71177,3.652527 -0.93581,0.998875 -2.1572,1.711131 -3.46277,2.122191 -1.30558,0.41106 -2.69364,0.528156 -4.0592,0.434667 -3.90675,-0.267464 -7.62167,-2.297351 -10.11525,-5.316667 -2.49358,-3.019316 -3.77778,-6.968419 -3.74272,-10.884153 0.0501,-5.590647 2.79338,-11.051677 7.10611,-14.609521 4.31272,-3.557844 10.09095,-5.210289 15.65881,-4.703529 7.29757,0.66419 14.06827,4.987108 18.16958,11.059583 4.1013,6.072476 5.59541,13.741912 4.58803,21.000067 -1.21332,8.741912 -6.03035,16.92293 -13.06904,22.247413 -7.03868,5.324484 -16.20968,7.733669 -24.9602,6.584099 -10.70954,-1.406935 -20.46123,-8.094457 -26.20993,-17.239186 -5.7487,-9.144728 -7.57451,-20.532814 -5.64802,-31.161186 2.17473,-11.997959 9.10293,-23.084192 18.98926,-30.221488 9.88632,-7.137295 22.62904,-10.224053 34.67128,-8.309642 14.15598,2.250442 26.90363,11.343972 34.33146,23.602992 7.42782,12.25902 9.62339,27.415745 6.77646,41.463918 -3.10477,15.320508 -12.17776,29.386912 -24.97284,38.367082 -12.79509,8.98016 -29.19318,12.73023 -44.58555,10.00398 C 123.57108,123.46177 107.79925,111.92209 98.673473,96.50609 89.547691,81.090094 86.972041,62.119482 90.733806,44.60429 94.751519,25.897376 105.9739,8.7704912 121.72381,-2.0937242 c 15.7499,-10.8642158 35.89297,-15.2692408 54.67674,-11.6277248 21.09245,4.0890887 39.78018,18.1841429 50.55515,36.772103 10.77496,18.58796 13.77608,41.293277 9.39115,62.326216 -1.85474,8.896517 -4.97699,17.52779 -9.2431,25.55203 M 157.11093,63.19031 c 1.01139,-0.332886 2.12447,-0.349276 3.14522,-0.04631 1.02075,0.302963 1.94466,0.923936 2.61068,1.754683 0.94561,1.179491 1.3457,2.757979 1.17137,4.259641 -0.17433,1.501663 -0.9012,2.917533 -1.95082,4.005503 -1.04962,1.087969 -2.40966,1.855142 -3.85789,2.288764 -1.44822,0.433621 -2.98288,0.541684 -4.48954,0.417822 -4.32072,-0.355204 -8.40205,-2.660917 -11.11336,-6.043754 -2.71132,-3.382838 -4.06679,-7.776703 -3.95991,-12.110686 0.15227,-6.174652 3.27551,-12.159387 8.09854,-16.01787 4.82303,-3.858483 11.23126,-5.59041 17.37397,-4.94493 8.06748,0.847736 15.49542,5.738685 19.93801,12.5259 4.44259,6.787215 5.97061,15.302491 4.73091,23.3191 -1.49019,9.636408 -6.95156,18.590833 -14.81649,24.354857 -7.86492,5.76402 -18.03358,8.27519 -27.68269,6.86956 -11.83207,-1.72363 -22.52262,-9.277594 -28.74018,-19.490855 -6.21756,-10.213261 -8.05309,-22.850175 -5.73885,-34.581032 2.60749,-13.217357 10.45157,-25.345024 21.49345,-33.063469 11.04188,-7.7184459 25.16706,-10.9186313 38.44102,-8.6165508 15.63326,2.7112498 29.60253,12.9742688 37.6295,26.6606628 8.02698,13.686394 10.21123,30.501001 6.82005,46.000987 -3.69143,16.872333 -13.95654,32.255487 -28.24336,41.960607 -14.28681,9.70511 -32.46074,13.57723 -49.42331,10.32557 C 119.07196,129.28517 101.79403,116.26781 91.93782,99.060835 82.081611,81.853859 79.537773,60.811918 83.998926,41.49035 88.755135,20.890874 101.44614,2.1610529 119.0298,-9.5767088 c 17.58365,-11.7377622 39.90763,-16.2704322 60.60258,-11.9485062 23.27579,4.860908 43.73059,20.7572817 55.35703,41.498943 11.62645,20.741661 14.58452,45.915136 9.39703,69.120322 -2.19145,9.803001 -5.77755,19.29314 -10.6167,28.09563" />
        <path
           style="fill:#ffffff;stroke:#000000;stroke-width:4.09001;stroke-linecap:round;stroke-linejoin:round;stroke-dasharray:1.0225, 1.0225;stroke-opacity:0.955017;paint-order:stroke markers fill"
           d="m 612.66088,273.74652 c -0.42378,-0.51062 -0.12232,-1.21724 1.6494,-3.86618 2.97592,-4.44937 4.09514,-8.1666 4.07354,-13.52932 -0.0192,-4.76826 0.55401,-4.17635 0.93408,0.96455 0.37183,5.02957 -1.05863,10.13391 -4.17329,14.89161 -1.54564,2.36099 -1.71481,2.46584 -2.48373,1.53934 z"
           id="path2601"
           transform="scale(0.26458333)" />
      </g>
    </g>
    <path
       style="fill:#0044aa;stroke:#000000;stroke-width:4.43422;stroke-linecap:round;stroke-linejoin:round;stroke-dasharray:1.10855, 1.10855;stroke-opacity:0.955017;paint-order:stroke markers fill"
       d=""
       id="path2941"
       transform="scale(0.26458333)" />
    <g
       id="g3102"
       transform="matrix(0.53897366,0,0,0.50931143,-199.66364,146.2262)">
      <path
         id="path2730"
         style="fill:none;stroke:#000000;stroke-width:0.237046px;stroke-linecap:butt;stroke-linejoin:miter;stroke-opacity:1"
         inkscape:path-effect="#path-effect2734"
         inkscape:original-d="m 544.45106,103.62115 c 2.22223,2.08718 4.44422,4.17411 6.66599,6.26079 M 474.45824,55.882565 c 0.81528,-3.25071 4.63397,-0.33518 5.22567,1.46322 1.75769,5.34224 -3.59909,9.73183 -8.11292,10.04883 -8.33768,0.58552 -14.14987,-8.04319 -13.85797,-16.20082 0.43804,-12.2414 11.79347,-20.38163 22.76493,-19.31305 14.87286,1.44855 24.54889,16.98418 22.75761,32.05965 -2.28508,19.23126 -20.42616,31.58647 -38.02924,28.83151 -21.56411,-3.37488 -35.30579,-26.2407 -31.85795,-48.40037 4.10314,-26.37139 29.28976,-43.0812698 53.66054,-38.5311298 28.37954,5.2985998 46.28675,35.6978298 41.10792,65.0669098 -5.92963,33.626815 -38.3152,54.777095 -69.55839,48.371065 -35.29204,-7.23618 -57.43355,-45.304315 -50.47733,-81.981835 7.7712,-40.9745448 47.46632,-66.628551 85.66675,-58.325739 42.28396,9.190364 68.71308,55.030439 59.9463,99.098319 -1.78308,8.963 -4.92046,17.61417 -9.2431,25.552035 M 474.45824,55.882565 c 0.95188,-3.58055 5.12943,-0.29052 5.75589,1.70837 1.86093,5.93783 -4.13058,10.69923 -9.12687,10.97173 -9.22888,0.50333 -15.52239,-9.13878 -15.07327,-18.15444 0.67394,-13.52897 13.35683,-22.33411 25.47251,-20.9628 16.42397,1.85894 26.88317,19.20551 24.66892,35.845 -2.82463,21.22641 -23.07637,34.57518 -42.49919,31.22442 -23.79333,-4.10475 -38.63479,-29.62734 -34.47903,-54.07189 4.94561,-29.09054 33.05573,-47.1328908 59.93448,-41.6800198 31.30005,6.34982 50.6311,40.2748698 44.44955,72.6616498 -7.07769,37.082025 -43.21717,59.910095 -77.66668,52.286185 -38.91387,-8.6119 -62.80846,-51.090425 -54.54832,-91.528165 9.22788,-45.175296 53.51999,-72.85723 95.63346,-63.015565 46.61528,10.893717 75.13075,62.040575 64.75406,110.619265 -2.11052,9.88046 -5.71382,19.392695 -10.6167,28.095635"
         d="m 544.45106,103.62115 6.66599,6.26079 M 474.45824,55.882565 c 0.90942,-0.314469 1.91491,-0.344596 2.84153,-0.08514 0.92661,0.259458 1.77026,0.807355 2.38414,1.548358 0.87321,1.054037 1.25785,2.477566 1.12083,3.839447 -0.13702,1.361882 -0.77596,2.653653 -1.71178,3.652529 -0.93581,0.998875 -2.1572,1.711131 -3.46277,2.12219 -1.30558,0.411059 -2.69364,0.528154 -4.0592,0.434664 -3.90675,-0.267467 -7.62167,-2.297354 -10.11525,-5.316669 -2.49358,-3.019315 -3.77778,-6.968417 -3.74272,-10.884151 0.0501,-5.590649 2.79338,-11.051681 7.10611,-14.609525 4.31273,-3.557844 10.09096,-5.210287 15.65882,-4.703525 7.29757,0.664193 14.06827,4.987111 18.16958,11.059585 4.1013,6.072475 5.59541,13.74191 4.58803,21.000065 -1.21332,8.741912 -6.03035,16.922931 -13.06904,22.247414 -7.03868,5.324483 -16.20968,7.73367 -24.9602,6.584096 -10.70954,-1.406933 -20.46123,-8.094456 -26.20993,-17.239184 -5.7487,-9.144729 -7.5745,-20.532814 -5.64802,-31.161186 2.17473,-11.997959 9.10293,-23.084192 18.98926,-30.221488 9.88632,-7.1372956 22.62904,-10.224053 34.67128,-8.3096418 14.15598,2.2504419 26.90363,11.3439718 34.33146,23.6029928 7.42782,12.25902 9.62339,27.415744 6.77646,41.463917 -3.10477,15.320508 -12.17776,29.386917 -24.97284,38.367087 -12.79509,8.98016 -29.19318,12.73023 -44.58555,10.00398 -17.64005,-3.12435 -33.41188,-14.66403 -42.53766,-30.080032 -9.12578,-15.415998 -11.70144,-34.386611 -7.93967,-51.901805 4.01771,-18.706915 15.2401,-35.8338005 30.99,-46.698016 15.74991,-10.864215 35.89298,-15.26924 54.67675,-11.627723 21.09245,4.08909 39.78018,18.1841443 50.55515,36.772104 10.77496,18.587959 13.77608,41.293276 9.39115,62.326215 -1.85474,8.896519 -4.97699,17.527798 -9.2431,25.552037 M 474.45824,55.882565 c 1.01139,-0.332884 2.12446,-0.349273 3.14522,-0.04631 1.02075,0.302963 1.94465,0.923935 2.61067,1.75468 0.94561,1.17949 1.3457,2.757977 1.17137,4.259639 -0.17432,1.501662 -0.90119,2.917531 -1.95081,4.005501 -1.04962,1.08797 -2.40967,1.855144 -3.85789,2.288765 -1.44822,0.433622 -2.98288,0.541686 -4.48954,0.417825 -4.32073,-0.355202 -8.40205,-2.660915 -11.11337,-6.043753 -2.71131,-3.382838 -4.06678,-7.776703 -3.9599,-12.110687 0.15227,-6.174651 3.27551,-12.159386 8.09854,-16.017869 4.82303,-3.858484 11.23126,-5.59041 17.37397,-4.944931 8.06748,0.847735 15.49542,5.738684 19.93801,12.5259 4.44259,6.787215 5.97061,15.302491 4.73091,23.3191 -1.49019,9.63641 -6.95156,18.590835 -14.81649,24.35486 -7.86493,5.764024 -18.03359,8.27519 -27.6827,6.86956 -11.83207,-1.723631 -22.52262,-9.277599 -28.74018,-19.490859 -6.21755,-10.213261 -8.05309,-22.850174 -5.73885,-34.581031 2.60749,-13.217359 10.45157,-25.345027 21.49345,-33.0634727 11.04189,-7.7184455 25.16707,-10.9186296 38.44103,-8.6165471 15.63326,2.7112519 29.60253,12.9742708 37.6295,26.6606648 8.02697,13.686393 10.21123,30.501 6.82005,46.000985 -3.69143,16.872335 -13.95654,32.255495 -28.24336,41.960615 -14.28681,9.70512 -32.46074,13.57724 -49.42332,10.32557 -19.47529,-3.73335 -36.75322,-16.7507 -46.60943,-33.957679 -9.85621,-17.206977 -12.40004,-38.248918 -7.93889,-57.570486 4.75621,-20.599477 17.44722,-39.3292985 35.03087,-51.06706 17.58366,-11.737762 39.90764,-16.270432 60.60259,-11.948505 23.27579,4.860909 43.73059,20.757283 55.35703,41.498944 11.62644,20.74166 14.58451,45.915135 9.39703,69.120321 -2.19145,9.803002 -5.77755,19.293135 -10.6167,28.095635" />
      <path
         style="fill:#53676c;stroke:#000000;stroke-width:16.5952;stroke-linecap:round;stroke-linejoin:round;stroke-dasharray:4.1488, 4.1488;stroke-opacity:0.955017;paint-order:stroke markers fill"
         d="m 1744.8238,476.92693 c -101.8046,-10.11019 -193.3069,-89.41531 -222.6168,-192.94214 -8.9548,-31.62938 -10.4646,-43.78151 -10.4766,-84.32377 -0.01,-32.96107 0.5232,-40.67017 3.9981,-57.83151 13.2345,-65.361758 43.4223,-121.535749 90.1536,-167.759513 49.8348,-49.293574 111.1429,-77.966317 183.8817,-85.998287 53.0252,-5.85516 105.9668,3.64748 155.8508,27.974079 65.3848,31.885783 117.5655,84.40188386 149.5468,150.507886 24.627,50.904645 35.2002,98.415645 35.2002,158.173015 0,60.92305 -12.9114,117.00014 -39.5409,171.73481 l -8.2802,17.01913 -11.2953,-11.2953 -11.2953,-11.2953 7.913,-16.96016 c 43.5868,-93.42131 44.3345,-203.25798 1.992,-292.611237 -15.03,-31.717161 -30.5038,-54.175659 -54.0731,-78.481583 -35.1989,-36.298853 -73.8687,-60.988935 -117.7056,-75.153201 -27.6209,-8.92467 -40.0494,-10.909126 -74.3326,-11.868602 -38.3739,-1.073962 -62.5335,2.288928 -95.4075,13.280202 -41.5405,13.888898 -75.869,35.001889 -106.8545,65.7185504 -43.7748,43.3948646 -70.9504,94.8670946 -82.5975,156.4443506 -4.5798,24.21292 -4.0028,80.61078 1.0655,104.1505 7.6845,35.69022 21.9257,69.79483 40.5555,97.12154 12.3963,18.18315 45.4752,50.892 63.4571,62.74722 41.6593,27.46539 80.06,39.36178 127.057,39.36178 64.2807,0 119.5614,-23.2959 164.0317,-69.12471 25.3254,-26.09903 43.2384,-55.48509 54.587,-89.54938 9.136,-27.42293 11.2976,-41.63622 11.2283,-73.83161 -0.07,-32.48471 -2.4514,-47.6095 -11.5682,-73.46834 -22.0196,-62.456802 -70.4507,-107.775123 -133.4583,-124.880446 -11.6797,-3.170835 -18.5787,-3.790507 -42.4681,-3.814528 -25.8859,-0.02603 -30.1213,0.41331 -45.8097,4.751806 -63.7632,17.633194 -111.1045,65.789052 -128.2944,130.502058 -6.1882,23.29564 -6.557,60.98818 -0.8218,83.98348 9.5143,38.14753 31.3058,70.021 61.4863,89.93327 24.9561,16.46538 47.2923,23.49628 74.5445,23.46492 35.3862,-0.0408 66.1379,-12.34154 90.6486,-36.25987 33.0015,-32.20392 46.1902,-77.74401 35.2519,-121.72365 -10.9275,-43.93633 -48.9255,-75.25225 -91.3961,-75.32386 -45.1495,-0.0761 -80.0695,32.74828 -80.2718,75.45465 -0.05,10.4974 4.8821,27.50894 10.0992,34.83563 4.5629,6.40805 4.77,8.75362 0.4256,4.82207 -1.7942,-1.62378 -5.4892,-7.77306 -8.2111,-13.66508 -4.4227,-9.57364 -4.9424,-12.55095 -4.8879,-27.99944 0.049,-13.83867 0.8461,-19.26057 3.9973,-27.18289 12.1331,-30.50285 40.7014,-50.70149 74.596,-52.74163 47.9704,-2.88739 90.7039,30.8193 104.7429,82.61752 4.5361,16.7365 4.1824,46.98563 -0.7544,64.51176 -23.2277,82.46116 -109.5217,125.89132 -187.8342,94.53348 -84.2592,-33.73904 -123.3299,-134.95898 -87.4838,-226.64324 23.9663,-61.299164 72.5078,-103.981173 137.6205,-121.0084066 21.8907,-5.7244994 57.2926,-6.4834014 80.383,-1.7231455 83.9261,17.3020001 147.374,83.5951421 165.5202,172.9428821 4.5547,22.42632 4.0844,73.04423 -0.8867,95.44604 -15.2628,68.77978 -55.6387,128.04702 -111.9091,164.26991 -46.3094,29.81065 -105.9089,44.46084 -159.3028,39.15829 z"
         id="path2828"
         transform="scale(0.26458333)" />
      <path
         style="fill:#0044aa;stroke:#000000;stroke-width:4.43422;stroke-linecap:round;stroke-linejoin:round;stroke-dasharray:1.10855, 1.10855;stroke-opacity:0.955017;paint-order:stroke markers fill"
         d="m 1775.765,257.76267 c -9.8338,-1.75505 -18.5623,-5.74807 -27.1365,-12.4141 -1.4607,-1.13567 -2.6444,-2.19008 -2.6303,-2.34314 0.014,-0.15305 0.6424,-0.76577 1.3964,-1.36159 l 1.3709,-1.0833 1.8828,1.70099 c 5.2419,4.73578 14.4274,9.5048 22.4405,11.65092 3.9775,1.06529 5.4442,1.2157 12.1451,1.24552 6.5982,0.0294 8.1049,-0.1058 11.2237,-1.00692 8.888,-2.56798 15.5008,-7.68633 18.9369,-14.65719 1.6806,-3.40958 2.1915,-5.30606 2.5758,-9.56309 l 0.3459,-3.83193 0.371,2.65309 c 0.6508,4.6541 -0.7671,10.37935 -3.7339,15.07757 -7.3052,11.56847 -22.3889,16.93138 -39.1883,13.93317 z"
         id="path2980"
         transform="scale(0.26458333)" />
    </g>
  </g>
</svg>
