<?xml version="1.0" encoding="UTF-8" standalone="no"?>
<!-- Created with Inkscape (http://www.inkscape.org/) -->

<svg
   width="210mm"
   height="297mm"
   viewBox="0 0 210 297"
   version="1.1"
   id="svg5"
   inkscape:version="1.1 (c68e22c387, 2021-05-23)"
   sodipodi:docname="grain fx icon svg.svg"
   xmlns:inkscape="http://www.inkscape.org/namespaces/inkscape"
   xmlns:sodipodi="http://sodipodi.sourceforge.net/DTD/sodipodi-0.dtd"
   xmlns="http://www.w3.org/2000/svg"
   xmlns:svg="http://www.w3.org/2000/svg">
  <sodipodi:namedview
     id="namedview7"
     pagecolor="#ffffff"
     bordercolor="#666666"
     borderopacity="1.0"
     inkscape:pageshadow="2"
     inkscape:pageopacity="0.0"
     inkscape:pagecheckerboard="0"
     inkscape:document-units="mm"
     showgrid="false"
     inkscape:zoom="0.81454783"
     inkscape:cx="473.88255"
     inkscape:cy="425.38938"
     inkscape:window-width="1680"
     inkscape:window-height="956"
     inkscape:window-x="-11"
     inkscape:window-y="-11"
     inkscape:window-maximized="1"
     inkscape:current-layer="layer1" />
  <defs
     id="defs2" />
  <g
     inkscape:label="Layer 1"
     inkscape:groupmode="layer"
     id="layer1">
    <path
       style="fill:#000000;stroke-width:0.121748"
       d="m 111.16191,77.915685 c -7.29387,-3.073981 -8.61818,-3.667114 -8.6268,-3.863756 -0.005,-0.127765 -0.0615,-0.308408 -0.12418,-0.40142 -0.0813,-0.120591 0.28102,-0.611364 1.26263,-1.710369 1.87563,-2.099951 1.56227,-2.079011 5.63132,-0.376327 11.00359,4.604442 14.55565,6.132187 14.63171,6.293113 0.0873,0.184715 -2.08681,2.728259 -2.85834,3.344047 -0.75147,0.599784 -0.50107,0.682749 -9.91634,-3.285288 z m 9.85714,1.318079 c 0.49663,-0.5617 0.85522,-1.049182 0.79687,-1.083283 -0.27557,-0.161072 -15.65439,-6.575763 -15.76498,-6.575763 -0.19991,0 -1.82991,1.894061 -1.75014,2.033665 0.0395,0.06905 3.13697,1.412642 6.88336,2.985763 3.74638,1.573127 7.21273,3.036837 7.70298,3.252703 0.49025,0.21586 0.96732,0.396015 1.06015,0.400328 0.0928,0.0041 0.57512,-0.451719 1.07176,-1.013413 z m -31.714179,1.086103 c -1.223314,-0.447225 -2.455003,-0.941176 -2.737092,-1.09766 -0.282089,-0.156484 -0.417958,-0.250142 -0.301938,-0.208128 0.155956,0.05646 0.185002,0.03314 0.111423,-0.08963 -0.05475,-0.09131 -0.133147,-0.222146 -0.174228,-0.290741 -0.05737,-0.09577 11.179541,-14.746932 11.452925,-14.932833 0.03368,-0.02289 0.178172,-0.04864 0.321124,-0.05721 0.142951,-0.0086 0.407469,-0.04838 0.587825,-0.08847 0.252444,-0.0561 0.850851,0.121485 2.59977,0.771525 l 2.27185,0.844404 0.10747,0.42279 c 0.10494,0.412827 -0.0242,0.592382 -5.47781,7.616784 -3.071904,3.956692 -5.685147,7.309922 -5.807204,7.451623 -0.467591,0.542817 -0.562833,0.531771 -2.954115,-0.342455 z m 3.140577,-2.266634 c 0.654983,-0.846842 2.133502,-2.751966 3.285598,-4.233609 5.180084,-6.661796 5.980624,-7.701217 6.024624,-7.822394 0.0448,-0.123288 -2.579472,-1.194794 -2.946783,-1.203203 -0.279305,-0.0064 -10.817528,13.658558 -10.630273,13.784314 0.270084,0.181395 2.77019,1.071514 2.927391,1.042267 0.08172,-0.01522 0.68446,-0.720528 1.339443,-1.567375 z m 37.519342,1.429833 c -0.34046,-0.02773 -0.44499,-0.06868 -0.31419,-0.122971 0.14977,-0.06217 0.12118,-0.108253 -0.12119,-0.195366 l -0.3172,-0.114011 v -5.626974 c 0,-5.539348 0.005,-5.62796 0.29713,-5.690309 0.16342,-0.03484 0.29712,-0.122853 0.29712,-0.195596 0,-0.220901 0.37229,-0.253385 2.90389,-0.253385 2.373,0 2.43829,0.0059 2.60938,0.22449 0.0965,0.12347 0.26599,0.260395 0.37663,0.304278 0.16541,0.06561 0.20116,1.086755 0.20116,5.74646 0,5.363077 -0.0145,5.675527 -0.27169,5.831805 -0.23205,0.141038 -0.62752,0.1628 -2.71126,0.149157 -1.34176,-0.0088 -2.66916,-0.03466 -2.94978,-0.05758 z m 4.29854,-6.062535 v -4.93879 h -1.70847 -1.70846 v 4.93879 4.938795 h 1.70846 1.70847 z M 111.1035,70.306597 c -0.11382,-0.03026 -0.36452,-0.147095 -0.5571,-0.259549 l -0.35015,-0.204468 v -4.885776 -4.88578 l 0.5126,-0.334342 0.51261,-0.334345 h 2.31008 c 1.83605,0 2.31007,0.02753 2.31007,0.134197 0,0.07381 0.13371,0.215462 0.29713,0.314786 0.28957,0.175991 0.29713,0.3073 0.29713,5.160363 0,3.241884 -0.0537,5.047127 -0.1538,5.172766 -0.14276,0.17915 -0.32654,0.192423 -2.56269,0.185108 -1.3249,-0.0041 -2.50204,-0.03267 -2.61588,-0.06296 z m 3.69818,-5.366822 V 60.59962 h -1.48562 -1.48563 v 4.340155 4.340148 h 1.48563 1.48562 z m 22.13576,-0.149663 c -0.28598,-0.04042 -0.41968,-0.08084 -0.29711,-0.0898 0.15115,-0.01105 0.0914,-0.08215 -0.18571,-0.221005 L 136.04607,64.2746 v -7.816783 c 0,-6.97313 0.0252,-7.8337 0.23346,-7.973565 0.1284,-0.08624 0.29553,-0.156789 0.37141,-0.156789 0.0759,0 0.13795,-0.06254 0.13795,-0.138987 0,-0.228974 0.35646,-0.260106 2.97816,-0.260106 2.45005,0 2.51225,0.0052 2.68366,0.224489 0.0965,0.123469 0.266,0.260397 0.37663,0.30428 0.29555,0.117232 0.29004,15.996544 -0.005,16.258141 -0.17572,0.155465 -0.48057,0.173166 -2.78082,0.161473 -1.42091,-0.0072 -2.81745,-0.04622 -3.10343,-0.08664 z m 4.45688,-8.380984 v -7.283473 h -1.78275 -1.78275 v 7.283473 7.283477 h 1.78275 1.78275 z M 99.35121,53.515695 c -0.28598,-0.04043 -0.421527,-0.07942 -0.301207,-0.08664 0.154102,-0.0092 0.121166,-0.05904 -0.111422,-0.168449 -0.322039,-0.151491 -0.330176,-0.203376 -0.330176,-2.10459 0,-1.833865 0.01676,-1.952213 0.283381,-1.999037 0.155864,-0.02738 0.316741,-0.135416 0.357499,-0.240094 0.07213,-0.185211 0.387598,-0.190321 11.744925,-0.190321 h 11.67082 l 0.17547,0.224489 c 0.0965,0.12347 0.266,0.260393 0.37663,0.304276 0.28849,0.114434 0.28334,3.929861 -0.005,4.185537 -0.18521,0.16386 -0.90929,0.173797 -11.76883,0.161469 -6.36431,-0.0072 -11.805461,-0.04622 -12.091449,-0.08664 z m 22.40019,-2.31974 0.0415,-1.27211 h -10.77517 -10.7752 v 1.230539 c 0,0.676799 0.045,1.260768 0.10001,1.297712 0.055,0.03696 4.88515,0.05565 10.73363,0.04157 l 10.63359,-0.0256 z M 53.19432,45.716346 C 51.645925,44.894685 50.79534,44.347758 50.5217,43.997846 50.397489,43.839013 50.167889,43.16554 50.011478,42.501242 49.855067,41.83694 49.654933,41.172917 49.566736,41.025627 49.41558,40.773194 48.96414,40.584992 47.539474,40.18048 46.775021,39.963427 45.506998,39.3945 43.34326,38.297758 c -2.824837,-1.431834 -3.6418,-1.779544 -4.023597,-1.712488 -0.234009,0.0411 -0.338195,0.0026 -0.396022,-0.145756 -0.05488,-0.140955 -0.112419,-0.164633 -0.191427,-0.07878 -0.186627,0.202802 -0.539998,0.03251 -0.641788,-0.309322 -0.143273,-0.481104 -0.114754,-1.27202 0.04722,-1.30979 0.143314,-0.03341 0.45126,-1.850397 0.451491,-2.66395 1.1e-4,-0.386574 -0.03336,-0.429797 -0.297,-0.383493 -0.27429,0.04817 -0.297124,0.003 -0.297124,-0.587004 0,-0.567437 0.03255,-0.639188 0.29,-0.639188 0.685052,0 3.327875,-1.061347 6.098175,-2.448997 2.064084,-1.033906 3.379852,-1.61246 4.576573,-2.012349 0.923785,-0.308688 1.742938,-0.640719 1.820339,-0.737847 0.0774,-0.09713 0.276587,-0.729299 0.442636,-1.404819 0.402353,-1.636847 0.656158,-1.95098 2.305243,-2.853189 0.730864,-0.399855 1.576032,-0.842081 1.878152,-0.98273 l 0.549307,-0.255725 1.223659,0.273686 c 2.644159,0.591398 7.032484,2.289711 8.989049,3.478831 l 0.901135,0.547673 0.504789,-0.349811 c 1.147784,-0.795396 2.817667,-1.296245 5.704466,-1.710946 1.49511,-0.214779 2.190235,-0.257421 4.308307,-0.264277 2.911974,-0.0094 3.552528,0.0786 4.093,0.562497 0.399661,0.357823 0.510568,0.68738 0.204805,0.608582 -0.153114,-0.03946 -0.149194,0.07257 0.01954,0.558296 0.233133,0.671146 0.843456,1.539058 1.513376,2.152101 0.508781,0.465587 3.295206,2.580434 3.456206,2.623197 0.06021,0.01599 0.731793,-0.679925 1.492392,-1.54649 1.459516,-1.662859 2.338736,-2.535119 3.685807,-3.656621 0.778287,-0.647962 2.206543,-1.518989 2.693251,-1.642492 0.12288,-0.03119 0.311757,-0.115328 0.419727,-0.186995 0.259264,-0.172077 0.804202,-0.164882 1.460508,0.01927 0.932589,0.261694 5.124445,2.44664 6.592225,3.436105 0.80495,0.542628 1.72346,1.286362 2.13006,1.724745 0.7155,0.77142 1.42257,1.930326 1.42846,2.341306 0.002,0.12023 0.0687,0.245833 0.14893,0.279116 0.4885,0.202765 5.77426,-1.359979 8.0994,-2.394598 1.65776,-0.737654 1.86516,-0.908245 1.99359,-1.639803 0.0924,-0.526088 0.1765,-0.649912 0.61659,-0.907375 1.28519,-0.751875 2.91072,-1.026277 6.08071,-1.026466 3.58569,-1.99e-4 6.0864,0.456318 7.07273,1.2912 0.63252,0.535402 0.70536,0.737885 0.67369,1.87268 l -0.0275,0.985882 0.56027,-0.05873 c 0.30815,-0.03232 1.44608,-0.113811 2.52872,-0.181131 l 1.96846,-0.122406 v -0.894444 c 0,-0.888663 0.003,-0.896609 0.5126,-1.22879 l 0.51261,-0.334346 h 2.8991 c 2.85543,0 2.90174,0.0034 3.07458,0.22449 0.0965,0.123473 0.26599,0.260397 0.37662,0.30428 0.30248,0.119977 0.28931,16.595703 -0.0135,16.863974 -0.18934,0.167748 -0.45009,0.179313 -3.37507,0.149662 -3.11374,-0.03156 -3.17712,-0.03643 -3.57843,-0.274617 -0.39596,-0.235018 -0.40854,-0.27418 -0.40854,-1.272115 v -1.02963 l -1.07708,-0.0011 c -0.59239,-3.77e-4 -1.94617,-0.06702 -3.00839,-0.147717 -1.06222,-0.08069 -2.00594,-0.147592 -2.09717,-0.148663 -0.11334,-0.0015 -0.14262,0.216284 -0.0925,0.68709 0.11281,1.058915 -0.046,1.530822 -0.70288,2.088949 -1.032,0.876822 -3.3843,1.312735 -7.08382,1.312735 -3.34196,0 -5.15846,-0.323794 -6.21259,-1.107409 -0.44581,-0.331405 -0.52432,-0.461104 -0.52432,-0.866151 0,-0.265107 -0.10032,-0.57257 -0.2262,-0.693263 -0.79534,-0.762597 -7.17003,-3.003255 -9.30368,-3.270176 l -0.54186,-0.06779 -0.15779,0.494088 c -0.42433,1.32883 -1.55915,2.576547 -3.56938,3.924492 -1.68543,1.130156 -5.98111,3.318609 -6.86193,3.495845 -0.554373,0.111545 -0.66821,0.100851 -1.28112,-0.120362 -1.803188,-0.650805 -3.978763,-2.40772 -6.478122,-5.231469 -0.825712,-0.932882 -1.528574,-1.718597 -1.561918,-1.746035 -0.09405,-0.07738 -2.317724,1.55599 -3.310195,2.431447 -1.099867,0.970199 -1.598323,1.618358 -1.717697,2.233585 -0.05053,0.260321 -0.166168,0.537838 -0.257019,0.616704 -0.132709,0.115214 -0.114078,0.130536 0.09481,0.07796 0.436264,-0.109807 0.308019,0.241346 -0.232459,0.63651 -0.44412,0.324715 -0.609284,0.371361 -1.729186,0.488363 -1.641693,0.171515 -4.318906,0.07096 -6.602617,-0.247987 -2.719559,-0.379819 -4.155241,-0.800656 -5.582751,-1.636454 l -0.664992,-0.389349 -0.866861,0.538996 c -2.280196,1.417776 -8.420867,3.631204 -10.07398,3.631204 -0.282413,0 -0.781638,-0.195295 -1.573787,-0.615648 z m 2.951522,-0.712521 c 0.136993,-0.0064 0.220944,-0.04222 0.186556,-0.07959 -0.07616,-0.08277 0.392417,-0.214523 0.501765,-0.141083 0.04278,0.02874 -0.01136,0.05224 -0.120304,0.05224 -0.108945,0 -0.161792,0.02436 -0.117435,0.05417 0.122286,0.08213 1.155843,-0.274425 1.06901,-0.368782 -0.0416,-0.04521 0.02115,-0.05725 0.139443,-0.02677 0.277161,0.07143 2.068281,-0.532722 1.952465,-0.658574 -0.04822,-0.0524 0.0027,-0.07198 0.113106,-0.04353 0.402062,0.103618 4.226015,-1.657244 4.039375,-1.860062 -0.04789,-0.05204 -0.004,-0.08227 0.09754,-0.06719 0.101529,0.01508 0.265889,-0.07738 0.365241,-0.205473 0.09935,-0.128088 0.255239,-0.282988 0.34641,-0.344218 0.09117,-0.06123 0.16577,-0.183194 0.16577,-0.271031 0,-0.08783 0.08286,-0.277623 0.18414,-0.421753 0.151544,-0.215662 0.256744,-0.2523 0.594249,-0.206966 0.253348,0.03401 0.410108,0.01218 0.410108,-0.05716 0,-0.06173 0.07619,-0.112246 0.169325,-0.112246 0.283065,0 0.563763,0.330665 0.568761,0.669999 0.01145,0.777598 2.08106,1.631884 5.05584,2.086939 1.488124,0.227639 2.066015,0.262942 4.480847,0.27375 2.630947,0.01177 3.270714,-0.04111 2.810131,-0.232281 -0.462807,-0.192097 0.285419,-1.626126 1.441212,-2.76221 0.604904,-0.594584 1.106487,-0.981029 2.752077,-2.120327 0.506374,-0.350576 0.820395,-0.600282 0.697832,-0.554902 -0.122563,0.04538 0.02235,-0.101567 0.322007,-0.326551 0.299664,-0.224988 0.626269,-0.514059 0.725793,-0.642385 0.247855,-0.319594 0.226693,-0.312712 0.575864,-0.18721 0.250387,0.08999 0.329442,0.08173 0.400029,-0.0418 0.174989,-0.306255 0.465199,-0.14146 0.86587,0.491667 0.52269,0.825967 2.791422,3.42589 3.904006,4.473919 1.106102,1.041923 2.770314,2.226449 3.239088,2.305466 0.201681,0.03398 0.366696,0.105851 0.366696,0.159682 0,0.05383 0.204511,0.09788 0.454456,0.09788 0.261633,0 0.415943,-0.04185 0.363689,-0.09863 -0.04991,-0.05425 7.69e-4,-0.07496 0.113375,-0.04602 0.114037,0.02938 1.084554,-0.39364 2.199006,-0.958517 2.194385,-1.112251 2.834865,-1.485102 2.735895,-1.59265 -0.036,-0.03915 0.0822,-0.155746 0.26271,-0.259112 0.32221,-0.184506 0.32419,-0.184453 0.10792,0.003 -0.18959,0.164237 -0.19023,0.184159 -0.005,0.142953 0.11861,-0.02632 0.34204,-0.199805 0.49651,-0.385499 0.15445,-0.18569 0.54438,-0.538698 0.86648,-0.784452 0.83518,-0.637219 1.60252,-1.736653 1.78797,-2.56181 0.19609,-0.872418 0.29523,-0.996618 0.77691,-0.97328 0.30112,0.01459 0.38763,-0.02696 0.38763,-0.186241 0,-0.155865 0.0712,-0.192519 0.29698,-0.152867 0.16334,0.02869 0.32922,0.01712 0.36863,-0.02572 0.31832,-0.345897 5.65858,1.114039 8.39669,2.295507 2.44069,1.053134 3.26836,1.675805 3.26836,2.458816 0,0.506404 0.28006,0.681679 1.50714,0.943268 0.69011,0.147113 1.534,0.216273 3.13645,0.25704 2.36269,0.06011 3.95255,-0.05479 5.22175,-0.377398 0.40081,-0.101881 0.7832,-0.162639 0.84973,-0.135024 0.0665,0.0276 0.22387,-0.115161 0.34962,-0.317289 0.16833,-0.270556 0.21851,-0.653295 0.19021,-1.450806 -0.033,-0.92985 -0.0753,-1.091308 -0.29843,-1.139844 -0.35894,-0.07807 -0.32537,-0.231425 0.0743,-0.339309 0.18385,-0.04963 0.26741,-0.09484 0.1857,-0.100466 -0.0817,-0.0056 0.073,-0.07485 0.34374,-0.153837 0.42723,-0.124634 0.79045,-0.125004 2.74839,-0.0026 1.24087,0.07745 2.84108,0.171591 3.55604,0.209206 l 1.29992,0.06839 V 33.11426 27.954322 l -0.85424,0.06497 c -4.47845,0.340601 -5.83107,0.336574 -5.83107,-0.01734 0,-0.07028 -0.1337,-0.127787 -0.29711,-0.127787 -0.37094,0 -0.3919,-0.201584 -0.0276,-0.265563 0.23888,-0.04196 0.27354,-0.183654 0.3048,-1.24634 0.0195,-0.663672 -0.0288,-1.250892 -0.10832,-1.315213 -0.079,-0.06391 -0.166,-0.161104 -0.19338,-0.215979 -0.0274,-0.05487 -0.13262,-0.09362 -0.23388,-0.0861 -0.10126,0.0075 -0.14303,-0.03096 -0.0928,-0.08552 0.0569,-0.06181 -0.0347,-0.07234 -0.24305,-0.02794 -0.18672,0.03981 -0.29813,0.03194 -0.25235,-0.0178 0.0451,-0.04899 -0.0301,-0.09314 -0.1671,-0.09811 -0.13699,-0.0049 -0.7829,-0.0874 -1.43537,-0.18319 -1.54278,-0.226507 -5.63196,-0.163898 -6.91034,0.105806 -1.28044,0.270141 -1.43274,0.369106 -1.52867,0.993311 -0.10011,0.651459 -0.42086,0.982037 -1.55469,1.602324 -2.18857,1.197321 -7.67902,2.994042 -9.65585,3.159829 -0.26556,0.02229 -0.48284,2.98e-4 -0.48284,-0.04872 0,-0.04906 -0.13839,-0.05972 -0.30754,-0.02364 -0.23074,0.04918 -0.32715,0.0152 -0.38604,-0.136034 -0.0478,-0.122583 -0.16084,-0.180369 -0.2886,-0.147445 -0.36134,0.09312 -0.60795,-0.149802 -0.70293,-0.692441 -0.14992,-0.856436 -0.49152,-1.475498 -1.27142,-2.304044 -0.40556,-0.430872 -0.83626,-0.857403 -0.95709,-0.947849 -1.19031,-0.890926 -2.10133,-1.511395 -2.21916,-1.511395 -0.0788,0 -0.0515,0.07857 0.0607,0.174604 0.1845,0.158004 0.17933,0.161673 -0.0545,0.03858 -0.14208,-0.07481 -0.22422,-0.173088 -0.18254,-0.218392 0.15371,-0.167024 -3.833212,-2.090039 -4.333201,-2.090039 -0.778341,0 -1.844284,0.550732 -3.089807,1.596381 -1.786454,1.499772 -5.135288,5.23139 -5.135288,5.722272 0,0.07697 -0.102371,0.196996 -0.227489,0.266732 -0.187562,0.104543 -0.261318,0.09571 -0.420304,-0.0503 -0.164023,-0.150654 -0.244338,-0.158581 -0.537855,-0.05308 -0.299984,0.107824 -0.332998,0.102963 -0.252882,-0.03725 0.05906,-0.103393 0.01384,-0.161266 -0.126033,-0.161266 -0.119997,0 -0.218185,-0.03858 -0.218185,-0.08573 0,-0.04715 -0.267408,-0.289754 -0.594246,-0.539121 -0.326838,-0.249367 -0.59425,-0.485565 -0.59425,-0.524881 0,-0.03932 -0.317548,-0.275828 -0.70567,-0.525576 -0.388117,-0.249748 -0.705671,-0.48196 -0.705671,-0.516034 0,-0.03409 -0.29854,-0.275866 -0.663423,-0.537323 -1.330007,-0.953 -2.360755,-2.153711 -2.68627,-3.129216 -0.132794,-0.397947 -0.120688,-0.490653 0.07671,-0.587593 0.205305,-0.10082 0.192486,-0.12262 -0.103343,-0.175731 -2.180925,-0.391551 -7.579623,0.0849 -10.010398,0.883444 -1.121004,0.368266 -2.327598,1.126017 -2.271337,1.426412 0.04704,0.251143 -0.173694,0.719498 -0.339092,0.719498 -0.07869,0 -0.245655,-0.0689 -0.371039,-0.153106 -0.177634,-0.119298 -0.274493,-0.127176 -0.438665,-0.03568 -0.115882,0.06459 -0.225793,0.09981 -0.244245,0.07827 -0.314827,-0.367477 -0.404956,-0.51384 -0.404956,-0.657615 0,-0.0947 -0.284125,-0.374646 -0.631389,-0.622098 -0.347264,-0.247455 -0.464257,-0.362104 -0.259984,-0.25477 0.3117,0.163773 0.300961,0.143059 -0.0668,-0.128869 -0.916525,-0.677686 -5.357714,-2.494906 -5.811558,-2.377941 -0.148516,0.03828 -0.191002,0.01844 -0.121751,-0.0568 0.07168,-0.07789 0.02323,-0.09416 -0.148562,-0.04989 -0.140211,0.03613 -0.218881,0.02651 -0.174822,-0.02135 0.111264,-0.120908 -0.748395,-0.346062 -0.970037,-0.254065 -0.123287,0.05117 -0.141946,0.03303 -0.05888,-0.05723 0.0883,-0.09595 0.05389,-0.114694 -0.125609,-0.06844 -0.141113,0.03635 -0.247213,0.01508 -0.247213,-0.04956 0,-0.0623 -0.03947,-0.08676 -0.08771,-0.05436 -0.04824,0.03239 -0.342004,-0.0015 -0.652805,-0.07499 -0.65244,-0.154599 -0.615738,-0.16664 -2.320878,0.761302 -0.580693,0.316011 -1.132802,0.700409 -1.226909,0.854212 -0.09411,0.153799 -0.297295,0.801403 -0.451531,1.439112 -0.154234,0.637713 -0.431832,1.378532 -0.616881,1.646267 -0.342367,0.495347 -0.385775,0.570257 -0.418638,0.72245 -0.01021,0.0473 -0.389847,0.136076 -0.843629,0.197279 -1.250126,0.168611 -2.921001,0.806497 -5.361683,2.046913 -2.63947,1.341448 -3.7309,1.844522 -4.760276,2.194163 -0.713709,0.24242 -0.776535,0.293083 -0.852293,0.687282 -0.134551,0.700137 -0.421996,3.476252 -0.363105,3.506838 0.03003,0.01561 0.632528,0.27869 1.33889,0.584655 0.706363,0.305969 2.110275,0.978047 3.119806,1.493508 1.009531,0.515466 2.169777,1.077782 2.578323,1.249599 1.015403,0.427028 2.61026,0.923869 2.971244,0.925618 0.492378,0.0023 0.967576,0.115457 0.880935,0.209606 -0.04476,0.04864 6.18e-4,0.08843 0.100712,0.08843 0.10015,0 0.140385,0.02802 0.08941,0.06224 -0.05097,0.03424 0.04731,0.246524 0.218402,0.471756 0.171095,0.225233 0.464576,1.008667 0.652184,1.740968 0.187607,0.732295 0.445447,1.438399 0.572978,1.569116 0.127528,0.130717 0.781709,0.535806 1.453733,0.900202 1.134464,0.615147 1.25939,0.65759 1.746556,0.593397 0.288584,-0.03803 0.636783,-0.07438 0.773774,-0.08079 z m 45.719678,-19.798899 -0.36016,-0.274376 0.40855,0.241882 c 0.38185,0.226077 0.47667,0.306874 0.36016,0.306874 -0.0266,0 -0.21046,-0.12347 -0.40855,-0.27438 z M 91.32885,42.502923 c 0,-0.0207 -0.11699,-0.09929 -0.25998,-0.174603 -0.235633,-0.124106 -0.240886,-0.120577 -0.05614,0.03767 0.194075,0.166198 0.316072,0.219052 0.316072,0.136931 z m -0.89137,-0.798186 c 0,-0.0207 -0.116998,-0.09929 -0.259988,-0.174603 -0.235625,-0.124107 -0.240878,-0.120577 -0.05606,0.03767 0.194076,0.166198 0.316072,0.219052 0.316072,0.136935 z m 51.95847,-8.51792 0.036,-7.607739 h -2.15299 -2.153 v 7.635422 7.635422 l 2.11701,-0.02768 2.11702,-0.02768 z m -26.02343,6.981777 c -0.25667,-0.164648 -0.26065,-0.161971 -0.0905,0.06081 0.0979,0.128168 0.21869,0.205672 0.26849,0.172228 0.0498,-0.03345 -0.0302,-0.138312 -0.17796,-0.233039 z M 91.32885,24.880664 c 0.174542,-0.164626 0.283934,-0.299321 0.243077,-0.299321 -0.04091,0 -0.217092,0.134695 -0.391635,0.299321 -0.174551,0.164625 -0.283935,0.29932 -0.243077,0.29932 0.04091,0 0.217092,-0.134695 0.391635,-0.29932 z"
       id="path854" />
    <g
       id="g1565"
       transform="translate(-25.01132,9.0950255)">
      <path
         style="fill:#000000;stroke-width:0.121748"
         d="m 109.03745,277.61525 c -7.29387,-3.07398 -8.61818,-3.66711 -8.6268,-3.86375 -0.005,-0.12777 -0.0615,-0.30841 -0.12418,-0.40142 -0.0813,-0.12059 0.28102,-0.61137 1.26263,-1.71037 1.87563,-2.09995 1.56227,-2.07901 5.63132,-0.37633 11.00359,4.60444 14.55565,6.13219 14.63171,6.29311 0.0873,0.18472 -2.08681,2.72826 -2.85834,3.34405 -0.75147,0.59978 -0.50107,0.68275 -9.91634,-3.28529 z m 9.85714,1.31808 c 0.49663,-0.5617 0.85522,-1.04918 0.79687,-1.08328 -0.27557,-0.16107 -15.65439,-6.57576 -15.76498,-6.57576 -0.19991,0 -1.82991,1.89406 -1.75014,2.03366 0.0395,0.069 3.13697,1.41264 6.88336,2.98576 3.74638,1.57313 7.21273,3.03684 7.70298,3.25271 0.49025,0.21586 0.96732,0.39601 1.06015,0.40032 0.0928,0.004 0.57512,-0.45171 1.07176,-1.01341 z m -31.714183,1.0861 c -1.223314,-0.44722 -2.455003,-0.94117 -2.737092,-1.09766 -0.282089,-0.15648 -0.417958,-0.25014 -0.301938,-0.20812 0.155956,0.0565 0.185002,0.0331 0.111423,-0.0896 -0.05475,-0.0913 -0.133147,-0.22215 -0.174228,-0.29074 -0.05737,-0.0958 11.179541,-14.74694 11.452928,-14.93284 0.0337,-0.0229 0.17817,-0.0486 0.32112,-0.0572 0.14295,-0.009 0.40747,-0.0484 0.58783,-0.0885 0.25244,-0.0561 0.85085,0.12149 2.59977,0.77153 l 2.27185,0.8444 0.10747,0.42279 c 0.10494,0.41283 -0.0242,0.59238 -5.47781,7.61679 -3.071908,3.95669 -5.685151,7.30992 -5.807208,7.45162 -0.467591,0.54282 -0.562833,0.53177 -2.954115,-0.34246 z m 3.140577,-2.26663 c 0.654983,-0.84684 2.133502,-2.75197 3.285598,-4.23361 5.180088,-6.66179 5.980628,-7.70122 6.024628,-7.82239 0.0448,-0.12329 -2.57948,-1.1948 -2.94679,-1.20321 -0.2793,-0.006 -10.817525,13.65856 -10.63027,13.78432 0.270084,0.18139 2.77019,1.07151 2.927391,1.04227 0.08172,-0.0152 0.68446,-0.72053 1.339443,-1.56738 z m 37.519346,1.42983 c -0.34046,-0.0277 -0.44499,-0.0687 -0.31419,-0.12297 0.14977,-0.0622 0.12118,-0.10825 -0.12119,-0.19536 l -0.3172,-0.11401 v -5.62698 c 0,-5.53935 0.005,-5.62796 0.29713,-5.69031 0.16342,-0.0348 0.29712,-0.12285 0.29712,-0.19559 0,-0.2209 0.37229,-0.25339 2.90389,-0.25339 2.373,0 2.43829,0.006 2.60938,0.22449 0.0965,0.12347 0.26599,0.2604 0.37663,0.30428 0.16541,0.0656 0.20116,1.08675 0.20116,5.74646 0,5.36308 -0.0145,5.67553 -0.27169,5.8318 -0.23205,0.14104 -0.62752,0.1628 -2.71126,0.14916 -1.34176,-0.009 -2.66916,-0.0347 -2.94978,-0.0576 z m 4.29854,-6.06253 v -4.93879 h -1.70847 -1.70846 v 4.93879 4.93879 h 1.70846 1.70847 z m -23.15983,-3.11394 c -0.11382,-0.0303 -0.36452,-0.14709 -0.5571,-0.25954 l -0.35015,-0.20447 v -4.88578 -4.88578 l 0.5126,-0.33434 0.51261,-0.33435 h 2.31008 c 1.83605,0 2.31007,0.0275 2.31007,0.1342 0,0.0738 0.13371,0.21546 0.29713,0.31479 0.28957,0.17599 0.29713,0.3073 0.29713,5.16036 0,3.24188 -0.0537,5.04713 -0.1538,5.17277 -0.14276,0.17915 -0.32654,0.19242 -2.56269,0.1851 -1.3249,-0.004 -2.50204,-0.0327 -2.61588,-0.063 z m 3.69818,-5.36682 v -4.34015 h -1.48562 -1.48563 v 4.34015 4.34015 h 1.48563 1.48562 z m 22.13576,-0.14966 c -0.28598,-0.0404 -0.41968,-0.0808 -0.29711,-0.0898 0.15115,-0.0111 0.0914,-0.0822 -0.18571,-0.22101 l -0.40855,-0.2047 v -7.81679 c 0,-6.97313 0.0252,-7.8337 0.23346,-7.97356 0.1284,-0.0862 0.29553,-0.15679 0.37141,-0.15679 0.0759,0 0.13795,-0.0625 0.13795,-0.13899 0,-0.22897 0.35646,-0.2601 2.97816,-0.2601 2.45005,0 2.51225,0.005 2.68366,0.22449 0.0965,0.12347 0.266,0.26039 0.37663,0.30428 0.29555,0.11723 0.29004,15.99654 -0.005,16.25814 -0.17572,0.15546 -0.48057,0.17316 -2.78082,0.16147 -1.42091,-0.007 -2.81745,-0.0462 -3.10343,-0.0866 z m 4.45688,-8.38098 v -7.28348 h -1.78275 -1.78275 v 7.28348 7.28347 h 1.78275 1.78275 z m -42.04311,-2.89344 c -0.28598,-0.0404 -0.42153,-0.0794 -0.30121,-0.0866 0.1541,-0.009 0.12117,-0.059 -0.11142,-0.16845 -0.32204,-0.15149 -0.33018,-0.20337 -0.33018,-2.10459 0,-1.83386 0.0168,-1.95221 0.28338,-1.99903 0.15587,-0.0274 0.31674,-0.13542 0.3575,-0.2401 0.0721,-0.18521 0.3876,-0.19032 11.74493,-0.19032 h 11.67082 l 0.17547,0.22449 c 0.0965,0.12347 0.266,0.26039 0.37663,0.30428 0.28849,0.11443 0.28334,3.92986 -0.005,4.18553 -0.18521,0.16386 -0.90929,0.1738 -11.76883,0.16147 -6.36431,-0.007 -11.80546,-0.0462 -12.09145,-0.0866 z m 22.40019,-2.31974 0.0415,-1.27211 h -10.77517 -10.7752 v 1.23054 c 0,0.6768 0.045,1.26077 0.10001,1.29771 0.055,0.037 4.88515,0.0556 10.73363,0.0416 l 10.63359,-0.0256 z m -68.557084,-5.47961 c -1.548395,-0.82166 -2.39898,-1.36858 -2.67262,-1.7185 -0.124211,-0.15883 -0.353811,-0.8323 -0.510222,-1.4966 -0.156411,-0.6643 -0.356545,-1.32833 -0.444742,-1.47562 -0.151156,-0.25243 -0.602596,-0.44063 -2.027262,-0.84514 -0.764453,-0.21706 -2.032476,-0.78598 -4.196214,-1.88272 -2.824837,-1.43184 -3.6418,-1.77955 -4.023597,-1.71249 -0.234009,0.0411 -0.338195,0.003 -0.396022,-0.14576 -0.05488,-0.14095 -0.112419,-0.16463 -0.191427,-0.0788 -0.186627,0.2028 -0.539998,0.0325 -0.641788,-0.30932 -0.143273,-0.4811 -0.114754,-1.27202 0.04722,-1.30979 0.143314,-0.0334 0.45126,-1.8504 0.451491,-2.66395 1.1e-4,-0.38657 -0.03336,-0.4298 -0.297,-0.38349 -0.27429,0.0482 -0.297124,0.003 -0.297124,-0.58701 0,-0.56743 0.03255,-0.63919 0.29,-0.63919 0.685052,0 3.327875,-1.06134 6.098175,-2.44899 2.064084,-1.03391 3.379852,-1.61246 4.576573,-2.01235 0.923785,-0.30869 1.742938,-0.64072 1.820339,-0.73785 0.0774,-0.0971 0.276587,-0.7293 0.442636,-1.40482 0.402353,-1.63684 0.656158,-1.95098 2.305243,-2.85319 0.730864,-0.39985 1.576032,-0.84208 1.878152,-0.98273 l 0.549307,-0.25572 1.223659,0.27368 c 2.644159,0.5914 7.032484,2.28972 8.989049,3.47884 l 0.901135,0.54767 0.504789,-0.34981 c 1.147784,-0.7954 2.817667,-1.29625 5.704466,-1.71095 1.49511,-0.21478 2.190235,-0.25742 4.308307,-0.26428 2.911974,-0.009 3.552528,0.0786 4.093,0.5625 0.399661,0.35782 0.510568,0.68738 0.204805,0.60858 -0.153114,-0.0395 -0.149194,0.0726 0.01954,0.5583 0.233133,0.67115 0.843456,1.53906 1.513376,2.1521 0.508781,0.46559 3.295206,2.58043 3.456206,2.6232 0.06021,0.016 0.731793,-0.67993 1.492392,-1.54649 1.459516,-1.66286 2.338736,-2.53512 3.685807,-3.65662 0.778287,-0.64797 2.206543,-1.51899 2.693251,-1.6425 0.12288,-0.0312 0.311757,-0.11532 0.419727,-0.18699 0.259264,-0.17208 0.804202,-0.16488 1.460508,0.0193 0.932589,0.26169 5.124449,2.44664 6.592229,3.4361 0.80495,0.54263 1.72346,1.28637 2.13006,1.72475 0.7155,0.77142 1.42257,1.93033 1.42846,2.34131 0.002,0.12023 0.0687,0.24583 0.14893,0.27911 0.4885,0.20277 5.77426,-1.35998 8.0994,-2.3946 1.65776,-0.73765 1.86516,-0.90824 1.99359,-1.6398 0.0924,-0.52609 0.1765,-0.64991 0.61659,-0.90737 1.28519,-0.75188 2.91072,-1.02628 6.08071,-1.02647 3.58569,-2e-4 6.0864,0.45632 7.07273,1.2912 0.63252,0.5354 0.70536,0.73788 0.67369,1.87268 l -0.0275,0.98588 0.56027,-0.0587 c 0.30815,-0.0323 1.44608,-0.11381 2.52872,-0.18113 l 1.96846,-0.12241 v -0.89444 c 0,-0.88866 0.003,-0.89661 0.5126,-1.22879 l 0.51261,-0.33435 h 2.8991 c 2.85543,0 2.90174,0.003 3.07458,0.22449 0.0965,0.12348 0.26599,0.2604 0.37662,0.30428 0.30248,0.11998 0.28931,16.59571 -0.0135,16.86398 -0.18934,0.16775 -0.45009,0.17931 -3.37507,0.14966 -3.11374,-0.0316 -3.17712,-0.0364 -3.57843,-0.27462 -0.39596,-0.23501 -0.40854,-0.27418 -0.40854,-1.27211 v -1.02963 l -1.07708,-0.001 c -0.59239,-3.8e-4 -1.94617,-0.067 -3.00839,-0.14772 -1.06222,-0.0807 -2.00594,-0.14759 -2.09717,-0.14866 -0.11334,-0.002 -0.14262,0.21628 -0.0925,0.68709 0.11281,1.05891 -0.046,1.53082 -0.70288,2.08895 -1.032,0.87682 -3.3843,1.31273 -7.08382,1.31273 -3.34196,0 -5.15846,-0.32379 -6.21259,-1.10741 -0.44581,-0.3314 -0.52432,-0.4611 -0.52432,-0.86615 0,-0.2651 -0.10032,-0.57257 -0.2262,-0.69326 -0.79534,-0.7626 -7.17003,-3.00326 -9.30368,-3.27018 l -0.54186,-0.0678 -0.15779,0.49409 c -0.42433,1.32883 -1.55915,2.57655 -3.56938,3.92449 -1.68543,1.13016 -5.981114,3.31861 -6.861934,3.49585 -0.554373,0.11154 -0.66821,0.10085 -1.28112,-0.12036 -1.803188,-0.65081 -3.978763,-2.40772 -6.478122,-5.23147 -0.825712,-0.93288 -1.528574,-1.7186 -1.561918,-1.74604 -0.09405,-0.0774 -2.317724,1.55599 -3.310195,2.43145 -1.099867,0.9702 -1.598323,1.61836 -1.717697,2.23358 -0.05053,0.26033 -0.166168,0.53784 -0.257019,0.61671 -0.132709,0.11521 -0.114078,0.13053 0.09481,0.078 0.436264,-0.10981 0.308019,0.24134 -0.232459,0.63651 -0.44412,0.32471 -0.609284,0.37136 -1.729186,0.48836 -1.641693,0.17152 -4.318906,0.071 -6.602617,-0.24799 -2.719559,-0.37981 -4.155241,-0.80065 -5.582751,-1.63645 l -0.664992,-0.38935 -0.866861,0.539 c -2.280196,1.41777 -8.420867,3.6312 -10.07398,3.6312 -0.282413,0 -0.781638,-0.19529 -1.573787,-0.61565 z m 2.951522,-0.71252 c 0.136993,-0.006 0.220944,-0.0422 0.186556,-0.0796 -0.07616,-0.0828 0.392417,-0.21452 0.501765,-0.14108 0.04278,0.0287 -0.01136,0.0522 -0.120304,0.0522 -0.108945,0 -0.161792,0.0244 -0.117435,0.0542 0.122286,0.0821 1.155843,-0.27443 1.06901,-0.36878 -0.0416,-0.0452 0.02115,-0.0573 0.139443,-0.0268 0.277161,0.0714 2.068281,-0.53272 1.952465,-0.65858 -0.04822,-0.0524 0.0027,-0.072 0.113106,-0.0435 0.402062,0.10362 4.226015,-1.65724 4.039375,-1.86006 -0.04789,-0.052 -0.004,-0.0823 0.09754,-0.0672 0.101529,0.0151 0.265889,-0.0774 0.365241,-0.20547 0.09935,-0.12809 0.255239,-0.28299 0.34641,-0.34422 0.09117,-0.0612 0.16577,-0.18319 0.16577,-0.27103 0,-0.0878 0.08286,-0.27762 0.18414,-0.42175 0.151544,-0.21567 0.256744,-0.2523 0.594249,-0.20697 0.253348,0.034 0.410108,0.0122 0.410108,-0.0572 0,-0.0617 0.07619,-0.11225 0.169325,-0.11225 0.283065,0 0.563763,0.33067 0.568761,0.67 0.01145,0.7776 2.08106,1.63189 5.05584,2.08694 1.488124,0.22764 2.066015,0.26294 4.480847,0.27375 2.630947,0.0118 3.270714,-0.0411 2.810131,-0.23228 -0.462807,-0.1921 0.285419,-1.62612 1.441212,-2.76221 0.604904,-0.59458 1.106487,-0.98103 2.752077,-2.12033 0.506374,-0.35057 0.820395,-0.60028 0.697832,-0.5549 -0.122563,0.0454 0.02235,-0.10156 0.322007,-0.32655 0.299664,-0.22499 0.626269,-0.51406 0.725793,-0.64238 0.247855,-0.3196 0.226693,-0.31272 0.575864,-0.18721 0.250387,0.09 0.329442,0.0817 0.400029,-0.0418 0.174989,-0.30626 0.465199,-0.14146 0.86587,0.49166 0.52269,0.82597 2.791422,3.42589 3.904006,4.47392 1.106102,1.04193 2.770314,2.22645 3.239088,2.30547 0.201681,0.034 0.366696,0.10585 0.366696,0.15968 0,0.0538 0.204511,0.0979 0.454456,0.0979 0.261633,0 0.415943,-0.0419 0.363689,-0.0986 -0.04991,-0.0542 7.69e-4,-0.075 0.113375,-0.046 0.114037,0.0294 1.084554,-0.39364 2.199005,-0.95852 2.19439,-1.11225 2.83487,-1.4851 2.7359,-1.59265 -0.036,-0.0392 0.0822,-0.15574 0.26271,-0.25911 0.32221,-0.1845 0.32419,-0.18445 0.10792,0.003 -0.18959,0.16424 -0.19023,0.18416 -0.005,0.14295 0.11861,-0.0263 0.34204,-0.1998 0.49651,-0.38549 0.15445,-0.18569 0.54438,-0.5387 0.86648,-0.78446 0.83518,-0.63722 1.60252,-1.73665 1.78797,-2.56181 0.19609,-0.87241 0.29523,-0.99661 0.77691,-0.97328 0.30112,0.0146 0.38763,-0.027 0.38763,-0.18624 0,-0.15586 0.0712,-0.19252 0.29698,-0.15286 0.16334,0.0287 0.32922,0.0171 0.36863,-0.0257 0.31832,-0.3459 5.65858,1.11403 8.39669,2.2955 2.44069,1.05314 3.26836,1.67581 3.26836,2.45882 0,0.5064 0.28006,0.68168 1.50714,0.94327 0.69011,0.14711 1.534,0.21627 3.13645,0.25704 2.36269,0.0601 3.95255,-0.0548 5.22175,-0.3774 0.40081,-0.10188 0.7832,-0.16264 0.84973,-0.13503 0.0665,0.0276 0.22387,-0.11516 0.34962,-0.31728 0.16833,-0.27056 0.21851,-0.6533 0.19021,-1.45081 -0.033,-0.92985 -0.0753,-1.09131 -0.29843,-1.13984 -0.35894,-0.0781 -0.32537,-0.23143 0.0743,-0.33931 0.18385,-0.0496 0.26741,-0.0948 0.1857,-0.10047 -0.0817,-0.006 0.073,-0.0748 0.34374,-0.15384 0.42723,-0.12463 0.79045,-0.125 2.74839,-0.003 1.24087,0.0774 2.84108,0.17159 3.55604,0.20921 l 1.29992,0.0684 v -5.15999 -5.15994 l -0.85424,0.065 c -4.47845,0.3406 -5.83107,0.33657 -5.83107,-0.0173 0,-0.0703 -0.1337,-0.12779 -0.29711,-0.12779 -0.37094,0 -0.3919,-0.20158 -0.0276,-0.26556 0.23888,-0.042 0.27354,-0.18365 0.3048,-1.24634 0.0195,-0.66367 -0.0288,-1.25089 -0.10832,-1.31521 -0.079,-0.0639 -0.166,-0.16111 -0.19338,-0.21598 -0.0274,-0.0549 -0.13262,-0.0936 -0.23388,-0.0861 -0.10126,0.007 -0.14303,-0.031 -0.0928,-0.0855 0.0569,-0.0618 -0.0347,-0.0723 -0.24305,-0.0279 -0.18672,0.0398 -0.29813,0.0319 -0.25235,-0.0178 0.0451,-0.049 -0.0301,-0.0931 -0.1671,-0.0981 -0.13699,-0.005 -0.7829,-0.0874 -1.43537,-0.18319 -1.54278,-0.22651 -5.63196,-0.1639 -6.91034,0.1058 -1.28044,0.27014 -1.43274,0.36911 -1.52867,0.99331 -0.10011,0.65146 -0.42086,0.98204 -1.55469,1.60233 -2.18857,1.19732 -7.67902,2.99404 -9.65585,3.15983 -0.26556,0.0223 -0.48284,3e-4 -0.48284,-0.0487 0,-0.0491 -0.13839,-0.0597 -0.30754,-0.0236 -0.23074,0.0492 -0.32715,0.0152 -0.38604,-0.13604 -0.0478,-0.12258 -0.16084,-0.18037 -0.2886,-0.14744 -0.36134,0.0931 -0.60795,-0.1498 -0.70293,-0.69244 -0.14992,-0.85644 -0.49152,-1.4755 -1.27142,-2.30405 -0.40556,-0.43087 -0.83626,-0.8574 -0.95709,-0.94785 -1.19031,-0.89092 -2.10133,-1.51139 -2.21916,-1.51139 -0.0788,0 -0.0515,0.0786 0.0607,0.1746 0.1845,0.15801 0.17933,0.16168 -0.0545,0.0386 -0.14208,-0.0748 -0.22422,-0.17308 -0.18254,-0.21839 0.15371,-0.16702 -3.833216,-2.09004 -4.333205,-2.09004 -0.778341,0 -1.844284,0.55073 -3.089807,1.59638 -1.786454,1.49978 -5.135288,5.23139 -5.135288,5.72228 0,0.077 -0.102371,0.19699 -0.227489,0.26673 -0.187562,0.10454 -0.261318,0.0957 -0.420304,-0.0503 -0.164023,-0.15066 -0.244338,-0.15858 -0.537855,-0.0531 -0.299984,0.10782 -0.332998,0.10296 -0.252882,-0.0373 0.05906,-0.1034 0.01384,-0.16127 -0.126033,-0.16127 -0.119997,0 -0.218185,-0.0386 -0.218185,-0.0857 0,-0.0472 -0.267408,-0.28975 -0.594246,-0.53912 -0.326838,-0.24937 -0.59425,-0.48556 -0.59425,-0.52488 0,-0.0393 -0.317548,-0.27583 -0.70567,-0.52558 -0.388117,-0.24974 -0.705671,-0.48196 -0.705671,-0.51603 0,-0.0341 -0.29854,-0.27587 -0.663423,-0.53732 -1.330007,-0.953 -2.360755,-2.15371 -2.68627,-3.12922 -0.132794,-0.39795 -0.120688,-0.49065 0.07671,-0.58759 0.205305,-0.10082 0.192486,-0.12262 -0.103343,-0.17573 -2.180925,-0.39155 -7.579623,0.0849 -10.010398,0.88344 -1.121004,0.36827 -2.327598,1.12602 -2.271337,1.42641 0.04704,0.25115 -0.173694,0.7195 -0.339092,0.7195 -0.07869,0 -0.245655,-0.0689 -0.371039,-0.15311 -0.177634,-0.11929 -0.274493,-0.12717 -0.438665,-0.0357 -0.115882,0.0646 -0.225793,0.0998 -0.244245,0.0783 -0.314827,-0.36747 -0.404956,-0.51384 -0.404956,-0.65761 0,-0.0947 -0.284125,-0.37465 -0.631389,-0.6221 -0.347264,-0.24745 -0.464257,-0.3621 -0.259984,-0.25477 0.3117,0.16377 0.300961,0.14306 -0.0668,-0.12887 -0.916525,-0.67768 -5.357714,-2.4949 -5.811558,-2.37794 -0.148516,0.0383 -0.191002,0.0184 -0.121751,-0.0568 0.07168,-0.0779 0.02323,-0.0942 -0.148562,-0.0499 -0.140211,0.0361 -0.218881,0.0265 -0.174822,-0.0214 0.111264,-0.12091 -0.748395,-0.34606 -0.970037,-0.25406 -0.123287,0.0512 -0.141946,0.033 -0.05888,-0.0572 0.0883,-0.096 0.05389,-0.1147 -0.125609,-0.0684 -0.141113,0.0363 -0.247213,0.0151 -0.247213,-0.0496 0,-0.0623 -0.03947,-0.0868 -0.08771,-0.0544 -0.04824,0.0324 -0.342004,-0.001 -0.652805,-0.075 -0.65244,-0.1546 -0.615738,-0.16664 -2.320878,0.7613 -0.580693,0.31601 -1.132802,0.70041 -1.226909,0.85421 -0.09411,0.1538 -0.297295,0.8014 -0.451531,1.43911 -0.154234,0.63772 -0.431832,1.37853 -0.616881,1.64627 -0.342367,0.49535 -0.385775,0.57026 -0.418638,0.72245 -0.01021,0.0473 -0.389847,0.13608 -0.843629,0.19728 -1.250126,0.16861 -2.921001,0.8065 -5.361683,2.04691 -2.63947,1.34145 -3.7309,1.84452 -4.760276,2.19416 -0.713709,0.24242 -0.776535,0.29309 -0.852293,0.68729 -0.134551,0.70013 -0.421996,3.47625 -0.363105,3.50683 0.03003,0.0156 0.632528,0.27869 1.33889,0.58466 0.706363,0.30597 2.110275,0.97805 3.119806,1.49351 1.009531,0.51546 2.169777,1.07778 2.578323,1.2496 1.015403,0.42702 2.61026,0.92387 2.971244,0.92561 0.492378,0.002 0.967576,0.11546 0.880935,0.20961 -0.04476,0.0486 6.18e-4,0.0884 0.100712,0.0884 0.10015,0 0.140385,0.028 0.08941,0.0622 -0.05097,0.0342 0.04731,0.24652 0.218402,0.47176 0.171095,0.22523 0.464576,1.00866 0.652184,1.74096 0.187607,0.7323 0.445447,1.4384 0.572978,1.56912 0.127528,0.13072 0.781709,0.53581 1.453733,0.9002 1.134464,0.61515 1.25939,0.65759 1.746556,0.5934 0.288584,-0.038 0.636783,-0.0744 0.773774,-0.0808 z m 45.719682,-19.7989 -0.36016,-0.27437 0.40855,0.24188 c 0.38185,0.22608 0.47667,0.30687 0.36016,0.30687 -0.0266,0 -0.21046,-0.12347 -0.40855,-0.27438 z m -10.536674,17.298 c 0,-0.0207 -0.11699,-0.0993 -0.25998,-0.1746 -0.235633,-0.12411 -0.240886,-0.12058 -0.05614,0.0377 0.194075,0.1662 0.316072,0.21905 0.316072,0.13693 z m -0.89137,-0.79819 c 0,-0.0207 -0.116998,-0.0993 -0.259988,-0.1746 -0.235625,-0.12411 -0.240878,-0.12058 -0.05606,0.0377 0.194076,0.1662 0.316072,0.21905 0.316072,0.13694 z m 51.958474,-8.51792 0.036,-7.60773 h -2.15299 -2.153 v 7.63542 7.63542 l 2.11701,-0.0277 2.11702,-0.0277 z m -26.02343,6.98178 c -0.25667,-0.16465 -0.26065,-0.16197 -0.0905,0.0608 0.0979,0.12817 0.21869,0.20567 0.26849,0.17223 0.0498,-0.0335 -0.0302,-0.13831 -0.17796,-0.23304 z M 89.204386,224.58023 c 0.174542,-0.16462 0.283934,-0.29932 0.243077,-0.29932 -0.04091,0 -0.217092,0.1347 -0.391635,0.29932 -0.174551,0.16463 -0.283935,0.29932 -0.243077,0.29932 0.04091,0 0.217092,-0.13469 0.391635,-0.29932 z"
         id="path992" />
      <path
         style="fill:#800080;stroke:#000000;stroke-width:15.4166;stroke-linecap:round;stroke-linejoin:round;stroke-dasharray:3.85415, 3.85415;stroke-opacity:0.955017;paint-order:stroke markers fill"
         d="m 194.94541,921.93271 c -3.08486,-1.87601 -5.89429,-5.66757 -7.69686,-10.38751 -2.15637,-5.64637 -3.86808,-7.67177 -7.12096,-8.42594 -2.35523,-0.54605 -11.68942,-4.31363 -20.74264,-8.37239 -15.73888,-7.05608 -16.46041,-7.59732 -16.46041,-12.34731 0,-2.73226 0.90331,-6.0577 2.00736,-7.38987 2.43133,-2.93368 32.10619,-16.71133 39.18822,-18.19457 3.77501,-0.79063 5.54496,-2.36433 6.95767,-6.18623 3.09902,-8.38401 4.13626,-9.8023 9.44162,-12.91023 5.00619,-2.93268 5.21553,-2.9179 18.25711,1.28866 7.25607,2.34044 15.71151,6.20474 18.78988,8.58732 8.06895,6.24517 9.77686,6.55918 13.79898,2.53706 4.4782,-4.47821 12.31948,-6.63069 28.86307,-7.92312 l 12.84715,-1.00365 3.21178,5.57535 c 3.30966,5.74524 21.74377,22.0082 24.94636,22.0082 0.99088,0 7.15295,-5.68852 13.69349,-12.64115 6.54054,-6.95264 14.02062,-13.52291 16.62239,-14.60059 4.29169,-1.77768 5.78523,-1.40519 16.10129,4.01575 11.38209,5.98112 20.97536,14.81129 20.97536,19.30688 0,4.72974 7.26588,5.5889 19.91214,2.35453 16.96732,-4.33951 27.78737,-9.36423 32.13953,-14.92528 3.68569,-4.70943 4.05337,-4.8052 18.81141,-4.89991 20.23778,-0.12988 22.63893,0.77482 21.98656,8.28405 l -0.51075,5.8792 13.24862,-0.0592 13.24862,-0.0592 0.002,18.52698 0.002,18.52697 h -15.65005 -15.65003 l 0.49639,5.80747 c 0.61447,7.18933 -1.05063,7.79001 -21.67906,7.8207 -11.28039,0.0168 -15.33209,-0.57034 -17.26335,-2.50162 -1.38674,-1.38796 -2.52233,-3.0959 -2.52233,-3.79543 0,-1.88313 -18.04667,-9.64104 -30.86679,-13.26904 -13.62138,-3.85474 -18.16347,-2.98629 -21.09661,4.03367 -2.87089,6.87102 -10.66262,13.32838 -23.16704,19.19957 l -10.09175,4.73836 -6.17394,-4.08572 c -3.39568,-2.24714 -10.41682,-8.83029 -15.60256,-14.62921 -8.93312,-9.98941 -13.58919,-12.60098 -15.8742,-8.90376 -0.55798,0.90283 -5.03552,4.61201 -9.95008,8.24261 -4.91456,3.6306 -9.71768,8.67314 -10.67359,11.20563 -1.71674,4.54818 -1.89768,4.60454 -14.78082,4.60454 -15.34531,0 -27.62415,-3.26489 -31.47404,-8.36881 l -2.7536,-3.65053 -4.51732,3.59395 c -6.16997,4.90879 -14.35634,9.19576 -22.9851,12.03666 -13.08672,4.30862 -15.16092,4.44757 -20.24434,1.35615 z"
         id="path1049"
         transform="scale(0.26458333)" />
      <path
         style="fill:#ff00ff;stroke:#000000;stroke-width:15.4166;stroke-linecap:round;stroke-linejoin:round;stroke-dasharray:3.85415, 3.85415;stroke-opacity:0.955017;paint-order:stroke markers fill"
         d="m 331.60006,1053.107 c -1.75714,-0.9462 -3.47714,-1.9563 -3.82223,-2.2447 -0.70666,-0.5907 13.18142,-19.4105 27.70511,-37.5434 5.3058,-6.6243 9.74203,-12.2123 9.85829,-12.4177 0.11626,-0.2055 2.4146,0.458 5.10742,1.4745 l 4.89604,1.848 -18.39288,23.7398 c -10.11609,13.0569 -19.2398,24.4427 -20.27491,25.3018 -1.22733,1.0186 -2.99341,0.9635 -5.07684,-0.1583 z"
         id="path1125"
         transform="scale(0.26458333)" />
      <path
         style="fill:#ff00ff;stroke:#000000;stroke-width:15.4166;stroke-linecap:round;stroke-linejoin:round;stroke-dasharray:3.85415, 3.85415;stroke-opacity:0.955017;paint-order:stroke markers fill"
         d="m 515.49187,880.83269 v -28.10314 h 7.22652 7.22653 v 28.10314 28.10314 h -7.22653 -7.22652 z"
         id="path1203"
         transform="scale(0.26458333)" />
      <path
         style="fill:#ff00ff;stroke:#000000;stroke-width:15.4166;stroke-linecap:round;stroke-linejoin:round;stroke-dasharray:3.85415, 3.85415;stroke-opacity:0.955017;paint-order:stroke markers fill"
         d="M 513.88598,967.55094 V 941.0537 h 5.62063 5.62062 v 26.49724 26.49725 h -5.62062 -5.62063 z"
         id="path1242"
         transform="scale(0.26458333)" />
      <path
         style="fill:#ff00ff;stroke:#000000;stroke-width:11.7857;stroke-linecap:round;stroke-linejoin:round;stroke-dasharray:2.94642, 2.94642;stroke-opacity:0.955017;paint-order:stroke markers fill"
         d="m 415.8749,1045.059 c -15.36128,-6.5259 -27.9296,-12.2421 -27.9296,-12.7026 0,-0.4606 1.02613,-2.1046 2.28029,-3.6534 l 2.2803,-2.8161 12.75872,5.2651 c 20.46564,8.4455 44.63467,18.7501 45.19465,19.269 0.60429,0.5599 -4.90509,6.6318 -5.948,6.5553 -0.38871,-0.029 -13.27507,-5.3913 -28.63636,-11.9173 z"
         id="path1281"
         transform="scale(0.26458333)" />
      <path
         style="fill:#ff00ff;stroke:#000000;stroke-width:11.7857;stroke-linecap:round;stroke-linejoin:round;stroke-dasharray:2.94642, 2.94642;stroke-opacity:0.955017;paint-order:stroke markers fill"
         d="m 414.95415,1000.5551 v -15.95976 h 4.9107 4.9107 v 15.95976 15.9598 h -4.9107 -4.9107 z"
         id="path1320"
         transform="scale(0.26458333)" />
      <path
         style="fill:#ff00ff;stroke:#000000;stroke-width:11.7857;stroke-linecap:round;stroke-linejoin:round;stroke-dasharray:2.94642, 2.94642;stroke-opacity:0.955017;paint-order:stroke markers fill"
         d="m 487.38697,1032.4747 v -18.4152 h 5.52454 5.52454 v 18.4152 18.4151 h -5.52454 -5.52454 z"
         id="path1359"
         transform="scale(0.26458333)" />
      <path
         style="fill:#ff00ff;stroke:#000000;stroke-width:11.7857;stroke-linecap:round;stroke-linejoin:round;stroke-dasharray:2.94642, 2.94642;stroke-opacity:0.955017;paint-order:stroke markers fill"
         d="m 371.98552,948.37893 v -4.29686 h 39.89944 39.89944 v 4.29686 4.29686 h -39.89944 -39.89944 z"
         id="path1437"
         transform="scale(0.26458333)" />
    </g>
    <g
       id="g2170"
       transform="translate(-36.704925,-121.48356)">
      <path
         style="fill:#000000;stroke-width:0.121748"
         d="m 208.55939,278.81308 c -7.29387,-3.07398 -8.61818,-3.66711 -8.6268,-3.86375 -0.005,-0.12777 -0.0615,-0.30841 -0.12418,-0.40142 -0.0813,-0.12059 0.28102,-0.61137 1.26263,-1.71037 1.87563,-2.09995 1.56227,-2.07901 5.63132,-0.37633 11.00359,4.60444 14.55565,6.13219 14.63171,6.29311 0.0873,0.18472 -2.08681,2.72826 -2.85834,3.34405 -0.75147,0.59978 -0.50107,0.68275 -9.91634,-3.28529 z m 9.85714,1.31808 c 0.49663,-0.5617 0.85522,-1.04918 0.79687,-1.08328 -0.27557,-0.16107 -15.65439,-6.57576 -15.76498,-6.57576 -0.19991,0 -1.82991,1.89406 -1.75014,2.03366 0.0395,0.069 3.13697,1.41264 6.88336,2.98576 3.74638,1.57313 7.21273,3.03684 7.70298,3.25271 0.49025,0.21586 0.96732,0.39601 1.06015,0.40032 0.0928,0.004 0.57512,-0.45171 1.07176,-1.01341 z m -31.71418,1.0861 c -1.22331,-0.44722 -2.455,-0.94117 -2.73709,-1.09766 -0.28209,-0.15648 -0.41796,-0.25014 -0.30194,-0.20812 0.15596,0.0565 0.185,0.0331 0.11142,-0.0896 -0.0548,-0.0913 -0.13314,-0.22215 -0.17422,-0.29074 -0.0574,-0.0958 11.17954,-14.74694 11.45292,-14.93284 0.0337,-0.0229 0.17817,-0.0486 0.32112,-0.0572 0.14295,-0.009 0.40747,-0.0484 0.58783,-0.0885 0.25244,-0.0561 0.85085,0.12149 2.59977,0.77153 l 2.27185,0.8444 0.10747,0.42279 c 0.10494,0.41283 -0.0242,0.59238 -5.47781,7.61679 -3.0719,3.95669 -5.68515,7.30992 -5.8072,7.45162 -0.4676,0.54282 -0.56284,0.53177 -2.95412,-0.34246 z m 3.14058,-2.26663 c 0.65498,-0.84684 2.1335,-2.75197 3.2856,-4.23361 5.18008,-6.66179 5.98062,-7.70122 6.02462,-7.82239 0.0448,-0.12329 -2.57948,-1.1948 -2.94679,-1.20321 -0.2793,-0.006 -10.81752,13.65856 -10.63027,13.78432 0.27009,0.18139 2.77019,1.07151 2.92739,1.04227 0.0817,-0.0152 0.68446,-0.72053 1.33945,-1.56738 z m 37.51934,1.42983 c -0.34046,-0.0277 -0.44499,-0.0687 -0.31419,-0.12297 0.14977,-0.0622 0.12118,-0.10825 -0.12119,-0.19536 l -0.3172,-0.11401 v -5.62698 c 0,-5.53935 0.005,-5.62796 0.29713,-5.69031 0.16342,-0.0348 0.29712,-0.12285 0.29712,-0.19559 0,-0.2209 0.37229,-0.25339 2.90389,-0.25339 2.373,0 2.43829,0.006 2.60938,0.22449 0.0965,0.12347 0.26599,0.2604 0.37663,0.30428 0.16541,0.0656 0.20116,1.08675 0.20116,5.74646 0,5.36308 -0.0145,5.67553 -0.27169,5.8318 -0.23205,0.14104 -0.62752,0.1628 -2.71126,0.14916 -1.34176,-0.009 -2.66916,-0.0347 -2.94978,-0.0576 z m 4.29854,-6.06253 v -4.93879 h -1.70847 -1.70846 v 4.93879 4.93879 h 1.70846 1.70847 z m -23.15983,-3.11394 c -0.11382,-0.0303 -0.36452,-0.14709 -0.5571,-0.25954 l -0.35015,-0.20447 v -4.88578 -4.88578 l 0.5126,-0.33434 0.51261,-0.33435 h 2.31008 c 1.83605,0 2.31007,0.0275 2.31007,0.1342 0,0.0738 0.13371,0.21546 0.29713,0.31479 0.28957,0.17599 0.29713,0.3073 0.29713,5.16036 0,3.24188 -0.0537,5.04713 -0.1538,5.17277 -0.14276,0.17915 -0.32654,0.19242 -2.56269,0.1851 -1.3249,-0.004 -2.50204,-0.0327 -2.61588,-0.063 z m 3.69818,-5.36682 v -4.34015 h -1.48562 -1.48563 v 4.34015 4.34015 h 1.48563 1.48562 z m 22.13576,-0.14966 c -0.28598,-0.0404 -0.41968,-0.0808 -0.29711,-0.0898 0.15115,-0.0111 0.0914,-0.0822 -0.18571,-0.22101 l -0.40855,-0.2047 v -7.81679 c 0,-6.97313 0.0252,-7.8337 0.23346,-7.97356 0.1284,-0.0862 0.29553,-0.15679 0.37141,-0.15679 0.0759,0 0.13795,-0.0625 0.13795,-0.13899 0,-0.22897 0.35646,-0.2601 2.97816,-0.2601 2.45005,0 2.51225,0.005 2.68366,0.22449 0.0965,0.12347 0.266,0.26039 0.37663,0.30428 0.29555,0.11723 0.29004,15.99654 -0.005,16.25814 -0.17572,0.15546 -0.48057,0.17316 -2.78082,0.16147 -1.42091,-0.007 -2.81745,-0.0462 -3.10343,-0.0866 z m 4.45688,-8.38098 v -7.28348 h -1.78275 -1.78275 v 7.28348 7.28347 h 1.78275 1.78275 z m -42.04311,-2.89344 c -0.28598,-0.0404 -0.42153,-0.0794 -0.30121,-0.0866 0.1541,-0.009 0.12117,-0.059 -0.11142,-0.16845 -0.32204,-0.15149 -0.33018,-0.20337 -0.33018,-2.10459 0,-1.83386 0.0168,-1.95221 0.28338,-1.99903 0.15587,-0.0274 0.31674,-0.13542 0.3575,-0.2401 0.0721,-0.18521 0.3876,-0.19032 11.74493,-0.19032 h 11.67082 l 0.17547,0.22449 c 0.0965,0.12347 0.266,0.26039 0.37663,0.30428 0.28849,0.11443 0.28334,3.92986 -0.005,4.18553 -0.18521,0.16386 -0.90929,0.1738 -11.76883,0.16147 -6.36431,-0.007 -11.80546,-0.0462 -12.09145,-0.0866 z m 22.40019,-2.31974 0.0415,-1.27211 h -10.77517 -10.7752 v 1.23054 c 0,0.6768 0.045,1.26077 0.10001,1.29771 0.055,0.037 4.88515,0.0556 10.73363,0.0416 l 10.63359,-0.0256 z m -68.55708,-5.47961 c -1.5484,-0.82166 -2.39898,-1.36858 -2.67262,-1.7185 -0.12421,-0.15883 -0.35381,-0.8323 -0.51022,-1.4966 -0.15641,-0.6643 -0.35655,-1.32833 -0.44474,-1.47562 -0.15116,-0.25243 -0.6026,-0.44063 -2.02727,-0.84514 -0.76445,-0.21706 -2.03247,-0.78598 -4.19621,-1.88272 -2.82484,-1.43184 -3.6418,-1.77955 -4.0236,-1.71249 -0.23401,0.0411 -0.33819,0.003 -0.39602,-0.14576 -0.0549,-0.14095 -0.11242,-0.16463 -0.19143,-0.0788 -0.18662,0.2028 -0.53999,0.0325 -0.64178,-0.30932 -0.14328,-0.4811 -0.11476,-1.27202 0.0472,-1.30979 0.14331,-0.0334 0.45126,-1.8504 0.45149,-2.66395 1.1e-4,-0.38657 -0.0334,-0.4298 -0.297,-0.38349 -0.27429,0.0482 -0.29713,0.003 -0.29713,-0.58701 0,-0.56743 0.0325,-0.63919 0.29,-0.63919 0.68505,0 3.32788,-1.06134 6.09818,-2.44899 2.06408,-1.03391 3.37985,-1.61246 4.57657,-2.01235 0.92379,-0.30869 1.74294,-0.64072 1.82034,-0.73785 0.0774,-0.0971 0.27659,-0.7293 0.44264,-1.40482 0.40235,-1.63684 0.65615,-1.95098 2.30524,-2.85319 0.73086,-0.39985 1.57603,-0.84208 1.87815,-0.98273 l 0.54931,-0.25572 1.22366,0.27368 c 2.64416,0.5914 7.03248,2.28972 8.98905,3.47884 l 0.90113,0.54767 0.50479,-0.34981 c 1.14778,-0.7954 2.81767,-1.29625 5.70447,-1.71095 1.49511,-0.21478 2.19023,-0.25742 4.3083,-0.26428 2.91198,-0.009 3.55253,0.0786 4.093,0.5625 0.39966,0.35782 0.51057,0.68738 0.20481,0.60858 -0.15312,-0.0395 -0.1492,0.0726 0.0195,0.5583 0.23313,0.67115 0.84345,1.53906 1.51337,2.1521 0.50878,0.46559 3.29521,2.58043 3.45621,2.6232 0.0602,0.016 0.73179,-0.67993 1.49239,-1.54649 1.45952,-1.66286 2.33874,-2.53512 3.68581,-3.65662 0.77829,-0.64797 2.20654,-1.51899 2.69325,-1.6425 0.12288,-0.0312 0.31176,-0.11532 0.41973,-0.18699 0.25926,-0.17208 0.8042,-0.16488 1.4605,0.0193 0.93259,0.26169 5.12445,2.44664 6.59223,3.4361 0.80495,0.54263 1.72346,1.28637 2.13006,1.72475 0.7155,0.77142 1.42257,1.93033 1.42846,2.34131 0.002,0.12023 0.0687,0.24583 0.14893,0.27911 0.4885,0.20277 5.77426,-1.35998 8.0994,-2.3946 1.65776,-0.73765 1.86516,-0.90824 1.99359,-1.6398 0.0924,-0.52609 0.1765,-0.64991 0.61659,-0.90737 1.28519,-0.75188 2.91072,-1.02628 6.08071,-1.02647 3.58569,-2e-4 6.0864,0.45632 7.07273,1.2912 0.63252,0.5354 0.70536,0.73788 0.67369,1.87268 l -0.0275,0.98588 0.56027,-0.0587 c 0.30815,-0.0323 1.44608,-0.11381 2.52872,-0.18113 l 1.96846,-0.12241 v -0.89444 c 0,-0.88866 0.003,-0.89661 0.5126,-1.22879 l 0.51261,-0.33435 h 2.8991 c 2.85543,0 2.90174,0.003 3.07458,0.22449 0.0965,0.12348 0.26599,0.2604 0.37662,0.30428 0.30248,0.11998 0.28931,16.59571 -0.0135,16.86398 -0.18934,0.16775 -0.45009,0.17931 -3.37507,0.14966 -3.11374,-0.0316 -3.17712,-0.0364 -3.57843,-0.27462 -0.39596,-0.23501 -0.40854,-0.27418 -0.40854,-1.27211 v -1.02963 l -1.07708,-0.001 c -0.59239,-3.8e-4 -1.94617,-0.067 -3.00839,-0.14772 -1.06222,-0.0807 -2.00594,-0.14759 -2.09717,-0.14866 -0.11334,-0.002 -0.14262,0.21628 -0.0925,0.68709 0.11281,1.05891 -0.046,1.53082 -0.70288,2.08895 -1.032,0.87682 -3.3843,1.31273 -7.08382,1.31273 -3.34196,0 -5.15846,-0.32379 -6.21259,-1.10741 -0.44581,-0.3314 -0.52432,-0.4611 -0.52432,-0.86615 0,-0.2651 -0.10032,-0.57257 -0.2262,-0.69326 -0.79534,-0.7626 -7.17003,-3.00326 -9.30368,-3.27018 l -0.54186,-0.0678 -0.15779,0.49409 c -0.42433,1.32883 -1.55915,2.57655 -3.56938,3.92449 -1.68543,1.13016 -5.98111,3.31861 -6.86193,3.49585 -0.55437,0.11154 -0.66821,0.10085 -1.28112,-0.12036 -1.80319,-0.65081 -3.97876,-2.40772 -6.47812,-5.23147 -0.82571,-0.93288 -1.52858,-1.7186 -1.56192,-1.74604 -0.094,-0.0774 -2.31772,1.55599 -3.3102,2.43145 -1.09986,0.9702 -1.59832,1.61836 -1.71769,2.23358 -0.0505,0.26033 -0.16617,0.53784 -0.25702,0.61671 -0.13271,0.11521 -0.11408,0.13053 0.0948,0.078 0.43626,-0.10981 0.30802,0.24134 -0.23246,0.63651 -0.44412,0.32471 -0.60928,0.37136 -1.72919,0.48836 -1.64169,0.17152 -4.3189,0.071 -6.60261,-0.24799 -2.71956,-0.37981 -4.15524,-0.80065 -5.58275,-1.63645 l -0.665,-0.38935 -0.86686,0.539 c -2.28019,1.41777 -8.42086,3.6312 -10.07398,3.6312 -0.28241,0 -0.78164,-0.19529 -1.57378,-0.61565 z m 2.95152,-0.71252 c 0.13699,-0.006 0.22095,-0.0422 0.18656,-0.0796 -0.0762,-0.0828 0.39241,-0.21452 0.50176,-0.14108 0.0428,0.0287 -0.0114,0.0522 -0.1203,0.0522 -0.10895,0 -0.16179,0.0244 -0.11744,0.0542 0.12229,0.0821 1.15585,-0.27443 1.06901,-0.36878 -0.0416,-0.0452 0.0212,-0.0573 0.13945,-0.0268 0.27716,0.0714 2.06828,-0.53272 1.95246,-0.65858 -0.0482,-0.0524 0.003,-0.072 0.11311,-0.0435 0.40206,0.10362 4.22601,-1.65724 4.03937,-1.86006 -0.0479,-0.052 -0.004,-0.0823 0.0975,-0.0672 0.10153,0.0151 0.26589,-0.0774 0.36524,-0.20547 0.0993,-0.12809 0.25524,-0.28299 0.34641,-0.34422 0.0912,-0.0612 0.16577,-0.18319 0.16577,-0.27103 0,-0.0878 0.0829,-0.27762 0.18414,-0.42175 0.15155,-0.21567 0.25675,-0.2523 0.59425,-0.20697 0.25335,0.034 0.41011,0.0122 0.41011,-0.0572 0,-0.0617 0.0762,-0.11225 0.16933,-0.11225 0.28306,0 0.56376,0.33067 0.56876,0.67 0.0114,0.7776 2.08106,1.63189 5.05584,2.08694 1.48812,0.22764 2.06601,0.26294 4.48084,0.27375 2.63095,0.0118 3.27072,-0.0411 2.81013,-0.23228 -0.4628,-0.1921 0.28542,-1.62612 1.44122,-2.76221 0.6049,-0.59458 1.10648,-0.98103 2.75207,-2.12033 0.50638,-0.35057 0.8204,-0.60028 0.69784,-0.5549 -0.12257,0.0454 0.0224,-0.10156 0.322,-0.32655 0.29967,-0.22499 0.62627,-0.51406 0.7258,-0.64238 0.24785,-0.3196 0.22669,-0.31272 0.57586,-0.18721 0.25039,0.09 0.32944,0.0817 0.40003,-0.0418 0.17499,-0.30626 0.4652,-0.14146 0.86587,0.49166 0.52269,0.82597 2.79142,3.42589 3.904,4.47392 1.10611,1.04193 2.77032,2.22645 3.23909,2.30547 0.20168,0.034 0.3667,0.10585 0.3667,0.15968 0,0.0538 0.20451,0.0979 0.45445,0.0979 0.26164,0 0.41595,-0.0419 0.36369,-0.0986 -0.0499,-0.0542 7.7e-4,-0.075 0.11338,-0.046 0.11404,0.0294 1.08455,-0.39364 2.199,-0.95852 2.19439,-1.11225 2.83487,-1.4851 2.7359,-1.59265 -0.036,-0.0392 0.0822,-0.15574 0.26271,-0.25911 0.32221,-0.1845 0.32419,-0.18445 0.10792,0.003 -0.18959,0.16424 -0.19023,0.18416 -0.005,0.14295 0.11861,-0.0263 0.34204,-0.1998 0.49651,-0.38549 0.15445,-0.18569 0.54438,-0.5387 0.86648,-0.78446 0.83518,-0.63722 1.60252,-1.73665 1.78797,-2.56181 0.19609,-0.87241 0.29523,-0.99661 0.77691,-0.97328 0.30112,0.0146 0.38763,-0.027 0.38763,-0.18624 0,-0.15586 0.0712,-0.19252 0.29698,-0.15286 0.16334,0.0287 0.32922,0.0171 0.36863,-0.0257 0.31832,-0.3459 5.65858,1.11403 8.39669,2.2955 2.44069,1.05314 3.26836,1.67581 3.26836,2.45882 0,0.5064 0.28006,0.68168 1.50714,0.94327 0.69011,0.14711 1.534,0.21627 3.13645,0.25704 2.36269,0.0601 3.95255,-0.0548 5.22175,-0.3774 0.40081,-0.10188 0.7832,-0.16264 0.84973,-0.13503 0.0665,0.0276 0.22387,-0.11516 0.34962,-0.31728 0.16833,-0.27056 0.21851,-0.6533 0.19021,-1.45081 -0.033,-0.92985 -0.0753,-1.09131 -0.29843,-1.13984 -0.35894,-0.0781 -0.32537,-0.23143 0.0743,-0.33931 0.18385,-0.0496 0.26741,-0.0948 0.1857,-0.10047 -0.0817,-0.006 0.073,-0.0748 0.34374,-0.15384 0.42723,-0.12463 0.79045,-0.125 2.74839,-0.003 1.24087,0.0774 2.84108,0.17159 3.55604,0.20921 l 1.29992,0.0684 v -5.15999 -5.15994 l -0.85424,0.065 c -4.47845,0.3406 -5.83107,0.33657 -5.83107,-0.0173 0,-0.0703 -0.1337,-0.12779 -0.29711,-0.12779 -0.37094,0 -0.3919,-0.20158 -0.0276,-0.26556 0.23888,-0.042 0.27354,-0.18365 0.3048,-1.24634 0.0195,-0.66367 -0.0288,-1.25089 -0.10832,-1.31521 -0.079,-0.0639 -0.166,-0.16111 -0.19338,-0.21598 -0.0274,-0.0549 -0.13262,-0.0936 -0.23388,-0.0861 -0.10126,0.007 -0.14303,-0.031 -0.0928,-0.0855 0.0569,-0.0618 -0.0347,-0.0723 -0.24305,-0.0279 -0.18672,0.0398 -0.29813,0.0319 -0.25235,-0.0178 0.0451,-0.049 -0.0301,-0.0931 -0.1671,-0.0981 -0.13699,-0.005 -0.7829,-0.0874 -1.43537,-0.18319 -1.54278,-0.22651 -5.63196,-0.1639 -6.91034,0.1058 -1.28044,0.27014 -1.43274,0.36911 -1.52867,0.99331 -0.10011,0.65146 -0.42086,0.98204 -1.55469,1.60233 -2.18857,1.19732 -7.67902,2.99404 -9.65585,3.15983 -0.26556,0.0223 -0.48284,3e-4 -0.48284,-0.0487 0,-0.0491 -0.13839,-0.0597 -0.30754,-0.0236 -0.23074,0.0492 -0.32715,0.0152 -0.38604,-0.13604 -0.0478,-0.12258 -0.16084,-0.18037 -0.2886,-0.14744 -0.36134,0.0931 -0.60795,-0.1498 -0.70293,-0.69244 -0.14992,-0.85644 -0.49152,-1.4755 -1.27142,-2.30405 -0.40556,-0.43087 -0.83626,-0.8574 -0.95709,-0.94785 -1.19031,-0.89092 -2.10133,-1.51139 -2.21916,-1.51139 -0.0788,0 -0.0515,0.0786 0.0607,0.1746 0.1845,0.15801 0.17933,0.16168 -0.0545,0.0386 -0.14208,-0.0748 -0.22422,-0.17308 -0.18254,-0.21839 0.15371,-0.16702 -3.83321,-2.09004 -4.3332,-2.09004 -0.77834,0 -1.84429,0.55073 -3.08981,1.59638 -1.78645,1.49978 -5.13529,5.23139 -5.13529,5.72228 0,0.077 -0.10237,0.19699 -0.22749,0.26673 -0.18756,0.10454 -0.26131,0.0957 -0.4203,-0.0503 -0.16402,-0.15066 -0.24434,-0.15858 -0.53785,-0.0531 -0.29999,0.10782 -0.333,0.10296 -0.25289,-0.0373 0.0591,-0.1034 0.0138,-0.16127 -0.12603,-0.16127 -0.12,0 -0.21818,-0.0386 -0.21818,-0.0857 0,-0.0472 -0.26741,-0.28975 -0.59425,-0.53912 -0.32684,-0.24937 -0.59425,-0.48556 -0.59425,-0.52488 0,-0.0393 -0.31755,-0.27583 -0.70567,-0.52558 -0.38812,-0.24974 -0.70567,-0.48196 -0.70567,-0.51603 0,-0.0341 -0.29854,-0.27587 -0.66342,-0.53732 -1.33001,-0.953 -2.36076,-2.15371 -2.68627,-3.12922 -0.1328,-0.39795 -0.12069,-0.49065 0.0767,-0.58759 0.2053,-0.10082 0.19248,-0.12262 -0.10335,-0.17573 -2.18092,-0.39155 -7.57962,0.0849 -10.0104,0.88344 -1.121,0.36827 -2.32759,1.12602 -2.27133,1.42641 0.047,0.25115 -0.1737,0.7195 -0.33909,0.7195 -0.0787,0 -0.24566,-0.0689 -0.37104,-0.15311 -0.17764,-0.11929 -0.2745,-0.12717 -0.43867,-0.0357 -0.11588,0.0646 -0.22579,0.0998 -0.24424,0.0783 -0.31483,-0.36747 -0.40496,-0.51384 -0.40496,-0.65761 0,-0.0947 -0.28412,-0.37465 -0.63139,-0.6221 -0.34726,-0.24745 -0.46426,-0.3621 -0.25998,-0.25477 0.3117,0.16377 0.30096,0.14306 -0.0668,-0.12887 -0.91653,-0.67768 -5.35772,-2.4949 -5.81156,-2.37794 -0.14852,0.0383 -0.191,0.0184 -0.12175,-0.0568 0.0717,-0.0779 0.0232,-0.0942 -0.14856,-0.0499 -0.14021,0.0361 -0.21888,0.0265 -0.17483,-0.0214 0.11127,-0.12091 -0.74839,-0.34606 -0.97003,-0.25406 -0.12329,0.0512 -0.14195,0.033 -0.0589,-0.0572 0.0883,-0.096 0.0539,-0.1147 -0.12561,-0.0684 -0.14111,0.0363 -0.24721,0.0151 -0.24721,-0.0496 0,-0.0623 -0.0395,-0.0868 -0.0877,-0.0544 -0.0482,0.0324 -0.34201,-0.001 -0.65281,-0.075 -0.65244,-0.1546 -0.61574,-0.16664 -2.32088,0.7613 -0.58069,0.31601 -1.1328,0.70041 -1.22691,0.85421 -0.0941,0.1538 -0.29729,0.8014 -0.45153,1.43911 -0.15423,0.63772 -0.43183,1.37853 -0.61688,1.64627 -0.34237,0.49535 -0.38577,0.57026 -0.41864,0.72245 -0.0102,0.0473 -0.38984,0.13608 -0.84363,0.19728 -1.25012,0.16861 -2.921,0.8065 -5.36168,2.04691 -2.63947,1.34145 -3.7309,1.84452 -4.76027,2.19416 -0.71371,0.24242 -0.77654,0.29309 -0.8523,0.68729 -0.13455,0.70013 -0.42199,3.47625 -0.3631,3.50683 0.03,0.0156 0.63253,0.27869 1.33889,0.58466 0.70636,0.30597 2.11027,0.97805 3.1198,1.49351 1.00953,0.51546 2.16978,1.07778 2.57833,1.2496 1.0154,0.42702 2.61026,0.92387 2.97124,0.92561 0.49238,0.002 0.96758,0.11546 0.88094,0.20961 -0.0448,0.0486 6.1e-4,0.0884 0.10071,0.0884 0.10015,0 0.14038,0.028 0.0894,0.0622 -0.051,0.0342 0.0473,0.24652 0.2184,0.47176 0.17109,0.22523 0.46458,1.00866 0.65218,1.74096 0.18761,0.7323 0.44545,1.4384 0.57298,1.56912 0.12753,0.13072 0.78171,0.53581 1.45373,0.9002 1.13447,0.61515 1.25939,0.65759 1.74656,0.5934 0.28858,-0.038 0.63678,-0.0744 0.77377,-0.0808 z m 45.71968,-19.7989 -0.36016,-0.27437 0.40855,0.24188 c 0.38185,0.22608 0.47667,0.30687 0.36016,0.30687 -0.0266,0 -0.21046,-0.12347 -0.40855,-0.27438 z m -10.53667,17.298 c 0,-0.0207 -0.11699,-0.0993 -0.25998,-0.1746 -0.23563,-0.12411 -0.24089,-0.12058 -0.0561,0.0377 0.19407,0.1662 0.31607,0.21905 0.31607,0.13693 z m -0.89137,-0.79819 c 0,-0.0207 -0.117,-0.0993 -0.25999,-0.1746 -0.23562,-0.12411 -0.24088,-0.12058 -0.0561,0.0377 0.19408,0.1662 0.31607,0.21905 0.31607,0.13694 z m 51.95847,-8.51792 0.036,-7.60773 h -2.15299 -2.153 v 7.63542 7.63542 l 2.11701,-0.0277 2.11702,-0.0277 z M 213.77,241.06599 c -0.25667,-0.16465 -0.26065,-0.16197 -0.0905,0.0608 0.0979,0.12817 0.21869,0.20567 0.26849,0.17223 0.0498,-0.0335 -0.0302,-0.13831 -0.17796,-0.23304 z m -25.04367,-15.28793 c 0.17454,-0.16462 0.28393,-0.29932 0.24308,-0.29932 -0.0409,0 -0.2171,0.1347 -0.39164,0.29932 -0.17455,0.16463 -0.28393,0.29932 -0.24308,0.29932 0.0409,0 0.2171,-0.13469 0.39164,-0.29932 z"
         id="path1567" />
      <path
         style="fill:#000000;stroke:#000000;stroke-width:11.7857;stroke-linecap:round;stroke-linejoin:round;stroke-dasharray:2.94642, 2.94642;stroke-opacity:0.955017;paint-order:stroke markers fill"
         d="m 707.44771,1057.9529 c -2.19447,-0.704 -3.98994,-1.8565 -3.98994,-2.5611 0,-1.4349 26.28078,-36.2333 37.62369,-49.8176 0.71635,-0.8579 10.34329,2.7034 9.98187,3.6927 -0.6226,1.704 -38.38764,50.1721 -39.01184,50.0682 -0.33761,-0.056 -2.40931,-0.6782 -4.60378,-1.3822 z"
         id="path1643"
         transform="scale(0.26458333)" />
      <path
         style="fill:#000000;stroke:#000000;stroke-width:11.7857;stroke-linecap:round;stroke-linejoin:round;stroke-dasharray:2.94642, 2.94642;stroke-opacity:0.955017;paint-order:stroke markers fill"
         d="m 794.86142,1050.7804 c -14.14767,-5.9898 -26.98184,-11.4494 -28.52038,-12.1324 -2.67959,-1.1897 -2.71241,-1.3716 -0.77957,-4.3215 1.10979,-1.6937 2.64482,-3.0936 3.41119,-3.1108 0.76637,-0.017 14.21028,5.302 29.87536,11.8204 l 28.48197,11.8517 -2.08695,2.8595 c -1.14783,1.5728 -2.66557,3.0989 -3.37277,3.3916 -0.70719,0.2926 -12.86118,-4.3687 -27.00885,-10.3585 z"
         id="path1682"
         transform="scale(0.26458333)" />
      <path
         style="fill:#000000;stroke:#000000;stroke-width:11.7857;stroke-linecap:round;stroke-linejoin:round;stroke-dasharray:2.94642, 2.94642;stroke-opacity:0.955017;paint-order:stroke markers fill"
         d="m 791.85037,1004.852 v -15.34596 h 4.9107 4.9107 v 15.34596 15.3459 h -4.9107 -4.9107 z"
         id="path1721"
         transform="scale(0.26458333)" />
      <path
         style="fill:#000000;stroke:#000000;stroke-width:11.7857;stroke-linecap:round;stroke-linejoin:round;stroke-dasharray:2.94642, 2.94642;stroke-opacity:0.955017;paint-order:stroke markers fill"
         d="m 747.65407,953.28963 v -4.29686 h 39.89944 39.89943 v 4.29686 4.29686 h -39.89943 -39.89944 z"
         id="path1760"
         transform="scale(0.26458333)" />
      <path
         style="fill:#000000;stroke:#000000;stroke-width:11.7857;stroke-linecap:round;stroke-linejoin:round;stroke-dasharray:2.94642, 2.94642;stroke-opacity:0.955017;paint-order:stroke markers fill"
         d="m 891.29204,885.15367 v -28.23653 h 7.36605 7.36605 v 28.23653 28.23652 h -7.36605 -7.36605 z"
         id="path1799"
         transform="scale(0.26458333)" />
      <path
         style="fill:#000000;stroke:#000000;stroke-width:11.7857;stroke-linecap:round;stroke-linejoin:round;stroke-dasharray:2.94642, 2.94642;stroke-opacity:0.955017;paint-order:stroke markers fill"
         d="m 890.06437,972.31859 v -27.00885 h 6.13837 6.13838 v 27.00885 27.00885 h -6.13838 -6.13837 z"
         id="path1838"
         transform="scale(0.26458333)" />
      <path
         style="fill:#000000;stroke:#000000;stroke-width:11.7857;stroke-linecap:round;stroke-linejoin:round;stroke-dasharray:2.94642, 2.94642;stroke-opacity:0.955017;paint-order:stroke markers fill"
         d="m 863.05552,1036.7715 v -17.8013 h 6.13837 6.13838 v 17.8013 17.8013 h -6.13838 -6.13837 z"
         id="path2043"
         transform="scale(0.26458333)" />
    </g>
    <g
       id="g2627"
       transform="translate(-32.157412,26.960254)">
      <path
         style="fill:#000000;stroke-width:0.121748"
         d="m 113.71127,187.538 c -7.29387,-3.07398 -8.61818,-3.66711 -8.6268,-3.86375 -0.005,-0.12777 -0.0615,-0.30841 -0.12418,-0.40142 -0.0813,-0.12059 0.28102,-0.61137 1.26263,-1.71037 1.87563,-2.09995 1.56227,-2.07901 5.63132,-0.37633 11.00359,4.60444 14.55565,6.13219 14.63171,6.29311 0.0873,0.18472 -2.08681,2.72826 -2.85834,3.34405 -0.75147,0.59978 -0.50107,0.68275 -9.91634,-3.28529 z m 9.85714,1.31808 c 0.49663,-0.5617 0.85522,-1.04918 0.79687,-1.08328 -0.27557,-0.16107 -15.65439,-6.57576 -15.76498,-6.57576 -0.19991,0 -1.82991,1.89406 -1.75014,2.03366 0.0395,0.069 3.13697,1.41264 6.88336,2.98576 3.74638,1.57313 7.21273,3.03684 7.70298,3.25271 0.49025,0.21586 0.96732,0.39601 1.06015,0.40032 0.0928,0.004 0.57512,-0.45171 1.07176,-1.01341 z m -31.714183,1.0861 c -1.223314,-0.44722 -2.455003,-0.94117 -2.737092,-1.09766 -0.282089,-0.15648 -0.417958,-0.25014 -0.301938,-0.20812 0.155956,0.0565 0.185002,0.0331 0.111423,-0.0896 -0.05475,-0.0913 -0.133147,-0.22215 -0.174228,-0.29074 -0.05737,-0.0958 11.179541,-14.74694 11.452928,-14.93284 0.0337,-0.0229 0.17817,-0.0486 0.32112,-0.0572 0.14295,-0.009 0.40747,-0.0484 0.58783,-0.0885 0.25244,-0.0561 0.85085,0.12149 2.59977,0.77153 l 2.27185,0.8444 0.10747,0.42279 c 0.10494,0.41283 -0.0242,0.59238 -5.47781,7.61679 -3.071908,3.95669 -5.685151,7.30992 -5.807208,7.45162 -0.467591,0.54282 -0.562833,0.53177 -2.954115,-0.34246 z m 3.140577,-2.26663 c 0.654983,-0.84684 2.133502,-2.75197 3.285598,-4.23361 5.180088,-6.66179 5.980628,-7.70122 6.024628,-7.82239 0.0448,-0.12329 -2.57948,-1.1948 -2.94679,-1.20321 -0.2793,-0.006 -10.817525,13.65856 -10.63027,13.78432 0.270084,0.18139 2.77019,1.07151 2.927391,1.04227 0.08172,-0.0152 0.68446,-0.72053 1.339443,-1.56738 z m 37.519346,1.42983 c -0.34046,-0.0277 -0.44499,-0.0687 -0.31419,-0.12297 0.14977,-0.0622 0.12118,-0.10825 -0.12119,-0.19536 l -0.3172,-0.11401 v -5.62698 c 0,-5.53935 0.005,-5.62796 0.29713,-5.69031 0.16342,-0.0348 0.29712,-0.12285 0.29712,-0.19559 0,-0.2209 0.37229,-0.25339 2.90389,-0.25339 2.373,0 2.43829,0.006 2.60938,0.22449 0.0965,0.12347 0.26599,0.2604 0.37663,0.30428 0.16541,0.0656 0.20116,1.08675 0.20116,5.74646 0,5.36308 -0.0145,5.67553 -0.27169,5.8318 -0.23205,0.14104 -0.62752,0.1628 -2.71126,0.14916 -1.34176,-0.009 -2.66916,-0.0347 -2.94978,-0.0576 z m 4.29854,-6.06253 v -4.93879 h -1.70847 -1.70846 v 4.93879 4.93879 h 1.70846 1.70847 z m -23.15983,-3.11394 c -0.11382,-0.0303 -0.36452,-0.14709 -0.5571,-0.25954 l -0.35015,-0.20447 v -4.88578 -4.88578 l 0.5126,-0.33434 0.51261,-0.33435 h 2.31008 c 1.83605,0 2.31007,0.0275 2.31007,0.1342 0,0.0738 0.13371,0.21546 0.29713,0.31479 0.28957,0.17599 0.29713,0.3073 0.29713,5.16036 0,3.24188 -0.0537,5.04713 -0.1538,5.17277 -0.14276,0.17915 -0.32654,0.19242 -2.56269,0.1851 -1.3249,-0.004 -2.50204,-0.0327 -2.61588,-0.063 z m 3.69818,-5.36682 v -4.34015 h -1.48562 -1.48563 v 4.34015 4.34015 h 1.48563 1.48562 z m 22.13576,-0.14966 c -0.28598,-0.0404 -0.41968,-0.0808 -0.29711,-0.0898 0.15115,-0.0111 0.0914,-0.0822 -0.18571,-0.22101 l -0.40855,-0.2047 v -7.81679 c 0,-6.97313 0.0252,-7.8337 0.23346,-7.97356 0.1284,-0.0862 0.29553,-0.15679 0.37141,-0.15679 0.0759,0 0.13795,-0.0625 0.13795,-0.13899 0,-0.22897 0.35646,-0.2601 2.97816,-0.2601 2.45005,0 2.51225,0.005 2.68366,0.22449 0.0965,0.12347 0.266,0.26039 0.37663,0.30428 0.29555,0.11723 0.29004,15.99654 -0.005,16.25814 -0.17572,0.15546 -0.48057,0.17316 -2.78082,0.16147 -1.42091,-0.007 -2.81745,-0.0462 -3.10343,-0.0866 z m 4.45688,-8.38098 v -7.28348 h -1.78275 -1.78275 v 7.28348 7.28347 h 1.78275 1.78275 z m -42.04311,-2.89344 c -0.28598,-0.0404 -0.42153,-0.0794 -0.30121,-0.0866 0.1541,-0.009 0.12117,-0.059 -0.11142,-0.16845 -0.32204,-0.15149 -0.33018,-0.20337 -0.33018,-2.10459 0,-1.83386 0.0168,-1.95221 0.28338,-1.99903 0.15587,-0.0274 0.31674,-0.13542 0.3575,-0.2401 0.0721,-0.18521 0.3876,-0.19032 11.74493,-0.19032 h 11.67082 l 0.17547,0.22449 c 0.0965,0.12347 0.266,0.26039 0.37663,0.30428 0.28849,0.11443 0.28334,3.92986 -0.005,4.18553 -0.18521,0.16386 -0.90929,0.1738 -11.76883,0.16147 -6.36431,-0.007 -11.80546,-0.0462 -12.09145,-0.0866 z m 22.40019,-2.31974 0.0415,-1.27211 h -10.77517 -10.7752 v 1.23054 c 0,0.6768 0.045,1.26077 0.10001,1.29771 0.055,0.037 4.88515,0.0556 10.73363,0.0416 l 10.63359,-0.0256 z m -68.557084,-5.47961 c -1.548395,-0.82166 -2.39898,-1.36858 -2.67262,-1.7185 -0.124211,-0.15883 -0.353811,-0.8323 -0.510222,-1.4966 -0.156411,-0.6643 -0.356545,-1.32833 -0.444742,-1.47562 -0.151156,-0.25243 -0.602596,-0.44063 -2.027262,-0.84514 -0.764453,-0.21706 -2.032476,-0.78598 -4.196214,-1.88272 -2.824837,-1.43184 -3.6418,-1.77955 -4.023597,-1.71249 -0.234009,0.0411 -0.338195,0.003 -0.396022,-0.14576 -0.05488,-0.14095 -0.112419,-0.16463 -0.191427,-0.0788 -0.186627,0.2028 -0.539998,0.0325 -0.641788,-0.30932 -0.143273,-0.4811 -0.114754,-1.27202 0.04722,-1.30979 0.143314,-0.0334 0.45126,-1.8504 0.451491,-2.66395 1.1e-4,-0.38657 -0.03336,-0.4298 -0.297,-0.38349 -0.27429,0.0482 -0.297124,0.003 -0.297124,-0.58701 0,-0.56743 0.03255,-0.63919 0.29,-0.63919 0.685052,0 3.327875,-1.06134 6.098175,-2.44899 2.064084,-1.03391 3.379852,-1.61246 4.576573,-2.01235 0.923785,-0.30869 1.742938,-0.64072 1.820339,-0.73785 0.0774,-0.0971 0.276587,-0.7293 0.442636,-1.40482 0.402353,-1.63684 0.656158,-1.95098 2.305243,-2.85319 0.730864,-0.39985 1.576032,-0.84208 1.878152,-0.98273 l 0.549307,-0.25572 1.223659,0.27368 c 2.644159,0.5914 7.032484,2.28972 8.989049,3.47884 l 0.901135,0.54767 0.504789,-0.34981 c 1.147784,-0.7954 2.817667,-1.29625 5.704466,-1.71095 1.49511,-0.21478 2.190235,-0.25742 4.308307,-0.26428 2.911974,-0.009 3.552528,0.0786 4.093,0.5625 0.399661,0.35782 0.510568,0.68738 0.204805,0.60858 -0.153114,-0.0395 -0.149194,0.0726 0.01954,0.5583 0.233133,0.67115 0.843456,1.53906 1.513376,2.1521 0.508781,0.46559 3.295206,2.58043 3.456206,2.6232 0.06021,0.016 0.731793,-0.67993 1.492392,-1.54649 1.459516,-1.66286 2.338736,-2.53512 3.685807,-3.65662 0.778287,-0.64797 2.206543,-1.51899 2.693251,-1.6425 0.12288,-0.0312 0.311757,-0.11532 0.419727,-0.18699 0.259264,-0.17208 0.804202,-0.16488 1.460508,0.0193 0.932589,0.26169 5.124449,2.44664 6.592229,3.4361 0.80495,0.54263 1.72346,1.28637 2.13006,1.72475 0.7155,0.77142 1.42257,1.93033 1.42846,2.34131 0.002,0.12023 0.0687,0.24583 0.14893,0.27911 0.4885,0.20277 5.77426,-1.35998 8.0994,-2.3946 1.65776,-0.73765 1.86516,-0.90824 1.99359,-1.6398 0.0924,-0.52609 0.1765,-0.64991 0.61659,-0.90737 1.28519,-0.75188 2.91072,-1.02628 6.08071,-1.02647 3.58569,-2e-4 6.0864,0.45632 7.07273,1.2912 0.63252,0.5354 0.70536,0.73788 0.67369,1.87268 l -0.0275,0.98588 0.56027,-0.0587 c 0.30815,-0.0323 1.44608,-0.11381 2.52872,-0.18113 l 1.96846,-0.12241 v -0.89444 c 0,-0.88866 0.003,-0.89661 0.5126,-1.22879 l 0.51261,-0.33435 h 2.8991 c 2.85543,0 2.90174,0.003 3.07458,0.22449 0.0965,0.12348 0.26599,0.2604 0.37662,0.30428 0.30248,0.11998 0.28931,16.59571 -0.0135,16.86398 -0.18934,0.16775 -0.45009,0.17931 -3.37507,0.14966 -3.11374,-0.0316 -3.17712,-0.0364 -3.57843,-0.27462 -0.39596,-0.23501 -0.40854,-0.27418 -0.40854,-1.27211 v -1.02963 l -1.07708,-0.001 c -0.59239,-3.8e-4 -1.94617,-0.067 -3.00839,-0.14772 -1.06222,-0.0807 -2.00594,-0.14759 -2.09717,-0.14866 -0.11334,-0.002 -0.14262,0.21628 -0.0925,0.68709 0.11281,1.05891 -0.046,1.53082 -0.70288,2.08895 -1.032,0.87682 -3.3843,1.31273 -7.08382,1.31273 -3.34196,0 -5.15846,-0.32379 -6.21259,-1.10741 -0.44581,-0.3314 -0.52432,-0.4611 -0.52432,-0.86615 0,-0.2651 -0.10032,-0.57257 -0.2262,-0.69326 -0.79534,-0.7626 -7.17003,-3.00326 -9.30368,-3.27018 l -0.54186,-0.0678 -0.15779,0.49409 c -0.42433,1.32883 -1.55915,2.57655 -3.56938,3.92449 -1.68543,1.13016 -5.981114,3.31861 -6.861934,3.49585 -0.554373,0.11154 -0.66821,0.10085 -1.28112,-0.12036 -1.803188,-0.65081 -3.978763,-2.40772 -6.478122,-5.23147 -0.825712,-0.93288 -1.528574,-1.7186 -1.561918,-1.74604 -0.09405,-0.0774 -2.317724,1.55599 -3.310195,2.43145 -1.099867,0.9702 -1.598323,1.61836 -1.717697,2.23358 -0.05053,0.26033 -0.166168,0.53784 -0.257019,0.61671 -0.132709,0.11521 -0.114078,0.13053 0.09481,0.078 0.436264,-0.10981 0.308019,0.24134 -0.232459,0.63651 -0.44412,0.32471 -0.609284,0.37136 -1.729186,0.48836 -1.641693,0.17152 -4.318906,0.071 -6.602617,-0.24799 -2.719559,-0.37981 -4.155241,-0.80065 -5.582751,-1.63645 l -0.664992,-0.38935 -0.866861,0.539 c -2.280196,1.41777 -8.420867,3.6312 -10.07398,3.6312 -0.282413,0 -0.781638,-0.19529 -1.573787,-0.61565 z m 2.951522,-0.71252 c 0.136993,-0.006 0.220944,-0.0422 0.186556,-0.0796 -0.07616,-0.0828 0.392417,-0.21452 0.501765,-0.14108 0.04278,0.0287 -0.01136,0.0522 -0.120304,0.0522 -0.108945,0 -0.161792,0.0244 -0.117435,0.0542 0.122286,0.0821 1.155843,-0.27443 1.06901,-0.36878 -0.0416,-0.0452 0.02115,-0.0573 0.139443,-0.0268 0.277161,0.0714 2.068281,-0.53272 1.952465,-0.65858 -0.04822,-0.0524 0.0027,-0.072 0.113106,-0.0435 0.402062,0.10362 4.226015,-1.65724 4.039375,-1.86006 -0.04789,-0.052 -0.004,-0.0823 0.09754,-0.0672 0.101529,0.0151 0.265889,-0.0774 0.365241,-0.20547 0.09935,-0.12809 0.255239,-0.28299 0.34641,-0.34422 0.09117,-0.0612 0.16577,-0.18319 0.16577,-0.27103 0,-0.0878 0.08286,-0.27762 0.18414,-0.42175 0.151544,-0.21567 0.256744,-0.2523 0.594249,-0.20697 0.253348,0.034 0.410108,0.0122 0.410108,-0.0572 0,-0.0617 0.07619,-0.11225 0.169325,-0.11225 0.283065,0 0.563763,0.33067 0.568761,0.67 0.01145,0.7776 2.08106,1.63189 5.05584,2.08694 1.488124,0.22764 2.066015,0.26294 4.480847,0.27375 2.630947,0.0118 3.270714,-0.0411 2.810131,-0.23228 -0.462807,-0.1921 0.285419,-1.62612 1.441212,-2.76221 0.604904,-0.59458 1.106487,-0.98103 2.752077,-2.12033 0.506374,-0.35057 0.820395,-0.60028 0.697832,-0.5549 -0.122563,0.0454 0.02235,-0.10156 0.322007,-0.32655 0.299664,-0.22499 0.626269,-0.51406 0.725793,-0.64238 0.247855,-0.3196 0.226693,-0.31272 0.575864,-0.18721 0.250387,0.09 0.329442,0.0817 0.400029,-0.0418 0.174989,-0.30626 0.465199,-0.14146 0.86587,0.49166 0.52269,0.82597 2.791422,3.42589 3.904006,4.47392 1.106102,1.04193 2.770314,2.22645 3.239088,2.30547 0.201681,0.034 0.366696,0.10585 0.366696,0.15968 0,0.0538 0.204511,0.0979 0.454456,0.0979 0.261633,0 0.415943,-0.0419 0.363689,-0.0986 -0.04991,-0.0542 7.69e-4,-0.075 0.113375,-0.046 0.114037,0.0294 1.084554,-0.39364 2.199005,-0.95852 2.19439,-1.11225 2.83487,-1.4851 2.7359,-1.59265 -0.036,-0.0392 0.0822,-0.15574 0.26271,-0.25911 0.32221,-0.1845 0.32419,-0.18445 0.10792,0.003 -0.18959,0.16424 -0.19023,0.18416 -0.005,0.14295 0.11861,-0.0263 0.34204,-0.1998 0.49651,-0.38549 0.15445,-0.18569 0.54438,-0.5387 0.86648,-0.78446 0.83518,-0.63722 1.60252,-1.73665 1.78797,-2.56181 0.19609,-0.87241 0.29523,-0.99661 0.77691,-0.97328 0.30112,0.0146 0.38763,-0.027 0.38763,-0.18624 0,-0.15586 0.0712,-0.19252 0.29698,-0.15286 0.16334,0.0287 0.32922,0.0171 0.36863,-0.0257 0.31832,-0.3459 5.65858,1.11403 8.39669,2.2955 2.44069,1.05314 3.26836,1.67581 3.26836,2.45882 0,0.5064 0.28006,0.68168 1.50714,0.94327 0.69011,0.14711 1.534,0.21627 3.13645,0.25704 2.36269,0.0601 3.95255,-0.0548 5.22175,-0.3774 0.40081,-0.10188 0.7832,-0.16264 0.84973,-0.13503 0.0665,0.0276 0.22387,-0.11516 0.34962,-0.31728 0.16833,-0.27056 0.21851,-0.6533 0.19021,-1.45081 -0.033,-0.92985 -0.0753,-1.09131 -0.29843,-1.13984 -0.35894,-0.0781 -0.32537,-0.23143 0.0743,-0.33931 0.18385,-0.0496 0.26741,-0.0948 0.1857,-0.10047 -0.0817,-0.006 0.073,-0.0748 0.34374,-0.15384 0.42723,-0.12463 0.79045,-0.125 2.74839,-0.003 1.24087,0.0774 2.84108,0.17159 3.55604,0.20921 l 1.29992,0.0684 v -5.15999 -5.15994 l -0.85424,0.065 c -4.47845,0.3406 -5.83107,0.33657 -5.83107,-0.0173 0,-0.0703 -0.1337,-0.12779 -0.29711,-0.12779 -0.37094,0 -0.3919,-0.20158 -0.0276,-0.26556 0.23888,-0.042 0.27354,-0.18365 0.3048,-1.24634 0.0195,-0.66367 -0.0288,-1.25089 -0.10832,-1.31521 -0.079,-0.0639 -0.166,-0.16111 -0.19338,-0.21598 -0.0274,-0.0549 -0.13262,-0.0936 -0.23388,-0.0861 -0.10126,0.007 -0.14303,-0.031 -0.0928,-0.0855 0.0569,-0.0618 -0.0347,-0.0723 -0.24305,-0.0279 -0.18672,0.0398 -0.29813,0.0319 -0.25235,-0.0178 0.0451,-0.049 -0.0301,-0.0931 -0.1671,-0.0981 -0.13699,-0.005 -0.7829,-0.0874 -1.43537,-0.18319 -1.54278,-0.22651 -5.63196,-0.1639 -6.91034,0.1058 -1.28044,0.27014 -1.43274,0.36911 -1.52867,0.99331 -0.10011,0.65146 -0.42086,0.98204 -1.55469,1.60233 -2.18857,1.19732 -7.67902,2.99404 -9.65585,3.15983 -0.26556,0.0223 -0.48284,3e-4 -0.48284,-0.0487 0,-0.0491 -0.13839,-0.0597 -0.30754,-0.0236 -0.23074,0.0492 -0.32715,0.0152 -0.38604,-0.13604 -0.0478,-0.12258 -0.16084,-0.18037 -0.2886,-0.14744 -0.36134,0.0931 -0.60795,-0.1498 -0.70293,-0.69244 -0.14992,-0.85644 -0.49152,-1.4755 -1.27142,-2.30405 -0.40556,-0.43087 -0.83626,-0.8574 -0.95709,-0.94785 -1.19031,-0.89092 -2.10133,-1.51139 -2.21916,-1.51139 -0.0788,0 -0.0515,0.0786 0.0607,0.1746 0.1845,0.15801 0.17933,0.16168 -0.0545,0.0386 -0.14208,-0.0748 -0.22422,-0.17308 -0.18254,-0.21839 0.15371,-0.16702 -3.833216,-2.09004 -4.333205,-2.09004 -0.778341,0 -1.844284,0.55073 -3.089807,1.59638 -1.786454,1.49978 -5.135288,5.23139 -5.135288,5.72228 0,0.077 -0.102371,0.19699 -0.227489,0.26673 -0.187562,0.10454 -0.261318,0.0957 -0.420304,-0.0503 -0.164023,-0.15066 -0.244338,-0.15858 -0.537855,-0.0531 -0.299984,0.10782 -0.332998,0.10296 -0.252882,-0.0373 0.05906,-0.1034 0.01384,-0.16127 -0.126033,-0.16127 -0.119997,0 -0.218185,-0.0386 -0.218185,-0.0857 0,-0.0472 -0.267408,-0.28975 -0.594246,-0.53912 -0.326838,-0.24937 -0.59425,-0.48556 -0.59425,-0.52488 0,-0.0393 -0.317548,-0.27583 -0.70567,-0.52558 -0.388117,-0.24974 -0.705671,-0.48196 -0.705671,-0.51603 0,-0.0341 -0.29854,-0.27587 -0.663423,-0.53732 -1.330007,-0.953 -2.360755,-2.15371 -2.68627,-3.12922 -0.132794,-0.39795 -0.120688,-0.49065 0.07671,-0.58759 0.205305,-0.10082 0.192486,-0.12262 -0.103343,-0.17573 -2.180925,-0.39155 -7.579623,0.0849 -10.010398,0.88344 -1.121004,0.36827 -2.327598,1.12602 -2.271337,1.42641 0.04704,0.25115 -0.173694,0.7195 -0.339092,0.7195 -0.07869,0 -0.245655,-0.0689 -0.371039,-0.15311 -0.177634,-0.11929 -0.274493,-0.12717 -0.438665,-0.0357 -0.115882,0.0646 -0.225793,0.0998 -0.244245,0.0783 -0.314827,-0.36747 -0.404956,-0.51384 -0.404956,-0.65761 0,-0.0947 -0.284125,-0.37465 -0.631389,-0.6221 -0.347264,-0.24745 -0.464257,-0.3621 -0.259984,-0.25477 0.3117,0.16377 0.300961,0.14306 -0.0668,-0.12887 -0.916525,-0.67768 -5.357714,-2.4949 -5.811558,-2.37794 -0.148516,0.0383 -0.191002,0.0184 -0.121751,-0.0568 0.07168,-0.0779 0.02323,-0.0942 -0.148562,-0.0499 -0.140211,0.0361 -0.218881,0.0265 -0.174822,-0.0214 0.111264,-0.12091 -0.748395,-0.34606 -0.970037,-0.25406 -0.123287,0.0512 -0.141946,0.033 -0.05888,-0.0572 0.0883,-0.096 0.05389,-0.1147 -0.125609,-0.0684 -0.141113,0.0363 -0.247213,0.0151 -0.247213,-0.0496 0,-0.0623 -0.03947,-0.0868 -0.08771,-0.0544 -0.04824,0.0324 -0.342004,-0.001 -0.652805,-0.075 -0.65244,-0.1546 -0.615738,-0.16664 -2.320878,0.7613 -0.580693,0.31601 -1.132802,0.70041 -1.226909,0.85421 -0.09411,0.1538 -0.297295,0.8014 -0.451531,1.43911 -0.154234,0.63772 -0.431832,1.37853 -0.616881,1.64627 -0.342367,0.49535 -0.385775,0.57026 -0.418638,0.72245 -0.01021,0.0473 -0.389847,0.13608 -0.843629,0.19728 -1.250126,0.16861 -2.921001,0.8065 -5.361683,2.04691 -2.63947,1.34145 -3.7309,1.84452 -4.760276,2.19416 -0.713709,0.24242 -0.776535,0.29309 -0.852293,0.68729 -0.134551,0.70013 -0.421996,3.47625 -0.363105,3.50683 0.03003,0.0156 0.632528,0.27869 1.33889,0.58466 0.706363,0.30597 2.110275,0.97805 3.119806,1.49351 1.009531,0.51546 2.169777,1.07778 2.578323,1.2496 1.015403,0.42702 2.61026,0.92387 2.971244,0.92561 0.492378,0.002 0.967576,0.11546 0.880935,0.20961 -0.04476,0.0486 6.18e-4,0.0884 0.100712,0.0884 0.10015,0 0.140385,0.028 0.08941,0.0622 -0.05097,0.0342 0.04731,0.24652 0.218402,0.47176 0.171095,0.22523 0.464576,1.00866 0.652184,1.74096 0.187607,0.7323 0.445447,1.4384 0.572978,1.56912 0.127528,0.13072 0.781709,0.53581 1.453733,0.9002 1.134464,0.61515 1.25939,0.65759 1.746556,0.5934 0.288584,-0.038 0.636783,-0.0744 0.773774,-0.0808 z m 45.719682,-19.7989 -0.36016,-0.27437 0.40855,0.24188 c 0.38185,0.22608 0.47667,0.30687 0.36016,0.30687 -0.0266,0 -0.21046,-0.12347 -0.40855,-0.27438 z m -10.536674,17.298 c 0,-0.0207 -0.11699,-0.0993 -0.25998,-0.1746 -0.235633,-0.12411 -0.240886,-0.12058 -0.05614,0.0377 0.194075,0.1662 0.316072,0.21905 0.316072,0.13693 z m -0.89137,-0.79819 c 0,-0.0207 -0.116998,-0.0993 -0.259988,-0.1746 -0.235625,-0.12411 -0.240878,-0.12058 -0.05606,0.0377 0.194076,0.1662 0.316072,0.21905 0.316072,0.13694 z m 51.958474,-8.51792 0.036,-7.60773 h -2.15299 -2.153 v 7.63542 7.63542 l 2.11701,-0.0277 2.11702,-0.0277 z m -26.02343,6.98178 c -0.25667,-0.16465 -0.26065,-0.16197 -0.0905,0.0608 0.0979,0.12817 0.21869,0.20567 0.26849,0.17223 0.0498,-0.0335 -0.0302,-0.13831 -0.17796,-0.23304 z M 93.878206,134.50298 c 0.174542,-0.16462 0.283934,-0.29932 0.243077,-0.29932 -0.04091,0 -0.217092,0.1347 -0.391635,0.29932 -0.174551,0.16463 -0.283935,0.29932 -0.243077,0.29932 0.04091,0 0.217092,-0.13469 0.391635,-0.29932 z"
         id="path990" />
      <path
         style="fill:#ffffff;stroke:#000000;stroke-width:11.7857;stroke-linecap:round;stroke-linejoin:round;stroke-dasharray:2.94642, 2.94642;stroke-opacity:0.955017;paint-order:stroke markers fill"
         d="m 212.11131,581.55668 c -2.59285,-1.53526 -5.16219,-4.30285 -5.93313,-6.39095 -3.74779,-10.15078 -4.66023,-11.42893 -8.75528,-12.26439 -2.23525,-0.45602 -11.3841,-4.1694 -20.33078,-8.25194 l -16.2667,-7.42281 v -6.53497 -6.53498 l 15.47797,-7.40394 c 8.51288,-4.07217 18.59517,-8.36471 22.40507,-9.53897 7.56591,-2.33191 8.44534,-3.21829 11.3223,-11.41163 2.49386,-7.10235 9.22089,-11.46921 16.12522,-10.46772 9.68732,1.40518 25.99811,8.28805 30.71288,12.96031 5.34151,5.29334 7.72024,5.4829 12.15776,0.96883 1.77924,-1.80993 5.46554,-3.89141 8.19177,-4.62551 6.36183,-1.71306 21.34565,-3.65995 28.54333,-3.70871 5.35374,-0.0363 5.688,0.17242 7.74541,4.83564 2.4131,5.46943 22.27671,22.13531 26.38249,22.13531 1.29212,0 3.34022,-1.51925 4.55133,-3.37611 3.28336,-5.03402 15.21401,-17.36007 20.66964,-21.35467 6.23979,-4.56877 9.06435,-4.4245 19.36657,0.98916 10.71317,5.62961 20.06683,13.94091 21.88319,19.44454 1.85792,5.62957 6.9608,6.65229 18.20774,3.64918 19.80368,-5.28789 32.82514,-11.88173 34.72613,-17.58471 1.15013,-3.45041 29.15124,-4.3922 37.60723,-1.26488 2.13158,0.78833 2.76227,1.98625 2.76227,5.24653 0,2.32372 -0.69057,4.50515 -1.53459,4.84762 -1.15814,0.46993 -1.08285,0.96598 0.30692,2.02209 1.23391,0.93768 5.99348,1.19376 14.42518,0.77613 l 12.58367,-0.62328 v 18.78427 18.78428 l -15.64381,-0.13106 -15.64381,-0.13106 -0.009,6.1157 c -0.009,5.79663 -0.20121,6.15734 -3.69208,6.91388 -5.91987,1.28295 -29.62767,1.19914 -33.08931,-0.11697 -1.74412,-0.66311 -3.6594,-2.4899 -4.25617,-4.05952 -0.72047,-1.89499 -3.90986,-4.14909 -9.49247,-6.70881 -9.17515,-4.20675 -28.47386,-10.12416 -33.01879,-10.12416 -5.19185,0 -9.15015,2.2139 -9.15015,5.11774 0,6.84607 -27.59035,25.6992 -34.91778,23.86013 -4.61803,-1.15906 -14.92084,-9.96906 -22.48226,-19.22475 -4.48831,-5.49399 -7.85357,-8.52265 -9.46422,-8.51759 -5.02804,0.0158 -26.43904,18.91675 -26.43904,23.33952 0,2.25676 -0.85307,2.43379 -11.72747,2.43379 -15.73956,0 -28.29377,-2.89664 -32.61827,-7.52602 -4.04772,-4.3331 -7.52722,-4.49168 -10.16668,-0.46335 -2.44041,3.72453 -10.98416,8.17986 -23.55562,12.28359 -11.31661,3.69412 -12.13949,3.70581 -17.96707,0.25522 z"
         id="path2227"
         transform="scale(0.26458333)" />
      <path
         style="fill:#ffffff;stroke:#000000;stroke-width:11.7857;stroke-linecap:round;stroke-linejoin:round;stroke-dasharray:2.94642, 2.94642;stroke-opacity:0.955017;paint-order:stroke markers fill"
         d="m 532.81095,540.177 v -28.23653 h 7.36605 7.36605 v 28.23653 28.23652 h -7.36605 -7.36605 z"
         id="path2266"
         transform="scale(0.26458333)" />
      <path
         style="fill:#ffffff;stroke:#000000;stroke-width:11.7857;stroke-linecap:round;stroke-linejoin:round;stroke-dasharray:2.94642, 2.94642;stroke-opacity:0.955017;paint-order:stroke markers fill"
         d="m 531.58327,627.34192 v -27.00885 h 6.13838 6.13837 v 27.00885 27.00885 h -6.13837 -6.13838 z"
         id="path2305"
         transform="scale(0.26458333)" />
      <path
         style="fill:#ffffff;stroke:#000000;stroke-width:11.7857;stroke-linecap:round;stroke-linejoin:round;stroke-dasharray:2.94642, 2.94642;stroke-opacity:0.955017;paint-order:stroke markers fill"
         d="m 504.57442,691.79486 v -17.80129 h 6.13838 6.13837 v 17.80129 17.80128 h -6.13837 -6.13838 z"
         id="path2344"
         transform="scale(0.26458333)" />
      <path
         style="fill:#ffffff;stroke:#000000;stroke-width:11.7857;stroke-linecap:round;stroke-linejoin:round;stroke-dasharray:2.94642, 2.94642;stroke-opacity:0.955017;paint-order:stroke markers fill"
         d="m 433.36927,659.87531 v -15.34594 h 4.9107 4.9107 v 15.34594 15.34593 h -4.9107 -4.9107 z"
         id="path2422"
         transform="scale(0.26458333)" />
      <path
         style="fill:#ffffff;stroke:#000000;stroke-width:11.7857;stroke-linecap:round;stroke-linejoin:round;stroke-dasharray:2.94642, 2.94642;stroke-opacity:0.955017;paint-order:stroke markers fill"
         d="m 389.17297,608.31296 v -4.29687 h 39.89944 39.89944 v 4.29687 4.29686 h -39.89944 -39.89944 z"
         id="path2461"
         transform="scale(0.26458333)" />
      <path
         style="fill:#ffffff;stroke:#000000;stroke-width:11.7857;stroke-linecap:round;stroke-linejoin:round;stroke-dasharray:2.94642, 2.94642;stroke-opacity:0.955017;paint-order:stroke markers fill"
         d="m 348.96662,712.97624 c -2.19447,-0.70397 -3.98995,-1.85647 -3.98995,-2.56111 0,-1.43493 26.28078,-36.23335 37.62369,-49.81758 0.71636,-0.85791 10.34329,2.70342 9.98188,3.69263 -0.62261,1.70408 -38.38765,50.17214 -39.01184,50.06821 -0.33761,-0.0562 -2.40932,-0.67818 -4.60378,-1.38215 z"
         id="path2500"
         transform="scale(0.26458333)" />
    </g>
  </g>
</svg>
