<?xml version="1.0" encoding="UTF-8" standalone="no"?>
<!-- Created with Inkscape (http://www.inkscape.org/) -->

<svg
   width="210mm"
   height="297mm"
   viewBox="0 0 210 297"
   version="1.1"
   id="svg5"
   inkscape:version="1.3 (0e150ed6c4, 2023-07-21)"
   sodipodi:docname="korg icon.svg"
   inkscape:export-filename="C:\Users\steven\Desktop\clip launcher svg.png"
   inkscape:export-xdpi="96"
   inkscape:export-ydpi="96"
   xmlns:inkscape="http://www.inkscape.org/namespaces/inkscape"
   xmlns:sodipodi="http://sodipodi.sourceforge.net/DTD/sodipodi-0.dtd"
   xmlns="http://www.w3.org/2000/svg"
   xmlns:svg="http://www.w3.org/2000/svg">
  <sodipodi:namedview
     id="namedview7"
     pagecolor="#ffffff"
     bordercolor="#666666"
     borderopacity="1.0"
     inkscape:pageshadow="2"
     inkscape:pageopacity="0.0"
     inkscape:pagecheckerboard="0"
     inkscape:document-units="mm"
     showgrid="false"
     inkscape:zoom="1.0074671"
     inkscape:cx="322.09489"
     inkscape:cy="160.7993"
     inkscape:window-width="1680"
     inkscape:window-height="956"
     inkscape:window-x="-11"
     inkscape:window-y="-11"
     inkscape:window-maximized="1"
     inkscape:current-layer="layer1"
     inkscape:showpageshadow="2"
     inkscape:deskcolor="#d1d1d1" />
  <defs
     id="defs2">
    <inkscape:path-effect
       effect="skeletal"
       id="path-effect9"
       is_visible="true"
       lpeversion="1"
       pattern="M 55.544617,-0.13131046 V 34.797455 c 0,1.163942 -0.937037,2.100978 -2.100979,2.100978 -1.163942,0 -2.100978,-0.937036 -2.100978,-2.100978 V -0.13131046 c 0,-1.16394204 0.937036,-2.10097834 2.100978,-2.10097834 1.163942,0 2.100979,0.9370363 2.100979,2.10097834 z"
       copytype="repeated_stretched"
       prop_scale="1"
       scale_y_rel="false"
       spacing="0"
       normal_offset="0"
       tang_offset="0"
       prop_units="false"
       vertical_pattern="false"
       hide_knot="false"
       fuse_tolerance="0" />
    <inkscape:path-effect
       effect="skeletal"
       id="path-effect8"
       is_visible="true"
       lpeversion="1"
       pattern="M 55.544617,-0.13131046 V 34.797455 c 0,1.163942 -0.937037,2.100978 -2.100979,2.100978 -1.163942,0 -2.100978,-0.937036 -2.100978,-2.100978 V -0.13131046 c 0,-1.16394204 0.937036,-2.10097834 2.100978,-2.10097834 1.163942,0 2.100979,0.9370363 2.100979,2.10097834 z"
       copytype="repeated_stretched"
       prop_scale="1"
       scale_y_rel="false"
       spacing="0"
       normal_offset="0"
       tang_offset="0"
       prop_units="false"
       vertical_pattern="false"
       hide_knot="false"
       fuse_tolerance="0" />
    <inkscape:path-effect
       effect="skeletal"
       id="path-effect7"
       is_visible="true"
       lpeversion="1"
       pattern="M 55.544617,-0.13131046 V 34.797455 c 0,1.163942 -0.937037,2.100978 -2.100979,2.100978 -1.163942,0 -2.100978,-0.937036 -2.100978,-2.100978 V -0.13131046 c 0,-1.16394204 0.937036,-2.10097834 2.100978,-2.10097834 1.163942,0 2.100979,0.9370363 2.100979,2.10097834 z"
       copytype="repeated_stretched"
       prop_scale="1"
       scale_y_rel="false"
       spacing="0"
       normal_offset="0"
       tang_offset="0"
       prop_units="false"
       vertical_pattern="false"
       hide_knot="false"
       fuse_tolerance="0" />
    <inkscape:path-effect
       effect="skeletal"
       id="path-effect6"
       is_visible="true"
       lpeversion="1"
       pattern="M 55.544617,-0.13131046 V 34.797455 c 0,1.163942 -0.937037,2.100978 -2.100979,2.100978 -1.163942,0 -2.100978,-0.937036 -2.100978,-2.100978 V -0.13131046 c 0,-1.16394204 0.937036,-2.10097834 2.100978,-2.10097834 1.163942,0 2.100979,0.9370363 2.100979,2.10097834 z"
       copytype="repeated_stretched"
       prop_scale="1"
       scale_y_rel="false"
       spacing="0"
       normal_offset="0"
       tang_offset="0"
       prop_units="false"
       vertical_pattern="false"
       hide_knot="false"
       fuse_tolerance="0" />
    <inkscape:path-effect
       effect="skeletal"
       id="path-effect5"
       is_visible="true"
       lpeversion="1"
       pattern="M 55.544617,-0.13131046 V 34.797455 c 0,1.163942 -0.937037,2.100978 -2.100979,2.100978 -1.163942,0 -2.100978,-0.937036 -2.100978,-2.100978 V -0.13131046 c 0,-1.16394204 0.937036,-2.10097834 2.100978,-2.10097834 1.163942,0 2.100979,0.9370363 2.100979,2.10097834 z"
       copytype="repeated_stretched"
       prop_scale="1"
       scale_y_rel="false"
       spacing="0"
       normal_offset="0"
       tang_offset="0"
       prop_units="false"
       vertical_pattern="false"
       hide_knot="false"
       fuse_tolerance="0" />
    <inkscape:path-effect
       effect="skeletal"
       id="path-effect3"
       is_visible="true"
       lpeversion="1"
       pattern="M 55.544617,-0.13131046 V 34.797455 c 0,1.163942 -0.937037,2.100978 -2.100979,2.100978 -1.163942,0 -2.100978,-0.937036 -2.100978,-2.100978 V -0.13131046 c 0,-1.16394204 0.937036,-2.10097834 2.100978,-2.10097834 1.163942,0 2.100979,0.9370363 2.100979,2.10097834 z"
       copytype="repeated_stretched"
       prop_scale="1"
       scale_y_rel="false"
       spacing="0"
       normal_offset="0"
       tang_offset="0"
       prop_units="false"
       vertical_pattern="false"
       hide_knot="false"
       fuse_tolerance="0" />
    <inkscape:path-effect
       effect="skeletal"
       id="path-effect2"
       is_visible="true"
       lpeversion="1"
       pattern="M 55.544617,-0.13131046 V 34.797455 c 0,1.163942 -0.937037,2.100978 -2.100979,2.100978 -1.163942,0 -2.100978,-0.937036 -2.100978,-2.100978 V -0.13131046 c 0,-1.16394204 0.937036,-2.10097834 2.100978,-2.10097834 1.163942,0 2.100979,0.9370363 2.100979,2.10097834 z"
       copytype="repeated_stretched"
       prop_scale="1"
       scale_y_rel="false"
       spacing="0"
       normal_offset="0"
       tang_offset="0"
       prop_units="false"
       vertical_pattern="false"
       hide_knot="false"
       fuse_tolerance="0" />
    <inkscape:path-effect
       effect="skeletal"
       id="path-effect1"
       is_visible="true"
       lpeversion="1"
       pattern="M 55.544617,-0.13131046 V 34.797455 c 0,1.163942 -0.937037,2.100978 -2.100979,2.100978 -1.163942,0 -2.100978,-0.937036 -2.100978,-2.100978 V -0.13131046 c 0,-1.16394204 0.937036,-2.10097834 2.100978,-2.10097834 1.163942,0 2.100979,0.9370363 2.100979,2.10097834 z"
       copytype="repeated_stretched"
       prop_scale="1"
       scale_y_rel="false"
       spacing="0"
       normal_offset="0"
       tang_offset="0"
       prop_units="false"
       vertical_pattern="false"
       hide_knot="false"
       fuse_tolerance="0" />
    <inkscape:path-effect
       effect="spiro"
       id="path-effect3776"
       is_visible="true"
       lpeversion="1" />
    <inkscape:path-effect
       effect="spiro"
       id="path-effect3780"
       is_visible="true"
       lpeversion="1" />
    <inkscape:path-effect
       effect="spiro"
       id="path-effect3784"
       is_visible="true"
       lpeversion="1" />
    <inkscape:path-effect
       effect="spiro"
       id="path-effect3788"
       is_visible="true"
       lpeversion="1" />
    <inkscape:path-effect
       effect="spiro"
       id="path-effect3792"
       is_visible="true"
       lpeversion="1" />
    <inkscape:path-effect
       effect="spiro"
       id="path-effect3796"
       is_visible="true"
       lpeversion="1" />
    <inkscape:path-effect
       effect="spiro"
       id="path-effect3800"
       is_visible="true"
       lpeversion="1" />
    <inkscape:path-effect
       effect="spiro"
       id="path-effect3804"
       is_visible="true"
       lpeversion="1" />
    <inkscape:path-effect
       effect="spiro"
       id="path-effect1926"
       is_visible="true"
       lpeversion="1" />
    <inkscape:path-effect
       effect="spiro"
       id="path-effect1930"
       is_visible="true"
       lpeversion="1" />
    <inkscape:path-effect
       effect="spiro"
       id="path-effect1934"
       is_visible="true"
       lpeversion="1" />
    <inkscape:path-effect
       effect="spiro"
       id="path-effect3614"
       is_visible="true"
       lpeversion="1" />
    <inkscape:path-effect
       effect="spiro"
       id="path-effect3618"
       is_visible="true"
       lpeversion="1" />
    <inkscape:path-effect
       effect="spiro"
       id="path-effect3622"
       is_visible="true"
       lpeversion="1" />
    <inkscape:path-effect
       effect="spiro"
       id="path-effect3626"
       is_visible="true"
       lpeversion="1" />
    <inkscape:path-effect
       effect="spiro"
       id="path-effect3630"
       is_visible="true"
       lpeversion="1" />
    <inkscape:path-effect
       effect="spiro"
       id="path-effect3634"
       is_visible="true"
       lpeversion="1" />
    <inkscape:path-effect
       effect="spiro"
       id="path-effect3638"
       is_visible="true"
       lpeversion="1" />
    <inkscape:path-effect
       effect="spiro"
       id="path-effect3642"
       is_visible="true"
       lpeversion="1" />
    <inkscape:path-effect
       effect="spiro"
       id="path-effect18124"
       is_visible="true"
       lpeversion="1" />
    <inkscape:path-effect
       effect="spiro"
       id="path-effect18128"
       is_visible="true"
       lpeversion="1" />
    <inkscape:path-effect
       effect="spiro"
       id="path-effect1890"
       is_visible="true"
       lpeversion="1" />
    <inkscape:path-effect
       effect="spiro"
       id="path-effect2274"
       is_visible="true"
       lpeversion="1" />
    <inkscape:path-effect
       effect="spiro"
       id="path-effect2278"
       is_visible="true"
       lpeversion="1" />
    <inkscape:path-effect
       effect="spiro"
       id="path-effect3282"
       is_visible="true"
       lpeversion="1" />
    <inkscape:path-effect
       effect="spiro"
       id="path-effect3286"
       is_visible="true"
       lpeversion="1" />
    <inkscape:path-effect
       effect="spiro"
       id="path-effect3294"
       is_visible="true"
       lpeversion="1" />
    <inkscape:path-effect
       effect="spiro"
       id="path-effect3298"
       is_visible="true"
       lpeversion="1" />
    <inkscape:path-effect
       effect="spiro"
       id="path-effect3302"
       is_visible="true"
       lpeversion="1" />
    <inkscape:path-effect
       effect="spiro"
       id="path-effect3339"
       is_visible="true"
       lpeversion="1" />
  </defs>
  <g
     inkscape:label="Layer 1"
     inkscape:groupmode="layer"
     id="layer1">
    <path
       id="path9"
       style="fill:none;stroke:#000000;stroke-width:1.24877;stroke-linecap:butt;stroke-linejoin:miter;stroke-dasharray:none;stroke-opacity:1"
       transform="matrix(0.45888501,0,0,0.56348353,-35.84299,-24.654355)"
       inkscape:path-effect="#path-effect9"
       inkscape:original-d="m 113.71546,50.686104 c -2.10098,71.433266 -3.15147,92.180426 -3.15147,92.180426 M 176.25023,129.64365 143.40472,95.798678 195.16926,75.75889"
       d="M 131.04273,55.592785 96.129209,54.559918 c -1.163435,-0.03442 -2.071111,-1.040309 -2.035267,-2.255477 0.03584,-1.215169 1.001245,-2.165992 2.164684,-2.131774 l 34.913664,1.026874 c 1.16344,0.03422 2.07128,1.041449 2.03539,2.258477 -0.0359,1.217029 -1.00151,2.169185 -2.16495,2.134767 z m -0.13042,4.393888 -34.91333,-1.04019 c -1.163428,-0.03466 -2.070898,-1.040578 -2.03483,-2.255534 0.03607,-1.214957 1.001624,-2.165449 2.165059,-2.131031 l 34.913521,1.032867 c 1.16344,0.03442 2.0711,1.041972 2.03497,2.259201 -0.0361,1.217229 -1.00196,2.16935 -2.16539,2.134687 z m -0.13145,4.394526 -34.913088,-1.048845 c -1.163419,-0.03495 -2.070644,-1.040925 -2.034306,-2.255667 0.03634,-1.214742 1.002086,-2.164867 2.165514,-2.130204 l 34.91333,1.04019 c 1.16343,0.03466 2.07087,1.042574 2.03446,2.260001 -0.0364,1.217428 -1.00249,2.169476 -2.16591,2.134525 z m -0.13265,4.395158 -34.912791,-1.05883 c -1.16341,-0.03528 -2.070351,-1.041352 -2.033696,-2.255878 0.03665,-1.214526 1.00263,-2.164245 2.166049,-2.129295 l 34.913088,1.048845 c 1.16342,0.03495 2.07061,1.043254 2.03386,2.260879 -0.0367,1.217625 -1.0031,2.169563 -2.16651,2.134279 z m -0.13402,4.395782 -34.912438,-1.070146 c -1.163398,-0.03566 -2.070017,-1.041856 -2.032999,-2.256165 0.03702,-1.214308 1.003256,-2.163585 2.166666,-2.128301 l 34.912791,1.05883 c 1.16341,0.03528 2.07031,1.044012 2.03318,2.261832 -0.0371,1.217821 -1.0038,2.169611 -2.1672,2.13395 z m -0.13554,4.396401 -34.912046,-1.082794 c -1.163384,-0.03608 -2.069642,-1.042439 -2.032215,-2.256528 0.03743,-1.214089 1.003965,-2.162886 2.167363,-2.127225 l 34.912438,1.070146 c 1.1634,0.03566 2.06997,1.04485 2.03242,2.262863 -0.0375,1.218014 -1.00458,2.16962 -2.16796,2.133538 z m -0.13725,4.397013 -34.911592,-1.096772 c -1.163369,-0.03655 -2.069227,-1.043101 -2.031344,-2.256969 0.03788,-1.213867 1.004756,-2.162148 2.16814,-2.126066 l 34.912046,1.082794 c 1.16338,0.03608 2.06958,1.045765 2.03155,2.263971 -0.038,1.218205 -1.00543,2.16959 -2.1688,2.133042 z m -0.13912,4.397618 -34.911083,-1.112081 c -1.163353,-0.03706 -2.068772,-1.043841 -2.030387,-2.257486 0.03839,-1.213644 1.005629,-2.161371 2.168998,-2.124823 l 34.911592,1.096772 c 1.16337,0.03655 2.06916,1.046759 2.03061,2.265154 -0.0385,1.218396 -1.00637,2.169522 -2.16973,2.132464 z m -0.14115,4.398216 -34.910527,-1.12872 c -1.163334,-0.03761 -2.068276,-1.04466 -2.029343,-2.25808 0.03893,-1.213419 1.006584,-2.160555 2.169937,-2.123497 l 34.911083,1.112081 c 1.16336,0.03706 2.0687,1.047832 2.02959,2.266415 -0.0391,1.218584 -1.0074,2.169414 -2.17074,2.131801 z m -0.14335,4.398809 -34.909921,-1.146691 c -1.163314,-0.03821 -2.06774,-1.045557 -2.028212,-2.25875 0.03953,-1.213193 1.007622,-2.159701 2.170956,-2.122088 l 34.910527,1.12872 c 1.16334,0.03761 2.06819,1.048984 2.02848,2.267754 -0.0397,1.218769 -1.00851,2.169267 -2.17183,2.131055 z m -0.14572,4.399395 -34.909263,-1.165992 c -1.163292,-0.03885 -2.067164,-1.046534 -2.026994,-2.259499 0.04017,-1.212964 1.008742,-2.158806 2.172056,-2.120595 l 34.909921,1.146691 c 1.16332,0.03821 2.06765,1.050215 2.02727,2.269168 -0.0404,1.218954 -1.0097,2.169082 -2.17299,2.130227 z m -0.14826,4.399969 -34.90855,-1.18662 c -1.163268,-0.0395 -2.066546,-1.04759 -2.025689,-2.26032 0.04086,-1.212736 1.009944,-2.157876 2.173236,-2.119021 l 34.909263,1.165992 c 1.16329,0.03885 2.06706,1.051519 2.02598,2.270659 -0.0411,1.21914 -1.01097,2.16886 -2.17424,2.12931 z m -0.15096,4.40055 -34.907789,-1.20859 c -1.163243,-0.0403 -2.065888,-1.04872 -2.024298,-2.26122 0.04159,-1.2125 1.011229,-2.1569 2.174497,-2.11736 l 34.90855,1.18662 c 1.16327,0.0396 2.06644,1.05292 2.02461,2.27223 -0.0418,1.21932 -1.01233,2.1686 -2.17557,2.12832 z m -0.15383,4.40111 -34.906977,-1.23188 c -1.163216,-0.041 -2.065191,-1.04993 -2.02282,-2.2622 0.04237,-1.21227 1.012595,-2.15589 2.175838,-2.11562 l 34.907789,1.20859 c 1.16324,0.0403 2.06577,1.05438 2.02315,2.27387 -0.0426,1.2195 -1.01377,2.16829 -2.17698,2.12724 z m -0.15687,4.40168 -34.906113,-1.25651 c -1.163187,-0.0419 -2.064452,-1.05122 -2.021255,-2.26326 0.0432,-1.21203 1.014045,-2.15484 2.177261,-2.11379 l 34.906977,1.23188 c 1.16321,0.041 2.06506,1.05593 2.02159,2.2756 -0.0435,1.21967 -1.01528,2.16795 -2.17846,2.12608 z m -0.16008,4.40222 -34.905192,-1.28246 c -1.163157,-0.0427 -2.063674,-1.05259 -2.019604,-2.26439 0.04407,-1.21179 1.015576,-2.15375 2.178763,-2.11188 l 34.906113,1.25651 c 1.16318,0.0419 2.06431,1.05754 2.01996,2.27739 -0.0444,1.21985 -1.01689,2.16757 -2.18004,2.12483 z m -0.16349,4.40333 -34.904181,-1.31086 c -1.028513,-0.0386 -1.851151,-0.83275 -1.996595,-1.85377 0,0 0,0 0,0 -0.01904,-0.1336 -0.02648,-0.27109 -0.02127,-0.41127 0.04499,-1.21155 1.017189,-2.15262 2.180346,-2.10989 l 34.905192,1.28246 c 1.16315,0.0427 2.06353,1.05925 2.01824,2.27927 -0.005,0.14116 -0.0229,0.27868 -0.0519,0.41143 0,0 0,0 0,0 -0.22123,1.01464 -1.1013,1.75126 -2.12988,1.71263 z m -0.1682,4.41065 -34.90252,-1.35422 c -1.163067,-0.0451 -2.061633,-1.05346 -2.015557,-2.26248 0.04608,-1.20902 1.018973,-2.14849 2.182096,-2.10481 l 34.904181,1.31086 c 1.16313,0.0437 2.06268,1.06174 2.01609,2.28421 -0.0466,1.22248 -1.02122,2.17157 -2.18429,2.12644 z m -0.17522,4.4196 -34.900032,-1.41601 c -1.162985,-0.0472 -2.059824,-1.0548 -2.012046,-2.26089 0.04778,-1.20609 1.021711,-2.14205 2.184778,-2.09692 l 34.90252,1.35422 c 1.16307,0.0451 2.0613,1.0666 2.01275,2.29186 -0.0486,1.22526 -1.02499,2.17492 -2.18797,2.12774 z m -0.18457,4.42844 -34.896706,-1.49621 c -1.162874,-0.0499 -2.057448,-1.05723 -2.007325,-2.26036 0.05012,-1.20313 1.025584,-2.13506 2.188569,-2.08788 l 34.900032,1.41601 c 1.16298,0.0472 2.05934,1.07255 2.00818,2.30057 -0.0512,1.22801 -1.02988,2.17773 -2.19275,2.12787 z m -17.66833,3.63826 0.0435,0.002 c 1e-5,0 -0.0144,-6.2e-4 -0.0433,-0.002 0,0 0,0 0,0 0,0 -1e-5,0 -1e-5,0 0,0 0,0 0,0 0,0 0,0 0,0 0,0 0,0 0,0 0,0 0,0 0,0 0,0 0,0 0,0 0,0 0,0 0,0 0,0 0,0 0,0 0,0 0,0 0,0 0,0 0,0 0,0 0,0 0,0 0,0 0,0 -1e-5,0 -1e-5,0 0,0 0,0 0,0 0,0 0,0 0,0 0,0 0,0 0,0 0,0 0,0 0,0 0,0 0,0 0,0 0,0 0,0 0,0 0.78563,0.0423 -5.39762,-0.29009 -4.61199,-0.24782 1.70245,0.0914 -15.019347,-0.80584 -13.316894,-0.7144 l -1.1e-5,0 c 0,0 -1.2e-5,0 -1.2e-5,0 l 0,0 c -0.166223,-0.0439 -0.324487,-0.10551 -0.469918,-0.18583 l 0,0 0,0 c -0.320637,-0.18721 -0.584924,-0.45674 -0.764515,-0.78669 l 0,0 c -0.181413,-0.33334 -0.277062,-0.72152 -0.258564,-1.13412 0.05047,-1.12572 0.933334,-2.02042 2.017591,-2.06573 0,0 10e-7,0 10e-7,0 0.05804,-0.002 0.116653,-0.002 0.175746,1.1e-4 l 34.896706,1.49621 c 0.0591,0.003 0.11749,0.008 0.1751,0.0151 0,0 0,0 0,0 1.07601,0.13983 1.87928,1.1257 1.82629,2.30726 -0.0194,0.43254 -0.15104,0.83218 -0.3635,1.16704 l 0,0 c -0.21047,0.33178 -0.50028,0.60665 -0.83889,0.786 l 0,0 0,0 c -0.15415,0.086 -0.31744,0.15412 -0.48867,0.1977 l 0,0 c 0,0 -10e-6,0 -10e-6,0 l -1e-5,0 c -0.53251,-0.0247 -12.78915,-0.59383 -13.32166,-0.61856 -2.79903,-0.1299 -4.34261,-0.20153 -4.61368,-0.21409 0,0 -1e-5,0 -1e-5,0 0,0 0,0 0,0 0,0 0,0 0,0 0,0 0,0 0,0 0,0 0,0 0,0 0,0 0,0 0,0 0,0 0,0 0,0 0,0 0,0 0,0 0,0 0,0 0,0 0,0 0,0 0,0 0,0 0,0 0,0 -10e-6,0 -10e-6,0 -10e-6,0 0,0 0,0 0,0 0,0 0,0 0,0 0,0 0,0 0,0 0,0 0,0 0,0 0,0 0,0 0,0 0,0 0,0 0,0 0,0 0,0 0,0 -0.0289,-0.001 -0.0433,-0.002 -0.0433,-0.002 z m 50.47828,-5.41923 24.5008,-21.74496 c 0.80226,-0.71202 2.21899,-0.94062 3.12159,-0.49573 0.90341,0.44529 0.98881,1.45183 0.14016,2.27542 l -25.0657,24.3255 c -0.84436,0.81942 -2.09631,0.46509 -2.83914,-0.79454 -0.74313,-1.26013 -0.66477,-2.8494 0.14229,-3.56569 z m -2.69685,-4.36023 23.93589,-19.16442 c 0.78249,-0.6265 2.18598,-0.78493 3.08762,-0.34051 0.9026,0.44489 1.00477,1.383 0.17414,2.1202 l -24.5008,21.74496 c -0.82583,0.73294 -2.06204,0.31037 -2.80517,-0.94976 -0.74345,-1.26068 -0.67959,-2.77962 0.10832,-3.41047 z m -2.69685,-4.36022 23.37099,-16.58389 c 0.76252,-0.54108 2.15314,-0.62915 3.05364,-0.18529 0.90165,0.44442 1.02088,1.31424 0.20811,1.96498 l -23.93589,19.16442 c -0.80733,0.6464 -2.02773,0.15571 -2.77119,-1.10497 -0.74382,-1.26131 -0.69438,-2.70977 0.0743,-3.25525 z m -2.69685,-4.36023 22.80609,-14.00335 c 0.74228,-0.45578 2.12057,-0.47324 3.01966,-0.0301 0.9005,0.44386 1.03718,1.24558 0.24209,1.80977 l -23.37099,16.58389 c -0.78888,0.55978 -1.99339,0.001 -2.73721,-1.2602 -0.74424,-1.26201 -0.70912,-2.63983 0.0404,-3.10003 z m -2.69685,-4.36023 22.24119,-11.42282 c 0.72169,-0.37065 2.08835,-0.31714 2.98568,0.12515 0.89909,0.44317 1.05374,1.17704 0.27607,1.65455 l -22.80609,14.00335 c -0.77047,0.47308 -1.95899,-0.1534 -2.70323,-1.41541 -0.74472,-1.26283 -0.7238,-2.5698 0.006,-2.94482 z m -2.69685,-4.36022 21.67629,-8.84229 c 0.70058,-0.28579 2.05665,-0.1608 2.9517,0.28037 0.89733,0.4423 1.07066,1.10868 0.31005,1.49932 l -22.24119,11.42282 c -0.75212,0.38629 -1.92454,-0.30781 -2.66925,-1.57063 -0.74527,-1.26376 -0.73841,-2.49964 -0.0276,-2.78959 z m -2.69686,-4.36023 21.11139,-6.26175 c 0.6787,-0.20131 2.02575,-0.004 2.91773,0.43559 0.89505,0.44117 1.08809,1.04058 0.34403,1.3441 l -21.67629,8.84229 c -0.73385,0.29935 -1.89001,-0.4621 -2.63528,-1.72586 -0.74591,-1.26484 -0.75291,-2.42931 -0.0616,-2.63437 z m -2.69685,-4.36022 20.54649,-3.68122 c 0.65554,-0.11745 1.9961,0.15328 2.88375,0.59081 0.89198,0.43966 1.10631,0.97286 0.378,1.18888 l -21.11139,6.26175 c -0.71566,0.21227 -1.85538,-0.61623 -2.60129,-1.88107 -0.74667,-1.26614 -0.76731,-2.3588 -0.0956,-2.47915 z m -2.69685,-4.36023 19.98159,-1.10069 c 0.63012,-0.0347 1.96872,0.31176 2.84977,0.74603 0.88764,0.43753 1.1258,0.90578 0.41198,1.03367 l -20.54649,3.68122 c -0.6976,0.12498 -1.82064,-0.77016 -2.56731,-2.0363 -0.74759,-1.26769 -0.78155,-2.28801 -0.12954,-2.32393 z m -2.69685,-4.360226 19.41669,1.479848 c 0.60003,0.04573 1.946,0.472528 2.81579,0.901248 0.88104,0.43427 1.14755,0.8398 0.44596,0.87844 l -19.98159,1.10069 c -0.67969,0.0374 -1.78574,-0.92382 -2.53333,-2.19152 -0.74872,-1.269592 -0.79558,-2.216879 -0.16352,-2.168706 z m -2.69685,-4.360226 18.85179,4.060382 c 0.55763,0.120106 1.93558,0.639367 2.7818,1.05647 0.86979,0.42872 1.17398,0.776118 0.47995,0.723222 l -19.41669,-1.479848 c -0.66199,-0.05045 -1.75064,-1.077141 -2.49935,-2.346736 -0.75012,-1.271982 -0.80933,-2.145269 -0.1975,-2.01349 z m 4.05926,-2.682964 18.36973,6.262467 c 0.64675,0.220483 0.23736,0.450442 -0.75534,0.534832 -0.79412,0.06751 -1.88377,0.04903 -2.5489,-0.02038 0,0 0,0 0,0 -0.0588,0.0033 -0.14956,-0.007 -0.27296,-0.03357 l -18.85179,-4.060382 c -0.12355,-0.02661 -0.26542,-0.08976 -0.41935,-0.184416 0,0 0,0 0,0 -0.17504,-0.270386 0.29302,-0.869406 1.24452,-1.488936 1.19581,-0.778604 2.60897,-1.222724 3.23409,-1.009612 z m 4.22942,-2.64072 17.88976,8.45502 c 0.62258,0.294241 0.21666,0.58163 -0.78422,0.666714 -0.9927,0.08439 -2.3877,-0.02166 -2.96523,-0.218547 l -18.36973,-6.262467 c -0.59916,-0.20426 -0.17162,-0.984386 1.0242,-1.762991 1.19429,-0.777613 2.59761,-1.164894 3.20522,-0.877729 z m 4.22941,-2.640719 17.4098,10.647571 c 0.60131,0.367753 0.19307,0.713065 -0.81309,0.798598 -1.00088,0.08508 -2.36665,-0.08117 -2.93636,-0.35043 l -17.88976,-8.45502 c -0.58469,-0.276333 -0.14123,-1.11726 1.05306,-1.894873 1.19304,-0.776792 2.586,-1.106896 3.17635,-0.745846 z m 4.22942,-2.64072 16.92983,12.840124 c 0.58163,0.441129 0.16788,0.844635 -0.84196,0.930481 -1.00615,0.08553 -2.3485,-0.140442 -2.90749,-0.482314 l -17.4098,-10.647571 c -0.56995,-0.348575 -0.11109,-1.249965 1.08194,-2.026757 1.19197,-0.7761 2.57419,-1.048768 3.14748,-0.613963 z m 4.22942,-2.64072 16.44986,15.032677 c 0.56292,0.514424 0.14173,0.976286 -0.87083,1.062363 -1.00984,0.08585 -2.33194,-0.199574 -2.87862,-0.614196 L 150.79953,83.238785 c -0.55502,-0.420946 -0.0812,-1.382539 1.11081,-2.158639 1.19106,-0.77551 2.56222,-0.99054 3.11861,-0.482081 z m 4.22942,-2.64072 15.96989,17.22523 c 0.54483,0.587664 0.11495,1.107992 -0.8997,1.194246 -1.01256,0.08608 -2.31635,-0.258625 -2.84975,-0.746079 L 155.02895,80.598065 c -0.53993,-0.493418 -0.0514,-1.515013 1.13968,-2.290522 1.19028,-0.774999 2.55012,-0.93223 3.08974,-0.350198 z m 4.22942,-2.64072 15.48992,19.417783 c 0.52718,0.660868 0.0877,1.239734 -0.92857,1.326129 -1.01465,0.08625 -2.30138,-0.317623 -2.82088,-0.877962 l -15.96989,-17.22523 c -0.52473,-0.565971 -0.0217,-1.647406 1.16855,-2.422405 1.18959,-0.774554 2.53793,-0.873855 3.06087,-0.218315 z m 4.22941,-2.640719 15.00996,21.610335 c 0.50984,0.734045 0.0602,1.371502 -0.95744,1.458011 -1.0163,0.0864 -2.28685,-0.376583 -2.79201,-1.009844 L 163.48779,75.316625 c -0.50942,-0.638588 0.008,-1.779733 1.19742,-2.554287 1.18899,-0.774162 2.52565,-0.815428 3.03199,-0.08643 z m 4.22942,-2.64072 14.52998,23.802888 c 0.49275,0.807203 0.0325,1.50329 -0.9863,1.589894 -1.01765,0.08651 -2.27263,-0.435517 -2.76314,-1.141727 L 167.7172,72.675906 c -0.49402,-0.71126 0.0373,-1.912009 1.22629,-2.686171 1.18846,-0.773814 2.51332,-0.756955 3.00313,0.04545 z m 4.22942,-2.64072 14.05001,25.99544 c 0.47581,0.880346 0.005,1.635094 -1.01517,1.721778 -1.01876,0.0866 -2.25864,-0.494432 -2.73428,-1.27361 L 171.94662,70.035186 c -0.47856,-0.783976 0.0667,-2.044239 1.25516,-2.818054 1.18798,-0.773503 2.50092,-0.698446 2.97426,0.177334 z m 4.22942,-2.64072 13.57004,28.187993 c 0.45902,0.953477 -0.0236,1.766909 -1.04404,1.853661 -1.0197,0.08668 -2.24483,-0.553331 -2.70541,-1.405494 l -14.05001,-25.99544 c -0.46304,-0.856728 0.096,-2.176432 1.28403,-2.949936 1.18755,-0.773225 2.48847,-0.639906 2.94539,0.309216 z m 4.22942,-2.640719 13.09007,30.380545 c 0.44233,1.026599 -0.0517,1.898733 -1.07291,1.985543 -1.0205,0.08675 -2.23115,-0.612218 -2.67654,-1.537376 L 180.40546,64.753746 c -0.44748,-0.929512 0.12535,-2.308594 1.3129,-3.081819 1.18717,-0.772973 2.47598,-0.581337 2.91652,0.4411 z m 4.22941,-2.64072 12.61011,32.573098 c 0.42574,1.099713 -0.08,2.030564 -1.10178,2.117426 -1.02119,0.08681 -2.21759,-0.671097 -2.64767,-1.669259 L 184.63488,62.113027 c -0.43188,-1.002324 0.1546,-2.44073 1.34177,-3.213703 1.18681,-0.772744 2.46345,-0.522746 2.88764,0.572983 z"
       inkscape:label="Outline" />
  </g>
  <g
     inkscape:groupmode="layer"
     id="layer2"
     inkscape:label="Layer 2" />
</svg>
