<?xml version="1.0" encoding="UTF-8" standalone="no"?>
<!-- Created with Inkscape (http://www.inkscape.org/) -->

<svg
   width="210mm"
   height="297mm"
   viewBox="0 0 210 297"
   version="1.1"
   id="svg5"
   inkscape:version="1.1.2 (0a00cf5339, 2022-02-04, custom)"
   sodipodi:docname="audio clip clip widow icon svg.svg"
   xmlns:inkscape="http://www.inkscape.org/namespaces/inkscape"
   xmlns:sodipodi="http://sodipodi.sourceforge.net/DTD/sodipodi-0.dtd"
   xmlns="http://www.w3.org/2000/svg"
   xmlns:svg="http://www.w3.org/2000/svg">
  <sodipodi:namedview
     id="namedview7"
     pagecolor="#ffffff"
     bordercolor="#666666"
     borderopacity="1.0"
     inkscape:pageshadow="2"
     inkscape:pageopacity="0.0"
     inkscape:pagecheckerboard="0"
     inkscape:document-units="mm"
     showgrid="false"
     inkscape:zoom="1.1476306"
     inkscape:cx="640.0143"
     inkscape:cy="927.56328"
     inkscape:window-width="1680"
     inkscape:window-height="956"
     inkscape:window-x="-11"
     inkscape:window-y="-11"
     inkscape:window-maximized="1"
     inkscape:current-layer="layer4"
     showguides="true"
     inkscape:guide-bbox="true" />
  <defs
     id="defs2">
    <inkscape:perspective
       sodipodi:type="inkscape:persp3d"
       inkscape:vp_x="0 : 148.5 : 1"
       inkscape:vp_y="0 : 1000 : 0"
       inkscape:vp_z="210 : 148.5 : 1"
       inkscape:persp3d-origin="105 : 99 : 1"
       id="perspective1237" />
    <inkscape:path-effect
       effect="rough_hatches"
       id="path-effect2461"
       is_visible="true"
       lpeversion="1"
       direction="69.99843,260.92094 , 8.1437712,0"
       dist_rdm="6;1"
       growth="0"
       do_bend="true"
       bender="69.99843,265.92094 , 5,0"
       bottom_edge_variation="1.4602372;1"
       top_edge_variation="1.4602372;1"
       bottom_tgt_variation="0;1"
       top_tgt_variation="0;1"
       scale_bf="1"
       scale_bb="1"
       scale_tf="1"
       scale_tb="1"
       top_smth_variation="0;1"
       bottom_smth_variation="0;1"
       fat_output="true"
       stroke_width_top="1"
       stroke_width_bottom="1"
       front_thickness="1"
       back_thickness="0.25" />
    <inkscape:path-effect
       effect="skeletal"
       id="path-effect1945"
       is_visible="true"
       lpeversion="1"
       pattern="m 33.860958,87.614548 h 14.800324 c 5.651367,0 10.201025,4.549657 10.201025,10.201025 v 12.157417 c 0,5.65137 -4.549658,10.20103 -10.201025,10.20103 H 33.860958 c -5.651368,0 -10.201025,-4.54966 -10.201025,-10.20103 V 97.815573 c 0,-5.651368 4.549657,-10.201025 10.201025,-10.201025 z"
       copytype="repeated"
       prop_scale="1.28"
       scale_y_rel="false"
       spacing="2.6"
       normal_offset="0"
       tang_offset="0"
       prop_units="false"
       vertical_pattern="false"
       hide_knot="false"
       fuse_tolerance="0" />
    <inkscape:path-effect
       effect="skeletal"
       id="path-effect1762"
       is_visible="true"
       lpeversion="1"
       pattern="#rect1629"
       copytype="repeated"
       prop_scale="1"
       scale_y_rel="false"
       spacing="0"
       normal_offset="0"
       tang_offset="0"
       prop_units="false"
       vertical_pattern="false"
       hide_knot="false"
       fuse_tolerance="0" />
  </defs>
  <g
     inkscape:label="Layer 1"
     inkscape:groupmode="layer"
     id="layer1">
    <path
       id="path2295"
       style="fill:none;fill-rule:evenodd;stroke:#000000;stroke-width:0.411924;stroke-linecap:round;stroke-linejoin:round;paint-order:stroke markers fill"
       d="m 41.395279,29.2202 h 2.75409 c 0.596002,0 1.075816,0.69325 1.075816,1.55437 v 0.12435 c 0,0.86112 -0.479814,1.55436 -1.075816,1.55436 h -2.75409 c -0.596001,0 -1.075811,-0.69324 -1.075811,-1.55436 v -0.12435 c 0,-0.86112 0.47981,-1.55437 1.075811,-1.55437 z m 0,-5.4228 h 2.75409 c 0.596002,0 1.075816,0.69325 1.075816,1.55436 v 0.12436 c 0,0.86111 -0.479814,1.55436 -1.075816,1.55436 h -2.75409 c -0.596001,0 -1.075811,-0.69325 -1.075811,-1.55436 v -0.12436 c 0,-0.86111 0.47981,-1.55436 1.075811,-1.55436 z m 0,-5.99363 h 2.75409 c 0.596002,0 1.075816,0.69325 1.075816,1.55437 v 0.12435 c 0,0.86112 -0.479814,1.55437 -1.075816,1.55437 h -2.75409 c -0.596001,0 -1.075811,-0.69325 -1.075811,-1.55437 v -0.12435 c 0,-0.86112 0.47981,-1.55437 1.075811,-1.55437 z M 4.6525319,29.2202 h 2.754073 c 0.595997,0 1.075808,0.69325 1.075808,1.55437 v 0.12435 c 0,0.86112 -0.479811,1.55436 -1.075808,1.55436 h -2.754073 c -0.595998,0 -1.075808,-0.69324 -1.075808,-1.55436 v -0.12435 c 0,-0.86112 0.47981,-1.55437 1.075808,-1.55437 z m 0,-5.4228 h 2.754073 c 0.595997,0 1.075808,0.69325 1.075808,1.55436 v 0.12436 c 0,0.86111 -0.479811,1.55436 -1.075808,1.55436 h -2.754073 c -0.595998,0 -1.075808,-0.69325 -1.075808,-1.55436 v -0.12436 c 0,-0.86111 0.47981,-1.55436 1.075808,-1.55436 z m 0,-5.99363 h 2.754073 c 0.595997,0 1.075808,0.69325 1.075808,1.55437 v 0.12435 c 0,0.86112 -0.479811,1.55437 -1.075808,1.55437 h -2.754073 c -0.595998,0 -1.075808,-0.69325 -1.075808,-1.55437 v -0.12435 c 0,-0.86112 0.47981,-1.55437 1.075808,-1.55437 z m 9.6742581,0.18952 h 20.456055 c 0.555894,0 1.00342,0.6466 1.00342,1.44978 v 0.62133 c 0,0.80318 -0.447526,1.44978 -1.00342,1.44978 H 14.32679 c -0.555895,0 -1.003421,-0.6466 -1.003421,-1.44978 v -0.62133 c 0,-0.80318 0.447526,-1.44978 1.003421,-1.44978 z m 0,5.99363 h 20.456055 c 0.555894,0 1.00342,0.6466 1.00342,1.44977 v 0.62134 c 0,0.80317 -0.447526,1.44977 -1.00342,1.44977 H 14.32679 c -0.555895,0 -1.003421,-0.6466 -1.003421,-1.44977 v -0.62134 c 0,-0.80317 0.447526,-1.44977 1.003421,-1.44977 z m 0,6.27903 h 20.456055 c 0.555894,0 1.00342,0.6466 1.00342,1.44978 v 0.62133 c 0,0.80318 -0.447526,1.44978 -1.00342,1.44978 H 14.32679 c -0.555895,0 -1.003421,-0.6466 -1.003421,-1.44978 v -0.62133 c 0,-0.80318 0.447526,-1.44978 1.003421,-1.44978 z M 3.2585469,7.2391097 c -0.5379621,0 -0.9711461,0.60992 -0.9711461,1.3677 v 0.37294 c 0,0.75779 0.433184,1.3679903 0.9711461,1.3679903 h 5.649589 c 0.537962,0 0.971147,-0.6102003 0.971147,-1.3679903 0,0.75779 0.4329861,1.3679903 0.9709481,1.3679903 H 38.19292 c 0.53796,0 0.971144,-0.6102003 0.971144,-1.3679903 0,0.75779 0.43299,1.3679903 0.97095,1.3679903 H 45.7848 c 0.53796,0 0.971148,-0.6102003 0.971148,-1.3679903 v -0.37294 c 0,-0.75778 -0.433188,-1.3677 -0.971148,-1.3677 h -5.649786 c -0.53796,0 -0.97095,0.60992 -0.97095,1.3677 0,-0.75778 -0.433184,-1.3677 -0.971144,-1.3677 H 10.850231 c -0.537962,0 -0.9709481,0.60992 -0.9709481,1.3677 0,-0.75778 -0.433185,-1.3677 -0.971147,-1.3677 z m 0.404311,66.2165763 c -0.52448,0 -0.9468081,0.60991 -0.9468081,1.3677 v 0.37293 c 0,0.75779 0.4223281,1.36799 0.9468081,1.36799 h 5.507999 c 0.52448,0 0.9468081,-0.6102 0.9468081,-1.36799 0,0.75779 0.422134,1.36799 0.946614,1.36799 h 26.657428 c 0.52448,0 0.946808,-0.6102 0.946808,-1.36799 0,0.75779 0.422134,1.36799 0.946614,1.36799 h 5.508192 c 0.524479,0 0.946808,-0.6102 0.946808,-1.36799 v -0.37293 c 0,-0.75779 -0.422329,-1.3677 -0.946808,-1.3677 h -5.508192 c -0.52448,0 -0.946614,0.60991 -0.946614,1.3677 0,-0.75779 -0.422328,-1.3677 -0.946808,-1.3677 H 11.064279 c -0.52448,0 -0.946614,0.60991 -0.946614,1.3677 0,-0.75779 -0.4223281,-1.3677 -0.9468081,-1.3677 z M 38.668504,10.41037 h 7.401565 v 66.153916 h -7.401565 z m -35.9524292,0 H 10.117639 V 76.564286 H 2.7160748 Z M 10.11764,10.53472 H 38.605061 V 76.564286 H 10.11764 Z" />
  </g>
  <g
     inkscape:groupmode="layer"
     id="layer2"
     inkscape:label="Layer 2">
    <path
       style="fill:#000000;stroke-width:0.264583"
       d="m 161.23655,41.175519 c -0.0508,-18.372005 -0.18438,-33.8554407 -0.29692,-34.4076357 -0.16097,-0.78981 -0.10474,-1.11436 0.26359,-1.521354 0.41625,-0.459949 0.82894,-0.517363 3.71887,-0.517363 1.88756,0 3.31943,0.111249 3.41464,0.265299 0.1096,0.177343 0.32831,0.177343 0.65968,0 0.67565,-0.361598 27.90202,-0.361598 28.57767,0 0.33137,0.177343 0.55008,0.177343 0.65968,0 0.0952,-0.15405 1.52708,-0.265299 3.41463,-0.265299 2.81318,0 3.30961,0.06512 3.68856,0.483854 0.54226,0.599199 0.56704,1.890067 0.0494,2.57443 -0.33665,0.445093 -0.38958,4.9333587 -0.39688,33.6526517 l -0.008,33.139062 h -21.82611 -21.82611 z m 32.74542,-10.139211 c 0.42179,-0.421784 0.54784,-1.57805 0.25517,-2.340712 -0.14277,-0.372064 -1.34573,-0.418514 -10.8386,-0.418514 -10.28625,0 -10.68806,0.01878 -10.9519,0.511773 -0.38548,0.720273 -0.34085,1.391566 0.13798,2.075189 l 0.41188,0.588038 h 10.28485 c 8.99708,0 10.33691,-0.05206 10.70062,-0.415774 z m -27.52905,-1.248425 c 0.34104,-0.249378 0.44372,-0.623438 0.3813,-1.389062 l -0.0854,-1.047781 -1.92036,-0.07778 c -1.85704,-0.07522 -1.92901,-0.05502 -2.18281,0.612537 -0.36216,0.952556 -0.3377,1.109796 0.26671,1.714202 0.62225,0.622258 2.78928,0.737253 3.54059,0.187884 z m 36.94066,-0.187884 c 0.60853,-0.608532 0.67542,-1.286352 0.19215,-1.947259 -0.27566,-0.376988 -0.67306,-0.446406 -2.18281,-0.381299 l -1.8458,0.0796 -0.0854,1.047781 c -0.10788,1.323053 0.39122,1.730344 2.12037,1.730344 0.91957,0 1.41907,-0.146719 1.80152,-0.529166 z m -9.26973,-5.00969 c 0.36985,-0.691056 0.34633,-1.955789 -0.0436,-2.345727 -0.2363,-0.236298 -3.0083,-0.3175 -10.8386,-0.3175 -10.13113,0 -10.53126,0.01897 -10.795,0.511773 -0.15064,0.281475 -0.2739,0.765552 -0.2739,1.075727 0,0.310175 0.12326,0.794253 0.2739,1.075727 0.26377,0.492857 0.66437,0.511773 10.8386,0.511773 10.17424,0 10.57484,-0.01892 10.83861,-0.511773 z m -27.50668,-0.415083 c 0.42763,-0.515267 0.42272,-1.605686 -0.01,-2.126573 -0.25318,-0.305058 -0.74761,-0.389452 -1.94239,-0.331544 -1.39576,0.06765 -1.64974,0.163112 -1.96649,0.73914 -0.27589,0.501704 -0.2956,0.837188 -0.0816,1.389062 0.267,0.688608 0.37291,0.727604 1.97606,0.727604 1.18449,0 1.79321,-0.119604 2.024,-0.397689 z m 37.05428,-0.298716 c 0.28288,-0.744024 0.10375,-1.69305 -0.37968,-2.011522 -0.4815,-0.317202 -3.20549,-0.228937 -3.54944,0.115011 -0.17463,0.174625 -0.3175,0.686594 -0.3175,1.137708 0,1.190158 0.42045,1.455208 2.30842,1.455208 1.56393,0 1.69075,-0.04557 1.9382,-0.696405 z m -9.59121,-5.177344 c 0.38994,-0.389939 0.41346,-1.654671 0.0436,-2.345728 -0.26377,-0.492857 -0.66437,-0.511772 -10.83861,-0.511772 -10.17423,0 -10.57483,0.01891 -10.8386,0.511772 -0.15064,0.281475 -0.2739,0.765552 -0.2739,1.075728 0,0.310175 0.12326,0.794252 0.2739,1.075727 0.26374,0.492803 0.66387,0.511773 10.795,0.511773 7.8303,0 10.6023,-0.0812 10.8386,-0.3175 z m -27.24602,-1.391739 c 0.10787,-1.323054 -0.39122,-1.730345 -2.12038,-1.730345 -0.91957,0 -1.41907,0.14672 -1.80151,0.529167 -0.60441,0.604405 -0.62887,0.761645 -0.26671,1.714202 0.2538,0.667557 0.32577,0.687752 2.18281,0.612536 l 1.92036,-0.07778 z m 36.81463,0.668299 c 0.71054,-1.32766 -0.17908,-2.398644 -1.99246,-2.398644 -1.74127,0 -2.23156,0.341142 -2.23156,1.552712 0,0.55271 0.0794,1.084302 0.17639,1.181316 0.097,0.09701 0.98579,0.176389 1.97506,0.176389 1.50751,0 1.84302,-0.08284 2.07257,-0.511773 z"
       id="path2698" />
  </g>
  <g
     inkscape:groupmode="layer"
     id="layer3"
     inkscape:label="Layer 3">
    <g
       id="g3717">
      <path
         id="path2818"
         style="fill:none;fill-rule:evenodd;stroke:#000000;stroke-width:0.411924;stroke-linecap:round;stroke-linejoin:round;paint-order:stroke markers fill"
         d="m 46.236776,247.08756 h 2.75409 c 0.596002,0 1.075816,0.69325 1.075816,1.55437 v 0.12435 c 0,0.86112 -0.479814,1.55436 -1.075816,1.55436 h -2.75409 c -0.596001,0 -1.075811,-0.69324 -1.075811,-1.55436 v -0.12435 c 0,-0.86112 0.47981,-1.55437 1.075811,-1.55437 z m 0,-5.4228 h 2.75409 c 0.596002,0 1.075816,0.69325 1.075816,1.55436 v 0.12436 c 0,0.86111 -0.479814,1.55436 -1.075816,1.55436 h -2.75409 c -0.596001,0 -1.075811,-0.69325 -1.075811,-1.55436 v -0.12436 c 0,-0.86111 0.47981,-1.55436 1.075811,-1.55436 z m 0,-5.99363 h 2.75409 c 0.596002,0 1.075816,0.69325 1.075816,1.55437 v 0.12435 c 0,0.86112 -0.479814,1.55437 -1.075816,1.55437 h -2.75409 c -0.596001,0 -1.075811,-0.69325 -1.075811,-1.55437 v -0.12435 c 0,-0.86112 0.47981,-1.55437 1.075811,-1.55437 z M 9.4940288,247.08756 h 2.7540732 c 0.595997,0 1.075808,0.69325 1.075808,1.55437 v 0.12435 c 0,0.86112 -0.479811,1.55436 -1.075808,1.55436 H 9.4940288 c -0.595998,0 -1.075808,-0.69324 -1.075808,-1.55436 v -0.12435 c 0,-0.86112 0.47981,-1.55437 1.075808,-1.55437 z m 0,-5.4228 h 2.7540732 c 0.595997,0 1.075808,0.69325 1.075808,1.55436 v 0.12436 c 0,0.86111 -0.479811,1.55436 -1.075808,1.55436 H 9.4940288 c -0.595998,0 -1.075808,-0.69325 -1.075808,-1.55436 v -0.12436 c 0,-0.86111 0.47981,-1.55436 1.075808,-1.55436 z m 0,-5.99363 h 2.7540732 c 0.595997,0 1.075808,0.69325 1.075808,1.55437 v 0.12435 c 0,0.86112 -0.479811,1.55437 -1.075808,1.55437 H 9.4940288 c -0.595998,0 -1.075808,-0.69325 -1.075808,-1.55437 v -0.12435 c 0,-0.86112 0.47981,-1.55437 1.075808,-1.55437 z m 9.6742582,0.18952 h 20.456055 c 0.555894,0 1.00342,0.6466 1.00342,1.44978 v 0.62133 c 0,0.80318 -0.447526,1.44978 -1.00342,1.44978 H 19.168287 c -0.555895,0 -1.003421,-0.6466 -1.003421,-1.44978 v -0.62133 c 0,-0.80318 0.447526,-1.44978 1.003421,-1.44978 z m 0,5.99363 h 20.456055 c 0.555894,0 1.00342,0.6466 1.00342,1.44977 v 0.62134 c 0,0.80317 -0.447526,1.44977 -1.00342,1.44977 H 19.168287 c -0.555895,0 -1.003421,-0.6466 -1.003421,-1.44977 v -0.62134 c 0,-0.80317 0.447526,-1.44977 1.003421,-1.44977 z m 0,6.27903 h 20.456055 c 0.555894,0 1.00342,0.6466 1.00342,1.44978 v 0.62133 c 0,0.80318 -0.447526,1.44978 -1.00342,1.44978 H 19.168287 c -0.555895,0 -1.003421,-0.6466 -1.003421,-1.44978 v -0.62133 c 0,-0.80318 0.447526,-1.44978 1.003421,-1.44978 z M 8.1000438,225.10647 c -0.5379621,0 -0.9711461,0.60992 -0.9711461,1.3677 v 0.37294 c 0,0.75779 0.433184,1.36799 0.9711461,1.36799 h 5.6495892 c 0.537962,0 0.971147,-0.6102 0.971147,-1.36799 0,0.75779 0.432986,1.36799 0.970948,1.36799 h 27.342689 c 0.53796,0 0.971144,-0.6102 0.971144,-1.36799 0,0.75779 0.43299,1.36799 0.97095,1.36799 h 5.649786 c 0.53796,0 0.971148,-0.6102 0.971148,-1.36799 v -0.37294 c 0,-0.75778 -0.433188,-1.3677 -0.971148,-1.3677 h -5.649786 c -0.53796,0 -0.97095,0.60992 -0.97095,1.3677 0,-0.75778 -0.433184,-1.3677 -0.971144,-1.3677 H 15.691728 c -0.537962,0 -0.970948,0.60992 -0.970948,1.3677 0,-0.75778 -0.433185,-1.3677 -0.971147,-1.3677 z m 0.404311,66.21658 c -0.52448,0 -0.9468081,0.60991 -0.9468081,1.3677 v 0.37293 c 0,0.75779 0.4223281,1.36799 0.9468081,1.36799 h 5.5079992 c 0.52448,0 0.946808,-0.6102 0.946808,-1.36799 0,0.75779 0.422134,1.36799 0.946614,1.36799 h 26.657428 c 0.52448,0 0.946808,-0.6102 0.946808,-1.36799 0,0.75779 0.422134,1.36799 0.946614,1.36799 h 5.508192 c 0.524479,0 0.946808,-0.6102 0.946808,-1.36799 v -0.37293 c 0,-0.75779 -0.422329,-1.3677 -0.946808,-1.3677 h -5.508192 c -0.52448,0 -0.946614,0.60991 -0.946614,1.3677 0,-0.75779 -0.422328,-1.3677 -0.946808,-1.3677 H 15.905776 c -0.52448,0 -0.946614,0.60991 -0.946614,1.3677 0,-0.75779 -0.422328,-1.3677 -0.946808,-1.3677 z M 43.510001,228.27773 h 7.401565 v 66.15392 h -7.401565 z m -35.9524293,0 h 7.4015643 v 66.15392 H 7.5575717 Z m 7.4015653,0.12435 h 28.487421 v 66.02957 H 14.959137 Z" />
      <path
         style="fill:#ffffff;fill-rule:evenodd;stroke:#000000;stroke-width:3.02328;stroke-linecap:round;stroke-linejoin:round;paint-order:stroke markers fill"
         d="M 57.945475,982.24115 V 864.38964 H 110.66279 163.3801 V 982.24115 1100.0927 H 110.66279 57.945475 Z m 94.978295,-31.58682 c 2.16977,-2.16976 2.394,-9.13874 0.38628,-12.00516 l -1.35646,-1.93661 H 111.09847 70.243341 l -1.35645,1.93661 c -2.007721,2.86642 -1.783491,9.8354 0.386271,12.00516 1.692207,1.69221 2.904534,1.74272 41.825308,1.74272 38.92077,0 40.13309,-0.0505 41.8253,-1.74272 z m 0,-23.52673 c 2.16977,-2.16977 2.394,-9.13874 0.38628,-12.00517 l -1.35646,-1.9366 H 111.09847 70.243341 l -1.35645,1.9366 c -2.007721,2.86643 -1.783491,9.8354 0.386271,12.00517 1.692207,1.6922 2.904534,1.74272 41.825308,1.74272 38.92077,0 40.13309,-0.0505 41.8253,-1.74272 z m 0,-22.65538 c 2.16977,-2.16976 2.394,-9.13874 0.38628,-12.00516 l -1.35646,-1.93661 H 111.09847 70.243341 l -1.35645,1.93661 c -2.007721,2.86642 -1.783491,9.8354 0.386271,12.00516 1.692207,1.69221 2.904534,1.74272 41.825308,1.74272 38.92077,0 40.13309,-0.0505 41.8253,-1.74272 z"
         id="path2876"
         transform="scale(0.26458333)" />
      <path
         style="fill:#ffffff;fill-rule:evenodd;stroke:#000000;stroke-width:3.02328;stroke-linecap:round;stroke-linejoin:round;paint-order:stroke markers fill"
         d="m 58.991107,1110.8104 c -1.417373,-1.4174 -1.325213,-6.3512 0.141372,-7.5684 0.859773,-0.7135 15.206833,-0.9231 52.042901,-0.7602 l 50.8559,0.2249 0.83027,2.3612 c 0.5637,1.603 0.50646,3.0718 -0.17827,4.5746 l -1.00854,2.2135 h -50.819 c -38.364075,0 -51.075268,-0.2562 -51.864633,-1.0456 z"
         id="path2915"
         transform="scale(0.26458333)" />
      <path
         style="fill:#ffffff;fill-rule:evenodd;stroke:#000000;stroke-width:3.02328;stroke-linecap:round;stroke-linejoin:round;paint-order:stroke markers fill"
         d="M 30.061938,982.24115 V 864.38964 H 42.696666 55.331393 V 982.24115 1100.0927 H 42.696666 30.061938 Z M 49.75034,945.33469 c 1.112764,-1.22959 1.659931,-3.12196 1.659931,-5.74084 0,-5.71491 -2.220741,-7.23809 -10.552859,-7.23809 -8.069416,0 -9.924113,1.41209 -9.924113,7.55579 0,6.23541 1.411039,7.25734 10.020646,7.25734 6.148488,0 7.366265,-0.25393 8.796395,-1.8342 z m -0.397163,-19.87283 c 2.677796,-2.16834 2.901682,-8.54573 0.397163,-11.31319 -1.42455,-1.57411 -2.650424,-1.8342 -8.644994,-1.8342 -8.651613,0 -10.172047,1.03724 -10.172047,6.93939 0,6.55153 1.553251,7.69764 10.577633,7.80495 4.469358,0.0531 6.253023,-0.31007 7.842245,-1.59695 z m 0,-22.65537 c 2.677796,-2.16835 2.901682,-8.54573 0.397163,-11.31319 -1.42455,-1.57411 -2.650424,-1.83421 -8.644994,-1.83421 -8.651613,0 -10.172047,1.03725 -10.172047,6.9394 0,6.55153 1.553251,7.69763 10.577633,7.80494 4.469358,0.0532 6.253023,-0.31007 7.842245,-1.59694 z"
         id="path2954"
         transform="scale(0.26458333)" />
      <path
         style="fill:#ffffff;fill-rule:evenodd;stroke:#000000;stroke-width:3.02328;stroke-linecap:round;stroke-linejoin:round;paint-order:stroke markers fill"
         d="m 31.107571,1110.8104 c -1.116121,-1.1161 -1.3884,-4.8895 -0.516727,-7.161 0.443854,-1.1567 2.307471,-1.3783 11.589095,-1.3783 7.440556,0 11.40239,0.3422 12.105822,1.0456 1.284573,1.2846 1.353886,4.5925 0.143614,6.8539 -0.816529,1.5257 -1.914894,1.6854 -11.589095,1.6854 -7.150357,0 -11.033112,-0.346 -11.732709,-1.0456 z"
         id="path2993"
         transform="scale(0.26458333)" />
      <path
         style="fill:#ffffff;fill-rule:evenodd;stroke:#000000;stroke-width:3.02328;stroke-linecap:round;stroke-linejoin:round;paint-order:stroke markers fill"
         d="m 166.91601,1110.6098 c -0.56886,-0.6854 -0.91095,-2.744 -0.76022,-4.5746 l 0.27407,-3.3285 11.20617,-0.2446 c 7.51872,-0.1641 11.60456,0.086 12.41689,0.7603 1.429,1.1859 1.57951,4.5736 0.3087,6.9482 -0.81701,1.5266 -1.91566,1.6854 -11.65668,1.6854 -8.26344,0 -10.99423,-0.2886 -11.78893,-1.2462 z"
         id="path3032"
         transform="scale(0.26458333)" />
      <path
         style="fill:#ffffff;fill-rule:evenodd;stroke:#000000;stroke-width:3.02328;stroke-linecap:round;stroke-linejoin:round;paint-order:stroke markers fill"
         d="M 165.99418,982.24115 V 864.38964 h 12.63473 12.63472 v 117.85151 117.85155 h -12.63472 -12.63473 z m 23.04164,-37.00887 c 2.12068,-3.02769 1.74292,-8.21247 -0.78234,-10.73773 -1.86865,-1.86865 -2.9192,-2.13879 -8.31753,-2.13879 -5.39833,0 -6.44888,0.27014 -8.31753,2.13879 -2.52527,2.52526 -2.90302,7.71004 -0.78235,10.73773 1.22868,1.75419 2.08583,1.93661 9.09988,1.93661 7.01404,0 7.87119,-0.18242 9.09987,-1.93661 z m -0.78234,-20.24348 c 2.52526,-2.52526 2.90302,-7.71004 0.78234,-10.73773 -1.22868,-1.75419 -2.08583,-1.9366 -9.09987,-1.9366 -7.01405,0 -7.8712,0.18241 -9.09988,1.9366 -2.12067,3.02769 -1.74292,8.21247 0.78235,10.73773 1.86865,1.86865 2.9192,2.1388 8.31753,2.1388 5.39833,0 6.44888,-0.27015 8.31753,-2.1388 z m 0,-22.65537 c 2.52526,-2.52526 2.90302,-7.71004 0.78234,-10.73773 -1.22868,-1.75419 -2.08583,-1.93661 -9.09987,-1.93661 -7.01405,0 -7.8712,0.18242 -9.09988,1.93661 -2.12067,3.02769 -1.74292,8.21247 0.78235,10.73773 1.86865,1.86865 2.9192,2.13879 8.31753,2.13879 5.39833,0 6.44888,-0.27014 8.31753,-2.13879 z"
         id="path3071"
         transform="scale(0.26458333)" />
      <path
         style="fill:#ffffff;fill-rule:evenodd;stroke:#000000;stroke-width:3.02328;stroke-linecap:round;stroke-linejoin:round;paint-order:stroke markers fill"
         d="M 165.99418,982.02331 V 864.38964 h 12.63473 12.63472 V 982.02331 1099.657 h -12.63472 -12.63473 z m 23.49608,-36.53986 c 1.61386,-3.01552 1.08856,-8.89568 -0.9926,-11.11097 -1.65428,-1.7609 -2.72484,-2.01672 -8.4396,-2.01672 -8.25335,0 -10.57844,1.6739 -10.57844,7.61574 0,6.8005 0.5766,7.19739 10.45633,7.19739 7.66246,0 8.75548,-0.19282 9.55431,-1.68544 z m -1.11471,-20.25046 c 1.51427,-1.42259 2.01672,-2.84796 2.01672,-5.72113 0,-6.80051 -0.57659,-7.19739 -10.45632,-7.19739 -9.85216,0 -10.45633,0.40881 -10.45633,7.07528 0,6.02266 2.2907,7.73785 10.33422,7.73785 5.52064,0 6.86063,-0.29653 8.56171,-1.89461 z m 0,-22.65538 c 1.51427,-1.42258 2.01672,-2.84795 2.01672,-5.72113 0,-6.8005 -0.57659,-7.19739 -10.45632,-7.19739 -9.85216,0 -10.45633,0.40881 -10.45633,7.07528 0,6.02267 2.2907,7.73785 10.33422,7.73785 5.52064,0 6.86063,-0.29652 8.56171,-1.89461 z"
         id="path3110"
         transform="scale(0.26458333)" />
      <path
         style="fill:#ffffff;fill-rule:evenodd;stroke:#000000;stroke-width:3.02328;stroke-linecap:round;stroke-linejoin:round;paint-order:stroke markers fill"
         d="m 173.13934,923.46788 c -1.11613,-1.11612 -1.3884,-4.88948 -0.51673,-7.16102 0.77326,-2.01509 13.85341,-2.01509 14.62668,0 0.87167,2.27154 0.59939,6.0449 -0.51673,7.16102 -1.37721,1.37722 -12.21601,1.37722 -13.59322,0 z"
         id="path3149"
         transform="scale(0.26458333)" />
      <path
         style="fill:#ffffff;fill-rule:evenodd;stroke:#000000;stroke-width:3.02328;stroke-linecap:round;stroke-linejoin:round;paint-order:stroke markers fill"
         d="m 71.190155,902.55523 c -1.354375,-1.35437 -1.354375,-7.88205 0,-9.23642 1.504682,-1.50468 78.311945,-1.50468 79.816625,0 1.35437,1.35437 1.35437,7.88205 0,9.23642 -1.50468,1.50468 -78.311943,1.50468 -79.816625,0 z"
         id="path3188"
         transform="scale(0.26458333)" />
      <path
         style="fill:#ffffff;fill-rule:evenodd;stroke:#000000;stroke-width:3.02328;stroke-linecap:round;stroke-linejoin:round;paint-order:stroke markers fill"
         d="M 57.945475,982.02331 V 864.38964 H 110.66279 163.3801 V 982.02331 1099.657 H 110.66279 57.945475 Z M 153.073,950.95496 c 1.16973,-1.05859 1.59349,-2.69589 1.59349,-6.15681 0,-8.84301 4.08127,-8.08559 -43.56802,-8.08559 -41.157567,0 -41.777819,0.0258 -42.716188,1.7792 -1.550694,2.89749 -1.244697,10.28421 0.506171,12.2189 1.467511,1.62157 3.08403,1.68639 42.058617,1.68639 36.49306,0 40.69124,-0.14371 42.12593,-1.44209 z m 0,-23.52673 c 1.16973,-1.0586 1.59349,-2.69589 1.59349,-6.15681 0,-8.84302 4.08127,-8.08559 -43.56802,-8.08559 -41.157567,0 -41.777819,0.0258 -42.716188,1.77919 -1.550694,2.8975 -1.244697,10.28421 0.506171,12.2189 1.467511,1.62158 3.08403,1.6864 42.058617,1.6864 36.49306,0 40.69124,-0.14372 42.12593,-1.44209 z m 0,-22.65538 c 1.16973,-1.05859 1.59349,-2.69588 1.59349,-6.1568 0,-8.84302 4.08127,-8.0856 -43.56802,-8.0856 -41.157567,0 -41.777819,0.0258 -42.716188,1.7792 -1.550694,2.8975 -1.244697,10.28421 0.506171,12.2189 1.467511,1.62158 3.08403,1.68639 42.058617,1.68639 36.49306,0 40.69124,-0.14371 42.12593,-1.44209 z"
         id="path3227"
         transform="scale(0.26458333)" />
      <path
         style="fill:#ffffff;fill-rule:evenodd;stroke:#000000;stroke-width:3.02328;stroke-linecap:round;stroke-linejoin:round;paint-order:stroke markers fill"
         d="m 58.598995,860.8344 c -1.527393,-0.88962 -2.031495,-4.56698 -0.995975,-7.2655 0.474188,-1.23571 5.955172,-1.37831 52.97872,-1.37831 39.63248,0 52.70534,0.25553 53.49545,1.04563 1.48046,1.48047 1.29678,5.54962 -0.32365,7.17006 -1.2143,1.2143 -7.15623,1.36628 -52.49947,1.34278 -33.10481,-0.0172 -51.667774,-0.33961 -52.655075,-0.91466 z"
         id="path3266"
         transform="scale(0.26458333)" />
      <path
         style="fill:#ffffff;fill-rule:evenodd;stroke:#000000;stroke-width:3.02328;stroke-linecap:round;stroke-linejoin:round;paint-order:stroke markers fill"
         d="m 169.26178,860.8344 c -0.89146,-0.51922 -1.52488,-1.92644 -1.52488,-3.38768 0,-5.24381 0.0294,-5.25613 12.55368,-5.25613 12.41344,0 13.58714,0.38603 13.58714,4.46884 0,4.4486 -1.7007,5.11883 -12.91481,5.08963 -5.59694,-0.0146 -10.86244,-0.42617 -11.70113,-0.91466 z"
         id="path3305"
         transform="scale(0.26458333)" />
      <path
         style="fill:#ffffff;fill-rule:evenodd;stroke:#000000;stroke-width:3.02328;stroke-linecap:round;stroke-linejoin:round;paint-order:stroke markers fill"
         d="m 29.844098,860.8344 c -0.891458,-0.51922 -1.524881,-1.92644 -1.524881,-3.38768 0,-5.24381 0.02942,-5.25613 12.553681,-5.25613 12.413438,0 13.587135,0.38603 13.587135,4.46884 0,4.4486 -1.700697,5.11883 -12.914808,5.08963 -5.596936,-0.0146 -10.862443,-0.42617 -11.701127,-0.91466 z"
         id="path3344"
         transform="scale(0.26458333)" />
      <path
         style="fill:#ffffff;fill-rule:evenodd;stroke:#000000;stroke-width:3.02328;stroke-linecap:round;stroke-linejoin:round;paint-order:stroke markers fill"
         d="m 71.069328,925.01359 c -0.567216,-0.68345 -0.909312,-2.92247 -0.760214,-4.9756 0.227392,-3.13125 0.622223,-3.82989 2.44949,-4.33434 2.880731,-0.79528 70.889886,-0.85028 75.372686,-0.061 3.3745,0.59417 3.49407,0.7333 3.75653,4.37098 0.47572,6.59354 2.76904,6.24257 -40.78935,6.24257 -32.703509,0 -39.164294,-0.20057 -40.029142,-1.24265 z"
         id="path3383"
         transform="scale(0.26458333)" />
      <path
         style="fill:#ffffff;fill-rule:evenodd;stroke:#000000;stroke-width:3.02328;stroke-linecap:round;stroke-linejoin:round;paint-order:stroke markers fill"
         d="m 70.532603,947.72514 c -0.284065,-1.1318 -0.389564,-3.38645 -0.234441,-5.01032 l 0.28204,-2.9525 h 40.518268 40.51826 l 0.28204,2.9525 c 0.15512,1.62387 0.0496,3.87852 -0.23444,5.01032 l -0.51648,2.05783 H 111.09847 71.049085 Z"
         id="path3422"
         transform="scale(0.26458333)" />
      <path
         style="fill:#ffffff;fill-rule:evenodd;stroke:#000000;stroke-width:3.02328;stroke-linecap:round;stroke-linejoin:round;paint-order:stroke markers fill"
         d="m 33.921227,899.70766 c -1.056684,-1.6127 -1.206976,-2.7567 -0.600994,-4.57464 0.792764,-2.37829 0.938186,-2.42416 7.685341,-2.42416 6.692505,0 6.899598,0.0634 7.707654,2.36113 0.563799,1.60315 0.5066,3.07172 -0.178176,4.57464 -0.940195,2.06351 -1.421794,2.21351 -7.106659,2.21351 -5.522012,0 -6.231233,-0.20316 -7.507166,-2.15048 z"
         id="path3461"
         transform="scale(0.26458333)" />
      <path
         style="fill:#ffffff;fill-rule:evenodd;stroke:#000000;stroke-width:3.02328;stroke-linecap:round;stroke-linejoin:round;paint-order:stroke markers fill"
         d="M 30.061938,982.02331 V 864.38964 H 42.696666 55.331393 V 982.02331 1099.657 H 42.696666 30.061938 Z m 20.427563,-36.79103 c 1.97543,-2.82032 1.76152,-8.98601 -0.386271,-11.1338 -1.458355,-1.45835 -2.904535,-1.74272 -8.862833,-1.74272 -9.139866,0 -10.307098,0.89849 -10.307098,7.934 0,6.36345 0.704657,6.81793 10.624756,6.85263 6.855892,0.024 7.703765,-0.15735 8.931446,-1.91011 z m -1.605918,-18.77155 c 3.007624,-2.00824 3.915668,-8.91203 1.605918,-12.20966 -1.221005,-1.74323 -2.096808,-1.9366 -8.77089,-1.9366 -9.92653,0 -10.785312,0.53469 -10.785312,6.71509 0,7.16275 1.153694,8.10131 9.937856,8.08469 3.87952,-0.007 7.485113,-0.30142 8.012428,-0.65352 z m 0,-22.65537 c 3.007624,-2.00824 3.915668,-8.91203 1.605918,-12.20966 -1.221005,-1.74323 -2.096808,-1.93661 -8.77089,-1.93661 -9.92653,0 -10.785312,0.53469 -10.785312,6.71509 0,7.16276 1.153694,8.10132 9.937856,8.0847 3.87952,-0.007 7.485113,-0.30142 8.012428,-0.65352 z"
         id="path3500"
         transform="scale(0.26458333)" />
      <path
         style="fill:#ffffff;fill-rule:evenodd;stroke:#000000;stroke-width:3.02328;stroke-linecap:round;stroke-linejoin:round;paint-order:stroke markers fill"
         d="m 33.921227,922.36303 c -1.056684,-1.6127 -1.206976,-2.75669 -0.600994,-4.57464 0.792764,-2.37829 0.938186,-2.42416 7.685341,-2.42416 6.692505,0 6.899598,0.0634 7.707654,2.36113 0.563799,1.60316 0.5066,3.07173 -0.178176,4.57465 -0.940195,2.0635 -1.421794,2.21351 -7.106659,2.21351 -5.522012,0 -6.231233,-0.20317 -7.507166,-2.15049 z"
         id="path3539"
         transform="scale(0.26458333)" />
      <path
         style="fill:#ffffff;fill-rule:evenodd;stroke:#000000;stroke-width:3.02328;stroke-linecap:round;stroke-linejoin:round;paint-order:stroke markers fill"
         d="m 38.573308,944.79467 c 1.56614,-0.19394 3.918814,-0.18993 5.228163,0.009 1.30935,0.19882 0.02796,0.35749 -2.847526,0.3526 -2.87549,-0.005 -3.946776,-0.16756 -2.380637,-0.36149 z"
         id="path3578"
         transform="scale(0.26458333)" />
    </g>
  </g>
  <g
     inkscape:groupmode="layer"
     id="layer4"
     inkscape:label="Layer 4">
    <g
       id="g4765">
      <path
         id="path3741"
         style="fill:none;fill-rule:evenodd;stroke:#000000;stroke-width:0.411924;stroke-linecap:round;stroke-linejoin:round;paint-order:stroke markers fill"
         d="m 201.62577,247.08756 h 2.75409 c 0.596,0 1.07582,0.69325 1.07582,1.55437 v 0.12435 c 0,0.86112 -0.47982,1.55436 -1.07582,1.55436 h -2.75409 c -0.596,0 -1.07581,-0.69324 -1.07581,-1.55436 v -0.12435 c 0,-0.86112 0.47981,-1.55437 1.07581,-1.55437 z m 0,-5.4228 h 2.75409 c 0.596,0 1.07582,0.69325 1.07582,1.55436 v 0.12436 c 0,0.86111 -0.47982,1.55436 -1.07582,1.55436 h -2.75409 c -0.596,0 -1.07581,-0.69325 -1.07581,-1.55436 v -0.12436 c 0,-0.86111 0.47981,-1.55436 1.07581,-1.55436 z m 0,-5.99363 h 2.75409 c 0.596,0 1.07582,0.69325 1.07582,1.55437 v 0.12435 c 0,0.86112 -0.47982,1.55437 -1.07582,1.55437 h -2.75409 c -0.596,0 -1.07581,-0.69325 -1.07581,-1.55437 v -0.12435 c 0,-0.86112 0.47981,-1.55437 1.07581,-1.55437 z m -36.74275,11.41643 h 2.75408 c 0.59599,0 1.07581,0.69325 1.07581,1.55437 v 0.12435 c 0,0.86112 -0.47982,1.55436 -1.07581,1.55436 h -2.75408 c -0.59599,0 -1.0758,-0.69324 -1.0758,-1.55436 v -0.12435 c 0,-0.86112 0.47981,-1.55437 1.0758,-1.55437 z m 0,-5.4228 h 2.75408 c 0.59599,0 1.07581,0.69325 1.07581,1.55436 v 0.12436 c 0,0.86111 -0.47982,1.55436 -1.07581,1.55436 h -2.75408 c -0.59599,0 -1.0758,-0.69325 -1.0758,-1.55436 v -0.12436 c 0,-0.86111 0.47981,-1.55436 1.0758,-1.55436 z m 0,-5.99363 h 2.75408 c 0.59599,0 1.07581,0.69325 1.07581,1.55437 v 0.12435 c 0,0.86112 -0.47982,1.55437 -1.07581,1.55437 h -2.75408 c -0.59599,0 -1.0758,-0.69325 -1.0758,-1.55437 v -0.12435 c 0,-0.86112 0.47981,-1.55437 1.0758,-1.55437 z m 9.67426,0.18952 h 20.45606 c 0.55589,0 1.00342,0.6466 1.00342,1.44978 v 0.62133 c 0,0.80318 -0.44753,1.44978 -1.00342,1.44978 h -20.45606 c -0.55589,0 -1.00342,-0.6466 -1.00342,-1.44978 v -0.62133 c 0,-0.80318 0.44753,-1.44978 1.00342,-1.44978 z m 0,5.99363 h 20.45606 c 0.55589,0 1.00342,0.6466 1.00342,1.44977 v 0.62134 c 0,0.80317 -0.44753,1.44977 -1.00342,1.44977 h -20.45606 c -0.55589,0 -1.00342,-0.6466 -1.00342,-1.44977 v -0.62134 c 0,-0.80317 0.44753,-1.44977 1.00342,-1.44977 z m 0,6.27903 h 20.45606 c 0.55589,0 1.00342,0.6466 1.00342,1.44978 v 0.62133 c 0,0.80318 -0.44753,1.44978 -1.00342,1.44978 h -20.45606 c -0.55589,0 -1.00342,-0.6466 -1.00342,-1.44978 v -0.62133 c 0,-0.80318 0.44753,-1.44978 1.00342,-1.44978 z m -11.06824,-23.02684 c -0.53796,0 -0.97115,0.60992 -0.97115,1.3677 v 0.37294 c 0,0.75779 0.43319,1.36799 0.97115,1.36799 h 5.64959 c 0.53796,0 0.97115,-0.6102 0.97115,-1.36799 0,0.75779 0.43298,1.36799 0.97094,1.36799 h 27.34269 c 0.53796,0 0.97115,-0.6102 0.97115,-1.36799 0,0.75779 0.43299,1.36799 0.97095,1.36799 h 5.64978 c 0.53796,0 0.97115,-0.6102 0.97115,-1.36799 v -0.37294 c 0,-0.75778 -0.43319,-1.3677 -0.97115,-1.3677 h -5.64978 c -0.53796,0 -0.97095,0.60992 -0.97095,1.3677 0,-0.75778 -0.43319,-1.3677 -0.97115,-1.3677 h -27.34269 c -0.53796,0 -0.97094,0.60992 -0.97094,1.3677 0,-0.75778 -0.43319,-1.3677 -0.97115,-1.3677 z m 0.40431,66.21658 c -0.52448,0 -0.94681,0.60991 -0.94681,1.3677 v 0.37293 c 0,0.75779 0.42233,1.36799 0.94681,1.36799 h 5.508 c 0.52448,0 0.94681,-0.6102 0.94681,-1.36799 0,0.75779 0.42213,1.36799 0.94661,1.36799 h 26.65743 c 0.52448,0 0.94681,-0.6102 0.94681,-1.36799 0,0.75779 0.42213,1.36799 0.94661,1.36799 h 5.50819 c 0.52448,0 0.94681,-0.6102 0.94681,-1.36799 v -0.37293 c 0,-0.75779 -0.42233,-1.3677 -0.94681,-1.3677 h -5.50819 c -0.52448,0 -0.94661,0.60991 -0.94661,1.3677 0,-0.75779 -0.42233,-1.3677 -0.94681,-1.3677 h -26.65743 c -0.52448,0 -0.94661,0.60991 -0.94661,1.3677 0,-0.75779 -0.42233,-1.3677 -0.94681,-1.3677 z M 198.899,228.27773 h 7.40156 v 66.15392 H 198.899 Z m -35.95243,0 h 7.40156 v 66.15392 h -7.40156 z m 7.40156,0.12435 h 28.48742 v 66.02957 h -28.48742 z" />
      <path
         style="fill:#a05a2c;fill-rule:evenodd;stroke:#000000;stroke-width:3.02328;stroke-linecap:round;stroke-linejoin:round;paint-order:stroke markers fill"
         d="M 645.24247,982.24115 V 864.38964 h 52.71731 52.71731 v 117.85151 117.85155 h -52.71731 -52.71731 z m 94.97829,-31.58682 c 2.16977,-2.16976 2.394,-9.13874 0.38628,-12.00516 l -1.35646,-1.93661 h -40.85512 -40.85513 l -1.35645,1.93661 c -2.00772,2.86642 -1.78349,9.8354 0.38627,12.00516 1.69221,1.69221 2.90454,1.74272 41.82531,1.74272 38.92077,0 40.1331,-0.0505 41.8253,-1.74272 z m 0,-23.52673 c 2.16977,-2.16977 2.394,-9.13874 0.38628,-12.00517 l -1.35646,-1.9366 h -40.85512 -40.85513 l -1.35645,1.9366 c -2.00772,2.86643 -1.78349,9.8354 0.38627,12.00517 1.69221,1.6922 2.90454,1.74272 41.82531,1.74272 38.92077,0 40.1331,-0.0505 41.8253,-1.74272 z m 0,-22.65538 c 2.16977,-2.16976 2.394,-9.13874 0.38628,-12.00516 l -1.35646,-1.93661 h -40.85512 -40.85513 l -1.35645,1.93661 c -2.00772,2.86642 -1.78349,9.8354 0.38627,12.00516 1.69221,1.69221 2.90454,1.74272 41.82531,1.74272 38.92077,0 40.1331,-0.0505 41.8253,-1.74272 z"
         id="path3816"
         transform="scale(0.26458333)" />
      <path
         style="fill:#784421;fill-rule:evenodd;stroke:#000000;stroke-width:3.02328;stroke-linecap:round;stroke-linejoin:round;paint-order:stroke markers fill"
         d="M 753.29117,982.24115 V 864.38964 h 12.63473 12.63473 V 982.24115 1100.0927 H 765.9259 753.29117 Z m 23.04165,-37.00887 c 2.12067,-3.02769 1.74291,-8.21247 -0.78235,-10.73773 -1.86865,-1.86865 -2.9192,-2.13879 -8.31753,-2.13879 -5.39833,0 -6.44888,0.27014 -8.31753,2.13879 -2.52526,2.52526 -2.90302,7.71004 -0.78235,10.73773 1.22869,1.75419 2.08583,1.93661 9.09988,1.93661 7.01405,0 7.87119,-0.18242 9.09988,-1.93661 z m -0.78235,-20.24348 c 2.52526,-2.52526 2.90302,-7.71004 0.78235,-10.73773 -1.22869,-1.75419 -2.08583,-1.9366 -9.09988,-1.9366 -7.01405,0 -7.87119,0.18241 -9.09988,1.9366 -2.12067,3.02769 -1.74291,8.21247 0.78235,10.73773 1.86865,1.86865 2.9192,2.1388 8.31753,2.1388 5.39833,0 6.44888,-0.27015 8.31753,-2.1388 z m 0,-22.65537 c 2.52526,-2.52526 2.90302,-7.71004 0.78235,-10.73773 -1.22869,-1.75419 -2.08583,-1.93661 -9.09988,-1.93661 -7.01405,0 -7.87119,0.18242 -9.09988,1.93661 -2.12067,3.02769 -1.74291,8.21247 0.78235,10.73773 1.86865,1.86865 2.9192,2.13879 8.31753,2.13879 5.39833,0 6.44888,-0.27014 8.31753,-2.13879 z"
         id="path3892"
         transform="scale(0.26458333)" />
      <path
         style="fill:#784421;fill-rule:evenodd;stroke:#000000;stroke-width:3.02328;stroke-linecap:round;stroke-linejoin:round;paint-order:stroke markers fill"
         d="M 617.35893,982.24115 V 864.38964 h 12.63473 12.63473 v 117.85151 117.85155 h -12.63473 -12.63473 z m 19.6884,-36.90646 c 1.11277,-1.22959 1.65993,-3.12196 1.65993,-5.74084 0,-5.71491 -2.22074,-7.23809 -10.55286,-7.23809 -8.06941,0 -9.92411,1.41209 -9.92411,7.55579 0,6.23541 1.41104,7.25734 10.02065,7.25734 6.14849,0 7.36626,-0.25393 8.79639,-1.8342 z m -0.39716,-19.87283 c 2.6778,-2.16834 2.90168,-8.54573 0.39716,-11.31319 -1.42455,-1.57411 -2.65042,-1.8342 -8.64499,-1.8342 -8.65161,0 -10.17205,1.03724 -10.17205,6.93939 0,6.55153 1.55325,7.69764 10.57763,7.80495 4.46936,0.0531 6.25303,-0.31007 7.84225,-1.59695 z m 0,-22.65537 c 2.6778,-2.16835 2.90168,-8.54573 0.39716,-11.31319 -1.42455,-1.57411 -2.65042,-1.83421 -8.64499,-1.83421 -8.65161,0 -10.17205,1.03725 -10.17205,6.9394 0,6.55153 1.55325,7.69763 10.57763,7.80494 4.46936,0.0532 6.25303,-0.31007 7.84225,-1.59694 z"
         id="path3931"
         transform="scale(0.26458333)" />
      <path
         style="fill:#784421;fill-rule:evenodd;stroke:#000000;stroke-width:3.02328;stroke-linecap:round;stroke-linejoin:round;paint-order:stroke markers fill"
         d="m 617.14109,860.8344 c -0.89146,-0.51922 -1.52488,-1.92644 -1.52488,-3.38768 0,-5.24381 0.0294,-5.25613 12.55368,-5.25613 12.41344,0 13.58714,0.38603 13.58714,4.46884 0,4.4486 -1.7007,5.11883 -12.91481,5.08963 -5.59694,-0.0146 -10.86244,-0.42617 -11.70113,-0.91466 z"
         id="path4007"
         transform="scale(0.26458333)" />
      <path
         style="fill:#784421;fill-rule:evenodd;stroke:#000000;stroke-width:3.02328;stroke-linecap:round;stroke-linejoin:round;paint-order:stroke markers fill"
         d="m 756.55877,860.8344 c -0.89145,-0.51922 -1.52488,-1.92644 -1.52488,-3.38768 0,-5.24381 0.0294,-5.25613 12.55368,-5.25613 12.41344,0 13.58714,0.38603 13.58714,4.46884 0,4.4486 -1.7007,5.11883 -12.91481,5.08963 -5.59693,-0.0146 -10.86244,-0.42617 -11.70113,-0.91466 z"
         id="path4046"
         transform="scale(0.26458333)" />
      <path
         style="fill:#784421;fill-rule:evenodd;stroke:#000000;stroke-width:3.02328;stroke-linecap:round;stroke-linejoin:round;paint-order:stroke markers fill"
         d="m 754.213,1110.6098 c -0.56885,-0.6854 -0.91095,-2.744 -0.76021,-4.5746 l 0.27406,-3.3285 11.20617,-0.2446 c 7.51873,-0.1641 11.60456,0.086 12.41689,0.7603 1.42901,1.1859 1.57952,4.5736 0.3087,6.9482 -0.817,1.5266 -1.91566,1.6854 -11.65667,1.6854 -8.26345,0 -10.99424,-0.2886 -11.78894,-1.2462 z"
         id="path4085"
         transform="scale(0.26458333)" />
      <path
         style="fill:#784421;fill-rule:evenodd;stroke:#000000;stroke-width:3.02328;stroke-linecap:round;stroke-linejoin:round;paint-order:stroke markers fill"
         d="m 618.40456,1110.8104 c -1.11612,-1.1161 -1.3884,-4.8895 -0.51672,-7.161 0.44385,-1.1567 2.30747,-1.3783 11.58909,-1.3783 7.44056,0 11.40239,0.3422 12.10582,1.0456 1.28458,1.2846 1.35389,4.5925 0.14362,6.8539 -0.81653,1.5257 -1.9149,1.6854 -11.5891,1.6854 -7.15035,0 -11.03311,-0.346 -11.73271,-1.0456 z"
         id="path4124"
         transform="scale(0.26458333)" />
      <path
         style="fill:#784421;fill-rule:evenodd;stroke:#000000;stroke-width:3.02328;stroke-linecap:round;stroke-linejoin:round;paint-order:stroke markers fill"
         d="m 645.89599,860.8344 c -1.5274,-0.88962 -2.0315,-4.56698 -0.99598,-7.2655 0.47419,-1.23571 5.95517,-1.37831 52.97872,-1.37831 39.63249,0 52.70534,0.25553 53.49545,1.04563 1.48046,1.48047 1.29678,5.54962 -0.32365,7.17006 -1.2143,1.2143 -7.15622,1.36628 -52.49947,1.34278 -33.10481,-0.0172 -51.66777,-0.33961 -52.65507,-0.91466 z"
         id="path4200"
         transform="scale(0.26458333)" />
      <path
         style="fill:#784421;fill-rule:evenodd;stroke:#000000;stroke-width:3.02328;stroke-linecap:round;stroke-linejoin:round;paint-order:stroke markers fill"
         d="m 646.2881,1110.8104 c -1.41737,-1.4174 -1.32521,-6.3512 0.14137,-7.5684 0.85977,-0.7135 15.20683,-0.9231 52.04291,-0.7602 l 50.8559,0.2249 0.83026,2.3612 c 0.5637,1.603 0.50646,3.0718 -0.17827,4.5746 l -1.00854,2.2135 h -50.819 c -38.36407,0 -51.07527,-0.2562 -51.86463,-1.0456 z"
         id="path4239"
         transform="scale(0.26458333)" />
      <path
         style="fill:#2b1100;fill-rule:evenodd;stroke:#000000;stroke-width:3.02328;stroke-linecap:round;stroke-linejoin:round;paint-order:stroke markers fill"
         d="m 658.48715,902.55523 c -1.35438,-1.35437 -1.35438,-7.88205 0,-9.23642 1.50468,-1.50468 78.31194,-1.50468 79.81662,0 1.35438,1.35437 1.35438,7.88205 0,9.23642 -1.50468,1.50468 -78.31194,1.50468 -79.81662,0 z"
         id="path4315"
         transform="scale(0.26458333)" />
      <path
         style="fill:#2b1100;fill-rule:evenodd;stroke:#000000;stroke-width:3.02328;stroke-linecap:round;stroke-linejoin:round;paint-order:stroke markers fill"
         d="m 760.43633,900.81251 c -1.11612,-1.11612 -1.3884,-4.88948 -0.51673,-7.16103 0.77326,-2.01509 13.85342,-2.01509 14.62668,0 0.87167,2.27155 0.59939,6.04491 -0.51673,7.16103 -1.37721,1.37721 -12.21601,1.37721 -13.59322,0 z"
         id="path4354"
         transform="scale(0.26458333)" />
      <path
         style="fill:#2b1100;fill-rule:evenodd;stroke:#000000;stroke-width:3.02328;stroke-linecap:round;stroke-linejoin:round;paint-order:stroke markers fill"
         d="m 760.43633,923.46788 c -1.11612,-1.11612 -1.3884,-4.88948 -0.51673,-7.16102 0.77326,-2.01509 13.85342,-2.01509 14.62668,0 0.87167,2.27154 0.59939,6.0449 -0.51673,7.16102 -1.37721,1.37722 -12.21601,1.37722 -13.59322,0 z"
         id="path4393"
         transform="scale(0.26458333)" />
      <path
         style="fill:#2b1100;fill-rule:evenodd;stroke:#000000;stroke-width:3.02328;stroke-linecap:round;stroke-linejoin:round;paint-order:stroke markers fill"
         d="m 759.9196,943.1765 c -0.87167,-2.27154 -0.59939,-6.04491 0.51673,-7.16103 1.37721,-1.37721 12.21601,-1.37721 13.59322,0 1.11612,1.11612 1.3884,4.88949 0.51673,7.16103 -0.77326,2.01509 -13.85342,2.01509 -14.62668,0 z"
         id="path4432"
         transform="scale(0.26458333)" />
      <path
         style="fill:#2b1100;fill-rule:evenodd;stroke:#000000;stroke-width:3.02328;stroke-linecap:round;stroke-linejoin:round;paint-order:stroke markers fill"
         d="m 658.48715,925.2106 c -1.35438,-1.35437 -1.35438,-7.88204 0,-9.23642 1.50468,-1.50468 78.31194,-1.50468 79.81662,0 1.35438,1.35438 1.35438,7.88205 0,9.23642 -1.50468,1.50469 -78.31194,1.50469 -79.81662,0 z"
         id="path4471"
         transform="scale(0.26458333)" />
      <path
         style="fill:#2b1100;fill-rule:evenodd;stroke:#000000;stroke-width:3.02328;stroke-linecap:round;stroke-linejoin:round;paint-order:stroke markers fill"
         d="m 657.8296,947.72514 c -0.28407,-1.1318 -0.38957,-3.38645 -0.23445,-5.01032 l 0.28204,-2.9525 h 40.51827 40.51826 l 0.28204,2.9525 c 0.15513,1.62387 0.0496,3.87852 -0.23444,5.01032 l -0.51648,2.05783 h -40.04938 -40.04938 z"
         id="path4510"
         transform="scale(0.26458333)" />
      <path
         style="fill:#2b1100;fill-rule:evenodd;stroke:#000000;stroke-width:3.02328;stroke-linecap:round;stroke-linejoin:round;paint-order:stroke markers fill"
         d="m 621.21822,899.70766 c -1.05668,-1.6127 -1.20698,-2.7567 -0.60099,-4.57464 0.79276,-2.37829 0.93818,-2.42416 7.68534,-2.42416 6.6925,0 6.89959,0.0634 7.70765,2.36113 0.5638,1.60315 0.5066,3.07172 -0.17818,4.57464 -0.94019,2.06351 -1.42179,2.21351 -7.10665,2.21351 -5.52202,0 -6.23124,-0.20316 -7.50717,-2.15048 z"
         id="path4549"
         transform="scale(0.26458333)" />
      <path
         style="fill:#2b1100;fill-rule:evenodd;stroke:#000000;stroke-width:3.02328;stroke-linecap:round;stroke-linejoin:round;paint-order:stroke markers fill"
         d="m 621.21822,922.36303 c -1.05668,-1.6127 -1.20698,-2.75669 -0.60099,-4.57464 0.79276,-2.37829 0.93818,-2.42416 7.68534,-2.42416 6.6925,0 6.89959,0.0634 7.70765,2.36113 0.5638,1.60316 0.5066,3.07173 -0.17818,4.57465 -0.94019,2.0635 -1.42179,2.21351 -7.10665,2.21351 -5.52202,0 -6.23124,-0.20317 -7.50717,-2.15049 z"
         id="path4588"
         transform="scale(0.26458333)" />
      <path
         style="fill:#2b1100;fill-rule:evenodd;stroke:#000000;stroke-width:3.02328;stroke-linecap:round;stroke-linejoin:round;paint-order:stroke markers fill"
         d="m 620.74348,942.15857 c -0.70534,-1.81909 -0.63962,-2.92094 0.27282,-4.57465 1.11489,-2.02063 1.67131,-2.1784 7.68275,-2.1784 6.26141,0 6.50892,0.0799 7.31117,2.36114 0.5638,1.60315 0.5066,3.07172 -0.17818,4.57464 -0.95034,2.08578 -1.38795,2.21351 -7.58399,2.21351 -6.36707,0 -6.6049,-0.0759 -7.50457,-2.39624 z"
         id="path4627"
         transform="scale(0.26458333)" />
    </g>
  </g>
</svg>
