<?xml version="1.0" encoding="UTF-8" standalone="no"?>
<!-- Created with Inkscape (http://www.inkscape.org/) -->

<svg
   width="210mm"
   height="297mm"
   viewBox="0 0 210 297"
   version="1.1"
   id="svg5"
   inkscape:version="1.1.1 (3bf5ae0d25, 2021-09-20)"
   sodipodi:docname="pwm waveform.svg"
   xmlns:inkscape="http://www.inkscape.org/namespaces/inkscape"
   xmlns:sodipodi="http://sodipodi.sourceforge.net/DTD/sodipodi-0.dtd"
   xmlns="http://www.w3.org/2000/svg"
   xmlns:svg="http://www.w3.org/2000/svg">
  <sodipodi:namedview
     id="namedview7"
     pagecolor="#ffffff"
     bordercolor="#666666"
     borderopacity="1.0"
     inkscape:pageshadow="2"
     inkscape:pageopacity="0.0"
     inkscape:pagecheckerboard="0"
     inkscape:document-units="mm"
     showgrid="false"
     inkscape:zoom="0.62270623"
     inkscape:cx="396.65574"
     inkscape:cy="519.50661"
     inkscape:window-width="1680"
     inkscape:window-height="956"
     inkscape:window-x="-11"
     inkscape:window-y="-11"
     inkscape:window-maximized="1"
     inkscape:current-layer="layer4" />
  <defs
     id="defs2" />
  <g
     inkscape:label="Layer 1"
     inkscape:groupmode="layer"
     id="layer1">
    <path
       id="ellipse1758"
       style="fill:none;stroke:#000000;stroke-width:0.676605;stroke-linecap:round;stroke-linejoin:round;stroke-opacity:0.955017;paint-order:stroke markers fill"
       d="m 51.976246,10.844568 a 1.3751636,3.6546384 20.843677 0 1 -2.561581,3.450329 1.3751636,3.6546384 20.843677 0 1 -0.351601,-3.450329 1.3751636,3.6546384 20.843677 0 1 2.561585,-3.4503312 1.3751636,3.6546384 20.843677 0 1 0.351597,3.4503312 z m 10.634062,0.781288 a 1.3751636,3.6546384 20.843677 0 1 -2.561581,3.45033 1.3751636,3.6546384 20.843677 0 1 -0.351601,-3.45033 1.3751636,3.6546384 20.843677 0 1 2.561586,-3.4503312 1.3751636,3.6546384 20.843677 0 1 0.351596,3.4503312 z m -5.129373,16.016435 a 1.3751636,3.6546384 20.843677 0 1 -2.561582,3.450332 1.3751636,3.6546384 20.843677 0 1 -0.3516,-3.450332 1.3751636,3.6546384 20.843677 0 1 2.561586,-3.450333 1.3751636,3.6546384 20.843677 0 1 0.351596,3.450333 z M 47.09709,26.0797 a 1.3751636,3.6546384 20.843677 0 1 -2.561582,3.450333 1.3751636,3.6546384 20.843677 0 1 -0.3516,-3.450333 1.3751636,3.6546384 20.843677 0 1 2.561586,-3.450333 1.3751636,3.6546384 20.843677 0 1 0.351596,3.450333 z M 82.102601,4.8217338 c 1.186694,0 2.142103,1.748414 2.142106,3.920557 l -2e-6,29.9552422 H 100.61 c 1.18669,0 2.14189,1.7488 2.14189,3.92094 v 1.88189 c 0,2.17213 -0.9552,3.92093 -2.14189,3.92093 H 82.102602 81.074483 c -1.186698,0 -2.14211,-1.7488 -2.142107,-3.92093 l 10e-7,-1.88189 -3e-6,-27.132228 h -6.254792 c -1.566419,0 -2.827375,-2.308081 -2.827374,-5.175273 l -10e-7,-0.3139642 c 10e-7,-2.867194 1.260959,-5.175274 2.827378,-5.175274 h 6.597635 c 0.338934,0 0.663267,0.108683 0.963929,0.3071 0.256449,-0.197854 0.538657,-0.3071 0.835333,-0.3071 z M 62.730947,25.93724 62.547141,26.436747 c -0.509147,1.383644 -1.658542,2.497546 -2.577111,2.497546 -0.918572,0 -1.248182,-1.113902 -0.739035,-2.497546 l 0.183806,-0.499507 c 0.509156,-1.383644 1.658538,-2.497537 2.577111,-2.497537 0.918572,0 1.248195,1.113893 0.739039,2.497537 z m 2.670637,-7.257656 -0.183804,0.499501 c -0.509155,1.383643 -1.658546,2.497549 -2.577118,2.497549 -0.918573,0 -1.248187,-1.113906 -0.739032,-2.497549 l 0.183805,-0.499501 c 0.509147,-1.383644 1.65854,-2.497543 2.577112,-2.497543 0.918573,0 1.248185,1.113899 0.739037,2.497543 z m 3.128465,-8.501844 -0.183806,0.499506 c -0.509142,1.383638 -1.658532,2.497543 -2.577105,2.497543 -0.918572,0 -1.248186,-1.113905 -0.739045,-2.497543 l 0.183806,-0.499506 c 0.50915,-1.3836382 1.658536,-2.4975412 2.577108,-2.4975412 0.918572,0 1.248192,1.113903 0.739042,2.4975412 z m -16.71958,16.540795 -0.183806,0.499507 c -0.509145,1.383641 -1.658542,2.497551 -2.577114,2.497551 -0.918573,0 -1.248181,-1.11391 -0.739036,-2.497551 l 0.183807,-0.499507 c 0.509161,-1.38365 1.658536,-2.497543 2.577112,-2.497543 0.918568,0 1.248199,1.113893 0.739037,2.497543 z m 2.670644,-7.257662 -0.183805,0.499501 c -0.509151,1.383643 -1.658542,2.497549 -2.577114,2.497549 -0.918573,0 -1.248187,-1.113906 -0.739035,-2.497549 l 0.183804,-0.499501 c 0.509143,-1.383644 1.658532,-2.497543 2.577108,-2.497543 0.918569,0 1.248185,1.113899 0.739042,2.497543 z m 3.12846,-8.501844 -0.183806,0.499506 c -0.509141,1.383638 -1.658528,2.497543 -2.5771,2.497543 -0.918573,0 -1.248191,-1.113905 -0.73905,-2.497543 l 0.183806,-0.499506 c 0.509146,-1.3836382 1.658536,-2.4975412 2.577112,-2.4975412 0.918569,0 1.248184,1.113903 0.739038,2.4975412 z m -17.460704,15.759506 -0.183806,0.499507 c -0.509142,1.383641 -1.658534,2.497551 -2.577103,2.497551 -0.918572,0 -1.248176,-1.11391 -0.739031,-2.497551 l 0.183806,-0.499507 c 0.509158,-1.38365 1.658532,-2.497543 2.577105,-2.497543 0.91856,0 1.248182,1.113893 0.739025,2.497543 z m 2.670639,-7.257662 -0.183804,0.499501 c -0.509152,1.383643 -1.658538,2.497549 -2.577103,2.497549 -0.918568,0 -1.248182,-1.113906 -0.739031,-2.497549 l 0.183804,-0.499501 c 0.509148,-1.383644 1.658536,-2.497543 2.577105,-2.497543 0.91856,0 1.248177,1.113899 0.739029,2.497543 z m 3.128464,-8.501844 -0.183805,0.499506 c -0.509142,1.383638 -1.658532,2.497543 -2.577093,2.497543 -0.918568,0 -1.248183,-1.113905 -0.739045,-2.497543 l 0.183806,-0.499506 c 0.509141,-1.3836382 1.658535,-2.4975412 2.577104,-2.4975412 0.918564,0 1.248171,1.113903 0.739029,2.4975412 z M 27.094896,6.3900678 c -1.186696,0 -2.142106,1.748413 -2.142106,3.9205572 l -1e-6,29.955238 H 8.5875034 c -1.186696,0 -2.141898,1.74879 -2.1418978,3.92094 v 1.88188 c 1.4e-6,2.17214 0.9552018,3.92093 2.1418978,3.92093 h 18.5073936 1.028119 c 1.186694,0 2.142106,-1.74879 2.142103,-3.92093 l -2e-6,-1.88188 6e-6,-27.132229 h 6.254788 c 1.566419,0 2.827379,-2.308075 2.82738,-5.175267 v -0.313966 c 1e-6,-2.8671942 -1.260964,-5.1752732 -2.827378,-5.1752732 h -6.597639 c -0.338935,0 -0.663266,0.108682 -0.963924,0.307098 -0.25645,-0.197853 -0.538663,-0.307098 -0.835334,-0.307098 z" />
  </g>
  <g
     inkscape:groupmode="layer"
     id="layer2"
     inkscape:label="Layer 2">
    <path
       id="path822"
       style="fill:#000000;stroke:#000000;stroke-width:0.676605;stroke-linecap:round;stroke-linejoin:round;stroke-opacity:0.955017;paint-order:stroke markers fill"
       d="m 154.80028,7.8703191 a 1.3751636,3.6546384 20.843677 0 1 -2.56158,3.4503289 1.3751636,3.6546384 20.843677 0 1 -0.3516,-3.4503289 1.3751636,3.6546384 20.843677 0 1 2.56158,-3.4503312 1.3751636,3.6546384 20.843677 0 1 0.3516,3.4503312 z m 10.63406,0.781288 a 1.3751636,3.6546384 20.843677 0 1 -2.56158,3.4503299 1.3751636,3.6546384 20.843677 0 1 -0.3516,-3.4503299 1.3751636,3.6546384 20.843677 0 1 2.56159,-3.4503312 1.3751636,3.6546384 20.843677 0 1 0.35159,3.4503312 z m -5.12937,16.0164349 a 1.3751636,3.6546384 20.843677 0 1 -2.56158,3.450332 1.3751636,3.6546384 20.843677 0 1 -0.3516,-3.450332 1.3751636,3.6546384 20.843677 0 1 2.56158,-3.450333 1.3751636,3.6546384 20.843677 0 1 0.3516,3.450333 z m -10.38385,-1.562591 a 1.3751636,3.6546384 20.843677 0 1 -2.56158,3.450333 1.3751636,3.6546384 20.843677 0 1 -0.3516,-3.450333 1.3751636,3.6546384 20.843677 0 1 2.56159,-3.450333 1.3751636,3.6546384 20.843677 0 1 0.35159,3.450333 z M 184.92664,1.8474849 c 1.18669,0 2.1421,1.748414 2.1421,3.920557 l 0,29.9552421 h 16.36529 c 1.18669,0 2.14189,1.7488 2.14189,3.92094 v 1.88189 c 0,2.17213 -0.9552,3.92093 -2.14189,3.92093 h -18.50739 -1.02812 c -1.1867,0 -2.14211,-1.7488 -2.14211,-3.92093 l 0,-1.88189 0,-27.132228 h -6.25479 c -1.56642,0 -2.82738,-2.308081 -2.82738,-5.1752729 l 0,-0.3139642 c 0,-2.867194 1.26096,-5.175274 2.82738,-5.175274 h 6.59763 c 0.33894,0 0.66327,0.108683 0.96393,0.3071 0.25645,-0.197854 0.53866,-0.3071 0.83534,-0.3071 z m -19.37166,21.1155061 -0.1838,0.499507 c -0.50915,1.383644 -1.65855,2.497546 -2.57712,2.497546 -0.91857,0 -1.24818,-1.113902 -0.73903,-2.497546 l 0.18381,-0.499507 c 0.50915,-1.383644 1.65853,-2.497537 2.57711,-2.497537 0.91857,0 1.24819,1.113893 0.73904,2.497537 z m 2.67064,-7.257656 -0.18381,0.499501 c -0.50915,1.383643 -1.65854,2.497549 -2.57711,2.497549 -0.91858,0 -1.24819,-1.113906 -0.73904,-2.497549 l 0.18381,-0.499501 c 0.50915,-1.383644 1.65854,-2.497543 2.57711,-2.497543 0.91857,0 1.24819,1.113899 0.73904,2.497543 z m 3.12846,-8.5018439 -0.1838,0.499506 c -0.50914,1.383638 -1.65853,2.4975429 -2.57711,2.4975429 -0.91857,0 -1.24818,-1.1139049 -0.73904,-2.4975429 l 0.1838,-0.499506 c 0.50915,-1.3836382 1.65854,-2.4975412 2.57711,-2.4975412 0.91857,0 1.24819,1.113903 0.73904,2.4975412 z m -16.71958,16.5407949 -0.1838,0.499507 c -0.50915,1.383641 -1.65854,2.497551 -2.57712,2.497551 -0.91857,0 -1.24818,-1.11391 -0.73903,-2.497551 l 0.1838,-0.499507 c 0.50917,-1.38365 1.65854,-2.497543 2.57712,-2.497543 0.91856,0 1.2482,1.113893 0.73903,2.497543 z m 2.67065,-7.257662 -0.18381,0.499501 c -0.50915,1.383643 -1.65854,2.497549 -2.57711,2.497549 -0.91857,0 -1.24819,-1.113906 -0.73904,-2.497549 l 0.18381,-0.499501 c 0.50914,-1.383644 1.65853,-2.497543 2.57711,-2.497543 0.91856,0 1.24818,1.113899 0.73904,2.497543 z m 3.12846,-8.5018439 -0.18381,0.499506 c -0.50914,1.383638 -1.65853,2.4975429 -2.5771,2.4975429 -0.91857,0 -1.24819,-1.1139049 -0.73905,-2.4975429 l 0.18381,-0.499506 c 0.50914,-1.3836382 1.65853,-2.4975412 2.57711,-2.4975412 0.91857,0 1.24818,1.113903 0.73904,2.4975412 z m -17.46071,15.7595059 -0.1838,0.499507 c -0.50914,1.383641 -1.65854,2.497551 -2.57711,2.497551 -0.91857,0 -1.24817,-1.11391 -0.73903,-2.497551 l 0.18381,-0.499507 c 0.50916,-1.38365 1.65853,-2.497543 2.5771,-2.497543 0.91856,0 1.24819,1.113893 0.73903,2.497543 z m 2.67064,-7.257662 -0.1838,0.499501 c -0.50915,1.383643 -1.65854,2.497549 -2.5771,2.497549 -0.91857,0 -1.24819,-1.113906 -0.73904,-2.497549 l 0.18381,-0.499501 c 0.50915,-1.383644 1.65853,-2.497543 2.5771,-2.497543 0.91856,0 1.24818,1.113899 0.73903,2.497543 z m 3.12847,-8.5018439 -0.18381,0.499506 c -0.50914,1.383638 -1.65853,2.4975429 -2.57709,2.4975429 -0.91857,0 -1.24818,-1.1139049 -0.73905,-2.4975429 l 0.18381,-0.499506 c 0.50914,-1.3836382 1.65853,-2.4975412 2.5771,-2.4975412 0.91857,0 1.24817,1.113903 0.73903,2.4975412 z M 129.91893,3.4158189 c -1.1867,0 -2.14211,1.748413 -2.14211,3.9205572 l 0,29.9552379 h -16.36528 c -1.1867,0 -2.1419,1.74879 -2.1419,3.92094 v 1.88188 c 0,2.17214 0.9552,3.92093 2.1419,3.92093 h 18.50739 1.02812 c 1.18669,0 2.14211,-1.74879 2.1421,-3.92093 l 0,-1.88188 1e-5,-27.132229 h 6.25479 c 1.56641,0 2.82737,-2.308075 2.82738,-5.1752669 v -0.313966 c 0,-2.8671942 -1.26097,-5.1752732 -2.82738,-5.1752732 h -6.59764 c -0.33894,0 -0.66327,0.108682 -0.96393,0.307098 -0.25645,-0.197853 -0.53866,-0.307098 -0.83533,-0.307098 z" />
  </g>
  <g
     inkscape:groupmode="layer"
     id="layer3"
     inkscape:label="Layer 3">
    <path
       id="path842"
       style="fill:#ffffff;stroke:#000000;stroke-width:1.677;stroke-linecap:round;stroke-linejoin:round;stroke-miterlimit:4;stroke-dasharray:none;stroke-opacity:0.955017;paint-order:stroke markers fill"
       d="m 49.851783,241.13642 a 1.3751636,3.6546384 20.843677 0 1 -2.561581,3.45033 1.3751636,3.6546384 20.843677 0 1 -0.351601,-3.45033 1.3751636,3.6546384 20.843677 0 1 2.561585,-3.45033 1.3751636,3.6546384 20.843677 0 1 0.351597,3.45033 z m 10.634062,0.78129 a 1.3751636,3.6546384 20.843677 0 1 -2.561581,3.45033 1.3751636,3.6546384 20.843677 0 1 -0.351601,-3.45033 1.3751636,3.6546384 20.843677 0 1 2.561586,-3.45033 1.3751636,3.6546384 20.843677 0 1 0.351596,3.45033 z m -5.129373,16.01643 a 1.3751636,3.6546384 20.843677 0 1 -2.561582,3.45034 1.3751636,3.6546384 20.843677 0 1 -0.3516,-3.45034 1.3751636,3.6546384 20.843677 0 1 2.561586,-3.45033 1.3751636,3.6546384 20.843677 0 1 0.351596,3.45033 z m -10.383845,-1.56259 a 1.3751636,3.6546384 20.843677 0 1 -2.561582,3.45034 1.3751636,3.6546384 20.843677 0 1 -0.3516,-3.45034 1.3751636,3.6546384 20.843677 0 1 2.561586,-3.45033 1.3751636,3.6546384 20.843677 0 1 0.351596,3.45033 z m 35.005511,-21.25796 c 1.186694,0 2.142103,1.74841 2.142106,3.92055 l -2e-6,29.95525 h 16.365295 c 1.18669,0 2.141883,1.7488 2.141883,3.92094 v 1.88189 c 0,2.17213 -0.955193,3.92093 -2.141883,3.92093 H 79.978139 78.95002 c -1.186698,0 -2.14211,-1.7488 -2.142107,-3.92093 l 10e-7,-1.88189 -3e-6,-27.13223 h -6.254792 c -1.566419,0 -2.827375,-2.30808 -2.827374,-5.17528 l -10e-7,-0.31396 c 10e-7,-2.86719 1.260959,-5.17527 2.827378,-5.17527 h 6.597635 c 0.338934,0 0.663267,0.10868 0.963929,0.3071 0.256449,-0.19786 0.538657,-0.3071 0.835333,-0.3071 z m -19.371654,21.1155 -0.183806,0.49951 c -0.509147,1.38364 -1.658542,2.49755 -2.577111,2.49755 -0.918572,0 -1.248182,-1.11391 -0.739035,-2.49755 l 0.183806,-0.49951 c 0.509156,-1.38364 1.658538,-2.49753 2.577111,-2.49753 0.918572,0 1.248195,1.11389 0.739039,2.49753 z m 2.670637,-7.25765 -0.183804,0.4995 c -0.509155,1.38364 -1.658546,2.49755 -2.577118,2.49755 -0.918573,0 -1.248187,-1.11391 -0.739032,-2.49755 l 0.183805,-0.4995 c 0.509147,-1.38365 1.65854,-2.49755 2.577112,-2.49755 0.918573,0 1.248185,1.1139 0.739037,2.49755 z m 3.128465,-8.50185 -0.183806,0.49951 c -0.509142,1.38364 -1.658532,2.49754 -2.577105,2.49754 -0.918572,0 -1.248186,-1.1139 -0.739045,-2.49754 l 0.183806,-0.49951 c 0.50915,-1.38364 1.658536,-2.49754 2.577108,-2.49754 0.918572,0 1.248192,1.1139 0.739042,2.49754 z m -16.71958,16.5408 -0.183806,0.4995 c -0.509145,1.38365 -1.658542,2.49756 -2.577114,2.49756 -0.918573,0 -1.248181,-1.11391 -0.739036,-2.49756 l 0.183807,-0.4995 c 0.509161,-1.38365 1.658536,-2.49755 2.577112,-2.49755 0.918568,0 1.248199,1.1139 0.739037,2.49755 z m 2.670644,-7.25766 -0.183805,0.4995 c -0.509151,1.38364 -1.658542,2.49755 -2.577114,2.49755 -0.918573,0 -1.248187,-1.11391 -0.739035,-2.49755 l 0.183804,-0.4995 c 0.509143,-1.38365 1.658532,-2.49755 2.577108,-2.49755 0.918569,0 1.248185,1.1139 0.739042,2.49755 z m 3.12846,-8.50185 -0.183806,0.49951 c -0.509141,1.38364 -1.658528,2.49754 -2.5771,2.49754 -0.918573,0 -1.248191,-1.1139 -0.73905,-2.49754 l 0.183806,-0.49951 c 0.509146,-1.38364 1.658536,-2.49754 2.577112,-2.49754 0.918569,0 1.248184,1.1139 0.739038,2.49754 z m -17.460704,15.75951 -0.183806,0.4995 c -0.509142,1.38365 -1.658534,2.49756 -2.577103,2.49756 -0.918572,0 -1.248176,-1.11391 -0.739031,-2.49756 l 0.183806,-0.4995 c 0.509158,-1.38365 1.658532,-2.49755 2.577105,-2.49755 0.91856,0 1.248182,1.1139 0.739025,2.49755 z m 2.670639,-7.25766 -0.183804,0.4995 c -0.509152,1.38364 -1.658538,2.49755 -2.577103,2.49755 -0.918568,0 -1.248182,-1.11391 -0.739031,-2.49755 l 0.183804,-0.4995 c 0.509148,-1.38365 1.658536,-2.49755 2.577105,-2.49755 0.91856,0 1.248177,1.1139 0.739029,2.49755 z m 3.128464,-8.50185 -0.183805,0.49951 c -0.509142,1.38364 -1.658532,2.49754 -2.577093,2.49754 -0.918568,0 -1.248183,-1.1139 -0.739045,-2.49754 l 0.183806,-0.49951 c 0.509141,-1.38364 1.658535,-2.49754 2.577104,-2.49754 0.918564,0 1.248171,1.1139 0.739029,2.49754 z m -18.853076,-4.56896 c -1.186696,0 -2.142106,1.74841 -2.142106,3.92056 l -1e-6,29.95524 H 6.4630399 c -1.186696,0 -2.141898,1.74879 -2.1418978,3.92094 v 1.88188 c 1.4e-6,2.17214 0.9552018,3.92093 2.1418978,3.92093 h 18.5073941 1.028119 c 1.186694,0 2.142106,-1.74879 2.142103,-3.92093 l -2e-6,-1.88188 6e-6,-27.13223 h 6.254788 c 1.566419,0 2.827379,-2.30808 2.82738,-5.17527 v -0.31397 c 10e-7,-2.86719 -1.260964,-5.17527 -2.827378,-5.17527 h -6.597639 c -0.338935,0 -0.663266,0.10868 -0.963924,0.3071 -0.25645,-0.19785 -0.538663,-0.3071 -0.835334,-0.3071 z" />
  </g>
  <g
     inkscape:groupmode="layer"
     id="layer4"
     inkscape:label="Layer 4">
    <path
       id="path862"
       style="fill:#800080;stroke:#000000;stroke-width:0.676605;stroke-linecap:round;stroke-linejoin:round;stroke-opacity:0.955017;paint-order:stroke markers fill"
       d="m 157.77453,239.86173 a 1.3751636,3.6546384 20.843677 0 1 -2.56158,3.45033 1.3751636,3.6546384 20.843677 0 1 -0.3516,-3.45033 1.3751636,3.6546384 20.843677 0 1 2.56158,-3.45033 1.3751636,3.6546384 20.843677 0 1 0.3516,3.45033 z m 10.63406,0.78129 a 1.3751636,3.6546384 20.843677 0 1 -2.56158,3.45033 1.3751636,3.6546384 20.843677 0 1 -0.3516,-3.45033 1.3751636,3.6546384 20.843677 0 1 2.56159,-3.45033 1.3751636,3.6546384 20.843677 0 1 0.35159,3.45033 z m -5.12937,16.01644 a 1.3751636,3.6546384 20.843677 0 1 -2.56158,3.45033 1.3751636,3.6546384 20.843677 0 1 -0.3516,-3.45033 1.3751636,3.6546384 20.843677 0 1 2.56158,-3.45034 1.3751636,3.6546384 20.843677 0 1 0.3516,3.45034 z m -10.38385,-1.56259 a 1.3751636,3.6546384 20.843677 0 1 -2.56158,3.45033 1.3751636,3.6546384 20.843677 0 1 -0.3516,-3.45033 1.3751636,3.6546384 20.843677 0 1 2.56159,-3.45034 1.3751636,3.6546384 20.843677 0 1 0.35159,3.45034 z m 35.00551,-21.25797 c 1.1867,0 2.14211,1.74841 2.14211,3.92056 l 0,29.95524 h 16.36529 c 1.18669,0 2.14189,1.7488 2.14189,3.92094 v 1.88189 c 0,2.17213 -0.9552,3.92093 -2.14189,3.92093 h -18.50739 -1.02812 c -1.1867,0 -2.14211,-1.7488 -2.14211,-3.92093 l 0,-1.88189 0,-27.13223 h -6.25479 c -1.56642,0 -2.82738,-2.30808 -2.82738,-5.17527 l 0,-0.31397 c 0,-2.86719 1.26096,-5.17527 2.82738,-5.17527 h 6.59763 c 0.33894,0 0.66327,0.10868 0.96393,0.3071 0.25645,-0.19785 0.53866,-0.3071 0.83534,-0.3071 z m -19.37165,21.11551 -0.18381,0.4995 c -0.50914,1.38365 -1.65854,2.49755 -2.57711,2.49755 -0.91857,0 -1.24818,-1.1139 -0.73903,-2.49755 l 0.1838,-0.4995 c 0.50916,-1.38365 1.65854,-2.49754 2.57712,-2.49754 0.91857,0 1.24819,1.11389 0.73903,2.49754 z m 2.67064,-7.25766 -0.18381,0.4995 c -0.50915,1.38364 -1.65854,2.49755 -2.57711,2.49755 -0.91858,0 -1.24819,-1.11391 -0.73904,-2.49755 l 0.18381,-0.4995 c 0.50915,-1.38364 1.65854,-2.49754 2.57711,-2.49754 0.91857,0 1.24819,1.1139 0.73904,2.49754 z m 3.12846,-8.50184 -0.1838,0.4995 c -0.50915,1.38364 -1.65854,2.49755 -2.57711,2.49755 -0.91857,0 -1.24818,-1.11391 -0.73904,-2.49755 l 0.1838,-0.4995 c 0.50915,-1.38364 1.65854,-2.49754 2.57711,-2.49754 0.91857,0 1.24819,1.1139 0.73904,2.49754 z m -16.71958,16.54079 -0.1838,0.49951 c -0.50915,1.38364 -1.65855,2.49755 -2.57712,2.49755 -0.91857,0 -1.24818,-1.11391 -0.73903,-2.49755 l 0.1838,-0.49951 c 0.50916,-1.38365 1.65854,-2.49754 2.57712,-2.49754 0.91856,0 1.24819,1.11389 0.73903,2.49754 z m 2.67065,-7.25766 -0.18381,0.4995 c -0.50915,1.38364 -1.65854,2.49755 -2.57711,2.49755 -0.91858,0 -1.24819,-1.11391 -0.73904,-2.49755 l 0.18381,-0.4995 c 0.50914,-1.38364 1.65853,-2.49754 2.5771,-2.49754 0.91857,0 1.24819,1.1139 0.73905,2.49754 z m 3.12846,-8.50184 -0.18381,0.4995 c -0.50914,1.38364 -1.65853,2.49754 -2.5771,2.49754 -0.91857,0 -1.24819,-1.1139 -0.73905,-2.49754 l 0.18381,-0.4995 c 0.50914,-1.38364 1.65853,-2.49755 2.57711,-2.49755 0.91857,0 1.24818,1.11391 0.73904,2.49755 z m -17.46071,15.7595 -0.1838,0.49951 c -0.50915,1.38364 -1.65854,2.49755 -2.57711,2.49755 -0.91857,0 -1.24817,-1.11391 -0.73903,-2.49755 l 0.18381,-0.49951 c 0.50916,-1.38365 1.65853,-2.49754 2.5771,-2.49754 0.91856,0 1.24819,1.11389 0.73903,2.49754 z m 2.67064,-7.25766 -0.1838,0.4995 c -0.50915,1.38364 -1.65854,2.49755 -2.57711,2.49755 -0.91856,0 -1.24818,-1.11391 -0.73903,-2.49755 l 0.18381,-0.4995 c 0.50915,-1.38364 1.65853,-2.49754 2.5771,-2.49754 0.91856,0 1.24818,1.1139 0.73903,2.49754 z m 3.12847,-8.50184 -0.18381,0.4995 c -0.50914,1.38364 -1.65853,2.49754 -2.57709,2.49754 -0.91857,0 -1.24819,-1.1139 -0.73905,-2.49754 l 0.18381,-0.4995 c 0.50914,-1.38364 1.65853,-2.49755 2.5771,-2.49755 0.91857,0 1.24817,1.11391 0.73903,2.49755 z m -18.85308,-4.56897 c -1.1867,0 -2.14211,1.74842 -2.14211,3.92056 l 0,29.95524 h -16.36528 c -1.1867,0 -2.1419,1.74879 -2.1419,3.92094 v 1.88188 c 0,2.17214 0.9552,3.92093 2.1419,3.92093 h 18.50739 1.02812 c 1.18669,0 2.14211,-1.74879 2.1421,-3.92093 l 0,-1.88188 1e-5,-27.13223 h 6.25478 c 1.56642,0 2.82738,-2.30807 2.82738,-5.17527 v -0.31396 c 1e-5,-2.8672 -1.26096,-5.17528 -2.82737,-5.17528 h -6.59764 c -0.33894,0 -0.66327,0.10869 -0.96393,0.3071 -0.25645,-0.19785 -0.53866,-0.3071 -0.83533,-0.3071 z" />
  </g>
</svg>
