<?xml version="1.0" encoding="UTF-8" standalone="no"?>
<!-- Created with Inkscape (http://www.inkscape.org/) -->

<svg
   width="210mm"
   height="297mm"
   viewBox="0 0 210 297"
   version="1.1"
   id="svg5"
   inkscape:version="1.1.1 (3bf5ae0d25, 2021-09-20)"
   sodipodi:docname="calf gate icon svg.svg"
   xmlns:inkscape="http://www.inkscape.org/namespaces/inkscape"
   xmlns:sodipodi="http://sodipodi.sourceforge.net/DTD/sodipodi-0.dtd"
   xmlns="http://www.w3.org/2000/svg"
   xmlns:svg="http://www.w3.org/2000/svg">
  <sodipodi:namedview
     id="namedview7"
     pagecolor="#ffffff"
     bordercolor="#666666"
     borderopacity="1.0"
     inkscape:pageshadow="2"
     inkscape:pageopacity="0.0"
     inkscape:pagecheckerboard="0"
     inkscape:document-units="mm"
     showgrid="false"
     inkscape:zoom="0.90028971"
     inkscape:cx="436.52615"
     inkscape:cy="813.62698"
     inkscape:window-width="1680"
     inkscape:window-height="956"
     inkscape:window-x="-11"
     inkscape:window-y="-11"
     inkscape:window-maximized="1"
     inkscape:current-layer="layer1" />
  <defs
     id="defs2">
    <inkscape:path-effect
       effect="spiro"
       id="path-effect2632"
       is_visible="true"
       lpeversion="1" />
    <inkscape:path-effect
       effect="spiro"
       id="path-effect2622"
       is_visible="true"
       lpeversion="1" />
    <inkscape:path-effect
       effect="spiro"
       id="path-effect2121"
       is_visible="true"
       lpeversion="1" />
    <inkscape:path-effect
       effect="spiro"
       id="path-effect1716"
       is_visible="true"
       lpeversion="1" />
    <inkscape:path-effect
       effect="spiro"
       id="path-effect1710"
       is_visible="true"
       lpeversion="1" />
    <inkscape:path-effect
       effect="spiro"
       id="path-effect1596"
       is_visible="true"
       lpeversion="1" />
    <inkscape:path-effect
       effect="spiro"
       id="path-effect1491"
       is_visible="true"
       lpeversion="1" />
    <inkscape:path-effect
       effect="spiro"
       id="path-effect1487"
       is_visible="true"
       lpeversion="1" />
    <inkscape:path-effect
       effect="spiro"
       id="path-effect1483"
       is_visible="true"
       lpeversion="1" />
    <inkscape:path-effect
       effect="spiro"
       id="path-effect1479"
       is_visible="true"
       lpeversion="1" />
    <inkscape:path-effect
       effect="spiro"
       id="path-effect18586"
       is_visible="true"
       lpeversion="1" />
    <inkscape:path-effect
       effect="spiro"
       id="path-effect18578"
       is_visible="true"
       lpeversion="1" />
    <inkscape:path-effect
       effect="spiro"
       id="path-effect7594"
       is_visible="true"
       lpeversion="1" />
    <inkscape:path-effect
       effect="spiro"
       id="path-effect7590"
       is_visible="true"
       lpeversion="1" />
    <inkscape:path-effect
       effect="skeletal"
       id="path-effect2482"
       is_visible="true"
       lpeversion="1"
       pattern="M 0,0 H 1"
       copytype="repeated_stretched"
       prop_scale="1"
       scale_y_rel="false"
       spacing="0"
       normal_offset="0"
       tang_offset="0"
       prop_units="false"
       vertical_pattern="false"
       hide_knot="false"
       fuse_tolerance="0" />
    <inkscape:path-effect
       effect="skeletal"
       id="path-effect1930"
       is_visible="true"
       lpeversion="1"
       pattern="M 0,0 H 1"
       copytype="repeated_stretched"
       prop_scale="1"
       scale_y_rel="false"
       spacing="0"
       normal_offset="0"
       tang_offset="0"
       prop_units="false"
       vertical_pattern="false"
       hide_knot="false"
       fuse_tolerance="0" />
    <inkscape:path-effect
       effect="skeletal"
       id="path-effect1566"
       is_visible="true"
       lpeversion="1"
       pattern="M 0,4.9921382 C 0,2.2364779 2.2364779,0 4.9921382,0 c 2.7556604,0 4.9921383,2.2364779 4.9921383,4.9921382 0,2.7556604 -2.2364779,4.9921383 -4.9921383,4.9921383 C 2.2364779,9.9842765 0,7.7477986 0,4.9921382 Z"
       copytype="single_stretched"
       prop_scale="9"
       scale_y_rel="false"
       spacing="0"
       normal_offset="0"
       tang_offset="0"
       prop_units="false"
       vertical_pattern="false"
       hide_knot="false"
       fuse_tolerance="0" />
    <inkscape:path-effect
       effect="skeletal"
       id="path-effect1560"
       is_visible="true"
       lpeversion="1"
       pattern="M 0,4.9921382 C 0,2.2364779 2.2364779,0 4.9921382,0 c 2.7556604,0 4.9921383,2.2364779 4.9921383,4.9921382 0,2.7556604 -2.2364779,4.9921383 -4.9921383,4.9921383 C 2.2364779,9.9842765 0,7.7477986 0,4.9921382 Z"
       copytype="single_stretched"
       prop_scale="12.5"
       scale_y_rel="false"
       spacing="0"
       normal_offset="0"
       tang_offset="0"
       prop_units="false"
       vertical_pattern="false"
       hide_knot="false"
       fuse_tolerance="0" />
    <inkscape:path-effect
       effect="skeletal"
       id="path-effect3161"
       is_visible="true"
       lpeversion="1"
       pattern="m 182.71133,36.816874 0.27078,28.580167 24.64656,-14.536578 z m -38.1894,6.580476 v 17.728634 h 31.32522 V 43.39735 Z"
       copytype="repeated"
       prop_scale="1"
       scale_y_rel="false"
       spacing="5.8"
       normal_offset="0"
       tang_offset="1.5"
       prop_units="false"
       vertical_pattern="false"
       hide_knot="false"
       fuse_tolerance="0" />
    <inkscape:path-effect
       effect="skeletal"
       id="path-effect2910"
       is_visible="true"
       lpeversion="1"
       pattern="m 182.71133,36.816874 0.27078,28.580167 24.64656,-14.536578 z m -38.1894,6.580476 v 17.728634 h 31.32522 V 43.39735 Z"
       copytype="repeated"
       prop_scale="1"
       scale_y_rel="false"
       spacing="4.6"
       normal_offset="0.3"
       tang_offset="0"
       prop_units="false"
       vertical_pattern="false"
       hide_knot="false"
       fuse_tolerance="0" />
    <clipPath
       clipPathUnits="userSpaceOnUse"
       id="clipPath1084">
      <path
         id="path1086"
         style="fill:#ffffff;stroke:#000000;stroke-width:1.9;stroke-linecap:round;stroke-linejoin:round;stroke-opacity:0.955017;paint-order:stroke markers fill"
         d="M 131.62969,4.2943116 V 68.688315 h 68.80665 V 4.2943116 Z m 1.24385,29.8953324 c 0.14743,-0.0011 0.31612,0.130032 0.45837,0.437184 0.1612,0.143745 0.22178,0.389305 0.24288,0.640786 0.0288,0.05496 0.0584,0.115957 0.0889,0.183452 0.0267,0.0594 0.0141,0.12683 -0.005,0.195855 0.0473,0.23781 0.0773,0.479134 0.091,0.721918 0.004,0.06826 0.0514,0.193228 -0.016,0.20464 -0.0245,0.0041 -0.045,0.0074 -0.0682,0.01138 0.0315,0.03888 0.0594,0.119774 0.13229,0.283186 0.10723,0.122989 0.0496,0.04238 0.14573,0.260448 0.17552,0.398423 -0.101,0.331528 -0.41031,0.212907 -0.22452,0.02791 -0.39405,0.05628 -0.52297,0.07751 0.001,0.0019 0.002,0.0034 0.003,0.0052 0.0246,0.03906 0.0408,0.06462 0.0486,0.077 -0.006,-0.0085 -0.0377,-0.05759 -0.0532,-0.08165 -0.41926,0.06905 -0.40343,0.05619 -0.41289,-0.325043 -0.13748,-0.200589 -0.17246,-0.234823 -0.27647,-0.513146 -0.0159,-0.0434 -0.0151,-0.09172 -0.0181,-0.137978 -0.007,-0.132299 -0.0104,-0.264887 -0.0124,-0.397391 -0.007,-0.599053 -0.008,-0.444875 0.0418,-0.996839 0.0705,-0.0909 0.11952,-0.21614 0.18035,-0.322461 0.0266,-0.327675 0.17816,-0.53567 0.36277,-0.536918 z" />
    </clipPath>
    <clipPath
       clipPathUnits="userSpaceOnUse"
       id="clipPath1365">
      <path
         id="path1367"
         style="fill:#ffffff;stroke:#000000;stroke-width:1.9;stroke-linecap:round;stroke-linejoin:round;stroke-opacity:0.955017;paint-order:stroke markers fill"
         d="M 1.9962606,6.9949219 V 71.388925 H 70.802913 V 6.9949219 Z M 3.4127117,35.915121 c 0.2399078,1.1e-5 0.4808863,0.241626 0.4904092,0.724503 0.00373,0.188905 -0.00413,0.376087 -5.292e-4,0.562756 0.208819,0.05478 0.3928436,0.292941 0.3906737,0.713134 0.067036,0.04876 0.1319332,0.101153 0.191203,0.158647 0.3724746,-0.153006 0.2307715,-0.137197 0.6847126,0.217043 0.00103,-1.11e-4 0.00206,-5.29e-4 0.0031,-5.29e-4 -3.15e-5,7.93e-4 3.15e-5,0.0019 0,0.0026 0.055214,0.04302 0.1184651,0.091 0.1932699,0.144177 0.015026,0.01069 0.00132,0.03683 0.00156,0.0553 0.00303,0.24012 0.0048,0.480225 0.0031,0.720368 -0.00132,0.05265 -0.00262,0.110802 -0.00414,0.168466 0.040343,0.06443 0.077664,0.128709 0.039274,0.180866 -0.015983,0.02172 -0.032056,0.04342 -0.048059,0.06511 -5.292e-4,0.01035 -9.79e-4,0.02148 -0.00156,0.03152 -0.00153,0.02721 0.018328,0.08383 -0.00878,0.08113 -0.02422,-0.0024 -0.045013,-0.0044 -0.068213,-0.0067 -0.018304,0.02474 -0.036458,0.04967 -0.054777,0.07441 0.00739,0.06157 -8.996e-4,0.114022 -0.048576,0.143142 2.098e-4,0.01601 3.175e-4,0.03205 5.291e-4,0.04806 0.091552,0.02532 0.136615,0.05421 0.099219,0.09043 0.033945,-5.29e-4 0.067815,-5.29e-4 0.099735,0.0098 0.00391,0.0013 0.217062,0.07656 0.3400308,0.150379 0.123866,-0.205476 0.1036384,-0.148842 0.025839,0.01704 0.026964,0.01831 0.047092,0.036 0.055294,0.05219 2.151e-4,5.29e-4 3.44e-4,5.29e-4 5.292e-4,0.0011 0.3946763,0.28702 0.1911688,0.09572 -0.3948078,0.89452 -0.1872356,0.255241 -0.1670278,0.153392 -0.072864,-0.06873 -0.053389,-0.02529 -0.1070981,-0.05014 -0.1591636,-0.07803 -0.011017,-0.0059 -0.039878,-0.02633 -0.027388,-0.02585 0.011028,5.29e-4 0.02241,0.0013 0.03359,0.0021 -0.03085,-0.03441 -0.00855,-0.0661 0.05426,-0.135908 0.03526,-0.13634 0.07016,-0.272939 0.10542,-0.409276 -0.035392,0.02458 -0.078638,0.05141 -0.1260906,0.0801 0.027538,0.09585 0.048667,0.186714 -0.025839,0.201023 -0.096378,0.01852 -0.1928831,0.01164 -0.289388,-0.0036 -0.047424,0.03204 -0.096491,0.0662 -0.147278,0.104389 0.00969,0.008 0.019479,0.01582 0.029456,0.02326 0.012576,0.0033 0.024395,0.0064 0.038758,0.01035 0.00412,0.0011 -0.003,0.01347 -0.00672,0.01138 -0.011147,-0.0063 -0.02155,-0.01389 -0.03204,-0.0217 -0.016274,-0.0043 -0.031425,-0.008 -0.044958,-0.01138 -0.01171,0.0089 -0.023286,0.01759 -0.03514,0.02687 0.00393,-0.01066 0.00759,-0.0213 0.011369,-0.03204 -0.00741,0.0053 -0.014724,0.01077 -0.02222,0.01601 -0.015473,0.01082 -0.039804,-0.009 -0.058911,-0.03462 -0.071239,-0.01259 -0.065215,-0.01183 -0.1725993,-0.06666 -0.081389,0.01466 -0.1631421,0.01968 -0.2459797,0.0093 -0.058749,-0.0074 -0.06143,-0.06584 -0.050126,-0.136943 -0.071249,-0.01968 -0.1054812,-0.04278 -0.1927532,-0.09457 -0.056617,-0.01595 -0.128443,-0.03613 -0.1297077,-0.03669 -0.058194,-0.02574 -0.1092288,-0.06524 -0.160197,-0.10387 -0.036539,0.0011 -0.073014,-1.48e-4 -0.1085205,-0.0083 -0.2707897,-0.06195 -0.4606515,-0.173451 -0.5627563,-0.449586 -0.0049,-0.01325 -0.010663,-0.02905 -0.016536,-0.04651 -0.061802,-0.07972 -0.1279686,-0.156924 -0.1710491,-0.247531 -0.086211,-0.181324 -0.084433,-0.33869 -0.088883,-0.524515 0.00388,-0.08866 0.011549,-0.173387 0.015502,-0.260967 -0.027353,-0.05934 -0.025659,-0.115977 0,-0.167949 -5.292e-4,-0.01 -2.911e-4,-0.01931 -0.00103,-0.02945 -0.011433,-0.08212 -0.018643,-0.154075 -0.02222,-0.218593 -0.022405,0.06924 -0.029546,0.142258 -0.034106,0.216008 0.010263,0.01937 0.020034,0.03857 0.031006,0.05891 -0.02068,0.05572 -0.036195,0.113374 -0.062012,0.166915 -0.010994,0.02281 0.013274,-0.04887 0.017052,-0.0739 0.00755,-0.04995 0.010798,-0.100957 0.013954,-0.151929 -0.4262069,-0.804119 -0.2470971,-0.769509 0.049609,-0.477491 0.00989,-0.04099 0.023717,-0.07689 0.041858,-0.107487 -0.044194,-0.07209 -0.069358,-0.141599 -0.079582,-0.206705 -0.040348,-0.192892 0.04422,-0.366263 0.2444298,-0.427879 -0.024395,-0.279689 -0.018346,-0.558761 -0.01447,-0.842844 0.00659,-0.482928 0.2453328,-0.724516 0.4852419,-0.724503 z m 1.81746,4.992976 c -0.011806,0.04565 -0.02385,0.09129 -0.035657,0.136943 0.039707,0.0034 0.079143,0.0104 0.1142051,0.02791 0.020323,0.01013 -0.035524,0.01706 -0.078031,0.01188 0.024352,0.01484 0.061624,0.03554 0.1002525,0.05684 0.1058555,-0.248939 0.3008304,-0.643528 0.4046262,-0.864029 -0.00956,-0.0084 -0.017743,-0.01572 -0.024805,-0.02119 -0.00563,0.0094 -0.010337,0.01699 -0.016536,0.02739 -0.2134907,0.358082 -0.3773662,0.527902 -0.4640543,0.62425 z m 0.4805907,-0.65164 c 0.00938,0.007 0.016933,0.01252 0.025839,0.01913 0.00156,-0.0033 0.00262,-0.0056 0.00414,-0.0088 -0.00813,-0.0055 -0.016552,-0.01148 -0.025839,-0.01704 -0.00135,0.0021 -0.00275,0.0044 -0.00414,0.0067 z M 5.1945148,41.04504 c -0.00623,-5.29e-4 -0.01238,-5.29e-4 -0.018603,-0.0011 0.00374,0.0042 0.00813,0.0086 0.013435,0.01291 9.261e-4,-0.0019 0.0019,-0.0037 0.00362,-0.0057 5.291e-4,-0.0021 0.00101,-0.0041 0.00156,-0.0062 z M 5.175912,39.999108 c -0.00138,-2.65e-4 -0.00273,-5.29e-4 -0.00414,-0.0011 3.84e-5,0.0098 -5.291e-4,0.01691 -5.291e-4,0.02635 0.00172,0.0013 0.00295,0.0024 0.00465,0.0036 -8.15e-5,-0.0097 1.172e-4,-0.01929 0,-0.02894 z" />
    </clipPath>
  </defs>
  <g
     inkscape:label="Layer 1"
     inkscape:groupmode="layer"
     id="layer1">
    <path
       style="fill:#000000;stroke:#000000;stroke-width:3.88652;stroke-linecap:round;stroke-linejoin:round;stroke-opacity:0.955017;paint-order:stroke markers fill"
       d=""
       id="path1683"
       transform="scale(0.26458333)" />
    <path
       style="fill:#502d16;stroke:#000000;stroke-width:6.74415;stroke-linecap:round;stroke-linejoin:round;stroke-opacity:0.955017;paint-order:stroke markers fill"
       d=""
       id="path2139"
       transform="scale(0.26458333)" />
    <path
       style="fill:#ffffff;fill-opacity:1;stroke:#000000;stroke-width:4.67699;stroke-linecap:round;stroke-linejoin:round;stroke-opacity:0.955017;paint-order:stroke markers fill"
       d=""
       id="path9985"
       transform="scale(0.26458333)" />
    <path
       style="fill:#ffffff;fill-opacity:1;stroke:#000000;stroke-width:2.18137;stroke-linecap:round;stroke-linejoin:round;stroke-opacity:0.955017;paint-order:stroke markers fill"
       d=""
       id="path10921"
       transform="scale(0.26458333)" />
    <path
       style="fill:#d38d5f;fill-opacity:1;stroke:#000000;stroke-width:3.125;stroke-linecap:round;stroke-linejoin:round;stroke-opacity:0.955017;paint-order:stroke markers fill"
       d=""
       id="path7015"
       transform="scale(0.26458333)" />
    <path
       style="fill:#6f8a91;fill-opacity:1;stroke:#000000;stroke-width:0.386042;stroke-linecap:round;stroke-linejoin:round;stroke-miterlimit:4;stroke-dasharray:none;stroke-opacity:0.955017;paint-order:stroke markers fill"
       d=""
       id="path11918"
       transform="scale(0.26458333)" />
    <path
       style="fill:#ffffff;fill-opacity:1;stroke:#000000;stroke-width:0.290782;stroke-linecap:round;stroke-linejoin:round;stroke-miterlimit:4;stroke-dasharray:none;stroke-opacity:0.955017;paint-order:stroke markers fill"
       d=""
       id="path19122"
       transform="scale(0.26458333)" />
    <path
       style="fill:#ffffff;fill-opacity:1;stroke:#000000;stroke-width:0.543581;stroke-linecap:round;stroke-linejoin:round;stroke-miterlimit:4;stroke-dasharray:none;stroke-opacity:0.955017;paint-order:stroke markers fill"
       d=""
       id="path20565"
       transform="scale(0.26458333)" />
    <g
       id="g2111"
       transform="matrix(0.48684953,0,0,0.42363136,-10.419632,-24.64534)">
      <path
         id="ellipse1442"
         style="fill:none;stroke:#000000;stroke-width:1.943;stroke-linecap:round;stroke-linejoin:round;stroke-opacity:0.955017;paint-order:stroke markers fill"
         d="m 203.95471,152.14803 a 83.981354,82.345352 0 0 1 -83.98135,82.34535 83.981354,82.345352 0 0 1 -83.981356,-82.34535 83.981354,82.345352 0 0 1 83.981356,-82.345357 83.981354,82.345352 0 0 1 83.98135,82.345357 z m -13.088,0 a 70.893349,69.802681 0 0 1 -70.89335,69.80268 70.893349,69.802681 0 0 1 -70.893351,-69.80268 70.893349,69.802681 0 0 1 70.893351,-69.802685 70.893349,69.802681 0 0 1 70.89335,69.802685 z" />
      <path
         id="path1712"
         style="fill:none;stroke:#000000;stroke-width:0.853918;stroke-linecap:butt;stroke-linejoin:miter;stroke-miterlimit:4;stroke-dasharray:none;stroke-opacity:1"
         d="m 170.63775,100.30246 2.83315,11.83572 m -118.992407,63.12384 2.833152,11.83572 m 87.827725,-41.91818 28.33153,-33.04138 m -50.99674,14.79465 22.66521,18.24673 m -37.30317,12.32887 14.63796,-30.5756 M 57.311645,187.09774 107.8362,157.50843 m 34.47002,-24.16458 28.33152,-33.04139 m -50.99674,14.79465 22.66522,18.24674 m -37.30317,12.32887 14.63795,-30.57561 m -65.162507,60.16491 50.524557,-29.5893"
         inkscape:original-d="m 170.63775,100.30246 c 0.94462,3.94548 1.88899,7.89072 2.83315,11.83572 M 54.478493,175.26202 c 0.94462,3.94548 1.888999,7.89072 2.833152,11.83572 m 87.827725,-41.91818 c 9.44407,-11.01355 18.88791,-22.02735 28.33153,-33.04138 m -50.99674,14.79465 c 7.5553,6.08249 15.11037,12.16473 22.66521,18.24673 m -37.30317,12.32887 c 4.87955,-10.02724 9.75887,-20.38349 14.63796,-30.5756 M 57.311645,187.09774 C 74.15339,177.23487 90.994911,167.37177 107.8362,157.50843 m 34.47002,-24.16458 c 9.44407,-11.01356 18.88791,-22.02736 28.33152,-33.04139 M 119.641,115.09711 c 7.55531,6.08248 15.11038,12.16472 22.66522,18.24674 m -37.30317,12.32887 c 4.87955,-10.02725 9.75886,-20.3835 14.63795,-30.57561 m -65.162507,60.16491 c 16.841745,-9.86287 33.683266,-19.72597 50.524557,-29.5893"
         inkscape:path-effect="#path-effect1716" />
    </g>
    <g
       id="g2612">
      <g
         id="g2117"
         transform="matrix(0.48684953,0,0,0.42363136,106.28173,-26.28134)">
        <path
           id="path2113"
           style="fill:none;stroke:#000000;stroke-width:1.943;stroke-linecap:round;stroke-linejoin:round;stroke-opacity:0.955017;paint-order:stroke markers fill"
           d="m 203.95471,152.14803 a 83.981354,82.345352 0 0 1 -83.98135,82.34535 83.981354,82.345352 0 0 1 -83.981356,-82.34535 83.981354,82.345352 0 0 1 83.981356,-82.345357 83.981354,82.345352 0 0 1 83.98135,82.345357 z m -13.088,0 a 70.893349,69.802681 0 0 1 -70.89335,69.80268 70.893349,69.802681 0 0 1 -70.893351,-69.80268 70.893349,69.802681 0 0 1 70.893351,-69.802685 70.893349,69.802681 0 0 1 70.89335,69.802685 z" />
        <path
           id="path2115"
           style="fill:none;stroke:#000000;stroke-width:0.853918;stroke-linecap:butt;stroke-linejoin:miter;stroke-miterlimit:4;stroke-dasharray:none;stroke-opacity:1"
           d="m 170.63775,100.30246 2.83315,11.83572 m -118.992407,63.12384 2.833152,11.83572 m 87.827725,-41.91818 28.33153,-33.04138 m -50.99674,14.79465 22.66521,18.24673 m -37.30317,12.32887 14.63796,-30.5756 M 57.311645,187.09774 107.8362,157.50843 m 34.47002,-24.16458 28.33152,-33.04139 m -50.99674,14.79465 22.66522,18.24674 m -37.30317,12.32887 14.63795,-30.57561 m -65.162507,60.16491 50.524557,-29.5893"
           inkscape:original-d="m 170.63775,100.30246 c 0.94462,3.94548 1.88899,7.89072 2.83315,11.83572 M 54.478493,175.26202 c 0.94462,3.94548 1.888999,7.89072 2.833152,11.83572 m 87.827725,-41.91818 c 9.44407,-11.01355 18.88791,-22.02735 28.33153,-33.04138 m -50.99674,14.79465 c 7.5553,6.08249 15.11037,12.16473 22.66521,18.24673 m -37.30317,12.32887 c 4.87955,-10.02724 9.75887,-20.38349 14.63796,-30.5756 M 57.311645,187.09774 C 74.15339,177.23487 90.994911,167.37177 107.8362,157.50843 m 34.47002,-24.16458 c 9.44407,-11.01356 18.88791,-22.02736 28.33152,-33.04139 M 119.641,115.09711 c 7.55531,6.08248 15.11038,12.16472 22.66522,18.24674 m -37.30317,12.32887 c 4.87955,-10.02725 9.75886,-20.3835 14.63795,-30.57561 m -65.162507,60.16491 c 16.841745,-9.86287 33.683266,-19.72597 50.524557,-29.5893"
           inkscape:path-effect="#path-effect2121" />
      </g>
      <path
         style="fill:#000000;stroke:#000000;stroke-width:4.05119;stroke-linecap:round;stroke-linejoin:round;stroke-miterlimit:4;stroke-dasharray:none;stroke-opacity:0.955017;paint-order:stroke markers fill"
         d="m 605.64007,273.24287 c -38.67975,-4.05828 -73.70145,-20.02073 -98.61198,-44.94611 -29.04532,-29.06266 -41.57126,-66.44857 -34.80853,-103.89236 8.06861,-44.674207 44.01688,-83.076612 93.96988,-100.385068 60.04927,-20.8067651 129.50358,-6.062936 171.9063,36.492443 11.41554,11.456636 18.58185,21.667836 25.54688,36.401425 8.12905,17.19595 9.99724,26.06946 9.99724,47.48476 0,15.69521 -0.36913,19.68343 -2.57009,27.76884 -13.96127,51.28787 -62.00104,90.49443 -122.38969,99.88555 -10.7718,1.67514 -32.6525,2.28036 -43.04001,1.19052 z m 41.37388,-17.19502 c 29.79954,-4.88289 54.84416,-17.10731 74.69041,-36.45679 15.42073,-15.03475 25.24036,-31.42821 30.44745,-50.83075 3.48912,-13.00114 3.5071,-36.39973 0.0378,-49.11414 -4.83064,-17.70302 -14.13584,-33.919727 -27.86271,-48.557942 -3.72372,-3.970944 -6.77257,-7.844697 -6.77523,-8.60834 -0.002,-0.763643 -0.37971,-1.426685 -0.83789,-1.473427 C 713.80239,60.709456 711.71989,59.657396 704.7854,54.98035 656.65059,22.515288 588.61681,22.421026 540.38161,54.752565 499.34263,82.260546 480.67066,129.63002 493.88066,172.72218 c 2.14552,6.99887 11.51788,27.12764 13.73372,29.49556 0.91637,0.97925 4.34401,5.06607 7.61697,9.08181 18.62035,22.8461 51.26978,40.36869 84.16981,45.17303 10.81907,1.57988 36.79294,1.34818 47.61279,-0.42473 z"
         id="path2449"
         transform="scale(0.26458333)" />
      <path
         style="fill:#000000;stroke:#000000;stroke-width:4.05119;stroke-linecap:round;stroke-linejoin:round;stroke-miterlimit:4;stroke-dasharray:none;stroke-opacity:0.955017;paint-order:stroke markers fill"
         d="m 507.64253,192.76129 c -1.306,-2.11315 -2.63157,-5.48706 -2.9457,-7.49758 l -0.57116,-3.6555 45.72059,-23.18816 c 35.01685,-17.75952 46.15192,-23.89999 47.56294,-26.22872 1.01329,-1.67232 7.04414,-12.53548 13.40188,-24.14036 l 11.55952,-21.099782 20.51753,14.409242 20.51753,14.40923 24.61912,-24.600883 24.61912,-24.600886 2.25498,2.537857 c 1.24023,1.395821 2.76517,4.310409 3.38877,6.476863 l 1.1338,3.939006 -25.42322,25.841053 -25.42323,25.84104 -19.92916,-13.95181 c -10.96104,-7.6735 -20.60207,-13.95182 -21.4245,-13.95182 -0.82243,0 -7.45379,10.8715 -14.73633,24.15889 l -13.241,24.15889 -43.87099,22.46904 c -24.12906,12.35796 -44.20512,22.4797 -44.61348,22.49275 -0.40836,0.0131 -1.81101,-1.70521 -3.11701,-3.81836 z"
         id="path2488"
         transform="scale(0.26458333)" />
    </g>
    <g
       id="g2852">
      <g
         id="g2618"
         transform="matrix(0.48684953,0,0,0.42363136,-14.827935,194.88816)">
        <path
           id="path2614"
           style="fill:none;stroke:#000000;stroke-width:1.943;stroke-linecap:round;stroke-linejoin:round;stroke-opacity:0.955017;paint-order:stroke markers fill"
           d="m 203.95471,152.14803 a 83.981354,82.345352 0 0 1 -83.98135,82.34535 83.981354,82.345352 0 0 1 -83.981356,-82.34535 83.981354,82.345352 0 0 1 83.981356,-82.345357 83.981354,82.345352 0 0 1 83.98135,82.345357 z m -13.088,0 a 70.893349,69.802681 0 0 1 -70.89335,69.80268 70.893349,69.802681 0 0 1 -70.893351,-69.80268 70.893349,69.802681 0 0 1 70.893351,-69.802685 70.893349,69.802681 0 0 1 70.89335,69.802685 z" />
        <path
           id="path2616"
           style="fill:none;stroke:#000000;stroke-width:0.853918;stroke-linecap:butt;stroke-linejoin:miter;stroke-miterlimit:4;stroke-dasharray:none;stroke-opacity:1"
           d="m 170.63775,100.30246 2.83315,11.83572 m -118.992407,63.12384 2.833152,11.83572 m 87.827725,-41.91818 28.33153,-33.04138 m -50.99674,14.79465 22.66521,18.24673 m -37.30317,12.32887 14.63796,-30.5756 M 57.311645,187.09774 107.8362,157.50843 m 34.47002,-24.16458 28.33152,-33.04139 m -50.99674,14.79465 22.66522,18.24674 m -37.30317,12.32887 14.63795,-30.57561 m -65.162507,60.16491 50.524557,-29.5893"
           inkscape:original-d="m 170.63775,100.30246 c 0.94462,3.94548 1.88899,7.89072 2.83315,11.83572 M 54.478493,175.26202 c 0.94462,3.94548 1.888999,7.89072 2.833152,11.83572 m 87.827725,-41.91818 c 9.44407,-11.01355 18.88791,-22.02735 28.33153,-33.04138 m -50.99674,14.79465 c 7.5553,6.08249 15.11037,12.16473 22.66521,18.24673 m -37.30317,12.32887 c 4.87955,-10.02724 9.75887,-20.38349 14.63796,-30.5756 M 57.311645,187.09774 C 74.15339,177.23487 90.994911,167.37177 107.8362,157.50843 m 34.47002,-24.16458 c 9.44407,-11.01356 18.88791,-22.02736 28.33152,-33.04139 M 119.641,115.09711 c 7.55531,6.08248 15.11038,12.16472 22.66522,18.24674 m -37.30317,12.32887 c 4.87955,-10.02725 9.75886,-20.3835 14.63795,-30.57561 m -65.162507,60.16491 c 16.841745,-9.86287 33.683266,-19.72597 50.524557,-29.5893"
           inkscape:path-effect="#path-effect2622" />
      </g>
      <path
         style="fill:#ffffff;stroke:#000000;stroke-width:4.05119;stroke-linecap:round;stroke-linejoin:round;stroke-miterlimit:4;stroke-dasharray:none;stroke-opacity:0.955017;paint-order:stroke markers fill"
         d="m 138.43056,1107.9653 c -35.19134,-5.7231 -63.951759,-19.6966 -87.544479,-42.5344 -22.19338,-21.4833 -34.429866,-45.7188 -37.728118,-74.72424 -4.0308387,-35.44793 12.716256,-74.97944 42.710661,-100.81849 20.138419,-17.34848 42.898647,-28.60213 71.397916,-35.30221 12.25978,-2.88224 14.97688,-3.11623 36.56961,-3.14933 25.71438,-0.0394 34.28826,1.13851 53.83125,7.3956 48.06241,15.3882 83.75923,50.37243 95.81538,93.90268 3.47702,12.55424 3.47702,42.45597 0,55.01019 -13.51518,48.7983 -56.78954,86.4653 -113.3261,98.6417 -14.29689,3.0792 -47.30768,3.9233 -61.72612,1.5785 z m 55.39594,-16.6456 c 29.41196,-6.1771 53.10327,-18.4536 71.71039,-37.1594 13.97436,-14.0485 24.06966,-31.2999 28.95715,-49.4837 3.40232,-12.65826 3.40232,-36.2149 0,-48.87316 -4.58906,-17.0735 -14.3633,-34.32384 -27.26669,-48.12238 -3.81384,-4.07842 -7.26225,-8.31346 -7.66315,-9.41122 -0.40088,-1.09776 -1.36038,-1.85373 -2.1322,-1.67994 -0.77182,0.1738 -5.71018,-2.55357 -10.97415,-6.06082 -22.65413,-15.09386 -46.56401,-22.59034 -75.95718,-23.8149 -61.08358,-2.54481 -116.072504,31.29492 -133.355083,82.06562 -10.503691,30.8565 -3.838315,68.2254 16.805327,94.2178 22.399298,28.2029 54.581906,45.2959 94.890066,50.3986 8.19829,1.0378 36.34241,-0.2613 44.98552,-2.0765 z"
         id="path2689"
         transform="scale(0.26458333)" />
      <path
         style="fill:#ffffff;stroke:#000000;stroke-width:4.05119;stroke-linecap:round;stroke-linejoin:round;stroke-miterlimit:4;stroke-dasharray:none;stroke-opacity:0.955017;paint-order:stroke markers fill"
         d="m 49.884982,1028.3639 c -1.330336,-2.6077 -2.787916,-6.0283 -3.239067,-7.6014 -0.805934,-2.8101 -0.01201,-3.2711 45.411314,-26.36774 l 46.231591,-23.50763 12.62802,-23.09239 c 6.94541,-12.70082 12.94348,-23.43451 13.32905,-23.85263 0.38555,-0.41813 9.56422,5.45498 20.39703,13.05135 10.83281,7.59637 20.4069,13.81159 21.27574,13.81159 0.86884,0 12.0572,-10.74654 24.863,-23.8812 12.80581,-13.13466 23.83857,-23.8812 24.51725,-23.8812 1.81584,0 4.3469,4.41697 5.1963,9.06809 l 0.74323,4.0697 -25.15222,25.54071 -25.15223,25.54071 -20.37496,-14.33755 c -11.20623,-7.88565 -20.80356,-14.33333 -21.32742,-14.32816 -0.52384,0.005 -7.06887,11.12658 -14.54448,24.71426 l -13.59204,24.70488 -44.395656,22.54491 -44.39566,22.5449 z"
         id="path2728"
         transform="scale(0.26458333)" />
    </g>
    <g
       id="g3226">
      <g
         id="g2628"
         transform="matrix(0.48684953,0,0,0.42363136,106.54735,194.59427)">
        <path
           id="path2624"
           style="fill:none;stroke:#000000;stroke-width:1.943;stroke-linecap:round;stroke-linejoin:round;stroke-opacity:0.955017;paint-order:stroke markers fill"
           d="m 203.95471,152.14803 a 83.981354,82.345352 0 0 1 -83.98135,82.34535 83.981354,82.345352 0 0 1 -83.981356,-82.34535 83.981354,82.345352 0 0 1 83.981356,-82.345357 83.981354,82.345352 0 0 1 83.98135,82.345357 z m -13.088,0 a 70.893349,69.802681 0 0 1 -70.89335,69.80268 70.893349,69.802681 0 0 1 -70.893351,-69.80268 70.893349,69.802681 0 0 1 70.893351,-69.802685 70.893349,69.802681 0 0 1 70.89335,69.802685 z" />
        <path
           id="path2626"
           style="fill:none;stroke:#000000;stroke-width:0.853918;stroke-linecap:butt;stroke-linejoin:miter;stroke-miterlimit:4;stroke-dasharray:none;stroke-opacity:1"
           d="m 170.63775,100.30246 2.83315,11.83572 m -118.992407,63.12384 2.833152,11.83572 m 87.827725,-41.91818 28.33153,-33.04138 m -50.99674,14.79465 22.66521,18.24673 m -37.30317,12.32887 14.63796,-30.5756 M 57.311645,187.09774 107.8362,157.50843 m 34.47002,-24.16458 28.33152,-33.04139 m -50.99674,14.79465 22.66522,18.24674 m -37.30317,12.32887 14.63795,-30.57561 m -65.162507,60.16491 50.524557,-29.5893"
           inkscape:original-d="m 170.63775,100.30246 c 0.94462,3.94548 1.88899,7.89072 2.83315,11.83572 M 54.478493,175.26202 c 0.94462,3.94548 1.888999,7.89072 2.833152,11.83572 m 87.827725,-41.91818 c 9.44407,-11.01355 18.88791,-22.02735 28.33153,-33.04138 m -50.99674,14.79465 c 7.5553,6.08249 15.11037,12.16473 22.66521,18.24673 m -37.30317,12.32887 c 4.87955,-10.02724 9.75887,-20.38349 14.63796,-30.5756 M 57.311645,187.09774 C 74.15339,177.23487 90.994911,167.37177 107.8362,157.50843 m 34.47002,-24.16458 c 9.44407,-11.01356 18.88791,-22.02736 28.33152,-33.04139 M 119.641,115.09711 c 7.55531,6.08248 15.11038,12.16472 22.66522,18.24674 m -37.30317,12.32887 c 4.87955,-10.02725 9.75886,-20.3835 14.63795,-30.57561 m -65.162507,60.16491 c 16.841745,-9.86287 33.683266,-19.72597 50.524557,-29.5893"
           inkscape:path-effect="#path-effect2632" />
      </g>
      <path
         style="fill:#00ff00;stroke:#000000;stroke-width:4.05119;stroke-linecap:round;stroke-linejoin:round;stroke-miterlimit:4;stroke-dasharray:none;stroke-opacity:0.955017;paint-order:stroke markers fill"
         d="m 607.5822,1088.0292 c -0.91637,-0.2207 -5.41493,-1.0055 -9.99678,-1.744 -19.33379,-3.1161 -41.82416,-12.6448 -57.71866,-24.4543 -7.89074,-5.8627 -23.31933,-21.259 -25.62977,-25.5761 -1.14444,-2.1384 6.03813,-6.1402 58.35647,-32.513 12.8292,-6.46694 24.87155,-12.72072 26.76077,-13.89725 2.54843,-1.58704 6.47637,-7.68929 15.2193,-23.64389 6.48139,-11.82762 12.43325,-22.33705 13.22636,-23.35431 1.29505,-1.66107 3.42286,-0.44539 20.88019,11.92947 10.691,7.57845 20.19108,13.78402 21.11128,13.79015 0.92021,0.006 13.34226,-11.99756 27.60456,-26.67486 23.65767,-24.34603 25.87172,-26.95138 25.25004,-29.71265 -0.64358,-2.8586 -0.4624,-2.77995 3.2629,1.41634 16.21854,18.26908 25.26608,41.73634 25.26608,65.53446 0,50.63024 -39.83543,93.94184 -98.05185,106.60824 -7.57014,1.6471 -41.19227,3.339 -45.54089,2.2917 z"
         id="path2909"
         transform="scale(0.26458333)" />
      <path
         style="fill:#00ff00;stroke:#000000;stroke-width:4.05119;stroke-linecap:round;stroke-linejoin:round;stroke-miterlimit:4;stroke-dasharray:none;stroke-opacity:0.955017;paint-order:stroke markers fill"
         d="m 500.53026,1009.7362 c -11.77513,-32.852 -2.74555,-71.40332 23.13576,-98.77694 33.31504,-35.23597 86.65599,-49.55888 136.67697,-36.69999 16.53133,4.2497 36.58222,13.86457 48.31778,23.16951 l 2.77689,2.20174 -23.31591,23.36576 c -12.82375,12.85116 -23.67301,23.36575 -24.10948,23.36575 -0.43646,0 -9.43803,-6.0727 -20.00349,-13.4949 -10.56544,-7.4222 -19.92485,-13.54523 -20.79867,-13.60674 -0.96764,-0.0681 -6.82991,9.35708 -14.99517,24.10882 l -13.40641,24.22064 -21.10432,10.86557 c -11.60737,5.97606 -32.41194,16.5974 -46.23238,23.60298 l -25.12806,12.7374 z"
         id="path2948"
         transform="scale(0.26458333)" />
      <path
         style="fill:#008080;stroke:#000000;stroke-width:4.05119;stroke-linecap:round;stroke-linejoin:round;stroke-miterlimit:4;stroke-dasharray:none;stroke-opacity:0.955017;paint-order:stroke markers fill"
         d="m 508.62948,1027.2596 c -1.33214,-2.6113 -2.79119,-6.0348 -3.24234,-7.6078 -0.80594,-2.8101 -0.0119,-3.2712 45.41131,-26.36857 l 46.23159,-23.50842 9.91985,-18.09322 c 11.83226,-21.58133 16.08005,-28.64538 17.22514,-28.64538 0.46846,0 9.41412,5.99807 19.87923,13.32904 10.46512,7.33098 19.738,13.32904 20.60641,13.32904 0.86841,0 12.1558,-10.84848 25.08309,-24.10774 19.75207,-20.2593 23.80296,-23.9213 25.37591,-22.93977 2.30292,1.43704 4.92272,8.89001 4.06969,11.57767 -0.34472,1.08612 -11.48672,13.08924 -24.76001,26.67359 -22.80742,23.34194 -24.27254,24.62428 -26.66895,23.34176 -1.39462,-0.74639 -10.72252,-7.07358 -20.72865,-14.06043 -10.00612,-6.98685 -18.6021,-12.69841 -19.10216,-12.69235 -0.50006,0.006 -6.40743,10.0376 -13.12749,22.29232 -6.72006,12.25472 -13.46789,23.70337 -14.99518,25.44143 -1.77021,2.01452 -18.36127,11.0678 -45.76612,24.97333 l -42.98924,21.8131 z"
         id="path3024"
         transform="scale(0.26458333)" />
      <path
         style="fill:#6c5353;stroke:#000000;stroke-width:4.05119;stroke-linecap:round;stroke-linejoin:round;stroke-miterlimit:4;stroke-dasharray:none;stroke-opacity:0.955017;paint-order:stroke markers fill"
         d="m 597.17178,1106.8545 c -35.19134,-5.723 -63.95176,-19.6966 -87.54448,-42.5344 -22.19338,-21.4832 -34.42986,-45.7188 -37.72812,-74.72419 -4.03083,-35.44793 12.71626,-74.97944 42.71066,-100.81849 20.13842,-17.34849 42.89865,-28.60213 71.39793,-35.30222 12.25977,-2.88223 14.97687,-3.11622 36.5696,-3.14932 25.71438,-0.0394 34.28826,1.1385 53.83125,7.3956 48.06241,15.3882 83.75923,50.37242 95.81538,93.90268 3.47703,12.55424 3.47703,42.45597 0,55.01024 -13.51518,48.7982 -56.78954,86.4653 -113.3261,98.6416 -14.29688,3.0792 -47.30768,3.9234 -61.72612,1.5785 z m 55.39594,-16.6455 c 29.41196,-6.1771 53.10327,-18.4536 71.71039,-37.1594 13.97436,-14.0485 24.06966,-31.3 28.95715,-49.4838 3.40232,-12.65822 3.40232,-36.21486 0,-48.87311 -4.58906,-17.0735 -14.3633,-34.32385 -27.26669,-48.12239 -3.81384,-4.07841 -7.26225,-8.31346 -7.66315,-9.41122 -0.40088,-1.09776 -1.36038,-1.85373 -2.1322,-1.67993 -0.77182,0.17379 -5.71018,-2.55357 -10.97414,-6.06082 -22.65413,-15.09386 -46.56402,-22.59034 -75.95719,-23.8149 -61.08358,-2.54482 -116.0725,31.29491 -133.35508,82.06562 -10.50369,30.8565 -3.83832,68.22545 16.80533,94.21775 22.39929,28.203 54.5819,45.296 94.89006,50.3987 8.19829,1.0378 36.34241,-0.2613 44.98552,-2.0765 z"
         id="path3100"
         transform="scale(0.26458333)" />
    </g>
  </g>
</svg>
