<?xml version="1.0" encoding="UTF-8" standalone="no"?>
<!-- Created with Inkscape (http://www.inkscape.org/) -->

<svg
   width="210mm"
   height="297mm"
   viewBox="0 0 210 297"
   version="1.1"
   id="svg5"
   inkscape:version="1.1 (c68e22c387, 2021-05-23)"
   sodipodi:docname="sine waveform.svg"
   xmlns:inkscape="http://www.inkscape.org/namespaces/inkscape"
   xmlns:sodipodi="http://sodipodi.sourceforge.net/DTD/sodipodi-0.dtd"
   xmlns="http://www.w3.org/2000/svg"
   xmlns:svg="http://www.w3.org/2000/svg">
  <sodipodi:namedview
     id="namedview7"
     pagecolor="#ffffff"
     bordercolor="#666666"
     borderopacity="1.0"
     inkscape:pageshadow="2"
     inkscape:pageopacity="0.0"
     inkscape:pagecheckerboard="0"
     inkscape:document-units="mm"
     showgrid="false"
     inkscape:zoom="1.1476306"
     inkscape:cx="188.21388"
     inkscape:cy="115.45527"
     inkscape:window-width="1680"
     inkscape:window-height="956"
     inkscape:window-x="-11"
     inkscape:window-y="-11"
     inkscape:window-maximized="1"
     inkscape:current-layer="layer1" />
  <defs
     id="defs2" />
  <g
     inkscape:label="Layer 1"
     inkscape:groupmode="layer"
     id="layer1">
    <path
       id="path1138"
       style="fill:none;stroke:#000000;stroke-width:1.24106;stroke-linecap:round;stroke-linejoin:round;stroke-opacity:0.955017;paint-order:stroke markers fill"
       d="m 164.73771,50.303692 h 31.79559 c 0.79137,0 1.42847,-1.142104 1.42847,-2.560766 v -1.707178 c 0,-1.418663 -0.6371,-2.560767 -1.42847,-2.560767 h -31.79559 c -0.79138,0 -1.42849,1.142104 -1.42849,2.560767 v 1.707178 c 0,1.418662 0.63711,2.560766 1.42849,2.560766 z m 0.44909,-7.541636 h 30.31729 c 0.60573,0 1.09337,-0.874168 1.09337,-1.960018 v -1.306676 c 0,-1.085849 -0.48764,-1.960018 -1.09337,-1.960018 H 165.1868 c -0.60573,0 -1.09337,0.874169 -1.09337,1.960018 v 1.306676 c 0,1.08585 0.48764,1.960018 1.09337,1.960018 z m 8.6319,-15.781273 h 12.81386 c 0.62854,0 1.13455,-0.907101 1.13455,-2.033854 v -1.355902 c 0,-1.126753 -0.50601,-2.033846 -1.13455,-2.033846 H 173.8187 c -0.62854,0 -1.13454,0.907093 -1.13454,2.033846 v 1.355902 c 0,1.126753 0.506,2.033854 1.13454,2.033854 z m -4.46266,5.313855 h 21.83155 c 0.61581,0 1.11158,-0.888741 1.11158,-1.992694 v -1.328468 c 0,-1.103953 -0.49577,-1.992693 -1.11158,-1.992693 h -21.83155 c -0.61582,0 -1.1116,0.88874 -1.1116,1.992693 v 1.328468 c 0,1.103953 0.49578,1.992694 1.1116,1.992694 z m -2.30298,5.240706 h 26.4711 c 0.61017,0 1.10139,-0.880586 1.10139,-1.974406 v -1.316277 c 0,-1.09382 -0.49122,-1.974406 -1.10139,-1.974406 h -26.4711 c -0.61017,0 -1.10139,0.880586 -1.10139,1.974406 v 1.316277 c 0,1.09382 0.49122,1.974406 1.10139,1.974406 z m -1.86626,5.226712 h 30.31729 c 0.60573,0 1.09337,-0.874168 1.09337,-1.960018 v -1.306676 c 0,-1.085849 -0.48764,-1.960018 -1.09337,-1.960018 H 165.1868 c -0.60573,0 -1.09337,0.874169 -1.09337,1.960018 v 1.306676 c 0,1.08585 0.48764,1.960018 1.09337,1.960018 z m 39.9788,7.811956 A 24.295615,44.269564 0 0 0 181.33458,6.3125471 24.295615,44.269564 0 0 0 156.59214,48.88121 l 24.27785,1.692802 z m -7.17094,0.12097 a 17.476186,31.793965 0 0 0 -17.14199,-31.788143 17.476186,31.793965 0 0 0 -17.7976,30.572383 l 17.4634,1.21576 z m -75.36748,-0.94544 h 31.79559 c 0.79138,0 1.42848,1.1421 1.42848,2.56077 v 1.70717 c 0,1.41867 -0.6371,2.56078 -1.42848,2.56078 h -31.79559 c -0.79138,0 -1.42848,-1.14211 -1.42848,-2.56078 v -1.70717 c 0,-1.41867 0.6371,-2.56077 1.42848,-2.56077 z m 0.44909,7.54164 h 30.3173 c 0.60572,0 1.09336,0.87417 1.09336,1.96002 v 1.30667 c 0,1.08586 -0.48764,1.96002 -1.09336,1.96002 h -30.3173 c -0.60573,0 -1.09337,-0.87416 -1.09337,-1.96002 v -1.30667 c 0,-1.08585 0.48764,-1.96002 1.09337,-1.96002 z m 8.6319,15.78127 h 12.81387 c 0.62854,0 1.13454,0.90711 1.13454,2.03386 v 1.3559 c 0,1.12675 -0.506,2.03385 -1.13454,2.03385 h -12.81387 c -0.62854,0 -1.13454,-0.9071 -1.13454,-2.03385 v -1.3559 c 0,-1.12675 0.506,-2.03386 1.13454,-2.03386 z m -4.46266,-5.31385 h 21.83155 c 0.61582,0 1.11159,0.88874 1.11159,1.9927 v 1.32846 c 0,1.10396 -0.49577,1.99269 -1.11159,1.99269 h -21.83155 c -0.61582,0 -1.11159,-0.88873 -1.11159,-1.99269 v -1.32846 c 0,-1.10396 0.49577,-1.9927 1.11159,-1.9927 z m -2.30298,-5.24071 h 26.47111 c 0.61017,0 1.10139,0.88059 1.10139,1.97441 v 1.31628 c 0,1.09382 -0.49122,1.9744 -1.10139,1.9744 h -26.47111 c -0.61017,0 -1.10139,-0.88058 -1.10139,-1.9744 v -1.31628 c 0,-1.09382 0.49122,-1.97441 1.10139,-1.97441 z m -1.86626,-5.22671 h 30.3173 c 0.60572,0 1.09336,0.87417 1.09336,1.96002 v 1.30667 c 0,1.08586 -0.48764,1.96002 -1.09336,1.96002 h -30.3173 c -0.60573,0 -1.09337,-0.87416 -1.09337,-1.96002 v -1.30667 c 0,-1.08585 0.48764,-1.96002 1.09337,-1.96002 z m 39.9788,-7.81196 a 24.295615,44.269564 0 0 1 -23.83101,44.26147 24.295615,44.269564 0 0 1 -24.74245,-42.56866 l 24.27785,-1.69281 z m -7.17094,-0.12097 a 17.476186,31.793965 0 0 1 -17.14199,31.78815 17.476186,31.793965 0 0 1 -17.7976,-30.57239 l 17.46341,-1.21576 z" />
    <path
       style="fill:#80e5ff;stroke:#000000;stroke-width:1.41741;stroke-linecap:round;stroke-linejoin:round;stroke-opacity:0.955017;paint-order:stroke markers fill"
       d=""
       id="path2441"
       transform="scale(0.26458333)" />
    <path
       style="fill:#80e5ff;stroke:#000000;stroke-width:1.41741;stroke-linecap:round;stroke-linejoin:round;stroke-opacity:0.955017;paint-order:stroke markers fill"
       d=""
       id="path2480"
       transform="scale(0.26458333)" />
    <path
       style="fill:#000000;stroke:#000000;stroke-width:1.41741;stroke-linecap:round;stroke-linejoin:round;stroke-opacity:0.955017;paint-order:stroke markers fill"
       d=""
       id="path2712"
       transform="scale(0.26458333)" />
    <path
       style="fill:#000000;stroke:#000000;stroke-width:1.41741;stroke-linecap:round;stroke-linejoin:round;stroke-opacity:0.955017;paint-order:stroke markers fill"
       d=""
       id="path2751"
       transform="scale(0.26458333)" />
    <path
       style="fill:#000000;stroke:#000000;stroke-width:1.41741;stroke-linecap:round;stroke-linejoin:round;stroke-opacity:0.955017;paint-order:stroke markers fill"
       d=""
       id="path2829"
       transform="scale(0.26458333)" />
    <path
       style="fill:#000000;stroke:#000000;stroke-width:1.41741;stroke-linecap:round;stroke-linejoin:round;stroke-opacity:0.955017;paint-order:stroke markers fill"
       d=""
       id="path2944"
       transform="scale(0.26458333)" />
    <path
       style="fill:#000000;stroke:#000000;stroke-width:1.41741;stroke-linecap:round;stroke-linejoin:round;stroke-opacity:0.955017;paint-order:stroke markers fill"
       d=""
       id="path3022"
       transform="scale(0.26458333)" />
    <g
       id="g3205">
      <path
         id="path1163"
         style="fill:none;stroke:#000000;stroke-width:1.17431;stroke-linecap:round;stroke-linejoin:round;stroke-opacity:0.955017;paint-order:stroke markers fill"
         d="m 164.79087,257.82148 h 32.13958 c 0.79993,0 1.44393,-1.01161 1.44393,-2.26819 v -1.51213 c 0,-1.25658 -0.644,-2.26819 -1.44393,-2.26819 h -32.13958 c -0.79994,0 -1.44394,1.01161 -1.44394,2.26819 v 1.51213 c 0,1.25658 0.644,2.26819 1.44394,2.26819 z m 0.45395,-6.67998 h 30.64529 c 0.61228,0 1.10519,-0.77429 1.10519,-1.73608 v -1.15739 c 0,-0.96179 -0.49291,-1.73608 -1.10519,-1.73608 h -30.64529 c -0.61228,0 -1.10519,0.77429 -1.10519,1.73608 v 1.15739 c 0,0.96179 0.49291,1.73608 1.10519,1.73608 z m 8.72529,-13.97823 h 12.95249 c 0.63534,0 1.14682,-0.80347 1.14682,-1.80148 v -1.20099 c 0,-0.99802 -0.51148,-1.80148 -1.14682,-1.80148 h -12.95249 c -0.63534,0 -1.14682,0.80346 -1.14682,1.80148 v 1.20099 c 0,0.99801 0.51148,1.80148 1.14682,1.80148 z m -4.51094,4.70673 h 22.06773 c 0.62248,0 1.12362,-0.7872 1.12362,-1.76502 v -1.17669 c 0,-0.97782 -0.50114,-1.76502 -1.12362,-1.76502 h -22.06773 c -0.62248,0 -1.12362,0.7872 -1.12362,1.76502 v 1.17669 c 0,0.97782 0.50114,1.76502 1.12362,1.76502 z m -2.3279,4.64195 h 26.75749 c 0.61677,0 1.1133,-0.77998 1.1133,-1.74883 v -1.16589 c 0,-0.96884 -0.49653,-1.74882 -1.1133,-1.74882 h -26.75749 c -0.61677,0 -1.11331,0.77998 -1.11331,1.74882 v 1.16589 c 0,0.96885 0.49654,1.74883 1.11331,1.74883 z m -1.88645,4.62955 h 30.64529 c 0.61228,0 1.10519,-0.77429 1.10519,-1.73608 v -1.15739 c 0,-0.96179 -0.49291,-1.73608 -1.10519,-1.73608 h -30.64529 c -0.61228,0 -1.10519,0.77429 -1.10519,1.73608 v 1.15739 c 0,0.96179 0.49291,1.73608 1.10519,1.73608 z m 40.41131,6.91942 a 24.558459,39.211675 0 0 0 -24.08883,-39.2045 24.558459,39.211675 0 0 0 -25.01012,37.7051 l 24.5405,1.4994 z m -7.24851,0.10715 a 17.665253,28.16144 0 0 0 -17.32744,-28.15628 17.665253,28.16144 0 0 0 -17.99015,27.07943 l 17.65233,1.07685 z m -76.18285,-0.83742 h 32.13957 c 0.79994,0 1.44394,1.01161 1.44394,2.26819 v 1.51213 c 0,1.25658 -0.644,2.2682 -1.44394,2.2682 h -32.13957 c -0.79994,0 -1.44394,-1.01162 -1.44394,-2.2682 v -1.51213 c 0,-1.25658 0.644,-2.26819 1.44394,-2.26819 z m 0.45394,6.67999 h 30.6453 c 0.61227,0 1.10519,0.7743 1.10519,1.73608 v 1.15739 c 0,0.96179 -0.49292,1.73608 -1.10519,1.73608 h -30.6453 c -0.61227,0 -1.10519,-0.77429 -1.10519,-1.73608 v -1.15739 c 0,-0.96178 0.49292,-1.73608 1.10519,-1.73608 z m 8.7253,13.97823 h 12.95249 c 0.63534,0 1.14682,0.80347 1.14682,1.80148 v 1.20099 c 0,0.99802 -0.51148,1.80148 -1.14682,1.80148 h -12.95249 c -0.63534,0 -1.14683,-0.80346 -1.14683,-1.80148 v -1.20099 c 0,-0.99801 0.51149,-1.80148 1.14683,-1.80148 z m -4.51095,-4.70674 h 22.06774 c 0.62248,0 1.12362,0.78721 1.12362,1.76503 v 1.17669 c 0,0.97782 -0.50114,1.76502 -1.12362,1.76502 h -22.06774 c -0.62248,0 -1.12361,-0.7872 -1.12361,-1.76502 v -1.17669 c 0,-0.97782 0.50113,-1.76503 1.12361,-1.76503 z m -2.32789,-4.64194 h 26.75748 c 0.61678,0 1.11331,0.77998 1.11331,1.74883 v 1.16589 c 0,0.96885 -0.49653,1.74882 -1.11331,1.74882 h -26.75748 c -0.61677,0 -1.11331,-0.77997 -1.11331,-1.74882 v -1.16589 c 0,-0.96885 0.49654,-1.74883 1.11331,-1.74883 z m -1.88646,-4.62955 h 30.6453 c 0.61227,0 1.10519,0.7743 1.10519,1.73608 v 1.15739 c 0,0.96179 -0.49292,1.73608 -1.10519,1.73608 h -30.6453 c -0.61227,0 -1.10519,-0.77429 -1.10519,-1.73608 v -1.15739 c 0,-0.96178 0.49292,-1.73608 1.10519,-1.73608 z m 40.41132,-6.91942 a 24.558459,39.211675 0 0 1 -24.08883,39.2045 24.558459,39.211675 0 0 1 -25.01012,-37.70511 l 24.54049,-1.49939 z m -7.24852,-0.10716 a 17.665253,28.16144 0 0 1 -17.32744,28.15629 17.665253,28.16144 0 0 1 -17.99014,-27.07943 l 17.65233,-1.07686 z" />
      <path
         style="fill:#006680;stroke:#000000;stroke-width:12.1792;stroke-linecap:round;stroke-linejoin:round;stroke-opacity:0.955017;paint-order:stroke markers fill"
         d="m 505.98756,1113.878 c -32.07952,-11.9779 -58.33408,-50.4051 -67.72512,-99.125 -1.42807,-7.4087 -3.08024,-18.32992 -3.67148,-24.26937 l -1.075,-10.79899 h 9.25844 9.25843 l 2.25507,15.98251 c 2.99849,21.25135 10.58842,41.61435 21.07872,56.55205 14.60304,20.794 29.1526,28.6955 50.31151,27.3231 14.59368,-0.9466 21.04402,-3.8617 32.72836,-14.791 10.17857,-9.5209 18.55671,-23.0392 24.3702,-39.322 4.41573,-12.3678 9.87204,-37.96418 9.87204,-46.31127 0,-4.49099 0.28273,-4.61691 10.36704,-4.61691 12.06952,0 11.68078,-1.09958 8.56826,24.23508 -6.36855,51.8377 -30.66196,95.342 -62.27412,111.5196 -11.25165,5.7581 -32.78102,7.5582 -43.32235,3.6222 z"
         id="path1476"
         transform="scale(0.26458333)" />
      <path
         style="fill:#006680;stroke:#000000;stroke-width:12.1792;stroke-linecap:round;stroke-linejoin:round;stroke-opacity:0.955017;paint-order:stroke markers fill"
         d="m 753.33775,966.91605 c 0,-14.91203 -8.51824,-46.085 -17.29313,-63.28522 -5.76386,-11.29809 -23.10179,-28.44933 -33.2446,-32.88662 -18.18477,-7.95551 -38.95113,-4.04169 -55.45884,10.45227 -15.05484,13.21832 -28.50347,42.55166 -32.28164,70.41078 l -2.16751,15.98251 h -9.17632 -9.17632 l 0.88812,-9.07116 c 5.85985,-59.8514 29.28512,-104.51904 63.74512,-121.55009 10.688,-5.2823 14.24348,-6.18293 24.40861,-6.18293 34.17595,0 63.75361,28.57024 79.91566,77.19374 5.0206,15.10449 10.57492,45.84977 10.57492,58.53631 v 6.25765 h -10.36704 -10.36703 z"
         id="path1515"
         transform="scale(0.26458333)" />
      <path
         style="fill:#5fd3bc;stroke:#000000;stroke-width:12.1792;stroke-linecap:round;stroke-linejoin:round;stroke-opacity:0.955017;paint-order:stroke markers fill"
         d="m 635.84471,969.44096 c -13.4547,-0.90446 -14.73197,-1.3059 -15.22709,-4.78578 -0.29725,-2.08918 0.31326,-5.39367 1.35667,-7.34331 1.85663,-3.46915 3.1669,-3.54481 61.38598,-3.54481 58.19898,0 59.52995,0.0768 61.38402,3.54112 1.04233,1.94762 1.65283,5.64088 1.35666,8.20724 l -0.53848,4.66611 -47.51557,0.12335 c -26.13356,0.0678 -54.12455,-0.32092 -62.20219,-0.86392 z"
         id="path1628"
         transform="scale(0.26458333)" />
      <path
         style="fill:#5fd3bc;stroke:#000000;stroke-width:12.1792;stroke-linecap:round;stroke-linejoin:round;stroke-opacity:0.955017;paint-order:stroke markers fill"
         d="m 460.75703,990.62762 c -0.63354,-0.63354 -1.15189,-3.62485 -1.15189,-6.64736 v -5.49547 l 19.43819,-1.12006 c 32.23495,-1.85742 104.61371,-1.37614 105.89942,0.70418 0.62543,1.01198 0.63609,4.51085 0.0237,7.77528 l -1.11347,5.93532 h -60.97201 c -33.53461,0 -61.49037,-0.51835 -62.12391,-1.15189 z"
         id="path1667"
         transform="scale(0.26458333)" />
      <path
         style="fill:#5fd3bc;stroke:#000000;stroke-width:6.99658;stroke-linecap:round;stroke-linejoin:round;stroke-opacity:0.955017;paint-order:stroke markers fill"
         d="m 623.71187,945.45983 c -0.31348,-0.81691 -0.033,-3.72381 0.6234,-6.45977 l 1.19335,-4.97448 h 57.45221 57.45222 l 0.58426,2.32794 c 0.32136,1.28037 0.44154,4.07202 0.26707,6.20368 l -0.31722,3.87573 -58.34267,0.2561 c -51.04096,0.22404 -58.41399,0.0702 -58.91262,-1.2292 z"
         id="path1821"
         transform="scale(0.26458333)" />
      <path
         style="fill:#5fd3bc;stroke:#000000;stroke-width:6.99658;stroke-linecap:round;stroke-linejoin:round;stroke-opacity:0.955017;paint-order:stroke markers fill"
         d="m 630.95529,928.40091 c -0.36395,-0.36395 -0.66173,-2.33741 -0.66173,-4.38546 0,-7.4543 -4.48254,-6.86387 52.11089,-6.86387 55.93665,0 52.11088,-0.43723 52.11088,5.95553 0,6.39256 3.81964,5.95553 -52.05165,5.95553 -27.96566,0 -51.14444,-0.29778 -51.50839,-0.66173 z"
         id="path1860"
         transform="scale(0.26458333)" />
      <path
         style="fill:#5fd3bc;stroke:#000000;stroke-width:6.99658;stroke-linecap:round;stroke-linejoin:round;stroke-opacity:0.955017;paint-order:stroke markers fill"
         d="m 639.88858,910.53432 c -0.36395,-0.36395 -0.66172,-2.33741 -0.66172,-4.38546 0,-7.41523 -3.46837,-6.86387 43.17759,-6.86387 46.08037,0 43.17759,-0.40038 43.17759,5.95553 0,6.35562 2.89667,5.95553 -43.11836,5.95553 -23.05235,0 -42.21115,-0.29778 -42.5751,-0.66173 z"
         id="path1899"
         transform="scale(0.26458333)" />
      <path
         style="fill:#5fd3bc;stroke:#000000;stroke-width:6.99658;stroke-linecap:round;stroke-linejoin:round;stroke-opacity:0.955017;paint-order:stroke markers fill"
         d="m 656.77925,892.6844 c -0.37312,-0.37312 -0.67839,-2.82156 -0.67839,-5.44098 0,-3.72108 0.42723,-4.99123 1.95363,-5.80814 1.25371,-0.67096 10.4107,-0.95018 25.55915,-0.77936 l 23.60552,0.26619 v 5.95553 5.95553 l -24.88077,0.2648 c -13.68441,0.14565 -25.18603,-0.0405 -25.55914,-0.41357 z"
         id="path1938"
         transform="scale(0.26458333)" />
      <path
         style="fill:#5fd3bc;stroke:#000000;stroke-width:6.99658;stroke-linecap:round;stroke-linejoin:round;stroke-opacity:0.955017;paint-order:stroke markers fill"
         d="m 463.5186,1008.395 c -2.16734,-8.0489 -7.52223,-7.3697 58.10014,-7.3697 h 58.54911 l 0.32129,3.3632 c 0.1767,1.8498 0.0566,4.4182 -0.26706,5.7074 l -0.58834,2.3442 h -57.51295 -57.51295 z"
         id="path1977"
         transform="scale(0.26458333)" />
      <path
         style="fill:#5fd3bc;stroke:#000000;stroke-width:6.99658;stroke-linecap:round;stroke-linejoin:round;stroke-opacity:0.955017;paint-order:stroke markers fill"
         d="m 469.93633,1027.9625 c -0.32358,-1.2892 -0.44376,-3.8576 -0.26705,-5.7074 l 0.32127,-3.3632 51.3453,-0.2571 51.34529,-0.2571 0.62669,2.497 c 0.34468,1.3733 0.33396,4.0573 -0.0238,5.9644 l -0.65053,3.4675 h -51.0544 -51.05441 z"
         id="path2016"
         transform="scale(0.26458333)" />
      <path
         style="fill:#5fd3bc;stroke:#000000;stroke-width:6.99658;stroke-linecap:round;stroke-linejoin:round;stroke-opacity:0.955017;paint-order:stroke markers fill"
         d="m 479.39985,1046.1501 c -0.5955,-1.1127 -0.94622,-3.9043 -0.77937,-6.2036 l 0.30337,-4.1806 41.68871,-0.2611 c 38.31068,-0.2399 41.78924,-0.124 42.92944,1.4305 1.50663,2.054 1.613,6.7025 0.21322,9.318 -0.99048,1.8508 -2.50927,1.9199 -42.15007,1.9199 -40.36365,0 -41.14255,-0.037 -42.2053,-2.0231 z"
         id="path2055"
         transform="scale(0.26458333)" />
      <path
         style="fill:#5fd3bc;stroke:#000000;stroke-width:6.99658;stroke-linecap:round;stroke-linejoin:round;stroke-opacity:0.955017;paint-order:stroke markers fill"
         d="m 496.48507,1065.196 c -0.87498,-0.5615 -1.19844,-2.5814 -0.99259,-6.1982 l 0.30537,-5.3653 h 25.311 25.311 v 5.9555 5.9555 l -24.31841,0.2427 c -13.37513,0.1335 -24.90249,-0.1321 -25.61637,-0.5902 z"
         id="path2094"
         transform="scale(0.26458333)" />
      <path
         style="fill:#80e5ff;stroke:#000000;stroke-width:4.03483;stroke-linecap:round;stroke-linejoin:round;stroke-opacity:0.955017;paint-order:stroke markers fill"
         d="m 712.879,893.20348 c 0.19109,-0.49799 0.34745,-2.35805 0.34745,-4.13346 V 885.842 l 3.72068,3.68761 c 2.04638,2.02819 3.72068,3.88824 3.72068,4.13346 0,0.24522 -1.83066,0.44585 -4.06813,0.44585 -3.47443,0 -4.01742,-0.13214 -3.72068,-0.90544 z"
         id="path2170"
         transform="scale(0.26458333)" />
      <path
         style="fill:#80e5ff;stroke:#000000;stroke-width:3.49829;stroke-linecap:round;stroke-linejoin:round;stroke-opacity:0.955017;paint-order:stroke markers fill"
         d="m 645.15501,892.95724 c 0.2771,-0.47768 1.61785,-2.09684 2.97943,-3.59813 l 2.47559,-2.72962 0.0158,2.04721 c 0.009,1.12597 0.15538,2.74513 0.32598,3.59813 l 0.31018,1.55092 h -3.30541 c -3.00908,0 -3.26024,-0.0779 -2.80157,-0.86851 z"
         id="path2285"
         transform="scale(0.26458333)" />
      <path
         style="fill:#80e5ff;stroke:#000000;stroke-width:3.49829;stroke-linecap:round;stroke-linejoin:round;stroke-opacity:0.955017;paint-order:stroke markers fill"
         d="m 668.50821,875.76656 c 0,-0.10594 2.06583,-0.7201 4.59072,-1.36481 5.86431,-1.4974 14.66656,-1.59248 19.97584,-0.21577 1.91074,0.49546 3.80906,1.09032 4.2185,1.32192 0.4209,0.23807 -5.67253,0.42764 -14.02031,0.43617 -8.12061,0.008 -14.76475,-0.0716 -14.76475,-0.17751 z"
         id="path2324"
         transform="scale(0.26458333)" />
      <path
         style="fill:#80e5ff;stroke:#000000;stroke-width:2.46321;stroke-linecap:round;stroke-linejoin:round;stroke-opacity:0.955017;paint-order:stroke markers fill"
         d="m 730.13326,910.62447 c 0.12012,-0.60061 0.22604,-1.7407 0.23536,-2.53351 l 0.017,-1.44149 1.18916,2.27143 c 0.65405,1.24929 1.1968,2.38937 1.20613,2.53352 0.009,0.14415 -0.63172,0.26209 -1.42453,0.26209 -1.42809,0 -1.43946,-0.0101 -1.22308,-1.09204 z"
         id="path2402"
         transform="scale(0.26458333)" />
      <path
         style="fill:#80e5ff;stroke:#000000;stroke-width:1.41741;stroke-linecap:round;stroke-linejoin:round;stroke-opacity:0.955017;paint-order:stroke markers fill"
         d="m 517.67491,1073.377 c -1.33686,-0.085 -3.28235,-0.3009 -4.32332,-0.4788 -1.78866,-0.3057 -6.41776,-1.4526 -6.60052,-1.6354 -0.0466,-0.046 6.96587,-0.076 15.58319,-0.065 13.90498,0.018 15.56603,0.052 14.76296,0.3079 -1.60407,0.5107 -4.30816,1.0607 -6.75891,1.3747 -2.18564,0.28 -8.87302,0.7413 -9.83057,0.6781 -0.2212,-0.015 -1.49597,-0.096 -2.83283,-0.1818 z"
         id="path2519"
         transform="scale(0.26458333)" />
      <path
         style="fill:#80e5ff;stroke:#000000;stroke-width:1.41741;stroke-linecap:round;stroke-linejoin:round;stroke-opacity:0.955017;paint-order:stroke markers fill"
         d="m 488.62021,1058.7678 c -1.29257,-1.3329 -2.75563,-3.0136 -4.29432,-4.9332 l -0.76564,-0.9551 h 3.62407 3.62406 l -0.30651,0.9551 c -0.1698,0.5291 -0.36284,2.1466 -0.43277,3.6262 l -0.12624,2.671 z"
         id="path2558"
         transform="scale(0.26458333)" />
      <path
         style="fill:#80e5ff;stroke:#000000;stroke-width:1.41741;stroke-linecap:round;stroke-linejoin:round;stroke-opacity:0.955017;paint-order:stroke markers fill"
         d="m 552.13195,1058.2617 c -0.0636,-2.7443 -0.16786,-3.8891 -0.41248,-4.5276 l -0.32739,-0.8546 h 4.74119 c 4.48393,0 4.72658,0.019 4.47197,0.3519 -1.52027,1.9871 -5.33795,6.0483 -7.25119,7.7137 l -1.13701,0.9897 z"
         id="path2597"
         transform="scale(0.26458333)" />
      <path
         style="fill:#80e5ff;stroke:#000000;stroke-width:1.41741;stroke-linecap:round;stroke-linejoin:round;stroke-opacity:0.955017;paint-order:stroke markers fill"
         d="m 569.47261,1038.7955 c -4.1e-4,-0.6127 -0.13648,-1.6351 -0.30238,-2.272 -0.16589,-0.6369 -0.30162,-1.1988 -0.30162,-1.2488 0,-0.05 0.67866,-0.091 1.50813,-0.091 0.82948,0 1.50814,0.047 1.50814,0.105 0,0.1549 -1.54131,3.1932 -2.00895,3.9602 l -0.40257,0.6603 z"
         id="path2636"
         transform="scale(0.26458333)" />
      <path
         style="fill:#000000;stroke:#000000;stroke-width:1.41741;stroke-linecap:round;stroke-linejoin:round;stroke-opacity:0.955017;paint-order:stroke markers fill"
         d="m 578.31959,1020.7739 c 0,-0.5156 0.15225,-1.4205 0.33835,-2.0109 0.2865,-0.9089 0.41305,-1.0734 0.82585,-1.0734 0.30651,0 0.4523,0.093 0.3927,0.2514 -0.0521,0.1383 -0.35194,1.0431 -0.66622,2.0109 -0.31427,0.9677 -0.64324,1.7594 -0.73105,1.7594 -0.0878,0 -0.15963,-0.4218 -0.15963,-0.9374 z"
         id="path2790"
         transform="scale(0.26458333)" />
      <path
         style="fill:#000000;stroke:#000000;stroke-width:1.41741;stroke-linecap:round;stroke-linejoin:round;stroke-opacity:0.955017;paint-order:stroke markers fill"
         d="m 577.11308,1022.3294 c 0,-0.8383 -0.8273,-4.5301 -1.20868,-5.3938 l -0.37738,-0.8546 h 1.89268 c 1.71605,0 1.88104,0.033 1.76789,0.3519 -0.22265,0.6278 -0.71816,1.0557 -1.22259,1.0557 -0.43992,0 -0.47737,0.06 -0.34577,0.5529 0.17697,0.6631 0.18002,0.5289 -0.062,2.7242 -0.18279,1.6581 -0.44416,2.5783 -0.44416,1.5637 z"
         id="path2868"
         transform="scale(0.26458333)" />
      <path
         style="fill:#000000;stroke:#000000;stroke-width:1.41741;stroke-linecap:round;stroke-linejoin:round;stroke-opacity:0.955017;paint-order:stroke markers fill"
         d="m 632.52642,913.59287 c 0.2889,-0.64408 0.57186,-1.28417 0.62879,-1.42242 0.0585,-0.14208 0.45405,-0.25135 0.9098,-0.25135 0.74115,0 0.79563,-0.0365 0.67446,-0.45244 -0.38997,-1.33845 -0.3607,-1.73406 0.2121,-2.86738 0.65574,-1.29742 0.62942,-1.32936 1.05556,1.28126 0.26972,1.65233 0.76648,2.59086 1.78444,3.37136 l 0.82038,0.629 -1.64242,0.13631 c -1.74912,0.14518 -4.02488,0.46029 -4.61245,0.63867 -0.31125,0.0945 -0.29,-0.0389 0.16934,-1.06301 z"
         id="path2983"
         transform="scale(0.26458333)" />
      <path
         style="fill:#000000;stroke:#000000;stroke-width:1.41741;stroke-linecap:round;stroke-linejoin:round;stroke-opacity:0.955017;paint-order:stroke markers fill"
         d="m 736.14449,929.90769 c 0.88109,-0.74139 1.48383,-1.81986 1.84495,-3.30117 l 0.31716,-1.30095 0.26542,0.94798 c 0.32327,1.15461 0.61532,1.22842 0.61532,0.15551 0,-1.35651 0.33381,-1.08395 0.9118,0.7445 0.3055,0.96646 0.59973,1.87752 0.65384,2.02458 0.0705,0.19151 -0.0648,0.24857 -0.47666,0.20108 -0.49617,-0.0572 -0.61189,-0.1973 -0.84369,-1.02145 -0.31404,-1.11649 -0.54749,-1.21512 -0.71386,-0.30162 -0.0655,0.35943 -0.17667,0.85072 -0.24713,1.09175 -0.11143,0.38117 -0.0407,0.44662 0.54351,0.50271 0.44747,0.043 0.69386,0.18193 0.73827,0.41638 0.0601,0.31729 -0.14397,0.3519 -2.07489,0.3519 h -2.14157 z"
         id="path3061"
         transform="scale(0.26458333)" />
    </g>
    <path
       style="fill:#ffffff;stroke:#000000;stroke-width:1.7445;stroke-linecap:round;stroke-linejoin:round;stroke-opacity:0.955017;paint-order:stroke markers fill"
       d=""
       id="path4120"
       transform="scale(0.26458333)" />
    <path
       style="fill:#ffffff;stroke:#000000;stroke-width:1.7445;stroke-linecap:round;stroke-linejoin:round;stroke-opacity:0.955017;paint-order:stroke markers fill"
       d=""
       id="path4198"
       transform="scale(0.26458333)" />
    <path
       style="fill:#ffffff;stroke:#000000;stroke-width:1.7445;stroke-linecap:round;stroke-linejoin:round;stroke-opacity:0.955017;paint-order:stroke markers fill"
       d=""
       id="path4237"
       transform="scale(0.26458333)" />
    <g
       id="g5356"
       transform="translate(-11.757921,0.17291061)">
      <path
         id="path1159"
         style="fill:none;stroke:#000000;stroke-width:1.17431;stroke-linecap:round;stroke-linejoin:round;stroke-opacity:0.955017;paint-order:stroke markers fill"
         d="M 81.613624,251.843 H 113.7532 c 0.79993,0 1.44393,-1.01161 1.44393,-2.26819 v -1.51213 c 0,-1.25658 -0.644,-2.26819 -1.44393,-2.26819 H 81.613624 c -0.799943,0 -1.443938,1.01161 -1.443938,2.26819 v 1.51213 c 0,1.25658 0.643995,2.26819 1.443938,2.26819 z m 0.453949,-6.67998 h 30.645287 c 0.61228,0 1.10519,-0.77429 1.10519,-1.73608 v -1.15739 c 0,-0.96179 -0.49291,-1.73608 -1.10519,-1.73608 H 82.067573 c -0.612279,0 -1.105193,0.77429 -1.105193,1.73608 v 1.15739 c 0,0.96179 0.492914,1.73608 1.105193,1.73608 z m 8.725287,-13.97823 h 12.95249 c 0.63534,0 1.14682,-0.80347 1.14682,-1.80148 v -1.20099 c 0,-0.99802 -0.51148,-1.80148 -1.14682,-1.80148 H 90.79286 c -0.635337,0 -1.146817,0.80346 -1.146817,1.80148 v 1.20099 c 0,0.99801 0.51148,1.80148 1.146817,1.80148 z m -4.510939,4.70673 h 22.067729 c 0.62248,0 1.12362,-0.7872 1.12362,-1.76502 v -1.17669 c 0,-0.97782 -0.50114,-1.76502 -1.12362,-1.76502 H 86.281921 c -0.622481,0 -1.123621,0.7872 -1.123621,1.76502 v 1.17669 c 0,0.97782 0.50114,1.76502 1.123621,1.76502 z m -2.327898,4.64195 h 26.757487 c 0.61677,0 1.1133,-0.77998 1.1133,-1.74883 v -1.16589 c 0,-0.96884 -0.49653,-1.74882 -1.1133,-1.74882 H 83.954023 c -0.616769,0 -1.113307,0.77998 -1.113307,1.74882 v 1.16589 c 0,0.96885 0.496538,1.74883 1.113307,1.74883 z m -1.88645,4.62955 h 30.645287 c 0.61228,0 1.10519,-0.77429 1.10519,-1.73608 v -1.15739 c 0,-0.96179 -0.49291,-1.73608 -1.10519,-1.73608 H 82.067573 c -0.612279,0 -1.105193,0.77429 -1.105193,1.73608 v 1.15739 c 0,0.96179 0.492914,1.73608 1.105193,1.73608 z m 40.411307,6.91942 a 24.558459,39.211675 0 0 0 -24.088826,-39.2045 24.558459,39.211675 0 0 0 -25.010122,37.7051 l 24.540502,1.4994 z m -7.24851,0.10715 A 17.665253,28.16144 0 0 0 97.902931,224.03331 17.665253,28.16144 0 0 0 79.912783,251.11274 l 17.652334,1.07685 z m -76.182849,-0.83742 h 32.139576 c 0.799939,0 1.443932,1.01161 1.443932,2.26819 v 1.51213 c 0,1.25658 -0.643993,2.2682 -1.443932,2.2682 H 39.047521 c -0.799941,0 -1.443936,-1.01162 -1.443936,-2.2682 v -1.51213 c 0,-1.25658 0.643995,-2.26819 1.443936,-2.26819 z m 0.453948,6.67999 h 30.64529 c 0.612276,0 1.105192,0.7743 1.105192,1.73608 v 1.15739 c 0,0.96179 -0.492916,1.73608 -1.105192,1.73608 h -30.64529 c -0.612276,0 -1.105192,-0.77429 -1.105192,-1.73608 v -1.15739 c 0,-0.96178 0.492916,-1.73608 1.105192,-1.73608 z m 8.725292,13.97823 h 12.95249 c 0.635341,0 1.146821,0.80347 1.146821,1.80148 v 1.20099 c 0,0.99802 -0.51148,1.80148 -1.146821,1.80148 h -12.95249 c -0.63534,0 -1.146823,-0.80346 -1.146823,-1.80148 v -1.20099 c 0,-0.99801 0.511483,-1.80148 1.146823,-1.80148 z m -4.510943,-4.70674 h 22.067735 c 0.622484,0 1.123616,0.78721 1.123616,1.76503 v 1.17669 c 0,0.97782 -0.501132,1.76502 -1.123616,1.76502 H 43.715818 c -0.622484,0 -1.123618,-0.7872 -1.123618,-1.76502 v -1.17669 c 0,-0.97782 0.501134,-1.76503 1.123618,-1.76503 z m -2.327897,-4.64194 h 26.757486 c 0.616772,0 1.113306,0.77998 1.113306,1.74883 v 1.16589 c 0,0.96885 -0.496534,1.74882 -1.113306,1.74882 H 41.387921 c -0.616772,0 -1.113306,-0.77997 -1.113306,-1.74882 v -1.16589 c 0,-0.96885 0.496534,-1.74883 1.113306,-1.74883 z m -1.886452,-4.62955 h 30.64529 c 0.612276,0 1.105192,0.7743 1.105192,1.73608 v 1.15739 c 0,0.96179 -0.492916,1.73608 -1.105192,1.73608 h -30.64529 c -0.612276,0 -1.105192,-0.77429 -1.105192,-1.73608 v -1.15739 c 0,-0.96178 0.492916,-1.73608 1.105192,-1.73608 z m 40.411314,-6.91942 a 24.558459,39.211675 0 0 1 -24.088828,39.2045 24.558459,39.211675 0 0 1 -25.010124,-37.70511 l 24.540497,-1.49939 z m -7.248515,-0.10716 A 17.665253,28.16144 0 0 1 55.336825,279.16187 17.665253,28.16144 0 0 1 37.346683,252.08244 l 17.652333,-1.07686 z" />
      <path
         style="fill:#ffffff;stroke:#000000;stroke-width:1.40765;stroke-linecap:round;stroke-linejoin:round;stroke-opacity:0.955017;paint-order:stroke markers fill"
         d="m 52.206826,289.28856 c -5.422484,-1.20531 -10.565273,-5.53992 -14.310561,-12.06172 -2.694977,-4.69286 -4.550682,-10.06895 -5.552296,-16.08537 -0.406605,-2.44236 -0.806048,-6.00232 -0.806048,-7.18375 v -0.66075 l 1.447821,-0.11182 c 0.796303,-0.0615 1.952523,-0.14297 2.569379,-0.18103 l 1.121556,-0.0692 0.128573,1.71165 c 0.609668,8.1164 3.649903,15.86922 7.980804,20.35166 4.577595,4.73776 10.30451,6.07216 15.504923,3.61278 5.809996,-2.7477 10.502609,-10.01763 12.172439,-18.85788 0.228214,-1.20818 0.504208,-2.57991 0.613323,-3.04828 0.109116,-0.46838 0.198392,-1.74895 0.198392,-2.84572 V 251.865 h 2.995494 c 2.719903,0 2.995448,0.0322 2.995009,0.34947 -0.0016,1.17788 -0.445532,6.06845 -0.711444,7.83821 -1.120703,7.4588 -4.027164,15.14288 -7.620058,20.14586 -1.577599,2.19675 -4.116649,4.81629 -5.905698,6.09293 -1.533099,1.094 -4.199723,2.38953 -5.832123,2.83345 -1.714707,0.4663 -5.255016,0.54919 -6.989485,0.16364 z"
         id="path3262" />
      <path
         style="fill:#ffffff;stroke:#000000;stroke-width:1.40765;stroke-linecap:round;stroke-linejoin:round;stroke-opacity:0.955017;paint-order:stroke markers fill"
         d="m 115.76145,249.01928 c -0.0877,-2.60973 -0.61657,-5.74839 -1.45735,-8.64974 -2.1977,-7.58382 -6.21079,-13.21881 -11.13761,-15.6389 -11.044281,-5.42505 -22.352814,5.92806 -23.819838,23.91375 l -0.136382,1.67203 -1.020498,-0.12263 c -0.561274,-0.0674 -1.604621,-0.12478 -2.318547,-0.12741 -0.713925,-0.003 -1.418521,-0.0812 -1.565769,-0.17448 -0.221221,-0.14022 -0.2271,-0.63397 -0.03385,-2.84267 1.432954,-16.37725 8.873802,-29.25437 18.873629,-32.66266 6.035577,-2.05714 12.273285,-0.15089 17.598745,5.37819 2.41411,2.50641 4.18713,5.10745 5.94497,8.7213 2.86876,5.89776 4.59066,12.93413 5.02475,20.53322 l 0.13975,2.44632 h -3.00487 -3.00487 z"
         id="path3301" />
      <path
         style="fill:#ffffff;stroke:#000000;stroke-width:1.40765;stroke-linecap:round;stroke-linejoin:round;stroke-opacity:0.955017;paint-order:stroke markers fill"
         d="m 85.956054,250.68691 -4.992489,-0.31966 -0.0591,-1.46887 c -0.04334,-1.07728 0.02445,-1.59637 0.254227,-1.94708 l 0.313328,-0.47819 h 16.259127 c 11.545783,0 16.298233,0.0633 16.394013,0.21826 0.26385,0.42691 0.34731,3.49162 0.1073,3.94008 l -0.23267,0.43475 -11.52562,-0.0298 c -8.046592,-0.0208 -13.032623,-0.1263 -16.518117,-0.34947 z"
         id="path3340" />
      <path
         style="fill:#ffffff;stroke:#000000;stroke-width:1.40765;stroke-linecap:round;stroke-linejoin:round;stroke-opacity:0.955017;paint-order:stroke markers fill"
         d="m 81.86013,244.17405 c -0.275585,-0.33206 -0.159806,-2.41172 0.151598,-2.72313 0.09488,-0.0949 7.087037,-0.14947 15.538135,-0.12132 l 15.365637,0.0512 0.18499,0.74887 c 0.11353,0.45957 0.11353,1.03818 0,1.49775 l -0.18499,0.74887 -15.401326,0.0512 c -13.599465,0.0452 -15.430889,0.0155 -15.654044,-0.25336 z"
         id="path3379" />
      <path
         style="fill:#ffffff;stroke:#000000;stroke-width:1.40765;stroke-linecap:round;stroke-linejoin:round;stroke-opacity:0.955017;paint-order:stroke markers fill"
         d="m 83.654566,239.37077 c -0.107117,-0.28173 -0.194757,-0.81507 -0.194757,-1.18519 0,-0.37013 0.08764,-0.90346 0.194757,-1.1852 l 0.194757,-0.51225 h 13.45261 13.452607 l 0.23175,0.50864 c 0.28276,0.62059 0.29933,1.68402 0.037,2.374 l -0.19475,0.51225 H 97.338929 83.849323 Z"
         id="path3418" />
      <path
         style="fill:#ffffff;stroke:#000000;stroke-width:1.40765;stroke-linecap:round;stroke-linejoin:round;stroke-opacity:0.955017;paint-order:stroke markers fill"
         d="m 85.97742,234.77435 c -0.156848,-0.40874 -0.156848,-2.15469 0,-2.56343 0.108529,-0.28282 1.288515,-0.31588 11.275999,-0.31588 10.824021,0 11.160911,0.0115 11.361511,0.38627 0.22727,0.42467 0.26946,1.65582 0.0809,2.3596 l -0.12042,0.44932 H 97.337003 c -10.063702,0 -11.251038,-0.033 -11.359583,-0.31588 z"
         id="path3457" />
      <path
         style="fill:#ffffff;stroke:#000000;stroke-width:1.40765;stroke-linecap:round;stroke-linejoin:round;stroke-opacity:0.955017;paint-order:stroke markers fill"
         d="m 90.444351,229.98489 c -0.107117,-0.28173 -0.194757,-0.81507 -0.194757,-1.18519 0,-0.37013 0.08764,-0.90347 0.194757,-1.1852 l 0.194757,-0.51225 h 6.588003 c 7.475209,0 7.001459,-0.11486 7.001459,1.69745 0,1.8123 0.47375,1.69744 -7.001459,1.69744 h -6.588003 z"
         id="path3496" />
      <path
         style="fill:#ffffff;stroke:#000000;stroke-width:1.40765;stroke-linecap:round;stroke-linejoin:round;stroke-opacity:0.955017;paint-order:stroke markers fill"
         d="m 48.024459,275.78452 c -0.34994,-0.49961 -0.410047,-1.86542 -0.116116,-2.63853 l 0.194757,-0.51223 h 6.599971 6.599971 l 0.194757,0.51223 c 0.293931,0.77311 0.233823,2.13892 -0.116117,2.63853 -0.310195,0.44286 -0.324752,0.44381 -6.678611,0.44381 -6.353858,0 -6.368417,0 -6.678612,-0.44381 z"
         id="path3535" />
      <path
         style="fill:#ffffff;stroke:#000000;stroke-width:1.40765;stroke-linecap:round;stroke-linejoin:round;stroke-opacity:0.955017;paint-order:stroke markers fill"
         d="m 43.441411,270.91997 c -0.156848,-0.40873 -0.156848,-2.15469 0,-2.56341 0.108533,-0.28284 1.289571,-0.31589 11.287968,-0.31589 h 11.166753 l 0.194757,0.51223 c 0.254514,0.66943 0.248571,1.80986 -0.01196,2.29669 -0.200602,0.37481 -0.537493,0.38627 -11.361517,0.38627 -9.987483,0 -11.167469,-0.0331 -11.276001,-0.31589 z"
         id="path3574" />
      <path
         style="fill:#ffffff;stroke:#000000;stroke-width:1.40765;stroke-linecap:round;stroke-linejoin:round;stroke-opacity:0.955017;paint-order:stroke markers fill"
         d="m 41.108172,266.21473 c -0.301591,-0.56354 -0.135317,-2.54934 0.232981,-2.78249 0.457336,-0.28951 26.610498,-0.23577 26.901548,0.0553 0.247695,0.2477 0.332517,2.28145 0.118424,2.83937 -0.10887,0.28372 -1.490913,0.31589 -13.572544,0.31589 H 41.337252 Z"
         id="path3613" />
      <path
         style="fill:#ffffff;stroke:#000000;stroke-width:1.40765;stroke-linecap:round;stroke-linejoin:round;stroke-opacity:0.955017;paint-order:stroke markers fill"
         d="m 39.417673,261.8364 c -0.279394,-0.45206 -0.348933,-2.57184 -0.09443,-2.8785 0.2209,-0.26617 2.105915,-0.30312 15.46419,-0.30312 11.565775,0 15.270074,0.0574 15.452263,0.23964 0.312804,0.3128 0.312804,2.60281 0,2.9156 -0.323699,0.32372 -30.622242,0.34965 -30.822023,0.0265 z"
         id="path3652" />
      <path
         style="fill:#ffffff;stroke:#000000;stroke-width:1.40765;stroke-linecap:round;stroke-linejoin:round;stroke-opacity:0.955017;paint-order:stroke markers fill"
         d="m 38.55946,256.14914 c -0.190823,-0.41881 -0.348667,-3.27499 -0.181829,-3.2902 0.02746,-0.002 2.790801,-0.18091 6.140762,-0.39647 4.750608,-0.3057 8.385255,-0.39258 16.518113,-0.39485 l 10.427277,-0.003 0.233749,0.43677 c 0.233704,0.43668 0.137983,3.53945 -0.122177,3.9604 -0.07758,0.12552 -5.989915,0.19592 -16.452616,0.19592 H 38.791215 Z"
         id="path3691" />
      <path
         style="fill:#ffffff;stroke:#000000;stroke-width:0.698839;stroke-linecap:round;stroke-linejoin:round;stroke-opacity:0.955017;paint-order:stroke markers fill"
         d="m 105.47076,229.25654 c 0.0191,-0.69525 0.0574,-1.2864 0.0851,-1.31366 0.0589,-0.058 2.17621,2.13115 2.31864,2.39729 0.091,0.17009 0.024,0.18042 -1.17099,0.18044 l -1.26756,2e-5 z"
         id="path3925" />
      <path
         style="fill:#ffffff;stroke:#000000;stroke-width:0.461566;stroke-linecap:round;stroke-linejoin:round;stroke-opacity:0.955017;paint-order:stroke markers fill"
         d="m 92.870741,225.72758 c 0.103958,-0.10395 1.348955,-0.54239 2.056644,-0.72427 1.562335,-0.40151 3.06842,-0.45368 4.597471,-0.15926 0.754204,0.14523 1.872154,0.49115 2.409044,0.74542 l 0.3274,0.15506 -4.709201,0.005 c -2.590065,0.003 -4.696674,-0.007 -4.681358,-0.0224 z"
         id="path4003" />
      <path
         style="fill:#ffffff;stroke:#000000;stroke-width:0.461566;stroke-linecap:round;stroke-linejoin:round;stroke-opacity:0.955017;paint-order:stroke markers fill"
         d="m 87.102354,230.50409 c 0,-0.0588 1.161753,-1.3746 1.53126,-1.73428 l 0.367702,-0.35791 2.65e-4,0.52162 c 2.64e-4,0.49056 0.06059,1.01066 0.164689,1.42198 l 0.04557,0.18008 h -1.054801 c -0.580141,0 -1.054801,-0.0142 -1.054801,-0.0315 z"
         id="path4042" />
      <path
         style="fill:#ffffff;stroke:#000000;stroke-width:0.461566;stroke-linecap:round;stroke-linejoin:round;stroke-opacity:0.955017;paint-order:stroke markers fill"
         d="m 105.51416,229.29361 c 0.0153,-0.64706 0.049,-1.19773 0.075,-1.22369 0.0259,-0.026 0.1824,0.0836 0.34765,0.24337 0.5371,0.51947 1.92318,2.02821 1.92318,2.09337 0,0.0386 -0.46473,0.0634 -1.18679,0.0634 h -1.18679 z"
         id="path4081" />
      <path
         style="fill:#ffffff;stroke:#000000;stroke-width:0.461566;stroke-linecap:round;stroke-linejoin:round;stroke-opacity:0.955017;paint-order:stroke markers fill"
         d="m 109.96408,235.07017 c 0.039,-0.099 0.0899,-0.47475 0.11297,-0.83489 l 0.042,-0.65482 0.40926,0.7972 c 0.2251,0.43845 0.40926,0.81415 0.40926,0.83488 0,0.0208 -0.235,0.0377 -0.52223,0.0377 h -0.52223 z"
         id="path4159" />
      <path
         style="fill:#ffffff;stroke:#000000;stroke-width:0.461566;stroke-linecap:round;stroke-linejoin:round;stroke-opacity:0.955017;paint-order:stroke markers fill"
         d="m 67.522383,269.13361 c -5.29e-4,-0.25032 -0.04089,-0.62455 -0.08962,-0.83161 l -0.0886,-0.37653 h 0.552392 0.552392 l -0.406562,0.76941 c -0.223607,0.42317 -0.43185,0.7974 -0.462764,0.83161 -0.03187,0.0353 -0.05665,-0.13483 -0.05723,-0.39288 z"
         id="path4276" />
      <path
         style="fill:#ffffff;stroke:#000000;stroke-width:0.461566;stroke-linecap:round;stroke-linejoin:round;stroke-opacity:0.955017;paint-order:stroke markers fill"
         d="m 62.938146,274.36551 c -0.0013,-0.89755 -0.02975,-1.18311 -0.156445,-1.57806 l -0.04726,-0.14732 h 1.385094 1.385091 l -0.272084,0.34378 c -0.42246,0.53377 -1.451745,1.62528 -1.893602,2.00805 l -0.39923,0.34586 z"
         id="path4315" />
      <path
         style="fill:#ffffff;stroke:#000000;stroke-width:0.461566;stroke-linecap:round;stroke-linejoin:round;stroke-opacity:0.955017;paint-order:stroke markers fill"
         d="m 45.780645,274.10167 c -0.644285,-0.66287 -1.241218,-1.34552 -1.241218,-1.41949 0,-0.023 0.471466,-0.0421 1.047702,-0.0421 0.576237,0 1.047539,0.0222 1.047338,0.0491 -2.01e-4,0.027 -0.03318,0.16698 -0.07329,0.31104 -0.04011,0.14407 -0.09151,0.59548 -0.114227,1.00317 l -0.0413,0.74123 z"
         id="path4354" />
      <path
         style="fill:#ffffff;stroke:#000000;stroke-width:0.461566;stroke-linecap:round;stroke-linejoin:round;stroke-opacity:0.955017;paint-order:stroke markers fill"
         d="m 53.90327,278.49526 c -0.09004,-0.0161 -0.443636,-0.0763 -0.785777,-0.13383 -0.662767,-0.11136 -2.165197,-0.57512 -2.591547,-0.79991 l -0.256895,-0.13544 h 4.747404 4.747403 l -0.360148,0.16541 c -0.560311,0.25734 -1.604764,0.59153 -2.32459,0.74383 -0.485555,0.10273 -0.959482,0.14486 -1.83348,0.16301 -0.648266,0.0135 -1.252333,0.0114 -1.34237,-0.005 z"
         id="path4393" />
      <path
         style="fill:#ffffff;stroke:#000000;stroke-width:0.461566;stroke-linecap:round;stroke-linejoin:round;stroke-opacity:0.955017;paint-order:stroke markers fill"
         d="m 62.921991,274.09786 c -0.01675,-0.63969 -0.05252,-1.22936 -0.07949,-1.31041 l -0.04903,-0.14732 h 1.325285 c 1.251918,0 1.32043,0.006 1.237612,0.11459 -0.459734,0.60093 -1.639014,1.86579 -2.097185,2.24939 l -0.306726,0.2568 z"
         id="path4432" />
      <path
         style="fill:#ffffff;stroke:#000000;stroke-width:0.461566;stroke-linecap:round;stroke-linejoin:round;stroke-opacity:0.955017;paint-order:stroke markers fill"
         d="m 53.302623,278.3672 c -0.649727,-0.12385 -1.942404,-0.49972 -2.444239,-0.71073 l -0.392888,-0.16517 h 4.518218 c 2.606047,0 4.476648,0.0235 4.419996,0.0564 -0.198779,0.11573 -1.492499,0.54145 -2.128147,0.70033 -0.571304,0.14277 -0.834356,0.16695 -2.062664,0.18968 -1.054435,0.0196 -1.533975,0.003 -1.910276,-0.0697 z"
         id="path4471" />
      <path
         style="fill:#ffffff;stroke:#000000;stroke-width:0.461566;stroke-linecap:round;stroke-linejoin:round;stroke-opacity:0.955017;paint-order:stroke markers fill"
         d="m 45.662058,273.9122 c -0.37296,-0.39352 -0.765869,-0.82598 -0.873132,-0.96102 l -0.195023,-0.24556 0.447502,-0.009 c 0.510655,-0.0101 1.486717,0.0145 1.512291,0.0382 0.0094,0.009 -0.01257,0.23394 -0.04882,0.50064 -0.03625,0.26673 -0.08814,0.68903 -0.115308,0.93848 l -0.0494,0.45355 z"
         id="path4510" />
      <path
         style="fill:#ffffff;stroke:#000000;stroke-width:0.49017;stroke-linecap:round;stroke-linejoin:round;stroke-opacity:0.955017;paint-order:stroke markers fill"
         d="m 67.547624,268.95152 c -0.02368,-0.25961 -0.06371,-0.58938 -0.08895,-0.73281 l -0.04588,-0.26078 h 0.461105 c 0.253609,0 0.461105,0.0164 0.461105,0.0368 0,0.0479 -0.356065,0.74936 -0.573942,1.1307 l -0.170373,0.29821 z"
         id="path5052" />
      <path
         style="fill:#ffffff;stroke:#000000;stroke-width:0.49017;stroke-linecap:round;stroke-linejoin:round;stroke-opacity:0.955017;paint-order:stroke markers fill"
         d="m 62.93967,273.90336 -0.06351,-1.21714 1.240168,2.2e-4 1.240169,1.8e-4 -0.231847,0.29379 c -0.292343,0.3705 -2.005724,2.14009 -2.072084,2.14009 -0.02717,0 -0.07797,-0.54772 -0.112898,-1.21714 z"
         id="path5091" />
      <path
         style="fill:#ffffff;stroke:#000000;stroke-width:0.49017;stroke-linecap:round;stroke-linejoin:round;stroke-opacity:0.955017;paint-order:stroke markers fill"
         d="m 41.785157,268.33928 c -0.08431,-0.17354 -0.15329,-0.33033 -0.15329,-0.34843 0,-0.018 0.110943,-0.0329 0.246539,-0.0329 h 0.246539 l -0.04684,0.26078 c -0.07883,0.43891 -0.12838,0.45929 -0.29295,0.12057 z"
         id="path5130" />
      <path
         style="fill:#ffffff;stroke:#000000;stroke-width:0.49017;stroke-linecap:round;stroke-linejoin:round;stroke-opacity:0.955017;paint-order:stroke markers fill"
         d="m 69.841329,263.9927 c -0.02553,-0.20955 -0.06563,-0.45138 -0.08909,-0.53744 -0.03852,-0.14129 -0.01826,-0.15648 0.208838,-0.15648 0.138324,0 0.2515,0.0251 0.2515,0.056 0,0.0308 -0.07308,0.27266 -0.162407,0.53745 l -0.162406,0.48144 z"
         id="path5208" />
    </g>
    <g
       id="g7086">
      <path
         id="path1161"
         style="fill:none;stroke:#000000;stroke-width:1.1464;stroke-linecap:round;stroke-linejoin:round;stroke-opacity:0.955017;paint-order:stroke markers fill"
         d="m 58.726255,40.878671 h 33.59195 c 0.83609,0 1.50919,-0.922418 1.50919,-2.068197 v -1.378798 c 0,-1.14578 -0.6731,-2.068197 -1.50919,-2.068197 h -33.59195 c -0.83609,0 -1.509192,0.922417 -1.509192,2.068197 v 1.378798 c 0,1.145779 0.673102,2.068197 1.509192,2.068197 z m 0.47446,-6.090984 h 32.03014 c 0.63995,0 1.15514,-0.70602 1.15514,-1.583004 v -1.055334 c 0,-0.876983 -0.51519,-1.583004 -1.15514,-1.583004 h -32.03014 c -0.63995,0 -1.15514,0.706021 -1.15514,1.583004 v 1.055334 c 0,0.876984 0.51519,1.583004 1.15514,1.583004 z m 9.11958,-12.745707 h 13.53781 c 0.66406,0 1.19865,-0.732618 1.19865,-1.642637 v -1.095091 c 0,-0.910019 -0.53459,-1.642631 -1.19865,-1.642631 h -13.53781 c -0.66405,0 -1.19864,0.732612 -1.19864,1.642631 v 1.095091 c 0,0.910019 0.53459,1.642637 1.19864,1.642637 z m -4.71479,4.291722 h 23.06497 c 0.65061,0 1.17439,-0.717789 1.17439,-1.609394 v -1.072934 c 0,-0.891605 -0.52378,-1.609394 -1.17439,-1.609394 h -23.06497 c -0.65061,0 -1.17439,0.717789 -1.17439,1.609394 v 1.072934 c 0,0.891605 0.52378,1.609394 1.17439,1.609394 z m -2.43309,4.232643 h 27.96665 c 0.64464,0 1.16362,-0.711203 1.16362,-1.594624 v -1.063087 c 0,-0.883422 -0.51898,-1.594625 -1.16362,-1.594625 h -27.96665 c -0.64464,0 -1.16362,0.711203 -1.16362,1.594625 v 1.063087 c 0,0.883421 0.51898,1.594624 1.16362,1.594624 z m -1.9717,4.221342 h 32.03014 c 0.63995,0 1.15514,-0.70602 1.15514,-1.583004 v -1.055334 c 0,-0.876983 -0.51519,-1.583004 -1.15514,-1.583004 h -32.03014 c -0.63995,0 -1.15514,0.706021 -1.15514,1.583004 v 1.055334 c 0,0.876984 0.51519,1.583004 1.15514,1.583004 z M 101.4382,41.09699 A 25.668253,35.754206 0 0 0 76.260805,5.3493287 25.668253,35.754206 0 0 0 50.12048,39.729806 l 25.649485,1.367184 z m -7.576065,0.0977 A 18.463544,25.678319 0 0 0 75.751665,15.521078 18.463544,25.678319 0 0 0 56.948551,40.212793 l 18.450034,0.981902 z M 14.236591,40.431112 h 33.59196 c 0.836088,0 1.509183,0.922418 1.509183,2.068197 v 1.378798 c 0,1.14578 -0.673095,2.068204 -1.509183,2.068204 h -33.59196 c -0.836089,0 -1.509187,-0.922424 -1.509187,-2.068204 v -1.378798 c 0,-1.145779 0.673098,-2.068197 1.509187,-2.068197 z m 0.474462,6.090991 h 32.030148 c 0.639944,0 1.155135,0.706022 1.155135,1.583002 v 1.055333 c 0,0.876987 -0.515191,1.583002 -1.155135,1.583002 H 14.711053 c -0.639944,0 -1.155135,-0.706015 -1.155135,-1.583002 v -1.055333 c 0,-0.87698 0.515191,-1.583002 1.155135,-1.583002 z m 9.119587,12.745704 h 13.537812 c 0.664051,0 1.198646,0.732621 1.198646,1.642637 v 1.095095 c 0,0.910015 -0.534595,1.64263 -1.198646,1.64263 H 23.83064 c -0.664051,0 -1.198648,-0.732615 -1.198648,-1.64263 v -1.095095 c 0,-0.910016 0.534597,-1.642637 1.198648,-1.642637 z m -4.714792,-4.291722 h 23.064973 c 0.650615,0 1.174393,0.717792 1.174393,1.609397 v 1.072934 c 0,0.891605 -0.523778,1.609391 -1.174393,1.609391 H 19.115848 c -0.650614,0 -1.174394,-0.717786 -1.174394,-1.609391 v -1.072934 c 0,-0.891605 0.52378,-1.609397 1.174394,-1.609397 z M 16.682753,50.74344 h 27.966655 c 0.644643,0 1.163615,0.711207 1.163615,1.59463 v 1.063086 c 0,0.883423 -0.518972,1.594624 -1.163615,1.594624 H 16.682753 c -0.644643,0 -1.163615,-0.711201 -1.163615,-1.594624 V 52.33807 c 0,-0.883423 0.518972,-1.59463 1.163615,-1.59463 z m -1.9717,-4.221337 h 32.030148 c 0.639944,0 1.155135,0.706022 1.155135,1.583002 v 1.055333 c 0,0.876987 -0.515191,1.583002 -1.155135,1.583002 H 14.711053 c -0.639944,0 -1.155135,-0.706015 -1.155135,-1.583002 v -1.055333 c 0,-0.87698 0.515191,-1.583002 1.155135,-1.583002 z m 42.237498,-6.30931 A 25.668253,35.754206 0 0 1 31.77115,75.960463 25.668253,35.754206 0 0 1 5.6308207,41.579984 L 31.280302,40.212793 Z m -7.576075,-0.0977 A 18.463544,25.678319 0 0 1 31.262007,65.788708 18.463544,25.678319 0 0 1 12.458893,41.09699 l 18.45004,-0.981902 z" />
      <path
         style="fill:#000000;stroke:#000000;stroke-width:3.22241;stroke-linecap:round;stroke-linejoin:round;stroke-opacity:0.955017;paint-order:stroke markers fill"
         d="M 25.225057,74.063936 C 16.099809,70.742957 9.2955204,60.737995 7.0258637,47.304012 6.1612837,42.186608 6.2176696,42.07675 9.7145939,42.065477 l 2.1714981,-0.007 0.0068,1.714338 c 0.02064,5.23525 3.132803,12.688705 7.076302,16.947322 5.468942,5.905955 12.272372,7.380496 18.86399,4.088484 6.117301,-3.05513 11.17446,-11.801067 12.295687,-21.264385 l 0.284366,-2.400075 h 2.908581 c 3.382388,0 3.212814,-0.453927 2.240372,5.99708 -1.798915,11.933714 -7.992202,21.85175 -16.171121,25.896716 -3.13005,1.547997 -3.838366,1.716791 -7.592552,1.809339 -3.149007,0.07763 -4.723035,-0.109947 -6.573417,-0.783362 z"
         id="path1220" />
      <path
         style="fill:#000000;stroke:#000000;stroke-width:3.22241;stroke-linecap:round;stroke-linejoin:round;stroke-opacity:0.955017;paint-order:stroke markers fill"
         d="m 94.631575,38.474348 c 0,-2.722946 -1.660708,-8.646655 -3.443068,-12.281365 -5.806202,-11.840387 -17.770853,-14.959806 -26.53825,-6.919043 -4.103503,3.76341 -7.0206,9.63268 -7.972796,16.041465 -0.651692,4.38626 -0.65818,4.392213 -4.04722,3.714404 -1.290436,-0.258085 -1.428617,-0.448945 -1.428617,-1.973247 0,-4.471384 1.882267,-11.139453 4.717772,-16.713059 2.328259,-4.576542 7.91265,-10.3690083 11.780922,-12.2198843 8.924464,-4.2701451 18.764236,-1.1211788 25.354324,8.1139993 4.025847,5.641717 6.653012,13.033223 7.344448,20.663544 l 0.30164,3.328686 h -3.034577 -3.034578 z"
         id="path1259" />
      <path
         style="fill:#000000;stroke:#000000;stroke-width:0.861438;stroke-linecap:round;stroke-linejoin:round;stroke-opacity:0.955017;paint-order:stroke markers fill"
         d="m 72.715177,16.774067 c 0.935731,-0.259141 4.441529,-0.259141 5.37726,0 0.644562,0.178506 0.53418,0.186149 -2.68863,0.186149 -3.22281,0 -3.333192,-0.0076 -2.68863,-0.186149 z"
         id="path5432" />
      <path
         style="fill:#000000;stroke:#000000;stroke-width:0.861438;stroke-linecap:round;stroke-linejoin:round;stroke-opacity:0.955017;paint-order:stroke markers fill"
         d="m 28.536124,76.307534 c -0.134432,-0.03204 -0.684379,-0.141603 -1.222102,-0.24347 -2.92184,-0.553508 -6.436654,-2.260991 -9.135227,-4.437856 L 17.231664,70.862184 V 70.13109 69.399996 l 0.853842,0.764463 c 1.960334,1.755129 5.028369,3.555352 7.371613,4.325416 2.425741,0.797179 5.674295,1.118304 8.091526,0.799862 6.325018,-0.833247 11.966236,-4.77996 16.34431,-11.434812 1.105016,-1.679671 2.893028,-5.236933 3.624223,-7.210412 1.158554,-3.126923 2.075373,-6.875158 2.511419,-10.267439 0.234733,-1.826149 0.449263,-5.466557 0.32929,-5.587826 -0.04904,-0.04957 -0.429257,-0.03022 -0.844931,0.043 -0.547034,0.09636 -1.032116,0.09594 -1.756349,-0.0016 -0.550323,-0.07406 -1.651778,-0.134662 -2.447676,-0.134662 h -1.447094 v 1.828885 c 0,1.254537 -0.0546,1.993339 -0.17385,2.35255 -0.09562,0.288015 -0.264054,1.018617 -0.3743,1.62356 -0.740469,4.063074 -2.168679,7.806502 -4.196369,10.998933 -1.96542,3.094395 -5.098703,5.997358 -7.916381,7.334459 -2.101913,0.997447 -4.033464,1.442405 -6.281711,1.44708 -2.338474,0.0049 -4.218902,-0.440859 -6.416044,-1.520819 -2.322145,-1.1414 -4.934083,-3.332967 -6.568808,-5.51161 -0.702545,-0.936302 -0.70271,-0.936725 -0.70271,-1.809832 0,-0.579715 0.05672,-0.930031 0.168705,-1.042019 0.143465,-0.143465 0.229588,-0.0736 0.57567,0.467019 0.223832,0.349649 0.464134,0.855527 0.534006,1.12418 0.0974,0.374507 0.231815,0.545565 0.576174,0.733261 0.576745,0.314362 1.198781,1.039175 0.891822,1.039175 -0.248011,0 0.290974,0.631785 1.381536,1.6194 0.547482,0.495803 0.706599,0.586717 0.738347,0.42186 0.0346,-0.179668 0.118888,-0.153823 0.581259,0.178226 0.297434,0.213601 0.54079,0.436536 0.54079,0.495414 0,0.225798 0.613871,0.70699 0.901932,0.70699 0.166094,0 0.748344,0.215853 1.293887,0.479671 0.773232,0.373925 0.93015,0.490353 0.711801,0.528127 -0.265397,0.04592 -0.260855,0.05664 0.08653,0.204293 0.201648,0.0857 0.88908,0.297182 1.527631,0.469945 1.011547,0.27368 1.412703,0.315013 3.116363,0.321088 1.625428,0.0058 2.135193,-0.03836 3.021094,-0.261665 1.347833,-0.339744 2.037803,-0.620649 1.833944,-0.746639 -0.09682,-0.05984 0.102595,-0.197088 0.551947,-0.379886 0.779005,-0.316897 1.540685,-0.727789 2.312948,-1.247727 0.280233,-0.188675 0.528368,-0.286491 0.551405,-0.217374 0.0504,0.15118 1.38852,-0.947915 2.238756,-1.838846 0.353115,-0.370015 0.55014,-0.662945 0.466754,-0.693949 -0.08522,-0.03169 0.165965,-0.438417 0.61351,-0.993423 0.416799,-0.516872 0.890379,-1.154817 1.052404,-1.417654 0.252733,-0.409982 0.3061,-0.445084 0.375563,-0.247052 0.06934,0.197681 0.124257,0.161005 0.382323,-0.255376 0.85734,-1.383265 0.866574,-1.402789 0.663514,-1.402789 -0.220178,0 -0.250848,-0.137969 -0.07071,-0.318106 0.06741,-0.06741 0.424878,-0.779525 0.794366,-1.582475 0.396859,-0.862431 0.671798,-1.337429 0.671798,-1.16064 0,0.400653 0.160544,0.206055 0.432311,-0.524012 0.172606,-0.463683 0.18692,-0.611545 0.06641,-0.686023 -0.11783,-0.07282 -0.07151,-0.305247 0.198805,-0.997653 0.193831,-0.496494 0.486812,-1.452661 0.651068,-2.124819 0.164256,-0.672155 0.381722,-1.294302 0.483261,-1.382543 0.123701,-0.107503 0.139444,-0.179684 0.04771,-0.218765 -0.151593,-0.06459 0.01373,-1.097111 0.215966,-1.348899 0.09915,-0.123439 0.162655,-0.69042 0.426691,-3.809691 0.05288,-0.624781 0.13331,-0.849034 0.422701,-1.178631 0.196564,-0.223875 0.491445,-0.440693 0.655288,-0.481812 l 0.2979,-0.07477 -0.235427,-0.518652 C 49.69149,38.439444 49.673655,37.420354 49.915735,35.379845 50.930307,26.827977 53.947115,19.2768 58.484499,13.931923 59.736852,12.456699 62.458483,9.8240362 63.616778,8.9674183 69.029394,4.9645122 75.71261,3.8027483 81.822493,5.8026627 91.403997,8.9389253 99.053133,19.555 101.24037,32.752323 c 0.44521,2.686344 0.5583,3.79349 0.64401,6.304717 l 0.0755,2.210673 -0.2898,0.202983 c -0.25478,0.178461 -0.74268,0.202983 -4.038466,0.202983 h -3.74867 l -0.393578,-0.44826 -0.393578,-0.448262 0.07829,-1.171025 c 0.0803,-1.201023 -0.07652,-3.105084 -0.276206,-3.353689 -0.212326,-0.264337 -0.380508,-1.34952 -0.224131,-1.446167 0.108159,-0.06684 0.106039,-0.125421 -0.0087,-0.240152 -0.08346,-0.08346 -0.155834,-0.0995 -0.160837,-0.03564 -0.01669,0.213146 -0.59046,-1.956988 -0.596249,-2.25521 -0.0031,-0.161552 -0.139139,-0.575789 -0.302226,-0.920525 -0.39439,-0.833666 -0.50582,-1.291053 -0.314534,-1.291053 0.171815,0 0.10967,-0.325374 -0.199774,-1.045919 -0.196559,-0.457693 -0.210658,-0.466739 -0.282799,-0.181409 -0.06829,0.270097 -0.09883,0.239368 -0.303636,-0.305528 -0.125238,-0.333203 -0.467583,-1.08703 -0.760765,-1.675167 -0.386204,-0.774749 -0.483957,-1.069341 -0.35483,-1.069341 0.13176,0 0.08113,-0.169046 -0.194193,-0.648397 -0.204833,-0.356618 -0.47574,-0.782827 -0.60202,-0.94713 -0.19844,-0.258194 -0.229968,-0.267967 -0.232315,-0.07202 -0.0016,0.135935 -0.276574,-0.157666 -0.686665,-0.733263 -0.376169,-0.527985 -0.845447,-1.129457 -1.042839,-1.336602 -0.209762,-0.220131 -0.329653,-0.45283 -0.288523,-0.560011 0.04628,-0.120598 -0.235289,-0.472826 -0.822399,-1.028791 -1.26878,-1.201472 -1.928498,-1.705102 -1.928498,-1.472219 0,0.133461 -0.278228,0.011 -0.957879,-0.421594 -0.526835,-0.33533 -1.386393,-0.795972 -1.91013,-1.02365 -0.832728,-0.362002 -0.908076,-0.419534 -0.600303,-0.458366 0.285213,-0.03599 0.159579,-0.107333 -0.662596,-0.37628 -1.179779,-0.385925 -1.251479,-0.396752 -0.933627,-0.140982 0.222004,0.178644 0.205859,0.185687 -0.251616,0.109766 -2.40969,-0.399899 -3.334197,-0.399899 -5.743887,0 -0.4684,0.07773 -0.478621,0.07261 -0.244422,-0.122406 l 0.244422,-0.203532 -0.244422,0.07028 c -0.13443,0.03865 -0.629383,0.191764 -1.099892,0.340246 -0.798959,0.252133 -0.831252,0.275627 -0.488841,0.355638 0.201647,0.04712 0.281228,0.09218 0.17685,0.100131 -0.104378,0.008 -0.644668,0.234437 -1.200642,0.5033 -0.555974,0.268863 -1.146815,0.488841 -1.312982,0.488841 -0.201112,0 -0.366932,0.11236 -0.495982,0.336079 -0.264102,0.457843 -1.143717,1.076267 -1.260975,0.886542 -0.05763,-0.09326 -0.479915,0.229345 -1.211416,0.925464 -0.617617,0.587743 -1.066345,1.103603 -0.99717,1.146354 0.165386,0.102215 -0.549023,0.968615 -0.912709,1.106888 -0.164216,0.06244 -0.335912,0.283941 -0.421791,0.544152 -0.192696,0.583878 -0.968618,1.722667 -1.148321,1.685346 -0.183869,-0.03818 -0.617402,0.760873 -0.508457,0.937151 0.04553,0.07367 -0.103643,0.449567 -0.331502,0.835323 -0.227857,0.385757 -0.626483,1.237573 -0.885836,1.892927 -0.288734,0.729607 -0.539096,1.191551 -0.645784,1.191551 -0.124677,0 -0.152501,0.08662 -0.09782,0.304496 0.08096,0.32258 -0.203819,1.162029 -0.394216,1.162029 -0.170582,0 -0.510918,1.342593 -0.513194,2.024488 -0.0024,0.741365 -0.393856,2.951131 -0.586354,3.310565 -0.07756,0.144825 -0.174328,0.667276 -0.215032,1.160997 -0.0911,1.104976 -0.217022,1.53684 -0.599146,2.054778 l -0.296709,0.402166 0.29968,0.392901 c 0.349327,0.457991 0.376285,1.000289 0.176977,3.560104 -0.337219,4.331128 -1.325366,8.90465 -2.765864,12.801504 -0.769712,2.082229 -2.659364,5.85664 -3.80234,7.594825 -4.094618,6.226916 -9.276718,10.147406 -15.296049,11.57215 -0.859412,0.20342 -1.559256,0.255641 -3.860541,0.288065 -1.54596,0.02177 -2.920828,0.01339 -3.05526,-0.01865 z M 100.94535,40.421083 c -0.002,-0.756658 -0.28539,-4.364908 -0.4341,-5.530019 C 99.08596,23.724242 93.862923,14.176921 86.478098,9.2395018 79.418843,4.5197561 70.943694,4.8050981 63.958131,9.9977058 c -1.530623,1.1377652 -4.195697,3.8494472 -5.508514,5.6048522 -3.486534,4.661946 -5.901738,10.466047 -7.061586,16.970058 -0.346004,1.940261 -0.667462,4.762079 -0.669412,5.876226 l -0.0013,0.746937 0.763815,0.07379 c 0.420097,0.04058 1.700189,0.110741 2.844646,0.155911 l 2.080832,0.08212 0.215485,-2.002742 c 0.118517,-1.101508 0.353859,-2.662679 0.522983,-3.469267 0.169124,-0.806587 0.355761,-1.786456 0.414747,-2.177486 0.05899,-0.391028 0.160933,-0.775991 0.226547,-0.855472 0.06561,-0.07948 0.350197,-0.776952 0.63241,-1.549932 2.433159,-6.664426 6.976285,-11.736366 12.190269,-13.609197 2.93382,-1.053809 6.34133,-1.081681 9.341858,-0.07641 6.741843,2.258725 12.150582,9.680647 13.847567,19.00176 0.110135,0.604943 0.278479,1.335545 0.374097,1.62356 0.119253,0.359212 0.17385,1.098013 0.17385,2.352551 v 1.828884 h 3.299679 c 2.558496,0 3.299576,-0.03431 3.299246,-0.152765 z M 76.355934,16.105375 c -0.665594,-0.07179 -1.421053,-0.07158 -2.016472,5.82e-4 -0.875437,0.106092 -0.789712,0.115339 1.064345,0.114807 1.933072,-5.55e-4 1.97245,-0.0053 0.952127,-0.115385 z"
         id="path5471" />
      <path
         style="fill:#000000;stroke:#000000;stroke-width:1.7445;stroke-linecap:round;stroke-linejoin:round;stroke-opacity:0.955017;paint-order:stroke markers fill"
         d="m 109.39007,244.36435 c -0.34029,-0.0583 -1.84379,-0.40931 -3.34109,-0.78002 l -2.72238,-0.67402 6.88533,-0.0658 c 3.78694,-0.0362 9.91229,-0.0362 13.61189,0 l 6.72655,0.0658 -2.84612,0.73812 c -2.82686,0.73313 -2.89638,0.73841 -10.27079,0.78002 -4.08356,0.0231 -7.70309,-0.006 -8.04339,-0.0641 z"
         id="path6562"
         transform="scale(0.26458333)" />
      <path
         style="fill:#000000;stroke:#000000;stroke-width:1.7445;stroke-linecap:round;stroke-linejoin:round;stroke-opacity:0.955017;paint-order:stroke markers fill"
         d="m 80.180093,228.9776 -2.839825,-2.75297 3.308092,-0.01 3.308093,-0.01 -0.171226,0.55685 c -0.09418,0.30626 -0.304895,1.54956 -0.468267,2.76287 l -0.297042,2.20602 z"
         id="path6601"
         transform="scale(0.26458333)" />
      <path
         style="fill:#000000;stroke:#000000;stroke-width:1.7445;stroke-linecap:round;stroke-linejoin:round;stroke-opacity:0.955017;paint-order:stroke markers fill"
         d="m 147.99834,231.0866 c 0,-1.4964 -0.14541,-3.05888 -0.34702,-3.72875 l -0.34701,-1.15303 h 4.30684 c 2.42849,0 4.30683,0.0984 4.30683,0.22566 0,0.29566 -4.55869,4.59133 -6.44601,6.07409 l -1.47363,1.15775 z"
         id="path6640"
         transform="scale(0.26458333)" />
      <path
         style="fill:#000000;stroke:#000000;stroke-width:1.41741;stroke-linecap:round;stroke-linejoin:round;stroke-opacity:0.955017;paint-order:stroke markers fill"
         d="m 161.8284,214.90927 c -0.10654,-2.6488 -0.37105,-3.6012 -1.24206,-4.47221 l -0.50464,-0.50464 H 115.81406 71.546422 l -0.578307,0.61908 c -0.699739,0.74908 -0.988026,1.70397 -0.989519,3.2776 l -0.0011,1.18204 -0.971947,-1.48887 c -1.001078,-1.5335 -1.726284,-2.18225 -2.439418,-2.18225 -0.45988,0 -0.495511,-0.14909 -0.213136,-0.89179 0.18875,-0.49646 0.168004,-0.51581 -0.552983,-0.51601 -0.744933,-2e-4 -0.755401,-0.0119 -1.885869,-2.11139 l -1.136778,-2.11119 h 53.171525 53.17153 l -0.43389,0.85461 c -0.23864,0.47004 -0.60244,1.07042 -0.80843,1.33417 -0.218,0.27914 -0.37453,0.80439 -0.37453,1.25678 v 0.77722 h -1.10596 c -0.60828,0 -1.10597,0.0861 -1.10597,0.19128 0,0.1052 0.13573,0.71238 0.30163,1.3493 0.41335,1.58697 0.39673,2.3881 -0.0503,2.42305 -0.92473,0.0723 -1.48552,0.51937 -2.45666,1.95854 -0.56337,0.83488 -1.05458,1.51797 -1.09158,1.51797 -0.037,0 -0.11185,-1.10848 -0.16634,-2.46329 z"
         id="path6718"
         transform="scale(0.26458333)" />
      <path
         style="fill:#000000;stroke:#000000;stroke-width:1.41741;stroke-linecap:round;stroke-linejoin:round;stroke-opacity:0.955017;paint-order:stroke markers fill"
         d="m 109.6192,288.84206 c -4.84643,-0.35198 -7.52149,-0.75654 -11.188241,-1.69201 -9.188545,-2.34422 -19.768098,-7.75525 -28.654569,-14.65566 -3.664196,-2.84528 -6.212681,-5.12084 -6.223546,-5.55706 -0.0061,-0.24637 -1.158567,-1.54475 -2.944941,-3.31789 -9.455602,-9.38558 -16.951718,-19.84591 -23.515396,-32.81417 -9.995643,-19.749 -15.985172,-42.43854 -17.59116,-66.63886 -0.204892,-3.08749 -0.195213,-3.28892 0.21009,-4.37219 0.575517,-1.53821 1.976779,-3.34783 3.259664,-4.2096 l 1.05852,-0.71106 10.657489,-0.53595 c 8.120703,-0.40838 10.830428,-0.60872 11.384032,-0.84164 0.675967,-0.28441 0.782586,-0.2771 1.531556,0.105 1.29217,0.65921 2.001263,1.37015 2.638492,2.64536 0.577853,1.15639 0.587703,1.22351 0.313296,2.13529 -0.204209,0.67854 -0.28148,2.06937 -0.276746,4.98138 0.0058,3.55967 0.0553,4.17151 0.416506,5.14598 0.225468,0.60828 0.54159,2.10133 0.702492,3.31789 0.160902,1.21657 0.621748,3.79548 1.024102,5.73092 0.402354,1.93544 0.789147,4.37862 0.859538,5.42928 0.08427,1.25781 0.35545,2.67897 0.793935,4.16072 0.60611,2.0482 0.718124,2.2686 1.24659,2.45283 0.319353,0.11133 0.583645,0.32023 0.587313,0.46423 0.0037,0.144 0.307931,1.05359 0.676135,2.02131 l 0.669465,1.75949 h -0.488602 c -0.413653,0 -0.467369,0.0694 -0.350183,0.45244 0.289818,0.94733 0.452204,1.08294 0.598545,0.49987 0.07594,-0.30258 0.196132,-0.5475 0.267091,-0.54428 0.225229,0.0102 3.269514,7.28621 3.531194,8.43969 0.322067,1.41969 0.852464,2.43271 1.340539,2.56035 0.211718,0.0554 0.384941,0.1806 0.384941,0.27829 0,0.10234 22.629271,0.17763 53.387989,0.17763 35.45793,0 53.38798,-0.0675 53.38798,-0.20108 0,-0.1106 0.12836,-0.20108 0.28523,-0.20108 0.43241,0 1.0983,-1.22423 1.32562,-2.43716 0.37923,-2.02348 2.65863,-6.20949 3.38124,-6.20949 0.45369,0 0.88078,-0.51441 1.30282,-1.56919 0.43222,-1.08023 0.4277,-1.17639 -0.0613,-1.30426 -0.53156,-0.139 -0.52412,-0.84163 0.0287,-2.70665 0.39617,-1.33665 0.47662,-1.45786 0.96762,-1.45786 0.84577,0 1.20459,-0.40926 1.76923,-2.01791 0.46166,-1.31524 0.5334,-1.86621 0.57947,-4.45049 0.0539,-3.02483 0.28007,-4.26285 1.1325,-6.19994 0.23924,-0.54366 0.38466,-1.2788 0.36428,-1.84158 -0.0187,-0.51519 0.069,-1.52782 0.19483,-2.25031 0.2121,-1.218 0.2718,-1.32305 0.82025,-1.44351 0.32532,-0.0714 0.71244,-0.32565 0.86027,-0.56488 0.29228,-0.47302 0.6937,-2.86149 1.32351,-7.8751 0.52471,-4.17695 0.51539,-4.72197 -0.10152,-5.93939 -0.47354,-0.93449 -0.49273,-1.08538 -0.29525,-2.32155 0.27,-1.69013 0.82446,-2.8585 1.95129,-4.11181 0.74365,-0.82712 1.01664,-0.99939 1.5837,-0.99939 0.51208,0 0.6894,-0.0889 0.70194,-0.35189 0.009,-0.19355 0.0471,-3.38325 0.0842,-7.08824 0.0784,-7.8397 0.33007,-10.92977 1.43101,-17.57303 2.27264,-13.7135 7.75095,-30.853475 14.35549,-44.914039 l 1.06261,-2.262203 h 21.93504 21.93506 l -1.90236,1.910305 c -1.11226,1.116899 -1.76665,1.910304 -1.57562,1.910304 0.27002,0 0.29902,0.123012 0.167,0.708336 -0.17749,0.787026 -0.53323,1.391853 -1.56437,2.659833 -0.63863,0.785309 -0.77151,0.85461 -1.63872,0.85461 h -0.94375 l -1.34452,1.774903 c -1.3247,1.748779 -1.34449,1.793337 -1.34449,3.027304 0,1.1259 -0.0792,1.368074 -0.78411,2.397604 -1.1611,1.695831 -3.10316,3.358234 -3.2852,2.812143 -0.0619,-0.185763 -1.15889,1.496128 -1.15889,1.776828 0,0.04137 0.19282,0.07522 0.42847,0.07522 0.38252,0 0.41542,0.08056 0.30663,0.750957 -0.18914,1.165471 -1.36781,3.361015 -1.84107,3.429385 -1.24922,0.18047 -1.32289,0.24639 -2.12172,1.89826 -0.744,1.53846 -0.79419,1.75657 -0.7969,3.46229 -0.003,1.7603 -0.0349,1.88679 -0.9715,3.83125 -0.53274,1.10596 -1.1196,2.13503 -1.30416,2.28682 -0.21413,0.17612 -0.33595,0.57631 -0.33667,1.10596 -0.002,0.83626 -0.24378,1.97989 -0.63243,2.9807 -0.16542,0.42591 -0.36338,0.55514 -0.92421,0.60325 l -0.71373,0.0612 -0.66664,2.31247 c -0.36663,1.27186 -0.90737,3.32401 -1.2016,4.56033 l -0.53498,2.24784 0.47076,0.96951 c 0.53637,1.1046 0.53983,0.99035 -0.1478,4.89066 -0.51074,2.89692 -0.51914,2.92027 -1.3044,3.61952 -0.77527,0.69038 -0.79775,0.74983 -1.1785,3.11682 -0.21349,1.32716 -0.53191,3.09167 -0.70759,3.92115 -0.20468,0.96636 -0.30122,2.27156 -0.26873,3.63329 l 0.0507,2.12516 -0.81997,1.22791 -0.81997,1.22791 0.57752,0.86971 c 0.55908,0.84195 0.80486,1.44949 1.07172,2.6492 l 0.12745,0.57297 -0.64893,-0.46208 c -0.59718,-0.42522 -0.63684,-0.43083 -0.4972,-0.0703 0.85642,2.21146 1.05439,4.97817 0.63954,8.93791 -0.47361,4.52068 -2.61173,18.27988 -3.64034,23.42637 -6.23821,31.21176 -20.07981,58.3155 -39.3321,77.01764 -8.85525,8.6022 -17.64818,14.48877 -29.43187,19.70364 -6.69791,2.96415 -9.82682,3.70804 -19.02714,4.52372 -5.27211,0.46742 -11.36082,0.498 -17.03952,0.0856 z m 15.95819,-5.7352 c 1.10597,-0.11663 2.59902,-0.33742 3.3179,-0.49064 0.71888,-0.15323 0.94287,-0.23885 0.49775,-0.19027 -2.1594,0.23565 -12.87735,0.54058 -16.08181,0.45751 -2.47033,-0.064 -3.26838,-0.0378 -2.51356,0.0826 3.35783,0.53557 10.39974,0.60267 14.77972,0.1408 z m 23.30164,-6.9092 c 12.61374,-6.22421 23.97727,-16.05585 33.83065,-29.27 2.22476,-2.98359 5.3315,-7.57632 6.1861,-9.14501 0.66641,-1.22324 0.60935,-1.1421 -2.31499,3.29167 -4.41243,6.68997 -8.31037,11.53379 -13.74849,17.08474 -7.69746,7.85715 -14.47439,12.9319 -23.32583,17.46699 -2.21193,1.13329 -3.94209,2.0631 -3.84479,2.06623 0.0973,0.003 1.5451,-0.66945 3.21735,-1.49462 z M 65.309601,260.7058 c 0.03169,-0.0262 -0.927097,-1.07746 -2.130635,-2.33607 -12.532081,-13.10548 -22.264661,-29.78219 -29.089641,-49.8449 -3.495453,-10.27523 -5.861977,-19.97311 -7.927118,-32.48487 -1.06257,-6.43764 -1.284976,-8.52133 -1.195879,-11.20401 0.06467,-1.94735 0.143939,-2.38273 0.574582,-3.15607 1.252467,-2.24916 3.080466,-2.61794 12.988865,-2.62036 l 6.255682,-0.002 0.113361,5.27848 c 0.06235,2.90316 0.252746,6.40957 0.423103,7.79203 1.744995,14.16076 7.75902,30.33008 16.489799,44.3345 1.066417,1.71056 1.651077,2.48334 1.697286,2.2434 0.03877,-0.20132 -0.224413,-0.83263 -0.584849,-1.40292 -4.306743,-6.81419 -8.248934,-15.04248 -10.87647,-22.70177 -0.578965,-1.6877 -1.309188,-3.47573 -1.622715,-3.97342 -0.735584,-1.16765 -1.112097,-2.46029 -1.277373,-4.38548 -0.07302,-0.85058 -0.38705,-2.63237 -0.697842,-3.95953 -1.366785,-5.83652 -2.411303,-12.40497 -2.909869,-18.29871 -0.177756,-2.10134 -0.368793,-4.29567 -0.424523,-4.8763 l -0.101331,-1.0557 -0.7396,0.003 c -0.406778,0.002 -3.951925,0.18027 -7.878104,0.39721 -3.926179,0.21694 -8.441213,0.45626 -10.033409,0.53183 l -2.894903,0.13739 0.133811,2.83356 c 0.812208,17.19928 4.569201,35.60521 10.531825,51.59661 6.500007,17.43262 15.462022,32.23742 27.0339,44.65864 2.610706,2.80232 2.617602,2.80783 3.35026,2.67551 0.403794,-0.0729 0.760098,-0.15406 0.791787,-0.1803 z m 59.097009,-16.2039 c 0.86512,-0.12 2.61357,-0.49612 3.88543,-0.83582 1.27186,-0.33971 2.58393,-0.63507 2.91572,-0.65635 1.03363,-0.0663 1.13297,-0.0941 1.01544,-0.2843 -0.0628,-0.10168 0.20328,-0.28967 0.59139,-0.41776 0.38811,-0.12809 0.70565,-0.34926 0.70565,-0.4915 0,-0.54823 1.10194,-1.31128 3.32251,-2.3007 1.87769,-0.83665 2.51791,-1.02902 3.4246,-1.02902 1.45489,0 2.12335,-0.37018 2.71941,-1.50596 0.36854,-0.70225 0.82956,-1.14812 1.89319,-1.83095 0.77332,-0.49646 1.61033,-0.95393 1.86004,-1.0166 0.4374,-0.10978 0.45397,-0.19593 0.45284,-2.35436 -6e-4,-1.23222 -0.10401,-2.78333 -0.22971,-3.44691 -0.1257,-0.66358 -0.23828,-1.56846 -0.25019,-2.01084 l -0.0216,-0.80434 h 4.42386 c 2.43312,0 4.64344,0.0452 4.91182,0.10054 0.40703,0.0839 0.5159,4e-4 0.65646,-0.50271 0.0927,-0.33179 0.55176,-1.13424 1.02018,-1.78322 0.71189,-0.9863 1.01669,-1.23383 1.8571,-1.50814 0.90241,-0.29455 1.06207,-0.44002 1.5584,-1.41992 0.53521,-1.05666 0.55295,-1.19562 0.55186,-4.32332 -0.001,-3.63114 -0.1564,-4.44708 -1.0361,-5.449 l -0.61311,-0.6983 H 115.84158 71.661394 l -0.532521,0.55584 c -0.887338,0.92618 -1.151399,2.03026 -1.151399,4.81419 v 2.50428 l 1.43632,1.9026 c 1.573719,2.08461 1.826937,2.28817 2.846266,2.28817 0.568335,0 0.85546,0.17743 1.633935,1.00968 0.51944,0.55533 1.075966,1.32448 1.236724,1.70922 l 0.292286,0.69954 h 3.50921 c 3.221095,0 3.525716,0.0308 3.710292,0.37574 0.110596,0.20665 0.162163,0.41465 0.114588,0.46222 -0.07683,0.0768 -0.43781,2.10099 -0.80983,4.54106 -0.116555,0.76448 -0.0878,0.85461 0.272703,0.85461 0.221647,0 1.089239,0.45899 1.927978,1.01997 1.491312,0.99745 1.52505,1.03852 1.52806,1.86003 0.0016,0.46204 0.06956,0.93785 0.150814,1.05735 0.179498,0.26401 2.913389,2.1081 3.807545,2.56831 0.428525,0.22056 1.145283,0.33122 2.14526,0.33122 1.419022,0 1.623785,0.0611 3.718355,1.10965 2.073097,1.03779 3.04437,1.81002 3.04437,2.42047 0,0.1422 0.27225,0.31833 0.60501,0.39142 0.33275,0.0731 0.55363,0.216 0.49084,0.3176 -0.11322,0.18319 -0.0565,0.20028 0.915,0.27552 0.27649,0.0214 1.62347,0.33328 2.9933,0.69304 1.36983,0.35976 3.04386,0.72629 3.72007,0.81452 1.88808,0.24634 13.3522,0.24121 15.14004,-0.007 z m 65.41734,-8.22738 c 0.11838,-0.22119 0.16999,-0.40217 0.1147,-0.40217 -0.0553,0 -0.1974,0.18098 -0.31578,0.40217 -0.11838,0.22119 -0.16999,0.40217 -0.11469,0.40217 0.0553,0 0.19739,-0.18098 0.31577,-0.40217 z m -40.82019,-1.80976 c 0,-0.1106 -0.0958,-0.20109 -0.21295,-0.20109 -0.11713,0 -0.15703,0.0905 -0.0887,0.20109 0.0684,0.11059 0.16418,0.20108 0.21296,0.20108 0.0488,0 0.0887,-0.0905 0.0887,-0.20108 z m 0.90704,-2.0537 c 2.14432,-1.72062 6.33341,-5.78265 6.33259,-6.14051 -4.5e-4,-0.19362 -1.03983,-0.25135 -4.52499,-0.25135 -2.7275,0 -4.5244,0.076 -4.5244,0.19127 0,0.1052 0.13573,0.71239 0.30162,1.3493 0.19203,0.73725 0.30163,2.09252 0.30163,3.72988 0,1.41452 0.0688,2.57185 0.15298,2.57185 0.0841,0 0.9664,-0.6527 1.96057,-1.45044 z m -66.529543,-2.08457 0.03165,-1.39156 -0.232735,1.34916 -0.232736,1.34917 -2.742316,-2.70649 -2.742315,-2.70649 h 3.216269 c 2.643106,0 3.197402,0.0492 3.11039,0.27592 -0.05823,0.15176 -0.159353,0.71731 -0.22471,1.25678 l -0.118831,0.98086 0.286866,-1.00542 c 0.157775,-0.55298 0.31708,-1.14116 0.354009,-1.30705 0.05719,-0.25689 -0.422722,-0.30985 -3.235547,-0.35705 -1.816483,-0.0305 -3.381424,0.0233 -3.477649,0.11954 -0.214214,0.21421 5.423216,5.7167 5.747288,5.60971 0.137282,-0.0453 0.241368,-0.63181 0.260366,-1.46708 z m 73.665893,-4.10621 c 0,-0.11059 -0.0905,-0.20108 -0.20109,-0.20108 -0.11059,0 -0.20108,0.0905 -0.20108,0.20108 0,0.1106 0.0905,0.20109 0.20108,0.20109 0.1106,0 0.20109,-0.0905 0.20109,-0.20109 z m 10.56982,-14.65246 c 0.50156,-0.81477 0.85729,-1.53606 0.7905,-1.60285 -0.0668,-0.0668 -0.1957,-0.001 -0.28646,0.14556 -0.11551,0.1869 -0.20628,0.20023 -0.30256,0.0444 -0.1389,-0.22475 -2.16274,-0.31854 -2.37138,-0.1099 -0.062,0.062 0.0124,0.58227 0.16519,1.15624 0.15281,0.57397 0.28093,1.45077 0.2847,1.94846 l 0.007,0.90488 0.4006,-0.50271 c 0.22033,-0.27649 0.81098,-1.16935 1.31255,-1.98413 z m -102.323766,-0.0146 c 0.230275,-0.21454 0.471025,-0.33772 0.535002,-0.27374 0.114681,0.11468 0.529744,-0.79346 0.529744,-1.15905 0,-0.1034 -0.271465,-0.188 -0.603254,-0.188 -0.411936,0 -0.603254,0.0993 -0.603254,0.31303 0,0.28332 -0.04242,0.28332 -0.446913,0 -0.435274,-0.30487 -1.161765,-0.42871 -1.161765,-0.19802 0,0.22565 1.046334,1.89584 1.187699,1.89584 0.07923,0 0.332467,-0.17553 0.562741,-0.39006 z M 190.54108,156.09696 c 0.0903,-0.43731 0.16653,-0.44884 3.35742,-0.50805 l 3.26504,-0.0606 -3.56925,-0.0449 -3.56925,-0.0449 0.0273,1.96058 0.0273,1.96057 0.18454,-1.40759 c 0.10149,-0.77418 0.2261,-1.60896 0.2769,-1.85507 z m 20.94673,-0.37664 c -0.046,-0.046 -0.36685,-0.0269 -0.7131,0.0424 l -0.62954,0.12591 0.64769,0.43911 0.6477,0.43912 0.0654,-0.48147 c 0.036,-0.26481 0.0278,-0.51907 -0.0182,-0.56502 z m 0.33861,-8.57659 c 0.0505,-0.24885 0.13542,-0.85964 0.18861,-1.35733 l 0.0967,-0.90488 -0.50964,1.00543 c -0.28031,0.55298 -0.64895,1.16377 -0.8192,1.35732 -0.28689,0.32614 -0.26339,0.3519 0.32103,0.3519 0.49266,0 0.65069,-0.099 0.72249,-0.45244 z m -16.27331,-0.73232 c -1.30149,-0.74654 -1.7149,-1.59248 -1.87777,-3.84236 l -0.12372,-1.70922 -0.13111,1.30705 c -0.0721,0.71888 -0.14169,2.04862 -0.15461,2.95498 l -0.0235,1.64793 0.95516,0.0753 c 0.52533,0.0414 1.27186,0.0908 1.65894,0.10967 l 0.7038,0.0344 z"
         id="path6757"
         transform="scale(0.26458333)" />
      <path
         style="fill:#000000;stroke:#000000;stroke-width:1.41741;stroke-linecap:round;stroke-linejoin:round;stroke-opacity:0.955017;paint-order:stroke markers fill"
         d="m 110.69713,289.55464 c -6.24411,-0.42803 -10.22271,-1.10311 -14.980814,-2.54191 -6.287997,-1.90141 -13.985397,-5.60954 -20.451903,-9.85242 -5.34768,-3.5088 -11.721649,-8.68129 -11.721649,-9.51216 0,-0.17178 -1.09344,-1.39678 -2.429865,-2.72221 -14.61601,-14.49574 -25.536566,-32.84568 -33.243562,-55.85952 -5.74883,-17.16657 -9.680437,-39.19501 -8.657889,-48.50937 0.187829,-1.71092 0.256528,-1.89851 1.157873,-3.16163 1.135385,-1.5911 1.964506,-2.25762 3.050098,-2.45195 0.438564,-0.0785 1.060732,-0.27891 1.382594,-0.44535 0.443407,-0.2293 2.759471,-0.42673 9.558472,-0.81481 4.935297,-0.28171 10.085253,-0.50779 11.444349,-0.50241 2.365791,0.009 2.50132,0.0329 3.18083,0.55115 1.355665,1.03401 2.796519,3.64928 2.132483,3.87063 -0.181499,0.0605 -0.240071,1.1935 -0.229428,4.43807 0.01731,5.27961 0.206609,7.74043 0.632747,8.2259 0.17077,0.19454 0.41415,0.98713 0.540848,1.76131 0.126697,0.77417 0.508503,2.89359 0.848455,4.70982 0.396577,2.11874 0.573815,3.57913 0.494543,4.07487 -0.08991,0.56228 0.100265,1.63414 0.698496,3.93682 0.999737,3.84814 1.417869,4.8734 1.987515,4.8734 0.227413,0 0.413477,0.0944 0.413477,0.20986 0,0.30403 1.326455,3.87544 2.050571,5.52105 1.468451,3.33718 2.172207,5.23869 2.172207,5.86918 0,0.99239 1.498654,3.88343 2.013091,3.88343 0.219959,0 0.399926,0.0905 0.399926,0.20109 0,0.11059 0.231561,0.20108 0.514579,0.20108 0.291847,0 0.460786,-0.087 0.390302,-0.20108 -0.08273,-0.13387 17.548076,-0.20109 52.739164,-0.20109 h 52.86345 l 0.73749,-1.69804 c 0.42259,-0.97299 0.7375,-2.0248 0.73751,-2.46329 1e-5,-0.90722 1.62306,-3.94474 2.38359,-4.46086 0.26427,-0.17934 0.69081,-0.52066 0.94786,-0.75849 0.40913,-0.37853 0.47731,-0.39106 0.54715,-0.10054 0.0586,0.24377 0.14156,0.1816 0.31252,-0.23421 0.37006,-0.9001 0.28724,-1.33346 -0.29735,-1.55572 -0.49604,-0.18859 -0.5225,-0.26251 -0.41213,-1.15126 0.21039,-1.69402 0.71485,-3.06111 1.12957,-3.06111 0.20508,0 0.42495,-0.13573 0.48861,-0.30163 0.0637,-0.16589 0.25933,-0.30163 0.43481,-0.30163 0.62312,0 1.33635,-2.06273 1.5197,-4.39516 0.0925,-1.17705 0.27059,-2.49355 0.39568,-2.92556 0.12509,-0.43201 0.16932,-1.17303 0.0983,-1.64671 -0.0999,-0.66613 0.006,-1.26262 0.467,-2.63297 0.35493,-1.05483 0.64518,-2.42265 0.7173,-3.38041 0.15847,-2.10417 0.27929,-2.51355 0.74182,-2.51355 0.20829,0 0.37872,-0.1247 0.37872,-0.2771 0,-0.15241 0.1872,-0.40141 0.41601,-0.55333 0.48673,-0.32317 0.73793,-1.47682 1.37736,-6.32543 0.62898,-4.7694 0.59339,-7.72972 -0.1026,-8.53521 -0.22104,-0.2558 -0.21901,-0.53367 0.012,-1.63763 0.153,-0.73125 0.46981,-1.70517 0.70402,-2.16426 0.60011,-1.17631 1.77987,-2.42513 2.29186,-2.42603 0.51067,-8e-4 1.73609,-0.7101 1.73609,-1.00475 0,-0.11389 -0.15141,-0.75165 -0.33646,-1.41725 -0.30582,-1.09996 -0.31551,-1.81846 -0.10644,-7.88954 0.26155,-7.59473 0.73883,-11.60222 2.37609,-19.95095 2.29218,-11.68833 7.65051,-27.691461 13.31435,-39.764501 l 1.0141,-2.161661 h 22.57098 22.57099 l -1.74821,1.78653 c -1.22869,1.255631 -1.71099,1.883518 -1.62297,2.112904 0.24156,0.629473 -0.14153,1.715897 -1.03115,2.92437 -0.60303,0.819155 -1.03631,1.219584 -1.31963,1.219584 -0.23202,0 -0.70726,0.148587 -1.05612,0.330194 -0.34886,0.181606 -0.77001,0.394214 -0.93591,0.472463 -0.60257,0.284214 -2.41275,3.053845 -2.41941,3.701739 -0.003,0.342795 -0.13925,0.798913 -0.30163,1.013595 -0.16237,0.214683 -0.29523,0.676168 -0.29523,1.025524 0,0.778195 -0.75656,1.862402 -2.2139,3.172669 -0.68729,0.617947 -1.20647,0.935123 -1.43347,0.87576 -0.22168,-0.05797 -0.47312,0.08582 -0.66674,0.381332 -0.4228,0.645289 -0.39057,0.890721 0.11703,0.890721 0.39061,0 0.416,0.07426 0.29151,0.852776 -0.20366,1.273524 -1.13898,3.023121 -1.78052,3.330611 -0.30115,0.14433 -0.54753,0.33816 -0.54753,0.43073 0,0.0926 -0.23252,0.22668 -0.51671,0.298 -0.68815,0.17272 -1.69832,2.30919 -1.89372,4.00512 -0.0784,0.68065 -0.24681,1.49227 -0.37422,1.80361 -0.12738,0.31134 -0.23163,0.92515 -0.23163,1.36401 0,0.77987 -0.55197,2.09254 -1.5095,3.58973 -0.26151,0.40889 -0.50788,1.19136 -0.57673,1.8317 -0.16937,1.57525 -0.59056,2.68792 -1.05059,2.77541 -0.21019,0.04 -0.45453,0.19833 -0.54297,0.3519 -0.0884,0.15357 -0.2707,0.27921 -0.405,0.27921 -0.33979,0 -0.91976,1.41148 -1.36335,3.3179 -1.03024,4.42782 -1.16547,5.19552 -0.97724,5.54728 0.10547,0.19705 0.19176,0.63692 0.19176,0.97748 0,0.34056 0.1034,0.78476 0.22976,0.9871 0.17836,0.28562 0.11365,1.03823 -0.28938,3.36544 -0.42578,2.45848 -0.59366,3.04716 -0.93356,3.27343 -0.22793,0.15173 -0.41441,0.38837 -0.41441,0.52586 0,0.13749 -0.18454,0.48458 -0.41008,0.77131 -0.63723,0.81012 -2.07399,9.37837 -2.02379,12.06915 0.0102,0.54834 -0.16324,1.03099 -0.59726,1.66183 l -0.61168,0.88904 0.44063,0.61882 c 0.43186,0.60649 1.19133,2.73318 1.19133,3.336 0,0.17374 -0.11703,0.26032 -0.27168,0.20098 -0.22077,-0.0847 -0.29469,0.71183 -0.39451,4.25153 -0.20097,7.12605 -0.67763,11.38738 -2.46377,22.0261 -3.95038,23.52939 -12.11874,44.96144 -23.92097,62.76357 -4.47029,6.74285 -8.9849,12.34852 -14.47306,17.97082 -9.62701,9.86231 -18.84851,16.27585 -31.46976,21.8872 -6.4166,2.85279 -10.06243,3.77261 -18.19816,4.59127 -3.6465,0.36694 -13.68332,0.53219 -17.29328,0.28473 z M 49.084314,241.45245 C 38.793161,225.33521 31.375524,206.22724 27.143179,184.9317 c -0.12813,-0.6447 -0.273156,-1.13199 -0.32228,-1.08287 -0.117287,0.11729 1.134591,6.31981 2.042245,10.11844 3.870216,16.19731 10.094931,31.56069 17.956166,44.3181 1.532623,2.48717 3.626416,5.63037 3.75059,5.63037 0.048,0 -0.620516,-1.10848 -1.485586,-2.46329 z m 73.929246,1.30716 c -3.40084,-0.0309 -8.96586,-0.0309 -12.36671,0 -3.40084,0.0309 -0.61833,0.0562 6.18336,0.0562 6.80169,0 9.5842,-0.0253 6.18335,-0.0562 z m 9.2504,-0.89481 c 0.35972,-0.13725 0.7044,-0.40825 0.76596,-0.60221 0.25621,-0.80726 4.03225,-2.77614 5.32425,-2.77614 0.44903,0 1.06076,-0.12364 1.35941,-0.27475 0.29865,-0.15112 0.87858,-0.33549 1.28875,-0.40972 0.49872,-0.0903 0.88346,-0.32836 1.16146,-0.71878 0.22864,-0.3211 0.58677,-0.63811 0.79585,-0.70446 0.20907,-0.0664 0.47047,-0.3798 0.58089,-0.69653 0.14158,-0.40616 0.62063,-0.82532 1.62548,-1.42229 l 1.42473,-0.84642 v -1.44095 c 0,-0.79253 -0.13592,-2.53884 -0.30204,-3.8807 -0.16613,-1.34186 -0.24663,-2.58415 -0.17891,-2.76064 0.20058,-0.52269 0.92247,-0.58342 5.54376,-0.46638 l 4.39728,0.11137 0.32535,-0.63474 c 0.61646,-1.20266 1.49536,-2.34396 1.80506,-2.34396 0.65283,0 2.38213,-1.57187 2.57508,-2.34065 0.0711,-0.28318 0.31519,-0.76641 0.54248,-1.07384 0.30841,-0.41714 0.36412,-0.65436 0.21958,-0.93498 -0.10652,-0.20681 -0.25159,-1.37317 -0.32236,-2.59191 -0.14874,-2.56104 -0.34688,-3.39541 -0.96177,-4.04993 l -0.44202,-0.47051 H 115.82479 71.857341 l -0.417949,0.45244 c -0.536283,0.58054 -0.856124,1.76553 -0.857541,3.17714 -6.04e-4,0.61381 -0.09999,1.21489 -0.220836,1.33573 -0.158895,0.15889 -0.158895,0.33335 0,0.63025 0.120842,0.2258 0.219713,0.64875 0.219713,0.93989 0,0.29114 0.215718,0.81739 0.479372,1.16945 0.263657,0.35206 0.538686,0.83573 0.611179,1.07482 0.236896,0.78132 2.885415,2.6821 3.737189,2.6821 0.37957,0 1.601284,1.24258 2.125365,2.16167 l 0.372656,0.65352 h 3.252264 c 4.474309,0 4.494486,0.0191 3.813985,3.60638 -0.451097,2.378 -0.424596,2.71499 0.236902,3.01237 1.365365,0.61379 2.463288,1.47121 2.463288,1.92369 0,0.25142 0.135732,0.56978 0.301627,0.70746 0.165895,0.13768 0.301627,0.44404 0.301627,0.68079 0,0.80643 2.928867,2.76932 4.533758,3.03849 0.437242,0.0733 1.136149,0.26186 1.553124,0.41895 0.416975,0.1571 1.14307,0.28563 1.613546,0.28563 1.074651,0 3.732855,1.44222 4.76682,2.58625 0.38709,0.4283 0.85572,0.85862 1.04141,0.95627 0.55621,0.2925 29.69356,0.13557 30.47912,-0.16417 z m 16.7398,-7.40004 c 0,-0.1106 -0.0958,-0.20109 -0.21295,-0.20109 -0.11713,0 -0.15703,0.0905 -0.0887,0.20109 0.0684,0.11059 0.16418,0.20108 0.21296,0.20108 0.0488,0 0.0887,-0.0905 0.0887,-0.20108 z m 18.5882,-22.97393 0.55306,-0.95515 h -1.04967 -1.04966 l 0.13864,0.65352 c 0.0763,0.35944 0.19032,0.95024 0.25348,1.31288 0.1301,0.74701 0.14222,0.73639 1.15415,-1.01125 z M 25.661653,160.4928 l 0.71178,-0.83155 h -1.121634 -1.121635 l 0.0022,0.85461 c 0.0012,0.47003 0.06183,1.21569 0.134698,1.65702 l 0.132485,0.80242 0.275156,-0.82547 c 0.151335,-0.45401 0.595457,-1.19967 0.986936,-1.65703 z"
         id="path6796"
         transform="scale(0.26458333)" />
      <path
         style="fill:#000000;stroke:#000000;stroke-width:1.41741;stroke-linecap:round;stroke-linejoin:round;stroke-opacity:0.955017;paint-order:stroke markers fill"
         d="m 315.61993,80.584692 c 0.38237,-1.191975 0.47598,-2.053993 0.48042,-4.423863 0.003,-1.410107 0.0616,-2.56383 0.13105,-2.56383 0.25772,0 3.66788,2.985129 5.90628,5.170137 l 2.31248,2.257315 -4.48769,0.0063 -4.48768,0.0063 z"
         id="path6835"
         transform="scale(0.26458333)" />
      <path
         style="fill:#000000;stroke:#000000;stroke-width:1.41741;stroke-linecap:round;stroke-linejoin:round;stroke-opacity:0.955017;paint-order:stroke markers fill"
         d="M 199.87819,107.89996 V 84.491625 l 1.02864,-2.28023 c 0.56575,-1.254125 1.38115,-2.981511 1.812,-3.838635 0.71386,-1.42013 0.83656,-1.558406 1.38283,-1.558406 0.56473,0 0.66956,-0.139842 1.80942,-2.413708 4.58353,-9.143585 13.87816,-21.712239 22.31504,-30.175532 6.1616,-6.180883 15.10813,-13.288907 21.23277,-16.869455 7.65133,-4.473066 17.56554,-7.771121 27.63582,-9.193309 3.67152,-0.518515 14.47042,-0.517413 18.29871,0.0019 15.56658,2.111494 29.42716,8.422756 42.7305,19.456869 2.83366,2.350308 10.07259,9.644356 12.65429,12.750629 16.75439,20.158786 28.46869,47.248107 33.1906,76.753312 0.27782,1.73597 0.50513,3.38786 0.50513,3.67086 v 0.51455 l -18.14789,-0.0513 -18.1479,-0.0513 -0.56891,-1.6973 c -0.51451,-1.53498 -0.57339,-1.99652 -0.61569,-4.82603 -0.0436,-2.91566 -0.0892,-3.2504 -0.66959,-4.91533 -0.65996,-1.89316 -0.84575,-2.12657 -1.6966,-2.13147 -0.47505,-0.003 -0.58133,-0.14168 -0.95515,-1.24864 -0.23135,-0.68505 -0.42063,-1.63518 -0.42063,-2.11138 0,-0.73178 0.0623,-0.86584 0.40217,-0.86584 0.50823,0 0.49674,-0.27627 -0.0586,-1.40759 -0.32835,-0.66896 -0.61569,-0.96033 -1.10207,-1.11754 -0.36186,-0.11697 -0.78249,-0.34319 -0.93473,-0.50272 -0.36585,-0.38335 -2.28729,-5.08676 -2.45332,-6.0054 -0.16484,-0.91203 -0.59488,-1.78599 -1.19533,-2.42929 -0.61126,-0.65487 -1.63589,-2.923046 -1.72608,-3.82094 -0.0597,-0.594569 -0.003,-0.712322 0.36583,-0.76491 0.45771,-0.06519 0.43081,-0.122655 -1.91005,-4.080801 -0.21056,-0.356026 -0.48969,-0.528555 -0.87278,-0.539448 -0.78441,-0.0223 -1.29851,-0.432191 -2.62075,-2.089517 -0.83627,-1.048192 -1.20508,-1.709974 -1.36279,-2.445363 -0.36451,-1.699656 -1.20106,-2.747253 -2.1938,-2.747253 -0.49009,0 -2.33378,-2.199726 -2.6521,-3.164249 l -0.21662,-0.65636 h -4.81675 c -5.37733,0 -5.2838,0.0267 -4.81617,-1.375021 0.13512,-0.405003 0.2957,-2.116312 0.35686,-3.80291 0.10544,-2.908178 0.0916,-3.066679 -0.26763,-3.0692 -0.20835,-0.0014 -1.03324,-0.36559 -1.83308,-0.809173 -1.30371,-0.723026 -1.509,-0.922225 -1.98304,-1.924264 -0.71235,-1.505782 -1.36497,-1.887128 -3.23125,-1.888101 -1.35142,-8.04e-4 -1.60595,-0.07932 -4.12224,-1.273194 -2.11503,-1.003491 -2.74564,-1.396635 -2.98351,-1.860033 -0.48617,-0.947091 -0.83976,-1.222116 -2.00352,-1.558354 -0.60425,-0.174584 -1.10624,-0.299045 -1.11552,-0.276584 -0.75946,1.837395 -0.11163,1.750058 -12.98116,1.750058 -9.90814,0 -11.16066,-0.03543 -11.78873,-0.333469 -0.3865,-0.183409 -0.80308,-0.567984 -0.92572,-0.85461 -0.12264,-0.286628 -0.23111,-0.540057 -0.24106,-0.563178 -0.01,-0.02312 -0.55685,0.117904 -1.21535,0.313387 -1.21031,0.359292 -1.28799,0.443928 -1.60709,1.750925 -0.0285,0.116882 -1.30564,0.787065 -2.83801,1.489295 -2.61816,1.199808 -2.9013,1.284588 -4.69644,1.406228 -1.89346,0.128302 -1.92665,0.139697 -3.76433,1.292166 -1.94687,1.220948 -1.91279,1.173941 -2.13123,2.93939 -0.0525,0.424301 -2.37809,1.93997 -3.15059,2.053348 -0.36765,0.05396 -0.74917,-0.01339 -0.89353,-0.157761 -0.20185,-0.201851 -0.48811,-0.03984 -1.44002,0.814998 -0.65345,0.58681 -1.12266,1.134518 -1.04268,1.21713 0.08,0.08261 -0.42866,0.748345 -1.13029,1.479412 -2.11419,2.202871 -2.61807,2.837345 -2.25331,2.837345 0.71751,0 0.14358,2.021995 -0.9992,3.520259 -0.31063,0.407257 -0.71596,0.705208 -0.96441,0.708914 -0.23572,0.0035 -0.60422,0.139252 -0.81891,0.301628 -0.21468,0.162377 -0.57663,0.298238 -0.80434,0.301912 -0.2277,0.0037 -0.76979,0.252701 -1.20465,0.553395 -0.62935,0.435184 -0.94209,0.895308 -1.53302,2.255523 -0.76079,1.751162 -1.14919,2.981493 -1.33295,4.222366 -0.0747,0.504431 -0.42597,1.035649 -1.24007,1.875288 -1.34656,1.38881 -2.14433,1.874391 -2.53999,1.546022 -0.19411,-0.161097 -0.30718,-0.162165 -0.40503,-0.0038 -0.19253,0.311517 0.30686,0.846084 0.66281,0.709493 0.24711,-0.09483 0.27558,0.04801 0.16848,0.845459 -0.154,1.146728 -1.24751,3.473112 -1.63253,3.473112 -0.55759,0 -1.45527,0.69522 -1.90367,1.47433 -1.25308,2.17728 -1.75694,3.87085 -2.19368,7.3734 -0.0842,0.67491 -0.38927,1.5437 -0.78283,2.22905 -0.35581,0.61962 -0.78435,1.7915 -0.95594,2.61411 -0.44903,2.15264 -0.43989,2.1357 -1.41445,2.62242 -1.38164,0.69002 -1.68367,1.14722 -2.32921,3.52579 -1.01563,3.74225 -1.10602,7.33613 -0.19861,7.89694 0.18288,0.11302 0.21619,0.42559 0.11634,1.09144 l -0.13992,0.93306 H 211.61881 199.87819 Z M 324.5507,81.116432 c 0,-0.268836 -1.17985,-1.503116 -3.59401,-3.759801 -3.00134,-2.805568 -4.5533,-4.044501 -4.84249,-3.865773 -0.12833,0.07931 -0.21014,1.126547 -0.21014,2.689862 0,1.626809 -0.10995,2.982114 -0.30163,3.71801 -0.16589,0.636914 -0.30163,1.198853 -0.30163,1.248756 0,0.0499 2.08123,0.09073 4.62495,0.09073 2.54372,0 4.62495,-0.0548 4.62495,-0.121784 z M 219.56622,64.054597 c 7.63784,-10.305961 17.3751,-20.276478 26.41063,-27.043307 1.07832,-0.807566 1.96058,-1.508976 1.96058,-1.558691 0,-0.14751 -4.39357,2.906499 -6.13308,4.263163 -2.14735,1.674732 -3.70914,3.070231 -6.83497,6.107185 -7.29067,7.08338 -12.20277,12.829534 -16.52295,19.328495 -1.36327,2.0508 -2.06681,3.22169 -1.33454,2.221053 0.19866,-0.271477 1.30311,-1.764531 2.45433,-3.317898 z m 75.56128,0.489804 c -2.74914,-0.824946 -17.59879,-0.830047 -20.35483,-0.007 -0.36006,0.107528 3.63976,0.177297 10.16434,0.177297 6.18846,0 10.51697,-0.07234 10.19049,-0.170303 z"
         id="path6874"
         transform="scale(0.26458333)" />
      <path
         style="fill:#000000;stroke:#000000;stroke-width:1.41741;stroke-linecap:round;stroke-linejoin:round;stroke-opacity:0.955017;paint-order:stroke markers fill"
         d="m 333.93059,96.074663 c 0.1497,-0.577085 0.27395,-1.233124 0.27611,-1.457864 0.002,-0.25853 0.2871,0.07147 0.77486,0.898432 0.424,0.718878 0.7336,1.374916 0.68799,1.457864 -0.0456,0.08295 -0.51677,0.150813 -1.04703,0.150813 h -0.9641 z"
         id="path6913"
         transform="scale(0.26458333)" />
      <path
         style="fill:#000000;stroke:#000000;stroke-width:1.41741;stroke-linecap:round;stroke-linejoin:round;stroke-opacity:0.955017;paint-order:stroke markers fill"
         d="m 246.93201,80.914385 c 0,-0.06751 0.67866,-0.844169 1.50813,-1.725906 0.82948,-0.881736 1.50814,-1.714451 1.50814,-1.850477 0,-0.239759 1.0152,-1.327987 1.23887,-1.327987 0.061,0 0.17042,0.713743 0.24317,1.586095 0.0728,0.872353 0.25789,2.003454 0.4114,2.513559 l 0.27913,0.927464 h -2.59442 c -1.42693,0 -2.59442,-0.05524 -2.59442,-0.122748 z"
         id="path6952"
         transform="scale(0.26458333)" />
    </g>
  </g>
</svg>
