<?xml version="1.0" encoding="UTF-8" standalone="no"?>
<!-- Created with Inkscape (http://www.inkscape.org/) -->

<svg
   width="210mm"
   height="297mm"
   viewBox="0 0 210 297"
   version="1.1"
   id="svg5"
   inkscape:version="1.1 (c68e22c387, 2021-05-23)"
   sodipodi:docname="Sine wavform LFO icon.svg"
   xmlns:inkscape="http://www.inkscape.org/namespaces/inkscape"
   xmlns:sodipodi="http://sodipodi.sourceforge.net/DTD/sodipodi-0.dtd"
   xmlns="http://www.w3.org/2000/svg"
   xmlns:svg="http://www.w3.org/2000/svg">
  <sodipodi:namedview
     id="namedview7"
     pagecolor="#ffffff"
     bordercolor="#666666"
     borderopacity="1.0"
     inkscape:pageshadow="2"
     inkscape:pageopacity="0.0"
     inkscape:pagecheckerboard="0"
     inkscape:document-units="mm"
     showgrid="false"
     inkscape:zoom="0.62270623"
     inkscape:cx="290.66676"
     inkscape:cy="582.13646"
     inkscape:window-width="1680"
     inkscape:window-height="956"
     inkscape:window-x="-11"
     inkscape:window-y="-11"
     inkscape:window-maximized="1"
     inkscape:current-layer="layer1" />
  <defs
     id="defs2">
    <inkscape:path-effect
       effect="spiro"
       id="path-effect1664"
       is_visible="true"
       lpeversion="1" />
    <inkscape:path-effect
       effect="skeletal"
       id="path-effect1615"
       is_visible="true"
       lpeversion="1"
       pattern="M 0,0 H 1"
       copytype="repeated_stretched"
       prop_scale="1"
       scale_y_rel="false"
       spacing="0"
       normal_offset="0"
       tang_offset="0"
       prop_units="false"
       vertical_pattern="false"
       hide_knot="false"
       fuse_tolerance="0" />
    <inkscape:path-effect
       effect="skeletal"
       id="path-effect1584"
       is_visible="true"
       lpeversion="1"
       pattern="M 0,0 H 1"
       copytype="repeated_stretched"
       prop_scale="1"
       scale_y_rel="false"
       spacing="0"
       normal_offset="0"
       tang_offset="0"
       prop_units="false"
       vertical_pattern="false"
       hide_knot="false"
       fuse_tolerance="0" />
    <inkscape:path-effect
       effect="skeletal"
       id="path-effect1277"
       is_visible="true"
       lpeversion="1"
       pattern="M 75.630905,84.128756 32.791212,69.198842 28.740354,114.38437 5.520009,75.410571 -26.627828,107.42085 -19.363767,62.63944 -64.566252,66.496509 -30.216721,36.861202 -67.323107,10.760292 -21.960634,10.137785 -33.608433,-33.7082 1.5413774,-5.026632 20.8023,-46.101667 29.292463,-1.5364472 70.449707,-20.621066 48.307577,18.975243 92.103215,30.810943 49.689343,46.910789 Z"
       copytype="single"
       prop_scale="1"
       scale_y_rel="false"
       spacing="0"
       normal_offset="0"
       tang_offset="0"
       prop_units="false"
       vertical_pattern="false"
       hide_knot="false"
       fuse_tolerance="0" />
    <inkscape:path-effect
       effect="mirror_symmetry"
       start_point="140.77148,106.26539"
       end_point="140.77148,159.3457"
       center_point="140.77148,132.80554"
       id="path-effect1275"
       is_visible="true"
       lpeversion="1.1"
       mode="free"
       discard_orig_path="false"
       fuse_paths="false"
       oposite_fuse="false"
       split_items="false"
       split_open="false" />
    <inkscape:path-effect
       effect="spiro"
       id="path-effect859"
       is_visible="true"
       lpeversion="1" />
  </defs>
  <g
     inkscape:label="Layer 1"
     inkscape:groupmode="layer"
     id="layer1">
    <path
       id="path2129"
       style="fill:none;stroke:#000000;stroke-width:0.428543;stroke-linecap:round;stroke-linejoin:round;stroke-opacity:0.955017;paint-order:stroke markers fill"
       inkscape:transform-center-x="-0.2289161"
       inkscape:transform-center-y="-0.053122702"
       d="m 97.394219,49.283937 -5.547574,-1.133291 -0.524573,3.429907 -3.006941,-2.958388 -4.163025,2.429809 0.940673,-3.399229 -5.85355,0.292778 4.448133,-2.249531 -4.805136,-1.98125 5.874264,-0.04727 -1.508345,-3.328222 4.55177,2.177134 2.49421,-3.11789 1.099445,3.382821 5.329704,-1.448661 -2.867321,3.005643 5.671369,0.898414 -5.492432,1.222095 z m -1.027947,-12.182039 -5.547575,-1.13329 -0.524563,3.429904 -3.006951,-2.958386 -4.163017,2.429808 0.940666,-3.399228 -5.853552,0.292778 4.448134,-2.249531 -4.805135,-1.98125 5.874272,-0.04727 -1.508349,-3.328224 4.551765,2.177136 2.494219,-3.117889 1.099436,3.382819 5.329706,-1.448659 -2.86732,3.005642 5.671368,0.898413 -5.492432,1.222095 z m -8.073929,-11.241287 -5.547573,-1.133287 -0.524575,3.429905 -3.006945,-2.95839 -4.163025,2.429809 0.940673,-3.39923 -5.853545,0.292779 4.448128,-2.249532 -4.805131,-1.981246 5.87426,-0.04725 -1.508346,-3.328224 4.551771,2.177137 2.494209,-3.117889 1.099448,3.38282 5.329705,-1.44866 -2.867318,3.005644 5.671363,0.898413 -5.492427,1.222094 z m -8.073925,-11.241287 -5.547582,-1.133286 -0.524564,3.429903 -3.00695,-2.958389 -4.163017,2.429809 0.940666,-3.39923 -5.853547,0.292779 4.448129,-2.249531 -4.805131,-1.9812459 5.874268,-0.047251 -1.508346,-3.3282239 4.551762,2.1771369 2.494219,-3.117891 1.099436,3.3828197 5.329711,-1.4486584 -2.867326,3.0056422 5.671374,0.8984154 -5.492437,1.222094 z m -20.573143,2.708791 -5.547574,-1.133287 -0.524571,3.429904 -3.006944,-2.958389 -4.163022,2.429809 0.94067,-3.399231 -5.853548,0.29278 4.44813,-2.249531 -4.805133,-1.981249 5.874265,-0.04725 -1.508346,-3.3282242 4.551766,2.1771342 2.494215,-3.117888 1.099444,3.38282 5.329704,-1.4486607 -2.867321,3.0056447 5.671365,0.898413 -5.492432,1.222094 z m -12.571162,9.7193 -5.547575,-1.133288 -0.524569,3.429906 -3.006944,-2.958391 -4.163022,2.42981 0.940671,-3.39923 -5.85355,0.292779 4.448132,-2.249532 -4.805133,-1.981245 5.874264,-0.04725 -1.508343,-3.328223 4.551762,2.177137 2.494216,-3.117889 1.099443,3.382818 5.329706,-1.448659 -2.867321,3.005643 5.671365,0.898415 -5.492432,1.222094 z m -12.571161,9.719294 -5.547575,-1.133283 -0.524572,3.429904 -3.006943,-2.958393 -4.16302,2.429816 0.940667,-3.399236 -5.853546,0.292778 4.448131,-2.24953 -4.805136,-1.981244 5.874267,-0.04727 -1.508345,-3.328227 4.551766,2.177137 2.494215,-3.11789 1.099443,3.38282 5.329702,-1.448659 -2.86732,3.005644 5.671365,0.898413 -5.492433,1.222096 z m -12.571165,9.719302 -5.547573,-1.133291 -0.524574,3.429911 -3.006944,-2.958392 -4.1630185,2.429808 0.9406677,-3.399229 -5.8535495,0.292779 4.4481308,-2.249531 -4.805133,-1.98125 5.8742643,-0.04727 -1.5083426,-3.328223 4.5517618,2.177134 2.494216,-3.11789 1.099443,3.382821 5.329706,-1.448661 -2.867321,3.005643 5.671365,0.898414 -5.492433,1.222096 z" />
    <path
       id="path2169"
       style="fill:#000000;stroke:#000000;stroke-width:0.428543;stroke-linecap:round;stroke-linejoin:round;stroke-opacity:0.955017;paint-order:stroke markers fill"
       inkscape:transform-center-x="-0.2289161"
       inkscape:transform-center-y="-0.053122702"
       d="m 205.34487,49.283937 -5.5476,-1.133291 -0.52458,3.429907 -3.00696,-2.958388 -4.16304,2.429809 0.94067,-3.399229 -5.85358,0.292778 4.44816,-2.249531 -4.80516,-1.98125 5.87429,-0.04727 -1.50835,-3.328222 4.55179,2.177134 2.49423,-3.11789 1.09945,3.382821 5.32973,-1.448661 -2.86733,3.005643 5.6714,0.898414 -5.49247,1.222095 z m -1.02795,-12.182039 -5.54761,-1.13329 -0.52456,3.429904 -3.00697,-2.958386 -4.16304,2.429808 0.94067,-3.399228 -5.85359,0.292778 4.44816,-2.249531 -4.80516,-1.98125 5.87431,-0.04727 -1.50836,-3.328224 4.55179,2.177136 2.49423,-3.117889 1.09944,3.382819 5.32974,-1.448659 -2.86733,3.005642 5.6714,0.898413 -5.49247,1.222095 z m -8.07398,-11.241287 -5.5476,-1.133287 -0.52458,3.429905 -3.00696,-2.95839 -4.16305,2.429809 0.94068,-3.39923 -5.85358,0.292779 4.44815,-2.249532 -4.80515,-1.981246 5.87429,-0.04725 -1.50835,-3.328224 4.55179,2.177137 2.49423,-3.117889 1.09945,3.38282 5.32973,-1.44866 -2.86733,3.005644 5.67139,0.898413 -5.49245,1.222094 z m -8.07397,-11.241287 -5.54761,-1.133286 -0.52457,3.429903 -3.00696,-2.958389 -4.16304,2.429809 0.94067,-3.39923 -5.85358,0.292779 4.44815,-2.249531 -4.80516,-1.9812459 5.8743,-0.047251 -1.50835,-3.3282239 4.55179,2.1771369 2.49423,-3.117891 1.09944,3.3828197 5.32974,-1.4486584 -2.86734,3.0056422 5.67141,0.8984154 -5.49247,1.222094 z m -20.57326,2.708791 -5.5476,-1.133287 -0.52457,3.429904 -3.00696,-2.958389 -4.16304,2.429809 0.94067,-3.399231 -5.85358,0.29278 4.44816,-2.249531 -4.80516,-1.981249 5.87429,-0.04725 -1.50835,-3.3282242 4.55179,2.1771342 2.49422,-3.117888 1.09945,3.38282 5.32974,-1.4486607 -2.86734,3.0056447 5.6714,0.898413 -5.49247,1.222094 z m -12.57122,9.7193 -5.54761,-1.133288 -0.52457,3.429906 -3.00696,-2.958391 -4.16305,2.42981 0.94068,-3.39923 -5.85358,0.292779 4.44816,-2.249532 -4.80517,-1.981245 5.8743,-0.04725 -1.50835,-3.328223 4.55179,2.177137 2.49423,-3.117889 1.09945,3.382818 5.32973,-1.448659 -2.86733,3.005643 5.6714,0.898415 -5.49247,1.222094 z m -12.57123,9.719294 -5.54761,-1.133283 -0.52457,3.429904 -3.00696,-2.958393 -4.16305,2.429816 0.94067,-3.399236 -5.85358,0.292778 4.44816,-2.24953 -4.80516,-1.981244 5.8743,-0.04727 -1.50835,-3.328227 4.55179,2.177137 2.49423,-3.11789 1.09944,3.38282 5.32974,-1.448659 -2.86734,3.005644 5.6714,0.898413 -5.49247,1.222096 z m -12.57124,9.719302 -5.5476,-1.133291 -0.52458,3.429911 -3.00696,-2.958392 -4.16304,2.429808 0.94067,-3.399229 -5.85359,0.292779 4.44816,-2.249531 -4.80516,-1.98125 5.8743,-0.04727 -1.50835,-3.328223 4.55179,2.177134 2.49423,-3.11789 1.09945,3.382821 5.32973,-1.448661 -2.86734,3.005643 5.6714,0.898414 -5.49246,1.222096 z" />
    <path
       id="path2189"
       style="fill:#ffffff;stroke:#000000;stroke-width:1.9;stroke-linecap:round;stroke-linejoin:round;stroke-miterlimit:4;stroke-dasharray:none;stroke-opacity:0.955017;paint-order:stroke markers fill"
       inkscape:transform-center-x="-0.2289161"
       inkscape:transform-center-y="-0.053122702"
       d="m 97.394219,277.88509 -5.547574,-1.1333 -0.524573,3.42993 -3.006941,-2.95841 -4.163025,2.42982 0.940673,-3.39924 -5.85355,0.29278 4.448133,-2.24955 -4.805136,-1.98126 5.874264,-0.0473 -1.508345,-3.32824 4.55177,2.17715 2.49421,-3.11791 1.099445,3.38284 5.329704,-1.44867 -2.867321,3.00566 5.671369,0.89842 -5.492432,1.2221 z m -1.027947,-12.18211 -5.547575,-1.1333 -0.524563,3.42993 -3.006951,-2.95841 -4.163017,2.42983 0.940666,-3.39925 -5.853552,0.29278 4.448134,-2.24955 -4.805135,-1.98126 5.874272,-0.0473 -1.508349,-3.32824 4.551765,2.17715 2.494219,-3.11791 1.099436,3.38284 5.329706,-1.44867 -2.86732,3.00566 5.671368,0.89842 -5.492432,1.2221 z m -8.073929,-11.24135 -5.547573,-1.1333 -0.524575,3.42993 -3.006945,-2.95841 -4.163025,2.42983 0.940673,-3.39925 -5.853545,0.29278 4.448128,-2.24955 -4.805131,-1.98125 5.87426,-0.0472 -1.508346,-3.32825 4.551771,2.17715 2.494209,-3.1179 1.099448,3.38283 5.329705,-1.44867 -2.867318,3.00567 5.671363,0.89842 -5.492427,1.2221 z m -8.073925,-11.24135 -5.547582,-1.13329 -0.524564,3.42992 -3.00695,-2.95841 -4.163017,2.42982 0.940666,-3.39924 -5.853547,0.29278 4.448129,-2.24955 -4.805131,-1.98125 5.874268,-0.0473 -1.508346,-3.32825 4.551762,2.17715 2.494219,-3.11791 1.099436,3.38284 5.329711,-1.44867 -2.867326,3.00566 5.671374,0.89843 -5.492437,1.2221 z m -20.573143,2.7088 -5.547574,-1.13329 -0.524571,3.42993 -3.006944,-2.95841 -4.163022,2.42982 0.94067,-3.39925 -5.853548,0.29278 4.44813,-2.24954 -4.805133,-1.98126 5.874265,-0.0473 -1.508346,-3.32825 4.551766,2.17715 2.494215,-3.1179 1.099444,3.38284 5.329704,-1.44867 -2.867321,3.00566 5.671365,0.89842 -5.492432,1.2221 z m -12.571162,9.71936 -5.547575,-1.1333 -0.524569,3.42993 -3.006944,-2.95841 -4.163022,2.42983 0.940671,-3.39925 -5.85355,0.29278 4.448132,-2.24955 -4.805133,-1.98125 5.874264,-0.0473 -1.508343,-3.32824 4.551762,2.17714 2.494216,-3.1179 1.099443,3.38283 5.329706,-1.44866 -2.867321,3.00566 5.671365,0.89842 -5.492432,1.2221 z m -12.571161,9.71935 -5.547575,-1.13329 -0.524572,3.42992 -3.006943,-2.95841 -4.16302,2.42983 0.940667,-3.39925 -5.853546,0.29278 4.448131,-2.24955 -4.805136,-1.98125 5.874267,-0.0473 -1.508345,-3.32825 4.551766,2.17715 2.494215,-3.11791 1.099443,3.38284 5.329702,-1.44866 -2.86732,3.00566 5.671365,0.89841 -5.492433,1.22211 z m -12.571165,9.71935 -5.547573,-1.13329 -0.524574,3.42993 -3.006944,-2.95841 -4.1630185,2.42982 0.9406677,-3.39925 -5.8535495,0.29278 4.4481308,-2.24954 -4.805133,-1.98126 5.8742643,-0.0473 -1.5083426,-3.32824 4.5517618,2.17714 2.494216,-3.1179 1.099443,3.38284 5.329706,-1.44867 -2.867321,3.00566 5.671365,0.89842 -5.492433,1.2221 z" />
    <path
       id="path2209"
       style="fill:#3771c8;stroke:#000000;stroke-width:0.428543;stroke-linecap:round;stroke-linejoin:round;stroke-opacity:0.955017;paint-order:stroke markers fill"
       inkscape:transform-center-x="-0.2289161"
       inkscape:transform-center-y="-0.053122702"
       d="m 200.58235,275.23924 -5.5476,-1.1333 -0.52458,3.42993 -3.00696,-2.95841 -4.16304,2.42982 0.94067,-3.39924 -5.85358,0.29278 4.44816,-2.24955 -4.80516,-1.98126 5.87429,-0.0473 -1.50835,-3.32824 4.55179,2.17715 2.49423,-3.11791 1.09945,3.38284 5.32973,-1.44867 -2.86733,3.00566 5.6714,0.89842 -5.49247,1.2221 z m -1.02795,-12.18211 -5.54761,-1.1333 -0.52456,3.42993 -3.00697,-2.95841 -4.16304,2.42983 0.94067,-3.39925 -5.85359,0.29278 4.44816,-2.24955 -4.80516,-1.98126 5.87431,-0.0473 -1.50836,-3.32824 4.55179,2.17715 2.49423,-3.11791 1.09944,3.38284 5.32974,-1.44867 -2.86733,3.00566 5.6714,0.89842 -5.49247,1.2221 z m -8.07398,-11.24135 -5.5476,-1.1333 -0.52458,3.42993 -3.00696,-2.95841 -4.16305,2.42983 0.94068,-3.39925 -5.85358,0.29278 4.44815,-2.24955 -4.80515,-1.98125 5.87429,-0.0472 -1.50835,-3.32825 4.55179,2.17715 2.49423,-3.1179 1.09945,3.38283 5.32973,-1.44867 -2.86733,3.00567 5.67139,0.89842 -5.49245,1.2221 z m -8.07397,-11.24135 -5.54761,-1.13329 -0.52457,3.42992 -3.00696,-2.95841 -4.16304,2.42982 0.94067,-3.39924 -5.85358,0.29278 4.44815,-2.24955 -4.80516,-1.98125 5.8743,-0.0473 -1.50835,-3.32825 4.55179,2.17715 2.49423,-3.11791 1.09944,3.38284 5.32974,-1.44867 -2.86734,3.00566 5.67141,0.89843 -5.49247,1.2221 z m -20.57326,2.7088 -5.5476,-1.13329 -0.52457,3.42993 -3.00697,-2.95841 -4.16304,2.42982 0.94067,-3.39925 -5.85358,0.29278 4.44816,-2.24954 -4.80516,-1.98126 5.87429,-0.0473 -1.50835,-3.32825 4.55179,2.17715 2.49423,-3.1179 1.09945,3.38284 5.32974,-1.44867 -2.86734,3.00566 5.6714,0.89842 -5.49247,1.2221 z m -12.57123,9.71936 -5.54761,-1.1333 -0.52457,3.42993 -3.00696,-2.95841 -4.16305,2.42983 0.94068,-3.39925 -5.85358,0.29278 4.44816,-2.24955 -4.80517,-1.98125 5.8743,-0.0473 -1.50835,-3.32824 4.55179,2.17714 2.49423,-3.1179 1.09945,3.38283 5.32973,-1.44866 -2.86733,3.00566 5.6714,0.89842 -5.49247,1.2221 z m -12.57123,9.71935 -5.54761,-1.13329 -0.52457,3.42992 -3.00696,-2.95841 -4.16305,2.42983 0.94067,-3.39925 -5.85357,0.29278 4.44815,-2.24955 -4.80516,-1.98125 5.8743,-0.0473 -1.50835,-3.32825 4.55179,2.17715 2.49423,-3.11791 1.09945,3.38284 5.32973,-1.44866 -2.86734,3.00566 5.6714,0.89841 -5.49247,1.22211 z m -12.57124,9.71935 -5.5476,-1.13329 -0.52458,3.42993 -3.00696,-2.95841 -4.16304,2.42982 0.94067,-3.39925 -5.85358,0.29278 4.44815,-2.24954 -4.80516,-1.98126 5.8743,-0.0473 -1.50835,-3.32824 4.55179,2.17714 2.49423,-3.1179 1.09945,3.38284 5.32973,-1.44867 -2.86733,3.00566 5.67139,0.89842 -5.49246,1.2221 z" />
  </g>
</svg>
