<?xml version="1.0" encoding="UTF-8" standalone="no"?>
<!-- Created with Inkscape (http://www.inkscape.org/) -->

<svg
   width="210mm"
   height="297mm"
   viewBox="0 0 210 297"
   version="1.1"
   id="svg5"
   inkscape:version="1.1.1 (3bf5ae0d25, 2021-09-20)"
   sodipodi:docname="Tape plugin icon.svg"
   xmlns:inkscape="http://www.inkscape.org/namespaces/inkscape"
   xmlns:sodipodi="http://sodipodi.sourceforge.net/DTD/sodipodi-0.dtd"
   xmlns="http://www.w3.org/2000/svg"
   xmlns:svg="http://www.w3.org/2000/svg">
  <sodipodi:namedview
     id="namedview7"
     pagecolor="#ffffff"
     bordercolor="#666666"
     borderopacity="1.0"
     inkscape:pageshadow="2"
     inkscape:pageopacity="0.0"
     inkscape:pagecheckerboard="0"
     inkscape:document-units="mm"
     showgrid="false"
     inkscape:zoom="0.94316065"
     inkscape:cx="390.17743"
     inkscape:cy="137.30429"
     inkscape:window-width="1680"
     inkscape:window-height="956"
     inkscape:window-x="-11"
     inkscape:window-y="-11"
     inkscape:window-maximized="1"
     inkscape:current-layer="layer1" />
  <defs
     id="defs2">
    <inkscape:path-effect
       effect="spiro"
       id="path-effect4647"
       is_visible="true"
       lpeversion="1" />
    <inkscape:path-effect
       effect="spiro"
       id="path-effect4641"
       is_visible="true"
       lpeversion="1" />
    <inkscape:path-effect
       effect="spiro"
       id="path-effect4635"
       is_visible="true"
       lpeversion="1" />
    <inkscape:path-effect
       effect="spiro"
       id="path-effect4486"
       is_visible="true"
       lpeversion="1" />
    <inkscape:path-effect
       effect="spiro"
       id="path-effect3435"
       is_visible="true"
       lpeversion="1" />
    <inkscape:path-effect
       effect="spiro"
       id="path-effect3429"
       is_visible="true"
       lpeversion="1" />
    <inkscape:path-effect
       effect="spiro"
       id="path-effect3423"
       is_visible="true"
       lpeversion="1" />
    <inkscape:path-effect
       effect="spiro"
       id="path-effect2186"
       is_visible="true"
       lpeversion="1" />
    <inkscape:path-effect
       effect="spiro"
       id="path-effect1900"
       is_visible="true"
       lpeversion="1" />
    <inkscape:path-effect
       effect="spiro"
       id="path-effect1729"
       is_visible="true"
       lpeversion="1" />
    <inkscape:path-effect
       effect="spiro"
       id="path-effect1723"
       is_visible="true"
       lpeversion="1" />
    <inkscape:path-effect
       effect="spiro"
       id="path-effect1583"
       is_visible="true"
       lpeversion="1" />
    <inkscape:path-effect
       effect="spiro"
       id="path-effect1579"
       is_visible="true"
       lpeversion="1" />
    <inkscape:path-effect
       effect="spiro"
       id="path-effect1462"
       is_visible="true"
       lpeversion="1" />
    <inkscape:path-effect
       effect="spiro"
       id="path-effect1456"
       is_visible="true"
       lpeversion="1" />
    <inkscape:path-effect
       effect="skeletal"
       id="path-effect1255"
       is_visible="true"
       lpeversion="1"
       pattern="M 0,0 H 1"
       copytype="repeated"
       prop_scale="1.27"
       scale_y_rel="false"
       spacing="1.7"
       normal_offset="0"
       tang_offset="0"
       prop_units="false"
       vertical_pattern="false"
       hide_knot="false"
       fuse_tolerance="0" />
    <inkscape:path-effect
       effect="skeletal"
       id="path-effect948"
       is_visible="true"
       lpeversion="1"
       pattern="m 17.460464,16.300831 h 3.751388 c 0.331035,0 0.597536,0.266501 0.597536,0.597536 v 5.662519 c 0,0.331035 -0.266501,0.597536 -0.597536,0.597536 h -3.751388 c -0.331035,0 -0.597536,-0.266501 -0.597536,-0.597536 v -5.662519 c 0,-0.331035 0.266501,-0.597536 0.597536,-0.597536 z"
       copytype="repeated_stretched"
       prop_scale="1.45"
       scale_y_rel="false"
       spacing="6.5"
       normal_offset="0"
       tang_offset="0"
       prop_units="false"
       vertical_pattern="false"
       hide_knot="false"
       fuse_tolerance="0" />
  </defs>
  <g
     inkscape:label="Layer 1"
     inkscape:groupmode="layer"
     id="layer1">
    <g
       id="g4190" />
    <path
       id="path4482"
       style="fill:none;stroke:#000000;stroke-width:1.205;stroke-linecap:butt;stroke-linejoin:miter;stroke-miterlimit:4;stroke-dasharray:none;stroke-opacity:1"
       inkscape:path-effect="#path-effect4486"
       inkscape:original-d="m 25.81442,81.714222 c 0.939483,-0.04345 1.87901,-0.08691 2.818565,-0.130476 m -2.818565,0.130476 c 4.617689,-34.315738 3.798102,-4.349342 3.178383,-7.698191 -0.619722,-3.348853 -2.958458,-4.523314 -1.859056,-10.046789 1.099405,-5.523484 2.198846,-11.047036 3.298322,-16.570678 1.099477,-5.52364 1.879007,-0.08691 2.818566,-0.130477 m 0,0 c -1.099477,5.523637 -2.198918,11.047198 -3.29832,16.570677 -1.099405,5.523475 1.239331,6.697941 1.85905,10.046789 0.619725,3.348854 -2.118957,5.132212 -3.17838,7.698193 m 1.159551,26.515334 C 26.363858,106.4376 22.935273,104.776 19.506777,103.11427 M 40.38082,28.342098 c 3.428494,1.66172 6.85708,3.323327 10.285759,4.984808 m 0,5e-6 c -4.840455,7.477337 -9.68081,14.954553 -14.521073,22.431652 -4.840261,7.477099 -1.210187,9.330663 -1.815138,13.995816 -0.604945,4.665153 -5.243809,13.037321 -7.865578,19.555803 -2.621766,6.51848 2.218405,12.526048 3.327746,18.788898 M 40.38082,28.342098 c -4.840456,7.477338 -9.680808,14.954554 -14.521071,22.431653 -4.840265,7.4771 -1.210185,9.330667 -1.815137,13.995816 -0.604951,4.665153 -5.243809,13.037322 -7.865579,19.555804 -2.62177,6.518479 2.2184,12.526058 3.327744,18.788899 m 36.68289,-76.549058 c -0.0436,-0.939483 -0.08721,-1.87901 -0.130934,-2.818565 m 0.130934,2.818565 C 21.753638,21.947523 51.825078,22.76711 48.46449,23.386829 45.103898,24.006551 43.92532,26.345287 38.382483,25.245885 32.839637,24.14648 27.296723,23.047039 21.753719,21.947563 16.210716,20.848086 21.666509,20.068556 21.622784,19.128997 m 0,0 c 5.543,1.099477 11.085923,2.198918 16.628764,3.29832 5.542837,1.099405 6.72142,-1.239331 10.082007,-1.85905 3.360593,-0.619725 5.150202,2.118957 7.725178,3.17838 m 26.608285,-1.159551 c -1.667305,3.428678 -3.334734,6.857263 -5.002283,10.285759 M 2.6304522,11.998812 C 4.2979972,8.5703183 5.9654292,5.1417323 7.6327342,1.7130533 m 5e-6,0 c 7.5035478,4.840455 15.0069748,9.6808097 22.5102838,14.5210727 7.503309,4.840261 9.36337,1.210187 14.044877,1.815138 4.681506,0.604945 13.083022,5.243809 19.624353,7.865578 6.54133,2.621766 12.569968,-2.218405 18.854765,-3.327746 M 2.6304522,11.998812 c 7.5035488,4.840456 15.0069758,9.680808 22.5102848,14.521071 7.50331,4.840265 9.363375,1.210185 14.044877,1.815137 4.681506,0.604951 13.083023,5.243809 19.624355,7.865579 6.541329,2.62177 12.569967,-2.2184 18.854766,-3.327744"
       d="m 25.81442,81.714222 2.818565,-0.130476 m -2.818565,0.130476 c 1.833488,-2.146213 2.963692,-4.883619 3.178383,-7.698191 0.260816,-3.419253 -0.788511,-6.788991 -1.859056,-10.046789 -0.987028,-3.003645 -2.016324,-6.096231 -1.786912,-9.249559 0.114706,-1.576664 0.556738,-3.147074 1.416054,-4.473951 0.859317,-1.326877 2.154058,-2.396133 3.66918,-2.847168 0.910373,-0.271008 1.88705,-0.31622 2.818566,-0.130477 m 0,0 c -3.121206,4.848717 -4.32496,10.89635 -3.29832,16.570677 0.608203,3.361589 1.967627,6.632349 1.85905,10.046789 -0.09017,2.835545 -1.241845,5.624964 -3.17838,7.698193 m 1.159551,26.515334 -10.285759,-4.98481 M 40.38082,28.342098 50.666579,33.326906 m 0,5e-6 C 43.086605,38.45406 37.720194,46.743907 36.145506,55.758563 35.335281,60.396882 35.484797,65.189539 34.330368,69.754379 32.604177,76.58008 28.07669,82.456591 26.46479,89.310182 24.96776,95.675361 26.200442,102.63525 29.792536,108.09908 M 40.38082,28.342098 c -7.579974,5.12715 -12.946384,13.416997 -14.521071,22.431653 -0.810225,4.638319 -0.660708,9.430976 -1.815137,13.995816 -1.726191,6.825701 -6.253678,12.702213 -7.865579,19.555804 -1.497031,6.365179 -0.264349,13.325066 3.327744,18.788899 m 36.68289,-76.549058 -0.130934,-2.818565 m 0.130934,2.818565 c -2.157083,-1.833146 -4.902603,-2.96274 -7.725177,-3.178383 -3.430784,-0.26211 -6.812991,0.785506 -10.082007,1.859056 -3.01413,0.989845 -6.116075,2.025985 -9.280456,1.79913 -1.582191,-0.113427 -3.158518,-0.555361 -4.490556,-1.416678 -1.332039,-0.861317 -2.405599,-2.16033 -2.857752,-3.680774 -0.270744,-0.910423 -0.316108,-1.886964 -0.130935,-2.818566 m 0,0 c 4.870293,3.12191 10.935604,4.324966 16.628764,3.29832 3.373278,-0.608302 6.656053,-1.968032 10.082007,-1.85905 2.843611,0.09046 5.641246,1.241492 7.725178,3.17838 M 82.667018,22.587096 77.664735,32.872855 M 2.6304522,11.998812 7.6327342,1.7130533 m 5e-6,0 C 12.792651,9.2963979 21.106811,14.659747 30.143023,16.234126 c 4.65464,0.810978 9.46337,0.660518 14.044877,1.815138 6.847636,1.725724 12.749089,6.253441 19.624353,7.865578 6.386711,1.49758 13.366583,0.265677 18.854765,-3.327746 M 2.6304522,11.998812 c 5.1599121,7.583344 13.4740718,12.946693 22.5102848,14.521071 4.65464,0.810977 9.46337,0.660517 14.044877,1.815137 6.847637,1.725724 12.74909,6.253441 19.624355,7.865579 6.386711,1.49758 13.366583,0.265678 18.854766,-3.327744" />
    <g
       id="g4964">
      <path
         id="path4643"
         style="fill:none;stroke:#000000;stroke-width:0.604941;stroke-linecap:butt;stroke-linejoin:miter;stroke-miterlimit:4;stroke-dasharray:none;stroke-opacity:1"
         inkscape:path-effect="#path-effect4647"
         inkscape:original-d="m 151.21061,267.70454 c 0.93948,-0.0435 1.87901,-0.0869 2.81856,-0.13048 m -2.81856,0.13048 c 4.61769,-34.31574 3.7981,-4.34935 3.17838,-7.69819 -0.61972,-3.34886 -2.95846,-4.52332 -1.85905,-10.04679 1.0994,-5.52349 2.19884,-11.04704 3.29832,-16.57068 1.09947,-5.52364 1.879,-0.0869 2.81856,-0.13048 m 0,0 c -1.09947,5.52364 -2.19891,11.0472 -3.29832,16.57068 -1.0994,5.52347 1.23933,6.69794 1.85905,10.04679 0.61973,3.34885 -2.11895,5.13221 -3.17838,7.69819 m 1.15955,26.51533 c -3.42867,-1.66148 -6.85726,-3.32308 -10.28575,-4.98481 m 20.87404,-74.77217 c 3.42849,1.66172 6.85708,3.32333 10.28576,4.98481 m 0,1e-5 c -4.84046,7.47733 -9.68081,14.95455 -14.52108,22.43165 -4.84026,7.4771 -1.21018,9.33066 -1.81513,13.99581 -0.60495,4.66516 -5.24381,13.03732 -7.86558,19.55581 -2.62177,6.51848 2.2184,12.52604 3.32774,18.78889 m 10.58829,-79.75698 c -4.84046,7.47734 -9.68081,14.95456 -14.52107,22.43166 -4.84027,7.4771 -1.21019,9.33066 -1.81514,13.99581 -0.60495,4.66515 -5.24381,13.03732 -7.86558,19.55581 -2.62177,6.51847 2.2184,12.52605 3.32775,18.78889 m 36.68289,-76.54905 c -0.0436,-0.93949 -0.0872,-1.87901 -0.13094,-2.81857 m 0.13094,2.81857 c -34.43603,-4.61769 -4.36459,-3.79811 -7.72518,-3.17839 -3.36059,0.61973 -4.53917,2.95846 -10.08201,1.85906 -5.54284,-1.09941 -11.08576,-2.19885 -16.62876,-3.29832 -5.54301,-1.09948 -0.0872,-1.87901 -0.13094,-2.81857 m 0,0 c 5.543,1.09948 11.08593,2.19892 16.62877,3.29832 5.54283,1.09941 6.72142,-1.23933 10.082,-1.85905 3.3606,-0.61972 5.15021,2.11896 7.72518,3.17838 m 26.60829,-1.15955 c -1.66731,3.42868 -3.33474,6.85726 -5.00229,10.28576 m -75.03428,-20.87404 c 1.66755,-3.4285 3.33498,-6.85708 5.00228,-10.28576 m 1e-5,0 c 7.50355,4.84045 15.00697,9.68081 22.51028,14.52107 7.50331,4.84026 9.36337,1.21019 14.04488,1.81514 4.6815,0.60494 13.08302,5.24381 19.62435,7.86558 6.54133,2.62176 12.56997,-2.21841 18.85477,-3.32775 m -80.03657,-10.58828 c 7.50355,4.84045 15.00698,9.6808 22.51029,14.52107 7.50331,4.84026 9.36337,1.21018 14.04487,1.81513 4.68151,0.60496 13.08303,5.24381 19.62436,7.86558 6.54133,2.62177 12.56996,-2.2184 18.85476,-3.32774"
         d="m 151.21061,267.70454 2.81856,-0.13048 m -2.81856,0.13048 c 1.83349,-2.14621 2.96369,-4.88362 3.17838,-7.69819 0.26082,-3.41925 -0.78851,-6.78899 -1.85905,-10.04679 -0.98703,-3.00365 -2.01632,-6.09623 -1.78691,-9.24956 0.1147,-1.57666 0.55674,-3.14707 1.41605,-4.47395 0.85932,-1.32688 2.15406,-2.39613 3.66918,-2.84717 0.91037,-0.27101 1.88705,-0.31622 2.81856,-0.13048 m 0,0 c -3.12121,4.84872 -4.32496,10.89635 -3.29832,16.57068 0.6082,3.36159 1.96763,6.63235 1.85905,10.04679 -0.0902,2.83554 -1.24185,5.62496 -3.17838,7.69819 m 1.15955,26.51533 -10.28575,-4.98481 m 20.87404,-74.77217 10.28576,4.98481 m 0,1e-5 c -7.57998,5.12714 -12.9464,13.41699 -14.52108,22.43165 -0.81022,4.63832 -0.6607,9.43097 -1.81513,13.99581 -1.72619,6.8257 -6.25368,12.70222 -7.86558,19.55581 -1.49703,6.36518 -0.26435,13.32506 3.32774,18.78889 m 10.58829,-79.75698 c -7.57997,5.12715 -12.94638,13.417 -14.52107,22.43166 -0.81023,4.63832 -0.66071,9.43097 -1.81514,13.99581 -1.72619,6.8257 -6.25368,12.70222 -7.86558,19.55581 -1.49703,6.36518 -0.26434,13.32506 3.32775,18.78889 m 36.68289,-76.54905 -0.13094,-2.81857 m 0.13094,2.81857 c -2.15708,-1.83315 -4.9026,-2.96275 -7.72518,-3.17839 -3.43078,-0.26211 -6.81299,0.78551 -10.08201,1.85906 -3.01413,0.98984 -6.11607,2.02598 -9.28045,1.79913 -1.58219,-0.11343 -3.15852,-0.55536 -4.49056,-1.41668 -1.33203,-0.86132 -2.40559,-2.16033 -2.85775,-3.68077 -0.27075,-0.91042 -0.31611,-1.88697 -0.13094,-2.81857 m 0,0 c 4.87029,3.12191 10.93561,4.32497 16.62877,3.29832 3.37328,-0.6083 6.65605,-1.96803 10.082,-1.85905 2.84361,0.0905 5.64125,1.24149 7.72518,3.17838 m 26.60829,-1.15955 -5.00229,10.28576 m -75.03428,-20.87404 5.00228,-10.28576 m 1e-5,0 c 5.15991,7.58334 13.47407,12.94669 22.51028,14.52107 4.65464,0.81098 9.46337,0.66052 14.04488,1.81514 6.84764,1.72572 12.74909,6.25344 19.62435,7.86558 6.38671,1.49758 13.36659,0.26568 18.85477,-3.32775 m -80.03657,-10.58828 c 5.15991,7.58335 13.47408,12.9467 22.51029,14.52107 4.65464,0.81097 9.46336,0.66051 14.04487,1.81513 6.84764,1.72572 12.74909,6.25344 19.62436,7.86558 6.38671,1.49758 13.36658,0.26568 18.85476,-3.32774" />
      <path
         style="fill:#000000;stroke:#000000;stroke-width:2.42842;stroke-linecap:round;stroke-linejoin:round;stroke-miterlimit:4;stroke-dasharray:none;stroke-opacity:0.955017;paint-order:stroke markers fill"
         d="m 564.36406,1098.8158 -16.1309,-7.771 -4.22052,-8.7634 c -8.66972,-18.0015 -11.5125,-37.3341 -8.12477,-55.2533 2.28822,-12.1033 4.11562,-16.9666 15.99687,-42.57227 10.74018,-23.14651 14.85996,-34.84405 16.70244,-47.42416 l 1.20015,-8.19436 5.11061,16.61432 c 2.81084,9.13787 5.63328,19.98212 6.27208,24.09833 2.02949,13.07728 -0.67189,26.05932 -7.54027,36.23634 -4.41934,6.5482 -3.69658,8.2455 3.22788,7.5801 3.66912,-0.3525 5.18245,-0.1454 4.83796,0.6621 -9.02512,21.155 -10.32665,26.263 -10.97587,43.0761 -0.64782,16.7768 0.8484,25.9467 6.551,40.1492 2.00272,4.9879 3.54747,9.1282 3.43277,9.2009 -0.11469,0.073 -7.46744,-3.3649 -16.33943,-7.6389 z"
         id="path4723"
         transform="scale(0.26458333)" />
      <path
         style="fill:#000000;stroke:#000000;stroke-width:2.42842;stroke-linecap:round;stroke-linejoin:round;stroke-miterlimit:4;stroke-dasharray:none;stroke-opacity:0.955017;paint-order:stroke markers fill"
         d="m 595.55571,976.33311 c -0.35053,-3.69654 -2.19311,-12.92353 -4.09462,-20.50443 -2.98398,-11.89644 -3.45714,-15.59786 -3.45617,-27.03675 10e-4,-15.50924 2.33319,-25.57998 8.99238,-38.83549 2.25121,-4.48118 3.84434,-8.55015 3.54026,-9.04215 -0.92374,-1.49465 -10.84518,-1.00018 -15.0404,0.7496 -2.16806,0.90427 -5.54402,3.17059 -7.50212,5.03625 l -3.56017,3.39213 0.76042,-3.71093 c 1.19114,-5.81286 7.68044,-22.09992 11.82844,-29.68741 7.9881,-14.61176 20.96017,-30.1718 32.71229,-39.23849 7.06183,-5.44816 6.41289,-5.55269 26.94195,4.3397 l 15.29031,7.36799 -3.62739,2.66305 c -6.62567,4.86422 -19.28965,17.86716 -25.38096,26.06027 -3.3057,4.44634 -8.41975,12.79592 -11.36455,18.55464 -9.63835,18.84827 -12.53811,31.02787 -16.25032,68.25481 -1.205,12.08402 -4.69138,27.99815 -7.62774,34.81801 l -1.52427,3.54019 z"
         id="path4762"
         transform="scale(0.26458333)" />
      <path
         style="fill:#000000;stroke:#000000;stroke-width:2.42842;stroke-linecap:round;stroke-linejoin:round;stroke-miterlimit:4;stroke-dasharray:none;stroke-opacity:0.955017;paint-order:stroke markers fill"
         d="m 704.67064,839.58496 c -10.31048,-1.3236 -22.78715,-5.7574 -43.59556,-15.49243 -9.91348,-4.63794 -21.36434,-9.88626 -25.44635,-11.66295 -6.84295,-2.97836 -22.95655,-6.65205 -29.10427,-6.6354 -4.72258,0.0128 -0.79431,-1.68039 14.26056,-6.14666 19.60977,-5.81757 23.00614,-6.51292 31.96132,-6.54356 9.22001,-0.0315 18.87768,2.77124 26.81443,7.78191 7.35348,4.64243 8.94912,4.12969 8.29616,-2.66583 -0.27175,-2.8281 -0.36161,-5.142 -0.1997,-5.142 0.16191,0 4.0281,1.5066 8.59154,3.34799 26.16031,10.55593 51.76809,11.02006 75.55048,1.36929 4.91632,-1.99501 9.06654,-3.49951 9.22272,-3.34333 0.15618,0.15618 -3.19556,7.45128 -7.44831,16.21133 l -7.73227,15.92736 -7.85204,3.83436 c -9.78225,4.77693 -19.50254,7.76114 -30.06514,9.23026 -9.19755,1.27926 -12.82595,1.26829 -23.25357,-0.0703 z"
         id="path4801"
         transform="scale(0.26458333)" />
      <path
         style="fill:#000000;stroke:#000000;stroke-width:2.42842;stroke-linecap:round;stroke-linejoin:round;stroke-miterlimit:4;stroke-dasharray:none;stroke-opacity:0.955017;paint-order:stroke markers fill"
         d="m 551.65191,796.81353 c -5.95019,-2.00746 -13.34554,-4.92071 -16.4341,-6.47389 -15.8719,-7.9817 -32.0281,-20.9666 -43.85347,-35.24549 l -5.55379,-6.70608 8.62508,-17.70019 8.62508,-17.70018 6.24826,7.76704 c 16.85791,20.95559 45.93023,38.54336 72.91104,44.1087 4.29953,0.88687 17.35971,2.60962 29.02263,3.82834 21.20173,2.21547 33.31483,4.61118 42.02211,8.31107 l 4.62954,1.96717 -7.42186,0.56506 c -4.08202,0.31078 -13.86296,2.12346 -21.73543,4.02818 -25.59062,6.19158 -43.98721,4.50886 -64.93669,-5.93971 -8.32438,-4.15179 -10.3421,-3.87935 -10.3421,1.39641 0,6.11993 2.23677,11.77107 6.63832,16.77149 2.2795,2.58964 3.74615,4.70025 3.25923,4.69023 -0.48692,-0.0101 -5.75365,-1.66069 -11.70385,-3.66815 z"
         id="path4840"
         transform="scale(0.26458333)" />
    </g>
    <g
       id="g5342">
      <path
         id="path4637"
         style="fill:none;stroke:#000000;stroke-width:0.604941;stroke-linecap:butt;stroke-linejoin:miter;stroke-miterlimit:4;stroke-dasharray:none;stroke-opacity:1"
         inkscape:path-effect="#path-effect4641"
         inkscape:original-d="m 25.533892,268.54613 c 0.939483,-0.0435 1.87901,-0.0869 2.818565,-0.13048 m -2.818565,0.13048 c 4.617689,-34.31574 3.798102,-4.34935 3.178383,-7.69819 -0.619722,-3.34886 -2.958458,-4.52332 -1.859056,-10.04679 1.099405,-5.52349 2.198846,-11.04704 3.298322,-16.57068 1.099477,-5.52364 1.879007,-0.0869 2.818566,-0.13048 m 0,0 c -1.099477,5.52364 -2.198918,11.0472 -3.29832,16.57068 -1.099405,5.52347 1.239331,6.69794 1.85905,10.04679 0.619725,3.34885 -2.118957,5.13221 -3.17838,7.69819 m 1.159551,26.51533 C 26.08333,293.2695 22.654745,291.6079 19.226249,289.94617 M 40.100292,215.174 c 3.428494,1.66172 6.85708,3.32333 10.285759,4.98481 m 0,1e-5 c -4.840455,7.47733 -9.68081,14.95455 -14.521073,22.43165 -4.840261,7.4771 -1.210187,9.33066 -1.815138,13.99581 -0.604945,4.66516 -5.243809,13.03732 -7.865578,19.55581 -2.621766,6.51848 2.218405,12.52604 3.327746,18.78889 M 40.100292,215.174 c -4.840456,7.47734 -9.680808,14.95456 -14.521071,22.43166 -4.840265,7.4771 -1.210185,9.33066 -1.815137,13.99581 -0.604951,4.66515 -5.243809,13.03732 -7.865579,19.55581 -2.62177,6.51847 2.2184,12.52605 3.327744,18.78889 m 36.68289,-76.54905 c -0.0436,-0.93949 -0.08721,-1.87901 -0.130934,-2.81857 m 0.130934,2.81857 c -34.436029,-4.61769 -4.364589,-3.79811 -7.725177,-3.17839 -3.360592,0.61973 -4.53917,2.95846 -10.082007,1.85906 -5.542846,-1.09941 -11.08576,-2.19885 -16.628764,-3.29832 -5.543003,-1.09948 -0.08721,-1.87901 -0.130935,-2.81857 m 0,0 c 5.543,1.09948 11.085923,2.19892 16.628764,3.29832 5.542837,1.09941 6.72142,-1.23933 10.082007,-1.85905 3.360593,-0.61972 5.150202,2.11896 7.725178,3.17838 M 82.38649,209.419 c -1.667305,3.42868 -3.334734,6.85726 -5.002283,10.28576 M 2.3499238,198.83072 c 1.667545,-3.4285 3.334977,-6.85708 5.002282,-10.28576 m 5e-6,0 c 7.5035482,4.84045 15.0069752,9.68081 22.5102842,14.52107 7.503309,4.84026 9.36337,1.21019 14.044877,1.81514 4.681506,0.60494 13.083022,5.24381 19.624353,7.86558 6.54133,2.62176 12.569968,-2.21841 18.854765,-3.32775 M 2.3499238,198.83072 c 7.5035488,4.84045 15.0069762,9.6808 22.5102852,14.52107 7.50331,4.84026 9.363375,1.21018 14.044877,1.81513 4.681506,0.60496 13.083023,5.24381 19.624355,7.86558 6.541329,2.62177 12.569967,-2.2184 18.854766,-3.32774"
         d="m 25.533892,268.54613 2.818565,-0.13048 m -2.818565,0.13048 c 1.833488,-2.14621 2.963692,-4.88362 3.178383,-7.69819 0.260816,-3.41925 -0.788512,-6.78899 -1.859056,-10.04679 -0.987027,-3.00365 -2.016322,-6.09623 -1.78691,-9.24956 0.114706,-1.57666 0.556738,-3.14707 1.416054,-4.47395 0.859316,-1.32688 2.154057,-2.39613 3.669178,-2.84717 0.910372,-0.27101 1.887049,-0.31622 2.818566,-0.13048 m 0,0 c -3.121206,4.84872 -4.324961,10.89635 -3.29832,16.57068 0.608203,3.36159 1.967627,6.63235 1.85905,10.04679 -0.09017,2.83554 -1.241846,5.62496 -3.17838,7.69819 m 1.159551,26.51533 -10.285759,-4.98481 m 20.874043,-74.77217 10.285759,4.98481 m 0,1e-5 c -7.579974,5.12715 -12.946385,13.41699 -14.521073,22.43165 -0.810225,4.63832 -0.66071,9.43097 -1.815138,13.99581 -1.726191,6.8257 -6.253679,12.70222 -7.865578,19.55581 -1.497028,6.36518 -0.264346,13.32506 3.327746,18.78889 M 40.100292,215.174 c -7.579974,5.12715 -12.946384,13.417 -14.521071,22.43166 -0.810225,4.63832 -0.660709,9.43097 -1.815137,13.99581 -1.726191,6.8257 -6.253679,12.70222 -7.865579,19.55581 -1.497029,6.36518 -0.264347,13.32506 3.327744,18.78889 m 36.68289,-76.54905 -0.130934,-2.81857 m 0.130934,2.81857 c -2.157081,-1.83315 -4.902601,-2.96275 -7.725177,-3.17839 -3.430784,-0.26211 -6.812991,0.78551 -10.082007,1.85906 -3.01413,0.98985 -6.116074,2.02599 -9.280456,1.79913 -1.582191,-0.11343 -3.158517,-0.55536 -4.490556,-1.41668 -1.332039,-0.86131 -2.405598,-2.16033 -2.857752,-3.68077 -0.270744,-0.91042 -0.316109,-1.88697 -0.130935,-2.81857 m 0,0 c 4.870293,3.12191 10.935604,4.32497 16.628764,3.29832 3.373278,-0.6083 6.656053,-1.96803 10.082007,-1.85905 2.843611,0.0905 5.641246,1.24149 7.725178,3.17838 M 82.38649,209.419 77.384207,219.70476 M 2.3499238,198.83072 7.3522058,188.54496 m 5e-6,0 c 5.1599132,7.58334 13.4740722,12.94669 22.5102842,14.52107 4.65464,0.81098 9.46337,0.66052 14.044877,1.81514 6.847636,1.72572 12.749088,6.25344 19.624353,7.86558 6.386712,1.49758 13.366584,0.26567 18.854765,-3.32775 M 2.3499238,198.83072 c 5.1599093,7.58335 13.4740712,12.9467 22.5102852,14.52107 4.65464,0.81097 9.46337,0.66051 14.044877,1.81513 6.847638,1.72572 12.74909,6.25344 19.624355,7.86558 6.386711,1.49758 13.366583,0.26568 18.854766,-3.32774" />
      <path
         style="fill:#ffffff;stroke:#000000;stroke-width:2.42842;stroke-linecap:round;stroke-linejoin:round;stroke-miterlimit:4;stroke-dasharray:none;stroke-opacity:0.955017;paint-order:stroke markers fill"
         d="m 229.67203,842.76575 c -10.31048,-1.32359 -22.78715,-5.75739 -43.59556,-15.49243 -9.91348,-4.63794 -21.36434,-9.88626 -25.44636,-11.66294 -6.84294,-2.97837 -22.95654,-6.65206 -29.10427,-6.6354 -4.72257,0.0128 -0.7943,-1.68039 14.26056,-6.14667 19.60978,-5.81756 23.00614,-6.51291 31.96133,-6.54355 9.22,-0.0316 18.87768,2.77124 26.81443,7.7819 7.35347,4.64243 8.94912,4.1297 8.29615,-2.66583 -0.27174,-2.82809 -0.36161,-5.14199 -0.1997,-5.14199 0.16191,0 4.02811,1.50659 8.59155,3.34798 26.16031,10.55594 51.76809,11.02006 75.55048,1.3693 4.91632,-1.99502 9.06653,-3.49952 9.22272,-3.34334 0.15618,0.15618 -3.19556,7.45128 -7.44832,16.21133 l -7.73226,15.92737 -7.85204,3.83435 c -9.78226,4.77693 -19.50254,7.76114 -30.06514,9.23027 -9.19756,1.27926 -12.82595,1.26828 -23.25357,-0.0703 z"
         id="path5021"
         transform="scale(0.26458333)" />
      <path
         style="fill:#ffffff;stroke:#000000;stroke-width:2.42842;stroke-linecap:round;stroke-linejoin:round;stroke-miterlimit:4;stroke-dasharray:none;stroke-opacity:0.955017;paint-order:stroke markers fill"
         d="m 76.653301,799.99432 c -5.950197,-2.00746 -13.345544,-4.92071 -16.434104,-6.47389 -15.8719,-7.98169 -32.028105,-20.9666 -43.85347,-35.24549 l -5.553786,-6.70608 8.625076,-17.70018 8.625078,-17.70018 6.248263,7.76704 c 16.857906,20.95559 45.930231,38.54336 72.911042,44.1087 4.29953,0.88686 17.35971,2.60961 29.02262,3.82833 21.20173,2.21547 33.31484,4.61119 42.02211,8.31107 l 4.62954,1.96718 -7.42185,0.56505 c -4.08202,0.31078 -13.86296,2.12346 -21.73543,4.02819 -25.59062,6.19157 -43.98722,4.50885 -64.936691,-5.93971 -8.324382,-4.15179 -10.342107,-3.87936 -10.342107,1.3964 0,6.11993 2.236777,11.77107 6.638322,16.77149 2.279499,2.58965 3.746154,4.70025 3.259236,4.69023 -0.486919,-0.0101 -5.753651,-1.66069 -11.703849,-3.66815 z"
         id="path5060"
         transform="scale(0.26458333)" />
      <path
         style="fill:#ffffff;stroke:#000000;stroke-width:2.42842;stroke-linecap:round;stroke-linejoin:round;stroke-miterlimit:4;stroke-dasharray:none;stroke-opacity:0.955017;paint-order:stroke markers fill"
         d="M 101.25528,805.17316 C 90.832884,801.86176 83.890509,794.66727 82.146391,785.37033 l -0.736055,-3.92351 8.121651,3.75243 c 13.403723,6.1929 22.469373,8.1407 38.229913,8.21387 12.41261,0.0576 15.37462,-0.32492 29.78232,-3.84647 9.67006,-2.36356 18.59594,-3.91046 22.56408,-3.91046 12.13095,0 28.76386,7.69327 28.76386,13.30425 0,1.42984 -0.17133,2.59972 -0.38072,2.59972 -0.20939,0 -3.19139,-1.42022 -6.62666,-3.15605 -13.73697,-6.94124 -30.6068,-7.10416 -51.83732,-0.50062 -22.89913,7.12255 -26.40494,7.97076 -34.98873,8.46531 -5.98834,0.34502 -10.04074,-0.006 -13.78345,-1.19564 z"
         id="path5099"
         transform="scale(0.26458333)" />
      <path
         style="fill:#ffffff;stroke:#000000;stroke-width:2.42842;stroke-linecap:round;stroke-linejoin:round;stroke-miterlimit:4;stroke-dasharray:none;stroke-opacity:0.955017;paint-order:stroke markers fill"
         d="m 120.5571,979.51391 c -0.35054,-3.69654 -2.19312,-12.92354 -4.09463,-20.50443 -2.98397,-11.89645 -3.45713,-15.59786 -3.45616,-27.03675 0.001,-15.50925 2.33319,-25.57999 8.99237,-38.83549 2.25122,-4.48119 3.84434,-8.55016 3.54027,-9.04215 -0.92374,-1.49465 -10.84519,-1.00018 -15.0404,0.74959 -2.16807,0.90427 -5.54402,3.17059 -7.50212,5.03626 l -3.560178,3.39212 0.760418,-3.71092 c 1.19114,-5.81287 7.68045,-22.09993 11.82845,-29.68742 7.9881,-14.61176 20.96017,-30.17179 32.71229,-39.23849 7.06183,-5.44816 6.41288,-5.55269 26.94195,4.33971 l 15.29031,7.36798 -3.6274,2.66305 c -6.62566,4.86423 -19.28964,17.86716 -25.38095,26.06028 -3.3057,4.44633 -8.41975,12.79592 -11.36456,18.55463 -9.63834,18.84828 -12.5381,31.02788 -16.25031,68.25482 -1.205,12.08402 -4.69138,27.99814 -7.62775,34.818 l -1.52426,3.54019 z"
         id="path5138"
         transform="scale(0.26458333)" />
      <path
         style="fill:#ffffff;stroke:#000000;stroke-width:2.42842;stroke-linecap:round;stroke-linejoin:round;stroke-miterlimit:4;stroke-dasharray:none;stroke-opacity:0.955017;paint-order:stroke markers fill"
         d="m 89.365446,1101.9966 -16.130899,-7.771 -4.220519,-8.7634 c -8.669722,-18.0015 -11.512504,-37.3341 -8.124776,-55.2533 2.288221,-12.1034 4.115625,-16.9666 15.996872,-42.57227 10.740178,-23.14652 14.859965,-34.84406 16.702445,-47.42416 l 1.200144,-8.19436 5.110616,16.61431 c 2.810841,9.13788 5.633271,19.98213 6.272081,24.09834 2.02949,13.07728 -0.67189,26.05932 -7.540278,36.23634 -4.419335,6.5482 -3.696575,8.2455 3.227888,7.5801 3.66912,-0.3525 5.18245,-0.1454 4.83796,0.6621 -9.025121,21.155 -10.326658,26.263 -10.975875,43.0761 -0.647817,16.7768 0.848403,25.9467 6.551005,40.1492 2.00272,4.9879 3.54747,9.1282 3.43277,9.2009 -0.11469,0.073 -7.467441,-3.3649 -16.339434,-7.6389 z"
         id="path5177"
         transform="scale(0.26458333)" />
      <path
         style="fill:#ffffff;stroke:#000000;stroke-width:2.42842;stroke-linecap:round;stroke-linejoin:round;stroke-miterlimit:4;stroke-dasharray:none;stroke-opacity:0.955017;paint-order:stroke markers fill"
         d="m 100.96775,1012.6385 c 0.16483,-0.3387 1.62078,-3.128 3.23545,-6.1984 7.50776,-14.27687 7.85158,-28.85897 1.20581,-51.14155 -9.525808,-31.93904 -10.661113,-39.97205 -7.174848,-50.76665 3.029198,-9.37936 12.666638,-18.15056 19.943118,-18.15056 1.4811,0 2.6929,0.17137 2.6929,0.38082 0,0.20944 -1.61375,3.90712 -3.58612,8.21705 -5.89926,12.8908 -7.49876,20.77923 -7.50099,36.99352 -0.002,12.80948 0.37962,15.81767 3.62941,28.62715 5.73327,22.59841 4.90439,34.69687 -3.21714,46.95812 -2.32191,3.5055 -3.99368,4.8841 -6.34032,5.2285 -1.75282,0.2572 -3.05209,0.1906 -2.88727,-0.148 z"
         id="path5216"
         transform="scale(0.26458333)" />
    </g>
    <g
       id="g5775">
      <path
         id="path4631"
         style="fill:none;stroke:#000000;stroke-width:0.604941;stroke-linecap:butt;stroke-linejoin:miter;stroke-miterlimit:4;stroke-dasharray:none;stroke-opacity:1"
         inkscape:path-effect="#path-effect4635"
         inkscape:original-d="m 151.77166,80.872637 c 0.93949,-0.04345 1.87901,-0.08691 2.81857,-0.130476 m -2.81857,0.130476 c 4.61769,-34.315738 3.79811,-4.349342 3.17839,-7.698191 -0.61972,-3.348853 -2.95846,-4.523314 -1.85906,-10.046789 1.09941,-5.523484 2.19885,-11.047036 3.29832,-16.570678 1.09948,-5.52364 1.87901,-0.08691 2.81857,-0.130477 m 0,0 c -1.09948,5.523637 -2.19892,11.047198 -3.29832,16.570677 -1.09941,5.523475 1.23933,6.697941 1.85905,10.046789 0.61972,3.348854 -2.11896,5.132212 -3.17838,7.698193 m 1.15955,26.515329 c -3.42868,-1.66148 -6.85726,-3.32308 -10.28576,-4.98481 m 20.87404,-74.772167 c 3.4285,1.66172 6.85708,3.323327 10.28576,4.984808 m 0,5e-6 c -4.84045,7.477337 -9.68081,14.954553 -14.52107,22.431652 -4.84026,7.477099 -1.21019,9.330663 -1.81514,13.995816 -0.60494,4.665153 -5.24381,13.037321 -7.86558,19.555803 -2.62176,6.51848 2.21841,12.526043 3.32775,18.788893 m 10.58828,-79.756977 c -4.84045,7.477338 -9.6808,14.954554 -14.52107,22.431653 -4.84026,7.4771 -1.21018,9.330667 -1.81513,13.995816 -0.60495,4.665153 -5.24381,13.037322 -7.86558,19.555804 -2.62177,6.518479 2.2184,12.526058 3.32774,18.788894 m 36.68289,-76.549053 c -0.0436,-0.939483 -0.0872,-1.87901 -0.13093,-2.818565 m 0.13093,2.818565 c -34.43603,-4.617689 -4.36459,-3.798102 -7.72518,-3.178383 -3.36059,0.619722 -4.53917,2.958458 -10.082,1.859056 -5.54285,-1.099405 -11.08576,-2.198846 -16.62877,-3.298322 -5.543,-1.099477 -0.0872,-1.879007 -0.13093,-2.818566 m 0,0 c 5.543,1.099477 11.08592,2.198918 16.62876,3.29832 5.54284,1.099405 6.72142,-1.239331 10.08201,-1.85905 3.36059,-0.619725 5.1502,2.118957 7.72518,3.17838 m 26.60828,-1.159551 c -1.6673,3.428678 -3.33473,6.857263 -5.00228,10.285759 M 128.5877,11.157227 c 1.66754,-3.4284939 3.33497,-6.8570799 5.00228,-10.28575886 m 0,0 c 7.50355,4.84045496 15.00698,9.68080986 22.51029,14.52107286 7.50331,4.840261 9.36337,1.210187 14.04487,1.815138 4.68151,0.604945 13.08303,5.243809 19.62436,7.865578 6.54133,2.621766 12.56997,-2.218405 18.85476,-3.327746 M 128.5877,11.157227 c 7.50355,4.840456 15.00697,9.680808 22.51028,14.521071 7.50331,4.840265 9.36338,1.210185 14.04488,1.815137 4.6815,0.604951 13.08302,5.243809 19.62435,7.865579 6.54133,2.62177 12.56997,-2.2184 18.85477,-3.327744"
         d="m 151.77166,80.872637 2.81857,-0.130476 m -2.81857,0.130476 c 1.83349,-2.146211 2.9637,-4.883618 3.17839,-7.698191 0.26082,-3.419253 -0.78851,-6.788991 -1.85906,-10.046789 -0.98703,-3.003645 -2.01632,-6.09623 -1.78691,-9.249558 0.1147,-1.576664 0.55673,-3.147075 1.41605,-4.473952 0.85932,-1.326877 2.15406,-2.396132 3.66918,-2.847168 0.91037,-0.271009 1.88705,-0.316221 2.81857,-0.130477 m 0,0 c -3.12121,4.848717 -4.32496,10.89635 -3.29832,16.570677 0.6082,3.361589 1.96763,6.632349 1.85905,10.046789 -0.0902,2.835545 -1.24185,5.624964 -3.17838,7.698193 m 1.15955,26.515329 -10.28576,-4.98481 m 20.87404,-74.772167 10.28576,4.984808 m 0,5e-6 c -7.57997,5.127151 -12.94638,13.416997 -14.52107,22.431652 -0.81023,4.638319 -0.66071,9.430976 -1.81514,13.995816 -1.72619,6.825701 -6.25368,12.702212 -7.86558,19.555803 -1.49703,6.365178 -0.26435,13.325063 3.32775,18.788893 m 10.58828,-79.756977 c -7.57998,5.127147 -12.94639,13.416996 -14.52107,22.431653 -0.81022,4.638319 -0.6607,9.430976 -1.81513,13.995816 -1.72619,6.825702 -6.25368,12.702213 -7.86558,19.555804 -1.49703,6.365177 -0.26435,13.325062 3.32774,18.788894 m 36.68289,-76.549053 -0.13093,-2.818565 m 0.13093,2.818565 c -2.15708,-1.833146 -4.9026,-2.96274 -7.72518,-3.178383 -3.43078,-0.262109 -6.81299,0.785505 -10.082,1.859056 -3.01413,0.989847 -6.11608,2.02599 -9.28046,1.799136 -1.58219,-0.113427 -3.15852,-0.555361 -4.49056,-1.416679 -1.33204,-0.861318 -2.4056,-2.160333 -2.85775,-3.680779 -0.27074,-0.910423 -0.31611,-1.886964 -0.13093,-2.818566 m 0,0 c 4.87029,3.121909 10.9356,4.324965 16.62876,3.29832 3.37328,-0.608302 6.65606,-1.968032 10.08201,-1.85905 2.84361,0.09046 5.64125,1.241492 7.72518,3.17838 m 26.60828,-1.159551 -5.00228,10.285759 M 128.5877,11.157227 133.58998,0.87146814 m 0,0 c 5.15991,7.58334466 13.47408,12.94669386 22.51029,14.52107286 4.65464,0.810977 9.46336,0.660519 14.04487,1.815138 6.84764,1.725724 12.74909,6.253442 19.62436,7.865578 6.38671,1.497578 13.36658,0.265675 18.85476,-3.327746 M 128.5877,11.157227 c 5.15991,7.583344 13.47407,12.946693 22.51028,14.521071 4.65464,0.810977 9.46337,0.660517 14.04488,1.815137 6.84764,1.725723 12.74909,6.253441 19.62435,7.865579 6.38671,1.497581 13.36659,0.265679 18.85477,-3.327744" />
      <path
         style="fill:#a05a2c;stroke:#000000;stroke-width:2.42842;stroke-linecap:round;stroke-linejoin:round;stroke-miterlimit:4;stroke-dasharray:none;stroke-opacity:0.955017;paint-order:stroke markers fill"
         d="m 566.48459,392.67944 -16.1309,-7.77094 -4.22052,-8.76339 c -8.66972,-18.00158 -11.5125,-37.33419 -8.12477,-55.25332 2.28822,-12.10337 4.11562,-16.96662 15.99687,-42.57229 10.74018,-23.14652 14.85996,-34.84405 16.70244,-47.42416 l 1.20015,-8.19436 5.11061,16.61432 c 2.81084,9.13787 5.63328,19.98212 6.27208,24.09833 2.02949,13.07728 -0.67189,26.05932 -7.54027,36.23634 -4.41934,6.54821 -3.69658,8.2455 3.22788,7.58014 3.66912,-0.35255 5.18245,-0.14547 4.83796,0.66202 -9.02512,21.155 -10.32665,26.26303 -10.97587,43.07614 -0.64782,16.77682 0.8484,25.94672 6.551,40.14923 2.00272,4.98783 3.54747,9.12822 3.43277,9.20084 -0.11469,0.0726 -7.46744,-3.36488 -16.33943,-7.6389 z"
         id="path5417"
         transform="scale(0.26458333)" />
      <path
         style="fill:#a05a2c;stroke:#000000;stroke-width:2.42842;stroke-linecap:round;stroke-linejoin:round;stroke-miterlimit:4;stroke-dasharray:none;stroke-opacity:0.955017;paint-order:stroke markers fill"
         d="m 597.67624,270.19678 c -0.35053,-3.69654 -2.19311,-12.92354 -4.09462,-20.50443 -2.98398,-11.89644 -3.45714,-15.59786 -3.45617,-27.03675 10e-4,-15.50924 2.33319,-25.57999 8.99238,-38.83549 2.25121,-4.48118 3.84434,-8.55015 3.54026,-9.04215 -0.92374,-1.49465 -10.84519,-1.00018 -15.0404,0.74959 -2.16807,0.90428 -5.54402,3.17059 -7.50212,5.03626 l -3.56017,3.39213 0.76042,-3.71093 c 1.19114,-5.81286 7.68044,-22.09993 11.82844,-29.68741 7.9881,-14.61176 20.96017,-30.1718 32.71229,-39.23849 7.06183,-5.44817 6.41289,-5.5527 26.94195,4.3397 l 15.29031,7.36798 -3.62739,2.66305 c -6.62567,4.86423 -19.28965,17.86717 -25.38096,26.06028 -3.3057,4.44633 -8.41975,12.79592 -11.36455,18.55463 -9.63835,18.84828 -12.53811,31.02788 -16.25032,68.25482 -1.205,12.08402 -4.69138,27.99815 -7.62774,34.818 l -1.52427,3.5402 z"
         id="path5456"
         transform="scale(0.26458333)" />
      <path
         style="fill:#a05a2c;stroke:#000000;stroke-width:2.42842;stroke-linecap:round;stroke-linejoin:round;stroke-miterlimit:4;stroke-dasharray:none;stroke-opacity:0.955017;paint-order:stroke markers fill"
         d="m 553.77244,90.677195 c -5.95019,-2.00746 -13.34554,-4.920712 -16.4341,-6.473892 -15.8719,-7.981692 -32.0281,-20.9666 -43.85347,-35.245486 l -5.55379,-6.706084 8.62508,-17.700182 8.62508,-17.700181 6.24826,7.767039 c 16.85791,20.955591 45.93023,38.54336 72.91104,44.108703 4.29953,0.886866 17.35971,2.609615 29.02263,3.828331 21.20173,2.215474 33.31483,4.611187 42.0221,8.311071 l 4.62955,1.967177 -7.42186,0.565055 c -4.08202,0.31078 -13.86296,2.123462 -21.73543,4.028183 -25.59062,6.191576 -43.98722,4.508854 -64.93669,-5.93971 -8.32438,-4.15179 -10.3421,-3.879354 -10.3421,1.396408 0,6.11993 2.23677,11.771069 6.63832,16.771488 2.2795,2.589647 3.74615,4.70025 3.25923,4.690228 -0.48692,-0.01007 -5.75365,-1.660688 -11.70385,-3.668148 z"
         id="path5495"
         transform="scale(0.26458333)" />
      <path
         style="fill:#a05a2c;stroke:#000000;stroke-width:2.42842;stroke-linecap:round;stroke-linejoin:round;stroke-miterlimit:4;stroke-dasharray:none;stroke-opacity:0.955017;paint-order:stroke markers fill"
         d="m 706.79117,133.44862 c -10.31048,-1.32359 -22.78715,-5.75739 -43.59556,-15.49243 -9.91348,-4.63793 -21.36434,-9.88626 -25.44635,-11.66294 -6.84295,-2.97836 -22.95655,-6.652057 -29.10427,-6.6354 -4.72258,0.01279 -0.79431,-1.68039 14.26056,-6.146665 19.60977,-5.817565 23.00614,-6.512914 31.96132,-6.543555 9.22001,-0.03155 18.87768,2.77124 26.81443,7.781905 7.35347,4.64243 8.94912,4.129698 8.29616,-2.665827 -0.27175,-2.828099 -0.36161,-5.141997 -0.1997,-5.141997 0.16191,0 4.0281,1.506593 8.59154,3.347984 26.16031,10.555935 51.76809,11.020055 75.55048,1.369296 4.91632,-1.995014 9.06654,-3.499514 9.22272,-3.343334 0.15618,0.15618 -3.19556,7.451278 -7.44831,16.211333 l -7.73227,15.92736 -7.85204,3.83435 c -9.78225,4.77693 -19.50254,7.76114 -30.06514,9.23027 -9.19755,1.27926 -12.82595,1.26828 -23.25357,-0.0703 z"
         id="path5534"
         transform="scale(0.26458333)" />
      <path
         style="fill:#502d16;stroke:#000000;stroke-width:2.42842;stroke-linecap:round;stroke-linejoin:round;stroke-miterlimit:4;stroke-dasharray:none;stroke-opacity:0.955017;paint-order:stroke markers fill"
         d="m 578.0869,303.32135 c 0.16482,-0.33867 1.62077,-3.12796 3.23544,-6.19843 7.50777,-14.27682 7.85159,-28.85892 1.20582,-51.14149 -9.52581,-31.93905 -10.66112,-39.97206 -7.17485,-50.76665 3.02919,-9.37937 12.66664,-18.15056 19.94312,-18.15056 1.48109,0 2.6929,0.17136 2.6929,0.38081 0,0.20945 -1.61376,3.90712 -3.58613,8.21705 -5.89926,12.8908 -7.49876,20.77924 -7.50099,36.99352 -0.002,12.80948 0.37962,15.81767 3.62942,28.62715 5.73326,22.59841 4.90439,34.69688 -3.21714,46.95815 -2.32191,3.50545 -3.99368,4.88405 -6.34032,5.22846 -1.75283,0.25725 -3.0521,0.19066 -2.88727,-0.14801 z"
         id="path5610"
         transform="scale(0.26458333)" />
      <path
         style="fill:#502d16;stroke:#000000;stroke-width:2.42842;stroke-linecap:round;stroke-linejoin:round;stroke-miterlimit:4;stroke-dasharray:none;stroke-opacity:0.955017;paint-order:stroke markers fill"
         d="m 578.37443,95.856036 c -10.4224,-3.3114 -17.36478,-10.505888 -19.1089,-19.802832 l -0.73605,-3.923511 8.12165,3.752434 c 13.40372,6.1929 22.46937,8.140696 38.22992,8.213871 12.4126,0.05763 15.37461,-0.32492 29.78232,-3.84647 9.67005,-2.363567 18.59593,-3.910465 22.56407,-3.910465 12.13096,0 28.76386,7.693274 28.76386,13.304246 0,1.429848 -0.17133,2.599725 -0.38072,2.599725 -0.20939,0 -3.19138,-1.420222 -6.62665,-3.156049 -13.73697,-6.941245 -30.6068,-7.104166 -51.83732,-0.50062 -22.89914,7.122552 -26.40494,7.970761 -34.98874,8.465311 -5.98833,0.345016 -10.04073,-0.0065 -13.78344,-1.19564 z"
         id="path5649"
         transform="scale(0.26458333)" />
    </g>
  </g>
</svg>
