<?xml version="1.0" encoding="UTF-8" standalone="no"?>
<!-- Created with Inkscape (http://www.inkscape.org/) -->

<svg
   width="210mm"
   height="297mm"
   viewBox="0 0 210 297"
   version="1.1"
   id="svg5"
   inkscape:version="1.1.2 (0a00cf5339, 2022-02-04, custom)"
   sodipodi:docname="triangle wavform osc.svg"
   xmlns:inkscape="http://www.inkscape.org/namespaces/inkscape"
   xmlns:sodipodi="http://sodipodi.sourceforge.net/DTD/sodipodi-0.dtd"
   xmlns="http://www.w3.org/2000/svg"
   xmlns:svg="http://www.w3.org/2000/svg">
  <sodipodi:namedview
     id="namedview7"
     pagecolor="#ffffff"
     bordercolor="#666666"
     borderopacity="1.0"
     inkscape:pageshadow="2"
     inkscape:pageopacity="0.0"
     inkscape:pagecheckerboard="0"
     inkscape:document-units="mm"
     showgrid="false"
     inkscape:zoom="1.4254587"
     inkscape:cx="57.876107"
     inkscape:cy="954.42961"
     inkscape:window-width="1680"
     inkscape:window-height="956"
     inkscape:window-x="-11"
     inkscape:window-y="-11"
     inkscape:window-maximized="1"
     inkscape:current-layer="layer1" />
  <defs
     id="defs2">
    <inkscape:path-effect
       effect="spiro"
       id="path-effect1114"
       is_visible="true"
       lpeversion="1" />
    <inkscape:path-effect
       effect="spiro"
       id="path-effect865"
       is_visible="true"
       lpeversion="1" />
    <inkscape:path-effect
       effect="spiro"
       id="path-effect859"
       is_visible="true"
       lpeversion="1" />
  </defs>
  <g
     inkscape:label="Layer 1"
     inkscape:groupmode="layer"
     id="layer1"
     style="display:inline">
    <path
       id="path2214"
       style="fill:none;stroke:#000000;stroke-width:0.489705;stroke-linecap:round;stroke-linejoin:round;stroke-opacity:0.955017;paint-order:stroke markers fill"
       d="m 53.891323,46.231069 h 1.28404 c 0.47424,0 0.85603,0.50745 0.85603,1.13779 v 5.87859 c 0,0.63033 -0.38179,1.13779 -0.85603,1.13779 h -1.28404 c -0.47424,0 -0.85603,-0.50746 -0.85603,-1.13779 v -5.87859 c 0,-0.63034 0.38179,-1.13779 0.85603,-1.13779 z m 4.844274,-12.46916 h 0.28535 c 0.51376,0 0.92736,0.54974 0.92736,1.2326 v 18.39429 c 0,0.68287 -0.4136,1.23261 -0.92736,1.23261 h -0.28535 c -0.51376,0 -0.92736,-0.54974 -0.92736,-1.23261 v -18.39429 c 0,-0.68286 0.4136,-1.2326 0.92736,-1.2326 z m 6.03506,-10.050492 h 0.71597 c 0.51376,0 0.92736,0.54974 0.92736,1.23261 v 28.634412 c 0,0.68286 -0.4136,1.2326 -0.92736,1.2326 h -0.71597 c -0.51376,0 -0.92737,-0.54974 -0.92737,-1.2326 V 24.944027 c 0,-0.68287 0.41361,-1.23261 0.92737,-1.23261 z m 14.423584,8.281322 h 0.0293 c 0.49216,0 0.88836,0.52662 0.88836,1.18077 v 20.70887 c 0,0.65414 -0.3962,1.18077 -0.88836,1.18077 h -0.0293 c -0.49215,0 -0.88836,-0.52663 -0.88836,-1.18077 v -20.70887 c 0,-0.65415 0.39621,-1.18077 0.88836,-1.18077 z m -4.764814,-7.522792 h 0.71336 c 0.51376,0 0.927364,0.54974 0.927364,1.2326 v 27.875892 c 0,0.68286 -0.413604,1.2326 -0.927364,1.2326 h -0.71336 c -0.51376,0 -0.92736,-0.54974 -0.92736,-1.2326 V 25.702547 c 0,-0.68286 0.4136,-1.2326 0.92736,-1.2326 z m -4.42281,-12.136438 h 0.85603 c 0.51376,0 0.92736,0.549742 0.92736,1.232606 v 40.012324 c 0,0.68286 -0.4136,1.2326 -0.92736,1.2326 h -0.85603 c -0.51375,0 -0.92735,-0.54974 -0.92735,-1.2326 V 13.566115 c 0,-0.682864 0.4136,-1.232606 0.92735,-1.232606 z M 89.623911,55.379929 68.671277,54.809519 47.719923,54.161299 58.567897,30.328339 69.465927,6.5357645 79.570591,30.939129 Z m -6.27753,-9.48159 h 0.9987 c 0.47424,0 0.85602,0.50746 0.85602,1.1378 v 7.01637 c 0,0.63034 -0.38178,1.1378 -0.85602,1.1378 h -0.9987 c -0.47424,0 -0.85603,-0.50746 -0.85603,-1.1378 v -7.01637 c 0,-0.63034 0.38179,-1.1378 0.85603,-1.1378 z m -71.359038,-0.88591 h 1.28404 c 0.47424,0 0.85603,0.50746 0.85603,1.1378 v 5.87859 c 0,0.63033 -0.38179,1.13778 -0.85603,1.13778 h -1.28404 c -0.47424,0 -0.85603,-0.50745 -0.85603,-1.13778 v -5.87859 c 0,-0.63034 0.38179,-1.1378 0.85603,-1.1378 z m 4.84427,-12.46916 h 0.28535 c 0.51376,0 0.92736,0.54975 0.92736,1.23261 v 18.39429 c 0,0.68286 -0.4136,1.2326 -0.92736,1.2326 h -0.28535 c -0.51375,0 -0.92736,-0.54974 -0.92736,-1.2326 v -18.39429 c 0,-0.68286 0.41361,-1.23261 0.92736,-1.23261 z m 6.03506,-10.050482 h 0.71597 c 0.51376,0 0.92736,0.54974 0.92736,1.2326 v 28.634412 c 0,0.68287 -0.4136,1.23261 -0.92736,1.23261 h -0.71597 c -0.51376,0 -0.92736,-0.54974 -0.92736,-1.23261 V 23.725387 c 0,-0.68286 0.4136,-1.2326 0.92736,-1.2326 z m 14.42359,8.281322 h 0.0293 c 0.49215,0 0.88836,0.52662 0.88836,1.18077 v 20.70887 c 0,0.65414 -0.39621,1.18076 -0.88836,1.18076 h -0.0293 c -0.49216,0 -0.88836,-0.52662 -0.88836,-1.18076 v -20.70887 c 0,-0.65415 0.3962,-1.18077 0.88836,-1.18077 z m -4.76482,-7.522792 h 0.71336 c 0.51376,0 0.92736,0.54974 0.92736,1.2326 v 27.875882 c 0,0.68287 -0.4136,1.23261 -0.92736,1.23261 h -0.71336 c -0.51376,0 -0.92736,-0.54974 -0.92736,-1.23261 V 24.483917 c 0,-0.68286 0.4136,-1.2326 0.92736,-1.2326 z m -4.4228,-12.13644 h 0.85602 c 0.51376,0 0.92737,0.549742 0.92737,1.232606 v 40.012316 c 0,0.68287 -0.41361,1.23261 -0.92737,1.23261 h -0.85602 c -0.51376,0 -0.92737,-0.54974 -0.92737,-1.23261 V 12.347483 c 0,-0.682864 0.41361,-1.232606 0.92737,-1.232606 z M 47.719923,54.161299 26.767293,53.590889 5.8159435,52.942669 16.663913,29.109709 27.561953,5.3171325 37.666613,29.720499 Z m -6.27753,-9.48159 h 0.9987 c 0.47424,0 0.85603,0.50746 0.85603,1.1378 v 7.01637 c 0,0.63034 -0.38179,1.1378 -0.85603,1.1378 h -0.9987 c -0.47424,0 -0.85603,-0.50746 -0.85603,-1.1378 v -7.01637 c 0,-0.63034 0.38179,-1.1378 0.85603,-1.1378 z" />
    <path
       id="path1265"
       style="fill:none;stroke:#000000;stroke-width:0.489705;stroke-linecap:round;stroke-linejoin:round;stroke-opacity:0.955017;paint-order:stroke markers fill"
       d="m 54.819387,284.18664 h 1.28404 c 0.47424,0 0.85603,0.50745 0.85603,1.13779 v 5.87859 c 0,0.63033 -0.38179,1.13779 -0.85603,1.13779 h -1.28404 c -0.47424,0 -0.85603,-0.50746 -0.85603,-1.13779 v -5.87859 c 0,-0.63034 0.38179,-1.13779 0.85603,-1.13779 z m 4.844274,-12.46916 h 0.28535 c 0.51376,0 0.92736,0.54974 0.92736,1.2326 v 18.39429 c 0,0.68287 -0.4136,1.23261 -0.92736,1.23261 h -0.28535 c -0.51376,0 -0.92736,-0.54974 -0.92736,-1.23261 v -18.39429 c 0,-0.68286 0.4136,-1.2326 0.92736,-1.2326 z m 6.03506,-10.05049 h 0.71597 c 0.51376,0 0.92736,0.54974 0.92736,1.23261 v 28.63441 c 0,0.68286 -0.4136,1.2326 -0.92736,1.2326 h -0.71597 c -0.51376,0 -0.92737,-0.54974 -0.92737,-1.2326 V 262.8996 c 0,-0.68287 0.41361,-1.23261 0.92737,-1.23261 z m 14.423582,8.28132 h 0.0293 c 0.49216,0 0.88836,0.52662 0.88836,1.18077 v 20.70887 c 0,0.65414 -0.3962,1.18077 -0.88836,1.18077 h -0.0293 c -0.49215,0 -0.888358,-0.52663 -0.888358,-1.18077 v -20.70887 c 0,-0.65415 0.396208,-1.18077 0.888358,-1.18077 z m -4.764812,-7.52279 h 0.71336 c 0.51376,0 0.927364,0.54974 0.927364,1.2326 v 27.87589 c 0,0.68286 -0.413604,1.2326 -0.927364,1.2326 h -0.71336 c -0.51376,0 -0.92736,-0.54974 -0.92736,-1.2326 v -27.87589 c 0,-0.68286 0.4136,-1.2326 0.92736,-1.2326 z m -4.42281,-12.13644 h 0.85603 c 0.51376,0 0.92736,0.54974 0.92736,1.2326 v 40.01233 c 0,0.68286 -0.4136,1.2326 -0.92736,1.2326 h -0.85603 c -0.51375,0 -0.92735,-0.54974 -0.92735,-1.2326 v -40.01233 c 0,-0.68286 0.4136,-1.2326 0.92735,-1.2326 z m 19.617287,43.04642 -20.952627,-0.57041 -20.951354,-0.64822 10.847974,-23.83296 10.89803,-23.79258 10.104662,24.40337 z m -6.27753,-9.48159 h 0.9987 c 0.47424,0 0.85602,0.50746 0.85602,1.1378 v 7.01637 c 0,0.63034 -0.38178,1.1378 -0.85602,1.1378 h -0.9987 c -0.47424,0 -0.85603,-0.50746 -0.85603,-1.1378 v -7.01637 c 0,-0.63034 0.38179,-1.1378 0.85603,-1.1378 z M 12.915407,282.968 h 1.28404 c 0.47424,0 0.85603,0.50746 0.85603,1.1378 v 5.87859 c 0,0.63033 -0.38179,1.13778 -0.85603,1.13778 h -1.28404 c -0.47424,0 -0.85603,-0.50745 -0.85603,-1.13778 v -5.87859 c 0,-0.63034 0.38179,-1.1378 0.85603,-1.1378 z m 4.84427,-12.46916 h 0.28535 c 0.51376,0 0.92736,0.54975 0.92736,1.23261 v 18.39429 c 0,0.68286 -0.4136,1.2326 -0.92736,1.2326 h -0.28535 c -0.51375,0 -0.92736,-0.54974 -0.92736,-1.2326 v -18.39429 c 0,-0.68286 0.41361,-1.23261 0.92736,-1.23261 z m 6.03506,-10.05048 h 0.71597 c 0.51376,0 0.92736,0.54974 0.92736,1.2326 v 28.63441 c 0,0.68287 -0.4136,1.23261 -0.92736,1.23261 h -0.71597 c -0.51376,0 -0.92736,-0.54974 -0.92736,-1.23261 v -28.63441 c 0,-0.68286 0.4136,-1.2326 0.92736,-1.2326 z m 14.42359,8.28132 h 0.0293 c 0.49215,0 0.88836,0.52662 0.88836,1.18077 v 20.70887 c 0,0.65414 -0.39621,1.18076 -0.88836,1.18076 h -0.0293 c -0.49216,0 -0.88836,-0.52662 -0.88836,-1.18076 v -20.70887 c 0,-0.65415 0.3962,-1.18077 0.88836,-1.18077 z m -4.76482,-7.52279 h 0.71336 c 0.51376,0 0.92736,0.54974 0.92736,1.2326 v 27.87588 c 0,0.68287 -0.4136,1.23261 -0.92736,1.23261 h -0.71336 c -0.51376,0 -0.92736,-0.54974 -0.92736,-1.23261 v -27.87588 c 0,-0.68286 0.4136,-1.2326 0.92736,-1.2326 z m -4.4228,-12.13644 h 0.85602 c 0.51376,0 0.92737,0.54974 0.92737,1.2326 v 40.01232 c 0,0.68287 -0.41361,1.23261 -0.92737,1.23261 h -0.85602 c -0.51376,0 -0.92737,-0.54974 -0.92737,-1.23261 v -40.01232 c 0,-0.68286 0.41361,-1.2326 0.92737,-1.2326 z m 19.61728,43.04642 -20.95263,-0.57041 -20.9513488,-0.64822 10.8479688,-23.83296 10.89804,-23.79258 10.10466,24.40337 z m -6.27753,-9.48159 h 0.9987 c 0.47424,0 0.85603,0.50746 0.85603,1.1378 v 7.01637 c 0,0.63034 -0.38179,1.1378 -0.85603,1.1378 h -0.9987 c -0.47424,0 -0.85603,-0.50746 -0.85603,-1.1378 v -7.01637 c 0,-0.63034 0.38179,-1.1378 0.85603,-1.1378 z" />
    <path
       style="fill:#ffffff;fill-rule:evenodd;stroke:#1e0000;stroke-width:2.55865;stroke-linecap:round;stroke-linejoin:round;stroke-opacity:1;paint-order:stroke markers fill"
       d="m 96.994385,1043.2303 0.183442,-57.46815 -1.85649,-1.46032 c -2.574231,-2.02489 -6.190285,-1.91177 -8.363683,0.26162 l -1.721933,1.72194 v 56.85571 56.8557 l -6.138375,1e-4 h -6.138375 v -37.8088 c 0,-36.1957 -0.05702,-37.8718 -1.336404,-39.2856 -1.816963,-2.008 -6.033034,-2.0081 -7.850121,-2e-4 -1.279062,1.4133 -1.336404,3.0839 -1.336404,38.9348 v 37.4582 h -2.279968 -2.279967 v -14.2726 c 0,-16.8125 0.08907,-16.5947 -6.786414,-16.5947 -6.57061,0 -6.542629,-0.07 -6.542629,16.3658 v 13.7999 h -8.418343 c -4.630088,0 -8.418343,-0.182 -8.418343,-0.4046 0,-0.3731 36.188953,-79.9205 66.731892,-146.68414 7.09038,-15.49882 13.10566,-27.96849 13.36729,-27.71037 0.26163,0.25811 1.89764,3.94186 3.63559,8.18611 l 3.1599,7.71681 -3.54439,0.37818 c -2.57483,0.27472 -3.90759,0.82672 -4.87218,2.01794 -1.28753,1.59003 -1.32222,4.02004 -1.1435,80.12227 l 0.1843,78.4825 h -4.20917 l -4.209168,10e-5 z"
       id="path3718"
       transform="scale(0.26458333)" />
    <path
       style="fill:#ffffff;fill-rule:evenodd;stroke:#1e0000;stroke-width:2.55865;stroke-linecap:round;stroke-linejoin:round;stroke-opacity:1;paint-order:stroke markers fill"
       d="m 118.55833,1100.8038 c -1.39454,-0.4535 -1.40093,-0.9204 -1.0523,-76.8926 l 0.35077,-76.43639 13.77463,33.29236 13.77462,33.29233 -1.84783,0.5122 c -3.69751,1.0248 -3.60327,-0.1487 -3.60327,44.8705 v 41.9576 l -3.33226,10e-5 -3.33226,2e-4 0.18762,-56.0296 c 0.18232,-54.44642 0.14938,-56.07678 -1.1657,-57.70083 -1.94177,-2.39799 -7.32654,-2.39799 -9.26831,0 -1.31507,1.62405 -1.34801,3.25441 -1.16569,57.70083 0.20303,60.6312 0.4411,56.6562 -3.32002,55.4333 z"
       id="path3757"
       transform="scale(0.26458333)" />
    <path
       style="fill:#ffffff;fill-rule:evenodd;stroke:#1e0000;stroke-width:2.55865;stroke-linecap:round;stroke-linejoin:round;stroke-opacity:1;paint-order:stroke markers fill"
       d="m 148.649,1100.9917 c 0.2342,-0.6103 0.43487,-18.3678 0.44592,-39.461 l 0.0201,-38.3513 9.09977,22.0419 c 5.00488,12.1231 9.09977,22.3671 9.09977,22.7646 0,0.4297 -0.34128,0.3814 -0.84183,-0.1191 -0.46301,-0.463 -2.46605,-0.8419 -4.45121,-0.8419 -6.23925,0 -6.28218,0.13 -6.28218,19.015 v 16.0615 h -3.75808 c -3.13866,0 -3.68789,-0.1829 -3.33226,-1.1097 z"
       id="path3796"
       transform="scale(0.26458333)" />
    <path
       style="fill:#ffffff;fill-rule:evenodd;stroke:#1e0000;stroke-width:2.55865;stroke-linecap:round;stroke-linejoin:round;stroke-opacity:1;paint-order:stroke markers fill"
       d="m 169.76991,1102.3315 c -1.34844,-0.2694 -1.39566,-0.764 -1.21319,-12.7073 0.30588,-20.0211 0.0697,-19.1236 3.08525,-11.7256 1.41548,3.4726 4.31012,10.4967 6.43254,15.6091 l 3.85894,9.2952 -5.38024,-0.095 c -2.95913,-0.053 -6.01162,-0.2217 -6.7833,-0.3759 z"
       id="path3835"
       transform="scale(0.26458333)" />
    <path
       style="fill:#ffffff;fill-rule:evenodd;stroke:#1e0000;stroke-width:2.55865;stroke-linecap:round;stroke-linejoin:round;stroke-opacity:1;paint-order:stroke markers fill"
       d="m 48.756235,1098.7839 c -0.578761,-0.2203 -1.284224,-0.7478 -1.567697,-1.1723 -0.283472,-0.4244 -0.520238,-6.1948 -0.526146,-12.8229 -0.01199,-13.453 0.244297,-14.2561 4.549193,-14.2561 4.308629,0 4.559936,0.7926 4.559936,14.3813 0,10.1342 -0.184902,12.3615 -1.102402,13.279 -1.089684,1.0896 -3.872304,1.3678 -5.912884,0.591 z"
       id="path3874"
       transform="scale(0.26458333)" />
    <path
       style="fill:#ffffff;fill-rule:evenodd;stroke:#1e0000;stroke-width:2.55865;stroke-linecap:round;stroke-linejoin:round;stroke-opacity:1;paint-order:stroke markers fill"
       d="m 65.317212,1098.1856 c -0.769533,-2.0054 -0.483362,-71.834 0.300391,-73.2985 0.934316,-1.7458 3.225492,-1.7458 4.159807,0 0.783753,1.4645 1.069924,71.2931 0.300391,73.2985 -0.247297,0.6444 -1.245223,1.1097 -2.380294,1.1097 -1.135072,0 -2.132998,-0.4653 -2.380295,-1.1097 z"
       id="path3913"
       transform="scale(0.26458333)" />
    <path
       style="fill:#ffffff;fill-rule:evenodd;stroke:#1e0000;stroke-width:2.55865;stroke-linecap:round;stroke-linejoin:round;stroke-opacity:1;paint-order:stroke markers fill"
       d="m 88.509521,1099.5291 c -0.257228,-0.2572 -0.467686,-25.607 -0.467686,-56.3327 0,-42.5153 0.201169,-56.06627 0.841834,-56.70693 1.333935,-1.33394 4.624179,-1.0228 5.44724,0.5151 0.785379,1.4675 1.076401,109.86033 0.300391,111.88253 -0.431117,1.1235 -5.14586,1.6179 -6.121779,0.642 z"
       id="path3952"
       transform="scale(0.26458333)" />
    <path
       style="fill:#ffffff;fill-rule:evenodd;stroke:#1e0000;stroke-width:2.55865;stroke-linecap:round;stroke-linejoin:round;stroke-opacity:1;paint-order:stroke markers fill"
       d="m 159.03653,1101.2595 c -0.88926,-0.8892 -1.2628,-28.1121 -0.41602,-30.3188 0.59525,-1.5512 6.26993,-1.5512 6.86518,0 0.2342,0.6103 0.42582,7.4923 0.42582,15.2934 0,15.4171 -0.10948,15.8673 -3.85841,15.8673 -1.19611,0 -2.55357,-0.3788 -3.01657,-0.8419 z"
       id="path3991"
       transform="scale(0.26458333)" />
    <path
       style="fill:#ffffff;fill-rule:evenodd;stroke:#1e0000;stroke-width:2.55865;stroke-linecap:round;stroke-linejoin:round;stroke-opacity:1;paint-order:stroke markers fill"
       d="m 142.7437,1099.6004 c -0.95944,-2.5236 -0.91963,-79.2301 0.0421,-81.027 1.01722,-1.9007 2.68982,-1.6893 3.50032,0.4425 0.41436,1.0899 0.68416,16.9795 0.68416,40.2922 0,23.3128 -0.2698,39.2024 -0.68416,40.2923 -0.37629,0.9897 -1.17332,1.7994 -1.77119,1.7994 -0.59786,0 -1.39489,-0.8097 -1.77118,-1.7994 z"
       id="path4030"
       transform="scale(0.26458333)" />
    <path
       style="fill:#ffffff;fill-rule:evenodd;stroke:#1e0000;stroke-width:2.55865;stroke-linecap:round;stroke-linejoin:round;stroke-opacity:1;paint-order:stroke markers fill"
       d="m 125.36315,1099.8565 c -1.21889,-1.2189 -1.21889,-109.34202 0,-110.56092 1.33394,-1.33393 4.62418,-1.0228 5.44724,0.51511 1.00611,1.87991 1.00611,107.65081 0,109.53071 -0.82306,1.5379 -4.1133,1.849 -5.44724,0.5151 z"
       id="path4069"
       transform="scale(0.26458333)" />
    <path
       style="fill:#ffffff;fill-rule:evenodd;stroke:#1e0000;stroke-width:2.55865;stroke-linecap:round;stroke-linejoin:round;stroke-opacity:1;paint-order:stroke markers fill"
       d="m 108.52647,1099.8565 c -0.64453,-0.6445 -0.84184,-18.8818 -0.84184,-77.8123 0,-42.33376 0.19162,-77.46982 0.42582,-78.08014 0.64833,-1.68952 5.62865,-1.50193 6.56479,0.24727 0.97108,1.81448 1.01194,152.13647 0.042,154.68747 -0.54506,1.4337 -1.15838,1.7995 -3.01657,1.7995 -1.28282,0 -2.71123,-0.3788 -3.17424,-0.8418 z"
       id="path4108"
       transform="scale(0.26458333)" />
    <path
       style="fill:#ffffff;fill-rule:evenodd;stroke:#1e0000;stroke-width:2.55865;stroke-linecap:round;stroke-linejoin:round;stroke-opacity:1;paint-order:stroke markers fill"
       d="m 259.56557,1105.0942 -4.20917,-0.2444 0.18351,-56.69 c 0.18299,-56.52809 0.17934,-56.69536 -1.27859,-58.54881 -1.18826,-1.51063 -2.04385,-1.85877 -4.56807,-1.85877 -2.17059,0 -3.52849,0.42254 -4.50902,1.40306 -1.38013,1.38013 -1.40305,2.33843 -1.40305,58.66532 v 57.2623 l -2.19228,-0.4385 c -1.20575,-0.2411 -4.04694,-0.4384 -6.31376,-0.4384 h -4.12148 v -37.7603 -37.7602 l -1.62365,-1.5254 c -2.00395,-1.8826 -4.70568,-1.9549 -6.89235,-0.1844 l -1.65616,1.341 v 37.9445 c 0,34.9613 -0.092,37.9446 -1.1703,37.9447 -3.3909,2e-4 -3.38964,0.01 -3.38964,-14.6848 0,-13.5527 -0.0329,-13.8642 -1.62365,-15.3586 -2.20096,-2.0677 -8.2616,-2.163 -10.2632,-0.1614 -1.97576,1.9758 -2.29541,4.7942 -2.03016,17.9004 l 0.23721,11.7207 -8.06758,-0.4925 c -4.43717,-0.2708 -8.16972,-0.5836 -8.29456,-0.6951 -0.2385,-0.2129 16.40975,-36.9008 54.42807,-119.94384 12.5417,-27.3947 23.34609,-51.00186 24.00977,-52.46038 l 1.20669,-2.65185 3.5541,8.61484 3.55412,8.61484 -3.80881,0.2106 c -3.06309,0.16936 -4.01524,0.52565 -4.86318,1.81979 -0.92514,1.41194 -1.03179,11.2536 -0.87002,80.2899 0.10141,43.2743 0.18438,78.6198 0.18438,78.5454 0,-0.074 -1.89413,-0.2452 -4.20917,-0.3797 z"
       id="path4147"
       transform="scale(0.26458333)" />
    <path
       style="fill:#ffffff;fill-rule:evenodd;stroke:#1e0000;stroke-width:2.55865;stroke-linecap:round;stroke-linejoin:round;stroke-opacity:1;paint-order:stroke markers fill"
       d="m 206.03894,1102.6626 c -1.18428,-1.1843 -1.18428,-25.1932 0,-26.3775 0.46301,-0.463 2.20711,-0.8418 3.87577,-0.8418 4.07512,0 4.40227,1.0426 4.40227,14.0306 0,12.9879 -0.32715,14.0305 -4.40227,14.0305 -1.66866,0 -3.41276,-0.3788 -3.87577,-0.8418 z"
       id="path4186"
       transform="scale(0.26458333)" />
    <path
       style="fill:#ffffff;fill-rule:evenodd;stroke:#1e0000;stroke-width:2.55865;stroke-linecap:round;stroke-linejoin:round;stroke-opacity:1;paint-order:stroke markers fill"
       d="m 223.86267,1103.0963 c -0.55624,-1.4495 -0.55624,-72.0962 0,-73.5458 0.59645,-1.5543 3.58467,-1.3886 4.4602,0.2473 0.99914,1.8669 0.99914,71.1843 0,73.0512 -0.87553,1.636 -3.86375,1.8016 -4.4602,0.2473 z"
       id="path4225"
       transform="scale(0.26458333)" />
    <path
       style="fill:#ffffff;fill-rule:evenodd;stroke:#1e0000;stroke-width:2.55865;stroke-linecap:round;stroke-linejoin:round;stroke-opacity:1;paint-order:stroke markers fill"
       d="m 246.63317,1103.5902 c -1.18664,-2.2173 -1.03169,-110.27034 0.16047,-111.90071 0.63769,-0.87209 1.62938,-1.17297 3.33226,-1.01099 l 2.42438,0.2306 v 56.8238 56.8238 l -2.58485,0.215 c -1.99927,0.1663 -2.75417,-0.1014 -3.33226,-1.1815 z"
       id="path4264"
       transform="scale(0.26458333)" />
    <path
       style="fill:#ffffff;fill-rule:evenodd;stroke:#1e0000;stroke-width:2.55865;stroke-linecap:round;stroke-linejoin:round;stroke-opacity:1;paint-order:stroke markers fill"
       d="m 267.24108,1104.6134 c -1.33172,-0.9737 -1.36551,-2.6798 -1.53186,-77.3436 -0.13471,-60.4618 0.0146,-76.71276 0.71778,-78.10165 0.56352,-1.11311 1.60224,-1.83641 2.84326,-1.9799 4.23585,-0.48973 3.97512,-5.68527 3.97512,79.20925 0,76.1602 -0.0279,77.774 -1.35694,78.4853 -1.83629,0.9828 -3.02933,0.9136 -4.64736,-0.2694 z"
       id="path4303"
       transform="scale(0.26458333)" />
    <path
       style="fill:#ffffff;fill-rule:evenodd;stroke:#1e0000;stroke-width:2.55865;stroke-linecap:round;stroke-linejoin:round;stroke-opacity:1;paint-order:stroke markers fill"
       d="m 291.46044,1104.9536 c 0.48277,-0.9021 0.72621,-19.6833 0.72621,-56.0277 0,-54.24663 -0.0113,-54.68505 -1.45398,-56.51914 -1.88428,-2.39548 -6.87836,-2.63596 -9.07722,-0.4371 -1.39369,1.39369 -1.40903,2.11272 -1.22768,57.52544 l 0.18366,56.1141 h -2.45535 -2.45535 l 0.17676,-55.2455 c 0.0972,-30.385 0.25506,-64.83165 0.35076,-76.54813 l 0.174,-21.3027 13.75976,33.22868 c 12.74678,30.78245 13.65058,33.24635 12.27675,33.46805 -0.81565,0.1316 -2.03546,0.733 -2.71068,1.3364 -1.14353,1.0219 -1.22768,3.9986 -1.22768,43.4308 v 42.3337 h -3.88309 c -3.6217,0 -3.8342,-0.091 -3.15687,-1.3569 z"
       id="path4342"
       transform="scale(0.26458333)" />
    <path
       style="fill:#ffffff;fill-rule:evenodd;stroke:#1e0000;stroke-width:2.55865;stroke-linecap:round;stroke-linejoin:round;stroke-opacity:1;paint-order:stroke markers fill"
       d="m 283.7683,1104.206 c -1.37846,-1.3785 -1.40305,-2.3385 -1.40305,-54.7654 0,-35.4424 0.24387,-53.81796 0.72621,-54.71921 0.50499,-0.94359 1.47193,-1.35694 3.17424,-1.35694 1.99403,0 2.5773,0.33999 3.14504,1.83327 0.4456,1.17202 0.62912,21.05608 0.50878,55.12668 -0.18306,51.8308 -0.2256,53.3208 -1.54998,54.289 -1.84626,1.3498 -2.94091,1.2529 -4.60124,-0.4074 z"
       id="path4381"
       transform="scale(0.26458333)" />
    <path
       style="fill:#ffffff;fill-rule:evenodd;stroke:#1e0000;stroke-width:2.55865;stroke-linecap:round;stroke-linejoin:round;stroke-opacity:1;paint-order:stroke markers fill"
       d="m 301.3312,1104.9536 c -0.47618,-0.8897 -0.72621,-15.0942 -0.72621,-41.2561 0,-32.9799 0.16932,-40.1307 0.97638,-41.2344 0.82957,-1.1345 1.14601,-1.1945 2.10458,-0.399 1.01294,0.8407 1.12821,5.1064 1.12821,41.7496 0,40.5141 -0.10358,42.4968 -2.22021,42.4968 -0.29509,0 -0.86333,-0.6106 -1.26275,-1.3569 z"
       id="path4420"
       transform="scale(0.26458333)" />
    <path
       style="fill:#ffffff;fill-rule:evenodd;stroke:#1e0000;stroke-width:2.55865;stroke-linecap:round;stroke-linejoin:round;stroke-opacity:1;paint-order:stroke markers fill"
       d="m 317.96782,1106.2544 c -1.10826,-0.6456 -1.22767,-2.1651 -1.22767,-15.6228 0,-10.6595 0.23989,-15.1476 0.84183,-15.7495 1.37086,-1.3709 5.31632,-1.0404 6.14877,0.5151 0.43114,0.8056 0.72621,7.0562 0.72621,15.3835 0,11.8161 -0.17373,14.2003 -1.1024,15.129 -1.25169,1.2517 -3.57434,1.4003 -5.38674,0.3447 z"
       id="path4459"
       transform="scale(0.26458333)" />
  </g>
  <g
     inkscape:groupmode="layer"
     id="layer2"
     inkscape:label="Layer 2">
    <path
       style="display:inline;fill:#000000;stroke-width:0.264583"
       d="m 189.86643,53.761459 c -3.56526,-0.105127 -9.33979,-0.265054 -12.83229,-0.355394 -3.4925,-0.09034 -7.60016,-0.227525 -9.12813,-0.304863 -1.52797,-0.07733 -9.26703,-0.313269 -17.19792,-0.524298 -20.65367,-0.549564 -34.25012,-0.968571 -34.34945,-1.058561 -0.1512,-0.13698 21.47173,-47.4150178 21.86582,-47.8091038 0.24633,-0.24633 1.26493,2.15366 13.33128,31.4107368 3.78104,9.167812 6.90352,16.698828 6.93883,16.735589 0.0353,0.03676 2.53568,-5.354183 5.55636,-11.979878 11.32087,-24.831751 15.98926,-34.9059928 16.20939,-34.9793708 0.12473,-0.04158 1.52102,3.050801 3.10286,6.8719498 8.80879,21.278858 17.35116,42.024702 17.35116,42.138701 0,0.14791 -1.64577,0.125835 -10.84791,-0.145508 z m 10.05416,-0.472173 c 0,-0.120578 -1.9597,-4.972375 -4.3549,-10.78177 l -4.3549,-10.56254 -0.0769,10.649572 -0.0769,10.649571 1.05834,2.65e-4 1.05833,2.64e-4 -0.079,-4.088611 c -0.0739,-3.825153 -0.044,-4.123537 0.46302,-4.630589 0.65049,-0.650489 1.66713,-0.701948 2.25494,-0.114136 0.36612,0.366117 0.41656,1.05324 0.34963,4.762852 l -0.0782,4.335012 1.91822,-2.64e-4 c 1.05503,-1.94e-4 1.91823,-0.09901 1.91823,-0.219583 z M 184.10327,38.435822 c -0.0735,-14.583737 -0.0665,-14.816437 0.46302,-15.345919 0.63094,-0.630935 1.29395,-0.684481 2.00842,-0.162205 0.49577,0.362401 0.51612,0.869302 0.58654,14.606834 0.0448,8.748937 -0.0263,14.516094 -0.18468,14.970402 -0.25535,0.732486 -0.24783,0.739 0.8531,0.739135 l 1.11072,1.38e-4 -0.0774,-10.877325 c -0.0677,-9.512777 -0.0254,-10.956632 0.33683,-11.50951 0.22782,-0.347702 0.59007,-0.632188 0.805,-0.632188 0.21492,0 0.39077,-0.06547 0.39077,-0.145486 0,-0.321369 -7.1898,-17.46701 -7.42254,-17.700659 -0.15745,-0.15807 -0.25037,7.322443 -0.25037,20.156077 v 20.407431 l 0.59531,0.114663 c 0.32742,0.06306 0.65484,0.130913 0.7276,0.150778 0.0728,0.01987 0.0987,-6.627612 0.0577,-14.772166 z m -4.50419,-5.630889 c -0.0564,-14.071681 0.007,-20.47468 0.20905,-21.166728 0.27754,-0.949684 0.33917,-0.992187 1.43886,-0.992187 h 1.14891 l -0.98171,-2.3798178 c -0.53994,-1.3089 -1.03301,-2.431122 -1.09571,-2.493827 -0.0627,-0.0627 -1.64998,3.240636 -3.52727,7.3407558 -9.36809,20.460471 -17.88103,39.138419 -17.88103,39.232124 0,0.05771 1.07156,0.104931 2.38125,0.104931 h 2.38125 v -3.65125 c 0,-2.487083 0.10123,-3.752482 0.3175,-3.96875 0.17462,-0.174625 0.82528,-0.3175 1.4459,-0.3175 1.60155,0 1.73394,0.377706 1.63016,4.650793 l -0.0863,3.552042 0.7276,-2.65e-4 0.72761,-2.64e-4 V 42.71374 c 0,-7.425973 0.0818,-10.083004 0.3175,-10.31875 0.17462,-0.174625 0.65382,-0.3175 1.06488,-0.3175 0.56753,0 0.81239,0.170992 1.01754,0.710573 0.17131,0.450564 0.24152,4.226406 0.19189,10.318911 l -0.0783,9.608111 1.78594,-1.59e-4 1.78593,-1.59e-4 V 37.686434 c 0,-11.335925 0.078,-15.106342 0.3175,-15.345833 0.43154,-0.43154 1.92891,-0.4019 2.30025,0.04553 0.21943,0.264391 0.28215,4.470047 0.23083,15.478174 l -0.0705,15.115141 1.19062,10e-6 1.19063,1.3e-5 z M 158.11643,52.32493 c 0,-0.27986 -8.5541,-20.927972 -8.76637,-21.160475 -0.12993,-0.142327 -0.22947,4.362228 -0.22947,10.384896 v 10.63625 h 1.05834 1.05833 v -4.312709 c 0,-3.001549 0.0965,-4.409236 0.3175,-4.630208 0.17463,-0.174625 0.77289,-0.3175 1.32947,-0.3175 1.42567,0 1.58922,0.589772 1.4828,5.347126 l -0.0871,3.891915 1.5875,0.092 c 0.87312,0.0506 1.73633,0.11494 1.91823,0.142978 0.1819,0.02804 0.33073,-0.0054 0.33073,-0.07427 z m 12.36788,-6.278329 c -0.0491,-1.207455 -0.0896,-0.290375 -0.09,2.037958 -2.6e-4,2.328333 0.0399,3.316253 0.0893,2.195375 0.0495,-1.120876 0.0497,-3.025876 5.3e-4,-4.233333 z m -28.18112,-8.975955 c -0.0514,-10.812343 0.0114,-14.949214 0.23084,-15.213593 0.47021,-0.56658 2.0178,-0.4607 2.35043,0.160808 0.19038,0.355734 0.25707,5.239631 0.20774,15.213612 l -0.0727,14.689687 0.99219,-7.1e-5 0.99219,-7.2e-5 v -11.0936 c 0,-9.732314 0.051,-11.144621 0.41577,-11.509375 0.22868,-0.228676 0.56977,-0.415774 0.758,-0.415774 0.21349,0 -1.06254,-3.389126 -3.39234,-9.010012 l -3.73456,-9.010012 -0.0654,5.636574 c -0.0359,3.100116 -0.0955,12.333872 -0.13229,20.519458 l -0.0669,14.882882 0.79375,-1.9e-5 0.79375,-1.8e-5 z m -9.78946,-0.472253 c -0.0781,-16.70783 -0.14844,-16.019569 1.61891,-15.846351 1.51762,0.148741 1.50218,-0.02587 1.4288,16.153956 l -0.0669,14.750608 1.19063,-5.8e-5 1.19062,-5.8e-5 -0.0694,-20.648941 c -0.0491,-14.623773 0.0155,-20.807484 0.22145,-21.1922898 0.23411,-0.437436 0.49261,-0.524105 1.32612,-0.444617 0.56943,0.0543 1.03532,0.06315 1.03532,0.01966 0,-0.491984 -2.00245,-4.785168 -2.15893,-4.628683 -0.22219,0.222193 -3.59709,7.5358738 -14.64985,31.7474178 l -6.67333,14.618229 h 1.65381 c 0.90961,0 1.99613,0.06863 2.4145,0.152519 l 0.76068,0.152519 -0.0855,-3.686164 c -0.0729,-3.143488 -0.0214,-3.75022 0.34963,-4.121269 0.53745,-0.537448 2.33179,-0.576545 2.76037,-0.06014 0.21505,0.259114 0.28636,1.526254 0.23083,4.10147 l -0.0804,3.726511 0.79375,-2.65e-4 0.79375,-2.64e-4 -0.0726,-9.693958 c -0.0628,-8.386749 -0.0174,-9.778224 0.33683,-10.318858 0.50753,-0.774592 1.59177,-0.830009 1.98177,-0.101288 0.18667,0.348784 0.25603,3.79412 0.20775,10.318866 -0.047,6.348802 0.0206,9.834412 0.1921,9.906543 0.14552,0.06121 0.97896,0.120711 1.85209,0.132225 l 1.5875,0.02093 -0.0704,-15.058139 z M 170.36074,32.8379 c -0.11318,-0.113594 -0.14662,1.663089 -0.0743,3.948186 l 0.13145,4.154723 0.0743,-3.948186 c 0.0409,-2.171502 -0.0183,-4.041127 -0.13145,-4.154723 z m 10.03392,-20.38069 c 0.0435,-0.677334 -0.0102,-1.176323 -0.11938,-1.108865 -0.10914,0.06746 -0.18462,0.800235 -0.16774,1.628392 0.0336,1.647047 0.16308,1.4127 0.28712,-0.519527 z m 1.97959,-0.537885 c -0.0845,-0.211067 -0.14716,-0.148372 -0.15985,0.159853 -0.0115,0.278914 0.051,0.435184 0.13896,0.347265 0.0879,-0.08792 0.0973,-0.316122 0.0209,-0.507118 z"
       id="path1165" />
  </g>
  <g
     inkscape:groupmode="layer"
     id="layer3"
     inkscape:label="Layer 3" />
  <g
     inkscape:groupmode="layer"
     id="layer4"
     inkscape:label="Layer 4">
    <g
       id="g3609"
       style="display:inline">
      <path
         id="path1267"
         style="fill:none;stroke:#000000;stroke-width:0.489705;stroke-linecap:round;stroke-linejoin:round;stroke-opacity:0.955017;paint-order:stroke markers fill"
         d="m 168.60001,283.44419 h 1.28404 c 0.47424,0 0.85603,0.50745 0.85603,1.13779 v 5.87859 c 0,0.63033 -0.38179,1.13779 -0.85603,1.13779 h -1.28404 c -0.47424,0 -0.85603,-0.50746 -0.85603,-1.13779 v -5.87859 c 0,-0.63034 0.38179,-1.13779 0.85603,-1.13779 z m 4.84428,-12.46916 h 0.28535 c 0.51376,0 0.92736,0.54974 0.92736,1.2326 v 18.39429 c 0,0.68287 -0.4136,1.23261 -0.92736,1.23261 h -0.28535 c -0.51376,0 -0.92736,-0.54974 -0.92736,-1.23261 v -18.39429 c 0,-0.68286 0.4136,-1.2326 0.92736,-1.2326 z m 6.03506,-10.05049 h 0.71597 c 0.51376,0 0.92736,0.54974 0.92736,1.23261 v 28.63441 c 0,0.68286 -0.4136,1.2326 -0.92736,1.2326 h -0.71597 c -0.51376,0 -0.92737,-0.54974 -0.92737,-1.2326 v -28.63441 c 0,-0.68287 0.41361,-1.23261 0.92737,-1.23261 z m 14.42358,8.28132 h 0.0293 c 0.49216,0 0.88836,0.52662 0.88836,1.18077 v 20.70887 c 0,0.65414 -0.3962,1.18077 -0.88836,1.18077 h -0.0293 c -0.49215,0 -0.88836,-0.52663 -0.88836,-1.18077 v -20.70887 c 0,-0.65415 0.39621,-1.18077 0.88836,-1.18077 z m -4.76481,-7.52279 h 0.71336 c 0.51376,0 0.92736,0.54974 0.92736,1.2326 v 27.87589 c 0,0.68286 -0.4136,1.2326 -0.92736,1.2326 h -0.71336 c -0.51376,0 -0.92736,-0.54974 -0.92736,-1.2326 v -27.87589 c 0,-0.68286 0.4136,-1.2326 0.92736,-1.2326 z m -4.42281,-12.13644 h 0.85603 c 0.51376,0 0.92736,0.54974 0.92736,1.2326 v 40.01233 c 0,0.68286 -0.4136,1.2326 -0.92736,1.2326 h -0.85603 c -0.51375,0 -0.92735,-0.54974 -0.92735,-1.2326 v -40.01233 c 0,-0.68286 0.4136,-1.2326 0.92735,-1.2326 z m 19.61728,43.04642 -20.95262,-0.57041 -20.95136,-0.64822 10.84798,-23.83296 10.89803,-23.79258 10.10466,24.40337 z m -6.27753,-9.48159 h 0.9987 c 0.47424,0 0.85602,0.50746 0.85602,1.1378 v 7.01637 c 0,0.63034 -0.38178,1.1378 -0.85602,1.1378 h -0.9987 c -0.47424,0 -0.85603,-0.50746 -0.85603,-1.1378 v -7.01637 c 0,-0.63034 0.38179,-1.1378 0.85603,-1.1378 z m -71.35903,-0.88591 h 1.28404 c 0.47424,0 0.85603,0.50746 0.85603,1.1378 v 5.87859 c 0,0.63033 -0.38179,1.13778 -0.85603,1.13778 h -1.28404 c -0.47424,0 -0.85603,-0.50745 -0.85603,-1.13778 v -5.87859 c 0,-0.63034 0.38179,-1.1378 0.85603,-1.1378 z m 4.84427,-12.46916 h 0.28535 c 0.51376,0 0.92736,0.54975 0.92736,1.23261 v 18.39429 c 0,0.68286 -0.4136,1.2326 -0.92736,1.2326 h -0.28535 c -0.51375,0 -0.92736,-0.54974 -0.92736,-1.2326 V 270.989 c 0,-0.68286 0.41361,-1.23261 0.92736,-1.23261 z m 6.03506,-10.05048 h 0.71597 c 0.51376,0 0.92736,0.54974 0.92736,1.2326 v 28.63441 c 0,0.68287 -0.4136,1.23261 -0.92736,1.23261 h -0.71597 c -0.51376,0 -0.92736,-0.54974 -0.92736,-1.23261 v -28.63441 c 0,-0.68286 0.4136,-1.2326 0.92736,-1.2326 z m 14.42359,8.28132 h 0.0293 c 0.49215,0 0.88836,0.52662 0.88836,1.18077 v 20.70887 c 0,0.65414 -0.39621,1.18076 -0.88836,1.18076 h -0.0293 c -0.49216,0 -0.88836,-0.52662 -0.88836,-1.18076 V 269.168 c 0,-0.65415 0.3962,-1.18077 0.88836,-1.18077 z m -4.76482,-7.52279 h 0.71336 c 0.51376,0 0.92736,0.54974 0.92736,1.2326 v 27.87588 c 0,0.68287 -0.4136,1.23261 -0.92736,1.23261 h -0.71336 c -0.51376,0 -0.92736,-0.54974 -0.92736,-1.23261 v -27.87588 c 0,-0.68286 0.4136,-1.2326 0.92736,-1.2326 z m -4.4228,-12.13644 h 0.85602 c 0.51376,0 0.92737,0.54974 0.92737,1.2326 v 40.01232 c 0,0.68287 -0.41361,1.23261 -0.92737,1.23261 h -0.85602 c -0.51376,0 -0.92737,-0.54974 -0.92737,-1.23261 V 249.5606 c 0,-0.68286 0.41361,-1.2326 0.92737,-1.2326 z m 19.61728,43.04642 -20.95263,-0.57041 -20.95135,-0.64822 10.84797,-23.83296 10.89804,-23.79258 10.10466,24.40337 z m -6.27753,-9.48159 h 0.9987 c 0.47424,0 0.85603,0.50746 0.85603,1.1378 v 7.01637 c 0,0.63034 -0.38179,1.1378 -0.85603,1.1378 h -0.9987 c -0.47424,0 -0.85603,-0.50746 -0.85603,-1.1378 v -7.01637 c 0,-0.63034 0.38179,-1.1378 0.85603,-1.1378 z" />
      <path
         style="fill:#87deaa;fill-rule:evenodd;stroke:#1e0000;stroke-width:2.55865;stroke-linecap:round;stroke-linejoin:round;stroke-opacity:1;paint-order:stroke markers fill"
         d="m 721.49745,1102.1475 c 0.48277,-0.9021 0.72621,-19.6833 0.72621,-56.0277 0,-54.24664 -0.0113,-54.68506 -1.45397,-56.51915 -1.88429,-2.39548 -6.87837,-2.63596 -9.07723,-0.4371 -1.39368,1.39369 -1.40903,2.11272 -1.22767,57.52545 l 0.18365,56.114 -2.45535,10e-5 h -2.45535 l 0.17676,-55.2455 c 0.0972,-30.385 0.25506,-64.83166 0.35076,-76.54814 l 0.17401,-21.3027 13.75975,33.22868 c 12.74678,30.78246 13.65058,33.24636 12.27675,33.46806 -0.81565,0.1316 -2.03546,0.733 -2.71068,1.3364 -1.14353,1.0218 -1.22767,3.9985 -1.22767,43.4308 v 42.3337 h -3.88309 c -3.62171,0 -3.83421,-0.091 -3.15688,-1.3569 z"
         id="path2313"
         transform="scale(0.26458333)" />
      <path
         style="fill:#87deaa;fill-rule:evenodd;stroke:#1e0000;stroke-width:2.55865;stroke-linecap:round;stroke-linejoin:round;stroke-opacity:1;paint-order:stroke markers fill"
         d="m 689.60258,1102.2881 -4.20917,-0.2444 0.18351,-56.69 c 0.183,-56.5281 0.17934,-56.69537 -1.27859,-58.54882 -1.18825,-1.51063 -2.04384,-1.85877 -4.56806,-1.85877 -2.1706,0 -3.5285,0.42253 -4.50902,1.40306 -1.38014,1.38013 -1.40306,2.33842 -1.40306,58.66533 v 57.2623 l -2.19228,-0.4385 c -1.20575,-0.2411 -4.04694,-0.4384 -6.31375,-0.4384 h -4.12149 v -37.7603 -37.7603 l -1.62365,-1.5253 c -2.00395,-1.8826 -4.70568,-1.9549 -6.89235,-0.1844 l -1.65616,1.341 v 37.9445 c 0,34.9613 -0.092,37.9446 -1.1703,37.9447 -3.3909,2e-4 -3.38963,0.01 -3.38963,-14.6848 0,-13.5527 -0.0329,-13.8642 -1.62366,-15.3586 -2.20096,-2.0677 -8.2616,-2.163 -10.2632,-0.1614 -1.97576,1.9758 -2.29541,4.7942 -2.03016,17.9004 l 0.23721,11.7207 -8.06758,-0.4925 c -4.43717,-0.2709 -8.16972,-0.5836 -8.29455,-0.6951 -0.23851,-0.2129 16.40974,-36.9008 54.42806,-119.94386 12.5417,-27.39469 23.3461,-51.00186 24.00978,-52.46037 l 1.20668,-2.65185 3.55411,8.61484 3.55411,8.61484 -3.8088,0.2106 c -3.06309,0.16936 -4.01524,0.52565 -4.86319,1.81979 -0.92514,1.41194 -1.03178,11.2536 -0.87001,80.28981 0.1014,43.2744 0.18437,78.6199 0.18437,78.5455 0,-0.074 -1.89412,-0.2452 -4.20917,-0.3797 z"
         id="path2611"
         transform="scale(0.26458333)" />
      <path
         style="fill:#87deaa;fill-rule:evenodd;stroke:#1e0000;stroke-width:2.55865;stroke-linecap:round;stroke-linejoin:round;stroke-opacity:1;paint-order:stroke markers fill"
         d="m 737.485,1075.2682 c 0.0982,-15.5302 0.25601,-32.9721 0.35076,-38.7597 l 0.17229,-10.523 8.94449,21.7908 c 4.91947,11.985 8.94449,21.9839 8.94449,22.2198 0,0.2359 -0.97457,-0.057 -2.1657,-0.6514 -2.78065,-1.3872 -6.88143,-0.7761 -8.55768,1.2752 -1.13389,1.3877 -1.23372,3.0202 -1.05229,17.2094 l 0.20045,15.6764 -3.50764,-3e-4 -3.50765,-3e-4 z"
         id="path2650"
         transform="scale(0.26458333)" />
      <path
         style="fill:#87deaa;fill-rule:evenodd;stroke:#1e0000;stroke-width:2.55865;stroke-linecap:round;stroke-linejoin:round;stroke-opacity:1;paint-order:stroke markers fill"
         d="m 756.4647,1087.896 c 0.2029,-15.2584 0.28516,-16.1526 1.27461,-13.8558 0.93551,2.1717 11.12025,27.0359 11.9971,29.2889 0.25894,0.6652 -1.32753,0.877 -6.57365,0.8775 l -6.91496,6e-4 z"
         id="path2689"
         transform="scale(0.26458333)" />
      <path
         style="fill:#87deaa;fill-rule:evenodd;stroke:#1e0000;stroke-width:2.55865;stroke-linecap:round;stroke-linejoin:round;stroke-opacity:1;paint-order:stroke markers fill"
         d="m 527.0314,1040.4242 0.18344,-57.46816 -1.85649,-1.46032 c -2.57423,-2.02489 -6.19029,-1.91178 -8.36368,0.26162 l -1.72194,1.72194 v 56.85572 56.8557 h -6.13837 l -6.13838,10e-5 v -37.8088 c 0,-36.1957 -0.057,-37.8718 -1.3364,-39.2857 -1.81696,-2.0079 -6.03303,-2.008 -7.85012,-1e-4 -1.27906,1.4133 -1.33641,3.0839 -1.33641,38.9348 v 37.4582 h -2.27996 -2.27997 v -14.2727 c 0,-16.8124 0.0891,-16.5946 -6.78642,-16.5946 -6.5706,0 -6.54262,-0.07 -6.54262,16.3658 v 13.7999 h -8.41835 c -4.63009,0 -8.41834,-0.1821 -8.41834,-0.4046 0,-0.3731 36.18895,-79.9205 66.73189,-146.68415 7.09038,-15.49882 13.10566,-27.96849 13.3673,-27.71038 0.26162,0.25812 1.89764,3.94187 3.63558,8.18612 l 3.15991,7.71681 -3.54439,0.37818 c -2.57484,0.27472 -3.9076,0.82672 -4.87219,2.01794 -1.28753,1.59003 -1.32221,4.02003 -1.1435,80.12228 l 0.18431,78.4825 h -4.20917 -4.20918 z"
         id="path2728"
         transform="scale(0.26458333)" />
      <path
         style="fill:#87deaa;fill-rule:evenodd;stroke:#1e0000;stroke-width:2.55865;stroke-linecap:round;stroke-linejoin:round;stroke-opacity:1;paint-order:stroke markers fill"
         d="m 548.59534,1097.9977 c -1.39454,-0.4535 -1.40093,-0.9204 -1.05229,-76.8926 l 0.35076,-76.43641 13.77463,33.29237 13.77462,33.29234 -1.84782,0.5122 c -3.69752,1.0248 -3.60328,-0.1487 -3.60328,44.8705 v 41.9576 l -3.33226,1e-4 -3.33226,10e-5 0.18762,-56.0295 c 0.18232,-54.44643 0.14938,-56.07679 -1.16569,-57.70084 -1.94177,-2.39799 -7.32654,-2.39799 -9.26831,0 -1.31508,1.62405 -1.34802,3.25441 -1.1657,57.70084 0.20303,60.6311 0.4411,56.6562 -3.32002,55.4333 z"
         id="path2767"
         transform="scale(0.26458333)" />
      <path
         style="fill:#87deaa;fill-rule:evenodd;stroke:#1e0000;stroke-width:2.55865;stroke-linecap:round;stroke-linejoin:round;stroke-opacity:1;paint-order:stroke markers fill"
         d="m 578.68601,1098.1856 c 0.2342,-0.6103 0.43487,-18.3678 0.44592,-39.461 l 0.0201,-38.3513 9.09977,22.0419 c 5.00487,12.1231 9.09977,22.3671 9.09977,22.7646 0,0.4297 -0.34128,0.3814 -0.84184,-0.1191 -0.46301,-0.463 -2.46605,-0.8419 -4.45121,-0.8419 -6.23925,0 -6.28218,0.13 -6.28218,19.015 v 16.0615 h -3.75808 c -3.13866,0 -3.68789,-0.1829 -3.33226,-1.1097 z"
         id="path2806"
         transform="scale(0.26458333)" />
      <path
         style="fill:#87deaa;fill-rule:evenodd;stroke:#1e0000;stroke-width:2.55865;stroke-linecap:round;stroke-linejoin:round;stroke-opacity:1;paint-order:stroke markers fill"
         d="m 599.80693,1099.5254 c -1.34845,-0.2694 -1.39567,-0.764 -1.2132,-12.7074 0.30589,-20.021 0.0697,-19.1235 3.08526,-11.7255 1.41547,3.4726 4.31011,10.4967 6.43253,15.609 l 3.85894,9.2953 -5.38024,-0.095 c -2.95913,-0.053 -6.01161,-0.2217 -6.78329,-0.3759 z"
         id="path2884"
         transform="scale(0.26458333)" />
      <path
         style="fill:#00aa00;fill-rule:evenodd;stroke:#1e0000;stroke-width:2.55865;stroke-linecap:round;stroke-linejoin:round;stroke-opacity:1;paint-order:stroke markers fill"
         d="m 748.00484,1103.4482 c -1.10827,-0.6455 -1.22768,-2.165 -1.22768,-15.6227 0,-10.6595 0.23989,-15.1476 0.84183,-15.7495 1.37087,-1.3709 5.31633,-1.0404 6.14877,0.5151 0.43114,0.8055 0.72621,7.0562 0.72621,15.3835 0,11.816 -0.17373,14.2003 -1.1024,15.129 -1.25169,1.2517 -3.57433,1.4003 -5.38673,0.3446 z"
         id="path2960"
         transform="scale(0.26458333)" />
      <path
         style="fill:#00aa00;fill-rule:evenodd;stroke:#1e0000;stroke-width:2.55865;stroke-linecap:round;stroke-linejoin:round;stroke-opacity:1;paint-order:stroke markers fill"
         d="m 731.36821,1102.1475 c -0.47617,-0.8897 -0.72621,-15.0942 -0.72621,-41.2561 0,-32.9799 0.16933,-40.1307 0.97638,-41.2344 0.82957,-1.1346 1.14602,-1.1945 2.10459,-0.399 1.01293,0.8407 1.1282,5.1064 1.1282,41.7496 0,40.5141 -0.10358,42.4968 -2.2202,42.4968 -0.2951,0 -0.86334,-0.6106 -1.26276,-1.3569 z"
         id="path2999"
         transform="scale(0.26458333)" />
      <path
         style="fill:#00aa00;fill-rule:evenodd;stroke:#1e0000;stroke-width:2.55865;stroke-linecap:round;stroke-linejoin:round;stroke-opacity:1;paint-order:stroke markers fill"
         d="m 713.80532,1101.3999 c -1.37847,-1.3785 -1.40306,-2.3385 -1.40306,-54.7654 0,-35.4424 0.24387,-53.81797 0.72621,-54.71922 0.50499,-0.94359 1.47193,-1.35694 3.17424,-1.35694 1.99403,0 2.5773,0.33999 3.14504,1.83327 0.4456,1.17202 0.62912,21.05599 0.50879,55.12669 -0.18306,51.8308 -0.2256,53.3208 -1.54999,54.289 -1.84625,1.3498 -2.9409,1.2529 -4.60123,-0.4074 z"
         id="path3038"
         transform="scale(0.26458333)" />
      <path
         style="fill:#00aa00;fill-rule:evenodd;stroke:#1e0000;stroke-width:2.55865;stroke-linecap:round;stroke-linejoin:round;stroke-opacity:1;paint-order:stroke markers fill"
         d="m 697.2781,1101.8073 c -1.33172,-0.9737 -1.36551,-2.6798 -1.53187,-77.3436 -0.13471,-60.46181 0.0146,-76.71277 0.71779,-78.10166 0.56352,-1.11311 1.60223,-1.83641 2.84326,-1.9799 4.23585,-0.48973 3.97511,-5.68527 3.97511,79.20926 0,76.1601 -0.0279,77.774 -1.35694,78.4853 -1.83629,0.9828 -3.02933,0.9136 -4.64735,-0.2694 z"
         id="path3077"
         transform="scale(0.26458333)" />
      <path
         style="fill:#00aa00;fill-rule:evenodd;stroke:#1e0000;stroke-width:2.55865;stroke-linecap:round;stroke-linejoin:round;stroke-opacity:1;paint-order:stroke markers fill"
         d="m 676.67019,1100.7841 c -1.18664,-2.2173 -1.0317,-110.27035 0.16046,-111.90072 0.63769,-0.87209 1.62938,-1.17297 3.33226,-1.01099 l 2.42439,0.2306 v 56.82381 56.8238 l -2.58485,0.215 c -1.99927,0.1663 -2.75417,-0.1014 -3.33226,-1.1815 z"
         id="path3116"
         transform="scale(0.26458333)" />
      <path
         style="fill:#00aa00;fill-rule:evenodd;stroke:#1e0000;stroke-width:2.55865;stroke-linecap:round;stroke-linejoin:round;stroke-opacity:1;paint-order:stroke markers fill"
         d="m 653.89968,1100.2902 c -0.55623,-1.4495 -0.55623,-72.0962 0,-73.5458 0.59645,-1.5543 3.58467,-1.3886 4.4602,0.2473 0.99914,1.8669 0.99914,71.1843 0,73.0512 -0.87553,1.6359 -3.86375,1.8016 -4.4602,0.2473 z"
         id="path3155"
         transform="scale(0.26458333)" />
      <path
         style="fill:#00aa00;fill-rule:evenodd;stroke:#1e0000;stroke-width:2.55865;stroke-linecap:round;stroke-linejoin:round;stroke-opacity:1;paint-order:stroke markers fill"
         d="m 636.07595,1099.8565 c -1.18427,-1.1843 -1.18427,-25.1932 0,-26.3775 0.46301,-0.463 2.20711,-0.8418 3.87577,-0.8418 4.07513,0 4.40227,1.0426 4.40227,14.0306 0,12.9879 -0.32714,14.0305 -4.40227,14.0305 -1.66866,0 -3.41276,-0.3788 -3.87577,-0.8418 z"
         id="path3194"
         transform="scale(0.26458333)" />
      <path
         style="fill:#00aa00;fill-rule:evenodd;stroke:#1e0000;stroke-width:2.55865;stroke-linecap:round;stroke-linejoin:round;stroke-opacity:1;paint-order:stroke markers fill"
         d="m 589.07354,1098.4534 c -0.88926,-0.8892 -1.26279,-28.1121 -0.41602,-30.3188 0.59525,-1.5512 6.26993,-1.5512 6.86518,0 0.2342,0.6103 0.42582,7.4923 0.42582,15.2933 0,15.4171 -0.10948,15.8674 -3.85841,15.8674 -1.19611,0 -2.55356,-0.3789 -3.01657,-0.8419 z"
         id="path3233"
         transform="scale(0.26458333)" />
      <path
         style="fill:#00aa00;fill-rule:evenodd;stroke:#1e0000;stroke-width:2.55865;stroke-linecap:round;stroke-linejoin:round;stroke-opacity:1;paint-order:stroke markers fill"
         d="m 572.78071,1096.7942 c -0.95943,-2.5235 -0.91963,-79.23 0.0421,-81.027 1.01722,-1.9006 2.68982,-1.6892 3.50032,0.4426 0.41436,1.0898 0.68417,16.9795 0.68417,40.2922 0,23.3128 -0.26981,39.2024 -0.68417,40.2922 -0.37629,0.9898 -1.17332,1.7995 -1.77118,1.7995 -0.59786,0 -1.3949,-0.8097 -1.77119,-1.7995 z"
         id="path3272"
         transform="scale(0.26458333)" />
      <path
         style="fill:#00aa00;fill-rule:evenodd;stroke:#1e0000;stroke-width:2.55865;stroke-linecap:round;stroke-linejoin:round;stroke-opacity:1;paint-order:stroke markers fill"
         d="m 555.40017,1097.0504 c -1.2189,-1.2189 -1.2189,-109.34203 0,-110.56093 1.33393,-1.33393 4.62418,-1.0228 5.44724,0.51511 1.0061,1.87991 1.0061,107.65082 0,109.53072 -0.82306,1.5379 -4.11331,1.849 -5.44724,0.5151 z"
         id="path3311"
         transform="scale(0.26458333)" />
      <path
         style="fill:#00aa00;fill-rule:evenodd;stroke:#1e0000;stroke-width:2.55865;stroke-linecap:round;stroke-linejoin:round;stroke-opacity:1;paint-order:stroke markers fill"
         d="m 538.56348,1097.0504 c -0.64453,-0.6446 -0.84183,-18.8818 -0.84183,-77.8123 0,-42.33377 0.19162,-77.46983 0.42582,-78.08015 0.64833,-1.68952 5.62864,-1.50193 6.56478,0.24727 0.97108,1.81448 1.01194,152.13648 0.042,154.68748 -0.54507,1.4336 -1.15839,1.7995 -3.01658,1.7995 -1.28282,0 -2.71123,-0.3788 -3.17424,-0.8418 z"
         id="path3350"
         transform="scale(0.26458333)" />
      <path
         style="fill:#00aa00;fill-rule:evenodd;stroke:#1e0000;stroke-width:2.55865;stroke-linecap:round;stroke-linejoin:round;stroke-opacity:1;paint-order:stroke markers fill"
         d="m 518.54653,1096.723 c -0.25722,-0.2572 -0.46768,-25.607 -0.46768,-56.3328 0,-42.51518 0.20117,-56.06618 0.84183,-56.70684 1.33394,-1.33394 4.62418,-1.0228 5.44724,0.5151 0.78538,1.46749 1.0764,109.86034 0.30039,111.88254 -0.43111,1.1235 -5.14586,1.6179 -6.12178,0.642 z"
         id="path3389"
         transform="scale(0.26458333)" />
      <path
         style="fill:#00aa00;fill-rule:evenodd;stroke:#1e0000;stroke-width:2.55865;stroke-linecap:round;stroke-linejoin:round;stroke-opacity:1;paint-order:stroke markers fill"
         d="m 495.35422,1095.3795 c -0.76953,-2.0054 -0.48336,-71.834 0.3004,-73.2985 0.93431,-1.7458 3.22549,-1.7458 4.1598,0 0.78376,1.4645 1.06993,71.2931 0.30039,73.2985 -0.24729,0.6444 -1.24522,1.1097 -2.38029,1.1097 -1.13507,0 -2.133,-0.4653 -2.3803,-1.1097 z"
         id="path3428"
         transform="scale(0.26458333)" />
      <path
         style="fill:#00aa00;fill-rule:evenodd;stroke:#1e0000;stroke-width:2.55865;stroke-linecap:round;stroke-linejoin:round;stroke-opacity:1;paint-order:stroke markers fill"
         d="m 478.79325,1095.9778 c -0.57876,-0.2203 -1.28423,-0.7478 -1.5677,-1.1723 -0.28347,-0.4244 -0.52024,-6.1948 -0.52615,-12.823 -0.012,-13.4529 0.2443,-14.256 4.5492,-14.256 4.30863,0 4.55993,0.7926 4.55993,14.3813 0,10.1342 -0.1849,12.3614 -1.1024,13.2789 -1.08968,1.0897 -3.8723,1.3679 -5.91288,0.5911 z"
         id="path3467"
         transform="scale(0.26458333)" />
    </g>
  </g>
</svg>
