<?xml version="1.0" encoding="UTF-8" standalone="no"?>
<!-- Created with Inkscape (http://www.inkscape.org/) -->

<svg
   width="210mm"
   height="297mm"
   viewBox="0 0 210 297"
   version="1.1"
   id="svg5"
   inkscape:version="1.1.1 (3bf5ae0d25, 2021-09-20)"
   sodipodi:docname="triangle wavform osc.svg"
   xmlns:inkscape="http://www.inkscape.org/namespaces/inkscape"
   xmlns:sodipodi="http://sodipodi.sourceforge.net/DTD/sodipodi-0.dtd"
   xmlns="http://www.w3.org/2000/svg"
   xmlns:svg="http://www.w3.org/2000/svg">
  <sodipodi:namedview
     id="namedview7"
     pagecolor="#ffffff"
     bordercolor="#666666"
     borderopacity="1.0"
     inkscape:pageshadow="2"
     inkscape:pageopacity="0.0"
     inkscape:pagecheckerboard="0"
     inkscape:document-units="mm"
     showgrid="false"
     inkscape:zoom="1.4254587"
     inkscape:cx="549.29687"
     inkscape:cy="85.235721"
     inkscape:window-width="1680"
     inkscape:window-height="956"
     inkscape:window-x="-11"
     inkscape:window-y="-11"
     inkscape:window-maximized="1"
     inkscape:current-layer="layer1" />
  <defs
     id="defs2">
    <inkscape:path-effect
       effect="spiro"
       id="path-effect1114"
       is_visible="true"
       lpeversion="1" />
    <inkscape:path-effect
       effect="spiro"
       id="path-effect865"
       is_visible="true"
       lpeversion="1" />
    <inkscape:path-effect
       effect="spiro"
       id="path-effect859"
       is_visible="true"
       lpeversion="1" />
  </defs>
  <g
     inkscape:label="Layer 1"
     inkscape:groupmode="layer"
     id="layer1">
    <path
       id="path2214"
       style="fill:none;stroke:#000000;stroke-width:0.489705;stroke-linecap:round;stroke-linejoin:round;stroke-opacity:0.955017;paint-order:stroke markers fill"
       d="m 53.334485,46.231069 h 1.28404 c 0.47424,0 0.85603,0.50745 0.85603,1.13779 v 5.87859 c 0,0.63033 -0.38179,1.13779 -0.85603,1.13779 h -1.28404 c -0.47424,0 -0.85603,-0.50746 -0.85603,-1.13779 v -5.87859 c 0,-0.63034 0.38179,-1.13779 0.85603,-1.13779 z m 4.844274,-12.46916 h 0.28535 c 0.51376,0 0.92736,0.54974 0.92736,1.2326 v 18.39429 c 0,0.68287 -0.4136,1.23261 -0.92736,1.23261 h -0.28535 c -0.51376,0 -0.92736,-0.54974 -0.92736,-1.23261 v -18.39429 c 0,-0.68286 0.4136,-1.2326 0.92736,-1.2326 z m 6.03506,-10.050492 h 0.71597 c 0.51376,0 0.92736,0.54974 0.92736,1.23261 v 28.634412 c 0,0.68286 -0.4136,1.2326 -0.92736,1.2326 h -0.71597 c -0.51376,0 -0.92737,-0.54974 -0.92737,-1.2326 V 24.944027 c 0,-0.68287 0.41361,-1.23261 0.92737,-1.23261 z m 14.423584,8.281322 h 0.0293 c 0.49216,0 0.88836,0.52662 0.88836,1.18077 v 20.70887 c 0,0.65414 -0.3962,1.18077 -0.88836,1.18077 h -0.0293 c -0.49215,0 -0.88836,-0.52663 -0.88836,-1.18077 v -20.70887 c 0,-0.65415 0.39621,-1.18077 0.88836,-1.18077 z m -4.764814,-7.522792 h 0.71336 c 0.51376,0 0.927364,0.54974 0.927364,1.2326 v 27.875892 c 0,0.68286 -0.413604,1.2326 -0.927364,1.2326 h -0.71336 c -0.51376,0 -0.92736,-0.54974 -0.92736,-1.2326 V 25.702547 c 0,-0.68286 0.4136,-1.2326 0.92736,-1.2326 z m -4.42281,-12.136438 h 0.85603 c 0.51376,0 0.92736,0.549742 0.92736,1.232606 v 40.012324 c 0,0.68286 -0.4136,1.2326 -0.92736,1.2326 h -0.85603 c -0.51375,0 -0.92735,-0.54974 -0.92735,-1.2326 V 13.566115 c 0,-0.682864 0.4136,-1.232606 0.92735,-1.232606 z M 89.067073,55.379929 68.114439,54.809519 47.163085,54.161299 58.011059,30.328339 68.909089,6.5357645 79.013753,30.939129 Z m -6.27753,-9.48159 h 0.9987 c 0.47424,0 0.85602,0.50746 0.85602,1.1378 v 7.01637 c 0,0.63034 -0.38178,1.1378 -0.85602,1.1378 h -0.9987 c -0.47424,0 -0.85603,-0.50746 -0.85603,-1.1378 v -7.01637 c 0,-0.63034 0.38179,-1.1378 0.85603,-1.1378 z m -71.359038,-0.88591 h 1.28404 c 0.47424,0 0.85603,0.50746 0.85603,1.1378 v 5.87859 c 0,0.63033 -0.38179,1.13778 -0.85603,1.13778 h -1.28404 c -0.47424,0 -0.85603,-0.50745 -0.85603,-1.13778 v -5.87859 c 0,-0.63034 0.38179,-1.1378 0.85603,-1.1378 z m 4.84427,-12.46916 h 0.28535 c 0.51376,0 0.92736,0.54975 0.92736,1.23261 v 18.39429 c 0,0.68286 -0.4136,1.2326 -0.92736,1.2326 h -0.28535 c -0.51375,0 -0.92736,-0.54974 -0.92736,-1.2326 v -18.39429 c 0,-0.68286 0.41361,-1.23261 0.92736,-1.23261 z m 6.03506,-10.050482 h 0.71597 c 0.51376,0 0.92736,0.54974 0.92736,1.2326 v 28.634412 c 0,0.68287 -0.4136,1.23261 -0.92736,1.23261 h -0.71597 c -0.51376,0 -0.92736,-0.54974 -0.92736,-1.23261 V 23.725387 c 0,-0.68286 0.4136,-1.2326 0.92736,-1.2326 z m 14.42359,8.281322 h 0.0293 c 0.49215,0 0.88836,0.52662 0.88836,1.18077 v 20.70887 c 0,0.65414 -0.39621,1.18076 -0.88836,1.18076 h -0.0293 c -0.49216,0 -0.88836,-0.52662 -0.88836,-1.18076 v -20.70887 c 0,-0.65415 0.3962,-1.18077 0.88836,-1.18077 z m -4.76482,-7.522792 h 0.71336 c 0.51376,0 0.92736,0.54974 0.92736,1.2326 v 27.875882 c 0,0.68287 -0.4136,1.23261 -0.92736,1.23261 h -0.71336 c -0.51376,0 -0.92736,-0.54974 -0.92736,-1.23261 V 24.483917 c 0,-0.68286 0.4136,-1.2326 0.92736,-1.2326 z m -4.4228,-12.13644 h 0.85602 c 0.51376,0 0.92737,0.549742 0.92737,1.232606 v 40.012316 c 0,0.68287 -0.41361,1.23261 -0.92737,1.23261 h -0.85602 c -0.51376,0 -0.92737,-0.54974 -0.92737,-1.23261 V 12.347483 c 0,-0.682864 0.41361,-1.232606 0.92737,-1.232606 z M 47.163085,54.161299 26.210455,53.590889 5.2591052,52.942669 16.107075,29.109709 27.005115,5.3171325 37.109775,29.720499 Z m -6.27753,-9.48159 h 0.9987 c 0.47424,0 0.85603,0.50746 0.85603,1.1378 v 7.01637 c 0,0.63034 -0.38179,1.1378 -0.85603,1.1378 h -0.9987 c -0.47424,0 -0.85603,-0.50746 -0.85603,-1.1378 v -7.01637 c 0,-0.63034 0.38179,-1.1378 0.85603,-1.1378 z" />
    <g
       id="g1891"
       transform="translate(-2.412966,-31.925396)">
      <path
         id="path825"
         style="fill:none;stroke:#000000;stroke-width:0.489705;stroke-linecap:round;stroke-linejoin:round;stroke-opacity:0.955017;paint-order:stroke markers fill"
         d="m 173.57912,78.098021 h 1.28404 c 0.47424,0 0.85603,0.50745 0.85603,1.13779 v 5.87859 c 0,0.63033 -0.38179,1.13779 -0.85603,1.13779 h -1.28404 c -0.47424,0 -0.85603,-0.50746 -0.85603,-1.13779 v -5.87859 c 0,-0.63034 0.38179,-1.13779 0.85603,-1.13779 z m 4.84427,-12.46916 h 0.28535 c 0.51376,0 0.92736,0.54974 0.92736,1.2326 v 18.39429 c 0,0.68287 -0.4136,1.23261 -0.92736,1.23261 h -0.28535 c -0.51376,0 -0.92736,-0.54974 -0.92736,-1.23261 v -18.39429 c 0,-0.68286 0.4136,-1.2326 0.92736,-1.2326 z m 6.03506,-10.050492 h 0.71597 c 0.51376,0 0.92736,0.54974 0.92736,1.23261 v 28.634412 c 0,0.68286 -0.4136,1.2326 -0.92736,1.2326 h -0.71597 c -0.51376,0 -0.92737,-0.54974 -0.92737,-1.2326 V 56.810979 c 0,-0.68287 0.41361,-1.23261 0.92737,-1.23261 z m 14.42359,8.281322 h 0.0293 c 0.49216,0 0.88836,0.52662 0.88836,1.18077 v 20.70887 c 0,0.65414 -0.3962,1.18077 -0.88836,1.18077 h -0.0293 c -0.49215,0 -0.88836,-0.52663 -0.88836,-1.18077 v -20.70887 c 0,-0.65415 0.39621,-1.18077 0.88836,-1.18077 z m -4.76482,-7.522792 h 0.71336 c 0.51376,0 0.92737,0.54974 0.92737,1.2326 v 27.875892 c 0,0.68286 -0.41361,1.2326 -0.92737,1.2326 h -0.71336 c -0.51376,0 -0.92736,-0.54974 -0.92736,-1.2326 V 57.569499 c 0,-0.68286 0.4136,-1.2326 0.92736,-1.2326 z m -4.42281,-12.136438 h 0.85603 c 0.51376,0 0.92736,0.549742 0.92736,1.232606 v 40.012324 c 0,0.68286 -0.4136,1.2326 -0.92736,1.2326 h -0.85603 c -0.51375,0 -0.92735,-0.54974 -0.92735,-1.2326 V 45.433067 c 0,-0.682864 0.4136,-1.232606 0.92735,-1.232606 z m 19.6173,43.04642 -20.95264,-0.57041 -20.95135,-0.64822 10.84797,-23.83296 10.89803,-23.792574 10.10467,24.403364 z m -6.27753,-9.48159 h 0.9987 c 0.47424,0 0.85602,0.50746 0.85602,1.1378 v 7.01637 c 0,0.63034 -0.38178,1.1378 -0.85602,1.1378 h -0.9987 c -0.47424,0 -0.85603,-0.50746 -0.85603,-1.1378 v -7.01637 c 0,-0.63034 0.38179,-1.1378 0.85603,-1.1378 z m -71.35904,-0.88591 h 1.28404 c 0.47424,0 0.85603,0.50746 0.85603,1.1378 v 5.87859 c 0,0.63033 -0.38179,1.13778 -0.85603,1.13778 h -1.28404 c -0.47424,0 -0.85603,-0.50745 -0.85603,-1.13778 v -5.87859 c 0,-0.63034 0.38179,-1.1378 0.85603,-1.1378 z m 4.84427,-12.46916 h 0.28535 c 0.51376,0 0.92736,0.54975 0.92736,1.23261 v 18.39429 c 0,0.68286 -0.4136,1.2326 -0.92736,1.2326 h -0.28535 c -0.51375,0 -0.92736,-0.54974 -0.92736,-1.2326 v -18.39429 c 0,-0.68286 0.41361,-1.23261 0.92736,-1.23261 z m 6.03506,-10.050482 h 0.71597 c 0.51376,0 0.92736,0.54974 0.92736,1.2326 v 28.634412 c 0,0.68287 -0.4136,1.23261 -0.92736,1.23261 h -0.71597 c -0.51376,0 -0.92736,-0.54974 -0.92736,-1.23261 V 55.592339 c 0,-0.68286 0.4136,-1.2326 0.92736,-1.2326 z m 14.42359,8.281322 h 0.0293 c 0.49215,0 0.88836,0.52662 0.88836,1.18077 v 20.70887 c 0,0.65414 -0.39621,1.18076 -0.88836,1.18076 h -0.0293 c -0.49216,0 -0.88836,-0.52662 -0.88836,-1.18076 v -20.70887 c 0,-0.65415 0.3962,-1.18077 0.88836,-1.18077 z m -4.76482,-7.522792 h 0.71336 c 0.51376,0 0.92736,0.54974 0.92736,1.2326 v 27.875882 c 0,0.68287 -0.4136,1.23261 -0.92736,1.23261 h -0.71336 c -0.51376,0 -0.92736,-0.54974 -0.92736,-1.23261 V 56.350869 c 0,-0.68286 0.4136,-1.2326 0.92736,-1.2326 z m -4.4228,-12.13644 h 0.85602 c 0.51376,0 0.92737,0.549742 0.92737,1.232606 v 40.012316 c 0,0.68287 -0.41361,1.23261 -0.92737,1.23261 h -0.85602 c -0.51376,0 -0.92737,-0.54974 -0.92737,-1.23261 V 44.214435 c 0,-0.682864 0.41361,-1.232606 0.92737,-1.232606 z m 19.61728,43.046422 -20.95263,-0.57041 -20.95135,-0.64822 10.84797,-23.83296 10.89804,-23.792576 10.10466,24.403366 z m -6.27753,-9.48159 h 0.9987 c 0.47424,0 0.85603,0.50746 0.85603,1.1378 v 7.01637 c 0,0.63034 -0.38179,1.1378 -0.85603,1.1378 h -0.9987 c -0.47424,0 -0.85603,-0.50746 -0.85603,-1.1378 v -7.01637 c 0,-0.63034 0.38179,-1.1378 0.85603,-1.1378 z" />
      <path
         style="fill:#000000;stroke:#000000;stroke-width:1.9727;stroke-linecap:round;stroke-linejoin:round;stroke-opacity:0.955017;paint-order:stroke markers fill"
         d="m 654.66275,323.6362 c -0.89835,-0.89835 -0.72727,-24.56816 0.188,-26.01178 0.46644,-0.73568 2.02573,-1.1039 3.91199,-0.92379 l 3.13641,0.29948 0.25564,13.62597 0.25565,13.62598 h -3.56591 c -1.96125,0 -3.84305,-0.27714 -4.18178,-0.61586 z"
         id="path1055"
         transform="scale(0.26458333)" />
      <path
         style="fill:#000000;stroke:#000000;stroke-width:1.9727;stroke-linecap:round;stroke-linejoin:round;stroke-opacity:0.955017;paint-order:stroke markers fill"
         d="m 672.97096,324.08751 c -0.25851,-0.67368 -0.36118,-17.6445 -0.22815,-37.71292 0.23726,-35.79154 0.27714,-36.48803 2.08947,-36.48803 1.81716,0 1.84759,0.61586 1.84759,37.40105 0,34.91015 -0.10786,37.42181 -1.61944,37.71292 -0.89069,0.17153 -1.83095,-0.23933 -2.08947,-0.91302 z"
         id="path1094"
         transform="scale(0.26458333)" />
      <path
         style="fill:#000000;stroke:#000000;stroke-width:1.9727;stroke-linecap:round;stroke-linejoin:round;stroke-opacity:0.955017;paint-order:stroke markers fill"
         d="m 695.65017,324.31279 c -1.3194,-2.46531 -1.3194,-108.51155 0,-110.97687 1.15292,-2.15425 5.0879,-2.3724 5.87333,-0.32561 0.73257,1.90906 0.73257,109.71903 0,111.62809 -0.78543,2.0468 -4.72041,1.82864 -5.87333,-0.32561 z"
         id="path1172"
         transform="scale(0.26458333)" />
      <path
         style="fill:#000000;stroke:#000000;stroke-width:1.9727;stroke-linecap:round;stroke-linejoin:round;stroke-opacity:0.955017;paint-order:stroke markers fill"
         d="m 715.44265,324.94491 c -0.24229,-0.63511 -0.33317,-35.82107 -0.20196,-78.19102 0.22363,-72.2131 0.33979,-77.10011 1.85521,-78.05595 1.17911,-0.74372 2.05417,-0.74372 3.23328,0 1.51492,0.95552 1.63264,5.80876 1.87083,77.13216 0.13981,41.86186 0.028,77.04781 -0.24855,78.19101 -0.38318,1.58425 -1.16449,2.07854 -3.28551,2.07854 -1.53053,0 -2.98101,-0.51964 -3.2233,-1.15474 z"
         id="path1211"
         transform="scale(0.26458333)" />
      <path
         style="fill:#000000;stroke:#000000;stroke-width:1.9727;stroke-linecap:round;stroke-linejoin:round;stroke-opacity:0.955017;paint-order:stroke markers fill"
         d="m 732.09357,325.00677 c -0.25597,-0.66913 -0.35754,-25.74337 -0.2257,-55.72052 l 0.2397,-54.5039 h 2.77139 2.77138 v 55.4277 55.4277 l -2.54569,0.29282 c -1.48632,0.17096 -2.73936,-0.21347 -3.01108,-0.9238 z"
         id="path1289"
         transform="scale(0.26458333)" />
      <path
         style="fill:#000000;stroke:#000000;stroke-width:1.9727;stroke-linecap:round;stroke-linejoin:round;stroke-opacity:0.955017;paint-order:stroke markers fill"
         d="m 608.0816,322.25941 c -1.33435,-1.33435 -1.6372,-28.13859 -0.34103,-30.1832 0.44243,-0.6979 1.93291,-1.09699 3.45009,-0.9238 l 2.67114,0.30493 v 15.70451 15.70452 l -2.31597,0.27065 c -1.27379,0.14885 -2.83269,-0.24607 -3.46423,-0.87761 z"
         id="path1445"
         transform="scale(0.26458333)" />
      <path
         style="fill:#000000;stroke:#000000;stroke-width:1.49807;stroke-linecap:round;stroke-linejoin:round;stroke-opacity:0.955017;paint-order:stroke markers fill"
         d="m 592.23041,321.86131 c -1.33497,-1.33499 -1.20284,-82.16866 0.13614,-83.27991 0.75507,-0.62666 1.23474,-0.55487 2.10458,0.31497 1.00812,1.00811 1.12662,5.33224 1.12662,41.10976 0,42.56224 -0.19809,45.02442 -3.36734,41.85518 z"
         id="path1484"
         transform="scale(0.26458333)" />
      <path
         style="fill:#000000;stroke:#000000;stroke-width:1.49807;stroke-linecap:round;stroke-linejoin:round;stroke-opacity:0.955017;paint-order:stroke markers fill"
         d="m 574.25124,320.89921 c -0.98315,-0.98315 -1.1024,-6.96305 -1.1024,-55.28045 0,-41.20311 0.20161,-54.37966 0.84183,-55.01988 0.46301,-0.46301 1.66262,-0.84184 2.66581,-0.84184 1.00319,0 2.2028,0.37883 2.66581,0.84184 0.64023,0.64022 0.84183,13.81677 0.84183,55.01988 0,48.3174 -0.11925,54.2973 -1.1024,55.28045 -0.60632,0.60632 -1.68868,1.1024 -2.40524,1.1024 -0.71656,0 -1.79892,-0.49608 -2.40524,-1.1024 z"
         id="path1523"
         transform="scale(0.26458333)" />
      <path
         style="fill:#000000;stroke:#000000;stroke-width:1.49807;stroke-linecap:round;stroke-linejoin:round;stroke-opacity:0.955017;paint-order:stroke markers fill"
         d="m 557.41455,320.89921 c -0.9888,-0.98881 -1.1024,-9.04395 -1.1024,-78.17033 0,-84.13941 -0.23687,-79.27272 3.85841,-79.27272 4.09528,0 3.85841,-4.86669 3.85841,79.27272 0,84.13942 0.23687,79.27273 -3.85841,79.27273 -0.90948,0 -2.14968,-0.49608 -2.75601,-1.1024 z"
         id="path1562"
         transform="scale(0.26458333)" />
      <path
         style="fill:#000000;stroke:#000000;stroke-width:1.49807;stroke-linecap:round;stroke-linejoin:round;stroke-opacity:0.955017;paint-order:stroke markers fill"
         d="m 496.29303,318.99754 c -0.18984,-0.49471 -0.25886,-6.72955 -0.15337,-13.85519 l 0.1918,-12.9557 3.03334,-0.21825 c 4.95945,-0.35684 5.03424,-0.15515 5.03424,13.57581 0,6.67341 -0.19162,12.63283 -0.42582,13.24315 -0.54084,1.40941 -7.15059,1.5903 -7.68019,0.21018 z"
         id="path1601"
         transform="scale(0.26458333)" />
      <path
         style="fill:#000000;stroke:#000000;stroke-width:1.49807;stroke-linecap:round;stroke-linejoin:round;stroke-opacity:0.955017;paint-order:stroke markers fill"
         d="m 514.26762,319.28366 c -1.01996,-1.90582 -1.04129,-71.18962 -0.0225,-73.09325 0.84309,-1.57532 2.9586,-1.78175 4.1049,-0.40055 0.57355,0.69109 0.74333,11.15096 0.61204,37.70716 l -0.18169,36.75077 -1.88202,0.21742 c -1.3091,0.15125 -2.10993,-0.20844 -2.63073,-1.18155 z"
         id="path1640"
         transform="scale(0.26458333)" />
      <path
         style="fill:#000000;stroke:#000000;stroke-width:1.49807;stroke-linecap:round;stroke-linejoin:round;stroke-opacity:0.955017;paint-order:stroke markers fill"
         d="m 537.09517,320.19041 c -0.55645,-1.45008 -0.55645,-110.67973 0,-112.12981 0.50944,-1.32757 4.50186,-1.51362 5.74763,-0.26784 0.6405,0.6405 0.84184,14.049 0.84184,56.06491 0,30.37269 -0.19162,55.72243 -0.42582,56.33274 -0.28454,0.7415 -1.30705,1.10967 -3.08182,1.10967 -1.77478,0 -2.79729,-0.36817 -3.08183,-1.10967 z"
         id="path1679"
         transform="scale(0.26458333)" />
      <path
         style="fill:#000000;stroke:#000000;stroke-width:1.49807;stroke-linecap:round;stroke-linejoin:round;stroke-opacity:0.955017;paint-order:stroke markers fill"
         d="m 750.40172,326.44462 c -0.25723,-0.25722 -0.46768,-19.05056 -0.46768,-41.76296 0,-37.67355 0.10118,-41.33411 1.15374,-41.73801 2.96656,-1.13838 3.05543,0.0746 3.05543,41.70639 0,25.92014 -0.25025,40.01599 -0.72621,40.90533 -0.72584,1.35624 -2.13323,1.77131 -3.01528,0.88925 z"
         id="path1718"
         transform="scale(0.26458333)" />
      <path
         style="fill:#000000;stroke:#000000;stroke-width:1.49807;stroke-linecap:round;stroke-linejoin:round;stroke-opacity:0.955017;paint-order:stroke markers fill"
         d="m 766.2095,326.77201 c -1.19082,-1.19083 -1.19082,-29.39583 0,-30.58665 1.26539,-1.26539 5.93523,-1.07145 6.44916,0.26784 0.5553,1.44708 0.5553,28.60388 0,30.05097 -0.51393,1.33929 -5.18377,1.53322 -6.44916,0.26784 z"
         id="path1757"
         transform="scale(0.26458333)" />
    </g>
  </g>
</svg>
