<?xml version="1.0" encoding="UTF-8" standalone="no"?>
<!-- Created with Inkscape (http://www.inkscape.org/) -->

<svg
   width="210mm"
   height="297mm"
   viewBox="0 0 210 297"
   version="1.1"
   id="svg5"
   inkscape:version="1.2.2 (b0a8486541, 2022-12-01)"
   sodipodi:docname="wavetabe osc icon svg.svg"
   inkscape:export-filename="C:\Users\steven\Desktop\instrument combiner svg.png"
   inkscape:export-xdpi="96"
   inkscape:export-ydpi="96"
   xmlns:inkscape="http://www.inkscape.org/namespaces/inkscape"
   xmlns:sodipodi="http://sodipodi.sourceforge.net/DTD/sodipodi-0.dtd"
   xmlns="http://www.w3.org/2000/svg"
   xmlns:svg="http://www.w3.org/2000/svg">
  <sodipodi:namedview
     id="namedview7"
     pagecolor="#ffffff"
     bordercolor="#666666"
     borderopacity="1.0"
     inkscape:pageshadow="2"
     inkscape:pageopacity="0.0"
     inkscape:pagecheckerboard="0"
     inkscape:document-units="mm"
     showgrid="false"
     inkscape:zoom="1.1476306"
     inkscape:cx="524.55903"
     inkscape:cy="240.93118"
     inkscape:window-width="1680"
     inkscape:window-height="956"
     inkscape:window-x="-11"
     inkscape:window-y="-11"
     inkscape:window-maximized="1"
     inkscape:current-layer="layer5"
     inkscape:showpageshadow="2"
     inkscape:deskcolor="#d1d1d1"
     inkscape:lockguides="true" />
  <defs
     id="defs2">
    <inkscape:path-effect
       effect="spiro"
       id="path-effect1297"
       is_visible="true"
       lpeversion="1" />
    <inkscape:path-effect
       effect="spiro"
       id="path-effect1285"
       is_visible="true"
       lpeversion="1" />
    <inkscape:path-effect
       effect="skeletal"
       id="path-effect8275"
       is_visible="true"
       lpeversion="1"
       pattern="m -43.33607,-14.162937 c -1.64377,-1.422839 -2.57962,-3.037659 -2.08896,-3.604509 0.49067,-0.56685 2.22296,0.12787 3.86673,1.55071 1.64376,1.422849 2.57961,3.037669 2.08895,3.604519 -0.49066,0.56684 -2.22295,-0.12788 -3.86672,-1.55072 z"
       copytype="single_stretched"
       prop_scale="1"
       scale_y_rel="false"
       spacing="0"
       normal_offset="0"
       tang_offset="0"
       prop_units="false"
       vertical_pattern="false"
       hide_knot="false"
       fuse_tolerance="0" />
    <inkscape:path-effect
       effect="spiro"
       id="path-effect8271"
       is_visible="true"
       lpeversion="1" />
    <inkscape:path-effect
       effect="skeletal"
       id="path-effect8261"
       is_visible="true"
       lpeversion="1"
       pattern="m -138.8593,-25.119331 c -1.64377,-1.42284 -2.57962,-3.03766 -2.08896,-3.60451 0.49067,-0.56685 2.22296,0.12787 3.86673,1.55071 1.64376,1.42285 2.57961,3.03767 2.08895,3.60452 -0.49066,0.56684 -2.22295,-0.12788 -3.86672,-1.55072 z"
       copytype="single_stretched"
       prop_scale="1"
       scale_y_rel="false"
       spacing="0"
       normal_offset="0"
       tang_offset="0"
       prop_units="false"
       vertical_pattern="false"
       hide_knot="false"
       fuse_tolerance="0" />
    <inkscape:path-effect
       effect="spiro"
       id="path-effect8257"
       is_visible="true"
       lpeversion="1" />
    <inkscape:path-effect
       effect="skeletal"
       id="path-effect8247"
       is_visible="true"
       lpeversion="1"
       pattern="m -40.697539,122.60168 c -1.64377,-1.42284 -2.57962,-3.03766 -2.08896,-3.60451 0.49067,-0.56685 2.22296,0.12787 3.86673,1.55071 1.64376,1.42285 2.57961,3.03767 2.08895,3.60452 -0.49066,0.56684 -2.22295,-0.12788 -3.86672,-1.55072 z"
       copytype="single_stretched"
       prop_scale="1"
       scale_y_rel="false"
       spacing="0"
       normal_offset="0"
       tang_offset="0"
       prop_units="false"
       vertical_pattern="false"
       hide_knot="false"
       fuse_tolerance="0" />
    <inkscape:path-effect
       effect="spiro"
       id="path-effect8243"
       is_visible="true"
       lpeversion="1" />
    <inkscape:path-effect
       effect="skeletal"
       id="path-effect8146"
       is_visible="true"
       lpeversion="1"
       pattern="m -135.53214,122.92425 c -1.64377,-1.42284 -2.57962,-3.03766 -2.08896,-3.60451 0.49067,-0.56685 2.22296,0.12787 3.86673,1.55071 1.64376,1.42285 2.57961,3.03767 2.08895,3.60452 -0.49066,0.56684 -2.22295,-0.12788 -3.86672,-1.55072 z"
       copytype="single_stretched"
       prop_scale="1"
       scale_y_rel="false"
       spacing="0"
       normal_offset="0"
       tang_offset="0"
       prop_units="false"
       vertical_pattern="false"
       hide_knot="false"
       fuse_tolerance="0" />
    <inkscape:path-effect
       effect="spiro"
       id="path-effect8144"
       is_visible="true"
       lpeversion="1" />
    <inkscape:path-effect
       effect="skeletal"
       id="path-effect8048"
       is_visible="true"
       lpeversion="1"
       pattern="M 0,4.9921382 C 0,2.2364779 2.2364779,0 4.9921382,0 c 2.7556604,0 4.9921383,2.2364779 4.9921383,4.9921382 0,2.7556604 -2.2364779,4.9921383 -4.9921383,4.9921383 C 2.2364779,9.9842765 0,7.7477986 0,4.9921382 Z"
       copytype="single_stretched"
       prop_scale="1"
       scale_y_rel="false"
       spacing="0"
       normal_offset="0"
       tang_offset="0"
       prop_units="false"
       vertical_pattern="false"
       hide_knot="false"
       fuse_tolerance="0" />
  </defs>
  <g
     inkscape:label="Layer 1"
     inkscape:groupmode="layer"
     id="layer1"
     style="display:inline">
    <path
       style="fill:#4d4d4d;stroke-width:4.14681;stroke-linecap:round;stroke-linejoin:round;stroke-dasharray:1.0367, 1.0367;stroke-opacity:0.955017;paint-order:stroke markers fill"
       d=""
       id="path1727"
       transform="scale(0.26458333)" />
    <path
       style="fill:#00ffff;fill-opacity:1;stroke-width:2.92716;stroke-linecap:round;stroke-linejoin:round;stroke-dasharray:0.731791, 0.731791;stroke-opacity:0.955017;paint-order:stroke markers fill"
       d=""
       id="path5675"
       transform="scale(0.26458333)" />
    <path
       style="fill:#00ffff;fill-opacity:1;stroke-width:2.21711;stroke-linecap:round;stroke-linejoin:round;stroke-dasharray:0.554277, 0.554277;stroke-opacity:0.955017;paint-order:stroke markers fill"
       d=""
       id="path5751"
       transform="scale(0.26458333)" />
    <g
       id="g3963"
       transform="translate(358.58314,-16.438919)">
      <g
         id="g3650">
        <path
           id="path3324"
           style="fill:none;stroke:#000000;stroke-width:1.065;stroke-linecap:butt;stroke-linejoin:miter;stroke-miterlimit:4;stroke-dasharray:none;stroke-opacity:1"
           d="m 45.965758,367.30347 -7.763571,65.68902 v 0 m -231.422767,-2.02031 c 0.28444,3.18035 -0.3552,3.00537 0,0 m 62.33486,6.44603 c 10.30257,0.325 28.21987,-22.24938 36.432305,-23.78832 17.10927,-3.20614 54.055196,-6.20306 55.2738,19.4283 6.461435,-19.41943 54.426815,-31.72665 69.135821,-19.92321 3.289017,2.63932 7.298138,16.33516 8.245981,19.85751 m -231.422767,-2.02031 c 6.1485,-13.99548 36.79786,-14.40466 48.39463,-8.09719 5.30656,2.88624 6.70871,10.37838 13.94023,14.54322 m -60.34739,-23.26242 c 0.28445,3.18035 -0.35519,3.00537 0,0 m 62.33486,6.44603 c 10.30257,0.325 28.21988,-22.24938 36.432305,-23.78832 17.10927,-3.20614 54.0552,-6.20306 55.273805,19.4283 6.461434,-19.41943 54.426814,-31.72665 69.13582,-19.92321 3.289017,2.63932 7.298138,16.33516 8.245981,19.85751 m -231.422771,-2.02031 c 6.1485,-13.99548 36.79787,-14.40466 48.39464,-8.09719 5.30656,2.88624 6.70871,10.37838 13.94022,14.54322 m -60.03685,-25.88996 c 0.28445,3.18035 -0.35519,3.00536 0,0 m 62.33487,6.44603 c 10.30256,0.32499 28.219875,-22.24938 36.432305,-23.78833 17.10927,-3.20614 54.055195,-6.20305 55.273799,19.4283 6.461435,-19.41942 54.426815,-31.72665 69.135821,-19.9232 3.289017,2.63931 7.298139,16.33516 8.245982,19.85751 M -188.9351,394.71186 c 6.14851,-13.99548 36.79787,-14.40466 48.39464,-8.09719 5.30656,2.88623 6.70871,10.37838 13.94023,14.54322 m -60.47161,-22.21141 c 0.28445,3.18035 -0.35519,3.00537 0,0 m 62.33486,6.44603 c 10.30257,0.325 28.219885,-22.24938 36.432315,-23.78832 17.10926,-3.20614 54.055193,-6.20306 55.273797,19.4283 6.461435,-19.41943 54.426815,-31.72665 69.135821,-19.92321 3.289016,2.63932 7.298139,16.33516 8.245982,19.85751 m -231.422775,-2.02031 c 6.14851,-13.99548 36.79787,-14.40466 48.39464,-8.09719 5.30656,2.88624 6.70872,10.37838 13.94022,14.54322 m 1.61483,-13.66333 c 10.30256,0.325 28.219875,-22.24937 36.432305,-23.78832 17.10927,-3.20613 54.055197,-6.20305 55.273801,19.4283 6.461435,-19.41942 54.426811,-31.72662 69.13582,-19.9232 3.289018,2.63932 7.298139,16.33515 8.245982,19.85751 m -231.422768,-2.02031 c 6.1485,-13.99548 36.79787,-14.40466 48.39463,-8.0972 5.30657,2.88624 6.70872,10.37839 13.94023,14.54322 m -62.33486,-6.44602 c -0.3552,3.00536 0.28445,3.18035 0,0 l -7.76357,65.68902" />
        <path
           style="fill:#008080;fill-rule:evenodd;stroke:#000000;stroke-width:6.95822;stroke-linecap:round;stroke-linejoin:round;stroke-miterlimit:4;stroke-dasharray:none;paint-order:stroke markers fill"
           d="m -477.325,1448.7391 c -3.92018,-2.9034 -10.33786,-9.5626 -14.2615,-14.7982 -3.92364,-5.2357 -10.2734,-13.7114 -14.11056,-18.8349 -8.84216,-11.8064 -16.51423,-17.0492 -32.78268,-22.4023 -19.31587,-6.3558 -40.85768,-8.6655 -70.38026,-7.5462 -38.75495,1.4694 -64.62606,9.1777 -84.86841,25.2866 l -9.17633,7.3025 1.05142,-6.6024 c 5.70371,-35.8165 5.90525,-36.4018 15.61924,-45.3558 26.98689,-24.8757 90.66729,-34.7398 141.32038,-21.8906 26.56234,6.7381 30.51289,9.5115 48.41161,33.9864 5.26978,7.2059 13.62275,16.7352 18.56219,21.1762 11.86156,10.6645 18.20894,10.8727 37.36183,1.2256 13.89257,-6.9976 28.84089,-18.2494 66.4362,-50.0073 37.02047,-31.2723 39.63447,-32.4633 81.98657,-37.3549 100.05351,-11.556 162.31093,13.4606 169.56374,68.135 1.5187,11.4485 5.37341,11.6334 10.58098,0.5074 15.274657,-32.6345 70.232401,-63.7588 136.973446,-77.5724 27.372887,-5.6654 66.480207,-6.4953 85.255084,-1.8092 13.6987,3.4192 26.52207,9.5936 31.89461,15.3572 5.37583,5.7672 14.57068,26.5051 22.09536,49.8337 6.67524,20.6951 6.94018,24.8295 3.14427,49.0653 -1.03578,6.6131 -1.14659,6.4462 -7.45659,-11.2364 -8.67632,-24.3136 -16.09987,-38.481 -22.86891,-43.644 -14.25763,-10.8749 -37.981822,-16.6625 -68.239301,-16.6474 -71.6833036,0.036 -154.031393,32.5495 -184.476919,72.8373 l -7.36891,9.7511 -2.97927,-9.9459 c -13.31661,-44.4558 -67.75942,-66.1173 -151.94792,-60.4565 -24.72534,1.6625 -55.77419,5.9672 -63.08303,8.746 -7.89923,3.0033 -22.37975,13.6985 -48.04012,35.4821 -31.92331,27.1003 -49.73103,40.4742 -61.57706,46.2455 -14.57396,7.1004 -18.4009,7.2679 -26.63916,1.1665 z"
           id="path3381"
           transform="scale(0.26458333)" />
        <path
           style="fill:#008080;fill-rule:evenodd;stroke:#000000;stroke-width:6.95822;stroke-linecap:round;stroke-linejoin:round;stroke-miterlimit:4;stroke-dasharray:none;paint-order:stroke markers fill"
           d="m -487.64578,1505.3352 c -4.3249,-3.9865 -12.46132,-13.6173 -18.0809,-21.4016 -16.93679,-23.461 -25.58241,-29.1886 -53.49706,-35.4408 -52.0303,-11.6535 -116.35787,-1.3557 -142.70725,22.8451 l -8.20567,7.5366 1.03189,-6.0503 c 0.56754,-3.3277 1.96184,-13.8293 3.09844,-23.337 1.69656,-14.1917 2.95981,-18.5932 7.05576,-24.5843 8.95518,-13.0986 27.67186,-23.5272 54.16193,-30.178 13.37995,-3.3592 19.90292,-3.8919 46.6699,-3.8113 27.97654,0.084 32.83618,0.5535 48.16513,4.65 24.62402,6.5805 29.62033,10.0892 46.2431,32.475 7.81633,10.5262 17.77646,21.8712 22.13365,25.2109 7.0317,5.3899 8.83049,5.9868 16.00386,5.3107 15.5496,-1.4654 37.93704,-15.795 74.76245,-47.8533 24.02082,-20.9112 45.99738,-37.3268 53.09628,-39.6607 12.23615,-4.0229 41.62931,-7.4052 72.54396,-8.3477 44.58016,-1.3591 69.45796,2.425 94.44324,14.3653 21.49276,10.2713 37.8087,30.1395 41.01982,49.9507 2.06814,12.7596 2.70593,14.6937 4.844,14.6896 1.17034,0 4.3989,-4.3503 7.17457,-9.6622 15.37153,-29.4174 61.446071,-57.629 117.68868,-72.0613 27.741594,-7.1187 41.625988,-8.9446 68.282342,-8.9797 28.99474,-0.038 44.448948,3.0427 59.132108,11.7887 7.61373,4.535 10.21926,7.4822 15.51648,17.5509 3.50145,6.6554 9.86805,22.6289 14.148,35.4966 l 7.78175,23.396 -2.46385,19.8207 c -1.35512,10.9014 -2.51108,20.9876 -2.56878,22.4137 -0.0577,1.4262 -3.07121,-5.5749 -6.69663,-15.558 -15.54198,-42.7965 -21.50388,-49.4663 -50.94733,-56.9967 -64.62913,-16.5293 -173.623116,13.6089 -217.42849,60.1217 -5.09697,5.412 -10.52813,11.7848 -12.06924,14.1617 l -2.80201,4.3217 -2.08581,-7.779 c -7.21525,-26.9092 -30.54655,-47.1936 -65.37068,-56.8337 -33.45052,-9.2599 -88.96065,-9.2699 -140.05984,-0.025 -14.1987,2.5688 -27.57806,11.3908 -62.5544,41.2471 -30.73271,26.2337 -43.97537,36.0858 -58.20453,43.3019 -14.1977,7.2002 -19.59098,6.8142 -29.25487,-2.0937 z"
           id="path3420"
           transform="scale(0.26458333)" />
        <path
           style="fill:#008080;fill-rule:evenodd;stroke:#000000;stroke-width:6.95822;stroke-linecap:round;stroke-linejoin:round;stroke-miterlimit:4;stroke-dasharray:none;paint-order:stroke markers fill"
           d="m -493.30768,1581.6957 c -3.96368,-2.8713 -13.39568,-13.6456 -20.96,-23.9429 -15.35202,-20.8988 -21.62791,-25.9059 -40.16447,-32.0448 -18.90719,-6.2616 -40.50588,-8.5423 -70.82873,-7.4792 -38.79427,1.36 -66.44226,9.8896 -85.7768,26.4628 l -7.47025,6.4033 0.94576,-5.8585 c 0.52017,-3.2222 2.21544,-16.3602 3.76728,-29.1955 1.55184,-12.8354 3.84471,-25.3221 5.09527,-27.7484 6.59072,-12.7867 30.76493,-27.6068 54.3992,-33.3496 43.23412,-10.5054 103.72969,-4.6637 125.8814,12.1555 3.1565,2.3966 10.07343,10.3051 15.37096,17.5745 19.32004,26.5111 30.66628,35.7688 41.47639,33.8415 16.61512,-2.9622 35.51311,-15.8606 87.90259,-59.9958 31.00302,-26.1183 35.2539,-28.296 63.25917,-32.4063 59.97433,-8.8023 110.93391,-5.0517 142.74434,10.5061 22.41438,10.9624 38.47086,31.6319 41.53877,53.4728 1.76997,12.6006 5.53276,13.4901 10.8245,2.5589 15.19063,-31.3797 66.988488,-61.5432 130.6902435,-76.1049 27.1631995,-6.2094 69.5534485,-7.8992 89.0525345,-3.5499 33.270592,7.4209 39.805602,14.9129 55.956562,64.1506 l 7.37149,22.4726 -3.52211,29.0616 -3.52209,29.0615 -5.47204,-16.1256 c -12.0127,-35.4003 -18.59259,-45.5958 -34.21787,-53.0207 -52.805832,-25.0925 -163.819091,-3.9789 -222.32523,42.2842 -7.48719,5.9204 -16.69383,15.0665 -20.45917,20.3248 l -6.84611,9.5605 -3.09783,-9.8291 c -11.58125,-36.7464 -45.38239,-56.2358 -105.48861,-60.8236 -38.38015,-2.9294 -97.10769,2.8713 -114.10885,11.2709 -8.38053,4.1406 -25.25403,17.2913 -60.68387,47.2953 -25.33164,21.4523 -52.47235,38.2379 -61.8271,38.2379 -1.26426,0 -5.54165,-2.3492 -9.50533,-5.2205 z"
           id="path3459"
           transform="scale(0.26458333)" />
        <path
           style="fill:#008080;fill-rule:evenodd;stroke:#000000;stroke-width:6.95822;stroke-linecap:round;stroke-linejoin:round;stroke-miterlimit:4;stroke-dasharray:none;paint-order:stroke markers fill"
           d="m -499.79051,1645.9582 c -7.07426,-5.1362 -15.25357,-14.5709 -24.79992,-28.6065 -8.8278,-12.9791 -18.36968,-21.2797 -29.05941,-25.2793 -53.23925,-19.9193 -133.34323,-12.2528 -163.62524,15.6602 -9.29676,8.5695 -9.0541,9.562 -5.08946,-20.8164 1.85766,-14.234 3.97202,-23.5255 6.1955,-27.2261 7.1925,-11.9706 28.58961,-24.9456 50.43733,-30.5848 43.20406,-11.1515 107.07008,-5.4921 128.95162,11.4268 2.39287,1.8502 10.57389,11.6632 18.18002,21.8066 16.21229,21.6204 25.83965,29.7635 35.18866,29.7635 14.3836,0 39.73424,-16.3065 82.41468,-53.0122 28.3208,-24.3563 43.07952,-34.2894 54.6271,-36.7659 18.02946,-3.8666 52.94255,-7.0271 77.55133,-7.0203 69.42007,0.019 110.85903,20.0365 121.65855,58.7677 1.45808,5.2293 2.88265,11.8347 3.16572,14.6789 0.72167,7.251 5.47913,7.6741 8.35026,0.7425 12.78041,-30.8546 61.077516,-61.2978 121.814435,-76.7833 52.180622,-13.304 100.061653,-12.075 125.753615,3.2279 7.92043,4.7176 9.96968,7.179 16.01762,19.239 9.80751,19.5569 20.47629,53.121 20.01835,62.9779 -0.20179,4.3436 -1.31906,15.6765 -2.48282,25.1841 l -2.1159,17.2867 -5.76801,-16.6418 c -3.1724,-9.153 -8.62555,-22.3773 -12.11811,-29.3873 -7.51912,-15.0919 -16.03683,-21.8073 -35.374249,-27.889 -10.9914,-3.4568 -15.924756,-3.8719 -46.020155,-3.8719 -28.848339,0 -36.4509124,0.5863 -52.7243404,4.0658 -53.8467116,11.5134 -98.2449456,33.22 -124.1797356,60.7122 -6.33634,6.7169 -11.52062,12.9758 -11.52062,13.9087 0,4.4762 -3.2131,0.9471 -4.27077,-4.6907 -4.83863,-25.7921 -31.18754,-48.2945 -67.39234,-57.5541 -34.9795,-8.9462 -92.44376,-8.5669 -138.28965,0.913 -15.21026,3.1451 -25.85695,10.1702 -61.44794,40.546 -30.04423,25.6418 -46.56524,37.843 -59.50375,43.9453 -14.06724,6.6347 -16.95575,6.785 -24.54237,1.2768 z"
           id="path3498"
           transform="scale(0.26458333)" />
      </g>
      <path
         id="path3792"
         style="fill:#008080;fill-rule:evenodd;stroke:#000000;stroke-width:0.580411;stroke-linecap:round;stroke-linejoin:round;paint-order:stroke markers fill"
         d="m 65.623607,386.8813 a 9.278423,3.6536929 0 0 1 -9.278424,3.65369 9.278423,3.6536929 0 0 1 -9.278425,-3.65369 9.278423,3.6536929 0 0 1 9.278425,-3.65369 9.278423,3.6536929 0 0 1 9.278424,3.65369 z m -9.409013,28.73106 H 58.1892 c 0.279595,0 0.504685,0.40209 0.504685,0.90155 v 14.85458 c 0,0.49946 -0.22509,0.90155 -0.504685,0.90155 h -1.974606 c -0.279599,0 -0.504685,-0.40209 -0.504685,-0.90155 v -14.85458 c 0,-0.49946 0.225086,-0.90155 0.504685,-0.90155 z m -1.118992,-23.6307 h 1.974606 c 0.279599,0 0.504685,0.40209 0.504685,0.90155 v 14.85457 c 0,0.49946 -0.225086,0.90155 -0.504685,0.90155 h -1.974606 c -0.279595,0 -0.504685,-0.40209 -0.504685,-0.90155 v -14.85457 c 0,-0.49946 0.22509,-0.90155 0.504685,-0.90155 z m 0.215773,-27.36694 h 1.974606 c 0.279595,0 0.504685,0.40209 0.504685,0.90155 v 14.85457 c 0,0.49946 -0.22509,0.90155 -0.504685,0.90155 h -1.974606 c -0.279595,0 -0.504685,-0.40209 -0.504685,-0.90155 v -14.85457 c 0,-0.49946 0.22509,-0.90155 0.504685,-0.90155 z m 0,-26.38483 h 2.347602 c 0.279599,0 0.504685,0.40209 0.504685,0.90155 v 19.18557 c 0,0.49946 -0.225086,0.90155 -0.504685,0.90155 h -2.347602 c -0.279595,0 -0.504685,-0.40209 -0.504685,-0.90155 v -19.18557 c 0,-0.49946 0.22509,-0.90155 0.504685,-0.90155 z" />
    </g>
    <path
       id="path3898"
       style="fill:none;fill-rule:evenodd;stroke:#000000;stroke-width:0.742951;stroke-linecap:round;stroke-linejoin:round;stroke-miterlimit:4;stroke-dasharray:none;paint-order:stroke markers fill"
       d="m 91.936318,28.314231 a 6.9720114,1.9549135 0 0 1 -6.972015,1.954911 6.9720114,1.9549135 0 0 1 -6.972014,-1.954911 6.9720114,1.9549135 0 0 1 6.972014,-1.954922 6.9720114,1.9549135 0 0 1 6.972015,1.954922 z M 84.86617,43.686816 h 1.48377 c 0.210093,0 0.379231,0.215153 0.379231,0.48238 v 7.947958 c 0,0.267247 -0.169138,0.48238 -0.379231,0.48238 h -1.48377 c -0.210092,0 -0.37923,-0.215133 -0.37923,-0.48238 v -7.947958 c 0,-0.267227 0.169138,-0.48238 0.37923,-0.48238 z M 84.025342,31.043181 h 1.483761 c 0.210092,0 0.37923,0.215143 0.37923,0.48237 v 7.947968 c 0,0.267227 -0.169138,0.48237 -0.37923,0.48237 h -1.483761 c -0.210092,0 -0.37923,-0.215143 -0.37923,-0.48237 v -7.947968 c 0,-0.267227 0.169138,-0.48237 0.37923,-0.48237 z m 0.162131,-14.642727 h 1.483761 c 0.210102,0 0.379239,0.215152 0.379239,0.482379 v 7.947958 c 0,0.267237 -0.169137,0.48238 -0.379239,0.48238 h -1.483761 c -0.210092,0 -0.37923,-0.215143 -0.37923,-0.48238 v -7.947958 c 0,-0.267227 0.169138,-0.482379 0.37923,-0.482379 z m 0,-14.1172364 h 1.764043 c 0.210102,0 0.37923,0.2151396 0.37923,0.4823759 V 13.030858 c 0,0.267236 -0.169128,0.482376 -0.37923,0.482376 h -1.764043 c -0.210092,0 -0.37923,-0.21514 -0.37923,-0.482376 V 2.7655935 c 0,-0.2672363 0.169138,-0.4823759 0.37923,-0.4823759 z m -6.615593,24.0760914 -2.378742,25.6011 v 0 M 4.2856941,51.173034 c 0.087154,1.23948 -0.1088287,1.171288 0,0 m 19.0992669,2.512217 c 3.156687,0.12667 8.646512,-8.671282 11.162781,-9.271068 5.242245,-1.249535 16.562399,-2.417522 16.935775,7.571828 1.979774,-7.568366 16.676259,-12.364892 21.183071,-7.76471 1.007746,1.02863 2.236132,6.366334 2.52655,7.739108 M 4.2856941,51.173034 C 6.1695789,45.718555 15.56048,45.559079 19.113707,48.0173 c 1.62592,1.124856 2.055531,4.044787 4.271254,5.667951 m -18.4903074,-9.0661 c 0.087154,1.23948 -0.1088343,1.171288 0,0 m 19.0992654,2.512227 c 3.156686,0.12665 8.646512,-8.671302 11.162781,-9.271078 5.242244,-1.249536 16.562398,-2.417532 16.935774,7.571828 1.979774,-7.568366 16.676268,-12.364892 21.18307,-7.7647 1.007746,1.02862 2.236133,6.366324 2.52655,7.739098 M 4.8946536,44.619151 c 1.8838848,-5.45448 11.2747864,-5.613956 14.8280074,-3.155734 1.625925,1.124856 2.055542,4.044787 4.271258,5.667961 M 5.5987579,37.04123 c 0.087154,1.23948 -0.1088287,1.171288 0,0 m 19.0992711,2.512217 c 3.156682,0.12666 8.646507,-8.671292 11.162781,-9.271068 5.242242,-1.249536 16.562399,-2.417522 16.935774,7.571828 1.979765,-7.568367 16.67626,-12.364882 21.183062,-7.7647 1.007746,1.02862 2.236141,6.366334 2.52655,7.739108 M 5.5987579,37.04123 C 7.4826436,31.58674 16.87355,31.427274 20.426771,33.885496 c 1.625919,1.124856 2.055536,4.044777 4.271258,5.667951 M 6.1696557,30.896952 c 0.087154,1.23949 -0.1088287,1.171288 0,0 m 19.0992673,2.512227 c 3.156687,0.12666 8.646512,-8.671292 11.162786,-9.271068 5.242239,-1.249536 16.562397,-2.417532 16.935772,7.571828 1.979765,-7.568366 16.67626,-12.364892 21.183062,-7.76471 1.007755,1.02862 2.236141,6.366334 2.52655,7.739108 M 6.1696557,30.896952 c 1.8838914,-5.45449 11.2747923,-5.613946 14.8280143,-3.155734 1.625918,1.124866 2.055537,4.044787 4.271253,5.667961 m 0.49478,-5.325028 c 3.156686,0.126651 8.646512,-8.671302 11.162781,-9.271078 5.242245,-1.249525 16.562399,-2.417522 16.935775,7.571829 1.979774,-7.568367 16.676259,-12.364879 21.18307,-7.764711 1.007747,1.028631 2.236133,6.366334 2.526551,7.739118 M 6.6644368,25.571924 C 8.5483225,20.117435 17.939223,19.957969 21.492451,22.41619 c 1.625919,1.124856 2.055535,4.044778 4.271252,5.667961 M 6.6644368,25.571924 c -0.1088287,1.171278 0.087154,1.239481 0,0 l -2.3787427,25.60111" />
  </g>
  <g
     inkscape:groupmode="layer"
     id="layer2"
     inkscape:label="Layer 2"
     style="display:inline">
    <path
       style="fill:#000000;fill-rule:evenodd;stroke:#000000;stroke-width:2.36244;stroke-linecap:round;stroke-linejoin:round;paint-order:stroke markers fill"
       d=""
       id="path1568"
       transform="scale(0.26458333)" />
    <path
       style="fill:#000000;fill-rule:evenodd;stroke:#000000;stroke-width:2.36244;stroke-linecap:round;stroke-linejoin:round;paint-order:stroke markers fill"
       d=""
       id="path1607"
       transform="scale(0.26458333)" />
    <path
       style="fill:#000000;stroke-width:0.264583"
       d="m 135.60752,55.750496 c -0.37927,-0.298339 -1.28291,-1.465929 -2.00807,-2.594644 -2.24223,-3.490018 -2.99887,-3.877437 -7.60375,-3.89332 -3.07588,-0.01061 -3.23911,0.01786 -4.95962,0.864857 -1.83292,0.90234 -2.9255,2.011172 -3.24561,3.293858 -0.21167,0.848199 -0.58911,1.159151 -0.95856,0.789702 -0.25608,-0.256079 1.58333,-21.962158 2.17966,-25.721202 0.3291,-2.074504 0.91474,-3.080356 2.42496,-4.164911 1.86692,-1.340725 3.62825,-1.796194 6.94599,-1.796194 4.66413,0 6.09488,0.677584 8.20208,3.884414 1.79232,2.727629 2.15779,3.101345 2.85471,2.919098 0.31662,-0.0828 2.54228,-2.075913 4.9459,-4.429142 2.97813,-2.915688 4.66521,-4.372724 5.29627,-4.57409 2.58669,-0.825393 7.51758,-1.09278 10.10729,-0.548087 3.20694,0.674517 6.16185,2.940139 6.85588,5.256619 l 0.30057,1.003203 1.74483,-1.849612 c 2.82855,-2.998409 6.92237,-5.044867 11.5508,-5.774115 3.1661,-0.498845 6.20064,0.194223 7.87631,1.798896 0.78089,0.747808 1.9866,4.081955 2.58759,7.1555 0.26776,1.36934 0.40227,1.634851 0.75193,1.484156 0.98591,-0.424911 3.12449,-0.902881 4.03976,-0.902881 0.98711,0 1.52488,-0.347127 1.0206,-0.658791 -0.16446,-0.101644 -0.2689,-1.852047 -0.2689,-4.50689 0,-4.020735 0.0377,-4.360891 0.51177,-4.614594 0.72765,-0.389423 1.75078,-0.338843 2.11894,0.104754 0.2237,0.269549 0.29021,1.718074 0.23083,5.027423 l -0.0834,4.648776 0.93659,-3.44e-4 c 2.42901,-8.73e-4 5.28111,1.287713 5.28111,2.386025 0,0.998517 -1.9783,1.950175 -4.6905,2.256362 l -1.5272,0.172408 0.0853,4.112601 c 0.11009,5.306607 0.0962,5.35977 -1.40397,5.35977 -1.69042,0 -1.78686,-0.302659 -1.68071,-5.274617 l 0.0889,-4.165886 -1.80316,-0.308943 c -0.99174,-0.169918 -2.16366,-0.495366 -2.60428,-0.723218 -0.44061,-0.227848 -0.85128,-0.364101 -0.9126,-0.302778 -0.0613,0.06132 -0.58889,5.100492 -1.17237,11.198156 -0.58348,6.097665 -1.11382,11.235489 -1.17853,11.41739 -0.0647,0.181902 -0.28047,0.33073 -0.47947,0.33073 -0.23522,0 -0.61601,-0.948799 -1.08841,-2.71198 -1.19806,-4.471566 -1.59203,-5.186418 -3.28571,-5.961808 -5.17158,-2.367627 -15.72913,1.81892 -18.20062,7.217373 -0.89428,1.953376 -1.39623,1.871982 -1.83868,-0.298154 -0.40359,-1.979451 -0.86809,-2.914023 -1.99687,-4.017613 -2.07868,-2.032286 -4.93875,-2.684039 -9.8386,-2.242005 -1.79446,0.161885 -3.67106,0.468611 -4.17022,0.681611 -0.49916,0.213 -2.39584,1.898748 -4.21485,3.746106 -4.98807,5.065797 -6.40083,5.966805 -7.72396,4.926031 z m 61.55154,-1.151281 c -0.072,-0.187487 -0.098,-2.300846 -0.0579,-4.696354 l 0.073,-4.355468 h 1.32292 1.32292 l 0.0728,4.330438 c 0.0499,2.968903 -0.0226,4.445487 -0.23083,4.696354 -0.38601,0.465111 -2.32665,0.484518 -2.50297,0.02503 z m -0.72264,-38.981951 c -0.10356,-0.103551 -0.18828,-2.654165 -0.18828,-5.6680311 0,-6.177034 -0.005,-6.16072 1.89868,-6.023739 l 1.14403,0.08232 v 5.820833 5.8208341 l -1.33308,0.07803 c -0.73319,0.04292 -1.4178,-0.0067 -1.52135,-0.110243 z"
       id="path1836" />
  </g>
  <g
     inkscape:groupmode="layer"
     id="layer3"
     inkscape:label="Layer 3"
     style="display:inline">
    <g
       id="g1605"
       transform="translate(-98.5783,171.78372)">
      <path
         id="path868"
         style="display:inline;fill:none;fill-rule:evenodd;stroke:#000000;stroke-width:0.742951;stroke-linecap:round;stroke-linejoin:round;stroke-miterlimit:4;stroke-dasharray:none;paint-order:stroke markers fill"
         d="m 192.35282,94.206763 a 6.9720114,1.9549135 0 0 1 -6.97201,1.954911 6.9720114,1.9549135 0 0 1 -6.97201,-1.954911 6.9720114,1.9549135 0 0 1 6.97201,-1.954922 6.9720114,1.9549135 0 0 1 6.97201,1.954922 z m -7.07014,15.372587 h 1.48377 c 0.21009,0 0.37923,0.21515 0.37923,0.48238 v 7.94795 c 0,0.26725 -0.16914,0.48238 -0.37923,0.48238 h -1.48377 c -0.2101,0 -0.37923,-0.21513 -0.37923,-0.48238 v -7.94795 c 0,-0.26723 0.16913,-0.48238 0.37923,-0.48238 z m -0.84083,-12.643637 h 1.48376 c 0.21009,0 0.37923,0.215143 0.37923,0.48237 v 7.947967 c 0,0.26723 -0.16914,0.48237 -0.37923,0.48237 h -1.48376 c -0.21009,0 -0.37923,-0.21514 -0.37923,-0.48237 v -7.947967 c 0,-0.267227 0.16914,-0.48237 0.37923,-0.48237 z m 0.16213,-14.642727 h 1.48376 c 0.2101,0 0.37924,0.215152 0.37924,0.482379 v 7.947958 c 0,0.267237 -0.16914,0.48238 -0.37924,0.48238 h -1.48376 c -0.21009,0 -0.37923,-0.215143 -0.37923,-0.48238 v -7.947958 c 0,-0.267227 0.16914,-0.482379 0.37923,-0.482379 z m 0,-14.117237 h 1.76404 c 0.2101,0 0.37923,0.21514 0.37923,0.482376 V 78.92339 c 0,0.267236 -0.16913,0.482376 -0.37923,0.482376 h -1.76404 c -0.21009,0 -0.37923,-0.21514 -0.37923,-0.482376 V 68.658125 c 0,-0.267236 0.16914,-0.482376 0.37923,-0.482376 z m -6.61559,24.076092 -2.37875,25.601099 v 0 m -70.90744,-0.78738 c 0.0872,1.23948 -0.10883,1.17129 0,0 m 19.09927,2.51222 c 3.15668,0.12667 8.64651,-8.67128 11.16278,-9.27107 5.24224,-1.24953 16.5624,-2.41752 16.93577,7.57183 1.97978,-7.56837 16.67626,-12.36489 21.18307,-7.76471 1.00775,1.02863 2.23614,6.36633 2.52655,7.73911 m -70.90744,-0.78738 c 1.88389,-5.45448 11.27479,-5.61395 14.82801,-3.15573 1.62592,1.12486 2.05553,4.04479 4.27126,5.66795 m -18.49031,-9.0661 c 0.0872,1.23948 -0.10883,1.17129 0,0 m 19.09927,2.51223 c 3.15668,0.12665 8.64651,-8.6713 11.16278,-9.27108 5.24224,-1.24954 16.56239,-2.41753 16.93577,7.57183 1.97977,-7.56837 16.67627,-12.364888 21.18307,-7.7647 1.00775,1.02862 2.23613,6.36632 2.52655,7.7391 m -70.90744,-0.78738 c 1.88389,-5.45448 11.27479,-5.61396 14.82801,-3.15573 1.62592,1.12485 2.05554,4.04478 4.27126,5.66796 m -18.39517,-10.09015 c 0.0871,1.23948 -0.10882,1.17129 0,0 m 19.09928,2.51222 c 3.15668,0.12666 8.6465,-8.671293 11.16278,-9.271069 5.24224,-1.249536 16.5624,-2.417522 16.93577,7.571829 1.97977,-7.568368 16.67626,-12.364883 21.18306,-7.764701 1.00775,1.02862 2.23614,6.366331 2.52655,7.739101 m -70.90744,-0.78738 c 1.88389,-5.454488 11.2748,-5.613954 14.82802,-3.155728 1.62592,1.124848 2.05553,4.044768 4.27126,5.667948 m -18.52838,-8.656496 c 0.0871,1.23949 -0.10883,1.171288 0,0 m 19.09927,2.512228 c 3.15669,0.12666 8.64651,-8.671293 11.16279,-9.271069 5.24223,-1.249536 16.56239,-2.417532 16.93577,7.571828 1.97976,-7.568366 16.67626,-12.364892 21.18306,-7.76471 1.00775,1.02862 2.23614,6.366334 2.52655,7.739108 m -70.90744,-0.787385 c 1.88389,-5.45449 11.27479,-5.613946 14.82802,-3.155734 1.62591,1.124866 2.05553,4.044787 4.27125,5.667962 m 0.49478,-5.325029 c 3.15669,0.126651 8.64651,-8.671302 11.16278,-9.271078 5.24225,-1.249525 16.5624,-2.417522 16.93578,7.571829 1.97977,-7.568367 16.67625,-12.364879 21.18307,-7.764711 1.00774,1.028631 2.23613,6.366334 2.52655,7.739118 m -70.90745,-0.787385 c 1.88389,-5.454489 11.27479,-5.613955 14.82802,-3.155734 1.62592,1.124856 2.05553,4.044778 4.27125,5.667961 m -19.09927,-2.512227 c -0.10883,1.171278 0.0871,1.239481 0,0 l -2.37874,25.601104" />
      <path
         style="fill:#ffffff;fill-rule:evenodd;stroke:#000000;stroke-width:3.96922;stroke-linecap:round;stroke-linejoin:round;paint-order:stroke markers fill"
         d="m 466.25098,447.9159 c -1.17577,-1.33913 -3.8937,-5.41837 -6.03984,-9.06497 -4.96612,-8.43815 -7.84993,-10.92007 -15.66496,-13.48185 -5.42916,-1.77969 -7.08155,-1.99659 -15.2107,-1.99659 -12.92411,0 -21.97028,2.68218 -28.28389,8.38615 l -2.88176,2.60349 0.38493,-3.741 c 1.36512,-13.26745 1.53872,-14.08157 3.62296,-16.99029 2.86631,-4.00016 8.31252,-7.65822 14.34356,-9.63416 4.34899,-1.42485 6.48788,-1.67005 14.56802,-1.67005 16.52194,0 22.1718,2.80383 28.54905,14.16787 1.85378,3.30337 4.69532,7.42909 6.31454,9.16825 2.83469,3.04467 3.06466,3.14853 6.19121,2.79612 4.97103,-0.56031 9.45415,-4.14558 23.55223,-18.83536 6.9827,-7.27578 13.6915,-13.83017 14.90844,-14.56531 6.08372,-3.6751 31.42473,-5.30239 41.09736,-2.63909 14.22008,3.91542 20.95635,11.74498 22.85884,26.56883 0.3469,2.703 0.68865,3.33226 1.80975,3.33226 0.76015,0 1.56118,-0.55246 1.78007,-1.22768 3.37627,-10.41517 12.57363,-19.75985 26.21607,-26.63599 18.81803,-9.48478 41.24517,-10.5898 49.70831,-2.44921 2.16076,2.0784 3.14346,3.94462 4.8798,9.26702 4.49539,13.77981 5.22587,17.85739 4.64995,25.95656 l -0.52379,7.36605 -1.33073,-4.55994 c -3.65329,-12.5186 -5.77169,-15.86518 -11.96304,-18.89885 -5.84508,-2.86401 -11.35109,-3.80098 -19.46394,-3.31226 -20.24265,1.21945 -42.14058,12.04244 -52.30705,25.85261 l -2.96694,4.03029 -1.18314,-3.66051 c -3.44557,-10.66025 -12.27196,-17.89908 -25.10266,-20.58758 -10.41084,-2.18145 -33.3855,-0.76977 -40.90948,2.5137 -3.02762,1.32125 -7.39829,5.42787 -21.00973,19.74045 -8.91447,9.37366 -11.8475,11.87476 -15.92192,13.57716 -2.52846,1.05645 -2.53822,1.05358 -4.67152,-1.37612 z"
         id="path1154"
         transform="scale(0.26458333)" />
      <path
         style="fill:#ffffff;fill-rule:evenodd;stroke:#000000;stroke-width:3.96922;stroke-linecap:round;stroke-linejoin:round;paint-order:stroke markers fill"
         d="m 468.46215,422.84634 c -1.20339,-1.25398 -3.66572,-4.80547 -5.47184,-7.89219 -4.87557,-8.33254 -6.33989,-9.99842 -10.7253,-12.20158 -14.47063,-7.26984 -38.16355,-5.18641 -48.97556,4.30666 l -2.59662,2.27987 0.4809,-5.96159 c 1.12896,-13.9953 1.27869,-14.76176 3.53771,-18.10859 4.70095,-6.96469 14.02118,-11.20706 26.05578,-11.86005 11.28211,-0.61215 22.57237,2.31603 26.70304,6.92555 0.81218,0.90634 3.23465,4.66732 5.38326,8.35775 2.14862,3.69042 5.18703,7.86667 6.75203,9.28056 2.42686,2.19252 3.18296,2.50876 5.13967,2.14967 4.79082,-0.87922 8.84173,-4.15931 23.34006,-18.89885 8.10266,-8.23746 15.59106,-15.29249 16.6409,-15.67783 8.21425,-3.01503 29.89534,-4.09951 38.64921,-1.93322 13.94537,3.45103 22.037,11.97178 23.44045,24.68356 0.46037,4.1698 0.75386,4.93752 1.94523,5.08842 1.12429,0.14241 1.92492,-0.92925 4.02966,-5.39374 10.48003,-22.22993 52.43176,-37.70255 71.66466,-26.43132 3.66576,2.14828 5.05879,4.45421 7.70197,12.74932 4.81874,15.12272 5.05524,17.24327 3.47581,31.16654 l -0.43675,3.85017 -1.52828,-5.25323 c -2.04501,-7.02945 -4.25644,-11.84585 -6.54886,-14.26313 -8.75784,-9.23485 -32.3743,-8.98461 -52.51567,0.55644 -11.33672,5.37026 -20.37576,12.40949 -24.89936,19.39059 l -2.21958,3.4254 -1.31921,-3.90762 c -1.74495,-5.16872 -3.84004,-8.36167 -8.08326,-12.31902 -4.26593,-3.97853 -7.53146,-5.69953 -14.70019,-7.74732 -10.52552,-3.00667 -36.14306,-1.61008 -44.01867,2.39978 -2.88276,1.46774 -6.27243,4.72389 -20.74869,19.93131 -8.31124,8.73102 -14.32909,13.58766 -16.83641,13.58766 -0.62046,0 -2.1127,-1.02598 -3.31609,-2.27997 z"
         id="path1193"
         transform="scale(0.26458333)" />
      <path
         style="fill:#ffffff;fill-rule:evenodd;stroke:#000000;stroke-width:3.96922;stroke-linecap:round;stroke-linejoin:round;paint-order:stroke markers fill"
         d="m 470.5382,393.88459 c -1.12389,-1.36347 -3.5498,-5.16271 -5.39091,-8.44275 -4.06802,-7.24739 -6.5452,-9.82327 -11.59424,-12.0562 -14.65469,-6.481 -37.52516,-4.03684 -47.6274,5.08993 l -2.89239,2.6131 0.40184,-3.41159 c 1.45235,-12.33036 1.64617,-13.18719 3.61746,-15.992 2.74068,-3.89951 8.29444,-7.60791 14.37942,-9.60151 4.34899,-1.42485 6.48788,-1.67005 14.56802,-1.67005 8.02946,0 10.23135,0.24932 14.46964,1.63841 6.67524,2.18779 9.29745,4.53047 13.9836,12.49292 5.43786,9.23971 8.18557,12.17599 11.39404,12.17599 5.13776,0 8.28005,-2.40548 24.34259,-18.63467 l 15.43363,-15.59377 5.03099,-1.12138 c 24.07132,-5.3654 44.8669,-1.48235 53.15045,9.92451 2.68967,3.70381 5.30689,10.85925 5.30689,14.50897 0,1.31079 0.19162,2.8826 0.42582,3.49291 0.57389,1.49553 3.03362,1.41259 3.49968,-0.118 3.96225,-13.01267 18.29505,-24.95434 37.26706,-31.04985 8.61065,-2.76652 15.33806,-3.73799 23.09659,-3.33526 5.25887,0.27297 7.24434,0.7219 11.03215,2.49443 6.47687,3.03089 8.26761,6.31053 12.45073,22.80274 1.94222,7.65734 2.10245,9.09712 1.64941,14.82118 l -0.50179,6.33994 -1.88001,-6.34452 c -3.59119,-12.11931 -7.0333,-16.46478 -14.98854,-18.92221 -20.59852,-6.36305 -54.40995,5.71448 -68.21246,24.36565 l -2.9464,3.98143 -0.86432,-2.92914 c -3.11915,-10.57051 -10.99114,-17.50943 -23.77178,-20.95409 -10.27738,-2.76997 -34.21422,-1.51929 -42.69148,2.23061 -3.12846,1.38386 -6.7555,4.81517 -21.60745,20.44138 -8.45209,8.89273 -14.01,13.24194 -16.922,13.24194 -0.93869,0 -2.3835,-0.99249 -3.60884,-2.47905 z"
         id="path1232"
         transform="scale(0.26458333)" />
      <path
         style="fill:#ffffff;fill-rule:evenodd;stroke:#000000;stroke-width:3.96922;stroke-linecap:round;stroke-linejoin:round;paint-order:stroke markers fill"
         d="m 472.72473,370.58247 c -1.1518,-1.44691 -3.91098,-5.73024 -6.13153,-9.51851 -4.55898,-7.77767 -7.2246,-9.97637 -15.15957,-12.50417 -6.34785,-2.0222 -19.53483,-2.5353 -26.59209,-1.03469 -6.59561,1.40245 -13.07941,4.42848 -16.91645,7.89502 -2.23906,2.02285 -2.89557,2.35334 -2.59451,1.3061 0.22167,-0.7711 0.61702,-3.7052 0.87856,-6.52023 0.38005,-4.09066 0.91832,-5.78079 2.68106,-8.41835 7.78656,-11.65088 31.85769,-15.71826 47.96295,-8.10446 4.02162,1.90124 4.63847,2.62388 9.99604,11.71056 2.01208,3.41257 4.92082,7.46718 6.46387,9.01023 2.55257,2.55257 3.03685,2.76328 5.37055,2.33679 4.9357,-0.90202 8.99006,-4.16731 23.96161,-19.2982 14.85964,-15.01778 15.13997,-15.255 18.94127,-16.02817 18.39873,-3.74227 35.12946,-2.99317 44.9407,2.01215 8.46017,4.31606 14.68923,14.70166 14.68923,24.4911 0,1.92485 1.53585,3.28094 2.81824,2.48838 0.32287,-0.19954 0.972,-1.54224 1.4425,-2.98377 0.4705,-1.44153 1.93851,-4.32256 3.26224,-6.4023 12.46858,-19.58967 50.31306,-32.69801 68.164,-23.61024 4.16313,2.11942 5.82992,4.04186 7.63071,8.80107 4.27831,11.30694 6.55337,21.52168 5.99123,26.89992 l -0.44011,4.21076 -2.21687,-6.96161 c -2.7949,-8.77679 -3.90037,-10.86453 -7.1892,-13.57724 -5.18429,-4.27614 -9.14209,-5.2864 -20.53434,-5.24158 -8.68274,0.0342 -11.17649,0.30933 -17.03126,1.87928 -15.73691,4.21985 -30.40958,13.38508 -38.07075,23.78076 l -2.93415,3.98143 -0.86433,-2.92914 c -3.10987,-10.5391 -11.92285,-18.23105 -24.40602,-21.30152 -6.52803,-1.6057 -23.48327,-1.59207 -32.39181,0.026 -11.42687,2.07552 -11.52775,2.14996 -31.62737,23.33837 -8.06905,8.50615 -13.68693,12.89696 -16.50117,12.89696 -0.89227,0 -2.34675,-1.06488 -3.59323,-2.63073 z"
         id="path1271"
         transform="scale(0.26458333)" />
      <path
         style="fill:#ffffff;fill-rule:evenodd;stroke:#000000;stroke-width:3.96922;stroke-linecap:round;stroke-linejoin:round;paint-order:stroke markers fill"
         d="m 698.37169,278.85761 v -19.29204 h 2.80611 2.80612 v 19.29204 19.29203 h -2.80612 -2.80611 z"
         id="path1310"
         transform="scale(0.26458333)" />
      <path
         style="fill:#ffffff;fill-rule:evenodd;stroke:#000000;stroke-width:3.96922;stroke-linecap:round;stroke-linejoin:round;paint-order:stroke markers fill"
         d="m 698.37169,327.96461 v -15.08287 h 2.45535 2.45535 v 15.08287 15.08286 h -2.45535 -2.45535 z"
         id="path1349"
         transform="scale(0.26458333)" />
      <path
         style="fill:#ffffff;fill-rule:evenodd;stroke:#000000;stroke-width:3.96922;stroke-linecap:round;stroke-linejoin:round;paint-order:stroke markers fill"
         d="m 693.11022,361.26717 c -7.46438,-0.72038 -12.20457,-1.83977 -15.00659,-3.54378 -2.85227,-1.73457 -2.18511,-2.87443 2.60845,-4.45659 5.85053,-1.93102 10.819,-2.543 20.46572,-2.52082 10.07063,0.0232 17.58915,1.20405 21.23946,3.33595 3.01085,1.75843 3.04716,2.62999 0.16649,3.99696 -5.68191,2.69624 -19.30364,4.16976 -29.47353,3.18828 z"
         id="path1388"
         transform="scale(0.26458333)" />
      <path
         style="fill:#ffffff;fill-rule:evenodd;stroke:#000000;stroke-width:3.96922;stroke-linecap:round;stroke-linejoin:round;paint-order:stroke markers fill"
         d="M 697.67016,383.38536 V 368.3025 h 2.45535 2.45535 v 15.08286 15.08287 h -2.45535 -2.45535 z"
         id="path1427"
         transform="scale(0.26458333)" />
      <path
         style="fill:#ffffff;fill-rule:evenodd;stroke:#000000;stroke-width:3.96922;stroke-linecap:round;stroke-linejoin:round;paint-order:stroke markers fill"
         d="m 700.47627,431.0893 v -15.08286 h 2.45535 2.45535 v 15.08286 15.08287 h -2.45535 -2.45535 z"
         id="path1466"
         transform="scale(0.26458333)" />
    </g>
  </g>
  <g
     inkscape:groupmode="layer"
     id="layer4"
     inkscape:label="Layer 4"
     style="display:inline">
    <g
       id="g1438">
      <path
         id="path861"
         style="display:inline;fill:none;fill-rule:evenodd;stroke:#000000;stroke-width:0.742951;stroke-linecap:round;stroke-linejoin:round;stroke-miterlimit:4;stroke-dasharray:none;paint-order:stroke markers fill"
         d="m 208.82389,267.62251 a 6.9720114,1.9549135 0 0 1 -6.97202,1.95491 6.9720114,1.9549135 0 0 1 -6.97201,-1.95491 6.9720114,1.9549135 0 0 1 6.97201,-1.95493 6.9720114,1.9549135 0 0 1 6.97202,1.95493 z m -7.07015,15.37258 h 1.48377 c 0.21009,0 0.37923,0.21515 0.37923,0.48238 v 7.94796 c 0,0.26725 -0.16914,0.48238 -0.37923,0.48238 h -1.48377 c -0.21009,0 -0.37923,-0.21513 -0.37923,-0.48238 v -7.94796 c 0,-0.26723 0.16914,-0.48238 0.37923,-0.48238 z m -0.84083,-12.64363 h 1.48376 c 0.21009,0 0.37923,0.21514 0.37923,0.48237 v 7.94796 c 0,0.26723 -0.16914,0.48237 -0.37923,0.48237 h -1.48376 c -0.21009,0 -0.37923,-0.21514 -0.37923,-0.48237 v -7.94796 c 0,-0.26723 0.16914,-0.48237 0.37923,-0.48237 z m 0.16213,-14.64273 h 1.48376 c 0.2101,0 0.37924,0.21515 0.37924,0.48238 v 7.94796 c 0,0.26723 -0.16914,0.48238 -0.37924,0.48238 h -1.48376 c -0.21009,0 -0.37923,-0.21515 -0.37923,-0.48238 v -7.94796 c 0,-0.26723 0.16914,-0.48238 0.37923,-0.48238 z m 0,-14.11724 h 1.76404 c 0.21011,0 0.37923,0.21514 0.37923,0.48238 v 10.26526 c 0,0.26724 -0.16912,0.48238 -0.37923,0.48238 h -1.76404 c -0.21009,0 -0.37923,-0.21514 -0.37923,-0.48238 v -10.26526 c 0,-0.26724 0.16914,-0.48238 0.37923,-0.48238 z m -6.61559,24.07609 -2.37874,25.6011 v 0 m -70.90745,-0.78737 c 0.0872,1.23948 -0.10883,1.17129 0,0 m 19.09927,2.51222 c 3.15669,0.12667 8.64651,-8.67129 11.16278,-9.27107 5.24225,-1.24954 16.5624,-2.41752 16.93578,7.57183 1.97977,-7.56837 16.67625,-12.3649 21.18307,-7.76471 1.00774,1.02863 2.23613,6.36633 2.52655,7.7391 m -70.90745,-0.78737 c 1.88389,-5.45448 11.27479,-5.61396 14.82802,-3.15573 1.62592,1.12485 2.05553,4.04478 4.27125,5.66795 m -18.49031,-9.0661 c 0.0872,1.23948 -0.10883,1.17128 0,0 m 19.09927,2.51222 c 3.15668,0.12665 8.64651,-8.6713 11.16278,-9.27107 5.24224,-1.24954 16.5624,-2.41754 16.93577,7.57182 1.97978,-7.56836 16.67627,-12.36489 21.18307,-7.7647 1.00775,1.02862 2.23614,6.36633 2.52655,7.7391 m -70.90744,-0.78737 c 1.88389,-5.45448 11.27479,-5.61396 14.82801,-3.15574 1.62592,1.12486 2.05554,4.04479 4.27126,5.66796 m -18.39516,-10.09014 c 0.0872,1.23948 -0.10883,1.17128 0,0 m 19.09927,2.51221 c 3.15668,0.12666 8.6465,-8.67129 11.16278,-9.27107 5.24224,-1.24953 16.5624,-2.41752 16.93577,7.57183 1.97977,-7.56836 16.67626,-12.36488 21.18306,-7.7647 1.00775,1.02862 2.23615,6.36634 2.52655,7.73911 m -70.90743,-0.78738 c 1.88388,-5.45449 11.27479,-5.61396 14.82801,-3.15574 1.62592,1.12486 2.05554,4.04478 4.27126,5.66795 m -18.52838,-8.65649 c 0.0872,1.23949 -0.10882,1.17129 0,0 m 19.09927,2.51222 c 3.15669,0.12666 8.64651,-8.67129 11.16279,-9.27106 5.24224,-1.24954 16.56239,-2.41754 16.93577,7.57182 1.97976,-7.56836 16.67626,-12.36489 21.18306,-7.76471 1.00776,1.02862 2.23614,6.36634 2.52655,7.73911 m -70.90744,-0.78738 c 1.8839,-5.45449 11.2748,-5.61395 14.82802,-3.15574 1.62592,1.12487 2.05554,4.04479 4.27125,5.66796 m 0.49478,-5.32502 c 3.15669,0.12665 8.64651,-8.67131 11.16278,-9.27108 5.24225,-1.24953 16.5624,-2.41752 16.93578,7.57183 1.97977,-7.56837 16.67626,-12.36488 21.18307,-7.76471 1.00774,1.02863 2.23613,6.36633 2.52655,7.73911 M 123.552,264.8802 c 1.88389,-5.45449 11.27479,-5.61396 14.82802,-3.15573 1.62592,1.12485 2.05553,4.04477 4.27125,5.66796 M 123.552,264.8802 c -0.10882,1.17128 0.0872,1.23948 0,0 l -2.37874,25.60111" />
      <path
         style="fill:#008080;fill-rule:evenodd;stroke:#000000;stroke-width:4.93012;stroke-linecap:round;stroke-linejoin:round;paint-order:stroke markers fill"
         d="m 535.85188,1026.6278 c -1.29,-1.2889 -4.09215,-5.3708 -6.227,-9.0707 -2.13485,-3.7 -5.02415,-7.6887 -6.42066,-8.8638 -4.49139,-3.7792 -11.74333,-5.9435 -21.51487,-6.4207 -13.56795,-0.6628 -23.36698,1.8113 -30.94475,7.8131 -2.81759,2.2315 -3.38488,2.4349 -2.98525,1.0703 0.27137,-0.9267 0.76375,-4.0375 1.09419,-6.913 0.5519,-4.80266 0.96388,-5.59048 5.06209,-9.68006 6.76013,-6.7459 12.12038,-8.52745 25.80963,-8.57816 17.18991,-0.0637 21.8367,2.13535 28.34106,13.412 4.59491,7.96622 9.31749,13.12742 12.00131,13.11602 4.21869,-0.018 10.94665,-5.3388 24.57399,-19.43435 7.66797,-7.93142 15.00366,-14.82388 16.30152,-15.31659 5.01613,-1.90427 21.97034,-3.79832 29.12678,-3.25392 20.3941,1.55143 31.01235,10.17004 33.14505,26.90316 0.6645,5.2137 3.09108,5.7873 4.63915,1.0965 3.64577,-11.04675 19.31225,-23.47351 36.59957,-29.03098 20.73585,-6.66609 37.12619,-3.90085 41.84956,7.0605 3.41237,7.91894 7.00562,23.36958 6.40028,27.52058 l -0.5563,3.8146 -1.90882,-5.993 c -2.91403,-9.14916 -4.64757,-12.17548 -8.39482,-14.6553 -5.49046,-3.63341 -12.95904,-5.14518 -22.57677,-4.56992 -19.48095,1.1652 -39.92553,11.04307 -51.00637,24.64392 l -3.61808,4.4409 -2.34216,-5.3763 c -6.97092,-16.00131 -25.69725,-22.39138 -53.51433,-18.26094 -5.05511,0.75061 -10.63688,2.10233 -12.40394,3.00382 -1.76706,0.90148 -8.64466,7.37232 -15.28353,14.37952 -11.16954,11.7893 -17.82103,17.6725 -21.4423,18.9655 -0.91746,0.3276 -2.32912,-0.3488 -3.80423,-1.8227 z"
         id="path919"
         transform="scale(0.26458333)" />
      <path
         style="fill:#008080;fill-rule:evenodd;stroke:#000000;stroke-width:4.93012;stroke-linecap:round;stroke-linejoin:round;paint-order:stroke markers fill"
         d="m 532.65024,1048.9002 c -1.17495,-1.5575 -3.7804,-5.6625 -5.78987,-9.1222 -4.29137,-7.3883 -7.24078,-9.8556 -14.93606,-12.495 -4.45405,-1.5276 -7.7112,-1.954 -15.24881,-1.9961 -11.41415,-0.064 -19.45179,2.0204 -26.50685,6.8734 l -4.50675,3.1001 0.59376,-6.7951 c 0.32657,-3.7373 1.10056,-7.7992 1.71999,-9.0265 1.58915,-3.1485 6.34272,-7.6477 10.15601,-9.6126 7.75249,-3.9945 21.61367,-5.3724 31.24255,-3.1057 8.66143,2.039 11.79865,4.4666 17.06811,13.207 5.15442,8.5496 8.92802,12.6347 11.67126,12.6347 4.30777,0 9.67319,-4.2151 24.34964,-19.1295 17.22996,-17.5092 15.30698,-16.44096 33.2738,-18.484 9.86653,-1.12193 20.40118,-0.0679 28.09588,2.81103 9.35076,3.49857 15.31141,11.19457 17.38901,22.45147 0.57835,3.1336 1.49278,5.8446 2.03207,6.0243 0.53929,0.1798 2.16219,-2.1462 3.60646,-5.169 4.79664,-10.0389 13.33269,-17.7008 26.4962,-23.78273 18.97978,-8.7692 40.35102,-9.43807 47.95531,-1.50089 2.6592,2.77561 4.19358,6.74612 7.47859,19.35212 1.89049,7.2547 2.28329,10.3221 1.89689,14.8131 l -0.48731,5.6639 -2.48909,-7.8319 c -3.16046,-9.9444 -7.09657,-14.3241 -14.91625,-16.5973 -7.647,-2.2231 -22.7527,-1.4067 -32.69789,1.7672 -14.47609,4.6198 -27.18615,12.7065 -34.18211,21.7482 l -3.61103,4.667 -1.45979,-4.3121 c -2.79958,-8.2697 -9.99368,-14.9428 -19.73668,-18.3072 -5.258,-1.8156 -7.49988,-2.0466 -19.86852,-2.0466 -10.47703,0 -15.67414,0.4009 -20.91265,1.6131 l -6.97089,1.6131 -14.81312,15.1038 c -14.19402,14.4725 -19.23425,18.6925 -22.33412,18.6996 -0.7818,0 -2.38278,-1.2711 -3.55774,-2.8287 z"
         id="path958"
         transform="scale(0.26458333)" />
      <path
         style="fill:#008080;fill-rule:evenodd;stroke:#000000;stroke-width:4.93012;stroke-linecap:round;stroke-linejoin:round;paint-order:stroke markers fill"
         d="m 530.15764,1077.6551 c -1.234,-1.5575 -3.89093,-5.6625 -5.90429,-9.1222 -4.32258,-7.4276 -7.7319,-10.2668 -15.07204,-12.5513 -14.75572,-4.5925 -32.67629,-2.1648 -43.18451,5.8502 -3.36576,2.5672 -3.25987,3.0498 -1.98552,-9.0473 0.46913,-4.4534 1.40917,-9.1587 2.08896,-10.4564 1.56644,-2.9901 6.26673,-7.4349 9.6741,-9.1483 11.54197,-5.8039 31.3494,-5.6146 41.14614,0.3932 1.80361,1.106 4.53557,4.6467 7.59056,9.8376 4.54723,7.7264 8.94967,12.6784 11.27145,12.6784 0.58801,0 3.10474,-1.0144 5.59275,-2.2543 3.27248,-1.6307 8.07961,-5.9472 17.38045,-15.6063 7.07125,-7.3436 13.96998,-14.2273 15.33052,-15.2971 3.21237,-2.5259 10.86242,-4.1555 22.82106,-4.8611 25.26859,-1.491 39.76971,7.3242 42.04769,25.5606 0.89882,7.1956 2.71802,7.1779 6.10477,-0.059 9.20033,-19.6607 44.96111,-35.1598 66.41994,-28.7873 6.9601,2.067 9.72157,5.3247 12.87913,15.1935 4.10922,12.8432 4.81765,17.609 3.94623,26.547 l -0.76458,7.8423 -2.01787,-6.5352 c -2.60738,-8.4445 -4.74368,-12.1903 -8.36892,-14.6744 -10.60975,-7.2699 -33.66304,-5.7908 -51.94729,3.3331 -10.90688,5.4425 -19.1842,12.2193 -24.49542,20.0549 -1.3709,2.0224 -1.47987,2.0503 -1.5223,0.3889 -0.0821,-3.2135 -4.40406,-10.6247 -8.27888,-14.1964 -7.68176,-7.0808 -16.25934,-9.6864 -31.95311,-9.7064 -11.82322,-0.015 -24.31455,1.933 -28.33738,4.4193 -1.55712,0.9623 -8.38888,7.6066 -15.18169,14.7651 -11.83963,12.477 -18.7088,18.2713 -21.66082,18.2712 -0.75652,0 -2.38513,-1.2744 -3.61913,-2.8319 z"
         id="path997"
         transform="scale(0.26458333)" />
      <path
         style="fill:#008080;fill-rule:evenodd;stroke:#000000;stroke-width:4.93012;stroke-linecap:round;stroke-linejoin:round;paint-order:stroke markers fill"
         d="m 528.84598,1103.4204 c -1.21772,-1.314 -4.16826,-5.6243 -6.55674,-9.5786 -4.9405,-8.1792 -6.7798,-9.8759 -13.70485,-12.642 -4.33425,-1.7312 -6.48282,-1.9724 -17.57274,-1.9724 -14.27199,0 -19.1247,1.2806 -26.66577,7.0368 l -3.95048,3.0155 0.495,-3.9606 c 0.27225,-2.1784 0.729,-5.8181 1.01501,-8.0882 0.95034,-7.543 4.63142,-12.0847 12.98608,-16.0223 5.87506,-2.769 16.9831,-4.6579 22.53563,-3.8322 14.71669,2.1884 18.37185,4.2894 23.78307,13.6709 2.23545,3.8756 5.48759,8.5426 7.22698,10.3711 2.95683,3.1082 3.37405,3.2767 6.4149,2.5909 5.14608,-1.1606 7.11332,-2.7784 22.81866,-18.7658 16.10611,-16.3953 15.55969,-16.046 27.88354,-17.8247 13.77379,-1.9879 28.21307,-0.613 36.16467,3.4436 8.28445,4.2264 13.39565,11.7062 14.60277,21.3699 0.53705,4.2994 0.93749,5.205 2.30154,5.205 1.1327,0 2.0147,-1.0495 2.80817,-3.3414 3.98114,-11.4992 19.68388,-23.5437 38.22979,-29.3233 8.50284,-2.6499 21.98355,-3.3243 28.5117,-1.4266 9.03166,2.6256 11.03387,5.59 15.94064,23.6011 2.03342,7.464 2.24654,9.4317 1.69126,15.6147 l -0.63535,7.0745 -1.53676,-5.5785 c -3.48657,-12.6564 -7.3888,-17.1615 -17.04325,-19.6762 -20.81383,-5.4213 -53.48495,6.8868 -66.69811,25.1271 -2.13104,2.9418 -2.5375,3.1783 -3.02933,1.7627 -4.55474,-13.1099 -12.60383,-19.8379 -27.037,-22.5994 -10.10908,-1.9342 -22.35321,-1.4586 -36.03411,1.3997 -4.6613,0.9738 -5.21182,1.4257 -20.11211,16.5076 -8.90511,9.0136 -16.84775,16.2859 -18.9692,17.3682 l -3.64956,1.8619 z"
         id="path1036"
         transform="scale(0.26458333)" />
      <path
         style="fill:#008080;fill-rule:evenodd;stroke:#000000;stroke-width:4.93012;stroke-linecap:round;stroke-linejoin:round;paint-order:stroke markers fill"
         d="m 760.26206,934.53416 v -19.60561 h 3.04976 3.04976 v 19.60561 19.60561 h -3.04976 -3.04976 z"
         id="path1114"
         transform="scale(0.26458333)" />
      <path
         style="fill:#008080;fill-rule:evenodd;stroke:#000000;stroke-width:4.93012;stroke-linecap:round;stroke-linejoin:round;paint-order:stroke markers fill"
         d="m 760.26206,983.33035 v -15.24881 h 2.61408 2.61408 v 15.24881 15.24881 h -2.61408 -2.61408 z"
         id="path1153"
         transform="scale(0.26458333)" />
      <path
         style="fill:#008080;fill-rule:evenodd;stroke:#000000;stroke-width:4.93012;stroke-linecap:round;stroke-linejoin:round;paint-order:stroke markers fill"
         d="m 746.93607,1015.2338 c -3.25568,-0.849 -6.56398,-2.1881 -7.35178,-2.9759 -1.3289,-1.3289 -1.20604,-1.5269 1.70105,-2.7416 10.80597,-4.515 34.72902,-4.4729 43.59265,0.077 2.99756,1.5386 3.01729,2.3652 0.0883,3.6997 -8.26166,3.7643 -27.30967,4.7365 -38.03026,1.9411 z"
         id="path1192"
         transform="scale(0.26458333)" />
      <path
         style="fill:#008080;fill-rule:evenodd;stroke:#000000;stroke-width:4.93012;stroke-linecap:round;stroke-linejoin:round;paint-order:stroke markers fill"
         d="m 759.3907,1038.6617 v -14.8131 h 2.61408 2.61408 v 14.8131 14.8132 h -2.61408 -2.61408 z"
         id="path1231"
         transform="scale(0.26458333)" />
      <path
         style="fill:#008080;fill-rule:evenodd;stroke:#000000;stroke-width:4.93012;stroke-linecap:round;stroke-linejoin:round;paint-order:stroke markers fill"
         d="m 762.87614,1086.5866 v -14.8132 h 2.61408 2.61408 v 14.8132 14.8131 h -2.61408 -2.61408 z"
         id="path1309"
         transform="scale(0.26458333)" />
    </g>
  </g>
  <g
     inkscape:groupmode="layer"
     id="layer5"
     inkscape:label="Layer 5">
    <path
       id="path3898-3"
       style="display:inline;fill:none;fill-rule:evenodd;stroke:#333333;stroke-width:1.343;stroke-linecap:round;stroke-linejoin:round;stroke-miterlimit:4;stroke-dasharray:none;paint-order:stroke markers fill"
       d="m 144.1304,109.26293 a 6.9720114,1.9549135 0 0 1 -6.97202,1.95491 6.9720114,1.9549135 0 0 1 -6.97201,-1.95491 6.9720114,1.9549135 0 0 1 6.97201,-1.95492 6.9720114,1.9549135 0 0 1 6.97202,1.95492 z m -7.07015,15.37259 h 1.48377 c 0.21009,0 0.37923,0.21515 0.37923,0.48238 v 7.94795 c 0,0.26725 -0.16914,0.48238 -0.37923,0.48238 h -1.48377 c -0.21009,0 -0.37923,-0.21513 -0.37923,-0.48238 v -7.94795 c 0,-0.26723 0.16914,-0.48238 0.37923,-0.48238 z m -0.84083,-12.64364 h 1.48376 c 0.2101,0 0.37923,0.21514 0.37923,0.48237 v 7.94797 c 0,0.26723 -0.16913,0.48237 -0.37923,0.48237 h -1.48376 c -0.21009,0 -0.37923,-0.21514 -0.37923,-0.48237 v -7.94797 c 0,-0.26723 0.16914,-0.48237 0.37923,-0.48237 z m 0.16213,-14.642726 h 1.48376 c 0.21011,0 0.37924,0.215152 0.37924,0.482379 v 7.947957 c 0,0.26724 -0.16913,0.48238 -0.37924,0.48238 h -1.48376 c -0.21009,0 -0.37923,-0.21514 -0.37923,-0.48238 v -7.947957 c 0,-0.267227 0.16914,-0.482379 0.37923,-0.482379 z m 0,-14.117236 h 1.76405 c 0.2101,0 0.37923,0.215139 0.37923,0.482375 v 10.265265 c 0,0.267236 -0.16913,0.482376 -0.37923,0.482376 h -1.76405 c -0.21009,0 -0.37923,-0.21514 -0.37923,-0.482376 V 83.714293 c 0,-0.267236 0.16914,-0.482375 0.37923,-0.482375 z m -6.61559,24.076092 -2.37874,25.6011 v 0 m -70.907443,-0.78738 c 0.08715,1.23948 -0.108829,1.17129 0,0 m 19.099265,2.51222 c 3.15669,0.12667 8.64651,-8.67128 11.16278,-9.27107 5.24225,-1.24953 16.562398,-2.41752 16.935778,7.57183 1.97977,-7.56836 16.67626,-12.36489 21.18307,-7.76471 1.00774,1.02863 2.23613,6.36634 2.52655,7.73911 m -70.907443,-0.78738 c 1.883885,-5.45447 11.274785,-5.61395 14.828015,-3.15573 1.62592,1.12486 2.05553,4.04479 4.27125,5.66795 m -18.490305,-9.0661 c 0.08715,1.23948 -0.108835,1.17129 0,0 m 19.099265,2.51223 c 3.15669,0.12665 8.64651,-8.6713 11.16278,-9.27108 5.24224,-1.24954 16.562398,-2.41753 16.935768,7.57183 1.97978,-7.56837 16.67627,-12.36489 21.18307,-7.7647 1.00775,1.02862 2.23614,6.36632 2.52655,7.7391 m -70.907433,-0.78738 c 1.883884,-5.45448 11.274785,-5.61395 14.828005,-3.15573 1.62593,1.12485 2.05554,4.04478 4.27126,5.66796 M 57.792841,117.98993 c 0.08715,1.23948 -0.108829,1.17129 0,0 m 19.099271,2.51222 c 3.15668,0.12666 8.64651,-8.67129 11.16278,-9.27107 5.24224,-1.24954 16.562398,-2.41752 16.935768,7.57183 1.97977,-7.56837 16.67626,-12.36488 21.18307,-7.7647 1.00774,1.02862 2.23614,6.36633 2.52655,7.73911 m -70.907439,-0.78739 c 1.883886,-5.45449 11.274791,-5.61396 14.828011,-3.15573 1.62592,1.12485 2.05554,4.04477 4.27126,5.66795 m -18.528373,-8.6565 c 0.08715,1.23949 -0.108829,1.17129 0,0 m 19.099263,2.51223 c 3.15669,0.12666 8.64652,-8.67129 11.16279,-9.27107 5.24224,-1.24953 16.562398,-2.41753 16.935768,7.57183 1.97977,-7.56837 16.67626,-12.36489 21.18306,-7.76471 1.00776,1.02862 2.23614,6.36633 2.52655,7.73911 m -70.907431,-0.78739 c 1.883891,-5.45449 11.274793,-5.61394 14.828013,-3.15573 1.62592,1.12486 2.05554,4.04479 4.27125,5.66796 m 0.49478,-5.32503 c 3.15669,0.12665 8.64652,-8.6713 11.16278,-9.271077 5.24225,-1.249525 16.562398,-2.417522 16.935778,7.571827 1.97977,-7.568365 16.67626,-12.364877 21.18307,-7.764709 1.00775,1.028629 2.23613,6.366339 2.52655,7.739119 m -70.90744,-0.78739 c 1.883885,-5.45448 11.274782,-5.61395 14.828012,-3.15573 1.62592,1.12486 2.05554,4.04478 4.27125,5.66796 M 58.85852,106.52062 c -0.108829,1.17128 0.08715,1.23949 0,0 l -2.378743,25.60111" />
  </g>
</svg>
