<?xml version="1.0" encoding="UTF-8" standalone="no"?>
<!-- Created with Inkscape (http://www.inkscape.org/) -->

<svg
   width="210mm"
   height="297mm"
   viewBox="0 0 210 297"
   version="1.1"
   id="svg5"
   inkscape:version="1.1.1 (3bf5ae0d25, 2021-09-20)"
   sodipodi:docname="Cardinal.svg"
   xmlns:inkscape="http://www.inkscape.org/namespaces/inkscape"
   xmlns:sodipodi="http://sodipodi.sourceforge.net/DTD/sodipodi-0.dtd"
   xmlns="http://www.w3.org/2000/svg"
   xmlns:svg="http://www.w3.org/2000/svg">
  <sodipodi:namedview
     id="namedview7"
     pagecolor="#ffffff"
     bordercolor="#666666"
     borderopacity="1.0"
     inkscape:pageshadow="2"
     inkscape:pageopacity="0.0"
     inkscape:pagecheckerboard="0"
     inkscape:document-units="mm"
     showgrid="false"
     inkscape:zoom="0.62270623"
     inkscape:cx="396.65574"
     inkscape:cy="429.57656"
     inkscape:window-width="1680"
     inkscape:window-height="956"
     inkscape:window-x="-11"
     inkscape:window-y="-11"
     inkscape:window-maximized="1"
     inkscape:current-layer="layer1" />
  <defs
     id="defs2">
    <inkscape:path-effect
       effect="spiro"
       id="path-effect1988"
       is_visible="true"
       lpeversion="1" />
    <inkscape:path-effect
       effect="spiro"
       id="path-effect1984"
       is_visible="true"
       lpeversion="1" />
    <inkscape:path-effect
       effect="spiro"
       id="path-effect1012"
       is_visible="true"
       lpeversion="1" />
    <inkscape:path-effect
       effect="spiro"
       id="path-effect1006"
       is_visible="true"
       lpeversion="1" />
  </defs>
  <g
     inkscape:label="Layer 1"
     inkscape:groupmode="layer"
     id="layer1">
    <path
       id="rect2360"
       style="fill:none;stroke:#000000;stroke-width:0.829521;stroke-linecap:round;stroke-linejoin:round;stroke-miterlimit:4;stroke-dasharray:none;stroke-opacity:0.955017;paint-order:stroke markers fill"
       d="m 41.834467,5.7355037 h 11.804472 c 1.099784,0 1.985162,0.913211 1.985162,2.047557 v 0.786068 c 0,1.134346 -0.885378,2.0475563 -1.985162,2.0475563 H 41.834467 c -1.099781,0 -1.985165,-0.9132103 -1.985165,-2.0475563 v -0.786068 c 0,-1.134346 0.885384,-2.047557 1.985165,-2.047557 z m -1.40896,26.9507913 c 1.931256,0.04686 4.250819,-0.381196 5.591013,1.448989 1.805527,2.287566 0.843834,6.542116 -2.205432,7.072215 -1.620671,0.07547 -3.32551,0.275671 -4.893977,-0.231788 -3.327549,-1.323707 -3.125859,-7.132743 0.355709,-8.11064 0.37255,-0.119187 0.762691,-0.178964 1.152687,-0.178776 z M 27.607744,3.4039377 c 3.02304,0.04779 6.058002,-0.09941 9.072989,0.08077 2.966516,0.4792 4.142117,4.74952 1.956132,6.8238263 -1.683731,1.733662 -4.170808,1.011455 -6.293385,1.165948 -1.96095,-0.07526 -3.953977,0.175609 -5.888419,-0.178776 C 23.405157,10.48278 22.766514,5.7648077 25.4422,4.0834847 c 0.634419,-0.443639 1.399363,-0.681805 2.165544,-0.67955 z m -2.97031,1.681134 C 15.878106,5.6097737 7.7504728,12.085796 5.2635848,20.802462 c -2.48051,7.779565 -0.301934,16.795645 5.3118072,22.558501 6.321268,6.745725 16.921106,8.630444 25.036457,4.354527 2.94225,-1.487478 5.56958,-3.647892 7.593211,-6.30924 -1.091517,-0.846328 -1.844466,1.860029 -2.963348,2.31213 -5.544409,5.237486 -13.861758,7.062159 -20.967083,4.475403 C 10.672477,45.378343 4.5526518,36.30334 4.8922068,27.018153 5.0234898,19.233349 9.4914008,11.711284 16.256447,8.2025137 c 2.603525,-1.405533 5.487311,-2.271144 8.42232,-2.4675 -0.01377,-0.216648 -0.02755,-0.433295 -0.04133,-0.649942 z m -0.337185,4.849505 C 16.519211,10.588764 9.6191308,17.053073 8.3901878,25.031015 6.7713558,33.386743 11.680147,42.437135 19.431567,45.385065 26.134745,48.227 34.353593,46.202653 39.160297,40.632153 37.850216,39.871132 36.541034,43.053619 34.93221,43.389671 28.448259,47.667099 19.284279,46.56337 13.884433,40.928332 8.7444678,35.836876 7.2467248,27.369365 10.357974,20.747774 c 2.476289,-5.635628 8.04578,-9.605424 14.000285,-10.164751 -0.01933,-0.216149 -0.03868,-0.432297 -0.05801,-0.6484463 z M 42.41067,16.656816 h 0.370583 c 1.099785,0 1.985168,0.913211 1.985168,2.047562 v 11.934355 c 0,1.134352 -0.885383,2.047562 -1.985168,2.047562 H 42.41067 c -1.099781,0 -1.985163,-0.91321 -1.985163,-2.047562 V 18.704378 c 0,-1.134351 0.885382,-2.047562 1.985163,-2.047562 z" />
    <path
       style="fill:#000000;stroke:#000000;stroke-width:4.64318;stroke-linecap:round;stroke-linejoin:round;stroke-opacity:0.955017;paint-order:stroke markers fill"
       d=""
       id="path902"
       transform="scale(0.26458333)" />
    <g
       id="g1456">
      <path
         id="path1079"
         style="fill:none;stroke:#000000;stroke-width:0.829521;stroke-linecap:round;stroke-linejoin:round;stroke-miterlimit:4;stroke-dasharray:none;stroke-opacity:0.955017;paint-order:stroke markers fill"
         d="m 45.658501,247.07456 h 11.804472 c 1.099784,0 1.985162,0.91321 1.985162,2.04756 v 0.78606 c 0,1.13435 -0.885378,2.04756 -1.985162,2.04756 H 45.658501 c -1.099781,0 -1.985165,-0.91321 -1.985165,-2.04756 v -0.78606 c 0,-1.13435 0.885384,-2.04756 1.985165,-2.04756 z m -1.40896,26.95079 c 1.931256,0.0469 4.250819,-0.3812 5.591013,1.44899 1.805527,2.28757 0.843834,6.54212 -2.205432,7.07221 -1.620671,0.0755 -3.32551,0.27568 -4.893977,-0.23178 -3.327549,-1.32371 -3.125859,-7.13275 0.355709,-8.11064 0.37255,-0.11919 0.762691,-0.17897 1.152687,-0.17878 z M 31.431778,244.74299 c 3.02304,0.0478 6.058002,-0.0994 9.072989,0.0808 2.966516,0.4792 4.142117,4.74952 1.956132,6.82383 -1.683731,1.73366 -4.170808,1.01145 -6.293385,1.16595 -1.96095,-0.0753 -3.953977,0.17561 -5.888419,-0.17878 -3.049904,-0.81292 -3.688547,-5.5309 -1.012861,-7.21222 0.634419,-0.44364 1.399363,-0.6818 2.165544,-0.67955 z m -2.97031,1.68114 c -8.759328,0.5247 -16.886961,7.00072 -19.3738489,15.71739 -2.48051,7.77956 -0.301934,16.79564 5.3118069,22.5585 6.321268,6.74572 16.921106,8.63044 25.036457,4.35453 2.94225,-1.48748 5.56958,-3.6479 7.593211,-6.30924 -1.091517,-0.84633 -1.844466,1.86002 -2.963348,2.31213 -5.544409,5.23748 -13.861758,7.06215 -20.967083,4.4754 C 14.496511,286.7174 8.3766861,277.6424 8.7162411,268.35721 c 0.131283,-7.78481 4.5991939,-15.30687 11.3642399,-18.81564 2.603525,-1.40553 5.487311,-2.27114 8.42232,-2.4675 -0.01377,-0.21665 -0.02755,-0.4333 -0.04133,-0.64994 z m -0.337185,4.8495 c -7.781038,0.65419 -14.681118,7.1185 -15.910061,15.09644 -1.618832,8.35573 3.289959,17.40612 11.041379,20.35405 6.703178,2.84194 14.922026,0.81759 19.72873,-4.75291 -1.310081,-0.76102 -2.619263,2.42146 -4.228087,2.75752 -6.483951,4.27742 -15.647931,3.1737 -21.047777,-2.46134 -5.139965,-5.09146 -6.637708,-13.55897 -3.526459,-20.18056 2.476289,-5.63563 8.04578,-9.60542 14.000285,-10.16475 -0.01933,-0.21615 -0.03868,-0.4323 -0.05801,-0.64845 z m 18.110421,6.72224 h 0.370583 c 1.099785,0 1.985168,0.91321 1.985168,2.04756 v 11.93436 c 0,1.13435 -0.885383,2.04756 -1.985168,2.04756 h -0.370583 c -1.099781,0 -1.985163,-0.91321 -1.985163,-2.04756 v -11.93436 c 0,-1.13435 0.885382,-2.04756 1.985163,-2.04756 z" />
      <path
         style="fill:#ffffff;stroke:#000000;stroke-width:4.64318;stroke-linecap:round;stroke-linejoin:round;stroke-opacity:0.955017;paint-order:stroke markers fill"
         d="m 161.94572,1063.7194 c -5.69576,-3.0097 -7.88355,-9.5673 -5.56607,-16.6836 2.3363,-7.1741 7.73547,-9.9397 17.76532,-9.0996 14.46799,1.2117 20.25854,14.0808 10.65633,23.6831 -3.82762,3.8276 -5.97683,4.6627 -11.64273,4.5238 -3.82171,-0.094 -8.8675,-1.1844 -11.21285,-2.4237 z"
         id="path1136"
         transform="scale(0.26458333)" />
      <path
         style="fill:#ffffff;stroke:#000000;stroke-width:4.64318;stroke-linecap:round;stroke-linejoin:round;stroke-opacity:0.955017;paint-order:stroke markers fill"
         d="m 170.93365,1030.5148 c -0.4379,-1.1411 -0.59588,-13.2455 -0.35107,-26.8987 0.44463,-24.79786 0.44912,-24.82447 4.27822,-25.36588 2.10822,-0.29808 4.44577,0.42457 5.19456,1.6059 1.54655,2.4399 1.92747,46.30628 0.43587,50.19338 -1.16949,3.0476 -8.43099,3.4012 -9.55758,0.4653 z"
         id="path1175"
         transform="scale(0.26458333)" />
      <path
         style="fill:#ffffff;stroke:#000000;stroke-width:4.64318;stroke-linecap:round;stroke-linejoin:round;stroke-opacity:0.955017;paint-order:stroke markers fill"
         d="m 169.53649,948.16551 c -1.38795,-1.38795 -2.52355,-3.82875 -2.52355,-5.42399 0,-5.85904 3.5455,-6.60739 29.12224,-6.14686 l 24.6752,0.4443 0.53924,4.73849 c 0.89089,7.82859 -2.41817,8.91161 -27.22871,8.91161 -17.91415,0 -22.53522,-0.47435 -24.58442,-2.52355 z"
         id="path1214"
         transform="scale(0.26458333)" />
      <path
         style="fill:#ffffff;stroke:#000000;stroke-width:4.64318;stroke-linecap:round;stroke-linejoin:round;stroke-opacity:0.955017;paint-order:stroke markers fill"
         d="m 117.23024,952.81693 c -8.49507,-1.72412 -13.64484,-11.26325 -8.90691,-16.4986 1.36969,-1.51349 2.10998,-3.13216 1.64508,-3.59705 -0.46489,-0.4649 0.36974,-1.85156 1.85474,-3.08147 1.98769,-1.64626 7.96591,-2.23621 22.66051,-2.23621 19.87983,0 19.97618,0.0182 23.83606,4.50576 5.07407,5.89918 4.98841,12.35667 -0.22892,17.2581 -3.72311,3.49768 -5.62551,3.88421 -20.47515,4.16012 -9.00387,0.16729 -18.17731,-0.0625 -20.38541,-0.51065 z"
         id="path1292"
         transform="scale(0.26458333)" />
      <path
         style="fill:#ffffff;stroke:#000000;stroke-width:4.64318;stroke-linecap:round;stroke-linejoin:round;stroke-opacity:0.955017;paint-order:stroke markers fill"
         d="m 100.36836,1095.1567 c -31.183183,-6.3923 -54.543221,-28.8248 -62.579011,-60.0941 -6.799121,-26.4572 1.689398,-56.37229 21.656973,-76.32321 12.906548,-12.89578 38.446093,-24.51433 41.900998,-19.06177 3.29547,5.20095 1.50181,7.55108 -7.804013,10.22511 -18.556562,5.33224 -35.32492,20.09394 -44.266492,38.96913 -4.865073,10.26992 -5.114739,11.73764 -5.114739,30.06764 0,18.2649 0.261075,19.8156 5.001937,29.7091 2.751066,5.741 7.310577,13.3016 10.132249,16.8013 22.720809,28.1799 64.964428,33.19 94.780318,11.2408 7.14602,-5.2606 10.54286,-6.8672 12.36443,-5.8478 2.05785,1.1517 1.24847,2.4308 -4.48035,7.0807 -9.78686,7.9437 -22.40348,13.9434 -34.88457,16.5889 -11.73452,2.4873 -17.08711,2.6163 -26.70773,0.6442 z"
         id="path1331"
         transform="scale(0.26458333)" />
    </g>
    <path
       style="fill:#008000;stroke:#000000;stroke-width:4.64318;stroke-linecap:round;stroke-linejoin:round;stroke-opacity:0.955017;paint-order:stroke markers fill"
       d=""
       id="path1669"
       transform="scale(0.26458333)" />
    <path
       style="fill:#008000;stroke:#000000;stroke-width:4.64318;stroke-linecap:round;stroke-linejoin:round;stroke-opacity:0.955017;paint-order:stroke markers fill"
       d=""
       id="path1708"
       transform="scale(0.26458333)" />
    <g
       id="g1987">
      <path
         id="path1458"
         style="fill:none;stroke:#000000;stroke-width:0.829521;stroke-linecap:round;stroke-linejoin:round;stroke-miterlimit:4;stroke-dasharray:none;stroke-opacity:0.955017;paint-order:stroke markers fill"
         d="m 189.27223,244.5252 h 11.80448 c 1.09978,0 1.98516,0.91321 1.98516,2.04756 v 0.78607 c 0,1.13434 -0.88538,2.04755 -1.98516,2.04755 h -11.80448 c -1.09978,0 -1.98516,-0.91321 -1.98516,-2.04755 v -0.78607 c 0,-1.13435 0.88538,-2.04756 1.98516,-2.04756 z m -1.40896,26.95079 c 1.93126,0.0469 4.25082,-0.38119 5.59102,1.44899 1.80552,2.28757 0.84383,6.54212 -2.20543,7.07222 -1.62068,0.0755 -3.32551,0.27567 -4.89398,-0.23179 -3.32755,-1.32371 -3.12586,-7.13274 0.35571,-8.11064 0.37255,-0.11919 0.76269,-0.17896 1.15268,-0.17878 z m -12.81776,-29.28235 c 3.02304,0.0478 6.058,-0.0994 9.07299,0.0808 2.96652,0.4792 4.14212,4.74952 1.95613,6.82382 -1.68373,1.73367 -4.17081,1.01146 -6.29338,1.16595 -1.96095,-0.0753 -3.95398,0.17561 -5.88842,-0.17877 -3.04991,-0.81293 -3.68855,-5.5309 -1.01286,-7.21223 0.63442,-0.44364 1.39936,-0.6818 2.16554,-0.67955 z m -2.97031,1.68113 c -8.75933,0.5247 -16.88696,7.00073 -19.37385,15.71739 -2.48051,7.77957 -0.30193,16.79565 5.31181,22.5585 6.32127,6.74573 16.92111,8.63045 25.03646,4.35453 2.94225,-1.48748 5.56958,-3.64789 7.59321,-6.30924 -1.09152,-0.84633 -1.84447,1.86003 -2.96335,2.31213 -5.54441,5.23749 -13.86176,7.06216 -20.96708,4.4754 -8.60216,-2.81544 -14.72198,-11.89044 -14.38243,-21.17563 0.13129,-7.7848 4.5992,-15.30687 11.36424,-18.81564 2.60353,-1.40553 5.48732,-2.27114 8.42232,-2.4675 -0.0138,-0.21665 -0.0276,-0.43329 -0.0413,-0.64994 z m -0.33718,4.84951 c -7.78104,0.65418 -14.68112,7.11849 -15.91006,15.09643 -1.61884,8.35573 3.28995,17.40612 11.04137,20.35405 6.70318,2.84194 14.92203,0.81759 19.72873,-4.75291 -1.31008,-0.76102 -2.61926,2.42147 -4.22808,2.75752 -6.48395,4.27743 -15.64793,3.1737 -21.04778,-2.46134 -5.13996,-5.09145 -6.63771,-13.55897 -3.52646,-20.18056 2.47629,-5.63562 8.04578,-9.60542 14.00029,-10.16475 -0.0193,-0.21615 -0.0387,-0.43229 -0.058,-0.64844 z m 18.11042,6.72224 h 0.37058 c 1.09979,0 1.98517,0.91321 1.98517,2.04756 v 11.93435 c 0,1.13435 -0.88538,2.04756 -1.98517,2.04756 h -0.37058 c -1.09978,0 -1.98517,-0.91321 -1.98517,-2.04756 v -11.93435 c 0,-1.13435 0.88539,-2.04756 1.98517,-2.04756 z" />
      <path
         style="fill:#00ff00;stroke:#000000;stroke-width:4.64318;stroke-linecap:round;stroke-linejoin:round;stroke-opacity:0.955017;paint-order:stroke markers fill"
         d="m 643.16042,1085.5213 c -31.18318,-6.3923 -54.54322,-28.8248 -62.57901,-60.0941 -6.79912,-26.45715 1.6894,-56.37226 21.65698,-76.32317 12.90654,-12.89578 38.44609,-24.51433 41.90099,-19.06177 3.29548,5.20095 1.50181,7.55108 -7.80401,10.22511 -18.55656,5.33224 -35.32492,20.09393 -44.26649,38.96913 -4.86507,10.26992 -5.11474,11.73761 -5.11474,30.0677 0,18.2649 0.26108,19.8155 5.00194,29.709 2.75106,5.7411 7.31057,13.3017 10.13225,16.8013 22.72081,28.18 64.96442,33.19 94.78032,11.2408 7.14602,-5.2606 10.54285,-6.8671 12.36442,-5.8477 2.05786,1.1516 1.24848,2.4307 -4.48035,7.0807 -9.78685,7.9437 -22.40348,13.9433 -34.88457,16.5888 -11.73452,2.4873 -17.08711,2.6164 -26.70773,0.6442 z"
         id="path1515"
         transform="scale(0.26458333)" />
      <path
         style="fill:#008000;stroke:#000000;stroke-width:4.64318;stroke-linecap:round;stroke-linejoin:round;stroke-opacity:0.955017;paint-order:stroke markers fill"
         d="m 660.0223,943.18157 c -8.49506,-1.72412 -13.64484,-11.26325 -8.9069,-16.49861 1.36968,-1.51348 2.10997,-3.13215 1.64508,-3.59705 -0.46489,-0.46489 0.36974,-1.85155 1.85473,-3.08146 1.98769,-1.64626 7.96592,-2.23621 22.66051,-2.23621 19.87983,0 19.97618,0.0182 23.83606,4.50576 5.07407,5.89918 4.98842,12.35667 -0.22892,17.2581 -3.72311,3.49768 -5.62551,3.88421 -20.47514,4.16011 -9.00388,0.1673 -18.17731,-0.0625 -20.38542,-0.51064 z"
         id="path1591"
         transform="scale(0.26458333)" />
      <path
         style="fill:#008000;stroke:#000000;stroke-width:4.64318;stroke-linecap:round;stroke-linejoin:round;stroke-opacity:0.955017;paint-order:stroke markers fill"
         d="m 704.73779,1054.084 c -5.69577,-3.0097 -7.88356,-9.5673 -5.56608,-16.6836 2.33631,-7.1741 7.73547,-9.9396 17.76532,-9.0996 14.468,1.2117 20.25854,14.0809 10.65634,23.6831 -3.82763,3.8276 -5.97683,4.6627 -11.64273,4.5238 -3.82172,-0.094 -8.8675,-1.1843 -11.21285,-2.4237 z"
         id="path1630"
         transform="scale(0.26458333)" />
      <path
         style="fill:#999999;stroke:#000000;stroke-width:4.64318;stroke-linecap:round;stroke-linejoin:round;stroke-opacity:0.955017;paint-order:stroke markers fill"
         d="m 712.32855,938.53015 c -1.38795,-1.38795 -2.52354,-3.82875 -2.52354,-5.42399 0,-5.85904 3.5455,-6.60739 29.12223,-6.14686 l 24.67521,0.4443 0.53924,4.73849 c 0.89089,7.82859 -2.41818,8.91161 -27.22872,8.91161 -17.91414,0 -22.53521,-0.47435 -24.58442,-2.52355 z"
         id="path1823"
         transform="scale(0.26458333)" />
      <path
         style="fill:#999999;stroke:#000000;stroke-width:4.64318;stroke-linecap:round;stroke-linejoin:round;stroke-opacity:0.955017;paint-order:stroke markers fill"
         d="m 713.72571,1020.8795 c -0.43789,-1.1412 -0.59587,-13.2456 -0.35107,-26.89874 0.44463,-24.79788 0.44912,-24.82449 4.27822,-25.3659 2.10822,-0.29809 4.44578,0.42457 5.19457,1.60589 1.54654,2.43991 1.92747,46.30625 0.43586,50.19335 -1.16949,3.0476 -8.43099,3.4012 -9.55758,0.4654 z"
         id="path1862"
         transform="scale(0.26458333)" />
    </g>
    <path
       style="fill:#000000;stroke-width:0.264583"
       d="m 172.05672,50.763641 c -8.8737,-1.73956 -15.46961,-7.98828 -17.89803,-16.95592 -0.81685,-3.01647 -0.81746,-8.62095 -0.001,-11.64167 2.05924,-7.62118 7.69196,-13.7256792 14.85659,-16.1009351 1.0914,-0.361829 2.56986,-0.743414 3.28546,-0.847966 0.79352,-0.115938 1.75668,-0.511233 2.46897,-1.013304 l 1.1679,-0.823209 h 5.64756 c 5.30766,0 5.69251,0.03318 6.39456,0.551278 0.41085,0.303203 0.98513,0.924172 1.27617,1.37993 0.36501,0.57158 0.65229,0.769923 0.92604,0.639347 0.72226,-0.344506 13.53133,-0.370232 14.35554,-0.02883 0.94729,0.392379 1.51946,1.482742 1.51946,2.8955539 0,0.89585 -0.16557,1.2635052 -0.89958,1.9975142 l -0.89958,0.899584 -6.5749,-9.79e-4 c -6.09401,-9.26e-4 -6.63796,-0.03944 -7.43721,-0.526749 l -0.86231,-0.525759 -0.54994,0.549939 c -1.13758,1.137575 -2.05416,1.297295 -7.4445,1.297295 -4.45019,0 -5.22228,-0.0624 -6.01244,-0.486204 -0.81878,-0.439118 -1.06365,-0.453284 -2.52826,-0.146275 -3.72719,0.781279 -7.08559,2.705539 -9.49726,5.441629 -1.43872,1.63225 -3.15089,4.94967 -3.72576,7.21884 -0.57206,2.25804 -0.5149,6.22161 0.12586,8.72694 1.39595,5.45814 5.56484,9.99202 10.85172,11.80184 2.32774,0.79684 6.35939,0.98707 8.79424,0.41496 2.27122,-0.53367 5.6336,-2.22831 6.76765,-3.41091 l 0.87752,-0.91508 -0.53921,-0.88665 c -1.61391,-2.65386 -0.3812,-6.59775 2.31444,-7.40473 l 0.96765,-0.28968 -0.0782,-7.10426 -0.0782,-7.10426 0.7841,-0.87756 c 0.67077,-0.75072 0.95845,-0.87756 1.99041,-0.87756 0.9655,0 1.35277,0.14642 1.93994,0.73345 l 0.73362,0.73346 -0.005,6.93946 c -0.002,3.81671 -0.0993,7.18319 -0.21525,7.48107 -0.16646,0.42776 -0.0663,0.61893 0.47655,0.90945 1.64309,0.87935 2.4352,3.79477 1.61473,5.94313 -0.46629,1.221 -1.98151,2.79227 -2.69264,2.79227 -0.2232,0 -1.31138,0.90264 -2.41818,2.00586 -3.22846,3.21799 -6.76851,5.31424 -10.65134,6.3072 -2.38083,0.60886 -6.82905,0.75918 -9.12812,0.30849 z"
       id="path2117" />
  </g>
</svg>
