<?xml version="1.0" encoding="UTF-8" standalone="no"?>
<!-- Created with Inkscape (http://www.inkscape.org/) -->

<svg
   width="210mm"
   height="297mm"
   viewBox="0 0 210 297"
   version="1.1"
   id="svg5"
   inkscape:version="1.1.2 (0a00cf5339, 2022-02-04, custom)"
   sodipodi:docname="zam headphone plugins icon svg.svg"
   xmlns:inkscape="http://www.inkscape.org/namespaces/inkscape"
   xmlns:sodipodi="http://sodipodi.sourceforge.net/DTD/sodipodi-0.dtd"
   xmlns="http://www.w3.org/2000/svg"
   xmlns:svg="http://www.w3.org/2000/svg">
  <sodipodi:namedview
     id="namedview7"
     pagecolor="#ffffff"
     bordercolor="#666666"
     borderopacity="1.0"
     inkscape:pageshadow="2"
     inkscape:pageopacity="0.0"
     inkscape:pagecheckerboard="0"
     inkscape:document-units="mm"
     showgrid="false"
     inkscape:zoom="0.62270623"
     inkscape:cx="496.22115"
     inkscape:cy="365.34081"
     inkscape:window-width="1680"
     inkscape:window-height="956"
     inkscape:window-x="-11"
     inkscape:window-y="-11"
     inkscape:window-maximized="1"
     inkscape:current-layer="layer1-3" />
  <defs
     id="defs2">
    <inkscape:path-effect
       effect="spiro"
       id="path-effect1988"
       is_visible="true"
       lpeversion="1" />
    <inkscape:path-effect
       effect="spiro"
       id="path-effect1984"
       is_visible="true"
       lpeversion="1" />
    <inkscape:path-effect
       effect="spiro"
       id="path-effect1012"
       is_visible="true"
       lpeversion="1" />
    <inkscape:path-effect
       effect="spiro"
       id="path-effect1006"
       is_visible="true"
       lpeversion="1" />
    <inkscape:path-effect
       effect="skeletal"
       id="path-effect2685"
       is_visible="true"
       lpeversion="1"
       pattern="m 58.28998,172.24478 a 5.2513594,24.943956 0 0 0 -5.251357,24.9437 5.2513594,24.943956 0 0 0 5.251357,24.94421 5.2513594,24.943956 0 0 0 5.222423,-22.46478 4.3323711,12.734546 0 0 0 4.090704,8.54832 4.3323711,12.734546 0 0 0 4.080889,-8.4708 3.4133835,18.511041 0 0 0 3.398242,16.87339 3.4133835,18.511041 0 0 0 3.413744,-18.51154 3.4133835,18.511041 0 0 0 -3.413744,-18.51101 3.4133835,18.511041 0 0 0 -3.258199,13.02143 4.3323711,12.734546 0 0 0 -4.220932,-9.8702 4.3323711,12.734546 0 0 0 -4.173386,9.32914 5.2513594,24.943956 0 0 0 -5.139741,-19.83186 z m 23.741706,1.0511 a 3.2642492,27.157936 0 0 0 -3.264403,27.15803 3.2642492,27.157936 0 0 0 3.264403,27.15803 3.2642492,27.157936 0 0 0 3.263881,-27.15803 3.2642492,27.157936 0 0 0 -3.263881,-27.15803 z m 8.283731,4.36459 a 4.5949391,20.611585 0 0 0 -4.594551,20.61166 4.5949391,20.611585 0 0 0 4.594551,20.61166 4.5949391,20.611585 0 0 0 4.479313,-16.06206 2.6876428,11.347825 0 0 0 2.667537,9.9999 2.6876428,11.347825 0 0 0 2.687693,-11.34814 2.6876428,11.347825 0 0 0 -2.687693,-11.34763 2.6876428,11.347825 0 0 0 -2.552816,7.80469 4.5949391,20.611585 0 0 0 -4.594034,-20.27008 z"
       copytype="repeated_stretched"
       prop_scale="1"
       scale_y_rel="false"
       spacing="0"
       normal_offset="0"
       tang_offset="0"
       prop_units="false"
       vertical_pattern="false"
       hide_knot="false"
       fuse_tolerance="0" />
    <inkscape:path-effect
       effect="skeletal"
       id="path-effect2303"
       is_visible="true"
       lpeversion="1"
       pattern="m 146.73472,184.3227 a 5.3871686,8.9273109 0 0 1 -5.38717,8.92731 5.3871686,8.9273109 0 0 1 -5.38716,-8.92731 5.3871686,8.9273109 0 0 1 5.38716,-8.92731 5.3871686,8.9273109 0 0 1 5.38717,8.92731 z m -11.13621,-1.57539 a 6.756869,19.445662 0 0 1 -6.75687,19.44566 6.756869,19.445662 0 0 1 -6.75688,-19.44566 6.756869,19.445662 0 0 1 6.75688,-19.44566 6.756869,19.445662 0 0 1 6.75687,19.44566 z m -12.555,0.17807 a 4.7838121,27.157936 0 0 1 -4.78381,27.15793 4.7838121,27.157936 0 0 1 -4.78381,-27.15793 4.7838121,27.157936 0 0 1 4.78381,-27.15794 4.7838121,27.157936 0 0 1 4.78381,27.15794 z m -10.94057,-2.14733 a 5.0023708,18.511042 0 0 1 -5.00237,18.51105 5.0023708,18.511042 0 0 1 -5.00237,-18.51105 5.0023708,18.511042 0 0 1 5.00237,-18.51104 5.0023708,18.511042 0 0 1 5.00237,18.51104 z m -10.38954,-2.6257 a 6.3491627,12.734547 0 0 1 -6.349162,12.73455 6.3491627,12.734547 0 0 1 -6.349164,-12.73455 6.3491627,12.734547 0 0 1 6.349164,-12.73454 6.3491627,12.734547 0 0 1 6.349162,12.73454 z m -13.852734,1.7067 a 7.6959554,24.943956 0 0 1 -7.695955,24.94395 7.6959554,24.943956 0 0 1 -7.695956,-24.94395 7.6959554,24.943956 0 0 1 7.695956,-24.94396 7.6959554,24.943956 0 0 1 7.695955,24.94396 z"
       copytype="repeated_stretched"
       prop_scale="1"
       scale_y_rel="false"
       spacing="0"
       normal_offset="0"
       tang_offset="0"
       prop_units="false"
       vertical_pattern="false"
       hide_knot="false"
       fuse_tolerance="0" />
    <inkscape:path-effect
       effect="bend_path"
       id="path-effect2970"
       is_visible="true"
       lpeversion="1"
       bendpath="m 43.763949,70.10731 c -2.161977,107.01546 130.764381,120.38147 134.266091,0"
       prop_scale="1"
       scale_y_rel="false"
       vertical="false"
       hide_knot="false"
       bendpath-nodetypes="cc" />
    <inkscape:path-effect
       effect="bend_path"
       id="path-effect2565"
       is_visible="true"
       lpeversion="1"
       bendpath="m 22.094421,77.755379 c 47.268841,63.835791 105.047969,86.291981 159.759649,0"
       prop_scale="1"
       scale_y_rel="false"
       vertical="false"
       hide_knot="false"
       bendpath-nodetypes="cc" />
    <inkscape:path-effect
       effect="bend_path"
       id="path-effect2004"
       is_visible="true"
       lpeversion="1"
       bendpath="m 27.618026,97.300446 c 45.668773,25.787114 97.134884,31.863294 159.759654,0"
       prop_scale="1"
       scale_y_rel="false"
       vertical="false"
       hide_knot="false"
       bendpath-nodetypes="cc" />
    <inkscape:path-effect
       effect="bend_path"
       id="path-effect969"
       is_visible="true"
       lpeversion="1"
       bendpath="M 65.435059,87.740334 C 56.61074,15.763533 192.01306,8.7605155 192.47641,90.28969"
       prop_scale="1"
       scale_y_rel="false"
       vertical="false"
       hide_knot="false"
       bendpath-nodetypes="cc" />
    <clipPath
       clipPathUnits="userSpaceOnUse"
       id="clipPath3020">
      <path
         id="path3022"
         style="fill:none;stroke:#000000;stroke-width:4.36913;stroke-linecap:round;stroke-linejoin:round;stroke-opacity:0.955017;paint-order:stroke markers fill"
         d="M 163.66406,761.68555 V 1065.4688 H 466.69922 V 761.68555 Z m 173.56446,59.24414 c 0.77669,-0.0209 1.63719,0.25746 2.48242,0.8789 0.56185,0.0449 1.13695,0.23718 1.68554,0.65039 0.8121,0.37729 1.81694,0.94292 3.04883,1.72852 0.96019,-0.48146 0.95653,-0.74828 0.92188,0.59961 0.004,0.003 0.008,0.005 0.0117,0.008 0.57301,0.38127 0.43726,0.99724 -0.0215,1.66406 0.01,1.54659 0.0321,3.09257 0.0508,4.63868 0.44759,1.65154 0.68402,3.52607 0.88282,5.20703 0.21064,-1.32964 1.41183,1.81559 1.49804,2.44726 0.0563,0.41239 -0.16765,-0.96607 -0.55468,-1.11914 -1.26395,-0.49947 -2.66603,-0.51402 -4.00977,-0.73437 -0.75802,0.16747 -1.38234,0.22463 -1.94531,0.23047 0.68402,1.56123 11.16908,7.10027 5.2539,6.38476 -1.54015,-0.18622 -3.18316,0.0238 -4.62109,-0.55859 -0.69052,-0.27969 -2.94658,-5.49603 -3.09961,-5.82031 -0.19588,-1.99194 0.15965,1.51612 -0.17969,-0.95508 -0.66772,-0.74206 -0.95418,-1.82636 -1.16015,-3.03321 -0.0258,-0.15103 0.0768,-0.30471 0.0605,-0.45703 -0.0654,-0.61156 -0.19003,-1.0651 -0.30273,-1.55078 -0.31282,-0.50473 -0.64254,-1.00197 -0.9668,-1.5 -0.47247,-0.18941 -0.86572,0.19238 -1.10547,1.75195 l -0.17773,1.16211 c 0.20668,-1.40749 -1.05244,-3.54982 -0.70703,-4.74804 0.20295,-0.70403 0.29001,-0.81804 0.43554,-1.29688 -1.0269,-3.34538 0.44302,-5.5222 2.51954,-5.57812 z" />
    </clipPath>
  </defs>
  <g
     inkscape:label="Layer 1"
     inkscape:groupmode="layer"
     id="layer1">
    <path
       style="fill:#000000;stroke:#000000;stroke-width:4.64318;stroke-linecap:round;stroke-linejoin:round;stroke-opacity:0.955017;paint-order:stroke markers fill"
       d=""
       id="path902"
       transform="scale(0.26458333)" />
    <path
       style="fill:#008000;stroke:#000000;stroke-width:4.64318;stroke-linecap:round;stroke-linejoin:round;stroke-opacity:0.955017;paint-order:stroke markers fill"
       d=""
       id="path1669"
       transform="scale(0.26458333)" />
    <path
       style="fill:#008000;stroke:#000000;stroke-width:4.64318;stroke-linecap:round;stroke-linejoin:round;stroke-opacity:0.955017;paint-order:stroke markers fill"
       d=""
       id="path1708"
       transform="scale(0.26458333)" />
    <path
       id="path2242"
       style="fill:none;fill-rule:evenodd;stroke:#000000;stroke-width:0.910831;stroke-linecap:round;stroke-linejoin:round;stroke-miterlimit:4;stroke-dasharray:none;paint-order:stroke markers fill"
       d="m -49.109329,101.86925 a 23.450198,18.349688 0 0 1 -11.934128,15.98462 23.450198,18.349688 0 0 1 -23.6555,-0.28497 23.450198,18.349688 0 0 1 -11.299651,-16.26451 m 46.776942,-0.55115 a 23.39081,15.238853 0 0 1 -23.390808,15.23886 23.39081,15.238853 0 0 1 -23.39081,-15.23886 23.39081,15.238853 0 0 1 23.39081,-15.238843 23.39081,15.238853 0 0 1 23.390808,15.238843 z M -78.046118,62.155572 h 6.003855 c 1.35203,0 2.440488,1.045566 2.440488,2.344307 V 83.17009 c 0,1.298741 -1.088458,2.344307 -2.440488,2.344307 h -6.003855 c -1.352032,0 -2.440489,-1.045566 -2.440489,-2.344307 V 64.499879 c 0,-1.298741 1.088457,-2.344307 2.440489,-2.344307 z m -8.568911,-63.4025129 h 21.057346 c 1.352029,0 2.440487,1.04556116 2.440487,2.344308 V 60.033738 c 0,1.298749 -1.088458,2.344306 -2.440487,2.344306 h -21.057346 c -1.352031,0 -2.440488,-1.045557 -2.440488,-2.344306 V 1.0973671 c 0,-1.29874684 1.088457,-2.344308 2.440488,-2.344308 z" />
    <g
       inkscape:label="Layer 1"
       id="layer1-3"
       transform="translate(97.200496,25.207947)">
      <path
         style="fill:#ffffff;stroke:#000000;stroke-width:4.7671;stroke-linecap:round;stroke-linejoin:round;stroke-opacity:0.955017;paint-order:stroke markers fill"
         d=""
         id="path1841"
         transform="scale(0.26458333)" />
      <path
         style="fill:#000000;stroke:#000000;stroke-width:2.16838;stroke-linecap:round;stroke-linejoin:round;stroke-opacity:0.955017;paint-order:stroke markers fill"
         d=""
         id="path914"
         transform="scale(0.26458333)" />
      <g
         id="g937">
        <path
           id="path862"
           style="fill:none;fill-rule:evenodd;stroke:#000000;stroke-width:0.910831;stroke-linecap:round;stroke-linejoin:round;stroke-miterlimit:4;stroke-dasharray:none;paint-order:stroke markers fill"
           d="M 56.032126,107.81775 A 23.450198,18.349688 0 0 1 44.097998,123.80237 23.450198,18.349688 0 0 1 20.442498,123.5174 23.450198,18.349688 0 0 1 9.1428439,107.25289 M 55.919789,106.70174 A 23.39081,15.238853 0 0 1 32.528981,121.9406 23.39081,15.238853 0 0 1 9.1381679,106.70174 23.39081,15.238853 0 0 1 32.528981,91.462895 23.39081,15.238853 0 0 1 55.919789,106.70174 Z M 27.095337,68.10407 h 6.003855 c 1.35203,0 2.440488,1.045566 2.440488,2.344307 v 18.670211 c 0,1.298741 -1.088458,2.344307 -2.440488,2.344307 h -6.003855 c -1.352032,0 -2.440489,-1.045566 -2.440489,-2.344307 V 70.448377 c 0,-1.298741 1.088457,-2.344307 2.440489,-2.344307 z M 18.526426,4.7015569 h 21.057346 c 1.352029,0 2.440487,1.0455612 2.440487,2.344308 V 65.982236 c 0,1.298749 -1.088458,2.344306 -2.440487,2.344306 H 18.526426 c -1.352031,0 -2.440488,-1.045557 -2.440488,-2.344306 V 7.0458649 c 0,-1.2987468 1.088457,-2.344308 2.440488,-2.344308 z"
           transform="translate(-97.200496,-25.207947)" />
        <path
           id="path1412"
           style="fill:none;stroke:#000000;stroke-width:3.30528;stroke-linecap:round;stroke-linejoin:round;stroke-opacity:0.955017;paint-order:stroke markers fill"
           d="m 186.87695,763.33789 a 21.559827,49.669829 0 0 0 -21.56054,49.66992 21.559827,49.669829 0 0 0 21.56054,49.66992 21.559827,49.669829 0 0 0 21.43946,-44.73242 17.786855,25.357755 0 0 0 16.79492,17.02149 17.786855,25.357755 0 0 0 16.75586,-16.86719 14.013887,36.860242 0 0 0 13.95117,33.59961 14.013887,36.860242 0 0 0 14.01562,-36.86133 14.013887,36.860242 0 0 0 -14.01562,-36.85937 14.013887,36.860242 0 0 0 -13.37695,25.92773 17.786855,25.357755 0 0 0 -17.33008,-19.6543 17.786855,25.357755 0 0 0 -17.13281,18.57813 21.559827,49.669829 0 0 0 -21.10157,-39.49219 z m 97.47266,2.09375 a 13.401606,54.078433 0 0 0 -13.40234,54.07813 13.401606,54.078433 0 0 0 13.40234,54.08007 13.401606,54.078433 0 0 0 13.40039,-54.08007 13.401606,54.078433 0 0 0 -13.40039,-54.07813 z m 34.00977,8.69141 a 18.864847,41.042963 0 0 0 -18.86329,41.04297 18.864847,41.042963 0 0 0 18.86329,41.04296 18.864847,41.042963 0 0 0 10.85937,-7.51562 21.122919,52.269887 81.318304 0 0 22.58984,7.92578 21.105336,40.666564 56.659245 0 0 -42.3164,27.7168 21.105336,40.666564 56.659245 0 0 10.6582,28.4707 21.105336,40.666564 56.659245 0 0 49.63867,-28.4707 21.105336,40.666564 56.659245 0 0 -2.87695,-27.28516 21.122919,52.269887 81.318304 0 0 59.99805,-22.20898 21.122919,52.269887 81.318304 0 0 -34.17969,-22.32422 21.122919,52.269887 81.318304 0 0 -34.20508,4.89258 11.034307,22.596437 0 0 0 -10.82422,-18.46485 11.034307,22.596437 0 0 0 -10.48047,15.54102 18.864847,41.042963 0 0 0 -18.86132,-40.36328 z m 1.79101,138.68359 a 13.797222,27.834024 51.64554 0 0 -32.79492,20.37891 13.797222,27.834024 51.64554 0 0 4.89062,20.38086 13.797222,27.834024 51.64554 0 0 32.79493,-20.38086 13.797222,27.834024 51.64554 0 0 -4.89063,-20.37891 z M 336.75,824.22461 a 11.034307,22.596437 0 0 0 0.22852,2.49414 21.122919,52.269887 81.318304 0 0 -0.60547,0.41016 18.864847,41.042963 0 0 0 0.37695,-2.9043 z m -43.5625,129.3418 a 21.559827,49.669829 0 0 0 -4.63477,1.21093 8.698035,23.711048 41.087214 0 0 -19.20117,17.55274 8.698035,23.711048 41.087214 0 0 -1.85351,18.76367 8.698035,23.711048 41.087214 0 0 4.93945,-1.31836 21.559827,49.669829 0 0 0 -0.80859,13.46091 21.559827,49.669829 0 0 0 21.55859,49.6699 21.559827,49.669829 0 0 0 21.44141,-44.7343 17.786855,25.357755 0 0 0 16.79492,17.0234 17.786855,25.357755 0 0 0 16.7539,-16.8672 14.013887,36.860242 0 0 0 13.95313,33.5977 14.013887,36.860242 0 0 0 14.01562,-36.8613 14.013887,36.860242 0 0 0 -14.01562,-36.85942 14.013887,36.860242 0 0 0 -13.37695,25.92969 17.786855,25.357755 0 0 0 -17.33008,-19.6543 17.786855,25.357755 0 0 0 -17.13477,18.57617 21.559827,49.669829 0 0 0 -21.10156,-39.49023 z m 97.47461,2.09375 a 13.401606,54.078433 0 0 0 -13.40234,54.07814 13.401606,54.078433 0 0 0 13.40234,54.0781 13.401606,54.078433 0 0 0 13.40039,-54.0781 13.401606,54.078433 0 0 0 -13.40039,-54.07814 z m 34.00977,8.68945 a 18.864847,41.042963 0 0 0 -18.86329,41.04299 18.864847,41.042963 0 0 0 18.86329,41.0449 18.864847,41.042963 0 0 0 18.38867,-31.9844 11.034307,22.596437 0 0 0 10.95312,19.9121 11.034307,22.596437 0 0 0 11.03321,-22.5976 11.034307,22.596437 0 0 0 -11.03321,-22.59572 11.034307,22.596437 0 0 0 -10.48047,15.54102 18.864847,41.042963 0 0 0 -18.86132,-40.36329 z"
           transform="matrix(0.05908627,0,0,0.08097093,-80.414338,5.8647379)"
           clip-path="url(#clipPath3020)" />
      </g>
      <path
         id="path3116"
         style="fill:#ffffff;stroke:#000000;stroke-width:7.84252;stroke-linecap:round;stroke-linejoin:round;stroke-miterlimit:4;stroke-dasharray:none;stroke-opacity:0.955017;paint-order:stroke markers fill"
         d="m 186.87695,763.33789 a 21.559827,49.669829 0 0 0 -21.56054,49.66992 21.559827,49.669829 0 0 0 21.56054,49.66992 21.559827,49.669829 0 0 0 21.43946,-44.73242 17.786855,25.357755 0 0 0 16.79492,17.02149 17.786855,25.357755 0 0 0 16.75586,-16.86719 14.013887,36.860242 0 0 0 13.95117,33.59961 14.013887,36.860242 0 0 0 14.01562,-36.86133 14.013887,36.860242 0 0 0 -14.01562,-36.85937 14.013887,36.860242 0 0 0 -13.37695,25.92773 17.786855,25.357755 0 0 0 -17.33008,-19.6543 17.786855,25.357755 0 0 0 -17.13281,18.57813 21.559827,49.669829 0 0 0 -21.10157,-39.49219 z m 97.47266,2.09375 a 13.401606,54.078433 0 0 0 -13.40234,54.07813 13.401606,54.078433 0 0 0 13.40234,54.08007 13.401606,54.078433 0 0 0 13.40039,-54.08007 13.401606,54.078433 0 0 0 -13.40039,-54.07813 z m 34.00977,8.69141 a 18.864847,41.042963 0 0 0 -18.86329,41.04297 18.864847,41.042963 0 0 0 18.86329,41.04296 18.864847,41.042963 0 0 0 10.85937,-7.51562 21.122919,52.269887 81.318304 0 0 22.58984,7.92578 21.105336,40.666564 56.659245 0 0 -42.3164,27.7168 21.105336,40.666564 56.659245 0 0 10.6582,28.4707 21.105336,40.666564 56.659245 0 0 49.63867,-28.4707 21.105336,40.666564 56.659245 0 0 -2.87695,-27.28516 21.122919,52.269887 81.318304 0 0 59.99805,-22.20898 21.122919,52.269887 81.318304 0 0 -34.17969,-22.32422 21.122919,52.269887 81.318304 0 0 -34.20508,4.89258 11.034307,22.596437 0 0 0 -10.82422,-18.46485 11.034307,22.596437 0 0 0 -10.48047,15.54102 18.864847,41.042963 0 0 0 -18.86132,-40.36328 z m 1.79101,138.68359 a 13.797222,27.834024 51.64554 0 0 -32.79492,20.37891 13.797222,27.834024 51.64554 0 0 4.89062,20.38086 13.797222,27.834024 51.64554 0 0 32.79493,-20.38086 13.797222,27.834024 51.64554 0 0 -4.89063,-20.37891 z M 336.75,824.22461 a 11.034307,22.596437 0 0 0 0.22852,2.49414 21.122919,52.269887 81.318304 0 0 -0.60547,0.41016 18.864847,41.042963 0 0 0 0.37695,-2.9043 z m -43.5625,129.3418 a 21.559827,49.669829 0 0 0 -4.63477,1.21093 8.698035,23.711048 41.087214 0 0 -19.20117,17.55274 8.698035,23.711048 41.087214 0 0 -1.85351,18.76367 8.698035,23.711048 41.087214 0 0 4.93945,-1.31836 21.559827,49.669829 0 0 0 -0.80859,13.46091 21.559827,49.669829 0 0 0 21.55859,49.6699 21.559827,49.669829 0 0 0 21.44141,-44.7343 17.786855,25.357755 0 0 0 16.79492,17.0234 17.786855,25.357755 0 0 0 16.7539,-16.8672 14.013887,36.860242 0 0 0 13.95313,33.5977 14.013887,36.860242 0 0 0 14.01562,-36.8613 14.013887,36.860242 0 0 0 -14.01562,-36.85942 14.013887,36.860242 0 0 0 -13.37695,25.92969 17.786855,25.357755 0 0 0 -17.33008,-19.6543 17.786855,25.357755 0 0 0 -17.13477,18.57617 21.559827,49.669829 0 0 0 -21.10156,-39.49023 z m 97.47461,2.09375 a 13.401606,54.078433 0 0 0 -13.40234,54.07814 13.401606,54.078433 0 0 0 13.40234,54.0781 13.401606,54.078433 0 0 0 13.40039,-54.0781 13.401606,54.078433 0 0 0 -13.40039,-54.07814 z m 34.00977,8.68945 a 18.864847,41.042963 0 0 0 -18.86329,41.04299 18.864847,41.042963 0 0 0 18.86329,41.0449 18.864847,41.042963 0 0 0 18.38867,-31.9844 11.034307,22.596437 0 0 0 10.95312,19.9121 11.034307,22.596437 0 0 0 11.03321,-22.5976 11.034307,22.596437 0 0 0 -11.03321,-22.59572 11.034307,22.596437 0 0 0 -10.48047,15.54102 18.864847,41.042963 0 0 0 -18.86132,-40.36329 z"
         transform="matrix(0.26458333,0,0,0.26458333,-41.598982,10.755424)"
         clip-path="url(#clipPath3020)" />
      <path
         style="fill:#000000;stroke-width:0.264583"
         d="m 187.38231,83.662758 c -1.06655,-1.06655 -2.05899,-4.2242 -2.4953,-7.93932 -0.0717,-0.61045 -0.12204,-0.57731 -0.65294,0.42973 -0.74711,1.41718 -2.02455,2.48068 -2.97971,2.48068 -1.4684,0 -3.02048,-1.89273 -3.68962,-4.4994 -0.51045,-1.9885 -0.45145,-1.94968 -1.58231,-1.0409 -0.70457,0.56622 -1.43146,0.88264 -2.2359,0.97331 -1.62925,0.18364 -2.38764,-0.0535 -3.56092,-1.1135 l -1.00125,-0.90457 -0.4698,2.03576 c -1.57188,6.81139 -5.60477,9.41099 -8.86096,5.71177 -2.02475,-2.30023 -3.20549,-6.57397 -3.20549,-11.60235 v -3.05387 h -0.64256 c -0.74423,0 -1.4118,-0.58157 -1.6157,-1.40756 -0.39978,-1.61951 1.55239,-5.06465 4.29269,-7.57563 1.66991,-1.53017 1.70616,-1.59098 1.29696,-2.1752 -0.6397,-0.91329 -0.52502,-2.6768 0.277,-4.2595 0.8229,-1.62392 3.25659,-4.09203 5.0451,-5.11644 0.69761,-0.39958 1.31925,-0.76611 1.38142,-0.81451 0.0622,-0.0484 -0.15348,-0.3363 -0.47923,-0.63978 -3.1859,-2.96812 0.68645,-9.82325 7.48864,-13.25699 l 1.56972,-0.79239 -1.2235,-0.52962 -1.22351,-0.52962 -0.80854,0.57573 c -2.51995,1.79436 -4.8291,0.84854 -6.50892,-2.66606 l -0.76427,-1.59904 -0.33581,2.32613 c -0.6362,4.40696 -2.17101,7.50423 -3.7186,7.50423 -1.70902,0 -3.14362,-2.99818 -3.91996,-8.19232 l -0.1765,-1.18086 -0.63887,1.2571 c -0.65201,1.28293 -1.9153,2.29327 -2.86744,2.29327 -1.56609,0 -3.19327,-2.17998 -3.86387,-5.17655 l -0.31868,-1.42399 -1.01091,0.91329 c -1.18288,1.06867 -1.93858,1.30618 -3.57059,1.12223 -0.80443,-0.0907 -1.53132,-0.40709 -2.2359,-0.9733 -0.70804,-0.569 -1.07415,-0.72783 -1.13778,-0.4936 -0.0516,0.18994 -0.35488,1.29786 -0.67397,2.46202 -2.19514,8.00864 -7.70972,8.68609 -10.49393,1.28914 -2.8693,-7.62304 -1.07274,-19.5528912 3.31601,-22.0195042 1.31554,-0.739376 2.22586,-0.717898 3.59562,0.08484 1.69459,0.993094 2.58271,2.550725 3.98868,6.9955132 0.0845,0.267167 0.35954,0.124795 0.96997,-0.502119 2.13388,-2.1914882 4.90127,-2.0835202 6.8757,0.268254 l 0.82983,0.988422 0.6008,-1.48977 c 0.7512,-1.8627142 1.88952,-2.9449782 3.09752,-2.9449782 1.22514,0 2.20934,0.860432 3.07293,2.6864872 l 0.72776,1.53885 0.32218,-1.637619 c 0.69098,-3.5121672 2.11335,-6.0273012 3.40861,-6.0273012 1.42586,0 2.76222,2.186141 3.47732,5.6885408 0.50138,2.4556684 0.52246,2.4718404 1.16407,0.8931824 1.12222,-2.7611582 2.64032,-4.2014582 4.42632,-4.1994842 2.40419,0.0027 4.01766,2.190723 5.42798,7.3609672 0.0712,0.260909 0.27398,0.210189 0.79346,-0.198438 0.40129,-0.315651 1.08749,-0.548935 1.61468,-0.548935 1.19626,0 2.53819,1.308332 2.99869,2.923622 0.18462,0.64758 0.40986,1.26572 0.50053,1.37365 0.0907,0.10793 1.1124,0.002 2.2705,-0.23506 2.68595,-0.55015 8.94215,-0.61845 10.96918,-0.11974 2.35659,0.57978 4.17197,1.55154 4.89998,2.6229 2.45216,3.60868 -2.51063,7.72949 -11.53563,9.57853 -1.33054,0.27259 -2.47507,0.55154 -2.5434,0.61987 -0.0683,0.0683 0.004,0.36473 0.16178,0.65867 0.15731,0.29394 0.28602,1.12158 0.28602,1.83919 0,3.73872 -4.57175,8.70148 -10.2355,11.11095 -0.75459,0.32102 -1.54697,0.58366 -1.76085,0.58366 -0.31396,0 -0.36174,0.2993 -0.24802,1.55346 0.12645,1.39456 0.0513,1.72152 -0.7349,3.19656 -1.00071,1.87751 -3.23707,4.04218 -5.33967,5.16846 -0.76588,0.41026 -1.44259,0.78769 -1.5038,0.83873 -0.0612,0.051 0.12789,0.36022 0.42022,0.68707 0.89652,1.00239 1.59011,2.35979 2.22373,4.35198 l 0.60609,1.90564 1.02414,-0.92526 c 1.17013,-1.05714 2.00037,-1.4308 3.17913,-1.4308 1.20837,0 3.03923,0.98371 3.73411,2.00631 l 0.60572,0.8914 0.60401,-1.4573 c 0.83566,-2.01617 1.89621,-3.02791 3.17398,-3.02791 1.26074,0 2.19048,0.81917 3.06013,2.6962 0.36646,0.79098 0.68846,1.21467 0.75584,0.99456 0.0646,-0.21091 0.30689,-1.20151 0.53849,-2.20134 0.56274,-2.42937 1.42515,-4.09089 2.37952,-4.58442 0.6963,-0.36007 0.86641,-0.35972 1.62776,0.003 1.09896,0.52406 1.91627,2.19512 2.6768,5.47292 0.32077,1.38244 0.5919,2.33494 0.60252,2.11666 0.0434,-0.89184 1.58754,-3.6328 2.4959,-4.43035 1.13766,-0.99888 1.93768,-1.25004 3.21717,-1.01 1.7684,0.33175 3.59333,2.91751 4.35263,6.1673 l 0.3244,1.3884 0.74221,-0.52851 c 0.40823,-0.29068 1.16117,-0.5285 1.67321,-0.5285 3.24583,0 4.78882,7.44567 2.39782,11.57065 -0.73571,1.26925 -1.30966,1.65851 -2.44542,1.65851 -1.16034,0 -1.5841,-0.2302 -2.26308,-1.22942 l -0.61031,-0.89815 -0.44913,1.17601 c -1.31518,3.44376 -3.83654,4.97335 -6.19101,3.7558 -0.92584,-0.47876 -2.28863,-2.32085 -2.81111,-3.79976 l -0.34935,-0.98885 -0.19093,1.32291 c -0.79051,5.47724 -2.22188,8.59896 -3.94278,8.59896 -0.37259,0 -0.99329,-0.34016 -1.44505,-0.79192 z"
         id="path3708" />
      <g
         id="g9715"
         transform="translate(156.84958,224.28587)">
        <path
           id="path3826"
           style="fill:#ffffff;stroke:#000000;stroke-width:7.84252;stroke-linecap:round;stroke-linejoin:round;stroke-miterlimit:4;stroke-dasharray:none;stroke-opacity:0.955017;paint-order:stroke markers fill"
           d="m 186.87695,763.33789 a 21.559827,49.669829 0 0 0 -21.56054,49.66992 21.559827,49.669829 0 0 0 21.56054,49.66992 21.559827,49.669829 0 0 0 21.43946,-44.73242 17.786855,25.357755 0 0 0 16.79492,17.02149 17.786855,25.357755 0 0 0 16.75586,-16.86719 14.013887,36.860242 0 0 0 13.95117,33.59961 14.013887,36.860242 0 0 0 14.01562,-36.86133 14.013887,36.860242 0 0 0 -14.01562,-36.85937 14.013887,36.860242 0 0 0 -13.37695,25.92773 17.786855,25.357755 0 0 0 -17.33008,-19.6543 17.786855,25.357755 0 0 0 -17.13281,18.57813 21.559827,49.669829 0 0 0 -21.10157,-39.49219 z m 97.47266,2.09375 a 13.401606,54.078433 0 0 0 -13.40234,54.07813 13.401606,54.078433 0 0 0 13.40234,54.08007 13.401606,54.078433 0 0 0 13.40039,-54.08007 13.401606,54.078433 0 0 0 -13.40039,-54.07813 z m 34.00977,8.69141 a 18.864847,41.042963 0 0 0 -18.86329,41.04297 18.864847,41.042963 0 0 0 18.86329,41.04296 18.864847,41.042963 0 0 0 10.85937,-7.51562 21.122919,52.269887 81.318304 0 0 22.58984,7.92578 21.105336,40.666564 56.659245 0 0 -42.3164,27.7168 21.105336,40.666564 56.659245 0 0 10.6582,28.4707 21.105336,40.666564 56.659245 0 0 49.63867,-28.4707 21.105336,40.666564 56.659245 0 0 -2.87695,-27.28516 21.122919,52.269887 81.318304 0 0 59.99805,-22.20898 21.122919,52.269887 81.318304 0 0 -34.17969,-22.32422 21.122919,52.269887 81.318304 0 0 -34.20508,4.89258 11.034307,22.596437 0 0 0 -10.82422,-18.46485 11.034307,22.596437 0 0 0 -10.48047,15.54102 18.864847,41.042963 0 0 0 -18.86132,-40.36328 z m 1.79101,138.68359 a 13.797222,27.834024 51.64554 0 0 -32.79492,20.37891 13.797222,27.834024 51.64554 0 0 4.89062,20.38086 13.797222,27.834024 51.64554 0 0 32.79493,-20.38086 13.797222,27.834024 51.64554 0 0 -4.89063,-20.37891 z M 336.75,824.22461 a 11.034307,22.596437 0 0 0 0.22852,2.49414 21.122919,52.269887 81.318304 0 0 -0.60547,0.41016 18.864847,41.042963 0 0 0 0.37695,-2.9043 z m -43.5625,129.3418 a 21.559827,49.669829 0 0 0 -4.63477,1.21093 8.698035,23.711048 41.087214 0 0 -19.20117,17.55274 8.698035,23.711048 41.087214 0 0 -1.85351,18.76367 8.698035,23.711048 41.087214 0 0 4.93945,-1.31836 21.559827,49.669829 0 0 0 -0.80859,13.46091 21.559827,49.669829 0 0 0 21.55859,49.6699 21.559827,49.669829 0 0 0 21.44141,-44.7343 17.786855,25.357755 0 0 0 16.79492,17.0234 17.786855,25.357755 0 0 0 16.7539,-16.8672 14.013887,36.860242 0 0 0 13.95313,33.5977 14.013887,36.860242 0 0 0 14.01562,-36.8613 14.013887,36.860242 0 0 0 -14.01562,-36.85942 14.013887,36.860242 0 0 0 -13.37695,25.92969 17.786855,25.357755 0 0 0 -17.33008,-19.6543 17.786855,25.357755 0 0 0 -17.13477,18.57617 21.559827,49.669829 0 0 0 -21.10156,-39.49023 z m 97.47461,2.09375 a 13.401606,54.078433 0 0 0 -13.40234,54.07814 13.401606,54.078433 0 0 0 13.40234,54.0781 13.401606,54.078433 0 0 0 13.40039,-54.0781 13.401606,54.078433 0 0 0 -13.40039,-54.07814 z m 34.00977,8.68945 a 18.864847,41.042963 0 0 0 -18.86329,41.04299 18.864847,41.042963 0 0 0 18.86329,41.0449 18.864847,41.042963 0 0 0 18.38867,-31.9844 11.034307,22.596437 0 0 0 10.95312,19.9121 11.034307,22.596437 0 0 0 11.03321,-22.5976 11.034307,22.596437 0 0 0 -11.03321,-22.59572 11.034307,22.596437 0 0 0 -10.48047,15.54102 18.864847,41.042963 0 0 0 -18.86132,-40.36329 z"
           transform="matrix(0.26458333,0,0,0.26458333,-76.454877,-213.08938)"
           clip-path="url(#clipPath3020)" />
        <path
           style="fill:#53676c;fill-opacity:1;stroke:#000000;stroke-width:8.92357;stroke-linecap:round;stroke-linejoin:round;stroke-miterlimit:4;stroke-dasharray:none;stroke-opacity:0.955017;paint-order:stroke markers fill"
           d="m -3.274229,242.92042 c -8.334775,-7.52997 -12.909693,-23.15241 -13.100531,-44.73572 l -0.123994,-14.02341 -2.963138,0.5921 c -3.208053,0.64104 -5.577293,-0.96945 -5.559585,-3.77912 0.0254,-4.03074 6.058307,-14.2788 12.195032,-20.71564 6.9413849,-7.28085 13.17592502,-11.20092 17.8141174,-11.20092 6.6265666,0 14.9438136,12.52774 17.7524326,26.73936 0.742073,3.75489 1.592517,8.06402 1.889875,9.57584 0.47746,2.4275 0.84997,2.08115 3.187071,-2.96325 3.207518,-6.92309 7.904128,-11.50036 12.728966,-12.4055 6.61902,-1.24174 14.111939,4.7522 17.072529,13.6571 1.747641,5.25659 1.998712,5.52791 2.725506,2.94534 3.57157,-12.69112 4.986497,-16.31781 7.559072,-19.37514 5.670451,-6.73895 11.793966,-2.40869 16.034354,11.33874 2.725642,8.83659 2.725642,33.40665 0,42.24324 -2.516311,8.15793 -6.508459,14.05062 -9.843537,14.52977 -6.007134,0.86303 -12.275346,-10.82512 -13.474189,-25.12491 -0.354211,-4.22503 -0.978927,-7.68187 -1.388256,-7.68187 -0.40933,0 -1.392334,1.79228 -2.184455,3.98286 -3.455175,9.55511 -11.503046,14.58015 -18.547193,11.58073 -4.791505,-2.04023 -8.273658,-5.80307 -10.731622,-11.59666 l -1.924361,-4.53585 -1.995613,11.37845 c -3.15679,17.99916 -7.993638,28.36814 -14.8986041,31.93884 -4.8143626,2.4896 -7.4059494,1.98833 -12.2238769,-2.36438 z"
           id="path9249"
           transform="scale(0.26458333)" />
        <path
           style="fill:#53676c;fill-opacity:1;stroke:#000000;stroke-width:8.92357;stroke-linecap:round;stroke-linejoin:round;stroke-miterlimit:4;stroke-dasharray:none;stroke-opacity:0.955017;paint-order:stroke markers fill"
           d="m 98.594644,255.52326 c -6.352902,-6.8549 -8.613233,-22.32845 -8.096061,-55.42323 0.421554,-26.97602 1.589505,-35.14216 6.36495,-44.5028 4.257877,-8.34613 9.692807,-3.9709 13.453927,10.83069 6.69158,26.33413 4.56541,72.62535 -4.00183,87.12853 -2.80754,4.75278 -4.69374,5.23326 -7.720986,1.96681 z"
           id="path9288"
           transform="scale(0.26458333)" />
        <path
           style="fill:#53676c;fill-opacity:1;stroke:#000000;stroke-width:8.92357;stroke-linecap:round;stroke-linejoin:round;stroke-miterlimit:4;stroke-dasharray:none;stroke-opacity:0.955017;paint-order:stroke markers fill"
           d="m 127.94273,236.11225 c -6.67702,-7.07971 -8.24885,-13.5534 -8.58756,-35.36861 -0.27587,-17.76716 -0.0977,-19.77085 2.30212,-25.89321 6.78,-17.29685 17.25393,-19.86236 25.08814,-6.14516 3.67358,6.4322 6.86366,18.42644 6.86366,25.8064 0,5.64419 1.74996,6.0636 2.76326,0.66226 0.89008,-4.74454 5.73555,-10.84302 8.61519,-10.84302 2.79038,0 7.606,5.9203 9.05269,11.12932 2.99047,10.76766 0.27109,26.56618 -5.33136,30.97306 -3.81288,2.99921 -4.50096,2.89772 -8.35976,-1.23314 -2.20709,-2.3627 -3.72739,-5.69329 -4.66012,-10.2091 -0.76139,-3.68631 -1.54282,-6.54391 -1.73651,-6.35022 -0.19369,0.19369 -0.90217,3.32743 -1.5744,6.96387 -3.78896,20.49635 -15.31935,30.17332 -24.43535,20.50755 z"
           id="path9327"
           transform="scale(0.26458333)" />
        <g
           id="g9606">
          <path
             style="fill:#53676c;fill-opacity:1;stroke:#000000;stroke-width:8.92357;stroke-linecap:round;stroke-linejoin:round;stroke-miterlimit:4;stroke-dasharray:none;stroke-opacity:0.955017;paint-order:stroke markers fill"
             d="M 23.187351,105.32245 C 11.312675,100.15431 14.094775,84.747148 29.532342,70.184125 37.55862,62.612542 52.098191,54.26775 59.77289,52.827967 c 5.220034,-0.979284 4.125525,-2.294906 -2.657815,-3.194748 -3.034616,-0.402556 -8.099126,-2.018406 -11.254467,-3.59078 l -5.736984,-2.858859 -3.683391,3.440802 c -5.307717,4.95815 -9.472994,4.648822 -14.951568,-1.110356 -15.1423138,-15.917878 -12.6020059,-65.728964 3.800474,-74.520778 4.090134,-2.192334 4.35419,-2.200602 7.976649,-0.249779 7.043877,3.793379 12.389272,15.727825 14.074959,31.4245879 l 0.782702,7.2883599 2.201006,-5.9002958 c 2.259689,-6.0576041 6.114908,-9.7244226 9.52034,-9.0550909 2.864515,0.5630149 6.270162,5.73347409 7.86962,11.9476729 1.617191,6.283091 0.785183,6.105752 15.781786,3.3638161 31.881859,-5.8291862 60.922309,2.8349209 55.266759,16.4886259 -4.42649,10.686498 -28.8816,21.711174 -53.924399,24.309811 -7.829632,0.812464 -7.870803,0.834509 -4.911705,2.629984 9.973599,6.051624 7.007643,19.556104 -7.401009,33.698005 -15.42858,15.142945 -37.709398,23.444765 -49.338496,18.383505 z"
             id="path9366"
             transform="scale(0.26458333)" />
          <path
             style="fill:#53676c;fill-opacity:1;stroke:#000000;stroke-width:8.92357;stroke-linecap:round;stroke-linejoin:round;stroke-miterlimit:4;stroke-dasharray:none;stroke-opacity:0.955017;paint-order:stroke markers fill"
             d="M -4.7678908,142.96421 C -7.9977831,136.9283 0.17281796,123.79864 12.184741,115.72236 l 7.727548,-5.19566 9.671684,0.77552 9.671683,0.77552 0.360621,3.75254 c 0.656037,6.82656 -9.340135,19.80471 -20.132887,26.13876 -4.165989,2.44493 -6.463364,2.93781 -14.0509579,3.01452 -7.72695,0.0781 -9.2380233,-0.22104 -10.2003229,-2.01935 z"
             id="path9405"
             transform="scale(0.26458333)" />
          <path
             style="fill:#53676c;fill-opacity:1;stroke:#000000;stroke-width:8.92357;stroke-linecap:round;stroke-linejoin:round;stroke-miterlimit:4;stroke-dasharray:none;stroke-opacity:0.955017;paint-order:stroke markers fill"
             d="m -107.31461,54.815431 c -10.35832,-6.988942 -16.54148,-28.489562 -15.20896,-52.8858357 2.70684,-49.5575823 30.06866,-58.9506173 39.44428,-13.5408213 1.911451,9.2579074 2.127293,9.6953611 3.30646,6.7013106 0.693835,-1.7617302 1.261517,-3.5055063 1.261517,-3.8750556 0,-0.3695493 1.306545,-2.384876 2.903432,-4.478504 3.293864,-4.318478 8.207561,-7.217737 12.232704,-7.217737 5.912718,0 13.232136,7.842285 16.062301,17.2097184 0.672019,2.2242847 1.086489,1.4719483 2.341976,-4.2510883 2.745475,-12.5150271 8.178909,-20.2673781 13.271525,-18.9356291 11.278089,2.949286 15.917268,45.295241 6.949921,63.438177 -2.426488,4.909323 -6.03694,8.533838 -8.500728,8.533838 -5.316579,0 -11.018252,-11.824217 -12.877571,-26.705704 l -0.83864,-6.71225 -2.635534,5.18587 c -7.407117,14.574789 -21.140174,14.945251 -28.20851,0.760949 -3.218373,-6.458434 -2.891685,-6.948252 -5.097352,7.642701 -1.647733,10.900103 -5.371856,20.160782 -10.290229,25.588447 -4.962767,5.476655 -9.544882,6.626231 -14.116592,3.541614 z"
             id="path9444"
             transform="scale(0.26458333)" />
          <path
             style="fill:#53676c;fill-opacity:1;stroke:#000000;stroke-width:8.92357;stroke-linecap:round;stroke-linejoin:round;stroke-miterlimit:4;stroke-dasharray:none;stroke-opacity:0.955017;paint-order:stroke markers fill"
             d="M -8.4575447,64.637451 C -13.770289,57.10025 -17.748825,34.640661 -15.845688,22.929976 -15.100693,18.345749 -14.921727,10.131922 -15.391861,2.1010526 -16.008395,-8.430629 -15.763503,-13.031418 -14.201602,-20.26034 -9.0158213,-44.261606 -0.02438288,-44.0429 5.0386137,-19.792346 7.5873424,-7.5845455 7.710439,36.497946 5.2273321,47.789495 1.6420982,64.092792 -3.9707119,71.002929 -8.4575447,64.637451 Z"
             id="path9483"
             transform="scale(0.26458333)" />
        </g>
      </g>
    </g>
  </g>
</svg>
