<?xml version="1.0" encoding="UTF-8" standalone="no"?>
<!-- Created with Inkscape (http://www.inkscape.org/) -->

<svg
   width="210mm"
   height="297mm"
   viewBox="0 0 210 297"
   version="1.1"
   id="svg5"
   inkscape:version="1.1.2 (0a00cf5339, 2022-02-04, custom)"
   sodipodi:docname="zam  tube icon svg.svg"
   xmlns:inkscape="http://www.inkscape.org/namespaces/inkscape"
   xmlns:sodipodi="http://sodipodi.sourceforge.net/DTD/sodipodi-0.dtd"
   xmlns="http://www.w3.org/2000/svg"
   xmlns:svg="http://www.w3.org/2000/svg">
  <sodipodi:namedview
     id="namedview7"
     pagecolor="#ffffff"
     bordercolor="#666666"
     borderopacity="1.0"
     inkscape:pageshadow="2"
     inkscape:pageopacity="0.0"
     inkscape:pagecheckerboard="0"
     inkscape:document-units="mm"
     showgrid="false"
     inkscape:zoom="0.39187386"
     inkscape:cx="930.14625"
     inkscape:cy="728.55077"
     inkscape:window-width="1680"
     inkscape:window-height="956"
     inkscape:window-x="-11"
     inkscape:window-y="-11"
     inkscape:window-maximized="1"
     inkscape:current-layer="layer1-3" />
  <defs
     id="defs2">
    <inkscape:path-effect
       effect="bend_path"
       id="path-effect2970"
       is_visible="true"
       lpeversion="1"
       bendpath="m 43.763949,70.10731 c -2.161977,107.01546 130.764381,120.38147 134.266091,0"
       prop_scale="1"
       scale_y_rel="false"
       vertical="false"
       hide_knot="false"
       bendpath-nodetypes="cc" />
    <inkscape:path-effect
       effect="bend_path"
       id="path-effect2565"
       is_visible="true"
       lpeversion="1"
       bendpath="m 22.094421,77.755379 c 47.268841,63.835791 105.047969,86.291981 159.759649,0"
       prop_scale="1"
       scale_y_rel="false"
       vertical="false"
       hide_knot="false"
       bendpath-nodetypes="cc" />
    <inkscape:path-effect
       effect="bend_path"
       id="path-effect2004"
       is_visible="true"
       lpeversion="1"
       bendpath="m 27.618026,97.300446 c 45.668773,25.787114 97.134884,31.863294 159.759654,0"
       prop_scale="1"
       scale_y_rel="false"
       vertical="false"
       hide_knot="false"
       bendpath-nodetypes="cc" />
    <inkscape:path-effect
       effect="bend_path"
       id="path-effect969"
       is_visible="true"
       lpeversion="1"
       bendpath="M 65.435059,87.740334 C 56.61074,15.763533 192.01306,8.7605155 192.47641,90.28969"
       prop_scale="1"
       scale_y_rel="false"
       vertical="false"
       hide_knot="false"
       bendpath-nodetypes="cc" />
    <inkscape:path-effect
       effect="skeletal"
       id="path-effect2685"
       is_visible="true"
       lpeversion="1"
       pattern="m 58.28998,172.24478 a 5.2513594,24.943956 0 0 0 -5.251357,24.9437 5.2513594,24.943956 0 0 0 5.251357,24.94421 5.2513594,24.943956 0 0 0 5.222423,-22.46478 4.3323711,12.734546 0 0 0 4.090704,8.54832 4.3323711,12.734546 0 0 0 4.080889,-8.4708 3.4133835,18.511041 0 0 0 3.398242,16.87339 3.4133835,18.511041 0 0 0 3.413744,-18.51154 3.4133835,18.511041 0 0 0 -3.413744,-18.51101 3.4133835,18.511041 0 0 0 -3.258199,13.02143 4.3323711,12.734546 0 0 0 -4.220932,-9.8702 4.3323711,12.734546 0 0 0 -4.173386,9.32914 5.2513594,24.943956 0 0 0 -5.139741,-19.83186 z m 23.741706,1.0511 a 3.2642492,27.157936 0 0 0 -3.264403,27.15803 3.2642492,27.157936 0 0 0 3.264403,27.15803 3.2642492,27.157936 0 0 0 3.263881,-27.15803 3.2642492,27.157936 0 0 0 -3.263881,-27.15803 z m 8.283731,4.36459 a 4.5949391,20.611585 0 0 0 -4.594551,20.61166 4.5949391,20.611585 0 0 0 4.594551,20.61166 4.5949391,20.611585 0 0 0 4.479313,-16.06206 2.6876428,11.347825 0 0 0 2.667537,9.9999 2.6876428,11.347825 0 0 0 2.687693,-11.34814 2.6876428,11.347825 0 0 0 -2.687693,-11.34763 2.6876428,11.347825 0 0 0 -2.552816,7.80469 4.5949391,20.611585 0 0 0 -4.594034,-20.27008 z"
       copytype="repeated_stretched"
       prop_scale="1"
       scale_y_rel="false"
       spacing="0"
       normal_offset="0"
       tang_offset="0"
       prop_units="false"
       vertical_pattern="false"
       hide_knot="false"
       fuse_tolerance="0" />
    <inkscape:path-effect
       effect="skeletal"
       id="path-effect2303"
       is_visible="true"
       lpeversion="1"
       pattern="m 146.73472,184.3227 a 5.3871686,8.9273109 0 0 1 -5.38717,8.92731 5.3871686,8.9273109 0 0 1 -5.38716,-8.92731 5.3871686,8.9273109 0 0 1 5.38716,-8.92731 5.3871686,8.9273109 0 0 1 5.38717,8.92731 z m -11.13621,-1.57539 a 6.756869,19.445662 0 0 1 -6.75687,19.44566 6.756869,19.445662 0 0 1 -6.75688,-19.44566 6.756869,19.445662 0 0 1 6.75688,-19.44566 6.756869,19.445662 0 0 1 6.75687,19.44566 z m -12.555,0.17807 a 4.7838121,27.157936 0 0 1 -4.78381,27.15793 4.7838121,27.157936 0 0 1 -4.78381,-27.15793 4.7838121,27.157936 0 0 1 4.78381,-27.15794 4.7838121,27.157936 0 0 1 4.78381,27.15794 z m -10.94057,-2.14733 a 5.0023708,18.511042 0 0 1 -5.00237,18.51105 5.0023708,18.511042 0 0 1 -5.00237,-18.51105 5.0023708,18.511042 0 0 1 5.00237,-18.51104 5.0023708,18.511042 0 0 1 5.00237,18.51104 z m -10.38954,-2.6257 a 6.3491627,12.734547 0 0 1 -6.349162,12.73455 6.3491627,12.734547 0 0 1 -6.349164,-12.73455 6.3491627,12.734547 0 0 1 6.349164,-12.73454 6.3491627,12.734547 0 0 1 6.349162,12.73454 z m -13.852734,1.7067 a 7.6959554,24.943956 0 0 1 -7.695955,24.94395 7.6959554,24.943956 0 0 1 -7.695956,-24.94395 7.6959554,24.943956 0 0 1 7.695956,-24.94396 7.6959554,24.943956 0 0 1 7.695955,24.94396 z"
       copytype="repeated_stretched"
       prop_scale="1"
       scale_y_rel="false"
       spacing="0"
       normal_offset="0"
       tang_offset="0"
       prop_units="false"
       vertical_pattern="false"
       hide_knot="false"
       fuse_tolerance="0" />
    <inkscape:path-effect
       effect="bend_path"
       id="path-effect2970-1"
       is_visible="true"
       lpeversion="1"
       bendpath="m 43.763949,70.10731 c -2.161977,107.01546 130.764381,120.38147 134.266091,0"
       prop_scale="1"
       scale_y_rel="false"
       vertical="false"
       hide_knot="false"
       bendpath-nodetypes="cc" />
    <inkscape:path-effect
       effect="bend_path"
       id="path-effect2565-7"
       is_visible="true"
       lpeversion="1"
       bendpath="m 22.094421,77.755379 c 47.268841,63.835791 105.047969,86.291981 159.759649,0"
       prop_scale="1"
       scale_y_rel="false"
       vertical="false"
       hide_knot="false"
       bendpath-nodetypes="cc" />
    <inkscape:path-effect
       effect="bend_path"
       id="path-effect2004-8"
       is_visible="true"
       lpeversion="1"
       bendpath="m 27.618026,97.300446 c 45.668773,25.787114 97.134884,31.863294 159.759654,0"
       prop_scale="1"
       scale_y_rel="false"
       vertical="false"
       hide_knot="false"
       bendpath-nodetypes="cc" />
    <inkscape:path-effect
       effect="bend_path"
       id="path-effect969-1"
       is_visible="true"
       lpeversion="1"
       bendpath="M 65.435059,87.740334 C 56.61074,15.763533 192.01306,8.7605155 192.47641,90.28969"
       prop_scale="1"
       scale_y_rel="false"
       vertical="false"
       hide_knot="false"
       bendpath-nodetypes="cc" />
    <clipPath
       clipPathUnits="userSpaceOnUse"
       id="clipPath3020">
      <path
         id="path3022"
         style="fill:none;stroke:#000000;stroke-width:4.36913;stroke-linecap:round;stroke-linejoin:round;stroke-opacity:0.955017;paint-order:stroke markers fill"
         d="M 163.66406,761.68555 V 1065.4688 H 466.69922 V 761.68555 Z m 173.56446,59.24414 c 0.77669,-0.0209 1.63719,0.25746 2.48242,0.8789 0.56185,0.0449 1.13695,0.23718 1.68554,0.65039 0.8121,0.37729 1.81694,0.94292 3.04883,1.72852 0.96019,-0.48146 0.95653,-0.74828 0.92188,0.59961 0.004,0.003 0.008,0.005 0.0117,0.008 0.57301,0.38127 0.43726,0.99724 -0.0215,1.66406 0.01,1.54659 0.0321,3.09257 0.0508,4.63868 0.44759,1.65154 0.68402,3.52607 0.88282,5.20703 0.21064,-1.32964 1.41183,1.81559 1.49804,2.44726 0.0563,0.41239 -0.16765,-0.96607 -0.55468,-1.11914 -1.26395,-0.49947 -2.66603,-0.51402 -4.00977,-0.73437 -0.75802,0.16747 -1.38234,0.22463 -1.94531,0.23047 0.68402,1.56123 11.16908,7.10027 5.2539,6.38476 -1.54015,-0.18622 -3.18316,0.0238 -4.62109,-0.55859 -0.69052,-0.27969 -2.94658,-5.49603 -3.09961,-5.82031 -0.19588,-1.99194 0.15965,1.51612 -0.17969,-0.95508 -0.66772,-0.74206 -0.95418,-1.82636 -1.16015,-3.03321 -0.0258,-0.15103 0.0768,-0.30471 0.0605,-0.45703 -0.0654,-0.61156 -0.19003,-1.0651 -0.30273,-1.55078 -0.31282,-0.50473 -0.64254,-1.00197 -0.9668,-1.5 -0.47247,-0.18941 -0.86572,0.19238 -1.10547,1.75195 l -0.17773,1.16211 c 0.20668,-1.40749 -1.05244,-3.54982 -0.70703,-4.74804 0.20295,-0.70403 0.29001,-0.81804 0.43554,-1.29688 -1.0269,-3.34538 0.44302,-5.5222 2.51954,-5.57812 z" />
    </clipPath>
  </defs>
  <g
     inkscape:label="Layer 1"
     inkscape:groupmode="layer"
     id="layer1">
    <path
       style="fill:#ffffff;stroke:#000000;stroke-width:4.7671;stroke-linecap:round;stroke-linejoin:round;stroke-opacity:0.955017;paint-order:stroke markers fill"
       d=""
       id="path1841"
       transform="scale(0.26458333)" />
    <path
       id="rect1704"
       style="fill:none;fill-rule:evenodd;stroke:#000000;stroke-width:1.08011;stroke-linecap:round;stroke-linejoin:round;stroke-miterlimit:4;stroke-dasharray:none;paint-order:stroke markers fill"
       d="M 14.082852,54.878574 H 82.51843 c 0.840504,0 1.517152,0.842672 1.517152,1.8894 v 52.115816 c 0,1.04673 -0.676648,1.8894 -1.517152,1.8894 H 14.082852 c -0.840498,0 -1.517142,-0.84267 -1.517142,-1.8894 V 56.767974 c 0,-1.046728 0.676644,-1.8894 1.517142,-1.8894 z m -5.174297,-3.79478 h 76.82838 c 0.970423,0 1.751668,0.972932 1.751668,2.181462 v 60.172094 c 0,1.20854 -0.781245,2.18147 -1.751668,2.18147 H 8.908555 c -0.9704276,0 -1.7516714,-0.97293 -1.7516714,-2.18147 V 53.265256 c 0,-1.20853 0.7812438,-2.181462 1.7516714,-2.181462 z M 72.013212,27.82549 h 0.839337 c 0.619997,0 1.119117,0.570619 1.119117,1.279431 v 1.812537 c 0,0.708803 -0.49912,1.279422 -1.119117,1.279422 h -0.839337 c -0.619993,0 -1.119122,-0.570619 -1.119122,-1.279422 v -1.812537 c 0,-0.708812 0.499129,-1.279431 1.119122,-1.279431 z m 5.33395,1.972453 a 5.1007963,6.8976852 0 0 1 -5.100801,6.897681 5.1007963,6.8976852 0 0 1 -5.100797,-6.897681 5.1007963,6.8976852 0 0 1 5.100797,-6.897699 5.1007963,6.8976852 0 0 1 5.100801,6.897699 z m -2.008847,0.266549 a 3.0453297,3.9080549 0 0 1 -3.045324,3.90806 3.0453297,3.9080549 0 0 1 -3.045328,-3.90806 3.0453297,3.9080549 0 0 1 3.045328,-3.90806 3.0453297,3.9080549 0 0 1 3.045324,3.90806 z M 64.5066,28.541988 a 4.6798893,5.9190328 0 0 1 -4.679886,5.919035 4.6798893,5.9190328 0 0 1 -4.679889,-5.919035 4.6798893,5.9190328 0 0 1 4.679889,-5.919035 4.6798893,5.9190328 0 0 1 4.679886,5.919035 z m -2.681953,0.395342 a 2.3454019,2.7234402 0 0 1 -2.3454,2.723434 2.3454019,2.7234402 0 0 1 -2.345407,-2.723434 2.3454019,2.7234402 0 0 1 2.345407,-2.723454 2.3454019,2.7234402 0 0 1 2.3454,2.723454 z m -40.87638,-7.567695 c 0.734175,0 1.325224,0.867632 1.325224,1.945369 v 4.377122 c 0,1.077736 -0.591049,1.945368 -1.325224,1.945368 -0.734174,0 -1.325224,-0.867632 -1.325224,-1.945368 v -4.377122 c 0,-1.077737 0.59105,-1.945369 1.325224,-1.945369 z m 5.300889,5.836144 a 4.4726226,6.8088266 0 0 1 -4.472623,6.808819 4.4726226,6.8088266 0 0 1 -4.472624,-6.808819 4.4726226,6.8088266 0 0 1 4.472624,-6.808838 4.4726226,6.8088266 0 0 1 4.472623,6.808838 z m 5.663804,-4.383122 c 0.673464,-0.429112 1.450977,0.02143 1.743299,1.00994 l 1.187216,4.015197 c 0.292327,0.988617 -0.01449,2.129969 -0.687984,2.5591 -0.673471,0.429111 -1.450979,-0.02143 -1.743299,-1.009949 l -1.187223,-4.015188 c -0.292321,-0.988627 0.01449,-2.129979 0.687991,-2.5591 z m 6.445541,2.255267 a 6.7727445,4.4964503 88.191389 0 1 -2.256014,8.86003 6.7727445,4.4964503 88.191389 0 1 -5.949592,-3.631627 6.7727445,4.4964503 88.191389 0 1 2.256014,-8.860039 6.7727445,4.4964503 88.191389 0 1 5.949592,3.631636 z m 10.662007,-2.843437 c 0.542771,0.725715 0.581742,1.951416 0.08737,2.748194 l -2.00783,3.235999 c -0.494377,0.796789 -1.329339,0.853986 -1.87211,0.128318 -0.542778,-0.725726 -0.581743,-1.951416 -0.08737,-2.748195 l 2.00783,-3.236009 c 0.494376,-0.796769 1.329332,-0.853976 1.87211,-0.128317 z m 1.241855,9.554547 a 4.5429639,6.7034011 2.6044814 0 1 -6.429916,0.612635 4.5429639,6.7034011 2.6044814 0 1 -0.183326,-9.454923 4.5429639,6.7034011 2.6044814 0 1 6.429909,-0.612645 4.5429639,6.7034011 2.6044814 0 1 0.183333,9.454933 z M 13.176479,10.908475 H 78.30416 c 1.449078,0 2.615663,1.452815 2.615663,3.257441 v 28.570347 c 0,1.804632 -1.166585,3.257445 -2.615663,3.257445 H 13.176479 c -1.449082,0 -2.615666,-1.452813 -2.615666,-3.257445 V 14.165916 c 0,-1.804626 1.166584,-3.257441 2.615666,-3.257441 z M 9.3811722,5.2730192 H 85.018916 c 1.449078,0 2.615663,1.4528153 2.615663,3.2574281 V 48.008149 c 0,1.804614 -1.166585,3.257436 -2.615663,3.257436 H 9.3811722 c -1.4490756,0 -2.6156591,-1.452822 -2.6156591,-3.257436 V 8.5304473 c 0,-1.8046128 1.1665835,-3.2574281 2.6156591,-3.2574281 z" />
  </g>
  <g
     inkscape:groupmode="layer"
     id="layer2"
     inkscape:label="Layer 2">
    <path
       style="fill:#000000;fill-rule:evenodd;stroke:#000000;stroke-width:8.07812;stroke-linecap:round;stroke-linejoin:round;stroke-miterlimit:4;stroke-dasharray:none;paint-order:stroke markers fill"
       d=""
       id="path2664"
       transform="scale(0.26458333)" />
    <g
       id="g2987">
      <path
         id="path2212"
         style="fill:none;fill-rule:evenodd;stroke:#000000;stroke-width:1.08011;stroke-linecap:round;stroke-linejoin:round;stroke-miterlimit:4;stroke-dasharray:none;paint-order:stroke markers fill"
         d="m 127.51221,56.371066 h 68.43558 c 0.8405,0 1.51715,0.842672 1.51715,1.8894 v 52.115814 c 0,1.04673 -0.67665,1.8894 -1.51715,1.8894 h -68.43558 c -0.8405,0 -1.51714,-0.84267 -1.51714,-1.8894 V 58.260466 c 0,-1.046728 0.67664,-1.8894 1.51714,-1.8894 z m -5.1743,-3.79478 h 76.82838 c 0.97043,0 1.75167,0.972932 1.75167,2.181462 v 60.172092 c 0,1.20854 -0.78124,2.18147 -1.75167,2.18147 h -76.82838 c -0.97042,0 -1.75167,-0.97293 -1.75167,-2.18147 V 54.757748 c 0,-1.20853 0.78125,-2.181462 1.75167,-2.181462 z m 63.10466,-23.258304 h 0.83934 c 0.61999,0 1.11911,0.570619 1.11911,1.279431 v 1.812537 c 0,0.708803 -0.49912,1.279422 -1.11911,1.279422 h -0.83934 c -0.61999,0 -1.11912,-0.570619 -1.11912,-1.279422 v -1.812537 c 0,-0.708812 0.49913,-1.279431 1.11912,-1.279431 z m 5.33395,1.972453 a 5.1007963,6.8976852 0 0 1 -5.1008,6.897681 5.1007963,6.8976852 0 0 1 -5.1008,-6.897681 5.1007963,6.8976852 0 0 1 5.1008,-6.897699 5.1007963,6.8976852 0 0 1 5.1008,6.897699 z m -2.00885,0.266549 a 3.0453297,3.9080549 0 0 1 -3.04532,3.90806 3.0453297,3.9080549 0 0 1 -3.04533,-3.90806 3.0453297,3.9080549 0 0 1 3.04533,-3.90806 3.0453297,3.9080549 0 0 1 3.04532,3.90806 z M 177.93596,30.03448 a 4.6798893,5.9190328 0 0 1 -4.67989,5.919035 4.6798893,5.9190328 0 0 1 -4.67989,-5.919035 4.6798893,5.9190328 0 0 1 4.67989,-5.919035 4.6798893,5.9190328 0 0 1 4.67989,5.919035 z m -2.68195,0.395342 a 2.3454019,2.7234402 0 0 1 -2.3454,2.723434 2.3454019,2.7234402 0 0 1 -2.34541,-2.723434 2.3454019,2.7234402 0 0 1 2.34541,-2.723454 2.3454019,2.7234402 0 0 1 2.3454,2.723454 z m -40.87638,-7.567695 c 0.73417,0 1.32522,0.867632 1.32522,1.945369 v 4.377122 c 0,1.077736 -0.59105,1.945368 -1.32522,1.945368 -0.73418,0 -1.32523,-0.867632 -1.32523,-1.945368 v -4.377122 c 0,-1.077737 0.59105,-1.945369 1.32523,-1.945369 z m 5.30088,5.836144 a 4.4726226,6.8088266 0 0 1 -4.47262,6.808819 4.4726226,6.8088266 0 0 1 -4.47262,-6.808819 4.4726226,6.8088266 0 0 1 4.47262,-6.808838 4.4726226,6.8088266 0 0 1 4.47262,6.808838 z m 5.66381,-4.383122 c 0.67346,-0.429112 1.45098,0.02143 1.7433,1.00994 l 1.18721,4.015197 c 0.29233,0.988617 -0.0145,2.129969 -0.68798,2.5591 -0.67347,0.429111 -1.45098,-0.02143 -1.7433,-1.009949 l -1.18722,-4.015188 c -0.29232,-0.988627 0.0145,-2.129979 0.68799,-2.5591 z m 6.44554,2.255267 a 6.7727445,4.4964503 88.191389 0 1 -2.25601,8.86003 6.7727445,4.4964503 88.191389 0 1 -5.9496,-3.631627 6.7727445,4.4964503 88.191389 0 1 2.25602,-8.860039 6.7727445,4.4964503 88.191389 0 1 5.94959,3.631636 z m 10.66201,-2.843437 c 0.54277,0.725715 0.58174,1.951416 0.0874,2.748194 l -2.00783,3.235999 c -0.49438,0.796789 -1.32934,0.853986 -1.87211,0.128318 -0.54278,-0.725726 -0.58175,-1.951416 -0.0874,-2.748195 l 2.00783,-3.236009 c 0.49437,-0.796769 1.32933,-0.853976 1.87211,-0.128317 z m 1.24185,9.554547 a 4.5429639,6.7034011 2.6044814 0 1 -6.42991,0.612635 4.5429639,6.7034011 2.6044814 0 1 -0.18333,-9.454923 4.5429639,6.7034011 2.6044814 0 1 6.42991,-0.612645 4.5429639,6.7034011 2.6044814 0 1 0.18333,9.454933 z M 126.60584,12.400967 h 65.12768 c 1.44908,0 2.61566,1.452815 2.61566,3.257441 v 28.570347 c 0,1.804632 -1.16658,3.257445 -2.61566,3.257445 h -65.12768 c -1.44908,0 -2.61567,-1.452813 -2.61567,-3.257445 V 15.658408 c 0,-1.804626 1.16659,-3.257441 2.61567,-3.257441 z m -3.79531,-5.6354562 h 75.63774 c 1.44908,0 2.61567,1.4528153 2.61567,3.2574282 v 39.477702 c 0,1.804614 -1.16659,3.257436 -2.61567,3.257436 h -75.63774 c -1.44907,0 -2.61566,-1.452822 -2.61566,-3.257436 V 10.022939 c 0,-1.8046129 1.16659,-3.2574282 2.61566,-3.2574282 z" />
      <path
         style="fill:#000000;fill-rule:evenodd;stroke:#000000;stroke-width:13.1864;stroke-linecap:round;stroke-linejoin:round;stroke-miterlimit:4;stroke-dasharray:none;paint-order:stroke markers fill"
         d="m 459.6785,438.22843 c -0.36988,-0.96953 -0.50862,-54.43481 -0.3083,-118.81173 l 0.36421,-117.04895 147.28157,-0.35912 c 116.89341,-0.28502 147.51335,0.006 148.40492,1.41023 0.61785,0.97314 1.13309,53.8385 1.14496,117.47858 0.0165,88.1401 -0.3816,116.11242 -1.67068,117.4015 -2.52071,2.52071 -294.25471,2.45103 -295.21668,-0.0705 z m 286.935,-14.64503 c 2.89523,-3.68068 2.92281,-4.6703 2.92281,-104.87182 0,-100.20151 -0.0276,-101.19113 -2.92281,-104.87182 l -2.92281,-3.71575 -132.10654,0.0216 c -72.6586,0.0119 -132.8048,0.48783 -133.65821,1.05767 -4.62408,3.08758 -4.79436,6.92108 -4.79436,107.93054 0,99.77435 0.0278,100.76924 2.92281,104.44959 l 2.92281,3.71576 h 132.35675 132.35674 z"
         id="path2288"
         transform="scale(0.26458333)" />
      <path
         style="fill:#000000;fill-rule:evenodd;stroke:#000000;stroke-width:13.1864;stroke-linecap:round;stroke-linejoin:round;stroke-miterlimit:4;stroke-dasharray:none;paint-order:stroke markers fill"
         d="m 605.06703,194.96408 c -113.98559,-0.28729 -145.41398,-0.74317 -146.28958,-2.12202 -0.61336,-0.96587 -1.12491,-37.35418 -1.13679,-80.8629 -0.0204,-74.861814 0.1168,-79.232015 2.55735,-81.440685 2.36443,-2.13978 14.60413,-2.33391 147.15028,-2.33391 138.26739,0 144.67311,0.112453 146.90525,2.578942 2.11297,2.334801 2.33391,10.019951 2.33391,81.180833 0,77.73837 -0.37811,84.5705 -4.63285,83.71153 -0.94224,-0.19023 -67.04166,-0.51053 -146.88757,-0.71179 z m 128.1263,-17.38353 3.65093,-4.33888 V 112.7887 52.335724 l -3.40318,-3.956767 -3.40316,-3.956767 -124.57505,-0.408775 c -68.51627,-0.224827 -126.66776,-0.03174 -129.22554,0.429076 -3.21428,0.579098 -5.49915,2.229676 -7.39843,5.344575 -2.60883,4.2786 -2.74819,7.517184 -2.75319,63.980664 l -0.005,59.47394 3.65093,4.33888 3.65093,4.33889 h 128.08005 128.08004 z"
         id="path2327"
         transform="scale(0.26458333)" />
      <path
         style="fill:#000000;fill-rule:evenodd;stroke:#000000;stroke-width:13.1864;stroke-linecap:round;stroke-linejoin:round;stroke-miterlimit:4;stroke-dasharray:none;paint-order:stroke markers fill"
         d="m 601.46235,107.90365 c 0,-4.2073 8.1713,-17.994765 9.99633,-16.866836 2.39405,1.479601 1.30249,6.054183 -3.15599,13.226376 -4.91164,7.90117 -6.84034,8.92764 -6.84034,3.64046 z"
         id="path2366"
         transform="scale(0.26458333)" />
      <path
         style="fill:#000000;stroke-width:0.161825"
         d="m 172.88423,104.59233 c -0.74667,-0.56991 -1.44145,-2.25719 -1.7469,-4.24235 -0.0502,-0.32619 -0.0854,-0.30848 -0.4571,0.22963 -0.52304,0.75726 -1.41734,1.32554 -2.08602,1.32554 -1.02799,0 -2.11456,-1.01137 -2.583,-2.404241 -0.35736,-1.06254 -0.31605,-1.0418 -1.10774,-0.5562 -0.49325,0.30256 -1.00212,0.47164 -1.56529,0.52009 -1.1406,0.0981 -1.67152,-0.0286 -2.49291,-0.595 l -0.70095,-0.48335 -0.32889,1.0878 c -1.10043,3.639641 -3.92375,5.028721 -6.20332,3.052061 -1.41748,-1.22912 -2.24408,-3.512771 -2.24408,-6.199671 v -1.63182 h -0.44984 c -0.52102,0 -0.98836,-0.31076 -1.13111,-0.75213 -0.27987,-0.86538 1.08679,-2.70627 3.0052,-4.04801 1.16906,-0.81764 1.19444,-0.85013 0.90797,-1.16231 -0.44784,-0.48801 -0.36756,-1.43033 0.19392,-2.27604 0.57609,-0.86774 2.27985,-2.18656 3.53194,-2.73395 0.48838,-0.21352 0.92357,-0.40937 0.96709,-0.43523 0.0436,-0.0259 -0.10744,-0.17971 -0.33549,-0.34187 -2.23037,-1.586 0.48056,-5.24901 5.24259,-7.08382 l 1.09892,-0.42341 -0.85654,-0.283 -0.85654,-0.283 -0.56604,0.30764 c -1.76415,0.95881 -3.38072,0.45341 -4.55672,-1.4246 l -0.53505,-0.85444 -0.23509,1.24296 c -0.44539,2.35484 -1.51987,4.00985 -2.60329,4.00985 -1.19644,0 -2.20077,-1.60206 -2.74426,-4.37753 l -0.12356,-0.63099 -0.44726,0.67173 c -0.45646,0.68553 -1.34085,1.2254 -2.00742,1.2254 -1.09638,0 -2.23552,-1.16487 -2.70499,-2.76607 l -0.2231,-0.76091 -0.70771,0.48802 c -0.82811,0.57104 -1.35715,0.69795 -2.49968,0.59966 -0.56316,-0.0485 -1.07203,-0.21753 -1.56529,-0.52008 -0.49568,-0.30405 -0.75199,-0.38892 -0.79653,-0.26376 -0.0361,0.1015 -0.24844,0.69351 -0.47183,1.31557 -1.53676,4.27939 -5.39737,4.64138 -7.34652,0.68885 -2.00872,-4.07334 -0.751,-10.44801 2.32145,-11.76604 0.92097,-0.39508 1.55826,-0.3836 2.5172,0.0453 1.18633,0.53066 1.80808,1.36298 2.79237,3.73803 0.0592,0.14276 0.2517,0.0667 0.67905,-0.2683 1.49387,-1.17102 3.43125,-1.11332 4.81349,0.14334 l 0.58094,0.52815 0.42061,-0.79605 c 0.52589,-0.99533 1.3228,-1.57363 2.16849,-1.57363 0.85769,0 1.5467,0.45976 2.15128,1.43551 l 0.50948,0.82228 0.22555,-0.87506 c 0.48374,-1.87671 1.4795,-3.22066 2.38628,-3.22066 0.9982,0 1.93375,1.16815 2.43438,3.03965 0.351,1.31217 0.36576,1.32081 0.81493,0.47727 0.78564,-1.47542 1.84842,-2.24504 3.09875,-2.24398 1.68311,0.002 2.81266,1.1706 3.79999,3.9333 0.0498,0.13942 0.1918,0.11232 0.55548,-0.10603 0.28093,-0.16867 0.76132,-0.29332 1.13039,-0.29332 0.83747,0 1.77692,0.6991 2.0993,1.56222 0.12925,0.34604 0.28694,0.67634 0.35041,0.73401 0.0635,0.0577 0.77876,10e-4 1.58952,-0.12561 1.88036,-0.29397 6.26016,-0.33046 7.67923,-0.064 1.64979,0.30981 2.92068,0.82906 3.43034,1.40154 1.7167,1.92828 -1.75762,4.13022 -8.07578,5.11825 -0.93148,0.14566 -1.73273,0.29471 -1.78057,0.33122 -0.0478,0.0365 0.003,0.1949 0.11326,0.35196 0.11013,0.15707 0.20023,0.59931 0.20023,0.98277 0,1.99777 -3.20056,4.6496 -7.1656,5.93709 -0.52827,0.17154 -1.08299,0.31188 -1.23272,0.31188 -0.2198,0 -0.25325,0.15993 -0.17364,0.83008 0.0885,0.74518 0.0359,0.91989 -0.51448,1.70807 -0.70057,1.00324 -2.26619,2.15992 -3.73816,2.76175 -0.53617,0.21922 -1.00992,0.4209 -1.05277,0.44817 -0.0429,0.0273 0.0895,0.19248 0.29418,0.36713 0.62763,0.53563 1.1132,1.26095 1.55678,2.32547 l 0.42431,1.01827 0.71697,-0.49441 c 0.81918,-0.56488 1.40041,-0.76454 2.22562,-0.76454 0.84595,0 2.12769,0.52564 2.61415,1.07206 l 0.42405,0.47632 0.42285,-0.77871 c 0.58503,-1.07733 1.32749,-1.61795 2.22202,-1.61795 0.88261,0 1.5335,0.43772 2.14232,1.44071 0.25655,0.42265 0.48197,0.64905 0.52914,0.53144 0.0452,-0.1127 0.21485,-0.64203 0.37699,-1.17628 0.39395,-1.29813 0.99771,-2.18595 1.66583,-2.44967 0.48747,-0.1924 0.60655,-0.19221 1.13956,0.002 0.76935,0.28003 1.34153,1.17296 1.87395,2.92444 0.22456,0.7387 0.41438,1.24766 0.42181,1.13103 0.0304,-0.47655 1.1114,-1.94118 1.74731,-2.36734 0.79645,-0.53375 1.35652,-0.66796 2.25226,-0.53969 1.23801,0.17727 2.51559,1.55896 3.04716,3.29547 l 0.2271,0.74189 0.5196,-0.28241 c 0.2858,-0.15533 0.81291,-0.2824 1.17137,-0.2824 2.27232,0 3.35253,3.97856 1.67865,6.18273 -0.51505,0.678221 -0.91685,0.886221 -1.71197,0.886221 -0.81232,0 -1.10899,-0.12301 -1.58432,-0.65694 l -0.42726,-0.479921 -0.31443,0.628391 c -0.92072,1.84016 -2.68586,2.6575 -4.33416,2.0069 -0.64815,-0.25582 -1.60221,-1.24014 -1.96798,-2.03038 l -0.24457,-0.528391 -0.13367,0.706891 c -0.55341,2.92674 -1.55548,4.59482 -2.76023,4.59482 -0.26084,0 -0.69538,-0.18176 -1.01164,-0.42316 z"
         id="path3708" />
      <path
         style="fill:#000000;fill-rule:evenodd;stroke:#000000;stroke-width:8.07812;stroke-linecap:round;stroke-linejoin:round;stroke-miterlimit:4;stroke-dasharray:none;paint-order:stroke markers fill"
         d="m 648.30388,131.07922 c -5.96873,-4.02233 -9.07815,-11.37925 -8.33027,-19.70951 1.01731,-11.33136 9.59493,-19.584654 17.88365,-17.207478 11.02843,3.16291 15.75719,21.150078 8.42188,32.034938 -4.53768,6.73348 -12.15712,8.8029 -17.97526,4.88205 z m 12.75773,-6.98381 c 6.3815,-6.96342 3.81963,-18.88633 -4.55495,-21.19866 -7.37564,-2.03652 -14.18256,3.72098 -14.18256,11.99605 0,11.23653 11.63622,16.95146 18.73751,9.20261 z"
         id="path2703"
         transform="scale(0.26458333)" />
      <path
         style="fill:#000000;fill-rule:evenodd;stroke:#000000;stroke-width:8.07812;stroke-linecap:round;stroke-linejoin:round;stroke-miterlimit:4;stroke-dasharray:none;paint-order:stroke markers fill"
         d="m 696.31907,140.32419 c -4.16682,-2.16712 -6.15139,-4.48371 -8.6932,-10.14762 -4.34571,-9.68353 -2.85987,-22.28638 3.50404,-29.72117 3.68652,-4.306876 7.09807,-5.774626 12.10931,-5.209786 8.19711,0.923932 14.17247,9.284816 14.91602,20.870886 0.51838,8.07758 -1.28622,14.45331 -5.4765,19.34872 -5.24607,6.12885 -10.76584,7.76827 -16.35967,4.85897 z m 10.62591,-5.03871 c 9.85089,-5.12542 11.92925,-20.80784 3.87239,-29.2194 -8.79029,-9.177278 -22.62738,-1.26865 -22.68657,12.96657 -0.0507,12.19124 9.97487,20.85192 18.81418,16.25283 z"
         id="path2742"
         transform="scale(0.26458333)" />
      <path
         style="fill:#000000;fill-rule:evenodd;stroke:#000000;stroke-width:4.64062;stroke-linecap:round;stroke-linejoin:round;stroke-miterlimit:4;stroke-dasharray:none;paint-order:stroke markers fill"
         d="m 554.76056,118.26986 c -0.56077,-0.56077 -2.03675,-4.60871 -3.5833,-9.82738 -2.78625,-9.401893 -3.00066,-11.752695 -1.24849,-13.688819 2.12133,-2.344043 2.95754,-1.027704 6.18111,9.730179 2.8026,9.35299 2.92855,11.41521 0.82562,13.51814 -1.20473,1.20473 -1.23443,1.20839 -2.17494,0.26788 z"
         id="path2820"
         transform="scale(0.26458333)" />
      <path
         style="fill:#000000;fill-rule:evenodd;stroke:#000000;stroke-width:4.64062;stroke-linecap:round;stroke-linejoin:round;stroke-miterlimit:4;stroke-dasharray:none;paint-order:stroke markers fill"
         d="m 506.10739,113.79726 c -0.77213,-1.17843 -0.87995,-2.62534 -0.87995,-11.80881 0,-9.183476 0.10782,-10.630387 0.87995,-11.808816 1.16093,-1.771793 2.62063,-1.72227 3.57395,0.121254 1.10604,2.138852 1.10604,21.236262 0,23.375122 -0.95332,1.84352 -2.41302,1.89304 -3.57395,0.12125 z"
         id="path2859"
         transform="scale(0.26458333)" />
    </g>
  </g>
  <g
     inkscape:groupmode="layer"
     id="layer3"
     inkscape:label="Layer 3">
    <g
       inkscape:label="Layer 1"
       id="layer1-3"
       transform="translate(186.23631,106.69303)">
      <path
         style="fill:#ffffff;stroke:#000000;stroke-width:4.7671;stroke-linecap:round;stroke-linejoin:round;stroke-opacity:0.955017;paint-order:stroke markers fill"
         d=""
         id="path1841-8"
         transform="scale(0.26458333)" />
      <path
         style="fill:#000000;stroke:#000000;stroke-width:2.16838;stroke-linecap:round;stroke-linejoin:round;stroke-opacity:0.955017;paint-order:stroke markers fill"
         d=""
         id="path914"
         transform="scale(0.26458333)" />
      <path
         id="path1412"
         style="fill:none;stroke:#000000;stroke-width:3.30528;stroke-linecap:round;stroke-linejoin:round;stroke-opacity:0.955017;paint-order:stroke markers fill"
         d="m 186.87695,763.33789 a 21.559827,49.669829 0 0 0 -21.56054,49.66992 21.559827,49.669829 0 0 0 21.56054,49.66992 21.559827,49.669829 0 0 0 21.43946,-44.73242 17.786855,25.357755 0 0 0 16.79492,17.02149 17.786855,25.357755 0 0 0 16.75586,-16.86719 14.013887,36.860242 0 0 0 13.95117,33.59961 14.013887,36.860242 0 0 0 14.01562,-36.86133 14.013887,36.860242 0 0 0 -14.01562,-36.85937 14.013887,36.860242 0 0 0 -13.37695,25.92773 17.786855,25.357755 0 0 0 -17.33008,-19.6543 17.786855,25.357755 0 0 0 -17.13281,18.57813 21.559827,49.669829 0 0 0 -21.10157,-39.49219 z m 97.47266,2.09375 a 13.401606,54.078433 0 0 0 -13.40234,54.07813 13.401606,54.078433 0 0 0 13.40234,54.08007 13.401606,54.078433 0 0 0 13.40039,-54.08007 13.401606,54.078433 0 0 0 -13.40039,-54.07813 z m 34.00977,8.69141 a 18.864847,41.042963 0 0 0 -18.86329,41.04297 18.864847,41.042963 0 0 0 18.86329,41.04296 18.864847,41.042963 0 0 0 10.85937,-7.51562 21.122919,52.269887 81.318304 0 0 22.58984,7.92578 21.105336,40.666564 56.659245 0 0 -42.3164,27.7168 21.105336,40.666564 56.659245 0 0 10.6582,28.4707 21.105336,40.666564 56.659245 0 0 49.63867,-28.4707 21.105336,40.666564 56.659245 0 0 -2.87695,-27.28516 21.122919,52.269887 81.318304 0 0 59.99805,-22.20898 21.122919,52.269887 81.318304 0 0 -34.17969,-22.32422 21.122919,52.269887 81.318304 0 0 -34.20508,4.89258 11.034307,22.596437 0 0 0 -10.82422,-18.46485 11.034307,22.596437 0 0 0 -10.48047,15.54102 18.864847,41.042963 0 0 0 -18.86132,-40.36328 z m 1.79101,138.68359 a 13.797222,27.834024 51.64554 0 0 -32.79492,20.37891 13.797222,27.834024 51.64554 0 0 4.89062,20.38086 13.797222,27.834024 51.64554 0 0 32.79493,-20.38086 13.797222,27.834024 51.64554 0 0 -4.89063,-20.37891 z M 336.75,824.22461 a 11.034307,22.596437 0 0 0 0.22852,2.49414 21.122919,52.269887 81.318304 0 0 -0.60547,0.41016 18.864847,41.042963 0 0 0 0.37695,-2.9043 z m -43.5625,129.3418 a 21.559827,49.669829 0 0 0 -4.63477,1.21093 8.698035,23.711048 41.087214 0 0 -19.20117,17.55274 8.698035,23.711048 41.087214 0 0 -1.85351,18.76367 8.698035,23.711048 41.087214 0 0 4.93945,-1.31836 21.559827,49.669829 0 0 0 -0.80859,13.46091 21.559827,49.669829 0 0 0 21.55859,49.6699 21.559827,49.669829 0 0 0 21.44141,-44.7343 17.786855,25.357755 0 0 0 16.79492,17.0234 17.786855,25.357755 0 0 0 16.7539,-16.8672 14.013887,36.860242 0 0 0 13.95313,33.5977 14.013887,36.860242 0 0 0 14.01562,-36.8613 14.013887,36.860242 0 0 0 -14.01562,-36.85942 14.013887,36.860242 0 0 0 -13.37695,25.92969 17.786855,25.357755 0 0 0 -17.33008,-19.6543 17.786855,25.357755 0 0 0 -17.13477,18.57617 21.559827,49.669829 0 0 0 -21.10156,-39.49023 z m 97.47461,2.09375 a 13.401606,54.078433 0 0 0 -13.40234,54.07814 13.401606,54.078433 0 0 0 13.40234,54.0781 13.401606,54.078433 0 0 0 13.40039,-54.0781 13.401606,54.078433 0 0 0 -13.40039,-54.07814 z m 34.00977,8.68945 a 18.864847,41.042963 0 0 0 -18.86329,41.04299 18.864847,41.042963 0 0 0 18.86329,41.0449 18.864847,41.042963 0 0 0 18.38867,-31.9844 11.034307,22.596437 0 0 0 10.95312,19.9121 11.034307,22.596437 0 0 0 11.03321,-22.5976 11.034307,22.596437 0 0 0 -11.03321,-22.59572 11.034307,22.596437 0 0 0 -10.48047,15.54102 18.864847,41.042963 0 0 0 -18.86132,-40.36329 z"
         transform="matrix(0.26458333,0,0,0.26458333,23.753051,-189.90639)"
         clip-path="url(#clipPath3020)" />
      <g
         id="g1597"
         transform="translate(-8.102097,4.0510485)">
        <path
           id="path854"
           style="fill:none;fill-rule:evenodd;stroke:#000000;stroke-width:1.08011;stroke-linecap:round;stroke-linejoin:round;stroke-miterlimit:4;stroke-dasharray:none;paint-order:stroke markers fill"
           d="m 24.903416,224.64949 h 68.435578 c 0.840504,0 1.517152,0.84267 1.517152,1.8894 v 52.11582 c 0,1.04673 -0.676648,1.8894 -1.517152,1.8894 H 24.903416 c -0.840498,0 -1.517142,-0.84267 -1.517142,-1.8894 v -52.11582 c 0,-1.04673 0.676644,-1.8894 1.517142,-1.8894 z m -5.174297,-3.79478 h 76.82838 c 0.970423,0 1.751668,0.97293 1.751668,2.18146 v 60.1721 c 0,1.20854 -0.781245,2.18147 -1.751668,2.18147 h -76.82838 c -0.970428,0 -1.751672,-0.97293 -1.751672,-2.18147 v -60.1721 c 0,-1.20853 0.781244,-2.18146 1.751672,-2.18146 z m 63.104657,-23.2583 h 0.839337 c 0.619997,0 1.119117,0.57061 1.119117,1.27943 v 1.81253 c 0,0.70881 -0.49912,1.27943 -1.119117,1.27943 h -0.839337 c -0.619993,0 -1.119122,-0.57062 -1.119122,-1.27943 v -1.81253 c 0,-0.70882 0.499129,-1.27943 1.119122,-1.27943 z m 5.33395,1.97245 a 5.1007963,6.8976852 0 0 1 -5.100801,6.89768 5.1007963,6.8976852 0 0 1 -5.100797,-6.89768 5.1007963,6.8976852 0 0 1 5.100797,-6.8977 5.1007963,6.8976852 0 0 1 5.100801,6.8977 z m -2.008847,0.26655 a 3.0453297,3.9080549 0 0 1 -3.045324,3.90806 3.0453297,3.9080549 0 0 1 -3.045328,-3.90806 3.0453297,3.9080549 0 0 1 3.045328,-3.90806 3.0453297,3.9080549 0 0 1 3.045324,3.90806 z M 75.327164,198.3129 a 4.6798893,5.9190328 0 0 1 -4.679886,5.91904 4.6798893,5.9190328 0 0 1 -4.679889,-5.91904 4.6798893,5.9190328 0 0 1 4.679889,-5.91903 4.6798893,5.9190328 0 0 1 4.679886,5.91903 z m -2.681953,0.39535 a 2.3454019,2.7234402 0 0 1 -2.3454,2.72343 2.3454019,2.7234402 0 0 1 -2.345407,-2.72343 2.3454019,2.7234402 0 0 1 2.345407,-2.72346 2.3454019,2.7234402 0 0 1 2.3454,2.72346 z m -40.87638,-7.5677 c 0.734175,0 1.325224,0.86763 1.325224,1.94537 v 4.37712 c 0,1.07774 -0.591049,1.94537 -1.325224,1.94537 -0.734174,0 -1.325224,-0.86763 -1.325224,-1.94537 v -4.37712 c 0,-1.07774 0.59105,-1.94537 1.325224,-1.94537 z m 5.300889,5.83614 a 4.4726226,6.8088266 0 0 1 -4.472623,6.80882 4.4726226,6.8088266 0 0 1 -4.472624,-6.80882 4.4726226,6.8088266 0 0 1 4.472624,-6.80883 4.4726226,6.8088266 0 0 1 4.472623,6.80883 z m 5.663804,-4.38312 c 0.673464,-0.42911 1.450977,0.0214 1.743299,1.00994 l 1.187216,4.0152 c 0.292327,0.98862 -0.01449,2.12997 -0.687984,2.5591 -0.673471,0.42911 -1.450979,-0.0214 -1.743299,-1.00995 l -1.187223,-4.01519 c -0.292321,-0.98862 0.01449,-2.12998 0.687991,-2.5591 z m 6.445541,2.25527 a 6.7727445,4.4964503 88.191389 0 1 -2.256014,8.86003 6.7727445,4.4964503 88.191389 0 1 -5.949592,-3.63163 6.7727445,4.4964503 88.191389 0 1 2.256014,-8.86004 6.7727445,4.4964503 88.191389 0 1 5.949592,3.63164 z m 10.662007,-2.84344 c 0.542771,0.72572 0.581742,1.95142 0.08737,2.7482 l -2.00783,3.236 c -0.494377,0.79678 -1.329339,0.85398 -1.87211,0.12831 -0.542778,-0.72572 -0.581743,-1.95141 -0.08737,-2.74819 l 2.00783,-3.23601 c 0.494376,-0.79677 1.329332,-0.85398 1.87211,-0.12832 z m 1.241855,9.55455 a 4.5429639,6.7034011 2.6044814 0 1 -6.429916,0.61263 4.5429639,6.7034011 2.6044814 0 1 -0.183326,-9.45492 4.5429639,6.7034011 2.6044814 0 1 6.429909,-0.61264 4.5429639,6.7034011 2.6044814 0 1 0.183333,9.45493 z M 23.997043,180.67939 h 65.127681 c 1.449078,0 2.615663,1.45282 2.615663,3.25744 v 28.57035 c 0,1.80463 -1.166585,3.25744 -2.615663,3.25744 H 23.997043 c -1.449082,0 -2.615666,-1.45281 -2.615666,-3.25744 v -28.57035 c 0,-1.80462 1.166584,-3.25744 2.615666,-3.25744 z m -3.795307,-5.63546 H 95.83948 c 1.449078,0 2.615663,1.45282 2.615663,3.25743 v 39.4777 c 0,1.80462 -1.166585,3.25744 -2.615663,3.25744 H 20.201736 c -1.449076,0 -2.615659,-1.45282 -2.615659,-3.25744 v -39.4777 c 0,-1.80461 1.166583,-3.25743 2.615659,-3.25743 z"
           transform="translate(-186.23631,-106.69303)" />
        <path
           style="fill:#ffffff;fill-rule:evenodd;stroke:#000000;stroke-width:13.1864;stroke-linecap:round;stroke-linejoin:round;paint-order:stroke markers fill"
           d="m 91.815715,1055.4405 c -1.118488,-2.9147 -1.118488,-198.51723 0,-201.43196 0.772043,-2.01191 13.688785,-2.23068 131.705465,-2.23068 118.01668,0 130.93341,0.21877 131.70546,2.23068 0.4708,1.22688 0.85599,46.79135 0.85599,101.25439 0,75.13817 -0.40819,99.43187 -1.69227,100.71597 -1.29174,1.2918 -32.4644,1.6923 -131.70546,1.6923 -117.25411,0 -130.097197,-0.2189 -130.869185,-2.2307 z"
           id="path912"
           transform="matrix(0.26458333,0,0,0.26458333,-186.23631,-106.69303)" />
        <path
           style="fill:#ffffff;fill-rule:evenodd;stroke:#000000;stroke-width:13.1864;stroke-linecap:round;stroke-linejoin:round;paint-order:stroke markers fill"
           d="m 71.865727,1074.2414 c -0.369879,-0.9696 -0.508613,-54.4348 -0.308297,-118.81176 l 0.364211,-117.04895 147.281569,-0.35912 c 116.89341,-0.28502 147.51335,0.006 148.40492,1.41023 0.61785,0.97314 1.13309,53.8385 1.14497,117.47858 0.0165,88.14012 -0.38161,116.11242 -1.67069,117.40152 -2.52071,2.5207 -294.254703,2.451 -295.216683,-0.07 z M 357.85759,1062.804 c 1.36404,-0.6673 2.95055,-2.8884 3.52557,-4.9358 1.85391,-6.601 1.27456,-207.13112 -0.60386,-209.00919 -0.90714,-0.90699 -4.39746,-2.18015 -7.75626,-2.82926 -7.97212,-1.54066 -251.03161,-1.54066 -259.003735,0 -3.358795,0.64911 -6.84911,1.92241 -7.756255,2.82955 -2.409257,2.40926 -2.368481,209.362 0.04173,211.7722 0.930094,0.9301 4.103108,2.1692 7.051141,2.7535 7.437149,1.4741 261.441059,0.9162 264.501669,-0.581 z"
           id="path951"
           transform="matrix(0.26458333,0,0,0.26458333,-186.23631,-106.69303)" />
        <path
           style="fill:#ffffff;fill-rule:evenodd;stroke:#000000;stroke-width:13.1864;stroke-linecap:round;stroke-linejoin:round;paint-order:stroke markers fill"
           d="m 86.242491,809.71253 c -2.092177,-2.31183 -2.33391,-8.59257 -2.33391,-60.63982 0,-56.18056 0.09134,-58.15221 2.820456,-60.88133 2.777889,-2.77788 4.700761,-2.82045 127.407093,-2.82045 118.90652,0 124.69304,0.11758 126.92053,2.57894 2.09301,2.31273 2.33392,8.63457 2.33392,61.2442 0,51.45175 -0.27249,58.93774 -2.21608,60.88133 -1.98133,1.98133 -15.47738,2.21607 -127.40708,2.21607 -119.492046,0 -125.297264,-0.1174 -127.524929,-2.57894 z M 325.92372,778.11547 c 9.00512,-7.9066 12.23667,-20.88839 8.44581,-33.92849 -6.64258,-22.84969 -30.5907,-24.9746 -39.55701,-3.50989 -4.56614,10.93098 -2.03422,28.25892 5.28085,36.14109 4.02472,4.33676 7.39274,5.65936 14.69101,5.76911 4.7623,0.0716 6.97747,-0.81766 11.13934,-4.47182 z m -144.91891,-7.46584 c 6.19856,-5.21575 9.11033,-14.04162 8.4532,-25.62254 -0.6476,-11.41287 -4.36606,-19.51056 -11.0428,-24.0479 -13.14203,-8.93098 -27.40275,3.72953 -27.40116,24.32644 8.5e-4,10.95322 2.51796,18.05608 8.52883,24.06696 6.29087,6.29086 14.89491,6.80283 21.46193,1.27704 z m 95.83447,0.71081 c 13.25738,-8.0828 13.25738,-35.56545 0,-43.64826 -9.95298,-6.06817 -21.66206,-2.26174 -27.52372,8.9475 -2.99989,5.73673 -3.04617,19.93638 -0.0833,25.56869 2.40757,4.57675 7.56599,9.75216 10.95488,10.991 4.61972,1.68876 12.22597,0.83966 16.65217,-1.85893 z m -143.36542,-2.26671 c 5.98572,-5.41327 8.81105,-13.26722 8.81105,-24.49322 0,-17.07146 -7.59693,-28.20456 -19.24603,-28.20456 -4.616,0 -6.56446,0.94782 -10.93679,5.32015 -11.7778,11.7778 -11.22554,36.18416 1.06291,46.97356 4.4299,3.88951 5.80047,4.34568 11.22092,3.73472 3.39606,-0.38279 7.48563,-1.88158 9.08794,-3.33065 z m 94.37047,-0.10843 c 6.55488,-5.51557 9.7114,-13.4699 9.74816,-24.56512 0.0533,-16.08907 -7.29338,-26.99861 -18.18137,-26.99861 -10.16888,0 -16.91811,7.11926 -20.06032,21.16012 -5.15777,23.04736 13.53352,42.99163 28.49353,30.40361 z"
           id="path990"
           transform="matrix(0.26458333,0,0,0.26458333,-186.23631,-106.69303)" />
        <path
           style="fill:#ffffff;fill-rule:evenodd;stroke:#000000;stroke-width:13.1864;stroke-linecap:round;stroke-linejoin:round;paint-order:stroke markers fill"
           d="M 217.25426,830.97702 C 103.26867,830.68973 71.840283,830.23385 70.964677,828.855 c -0.613354,-0.96587 -1.124907,-37.35418 -1.136784,-80.8629 -0.02044,-74.86181 0.116794,-79.23202 2.557347,-81.44069 2.36443,-2.13978 14.604131,-2.33391 147.15028,-2.33391 138.26739,0 144.67312,0.11246 146.90525,2.57895 2.11298,2.3348 2.33392,10.01995 2.33392,81.18083 0,77.73836 -0.37811,84.5705 -4.63286,83.71153 -0.94224,-0.19023 -67.04166,-0.51053 -146.88757,-0.71179 z m 127.1461,-14.1263 c 5.66377,-3.23823 6.18258,-9.69496 5.74759,-71.53097 l -0.41134,-58.47735 -3.91009,-3.90875 -3.91007,-3.90875 H 214.61346 c -142.72519,0 -133.1605,-0.71667 -136.375343,10.21846 -1.057525,3.59712 -1.41524,23.90433 -1.115987,63.3539 l 0.440424,58.05985 3.347093,3.56127 c 1.840901,1.95871 5.331216,3.82119 7.756256,4.13886 2.425038,0.31769 60.254197,0.5107 128.509247,0.42894 97.36302,-0.11663 124.77339,-0.53363 127.22521,-1.93546 z"
           id="path1029"
           transform="matrix(0.26458333,0,0,0.26458333,-186.23631,-106.69303)" />
        <path
           style="fill:#ffffff;fill-rule:evenodd;stroke:#000000;stroke-width:3.26756;stroke-linecap:round;stroke-linejoin:round;paint-order:stroke markers fill"
           d="m 262.98217,766.98517 c -1.4583,-0.41867 -5.7772,-4.6421 -7.13562,-6.97788 -0.51825,-0.89111 -1.17094,-2.69952 -1.45042,-4.01868 -0.59166,-2.79256 -0.67029,-8.74752 -0.15857,-12.00837 1.06841,-6.80823 6.67247,-12.22979 12.6422,-12.23049 4.9155,-5.8e-4 8.40157,2.30224 10.75174,7.10234 1.44241,2.94607 2.45591,7.36227 2.45048,10.67777 -0.0106,6.47121 -2.89651,13.46988 -6.49552,15.75231 -2.74328,1.73973 -7.70235,2.53614 -10.60429,1.703 z m 5.83684,-3.96754 c 2.30504,-0.68452 5.32393,-3.39757 6.52791,-5.86657 1.0986,-2.2529 1.56699,-5.5236 1.18795,-8.29523 -1.2912,-9.4414 -11.53972,-13.53761 -18.05824,-7.21766 -3.79134,3.67585 -4.92704,9.93499 -2.68948,14.82246 1.66394,3.63452 3.41245,5.34332 6.59167,6.44198 2.23402,0.77202 4.11471,0.80561 6.44019,0.11502 z"
           id="path1068"
           transform="matrix(0.26458333,0,0,0.26458333,-186.23631,-106.69303)" />
        <path
           style="fill:#ffffff;fill-rule:evenodd;stroke:#000000;stroke-width:3.26756;stroke-linecap:round;stroke-linejoin:round;paint-order:stroke markers fill"
           d="m 263.13627,758.35068 c -2.62199,-1.63398 -4.02148,-4.25249 -4.01527,-7.51273 0.007,-3.46901 2.6885,-7.24326 5.52499,-7.77539 2.93054,-0.54977 6.2123,1.80477 7.21322,5.17521 0.67424,2.27042 0.67395,3.19349 -0.002,5.46858 -1.26763,4.2686 -5.61189,6.58204 -8.72126,4.64433 z"
           id="path1107"
           transform="matrix(0.26458333,0,0,0.26458333,-186.23631,-106.69303)" />
        <path
           style="fill:#ffffff;fill-rule:evenodd;stroke:#000000;stroke-width:3.26756;stroke-linecap:round;stroke-linejoin:round;paint-order:stroke markers fill"
           d="m 214.53889,765.13178 c -6.42959,-3.204 -10.42952,-13.60628 -8.90082,-23.14762 1.52435,-9.51415 5.66825,-16.09651 10.96493,-17.41715 l 0.992,-0.24734 -1.71293,2.75391 c -8.09239,13.0103 -7.95007,12.69615 -7.71155,17.02193 0.12006,2.17725 0.37492,3.2798 1.07353,4.64415 1.02444,2.00068 2.62949,3.52471 4.03509,3.83141 0.51373,0.11209 1.14195,0.26871 1.39604,0.34804 0.98885,0.30871 3.66781,-0.68668 4.73229,-1.75832 1.15769,-1.16549 8.62856,-13.0069 9.66081,-15.31251 l 0.60658,-1.35485 0.48125,2.38461 c 0.76262,3.77877 0.58252,12.90236 -0.32053,16.23807 -1.01452,3.74744 -2.61809,6.72906 -4.91529,9.13929 -3.55572,3.73069 -6.8406,4.64084 -10.3814,2.87638 z"
           id="path1146"
           transform="matrix(0.26458333,0,0,0.26458333,-186.23631,-106.69303)" />
        <path
           style="fill:#ffffff;fill-rule:evenodd;stroke:#000000;stroke-width:3.26756;stroke-linecap:round;stroke-linejoin:round;paint-order:stroke markers fill"
           d="m 213.86533,747.61816 c -1.06138,-1.14525 -1.67637,-4.03105 -1.24827,-5.85748 0.1735,-0.74027 1.00968,-2.47005 1.85817,-3.84396 6.6418,-10.75475 7.10937,-11.44679 7.86191,-11.63617 1.21716,-0.3063 1.80747,0.0902 2.54132,1.707 0.84885,1.87014 0.86496,4.22086 0.0414,6.03335 -0.81553,1.79472 -7.592,12.68178 -8.53725,13.71593 -0.93058,1.0181 -1.48808,0.99181 -2.51724,-0.11867 z"
           id="path1185"
           transform="matrix(0.26458333,0,0,0.26458333,-186.23631,-106.69303)" />
        <path
           style="fill:#ffffff;fill-rule:evenodd;stroke:#000000;stroke-width:3.26756;stroke-linecap:round;stroke-linejoin:round;paint-order:stroke markers fill"
           d="m 166.57363,753.93704 c -0.81238,-1.03277 -0.74178,-0.82998 -3.34473,-9.60735 -2.56971,-8.66533 -2.68797,-9.25343 -2.26097,-11.24442 0.69086,-3.2214 2.69093,-4.43185 4.08375,-2.47151 0.94066,1.32394 5.65492,17.48048 5.65492,19.38034 0,2.15188 -1.29074,4.61173 -2.49297,4.75104 -0.65588,0.076 -1.12728,-0.15627 -1.64,-0.8081 z"
           id="path1224"
           transform="matrix(0.26458333,0,0,0.26458333,-186.23631,-106.69303)" />
        <path
           style="fill:#ffffff;fill-rule:evenodd;stroke:#000000;stroke-width:3.26756;stroke-linecap:round;stroke-linejoin:round;paint-order:stroke markers fill"
           d="m 119.50684,765.02828 c -3.82694,-2.77658 -6.81706,-7.4295 -8.24879,-12.83595 -1.04228,-3.93582 -1.04776,-11.08423 -0.0114,-14.94911 1.26675,-4.72435 1.42882,-4.45834 1.44322,2.36889 0.0155,7.34391 0.39423,10.16393 1.6831,12.53201 2.44856,4.49882 8.14177,4.88616 10.98095,0.74711 1.83103,-2.66934 2.08219,-4.7157 1.94252,-15.827 -0.10616,-8.44554 -0.22107,-10.27587 -0.72651,-11.57202 -0.33023,-0.84682 -0.52721,-1.61288 -0.43775,-1.70234 0.32874,-0.32874 3.32024,1.70778 4.37678,2.97958 1.51115,1.81904 3.01141,4.99418 3.92166,8.2998 1.06505,3.86774 1.15583,15.07284 0.15289,18.87033 -1.56442,5.92342 -4.69708,10.14563 -8.25708,11.12894 -1.05709,0.29198 -2.71061,0.62969 -3.67449,0.75049 -1.56281,0.19584 -1.90323,0.11025 -3.14505,-0.79073 z"
           id="path1263"
           transform="matrix(0.26458333,0,0,0.26458333,-186.23631,-106.69303)" />
        <path
           style="fill:#ffffff;fill-rule:evenodd;stroke:#000000;stroke-width:3.26756;stroke-linecap:round;stroke-linejoin:round;paint-order:stroke markers fill"
           d="m 118.74779,750.53244 c -1.34755,-1.48934 -1.50713,-2.8041 -1.50713,-12.4171 0,-9.81893 0.1952,-11.36205 1.60477,-12.68626 1.18174,-1.11019 2.3496,-0.68418 3.25572,1.18763 0.6884,1.42204 0.73072,2.08057 0.73072,11.3697 0,10.24346 -0.13047,11.31614 -1.54894,12.73461 -0.81496,0.81495 -1.68576,0.75018 -2.53514,-0.18858 z"
           id="path1302"
           transform="matrix(0.26458333,0,0,0.26458333,-186.23631,-106.69303)" />
        <path
           style="fill:#ffffff;fill-rule:evenodd;stroke:#000000;stroke-width:3.26756;stroke-linecap:round;stroke-linejoin:round;paint-order:stroke markers fill"
           d="m 119.49347,764.67996 c -3.44027,-2.51453 -6.76144,-7.72112 -8.07704,-12.66236 -0.89862,-3.3751 -0.8688,-11.19087 0.056,-14.67692 l 0.69528,-2.62088 0.23037,2.97033 c 0.1267,1.63368 0.24843,4.46423 0.27051,6.29011 0.0907,7.50403 2.36211,11.43685 6.81874,11.80642 3.72391,0.30882 6.66834,-2.20103 7.5469,-6.43299 0.54869,-2.64305 0.30357,-22.63473 -0.29465,-24.03014 -0.23801,-0.5552 -0.36077,-1.08143 -0.2728,-1.1694 0.28442,-0.28442 3.30721,1.98927 4.19892,3.15837 1.20268,1.57679 2.85743,5.22714 3.59544,7.93148 0.50322,1.84398 0.62052,3.68527 0.62333,9.78461 0.003,7.3299 -0.0205,7.58303 -0.97951,10.37599 -1.75917,5.12338 -4.65551,8.62783 -7.88875,9.54506 -0.69429,0.19696 -2.12724,0.44979 -3.18433,0.56185 -1.74314,0.18479 -2.05377,0.10742 -3.3384,-0.83153 z"
           id="path1341"
           transform="matrix(0.26458333,0,0,0.26458333,-186.23631,-106.69303)" />
        <path
           style="fill:#ffffff;fill-rule:evenodd;stroke:#000000;stroke-width:3.26756;stroke-linecap:round;stroke-linejoin:round;paint-order:stroke markers fill"
           d="m 118.85677,750.3185 c -1.08838,-1.20264 -1.27377,-2.97719 -1.27646,-12.2184 -0.003,-9.47102 0.20917,-11.38145 1.38013,-12.44115 0.88087,-0.79718 1.70294,-0.60504 2.61132,0.61033 0.65048,0.87031 0.75622,1.6007 0.91066,6.29011 0.0961,2.91801 0.0958,7.8485 -7.3e-4,10.95665 -0.167,5.37908 -0.21621,5.69457 -1.02191,6.5522 -1.0016,1.06616 -1.79557,1.14249 -2.60303,0.25026 z"
           id="path1380"
           transform="matrix(0.26458333,0,0,0.26458333,-186.23631,-106.69303)" />
        <path
           id="path3116"
           style="fill:#ffffff;stroke:#000000;stroke-width:7.84252;stroke-linecap:round;stroke-linejoin:round;stroke-miterlimit:4;stroke-dasharray:none;stroke-opacity:0.955017;paint-order:stroke markers fill"
           d="m 186.87695,763.33789 a 21.559827,49.669829 0 0 0 -21.56054,49.66992 21.559827,49.669829 0 0 0 21.56054,49.66992 21.559827,49.669829 0 0 0 21.43946,-44.73242 17.786855,25.357755 0 0 0 16.79492,17.02149 17.786855,25.357755 0 0 0 16.75586,-16.86719 14.013887,36.860242 0 0 0 13.95117,33.59961 14.013887,36.860242 0 0 0 14.01562,-36.86133 14.013887,36.860242 0 0 0 -14.01562,-36.85937 14.013887,36.860242 0 0 0 -13.37695,25.92773 17.786855,25.357755 0 0 0 -17.33008,-19.6543 17.786855,25.357755 0 0 0 -17.13281,18.57813 21.559827,49.669829 0 0 0 -21.10157,-39.49219 z m 97.47266,2.09375 a 13.401606,54.078433 0 0 0 -13.40234,54.07813 13.401606,54.078433 0 0 0 13.40234,54.08007 13.401606,54.078433 0 0 0 13.40039,-54.08007 13.401606,54.078433 0 0 0 -13.40039,-54.07813 z m 34.00977,8.69141 a 18.864847,41.042963 0 0 0 -18.86329,41.04297 18.864847,41.042963 0 0 0 18.86329,41.04296 18.864847,41.042963 0 0 0 10.85937,-7.51562 21.122919,52.269887 81.318304 0 0 22.58984,7.92578 21.105336,40.666564 56.659245 0 0 -42.3164,27.7168 21.105336,40.666564 56.659245 0 0 10.6582,28.4707 21.105336,40.666564 56.659245 0 0 49.63867,-28.4707 21.105336,40.666564 56.659245 0 0 -2.87695,-27.28516 21.122919,52.269887 81.318304 0 0 59.99805,-22.20898 21.122919,52.269887 81.318304 0 0 -34.17969,-22.32422 21.122919,52.269887 81.318304 0 0 -34.20508,4.89258 11.034307,22.596437 0 0 0 -10.82422,-18.46485 11.034307,22.596437 0 0 0 -10.48047,15.54102 18.864847,41.042963 0 0 0 -18.86132,-40.36328 z m 1.79101,138.68359 a 13.797222,27.834024 51.64554 0 0 -32.79492,20.37891 13.797222,27.834024 51.64554 0 0 4.89062,20.38086 13.797222,27.834024 51.64554 0 0 32.79493,-20.38086 13.797222,27.834024 51.64554 0 0 -4.89063,-20.37891 z M 336.75,824.22461 a 11.034307,22.596437 0 0 0 0.22852,2.49414 21.122919,52.269887 81.318304 0 0 -0.60547,0.41016 18.864847,41.042963 0 0 0 0.37695,-2.9043 z m -43.5625,129.3418 a 21.559827,49.669829 0 0 0 -4.63477,1.21093 8.698035,23.711048 41.087214 0 0 -19.20117,17.55274 8.698035,23.711048 41.087214 0 0 -1.85351,18.76367 8.698035,23.711048 41.087214 0 0 4.93945,-1.31836 21.559827,49.669829 0 0 0 -0.80859,13.46091 21.559827,49.669829 0 0 0 21.55859,49.6699 21.559827,49.669829 0 0 0 21.44141,-44.7343 17.786855,25.357755 0 0 0 16.79492,17.0234 17.786855,25.357755 0 0 0 16.7539,-16.8672 14.013887,36.860242 0 0 0 13.95313,33.5977 14.013887,36.860242 0 0 0 14.01562,-36.8613 14.013887,36.860242 0 0 0 -14.01562,-36.85942 14.013887,36.860242 0 0 0 -13.37695,25.92969 17.786855,25.357755 0 0 0 -17.33008,-19.6543 17.786855,25.357755 0 0 0 -17.13477,18.57617 21.559827,49.669829 0 0 0 -21.10156,-39.49023 z m 97.47461,2.09375 a 13.401606,54.078433 0 0 0 -13.40234,54.07814 13.401606,54.078433 0 0 0 13.40234,54.0781 13.401606,54.078433 0 0 0 13.40039,-54.0781 13.401606,54.078433 0 0 0 -13.40039,-54.07814 z m 34.00977,8.68945 a 18.864847,41.042963 0 0 0 -18.86329,41.04299 18.864847,41.042963 0 0 0 18.86329,41.0449 18.864847,41.042963 0 0 0 18.38867,-31.9844 11.034307,22.596437 0 0 0 10.95312,19.9121 11.034307,22.596437 0 0 0 11.03321,-22.5976 11.034307,22.596437 0 0 0 -11.03321,-22.59572 11.034307,22.596437 0 0 0 -10.48047,15.54102 18.864847,41.042963 0 0 0 -18.86132,-40.36329 z"
           transform="matrix(0.15293031,0,0,0.13530221,-178.8317,22.502924)"
           clip-path="url(#clipPath3020)" />
      </g>
      <g
         id="g9715"
         transform="translate(156.84958,224.28587)">
        <path
           id="path3826"
           style="fill:#ffffff;stroke:#000000;stroke-width:7.84252;stroke-linecap:round;stroke-linejoin:round;stroke-miterlimit:4;stroke-dasharray:none;stroke-opacity:0.955017;paint-order:stroke markers fill"
           d="m 186.87695,763.33789 a 21.559827,49.669829 0 0 0 -21.56054,49.66992 21.559827,49.669829 0 0 0 21.56054,49.66992 21.559827,49.669829 0 0 0 21.43946,-44.73242 17.786855,25.357755 0 0 0 16.79492,17.02149 17.786855,25.357755 0 0 0 16.75586,-16.86719 14.013887,36.860242 0 0 0 13.95117,33.59961 14.013887,36.860242 0 0 0 14.01562,-36.86133 14.013887,36.860242 0 0 0 -14.01562,-36.85937 14.013887,36.860242 0 0 0 -13.37695,25.92773 17.786855,25.357755 0 0 0 -17.33008,-19.6543 17.786855,25.357755 0 0 0 -17.13281,18.57813 21.559827,49.669829 0 0 0 -21.10157,-39.49219 z m 97.47266,2.09375 a 13.401606,54.078433 0 0 0 -13.40234,54.07813 13.401606,54.078433 0 0 0 13.40234,54.08007 13.401606,54.078433 0 0 0 13.40039,-54.08007 13.401606,54.078433 0 0 0 -13.40039,-54.07813 z m 34.00977,8.69141 a 18.864847,41.042963 0 0 0 -18.86329,41.04297 18.864847,41.042963 0 0 0 18.86329,41.04296 18.864847,41.042963 0 0 0 10.85937,-7.51562 21.122919,52.269887 81.318304 0 0 22.58984,7.92578 21.105336,40.666564 56.659245 0 0 -42.3164,27.7168 21.105336,40.666564 56.659245 0 0 10.6582,28.4707 21.105336,40.666564 56.659245 0 0 49.63867,-28.4707 21.105336,40.666564 56.659245 0 0 -2.87695,-27.28516 21.122919,52.269887 81.318304 0 0 59.99805,-22.20898 21.122919,52.269887 81.318304 0 0 -34.17969,-22.32422 21.122919,52.269887 81.318304 0 0 -34.20508,4.89258 11.034307,22.596437 0 0 0 -10.82422,-18.46485 11.034307,22.596437 0 0 0 -10.48047,15.54102 18.864847,41.042963 0 0 0 -18.86132,-40.36328 z m 1.79101,138.68359 a 13.797222,27.834024 51.64554 0 0 -32.79492,20.37891 13.797222,27.834024 51.64554 0 0 4.89062,20.38086 13.797222,27.834024 51.64554 0 0 32.79493,-20.38086 13.797222,27.834024 51.64554 0 0 -4.89063,-20.37891 z M 336.75,824.22461 a 11.034307,22.596437 0 0 0 0.22852,2.49414 21.122919,52.269887 81.318304 0 0 -0.60547,0.41016 18.864847,41.042963 0 0 0 0.37695,-2.9043 z m -43.5625,129.3418 a 21.559827,49.669829 0 0 0 -4.63477,1.21093 8.698035,23.711048 41.087214 0 0 -19.20117,17.55274 8.698035,23.711048 41.087214 0 0 -1.85351,18.76367 8.698035,23.711048 41.087214 0 0 4.93945,-1.31836 21.559827,49.669829 0 0 0 -0.80859,13.46091 21.559827,49.669829 0 0 0 21.55859,49.6699 21.559827,49.669829 0 0 0 21.44141,-44.7343 17.786855,25.357755 0 0 0 16.79492,17.0234 17.786855,25.357755 0 0 0 16.7539,-16.8672 14.013887,36.860242 0 0 0 13.95313,33.5977 14.013887,36.860242 0 0 0 14.01562,-36.8613 14.013887,36.860242 0 0 0 -14.01562,-36.85942 14.013887,36.860242 0 0 0 -13.37695,25.92969 17.786855,25.357755 0 0 0 -17.33008,-19.6543 17.786855,25.357755 0 0 0 -17.13477,18.57617 21.559827,49.669829 0 0 0 -21.10156,-39.49023 z m 97.47461,2.09375 a 13.401606,54.078433 0 0 0 -13.40234,54.07814 13.401606,54.078433 0 0 0 13.40234,54.0781 13.401606,54.078433 0 0 0 13.40039,-54.0781 13.401606,54.078433 0 0 0 -13.40039,-54.07814 z m 34.00977,8.68945 a 18.864847,41.042963 0 0 0 -18.86329,41.04299 18.864847,41.042963 0 0 0 18.86329,41.0449 18.864847,41.042963 0 0 0 18.38867,-31.9844 11.034307,22.596437 0 0 0 10.95312,19.9121 11.034307,22.596437 0 0 0 11.03321,-22.5976 11.034307,22.596437 0 0 0 -11.03321,-22.59572 11.034307,22.596437 0 0 0 -10.48047,15.54102 18.864847,41.042963 0 0 0 -18.86132,-40.36329 z"
           transform="matrix(0.26458333,0,0,0.26458333,-76.454877,-213.08938)"
           clip-path="url(#clipPath3020)" />
        <path
           style="fill:#53676c;fill-opacity:1;stroke:#000000;stroke-width:8.92357;stroke-linecap:round;stroke-linejoin:round;stroke-miterlimit:4;stroke-dasharray:none;stroke-opacity:0.955017;paint-order:stroke markers fill"
           d="m -3.274229,242.92042 c -8.334775,-7.52997 -12.909693,-23.15241 -13.100531,-44.73572 l -0.123994,-14.02341 -2.963138,0.5921 c -3.208053,0.64104 -5.577293,-0.96945 -5.559585,-3.77912 0.0254,-4.03074 6.058307,-14.2788 12.195032,-20.71564 6.9413849,-7.28085 13.17592502,-11.20092 17.8141174,-11.20092 6.6265666,0 14.9438136,12.52774 17.7524326,26.73936 0.742073,3.75489 1.592517,8.06402 1.889875,9.57584 0.47746,2.4275 0.84997,2.08115 3.187071,-2.96325 3.207518,-6.92309 7.904128,-11.50036 12.728966,-12.4055 6.61902,-1.24174 14.111939,4.7522 17.072529,13.6571 1.747641,5.25659 1.998712,5.52791 2.725506,2.94534 3.57157,-12.69112 4.986497,-16.31781 7.559072,-19.37514 5.670451,-6.73895 11.793966,-2.40869 16.034354,11.33874 2.725642,8.83659 2.725642,33.40665 0,42.24324 -2.516311,8.15793 -6.508459,14.05062 -9.843537,14.52977 -6.007134,0.86303 -12.275346,-10.82512 -13.474189,-25.12491 -0.354211,-4.22503 -0.978927,-7.68187 -1.388256,-7.68187 -0.40933,0 -1.392334,1.79228 -2.184455,3.98286 -3.455175,9.55511 -11.503046,14.58015 -18.547193,11.58073 -4.791505,-2.04023 -8.273658,-5.80307 -10.731622,-11.59666 l -1.924361,-4.53585 -1.995613,11.37845 c -3.15679,17.99916 -7.993638,28.36814 -14.8986041,31.93884 -4.8143626,2.4896 -7.4059494,1.98833 -12.2238769,-2.36438 z"
           id="path9249"
           transform="scale(0.26458333)" />
        <path
           style="fill:#53676c;fill-opacity:1;stroke:#000000;stroke-width:8.92357;stroke-linecap:round;stroke-linejoin:round;stroke-miterlimit:4;stroke-dasharray:none;stroke-opacity:0.955017;paint-order:stroke markers fill"
           d="m 98.594644,255.52326 c -6.352902,-6.8549 -8.613233,-22.32845 -8.096061,-55.42323 0.421554,-26.97602 1.589505,-35.14216 6.36495,-44.5028 4.257877,-8.34613 9.692807,-3.9709 13.453927,10.83069 6.69158,26.33413 4.56541,72.62535 -4.00183,87.12853 -2.80754,4.75278 -4.69374,5.23326 -7.720986,1.96681 z"
           id="path9288"
           transform="scale(0.26458333)" />
        <path
           style="fill:#53676c;fill-opacity:1;stroke:#000000;stroke-width:8.92357;stroke-linecap:round;stroke-linejoin:round;stroke-miterlimit:4;stroke-dasharray:none;stroke-opacity:0.955017;paint-order:stroke markers fill"
           d="m 127.94273,236.11225 c -6.67702,-7.07971 -8.24885,-13.5534 -8.58756,-35.36861 -0.27587,-17.76716 -0.0977,-19.77085 2.30212,-25.89321 6.78,-17.29685 17.25393,-19.86236 25.08814,-6.14516 3.67358,6.4322 6.86366,18.42644 6.86366,25.8064 0,5.64419 1.74996,6.0636 2.76326,0.66226 0.89008,-4.74454 5.73555,-10.84302 8.61519,-10.84302 2.79038,0 7.606,5.9203 9.05269,11.12932 2.99047,10.76766 0.27109,26.56618 -5.33136,30.97306 -3.81288,2.99921 -4.50096,2.89772 -8.35976,-1.23314 -2.20709,-2.3627 -3.72739,-5.69329 -4.66012,-10.2091 -0.76139,-3.68631 -1.54282,-6.54391 -1.73651,-6.35022 -0.19369,0.19369 -0.90217,3.32743 -1.5744,6.96387 -3.78896,20.49635 -15.31935,30.17332 -24.43535,20.50755 z"
           id="path9327"
           transform="scale(0.26458333)" />
        <g
           id="g9606">
          <path
             style="fill:#53676c;fill-opacity:1;stroke:#000000;stroke-width:8.92357;stroke-linecap:round;stroke-linejoin:round;stroke-miterlimit:4;stroke-dasharray:none;stroke-opacity:0.955017;paint-order:stroke markers fill"
             d="M 23.187351,105.32245 C 11.312675,100.15431 14.094775,84.747148 29.532342,70.184125 37.55862,62.612542 52.098191,54.26775 59.77289,52.827967 c 5.220034,-0.979284 4.125525,-2.294906 -2.657815,-3.194748 -3.034616,-0.402556 -8.099126,-2.018406 -11.254467,-3.59078 l -5.736984,-2.858859 -3.683391,3.440802 c -5.307717,4.95815 -9.472994,4.648822 -14.951568,-1.110356 -15.1423138,-15.917878 -12.6020059,-65.728964 3.800474,-74.520778 4.090134,-2.192334 4.35419,-2.200602 7.976649,-0.249779 7.043877,3.793379 12.389272,15.727825 14.074959,31.4245879 l 0.782702,7.2883599 2.201006,-5.9002958 c 2.259689,-6.0576041 6.114908,-9.7244226 9.52034,-9.0550909 2.864515,0.5630149 6.270162,5.73347409 7.86962,11.9476729 1.617191,6.283091 0.785183,6.105752 15.781786,3.3638161 31.881859,-5.8291862 60.922309,2.8349209 55.266759,16.4886259 -4.42649,10.686498 -28.8816,21.711174 -53.924399,24.309811 -7.829632,0.812464 -7.870803,0.834509 -4.911705,2.629984 9.973599,6.051624 7.007643,19.556104 -7.401009,33.698005 -15.42858,15.142945 -37.709398,23.444765 -49.338496,18.383505 z"
             id="path9366"
             transform="scale(0.26458333)" />
          <path
             style="fill:#53676c;fill-opacity:1;stroke:#000000;stroke-width:8.92357;stroke-linecap:round;stroke-linejoin:round;stroke-miterlimit:4;stroke-dasharray:none;stroke-opacity:0.955017;paint-order:stroke markers fill"
             d="M -4.7678908,142.96421 C -7.9977831,136.9283 0.17281796,123.79864 12.184741,115.72236 l 7.727548,-5.19566 9.671684,0.77552 9.671683,0.77552 0.360621,3.75254 c 0.656037,6.82656 -9.340135,19.80471 -20.132887,26.13876 -4.165989,2.44493 -6.463364,2.93781 -14.0509579,3.01452 -7.72695,0.0781 -9.2380233,-0.22104 -10.2003229,-2.01935 z"
             id="path9405"
             transform="scale(0.26458333)" />
          <path
             style="fill:#53676c;fill-opacity:1;stroke:#000000;stroke-width:8.92357;stroke-linecap:round;stroke-linejoin:round;stroke-miterlimit:4;stroke-dasharray:none;stroke-opacity:0.955017;paint-order:stroke markers fill"
             d="m -107.31461,54.815431 c -10.35832,-6.988942 -16.54148,-28.489562 -15.20896,-52.8858357 2.70684,-49.5575823 30.06866,-58.9506173 39.44428,-13.5408213 1.911451,9.2579074 2.127293,9.6953611 3.30646,6.7013106 0.693835,-1.7617302 1.261517,-3.5055063 1.261517,-3.8750556 0,-0.3695493 1.306545,-2.384876 2.903432,-4.478504 3.293864,-4.318478 8.207561,-7.217737 12.232704,-7.217737 5.912718,0 13.232136,7.842285 16.062301,17.2097184 0.672019,2.2242847 1.086489,1.4719483 2.341976,-4.2510883 2.745475,-12.5150271 8.178909,-20.2673781 13.271525,-18.9356291 11.278089,2.949286 15.917268,45.295241 6.949921,63.438177 -2.426488,4.909323 -6.03694,8.533838 -8.500728,8.533838 -5.316579,0 -11.018252,-11.824217 -12.877571,-26.705704 l -0.83864,-6.71225 -2.635534,5.18587 c -7.407117,14.574789 -21.140174,14.945251 -28.20851,0.760949 -3.218373,-6.458434 -2.891685,-6.948252 -5.097352,7.642701 -1.647733,10.900103 -5.371856,20.160782 -10.290229,25.588447 -4.962767,5.476655 -9.544882,6.626231 -14.116592,3.541614 z"
             id="path9444"
             transform="scale(0.26458333)" />
          <path
             style="fill:#53676c;fill-opacity:1;stroke:#000000;stroke-width:8.92357;stroke-linecap:round;stroke-linejoin:round;stroke-miterlimit:4;stroke-dasharray:none;stroke-opacity:0.955017;paint-order:stroke markers fill"
             d="M -8.4575447,64.637451 C -13.770289,57.10025 -17.748825,34.640661 -15.845688,22.929976 -15.100693,18.345749 -14.921727,10.131922 -15.391861,2.1010526 -16.008395,-8.430629 -15.763503,-13.031418 -14.201602,-20.26034 -9.0158213,-44.261606 -0.02438288,-44.0429 5.0386137,-19.792346 7.5873424,-7.5845455 7.710439,36.497946 5.2273321,47.789495 1.6420982,64.092792 -3.9707119,71.002929 -8.4575447,64.637451 Z"
             id="path9483"
             transform="scale(0.26458333)" />
        </g>
      </g>
    </g>
  </g>
</svg>
