<?xml version="1.0" encoding="UTF-8" standalone="no"?>
<!-- Created with Inkscape (http://www.inkscape.org/) -->

<svg
   width="210mm"
   height="297mm"
   viewBox="0 0 210 297"
   version="1.1"
   id="svg5"
   inkscape:version="1.1.2 (0a00cf5339, 2022-02-04, custom)"
   sodipodi:docname="zam  tube icon svg.svg"
   xmlns:inkscape="http://www.inkscape.org/namespaces/inkscape"
   xmlns:sodipodi="http://sodipodi.sourceforge.net/DTD/sodipodi-0.dtd"
   xmlns="http://www.w3.org/2000/svg"
   xmlns:svg="http://www.w3.org/2000/svg">
  <sodipodi:namedview
     id="namedview7"
     pagecolor="#ffffff"
     bordercolor="#666666"
     borderopacity="1.0"
     inkscape:pageshadow="2"
     inkscape:pageopacity="0.0"
     inkscape:pagecheckerboard="0"
     inkscape:document-units="mm"
     showgrid="false"
     inkscape:zoom="0.70910507"
     inkscape:cx="405.44062"
     inkscape:cy="416.72245"
     inkscape:window-width="1680"
     inkscape:window-height="956"
     inkscape:window-x="-11"
     inkscape:window-y="-11"
     inkscape:window-maximized="1"
     inkscape:current-layer="layer1" />
  <defs
     id="defs2">
    <inkscape:path-effect
       effect="bend_path"
       id="path-effect2970"
       is_visible="true"
       lpeversion="1"
       bendpath="m 43.763949,70.10731 c -2.161977,107.01546 130.764381,120.38147 134.266091,0"
       prop_scale="1"
       scale_y_rel="false"
       vertical="false"
       hide_knot="false"
       bendpath-nodetypes="cc" />
    <inkscape:path-effect
       effect="bend_path"
       id="path-effect2565"
       is_visible="true"
       lpeversion="1"
       bendpath="m 22.094421,77.755379 c 47.268841,63.835791 105.047969,86.291981 159.759649,0"
       prop_scale="1"
       scale_y_rel="false"
       vertical="false"
       hide_knot="false"
       bendpath-nodetypes="cc" />
    <inkscape:path-effect
       effect="bend_path"
       id="path-effect2004"
       is_visible="true"
       lpeversion="1"
       bendpath="m 27.618026,97.300446 c 45.668773,25.787114 97.134884,31.863294 159.759654,0"
       prop_scale="1"
       scale_y_rel="false"
       vertical="false"
       hide_knot="false"
       bendpath-nodetypes="cc" />
    <inkscape:path-effect
       effect="bend_path"
       id="path-effect969"
       is_visible="true"
       lpeversion="1"
       bendpath="M 65.435059,87.740334 C 56.61074,15.763533 192.01306,8.7605155 192.47641,90.28969"
       prop_scale="1"
       scale_y_rel="false"
       vertical="false"
       hide_knot="false"
       bendpath-nodetypes="cc" />
  </defs>
  <g
     inkscape:label="Layer 1"
     inkscape:groupmode="layer"
     id="layer1">
    <path
       style="fill:#ffffff;stroke:#000000;stroke-width:4.7671;stroke-linecap:round;stroke-linejoin:round;stroke-opacity:0.955017;paint-order:stroke markers fill"
       d=""
       id="path1841"
       transform="scale(0.26458333)" />
    <path
       id="rect1704"
       style="fill:none;fill-rule:evenodd;stroke:#000000;stroke-width:1.08011;stroke-linecap:round;stroke-linejoin:round;stroke-miterlimit:4;stroke-dasharray:none;paint-order:stroke markers fill"
       d="M 14.082852,54.878574 H 82.51843 c 0.840504,0 1.517152,0.842672 1.517152,1.8894 v 52.115816 c 0,1.04673 -0.676648,1.8894 -1.517152,1.8894 H 14.082852 c -0.840498,0 -1.517142,-0.84267 -1.517142,-1.8894 V 56.767974 c 0,-1.046728 0.676644,-1.8894 1.517142,-1.8894 z m -5.174297,-3.79478 h 76.82838 c 0.970423,0 1.751668,0.972932 1.751668,2.181462 v 60.172094 c 0,1.20854 -0.781245,2.18147 -1.751668,2.18147 H 8.908555 c -0.9704276,0 -1.7516714,-0.97293 -1.7516714,-2.18147 V 53.265256 c 0,-1.20853 0.7812438,-2.181462 1.7516714,-2.181462 z M 72.013212,27.82549 h 0.839337 c 0.619997,0 1.119117,0.570619 1.119117,1.279431 v 1.812537 c 0,0.708803 -0.49912,1.279422 -1.119117,1.279422 h -0.839337 c -0.619993,0 -1.119122,-0.570619 -1.119122,-1.279422 v -1.812537 c 0,-0.708812 0.499129,-1.279431 1.119122,-1.279431 z m 5.33395,1.972453 a 5.1007963,6.8976852 0 0 1 -5.100801,6.897681 5.1007963,6.8976852 0 0 1 -5.100797,-6.897681 5.1007963,6.8976852 0 0 1 5.100797,-6.897699 5.1007963,6.8976852 0 0 1 5.100801,6.897699 z m -2.008847,0.266549 a 3.0453297,3.9080549 0 0 1 -3.045324,3.90806 3.0453297,3.9080549 0 0 1 -3.045328,-3.90806 3.0453297,3.9080549 0 0 1 3.045328,-3.90806 3.0453297,3.9080549 0 0 1 3.045324,3.90806 z M 64.5066,28.541988 a 4.6798893,5.9190328 0 0 1 -4.679886,5.919035 4.6798893,5.9190328 0 0 1 -4.679889,-5.919035 4.6798893,5.9190328 0 0 1 4.679889,-5.919035 4.6798893,5.9190328 0 0 1 4.679886,5.919035 z m -2.681953,0.395342 a 2.3454019,2.7234402 0 0 1 -2.3454,2.723434 2.3454019,2.7234402 0 0 1 -2.345407,-2.723434 2.3454019,2.7234402 0 0 1 2.345407,-2.723454 2.3454019,2.7234402 0 0 1 2.3454,2.723454 z m -40.87638,-7.567695 c 0.734175,0 1.325224,0.867632 1.325224,1.945369 v 4.377122 c 0,1.077736 -0.591049,1.945368 -1.325224,1.945368 -0.734174,0 -1.325224,-0.867632 -1.325224,-1.945368 v -4.377122 c 0,-1.077737 0.59105,-1.945369 1.325224,-1.945369 z m 5.300889,5.836144 a 4.4726226,6.8088266 0 0 1 -4.472623,6.808819 4.4726226,6.8088266 0 0 1 -4.472624,-6.808819 4.4726226,6.8088266 0 0 1 4.472624,-6.808838 4.4726226,6.8088266 0 0 1 4.472623,6.808838 z m 5.663804,-4.383122 c 0.673464,-0.429112 1.450977,0.02143 1.743299,1.00994 l 1.187216,4.015197 c 0.292327,0.988617 -0.01449,2.129969 -0.687984,2.5591 -0.673471,0.429111 -1.450979,-0.02143 -1.743299,-1.009949 l -1.187223,-4.015188 c -0.292321,-0.988627 0.01449,-2.129979 0.687991,-2.5591 z m 6.445541,2.255267 a 6.7727445,4.4964503 88.191389 0 1 -2.256014,8.86003 6.7727445,4.4964503 88.191389 0 1 -5.949592,-3.631627 6.7727445,4.4964503 88.191389 0 1 2.256014,-8.860039 6.7727445,4.4964503 88.191389 0 1 5.949592,3.631636 z m 10.662007,-2.843437 c 0.542771,0.725715 0.581742,1.951416 0.08737,2.748194 l -2.00783,3.235999 c -0.494377,0.796789 -1.329339,0.853986 -1.87211,0.128318 -0.542778,-0.725726 -0.581743,-1.951416 -0.08737,-2.748195 l 2.00783,-3.236009 c 0.494376,-0.796769 1.329332,-0.853976 1.87211,-0.128317 z m 1.241855,9.554547 a 4.5429639,6.7034011 2.6044814 0 1 -6.429916,0.612635 4.5429639,6.7034011 2.6044814 0 1 -0.183326,-9.454923 4.5429639,6.7034011 2.6044814 0 1 6.429909,-0.612645 4.5429639,6.7034011 2.6044814 0 1 0.183333,9.454933 z M 13.176479,10.908475 H 78.30416 c 1.449078,0 2.615663,1.452815 2.615663,3.257441 v 28.570347 c 0,1.804632 -1.166585,3.257445 -2.615663,3.257445 H 13.176479 c -1.449082,0 -2.615666,-1.452813 -2.615666,-3.257445 V 14.165916 c 0,-1.804626 1.166584,-3.257441 2.615666,-3.257441 z M 9.3811722,5.2730192 H 85.018916 c 1.449078,0 2.615663,1.4528153 2.615663,3.2574281 V 48.008149 c 0,1.804614 -1.166585,3.257436 -2.615663,3.257436 H 9.3811722 c -1.4490756,0 -2.6156591,-1.452822 -2.6156591,-3.257436 V 8.5304473 c 0,-1.8046128 1.1665835,-3.2574281 2.6156591,-3.2574281 z" />
  </g>
</svg>
