<?xml version="1.0" encoding="UTF-8" standalone="no"?>
<!-- Created with Inkscape (http://www.inkscape.org/) -->

<svg
   width="210mm"
   height="297mm"
   viewBox="0 0 210 297"
   version="1.1"
   id="svg5"
   inkscape:version="1.1.2 (0a00cf5339, 2022-02-04, custom)"
   sodipodi:docname="zam headphone plugins icon svg.svg"
   xmlns:inkscape="http://www.inkscape.org/namespaces/inkscape"
   xmlns:sodipodi="http://sodipodi.sourceforge.net/DTD/sodipodi-0.dtd"
   xmlns="http://www.w3.org/2000/svg"
   xmlns:svg="http://www.w3.org/2000/svg">
  <sodipodi:namedview
     id="namedview7"
     pagecolor="#ffffff"
     bordercolor="#666666"
     borderopacity="1.0"
     inkscape:pageshadow="2"
     inkscape:pageopacity="0.0"
     inkscape:pagecheckerboard="0"
     inkscape:document-units="mm"
     showgrid="false"
     inkscape:zoom="0.78374771"
     inkscape:cx="734.93037"
     inkscape:cy="883.57515"
     inkscape:window-width="1680"
     inkscape:window-height="956"
     inkscape:window-x="-11"
     inkscape:window-y="-11"
     inkscape:window-maximized="1"
     inkscape:current-layer="layer5"
     showguides="false" />
  <defs
     id="defs2">
    <inkscape:path-effect
       effect="spiro"
       id="path-effect1988"
       is_visible="true"
       lpeversion="1" />
    <inkscape:path-effect
       effect="spiro"
       id="path-effect1984"
       is_visible="true"
       lpeversion="1" />
    <inkscape:path-effect
       effect="spiro"
       id="path-effect1012"
       is_visible="true"
       lpeversion="1" />
    <inkscape:path-effect
       effect="spiro"
       id="path-effect1006"
       is_visible="true"
       lpeversion="1" />
    <inkscape:path-effect
       effect="skeletal"
       id="path-effect2685"
       is_visible="true"
       lpeversion="1"
       pattern="m 58.28998,172.24478 a 5.2513594,24.943956 0 0 0 -5.251357,24.9437 5.2513594,24.943956 0 0 0 5.251357,24.94421 5.2513594,24.943956 0 0 0 5.222423,-22.46478 4.3323711,12.734546 0 0 0 4.090704,8.54832 4.3323711,12.734546 0 0 0 4.080889,-8.4708 3.4133835,18.511041 0 0 0 3.398242,16.87339 3.4133835,18.511041 0 0 0 3.413744,-18.51154 3.4133835,18.511041 0 0 0 -3.413744,-18.51101 3.4133835,18.511041 0 0 0 -3.258199,13.02143 4.3323711,12.734546 0 0 0 -4.220932,-9.8702 4.3323711,12.734546 0 0 0 -4.173386,9.32914 5.2513594,24.943956 0 0 0 -5.139741,-19.83186 z m 23.741706,1.0511 a 3.2642492,27.157936 0 0 0 -3.264403,27.15803 3.2642492,27.157936 0 0 0 3.264403,27.15803 3.2642492,27.157936 0 0 0 3.263881,-27.15803 3.2642492,27.157936 0 0 0 -3.263881,-27.15803 z m 8.283731,4.36459 a 4.5949391,20.611585 0 0 0 -4.594551,20.61166 4.5949391,20.611585 0 0 0 4.594551,20.61166 4.5949391,20.611585 0 0 0 4.479313,-16.06206 2.6876428,11.347825 0 0 0 2.667537,9.9999 2.6876428,11.347825 0 0 0 2.687693,-11.34814 2.6876428,11.347825 0 0 0 -2.687693,-11.34763 2.6876428,11.347825 0 0 0 -2.552816,7.80469 4.5949391,20.611585 0 0 0 -4.594034,-20.27008 z"
       copytype="repeated_stretched"
       prop_scale="1"
       scale_y_rel="false"
       spacing="0"
       normal_offset="0"
       tang_offset="0"
       prop_units="false"
       vertical_pattern="false"
       hide_knot="false"
       fuse_tolerance="0" />
    <inkscape:path-effect
       effect="skeletal"
       id="path-effect2303"
       is_visible="true"
       lpeversion="1"
       pattern="m 146.73472,184.3227 a 5.3871686,8.9273109 0 0 1 -5.38717,8.92731 5.3871686,8.9273109 0 0 1 -5.38716,-8.92731 5.3871686,8.9273109 0 0 1 5.38716,-8.92731 5.3871686,8.9273109 0 0 1 5.38717,8.92731 z m -11.13621,-1.57539 a 6.756869,19.445662 0 0 1 -6.75687,19.44566 6.756869,19.445662 0 0 1 -6.75688,-19.44566 6.756869,19.445662 0 0 1 6.75688,-19.44566 6.756869,19.445662 0 0 1 6.75687,19.44566 z m -12.555,0.17807 a 4.7838121,27.157936 0 0 1 -4.78381,27.15793 4.7838121,27.157936 0 0 1 -4.78381,-27.15793 4.7838121,27.157936 0 0 1 4.78381,-27.15794 4.7838121,27.157936 0 0 1 4.78381,27.15794 z m -10.94057,-2.14733 a 5.0023708,18.511042 0 0 1 -5.00237,18.51105 5.0023708,18.511042 0 0 1 -5.00237,-18.51105 5.0023708,18.511042 0 0 1 5.00237,-18.51104 5.0023708,18.511042 0 0 1 5.00237,18.51104 z m -10.38954,-2.6257 a 6.3491627,12.734547 0 0 1 -6.349162,12.73455 6.3491627,12.734547 0 0 1 -6.349164,-12.73455 6.3491627,12.734547 0 0 1 6.349164,-12.73454 6.3491627,12.734547 0 0 1 6.349162,12.73454 z m -13.852734,1.7067 a 7.6959554,24.943956 0 0 1 -7.695955,24.94395 7.6959554,24.943956 0 0 1 -7.695956,-24.94395 7.6959554,24.943956 0 0 1 7.695956,-24.94396 7.6959554,24.943956 0 0 1 7.695955,24.94396 z"
       copytype="repeated_stretched"
       prop_scale="1"
       scale_y_rel="false"
       spacing="0"
       normal_offset="0"
       tang_offset="0"
       prop_units="false"
       vertical_pattern="false"
       hide_knot="false"
       fuse_tolerance="0" />
    <inkscape:path-effect
       effect="bend_path"
       id="path-effect2970"
       is_visible="true"
       lpeversion="1"
       bendpath="m 43.763949,70.10731 c -2.161977,107.01546 130.764381,120.38147 134.266091,0"
       prop_scale="1"
       scale_y_rel="false"
       vertical="false"
       hide_knot="false"
       bendpath-nodetypes="cc" />
    <inkscape:path-effect
       effect="bend_path"
       id="path-effect2565"
       is_visible="true"
       lpeversion="1"
       bendpath="m 22.094421,77.755379 c 47.268841,63.835791 105.047969,86.291981 159.759649,0"
       prop_scale="1"
       scale_y_rel="false"
       vertical="false"
       hide_knot="false"
       bendpath-nodetypes="cc" />
    <inkscape:path-effect
       effect="bend_path"
       id="path-effect2004"
       is_visible="true"
       lpeversion="1"
       bendpath="m 27.618026,97.300446 c 45.668773,25.787114 97.134884,31.863294 159.759654,0"
       prop_scale="1"
       scale_y_rel="false"
       vertical="false"
       hide_knot="false"
       bendpath-nodetypes="cc" />
    <inkscape:path-effect
       effect="bend_path"
       id="path-effect969"
       is_visible="true"
       lpeversion="1"
       bendpath="M 65.435059,87.740334 C 56.61074,15.763533 192.01306,8.7605155 192.47641,90.28969"
       prop_scale="1"
       scale_y_rel="false"
       vertical="false"
       hide_knot="false"
       bendpath-nodetypes="cc" />
    <clipPath
       clipPathUnits="userSpaceOnUse"
       id="clipPath3020">
      <path
         id="path3022"
         style="fill:none;stroke:#000000;stroke-width:4.36913;stroke-linecap:round;stroke-linejoin:round;stroke-opacity:0.955017;paint-order:stroke markers fill"
         d="M 163.66406,761.68555 V 1065.4688 H 466.69922 V 761.68555 Z m 173.56446,59.24414 c 0.77669,-0.0209 1.63719,0.25746 2.48242,0.8789 0.56185,0.0449 1.13695,0.23718 1.68554,0.65039 0.8121,0.37729 1.81694,0.94292 3.04883,1.72852 0.96019,-0.48146 0.95653,-0.74828 0.92188,0.59961 0.004,0.003 0.008,0.005 0.0117,0.008 0.57301,0.38127 0.43726,0.99724 -0.0215,1.66406 0.01,1.54659 0.0321,3.09257 0.0508,4.63868 0.44759,1.65154 0.68402,3.52607 0.88282,5.20703 0.21064,-1.32964 1.41183,1.81559 1.49804,2.44726 0.0563,0.41239 -0.16765,-0.96607 -0.55468,-1.11914 -1.26395,-0.49947 -2.66603,-0.51402 -4.00977,-0.73437 -0.75802,0.16747 -1.38234,0.22463 -1.94531,0.23047 0.68402,1.56123 11.16908,7.10027 5.2539,6.38476 -1.54015,-0.18622 -3.18316,0.0238 -4.62109,-0.55859 -0.69052,-0.27969 -2.94658,-5.49603 -3.09961,-5.82031 -0.19588,-1.99194 0.15965,1.51612 -0.17969,-0.95508 -0.66772,-0.74206 -0.95418,-1.82636 -1.16015,-3.03321 -0.0258,-0.15103 0.0768,-0.30471 0.0605,-0.45703 -0.0654,-0.61156 -0.19003,-1.0651 -0.30273,-1.55078 -0.31282,-0.50473 -0.64254,-1.00197 -0.9668,-1.5 -0.47247,-0.18941 -0.86572,0.19238 -1.10547,1.75195 l -0.17773,1.16211 c 0.20668,-1.40749 -1.05244,-3.54982 -0.70703,-4.74804 0.20295,-0.70403 0.29001,-0.81804 0.43554,-1.29688 -1.0269,-3.34538 0.44302,-5.5222 2.51954,-5.57812 z" />
    </clipPath>
  </defs>
  <g
     inkscape:label="Layer 1"
     inkscape:groupmode="layer"
     id="layer1">
    <path
       style="fill:#000000;stroke:#000000;stroke-width:4.64318;stroke-linecap:round;stroke-linejoin:round;stroke-opacity:0.955017;paint-order:stroke markers fill"
       d=""
       id="path902"
       transform="scale(0.26458333)" />
    <path
       style="fill:#008000;stroke:#000000;stroke-width:4.64318;stroke-linecap:round;stroke-linejoin:round;stroke-opacity:0.955017;paint-order:stroke markers fill"
       d=""
       id="path1669"
       transform="scale(0.26458333)" />
    <path
       style="fill:#008000;stroke:#000000;stroke-width:4.64318;stroke-linecap:round;stroke-linejoin:round;stroke-opacity:0.955017;paint-order:stroke markers fill"
       d=""
       id="path1708"
       transform="scale(0.26458333)" />
    <g
       inkscape:label="Layer 1"
       id="layer1-3"
       transform="translate(75.479981,34.861509)">
      <path
         style="fill:#ffffff;stroke:#000000;stroke-width:4.7671;stroke-linecap:round;stroke-linejoin:round;stroke-opacity:0.955017;paint-order:stroke markers fill"
         d=""
         id="path1841"
         transform="scale(0.26458333)" />
      <path
         style="fill:#000000;stroke:#000000;stroke-width:2.16838;stroke-linecap:round;stroke-linejoin:round;stroke-opacity:0.955017;paint-order:stroke markers fill"
         d=""
         id="path914"
         transform="scale(0.26458333)" />
      <g
         id="g937"
         transform="translate(20.51382,-6.6368241)">
        <path
           id="path862"
           style="fill:none;fill-rule:evenodd;stroke:#000000;stroke-width:0.910831;stroke-linecap:round;stroke-linejoin:round;stroke-miterlimit:4;stroke-dasharray:none;paint-order:stroke markers fill"
           d="M 56.032126,107.81775 A 23.450198,18.349688 0 0 1 44.097998,123.80237 23.450198,18.349688 0 0 1 20.442498,123.5174 23.450198,18.349688 0 0 1 9.1428439,107.25289 M 55.919789,106.70174 A 23.39081,15.238853 0 0 1 32.528981,121.9406 23.39081,15.238853 0 0 1 9.1381679,106.70174 23.39081,15.238853 0 0 1 32.528981,91.462895 23.39081,15.238853 0 0 1 55.919789,106.70174 Z M 27.095337,68.10407 h 6.003855 c 1.35203,0 2.440488,1.045566 2.440488,2.344307 v 18.670211 c 0,1.298741 -1.088458,2.344307 -2.440488,2.344307 h -6.003855 c -1.352032,0 -2.440489,-1.045566 -2.440489,-2.344307 V 70.448377 c 0,-1.298741 1.088457,-2.344307 2.440489,-2.344307 z M 18.526426,4.7015569 h 21.057346 c 1.352029,0 2.440487,1.0455612 2.440487,2.344308 V 65.982236 c 0,1.298749 -1.088458,2.344306 -2.440487,2.344306 H 18.526426 c -1.352031,0 -2.440488,-1.045557 -2.440488,-2.344306 V 7.0458649 c 0,-1.2987468 1.088457,-2.344308 2.440488,-2.344308 z"
           transform="translate(-97.200496,-25.207947)" />
        <path
           id="path1412"
           style="fill:none;stroke:#000000;stroke-width:3.30528;stroke-linecap:round;stroke-linejoin:round;stroke-opacity:0.955017;paint-order:stroke markers fill"
           d="m 186.87695,763.33789 a 21.559827,49.669829 0 0 0 -21.56054,49.66992 21.559827,49.669829 0 0 0 21.56054,49.66992 21.559827,49.669829 0 0 0 21.43946,-44.73242 17.786855,25.357755 0 0 0 16.79492,17.02149 17.786855,25.357755 0 0 0 16.75586,-16.86719 14.013887,36.860242 0 0 0 13.95117,33.59961 14.013887,36.860242 0 0 0 14.01562,-36.86133 14.013887,36.860242 0 0 0 -14.01562,-36.85937 14.013887,36.860242 0 0 0 -13.37695,25.92773 17.786855,25.357755 0 0 0 -17.33008,-19.6543 17.786855,25.357755 0 0 0 -17.13281,18.57813 21.559827,49.669829 0 0 0 -21.10157,-39.49219 z m 97.47266,2.09375 a 13.401606,54.078433 0 0 0 -13.40234,54.07813 13.401606,54.078433 0 0 0 13.40234,54.08007 13.401606,54.078433 0 0 0 13.40039,-54.08007 13.401606,54.078433 0 0 0 -13.40039,-54.07813 z m 34.00977,8.69141 a 18.864847,41.042963 0 0 0 -18.86329,41.04297 18.864847,41.042963 0 0 0 18.86329,41.04296 18.864847,41.042963 0 0 0 10.85937,-7.51562 21.122919,52.269887 81.318304 0 0 22.58984,7.92578 21.105336,40.666564 56.659245 0 0 -42.3164,27.7168 21.105336,40.666564 56.659245 0 0 10.6582,28.4707 21.105336,40.666564 56.659245 0 0 49.63867,-28.4707 21.105336,40.666564 56.659245 0 0 -2.87695,-27.28516 21.122919,52.269887 81.318304 0 0 59.99805,-22.20898 21.122919,52.269887 81.318304 0 0 -34.17969,-22.32422 21.122919,52.269887 81.318304 0 0 -34.20508,4.89258 11.034307,22.596437 0 0 0 -10.82422,-18.46485 11.034307,22.596437 0 0 0 -10.48047,15.54102 18.864847,41.042963 0 0 0 -18.86132,-40.36328 z m 1.79101,138.68359 a 13.797222,27.834024 51.64554 0 0 -32.79492,20.37891 13.797222,27.834024 51.64554 0 0 4.89062,20.38086 13.797222,27.834024 51.64554 0 0 32.79493,-20.38086 13.797222,27.834024 51.64554 0 0 -4.89063,-20.37891 z M 336.75,824.22461 a 11.034307,22.596437 0 0 0 0.22852,2.49414 21.122919,52.269887 81.318304 0 0 -0.60547,0.41016 18.864847,41.042963 0 0 0 0.37695,-2.9043 z m -43.5625,129.3418 a 21.559827,49.669829 0 0 0 -4.63477,1.21093 8.698035,23.711048 41.087214 0 0 -19.20117,17.55274 8.698035,23.711048 41.087214 0 0 -1.85351,18.76367 8.698035,23.711048 41.087214 0 0 4.93945,-1.31836 21.559827,49.669829 0 0 0 -0.80859,13.46091 21.559827,49.669829 0 0 0 21.55859,49.6699 21.559827,49.669829 0 0 0 21.44141,-44.7343 17.786855,25.357755 0 0 0 16.79492,17.0234 17.786855,25.357755 0 0 0 16.7539,-16.8672 14.013887,36.860242 0 0 0 13.95313,33.5977 14.013887,36.860242 0 0 0 14.01562,-36.8613 14.013887,36.860242 0 0 0 -14.01562,-36.85942 14.013887,36.860242 0 0 0 -13.37695,25.92969 17.786855,25.357755 0 0 0 -17.33008,-19.6543 17.786855,25.357755 0 0 0 -17.13477,18.57617 21.559827,49.669829 0 0 0 -21.10156,-39.49023 z m 97.47461,2.09375 a 13.401606,54.078433 0 0 0 -13.40234,54.07814 13.401606,54.078433 0 0 0 13.40234,54.0781 13.401606,54.078433 0 0 0 13.40039,-54.0781 13.401606,54.078433 0 0 0 -13.40039,-54.07814 z m 34.00977,8.68945 a 18.864847,41.042963 0 0 0 -18.86329,41.04299 18.864847,41.042963 0 0 0 18.86329,41.0449 18.864847,41.042963 0 0 0 18.38867,-31.9844 11.034307,22.596437 0 0 0 10.95312,19.9121 11.034307,22.596437 0 0 0 11.03321,-22.5976 11.034307,22.596437 0 0 0 -11.03321,-22.59572 11.034307,22.596437 0 0 0 -10.48047,15.54102 18.864847,41.042963 0 0 0 -18.86132,-40.36329 z"
           transform="matrix(0.05908627,0,0,0.08097093,-80.414338,5.8647379)"
           clip-path="url(#clipPath3020)" />
      </g>
    </g>
  </g>
  <g
     inkscape:groupmode="layer"
     id="layer2"
     inkscape:label="Layer 2">
    <path
       style="fill:#000000;stroke-width:0.264583"
       d="m 165.00163,126.92752 c -9.18948,-1.43644 -16.42625,-6.82109 -18.68683,-13.90428 -0.77311,-2.42241 -0.9424,-6.02211 -0.38573,-8.20207 1.17,-4.58185 5.41036,-8.648697 11.39965,-10.933173 1.30968,-0.499552 3.00682,-1.053912 3.7714,-1.231913 l 1.39016,-0.323636 -0.66255,-0.7874 -0.66255,-0.787397 V 80.574098 c 0,-6.513803 0.0987,-10.367973 0.27389,-10.695323 0.2643,-0.493855 0.15268,-0.511773 -3.18814,-0.511773 -3.96582,0 -4.83385,-0.275815 -5.44097,-1.728867 -0.56261,-1.346496 -0.56261,-59.7541015 0,-61.1005975 0.72209,-1.728208 0.72795,-1.728977 13.17072,-1.727877 10.71903,9.47e-4 11.22839,0.02331 12.05828,0.529288 0.47657,0.290565 0.98407,0.837555 1.12778,1.215534 0.16795,0.441772 0.23648,11.5062685 0.19184,30.9778655 l -0.0694,30.29063 -0.86407,0.772012 c -0.82248,0.734851 -0.98168,0.772009 -3.30729,0.77197 l -2.44323,-4.3e-5 V 80.14873 c 0,5.929998 -0.0904,10.960407 -0.20091,11.178688 -0.16635,0.328599 0.2926,0.476845 2.66778,0.861732 9.85296,1.596625 17.11617,7.091124 17.99138,13.61019 0.76462,5.69531 -0.80757,10.21476 -4.99812,14.36765 -5.50806,5.45856 -14.55256,8.10179 -23.13304,6.76053 z m 10.45105,-5.33568 c 10.44143,-1.80357 17.37124,-7.93988 16.87048,-14.93869 -0.42451,-5.93298 -6.81985,-11.417635 -15.54757,-13.33361 -2.77784,-0.609814 -8.95412,-0.821843 -11.97881,-0.411231 -15.8359,2.149784 -23.31193,13.749051 -14.51008,22.512791 5.44434,5.42077 15.38976,7.8594 25.16598,6.17074 z m -0.76382,-5.01877 c -0.30751,-0.39093 -0.5591,-0.87605 -0.5591,-1.07807 0,-0.29766 -0.12294,-0.28674 -0.6485,0.0576 -0.75742,0.49627 -1.60894,0.31299 -2.00773,-0.43215 -0.22526,-0.42091 -0.45587,-0.48374 -1.28738,-0.35078 -0.57844,0.0925 -1.25508,0.0324 -1.57738,-0.14009 -0.32626,-0.1746 -0.56443,-0.19506 -0.56443,-0.0485 0,0.13948 -0.30824,0.61992 -0.68498,1.06764 -0.7521,0.89383 -1.97464,1.0881 -2.81794,0.44779 -0.50456,-0.3831 -1.25958,-2.00448 -1.25958,-2.70492 0,-0.2433 -0.20836,-0.60546 -0.46302,-0.80482 -0.42946,-0.33621 -0.39664,-0.41981 0.45303,-1.15365 0.50382,-0.43514 1.00984,-0.79117 1.12448,-0.79117 0.11463,0 0.20843,-0.28955 0.20843,-0.64345 0,-0.62716 0.85476,-1.43474 1.92964,-1.82311 0.38862,-0.14042 0.4217,-0.26994 0.1829,-0.71614 -0.24786,-0.46313 -0.16664,-0.66138 0.54222,-1.32355 0.45855,-0.42835 1.29508,-0.91705 1.85895,-1.08599 1.29475,-0.38792 1.11755,-0.75295 -0.27484,-0.56619 -0.73853,0.0991 -1.25863,0.006 -1.7427,-0.31091 -0.3795,-0.24866 -0.70943,-0.41283 -0.73319,-0.36482 -0.7223,1.45978 -0.91466,1.67479 -1.4984,1.67479 -0.57662,0 -0.83381,-0.28754 -1.49559,-1.67198 -0.0222,-0.0465 -0.27213,0.0603 -0.55538,0.23714 -0.6528,0.40769 -1.83585,0.1255 -2.02917,-0.48401 -0.12093,-0.3813 -0.43394,-0.45469 -1.78456,-0.41842 -1.44623,0.0388 -1.67758,0.1197 -1.97696,0.69107 -0.18647,0.35591 -0.69227,0.79341 -1.12398,0.97223 -2.77213,1.14826 -4.43194,-3.59496 -1.94307,-5.552709 0.93953,-0.739037 1.84032,-0.653841 2.68864,0.254291 0.63177,0.676318 0.8584,0.756398 1.7878,0.631738 0.58538,-0.0785 1.30711,-0.0128 1.60385,0.14599 0.41142,0.22018 0.611,0.20262 0.84056,-0.074 0.49724,-0.599147 1.30643,-0.665848 1.93204,-0.15926 0.57676,0.46703 0.59703,0.46147 1.05348,-0.289103 0.25597,-0.420913 0.68682,-0.765294 0.95745,-0.765294 0.55598,0 1.36781,0.785659 1.36781,1.323727 0,0.23514 0.20791,0.16069 0.61236,-0.21927 0.40291,-0.378512 0.95013,-0.575291 1.59981,-0.575291 0.8164,0 1.06524,0.135554 1.43658,0.782581 0.35318,0.61539 0.57895,0.75001 1.05669,0.6301 0.39227,-0.0984 0.80112,0.0227 1.15383,0.3419 0.46175,0.41788 0.98392,0.49438 3.37442,0.49438 2.28753,0 2.96836,0.0919 3.5618,0.48072 0.61766,0.40471 0.68029,0.54504 0.39611,0.88746 -0.448,0.53981 -1.32527,0.86213 -3.40202,1.24997 -1.44895,0.27059 -1.73312,0.41275 -1.80442,0.90266 -0.11282,0.77515 -1.45061,1.75279 -3.15651,2.30674 -0.76399,0.24809 -1.38907,0.5952 -1.38907,0.77137 0,0.44833 -1.04924,1.38205 -1.92654,1.71444 -0.72994,0.27655 -0.7322,0.28477 -0.27852,1.00981 0.25157,0.40204 0.47413,0.76129 0.49458,0.79833 0.0205,0.037 0.41367,-0.0639 0.87383,-0.22433 0.6097,-0.21254 1.06382,-0.21246 1.67409,2.7e-4 0.67416,0.23501 0.92327,0.21427 1.27761,-0.10641 0.56927,-0.51518 1.29557,-0.50657 1.87994,0.0223 0.43093,0.38998 0.49558,0.36107 0.88753,-0.39687 0.23742,-0.45914 0.63375,-0.8175 0.9041,-0.8175 0.52546,0 1.35713,0.78294 1.35713,1.2776 0,0.43591 0.21359,0.38842 0.98614,-0.21927 0.96226,-0.75691 1.84936,-0.66896 2.66853,0.26458 0.43564,0.49647 0.9519,0.79375 1.37842,0.79375 0.37505,0 0.82479,0.14288 0.99941,0.3175 0.41013,0.41013 0.41013,1.86529 0,2.27542 -0.38841,0.38841 -1.44157,0.41746 -1.67109,0.0461 -0.10096,-0.16335 -0.48397,-0.005 -0.96196,0.39687 -0.94921,0.79871 -1.54121,0.84005 -2.37392,0.16576 l -0.6206,-0.50253 -0.54035,0.96331 c -0.67708,1.20704 -1.23572,1.32631 -1.95131,0.41658 z m 16.72601,-2.55352 c 0.14575,-0.57831 0.13755,-0.58134 -0.23265,-0.0858 -0.42496,0.5688 -0.51316,1.05285 -0.15107,0.82906 0.12796,-0.0791 0.30063,-0.41353 0.38372,-0.74322 z m -43.21428,0.47452 c 0,-0.0642 -0.11906,-0.19027 -0.26458,-0.2802 -0.14552,-0.0899 -0.26459,-0.0374 -0.26459,0.11667 0,0.15411 0.11907,0.2802 0.26459,0.2802 0.14552,0 0.26458,-0.0525 0.26458,-0.11667 z"
       id="path1442" />
  </g>
  <g
     inkscape:groupmode="layer"
     id="layer4"
     inkscape:label="Layer 3">
    <g
       id="g1570"
       transform="translate(-89.540857,0.41841522)">
      <path
         id="path1085"
         style="fill:none;fill-rule:evenodd;stroke:#000000;stroke-width:0.910831;stroke-linecap:round;stroke-linejoin:round;stroke-miterlimit:4;stroke-dasharray:none;paint-order:stroke markers fill"
         d="m 167.36349,254.02724 a 23.450198,18.349688 0 0 1 -11.93413,15.98462 23.450198,18.349688 0 0 1 -23.6555,-0.28497 23.450198,18.349688 0 0 1 -11.29965,-16.26451 m 46.77694,-0.55115 a 23.39081,15.238853 0 0 1 -23.39081,15.23886 23.39081,15.238853 0 0 1 -23.39081,-15.23886 23.39081,15.238853 0 0 1 23.39081,-15.23884 23.39081,15.238853 0 0 1 23.39081,15.23884 z M 138.4267,214.31357 h 6.00386 c 1.35203,0 2.44048,1.04556 2.44048,2.3443 v 18.67021 c 0,1.29875 -1.08845,2.34431 -2.44048,2.34431 h -6.00386 c -1.35203,0 -2.44049,-1.04556 -2.44049,-2.34431 v -18.67021 c 0,-1.29874 1.08846,-2.3443 2.44049,-2.3443 z m -8.56891,-63.40252 h 21.05735 c 1.35202,0 2.44048,1.04556 2.44048,2.34431 v 58.93637 c 0,1.29875 -1.08846,2.34431 -2.44048,2.34431 h -21.05735 c -1.35203,0 -2.44049,-1.04556 -2.44049,-2.34431 v -58.93637 c 0,-1.29875 1.08846,-2.34431 2.44049,-2.34431 z" />
      <path
         style="fill:#ffffff;fill-rule:evenodd;stroke:#000000;stroke-width:4.20076;stroke-linecap:round;stroke-linejoin:round;stroke-miterlimit:4;stroke-dasharray:none;paint-order:stroke markers fill"
         d="m 136.19924,266.47035 c -7.18073,-1.81321 -13.57472,-6.92163 -14.4406,-11.53721 -0.73519,-3.91889 0.2598,-6.60373 3.63844,-9.81775 8.42599,-8.01545 26.08971,-8.55351 35.87136,-1.09269 8.36507,6.38036 5.86085,15.92233 -5.49677,20.94463 -4.39924,1.94533 -14.6909,2.73565 -19.57243,1.50302 z"
         id="path1199" />
      <g
         id="g1556">
        <path
           style="fill:#ffffff;fill-rule:evenodd;stroke:#000000;stroke-width:8.43353;stroke-linecap:round;stroke-linejoin:round;stroke-miterlimit:4;stroke-dasharray:none;paint-order:stroke markers fill"
           d="m 517.12167,1023.3472 c -5.65354,-1.5393 -14.38699,-4.8221 -19.40765,-7.2951 -8.76237,-4.316 -22.5398,-14.7148 -21.23048,-16.0241 0.34639,-0.3464 4.62415,1.7755 9.50614,4.7152 4.88198,2.9398 14.06177,7.0439 20.39952,9.1202 10.08238,3.3031 14.29142,3.7522 33.66295,3.5921 26.86728,-0.222 42.86792,-3.3432 58.39922,-11.3915 14.9702,-7.75756 15.04293,-7.77243 9.60149,-1.9621 -5.72645,6.1147 -26.50221,16.5607 -39.4722,19.8466 -12.86818,3.26 -38.37199,2.962 -51.45899,-0.6013 z"
           id="path1433"
           transform="scale(0.26458333)" />
        <path
           style="fill:#ffffff;fill-rule:evenodd;stroke:#000000;stroke-width:4.20076;stroke-linecap:round;stroke-linejoin:round;stroke-miterlimit:4;stroke-dasharray:none;paint-order:stroke markers fill"
           d="m 128.89916,212.74799 c -0.21292,-0.55486 -0.29416,-14.47746 -0.18054,-30.9391 l 0.20659,-29.93026 h 11.42171 11.4217 v 30.72045 30.72045 l -11.24116,0.21865 c -8.57189,0.16674 -11.33309,-0.0209 -11.6283,-0.79019 z"
           id="path1238" />
        <path
           style="fill:#ffffff;fill-rule:evenodd;stroke:#000000;stroke-width:4.20076;stroke-linecap:round;stroke-linejoin:round;stroke-miterlimit:4;stroke-dasharray:none;paint-order:stroke markers fill"
           d="m 137.1961,226.31664 v -10.24015 h 4.33237 4.33237 v 10.24015 10.24015 h -4.33237 -4.33237 z"
           id="path1277" />
      </g>
      <path
         id="path3116"
         style="fill:#ffffff;stroke:#000000;stroke-width:7.84252;stroke-linecap:round;stroke-linejoin:round;stroke-miterlimit:4;stroke-dasharray:none;stroke-opacity:0.955017;paint-order:stroke markers fill"
         d="m 186.87695,763.33789 a 21.559827,49.669829 0 0 0 -21.56054,49.66992 21.559827,49.669829 0 0 0 21.56054,49.66992 21.559827,49.669829 0 0 0 21.43946,-44.73242 17.786855,25.357755 0 0 0 16.79492,17.02149 17.786855,25.357755 0 0 0 16.75586,-16.86719 14.013887,36.860242 0 0 0 13.95117,33.59961 14.013887,36.860242 0 0 0 14.01562,-36.86133 14.013887,36.860242 0 0 0 -14.01562,-36.85937 14.013887,36.860242 0 0 0 -13.37695,25.92773 17.786855,25.357755 0 0 0 -17.33008,-19.6543 17.786855,25.357755 0 0 0 -17.13281,18.57813 21.559827,49.669829 0 0 0 -21.10157,-39.49219 z m 97.47266,2.09375 a 13.401606,54.078433 0 0 0 -13.40234,54.07813 13.401606,54.078433 0 0 0 13.40234,54.08007 13.401606,54.078433 0 0 0 13.40039,-54.08007 13.401606,54.078433 0 0 0 -13.40039,-54.07813 z m 34.00977,8.69141 a 18.864847,41.042963 0 0 0 -18.86329,41.04297 18.864847,41.042963 0 0 0 18.86329,41.04296 18.864847,41.042963 0 0 0 10.85937,-7.51562 21.122919,52.269887 81.318304 0 0 22.58984,7.92578 21.105336,40.666564 56.659245 0 0 -42.3164,27.7168 21.105336,40.666564 56.659245 0 0 10.6582,28.4707 21.105336,40.666564 56.659245 0 0 49.63867,-28.4707 21.105336,40.666564 56.659245 0 0 -2.87695,-27.28516 21.122919,52.269887 81.318304 0 0 59.99805,-22.20898 21.122919,52.269887 81.318304 0 0 -34.17969,-22.32422 21.122919,52.269887 81.318304 0 0 -34.20508,4.89258 11.034307,22.596437 0 0 0 -10.82422,-18.46485 11.034307,22.596437 0 0 0 -10.48047,15.54102 18.864847,41.042963 0 0 0 -18.86132,-40.36328 z m 1.79101,138.68359 a 13.797222,27.834024 51.64554 0 0 -32.79492,20.37891 13.797222,27.834024 51.64554 0 0 4.89062,20.38086 13.797222,27.834024 51.64554 0 0 32.79493,-20.38086 13.797222,27.834024 51.64554 0 0 -4.89063,-20.37891 z M 336.75,824.22461 a 11.034307,22.596437 0 0 0 0.22852,2.49414 21.122919,52.269887 81.318304 0 0 -0.60547,0.41016 18.864847,41.042963 0 0 0 0.37695,-2.9043 z m -43.5625,129.3418 a 21.559827,49.669829 0 0 0 -4.63477,1.21093 8.698035,23.711048 41.087214 0 0 -19.20117,17.55274 8.698035,23.711048 41.087214 0 0 -1.85351,18.76367 8.698035,23.711048 41.087214 0 0 4.93945,-1.31836 21.559827,49.669829 0 0 0 -0.80859,13.46091 21.559827,49.669829 0 0 0 21.55859,49.6699 21.559827,49.669829 0 0 0 21.44141,-44.7343 17.786855,25.357755 0 0 0 16.79492,17.0234 17.786855,25.357755 0 0 0 16.7539,-16.8672 14.013887,36.860242 0 0 0 13.95313,33.5977 14.013887,36.860242 0 0 0 14.01562,-36.8613 14.013887,36.860242 0 0 0 -14.01562,-36.85942 14.013887,36.860242 0 0 0 -13.37695,25.92969 17.786855,25.357755 0 0 0 -17.33008,-19.6543 17.786855,25.357755 0 0 0 -17.13477,18.57617 21.559827,49.669829 0 0 0 -21.10156,-39.49023 z m 97.47461,2.09375 a 13.401606,54.078433 0 0 0 -13.40234,54.07814 13.401606,54.078433 0 0 0 13.40234,54.0781 13.401606,54.078433 0 0 0 13.40039,-54.0781 13.401606,54.078433 0 0 0 -13.40039,-54.07814 z m 34.00977,8.68945 a 18.864847,41.042963 0 0 0 -18.86329,41.04299 18.864847,41.042963 0 0 0 18.86329,41.0449 18.864847,41.042963 0 0 0 18.38867,-31.9844 11.034307,22.596437 0 0 0 10.95312,19.9121 11.034307,22.596437 0 0 0 11.03321,-22.5976 11.034307,22.596437 0 0 0 -11.03321,-22.59572 11.034307,22.596437 0 0 0 -10.48047,15.54102 18.864847,41.042963 0 0 0 -18.86132,-40.36329 z"
         transform="matrix(0.08907317,0,0,0.06294826,116.44522,193.64796)"
         clip-path="url(#clipPath3020)" />
    </g>
    <path
       style="fill:#b7c4c8;fill-rule:evenodd;stroke:#000000;stroke-width:8.43353;stroke-linecap:round;stroke-linejoin:round;stroke-miterlimit:4;stroke-dasharray:none;paint-order:stroke markers fill"
       d=""
       id="path2049"
       transform="scale(0.26458333)" />
  </g>
  <g
     inkscape:groupmode="layer"
     id="layer5"
     inkscape:label="Layer 4">
    <g
       id="g2525"
       transform="translate(242.94652,147.89491)">
      <g
         id="g2491">
        <path
           id="path979"
           style="fill:none;fill-rule:evenodd;stroke:#000000;stroke-width:0.910831;stroke-linecap:round;stroke-linejoin:round;stroke-miterlimit:4;stroke-dasharray:none;paint-order:stroke markers fill"
           d="m -36.78744,105.69328 a 23.450198,18.349688 0 0 1 -11.93413,15.98462 23.450198,18.349688 0 0 1 -23.6555,-0.28497 23.450198,18.349688 0 0 1 -11.29965,-16.26451 m 46.77694,-0.55115 a 23.39081,15.238853 0 0 1 -23.39081,15.23886 23.39081,15.238853 0 0 1 -23.39081,-15.23886 23.39081,15.238853 0 0 1 23.39081,-15.238838 23.39081,15.238853 0 0 1 23.39081,15.238838 z M -65.72423,65.979607 h 6.00386 c 1.35203,0 2.44048,1.045566 2.44048,2.344307 v 18.670211 c 0,1.298741 -1.08845,2.344307 -2.44048,2.344307 h -6.00386 c -1.35203,0 -2.44049,-1.045566 -2.44049,-2.344307 V 68.323914 c 0,-1.298741 1.08846,-2.344307 2.44049,-2.344307 z M -74.29314,2.5770934 h 21.05735 c 1.35202,0 2.44048,1.0455612 2.44048,2.344308 V 63.857773 c 0,1.298749 -1.08846,2.344306 -2.44048,2.344306 h -21.05735 c -1.35203,0 -2.44049,-1.045557 -2.44049,-2.344306 V 4.9214014 c 0,-1.2987468 1.08846,-2.344308 2.44049,-2.344308 z" />
        <path
           style="fill:#53676c;fill-rule:evenodd;stroke:#000000;stroke-width:8.43353;stroke-linecap:round;stroke-linejoin:round;stroke-miterlimit:4;stroke-dasharray:none;paint-order:stroke markers fill"
           d="m -284.60079,245.61077 c -3.1826,-2.22918 -3.21617,-3.4246 -3.21617,-114.54722 0,-74.38326 0.55268,-113.327225 1.63706,-115.353396 1.55705,-2.909382 3.74404,-3.058859 44.75395,-3.058859 31.42682,0 43.63142,0.514513 45.0146,1.897694 2.36956,2.369562 2.72825,226.807641 0.36844,230.539591 -2.16605,3.42553 -83.72617,3.90646 -88.55788,0.52219 z"
           id="path1703"
           transform="scale(0.26458333)" />
        <path
           style="fill:#53676c;fill-rule:evenodd;stroke:#000000;stroke-width:8.43353;stroke-linecap:round;stroke-linejoin:round;stroke-miterlimit:4;stroke-dasharray:none;paint-order:stroke markers fill"
           d="m -252.86083,333.08609 c -1.26843,-1.52837 -1.67782,-13.61153 -1.37969,-40.72135 l 0.42392,-38.54814 15.79018,-0.4571 c 13.4806,-0.39024 16.08282,-0.0569 17.79089,2.27902 1.47034,2.01082 2.00069,11.99489 2.00069,37.66376 0,43.64549 0.7595,41.95703 -18.87297,41.95703 -9.90282,0 -14.47261,-0.63043 -15.75302,-2.17322 z"
           id="path1742"
           transform="scale(0.26458333)" />
        <path
           style="fill:#1c2224;fill-rule:evenodd;stroke:#000000;stroke-width:8.43353;stroke-linecap:round;stroke-linejoin:round;stroke-miterlimit:4;stroke-dasharray:none;paint-order:stroke markers fill"
           d="m -241.95601,449.66808 c -31.8193,-4.22908 -59.47872,-20.02567 -68.02158,-38.84783 -9.86362,-21.73217 2.63876,-45.69011 30.8584,-59.13304 17.59839,-8.38331 28.96662,-10.76626 51.39588,-10.77332 15.81156,-0.005 22.28844,0.71221 32.36342,3.58363 40.76989,11.61965 61.50883,39.17351 49.39703,65.62916 -10.32372,22.54999 -40.01979,37.973 -76.30626,39.63058 -7.78357,0.35556 -16.64268,0.31543 -19.68689,-0.0892 z"
           id="path1973"
           transform="scale(0.26458333)" />
        <path
           style="fill:#939dac;fill-rule:evenodd;stroke:#000000;stroke-width:5.18311;stroke-linecap:round;stroke-linejoin:round;stroke-miterlimit:4;stroke-dasharray:none;paint-order:stroke markers fill"
           d="m -246.22811,464.96455 c -20.19704,-3.64905 -38.77665,-13.08887 -50.75451,-25.78705 -5.18396,-5.49572 -8.73345,-10.35291 -8.05869,-11.02767 0.22085,-0.22085 3.40538,2.00724 7.07674,4.9513 28.34708,22.73149 78.68512,28.46895 117.07925,13.34453 9.60583,-3.78398 20.85359,-10.762 27.36455,-16.97676 3.1848,-3.03991 5.79055,-5.23584 5.79055,-4.87986 0,1.74902 -7.72981,11.77586 -13.13835,17.04261 -19.73238,19.21509 -54.91761,28.83292 -85.35954,23.3329 z"
           id="path2313"
           transform="scale(0.26458333)" />
      </g>
      <g
         id="g9715"
         transform="matrix(0.24806039,0,0,0.2529335,-63.802631,99.013776)">
        <path
           id="path3826"
           style="fill:#ffffff;stroke:#000000;stroke-width:7.84252;stroke-linecap:round;stroke-linejoin:round;stroke-miterlimit:4;stroke-dasharray:none;stroke-opacity:0.955017;paint-order:stroke markers fill"
           d="m 186.87695,763.33789 a 21.559827,49.669829 0 0 0 -21.56054,49.66992 21.559827,49.669829 0 0 0 21.56054,49.66992 21.559827,49.669829 0 0 0 21.43946,-44.73242 17.786855,25.357755 0 0 0 16.79492,17.02149 17.786855,25.357755 0 0 0 16.75586,-16.86719 14.013887,36.860242 0 0 0 13.95117,33.59961 14.013887,36.860242 0 0 0 14.01562,-36.86133 14.013887,36.860242 0 0 0 -14.01562,-36.85937 14.013887,36.860242 0 0 0 -13.37695,25.92773 17.786855,25.357755 0 0 0 -17.33008,-19.6543 17.786855,25.357755 0 0 0 -17.13281,18.57813 21.559827,49.669829 0 0 0 -21.10157,-39.49219 z m 97.47266,2.09375 a 13.401606,54.078433 0 0 0 -13.40234,54.07813 13.401606,54.078433 0 0 0 13.40234,54.08007 13.401606,54.078433 0 0 0 13.40039,-54.08007 13.401606,54.078433 0 0 0 -13.40039,-54.07813 z m 34.00977,8.69141 a 18.864847,41.042963 0 0 0 -18.86329,41.04297 18.864847,41.042963 0 0 0 18.86329,41.04296 18.864847,41.042963 0 0 0 10.85937,-7.51562 21.122919,52.269887 81.318304 0 0 22.58984,7.92578 21.105336,40.666564 56.659245 0 0 -42.3164,27.7168 21.105336,40.666564 56.659245 0 0 10.6582,28.4707 21.105336,40.666564 56.659245 0 0 49.63867,-28.4707 21.105336,40.666564 56.659245 0 0 -2.87695,-27.28516 21.122919,52.269887 81.318304 0 0 59.99805,-22.20898 21.122919,52.269887 81.318304 0 0 -34.17969,-22.32422 21.122919,52.269887 81.318304 0 0 -34.20508,4.89258 11.034307,22.596437 0 0 0 -10.82422,-18.46485 11.034307,22.596437 0 0 0 -10.48047,15.54102 18.864847,41.042963 0 0 0 -18.86132,-40.36328 z m 1.79101,138.68359 a 13.797222,27.834024 51.64554 0 0 -32.79492,20.37891 13.797222,27.834024 51.64554 0 0 4.89062,20.38086 13.797222,27.834024 51.64554 0 0 32.79493,-20.38086 13.797222,27.834024 51.64554 0 0 -4.89063,-20.37891 z M 336.75,824.22461 a 11.034307,22.596437 0 0 0 0.22852,2.49414 21.122919,52.269887 81.318304 0 0 -0.60547,0.41016 18.864847,41.042963 0 0 0 0.37695,-2.9043 z m -43.5625,129.3418 a 21.559827,49.669829 0 0 0 -4.63477,1.21093 8.698035,23.711048 41.087214 0 0 -19.20117,17.55274 8.698035,23.711048 41.087214 0 0 -1.85351,18.76367 8.698035,23.711048 41.087214 0 0 4.93945,-1.31836 21.559827,49.669829 0 0 0 -0.80859,13.46091 21.559827,49.669829 0 0 0 21.55859,49.6699 21.559827,49.669829 0 0 0 21.44141,-44.7343 17.786855,25.357755 0 0 0 16.79492,17.0234 17.786855,25.357755 0 0 0 16.7539,-16.8672 14.013887,36.860242 0 0 0 13.95313,33.5977 14.013887,36.860242 0 0 0 14.01562,-36.8613 14.013887,36.860242 0 0 0 -14.01562,-36.85942 14.013887,36.860242 0 0 0 -13.37695,25.92969 17.786855,25.357755 0 0 0 -17.33008,-19.6543 17.786855,25.357755 0 0 0 -17.13477,18.57617 21.559827,49.669829 0 0 0 -21.10156,-39.49023 z m 97.47461,2.09375 a 13.401606,54.078433 0 0 0 -13.40234,54.07814 13.401606,54.078433 0 0 0 13.40234,54.0781 13.401606,54.078433 0 0 0 13.40039,-54.0781 13.401606,54.078433 0 0 0 -13.40039,-54.07814 z m 34.00977,8.68945 a 18.864847,41.042963 0 0 0 -18.86329,41.04299 18.864847,41.042963 0 0 0 18.86329,41.0449 18.864847,41.042963 0 0 0 18.38867,-31.9844 11.034307,22.596437 0 0 0 10.95312,19.9121 11.034307,22.596437 0 0 0 11.03321,-22.5976 11.034307,22.596437 0 0 0 -11.03321,-22.59572 11.034307,22.596437 0 0 0 -10.48047,15.54102 18.864847,41.042963 0 0 0 -18.86132,-40.36329 z"
           transform="matrix(0.26458333,0,0,0.26458333,-76.454877,-213.08938)"
           clip-path="url(#clipPath3020)" />
        <path
           style="fill:#53676c;fill-opacity:1;stroke:#000000;stroke-width:8.92357;stroke-linecap:round;stroke-linejoin:round;stroke-miterlimit:4;stroke-dasharray:none;stroke-opacity:0.955017;paint-order:stroke markers fill"
           d="m -3.274229,242.92042 c -8.334775,-7.52997 -12.909693,-23.15241 -13.100531,-44.73572 l -0.123994,-14.02341 -2.963138,0.5921 c -3.208053,0.64104 -5.577293,-0.96945 -5.559585,-3.77912 0.0254,-4.03074 6.058307,-14.2788 12.195032,-20.71564 6.9413849,-7.28085 13.17592502,-11.20092 17.8141174,-11.20092 6.6265666,0 14.9438136,12.52774 17.7524326,26.73936 0.742073,3.75489 1.592517,8.06402 1.889875,9.57584 0.47746,2.4275 0.84997,2.08115 3.187071,-2.96325 3.207518,-6.92309 7.904128,-11.50036 12.728966,-12.4055 6.61902,-1.24174 14.111939,4.7522 17.072529,13.6571 1.747641,5.25659 1.998712,5.52791 2.725506,2.94534 3.57157,-12.69112 4.986497,-16.31781 7.559072,-19.37514 5.670451,-6.73895 11.793966,-2.40869 16.034354,11.33874 2.725642,8.83659 2.725642,33.40665 0,42.24324 -2.516311,8.15793 -6.508459,14.05062 -9.843537,14.52977 -6.007134,0.86303 -12.275346,-10.82512 -13.474189,-25.12491 -0.354211,-4.22503 -0.978927,-7.68187 -1.388256,-7.68187 -0.40933,0 -1.392334,1.79228 -2.184455,3.98286 -3.455175,9.55511 -11.503046,14.58015 -18.547193,11.58073 -4.791505,-2.04023 -8.273658,-5.80307 -10.731622,-11.59666 l -1.924361,-4.53585 -1.995613,11.37845 c -3.15679,17.99916 -7.993638,28.36814 -14.8986041,31.93884 -4.8143626,2.4896 -7.4059494,1.98833 -12.2238769,-2.36438 z"
           id="path9249"
           transform="scale(0.26458333)" />
        <path
           style="fill:#53676c;fill-opacity:1;stroke:#000000;stroke-width:8.92357;stroke-linecap:round;stroke-linejoin:round;stroke-miterlimit:4;stroke-dasharray:none;stroke-opacity:0.955017;paint-order:stroke markers fill"
           d="m 98.594644,255.52326 c -6.352902,-6.8549 -8.613233,-22.32845 -8.096061,-55.42323 0.421554,-26.97602 1.589505,-35.14216 6.36495,-44.5028 4.257877,-8.34613 9.692807,-3.9709 13.453927,10.83069 6.69158,26.33413 4.56541,72.62535 -4.00183,87.12853 -2.80754,4.75278 -4.69374,5.23326 -7.720986,1.96681 z"
           id="path9288"
           transform="scale(0.26458333)" />
        <path
           style="fill:#53676c;fill-opacity:1;stroke:#000000;stroke-width:8.92357;stroke-linecap:round;stroke-linejoin:round;stroke-miterlimit:4;stroke-dasharray:none;stroke-opacity:0.955017;paint-order:stroke markers fill"
           d="m 127.94273,236.11225 c -6.67702,-7.07971 -8.24885,-13.5534 -8.58756,-35.36861 -0.27587,-17.76716 -0.0977,-19.77085 2.30212,-25.89321 6.78,-17.29685 17.25393,-19.86236 25.08814,-6.14516 3.67358,6.4322 6.86366,18.42644 6.86366,25.8064 0,5.64419 1.74996,6.0636 2.76326,0.66226 0.89008,-4.74454 5.73555,-10.84302 8.61519,-10.84302 2.79038,0 7.606,5.9203 9.05269,11.12932 2.99047,10.76766 0.27109,26.56618 -5.33136,30.97306 -3.81288,2.99921 -4.50096,2.89772 -8.35976,-1.23314 -2.20709,-2.3627 -3.72739,-5.69329 -4.66012,-10.2091 -0.76139,-3.68631 -1.54282,-6.54391 -1.73651,-6.35022 -0.19369,0.19369 -0.90217,3.32743 -1.5744,6.96387 -3.78896,20.49635 -15.31935,30.17332 -24.43535,20.50755 z"
           id="path9327"
           transform="scale(0.26458333)" />
        <g
           id="g9606">
          <path
             style="fill:#53676c;fill-opacity:1;stroke:#000000;stroke-width:8.92357;stroke-linecap:round;stroke-linejoin:round;stroke-miterlimit:4;stroke-dasharray:none;stroke-opacity:0.955017;paint-order:stroke markers fill"
             d="M 23.187351,105.32245 C 11.312675,100.15431 14.094775,84.747148 29.532342,70.184125 37.55862,62.612542 52.098191,54.26775 59.77289,52.827967 c 5.220034,-0.979284 4.125525,-2.294906 -2.657815,-3.194748 -3.034616,-0.402556 -8.099126,-2.018406 -11.254467,-3.59078 l -5.736984,-2.858859 -3.683391,3.440802 c -5.307717,4.95815 -9.472994,4.648822 -14.951568,-1.110356 -15.1423138,-15.917878 -12.6020059,-65.728964 3.800474,-74.520778 4.090134,-2.192334 4.35419,-2.200602 7.976649,-0.249779 7.043877,3.793379 12.389272,15.727825 14.074959,31.4245879 l 0.782702,7.2883599 2.201006,-5.9002958 c 2.259689,-6.0576041 6.114908,-9.7244226 9.52034,-9.0550909 2.864515,0.5630149 6.270162,5.73347409 7.86962,11.9476729 1.617191,6.283091 0.785183,6.105752 15.781786,3.3638161 31.881859,-5.8291862 60.922309,2.8349209 55.266759,16.4886259 -4.42649,10.686498 -28.8816,21.711174 -53.924399,24.309811 -7.829632,0.812464 -7.870803,0.834509 -4.911705,2.629984 9.973599,6.051624 7.007643,19.556104 -7.401009,33.698005 -15.42858,15.142945 -37.709398,23.444765 -49.338496,18.383505 z"
             id="path9366"
             transform="scale(0.26458333)" />
          <path
             style="fill:#53676c;fill-opacity:1;stroke:#000000;stroke-width:8.92357;stroke-linecap:round;stroke-linejoin:round;stroke-miterlimit:4;stroke-dasharray:none;stroke-opacity:0.955017;paint-order:stroke markers fill"
             d="M -4.7678908,142.96421 C -7.9977831,136.9283 0.17281796,123.79864 12.184741,115.72236 l 7.727548,-5.19566 9.671684,0.77552 9.671683,0.77552 0.360621,3.75254 c 0.656037,6.82656 -9.340135,19.80471 -20.132887,26.13876 -4.165989,2.44493 -6.463364,2.93781 -14.0509579,3.01452 -7.72695,0.0781 -9.2380233,-0.22104 -10.2003229,-2.01935 z"
             id="path9405"
             transform="scale(0.26458333)" />
          <path
             style="fill:#53676c;fill-opacity:1;stroke:#000000;stroke-width:8.92357;stroke-linecap:round;stroke-linejoin:round;stroke-miterlimit:4;stroke-dasharray:none;stroke-opacity:0.955017;paint-order:stroke markers fill"
             d="m -107.31461,54.815431 c -10.35832,-6.988942 -16.54148,-28.489562 -15.20896,-52.8858357 2.70684,-49.5575823 30.06866,-58.9506173 39.44428,-13.5408213 1.911451,9.2579074 2.127293,9.6953611 3.30646,6.7013106 0.693835,-1.7617302 1.261517,-3.5055063 1.261517,-3.8750556 0,-0.3695493 1.306545,-2.384876 2.903432,-4.478504 3.293864,-4.318478 8.207561,-7.217737 12.232704,-7.217737 5.912718,0 13.232136,7.842285 16.062301,17.2097184 0.672019,2.2242847 1.086489,1.4719483 2.341976,-4.2510883 2.745475,-12.5150271 8.178909,-20.2673781 13.271525,-18.9356291 11.278089,2.949286 15.917268,45.295241 6.949921,63.438177 -2.426488,4.909323 -6.03694,8.533838 -8.500728,8.533838 -5.316579,0 -11.018252,-11.824217 -12.877571,-26.705704 l -0.83864,-6.71225 -2.635534,5.18587 c -7.407117,14.574789 -21.140174,14.945251 -28.20851,0.760949 -3.218373,-6.458434 -2.891685,-6.948252 -5.097352,7.642701 -1.647733,10.900103 -5.371856,20.160782 -10.290229,25.588447 -4.962767,5.476655 -9.544882,6.626231 -14.116592,3.541614 z"
             id="path9444"
             transform="scale(0.26458333)" />
          <path
             style="fill:#53676c;fill-opacity:1;stroke:#000000;stroke-width:8.92357;stroke-linecap:round;stroke-linejoin:round;stroke-miterlimit:4;stroke-dasharray:none;stroke-opacity:0.955017;paint-order:stroke markers fill"
             d="M -8.4575447,64.637451 C -13.770289,57.10025 -17.748825,34.640661 -15.845688,22.929976 -15.100693,18.345749 -14.921727,10.131922 -15.391861,2.1010526 -16.008395,-8.430629 -15.763503,-13.031418 -14.201602,-20.26034 -9.0158213,-44.261606 -0.02438288,-44.0429 5.0386137,-19.792346 7.5873424,-7.5845455 7.710439,36.497946 5.2273321,47.789495 1.6420982,64.092792 -3.9707119,71.002929 -8.4575447,64.637451 Z"
             id="path9483"
             transform="scale(0.26458333)" />
        </g>
      </g>
      <path
         style="fill:#939dac;fill-opacity:1;fill-rule:evenodd;stroke:#000000;stroke-width:1.83608;stroke-linecap:round;stroke-linejoin:round;stroke-miterlimit:4;stroke-dasharray:none;paint-order:stroke markers fill"
         d=""
         id="path7193"
         transform="matrix(0.26458333,0,0,0.26458333,-225.00714,-137.5758)" />
      <path
         style="fill:#939dac;fill-opacity:1;fill-rule:evenodd;stroke:#000000;stroke-width:1.59993;stroke-linecap:round;stroke-linejoin:round;stroke-miterlimit:4;stroke-dasharray:none;paint-order:stroke markers fill"
         d="m 541.72158,943.34863 c -0.78817,-1.58665 -1.38301,-2.93484 -1.32187,-2.99598 0.0611,-0.0611 1.02156,1.04717 2.13429,2.46289 1.88885,2.40319 1.98703,2.60142 1.47918,2.98644 -0.29918,0.22682 -0.61475,0.41669 -0.70126,0.42194 -0.0865,0.005 -0.80217,-1.28863 -1.59034,-2.87529 z"
         id="path7310"
         transform="matrix(0.26458333,0,0,0.26458333,-225.00714,-137.5758)" />
    </g>
  </g>
</svg>
