<?xml version="1.0" encoding="UTF-8" standalone="no"?>
<!-- Created with Inkscape (http://www.inkscape.org/) -->

<svg
   width="210mm"
   height="297mm"
   viewBox="0 0 210 297"
   version="1.1"
   id="svg5"
   inkscape:version="1.1.2 (0a00cf5339, 2022-02-04, custom)"
   sodipodi:docname="zam  tube icon svg.svg"
   xmlns:inkscape="http://www.inkscape.org/namespaces/inkscape"
   xmlns:sodipodi="http://sodipodi.sourceforge.net/DTD/sodipodi-0.dtd"
   xmlns="http://www.w3.org/2000/svg"
   xmlns:svg="http://www.w3.org/2000/svg">
  <sodipodi:namedview
     id="namedview7"
     pagecolor="#ffffff"
     bordercolor="#666666"
     borderopacity="1.0"
     inkscape:pageshadow="2"
     inkscape:pageopacity="0.0"
     inkscape:pagecheckerboard="0"
     inkscape:document-units="mm"
     showgrid="false"
     inkscape:zoom="0.70910507"
     inkscape:cx="750.94654"
     inkscape:cy="223.52118"
     inkscape:window-width="1658"
     inkscape:window-height="990"
     inkscape:window-x="-32000"
     inkscape:window-y="-32000"
     inkscape:window-maximized="0"
     inkscape:current-layer="layer1" />
  <defs
     id="defs2">
    <inkscape:path-effect
       effect="bend_path"
       id="path-effect2970"
       is_visible="true"
       lpeversion="1"
       bendpath="m 43.763949,70.10731 c -2.161977,107.01546 130.764381,120.38147 134.266091,0"
       prop_scale="1"
       scale_y_rel="false"
       vertical="false"
       hide_knot="false"
       bendpath-nodetypes="cc" />
    <inkscape:path-effect
       effect="bend_path"
       id="path-effect2565"
       is_visible="true"
       lpeversion="1"
       bendpath="m 22.094421,77.755379 c 47.268841,63.835791 105.047969,86.291981 159.759649,0"
       prop_scale="1"
       scale_y_rel="false"
       vertical="false"
       hide_knot="false"
       bendpath-nodetypes="cc" />
    <inkscape:path-effect
       effect="bend_path"
       id="path-effect2004"
       is_visible="true"
       lpeversion="1"
       bendpath="m 27.618026,97.300446 c 45.668773,25.787114 97.134884,31.863294 159.759654,0"
       prop_scale="1"
       scale_y_rel="false"
       vertical="false"
       hide_knot="false"
       bendpath-nodetypes="cc" />
    <inkscape:path-effect
       effect="bend_path"
       id="path-effect969"
       is_visible="true"
       lpeversion="1"
       bendpath="M 65.435059,87.740334 C 56.61074,15.763533 192.01306,8.7605155 192.47641,90.28969"
       prop_scale="1"
       scale_y_rel="false"
       vertical="false"
       hide_knot="false"
       bendpath-nodetypes="cc" />
  </defs>
  <g
     inkscape:label="Layer 1"
     inkscape:groupmode="layer"
     id="layer1">
    <path
       style="fill:#ffffff;stroke:#000000;stroke-width:4.7671;stroke-linecap:round;stroke-linejoin:round;stroke-opacity:0.955017;paint-order:stroke markers fill"
       d=""
       id="path1841"
       transform="scale(0.26458333)" />
    <path
       id="rect1704"
       style="fill:none;fill-rule:evenodd;stroke:#000000;stroke-width:1.08011;stroke-linecap:round;stroke-linejoin:round;stroke-miterlimit:4;stroke-dasharray:none;paint-order:stroke markers fill"
       d="M 14.082852,54.878574 H 82.51843 c 0.840504,0 1.517152,0.842672 1.517152,1.8894 v 52.115816 c 0,1.04673 -0.676648,1.8894 -1.517152,1.8894 H 14.082852 c -0.840498,0 -1.517142,-0.84267 -1.517142,-1.8894 V 56.767974 c 0,-1.046728 0.676644,-1.8894 1.517142,-1.8894 z m -5.174297,-3.79478 h 76.82838 c 0.970423,0 1.751668,0.972932 1.751668,2.181462 v 60.172094 c 0,1.20854 -0.781245,2.18147 -1.751668,2.18147 H 8.908555 c -0.9704276,0 -1.7516714,-0.97293 -1.7516714,-2.18147 V 53.265256 c 0,-1.20853 0.7812438,-2.181462 1.7516714,-2.181462 z M 72.013212,27.82549 h 0.839337 c 0.619997,0 1.119117,0.570619 1.119117,1.279431 v 1.812537 c 0,0.708803 -0.49912,1.279422 -1.119117,1.279422 h -0.839337 c -0.619993,0 -1.119122,-0.570619 -1.119122,-1.279422 v -1.812537 c 0,-0.708812 0.499129,-1.279431 1.119122,-1.279431 z m 5.33395,1.972453 a 5.1007963,6.8976852 0 0 1 -5.100801,6.897681 5.1007963,6.8976852 0 0 1 -5.100797,-6.897681 5.1007963,6.8976852 0 0 1 5.100797,-6.897699 5.1007963,6.8976852 0 0 1 5.100801,6.897699 z m -2.008847,0.266549 a 3.0453297,3.9080549 0 0 1 -3.045324,3.90806 3.0453297,3.9080549 0 0 1 -3.045328,-3.90806 3.0453297,3.9080549 0 0 1 3.045328,-3.90806 3.0453297,3.9080549 0 0 1 3.045324,3.90806 z M 64.5066,28.541988 a 4.6798893,5.9190328 0 0 1 -4.679886,5.919035 4.6798893,5.9190328 0 0 1 -4.679889,-5.919035 4.6798893,5.9190328 0 0 1 4.679889,-5.919035 4.6798893,5.9190328 0 0 1 4.679886,5.919035 z m -2.681953,0.395342 a 2.3454019,2.7234402 0 0 1 -2.3454,2.723434 2.3454019,2.7234402 0 0 1 -2.345407,-2.723434 2.3454019,2.7234402 0 0 1 2.345407,-2.723454 2.3454019,2.7234402 0 0 1 2.3454,2.723454 z m -40.87638,-7.567695 c 0.734175,0 1.325224,0.867632 1.325224,1.945369 v 4.377122 c 0,1.077736 -0.591049,1.945368 -1.325224,1.945368 -0.734174,0 -1.325224,-0.867632 -1.325224,-1.945368 v -4.377122 c 0,-1.077737 0.59105,-1.945369 1.325224,-1.945369 z m 5.300889,5.836144 a 4.4726226,6.8088266 0 0 1 -4.472623,6.808819 4.4726226,6.8088266 0 0 1 -4.472624,-6.808819 4.4726226,6.8088266 0 0 1 4.472624,-6.808838 4.4726226,6.8088266 0 0 1 4.472623,6.808838 z m 5.663804,-4.383122 c 0.673464,-0.429112 1.450977,0.02143 1.743299,1.00994 l 1.187216,4.015197 c 0.292327,0.988617 -0.01449,2.129969 -0.687984,2.5591 -0.673471,0.429111 -1.450979,-0.02143 -1.743299,-1.009949 l -1.187223,-4.015188 c -0.292321,-0.988627 0.01449,-2.129979 0.687991,-2.5591 z m 6.445541,2.255267 a 6.7727445,4.4964503 88.191389 0 1 -2.256014,8.86003 6.7727445,4.4964503 88.191389 0 1 -5.949592,-3.631627 6.7727445,4.4964503 88.191389 0 1 2.256014,-8.860039 6.7727445,4.4964503 88.191389 0 1 5.949592,3.631636 z m 10.662007,-2.843437 c 0.542771,0.725715 0.581742,1.951416 0.08737,2.748194 l -2.00783,3.235999 c -0.494377,0.796789 -1.329339,0.853986 -1.87211,0.128318 -0.542778,-0.725726 -0.581743,-1.951416 -0.08737,-2.748195 l 2.00783,-3.236009 c 0.494376,-0.796769 1.329332,-0.853976 1.87211,-0.128317 z m 1.241855,9.554547 a 4.5429639,6.7034011 2.6044814 0 1 -6.429916,0.612635 4.5429639,6.7034011 2.6044814 0 1 -0.183326,-9.454923 4.5429639,6.7034011 2.6044814 0 1 6.429909,-0.612645 4.5429639,6.7034011 2.6044814 0 1 0.183333,9.454933 z M 13.176479,10.908475 H 78.30416 c 1.449078,0 2.615663,1.452815 2.615663,3.257441 v 28.570347 c 0,1.804632 -1.166585,3.257445 -2.615663,3.257445 H 13.176479 c -1.449082,0 -2.615666,-1.452813 -2.615666,-3.257445 V 14.165916 c 0,-1.804626 1.166584,-3.257441 2.615666,-3.257441 z M 9.3811722,5.2730192 H 85.018916 c 1.449078,0 2.615663,1.4528153 2.615663,3.2574281 V 48.008149 c 0,1.804614 -1.166585,3.257436 -2.615663,3.257436 H 9.3811722 c -1.4490756,0 -2.6156591,-1.452822 -2.6156591,-3.257436 V 8.5304473 c 0,-1.8046128 1.1665835,-3.2574281 2.6156591,-3.2574281 z" />
  </g>
  <g
     inkscape:groupmode="layer"
     id="layer2"
     inkscape:label="Layer 2">
    <path
       style="fill:#000000;fill-rule:evenodd;stroke:#000000;stroke-width:8.07812;stroke-linecap:round;stroke-linejoin:round;stroke-miterlimit:4;stroke-dasharray:none;paint-order:stroke markers fill"
       d=""
       id="path2664"
       transform="scale(0.26458333)" />
    <g
       id="g2987">
      <path
         id="path2212"
         style="fill:none;fill-rule:evenodd;stroke:#000000;stroke-width:1.08011;stroke-linecap:round;stroke-linejoin:round;stroke-miterlimit:4;stroke-dasharray:none;paint-order:stroke markers fill"
         d="m 127.51221,56.371066 h 68.43558 c 0.8405,0 1.51715,0.842672 1.51715,1.8894 v 52.115814 c 0,1.04673 -0.67665,1.8894 -1.51715,1.8894 h -68.43558 c -0.8405,0 -1.51714,-0.84267 -1.51714,-1.8894 V 58.260466 c 0,-1.046728 0.67664,-1.8894 1.51714,-1.8894 z m -5.1743,-3.79478 h 76.82838 c 0.97043,0 1.75167,0.972932 1.75167,2.181462 v 60.172092 c 0,1.20854 -0.78124,2.18147 -1.75167,2.18147 h -76.82838 c -0.97042,0 -1.75167,-0.97293 -1.75167,-2.18147 V 54.757748 c 0,-1.20853 0.78125,-2.181462 1.75167,-2.181462 z m 63.10466,-23.258304 h 0.83934 c 0.61999,0 1.11911,0.570619 1.11911,1.279431 v 1.812537 c 0,0.708803 -0.49912,1.279422 -1.11911,1.279422 h -0.83934 c -0.61999,0 -1.11912,-0.570619 -1.11912,-1.279422 v -1.812537 c 0,-0.708812 0.49913,-1.279431 1.11912,-1.279431 z m 5.33395,1.972453 a 5.1007963,6.8976852 0 0 1 -5.1008,6.897681 5.1007963,6.8976852 0 0 1 -5.1008,-6.897681 5.1007963,6.8976852 0 0 1 5.1008,-6.897699 5.1007963,6.8976852 0 0 1 5.1008,6.897699 z m -2.00885,0.266549 a 3.0453297,3.9080549 0 0 1 -3.04532,3.90806 3.0453297,3.9080549 0 0 1 -3.04533,-3.90806 3.0453297,3.9080549 0 0 1 3.04533,-3.90806 3.0453297,3.9080549 0 0 1 3.04532,3.90806 z M 177.93596,30.03448 a 4.6798893,5.9190328 0 0 1 -4.67989,5.919035 4.6798893,5.9190328 0 0 1 -4.67989,-5.919035 4.6798893,5.9190328 0 0 1 4.67989,-5.919035 4.6798893,5.9190328 0 0 1 4.67989,5.919035 z m -2.68195,0.395342 a 2.3454019,2.7234402 0 0 1 -2.3454,2.723434 2.3454019,2.7234402 0 0 1 -2.34541,-2.723434 2.3454019,2.7234402 0 0 1 2.34541,-2.723454 2.3454019,2.7234402 0 0 1 2.3454,2.723454 z m -40.87638,-7.567695 c 0.73417,0 1.32522,0.867632 1.32522,1.945369 v 4.377122 c 0,1.077736 -0.59105,1.945368 -1.32522,1.945368 -0.73418,0 -1.32523,-0.867632 -1.32523,-1.945368 v -4.377122 c 0,-1.077737 0.59105,-1.945369 1.32523,-1.945369 z m 5.30088,5.836144 a 4.4726226,6.8088266 0 0 1 -4.47262,6.808819 4.4726226,6.8088266 0 0 1 -4.47262,-6.808819 4.4726226,6.8088266 0 0 1 4.47262,-6.808838 4.4726226,6.8088266 0 0 1 4.47262,6.808838 z m 5.66381,-4.383122 c 0.67346,-0.429112 1.45098,0.02143 1.7433,1.00994 l 1.18721,4.015197 c 0.29233,0.988617 -0.0145,2.129969 -0.68798,2.5591 -0.67347,0.429111 -1.45098,-0.02143 -1.7433,-1.009949 l -1.18722,-4.015188 c -0.29232,-0.988627 0.0145,-2.129979 0.68799,-2.5591 z m 6.44554,2.255267 a 6.7727445,4.4964503 88.191389 0 1 -2.25601,8.86003 6.7727445,4.4964503 88.191389 0 1 -5.9496,-3.631627 6.7727445,4.4964503 88.191389 0 1 2.25602,-8.860039 6.7727445,4.4964503 88.191389 0 1 5.94959,3.631636 z m 10.66201,-2.843437 c 0.54277,0.725715 0.58174,1.951416 0.0874,2.748194 l -2.00783,3.235999 c -0.49438,0.796789 -1.32934,0.853986 -1.87211,0.128318 -0.54278,-0.725726 -0.58175,-1.951416 -0.0874,-2.748195 l 2.00783,-3.236009 c 0.49437,-0.796769 1.32933,-0.853976 1.87211,-0.128317 z m 1.24185,9.554547 a 4.5429639,6.7034011 2.6044814 0 1 -6.42991,0.612635 4.5429639,6.7034011 2.6044814 0 1 -0.18333,-9.454923 4.5429639,6.7034011 2.6044814 0 1 6.42991,-0.612645 4.5429639,6.7034011 2.6044814 0 1 0.18333,9.454933 z M 126.60584,12.400967 h 65.12768 c 1.44908,0 2.61566,1.452815 2.61566,3.257441 v 28.570347 c 0,1.804632 -1.16658,3.257445 -2.61566,3.257445 h -65.12768 c -1.44908,0 -2.61567,-1.452813 -2.61567,-3.257445 V 15.658408 c 0,-1.804626 1.16659,-3.257441 2.61567,-3.257441 z m -3.79531,-5.6354562 h 75.63774 c 1.44908,0 2.61567,1.4528153 2.61567,3.2574282 v 39.477702 c 0,1.804614 -1.16659,3.257436 -2.61567,3.257436 h -75.63774 c -1.44907,0 -2.61566,-1.452822 -2.61566,-3.257436 V 10.022939 c 0,-1.8046129 1.16659,-3.2574282 2.61566,-3.2574282 z" />
      <path
         style="fill:#000000;fill-rule:evenodd;stroke:#000000;stroke-width:13.1864;stroke-linecap:round;stroke-linejoin:round;stroke-miterlimit:4;stroke-dasharray:none;paint-order:stroke markers fill"
         d="m 459.6785,438.22843 c -0.36988,-0.96953 -0.50862,-54.43481 -0.3083,-118.81173 l 0.36421,-117.04895 147.28157,-0.35912 c 116.89341,-0.28502 147.51335,0.006 148.40492,1.41023 0.61785,0.97314 1.13309,53.8385 1.14496,117.47858 0.0165,88.1401 -0.3816,116.11242 -1.67068,117.4015 -2.52071,2.52071 -294.25471,2.45103 -295.21668,-0.0705 z m 286.935,-14.64503 c 2.89523,-3.68068 2.92281,-4.6703 2.92281,-104.87182 0,-100.20151 -0.0276,-101.19113 -2.92281,-104.87182 l -2.92281,-3.71575 -132.10654,0.0216 c -72.6586,0.0119 -132.8048,0.48783 -133.65821,1.05767 -4.62408,3.08758 -4.79436,6.92108 -4.79436,107.93054 0,99.77435 0.0278,100.76924 2.92281,104.44959 l 2.92281,3.71576 h 132.35675 132.35674 z"
         id="path2288"
         transform="scale(0.26458333)" />
      <path
         style="fill:#000000;fill-rule:evenodd;stroke:#000000;stroke-width:13.1864;stroke-linecap:round;stroke-linejoin:round;stroke-miterlimit:4;stroke-dasharray:none;paint-order:stroke markers fill"
         d="m 605.06703,194.96408 c -113.98559,-0.28729 -145.41398,-0.74317 -146.28958,-2.12202 -0.61336,-0.96587 -1.12491,-37.35418 -1.13679,-80.8629 -0.0204,-74.861814 0.1168,-79.232015 2.55735,-81.440685 2.36443,-2.13978 14.60413,-2.33391 147.15028,-2.33391 138.26739,0 144.67311,0.112453 146.90525,2.578942 2.11297,2.334801 2.33391,10.019951 2.33391,81.180833 0,77.73837 -0.37811,84.5705 -4.63285,83.71153 -0.94224,-0.19023 -67.04166,-0.51053 -146.88757,-0.71179 z m 128.1263,-17.38353 3.65093,-4.33888 V 112.7887 52.335724 l -3.40318,-3.956767 -3.40316,-3.956767 -124.57505,-0.408775 c -68.51627,-0.224827 -126.66776,-0.03174 -129.22554,0.429076 -3.21428,0.579098 -5.49915,2.229676 -7.39843,5.344575 -2.60883,4.2786 -2.74819,7.517184 -2.75319,63.980664 l -0.005,59.47394 3.65093,4.33888 3.65093,4.33889 h 128.08005 128.08004 z"
         id="path2327"
         transform="scale(0.26458333)" />
      <path
         style="fill:#000000;fill-rule:evenodd;stroke:#000000;stroke-width:13.1864;stroke-linecap:round;stroke-linejoin:round;stroke-miterlimit:4;stroke-dasharray:none;paint-order:stroke markers fill"
         d="m 601.46235,107.90365 c 0,-4.2073 8.1713,-17.994765 9.99633,-16.866836 2.39405,1.479601 1.30249,6.054183 -3.15599,13.226376 -4.91164,7.90117 -6.84034,8.92764 -6.84034,3.64046 z"
         id="path2366"
         transform="scale(0.26458333)" />
      <path
         style="fill:#000000;stroke-width:0.161825"
         d="m 172.88423,104.59233 c -0.74667,-0.56991 -1.44145,-2.25719 -1.7469,-4.24235 -0.0502,-0.32619 -0.0854,-0.30848 -0.4571,0.22963 -0.52304,0.75726 -1.41734,1.32554 -2.08602,1.32554 -1.02799,0 -2.11456,-1.01137 -2.583,-2.404241 -0.35736,-1.06254 -0.31605,-1.0418 -1.10774,-0.5562 -0.49325,0.30256 -1.00212,0.47164 -1.56529,0.52009 -1.1406,0.0981 -1.67152,-0.0286 -2.49291,-0.595 l -0.70095,-0.48335 -0.32889,1.0878 c -1.10043,3.639641 -3.92375,5.028721 -6.20332,3.052061 -1.41748,-1.22912 -2.24408,-3.512771 -2.24408,-6.199671 v -1.63182 h -0.44984 c -0.52102,0 -0.98836,-0.31076 -1.13111,-0.75213 -0.27987,-0.86538 1.08679,-2.70627 3.0052,-4.04801 1.16906,-0.81764 1.19444,-0.85013 0.90797,-1.16231 -0.44784,-0.48801 -0.36756,-1.43033 0.19392,-2.27604 0.57609,-0.86774 2.27985,-2.18656 3.53194,-2.73395 0.48838,-0.21352 0.92357,-0.40937 0.96709,-0.43523 0.0436,-0.0259 -0.10744,-0.17971 -0.33549,-0.34187 -2.23037,-1.586 0.48056,-5.24901 5.24259,-7.08382 l 1.09892,-0.42341 -0.85654,-0.283 -0.85654,-0.283 -0.56604,0.30764 c -1.76415,0.95881 -3.38072,0.45341 -4.55672,-1.4246 l -0.53505,-0.85444 -0.23509,1.24296 c -0.44539,2.35484 -1.51987,4.00985 -2.60329,4.00985 -1.19644,0 -2.20077,-1.60206 -2.74426,-4.37753 l -0.12356,-0.63099 -0.44726,0.67173 c -0.45646,0.68553 -1.34085,1.2254 -2.00742,1.2254 -1.09638,0 -2.23552,-1.16487 -2.70499,-2.76607 l -0.2231,-0.76091 -0.70771,0.48802 c -0.82811,0.57104 -1.35715,0.69795 -2.49968,0.59966 -0.56316,-0.0485 -1.07203,-0.21753 -1.56529,-0.52008 -0.49568,-0.30405 -0.75199,-0.38892 -0.79653,-0.26376 -0.0361,0.1015 -0.24844,0.69351 -0.47183,1.31557 -1.53676,4.27939 -5.39737,4.64138 -7.34652,0.68885 -2.00872,-4.07334 -0.751,-10.44801 2.32145,-11.76604 0.92097,-0.39508 1.55826,-0.3836 2.5172,0.0453 1.18633,0.53066 1.80808,1.36298 2.79237,3.73803 0.0592,0.14276 0.2517,0.0667 0.67905,-0.2683 1.49387,-1.17102 3.43125,-1.11332 4.81349,0.14334 l 0.58094,0.52815 0.42061,-0.79605 c 0.52589,-0.99533 1.3228,-1.57363 2.16849,-1.57363 0.85769,0 1.5467,0.45976 2.15128,1.43551 l 0.50948,0.82228 0.22555,-0.87506 c 0.48374,-1.87671 1.4795,-3.22066 2.38628,-3.22066 0.9982,0 1.93375,1.16815 2.43438,3.03965 0.351,1.31217 0.36576,1.32081 0.81493,0.47727 0.78564,-1.47542 1.84842,-2.24504 3.09875,-2.24398 1.68311,0.002 2.81266,1.1706 3.79999,3.9333 0.0498,0.13942 0.1918,0.11232 0.55548,-0.10603 0.28093,-0.16867 0.76132,-0.29332 1.13039,-0.29332 0.83747,0 1.77692,0.6991 2.0993,1.56222 0.12925,0.34604 0.28694,0.67634 0.35041,0.73401 0.0635,0.0577 0.77876,10e-4 1.58952,-0.12561 1.88036,-0.29397 6.26016,-0.33046 7.67923,-0.064 1.64979,0.30981 2.92068,0.82906 3.43034,1.40154 1.7167,1.92828 -1.75762,4.13022 -8.07578,5.11825 -0.93148,0.14566 -1.73273,0.29471 -1.78057,0.33122 -0.0478,0.0365 0.003,0.1949 0.11326,0.35196 0.11013,0.15707 0.20023,0.59931 0.20023,0.98277 0,1.99777 -3.20056,4.6496 -7.1656,5.93709 -0.52827,0.17154 -1.08299,0.31188 -1.23272,0.31188 -0.2198,0 -0.25325,0.15993 -0.17364,0.83008 0.0885,0.74518 0.0359,0.91989 -0.51448,1.70807 -0.70057,1.00324 -2.26619,2.15992 -3.73816,2.76175 -0.53617,0.21922 -1.00992,0.4209 -1.05277,0.44817 -0.0429,0.0273 0.0895,0.19248 0.29418,0.36713 0.62763,0.53563 1.1132,1.26095 1.55678,2.32547 l 0.42431,1.01827 0.71697,-0.49441 c 0.81918,-0.56488 1.40041,-0.76454 2.22562,-0.76454 0.84595,0 2.12769,0.52564 2.61415,1.07206 l 0.42405,0.47632 0.42285,-0.77871 c 0.58503,-1.07733 1.32749,-1.61795 2.22202,-1.61795 0.88261,0 1.5335,0.43772 2.14232,1.44071 0.25655,0.42265 0.48197,0.64905 0.52914,0.53144 0.0452,-0.1127 0.21485,-0.64203 0.37699,-1.17628 0.39395,-1.29813 0.99771,-2.18595 1.66583,-2.44967 0.48747,-0.1924 0.60655,-0.19221 1.13956,0.002 0.76935,0.28003 1.34153,1.17296 1.87395,2.92444 0.22456,0.7387 0.41438,1.24766 0.42181,1.13103 0.0304,-0.47655 1.1114,-1.94118 1.74731,-2.36734 0.79645,-0.53375 1.35652,-0.66796 2.25226,-0.53969 1.23801,0.17727 2.51559,1.55896 3.04716,3.29547 l 0.2271,0.74189 0.5196,-0.28241 c 0.2858,-0.15533 0.81291,-0.2824 1.17137,-0.2824 2.27232,0 3.35253,3.97856 1.67865,6.18273 -0.51505,0.678221 -0.91685,0.886221 -1.71197,0.886221 -0.81232,0 -1.10899,-0.12301 -1.58432,-0.65694 l -0.42726,-0.479921 -0.31443,0.628391 c -0.92072,1.84016 -2.68586,2.6575 -4.33416,2.0069 -0.64815,-0.25582 -1.60221,-1.24014 -1.96798,-2.03038 l -0.24457,-0.528391 -0.13367,0.706891 c -0.55341,2.92674 -1.55548,4.59482 -2.76023,4.59482 -0.26084,0 -0.69538,-0.18176 -1.01164,-0.42316 z"
         id="path3708" />
      <path
         style="fill:#000000;fill-rule:evenodd;stroke:#000000;stroke-width:8.07812;stroke-linecap:round;stroke-linejoin:round;stroke-miterlimit:4;stroke-dasharray:none;paint-order:stroke markers fill"
         d="m 648.30388,131.07922 c -5.96873,-4.02233 -9.07815,-11.37925 -8.33027,-19.70951 1.01731,-11.33136 9.59493,-19.584654 17.88365,-17.207478 11.02843,3.16291 15.75719,21.150078 8.42188,32.034938 -4.53768,6.73348 -12.15712,8.8029 -17.97526,4.88205 z m 12.75773,-6.98381 c 6.3815,-6.96342 3.81963,-18.88633 -4.55495,-21.19866 -7.37564,-2.03652 -14.18256,3.72098 -14.18256,11.99605 0,11.23653 11.63622,16.95146 18.73751,9.20261 z"
         id="path2703"
         transform="scale(0.26458333)" />
      <path
         style="fill:#000000;fill-rule:evenodd;stroke:#000000;stroke-width:8.07812;stroke-linecap:round;stroke-linejoin:round;stroke-miterlimit:4;stroke-dasharray:none;paint-order:stroke markers fill"
         d="m 696.31907,140.32419 c -4.16682,-2.16712 -6.15139,-4.48371 -8.6932,-10.14762 -4.34571,-9.68353 -2.85987,-22.28638 3.50404,-29.72117 3.68652,-4.306876 7.09807,-5.774626 12.10931,-5.209786 8.19711,0.923932 14.17247,9.284816 14.91602,20.870886 0.51838,8.07758 -1.28622,14.45331 -5.4765,19.34872 -5.24607,6.12885 -10.76584,7.76827 -16.35967,4.85897 z m 10.62591,-5.03871 c 9.85089,-5.12542 11.92925,-20.80784 3.87239,-29.2194 -8.79029,-9.177278 -22.62738,-1.26865 -22.68657,12.96657 -0.0507,12.19124 9.97487,20.85192 18.81418,16.25283 z"
         id="path2742"
         transform="scale(0.26458333)" />
      <path
         style="fill:#000000;fill-rule:evenodd;stroke:#000000;stroke-width:4.64062;stroke-linecap:round;stroke-linejoin:round;stroke-miterlimit:4;stroke-dasharray:none;paint-order:stroke markers fill"
         d="m 554.76056,118.26986 c -0.56077,-0.56077 -2.03675,-4.60871 -3.5833,-9.82738 -2.78625,-9.401893 -3.00066,-11.752695 -1.24849,-13.688819 2.12133,-2.344043 2.95754,-1.027704 6.18111,9.730179 2.8026,9.35299 2.92855,11.41521 0.82562,13.51814 -1.20473,1.20473 -1.23443,1.20839 -2.17494,0.26788 z"
         id="path2820"
         transform="scale(0.26458333)" />
      <path
         style="fill:#000000;fill-rule:evenodd;stroke:#000000;stroke-width:4.64062;stroke-linecap:round;stroke-linejoin:round;stroke-miterlimit:4;stroke-dasharray:none;paint-order:stroke markers fill"
         d="m 506.10739,113.79726 c -0.77213,-1.17843 -0.87995,-2.62534 -0.87995,-11.80881 0,-9.183476 0.10782,-10.630387 0.87995,-11.808816 1.16093,-1.771793 2.62063,-1.72227 3.57395,0.121254 1.10604,2.138852 1.10604,21.236262 0,23.375122 -0.95332,1.84352 -2.41302,1.89304 -3.57395,0.12125 z"
         id="path2859"
         transform="scale(0.26458333)" />
    </g>
  </g>
</svg>
