<?xml version="1.0" encoding="UTF-8" standalone="no"?>
<!-- Created with Inkscape (http://www.inkscape.org/) -->

<svg
   width="210mm"
   height="297mm"
   viewBox="0 0 210 297"
   version="1.1"
   id="svg5"
   inkscape:version="1.1.2 (0a00cf5339, 2022-02-04, custom)"
   sodipodi:docname="drum pad controller icon.svg"
   xmlns:inkscape="http://www.inkscape.org/namespaces/inkscape"
   xmlns:sodipodi="http://sodipodi.sourceforge.net/DTD/sodipodi-0.dtd"
   xmlns="http://www.w3.org/2000/svg"
   xmlns:svg="http://www.w3.org/2000/svg">
  <sodipodi:namedview
     id="namedview7"
     pagecolor="#ffffff"
     bordercolor="#666666"
     borderopacity="1.0"
     inkscape:pageshadow="2"
     inkscape:pageopacity="0.0"
     inkscape:pagecheckerboard="0"
     inkscape:document-units="mm"
     showgrid="false"
     inkscape:zoom="0.8117387"
     inkscape:cx="317.22031"
     inkscape:cy="243.3049"
     inkscape:window-width="1680"
     inkscape:window-height="956"
     inkscape:window-x="-11"
     inkscape:window-y="-11"
     inkscape:window-maximized="1"
     inkscape:current-layer="layer1"
     showguides="true"
     inkscape:guide-bbox="true" />
  <defs
     id="defs2">
    <inkscape:path-effect
       effect="rough_hatches"
       id="path-effect2461"
       is_visible="true"
       lpeversion="1"
       direction="69.99843,260.92094 , 8.1437712,0"
       dist_rdm="6;1"
       growth="0"
       do_bend="true"
       bender="69.99843,265.92094 , 5,0"
       bottom_edge_variation="1.4602372;1"
       top_edge_variation="1.4602372;1"
       bottom_tgt_variation="0;1"
       top_tgt_variation="0;1"
       scale_bf="1"
       scale_bb="1"
       scale_tf="1"
       scale_tb="1"
       top_smth_variation="0;1"
       bottom_smth_variation="0;1"
       fat_output="true"
       stroke_width_top="1"
       stroke_width_bottom="1"
       front_thickness="1"
       back_thickness="0.25" />
    <inkscape:path-effect
       effect="skeletal"
       id="path-effect1945"
       is_visible="true"
       lpeversion="1"
       pattern="m 33.860958,87.614548 h 14.800324 c 5.651367,0 10.201025,4.549657 10.201025,10.201025 v 12.157417 c 0,5.65137 -4.549658,10.20103 -10.201025,10.20103 H 33.860958 c -5.651368,0 -10.201025,-4.54966 -10.201025,-10.20103 V 97.815573 c 0,-5.651368 4.549657,-10.201025 10.201025,-10.201025 z"
       copytype="repeated"
       prop_scale="1.28"
       scale_y_rel="false"
       spacing="2.6"
       normal_offset="0"
       tang_offset="0"
       prop_units="false"
       vertical_pattern="false"
       hide_knot="false"
       fuse_tolerance="0" />
    <inkscape:path-effect
       effect="skeletal"
       id="path-effect1762"
       is_visible="true"
       lpeversion="1"
       pattern="#rect1629"
       copytype="repeated"
       prop_scale="1"
       scale_y_rel="false"
       spacing="0"
       normal_offset="0"
       tang_offset="0"
       prop_units="false"
       vertical_pattern="false"
       hide_knot="false"
       fuse_tolerance="0" />
    <clipPath
       clipPathUnits="userSpaceOnUse"
       id="clipPath10189">
      <path
         id="path10191"
         style="fill:#000000;fill-opacity:1;stroke:#000000;stroke-width:5.25354;stroke-linecap:round;stroke-linejoin:round;stroke-miterlimit:4;stroke-dasharray:none;stroke-opacity:0.955017;paint-order:stroke markers fill"
         d="M 263.71635,-5.1124601 V 194.87783 H 464.17338 V -5.1124601 Z M 362.5894,123.96173 c 0.93678,0 1.87304,0.9266 1.87304,2.7813 v 7.6348 c 0.0304,1.638 -0.47071,2.9636 -1.87109,3.6171 -0.34897,0.1626 -0.76823,0.056 -1.15234,0.082 -0.46515,-0.2762 -0.92939,-0.5519 -1.39453,-0.8282 -3.18957,-1.894 6.29661,-0.4487 3.02929,-2.205 -0.43392,-0.2333 -0.86686,-0.4661 -1.30078,-0.6993 -0.16551,0.047 -0.36123,0.038 -0.49805,0.1426 -1.4e-4,1e-4 -0.30097,0.3441 -0.55078,0.6055 -0.002,0.043 -0.004,0.086 -0.008,0.1289 -0.004,0.038 -0.0255,-0.014 -0.043,-0.074 -0.27922,0.2868 -0.45685,0.4198 0.0254,-0.2774 0.0349,-0.051 -0.0497,0.1146 -0.0469,0.1758 0.001,0.024 0.0106,0.064 0.0215,0.1016 0.0171,-0.018 0.033,-0.036 0.0508,-0.055 0.0106,-0.2376 -0.008,-0.4767 -0.008,-0.7148 v -7.6348 c 0,-1.8547 0.93627,-2.7813 1.87305,-2.7813 z" />
    </clipPath>
    <clipPath
       clipPathUnits="userSpaceOnUse"
       id="clipPath11295">
      <path
         id="path11297"
         style="fill:#000000;fill-opacity:1;stroke:#000000;stroke-width:1.39;stroke-linecap:round;stroke-linejoin:round;stroke-miterlimit:4;stroke-dasharray:none;stroke-opacity:0.955017;paint-order:stroke markers fill"
         d="m 78.358008,246.787 -74.8713992,5.3e-4 v 47.66118 H 78.358008 v -19.60708 c -0.07806,0.11744 -0.186344,0.21351 -0.33228,0.28162 -0.02307,0.0109 -0.04738,0.0172 -0.07235,0.0206 0.109741,0.20087 0.102113,0.47617 0.117305,0.67074 -0.01471,0.32163 -0.06313,0.63669 -0.04702,0.95808 0.005,0.0994 0.0051,0.19868 0.0031,0.29819 -0.01169,0.59185 -0.380132,0.81857 -0.664559,0.68987 -0.119896,0.21149 -0.212061,0.37659 -0.411345,0.56484 -0.0382,0.036 -0.07763,0.0714 -0.117822,0.10591 -0.01857,0.18859 -0.07182,0.37243 -0.107486,0.55864 -0.09928,0.42571 -0.511911,0.61595 -0.71727,0.96893 -0.03292,0.0566 -0.03943,0.13764 -0.03514,0.21548 -0.124529,-0.28636 -0.459931,0.9126 -0.734841,0.79272 -0.05141,0.0668 -0.114424,0.11268 -0.182417,0.14004 -0.03255,0.0292 -0.06754,0.0525 -0.10387,0.0713 v 1.06659 c 0.01243,0.0145 0.02482,0.0293 0.03721,0.0439 0.196702,0.2326 0.12817,0.3085 -0.03772,0.32504 -0.0057,0.9729 -0.991153,0.9571 -0.991153,-0.008 v 0.0868 0.5979 c 0,0.81474 -0.683038,0.95242 -0.915191,0.41445 -0.218294,0.1103 -0.488617,0.007 -0.608748,-0.3111 -0.05978,-0.0865 -0.103727,-0.18299 -0.12609,-0.29094 -0.04531,-0.24098 0.0387,0.19135 -0.06976,-0.26355 -0.05882,-0.24683 -0.07806,-0.47813 -0.0646,-0.72966 v -1.04077 c 0,-0.2123 0.04617,-0.37878 0.118854,-0.49919 -0.15974,-0.42889 0.03967,-0.72289 0.33383,-0.72088 0.04738,0 0.09724,0.008 0.148312,0.0249 -0.0019,-0.0148 -0.0045,-0.029 -0.0062,-0.0439 -0.05528,-0.4876 0.161829,-0.73089 0.408244,-0.7307 0.08466,5e-5 0.172603,0.0293 0.254248,0.0868 0.03517,-0.1818 0.114078,-0.3565 0.165881,-0.53176 0.113043,-0.38227 0.337222,-0.54684 0.542602,-0.54518 0.02679,0 0.05324,0.003 0.07907,0.009 0.028,-0.1211 0.06342,-0.24011 0.110587,-0.35708 0.133017,-0.32975 0.314418,-0.45849 0.552937,-0.65111 0.02495,-0.15523 0.0548,-0.31022 0.09302,-0.46352 0.08706,-0.35007 0.269758,-0.52843 0.454234,-0.56743 0.07619,-0.21209 0.156832,-0.42746 0.238747,-0.64286 -0.0034,-0.0566 -0.01029,-0.10954 -0.02066,-0.15658 -0.0044,-0.0153 -0.0083,-0.0311 -0.01241,-0.0465 -0.02252,-0.0671 -0.05828,-0.12996 -0.0708,-0.19949 -0.0177,-0.0984 -0.02432,-0.18545 -0.02379,-0.26665 -0.01619,-0.10356 -0.03074,-0.20709 -0.04599,-0.31004 -0.17508,-1.18282 -0.25512,-2.45044 -0.34675,-3.64786 -0.0068,-0.0891 -0.0021,-0.1683 0.0072,-0.24236 -0.02188,0.0214 -0.04289,0.0416 -0.0677,0.0662 -0.04777,0.0674 -0.103013,0.12985 -0.143142,0.20206 -0.03715,0.0668 -0.03916,0.15311 -0.08733,0.21238 -0.172207,0.21222 -0.376587,0.39563 -0.565857,0.59275 -0.153434,0.15978 -0.577416,-0.31753 -0.668176,0.018 -0.270962,0.013 -0.921057,0.0469 -1.178224,0.0439 -0.521094,-0.006 -1.02625,-0.10337 -1.340485,-0.55602 -0.143092,-0.0598 -0.198622,-0.12721 -0.240813,-0.21238 -0.05077,0.24974 -0.138245,0.57102 -0.291454,0.60925 -0.07679,0.019 -0.154652,0.0206 -0.233061,0.014 0.192577,0.12282 0.287451,0.42717 0.106452,0.84233 -0.05822,0.13354 -0.107513,0.27006 -0.153479,0.40825 -0.09015,0.62553 -0.307848,1.22566 -0.460436,1.83812 -0.0083,0.0331 -0.0098,0.0697 -0.01085,0.10594 0.0035,0.0182 0.0064,0.0362 0.01035,0.0558 0.0011,0.005 -0.0063,0.005 -0.01291,0.005 -0.0036,0.0467 -0.01296,0.0906 -0.04341,0.12403 -0.02929,0.0322 -0.0011,-0.0444 0.01344,-0.11678 -0.06402,0.0188 -0.127257,0.0443 -0.190688,0.0687 -0.0011,0.32438 -0.0016,0.43725 -0.0021,0.801 -2.64e-4,0.003 -7.93e-4,0.005 -0.0011,0.007 0.01368,0.16936 0.0213,0.0106 0.04754,0.34727 0.0084,0.10705 0.0077,0.21455 0.01138,0.32192 -0.05131,0.55882 -0.01895,0.36454 -0.135909,0.94001 -0.07733,0.38047 -0.162983,0.90879 -0.371554,1.24695 -0.08457,0.13716 -0.219986,0.23908 -0.352433,0.33073 -0.07105,0.0492 -0.163613,0.0559 -0.245462,0.0837 -0.117949,-0.003 0.03627,-0.004 -0.199988,0.0439 -0.08334,0.0169 -0.167222,0.0347 -0.252182,0.0377 -0.121495,0.005 -0.242047,1.5e-4 -0.361218,-0.013 -0.03336,0.19579 -0.175188,0.2672 -0.338997,0.28578 0.293873,0.31874 0.05217,0.82952 -0.656291,0.74983 -0.0199,-0.003 -0.03998,-0.006 -0.05994,-0.007 -0.03717,-0.003 -0.09198,0.0386 -0.111622,-0.005 -0.01617,-0.0262 0.105195,-0.0403 0.07648,-0.0512 -0.143997,-0.0544 -0.255199,-0.0874 -0.344165,-0.108 -0.174985,0.18169 -0.415975,0.38708 -0.558104,0.49816 0.214461,0.21534 0.139608,0.60335 -0.330729,0.79943 -0.043,0.18122 -0.05931,0.19336 -0.151413,0.3478 0.0089,-0.0111 0.03557,-0.0449 0.02687,-0.0336 -0.102325,0.13335 -0.175956,0.23304 -0.253733,0.31213 -0.0029,0.32247 -0.117912,0.53403 -0.2682,0.63563 -0.0063,0.0715 -0.02527,0.13946 -0.06563,0.19532 -0.08938,0.12369 -0.283808,0.11104 -0.425813,0.16692 -0.198794,-0.0693 -0.403005,-0.15579 -0.617016,-0.16899 -0.04518,-0.003 -0.09063,0.01 -0.135393,0.005 -0.253359,-0.0381 -0.366858,-0.0923 -0.604615,-0.17827 -0.207931,-0.0495 -0.219874,-0.0676 -0.420645,-0.0636 -0.04521,0 -0.09026,0.007 -0.134877,0.0146 -0.01622,0.003 -0.0594,0.0301 -0.04702,0.0164 0.07899,-0.0695 0.16596,-0.12925 0.249079,-0.19379 0.588549,-0.45685 -1.250151,0.17307 -0.684713,-0.31212 0.08822,-0.0757 0.165434,-0.16667 0.264584,-0.22739 0.04647,-0.0288 0.106087,-0.0275 0.160197,-0.0336 0.01291,-0.003 0.02585,-0.003 0.03876,-0.004 -0.0298,-0.0302 -0.0566,-0.0623 -0.07855,-0.0987 -0.04425,-0.0735 -0.01368,-0.17407 0.01241,-0.2558 0.1016,-0.31851 0.400267,-0.45045 0.637686,-0.64802 0.16107,-0.13406 0.293015,-0.19238 0.390673,-0.19225 0.06697,1.6e-4 0.117644,0.028 0.150897,0.077 -0.0033,-0.0522 -0.0047,-0.0991 -0.01394,-0.17105 -0.01085,-0.0527 -0.02302,-0.10898 -0.0341,-0.16486 -0.09856,0.0856 -0.259086,0.19767 -0.411345,0.15864 -0.231879,-0.0594 -0.386324,-0.29945 -0.512631,-0.50281 -0.03727,-0.06 -0.01664,-0.17926 0.02791,-0.31316 -0.0016,-0.10705 0.03963,-0.21265 0.121957,-0.29713 0.06036,-0.12949 0.119176,-0.24109 0.143658,-0.2894 0.159464,-0.31462 0.37057,-0.45016 0.555006,-0.45474 0.239567,-0.006 0.434411,0.20968 0.414962,0.5457 0.144293,-0.0198 0.289031,-0.0397 0.433049,-0.0341 0.02699,-0.0403 0.05144,-0.065 0.07183,-0.0646 0.0276,0 0.04901,0.0394 0.06718,0.0956 0.04772,0.0172 0.09607,0.033 0.144693,0.0486 0.0044,-0.0106 0.0093,-0.0183 0.01497,-0.0196 0.02379,-0.006 0.04785,-0.0119 0.07183,-0.0161 -0.0059,-0.0454 -0.0098,-0.0929 -0.0098,-0.1447 v -1.70998 c 0,-0.0352 -0.03201,-0.10065 -0.0052,-0.11007 -0.0104,-0.14925 0.201064,-0.0607 0.994769,0 -0.0019,-0.0288 -0.0041,-0.0615 -0.0067,-0.10334 -0.01191,-0.0259 -0.05212,-0.0918 -0.04651,-0.0925 7.93e-4,-1.1e-4 0.0028,0 0.0057,0.004 0.06287,0.0632 0.123926,0.12891 0.183452,0.19691 -0.0024,-0.0135 -0.006,-0.0238 -0.0083,-0.0377 -0.04455,-0.26729 -0.08242,-0.80598 0.175183,-1.0449 -0.02357,-0.28336 -0.009,-0.56787 -5.29e-4,-0.74207 0.006,-0.0645 0.01124,-0.12938 0.01757,-0.19378 -0.06118,-0.0473 -0.122933,-0.0934 -0.187068,-0.13386 0.04811,-0.15015 0.05912,-0.31681 0.144176,-0.44958 0.127553,-0.1991 0.288663,-0.26596 0.461471,-0.24444 0.04255,-0.0465 0.0844,-0.0931 0.124539,-0.14158 0.360942,-0.43627 0.701479,-0.89173 1.01441,-1.36531 -0.0028,-0.20706 -0.0011,-0.41502 0.0016,-0.62216 -0.02527,-0.1328 -0.09834,-0.29901 0.0052,-0.35399 1.27e-4,-0.007 -2.65e-4,-0.0116 5.29e-4,-0.0169 0.01056,-0.30938 -0.0029,-0.45879 0.528651,-0.22117 0.04815,-0.019 0.09194,-0.0356 0.130741,-0.0486 -0.0016,-0.009 -5.29e-4,-0.0188 -0.0016,-0.0284 -0.04909,-0.10335 -0.346475,-0.0777 0.03514,-0.31679 -0.175662,-0.0852 -0.311502,-0.31633 -0.29559,-0.69659 0.004,-0.0963 0.0052,-0.19397 0.0052,-0.293 -0.172429,-0.34036 -0.207489,-0.99994 -0.226861,-1.15343 -0.04816,-0.74946 -0.02291,-1.50069 0.01241,-2.24999 0.0058,-0.12247 0.01281,-0.24408 0.01757,-0.36586 -0.100071,0.0323 -0.201263,0.0563 -0.305922,0.0599 -0.06417,0.003 -0.03398,-0.12427 -0.04496,-0.18756 -0.02387,-0.1375 -0.04609,-0.27556 -0.05943,-0.41444 -0.03431,-0.35729 -0.06178,-0.74205 -0.0047,-1.10382 -0.08879,-0.0246 -0.122145,-0.11279 -0.141595,-0.21291 l -5.29e-4,-5.3e-4 c -0.0802,-0.062 -0.0642,-0.17218 -0.03979,-0.28629 -0.01466,-0.0585 -0.03354,-0.11585 -0.05374,-0.17312 -0.01418,-0.008 -0.02914,-0.0172 -0.04496,-0.0279 -0.01685,-0.0114 -0.03363,-0.0229 -0.05013,-0.0346 -0.04757,0.15569 -0.09321,0.31214 -0.15503,0.4625 -0.167872,0.40835 -0.356076,0.50778 -0.8754,0.0202 -0.003,-0.003 -0.0051,-0.009 -0.0067,-0.016 -0.114277,0.0138 -0.07359,-0.0122 -0.0026,-0.0646 0.0077,-0.19728 0.100311,-0.67816 0.116787,-0.77463 0.151349,-0.34842 0.02178,-0.10881 0.280088,-0.34468 -0.188466,-0.21069 -0.389824,-0.42108 -0.533302,-0.66456 -0.06651,-0.11286 -0.105646,-0.23985 -0.158647,-0.35967 -0.09194,-0.20779 -0.09012,-0.37633 -0.03514,-0.49144 -0.09861,-0.11358 -0.176215,-0.25656 -0.211873,-0.33744 -0.0559,-0.12681 -0.102621,-0.2574 -0.143144,-0.38913 -0.03488,-0.001 -0.06951,-0.003 -0.102836,-0.0124 -0.003,-7.9e-4 -0.0058,-0.002 -0.0088,-0.003 -0.0217,-2.6e-4 -0.03652,-0.006 -0.04806,-0.016 -0.154398,-0.0564 -0.291063,-0.15339 -0.401526,-0.27544 -0.111835,0.0173 -0.264116,0.0133 -0.472324,-0.015 -0.07061,-0.01 -0.07142,-0.11152 -0.07441,-0.19637 -0.152165,0.005 -0.242454,0.005 -0.296106,-0.0124 -0.02479,-8e-4 -0.0478,-0.002 -0.07441,-0.003 -0.03627,-0.001 -0.0024,-0.0701 0,-0.10852 -0.0047,-0.0546 1.38e-4,-0.1316 5.29e-4,-0.23926 -2e-6,-0.12078 -5e-6,-0.24151 0,-0.36225 -0.0024,-0.003 -0.0044,-0.007 -0.0067,-0.01 -0.0491,0.011 -0.100436,0.0173 -0.157097,0.0155 -0.03128,-0.0194 -0.0673,-0.0345 -0.104388,-0.0491 -0.0467,0.0145 -0.09176,0.0331 -0.137975,0.0491 -0.336939,0.15598 -0.311859,0.19813 -0.821656,-0.21394 -0.0011,-8e-4 -0.0016,-0.002 -0.0026,-0.003 -0.04965,0.0406 -0.104793,0.0826 -0.1695,0.13074 -0.05897,0.0438 -0.107119,0.13262 -0.18035,0.12661 -0.243936,-0.0202 -0.522626,-0.0389 -0.706933,-0.19999 -0.08698,-0.076 0.06509,-0.22146 0.09767,-0.33228 0.254196,-0.273 0.523626,-0.52978 0.787032,-0.79323 -0.06721,-0.0731 -0.121777,-0.15609 -0.146762,-0.26097 -0.02204,-0.0924 -0.0048,-0.18983 -0.0072,-0.28473 0.0065,-0.0157 0.01019,-0.0246 0.0155,-0.0372 -0.102298,10e-4 -0.210828,-0.0228 -0.319878,-0.06 -0.01553,0.0136 -0.031,0.0273 -0.04651,0.0408 -0.488225,0.42682 -0.925901,0.0523 -0.661458,-0.37517 -0.105646,-0.0751 -0.21113,-0.15012 -0.316775,-0.22531 0.06774,0.0112 0.228028,0.0976 0.203086,0.0336 -0.07829,-0.2008 -0.378362,-0.30005 -0.390673,-0.51522 -0.0029,-0.0511 0.0072,-0.0932 0.02739,-0.12764 h -0.152964 c -0.745072,0 -0.745072,-0.75241 0,-0.75241 h 0.269751 0.03772 c 0.01175,-0.0477 0.09814,0 0.147278,0 h 0.471807 0.01291 c 0.09721,0 0.194506,-0.007 0.291457,0 h 0.711068 c 0.05801,0 0.136562,-0.0353 0.19327,-0.0331 0.02577,0.001 0.04737,0.01 0.05994,0.0331 h 0.109037 c 0.06265,-0.10691 0.142894,-0.19219 0.315743,-0.16071 0.0118,0.002 0.02344,0.004 0.03462,0.007 0.02413,-0.0524 0.05841,-0.12211 0.125055,-0.26355 0.145664,-0.14141 0.220253,-0.24484 0.318844,-0.24185 0.09859,0.003 0.221491,0.11286 0.464572,0.39791 0.06348,0.0744 -0.02305,0.19416 -0.03359,0.29146 -0.01762,0.16259 -0.02863,0.32343 -0.03617,0.48472 0.0026,-2.6e-4 0.0052,-5.3e-4 0.0078,-5.3e-4 0.05125,-0.002 0.102751,0.0271 0.212905,0.0801 0.336352,0.25997 0.378211,0.30163 0.71727,0.5302 0.244427,0.16478 0.689469,0.40425 0.651639,0.7767 -0.0032,0.0319 -0.01151,0.0623 -0.02273,0.092 0.02516,0.002 0.05055,0.006 0.07545,0.0124 0.291759,0.0755 0.472615,0.33091 0.454237,0.62684 0.0058,0.0826 0.01431,0.16474 0.02376,0.24701 0.140208,0.018 0.150228,0.15471 0.149344,0.31058 0.09267,0.061 -0.0051,0.23401 -0.0052,0.34933 -4.8e-5,0.0683 -0.0016,0.13634 -0.0031,0.20464 0.03582,-0.002 0.07291,-0.003 0.120407,0.003 0.0394,-0.10973 0.0995,-0.21315 0.143661,-0.32142 0.142383,-0.0211 0.284181,-0.0789 0.427363,-0.0641 0.08715,0.009 0.161888,0.0726 0.227377,0.13074 0.126426,0.11233 0.207328,0.24417 0.261483,0.38654 0.01831,0.006 0.03706,0.0119 0.0553,0.0186 0.197525,0.0275 0.400468,0.0415 0.571024,0.13849 0.04029,0.0229 0.01799,0.0733 -0.01138,0.12506 0.07401,0.0957 0.05074,0.0674 0.08113,0.24546 0.09498,-0.0247 0.190423,-0.0476 0.287837,-0.0584 0.03283,-0.004 0.0058,0.0657 0.0083,0.0987 0.0098,0.12884 0.02035,0.25763 0.02894,0.38654 0.03881,0.58334 0.04491,1.16686 0.09198,1.74925 0.0721,0.003 0.140266,0.16914 0.210841,0.23151 7.94e-4,0.0301 7.94e-4,0.0597 5.29e-4,0.0899 0.07794,0.0525 0.127376,0.11829 0.158647,0.19172 0.04282,-0.0746 0.08383,-0.15256 0.161229,-0.16846 0.442468,-0.0907 0.655968,0.0332 0.727604,0.41806 0.03393,0.18229 0.0279,0.40258 0.0047,0.62167 0.05603,-5.3e-4 0.111926,2.6e-4 0.167949,0.003 0.05288,0.006 0.106045,0.0106 0.158647,0.0186 0.39742,0.0623 0.160015,0.008 0.123505,0.0439 -0.03506,0.0344 -0.06725,0.0716 -0.100769,0.10749 0.185642,-0.0871 0.371496,-0.17444 0.557072,-0.26148 0.068,0.11389 0.169082,0.2141 0.204123,0.34209 0.0254,0.0928 -0.008,0.41318 -0.04134,0.67697 0.04144,0.23159 0.0637,0.46511 0.03049,0.65008 -0.04698,0.2617 -0.134159,0.43426 -0.287837,0.56793 -0.02635,0.0753 -0.05539,0.14888 -0.08733,0.2191 0.230521,0.0164 0.461306,-0.0257 0.673862,0.10853 0.423558,-0.14724 0.609619,-0.2595 0.708483,-0.1969 0.01299,2.4e-4 0.02611,0 0.03928,0 0.100377,-0.26342 0.225895,-0.50768 0.29714,-0.66971 0.07855,-0.12224 0.122793,-0.27546 0.235643,-0.3669 0.456626,-0.37044 0.540115,-0.21376 0.992706,-0.22273 0.534609,-0.0103 0.08662,-0.0326 0.417028,-0.0119 0.09155,-0.0561 0.169956,-0.14838 0.272852,-0.17259 -0.07892,8e-5 -0.157229,-0.006 -0.234095,-0.0243 -0.06146,-0.0145 0.01021,-0.12652 0.01241,-0.18965 0.0118,-0.33972 0.01082,-0.64702 0.0016,-0.99064 -0.0061,-0.19808 -0.04503,-0.39623 -0.02894,-0.59376 0.0026,-0.0314 0.0385,-0.0461 0.06666,-0.0651 -0.0517,-0.026 -0.0942,-0.057 -0.07131,-0.0951 0.04266,-0.0708 0.09832,-0.13126 0.159681,-0.18655 -0.255408,-0.44649 -0.319736,-0.53082 -0.700217,-1.10588 -0.08855,-0.12546 -0.17748,-0.25052 -0.265615,-0.3762 -0.115867,0.0103 -0.236863,-0.0232 -0.354502,-0.0274 -0.08855,-0.0731 -0.194138,-0.12973 -0.265616,-0.21963 -0.318984,-0.40113 -0.348739,-0.90863 -0.336415,-1.40611 -0.125362,-0.12781 -0.188634,-0.17311 -0.513146,-0.45217 -0.08534,0.046 -0.195691,0.0971 -0.235643,0.0749 -0.166931,-0.0924 -0.304477,-0.23033 -0.439251,-0.3669 -0.004,2.6e-4 -0.0079,-5e-5 -0.01188,5.3e-4 -0.08878,0.0334 -0.16188,0.0489 -0.18397,0.008 -0.03797,0.004 -0.07393,0.004 -0.07648,-0.0253 -0.0037,-0.0423 -0.0053,-0.0859 -0.0078,-0.12919 -0.438502,-0.0345 -0.575919,-0.34957 -0.413412,-0.56018 -0.01505,-0.054 -0.02653,-0.10959 -0.04237,-0.16329 -0.0011,-0.0157 -0.0021,-0.0313 -0.0031,-0.047 -0.01233,0.007 -0.02469,0.0144 -0.03721,0.0212 -0.0058,0.0116 -0.01323,0.02 -0.02532,0.0196 -0.0024,-7e-5 -0.0044,9e-5 -0.0067,0 -0.01545,0.0414 -0.05258,0.0424 -0.141076,-0.003 -0.622294,-0.002 -0.600654,0.12548 -0.60048,-0.1726 3.2e-5,-0.06 -7.4e-5,-0.11989 0,-0.17983 -0.0893,0.0341 -0.179324,0.0425 -0.236161,-0.016 -0.0077,-0.008 -0.01484,-0.0163 -0.0217,-0.0248 -0.09091,0.0663 -0.181565,0.13297 -0.273886,0.19741 -0.112779,0.0787 -0.22103,0.16571 -0.339514,0.23512 -0.03545,0.081 -0.08198,0.15741 -0.120406,0.2372 -0.069,0.0614 -0.116861,0.20368 -0.207222,0.18448 -0.200898,-0.0427 -0.756663,-0.24613 -0.557072,-0.58291 0.05731,-0.0967 0.131413,-0.18323 0.211873,-0.26303 0.0083,-0.0493 0.02101,-0.11299 0.04186,-0.19895 0.06635,-0.27344 0.14247,-0.58058 0.253214,-0.87282 -0.02363,0.0213 -0.04692,0.043 -0.07079,0.0641 -0.07625,0.0672 -0.144569,0.14569 -0.230479,0.19999 -0.06988,0.0442 -0.153646,0.0609 -0.230476,0.0915 -0.06072,-0.21807 -0.178051,-0.4285 -0.203089,-0.65113 -0.03541,0.0195 -0.06085,0.0255 -0.05943,-0.008 0.0016,-0.0376 0.02389,-0.0654 0.05478,-0.0889 0.003,-0.0797 0.08543,-0.12771 0.162264,-0.17312 -0.01368,-0.0194 -0.02627,-0.0379 -0.03514,-0.0506 -0.04473,-0.0643 -0.06891,-0.14096 -0.103351,-0.21136 -0.0069,-0.0701 -0.02037,-0.13982 -0.02066,-0.21032 -7.94e-4,-0.16663 0.06405,-0.45146 0.196371,-0.55036 0.06012,-0.045 0.13612,-0.0581 0.212389,-0.0703 0.01199,-0.0212 0.02471,-0.0408 0.03876,-0.0584 0.03186,-0.0798 0.08903,-0.13489 0.258897,-0.24701 0.14255,-0.0941 0.312952,-0.01 0.461471,-0.0713 0.09444,-0.0166 0.159043,-0.0332 0.214974,-0.0357 0.0517,-0.002 0.09613,0.008 0.149862,0.0403 0.0127,-0.005 0.02146,-0.0126 0.03514,-0.0176 0.05348,-0.0902 0.178983,-0.15665 0.478526,-0.19327 0.0052,-5.3e-4 0.0109,-8e-4 0.01601,-10e-4 0.127074,-0.004 0.213577,0.13962 0.251148,0.31419 0.07192,-0.10825 0.172466,-0.16381 0.273886,-0.16381 0.188158,0 0.376203,0.18609 0.376203,0.55862 v 0.21135 c 0.114599,0.0164 0.183849,0.04 0.290939,0.0894 0.01259,0.006 0.02474,0.0125 0.03669,0.0186 0.124804,-0.0654 0.258445,-0.12037 0.467673,-0.18448 0.137752,-0.0422 0.28135,-0.0623 0.424264,-0.0806 0.214702,-0.0275 0.42394,0.0147 0.629418,-0.0734 0.109339,0.23173 0.264115,0.44733 0.32763,0.69557 0.01244,0.0485 -0.08567,0.053 -0.131259,0.0739 -0.102323,0.0469 -0.205074,0.0929 -0.311608,0.12919 -0.140605,0.048 -0.286038,0.0806 -0.428398,0.123 -0.0019,5.2e-4 -0.0034,2.6e-4 -0.0052,0.002 5.29e-4,0.005 0.0011,0.0104 0.0016,0.0155 0.0069,0.0574 -0.107244,0.28896 -0.137975,0.33486 -0.0052,0.008 -0.0186,0.003 -0.02791,0.005 -0.03563,-0.0448 -0.07134,-0.0896 -0.106968,-0.13436 -0.0073,0.003 -0.0141,0.007 -0.02119,0.0114 0.0574,0.0841 0.109931,0.17059 0.143142,0.26614 0.0098,0.0281 -0.04891,0.11001 -0.110588,0.18552 0.07999,0.0415 0.776414,0.40404 1.138433,0.59014 0.305358,-0.21922 0.544111,-0.16423 0.824238,0.15865 0.0205,0.0236 0.03529,0.0508 0.04548,0.0801 0.424889,-0.15671 0.458695,-0.0465 0.498676,0.36793 -0.0026,0.006 -0.0049,0.0123 -0.0072,0.0186 0.01341,0.0409 0.02725,0.082 0.04031,0.12299 0.08482,0.22001 0.0522,0.15469 0.156581,0.35347 0.0109,0.0208 0.04284,0.0478 0.05684,0.0693 0.01976,0.002 0.03963,0.005 0.05943,0.007 0.05307,0.005 0.10831,-0.002 0.159681,0.0129 0.01939,0.005 0.02177,0.0449 0.04186,0.0429 0.03188,-0.002 0.05317,-0.035 0.0801,-0.0522 0.335981,-0.21481 0.130943,-0.12847 0.682128,-0.13746 0.08847,0.11962 0.20588,0.22211 0.265099,0.35863 0.03774,0.087 0.01635,0.18942 0.01394,0.28422 -0.0082,0.33156 -0.03938,0.61005 -0.12454,0.93225 -0.03496,0.13225 5.29e-4,0.40735 -0.134876,0.38757 -0.191059,-0.028 -0.235675,-0.3059 -0.353468,-0.45889 0.06247,0.2344 0.140962,0.46515 0.187069,0.70332 0.0019,0.0102 -0.0088,0.0146 -0.02119,0.0181 0.0079,0.02 0.01857,0.0362 0.02479,0.0584 0.09477,-0.0625 0.235638,-0.15347 0.431496,-0.30644 0.01701,-0.0133 0.03275,0.0282 0.04858,0.0429 0.03931,0.0364 0.07425,0.0775 0.116787,0.11007 0.0089,0.007 0.01889,0.0124 0.02791,0.0191 0.01521,-0.1278 0.0562,-0.19914 0.198437,-0.19637 0.11085,0.002 0.282766,0.048 0.550871,0.14521 0.08704,0.0315 0.04903,0.17909 0.06511,0.27027 0.0182,0.10319 0.03445,0.20601 0.04961,0.30954 0.201528,0.12573 0.33278,0.23174 0.473355,0.54416 0.03597,0.0799 0.0037,0.26138 -0.03204,0.41496 0.269261,-0.10966 0.357209,-0.13089 0.6134,0.40927 0.04215,0.0889 -0.04838,0.19323 -0.09819,0.27802 -0.05876,0.10005 -0.12985,0.19242 -0.204637,0.28164 -0.04188,0.35489 -0.153056,0.89984 -0.223761,1.25367 0.01699,0.019 0.04463,0.0489 0.06305,0.0687 0.181745,-0.0336 0.334052,-0.007 0.650089,-0.0103 0.07622,0.22241 0.206259,0.43321 0.228928,0.66713 0.0095,0.0979 -0.07732,0.17915 -0.130225,0.26355 -0.01061,0.0761 -0.04316,0.16862 -0.04702,0.2398 -3e-6,0.0977 0,0.19491 0,0.29247 0.01008,0.0323 0.01979,0.0652 0.02894,0.0987 0.05198,0.089 0.103569,0.17812 0.155546,0.26718 -2.01e-4,-0.008 2.65e-4,-0.0167 -5.29e-4,-0.0243 -0.0024,-0.0262 -0.0369,-0.0932 -0.01447,-0.0796 0.08402,0.0523 0.165677,0.11647 0.245465,0.18706 0.03919,-1.3e-4 0.07768,0.003 0.116271,0.0119 z m -9.813872,7.86412 c -0.0089,5.3e-4 -0.02676,0.0148 -0.04496,0.0362 0.0027,-2.6e-4 0.0026,-2e-4 0.0052,-5.2e-4 0.02035,-0.002 0.04064,-0.005 0.06253,-0.007 0.0021,-8e-4 0.0013,-0.002 -0.02119,-0.007 0.0065,-0.0154 0.0048,-0.0221 -0.0016,-0.0217 z m -1.003038,0.97927 c -0.05655,0.005 0.02723,0.094 0.08268,0.18242 0.0013,-0.001 0.0031,-0.002 0.0047,-0.003 0.03777,-0.0256 0.07875,-0.0459 0.118853,-0.0677 -0.0088,-0.006 -0.0176,-0.0116 -0.02582,-0.0176 -0.09654,-0.0148 -0.144944,-0.0504 -0.163298,-0.0935 -0.0026,-1.9e-4 -0.0056,-5.3e-4 -0.0083,-5.3e-4 -0.0033,-1.4e-4 -0.0061,-2.4e-4 -0.0088,0 z m 3.770828,0.3638 c -0.0048,0.002 -0.0097,0.003 -0.01447,0.004 0.01564,0.022 0.03095,0.0441 0.04651,0.0661 0.0087,10e-4 0.0177,0.002 0.02687,0.004 -0.01961,-0.0246 -0.03931,-0.0493 -0.05891,-0.0739 z m -2.447396,0.65061 c -0.01828,0.0472 -0.03994,0.0925 -0.05633,0.14056 0.01947,-0.0141 0.03888,-0.0283 0.05839,-0.0424 -7.94e-4,-0.0328 -0.0016,-0.0654 -0.0021,-0.0982 z m 4.994527,0.90795 c -0.0016,-5.3e-4 -0.0021,-7.9e-4 -0.0021,5.3e-4 5.29e-4,0.005 0.0011,0.009 0.0016,0.0139 0.0034,-0.001 0.0069,-0.002 0.01035,-0.003 0.0038,-0.001 -0.0054,-0.009 -0.0098,-0.0114 z m -6.059062,0.13333 c -0.03318,0.004 -0.03832,0.0686 -0.05891,0.0997 0.04086,-0.0527 0.06305,-0.08 0.07545,-0.0987 -0.0031,-2.6e-4 -0.0062,-7.9e-4 -0.0093,-10e-4 -0.0024,-2.6e-4 -0.005,-2.6e-4 -0.0072,0 z m 2.396236,0.1142 c -7.94e-4,1.6e-4 -0.0021,5.3e-4 -0.0026,0.001 -0.01061,0.01 -0.01638,0.0275 -0.02273,0.0429 0.0122,-0.009 0.0241,-0.0185 0.03256,-0.0269 -2.65e-4,-0.005 -7.94e-4,-0.01 -0.0011,-0.015 -0.0021,-7.9e-4 -0.0044,-0.002 -0.0062,-0.002 z m -8.033618,0.22893 c -0.01791,0.18448 7.94e-4,0.4146 0.241329,0.37104 0.01805,-0.0185 0.03581,-0.0373 0.05374,-0.0558 -0.113062,-0.019 -0.230481,-0.0327 -0.257349,-0.12815 -0.01931,-0.0686 -0.03156,-0.13073 -0.03773,-0.18707 z m 12.542904,1.02578 c -0.195739,0.0446 -0.34231,0.046 -0.522965,0.03 0.01225,0.0308 0.02368,0.0596 0.03411,0.0837 0.290925,0.67319 0.100565,0.21575 0.332279,0.78031 0.01125,-5.3e-4 0.02885,0.006 0.04031,0.006 -0.0081,-0.025 -0.01508,-0.05 -0.0217,-0.0754 -0.004,-0.007 -0.0075,-0.0135 -0.0093,-0.0207 -0.0016,-0.006 -0.0011,-0.0112 0,-0.0171 -0.0032,-0.0142 -0.0062,-0.0285 -0.0088,-0.0429 -0.01603,-0.0888 0.05884,-0.171 0.07907,-0.2589 0.02851,-0.12394 0.05179,-0.24938 0.06666,-0.37568 0.0043,-0.0365 0.0076,-0.0729 0.01035,-0.10956 z m -9.766845,0.41806 c -0.01431,0.0517 -0.02902,0.10328 -0.04341,0.15503 1.56e-4,0.005 1.06e-4,0.01 5.29e-4,0.015 1.14e-4,10e-4 -1.16e-4,0.002 0,0.004 0.0064,0.065 0.01609,0.1294 0.02997,0.19224 7.94e-4,-0.12244 0.0021,-0.24475 0.01291,-0.36639 z m -1.466062,0.28163 c -0.01021,5.3e-4 -0.02037,0.003 -0.03049,0.006 0.0013,0.003 0.0024,0.007 0.0036,0.0103 0.0066,0.0168 0.0697,-0.006 0.05271,-0.0124 -0.0082,-0.003 -0.01699,-0.004 -0.02585,-0.004 z m 12.097454,0.54829 c 0.01519,0.0403 0.03231,0.0797 0.04961,0.11938 -0.0032,-0.0215 -0.02043,-0.0564 -0.04961,-0.11938 z m -2.67839,0.62219 v 5.3e-4 c 0.01132,0.0171 0.02847,0.0237 0.05323,0.0181 -7.94e-4,-10e-4 -0.0016,-0.002 -0.0026,-0.004 -0.01664,-0.005 -0.0331,-0.009 -0.05064,-0.0145 z m -6.646106,1.08624 c 0.0021,0.005 0.0037,0.009 0.0057,0.0139 0.0044,0.003 0.009,0.007 0.01344,0.01 0.0072,-0.002 0.01405,-0.005 0.02119,-0.007 v -5.2e-4 c -0.01405,-0.005 -0.027,-0.0109 -0.04031,-0.0165 z m 0.01913,0.0238 c -0.0027,7.9e-4 -0.0055,0.001 -0.0083,0.002 0.009,0.0211 0.01781,0.0423 0.02635,0.0636 5.29e-4,-0.0167 0.0016,-0.0334 0.0021,-0.0501 -0.0069,-0.005 -0.01318,-0.0103 -0.02016,-0.0155 z m 11.041702,0.479 c -2.64e-4,0.0178 2.65e-4,0.0351 -0.0011,0.0522 0.105563,0.0127 0.08045,-0.009 0.0011,-0.0522 z m -8.282699,0.83509 v 5.3e-4 c -0.01273,0.002 -0.04087,0.0282 -0.03049,0.0351 0.01537,-2e-4 0.02737,0 0.04134,0 -0.0019,-0.0105 -0.0031,-0.021 -0.0052,-0.0315 -5.29e-4,-0.003 -0.0027,-0.004 -0.0057,-0.004 z m 5.40639,1.40559 c -0.02151,0.003 -0.0431,0.004 -0.0646,0.006 0.05738,0.003 0.114181,0.01 0.170531,0.0212 -0.03567,-0.007 -0.07087,-0.0161 -0.105936,-0.0269 z m 0.270267,0 c -0.0016,0.0251 -0.01082,0.0415 -0.03566,0.0413 -0.03661,0 -0.07283,-0.004 -0.108521,-0.01 0.03776,0.008 0.07464,0.0185 0.111104,0.0305 0.02135,-0.0217 0.03837,-0.0452 0.03307,-0.062 z m 0.05323,0.0527 c -0.01548,0.007 -0.03101,0.0138 -0.04651,0.0206 0.0027,0 0.0056,0.003 0.0083,0.003 0.110154,0.0414 0.185772,0.14772 0.259932,0.23927 0.111723,0.1375 0.202491,0.28709 0.280604,0.44338 -0.008,-0.1824 -0.01175,-0.36517 -0.01344,-0.54776 -0.02969,0.0135 -0.06075,0.0238 -0.09405,0.0289 -0.161417,0.0246 -0.291701,-0.0607 -0.394809,-0.18706 z m -1.615922,1.12964 c -0.0027,0.0257 -0.03494,0.063 -0.04289,0.0904 -0.0199,0.0695 -0.07028,0.17561 -0.125056,0.28938 0.0318,-0.0521 0.05831,-0.10811 0.09612,-0.15605 0.05999,-0.076 0.137962,-0.13663 0.196369,-0.21395 0.0019,-0.003 0.0021,-0.004 0.0036,-0.006 -0.03969,0 -0.07931,-0.003 -0.119374,-0.004 -0.0029,-1.6e-4 -0.0059,5e-5 -0.0088,0 z m 1.079521,0.12454 c -5.29e-4,0 -0.0011,0 -0.0016,0.003 -0.0053,0.0188 -0.0097,0.0377 -0.01394,0.0569 0.0027,-0.003 0.0056,-0.004 0.0083,-0.006 0.01172,-0.009 0.01204,-0.054 0.0072,-0.0537 z m -0.150378,0.44545 c -0.06863,0.10777 -0.135552,0.15282 -0.218075,0.2713 -0.115909,0.059 -0.07485,0.0225 -0.08475,0.27594 -0.0105,0.26895 0.02524,0.53803 0.02479,0.80719 -2.2e-4,0.13978 0.01609,0.28239 -0.01291,0.4191 -0.01304,0.0615 -0.0353,0.12025 -0.05994,0.17828 0.308258,-0.003 0.617299,0.0185 0.925007,0.0636 0.179615,0.11563 0.389512,0.19416 0.53847,0.34727 0.06517,0.067 0.116398,0.15163 0.15658,0.24598 0.07306,-0.11819 0.153032,-0.22643 0.210839,-0.31575 0.09026,-0.13952 0.179408,-0.27982 0.269234,-0.4196 -0.213312,0 -0.427543,-0.0159 -0.640789,-0.014 -0.05395,-0.11406 -0.103822,-0.23016 -0.148309,-0.34829 -0.09162,0.066 -0.189146,0.11774 -0.299726,0.13851 -0.139565,0.0262 -0.178543,-0.22405 -0.240294,-0.35193 -0.03301,-0.0684 -0.02606,-0.14927 -0.03824,-0.22428 -0.01617,-0.0994 -0.02299,-0.20088 -0.04703,-0.29869 -0.04883,-0.1987 -0.165335,-0.52705 -0.236677,-0.73483 0.298222,-0.0251 -0.01847,-0.0307 -0.077,-0.0367 -0.0059,0 -0.01458,-0.003 -0.02119,-0.003 z m -1.219565,0.0816 c -0.02159,0.0514 -0.04351,0.10329 -0.05891,0.15192 0.0039,0.007 0.008,0.0135 0.01188,0.0206 0.0054,-0.0284 0.01148,-0.0563 0.0186,-0.0842 0.0077,-0.0301 0.01733,-0.0594 0.02842,-0.0884 z m -0.08113,0.23358 c -0.0067,0.0307 -0.01074,0.0596 -0.01188,0.0863 0.0035,0.0148 0.0067,0.0296 0.01035,0.0444 0.0044,-0.0276 0.0086,-0.0772 0.01291,-0.10076 -0.0029,-0.007 -0.0077,-0.0206 -0.01138,-0.03 z m -1.78697,0.22013 c -7.93e-4,0.003 -0.0013,0.003 -0.0021,0.004 -1.27e-4,0.003 2.14e-4,0.006 -5.29e-4,0.009 0.0011,-0.004 0.0019,-0.009 0.0026,-0.0124 z m 1.645378,1.41594 c -2.35e-4,0.0348 0.0019,0.0696 0.0026,0.10438 0.0191,-0.003 0.03825,-0.007 0.05736,-0.0103 -0.0044,-0.007 -0.0078,-0.0151 -0.01241,-0.0222 -0.01582,-0.0241 -0.03167,-0.048 -0.04754,-0.0718 z m 3.121255,0.62011 v 0 c -0.22407,0.005 0.125198,0.97673 0.130741,1.00459 h -0.0072 c 0.124894,0.0984 0.225888,0.2748 0.259416,0.53383 -2.65e-4,-0.0271 -7.94e-4,-0.0539 -0.0011,-0.0811 -0.102868,-0.39079 -0.200174,-0.78912 -0.206188,-1.19582 -7.93e-4,-0.0495 -0.01238,-0.11599 -0.01654,-0.17621 -0.06926,-0.0568 -0.123217,-0.0871 -0.159165,-0.0863 z m -4.014224,0.80978 c -0.02556,0.0408 -0.04488,0.10533 -0.03307,0.0754 0.01074,-0.0254 0.02178,-0.0504 0.03307,-0.0754 z m -2.710428,0.21188 c 7.93e-4,0 0.0016,0.003 0.0026,0.003 0.0052,0.006 0.0058,0.003 0.0052,-0.003 z m 4.091223,0.01 c -0.281821,-0.003 -0.562309,0.009 -0.844394,0.0362 -0.05141,0.005 -0.381463,0.0514 -0.604097,0.0718 0.0711,0.0774 0.12256,0.14417 0.134874,0.18965 0.0071,-0.0268 -2.12e-4,-0.0293 0.106971,0.12092 0.04007,0.0499 0.07055,0.10938 0.120407,0.14936 0.01191,0.0101 0.02606,-0.0198 0.04134,-0.0196 0.0507,0 0.09975,0.0188 0.150378,0.0217 0.09053,0.005 0.181171,0.003 0.271817,0 0.38998,-0.008 0.699202,-0.0259 1.088306,-0.0444 0.111241,-0.004 0.222586,-0.008 0.33383,-0.0124 0.03813,-0.0592 0.08281,-0.11959 0.105936,-0.16743 0.05508,-0.11372 0.127424,-0.21812 0.195856,-0.32451 -0.273029,-0.004 -0.546106,-0.009 -0.819074,-0.0156 -0.09427,-0.003 -0.188211,-0.005 -0.282151,-0.006 z m -3.976503,0.0455 v 0 c 8e-5,0.003 -7.1e-5,0.004 0,0.006 7.94e-4,0 0.0016,-0.003 0.0026,-0.003 -7.94e-4,0 -0.0019,-0.003 -0.0026,-0.004 z m 2.159043,0.0481 c -0.02801,-3e-5 -0.05438,0.003 -0.07803,0.005 -0.0099,0.019 -0.01924,0.0389 -0.02946,0.0579 0.259858,0.14557 0.409845,0.20275 0.494543,0.216 -0.06958,-0.0444 -0.114909,-0.16108 -0.185002,-0.22479 -0.01455,0 -0.02686,-0.003 -0.03307,-0.004 -0.03602,-0.0127 -0.07015,-0.0282 -0.103354,-0.0465 -0.02117,-0.003 -0.04351,-0.003 -0.06563,-0.003 z m -4.373378,4.82915 c -0.02037,0.0217 -0.0417,0.0414 -0.06253,0.0625 -0.01371,0.11639 -0.0317,0.22384 -0.03772,0.29094 -0.0098,0.13028 -0.01622,0.2599 -0.01241,0.38756 0.0024,3e-5 0.0048,0 0.0072,0 0.01947,-0.0225 0.04143,-0.0427 0.06718,-0.0589 0.04017,-0.0442 0.08255,-0.0886 0.10387,-0.1323 0.03612,-0.074 0.07019,-0.14917 0.10025,-0.22582 -0.02816,-0.0658 -0.04066,-0.13314 -0.03979,-0.20053 -0.03506,-0.008 -0.06978,-0.0175 -0.104902,-0.0243 -0.0089,-0.003 -0.02244,-0.007 -0.02222,-0.0156 7.93e-4,-0.0331 5.29e-4,-0.0535 0.0011,-0.0837 z m 10.896492,0.56896 c -5.29e-4,-8e-5 -0.0011,0 -0.0016,0.003 -0.0066,0.0151 -0.01273,0.0297 -0.0181,0.0429 0.0074,-0.004 0.01474,-0.008 0.02223,-0.0124 0.008,-0.004 0.0019,-0.0298 -0.0026,-0.0305 z m -9.699149,0.46405 c -0.01506,0.0512 -0.03173,0.10186 -0.04702,0.15298 0.0318,-0.0466 0.06444,-0.0925 0.09715,-0.13851 -0.01614,-0.003 -0.03239,-0.006 -0.05012,-0.0145 z m 0.995804,0.65114 c -0.0035,0.0546 0.0075,0.12467 0.01188,0.1638 0.100777,-0.0259 0.06227,-0.095 -0.01188,-0.1638 z m -0.651639,0.71985 c -0.133501,0.20897 -0.269129,0.41153 -0.42168,0.6196 0.02447,0 0.04883,-0.003 0.07338,-0.004 0.03459,-0.003 0.06316,-0.0299 0.09715,-0.0372 0.06801,-0.014 0.136657,-0.0225 0.205155,-0.0341 0.0011,-0.006 0.0021,-0.0119 0.0031,-0.0161 -0.01032,-0.0172 -0.03241,-0.0323 -0.031,-0.0522 0.007,-0.0998 0.03597,-0.19735 0.05529,-0.29559 0.01132,-0.0575 0.02344,-0.11409 0.03514,-0.17156 -0.0055,-0.003 -0.01119,-0.006 -0.01654,-0.009 z m -1.610754,0.17518 c 5.29e-4,-8e-5 0.0011,8e-5 0.0016,0 -5.29e-4,-2.1e-4 -0.0011,0 -0.0016,0 z m -5.543847,1.35858 v 0.003 c 0.117065,0 0.257522,0.0444 0.407726,0.15452 0.258567,0.18962 0.529219,0.40809 0.228409,0.81184 -0.003,0.004 -0.0071,0.007 -0.01035,0.0109 -0.004,0.0333 -0.0074,0.0664 -0.0083,0.0992 -0.05633,0.0457 -0.08949,0.0748 -0.108521,0.0894 -5.3e-4,0.27284 0.03856,-0.10194 -0.02326,0.36018 -0.04234,0.10536 -0.07421,0.21582 -0.127122,0.31626 -0.02458,0.0467 -0.05064,0.1284 -0.102838,0.12041 -0.05839,-0.008 -0.078,-0.0111 -0.126606,-0.0175 -0.1,0.0667 -0.220369,0.0648 -0.323495,-0.008 2e-6,0.0185 0,0.0372 0,0.0558 0.01106,0.33639 -0.02408,0.42842 -0.270267,0.7002 -0.03535,0.039 -0.07898,0.0711 -0.125574,0.0956 -0.06763,0.0356 -0.142608,0.0557 -0.213942,0.0832 -0.01159,0 -0.01884,0 -0.02945,-0.003 0.02389,0.10819 -0.01969,0.23509 -0.08992,0.32039 -0.07829,0.0951 -0.217697,0.11538 -0.326594,0.17312 -0.130744,-0.003 -0.257717,-0.0274 -0.386024,-0.031 7.94e-4,0.0119 0.0019,0.0214 0.0031,0.0367 -0.03442,-0.008 -0.04459,0.003 -0.04237,0.0269 0.05915,0.0254 0.117735,0.0522 0.174149,0.0832 0.02199,0.0122 -0.03284,0.0524 -0.05891,0.0486 -0.0087,0.0182 -0.01902,0.0336 -0.03669,0.0419 -0.0199,0.009 -0.01601,-0.0789 -0.02585,-0.0594 -0.0021,0.004 -0.003,0.008 -0.0031,0.0151 0.02275,0.0511 0.03706,0.0964 0.0052,0.10078 -0.02734,0.004 -0.05469,0.007 -0.08217,0.0103 -0.588788,0.1175 -0.657775,0.17357 -0.671793,-0.0103 -0.02677,-0.006 -0.01458,-0.0536 -0.0041,-0.0863 -0.0011,-0.0329 -0.0021,-0.0687 -0.0047,-0.11109 -0.01881,-0.27387 -0.01143,-0.0595 0.03307,0.0161 0.04079,-0.13647 0.06389,-0.18436 0.112138,-0.26199 -0.0024,-0.005 -0.0044,-0.0111 -0.0067,-0.0161 -0.0092,-0.007 -0.01011,-0.013 -0.0057,-0.0156 -0.01966,-0.0451 -0.03733,-0.0855 -0.05271,-0.12144 -0.01873,0.0214 -0.03637,0.0392 -0.0522,0.0501 -0.02617,0.0185 0.01447,-0.0641 0.03359,-0.0899 5.29e-4,0 5.29e-4,-2.1e-4 0.0011,-0.003 -0.05961,-0.14295 -0.07642,-0.21045 -0.04031,-0.25167 -5.3e-4,0 -0.0011,-0.003 -0.0016,-0.003 -0.0048,0.003 -0.0074,0.004 -0.01241,0.007 -0.0042,0.003 0.0079,-0.0138 0.01035,-0.0103 5.3e-4,0 0.0013,0.003 0.0021,0.003 0.0038,-0.003 0.0062,-0.003 0.0098,-0.004 0.01447,-0.0127 0.03481,-0.0238 0.0615,-0.0336 0.03581,-0.0193 0.0641,-0.0345 0.08527,-0.0465 0.06419,-0.11401 0.169182,-0.15595 0.281636,-0.17415 0.03116,-0.0185 0.06397,-0.0395 0.106452,-0.0646 0.109572,-0.0641 0.2218,-0.1229 0.332798,-0.18449 0.06085,-0.0289 0.178149,-0.0862 0.300755,-0.1261 0.0021,-0.0309 0.0061,-0.062 0.01188,-0.0961 0.05257,-0.31107 0.07662,-0.45447 0.08785,-0.52297 -0.01482,0.0952 -0.03274,0.22479 0.07131,-0.3116 0.01413,-0.0728 0.01736,-0.14769 0.03307,-0.22016 0.0067,-0.0308 0.01609,-0.06 0.02585,-0.0899 4.5e-5,-0.0132 0.0021,-0.0238 0.0098,-0.03 0.0059,-0.0177 0.01175,-0.0376 0.01707,-0.0558 0.0037,-0.0124 0.0096,-0.0439 0.01241,-0.0517 7.93e-4,-0.003 0.0016,-0.003 0.0016,0.003 -2.65e-4,0.0317 -0.0097,0.0633 -0.01447,0.0946 0.0048,0 0.0097,1e-4 0.01447,0.003 0.111395,-0.0169 0.224327,-0.0204 0.337447,-0.0164 0.0013,-0.0791 0.005,-0.15663 0.01497,-0.23305 0.0019,-0.0135 0.0076,0.0267 0.01138,0.0398 0.02686,0.006 0.05374,0.0116 0.08062,0.0164 0.01545,-0.0233 0.03275,-0.0438 0.05064,-0.062 -0.04138,-0.0443 -0.0855,-0.0939 -0.132291,-0.14935 -0.0019,-0.003 -0.0066,-0.005 -0.0052,-0.007 0.02582,-0.0469 0.05617,-0.0918 0.08423,-0.13748 0.01781,0.005 0.03574,0.0122 0.05374,0.0167 0.0059,-0.018 0.05049,-0.0246 0.0956,-0.0269 0.01934,-0.15155 0.143399,-0.26064 0.322461,-0.26199 z m 6.196005,0.24855 c -0.01709,0 -0.04207,0.003 -0.07441,0.008 -1.88e-4,0 -0.0013,0.003 -0.0016,0.003 -0.01889,0.003 -0.04115,0.007 -0.06563,0.0124 7.94e-4,0.008 0.0013,0.0164 0.0016,0.0243 h 0.0217 c -0.0057,0.005 -0.01132,0.0143 -0.01704,0.0159 0.01193,-0.005 0.02257,-0.0114 0.03152,-0.0159 -0.0044,0 -0.0089,2.1e-4 -0.01344,0.003 0.0127,-0.01 0.0254,-0.0204 0.03772,-0.0305 -0.0047,0.0101 -0.0114,0.0193 -0.02429,0.0274 0.11598,-0.0106 0.178636,-0.0452 0.10387,-0.0429 z m -1.912546,0.69403 c -0.03901,0.0277 -0.07212,0.0537 -0.108522,0.0806 -0.0024,0.0188 -0.0063,0.0377 -0.0093,0.0563 0.0341,-0.0352 0.07848,-0.0736 0.146243,-0.11729 -0.0096,-0.006 -0.01908,-0.0111 -0.02842,-0.0175 z m -3.761528,0.0909 c -0.0028,0 -0.0059,0.003 -0.0088,0.003 -0.0016,0.003 -0.0026,0.007 -0.0026,0.009 -2.62e-4,0.0153 -7.94e-4,0.0269 -0.0011,0.0403 0.0043,-0.0154 0.0085,-0.0329 0.01241,-0.0522 z m 14.142807,0.17208 c 0.01664,0.0389 0.02986,0.10465 0.03824,0.20413 0.005,0.0598 0.005,0.0389 -0.01963,-0.0589 -0.008,-0.0411 -0.01569,-0.0925 -0.0186,-0.14521 z m -10.536825,0.0656 c -7.94e-4,0.003 -0.0013,0.006 -0.0021,0.009 v 0.003 c 0.0053,0 0.01032,0.003 0.01551,0.003 -0.0051,-0.004 -0.0091,-0.009 -0.01344,-0.0135 z m 0.236162,0.0982 c 0.0033,0.003 0.0071,0.004 0.01034,0.006 5.29e-4,0 -0.0024,-0.005 -0.01034,-0.006 z m 0.07131,0.0196 c -0.0085,0.006 -0.01468,0.0103 -0.02326,0.0161 0.0013,0 0.0028,0.003 0.0041,0.004 0.01161,-0.0111 0.0093,-0.0111 0.01913,-0.0201 z m -5.766573,0.9126 v 0 c -0.01982,0.003 -0.0077,0.0497 0.01757,0.11472 0.0787,0.008 0.149934,0.0268 0.212907,0.0584 -0.05144,-0.0468 -0.117472,-0.0997 -0.200504,-0.15968 -0.01373,-0.0101 -0.02352,-0.0145 -0.02997,-0.014 z m -0.984953,0.68006 c 7.93e-4,0.008 0.0011,0.0185 0.0026,0.0243 5.3e-4,-0.005 0.0011,-0.0116 0.0016,-0.0164 -0.0013,-0.003 -0.003,-0.005 -0.0041,-0.008 z m 0.06563,0.13745 v 0 c 0.0019,0.005 0.0037,0.008 0.0057,0.014 0.003,0.003 0.0068,0.004 0.01138,0.007 0.0037,-0.006 0.0094,-0.0153 0.01344,-0.0217 -0.01558,-0.003 -0.0259,0 -0.03049,0 z m 5.042586,0.46405 c 0.0041,0.0145 0.0078,0.0292 0.01188,0.0434 0.0065,0.023 0.08602,0.0295 0.06976,0.0151 -0.02109,-0.0225 -0.04931,-0.0418 -0.08165,-0.0584 z" />
    </clipPath>
  </defs>
  <g
     inkscape:label="Layer 1"
     inkscape:groupmode="layer"
     id="layer1"
     style="display:inline">
    <path
       id="rect2802"
       style="fill:none;fill-rule:evenodd;stroke:#000000;stroke-width:0.509205;stroke-linecap:round;stroke-linejoin:round;paint-order:stroke markers fill"
       d="M 8.2079806,14.892653 H 92.442145 c 0.396432,0 0.715573,0.214963 0.715573,0.481979 v 58.801839 c 0,0.267011 -0.319141,0.481978 -0.715573,0.481978 H 8.2079806 c -0.3964272,0 -0.715573,-0.214967 -0.715573,-0.481978 V 15.374632 c 0,-0.267016 0.3191458,-0.481979 0.715573,-0.481979 z m 10.0872224,2.204464 h 0.152481 c 0.380134,0 0.686163,0.206127 0.686163,0.462171 v 3.491978 c 0,0.256044 -0.306029,0.462176 -0.686163,0.462176 h -0.152481 c -0.380134,0 -0.686163,-0.206132 -0.686163,-0.462176 v -3.491978 c 0,-0.256044 0.306029,-0.462171 0.686163,-0.462171 z m 3.812945,3.337296 a 3.735776,3.2865672 0 0 1 -3.735776,3.286567 3.735776,3.2865672 0 0 1 -3.735776,-3.286567 3.735776,3.2865672 0 0 1 3.735776,-3.286569 3.735776,3.2865672 0 0 1 3.735776,3.286569 z m 7.470624,-2.926476 h 0.152479 c 0.380135,0 0.686164,0.206127 0.686164,0.462171 v 3.491978 c 0,0.256045 -0.306029,0.462176 -0.686164,0.462176 h -0.152479 c -0.380134,0 -0.686163,-0.206131 -0.686163,-0.462176 v -3.491978 c 0,-0.256044 0.306029,-0.462171 0.686163,-0.462171 z m 3.812943,3.337295 a 3.735776,3.2865672 0 0 1 -3.735775,3.286569 3.735776,3.2865672 0 0 1 -3.735776,-3.286569 3.735776,3.2865672 0 0 1 3.735776,-3.286568 3.735776,3.2865672 0 0 1 3.735775,3.286568 z m -4.193217,35.714223 h 1.067364 c 0.380135,0 0.686164,0.206132 0.686164,0.462169 v 8.31913 c 0,0.256044 -0.306029,0.462176 -0.686164,0.462176 h -1.067364 c -0.380133,0 -0.686162,-0.206132 -0.686162,-0.462176 v -8.31913 c 0,-0.256037 0.306029,-0.462169 0.686162,-0.462169 z m 0,-15.17318 h 1.067364 c 0.380135,0 0.686164,0.206131 0.686164,0.462176 v 8.319123 c 0,0.256045 -0.306029,0.462171 -0.686164,0.462171 h -1.067364 c -0.380133,0 -0.686162,-0.206126 -0.686162,-0.462171 v -8.319123 c 0,-0.256045 0.306029,-0.462176 0.686162,-0.462176 z m -1.143606,9.140772 h 2.744652 c 2.027383,0 3.659536,1.099357 3.659536,2.464924 v 1.027056 c 0,1.365565 -1.632153,2.464923 -3.659536,2.464923 h -2.744652 c -2.027382,0 -3.659535,-1.099358 -3.659535,-2.464923 v -1.027056 c 0,-1.365567 1.632153,-2.464924 3.659535,-2.464924 z M 15.246518,51.24598 h 2.744652 c 2.027382,0 3.659535,1.099359 3.659535,2.464924 v 1.027056 c 0,1.365566 -1.632153,2.464923 -3.659535,2.464923 h -2.744652 c -2.027382,0 -3.659535,-1.099357 -3.659535,-2.464923 v -1.027056 c 0,-1.365565 1.632153,-2.464924 3.659535,-2.464924 z m 0.713614,-7.343523 h 2.13473 v 7.368874 h -2.13473 z M 15.4454,57.234129 h 2.34689 v 5.997107 H 15.4454 Z M 30.040199,33.023491 h 7.928996 v 3.902822 h -7.928996 z m -11.139711,0 h 7.928993 v 3.902822 h -7.928993 z m -10.1137123,0.06403 h 7.9289923 v 3.902823 H 8.7867757 Z M 30.040199,27.521068 h 7.928996 v 3.902799 h -7.928996 z m -11.139711,0 h 7.928993 v 3.902799 h -7.928993 z m -10.1137123,0.06404 h 7.9289923 v 3.902798 H 8.7867757 Z M 54.568215,59.003393 h 9.31885 v 7.961344 h -9.31885 z m -12.708224,0 h 9.318845 v 7.961344 h -9.318845 z m 37.923353,0 h 9.318902 v 7.961344 h -9.318902 z m -12.708293,0 h 9.318906 v 7.961344 H 67.075051 Z M 54.568215,47.0949 h 9.31885 v 7.961346 h -9.31885 z m -12.708224,0 h 9.318845 v 7.961346 h -9.318845 z m 37.923353,0 h 9.318902 v 7.961346 h -9.318902 z m -12.708293,0 h 9.318906 v 7.961346 H 67.075051 Z M 54.568215,35.331668 h 9.31885 v 7.961313 h -9.31885 z m -12.708224,0 h 9.318845 v 7.961313 h -9.318845 z m 37.923353,0 h 9.318902 v 7.961313 h -9.318902 z m -12.708293,0 h 9.318906 v 7.961313 H 67.075051 Z M 54.568215,23.713691 h 9.31885 v 7.9613 h -9.31885 z m -12.708224,0 h 9.318845 v 7.9613 h -9.318845 z m 37.923353,0 h 9.318902 v 7.9613 h -9.318902 z m -12.708293,0 h 9.318906 v 7.9613 H 67.075051 Z M 5.2269623,5.580639 H 96.766518 V 76.883803 H 5.2269623 Z" />
  </g>
  <g
     inkscape:groupmode="layer"
     id="layer3"
     inkscape:label="Layer 2"
     style="display:inline" />
  <g
     inkscape:groupmode="layer"
     id="layer4"
     inkscape:label="Layer 3"
     style="display:inline" />
  <g
     inkscape:groupmode="layer"
     id="layer5"
     inkscape:label="Layer 4"
     style="display:inline" />
</svg>
