<?xml version="1.0" encoding="UTF-8" standalone="no"?>
<!-- Created with Inkscape (http://www.inkscape.org/) -->

<svg
   width="210mm"
   height="297mm"
   viewBox="0 0 210 297"
   version="1.1"
   id="svg5"
   inkscape:version="1.1.2 (0a00cf5339, 2022-02-04, custom)"
   sodipodi:docname="encoder controller icon.svg"
   xmlns:inkscape="http://www.inkscape.org/namespaces/inkscape"
   xmlns:sodipodi="http://sodipodi.sourceforge.net/DTD/sodipodi-0.dtd"
   xmlns="http://www.w3.org/2000/svg"
   xmlns:svg="http://www.w3.org/2000/svg">
  <sodipodi:namedview
     id="namedview7"
     pagecolor="#ffffff"
     bordercolor="#666666"
     borderopacity="1.0"
     inkscape:pageshadow="2"
     inkscape:pageopacity="0.0"
     inkscape:pagecheckerboard="0"
     inkscape:document-units="mm"
     showgrid="false"
     inkscape:zoom="0.62270623"
     inkscape:cx="397.45869"
     inkscape:cy="471.3298"
     inkscape:window-width="1680"
     inkscape:window-height="956"
     inkscape:window-x="-11"
     inkscape:window-y="-11"
     inkscape:window-maximized="1"
     inkscape:current-layer="layer1" />
  <defs
     id="defs2">
    <inkscape:path-effect
       effect="spiro"
       id="path-effect1149"
       is_visible="true"
       lpeversion="1" />
    <inkscape:path-effect
       effect="spiro"
       id="path-effect1002"
       is_visible="true"
       lpeversion="1" />
  </defs>
  <g
     inkscape:label="Layer 1"
     inkscape:groupmode="layer"
     id="layer1">
    <g
       id="g1526"
       transform="matrix(0.40213151,0,0,0.35900368,-2.3430548,-11.473548)">
      <path
         id="path1924"
         style="fill:none;fill-rule:evenodd;stroke:#000000;stroke-width:1.28773;stroke-linecap:round;stroke-linejoin:round;paint-order:stroke markers fill"
         d="m 38.446966,165.75646 h 2.046472 c 1.228222,0 2.217006,0.81679 2.217006,1.83136 v 5.07149 c 0,1.01458 -0.988784,1.83137 -2.217006,1.83137 h -2.046472 c -1.228221,0 -2.217006,-0.81679 -2.217006,-1.83137 v -5.07149 c 0,-1.01457 0.988785,-1.83136 2.217006,-1.83136 z m 9.379651,8.02466 a 7.6742585,8.3115977 0 0 1 -7.674259,8.3116 7.6742585,8.3115977 0 0 1 -7.674259,-8.3116 7.6742585,8.3115977 0 0 1 7.674259,-8.3116 7.6742585,8.3115977 0 0 1 7.674259,8.3116 z m 11.03079,-7.59977 h 2.046472 c 1.228222,0 2.217006,0.81679 2.217006,1.83136 v 5.07149 c 0,1.01458 -0.988784,1.83137 -2.217006,1.83137 h -2.046472 c -1.228221,0 -2.217006,-0.81679 -2.217006,-1.83137 v -5.07149 c 0,-1.01457 0.988785,-1.83136 2.217006,-1.83136 z m 9.379651,8.02466 a 7.6742585,8.3115977 0 0 1 -7.674259,8.3116 7.6742585,8.3115977 0 0 1 -7.674259,-8.3116 7.6742585,8.3115977 0 0 1 7.674259,-8.3116 7.6742585,8.3115977 0 0 1 7.674259,8.3116 z m 11.343613,-8.03244 h 2.046472 c 1.228222,0 2.217006,0.81679 2.217006,1.83136 v 5.07149 c 0,1.01458 -0.988784,1.83137 -2.217006,1.83137 h -2.046472 c -1.228221,0 -2.217006,-0.81679 -2.217006,-1.83137 v -5.07149 c 0,-1.01457 0.988785,-1.83136 2.217006,-1.83136 z m 9.379651,8.02466 a 7.6742585,8.3115977 0 0 1 -7.674259,8.3116 7.6742585,8.3115977 0 0 1 -7.674259,-8.3116 7.6742585,8.3115977 0 0 1 7.674259,-8.3116 7.6742585,8.3115977 0 0 1 7.674259,8.3116 z m 16.202578,-8.44955 h 2.04648 c 1.22822,0 2.217,0.81679 2.217,1.83136 v 5.07149 c 0,1.01458 -0.98878,1.83137 -2.217,1.83137 h -2.04648 c -1.22822,0 -2.217,-0.81679 -2.217,-1.83137 v -5.07149 c 0,-1.01457 0.98878,-1.83136 2.217,-1.83136 z m 9.37966,8.02466 a 7.6742585,8.3115977 0 0 1 -7.67426,8.3116 7.6742585,8.3115977 0 0 1 -7.674254,-8.3116 7.6742585,8.3115977 0 0 1 7.674254,-8.3116 7.6742585,8.3115977 0 0 1 7.67426,8.3116 z m -74.998282,22.12554 h 2.046472 c 1.228222,0 2.217006,0.81679 2.217006,1.83136 v 5.07149 c 0,1.01458 -0.988784,1.83137 -2.217006,1.83137 h -2.046472 c -1.228221,0 -2.217006,-0.81679 -2.217006,-1.83137 v -5.07149 c 0,-1.01457 0.988785,-1.83136 2.217006,-1.83136 z m 9.379651,8.02466 a 7.6742585,8.3115977 0 0 1 -7.674259,8.3116 7.6742585,8.3115977 0 0 1 -7.674259,-8.3116 7.6742585,8.3115977 0 0 1 7.674259,-8.3116 7.6742585,8.3115977 0 0 1 7.674259,8.3116 z m 13.903697,-8.02465 h 2.046472 c 1.228222,0 2.217006,0.81679 2.217006,1.83136 v 5.07149 c 0,1.01458 -0.988784,1.83137 -2.217006,1.83137 h -2.046472 c -1.228221,0 -2.217006,-0.81679 -2.217006,-1.83137 v -5.07149 c 0,-1.01457 0.988785,-1.83136 2.217006,-1.83136 z m 9.379651,8.02466 a 7.6742585,8.3115977 0 0 1 -7.674259,8.3116 7.6742585,8.3115977 0 0 1 -7.674259,-8.3116 7.6742585,8.3115977 0 0 1 7.674259,-8.3116 7.6742585,8.3115977 0 0 1 7.674259,8.3116 z m 10.728695,-8.02467 h 2.046472 c 1.228222,0 2.217006,0.81679 2.217006,1.83136 v 5.07149 c 0,1.01458 -0.988784,1.83137 -2.217006,1.83137 h -2.046472 c -1.228221,0 -2.217006,-0.81679 -2.217006,-1.83137 v -5.07149 c 0,-1.01457 0.988785,-1.83136 2.217006,-1.83136 z m 9.379651,8.02466 a 7.6742585,8.3115977 0 0 1 -7.674259,8.3116 7.6742585,8.3115977 0 0 1 -7.674259,-8.3116 7.6742585,8.3115977 0 0 1 7.674259,-8.3116 7.6742585,8.3115977 0 0 1 7.674259,8.3116 z m 14.432897,-8.02465 h 2.04649 c 1.22822,0 2.21701,0.81679 2.21701,1.83136 v 5.07149 c 0,1.01458 -0.98879,1.83137 -2.21701,1.83137 h -2.04649 c -1.22822,0 -2.21702,-0.81679 -2.21702,-1.83137 v -5.07149 c 0,-1.01457 0.9888,-1.83136 2.21702,-1.83136 z m 9.37971,8.02466 a 7.6742585,8.3115977 0 0 1 -7.67431,8.3116 7.6742585,8.3115977 0 0 1 -7.6743,-8.3116 7.6742585,8.3115977 0 0 1 7.6743,-8.3116 7.6742585,8.3115977 0 0 1 7.67431,8.3116 z m -77.113119,18.43384 h 2.046472 c 1.228222,0 2.217006,0.81679 2.217006,1.83136 v 5.07149 c 0,1.01458 -0.988784,1.83137 -2.217006,1.83137 h -2.046472 c -1.228221,0 -2.217006,-0.81679 -2.217006,-1.83137 v -5.07149 c 0,-1.01457 0.988785,-1.83136 2.217006,-1.83136 z m 9.379651,8.02466 a 7.6742585,8.3115977 0 0 1 -7.674259,8.3116 7.6742585,8.3115977 0 0 1 -7.674259,-8.3116 7.6742585,8.3115977 0 0 1 7.674259,-8.3116 7.6742585,8.3115977 0 0 1 7.674259,8.3116 z m 17.607866,-7.49549 H 68.0491 c 1.228222,0 2.217006,0.81679 2.217006,1.83136 v 5.07149 c 0,1.01458 -0.988784,1.83137 -2.217006,1.83137 h -2.046472 c -1.228221,0 -2.217006,-0.81679 -2.217006,-1.83137 v -5.07149 c 0,-1.01457 0.988785,-1.83136 2.217006,-1.83136 z m 9.379651,8.02466 a 7.6742585,8.3115977 0 0 1 -7.674259,8.3116 7.6742585,8.3115977 0 0 1 -7.674259,-8.3116 7.6742585,8.3115977 0 0 1 7.674259,-8.3116 7.6742585,8.3115977 0 0 1 7.674259,8.3116 z m 11.787029,-9.083 h 2.046472 c 1.228222,0 2.217006,0.81679 2.217006,1.83136 v 5.07149 c 0,1.01458 -0.988784,1.83137 -2.217006,1.83137 h -2.046472 c -1.228221,0 -2.217006,-0.81679 -2.217006,-1.83137 v -5.07149 c 0,-1.01457 0.988785,-1.83136 2.217006,-1.83136 z m 9.379651,8.02466 a 7.6742585,8.3115977 0 0 1 -7.674259,8.3116 7.6742585,8.3115977 0 0 1 -7.674259,-8.3116 7.6742585,8.3115977 0 0 1 7.674259,-8.3116 7.6742585,8.3115977 0 0 1 7.674259,8.3116 z m 11.257901,-8.55383 h 2.04649 c 1.22822,0 2.21701,0.81679 2.21701,1.83136 v 5.07149 c 0,1.01458 -0.98879,1.83137 -2.21701,1.83137 h -2.04649 c -1.22822,0 -2.21702,-0.81679 -2.21702,-1.83137 v -5.07149 c 0,-1.01457 0.9888,-1.83136 2.21702,-1.83136 z m 9.37971,8.02466 a 7.6742585,8.3115977 0 0 1 -7.67431,8.3116 7.6742585,8.3115977 0 0 1 -7.6743,-8.3116 7.6742585,8.3115977 0 0 1 7.6743,-8.3116 7.6742585,8.3115977 0 0 1 7.67431,8.3116 z m -10.95944,-93.25216 h 2.04649 c 1.22822,0 2.21701,0.81679 2.21701,1.83136 v 5.07149 c 0,1.01458 -0.98879,1.83137 -2.21701,1.83137 h -2.04649 c -1.22822,0 -2.21702,-0.81679 -2.21702,-1.83137 v -5.07149 c 0,-1.01457 0.9888,-1.83136 2.21702,-1.83136 z m 9.37971,8.02466 a 7.6742585,8.3115977 0 0 1 -7.67431,8.3116 7.6742585,8.3115977 0 0 1 -7.67428,-8.3116 7.6742585,8.3115977 0 0 1 7.67428,-8.3116 7.6742585,8.3115977 0 0 1 7.67431,8.3116 z m -33.721406,-6.43715 h 2.046472 c 1.228222,0 2.217006,0.81679 2.217006,1.83136 v 5.07149 c 0,1.01458 -0.988784,1.83137 -2.217006,1.83137 h -2.046472 c -1.228221,0 -2.217006,-0.81679 -2.217006,-1.83137 v -5.07149 c 0,-1.01457 0.988785,-1.83136 2.217006,-1.83136 z m 9.379651,8.02466 a 7.6742585,8.3115977 0 0 1 -7.674259,8.3116 7.6742585,8.3115977 0 0 1 -7.674259,-8.3116 7.6742585,8.3115977 0 0 1 7.674259,-8.3116 7.6742585,8.3115977 0 0 1 7.674259,8.3116 z m -33.192166,-6.43715 h 2.046472 c 1.228222,0 2.217006,0.81679 2.217006,1.83136 v 5.07149 c 0,1.01458 -0.988784,1.83137 -2.217006,1.83137 h -2.046472 c -1.228221,0 -2.217006,-0.81679 -2.217006,-1.83137 v -5.07149 c 0,-1.01457 0.988785,-1.83136 2.217006,-1.83136 z m 9.379651,8.02466 a 7.6742585,8.3115977 0 0 1 -7.674259,8.3116 7.6742585,8.3115977 0 0 1 -7.674259,-8.3116 7.6742585,8.3115977 0 0 1 7.674259,-8.3116 7.6742585,8.3115977 0 0 1 7.674259,8.3116 z m -29.487997,-9.083 h 2.046472 c 1.228222,0 2.217006,0.81679 2.217006,1.83136 v 5.07149 c 0,1.01458 -0.988784,1.83137 -2.217006,1.83137 h -2.046472 c -1.228221,0 -2.217006,-0.81679 -2.217006,-1.83137 v -5.07149 c 0,-1.01457 0.988785,-1.83136 2.217006,-1.83136 z m 9.379651,8.02466 a 7.6742585,8.3115977 0 0 1 -7.674259,8.3116 7.6742585,8.3115977 0 0 1 -7.674259,-8.3116 7.6742585,8.3115977 0 0 1 7.674259,-8.3116 7.6742585,8.3115977 0 0 1 7.674259,8.3116 z M 155.5646,163.09072 h 9.16665 c 2.38268,0 4.30086,1.91819 4.30086,4.30087 v 1.15887 c 0,2.38268 -1.91818,4.30086 -4.30086,4.30086 h -9.16665 c -2.38268,0 -4.30087,-1.91818 -4.30087,-4.30086 v -1.15887 c 0,-2.38268 1.91819,-4.30087 4.30087,-4.30087 z m -25.90752,2e-5 h 9.16666 c 2.38267,0 4.30086,1.91818 4.30086,4.30086 v 1.15888 c 0,2.38267 -1.91819,4.30085 -4.30086,4.30085 h -9.16666 c -2.38268,0 -4.30086,-1.91818 -4.30086,-4.30085 v -1.15888 c 0,-2.38268 1.91818,-4.30086 4.30086,-4.30086 z m 25.90752,56.7752 h 9.16665 c 2.38268,0 4.30086,1.91819 4.30086,4.30087 v 1.15887 c 0,2.38268 -1.91818,4.30086 -4.30086,4.30086 h -9.16665 c -2.38268,0 -4.30087,-1.91818 -4.30087,-4.30086 v -1.15887 c 0,-2.38268 1.91819,-4.30087 4.30087,-4.30087 z m -25.90752,2e-5 h 9.16666 c 2.38267,0 4.30086,1.91818 4.30086,4.30086 v 1.15888 c 0,2.38267 -1.91819,4.30085 -4.30086,4.30085 h -9.16666 c -2.38268,0 -4.30086,-1.91818 -4.30086,-4.30085 v -1.15888 c 0,-2.38268 1.91818,-4.30086 4.30086,-4.30086 z m 25.90752,15.87508 h 9.16665 c 2.38268,0 4.30086,1.91819 4.30086,4.30087 v 1.15887 c 0,2.38268 -1.91818,4.30086 -4.30086,4.30086 h -9.16665 c -2.38268,0 -4.30087,-1.91818 -4.30087,-4.30086 v -1.15887 c 0,-2.38268 1.91819,-4.30087 4.30087,-4.30087 z m -25.90752,2e-5 h 9.16666 c 2.38267,0 4.30086,1.91818 4.30086,4.30086 v 1.15888 c 0,2.38267 -1.91819,4.30085 -4.30086,4.30085 h -9.16666 c -2.38268,0 -4.30086,-1.91818 -4.30086,-4.30085 v -1.15888 c 0,-2.38268 1.91818,-4.30086 4.30086,-4.30086 z M 155.5646,119.32368 h 9.16665 c 2.38268,0 4.30086,1.91819 4.30086,4.30087 v 1.15887 c 0,2.38268 -1.91818,4.30086 -4.30086,4.30086 h -9.16665 c -2.38268,0 -4.30087,-1.91818 -4.30087,-4.30086 v -1.15887 c 0,-2.38268 1.91819,-4.30087 4.30087,-4.30087 z m -25.90752,2e-5 h 9.16666 c 2.38267,0 4.30086,1.91818 4.30086,4.30086 v 1.15888 c 0,2.38267 -1.91819,4.30085 -4.30086,4.30085 h -9.16666 c -2.38268,0 -4.30086,-1.91818 -4.30086,-4.30085 v -1.15888 c 0,-2.38268 1.91818,-4.30086 4.30086,-4.30086 z m 25.90752,14.81674 h 9.16665 c 2.38268,0 4.30086,1.91819 4.30086,4.30087 v 1.15887 c 0,2.38268 -1.91818,4.30086 -4.30086,4.30086 h -9.16665 c -2.38268,0 -4.30087,-1.91818 -4.30087,-4.30086 v -1.15887 c 0,-2.38268 1.91819,-4.30087 4.30087,-4.30087 z m -25.90752,2e-5 h 9.16666 c 2.38267,0 4.30086,1.91818 4.30086,4.30086 v 1.15888 c 0,2.38267 -1.91819,4.30085 -4.30086,4.30085 h -9.16666 c -2.38268,0 -4.30086,-1.91818 -4.30086,-4.30085 v -1.15888 c 0,-2.38268 1.91818,-4.30086 4.30086,-4.30086 z" />
      <path
         id="path937"
         style="fill:none;fill-rule:evenodd;stroke:#000000;stroke-width:1.01711;stroke-linecap:round;stroke-linejoin:round;paint-order:stroke markers fill"
         d="m 119.48773,52.970583 h 1.57269 c 0.94387,0 1.70375,0.663071 1.70375,1.48669 v 4.117029 c 0,0.823629 -0.75988,1.4867 -1.70375,1.4867 h -1.57269 c -0.94388,0 -1.70375,-0.663071 -1.70375,-1.4867 v -4.117029 c 0,-0.823619 0.75987,-1.48669 1.70375,-1.48669 z m 7.20816,6.514401 a 5.8975531,6.7473389 0 0 1 -5.89759,6.747339 5.8975531,6.7473389 0 0 1 -5.89758,-6.747339 5.8975531,6.7473389 0 0 1 5.89758,-6.747339 5.8975531,6.7473389 0 0 1 5.89759,6.747339 z m -25.72911,-6.514401 h 1.57269 c 0.94387,0 1.70375,0.663071 1.70375,1.48669 v 4.117029 c 0,0.823629 -0.75988,1.4867 -1.70375,1.4867 h -1.57269 c -0.94388,0 -1.703742,-0.663071 -1.703742,-1.4867 v -4.117029 c 0,-0.823619 0.759862,-1.48669 1.703742,-1.48669 z m 7.20816,6.514401 a 5.8975531,6.7473389 0 0 1 -5.89759,6.747339 5.8975531,6.7473389 0 0 1 -5.897561,-6.747339 5.8975531,6.7473389 0 0 1 5.897561,-6.747339 5.8975531,6.7473389 0 0 1 5.89759,6.747339 z M 79.270928,52.970583 h 1.572684 c 0.943869,0 1.703735,0.663071 1.703735,1.48669 v 4.117029 c 0,0.823629 -0.759866,1.4867 -1.703735,1.4867 h -1.572684 c -0.94387,0 -1.703736,-0.663071 -1.703736,-1.4867 v -4.117029 c 0,-0.823619 0.759866,-1.48669 1.703736,-1.48669 z m 7.208122,6.514401 a 5.8975531,6.7473389 0 0 1 -5.897554,6.747339 5.8975531,6.7473389 0 0 1 -5.897553,-6.747339 5.8975531,6.7473389 0 0 1 5.897553,-6.747339 5.8975531,6.7473389 0 0 1 5.897554,6.747339 z M 58.633415,52.970583 h 1.572684 c 0.943869,0 1.703735,0.663071 1.703735,1.48669 v 4.117029 c 0,0.823629 -0.759866,1.4867 -1.703735,1.4867 h -1.572684 c -0.94387,0 -1.703736,-0.663071 -1.703736,-1.4867 v -4.117029 c 0,-0.823619 0.759866,-1.48669 1.703736,-1.48669 z m 7.208122,6.514401 a 5.8975531,6.7473389 0 0 1 -5.897554,6.747339 5.8975531,6.7473389 0 0 1 -5.897553,-6.747339 5.8975531,6.7473389 0 0 1 5.897553,-6.747339 5.8975531,6.7473389 0 0 1 5.897554,6.747339 z M 39.054236,52.970583 h 1.572684 c 0.943869,0 1.703735,0.663071 1.703735,1.48669 v 4.117029 c 0,0.823629 -0.759866,1.4867 -1.703735,1.4867 h -1.572684 c -0.94387,0 -1.703736,-0.663071 -1.703736,-1.4867 v -4.117029 c 0,-0.823619 0.759866,-1.48669 1.703736,-1.48669 z m 7.208122,6.514401 a 5.8975531,6.7473389 0 0 1 -5.897554,6.747339 5.8975531,6.7473389 0 0 1 -5.897553,-6.747339 5.8975531,6.7473389 0 0 1 5.897553,-6.747339 5.8975531,6.7473389 0 0 1 5.897554,6.747339 z M 116.7696,87.52789 h 5.09874 c 2.23622,0 4.0365,1.80027 4.0365,4.03648 0,2.23621 -1.80028,4.03648 -4.0365,4.03648 h -5.09874 c -2.23623,0 -4.0365,-1.80027 -4.0365,-4.03648 0,-2.23621 1.80027,-4.03648 4.0365,-4.03648 z m 0,-13.62001 h 5.09874 c 2.23622,0 4.0365,1.80027 4.0365,4.03648 0,2.23621 -1.80028,4.03648 -4.0365,4.03648 h -5.09874 c -2.23623,0 -4.0365,-1.80027 -4.0365,-4.03648 0,-2.23621 1.80027,-4.03648 4.0365,-4.03648 z m -16.40427,13.62001 h 5.09874 c 2.23622,0 4.0365,1.80027 4.0365,4.03648 0,2.23621 -1.80028,4.03648 -4.0365,4.03648 h -5.09874 c -2.236213,0 -4.036483,-1.80027 -4.036483,-4.03648 0,-2.23621 1.80027,-4.03648 4.036483,-4.03648 z m 0,-13.62001 h 5.09874 c 2.23622,0 4.0365,1.80027 4.0365,4.03648 0,2.23621 -1.80028,4.03648 -4.0365,4.03648 h -5.09874 c -2.236213,0 -4.036483,-1.80027 -4.036483,-4.03648 0,-2.23621 1.80027,-4.03648 4.036483,-4.03648 z M 78.140315,87.52789 h 5.098713 c 2.23621,0 4.03648,1.80027 4.03648,4.03648 0,2.23621 -1.80027,4.03648 -4.03648,4.03648 h -5.098713 c -2.236211,0 -4.036481,-1.80027 -4.036481,-4.03648 0,-2.23621 1.80027,-4.03648 4.036481,-4.03648 z m 0,-13.62001 h 5.098713 c 2.23621,0 4.03648,1.80027 4.03648,4.03648 0,2.23621 -1.80027,4.03648 -4.03648,4.03648 h -5.098713 c -2.236211,0 -4.036481,-1.80027 -4.036481,-4.03648 0,-2.23621 1.80027,-4.03648 4.036481,-4.03648 z M 58.031969,87.52789 h 5.098713 c 2.23621,0 4.03648,1.80027 4.03648,4.03648 0,2.23621 -1.80027,4.03648 -4.03648,4.03648 h -5.098713 c -2.236211,0 -4.036481,-1.80027 -4.036481,-4.03648 0,-2.23621 1.80027,-4.03648 4.036481,-4.03648 z m 0,-13.62001 h 5.098713 c 2.23621,0 4.03648,1.80027 4.03648,4.03648 0,2.23621 -1.80027,4.03648 -4.03648,4.03648 h -5.098713 c -2.236211,0 -4.036481,-1.80027 -4.036481,-4.03648 0,-2.23621 1.80027,-4.03648 4.036481,-4.03648 z M 38.452791,87.52789 h 5.098713 c 2.23621,0 4.03648,1.80027 4.03648,4.03648 0,2.23621 -1.80027,4.03648 -4.03648,4.03648 h -5.098713 c -2.236211,0 -4.036481,-1.80027 -4.036481,-4.03648 0,-2.23621 1.80027,-4.03648 4.036481,-4.03648 z m 0,-13.62001 h 5.098713 c 2.23621,0 4.03648,1.80027 4.03648,4.03648 0,2.23621 -1.80027,4.03648 -4.03648,4.03648 h -5.098713 c -2.236211,0 -4.036481,-1.80027 -4.036481,-4.03648 0,-2.23621 1.80027,-4.03648 4.036481,-4.03648 z M 167.88649,71.948858 h 9.16665 c 2.38268,0 4.30086,1.91819 4.30086,4.30087 v 1.15887 c 0,2.38268 -1.91818,4.30086 -4.30086,4.30086 h -9.16665 c -2.38268,0 -4.30087,-1.91818 -4.30087,-4.30086 v -1.15887 c 0,-2.38268 1.91819,-4.30087 4.30087,-4.30087 z m -25.90752,2e-5 h 9.16666 c 2.38267,0 4.30086,1.91818 4.30086,4.30086 v 1.15888 c 0,2.38267 -1.91819,4.30085 -4.30086,4.30085 h -9.16666 c -2.38268,0 -4.30086,-1.91818 -4.30086,-4.30085 v -1.15888 c 0,-2.38268 1.91818,-4.30086 4.30086,-4.30086 z m 25.90752,19.57922 h 9.16665 c 2.38268,0 4.30086,1.91819 4.30086,4.300866 v 1.158864 c 0,2.382668 -1.91818,4.300842 -4.30086,4.300842 h -9.16665 c -2.38268,0 -4.30087,-1.918174 -4.30087,-4.300842 v -1.158864 c 0,-2.382676 1.91819,-4.300866 4.30087,-4.300866 z m -25.90752,2e-5 h 9.16666 c 2.38267,0 4.30086,1.91818 4.30086,4.300856 v 1.158874 c 0,2.382658 -1.91819,4.300832 -4.30086,4.300832 h -9.16666 c -2.38268,0 -4.30086,-1.918174 -4.30086,-4.300832 v -1.158874 c 0,-2.382676 1.91818,-4.300856 4.30086,-4.300856 z m 2.31214,-41.795393 h 32.55039 c 1.77638,0 3.20647,0.814838 3.20647,1.826992 v 14.575837 c 0,1.012162 -1.43009,1.826999 -3.20647,1.826999 h -32.55039 c -1.77637,0 -3.20646,-0.814837 -3.20646,-1.826999 V 51.559717 c 0,-1.012154 1.43009,-1.826992 3.20646,-1.826992 z m 5.70195,3.429367 h 22.09682 c 1.77637,0 3.20645,0.814838 3.20645,1.826999 v 8.078083 c 0,1.012154 -1.43008,1.826992 -3.20645,1.826992 h -22.09682 c -1.77638,0 -3.20646,-0.814838 -3.20646,-1.826992 v -8.078083 c 0,-1.012161 1.43008,-1.826999 3.20646,-1.826999 z" />
      <path
         id="path1147"
         style="color:#000000;fill:#000000;-inkscape-stroke:none"
         d="m 106.05273,248.18945 c -22.365656,-0.50913 -44.843064,4.20008 -65.095699,13.71485 -7.863348,3.69423 -15.392594,8.09612 -22.46875,13.13672 l 0.59961,0.84179 c 7.0256,-5.00458 14.501424,-9.37708 22.308593,-13.04492 22.977221,-10.79479 48.852576,-15.36067 74.136716,-13.08203 25.28415,2.27864 49.92457,11.398 70.60157,26.12695 l 0.5996,-0.84179 c -20.82875,-14.83707 -45.63965,-24.01714 -71.10937,-26.3125 -3.18372,-0.28692 -6.37717,-0.46633 -9.57227,-0.53907 z m -87.214127,27.22652 -0.287109,1.80641 c 30.779437,5.2679 62.019907,7.63307 93.210936,7.0596 25.09105,-0.46132 50.15021,-2.82193 74.91016,-7.0596 l -0.28907,-1.80641 c -24.67513,4.22315 -49.64725,6.57759 -74.65234,7.03733 -31.084078,0.5715 -62.218679,-1.7875 -92.892577,-7.03733 z M 188.92063,106.69643 c -0.42476,33.03171 -2.97461,169.61059 -2.97461,169.61059 l 1.16407,0.0243 c 0,0 2.54959,-136.56696 2.9746,-169.61869 z m -167.83398,0 c -0.424764,33.03171 -2.974609,169.61059 -2.974609,169.61059 l 1.166015,0.0243 c 0,0 2.549588,-136.56696 2.97461,-169.61869 z m 1.820313,-62.286867 c -1.004761,0 -1.832032,0.857769 -1.832032,1.899571 V 105.4206 c 0,1.0418 0.827271,1.89958 1.832032,1.89958 H 188.26438 c 1.00476,0 1.83203,-0.85778 1.83203,-1.89958 V 46.309134 c 0,-1.041802 -0.82727,-1.899571 -1.83203,-1.899571 z m 0,1.233304 H 188.26438 c 0.36662,0 0.64258,0.286129 0.64258,0.666267 V 105.4206 c 0,0.38015 -0.27596,0.6683 -0.64258,0.6683 H 22.906963 c -0.366622,0 -0.642579,-0.28815 -0.642579,-0.6683 V 46.309134 c 0,-0.380138 0.275957,-0.666267 0.642579,-0.666267 z" />
    </g>
  </g>
</svg>
