<?xml version="1.0" encoding="UTF-8" standalone="no"?>
<!-- Created with Inkscape (http://www.inkscape.org/) -->

<svg
   width="210mm"
   height="297mm"
   viewBox="0 0 210 297"
   version="1.1"
   id="svg5"
   inkscape:version="1.1.2 (0a00cf5339, 2022-02-04, custom)"
   sodipodi:docname="encoder controller icon.svg"
   xmlns:inkscape="http://www.inkscape.org/namespaces/inkscape"
   xmlns:sodipodi="http://sodipodi.sourceforge.net/DTD/sodipodi-0.dtd"
   xmlns="http://www.w3.org/2000/svg"
   xmlns:svg="http://www.w3.org/2000/svg">
  <sodipodi:namedview
     id="namedview7"
     pagecolor="#ffffff"
     bordercolor="#666666"
     borderopacity="1.0"
     inkscape:pageshadow="2"
     inkscape:pageopacity="0.0"
     inkscape:pagecheckerboard="0"
     inkscape:document-units="mm"
     showgrid="false"
     inkscape:zoom="1.0824912"
     inkscape:cx="396.76997"
     inkscape:cy="296.07631"
     inkscape:window-width="1680"
     inkscape:window-height="956"
     inkscape:window-x="-11"
     inkscape:window-y="-11"
     inkscape:window-maximized="1"
     inkscape:current-layer="layer2" />
  <defs
     id="defs2">
    <inkscape:path-effect
       effect="spiro"
       id="path-effect1149"
       is_visible="true"
       lpeversion="1" />
    <inkscape:path-effect
       effect="spiro"
       id="path-effect1002"
       is_visible="true"
       lpeversion="1" />
  </defs>
  <g
     inkscape:label="Layer 1"
     inkscape:groupmode="layer"
     id="layer1">
    <g
       id="g1526"
       transform="matrix(0.40213151,0,0,0.35900368,-2.3430548,-11.473548)">
      <path
         id="path1924"
         style="fill:none;fill-rule:evenodd;stroke:#000000;stroke-width:1.28773;stroke-linecap:round;stroke-linejoin:round;paint-order:stroke markers fill"
         d="m 38.446966,165.75646 h 2.046472 c 1.228222,0 2.217006,0.81679 2.217006,1.83136 v 5.07149 c 0,1.01458 -0.988784,1.83137 -2.217006,1.83137 h -2.046472 c -1.228221,0 -2.217006,-0.81679 -2.217006,-1.83137 v -5.07149 c 0,-1.01457 0.988785,-1.83136 2.217006,-1.83136 z m 9.379651,8.02466 a 7.6742585,8.3115977 0 0 1 -7.674259,8.3116 7.6742585,8.3115977 0 0 1 -7.674259,-8.3116 7.6742585,8.3115977 0 0 1 7.674259,-8.3116 7.6742585,8.3115977 0 0 1 7.674259,8.3116 z m 11.03079,-7.59977 h 2.046472 c 1.228222,0 2.217006,0.81679 2.217006,1.83136 v 5.07149 c 0,1.01458 -0.988784,1.83137 -2.217006,1.83137 h -2.046472 c -1.228221,0 -2.217006,-0.81679 -2.217006,-1.83137 v -5.07149 c 0,-1.01457 0.988785,-1.83136 2.217006,-1.83136 z m 9.379651,8.02466 a 7.6742585,8.3115977 0 0 1 -7.674259,8.3116 7.6742585,8.3115977 0 0 1 -7.674259,-8.3116 7.6742585,8.3115977 0 0 1 7.674259,-8.3116 7.6742585,8.3115977 0 0 1 7.674259,8.3116 z m 11.343613,-8.03244 h 2.046472 c 1.228222,0 2.217006,0.81679 2.217006,1.83136 v 5.07149 c 0,1.01458 -0.988784,1.83137 -2.217006,1.83137 h -2.046472 c -1.228221,0 -2.217006,-0.81679 -2.217006,-1.83137 v -5.07149 c 0,-1.01457 0.988785,-1.83136 2.217006,-1.83136 z m 9.379651,8.02466 a 7.6742585,8.3115977 0 0 1 -7.674259,8.3116 7.6742585,8.3115977 0 0 1 -7.674259,-8.3116 7.6742585,8.3115977 0 0 1 7.674259,-8.3116 7.6742585,8.3115977 0 0 1 7.674259,8.3116 z m 16.202578,-8.44955 h 2.04648 c 1.22822,0 2.217,0.81679 2.217,1.83136 v 5.07149 c 0,1.01458 -0.98878,1.83137 -2.217,1.83137 h -2.04648 c -1.22822,0 -2.217,-0.81679 -2.217,-1.83137 v -5.07149 c 0,-1.01457 0.98878,-1.83136 2.217,-1.83136 z m 9.37966,8.02466 a 7.6742585,8.3115977 0 0 1 -7.67426,8.3116 7.6742585,8.3115977 0 0 1 -7.674254,-8.3116 7.6742585,8.3115977 0 0 1 7.674254,-8.3116 7.6742585,8.3115977 0 0 1 7.67426,8.3116 z m -74.998282,22.12554 h 2.046472 c 1.228222,0 2.217006,0.81679 2.217006,1.83136 v 5.07149 c 0,1.01458 -0.988784,1.83137 -2.217006,1.83137 h -2.046472 c -1.228221,0 -2.217006,-0.81679 -2.217006,-1.83137 v -5.07149 c 0,-1.01457 0.988785,-1.83136 2.217006,-1.83136 z m 9.379651,8.02466 a 7.6742585,8.3115977 0 0 1 -7.674259,8.3116 7.6742585,8.3115977 0 0 1 -7.674259,-8.3116 7.6742585,8.3115977 0 0 1 7.674259,-8.3116 7.6742585,8.3115977 0 0 1 7.674259,8.3116 z m 13.903697,-8.02465 h 2.046472 c 1.228222,0 2.217006,0.81679 2.217006,1.83136 v 5.07149 c 0,1.01458 -0.988784,1.83137 -2.217006,1.83137 h -2.046472 c -1.228221,0 -2.217006,-0.81679 -2.217006,-1.83137 v -5.07149 c 0,-1.01457 0.988785,-1.83136 2.217006,-1.83136 z m 9.379651,8.02466 a 7.6742585,8.3115977 0 0 1 -7.674259,8.3116 7.6742585,8.3115977 0 0 1 -7.674259,-8.3116 7.6742585,8.3115977 0 0 1 7.674259,-8.3116 7.6742585,8.3115977 0 0 1 7.674259,8.3116 z m 10.728695,-8.02467 h 2.046472 c 1.228222,0 2.217006,0.81679 2.217006,1.83136 v 5.07149 c 0,1.01458 -0.988784,1.83137 -2.217006,1.83137 h -2.046472 c -1.228221,0 -2.217006,-0.81679 -2.217006,-1.83137 v -5.07149 c 0,-1.01457 0.988785,-1.83136 2.217006,-1.83136 z m 9.379651,8.02466 a 7.6742585,8.3115977 0 0 1 -7.674259,8.3116 7.6742585,8.3115977 0 0 1 -7.674259,-8.3116 7.6742585,8.3115977 0 0 1 7.674259,-8.3116 7.6742585,8.3115977 0 0 1 7.674259,8.3116 z m 14.432897,-8.02465 h 2.04649 c 1.22822,0 2.21701,0.81679 2.21701,1.83136 v 5.07149 c 0,1.01458 -0.98879,1.83137 -2.21701,1.83137 h -2.04649 c -1.22822,0 -2.21702,-0.81679 -2.21702,-1.83137 v -5.07149 c 0,-1.01457 0.9888,-1.83136 2.21702,-1.83136 z m 9.37971,8.02466 a 7.6742585,8.3115977 0 0 1 -7.67431,8.3116 7.6742585,8.3115977 0 0 1 -7.6743,-8.3116 7.6742585,8.3115977 0 0 1 7.6743,-8.3116 7.6742585,8.3115977 0 0 1 7.67431,8.3116 z m -77.113119,18.43384 h 2.046472 c 1.228222,0 2.217006,0.81679 2.217006,1.83136 v 5.07149 c 0,1.01458 -0.988784,1.83137 -2.217006,1.83137 h -2.046472 c -1.228221,0 -2.217006,-0.81679 -2.217006,-1.83137 v -5.07149 c 0,-1.01457 0.988785,-1.83136 2.217006,-1.83136 z m 9.379651,8.02466 a 7.6742585,8.3115977 0 0 1 -7.674259,8.3116 7.6742585,8.3115977 0 0 1 -7.674259,-8.3116 7.6742585,8.3115977 0 0 1 7.674259,-8.3116 7.6742585,8.3115977 0 0 1 7.674259,8.3116 z m 17.607866,-7.49549 H 68.0491 c 1.228222,0 2.217006,0.81679 2.217006,1.83136 v 5.07149 c 0,1.01458 -0.988784,1.83137 -2.217006,1.83137 h -2.046472 c -1.228221,0 -2.217006,-0.81679 -2.217006,-1.83137 v -5.07149 c 0,-1.01457 0.988785,-1.83136 2.217006,-1.83136 z m 9.379651,8.02466 a 7.6742585,8.3115977 0 0 1 -7.674259,8.3116 7.6742585,8.3115977 0 0 1 -7.674259,-8.3116 7.6742585,8.3115977 0 0 1 7.674259,-8.3116 7.6742585,8.3115977 0 0 1 7.674259,8.3116 z m 11.787029,-9.083 h 2.046472 c 1.228222,0 2.217006,0.81679 2.217006,1.83136 v 5.07149 c 0,1.01458 -0.988784,1.83137 -2.217006,1.83137 h -2.046472 c -1.228221,0 -2.217006,-0.81679 -2.217006,-1.83137 v -5.07149 c 0,-1.01457 0.988785,-1.83136 2.217006,-1.83136 z m 9.379651,8.02466 a 7.6742585,8.3115977 0 0 1 -7.674259,8.3116 7.6742585,8.3115977 0 0 1 -7.674259,-8.3116 7.6742585,8.3115977 0 0 1 7.674259,-8.3116 7.6742585,8.3115977 0 0 1 7.674259,8.3116 z m 11.257901,-8.55383 h 2.04649 c 1.22822,0 2.21701,0.81679 2.21701,1.83136 v 5.07149 c 0,1.01458 -0.98879,1.83137 -2.21701,1.83137 h -2.04649 c -1.22822,0 -2.21702,-0.81679 -2.21702,-1.83137 v -5.07149 c 0,-1.01457 0.9888,-1.83136 2.21702,-1.83136 z m 9.37971,8.02466 a 7.6742585,8.3115977 0 0 1 -7.67431,8.3116 7.6742585,8.3115977 0 0 1 -7.6743,-8.3116 7.6742585,8.3115977 0 0 1 7.6743,-8.3116 7.6742585,8.3115977 0 0 1 7.67431,8.3116 z m -10.95944,-93.25216 h 2.04649 c 1.22822,0 2.21701,0.81679 2.21701,1.83136 v 5.07149 c 0,1.01458 -0.98879,1.83137 -2.21701,1.83137 h -2.04649 c -1.22822,0 -2.21702,-0.81679 -2.21702,-1.83137 v -5.07149 c 0,-1.01457 0.9888,-1.83136 2.21702,-1.83136 z m 9.37971,8.02466 a 7.6742585,8.3115977 0 0 1 -7.67431,8.3116 7.6742585,8.3115977 0 0 1 -7.67428,-8.3116 7.6742585,8.3115977 0 0 1 7.67428,-8.3116 7.6742585,8.3115977 0 0 1 7.67431,8.3116 z m -33.721406,-6.43715 h 2.046472 c 1.228222,0 2.217006,0.81679 2.217006,1.83136 v 5.07149 c 0,1.01458 -0.988784,1.83137 -2.217006,1.83137 h -2.046472 c -1.228221,0 -2.217006,-0.81679 -2.217006,-1.83137 v -5.07149 c 0,-1.01457 0.988785,-1.83136 2.217006,-1.83136 z m 9.379651,8.02466 a 7.6742585,8.3115977 0 0 1 -7.674259,8.3116 7.6742585,8.3115977 0 0 1 -7.674259,-8.3116 7.6742585,8.3115977 0 0 1 7.674259,-8.3116 7.6742585,8.3115977 0 0 1 7.674259,8.3116 z m -33.192166,-6.43715 h 2.046472 c 1.228222,0 2.217006,0.81679 2.217006,1.83136 v 5.07149 c 0,1.01458 -0.988784,1.83137 -2.217006,1.83137 h -2.046472 c -1.228221,0 -2.217006,-0.81679 -2.217006,-1.83137 v -5.07149 c 0,-1.01457 0.988785,-1.83136 2.217006,-1.83136 z m 9.379651,8.02466 a 7.6742585,8.3115977 0 0 1 -7.674259,8.3116 7.6742585,8.3115977 0 0 1 -7.674259,-8.3116 7.6742585,8.3115977 0 0 1 7.674259,-8.3116 7.6742585,8.3115977 0 0 1 7.674259,8.3116 z m -29.487997,-9.083 h 2.046472 c 1.228222,0 2.217006,0.81679 2.217006,1.83136 v 5.07149 c 0,1.01458 -0.988784,1.83137 -2.217006,1.83137 h -2.046472 c -1.228221,0 -2.217006,-0.81679 -2.217006,-1.83137 v -5.07149 c 0,-1.01457 0.988785,-1.83136 2.217006,-1.83136 z m 9.379651,8.02466 a 7.6742585,8.3115977 0 0 1 -7.674259,8.3116 7.6742585,8.3115977 0 0 1 -7.674259,-8.3116 7.6742585,8.3115977 0 0 1 7.674259,-8.3116 7.6742585,8.3115977 0 0 1 7.674259,8.3116 z M 155.5646,163.09072 h 9.16665 c 2.38268,0 4.30086,1.91819 4.30086,4.30087 v 1.15887 c 0,2.38268 -1.91818,4.30086 -4.30086,4.30086 h -9.16665 c -2.38268,0 -4.30087,-1.91818 -4.30087,-4.30086 v -1.15887 c 0,-2.38268 1.91819,-4.30087 4.30087,-4.30087 z m -25.90752,2e-5 h 9.16666 c 2.38267,0 4.30086,1.91818 4.30086,4.30086 v 1.15888 c 0,2.38267 -1.91819,4.30085 -4.30086,4.30085 h -9.16666 c -2.38268,0 -4.30086,-1.91818 -4.30086,-4.30085 v -1.15888 c 0,-2.38268 1.91818,-4.30086 4.30086,-4.30086 z m 25.90752,56.7752 h 9.16665 c 2.38268,0 4.30086,1.91819 4.30086,4.30087 v 1.15887 c 0,2.38268 -1.91818,4.30086 -4.30086,4.30086 h -9.16665 c -2.38268,0 -4.30087,-1.91818 -4.30087,-4.30086 v -1.15887 c 0,-2.38268 1.91819,-4.30087 4.30087,-4.30087 z m -25.90752,2e-5 h 9.16666 c 2.38267,0 4.30086,1.91818 4.30086,4.30086 v 1.15888 c 0,2.38267 -1.91819,4.30085 -4.30086,4.30085 h -9.16666 c -2.38268,0 -4.30086,-1.91818 -4.30086,-4.30085 v -1.15888 c 0,-2.38268 1.91818,-4.30086 4.30086,-4.30086 z m 25.90752,15.87508 h 9.16665 c 2.38268,0 4.30086,1.91819 4.30086,4.30087 v 1.15887 c 0,2.38268 -1.91818,4.30086 -4.30086,4.30086 h -9.16665 c -2.38268,0 -4.30087,-1.91818 -4.30087,-4.30086 v -1.15887 c 0,-2.38268 1.91819,-4.30087 4.30087,-4.30087 z m -25.90752,2e-5 h 9.16666 c 2.38267,0 4.30086,1.91818 4.30086,4.30086 v 1.15888 c 0,2.38267 -1.91819,4.30085 -4.30086,4.30085 h -9.16666 c -2.38268,0 -4.30086,-1.91818 -4.30086,-4.30085 v -1.15888 c 0,-2.38268 1.91818,-4.30086 4.30086,-4.30086 z M 155.5646,119.32368 h 9.16665 c 2.38268,0 4.30086,1.91819 4.30086,4.30087 v 1.15887 c 0,2.38268 -1.91818,4.30086 -4.30086,4.30086 h -9.16665 c -2.38268,0 -4.30087,-1.91818 -4.30087,-4.30086 v -1.15887 c 0,-2.38268 1.91819,-4.30087 4.30087,-4.30087 z m -25.90752,2e-5 h 9.16666 c 2.38267,0 4.30086,1.91818 4.30086,4.30086 v 1.15888 c 0,2.38267 -1.91819,4.30085 -4.30086,4.30085 h -9.16666 c -2.38268,0 -4.30086,-1.91818 -4.30086,-4.30085 v -1.15888 c 0,-2.38268 1.91818,-4.30086 4.30086,-4.30086 z m 25.90752,14.81674 h 9.16665 c 2.38268,0 4.30086,1.91819 4.30086,4.30087 v 1.15887 c 0,2.38268 -1.91818,4.30086 -4.30086,4.30086 h -9.16665 c -2.38268,0 -4.30087,-1.91818 -4.30087,-4.30086 v -1.15887 c 0,-2.38268 1.91819,-4.30087 4.30087,-4.30087 z m -25.90752,2e-5 h 9.16666 c 2.38267,0 4.30086,1.91818 4.30086,4.30086 v 1.15888 c 0,2.38267 -1.91819,4.30085 -4.30086,4.30085 h -9.16666 c -2.38268,0 -4.30086,-1.91818 -4.30086,-4.30085 v -1.15888 c 0,-2.38268 1.91818,-4.30086 4.30086,-4.30086 z" />
      <path
         id="path937"
         style="fill:none;fill-rule:evenodd;stroke:#000000;stroke-width:1.01711;stroke-linecap:round;stroke-linejoin:round;paint-order:stroke markers fill"
         d="m 119.48773,52.970583 h 1.57269 c 0.94387,0 1.70375,0.663071 1.70375,1.48669 v 4.117029 c 0,0.823629 -0.75988,1.4867 -1.70375,1.4867 h -1.57269 c -0.94388,0 -1.70375,-0.663071 -1.70375,-1.4867 v -4.117029 c 0,-0.823619 0.75987,-1.48669 1.70375,-1.48669 z m 7.20816,6.514401 a 5.8975531,6.7473389 0 0 1 -5.89759,6.747339 5.8975531,6.7473389 0 0 1 -5.89758,-6.747339 5.8975531,6.7473389 0 0 1 5.89758,-6.747339 5.8975531,6.7473389 0 0 1 5.89759,6.747339 z m -25.72911,-6.514401 h 1.57269 c 0.94387,0 1.70375,0.663071 1.70375,1.48669 v 4.117029 c 0,0.823629 -0.75988,1.4867 -1.70375,1.4867 h -1.57269 c -0.94388,0 -1.703742,-0.663071 -1.703742,-1.4867 v -4.117029 c 0,-0.823619 0.759862,-1.48669 1.703742,-1.48669 z m 7.20816,6.514401 a 5.8975531,6.7473389 0 0 1 -5.89759,6.747339 5.8975531,6.7473389 0 0 1 -5.897561,-6.747339 5.8975531,6.7473389 0 0 1 5.897561,-6.747339 5.8975531,6.7473389 0 0 1 5.89759,6.747339 z M 79.270928,52.970583 h 1.572684 c 0.943869,0 1.703735,0.663071 1.703735,1.48669 v 4.117029 c 0,0.823629 -0.759866,1.4867 -1.703735,1.4867 h -1.572684 c -0.94387,0 -1.703736,-0.663071 -1.703736,-1.4867 v -4.117029 c 0,-0.823619 0.759866,-1.48669 1.703736,-1.48669 z m 7.208122,6.514401 a 5.8975531,6.7473389 0 0 1 -5.897554,6.747339 5.8975531,6.7473389 0 0 1 -5.897553,-6.747339 5.8975531,6.7473389 0 0 1 5.897553,-6.747339 5.8975531,6.7473389 0 0 1 5.897554,6.747339 z M 58.633415,52.970583 h 1.572684 c 0.943869,0 1.703735,0.663071 1.703735,1.48669 v 4.117029 c 0,0.823629 -0.759866,1.4867 -1.703735,1.4867 h -1.572684 c -0.94387,0 -1.703736,-0.663071 -1.703736,-1.4867 v -4.117029 c 0,-0.823619 0.759866,-1.48669 1.703736,-1.48669 z m 7.208122,6.514401 a 5.8975531,6.7473389 0 0 1 -5.897554,6.747339 5.8975531,6.7473389 0 0 1 -5.897553,-6.747339 5.8975531,6.7473389 0 0 1 5.897553,-6.747339 5.8975531,6.7473389 0 0 1 5.897554,6.747339 z M 39.054236,52.970583 h 1.572684 c 0.943869,0 1.703735,0.663071 1.703735,1.48669 v 4.117029 c 0,0.823629 -0.759866,1.4867 -1.703735,1.4867 h -1.572684 c -0.94387,0 -1.703736,-0.663071 -1.703736,-1.4867 v -4.117029 c 0,-0.823619 0.759866,-1.48669 1.703736,-1.48669 z m 7.208122,6.514401 a 5.8975531,6.7473389 0 0 1 -5.897554,6.747339 5.8975531,6.7473389 0 0 1 -5.897553,-6.747339 5.8975531,6.7473389 0 0 1 5.897553,-6.747339 5.8975531,6.7473389 0 0 1 5.897554,6.747339 z M 116.7696,87.52789 h 5.09874 c 2.23622,0 4.0365,1.80027 4.0365,4.03648 0,2.23621 -1.80028,4.03648 -4.0365,4.03648 h -5.09874 c -2.23623,0 -4.0365,-1.80027 -4.0365,-4.03648 0,-2.23621 1.80027,-4.03648 4.0365,-4.03648 z m 0,-13.62001 h 5.09874 c 2.23622,0 4.0365,1.80027 4.0365,4.03648 0,2.23621 -1.80028,4.03648 -4.0365,4.03648 h -5.09874 c -2.23623,0 -4.0365,-1.80027 -4.0365,-4.03648 0,-2.23621 1.80027,-4.03648 4.0365,-4.03648 z m -16.40427,13.62001 h 5.09874 c 2.23622,0 4.0365,1.80027 4.0365,4.03648 0,2.23621 -1.80028,4.03648 -4.0365,4.03648 h -5.09874 c -2.236213,0 -4.036483,-1.80027 -4.036483,-4.03648 0,-2.23621 1.80027,-4.03648 4.036483,-4.03648 z m 0,-13.62001 h 5.09874 c 2.23622,0 4.0365,1.80027 4.0365,4.03648 0,2.23621 -1.80028,4.03648 -4.0365,4.03648 h -5.09874 c -2.236213,0 -4.036483,-1.80027 -4.036483,-4.03648 0,-2.23621 1.80027,-4.03648 4.036483,-4.03648 z M 78.140315,87.52789 h 5.098713 c 2.23621,0 4.03648,1.80027 4.03648,4.03648 0,2.23621 -1.80027,4.03648 -4.03648,4.03648 h -5.098713 c -2.236211,0 -4.036481,-1.80027 -4.036481,-4.03648 0,-2.23621 1.80027,-4.03648 4.036481,-4.03648 z m 0,-13.62001 h 5.098713 c 2.23621,0 4.03648,1.80027 4.03648,4.03648 0,2.23621 -1.80027,4.03648 -4.03648,4.03648 h -5.098713 c -2.236211,0 -4.036481,-1.80027 -4.036481,-4.03648 0,-2.23621 1.80027,-4.03648 4.036481,-4.03648 z M 58.031969,87.52789 h 5.098713 c 2.23621,0 4.03648,1.80027 4.03648,4.03648 0,2.23621 -1.80027,4.03648 -4.03648,4.03648 h -5.098713 c -2.236211,0 -4.036481,-1.80027 -4.036481,-4.03648 0,-2.23621 1.80027,-4.03648 4.036481,-4.03648 z m 0,-13.62001 h 5.098713 c 2.23621,0 4.03648,1.80027 4.03648,4.03648 0,2.23621 -1.80027,4.03648 -4.03648,4.03648 h -5.098713 c -2.236211,0 -4.036481,-1.80027 -4.036481,-4.03648 0,-2.23621 1.80027,-4.03648 4.036481,-4.03648 z M 38.452791,87.52789 h 5.098713 c 2.23621,0 4.03648,1.80027 4.03648,4.03648 0,2.23621 -1.80027,4.03648 -4.03648,4.03648 h -5.098713 c -2.236211,0 -4.036481,-1.80027 -4.036481,-4.03648 0,-2.23621 1.80027,-4.03648 4.036481,-4.03648 z m 0,-13.62001 h 5.098713 c 2.23621,0 4.03648,1.80027 4.03648,4.03648 0,2.23621 -1.80027,4.03648 -4.03648,4.03648 h -5.098713 c -2.236211,0 -4.036481,-1.80027 -4.036481,-4.03648 0,-2.23621 1.80027,-4.03648 4.036481,-4.03648 z M 167.88649,71.948858 h 9.16665 c 2.38268,0 4.30086,1.91819 4.30086,4.30087 v 1.15887 c 0,2.38268 -1.91818,4.30086 -4.30086,4.30086 h -9.16665 c -2.38268,0 -4.30087,-1.91818 -4.30087,-4.30086 v -1.15887 c 0,-2.38268 1.91819,-4.30087 4.30087,-4.30087 z m -25.90752,2e-5 h 9.16666 c 2.38267,0 4.30086,1.91818 4.30086,4.30086 v 1.15888 c 0,2.38267 -1.91819,4.30085 -4.30086,4.30085 h -9.16666 c -2.38268,0 -4.30086,-1.91818 -4.30086,-4.30085 v -1.15888 c 0,-2.38268 1.91818,-4.30086 4.30086,-4.30086 z m 25.90752,19.57922 h 9.16665 c 2.38268,0 4.30086,1.91819 4.30086,4.300866 v 1.158864 c 0,2.382668 -1.91818,4.300842 -4.30086,4.300842 h -9.16665 c -2.38268,0 -4.30087,-1.918174 -4.30087,-4.300842 v -1.158864 c 0,-2.382676 1.91819,-4.300866 4.30087,-4.300866 z m -25.90752,2e-5 h 9.16666 c 2.38267,0 4.30086,1.91818 4.30086,4.300856 v 1.158874 c 0,2.382658 -1.91819,4.300832 -4.30086,4.300832 h -9.16666 c -2.38268,0 -4.30086,-1.918174 -4.30086,-4.300832 v -1.158874 c 0,-2.382676 1.91818,-4.300856 4.30086,-4.300856 z m 2.31214,-41.795393 h 32.55039 c 1.77638,0 3.20647,0.814838 3.20647,1.826992 v 14.575837 c 0,1.012162 -1.43009,1.826999 -3.20647,1.826999 h -32.55039 c -1.77637,0 -3.20646,-0.814837 -3.20646,-1.826999 V 51.559717 c 0,-1.012154 1.43009,-1.826992 3.20646,-1.826992 z m 5.70195,3.429367 h 22.09682 c 1.77637,0 3.20645,0.814838 3.20645,1.826999 v 8.078083 c 0,1.012154 -1.43008,1.826992 -3.20645,1.826992 h -22.09682 c -1.77638,0 -3.20646,-0.814838 -3.20646,-1.826992 v -8.078083 c 0,-1.012161 1.43008,-1.826999 3.20646,-1.826999 z" />
      <path
         id="path1147"
         style="color:#000000;fill:#000000;-inkscape-stroke:none"
         d="m 106.05273,248.18945 c -22.365656,-0.50913 -44.843064,4.20008 -65.095699,13.71485 -7.863348,3.69423 -15.392594,8.09612 -22.46875,13.13672 l 0.59961,0.84179 c 7.0256,-5.00458 14.501424,-9.37708 22.308593,-13.04492 22.977221,-10.79479 48.852576,-15.36067 74.136716,-13.08203 25.28415,2.27864 49.92457,11.398 70.60157,26.12695 l 0.5996,-0.84179 c -20.82875,-14.83707 -45.63965,-24.01714 -71.10937,-26.3125 -3.18372,-0.28692 -6.37717,-0.46633 -9.57227,-0.53907 z m -87.214127,27.22652 -0.287109,1.80641 c 30.779437,5.2679 62.019907,7.63307 93.210936,7.0596 25.09105,-0.46132 50.15021,-2.82193 74.91016,-7.0596 l -0.28907,-1.80641 c -24.67513,4.22315 -49.64725,6.57759 -74.65234,7.03733 -31.084078,0.5715 -62.218679,-1.7875 -92.892577,-7.03733 z M 188.92063,106.69643 c -0.42476,33.03171 -2.97461,169.61059 -2.97461,169.61059 l 1.16407,0.0243 c 0,0 2.54959,-136.56696 2.9746,-169.61869 z m -167.83398,0 c -0.424764,33.03171 -2.974609,169.61059 -2.974609,169.61059 l 1.166015,0.0243 c 0,0 2.549588,-136.56696 2.97461,-169.61869 z m 1.820313,-62.286867 c -1.004761,0 -1.832032,0.857769 -1.832032,1.899571 V 105.4206 c 0,1.0418 0.827271,1.89958 1.832032,1.89958 H 188.26438 c 1.00476,0 1.83203,-0.85778 1.83203,-1.89958 V 46.309134 c 0,-1.041802 -0.82727,-1.899571 -1.83203,-1.899571 z m 0,1.233304 H 188.26438 c 0.36662,0 0.64258,0.286129 0.64258,0.666267 V 105.4206 c 0,0.38015 -0.27596,0.6683 -0.64258,0.6683 H 22.906963 c -0.366622,0 -0.642579,-0.28815 -0.642579,-0.6683 V 46.309134 c 0,-0.380138 0.275957,-0.666267 0.642579,-0.666267 z" />
    </g>
  </g>
  <g
     inkscape:groupmode="layer"
     id="layer2"
     inkscape:label="Layer 2">
    <path
       style="fill:#000000;stroke-width:0.264583"
       d="m 141.88136,90.75597 c -10.65084,-0.50448 -24.48573,-1.91996 -25.19884,-2.57816 -0.26085,-0.24077 -0.21733,-5.61048 0.21255,-26.22519 0.29731,-14.257342 0.62351,-32.947125 0.72489,-41.532854 l 0.18432,-15.6104156 h 33.73437 33.73438 l 0.0817,9.7895826 c 0.0705,8.441977 -0.197,26.229622 -0.96798,64.373057 -0.13934,6.89351 -0.26428,9.12511 -0.51973,9.28298 -0.43728,0.27026 -7.98163,1.23844 -13.54296,1.73799 -8.87567,0.79727 -20.90587,1.12 -28.44271,0.76301 z m -18.91771,-6.76066 c 6.05991,-2.92705 13.67231,-5.08047 20.33481,-5.75235 3.50493,-0.35346 11.43063,-0.3562 14.33255,-0.005 5.08883,0.61595 11.29416,2.14557 15.6689,3.8624 2.67905,1.05137 7.49047,3.38917 9.21234,4.47613 0.60004,0.3788 1.12696,0.65035 1.17094,0.60347 0.0696,-0.0742 0.53545,-21.62004 1.10158,-50.95139 l 0.17491,-9.061979 h -33.51156 -33.51155 l -0.003,2.976563 c -0.003,2.714982 -0.50094,28.310386 -0.95005,48.842836 l -0.18145,8.29544 1.42733,-0.84434 c 0.78504,-0.46439 2.91562,-1.56321 4.73463,-2.44183 z m 36.82698,-7.3619 c -0.83952,-0.78212 -0.78253,-2.17248 0.11808,-2.8809 0.59121,-0.46505 1.06919,-0.54837 3.14569,-0.54837 2.77405,0 3.44674,0.31921 3.72656,1.7684 0.13121,0.67946 0.0314,0.97366 -0.51634,1.52135 -0.63709,0.63709 -0.83994,0.679 -3.28696,0.679 -2.25886,0 -2.68549,-0.0722 -3.18703,-0.53948 z m 10.38912,-0.10996 c -0.35718,-0.35718 -0.64943,-0.95791 -0.64943,-1.33494 0,-0.37703 0.29225,-0.97775 0.64943,-1.33494 0.59924,-0.59924 0.84557,-0.64943 3.18703,-0.64943 2.34146,0 2.58779,0.0502 3.18703,0.64943 0.88376,0.88377 0.86362,2.0541 -0.0477,2.77095 -0.59311,0.46653 -1.06871,0.54837 -3.18703,0.54837 -2.2908,0 -2.54181,-0.0519 -3.13932,-0.64944 z m -46.04791,-2.10789 c -2.30123,-1.00196 -2.62815,-4.12756 -0.58166,-5.56099 0.77965,-0.54608 2.71261,-0.52582 3.66785,0.0385 2.15312,1.27188 1.88953,4.55467 -0.444,5.52968 -1.08258,0.45233 -1.59003,0.45096 -2.64219,-0.007 z m 1.95585,-4.20486 0.0813,-1.27365 -1.00738,0.083 c -0.9293,0.0766 -1.01394,0.15162 -1.09216,0.96811 -0.12939,1.35065 0.0908,1.67407 1.07516,1.57921 0.82848,-0.0798 0.86485,-0.13216 0.94304,-1.35669 z m 7.82971,3.68135 c -1.18084,-1.18084 -1.26995,-2.85298 -0.21862,-4.10242 2.44429,-2.90487 7.1644,-0.18517 5.55709,3.20197 -0.56019,1.18052 -1.66032,1.80004 -3.19648,1.80004 -1.06015,0 -1.37436,-0.13196 -2.14199,-0.89959 z m 2.65066,-2.17143 c 0.29437,-0.11296 0.41851,-0.50784 0.41851,-1.33122 0,-1.28658 -0.33771,-1.59042 -1.4558,-1.3098 -0.56457,0.1417 -0.66087,0.31744 -0.66087,1.20601 0,1.26959 0.66494,1.83149 1.69816,1.43501 z m 6.87922,2.55009 c -0.97476,-0.39433 -1.96279,-1.8199 -1.96279,-2.83199 0,-2.8724 3.4888,-4.31636 5.58248,-2.3105 2.49009,2.38567 -0.37445,6.45533 -3.61969,5.14249 z m 2.00596,-4.25755 v -1.33888 l -0.99219,0.0821 c -0.91228,0.0755 -0.99902,0.15341 -1.07698,0.96721 -0.12679,1.3236 0.0857,1.62845 1.13482,1.62845 h 0.93435 z m 5.40374,3.38926 c -1.8566,-1.70145 -1.29098,-4.36548 1.10411,-5.20025 1.37353,-0.47873 2.33487,-0.23115 3.45608,0.89006 2.03414,2.03415 0.48962,5.17024 -2.54635,5.17024 -0.8444,0 -1.27691,-0.18471 -2.01384,-0.86005 z m 2.93063,-3.63787 c 0,-1.18432 -0.005,-1.19062 -0.92604,-1.19062 -0.91882,0 -0.92668,0.01 -1.00737,1.27365 l -0.0813,1.27364 1.00737,-0.083 c 1.00523,-0.0828 1.00737,-0.0856 1.00737,-1.27365 z m 5.86184,1.10365 c -0.59176,-0.6539 -0.56574,-2.22883 0.046,-2.78243 0.38616,-0.34948 1.05001,-0.43788 3.28808,-0.43788 2.71432,0 2.82182,0.0224 3.35261,0.69714 0.3016,0.38342 0.54837,0.90315 0.54837,1.15494 0,0.25179 -0.24677,0.77152 -0.54837,1.15494 -0.53178,0.67605 -0.63459,0.69714 -3.39858,0.69714 -2.42521,0 -2.9155,-0.0721 -3.28809,-0.48385 z m 10.41004,-0.0453 c -0.29398,-0.29398 -0.52917,-0.88195 -0.52917,-1.32292 0,-1.51205 0.70435,-1.85208 3.83646,-1.85208 3.13211,0 3.83646,0.34003 3.83646,1.85208 0,1.51206 -0.70435,1.85208 -3.83646,1.85208 -2.42535,0 -2.84532,-0.0672 -3.30729,-0.52916 z M 124.1407,64.85616 c -1.0661,-0.52615 -1.70621,-1.66299 -1.70621,-3.03023 0,-0.9097 0.1624,-1.27251 0.89958,-2.0097 0.78428,-0.78427 1.06994,-0.89958 2.22866,-0.89958 1.6311,0 2.7948,0.85185 3.25302,2.38127 0.26247,0.87603 0.23336,1.15821 -0.20701,2.00678 -0.55407,1.06767 -1.92905,1.96558 -2.99513,1.95593 -0.36607,-0.003 -1.02888,-0.18533 -1.47291,-0.40447 z m 2.21089,-4.15357 0.0806,-1.25677 h -1.07283 -1.07283 v 1.14652 c 0,1.37823 0.13856,1.54783 1.18112,1.4457 0.75755,-0.0742 0.80784,-0.15019 0.8839,-1.33545 z m 7.32769,4.19298 c -1.72993,-0.76361 -2.45424,-2.71533 -1.61208,-4.34388 1.10971,-2.14596 4.74221,-2.1809 5.84093,-0.0562 0.84621,1.63638 0.109,3.68436 -1.58031,4.39021 -1.1093,0.46349 -1.61659,0.46538 -2.64854,0.01 z m 1.93341,-4.20986 0.0813,-1.27365 -1.00738,0.083 c -0.82667,0.0681 -1.02317,0.19464 -1.09545,0.70525 -0.0484,0.34222 -0.0146,0.91501 0.0752,1.27286 0.13734,0.5472 0.29856,0.63756 1.01411,0.5684 0.81559,-0.0788 0.85419,-0.13498 0.93215,-1.35588 z m 5.9508,4.15122 c -2.09015,-1.03064 -2.38787,-3.7207 -0.58013,-5.24181 0.63127,-0.53118 1.09484,-0.67847 2.13539,-0.67847 1.15872,0 1.44438,0.11531 2.22865,0.89958 1.55767,1.55767 1.16202,4.09519 -0.78239,5.01787 -1.13436,0.53829 -1.91412,0.53902 -3.00152,0.003 z m 2.2506,-4.13434 0.0806,-1.25677 h -1.07283 -1.07283 v 1.14652 c 0,1.37823 0.13856,1.54783 1.18112,1.4457 0.75755,-0.0742 0.80784,-0.15019 0.8839,-1.33545 z m 7.31411,4.15357 c -1.0661,-0.52615 -1.70621,-1.66299 -1.70621,-3.03023 0,-0.9097 0.1624,-1.27251 0.89958,-2.0097 0.78148,-0.78148 1.07205,-0.89958 2.21328,-0.89958 3.54416,0 4.68604,4.43175 1.52801,5.93033 -1.09736,0.52073 -1.8931,0.52322 -2.93466,0.009 z m 2.21089,-4.15357 0.0806,-1.25677 h -1.07283 -1.07283 v 1.14652 c 0,1.37823 0.13856,1.54783 1.18112,1.4457 0.75755,-0.0742 0.80784,-0.15019 0.8839,-1.33545 z m -29.86943,-6.88712 c -2.78748,-1.878477 -1.60605,-5.746746 1.75514,-5.746746 1.76522,0 3.29628,1.433185 3.29411,3.083531 -0.002,1.648495 -1.74734,3.266465 -3.52326,3.266465 -0.34695,0 -1.03365,-0.27146 -1.52599,-0.60325 z m 2.35345,-3.977686 0.0813,-1.273646 -1.00737,0.08302 c -0.82668,0.06813 -1.02317,0.194635 -1.09545,0.705247 -0.0484,0.342223 -0.0146,0.915008 0.0752,1.272857 0.13734,0.547198 0.29856,0.637562 1.01412,0.568402 0.81558,-0.07883 0.85419,-0.134977 0.93215,-1.355881 z m 5.71842,4.082076 c -1.67429,-1.02098 -1.87802,-3.509121 -0.39668,-4.844764 2.71518,-2.448144 6.83788,0.550646 5.17578,3.764784 -0.78622,1.5204 -3.17254,2.05966 -4.7791,1.07998 z m 2.48297,-3.932907 c -0.0694,-1.082092 -0.1654,-1.268788 -0.69051,-1.343226 -0.85766,-0.121584 -1.3745,0.403974 -1.3745,1.397672 0,1.067269 0.14032,1.202325 1.24922,1.202325 h 0.89644 z m 5.63298,3.750817 c -0.4451,-0.37453 -0.9467,-1.13967 -1.11468,-1.70032 -0.2628,-0.877149 -0.2334,-1.158115 0.21074,-2.013944 1.10149,-2.122517 3.57871,-2.482853 5.29182,-0.769747 0.74595,0.74595 0.87871,1.066601 0.87871,2.122257 0,1.061445 -0.13173,1.375274 -0.89958,2.143124 -0.78428,0.78428 -1.06994,0.89958 -2.22866,0.89958 -1.04181,0 -1.50399,-0.14718 -2.13835,-0.68095 z m 2.75305,-3.816962 c 0,-1.184326 -0.005,-1.190625 -0.92604,-1.190625 -0.91882,0 -0.92668,0.0099 -1.00738,1.273648 l -0.0813,1.273646 1.00738,-0.08302 c 1.00523,-0.08285 1.00737,-0.08555 1.00737,-1.273648 z m 8.14115,4.105652 c -2.09481,-0.91067 -2.47958,-3.515417 -0.75303,-5.097681 0.73692,-0.675341 1.16944,-0.860055 2.01384,-0.860055 3.63176,0 4.76475,4.305319 1.56802,5.958416 -0.93347,0.48272 -1.7173,0.48253 -2.82883,-8e-4 z m 2.1776,-4.105652 c 0,-1.184847 -0.005,-1.191025 -0.99219,-1.272744 l -0.99219,-0.08212 v 1.1625 c 0,1.394843 0.13668,1.563981 1.18112,1.461669 0.76397,-0.07483 0.80326,-0.136927 0.80326,-1.269309 z m 7.01146,0.529166 c -0.71102,-0.711014 -0.69903,-2.145517 0.0234,-2.799305 0.41115,-0.372088 1.0639,-0.525888 2.55056,-0.600961 2.47369,-0.124915 3.84596,0.249037 4.26162,1.161322 0.4282,0.939782 0.3899,1.269918 -0.24021,2.070971 -0.52977,0.673499 -0.64192,0.69714 -3.30729,0.69714 -2.40614,0 -2.82658,-0.06766 -3.28809,-0.529167 z m 10.32906,-0.04989 c -0.68142,-0.731416 -0.6929,-1.913355 -0.0251,-2.581185 0.66619,-0.666189 1.94511,-0.893701 4.28161,-0.761677 1.57663,0.08909 1.96299,0.206079 2.37957,0.720532 0.64808,0.800344 0.63371,2.006677 -0.0318,2.67222 -0.46172,0.461722 -0.88194,0.529167 -3.29698,0.529167 -2.50659,0 -2.81874,-0.05465 -3.30729,-0.579057 z m -38.54245,-5.998961 c -1.18165,-0.741749 -1.68453,-1.58202 -1.68453,-2.81469 0,-1.842993 1.34739,-3.042709 3.41724,-3.042709 0.80887,0 1.2834,0.194162 1.98931,0.813962 1.12496,0.987724 1.41126,2.156232 0.85468,3.488312 -0.74051,1.772295 -3.00497,2.54174 -4.5767,1.555125 z m 2.23326,-4.088339 0.0813,-1.273646 -1.00737,0.08302 c -0.92931,0.07659 -1.01395,0.151614 -1.09216,0.968108 -0.12939,1.35065 0.0908,1.674074 1.07515,1.57921 0.82849,-0.07984 0.86485,-0.132156 0.94305,-1.356693 z m -10.59702,3.587486 c -2.24933,-1.394656 -1.73222,-4.876221 0.83867,-5.646476 2.79832,-0.838398 5.17981,1.963661 3.85171,4.531924 -0.76915,1.487371 -3.16925,2.057696 -4.69038,1.114552 z m 2.65912,-3.958731 c 0.0729,-1.005604 0.0142,-1.132467 -0.59472,-1.285306 -1.14412,-0.287155 -1.47059,0.01262 -1.47059,1.350367 v 1.214901 l 0.99219,-0.08212 c 0.96173,-0.0796 0.99467,-0.116375 1.07312,-1.197846 z m 15.52949,4.051938 c -1.13988,-0.503156 -1.74446,-1.289452 -1.90357,-2.475741 -0.26166,-1.95077 1.07891,-3.523138 3.02666,-3.55002 1.98948,-0.02746 3.50921,1.394042 3.50612,3.279489 -0.002,0.958919 -0.98791,2.321595 -1.98068,2.7364 -1.10929,0.463495 -1.61658,0.465384 -2.64853,0.0099 z m 1.93182,-4.170839 c 0.0674,-1.043781 -0.003,-1.260763 -0.45303,-1.40372 -0.88287,-0.280212 -1.61109,0.294656 -1.61109,1.271823 0,1.059354 0.44553,1.546357 1.32106,1.444043 0.58857,-0.06878 0.6723,-0.216649 0.74306,-1.312146 z m 8.2872,3.728178 c -1.3658,-0.292725 -2.20047,-1.289987 -2.34412,-2.800721 -0.0995,-1.046054 -0.012,-1.419333 0.47787,-2.039995 1.28644,-1.629831 3.51244,-1.82866 4.99263,-0.445953 2.40303,2.244762 0.18449,5.996276 -3.12638,5.286669 z m 1.13642,-3.051024 c 0.29437,-0.112962 0.41851,-0.507842 0.41851,-1.33122 0,-1.286581 -0.3377,-1.590423 -1.4558,-1.309798 -0.55899,0.140298 -0.66086,0.320071 -0.66086,1.166241 0,1.394801 0.58427,1.902214 1.69815,1.474777 z m 7.42997,-0.155565 c -0.74025,-0.419772 -0.91733,-0.749186 -0.92199,-1.715153 -0.003,-0.596091 0.19879,-1.000242 0.69309,-1.389063 0.59121,-0.465047 1.06919,-0.54837 3.14569,-0.54837 2.96281,0 3.67134,0.382963 3.67134,1.984375 0,1.600094 -0.71108,1.986079 -3.64088,1.976329 -1.32994,-0.0044 -2.65621,-0.143079 -2.94725,-0.308118 z m 10.04214,-0.333269 c -0.35718,-0.357187 -0.64943,-0.957911 -0.64943,-1.334942 0,-0.377031 0.29225,-0.977754 0.64943,-1.334942 0.59751,-0.597506 0.84852,-0.649433 3.13932,-0.649433 2.11832,0 2.59392,0.08183 3.18703,0.54837 0.96411,0.75837 0.96411,2.11364 0,2.87201 -0.59311,0.466537 -1.06871,0.54837 -3.18703,0.54837 -2.2908,0 -2.54181,-0.05193 -3.13932,-0.649433 z m -10.27104,-5.190604 c -0.90061,-0.708419 -0.9576,-2.098778 -0.11808,-2.880905 0.50154,-0.467259 0.92817,-0.539475 3.18703,-0.539475 2.44702,0 2.64987,0.0419 3.28696,0.678998 0.5477,0.547693 0.64755,0.841888 0.51634,1.521354 -0.27982,1.449184 -0.95251,1.768398 -3.72656,1.768398 -2.0765,0 -2.55448,-0.08332 -3.14569,-0.54837 z m 10.27104,-0.101063 c -0.35718,-0.357187 -0.64943,-0.95791 -0.64943,-1.334942 0,-0.377031 0.29225,-0.977754 0.64943,-1.334942 0.59751,-0.597505 0.84852,-0.649433 3.13932,-0.649433 2.11832,0 2.59392,0.08183 3.18703,0.548371 0.91133,0.716851 0.93147,1.887177 0.0477,2.770946 -0.59924,0.599237 -0.84557,0.649433 -3.18703,0.649433 -2.34146,0 -2.58779,-0.0502 -3.18703,-0.649433 z m 14.69641,-18.66515 V 5.2062254 h -33.4698 -33.46979 V 15.877752 c 0,5.869341 0.0794,10.750903 0.17639,10.847917 0.097,0.09701 15.15842,0.176389 33.46979,0.176389 h 33.29341 z m -20.10834,8.73125 c -0.71317,-0.713169 -0.69897,-2.145561 0.0278,-2.803263 0.46785,-0.4234 0.9713,-0.504028 3.14722,-0.504028 2.97101,0 3.70736,0.363571 3.70012,1.826944 -0.008,1.611383 -0.79003,2.009514 -3.94731,2.009514 -2.04587,0 -2.47647,-0.07783 -2.92781,-0.529167 z m 10.48673,-0.0192 c -0.84095,-0.661486 -0.92117,-1.762181 -0.1939,-2.660326 0.43822,-0.54118 0.7804,-0.634071 2.64809,-0.718887 3.38488,-0.153716 4.257,0.272283 4.257,2.079396 0,1.52628 -0.62617,1.848187 -3.59507,1.848187 -2.04659,0 -2.52631,-0.08442 -3.11612,-0.54837 z m -52.02631,-2.097463 c -0.29104,-0.291042 -0.52917,-0.767292 -0.52917,-1.058334 0,-1.052118 0.91706,-1.5875 2.71925,-1.5875 1.98083,0 2.837,0.47124 2.837,1.561496 0,1.190009 -0.71728,1.613504 -2.73281,1.613504 -1.41233,0 -1.87087,-0.10576 -2.29427,-0.529166 z m 7.84621,0.04531 c -0.24083,-0.26612 -0.43788,-0.79515 -0.43788,-1.175622 0,-1.029051 0.89176,-1.515524 2.77813,-1.515524 1.93714,0 2.77812,0.48056 2.77812,1.5875 0,1.135548 -0.83367,1.5875 -2.92828,1.5875 -1.36149,0 -1.84985,-0.107892 -2.19009,-0.483854 z m 8.02879,-0.04531 c -0.69928,-0.699278 -0.66833,-1.364523 0.0969,-2.083442 0.54196,-0.509143 0.86718,-0.57756 2.4202,-0.509141 1.58213,0.0697 1.85521,0.161104 2.31131,0.773604 0.44159,0.593006 0.46879,0.786441 0.18603,1.322917 -0.48635,0.922752 -0.73474,1.01672 -2.69936,1.021177 -1.43665,0.0033 -1.88943,-0.09944 -2.3151,-0.525115 z m 8.99583,0 c -0.29104,-0.291042 -0.52917,-0.767292 -0.52917,-1.058334 0,-1.052118 0.91707,-1.5875 2.71926,-1.5875 1.98083,0 2.83699,0.47124 2.83699,1.561496 0,1.190009 -0.71728,1.613504 -2.73281,1.613504 -1.41233,0 -1.87086,-0.10576 -2.29427,-0.529166 z m 6.67346,0.117288 c -0.73418,-0.514234 -0.761,-1.531837 -0.0589,-2.233955 0.67859,-0.678591 3.53011,-0.753934 4.43905,-0.117289 0.72603,0.508531 0.78002,1.713613 0.10418,2.32524 -0.65178,0.58986 -3.65448,0.607272 -4.48435,0.026 z m -31.37632,-4.898992 c -0.83007,-0.652934 -0.90012,-1.567172 -0.17065,-2.227329 0.73584,-0.665933 2.81935,-0.820704 4.06149,-0.301703 0.93467,0.39053 0.99554,0.484033 0.91849,1.411011 -0.10171,1.223786 -0.82045,1.656904 -2.75881,1.662491 -0.97285,0.0028 -1.5494,-0.150285 -2.05052,-0.54447 z m 8.09451,0.222881 c -0.6686,-0.322221 -0.9905,-1.209333 -0.73311,-2.020318 0.36294,-1.143503 3.7943,-1.438432 4.91678,-0.422601 0.52521,0.475311 0.67093,1.337262 0.31594,1.868903 -0.57878,0.866808 -3.19861,1.201019 -4.49961,0.574016 z m 8.20568,0.06616 c -0.93824,-0.39946 -1.29099,-1.428226 -0.76499,-2.231006 0.77968,-1.189939 4.07365,-1.28409 4.99777,-0.142851 0.59108,0.729951 0.58624,1.102819 -0.0241,1.856544 -0.3911,0.482991 -0.80434,0.621701 -2.05052,0.68829 -0.85839,0.04587 -1.82956,-0.03107 -2.15817,-0.170977 z m 8.57064,-0.289038 c -1.38774,-1.0916 -0.58878,-2.584555 1.50971,-2.821085 2.2641,-0.255197 3.60698,0.645951 3.30435,2.217403 -0.22903,1.189244 -3.54155,1.604633 -4.81406,0.603682 z m 6.84349,0.232208 c -0.6864,-0.389235 -0.917,-0.746586 -0.92199,-1.428768 -0.01,-1.298685 2.36574,-2.088754 4.33032,-1.440385 1.49482,0.493337 1.66445,2.24901 0.2783,2.88058 -0.85,0.387287 -2.99524,0.380638 -3.68663,-0.01143 z m 9.71616,-0.360299 c -0.43614,-0.305489 -0.58804,-0.677497 -0.58804,-1.440205 0,-1.551824 0.61007,-1.852084 3.76304,-1.852084 2.92436,0 3.6453,0.366292 3.6453,1.852084 0,1.485791 -0.72094,1.852083 -3.6453,1.852083 -1.91318,0 -2.74011,-0.107274 -3.175,-0.411878 z m 10.25988,-0.117289 c -0.29398,-0.293981 -0.52916,-0.881944 -0.52916,-1.322916 0,-1.506621 0.70795,-1.852084 3.79545,-1.852084 3.11858,0 3.61288,0.259684 3.61288,1.898056 0,1.535658 -0.54789,1.806111 -3.65886,1.806111 -2.33836,0 -2.76051,-0.06937 -3.22031,-0.529167 z m -8.92969,-4.506161 c -0.56903,-0.228724 -0.59531,-0.373753 -0.59531,-3.2854796 0,-2.939533 0.0208,-3.051286 0.59531,-3.191636 0.32743,-0.07999 3.86954,-0.112027 7.87136,-0.07119 l 7.27604,0.07426 0.0746,3.1122 0.0746,3.1121986 -0.6871,0.261238 c -0.86084,0.32729 -13.79187,0.317031 -14.60944,-0.01159 z m 13.03073,-3.1667546 v -1.719798 h -5.42396 -5.42395 l -0.0812,1.42367 c -0.0446,0.7830186 -0.0177,1.5891646 0.0599,1.7914356 0.11534,0.300559 1.12136,0.354673 5.50514,0.296121 l 5.364,-0.07164 z m -55.61389,2.0072826 c -0.61642,-0.530225 -0.74236,-0.848301 -0.74236,-1.874992 0,-1.0266906 0.12594,-1.3447656 0.74236,-1.8749916 1.71059,-1.471385 4.15243,-0.376685 4.15243,1.8615706 0,2.222528 -2.46221,3.342277 -4.15243,1.888413 z m 2.16806,-2.9333246 c 0,-0.9525 -0.0662,-1.058333 -0.66146,-1.058333 -0.52978,0 -0.67855,0.149292 -0.74733,0.749954 -0.12543,1.095297 0.12824,1.5485506 0.81229,1.4514146 0.50541,-0.07177 0.5965,-0.2463186 0.5965,-1.1430356 z m 5.66819,2.7984766 c -0.57259,-0.572585 -0.7734,-1.024412 -0.7734,-1.740144 0,-1.3442876 1.16925,-2.5135406 2.51354,-2.5135406 1.34429,0 2.51354,1.169253 2.51354,2.5135406 0,1.344288 -1.16925,2.513542 -2.51354,2.513542 -0.71573,0 -1.16756,-0.200812 -1.74014,-0.773398 z m 2.0905,-1.838086 c 0.21071,-0.1335916 0.31617,-0.5801866 0.26458,-1.1204276 -0.0725,-0.758921 -0.1884,-0.898296 -0.74723,-0.898296 -0.52978,0 -0.67855,0.149292 -0.74733,0.749954 -0.15271,1.3335466 0.33474,1.8363646 1.22998,1.2687696 z m 6.59495,2.325705 c -0.77006,-0.448517 -1.32219,-1.796082 -1.13805,-2.7776066 0.35534,-1.894131 2.83673,-2.640263 4.21083,-1.266159 1.55765,1.557647 0.49313,4.3395636 -1.65365,4.3214986 -0.52586,-0.0044 -1.16447,-0.129405 -1.41913,-0.277733 z m 1.78594,-3.2860956 c 0,-0.9525 -0.0661,-1.058333 -0.66146,-1.058333 -0.52978,0 -0.67855,0.149292 -0.74733,0.749954 -0.12542,1.095297 0.12825,1.5485506 0.8123,1.4514146 0.5054,-0.07177 0.59649,-0.2463186 0.59649,-1.1430356 z m 6.56319,2.9333246 c -0.61642,-0.530225 -0.74235,-0.848301 -0.74235,-1.874992 0,-1.0266906 0.12593,-1.3447656 0.74235,-1.8749916 1.70949,-1.470439 4.15244,-0.333756 4.15244,1.9320956 0,2.121482 -2.51795,3.223812 -4.15244,1.817888 z m 2.16806,-2.9333246 c 0,-0.9525 -0.0661,-1.058333 -0.66146,-1.058333 -0.52978,0 -0.67855,0.149292 -0.74733,0.749954 -0.12542,1.095297 0.12825,1.5485506 0.8123,1.4514146 0.5054,-0.07177 0.59649,-0.2463186 0.59649,-1.1430356 z m 5.2904,2.9332026 c -0.83423,-0.834236 -1.06427,-1.82538 -0.6537,-2.8165846 0.43847,-1.058554 1.22138,-1.571826 2.39755,-1.571826 1.3934,0 2.35846,1.028521 2.35846,2.5135406 0,0.85568 -0.16389,1.282354 -0.69754,1.816004 -0.93957,0.939575 -2.49713,0.966504 -3.40477,0.05887 z m 2.11794,-2.9332026 c 0,-0.9525 -0.0661,-1.058333 -0.66146,-1.058333 -0.52979,0 -0.67856,0.149292 -0.74734,0.749954 -0.12542,1.095297 0.12825,1.5485506 0.8123,1.4514146 0.50541,-0.07177 0.5965,-0.2463186 0.5965,-1.1430356 z"
       id="path1143" />
  </g>
</svg>
