<?xml version="1.0" encoding="UTF-8" standalone="no"?>
<!-- Created with Inkscape (http://www.inkscape.org/) -->

<svg
   width="210mm"
   height="297mm"
   viewBox="0 0 210 297"
   version="1.1"
   id="svg5"
   inkscape:version="1.1 (c68e22c387, 2021-05-23)"
   sodipodi:docname="OSC phone control.svg"
   xmlns:inkscape="http://www.inkscape.org/namespaces/inkscape"
   xmlns:sodipodi="http://sodipodi.sourceforge.net/DTD/sodipodi-0.dtd"
   xmlns="http://www.w3.org/2000/svg"
   xmlns:svg="http://www.w3.org/2000/svg">
  <sodipodi:namedview
     id="namedview7"
     pagecolor="#ffffff"
     bordercolor="#666666"
     borderopacity="1.0"
     inkscape:pageshadow="2"
     inkscape:pageopacity="0.0"
     inkscape:pagecheckerboard="0"
     inkscape:document-units="mm"
     showgrid="false"
     inkscape:zoom="0.70910507"
     inkscape:cx="707.93458"
     inkscape:cy="662.10216"
     inkscape:window-width="1680"
     inkscape:window-height="956"
     inkscape:window-x="-11"
     inkscape:window-y="-11"
     inkscape:window-maximized="1"
     inkscape:current-layer="layer1" />
  <defs
     id="defs2" />
  <g
     inkscape:label="Layer 1"
     inkscape:groupmode="layer"
     id="layer1">
    <path
       id="path1348"
       style="fill:none;stroke:#000000;stroke-width:1.24863;stroke-linecap:round;stroke-linejoin:round;stroke-opacity:0.955017;paint-order:stroke markers fill"
       d="m 45.545946,105.79238 a 4.2509498,3.8683278 0 0 1 -4.250944,3.86832 4.2509498,3.8683278 0 0 1 -4.250952,-3.86832 4.2509498,3.8683278 0 0 1 4.250952,-3.86834 4.2509498,3.8683278 0 0 1 4.250944,3.86834 z M 9.211713,6.3276484 h 61.031502 c 1.009295,0 1.821831,0.796282 1.821831,1.785381 V 109.58227 c 0,0.9891 -0.812536,1.78538 -1.821831,1.78538 H 9.211713 c -1.009294,0 -1.821831,-0.79628 -1.821831,-1.78538 V 8.1130294 c 0,-0.989099 0.812537,-1.785381 1.821831,-1.785381 z m 19.523105,9.4545316 1.83801,1.04605 c 0.872787,0.496728 1.167384,1.585204 0.660514,2.440534 l -8.386798,14.152537 c -0.50687,0.85533 -1.61757,1.144019 -2.490363,0.647298 L 18.51817,33.022542 c -0.872787,-0.496721 -1.167377,-1.585196 -0.660507,-2.440526 l 8.386798,-14.152538 c 0.50687,-0.85533 1.617563,-1.144025 2.490357,-0.647298 z m -12.84304,-2.610565 h 44.634975 c 1.009295,0 1.821841,0.796278 1.821841,1.785384 v 83.317837 c 0,0.9891 -0.812546,1.785384 -1.821841,1.785384 H 15.891778 c -1.009295,0 -1.821832,-0.796284 -1.821832,-1.785384 V 14.956999 c 0,-0.989106 0.812537,-1.785384 1.821832,-1.785384 z m 33.011615,36.423583 1.614176,1.317363 c 0.44712,0.364898 0.532346,1.043571 0.191076,1.52167 L 40.544637,66.673716 c -0.341255,0.47811 -0.975957,0.56923 -1.423084,0.20432 l -1.614168,-1.317338 c -0.447127,-0.364912 -0.532346,-1.043577 -0.191091,-1.52169 L 47.480309,49.799525 c 0.341263,-0.478099 0.975965,-0.569233 1.423084,-0.204327 z m 5.939005,12.079297 A 16.329489,16.013244 0 0 1 38.512913,77.687746 16.329489,16.013244 0 0 1 22.183421,61.674495 16.329489,16.013244 0 0 1 38.512913,45.661253 16.329489,16.013244 0 0 1 54.842398,61.674495 Z m 3.21513,0 A 19.544621,19.451114 0 0 1 38.512913,81.125616 19.544621,19.451114 0 0 1 18.968292,61.674495 19.544621,19.451114 0 0 1 38.512913,42.223385 19.544621,19.451114 0 0 1 58.057528,61.674495 Z" />
    <g
       id="g1955">
      <path
         id="path1554"
         style="fill:none;stroke:#000000;stroke-width:1.24863;stroke-linecap:round;stroke-linejoin:round;stroke-opacity:0.955017;paint-order:stroke markers fill"
         d="m 171.73908,108.76663 a 4.2509498,3.8683278 0 0 1 -4.25094,3.86832 4.2509498,3.8683278 0 0 1 -4.25096,-3.86832 4.2509498,3.8683278 0 0 1 4.25096,-3.86834 4.2509498,3.8683278 0 0 1 4.25094,3.86834 z M 135.40485,9.3018973 h 61.0315 c 1.00929,0 1.82183,0.7962817 1.82183,1.7853807 V 112.55652 c 0,0.9891 -0.81254,1.78538 -1.82183,1.78538 h -61.0315 c -1.0093,0 -1.82183,-0.79628 -1.82183,-1.78538 V 11.087278 c 0,-0.989099 0.81253,-1.7853807 1.82183,-1.7853807 z m 19.5231,9.4545317 1.83801,1.04605 c 0.87279,0.496728 1.16739,1.585204 0.66052,2.440534 l -8.3868,14.152537 c -0.50687,0.85533 -1.61757,1.144019 -2.49037,0.647298 l -1.83801,-1.046057 c -0.87278,-0.496721 -1.16737,-1.585196 -0.6605,-2.440526 l 8.38679,-14.152538 c 0.50687,-0.85533 1.61757,-1.144025 2.49036,-0.647298 z m -12.84304,-2.610565 h 44.63498 c 1.00929,0 1.82184,0.796278 1.82184,1.785384 v 83.317832 c 0,0.9891 -0.81255,1.78539 -1.82184,1.78539 h -44.63498 c -1.00929,0 -1.82183,-0.79629 -1.82183,-1.78539 V 17.931248 c 0,-0.989106 0.81254,-1.785384 1.82183,-1.785384 z m 33.01162,36.423583 1.61417,1.317363 c 0.44712,0.364898 0.53235,1.043571 0.19108,1.52167 l -10.16401,14.239485 c -0.34125,0.47811 -0.97596,0.56923 -1.42308,0.20432 l -1.61417,-1.317338 c -0.44713,-0.364912 -0.53235,-1.043577 -0.19109,-1.52169 l 10.16401,-14.239483 c 0.34127,-0.478099 0.97597,-0.569233 1.42309,-0.204327 z m 5.939,12.079297 a 16.329489,16.013244 0 0 1 -16.32948,16.013251 16.329489,16.013244 0 0 1 -16.3295,-16.013251 16.329489,16.013244 0 0 1 16.3295,-16.013242 16.329489,16.013244 0 0 1 16.32948,16.013242 z m 3.21513,0 a 19.544621,19.451114 0 0 1 -19.54461,19.451121 19.544621,19.451114 0 0 1 -19.54462,-19.451121 19.544621,19.451114 0 0 1 19.54462,-19.45111 19.544621,19.451114 0 0 1 19.54461,19.45111 z" />
      <path
         style="fill:#000000;stroke:#000000;stroke-width:10.7127;stroke-linecap:round;stroke-linejoin:round;stroke-opacity:0.955017;paint-order:stroke markers fill"
         d="m 606.22487,312.48919 c -20.4953,-5.08669 -38.2301,-19.5695 -47.42465,-38.72851 -9.49469,-19.78442 -8.35722,-45.58915 2.85276,-64.71751 14.12915,-24.10958 44.28072,-38.51921 71.12537,-33.99127 38.50961,6.49548 65.33655,42.19222 59.43106,79.08078 -6.5491,40.9089 -46.6436,68.12048 -85.98454,58.35651 z m 39.79975,-8.98315 c 34.61239,-12.95016 50.76281,-52.45824 35.11424,-85.89846 -5.95213,-12.71942 -16.09769,-23.07683 -29.41548,-30.02973 -9.79231,-5.11234 -10.85394,-5.30892 -28.6704,-5.30892 -17.64881,0 -18.99283,0.24186 -29.1609,5.24759 -39.52275,19.45698 -48.41061,70.66293 -17.61095,101.46258 8.22512,8.22512 21.30066,15.362 32.42533,17.69835 10.42747,2.18993 26.6803,0.80872 37.31816,-3.17141 z"
         id="path1714"
         transform="scale(0.26458333)" />
      <path
         style="fill:#000000;stroke:#000000;stroke-width:10.7127;stroke-linecap:round;stroke-linejoin:round;stroke-opacity:0.955017;paint-order:stroke markers fill"
         d="m 623.68749,258.71606 c -3.40587,-2.76155 -3.36747,-2.83338 16.13024,-30.17412 19.45016,-27.27406 19.56103,-27.39239 23.0312,-24.58241 l 3.48695,2.82356 -19.22048,26.95824 c -10.57126,14.82704 -19.399,27.13479 -19.61719,27.35056 -0.2182,0.21577 -1.93303,-0.85335 -3.81072,-2.37583 z"
         id="path1753"
         transform="scale(0.26458333)" />
      <path
         style="fill:#000000;stroke:#000000;stroke-width:10.7127;stroke-linecap:round;stroke-linejoin:round;stroke-opacity:0.955017;paint-order:stroke markers fill"
         d="m 552.02595,135.28071 c -2.42891,-1.50449 -4.4162,-3.75996 -4.4162,-5.01215 0,-4.11006 32.10889,-56.397451 34.63281,-56.397451 2.89085,0 10.33221,4.656383 10.33221,6.465314 0,2.260736 -32.86193,56.702737 -34.52671,57.200027 -0.88325,0.26384 -3.59319,-0.75125 -6.02211,-2.25574 z"
         id="path1792"
         transform="scale(0.26458333)" />
      <path
         style="fill:#000000;stroke:#000000;stroke-width:10.7127;stroke-linecap:round;stroke-linejoin:round;stroke-opacity:0.955017;paint-order:stroke markers fill"
         d="m 508.43716,426.23343 c -1.27409,-3.32024 -1.27409,-381.831565 0,-385.151799 0.87659,-2.28434 12.82826,-2.540183 118.66432,-2.540183 105.83607,0 117.78774,0.255843 118.66432,2.540183 1.2741,3.320234 1.2741,381.831559 0,385.151799 -0.86179,2.24578 -7.1433,2.53949 -54.19891,2.53418 l -53.22415,-0.006 5.11666,-3.11985 c 9.8669,-6.01627 11.65507,-17.41216 4.06513,-25.90677 -11.03687,-12.35199 -34.07314,-4.66234 -34.07314,11.37422 0,5.27866 4.43174,12.53442 9.25407,15.15098 3.95736,2.14724 -1.47591,2.39168 -54.44876,2.44955 -52.21542,0.0571 -58.95459,-0.22187 -59.81954,-2.47588 z m 205.29153,-37.96449 c 2.22204,-3.17242 2.49989,-21.37772 2.49989,-163.80115 0,-158.090852 -0.0429,-160.274962 -3.21178,-163.44383 -3.13394,-3.133926 -5.35298,-3.211787 -91.53594,-3.211787 -86.18297,0 -88.40202,0.07785 -91.53594,3.211787 -3.16904,3.169037 -3.21179,5.352978 -3.21179,164.07618 0,147.43243 0.22192,161.10961 2.65773,163.80116 2.51427,2.77823 7.49388,2.93676 92.24783,2.93676 h 89.59009 z"
         id="path1831"
         transform="scale(0.26458333)" />
      <path
         style="fill:#000000;stroke:#000000;stroke-width:2.17627;stroke-linecap:round;stroke-linejoin:round;stroke-opacity:0.955017;paint-order:stroke markers fill"
         d="m 628.94583,428.91788 c 0.46865,-1.27709 3.95067,-1.19973 3.95067,0.0878 0,0.57757 -0.22425,0.64626 -2.11001,0.64626 -2.05049,0 -2.10242,-0.0207 -1.84066,-0.73403 z"
         id="path3090"
         transform="scale(0.26458333)" />
    </g>
    <path
       style="fill:#ffffff;stroke:#000000;stroke-width:10.7127;stroke-linecap:round;stroke-linejoin:round;stroke-opacity:0.955017;paint-order:stroke markers fill"
       d=""
       id="path2168"
       transform="scale(0.26458333)" />
    <g
       id="g2371">
      <path
         id="path1638"
         style="fill:none;stroke:#000000;stroke-width:1.24863;stroke-linecap:round;stroke-linejoin:round;stroke-opacity:0.955017;paint-order:stroke markers fill"
         d="m 171.31419,257.90397 a 4.2509498,3.8683278 0 0 1 -4.25094,3.86832 4.2509498,3.8683278 0 0 1 -4.25096,-3.86832 4.2509498,3.8683278 0 0 1 4.25096,-3.86834 4.2509498,3.8683278 0 0 1 4.25094,3.86834 z m -36.33423,-99.46473 h 61.0315 c 1.00929,0 1.82183,0.79628 1.82183,1.78538 v 101.46924 c 0,0.9891 -0.81254,1.78538 -1.82183,1.78538 h -61.0315 c -1.0093,0 -1.82183,-0.79628 -1.82183,-1.78538 V 160.22462 c 0,-0.9891 0.81253,-1.78538 1.82183,-1.78538 z m 19.5231,9.45453 1.83801,1.04605 c 0.87279,0.49673 1.16739,1.5852 0.66052,2.44053 l -8.3868,14.15254 c -0.50687,0.85533 -1.61757,1.14402 -2.49037,0.6473 l -1.83801,-1.04606 c -0.87278,-0.49672 -1.16737,-1.58519 -0.6605,-2.44052 l 8.38679,-14.15254 c 0.50687,-0.85533 1.61757,-1.14403 2.49036,-0.6473 z M 141.66002,165.2832 H 186.295 c 1.00929,0 1.82184,0.79628 1.82184,1.78539 v 83.31783 c 0,0.9891 -0.81255,1.78539 -1.82184,1.78539 h -44.63498 c -1.00929,0 -1.82183,-0.79629 -1.82183,-1.78539 v -83.31783 c 0,-0.98911 0.81254,-1.78539 1.82183,-1.78539 z m 33.01162,36.42359 1.61417,1.31736 c 0.44712,0.3649 0.53235,1.04357 0.19108,1.52167 l -10.16401,14.23949 c -0.34125,0.47811 -0.97596,0.56923 -1.42308,0.20432 l -1.61417,-1.31734 c -0.44713,-0.36491 -0.53235,-1.04358 -0.19109,-1.52169 l 10.16401,-14.23949 c 0.34127,-0.47809 0.97597,-0.56923 1.42309,-0.20432 z m 5.939,12.07929 a 16.329489,16.013244 0 0 1 -16.32948,16.01326 16.329489,16.013244 0 0 1 -16.3295,-16.01326 16.329489,16.013244 0 0 1 16.3295,-16.01324 16.329489,16.013244 0 0 1 16.32948,16.01324 z m 3.21513,0 a 19.544621,19.451114 0 0 1 -19.54461,19.45113 19.544621,19.451114 0 0 1 -19.54462,-19.45113 19.544621,19.451114 0 0 1 19.54462,-19.45111 19.544621,19.451114 0 0 1 19.54461,19.45111 z" />
      <path
         style="fill:#ffffff;stroke:#000000;stroke-width:10.7127;stroke-linecap:round;stroke-linejoin:round;stroke-opacity:0.955017;paint-order:stroke markers fill"
         d="m 533.34547,948.50768 c -1.3225,-1.59353 -1.70008,-44.97986 -1.40105,-160.99084 l 0.40934,-158.80946 h 87.5212 87.52121 l 0.40934,158.80946 c 0.29902,116.01098 -0.0785,159.39731 -1.40106,160.99084 -1.48348,1.78747 -17.10878,2.18138 -86.52949,2.18138 -69.42072,0 -85.04601,-0.39391 -86.52949,-2.18138 z M 639.08031,882.34394 C 686.39586,871.58226 710.9693,819.23362 689.75429,774.39352 667.76394,727.9147 603.2622,717.0192 567.02783,753.66284 c -15.85168,16.03071 -22.62987,32.23548 -22.62987,54.10168 0,50.34133 45.09111,85.85871 94.68235,74.57942 z M 560.3581,706.6461 c 4.25424,-2.27681 37.03435,-58.22639 37.03435,-63.21079 0,-8.51019 -18.86883,-16.19946 -24.14667,-9.84005 -4.23531,5.10324 -33.48873,55.52621 -33.75648,58.18471 -0.65119,6.4659 0.44893,8.42217 6.91603,12.2982 7.49804,4.49392 9.6232,4.88504 13.95277,2.56793 z"
         id="path2012"
         transform="scale(0.26458333)" />
      <path
         style="fill:#ffffff;stroke:#000000;stroke-width:10.7127;stroke-linecap:round;stroke-linejoin:round;stroke-opacity:0.955017;paint-order:stroke markers fill"
         d="m 506.83127,989.90211 c -1.27409,-3.32023 -1.27409,-381.83156 0,-385.1518 0.87658,-2.28434 12.82825,-2.54018 118.66432,-2.54018 105.83607,0 117.78774,0.25584 118.66432,2.54018 1.2741,3.32024 1.2741,381.83157 0,385.1518 -0.86179,2.24578 -7.14331,2.5395 -54.19891,2.53418 l -53.22415,-0.006 5.11666,-3.11985 c 6.26633,-3.82085 8.53343,-7.8096 8.53343,-15.01377 0,-6.06364 -4.89855,-13.51159 -10.16894,-15.46124 -1.81597,-0.67178 12.89526,-1.63162 32.69163,-2.13301 34.59164,-0.8761 36.1048,-1.04915 38.85324,-4.44333 2.69984,-3.33416 2.85982,-12.50524 2.85982,-163.94318 0,-158.27028 -0.0429,-160.45434 -3.21179,-163.62326 -3.13393,-3.13392 -5.35297,-3.21178 -91.53594,-3.21178 -86.18296,0 -88.40201,0.0779 -91.53594,3.21178 -3.16911,3.16911 -3.21179,5.35298 -3.21179,164.35521 0,159.57473 0.0315,161.17197 3.24019,164.07575 2.93793,2.65879 7.60622,3.00209 50.04435,3.68019 41.19637,0.65826 46.29421,1.01505 42.54797,2.97791 -4.68467,2.45454 -9.11425,9.74257 -9.11425,14.99577 0,5.27865 4.43175,12.53441 9.25408,15.15098 3.95735,2.14724 -1.47592,2.39167 -54.44876,2.44955 -52.21542,0.057 -58.9546,-0.22187 -59.81954,-2.47589 z"
         id="path2051"
         transform="scale(0.26458333)" />
      <path
         style="fill:#ffffff;stroke:#000000;stroke-width:10.7127;stroke-linecap:round;stroke-linejoin:round;stroke-opacity:0.955017;paint-order:stroke markers fill"
         d="m 622.21081,982.07698 c -5.00174,-5.00173 -5.00174,-9.5973 0,-14.59903 7.47064,-7.47064 21.75256,-2.67806 21.75256,7.29952 0,9.97757 -14.28192,14.77016 -21.75256,7.29951 z"
         id="path2129"
         transform="scale(0.26458333)" />
      <path
         style="fill:#ffffff;stroke:#000000;stroke-width:6.62142;stroke-linecap:round;stroke-linejoin:round;stroke-opacity:0.955017;paint-order:stroke markers fill"
         d="m 621.88228,822.7 -3.62538,-3.32241 19.50664,-27.29416 c 10.72865,-15.01178 20.0252,-27.15549 20.65901,-26.98601 0.6338,0.16947 2.3774,1.51476 3.87467,2.98954 l 2.72231,2.6814 -18.4485,25.79552 c -10.14668,14.18753 -19.03685,26.6197 -19.75594,27.62703 -1.23726,1.73321 -1.502,1.65319 -4.93281,-1.49091 z"
         id="path2207"
         transform="scale(0.26458333)" />
      <path
         style="fill:#ffffff;stroke:#000000;stroke-width:6.62142;stroke-linecap:round;stroke-linejoin:round;stroke-opacity:0.955017;paint-order:stroke markers fill"
         d="m 605.97515,877.03593 c -26.40834,-6.09817 -45.98601,-24.81253 -53.25384,-50.90551 -2.76178,-9.91535 -2.94698,-26.47305 -0.40301,-36.03014 3.12726,-11.74835 8.91899,-21.38367 18.85672,-31.37065 7.65147,-7.68939 10.39935,-9.72185 18.42242,-13.6261 24.91527,-12.12444 52.72809,-9.27842 75.1547,7.69038 18.8118,14.23371 29.64765,41.0997 26.08181,64.66628 -4.17852,27.61584 -21.8349,48.73769 -48.13303,57.58025 -9.74994,3.27834 -27.09019,4.22052 -36.72577,1.99549 z m 33.748,-8.54091 c 11.13709,-3.46127 18.18136,-7.74059 26.92008,-16.35368 12.59039,-12.40935 18.56685,-26.62863 18.56685,-44.17447 0,-17.16324 -5.87759,-31.39024 -18.02861,-43.6392 -13.35515,-13.46281 -27.42607,-19.33735 -46.3175,-19.33735 -18.83979,0 -33.00363,5.89384 -46.16054,19.20828 -8.16371,8.26144 -13.71415,17.87522 -16.36394,28.34354 -1.92495,7.60476 -1.92173,23.26447 0.006,30.84945 5.91948,23.28708 24.72655,41.0316 49.48081,46.68527 8.35863,1.90903 23.0006,1.18291 31.89651,-1.58184 z"
         id="path2246"
         transform="scale(0.26458333)" />
    </g>
    <path
       style="fill:#00aad4;stroke:#000000;stroke-width:6.62142;stroke-linecap:round;stroke-linejoin:round;stroke-opacity:0.955017;paint-order:stroke markers fill"
       d=""
       id="path2428"
       transform="scale(0.26458333)" />
    <g
       id="g2976">
      <path
         id="path1636"
         style="fill:none;stroke:#000000;stroke-width:1.24863;stroke-linecap:round;stroke-linejoin:round;stroke-opacity:0.955017;paint-order:stroke markers fill"
         d="m 50.219767,254.92972 a 4.2509498,3.8683278 0 0 1 -4.25094,3.86832 4.2509498,3.8683278 0 0 1 -4.25096,-3.86832 4.2509498,3.8683278 0 0 1 4.25096,-3.86834 4.2509498,3.8683278 0 0 1 4.25094,3.86834 z m -36.33423,-99.46473 h 61.0315 c 1.00929,0 1.82183,0.79628 1.82183,1.78538 v 101.46924 c 0,0.9891 -0.81254,1.78538 -1.82183,1.78538 h -61.0315 c -1.0093,0 -1.82183,-0.79628 -1.82183,-1.78538 V 157.25037 c 0,-0.9891 0.81253,-1.78538 1.82183,-1.78538 z m 19.5231,9.45453 1.83801,1.04605 c 0.87279,0.49673 1.16739,1.5852 0.66052,2.44053 l -8.3868,14.15254 c -0.50687,0.85533 -1.61757,1.14402 -2.49037,0.6473 l -1.83801,-1.04606 c -0.87278,-0.49672 -1.16737,-1.58519 -0.6605,-2.44052 l 8.38679,-14.15254 c 0.50687,-0.85533 1.61757,-1.14403 2.49036,-0.6473 z m -12.84304,-2.61057 h 44.63498 c 1.00929,0 1.82184,0.79628 1.82184,1.78539 v 83.31783 c 0,0.9891 -0.81255,1.78539 -1.82184,1.78539 h -44.63498 c -1.00929,0 -1.82183,-0.79629 -1.82183,-1.78539 v -83.31783 c 0,-0.98911 0.81254,-1.78539 1.82183,-1.78539 z m 33.01162,36.42359 1.61417,1.31736 c 0.44712,0.3649 0.53235,1.04357 0.19108,1.52167 l -10.16401,14.23949 c -0.34125,0.47811 -0.97596,0.56923 -1.42308,0.20432 l -1.61417,-1.31734 c -0.44713,-0.36491 -0.53235,-1.04358 -0.19109,-1.52169 l 10.16401,-14.23949 c 0.34127,-0.47809 0.97597,-0.56923 1.42309,-0.20432 z m 5.939,12.07929 a 16.329489,16.013244 0 0 1 -16.32948,16.01326 16.329489,16.013244 0 0 1 -16.3295,-16.01326 16.329489,16.013244 0 0 1 16.3295,-16.01324 16.329489,16.013244 0 0 1 16.32948,16.01324 z m 3.21513,0 a 19.544621,19.451114 0 0 1 -19.54461,19.45113 19.544621,19.451114 0 0 1 -19.54462,-19.45113 19.544621,19.451114 0 0 1 19.54462,-19.45111 19.544621,19.451114 0 0 1 19.54461,19.45111 z" />
      <path
         style="fill:#00aad4;stroke:#000000;stroke-width:6.62142;stroke-linecap:round;stroke-linejoin:round;stroke-opacity:0.955017;paint-order:stroke markers fill"
         d="m 149.88083,866.08352 c -15.49602,-3.32524 -24.70496,-8.37146 -36.2988,-19.89064 -6.96588,-6.92102 -9.93954,-10.77199 -13.14384,-17.02163 -5.972515,-11.64873 -8.489433,-23.08118 -7.836867,-35.59691 0.972698,-18.65564 7.483247,-33.08443 21.050037,-46.65149 13.76282,-13.7631 29.84118,-20.36241 49.54004,-20.33355 11.49286,0.0168 19.62922,1.67675 28.96261,5.9087 18.51843,8.39666 31.97116,23.40147 38.74017,43.20975 2.36247,6.91331 2.72305,9.54601 2.78696,20.34806 0.0613,10.36803 -0.30867,13.63094 -2.2511,19.85176 -4.0308,12.90896 -8.6283,20.44532 -18.48833,30.30666 -13.85477,13.85662 -27.76668,20.0032 -47.17947,20.84491 -5.87008,0.25451 -11.86503,-0.11377 -15.88141,-0.97562 z m 29.28136,-8.08343 c 8.60235,-2.03164 20.97365,-8.43997 27.41302,-14.19995 7.32306,-6.55043 14.17645,-16.72441 17.46682,-25.92979 3.49436,-9.77613 4.32409,-26.86864 1.78169,-36.70337 -9.25498,-35.80093 -48.33191,-56.26593 -83.97694,-43.97961 -15.55294,5.36087 -28.29883,16.07892 -35.41512,29.78067 -5.34932,10.29959 -7.444409,18.60595 -7.461913,29.58406 -0.02793,17.51899 5.937033,32.09629 18.073513,44.16843 16.66702,16.57868 38.90001,22.7632 62.11893,17.27956 z"
         id="path2467"
         transform="scale(0.26458333)" />
      <path
         style="fill:#00aad4;stroke:#000000;stroke-width:6.62142;stroke-linecap:round;stroke-linejoin:round;stroke-opacity:0.955017;paint-order:stroke markers fill"
         d="m 163.82198,811.12222 -3.35415,-2.80017 19.62279,-27.47377 c 10.79254,-15.11057 19.91208,-27.45562 20.26565,-27.43343 0.35357,0.0222 2.14089,1.32176 3.97182,2.88794 l 3.32897,2.8476 -19.56011,27.386 c -10.75806,15.0623 -19.86627,27.38601 -20.24046,27.38601 -0.37419,0 -2.18972,-1.26008 -4.03451,-2.80018 z"
         id="path2506"
         transform="scale(0.26458333)" />
      <path
         style="fill:#004455;stroke:#000000;stroke-width:6.62142;stroke-linecap:round;stroke-linejoin:round;stroke-opacity:0.955017;paint-order:stroke markers fill"
         d="m 155.34007,853.98947 c -24.78672,-3.8148 -44.53898,-22.10803 -49.69327,-46.0226 -3.93115,-18.23948 1.96982,-37.29968 15.85834,-51.2227 7.73276,-7.75197 19.25393,-14.14428 29.16899,-16.18388 7.56045,-1.55525 20.28756,-1.33229 27.27282,0.47778 8.12766,2.10609 17.88919,7.08372 16.93128,8.63366 -0.40563,0.65632 -8.38572,11.91956 -17.73355,25.02943 -23.04758,32.3231 -22.60354,31.61341 -21.86997,34.95332 0.82064,3.73634 8.82184,10.22345 12.6096,10.22345 1.56248,0 3.62254,-0.80626 4.57791,-1.79169 0.95536,-0.98543 10.00032,-13.47137 20.09991,-27.74653 10.09958,-14.27516 18.63564,-25.97551 18.96903,-26.00078 1.04498,-0.0792 6.57853,11.12907 8.1691,16.54663 4.08195,13.90342 2.70297,27.45048 -4.22168,41.47384 -6.59422,13.35419 -20.17811,24.83772 -34.67843,29.31642 -6.32358,1.95316 -19.82845,3.18039 -25.46008,2.31365 z"
         id="path2582"
         transform="scale(0.26458333)" />
      <path
         style="fill:#004455;stroke:#000000;stroke-width:6.62142;stroke-linecap:round;stroke-linejoin:round;stroke-opacity:0.955017;paint-order:stroke markers fill"
         d="m 75.011315,937.42874 c -1.404903,-1.4049 -1.559782,-17.23013 -1.559782,-159.37567 0,-106.88832 0.331581,-158.43546 1.027512,-159.73582 1.00375,-1.87552 3.019081,-1.91992 87.149255,-1.91992 65.66012,0 86.40473,0.28299 87.31284,1.1911 1.73196,1.73197 1.73196,318.47703 0,320.20899 -0.908,0.908 -21.53444,1.1911 -86.78057,1.1911 -76.485161,0 -85.75539,-0.16592 -87.149255,-1.55978 z M 181.64366,870.89915 c 15.07868,-3.4099 33.30616,-15.25205 42.33906,-27.50714 10.87292,-14.75148 15.61531,-28.85993 15.57787,-46.34361 -0.0305,-14.22934 -1.88677,-22.28228 -8.00812,-34.74059 -3.95558,-8.05045 -6.0206,-10.81499 -14.11922,-18.90196 -10.33765,-10.3228 -18.98835,-15.62455 -32.31553,-19.80524 -9.86618,-3.09498 -26.23863,-3.77785 -37.2214,-1.55245 -46.12359,9.34583 -72.695976,56.80518 -56.560085,101.01857 13.340415,36.5536 51.292345,56.6553 90.307425,47.83242 z M 104.08254,694.06736 c 1.13624,-0.95537 9.44902,-14.20948 18.47285,-29.45359 20.58896,-34.78127 20.70413,-35.47561 7.07769,-42.67099 -10.50119,-5.5451 -10.97504,-5.10332 -31.203974,29.09211 -11.552356,19.52837 -17.036866,29.72927 -17.036866,31.6877 0,8.31834 16.486304,16.56122 22.6903,11.34477 z"
         id="path2621"
         transform="scale(0.26458333)" />
      <path
         style="fill:#afdde9;stroke:#000000;stroke-width:6.62142;stroke-linecap:round;stroke-linejoin:round;stroke-opacity:0.955017;paint-order:stroke markers fill"
         d="m 92.558858,687.83429 c -3.136566,-1.7988 -5.208601,-3.67204 -5.204839,-4.70548 0.0083,-2.26958 31.776531,-55.82134 33.899361,-57.14413 1.969,-1.22694 10.31183,2.70955 11.90046,5.61512 0.79804,1.45962 -1.88492,6.65256 -14.10272,27.29618 -15.0012,25.34652 -19.260597,31.95396 -20.587246,31.93615 -0.38166,-0.005 -3.038917,-1.35415 -5.905016,-2.99784 z"
         id="path2697"
         transform="scale(0.26458333)" />
      <path
         style="fill:#374548;stroke:#000000;stroke-width:6.62142;stroke-linecap:round;stroke-linejoin:round;stroke-opacity:0.955017;paint-order:stroke markers fill"
         d="m 49.827932,980.47871 c -1.733187,-1.73319 -1.733187,-386.96438 0,-388.69757 1.729464,-1.72947 234.109508,-1.72947 235.838978,0 1.73319,1.73319 1.73319,386.96438 0,388.69757 -1.72947,1.72947 -234.109514,1.72947 -235.838978,0 z M 181.93919,979.3362 c 4.3673,-1.82477 9.38937,-7.7798 10.19856,-12.09316 1.45446,-7.75292 -1.45941,-14.2669 -8.27853,-18.50681 -5.59367,-3.47796 -15.27761,-3.27972 -20.87947,0.42743 -11.71668,7.75373 -10.28724,24.45018 2.58226,30.1621 3.67463,1.63093 12.48537,1.63654 16.37718,0.0104 z m 69.27758,-35.92858 c 1.63412,-0.84503 3.39859,-2.66076 3.92106,-4.03497 0.59061,-1.55341 0.94995,-63.02864 0.94995,-162.51607 0,-174.89621 0.41529,-162.78428 -5.66785,-165.30223 -2.03867,-0.84385 -25.73959,-1.07631 -89.84646,-0.88123 l -87.077301,0.26497 -2.751936,2.75218 -2.751935,2.75218 v 161.16882 c 0,159.77159 0.01721,161.18796 1.985176,163.37537 1.091847,1.2136 2.878506,2.57217 3.970354,3.01906 1.091847,0.44688 40.755522,0.84083 88.141502,0.87543 75.90901,0.0555 86.50971,-0.11981 89.12744,-1.47351 z"
         id="path2773"
         transform="scale(0.26458333)" />
      <path
         style="fill:#6f918a;stroke:#000000;stroke-width:6.62142;stroke-linecap:round;stroke-linejoin:round;stroke-opacity:0.955017;paint-order:stroke markers fill"
         d="m 170.66722,974.74862 c -4.47941,-1.31607 -6.83317,-2.99308 -8.36876,-5.96258 -3.08797,-5.97148 -0.90002,-12.1218 5.48731,-15.42482 10.74394,-5.5559 23.51512,6.32522 17.18455,15.9869 -2.74845,4.19467 -9.60097,6.78201 -14.3031,5.4005 z"
         id="path2849"
         transform="scale(0.26458333)" />
    </g>
  </g>
</svg>
