<?xml version="1.0" encoding="UTF-8" standalone="no"?>
<!-- Created with Inkscape (http://www.inkscape.org/) -->

<svg
   width="210mm"
   height="297mm"
   viewBox="0 0 210 297"
   version="1.1"
   id="svg5"
   inkscape:version="1.1.2 (0a00cf5339, 2022-02-04, custom)"
   sodipodi:docname="OSC tablet control svg.svg"
   xmlns:inkscape="http://www.inkscape.org/namespaces/inkscape"
   xmlns:sodipodi="http://sodipodi.sourceforge.net/DTD/sodipodi-0.dtd"
   xmlns="http://www.w3.org/2000/svg"
   xmlns:svg="http://www.w3.org/2000/svg">
  <sodipodi:namedview
     id="namedview7"
     pagecolor="#ffffff"
     bordercolor="#666666"
     borderopacity="1.0"
     inkscape:pageshadow="2"
     inkscape:pageopacity="0.0"
     inkscape:pagecheckerboard="0"
     inkscape:document-units="mm"
     showgrid="false"
     inkscape:zoom="1.2595945"
     inkscape:cx="479.91634"
     inkscape:cy="840.34979"
     inkscape:window-width="1680"
     inkscape:window-height="956"
     inkscape:window-x="-11"
     inkscape:window-y="-11"
     inkscape:window-maximized="1"
     inkscape:current-layer="layer3" />
  <defs
     id="defs2" />
  <g
     inkscape:label="Layer 1"
     inkscape:groupmode="layer"
     id="layer1">
    <path
       style="fill:#ffffff;stroke:#000000;stroke-width:10.7127;stroke-linecap:round;stroke-linejoin:round;stroke-opacity:0.955017;paint-order:stroke markers fill"
       d=""
       id="path2168"
       transform="scale(0.26458333)" />
    <path
       style="fill:#00aad4;stroke:#000000;stroke-width:6.62142;stroke-linecap:round;stroke-linejoin:round;stroke-opacity:0.955017;paint-order:stroke markers fill"
       d=""
       id="path2428"
       transform="scale(0.26458333)" />
    <path
       id="path3834"
       style="fill:none;stroke:#000000;stroke-width:1.01414;stroke-linecap:round;stroke-linejoin:round;stroke-opacity:0.955017;paint-order:stroke markers fill"
       d="m 51.730623,86.250341 a 2.5811898,2.546375 0 0 1 -2.58119,2.54638 2.5811898,2.546375 0 0 1 -2.58119,-2.54638 2.5811898,2.546375 0 0 1 2.58119,-2.54637 2.5811898,2.546375 0 0 1 2.58119,2.54637 z m -30.182118,-63.33868 1.64636,1.21978 c 0.37951,0.28117 0.49087,0.86374 0.24971,1.30619 l -8.71372,15.98654 c -0.24117,0.44245 -0.74085,0.5723 -1.12035,0.29112 l -1.64636,-1.21977 c -0.37951,-0.28117 -0.49087,-0.86374 -0.24971,-1.30619 l 8.71372,-15.98654 c 0.24117,-0.44246 0.74085,-0.5723 1.12035,-0.29113 z M 9.4562548,20.970531 H 85.268653 c 0.44965,0 0.81165,0.42205 0.81165,0.94628 v 58.98897 c 0,0.52424 -0.362,0.94628 -0.81165,0.94628 H 9.4562548 c -0.44965,0 -0.81164,-0.42204 -0.81164,-0.94628 v -58.98897 c 0,-0.52423 0.36199,-0.94628 0.81164,-0.94628 z m -3.77251,-5.55572 H 90.629583 c 0.44965,0 0.81165,0.42204 0.81165,0.94628 v 73.10978 c 0,0.52424 -0.362,0.946283 -0.81165,0.946283 H 5.6837448 c -0.44965,0 -0.81164,-0.422043 -0.81164,-0.946283 v -73.10978 c 0,-0.52424 0.36199,-0.94628 0.81164,-0.94628 z m 47.0093682,38.72521 -0.24652,-0.43645 c -0.17097,-0.30267 -0.1114,-0.70824 0.13358,-0.90932 l 7.87772,-6.46625 c 0.24497,-0.20109 0.57983,-0.11928 0.7508,0.1834 l 0.24653,0.43645 c 0.17097,0.30269 0.11139,0.70825 -0.13359,0.90933 l -7.87771,6.46625 c -0.24498,0.20108 -0.57984,0.11929 -0.75081,-0.18341 z m 11.31663,-2.61298 a 12.576953,15.241919 2.2484831e-6 0 1 -12.57695,15.24193 12.576953,15.241919 2.2484831e-6 0 1 -12.576958,-15.24193 12.576953,15.241919 2.2484831e-6 0 1 12.576958,-15.24192 12.576953,15.241919 2.2484831e-6 0 1 12.57695,15.24192 z m -1.97971,0 a 13.139585,10.597248 89.999999 0 1 -10.59724,13.13959 13.139585,10.597248 89.999999 0 1 -10.597248,-13.13959 13.139585,10.597248 89.999999 0 1 10.597248,-13.13959 13.139585,10.597248 89.999999 0 1 10.59724,13.13959 z" />
    <path
       style="fill:#000000;fill-opacity:1;stroke:#000000;stroke-width:2.17627;stroke-linecap:round;stroke-linejoin:round;stroke-opacity:0.955017;paint-order:stroke markers fill"
       d=""
       id="path31236"
       transform="scale(0.26458333)" />
    <path
       style="fill:#000000;fill-opacity:1;stroke:#000000;stroke-width:2.17627;stroke-linecap:round;stroke-linejoin:round;stroke-opacity:0.955017;paint-order:stroke markers fill"
       d=""
       id="path31275"
       transform="scale(0.26458333)" />
    <path
       style="fill:#000000;fill-opacity:1;stroke:#000000;stroke-width:1.76822;stroke-linecap:round;stroke-linejoin:round;stroke-opacity:0.955017;paint-order:stroke markers fill"
       d=""
       id="path31390"
       transform="scale(0.26458333)" />
    <path
       style="fill:#000000;fill-opacity:1;stroke:#000000;stroke-width:1.76822;stroke-linecap:round;stroke-linejoin:round;stroke-opacity:0.955017;paint-order:stroke markers fill"
       d=""
       id="path31429"
       transform="scale(0.26458333)" />
    <path
       style="fill:#000000;fill-opacity:1;stroke:#000000;stroke-width:1.76822;stroke-linecap:round;stroke-linejoin:round;stroke-opacity:0.955017;paint-order:stroke markers fill"
       d=""
       id="path31544"
       transform="scale(0.26458333)" />
    <path
       style="fill:#000000;fill-opacity:1;stroke:#000000;stroke-width:1.76822;stroke-linecap:round;stroke-linejoin:round;stroke-opacity:0.955017;paint-order:stroke markers fill"
       d=""
       id="path31622"
       transform="scale(0.26458333)" />
    <g
       id="g31791"
       transform="translate(-0.60334765,5.7318027)" />
    <path
       style="fill:#000000;fill-rule:evenodd;stroke:#000000;stroke-width:2.13936;stroke-linecap:round;stroke-linejoin:round;paint-order:stroke markers fill"
       d=""
       id="path1650"
       transform="scale(0.26458333)" />
  </g>
  <g
     inkscape:groupmode="layer"
     id="layer2"
     inkscape:label="Layer 2">
    <path
       style="fill:#000000;stroke-width:0.264583"
       d="m 112.23169,91.650908 c -0.40306,-0.44538 -0.43788,-3.42946 -0.43788,-37.529828 0,-35.553517 0.0195,-37.063614 0.48385,-37.483855 0.44604,-0.403661 3.83394,-0.437882 43.35066,-0.437882 41.19265,0 42.88391,0.0189 43.30469,0.483854 0.40306,0.445382 0.43788,3.429455 0.43788,37.529826 0,35.553515 -0.0195,37.063615 -0.48385,37.483855 -0.44604,0.40366 -3.83395,0.43788 -43.35066,0.43788 -41.19265,0 -42.88391,-0.0189 -43.30469,-0.48385 z m 0.98072,-0.97136 c -0.0838,-0.21828 -0.19909,-0.39687 -0.25628,-0.39687 -0.0572,0 -0.10399,0.17859 -0.10399,0.39687 0,0.21828 0.11533,0.39688 0.25628,0.39688 0.14096,0 0.18775,-0.1786 0.10399,-0.39688 z m 44.76322,-1.84005 c 1.76403,-1.76403 -0.64091,-4.3716 -2.70105,-2.92862 -0.77237,0.54099 -0.97714,1.56992 -0.49716,2.49809 0.65856,1.27351 2.15392,1.47481 3.19821,0.43053 z m -5.23755,-5.08921 c -0.25466,-0.0665 -0.67138,-0.0665 -0.92604,0 -0.25466,0.0666 -0.0463,0.12101 0.46302,0.12101 0.50932,0 0.71768,-0.0545 0.46302,-0.12101 z m 35.45416,-1.31527 4.56407,-0.17313 V 52.537906 22.813926 h -37.92453 -37.92453 l -0.17517,12.501563 c -0.22402,15.988514 -0.22661,41.469723 -0.005,44.598378 l 0.17125,2.412481 2.40844,0.0868 c 4.77364,0.17203 64.42725,0.19097 68.885,0.0219 z M 156.96216,68.319326 c -4.85676,-0.845622 -9.22983,-5.429449 -10.61488,-11.12647 -0.61623,-2.534685 -0.55887,-6.776673 0.12501,-9.244508 2.19371,-7.916271 8.96586,-12.386092 15.64185,-10.324087 8.37576,2.587007 12.34752,14.225916 7.90242,23.157374 -1.29622,2.604471 -2.70299,4.261599 -4.81508,5.671997 -2.42297,1.617996 -5.56963,2.330522 -8.23932,1.865694 z m 5.20586,-3.661183 c 2.69188,-1.190749 4.68325,-3.494828 5.88721,-6.811714 0.70288,-1.9364 1.08966,-5.434994 0.7821,-7.074424 l -0.17969,-0.957836 -3.85521,3.168629 c -2.12036,1.742744 -4.012,3.168629 -4.20364,3.168629 -0.57895,0 -1.17998,-0.787334 -1.17998,-1.545744 0,-0.601623 0.66189,-1.255474 4.19928,-4.148288 l 4.19928,-3.434094 -0.64967,-1.291904 c -0.93651,-1.862315 -2.80755,-3.736802 -4.64786,-4.656417 -1.3567,-0.677951 -1.90135,-0.798522 -3.60631,-0.798345 -2.64081,2.65e-4 -4.60351,0.895443 -6.58664,3.004101 -2.32029,2.467155 -3.48296,5.614117 -3.48827,9.441664 -0.0121,8.703051 6.81577,14.817032 13.3294,11.935743 z M 150.45673,42.459239 c 0.3291,-0.419644 0.31974,-0.429002 -0.0999,-0.09989 -0.44073,0.345643 -0.58089,0.562916 -0.36313,0.562916 0.055,0 0.2633,-0.20836 0.46303,-0.463021 z m -30.35613,0.379693 c -2.07462,-1.426089 -2.09957,-1.334412 2.83384,-10.41029 2.36032,-4.342208 4.46912,-8.103283 4.68623,-8.357945 0.59532,-0.698301 1.32672,-0.563098 2.60058,0.480735 0.84778,0.694692 1.1494,1.1311 1.1429,1.653646 -0.0113,0.906221 -8.65793,16.674803 -9.41146,17.163322 -0.49954,0.323853 -0.68986,0.269444 -1.85209,-0.529468 z m 2.43579,-1.834901 c 0.21093,-0.400183 0.33674,-0.727605 0.27958,-0.727605 -0.15912,0 -1.49831,2.077423 -1.48875,2.309432 0.0111,0.269724 0.72658,-0.666236 1.20917,-1.581827 z m -2.5405,-0.119063 c 0,-0.532075 -0.0765,-0.637891 -0.29971,-0.414659 -0.16485,0.164843 -0.22811,0.486312 -0.1406,0.714375 0.24221,0.631183 0.44031,0.496337 0.44031,-0.299716 z m 10.20729,-15.100779 c -0.4556,-0.436374 -0.46124,-0.430735 -0.12656,0.126559 0.19266,0.320803 0.40723,0.526328 0.47684,0.456721 0.0696,-0.06961 -0.088,-0.332083 -0.35028,-0.58328 z m -1.2335,-1.043311 c 0.0606,-0.04118 -0.0755,-0.07487 -0.30242,-0.07487 -0.22697,0 -0.48766,0.195434 -0.57932,0.434298 -0.1451,0.3781 -0.10596,0.387788 0.30242,0.07487 0.25799,-0.197687 0.51868,-0.393121 0.57932,-0.434299 z m -13.53814,22.859517 c -0.0419,-3.37334 -0.0761,-0.537406 -0.076,6.302073 6e-5,6.839479 0.0343,9.599483 0.0761,6.133343 0.0418,-3.466139 0.0418,-9.062077 -1e-4,-12.435416 z m 61.64821,-30.276551 c -11.75081,-0.03811 -30.9794,-0.03811 -42.73021,0 -11.75081,0.03811 -2.13651,0.0693 21.3651,0.0693 23.50162,0 33.11591,-0.03118 21.36511,-0.0693 z"
       id="path2152" />
  </g>
  <g
     inkscape:groupmode="layer"
     id="layer3"
     inkscape:label="Layer 3"
     style="display:inline">
    <g
       id="g1321">
      <path
         id="path863"
         style="fill:none;stroke:#000000;stroke-width:1.01414;stroke-linecap:round;stroke-linejoin:round;stroke-opacity:0.955017;paint-order:stroke markers fill"
         d="m 57.462426,275.09816 a 2.5811898,2.546375 0 0 1 -2.58119,2.54638 2.5811898,2.546375 0 0 1 -2.58119,-2.54638 2.5811898,2.546375 0 0 1 2.58119,-2.54637 2.5811898,2.546375 0 0 1 2.58119,2.54637 z m -30.182118,-63.33868 1.64636,1.21978 c 0.37951,0.28117 0.49087,0.86374 0.24971,1.30619 l -8.71372,15.98654 c -0.24117,0.44245 -0.74085,0.5723 -1.12035,0.29112 l -1.64636,-1.21977 c -0.37951,-0.28117 -0.49087,-0.86374 -0.24971,-1.30619 l 8.71372,-15.98654 c 0.24117,-0.44246 0.74085,-0.5723 1.12035,-0.29113 z m -12.092251,-1.94113 h 75.812399 c 0.44965,0 0.81165,0.42205 0.81165,0.94628 v 58.98897 c 0,0.52424 -0.362,0.94628 -0.81165,0.94628 H 15.188057 c -0.44965,0 -0.81164,-0.42204 -0.81164,-0.94628 v -58.98897 c 0,-0.52423 0.36199,-0.94628 0.81164,-0.94628 z m -3.77251,-5.55572 h 84.945839 c 0.44965,0 0.81165,0.42204 0.81165,0.94628 v 73.10978 c 0,0.52424 -0.362,0.94628 -0.81165,0.94628 H 11.415547 c -0.44965,0 -0.81164,-0.42204 -0.81164,-0.94628 v -73.10978 c 0,-0.52424 0.36199,-0.94628 0.81164,-0.94628 z m 47.009369,38.72521 -0.24652,-0.43645 c -0.17097,-0.30267 -0.1114,-0.70824 0.13358,-0.90932 l 7.87772,-6.46625 c 0.24497,-0.20109 0.57983,-0.11928 0.7508,0.1834 l 0.24653,0.43645 c 0.17097,0.30269 0.11139,0.70825 -0.13359,0.90933 l -7.87771,6.46625 c -0.24498,0.20108 -0.57984,0.11929 -0.75081,-0.18341 z m 11.31663,-2.61298 a 12.576953,15.241919 2.2484831e-6 0 1 -12.57695,15.24193 12.576953,15.241919 2.2484831e-6 0 1 -12.576958,-15.24193 12.576953,15.241919 2.2484831e-6 0 1 12.576958,-15.24192 12.576953,15.241919 2.2484831e-6 0 1 12.57695,15.24192 z m -1.97971,0 a 13.139585,10.597248 89.999999 0 1 -10.59724,13.13959 13.139585,10.597248 89.999999 0 1 -10.597248,-13.13959 13.139585,10.597248 89.999999 0 1 10.597248,-13.13959 13.139585,10.597248 89.999999 0 1 10.59724,13.13959 z" />
      <path
         style="fill:#ffffff;stroke:#000000;stroke-width:8.46789;stroke-linecap:round;stroke-linejoin:round;stroke-opacity:0.955017;paint-order:stroke markers fill"
         d="m 42.714319,1052.1092 c -0.299285,-0.786 -0.412134,-63.5122 -0.250776,-139.39148 l 0.293377,-137.96233 161.05559,-0.28897 161.05559,-0.28898 -0.28957,139.39149 -0.28957,139.39147 -160.51525,0.289 c -127.811892,0.2301 -160.626103,0 -161.059391,-1.1402 z m 173.122841,-3.7927 c 9.13348,-9.1335 0.37577,-23.636 -12.02889,-19.9194 -7.4639,2.2362 -10.74993,10.1451 -7.12646,17.1521 2.27226,4.394 4.65293,5.6247 10.96135,5.6663 4.1584,0.027 5.87495,-0.5799 8.194,-2.899 z m 133.10383,-26.2582 c 0.72417,-1.9047 1.02034,-43.38795 0.82692,-115.82079 -0.2943,-110.21439 -0.3531,-112.89107 -2.5146,-114.47143 -3.32375,-2.43013 -289.837914,-2.43013 -293.161667,0 -2.161495,1.58036 -2.220293,4.25704 -2.514601,114.47143 -0.193418,72.43284 0.102754,113.91609 0.826918,115.82079 l 1.128272,2.9676 H 200.67248 347.81272 Z"
         id="path1000"
         transform="scale(0.26458333)" />
      <path
         style="fill:#ffffff;stroke:#000000;stroke-width:8.46789;stroke-linecap:round;stroke-linejoin:round;stroke-opacity:0.955017;paint-order:stroke markers fill"
         d="M 57.009227,908.15698 V 795.84881 H 200.67248 344.33573 V 908.15698 1020.4652 H 200.67248 57.009227 Z m 178.630943,55.42946 c 13.64826,-7.31523 24.49051,-21.84099 28.26986,-37.87416 2.2283,-9.45314 2.22503,-26.09557 -0.007,-34.66419 -4.54099,-17.43407 -15.65967,-31.80508 -29.76958,-38.4775 -7.00073,-3.31057 -8.86677,-3.69185 -18.06866,-3.69185 -9.2019,0 -11.06793,0.38128 -18.06867,3.69185 -19.51626,9.22903 -31.55354,30.44477 -31.51251,55.5409 0.0309,18.91974 6.05961,34.85471 17.44461,46.10952 11.21305,11.08483 18.43032,13.95808 33.84684,13.4747 9.7361,-0.30526 11.54318,-0.72093 17.86493,-4.10927 z M 78.422492,873.09631 c 0.64304,-0.78388 8.658652,-15.13502 17.81247,-31.89142 10.731648,-19.64468 16.643308,-31.65498 16.643308,-33.81304 0,-2.72123 -0.99564,-4.00634 -5.32631,-6.87486 -6.14981,-4.07346 -7.36603,-4.26514 -9.725244,-1.53268 -1.537679,1.78096 -26.422643,46.89593 -32.739307,59.35444 -3.085481,6.08557 -2.417009,8.47264 3.591561,12.82522 4.992428,3.6165 7.890471,4.19124 9.743522,1.93234 z"
         id="path1039"
         transform="scale(0.26458333)" />
      <path
         style="fill:#ffffff;stroke:#000000;stroke-width:8.46789;stroke-linecap:round;stroke-linejoin:round;stroke-opacity:0.955017;paint-order:stroke markers fill"
         d="m 70.976487,866.60208 c -1.410978,-1.1757 -2.565415,-2.52436 -2.565415,-2.99701 0,-0.9637 30.498588,-57.28434 32.191938,-59.4477 1.41915,-1.81304 6.57677,1.39008 6.56884,4.07955 -0.007,2.2161 -31.230482,59.80206 -32.650387,60.21672 -0.538758,0.15734 -2.133997,-0.67587 -3.544976,-1.85156 z"
         id="path1078"
         transform="scale(0.26458333)" />
      <path
         style="fill:#ffffff;stroke:#000000;stroke-width:5.21009;stroke-linecap:round;stroke-linejoin:round;stroke-opacity:0.955017;paint-order:stroke markers fill"
         d="m 202.99924,1045.4373 c -3.77731,-3.0597 -4.03711,-7.0433 -0.6784,-10.4021 3.23556,-3.2355 7.26438,-3.3664 10.29628,-0.3345 4.57445,4.5744 1.41877,11.9977 -5.08608,11.9643 -1.81077,-0.01 -3.63917,-0.5046 -4.5318,-1.2277 z"
         id="path1117"
         transform="scale(0.26458333)" />
      <path
         style="fill:#ffffff;stroke:#000000;stroke-width:5.21009;stroke-linecap:round;stroke-linejoin:round;stroke-opacity:0.955017;paint-order:stroke markers fill"
         d="m 205.98812,962.46407 c -10.9484,-2.74926 -23.22741,-13.98586 -29.17662,-26.69971 -4.13067,-8.82749 -5.18048,-14.41987 -5.18781,-27.63563 -0.006,-10.96684 0.14549,-12.42291 1.88453,-18.10468 3.26934,-10.68151 8.3377,-19.02375 15.57861,-25.64153 4.76266,-4.35281 8.79964,-6.79959 14.83063,-8.98872 6.44918,-2.34092 17.8575,-2.34092 24.30668,0 6.17246,2.24049 10.19998,4.7178 15.20815,9.35448 7.93592,7.34727 14.30852,19.26754 16.54254,30.94368 1.24226,6.49272 1.24226,18.49734 2e-5,25.41505 -3.17643,17.68852 -14.57205,32.97891 -29.61343,39.73463 -3.6054,1.61934 -5.21087,1.8781 -12.88756,2.07719 -4.82301,0.12508 -9.99159,-0.0796 -11.48574,-0.45476 z m 17.17759,-2.77214 c 5.55855,-1.0307 13.37714,-5.15588 18.15366,-9.5781 22.57286,-20.89848 22.54334,-62.81353 -0.0586,-83.26715 -18.22821,-16.49557 -43.65734,-12.62921 -57.90633,8.80434 -10.05715,15.12811 -12.28032,36.60785 -5.66619,54.74531 2.60174,7.13458 5.90576,12.24481 11.72449,18.13396 9.64201,9.7587 21.02275,13.52215 33.753,11.16164 z"
         id="path1156"
         transform="scale(0.26458333)" />
      <path
         style="fill:#ffffff;stroke:#000000;stroke-width:3.68586;stroke-linecap:round;stroke-linejoin:round;stroke-opacity:0.955017;paint-order:stroke markers fill"
         d="m 222.08728,916.14528 c -0.18832,-0.59334 -0.15271,-1.24823 0.0791,-1.45532 3.40234,-3.03919 28.5851,-23.34568 28.95175,-23.34568 0.27664,0 0.50298,0.42779 0.50298,0.95064 0,0.64283 -4.45924,4.60276 -13.77216,12.23009 -7.57469,6.20371 -14.14277,11.59887 -14.59573,11.98926 -0.72844,0.62781 -0.86312,0.58518 -1.16596,-0.36899 z"
         id="path1195"
         transform="scale(0.26458333)" />
      <path
         style="fill:#ffffff;fill-rule:evenodd;stroke:#000000;stroke-width:0.512082;stroke-linecap:round;stroke-linejoin:round;paint-order:stroke markers fill"
         d="m 207.20281,962.30678 c -11.17426,-1.93687 -25.03664,-14.81522 -31.05006,-28.84595 -3.47269,-8.1026 -3.91623,-10.98085 -3.92811,-25.49069 l -0.0106,-12.90365 1.59007,-4.96294 c 1.97079,-6.15126 5.74622,-13.91309 8.72097,-17.92929 6.67508,-9.01197 16.59588,-15.81006 25.68083,-17.59741 4.44692,-0.87488 15.88052,-0.33643 19.35608,0.91155 9.06588,3.25531 17.2081,9.66007 22.78723,17.9247 2.979,4.41292 6.68614,12.39279 8.20748,17.66716 2.63336,9.12963 2.76683,24.00171 0.30167,33.61404 -3.96176,15.44797 -13.79928,28.27516 -26.59274,34.67441 -4.15925,2.08044 -5.64608,2.55952 -9.18144,2.95842 -4.87706,0.55028 -12.64676,0.54033 -15.88141,-0.0204 z m 17.48319,-2.80435 c 4.1943,-0.95924 10.02224,-3.90966 14.52778,-7.35477 8.21732,-6.28327 14.89774,-17.42382 17.69275,-29.5052 1.41971,-6.13664 1.77643,-17.66766 0.74753,-24.16387 -2.03648,-12.85779 -7.08044,-22.90305 -15.57253,-31.01335 -4.63793,-4.42941 -9.26072,-7.29996 -14.77881,-9.17701 -5.17589,-1.76064 -14.04615,-2.21042 -19.30208,-0.97875 -10.07063,2.35994 -19.57274,9.6324 -25.99072,19.89203 -8.49457,13.57924 -10.59574,34.01375 -5.24963,51.05415 2.50251,7.97659 5.69082,13.27298 11.79628,19.59584 10.63609,11.01482 22.36816,14.79815 36.12943,11.65093 z"
         id="path916"
         transform="scale(0.26458333)" />
      <path
         style="fill:#ffffff;fill-rule:evenodd;stroke:#000000;stroke-width:0.512082;stroke-linecap:round;stroke-linejoin:round;paint-order:stroke markers fill"
         d="m 222.41689,916.31882 c -0.17889,-0.17889 -0.32526,-0.50551 -0.32526,-0.72581 0,-0.62093 28.26109,-23.75243 29.01972,-23.75243 1.15599,0 -4.25558,4.9151 -16.11607,14.63752 -3.95795,3.24446 -8.33406,6.85908 -9.72469,8.0325 -1.39064,1.17342 -2.6748,1.98712 -2.8537,1.80822 z"
         id="path955"
         transform="scale(0.26458333)" />
    </g>
  </g>
  <g
     inkscape:groupmode="layer"
     id="layer4"
     inkscape:label="Layer 4">
    <g
       id="g29719"
       transform="translate(22.15034,-12.378131)">
      <path
         id="path1536"
         style="fill:none;stroke:#000000;stroke-width:1.01414;stroke-linecap:round;stroke-linejoin:round;stroke-opacity:0.955017;paint-order:stroke markers fill"
         d="m 107.67524,197.32188 c 0.0414,4.52361 -7.7851,1.98513 -4.40637,-1.80056 1.46371,-1.625 4.52277,-0.40721 4.40637,1.80056 z M 77.493122,133.9832 c 1.557826,0.74604 2.687129,2.25967 1.230039,3.7479 -2.775552,4.9996 -5.403707,10.09868 -8.27112,15.0363 -1.31524,0.2599 -3.842105,-1.63435 -2.459973,-3.11749 2.886548,-5.20327 5.625732,-10.50599 8.604135,-15.64727 0.246993,-0.21321 0.640926,-0.22451 0.896919,-0.0194 z m -12.09225,-1.94113 c 25.270799,0 50.541598,0 75.812398,0 1.52101,0.75029 0.52472,3.00203 0.81165,4.42542 0,18.50328 0,37.00655 0,55.50983 -0.50635,1.73671 -2.90867,0.6366 -4.29079,0.94628 -24.11108,0 -48.222171,0 -72.333258,0 -1.521,-0.75029 -0.524708,-3.00203 -0.81164,-4.42542 0,-18.50328 0,-37.00655 0,-55.50983 -0.0138,-0.4522 0.322913,-0.94963 0.81164,-0.94628 z m -3.77251,-5.55572 c 28.315279,0 56.630558,0 84.945838,0 1.52101,0.75029 0.52472,3.00203 0.81165,4.42542 0,23.21021 0,46.42043 0,69.63064 -0.50635,1.73671 -2.90867,0.6366 -4.29079,0.94628 -27.15556,0 -54.311131,0 -81.466698,0 -1.521,-0.75029 -0.524708,-3.00203 -0.81164,-4.42542 0,-23.21021 0,-46.42043 0,-69.63064 -0.01381,-0.4522 0.322912,-0.94963 0.81164,-0.94628 z m 47.009368,38.72521 c -0.99949,-1.61399 1.54133,-2.3605 2.39699,-3.40599 1.94847,-1.45123 3.68575,-3.32662 5.77094,-4.50324 1.79125,1.3837 -0.93635,2.60393 -1.87006,3.53945 -2.00838,1.49998 -3.80506,3.42515 -5.95022,4.6504 z m 11.31663,-2.61298 c 1.02976,10.0432 -11.12539,20.59591 -19.969507,12.33098 -10.495483,-8.12936 -4.147273,-30.38669 10.191187,-27.19075 6.32677,1.77603 9.84417,8.63582 9.77832,14.85977 z m -1.97971,0 c 1.10449,8.58707 -9.5414,17.64904 -16.82615,10.63015 -9.054035,-7.15696 -3.255204,-27.20053 9.50363,-23.12664 4.86321,2.00511 7.34987,7.48514 7.32252,12.49649 z" />
      <path
         style="fill:#374548;fill-opacity:1;stroke:#000000;stroke-width:2.48905;stroke-linecap:round;stroke-linejoin:round;stroke-opacity:0.955017;paint-order:stroke markers fill"
         d="m 61.565276,163.98751 c 0,-12.25087 0,-24.50174 0,-36.75261 28.35734,0 56.714674,0 85.072014,0 0,24.50174 0,49.00348 0,73.50521 -28.35734,0 -56.714674,0 -85.072014,0 0,-12.25087 0,-24.50173 0,-36.7526 z m 45.776784,35.5682 c 4.12543,-4.45327 -5.46983,-8.19819 -5.43805,-2.18577 -0.0161,2.83135 3.46264,3.99327 5.43805,2.18577 z m 34.60068,-6.13141 c 0.91215,-4.17586 0.36957,-8.65008 0.56707,-12.94725 -0.0363,-15.73831 0.20333,-31.48335 -0.19464,-47.21709 -0.8552,-3.64191 -7.00609,-1.01181 -10.14868,-1.84223 -21.81525,-0.0399 -43.635632,-0.25183 -65.448155,0.10447 -4.819078,-0.1697 -1.964732,6.65581 -2.822876,9.8041 -0.117819,16.92065 -0.260715,33.84919 0.200686,50.7653 1.934186,2.86779 7.526197,0.8469 10.914499,1.52187 22.30973,0.0147 44.625596,0.17404 66.932096,-0.18917 z"
         id="path6330" />
      <path
         style="fill:#004455;fill-opacity:1;stroke:#000000;stroke-width:2.48905;stroke-linecap:round;stroke-linejoin:round;stroke-opacity:0.955017;paint-order:stroke markers fill"
         d="m 65.683714,191.43836 c -0.67314,-13.78872 -0.355941,-27.61897 -0.359701,-41.42452 0.114855,-5.5166 -0.03018,-11.05515 0.438896,-16.55421 4.430064,-0.97419 9.159322,-0.35651 13.706848,-0.57172 20.461433,0.002 40.922763,0.0865 61.384133,0.1304 0,19.65114 0,39.30228 0,58.95341 -24.04908,0.002 -48.100132,0.26998 -72.147711,0.0258 -0.955355,-0.15662 -2.266992,0.15937 -3.022465,-0.55914 z m 46.519306,-13.99857 c 8.81859,-4.4295 10.69154,-17.0748 5.46447,-24.89467 -3.31226,-5.32117 -10.8928,-7.68343 -16.29814,-4.10616 -10.165505,6.30028 -9.532362,24.20576 1.6296,29.10355 2.91513,1.15373 6.3291,1.20062 9.20407,-0.10272 z M 70.976785,153.07366 c 3.393821,-5.56492 6.5365,-11.3287 9.244635,-17.25601 -1.444961,-3.9464 -5.322663,-2.27103 -6.081887,1.11081 -2.543263,4.56619 -5.204857,9.09491 -7.338611,13.86781 0.609468,1.23948 2.762311,4.02648 4.175863,2.27739 z"
         id="path8005" />
      <path
         style="fill:#004455;fill-opacity:1;stroke:#000000;stroke-width:2.48905;stroke-linecap:round;stroke-linejoin:round;stroke-opacity:0.955017;paint-order:stroke markers fill"
         d="m 103.67899,173.94982 c -8.474132,-4.52416 -8.039577,-19.23481 0.7829,-23.13605 4.71019,-2.00852 9.84371,1.4744 11.58983,5.8811 -2.81354,2.41118 -5.84737,4.59954 -8.36689,7.32588 1.00867,4.80514 5.96262,-1.71537 8.10553,-2.89752 2.88836,-2.41094 0.80897,5.40137 0.39863,6.98543 -1.91606,4.74758 -7.43936,8.91197 -12.51,5.84116 z"
         id="path8044" />
      <path
         style="fill:#afdde9;fill-opacity:1;stroke:#000000;stroke-width:2.48905;stroke-linecap:round;stroke-linejoin:round;stroke-opacity:0.955017;paint-order:stroke markers fill"
         d="m 69.005409,151.27443 c 0.185198,-3.74104 3.173939,-7.07514 4.698738,-10.53918 1.099582,-1.43015 3.251788,-7.46884 4.577099,-4.55575 -2.355707,5.39762 -5.253247,10.58949 -8.380383,15.57703 l -0.423093,-0.0883 z"
         id="path22188" />
      <path
         style="fill:#00a3cc;fill-opacity:1;stroke:#000000;stroke-width:1.01031;stroke-linecap:round;stroke-linejoin:round;stroke-opacity:0.955017;paint-order:stroke markers fill"
         d="m 105.12675,176.82239 c -8.140275,-2.08177 -11.308409,-12.26269 -8.779895,-19.61635 1.636216,-5.58198 7.341745,-10.38564 13.379325,-8.86763 7.35556,2.01574 10.69099,10.62845 9.14419,17.62255 -0.91773,5.88635 -6.02571,11.89807 -12.47468,11.01801 l -0.68862,-0.0595 z m 4.59092,-0.83426 c 8.19827,-2.37657 10.85446,-13.18032 7.31817,-20.27531 -2.10521,-5.13689 -8.41969,-8.5536 -13.66566,-5.92335 -9.572614,4.79907 -9.579292,21.00599 0.12745,25.65055 1.93299,0.88071 4.16303,1.08674 6.22004,0.54811 z"
         id="path25111" />
      <path
         style="fill:#6f918a;fill-opacity:1;stroke:#000000;stroke-width:1.01031;stroke-linecap:round;stroke-linejoin:round;stroke-opacity:0.955017;paint-order:stroke markers fill"
         d="m 109.81006,163.77649 c 1.96676,-1.4323 5.54251,-5.48028 6.8095,-5.2739 -1.82187,1.71157 -6.19296,5.53002 -6.8095,5.2739 z"
         id="path25150" />
      <path
         style="fill:#6f918a;fill-opacity:1;stroke:#000000;stroke-width:1.01031;stroke-linecap:round;stroke-linejoin:round;stroke-opacity:0.955017;paint-order:stroke markers fill"
         d="m 104.38177,198.98855 c -4.34517,-3.33152 4.99571,-4.88948 1.88692,-0.38427 -0.50322,0.45373 -1.24673,0.58148 -1.88692,0.38427 z"
         id="path26552" />
      <path
         style="fill:#00a3cc;fill-opacity:1;stroke:#000000;stroke-width:0.380325;stroke-linecap:round;stroke-linejoin:round;stroke-opacity:0.955017;paint-order:stroke markers fill"
         d="m 109.57386,164.09103 c 2.14733,-1.80817 5.13932,-4.97448 7.08446,-5.70684 -2.12937,2.04867 -4.79346,4.31731 -7.08446,5.70684 z"
         id="path29475" />
      <path
         style="fill:#00a3cc;fill-opacity:1;stroke:#000000;stroke-width:0.380325;stroke-linecap:round;stroke-linejoin:round;stroke-opacity:0.955017;paint-order:stroke markers fill"
         d="m 109.01394,164.54923 c 0.23173,-1.01699 0.85883,0.24757 0,0 z"
         id="path29553" />
    </g>
  </g>
</svg>
