<?xml version="1.0" encoding="UTF-8" standalone="no"?>
<!-- Created with Inkscape (http://www.inkscape.org/) -->

<svg
   width="210mm"
   height="297mm"
   viewBox="0 0 210 297"
   version="1.1"
   id="svg5"
   inkscape:version="1.1 (c68e22c387, 2021-05-23)"
   sodipodi:docname="OSC phone control svg.svg"
   xmlns:inkscape="http://www.inkscape.org/namespaces/inkscape"
   xmlns:sodipodi="http://sodipodi.sourceforge.net/DTD/sodipodi-0.dtd"
   xmlns="http://www.w3.org/2000/svg"
   xmlns:svg="http://www.w3.org/2000/svg">
  <sodipodi:namedview
     id="namedview7"
     pagecolor="#ffffff"
     bordercolor="#666666"
     borderopacity="1.0"
     inkscape:pageshadow="2"
     inkscape:pageopacity="0.0"
     inkscape:pagecheckerboard="0"
     inkscape:document-units="mm"
     showgrid="false"
     inkscape:zoom="0.87705101"
     inkscape:cx="562.11098"
     inkscape:cy="178.43888"
     inkscape:window-width="1680"
     inkscape:window-height="956"
     inkscape:window-x="-11"
     inkscape:window-y="-11"
     inkscape:window-maximized="1"
     inkscape:current-layer="layer1" />
  <defs
     id="defs2" />
  <g
     inkscape:label="Layer 1"
     inkscape:groupmode="layer"
     id="layer1">
    <path
       style="fill:#ffffff;stroke:#000000;stroke-width:10.7127;stroke-linecap:round;stroke-linejoin:round;stroke-opacity:0.955017;paint-order:stroke markers fill"
       d=""
       id="path2168"
       transform="scale(0.26458333)" />
    <path
       style="fill:#00aad4;stroke:#000000;stroke-width:6.62142;stroke-linecap:round;stroke-linejoin:round;stroke-opacity:0.955017;paint-order:stroke markers fill"
       d=""
       id="path2428"
       transform="scale(0.26458333)" />
    <path
       id="path3834"
       style="fill:none;stroke:#000000;stroke-width:1.01414;stroke-linecap:round;stroke-linejoin:round;stroke-opacity:0.955017;paint-order:stroke markers fill"
       d="m 56.557404,96.205577 a 2.5811898,2.546375 0 0 1 -2.58119,2.54638 2.5811898,2.546375 0 0 1 -2.58119,-2.54638 2.5811898,2.546375 0 0 1 2.58119,-2.54637 2.5811898,2.546375 0 0 1 2.58119,2.54637 z m -30.182118,-63.33868 1.64636,1.21978 c 0.37951,0.28117 0.49087,0.86374 0.24971,1.30619 l -8.71372,15.98654 c -0.24117,0.44245 -0.74085,0.5723 -1.12035,0.29112 l -1.64636,-1.21977 c -0.37951,-0.28117 -0.49087,-0.86374 -0.24971,-1.30619 l 8.71372,-15.98654 c 0.24117,-0.44246 0.74085,-0.5723 1.12035,-0.29113 z m -12.09225,-1.94113 h 75.812398 c 0.44965,0 0.81165,0.42205 0.81165,0.94628 v 58.98897 c 0,0.52424 -0.362,0.94628 -0.81165,0.94628 H 14.283036 c -0.44965,0 -0.81164,-0.42204 -0.81164,-0.94628 v -58.98897 c 0,-0.52423 0.36199,-0.94628 0.81164,-0.94628 z m -3.77251,-5.55572 h 84.945838 c 0.44965,0 0.81165,0.42204 0.81165,0.94628 v 73.10978 c 0,0.52424 -0.362,0.946283 -0.81165,0.946283 H 10.510526 c -0.44965,0 -0.81164,-0.422043 -0.81164,-0.946283 v -73.10978 c 0,-0.52424 0.36199,-0.94628 0.81164,-0.94628 z m 47.009368,38.72521 -0.24652,-0.43645 c -0.17097,-0.30267 -0.1114,-0.70824 0.13358,-0.90932 l 7.87772,-6.46625 c 0.24497,-0.20109 0.57983,-0.11928 0.7508,0.1834 l 0.24653,0.43645 c 0.17097,0.30269 0.11139,0.70825 -0.13359,0.90933 l -7.87771,6.46625 c -0.24498,0.20108 -0.57984,0.11929 -0.75081,-0.18341 z m 11.31663,-2.61298 a 12.576953,15.241919 2.2484831e-6 0 1 -12.57695,15.24193 12.576953,15.241919 2.2484831e-6 0 1 -12.576958,-15.24193 12.576953,15.241919 2.2484831e-6 0 1 12.576958,-15.24192 12.576953,15.241919 2.2484831e-6 0 1 12.57695,15.24192 z m -1.97971,0 a 13.139585,10.597248 89.999999 0 1 -10.59724,13.13959 13.139585,10.597248 89.999999 0 1 -10.597248,-13.13959 13.139585,10.597248 89.999999 0 1 10.597248,-13.13959 13.139585,10.597248 89.999999 0 1 10.59724,13.13959 z" />
    <g
       id="g29719"
       transform="translate(22.15034,-12.378131)">
      <path
         id="path1536"
         style="fill:none;stroke:#000000;stroke-width:1.01414;stroke-linecap:round;stroke-linejoin:round;stroke-opacity:0.955017;paint-order:stroke markers fill"
         d="m 107.67524,197.32188 c 0.0414,4.52361 -7.7851,1.98513 -4.40637,-1.80056 1.46371,-1.625 4.52277,-0.40721 4.40637,1.80056 z M 77.493122,133.9832 c 1.557826,0.74604 2.687129,2.25967 1.230039,3.7479 -2.775552,4.9996 -5.403707,10.09868 -8.27112,15.0363 -1.31524,0.2599 -3.842105,-1.63435 -2.459973,-3.11749 2.886548,-5.20327 5.625732,-10.50599 8.604135,-15.64727 0.246993,-0.21321 0.640926,-0.22451 0.896919,-0.0194 z m -12.09225,-1.94113 c 25.270799,0 50.541598,0 75.812398,0 1.52101,0.75029 0.52472,3.00203 0.81165,4.42542 0,18.50328 0,37.00655 0,55.50983 -0.50635,1.73671 -2.90867,0.6366 -4.29079,0.94628 -24.11108,0 -48.222171,0 -72.333258,0 -1.521,-0.75029 -0.524708,-3.00203 -0.81164,-4.42542 0,-18.50328 0,-37.00655 0,-55.50983 -0.0138,-0.4522 0.322913,-0.94963 0.81164,-0.94628 z m -3.77251,-5.55572 c 28.315279,0 56.630558,0 84.945838,0 1.52101,0.75029 0.52472,3.00203 0.81165,4.42542 0,23.21021 0,46.42043 0,69.63064 -0.50635,1.73671 -2.90867,0.6366 -4.29079,0.94628 -27.15556,0 -54.311131,0 -81.466698,0 -1.521,-0.75029 -0.524708,-3.00203 -0.81164,-4.42542 0,-23.21021 0,-46.42043 0,-69.63064 -0.01381,-0.4522 0.322912,-0.94963 0.81164,-0.94628 z m 47.009368,38.72521 c -0.99949,-1.61399 1.54133,-2.3605 2.39699,-3.40599 1.94847,-1.45123 3.68575,-3.32662 5.77094,-4.50324 1.79125,1.3837 -0.93635,2.60393 -1.87006,3.53945 -2.00838,1.49998 -3.80506,3.42515 -5.95022,4.6504 z m 11.31663,-2.61298 c 1.02976,10.0432 -11.12539,20.59591 -19.969507,12.33098 -10.495483,-8.12936 -4.147273,-30.38669 10.191187,-27.19075 6.32677,1.77603 9.84417,8.63582 9.77832,14.85977 z m -1.97971,0 c 1.10449,8.58707 -9.5414,17.64904 -16.82615,10.63015 -9.054035,-7.15696 -3.255204,-27.20053 9.50363,-23.12664 4.86321,2.00511 7.34987,7.48514 7.32252,12.49649 z" />
      <path
         style="fill:#374548;fill-opacity:1;stroke:#000000;stroke-width:2.48905;stroke-linecap:round;stroke-linejoin:round;stroke-opacity:0.955017;paint-order:stroke markers fill"
         d="m 61.565276,163.98751 c 0,-12.25087 0,-24.50174 0,-36.75261 28.35734,0 56.714674,0 85.072014,0 0,24.50174 0,49.00348 0,73.50521 -28.35734,0 -56.714674,0 -85.072014,0 0,-12.25087 0,-24.50173 0,-36.7526 z m 45.776784,35.5682 c 4.12543,-4.45327 -5.46983,-8.19819 -5.43805,-2.18577 -0.0161,2.83135 3.46264,3.99327 5.43805,2.18577 z m 34.60068,-6.13141 c 0.91215,-4.17586 0.36957,-8.65008 0.56707,-12.94725 -0.0363,-15.73831 0.20333,-31.48335 -0.19464,-47.21709 -0.8552,-3.64191 -7.00609,-1.01181 -10.14868,-1.84223 -21.81525,-0.0399 -43.635632,-0.25183 -65.448155,0.10447 -4.819078,-0.1697 -1.964732,6.65581 -2.822876,9.8041 -0.117819,16.92065 -0.260715,33.84919 0.200686,50.7653 1.934186,2.86779 7.526197,0.8469 10.914499,1.52187 22.30973,0.0147 44.625596,0.17404 66.932096,-0.18917 z"
         id="path6330" />
      <path
         style="fill:#004455;fill-opacity:1;stroke:#000000;stroke-width:2.48905;stroke-linecap:round;stroke-linejoin:round;stroke-opacity:0.955017;paint-order:stroke markers fill"
         d="m 65.683714,191.43836 c -0.67314,-13.78872 -0.355941,-27.61897 -0.359701,-41.42452 0.114855,-5.5166 -0.03018,-11.05515 0.438896,-16.55421 4.430064,-0.97419 9.159322,-0.35651 13.706848,-0.57172 20.461433,0.002 40.922763,0.0865 61.384133,0.1304 0,19.65114 0,39.30228 0,58.95341 -24.04908,0.002 -48.100132,0.26998 -72.147711,0.0258 -0.955355,-0.15662 -2.266992,0.15937 -3.022465,-0.55914 z m 46.519306,-13.99857 c 8.81859,-4.4295 10.69154,-17.0748 5.46447,-24.89467 -3.31226,-5.32117 -10.8928,-7.68343 -16.29814,-4.10616 -10.165505,6.30028 -9.532362,24.20576 1.6296,29.10355 2.91513,1.15373 6.3291,1.20062 9.20407,-0.10272 z M 70.976785,153.07366 c 3.393821,-5.56492 6.5365,-11.3287 9.244635,-17.25601 -1.444961,-3.9464 -5.322663,-2.27103 -6.081887,1.11081 -2.543263,4.56619 -5.204857,9.09491 -7.338611,13.86781 0.609468,1.23948 2.762311,4.02648 4.175863,2.27739 z"
         id="path8005" />
      <path
         style="fill:#004455;fill-opacity:1;stroke:#000000;stroke-width:2.48905;stroke-linecap:round;stroke-linejoin:round;stroke-opacity:0.955017;paint-order:stroke markers fill"
         d="m 103.67899,173.94982 c -8.474132,-4.52416 -8.039577,-19.23481 0.7829,-23.13605 4.71019,-2.00852 9.84371,1.4744 11.58983,5.8811 -2.81354,2.41118 -5.84737,4.59954 -8.36689,7.32588 1.00867,4.80514 5.96262,-1.71537 8.10553,-2.89752 2.88836,-2.41094 0.80897,5.40137 0.39863,6.98543 -1.91606,4.74758 -7.43936,8.91197 -12.51,5.84116 z"
         id="path8044" />
      <path
         style="fill:#afdde9;fill-opacity:1;stroke:#000000;stroke-width:2.48905;stroke-linecap:round;stroke-linejoin:round;stroke-opacity:0.955017;paint-order:stroke markers fill"
         d="m 69.005409,151.27443 c 0.185198,-3.74104 3.173939,-7.07514 4.698738,-10.53918 1.099582,-1.43015 3.251788,-7.46884 4.577099,-4.55575 -2.355707,5.39762 -5.253247,10.58949 -8.380383,15.57703 l -0.423093,-0.0883 z"
         id="path22188" />
      <path
         style="fill:#00a3cc;fill-opacity:1;stroke:#000000;stroke-width:1.01031;stroke-linecap:round;stroke-linejoin:round;stroke-opacity:0.955017;paint-order:stroke markers fill"
         d="m 105.12675,176.82239 c -8.140275,-2.08177 -11.308409,-12.26269 -8.779895,-19.61635 1.636216,-5.58198 7.341745,-10.38564 13.379325,-8.86763 7.35556,2.01574 10.69099,10.62845 9.14419,17.62255 -0.91773,5.88635 -6.02571,11.89807 -12.47468,11.01801 l -0.68862,-0.0595 z m 4.59092,-0.83426 c 8.19827,-2.37657 10.85446,-13.18032 7.31817,-20.27531 -2.10521,-5.13689 -8.41969,-8.5536 -13.66566,-5.92335 -9.572614,4.79907 -9.579292,21.00599 0.12745,25.65055 1.93299,0.88071 4.16303,1.08674 6.22004,0.54811 z"
         id="path25111" />
      <path
         style="fill:#6f918a;fill-opacity:1;stroke:#000000;stroke-width:1.01031;stroke-linecap:round;stroke-linejoin:round;stroke-opacity:0.955017;paint-order:stroke markers fill"
         d="m 109.81006,163.77649 c 1.96676,-1.4323 5.54251,-5.48028 6.8095,-5.2739 -1.82187,1.71157 -6.19296,5.53002 -6.8095,5.2739 z"
         id="path25150" />
      <path
         style="fill:#6f918a;fill-opacity:1;stroke:#000000;stroke-width:1.01031;stroke-linecap:round;stroke-linejoin:round;stroke-opacity:0.955017;paint-order:stroke markers fill"
         d="m 104.38177,198.98855 c -4.34517,-3.33152 4.99571,-4.88948 1.88692,-0.38427 -0.50322,0.45373 -1.24673,0.58148 -1.88692,0.38427 z"
         id="path26552" />
      <path
         style="fill:#00a3cc;fill-opacity:1;stroke:#000000;stroke-width:0.380325;stroke-linecap:round;stroke-linejoin:round;stroke-opacity:0.955017;paint-order:stroke markers fill"
         d="m 109.57386,164.09103 c 2.14733,-1.80817 5.13932,-4.97448 7.08446,-5.70684 -2.12937,2.04867 -4.79346,4.31731 -7.08446,5.70684 z"
         id="path29475" />
      <path
         style="fill:#00a3cc;fill-opacity:1;stroke:#000000;stroke-width:0.380325;stroke-linecap:round;stroke-linejoin:round;stroke-opacity:0.955017;paint-order:stroke markers fill"
         d="m 109.01394,164.54923 c 0.23173,-1.01699 0.85883,0.24757 0,0 z"
         id="path29553" />
    </g>
    <g
       id="g30672"
       transform="translate(13.810469,-3.8999926)"
       style="fill:#000000">
      <path
         id="path1431"
         style="fill:#000000;stroke:#000000;stroke-width:1.01414;stroke-linecap:round;stroke-linejoin:round;stroke-opacity:0.955017;paint-order:stroke markers fill"
         d="m 51.706808,287.61761 a 2.5811898,2.546375 0 0 1 -2.581191,2.54638 2.5811898,2.546375 0 0 1 -2.581191,-2.54638 2.5811898,2.546375 0 0 1 2.581191,-2.54637 2.5811898,2.546375 0 0 1 2.581191,2.54637 z m -30.182119,-63.33867 1.64636,1.21978 c 0.379505,0.28117 0.490873,0.86374 0.249704,1.30619 l -8.713718,15.98654 c -0.241168,0.44245 -0.740845,0.5723 -1.120351,0.29112 l -1.646359,-1.21977 c -0.379506,-0.28117 -0.490871,-0.86374 -0.249703,-1.30619 l 8.713719,-15.98654 c 0.241168,-0.44246 0.740843,-0.5723 1.120348,-0.29113 z M 9.4324411,222.33781 H 85.244836 c 0.44965,0 0.81165,0.42205 0.81165,0.94628 v 58.98896 c 0,0.52424 -0.362,0.94628 -0.81165,0.94628 H 9.4324411 c -0.449652,0 -0.811646,-0.42204 -0.811646,-0.94628 v -58.98896 c 0,-0.52423 0.361994,-0.94628 0.811646,-0.94628 z m -3.772509,-5.55572 H 90.605766 c 0.44965,0 0.81165,0.42204 0.81165,0.94628 v 73.10977 c 0,0.52424 -0.362,0.94628 -0.81165,0.94628 H 5.6599321 c -0.449652,0 -0.811646,-0.42204 -0.811646,-0.94628 v -73.10977 c 0,-0.52424 0.361994,-0.94628 0.811646,-0.94628 z m 47.0093649,38.72521 -0.246523,-0.43645 c -0.170971,-0.30267 -0.111393,-0.70824 0.133582,-0.90932 l 7.87772,-6.46625 c 0.24497,-0.20109 0.579834,-0.11928 0.750805,0.1834 l 0.246523,0.43645 c 0.170971,0.30269 0.111393,0.70825 -0.133582,0.90933 l -7.877715,6.46624 c -0.244975,0.20108 -0.579839,0.11929 -0.75081,-0.1834 z M 63.98593,252.89432 A 12.576953,15.241919 2.2484831e-6 0 1 51.408975,268.13624 12.576953,15.241919 2.2484831e-6 0 1 38.832022,252.89432 12.576953,15.241919 2.2484831e-6 0 1 51.408975,237.6524 12.576953,15.241919 2.2484831e-6 0 1 63.98593,252.89432 Z m -1.97971,0 A 13.139585,10.597248 89.999999 0 1 51.408975,266.0339 13.139585,10.597248 89.999999 0 1 40.81173,252.89432 13.139585,10.597248 89.999999 0 1 51.408975,239.75473 13.139585,10.597248 89.999999 0 1 62.00622,252.89432 Z" />
      <path
         style="fill:#000000;fill-opacity:1;stroke:#000000;stroke-width:4.3832;stroke-linecap:round;stroke-linejoin:round;stroke-opacity:0.955017;paint-order:stroke markers fill"
         d="m 35.127986,1067.5671 c -0.171769,-0.4517 -0.236409,-51.2346 -0.143645,-112.85095 l 0.168663,-112.02966 143.529116,-0.16575 c 114.38983,-0.1321 143.63518,10e-4 144.05154,0.65706 0.60292,0.94958 0.74503,222.6044 0.14373,224.1713 -0.362,0.9434 -13.65342,1.0394 -143.91796,1.0394 -114.210703,0 -143.582914,-0.1677 -143.831444,-0.8214 z M 201.7191,1014.8848 c 20.48869,-3.7113 36.4412,-21.53611 41.05872,-45.87771 1.39868,-7.37325 1.28123,-20.37707 -0.25073,-27.76078 -2.66267,-12.83348 -9.09297,-24.66365 -17.73574,-32.62941 -8.85892,-8.16497 -17.19037,-11.78154 -28.2114,-12.24618 -8.72213,-0.36772 -13.47771,0.57574 -20.81493,4.12947 -14.16418,6.8603 -24.36861,20.04762 -29.02368,37.50769 -1.55248,5.82299 -1.74096,7.72362 -1.75456,17.69387 -0.0137,10.07635 0.15742,11.81351 1.74801,17.74077 4.88233,18.19385 15.60369,31.82448 30.22119,38.42168 3.52757,1.5921 5.51253,2.1507 12.60741,3.5478 2.72935,0.5375 7.39491,0.3351 12.15571,-0.5272 z M 56.627326,920.05595 c 1.531395,-1.79604 33.942895,-61.61056 34.424513,-63.52948 0.693704,-2.76393 -0.838438,-5.22972 -5.272535,-8.48546 -4.311133,-3.16545 -6.978868,-3.82148 -9.082324,-2.23346 -1.195136,0.90228 -34.467064,61.68134 -35.070115,64.06388 -0.719071,2.84091 0.386642,4.69039 4.802871,8.03356 4.810841,3.64191 8.298997,4.37765 10.19759,2.15096 z"
         id="path30271"
         transform="scale(0.26458333)" />
      <path
         style="fill:#000000;fill-opacity:1;stroke:#000000;stroke-width:4.3832;stroke-linecap:round;stroke-linejoin:round;stroke-opacity:0.955017;paint-order:stroke markers fill"
         d="m 187.49224,1002.4061 c -13.4489,-3.26222 -24.77121,-15.78425 -29.23156,-32.32897 -1.99395,-7.39615 -2.00212,-20.77609 -0.0172,-28.17375 4.29185,-15.99539 14.63857,-28.14322 27.22733,-31.96694 3.578,-1.08679 5.74946,-1.31352 10.56324,-1.10298 5.29634,0.23164 6.67709,0.56125 10.96448,2.61745 5.87927,2.81965 9.55445,5.66676 13.45853,10.4261 3.11733,3.80025 7.12148,10.78986 6.77183,11.82084 -0.11703,0.34506 -7.16124,6.32628 -15.65381,13.29159 -15.41423,12.6422 -15.44139,12.66906 -15.64368,15.46415 -0.17187,2.37473 0.0949,3.09746 1.75638,4.75898 1.07747,1.07746 2.52594,1.95902 3.21883,1.95902 0.69289,0 7.73802,-5.3137 15.65585,-11.80824 16.54614,-13.57183 15.16361,-13.40939 15.30391,-1.79816 0.35351,29.25757 -21.54885,52.37751 -44.37414,46.84091 z"
         id="path30310"
         transform="scale(0.26458333)" />
      <path
         style="fill:#000000;fill-opacity:1;stroke:#000000;stroke-width:4.3832;stroke-linecap:round;stroke-linejoin:round;stroke-opacity:0.955017;paint-order:stroke markers fill"
         d="m 188.57779,1010.7699 c -14.73617,-2.4668 -28.47959,-14.75488 -35.1309,-31.41074 -4.60715,-11.53697 -5.55342,-27.48254 -2.35925,-39.75551 6.74682,-25.92335 27.67934,-42.25254 49.32334,-38.47652 8.70917,1.5194 15.42905,5.17267 22.33422,12.142 11.12874,11.23215 16.54292,25.0574 16.61728,42.43262 0.0491,11.49187 -1.91036,19.66378 -7.16885,29.89648 -9.01453,17.54177 -27.04233,27.94597 -43.61584,25.17167 z m 15.95587,-4.5727 c 13.83726,-4.038 25.44458,-17.41793 30.12523,-34.72588 1.12715,-4.16792 1.43549,-7.22961 1.48885,-14.78397 0.0796,-11.26571 -0.82027,-16.53668 -4.15039,-24.31142 -5.57816,-13.02319 -14.34201,-22.04736 -25.58297,-26.34288 -4.6649,-1.7826 -14.83095,-2.43164 -19.89459,-1.27014 -28.40875,6.51641 -43.21713,45.89246 -28.83684,76.67826 3.05398,6.53807 5.64979,10.38857 9.80396,14.54274 10.27092,10.27089 23.93795,14.03879 37.04675,10.21329 z"
         id="path30349"
         transform="scale(0.26458333)" />
      <path
         style="fill:#000000;fill-opacity:1;stroke:#000000;stroke-width:4.3832;stroke-linecap:round;stroke-linejoin:round;stroke-opacity:0.955017;paint-order:stroke markers fill"
         d="m 200.40497,963.09136 c 0,-0.51328 6.39493,-6.17714 14.21095,-12.58638 10.44149,-8.56214 14.40506,-11.45904 14.94275,-10.92135 0.53576,0.53576 0.53646,0.85649 0.003,1.19724 -0.40104,0.25599 -6.84224,5.49199 -14.31378,11.63555 -7.47154,6.14357 -13.86765,11.26868 -14.21358,11.38914 -0.34593,0.12046 -0.62897,-0.20093 -0.62897,-0.7142 z"
         id="path30388"
         transform="scale(0.26458333)" />
      <path
         style="fill:#000000;fill-opacity:1;stroke:#000000;stroke-width:4.3832;stroke-linecap:round;stroke-linejoin:round;stroke-opacity:0.955017;paint-order:stroke markers fill"
         d="m 20.807074,1100.1466 c -0.627526,-0.6275 -0.523718,-277.00545 0.104415,-277.99474 0.41646,-0.65591 33.078305,-0.78909 161.135251,-0.65706 l 160.61291,0.16559 0.16579,139.46215 0.16579,139.46216 H 182.11817 c -88.480181,0 -161.070172,-0.1971 -161.311096,-0.4381 z m 169.957966,-2.4294 c 6.34633,-2.6516 8.82737,-11.4917 4.856,-17.3023 -3.0933,-4.5258 -10.52758,-6.4284 -15.35794,-3.9306 -8.72167,4.5102 -8.45339,17.8486 0.43024,21.391 2.39752,0.956 7.60076,0.8744 10.0717,-0.1581 z m 135.13944,-26.7005 c 1.30406,-1.304 1.31413,-2.1902 1.31413,-115.64348 0,-113.45331 -0.0101,-114.33947 -1.31413,-115.64353 -1.30623,-1.30623 -2.19021,-1.31413 -147.08083,-1.31413 H 33.056948 l -1.251701,1.38312 c -1.220785,1.34895 -1.251702,4.20364 -1.251702,115.57454 0,111.37088 0.03092,114.22558 1.251702,115.57458 l 1.251701,1.3831 H 178.82365 c 144.89062,0 145.7746,-0.01 147.08083,-1.3142 z"
         id="path30427"
         transform="scale(0.26458333)" />
      <path
         style="fill:#000000;fill-opacity:1;stroke:#000000;stroke-width:4.3832;stroke-linecap:round;stroke-linejoin:round;stroke-opacity:0.955017;paint-order:stroke markers fill"
         d="m 182.84141,1093.6969 c -4.38067,-1.9044 -5.96689,-7.7227 -2.99937,-11.0017 3.51182,-3.8806 8.00782,-3.9019 11.38621,-0.054 1.80152,2.0518 2.04559,2.7439 1.74854,4.9586 -0.40313,3.0056 -1.9182,4.9268 -4.87069,6.1765 -2.55203,1.0801 -2.59937,1.0794 -5.26469,-0.079 z"
         id="path30466"
         transform="scale(0.26458333)" />
      <path
         style="fill:#000000;fill-opacity:1;stroke:#000000;stroke-width:4.3832;stroke-linecap:round;stroke-linejoin:round;stroke-opacity:0.955017;paint-order:stroke markers fill"
         d="m 49.619204,914.60355 c -1.801012,-1.39265 -3.369222,-2.81606 -3.48491,-3.16312 -0.155582,-0.46675 31.885973,-60.19222 33.154403,-61.79983 0.359661,-0.45583 7.443947,4.65469 7.443947,5.36997 0,0.66953 -32.616117,60.8954 -33.412374,61.69616 -0.234574,0.23591 -1.900054,-0.71052 -3.701066,-2.10318 z"
         id="path30505"
         transform="scale(0.26458333)" />
      <path
         style="fill:#000000;fill-opacity:1;stroke:#000000;stroke-width:5.81273;stroke-linecap:round;stroke-linejoin:round;stroke-opacity:0.955017;paint-order:stroke markers fill"
         d="m 64.69852,1099.875 -43.785867,-0.2341 V 961.23403 822.82719 l 8.495765,-0.56259 c 4.672671,-0.30943 77.017382,-0.56462 160.766022,-0.5671 l 152.27025,-0.005 v 139.41768 139.41772 l -116.98015,-0.2096 c -64.33908,-0.1153 -136.683793,-0.315 -160.76602,-0.4438 z m 128.20774,-2.909 c 4.56706,-3.5925 6.27658,-10.6433 3.77784,-15.5814 -2.89924,-5.7297 -12.00416,-7.949 -17.88979,-4.3606 -4.86249,2.9645 -6.81252,10.3906 -4.10393,15.6284 2.27738,4.404 5.35325,6.1332 10.90941,6.1332 3.74411,0 5.57182,-0.4552 7.30647,-1.8196 z m 133.56359,-25.483 c 0.94925,-0.9494 0.94921,-231.12301 -4e-5,-232.07235 -0.39933,-0.39937 -66.6663,-0.82854 -147.25993,-0.95371 -137.140266,-0.213 -146.603684,-0.1325 -147.62306,1.25574 -1.43377,1.95258 -1.610706,228.58682 -0.180547,231.25912 0.895876,1.6739 2.971777,1.6946 147.623097,1.4676 80.69294,-0.1267 147.04116,-0.557 147.44048,-0.9564 z"
         id="path30544"
         transform="scale(0.26458333)" />
    </g>
    <path
       style="fill:#000000;fill-opacity:1;stroke:#000000;stroke-width:2.17627;stroke-linecap:round;stroke-linejoin:round;stroke-opacity:0.955017;paint-order:stroke markers fill"
       d=""
       id="path31236"
       transform="scale(0.26458333)" />
    <path
       style="fill:#000000;fill-opacity:1;stroke:#000000;stroke-width:2.17627;stroke-linecap:round;stroke-linejoin:round;stroke-opacity:0.955017;paint-order:stroke markers fill"
       d=""
       id="path31275"
       transform="scale(0.26458333)" />
    <path
       style="fill:#000000;fill-opacity:1;stroke:#000000;stroke-width:1.76822;stroke-linecap:round;stroke-linejoin:round;stroke-opacity:0.955017;paint-order:stroke markers fill"
       d=""
       id="path31390"
       transform="scale(0.26458333)" />
    <path
       style="fill:#000000;fill-opacity:1;stroke:#000000;stroke-width:1.76822;stroke-linecap:round;stroke-linejoin:round;stroke-opacity:0.955017;paint-order:stroke markers fill"
       d=""
       id="path31429"
       transform="scale(0.26458333)" />
    <path
       style="fill:#000000;fill-opacity:1;stroke:#000000;stroke-width:1.76822;stroke-linecap:round;stroke-linejoin:round;stroke-opacity:0.955017;paint-order:stroke markers fill"
       d=""
       id="path31544"
       transform="scale(0.26458333)" />
    <path
       style="fill:#000000;fill-opacity:1;stroke:#000000;stroke-width:1.76822;stroke-linecap:round;stroke-linejoin:round;stroke-opacity:0.955017;paint-order:stroke markers fill"
       d=""
       id="path31622"
       transform="scale(0.26458333)" />
    <g
       id="g31791">
      <g
         id="g30214"
         style="fill:#ffffff">
        <path
           id="path1538"
           style="fill:#ffffff;stroke:#000000;stroke-width:1.01414;stroke-linecap:round;stroke-linejoin:round;stroke-opacity:0.955017;paint-order:stroke markers fill"
           d="m 161.40494,76.056944 a 2.5811898,2.546375 0 0 1 -2.58119,2.54638 2.5811898,2.546375 0 0 1 -2.58119,-2.54638 2.5811898,2.546375 0 0 1 2.58119,-2.54637 2.5811898,2.546375 0 0 1 2.58119,2.54637 z m -30.18212,-63.338683 1.64636,1.21978 c 0.37951,0.28117 0.49087,0.86374 0.24971,1.30619 l -8.71372,15.98654 c -0.24117,0.44245 -0.74085,0.5723 -1.12035,0.29112 l -1.64636,-1.21977 c -0.37951,-0.28117 -0.49087,-0.86374 -0.24971,-1.30619 l 8.71372,-15.98654 c 0.24117,-0.44246 0.74085,-0.5723 1.12035,-0.29113 z m -12.09225,-1.94113 h 75.8124 c 0.44965,0 0.81165,0.42205 0.81165,0.94628 v 58.988973 c 0,0.52424 -0.362,0.94628 -0.81165,0.94628 h -75.8124 c -0.44965,0 -0.81164,-0.42204 -0.81164,-0.94628 V 11.723411 c 0,-0.52423 0.36199,-0.94628 0.81164,-0.94628 z m -3.77251,-5.5557199 h 84.94584 c 0.44965,0 0.81165,0.42204 0.81165,0.94628 V 79.277474 c 0,0.52424 -0.362,0.94628 -0.81165,0.94628 h -84.94584 c -0.44965,0 -0.81164,-0.42204 -0.81164,-0.94628 V 6.1676911 c 0,-0.52424 0.36199,-0.94628 0.81164,-0.94628 z m 47.00937,38.7252099 -0.24652,-0.43645 c -0.17097,-0.30267 -0.1114,-0.70824 0.13358,-0.90932 l 7.87772,-6.46625 c 0.24497,-0.20109 0.57983,-0.11928 0.7508,0.1834 l 0.24653,0.43645 c 0.17097,0.30269 0.11139,0.70825 -0.13359,0.90933 l -7.87771,6.46625 c -0.24498,0.20108 -0.57984,0.11929 -0.75081,-0.18341 z m 11.31663,-2.61298 a 12.576953,15.241919 2.2484831e-6 0 1 -12.57695,15.24193 12.576953,15.241919 2.2484831e-6 0 1 -12.57696,-15.24193 12.576953,15.241919 2.2484831e-6 0 1 12.57696,-15.24192 12.576953,15.241919 2.2484831e-6 0 1 12.57695,15.24192 z m -1.97971,0 a 13.139585,10.597248 89.999999 0 1 -10.59724,13.13959 13.139585,10.597248 89.999999 0 1 -10.59725,-13.13959 13.139585,10.597248 89.999999 0 1 10.59725,-13.13959 13.139585,10.597248 89.999999 0 1 10.59724,13.13959 z" />
        <path
           style="fill:#ffffff;fill-opacity:1;stroke:#000000;stroke-width:8.76639;stroke-linecap:round;stroke-linejoin:round;stroke-opacity:0.955017;paint-order:stroke markers fill"
           d="m 435.58314,299.29333 c -0.34423,-0.90347 -0.47351,-63.43967 -0.28729,-138.96935 L 435.63442,22.997292 596.28693,22.663545 756.93944,22.329799 V 161.63289 300.93599 H 596.57422 c -127.0823,0 -160.49512,-0.34092 -160.99108,-1.64266 z m 172.96058,-3.51278 c 8.12951,-8.12949 3.20315,-19.81305 -8.35412,-19.81305 -9.34369,0 -14.45443,7.8875 -10.79136,16.65445 3.24627,7.76944 12.93604,9.36805 19.14548,3.1586 z m 132.36332,-24.01826 c 2.28534,-2.28534 2.28534,-229.79019 0,-232.075535 -1.9893,-1.98931 -290.96303,-2.275098 -294.10251,-0.29086 -1.72294,1.088949 -2.01527,15.573537 -2.32117,115.012665 -0.239,77.69331 0.0882,114.58551 1.03184,116.34876 1.36083,2.54274 3.60135,2.58192 147.59834,2.58192 111.9718,0 146.58588,-0.36933 147.7935,-1.57695 z"
           id="path29934"
           transform="scale(0.26458333)" />
        <path
           style="fill:#ffffff;fill-opacity:1;stroke:#000000;stroke-width:8.76639;stroke-linecap:round;stroke-linejoin:round;stroke-opacity:0.955017;paint-order:stroke markers fill"
           d="m 463.88823,114.31665 c -2.65926,-2.02287 -3.01718,-2.94845 -1.87823,-4.85704 0.77391,-1.29687 8.36944,-15.205582 16.87896,-30.90826 l 15.47186,-28.550325 3.12025,2.267705 c 1.71613,1.247238 3.13882,2.732998 3.16153,3.301689 0.0423,1.05842 -31.12474,58.676441 -32.63436,60.330691 -0.45907,0.50305 -2.31308,-0.20996 -4.12001,-1.58446 z"
           id="path29973"
           transform="scale(0.26458333)" />
        <path
           style="fill:#ffffff;fill-opacity:1;stroke:#000000;stroke-width:8.76639;stroke-linecap:round;stroke-linejoin:round;stroke-opacity:0.955017;paint-order:stroke markers fill"
           d="m 599.15088,213.78406 c -18.78332,-5.26303 -32.6461,-21.45916 -37.34176,-43.62702 -2.43601,-11.50023 -2.43601,-16.05068 0,-27.5509 3.88598,-18.34546 14.82112,-33.65295 29.10722,-40.74557 6.33967,-3.147452 9.38433,-3.821067 17.55048,-3.882946 8.59878,-0.06516 11.0185,0.485309 18.6572,4.244346 18.82519,9.26398 29.94147,29.40881 29.94147,54.25971 0,14.2371 -3.28566,25.55989 -10.59191,36.5011 -11.13163,16.66973 -30.96071,25.38586 -47.3227,20.80128 z m 27.19619,-5.52103 c 11.23234,-5.48843 22.95917,-20.26116 26.05823,-32.82654 7.45953,-30.24516 -3.09024,-59.31358 -25.84821,-71.22119 -9.23998,-4.834616 -24.60279,-5.189885 -34.19226,-0.7907 -24.38042,11.18454 -36.19877,46.36578 -25.48802,75.87355 9.99894,27.54677 36.22809,40.32163 59.47026,28.96488 z"
           id="path30012"
           transform="scale(0.26458333)" />
        <path
           style="fill:#ffffff;fill-opacity:1;stroke:#000000;stroke-width:4.3832;stroke-linecap:round;stroke-linejoin:round;stroke-opacity:0.955017;paint-order:stroke markers fill"
           d="m 615.0133,163.4152 c 0,-1.38171 28.33538,-24.29858 29.09927,-23.53468 0.43859,0.43858 0.0245,1.18736 -1.24386,2.24911 -10.6936,8.95181 -26.97234,22.11399 -27.36262,22.12405 -0.27103,0.007 -0.49279,-0.37034 -0.49279,-0.83848 z"
           id="path30090"
           transform="scale(0.26458333)" />
      </g>
      <path
         style="fill:#000000;fill-opacity:1;stroke:#000000;stroke-width:6.16251;stroke-linecap:round;stroke-linejoin:round;stroke-opacity:0.955017;paint-order:stroke markers fill"
         d="m 441.80498,299.54941 -5.77372,-0.32797 V 161.15815 23.094876 H 596.3097 756.58814 V 161.66413 300.23339 l -77.36784,-0.0361 c -65.26554,-0.0305 -76.93431,-0.22884 -74.59645,-1.26791 7.64626,-3.3984 10.55446,-12.08294 6.26551,-18.71015 -3.18533,-4.92192 -13.96714,-6.10692 -19.06675,-2.09556 -2.9132,2.29153 -4.64747,7.43789 -3.88182,11.51915 0.66194,3.52842 4.45271,8.51553 7.36977,9.69561 1.80194,0.72895 -140.93376,0.9252 -153.50558,0.21104 z M 741.4997,272.21163 c 0.42329,-0.4234 0.76962,-52.67784 0.76962,-116.12101 0,-93.40613 -0.22844,-115.579685 -1.20075,-116.552167 -0.97117,-0.971338 -26.75879,-1.26275 -134.87408,-1.524137 -141.68464,-0.342547 -159.36839,-0.0679 -160.61841,2.494595 -1.13238,2.321323 -1.52505,226.497089 -0.40191,229.451169 0.73295,1.9278 1.66822,2.52266 4.43798,2.82269 6.85034,0.74206 291.13081,0.1858 291.88755,-0.57114 z"
         id="path31119"
         transform="scale(0.26458333)" />
      <path
         style="fill:#000000;fill-opacity:1;stroke:#000000;stroke-width:6.16251;stroke-linecap:round;stroke-linejoin:round;stroke-opacity:0.955017;paint-order:stroke markers fill"
         d="m 464.17295,113.36993 -2.47726,-2.13086 16.42688,-30.164462 16.42689,-30.164464 2.61183,1.859787 c 1.4365,1.022883 2.61183,2.29783 2.61183,2.833217 0,1.868923 -30.77758,58.448132 -32.30911,59.394682 -0.44759,0.27662 -1.92857,-0.45594 -3.29106,-1.6279 z"
         id="path31158"
         transform="scale(0.26458333)" />
      <path
         style="fill:#000000;fill-opacity:1;stroke:#000000;stroke-width:1.76822;stroke-linecap:round;stroke-linejoin:round;stroke-opacity:0.955017;paint-order:stroke markers fill"
         d="m 598.25845,300.65133 c 0.011,-0.53954 0.50689,-0.80932 1.65261,-0.89913 0.69248,-0.0543 1.25906,-0.0181 1.25906,0.0803 0,0.0985 0.0724,0.36771 0.16089,0.59831 0.13589,0.35412 -0.0907,0.41928 -1.45786,0.41928 -0.89032,0 -1.61693,-0.0895 -1.6147,-0.1988 z"
         id="path31468"
         transform="scale(0.26458333)" />
      <path
         style="fill:#000000;fill-opacity:1;stroke:#000000;stroke-width:1.76822;stroke-linecap:round;stroke-linejoin:round;stroke-opacity:0.955017;paint-order:stroke markers fill"
         d="m 605.94131,214.80491 c -5.41319,-0.59844 -10.32144,-2.04498 -15.11515,-4.45467 -13.26722,-6.66912 -23.01785,-19.17936 -27.6996,-35.53909 -0.96657,-3.37755 -2.43259,-10.87488 -2.79887,-14.31357 -0.97104,-9.11634 2.03256,-23.24118 7.1584,-33.66341 5.71944,-11.62915 14.04826,-20.26562 24.27418,-25.17081 5.64878,-2.709616 7.99952,-3.243771 15.37384,-3.49338 8.59788,-0.291024 12.13386,0.420397 19.08477,3.83975 7.08999,3.48778 12.2393,7.44272 16.79111,12.89646 6.88601,8.25046 11.2568,18.41338 13.16673,30.61515 0.59451,3.7981 0.82486,14.32684 0.4036,18.44747 -1.02898,10.06513 -3.61325,17.97215 -8.56829,26.21618 -8.80499,14.64947 -23.29633,23.91148 -38.49232,24.60203 -1.45787,0.0662 -3.06815,0.0743 -3.5784,0.0179 z m 6.8359,-2.50186 c 12.27047,-1.33499 22.28383,-7.60677 31.08303,-19.46858 7.67714,-10.34922 10.89304,-21.02299 10.94073,-36.31288 0.0226,-7.22914 -0.63712,-12.48699 -2.37782,-18.95224 -3.71719,-13.80625 -12.38677,-25.64029 -23.63276,-32.25891 -6.15427,-3.62198 -11.62513,-4.95428 -20.33095,-4.95112 -7.79719,0.003 -11.76039,0.83543 -17.49437,3.67525 -13.0768,6.47643 -23.04287,20.67114 -26.67072,37.9872 -4.41296,21.0635 1.18602,43.11726 14.47389,57.01106 9.31643,9.74126 21.77234,14.60153 34.00897,13.27022 z"
         id="path31583"
         transform="scale(0.26458333)" />
      <path
         style="fill:#000000;fill-opacity:1;stroke:#000000;stroke-width:1.76822;stroke-linecap:round;stroke-linejoin:round;stroke-opacity:0.955017;paint-order:stroke markers fill"
         d="m 615.21863,163.62561 c 0,-0.52605 1.47767,-1.95794 6.22905,-6.03608 6.85024,-5.8796 19.46369,-15.80543 21.83908,-17.1857 1.23257,-0.71621 1.06812,0.001 -0.30245,1.31945 -2.39057,2.29928 -27.10347,22.35269 -27.54643,22.35269 -0.12059,0 -0.21925,-0.20266 -0.21925,-0.45036 z"
         id="path31661"
         transform="scale(0.26458333)" />
    </g>
  </g>
</svg>
