<?xml version="1.0" encoding="UTF-8" standalone="no"?>
<!-- Created with Inkscape (http://www.inkscape.org/) -->

<svg
   width="210mm"
   height="297mm"
   viewBox="0 0 210 297"
   version="1.1"
   id="svg5"
   inkscape:version="1.1 (c68e22c387, 2021-05-23)"
   sodipodi:docname="OSC tablet control svg.svg"
   xmlns:inkscape="http://www.inkscape.org/namespaces/inkscape"
   xmlns:sodipodi="http://sodipodi.sourceforge.net/DTD/sodipodi-0.dtd"
   xmlns="http://www.w3.org/2000/svg"
   xmlns:svg="http://www.w3.org/2000/svg">
  <sodipodi:namedview
     id="namedview7"
     pagecolor="#ffffff"
     bordercolor="#666666"
     borderopacity="1.0"
     inkscape:pageshadow="2"
     inkscape:pageopacity="0.0"
     inkscape:pagecheckerboard="0"
     inkscape:document-units="mm"
     showgrid="false"
     inkscape:zoom="0.54115914"
     inkscape:cx="255.00817"
     inkscape:cy="972.9116"
     inkscape:window-width="1680"
     inkscape:window-height="956"
     inkscape:window-x="-11"
     inkscape:window-y="-11"
     inkscape:window-maximized="1"
     inkscape:current-layer="layer1" />
  <defs
     id="defs2" />
  <g
     inkscape:label="Layer 1"
     inkscape:groupmode="layer"
     id="layer1">
    <path
       style="fill:#ffffff;stroke:#000000;stroke-width:10.7127;stroke-linecap:round;stroke-linejoin:round;stroke-opacity:0.955017;paint-order:stroke markers fill"
       d=""
       id="path2168"
       transform="scale(0.26458333)" />
    <path
       style="fill:#00aad4;stroke:#000000;stroke-width:6.62142;stroke-linecap:round;stroke-linejoin:round;stroke-opacity:0.955017;paint-order:stroke markers fill"
       d=""
       id="path2428"
       transform="scale(0.26458333)" />
    <path
       id="path3834"
       style="fill:none;stroke:#000000;stroke-width:1.01414;stroke-linecap:round;stroke-linejoin:round;stroke-opacity:0.955017;paint-order:stroke markers fill"
       d="m 51.730623,86.250341 a 2.5811898,2.546375 0 0 1 -2.58119,2.54638 2.5811898,2.546375 0 0 1 -2.58119,-2.54638 2.5811898,2.546375 0 0 1 2.58119,-2.54637 2.5811898,2.546375 0 0 1 2.58119,2.54637 z m -30.182118,-63.33868 1.64636,1.21978 c 0.37951,0.28117 0.49087,0.86374 0.24971,1.30619 l -8.71372,15.98654 c -0.24117,0.44245 -0.74085,0.5723 -1.12035,0.29112 l -1.64636,-1.21977 c -0.37951,-0.28117 -0.49087,-0.86374 -0.24971,-1.30619 l 8.71372,-15.98654 c 0.24117,-0.44246 0.74085,-0.5723 1.12035,-0.29113 z M 9.4562548,20.970531 H 85.268653 c 0.44965,0 0.81165,0.42205 0.81165,0.94628 v 58.98897 c 0,0.52424 -0.362,0.94628 -0.81165,0.94628 H 9.4562548 c -0.44965,0 -0.81164,-0.42204 -0.81164,-0.94628 v -58.98897 c 0,-0.52423 0.36199,-0.94628 0.81164,-0.94628 z m -3.77251,-5.55572 H 90.629583 c 0.44965,0 0.81165,0.42204 0.81165,0.94628 v 73.10978 c 0,0.52424 -0.362,0.946283 -0.81165,0.946283 H 5.6837448 c -0.44965,0 -0.81164,-0.422043 -0.81164,-0.946283 v -73.10978 c 0,-0.52424 0.36199,-0.94628 0.81164,-0.94628 z m 47.0093682,38.72521 -0.24652,-0.43645 c -0.17097,-0.30267 -0.1114,-0.70824 0.13358,-0.90932 l 7.87772,-6.46625 c 0.24497,-0.20109 0.57983,-0.11928 0.7508,0.1834 l 0.24653,0.43645 c 0.17097,0.30269 0.11139,0.70825 -0.13359,0.90933 l -7.87771,6.46625 c -0.24498,0.20108 -0.57984,0.11929 -0.75081,-0.18341 z m 11.31663,-2.61298 a 12.576953,15.241919 2.2484831e-6 0 1 -12.57695,15.24193 12.576953,15.241919 2.2484831e-6 0 1 -12.576958,-15.24193 12.576953,15.241919 2.2484831e-6 0 1 12.576958,-15.24192 12.576953,15.241919 2.2484831e-6 0 1 12.57695,15.24192 z m -1.97971,0 a 13.139585,10.597248 89.999999 0 1 -10.59724,13.13959 13.139585,10.597248 89.999999 0 1 -10.597248,-13.13959 13.139585,10.597248 89.999999 0 1 10.597248,-13.13959 13.139585,10.597248 89.999999 0 1 10.59724,13.13959 z" />
    <g
       id="g29719"
       transform="translate(22.15034,-12.378131)">
      <path
         id="path1536"
         style="fill:none;stroke:#000000;stroke-width:1.01414;stroke-linecap:round;stroke-linejoin:round;stroke-opacity:0.955017;paint-order:stroke markers fill"
         d="m 107.67524,197.32188 c 0.0414,4.52361 -7.7851,1.98513 -4.40637,-1.80056 1.46371,-1.625 4.52277,-0.40721 4.40637,1.80056 z M 77.493122,133.9832 c 1.557826,0.74604 2.687129,2.25967 1.230039,3.7479 -2.775552,4.9996 -5.403707,10.09868 -8.27112,15.0363 -1.31524,0.2599 -3.842105,-1.63435 -2.459973,-3.11749 2.886548,-5.20327 5.625732,-10.50599 8.604135,-15.64727 0.246993,-0.21321 0.640926,-0.22451 0.896919,-0.0194 z m -12.09225,-1.94113 c 25.270799,0 50.541598,0 75.812398,0 1.52101,0.75029 0.52472,3.00203 0.81165,4.42542 0,18.50328 0,37.00655 0,55.50983 -0.50635,1.73671 -2.90867,0.6366 -4.29079,0.94628 -24.11108,0 -48.222171,0 -72.333258,0 -1.521,-0.75029 -0.524708,-3.00203 -0.81164,-4.42542 0,-18.50328 0,-37.00655 0,-55.50983 -0.0138,-0.4522 0.322913,-0.94963 0.81164,-0.94628 z m -3.77251,-5.55572 c 28.315279,0 56.630558,0 84.945838,0 1.52101,0.75029 0.52472,3.00203 0.81165,4.42542 0,23.21021 0,46.42043 0,69.63064 -0.50635,1.73671 -2.90867,0.6366 -4.29079,0.94628 -27.15556,0 -54.311131,0 -81.466698,0 -1.521,-0.75029 -0.524708,-3.00203 -0.81164,-4.42542 0,-23.21021 0,-46.42043 0,-69.63064 -0.01381,-0.4522 0.322912,-0.94963 0.81164,-0.94628 z m 47.009368,38.72521 c -0.99949,-1.61399 1.54133,-2.3605 2.39699,-3.40599 1.94847,-1.45123 3.68575,-3.32662 5.77094,-4.50324 1.79125,1.3837 -0.93635,2.60393 -1.87006,3.53945 -2.00838,1.49998 -3.80506,3.42515 -5.95022,4.6504 z m 11.31663,-2.61298 c 1.02976,10.0432 -11.12539,20.59591 -19.969507,12.33098 -10.495483,-8.12936 -4.147273,-30.38669 10.191187,-27.19075 6.32677,1.77603 9.84417,8.63582 9.77832,14.85977 z m -1.97971,0 c 1.10449,8.58707 -9.5414,17.64904 -16.82615,10.63015 -9.054035,-7.15696 -3.255204,-27.20053 9.50363,-23.12664 4.86321,2.00511 7.34987,7.48514 7.32252,12.49649 z" />
      <path
         style="fill:#374548;fill-opacity:1;stroke:#000000;stroke-width:2.48905;stroke-linecap:round;stroke-linejoin:round;stroke-opacity:0.955017;paint-order:stroke markers fill"
         d="m 61.565276,163.98751 c 0,-12.25087 0,-24.50174 0,-36.75261 28.35734,0 56.714674,0 85.072014,0 0,24.50174 0,49.00348 0,73.50521 -28.35734,0 -56.714674,0 -85.072014,0 0,-12.25087 0,-24.50173 0,-36.7526 z m 45.776784,35.5682 c 4.12543,-4.45327 -5.46983,-8.19819 -5.43805,-2.18577 -0.0161,2.83135 3.46264,3.99327 5.43805,2.18577 z m 34.60068,-6.13141 c 0.91215,-4.17586 0.36957,-8.65008 0.56707,-12.94725 -0.0363,-15.73831 0.20333,-31.48335 -0.19464,-47.21709 -0.8552,-3.64191 -7.00609,-1.01181 -10.14868,-1.84223 -21.81525,-0.0399 -43.635632,-0.25183 -65.448155,0.10447 -4.819078,-0.1697 -1.964732,6.65581 -2.822876,9.8041 -0.117819,16.92065 -0.260715,33.84919 0.200686,50.7653 1.934186,2.86779 7.526197,0.8469 10.914499,1.52187 22.30973,0.0147 44.625596,0.17404 66.932096,-0.18917 z"
         id="path6330" />
      <path
         style="fill:#004455;fill-opacity:1;stroke:#000000;stroke-width:2.48905;stroke-linecap:round;stroke-linejoin:round;stroke-opacity:0.955017;paint-order:stroke markers fill"
         d="m 65.683714,191.43836 c -0.67314,-13.78872 -0.355941,-27.61897 -0.359701,-41.42452 0.114855,-5.5166 -0.03018,-11.05515 0.438896,-16.55421 4.430064,-0.97419 9.159322,-0.35651 13.706848,-0.57172 20.461433,0.002 40.922763,0.0865 61.384133,0.1304 0,19.65114 0,39.30228 0,58.95341 -24.04908,0.002 -48.100132,0.26998 -72.147711,0.0258 -0.955355,-0.15662 -2.266992,0.15937 -3.022465,-0.55914 z m 46.519306,-13.99857 c 8.81859,-4.4295 10.69154,-17.0748 5.46447,-24.89467 -3.31226,-5.32117 -10.8928,-7.68343 -16.29814,-4.10616 -10.165505,6.30028 -9.532362,24.20576 1.6296,29.10355 2.91513,1.15373 6.3291,1.20062 9.20407,-0.10272 z M 70.976785,153.07366 c 3.393821,-5.56492 6.5365,-11.3287 9.244635,-17.25601 -1.444961,-3.9464 -5.322663,-2.27103 -6.081887,1.11081 -2.543263,4.56619 -5.204857,9.09491 -7.338611,13.86781 0.609468,1.23948 2.762311,4.02648 4.175863,2.27739 z"
         id="path8005" />
      <path
         style="fill:#004455;fill-opacity:1;stroke:#000000;stroke-width:2.48905;stroke-linecap:round;stroke-linejoin:round;stroke-opacity:0.955017;paint-order:stroke markers fill"
         d="m 103.67899,173.94982 c -8.474132,-4.52416 -8.039577,-19.23481 0.7829,-23.13605 4.71019,-2.00852 9.84371,1.4744 11.58983,5.8811 -2.81354,2.41118 -5.84737,4.59954 -8.36689,7.32588 1.00867,4.80514 5.96262,-1.71537 8.10553,-2.89752 2.88836,-2.41094 0.80897,5.40137 0.39863,6.98543 -1.91606,4.74758 -7.43936,8.91197 -12.51,5.84116 z"
         id="path8044" />
      <path
         style="fill:#afdde9;fill-opacity:1;stroke:#000000;stroke-width:2.48905;stroke-linecap:round;stroke-linejoin:round;stroke-opacity:0.955017;paint-order:stroke markers fill"
         d="m 69.005409,151.27443 c 0.185198,-3.74104 3.173939,-7.07514 4.698738,-10.53918 1.099582,-1.43015 3.251788,-7.46884 4.577099,-4.55575 -2.355707,5.39762 -5.253247,10.58949 -8.380383,15.57703 l -0.423093,-0.0883 z"
         id="path22188" />
      <path
         style="fill:#00a3cc;fill-opacity:1;stroke:#000000;stroke-width:1.01031;stroke-linecap:round;stroke-linejoin:round;stroke-opacity:0.955017;paint-order:stroke markers fill"
         d="m 105.12675,176.82239 c -8.140275,-2.08177 -11.308409,-12.26269 -8.779895,-19.61635 1.636216,-5.58198 7.341745,-10.38564 13.379325,-8.86763 7.35556,2.01574 10.69099,10.62845 9.14419,17.62255 -0.91773,5.88635 -6.02571,11.89807 -12.47468,11.01801 l -0.68862,-0.0595 z m 4.59092,-0.83426 c 8.19827,-2.37657 10.85446,-13.18032 7.31817,-20.27531 -2.10521,-5.13689 -8.41969,-8.5536 -13.66566,-5.92335 -9.572614,4.79907 -9.579292,21.00599 0.12745,25.65055 1.93299,0.88071 4.16303,1.08674 6.22004,0.54811 z"
         id="path25111" />
      <path
         style="fill:#6f918a;fill-opacity:1;stroke:#000000;stroke-width:1.01031;stroke-linecap:round;stroke-linejoin:round;stroke-opacity:0.955017;paint-order:stroke markers fill"
         d="m 109.81006,163.77649 c 1.96676,-1.4323 5.54251,-5.48028 6.8095,-5.2739 -1.82187,1.71157 -6.19296,5.53002 -6.8095,5.2739 z"
         id="path25150" />
      <path
         style="fill:#6f918a;fill-opacity:1;stroke:#000000;stroke-width:1.01031;stroke-linecap:round;stroke-linejoin:round;stroke-opacity:0.955017;paint-order:stroke markers fill"
         d="m 104.38177,198.98855 c -4.34517,-3.33152 4.99571,-4.88948 1.88692,-0.38427 -0.50322,0.45373 -1.24673,0.58148 -1.88692,0.38427 z"
         id="path26552" />
      <path
         style="fill:#00a3cc;fill-opacity:1;stroke:#000000;stroke-width:0.380325;stroke-linecap:round;stroke-linejoin:round;stroke-opacity:0.955017;paint-order:stroke markers fill"
         d="m 109.57386,164.09103 c 2.14733,-1.80817 5.13932,-4.97448 7.08446,-5.70684 -2.12937,2.04867 -4.79346,4.31731 -7.08446,5.70684 z"
         id="path29475" />
      <path
         style="fill:#00a3cc;fill-opacity:1;stroke:#000000;stroke-width:0.380325;stroke-linecap:round;stroke-linejoin:round;stroke-opacity:0.955017;paint-order:stroke markers fill"
         d="m 109.01394,164.54923 c 0.23173,-1.01699 0.85883,0.24757 0,0 z"
         id="path29553" />
    </g>
    <path
       style="fill:#000000;fill-opacity:1;stroke:#000000;stroke-width:2.17627;stroke-linecap:round;stroke-linejoin:round;stroke-opacity:0.955017;paint-order:stroke markers fill"
       d=""
       id="path31236"
       transform="scale(0.26458333)" />
    <path
       style="fill:#000000;fill-opacity:1;stroke:#000000;stroke-width:2.17627;stroke-linecap:round;stroke-linejoin:round;stroke-opacity:0.955017;paint-order:stroke markers fill"
       d=""
       id="path31275"
       transform="scale(0.26458333)" />
    <path
       style="fill:#000000;fill-opacity:1;stroke:#000000;stroke-width:1.76822;stroke-linecap:round;stroke-linejoin:round;stroke-opacity:0.955017;paint-order:stroke markers fill"
       d=""
       id="path31390"
       transform="scale(0.26458333)" />
    <path
       style="fill:#000000;fill-opacity:1;stroke:#000000;stroke-width:1.76822;stroke-linecap:round;stroke-linejoin:round;stroke-opacity:0.955017;paint-order:stroke markers fill"
       d=""
       id="path31429"
       transform="scale(0.26458333)" />
    <path
       style="fill:#000000;fill-opacity:1;stroke:#000000;stroke-width:1.76822;stroke-linecap:round;stroke-linejoin:round;stroke-opacity:0.955017;paint-order:stroke markers fill"
       d=""
       id="path31544"
       transform="scale(0.26458333)" />
    <path
       style="fill:#000000;fill-opacity:1;stroke:#000000;stroke-width:1.76822;stroke-linecap:round;stroke-linejoin:round;stroke-opacity:0.955017;paint-order:stroke markers fill"
       d=""
       id="path31622"
       transform="scale(0.26458333)" />
    <g
       id="g31791"
       transform="translate(-0.60334765,5.7318027)">
      <g
         id="g30214"
         style="fill:#ffffff">
        <path
           id="path1538"
           style="fill:#ffffff;stroke:#000000;stroke-width:1.01414;stroke-linecap:round;stroke-linejoin:round;stroke-opacity:0.955017;paint-order:stroke markers fill"
           d="m 161.40494,76.056944 a 2.5811898,2.546375 0 0 1 -2.58119,2.54638 2.5811898,2.546375 0 0 1 -2.58119,-2.54638 2.5811898,2.546375 0 0 1 2.58119,-2.54637 2.5811898,2.546375 0 0 1 2.58119,2.54637 z m -30.18212,-63.338683 1.64636,1.21978 c 0.37951,0.28117 0.49087,0.86374 0.24971,1.30619 l -8.71372,15.98654 c -0.24117,0.44245 -0.74085,0.5723 -1.12035,0.29112 l -1.64636,-1.21977 c -0.37951,-0.28117 -0.49087,-0.86374 -0.24971,-1.30619 l 8.71372,-15.98654 c 0.24117,-0.44246 0.74085,-0.5723 1.12035,-0.29113 z m -12.09225,-1.94113 h 75.8124 c 0.44965,0 0.81165,0.42205 0.81165,0.94628 v 58.988973 c 0,0.52424 -0.362,0.94628 -0.81165,0.94628 h -75.8124 c -0.44965,0 -0.81164,-0.42204 -0.81164,-0.94628 V 11.723411 c 0,-0.52423 0.36199,-0.94628 0.81164,-0.94628 z m -3.77251,-5.5557199 h 84.94584 c 0.44965,0 0.81165,0.42204 0.81165,0.94628 V 79.277474 c 0,0.52424 -0.362,0.94628 -0.81165,0.94628 h -84.94584 c -0.44965,0 -0.81164,-0.42204 -0.81164,-0.94628 V 6.1676911 c 0,-0.52424 0.36199,-0.94628 0.81164,-0.94628 z m 47.00937,38.7252099 -0.24652,-0.43645 c -0.17097,-0.30267 -0.1114,-0.70824 0.13358,-0.90932 l 7.87772,-6.46625 c 0.24497,-0.20109 0.57983,-0.11928 0.7508,0.1834 l 0.24653,0.43645 c 0.17097,0.30269 0.11139,0.70825 -0.13359,0.90933 l -7.87771,6.46625 c -0.24498,0.20108 -0.57984,0.11929 -0.75081,-0.18341 z m 11.31663,-2.61298 a 12.576953,15.241919 2.2484831e-6 0 1 -12.57695,15.24193 12.576953,15.241919 2.2484831e-6 0 1 -12.57696,-15.24193 12.576953,15.241919 2.2484831e-6 0 1 12.57696,-15.24192 12.576953,15.241919 2.2484831e-6 0 1 12.57695,15.24192 z m -1.97971,0 a 13.139585,10.597248 89.999999 0 1 -10.59724,13.13959 13.139585,10.597248 89.999999 0 1 -10.59725,-13.13959 13.139585,10.597248 89.999999 0 1 10.59725,-13.13959 13.139585,10.597248 89.999999 0 1 10.59724,13.13959 z" />
        <path
           style="fill:#ffffff;fill-opacity:1;stroke:#000000;stroke-width:8.76639;stroke-linecap:round;stroke-linejoin:round;stroke-opacity:0.955017;paint-order:stroke markers fill"
           d="m 435.58314,299.29333 c -0.34423,-0.90347 -0.47351,-63.43967 -0.28729,-138.96935 L 435.63442,22.997292 596.28693,22.663545 756.93944,22.329799 V 161.63289 300.93599 H 596.57422 c -127.0823,0 -160.49512,-0.34092 -160.99108,-1.64266 z m 172.96058,-3.51278 c 8.12951,-8.12949 3.20315,-19.81305 -8.35412,-19.81305 -9.34369,0 -14.45443,7.8875 -10.79136,16.65445 3.24627,7.76944 12.93604,9.36805 19.14548,3.1586 z m 132.36332,-24.01826 c 2.28534,-2.28534 2.28534,-229.79019 0,-232.075535 -1.9893,-1.98931 -290.96303,-2.275098 -294.10251,-0.29086 -1.72294,1.088949 -2.01527,15.573537 -2.32117,115.012665 -0.239,77.69331 0.0882,114.58551 1.03184,116.34876 1.36083,2.54274 3.60135,2.58192 147.59834,2.58192 111.9718,0 146.58588,-0.36933 147.7935,-1.57695 z"
           id="path29934"
           transform="scale(0.26458333)" />
        <path
           style="fill:#ffffff;fill-opacity:1;stroke:#000000;stroke-width:8.76639;stroke-linecap:round;stroke-linejoin:round;stroke-opacity:0.955017;paint-order:stroke markers fill"
           d="m 463.88823,114.31665 c -2.65926,-2.02287 -3.01718,-2.94845 -1.87823,-4.85704 0.77391,-1.29687 8.36944,-15.205582 16.87896,-30.90826 l 15.47186,-28.550325 3.12025,2.267705 c 1.71613,1.247238 3.13882,2.732998 3.16153,3.301689 0.0423,1.05842 -31.12474,58.676441 -32.63436,60.330691 -0.45907,0.50305 -2.31308,-0.20996 -4.12001,-1.58446 z"
           id="path29973"
           transform="scale(0.26458333)" />
        <path
           style="fill:#ffffff;fill-opacity:1;stroke:#000000;stroke-width:8.76639;stroke-linecap:round;stroke-linejoin:round;stroke-opacity:0.955017;paint-order:stroke markers fill"
           d="m 599.15088,213.78406 c -18.78332,-5.26303 -32.6461,-21.45916 -37.34176,-43.62702 -2.43601,-11.50023 -2.43601,-16.05068 0,-27.5509 3.88598,-18.34546 14.82112,-33.65295 29.10722,-40.74557 6.33967,-3.147452 9.38433,-3.821067 17.55048,-3.882946 8.59878,-0.06516 11.0185,0.485309 18.6572,4.244346 18.82519,9.26398 29.94147,29.40881 29.94147,54.25971 0,14.2371 -3.28566,25.55989 -10.59191,36.5011 -11.13163,16.66973 -30.96071,25.38586 -47.3227,20.80128 z m 27.19619,-5.52103 c 11.23234,-5.48843 22.95917,-20.26116 26.05823,-32.82654 7.45953,-30.24516 -3.09024,-59.31358 -25.84821,-71.22119 -9.23998,-4.834616 -24.60279,-5.189885 -34.19226,-0.7907 -24.38042,11.18454 -36.19877,46.36578 -25.48802,75.87355 9.99894,27.54677 36.22809,40.32163 59.47026,28.96488 z"
           id="path30012"
           transform="scale(0.26458333)" />
        <path
           style="fill:#ffffff;fill-opacity:1;stroke:#000000;stroke-width:4.3832;stroke-linecap:round;stroke-linejoin:round;stroke-opacity:0.955017;paint-order:stroke markers fill"
           d="m 615.0133,163.4152 c 0,-1.38171 28.33538,-24.29858 29.09927,-23.53468 0.43859,0.43858 0.0245,1.18736 -1.24386,2.24911 -10.6936,8.95181 -26.97234,22.11399 -27.36262,22.12405 -0.27103,0.007 -0.49279,-0.37034 -0.49279,-0.83848 z"
           id="path30090"
           transform="scale(0.26458333)" />
      </g>
      <path
         style="fill:#000000;fill-opacity:1;stroke:#000000;stroke-width:6.16251;stroke-linecap:round;stroke-linejoin:round;stroke-opacity:0.955017;paint-order:stroke markers fill"
         d="m 441.80498,299.54941 -5.77372,-0.32797 V 161.15815 23.094876 H 596.3097 756.58814 V 161.66413 300.23339 l -77.36784,-0.0361 c -65.26554,-0.0305 -76.93431,-0.22884 -74.59645,-1.26791 7.64626,-3.3984 10.55446,-12.08294 6.26551,-18.71015 -3.18533,-4.92192 -13.96714,-6.10692 -19.06675,-2.09556 -2.9132,2.29153 -4.64747,7.43789 -3.88182,11.51915 0.66194,3.52842 4.45271,8.51553 7.36977,9.69561 1.80194,0.72895 -140.93376,0.9252 -153.50558,0.21104 z M 741.4997,272.21163 c 0.42329,-0.4234 0.76962,-52.67784 0.76962,-116.12101 0,-93.40613 -0.22844,-115.579685 -1.20075,-116.552167 -0.97117,-0.971338 -26.75879,-1.26275 -134.87408,-1.524137 -141.68464,-0.342547 -159.36839,-0.0679 -160.61841,2.494595 -1.13238,2.321323 -1.52505,226.497089 -0.40191,229.451169 0.73295,1.9278 1.66822,2.52266 4.43798,2.82269 6.85034,0.74206 291.13081,0.1858 291.88755,-0.57114 z"
         id="path31119"
         transform="scale(0.26458333)" />
      <path
         style="fill:#000000;fill-opacity:1;stroke:#000000;stroke-width:6.16251;stroke-linecap:round;stroke-linejoin:round;stroke-opacity:0.955017;paint-order:stroke markers fill"
         d="m 464.17295,113.36993 -2.47726,-2.13086 16.42688,-30.164462 16.42689,-30.164464 2.61183,1.859787 c 1.4365,1.022883 2.61183,2.29783 2.61183,2.833217 0,1.868923 -30.77758,58.448132 -32.30911,59.394682 -0.44759,0.27662 -1.92857,-0.45594 -3.29106,-1.6279 z"
         id="path31158"
         transform="scale(0.26458333)" />
      <path
         style="fill:#000000;fill-opacity:1;stroke:#000000;stroke-width:1.76822;stroke-linecap:round;stroke-linejoin:round;stroke-opacity:0.955017;paint-order:stroke markers fill"
         d="m 598.25845,300.65133 c 0.011,-0.53954 0.50689,-0.80932 1.65261,-0.89913 0.69248,-0.0543 1.25906,-0.0181 1.25906,0.0803 0,0.0985 0.0724,0.36771 0.16089,0.59831 0.13589,0.35412 -0.0907,0.41928 -1.45786,0.41928 -0.89032,0 -1.61693,-0.0895 -1.6147,-0.1988 z"
         id="path31468"
         transform="scale(0.26458333)" />
      <path
         style="fill:#000000;fill-opacity:1;stroke:#000000;stroke-width:1.76822;stroke-linecap:round;stroke-linejoin:round;stroke-opacity:0.955017;paint-order:stroke markers fill"
         d="m 605.94131,214.80491 c -5.41319,-0.59844 -10.32144,-2.04498 -15.11515,-4.45467 -13.26722,-6.66912 -23.01785,-19.17936 -27.6996,-35.53909 -0.96657,-3.37755 -2.43259,-10.87488 -2.79887,-14.31357 -0.97104,-9.11634 2.03256,-23.24118 7.1584,-33.66341 5.71944,-11.62915 14.04826,-20.26562 24.27418,-25.17081 5.64878,-2.709616 7.99952,-3.243771 15.37384,-3.49338 8.59788,-0.291024 12.13386,0.420397 19.08477,3.83975 7.08999,3.48778 12.2393,7.44272 16.79111,12.89646 6.88601,8.25046 11.2568,18.41338 13.16673,30.61515 0.59451,3.7981 0.82486,14.32684 0.4036,18.44747 -1.02898,10.06513 -3.61325,17.97215 -8.56829,26.21618 -8.80499,14.64947 -23.29633,23.91148 -38.49232,24.60203 -1.45787,0.0662 -3.06815,0.0743 -3.5784,0.0179 z m 6.8359,-2.50186 c 12.27047,-1.33499 22.28383,-7.60677 31.08303,-19.46858 7.67714,-10.34922 10.89304,-21.02299 10.94073,-36.31288 0.0226,-7.22914 -0.63712,-12.48699 -2.37782,-18.95224 -3.71719,-13.80625 -12.38677,-25.64029 -23.63276,-32.25891 -6.15427,-3.62198 -11.62513,-4.95428 -20.33095,-4.95112 -7.79719,0.003 -11.76039,0.83543 -17.49437,3.67525 -13.0768,6.47643 -23.04287,20.67114 -26.67072,37.9872 -4.41296,21.0635 1.18602,43.11726 14.47389,57.01106 9.31643,9.74126 21.77234,14.60153 34.00897,13.27022 z"
         id="path31583"
         transform="scale(0.26458333)" />
      <path
         style="fill:#000000;fill-opacity:1;stroke:#000000;stroke-width:1.76822;stroke-linecap:round;stroke-linejoin:round;stroke-opacity:0.955017;paint-order:stroke markers fill"
         d="m 615.21863,163.62561 c 0,-0.52605 1.47767,-1.95794 6.22905,-6.03608 6.85024,-5.8796 19.46369,-15.80543 21.83908,-17.1857 1.23257,-0.71621 1.06812,0.001 -0.30245,1.31945 -2.39057,2.29928 -27.10347,22.35269 -27.54643,22.35269 -0.12059,0 -0.21925,-0.20266 -0.21925,-0.45036 z"
         id="path31661"
         transform="scale(0.26458333)" />
    </g>
    <g
       id="g1321">
      <path
         id="path863"
         style="fill:none;stroke:#000000;stroke-width:1.01414;stroke-linecap:round;stroke-linejoin:round;stroke-opacity:0.955017;paint-order:stroke markers fill"
         d="m 57.462426,275.09816 a 2.5811898,2.546375 0 0 1 -2.58119,2.54638 2.5811898,2.546375 0 0 1 -2.58119,-2.54638 2.5811898,2.546375 0 0 1 2.58119,-2.54637 2.5811898,2.546375 0 0 1 2.58119,2.54637 z m -30.182118,-63.33868 1.64636,1.21978 c 0.37951,0.28117 0.49087,0.86374 0.24971,1.30619 l -8.71372,15.98654 c -0.24117,0.44245 -0.74085,0.5723 -1.12035,0.29112 l -1.64636,-1.21977 c -0.37951,-0.28117 -0.49087,-0.86374 -0.24971,-1.30619 l 8.71372,-15.98654 c 0.24117,-0.44246 0.74085,-0.5723 1.12035,-0.29113 z m -12.092251,-1.94113 h 75.812399 c 0.44965,0 0.81165,0.42205 0.81165,0.94628 v 58.98897 c 0,0.52424 -0.362,0.94628 -0.81165,0.94628 H 15.188057 c -0.44965,0 -0.81164,-0.42204 -0.81164,-0.94628 v -58.98897 c 0,-0.52423 0.36199,-0.94628 0.81164,-0.94628 z m -3.77251,-5.55572 h 84.945839 c 0.44965,0 0.81165,0.42204 0.81165,0.94628 v 73.10978 c 0,0.52424 -0.362,0.94628 -0.81165,0.94628 H 11.415547 c -0.44965,0 -0.81164,-0.42204 -0.81164,-0.94628 v -73.10978 c 0,-0.52424 0.36199,-0.94628 0.81164,-0.94628 z m 47.009369,38.72521 -0.24652,-0.43645 c -0.17097,-0.30267 -0.1114,-0.70824 0.13358,-0.90932 l 7.87772,-6.46625 c 0.24497,-0.20109 0.57983,-0.11928 0.7508,0.1834 l 0.24653,0.43645 c 0.17097,0.30269 0.11139,0.70825 -0.13359,0.90933 l -7.87771,6.46625 c -0.24498,0.20108 -0.57984,0.11929 -0.75081,-0.18341 z m 11.31663,-2.61298 a 12.576953,15.241919 2.2484831e-6 0 1 -12.57695,15.24193 12.576953,15.241919 2.2484831e-6 0 1 -12.576958,-15.24193 12.576953,15.241919 2.2484831e-6 0 1 12.576958,-15.24192 12.576953,15.241919 2.2484831e-6 0 1 12.57695,15.24192 z m -1.97971,0 a 13.139585,10.597248 89.999999 0 1 -10.59724,13.13959 13.139585,10.597248 89.999999 0 1 -10.597248,-13.13959 13.139585,10.597248 89.999999 0 1 10.597248,-13.13959 13.139585,10.597248 89.999999 0 1 10.59724,13.13959 z" />
      <path
         style="fill:#ffffff;stroke:#000000;stroke-width:8.46789;stroke-linecap:round;stroke-linejoin:round;stroke-opacity:0.955017;paint-order:stroke markers fill"
         d="m 42.714319,1052.1092 c -0.299285,-0.786 -0.412134,-63.5122 -0.250776,-139.39148 l 0.293377,-137.96233 161.05559,-0.28897 161.05559,-0.28898 -0.28957,139.39149 -0.28957,139.39147 -160.51525,0.289 c -127.811892,0.2301 -160.626103,0 -161.059391,-1.1402 z m 173.122841,-3.7927 c 9.13348,-9.1335 0.37577,-23.636 -12.02889,-19.9194 -7.4639,2.2362 -10.74993,10.1451 -7.12646,17.1521 2.27226,4.394 4.65293,5.6247 10.96135,5.6663 4.1584,0.027 5.87495,-0.5799 8.194,-2.899 z m 133.10383,-26.2582 c 0.72417,-1.9047 1.02034,-43.38795 0.82692,-115.82079 -0.2943,-110.21439 -0.3531,-112.89107 -2.5146,-114.47143 -3.32375,-2.43013 -289.837914,-2.43013 -293.161667,0 -2.161495,1.58036 -2.220293,4.25704 -2.514601,114.47143 -0.193418,72.43284 0.102754,113.91609 0.826918,115.82079 l 1.128272,2.9676 H 200.67248 347.81272 Z"
         id="path1000"
         transform="scale(0.26458333)" />
      <path
         style="fill:#ffffff;stroke:#000000;stroke-width:8.46789;stroke-linecap:round;stroke-linejoin:round;stroke-opacity:0.955017;paint-order:stroke markers fill"
         d="M 57.009227,908.15698 V 795.84881 H 200.67248 344.33573 V 908.15698 1020.4652 H 200.67248 57.009227 Z m 178.630943,55.42946 c 13.64826,-7.31523 24.49051,-21.84099 28.26986,-37.87416 2.2283,-9.45314 2.22503,-26.09557 -0.007,-34.66419 -4.54099,-17.43407 -15.65967,-31.80508 -29.76958,-38.4775 -7.00073,-3.31057 -8.86677,-3.69185 -18.06866,-3.69185 -9.2019,0 -11.06793,0.38128 -18.06867,3.69185 -19.51626,9.22903 -31.55354,30.44477 -31.51251,55.5409 0.0309,18.91974 6.05961,34.85471 17.44461,46.10952 11.21305,11.08483 18.43032,13.95808 33.84684,13.4747 9.7361,-0.30526 11.54318,-0.72093 17.86493,-4.10927 z M 78.422492,873.09631 c 0.64304,-0.78388 8.658652,-15.13502 17.81247,-31.89142 10.731648,-19.64468 16.643308,-31.65498 16.643308,-33.81304 0,-2.72123 -0.99564,-4.00634 -5.32631,-6.87486 -6.14981,-4.07346 -7.36603,-4.26514 -9.725244,-1.53268 -1.537679,1.78096 -26.422643,46.89593 -32.739307,59.35444 -3.085481,6.08557 -2.417009,8.47264 3.591561,12.82522 4.992428,3.6165 7.890471,4.19124 9.743522,1.93234 z"
         id="path1039"
         transform="scale(0.26458333)" />
      <path
         style="fill:#ffffff;stroke:#000000;stroke-width:8.46789;stroke-linecap:round;stroke-linejoin:round;stroke-opacity:0.955017;paint-order:stroke markers fill"
         d="m 70.976487,866.60208 c -1.410978,-1.1757 -2.565415,-2.52436 -2.565415,-2.99701 0,-0.9637 30.498588,-57.28434 32.191938,-59.4477 1.41915,-1.81304 6.57677,1.39008 6.56884,4.07955 -0.007,2.2161 -31.230482,59.80206 -32.650387,60.21672 -0.538758,0.15734 -2.133997,-0.67587 -3.544976,-1.85156 z"
         id="path1078"
         transform="scale(0.26458333)" />
      <path
         style="fill:#ffffff;stroke:#000000;stroke-width:5.21009;stroke-linecap:round;stroke-linejoin:round;stroke-opacity:0.955017;paint-order:stroke markers fill"
         d="m 202.99924,1045.4373 c -3.77731,-3.0597 -4.03711,-7.0433 -0.6784,-10.4021 3.23556,-3.2355 7.26438,-3.3664 10.29628,-0.3345 4.57445,4.5744 1.41877,11.9977 -5.08608,11.9643 -1.81077,-0.01 -3.63917,-0.5046 -4.5318,-1.2277 z"
         id="path1117"
         transform="scale(0.26458333)" />
      <path
         style="fill:#ffffff;stroke:#000000;stroke-width:5.21009;stroke-linecap:round;stroke-linejoin:round;stroke-opacity:0.955017;paint-order:stroke markers fill"
         d="m 205.98812,962.46407 c -10.9484,-2.74926 -23.22741,-13.98586 -29.17662,-26.69971 -4.13067,-8.82749 -5.18048,-14.41987 -5.18781,-27.63563 -0.006,-10.96684 0.14549,-12.42291 1.88453,-18.10468 3.26934,-10.68151 8.3377,-19.02375 15.57861,-25.64153 4.76266,-4.35281 8.79964,-6.79959 14.83063,-8.98872 6.44918,-2.34092 17.8575,-2.34092 24.30668,0 6.17246,2.24049 10.19998,4.7178 15.20815,9.35448 7.93592,7.34727 14.30852,19.26754 16.54254,30.94368 1.24226,6.49272 1.24226,18.49734 2e-5,25.41505 -3.17643,17.68852 -14.57205,32.97891 -29.61343,39.73463 -3.6054,1.61934 -5.21087,1.8781 -12.88756,2.07719 -4.82301,0.12508 -9.99159,-0.0796 -11.48574,-0.45476 z m 17.17759,-2.77214 c 5.55855,-1.0307 13.37714,-5.15588 18.15366,-9.5781 22.57286,-20.89848 22.54334,-62.81353 -0.0586,-83.26715 -18.22821,-16.49557 -43.65734,-12.62921 -57.90633,8.80434 -10.05715,15.12811 -12.28032,36.60785 -5.66619,54.74531 2.60174,7.13458 5.90576,12.24481 11.72449,18.13396 9.64201,9.7587 21.02275,13.52215 33.753,11.16164 z"
         id="path1156"
         transform="scale(0.26458333)" />
      <path
         style="fill:#ffffff;stroke:#000000;stroke-width:3.68586;stroke-linecap:round;stroke-linejoin:round;stroke-opacity:0.955017;paint-order:stroke markers fill"
         d="m 222.08728,916.14528 c -0.18832,-0.59334 -0.15271,-1.24823 0.0791,-1.45532 3.40234,-3.03919 28.5851,-23.34568 28.95175,-23.34568 0.27664,0 0.50298,0.42779 0.50298,0.95064 0,0.64283 -4.45924,4.60276 -13.77216,12.23009 -7.57469,6.20371 -14.14277,11.59887 -14.59573,11.98926 -0.72844,0.62781 -0.86312,0.58518 -1.16596,-0.36899 z"
         id="path1195"
         transform="scale(0.26458333)" />
    </g>
  </g>
</svg>
