<?xml version="1.0" encoding="UTF-8" standalone="no"?>
<!-- Created with Inkscape (http://www.inkscape.org/) -->

<svg
   width="210mm"
   height="297mm"
   viewBox="0 0 210 297"
   version="1.1"
   id="svg5"
   inkscape:version="1.1 (c68e22c387, 2021-05-23)"
   sodipodi:docname="OSC tablet control svg.svg"
   xmlns:inkscape="http://www.inkscape.org/namespaces/inkscape"
   xmlns:sodipodi="http://sodipodi.sourceforge.net/DTD/sodipodi-0.dtd"
   xmlns="http://www.w3.org/2000/svg"
   xmlns:svg="http://www.w3.org/2000/svg">
  <sodipodi:namedview
     id="namedview7"
     pagecolor="#ffffff"
     bordercolor="#666666"
     borderopacity="1.0"
     inkscape:pageshadow="2"
     inkscape:pageopacity="0.0"
     inkscape:pagecheckerboard="0"
     inkscape:document-units="mm"
     showgrid="false"
     inkscape:zoom="0.43861629"
     inkscape:cx="563.13457"
     inkscape:cy="577.95391"
     inkscape:window-width="1680"
     inkscape:window-height="956"
     inkscape:window-x="-11"
     inkscape:window-y="-11"
     inkscape:window-maximized="1"
     inkscape:current-layer="layer1" />
  <defs
     id="defs2">
    <inkscape:path-effect
       effect="spiro"
       id="path-effect1972"
       is_visible="true"
       lpeversion="1" />
    <inkscape:path-effect
       effect="spiro"
       id="path-effect1775"
       is_visible="true"
       lpeversion="1" />
    <inkscape:path-effect
       effect="spiro"
       id="path-effect1769"
       is_visible="true"
       lpeversion="1" />
    <inkscape:path-effect
       effect="spiro"
       id="path-effect1394"
       is_visible="true"
       lpeversion="1" />
    <inkscape:path-effect
       effect="spiro"
       id="path-effect1388"
       is_visible="true"
       lpeversion="1" />
  </defs>
  <g
     inkscape:label="Layer 1"
     inkscape:groupmode="layer"
     id="layer1">
    <g
       id="g1498"
       transform="matrix(0.8964064,0,0,0.88458923,10.022456,-5.5610962)" />
    <g
       id="g2058"
       transform="matrix(0.83533174,0,0,0.83086363,21.205787,21.164558)" />
    <path
       id="rect2084"
       style="fill:none;stroke:#000000;stroke-width:1.42919;stroke-linecap:round;stroke-linejoin:round;stroke-opacity:0.955017;paint-order:stroke markers fill"
       d="m 49.896648,115.04514 h 15.05676 c 1.82987,0 3.30302,1.70675 3.30302,3.8268 v 8.5874 c 0,2.12005 -1.47315,3.8268 -3.30302,3.8268 h -15.05676 c -1.82988,0 -3.30303,-1.70675 -3.30303,-3.8268 v -8.5874 c 0,-2.12005 1.47315,-3.8268 3.30303,-3.8268 z m -26.223405,-0.87659 h 14.65133 c 1.890465,0 3.412395,1.76327 3.412395,3.95352 v 8.87173 c 0,2.19025 -1.52193,3.95352 -3.412395,3.95352 h -14.65133 c -1.890467,0 -3.412396,-1.76327 -3.412396,-3.95352 v -8.87173 c 0,-2.19025 1.521929,-3.95352 3.412396,-3.95352 z m 26.237125,-11.11864 c 0.73041,1.06611 1.46068,2.13208 2.19082,3.1979 0.73015,1.06582 0.7791,0.8978 1.16844,1.34648 m -14.897604,-2.52465 c -0.486715,1.23442 -0.973569,2.4687 -1.460545,3.70283 m 16.637719,-3.53453 a 9.2619504,8.4010723 0 0 1 -9.26195,8.40108 9.2619504,8.4010723 0 0 1 -9.261947,-8.40108 9.2619504,8.4010723 0 0 1 9.261947,-8.40107 9.2619504,8.4010723 0 0 1 9.26195,8.40107 z m -3.93094,-1.34647 a 5.6231163,6.2274869 0 0 1 -5.62312,6.22748 5.6231163,6.2274869 0 0 1 -5.623114,-6.22748 5.6231163,6.2274869 0 0 1 5.623114,-6.22749 5.6231163,6.2274869 0 0 1 5.62312,6.22749 z M 9.981044,10.129972 h 64.241264 c 1.9172,0 3.46066,1.788211 3.46066,4.009441 V 127.66427 c 0,2.22123 -1.54346,4.00943 -3.46066,4.00943 H 9.981044 c -1.917209,0 -3.460666,-1.7882 -3.460666,-4.00943 V 14.139413 c 0,-2.22123 1.543457,-4.009441 3.460666,-4.009441 z m 41.177064,54.86413 c 0.62328,4.866039 1.2467,9.731911 1.87026,14.597621 0.62355,4.86571 -2.38992,7.58335 -3.58467,11.374777 M 32.492494,67.679719 c -0.626796,4.599468 -1.253731,9.198775 -1.880805,13.797928 -0.627068,4.599146 2.403391,7.167909 3.604878,10.751623 M 62.780478,53.075426 A 21.90273,41.885636 0 0 1 40.877748,94.96106 21.90273,41.885636 0 0 1 18.975019,53.075426 21.90273,41.885636 0 0 1 40.877748,11.18979 21.90273,41.885636 0 0 1 62.780478,53.075426 Z M 60.067928,40.50766 A 19.656973,28.431998 0 0 1 40.410968,68.939661 19.656973,28.431998 0 0 1 20.753984,40.50766 19.656973,28.431998 0 0 1 40.410968,12.075664 19.656973,28.431998 0 0 1 60.067928,40.50766 Z" />
    <path
       id="path2214"
       style="fill:none;stroke:#000000;stroke-width:1.42919;stroke-linecap:round;stroke-linejoin:round;stroke-opacity:0.955017;paint-order:stroke markers fill"
       d="m 55.325653,258.61216 h 15.05676 c 1.82987,0 3.30302,1.70675 3.30302,3.8268 v 8.5874 c 0,2.12005 -1.47315,3.8268 -3.30302,3.8268 h -15.05676 c -1.82988,0 -3.30303,-1.70675 -3.30303,-3.8268 v -8.5874 c 0,-2.12005 1.47315,-3.8268 3.30303,-3.8268 z m -26.223405,-0.87659 h 14.65133 c 1.890465,0 3.412395,1.76327 3.412395,3.95352 v 8.87173 c 0,2.19025 -1.52193,3.95352 -3.412395,3.95352 h -14.65133 c -1.890467,0 -3.412396,-1.76327 -3.412396,-3.95352 v -8.87173 c 0,-2.19025 1.521929,-3.95352 3.412396,-3.95352 z m 26.237125,-11.11864 c 0.73041,1.06611 1.46068,2.13208 2.19082,3.1979 0.73015,1.06582 0.7791,0.8978 1.16844,1.34648 m -14.897604,-2.52465 c -0.486715,1.23442 -0.973569,2.4687 -1.460545,3.70283 m 16.637719,-3.53453 a 9.2619504,8.4010723 0 0 1 -9.26195,8.40108 9.2619504,8.4010723 0 0 1 -9.261947,-8.40108 9.2619504,8.4010723 0 0 1 9.261947,-8.40107 9.2619504,8.4010723 0 0 1 9.26195,8.40107 z m -3.93094,-1.34647 a 5.6231163,6.2274869 0 0 1 -5.62312,6.22748 5.6231163,6.2274869 0 0 1 -5.623114,-6.22748 5.6231163,6.2274869 0 0 1 5.623114,-6.22749 5.6231163,6.2274869 0 0 1 5.62312,6.22749 z m -39.637214,-93.7615 h 64.241264 c 1.9172,0 3.46066,1.78821 3.46066,4.00944 v 113.52486 c 0,2.22123 -1.54346,4.00943 -3.46066,4.00943 H 15.410049 c -1.917209,0 -3.460666,-1.7882 -3.460666,-4.00943 V 157.70643 c 0,-2.22123 1.543457,-4.00944 3.460666,-4.00944 z m 41.177064,54.86413 c 0.62328,4.86604 1.2467,9.73191 1.87026,14.59762 0.62355,4.86571 -2.38992,7.58335 -3.58467,11.37478 M 37.921499,211.24674 c -0.626796,4.59946 -1.253731,9.19877 -1.880805,13.79792 -0.627068,4.59915 2.403391,7.16791 3.604878,10.75163 m 28.563911,-39.15385 a 21.90273,41.885636 0 0 1 -21.90273,41.88564 21.90273,41.885636 0 0 1 -21.902729,-41.88564 21.90273,41.885636 0 0 1 21.902729,-41.88563 21.90273,41.885636 0 0 1 21.90273,41.88563 z m -2.71255,-12.56776 a 19.656973,28.431998 0 0 1 -19.65696,28.432 19.656973,28.431998 0 0 1 -19.656984,-28.432 19.656973,28.431998 0 0 1 19.656984,-28.432 19.656973,28.431998 0 0 1 19.65696,28.432 z" />
    <path
       id="path2216"
       style="fill:none;stroke:#000000;stroke-width:1.42919;stroke-linecap:round;stroke-linejoin:round;stroke-opacity:0.955017;paint-order:stroke markers fill"
       d="m 173.55731,267.05728 h 15.05676 c 1.82987,0 3.30302,1.70675 3.30302,3.8268 v 8.5874 c 0,2.12005 -1.47315,3.8268 -3.30302,3.8268 h -15.05676 c -1.82988,0 -3.30303,-1.70675 -3.30303,-3.8268 v -8.5874 c 0,-2.12005 1.47315,-3.8268 3.30303,-3.8268 z m -26.2234,-0.87659 h 14.65133 c 1.89046,0 3.41239,1.76327 3.41239,3.95352 v 8.87173 c 0,2.19025 -1.52193,3.95352 -3.41239,3.95352 h -14.65133 c -1.89047,0 -3.4124,-1.76327 -3.4124,-3.95352 v -8.87173 c 0,-2.19025 1.52193,-3.95352 3.4124,-3.95352 z m 26.23712,-11.11864 c 0.73041,1.06611 1.46068,2.13208 2.19082,3.1979 0.73015,1.06582 0.7791,0.8978 1.16844,1.34648 m -14.8976,-2.52465 c -0.48671,1.23442 -0.97357,2.4687 -1.46054,3.70283 m 16.63771,-3.53453 a 9.2619504,8.4010723 0 0 1 -9.26195,8.40108 9.2619504,8.4010723 0 0 1 -9.26194,-8.40108 9.2619504,8.4010723 0 0 1 9.26194,-8.40107 9.2619504,8.4010723 0 0 1 9.26195,8.40107 z m -3.93094,-1.34647 a 5.6231163,6.2274869 0 0 1 -5.62312,6.22748 5.6231163,6.2274869 0 0 1 -5.62311,-6.22748 5.6231163,6.2274869 0 0 1 5.62311,-6.22749 5.6231163,6.2274869 0 0 1 5.62312,6.22749 z m -39.63721,-93.7615 h 64.24126 c 1.9172,0 3.46066,1.78821 3.46066,4.00944 v 113.52486 c 0,2.22123 -1.54346,4.00943 -3.46066,4.00943 h -64.24126 c -1.91721,0 -3.46067,-1.7882 -3.46067,-4.00943 V 166.15155 c 0,-2.22123 1.54346,-4.00944 3.46067,-4.00944 z m 41.17706,54.86413 c 0.62328,4.86604 1.2467,9.73191 1.87026,14.59762 0.62355,4.86571 -2.38992,7.58335 -3.58467,11.37478 m -16.9512,-23.28678 c -0.6268,4.59946 -1.25373,9.19877 -1.8808,13.79792 -0.62707,4.59915 2.40339,7.16791 3.60487,10.75163 m 28.56391,-39.15385 a 21.90273,41.885636 0 0 1 -21.90273,41.88564 21.90273,41.885636 0 0 1 -21.90272,-41.88564 21.90273,41.885636 0 0 1 21.90272,-41.88563 21.90273,41.885636 0 0 1 21.90273,41.88563 z m -2.71255,-12.56776 a 19.656973,28.431998 0 0 1 -19.65696,28.432 19.656973,28.431998 0 0 1 -19.65698,-28.432 19.656973,28.431998 0 0 1 19.65698,-28.432 19.656973,28.431998 0 0 1 19.65696,28.432 z" />
    <path
       id="path2218"
       style="fill:none;stroke:#000000;stroke-width:1.42919;stroke-linecap:round;stroke-linejoin:round;stroke-opacity:0.955017;paint-order:stroke markers fill"
       d="m 165.11219,118.66448 h 15.05676 c 1.82987,0 3.30302,1.70675 3.30302,3.8268 v 8.5874 c 0,2.12005 -1.47315,3.8268 -3.30302,3.8268 h -15.05676 c -1.82988,0 -3.30303,-1.70675 -3.30303,-3.8268 v -8.5874 c 0,-2.12005 1.47315,-3.8268 3.30303,-3.8268 z m -26.2234,-0.87659 h 14.65133 c 1.89046,0 3.41239,1.76327 3.41239,3.95352 v 8.87173 c 0,2.19025 -1.52193,3.95352 -3.41239,3.95352 h -14.65133 c -1.89047,0 -3.4124,-1.76327 -3.4124,-3.95352 v -8.87173 c 0,-2.19025 1.52193,-3.95352 3.4124,-3.95352 z m 26.23712,-11.11864 c 0.73041,1.06611 1.46068,2.13208 2.19082,3.1979 0.73015,1.06582 0.7791,0.8978 1.16844,1.34648 m -14.8976,-2.52465 c -0.48671,1.23442 -0.97357,2.4687 -1.46054,3.70283 m 16.63771,-3.53453 a 9.2619504,8.4010723 0 0 1 -9.26195,8.40108 9.2619504,8.4010723 0 0 1 -9.26194,-8.40108 9.2619504,8.4010723 0 0 1 9.26194,-8.40107 9.2619504,8.4010723 0 0 1 9.26195,8.40107 z m -3.93094,-1.34647 a 5.6231163,6.2274869 0 0 1 -5.62312,6.22748 5.6231163,6.2274869 0 0 1 -5.62311,-6.22748 5.6231163,6.2274869 0 0 1 5.62311,-6.22749 5.6231163,6.2274869 0 0 1 5.62312,6.22749 z m -39.63721,-93.7615 h 64.24126 c 1.9172,0 3.46066,1.78821 3.46066,4.00944 v 113.52486 c 0,2.22123 -1.54346,4.00943 -3.46066,4.00943 h -64.24126 c -1.91721,0 -3.46067,-1.7882 -3.46067,-4.00943 V 17.75875 c 0,-2.22123 1.54346,-4.00944 3.46067,-4.00944 z m 41.17706,54.86413 c 0.62328,4.86604 1.2467,9.73191 1.87026,14.59762 0.62355,4.86571 -2.38992,7.58335 -3.58467,11.37478 m -16.9512,-23.28678 c -0.6268,4.59946 -1.25373,9.19877 -1.8808,13.79792 -0.62707,4.59915 2.40339,7.16791 3.60487,10.75163 M 177.99602,56.69476 A 21.90273,41.885636 0 0 1 156.09329,98.5804 21.90273,41.885636 0 0 1 134.19057,56.69476 21.90273,41.885636 0 0 1 156.09329,14.80913 21.90273,41.885636 0 0 1 177.99602,56.69476 Z M 175.28347,44.127 a 19.656973,28.431998 0 0 1 -19.65696,28.432 19.656973,28.431998 0 0 1 -19.65698,-28.432 19.656973,28.431998 0 0 1 19.65698,-28.432 19.656973,28.431998 0 0 1 19.65696,28.432 z" />
  </g>
</svg>
