<?xml version="1.0" encoding="UTF-8" standalone="no"?>
<!-- Created with Inkscape (http://www.inkscape.org/) -->

<svg
   width="210mm"
   height="297mm"
   viewBox="0 0 210 297"
   version="1.1"
   id="svg5"
   inkscape:version="1.2.2 (b0a8486541, 2022-12-01)"
   sodipodi:docname="MassInteraction Modelling icon.svg"
   xmlns:inkscape="http://www.inkscape.org/namespaces/inkscape"
   xmlns:sodipodi="http://sodipodi.sourceforge.net/DTD/sodipodi-0.dtd"
   xmlns="http://www.w3.org/2000/svg"
   xmlns:svg="http://www.w3.org/2000/svg">
  <sodipodi:namedview
     id="namedview7"
     pagecolor="#ffffff"
     bordercolor="#666666"
     borderopacity="1.0"
     inkscape:pageshadow="2"
     inkscape:pageopacity="0.0"
     inkscape:pagecheckerboard="0"
     inkscape:document-units="mm"
     showgrid="false"
     inkscape:zoom="0.62270623"
     inkscape:cx="-337.23767"
     inkscape:cy="1059.0869"
     inkscape:window-width="1680"
     inkscape:window-height="956"
     inkscape:window-x="-11"
     inkscape:window-y="-11"
     inkscape:window-maximized="1"
     inkscape:current-layer="layer1"
     inkscape:showpageshadow="2"
     inkscape:deskcolor="#d1d1d1"
     showguides="false" />
  <defs
     id="defs2">
    <inkscape:path-effect
       effect="bend_path"
       id="path-effect2154"
       is_visible="true"
       lpeversion="1"
       bendpath="m 45.799133,60.972102 c 3.544387,64.875038 101.433157,-61.87939548 121.697887,0"
       prop_scale="0.75838293"
       scale_y_rel="false"
       vertical="false"
       hide_knot="false"
       bendpath-nodetypes="cc" />
    <inkscape:path-effect
       effect="spiro"
       id="path-effect2085"
       is_visible="true"
       lpeversion="1" />
    <inkscape:path-effect
       effect="spiro"
       id="path-effect993"
       is_visible="true"
       lpeversion="1" />
    <inkscape:path-effect
       effect="spiro"
       id="path-effect989"
       is_visible="true"
       lpeversion="1" />
    <inkscape:path-effect
       effect="spiro"
       id="path-effect985"
       is_visible="true"
       lpeversion="1" />
    <inkscape:path-effect
       effect="spiro"
       id="path-effect979"
       is_visible="true"
       lpeversion="1" />
    <inkscape:path-effect
       effect="spiro"
       id="path-effect419"
       is_visible="true"
       lpeversion="1" />
  </defs>
  <g
     inkscape:label="Layer 1"
     inkscape:groupmode="layer"
     id="layer1">
    <path
       id="rect425"
       style="fill:none;fill-rule:evenodd;stroke:#000000;stroke-width:0.625359;stroke-linecap:round;stroke-linejoin:round;paint-order:stroke markers fill"
       inkscape:transform-center-x="1.99519"
       inkscape:transform-center-y="2.0360739"
       transform="matrix(-0.69990041,0.71424045,-0.66518494,-0.74667865,0,0)"
       d="m -2.4932108,-167.77525 c 6.1968934,0 11.1857281,0.73478 11.1857281,1.64749 0,0.91271 -4.9888347,1.6475 -11.1857281,1.6475 -6.1968933,0 -11.1857282,-0.73479 -11.1857282,-1.6475 0,-0.91271 4.9888349,-1.64749 11.1857282,-1.64749 z m 59.4170068,5.10141 c 6.196893,0 11.185728,0.73478 11.185728,1.64749 0,0.91271 -4.988835,1.6475 -11.185728,1.6475 -6.196894,0 -11.185728,-0.73479 -11.185728,-1.6475 0,-0.91271 4.988834,-1.64749 11.185728,-1.64749 z m -30.708595,28.49256 c 0.302008,-6.1691 1.276628,-11.00064 2.185247,-10.83305 0.908619,0.16759 1.396974,5.26897 1.094966,11.43807 -0.302008,6.16911 -1.276629,11.00065 -2.185248,10.83306 -0.908619,-0.16759 -1.396973,-5.26897 -1.094965,-11.43808 z m -2.417862,-61.00976 c 0.06731,-5.93126 0.833554,-10.54948 1.71804,-10.35475 0.884486,0.19473 1.542357,5.12649 1.475049,11.05775 -0.06731,5.93126 -0.833554,10.54949 -1.718039,10.35475 -0.884486,-0.19473 -1.542359,-5.12649 -1.47505,-11.05775 z m -23.63436098,7.54384 c -4.83877452,-4.62856 -8.23302232,-8.88219 -7.61042232,-9.53729 0.6225999,-0.65509 5.0193095,2.54377 9.858084,7.17233 4.8387745,4.62856 8.2330223,8.8822 7.6104223,9.53729 -0.6225999,0.65509 -5.0193095,-2.54376 -9.85808398,-7.17233 z m 47.94690698,44.72586 c -4.838775,-4.62856 -8.233027,-8.88219 -7.61042,-9.53729 0.622599,-0.65509 5.019307,2.54376 9.858081,7.17232 4.838776,4.62857 8.233021,8.8822 7.610421,9.53729 -0.622606,0.6551 -5.019307,-2.54376 -9.858082,-7.17232 z m -33.920272,-22.81168 a 4.8743857,9.6911657 43.480645 0 1 5.889167,-10.72879 4.8743857,9.6911657 43.480645 0 1 8.860867,-0.93089 l -7.295875,6.09079 z m -4.3771702,8.94905 a 18.175483,18.246798 15.91246 0 1 7.5671322,-24.55214 18.175483,18.246798 15.91246 0 1 24.520216,7.32679 18.175483,18.246798 15.91246 0 1 -7.138517,24.68021 18.175483,18.246798 15.91246 0 1 -24.644998,-6.89539 m 84.237318,-19.72769 c 4.054397,-4.266 8.254366,-6.80505 9.416976,-5.69295 1.16261,1.11209 -1.16544,5.44175 -5.21984,9.70774 -4.054397,4.266 -8.25437,6.80505 -9.416976,5.69296 -1.162606,-1.1121 1.165443,-5.44176 5.21984,-9.70775 z m -27.950713,29.40944 c 4.054397,-4.266 8.25437,-6.80505 9.416976,-5.69296 1.162606,1.1121 -1.165444,5.44176 -5.219841,9.70775 -4.054397,4.266 -8.254389,6.80507 -9.416995,5.69298 -1.162607,-1.1121 1.165463,-5.44178 5.21986,-9.70777 z m 30.914478,7.12528 c -5.086405,-4.86543 -8.435172,-9.56737 -7.508456,-10.54245 0.926723,-0.97508 5.767609,2.15686 10.854017,7.02229 5.0864,4.86544 8.43518,9.56737 7.50846,10.54246 -0.92672,0.97508 -5.76762,-2.15686 -10.854021,-7.0223 z m -35.718896,-34.16714 c -5.086403,-4.86544 -8.435172,-9.56738 -7.508456,-10.54246 0.926723,-0.97508 5.76761,2.15686 10.854013,7.0223 5.086405,4.86543 8.435179,9.56736 7.508456,10.54245 -0.926716,0.97508 -5.767608,-2.15686 -10.854013,-7.02229 z m 27.552846,22.27366 a 10.534088,7.3914232 43.90723 0 1 -12.696107,-2.60492 10.534088,7.3914232 43.90723 0 1 -2.038674,-12.43443 10.534088,7.3914232 43.90723 0 1 12.614036,2.10433 10.534088,7.3914232 43.90723 0 1 2.546487,12.51915 z M 36.929603,-230.8815 c 4.054397,-4.26599 8.254362,-6.80505 9.416961,-5.69296 1.162599,1.11209 -1.165451,5.44175 -5.219848,9.70774 -4.054397,4.26599 -8.25437,6.80505 -9.416968,5.69296 -1.162599,-1.11209 1.165458,-5.44174 5.219855,-9.70774 z m -27.9507135,29.40944 c 4.0543975,-4.26599 8.2543625,-6.80505 9.4169605,-5.69296 1.162599,1.11209 -1.16545,5.44175 -5.219847,9.70774 -4.0543974,4.26599 -8.25439,6.80507 -9.4169888,5.69298 -1.1625988,-1.11209 1.1654784,-5.44176 5.2198753,-9.70776 z m 30.9143655,7.12518 c -5.086374,-4.8654 -8.435119,-9.56732 -7.508403,-10.5424 0.926723,-0.97508 5.767586,2.15684 10.85396,7.02224 5.086375,4.86541 8.435133,9.56732 7.508411,10.54241 -0.926716,0.97508 -5.767594,-2.15684 -10.853968,-7.02225 z M 4.1744807,-228.51391 c -5.08640435,-4.86543 -8.4351713,-9.56737 -7.5084552,-10.54245 0.9267227,-0.97509 5.7676081,2.15686 10.8540125,7.02229 5.086397,4.86543 8.43517,9.56736 7.508448,10.54244 -0.926716,0.97509 -5.7676084,-2.15685 -10.8540053,-7.02228 z m 27.5527843,22.2736 a 10.534088,7.3914232 43.90723 0 1 -12.696062,-2.60487 10.534088,7.3914232 43.90723 0 1 -2.038663,-12.43442 10.534088,7.3914232 43.90723 0 1 12.614017,2.10431 10.534088,7.3914232 43.90723 0 1 2.546443,12.51911 z m -42.073723,25.10217 c 4.0543972,-4.26599 8.2543623,-6.80505 9.41696109,-5.69296 1.1625988,1.11209 -1.16545089,5.44175 -5.21984779,9.70774 -4.0543973,4.26599 -8.2543693,6.80505 -9.4169683,5.69296 -1.162599,-1.11209 1.165458,-5.44174 5.219855,-9.70774 z m -27.950713,29.40944 c 4.054397,-4.26599 8.254362,-6.80505 9.416961,-5.69296 1.162599,1.11209 -1.165451,5.44175 -5.219848,9.70774 -4.054397,4.26599 -8.25437,6.80505 -9.416969,5.69296 -1.162599,-1.11209 1.165459,-5.44174 5.219856,-9.70774 z m 30.9143654,7.12518 c -5.0863744,-4.8654 -8.4351194,-9.56732 -7.5084024,-10.5424 0.926722,-0.97508 5.7675852,2.15684 10.8539596,7.02224 5.0863745,4.86541 8.4351331,9.56732 7.5084104,10.54241 -0.9267161,0.97508 -5.7675931,-2.15684 -10.8539676,-7.02225 z M -43.10158,-178.77055 c -5.086404,-4.86543 -8.435171,-9.56737 -7.508455,-10.54245 0.926723,-0.97509 5.767608,2.15686 10.854012,7.02229 5.086397,4.86543 8.435171,9.56736 7.508448,10.54245 -0.926716,0.97508 -5.767608,-2.15686 -10.854005,-7.02229 z m 27.552785,22.2736 a 10.534088,7.3914232 43.90723 0 1 -12.696063,-2.60487 10.534088,7.3914232 43.90723 0 1 -2.038663,-12.43442 10.534088,7.3914232 43.90723 0 1 12.614018,2.10431 10.534088,7.3914232 43.90723 0 1 2.546443,12.51911 z m 63.022358,30.66694 c 4.054397,-4.26599 8.25437,-6.80505 9.416976,-5.69295 1.162607,1.1121 -1.165443,5.44176 -5.21984,9.70775 -4.054397,4.26599 -8.25437,6.80505 -9.416976,5.69295 -1.162606,-1.1121 1.165443,-5.44176 5.21984,-9.70775 z M 19.52285,-96.42057 c 4.054397,-4.26599 8.25437,-6.80505 9.416976,-5.69295 1.162606,1.1121 -1.165443,5.441756 -5.21984,9.707748 -4.054397,4.265993 -8.254371,6.805051 -9.416977,5.692952 -1.162606,-1.112099 1.165444,-5.441757 5.219841,-9.70775 z m 30.914478,7.125289 c -5.086405,-4.865435 -8.435171,-9.56737 -7.508455,-10.542451 0.926722,-0.975088 5.767608,2.156857 10.854012,7.022291 5.086404,4.865434 8.435186,9.56737 7.508463,10.542458 -0.926716,0.97508 -5.767616,-2.156864 -10.85402,-7.022298 z M 14.71843,-123.46243 c -5.0864035,-4.86544 -8.435172,-9.56737 -7.5084559,-10.54245 0.9267227,-0.97509 5.7676099,2.15686 10.8540129,7.02229 5.086405,4.86543 8.435179,9.56736 7.508456,10.54245 -0.926716,0.97508 -5.767609,-2.15686 -10.854013,-7.02229 z m 27.552848,22.27366 a 10.534088,7.3914232 43.90723 0 1 -12.696107,-2.60491 10.534088,7.3914232 43.90723 0 1 -2.038676,-12.43443 10.534088,7.3914232 43.90723 0 1 12.614038,2.10432 10.534088,7.3914232 43.90723 0 1 2.546488,12.51916 z" />
  </g>
  <g
     inkscape:groupmode="layer"
     id="layer2"
     inkscape:label="Layer 2" />
  <g
     inkscape:groupmode="layer"
     id="layer3"
     inkscape:label="Layer 3" />
  <g
     inkscape:groupmode="layer"
     id="layer4"
     inkscape:label="Layer 4" />
</svg>
