<?xml version="1.0" encoding="UTF-8" standalone="no"?>
<!-- Created with Inkscape (http://www.inkscape.org/) -->

<svg
   width="210mm"
   height="297mm"
   viewBox="0 0 210 297"
   version="1.1"
   id="svg5"
   inkscape:version="1.2.2 (b0a8486541, 2022-12-01)"
   sodipodi:docname="MassInteraction Modelling icon.svg"
   xmlns:inkscape="http://www.inkscape.org/namespaces/inkscape"
   xmlns:sodipodi="http://sodipodi.sourceforge.net/DTD/sodipodi-0.dtd"
   xmlns="http://www.w3.org/2000/svg"
   xmlns:svg="http://www.w3.org/2000/svg">
  <sodipodi:namedview
     id="namedview7"
     pagecolor="#ffffff"
     bordercolor="#666666"
     borderopacity="1.0"
     inkscape:pageshadow="2"
     inkscape:pageopacity="0.0"
     inkscape:pagecheckerboard="0"
     inkscape:document-units="mm"
     showgrid="false"
     inkscape:zoom="0.62270623"
     inkscape:cx="85.112365"
     inkscape:cy="381.39975"
     inkscape:window-width="1680"
     inkscape:window-height="956"
     inkscape:window-x="-11"
     inkscape:window-y="-11"
     inkscape:window-maximized="1"
     inkscape:current-layer="layer2"
     inkscape:showpageshadow="2"
     inkscape:deskcolor="#d1d1d1"
     showguides="false" />
  <defs
     id="defs2">
    <inkscape:path-effect
       effect="bend_path"
       id="path-effect2154"
       is_visible="true"
       lpeversion="1"
       bendpath="m 45.799133,60.972102 c 3.544387,64.875038 101.433157,-61.87939548 121.697887,0"
       prop_scale="0.75838293"
       scale_y_rel="false"
       vertical="false"
       hide_knot="false"
       bendpath-nodetypes="cc" />
    <inkscape:path-effect
       effect="spiro"
       id="path-effect2085"
       is_visible="true"
       lpeversion="1" />
    <inkscape:path-effect
       effect="spiro"
       id="path-effect993"
       is_visible="true"
       lpeversion="1" />
    <inkscape:path-effect
       effect="spiro"
       id="path-effect989"
       is_visible="true"
       lpeversion="1" />
    <inkscape:path-effect
       effect="spiro"
       id="path-effect985"
       is_visible="true"
       lpeversion="1" />
    <inkscape:path-effect
       effect="spiro"
       id="path-effect979"
       is_visible="true"
       lpeversion="1" />
    <inkscape:path-effect
       effect="spiro"
       id="path-effect419"
       is_visible="true"
       lpeversion="1" />
  </defs>
  <g
     inkscape:label="Layer 1"
     inkscape:groupmode="layer"
     id="layer1">
    <path
       id="rect425"
       style="fill:none;fill-rule:evenodd;stroke:#000000;stroke-width:0.316618;stroke-linecap:round;stroke-linejoin:round;paint-order:stroke markers fill"
       inkscape:transform-center-x="1.1374616"
       inkscape:transform-center-y="0.917598"
       d="m 60.629172,26.569272 c -2.47265,1.994704 -4.741913,3.353282 -5.088033,3.04615 -0.346121,-0.307132 1.365847,-2.16023 3.838497,-4.154928 2.47265,-1.994704 4.741916,-3.353281 5.08804,-3.046149 0.346116,0.307132 -1.365852,2.16023 -3.838504,4.154927 z m -25.64282,17.408902 c -2.47265,1.9947 -4.741914,3.35328 -5.088035,3.04615 -0.34612,-0.30713 1.365848,-2.16023 3.838498,-4.15493 2.472651,-1.9947 4.741918,-3.35328 5.088038,-3.04615 0.346121,0.30713 -1.365851,2.16023 -3.838501,4.15493 z m 1.448136,-19.472605 c 2.21896,2.173153 3.662304,4.112713 3.236198,4.348788 -0.426106,0.236075 -2.555528,-1.323375 -4.774488,-3.496522 -2.218964,-2.173154 -3.662308,-4.112713 -3.236202,-4.348791 0.426107,-0.236078 2.555528,1.323371 4.774492,3.496525 z m 24.101076,19.751865 c 2.222411,2.01757 3.668007,3.81827 3.241235,4.03744 -0.426765,0.21918 -2.559503,-1.22862 -4.781917,-3.24619 -2.222414,-2.01757 -3.668012,-3.81828 -3.241239,-4.03745 0.426769,-0.21917 2.559507,1.22863 4.781921,3.2462 z m 6.569654,-10.14614 c 3.685997,0 6.65343,0.33881 6.65343,0.75966 0,0.42085 -2.967433,0.75966 -6.65343,0.75966 -3.686003,0 -6.653433,-0.33882 -6.653432,-0.75966 1e-6,-0.42085 2.967429,-0.75966 6.653432,-0.75966 z m -36.092593,0.38297 c 3.685998,-1e-5 6.653429,0.3388 6.653429,0.75966 -1e-6,0.42085 -2.967429,0.75966 -6.653427,0.75966 -3.686003,-1e-5 -6.653432,-0.33881 -6.65343,-0.75966 0,-0.42085 2.967429,-0.75966 6.653428,-0.75966 z m 22.185398,-3.24223 a 4.5128412,2.6832325 89.999999 0 1 1.718742,5.50595 4.5128412,2.6832325 89.999999 0 1 -3.182599,3.16544 l 0.601391,-4.39803 z M 51.55089,26.831676 a 10.013606,8.4897428 1.8795396e-6 0 1 6.291345,10.697698 10.013606,8.4897428 1.8795396e-6 0 1 -12.562411,5.42723 10.013606,8.4897428 1.8795396e-6 0 1 -6.510935,-10.60284 10.013606,8.4897428 1.8795396e-6 0 1 12.448603,-5.612553 M 25.086777,60.494584 c 3e-6,2.74059 -0.712979,4.94691 -1.598612,4.94691 -0.885629,0 -1.59861,-2.20632 -1.598608,-4.94691 -2e-6,-2.74059 0.712981,-4.94692 1.598608,-4.94692 0.885631,0 1.598613,2.20633 1.598612,4.94692 z m -1e-6,-18.89342 c 3e-6,2.74059 -0.712981,4.94691 -1.598608,4.94691 -0.88563,0 -1.598612,-2.20632 -1.598611,-4.94691 -3e-6,-2.74059 0.712981,-4.94692 1.598608,-4.94692 0.885631,0 1.598613,2.20633 1.598611,4.94692 z m -15.037396,7.55326 c 3.874633,0 6.993924,0.50431 6.993924,1.13073 -3e-6,0.62642 -3.119291,1.13072 -6.993926,1.13073 -3.8746348,-10e-6 -6.9939268,-0.50431 -6.9939288,-1.13073 2e-6,-0.62642 3.119295,-1.13073 6.9939308,-1.13073 z m 27.209329,0 c 3.874635,0 6.993927,0.50431 6.993927,1.13073 -2e-6,0.62642 -3.119291,1.13073 -6.993927,1.13072 -3.874633,0 -6.993923,-0.5043 -6.993925,-1.13072 1e-6,-0.62642 3.119291,-1.13073 6.993925,-1.13073 z m -19.440674,1.37369 a 5.7986933,3.4419719 1.016673e-7 0 1 6.053777,-3.21014 5.7986933,3.4419719 1.016673e-7 0 1 5.528885,3.52804 5.7986933,3.4419719 1.016673e-7 0 1 -5.831195,3.35217 5.7986933,3.4419719 1.016673e-7 0 1 -5.763637,-3.39309 z m 51.012212,9.96647 c 0,2.74059 -0.712974,4.94691 -1.598599,4.94691 -0.885624,0 -1.598605,-2.20633 -1.598605,-4.94691 0,-2.74059 0.712981,-4.94692 1.598605,-4.94692 0.885625,0 1.598599,2.20633 1.598599,4.94692 z m 0,-18.89342 c 0,2.74059 -0.712974,4.94691 -1.598599,4.94691 -0.885624,0 -1.598605,-2.20632 -1.598605,-4.94691 0,-2.74058 0.712981,-4.94692 1.598605,-4.94692 0.885625,0 1.598599,2.20633 1.598599,4.94692 z m -15.037312,7.55326 c 3.87461,0 6.993884,0.50431 6.993884,1.13073 -3e-6,0.62642 -3.119274,1.13072 -6.993884,1.13073 -3.874613,-10e-6 -6.99389,-0.50431 -6.993891,-1.13073 10e-7,-0.62642 3.119278,-1.13073 6.993891,-1.13073 z m 27.209237,0 c 3.874636,0 6.993925,0.50431 6.993925,1.13073 0,0.62642 -3.119289,1.13072 -6.993925,1.13072 -3.874628,0 -6.993917,-0.5043 -6.993917,-1.13072 0,-0.62642 3.119289,-1.13073 6.993917,-1.13073 z m -19.440624,1.37369 a 5.7986933,3.4419719 1.016673e-7 0 1 6.053737,-3.21014 5.7986933,3.4419719 1.016673e-7 0 1 5.528876,3.52804 5.7986933,3.4419719 1.016673e-7 0 1 -5.831176,3.35217 5.7986933,3.4419719 1.016673e-7 0 1 -5.763604,-3.39309 z M 68.830247,28.53811 c 0,2.740584 -0.712974,4.946904 -1.598599,4.946914 -0.885624,0 -1.598605,-2.20633 -1.598605,-4.946914 0,-2.740593 0.712981,-4.946919 1.598605,-4.946919 0.885625,0 1.598599,2.206326 1.598599,4.946919 z m 0,-18.893419 c 0,2.740588 -0.712974,4.94691 -1.598599,4.946911 -0.885624,10e-7 -1.598605,-2.206324 -1.598605,-4.946912 0,-2.740588 0.712981,-4.946912 1.598605,-4.946913 0.885625,-1e-6 1.598599,2.206323 1.598599,4.946914 z m -15.037312,7.553265 c 3.87461,-2e-6 6.993885,0.504305 6.993884,1.130723 -3e-6,0.62642 -3.119274,1.13072 -6.993884,1.130722 -3.874613,-1e-6 -6.99389,-0.5043 -6.99389,-1.130723 0,-0.626418 3.119277,-1.130723 6.99389,-1.130722 z m 27.209237,-1e-6 c 3.874636,-1e-6 6.993925,0.504305 6.993925,1.130723 0,0.626423 -3.119289,1.130721 -6.993925,1.130723 -3.874628,-2e-6 -6.993917,-0.504302 -6.993917,-1.130725 0,-0.626418 3.119289,-1.130722 6.993917,-1.130721 z m -19.440624,1.373684 a 5.7986933,3.4419719 1.016673e-7 0 1 6.053737,-3.210142 5.7986933,3.4419719 1.016673e-7 0 1 5.528876,3.528036 5.7986933,3.4419719 1.016673e-7 0 1 -5.831176,3.352176 5.7986933,3.4419719 1.016673e-7 0 1 -5.763604,-3.393088 z m -36.77645,9.966471 c -1e-6,2.740584 -0.712981,4.946914 -1.598612,4.946914 -0.885631,0 -1.598612,-2.20633 -1.598611,-4.946921 1e-6,-2.740586 0.712981,-4.946912 1.598611,-4.946912 0.885631,7e-6 1.598613,2.206326 1.598612,4.946919 z m 0,-18.893419 c -2e-6,2.740587 -0.712981,4.946912 -1.598612,4.946912 -0.885631,-10e-7 -1.598611,-2.206324 -1.598611,-4.946912 0,-2.740589 0.712981,-4.946913 1.598611,-4.946913 0.885631,0 1.598612,2.206324 1.598612,4.946913 z M 9.7476972,17.197955 c 3.8746358,0 6.9939238,0.504304 6.9939238,1.130722 1e-6,0.626423 -3.119289,1.130723 -6.9939228,1.130723 -3.874635,0 -6.99393,-0.5043 -6.99393,-1.130723 0,-0.626418 3.119295,-1.130722 6.993929,-1.130722 z m 27.2093338,-1e-6 c 3.874636,3e-6 6.993924,0.504305 6.993923,1.130723 2e-6,0.626423 -3.119291,1.130722 -6.993923,1.130722 -3.874633,2e-6 -6.993924,-0.504299 -6.993925,-1.130722 1e-6,-0.626418 3.119292,-1.130722 6.993925,-1.130723 z m -19.440675,1.373685 a 5.7986933,3.4419719 1.016673e-7 0 1 6.053774,-3.210143 5.7986933,3.4419719 1.016673e-7 0 1 5.528885,3.528035 5.7986933,3.4419719 1.016673e-7 0 1 -5.831192,3.352178 5.7986933,3.4419719 1.016673e-7 0 1 -5.763641,-3.39309 z"
       inkscape:label="outlline" />
  </g>
  <g
     inkscape:groupmode="layer"
     id="layer2"
     inkscape:label="Layer 2">
    <path
       id="path298"
       style="fill:#ffffff;fill-rule:evenodd;stroke:#000000;stroke-width:1.417;stroke-linecap:round;stroke-linejoin:round;stroke-dasharray:none;paint-order:stroke markers fill"
       inkscape:transform-center-x="1.1374616"
       inkscape:transform-center-y="0.917598"
       d="m 179.15867,24.444808 c -2.47265,1.994704 -4.74191,3.353282 -5.08803,3.04615 -0.34612,-0.307132 1.36584,-2.16023 3.83849,-4.154928 2.47265,-1.994704 4.74192,-3.353281 5.08804,-3.046149 0.34612,0.307132 -1.36585,2.16023 -3.8385,4.154927 z M 153.51585,41.85371 c -2.47265,1.9947 -4.74191,3.35328 -5.08804,3.04615 -0.34612,-0.30713 1.36585,-2.16023 3.8385,-4.15493 2.47265,-1.9947 4.74192,-3.35328 5.08804,-3.04615 0.34612,0.30713 -1.36585,2.16023 -3.8385,4.15493 z m 1.44814,-19.472605 c 2.21896,2.173153 3.6623,4.112713 3.23619,4.348788 -0.4261,0.236075 -2.55552,-1.323375 -4.77448,-3.496522 -2.21897,-2.173154 -3.66231,-4.112713 -3.23621,-4.348791 0.42611,-0.236078 2.55553,1.323371 4.7745,3.496525 z m 24.10107,19.751865 c 2.22241,2.01757 3.66801,3.81827 3.24124,4.03744 -0.42677,0.21918 -2.55951,-1.22862 -4.78192,-3.24619 -2.22241,-2.01757 -3.66801,-3.81828 -3.24124,-4.03745 0.42677,-0.21917 2.55951,1.22863 4.78192,3.2462 z m 6.56966,-10.14614 c 3.68599,0 6.65343,0.33881 6.65343,0.75966 0,0.42085 -2.96744,0.75966 -6.65343,0.75966 -3.68601,0 -6.65344,-0.33882 -6.65344,-0.75966 0,-0.42085 2.96743,-0.75966 6.65344,-0.75966 z m -36.0926,0.38297 c 3.686,-10e-6 6.65343,0.3388 6.65343,0.75966 0,0.42085 -2.96743,0.75966 -6.65343,0.75966 -3.686,-10e-6 -6.65343,-0.33881 -6.65343,-0.75966 0,-0.42085 2.96743,-0.75966 6.65343,-0.75966 z m 22.1854,-3.24223 a 4.5128412,2.6832325 89.999999 0 1 1.71874,5.50595 4.5128412,2.6832325 89.999999 0 1 -3.1826,3.16544 l 0.60139,-4.39803 z m -1.64713,-4.420358 a 10.013606,8.4897428 1.8795396e-6 0 1 6.29134,10.697698 10.013606,8.4897428 1.8795396e-6 0 1 -12.56241,5.42723 10.013606,8.4897428 1.8795396e-6 0 1 -6.51093,-10.60284 10.013606,8.4897428 1.8795396e-6 0 1 12.4486,-5.612553 M 143.61627,58.37012 c 1e-5,2.74059 -0.71297,4.94691 -1.59861,4.94691 -0.88563,0 -1.59861,-2.20632 -1.59861,-4.94691 0,-2.74059 0.71299,-4.94692 1.59861,-4.94692 0.88563,0 1.59862,2.20633 1.59861,4.94692 z m 0,-18.89342 c 1e-5,2.74059 -0.71298,4.94691 -1.5986,4.94691 -0.88563,0 -1.59862,-2.20632 -1.59862,-4.94691 0,-2.74059 0.71299,-4.94692 1.59861,-4.94692 0.88563,0 1.59862,2.20633 1.59861,4.94692 z m -15.03739,7.55326 c 3.87463,0 6.99392,0.50431 6.99392,1.13073 0,0.62642 -3.11929,1.13072 -6.99392,1.13073 -3.87464,-1e-5 -6.99393,-0.50431 -6.99393,-1.13073 0,-0.62642 3.11929,-1.13073 6.99393,-1.13073 z m 27.20933,0 c 3.87463,0 6.99392,0.50431 6.99392,1.13073 0,0.62642 -3.11929,1.13073 -6.99392,1.13072 -3.87464,0 -6.99393,-0.5043 -6.99393,-1.13072 0,-0.62642 3.11929,-1.13073 6.99393,-1.13073 z m -19.44068,1.37369 a 5.7986933,3.4419719 1.016673e-7 0 1 6.05378,-3.21014 5.7986933,3.4419719 1.016673e-7 0 1 5.52888,3.52804 5.7986933,3.4419719 1.016673e-7 0 1 -5.83119,3.35217 5.7986933,3.4419719 1.016673e-7 0 1 -5.76364,-3.39309 z m 51.01221,9.96647 c 0,2.74059 -0.71297,4.94691 -1.59859,4.94691 -0.88563,0 -1.59861,-2.20633 -1.59861,-4.94691 0,-2.74059 0.71298,-4.94692 1.59861,-4.94692 0.88562,0 1.59859,2.20633 1.59859,4.94692 z m 0,-18.89342 c 0,2.74059 -0.71297,4.94691 -1.59859,4.94691 -0.88563,0 -1.59861,-2.20632 -1.59861,-4.94691 0,-2.74058 0.71298,-4.94692 1.59861,-4.94692 0.88562,0 1.59859,2.20633 1.59859,4.94692 z m -15.03731,7.55326 c 3.87461,0 6.99389,0.50431 6.99389,1.13073 -1e-5,0.62642 -3.11928,1.13072 -6.99389,1.13073 -3.87461,-1e-5 -6.99389,-0.50431 -6.99389,-1.13073 0,-0.62642 3.11928,-1.13073 6.99389,-1.13073 z m 27.20924,0 c 3.87464,0 6.99392,0.50431 6.99392,1.13073 0,0.62642 -3.11928,1.13072 -6.99392,1.13072 -3.87463,0 -6.99392,-0.5043 -6.99392,-1.13072 0,-0.62642 3.11929,-1.13073 6.99392,-1.13073 z m -19.44062,1.37369 a 5.7986933,3.4419719 1.016673e-7 0 1 6.05373,-3.21014 5.7986933,3.4419719 1.016673e-7 0 1 5.52888,3.52804 5.7986933,3.4419719 1.016673e-7 0 1 -5.83118,3.35217 5.7986933,3.4419719 1.016673e-7 0 1 -5.7636,-3.39309 z m 7.26869,-21.990004 c 0,2.740584 -0.71297,4.946904 -1.59859,4.946914 -0.88563,0 -1.59861,-2.20633 -1.59861,-4.946914 0,-2.740593 0.71298,-4.946919 1.59861,-4.946919 0.88562,0 1.59859,2.206326 1.59859,4.946919 z m 0,-18.8934185 c 0,2.7405875 -0.71297,4.9469095 -1.59859,4.9469105 -0.88563,10e-7 -1.59861,-2.206324 -1.59861,-4.9469115 0,-2.740588 0.71298,-4.946912 1.59861,-4.946913 0.88562,-10e-7 1.59859,2.206323 1.59859,4.946914 z m -15.03731,7.5532645 c 3.87461,-2e-6 6.99389,0.504305 6.99389,1.130723 -1e-5,0.62642 -3.11928,1.13072 -6.99389,1.130722 -3.87461,-1e-6 -6.99389,-0.5043 -6.99389,-1.130723 0,-0.626418 3.11928,-1.130723 6.99389,-1.130722 z m 27.20924,-10e-7 c 3.87464,-1e-6 6.99392,0.504305 6.99392,1.130723 0,0.626423 -3.11928,1.130721 -6.99392,1.130723 -3.87463,-2e-6 -6.99392,-0.504302 -6.99392,-1.130725 0,-0.626418 3.11929,-1.130722 6.99392,-1.130721 z m -19.44062,1.373684 a 5.7986933,3.4419719 1.016673e-7 0 1 6.05373,-3.210142 5.7986933,3.4419719 1.016673e-7 0 1 5.52888,3.528036 5.7986933,3.4419719 1.016673e-7 0 1 -5.83118,3.352176 5.7986933,3.4419719 1.016673e-7 0 1 -5.7636,-3.393088 z m -36.77645,9.966471 c -1e-5,2.740584 -0.71299,4.946914 -1.59862,4.946914 -0.88563,0 -1.59861,-2.20633 -1.59861,-4.946921 0,-2.740586 0.71298,-4.946912 1.59861,-4.946912 0.88563,7e-6 1.59862,2.206326 1.59862,4.946919 z m 0,-18.8934185 c -1e-5,2.7405865 -0.71299,4.9469115 -1.59862,4.9469115 -0.88563,-10e-7 -1.59861,-2.206324 -1.59861,-4.9469115 0,-2.740589 0.71298,-4.946913 1.59861,-4.946913 0.88563,0 1.59862,2.206324 1.59862,4.946913 z m -15.03741,7.5532635 c 3.87464,0 6.99393,0.504304 6.99393,1.130722 0,0.626423 -3.11929,1.130723 -6.99392,1.130723 -3.87464,0 -6.99393,-0.5043 -6.99393,-1.130723 0,-0.626418 3.11929,-1.130722 6.99392,-1.130722 z m 27.20934,-1e-6 c 3.87463,3e-6 6.99392,0.504305 6.99392,1.130723 0,0.626423 -3.11929,1.130722 -6.99392,1.130722 -3.87463,2e-6 -6.99393,-0.504299 -6.99393,-1.130722 0,-0.626418 3.1193,-1.130722 6.99393,-1.130723 z m -19.44068,1.373685 a 5.7986933,3.4419719 1.016673e-7 0 1 6.05378,-3.210143 5.7986933,3.4419719 1.016673e-7 0 1 5.52888,3.528035 5.7986933,3.4419719 1.016673e-7 0 1 -5.83119,3.352178 5.7986933,3.4419719 1.016673e-7 0 1 -5.76364,-3.39309 z"
       inkscape:label="White" />
  </g>
  <g
     inkscape:groupmode="layer"
     id="layer3"
     inkscape:label="Layer 3" />
  <g
     inkscape:groupmode="layer"
     id="layer4"
     inkscape:label="Layer 4" />
</svg>
