<?xml version="1.0" encoding="UTF-8" standalone="no"?>
<!-- Created with Inkscape (http://www.inkscape.org/) -->

<svg
   width="210mm"
   height="297mm"
   viewBox="0 0 210 297"
   version="1.1"
   id="svg5"
   inkscape:version="1.2.2 (b0a8486541, 2022-12-01)"
   sodipodi:docname="pick up icon.svg"
   xmlns:inkscape="http://www.inkscape.org/namespaces/inkscape"
   xmlns:sodipodi="http://sodipodi.sourceforge.net/DTD/sodipodi-0.dtd"
   xmlns="http://www.w3.org/2000/svg"
   xmlns:svg="http://www.w3.org/2000/svg">
  <sodipodi:namedview
     id="namedview7"
     pagecolor="#ffffff"
     bordercolor="#666666"
     borderopacity="1.0"
     inkscape:pageshadow="2"
     inkscape:pageopacity="0.0"
     inkscape:pagecheckerboard="0"
     inkscape:document-units="mm"
     showgrid="false"
     inkscape:zoom="0.62270623"
     inkscape:cx="-311.54337"
     inkscape:cy="339.64651"
     inkscape:window-width="1680"
     inkscape:window-height="956"
     inkscape:window-x="-11"
     inkscape:window-y="-11"
     inkscape:window-maximized="1"
     inkscape:current-layer="layer4"
     inkscape:showpageshadow="2"
     inkscape:deskcolor="#d1d1d1" />
  <defs
     id="defs2" />
  <g
     inkscape:label="Layer 1"
     inkscape:groupmode="layer"
     id="layer1">
    <path
       id="rect1115"
       style="fill:none;fill-rule:evenodd;stroke:#000000;stroke-width:0.670264;stroke-linecap:round;stroke-linejoin:round;paint-order:stroke markers fill"
       d="m 14.833482,9.8065703 h 33.41905 c 4.785605,0 8.638268,0.4467847 8.638268,1.0017617 v 4.320833 c 0,0.554977 -3.852663,1.001763 -8.638268,1.001763 h -33.41905 c -4.785601,0 -8.638269,-0.446786 -8.638269,-1.001763 v -4.320833 c 0,-0.554977 3.852668,-1.0017617 8.638269,-1.0017617 z m 0,21.6183027 h 33.41905 c 4.785605,0 8.638268,0.446788 8.638268,1.001762 v 4.320833 c 0,0.554974 -3.852663,1.001762 -8.638268,1.001762 h -33.41905 c -4.785601,0 -8.638269,-0.446788 -8.638269,-1.001762 v -4.320833 c 0,-0.554974 3.852668,-1.001762 8.638269,-1.001762 z m 38.872039,-7.159807 a 4.8071984,3.3013019 0 0 1 -4.807195,3.301302 4.8071984,3.3013019 0 0 1 -4.807202,-3.301302 4.8071984,3.3013019 0 0 1 4.807202,-3.301302 4.8071984,3.3013019 0 0 1 4.807195,3.301302 z m -10.727084,0 a 4.8071984,3.3013019 0 0 1 -4.807202,3.301302 4.8071984,3.3013019 0 0 1 -4.807199,-3.301302 4.8071984,3.3013019 0 0 1 4.807199,-3.301302 4.8071984,3.3013019 0 0 1 4.807202,3.301302 z m -12.872608,0 a 4.8071984,3.3013019 0 0 1 -4.807196,3.301302 4.8071984,3.3013019 0 0 1 -4.807199,-3.301302 4.8071984,3.3013019 0 0 1 4.807199,-3.301302 4.8071984,3.3013019 0 0 1 4.807196,3.301302 z m -12.259606,0 a 4.8071984,3.3013019 0 0 1 -4.807198,3.301302 4.8071984,3.3013019 0 0 1 -4.807199,-3.301302 4.8071984,3.3013019 0 0 1 4.807199,-3.301302 4.8071984,3.3013019 0 0 1 4.807198,3.301302 z M 12.864721,16.15346 H 48.74472 c 4.785605,0 8.638275,0.446786 8.638275,1.001762 v 13.067285 c 0,0.554974 -3.85267,1.001762 -8.638275,1.001762 H 12.864721 c -4.785601,0 -8.638269,-0.446788 -8.638269,-1.001762 V 17.155222 c 0,-0.554976 3.852668,-1.001762 8.638269,-1.001762 z"
       inkscape:label="Outline" />
  </g>
  <g
     inkscape:groupmode="layer"
     id="layer2"
     inkscape:label="Layer 2">
    <g
       id="g387"
       inkscape:label="black"
       transform="translate(67.133047,-12.321888)">
      <path
         id="path293"
         style="fill:none;fill-rule:evenodd;stroke:#000000;stroke-width:0.670264;stroke-linecap:round;stroke-linejoin:round;paint-order:stroke markers fill"
         d="m 91.03353,21.448244 h 33.41919 c 4.78563,0 8.63831,0.446785 8.63831,1.001762 v 4.320833 c 0,0.554977 -3.85268,1.001763 -8.63831,1.001763 H 91.03353 c -4.785601,0 -8.638271,-0.446786 -8.638271,-1.001763 v -4.320833 c 0,-0.554977 3.85267,-1.001762 8.638271,-1.001762 z m 0,21.618303 h 33.41919 c 4.78563,0 8.63831,0.446788 8.63831,1.001762 v 4.320833 c 0,0.554974 -3.85268,1.001762 -8.63831,1.001762 H 91.03353 c -4.785601,0 -8.638271,-0.446788 -8.638271,-1.001762 v -4.320833 c 0,-0.554974 3.85267,-1.001762 8.638271,-1.001762 z m 38.87221,-7.159807 a 4.8071984,3.3013019 0 0 1 -4.80723,3.301302 4.8071984,3.3013019 0 0 1 -4.80722,-3.301302 4.8071984,3.3013019 0 0 1 4.80722,-3.301302 4.8071984,3.3013019 0 0 1 4.80723,3.301302 z m -10.72715,0 a 4.8071984,3.3013019 0 0 1 -4.80723,3.301302 4.8071984,3.3013019 0 0 1 -4.80722,-3.301302 4.8071984,3.3013019 0 0 1 4.80722,-3.301302 4.8071984,3.3013019 0 0 1 4.80723,3.301302 z m -12.87268,0 a 4.8071984,3.3013019 0 0 1 -4.80722,3.301302 4.8071984,3.3013019 0 0 1 -4.807208,-3.301302 4.8071984,3.3013019 0 0 1 4.807208,-3.301302 4.8071984,3.3013019 0 0 1 4.80722,3.301302 z m -12.259639,0 a 4.8071984,3.3013019 0 0 1 -4.807198,3.301302 4.8071984,3.3013019 0 0 1 -4.8072,-3.301302 4.8071984,3.3013019 0 0 1 4.8072,-3.301302 4.8071984,3.3013019 0 0 1 4.807198,3.301302 z m -4.981502,-8.111606 h 35.880141 c 4.78563,0 8.63832,0.446786 8.63832,1.001762 v 13.067285 c 0,0.554974 -3.85269,1.001762 -8.63832,1.001762 H 89.064769 c -4.785602,0 -8.638272,-0.446788 -8.638272,-1.001762 V 28.796896 c 0,-0.554976 3.85267,-1.001762 8.638272,-1.001762 z"
         inkscape:label="Outline" />
      <path
         style="fill:#000000;fill-rule:evenodd;stroke:#000000;stroke-width:9.4988;stroke-linecap:round;stroke-linejoin:round;paint-order:stroke markers fill"
         d="m 319.97432,183.50793 -6.02211,-0.62993 v -7.74523 c 0,-6.67459 0.49948,-7.87909 3.61327,-8.71355 4.71807,-1.26439 174.33907,-1.26439 179.05714,0 3.10326,0.83164 3.61326,2.04366 3.61326,8.5868 v 7.61849 l -8.43094,1.01267 c -8.88372,1.06706 -161.49137,0.95227 -171.83062,-0.12925 z"
         id="path366"
         transform="scale(0.26458333)" />
      <path
         style="fill:#000000;fill-rule:evenodd;stroke:#000000;stroke-width:9.4988;stroke-linecap:round;stroke-linejoin:round;paint-order:stroke markers fill"
         d="m 319.17137,101.6155 c -5.07541,-0.62985 -5.21916,-0.86051 -5.21916,-8.374677 0,-7.369508 0.23217,-7.773418 5.01842,-8.730668 6.54872,-1.309744 169.69811,-1.309744 176.24683,0 4.77347,0.954694 5.01842,1.375144 5.01842,8.614136 v 7.610449 l -7.45065,1.02123 c -7.91297,1.08459 -164.76484,0.95768 -173.61386,-0.14047 z"
         id="path368"
         transform="scale(0.26458333)" />
      <path
         style="fill:#000000;fill-rule:evenodd;stroke:#000000;stroke-width:9.4988;stroke-linecap:round;stroke-linejoin:round;paint-order:stroke markers fill"
         d="m 463.00913,143.66968 c -7.81519,-4.24352 -7.62138,-11.90938 0.40605,-16.06053 7.91573,-4.09338 20.83758,-1.78549 24.09642,4.3037 5.25547,9.81995 -12.43602,18.30872 -24.50247,11.75683 z"
         id="path370"
         transform="scale(0.26458333)" />
      <path
         style="fill:#000000;fill-rule:evenodd;stroke:#000000;stroke-width:9.4988;stroke-linecap:round;stroke-linejoin:round;paint-order:stroke markers fill"
         d="m 421.94856,143.03616 c -13.17955,-8.27315 2.1668,-22.21554 17.87778,-16.24224 2.21941,0.84382 5.27229,3.42212 6.78418,5.72955 2.6674,4.07097 2.62789,4.31632 -1.33289,8.2771 -5.65788,5.65788 -16.25883,6.67375 -23.32907,2.23559 z"
         id="path372"
         transform="scale(0.26458333)" />
      <path
         style="fill:#000000;fill-rule:evenodd;stroke:#000000;stroke-width:9.4988;stroke-linecap:round;stroke-linejoin:round;paint-order:stroke markers fill"
         d="m 375.14959,144.10528 c -2.11272,-1.09103 -4.85731,-3.52908 -6.09909,-5.4179 -2.02225,-3.07597 -1.8673,-3.88815 1.48547,-7.78598 7.777,-9.0413 28.52861,-5.55226 28.52861,4.79662 0,7.92789 -14.78102,13.12413 -23.91499,8.40726 z"
         id="path374"
         transform="scale(0.26458333)" />
      <path
         style="fill:#000000;fill-rule:evenodd;stroke:#000000;stroke-width:9.4988;stroke-linecap:round;stroke-linejoin:round;paint-order:stroke markers fill"
         d="m 330.01115,145.08179 c -12.85672,-5.17965 -9.47341,-17.83298 5.15399,-19.27555 7.6081,-0.75031 13.34669,1.60314 16.83062,6.90241 2.02226,3.07597 1.8673,3.88815 -1.48547,7.78598 -2.79473,3.24907 -5.56094,4.50455 -10.91676,4.9547 -3.94545,0.33161 -8.25752,0.16622 -9.58238,-0.36754 z"
         id="path376"
         transform="scale(0.26458333)" />
    </g>
  </g>
  <g
     inkscape:groupmode="layer"
     id="layer3"
     inkscape:label="Layer 3">
    <path
       id="path300"
       style="fill:none;fill-rule:evenodd;stroke:#4d4d4d;stroke-width:1.87;stroke-linecap:round;stroke-linejoin:round;paint-order:stroke markers fill;stroke-dasharray:none"
       d="m 95.563096,64.192836 h 33.419054 c 4.7856,0 8.63826,0.446785 8.63826,1.001762 v 4.320833 c 0,0.554977 -3.85266,1.001763 -8.63826,1.001763 H 95.563096 c -4.785601,0 -8.638269,-0.446786 -8.638269,-1.001763 v -4.320833 c 0,-0.554977 3.852668,-1.001762 8.638269,-1.001762 z m 0,21.618303 h 33.419054 c 4.7856,0 8.63826,0.446788 8.63826,1.001762 v 4.320833 c 0,0.554974 -3.85266,1.001762 -8.63826,1.001762 H 95.563096 c -4.785601,0 -8.638269,-0.446788 -8.638269,-1.001762 v -4.320833 c 0,-0.554974 3.852668,-1.001762 8.638269,-1.001762 z m 38.872034,-7.159807 a 4.8071984,3.3013019 0 0 1 -4.80719,3.301302 4.8071984,3.3013019 0 0 1 -4.8072,-3.301302 4.8071984,3.3013019 0 0 1 4.8072,-3.301302 4.8071984,3.3013019 0 0 1 4.80719,3.301302 z m -10.72708,0 a 4.8071984,3.3013019 0 0 1 -4.8072,3.301302 4.8071984,3.3013019 0 0 1 -4.8072,-3.301302 4.8071984,3.3013019 0 0 1 4.8072,-3.301302 4.8071984,3.3013019 0 0 1 4.8072,3.301302 z m -12.87261,0 a 4.8071984,3.3013019 0 0 1 -4.80719,3.301302 4.8071984,3.3013019 0 0 1 -4.8072,-3.301302 4.8071984,3.3013019 0 0 1 4.8072,-3.301302 4.8071984,3.3013019 0 0 1 4.80719,3.301302 z m -12.259603,0 a 4.8071984,3.3013019 0 0 1 -4.807198,3.301302 4.8071984,3.3013019 0 0 1 -4.807199,-3.301302 4.8071984,3.3013019 0 0 1 4.807199,-3.301302 4.8071984,3.3013019 0 0 1 4.807198,3.301302 z m -4.981502,-8.111606 h 35.879995 c 4.78561,0 8.63828,0.446786 8.63828,1.001762 v 13.067285 c 0,0.554974 -3.85267,1.001762 -8.63828,1.001762 H 93.594335 c -4.785601,0 -8.638269,-0.446788 -8.638269,-1.001762 V 71.541488 c 0,-0.554976 3.852668,-1.001762 8.638269,-1.001762 z"
       inkscape:label="Gray" />
  </g>
  <g
     inkscape:groupmode="layer"
     id="layer4"
     inkscape:label="Layer 4">
    <path
       id="path301"
       style="fill:#ffffff;fill-rule:evenodd;stroke:#000000;stroke-width:3.17;stroke-linecap:round;stroke-linejoin:round;paint-order:stroke markers fill;stroke-dasharray:none"
       d="m 24.181121,104.55764 h 33.41905 c 4.785605,0 8.638268,0.44679 8.638268,1.00176 v 4.32084 c 0,0.55497 -3.852663,1.00176 -8.638268,1.00176 h -33.41905 c -4.785601,0 -8.638269,-0.44679 -8.638269,-1.00176 v -4.32084 c 0,-0.55497 3.852668,-1.00176 8.638269,-1.00176 z m 0,21.61831 h 33.41905 c 4.785605,0 8.638268,0.44678 8.638268,1.00176 v 4.32083 c 0,0.55497 -3.852663,1.00176 -8.638268,1.00176 h -33.41905 c -4.785601,0 -8.638269,-0.44679 -8.638269,-1.00176 v -4.32083 c 0,-0.55498 3.852668,-1.00176 8.638269,-1.00176 z m 38.872039,-7.15981 a 4.8071984,3.3013019 0 0 1 -4.807195,3.3013 4.8071984,3.3013019 0 0 1 -4.807202,-3.3013 4.8071984,3.3013019 0 0 1 4.807202,-3.3013 4.8071984,3.3013019 0 0 1 4.807195,3.3013 z m -10.727084,0 a 4.8071984,3.3013019 0 0 1 -4.807202,3.3013 4.8071984,3.3013019 0 0 1 -4.807199,-3.3013 4.8071984,3.3013019 0 0 1 4.807199,-3.3013 4.8071984,3.3013019 0 0 1 4.807202,3.3013 z m -12.872608,0 a 4.8071984,3.3013019 0 0 1 -4.807196,3.3013 4.8071984,3.3013019 0 0 1 -4.807199,-3.3013 4.8071984,3.3013019 0 0 1 4.807199,-3.3013 4.8071984,3.3013019 0 0 1 4.807196,3.3013 z m -12.259606,0 a 4.8071984,3.3013019 0 0 1 -4.807198,3.3013 4.8071984,3.3013019 0 0 1 -4.807199,-3.3013 4.8071984,3.3013019 0 0 1 4.807199,-3.3013 4.8071984,3.3013019 0 0 1 4.807198,3.3013 z m -4.981502,-8.11161 h 35.879999 c 4.785605,0 8.638275,0.44679 8.638275,1.00176 v 13.06729 c 0,0.55497 -3.85267,1.00176 -8.638275,1.00176 H 22.21236 c -4.785601,0 -8.638269,-0.44679 -8.638269,-1.00176 v -13.06729 c 0,-0.55497 3.852668,-1.00176 8.638269,-1.00176 z"
       inkscape:label="White" />
  </g>
  <g
     inkscape:groupmode="layer"
     id="layer5"
     inkscape:label="Layer 5" />
</svg>
