<?xml version="1.0" encoding="UTF-8" standalone="no"?>
<!-- Created with Inkscape (http://www.inkscape.org/) -->

<svg
   width="210mm"
   height="297mm"
   viewBox="0 0 210 297"
   version="1.1"
   id="svg5"
   inkscape:version="1.2.2 (b0a8486541, 2022-12-01)"
   sodipodi:docname="strings icon.svg"
   xmlns:inkscape="http://www.inkscape.org/namespaces/inkscape"
   xmlns:sodipodi="http://sodipodi.sourceforge.net/DTD/sodipodi-0.dtd"
   xmlns="http://www.w3.org/2000/svg"
   xmlns:svg="http://www.w3.org/2000/svg">
  <sodipodi:namedview
     id="namedview7"
     pagecolor="#ffffff"
     bordercolor="#666666"
     borderopacity="1.0"
     inkscape:pageshadow="2"
     inkscape:pageopacity="0.0"
     inkscape:pagecheckerboard="0"
     inkscape:document-units="mm"
     showgrid="false"
     inkscape:zoom="0.62270623"
     inkscape:cx="67.447535"
     inkscape:cy="710.60795"
     inkscape:window-width="1680"
     inkscape:window-height="956"
     inkscape:window-x="-11"
     inkscape:window-y="-11"
     inkscape:window-maximized="1"
     inkscape:current-layer="layer4"
     inkscape:showpageshadow="2"
     inkscape:deskcolor="#d1d1d1"
     showguides="false" />
  <defs
     id="defs2">
    <inkscape:path-effect
       effect="bend_path"
       id="path-effect2154"
       is_visible="true"
       lpeversion="1"
       bendpath="m 45.799133,60.972102 c 3.544387,64.875038 101.433157,-61.87939548 121.697887,0"
       prop_scale="0.75838293"
       scale_y_rel="false"
       vertical="false"
       hide_knot="false"
       bendpath-nodetypes="cc" />
    <inkscape:path-effect
       effect="spiro"
       id="path-effect2085"
       is_visible="true"
       lpeversion="1" />
    <inkscape:path-effect
       effect="spiro"
       id="path-effect993"
       is_visible="true"
       lpeversion="1" />
    <inkscape:path-effect
       effect="spiro"
       id="path-effect989"
       is_visible="true"
       lpeversion="1" />
    <inkscape:path-effect
       effect="spiro"
       id="path-effect985"
       is_visible="true"
       lpeversion="1" />
    <inkscape:path-effect
       effect="spiro"
       id="path-effect979"
       is_visible="true"
       lpeversion="1" />
    <inkscape:path-effect
       effect="spiro"
       id="path-effect419"
       is_visible="true"
       lpeversion="1" />
  </defs>
  <g
     inkscape:label="Layer 1"
     inkscape:groupmode="layer"
     id="layer1">
    <path
       id="path2257"
       style="fill:none;fill-rule:evenodd;stroke:#000000;stroke-width:0.51717;stroke-linecap:round;stroke-linejoin:round;stroke-dasharray:none;paint-order:stroke markers fill"
       d="m 30.733506,58.884554 c 1.06111,0.40191 1.865315,0.950005 2.673167,1.52219 1.531276,1.135656 2.680514,2.439092 3.915671,3.738536 v 0 c 1.267185,1.340396 2.579625,2.6925 4.382551,3.889007 v 0 c 1.416927,0.963568 3.205274,1.85289 5.996697,2.360118 0.268683,0.04887 0.546394,0.09318 0.833348,0.132945 1.458818,0.202494 3.234519,0.250224 5.350339,0.102628 2.168241,-0.151869 4.63957,-0.546805 7.176425,-1.117012 3.190427,-0.727967 6.157264,-1.655345 8.520694,-2.502854 0,0 0,0 0,0 6.17119,-2.21686 8.746656,-3.741339 8.312131,-3.883814 -0.434526,-0.14248 -3.992075,1.14947 -8.780498,2.502315 0,0 0,0 0,0 -1.779864,0.502549 -3.820282,1.026194 -5.602159,1.337805 -1.446085,0.262152 -2.854629,0.416221 -4.180325,0.46387 -1.333955,0.04941 -2.510943,-0.03421 -3.67247,-0.195627 -0.232525,-0.0324 -0.460043,-0.06814 -0.683206,-0.107297 -2.318278,-0.406491 -3.860815,-1.212806 -5.259278,-2.111093 v 0 C 48.011358,63.892777 46.74631,62.579833 45.476231,61.244763 l 1.1e-5,-3e-6 c -1.220357,-1.289814 -2.402722,-2.622414 -4.015065,-3.826023 -0.780752,-0.609952 -1.695961,-1.212606 -3.006179,-1.685873 -0.799343,-0.288734 -1.742402,-0.511113 -2.8616,-0.652956 -1.223455,-0.16302 -2.833474,-0.168387 -4.859546,0.04948 -2.054772,0.228348 -4.421192,0.741201 -6.748539,1.416051 -3.077284,0.917301 -5.575255,1.918747 -7.369119,2.734196 0,0 -6e-6,4e-6 -6e-6,4e-6 -5.443042,2.458694 -7.074506,3.825429 -6.386592,3.849076 0.883868,0.03037 3.718135,-1.344948 8.534276,-3.091578 0,0 0,0 0,0 1.486165,-0.53262 3.200598,-1.120358 4.50412,-1.418309 0.925204,-0.226598 1.887295,-0.376888 2.704669,-0.4287 0.94034,-0.07126 1.736936,0.0041 2.605835,0.13185 0.807566,0.12584 1.506947,0.317118 2.15501,0.562573 z M 21.055612,47.996896 c 2.212971,0.401912 4.587991,0.950006 7.035699,1.52219 4.786022,1.135657 9.670852,2.439092 14.630166,3.738538 h -10e-7 c 5.108696,1.340393 10.296225,2.692502 15.528288,3.889008 v 0 c 4.178478,0.96357 8.515579,1.85289 12.760688,2.360114 0.408609,0.04883 0.813443,0.09318 1.214372,0.132951 2.039156,0.202491 3.951639,0.250218 5.644467,0.102628 1.732976,-0.151875 3.072442,-0.54681 3.975112,-1.117013 1.104095,-0.727971 1.413105,-1.655348 1.347608,-2.50286 0,0 0,0 0,0 -0.182231,-2.216856 -1.97586,-3.741336 -2.818713,-3.883812 -0.842868,-0.142478 -0.697742,1.149471 -1.608961,2.502317 0,0 0,0 0,0 -0.339599,0.502544 -0.879257,1.026192 -1.768074,1.337804 -0.694768,0.262152 -1.661756,0.41622 -2.850886,0.463871 -1.192377,0.04941 -2.609047,-0.03423 -4.23313,-0.195627 -0.325255,-0.03235 -0.655409,-0.06816 -0.990707,-0.107296 -3.483283,-0.406496 -7.336672,-1.212806 -11.309588,-2.111096 v 0 C 52.686829,53.005121 47.658935,51.692176 42.5626,50.357106 l 10e-7,-3e-6 c -4.916908,-1.289814 -9.91845,-2.622414 -14.980289,-3.826023 -2.528847,-0.609952 -5.171235,-1.212605 -7.837819,-1.685873 -1.62684,-0.288733 -3.20723,-0.511113 -4.732946,-0.652957 -1.690663,-0.16302 -3.316066,-0.168387 -4.717732,0.04948 -1.400336,0.228347 -2.296943,0.741199 -2.6901997,1.416049 -0.4483346,0.917303 -0.076206,1.918748 0.4669783,2.734198 0,0 3.9e-6,4e-6 3.9e-6,4e-6 1.6034744,2.458693 3.8890175,3.825429 4.6447005,3.849075 0.970917,0.03038 -0.13643,-1.344948 -0.326059,-3.091577 10e-7,0 10e-7,0 10e-7,0 -0.0403,-0.532621 -0.0103,-1.120358 0.439305,-1.41831 0.275782,-0.226599 0.807151,-0.376888 1.476033,-0.428701 0.736121,-0.07126 1.748881,0.0041 2.98371,0.13185 1.168219,0.12584 2.415796,0.317119 3.767324,0.562574 z m 9.929777,-24.464443 c 1.684039,-0.40191 3.337744,-0.950003 5.032435,-1.522189 3.291452,-1.135658 6.460909,-2.439093 9.710099,-3.738537 l -10e-7,-10e-7 c 3.344687,-1.340393 6.752789,-2.692503 10.4102,-3.889007 v -10e-7 c 2.910382,-0.963568 6.077101,-1.852888 9.654683,-2.360113 0.344358,-0.04883 0.690813,-0.09318 1.039403,-0.132951 1.772668,-0.202492 3.622346,-0.250218 5.509406,-0.102629 1.93285,0.151877 3.792065,0.54681 5.445145,1.117014 2.062135,0.727972 3.591613,1.655349 4.641473,2.502858 0,0 0,0 0,10e-7 2.73524,2.216856 2.94789,3.741335 2.29254,3.883813 -0.65536,0.142477 -2.210493,-1.14947 -4.902109,-2.502317 0,0 0,0 0,0 -1.000969,-0.502544 -2.229769,-1.026194 -3.52868,-1.337804 -1.039772,-0.262152 -2.20952,-0.416221 -3.461359,-0.463873 -1.25739,-0.0494 -2.563999,0.03423 -3.975674,0.19563 -0.282677,0.03237 -0.565698,0.06816 -0.849505,0.107295 -2.948316,0.406494 -5.740572,1.212807 -8.531299,2.111094 v 0 c -3.44656,1.123494 -6.746571,2.436438 -10.085901,3.77151 l 6e-6,10e-7 c -3.219462,1.289816 -6.467249,2.622413 -9.945089,3.826023 -1.726127,0.609951 -3.575398,1.212608 -5.619142,1.685875 -1.246856,0.288733 -2.534585,0.511113 -3.87363,0.652956 -1.476122,0.163019 -3.094461,0.168387 -4.782851,-0.04949 -1.700851,-0.228349 -3.272393,-0.7412 -4.553779,-1.416053 -1.65554,-0.917302 -2.601352,-1.918748 -3.131335,-2.734198 0,0 -1e-6,-1e-6 -1e-6,-1e-6 -1.632265,-2.458693 -1.145402,-3.825427 -0.420838,-3.849077 0.930943,-0.03038 1.633574,1.34495 3.74258,3.091579 0,0 1e-6,1e-6 1e-6,1e-6 0.660644,0.532618 1.464135,1.120357 2.305857,1.418307 0.573995,0.226598 1.303151,0.376888 2.040219,0.428701 0.829898,0.07126 1.743396,-0.0041 2.810192,-0.13185 1.002607,-0.12584 1.998454,-0.317118 3.026954,-0.562574 z m 1.221375,-9.435971 c 1.319689,-0.401909 2.47652,-0.950003 3.652496,-1.522189 2.261919,-1.135658 4.249746,-2.439095 6.320924,-3.7385379 l -10e-7,-8e-7 c 2.129549,-1.3403928 4.311901,-2.6925026 6.884614,-3.8890068 v -1e-6 c 2.036857,-0.9635686 4.397363,-1.8528889 7.515119,-2.3601143 0.300101,-0.048825 0.606341,-0.093179 0.918883,-0.1329498 1.589096,-0.202492 3.39551,-0.2502184 5.416364,-0.1026293 2.070533,0.151877 4.287771,0.5468103 6.457781,1.117014 2.722071,0.7279716 5.09226,1.6553491 6.910437,2.502859 0,0 0,0 0,9e-7 4.744932,2.2168555 6.33959,3.7413347 5.813406,3.8838124 -0.526189,0.1424768 -3.252543,-1.1494705 -7.170585,-2.5023179 0,0 0,0 0,0 C 73.469651,6.8498776 71.76614,6.3262282 70.184735,6.0146179 68.907307,5.7524661 67.597895,5.5983971 66.302854,5.550745 65.000678,5.50135 63.769889,5.5849726 62.504529,5.7463753 62.2512,5.7787471 62.000629,5.8145401 61.752295,5.8536701 59.172484,6.2601638 57.11119,7.066477 55.134805,7.964764 v 1e-6 c -2.428055,1.1234927 -4.537819,2.436438 -6.666827,3.77151 l 6e-6,1e-6 c -2.050184,1.289815 -4.089903,2.622414 -6.476604,3.826025 -1.173176,0.609952 -2.476113,1.212607 -4.090814,1.685876 -0.985103,0.288733 -2.071239,0.511111 -3.281691,0.652957 -1.328337,0.163019 -2.941813,0.168385 -4.827711,-0.04948 -1.90786,-0.228349 -3.944327,-0.7412 -5.837501,-1.416053 -2.487124,-0.917303 -4.340795,-1.918748 -5.610027,-2.734199 0,0 -1e-6,-10e-7 -1e-6,-10e-7 -3.861195,-2.458694 -4.613345,-3.8254302 -3.91022,-3.849079 0.903399,-0.030377 2.852839,1.344951 6.545252,3.091581 0,0 2e-6,0 2e-6,0 1.143489,0.532618 2.479795,1.120356 3.591622,1.418307 0.779417,0.226598 1.644817,0.376887 2.428863,0.428703 0.89449,0.07125 1.73961,-0.0041 2.69066,-0.131852 0.888524,-0.125841 1.710975,-0.317116 2.51695,-0.562575 z M 17.443378,30.489313 c -7.8546402,0 -14.1780629,1.877575 -14.1780629,4.209864 0,2.33229 6.3234227,4.210042 14.1780629,4.210042 4.648219,0 8.759747,-0.657815 11.342333,-1.678015 2.582574,1.020248 6.694281,1.678015 11.342621,1.678015 4.661193,0 8.78295,-0.661379 11.364179,-1.686488 2.500716,1.18856 6.942583,1.976748 12.029493,1.976748 4.648219,0 8.759753,-0.657811 11.342333,-1.678015 2.58258,1.020248 6.694281,1.678015 11.342623,1.678015 7.854638,0 14.17806,-1.877748 14.17806,-4.210042 0,-2.332289 -6.323422,-4.20986 -14.17806,-4.20986 -4.648331,0 -8.760043,0.657593 -11.342623,1.677836 -2.582586,-1.020199 -6.694125,-1.677836 -11.342333,-1.677836 -4.661194,0 -8.78295,0.661248 -11.364172,1.68631 -2.5007,-1.188536 -6.942524,-1.976574 -12.0295,-1.976574 -4.648331,0 -8.760047,0.657593 -11.342621,1.677837 -2.582587,-1.020196 -6.694124,-1.677837 -11.342333,-1.677837 z"
       inkscape:label="outline" />
  </g>
  <g
     inkscape:groupmode="layer"
     id="layer2"
     inkscape:label="Layer 2">
    <path
       id="path2273"
       style="fill:#000000;fill-rule:evenodd;stroke:#000000;stroke-width:0.499526;stroke-linecap:round;stroke-linejoin:round;stroke-dasharray:none;paint-order:stroke markers fill"
       d="m 139.03044,57.909412 c 1.01488,0.392035 1.78404,0.926663 2.5567,1.484788 1.46456,1.107751 2.56374,2.37916 3.74508,3.646676 v 0 c 1.21198,1.30746 2.46723,2.626342 4.19161,3.793449 v 0 c 1.35519,0.939892 3.06563,1.807361 5.73543,2.302126 0.25698,0.04767 0.52259,0.09089 0.79705,0.129679 1.39526,0.197519 3.09359,0.244076 5.11724,0.100106 2.07377,-0.148137 4.43743,-0.533369 6.86375,-1.089565 3.05144,-0.710081 5.88902,-1.614671 8.14948,-2.441356 0,0 0,0 0,0 5.90232,-2.162389 8.36558,-3.649409 7.94998,-3.788384 -0.41559,-0.138979 -3.81814,1.121227 -8.39795,2.44083 0,0 0,0 0,0 -1.70232,0.490201 -3.65384,1.000979 -5.35809,1.304934 -1.38307,0.255711 -2.73025,0.405994 -3.99819,0.452471 -1.27584,0.0482 -2.40154,-0.03337 -3.51247,-0.190819 -0.2224,-0.0316 -0.44,-0.06647 -0.65344,-0.104661 -2.21728,-0.396503 -3.69261,-1.183006 -5.03014,-2.059221 v 0 c -1.63094,-1.095888 -2.84087,-2.376571 -4.05562,-3.678837 l 10e-6,-3e-6 c -1.16719,-1.258122 -2.29805,-2.557978 -3.84014,-3.732012 -0.74674,-0.594965 -1.62207,-1.182812 -2.87521,-1.644449 -0.76451,-0.28164 -1.66648,-0.498555 -2.73693,-0.636913 -1.17014,-0.159014 -2.71002,-0.164249 -4.64782,0.04827 -1.96525,0.222737 -4.22857,0.722988 -6.45452,1.381256 -2.94321,0.894763 -5.33236,1.871602 -7.04806,2.667014 0,0 -10e-6,4e-6 -10e-6,4e-6 -5.2059,2.39828 -6.76628,3.731433 -6.10834,3.754499 0.84535,0.02962 3.55614,-1.311901 8.16245,-3.015614 0,0 0,0 0,0 1.42143,-0.519533 3.06117,-1.092829 4.30789,-1.383459 0.88489,-0.221031 1.80507,-0.367628 2.58683,-0.418167 0.89938,-0.06951 1.66127,0.004 2.49231,0.12861 0.77238,0.122748 1.44129,0.309327 2.06112,0.54875 z m -9.25625,-10.620134 c 2.11656,0.392036 4.3881,0.926663 6.72917,1.484788 4.57751,1.107752 9.24951,2.37916 13.99277,3.646677 v 0 c 4.88611,1.307458 9.84764,2.626344 14.85175,3.79345 v 0 c 3.99643,0.939894 8.14457,1.807362 12.20473,2.302123 0.39081,0.04763 0.77801,0.09089 1.16147,0.129684 1.95031,0.197516 3.77947,0.24407 5.39855,0.100107 1.65747,-0.148143 2.93858,-0.533374 3.80192,-1.089567 1.05599,-0.710084 1.35154,-1.614674 1.2889,-2.441361 0,0 0,0 0,0 -0.17429,-2.162386 -1.88978,-3.649407 -2.69591,-3.788382 -0.80614,-0.138977 -0.66734,1.121227 -1.53886,2.440832 0,0 0,0 0,0 -0.32481,0.490196 -0.84095,1.000977 -1.69105,1.304932 -0.66449,0.255711 -1.58935,0.405993 -2.72668,0.452473 -1.14042,0.04819 -2.49537,-0.03339 -4.04869,-0.19082 -0.31109,-0.03156 -0.62686,-0.06649 -0.94755,-0.104659 -3.33153,-0.396508 -7.01703,-1.183006 -10.81685,-2.059224 v 0 c -4.71055,-1.095887 -9.5194,-2.376571 -14.3937,-3.678837 l 1e-5,-2e-6 c -4.70269,-1.258122 -9.48633,-2.557979 -14.32764,-3.732013 -2.41866,-0.594965 -4.94593,-1.18281 -7.49633,-1.644449 -1.55597,-0.281639 -3.0675,-0.498554 -4.52674,-0.636913 -1.61701,-0.159014 -3.1716,-0.164249 -4.5122,0.04827 -1.33932,0.222736 -2.19687,0.722987 -2.57299,1.381255 -0.42881,0.894763 -0.0729,1.871602 0.44663,2.667015 0,0 1e-5,4e-6 1e-5,4e-6 1.53361,2.398279 3.71958,3.731433 4.44233,3.754498 0.92862,0.02963 -0.13048,-1.311901 -0.31185,-3.015613 0,0 0,0 0,0 -0.0385,-0.519534 -0.01,-1.092829 0.42016,-1.38346 0.26378,-0.221031 0.77199,-0.367627 1.41173,-0.418167 0.70405,-0.06951 1.67269,0.004 2.85372,0.12861 1.11732,0.122748 2.31055,0.309327 3.60319,0.548751 z m 9.49716,-23.86332 c 1.61067,-0.392035 3.19232,-0.926661 4.81318,-1.484787 3.14805,-1.107754 6.17942,-2.379162 9.28705,-3.646677 v -1e-6 c 3.19897,-1.307458 6.45859,-2.626345 9.95665,-3.793449 v -1e-6 c 2.78359,-0.939892 5.81234,-1.80736 9.23406,-2.302123 0.32935,-0.04763 0.66071,-0.09089 0.99411,-0.129683 1.69544,-0.197517 3.46454,-0.24407 5.26938,-0.100108 1.84864,0.148146 3.62685,0.533375 5.20791,1.089568 1.97229,0.710084 3.43513,1.614675 4.43925,2.44136 0,0 0,0 0,10e-7 2.61608,2.162385 2.81946,3.649405 2.19266,3.788382 -0.6268,0.138976 -2.11419,-1.121226 -4.68853,-2.440832 0,0 0,0 0,0 -0.95736,-0.490196 -2.13262,-1.000978 -3.37495,-1.304932 -0.99447,-0.255711 -2.11325,-0.405994 -3.31055,-0.452475 -1.20261,-0.04818 -2.45229,0.03339 -3.80246,0.190823 -0.27037,0.03158 -0.54106,0.06649 -0.81249,0.104658 -2.81987,0.396506 -5.49048,1.183007 -8.15962,2.059222 v 10e-7 c -3.2964,1.095888 -6.45263,2.376571 -9.64648,3.678838 l 1e-5,10e-7 c -3.0792,1.258124 -6.18548,2.557978 -9.51181,3.732013 -1.65092,0.594964 -3.41963,1.182813 -5.37433,1.644451 -1.19253,0.281639 -2.42415,0.498555 -3.70486,0.636913 -1.41181,0.159013 -2.95964,0.164249 -4.57447,-0.04827 -1.62675,-0.222738 -3.12983,-0.722987 -4.35538,-1.381258 -1.58341,-0.894763 -2.48803,-1.871602 -2.99492,-2.667015 0,0 0,-1e-6 0,-1e-6 -1.56115,-2.398281 -1.09549,-3.731433 -0.40249,-3.754501 0.89038,-0.02963 1.56239,1.311903 3.57952,3.015615 0,0 0,10e-7 0,10e-7 0.63186,0.519531 1.40034,1.092828 2.2054,1.383457 0.54898,0.221031 1.24637,0.367628 1.95132,0.418167 0.79375,0.06951 1.66745,-0.004 2.68776,-0.12861 0.95893,-0.122748 1.91138,-0.309326 2.89508,-0.548751 z m 1.16816,-9.204118 c 1.26219,-0.392034 2.36863,-0.92666 3.49337,-1.484787 2.16337,-1.107753 4.06459,-2.379163 6.04553,-3.6466774 v -8e-7 c 2.03677,-1.3074576 4.12404,-2.6263444 6.58467,-3.793449 v -9e-7 c 1.94812,-0.9398925 4.20578,-1.8073611 7.1877,-2.3021233 0.28703,-0.047625 0.57992,-0.09089 0.87885,-0.129683 1.51986,-0.1975166 3.24758,-0.2440703 5.18039,-0.1001076 1.98032,0.1481452 4.10096,0.5333744 6.17642,1.0895675 2.60348,0.7100844 4.87041,1.614675 6.60937,2.4413605 0,0 0,0 0,1e-6 4.5382,2.1623845 6.06339,3.6494056 5.56013,3.788382 -0.50326,0.138976 -3.11084,-1.1212264 -6.85818,-2.4408327 0,0 0,0 0,0 -1.39309,-0.4901956 -3.02239,-1.0009783 -4.53489,-1.304932 -1.22178,-0.2557104 -2.47413,-0.4059937 -3.71276,-0.452475 -1.24544,-0.048181 -2.4226,0.033387 -3.63283,0.1908235 -0.2423,0.031576 -0.48195,0.06649 -0.71947,0.1046584 -2.46741,0.3965057 -4.4389,1.1830067 -6.32918,2.0592216 v 1e-6 c -2.32227,1.0958871 -4.34011,2.3765712 -6.37636,3.6788402 v 10e-7 c -1.96086,1.258122 -3.91172,2.557977 -6.19444,3.732015 -1.12206,0.594964 -2.36823,1.182811 -3.91258,1.64445 -0.94219,0.281639 -1.98101,0.498553 -3.13872,0.636914 -1.27046,0.159013 -2.81365,0.164247 -4.61737,-0.04827 -1.82474,-0.222737 -3.77249,-0.722987 -5.58318,-1.381258 -2.37877,-0.894763 -4.15168,-1.871602 -5.36561,-2.667017 0,0 0,-10e-7 0,-10e-7 -3.69298,-2.39828 -4.41236,-3.731434 -3.73986,-3.754502 0.86403,-0.02963 2.72854,1.311904 6.26009,3.015617 0,0 0,0 0,0 1.09367,0.519532 2.37175,1.092828 3.43514,1.383458 0.74546,0.22103 1.57315,0.367626 2.32305,0.418169 0.85551,0.0695 1.66382,-0.004 2.57343,-0.128612 0.84981,-0.122749 1.63643,-0.309325 2.40729,-0.548751 z m -14.12018,15.990038 c -7.51243,0 -13.56035,1.831441 -13.56035,4.106423 0,2.274983 6.04792,4.106596 13.56035,4.106596 4.44571,0 8.3781,-0.641652 10.84818,-1.636784 2.47005,0.995179 6.40262,1.636784 10.84845,1.636784 4.45811,0 8.4003,-0.645128 10.86906,-1.645049 2.39177,1.159355 6.64011,1.928177 11.5054,1.928177 4.44571,0 8.37811,-0.641648 10.84817,-1.636784 2.47007,0.995179 6.40263,1.636784 10.84845,1.636784 7.51243,0 13.56034,-1.831609 13.56034,-4.106596 0,-2.274982 -6.04791,-4.106419 -13.56034,-4.106419 -4.44581,0 -8.37838,0.641435 -10.84845,1.63661 -2.47007,-0.995132 -6.40247,-1.63661 -10.84817,-1.63661 -4.45812,0 -8.40029,0.645 -10.86906,1.644875 -2.39175,-1.159331 -6.64005,-1.928007 -11.5054,-1.928007 -4.44582,0 -8.3784,0.641435 -10.84845,1.636611 -2.47008,-0.995129 -6.40248,-1.636611 -10.84818,-1.636611 z"
       inkscape:label="black" />
  </g>
  <g
     inkscape:groupmode="layer"
     id="layer3"
     inkscape:label="Layer 3">
    <path
       id="path2279"
       style="fill:none;fill-rule:evenodd;stroke:#4d4d4d;stroke-width:1.51195;stroke-linecap:round;stroke-linejoin:round;stroke-dasharray:none;paint-order:stroke markers fill"
       d="m 75.433416,150.1029 c 1.010835,0.39984 1.776938,0.94511 2.546515,1.51436 1.458727,1.1298 2.553517,2.42653 3.730153,3.7193 v 0 c 1.207149,1.3335 2.457407,2.67865 4.174913,3.869 v 0 c 1.349796,0.95862 3.053414,1.84336 5.712583,2.34798 0.255954,0.0486 0.520507,0.0927 0.793865,0.13225 1.389702,0.20146 3.081272,0.24894 5.096832,0.10211 2.065517,-0.15109 4.419763,-0.544 6.836423,-1.11127 3.03929,-0.72421 5.86557,-1.64683 8.11705,-2.48998 0,0 0,0 0,0 5.87883,-2.20546 8.33229,-3.7221 7.91836,-3.86383 -0.41394,-0.14175 -3.80297,1.14355 -8.36454,2.48944 0,0 0,0 0,0 -1.69555,0.49997 -3.63931,1.02092 -5.33677,1.33092 -1.37758,0.26081 -2.7194,0.41409 -3.98228,0.46149 -1.27075,0.0492 -2.39198,-0.0341 -3.498479,-0.19462 -0.221511,-0.0322 -0.438247,-0.0678 -0.650834,-0.10674 -2.208444,-0.40441 -3.677887,-1.20658 -5.010093,-2.10024 v 0 c -1.624444,-1.11772 -2.829557,-2.42391 -4.039461,-3.75211 h 1.1e-5 c -1.162539,-1.28317 -2.288885,-2.60892 -3.824838,-3.80634 -0.743762,-0.60682 -1.615609,-1.20637 -2.863751,-1.6772 -0.761472,-0.28725 -1.659849,-0.50848 -2.726022,-0.6496 -1.16549,-0.16217 -2.699229,-0.16751 -4.629308,0.0492 -1.95742,0.22718 -4.211723,0.73739 -6.428804,1.40876 -2.931488,0.91259 -5.311108,1.90888 -7.019982,2.72014 0,0 -6e-6,10e-6 -6e-6,10e-6 -5.185159,2.44604 -6.739327,3.80573 -6.084005,3.82926 0.841992,0.0302 3.541975,-1.33803 8.129936,-3.07567 0,0 0,0 0,0 1.415752,-0.52987 3.048958,-1.11459 4.290721,-1.41101 0.881369,-0.22544 1.797878,-0.37495 2.576527,-0.42649 0.895788,-0.0709 1.654642,0.004 2.482374,0.13117 0.769305,0.12519 1.435551,0.31548 2.05291,0.55968 z m -9.219372,-10.83165 c 2.108125,0.39985 4.37062,0.94513 6.702359,1.51436 4.559268,1.12982 9.212663,2.42655 13.937012,3.7193 h -10e-7 c 4.866654,1.3335 9.808394,2.67865 14.792576,3.869 v 0 c 3.98051,0.95861 8.11215,1.84337 12.15616,2.34798 0.38925,0.0485 0.7749,0.0927 1.15684,0.13227 1.94256,0.20144 3.76444,0.24893 5.37707,0.10209 1.65088,-0.15109 2.9269,-0.544 3.7868,-1.11126 1.05179,-0.72423 1.34617,-1.64683 1.28376,-2.48999 0,0 0,0 0,0 -0.17359,-2.20544 -1.88224,-3.72208 -2.68517,-3.86383 -0.80295,-0.14174 -0.66469,1.14356 -1.53275,2.48945 0,0 0,0 0,0 -0.32351,0.49996 -0.83759,1.0209 -1.68431,1.33092 -0.66186,0.2608 -1.58304,0.41407 -2.71583,0.46148 -1.13589,0.0491 -2.48545,-0.0341 -4.03259,-0.19462 -0.30985,-0.0322 -0.62436,-0.0678 -0.94377,-0.10675 -3.31827,-0.4044 -6.98912,-1.20655 -10.7738,-2.10022 v 0 c -4.691779,-1.11772 -9.481456,-2.42392 -14.336335,-3.75212 h 10e-7 c -4.683953,-1.28317 -9.448529,-2.60892 -14.270546,-3.80634 -2.409034,-0.60681 -4.926231,-1.20636 -7.466476,-1.6772 -1.549763,-0.28724 -3.055276,-0.50848 -4.508706,-0.64959 -1.610563,-0.16218 -3.158957,-0.16752 -4.494214,0.0492 -1.333991,0.22717 -2.188119,0.73738 -2.562743,1.40876 -0.427094,0.91259 -0.0726,1.90888 0.444853,2.72014 0,0 4e-6,0 4e-6,0 1.527505,2.44604 3.704763,3.80575 4.424643,3.82926 0.924917,0.0302 -0.129966,-1.33802 -0.310611,-3.07566 1e-6,0 2e-6,0 2e-6,0 -0.03839,-0.52988 -0.0098,-1.1146 0.418491,-1.41101 0.262715,-0.22543 0.76891,-0.37495 1.4061,-0.4265 0.701245,-0.0708 1.666022,0.004 2.842347,0.13117 1.11287,0.1252 2.30134,0.31548 3.588834,0.55968 z m 9.45932,-24.33857 c 1.604252,-0.39984 3.179607,-0.94512 4.794007,-1.51436 3.135508,-1.12982 6.154801,-2.42655 9.25005,-3.71931 h -10e-7 c 3.18622,-1.3335 6.432853,-2.67865 9.916969,-3.86901 v 0 c 2.772491,-0.95861 5.789181,-1.84335 9.197281,-2.34796 0.32806,-0.0485 0.65809,-0.0927 0.99017,-0.13227 1.68869,-0.20146 3.45074,-0.24893 5.24841,-0.1021 1.84128,0.1511 3.61242,0.544 5.18719,1.11126 1.96444,0.72423 3.42147,1.64683 4.42159,2.48998 0,0 0,0 0,0 2.60567,2.20546 2.80824,3.7221 2.18394,3.86384 -0.62432,0.14174 -2.10578,-1.14355 -4.66988,-2.48944 0,0 0,0 0,0 -0.95355,-0.49996 -2.12414,-1.02092 -3.36152,-1.33093 -0.99051,-0.2608 -2.10485,-0.41408 -3.29738,-0.46148 -1.19783,-0.0491 -2.44253,0.034 -3.78733,0.19462 -0.26929,0.0322 -0.5389,0.0678 -0.80927,0.10674 -2.80864,0.4044 -5.46862,1.20657 -8.12713,2.10024 v 0 c -3.283278,1.11771 -6.426936,2.4239 -9.608043,3.75211 h 5e-6 c -3.066929,1.28318 -6.16084,2.60892 -9.473906,3.80634 -1.644345,0.60681 -3.406002,1.20637 -5.352916,1.6772 -1.187782,0.28725 -2.4145,0.50848 -3.690104,0.64959 -1.406185,0.16218 -2.947849,0.16752 -4.556246,-0.0492 -1.620268,-0.22717 -3.117353,-0.73738 -4.338029,-1.40876 -1.577103,-0.91258 -2.478103,-1.90888 -2.982977,-2.72012 0,0 -1e-6,0 -1e-6,0 -1.554931,-2.44605 -1.091135,-3.80576 -0.4009,-3.82929 0.886837,-0.0302 1.556179,1.33804 3.565264,3.07568 0,0 10e-7,1e-5 10e-7,1e-5 0.629343,0.52987 1.394766,1.11458 2.196609,1.411 0.546799,0.22543 1.241409,0.37495 1.943556,0.42649 0.790579,0.0709 1.660797,-0.004 2.67705,-0.13117 0.955105,-0.12519 1.90377,-0.31548 2.883541,-0.55967 z m 1.163508,-9.38744 c 1.257164,-0.39985 2.359186,-0.94512 3.479447,-1.51435 2.154753,-1.12982 4.0484,-2.42656 6.021449,-3.71931 h -10e-7 c 2.028654,-1.333489 4.107609,-2.678637 6.558432,-3.868983 v -1e-6 c 1.940353,-0.958607 4.189011,-1.843349 7.159051,-2.347962 0.28589,-0.04857 0.57763,-0.0927 0.87536,-0.132266 1.5138,-0.20145 3.23463,-0.24893 5.15975,-0.102101 1.97245,0.151094 4.08464,0.543995 6.15185,1.111263 2.59312,0.724224 4.85102,1.646828 6.58308,2.489973 0,0 0,0 0,1e-6 4.52014,2.205443 6.03925,3.722066 5.538,3.863816 -0.50126,0.14175 -3.09846,-1.14355 -6.83089,-2.489434 0,0 0,0 0,0 -1.38756,-0.499956 -3.01037,-1.020909 -4.51685,-1.330915 -1.21691,-0.260803 -2.4643,-0.414079 -3.69799,-0.461485 -1.24048,-0.04914 -2.41297,0.03405 -3.61838,0.194623 -0.24133,0.0322 -0.48003,0.06781 -0.71661,0.106742 -2.45759,0.404401 -4.42121,1.206564 -6.303959,2.100225 v 10e-7 c -2.313019,1.117713 -4.322816,2.423903 -6.350955,3.752103 h 5e-6 c -1.953049,1.28318 -3.896129,2.60892 -6.169752,3.80634 -1.117593,0.60681 -2.358799,1.20637 -3.896998,1.6772 -0.93843,0.28725 -1.973106,0.50848 -3.126209,0.6496 -1.265403,0.16219 -2.802435,0.16752 -4.598983,-0.0492 -1.817468,-0.22718 -3.75745,-0.73739 -5.560929,-1.40878 -2.369288,-0.91258 -4.135135,-1.90887 -5.344233,-2.72013 0,0 -1e-6,0 -1e-6,0 -3.678257,-2.44604 -4.394771,-3.80575 -3.72496,-3.82927 0.860598,-0.0302 2.717676,1.33803 6.235149,3.07567 0,0 2e-6,0 2e-6,0 1.089312,0.52988 2.362306,1.11459 3.421457,1.41101 0.742489,0.22543 1.566887,0.37495 2.313787,0.4265 0.85211,0.0709 1.65719,-0.004 2.563181,-0.13118 0.846427,-0.1252 1.629911,-0.31548 2.3977,-0.55968 z m -14.06392,16.3085 c -7.4825,0 -13.506332,1.86792 -13.506332,4.18821 0,2.32029 6.023832,4.18839 13.506332,4.18839 4.427994,0 8.344725,-0.65443 10.804952,-1.66939 2.460215,1.015 6.377117,1.66939 10.805225,1.66939 4.440353,0 8.366828,-0.65798 10.825763,-1.67782 2.382219,1.18244 6.613638,1.96658 11.459558,1.96658 4.42802,0 8.34477,-0.65442 10.80501,-1.66939 2.46023,1.015 6.37715,1.66939 10.80529,1.66939 7.48254,0 13.50639,-1.86809 13.50639,-4.18838 0,-2.32029 -6.02385,-4.18821 -13.50639,-4.18821 -4.42813,0 -8.34506,0.65421 -10.80529,1.66921 -2.46024,-1.01495 -6.377,-1.66921 -10.80501,-1.66921 -4.44037,0 -8.366847,0.65785 -10.825761,1.67764 -2.382219,-1.18243 -6.613596,-1.96641 -11.45956,-1.96641 -4.4281,0 -8.34501,0.65421 -10.805225,1.66921 -2.460228,-1.01495 -6.376967,-1.66921 -10.804952,-1.66921 z"
       inkscape:label="gray" />
  </g>
  <g
     inkscape:groupmode="layer"
     id="layer4"
     inkscape:label="Layer 4">
    <path
       id="path988"
       style="fill:#ffffff;fill-rule:evenodd;stroke:#000000;stroke-width:1.617;stroke-linecap:round;stroke-linejoin:round;stroke-dasharray:none;paint-order:stroke markers fill"
       d="m 31.583292,281.09565 c 1.06111,0.40191 1.865315,0.95001 2.673167,1.52219 1.531276,1.13566 2.680514,2.4391 3.915671,3.73854 v 0 c 1.267185,1.3404 2.579625,2.6925 4.382551,3.88901 v 0 c 1.416927,0.96356 3.205274,1.85289 5.996697,2.36011 0.268683,0.0489 0.546394,0.0932 0.833348,0.13295 1.458818,0.20249 3.234519,0.25022 5.350339,0.10263 2.168241,-0.15187 4.63957,-0.54681 7.176425,-1.11701 3.190427,-0.72797 6.157264,-1.65535 8.520694,-2.50286 0,0 0,0 0,0 6.17119,-2.21686 8.746656,-3.74134 8.312131,-3.88381 -0.434526,-0.14248 -3.992075,1.14947 -8.780498,2.50231 0,0 0,0 0,0 -1.779864,0.50255 -3.820282,1.0262 -5.602159,1.33781 -1.446085,0.26215 -2.854629,0.41622 -4.180325,0.46387 -1.333955,0.0494 -2.510943,-0.0342 -3.67247,-0.19563 -0.232525,-0.0324 -0.460043,-0.0681 -0.683206,-0.1073 -2.318278,-0.40649 -3.860815,-1.2128 -5.259278,-2.11109 v 0 c -1.705235,-1.12349 -2.970283,-2.43644 -4.240362,-3.77151 h 1.1e-5 c -1.220357,-1.28981 -2.402722,-2.62241 -4.015065,-3.82602 -0.780752,-0.60996 -1.695961,-1.21261 -3.006179,-1.68588 -0.799343,-0.28873 -1.742402,-0.51111 -2.8616,-0.65295 -1.223455,-0.16302 -2.833474,-0.16839 -4.859546,0.0495 -2.054772,0.22835 -4.421192,0.7412 -6.748539,1.41605 -3.077284,0.9173 -5.575255,1.91875 -7.369119,2.73419 0,0 -6e-6,1e-5 -6e-6,1e-5 -5.443042,2.45869 -7.074507,3.82543 -6.386592,3.84907 0.883868,0.0304 3.718135,-1.34494 8.534276,-3.09157 0,0 0,0 0,0 1.486165,-0.53262 3.200598,-1.12036 4.50412,-1.41831 0.925204,-0.2266 1.887295,-0.37689 2.704669,-0.4287 0.94034,-0.0713 1.736936,0.004 2.605835,0.13185 0.807566,0.12584 1.506947,0.31712 2.15501,0.56257 z M 21.905398,270.208 c 2.212971,0.40191 4.587991,0.95 7.035699,1.52219 4.786022,1.13565 9.670852,2.43909 14.630166,3.73853 h -1e-6 c 5.108696,1.3404 10.296225,2.69251 15.528288,3.88901 v 0 c 4.178478,0.96357 8.515579,1.85289 12.760688,2.36012 0.408609,0.0488 0.813443,0.0932 1.214372,0.13295 2.039156,0.20249 3.951639,0.25021 5.644467,0.10262 1.732976,-0.15187 3.072442,-0.54681 3.975112,-1.11701 1.104095,-0.72797 1.413105,-1.65535 1.347608,-2.50286 0,0 0,0 0,0 -0.182231,-2.21685 -1.97586,-3.74133 -2.818713,-3.88381 -0.842868,-0.14248 -0.697742,1.14947 -1.608961,2.50232 0,0 0,0 0,0 -0.339599,0.50254 -0.879257,1.02619 -1.768074,1.3378 -0.694768,0.26215 -1.661756,0.41622 -2.850886,0.46387 -1.192377,0.0494 -2.609047,-0.0342 -4.23313,-0.19563 -0.325255,-0.0323 -0.655409,-0.0682 -0.990707,-0.10729 -3.483283,-0.4065 -7.336672,-1.21281 -11.309588,-2.1111 v 0 c -4.925123,-1.12349 -9.953017,-2.43643 -15.049352,-3.7715 l 1e-6,-1e-5 c -4.916908,-1.28981 -9.91845,-2.62241 -14.980289,-3.82602 -2.528847,-0.60995 -5.171235,-1.21261 -7.837819,-1.68587 -1.62684,-0.28874 -3.20723,-0.51112 -4.732946,-0.65296 -1.690663,-0.16302 -3.316066,-0.16839 -4.717732,0.0495 -1.4003366,0.22835 -2.2969436,0.7412 -2.6902003,1.41605 -0.4483346,0.9173 -0.076206,1.91875 0.4669783,2.7342 0,0 3.9e-6,0 3.9e-6,0 1.6034751,2.45869 3.8890181,3.82543 4.6447011,3.84908 0.970917,0.0304 -0.13643,-1.34495 -0.326059,-3.09158 1e-6,0 1e-6,0 1e-6,0 -0.0403,-0.53262 -0.0103,-1.12036 0.439305,-1.41831 0.275782,-0.2266 0.807151,-0.37689 1.476033,-0.4287 0.736121,-0.0713 1.748881,0.004 2.98371,0.13185 1.168219,0.12584 2.415796,0.31712 3.767324,0.56257 z m 9.929777,-24.46445 c 1.684039,-0.40191 3.337744,-0.95 5.032435,-1.52219 3.291452,-1.13565 6.460909,-2.43909 9.710099,-3.73853 h -10e-7 c 3.344687,-1.3404 6.752789,-2.69251 10.4102,-3.88901 v 0 c 2.910382,-0.96357 6.077101,-1.85289 9.654683,-2.36012 0.344358,-0.0488 0.690813,-0.0932 1.039403,-0.13295 1.772668,-0.20249 3.622346,-0.25021 5.509406,-0.10263 1.93285,0.15188 3.792065,0.54681 5.445145,1.11702 2.062135,0.72797 3.591613,1.65535 4.641473,2.50286 0,0 0,0 0,0 2.73524,2.21685 2.94789,3.74133 2.29254,3.88381 -0.65536,0.14248 -2.210493,-1.14947 -4.902109,-2.50232 0,0 0,0 0,0 -1.000969,-0.50254 -2.229769,-1.02619 -3.52868,-1.3378 -1.039772,-0.26215 -2.20952,-0.41622 -3.461359,-0.46387 -1.25739,-0.0494 -2.563999,0.0342 -3.975674,0.19563 -0.282677,0.0324 -0.565698,0.0682 -0.849505,0.10729 -2.948316,0.4065 -5.740572,1.21281 -8.531299,2.1111 v 0 c -3.44656,1.12349 -6.746571,2.43643 -10.085901,3.77151 h 6e-6 c -3.219462,1.28981 -6.467249,2.62241 -9.945089,3.82602 -1.726127,0.60995 -3.575398,1.21261 -5.619142,1.68587 -1.246856,0.28874 -2.534585,0.51112 -3.87363,0.65296 -1.476122,0.16302 -3.094461,0.16839 -4.782851,-0.0495 -1.700851,-0.22835 -3.272393,-0.7412 -4.553779,-1.41605 -1.65554,-0.9173 -2.601352,-1.91875 -3.131335,-2.7342 0,0 -10e-7,0 -10e-7,0 -1.632265,-2.45869 -1.145402,-3.82543 -0.420838,-3.84908 0.930943,-0.0304 1.633574,1.34495 3.74258,3.09158 0,0 10e-7,0 10e-7,0 0.660644,0.53262 1.464135,1.12036 2.305857,1.41831 0.573995,0.2266 1.303151,0.37689 2.040219,0.4287 0.829898,0.0713 1.743396,-0.004 2.810192,-0.13185 1.002607,-0.12584 1.998454,-0.31712 3.026954,-0.56257 z m 1.221375,-9.43597 c 1.319689,-0.40191 2.47652,-0.95 3.652496,-1.52219 2.261919,-1.13566 4.249746,-2.43909 6.320924,-3.73853 l -10e-7,-1e-5 c 2.129549,-1.34039 4.311901,-2.6925 6.884614,-3.889 v 0 c 2.036857,-0.96357 4.397363,-1.85289 7.515119,-2.36012 0.300101,-0.0488 0.606341,-0.0932 0.918883,-0.13295 1.589096,-0.20249 3.39551,-0.25022 5.416364,-0.10263 2.070533,0.15188 4.287771,0.54681 6.457781,1.11702 2.722071,0.72797 5.09226,1.65535 6.910437,2.50286 0,0 0,0 0,0 4.744932,2.21685 6.33959,3.74133 5.813406,3.88381 -0.526189,0.14248 -3.252543,-1.14947 -7.170585,-2.50232 0,0 0,0 0,0 -1.456551,-0.50254 -3.160062,-1.02619 -4.741467,-1.3378 -1.277428,-0.26215 -2.58684,-0.41622 -3.881881,-0.46388 -1.302176,-0.0494 -2.532965,0.0342 -3.798325,0.19564 -0.253329,0.0324 -0.5039,0.0682 -0.752234,0.10729 -2.579811,0.40649 -4.641105,1.21281 -6.61749,2.11109 v 0 c -2.428055,1.1235 -4.537819,2.43644 -6.666827,3.77151 l 6e-6,1e-5 c -2.050184,1.28981 -4.089903,2.62241 -6.476604,3.82602 -1.173176,0.60995 -2.476113,1.21261 -4.090814,1.68588 -0.985103,0.28873 -2.071239,0.51111 -3.281691,0.65295 -1.328337,0.16302 -2.941813,0.16839 -4.827711,-0.0495 -1.90786,-0.22835 -3.944327,-0.7412 -5.837501,-1.41605 -2.487124,-0.9173 -4.340795,-1.91875 -5.610027,-2.7342 0,0 -1e-6,0 -1e-6,0 -3.861195,-2.45869 -4.613345,-3.82543 -3.91022,-3.84908 0.903399,-0.0304 2.852839,1.34495 6.545252,3.09158 0,0 2e-6,0 2e-6,0 1.143489,0.53262 2.479795,1.12036 3.591622,1.41831 0.779417,0.2266 1.644817,0.37689 2.428863,0.4287 0.89449,0.0712 1.73961,-0.004 2.69066,-0.13185 0.888524,-0.12584 1.710975,-0.31712 2.51695,-0.56257 z m -14.763386,16.39283 c -7.85464,0 -14.1780635,1.87758 -14.1780635,4.20987 0,2.33229 6.3234235,4.21004 14.1780635,4.21004 4.648219,0 8.759747,-0.65782 11.342333,-1.67802 2.582574,1.02025 6.694281,1.67802 11.342621,1.67802 4.661193,0 8.78295,-0.66138 11.364179,-1.68649 2.500716,1.18856 6.942583,1.97675 12.029493,1.97675 4.648219,0 8.759753,-0.65781 11.342333,-1.67802 2.58258,1.02025 6.694281,1.67802 11.342623,1.67802 7.854638,0 14.178054,-1.87775 14.178054,-4.21004 0,-2.33229 -6.323416,-4.20986 -14.178054,-4.20986 -4.648331,0 -8.760043,0.65759 -11.342623,1.67783 -2.582586,-1.0202 -6.694125,-1.67783 -11.342333,-1.67783 -4.661194,0 -8.78295,0.66124 -11.364172,1.68631 -2.5007,-1.18854 -6.942524,-1.97658 -12.0295,-1.97658 -4.648331,0 -8.760047,0.6576 -11.342621,1.67784 -2.582587,-1.0202 -6.694124,-1.67784 -11.342333,-1.67784 z"
       inkscape:label="White" />
  </g>
</svg>
