<?xml version="1.0" encoding="UTF-8" standalone="no"?>
<!-- Created with Inkscape (http://www.inkscape.org/) -->

<svg
   width="210mm"
   height="297mm"
   viewBox="0 0 210 297"
   version="1.1"
   id="svg5"
   inkscape:version="1.1 (c68e22c387, 2021-05-23)"
   sodipodi:docname="daw update.svg"
   xmlns:inkscape="http://www.inkscape.org/namespaces/inkscape"
   xmlns:sodipodi="http://sodipodi.sourceforge.net/DTD/sodipodi-0.dtd"
   xmlns="http://www.w3.org/2000/svg"
   xmlns:svg="http://www.w3.org/2000/svg">
  <sodipodi:namedview
     id="namedview7"
     pagecolor="#ffffff"
     bordercolor="#666666"
     borderopacity="1.0"
     inkscape:pageshadow="2"
     inkscape:pageopacity="0.0"
     inkscape:pagecheckerboard="0"
     inkscape:document-units="mm"
     showgrid="false"
     inkscape:zoom="0.62270623"
     inkscape:cx="396.65574"
     inkscape:cy="338.04062"
     inkscape:window-width="1680"
     inkscape:window-height="956"
     inkscape:window-x="-11"
     inkscape:window-y="-11"
     inkscape:window-maximized="1"
     inkscape:current-layer="layer1" />
  <defs
     id="defs2" />
  <g
     inkscape:label="Layer 1"
     inkscape:groupmode="layer"
     id="layer1">
    <g
       id="g1105"
       transform="matrix(0.55217978,0,0,0.44226576,-4.6162999,-36.33708)">
      <path
         id="path870"
         style="fill:none;stroke:#000000;stroke-width:2.54;stroke-linecap:round;stroke-linejoin:round;stroke-dasharray:0.635, 0.635;stroke-opacity:0.955017;paint-order:stroke markers fill"
         d="m 190.35194,180.15451 a 75.418457,73.506439 0 0 1 -75.41846,73.50644 75.418457,73.506439 0 0 1 -75.418458,-73.50644 75.418457,73.506439 0 0 1 75.418458,-73.50644 75.418457,73.506439 0 0 1 75.41846,73.50644 z m -19.57417,1.912 a 56.269184,56.269188 0 0 1 -56.26919,56.26919 56.269184,56.269188 0 0 1 -56.269181,-56.26919 56.269184,56.269188 0 0 1 56.269181,-56.26918 56.269184,56.269188 0 0 1 56.26919,56.26918 z" />
      <path
         id="path995"
         style="fill:none;stroke:#000000;stroke-width:1.28019;stroke-linecap:round;stroke-linejoin:round;stroke-dasharray:0.320047, 0.320047;stroke-opacity:0.955017;paint-order:stroke markers fill"
         d="m 115.42365,136.61258 a 5.5596492,23.156413 0 0 0 -5.55961,23.15656 5.5596492,23.156413 0 0 0 1.34762,15.10558 l -22.621341,-1.89795 12.236201,24.78919 10.88835,26.25683 11.59277,-25.61377 13.65807,-24.12016 -17.3144,0.50665 a 5.5596492,23.156413 0 0 0 1.33218,-15.02637 5.5596492,23.156413 0 0 0 -5.55984,-23.15656 z" />
    </g>
    <g
       id="g1343">
      <g
         id="g1111"
         transform="matrix(0.55217978,0,0,0.44226576,4.73134,75.409704)">
        <path
           id="path1107"
           style="fill:none;stroke:#000000;stroke-width:2.54;stroke-linecap:round;stroke-linejoin:round;stroke-dasharray:0.635, 0.635;stroke-opacity:0.955017;paint-order:stroke markers fill"
           d="m 190.35194,180.15451 a 75.418457,73.506439 0 0 1 -75.41846,73.50644 75.418457,73.506439 0 0 1 -75.418458,-73.50644 75.418457,73.506439 0 0 1 75.418458,-73.50644 75.418457,73.506439 0 0 1 75.41846,73.50644 z m -19.57417,1.912 a 56.269184,56.269188 0 0 1 -56.26919,56.26919 56.269184,56.269188 0 0 1 -56.269181,-56.26919 56.269184,56.269188 0 0 1 56.269181,-56.26918 56.269184,56.269188 0 0 1 56.26919,56.26918 z" />
        <path
           id="path1109"
           style="fill:none;stroke:#000000;stroke-width:1.28019;stroke-linecap:round;stroke-linejoin:round;stroke-dasharray:0.320047, 0.320047;stroke-opacity:0.955017;paint-order:stroke markers fill"
           d="m 115.42365,136.61258 a 5.5596492,23.156413 0 0 0 -5.55961,23.15656 5.5596492,23.156413 0 0 0 1.34762,15.10558 l -22.621341,-1.89795 12.236201,24.78919 10.88835,26.25683 11.59277,-25.61377 13.65807,-24.12016 -17.3144,0.50665 a 5.5596492,23.156413 0 0 0 1.33218,-15.02637 5.5596492,23.156413 0 0 0 -5.55984,-23.15656 z" />
      </g>
      <path
         style="fill:#000000;stroke:#000000;stroke-width:15.4166;stroke-linecap:round;stroke-linejoin:round;stroke-dasharray:3.85415, 3.85415;stroke-opacity:0.955017;paint-order:stroke markers fill"
         d="m 239.45991,632.32064 c -6.19999,-11.70295 -15.96021,-28.86594 -21.68937,-38.13998 -5.72917,-9.27403 -9.81815,-17.07591 -9.08663,-17.33749 0.73152,-0.26159 10.62443,0.2136 21.98425,1.05598 11.35981,0.84237 20.86341,1.32895 21.11911,1.08129 0.25571,-0.24766 -0.34299,-5.42009 -1.33042,-11.49429 -3.08387,-18.97035 1.48652,-49.52959 7.71767,-51.60302 1.201,-0.39964 3.45913,2.50653 5.51202,7.09388 2.85334,6.37599 3.49705,10.94167 3.58616,25.43568 0.0597,9.71566 -0.25273,20.55064 -0.69435,24.07775 l -0.80295,6.41291 16.46041,-0.54722 c 9.05323,-0.30097 16.46042,-0.11777 16.46042,0.40711 0,0.52487 -6.00616,9.44774 -13.34703,19.8286 -7.34086,10.38085 -17.88535,27.00412 -23.4322,36.94059 -5.54685,9.93646 -10.3325,18.0663 -10.63478,18.0663 -0.30228,0 -5.62232,-9.57514 -11.82231,-21.27809 z"
         id="path1180"
         transform="scale(0.26458333)" />
      <path
         style="fill:#000000;stroke:#000000;stroke-width:15.4166;stroke-linecap:round;stroke-linejoin:round;stroke-dasharray:3.85415, 3.85415;stroke-opacity:0.955017;paint-order:stroke markers fill"
         d="m 236.06637,704.88855 c -61.15182,-7.56959 -109.78085,-41.41089 -127.1218,-88.46501 -3.1964,-8.67334 -3.75853,-13.20094 -3.75853,-30.27235 0,-17.15418 0.55471,-21.57909 3.81405,-30.4246 9.4991,-25.77954 30.31285,-49.72385 56.76878,-65.30727 23.97039,-14.11935 63.25817,-24.64745 91.97707,-24.64745 15.99889,0 42.45607,4.61691 60.16162,10.4985 24.7751,8.23002 42.42587,18.98958 60.39021,36.81266 22.64706,22.469 32.81101,45.01185 32.81101,72.77229 0,27.55607 -10.19085,50.65726 -32.07488,72.70906 -22.28125,22.45208 -48.54565,36.21847 -82.62092,43.30549 -17.64676,3.67019 -44.30886,5.0039 -60.34661,3.01868 z m 57.81217,-23.20301 c 49.94209,-13.19809 83.50648,-50.30599 83.50648,-92.32256 0,-23.06099 -8.77462,-42.64591 -27.47278,-61.31909 -10.35567,-10.34185 -15.04623,-13.63009 -28.97561,-20.31293 -24.80402,-11.90012 -34.22137,-13.92113 -64.79659,-13.90563 -21.84966,0.0111 -27.56817,0.55419 -38.21772,3.62968 -40.6242,11.73189 -70.4088,38.64382 -79.16416,71.52894 -1.22049,4.58416 -2.21908,13.75472 -2.21908,20.37903 0,23.98368 7.62546,41.35763 26.45913,60.2848 17.78613,17.87445 40.99985,29.52209 69.85637,35.0509 9.12883,1.74904 50.78718,-0.3079 61.02396,-3.01314 z"
         id="path1219"
         transform="scale(0.26458333)" />
    </g>
    <g
       id="g1560"
       transform="translate(-0.84978586,-0.8497857)">
      <path
         style="fill:#ffffff;stroke:#000000;stroke-width:15.4166;stroke-linecap:round;stroke-linejoin:round;stroke-dasharray:3.85415, 3.85415;stroke-opacity:0.955017;paint-order:stroke markers fill"
         d="m 573.30405,833.36004 c -61.15183,-7.56959 -109.78086,-41.41089 -127.1218,-88.46501 -3.19641,-8.67333 -3.75854,-13.20093 -3.75854,-30.27234 0,-17.15419 0.55471,-21.5791 3.81405,-30.42461 9.4991,-25.77954 30.31286,-49.72385 56.76879,-65.30726 23.97039,-14.11936 63.25817,-24.64745 91.97706,-24.64745 15.99889,0 42.45607,4.6169 60.16163,10.4985 24.7751,8.23001 42.42586,18.98957 60.39021,36.81266 22.64705,22.46899 32.81101,45.01185 32.81101,72.77228 0,27.55607 -10.19086,50.65727 -32.07489,72.70906 -22.28124,22.45208 -48.54565,36.21848 -82.62091,43.30549 -17.64677,3.67019 -44.30887,5.00391 -60.34661,3.01868 z m 57.81217,-23.20301 c 49.94209,-13.19808 83.50647,-50.30598 83.50647,-92.32255 0,-23.06099 -8.77462,-42.64591 -27.47278,-61.31909 -10.35567,-10.34185 -15.04623,-13.6301 -28.9756,-20.31294 -24.80403,-11.90012 -34.22137,-13.92112 -64.79659,-13.90562 -21.84967,0.0111 -27.56818,0.55418 -38.21772,3.62967 -40.62421,11.7319 -70.4088,38.64383 -79.16417,71.52894 -1.22049,4.58416 -2.21907,13.75473 -2.21907,20.37904 0,23.98368 7.62546,41.35762 26.45912,60.2848 17.78613,17.87444 40.99986,29.52209 69.85638,35.05089 9.12882,1.74904 50.78717,-0.3079 61.02396,-3.01314 z"
         id="path1400"
         transform="scale(0.26458333)" />
      <path
         style="fill:#ffffff;stroke:#000000;stroke-width:15.4166;stroke-linecap:round;stroke-linejoin:round;stroke-dasharray:3.85415, 3.85415;stroke-opacity:0.955017;paint-order:stroke markers fill"
         d="m 576.69758,760.79213 c -6.19999,-11.70295 -15.9602,-28.86594 -21.68937,-38.13997 -5.72916,-9.27404 -9.81815,-17.07591 -9.08663,-17.3375 0.73153,-0.26158 10.62444,0.21361 21.98425,1.05598 11.35981,0.84237 20.86342,1.32895 21.11912,1.08129 0.2557,-0.24766 -0.34299,-5.42009 -1.33043,-11.49428 -3.08387,-18.97036 1.48652,-49.5296 7.71767,-51.60303 1.20101,-0.39963 3.45913,2.50654 5.51203,7.09388 2.85333,6.376 3.49704,10.94167 3.58615,25.43569 0.0597,9.71565 -0.25272,20.55064 -0.69434,24.07774 l -0.80295,6.41291 16.46041,-0.54721 c 9.05322,-0.30097 16.46041,-0.11778 16.46041,0.4071 0,0.52488 -6.00616,9.44775 -13.34702,19.8286 -7.34086,10.38086 -17.88536,27.00412 -23.43221,36.94059 -5.54684,9.93647 -10.3325,18.0663 -10.63478,18.0663 -0.30228,0 -5.62232,-9.57514 -11.82231,-21.27809 z"
         id="path1439"
         transform="scale(0.26458333)" />
    </g>
    <path
       style="fill:#b3ff80;stroke:#000000;stroke-width:15.4166;stroke-linecap:round;stroke-linejoin:round;stroke-dasharray:3.85415, 3.85415;stroke-opacity:0.955017;paint-order:stroke markers fill"
       d=""
       id="path1715"
       transform="scale(0.26458333)" />
    <path
       id="path1754"
       style="fill:#b3ff80;stroke:#000000;stroke-width:4.07898;stroke-linecap:round;stroke-linejoin:round;stroke-dasharray:1.01974, 1.01974;stroke-opacity:0.955017;paint-order:stroke markers fill"
       d="m 154.76477,53.449571 c -7.59854,0 -17.9933,2.7853 -24.33546,6.521048 -6.9998,4.12311 -12.50697,10.458211 -15.02028,17.279048 -0.86236,2.340371 -1.00924,3.511441 -1.00924,8.050151 0,4.51681 0.14906,5.71452 0.99477,8.00933 4.58813,12.449742 17.45437,21.403542 33.63413,23.406332 4.24332,0.52525 11.29794,0.17267 15.96698,-0.7984 9.01575,-1.87511 15.96492,-5.51777 21.86016,-11.45822 5.79015,-5.834542 8.48631,-11.946712 8.48631,-19.237582 0,-7.344951 -2.68909,-13.309207 -8.68112,-19.254127 -4.75307,-4.715692 -9.42328,-7.56245 -15.97836,-9.739974 -4.68459,-1.556173 -11.68485,-2.777606 -15.91789,-2.777606 z m -0.42478,7.422285 c 8.08969,-0.0041 10.58144,0.530788 17.14417,3.679361 3.68548,1.768169 4.92627,2.638068 7.6662,5.374349 4.94722,4.940613 7.26881,10.122262 7.26881,16.223812 0,11.11689 -8.88042,20.934952 -22.09426,24.426942 -2.70848,0.71576 -13.73045,1.26013 -16.14578,0.79736 -7.63496,-1.46282 -13.7772,-4.54457 -18.48311,-9.27385 -4.98308,-5.007812 -7.00061,-9.604762 -7.00061,-15.950452 0,-1.75268 0.26412,-4.17902 0.58705,-5.39192 2.31652,-8.700848 10.197,-15.821388 20.94549,-18.925453 2.81769,-0.813724 4.33098,-0.957213 10.11204,-0.960149 z m 0.53847,5.836337 c -1.64866,0.548593 -2.85819,8.633672 -2.04225,13.652915 0.26126,1.60713 0.41957,2.97563 0.35191,3.04116 -0.0676,0.0655 -2.58215,-0.0629 -5.58777,-0.28578 -3.00562,-0.22287 -5.62315,-0.34877 -5.8167,-0.27956 -0.19355,0.0692 0.88866,2.13356 2.40451,4.58731 1.51584,2.45376 4.09825,6.99497 5.73866,10.09138 1.64042,3.096402 3.048,5.629632 3.12798,5.629632 0.08,0 1.34618,-2.15105 2.81378,-4.780072 1.4676,-2.62903 4.25735,-7.02748 6.19962,-9.77408 1.94227,-2.7466 3.53157,-5.10732 3.53157,-5.2462 0,-0.13887 -1.95996,-0.18711 -4.35529,-0.10748 l -4.35529,0.14469 0.21239,-1.69653 c 0.11685,-0.93322 0.19976,-3.800078 0.18397,-6.370677 -0.0236,-3.834876 -0.19384,-5.042839 -0.94878,-6.729822 -0.54316,-1.213734 -1.14055,-1.982621 -1.45831,-1.876886 z" />
  </g>
</svg>
