<?xml version="1.0" encoding="UTF-8" standalone="no"?>
<!-- Created with Inkscape (http://www.inkscape.org/) -->

<svg
   width="210mm"
   height="297mm"
   viewBox="0 0 210 297"
   version="1.1"
   id="svg5"
   inkscape:version="1.1.2 (0a00cf5339, 2022-02-04, custom)"
   sodipodi:docname="assignable mod matrix icon svg.svg"
   xmlns:inkscape="http://www.inkscape.org/namespaces/inkscape"
   xmlns:sodipodi="http://sodipodi.sourceforge.net/DTD/sodipodi-0.dtd"
   xmlns="http://www.w3.org/2000/svg"
   xmlns:svg="http://www.w3.org/2000/svg">
  <sodipodi:namedview
     id="namedview7"
     pagecolor="#ffffff"
     bordercolor="#666666"
     borderopacity="1.0"
     inkscape:pageshadow="2"
     inkscape:pageopacity="0.0"
     inkscape:pagecheckerboard="0"
     inkscape:document-units="mm"
     showgrid="false"
     inkscape:zoom="1.0289025"
     inkscape:cx="301.77787"
     inkscape:cy="246.37903"
     inkscape:window-width="1680"
     inkscape:window-height="956"
     inkscape:window-x="-11"
     inkscape:window-y="-11"
     inkscape:window-maximized="1"
     inkscape:current-layer="layer1"
     showguides="false"
     inkscape:guide-bbox="true" />
  <defs
     id="defs2">
    <inkscape:path-effect
       effect="spiro"
       id="path-effect1669"
       is_visible="true"
       lpeversion="1" />
    <inkscape:path-effect
       effect="spiro"
       id="path-effect1663"
       is_visible="true"
       lpeversion="1" />
    <inkscape:path-effect
       effect="spiro"
       id="path-effect1544"
       is_visible="true"
       lpeversion="1" />
    <inkscape:path-effect
       effect="spiro"
       id="path-effect2054"
       is_visible="true"
       lpeversion="1" />
    <inkscape:path-effect
       effect="spiro"
       id="path-effect1881"
       is_visible="true"
       lpeversion="1" />
    <inkscape:path-effect
       effect="spiro"
       id="path-effect1875"
       is_visible="true"
       lpeversion="1" />
    <inkscape:path-effect
       effect="spiro"
       id="path-effect1360"
       is_visible="true"
       lpeversion="1" />
    <inkscape:path-effect
       effect="spiro"
       id="path-effect1157"
       is_visible="true"
       lpeversion="1" />
    <inkscape:path-effect
       effect="spiro"
       id="path-effect2785"
       is_visible="true"
       lpeversion="1" />
    <inkscape:path-effect
       effect="spiro"
       id="path-effect2650"
       is_visible="true"
       lpeversion="1" />
    <inkscape:path-effect
       effect="spiro"
       id="path-effect2453"
       is_visible="true"
       lpeversion="1" />
    <inkscape:path-effect
       effect="rough_hatches"
       id="path-effect2461"
       is_visible="true"
       lpeversion="1"
       direction="69.99843,260.92094 , 8.1437712,0"
       dist_rdm="6;1"
       growth="0"
       do_bend="true"
       bender="69.99843,265.92094 , 5,0"
       bottom_edge_variation="1.4602372;1"
       top_edge_variation="1.4602372;1"
       bottom_tgt_variation="0;1"
       top_tgt_variation="0;1"
       scale_bf="1"
       scale_bb="1"
       scale_tf="1"
       scale_tb="1"
       top_smth_variation="0;1"
       bottom_smth_variation="0;1"
       fat_output="true"
       stroke_width_top="1"
       stroke_width_bottom="1"
       front_thickness="1"
       back_thickness="0.25" />
    <inkscape:path-effect
       effect="skeletal"
       id="path-effect1945"
       is_visible="true"
       lpeversion="1"
       pattern="m 33.860958,87.614548 h 14.800324 c 5.651367,0 10.201025,4.549657 10.201025,10.201025 v 12.157417 c 0,5.65137 -4.549658,10.20103 -10.201025,10.20103 H 33.860958 c -5.651368,0 -10.201025,-4.54966 -10.201025,-10.20103 V 97.815573 c 0,-5.651368 4.549657,-10.201025 10.201025,-10.201025 z"
       copytype="repeated"
       prop_scale="1.28"
       scale_y_rel="false"
       spacing="2.6"
       normal_offset="0"
       tang_offset="0"
       prop_units="false"
       vertical_pattern="false"
       hide_knot="false"
       fuse_tolerance="0" />
    <inkscape:path-effect
       effect="skeletal"
       id="path-effect1762"
       is_visible="true"
       lpeversion="1"
       pattern="#rect1629"
       copytype="repeated"
       prop_scale="1"
       scale_y_rel="false"
       spacing="0"
       normal_offset="0"
       tang_offset="0"
       prop_units="false"
       vertical_pattern="false"
       hide_knot="false"
       fuse_tolerance="0" />
    <clipPath
       clipPathUnits="userSpaceOnUse"
       id="clipPath2716">
      <path
         id="path2718"
         style="fill:none;stroke:#000000;stroke-width:1.265;stroke-linecap:round;stroke-linejoin:round;stroke-miterlimit:4;stroke-dasharray:none;stroke-opacity:0.955017;paint-order:stroke markers fill"
         d="m 171.94247,92.538537 v 93.056333 h 63.42766 V 92.538537 Z m 1.8154,27.651543 c 0.3048,-5e-5 0.6134,0.29795 0.6134,0.894 v 0.49764 c 0.025,0.0197 0.0443,0.0352 0.0754,0.0594 -0.0191,-0.0239 -0.0814,-0.0908 -0.0574,-0.0718 0.35281,0.27864 0.45167,0.3023 0.52917,0.75809 -0.006,0.11727 -0.0131,0.23413 -0.0191,0.3514 0.0277,-0.0604 0.0147,-0.0598 0.0388,0.004 0.0859,0.28692 0.0325,0.58407 0.0305,0.87695 0.003,0.22514 0.004,0.45027 0.004,0.67541 0.0766,-0.0457 0.15873,-0.0718 0.24184,-0.0718 0.0408,0 0.0814,0.006 0.12144,0.0171 v -0.80874 c 0,-0.59503 0.29995,-0.89298 0.60048,-0.894 v 5.3e-4 h 5.3e-4 c 0.3009,2.6e-4 0.60152,0.29828 0.60152,0.894 v 1.39216 1.12448 1.37821 c 0.0567,-0.29605 0.0576,-0.26053 0.0594,-0.21394 0.0186,-0.0582 0.041,-0.11104 0.0667,-0.15864 0.001,-0.006 0.001,-0.003 0.003,-0.009 0.0294,-0.12516 0.0424,-0.25354 0.0636,-0.38034 h -0.001 c 0.0892,-0.53274 0.33706,-0.77868 0.58291,-0.77773 0.29672,0.001 0.59045,0.36198 0.59789,1.01389 10e-4,0.10111 -0.0177,0.19737 -0.0429,0.29249 0.0713,0.14079 0.11576,0.32478 0.11576,0.55294 v 1.45262 c -0.0237,0.34855 -0.13495,0.66485 -0.24081,0.99116 v 0.45165 c 0,1.11188 -1.04705,1.18648 -1.18805,0.22428 -0.17076,-0.083 -0.31469,-0.26974 -0.36483,-0.56276 -0.34057,0.21245 -0.80769,-0.0317 -0.84698,-0.72709 -0.3623,0.30307 -1.02482,0.0418 -0.98857,-0.77876 0.002,-0.0559 0.005,-0.11205 0.007,-0.16795 0.008,-0.0387 0.0168,-0.0888 0.0279,-0.14418 -0.0137,-0.0477 -0.007,-0.0903 0.0279,-0.12299 -0.0107,0.0426 -0.02,0.084 -0.0279,0.12299 0.058,0.2023 0.4812,0.50379 0.71107,0.6072 0.0308,0.0139 0.13028,-0.0514 0.23461,-0.12867 v -0.31006 c -0.18047,-0.0918 -0.36886,-0.31369 -0.56844,-0.43305 -0.0831,0.0184 -0.1765,0.0511 -0.28112,0.10025 -0.0171,0.17295 0.005,0.35404 -0.0217,0.0104 -0.001,5.3e-4 -0.002,0.001 -0.004,0.002 -0.0171,0.008 -0.0306,0.018 -0.0418,0.0284 0.0123,-0.0488 0.0268,-0.0984 0.0444,-0.14676 0.002,-0.21005 -0.002,-0.25354 0.045,-0.51004 0.0173,-0.0934 0.0465,-0.18435 0.0718,-0.27596 -0.25462,-0.34269 -0.61231,-1.84643 -0.71934,-0.96583 -0.0243,0.20019 0.0306,0.4274 -0.0729,0.60048 -0.085,0.14224 -0.11324,-0.42935 -0.11524,-0.45475 -0.0403,-0.14283 -0.12568,-0.4406 -0.14418,-0.54312 -0.0332,-0.18404 0.0284,-0.38509 0,-0.56999 v -1.36219 c 0,-0.35008 0.10499,-0.59453 0.25167,-0.73898 0.004,-0.0736 0.006,-0.14676 0.002,-0.21859 -0.0536,-0.20233 -0.0729,-0.23854 -0.0739,-0.45268 -0.0249,-0.0116 -0.0499,-0.023 -0.0744,-0.0351 0.19801,0.0499 -0.13475,-0.0277 -0.27388,-0.21032 -0.28065,-0.36836 -0.18164,-0.81235 -0.19224,-1.23456 -0.015,-0.59586 0.28637,-0.89395 0.59118,-0.894 z m 0.0165,2.40502 c 0.015,0.0194 0.0307,0.0377 0.0512,0.0506 0.0497,0.0315 0.21618,0.091 0.16588,0.0605 -0.0695,-0.0421 -0.1431,-0.0771 -0.21704,-0.1111 z m 53.54919,0.44545 v 5.3e-4 5.3e-4 c 0.23913,-0.006 0.5121,0.17404 0.69195,0.60358 0.1061,0.2534 0.23772,0.49751 0.31832,0.76016 0.18101,0.5901 0.28893,1.11131 0.38138,1.65261 0.24153,0.0852 0.44751,0.37362 0.44751,0.86662 v 0.46509 c 0.17404,-0.30525 0.39801,-0.45168 0.60255,-0.47388 v -0.29197 c 0,-0.59605 0.30098,-0.894 0.60203,-0.894 0.009,0 0.0182,0.003 0.0274,0.004 0.0552,-0.27863 0.19067,-0.45921 0.35037,-0.5457 0.0671,-0.44178 0.32578,-0.66301 0.58497,-0.66301 0.30106,0 0.60255,0.29795 0.60255,0.89401 v 1.11414 c 0.11682,0.15512 0.16028,0.59889 0.15038,0.78238 -0.004,0.0691 -0.0217,0.13686 -0.0326,0.20516 -0.004,0.0114 -0.008,0.0228 -0.0114,0.0341 0.001,-7.9e-4 0.002,2.7e-4 0.003,0.002 0.032,0.078 0.0116,0.6811 0.0124,0.78497 0.002,0.27842 -0.004,0.55718 -0.002,0.8356 7e-5,0.0121 5.3e-4,0.0241 5.3e-4,0.0362 0.003,0.52925 -0.23205,0.82453 -0.49557,0.88573 -0.0679,0.5869 -0.4593,0.81442 -0.7767,0.67489 -0.25025,0.32889 -0.68475,0.29165 -0.89452,-0.11058 -0.1006,0.21278 -0.25198,0.33849 -0.41083,0.38189 -7.9e-4,0.0313 -0.0709,0.055 -0.25114,0.0667 -0.0304,0.002 -0.061,0.005 -0.0915,0.008 -5e-5,0.005 6e-5,0.007 0,0.0114 -0.0174,0.24271 -0.0309,0.48566 -0.0517,0.72812 0.15541,0.0128 0.21709,0.11304 0.0791,0.38292 -0.2783,0.54229 -0.24936,0.81681 -1.19941,0.3545 -0.12467,-0.0607 -0.13935,-0.2551 -0.12609,-0.44183 0.066,0.0686 0.61391,-0.18556 1.0051,-0.26975 -0.55671,-0.31293 -0.56029,-0.2466 -0.83664,0.0248 -0.0907,0.0891 -0.14314,0.15008 -0.16433,0.19069 0.012,-0.12284 0.0331,-0.23627 0.0388,-0.29818 0.0174,-0.19098 0.0294,-0.38233 0.0429,-0.5736 -0.0367,0.001 -0.10147,0.001 -0.20877,-0.003 -0.003,0.1686 -0.0477,0.0956 -0.3638,0.002 -0.85874,0.0368 -0.83887,0.29404 -0.8413,-0.14831 v -5.3e-4 c -5e-5,-0.007 8e-5,-0.0133 0,-0.0212 0.007,-0.21925 0.003,-0.13215 0.0181,-0.37723 0.005,-0.073 0.007,-0.14621 0.0139,-0.21911 0.002,-0.0229 0.003,-0.0466 0.0119,-0.0677 0.002,-0.005 0.016,0.009 0.015,0.004 -0.007,-0.0311 -0.0227,-0.0596 -0.0341,-0.0894 -0.0849,-0.226 -0.15951,-0.44774 -0.21911,-0.68575 -0.007,-0.0267 0.018,0.0532 0.0336,0.0754 0.009,0.0126 -0.008,-0.0292 -0.0124,-0.0439 -0.37529,-0.72619 -0.43411,-1.56411 -0.42168,-2.36988 0.009,-0.59599 0.31001,-0.89399 0.60875,-0.894 0.29874,-2e-5 0.59532,0.29795 0.59532,0.894 0,0.0307 1e-4,0.0252 0,0.0522 0.10496,-0.10814 0.23296,-0.16279 0.36122,-0.16279 0.0688,0 0.1374,0.0165 0.20257,0.0476 -0.11477,-0.77567 -0.23289,-1.60322 -0.45734,-2.35438 -0.0708,-0.23676 -0.1891,-0.45643 -0.2837,-0.68471 -0.2781,-0.6711 0.0119,-1.13272 0.38499,-1.14205 z m -50.78501,6.28696 c 0,0.14578 -0.0185,0.27328 -0.0501,0.38343 0.0202,0.005 0.031,0.007 0.0501,0.0119 v -0.0424 z m 51.39892,1.09915 c -0.0562,0.0948 -0.12572,0.16613 -0.20205,0.21498 -0.009,0.15264 -0.0206,0.30569 -0.0253,0.4563 5.3e-4,0.0353 0.001,0.0652 0.002,0.0909 0.0962,0.0104 0.16913,0.0193 0.2098,0.0264 0.002,-0.0329 0.005,-0.0658 0.007,-0.0987 0.004,-0.28401 0.005,-0.47104 0.009,-0.68988 z m -0.0987,1.67483 c -0.002,0.0177 -0.003,0.0353 -0.004,0.0532 -0.01,-0.0101 -0.009,-0.0275 0.004,-0.0532 z m 1.08262,13.01626 h 5.3e-4 c 0.21847,0 0.43559,0.159 0.53899,0.47284 0.0928,-0.0738 0.19841,-0.11162 0.30437,-0.11162 0.30106,0 0.60203,0.29796 0.60203,0.894 v 0.37776 c 0.0762,-0.0446 0.15842,-0.0677 0.24081,-0.0677 0.25155,0 0.50079,0.21078 0.57671,0.62684 0.0478,-0.0159 0.0967,-0.0248 0.14573,-0.0248 0.30106,0 0.60203,0.29794 0.60203,0.894 v 1.57303 c 0.0157,0.12506 -0.0213,0.26017 -0.002,0.38447 0.001,0.001 0.002,0.002 0.003,0.004 5.3e-4,-0.0211 10e-4,-0.0686 0.0165,-0.0615 0.0166,0.007 0.0473,0.0964 0.0729,0.17828 0.21492,0.32555 0.17921,0.67555 0.14366,1.06402 -0.001,0.26308 0.009,0.52596 0.008,0.78909 -0.002,0.31037 -0.002,0.62083 -0.001,0.93121 1.4e-4,0.17229 -5.3e-4,0.34498 -5.3e-4,0.51729 4e-5,0.15635 5.3e-4,0.31234 5.3e-4,0.4687 -5e-5,1.19211 -1.2044,1.19212 -1.20458,0 v -0.17467 c -0.13995,0.14334 -0.10051,0.033 0,-0.21445 v -0.0796 -0.12868 c -0.19323,0.20208 -0.46501,0.22038 -0.67179,0.0517 -0.0626,0.006 -0.12279,0.0116 -0.1757,0.0124 -0.008,0.0333 -0.0161,0.0691 -0.0243,0.10542 0.0843,0.0908 0.17785,0.17577 0.23151,0.28576 0.0486,0.0995 -0.16348,-0.1488 -0.24546,-0.22324 0.005,-0.022 0.009,-0.0415 0.0134,-0.0625 -0.0331,-0.0357 -0.0647,-0.0722 -0.092,-0.11163 -0.12086,-0.0178 -0.1689,-0.0773 -0.077,-0.216 -0.003,-0.0378 -0.002,-0.0762 -5.3e-4,-0.11421 -0.12402,0.0924 -0.26899,0.12063 -0.40617,0.0827 v 0.34985 c 0,1.19211 -1.20406,1.19211 -1.20406,0 v -0.41134 c -0.12021,-0.0281 -0.23409,-0.10348 -0.32195,-0.22635 -0.22015,-0.10482 -0.40049,-0.38283 -0.40049,-0.84284 v -0.0811 -0.88057 -0.12247 c -0.0589,-0.17822 -0.10784,-0.35978 -0.13281,-0.54932 0.0163,-0.15638 0.0122,-0.20264 0.0543,-0.34261 0.007,-0.0225 0.0144,0.0459 0.03,0.0636 0.007,0.007 0.008,-0.0184 0.0124,-0.0274 -0.0194,-0.0469 -0.0395,-0.0937 -0.0589,-0.14056 -0.15553,-0.26576 -0.19167,-0.28798 -0.26407,-0.63045 -0.0135,-0.0638 0,-0.13066 0,-0.19586 V 148.3 h -5.2e-4 c 0,-0.42015 0.15862,-0.69129 0.3607,-0.81494 v -1.41231 c 0,-0.59604 0.30096,-0.89401 0.60203,-0.89401 0.1172,0 0.23439,0.0456 0.33383,0.13591 0.1097,-0.1289 0.2486,-0.19585 0.3886,-0.19585 z m -51.42166,1.20303 h 5.3e-4 5.2e-4 l 5.3e-4,5.3e-4 v 5.3e-4 h 5.3e-4 5.3e-4 c 0.25897,2.6e-4 0.51689,0.22218 0.58395,0.66353 0.10806,-0.12084 0.24322,-0.1819 0.37878,-0.1819 0.0779,0 0.1557,0.0206 0.22841,0.0605 0.004,-1e-4 0.008,-5.3e-4 0.0119,-5.3e-4 0.30103,0 0.60255,0.29846 0.60255,0.89452 v 1.38441 c 0,0.16557 -0.0197,0.33273 0,0.49713 0.0154,0.12848 0.0696,0.24899 0.10438,0.37362 0.0464,0.0885 0.094,0.17641 0.13901,0.26561 0.11147,0.22077 0.25827,0.51673 0.34159,0.74879 0.0666,0.18558 0.13183,0.64856 0.13384,0.4377 0.15825,0.28567 0.17203,0.6006 0.14934,0.91829 -0.008,0.11723 -0.0348,0.23223 -0.0351,0.34985 0.0163,0.31146 0.014,0.6236 0.0104,0.93535 -0.0149,1.19208 -1.21966,1.17721 -1.20406,-0.015 0.004,-0.30295 0.001,-0.60616 -0.008,-0.90899 -0.30267,0.0992 -0.55627,-1.91869 -0.83458,-0.93844 -2.6e-4,0.001 2e-5,0.001 -5.3e-4,0.002 v 1.38131 1.12758 c 0,0.32519 -0.0905,0.55929 -0.22066,0.70693 -3e-5,0.0104 5.3e-4,0.0188 5.3e-4,0.0295 0.22492,-0.0232 0.29567,-0.0269 0,0.002 -1e-4,0.0122 2e-4,0.0233 0,0.0362 -5.3e-4,0.0583 0.0471,0.16566 -0.0108,0.17466 -0.39678,0.0588 -0.80241,0.004 -1.20355,0.006 -0.38895,0.002 -0.26841,-0.0332 0.0248,-0.077 -0.051,-0.0604 -0.009,-0.23636 -0.0372,-0.62942 -0.007,-0.0622 -0.014,-0.11544 -0.0212,-0.17364 -0.0982,-0.41871 -0.17525,-0.88901 -0.3979,-0.56224 0.097,0.21276 0.10499,0.35451 0.10025,0.65785 0.0334,0.0894 -0.0812,0.19213 -0.0589,0.28783 0.22797,0.97981 -0.87041,1.08436 -1.14412,0.38189 -0.31692,-0.015 -0.83571,-1.66454 -0.9555,-0.70125 -0.007,0.0543 -0.0247,0.10819 -0.0207,0.16278 2.2e-4,0.003 0.001,0.006 0.002,0.009 0.0145,0.032 0.0273,0.0641 0.0403,0.0966 0.004,0.0102 0.002,0.0436 -5.3e-4,0.0331 -0.0138,-0.0431 -0.0347,-0.085 -0.0403,-0.1297 -0.0537,-0.11873 -0.11361,-0.23501 -0.15244,-0.35916 -0.016,-0.0511 7.9e-4,-0.10721 0.001,-0.16071 0.002,-0.41579 -0.009,-0.83116 -0.008,-1.24695 0.0195,-0.5605 0.0847,-1.12031 -0.0418,-1.67535 h 5.3e-4 c -0.10073,-0.44212 0.007,-0.74923 0.1943,-0.8971 -0.0337,-0.0525 -0.0617,-0.0948 -0.11007,-0.17415 -0.0441,-0.0724 -0.0626,-0.15842 -0.0827,-0.24082 -0.0892,-0.36566 -0.0839,-0.72048 -0.0739,-1.09399 h 5.3e-4 c 0.0155,-0.59586 0.29116,-0.89293 0.57567,-0.89245 0.13904,2.4e-4 0.27989,0.0723 0.39378,0.21446 0.0356,-0.2545 0.1861,-0.4201 0.37672,-0.46664 0.0375,-0.0148 0.0775,-0.024 0.1204,-0.0248 0.1841,-0.003 0.41338,0.12813 0.64493,0.44338 1.8e-4,2.3e-4 0.63781,0.864 0.66611,0.91881 0.0918,0.17751 0.16737,0.36318 0.23254,0.55242 v -0.42116 -1.88929 c 0,-0.59572 0.30061,-0.89366 0.60151,-0.894 z m -2.40606,2.76624 c -0.008,0.17824 -0.0165,0.35526 0.046,0.52658 0.0112,0.0307 0.008,0.0775 0.0382,0.0904 0.0215,0.009 0.007,-0.0461 0.0103,-0.0692 0.0307,0.0441 0.0613,0.0882 0.092,0.13229 -0.0553,-0.22866 -0.11301,-0.45655 -0.18655,-0.68006 z m 0.72451,3.78013 c 2e-5,0.003 -3e-5,0.006 0,0.009 -1.3e-4,0.0127 1.2e-4,0.0255 0,0.0382 0.0125,0.0163 0.0255,0.0341 0.0372,0.0486 -0.0112,-0.0327 -0.0228,-0.065 -0.0372,-0.0956 z m 0.25734,0.59118 c 8e-5,2.7e-4 5.3e-4,7.9e-4 5.3e-4,0.001 -1e-5,-2.7e-4 -3e-5,-5.3e-4 0,-0.001 z m 5.3e-4,0.002 c -0.002,0.0208 -0.004,0.0421 -0.008,0.0667 0.01,-0.002 0.0178,-0.001 0.0248,0.008 -0.006,-0.0255 -0.0112,-0.0496 -0.017,-0.0744 z" />
    </clipPath>
    <clipPath
       clipPathUnits="userSpaceOnUse"
       id="clipPath1703">
      <path
         id="path1705"
         style="fill:none;stroke:#000000;stroke-width:1.265;stroke-linecap:round;stroke-linejoin:round;stroke-opacity:0.955017;paint-order:stroke markers fill"
         d="M 34.332272,58.324089 V 148.51548 H 139.66589 V 75.964357 c -0.69979,0.134226 -1.42004,0.146441 -2.14199,0.116787 -0.79869,0.212712 -1.59035,0.454668 -2.37763,0.711068 0.001,0.06258 0.001,0.125563 0,0.188618 0.24659,0.491345 0.47814,0.987539 0.59014,1.521355 0.0381,0.181419 -0.36413,0.07614 -0.53795,0.140559 -0.31414,0.116422 -0.60972,0.278887 -0.92191,0.400492 -0.19531,0.07608 -0.39084,0.163119 -0.59841,0.192239 -0.0358,0.0051 0.005,-0.07272 0.007,-0.109038 -0.0852,0.128799 -0.1706,0.257223 -0.25579,0.386022 -0.11067,0.135652 -0.21995,0.259395 -0.32815,0.377756 0.0143,0.01519 0.028,0.03158 0.0424,0.04703 0.30331,-0.158118 0.57815,-0.234088 0.81598,-0.240295 0.67587,-0.01765 1.05754,0.51412 0.97565,1.230416 0.14537,-0.014 0.29082,-0.02601 0.43666,-0.03514 -0.0626,-0.57732 -0.0645,-0.776208 0.0615,-0.0036 0.15172,-0.0087 0.30389,-0.01416 0.4563,-0.01551 0.0174,0.921872 0.0349,1.843857 0.0522,2.765721 0.0164,0.875067 -0.0745,0.628809 -0.19069,-0.01601 -1.21552,-0.01881 -2.49199,0.345728 -3.74758,0.356566 -0.20049,0.0016 -0.40101,0.0027 -0.60151,0.0041 -0.0988,-5.29e-4 -0.19736,-0.0021 -0.29611,-0.0031 -0.12653,0.02819 -0.2534,0.05315 -0.38085,0.07545 -0.10932,0.373049 -0.23154,0.738894 -0.46406,1.042829 -0.29054,0.37978 -1.31759,0.09044 -1.72909,0.134358 -0.22764,0.03093 -0.45734,0.04768 -0.68264,0.0925 -0.29368,0.05841 -0.52714,0.129051 -0.72348,0.18242 -0.1622,0.146177 -0.31132,0.235852 -0.40204,0.09095 -0.003,-0.0046 -0.005,-0.0088 -0.008,-0.01344 -0.36478,0.0097 -0.59563,-0.264006 -0.98909,-1.262972 -0.24046,0.15 -0.4798,0.302762 -0.74466,0.398941 -1.20679,0.438232 -1.96943,0.37433 -3.24734,0.418579 -0.85801,0.02971 -1.34117,0.03018 -1.78698,0.05064 0.04,0.114959 0.077,0.230306 0.10904,0.346231 0.47825,0.02143 0.95899,0.07185 1.43557,0.114723 0.005,1.22e-4 0.009,1.72e-4 0.0139,5.29e-4 0.27066,0.810292 0.67161,1.588231 0.81235,2.43086 0.0266,0.159117 -0.21288,0.249965 -0.35037,0.334346 -1.34884,0.827841 -2.25336,0.877829 -3.78375,0.951881 -0.66839,0.04002 -1.31214,-0.147717 -1.96732,-0.221176 -0.13713,-0.01537 -0.35324,0.03479 -0.48317,0.04496 -0.077,0.0037 -0.15485,0.0084 -0.23358,0.01241 -0.78009,0.518869 -0.76266,0.538004 -2.47065,-0.226859 -0.21545,-0.09649 -0.20783,-0.427519 -0.26613,-0.656291 -0.24924,-0.97876 -0.17239,-1.972945 -0.18139,-2.969845 0.026,-0.585277 0.003,-0.631312 0.10181,-1.044382 -0.0294,-0.122097 -0.0765,-0.242067 -0.11059,-0.351398 -0.33462,-0.838081 -0.41475,-0.85666 0.0377,-1.334286 0.008,-0.163663 0.011,-0.322175 -0.009,-0.458888 -0.0351,-0.466707 -0.0417,-0.91404 0.0207,-1.373042 -0.3858,-0.596985 -0.39406,-1.614829 -0.34881,-1.987992 0.068,-0.561239 1.60363,-0.921575 1.86551,-1.008724 2.04126,-0.229751 1.29857,-0.193185 3.42098,-0.232545 0.26182,-0.0048 0.80135,-0.01783 1.37563,-0.01704 0.0946,1.22e-4 0.18983,0.0021 0.28525,0.0031 0.0915,-0.209709 0.19361,-0.416124 0.31317,-0.6134 -0.11483,-1.075917 0.54542,-1.423085 1.3472,-1.58905 0.0966,-0.162843 0.19963,-0.320678 0.31419,-0.469739 -0.0104,-0.0042 -0.0206,-0.0088 -0.031,-0.01291 -0.0479,0.02955 -0.0959,0.05841 -0.14521,0.08526 -0.0461,0.02508 0.0778,-0.112228 0.1266,-0.09302 0.006,0.0024 0.0124,0.0053 0.0186,0.0078 0.0277,-0.01709 0.0552,-0.03479 0.0827,-0.05219 0.0489,-0.06053 0.0989,-0.119772 0.15245,-0.176734 0.2727,-0.290158 0.71866,-0.345871 1.09089,-0.487307 0.54342,-0.206483 1.09847,-0.387564 1.66036,-0.545187 0.12902,-0.161279 0.29126,-0.332473 0.56482,-0.65474 0.45292,-0.326671 0.36996,-0.297773 1.2051,-0.538467 0.0372,-0.01072 0.0759,-0.01323 0.11472,-0.01241 0.0647,0.0013 0.13082,0.01241 0.19534,0.01241 h 1.92701 5.3e-4 c 1.29911,0 1.97748,0.625777 2.03812,1.280541 0.22788,0.24438 0.24489,0.361463 0.1173,0.396359 0.0781,0.04177 0.15783,0.09283 0.23978,0.156578 0.11952,0.09296 0.64322,0.429807 1.09555,0.789098 0.0415,0.0048 0.0884,0.0039 0.12815,0.01035 0.23789,-0.09393 0.47636,-0.186952 0.71779,-0.271302 0.66235,-0.231417 1.33185,-0.442034 2.00246,-0.648541 0.42318,-0.959157 0.54733,-0.915363 1.28106,-0.90692 0.4859,0.03127 0.97353,0.07223 1.46141,0.09922 0.65064,-0.165971 1.31379,-0.303144 2.09083,-0.410311 0.10056,-0.01386 0.2168,-0.04785 0.33486,-0.08165 V 58.324089 Z M 136.41906,73.478718 c -0.0489,0.0021 -0.0968,0.03899 -0.14469,0.101288 0.0768,-0.02252 0.15503,-0.04646 0.23099,-0.06821 -0.029,-0.02315 -0.0578,-0.03438 -0.0863,-0.03307 z m -22.59552,5.067909 c -0.009,-0.006 0.0521,0.039 0.17053,0.130741 0.005,-0.0047 0.009,-0.0099 0.0134,-0.01447 -0.10306,-0.06141 -0.17457,-0.109979 -0.18396,-0.116271 z m 11.40964,0.196887 c -1.12215,0.170555 -2.2474,0.31591 -3.37861,0.417028 -0.0894,0.388541 -0.18114,0.776221 -0.27853,1.162719 0.002,2.9e-5 0.004,-1.6e-5 0.006,0 1.03722,0.01021 2.38658,-0.146743 2.69958,1.357024 0.0805,-0.06124 0.17653,-0.21055 0.24959,-0.195336 0.36687,0.0764 0.69142,0.128587 0.99064,0.177765 -0.10733,-0.170571 -0.0622,-0.646403 0.26407,-1.661395 -0.75435,-0.642676 -0.84513,-0.968232 -0.55294,-1.257805 z m 1.5198,2.290815 c -0.30078,0.232161 -0.68125,0.573593 -0.94981,0.675413 0.60634,0.105817 1.01679,0.21637 1.14877,0.521414 0.51994,-0.332621 0.64105,-0.419336 0.76223,-0.490927 -0.51636,-0.109868 -0.83612,-0.3766 -0.96119,-0.7059 z m -2.27376,0.675413 c -0.0511,0.0058 -0.10844,0.08581 -0.16175,0.185001 0.003,0.02619 0.007,0.05149 0.0104,0.07855 0.002,0.02339 10e-4,0.04568 10e-4,0.06821 0.0979,-0.04936 0.15817,-0.156046 0.23823,-0.232543 -0.0206,-0.07468 -0.0516,-0.103362 -0.0879,-0.09922 z m 6.1526,2.360578 c -0.10928,0.01783 -0.21899,0.0353 -0.32866,0.04858 0.0531,0.12705 0.0977,0.229997 0.15657,0.373621 0.0575,-0.140679 0.11472,-0.281461 0.17209,-0.422198 z m -17.93948,0.276471 c -0.004,0.02662 -0.007,0.05139 -0.008,0.06976 -0.003,0.04313 0.0224,0.170305 0.0259,0.127125 0.004,-0.06503 -0.005,-0.131318 -0.0181,-0.196887 z m 3.70314,1.712555 c -0.004,0.04892 -0.007,0.09785 -0.0104,0.146762 -0.003,0.04437 -0.002,0.09097 0.001,0.137975 0.0301,0.0016 0.0604,0.0024 0.0904,0.0031 0.005,-0.07452 -0.004,-0.1475 -0.0403,-0.217556 -0.0125,-0.02439 -0.0265,-0.04748 -0.0408,-0.07028 z M 60.830912,107.67921 v 0.001 c 0.04136,0.25607 0.114372,0.51383 0.192236,0.77205 0.521195,0.43274 0.978395,0.96698 1.499135,1.40043 -0.532347,0.39668 -0.579782,0.44686 -1.130681,0.74259 0.009,0.0113 0.01677,0.0229 0.02119,0.0351 0.571807,1.59604 0.220919,2.18679 -0.45062,2.45463 0.117583,7.9e-4 0.257577,-0.003 0.363802,0 0.09337,0.002 0.250571,-0.0388 0.351401,-0.0336 0.0605,0.003 0.101145,0.0234 0.09508,0.0791 -0.05431,0.50016 -0.08139,0.78832 -0.114204,1.12603 0.06334,-0.025 0.126793,-0.0499 0.191203,-0.0729 0.218406,-0.078 0.640012,-0.35055 0.684713,-0.12299 0.353782,1.80112 0.434967,2.46502 0.09405,2.76727 0.01696,0.01 0.04148,0.0106 0.06925,0.005 0.08464,-0.0416 0.165214,-0.0806 0.271817,-0.13436 0.08691,-0.0438 -0.136234,0.11204 -0.271817,0.13436 -0.729234,0.35861 -0.696444,0.29922 -0.57671,0.21032 -0.0016,2.6e-4 -0.003,2.7e-4 -0.0047,5.3e-4 -0.190254,0.12183 -0.640387,0.40334 -1.46916,0.91209 2.482813,-0.21651 1.999644,0.27449 1.708938,1.85002 -0.586451,0.71454 -1.143965,1.67668 -1.89394,2.2102 -0.41026,0.2918 -0.961985,0.20755 -1.427303,0.22634 -0.570669,5.3e-4 -1.140243,-0.0323 -1.710491,-0.0124 -0.365519,0.0272 -0.688293,0.0686 -0.996321,0.0641 -0.0037,0.10266 -0.008,0.20536 -0.0093,0.308 -0.356764,1.19711 -0.03336,0.15624 -0.22996,0.70228 -0.0011,0.0145 -0.0016,0.029 -0.0031,0.0434 -0.0038,0.0365 -0.06014,0.13399 -0.04806,0.0992 0.02318,-0.0665 0.0354,-0.0988 0.05116,-0.14262 0.0095,-0.13227 0.0024,-0.26521 0.0047,-0.39791 0.0058,-0.33469 -0.02957,-0.53666 -0.0956,-0.64079 -0.08625,-0.0138 -0.172048,-0.0311 -0.257865,-0.0584 -0.716537,0.3264 -2.278327,3.31389 -2.346627,1.2361 -0.01537,-0.46753 -0.0021,-0.88476 0.199472,-1.3069 -0.143211,-0.50582 -0.169918,-0.99295 -0.08372,-1.44694 -0.754824,0.73051 0.237141,-0.16857 -1.681551,1.54203 -0.277998,0.12999 -0.61654,0.60662 -0.834057,0.39015 -0.363228,-0.36151 -0.674825,-0.79817 -0.905372,-1.27072 0.0074,0.37176 -0.191416,0.55496 -0.550871,1.32085 -0.318283,0.24081 -0.605589,0.5295 -0.954979,0.72243 -0.250185,0.13815 -0.510061,0.25749 -0.775147,0.36587 -0.27441,0.3652 -0.550828,0.72893 -0.813387,1.10226 0.03443,0.0784 0.06657,0.15752 0.09405,0.23875 0.05084,0.15031 0.0024,0.31727 0.0011,0.47594 -5.29e-4,0.0506 -0.0019,0.10092 -0.0026,0.15141 0.403346,0.0443 0.701563,0.23676 0.694531,0.7121 -0.0055,0.37381 -0.105759,0.73672 -0.205155,1.10019 0.01296,0.13327 -0.0024,0.27032 0.0041,0.40463 0.009,0.18852 0.02143,0.3769 0.03204,0.56534 0.03214,0.56299 0.133713,1.18886 -0.503327,1.60869 -0.09169,0.0604 -0.190008,0.10339 -0.293008,0.13435 -0.251391,0.31558 -0.653923,0.51488 -1.296043,0.49558 -0.414681,0.0187 -1.741072,0.33639 -1.944068,-0.0791 -0.675217,-1.3818 -0.77856,-1.8201 -0.483693,-2.15595 -0.05,-0.0225 -0.08503,-0.0752 -0.131773,-0.10593 -0.146772,-0.0964 -0.292039,-0.19607 -0.446484,-0.27957 -0.912932,-0.49375 -1.35527,-0.45089 -2.365232,-0.22324 -0.54341,-0.006 -1.26165,0.3816 -1.629873,-0.0181 -0.480119,-0.52113 -0.405961,-1.36312 -0.409795,-2.08514 -0.151773,0.008 -0.303239,0.0166 -0.454753,0.0274 -0.441595,-0.0167 -1.053274,0.29889 -1.324983,-0.0496 -0.167619,-0.21499 -0.263276,-0.46513 -0.327112,-0.73122 -0.097,-0.09 -0.18746,-0.1897 -0.287322,-0.27543 0.08052,0.0151 0.160367,0.0281 0.239263,0.0398 -0.09905,-0.55838 -0.113631,-1.16108 -0.378788,-1.64951 -0.0164,-0.0302 -0.04293,-0.0329 -0.07493,-0.0176 -0.08473,0.083 -0.168005,0.1674 -0.241329,0.25889 0.07788,-0.10864 0.17199,-0.22567 0.241329,-0.25889 0.06519,-0.0639 0.130884,-0.1273 0.194302,-0.19172 0.04333,-0.044 0.09536,-0.10017 0.157096,-0.0982 0.365133,0.009 0.729073,0.0397 1.092957,0.0734 -0.448511,-0.44064 -0.624475,-0.83898 -0.517282,-1.21956 -0.417361,-0.0312 -0.813585,-0.0973 -1.074353,-0.39016 -1.059358,-1.18987 0.864436,-2.54659 1.603004,-2.85874 0.531516,-0.22464 1.096886,-0.37855 1.667082,-0.46715 0.775305,-0.12047 1.565825,-0.10428 2.348693,-0.15658 0.790781,-0.0117 1.581713,-0.0214 2.372465,-0.0351 0.429694,-0.007 0.885595,-0.14498 1.313614,-0.14625 0.194556,-5.3e-4 0.383236,0.027 0.561208,0.10749 0.294971,0.13348 0.562621,0.25906 0.809252,0.37775 0.01553,-0.003 0.03149,-0.006 0.04599,-0.008 -0.01058,0.004 -0.01966,0.009 -0.02635,0.0171 0.02908,0.014 0.0589,0.028 0.08733,0.0419 0.0011,-0.0109 0.0019,-0.021 0.0031,-0.032 0.0032,-0.0292 -0.0258,-0.0315 -0.06305,-0.0269 0.07759,-0.0249 0.264964,0.0717 0.671795,0.24857 0.01048,0.023 0.01775,0.0382 0.02791,0.0605 0.0336,-0.0379 0.07075,-0.0762 0.115237,-0.11472 0.0087,-0.008 0.07189,0.13623 0.148828,0.32711 1.873094,1.02089 1.431766,1.27367 0.727604,1.10432 -0.01262,0.009 -0.02453,0.0186 -0.03721,0.0274 0.614551,0.16173 1.290077,0.0602 1.897041,0.25528 0.03326,0.0107 0.06116,0.0299 0.0863,0.0527 0.07532,-0.24151 1.477541,-1.24341 1.630391,-1.37666 0.153265,-0.13361 0.271939,-0.30298 0.416513,-0.44596 0.21445,-0.21207 0.439909,-0.41227 0.659907,-0.61857 0.138809,-0.0747 0.392227,-0.20831 0.665076,-0.3545 0.08515,-0.0798 0.128685,-0.12187 0.22221,-0.20929 0.397272,-0.37148 0.802587,-0.73404 1.206127,-1.09864 -0.183502,-0.0265 -0.352094,-0.0563 -0.45837,-0.0734 -0.216251,-0.0143 -0.43276,-0.024 -0.649573,-0.0315 -0.02119,0.003 -0.04253,0.007 -0.06356,0.0124 -0.153651,0.003 -0.307297,0.007 -0.460954,0.008 -0.03338,0.002 -0.06686,0.004 -0.100253,0.006 -0.07563,0.014 -0.17176,0.0516 -0.208257,0.016 -0.155093,0.0221 -0.282969,0.0219 -0.387056,0 -0.467765,-7.9e-4 -0.93631,-0.0244 -1.404048,-0.0238 -0.311568,0.001 -0.794944,0.2818 -0.934826,0.003 -0.157086,0.002 -0.314405,0.005 -0.471289,0.006 -0.0416,-0.001 -0.131236,0.0377 -0.124542,-0.004 0.04322,-0.26552 0.07161,-0.53812 0.100769,-0.8108 -0.04819,-0.009 -0.09692,-0.0186 -0.146243,-0.0289 0.01177,-0.89445 -0.306351,-1.857 0.03566,-2.68356 0.142435,-0.34424 0.741389,-0.0786 1.113626,-0.0941 0.102026,-0.004 0.2042,-0.007 0.30644,-0.009 0.429702,-0.34391 0.115131,-0.16756 1.136883,-0.50591 0.15956,-0.004 0.318643,0.001 0.478007,0.002 0.0067,-0.006 0.01341,-0.0122 0.02016,-0.0181 0.08167,-0.0133 0.173757,0.002 0.245462,-0.0398 0.443222,-0.25517 0.855763,-0.56012 1.283644,-0.84026 -0.15781,0.0371 -0.614169,0.19282 -0.473874,0.11162 0.529072,-0.30629 0.998244,-0.33241 1.580267,-0.42891 v -5.3e-4 c 0.204369,-0.0339 0.395692,-0.0488 0.57464,-0.0486 0.212212,-0.47289 0.544219,-0.83278 0.994773,-1.2392 0.629922,-0.25596 -1.123831,0.46176 0.743106,-0.36897 0.588566,-0.2619 1.209154,-0.44285 1.820561,-0.63975 0.374393,-0.12058 0.766344,-0.52343 1.123963,-0.35967 0.06551,0.03 0.128934,0.0623 0.19172,0.0966 0.167846,-0.10619 0.323043,-0.21315 0.451651,-0.32556 z M 47.72887,119.787 c -0.03822,-0.01 -0.07649,-0.0213 -0.114205,-0.0336 -0.0236,-0.008 -0.0222,-0.0208 -0.01188,-0.0362 -0.612188,-0.19445 -1.300017,-0.66814 -0.870234,-1.22422 -0.181475,-0.0944 -0.379497,-0.1941 -0.597894,-0.30024 -0.02313,0.21635 -0.04116,0.41618 -0.0553,0.60255 0.0084,0.0981 0.01651,0.2043 0.02066,0.32763 0.318225,0.22836 0.511533,0.55545 0.566373,0.8971 0.221056,0.006 0.447955,0.0182 0.632521,0.0501 0.144555,-0.0928 0.28879,-0.18575 0.429947,-0.28319 z m -0.996323,-1.29398 c 0.02839,0.0148 0.05775,0.0305 0.08527,0.045 -0.01519,-0.0331 -0.02747,-0.0602 -0.04341,-0.0951 -0.01487,0.0167 -0.02903,0.0335 -0.04186,0.0501 z m 12.811623,0.0729 c -0.0063,0.003 -0.01275,0.007 -0.01913,0.01 0.0016,0.005 0.0026,0.01 0.0041,0.0145 0.0048,-0.008 0.01029,-0.0159 0.01497,-0.0243 z m -0.0646,0.1049 c -0.01029,10e-4 -0.0181,0.003 -0.02894,0.004 0.0056,0.003 0.01847,2e-4 0.02585,0.002 0.0011,-0.002 0.0019,-0.004 0.0031,-0.006 z m -9.340516,1.31826 c -0.05404,0.001 -0.09437,0.13535 -0.143143,0.18759 0.110215,-0.0981 0.09504,-0.0845 0.186034,-0.16536 -0.0063,-0.005 -0.01225,-0.009 -0.0186,-0.0139 -0.0083,-0.006 -0.01656,-0.008 -0.02429,-0.008 z m -13.075172,2.73214 c -0.06985,-0.002 0.137316,0.0431 0.206706,0.0351 0.0391,-0.005 0.07824,-0.0105 0.117306,-0.016 -0.0678,-0.0109 -0.161772,-0.0137 -0.324012,-0.0191 z m 9.907924,2.21382 c -0.01053,0.001 -0.02101,0.003 -0.03152,0.005 -0.01765,0.0254 -0.03572,0.0505 -0.05323,0.076 -0.02212,0.0322 0.123447,-0.0856 0.08475,-0.0806 z m -1.580266,5.46891 c -0.02141,0.0107 -0.04282,0.0211 -0.06615,0.0238 -0.502214,0.0582 -0.70312,-0.0438 -0.397391,0.0796 0.254545,-0.0178 0.399608,-0.0257 0.463537,-0.10335 z" />
    </clipPath>
  </defs>
  <g
     inkscape:label="Layer 1"
     inkscape:groupmode="layer"
     id="layer1"
     style="display:inline">
    <g
       id="g1779"
       transform="matrix(0.41268051,0,0,0.45404069,69.846816,10.324076)" />
    <path
       style="fill:#ffffff;stroke:#000000;stroke-width:1.91287;stroke-linecap:round;stroke-linejoin:round;stroke-miterlimit:4;stroke-dasharray:none;stroke-opacity:0.955017;paint-order:stroke markers fill"
       d=""
       id="path3344"
       transform="scale(0.26458333)" />
    <path
       style="fill:#ffffff;stroke:#000000;stroke-width:1.91287;stroke-linecap:round;stroke-linejoin:round;stroke-miterlimit:4;stroke-dasharray:none;stroke-opacity:0.955017;paint-order:stroke markers fill"
       d=""
       id="path3383"
       transform="scale(0.26458333)" />
    <path
       style="fill:#ffffff;stroke:#000000;stroke-width:1.91287;stroke-linecap:round;stroke-linejoin:round;stroke-miterlimit:4;stroke-dasharray:none;stroke-opacity:0.955017;paint-order:stroke markers fill"
       d=""
       id="path3734"
       transform="scale(0.26458333)" />
    <path
       style="fill:#ffffff;stroke:#000000;stroke-width:1.91287;stroke-linecap:round;stroke-linejoin:round;stroke-miterlimit:4;stroke-dasharray:none;stroke-opacity:0.955017;paint-order:stroke markers fill"
       d=""
       id="path4085"
       transform="scale(0.26458333)" />
    <path
       style="fill:#ffffff;stroke:#000000;stroke-width:1.91287;stroke-linecap:round;stroke-linejoin:round;stroke-miterlimit:4;stroke-dasharray:none;stroke-opacity:0.955017;paint-order:stroke markers fill"
       d=""
       id="path4768"
       transform="scale(0.26458333)" />
    <path
       style="fill:#93a7ac;stroke:none;stroke-width:1.91287;stroke-linecap:round;stroke-linejoin:round;stroke-opacity:0.955017;paint-order:stroke markers fill"
       d=""
       id="path2798"
       transform="scale(0.26458333)" />
    <path
       style="fill:#374548;stroke:none;stroke-width:1.91287;stroke-linecap:round;stroke-linejoin:round;stroke-opacity:0.955017;paint-order:stroke markers fill"
       d=""
       id="path3888"
       transform="scale(0.26458333)" />
    <path
       style="fill:#374548;stroke:none;stroke-width:1.91287;stroke-linecap:round;stroke-linejoin:round;stroke-opacity:0.955017;paint-order:stroke markers fill"
       d=""
       id="path4272"
       transform="scale(0.26458333)" />
    <path
       style="fill:#374548;stroke:none;stroke-width:1.91287;stroke-linecap:round;stroke-linejoin:round;stroke-opacity:0.955017;paint-order:stroke markers fill"
       d=""
       id="path4428"
       transform="scale(0.26458333)" />
    <path
       style="fill:#374548;stroke:none;stroke-width:1.91287;stroke-linecap:round;stroke-linejoin:round;stroke-opacity:0.955017;paint-order:stroke markers fill"
       d=""
       id="path4467"
       transform="scale(0.26458333)" />
    <path
       style="fill:#374548;stroke:none;stroke-width:1.91287;stroke-linecap:round;stroke-linejoin:round;stroke-opacity:0.955017;paint-order:stroke markers fill"
       d=""
       id="path4543"
       transform="scale(0.26458333)" />
    <path
       style="fill:#374548;stroke:none;stroke-width:1.91287;stroke-linecap:round;stroke-linejoin:round;stroke-opacity:0.955017;paint-order:stroke markers fill"
       d=""
       id="path4621"
       transform="scale(0.26458333)" />
    <path
       id="path1914"
       style="fill:none;stroke:#000000;stroke-width:1.079;stroke-linecap:round;stroke-linejoin:round;stroke-miterlimit:4;stroke-dasharray:none;stroke-opacity:0.955017;paint-order:stroke markers fill"
       d="m 47.154895,14.195882 a 4.3426887,3.9824962 0 0 1 -4.342689,3.982496 4.3426887,3.9824962 0 0 1 -4.34269,-3.982496 4.3426887,3.9824962 0 0 1 4.34269,-3.982497 4.3426887,3.9824962 0 0 1 4.342689,3.982497 z M 44.751336,4.974873 43.561222,5.4710647 c -0.713015,0.297277 -0.796075,0.8687519 -0.186228,1.2813341 l 9.312654,6.3003562 c 0.609843,0.412582 1.674816,0.505409 2.387836,0.208132 l 1.190109,-0.496191 c 0.71302,-0.297278 0.796079,-0.868753 0.186237,-1.281335 L 47.139171,5.1830041 C 46.529329,4.770422 45.464356,4.6775954 44.751336,4.974873 Z m -4.954292,-2.6e-6 1.190114,0.4961928 c 0.713012,0.2972759 0.796075,0.8687508 0.186233,1.2813321 l -9.312659,6.3003577 c -0.609843,0.412582 -1.674816,0.505408 -2.387831,0.208132 l -1.190114,-0.496193 c -0.71302,-0.297278 -0.796075,-0.868751 -0.186233,-1.281332 l 9.312659,-6.3003581 c 0.609842,-0.4125815 1.674812,-0.505409 2.387831,-0.2081315 z M 35.314275,52.335841 v 0.647989 c 0,0.524525 -0.545285,0.946797 -1.222612,0.946797 h -10.34318 c -0.677327,0 -1.222616,-0.422272 -1.222616,-0.946797 v -0.647989 c 0,-0.524522 0.545289,-0.946793 1.222616,-0.946793 h 10.34318 c 0.677327,0 1.222612,0.422271 1.222612,0.946793 z m 30.362223,0 v 0.647989 c 0,0.524525 -0.545285,0.946797 -1.222612,0.946797 H 54.110702 c -0.677327,0 -1.222613,-0.422272 -1.222613,-0.946797 v -0.647989 c 0,-0.524522 0.545286,-0.946793 1.222613,-0.946793 h 10.343184 c 0.677327,0 1.222612,0.422271 1.222612,0.946793 z M 37.054426,52.98383 v -0.647986 c 0,-0.524525 0.545285,-0.946796 1.222612,-0.946796 h 10.343184 c 0.677327,0 1.222612,0.422271 1.222612,0.946796 v 0.647986 c 0,0.524525 -0.545285,0.946797 -1.222612,0.946797 H 38.277038 c -0.677327,0 -1.222612,-0.422272 -1.222612,-0.946797 z m 7.984167,12.079114 h 0.65781 c 0.532476,0 0.961146,0.249673 0.961146,0.559806 v 4.735878 c 0,0.310133 -0.42867,0.559806 -0.961146,0.559806 h -0.65781 c -0.532476,0 -0.961147,-0.249673 -0.961147,-0.559806 V 65.62275 c 0,-0.310133 0.428671,-0.559806 0.961147,-0.559806 z m 9.893077,11.944162 a 7.9627268,3.4977468 0 0 1 -7.962727,3.497746 7.9627268,3.4977468 0 0 1 -7.962728,-3.497746 7.9627268,3.4977468 0 0 1 7.962728,-3.497746 7.9627268,3.4977468 0 0 1 7.962727,3.497746 z m 4.003607,0.129544 A 12.277725,6.2182169 0 0 1 46.657549,83.35487 12.277725,6.2182169 0 0 1 34.379826,77.13665 12.277725,6.2182169 0 0 1 46.657549,70.918434 12.277725,6.2182169 0 0 1 58.935277,77.13665 Z M 44.504781,57.911999 h 0.657805 c 0.532477,0 0.961147,0.249672 0.961147,0.559802 v 4.735881 c 0,0.310133 -0.42867,0.559803 -0.961147,0.559803 h -0.657805 c -0.532477,0 -0.961147,-0.24967 -0.961147,-0.559803 v -4.735881 c 0,-0.31013 0.42867,-0.559802 0.961147,-0.559802 z m 18.601517,4.305467 0.353844,-0.438503 c 0.286426,-0.354954 0.830584,-0.488971 1.22008,-0.300487 l 5.94783,2.878295 c 0.389491,0.188483 0.472465,0.625983 0.186039,0.980937 l -0.353844,0.438506 c -0.28643,0.354954 -0.83058,0.488971 -1.220076,0.300487 l -5.94783,-2.878292 c -0.389495,-0.188486 -0.472469,-0.625986 -0.186043,-0.980943 z m 18.498076,1.329887 a 4.1121714,5.9411198 52.350897 0 1 0.284456,6.385544 4.1121714,5.9411198 52.350897 0 1 -7.536067,2.601017 4.1121714,5.9411198 52.350897 0 1 -0.284456,-6.38555 4.1121714,5.9411198 52.350897 0 1 7.536067,-2.601011 z m 1.967851,-2.189107 a 7.1454832,9.372199 61.715265 0 1 1.360956,10.292216 7.1454832,9.372199 61.715265 0 1 -12.542206,3.564153 7.1454832,9.372199 61.715265 0 1 -1.36096,-10.292216 7.1454832,9.372199 61.715265 0 1 12.54221,-3.564153 z m -29.203758,-3.451681 0.353846,-0.438506 c 0.286427,-0.354954 0.83058,-0.488974 1.220077,-0.300488 l 5.947823,2.878292 c 0.389496,0.188487 0.472474,0.625987 0.186048,0.980941 l -0.353852,0.438505 c -0.286422,0.354954 -0.830576,0.488968 -1.220076,0.300482 L 54.554511,58.887499 C 54.165015,58.699012 54.08204,58.261516 54.368467,57.906565 Z m -31.286765,6.265441 0.533319,0.189069 c 0.431704,0.153046 0.633913,0.522109 0.45338,0.827505 l -2.756824,4.663499 c -0.180533,0.305393 -0.673415,0.428039 -1.10512,0.274993 l -0.533318,-0.189066 c -0.431704,-0.153047 -0.633913,-0.522112 -0.45338,-0.827505 l 2.756824,-4.6635 c 0.180533,-0.305393 0.673415,-0.428039 1.105119,-0.274995 z m 1.067947,14.605097 a 6.9127671,3.8907002 14.19589 0 1 -8.491873,1.15563 6.9127671,3.8907002 14.19589 0 1 -4.419694,-5.732951 6.9127671,3.8907002 14.19589 0 1 8.491871,-1.155627 6.9127671,3.8907002 14.19589 0 1 4.419696,5.732948 z m 3.170514,1.278289 a 10.713527,6.8814633 11.306787 0 1 -13.573882,2.594297 10.713527,6.8814633 11.306787 0 1 -6.3344571,-9.652067 10.713527,6.8814633 11.306787 0 1 13.5738841,-2.594297 10.713527,6.8814633 11.306787 0 1 6.334455,9.652067 z m -0.48498,-22.823225 0.533319,0.189069 c 0.431704,0.153047 0.633911,0.522112 0.453381,0.827502 l -2.756825,4.663502 c -0.180531,0.30539 -0.673415,0.428039 -1.10512,0.274996 L 23.42662,62.998167 C 22.994916,62.84512 22.792709,62.476055 22.97324,62.170662 l 2.756825,-4.663503 c 0.18053,-0.305386 0.673414,-0.428036 1.105118,-0.274992 z M 42.888384,37.078161 h 1.227113 c 0.993309,0 1.792977,0.525206 1.792977,1.177595 v 9.962321 c 0,0.652386 -0.799668,1.177592 -1.792977,1.177592 h -1.227113 c -0.993309,0 -1.792976,-0.525206 -1.792976,-1.177592 v -9.962321 c 0,-0.652389 0.799667,-1.177595 1.792976,-1.177595 z M 42.553196,20.347037 h 1.227113 c 0.993309,0 1.792977,0.525206 1.792977,1.177593 v 9.962323 c 0,0.652387 -0.799668,1.177593 -1.792977,1.177593 h -1.227113 c -0.993309,0 -1.792976,-0.525206 -1.792976,-1.177593 V 21.52463 c 0,-0.652387 0.799667,-1.177593 1.792976,-1.177593 z" />
    <path
       style="fill:#000000;stroke:#000000;stroke-width:4.86353;stroke-linecap:round;stroke-linejoin:round;stroke-opacity:0.955017;paint-order:stroke markers fill"
       d=""
       id="path2094"
       transform="scale(0.26458333)" />
    <path
       style="fill:#000000;stroke:#000000;stroke-width:4.86353;stroke-linecap:round;stroke-linejoin:round;stroke-opacity:0.955017;paint-order:stroke markers fill"
       d=""
       id="path2601"
       transform="scale(0.26458333)" />
    <path
       id="path2797"
       style="fill:#000000;stroke:#000000;stroke-width:1.787;stroke-linecap:round;stroke-linejoin:round;stroke-miterlimit:4;stroke-dasharray:none;stroke-opacity:0.955017;paint-order:stroke markers fill"
       d="m 135.68393,12.497056 c -0.87818,-0.396736 -0.94607,-0.488715 -0.58307,-0.789978 1.40326,-1.164604 9.86869,-6.7142054 10.24193,-6.7142054 0.58115,0 2.52112,0.771825 2.52112,1.003038 0,0.342902 -9.78292,6.7261224 -10.47873,6.8372204 -0.38903,0.06212 -1.1546,-0.08912 -1.70125,-0.336075 z m 13.00865,36.068331 c -0.55777,-0.39068 -0.57152,-0.52239 -0.57152,-5.47732 0,-3.60591 0.0894,-5.16642 0.30858,-5.385584 0.40065,-0.400654 3.09661,-0.400654 3.49726,0 0.21976,0.219764 0.30858,1.812904 0.30858,5.535114 v 5.22653 l -0.65962,0.25078 c -0.97424,0.37041 -2.23427,0.30507 -2.88328,-0.14952 z M 148.4425,31.951111 c -0.57117,-0.289367 -0.57859,-0.359527 -0.57859,-5.473994 0,-3.686696 0.089,-5.269865 0.30858,-5.489451 0.40065,-0.40065 3.0966,-0.40065 3.49726,0 0.2191,0.219099 0.30858,1.775918 0.30858,5.368684 0,4.184979 -0.0667,5.115489 -0.38587,5.380345 -0.53067,0.440417 -2.44646,0.570823 -3.14996,0.214416 z m -0.82746,-14.818117 c -1.36028,-0.750375 -1.93691,-1.686494 -1.93691,-3.14441 0,-1.0813 0.12209,-1.378585 0.89273,-2.173678 1.725,-1.779748 4.01647,-1.8447624 5.69952,-0.161709 1.15076,1.150761 1.42031,2.046081 1.01913,3.385104 -0.63227,2.110337 -3.63605,3.219162 -5.67447,2.094693 z m 7.64645,-7.5177584 c -2.72506,-1.842125 -4.99158,-3.457276 -5.03673,-3.589226 -0.12582,-0.367723 1.79922,-1.083041 2.52502,-0.938263 0.76276,0.15215 10.28604,6.4969464 10.28604,6.8529784 0,0.294709 -1.66734,1.023829 -2.34128,1.023829 -0.26312,0 -2.708,-1.507193 -5.43305,-3.3493184 z M 129.68577,52.916587 c -0.0888,-0.23137 -0.0436,-0.60746 0.10038,-0.83574 0.22788,-0.36127 0.98781,-0.41506 5.86309,-0.41506 4.87528,0 5.6352,0.0538 5.86308,0.41506 0.144,0.22828 0.18917,0.60437 0.10039,0.83574 -0.14286,0.37227 -0.82907,0.42068 -5.96347,0.42068 -5.1344,0 -5.82062,-0.0484 -5.96347,-0.42068 z m 14.75425,0.25404 c -0.33129,-0.3313 -0.17685,-1.321 0.23053,-1.47733 0.62658,-0.24044 10.73387,-0.17702 11.12325,0.0698 0.18917,0.11991 0.30489,0.49422 0.25716,0.8318 l -0.0868,0.6138 -5.67396,0.0691 c -3.12068,0.038 -5.75326,-0.0102 -5.85019,-0.10714 z m 15.58957,-0.25404 c -0.0888,-0.23137 -0.0436,-0.60746 0.10038,-0.83574 0.22788,-0.36127 0.98781,-0.41506 5.86309,-0.41506 4.87528,0 5.6352,0.0538 5.86308,0.41506 0.144,0.22828 0.18917,0.60437 0.10039,0.83574 -0.14286,0.37227 -0.82907,0.42068 -5.96347,0.42068 -5.1344,0 -5.82062,-0.0484 -5.96347,-0.42068 z m 20.02516,22.04662 c -4.60023,-1.58882 -5.17359,-6.74489 -1.19392,-10.73674 3.33643,-3.34665 8.36024,-4.34364 11.71007,-2.32389 1.90057,1.14592 2.62382,2.53652 2.49985,4.80654 -0.11092,2.03137 -0.81514,3.58498 -2.32372,5.12649 -3.02381,3.08981 -7.23506,4.32164 -10.69228,3.1276 z m 6.0225,-2.67357 c 1.45832,-0.73899 3.30966,-2.62199 3.85046,-3.91631 0.48309,-1.15618 0.46531,-3.04085 -0.0379,-4.01388 -0.59052,-1.14194 -2.37588,-1.87159 -4.03953,-1.6509 -4.44108,0.58913 -8.00281,5.26671 -6.46997,8.49693 0.93858,1.97791 3.96599,2.46801 6.6969,1.08416 z m -59.657,-2.96299 c -0.0718,-0.11611 0.50628,-1.27329 1.28456,-2.5715 0.98415,-1.64164 1.56277,-2.36039 1.90018,-2.36039 0.89687,0 0.79939,0.48705 -0.56455,2.82053 -1.05842,1.81079 -1.48224,2.32249 -1.92361,2.32249 -0.31136,0 -0.62482,-0.095 -0.69658,-0.21113 z m 3.83996,-6.97107 c -0.23535,-0.3808 2.4799,-4.89117 2.94609,-4.89382 1.04425,-0.006 0.99043,0.40529 -0.35282,2.69643 -0.92822,1.58323 -1.52176,2.33274 -1.89021,2.38693 -0.2954,0.0434 -0.61178,-0.0418 -0.70306,-0.18954 z m -6.46893,20.56714 c -6.97771,-1.09044 -11.66282,-6.1475 -9.20584,-9.93672 1.38003,-2.12833 3.84291,-3.16982 7.52625,-3.18267 3.98846,-0.0139 7.59314,1.25667 9.93722,3.50268 4.46781,4.28093 1.76001,9.14614 -5.39996,9.70232 -0.84859,0.0659 -2.13455,0.0274 -2.85767,-0.0856 z m 4.94288,-2.44998 c 2.49448,-0.74077 3.43482,-2.7507 2.24948,-4.80811 -0.78676,-1.36559 -3.35628,-2.93131 -5.64699,-3.44094 -4.8066,-1.06937 -8.52826,0.59641 -7.97085,3.56767 0.62881,3.35181 7.00457,5.97729 11.36836,4.68138 z m 35.50212,-20.73266 c -2.55336,-1.29424 -2.99275,-1.60218 -2.73289,-1.9153 0.50466,-0.60807 1.11686,-0.44913 4.22028,1.09567 2.78715,1.38737 2.9276,1.49424 2.53449,1.92863 -0.2289,0.25293 -0.54289,0.45387 -0.69776,0.44653 -0.15487,-0.007 -1.65073,-0.70732 -3.32412,-1.55553 z m 8.84157,4.37786 -3.20125,-1.53523 0.5166,-0.51659 0.51659,-0.5166 3.07038,1.46408 c 1.68871,0.80524 3.12415,1.50883 3.18986,1.56353 0.16052,0.13361 -0.35185,0.92722 -0.65215,1.01011 -0.13133,0.0363 -1.67934,-0.62493 -3.44003,-1.4693 z m -21.87098,3.77587 c 0,-2.56301 0.19524,-2.94514 1.32199,-2.58752 0.42148,0.13377 0.47807,0.43885 0.47807,2.57734 v 2.42561 h -0.90003 -0.90003 z m -0.19286,-4.69796 c -0.22521,-0.0909 -0.32144,-0.85461 -0.32144,-2.55121 v -2.4215 h 0.90003 0.90003 v 2.41542 c 0,1.96533 -0.0758,2.44451 -0.40676,2.57151 -0.45538,0.17475 -0.60859,0.17271 -1.07186,-0.0142 z m -0.69716,19.44392 c -4.64523,-0.72579 -7.9756,-2.60572 -8.65942,-4.88808 -0.38043,-1.26977 -0.009,-2.22485 1.33907,-3.4427 2.29777,-2.0759 5.64351,-3.07489 10.26758,-3.06574 4.80657,0.01 8.24348,1.00476 10.49542,3.03926 4.05731,3.66553 -0.79619,8.04137 -9.39582,8.47113 -1.38266,0.0691 -3.20373,0.0179 -4.04683,-0.11387 z m 8.6393,-2.78251 c 4.45134,-1.72819 3.8743,-4.99479 -1.12404,-6.36313 -0.78359,-0.21452 -2.54486,-0.37422 -4.1823,-0.37923 -3.63682,-0.0111 -5.9483,0.63919 -7.38753,2.07842 -1.1619,1.1619 -1.23852,1.95742 -0.29637,3.0771 1.46262,1.73822 3.70381,2.34911 8.1982,2.2346 2.68324,-0.0684 3.62894,-0.19619 4.79204,-0.64776 z" />
    <path
       id="path2935"
       style="fill:#ffffff;stroke:#000000;stroke-width:1.787;stroke-linecap:round;stroke-linejoin:round;stroke-miterlimit:4;stroke-dasharray:none;stroke-opacity:0.955017;paint-order:stroke markers fill"
       d="m 25.282457,220.57905 c -0.87818,-0.39673 -0.94607,-0.48871 -0.58307,-0.78998 1.40326,-1.1646 9.86869,-6.7142 10.24193,-6.7142 0.58115,0 2.52112,0.77182 2.52112,1.00304 0,0.3429 -9.78292,6.72612 -10.47873,6.83722 -0.38903,0.0621 -1.1546,-0.0891 -1.70125,-0.33608 z m 13.00865,36.06833 c -0.55777,-0.39068 -0.57152,-0.52239 -0.57152,-5.47732 0,-3.60591 0.0894,-5.16642 0.30858,-5.38558 0.40065,-0.40066 3.09661,-0.40066 3.49726,0 0.21976,0.21976 0.30858,1.8129 0.30858,5.53511 v 5.22653 l -0.65962,0.25078 c -0.97424,0.37041 -2.23427,0.30507 -2.88328,-0.14952 z m -0.25008,-16.61428 c -0.57117,-0.28936 -0.57859,-0.35952 -0.57859,-5.47399 0,-3.6867 0.089,-5.26987 0.30858,-5.48945 0.40065,-0.40065 3.0966,-0.40065 3.49726,0 0.2191,0.2191 0.30858,1.77592 0.30858,5.36868 0,4.18498 -0.0667,5.11549 -0.38587,5.38035 -0.53067,0.44041 -2.44646,0.57082 -3.14996,0.21441 z m -0.82746,-14.81811 c -1.36028,-0.75038 -1.93691,-1.68649 -1.93691,-3.14441 0,-1.0813 0.12209,-1.37859 0.89273,-2.17368 1.725,-1.77975 4.01647,-1.84476 5.69952,-0.16171 1.15076,1.15076 1.42031,2.04608 1.01913,3.38511 -0.63227,2.11033 -3.63605,3.21916 -5.67447,2.09469 z m 7.646454,-7.51776 c -2.725064,-1.84212 -4.991584,-3.45727 -5.036734,-3.58922 -0.12582,-0.36773 1.79922,-1.08305 2.52502,-0.93827 0.76276,0.15215 10.286044,6.49695 10.286044,6.85298 0,0.29471 -1.66734,1.02383 -2.34128,1.02383 -0.26312,0 -2.708,-1.50719 -5.43305,-3.34932 z m -25.575724,43.30135 c -0.0888,-0.23137 -0.0436,-0.60746 0.10038,-0.83574 0.22788,-0.36127 0.98781,-0.41506 5.86309,-0.41506 4.87528,0 5.6352,0.0538 5.86308,0.41506 0.144,0.22828 0.18917,0.60437 0.10039,0.83574 -0.14286,0.37227 -0.82907,0.42068 -5.96347,0.42068 -5.1344,0 -5.82062,-0.0484 -5.96347,-0.42068 z m 14.75425,0.25404 c -0.33129,-0.3313 -0.17685,-1.321 0.23053,-1.47733 0.62658,-0.24044 10.733874,-0.17702 11.123254,0.0698 0.18917,0.11991 0.30489,0.49422 0.25716,0.8318 l -0.0868,0.6138 -5.673964,0.0691 c -3.12068,0.038 -5.75326,-0.0102 -5.85019,-0.10714 z m 15.589574,-0.25404 c -0.0888,-0.23137 -0.0436,-0.60746 0.10038,-0.83574 0.22788,-0.36127 0.98781,-0.41506 5.86309,-0.41506 4.87528,0 5.6352,0.0538 5.86308,0.41506 0.144,0.22828 0.18917,0.60437 0.10039,0.83574 -0.14286,0.37227 -0.82907,0.42068 -5.96347,0.42068 -5.1344,0 -5.82062,-0.0484 -5.96347,-0.42068 z m 20.02516,22.04661 c -4.60023,-1.58882 -5.17359,-6.74489 -1.19392,-10.73673 3.33643,-3.34665 8.36024,-4.34364 11.71007,-2.32389 1.90057,1.14592 2.62382,2.53652 2.49985,4.80653 -0.11092,2.03137 -0.81514,3.58498 -2.32372,5.12649 -3.02381,3.08981 -7.23506,4.32164 -10.69228,3.1276 z m 6.0225,-2.67357 c 1.45832,-0.73899 3.30966,-2.62199 3.85046,-3.91631 0.48309,-1.15618 0.46531,-3.04084 -0.0379,-4.01387 -0.59052,-1.14194 -2.37588,-1.87159 -4.03953,-1.6509 -4.44108,0.58913 -8.00281,5.2667 -6.46997,8.49692 0.93858,1.97791 3.96599,2.46801 6.6969,1.08416 z m -59.657004,-2.96299 c -0.0718,-0.11611 0.50628,-1.27329 1.28456,-2.5715 0.98415,-1.64163 1.56277,-2.36038 1.90018,-2.36038 0.89687,0 0.79939,0.48705 -0.56455,2.82052 -1.05842,1.81079 -1.48224,2.32249 -1.92361,2.32249 -0.31136,0 -0.62482,-0.095 -0.69658,-0.21113 z m 3.83996,-6.97106 c -0.23535,-0.3808 2.4799,-4.89117 2.94609,-4.89382 1.04425,-0.006 0.99043,0.40529 -0.35282,2.69643 -0.92822,1.58323 -1.52176,2.33274 -1.89021,2.38693 -0.2954,0.0434 -0.61178,-0.0418 -0.70306,-0.18954 z m -6.46893,20.56713 c -6.9777103,-1.09044 -11.6628203,-6.1475 -9.2058403,-9.93672 1.38003,-2.12833 3.8429101,-3.16982 7.5262503,-3.18267 3.98846,-0.0139 7.59314,1.25667 9.93722,3.50268 4.46781,4.28093 1.76001,9.14614 -5.39996,9.70232 -0.84859,0.0659 -2.13455,0.0274 -2.85767,-0.0856 z m 4.94288,-2.44998 c 2.49448,-0.74077 3.43482,-2.7507 2.24948,-4.80811 -0.78676,-1.36559 -3.35628,-2.93131 -5.64699,-3.44094 -4.8066,-1.06937 -8.5282603,0.59641 -7.9708503,3.56767 0.6288101,3.35181 7.0045703,5.97729 11.3683603,4.68138 z m 35.502124,-20.73265 c -2.55336,-1.29424 -2.99275,-1.60218 -2.73289,-1.9153 0.50466,-0.60807 1.11686,-0.44913 4.22028,1.09567 2.78715,1.38737 2.9276,1.49424 2.53449,1.92863 -0.2289,0.25293 -0.54289,0.45387 -0.69776,0.44653 -0.15487,-0.007 -1.65073,-0.70732 -3.32412,-1.55553 z m 8.84157,4.37786 -3.20125,-1.53523 0.5166,-0.51659 0.51659,-0.5166 3.07038,1.46408 c 1.68871,0.80524 3.12415,1.50883 3.18986,1.56353 0.16052,0.13361 -0.35185,0.92722 -0.65215,1.01011 -0.13133,0.0363 -1.67934,-0.62493 -3.44003,-1.4693 z m -21.870984,3.77586 c 0,-2.563 0.19524,-2.94513 1.32199,-2.58751 0.42148,0.13377 0.47807,0.43885 0.47807,2.57733 v 2.42561 h -0.90003 -0.90003 z m -0.19286,-4.69795 c -0.22521,-0.0909 -0.32144,-0.85461 -0.32144,-2.55121 v -2.4215 h 0.90003 0.90003 v 2.41542 c 0,1.96533 -0.0758,2.44451 -0.40676,2.57151 -0.45538,0.17475 -0.60859,0.17271 -1.07186,-0.0142 z m -0.69716,19.44391 c -4.64523,-0.72579 -7.9756,-2.60572 -8.65942,-4.88808 -0.38043,-1.26977 -0.009,-2.22485 1.33907,-3.4427 2.29777,-2.0759 5.64351,-3.07489 10.26758,-3.06574 4.806574,0.01 8.243484,1.00476 10.495424,3.03926 4.05731,3.66553 -0.79619,8.04137 -9.395824,8.47113 -1.38266,0.0691 -3.20373,0.0179 -4.04683,-0.11387 z m 8.639304,-2.78251 c 4.45134,-1.72819 3.8743,-4.99479 -1.12404,-6.36313 -0.78359,-0.21452 -2.54486,-0.37422 -4.182304,-0.37923 -3.63682,-0.0111 -5.9483,0.63919 -7.38753,2.07842 -1.1619,1.1619 -1.23852,1.95742 -0.29637,3.0771 1.46262,1.73822 3.70381,2.34911 8.1982,2.2346 2.683244,-0.0684 3.628944,-0.19619 4.792044,-0.64776 z" />
    <path
       id="path3035"
       style="fill:#aa8800;stroke:#000000;stroke-width:1.787;stroke-linecap:round;stroke-linejoin:round;stroke-miterlimit:4;stroke-dasharray:none;stroke-opacity:0.955017;paint-order:stroke markers fill"
       d="m 148.45779,217.75039 c -0.87818,-0.39673 -0.94607,-0.48871 -0.58307,-0.78998 1.40326,-1.1646 9.86869,-6.7142 10.24193,-6.7142 0.58115,0 2.52112,0.77182 2.52112,1.00304 0,0.3429 -9.78292,6.72612 -10.47873,6.83722 -0.38903,0.0621 -1.1546,-0.0891 -1.70125,-0.33608 z m 13.00865,36.06833 c -0.55777,-0.39068 -0.57152,-0.52239 -0.57152,-5.47732 0,-3.60591 0.0894,-5.16642 0.30858,-5.38558 0.40065,-0.40066 3.09661,-0.40066 3.49726,0 0.21976,0.21976 0.30858,1.8129 0.30858,5.53511 v 5.22653 l -0.65962,0.25078 c -0.97424,0.37041 -2.23427,0.30507 -2.88328,-0.14952 z m -0.25008,-16.61428 c -0.57117,-0.28936 -0.57859,-0.35952 -0.57859,-5.47399 0,-3.6867 0.089,-5.26987 0.30858,-5.48945 0.40065,-0.40065 3.0966,-0.40065 3.49726,0 0.2191,0.2191 0.30858,1.77592 0.30858,5.36868 0,4.18498 -0.0667,5.11549 -0.38587,5.38035 -0.53067,0.44041 -2.44646,0.57082 -3.14996,0.21441 z m -0.82746,-14.81811 c -1.36028,-0.75038 -1.93691,-1.68649 -1.93691,-3.14441 0,-1.0813 0.12209,-1.37859 0.89273,-2.17368 1.725,-1.77975 4.01647,-1.84476 5.69952,-0.16171 1.15076,1.15076 1.42031,2.04608 1.01913,3.38511 -0.63227,2.11033 -3.63605,3.21916 -5.67447,2.09469 z m 7.64645,-7.51776 c -2.72506,-1.84212 -4.99158,-3.45727 -5.03673,-3.58922 -0.12582,-0.36773 1.79922,-1.08305 2.52502,-0.93827 0.76276,0.15215 10.28604,6.49695 10.28604,6.85298 0,0.29471 -1.66734,1.02383 -2.34128,1.02383 -0.26312,0 -2.708,-1.50719 -5.43305,-3.34932 z m -25.57572,43.30135 c -0.0888,-0.23137 -0.0436,-0.60746 0.10038,-0.83574 0.22788,-0.36127 0.98781,-0.41506 5.86309,-0.41506 4.87528,0 5.6352,0.0538 5.86308,0.41506 0.144,0.22828 0.18917,0.60437 0.10039,0.83574 -0.14286,0.37227 -0.82907,0.42068 -5.96347,0.42068 -5.1344,0 -5.82062,-0.0484 -5.96347,-0.42068 z m 14.75425,0.25404 c -0.33129,-0.3313 -0.17685,-1.321 0.23053,-1.47733 0.62658,-0.24044 10.73387,-0.17702 11.12325,0.0698 0.18917,0.11991 0.30489,0.49422 0.25716,0.8318 l -0.0868,0.6138 -5.67396,0.0691 c -3.12068,0.038 -5.75326,-0.0102 -5.85019,-0.10714 z m 15.58957,-0.25404 c -0.0888,-0.23137 -0.0436,-0.60746 0.10038,-0.83574 0.22788,-0.36127 0.98781,-0.41506 5.86309,-0.41506 4.87528,0 5.6352,0.0538 5.86308,0.41506 0.144,0.22828 0.18917,0.60437 0.10039,0.83574 -0.14286,0.37227 -0.82907,0.42068 -5.96347,0.42068 -5.1344,0 -5.82062,-0.0484 -5.96347,-0.42068 z m 20.02516,22.04661 c -4.60023,-1.58882 -5.17359,-6.74489 -1.19392,-10.73673 3.33643,-3.34665 8.36024,-4.34364 11.71007,-2.32389 1.90057,1.14592 2.62382,2.53652 2.49985,4.80653 -0.11092,2.03137 -0.81514,3.58498 -2.32372,5.12649 -3.02381,3.08981 -7.23506,4.32164 -10.69228,3.1276 z m 6.0225,-2.67357 c 1.45832,-0.73899 3.30966,-2.62199 3.85046,-3.91631 0.48309,-1.15618 0.46531,-3.04084 -0.0379,-4.01387 -0.59052,-1.14194 -2.37588,-1.87159 -4.03953,-1.6509 -4.44108,0.58913 -8.00281,5.2667 -6.46997,8.49692 0.93858,1.97791 3.96599,2.46801 6.6969,1.08416 z m -59.657,-2.96299 c -0.0718,-0.11611 0.50628,-1.27329 1.28456,-2.5715 0.98415,-1.64163 1.56277,-2.36038 1.90018,-2.36038 0.89687,0 0.79939,0.48705 -0.56455,2.82052 -1.05842,1.81079 -1.48224,2.32249 -1.92361,2.32249 -0.31136,0 -0.62482,-0.095 -0.69658,-0.21113 z m 3.83996,-6.97106 c -0.23535,-0.3808 2.4799,-4.89117 2.94609,-4.89382 1.04425,-0.006 0.99043,0.40529 -0.35282,2.69643 -0.92822,1.58323 -1.52176,2.33274 -1.89021,2.38693 -0.2954,0.0434 -0.61178,-0.0418 -0.70306,-0.18954 z m -6.46893,20.56713 c -6.97771,-1.09044 -11.66282,-6.1475 -9.20584,-9.93672 1.38003,-2.12833 3.84291,-3.16982 7.52625,-3.18267 3.98846,-0.0139 7.59314,1.25667 9.93722,3.50268 4.46781,4.28093 1.76001,9.14614 -5.39996,9.70232 -0.84859,0.0659 -2.13455,0.0274 -2.85767,-0.0856 z m 4.94288,-2.44998 c 2.49448,-0.74077 3.43482,-2.7507 2.24948,-4.80811 -0.78676,-1.36559 -3.35628,-2.93131 -5.64699,-3.44094 -4.8066,-1.06937 -8.52826,0.59641 -7.97085,3.56767 0.62881,3.35181 7.00457,5.97729 11.36836,4.68138 z m 35.50212,-20.73265 c -2.55336,-1.29424 -2.99275,-1.60218 -2.73289,-1.9153 0.50466,-0.60807 1.11686,-0.44913 4.22028,1.09567 2.78715,1.38737 2.9276,1.49424 2.53449,1.92863 -0.2289,0.25293 -0.54289,0.45387 -0.69776,0.44653 -0.15487,-0.007 -1.65073,-0.70732 -3.32412,-1.55553 z m 8.84157,4.37786 -3.20125,-1.53523 0.5166,-0.51659 0.51659,-0.5166 3.07038,1.46408 c 1.68871,0.80524 3.12415,1.50883 3.18986,1.56353 0.16052,0.13361 -0.35185,0.92722 -0.65215,1.01011 -0.13133,0.0363 -1.67934,-0.62493 -3.44003,-1.4693 z m -21.87098,3.77586 c 0,-2.563 0.19524,-2.94513 1.32199,-2.58751 0.42148,0.13377 0.47807,0.43885 0.47807,2.57733 v 2.42561 h -0.90003 -0.90003 z m -0.19286,-4.69795 c -0.22521,-0.0909 -0.32144,-0.85461 -0.32144,-2.55121 v -2.4215 h 0.90003 0.90003 v 2.41542 c 0,1.96533 -0.0758,2.44451 -0.40676,2.57151 -0.45538,0.17475 -0.60859,0.17271 -1.07186,-0.0142 z m -0.69716,19.44391 c -4.64523,-0.72579 -7.9756,-2.60572 -8.65942,-4.88808 -0.38043,-1.26977 -0.009,-2.22485 1.33907,-3.4427 2.29777,-2.0759 5.64351,-3.07489 10.26758,-3.06574 4.80657,0.01 8.24348,1.00476 10.49542,3.03926 4.05731,3.66553 -0.79619,8.04137 -9.39582,8.47113 -1.38266,0.0691 -3.20373,0.0179 -4.04683,-0.11387 z m 8.6393,-2.78251 c 4.45134,-1.72819 3.8743,-4.99479 -1.12404,-6.36313 -0.78359,-0.21452 -2.54486,-0.37422 -4.1823,-0.37923 -3.63682,-0.0111 -5.9483,0.63919 -7.38753,2.07842 -1.1619,1.1619 -1.23852,1.95742 -0.29637,3.0771 1.46262,1.73822 3.70381,2.34911 8.1982,2.2346 2.68324,-0.0684 3.62894,-0.19619 4.79204,-0.64776 z" />
  </g>
  <g
     inkscape:groupmode="layer"
     id="layer2"
     inkscape:label="Layer 2" />
  <g
     inkscape:groupmode="layer"
     id="layer3"
     inkscape:label="Layer 3" />
  <g
     inkscape:groupmode="layer"
     id="layer4"
     inkscape:label="Layer 4" />
</svg>
