<?xml version="1.0" encoding="UTF-8" standalone="no"?>
<!-- Created with Inkscape (http://www.inkscape.org/) -->

<svg
   width="210mm"
   height="297mm"
   viewBox="0 0 210 297"
   version="1.1"
   id="svg5"
   inkscape:version="1.1 (c68e22c387, 2021-05-23)"
   sodipodi:docname="clip launcher svg.svg"
   xmlns:inkscape="http://www.inkscape.org/namespaces/inkscape"
   xmlns:sodipodi="http://sodipodi.sourceforge.net/DTD/sodipodi-0.dtd"
   xmlns="http://www.w3.org/2000/svg"
   xmlns:svg="http://www.w3.org/2000/svg">
  <sodipodi:namedview
     id="namedview7"
     pagecolor="#ffffff"
     bordercolor="#666666"
     borderopacity="1.0"
     inkscape:pageshadow="2"
     inkscape:pageopacity="0.0"
     inkscape:pagecheckerboard="0"
     inkscape:document-units="mm"
     showgrid="false"
     inkscape:zoom="0.82106903"
     inkscape:cx="462.81127"
     inkscape:cy="299.00044"
     inkscape:window-width="1680"
     inkscape:window-height="956"
     inkscape:window-x="-11"
     inkscape:window-y="-11"
     inkscape:window-maximized="1"
     inkscape:current-layer="layer1" />
  <defs
     id="defs2" />
  <g
     inkscape:label="Layer 1"
     inkscape:groupmode="layer"
     id="layer1">
    <path
       id="path1623"
       style="fill:none;stroke:#000000;stroke-width:1.31898;stroke-linecap:round;stroke-linejoin:round;stroke-opacity:0.955017;paint-order:stroke markers fill"
       d="m 61.194523,20.593116 a 17.375802,14.763433 0 0 1 -17.375799,14.76343 17.375802,14.763433 0 0 1 -17.3758,-14.76343 17.375802,14.763433 0 0 1 17.3758,-14.7634266 17.375802,14.763433 0 0 1 17.375799,14.7634266 z m -5.76282,0 A 11.612973,11.705097 0 0 1 43.818724,32.298216 11.612973,11.705097 0 0 1 32.205752,20.593116 11.612973,11.705097 0 0 1 43.818724,8.8880294 11.612973,11.705097 0 0 1 55.431703,20.593116 Z m 25.67077,5.50852 A 38.244226,23.743315 0 0 1 42.858249,49.844946 38.244226,23.743315 0 0 1 4.6140224,26.101636 38.244226,23.743315 0 0 1 42.858249,2.3583294 38.244226,23.743315 0 0 1 81.102473,26.101636 Z m -6.98525,0 A 31.25898,20.338613 0 0 1 42.858249,46.440246 31.25898,20.338613 0 0 1 11.599268,26.101636 31.25898,20.338613 0 0 1 42.858249,5.7630294 31.25898,20.338613 0 0 1 74.117223,26.101636 Z" />
    <g
       id="g2073">
      <path
         id="path1619"
         style="fill:none;stroke:#000000;stroke-width:1.31898;stroke-linecap:round;stroke-linejoin:round;stroke-opacity:0.955017;paint-order:stroke markers fill"
         d="m 187.19134,264.20845 a 17.375802,14.763433 0 0 1 -17.3758,14.76343 17.375802,14.763433 0 0 1 -17.3758,-14.76343 17.375802,14.763433 0 0 1 17.3758,-14.76343 17.375802,14.763433 0 0 1 17.3758,14.76343 z m -5.76283,0 a 11.612973,11.705097 0 0 1 -11.61297,11.7051 11.612973,11.705097 0 0 1 -11.61297,-11.7051 11.612973,11.705097 0 0 1 11.61297,-11.70509 11.612973,11.705097 0 0 1 11.61297,11.70509 z m 25.67078,5.50852 a 38.244226,23.743315 0 0 1 -38.24423,23.74331 38.244226,23.743315 0 0 1 -38.24422,-23.74331 38.244226,23.743315 0 0 1 38.24422,-23.74331 38.244226,23.743315 0 0 1 38.24423,23.74331 z m -6.98525,0 a 31.25898,20.338613 0 0 1 -31.25898,20.33861 31.25898,20.338613 0 0 1 -31.25898,-20.33861 31.25898,20.338613 0 0 1 31.25898,-20.33861 31.25898,20.338613 0 0 1 31.25898,20.33861 z" />
      <path
         style="fill:#000000;stroke:#000000;stroke-width:11.6921;stroke-linecap:round;stroke-linejoin:round;stroke-opacity:0.955017;paint-order:stroke markers fill"
         d="m 612.18508,1104.6709 c -66.64238,-8.4194 -115.21238,-44.3658 -115.21238,-85.2682 0,-15.3584 6.01827,-28.78529 19.16752,-42.76303 18.193,-19.33927 43.8685,-32.1989 79.30112,-39.71815 14.0399,-2.97944 17.68288,-3.25698 42.75104,-3.25698 25.06816,0 28.71114,0.27754 42.75103,3.25698 35.43263,7.51925 61.10813,20.37888 79.30113,39.71815 25.74514,27.36723 25.80748,58.09253 0.17315,85.34203 -18.21174,19.3592 -44.28837,32.4946 -78.85205,39.7195 -11.96304,2.5007 -19.12696,3.1726 -37.8926,3.554 -12.72731,0.2586 -26.8969,0 -31.48796,-0.5843 z m 57.67333,-8.096 c 21.73379,-3.7203 45.70706,-13.7226 60.88793,-25.404 26.88637,-20.6886 35.41015,-50.0588 22.38639,-77.13632 -5.74576,-11.94591 -19.99039,-26.3845 -33.66919,-34.12762 -48.14719,-27.25457 -114.39514,-27.25457 -162.54232,0 -13.6788,7.74312 -27.92343,22.18171 -33.66918,34.12762 -20.14853,41.89052 10.95548,84.78302 72.69083,100.24082 22.24313,5.5694 49.80393,6.4268 73.91554,2.2995 z"
         id="path1912"
         transform="scale(0.26458333)" />
      <path
         style="fill:#000000;stroke:#000000;stroke-width:11.6921;stroke-linecap:round;stroke-linejoin:round;stroke-opacity:0.955017;paint-order:stroke markers fill"
         d="m 624.79521,1049.1205 c -18.4235,-4.9173 -33.36857,-16.2828 -40.52417,-30.8179 -3.59581,-7.3041 -3.93007,-8.9715 -3.93007,-19.6046 0,-10.61192 0.33804,-12.307 3.89125,-19.5124 9.60378,-19.47507 29.09757,-31.36716 53.3649,-32.55497 15.13343,-0.74074 23.41833,0.89306 35.66439,7.03308 11.71462,5.87356 20.96911,14.88357 26.18987,25.498 3.56125,7.24042 3.89995,8.938 3.89995,19.54643 0,10.65906 -0.32829,12.28396 -3.97981,19.69856 -7.0564,14.3282 -22.81006,26.156 -41.03479,30.8088 -9.04043,2.3081 -24.70454,2.2637 -33.54152,-0.095 z m 34.40381,-6.5669 c 14.19131,-5.3097 26.62734,-21.0732 28.72487,-36.4107 2.99508,-21.90047 -6.94978,-40.79361 -26.55244,-50.44396 -7.21149,-3.55021 -8.91949,-3.89103 -19.49969,-3.89103 -10.47959,0 -12.35798,0.36578 -19.5124,3.79963 -24.50682,11.76235 -34.27214,40.54886 -22.00154,64.85676 3.63766,7.2062 12.8202,16.7639 19.35005,20.1406 11.60726,6.0023 26.67016,6.7456 39.49115,1.9487 z"
         id="path1951"
         transform="scale(0.26458333)" />
    </g>
    <g
       id="g2291">
      <path
         id="path1621"
         style="fill:none;stroke:#000000;stroke-width:1.31898;stroke-linecap:round;stroke-linejoin:round;stroke-opacity:0.955017;paint-order:stroke markers fill"
         d="m 65.383678,263.8862 a 17.375802,14.763433 0 0 1 -17.375802,14.76343 17.375802,14.763433 0 0 1 -17.3758,-14.76343 17.375802,14.763433 0 0 1 17.3758,-14.76343 17.375802,14.763433 0 0 1 17.375802,14.76343 z m -5.762827,0 A 11.612973,11.705097 0 0 1 48.007876,275.5913 11.612973,11.705097 0 0 1 36.394904,263.8862 11.612973,11.705097 0 0 1 48.007876,252.18111 11.612973,11.705097 0 0 1 59.620851,263.8862 Z m 25.670777,5.50852 A 38.244226,23.743315 0 0 1 47.047401,293.13803 38.244226,23.743315 0 0 1 8.8031741,269.39472 38.244226,23.743315 0 0 1 47.047401,245.65141 38.244226,23.743315 0 0 1 85.291628,269.39472 Z m -6.98525,0 A 31.25898,20.338613 0 0 1 47.047401,289.73333 31.25898,20.338613 0 0 1 15.78842,269.39472 31.25898,20.338613 0 0 1 47.047401,249.05611 31.25898,20.338613 0 0 1 78.306378,269.39472 Z" />
      <path
         style="fill:#ffffff;stroke:#000000;stroke-width:11.6921;stroke-linecap:round;stroke-linejoin:round;stroke-opacity:0.955017;paint-order:stroke markers fill"
         d="m 151.80966,1103.453 c -66.64238,-8.4194 -115.212382,-44.3658 -115.212382,-85.2682 0,-15.3585 6.01827,-28.78532 19.167526,-42.76306 18.192996,-19.33927 43.868497,-32.1989 79.301116,-39.71814 14.0399,-2.97944 17.68289,-3.25698 42.75104,-3.25698 25.06816,0 28.71114,0.27754 42.75103,3.25698 35.43263,7.51924 61.10813,20.37887 79.30113,39.71814 25.74515,27.36726 25.80748,58.09256 0.17315,85.34206 -18.21174,19.3592 -44.28837,32.4945 -78.85205,39.7195 -11.96304,2.5007 -19.12695,3.1726 -37.8926,3.554 -12.72731,0.2586 -26.8969,0 -31.48796,-0.5843 z m 57.67333,-8.0961 c 21.73379,-3.7203 45.70706,-13.7225 60.88793,-25.4039 26.88638,-20.6886 35.41015,-50.0588 22.38639,-77.13635 -5.74575,-11.9459 -19.99039,-26.38449 -33.66919,-34.12762 -48.14718,-27.25457 -114.39514,-27.25457 -162.542317,0 -13.678801,7.74313 -27.923437,22.18172 -33.669186,34.12762 -20.148524,41.89055 10.955488,84.78305 72.690833,100.24085 22.24313,5.5694 49.80393,6.4268 73.91554,2.2994 z"
         id="path2130"
         transform="scale(0.26458333)" />
      <path
         style="fill:#ffffff;stroke:#000000;stroke-width:11.6921;stroke-linecap:round;stroke-linejoin:round;stroke-opacity:0.955017;paint-order:stroke markers fill"
         d="m 164.41979,1047.9026 c -18.4235,-4.9174 -33.36857,-16.2828 -40.52417,-30.8179 -3.59581,-7.3042 -3.93007,-8.9715 -3.93007,-19.60463 0,-10.61192 0.33804,-12.30699 3.89125,-19.51239 9.60378,-19.47508 29.09757,-31.36716 53.3649,-32.55497 15.13344,-0.74074 23.41833,0.89305 35.66439,7.03308 11.71462,5.87356 20.96911,14.88356 26.18987,25.49799 3.56125,7.24042 3.89996,8.93801 3.89996,19.54643 0,10.65909 -0.3283,12.28399 -3.97982,19.69849 -7.0564,14.3283 -22.81006,26.1561 -41.03479,30.8089 -9.04043,2.308 -24.70454,2.2637 -33.54152,-0.095 z m 34.67623,-6.6689 c 13.90691,-5.2032 26.37433,-21.1131 28.45245,-36.3087 2.99508,-21.90049 -6.94978,-40.79363 -26.55244,-50.44399 -7.21149,-3.5502 -8.91949,-3.89102 -19.49969,-3.89102 -10.47959,0 -12.35798,0.36577 -19.5124,3.79962 -39.65402,19.03245 -34.86831,76.89609 7.33708,88.71199 8.37017,2.3434 20.56396,1.5784 29.775,-1.8679 z"
         id="path2169"
         transform="scale(0.26458333)" />
    </g>
    <g
       id="g2599">
      <path
         id="ellipse1454"
         style="fill:none;stroke:#000000;stroke-width:1.31898;stroke-linecap:round;stroke-linejoin:round;stroke-opacity:0.955017;paint-order:stroke markers fill"
         d="m 185.58012,26.071242 a 17.375802,14.763433 0 0 1 -17.37579,14.76343 17.375802,14.763433 0 0 1 -17.3758,-14.76343 17.375802,14.763433 0 0 1 17.3758,-14.76343 17.375802,14.763433 0 0 1 17.37579,14.76343 z m -5.76282,0 a 11.612973,11.705097 0 0 1 -11.61297,11.7051 11.612973,11.705097 0 0 1 -11.61298,-11.7051 11.612973,11.705097 0 0 1 11.61298,-11.70509 11.612973,11.705097 0 0 1 11.61297,11.70509 z m 25.67077,5.50852 a 38.244226,23.743315 0 0 1 -38.24422,23.74331 38.244226,23.743315 0 0 1 -38.24423,-23.74331 38.244226,23.743315 0 0 1 38.24423,-23.7433098 38.244226,23.743315 0 0 1 38.24422,23.7433098 z m -6.98525,0 a 31.25898,20.338613 0 0 1 -31.25897,20.33861 31.25898,20.338613 0 0 1 -31.25898,-20.33861 31.25898,20.338613 0 0 1 31.25898,-20.33861 31.25898,20.338613 0 0 1 31.25897,20.33861 z" />
      <path
         style="fill:#ffd42a;stroke:#000000;stroke-width:11.6921;stroke-linecap:round;stroke-linejoin:round;stroke-opacity:0.955017;paint-order:stroke markers fill"
         d="m 606.09545,204.62476 c -66.64237,-8.41935 -115.21237,-44.36579 -115.21237,-85.26817 0,-15.35845 6.01827,-28.785307 19.16752,-42.763047 18.193,-19.339268 43.8685,-32.198899 79.30112,-39.718143 14.0399,-2.97944 17.68288,-3.25698 42.75104,-3.25698 25.06816,0 28.71114,0.27754 42.75103,3.25698 35.43263,7.519244 61.10813,20.378875 79.30113,39.718143 25.74514,27.367247 25.80748,58.092577 0.17315,85.342027 -18.21174,19.3592 -44.28837,32.49457 -78.85205,39.71953 -11.96304,2.50067 -19.12696,3.17257 -37.8926,3.55395 -12.72731,0.25866 -26.8969,-0.005 -31.48797,-0.58429 z m 57.67334,-8.09601 c 21.73379,-3.72032 45.70706,-13.72257 60.88793,-25.40399 26.88637,-20.68859 35.41015,-50.05879 22.38639,-77.136306 -5.74576,-11.945904 -19.99039,-26.384494 -33.6692,-34.127623 -48.14718,-27.25457 -114.39513,-27.25457 -162.54231,0 -13.6788,7.743129 -27.92344,22.181719 -33.66919,34.127623 -20.14852,41.890506 10.95549,84.783006 72.69084,100.240816 22.24313,5.56942 49.80393,6.42682 73.91554,2.29948 z"
         id="path2438"
         transform="scale(0.26458333)" />
      <path
         style="fill:#ffd42a;stroke:#000000;stroke-width:11.6921;stroke-linecap:round;stroke-linejoin:round;stroke-opacity:0.955017;paint-order:stroke markers fill"
         d="m 618.70559,149.07441 c -18.4235,-4.91738 -33.36857,-16.28285 -40.52417,-30.81793 -3.59582,-7.30414 -3.93007,-8.97152 -3.93007,-19.604604 0,-10.611924 0.33804,-12.306996 3.89125,-19.5124 9.60378,-19.475074 29.09757,-31.367157 53.3649,-32.55497 15.13343,-0.740736 23.41833,0.893059 35.66439,7.033081 11.71462,5.873561 20.96911,14.883568 26.18987,25.497997 3.56125,7.240418 3.89995,8.938005 3.89995,19.546428 0,10.659058 -0.32829,12.283998 -3.97981,19.698528 -7.05641,14.32825 -22.81006,26.15608 -41.03479,30.80887 -9.04043,2.30803 -24.70454,2.26366 -33.54152,-0.095 z m 34.40381,-6.56698 c 14.19131,-5.30965 26.62733,-21.07311 28.72487,-36.41061 2.99508,-21.900513 -6.94978,-40.793651 -26.55244,-50.444007 -7.21149,-3.550207 -8.9195,-3.891026 -19.49969,-3.891026 -10.4796,0 -12.35798,0.365776 -19.5124,3.799627 -39.65492,19.032875 -34.87052,76.882406 7.33707,88.714466 8.51407,2.38675 20.28218,1.68135 29.50259,-1.76845 z"
         id="path2477"
         transform="scale(0.26458333)" />
    </g>
  </g>
</svg>
