<?xml version="1.0" encoding="UTF-8" standalone="no"?>
<!-- Created with Inkscape (http://www.inkscape.org/) -->

<svg
   width="210mm"
   height="297mm"
   viewBox="0 0 210 297"
   version="1.1"
   id="svg5"
   inkscape:version="1.1 (c68e22c387, 2021-05-23)"
   sodipodi:docname="play botton icon svg.svg"
   xmlns:inkscape="http://www.inkscape.org/namespaces/inkscape"
   xmlns:sodipodi="http://sodipodi.sourceforge.net/DTD/sodipodi-0.dtd"
   xmlns="http://www.w3.org/2000/svg"
   xmlns:svg="http://www.w3.org/2000/svg">
  <sodipodi:namedview
     id="namedview7"
     pagecolor="#ffffff"
     bordercolor="#666666"
     borderopacity="1.0"
     inkscape:pageshadow="2"
     inkscape:pageopacity="0.0"
     inkscape:pagecheckerboard="0"
     inkscape:document-units="mm"
     showgrid="false"
     inkscape:zoom="0.62270623"
     inkscape:cx="526.73313"
     inkscape:cy="410.30584"
     inkscape:window-width="1680"
     inkscape:window-height="956"
     inkscape:window-x="-11"
     inkscape:window-y="-11"
     inkscape:window-maximized="1"
     inkscape:current-layer="layer1" />
  <defs
     id="defs2">
    <inkscape:path-effect
       effect="skeletal"
       id="path-effect3161"
       is_visible="true"
       lpeversion="1"
       pattern="m 182.71133,36.816874 0.27078,28.580167 24.64656,-14.536578 z m -38.1894,6.580476 v 17.728634 h 31.32522 V 43.39735 Z"
       copytype="repeated"
       prop_scale="1"
       scale_y_rel="false"
       spacing="5.8"
       normal_offset="0"
       tang_offset="1.5"
       prop_units="false"
       vertical_pattern="false"
       hide_knot="false"
       fuse_tolerance="0" />
    <inkscape:path-effect
       effect="skeletal"
       id="path-effect2910"
       is_visible="true"
       lpeversion="1"
       pattern="m 182.71133,36.816874 0.27078,28.580167 24.64656,-14.536578 z m -38.1894,6.580476 v 17.728634 h 31.32522 V 43.39735 Z"
       copytype="repeated"
       prop_scale="1"
       scale_y_rel="false"
       spacing="4.6"
       normal_offset="0.3"
       tang_offset="0"
       prop_units="false"
       vertical_pattern="false"
       hide_knot="false"
       fuse_tolerance="0" />
  </defs>
  <g
     inkscape:label="Layer 1"
     inkscape:groupmode="layer"
     id="layer1">
    <path
       id="path3024"
       d="m 87.949621,84.341399 c -5.05405,-4.04856 -10.08858,-8.12247 -15.10339,-12.22168 -0.0116,0.86562 -0.0658,1.74329 -0.16572,2.62987 -0.46848,4.55993 -2.26406,9.46019 -5.38602,13.96189 5.33992,0.46354 11.23507,-0.32025 17.07665,-2.70828 1.20107,-0.49338 2.39556,-1.04777 3.57848,-1.6618 z M 94.345168,54.090718 82.355931,53.774032 c -0.15524,5.933475 -1.90503,11.911234 -4.97463,16.930577 l 10.16336,6.43354 c 4.236727,-6.90029 6.595137,-14.917012 6.800507,-23.047431 z M 34.398595,97.387069 c 2.626339,-5.97826 5.282302,-11.94316 7.967764,-17.89448 -4.134912,1.01861 -8.937761,1.04634 -13.836986,-0.26729 -1.122405,-0.30072 -2.248456,-0.6706 -3.37181,-1.10804 0.192533,1.19281 0.44898,2.39736 0.773715,3.60901 1.450083,5.37203 4.277154,10.81975 8.467317,15.6608 z m 30.802126,-2.3553 -3.73811,-11.5613 c -2.778793,0.93504 -5.671856,1.43209 -8.532909,1.40731 -2.72646,0.0236 -5.48198,-0.42666 -8.139975,-1.27825 l -3.574512,11.61277 c 3.766713,1.19174 7.713738,1.83296 11.714487,1.85112 4.198253,-0.019 8.337349,-0.72421 12.271019,-2.03165 z M 7.2002978,48.977869 C 13.631947,49.42016 20.061527,49.892646 26.488836,50.395278 23.579793,45.859038 21.666307,39.943483 21.465023,33.377576 15.987401,36.863049 10.906476,42.152174 7.2002978,48.977869 Z m 11.4238812,28.657 10.078044,-6.56921 C 25.569199,66.09308 23.749362,60.13792 23.517459,54.2029 l -11.984643,0.475187 c 0.308938,8.124356 2.764308,16.110852 7.091363,22.956782 z M 41.834188,5.7556959 c 1.717392,6.2990411 3.402445,12.6066751 5.055048,18.9226801 1.578585,-2.184739 3.59213,-4.211057 6.040466,-5.908453 2.31826,-1.632431 5.043732,-2.943837 8.054449,-3.859427 -2.27109,-2.155019 -4.956861,-4.082875 -8.054449,-5.6436971 -3.34137,-1.655744 -7.089768,-2.855362 -11.095514,-3.511103 z m -22.468601,21.3189711 9.873051,6.881171 c 0.904292,-1.340411 1.907317,-2.601821 3.003308,-3.763191 2.835096,-3.042632 6.381082,-5.485464 10.224136,-7.091415 L 37.931957,11.828447 c -5.416044,2.241404 -10.352673,5.648295 -14.396068,9.983593 -1.527476,1.649162 -2.919498,3.410385 -4.170302,5.262627 z m 72.969241,0.976553 c -5.560137,3.294915 -11.135527,6.563369 -16.725957,9.805306 4.89087,2.08031 9.7263,5.908895 13.52202,11.237951 2.615487,-6.015237 3.917307,-13.277064 3.203937,-21.043257 z M 66.478591,11.260936 62.366351,22.694704 c 4.23685,1.584821 8.16511,4.186054 11.2511,7.497943 0.84133,0.891519 1.62788,1.841988 2.35703,2.841892 l 9.62463,-7.236006 c -1.01031,-1.38852 -2.10305,-2.720524 -3.2756,-3.986493 -4.40122,-4.718949 -9.86075,-8.337903 -15.84492,-10.551104 z"
       style="fill:none;stroke:#000000;stroke-width:1.73197;stroke-linecap:round;stroke-linejoin:round;stroke-dasharray:0.432991, 0.432991;stroke-opacity:0.955017;paint-order:stroke markers fill" />
    <g
       id="g3814">
      <path
         id="path3272"
         d="m 83.700697,280.64182 c -5.05405,-4.04856 -10.08858,-8.12247 -15.10339,-12.22168 -0.0116,0.86562 -0.0658,1.74329 -0.16572,2.62987 -0.46848,4.55993 -2.26406,9.46019 -5.38602,13.96189 5.33992,0.46354 11.23507,-0.32025 17.07665,-2.70828 1.20107,-0.49338 2.39556,-1.04777 3.57848,-1.6618 z m 6.39555,-30.25068 -11.98924,-0.31668 c -0.15524,5.93347 -1.90503,11.91123 -4.97463,16.93057 l 10.16336,6.43354 c 4.23673,-6.90029 6.59514,-14.91701 6.80051,-23.04743 z m -59.946579,43.29635 c 2.626339,-5.97826 5.282302,-11.94316 7.967764,-17.89448 -4.134912,1.01861 -8.937761,1.04634 -13.836986,-0.26729 -1.122405,-0.30072 -2.248456,-0.6706 -3.37181,-1.10804 0.192533,1.19281 0.44898,2.39736 0.773715,3.60901 1.450083,5.37203 4.277154,10.81975 8.467317,15.6608 z m 30.802126,-2.3553 -3.73811,-11.5613 c -2.778793,0.93504 -5.671856,1.43209 -8.532909,1.40731 -2.72646,0.0236 -5.48198,-0.42666 -8.139975,-1.27825 l -3.574512,11.61277 c 3.766713,1.19174 7.713738,1.83296 11.714487,1.85112 4.198253,-0.019 8.337349,-0.72421 12.271019,-2.03165 z M 2.9513706,245.27829 c 6.4316492,0.44229 12.8612294,0.91478 19.2885384,1.41741 -2.909043,-4.53624 -4.822529,-10.45179 -5.023813,-17.0177 -5.477622,3.48547 -10.5585472,8.7746 -14.2647254,15.60029 z m 11.4238814,28.657 10.078044,-6.56921 c -3.133024,-4.97258 -4.952861,-10.92774 -5.184764,-16.86276 l -11.9846432,0.47519 c 0.308938,8.12436 2.7643082,16.11085 7.0913632,22.95678 z m 23.210009,-71.87917 c 1.717392,6.29904 3.402445,12.60668 5.055048,18.92268 1.578585,-2.18474 3.59213,-4.21106 6.040466,-5.90845 2.31826,-1.63243 5.043732,-2.94384 8.054449,-3.85943 -2.27109,-2.15502 -4.956861,-4.08288 -8.054449,-5.6437 -3.34137,-1.65574 -7.089768,-2.85536 -11.095514,-3.5111 z m -22.468601,21.31897 9.873051,6.88117 c 0.904292,-1.34041 1.907317,-2.60182 3.003308,-3.76319 2.835096,-3.04263 6.381082,-5.48546 10.224136,-7.09141 L 33.68303,208.12887 c -5.416044,2.2414 -10.352673,5.6483 -14.396068,9.98359 -1.527476,1.64917 -2.919498,3.41039 -4.170302,5.26263 z m 72.969247,0.97655 c -5.56014,3.29492 -11.13553,6.56337 -16.72596,9.80531 4.89087,2.08031 9.7263,5.9089 13.52202,11.23795 2.61549,-6.01524 3.91731,-13.27706 3.20394,-21.04326 z m -25.85624,-16.79028 -4.112243,11.43377 c 4.236853,1.58482 8.165113,4.18605 11.251103,7.49794 0.84133,0.89152 1.62788,1.84199 2.35703,2.84189 l 9.62463,-7.236 c -1.01031,-1.38852 -2.10305,-2.72053 -3.2756,-3.9865 -4.40122,-4.71894 -9.86075,-8.3379 -15.84492,-10.5511 z"
         style="fill:none;stroke:#000000;stroke-width:1.73197;stroke-linecap:round;stroke-linejoin:round;stroke-dasharray:0.432991, 0.432991;stroke-opacity:0.955017;paint-order:stroke markers fill" />
      <path
         style="fill:#000000;stroke:#000000;stroke-width:15.4166;stroke-linecap:round;stroke-linejoin:round;stroke-dasharray:3.85415, 3.85415;stroke-opacity:0.955017;paint-order:stroke markers fill"
         d="m 48.548446,1015.3263 c -3.621501,-7.7284 -8.026363,-18.84086 -9.788583,-24.69441 -3.301745,-10.96738 -7.71983,-36.25654 -6.517012,-37.30343 0.372883,-0.32454 8.707572,-1.05792 18.521531,-1.62972 l 17.84356,-1.03963 2.001525,12.46065 c 2.07856,12.94025 9.365172,34.97641 13.807264,41.75594 1.406987,2.1473 2.319753,4.0963 2.02837,4.3311 -2.086358,1.6813 -30.240189,20.1711 -30.713863,20.1711 -0.329035,0 -3.561291,-6.3233 -7.182792,-14.0516 z"
         id="path3333"
         transform="scale(0.26458333)" />
      <path
         style="fill:#000000;stroke:#000000;stroke-width:15.4166;stroke-linecap:round;stroke-linejoin:round;stroke-dasharray:3.85415, 3.85415;stroke-opacity:0.955017;paint-order:stroke markers fill"
         d="m 46.868627,925.74738 c -14.409745,-1.11691 -26.612058,-2.44326 -27.116251,-2.94746 -2.321295,-2.32129 18.691073,-28.41075 31.12858,-38.64999 4.948519,-4.07389 9.294988,-7.1094 9.658817,-6.74557 0.363832,0.36383 1.980193,7.06526 3.591916,14.89207 1.611721,7.8268 4.823759,18.87172 7.137858,24.54426 4.695333,11.50963 4.67921,11.44976 3.003036,11.15165 -0.662431,-0.11781 -12.994211,-1.12805 -27.403956,-2.24496 z"
         id="path3372"
         transform="scale(0.26458333)" />
      <path
         style="fill:#000000;stroke:#000000;stroke-width:15.4166;stroke-linecap:round;stroke-linejoin:round;stroke-dasharray:3.85415, 3.85415;stroke-opacity:0.955017;paint-order:stroke markers fill"
         d="m 78.688791,854.25395 c -7.507553,-5.27758 -13.872469,-10.61163 -14.144258,-11.85343 -0.271788,-1.24181 5.870755,-8.73922 13.650097,-16.6609 12.746615,-12.97986 27.6581,-24.19995 41.68595,-31.36644 l 5.05917,-2.58462 6.59063,16.41892 c 3.62485,9.03041 6.58745,16.88612 6.58355,17.45713 -0.004,0.57101 -5.25373,4.3083 -11.6663,8.30508 -6.41257,3.99678 -16.59754,12.38208 -22.63325,18.63399 -6.035719,6.25192 -11.08686,11.33984 -11.224762,11.30649 -0.137903,-0.0333 -6.393275,-4.37865 -13.900827,-9.65622 z"
         id="path3411"
         transform="scale(0.26458333)" />
      <path
         style="fill:#000000;stroke:#000000;stroke-width:15.4166;stroke-linecap:round;stroke-linejoin:round;stroke-dasharray:3.85415, 3.85415;stroke-opacity:0.955017;paint-order:stroke markers fill"
         d="m 155.36152,797.56971 c -4.0166,-15.14903 -7.06636,-27.79121 -6.77724,-28.09373 1.07478,-1.12461 19.60423,5.03937 30.47287,10.13705 6.18269,2.89985 14.77077,7.83307 19.08463,10.96269 l 7.84338,5.69024 -11.46199,5.77217 c -6.3041,3.17469 -16.05127,9.66536 -21.66037,14.42371 l -10.19838,8.65155 z"
         id="path3450"
         transform="scale(0.26458333)" />
      <path
         style="fill:#000000;stroke:#000000;stroke-width:15.4166;stroke-linecap:round;stroke-linejoin:round;stroke-dasharray:3.85415, 3.85415;stroke-opacity:0.955017;paint-order:stroke markers fill"
         d="m 263.27015,851.73763 c -9.43378,-9.65109 -24.06001,-20.34093 -32.8647,-24.01977 l -5.49169,-2.29457 5.81929,-16.45738 c 3.20062,-9.05156 6.3196,-17.0309 6.93109,-17.73186 1.45124,-1.66361 20.0339,8.06594 32.64171,17.09061 10.19279,7.296 29.99627,26.85101 29.99627,29.61991 0,0.85357 -4.15525,4.6599 -9.23389,8.45852 -5.07864,3.79862 -11.44523,8.56374 -14.14798,10.58917 l -4.9141,3.6826 z"
         id="path3489"
         transform="scale(0.26458333)" />
      <path
         style="fill:#000000;stroke:#000000;stroke-width:15.4166;stroke-linecap:round;stroke-linejoin:round;stroke-dasharray:3.85415, 3.85415;stroke-opacity:0.955017;paint-order:stroke markers fill"
         d="m 309.88262,908.04953 c -4.82765,-4.90367 -13.65123,-12.25486 -19.60794,-16.33598 -5.95672,-4.08112 -10.65396,-7.58439 -10.43831,-7.78505 0.95808,-0.89151 48.11453,-27.98717 48.70801,-27.98717 1.35351,0 0.60631,23.82097 -1.03598,33.02736 -2.29255,12.85166 -6.51231,27.9966 -7.80056,27.9966 -0.57621,0 -4.99756,-4.01209 -9.82522,-8.91576 z"
         id="path3528"
         transform="scale(0.26458333)" />
      <path
         style="fill:#000000;stroke:#000000;stroke-width:15.4166;stroke-linecap:round;stroke-linejoin:round;stroke-dasharray:3.85415, 3.85415;stroke-opacity:0.955017;paint-order:stroke markers fill"
         d="m 297.47714,1017.5452 c -7.29481,-4.6959 -13.62441,-8.8991 -14.06577,-9.3405 -0.44137,-0.4414 1.28524,-5.4331 3.83691,-11.09275 5.25884,-11.66424 11.44795,-34.75665 11.44795,-42.7139 0,-5.27157 0.0622,-5.31479 7.62799,-5.30347 4.1954,0.006 12.5059,0.47211 18.46778,1.03517 l 10.83978,1.02375 v 5.45611 c 0,7.13228 -4.27966,27.8102 -8.13849,39.32253 -4.43694,13.23706 -12.85538,30.24056 -14.94835,30.19256 -0.99248,-0.023 -7.77299,-3.8835 -15.0678,-8.5795 z"
         id="path3567"
         transform="scale(0.26458333)" />
      <path
         style="fill:#000000;stroke:#000000;stroke-width:15.4166;stroke-linecap:round;stroke-linejoin:round;stroke-dasharray:3.85415, 3.85415;stroke-opacity:0.955017;paint-order:stroke markers fill"
         d="m 250.31196,1065.109 c 5.25744,-10.4257 11.44871,-29.3545 11.44871,-35.0026 0,-2.0629 0.70161,-4.1844 1.55914,-4.7144 0.85753,-0.53 11.38878,7.0183 23.40278,16.7739 l 21.84363,17.7375 -6.94237,2.9751 c -11.54281,4.9465 -23.9486,8.0513 -39.1108,9.7882 -7.92136,0.9074 -14.95487,1.6558 -15.63001,1.663 -0.67515,0.01 0.86786,-4.1421 3.42892,-9.2207 z"
         id="path3606"
         transform="scale(0.26458333)" />
      <path
         style="fill:#000000;stroke:#000000;stroke-width:15.4166;stroke-linecap:round;stroke-linejoin:round;stroke-dasharray:3.85415, 3.85415;stroke-opacity:0.955017;paint-order:stroke markers fill"
         d="m 159.81871,1102.3662 c -7.04818,-1.3338 -13.25572,-2.9454 -13.79455,-3.5815 -0.53882,-0.636 1.47964,-8.872 4.48547,-18.3023 l 5.46515,-17.1459 5.92055,1.087 c 6.89194,1.2653 36.76794,1.4485 45.9336,0.2817 l 6.28927,-0.8006 5.3206,16.7609 c 2.92633,9.2185 5.04881,17.0327 4.71663,17.3649 -0.33219,0.3322 -4.47265,1.6477 -9.20103,2.9234 -13.21967,3.5667 -40.11178,4.2556 -55.13569,1.4124 z"
         id="path3645"
         transform="scale(0.26458333)" />
      <path
         style="fill:#000000;stroke:#000000;stroke-width:15.4166;stroke-linecap:round;stroke-linejoin:round;stroke-dasharray:3.85415, 3.85415;stroke-opacity:0.955017;paint-order:stroke markers fill"
         d="m 107.29715,1094.2535 c -9.966695,-13.6614 -24.676207,-46.8606 -21.964081,-49.5727 0.437231,-0.4372 3.276385,-0.012 6.309232,0.9456 3.032847,0.9573 14.339749,2.2096 25.126449,2.7829 l 19.61217,1.0422 -10.00863,22.4825 c -5.50475,12.3654 -10.75733,24.2158 -11.6724,26.3342 -1.64048,3.7978 -1.74412,3.7416 -7.40274,-4.0147 z"
         id="path3684"
         transform="scale(0.26458333)" />
    </g>
    <g
       id="g4352">
      <path
         id="path3274"
         d="m 198.84662,276.39289 c -5.05405,-4.04856 -10.08858,-8.12247 -15.10339,-12.22168 -0.0116,0.86562 -0.0658,1.74329 -0.16572,2.62987 -0.46848,4.55993 -2.26406,9.46019 -5.38602,13.96189 5.33992,0.46354 11.23507,-0.32025 17.07665,-2.70828 1.20107,-0.49338 2.39556,-1.04777 3.57848,-1.6618 z m 6.39555,-30.25068 -11.98924,-0.31668 c -0.15524,5.93347 -1.90503,11.91123 -4.97463,16.93057 l 10.16336,6.43354 c 4.23673,-6.90029 6.59514,-14.91701 6.80051,-23.04743 z m -59.94658,43.29635 c 2.62634,-5.97826 5.2823,-11.94316 7.96776,-17.89448 -4.13491,1.01861 -8.93776,1.04634 -13.83698,-0.26729 -1.12241,-0.30072 -2.24846,-0.6706 -3.37181,-1.10804 0.19253,1.19281 0.44898,2.39736 0.77371,3.60901 1.45009,5.37203 4.27716,10.81975 8.46732,15.6608 z m 30.80213,-2.3553 -3.73811,-11.5613 c -2.7788,0.93504 -5.67186,1.43209 -8.53291,1.40731 -2.72646,0.0236 -5.48198,-0.42666 -8.13998,-1.27825 l -3.57451,11.61277 c 3.76671,1.19174 7.71374,1.83296 11.71449,1.85112 4.19825,-0.019 8.33735,-0.72421 12.27102,-2.03165 z m -58.00043,-46.0539 c 6.43165,0.44229 12.86123,0.91478 19.28854,1.41741 -2.90904,-4.53624 -4.82253,-10.45179 -5.02381,-17.0177 -5.47762,3.48547 -10.55855,8.7746 -14.26473,15.60029 z m 11.42388,28.657 10.07805,-6.56921 c -3.13303,-4.97258 -4.95286,-10.92774 -5.18477,-16.86276 l -11.98464,0.47519 c 0.30894,8.12436 2.76431,16.11085 7.09136,22.95678 z m 23.21001,-71.87917 c 1.7174,6.29904 3.40245,12.60668 5.05505,18.92268 1.57859,-2.18474 3.59213,-4.21106 6.04047,-5.90845 2.31826,-1.63243 5.04373,-2.94384 8.05445,-3.85943 -2.27109,-2.15502 -4.95686,-4.08288 -8.05445,-5.6437 -3.34137,-1.65574 -7.08977,-2.85536 -11.09552,-3.5111 z m -22.4686,21.31897 9.87305,6.88117 c 0.9043,-1.34041 1.90732,-2.60182 3.00331,-3.76319 2.8351,-3.04263 6.38108,-5.48546 10.22414,-7.09141 l -4.53413,-11.27279 c -5.41604,2.2414 -10.35267,5.6483 -14.39607,9.98359 -1.52747,1.64917 -2.91949,3.41039 -4.1703,5.26263 z m 72.96925,0.97655 c -5.56014,3.29492 -11.13553,6.56337 -16.72596,9.80531 4.89087,2.08031 9.7263,5.9089 13.52202,11.23795 2.61549,-6.01524 3.91731,-13.27706 3.20394,-21.04326 z m -25.85624,-16.79028 -4.11224,11.43377 c 4.23685,1.58482 8.16511,4.18605 11.2511,7.49794 0.84133,0.89152 1.62788,1.84199 2.35703,2.84189 l 9.62463,-7.236 c -1.01031,-1.38852 -2.10305,-2.72053 -3.2756,-3.9865 -4.40122,-4.71894 -9.86075,-8.3379 -15.84492,-10.5511 z"
         style="fill:none;stroke:#000000;stroke-width:1.73197;stroke-linecap:round;stroke-linejoin:round;stroke-dasharray:0.432991, 0.432991;stroke-opacity:0.955017;paint-order:stroke markers fill" />
      <path
         style="fill:#ffffff;stroke:#000000;stroke-width:15.4166;stroke-linecap:round;stroke-linejoin:round;stroke-dasharray:3.85415, 3.85415;stroke-opacity:0.955017;paint-order:stroke markers fill"
         d="m 590.55871,781.51077 c -4.0166,-15.14903 -7.06636,-27.7912 -6.77724,-28.09373 1.07478,-1.12461 19.60423,5.03937 30.47286,10.13706 6.18269,2.89985 14.77078,7.83306 19.08464,10.96269 l 7.84338,5.69023 -11.462,5.77217 c -6.30409,3.17469 -16.05126,9.66536 -21.66036,14.42372 l -10.19838,8.65155 z"
         id="path3871"
         transform="scale(0.26458333)" />
      <path
         style="fill:#ffffff;stroke:#000000;stroke-width:15.4166;stroke-linecap:round;stroke-linejoin:round;stroke-dasharray:3.85415, 3.85415;stroke-opacity:0.955017;paint-order:stroke markers fill"
         d="m 513.88598,838.19501 c -7.50755,-5.27758 -13.87247,-10.61162 -14.14426,-11.85343 -0.27179,-1.24181 5.87076,-8.73921 13.6501,-16.6609 12.74661,-12.97985 27.6581,-24.19995 41.68594,-31.36644 l 5.05918,-2.58462 6.59063,16.41893 c 3.62485,9.03041 6.58745,16.88611 6.58355,17.45712 -0.004,0.57101 -5.25373,4.3083 -11.6663,8.30508 -6.41257,3.99678 -16.59754,12.38208 -22.63326,18.634 -6.03571,6.25191 -11.08685,11.33983 -11.22475,11.30649 -0.13791,-0.0333 -6.39328,-4.37865 -13.90083,-9.65623 z"
         id="path3910"
         transform="scale(0.26458333)" />
      <path
         style="fill:#ffffff;stroke:#000000;stroke-width:15.4166;stroke-linecap:round;stroke-linejoin:round;stroke-dasharray:3.85415, 3.85415;stroke-opacity:0.955017;paint-order:stroke markers fill"
         d="m 482.06582,909.68845 c -14.40975,-1.11691 -26.61206,-2.44327 -27.11626,-2.94746 -2.32129,-2.3213 18.69108,-28.41076 31.12858,-38.65 4.94852,-4.07389 9.29499,-7.1094 9.65882,-6.74557 0.36383,0.36384 1.98019,7.06527 3.59192,14.89207 1.61172,7.82681 4.82376,18.87173 7.13786,24.54426 4.69533,11.50963 4.67921,11.44977 3.00303,11.15165 -0.66243,-0.11781 -12.99421,-1.12804 -27.40395,-2.24495 z"
         id="path3949"
         transform="scale(0.26458333)" />
      <path
         style="fill:#ffffff;stroke:#000000;stroke-width:15.4166;stroke-linecap:round;stroke-linejoin:round;stroke-dasharray:3.85415, 3.85415;stroke-opacity:0.955017;paint-order:stroke markers fill"
         d="m 483.74563,999.26734 c -3.6215,-7.72836 -8.02636,-18.84083 -9.78858,-24.69438 -3.30174,-10.96738 -7.71983,-36.25654 -6.51701,-37.30344 0.37288,-0.32454 8.70757,-1.05791 18.52153,-1.62971 l 17.84356,-1.03964 2.00153,12.46065 c 2.07856,12.94025 9.36517,34.97641 13.80726,41.7559 1.40699,2.14733 2.31975,4.09636 2.02837,4.33117 -2.08636,1.68128 -30.24019,20.17101 -30.71386,20.17101 -0.32904,0 -3.56129,-6.3232 -7.1828,-14.05156 z"
         id="path3988"
         transform="scale(0.26458333)" />
      <path
         style="fill:#ffffff;stroke:#000000;stroke-width:15.4166;stroke-linecap:round;stroke-linejoin:round;stroke-dasharray:3.85415, 3.85415;stroke-opacity:0.955017;paint-order:stroke markers fill"
         d="m 542.49434,1078.1945 c -9.9667,-13.6613 -24.67621,-46.8605 -21.96408,-49.5727 0.43723,-0.4372 3.27638,-0.012 6.30923,0.9457 3.03285,0.9573 14.33975,2.2096 25.12644,2.7828 l 19.61218,1.0423 -10.00863,22.4825 c -5.50475,12.3654 -10.75733,24.2158 -11.6724,26.3342 -1.64049,3.7977 -1.74412,3.7415 -7.40274,-4.0148 z"
         id="path4027"
         transform="scale(0.26458333)" />
      <path
         style="fill:#ffffff;stroke:#000000;stroke-width:15.4166;stroke-linecap:round;stroke-linejoin:round;stroke-dasharray:3.85415, 3.85415;stroke-opacity:0.955017;paint-order:stroke markers fill"
         d="m 595.0159,1086.3073 c -7.04818,-1.3338 -13.25572,-2.9455 -13.79455,-3.5815 -0.53883,-0.636 1.47963,-8.8721 4.48547,-18.3023 l 5.46515,-17.1459 5.92055,1.0869 c 6.89194,1.2654 36.76793,1.4486 45.9336,0.2818 l 6.28927,-0.8007 5.3206,16.7609 c 2.92633,9.2185 5.04881,17.0327 4.71663,17.3649 -0.33219,0.3322 -4.47265,1.6478 -9.20103,2.9235 -13.21968,3.5666 -40.11178,4.2555 -55.13569,1.4124 z"
         id="path4066"
         transform="scale(0.26458333)" />
      <path
         style="fill:#ffffff;stroke:#000000;stroke-width:15.4166;stroke-linecap:round;stroke-linejoin:round;stroke-dasharray:3.85415, 3.85415;stroke-opacity:0.955017;paint-order:stroke markers fill"
         d="m 685.50914,1049.05 c 5.25745,-10.4256 11.44872,-29.3544 11.44872,-35.0025 0,-2.063 0.70161,-4.1844 1.55914,-4.7144 0.85753,-0.53 11.38878,7.0182 23.40277,16.7739 l 21.84363,17.7375 -6.94236,2.975 c -11.54281,4.9465 -23.9486,8.0513 -39.1108,9.7882 -7.92136,0.9074 -14.95487,1.6558 -15.63001,1.6631 -0.67515,0.01 0.86786,-4.1421 3.42891,-9.2208 z"
         id="path4105"
         transform="scale(0.26458333)" />
      <path
         style="fill:#ffffff;stroke:#000000;stroke-width:15.4166;stroke-linecap:round;stroke-linejoin:round;stroke-dasharray:3.85415, 3.85415;stroke-opacity:0.955017;paint-order:stroke markers fill"
         d="m 732.67433,1001.4863 c -7.29481,-4.69592 -13.62441,-8.89915 -14.06577,-9.34052 -0.44137,-0.44137 1.28524,-5.43311 3.8369,-11.09277 5.25885,-11.66423 11.44795,-34.75665 11.44795,-42.7139 0,-5.27157 0.0622,-5.31479 7.628,-5.30346 4.1954,0.006 12.5059,0.4721 18.46778,1.03516 l 10.83978,1.02375 v 5.45611 c 0,7.13229 -4.27966,27.8102 -8.13849,39.32253 -4.43694,13.23705 -12.85538,30.2405 -14.94835,30.1925 -0.99248,-0.023 -7.77299,-3.8835 -15.0678,-8.5794 z"
         id="path4144"
         transform="scale(0.26458333)" />
      <path
         style="fill:#ffffff;stroke:#000000;stroke-width:15.4166;stroke-linecap:round;stroke-linejoin:round;stroke-dasharray:3.85415, 3.85415;stroke-opacity:0.955017;paint-order:stroke markers fill"
         d="m 745.07981,891.99059 c -4.82765,-4.90367 -13.65123,-12.25486 -19.60795,-16.33598 -5.95671,-4.08111 -10.65395,-7.58439 -10.4383,-7.78505 0.95807,-0.8915 48.11453,-27.98716 48.708,-27.98716 1.35351,0 0.60632,23.82096 -1.03597,33.02735 -2.29255,12.85166 -6.51232,27.99661 -7.80056,27.99661 -0.57621,0 -4.99756,-4.0121 -9.82522,-8.91577 z"
         id="path4183"
         transform="scale(0.26458333)" />
      <path
         style="fill:#ffffff;stroke:#000000;stroke-width:15.4166;stroke-linecap:round;stroke-linejoin:round;stroke-dasharray:3.85415, 3.85415;stroke-opacity:0.955017;paint-order:stroke markers fill"
         d="m 698.46734,835.67869 c -9.43378,-9.65108 -24.06001,-20.34093 -32.8647,-24.01976 l -5.49169,-2.29458 5.81929,-16.45738 c 3.20061,-9.05155 6.3196,-17.03089 6.93109,-17.73186 1.45124,-1.66361 20.0339,8.06594 32.64171,17.09061 10.19279,7.296 29.99627,26.85101 29.99627,29.61991 0,0.85357 -4.15525,4.65991 -9.23389,8.45852 -5.07864,3.79862 -11.44523,8.56375 -14.14798,10.58917 l -4.9141,3.6826 z"
         id="path4222"
         transform="scale(0.26458333)" />
    </g>
    <g
       id="g4890"
       transform="translate(0,2.1244635)">
      <path
         id="path3276"
         d="m 201.39597,76.69333 c -5.05405,-4.04856 -10.08858,-8.12247 -15.10339,-12.22168 -0.0116,0.86562 -0.0658,1.74329 -0.16572,2.62987 -0.46848,4.55993 -2.26406,9.46019 -5.38602,13.96189 5.33992,0.46354 11.23507,-0.32025 17.07665,-2.70828 1.20107,-0.49338 2.39556,-1.04777 3.57848,-1.6618 z m 6.39555,-30.250681 -11.98924,-0.316686 c -0.15524,5.933475 -1.90503,11.911234 -4.97463,16.930577 l 10.16336,6.43354 c 4.23673,-6.90029 6.59514,-14.917012 6.80051,-23.047431 z M 147.84495,89.739 c 2.62634,-5.97826 5.2823,-11.94316 7.96776,-17.89448 -4.13491,1.01861 -8.93776,1.04634 -13.83699,-0.26729 -1.1224,-0.30072 -2.24845,-0.6706 -3.37181,-1.10804 0.19254,1.19281 0.44898,2.39736 0.77372,3.60901 1.45008,5.37203 4.27715,10.81975 8.46732,15.6608 z m 30.80212,-2.3553 -3.73811,-11.5613 c -2.77879,0.93504 -5.67185,1.43209 -8.53291,1.40731 -2.72646,0.0236 -5.48198,-0.42666 -8.13997,-1.27825 l -3.57451,11.61277 c 3.76671,1.19174 7.71373,1.83296 11.71448,1.85112 4.19826,-0.019 8.33735,-0.72421 12.27102,-2.03165 z M 120.64665,41.3298 c 6.43165,0.442291 12.86123,0.914777 19.28854,1.417409 -2.90905,-4.53624 -4.82253,-10.451795 -5.02382,-17.017702 -5.47762,3.485473 -10.55854,8.774598 -14.26472,15.600293 z m 11.42388,28.657 10.07804,-6.56921 c -3.13302,-4.972579 -4.95286,-10.927739 -5.18476,-16.862759 l -11.98464,0.475187 c 0.30894,8.124356 2.76431,16.110852 7.09136,22.956782 z m 23.21001,-71.8791728 c 1.71739,6.2990411 3.40244,12.6066748 5.05505,18.9226798 1.57858,-2.184739 3.59213,-4.211057 6.04046,-5.908453 2.31826,-1.6324307 5.04374,-2.9438367 8.05445,-3.8594267 -2.27109,-2.155019 -4.95686,-4.082875 -8.05445,-5.6436971 -3.34137,-1.65574397 -7.08976,-2.855362 -11.09551,-3.511103 z m -22.4686,21.3189708 9.87305,6.881171 c 0.90429,-1.340411 1.90732,-2.601821 3.00331,-3.763191 2.83509,-3.042632 6.38108,-5.485464 10.22413,-7.091415 L 151.37831,4.1803783 c -5.41605,2.241404 -10.35267,5.648295 -14.39607,9.9835927 -1.52748,1.649162 -2.9195,3.410385 -4.1703,5.262627 z m 72.96924,0.976553 c -5.56014,3.294915 -11.13553,6.563369 -16.72596,9.805306 4.89087,2.08031 9.7263,5.908895 13.52202,11.237951 2.61549,-6.015237 3.91731,-13.277064 3.20394,-21.043257 z M 179.92494,3.6128673 175.8127,15.046635 c 4.23685,1.584821 8.16511,4.186054 11.2511,7.497943 0.84133,0.891519 1.62788,1.841988 2.35703,2.841892 l 9.62463,-7.236006 c -1.01031,-1.38852 -2.10305,-2.720524 -3.2756,-3.986493 -4.40122,-4.7189487 -9.86075,-8.3379027 -15.84492,-10.5511037 z"
         style="fill:none;stroke:#000000;stroke-width:1.73197;stroke-linecap:round;stroke-linejoin:round;stroke-dasharray:0.432991, 0.432991;stroke-opacity:0.955017;paint-order:stroke markers fill" />
      <path
         style="fill:#00ffff;stroke:#000000;stroke-width:15.4166;stroke-linecap:round;stroke-linejoin:round;stroke-dasharray:3.85415, 3.85415;stroke-opacity:0.955017;paint-order:stroke markers fill"
         d="m 604.65126,331.53727 c -7.04818,-1.3338 -13.25572,-2.94547 -13.79455,-3.58149 -0.53882,-0.63603 1.47964,-8.87208 4.48547,-18.30233 l 5.46515,-17.14592 5.92055,1.08698 c 6.89194,1.26532 36.76794,1.44857 45.9336,0.28174 l 6.28927,-0.80065 5.3206,16.76091 c 2.92633,9.21851 5.04881,17.03271 4.71663,17.36489 -0.33219,0.33219 -4.47265,1.64774 -9.20103,2.92345 -13.21967,3.56664 -40.11178,4.25554 -55.13569,1.41242 z"
         id="path4409"
         transform="scale(0.26458333)" />
      <path
         style="fill:#00ffff;stroke:#000000;stroke-width:15.4166;stroke-linecap:round;stroke-linejoin:round;stroke-dasharray:3.85415, 3.85415;stroke-opacity:0.955017;paint-order:stroke markers fill"
         d="m 552.1297,323.42451 c -9.9667,-13.66136 -24.67621,-46.86057 -21.96408,-49.57269 0.43723,-0.43723 3.27638,-0.0117 6.30923,0.94561 3.03285,0.95732 14.33975,2.20961 25.12645,2.78285 l 19.61217,1.04227 -10.00863,22.48252 c -5.50474,12.36538 -10.75733,24.21576 -11.6724,26.33417 -1.64048,3.79775 -1.74412,3.74155 -7.40274,-4.01473 z"
         id="path4448"
         transform="scale(0.26458333)" />
      <path
         style="fill:#00ffff;stroke:#000000;stroke-width:15.4166;stroke-linecap:round;stroke-linejoin:round;stroke-dasharray:3.85415, 3.85415;stroke-opacity:0.955017;paint-order:stroke markers fill"
         d="m 493.381,244.49731 c -3.6215,-7.72836 -8.02637,-18.84083 -9.78859,-24.69439 -3.30174,-10.96737 -7.71983,-36.25653 -6.51701,-37.30343 0.37288,-0.32454 8.70757,-1.05792 18.52153,-1.62972 l 17.84356,-1.03963 2.00153,12.46065 c 2.07856,12.94025 9.36517,34.97641 13.80726,41.7559 1.40699,2.14733 2.31975,4.09636 2.02837,4.33117 -2.08636,1.68127 -30.24019,20.17102 -30.71386,20.17102 -0.32904,0 -3.56129,-6.3232 -7.18279,-14.05157 z"
         id="path4487"
         transform="scale(0.26458333)" />
      <path
         style="fill:#00ffff;stroke:#000000;stroke-width:15.4166;stroke-linecap:round;stroke-linejoin:round;stroke-dasharray:3.85415, 3.85415;stroke-opacity:0.955017;paint-order:stroke markers fill"
         d="m 491.70118,154.91841 c -14.40975,-1.11691 -26.61206,-2.44326 -27.11625,-2.94745 -2.3213,-2.3213 18.69107,-28.41076 31.12858,-38.65 4.94852,-4.07389 9.29498,-7.1094 9.65881,-6.74557 0.36384,0.36383 1.9802,7.06526 3.59192,14.89207 1.61172,7.82681 4.82376,18.87172 7.13786,24.54426 4.69533,11.50963 4.67921,11.44976 3.00303,11.15165 -0.66243,-0.11781 -12.99421,-1.12805 -27.40395,-2.24496 z"
         id="path4526"
         transform="scale(0.26458333)" />
      <path
         style="fill:#00ffff;stroke:#000000;stroke-width:15.4166;stroke-linecap:round;stroke-linejoin:round;stroke-dasharray:3.85415, 3.85415;stroke-opacity:0.955017;paint-order:stroke markers fill"
         d="m 742.30969,246.71627 c -7.29481,-4.69592 -13.62441,-8.89915 -14.06577,-9.34052 -0.44137,-0.44137 1.28524,-5.43311 3.83691,-11.09277 5.25884,-11.66424 11.44795,-34.75665 11.44795,-42.7139 0,-5.27157 0.0622,-5.31479 7.62799,-5.30346 4.1954,0.006 12.5059,0.4721 18.46778,1.03516 l 10.83978,1.02375 v 5.45611 c 0,7.13229 -4.27966,27.8102 -8.13849,39.32253 -4.43694,13.23705 -12.85538,30.24054 -14.94835,30.19253 -0.99248,-0.0228 -7.77299,-3.88351 -15.0678,-8.57943 z"
         id="path4565"
         transform="scale(0.26458333)" />
      <path
         style="fill:#00ffff;stroke:#000000;stroke-width:15.4166;stroke-linecap:round;stroke-linejoin:round;stroke-dasharray:3.85415, 3.85415;stroke-opacity:0.955017;paint-order:stroke markers fill"
         d="m 695.14451,294.28002 c 5.25744,-10.42567 11.44871,-29.35446 11.44871,-35.00257 0,-2.06294 0.70161,-4.18443 1.55914,-4.71441 0.85753,-0.52998 11.38878,7.01827 23.40278,16.77389 l 21.84363,17.7375 -6.94237,2.97506 c -11.54281,4.94652 -23.9486,8.0513 -39.1108,9.7882 -7.92136,0.90742 -14.95487,1.65579 -15.63001,1.66304 -0.67515,0.007 0.86787,-4.14207 3.42892,-9.22071 z"
         id="path4604"
         transform="scale(0.26458333)" />
      <path
         style="fill:#00ffff;stroke:#000000;stroke-width:15.4166;stroke-linecap:round;stroke-linejoin:round;stroke-dasharray:3.85415, 3.85415;stroke-opacity:0.955017;paint-order:stroke markers fill"
         d="m 754.71517,137.22056 c -4.82765,-4.90367 -13.65123,-12.25486 -19.60794,-16.33598 -5.95672,-4.08112 -10.65396,-7.58439 -10.43831,-7.78505 0.95808,-0.8915 48.11453,-27.987165 48.70801,-27.987165 1.35351,0 0.60631,23.820965 -1.03598,33.027355 -2.29255,12.85166 -6.51231,27.99661 -7.80056,27.99661 -0.57621,0 -4.99756,-4.0121 -9.82522,-8.91577 z"
         id="path4643"
         transform="scale(0.26458333)" />
      <path
         style="fill:#00ffff;stroke:#000000;stroke-width:15.4166;stroke-linecap:round;stroke-linejoin:round;stroke-dasharray:3.85415, 3.85415;stroke-opacity:0.955017;paint-order:stroke markers fill"
         d="M 708.1027,80.908657 C 698.66892,71.257575 684.04269,60.567732 675.238,56.888896 l -5.49169,-2.294576 5.81929,-16.457379 c 3.20062,-9.051556 6.31961,-17.030895 6.93109,-17.731863 1.45124,-1.663606 20.0339,8.065941 32.64171,17.090614 10.19279,7.296001 29.99627,26.851007 29.99627,29.619906 0,0.853573 -4.15525,4.659907 -9.23389,8.458523 -5.07864,3.798616 -11.44523,8.563743 -14.14798,10.589172 l -4.9141,3.682596 z"
         id="path4682"
         transform="scale(0.26458333)" />
      <path
         style="fill:#00ffff;stroke:#000000;stroke-width:15.4166;stroke-linecap:round;stroke-linejoin:round;stroke-dasharray:3.85415, 3.85415;stroke-opacity:0.955017;paint-order:stroke markers fill"
         d="m 600.19407,26.740739 c -4.0166,-15.149027 -7.06635,-27.791205 -6.77724,-28.0937285 1.07478,-1.1246098 19.60423,5.0393684 30.47287,10.137055 6.18269,2.8998515 14.77077,7.8330625 19.08463,10.9626905 l 7.84338,5.690234 -11.46199,5.772168 c -6.3041,3.174691 -16.05127,9.665365 -21.66037,14.423716 l -10.19838,8.65155 z"
         id="path4721"
         transform="scale(0.26458333)" />
      <path
         style="fill:#00ffff;stroke:#000000;stroke-width:15.4166;stroke-linecap:round;stroke-linejoin:round;stroke-dasharray:3.85415, 3.85415;stroke-opacity:0.955017;paint-order:stroke markers fill"
         d="m 523.52134,83.424977 c -7.50755,-5.27758 -13.87247,-10.611623 -14.14426,-11.85343 -0.27178,-1.241807 5.87076,-8.739213 13.6501,-16.6609 12.74662,-12.979851 27.6581,-24.199946 41.68595,-31.36644 l 5.05917,-2.584614 6.59063,16.418923 c 3.62485,9.030408 6.58745,16.886114 6.58355,17.457125 -0.004,0.57101 -5.25372,4.308296 -11.6663,8.305078 -6.41257,3.996782 -16.59754,12.382079 -22.63325,18.633995 -6.03572,6.251916 -11.08686,11.339837 -11.22476,11.306491 -0.1379,-0.03335 -6.39328,-4.378649 -13.90083,-9.656228 z"
         id="path4760"
         transform="scale(0.26458333)" />
    </g>
  </g>
</svg>
