<?xml version="1.0" encoding="UTF-8" standalone="no"?>
<!-- Created with Inkscape (http://www.inkscape.org/) -->

<svg
   width="210mm"
   height="297mm"
   viewBox="0 0 210 297"
   version="1.1"
   id="svg324"
   inkscape:version="1.2.2 (b0a8486541, 2022-12-01)"
   sodipodi:docname="expreddion petal.svg"
   xmlns:inkscape="http://www.inkscape.org/namespaces/inkscape"
   xmlns:sodipodi="http://sodipodi.sourceforge.net/DTD/sodipodi-0.dtd"
   xmlns="http://www.w3.org/2000/svg"
   xmlns:svg="http://www.w3.org/2000/svg">
  <sodipodi:namedview
     id="namedview326"
     pagecolor="#ffffff"
     bordercolor="#666666"
     borderopacity="1.0"
     inkscape:showpageshadow="2"
     inkscape:pageopacity="0.0"
     inkscape:pagecheckerboard="0"
     inkscape:deskcolor="#d1d1d1"
     inkscape:document-units="mm"
     showgrid="false"
     inkscape:zoom="0.68111408"
     inkscape:cx="483.76624"
     inkscape:cy="380.99344"
     inkscape:window-width="1680"
     inkscape:window-height="956"
     inkscape:window-x="-11"
     inkscape:window-y="-11"
     inkscape:window-maximized="1"
     inkscape:current-layer="layer1" />
  <defs
     id="defs321" />
  <g
     inkscape:label="Layer 1"
     inkscape:groupmode="layer"
     id="layer1">
    <path
       id="rect5098"
       style="fill:none;fill-rule:evenodd;stroke:#000000;stroke-width:0.487097;stroke-linecap:round;stroke-linejoin:round;paint-order:stroke markers fill"
       d="M 7.8096766,16.811213 H 22.856077 c 1.562948,0 2.821207,1.234476 2.821207,2.767884 v 0.461313 c 0,1.533408 -1.258259,2.767884 -2.821207,2.767884 H 7.8096766 c -1.5629459,0 -2.8212019,-1.234476 -2.8212019,-2.767884 v -0.461313 c 0,-1.533408 1.258256,-2.767884 2.8212019,-2.767884 z m 31.1507674,0.576642 h 17.632499 c 1.432698,0 2.586098,1.131604 2.586098,2.537228 0,1.405625 -1.1534,2.537228 -2.586098,2.537228 H 38.960444 c -1.432704,0 -2.586104,-1.131603 -2.586104,-2.537228 0,-1.405624 1.1534,-2.537228 2.586104,-2.537228 z M 15.008646,28.920706 h 35.795935 c 1.708935,0 3.084716,1.349782 3.084716,3.026418 v 4.557385 c 0,1.676637 -1.375781,3.026419 -3.084716,3.026419 H 15.008646 c -1.708933,0 -3.084716,-1.349782 -3.084716,-3.026419 v -4.557385 c 0,-1.676636 1.375783,-3.026418 3.084716,-3.026418 z M 28.649357,4.4909406 h 3.760519 c 1.708929,0 3.084717,1.3497829 3.084717,3.0264189 V 19.623036 c 0,1.676636 -1.375788,3.026419 -3.084717,3.026419 h -3.760519 c -1.708935,0 -3.084716,-1.349783 -3.084716,-3.026419 V 7.5173595 c 0,-1.676636 1.375781,-3.0264189 3.084716,-3.0264189 z M 14.615144,39.743448 H 52.3417 c 1.63346,0 2.948487,1.290172 2.948487,2.892762 0,1.602591 -1.315027,2.892763 -2.948487,2.892763 H 14.615144 c -1.633461,0 -2.948485,-1.290172 -2.948485,-2.892763 0,-1.60259 1.315024,-2.892762 2.948485,-2.892762 z m -0.836352,5.522544 h 39.399257 c 1.781954,0 3.216529,1.407461 3.216529,3.155741 v 62.062897 c 0,1.74828 -1.434575,3.15574 -3.216529,3.15574 H 13.778792 c -1.781956,0 -3.216529,-1.40746 -3.216529,-3.15574 V 48.421733 c 0,-1.74828 1.434573,-3.155741 3.216529,-3.155741 z m -0.0037,-16.309877 H 53.18187 c 1.782153,0 3.216882,1.407614 3.216882,3.156085 v 78.63911 c 0,1.74847 -1.434729,3.15609 -3.216882,3.15609 H 13.775034 c -1.782152,0 -3.21688,-1.40762 -3.21688,-3.15609 V 32.1122 c 0,-1.748471 1.434728,-3.156085 3.21688,-3.156085 z M 8.9497406,22.643944 H 57.202947 c 1.782154,0 3.216883,1.407614 3.216883,3.156085 v 89.159411 c 0,1.74847 -1.434729,3.15609 -3.216883,3.15609 H 8.9497126 c -1.782152,0 -3.2168803,-1.40762 -3.2168803,-3.15609 V 25.800029 c 0,-1.748471 1.4347283,-3.156085 3.2168803,-3.156085 z" />
  </g>
</svg>
