<?xml version="1.0" encoding="UTF-8" standalone="no"?>
<!-- Created with Inkscape (http://www.inkscape.org/) -->

<svg
   width="210mm"
   height="297mm"
   viewBox="0 0 210 297"
   version="1.1"
   id="svg324"
   inkscape:version="1.2.2 (b0a8486541, 2022-12-01)"
   sodipodi:docname="expreddion petal icon.svg"
   xmlns:inkscape="http://www.inkscape.org/namespaces/inkscape"
   xmlns:sodipodi="http://sodipodi.sourceforge.net/DTD/sodipodi-0.dtd"
   xmlns="http://www.w3.org/2000/svg"
   xmlns:svg="http://www.w3.org/2000/svg">
  <sodipodi:namedview
     id="namedview326"
     pagecolor="#ffffff"
     bordercolor="#666666"
     borderopacity="1.0"
     inkscape:showpageshadow="2"
     inkscape:pageopacity="0.0"
     inkscape:pagecheckerboard="0"
     inkscape:deskcolor="#d1d1d1"
     inkscape:document-units="mm"
     showgrid="false"
     inkscape:zoom="2.1971356"
     inkscape:cx="221.42466"
     inkscape:cy="1093.9243"
     inkscape:window-width="1680"
     inkscape:window-height="956"
     inkscape:window-x="-11"
     inkscape:window-y="-11"
     inkscape:window-maximized="1"
     inkscape:current-layer="layer3" />
  <defs
     id="defs321" />
  <g
     inkscape:label="Layer 1"
     inkscape:groupmode="layer"
     id="layer1">
    <path
       id="rect1118"
       style="fill:none;fill-rule:evenodd;stroke:#000000;stroke-width:0.565;stroke-linecap:round;stroke-linejoin:round;paint-order:stroke markers fill"
       d="m 12.640677,103.93925 h 41.788588 c 1.153425,0 2.081994,0.92857 2.081994,2.08199 0,1.15343 -0.928569,2.08199 -2.081994,2.08199 H 12.640677 c -1.153424,0 -2.081994,-0.92856 -2.081994,-2.08199 0,-1.15342 0.92857,-2.08199 2.081994,-2.08199 z m 0,-7.937518 h 41.788588 c 1.153425,0 2.081994,0.928569 2.081994,2.081994 0,1.153424 -0.928569,2.081994 -2.081994,2.081994 H 12.640677 c -1.153424,0 -2.081994,-0.92857 -2.081994,-2.081994 0,-1.153425 0.92857,-2.081994 2.081994,-2.081994 z m 0,-11.641678 h 41.788588 c 1.153425,0 2.081994,0.928569 2.081994,2.081994 0,1.153424 -0.928569,2.081994 -2.081994,2.081994 H 12.640677 c -1.153424,0 -2.081994,-0.92857 -2.081994,-2.081994 0,-1.153425 0.92857,-2.081994 2.081994,-2.081994 z m 0,-10.054176 h 41.788588 c 1.153425,0 2.081994,0.928569 2.081994,2.081994 0,1.153424 -0.928569,2.081993 -2.081994,2.081993 H 12.640677 c -1.153424,0 -2.081994,-0.928569 -2.081994,-2.081993 0,-1.153425 0.92857,-2.081994 2.081994,-2.081994 z m 0,-9.525009 h 41.788588 c 1.153425,0 2.081994,0.928569 2.081994,2.081993 0,1.153425 -0.928569,2.081994 -2.081994,2.081994 H 12.640677 c -1.153424,0 -2.081994,-0.928569 -2.081994,-2.081994 0,-1.153424 0.92857,-2.081993 2.081994,-2.081993 z m 0,-10.054177 h 41.788588 c 1.153425,0 2.081994,0.928569 2.081994,2.081994 0,1.153425 -0.928569,2.081994 -2.081994,2.081994 H 12.640677 c -1.153424,0 -2.081994,-0.928569 -2.081994,-2.081994 0,-1.153425 0.92857,-2.081994 2.081994,-2.081994 z M 7.8096766,16.811213 H 22.856077 c 1.562948,0 2.821207,1.234476 2.821207,2.767884 v 0.461313 c 0,1.533408 -1.258259,2.767884 -2.821207,2.767884 H 7.8096766 c -1.5629459,0 -2.8212019,-1.234476 -2.8212019,-2.767884 v -0.461313 c 0,-1.533408 1.258256,-2.767884 2.8212019,-2.767884 z m 31.1507674,0.576642 h 17.632499 c 1.432698,0 2.586098,1.131604 2.586098,2.537228 0,1.405625 -1.1534,2.537228 -2.586098,2.537228 H 38.960444 c -1.432704,0 -2.586104,-1.131603 -2.586104,-2.537228 0,-1.405624 1.1534,-2.537228 2.586104,-2.537228 z M 15.008646,28.920706 h 35.795935 c 1.708935,0 3.084716,1.349782 3.084716,3.026418 v 4.557385 c 0,1.676637 -1.375781,3.026419 -3.084716,3.026419 H 15.008646 c -1.708933,0 -3.084716,-1.349782 -3.084716,-3.026419 v -4.557385 c 0,-1.676636 1.375783,-3.026418 3.084716,-3.026418 z M 28.649357,4.4909406 h 3.760519 c 1.708929,0 3.084717,1.3497829 3.084717,3.0264189 V 19.623036 c 0,1.676636 -1.375788,3.026419 -3.084717,3.026419 h -3.760519 c -1.708935,0 -3.084716,-1.349783 -3.084716,-3.026419 V 7.5173595 c 0,-1.676636 1.375781,-3.0264189 3.084716,-3.0264189 z M 14.615144,39.743448 H 52.3417 c 1.63346,0 2.948487,1.290172 2.948487,2.892762 0,1.602591 -1.315027,2.892763 -2.948487,2.892763 H 14.615144 c -1.633461,0 -2.948485,-1.290172 -2.948485,-2.892763 0,-1.60259 1.315024,-2.892762 2.948485,-2.892762 z m -0.836352,5.522544 h 39.399257 c 1.781954,0 3.216529,1.407461 3.216529,3.155741 v 62.062897 c 0,1.74828 -1.434575,3.15574 -3.216529,3.15574 H 13.778792 c -1.781956,0 -3.216529,-1.40746 -3.216529,-3.15574 V 48.421733 c 0,-1.74828 1.434573,-3.155741 3.216529,-3.155741 z m -0.0037,-16.309877 H 53.18187 c 1.782153,0 3.216882,1.407614 3.216882,3.156085 v 78.63911 c 0,1.74847 -1.434729,3.15609 -3.216882,3.15609 H 13.775034 c -1.782152,0 -3.21688,-1.40762 -3.21688,-3.15609 V 32.1122 c 0,-1.748471 1.434728,-3.156085 3.21688,-3.156085 z M 8.9497406,22.643944 H 57.202947 c 1.782154,0 3.216883,1.407614 3.216883,3.156085 v 89.159411 c 0,1.74847 -1.434729,3.15609 -3.216883,3.15609 H 8.9497126 c -1.782152,0 -3.2168803,-1.40762 -3.2168803,-3.15609 V 25.800029 c 0,-1.748471 1.4347283,-3.156085 3.2168803,-3.156085 z"
       inkscape:label="outline" />
  </g>
  <g
     inkscape:groupmode="layer"
     id="layer2"
     inkscape:label="Layer 2">
    <path
       id="path1203"
       style="fill:#000000;fill-rule:evenodd;stroke:#000000;stroke-width:0.513181;stroke-linecap:round;stroke-linejoin:round;stroke-dasharray:none;paint-order:stroke markers fill"
       d="m 174.13252,4.7376935 c -0.37064,-0.01247 -0.73903,-0.01193 -1.01544,0.0046 -0.55281,0.03317 -1.57376,0.06625 -2.26859,0.07338 l -1.26298,0.01292 -0.64957,0.5715413 c -0.59157,0.5207187 -0.88891,0.7735167 -1.05523,1.5632111 l -0.0951,0.187069 -0.008,0.5364007 c -0.089,0.9180614 -0.11736,2.3260824 -0.16485,4.7211574 -0.058,2.9277 -0.14419,5.361963 -0.19171,5.409489 -0.0475,0.04753 -0.22889,-0.0165 -0.40256,-0.14211 -0.29441,-0.212924 -0.47678,-0.355927 -0.70642,-0.45992 l -0.12454,-0.101803 -0.20516,-0.0072 c -0.6369,-0.149612 -1.81369,-0.147948 -5.15679,-0.182417 -2.86974,-0.02959 -6.70795,0.008 -8.52919,0.0832 l -3.31143,0.136426 -0.57154,0.396358 c -0.8129,0.563174 -1.3357,1.639774 -1.3317,2.742468 0.002,0.621047 0.12298,1.105156 0.3824,1.574581 0.0301,0.05371 0.0693,0.116529 0.10697,0.171049 0.19117,0.299441 0.42589,0.599191 0.76637,0.929659 l 0.74569,0.72347 -0.43925,0.455269 c -0.24146,0.250321 -0.51948,0.64243 -0.61805,0.871265 -0.14498,0.33657 -0.18803,9.107503 -0.2248,45.905724 l -0.0455,45.489699 0.5302,0.75809 c 0.30684,0.43883 0.81667,0.93506 1.21078,1.17874 l 0.68058,0.42065 11.79928,0.0713 c 6.48969,0.0392 17.72876,0.0849 24.97522,0.10129 10.01569,0.0226 12.41517,0.0205 13.26999,-0.10594 h 0.0439 l 0.0264,-0.0124 c 0.18596,-0.0327 0.31614,-0.0703 0.42529,-0.11989 0.90907,-0.41263 1.44812,-0.88547 1.94511,-1.70636 l 0.45475,-0.75137 -0.0388,-45.424586 -0.0393,-45.424619 -0.55242,-0.802534 c -0.49186,-0.714133 -1.32288,-1.474317 -1.77716,-1.62574 -0.0937,-0.03122 0.0872,-0.338548 0.42788,-0.725537 0.68129,-0.773988 0.78199,-1.070303 0.68988,-2.028817 -0.0725,-0.754644 -0.58075,-1.61525 -1.24437,-2.107366 -0.60221,-0.446577 -2.93362,-0.539318 -12.13776,-0.481624 l -8.35297,0.05219 -0.43099,0.410311 c -0.49991,0.475319 -1.02723,1.346156 -1.15961,1.915646 -0.15716,0.676041 0.062,1.608675 0.49351,2.100131 0.21887,0.249279 0.3979,0.491845 0.3979,0.538985 0,0.04714 -0.53812,0.08527 -1.19579,0.08527 h -1.19579 l 0.22479,-0.311609 c 0.12353,-0.171626 0.36518,-0.562017 0.53692,-0.867131 l 0.31212,-0.554488 v -6.93446 c 1.6e-4,-7.8959025 0.0564,-7.4956848 -1.19527,-8.5436632 -0.60306,-0.5049063 -0.79354,-0.5817963 -1.71824,-0.6965983 -0.28595,-0.0355 -0.65875,-0.06091 -1.0294,-0.07338 z m -6.0973,17.2883485 c 0.10371,0 0.56771,0.582415 0.5023,0.630452 -0.0868,0.06378 -0.93276,0.18657 -0.93276,0.135392 0,-0.16711 0.33653,-0.765844 0.43046,-0.765844 z m 4.87257,7.934915 c 9.17331,-0.02895 17.78136,0.0041 19.12855,0.07338 3.70594,0.190588 3.63284,0.103074 3.70262,4.442106 0.0547,3.399483 -0.0341,3.941709 -0.75758,4.62194 -0.34441,0.323813 -0.43687,0.33515 -3.36,0.42168 -3.70581,0.109685 -28.27669,0.09593 -32.26883,-0.01809 -1.60185,-0.04575 -3.03691,-0.137629 -3.18947,-0.204121 -0.15256,-0.06649 -0.51184,-0.30298 -0.79789,-0.52555 l -0.51986,-0.404627 V 34.87228 31.376888 l 0.69195,-0.681614 0.69194,-0.681611 z m -18.25987,0.28112 c 0.043,0.04296 -0.004,0.208984 -0.10387,0.368969 -0.19457,0.311568 -0.33104,0.363162 -0.4501,0.170535 -0.0873,-0.141325 0.4393,-0.654185 0.55397,-0.539504 z m 37.62458,16.145269 c 5.71107,0.0065 5.11195,0.194143 5.59811,1.187008 0.3685,0.752565 0.37064,0.778822 0.41186,4.316532 0.0228,1.957612 0.0178,3.559021 -0.0114,3.558955 -0.0291,-6.6e-5 -0.25894,-0.127159 -0.51056,-0.28267 -0.0674,-0.04166 -0.15017,-0.07578 -0.27079,-0.105937 l -0.13642,-0.09715 -1.58027,-0.0036 c -1.67458,-0.04886 -7.23095,-0.04908 -15.28537,-0.03617 l -1.37201,-0.0031 c -10.03061,-0.02379 -19.77216,0.0094 -21.64829,0.0739 -0.13201,0.0045 -0.1429,0.0085 -0.26562,0.01292 -2.31308,0.03729 -3.05667,0.09153 -3.30729,0.187584 l -0.6041,0.232029 0.0667,-3.629752 c 0.069,-3.761039 0.16034,-4.428519 0.67127,-4.891175 0.27707,-0.250886 0.70353,-0.26783 8.91006,-0.349851 4.74041,-0.04738 14.30108,-0.10959 21.24573,-0.13849 3.57985,-0.0149 6.1847,-0.03317 8.08839,-0.03101 z m -38.95266,12.62507 0.28319,0.256315 c 0.48495,0.438883 3.19904,0.489273 24.11584,0.449067 0.39426,-7.57e-4 0.41236,-0.0023 0.7922,-0.0031 0.57852,-8.23e-4 1.06676,0.0017 1.64486,5.18e-4 10.22331,-0.02118 14.13338,-0.04228 15.95303,-0.109037 0.40519,-0.01054 0.79404,-0.02244 1.03508,-0.03514 0.0159,-0.0013 0.0308,-0.0028 0.046,-0.0041 0.35086,-0.01998 0.70727,-0.03955 0.75293,-0.06563 l 0.3116,-0.178284 v 3.053046 3.052527 l -0.38137,-0.149863 c -0.68885,-0.27065 -13.49648,-0.427254 -28.04945,-0.342614 -7.74226,0.04503 -14.51371,0.138237 -15.04766,0.206705 -0.53395,0.06847 -1.07987,0.168831 -1.21336,0.223243 -0.22704,0.09254 -0.24288,-0.109699 -0.24288,-3.12746 z m 0.0481,10.167337 c 0.0265,0 0.1839,0.118075 0.34985,0.261998 0.0511,0.04435 0.12508,0.07519 0.20309,0.106971 l 0.10335,0.111104 0.4992,0.0083 c 0.54654,0.05282 1.48479,0.08521 3.27215,0.130225 2.07687,0.05222 11.82698,0.07473 21.66689,0.05013 0.67009,-0.0017 0.73353,-0.005 1.35806,-0.0067 0.45012,-8.34e-4 0.90404,0.0017 1.34669,5.18e-4 8.92787,-0.02304 12.29123,-0.04361 13.87822,-0.112138 0.97381,-0.02788 1.61037,-0.05998 1.70842,-0.103354 0.22034,-0.09748 0.4227,-0.155557 0.44958,-0.128672 0.0269,0.02688 0.0908,1.255744 0.14212,2.730582 l 0.0698,1.99781 c -0.006,0.370263 -0.0177,0.600612 -0.0336,0.666626 l -0.2775,-0.08165 c -0.16231,-0.04783 -0.40178,-0.08704 -0.69918,-0.122991 -0.13647,-0.02377 -0.34689,-0.04444 -0.62942,-0.06201 -2.10364,-0.143505 -7.20542,-0.168944 -21.44469,-0.172082 -12.2327,-0.0027 -16.8778,0.0052 -19.02468,0.06511 h -1.53066 l -0.16588,0.08217 c -0.22174,0.03427 -0.3561,0.07367 -0.45785,0.125573 -0.29903,0.152559 -0.6085,0.277503 -0.68781,0.277503 -0.0952,0 -0.14418,-0.988922 -0.14418,-2.912485 0,-1.601846 0.0216,-2.912483 0.0481,-2.912483 z m 44.88666,9.715169 v 3.047872 c 0,1.67624 -0.0467,3.04536 -0.10386,3.04271 -0.0572,-0.003 -0.35376,-0.12547 -0.65888,-0.27285 -0.091,-0.044 -0.20962,-0.0783 -0.37155,-0.109037 l -0.18294,-0.0956 -1.42317,0.001 c -1.82879,-0.0542 -5.56856,-0.0625 -14.80323,-0.0605 -19.54905,0.004 -26.38651,0.11935 -26.89603,0.453197 -0.19066,0.12493 -0.37982,0.22738 -0.42065,0.22738 -0.0408,0 -0.0744,-1.4113 -0.0744,-3.13572 0,-2.931861 0.0159,-3.128449 0.24288,-3.034445 0.41227,0.170752 2.89136,0.247751 7.57008,0.286803 3.78808,0.03633 9.00653,0.04669 17.08164,0.02739 4.56448,-0.01091 5.89379,-0.0272 8.56279,-0.03979 2.16165,-0.0103 5.43774,-0.01683 6.78201,-0.03152 0.52426,-0.0065 1.02476,-0.01589 1.41697,-0.02377 1.71934,-0.02916 2.78665,-0.06401 2.89698,-0.11317 z m -0.048,9.978709 c 0.0264,0 0.048,1.745947 0.048,3.879864 v 3.879847 l -0.38137,-0.17001 c -0.0226,-0.0101 -0.52395,-0.0188 -0.71985,-0.0284 -1.16826,-0.10922 -5.41502,-0.141627 -17.24856,-0.172077 -4.73979,-0.0181 -9.11003,-0.0223 -13.37334,-0.0165 -0.008,1e-5 -0.0177,-10e-6 -0.0258,0 -8.7e-4,0 -0.001,0 -0.002,0 -5.75723,0.008 -10.55866,0.0316 -11.27424,0.0951 -0.78313,0.0694 -1.53308,0.17181 -1.66657,0.22737 -0.22781,0.0948 -0.24288,-0.13953 -0.24288,-3.812157 0,-3.672327 0.0151,-3.906744 0.24288,-3.812687 0.61379,0.25346 1.72338,0.34512 7.28948,0.38344 4.72456,0.0733 11.71275,0.0887 21.24056,0.0388 1.74641,-0.009 1.77247,-0.0175 3.14038,-0.0253 8.66255,-0.015 12.12236,-0.0545 12.4535,-0.22479 0.25962,-0.13349 0.49343,-0.242367 0.51987,-0.242367 z m -44.88667,11.506249 0.72812,0.38396 0.72812,0.38344 14.35778,-0.003 c 5.73568,0.04 11.57497,0.0361 16.55248,-0.0165 9.571,-0.0311 11.62957,-0.12463 12.32586,-0.39946 0.22427,-0.0885 0.24236,0.0539 0.24236,1.87534 0,1.82501 -0.0177,1.96384 -0.24236,1.86655 -0.0796,-0.0344 -0.2494,-0.0657 -0.51366,-0.0941 -0.002,-8.1e-4 -0.004,-0.002 -0.007,-0.003 -0.003,-10e-4 -0.0653,-0.002 -0.0703,-0.003 -1.50632,-0.15098 -7.69775,-0.19326 -17.16898,-0.1974 -0.34306,-10e-4 -0.64006,-8.8e-4 -0.98495,-0.002 -2.17103,1e-4 -2.94052,-0.0174 -5.63015,-0.0119 -0.58309,10e-4 -0.52566,0.003 -1.07435,0.005 -5.74391,-0.004 -10.73155,0.009 -13.19868,0.0563 -3.67694,0.0357 -5.25374,0.0917 -5.52473,0.21445 l -0.51986,0.23565 v -2.14509 z m 0,7.90598 0.82786,0.41806 0.82837,0.41806 18.48414,-0.003 c 17.74287,-0.003 23.62519,-0.10027 24.42435,-0.40411 l 0.37,-0.14056 -5.1e-4,1.34876 c -4.3e-4,0.74182 -0.0674,1.58881 -0.14883,1.88205 -0.223,0.8031 -0.91441,1.47974 -1.65778,1.62316 -0.75363,0.1454 -39.99516,0.13946 -40.98768,-0.006 -1.68512,-0.24731 -2.13992,-1.0783 -2.13992,-3.91139 z"
       inkscape:label="black" />
  </g>
  <g
     inkscape:groupmode="layer"
     id="layer3"
     inkscape:label="Layer 3">
    <path
       id="path846"
       style="fill:none;fill-rule:evenodd;stroke:#000000;stroke-width:0.565;stroke-linecap:round;stroke-linejoin:round;paint-order:stroke markers fill"
       d="m 13.242787,278.86455 h 41.788588 c 1.153425,0 2.081994,0.92857 2.081994,2.08199 0,1.15343 -0.928569,2.08199 -2.081994,2.08199 H 13.242787 c -1.153424,0 -2.081994,-0.92856 -2.081994,-2.08199 0,-1.15342 0.92857,-2.08199 2.081994,-2.08199 z m 0,-7.93754 h 41.788588 c 1.153425,0 2.081994,0.92857 2.081994,2.082 0,1.15343 -0.928569,2.08201 -2.081994,2.08201 H 13.242787 c -1.153424,0 -2.081994,-0.92858 -2.081994,-2.08201 0,-1.15343 0.92857,-2.082 2.081994,-2.082 z m 0,-11.64175 h 41.788588 c 1.153425,0 2.081994,0.92858 2.081994,2.08201 0,1.15343 -0.928569,2.08201 -2.081994,2.08201 H 13.242787 c -1.153424,0 -2.081994,-0.92858 -2.081994,-2.08201 0,-1.15343 0.92857,-2.08201 2.081994,-2.08201 z m 0,-10.05423 h 41.788588 c 1.153425,0 2.081994,0.92858 2.081994,2.08201 0,1.15343 -0.928569,2.082 -2.081994,2.082 H 13.242787 c -1.153424,0 -2.081994,-0.92857 -2.081994,-2.082 0,-1.15343 0.92857,-2.08201 2.081994,-2.08201 z m 0,-9.52506 h 41.788588 c 1.153425,0 2.081994,0.92857 2.081994,2.082 0,1.15343 -0.928569,2.08201 -2.081994,2.08201 H 13.242787 c -1.153424,0 -2.081994,-0.92858 -2.081994,-2.08201 0,-1.15343 0.92857,-2.082 2.081994,-2.082 z m 0,-10.05424 h 41.788588 c 1.153425,0 2.081994,0.92858 2.081994,2.08201 0,1.15343 -0.928569,2.08201 -2.081994,2.08201 H 13.242787 c -1.153424,0 -2.081994,-0.92858 -2.081994,-2.08201 0,-1.15343 0.92857,-2.08201 2.081994,-2.08201 z M 8.4117863,191.73604 H 23.458187 c 1.562948,0 2.821207,1.23448 2.821207,2.7679 v 0.46131 c 0,1.53342 -1.258259,2.76791 -2.821207,2.76791 H 8.4117863 c -1.5629459,0 -2.8212019,-1.23449 -2.8212019,-2.76791 v -0.46131 c 0,-1.53342 1.258256,-2.7679 2.8212019,-2.7679 z m 31.1507677,0.57664 h 17.632499 c 1.432698,0 2.586098,1.13162 2.586098,2.53725 0,1.40563 -1.1534,2.53724 -2.586098,2.53724 H 39.562554 c -1.432704,0 -2.586104,-1.13161 -2.586104,-2.53724 0,-1.40563 1.1534,-2.53725 2.586104,-2.53725 z M 15.610756,203.8456 h 35.795935 c 1.708935,0 3.084716,1.34979 3.084716,3.02644 v 4.55741 c 0,1.67664 -1.375781,3.02643 -3.084716,3.02643 H 15.610756 c -1.708933,0 -3.084716,-1.34979 -3.084716,-3.02643 v -4.55741 c 0,-1.67665 1.375783,-3.02644 3.084716,-3.02644 z m 13.640711,-24.42991 h 3.760519 c 1.708929,0 3.084717,1.3498 3.084717,3.02644 v 12.10575 c 0,1.67664 -1.375788,3.02643 -3.084717,3.02643 h -3.760519 c -1.708935,0 -3.084716,-1.34979 -3.084716,-3.02643 v -12.10575 c 0,-1.67664 1.375781,-3.02644 3.084716,-3.02644 z M 15.217254,214.66841 H 52.94381 c 1.63346,0 2.948487,1.29017 2.948487,2.89277 0,1.6026 -1.315027,2.89278 -2.948487,2.89278 H 15.217254 c -1.633461,0 -2.948485,-1.29018 -2.948485,-2.89278 0,-1.6026 1.315024,-2.89277 2.948485,-2.89277 z m -0.836352,5.52257 h 39.399257 c 1.781954,0 3.216529,1.40747 3.216529,3.15576 v 62.06319 c 0,1.74828 -1.434575,3.15574 -3.216529,3.15574 H 14.380902 c -1.781956,0 -3.216529,-1.40746 -3.216529,-3.15574 v -62.06319 c 0,-1.74829 1.434573,-3.15576 3.216529,-3.15576 z m -0.0037,-16.30997 H 53.78398 c 1.782153,0 3.216882,1.40762 3.216882,3.1561 v 78.6395 c 0,1.74847 -1.434729,3.15609 -3.216882,3.15609 H 14.377144 c -1.782152,0 -3.21688,-1.40762 -3.21688,-3.15609 v -78.6395 c 0,-1.74848 1.434728,-3.1561 3.21688,-3.1561 z M 9.5518503,197.5688 H 57.805057 c 1.782154,0 3.216883,1.40763 3.216883,3.15611 v 89.15983 c 0,1.74847 -1.434729,3.15609 -3.216883,3.15609 H 9.5518223 c -1.782152,0 -3.2168803,-1.40762 -3.2168803,-3.15609 v -89.15983 c 0,-1.74848 1.4347283,-3.15611 3.2168803,-3.15611 z"
       inkscape:label="white" />
  </g>
  <g
     inkscape:groupmode="layer"
     id="layer4"
     inkscape:label="Layer 4" />
  <g
     inkscape:groupmode="layer"
     id="layer5"
     inkscape:label="Layer 5">
    <path
       id="path290"
       style="fill:none;fill-rule:evenodd;stroke:#4d4d4d;stroke-width:1.965;stroke-linecap:round;stroke-linejoin:round;paint-order:stroke markers fill;stroke-dasharray:none"
       d="m 81.961533,171.6727 h 41.788657 c 1.15342,0 2.082,0.92857 2.082,2.08199 0,1.15343 -0.92858,2.08199 -2.082,2.08199 H 81.961533 c -1.153424,0 -2.081994,-0.92856 -2.081994,-2.08199 0,-1.15342 0.92857,-2.08199 2.081994,-2.08199 z m 0,-7.93753 h 41.788657 c 1.15342,0 2.082,0.92856 2.082,2.08199 0,1.15343 -0.92858,2.08201 -2.082,2.08201 H 81.961533 c -1.153424,0 -2.081994,-0.92858 -2.081994,-2.08201 0,-1.15343 0.92857,-2.08199 2.081994,-2.08199 z m 0,-11.64169 h 41.788657 c 1.15342,0 2.082,0.92857 2.082,2.08199 0,1.15343 -0.92858,2.082 -2.082,2.082 H 81.961533 c -1.153424,0 -2.081994,-0.92857 -2.081994,-2.082 0,-1.15342 0.92857,-2.08199 2.081994,-2.08199 z m 0,-10.05418 h 41.788657 c 1.15342,0 2.082,0.92857 2.082,2.082 0,1.15342 -0.92858,2.08198 -2.082,2.08198 H 81.961533 c -1.153424,0 -2.081994,-0.92856 -2.081994,-2.08198 0,-1.15343 0.92857,-2.082 2.081994,-2.082 z m 0,-9.52502 h 41.788657 c 1.15342,0 2.082,0.92857 2.082,2.082 0,1.15342 -0.92858,2.08199 -2.082,2.08199 H 81.961533 c -1.153424,0 -2.081994,-0.92857 -2.081994,-2.08199 0,-1.15343 0.92857,-2.082 2.081994,-2.082 z m 0,-10.05419 h 41.788657 c 1.15342,0 2.082,0.92857 2.082,2.082 0,1.15342 -0.92858,2.082 -2.082,2.082 H 81.961533 c -1.153424,0 -2.081994,-0.92858 -2.081994,-2.082 0,-1.15343 0.92857,-2.082 2.081994,-2.082 z m -4.831,-37.915532 h 15.0464 c 1.562948,0 2.821207,1.234476 2.821207,2.767884 v 0.461313 c 0,1.533408 -1.258259,2.767884 -2.821207,2.767884 h -15.0464 c -1.562947,0 -2.821203,-1.234476 -2.821203,-2.767884 v -0.461313 c 0,-1.533408 1.258256,-2.767884 2.821203,-2.767884 z M 108.28131,85.1212 h 17.63256 c 1.43271,0 2.58611,1.131604 2.58611,2.537228 0,1.405625 -1.1534,2.537228 -2.58611,2.537228 h -17.63256 c -1.43271,0 -2.58612,-1.131603 -2.58612,-2.537228 0,-1.405624 1.15341,-2.537228 2.58612,-2.537228 z M 84.329502,96.654051 H 120.1255 c 1.70894,0 3.08473,1.349782 3.08473,3.026418 v 4.557391 c 0,1.67664 -1.37579,3.02642 -3.08473,3.02642 H 84.329502 c -1.708933,0 -3.084716,-1.34978 -3.084716,-3.02642 v -4.557391 c 0,-1.676636 1.375783,-3.026418 3.084716,-3.026418 z M 97.970213,72.224284 h 3.760517 c 1.70893,0 3.08472,1.349783 3.08472,3.026419 v 12.105678 c 0,1.676636 -1.37579,3.026419 -3.08472,3.026419 h -3.760517 c -1.708935,0 -3.084716,-1.349783 -3.084716,-3.026419 V 75.250703 c 0,-1.676636 1.375781,-3.026419 3.084716,-3.026419 z M 83.936,107.47681 h 37.72662 c 1.63347,0 2.94849,1.29018 2.94849,2.89277 0,1.60259 -1.31502,2.89277 -2.94849,2.89277 H 83.936 c -1.633461,0 -2.948485,-1.29018 -2.948485,-2.89277 0,-1.60259 1.315024,-2.89277 2.948485,-2.89277 z m -0.836352,5.52255 h 39.399332 c 1.78195,0 3.21653,1.40746 3.21653,3.15575 v 62.06297 c 0,1.74828 -1.43458,3.15574 -3.21653,3.15574 H 83.099648 c -1.781956,0 -3.216529,-1.40746 -3.216529,-3.15574 v -62.06297 c 0,-1.74829 1.434573,-3.15575 3.216529,-3.15575 z m -0.0037,-16.3099 H 122.5028 c 1.78215,0 3.21688,1.407614 3.21688,3.156085 v 78.639215 c 0,1.74847 -1.43473,3.15609 -3.21688,3.15609 H 83.09589 c -1.782152,0 -3.21688,-1.40762 -3.21688,-3.15609 V 99.845545 c 0,-1.748471 1.434728,-3.156085 3.21688,-3.156085 z m -4.825352,-6.312171 h 48.253284 c 1.78216,0 3.2169,1.407614 3.2169,3.156085 v 89.159516 c 0,1.74847 -1.43474,3.15609 -3.2169,3.15609 H 78.270568 c -1.782151,0 -3.216881,-1.40762 -3.216881,-3.15609 V 93.533374 c 0,-1.748471 1.43473,-3.156085 3.216881,-3.156085 z"
       inkscape:label="gray" />
  </g>
</svg>
