<?xml version="1.0" encoding="UTF-8" standalone="no"?>
<!-- Created with Inkscape (http://www.inkscape.org/) -->

<svg
   width="210mm"
   height="297mm"
   viewBox="0 0 210 297"
   version="1.1"
   id="svg324"
   inkscape:version="1.2.2 (b0a8486541, 2022-12-01)"
   sodipodi:docname="expreddion petal icon.svg"
   xmlns:inkscape="http://www.inkscape.org/namespaces/inkscape"
   xmlns:sodipodi="http://sodipodi.sourceforge.net/DTD/sodipodi-0.dtd"
   xmlns="http://www.w3.org/2000/svg"
   xmlns:svg="http://www.w3.org/2000/svg">
  <sodipodi:namedview
     id="namedview326"
     pagecolor="#ffffff"
     bordercolor="#666666"
     borderopacity="1.0"
     inkscape:showpageshadow="2"
     inkscape:pageopacity="0.0"
     inkscape:pagecheckerboard="0"
     inkscape:deskcolor="#d1d1d1"
     inkscape:document-units="mm"
     showgrid="false"
     inkscape:zoom="1.1039267"
     inkscape:cx="493.23929"
     inkscape:cy="240.50511"
     inkscape:window-width="1680"
     inkscape:window-height="956"
     inkscape:window-x="-11"
     inkscape:window-y="-11"
     inkscape:window-maximized="1"
     inkscape:current-layer="layer2" />
  <defs
     id="defs321" />
  <g
     inkscape:label="Layer 1"
     inkscape:groupmode="layer"
     id="layer1">
    <path
       id="rect5098"
       style="fill:none;fill-rule:evenodd;stroke:#000000;stroke-width:0.487097;stroke-linecap:round;stroke-linejoin:round;paint-order:stroke markers fill"
       d="M 7.8096766,16.811213 H 22.856077 c 1.562948,0 2.821207,1.234476 2.821207,2.767884 v 0.461313 c 0,1.533408 -1.258259,2.767884 -2.821207,2.767884 H 7.8096766 c -1.5629459,0 -2.8212019,-1.234476 -2.8212019,-2.767884 v -0.461313 c 0,-1.533408 1.258256,-2.767884 2.8212019,-2.767884 z m 31.1507674,0.576642 h 17.632499 c 1.432698,0 2.586098,1.131604 2.586098,2.537228 0,1.405625 -1.1534,2.537228 -2.586098,2.537228 H 38.960444 c -1.432704,0 -2.586104,-1.131603 -2.586104,-2.537228 0,-1.405624 1.1534,-2.537228 2.586104,-2.537228 z M 15.008646,28.920706 h 35.795935 c 1.708935,0 3.084716,1.349782 3.084716,3.026418 v 4.557385 c 0,1.676637 -1.375781,3.026419 -3.084716,3.026419 H 15.008646 c -1.708933,0 -3.084716,-1.349782 -3.084716,-3.026419 v -4.557385 c 0,-1.676636 1.375783,-3.026418 3.084716,-3.026418 z M 28.649357,4.4909406 h 3.760519 c 1.708929,0 3.084717,1.3497829 3.084717,3.0264189 V 19.623036 c 0,1.676636 -1.375788,3.026419 -3.084717,3.026419 h -3.760519 c -1.708935,0 -3.084716,-1.349783 -3.084716,-3.026419 V 7.5173595 c 0,-1.676636 1.375781,-3.0264189 3.084716,-3.0264189 z M 14.615144,39.743448 H 52.3417 c 1.63346,0 2.948487,1.290172 2.948487,2.892762 0,1.602591 -1.315027,2.892763 -2.948487,2.892763 H 14.615144 c -1.633461,0 -2.948485,-1.290172 -2.948485,-2.892763 0,-1.60259 1.315024,-2.892762 2.948485,-2.892762 z m -0.836352,5.522544 h 39.399257 c 1.781954,0 3.216529,1.407461 3.216529,3.155741 v 62.062897 c 0,1.74828 -1.434575,3.15574 -3.216529,3.15574 H 13.778792 c -1.781956,0 -3.216529,-1.40746 -3.216529,-3.15574 V 48.421733 c 0,-1.74828 1.434573,-3.155741 3.216529,-3.155741 z m -0.0037,-16.309877 H 53.18187 c 1.782153,0 3.216882,1.407614 3.216882,3.156085 v 78.63911 c 0,1.74847 -1.434729,3.15609 -3.216882,3.15609 H 13.775034 c -1.782152,0 -3.21688,-1.40762 -3.21688,-3.15609 V 32.1122 c 0,-1.748471 1.434728,-3.156085 3.21688,-3.156085 z M 8.9497406,22.643944 H 57.202947 c 1.782154,0 3.216883,1.407614 3.216883,3.156085 v 89.159411 c 0,1.74847 -1.434729,3.15609 -3.216883,3.15609 H 8.9497126 c -1.782152,0 -3.2168803,-1.40762 -3.2168803,-3.15609 V 25.800029 c 0,-1.748471 1.4347283,-3.156085 3.2168803,-3.156085 z"
       inkscape:label="outline" />
  </g>
  <g
     inkscape:groupmode="layer"
     id="layer2"
     inkscape:label="Layer 2">
    <path
       id="path372"
       style="display:inline;fill:#000000;fill-rule:evenodd;stroke:#000000;stroke-width:4.24501;stroke-linecap:round;stroke-linejoin:round;paint-order:stroke markers fill"
       d="M 650.28126 16.97461 C 643.82227 16.97461 638.62305 22.075224 638.62305 28.41211 L 638.62305 71.222657 C 638.87211 72.111992 639.04884 73.030964 639.04884 74.000001 L 639.04884 75.744142 C 639.04884 76.088967 638.97823 76.41392 638.94532 76.750001 C 640.12223 81.766588 644.62432 85.49282 650.08204 85.583985 L 664.69337 85.583985 C 671.05728 85.477683 676.15431 80.435907 676.15431 74.166017 L 676.15431 28.41211 C 676.15431 22.075224 670.95312 16.97461 664.49415 16.97461 L 650.28126 16.97461 z M 664.69337 85.583985 C 664.62537 85.585121 664.56244 85.603517 664.49415 85.603517 L 650.28126 85.603517 C 650.21297 85.603517 650.15004 85.585121 650.08204 85.583985 L 631.88477 85.583985 C 630.78391 85.959133 629.61907 86.205079 628.38477 86.205079 L 572.11329 86.205079 C 567.21671 87.744866 563.66798 92.183335 563.66798 97.51172 L 563.66798 434.49219 C 563.66798 441.10058 569.09047 446.42188 575.82618 446.42188 L 758.19923 446.42188 C 764.93491 446.42188 770.35743 441.10058 770.35743 434.49219 L 770.35743 97.51172 C 770.35743 90.903332 764.93491 85.583985 758.19923 85.583985 L 664.69337 85.583985 z M 572.11329 86.205079 C 573.28896 85.835374 574.52027 85.584188 575.82423 85.583985 L 575.82618 85.583985 L 631.88477 85.583985 C 635.73905 84.270544 638.54067 80.88225 638.94532 76.750001 C 638.74991 75.91705 638.62305 75.058824 638.62305 74.166017 L 638.62305 71.222657 C 637.38256 66.793113 633.30427 63.539063 628.38477 63.539063 L 571.51759 63.539063 C 565.61038 63.539063 560.85352 68.204449 560.85352 74.000001 L 560.85352 75.744142 C 560.85352 81.539694 565.61038 86.205079 571.51759 86.205079 L 572.11329 86.205079 z M 654.44923 19.085938 C 655.38027 19.084038 656.3746 19.085938 657.43751 19.085938 C 674.52849 19.085938 674.63087 19.272964 674.63087 50.730469 C 674.63087 74.020041 674.39809 76.24578 671.5879 79.81836 C 668.80361 83.357999 667.6458 83.685548 657.96681 83.685548 C 650.76898 83.685548 646.34533 82.955561 644.12501 81.400392 C 640.94994 79.176499 640.86134 78.372056 640.86134 51.531251 C 640.86134 20.32375 640.48366 19.115148 654.44923 19.085938 z M 595.15626 64.583985 C 611.47648 64.54604 629.51543 65.217359 631.9961 66.472657 C 636.77124 68.889032 638.52827 76.781251 635.18165 80.781251 C 632.96543 83.430158 630.45346 83.673965 601.48829 84.033204 C 584.27431 84.246701 568.9327 83.953474 567.39649 83.382814 C 561.31017 81.121882 561.98888 68.424314 568.32423 66.015626 C 570.80914 65.070861 582.46275 64.613495 595.15626 64.583985 z M 689.25196 65.718751 C 683.83701 65.718751 679.47852 69.994053 679.47852 75.306642 C 679.47852 80.619235 683.83701 84.896485 689.25196 84.896485 L 755.89454 84.896485 C 761.30947 84.896485 765.66993 80.619235 765.66993 75.306642 C 765.66993 69.994053 761.30947 65.718751 755.89454 65.718751 L 689.25196 65.718751 z M 723.27735 67.53711 C 759.16638 67.53711 759.64718 67.576339 761.90431 70.798829 C 764.92489 75.111331 764.78576 77.216205 761.25196 80.750001 C 758.47844 83.523538 756.35917 83.685548 723.01368 83.685548 L 687.71095 83.685548 L 684.1211 80.097657 C 681.77352 77.750084 680.85233 75.591384 681.45704 73.857423 C 683.55699 67.835886 685.5399 67.53711 723.27735 67.53711 z M 598.72657 109.30664 L 734.01759 109.30664 C 734.48555 109.30664 734.92958 109.38932 735.38282 109.44141 L 743.00196 109.44141 C 749.73769 109.44141 755.16017 114.76075 755.16017 121.36914 L 755.16017 215.33399 C 755.1554 215.32498 755.15128 215.31563 755.14649 215.30664 L 755.14649 183.01172 C 755.14649 176.81306 750.35591 171.80643 744.20509 171.20313 C 742.86206 171.76369 741.38447 172.07813 739.82813 172.07813 L 597.23829 172.07813 C 595.68197 172.07813 594.20435 171.76369 592.86134 171.20313 C 586.71056 171.80643 581.91993 176.81306 581.91993 183.01172 L 581.91993 217.41992 C 581.91449 217.4374 581.90967 217.45515 581.9043 217.47266 L 581.9043 121.36914 C 581.9043 114.76075 587.32682 109.44141 594.06251 109.44141 L 597.36134 109.44141 C 597.81457 109.38932 598.25862 109.30664 598.72657 109.30664 z M 597.36134 109.44141 C 591.55877 110.10825 587.06641 114.86637 587.06641 120.74414 L 587.06641 137.9707 C 587.06641 144.3076 592.26764 149.40821 598.72657 149.40821 L 734.01759 149.40821 C 740.4766 149.40821 745.67579 144.3076 745.67579 137.9707 L 745.67579 120.74414 C 745.67579 114.86637 741.18544 110.10825 735.38282 109.44141 L 597.36134 109.44141 z M 592.86134 171.20313 C 593.26719 171.16332 593.66124 171.08399 594.07813 171.08399 L 742.98829 171.08399 C 743.40518 171.08399 743.79923 171.16332 744.20509 171.20313 C 748.18961 169.54003 750.97071 165.67465 750.97071 161.14453 C 750.97071 155.08751 746.00184 150.21094 739.82813 150.21094 L 597.23829 150.21094 C 591.06462 150.21094 586.09571 155.08751 586.09571 161.14453 C 586.09571 165.67465 588.87684 169.54003 592.86134 171.20313 z M 745.9004 111.69727 C 745.30843 111.77347 745.16821 112.48789 745.76563 113.95117 C 748.21454 119.94932 748.35722 135.73362 746.02345 142.41406 C 744.54848 146.63616 744.2617 149.20682 745.22657 149.53711 C 751.29052 151.61293 754.26208 161.23254 750.82423 167.65625 C 749.58019 169.98075 749.66548 170.9678 751.19142 171.91211 C 752.82865 172.92529 753.24925 168.44086 753.58009 146.42774 C 753.94076 122.42898 753.70655 119.34798 751.28712 116.10742 C 749.12651 113.21352 746.88701 111.57027 745.9004 111.69727 z M 587.1504 113.59961 C 587.0319 113.55971 586.60439 114.02262 585.79493 115.01563 C 584.79269 116.24511 583.73501 118.43438 583.44532 119.88281 C 583.15563 121.33127 582.91993 134.35908 582.91993 148.83203 L 582.91993 175.14649 L 585.41016 172.94922 C 586.78027 171.74137 588.02439 170.69731 588.17579 170.62891 C 588.32719 170.56051 587.61714 169.13438 586.59571 167.45899 C 583.3218 162.08891 584.64319 155.42708 589.78712 151.38086 L 592.16407 149.51172 L 589.38673 146.73633 C 587.85997 145.20957 586.35619 142.60255 586.04493 140.94336 C 585.31335 137.04374 585.96583 116.95301 586.9004 114.5918 C 587.14815 113.96585 587.24256 113.63065 587.1504 113.59961 z M 590.39844 173.2461 L 669.11329 173.2461 L 747.82618 173.2461 L 750.86915 177.11328 C 752.74735 179.50107 753.41232 184.12002 753.68751 213.1543 C 751.4301 210.48033 748.05306 208.78516 744.26368 208.78516 L 593.68751 208.78516 C 589.50816 208.78516 585.83023 210.84626 583.60352 214.00977 L 583.60352 179.63086 L 587.00001 176.4375 L 590.39844 173.2461 z M 581.9043 230.38672 C 581.90967 230.40423 581.91449 230.42198 581.91993 230.43946 L 581.91993 417.58008 C 581.91993 424.18775 587.34322 429.50782 594.07813 429.50782 L 742.98829 429.50782 C 749.72325 429.50782 755.14649 424.18775 755.14649 417.58008 L 755.14649 232.55274 C 755.15128 232.54375 755.1554 232.5344 755.16017 232.52539 L 755.16017 418.5879 C 755.16017 425.19628 749.73769 430.51563 743.00196 430.51563 L 594.06251 430.51563 C 587.32682 430.51563 581.9043 425.19628 581.9043 418.5879 L 581.9043 230.38672 z M 583.60352 233.84961 C 585.83023 237.01313 589.50816 239.07422 593.68751 239.07422 L 744.26368 239.07422 C 748.15274 239.07422 751.60759 237.28896 753.86329 234.49219 C 753.90661 251.02197 753.91212 271.89159 753.91212 300.24414 C 753.91212 418.67385 753.89098 419.53157 750.86915 423.37305 L 747.82618 427.24024 L 668.70704 427.24024 L 589.58985 427.24024 L 586.59571 424.02735 C 583.63342 420.84775 583.60352 419.55334 583.60352 300.22266 L 583.60352 233.84961 z "
       transform="scale(0.26458333)"
       inkscape:label="black" />
  </g>
</svg>
