<?xml version="1.0" encoding="UTF-8" standalone="no"?>
<!-- Created with Inkscape (http://www.inkscape.org/) -->

<svg
   width="210mm"
   height="297mm"
   viewBox="0 0 210 297"
   version="1.1"
   id="svg5"
   inkscape:version="1.1.2 (0a00cf5339, 2022-02-04, custom)"
   sodipodi:docname="modwheel ixon.svg"
   xmlns:inkscape="http://www.inkscape.org/namespaces/inkscape"
   xmlns:sodipodi="http://sodipodi.sourceforge.net/DTD/sodipodi-0.dtd"
   xmlns="http://www.w3.org/2000/svg"
   xmlns:svg="http://www.w3.org/2000/svg">
  <sodipodi:namedview
     id="namedview7"
     pagecolor="#ffffff"
     bordercolor="#666666"
     borderopacity="1.0"
     inkscape:pageshadow="2"
     inkscape:pageopacity="0.0"
     inkscape:pagecheckerboard="0"
     inkscape:document-units="mm"
     showgrid="false"
     inkscape:zoom="0.62270623"
     inkscape:cx="289.86381"
     inkscape:cy="798.93211"
     inkscape:window-width="1680"
     inkscape:window-height="956"
     inkscape:window-x="-11"
     inkscape:window-y="-11"
     inkscape:window-maximized="1"
     inkscape:current-layer="layer3" />
  <defs
     id="defs2" />
  <g
     inkscape:label="Layer 1"
     inkscape:groupmode="layer"
     id="layer1">
    <path
       style="fill:#b3ff80;stroke:#000000;stroke-width:15.4166;stroke-linecap:round;stroke-linejoin:round;stroke-dasharray:3.85415, 3.85415;stroke-opacity:0.955017;paint-order:stroke markers fill"
       d=""
       id="path1715"
       transform="scale(0.26458333)" />
    <path
       id="path1665"
       style="fill:none;fill-rule:evenodd;stroke:#000000;stroke-width:1.37012;stroke-linecap:round;stroke-linejoin:round;paint-order:stroke markers fill"
       d="m 25.695273,107.28541 a 5.6210408,7.1081653 0 0 1 -5.621041,7.10816 5.6210408,7.1081653 0 0 1 -5.621041,-7.10816 5.6210408,7.1081653 0 0 1 5.621041,-7.10817 5.6210408,7.1081653 0 0 1 5.621041,7.10817 z M 54.394046,62.512903 a 5.9107013,5.0377486 0 0 1 -5.910701,5.037749 5.9107013,5.0377486 0 0 1 -5.910701,-5.037749 5.9107013,5.0377486 0 0 1 5.910701,-5.037748 5.9107013,5.0377486 0 0 1 5.910701,5.037748 z m -5.271607,11.175364 7.32154,7.904108 v 24.263815 l -6.65594,7.35268 m -10.20578,-28.491608 1.33119,21.506568 v 0 l 8.87459,6.98504 m -0.6656,-39.520603 -9.54018,11.028995 m 6.565931,-71.340779 7.32154,7.904082 v 24.26369 L 46.81379,52.89689 M 36.60801,24.405434 37.9392,45.91189 v 0 l 8.87459,6.985 M 46.14819,13.376483 36.60801,24.405434 M 32.716736,65.433479 A 12.321888,50.137337 0 0 1 20.394848,115.57082 12.321888,50.137337 0 0 1 8.0729599,65.433479 12.321888,50.137337 0 0 1 20.394848,15.296143 12.321888,50.137337 0 0 1 32.716736,65.433479 Z" />
  </g>
  <g
     inkscape:groupmode="layer"
     id="layer2"
     inkscape:label="Layer 2">
    <path
       style="fill:#000000;stroke-width:0.264583"
       d="m 138.41411,111.50117 c -5.07129,-2.51024 -9.10073,-16.169301 -10.68418,-36.217441 -0.73151,-9.26162 -0.40399,-25.409251 0.71641,-35.321881 2.52297,-22.321634 8.90724,-33.9745864 15.17399,-27.696504 4.34156,4.349402 7.41864,15.850646 9.07352,33.914212 0.45106,4.923515 0.44766,24.840523 -0.005,30.162503 -1.40734,16.54072 -4.58557,28.943371 -8.57958,33.480811 -1.18135,1.34209 -2.71367,2.23805 -3.82709,2.23773 -0.40598,-1.1e-4 -1.24654,-0.25186 -1.86791,-0.55943 z m 3.54651,-2.59382 c 1.25456,-0.765 2.15162,-2.11867 2.62279,-3.95782 0.49227,-1.9215 0.35845,-3.23148 -0.53327,-5.220141 -1.77745,-3.96401 -6.43214,-3.97719 -8.29061,-0.0235 -1.55787,3.314231 -0.57596,7.532461 2.1387,9.187661 1.10615,0.67445 2.96855,0.68077 4.06239,0.0138 z m 23.36988,-2.41557 c -2.24994,-1.76278 -4.34796,-3.4633 -4.66227,-3.77895 -0.53925,-0.54155 -0.60256,-1.08838 -1.12312,-9.702021 -0.30341,-5.02047 -0.62195,-9.91251 -0.70785,-10.87119 l -0.1562,-1.74307 4.96067,-5.73141 c 2.76551,-3.19518 5.14639,-5.7211 5.38036,-5.70812 0.23083,0.0128 2.11633,1.86327 4.19,4.11213 l 3.77031,4.08884 v 12.37296 12.372961 l -3.44061,3.82168 c -1.89235,2.10192 -3.59359,3.85533 -3.78056,3.89646 -0.18696,0.0411 -2.1808,-1.36749 -4.43073,-3.13027 z m 1.46545,-42.554161 c -4.13871,-1.06662 -6.07029,-4.705141 -4.30045,-8.100772 1.01267,-1.94292 3.12985,-3.028299 5.92388,-3.036898 2.39557,-0.0074 4.31565,0.900536 5.5158,2.608144 0.69912,0.994733 0.79827,1.360162 0.79827,2.942296 0,1.584981 -0.0986,1.946775 -0.804,2.95045 -1.37195,1.95204 -4.83029,3.23036 -7.1335,2.63678 z m -4.89479,-18.040762 c -2.4011,-1.898222 -4.45307,-3.537993 -4.55994,-3.643934 -0.15062,-0.149299 -1.52475,-19.776718 -1.52535,-21.787278 -1.8e-4,-0.611431 9.80329,-11.8946054 10.25274,-11.8002514 0.19812,0.04159 2.07525,1.9210904 4.1714,4.1766634 l 3.81118,4.101042 0.0104,12.317901 0.0104,12.317902 -3.44019,3.821681 c -1.8921,2.101924 -3.64827,3.85001 -3.9026,3.884634 -0.25833,0.03517 -2.38923,-1.46032 -4.82804,-3.38836 z"
       id="path1290" />
  </g>
  <g
     inkscape:groupmode="layer"
     id="layer3"
     inkscape:label="Layer 3">
    <g
       id="g1301">
      <path
         id="path825"
         style="fill:none;fill-rule:evenodd;stroke:#000000;stroke-width:1.37012;stroke-linecap:round;stroke-linejoin:round;paint-order:stroke markers fill"
         d="m 25.695273,273.97396 a 5.6210408,7.1081653 0 0 1 -5.621041,7.10816 5.6210408,7.1081653 0 0 1 -5.621041,-7.10816 5.6210408,7.1081653 0 0 1 5.621041,-7.10817 5.6210408,7.1081653 0 0 1 5.621041,7.10817 z m 28.698773,-44.77272 a 5.9107013,5.0377486 0 0 1 -5.910701,5.03778 5.9107013,5.0377486 0 0 1 -5.910701,-5.03778 5.9107013,5.0377486 0 0 1 5.910701,-5.03778 5.9107013,5.0377486 0 0 1 5.910701,5.03778 z m -5.271607,11.17543 7.32154,7.90415 v 24.26392 l -6.65594,7.35268 m -10.20578,-28.4917 1.33119,21.50666 v 0 l 8.87459,6.98504 m -0.6656,-39.52075 -9.54018,11.02905 m 6.565931,-71.34118 7.32154,7.90413 v 24.26383 l -6.65594,7.35267 m -10.20578,-28.49162 1.33119,21.50658 v 0 l 8.87459,6.98504 m -0.6656,-39.52063 -9.54018,11.02901 m -3.891274,41.02828 A 12.321888,50.137337 0 0 1 20.394848,282.25937 12.321888,50.137337 0 0 1 8.0729599,232.12183 12.321888,50.137337 0 0 1 20.394848,181.98421 12.321888,50.137337 0 0 1 32.716736,232.12183 Z" />
      <path
         style="fill:#ffffff;fill-rule:evenodd;stroke:#000000;stroke-width:9.4988;stroke-linecap:round;stroke-linejoin:round;paint-order:stroke markers fill"
         d="m 99.696359,1026.969 c -2.640601,-7.8031 -7.348698,-14.7342 -12.369181,-18.2094 -7.99208,-5.5323 -18.863978,-4.257 -26.458079,3.1035 -3.076629,2.982 -6.004715,7.0587 -6.506857,9.0594 -1.167582,4.6521 -3.166093,4.6636 -4.233649,0.024 -0.457315,-1.9874 -2.408102,-10.4785 -4.335085,-18.8693 -12.499194,-54.42616 -15.041815,-154.89466 -5.540305,-218.91827 8.221102,-55.3959 22.734041,-91.42073 36.829694,-91.42073 15.431633,0 30.329183,40.53601 38.804883,105.58751 3.72118,28.56027 4.22273,126.05602 0.79308,154.1658 -4.74874,38.92111 -14.57627,82.59339 -16.984501,75.47699 z"
         id="path1020"
         transform="scale(0.26458333)" />
      <path
         style="fill:#ffffff;fill-rule:evenodd;stroke:#000000;stroke-width:9.4988;stroke-linecap:round;stroke-linejoin:round;paint-order:stroke markers fill"
         d="m 66.059781,1054.3307 c -10.16908,-9.4244 -10.159304,-29.0625 0.01892,-38.0153 14.605192,-12.8468 33.319312,7.9554 25.522727,28.3704 -5.051162,13.2263 -16.864064,17.687 -25.54165,9.6449 z"
         id="path1059"
         transform="scale(0.26458333)" />
      <path
         style="fill:#ffffff;fill-rule:evenodd;stroke:#000000;stroke-width:9.4988;stroke-linecap:round;stroke-linejoin:round;paint-order:stroke markers fill"
         d="m 166.16828,816.82387 c -5.76402,-4.54102 -12.49743,-9.84416 -14.96315,-11.78476 l -4.48312,-3.52836 -2.26513,-35.01309 c -1.24582,-19.2572 -2.28092,-36.82226 -2.30021,-39.03347 -0.0244,-2.79359 4.60664,-9.40444 15.17657,-21.66478 8.36641,-9.70443 15.84103,-17.8542 16.61027,-18.11062 0.76925,-0.25641 6.57042,4.97835 12.89149,11.63279 l 11.49287,12.099 v 44.83367 44.83367 l -10.69107,11.76924 c -5.88009,6.47309 -10.75799,11.87137 -10.83979,11.99618 -0.0818,0.12481 -4.86472,-3.48845 -10.62873,-8.02947 z"
         id="path1098"
         transform="scale(0.26458333)" />
      <path
         style="fill:#ffffff;fill-rule:evenodd;stroke:#000000;stroke-width:9.4988;stroke-linecap:round;stroke-linejoin:round;paint-order:stroke markers fill"
         d="m 174.86274,880.06174 c -5.004,-2.02184 -10.25864,-9.46703 -10.25864,-14.53526 0,-6.73193 9.48047,-14.40283 17.80046,-14.40283 11.75666,0 19.1351,6.03322 19.1351,15.64643 0,10.92638 -14.56733,18.18449 -26.67692,13.29166 z"
         id="path1137"
         transform="scale(0.26458333)" />
      <path
         style="fill:#ffffff;fill-rule:evenodd;stroke:#000000;stroke-width:9.4988;stroke-linecap:round;stroke-linejoin:round;paint-order:stroke markers fill"
         d="m 177.40954,1044.8608 c -5.76402,-4.541 -12.48883,-9.8374 -14.94402,-11.7697 l -4.46399,-3.5133 -2.2752,-35.02819 c -1.25136,-19.26547 -2.29506,-36.83679 -2.31934,-39.04736 -0.0309,-2.8147 4.78647,-9.62354 16.07455,-22.71957 l 16.11869,-18.70034 11.98445,12.58105 11.98445,12.58104 v 44.77147 44.7715 l -10.66653,11.9379 c -5.86659,6.5659 -10.74449,12.0401 -10.83978,12.1649 -0.0953,0.1249 -4.88927,-3.4884 -10.65328,-8.0294 z"
         id="path1176"
         transform="scale(0.26458333)" />
    </g>
  </g>
  <g
     inkscape:groupmode="layer"
     id="layer4"
     inkscape:label="Layer 4" />
</svg>
