<?xml version="1.0" encoding="UTF-8" standalone="no"?>
<!-- Created with Inkscape (http://www.inkscape.org/) -->

<svg
   width="210mm"
   height="297mm"
   viewBox="0 0 210 297"
   version="1.1"
   id="svg5"
   inkscape:version="1.1.2 (0a00cf5339, 2022-02-04, custom)"
   sodipodi:docname="modwheel ixon.svg"
   xmlns:inkscape="http://www.inkscape.org/namespaces/inkscape"
   xmlns:sodipodi="http://sodipodi.sourceforge.net/DTD/sodipodi-0.dtd"
   xmlns="http://www.w3.org/2000/svg"
   xmlns:svg="http://www.w3.org/2000/svg">
  <sodipodi:namedview
     id="namedview7"
     pagecolor="#ffffff"
     bordercolor="#666666"
     borderopacity="1.0"
     inkscape:pageshadow="2"
     inkscape:pageopacity="0.0"
     inkscape:pagecheckerboard="0"
     inkscape:document-units="mm"
     showgrid="false"
     inkscape:zoom="0.62270623"
     inkscape:cx="393.44395"
     inkscape:cy="338.04062"
     inkscape:window-width="1680"
     inkscape:window-height="956"
     inkscape:window-x="-11"
     inkscape:window-y="-11"
     inkscape:window-maximized="1"
     inkscape:current-layer="layer1" />
  <defs
     id="defs2" />
  <g
     inkscape:label="Layer 1"
     inkscape:groupmode="layer"
     id="layer1">
    <path
       style="fill:#b3ff80;stroke:#000000;stroke-width:15.4166;stroke-linecap:round;stroke-linejoin:round;stroke-dasharray:3.85415, 3.85415;stroke-opacity:0.955017;paint-order:stroke markers fill"
       d=""
       id="path1715"
       transform="scale(0.26458333)" />
    <path
       id="path1665"
       style="fill:none;fill-rule:evenodd;stroke:#000000;stroke-width:1.37012;stroke-linecap:round;stroke-linejoin:round;paint-order:stroke markers fill"
       d="m 25.695273,107.28541 a 5.6210408,7.1081653 0 0 1 -5.621041,7.10816 5.6210408,7.1081653 0 0 1 -5.621041,-7.10816 5.6210408,7.1081653 0 0 1 5.621041,-7.10817 5.6210408,7.1081653 0 0 1 5.621041,7.10817 z M 54.394046,62.512903 a 5.9107013,5.0377486 0 0 1 -5.910701,5.037749 5.9107013,5.0377486 0 0 1 -5.910701,-5.037749 5.9107013,5.0377486 0 0 1 5.910701,-5.037748 5.9107013,5.0377486 0 0 1 5.910701,5.037748 z m -5.271607,11.175364 7.32154,7.904108 v 24.263815 l -6.65594,7.35268 m -10.20578,-28.491608 1.33119,21.506568 v 0 l 8.87459,6.98504 m -0.6656,-39.520603 -9.54018,11.028995 m 6.565931,-71.340779 7.32154,7.904082 v 24.26369 L 46.81379,52.89689 M 36.60801,24.405434 37.9392,45.91189 v 0 l 8.87459,6.985 M 46.14819,13.376483 36.60801,24.405434 M 32.716736,65.433479 A 12.321888,50.137337 0 0 1 20.394848,115.57082 12.321888,50.137337 0 0 1 8.0729599,65.433479 12.321888,50.137337 0 0 1 20.394848,15.296143 12.321888,50.137337 0 0 1 32.716736,65.433479 Z" />
  </g>
</svg>
