<?xml version="1.0" encoding="UTF-8" standalone="no"?>
<!-- Created with Inkscape (http://www.inkscape.org/) -->

<svg
   width="210mm"
   height="297mm"
   viewBox="0 0 210 297"
   version="1.1"
   id="svg5"
   inkscape:version="1.1.2 (0a00cf5339, 2022-02-04, custom)"
   sodipodi:docname="pad icon.svg"
   xmlns:inkscape="http://www.inkscape.org/namespaces/inkscape"
   xmlns:sodipodi="http://sodipodi.sourceforge.net/DTD/sodipodi-0.dtd"
   xmlns="http://www.w3.org/2000/svg"
   xmlns:svg="http://www.w3.org/2000/svg">
  <sodipodi:namedview
     id="namedview7"
     pagecolor="#ffffff"
     bordercolor="#666666"
     borderopacity="1.0"
     inkscape:pageshadow="2"
     inkscape:pageopacity="0.0"
     inkscape:pagecheckerboard="0"
     inkscape:document-units="mm"
     showgrid="false"
     inkscape:zoom="0.62270623"
     inkscape:cx="443.22666"
     inkscape:cy="374.97617"
     inkscape:window-width="1680"
     inkscape:window-height="956"
     inkscape:window-x="-11"
     inkscape:window-y="-11"
     inkscape:window-maximized="1"
     inkscape:current-layer="layer2"
     showguides="false" />
  <defs
     id="defs2" />
  <g
     inkscape:label="Layer 1"
     inkscape:groupmode="layer"
     id="layer1"
     style="display:inline">
    <path
       id="path1876"
       style="fill:none;fill-rule:evenodd;stroke:#000000;stroke-width:1.15964;stroke-linecap:round;stroke-linejoin:round;paint-order:stroke markers fill"
       d="m 22.47017,67.949288 h 44.480041 c 2.855934,0 5.155115,1.457554 5.155115,3.26806 v 30.989002 c 0,1.81051 -2.299181,3.26806 -5.155115,3.26806 H 22.47017 c -2.855933,0 -5.155114,-1.45755 -5.155114,-3.26806 V 71.217348 c 0,-1.810506 2.299181,-3.26806 5.155114,-3.26806 z M 13.175394,62.05691 h 60.134401 c 2.855934,0 5.155115,1.457554 5.155115,3.268057 v 42.773753 c 0,1.8105 -2.299181,3.26806 -5.155115,3.26806 H 13.175394 c -2.855933,0 -5.1551145,-1.45756 -5.1551145,-3.26806 V 65.324967 c 0,-1.810503 2.2991815,-3.268057 5.1551145,-3.268057 z M 23.937766,13.062868 h 44.480041 c 2.855934,0 5.155115,1.457554 5.155115,3.26806 v 30.988996 c 0,1.810507 -2.299181,3.268061 -5.155115,3.268061 H 23.937766 c -2.855933,0 -5.155113,-1.457554 -5.155113,-3.268061 V 16.330928 c 0,-1.810506 2.29918,-3.26806 5.155113,-3.26806 z M 14.64299,7.1704904 h 60.134402 c 2.855934,0 5.155115,1.4575537 5.155115,3.2680566 v 42.77375 c 0,1.810499 -2.299181,3.268053 -5.155115,3.268053 H 14.64299 c -2.855933,0 -5.155114,-1.457554 -5.155114,-3.268053 v -42.77375 c 0,-1.8105029 2.299181,-3.2680566 5.155114,-3.2680566 z" />
  </g>
  <g
     inkscape:groupmode="layer"
     id="layer2"
     inkscape:label="Layer 2"
     style="display:inline">
    <path
       id="path2008"
       style="display:inline;fill:#000000;fill-rule:evenodd;stroke:#000000;stroke-width:1.15964;stroke-linecap:round;stroke-linejoin:round;paint-order:stroke markers fill"
       d="m 148.94135,67.949288 h 44.48029 c 2.85595,0 5.15514,1.457554 5.15514,3.26806 v 30.989002 c 0,1.81051 -2.29919,3.26806 -5.15514,3.26806 h -44.48029 c -2.85595,0 -5.15515,-1.45755 -5.15515,-3.26806 V 71.217348 c 0,-1.810506 2.2992,-3.26806 5.15515,-3.26806 z m -9.29483,-5.892378 h 60.13473 c 2.85595,0 5.15515,1.457554 5.15515,3.268057 v 42.773753 c 0,1.8105 -2.2992,3.26806 -5.15515,3.26806 h -60.13473 c -2.85595,0 -5.15515,-1.45756 -5.15515,-3.26806 V 65.324967 c 0,-1.810503 2.2992,-3.268057 5.15515,-3.268057 z m 10.76243,-48.994042 h 44.4803 c 2.85594,0 5.15513,1.457554 5.15513,3.26806 v 30.988996 c 0,1.810507 -2.29919,3.268061 -5.15513,3.268061 h -44.4803 c -2.85595,0 -5.15514,-1.457554 -5.15514,-3.268061 V 16.330928 c 0,-1.810506 2.29919,-3.26806 5.15514,-3.26806 z m -9.29483,-5.8923776 h 60.13474 c 2.85595,0 5.15514,1.4575537 5.15514,3.2680566 v 42.77375 c 0,1.810499 -2.29919,3.268053 -5.15514,3.268053 h -60.13474 c -2.85595,0 -5.15514,-1.457554 -5.15514,-3.268053 v -42.77375 c 0,-1.8105029 2.29919,-3.2680566 5.15514,-3.2680566 z" />
  </g>
  <g
     inkscape:groupmode="layer"
     id="layer3"
     inkscape:label="Layer 3" />
  <g
     inkscape:groupmode="layer"
     id="layer4"
     inkscape:label="Layer 4" />
</svg>
