<?xml version="1.0" encoding="UTF-8" standalone="no"?>
<!-- Created with Inkscape (http://www.inkscape.org/) -->

<svg
   width="210mm"
   height="297mm"
   viewBox="0 0 210 297"
   version="1.1"
   id="svg5"
   inkscape:version="1.1.2 (0a00cf5339, 2022-02-04, custom)"
   sodipodi:docname="pad icon.svg"
   xmlns:inkscape="http://www.inkscape.org/namespaces/inkscape"
   xmlns:sodipodi="http://sodipodi.sourceforge.net/DTD/sodipodi-0.dtd"
   xmlns="http://www.w3.org/2000/svg"
   xmlns:svg="http://www.w3.org/2000/svg">
  <sodipodi:namedview
     id="namedview7"
     pagecolor="#ffffff"
     bordercolor="#666666"
     borderopacity="1.0"
     inkscape:pageshadow="2"
     inkscape:pageopacity="0.0"
     inkscape:pagecheckerboard="0"
     inkscape:document-units="mm"
     showgrid="false"
     inkscape:zoom="0.62270623"
     inkscape:cx="442.42371"
     inkscape:cy="808.56747"
     inkscape:window-width="1680"
     inkscape:window-height="956"
     inkscape:window-x="-11"
     inkscape:window-y="-11"
     inkscape:window-maximized="1"
     inkscape:current-layer="layer4"
     showguides="false" />
  <defs
     id="defs2" />
  <g
     inkscape:label="Layer 1"
     inkscape:groupmode="layer"
     id="layer1"
     style="display:inline">
    <path
       id="path1876"
       style="fill:none;fill-rule:evenodd;stroke:#000000;stroke-width:1.15964;stroke-linecap:round;stroke-linejoin:round;paint-order:stroke markers fill"
       d="m 22.47017,67.949288 h 44.480041 c 2.855934,0 5.155115,1.457554 5.155115,3.26806 v 30.989002 c 0,1.81051 -2.299181,3.26806 -5.155115,3.26806 H 22.47017 c -2.855933,0 -5.155114,-1.45755 -5.155114,-3.26806 V 71.217348 c 0,-1.810506 2.299181,-3.26806 5.155114,-3.26806 z M 13.175394,62.05691 h 60.134401 c 2.855934,0 5.155115,1.457554 5.155115,3.268057 v 42.773753 c 0,1.8105 -2.299181,3.26806 -5.155115,3.26806 H 13.175394 c -2.855933,0 -5.1551145,-1.45756 -5.1551145,-3.26806 V 65.324967 c 0,-1.810503 2.2991815,-3.268057 5.1551145,-3.268057 z M 23.937766,13.062868 h 44.480041 c 2.855934,0 5.155115,1.457554 5.155115,3.26806 v 30.988996 c 0,1.810507 -2.299181,3.268061 -5.155115,3.268061 H 23.937766 c -2.855933,0 -5.155113,-1.457554 -5.155113,-3.268061 V 16.330928 c 0,-1.810506 2.29918,-3.26806 5.155113,-3.26806 z M 14.64299,7.1704904 h 60.134402 c 2.855934,0 5.155115,1.4575537 5.155115,3.2680566 v 42.77375 c 0,1.810499 -2.299181,3.268053 -5.155115,3.268053 H 14.64299 c -2.855933,0 -5.155114,-1.457554 -5.155114,-3.268053 v -42.77375 c 0,-1.8105029 2.299181,-3.2680566 5.155114,-3.2680566 z" />
  </g>
  <g
     inkscape:groupmode="layer"
     id="layer2"
     inkscape:label="Layer 2"
     style="display:inline">
    <path
       id="path2008"
       style="display:inline;fill:#000000;fill-rule:evenodd;stroke:#000000;stroke-width:1.15964;stroke-linecap:round;stroke-linejoin:round;paint-order:stroke markers fill"
       d="m 148.94135,67.949288 h 44.48029 c 2.85595,0 5.15514,1.457554 5.15514,3.26806 v 30.989002 c 0,1.81051 -2.29919,3.26806 -5.15514,3.26806 h -44.48029 c -2.85595,0 -5.15515,-1.45755 -5.15515,-3.26806 V 71.217348 c 0,-1.810506 2.2992,-3.26806 5.15515,-3.26806 z m -9.29483,-5.892378 h 60.13473 c 2.85595,0 5.15515,1.457554 5.15515,3.268057 v 42.773753 c 0,1.8105 -2.2992,3.26806 -5.15515,3.26806 h -60.13473 c -2.85595,0 -5.15515,-1.45756 -5.15515,-3.26806 V 65.324967 c 0,-1.810503 2.2992,-3.268057 5.15515,-3.268057 z m 10.76243,-48.994042 h 44.4803 c 2.85594,0 5.15513,1.457554 5.15513,3.26806 v 30.988996 c 0,1.810507 -2.29919,3.268061 -5.15513,3.268061 h -44.4803 c -2.85595,0 -5.15514,-1.457554 -5.15514,-3.268061 V 16.330928 c 0,-1.810506 2.29919,-3.26806 5.15514,-3.26806 z m -9.29483,-5.8923776 h 60.13474 c 2.85595,0 5.15514,1.4575537 5.15514,3.2680566 v 42.77375 c 0,1.810499 -2.29919,3.268053 -5.15514,3.268053 h -60.13474 c -2.85595,0 -5.15514,-1.457554 -5.15514,-3.268053 v -42.77375 c 0,-1.8105029 2.29919,-3.2680566 5.15514,-3.2680566 z" />
  </g>
  <g
     inkscape:groupmode="layer"
     id="layer3"
     inkscape:label="Layer 3">
    <g
       id="g2412"
       style="display:inline">
      <path
         id="path2038"
         style="fill:none;fill-rule:evenodd;stroke:#000000;stroke-width:1.15964;stroke-linecap:round;stroke-linejoin:round;paint-order:stroke markers fill"
         d="m 22.47017,224.05425 h 44.480041 c 2.855934,0 5.155115,1.45757 5.155115,3.26808 v 30.98917 c 0,1.81051 -2.299181,3.26806 -5.155115,3.26806 H 22.47017 c -2.855933,0 -5.155114,-1.45755 -5.155114,-3.26806 v -30.98917 c 0,-1.81051 2.299181,-3.26808 5.155114,-3.26808 z m -9.294776,-5.89241 h 60.134401 c 2.855934,0 5.155115,1.45757 5.155115,3.26808 v 42.77395 c 0,1.8105 -2.299181,3.26806 -5.155115,3.26806 H 13.175394 c -2.855933,0 -5.1551145,-1.45756 -5.1551145,-3.26806 v -42.77395 c 0,-1.81051 2.2991815,-3.26808 5.1551145,-3.26808 z m 10.762372,-48.99432 h 44.480041 c 2.855934,0 5.155115,1.45757 5.155115,3.26808 v 30.98917 c 0,1.81052 -2.299181,3.26808 -5.155115,3.26808 H 23.937766 c -2.855933,0 -5.155113,-1.45756 -5.155113,-3.26808 V 172.4356 c 0,-1.81051 2.29918,-3.26808 5.155113,-3.26808 z m -9.294776,-5.89241 h 60.134402 c 2.855934,0 5.155115,1.45756 5.155115,3.26808 v 42.77399 c 0,1.81051 -2.299181,3.26807 -5.155115,3.26807 H 14.64299 c -2.855933,0 -5.155114,-1.45756 -5.155114,-3.26807 v -42.77399 c 0,-1.81052 2.299181,-3.26808 5.155114,-3.26808 z" />
      <path
         style="fill:#ffffff;fill-rule:evenodd;stroke:#000000;stroke-width:11.3197;stroke-linecap:round;stroke-linejoin:round;stroke-miterlimit:4;stroke-dasharray:none;paint-order:stroke markers fill"
         d="m 75.477003,983.20591 -5.620628,-2.80782 v -62.62985 -62.62985 l 5.620628,-2.80782 c 5.141126,-2.56828 12.967283,-2.80803 91.736677,-2.81032 47.36383,-10e-4 88.32428,0.43916 91.02324,0.97895 2.69896,0.53979 6.40256,2.37457 8.23021,4.07729 3.24573,3.02386 3.32301,4.49339 3.32301,63.19175 0,58.69835 -0.0772,60.16789 -3.32301,63.19175 -1.82765,1.70272 -5.53125,3.5375 -8.23021,4.07729 -2.69896,0.53979 -43.65941,0.98032 -91.02324,0.97894 -78.769394,-0.002 -86.595551,-0.24203 -91.736677,-2.81031 z"
         id="path2171"
         transform="scale(0.26458333)" />
      <path
         style="fill:#ffffff;fill-rule:evenodd;stroke:#000000;stroke-width:11.3197;stroke-linecap:round;stroke-linejoin:round;stroke-miterlimit:4;stroke-dasharray:none;paint-order:stroke markers fill"
         d="m 42.854987,1006.8842 c -9.661374,-2.9332 -9.13122,2.2501 -9.13122,-89.27557 v -84.07577 l 4.345303,-2.84733 c 4.062622,-2.66211 12.203623,-2.84734 125.14169,-2.84734 120.35327,0 120.81302,0.0124 125.33061,3.3851 l 4.53423,3.3851 v 83.15985 83.15986 l -4.53323,3.3851 c -4.50641,3.3651 -5.2333,3.3867 -122.85087,3.664 -65.0747,0.1534 -120.351131,-0.3384 -122.836513,-1.093 z M 266.57475,988.33965 c 9.77413,-5.74177 9.69128,-5.09145 9.24353,-72.54385 l -0.40751,-61.3905 -4.03536,-4.03378 c -6.91196,-6.90928 -15.68375,-7.47011 -108.75865,-6.95355 -78.840026,0.43755 -86.785865,0.72463 -91.508359,3.30609 -2.844351,1.55482 -5.915623,4.21726 -6.825049,5.91653 -2.24795,4.20034 -2.258055,126.03608 -0.01076,130.23511 2.135389,3.99002 7.23375,6.70724 15.219186,8.11121 3.532966,0.62116 45.808122,1.02205 93.944782,0.8909 85.18186,-0.23209 87.67135,-0.32666 93.13824,-3.53816 z"
         id="path2210"
         transform="scale(0.26458333)" />
      <path
         style="fill:#ffffff;fill-rule:evenodd;stroke:#000000;stroke-width:11.3197;stroke-linecap:round;stroke-linejoin:round;stroke-miterlimit:4;stroke-dasharray:none;paint-order:stroke markers fill"
         d="m 84.538339,777.23372 c -2.523818,-0.77088 -5.956416,-2.63931 -7.627995,-4.15207 -2.876726,-2.6034 -3.039235,-5.90723 -3.039235,-61.7883 0,-32.47081 0.448898,-60.20764 0.997551,-61.63741 2.735143,-7.12767 5.074693,-7.2988 99.69253,-7.29246 86.49827,0.006 89.78947,0.11644 94.82748,3.18818 l 5.21915,3.18218 v 61.81349 61.81349 l -4.34383,2.84733 c -4.01136,2.62941 -11.10951,2.86953 -92.74036,3.13726 -48.61809,0.15945 -90.461472,-0.34081 -92.985291,-1.11169 z"
         id="path2249"
         transform="scale(0.26458333)" />
      <path
         style="fill:#ffffff;fill-rule:evenodd;stroke:#000000;stroke-width:11.3197;stroke-linecap:round;stroke-linejoin:round;stroke-miterlimit:4;stroke-dasharray:none;paint-order:stroke markers fill"
         d="m 42.772751,796.40671 -4.231303,-3.32834 V 710.6061 c 0,-90.13403 -0.467715,-85.58934 9.186158,-89.25974 2.216469,-0.8427 54.087144,-1.47033 121.397244,-1.4689 108.67417,0.002 117.95057,0.214 123.1478,2.81031 l 5.62063,2.80782 0.41565,84.66232 0.41564,84.66232 -4.7521,2.45742 c -4.14259,2.14221 -20.28565,2.4574 -125.86026,2.4574 -120.090222,0 -121.143721,-0.028 -125.339459,-3.32834 z M 270.59015,782.09929 c 11.05049,-4.26553 10.44124,-0.0863 10.44124,-71.62367 v -64.67325 l -4.22438,-3.3229 c -8.08086,-6.3564 -13.36625,-6.66492 -106.1424,-6.19565 -99.513279,0.50333 -97.679427,0.30298 -101.437076,11.08218 -2.249759,6.45366 -2.471475,119.82927 -0.245785,125.68328 2.693045,7.08324 8.949811,9.72962 25.682057,10.86253 26.242114,1.77681 170.477384,0.29078 175.926344,-1.81252 z"
         id="path2288"
         transform="scale(0.26458333)" />
    </g>
  </g>
  <g
     inkscape:groupmode="layer"
     id="layer4"
     inkscape:label="Layer 4">
    <g
       id="g1069"
       transform="translate(4.6738197,-7.223176)">
      <path
         id="path832"
         style="display:inline;fill:#48373e;fill-rule:evenodd;stroke:#000000;stroke-width:1.15964;stroke-linecap:round;stroke-linejoin:round;paint-order:stroke markers fill"
         d="m 140.16545,234.08233 h 44.48004 c 2.85593,0 5.15511,1.45756 5.15511,3.26806 v 30.98901 c 0,1.81051 -2.29918,3.26806 -5.15511,3.26806 h -44.48004 c -2.85593,0 -5.15512,-1.45755 -5.15512,-3.26806 v -30.98901 c 0,-1.8105 2.29919,-3.26806 5.15512,-3.26806 z m -9.29478,-5.89237 h 60.1344 c 2.85594,0 5.15512,1.45755 5.15512,3.26805 v 42.77376 c 0,1.8105 -2.29918,3.26806 -5.15512,3.26806 h -60.1344 c -2.85593,0 -5.15511,-1.45756 -5.15511,-3.26806 v -42.77376 c 0,-1.8105 2.29918,-3.26805 5.15511,-3.26805 z m 10.76237,-48.99405 h 44.48005 c 2.85593,0 5.15511,1.45756 5.15511,3.26806 v 30.989 c 0,1.81051 -2.29918,3.26806 -5.15511,3.26806 h -44.48005 c -2.85593,0 -5.15511,-1.45755 -5.15511,-3.26806 v -30.989 c 0,-1.8105 2.29918,-3.26806 5.15511,-3.26806 z m -9.29477,-5.89237 h 60.1344 c 2.85593,0 5.15512,1.45755 5.15512,3.26805 v 42.77375 c 0,1.8105 -2.29919,3.26806 -5.15512,3.26806 h -60.1344 c -2.85593,0 -5.15512,-1.45756 -5.15512,-3.26806 v -42.77375 c 0,-1.8105 2.29919,-3.26805 5.15512,-3.26805 z" />
      <path
         style="fill:#c8b7be;fill-rule:evenodd;stroke:#000000;stroke-width:11.3197;stroke-linecap:round;stroke-linejoin:round;paint-order:stroke markers fill"
         d="m 517.31433,1019.6259 -4.2313,-3.3283 v -60.65852 c 0,-59.62217 0.0577,-60.71078 3.37949,-63.71772 3.22889,-2.92288 7.51102,-3.07877 96.08931,-3.49824 92.02297,-0.43578 92.74152,-0.4141 96.98886,2.92687 l 4.27905,3.3659 v 61.66911 61.6691 l -4.73793,2.4501 c -4.08413,2.112 -17.35054,2.4501 -96.13705,2.4501 -90.03439,0 -91.4623,-0.05 -95.63043,-3.3284 z"
         id="path908"
         transform="scale(0.26458333)" />
      <path
         style="fill:#c8b7be;fill-rule:evenodd;stroke:#000000;stroke-width:11.3197;stroke-linecap:round;stroke-linejoin:round;paint-order:stroke markers fill"
         d="m 525.12723,813.87504 c -1.76648,-1.00171 -3.74271,-2.60571 -4.39161,-3.56443 -0.64891,-0.95873 -1.1909,-29.36603 -1.20442,-63.12734 l -0.0246,-61.38419 4.73793,-2.45008 c 4.08412,-2.11198 17.35054,-2.45008 96.13705,-2.45008 90.0344,0 91.46231,0.0497 95.63042,3.32834 l 4.23131,3.32835 v 59.17017 c 0,32.54359 -0.4489,60.33997 -0.99755,61.76974 -2.73913,7.13804 -5.00103,7.30122 -100.49548,7.24964 -64.36175,-0.0348 -91.33666,-0.57359 -93.62306,-1.87012 z"
         id="path947"
         transform="scale(0.26458333)" />
    </g>
  </g>
</svg>
