<?xml version="1.0" encoding="UTF-8" standalone="no"?>
<!-- Created with Inkscape (http://www.inkscape.org/) -->

<svg
   width="210mm"
   height="297mm"
   viewBox="0 0 210 297"
   version="1.1"
   id="svg5"
   inkscape:version="1.1.2 (0a00cf5339, 2022-02-04, custom)"
   sodipodi:docname="pad icon.svg"
   xmlns:inkscape="http://www.inkscape.org/namespaces/inkscape"
   xmlns:sodipodi="http://sodipodi.sourceforge.net/DTD/sodipodi-0.dtd"
   xmlns="http://www.w3.org/2000/svg"
   xmlns:svg="http://www.w3.org/2000/svg">
  <sodipodi:namedview
     id="namedview7"
     pagecolor="#ffffff"
     bordercolor="#666666"
     borderopacity="1.0"
     inkscape:pageshadow="2"
     inkscape:pageopacity="0.0"
     inkscape:pagecheckerboard="0"
     inkscape:document-units="mm"
     showgrid="false"
     inkscape:zoom="0.62270623"
     inkscape:cx="443.22666"
     inkscape:cy="374.97617"
     inkscape:window-width="1680"
     inkscape:window-height="956"
     inkscape:window-x="-11"
     inkscape:window-y="-11"
     inkscape:window-maximized="1"
     inkscape:current-layer="layer1"
     showguides="false" />
  <defs
     id="defs2" />
  <g
     inkscape:label="Layer 1"
     inkscape:groupmode="layer"
     id="layer1"
     style="display:inline">
    <path
       id="path825"
       style="fill:#000000;fill-rule:evenodd;stroke:#000000;stroke-width:1.265;stroke-linecap:round;stroke-linejoin:round;paint-order:stroke markers fill"
       d="m 229.67055,121.94432 c -2.48051,0 -4.47725,1.99673 -4.47725,4.47725 v 58.60314 c 0,2.48051 1.99674,4.47724 4.47725,4.47724 h 52.22989 c 2.48052,0 4.47724,-1.99673 4.47724,-4.47724 v -58.60314 c 0,-2.48052 -1.99672,-4.47725 -4.47724,-4.47725 z m 8.07289,8.07289 h 38.6333 c 2.48051,0 4.47725,1.99673 4.47725,4.47725 v 42.45735 c 0,2.48053 -1.99674,4.47725 -4.47725,4.47725 h -38.6333 c -2.48051,0 -4.47724,-1.99672 -4.47724,-4.47725 v -42.45735 c 0,-2.48052 1.99673,-4.47725 4.47724,-4.47725 z" />
    <path
       id="path1876"
       style="fill:none;fill-rule:evenodd;stroke:#000000;stroke-width:1.265;stroke-linecap:round;stroke-linejoin:round;paint-order:stroke markers fill"
       d="m 20.623385,90.494352 h 38.633053 c 2.480516,0 4.477465,1.99695 4.477465,4.47747 v 42.457088 c 0,2.48052 -1.996949,4.47747 -4.477465,4.47747 H 20.623385 c -2.480515,0 -4.477464,-1.99695 -4.477464,-4.47747 V 94.971822 c 0,-2.48052 1.996949,-4.47747 4.477464,-4.47747 z m -8.07296,-8.072967 h 52.229618 c 2.480516,0 4.477465,1.99695 4.477465,4.477465 v 58.60302 c 0,2.48051 -1.996949,4.47746 -4.477465,4.47746 H 12.550425 c -2.480515,0 -4.4774643,-1.99695 -4.4774643,-4.47746 V 86.89885 c 0,-2.480515 1.9969493,-4.477465 4.4774643,-4.477465 z m 9.347638,-67.125246 h 38.633053 c 2.480516,0 4.477465,1.99695 4.477465,4.47747 v 42.45708 c 0,2.48052 -1.996949,4.47747 -4.477465,4.47747 H 21.898063 c -2.480515,0 -4.477464,-1.99695 -4.477464,-4.47747 v -42.45708 c 0,-2.48052 1.996949,-4.47747 4.477464,-4.47747 z m -8.07296,-8.0729674 h 52.229618 c 2.480516,0 4.477465,1.99695 4.477465,4.4774654 v 58.603012 c 0,2.48051 -1.996949,4.47746 -4.477465,4.47746 H 13.825103 c -2.480515,0 -4.4774642,-1.99695 -4.4774642,-4.47746 V 11.700637 c 0,-2.4805154 1.9969492,-4.4774654 4.4774642,-4.4774654 z" />
    <path
       id="path1878"
       style="fill:#000000;fill-rule:evenodd;stroke:#000000;stroke-width:1.265;stroke-linecap:round;stroke-linejoin:round;paint-order:stroke markers fill"
       d="m 229.67055,196.55729 c -2.48051,0 -4.47725,1.99673 -4.47725,4.47725 v 58.60314 c 0,2.48051 1.99674,4.47724 4.47725,4.47724 h 52.22989 c 2.48052,0 4.47724,-1.99673 4.47724,-4.47724 v -58.60314 c 0,-2.48052 -1.99672,-4.47725 -4.47724,-4.47725 z m 8.07289,8.07289 h 38.6333 c 2.48051,0 4.47725,1.99673 4.47725,4.47725 v 42.45735 c 0,2.48053 -1.99674,4.47725 -4.47725,4.47725 h -38.6333 c -2.48051,0 -4.47724,-1.99672 -4.47724,-4.47725 v -42.45735 c 0,-2.48052 1.99673,-4.47725 4.47724,-4.47725 z" />
  </g>
  <g
     inkscape:groupmode="layer"
     id="layer2"
     inkscape:label="Layer 2"
     style="display:inline" />
  <g
     inkscape:groupmode="layer"
     id="layer3"
     inkscape:label="Layer 3" />
  <g
     inkscape:groupmode="layer"
     id="layer4"
     inkscape:label="Layer 4" />
</svg>
