<?xml version="1.0" encoding="UTF-8" standalone="no"?>
<!-- Created with Inkscape (http://www.inkscape.org/) -->

<svg
   width="210mm"
   height="297mm"
   viewBox="0 0 210 297"
   version="1.1"
   id="svg5"
   inkscape:version="1.1.2 (0a00cf5339, 2022-02-04, custom)"
   sodipodi:docname="pitch bend icon.svg"
   xmlns:inkscape="http://www.inkscape.org/namespaces/inkscape"
   xmlns:sodipodi="http://sodipodi.sourceforge.net/DTD/sodipodi-0.dtd"
   xmlns="http://www.w3.org/2000/svg"
   xmlns:svg="http://www.w3.org/2000/svg">
  <sodipodi:namedview
     id="namedview7"
     pagecolor="#ffffff"
     bordercolor="#666666"
     borderopacity="1.0"
     inkscape:pageshadow="2"
     inkscape:pageopacity="0.0"
     inkscape:pagecheckerboard="0"
     inkscape:document-units="mm"
     showgrid="false"
     inkscape:zoom="0.62270623"
     inkscape:cx="445.6355"
     inkscape:cy="761.99655"
     inkscape:window-width="1680"
     inkscape:window-height="956"
     inkscape:window-x="-11"
     inkscape:window-y="-11"
     inkscape:window-maximized="1"
     inkscape:current-layer="layer3" />
  <defs
     id="defs2" />
  <g
     inkscape:label="Layer 1"
     inkscape:groupmode="layer"
     id="layer1"
     style="display:inline">
    <path
       id="path2308"
       style="fill:none;stroke:#000000;stroke-width:0.768933;stroke-linecap:butt;stroke-linejoin:miter;stroke-miterlimit:4;stroke-dasharray:none;stroke-opacity:1"
       d="m 59.419999,105.87945 -4.10253,-48.192669 24.93079,0.42274 z M 57.056049,4.6089716 52.953509,52.801621 77.884299,52.378881 Z M 35.959101,50.421311 A 15.194715,4.1149777 0 0 1 20.764386,54.536291 15.194715,4.1149777 0 0 1 5.5696717,50.421311 15.194715,4.1149777 0 0 1 20.764386,46.30634 15.194715,4.1149777 0 0 1 35.959101,50.421311 Z m 0.899848,1.40152 A 15.621192,44.466024 0 0 1 21.237757,96.288851 15.621192,44.466024 0 0 1 5.6165647,51.822831 15.621192,44.466024 0 0 1 21.237757,7.3567987 15.621192,44.466024 0 0 1 36.858949,51.822831 Z" />
  </g>
  <g
     inkscape:groupmode="layer"
     id="layer2"
     inkscape:label="Layer 2"
     style="display:inline">
    <path
       style="fill:#000000;stroke-width:0.264583"
       d="m 172.81607,104.37462 c -0.0654,-0.32742 -0.37249,-3.51235 -0.68232,-7.077617 -0.69756,-8.02705 -3.43857,-40.54059 -3.4406,-40.81198 -0.002,-0.24472 7.65184,-0.25455 17.92403,-0.023 5.8539,0.13194 7.73907,0.25372 7.73907,0.49992 0,0.27629 -8.38804,19.68854 -18.14,41.98103 -1.44639,3.306377 -2.77635,6.015047 -2.95548,6.019277 -0.17913,0.004 -0.37924,-0.26018 -0.4447,-0.58761 z m 0.81883,-1.83555 c -0.0845,-0.21107 -0.14715,-0.14837 -0.15985,0.15985 -0.0115,0.27892 0.0511,0.43519 0.13897,0.34727 0.0879,-0.0879 0.0973,-0.31612 0.0209,-0.50712 z m -40.00054,-7.067117 c -7.82098,-2.00105 -13.85867,-19.03045 -14.58824,-41.14643 -0.69402,-21.038112 4.42175,-41.441112 11.74827,-46.8551445 1.57433,-1.163371 3.65038,-1.812385 5.0086,-1.565789 8.58496,1.558663 15.14341,20.6940095 15.1822,44.2965835 0.0198,12.04019 -1.38568,22.30926 -4.23647,30.95378 -1.87377,5.68189 -3.56707,8.84684 -6.2059,11.59943 -2.13203,2.22394 -4.77473,3.2635 -6.90846,2.71757 z m 8.61937,-43.16083 c 4.38996,-0.71035 7.12335,-1.86355 7.12335,-3.00529 0,-0.97339 -3.11607,-2.30429 -6.95657,-2.97122 -3.60948,-0.6268 -14.76757,-0.38717 -17.78198,0.38189 -3.59941,0.9183 -5.05378,1.77851 -4.85184,2.86967 0.13366,0.72217 2.66099,1.86167 5.5133,2.48577 4.93993,1.0809 11.20567,1.16929 16.95374,0.23918 z m 24.05668,-0.5785 c 0,-0.53548 0.77477,-9.67288 2.38866,-28.17112 0.72603,-8.321664 1.38493,-15.8821335 1.46422,-16.8010425 0.23172,-2.685338 0.38383,-3.390535 0.73132,-3.390535 0.17978,0 0.45662,0.327422 0.61519,0.727604 0.15858,0.400182 2.87877,6.6211985 6.04486,13.8244795 7.27008,16.540422 14.68259,33.692604 14.59743,33.777774 -0.0359,0.0359 -5.86493,0.14907 -12.95345,0.25155 -11.47641,0.16592 -12.88823,0.14196 -12.88823,-0.21871 z"
       id="path1247" />
  </g>
  <g
     inkscape:groupmode="layer"
     id="layer3"
     inkscape:label="Layer 3">
    <g
       id="g1183"
       transform="translate(5.5002149,12.449549)"
       style="display:inline">
      <path
         id="path826"
         style="fill:#ffffff;stroke:#000000;stroke-width:0.768933;stroke-linecap:butt;stroke-linejoin:miter;stroke-miterlimit:4;stroke-dasharray:none;stroke-opacity:1"
         d="m 59.419999,279.44721 -4.10253,-48.19291 24.93079,0.42274 z m -2.36395,-101.27103 -4.10254,48.19293 24.93079,-0.42274 z m -21.096948,45.81261 a 15.194715,4.1149777 0 0 1 -15.194715,4.115 15.194715,4.1149777 0 0 1 -15.1947143,-4.115 15.194715,4.1149777 0 0 1 15.1947143,-4.115 15.194715,4.1149777 0 0 1 15.194715,4.115 z m 0.899848,1.40152 A 15.621192,44.466024 0 0 1 21.237757,269.85659 15.621192,44.466024 0 0 1 5.6165647,225.39031 15.621192,44.466024 0 0 1 21.237757,180.92403 15.621192,44.466024 0 0 1 36.858949,225.39031 Z" />
      <path
         style="fill:#ffffff;fill-rule:evenodd;stroke:#000000;stroke-width:7.67794;stroke-linecap:round;stroke-linejoin:round;paint-order:stroke markers fill"
         d="m 131.68385,838.07752 c -9.53842,-5.88511 -27.10036,-8.60238 -54.600953,-8.44813 -24.733376,0.13873 -38.158531,2.18866 -51.072634,7.79844 -2.696683,1.17142 -2.826824,0.38799 -1.89245,-11.39238 3.104989,-39.14698 9.335966,-72.65579 17.586189,-94.57461 12.071665,-32.07146 29.864591,-49.89824 44.318545,-44.40285 19.868103,7.55384 36.801123,43.13479 45.598553,95.81518 2.30686,13.81381 6.29751,57.02312 5.3385,57.80333 -0.25225,0.20522 -2.62634,-0.96432 -5.27575,-2.59898 z"
         id="path902"
         transform="scale(0.26458333)" />
      <path
         style="fill:#ffffff;fill-rule:evenodd;stroke:#000000;stroke-width:7.67794;stroke-linecap:round;stroke-linejoin:round;paint-order:stroke markers fill"
         d="M 75.064057,1016.7721 C 68.847509,1014.981 60.148682,1006.8918 53.685103,996.89138 37.811859,972.33239 27.260483,928.42884 23.976934,873.27774 l -1.119076,-18.79621 7.841795,2.96784 c 13.570665,5.13602 30.944959,7.03377 55.622745,6.07552 24.286882,-0.94307 39.178842,-3.91255 46.565302,-9.2852 l 4.41621,-3.21219 v 6.95359 c 0,15.68228 -3.67432,51.4682 -7.31936,71.28666 -8.48193,46.11715 -23.81279,77.77405 -41.570777,85.83995 -6.977148,3.1691 -7.779844,3.2692 -13.349716,1.6644 z"
         id="path941"
         transform="scale(0.26458333)" />
      <path
         style="fill:#ffffff;fill-rule:evenodd;stroke:#000000;stroke-width:7.67794;stroke-linecap:round;stroke-linejoin:round;paint-order:stroke markers fill"
         d="m 52.994491,858.14617 c -14.452346,-2.25661 -29.709033,-8.33924 -29.709033,-11.84458 0,-2.44376 11.218152,-7.48288 21.282198,-9.55982 11.529541,-2.37938 57.064024,-2.48324 67.844904,-0.15474 10.22249,2.2079 19.65432,6.30984 20.68512,8.99604 1.11605,2.90838 -5.28347,6.7173 -16.22683,9.65803 -9.19888,2.47194 -53.690999,4.49543 -63.876359,2.90507 z"
         id="path980"
         transform="scale(0.26458333)" />
      <path
         style="fill:#ffffff;fill-rule:evenodd;stroke:#000000;stroke-width:7.67794;stroke-linecap:round;stroke-linejoin:round;paint-order:stroke markers fill"
         d="m 203.11817,850.79704 c -0.0951,-7.23445 13.53767,-162.89213 14.34847,-163.82909 0.5509,-0.63662 17.09615,35.76657 36.76722,80.89598 19.67108,45.12942 35.31473,82.50555 34.76367,83.05807 -0.55105,0.55254 -20.09318,1.21895 -43.42695,1.48094 -33.91715,0.38082 -42.43052,0.0588 -42.45241,-1.6059 z"
         id="path1019"
         transform="scale(0.26458333)" />
      <path
         style="fill:#ffffff;fill-rule:evenodd;stroke:#000000;stroke-width:7.67794;stroke-linecap:round;stroke-linejoin:round;paint-order:stroke markers fill"
         d="m 225.62806,1043.5896 c 0,-3.5024 -12.58389,-151.93489 -13.56004,-159.9466 l -0.83156,-6.82505 38.10925,0.0925 c 20.9601,0.0509 40.73893,0.59289 43.95298,1.20442 l 5.84373,1.11187 -36.03699,82.65245 c -19.82034,45.45881 -36.36107,82.97661 -36.75717,83.37271 -0.39611,0.3961 -0.7202,-0.3519 -0.7202,-1.6623 z"
         id="path1058"
         transform="scale(0.26458333)" />
    </g>
  </g>
  <g
     inkscape:groupmode="layer"
     id="layer4"
     inkscape:label="Layer 4" />
</svg>
