<?xml version="1.0" encoding="UTF-8" standalone="no"?>
<!-- Created with Inkscape (http://www.inkscape.org/) -->

<svg
   width="210mm"
   height="297mm"
   viewBox="0 0 210 297"
   version="1.1"
   id="svg5"
   inkscape:version="1.1.1 (3bf5ae0d25, 2021-09-20)"
   sodipodi:docname="controller focus icon svg.svg"
   xmlns:inkscape="http://www.inkscape.org/namespaces/inkscape"
   xmlns:sodipodi="http://sodipodi.sourceforge.net/DTD/sodipodi-0.dtd"
   xmlns="http://www.w3.org/2000/svg"
   xmlns:svg="http://www.w3.org/2000/svg">
  <sodipodi:namedview
     id="namedview7"
     pagecolor="#ffffff"
     bordercolor="#666666"
     borderopacity="1.0"
     inkscape:pageshadow="2"
     inkscape:pageopacity="0.0"
     inkscape:pagecheckerboard="0"
     inkscape:document-units="mm"
     showgrid="false"
     inkscape:zoom="1.0074671"
     inkscape:cx="411.92414"
     inkscape:cy="205.96207"
     inkscape:window-width="1680"
     inkscape:window-height="956"
     inkscape:window-x="-11"
     inkscape:window-y="-11"
     inkscape:window-maximized="1"
     inkscape:current-layer="layer1"
     showguides="true"
     inkscape:guide-bbox="true" />
  <defs
     id="defs2">
    <inkscape:path-effect
       effect="bend_path"
       id="path-effect2019"
       is_visible="true"
       lpeversion="1"
       bendpath="M 28.100586,15.232093 C 72.068152,-40.916635 96.11976,12.60587 96.11976,12.60587"
       prop_scale="0.93706946"
       scale_y_rel="false"
       vertical="false"
       hide_knot="false"
       bendpath-nodetypes="cc" />
    <inkscape:path-effect
       effect="bend_path"
       id="path-effect896"
       is_visible="true"
       lpeversion="1"
       bendpath="M 39.655967,-0.26262307 76.5544,-1.9696681 l 36.89843,-1.707045"
       prop_scale="0.86726605"
       scale_y_rel="false"
       vertical="false"
       hide_knot="false"
       bendpath-nodetypes="ccc" />
    <inkscape:path-effect
       effect="rough_hatches"
       id="path-effect2461"
       is_visible="true"
       lpeversion="1"
       direction="69.99843,260.92094 , 8.1437712,0"
       dist_rdm="6;1"
       growth="0"
       do_bend="true"
       bender="69.99843,265.92094 , 5,0"
       bottom_edge_variation="1.4602372;1"
       top_edge_variation="1.4602372;1"
       bottom_tgt_variation="0;1"
       top_tgt_variation="0;1"
       scale_bf="1"
       scale_bb="1"
       scale_tf="1"
       scale_tb="1"
       top_smth_variation="0;1"
       bottom_smth_variation="0;1"
       fat_output="true"
       stroke_width_top="1"
       stroke_width_bottom="1"
       front_thickness="1"
       back_thickness="0.25" />
    <inkscape:path-effect
       effect="skeletal"
       id="path-effect1945"
       is_visible="true"
       lpeversion="1"
       pattern="m 33.860958,87.614548 h 14.800324 c 5.651367,0 10.201025,4.549657 10.201025,10.201025 v 12.157417 c 0,5.65137 -4.549658,10.20103 -10.201025,10.20103 H 33.860958 c -5.651368,0 -10.201025,-4.54966 -10.201025,-10.20103 V 97.815573 c 0,-5.651368 4.549657,-10.201025 10.201025,-10.201025 z"
       copytype="repeated"
       prop_scale="1.28"
       scale_y_rel="false"
       spacing="2.6"
       normal_offset="0"
       tang_offset="0"
       prop_units="false"
       vertical_pattern="false"
       hide_knot="false"
       fuse_tolerance="0" />
    <inkscape:path-effect
       effect="skeletal"
       id="path-effect1762"
       is_visible="true"
       lpeversion="1"
       pattern="#rect1629"
       copytype="repeated"
       prop_scale="1"
       scale_y_rel="false"
       spacing="0"
       normal_offset="0"
       tang_offset="0"
       prop_units="false"
       vertical_pattern="false"
       hide_knot="false"
       fuse_tolerance="0" />
  </defs>
  <g
     inkscape:label="Layer 1"
     inkscape:groupmode="layer"
     id="layer1">
    <path
       id="path2568"
       style="fill:none;stroke:#000000;stroke-width:0.808647;stroke-linecap:round;stroke-linejoin:round;stroke-opacity:0.955017;paint-order:stroke markers fill"
       d="m 196.73117,181.30774 c 1.59864,2.54647 3.12307,5.33355 4.48991,8.44845 1.36765,3.09269 2.57157,6.65284 3.33951,10.70567 0,0 0,0 0,1e-5 0.57841,3.07258 0.82788,6.42673 0.63544,9.82109 -0.18154,2.92116 -0.68649,5.69889 -1.43738,8.18577 v 1e-5 c -1.35096,4.36208 -3.26551,7.83548 -5.34755,10.5108 l -0.6532,0.7128 c -1.29397,1.41206 -2.75978,1.05108 -3.28655,-0.80937 -0.52677,-1.86044 -0.0292,-4.36834 1.1156,-5.62308 l 0.5779,-0.63339 c 1.65706,-2.21799 3.11713,-4.79709 3.98411,-7.82792 v 0 c 0.50302,-1.6927 0.84498,-3.52507 0.9484,-5.34969 0.13799,-2.10874 -0.0461,-4.36737 -0.43929,-6.53454 v 0 c -0.52908,-2.94183 -1.50353,-5.73417 -2.65109,-8.40226 -1.16303,-2.67949 -2.51589,-5.13565 -3.97522,-7.45568 -1.02635,-1.63169 -1.33711,-4.21231 -0.63357,-5.86877 0.70054,-1.64941 2.19232,-1.69685 3.33298,0.1201 z m -10.70138,1.06719 c 1.59864,2.54647 3.12307,5.33355 4.48991,8.44845 1.36765,3.09269 2.57157,6.65284 3.33951,10.70567 0,0 0,0 0,10e-6 0.57841,3.07258 0.82788,6.42672 0.63544,9.82109 -0.18154,2.92116 -0.6865,5.69889 -1.43739,8.18577 v 0 c -1.35095,4.36209 -3.2655,7.83549 -5.34754,10.51081 l -0.6532,0.7128 c -1.29397,1.41206 -2.75978,1.05108 -3.28655,-0.80937 -0.52677,-1.86044 -0.0292,-4.36834 1.1156,-5.62308 l 0.5779,-0.63339 c 1.65706,-2.21799 3.11713,-4.79709 3.98411,-7.82792 v 0 c 0.50302,-1.6927 0.84497,-3.52507 0.9484,-5.34969 0.13799,-2.10874 -0.0461,-4.36737 -0.43929,-6.53454 v 0 c -0.52908,-2.94183 -1.50353,-5.73417 -2.65109,-8.40226 -1.16303,-2.67949 -2.51589,-5.13565 -3.97522,-7.45568 -1.02635,-1.63169 -1.33711,-4.21231 -0.63357,-5.86877 0.70054,-1.64941 2.19232,-1.69685 3.33298,0.1201 z m -62.88816,4.63411 c -1.59864,2.43129 -3.12306,5.0923 -4.48989,8.0663 -1.36764,2.9528 -2.57156,6.35191 -3.33949,10.22142 0,0 0,0 0,0 -0.57841,2.9336 -0.82788,6.13603 -0.63544,9.37686 0.18154,2.78903 0.68649,5.44111 1.43738,7.8155 v 0 c 1.35094,4.16478 3.26548,7.48106 5.34751,10.03537 l 0.6532,0.68056 c 1.29397,1.34818 2.75976,1.00353 3.28653,-0.77276 0.52677,-1.77629 0.0292,-4.17075 -1.11559,-5.36873 l -0.5779,-0.60474 c -1.65705,-2.11766 -3.11711,-4.5801 -3.98409,-7.47384 v 0 c -0.50301,-1.61614 -0.84497,-3.36562 -0.94839,-5.1077 -0.13799,-2.01336 0.0461,-4.16982 0.43929,-6.23896 v 0 c 0.52907,-2.80877 1.50351,-5.4748 2.65107,-8.0222 1.16303,-2.55829 2.51588,-4.90335 3.9752,-7.11844 1.02635,-1.55788 1.3371,-4.02177 0.63357,-5.6033 -0.70054,-1.57481 -2.19231,-1.6201 -3.33296,0.11466 z m 9.50122,-1.92094 c -1.59864,2.43129 -3.12305,5.0923 -4.48989,8.0663 -1.36764,2.9528 -2.57155,6.35191 -3.33949,10.22142 0,0 0,0 0,0 -0.5784,2.9336 -0.82788,6.13603 -0.63543,9.37686 0.18153,2.78902 0.68649,5.44111 1.43737,7.8155 v 0 c 1.35095,4.16478 3.26548,7.48106 5.34751,10.03537 l 0.6532,0.68056 c 1.29397,1.34818 2.75977,1.00353 3.28654,-0.77276 0.52677,-1.77629 0.0292,-4.17075 -1.1156,-5.36873 l -0.57789,-0.60474 c -1.65706,-2.11766 -3.11712,-4.58011 -3.98409,-7.47384 v 0 c -0.50302,-1.61614 -0.84497,-3.36562 -0.94839,-5.1077 -0.138,-2.01336 0.0461,-4.16982 0.43928,-6.23896 v -1e-5 c 0.52908,-2.80876 1.50352,-5.47479 2.65107,-8.02219 1.16303,-2.55829 2.51588,-4.90335 3.9752,-7.11844 1.02635,-1.55788 1.33711,-4.02177 0.63357,-5.60331 -0.70054,-1.5748 -2.1923,-1.62009 -3.33296,0.11467 z m 9.80127,-2.77469 c -1.59864,2.43129 -3.12306,5.0923 -4.4899,8.06629 -1.36763,2.95281 -2.57155,6.35192 -3.33948,10.22143 0,0 0,0 0,0 -0.57841,2.9336 -0.82788,6.13603 -0.63544,9.37686 0.18154,2.78902 0.68649,5.4411 1.43737,7.8155 v 0 c 1.35095,4.16478 3.26549,7.48106 5.34752,10.03537 l 0.6532,0.68056 c 1.29397,1.34818 2.75976,1.00353 3.28653,-0.77276 0.52677,-1.7763 0.0292,-4.17075 -1.11559,-5.36873 l -0.5779,-0.60474 c -1.65705,-2.11767 -3.11711,-4.58011 -3.98409,-7.47384 v 0 c -0.50302,-1.61614 -0.84497,-3.36562 -0.94839,-5.1077 -0.13799,-2.01336 0.0461,-4.16983 0.43929,-6.23897 v 0 c 0.52907,-2.80876 1.50351,-5.4748 2.65107,-8.0222 1.16302,-2.55829 2.51588,-4.90335 3.9752,-7.11843 1.02634,-1.55788 1.3371,-4.02177 0.63356,-5.60331 -0.70054,-1.5748 -2.1923,-1.62009 -3.33295,0.11467 z m 34.88454,-1.21911 c 1.59865,2.54647 3.12308,5.33356 4.48992,8.44845 1.36765,3.09269 2.57157,6.65284 3.33951,10.70568 0,0 0,0 0,0 0.57841,3.07258 0.82788,6.42673 0.63544,9.8211 -0.18154,2.92115 -0.6865,5.69888 -1.43739,8.18577 v 0 c -1.35095,4.36209 -3.2655,7.83548 -5.34754,10.5108 l -0.6532,0.71281 c -1.29398,1.41205 -2.75978,1.05107 -3.28655,-0.80938 -0.52677,-1.86044 -0.0292,-4.36834 1.1156,-5.62308 l 0.5779,-0.63339 c 1.65706,-2.21799 3.11713,-4.79709 3.98411,-7.82792 v 0 c 0.50302,-1.6927 0.84497,-3.52507 0.94839,-5.34968 0.138,-2.10875 -0.0461,-4.36738 -0.43928,-6.53454 v -1e-5 c -0.52908,-2.94183 -1.50353,-5.73417 -2.65109,-8.40226 -1.16303,-2.67949 -2.51589,-5.13565 -3.97522,-7.45568 -1.02635,-1.63169 -1.33711,-4.2123 -0.63357,-5.86877 0.70054,-1.64941 2.19231,-1.69685 3.33297,0.1201 z m -16.45983,96.9938 13.54592,-4.49784 0.46812,4.77904 -13.54593,4.49782 z m 0.0807,-13.06681 12.11037,-4.06306 0.46379,4.78406 -12.11037,4.06306 z m -0.22693,-13.47818 10.8439,-3.60558 0.46849,4.79079 -10.8439,3.60557 z m 0.0455,-22.13668 8.27368,-2.73265 0.48201,4.89308 -8.27368,2.73268 z m 0.12986,11.11909 9.40276,-3.1254 0.47002,4.80244 -9.40276,3.1254 z m -16.9165,35.19752 h 14.01057 l 1e-5,4.90907 h -14.01058 z m 1.46769,-12.80627 h 12.6429 v 4.90907 h -12.6429 z m 1.43994,-13.23315 h 11.20296 v 4.90907 h -11.20297 z m 2.764,-21.60017 h 8.45909 v 4.99497 l -8.45909,0 z m -1.14973,10.92828 9.6887,0 v 4.90907 h -9.68871 z m 9.6887,-18.14222 h 2.70034 v 71.71512 h -2.70034 z m 13.65524,-4.62091 -3.69692,1.88061 8.09326,72.45976 3.69692,-1.88061 z m -24.41413,-0.26163 3.66749,2.1269 -9.15319,71.88298 -3.66749,-2.1269 z m 25.80432,-8.24389 a 13.646136,13.445226 89.999995 0 1 -13.44523,13.64613 13.646136,13.445226 89.999995 0 1 -13.44523,-13.64613 13.646136,13.445226 89.999995 0 1 13.44523,-13.64614 13.646136,13.445226 89.999995 0 1 13.44523,13.64614 z" />
    <path
       style="fill:#000000;stroke:#000000;stroke-width:12.679;stroke-linecap:round;stroke-linejoin:round;stroke-opacity:0.955017;paint-order:stroke markers fill"
       d=""
       id="path2763"
       transform="scale(0.26458333)" />
    <path
       style="fill:#000000;stroke:#000000;stroke-width:8.90138;stroke-linecap:round;stroke-linejoin:round;stroke-opacity:0.955017;paint-order:stroke markers fill"
       d=""
       id="path3270"
       transform="scale(0.26458333)" />
    <g
       id="g3761">
      <path
         id="path2566"
         style="fill:none;stroke:#000000;stroke-width:0.808647;stroke-linecap:round;stroke-linejoin:round;stroke-opacity:0.955017;paint-order:stroke markers fill"
         d="m 195.02973,5.4922357 c 1.59864,2.546472 3.12307,5.3335523 4.48991,8.4484453 1.36765,3.092693 2.57157,6.652841 3.33951,10.705678 0,0 0,0 0,1e-6 0.57841,3.07258 0.82788,6.42673 0.63544,9.821098 -0.18154,2.921158 -0.68649,5.698885 -1.43738,8.18577 v 2e-6 c -1.35096,4.362089 -3.26551,7.835485 -5.34755,10.510806 l -0.6532,0.712802 c -1.29397,1.412054 -2.75978,1.051074 -3.28655,-0.809372 -0.52677,-1.860446 -0.0292,-4.36834 1.1156,-5.62308 l 0.5779,-0.633391 c 1.65706,-2.21799 3.11713,-4.797093 3.98411,-7.827923 v 0 c 0.50302,-1.692701 0.84498,-3.525066 0.9484,-5.349683 0.13799,-2.108744 -0.0461,-4.367374 -0.43929,-6.534542 v -10e-7 c -0.52908,-2.941834 -1.50353,-5.734175 -2.65109,-8.402261 -1.16303,-2.679493 -2.51589,-5.135653 -3.97522,-7.45568 -1.02635,-1.6316894 -1.33711,-4.2123063 -0.63357,-5.8687713 0.70054,-1.649408 2.19232,-1.696848 3.33298,0.120102 z m -10.70138,1.06719 c 1.59864,2.5464709 3.12307,5.3335523 4.48991,8.4484453 1.36765,3.092693 2.57157,6.65284 3.33951,10.705677 0,0 0,1e-6 0,2e-6 0.57841,3.07258 0.82788,6.426729 0.63544,9.821098 -0.18154,2.921157 -0.6865,5.698884 -1.43739,8.18577 v 10e-7 c -1.35095,4.36209 -3.2655,7.835485 -5.34754,10.510807 l -0.6532,0.712802 c -1.29397,1.412054 -2.75978,1.051074 -3.28655,-0.809372 -0.52677,-1.860446 -0.0292,-4.36834 1.1156,-5.62308 l 0.5779,-0.633391 c 1.65706,-2.217991 3.11713,-4.797093 3.98411,-7.827924 v 0 c 0.50302,-1.6927 0.84497,-3.525066 0.9484,-5.349682 0.13799,-2.108744 -0.0461,-4.367374 -0.43929,-6.534542 v -2e-6 c -0.52908,-2.941833 -1.50353,-5.734174 -2.65109,-8.40226 -1.16303,-2.679493 -2.51589,-5.135653 -3.97522,-7.45568 -1.02635,-1.631689 -1.33711,-4.2123063 -0.63357,-5.8687713 0.70054,-1.649408 2.19232,-1.696848 3.33298,0.120102 z m -62.88816,4.6341123 c -1.59864,2.431287 -3.12306,5.092299 -4.48989,8.066295 -1.36764,2.9528 -2.57156,6.35191 -3.33949,10.221425 0,0 0,0 0,1e-6 -0.57841,2.933597 -0.82788,6.136027 -0.63544,9.376858 0.18154,2.789023 0.68649,5.441105 1.43738,7.8155 v 2e-6 c 1.35094,4.164777 3.26548,7.48106 5.34751,10.035368 l 0.6532,0.68056 c 1.29397,1.348182 2.75976,1.00353 3.28653,-0.772762 0.52677,-1.776292 0.0292,-4.170746 -1.11559,-5.368729 l -0.5779,-0.604741 c -1.65705,-2.117664 -3.11711,-4.580105 -3.98409,-7.473841 v 0 c -0.50301,-1.616135 -0.84497,-3.365616 -0.94839,-5.107699 -0.13799,-2.013358 0.0461,-4.169823 0.43929,-6.238963 v -10e-7 c 0.52907,-2.808765 1.50351,-5.4748 2.65107,-8.022199 1.16303,-2.558291 2.51588,-4.903351 3.9752,-7.118435 1.02635,-1.557883 1.3371,-4.02177 0.63357,-5.603307 -0.70054,-1.5748004 -2.19231,-1.6200944 -3.33296,0.114668 z m 9.50122,-1.9209414 c -1.59864,2.4312874 -3.12305,5.0922994 -4.48989,8.0662954 -1.36764,2.9528 -2.57155,6.35191 -3.33949,10.221425 0,0 0,0 0,10e-7 -0.5784,2.933597 -0.82788,6.136027 -0.63543,9.376858 0.18153,2.789023 0.68649,5.441105 1.43737,7.8155 v 2e-6 c 1.35095,4.164777 3.26548,7.48106 5.34751,10.035368 l 0.6532,0.68056 c 1.29397,1.348182 2.75977,1.00353 3.28654,-0.772762 0.52677,-1.776292 0.0292,-4.170746 -1.1156,-5.368729 l -0.57789,-0.604741 c -1.65706,-2.117664 -3.11712,-4.580105 -3.98409,-7.473841 v 0 c -0.50302,-1.616135 -0.84497,-3.365616 -0.94839,-5.107699 -0.138,-2.013358 0.0461,-4.169823 0.43928,-6.238963 v -2e-6 c 0.52908,-2.808764 1.50352,-5.474799 2.65107,-8.022198 1.16303,-2.558291 2.51588,-4.903351 3.9752,-7.118436 1.02635,-1.557882 1.33711,-4.02177 0.63357,-5.6033074 -0.70054,-1.5747989 -2.1923,-1.6200939 -3.33296,0.114669 z m 9.80127,-2.7746919 c -1.59864,2.4312859 -3.12306,5.0922983 -4.4899,8.0662943 -1.36763,2.952801 -2.57155,6.351911 -3.33948,10.221425 0,0 0,0 0,1e-6 -0.57841,2.933598 -0.82788,6.136028 -0.63544,9.376858 0.18154,2.789024 0.68649,5.441105 1.43737,7.815501 v 10e-7 c 1.35095,4.164778 3.26549,7.481061 5.34752,10.035368 l 0.6532,0.680561 c 1.29397,1.348182 2.75976,1.00353 3.28653,-0.772762 0.52677,-1.776293 0.0292,-4.170746 -1.11559,-5.36873 l -0.5779,-0.604741 c -1.65705,-2.117663 -3.11711,-4.580105 -3.98409,-7.473841 v 0 c -0.50302,-1.616134 -0.84497,-3.365615 -0.94839,-5.107698 -0.13799,-2.013359 0.0461,-4.169824 0.43929,-6.238963 v -2e-6 c 0.52907,-2.808765 1.50351,-5.474799 2.65107,-8.022199 1.16302,-2.55829 2.51588,-4.90335 3.9752,-7.118435 1.02634,-1.557882 1.3371,-4.0217703 0.63356,-5.6033073 -0.70054,-1.5748 -2.1923,-1.620094 -3.33295,0.114669 z m 34.88454,-1.219106 c 1.59865,2.546471 3.12308,5.3335523 4.48992,8.4484453 1.36765,3.092692 2.57157,6.65284 3.33951,10.705677 0,0 0,1e-6 0,2e-6 0.57841,3.072579 0.82788,6.426729 0.63544,9.821098 -0.18154,2.921157 -0.6865,5.698884 -1.43739,8.185769 v 2e-6 c -1.35095,4.362089 -3.2655,7.835485 -5.34754,10.510806 l -0.6532,0.712803 c -1.29398,1.412053 -2.75978,1.051073 -3.28655,-0.809372 -0.52677,-1.860447 -0.0292,-4.368341 1.1156,-5.623081 l 0.5779,-0.633391 c 1.65706,-2.21799 3.11713,-4.797093 3.98411,-7.827923 v 0 c 0.50302,-1.692701 0.84497,-3.525066 0.94839,-5.349682 0.138,-2.108744 -0.0461,-4.367374 -0.43928,-6.534542 v -2e-6 c -0.52908,-2.941833 -1.50353,-5.734175 -2.65109,-8.402261 -1.16303,-2.679493 -2.51589,-5.135652 -3.97522,-7.455679 -1.02635,-1.6316904 -1.33711,-4.2123063 -0.63357,-5.8687713 0.70054,-1.649408 2.19231,-1.696848 3.33297,0.120102 z m -16.45983,96.9937913 13.54592,-4.497837 0.46812,4.779037 -13.54593,4.49782 z m 0.0807,-13.066807 12.11037,-4.06306 0.46379,4.78406 -12.11037,4.06306 z m -0.22693,-13.47818 10.8439,-3.605575 0.46849,4.790786 -10.8439,3.605575 z m 0.0455,-22.136676 8.27368,-2.732657 0.48201,4.893083 -8.27368,2.73268 z m 0.12986,11.11909 9.40276,-3.125407 0.47002,4.802441 -9.40276,3.125405 z m -16.9165,35.197513 h 14.01057 l 1e-5,4.90907 h -14.01058 z m 1.46769,-12.806267 h 12.6429 l 0,4.90907 h -12.6429 z m 1.43994,-13.233151 h 11.20296 v 4.909077 h -11.20297 z m 2.764,-21.600171 h 8.45909 v 4.994977 l -8.45909,-2e-6 z m -1.14973,10.928287 9.6887,-4e-6 v 4.909068 h -9.68871 z m 9.6887,-18.142225 h 2.70034 v 71.715117 h -2.70034 z m 13.65524,-4.620904 -3.69692,1.880604 8.09326,72.459757 3.69692,-1.88061 z m -24.41413,-0.261631 3.66749,2.126896 -9.15319,71.882976 -3.66749,-2.1269 z m 25.80432,-8.243894 a 13.646136,13.445226 89.999995 0 1 -13.44523,13.646135 13.646136,13.445226 89.999995 0 1 -13.44523,-13.646136 13.646136,13.445226 89.999995 0 1 13.44523,-13.646136 13.646136,13.445226 89.999995 0 1 13.44523,13.646137 z" />
      <path
         style="fill:#000000;stroke:#000000;stroke-width:12.679;stroke-linecap:round;stroke-linejoin:round;stroke-opacity:0.955017;paint-order:stroke markers fill"
         d="m 576.2137,163.60326 c -23.04985,-10.68712 -33.18315,-40.67261 -21.60394,-63.928328 18.0204,-36.192259 67.09238,-36.681661 84.94944,-0.847213 12.16361,24.409191 2.9852,53.041011 -21.0324,65.609971 -9.77381,5.11486 -30.3572,4.70895 -42.3131,-0.83443 z"
         id="path2724"
         transform="scale(0.26458333)" />
      <path
         style="fill:#000000;stroke:#000000;stroke-width:8.90138;stroke-linecap:round;stroke-linejoin:round;stroke-opacity:0.955017;paint-order:stroke markers fill"
         d="m 604.96655,345.7146 v -6.75211 l 19.78248,-6.98485 c 10.88036,-3.84167 19.9294,-6.80118 20.10899,-6.5767 0.17958,0.22449 0.6894,3.25313 1.13293,6.73033 l 0.80643,6.32216 -19.0343,6.31447 c -10.46886,3.47296 -19.8808,6.62595 -20.91541,7.00665 -1.32824,0.48873 -1.88112,-1.29235 -1.88112,-6.05995 z"
         id="path2802"
         transform="scale(0.26458333)" />
      <path
         style="fill:#000000;stroke:#000000;stroke-width:8.90138;stroke-linecap:round;stroke-linejoin:round;stroke-opacity:0.955017;paint-order:stroke markers fill"
         d="m 546.27577,338.60068 v -7.52446 h 21.06848 21.06849 v 7.52446 7.52446 h -21.06849 -21.06848 z"
         id="path2841"
         transform="scale(0.26458333)" />
      <path
         style="fill:#000000;stroke:#000000;stroke-width:8.90138;stroke-linecap:round;stroke-linejoin:round;stroke-opacity:0.955017;paint-order:stroke markers fill"
         d="m 540.2562,386.75722 v -7.52446 h 24.07827 24.07827 v 7.52446 7.52446 H 564.33447 540.2562 Z"
         id="path2880"
         transform="scale(0.26458333)" />
      <path
         style="fill:#000000;stroke:#000000;stroke-width:8.90138;stroke-linecap:round;stroke-linejoin:round;stroke-opacity:0.955017;paint-order:stroke markers fill"
         d="m 731.21859,200.52685 c -2.30958,-6.01408 -0.58019,-13.67703 4.65495,-20.62617 26.7877,-35.55809 26.19529,-81.046911 -1.68636,-129.489508 -8.41261,-14.616382 -10.80725,-24.770557 -7.02786,-29.800813 3.3345,-4.438114 6.38647,-1.711049 14.52362,12.97745 28.46006,51.373725 32.93159,100.452321 13.06897,143.442351 -6.13344,13.27503 -16.36926,27.63514 -19.6982,27.63514 -1.23521,0 -2.96102,-1.8623 -3.83512,-4.13845 z"
         id="path2919"
         transform="scale(0.26458333)" />
      <path
         style="fill:#000000;stroke:#000000;stroke-width:8.90138;stroke-linecap:round;stroke-linejoin:round;stroke-opacity:0.955017;paint-order:stroke markers fill"
         d="m 692.03208,206.65972 c -1.12152,-1.35135 -2.03913,-5.29886 -2.03913,-8.77223 0,-4.95914 1.33172,-8.22173 6.20183,-15.19385 13.67895,-19.58296 18.79249,-35.02098 18.82729,-56.8405 0.0371,-23.28108 -7.30506,-47.513481 -22.24299,-73.411441 -7.28297,-12.626518 -9.47513,-21.389818 -6.66447,-26.641597 3.85515,-7.2034 7.90145,-2.796454 20.49591,22.322661 26.83613,53.523567 26.25058,107.759807 -1.61668,149.743617 -6.64299,10.00807 -10.04064,12.31307 -12.96176,8.79334 z"
         id="path2958"
         transform="scale(0.26458333)" />
      <path
         style="fill:#000000;stroke:#000000;stroke-width:8.90138;stroke-linecap:round;stroke-linejoin:round;stroke-opacity:0.955017;paint-order:stroke markers fill"
         d="m 658.22821,201.3934 c -0.60064,-0.97186 -1.09207,-4.67545 -1.09207,-8.2302 0,-5.15729 1.27599,-8.28222 6.31528,-15.46622 9.25434,-13.19297 15.18102,-26.93407 17.70973,-41.06033 4.45169,-24.86861 -0.6068,-47.777893 -18.45254,-83.569302 -9.77412,-19.602976 -11.29305,-23.674815 -10.46935,-28.065507 1.50196,-8.006145 4.34865,-9.377757 8.70872,-4.196102 8.79675,10.454343 22.53788,41.482049 28.44117,64.220655 2.96014,11.402013 3.50071,17.114046 3.41806,36.117406 -0.0872,20.04464 -0.55526,24.09062 -4.17842,36.11741 -4.15703,13.79891 -12.70832,31.32607 -19.85505,40.69592 -3.99406,5.23648 -8.52122,6.71166 -10.54553,3.43627 z"
         id="path2997"
         transform="scale(0.26458333)" />
      <path
         style="fill:#000000;stroke:#000000;stroke-width:8.90138;stroke-linecap:round;stroke-linejoin:round;stroke-opacity:0.955017;paint-order:stroke markers fill"
         d="m 454.37583,212.10141 c -7.41299,-8.0038 -18.15337,-29.72728 -21.90546,-44.30596 -3.99324,-15.51565 -3.67094,-45.52004 0.66873,-62.25589 5.87148,-22.643204 21.81573,-56.415687 30.22878,-64.029394 2.69989,-2.443361 2.96643,-2.399416 5.25374,0.866169 3.5402,5.05434 2.96491,10.385429 -2.10344,19.492217 -10.88804,19.563612 -17.93965,34.434874 -20.97109,44.226328 -10.3984,33.58653 -5.67835,61.11438 15.30588,89.26573 5.58617,7.4941 6.57632,16.56131 2.27792,20.85972 -2.41642,2.41642 -2.9228,2.17818 -8.75506,-4.11892 z"
         id="path3036"
         transform="scale(0.26458333)" />
      <path
         style="fill:#000000;stroke:#000000;stroke-width:8.90138;stroke-linecap:round;stroke-linejoin:round;stroke-opacity:0.955017;paint-order:stroke markers fill"
         d="m 489.85133,204.28908 c -6.80713,-7.9264 -18.01505,-30.45527 -21.14996,-42.5132 -3.40465,-13.09542 -4.39735,-34.3597 -2.28995,-49.05216 2.38206,-16.607322 10.60993,-41.106613 19.1573,-57.042719 11.95972,-22.298267 16.9905,-26.923915 20.17436,-18.549713 2.08385,5.480929 0.5086,11.719553 -5.46539,21.64524 -18.86864,31.349889 -26.91175,59.952332 -23.43405,83.334762 2.64118,17.75808 7.83113,29.15886 22.07691,48.49653 4.25334,5.77361 2.5626,20.07705 -2.37322,20.07705 -0.66184,0 -3.67505,-2.87811 -6.696,-6.39579 z"
         id="path3075"
         transform="scale(0.26458333)" />
      <path
         style="fill:#000000;stroke:#000000;stroke-width:8.90138;stroke-linecap:round;stroke-linejoin:round;stroke-opacity:0.955017;paint-order:stroke markers fill"
         d="m 527.32538,194.62656 c -6.58903,-7.19354 -15.97142,-25.40524 -20.41302,-39.62269 -3.10535,-9.94017 -3.51452,-14.15926 -3.42965,-35.36496 0.0873,-21.813943 0.48461,-25.34674 4.22481,-37.566816 7.90621,-25.831333 25.41419,-59.498715 30.941,-59.498715 6.70135,0 6.30441,12.990873 -0.75464,24.697705 -26.83671,44.506405 -31.60241,78.923896 -15.50787,111.996516 2.55096,5.24197 6.50022,11.67539 8.77612,14.29648 7.61656,8.77176 9.67766,16.86249 6.03134,23.67569 -2.22366,4.15493 -4.13147,3.64973 -9.86809,-2.61321 z"
         id="path3114"
         transform="scale(0.26458333)" />
      <path
         style="fill:#000000;stroke:#000000;stroke-width:8.90138;stroke-linecap:round;stroke-linejoin:round;stroke-opacity:0.955017;paint-order:stroke markers fill"
         d="m 604.41006,296.31481 c -0.52162,-2.6081 -0.9484,-5.63552 -0.9484,-6.7276 0,-2.04307 34.19015,-13.61109 35.71672,-12.08452 0.44046,0.44045 0.8801,3.28855 0.97698,6.3291 l 0.17615,5.52828 -14.97465,5.05114 c -8.23606,2.77812 -16.105,5.40989 -17.48653,5.84837 -1.87599,0.59542 -2.75195,-0.40319 -3.46027,-3.94477 z"
         id="path3153"
         transform="scale(0.26458333)" />
      <path
         style="fill:#000000;stroke:#000000;stroke-width:8.90138;stroke-linecap:round;stroke-linejoin:round;stroke-opacity:0.955017;paint-order:stroke markers fill"
         d="m 656.35898,381.86633 c -2.71805,-25.86533 -5.55698,-51.42969 -6.30875,-56.80967 -0.75176,-5.37999 -2.05612,-16.21522 -2.89856,-24.07828 -0.84244,-7.86306 -4.62136,-41.67266 -8.39759,-75.13245 l -6.86588,-60.83597 4.47241,-4.47241 4.47241,-4.47241 0.9187,6.6176 c 1.96862,14.18036 29.43215,262.1918 29.06614,262.48392 -1.3832,1.10394 -7.18274,3.72754 -8.23982,3.72754 -0.70244,0 -3.50102,-21.16254 -6.21906,-47.02787 z"
         id="path3192"
         transform="scale(0.26458333)" />
      <path
         style="fill:#000000;stroke:#000000;stroke-width:8.90138;stroke-linecap:round;stroke-linejoin:round;stroke-opacity:0.955017;paint-order:stroke markers fill"
         d="m 523.32617,424.9514 c -2.27615,-1.1951 -4.13846,-3.18878 -4.13846,-4.43041 0,-4.68268 33.28703,-263.18837 33.97912,-263.88047 0.39853,-0.39853 2.48297,1.03377 4.63208,3.18288 l 3.90748,3.90748 -4.73395,38.14969 c -2.60367,20.98233 -6.09552,48.30771 -7.75966,60.72307 -1.66414,12.41536 -7.03783,54.31427 -11.94152,93.1087 -4.9037,38.79443 -9.11625,70.73256 -9.36123,70.97362 -0.24497,0.24107 -2.30772,-0.53948 -4.58386,-1.73456 z"
         id="path3231"
         transform="scale(0.26458333)" />
      <path
         style="fill:#000000;stroke:#000000;stroke-width:6.27142;stroke-linecap:round;stroke-linejoin:round;stroke-opacity:0.955017;paint-order:stroke markers fill"
         d="M 593.74827,306.94665 V 174.94369 h 3.13903 3.13904 l -0.3565,56.98923 c -0.19608,31.34407 -0.35913,57.46635 -0.36234,58.04949 -0.003,0.58315 0.18819,34.33933 0.42532,75.01373 l 0.43114,73.95347 h -3.20784 -3.20785 z"
         id="path3348"
         transform="scale(0.26458333)" />
      <path
         style="fill:#000000;stroke:#000000;stroke-width:6.27142;stroke-linecap:round;stroke-linejoin:round;stroke-opacity:0.955017;paint-order:stroke markers fill"
         d="m 604.83008,398.23065 c -0.35334,-1.88347 -0.48642,-5.0256 -0.29573,-6.98253 l 0.3467,-3.55804 22.09326,-7.35772 c 12.20467,-4.06452 22.48351,-6.94842 22.96515,-6.44324 0.47953,0.50296 1.03418,3.49598 1.23255,6.65115 l 0.36069,5.73667 -23.03009,7.6891 -23.03009,7.68909 z"
         id="path3387"
         transform="scale(0.26458333)" />
      <path
         style="fill:#000000;stroke:#000000;stroke-width:6.27142;stroke-linecap:round;stroke-linejoin:round;stroke-opacity:0.955017;paint-order:stroke markers fill"
         d="m 550.66343,290.8947 c 0.37084,-2.70555 0.67425,-6.04538 0.67425,-7.42186 v -2.50268 h 19.08476 19.08477 v 7.42186 7.42185 h -19.75902 -19.75901 z"
         id="path3426"
         transform="scale(0.26458333)" />
      <path
         style="fill:#000000;stroke:#000000;stroke-width:6.27142;stroke-linecap:round;stroke-linejoin:round;stroke-opacity:0.955017;paint-order:stroke markers fill"
         d="m 556.639,248.10195 v -7.42185 h 16.4341 16.43411 v 7.42185 7.42186 H 573.0731 556.639 Z"
         id="path3504"
         transform="scale(0.26458333)" />
      <path
         style="fill:#000000;stroke:#000000;stroke-width:6.27142;stroke-linecap:round;stroke-linejoin:round;stroke-opacity:0.955017;paint-order:stroke markers fill"
         d="m 604.86307,255.24336 c -1.39336,-9.29159 -1.6214,-9.0695 15.0157,-14.62431 l 14.99772,-5.00745 0.73451,6.8587 c 0.40397,3.77229 0.57323,6.99458 0.37611,7.16065 -0.19711,0.16607 -6.56093,2.34573 -14.14183,4.8437 -7.58089,2.49796 -14.34496,4.74782 -15.03125,4.99967 -0.78045,0.28641 -1.51118,-1.29829 -1.95096,-4.23096 z"
         id="path3543"
         transform="scale(0.26458333)" />
      <path
         style="fill:#000000;stroke:#000000;stroke-width:6.27142;stroke-linecap:round;stroke-linejoin:round;stroke-opacity:0.955017;paint-order:stroke markers fill"
         d="m 604.35091,214.15858 c 0,-2.1786 -0.27429,-5.33281 -0.60954,-7.00935 l -0.60955,-3.04826 13.32847,-4.41177 c 7.33065,-2.42647 13.50632,-4.09639 13.7237,-3.71093 0.21738,0.38547 0.70695,3.56657 1.08794,7.06913 l 0.6927,6.36829 -13.80686,4.35199 -13.80686,4.352 z"
         id="path3582"
         transform="scale(0.26458333)" />
      <path
         style="fill:#000000;stroke:#000000;stroke-width:6.27142;stroke-linecap:round;stroke-linejoin:round;stroke-opacity:0.955017;paint-order:stroke markers fill"
         d="m 560.88928,212.31802 c 0.005,-1.02051 0.31008,-4.36034 0.67781,-7.42185 l 0.66861,-5.56639 h 13.63575 13.63576 v 7.42185 7.42185 h -14.31358 c -12.92864,0 -14.31268,-0.17953 -14.30435,-1.85546 z"
         id="path3621"
         transform="scale(0.26458333)" />
    </g>
    <path
       style="fill:#ffffff;stroke:#000000;stroke-width:8.92887;stroke-linecap:round;stroke-linejoin:round;stroke-opacity:0.955017;paint-order:stroke markers fill"
       d=""
       id="path4325"
       transform="scale(0.26458333)" />
    <g
       id="g5210">
      <path
         id="path2570"
         style="fill:none;stroke:#000000;stroke-width:0.808647;stroke-linecap:round;stroke-linejoin:round;stroke-opacity:0.955017;paint-order:stroke markers fill"
         d="m 83.868959,183.57633 c 1.59864,2.54647 3.12307,5.33355 4.48991,8.44845 1.36765,3.09269 2.57157,6.65284 3.33951,10.70567 0,0 0,0 0,1e-5 0.57841,3.07258 0.82788,6.42673 0.63544,9.82109 -0.18154,2.92116 -0.68649,5.69889 -1.43738,8.18577 v 10e-6 c -1.35096,4.36208 -3.26551,7.83548 -5.34755,10.5108 l -0.6532,0.7128 c -1.29397,1.41206 -2.75978,1.05108 -3.28655,-0.80937 -0.52677,-1.86044 -0.0292,-4.36834 1.1156,-5.62308 l 0.5779,-0.63339 c 1.65706,-2.21799 3.11713,-4.79709 3.98411,-7.82792 v 0 c 0.50302,-1.6927 0.84498,-3.52507 0.9484,-5.34969 0.13799,-2.10874 -0.0461,-4.36737 -0.43929,-6.53454 v 0 c -0.52908,-2.94183 -1.50353,-5.73417 -2.65109,-8.40226 -1.16303,-2.67949 -2.51589,-5.13565 -3.97522,-7.45568 -1.02635,-1.63169 -1.33711,-4.21231 -0.63357,-5.86877 0.70054,-1.64941 2.19232,-1.69685 3.33298,0.1201 z m -10.70138,1.06719 c 1.59864,2.54647 3.12307,5.33355 4.48991,8.44845 1.36765,3.09269 2.57157,6.65284 3.33951,10.70567 0,0 0,0 0,1e-5 0.57841,3.07258 0.82788,6.42672 0.63544,9.82109 -0.18154,2.92116 -0.6865,5.69889 -1.43739,8.18577 v 0 c -1.35095,4.36209 -3.2655,7.83549 -5.34754,10.51081 l -0.6532,0.7128 c -1.29397,1.41206 -2.75978,1.05108 -3.28655,-0.80937 -0.52677,-1.86044 -0.0292,-4.36834 1.1156,-5.62308 l 0.5779,-0.63339 c 1.65706,-2.21799 3.11713,-4.79709 3.98411,-7.82792 v 0 c 0.50302,-1.6927 0.84497,-3.52507 0.9484,-5.34969 0.13799,-2.10874 -0.0461,-4.36737 -0.43929,-6.53454 v 0 c -0.52908,-2.94183 -1.50353,-5.73417 -2.65109,-8.40226 -1.16303,-2.67949 -2.51589,-5.13565 -3.97522,-7.45568 -1.02635,-1.63169 -1.33711,-4.21231 -0.63357,-5.86877 0.70054,-1.64941 2.19232,-1.69685 3.33298,0.1201 z m -62.88816,4.63411 c -1.5986403,2.43129 -3.1230603,5.0923 -4.4898903,8.0663 -1.36764,2.9528 -2.57156,6.35191 -3.33949,10.22142 0,0 0,0 0,0 -0.57841,2.9336 -0.82788,6.13603 -0.63544,9.37686 0.18154,2.78903 0.68649,5.44111 1.43738,7.8155 v 0 c 1.35094,4.16478 3.26548,7.48106 5.34751,10.03537 l 0.6532,0.68056 c 1.2939703,1.34818 2.7597603,1.00353 3.2865303,-0.77276 0.52677,-1.77629 0.0292,-4.17075 -1.11559,-5.36873 l -0.5779,-0.60474 c -1.6570503,-2.11766 -3.1171103,-4.5801 -3.9840903,-7.47384 v 0 c -0.50301,-1.61614 -0.84497,-3.36562 -0.94839,-5.1077 -0.13799,-2.01336 0.0461,-4.16982 0.43929,-6.23896 v 0 c 0.52907,-2.80877 1.50351,-5.4748 2.65107,-8.0222 1.1630303,-2.55829 2.5158803,-4.90335 3.9752003,-7.11844 1.02635,-1.55788 1.3371,-4.02177 0.63357,-5.6033 -0.70054,-1.57481 -2.19231,-1.6201 -3.33296,0.11466 z m 9.50122,-1.92094 c -1.59864,2.43129 -3.12305,5.0923 -4.48989,8.0663 -1.36764,2.9528 -2.57155,6.35191 -3.33949,10.22142 0,0 0,0 0,0 -0.5784,2.9336 -0.82788,6.13603 -0.63543,9.37686 0.18153,2.78902 0.68649,5.44111 1.43737,7.8155 v 0 c 1.35095,4.16478 3.26548,7.48106 5.34751,10.03537 l 0.6532,0.68056 c 1.29397,1.34818 2.75977,1.00353 3.28654,-0.77276 0.52677,-1.77629 0.0292,-4.17075 -1.1156,-5.36873 l -0.57789,-0.60474 c -1.65706,-2.11766 -3.11712,-4.58011 -3.98409,-7.47384 v 0 c -0.50302,-1.61614 -0.84497,-3.36562 -0.94839,-5.1077 -0.138,-2.01336 0.0461,-4.16982 0.43928,-6.23896 v -1e-5 c 0.52908,-2.80876 1.50352,-5.47479 2.65107,-8.02219 1.16303,-2.55829 2.51588,-4.90335 3.9752,-7.11844 1.02635,-1.55788 1.33711,-4.02177 0.63357,-5.60331 -0.70054,-1.5748 -2.1923,-1.62009 -3.33296,0.11467 z m 9.80127,-2.77469 c -1.59864,2.43129 -3.12306,5.0923 -4.4899,8.06629 -1.36763,2.95281 -2.57155,6.35192 -3.33948,10.22143 0,0 0,0 0,0 -0.57841,2.9336 -0.82788,6.13603 -0.63544,9.37686 0.18154,2.78902 0.68649,5.4411 1.43737,7.8155 v 0 c 1.35095,4.16478 3.26549,7.48106 5.34752,10.03537 l 0.6532,0.68056 c 1.29397,1.34818 2.75976,1.00353 3.28653,-0.77276 0.52677,-1.7763 0.0292,-4.17075 -1.11559,-5.36873 l -0.5779,-0.60474 c -1.65705,-2.11767 -3.11711,-4.58011 -3.98409,-7.47384 v 0 c -0.50302,-1.61614 -0.84497,-3.36562 -0.94839,-5.1077 -0.13799,-2.01336 0.0461,-4.16983 0.43929,-6.23897 v 0 c 0.52907,-2.80876 1.50351,-5.4748 2.65107,-8.0222 1.16302,-2.55829 2.51588,-4.90335 3.9752,-7.11843 1.02634,-1.55788 1.3371,-4.02177 0.63356,-5.60331 -0.70054,-1.5748 -2.1923,-1.62009 -3.33295,0.11467 z m 34.88454,-1.21911 c 1.59865,2.54647 3.12308,5.33356 4.48992,8.44845 1.36765,3.09269 2.57157,6.65284 3.33951,10.70568 0,0 0,0 0,0 0.57841,3.07258 0.82788,6.42673 0.63544,9.8211 -0.18154,2.92115 -0.6865,5.69888 -1.43739,8.18577 v 0 c -1.35095,4.36209 -3.2655,7.83548 -5.34754,10.5108 l -0.6532,0.71281 c -1.29398,1.41205 -2.75978,1.05107 -3.28655,-0.80938 -0.52677,-1.86044 -0.0292,-4.36834 1.1156,-5.62308 l 0.5779,-0.63339 c 1.65706,-2.21799 3.11713,-4.79709 3.98411,-7.82792 v 0 c 0.50302,-1.6927 0.84497,-3.52507 0.94839,-5.34968 0.138,-2.10875 -0.0461,-4.36738 -0.43928,-6.53454 v -1e-5 c -0.52908,-2.94183 -1.50353,-5.73417 -2.65109,-8.40226 -1.16303,-2.67949 -2.51589,-5.13565 -3.97522,-7.45568 -1.02635,-1.63169 -1.33711,-4.2123 -0.63357,-5.86877 0.70054,-1.64941 2.19231,-1.69685 3.33297,0.1201 z m -16.45983,96.9938 13.54592,-4.49784 0.46812,4.77904 -13.54593,4.49782 z m 0.0807,-13.06681 12.11037,-4.06306 0.46379,4.78406 -12.11037,4.06306 z m -0.22693,-13.47818 10.8439,-3.60558 0.46849,4.79079 -10.8439,3.60557 z m 0.0455,-22.13668 8.27368,-2.73265 0.48201,4.89308 -8.27368,2.73268 z m 0.12986,11.11909 9.40276,-3.1254 0.47002,4.80244 -9.40276,3.1254 z m -16.9165,35.19752 h 14.01057 l 1e-5,4.90907 h -14.01058 z m 1.46769,-12.80627 h 12.6429 v 4.90907 h -12.6429 z m 1.43994,-13.23315 h 11.20296 v 4.90907 h -11.20297 z m 2.764,-21.60017 h 8.45909 v 4.99497 h -8.45909 z m -1.14973,10.92828 h 9.6887 v 4.90907 h -9.68871 z m 9.6887,-18.14222 h 2.70034 v 71.71512 h -2.70034 z m 13.65524,-4.62091 -3.69692,1.88061 8.09326,72.45976 3.69692,-1.88061 z m -24.41413,-0.26163 3.66749,2.1269 -9.15319,71.88298 -3.66749,-2.1269 z m 25.80432,-8.24389 a 13.646136,13.445226 89.999995 0 1 -13.44523,13.64613 13.646136,13.445226 89.999995 0 1 -13.44523,-13.64613 13.646136,13.445226 89.999995 0 1 13.44523,-13.64614 13.646136,13.445226 89.999995 0 1 13.44523,13.64614 z" />
      <path
         style="fill:#ffffff;stroke:#000000;stroke-width:6.27142;stroke-linecap:round;stroke-linejoin:round;stroke-opacity:0.955017;paint-order:stroke markers fill"
         d="m 109.64982,870.25823 c -8.23172,-7.22753 -18.221168,-25.5113 -23.058638,-42.2044 -10.78075,-37.20211 -3.280504,-78.88127 21.663508,-120.38494 7.55165,-12.56499 9.72844,-14.43322 13.00239,-11.15927 3.51229,3.51228 3.11218,12.85621 -0.84351,19.69923 -14.7776,25.56402 -19.72241,36.37026 -24.074906,52.61261 -3.168959,11.82571 -3.494976,35.99792 -0.627455,46.52214 2.675843,9.82075 9.076051,22.66528 15.544031,31.19523 6.40573,8.44785 7.49441,10.84717 7.49441,16.51669 0,9.54024 -3.38552,12.21995 -9.09983,7.20271 z"
         id="path3818"
         transform="scale(0.26458333)" />
      <path
         style="fill:#ffffff;stroke:#000000;stroke-width:6.27142;stroke-linecap:round;stroke-linejoin:round;stroke-opacity:0.955017;paint-order:stroke markers fill"
         d="m 70.646193,878.70067 c -10.06926,-10.68051 -19.582628,-30.63132 -23.638745,-49.57363 -2.834373,-13.23669 -2.588517,-38.2158 0.518531,-52.68286 2.889854,-13.45577 7.356299,-26.36263 13.873324,-40.0903 6.238166,-13.14028 16.440615,-29.75288 18.837198,-30.67254 1.108784,-0.42548 2.621633,0.14125 3.966132,1.48575 3.455703,3.4557 3.025835,12.85592 -0.898331,19.64441 -15.957759,27.60559 -21.395568,40.13722 -24.916452,57.42084 -5.079325,24.93383 -0.616644,49.49355 12.287214,67.6209 2.517865,3.53709 5.847703,8.23201 7.399641,10.43314 4.693866,6.65737 4.833001,18.53361 0.245889,20.98856 -1.982039,1.06075 -2.849091,0.54395 -7.674401,-4.57427 z"
         id="path3857"
         transform="scale(0.26458333)" />
      <path
         style="fill:#ffffff;stroke:#000000;stroke-width:6.27142;stroke-linecap:round;stroke-linejoin:round;stroke-opacity:0.955017;paint-order:stroke markers fill"
         d="M 35.216658,887.00907 C 24.406607,874.69711 15.341508,855.56732 11.053696,836.01877 8.5034993,824.39217 8.4698075,799.1661 10.987358,786.34959 13.3535,774.30388 18.729651,757.96578 24.252792,746.036 c 5.583175,-12.05945 17.041366,-31.31288 19.379887,-32.56442 2.7649,-1.47973 4.911682,-0.1054 6.271506,4.01491 1.941497,5.8828 0.563806,11.37223 -5.354437,21.33484 -31.561751,53.13021 -32.341399,93.99581 -2.488624,130.44228 2.322514,2.83549 2.999591,4.90415 3.336399,10.19362 0.241809,3.79753 -0.09585,7.60483 -0.789358,8.90068 -1.8233,3.40687 -5.705499,2.84929 -9.391507,-1.34884 z"
         id="path3896"
         transform="scale(0.26458333)" />
      <path
         style="fill:#ffffff;stroke:#000000;stroke-width:6.27142;stroke-linecap:round;stroke-linejoin:round;stroke-opacity:0.955017;paint-order:stroke markers fill"
         d="m 312.41034,876.31974 c -2.20851,-2.20852 -3.14723,-7.33989 -2.33436,-12.76046 0.47334,-3.15647 2.34536,-6.84431 5.95985,-11.74077 7.6584,-10.37461 11.05983,-16.75931 14.67135,-27.53896 10.12245,-30.21351 3.90826,-65.5312 -18.17567,-103.29951 -5.45871,-9.33558 -6.5839,-12.11736 -6.97003,-17.23176 -0.5781,-7.65727 1.20142,-12.45565 4.61927,-12.45565 3.06338,0 9.21918,9.57421 18.40601,28.62714 8.04937,16.6939 13.40234,32.99994 16.18505,49.30232 3.02846,17.74212 2.35334,42.99633 -1.54683,57.86264 -4.75489,18.12419 -14.27746,37.50577 -22.86026,46.52816 -4.46302,4.69161 -5.58709,5.07413 -7.95438,2.70685 z"
         id="path3935"
         transform="scale(0.26458333)" />
      <path
         style="fill:#ffffff;stroke:#000000;stroke-width:6.27142;stroke-linecap:round;stroke-linejoin:round;stroke-opacity:0.955017;paint-order:stroke markers fill"
         d="m 272.81944,881.30728 c -1.86556,-1.18624 -3.51219,-6.19068 -3.51219,-10.67427 0,-4.40435 2.20759,-8.86905 10.2208,-20.6709 6.75957,-9.95549 11.33232,-20.7846 13.68263,-32.40297 2.598,-12.84275 1.70991,-34.06852 -2.00542,-47.93037 -3.15049,-11.75451 -10.18582,-28.69381 -16.68221,-40.16661 -9.16555,-16.18662 -9.45686,-16.92702 -9.45686,-24.03565 0,-5.27268 0.44958,-7.16161 2.09648,-8.80851 2.91798,-2.91798 4.63331,-1.87914 9.425,5.70796 14.46595,22.90522 25.63967,52.91147 28.85896,77.49877 1.89889,14.50271 0.7036,37.85927 -2.58932,50.59661 -4.9086,18.98698 -14.4084,38.46474 -23.42102,48.0209 -3.61573,3.83379 -4.49473,4.21439 -6.61685,2.86504 z"
         id="path3974"
         transform="scale(0.26458333)" />
      <path
         style="fill:#ffffff;stroke:#000000;stroke-width:8.92887;stroke-linecap:round;stroke-linejoin:round;stroke-opacity:0.955017;paint-order:stroke markers fill"
         d="m 159.63254,839.43508 c -9.58033,-3.18665 -24.0199,-18.23979 -27.63766,-28.81205 -8.31077,-24.28674 1.92457,-49.50715 24.62764,-60.68384 8.54308,-4.20574 11.77299,-4.98116 20.74844,-4.98116 8.97545,0 12.20536,0.77542 20.74844,4.98116 15.00878,7.3888 23.40288,18.64126 26.80466,35.93218 1.52024,7.72722 1.41894,10.6812 -0.64217,18.72651 -1.34593,5.25364 -3.795,11.73297 -5.44238,14.3985 -4.21642,6.82231 -15.71937,17.08127 -22.31307,19.90002 -7.20931,3.08191 -28.32118,3.39016 -36.8939,0.53868 z"
         id="path4013"
         transform="scale(0.26458333)" />
      <path
         style="fill:#ffffff;stroke:#000000;stroke-width:8.92887;stroke-linecap:round;stroke-linejoin:round;stroke-opacity:0.955017;paint-order:stroke markers fill"
         d="m 238.56045,874.12295 c -3.39147,-6.33701 -1.84156,-14.31367 4.50269,-23.17331 8.37542,-11.69614 14.54226,-25.30231 17.50621,-38.62471 5.67062,-25.48836 -1.68206,-58.50009 -20.09913,-90.24015 -7.67056,-13.21947 -9.99431,-24.60399 -6.08546,-29.81388 2.92582,-3.89967 4.54296,-2.53153 11.95901,10.11764 8.72078,14.87457 17.26905,35.06926 21.79609,51.49171 5.52661,20.04854 6.47594,47.7651 2.32193,67.79054 -3.51961,16.96714 -13.39606,38.8112 -22.13492,48.95646 -6.20477,7.20336 -7.52856,7.67718 -9.76642,3.4957 z"
         id="path4052"
         transform="scale(0.26458333)" />
      <path
         style="fill:#ffffff;stroke:#000000;stroke-width:8.92887;stroke-linecap:round;stroke-linejoin:round;stroke-opacity:0.955017;paint-order:stroke markers fill"
         d="m 141.89677,880.06187 v -7.5477 h 13.58586 13.58586 v 7.5477 7.5477 h -13.58586 -13.58586 z"
         id="path4091"
         transform="scale(0.26458333)" />
      <path
         style="fill:#ffffff;stroke:#000000;stroke-width:8.92887;stroke-linecap:round;stroke-linejoin:round;stroke-opacity:0.955017;paint-order:stroke markers fill"
         d="m 102.33088,1097.7006 c -2.833746,-1.7162 -3.891072,-3.4142 -3.439125,-5.5228 0.358917,-1.6745 7.826655,-60.1052 16.594965,-129.84599 8.76832,-69.74076 16.27423,-128.33595 16.6798,-130.21154 0.71837,-3.32216 0.84371,-3.34369 4.85644,-0.83426 2.26547,1.41675 4.31984,2.69926 4.56526,2.85003 0.24543,0.15077 -7.05697,59.10776 -16.22755,131.01553 -9.17058,71.90773 -16.67378,131.76783 -16.67378,133.02233 0,2.7939 -1.0961,2.7123 -6.35601,-0.4733 z"
         id="path4130"
         transform="scale(0.26458333)" />
      <path
         style="fill:#ffffff;stroke:#000000;stroke-width:8.92887;stroke-linecap:round;stroke-linejoin:round;stroke-opacity:0.955017;paint-order:stroke markers fill"
         d="m 184.16389,883.95969 v -6.66897 l 12.03965,-4.00957 c 6.6218,-2.20526 12.73544,-3.57954 13.58586,-3.05395 0.85042,0.52558 1.54621,3.49268 1.54621,6.59354 v 5.63793 l -12.54359,4.08499 c -6.89898,2.24674 -13.01261,4.08499 -13.58586,4.08499 -0.57325,0 -1.04227,-3.00103 -1.04227,-6.66896 z"
         id="path4169"
         transform="scale(0.26458333)" />
      <path
         style="fill:#ffffff;stroke:#000000;stroke-width:8.92887;stroke-linecap:round;stroke-linejoin:round;stroke-opacity:0.955017;paint-order:stroke markers fill"
         d="m 312.65874,875.11339 c -0.93141,-0.93143 -1.69348,-4.45188 -1.69348,-7.82325 0,-4.78212 1.53349,-8.41564 6.97519,-16.52732 13.35282,-19.90438 17.84219,-34.44985 17.74688,-57.4995 -0.0877,-21.19929 -4.17946,-35.69436 -17.96397,-63.63683 -8.52076,-17.27239 -11.28672,-24.4052 -11.28672,-29.10603 0,-7.7871 3.56511,-9.85303 7.73222,-4.48072 5.03015,6.48497 17.50791,31.98357 22.22905,45.42561 8.7096,24.79795 11.54696,52.82532 7.72932,76.34997 -2.34715,14.46341 -10.14029,34.25587 -18.27949,46.42499 -7.67369,11.47312 -10.36786,13.69421 -13.189,10.87308 z"
         id="path4208"
         transform="scale(0.26458333)" />
      <path
         style="fill:#ffffff;stroke:#000000;stroke-width:8.92887;stroke-linecap:round;stroke-linejoin:round;stroke-opacity:0.955017;paint-order:stroke markers fill"
         d="m 271.70295,877.76003 c -2.65122,-6.97323 -1.65033,-10.50778 7.03619,-24.84777 14.74245,-24.33727 18.96587,-42.55823 15.74006,-67.90685 -2.2762,-17.88663 -6.69749,-30.83749 -18.54873,-54.33311 -10.74032,-21.29317 -12.64512,-29.39897 -7.84475,-33.38292 3.10214,-2.57455 5.38701,0.33526 15.50209,19.74216 8.66267,16.62028 15.64291,35.69548 18.98763,51.88829 2.92337,14.15297 3.03254,43.5277 0.21121,56.83552 -4.37938,20.65696 -18.87754,50.20525 -26.68347,54.38287 -2.43204,1.30159 -3.14838,0.91442 -4.40023,-2.37819 z"
         id="path4247"
         transform="scale(0.26458333)" />
      <path
         style="fill:#ffffff;stroke:#000000;stroke-width:8.92887;stroke-linecap:round;stroke-linejoin:round;stroke-opacity:0.955017;paint-order:stroke markers fill"
         d="m 238.44459,871.59436 c -1.98065,-5.2095 0.0223,-12.13354 6.04002,-20.88003 24.18258,-35.14817 24.3557,-73.54949 0.54824,-121.60647 -10.41889,-21.03124 -13.83619,-34.33138 -9.50825,-37.00619 2.76576,-1.70934 6.41035,3.60744 16.57176,24.1751 16.08176,32.551 20.46954,51.68543 19.28634,84.10468 -0.6059,16.60145 -1.43966,22.13247 -4.84332,32.12991 -6.61521,19.4306 -20.41196,43.02189 -25.16023,43.02189 -0.79035,0 -2.1109,-1.7725 -2.93456,-3.93889 z"
         id="path4286"
         transform="scale(0.26458333)" />
      <path
         style="fill:#ffffff;stroke:#000000;stroke-width:8.92887;stroke-linecap:round;stroke-linejoin:round;stroke-opacity:0.955017;paint-order:stroke markers fill"
         d="m 70.172942,876.66541 c -7.387419,-8.55599 -16.559023,-26.99888 -20.617375,-41.45883 -2.586926,-9.21725 -3.299525,-15.82289 -3.303389,-30.62171 -0.0053,-20.19512 2.259753,-33.21672 8.800473,-50.59381 4.841057,-12.86151 17.88294,-38.04261 22.660416,-43.75245 3.686696,-4.40618 3.85053,-4.4494 6.059927,-1.59841 1.248935,1.61162 2.270791,4.41424 2.270791,6.22805 0,1.81381 -5.312905,13.75656 -11.806454,26.53946 -13.313117,26.20756 -16.917861,37.97613 -17.964209,58.64854 -1.136309,22.44976 2.919927,36.25954 16.56379,56.39275 7.189821,10.60945 9.303636,17.24282 7.23146,22.69306 -0.82366,2.16639 -2.140736,3.93889 -2.926837,3.93889 -0.786101,0 -3.921968,-2.88699 -6.968593,-6.41554 z"
         id="path4364"
         transform="scale(0.26458333)" />
      <path
         style="fill:#ffffff;stroke:#000000;stroke-width:8.92887;stroke-linecap:round;stroke-linejoin:round;stroke-opacity:0.955017;paint-order:stroke markers fill"
         d="m 107.46207,865.85529 c -7.35199,-7.97597 -15.28812,-23.21671 -20.147801,-38.69234 -3.096918,-9.86212 -3.522356,-14.15497 -3.434383,-34.6544 0.09014,-21.00517 0.522503,-24.78719 4.227966,-36.98374 4.743578,-15.6135 17.936128,-43.75312 24.998578,-53.32181 4.10759,-5.56523 5.16073,-6.24061 7.15297,-4.5872 4.29059,3.56087 1.65324,14.22812 -7.59942,30.73729 -4.65316,8.30247 -10.65381,20.86939 -13.334762,27.92649 -4.718679,12.42103 -4.876131,13.57887 -4.926712,36.22897 -0.04922,22.04013 0.180701,23.94091 3.962211,32.75615 2.207953,5.14705 7.472473,14.62571 11.698933,21.06368 5.72107,8.71463 7.68448,13.12237 7.68448,17.25122 0,9.2939 -3.16682,9.99481 -10.28206,2.27569 z"
         id="path4440"
         transform="scale(0.26458333)" />
      <path
         style="fill:#ffffff;stroke:#000000;stroke-width:8.92887;stroke-linecap:round;stroke-linejoin:round;stroke-opacity:0.955017;paint-order:stroke markers fill"
         d="m 240.83064,1097.0348 c -0.48054,-3.5157 -2.87999,-25.0726 -5.3321,-47.9044 -2.45212,-22.8318 -5.17524,-47.2864 -6.05139,-54.34348 -0.87616,-7.0571 -2.55756,-22.00155 -3.73647,-33.20988 -3.3649,-31.99156 -12.77182,-114.88562 -13.73597,-121.04184 -0.79733,-5.09098 -0.46586,-5.77158 3.9138,-8.0364 2.6317,-1.3609 4.93853,-2.25446 5.1263,-1.98567 0.68584,0.98176 29.90574,267.08357 29.36839,267.45407 -0.30487,0.2102 -2.38234,1.5246 -4.61658,2.9209 l -4.06226,2.5387 z"
         id="path4479"
         transform="scale(0.26458333)" />
      <path
         style="fill:#ffffff;stroke:#000000;stroke-width:8.92887;stroke-linecap:round;stroke-linejoin:round;stroke-opacity:0.955017;paint-order:stroke markers fill"
         d="m 185.02302,1072.2559 c -0.47252,-1.2314 -0.85913,-4.162 -0.85913,-6.5125 0,-4.1648 0.57418,-4.4655 22.53874,-11.804 24.29507,-8.1171 24.257,-8.119 24.257,1.221 0,4.1648 -0.57417,4.4655 -22.53874,11.804 -18.62132,6.2215 -22.68807,7.1412 -23.39787,5.2915 z"
         id="path4518"
         transform="scale(0.26458333)" />
      <path
         style="fill:#ffffff;stroke:#000000;stroke-width:8.92887;stroke-linecap:round;stroke-linejoin:round;stroke-opacity:0.955017;paint-order:stroke markers fill"
         d="m 119.25367,1060.4519 v -6.7929 h 24.15264 24.15264 v 6.7929 6.7929 h -24.15264 -24.15264 z"
         id="path4557"
         transform="scale(0.26458333)" />
      <path
         style="fill:#ffffff;stroke:#000000;stroke-width:8.92887;stroke-linecap:round;stroke-linejoin:round;stroke-opacity:0.955017;paint-order:stroke markers fill"
         d="m 184.91902,1018.9417 c -0.58018,-3.4341 -0.81761,-6.4191 -0.52761,-6.6335 0.28999,-0.2144 9.46202,-3.5075 20.38229,-7.3181 l 19.85504,-6.92844 0.63395,6.28774 c 0.3541,3.512 -0.0811,6.7769 -0.98579,7.3958 -0.89086,0.6095 -9.09196,3.5963 -18.22468,6.6374 -9.13272,3.0411 -17.38645,5.8158 -18.34163,6.166 -1.04089,0.3817 -2.15933,-1.8647 -2.79157,-5.6069 z"
         id="path4596"
         transform="scale(0.26458333)" />
      <path
         style="fill:#ffffff;stroke:#000000;stroke-width:8.92887;stroke-linecap:round;stroke-linejoin:round;stroke-opacity:0.955017;paint-order:stroke markers fill"
         d="m 125.29183,1011.3919 v -7.5477 h 21.88833 21.88833 v 7.5477 7.5477 h -21.88833 -21.88833 z"
         id="path4674"
         transform="scale(0.26458333)" />
      <path
         style="fill:#ffffff;stroke:#000000;stroke-width:8.92887;stroke-linecap:round;stroke-linejoin:round;stroke-opacity:0.955017;paint-order:stroke markers fill"
         d="m 131.32999,961.57704 v -7.5477 h 18.86925 18.86925 v 7.5477 7.5477 h -18.86925 -18.86925 z"
         id="path4713"
         transform="scale(0.26458333)" />
      <path
         style="fill:#ffffff;stroke:#000000;stroke-width:8.92887;stroke-linecap:round;stroke-linejoin:round;stroke-opacity:0.955017;paint-order:stroke markers fill"
         d="m 184.16389,967.19594 v -6.45742 l 16.89409,-5.58135 c 9.29174,-3.06974 17.16073,-5.3147 17.48663,-4.9888 0.3259,0.3259 0.94176,3.19613 1.36858,6.37829 l 0.77603,5.78574 -17.19862,5.66048 c -9.45923,3.11326 -17.67743,5.66048 -18.26266,5.66048 -0.58523,0 -1.06405,-2.90584 -1.06405,-6.45742 z"
         id="path4752"
         transform="scale(0.26458333)" />
      <path
         style="fill:#ffffff;stroke:#000000;stroke-width:8.92887;stroke-linecap:round;stroke-linejoin:round;stroke-opacity:0.955017;paint-order:stroke markers fill"
         d="m 184.79824,927.50138 c -0.53134,-2.83231 -0.63484,-6.00388 -0.23,-7.04794 0.40485,-1.04407 7.038,-3.806 14.74034,-6.13764 15.36408,-4.65099 16.94123,-4.25038 16.19415,4.11347 -0.3704,4.14678 -1.24631,4.68818 -15.06584,9.31226 l -14.67257,4.9095 z"
         id="path4791"
         transform="scale(0.26458333)" />
      <path
         style="fill:#ffffff;stroke:#000000;stroke-width:8.92887;stroke-linecap:round;stroke-linejoin:round;stroke-opacity:0.955017;paint-order:stroke markers fill"
         d="m 141.89677,880.06187 v -7.5477 h 13.58586 13.58586 v 7.5477 7.5477 h -13.58586 -13.58586 z"
         id="path4830"
         transform="scale(0.26458333)" />
      <path
         style="fill:#ffffff;stroke:#000000;stroke-width:8.92887;stroke-linecap:round;stroke-linejoin:round;stroke-opacity:0.955017;paint-order:stroke markers fill"
         d="m 137.36815,921.57422 v -6.79293 h 15.85017 15.85017 v 6.79293 6.79293 h -15.85017 -15.85017 z"
         id="path4869"
         transform="scale(0.26458333)" />
      <path
         style="fill:#ffffff;stroke:#000000;stroke-width:4.45069;stroke-linecap:round;stroke-linejoin:round;stroke-opacity:0.955017;paint-order:stroke markers fill"
         d="m 173.27278,980.06088 0.16601,-132.8067 3.12056,-2e-5 3.12056,-10e-6 0.0553,132.80671 0.0553,132.80674 h -3.34184 -3.34184 l 0.16602,-132.80672 z"
         id="path5064"
         transform="scale(0.26458333)" />
    </g>
    <g
       id="g6263">
      <path
         id="path2545"
         style="fill:none;stroke:#000000;stroke-width:0.808647;stroke-linecap:round;stroke-linejoin:round;stroke-opacity:0.955017;paint-order:stroke markers fill"
         d="m 86.137542,7.1936761 c 1.598646,2.546472 3.123074,5.3335519 4.489916,8.4484449 1.367646,3.092693 2.571568,6.652841 3.339507,10.705678 0,0 0,0 0,1e-6 0.578411,3.07258 0.827885,6.42673 0.635439,9.821098 -0.181539,2.921158 -0.686492,5.698885 -1.437382,8.18577 v 2e-6 c -1.350954,4.362089 -3.265502,7.835485 -5.347543,10.510806 l -0.653201,0.712802 c -1.293975,1.412054 -2.759778,1.051074 -3.286549,-0.809372 -0.526775,-1.860446 -0.02921,-4.36834 1.115597,-5.62308 l 0.577901,-0.633391 c 1.65706,-2.21799 3.117128,-4.797093 3.984108,-7.827923 v 0 c 0.503019,-1.692701 0.844977,-3.525066 0.948397,-5.349683 0.137992,-2.108744 -0.04609,-4.367374 -0.439288,-6.534542 v -1e-6 C 89.535365,25.858452 88.56092,23.066111 87.41336,20.398025 86.250327,17.718532 84.897465,15.262372 83.43814,12.942345 82.411785,11.310656 82.101025,8.7300391 82.804567,7.0735741 c 0.700544,-1.649408 2.192316,-1.696848 3.332975,0.120102 z m -10.70138,1.06719 c 1.598646,2.5464709 3.123073,5.3335519 4.489915,8.4484449 1.367646,3.092693 2.571568,6.65284 3.339507,10.705677 0,0 0,10e-7 0,2e-6 0.578411,3.07258 0.827885,6.426729 0.63544,9.821098 -0.181539,2.921157 -0.686493,5.698884 -1.437383,8.18577 v 10e-7 c -1.350954,4.36209 -3.265501,7.835485 -5.347542,10.510807 l -0.653201,0.712802 c -1.293976,1.412054 -2.759779,1.051074 -3.28655,-0.809372 -0.526775,-1.860446 -0.02921,-4.36834 1.115598,-5.62308 l 0.5779,-0.633391 c 1.657061,-2.217991 3.117129,-4.797093 3.984109,-7.827924 v 0 c 0.503019,-1.6927 0.844976,-3.525066 0.948397,-5.349682 0.137991,-2.108744 -0.0461,-4.367374 -0.439289,-6.534542 v -2e-6 c -0.529078,-2.941833 -1.503523,-5.734174 -2.651083,-8.40226 -1.163033,-2.679493 -2.515895,-5.135653 -3.975221,-7.45568 -1.026355,-1.631689 -1.337115,-4.2123059 -0.633573,-5.8687709 0.700545,-1.649408 2.192316,-1.696848 3.332976,0.120102 z M 12.548006,12.894978 c -1.59864,2.431287 -3.1230585,5.092299 -4.4898939,8.066295 -1.367638,2.9528 -2.571553,6.35191 -3.339488,10.221425 0,0 0,0 0,1e-6 -0.578407,2.933597 -0.82788,6.136027 -0.635435,9.376858 0.181537,2.789023 0.686489,5.441105 1.437374,7.8155 v 2e-6 c 1.350946,4.164777 3.2654832,7.48106 5.3475119,10.035368 l 0.653201,0.68056 c 1.293968,1.348182 2.759762,1.00353 3.286531,-0.772762 0.526772,-1.776292 0.02921,-4.170746 -1.115592,-5.368729 L 13.114318,52.344755 C 11.457267,50.227091 9.9972046,47.76465 9.130229,44.870914 v 0 C 8.6272131,43.254779 8.2852571,41.505298 8.1818381,39.763215 c -0.137992,-2.013358 0.04609,-4.169823 0.439286,-6.238963 v -10e-7 c 0.5290753,-2.808765 1.5035149,-5.4748 2.6510709,-8.022199 1.163027,-2.558291 2.515881,-4.903351 3.975199,-7.118435 1.026349,-1.557883 1.337107,-4.02177 0.63357,-5.603307 -0.700542,-1.5748 -2.192305,-1.620094 -3.332958,0.114668 z m 9.501225,-1.920941 c -1.598641,2.431287 -3.123059,5.092299 -4.489894,8.066295 -1.367638,2.9528 -2.571553,6.35191 -3.339488,10.221425 0,0 0,0 0,1e-6 -0.578407,2.933597 -0.82788,6.136027 -0.635436,9.376858 0.181538,2.789023 0.686489,5.441105 1.437375,7.8155 v 2e-6 c 1.350946,4.164777 3.265483,7.48106 5.347511,10.035368 l 0.653201,0.68056 c 1.293969,1.348182 2.759763,1.00353 3.286532,-0.772762 0.526771,-1.776292 0.02921,-4.170746 -1.115592,-5.368729 L 22.615543,50.423814 C 20.958491,48.30615 19.498429,45.843709 18.631454,42.949973 v 0 c -0.503016,-1.616135 -0.844972,-3.365616 -0.948391,-5.107699 -0.137992,-2.013358 0.0461,-4.169823 0.439286,-6.238963 v -2e-6 c 0.529075,-2.808764 1.503514,-5.474799 2.651071,-8.022198 1.163027,-2.558291 2.515881,-4.903351 3.975198,-7.118436 1.02635,-1.557882 1.337108,-4.02177 0.63357,-5.603307 -0.700541,-1.5747989 -2.192305,-1.6200939 -3.332957,0.114669 z m 9.801263,-2.7746919 c -1.598641,2.4312859 -3.123059,5.0922979 -4.489894,8.0662939 -1.367638,2.952801 -2.571553,6.351911 -3.339488,10.221425 0,0 0,0 0,1e-6 -0.578407,2.933598 -0.82788,6.136028 -0.635435,9.376858 0.181537,2.789024 0.686489,5.441105 1.437374,7.815501 v 1e-6 c 1.350946,4.164778 3.265483,7.481061 5.347512,10.035368 l 0.653201,0.680561 c 1.293968,1.348182 2.759762,1.00353 3.286531,-0.772762 0.526771,-1.776293 0.02921,-4.170746 -1.115592,-5.36873 L 32.416806,47.649121 C 30.759755,45.531458 29.299692,43.069016 28.432717,40.17528 v 0 c -0.503016,-1.616134 -0.844972,-3.365615 -0.948391,-5.107698 -0.137992,-2.013359 0.0461,-4.169824 0.439286,-6.238963 v -2e-6 c 0.529075,-2.808765 1.503514,-5.474799 2.651071,-8.022199 1.163027,-2.55829 2.515881,-4.90335 3.975199,-7.118435 1.026349,-1.557882 1.337107,-4.0217699 0.633569,-5.6033069 -0.700541,-1.5748 -2.192305,-1.620094 -3.332957,0.114669 z m 34.884547,-1.219106 c 1.598646,2.546471 3.123073,5.3335519 4.489915,8.4484449 1.367646,3.092692 2.571568,6.65284 3.339507,10.705677 0,0 0,1e-6 0,2e-6 0.578411,3.072579 0.827885,6.426729 0.635439,9.821098 -0.181538,2.921157 -0.686492,5.698884 -1.437382,8.185769 v 2e-6 c -1.350954,4.362089 -3.265501,7.835485 -5.347543,10.510806 l -0.6532,0.712803 c -1.293976,1.412053 -2.759779,1.051073 -3.28655,-0.809372 -0.526775,-1.860447 -0.02921,-4.368341 1.115597,-5.623081 l 0.577901,-0.633391 c 1.657061,-2.21799 3.117129,-4.797093 3.984109,-7.827923 v 0 c 0.503019,-1.692701 0.844976,-3.525066 0.948396,-5.349682 0.137992,-2.108744 -0.04609,-4.367374 -0.439288,-6.534542 v -2e-6 c -0.529079,-2.941833 -1.503524,-5.734175 -2.651084,-8.402261 -1.163032,-2.679493 -2.515895,-5.135652 -3.97522,-7.455679 -1.026355,-1.63169 -1.337115,-4.2123059 -0.633573,-5.8687709 0.700545,-1.649408 2.192316,-1.696848 3.332976,0.120102 z m -16.459836,96.9937909 13.545922,-4.497837 0.468117,4.779037 -13.545927,4.49782 z m 0.08075,-13.066807 12.110376,-4.06306 0.463786,4.78406 -12.110372,4.06306 z m -0.226926,-13.47818 10.843896,-3.605575 0.46849,4.790786 -10.843896,3.605575 z m 0.04545,-22.136676 8.27368,-2.732657 0.482005,4.893083 -8.273676,2.73268 z m 0.129861,11.11909 9.402755,-3.125407 0.470021,4.802441 -9.402756,3.125405 z m -16.9165,35.197513 h 14.010571 l 10e-7,4.90907 H 33.387833 Z m 1.467684,-12.806267 h 12.6429 l -10e-7,4.90907 h -12.6429 z m 1.439943,-13.233151 h 11.202957 v 4.909077 H 36.295461 Z m 2.764,-21.600171 h 8.459087 v 4.994977 l -8.459087,-2e-6 z m -1.149733,10.928287 9.688706,-4e-6 v 4.909068 h -9.688712 z m 9.6887,-18.142225 h 2.700347 v 71.715117 h -2.700347 z m 13.655242,-4.620904 -3.696918,1.880604 8.093258,72.459757 3.696918,-1.88061 z m -24.41413,-0.261631 3.667488,2.126896 -9.153186,71.882976 -3.667488,-2.1269 z M 62.643863,33.629014 A 13.646136,13.445226 89.999995 0 1 49.198638,47.275149 13.646136,13.445226 89.999995 0 1 35.753411,33.629013 13.646136,13.445226 89.999995 0 1 49.198638,19.982877 13.646136,13.445226 89.999995 0 1 62.643863,33.629014 Z" />
      <path
         style="fill:#0000d4;stroke:#000000;stroke-width:10.225;stroke-linecap:round;stroke-linejoin:round;stroke-opacity:0.955017;paint-order:stroke markers fill"
         d="m 319.66472,206.21099 c -2.45704,-6.46248 -0.82272,-11.55356 7.94035,-24.73511 11.00085,-16.54764 16.39964,-34.04492 16.39964,-53.15064 0,-21.48752 -4.69228,-38.372021 -18.13586,-65.259286 -11.53648,-23.073052 -13.86365,-32.816044 -8.83512,-36.989348 3.19964,-2.65547 6.99798,2.212295 17.10806,21.924879 14.7341,28.728447 20.75789,52.630495 20.57708,81.648535 -0.17733,28.45729 -10.02274,58.39467 -24.7025,75.11399 -6.46621,7.36461 -8.01924,7.5817 -10.35165,1.44698 z"
         id="path5267"
         transform="scale(0.26458333)" />
      <path
         style="fill:#0000d4;stroke:#000000;stroke-width:10.225;stroke-linecap:round;stroke-linejoin:round;stroke-opacity:0.955017;paint-order:stroke markers fill"
         d="m 279.00927,209.96943 c -1.69556,-6.75565 0.50038,-14.32216 6.27109,-21.60829 8.16853,-10.31361 15.47675,-28.21972 17.67595,-43.30844 3.64276,-24.99295 -2.24695,-49.455792 -20.17227,-83.785259 -9.91771,-18.993781 -10.95605,-22.761083 -7.86519,-28.536416 3.10855,-5.80837 6.02303,-3.718136 13.82227,9.913185 30.5725,53.433823 34.17491,112.3244 9.39344,153.55948 -10.78306,17.94244 -16.96096,22.38909 -19.12529,13.76574 z"
         id="path5306"
         transform="scale(0.26458333)" />
      <path
         style="fill:#0000d4;stroke:#000000;stroke-width:10.225;stroke-linecap:round;stroke-linejoin:round;stroke-opacity:0.955017;paint-order:stroke markers fill"
         d="m 246.1646,204.78343 c -1.70668,-6.79997 0.38861,-13.75366 6.5938,-21.88289 8.07506,-10.5789 14.73744,-26.37524 17.21299,-40.81157 4.1612,-24.26626 -3.54963,-56.794375 -20.39974,-86.05614 -8.82796,-15.330575 -10.89553,-23.982442 -6.98175,-29.215545 2.48805,-3.326767 2.67744,-3.335829 6.04391,-0.289215 4.94733,4.477277 21.86346,39.509876 26.00483,53.85494 10.85719,37.60758 8.89264,75.42234 -5.38844,103.72001 -11.1733,22.13968 -20.59991,30.58418 -23.0856,20.68041 z"
         id="path5384"
         transform="scale(0.26458333)" />
      <path
         style="fill:#0000d4;stroke:#000000;stroke-width:10.225;stroke-linecap:round;stroke-linejoin:round;stroke-opacity:0.955017;paint-order:stroke markers fill"
         d="M 113.40966,197.60856 C 82.395866,155.02554 83.374556,98.472961 116.08155,43.216672 c 9.27293,-15.666004 14.10755,-17.468181 14.96628,-5.578908 0.43254,5.988578 -0.64413,9.324644 -5.69037,17.631647 -17.48625,28.785484 -24.10036,50.734969 -22.93424,76.109269 0.86308,18.78029 4.97663,31.47959 14.41264,44.49452 8.87804,12.24535 11.55003,18.93642 9.73616,24.38088 -2.44372,7.33504 -6.48495,6.52279 -13.16236,-2.64552 z"
         id="path5423"
         transform="scale(0.26458333)" />
      <path
         style="fill:#0000d4;stroke:#000000;stroke-width:10.225;stroke-linecap:round;stroke-linejoin:round;stroke-opacity:0.955017;paint-order:stroke markers fill"
         d="M 77.729784,209.70033 C 69.601951,200.44324 59.259661,177.58589 55.979511,161.63035 49.997456,132.53203 56.010946,98.156946 72.801806,65.468594 85.848771,40.068835 91.862812,34.104273 94.366811,44.081005 95.949741,50.387898 94.09526,55.915977 85.447798,70.667973 68.776401,99.108265 61.671074,127.49733 65.468785,150.49334 c 2.44009,14.7753 7.496501,27.23182 15.094763,37.18608 7.404385,9.70028 9.32713,13.54308 9.32713,18.64124 0,11.35485 -4.146735,12.50729 -12.160894,3.37967 z"
         id="path5462"
         transform="scale(0.26458333)" />
      <path
         style="fill:#0000d4;stroke:#000000;stroke-width:10.225;stroke-linecap:round;stroke-linejoin:round;stroke-opacity:0.955017;paint-order:stroke markers fill"
         d="M 44.490191,219.94124 C 36.977847,212.05572 27.768656,195.21115 23.387326,181.3419 14.837051,154.27571 16.27399,124.46901 27.641861,93.089289 33.463824,77.018417 48.003307,50.428854 52.502047,47.625396 c 6.562994,-4.08983 8.528191,9.902175 2.783686,19.819583 -9.290732,16.03967 -20.963581,41.747891 -23.534857,51.833031 -6.255271,24.53465 -2.212387,53.16988 10.107282,71.58859 3.1241,4.67073 7.037411,10.50498 8.696247,12.965 3.569507,5.2935 3.993495,16.21834 0.7344,18.92315 -1.756459,1.45773 -3.362824,0.79296 -6.798614,-2.81351 z"
         id="path5540"
         transform="scale(0.26458333)" />
      <path
         style="fill:#535d6c;stroke:#000000;stroke-width:10.225;stroke-linecap:round;stroke-linejoin:round;stroke-opacity:0.955017;paint-order:stroke markers fill"
         d="m 180.54369,174.57384 c -18.1793,-1.5152 -31.36127,-11.29819 -39.24829,-29.12813 -4.96075,-11.21458 -3.65843,-31.30184 2.7369,-42.21464 8.66227,-14.78104 26.12828,-25.441061 41.68414,-25.441061 17.64101,0 36.99051,13.020264 44.17758,29.727061 7.40354,17.20999 3.89539,39.27487 -8.28517,52.11041 -11.94381,12.58605 -22.64658,16.4815 -41.06516,14.94636 z"
         id="path5616"
         transform="scale(0.26458333)" />
      <path
         style="fill:#535d6c;stroke:#000000;stroke-width:5.87112;stroke-linecap:round;stroke-linejoin:round;stroke-opacity:0.955017;paint-order:stroke markers fill"
         d="m 249.68954,435.52533 c -0.22072,-0.69737 -1.56191,-12.43457 -2.98044,-26.08266 -1.41852,-13.64809 -3.22887,-30.17468 -4.023,-36.72577 -0.79413,-6.55108 -2.12764,-19.05769 -2.96335,-27.79247 -0.83572,-8.73478 -1.74835,-16.99807 -2.02809,-18.36288 -0.27973,-1.36481 -1.55247,-12.08477 -2.82831,-23.82212 -1.27584,-11.73736 -5.15068,-46.44506 -8.61076,-77.12822 -6.24654,-55.3928 -6.27741,-55.80266 -4.36134,-57.91989 1.88528,-2.08321 7.32676,-5.37051 7.8327,-4.73188 0.14002,0.17673 6.81958,59.50441 14.84348,131.83928 8.02389,72.33487 14.82158,132.72332 15.10596,134.19656 0.46432,2.40534 0.002,2.93975 -4.53425,5.2383 -3.70177,1.87584 -5.15852,2.22094 -5.4526,1.29175 z"
         id="path5655"
         transform="scale(0.26458333)" />
      <path
         style="fill:#535d6c;stroke:#000000;stroke-width:5.87112;stroke-linecap:round;stroke-linejoin:round;stroke-opacity:0.955017;paint-order:stroke markers fill"
         d="m 192.99991,223.04152 c -0.29976,-0.78118 -0.40923,-4.01282 -0.24326,-7.18144 l 0.30177,-5.76111 12.83437,-4.28834 c 7.05891,-2.35858 12.96015,-4.16255 13.11389,-4.00882 0.15373,0.15374 0.40824,3.33641 0.56557,7.07261 l 0.28606,6.7931 -11.41477,3.84388 c -6.27812,2.11413 -12.19863,4.09285 -13.15668,4.39716 -1.01276,0.32167 -1.97007,-0.0413 -2.28695,-0.86704 z"
         id="path5694"
         transform="scale(0.26458333)" />
      <path
         style="fill:#535d6c;stroke:#000000;stroke-width:5.87112;stroke-linecap:round;stroke-linejoin:round;stroke-opacity:0.955017;paint-order:stroke markers fill"
         d="m 193.19334,261.40848 c -1.3084,-9.5458 -2.33227,-8.55934 14.8162,-14.27476 8.49607,-2.83165 15.58163,-4.99038 15.74569,-4.79717 0.16406,0.19321 0.59105,3.32642 0.94887,6.96269 l 0.65058,6.6114 -15.15651,5.05151 c -8.33608,2.77833 -15.43036,5.05151 -15.76506,5.05151 -0.33471,0 -0.89261,-2.07233 -1.23977,-4.60518 z"
         id="path5733"
         transform="scale(0.26458333)" />
      <path
         style="fill:#535d6c;stroke:#000000;stroke-width:5.87112;stroke-linecap:round;stroke-linejoin:round;stroke-opacity:0.955017;paint-order:stroke markers fill"
         d="M 181.64366,313.16161 V 180.65107 h 2.97776 2.97777 v 132.51054 132.51053 h -2.97777 -2.97776 z"
         id="path5772"
         transform="scale(0.26458333)" />
      <path
         style="fill:#535d6c;stroke:#000000;stroke-width:5.87112;stroke-linecap:round;stroke-linejoin:round;stroke-opacity:0.955017;paint-order:stroke markers fill"
         d="m 149.88083,213.90278 v -7.44442 h 13.89624 13.89623 v 7.44442 7.44441 h -13.89623 -13.89624 z"
         id="path5811"
         transform="scale(0.26458333)" />
      <path
         style="fill:#535d6c;stroke:#000000;stroke-width:5.87112;stroke-linecap:round;stroke-linejoin:round;stroke-opacity:0.955017;paint-order:stroke markers fill"
         d="m 111.91433,431.73454 c -2.59314,-1.61702 -4.71479,-3.58286 -4.71479,-4.36854 0,-1.67335 32.4705,-257.55788 33.29675,-262.39583 l 0.55907,-3.27355 3.6683,2.18587 c 2.01756,1.20222 4.21008,2.67532 4.87227,3.27354 0.93732,0.8468 -0.45466,13.83776 -6.28522,58.65781 -4.11906,31.66356 -7.87072,61.14343 -8.33703,65.51082 -1.01897,9.54357 -17.79847,141.63851 -18.11963,142.64503 -0.12371,0.3877 -2.34658,-0.61812 -4.93972,-2.23515 z"
         id="path5850"
         transform="scale(0.26458333)" />
      <path
         style="fill:#535d6c;stroke:#000000;stroke-width:5.87112;stroke-linecap:round;stroke-linejoin:round;stroke-opacity:0.955017;paint-order:stroke markers fill"
         d="m 192.56213,300.84016 v -6.8622 l 17.81955,-5.94953 17.81956,-5.94953 0.58489,4.62288 c 0.32169,2.54259 0.72462,5.61239 0.8954,6.8218 0.28565,2.02285 -1.1284,2.67851 -17.66069,8.18885 -9.88416,3.29447 -18.30589,5.98994 -18.71496,5.98994 -0.40906,0 -0.74375,-3.08799 -0.74375,-6.86221 z"
         id="path5889"
         transform="scale(0.26458333)" />
      <path
         style="fill:#535d6c;stroke:#000000;stroke-width:5.87112;stroke-linecap:round;stroke-linejoin:round;stroke-opacity:0.955017;paint-order:stroke markers fill"
         d="m 144.91789,254.5989 v -7.44442 h 16.37771 16.3777 v 7.44442 7.44441 h -16.3777 -16.37771 z"
         id="path5928"
         transform="scale(0.26458333)" />
      <path
         style="fill:#535d6c;stroke:#000000;stroke-width:5.87112;stroke-linecap:round;stroke-linejoin:round;stroke-opacity:0.955017;paint-order:stroke markers fill"
         d="m 138.96236,296.36879 c 0,-9.06087 -1.2715,-8.51819 19.95796,-8.51819 h 18.75298 v 6.94812 6.94812 h -19.35547 -19.35547 z"
         id="path5967"
         transform="scale(0.26458333)" />
      <path
         style="fill:#535d6c;stroke:#000000;stroke-width:5.87112;stroke-linecap:round;stroke-linejoin:round;stroke-opacity:0.955017;paint-order:stroke markers fill"
         d="m 193.15505,351.74756 c -0.3706,-3.61724 -0.54395,-6.6828 -0.38522,-6.81236 0.8012,-0.65394 40.66094,-13.56688 40.949,-13.26581 0.18491,0.19327 0.64226,3.25471 1.01632,6.80322 l 0.68011,6.45182 -20.21181,6.69997 c -11.11649,3.68499 -20.47343,6.69997 -20.7932,6.69997 -0.31976,0 -0.88461,-2.95956 -1.2552,-6.57681 z"
         id="path6006"
         transform="scale(0.26458333)" />
      <path
         style="fill:#535d6c;stroke:#000000;stroke-width:5.87112;stroke-linecap:round;stroke-linejoin:round;stroke-opacity:0.955017;paint-order:stroke markers fill"
         d="m 133.99942,344.92443 v -7.44441 h 21.83694 21.83694 v 7.44441 7.44441 h -21.83694 -21.83694 z"
         id="path6045"
         transform="scale(0.26458333)" />
      <path
         style="fill:#535d6c;stroke:#000000;stroke-width:5.87112;stroke-linecap:round;stroke-linejoin:round;stroke-opacity:0.955017;paint-order:stroke markers fill"
         d="m 128.04389,393.56126 v -7.44442 h 24.31841 24.31842 v 7.44442 7.44441 H 152.3623 128.04389 Z"
         id="path6084"
         transform="scale(0.26458333)" />
      <path
         style="fill:#535d6c;stroke:#000000;stroke-width:5.87112;stroke-linecap:round;stroke-linejoin:round;stroke-opacity:0.955017;paint-order:stroke markers fill"
         d="m 193.19922,404.23158 c -0.33838,-2.04721 -0.62016,-5.15156 -0.62617,-6.89854 l -0.0109,-3.17634 22.94875,-7.54019 c 12.62181,-4.14711 23.13968,-7.34928 23.37304,-7.11592 0.23335,0.23336 0.74107,3.26914 1.12826,6.74618 l 0.70399,6.3219 -23.33258,7.67071 c -12.83292,4.2189 -23.3858,7.68055 -23.45085,7.69256 -0.065,0.012 -0.39514,-1.65315 -0.73352,-3.70036 z"
         id="path6123"
         transform="scale(0.26458333)" />
    </g>
  </g>
</svg>
