<?xml version="1.0" encoding="UTF-8" standalone="no"?>
<!-- Created with Inkscape (http://www.inkscape.org/) -->

<svg
   width="210mm"
   height="297mm"
   viewBox="0 0 210 297"
   version="1.1"
   id="svg5"
   inkscape:version="1.1.1 (3bf5ae0d25, 2021-09-20)"
   sodipodi:docname="keyboard input icon.svg"
   xmlns:inkscape="http://www.inkscape.org/namespaces/inkscape"
   xmlns:sodipodi="http://sodipodi.sourceforge.net/DTD/sodipodi-0.dtd"
   xmlns="http://www.w3.org/2000/svg"
   xmlns:svg="http://www.w3.org/2000/svg">
  <sodipodi:namedview
     id="namedview7"
     pagecolor="#ffffff"
     bordercolor="#666666"
     borderopacity="1.0"
     inkscape:pageshadow="2"
     inkscape:pageopacity="0.0"
     inkscape:pagecheckerboard="0"
     inkscape:document-units="mm"
     showgrid="false"
     inkscape:zoom="0.75575672"
     inkscape:cx="400.92267"
     inkscape:cy="340.71811"
     inkscape:window-width="1680"
     inkscape:window-height="956"
     inkscape:window-x="-11"
     inkscape:window-y="-11"
     inkscape:window-maximized="1"
     inkscape:current-layer="layer1" />
  <defs
     id="defs2">
    <inkscape:path-effect
       effect="spiro"
       id="path-effect1123"
       is_visible="true"
       lpeversion="1" />
    <inkscape:path-effect
       effect="spiro"
       id="path-effect1117"
       is_visible="true"
       lpeversion="1" />
    <inkscape:path-effect
       effect="spiro"
       id="path-effect1031"
       is_visible="true"
       lpeversion="1" />
    <inkscape:path-effect
       effect="spiro"
       id="path-effect994"
       is_visible="true"
       lpeversion="1" />
    <inkscape:path-effect
       effect="spiro"
       id="path-effect988"
       is_visible="true"
       lpeversion="1" />
    <inkscape:path-effect
       effect="spiro"
       id="path-effect982"
       is_visible="true"
       lpeversion="1" />
    <inkscape:path-effect
       effect="spiro"
       id="path-effect976"
       is_visible="true"
       lpeversion="1" />
    <inkscape:path-effect
       effect="spiro"
       id="path-effect871"
       is_visible="true"
       lpeversion="1" />
    <inkscape:path-effect
       effect="spiro"
       id="path-effect867"
       is_visible="true"
       lpeversion="1" />
    <inkscape:path-effect
       effect="spiro"
       id="path-effect863"
       is_visible="true"
       lpeversion="1" />
    <inkscape:path-effect
       effect="spiro"
       id="path-effect859"
       is_visible="true"
       lpeversion="1" />
    <clipPath
       clipPathUnits="userSpaceOnUse"
       id="clipPath2539">
      <path
         id="path2541"
         style="fill:none;stroke:#000000;stroke-width:0.865;stroke-linecap:round;stroke-linejoin:round;stroke-miterlimit:4;stroke-dasharray:none;stroke-opacity:0.955017;paint-order:stroke markers fill"
         d="M 67.551149,33.558331 V 150.84461 h 48.027311 v -38.17393 c -0.0609,0.006 -0.12472,0.009 -0.19165,0.009 h -0.96517 c -0.29954,0 -0.54018,-0.0609 -0.71999,-0.15756 -0.24979,-0.0139 -0.45421,-0.0694 -0.61123,-0.15558 h -1.89409 c -2.10676,0 -2.10676,-2.1282 0,-2.1282 h 0.0759 c 0.033,-0.15391 0.10689,-0.36047 0.22446,-0.63826 -0.40234,-0.95073 -0.29417,-1.07203 0.21065,-1.07407 0.0891,-2.6e-4 0.19256,0.003 0.3056,0.006 0.0771,-0.006 0.41734,-1e-4 0.68892,0.002 -0.25901,-0.0335 -0.50659,-0.0839 -0.72863,-0.17054 -1.31251,-0.51219 -1.20317,-1.07812 -1.20172,-1.73028 4.3e-4,-0.18329 6.2e-4,-0.36722 0.002,-0.5505 4.1e-4,-0.0905 -0.15016,-0.26061 -0.007,-0.27625 -0.004,-0.0745 -0.006,-0.13859 -0.007,-0.16954 -0.003,-0.15583 6.9e-4,-0.31186 0,-0.46772 -0.36667,-0.15647 -0.45205,-0.41212 0.002,-0.85068 0.006,-0.40477 0.0174,-0.80912 0.0346,-1.21369 0.009,-0.0394 0.015,-0.0792 0.0225,-0.11868 -0.0396,0.004 0.0179,-0.25658 0.005,-0.35403 -0.0826,-0.64193 -0.43809,-1.2586 -0.27454,-1.91279 0.43199,-0.47403 0.49887,-1.147309 1.29496,-1.422123 0.23262,-0.0803 0.48669,-0.143981 0.7528,-0.192474 v -3.210249 -2.067365 c -0.0746,-0.05596 -0.14695,-0.117767 -0.22446,-0.190483 -0.60063,-0.335806 -0.66799,-0.103306 -1.90963,-1.058113 -0.49611,-0.381531 -0.91272,-1.414874 -1.12402,-1.855943 v -0.001 c -0.80586,-1.682111 -0.43994,-2.451623 0.78216,-2.459298 0.62603,-0.0041 1.48119,0.195308 2.51394,0.571442 0.18188,-1.659966 1.09634,-2.510318 2.03049,-2.543068 -0.0314,-0.257694 -0.0669,-0.516062 -0.0967,-0.773888 -0.0441,-0.672951 -0.11301,-1.344344 -0.13122,-2.0185 -0.066,-2.43964 0.17227,-0.791805 -0.0656,-3.129466 -0.64073,-6.29181 0.13737,2.188098 -0.63539,-4.327205 -0.0523,-0.43753 -0.0355,-0.880161 -0.0536,-1.320402 -0.31825,-1.312058 -0.26849,-1.887396 -1.181,-2.898099 -0.28956,-0.320698 -1.00636,-0.497889 -0.91338,-0.919493 -0.59845,-0.142322 -0.93917,-0.261227 -1.75078,-0.883592 -0.55958,-0.42914 -1.04967,-1.629841 -1.3433,-2.197014 -1.2578,-2.429621 -0.47654,-0.687947 -1.59193,-3.458568 -0.85904,-2.133821 -0.11478,-3.298625 1.05496,-3.305988 0.9692,-0.0061 2.22901,0.78194 3.10962,2.472257 0.55757,1.070275 1.05111,2.195349 1.63682,3.254131 0.0508,0.0143 0.14073,0.04657 0.18475,0.05784 -0.0921,-0.02068 -0.12863,-0.02951 -0.17439,-0.03988 -0.003,-0.0053 -0.007,-0.01067 -0.0103,-0.01593 -0.0302,-0.0085 -0.0502,-0.01328 -0.0276,0.002 0.005,0.0036 0.0102,0.0066 0.0156,0.01 0.005,0.001 0.0149,0.0036 0.0207,0.0051 0.003,0.0051 0.004,0.01011 0.009,0.01496 0.38661,0.255314 0.78891,0.487064 1.18619,0.726019 -0.008,-0.03886 -0.019,-0.07588 -0.0259,-0.115684 -0.0484,-0.281656 -8.8e-4,-0.57086 -0.005,-0.856662 -0.006,-0.450612 -0.0396,-2.226461 -0.0466,-2.57997 -0.015,-1.619118 0.006,-3.228427 0.0967,-4.845791 0.0545,-0.976823 0.13986,-1.816758 0.15367,-2.765461 -0.65103,-1.079494 -0.99791,-2.535123 -1.21035,-3.354855 -0.31163,-1.202489 -0.16548,-2.140491 0.221,-2.761472 -0.15518,-1.378217 -0.0353,-2.772974 -0.0708,-4.162653 h -0.002 c -0.0384,-1.504307 0.45551,-2.466254 1.11885,-2.893114 -0.006,-0.02975 -0.008,-0.05903 -0.0138,-0.08876 -0.23088,-1.155753 -0.0747,-2.050456 0.29007,-2.650774 -0.0869,-0.01971 -0.19034,-0.02841 -0.29697,-0.03391 h -0.58012 -1.59539 c -2.04597,0 -2.09883,-2.001408 -0.17093,-2.117229 0.0987,-0.386173 0.48767,-0.732335 1.16028,-0.830736 -0.9292,-0.428626 -0.86716,-1.498809 0.1882,-1.839984 0.26246,-0.191598 0.64923,-0.320127 1.16374,-0.320127 h 1.29495 v -1.767183 z m 45.266471,33.427876 c 0.0289,0.05065 0.0568,0.102316 0.0864,0.152585 0.0491,0.08392 0.28101,0.266002 0.22101,0.189482 -0.11536,-0.147193 -0.22119,-0.259435 -0.30733,-0.342067 z m 0.3695,38.649643 c -0.009,0.0104 -0.0183,0.0205 -0.0276,0.0309 0.0149,-0.007 0.0296,-0.0148 0.0449,-0.022 -0.006,-0.003 -0.0114,-0.006 -0.0172,-0.009 z m -1.50043,0.005 c -0.28571,0.0236 -0.58441,0.0472 -0.90992,0.0688 0.33003,0.002 0.63275,-5e-4 0.92374,-0.004 -0.004,-0.0212 -0.01,-0.0428 -0.0138,-0.0648 z" />
    </clipPath>
    <clipPath
       clipPathUnits="userSpaceOnUse"
       id="clipPath2549">
      <path
         id="path2551"
         style="fill:none;stroke:#000000;stroke-width:0.865;stroke-linecap:round;stroke-linejoin:round;stroke-miterlimit:4;stroke-dasharray:none;stroke-opacity:0.955017;paint-order:stroke markers fill"
         d="m 103.24186,33.98417 v 79.89421 h 27.63262 V 33.98417 Z m 11.03993,1.343338 h 3.64486 2.56574 c 0.57331,0.710645 0.89463,0.996934 0.96345,1.268542 0.21526,8e-6 0.43061,0.0013 0.64575,0.008 0.53547,0.01646 1.06953,0.07239 1.60401,0.108704 0.18758,0.0259 0.3447,0.04546 0.48692,0.06283 0.0327,-0.205764 0.0595,-0.344388 0.0708,-0.34506 h 0.002 c 0.01,-5.1e-4 0.006,0.107857 -0.0138,0.352041 1.20921,0.148304 0.74238,0.125975 -0.007,2.215959 -0.0558,0.155908 -0.10085,0.258608 -0.13813,0.321125 0.99257,0.829592 0.76066,0.406911 -0.54388,1.879875 -0.0151,-0.0021 -0.0314,-0.0049 -0.0466,-0.007 0.0282,0.259887 -0.0329,0.314013 -0.29525,-0.04687 0.0985,0.0172 0.19633,0.03308 0.29525,0.04687 -0.036,-0.331804 -0.21666,-0.992826 -0.31252,-1.544789 -0.7955,0.676721 -0.74882,0.385604 -0.0553,1.398188 0.0261,0.03813 0.0478,0.06813 0.0708,0.09973 -1.30004,-0.22702 -2.56668,-0.715936 -3.89695,-0.711062 h -0.30216 c -1.2118,0.763619 3.49665,0.45195 1.71797,1.388215 -0.20658,0.108765 -0.41322,0.21735 -0.61985,0.326111 -0.65123,0.08073 -1.2682,-0.0096 -1.88718,-0.111695 0.0211,0.08152 0.0421,0.162518 0.0605,0.248323 0.59782,2.79945 0.27731,5.665529 0.22792,8.49983 -0.0158,1.586167 0.0441,3.171948 0.0311,4.75803 -0.0943,0.107955 -0.18167,0.226744 -0.2659,0.350046 0.0272,2.683064 -0.23173,5.365683 -0.20374,8.05504 0.11389,1.140071 -0.0531,2.308204 0.0536,3.447606 0.009,0.09291 0.01,-0.358314 0.0518,-0.275254 0.10745,0.210141 0.18562,0.472012 0.24518,0.74896 2.68722,0.272823 2.92076,3.435096 -0.57496,4.266371 -0.19925,0.04739 -0.34593,0.07118 -0.46101,0.07679 0.13277,0.437478 0.25823,0.908657 0.4023,1.441073 0.0597,0.699442 0.091,1.401911 0.17957,2.098278 0.69098,5.428622 -0.0716,-2.495444 0.6095,4.075888 0.26396,2.546755 0.0267,1.017969 0.10014,3.736814 0.0149,0.55352 0.08,1.105278 0.12086,1.657485 0.19612,2.078206 0.60327,4.146174 0.73208,6.233009 0.80123,-0.08304 1.04545,-0.07848 0.005,0.08377 0.008,0.140468 0.0152,0.281207 0.0207,0.421849 0.009,0.232863 0.19281,0.669402 -0.038,0.698099 -0.42303,0.0525 -0.84835,0.05878 -1.27424,0.04687 0.48921,0.285548 0.9591,0.630029 1.06187,1.013236 0.0256,0.09561 0.0325,0.202032 0.0293,0.31215 0.20558,0.04646 0.51708,0.167015 0.8374,0.313146 0.9969,0.454783 1.52784,0.980908 2.13927,1.608614 0.8942,0.366836 0.1585,0.02354 1.32085,0.997284 0.0577,0.04841 0.15993,0.07556 0.21583,0.12466 0.23984,0.210651 0.27508,0.470592 0.65956,0.564462 1.58987,1.125457 0.95705,2.480859 0.85813,3.786679 0.0442,0.16254 0.062,0.32867 0.05,0.49964 0.11206,0.90265 -0.27942,1.55728 -0.89784,1.95367 0.28235,1.10639 -0.69112,1.30821 -0.89611,2.40545 -0.0423,0.77913 -0.0767,0.81777 0.0103,1.60362 0.0907,0.81715 0.67081,1.67519 -0.93065,2.34162 -0.44995,0.18725 -1.00494,0.2285 -1.57984,0.24234 0.121,0.61933 0.15467,1.25452 0.23828,1.88087 -0.26861,0.0396 -0.53603,0.0801 -0.8046,0.11968 -0.249,0.0367 -0.41282,0.0152 -0.51281,-0.0459 -0.16166,0.0632 -0.3598,0.10073 -0.59568,0.10073 h -1.42962 -1.93208 c -0.17854,0.0932 -0.41465,0.15159 -0.70791,0.15159 h -0.96518 c -0.29953,0 -0.54014,-0.0609 -0.71999,-0.15757 -0.24975,-0.0139 -0.4542,-0.0694 -0.61122,-0.15558 h -1.89581 c -2.10676,0 -2.10676,-2.1282 0,-2.1282 h 0.0777 c 0.033,-0.15391 0.10689,-0.36047 0.22446,-0.63826 -0.40234,-0.95073 -0.29418,-1.07203 0.21065,-1.07407 0.0891,-2.6e-4 0.19257,0.003 0.30561,0.006 0.0771,-0.006 0.41733,-1.2e-4 0.68891,0.002 -0.25901,-0.0335 -0.5066,-0.0839 -0.72863,-0.17053 -1.31251,-0.5122 -1.20317,-1.07813 -1.20172,-1.73029 4.2e-4,-0.18329 6.1e-4,-0.36722 0.002,-0.5505 4e-4,-0.0905 -0.15016,-0.2606 -0.007,-0.27624 -0.004,-0.0745 -0.006,-0.1386 -0.007,-0.16955 -0.003,-0.15548 6.8e-4,-0.3112 0,-0.46672 -0.36607,-0.15601 -0.45047,-0.41112 0.002,-0.84869 0.006,-0.40576 0.0174,-0.81111 0.0346,-1.21668 0.009,-0.0394 0.0151,-0.0792 0.0225,-0.11868 -0.0396,0.004 0.0179,-0.25658 0.005,-0.35403 -0.0826,-0.64192 -0.43809,-1.25859 -0.27454,-1.91279 0.43199,-0.47403 0.49887,-1.147309 1.29496,-1.422124 0.23309,-0.08046 0.48786,-0.14395 0.75453,-0.192474 v -3.210249 -2.065374 c -0.082,-0.06135 -0.16135,-0.130562 -0.24863,-0.213414 -0.59448,-0.330353 -0.65004,-0.08582 -1.88719,-1.037172 -0.4961,-0.381532 -0.91273,-1.414875 -1.12402,-1.855943 v -0.001 c -0.80586,-1.682111 -0.43994,-2.451623 0.78216,-2.459298 0.62644,-0.0041 1.48199,0.195839 2.51566,0.572443 0.18172,-1.659752 1.09476,-2.511038 2.02877,-2.544069 -0.0314,-0.257668 -0.0651,-0.515096 -0.095,-0.772892 -0.0441,-0.672951 -0.11472,-1.34435 -0.13294,-2.018495 -0.066,-2.439645 0.17227,-0.792806 -0.0656,-3.130467 -0.64068,-6.29181 0.13908,2.188104 -0.63367,-4.327205 -0.0521,-0.437529 -0.0341,-0.88016 -0.0518,-1.320402 -0.31824,-1.312058 -0.27018,-1.887396 -1.18273,-2.898099 -0.28957,-0.320692 -1.00635,-0.497889 -0.91337,-0.919493 -0.59847,-0.142321 -0.9392,-0.261217 -1.75078,-0.883592 -0.55961,-0.42914 -1.04796,-1.62983 -1.34158,-2.197014 -1.25784,-2.429611 -0.47829,-0.687947 -1.59366,-3.458568 -0.85905,-2.133841 -0.11477,-3.298625 1.05496,-3.305988 0.96923,-0.0061 2.23072,0.78194 3.11134,2.472257 0.55788,1.070878 1.04897,2.196815 1.6351,3.256127 0.0508,0.01425 0.14063,0.04555 0.18475,0.05685 -0.0924,-0.02073 -0.12844,-0.02946 -0.17439,-0.03988 0.003,0.0051 0.005,0.01011 0.007,0.01496 0.38655,0.255319 0.78889,0.488049 1.18617,0.727019 -0.008,-0.03886 -0.0172,-0.07688 -0.0241,-0.116684 -0.0483,-0.281657 -0.003,-0.570855 -0.007,-0.856663 -0.006,-0.450606 -0.0396,-2.226471 -0.0466,-2.57997 -0.015,-1.619133 0.007,-3.228427 0.0984,-4.84579 0.0546,-0.978241 0.14002,-1.819036 0.15367,-2.769451 -0.64973,-1.079897 -0.99636,-2.531835 -1.20862,-3.350865 -0.31167,-1.20249 -0.16551,-2.140488 0.221,-2.761473 -0.15518,-1.378217 -0.0385,-2.772973 -0.0743,-4.162653 -0.0384,-1.505037 0.455,-2.466563 1.11884,-2.893113 -0.006,-0.0296 -0.01,-0.05918 -0.0156,-0.08876 -0.23076,-1.155153 -0.0724,-2.049578 0.2918,-2.650774 -0.0868,-0.02006 -0.19161,-0.02833 -0.2987,-0.03391 h -0.58187 -1.59538 c -2.04875,0 -2.10515,-2.011389 -0.16922,-2.122215 0.10107,-0.383807 0.48961,-0.727766 1.15856,-0.825749 -0.93014,-0.429054 -0.86676,-1.50192 0.19166,-1.841979 0.2625,-0.190799 0.64697,-0.318133 1.16028,-0.318133 z m 7.94412,3.410703 c 0.25896,0.06026 0.51637,0.121987 0.77352,0.181505 0.0612,0.01418 0.10568,0.02532 0.15366,0.0369 0.009,-0.06302 0.0273,-0.114585 0.0535,-0.149592 -0.32691,-0.02732 -0.65315,-0.05464 -0.9807,-0.06881 z m 1.29495,0.09474 c 0.0625,0.03979 0.13209,0.09217 0.2141,0.166546 0.0911,0.08261 0.15823,0.136289 0.23655,0.203445 -0.006,-0.08266 -0.004,-0.186663 -0.004,-0.309157 -0.13681,-0.01934 -0.27411,-0.0385 -0.41093,-0.05784 -0.0122,-8.16e-4 -0.0241,-0.002 -0.0362,-0.003 z m 0.54388,0.0748 c 0.0142,0.0507 0.13236,0.01502 0.19338,0.02692 -0.0645,-0.0091 -0.12894,-0.01781 -0.19338,-0.02692 z m -11.39561,27.870028 c -0.006,-1.84e-4 -0.005,0.0026 0.007,0.01 0.005,0.0036 0.0102,0.0066 0.0156,0.01 0.005,10e-4 0.0164,0.0036 0.0225,0.0051 -0.003,-0.0059 -0.007,-0.01205 -0.0121,-0.01797 -0.0127,-0.0036 -0.0256,-0.0053 -0.0328,-0.007 z m 0.14849,0.20843 c 0.0289,0.05065 0.0568,0.102316 0.0864,0.152585 0.0491,0.08392 0.28101,0.266002 0.22101,0.189482 -0.11536,-0.147193 -0.22119,-0.259435 -0.30733,-0.342067 z m 4.02818,32.135402 v 0.989299 c 0.17025,0.25245 0.28136,0.534 0.35395,0.82774 0.55247,-0.002 1.10504,0.004 1.65582,0.031 -0.34448,-0.25186 -0.67476,-0.50878 -0.92892,-0.79284 -0.52966,-0.519807 -0.82755,-0.790342 -1.08085,-1.055123 z m -3.65868,6.514239 c -0.009,0.0104 -0.0183,0.0205 -0.0276,0.0309 0.0149,-0.007 0.0296,-0.0148 0.0449,-0.022 -0.006,-0.003 -0.0114,-0.006 -0.0172,-0.009 z m -1.50043,0.005 c -0.28571,0.0236 -0.58441,0.0472 -0.90992,0.0688 0.33003,0.002 0.63275,-5e-4 0.92374,-0.004 -0.004,-0.0212 -0.01,-0.0428 -0.0138,-0.0648 z" />
    </clipPath>
    <clipPath
       clipPathUnits="userSpaceOnUse"
       id="clipPath2559">
      <path
         id="path2561"
         style="fill:none;stroke:#000000;stroke-width:0.865;stroke-linecap:round;stroke-linejoin:round;stroke-miterlimit:4;stroke-dasharray:none;stroke-opacity:0.955017;paint-order:stroke markers fill"
         d="m 114.71344,33.558331 v 1.769177 h 3.21321 2.56574 c 0.5754,0.71323 0.89798,0.99905 0.96517,1.271534 0.21515,1.3e-5 0.43071,-0.0016 0.64575,0.005 0.53546,0.01646 1.06781,0.07239 1.60229,0.108704 0.18752,0.0259 0.34647,0.04546 0.48864,0.06283 0.0327,-0.205764 0.0595,-0.344387 0.0708,-0.345059 0.01,-5.11e-4 0.006,0.107856 -0.0138,0.35204 1.20918,0.148301 0.74027,0.125976 -0.007,2.215959 -0.0558,0.155909 -0.10085,0.258615 -0.13813,0.321125 0.99257,0.829604 0.76066,0.40691 -0.54389,1.879875 -0.0151,-0.0021 -0.0297,-0.0049 -0.0449,-0.007 0.0282,0.259886 -0.0346,0.314017 -0.29697,-0.04687 -1.30022,-0.226983 -2.5682,-0.715931 -3.89868,-0.711062 h -0.29352 c -1.20144,0.761308 3.48834,0.452692 1.71106,1.388216 -0.2066,0.108765 -0.41495,0.21735 -0.62157,0.326111 -0.65125,0.08073 -1.26821,-0.0096 -1.88719,-0.111695 0.0211,0.08152 0.0438,0.162519 0.0622,0.248323 0.59777,2.799451 0.27559,5.665528 0.22618,8.49983 -0.0158,1.586166 0.0441,3.171948 0.0311,4.758029 -0.0943,0.107959 -0.17992,0.226747 -0.26417,0.350046 0.0272,2.683068 -0.23178,5.365684 -0.20373,8.055041 0.11388,1.140055 -0.0549,2.308204 0.0518,3.447606 0.009,0.09291 0.01,-0.35833 0.0518,-0.275254 0.10747,0.210141 0.1856,0.472012 0.24519,0.74896 2.68721,0.272818 2.92076,3.435096 -0.57496,4.266371 -0.19893,0.04733 -0.3459,0.07115 -0.46101,0.07679 0.13276,0.437474 0.25995,0.908658 0.40402,1.441074 0.0597,0.699441 0.0893,1.401911 0.17784,2.098278 0.69103,5.428622 -0.0698,-2.495444 0.61122,4.075888 0.26397,2.546755 0.025,1.017969 0.0984,3.736814 0.0148,0.55352 0.0817,1.105278 0.12259,1.657485 0.19612,2.078206 0.6016,4.146174 0.73035,6.233009 0.80126,-0.08304 1.04705,-0.07848 0.005,0.08377 0.008,0.140468 0.0152,0.281207 0.0207,0.421849 0.009,0.232858 0.19442,0.669402 -0.0362,0.698098 -0.42475,0.0527 -0.85178,0.0573 -1.27941,0.04488 0.49048,0.285945 0.9623,0.631101 1.06532,1.015232 0.0256,0.09561 0.0325,0.202032 0.0294,0.31215 0.20558,0.04646 0.51708,0.167014 0.8374,0.313145 0.9969,0.454784 1.52784,0.980909 2.13927,1.608615 0.8942,0.366836 0.1585,0.02354 1.32085,0.997284 0.0577,0.04841 0.15993,0.07556 0.21583,0.12466 0.23984,0.210651 0.27508,0.470592 0.65956,0.564462 1.6048,1.136026 0.94413,2.506469 0.85467,3.823579 0.0376,0.1514 0.0645,0.30403 0.0535,0.46274 0.11206,0.90265 -0.27942,1.55728 -0.89784,1.95367 0.28225,1.10627 -0.69113,1.30828 -0.89611,2.40545 -0.0423,0.77915 -0.0767,0.81775 0.0103,1.60362 0.0907,0.81715 0.67081,1.67519 -0.93064,2.34162 -0.45129,0.18782 -1.00829,0.22863 -1.58503,0.24234 0.12119,0.61967 0.16156,1.25416 0.24518,1.88087 -0.26859,0.0396 -0.53776,0.0801 -0.80632,0.11968 -0.24932,0.0367 -0.4111,0.0154 -0.51108,-0.0459 -0.16182,0.0634 -0.36107,0.10073 -0.59741,0.10073 h -1.42962 -1.93208 c -0.17853,0.0932 -0.41465,0.15158 -0.70791,0.15158 h -0.67165 v 38.16497 h 39.95543 V 33.558331 Z m 8.507,7.587318 c 0.0987,0.01723 0.19615,0.03303 0.29524,0.04687 -0.036,-0.331804 -0.21665,-0.993817 -0.31252,-1.545786 -0.7955,0.676723 -0.74882,0.386602 -0.0553,1.399186 0.0261,0.03813 0.0495,0.06814 0.0725,0.09973 z m -0.99453,-2.407438 c 0.25896,0.06026 0.51637,0.121985 0.77352,0.181505 0.0612,0.01418 0.10568,0.02532 0.15366,0.0369 0.009,-0.06302 0.0273,-0.114585 0.0535,-0.149592 -0.32691,-0.02732 -0.65315,-0.05464 -0.9807,-0.06881 z m 1.2915,0.09474 c 0.0639,0.03999 0.13284,0.08972 0.21755,0.166546 0.0911,0.08261 0.15823,0.136289 0.23655,0.203445 -0.006,-0.08266 -0.004,-0.186663 -0.004,-0.309157 -0.13681,-0.01934 -0.27411,-0.0385 -0.41093,-0.05784 -0.0136,-0.0011 -0.0263,-0.002 -0.0397,-0.003 z m 0.54733,0.0748 c 0.0142,0.0507 0.13236,0.01502 0.19338,0.02692 -0.0645,-0.0091 -0.12894,-0.01781 -0.19338,-0.02692 z m -7.21894,60.21386 v 0.989299 c 0.17025,0.25245 0.28136,0.534 0.35395,0.82774 0.55247,-0.002 1.10504,0.004 1.65582,0.031 -0.34448,-0.25186 -0.67476,-0.50878 -0.92892,-0.79284 -0.52966,-0.519807 -0.82755,-0.790342 -1.08085,-1.055123 z" />
    </clipPath>
  </defs>
  <g
     inkscape:label="Layer 1"
     inkscape:groupmode="layer"
     id="layer1">
    <path
       style="fill:#000000;stroke-width:3.807;stroke-miterlimit:4;stroke-dasharray:none"
       d="m 21.517898,46.711699 c -0.08782,-0.04974 -2.869848,-0.09098 -6.195525,-0.09184 -4.335677,-0.0011 -6.1175231,-0.03476 -6.3250904,-0.119341 L 8.7083111,46.382729 V 28.419828 c 0,-16.9885 0.010762,-17.970221 0.198545,-18.097739 0.1593397,-0.108211 1.4237389,-0.13547 6.4034859,-0.138061 3.54211,-0.0018 6.231924,0.03583 6.267816,0.08779 0.03684,0.05333 12.936723,0.09115 31.153046,0.09135 24.362235,3.04e-4 31.1264,0.02723 31.257589,0.12464 0.146639,0.108876 0.163861,2.368126 0.138742,18.203527 l -0.02865,18.079223 -31.21078,0.01573 C 34.82643,46.795388 21.61013,46.763958 21.517882,46.711718 Z M 33.554858,28.602547 V 10.992778 H 32.42074 31.286624 l -0.02879,13.067638 c -0.0254,11.53133 -0.0488,13.068814 -0.198973,13.077683 -0.0936,0.0055 -2.1996,0.017 -4.679999,0.02551 l -4.50982,0.01546 v 4.516628 4.516627 h 5.842909 5.84291 z m 12.423273,0 V 11.043526 l -5.814545,-0.02629 -5.814546,-0.02629 v 17.611611 17.611619 l 5.814546,-0.02632 5.814545,-0.02628 z m 24.903279,0 V 10.992778 h -5.842913 -5.842909 v 17.609769 17.609771 h 5.842909 5.842913 z m 12.59345,0 V 10.992778 h -1.134113 -1.13412 l -0.02878,13.118386 c -0.02543,11.576442 -0.04879,13.119566 -0.198973,13.128431 -0.0936,0.0055 -2.199601,0.017 -4.68,0.02551 l -4.509819,0.01546 v 4.465876 4.465881 h 5.842908 5.84291 z M 58.401408,28.501051 V 10.89128 h -1.020667 -1.020666 l -0.02878,13.169267 -0.02878,13.169266 -4.651638,0.02701 c -2.558404,0.01485 -4.715458,0.04768 -4.793457,0.07293 -0.110413,0.03576 -0.141819,0.998074 -0.141819,4.345833 0,2.364947 0.03405,4.330349 0.07563,4.367568 0.04159,0.03721 2.670908,0.06767 5.842913,0.06767 h 5.767272 z m -37.354595,-0.07612 -0.02869,-17.584399 -5.814547,-0.02629 -5.8145439,-0.02629 v 17.610693 17.61069 h 5.8432269 5.843235 z M 55.678499,23.882927 V 11.094275 h -4.424728 -4.424728 v 12.788652 12.788651 h 4.424728 4.424728 z m 24.846548,0 V 11.094275 h -4.368002 -4.368001 v 12.788652 12.788651 h 4.368001 4.368002 z M 30.605039,23.780226 V 10.990365 l -4.339636,0.02658 -4.339636,0.02658 -0.02882,12.763276 -0.02882,12.763276 h 4.368439 4.368438 z"
       id="path2753" />
    <g
       id="g3302"
       style="stroke-width:1.9;stroke-miterlimit:4;stroke-dasharray:none">
      <g
         id="g3150"
         style="stroke-width:1.9;stroke-miterlimit:4;stroke-dasharray:none">
        <path
           style="fill:#000000;stroke-width:1.9;stroke-miterlimit:4;stroke-dasharray:none"
           d="m 142.64925,41.81043 c -0.0878,-0.04974 -2.86985,-0.09098 -6.19553,-0.09184 -4.33567,-0.0011 -6.11752,-0.03476 -6.32509,-0.119341 L 129.83966,41.48146 V 23.518559 c 0,-16.9884996 0.0108,-17.9702206 0.19855,-18.0977386 0.15934,-0.108211 1.42374,-0.13547 6.40348,-0.138061 3.54211,-0.0018 6.23193,0.03583 6.26782,0.08779 0.0368,0.05333 12.93672,0.09115 31.15305,0.09135 24.36223,3.04e-4 31.1264,0.02723 31.25758,0.12464 0.14664,0.108876 0.16387,2.368126 0.13875,18.2035266 l -0.0286,18.079223 -31.21078,0.01573 c -18.06168,0.0091 -31.27798,-0.02233 -31.37023,-0.07457 z M 154.68621,23.701278 V 6.0915094 h -1.13412 -1.13411 l -0.0288,13.0676376 c -0.0254,11.53133 -0.0488,13.068814 -0.19898,13.077683 -0.0936,0.0055 -2.1996,0.017 -4.68,0.02551 l -4.50982,0.01546 v 4.516628 4.516627 h 5.84291 5.84291 z m 12.42327,0 V 6.1422574 l -5.81454,-0.02629 -5.81455,-0.02629 V 23.701288 41.312907 l 5.81455,-0.02632 5.81454,-0.02628 z m 24.90328,0 V 6.0915094 h -5.84291 -5.84291 V 23.701278 41.311049 h 5.84291 5.84291 z m 12.59345,0 V 6.0915094 h -1.13411 -1.13412 l -0.0288,13.1183856 c -0.0254,11.576442 -0.0488,13.119566 -0.19897,13.128431 -0.0936,0.0055 -2.19961,0.017 -4.68,0.02551 l -4.50982,0.01546 v 4.465876 4.465881 h 5.8429 5.84291 z M 179.53276,23.599782 V 5.9900114 h -1.02067 -1.02066 l -0.0288,13.1692666 -0.0288,13.169266 -4.65164,0.02701 c -2.55841,0.01485 -4.71546,0.04768 -4.79346,0.07293 -0.11041,0.03576 -0.14182,0.998074 -0.14182,4.345833 0,2.364947 0.0341,4.330349 0.0756,4.367568 0.0416,0.03721 2.67091,0.06767 5.84292,0.06767 h 5.76727 z m -37.3546,-0.07612 -0.0287,-17.5843986 -5.81454,-0.02629 -5.81455,-0.02629 v 17.6106926 17.61069 h 5.84323 5.84324 z m 34.63169,-4.542004 V 6.1930064 h -4.42473 -4.42473 V 18.981658 31.770309 h 4.42473 4.42473 z m 24.84655,0 V 6.1930064 h -4.368 -4.368 V 18.981658 31.770309 h 4.368 4.368 z M 151.73639,18.878957 V 6.0890964 l -4.33964,0.02658 -4.33963,0.02658 -0.0288,12.7632756 -0.0288,12.763276 h 4.36844 4.36844 z"
           id="path2871" />
        <path
           style="fill:#000000;stroke:#000000;stroke-width:7.18110245;stroke-linecap:round;stroke-linejoin:round;stroke-miterlimit:4;stroke-dasharray:none;stroke-opacity:0.955017;paint-order:stroke markers fill"
           d="M 541.17944,71.451564 V 23.817188 h 15.87813 15.87812 v 47.634376 47.634376 h -15.87812 -15.87813 z"
           id="path2949"
           transform="scale(0.26458333)" />
        <path
           style="fill:#000000;stroke:#000000;stroke-width:7.18110245;stroke-linecap:round;stroke-linejoin:round;stroke-miterlimit:4;stroke-dasharray:none;stroke-opacity:0.955017;paint-order:stroke markers fill"
           d="M 635.12501,71.451564 V 23.817188 h 16.53972 16.53971 v 47.634376 47.634376 h -16.53971 -16.53972 z"
           id="path2988"
           transform="scale(0.26458333)" />
        <path
           style="fill:#000000;stroke:#000000;stroke-width:7.18110245;stroke-linecap:round;stroke-linejoin:round;stroke-miterlimit:4;stroke-dasharray:none;stroke-opacity:0.955017;paint-order:stroke markers fill"
           d="M 730.39377,71.451564 V 23.817188 h 15.87812 15.87813 v 47.634376 47.634376 h -15.87813 -15.87812 z"
           id="path3027"
           transform="scale(0.26458333)" />
      </g>
    </g>
    <g
       id="g3819"
       transform="translate(-65.116854,-17.504531)">
      <path
         style="fill:#000000;stroke-width:0.107309"
         d="m 86.634752,110.0781 c -0.0878,-0.0497 -2.86985,-0.091 -6.19553,-0.0918 -4.33567,-0.001 -6.11752,-0.0348 -6.32509,-0.11934 l -0.28897,-0.11779 V 91.786228 c 0,-16.988499 0.0108,-17.97022 0.19855,-18.097738 0.15934,-0.108211 1.42374,-0.13547 6.40348,-0.138061 3.54211,-0.0018 6.23193,0.03583 6.26782,0.08779 0.0368,0.05333 12.93672,0.09115 31.153048,0.09135 24.36223,3.04e-4 31.1264,0.02723 31.25758,0.12464 0.14664,0.108876 0.16387,2.368126 0.13875,18.203526 l -0.0286,18.079225 -31.21078,0.0157 c -18.061678,0.009 -31.277978,-0.0223 -31.370228,-0.0746 z M 98.671712,91.968947 V 74.359179 h -1.13412 -1.13411 l -0.0288,13.067637 c -0.0254,11.53133 -0.0488,13.068814 -0.19898,13.077684 -0.0936,0.006 -2.1996,0.017 -4.68,0.0255 l -4.50982,0.0155 v 4.51663 4.51662 h 5.84291 5.84291 z m 12.423268,0 v -17.55902 l -5.81454,-0.02629 -5.814548,-0.02629 v 17.61161 17.611623 l 5.814548,-0.0263 5.81454,-0.0263 z m 24.90328,0 V 74.359179 h -5.84291 -5.84291 v 17.609768 17.609773 h 5.84291 5.84291 z m 12.59345,0 V 74.359179 h -1.13411 -1.13412 l -0.0288,13.118385 c -0.0254,11.576442 -0.0488,13.119566 -0.19897,13.128436 -0.0936,0.006 -2.19961,0.017 -4.68,0.0255 l -4.50982,0.0155 v 4.46587 4.46588 h 5.8429 5.84291 z m -25.07345,-0.101496 v -17.60977 h -1.02067 -1.02066 l -0.0288,13.169266 -0.0288,13.169263 -4.65164,0.027 c -2.55841,0.0148 -4.71546,0.0477 -4.79346,0.0729 -0.11041,0.0358 -0.14182,0.99808 -0.14182,4.34584 0,2.36494 0.0341,4.33035 0.0756,4.36756 0.0416,0.0372 2.67091,0.0677 5.84292,0.0677 h 5.76727 z m -37.354598,-0.07612 -0.0287,-17.584398 -5.81454,-0.02629 -5.81455,-0.02629 v 17.610692 17.610695 h 5.84323 5.84324 z M 120.79535,87.249327 V 74.460676 h -4.42473 -4.42473 v 12.788651 12.788653 h 4.42473 4.42473 z m 24.84655,0 V 74.460676 h -4.368 -4.368 v 12.788651 12.788653 h 4.368 4.368 z M 95.721892,87.146626 v -12.78986 l -4.33964,0.02658 -4.33963,0.02658 -0.0288,12.763275 -0.0288,12.763276 h 4.36844 4.36844 z"
         id="path2873" />
      <path
         style="fill:#000000;stroke:#000000;stroke-width:7.50148;stroke-linecap:round;stroke-linejoin:round;stroke-miterlimit:4;stroke-dasharray:none;stroke-opacity:0.955017;paint-order:stroke markers fill"
         d="m 329.4711,329.4711 v -47.63437 h 15.87813 15.87812 v 47.63437 47.63438 H 345.34923 329.4711 Z"
         id="path3341"
         transform="scale(0.26458333)" />
      <path
         style="fill:#000000;stroke:#000000;stroke-width:7.50148;stroke-linecap:round;stroke-linejoin:round;stroke-miterlimit:4;stroke-dasharray:none;stroke-opacity:0.955017;paint-order:stroke markers fill"
         d="m 423.41668,329.4711 v -47.63437 h 16.53971 16.53971 v 47.63437 47.63438 h -16.53971 -16.53971 z"
         id="path3380"
         transform="scale(0.26458333)" />
      <path
         style="fill:#000000;stroke:#000000;stroke-width:7.50148;stroke-linecap:round;stroke-linejoin:round;stroke-miterlimit:4;stroke-dasharray:none;stroke-opacity:0.955017;paint-order:stroke markers fill"
         d="m 518.68543,329.4711 v -47.63437 h 15.87812 15.87813 v 47.63437 47.63438 h -15.87813 -15.87812 z"
         id="path3419"
         transform="scale(0.26458333)" />
      <path
         style="fill:#ffffff;stroke:#000000;stroke-width:7.50148;stroke-linecap:round;stroke-linejoin:round;stroke-miterlimit:4;stroke-dasharray:none;stroke-opacity:0.955017;paint-order:stroke markers fill"
         d="m 281.83673,346.6724 v -66.15885 h 21.83242 21.83242 v 66.15885 66.15886 h -21.83242 -21.83242 z"
         id="path3495"
         transform="scale(0.26458333)" />
      <path
         style="fill:#ffffff;stroke:#000000;stroke-width:7.50148;stroke-linecap:round;stroke-linejoin:round;stroke-miterlimit:4;stroke-dasharray:none;stroke-opacity:0.955017;paint-order:stroke markers fill"
         d="m 329.4711,397.65313 v -16.50131 l 17.5321,-0.3692 17.53209,-0.3692 0.3469,-49.28835 0.3469,-49.28834 h 3.29184 3.29184 v 66.15885 66.15886 H 350.64194 329.4711 Z"
         id="path3534"
         transform="scale(0.26458333)" />
      <path
         style="fill:#ffffff;stroke:#000000;stroke-width:7.50148;stroke-linecap:round;stroke-linejoin:round;stroke-miterlimit:4;stroke-dasharray:none;stroke-opacity:0.955017;paint-order:stroke markers fill"
         d="m 377.10548,348.17989 v -66.34316 h 21.17083 21.17084 v 65.49726 65.49727 l -14.22416,0.0119 c -7.82328,0.007 -17.35016,0.38697 -21.17083,0.84589 l -6.94668,0.83399 z"
         id="path3573"
         transform="scale(0.26458333)" />
      <path
         style="fill:#ffffff;stroke:#000000;stroke-width:7.50148;stroke-linecap:round;stroke-linejoin:round;stroke-miterlimit:4;stroke-dasharray:none;stroke-opacity:0.955017;paint-order:stroke markers fill"
         d="m 423.41668,396.99047 v -15.84078 l 18.19368,-0.36814 18.19369,-0.36813 0.3469,-49.28835 c 0.33916,-48.18929 0.40555,-49.28834 2.97714,-49.28834 2.58946,0 2.63025,1.01579 2.63025,65.49726 v 65.49727 h -21.17083 -21.17083 z"
         id="path3612"
         transform="scale(0.26458333)" />
      <path
         style="fill:#ffffff;stroke:#000000;stroke-width:7.50148;stroke-linecap:round;stroke-linejoin:round;stroke-miterlimit:4;stroke-dasharray:none;stroke-opacity:0.955017;paint-order:stroke markers fill"
         d="m 471.05105,347.99558 v -66.15885 h 21.17084 21.17083 v 66.15885 66.15886 h -21.17083 -21.17084 z"
         id="path3651"
         transform="scale(0.26458333)" />
      <path
         style="fill:#ffffff;stroke:#000000;stroke-width:7.50148;stroke-linecap:round;stroke-linejoin:round;stroke-miterlimit:4;stroke-dasharray:none;stroke-opacity:0.955017;paint-order:stroke markers fill"
         d="m 518.68543,397.65313 v -16.50131 l 17.5321,-0.3692 17.53209,-0.3692 0.3469,-49.28835 0.3469,-49.28834 h 3.29184 3.29184 v 66.15885 66.15886 h -21.17084 -21.17083 z"
         id="path3690"
         transform="scale(0.26458333)" />
    </g>
    <g
       id="g4826"
       transform="translate(58.815222,-82.621384)">
      <path
         style="fill:#000000;stroke-width:1.207;stroke-miterlimit:4;stroke-dasharray:none"
         d="m 82.783755,175.54504 c -0.08782,-0.0497 -2.869848,-0.091 -6.195525,-0.0918 -4.335677,-0.001 -6.117523,-0.0348 -6.32509,-0.11934 l -0.288972,-0.11779 v -17.9629 c 0,-16.9885 0.01076,-17.97022 0.198545,-18.09774 0.15934,-0.10821 1.423739,-0.13547 6.403486,-0.13806 3.54211,-0.002 6.231924,0.0358 6.267816,0.0878 0.03684,0.0533 12.936723,0.0911 31.153045,0.0914 24.36223,3.1e-4 31.1264,0.0272 31.25759,0.12464 0.14664,0.10888 0.16386,2.36813 0.13874,18.20353 l -0.0286,18.07922 -31.21078,0.0157 c -18.061673,0.009 -31.277973,-0.0223 -31.370221,-0.0746 z m 12.03696,-18.10915 v -17.60977 h -1.134118 -1.134116 l -0.02879,13.06764 c -0.0254,11.53133 -0.0488,13.06881 -0.198973,13.07768 -0.0936,0.006 -2.1996,0.017 -4.679999,0.0255 l -4.50982,0.0155 v 4.51663 4.51663 h 5.842909 5.84291 z m 12.423275,0 v -17.55902 l -5.81455,-0.0263 -5.814543,-0.0263 v 17.61161 17.61162 l 5.814543,-0.0263 5.81455,-0.0263 z m 24.90327,0 v -17.60977 h -5.84291 -5.84291 v 17.60977 17.60977 h 5.84291 5.84291 z m 12.59345,0 v -17.60977 h -1.13411 -1.13412 l -0.0288,13.11839 c -0.0254,11.57644 -0.0488,13.11956 -0.19897,13.12843 -0.0936,0.005 -2.1996,0.017 -4.68,0.0255 l -4.50982,0.0155 v 4.46587 4.46589 h 5.84291 5.84291 z m -25.07345,-0.1015 v -17.60977 h -1.02066 -1.02067 l -0.0288,13.16927 -0.0288,13.16927 -4.65164,0.027 c -2.5584,0.0149 -4.71545,0.0477 -4.79345,0.0729 -0.11042,0.0358 -0.14182,0.99807 -0.14182,4.34583 0,2.36495 0.034,4.33035 0.0756,4.36757 0.0416,0.0372 2.67091,0.0677 5.84291,0.0677 h 5.76727 z m -37.35459,-0.0761 -0.02869,-17.58439 -5.814547,-0.0263 -5.814544,-0.0263 v 17.61069 17.61069 h 5.843227 5.843235 z m 34.63168,-4.542 v -12.78867 h -4.42472 -4.42473 v 12.78865 12.78865 h 4.42473 4.42472 z m 24.84655,0 v -12.78867 h -4.368 -4.368 v 12.78865 12.78865 h 4.368 4.368 z m -49.920004,-0.1027 v -12.78986 l -4.339636,0.0266 -4.339636,0.0266 -0.02882,12.76327 -0.02882,12.76328 h 4.368439 4.368438 z"
         id="path3821" />
      <path
         style="fill:#ffffff;stroke:#000000;stroke-width:6.03619;stroke-linecap:round;stroke-linejoin:round;stroke-miterlimit:4;stroke-dasharray:none;stroke-opacity:0.955017;paint-order:stroke markers fill"
         d="m 267.28178,594.10652 v -66.15885 h 21.83242 21.83242 v 66.15885 66.15886 H 289.1142 267.28178 Z"
         id="path4385"
         transform="scale(0.26458333)" />
      <path
         style="fill:#ffffff;stroke:#000000;stroke-width:6.03619;stroke-linecap:round;stroke-linejoin:round;stroke-miterlimit:4;stroke-dasharray:none;stroke-opacity:0.955017;paint-order:stroke markers fill"
         d="m 314.91615,576.90522 v -47.63437 h 15.87813 15.87812 v 47.63437 47.63438 h -15.87812 -15.87813 z"
         id="path4424"
         transform="scale(0.26458333)" />
      <path
         style="fill:#ffffff;stroke:#000000;stroke-width:6.03619;stroke-linecap:round;stroke-linejoin:round;stroke-miterlimit:4;stroke-dasharray:none;stroke-opacity:0.955017;paint-order:stroke markers fill"
         d="m 314.91615,645.04884 v -16.53971 h 17.05974 c 14.33563,0 17.18799,-0.33421 17.86289,-2.09299 0.44174,-1.15114 0.80316,-23.47975 0.80316,-49.61914 v -47.52615 h 3.30794 3.30794 v 66.15885 66.15886 h -21.17083 -21.17084 z"
         id="path4463"
         transform="scale(0.26458333)" />
      <path
         style="fill:#ffffff;stroke:#000000;stroke-width:6.03619;stroke-linecap:round;stroke-linejoin:round;stroke-miterlimit:4;stroke-dasharray:none;stroke-opacity:0.955017;paint-order:stroke markers fill"
         d="m 362.55053,595.61401 v -66.34316 h 21.17083 21.17084 v 65.49726 65.49727 l -14.22416,0.0119 c -7.82328,0.007 -17.35016,0.38697 -21.17083,0.84589 l -6.94668,0.83399 z"
         id="path4502"
         transform="scale(0.26458333)" />
      <path
         style="fill:#ffffff;stroke:#000000;stroke-width:6.03619;stroke-linecap:round;stroke-linejoin:round;stroke-miterlimit:4;stroke-dasharray:none;stroke-opacity:0.955017;paint-order:stroke markers fill"
         d="m 408.86173,644.38725 v -15.87812 h 17.86289 17.86289 v -49.61914 -49.61914 h 3.30794 3.30795 v 65.49726 65.49727 h -21.17084 -21.17083 z"
         id="path4541"
         transform="scale(0.26458333)" />
      <path
         style="fill:#ffffff;stroke:#000000;stroke-width:6.03619;stroke-linecap:round;stroke-linejoin:round;stroke-miterlimit:4;stroke-dasharray:none;stroke-opacity:0.955017;paint-order:stroke markers fill"
         d="m 408.86173,576.90522 v -47.63437 h 15.87812 15.87813 v 47.63437 47.63438 h -15.87813 -15.87812 z"
         id="path4580"
         transform="scale(0.26458333)" />
      <path
         style="fill:#ffffff;stroke:#000000;stroke-width:6.03619;stroke-linecap:round;stroke-linejoin:round;stroke-miterlimit:4;stroke-dasharray:none;stroke-opacity:0.955017;paint-order:stroke markers fill"
         d="m 456.4961,595.4297 v -66.15885 h 21.17084 21.17083 v 66.15885 66.15886 H 477.66694 456.4961 Z"
         id="path4619"
         transform="scale(0.26458333)" />
      <path
         style="fill:#ffffff;stroke:#000000;stroke-width:6.03619;stroke-linecap:round;stroke-linejoin:round;stroke-miterlimit:4;stroke-dasharray:none;stroke-opacity:0.955017;paint-order:stroke markers fill"
         d="m 504.13048,576.90522 v -47.63437 h 15.87813 15.87812 v 47.63437 47.63438 h -15.87812 -15.87813 z"
         id="path4658"
         transform="scale(0.26458333)" />
      <path
         style="fill:#ffffff;stroke:#000000;stroke-width:6.03619;stroke-linecap:round;stroke-linejoin:round;stroke-miterlimit:4;stroke-dasharray:none;stroke-opacity:0.955017;paint-order:stroke markers fill"
         d="m 504.13048,645.04884 v -16.53971 h 17.05974 c 14.33563,0 17.18798,-0.33421 17.86289,-2.09299 0.44173,-1.15114 0.80315,-23.47975 0.80315,-49.61914 v -47.52615 h 3.30795 3.30794 v 66.15885 66.15886 h -21.17084 -21.17083 z"
         id="path4697"
         transform="scale(0.26458333)" />
    </g>
  </g>
</svg>
