<?xml version="1.0" encoding="UTF-8" standalone="no"?>
<!-- Created with Inkscape (http://www.inkscape.org/) -->

<svg
   width="210mm"
   height="297mm"
   viewBox="0 0 210 297"
   version="1.1"
   id="svg5"
   inkscape:version="1.2 (dc2aedaf03, 2022-05-15)"
   sodipodi:docname="layers icon.svg"
   xmlns:inkscape="http://www.inkscape.org/namespaces/inkscape"
   xmlns:sodipodi="http://sodipodi.sourceforge.net/DTD/sodipodi-0.dtd"
   xmlns="http://www.w3.org/2000/svg"
   xmlns:svg="http://www.w3.org/2000/svg">
  <sodipodi:namedview
     id="namedview7"
     pagecolor="#ffffff"
     bordercolor="#666666"
     borderopacity="1.0"
     inkscape:showpageshadow="2"
     inkscape:pageopacity="0.0"
     inkscape:pagecheckerboard="0"
     inkscape:deskcolor="#d1d1d1"
     inkscape:document-units="mm"
     showgrid="false"
     inkscape:zoom="0.51445126"
     inkscape:cx="-85.528024"
     inkscape:cy="576.34225"
     inkscape:window-width="1680"
     inkscape:window-height="956"
     inkscape:window-x="-11"
     inkscape:window-y="-11"
     inkscape:window-maximized="1"
     inkscape:current-layer="layer2" />
  <defs
     id="defs2">
    <linearGradient
       id="linearGradient843"
       inkscape:swatch="gradient">
      <stop
         style="stop-color:#ac9d93;stop-opacity:1;"
         offset="0"
         id="stop839" />
      <stop
         style="stop-color:#ac9d93;stop-opacity:0;"
         offset="1"
         id="stop841" />
    </linearGradient>
    <linearGradient
       id="linearGradient808"
       inkscape:swatch="solid">
      <stop
         style="stop-color:#ac9d93;stop-opacity:1;"
         offset="0"
         id="stop806" />
    </linearGradient>
  </defs>
  <g
     inkscape:label="Layer 1"
     inkscape:groupmode="layer"
     id="layer1">
    <path
       id="rect1895"
       style="fill:none;fill-rule:evenodd;stroke:#000000;stroke-width:0.828477;stroke-linecap:round;stroke-linejoin:round;paint-order:stroke markers fill"
       d="M 8.8846846,27.414085 H 61.030586 c 2.210315,0 3.989731,1.673889 3.989731,3.753115 0,2.079226 -1.779416,3.753115 -3.989731,3.753115 H 8.8846846 c -2.2103109,0 -3.989731,-1.673889 -3.989731,-3.753115 0,-2.079226 1.7794201,-3.753115 3.989731,-3.753115 z m -6e-7,-7.525573 h 47.490018 c 2.219137,0 4.005662,1.680573 4.005662,3.768103 0,2.087529 -1.786525,3.768103 -4.005662,3.768103 H 8.884684 c -2.219138,0 -4.0056639,-1.680574 -4.0056639,-3.768103 0,-2.08753 1.7865259,-3.768103 4.0056639,-3.768103 z m 0,-7.838699 h 39.419819 c 2.235445,0 4.035099,1.692923 4.035099,3.795793 0,2.102869 -1.799654,3.795793 -4.035099,3.795793 H 8.884684 c -2.2354452,0 -4.0350995,-1.692924 -4.0350995,-3.795793 0,-2.10287 1.7996543,-3.795793 4.0350995,-3.795793 z" />
  </g>
  <g
     inkscape:groupmode="layer"
     id="layer2"
     inkscape:label="Layer 2" />
</svg>
