<?xml version="1.0" encoding="UTF-8" standalone="no"?>
<!-- Created with Inkscape (http://www.inkscape.org/) -->

<svg
   width="210mm"
   height="297mm"
   viewBox="0 0 210 297"
   version="1.1"
   id="svg5"
   inkscape:version="1.1.1 (3bf5ae0d25, 2021-09-20)"
   sodipodi:docname="power icon svg.svg"
   xmlns:inkscape="http://www.inkscape.org/namespaces/inkscape"
   xmlns:sodipodi="http://sodipodi.sourceforge.net/DTD/sodipodi-0.dtd"
   xmlns="http://www.w3.org/2000/svg"
   xmlns:svg="http://www.w3.org/2000/svg">
  <sodipodi:namedview
     id="namedview7"
     pagecolor="#ffffff"
     bordercolor="#666666"
     borderopacity="1.0"
     inkscape:pageshadow="2"
     inkscape:pageopacity="0.0"
     inkscape:pagecheckerboard="0"
     inkscape:document-units="mm"
     showgrid="false"
     inkscape:zoom="0.62270623"
     inkscape:cx="396.65574"
     inkscape:cy="675.27829"
     inkscape:window-width="1680"
     inkscape:window-height="956"
     inkscape:window-x="-11"
     inkscape:window-y="-11"
     inkscape:window-maximized="1"
     inkscape:current-layer="layer1" />
  <defs
     id="defs2">
    <inkscape:path-effect
       effect="bend_path"
       id="path-effect2970"
       is_visible="true"
       lpeversion="1"
       bendpath="m 43.763949,70.10731 c -2.161977,107.01546 130.764381,120.38147 134.266091,0"
       prop_scale="1"
       scale_y_rel="false"
       vertical="false"
       hide_knot="false"
       bendpath-nodetypes="cc" />
    <inkscape:path-effect
       effect="bend_path"
       id="path-effect2565"
       is_visible="true"
       lpeversion="1"
       bendpath="m 22.094421,77.755379 c 47.268841,63.835791 105.047969,86.291981 159.759649,0"
       prop_scale="1"
       scale_y_rel="false"
       vertical="false"
       hide_knot="false"
       bendpath-nodetypes="cc" />
    <inkscape:path-effect
       effect="bend_path"
       id="path-effect2004"
       is_visible="true"
       lpeversion="1"
       bendpath="m 27.618026,97.300446 c 45.668773,25.787114 97.134884,31.863294 159.759654,0"
       prop_scale="1"
       scale_y_rel="false"
       vertical="false"
       hide_knot="false"
       bendpath-nodetypes="cc" />
    <inkscape:path-effect
       effect="bend_path"
       id="path-effect969"
       is_visible="true"
       lpeversion="1"
       bendpath="M 65.435059,87.740334 C 56.61074,15.763533 192.01306,8.7605155 192.47641,90.28969"
       prop_scale="1"
       scale_y_rel="false"
       vertical="false"
       hide_knot="false"
       bendpath-nodetypes="cc" />
  </defs>
  <g
     inkscape:label="Layer 1"
     inkscape:groupmode="layer"
     id="layer1">
    <path
       id="rect1795"
       style="fill:none;stroke:#000000;stroke-width:2.0137;stroke-linecap:round;stroke-linejoin:round;stroke-opacity:0.955017;paint-order:stroke markers fill"
       d="m 36.556582,2.3128809 c 1.491722,0 2.692638,1.562254 2.692638,3.50281 V 27.766641 c 0,1.940554 -1.200916,3.50281 -2.692638,3.50281 -1.491718,0 -2.692632,-1.562256 -2.692632,-3.50281 V 5.8156909 c 0,-1.940556 1.200914,-3.50281 2.692632,-3.50281 z M 12.333125,13.656756 c 0.431651,8.458614 4.294144,17.285723 12.288449,22.0006 6.835505,4.350274 16.561859,4.501798 23.320527,-0.06517 7.500709,-4.895796 10.761783,-13.495179 11.600445,-21.61599 -0.04002,-1.891178 1.468761,-4.1077411 3.768576,-3.648256 2.028323,-0.32386 3.659862,1.308896 3.551468,3.153585 -0.675752,9.739752 -4.529556,19.855939 -12.858477,26.27786 C 46.629386,45.581643 35.824407,47.29191 26.753912,44.090217 16.824855,40.864239 9.529606,32.614242 6.765711,23.413344 5.756414,19.986917 4.973867,16.425545 5.110023,12.865606 c 0.09257,-1.849437 1.939946,-3.0151501 3.827594,-2.641582 2.13755,-0.2841551 3.353488,1.721184 3.395508,3.432732 z" />
    <path
       id="path3413"
       style="fill:#000000;stroke:#000000;stroke-width:2.0137;stroke-linecap:round;stroke-linejoin:round;stroke-opacity:0.955017;paint-order:stroke markers fill"
       d="m 175.92139,4.8622371 c 1.49172,0 2.69264,1.562254 2.69264,3.50281 V 30.315997 c 0,1.940554 -1.20092,3.50281 -2.69264,3.50281 -1.49172,0 -2.69263,-1.562256 -2.69263,-3.50281 V 8.3650471 c 0,-1.940556 1.20091,-3.50281 2.69263,-3.50281 z M 151.69793,16.206112 c 0.43165,8.458614 4.29415,17.285723 12.28845,22.0006 6.83551,4.350274 16.56186,4.501798 23.32053,-0.06517 7.50071,-4.895796 10.76178,-13.495179 11.60044,-21.61599 -0.04,-1.891178 1.46876,-4.107741 3.76858,-3.648256 2.02832,-0.32386 3.65986,1.308896 3.55147,3.153585 -0.67576,9.739752 -4.52956,19.855939 -12.85848,26.27786 -7.37473,5.822258 -18.17971,7.532525 -27.2502,4.330832 -9.92906,-3.225978 -17.22431,-11.475975 -19.9882,-20.676873 -1.0093,-3.426427 -1.79185,-6.987799 -1.65569,-10.547738 0.0926,-1.849437 1.93995,-3.01515 3.82759,-2.641582 2.13755,-0.284155 3.35349,1.721184 3.39551,3.432732 z" />
    <path
       id="path3435"
       style="fill:#aa0000;stroke:#000000;stroke-width:5.214;stroke-linecap:round;stroke-linejoin:round;stroke-miterlimit:4;stroke-dasharray:none;stroke-opacity:0.955017;paint-order:stroke markers fill"
       d="m 170.82268,248.75065 c 1.49173,0 2.69264,1.56225 2.69264,3.50281 v 21.95095 c 0,1.94055 -1.20091,3.50281 -2.69264,3.50281 -1.49171,0 -2.69263,-1.56226 -2.69263,-3.50281 v -21.95095 c 0,-1.94056 1.20092,-3.50281 2.69263,-3.50281 z m -24.22345,11.34388 c 0.43165,8.45861 4.29414,17.28572 12.28845,22.0006 6.8355,4.35027 16.56186,4.50179 23.32052,-0.0652 7.50071,-4.8958 10.76179,-13.49518 11.60045,-21.61599 -0.04,-1.89118 1.46876,-4.10775 3.76857,-3.64826 2.02833,-0.32386 3.65987,1.3089 3.55147,3.15358 -0.67575,9.73976 -4.52955,19.85594 -12.85847,26.27786 -7.37473,5.82226 -18.17971,7.53253 -27.25021,4.33084 -9.92905,-3.22598 -17.2243,-11.47598 -19.9882,-20.67688 -1.00929,-3.42642 -1.79184,-6.9878 -1.65568,-10.54773 0.0926,-1.84944 1.93994,-3.01516 3.82759,-2.64159 2.13755,-0.28415 3.35349,1.72119 3.39551,3.43274 z" />
    <g
       id="g3672"
       transform="translate(-0.4248927,-0.4248927)">
      <path
         id="path3433"
         style="fill:none;stroke:#000000;stroke-width:2.0137;stroke-linecap:round;stroke-linejoin:round;stroke-opacity:0.955017;paint-order:stroke markers fill"
         d="m 35.281904,250.45022 c 1.491722,0 2.692638,1.56225 2.692638,3.50281 v 21.95095 c 0,1.94055 -1.200916,3.50281 -2.692638,3.50281 -1.491718,0 -2.692632,-1.56226 -2.692632,-3.50281 v -21.95095 c 0,-1.94056 1.200914,-3.50281 2.692632,-3.50281 z M 11.058447,261.7941 c 0.431651,8.45861 4.294144,17.28572 12.288449,22.0006 6.835505,4.35027 16.561859,4.50179 23.320527,-0.0652 7.500709,-4.8958 10.761783,-13.49518 11.600445,-21.61599 -0.04002,-1.89118 1.468761,-4.10775 3.768576,-3.64826 2.028323,-0.32386 3.659862,1.3089 3.551468,3.15358 -0.675752,9.73976 -4.529556,19.85594 -12.858477,26.27786 -7.374727,5.82226 -18.179706,7.53253 -27.250201,4.33084 -9.929057,-3.22598 -17.2243061,-11.47598 -19.9882011,-20.67688 -1.009297,-3.42642 -1.791844,-6.9878 -1.655688,-10.54773 0.09257,-1.84944 1.939946,-3.01516 3.827594,-2.64159 2.13755,-0.28415 3.3534881,1.72119 3.3955081,3.43274 z" />
      <path
         style="fill:#ffffff;stroke:#000000;stroke-width:26.196;stroke-linecap:round;stroke-linejoin:round;stroke-opacity:0.955017;paint-order:stroke markers fill"
         d="m 117.13965,1104.8305 c -11.42621,-1.7779 -32.491918,-9.4585 -41.718546,-15.2107 -31.880545,-19.8756 -52.127241,-53.6161 -55.639534,-92.72159 -0.682322,-7.59691 -0.367318,-11.52629 1.062096,-13.24862 2.344663,-2.82515 12.161658,-3.30432 13.787907,-0.67299 0.603544,0.97656 2.347999,9.10639 3.876564,18.0663 4.658981,27.3093 14.851657,47.987 31.094106,63.08 18.980378,17.6373 37.274277,24.864 63.060277,24.911 19.08266,0.035 32.96789,-3.9803 47.79169,-13.8198 22.3669,-14.8463 39.20998,-45.2329 43.65453,-78.75707 1.42618,-10.75735 4.43159,-15.25599 10.19213,-15.25599 7.16036,0 8.78804,3.32284 7.68923,15.69717 -3.71966,41.88899 -28.05651,80.52959 -60.82275,96.57069 -7.3433,3.595 -17.37412,7.5534 -22.29071,8.7965 -12.20675,3.0864 -30.9743,4.2398 -41.73699,2.5651 z"
         id="path3511"
         transform="scale(0.26458333)" />
      <path
         style="fill:#ffffff;stroke:#000000;stroke-width:26.196;stroke-linecap:round;stroke-linejoin:round;stroke-opacity:0.955017;paint-order:stroke markers fill"
         d="m 130.39857,1049.9333 c -1.41078,-1.4108 -1.92708,-14.4807 -1.92708,-48.7831 0,-40.36497 0.34487,-47.1423 2.48944,-48.92214 2.05841,-1.70832 2.96207,-1.59341 5.21916,0.66367 2.44046,2.44047 2.72971,7.54723 2.72971,48.19347 0,36.1738 -0.45036,46.0065 -2.204,48.1195 -2.62437,3.1622 -3.74428,3.2915 -6.30723,0.7286 z"
         id="path3550"
         transform="scale(0.26458333)" />
    </g>
  </g>
</svg>
