<?xml version="1.0" encoding="UTF-8" standalone="no"?>
<!-- Created with Inkscape (http://www.inkscape.org/) -->

<svg
   width="210mm"
   height="297mm"
   viewBox="0 0 210 297"
   version="1.1"
   id="svg5"
   inkscape:version="1.1 (c68e22c387, 2021-05-23)"
   sodipodi:docname="question mark icon.svg"
   xmlns:inkscape="http://www.inkscape.org/namespaces/inkscape"
   xmlns:sodipodi="http://sodipodi.sourceforge.net/DTD/sodipodi-0.dtd"
   xmlns="http://www.w3.org/2000/svg"
   xmlns:svg="http://www.w3.org/2000/svg">
  <sodipodi:namedview
     id="namedview7"
     pagecolor="#ffffff"
     bordercolor="#666666"
     borderopacity="1.0"
     inkscape:pageshadow="2"
     inkscape:pageopacity="0.0"
     inkscape:pagecheckerboard="0"
     inkscape:document-units="mm"
     showgrid="false"
     inkscape:zoom="0.62270623"
     inkscape:cx="396.65574"
     inkscape:cy="688.12544"
     inkscape:window-width="1680"
     inkscape:window-height="956"
     inkscape:window-x="-11"
     inkscape:window-y="-11"
     inkscape:window-maximized="1"
     inkscape:current-layer="layer1" />
  <defs
     id="defs2">
    <inkscape:path-effect
       effect="spiro"
       id="path-effect1109"
       is_visible="true"
       lpeversion="1" />
    <inkscape:path-effect
       effect="spiro"
       id="path-effect1105"
       is_visible="true"
       lpeversion="1" />
    <inkscape:path-effect
       effect="spiro"
       id="path-effect988"
       is_visible="true"
       lpeversion="1" />
    <inkscape:path-effect
       effect="spiro"
       id="path-effect984"
       is_visible="true"
       lpeversion="1" />
    <inkscape:path-effect
       effect="spiro"
       id="path-effect980"
       is_visible="true"
       lpeversion="1" />
    <inkscape:path-effect
       effect="spiro"
       id="path-effect863"
       is_visible="true"
       lpeversion="1" />
  </defs>
  <g
     inkscape:label="Layer 1"
     inkscape:groupmode="layer"
     id="layer1">
    <path
       id="path1802"
       style="fill:none;stroke:#000000;stroke-width:1.354;stroke-linecap:round;stroke-linejoin:round;stroke-opacity:0.955017;paint-order:stroke markers fill;stroke-miterlimit:4;stroke-dasharray:none"
       d="m 38.3526,69.936628 a 5.7725121,6.7913048 0 0 1 -5.772513,6.791304 5.7725121,6.7913048 0 0 1 -5.772513,-6.791304 5.7725121,6.7913048 0 0 1 5.772513,-6.791305 5.7725121,6.7913048 0 0 1 5.772513,6.791305 z M 36.667887,44.891733 37.11428,58.87148 m -10.313142,0.532489 10.021683,-0.331347 m -24.05747,-34.28818 c 0.03002,-3.632747 1.187125,-7.252725 3.307061,-10.346038 2.119936,-3.093313 5.196572,-5.6510213 8.793148,-7.3100323 5.849232,-2.6981048 13.050518,-2.9015497 19.076805,-0.5389419 6.026288,2.3626079 10.758532,7.2445982 12.536104,12.9327952 1.777573,5.688197 0.565364,12.070236 -3.21124,16.906552 -3.77661,4.836316 -10.043008,8.031373 -16.600219,8.463967 M 17.246911,27.72712 12.765351,24.784442 m 13.74345,13.7325 0.298773,21.334416 M 17.246911,27.72712 c 0.194435,-2.540734 1.577731,-4.990962 3.74447,-6.632564 2.166739,-1.641602 5.087993,-2.452661 7.907588,-2.195471 2.20801,0.201404 4.336628,1.043993 5.998307,2.366007 1.66168,1.322013 2.849349,3.116165 3.357788,5.057457 0.508444,1.941291 0.336665,4.02061 -0.476874,5.876125 -0.813539,1.855514 -2.264103,3.479665 -4.098889,4.601704 -2.084186,1.274554 -4.656905,1.890446 -7.1705,1.716564" />
    <path
       id="path2037"
       style="fill:#000000;stroke:#000000;stroke-width:1.92065;stroke-linecap:round;stroke-linejoin:round;stroke-miterlimit:4;stroke-dasharray:none;stroke-opacity:0.955017;paint-order:stroke markers fill"
       d="m 172.3593,78.180606 c -3.79398,-3.331157 -2.19914,-10.275038 2.5048,-10.905831 1.45404,-0.194985 1.93982,-0.04601 3.13825,0.962406 2.57037,2.162826 3.1766,4.969822 1.75132,8.109103 -1.46158,3.219228 -4.85756,4.061669 -7.39437,1.834322 z m -2.40309,-25.715367 7.9e-4,-9.78154 2.63298,-0.500374 c 7.83354,-1.488705 11.61628,-9.483985 7.43394,-15.712539 -4.76609,-7.097917 -17.29522,-5.73368 -20.0156,2.179405 l -0.50151,1.458783 -1.77331,-1.139251 c -1.7037,-1.094532 -1.76313,-1.205966 -1.51401,-2.838822 1.50846,-9.88718 10.78319,-17.2081537 21.8005,-17.2081537 3.33351,0 8.66567,1.4394387 11.43996,3.0882617 5.1464,3.058618 8.94124,8.384137 9.75874,13.694999 0.86405,5.613287 -1.44879,11.989719 -5.79026,15.963551 -2.82933,2.589745 -7.32625,4.86972 -10.95001,5.551742 -1.39504,0.262559 -2.79242,0.548592 -3.1053,0.635627 -0.46174,0.128447 -0.51128,1.472993 -0.26307,7.140307 l 0.30579,6.982058 -4.73028,0.133744 -4.73029,0.133742 8e-4,-9.78154 z" />
    <path
       id="path2288"
       style="fill:#ffffff;stroke:#000000;stroke-width:2.821;stroke-linecap:round;stroke-linejoin:round;stroke-miterlimit:4;stroke-dasharray:none;stroke-opacity:0.955017;paint-order:stroke markers fill"
       d="m 35.543854,287.65271 c -3.793978,-3.33116 -2.199139,-10.27504 2.504802,-10.90583 1.454036,-0.19499 1.939813,-0.046 3.138246,0.9624 2.570374,2.16283 3.176598,4.96983 1.751319,8.10911 -1.461579,3.21922 -4.857557,4.06167 -7.394367,1.83432 z m -2.40309,-25.71537 8.74e-4,-9.78154 2.632971,-0.50038 c 7.833543,-1.4887 11.616283,-9.48398 7.433945,-15.71253 -4.766096,-7.09792 -17.295217,-5.73368 -20.015606,2.1794 l -0.501506,1.45879 -1.773309,-1.13926 c -1.703701,-1.09453 -1.763131,-1.20596 -1.514011,-2.83882 1.508458,-9.88718 10.783185,-17.20815 21.800504,-17.20815 3.333502,0 8.665665,1.43944 11.439961,3.08826 5.14639,3.05862 8.94123,8.38414 9.75873,13.695 0.86406,5.61329 -1.44879,11.98972 -5.79026,15.96355 -2.82933,2.58974 -7.326246,4.86972 -10.95,5.55174 -1.395042,0.26256 -2.792429,0.54859 -3.105301,0.63563 -0.461743,0.12844 -0.511281,1.47299 -0.263073,7.1403 l 0.30579,6.98207 -4.730284,0.13374 -4.730283,0.13374 8.47e-4,-9.78154 z" />
    <path
       id="path2556"
       style="fill:#00ff00;stroke:#000000;stroke-width:3.88787;stroke-linecap:round;stroke-linejoin:round;stroke-miterlimit:4;stroke-dasharray:none;stroke-opacity:0.955017;paint-order:stroke markers fill"
       d="m 177.45802,287.22781 c -3.79398,-3.33116 -2.19914,-10.27504 2.5048,-10.90583 1.45404,-0.19498 1.93981,-0.046 3.13825,0.96241 2.57037,2.16282 3.17659,4.96982 1.75131,8.1091 -1.46157,3.21923 -4.85755,4.06167 -7.39436,1.83432 z m -2.40309,-25.71536 7.9e-4,-9.78154 2.63297,-0.50038 c 7.83355,-1.4887 11.61629,-9.48398 7.43395,-15.71254 -4.7661,-7.09792 -17.29522,-5.73368 -20.01561,2.17941 l -0.5015,1.45878 -1.77331,-1.13925 c -1.7037,-1.09453 -1.76314,-1.20597 -1.51401,-2.83882 1.50845,-9.88718 10.78318,-17.20816 21.8005,-17.20816 3.3335,0 8.66567,1.43944 11.43996,3.08826 5.14639,3.05862 8.94123,8.38414 9.75873,13.695 0.86406,5.61329 -1.44879,11.98972 -5.79026,15.96356 -2.82933,2.58974 -7.32625,4.86971 -10.95,5.55174 -1.39504,0.26256 -2.79243,0.54859 -3.1053,0.63562 -0.46174,0.12845 -0.51128,1.473 -0.26307,7.14031 l 0.30579,6.98206 -4.73029,0.13374 -4.73028,0.13375 7.9e-4,-9.78154 z" />
  </g>
</svg>
