<?xml version="1.0" encoding="UTF-8" standalone="no"?>
<!-- Created with Inkscape (http://www.inkscape.org/) -->

<svg
   width="210mm"
   height="297mm"
   viewBox="0 0 210 297"
   version="1.1"
   id="svg5"
   inkscape:version="1.1 (c68e22c387, 2021-05-23)"
   sodipodi:docname="add icon svg.svg"
   xmlns:inkscape="http://www.inkscape.org/namespaces/inkscape"
   xmlns:sodipodi="http://sodipodi.sourceforge.net/DTD/sodipodi-0.dtd"
   xmlns="http://www.w3.org/2000/svg"
   xmlns:svg="http://www.w3.org/2000/svg">
  <sodipodi:namedview
     id="namedview7"
     pagecolor="#ffffff"
     bordercolor="#666666"
     borderopacity="1.0"
     inkscape:pageshadow="2"
     inkscape:pageopacity="0.0"
     inkscape:pagecheckerboard="0"
     inkscape:document-units="mm"
     showgrid="false"
     inkscape:zoom="0.62270623"
     inkscape:cx="305.1198"
     inkscape:cy="609.43665"
     inkscape:window-width="1680"
     inkscape:window-height="956"
     inkscape:window-x="-11"
     inkscape:window-y="-11"
     inkscape:window-maximized="1"
     inkscape:current-layer="layer1" />
  <defs
     id="defs2" />
  <g
     inkscape:label="Layer 1"
     inkscape:groupmode="layer"
     id="layer1">
    <path
       style="fill:#000000;stroke-width:0.157677"
       d="m 106.41723,183.3507 c -0.0534,-0.16 -0.22203,-0.32314 -0.37472,-0.36252 -0.18747,-0.0484 -1.24591,-2.16313 -3.25963,-6.51279 -1.64011,-3.54265 -4.48235,-9.66301 -6.31609,-13.60079 l -3.33408,-7.15962 -0.0403,-3.24219 c -0.0222,-1.78321 -0.0933,-3.43073 -0.15814,-3.66115 -0.11505,-0.40905 -0.28755,-0.28553 -7.28783,5.21821 -6.48398,5.09783 -7.1954,5.61531 -7.43556,5.40865 -0.17979,-0.15472 -0.34271,-0.18215 -0.50442,-0.0849 -0.13137,0.079 -0.31162,0.14362 -0.40056,0.14362 -0.0889,0 -0.0614,-0.0604 0.0611,-0.13421 0.12442,-0.0749 0.16906,-0.21697 0.10107,-0.32158 -0.0942,-0.14496 -0.14886,-0.14569 -0.24147,-0.003 -0.16593,0.2553 -2.58876,-4.33946 -2.58876,-4.90944 0,-0.38845 1.00601,-1.37316 7.64026,-7.47849 4.20215,-3.86712 7.66185,-7.08184 7.68823,-7.14381 0.0474,-0.11145 -3.43342,-0.26077 -8.46858,-0.36328 l -2.59946,-0.0529 -5.08123,-2.18841 c -2.79468,-1.20364 -9.17423,-3.95231 -14.17679,-6.10816 -5.002556,-2.15585 -9.09556,-3.99974 -9.09556,-4.09753 0,-0.0978 -0.148355,-0.2659 -0.32967,-0.37357 -0.375909,-0.22323 -0.281041,-0.52941 0.118825,-0.38351 0.176401,0.0644 0.225134,0.0367 0.14698,-0.0836 -0.144395,-0.22216 -0.01155,-0.22907 0.397893,-0.0208 0.390063,0.1985 0.410286,0.0237 0.02976,-0.25753 -0.267602,-0.19778 -0.265408,-0.22266 0.0404,-0.45803 0.312913,-0.24082 0.308543,-0.24561 -0.134825,-0.14759 -0.336594,0.0744 -0.426121,0.0519 -0.337297,-0.0847 0.08164,-0.12561 0.03862,-0.15603 -0.132337,-0.0936 -0.468443,0.17093 -0.431627,-0.07 0.08827,-0.57782 0.396504,-0.38726 2.896925,-1.529 10.784061,-4.92423 5.64733,-2.43103 11.94146,-5.14202 13.98695,-6.02442 l 3.71907,-1.60435 4.12332,-0.0784 c 2.26783,-0.0431 4.95073,-0.12478 5.962,-0.1815 l 1.83868,-0.10311 -7.48728,-8.76409 c -4.118,-4.820251 -7.54674,-8.787151 -7.61941,-8.815341 -0.0727,-0.0282 -0.13213,-0.17003 -0.13213,-0.3152 0,-0.14517 -0.081,-0.34095 -0.17995,-0.43506 -0.21408,-0.20355 -0.056,-0.50542 0.26465,-0.50542 0.12502,0 0.3052,-0.13837 0.40039,-0.30751 0.0952,-0.16913 0.23547,-0.30751 0.31172,-0.30751 0.0763,0 1.69271,-0.79519 3.59211,-1.76708 3.4989,-1.79033 4.18283,-2.06381 3.5998,-1.43942 -0.30619,0.3279 -0.30587,0.3288 0.0521,0.1502 0.30985,-0.15458 0.34598,-0.14448 0.25852,0.0722 -0.0828,0.20505 -0.0324,0.23102 0.27064,0.13957 0.30833,-0.0931 0.35403,-0.067 0.26586,0.15143 -0.0811,0.20105 1.1893,1.50367 5.34072,5.47608 2.99595,2.86676 5.49418,5.21228 5.55164,5.21228 0.0574,0 1.60664,-3.23464 3.44264,-7.18809 1.836,-3.95345 4.13294,-8.89846 5.10431,-10.988905 1.18043,-2.54035 1.92862,-3.95532 2.25611,-4.26673 0.5739,-0.5457 0.74762,-0.58713 0.62729,-0.14961 -0.0752,0.27356 -0.0524,0.28914 0.16931,0.11531 0.22902,-0.17959 0.23488,-0.16276 0.055,0.15815 -0.25449,0.45406 -0.087,0.63967 0.22085,0.24467 0.22747,-0.29191 0.23472,-0.29175 0.4918,0.0112 0.2559,0.3016 0.25886,0.30049 0.15436,-0.0577 -0.0773,-0.26482 -0.0525,-0.33349 0.0898,-0.24982 0.14098,0.0828 0.16559,0.0232 0.0873,-0.21138 -0.13921,-0.41707 0.16562,-0.43182 0.39782,-0.0192 0.0952,0.16913 0.2655,0.30751 0.37845,0.30751 0.1779,0 2.69465,5.304975 9.06353,19.104685 0.80998,1.75502 1.54546,3.17245 1.63439,3.14986 0.33966,-0.0863 10.91467,-10.3663 10.91467,-10.6102 0,-0.17689 0.0842,-0.22604 0.27062,-0.158 0.20608,0.0752 0.24552,0.0365 0.16534,-0.16214 -0.0877,-0.21734 -0.0537,-0.23463 0.20384,-0.10358 0.49238,0.25057 0.56041,0.18305 0.14618,-0.14508 -0.91286,-0.72314 0.32818,-0.22113 3.57697,1.4469 1.88485,0.96773 3.5336,1.78071 3.66389,1.80663 0.13029,0.0259 0.21485,0.1053 0.18792,0.17643 -0.0269,0.0711 0.15113,0.22901 0.3957,0.35086 0.42617,0.21232 0.61987,0.67299 0.28297,0.67299 -0.0889,0 -0.16169,0.10405 -0.16169,0.23123 0,0.12718 -0.93803,1.32071 -2.0845,2.65229 -5.97348,6.937931 -13.11333,15.350501 -13.1142,15.451881 -4.8e-4,0.0634 0.81761,0.12536 1.81812,0.13764 1.00051,0.0123 2.77505,0.0402 3.94341,0.062 l 2.1243,0.0397 11.70095,5.03704 c 6.43552,2.77038 12.79242,5.50612 14.12643,6.07942 1.3746,0.59074 2.4475,1.143 2.47631,1.27462 0.0279,0.12774 0.19166,0.27476 0.36382,0.32671 0.17214,0.052 0.313,0.19825 0.313,0.3251 0,0.16519 -0.0975,0.20121 -0.34365,0.12692 -0.21509,-0.0649 -0.30574,-0.0454 -0.24232,0.0522 0.0615,0.0947 -0.0416,0.12684 -0.26273,0.0819 -0.35996,-0.0731 -0.36042,-0.0711 -0.0406,0.17759 0.30545,0.2376 0.3077,0.26264 0.0404,0.45119 -0.40663,0.28689 -0.35503,0.34638 0.28298,0.32626 0.61052,-0.0192 0.78924,0.28952 0.26,0.44924 -0.16826,0.0508 -0.33991,0.21112 -0.38144,0.35631 -0.0505,0.17678 -2.52673,1.31667 -7.49602,3.45075 -4.0813,1.75272 -10.40388,4.47613 -14.05019,6.05203 l -6.62965,2.86527 -3.63822,0.0738 c -2.00102,0.0406 -3.65608,0.0902 -3.6779,0.1103 -0.0522,0.0481 3.71387,3.56641 9.90022,9.24883 5.37906,4.94087 5.74339,5.29828 5.74339,5.63427 0,0.22099 -2.50853,4.99674 -2.76133,5.25702 -0.08,0.0823 -0.245,0.0532 -0.40244,-0.0711 -0.2296,-0.18119 -0.29764,-0.17065 -0.4869,0.0755 -0.1562,0.20313 -0.28006,0.24147 -0.42717,0.13222 -0.11395,-0.0846 -3.38124,-2.64699 -7.26066,-5.69415 l -7.05349,-5.5403 -0.11216,1.73197 c -0.0617,0.95257 -0.0986,2.5879 -0.0821,3.63407 l 0.0301,1.90211 -1.86054,3.99766 c -2.89587,6.22219 -5.41233,11.63579 -7.39735,15.91374 -3.17399,6.84032 -3.37728,7.24218 -3.89722,7.70401 -0.59222,0.52604 -0.69522,0.55036 -0.58163,0.13734 0.0475,-0.17275 0.0175,-0.26826 -0.0685,-0.21776 -0.0908,0.0534 -0.11239,-0.0872 -0.053,-0.34573 l 0.10009,-0.43572 -0.31634,0.37106 -0.31635,0.37105 -0.19462,-0.34579 c -0.10703,-0.19018 -0.23099,-0.31118 -0.27546,-0.2689 -0.0445,0.0423 -4.9e-4,0.21963 0.0977,0.3941 0.1453,0.25816 0.13488,0.30129 -0.056,0.23165 -0.17265,-0.063 -0.21131,-0.001 -0.14658,0.2341 0.10984,0.39939 -0.21583,0.42626 -0.34851,0.0288 z m 5.97913,-12.00957 c 2.64638,-5.70819 5.42036,-11.68474 6.16439,-13.28122 l 1.35279,-2.90268 -0.003,-1.32561 c -0.002,-0.72908 0.0846,-4.24745 0.19201,-7.8186 0.1074,-3.57115 0.16014,-6.52641 0.11718,-6.56725 -0.043,-0.0409 -3.38556,0.0214 -7.42802,0.13845 -5.59715,0.16199 -8.63489,0.17547 -12.73808,0.0565 -2.96348,-0.0859 -5.42839,-0.11793 -5.47756,-0.0712 -0.0746,0.0709 0.0357,4.5909 0.34466,14.11927 l 0.0533,1.64411 2.95214,6.3512 c 1.62367,3.49318 4.22328,9.08423 5.77691,12.42458 1.55363,3.34035 3.00984,6.47455 3.23603,6.96489 0.22618,0.49034 0.46405,0.83629 0.52858,0.76878 0.0645,-0.0675 2.28256,-4.79309 4.92894,-10.50128 z M 77.87184,158.88689 c 0,-0.0846 -0.0771,-0.15375 -0.17124,-0.15375 -0.0942,0 -0.12627,0.0692 -0.0713,0.15375 0.0549,0.0846 0.13202,0.15376 0.17124,0.15376 0.0392,0 0.0713,-0.0692 0.0713,-0.15376 z m 1.69784,-0.46127 c 0.16097,-0.16913 0.25629,-0.3075 0.21183,-0.3075 -0.0445,0 -0.21256,0.13837 -0.37353,0.3075 -0.16097,0.16914 -0.25629,0.30752 -0.21182,0.30752 0.0445,0 0.21255,-0.13838 0.37352,-0.30752 z m 55.86695,0.10071 c 0,-0.0292 -0.16373,-0.18485 -0.36383,-0.34595 l -0.36382,-0.2929 0.30803,0.34595 c 0.28948,0.32511 0.41962,0.41595 0.41962,0.2929 z m -59.08178,-2.281 c -0.58477,-1.04183 -1.0648,-1.8325 -1.06671,-1.75705 -0.005,0.19564 1.99361,3.78093 2.06813,3.71007 0.034,-0.0323 -0.41664,-0.91119 -1.00142,-1.95302 z m 62.28435,-0.0107 c 0.54315,-0.99365 0.93478,-1.80663 0.8703,-1.80663 -0.0645,0 -0.57743,0.88217 -1.13987,1.96038 -1.25903,2.41361 -1.07705,2.3098 0.26957,-0.15375 z m -58.15955,1.46068 c 0.20113,-0.24386 0.19541,-0.2493 -0.0611,-0.058 -0.26935,0.20086 -0.35501,0.32712 -0.22192,0.32712 0.0336,0 0.16091,-0.12109 0.28297,-0.26908 z m 53.98678,0.0572 c 0,-0.0319 -0.12733,-0.15301 -0.28298,-0.26907 -0.25646,-0.19125 -0.26218,-0.18582 -0.061,0.058 0.21124,0.25612 0.34403,0.33757 0.34403,0.21102 z m -48.83616,-5.91615 7.3023,-5.74357 -0.1132,-3.25116 c -0.0623,-1.78813 -0.13443,-3.27456 -0.16039,-3.30316 -0.026,-0.0286 -3.49101,3.11184 -7.70013,6.97878 -4.20912,3.86694 -7.85834,7.21783 -8.10937,7.44643 l -0.45642,0.41563 0.85761,1.63972 c 0.47169,0.90184 0.90704,1.62198 0.96745,1.60031 0.0605,-0.0217 3.39589,-2.62402 7.41215,-5.78298 z m 51.90844,4.20211 0.88934,-1.61565 -1.29359,-1.19091 c -0.71148,-0.655 -3.47652,-3.19517 -6.14456,-5.64483 -2.66802,-2.44965 -5.74115,-5.28097 -6.82916,-6.2918 -1.08801,-1.01085 -2.00763,-1.80795 -2.04359,-1.77135 -0.036,0.0366 -0.0917,1.54102 -0.12389,3.34314 l -0.0585,3.2766 7.27645,5.74317 c 4.00204,3.15874 7.31283,5.74859 7.3573,5.75522 0.0445,0.007 0.48105,-0.71498 0.97019,-1.60359 z m -56.19034,1.00331 c 0.16097,-0.16913 0.25629,-0.3075 0.21182,-0.3075 -0.0445,0 -0.21255,0.13837 -0.37352,0.3075 -0.16097,0.16914 -0.25629,0.30752 -0.21182,0.30752 0.0445,0 0.21255,-0.13838 0.37352,-0.30752 z m 52.14787,-0.053 c 0,-0.0292 -0.16373,-0.18486 -0.36383,-0.34595 l -0.36382,-0.29291 0.30804,0.34595 c 0.28947,0.32511 0.41961,0.41595 0.41961,0.29291 z m -51.17768,-0.71573 c 0.16097,-0.16914 0.25629,-0.30752 0.21182,-0.30752 -0.0445,0 -0.21255,0.13838 -0.37352,0.30752 -0.16097,0.16913 -0.25629,0.3075 -0.21182,0.3075 0.0445,0 0.21255,-0.13837 0.37352,-0.3075 z m 50.36918,0.1007 c 0,-0.0292 -0.16372,-0.18485 -0.36382,-0.34595 l -0.36382,-0.29291 0.30803,0.34596 c 0.28948,0.3251 0.41961,0.41595 0.41961,0.2929 z m -49.45921,-0.83104 c 0.20113,-0.24387 0.19541,-0.24931 -0.0611,-0.0581 -0.15564,0.11606 -0.28298,0.23715 -0.28298,0.26907 0,0.12655 0.13279,0.0451 0.34402,-0.21101 z m 48.32732,-0.0965 c 0,-0.0319 -0.12733,-0.15301 -0.28297,-0.26907 -0.25646,-0.19125 -0.26219,-0.18582 -0.0611,0.058 0.21124,0.25612 0.34403,0.33757 0.34403,0.21102 z m -47.2969,-0.71073 c 0.16097,-0.16913 0.25629,-0.30751 0.21182,-0.30751 -0.0445,0 -0.21255,0.13838 -0.37352,0.30751 -0.16097,0.16914 -0.25629,0.30752 -0.21182,0.30752 0.0445,0 0.21255,-0.13838 0.37352,-0.30752 z m 46.48841,0.0957 c 0,-0.0319 -0.12734,-0.15301 -0.28297,-0.26908 -0.25647,-0.19125 -0.26219,-0.18581 -0.0611,0.0581 0.21124,0.25612 0.34403,0.33756 0.34403,0.21102 z m -55.5627,-0.79559 c 0.0553,-0.13683 0.0281,-0.19856 -0.0635,-0.14468 -0.0879,0.0517 -0.15986,0.15904 -0.15986,0.23862 0,0.22116 0.11591,0.17243 0.2234,-0.0939 z m 9.98426,-0.0304 c 0.20113,-0.24387 0.19541,-0.24931 -0.0611,-0.0581 -0.15564,0.11606 -0.28298,0.23715 -0.28298,0.26908 0,0.12654 0.13279,0.0451 0.34403,-0.21103 z m 54.49194,-0.0794 c -0.1597,-0.15072 -0.17827,-0.13306 -0.0905,0.0861 0.0608,0.15164 0.15113,0.23697 0.20092,0.18963 0.0498,-0.0474 1.1e-4,-0.1714 -0.1104,-0.2757 z m -62.43581,-0.65085 c 0.48306,-0.46511 0.84191,-0.84566 0.79745,-0.84566 -0.0445,0 -0.47609,0.38055 -0.95915,0.84566 -0.48306,0.46511 -0.84192,0.84566 -0.79745,0.84566 0.0445,0 0.47609,-0.38055 0.95915,-0.84566 z m 52.55212,0.79261 c 0,-0.0292 -0.16372,-0.18485 -0.36383,-0.34595 l -0.36382,-0.29291 0.30803,0.34596 c 0.28948,0.3251 0.41962,0.41594 0.41962,0.2929 z m -43.73954,-0.71573 c 0.16097,-0.16913 0.25629,-0.30751 0.21183,-0.30751 -0.0445,0 -0.21255,0.13838 -0.37352,0.30751 -0.16097,0.16913 -0.25629,0.30751 -0.21183,0.30751 0.0445,0 0.21256,-0.13838 0.37352,-0.30751 z m 51.98618,0.26079 c 0,-0.0257 -0.27287,-0.28515 -0.60638,-0.57658 l -0.60637,-0.52987 0.55724,0.57658 c 0.51867,0.53668 0.65551,0.64728 0.65551,0.52987 z m -61.8498,-0.5683 c 0.16097,-0.16914 0.25629,-0.30752 0.21182,-0.30752 -0.0445,0 -0.21255,0.13838 -0.37352,0.30752 -0.16097,0.16913 -0.25629,0.30751 -0.21183,0.30751 0.0445,0 0.21256,-0.13838 0.37353,-0.30751 z m 52.63296,0.24946 c 0,-0.0319 -0.12734,-0.15301 -0.28297,-0.26908 -0.25647,-0.19125 -0.26219,-0.18581 -0.0611,0.0581 0.21124,0.25612 0.34402,0.33757 0.34402,0.21102 z m -41.79914,-0.71073 c 0.16097,-0.16913 0.25629,-0.30751 0.21182,-0.30751 -0.0445,0 -0.21255,0.13838 -0.37352,0.30751 -0.16097,0.16913 -0.25629,0.30751 -0.21182,0.30751 0.0445,0 0.21255,-0.13838 0.37352,-0.30751 z m 40.99065,0.10071 c 0,-0.0292 -0.16372,-0.18486 -0.36382,-0.34596 l -0.36383,-0.2929 0.30804,0.34595 c 0.28948,0.32511 0.41961,0.41595 0.41961,0.29291 z m -40.10131,-0.79262 c 0.20887,-0.21141 0.34339,-0.38439 0.29892,-0.38439 -0.0445,0 -0.25174,0.17298 -0.46062,0.38439 -0.20887,0.21142 -0.34338,0.3844 -0.29892,0.3844 0.0445,0 0.25174,-0.17298 0.46062,-0.3844 z m 38.96942,-0.13493 c 0,-0.0319 -0.12734,-0.15301 -0.28298,-0.26907 -0.25646,-0.19125 -0.26218,-0.18581 -0.061,0.0581 0.21124,0.25611 0.34403,0.33756 0.34403,0.21101 z m 9.05513,-0.14241 c 0,-0.0257 -0.27287,-0.28516 -0.60637,-0.57659 l -0.60637,-0.52987 0.55724,0.57659 c 0.51867,0.53667 0.6555,0.64728 0.6555,0.52987 z m -47.03373,-0.52987 c 0.20114,-0.24387 0.19541,-0.24931 -0.0611,-0.0581 -0.15564,0.11607 -0.28297,0.23715 -0.28297,0.26908 0,0.12655 0.13278,0.0451 0.34402,-0.21102 z m 37.1701,0.0623 c 0,-0.0292 -0.16372,-0.18485 -0.36382,-0.34594 l -0.36382,-0.29291 0.30803,0.34595 c 0.28948,0.32511 0.41961,0.41595 0.41961,0.2929 z m -36.22053,-0.7926 c 0.20887,-0.21142 0.34338,-0.38439 0.29892,-0.38439 -0.0445,0 -0.25175,0.17297 -0.46063,0.38439 -0.20887,0.21141 -0.34338,0.38439 -0.29891,0.38439 0.0445,0 0.25174,-0.17298 0.46062,-0.38439 z m 35.25034,0.0238 c 0,-0.0292 -0.16372,-0.18485 -0.36382,-0.34595 l -0.36382,-0.2929 0.30803,0.34595 c 0.28948,0.3251 0.41961,0.41594 0.41961,0.2929 z m -34.361,-0.71573 c 0.16097,-0.16913 0.25629,-0.30751 0.21182,-0.30751 -0.0445,0 -0.21255,0.13838 -0.37352,0.30751 -0.16097,0.16913 -0.25629,0.30751 -0.21182,0.30751 0.0445,0 0.21255,-0.13838 0.37352,-0.30751 z m 33.55251,0.1007 c 0,-0.0292 -0.16372,-0.18485 -0.36383,-0.34594 l -0.36382,-0.29291 0.30804,0.34595 c 0.28947,0.32511 0.41961,0.41595 0.41961,0.2929 z m -42.12255,-1.02324 c 0.43799,-0.42283 0.75996,-0.76878 0.71549,-0.76878 -0.0445,0 -0.4392,0.34595 -0.87718,0.76878 -0.43799,0.42283 -0.75996,0.76878 -0.7155,0.76878 0.0445,0 0.43921,-0.34595 0.87719,-0.76878 z m 9.54024,0.15376 c 0.16097,-0.16914 0.25629,-0.30751 0.21181,-0.30751 -0.0445,0 -0.21255,0.13837 -0.37352,0.30751 -0.16097,0.16913 -0.25629,0.30751 -0.21182,0.30751 0.0445,0 0.21256,-0.13838 0.37353,-0.30751 z m 40.82895,-0.38439 c -0.39278,-0.38055 -0.75052,-0.69191 -0.79499,-0.69191 -0.0445,0 0.24051,0.31136 0.63328,0.69191 0.39278,0.38054 0.75052,0.6919 0.79498,0.6919 0.0445,0 -0.2405,-0.31136 -0.63327,-0.6919 z m -51.42023,0 c 0.30169,-0.29598 0.51215,-0.53815 0.46769,-0.53815 -0.0445,0 -0.32769,0.24217 -0.62939,0.53815 -0.30169,0.29598 -0.51215,0.53814 -0.46769,0.53814 0.0445,0 0.32769,-0.24216 0.62939,-0.53814 z m 42.20339,0.4851 c 0,-0.0292 -0.16371,-0.18486 -0.36382,-0.34596 l -0.36382,-0.2929 0.30803,0.34595 c 0.28948,0.32511 0.41961,0.41595 0.41961,0.29291 z m 10.67213,-0.30455 c 0,-0.0275 -0.20011,-0.21781 -0.44468,-0.42282 l -0.44467,-0.37275 0.39201,0.42282 c 0.36639,0.3952 0.49734,0.49334 0.49734,0.37275 z m -41.37428,-0.5265 c 0.20113,-0.24387 0.19541,-0.24931 -0.061,-0.0581 -0.15564,0.11607 -0.28298,0.23715 -0.28298,0.26908 0,0.12654 0.13279,0.0451 0.34402,-0.21102 z m 0.22193,-1.26849 c 0.0549,-0.0846 0.0229,-0.15376 -0.0713,-0.15376 -0.0942,0 -0.17125,0.0692 -0.17125,0.15376 0,0.0846 0.0321,0.15376 0.0713,0.15376 0.0392,0 0.11628,-0.0692 0.17125,-0.15376 z m -5.49776,-2.92136 c 0.43798,-0.42283 0.75995,-0.76879 0.71548,-0.76879 -0.0445,0 -0.4392,0.34596 -0.87719,0.76879 -0.43798,0.42282 -0.75995,0.76878 -0.71548,0.76878 0.0445,0 0.4392,-0.34596 0.87719,-0.76878 z m 40.66725,0.41705 c 0,-0.0244 -0.38202,-0.38757 -0.84892,-0.80722 l -0.84892,-0.763 0.80242,0.80722 c 0.74561,0.75008 0.89542,0.87773 0.89542,0.763 z m -41.78897,-0.60925 0.47492,-0.4997 -0.52552,0.45159 c -0.28904,0.24838 -0.52552,0.47324 -0.52552,0.49971 0,0.11878 0.13342,0.0142 0.57612,-0.4516 z m 42.75916,0.29587 c 0,-0.0275 -0.2001,-0.21781 -0.44467,-0.42282 l -0.44468,-0.37275 0.39202,0.42282 c 0.36639,0.3952 0.49733,0.49334 0.49733,0.37275 z M 91.85879,139.8213 c 0.16097,-0.16913 0.25629,-0.30751 0.21183,-0.30751 -0.0445,0 -0.21255,0.13838 -0.37352,0.30751 -0.16097,0.16913 -0.25629,0.30752 -0.21183,0.30752 0.0445,0 0.21255,-0.13839 0.37352,-0.30752 z m 22.67708,-1.99496 c 2.64644,-0.0824 7.54039,-0.226 10.87543,-0.31904 l 6.0637,-0.16914 13.78483,-5.93655 c 7.58165,-3.2651 13.78419,-5.97563 13.78342,-6.0234 -6.1e-4,-0.0478 -6.19078,-2.75067 -13.75557,-6.00645 l -13.75417,-5.91961 -2.69728,-0.0993 c -1.48351,-0.0546 -7.37435,-0.22372 -13.09075,-0.37577 -9.00098,-0.23941 -11.27568,-0.25164 -16.97838,-0.0912 -3.6217,0.10185 -9.45911,0.25886 -12.97202,0.3489 l -6.3871,0.16372 -13.7444,5.91758 c -7.559416,3.25466 -13.794404,5.96516 -13.855525,6.02333 -0.06112,0.0582 6.123864,2.78557 13.744405,6.06088 l 13.85552,5.95511 6.22541,0.16724 c 3.42397,0.092 7.89899,0.22107 9.94448,0.28686 5.55167,0.17858 13.53923,0.1857 18.958,0.0169 z m 5.38507,-29.51763 -0.0202,-2.99087 -6.17859,-13.297471 c -3.39822,-7.31361 -6.23976,-13.301875 -6.31454,-13.307275 -0.0748,-0.005 -2.91383,5.975145 -6.30901,13.290095 l -6.17306,13.299891 -0.0531,2.97774 -0.053,2.97773 4.6642,-0.1325 c 4.7123,-0.13385 7.50061,-0.1158 14.12359,0.0914 2.00101,0.0626 4.24473,0.1067 4.98603,0.098 l 1.34781,-0.0159 z m -26.81698,0.33857 c 0.0178,-1.41648 0.0169,-2.8315 -0.002,-3.14448 -0.0238,-0.39226 0.18889,-1.0481 0.68448,-2.11095 0.39543,-0.84804 0.74198,-1.67762 0.77011,-1.8435 0.0361,-0.2126 -0.51691,-0.84875 -1.87393,-2.155781 -1.05881,-1.01979 -1.96727,-1.85417 -2.01881,-1.85417 -0.0516,0 0.81365,0.86488 1.92266,1.92196 1.10901,1.057071 1.98047,1.921951 1.93658,1.921951 -0.0439,0 -1.68,-1.539141 -3.6358,-3.420301 -1.95579,-1.88116 -2.81016,-2.73004 -1.89858,-1.8864 0.91157,0.84365 1.65741,1.46544 1.65741,1.38175 0,-0.29069 -7.18956,-6.96043 -7.45463,-6.91564 -0.36319,0.0614 -5.48202,2.69743 -5.47791,2.82097 0.002,0.0557 3.32094,3.97583 7.37576,8.711511 4.05482,4.73569 7.45436,8.73143 7.55453,8.87942 0.10017,0.14798 0.23739,0.26907 0.30494,0.26907 0.0675,0 0.13739,-1.15894 0.15523,-2.57541 z m -8.12026,-16.451901 -1.69495,-1.65288 1.73826,1.6117 c 1.61454,1.49697 1.81174,1.69406 1.69495,1.69406 -0.0238,0 -0.80603,-0.7438 -1.73826,-1.65288 z m 44.53512,10.118411 c 4.14759,-4.857611 7.51902,-8.894901 7.49208,-8.971761 -0.0577,-0.16472 -5.26923,-2.8764 -5.52804,-2.8764 -0.0973,0 -2.69258,2.43977 -5.76741,5.42171 l -5.59058,5.421731 0.19918,0.53632 c 0.10954,0.29498 0.46905,1.08985 0.79889,1.76638 l 0.59972,1.23004 -0.0231,2.40488 c -0.0198,2.05883 0.10266,4.08864 0.23786,3.94269 0.0222,-0.0239 3.43384,-4.01798 7.58143,-8.87559 z m -4.18837,-5.851681 c 2.84486,-2.70611 5.20884,-4.92019 5.25331,-4.92019 0.0445,0 -2.24676,2.21408 -5.09161,4.92019 -2.84486,2.70611 -5.20886,4.920201 -5.25332,4.920201 -0.0445,0 2.24676,-2.214091 5.09162,-4.920201 z"
       id="path1444" />
    <g
       id="g1947"
       transform="matrix(0.62520014,0,0,0.56029701,-7.8168728,12.08338)">
      <path
         style="fill:#000000;stroke-width:0.264583"
         d="m 106.63692,465.69924 c -0.0874,-0.27533 -0.3633,-0.55605 -0.61315,-0.62382 -0.30675,-0.0832 -2.03865,-3.72232 -5.33364,-11.20721 -2.683659,-6.0962 -7.334339,-16.62811 -10.334839,-23.40425 l -5.45546,-12.32026 -0.066,-5.57917 c -0.0363,-3.06854 -0.15272,-5.90359 -0.25876,-6.30011 -0.18825,-0.70388 -0.47051,-0.49133 -11.92487,8.97951 -10.60956,8.77233 -11.77363,9.66282 -12.1666,9.30719 -0.29419,-0.26624 -0.56077,-0.31343 -0.82537,-0.14611 -0.21496,0.13593 -0.5099,0.24714 -0.65542,0.24714 -0.14552,0 -0.1005,-0.10392 0.10004,-0.23095 0.20358,-0.12894 0.27662,-0.37335 0.16537,-0.55336 -0.15417,-0.24945 -0.24358,-0.25071 -0.3951,-0.006 -0.27151,0.43933 -4.23593,-7.46734 -4.23593,-8.44816 0,-0.66844 1.64611,-2.36293 12.50156,-12.86898 6.87586,-6.65455 12.53687,-12.18643 12.58003,-12.29307 0.0776,-0.19178 -5.618,-0.44873 -13.8569,-0.62513 l -4.25343,-0.0911 -8.31428,-3.76583 c -4.57285,-2.07121 -15.01154,-6.80112 -23.19709,-10.51091 -8.18554,-3.70979 -14.88281,-6.88276 -14.88281,-7.05104 0,-0.16828 -0.24275,-0.45756 -0.53943,-0.64284 -0.61509,-0.38413 -0.45986,-0.91101 0.19443,-0.65993 0.28864,0.11076 0.36838,0.0631 0.2405,-0.14385 -0.23627,-0.38229 -0.0189,-0.39419 0.65106,-0.0357 0.63825,0.34158 0.67134,0.0408 0.0487,-0.44316 -0.43787,-0.34035 -0.43428,-0.38315 0.0661,-0.78818 0.51201,-0.41441 0.50486,-0.42264 -0.22061,-0.25398 -0.55076,0.12804 -0.69725,0.0893 -0.55191,-0.14584 0.13358,-0.21614 0.0632,-0.26849 -0.21654,-0.16113 -0.7665,0.29413 -0.70626,-0.12054 0.14443,-0.99431 0.64879,-0.6664 4.74016,-2.63111 17.64567,-8.47361 9.24057,-4.18333 19.53948,-8.8484 22.88646,-10.36682 l 6.08541,-2.76077 6.74688,-0.13488 c 3.71078,-0.0742 8.10074,-0.21473 9.75546,-0.31232 l 3.00858,-0.17743 -12.25123,-15.08125 c -6.73818,-8.29469 -12.34853,-15.12094 -12.46744,-15.16944 -0.11891,-0.0485 -0.2162,-0.29259 -0.2162,-0.5424 0,-0.24981 -0.13251,-0.5867 -0.29445,-0.74865 -0.35028,-0.35027 -0.0916,-0.86972 0.43304,-0.86972 0.20457,0 0.49939,-0.23812 0.65516,-0.52916 0.15576,-0.29105 0.38528,-0.52917 0.51005,-0.52917 0.12477,0 2.76973,-1.36836 5.87767,-3.0408 5.72516,-3.0808 6.84426,-3.5514 5.89026,-2.47695 -0.50101,0.56426 -0.50049,0.56581 0.0853,0.25846 0.50699,-0.26599 0.56611,-0.24862 0.423,0.12433 -0.13541,0.35285 -0.053,0.39754 0.44285,0.24017 0.50451,-0.16013 0.57928,-0.11534 0.43502,0.26059 -0.13276,0.34596 1.94601,2.58752 8.73887,9.42324 4.90218,4.93311 8.98998,8.96929 9.08399,8.96929 0.094,0 2.6289,-5.56617 5.6331,-12.36927 3.0042,-6.8031 6.762619,-15.31247 8.352039,-18.90971 1.9315,-4.37144 3.15575,-6.80632 3.69161,-7.34219 0.93905,-0.93904 1.22331,-1.01034 1.02642,-0.25746 -0.1231,0.47075 -0.0857,0.49756 0.27704,0.19844 0.37474,-0.30904 0.38433,-0.28008 0.09,0.27213 -0.41641,0.78135 -0.14228,1.10075 0.36137,0.42104 0.37221,-0.50233 0.38408,-0.50205 0.80472,0.0193 0.41873,0.519 0.42358,0.51709 0.25259,-0.0993 -0.12641,-0.45571 -0.086,-0.57387 0.14694,-0.42989 0.23069,0.14257 0.27096,0.04 0.14281,-0.36374 -0.22779,-0.7177 0.27099,-0.74309 0.65094,-0.0331 0.15576,0.29104 0.43442,0.52917 0.61925,0.52917 0.29108,0 4.40918,9.12881 14.8304,32.87534 1.32535,3.02004 2.52879,5.45916 2.67431,5.42028 0.55577,-0.14848 17.85937,-17.83833 17.85937,-18.25802 0,-0.3044 0.13773,-0.38897 0.44281,-0.2719 0.3372,0.12939 0.40173,0.0628 0.27054,-0.27901 -0.14351,-0.37399 -0.0878,-0.40374 0.33354,-0.17823 0.80567,0.43118 0.91698,0.31499 0.23919,-0.24966 -1.49369,-1.24437 0.53699,-0.38052 5.8529,2.48982 3.08412,1.66528 5.78192,3.06426 5.99511,3.10885 0.21319,0.0446 0.35156,0.18121 0.30749,0.3036 -0.0441,0.1224 0.2473,0.39409 0.64748,0.60377 0.69733,0.36536 1.01427,1.15808 0.46302,1.15808 -0.14552,0 -0.26458,0.17905 -0.26458,0.3979 0,0.21885 -1.53486,2.27267 -3.41081,4.56406 -9.77424,11.93879 -21.45697,26.41514 -21.4584,26.5896 -7.9e-4,0.10914 1.33783,0.21572 2.97494,0.23684 1.63711,0.0211 4.54073,0.0691 6.45249,0.10667 l 3.47593,0.0683 19.14595,8.66775 c 10.53027,4.76727 20.93188,9.47493 23.11469,10.46146 2.24922,1.01655 4.00478,1.96687 4.05191,2.19336 0.0457,0.21982 0.31362,0.47281 0.59531,0.56221 0.28168,0.0894 0.51216,0.34115 0.51216,0.55943 0,0.28427 -0.15955,0.34624 -0.5623,0.21841 -0.35195,-0.1117 -0.50028,-0.0781 -0.39651,0.0898 0.10068,0.16291 -0.0681,0.21828 -0.42989,0.141 -0.589,-0.12583 -0.58975,-0.12241 -0.0665,0.30561 0.4998,0.40885 0.50347,0.45194 0.0661,0.77641 -0.66536,0.49367 -0.58092,0.59605 0.46303,0.56142 0.99898,-0.0331 1.29141,0.4982 0.42544,0.77305 -0.27533,0.0874 -0.55619,0.3633 -0.62414,0.61314 -0.0827,0.30421 -4.13443,2.26573 -12.26554,5.93805 -6.67811,3.01608 -17.02358,7.70253 -22.98993,10.41434 l -10.84792,4.93055 -5.95312,0.12703 c -3.27422,0.0699 -5.98234,0.15528 -6.01804,0.18981 -0.0855,0.0827 6.0769,6.13708 16.19946,15.91538 8.8016,8.50225 9.39774,9.11728 9.39774,9.69545 0,0.38029 -4.10463,8.59839 -4.51829,9.04629 -0.13083,0.14166 -0.40088,0.0915 -0.6585,-0.1223 -0.37569,-0.3118 -0.48702,-0.29365 -0.79669,0.12985 -0.2556,0.34954 -0.45827,0.41552 -0.69897,0.22753 -0.18645,-0.14562 -5.53264,-4.55494 -11.88043,-9.7985 l -11.54142,-9.53374 -0.18353,2.98036 c -0.10094,1.63919 -0.16137,4.45327 -0.13427,6.25351 l 0.0493,3.27315 -3.04435,6.87917 c -4.73843,10.70716 -8.85604,20.02288 -12.10408,27.38437 -5.19352,11.77082 -5.52615,12.46234 -6.37692,13.25707 -0.96903,0.90521 -1.13757,0.94706 -0.9517,0.23632 0.0777,-0.29726 0.0286,-0.46162 -0.11204,-0.37471 -0.14862,0.0919 -0.1839,-0.15014 -0.0867,-0.59494 l 0.16378,-0.74978 -0.51763,0.63851 -0.51763,0.63851 -0.31845,-0.59503 c -0.17514,-0.32726 -0.37797,-0.53549 -0.45073,-0.46273 -0.0728,0.0728 -8e-4,0.37794 0.15985,0.67817 0.23775,0.44424 0.2207,0.51846 -0.0916,0.39863 -0.28251,-0.10841 -0.34576,-0.002 -0.23984,0.40283 0.17973,0.68728 -0.35316,0.73351 -0.57026,0.0495 z m 9.78348,-20.66607 c 4.33021,-9.82265 8.86919,-20.1071 10.08663,-22.85432 l 2.21353,-4.99494 -0.005,-2.2811 c -0.003,-1.2546 0.13844,-7.30901 0.31418,-13.45425 0.17573,-6.14523 0.26202,-11.23065 0.19174,-11.30093 -0.0703,-0.0703 -5.5397,0.0369 -12.15428,0.23826 -9.15845,0.27874 -14.12903,0.30194 -20.842969,0.0973 -4.84906,-0.14783 -8.88231,-0.20293 -8.96278,-0.12246 -0.12204,0.12204 0.0585,7.90001 0.56396,24.29644 l 0.0872,2.82917 4.8305,10.92916 c 2.65678,6.01105 6.91045,15.63214 9.452599,21.38021 2.54216,5.74808 4.92492,11.14141 5.29503,11.98519 0.3701,0.84377 0.75932,1.43909 0.86491,1.32291 0.1056,-0.11617 3.73488,-8.24794 8.06509,-18.0706 z M 59.928891,423.60192 c 0,-0.14552 -0.12609,-0.26458 -0.2802,-0.26458 -0.15411,0 -0.20661,0.11906 -0.11667,0.26458 0.0899,0.14552 0.21602,0.26459 0.2802,0.26459 0.0642,0 0.11667,-0.11907 0.11667,-0.26459 z m 2.77813,-0.79375 c 0.26339,-0.29104 0.41936,-0.52916 0.3466,-0.52916 -0.0728,0 -0.3478,0.23812 -0.61119,0.52916 -0.26339,0.29105 -0.41936,0.52917 -0.3466,0.52917 0.0728,0 0.3478,-0.23812 0.61119,-0.52917 z m 91.413539,0.1733 c 0,-0.0502 -0.2679,-0.3181 -0.59532,-0.59531 l -0.59531,-0.50403 0.50403,0.59531 c 0.47366,0.55945 0.6866,0.71577 0.6866,0.50403 z m -96.673879,-3.92515 c -0.95685,-1.79278 -1.7423,-3.15337 -1.74543,-3.02354 -0.008,0.33667 3.26209,6.50623 3.38402,6.38429 0.0556,-0.0556 -0.68173,-1.56797 -1.63859,-3.36075 z m 101.914169,-0.0185 c 0.88873,-1.70987 1.52955,-3.10885 1.42404,-3.10885 -0.10552,0 -0.94483,1.51804 -1.86513,3.37343 -2.06013,4.15333 -1.76235,3.9747 0.44109,-0.26458 z m -95.164869,2.51354 c 0.3291,-0.41964 0.31974,-0.429 -0.0999,-0.0999 -0.44073,0.34564 -0.58089,0.56291 -0.36313,0.56291 0.0549,0 0.2633,-0.20836 0.46303,-0.46302 z m 88.337079,0.0985 c 0,-0.0549 -0.20836,-0.2633 -0.46303,-0.46302 -0.41964,-0.3291 -0.429,-0.31975 -0.0999,0.0999 0.34564,0.44073 0.56292,0.58089 0.56292,0.36312 z m -79.909269,-10.18051 11.94855,-9.88354 -0.18522,-5.59459 c -0.10186,-3.07702 -0.21996,-5.63486 -0.26244,-5.68408 -0.0425,-0.0492 -5.71225,5.35486 -12.59952,12.00909 -6.88727,6.65422 -12.85838,12.42044 -13.26914,12.81381 l -0.74682,0.71522 1.40328,2.82162 c 0.77181,1.5519 1.48417,2.79111 1.58302,2.75382 0.0989,-0.0373 5.55659,-4.51541 12.12829,-9.95135 z m 84.936349,7.23099 1.45521,-2.78021 -2.11667,-2.04932 c -1.16417,-1.12712 -5.68854,-5.49825 -10.05417,-9.71362 -4.36562,-4.21537 -9.39409,-9.08749 -11.17437,-10.82694 -1.78028,-1.73946 -3.28503,-3.11111 -3.34388,-3.04813 -0.0589,0.063 -0.15008,2.65178 -0.20271,5.75288 l -0.0957,5.63836 11.90625,9.88285 c 6.54843,5.43556 11.96578,9.89218 12.03854,9.90359 0.0728,0.0114 0.78713,-1.23035 1.5875,-2.75946 z m -91.942709,1.7265 c 0.26339,-0.29104 0.41936,-0.52916 0.3466,-0.52916 -0.0728,0 -0.34779,0.23812 -0.61118,0.52916 -0.26339,0.29105 -0.41936,0.52917 -0.3466,0.52917 0.0728,0 0.34779,-0.23812 0.61118,-0.52917 z m 85.328129,-0.0913 c 0,-0.0502 -0.2679,-0.3181 -0.59532,-0.59531 l -0.59531,-0.50403 0.50403,0.59531 c 0.47366,0.55945 0.6866,0.71576 0.6866,0.50403 z m -83.740629,-1.23163 c 0.26339,-0.29105 0.41936,-0.52917 0.3466,-0.52917 -0.0728,0 -0.34779,0.23812 -0.61118,0.52917 -0.26339,0.29104 -0.41936,0.52916 -0.3466,0.52916 0.0728,0 0.34779,-0.23812 0.61118,-0.52916 z m 82.417709,0.1733 c 0,-0.0502 -0.26789,-0.3181 -0.59531,-0.59532 l -0.59532,-0.50403 0.50403,0.59532 c 0.47366,0.55944 0.6866,0.71576 0.6866,0.50403 z m -80.928749,-1.43007 c 0.32911,-0.41965 0.31975,-0.42901 -0.0999,-0.0999 -0.25467,0.19972 -0.46303,0.40808 -0.46303,0.46302 0,0.21776 0.21728,0.0776 0.56292,-0.36312 z m 79.076669,-0.16605 c 0,-0.0549 -0.20836,-0.2633 -0.46303,-0.46302 -0.41964,-0.3291 -0.429,-0.31975 -0.0999,0.0999 0.34564,0.44073 0.56292,0.58089 0.56292,0.36312 z m -77.390629,-1.22302 c 0.26339,-0.29104 0.41936,-0.52916 0.3466,-0.52916 -0.0728,0 -0.34779,0.23812 -0.61118,0.52916 -0.26339,0.29105 -0.41936,0.52917 -0.3466,0.52917 0.0728,0 0.34779,-0.23812 0.61118,-0.52917 z m 76.067709,0.16469 c 0,-0.0549 -0.20836,-0.2633 -0.46302,-0.46302 -0.41965,-0.32911 -0.42901,-0.31975 -0.0999,0.0999 0.34565,0.44073 0.56292,0.58088 0.56292,0.36312 z m -90.915709,-1.36905 c 0.0904,-0.23546 0.046,-0.34167 -0.10398,-0.24897 -0.14386,0.0889 -0.26156,0.27368 -0.26156,0.41062 0,0.38058 0.18965,0.29672 0.36554,-0.16165 z m 16.33696,-0.0524 c 0.32911,-0.41964 0.31975,-0.429 -0.0999,-0.0999 -0.25467,0.19972 -0.46303,0.40808 -0.46303,0.46302 0,0.21776 0.21728,0.0776 0.56292,-0.36313 z m 89.163659,-0.1367 c -0.2613,-0.25936 -0.29169,-0.22897 -0.14811,0.14811 0.0994,0.26094 0.2473,0.40779 0.32877,0.32632 0.0815,-0.0815 1.7e-4,-0.29495 -0.18066,-0.47443 z M 58.870561,413.94463 c 0.79042,-0.80036 1.3776,-1.45521 1.30484,-1.45521 -0.0728,0 -0.779,0.65485 -1.56943,1.45521 -0.79042,0.80037 -1.3776,1.45521 -1.30484,1.45521 0.0728,0 0.77901,-0.65484 1.56943,-1.45521 z m 85.989579,1.36393 c 0,-0.0502 -0.26789,-0.3181 -0.59531,-0.59532 l -0.59532,-0.50403 0.50403,0.59532 c 0.47366,0.55944 0.6866,0.71576 0.6866,0.50403 z m -71.569789,-1.23164 c 0.26339,-0.29104 0.41936,-0.52916 0.3466,-0.52916 -0.0728,0 -0.34779,0.23812 -0.61118,0.52916 -0.26339,0.29104 -0.41936,0.52917 -0.3466,0.52917 0.0728,0 0.34779,-0.23813 0.61118,-0.52917 z m 85.063539,0.44878 c 0,-0.0442 -0.44649,-0.4907 -0.99219,-0.99219 l -0.99219,-0.91179 0.9118,0.99218 c 0.84868,0.92351 1.07258,1.11384 1.07258,0.9118 z M 57.150771,413.54776 c 0.26339,-0.29105 0.41936,-0.52917 0.3466,-0.52917 -0.0728,0 -0.3478,0.23812 -0.61119,0.52917 -0.26339,0.29104 -0.41936,0.52916 -0.3466,0.52916 0.0728,0 0.3478,-0.23812 0.61119,-0.52916 z m 86.121869,0.42927 c 0,-0.0549 -0.20836,-0.2633 -0.46302,-0.46302 -0.41965,-0.32911 -0.42901,-0.31975 -0.0999,0.0999 0.34565,0.44073 0.56292,0.58089 0.56292,0.36313 z m -68.394789,-1.22302 c 0.26339,-0.29104 0.41936,-0.52917 0.3466,-0.52917 -0.0728,0 -0.34779,0.23813 -0.61118,0.52917 -0.26339,0.29104 -0.41936,0.52916 -0.3466,0.52916 0.0728,0 0.34779,-0.23812 0.61118,-0.52916 z m 67.071869,0.1733 c 0,-0.0502 -0.26789,-0.3181 -0.59531,-0.59532 l -0.59531,-0.50402 0.50403,0.59531 c 0.47366,0.55944 0.68659,0.71576 0.68659,0.50403 z m -65.616659,-1.36393 c 0.34177,-0.3638 0.56187,-0.66146 0.48911,-0.66146 -0.0728,0 -0.41192,0.29766 -0.7537,0.66146 -0.34177,0.3638 -0.56187,0.66146 -0.48911,0.66146 0.0728,0 0.41192,-0.29766 0.7537,-0.66146 z m 63.764579,-0.23219 c 0,-0.0549 -0.20836,-0.2633 -0.46302,-0.46302 -0.41965,-0.3291 -0.42901,-0.31975 -0.0999,0.0999 0.34565,0.44073 0.56292,0.58089 0.56292,0.36312 z m 14.81667,-0.24507 c 0,-0.0442 -0.44649,-0.4907 -0.99219,-0.99219 l -0.99219,-0.9118 0.9118,0.99219 c 0.84868,0.92351 1.07258,1.11384 1.07258,0.9118 z m -76.959999,-0.9118 c 0.32911,-0.41965 0.31975,-0.429 -0.0999,-0.0999 -0.25466,0.19972 -0.46302,0.40808 -0.46302,0.46302 0,0.21777 0.21727,0.0776 0.56292,-0.36312 z m 60.820409,0.10715 c 0,-0.0502 -0.26789,-0.3181 -0.59531,-0.59531 l -0.59531,-0.50403 0.50403,0.59531 c 0.47366,0.55945 0.68659,0.71577 0.68659,0.50403 z m -59.266659,-1.36392 c 0.34177,-0.3638 0.56187,-0.66146 0.48911,-0.66146 -0.0728,0 -0.41192,0.29766 -0.7537,0.66146 -0.34177,0.3638 -0.56187,0.66146 -0.48911,0.66146 0.0728,0 0.41192,-0.29766 0.7537,-0.66146 z m 57.679159,0.041 c 0,-0.0502 -0.26789,-0.3181 -0.59531,-0.59532 l -0.59531,-0.50402 0.50403,0.59531 c 0.47366,0.55944 0.68659,0.71576 0.68659,0.50403 z m -56.223949,-1.23164 c 0.26339,-0.29104 0.41936,-0.52916 0.34659,-0.52916 -0.0728,0 -0.34779,0.23812 -0.61118,0.52916 -0.26339,0.29105 -0.41936,0.52917 -0.3466,0.52917 0.0728,0 0.3478,-0.23812 0.61119,-0.52917 z m 54.901039,0.1733 c 0,-0.0502 -0.26789,-0.3181 -0.59532,-0.59531 l -0.59531,-0.50403 0.50403,0.59531 c 0.47366,0.55945 0.6866,0.71577 0.6866,0.50403 z m -68.923959,-1.7608 c 0.71666,-0.7276 1.24349,-1.32291 1.17073,-1.32291 -0.0728,0 -0.71865,0.59531 -1.43531,1.32291 -0.71667,0.72761 -1.2435,1.32292 -1.17074,1.32292 0.0728,0 0.71866,-0.59531 1.43532,-1.32292 z m 15.61042,0.26459 c 0.26339,-0.29105 0.41936,-0.52917 0.34659,-0.52917 -0.0728,0 -0.34779,0.23812 -0.61118,0.52917 -0.26339,0.29104 -0.41936,0.52916 -0.3466,0.52916 0.0728,0 0.3478,-0.23812 0.61119,-0.52916 z m 66.807289,-0.66146 c -0.64269,-0.65485 -1.22805,-1.19063 -1.30081,-1.19063 -0.0728,0 0.39354,0.53578 1.03622,1.19063 0.64268,0.65484 1.22804,1.19062 1.3008,1.19062 0.0728,0 -0.39353,-0.53578 -1.03621,-1.19062 z m -84.137499,0 c 0.49365,-0.50932 0.83802,-0.92604 0.76526,-0.92604 -0.0728,0 -0.53619,0.41672 -1.02985,0.92604 -0.49365,0.50932 -0.83802,0.92604 -0.76526,0.92604 0.0728,0 0.53619,-0.41672 1.02985,-0.92604 z m 69.056249,0.83476 c 0,-0.0502 -0.26789,-0.3181 -0.59532,-0.59532 l -0.59531,-0.50403 0.50403,0.59532 c 0.47366,0.55944 0.6866,0.71576 0.6866,0.50403 z m 17.4625,-0.52406 c 0,-0.0474 -0.32743,-0.37481 -0.72761,-0.7276 l -0.7276,-0.64143 0.64143,0.7276 c 0.59952,0.68006 0.81378,0.84894 0.81378,0.64143 z m -67.699589,-0.90601 c 0.32911,-0.41965 0.31975,-0.42901 -0.0999,-0.0999 -0.25466,0.19972 -0.46302,0.40808 -0.46302,0.46302 0,0.21776 0.21727,0.0776 0.56291,-0.36312 z m 0.36313,-2.18282 c 0.0899,-0.14552 0.0374,-0.26458 -0.11668,-0.26458 -0.15411,0 -0.2802,0.11906 -0.2802,0.26458 0,0.14552 0.0525,0.26459 0.11668,0.26459 0.0642,0 0.19026,-0.11907 0.2802,-0.26459 z m -8.99583,-5.02708 c 0.71666,-0.7276 1.24349,-1.32292 1.17073,-1.32292 -0.0728,0 -0.71865,0.59532 -1.43532,1.32292 -0.71666,0.7276 -1.24349,1.32292 -1.17073,1.32292 0.0728,0 0.71865,-0.59532 1.43532,-1.32292 z m 66.542699,0.71766 c 0,-0.0419 -0.62508,-0.66693 -1.38906,-1.38906 l -1.38906,-1.31297 1.31297,1.38906 c 1.22003,1.29074 1.46515,1.5104 1.46515,1.31297 z m -68.378139,-1.04839 0.7771,-0.85989 -0.85989,0.7771 c -0.47295,0.42741 -0.8599,0.81436 -0.8599,0.8599 0,0.2044 0.21832,0.0244 0.94269,-0.77711 z m 69.965639,0.50914 c 0,-0.0474 -0.32742,-0.37481 -0.7276,-0.7276 l -0.72761,-0.64143 0.64144,0.7276 c 0.59951,0.68006 0.81377,0.84894 0.81377,0.64143 z m -60.721869,-7.32216 c 0.26339,-0.29104 0.41936,-0.52917 0.3466,-0.52917 -0.0728,0 -0.34779,0.23813 -0.61118,0.52917 -0.26339,0.29104 -0.41936,0.52917 -0.3466,0.52917 0.0728,0 0.34779,-0.23813 0.61118,-0.52917 z m 37.105869,-3.43293 c 4.33031,-0.14186 12.33814,-0.38891 17.79517,-0.549 l 9.92187,-0.29106 22.55573,-10.21562 c 12.40565,-5.61859 22.5547,-10.28287 22.55344,-10.36507 -0.001,-0.0822 -10.1298,-4.73335 -22.50786,-10.3359 l -22.50557,-10.18646 -4.41349,-0.17091 c -2.42743,-0.094 -12.06644,-0.38498 -21.42003,-0.64662 -14.72806,-0.41198 -18.45009,-0.43302 -27.781249,-0.15702 -5.92609,0.17527 -15.47768,0.44546 -21.22576,0.6004 l -10.45104,0.28172 -22.48958,10.18297 c -12.36927,5.60063 -22.57141,10.26486 -22.67142,10.36496 -0.10001,0.1001 10.02031,4.7934 22.48959,10.42955 l 22.67141,10.24756 10.18646,0.28778 c 5.60255,0.15828 12.9249,0.38042 16.27188,0.49364 9.08404,0.3073 22.153869,0.31955 31.020449,0.0291 z m 8.81145,-50.79395 -0.033,-5.14668 -10.10986,-22.88229 c -5.56041,-12.58526 -10.20995,-22.88988 -10.33231,-22.89916 -0.12235,-0.009 -4.76782,10.28204 -10.323259,22.86959 l -10.10081,22.88646 -0.0868,5.12409 -0.0868,5.12408 7.6319,-0.228 c 7.710599,-0.23034 12.273029,-0.19928 23.110029,0.15733 3.27421,0.10775 6.94555,0.18361 8.15851,0.16858 l 2.20539,-0.0273 z m -43.879879,0.58261 c 0.0292,-2.43747 0.0277,-4.87243 -0.003,-5.41101 -0.0389,-0.675 0.30908,-1.80358 1.11999,-3.63253 0.64703,-1.45931 1.21408,-2.88685 1.26012,-3.17229 0.059,-0.36585 -0.84581,-1.46053 -3.06626,-3.70966 -1.7325,-1.75486 -3.21899,-3.19066 -3.30333,-3.19066 -0.0844,0 1.33135,1.48828 3.14599,3.3073 1.81465,1.81901 3.2406,3.30729 3.16878,3.30729 -0.0718,0 -2.74894,-2.64854 -5.94916,-5.88565 -3.20021,-3.2371 -4.59818,-4.69785 -3.10659,-3.24611 1.49158,1.45175 2.71197,2.52172 2.71197,2.37771 0,-0.50021 -11.76408,-11.9775 -12.1978,-11.90043 -0.59428,0.10561 -8.97008,4.64173 -8.96336,4.85433 0.003,0.0958 5.43396,6.8416 12.06875,14.99077 6.63479,8.14917 12.19736,15.02503 12.36127,15.27969 0.16391,0.25466 0.38844,0.46302 0.49896,0.46302 0.11051,0 0.22481,-1.9943 0.254,-4.43177 z m -13.28696,-28.31042 -2.7734,-2.84427 2.84427,2.7734 c 2.64182,2.57599 2.96449,2.91514 2.7734,2.91514 -0.039,0 -1.3189,-1.27992 -2.84427,-2.84427 z m 72.871589,17.41176 c 6.78658,-8.35898 12.30317,-15.30635 12.25908,-15.43861 -0.0945,-0.28344 -8.62189,-4.94971 -9.04538,-4.94971 -0.15913,0 -4.4058,4.19836 -9.43705,9.32969 l -9.14772,9.3297 0.32591,0.92291 c 0.17925,0.5076 0.7675,1.87541 1.30721,3.03958 l 0.98131,2.11666 -0.0378,4.13831 c -0.0324,3.54284 0.16797,7.03574 0.3892,6.78459 0.0363,-0.0412 5.6187,-6.91414 12.40529,-15.27312 z m -6.85332,-10.06957 c 4.65496,-4.65667 8.52309,-8.46667 8.59585,-8.46667 0.0728,0 -3.67631,3.81 -8.33127,8.46667 -4.65496,4.65667 -8.5231,8.46667 -8.59586,8.46667 -0.0728,0 3.67632,-3.81 8.33128,-8.46667 z"
         id="path1446" />
      <path
         style="fill:#00ff00;stroke:#000000;stroke-width:15.4166;stroke-linecap:round;stroke-linejoin:round;stroke-dasharray:3.85415, 3.85415;stroke-opacity:0.955017;paint-order:stroke markers fill"
         d="m 406.02231,1742.0092 c -1.36669,-2.8793 -18.42996,-41.3678 -37.91838,-85.5299 l -35.4335,-80.2946 -1.12183,-49.7828 -1.12184,-49.7827 78.86745,-0.2444 78.86744,-0.2444 -0.80624,29.1505 c -0.44343,16.0328 -1.14333,38.9063 -1.55533,50.8301 l -0.74909,21.6795 -36.86088,83.316 c -20.27348,45.8238 -37.49584,83.9509 -38.2719,84.727 -0.81076,0.8107 -2.4681,-0.8161 -3.8959,-3.8243 z"
         id="path1540"
         transform="scale(0.26458333)" />
      <path
         style="fill:#00ff00;stroke:#000000;stroke-width:15.4166;stroke-linecap:round;stroke-linejoin:round;stroke-dasharray:3.85415, 3.85415;stroke-opacity:0.955017;paint-order:stroke markers fill"
         d="m 223.45978,1582.0135 -4.99292,-9.3677 22.04838,-21.6416 c 36.80309,-36.1242 76.2417,-73.7214 76.77387,-73.1893 0.27626,0.2763 0.62419,9.3389 0.77317,20.1392 l 0.27087,19.6368 -38.5464,31.8311 c -21.20052,17.5072 -41.42362,34.11 -44.94022,36.8952 l -6.39382,5.064 z"
         id="path1579"
         transform="scale(0.26458333)" />
      <path
         style="fill:#00ff00;stroke:#000000;stroke-width:15.4166;stroke-linecap:round;stroke-linejoin:round;stroke-dasharray:3.85415, 3.85415;stroke-opacity:0.955017;paint-order:stroke markers fill"
         d="m 346.87304,1463.5641 c -9.27404,-0.3169 -37.93349,-1.2343 -63.68769,-2.0384 l -46.82579,-1.4622 -48.72488,-22.0165 c -80.98729,-36.5943 -118.582539,-54.0851 -118.556921,-55.1572 0.01338,-0.5601 37.771961,-18.1179 83.907941,-39.0175 l 83.88362,-37.9991 72.26521,-1.981 c 70.06434,-1.9206 158.71014,-1.2983 223.21923,1.5669 l 27.30019,1.2126 73.87111,33.8224 c 40.62911,18.6023 78.13843,35.8072 83.35407,38.2331 l 9.48296,4.4108 -9.48296,4.3736 c -5.21564,2.4055 -43.08629,19.6796 -84.15702,38.3869 l -74.67405,34.0134 -41.75324,1.4455 c -50.63296,1.753 -146.25717,2.9985 -169.42178,2.2067 z"
         id="path1618"
         transform="scale(0.26458333)" />
      <path
         style="fill:#00ff00;stroke:#000000;stroke-width:15.4166;stroke-linecap:round;stroke-linejoin:round;stroke-dasharray:3.85415, 3.85415;stroke-opacity:0.955017;paint-order:stroke markers fill"
         d="m 332.42465,1272.0013 -0.005,-18.3343 38.01799,-85.689 c 20.90989,-47.129 38.5679,-85.1283 39.24,-84.4429 0.67211,0.6853 17.77272,38.4627 38.00135,83.9496 l 36.77934,82.7035 1.07498,20.213 1.07499,20.213 -77.08966,-0.1392 -77.08966,-0.1394 z"
         id="path1657"
         transform="scale(0.26458333)" />
      <path
         style="fill:#00ff00;stroke:#000000;stroke-width:15.4166;stroke-linecap:round;stroke-linejoin:round;stroke-dasharray:3.85415, 3.85415;stroke-opacity:0.955017;paint-order:stroke markers fill"
         d="m 498.8508,1283.0087 c -0.56307,-2.8153 -1.02376,-11.846 -1.02376,-20.0682 0,-12.6522 -0.65738,-16.4652 -4.27807,-24.8138 l -4.27807,-9.8644 31.57826,-31.6079 c 17.36805,-17.3844 31.57827,-32.3825 31.57827,-33.3292 0,-0.9468 1.73739,-2.6512 3.86088,-3.7876 3.50642,-1.8766 5.23876,-1.2935 18.86925,6.3512 8.2546,4.6297 15.21858,8.5984 15.4755,8.8195 0.45993,0.3957 -26.81797,34.7039 -67.67388,85.1153 -11.45316,14.1319 -21.33259,26.2814 -21.95428,26.9991 -0.62169,0.7176 -1.59103,-0.9987 -2.1541,-3.814 z"
         id="path1696"
         transform="scale(0.26458333)" />
      <path
         style="fill:#00ff00;stroke:#000000;stroke-width:15.4166;stroke-linecap:round;stroke-linejoin:round;stroke-dasharray:3.85415, 3.85415;stroke-opacity:0.955017;paint-order:stroke markers fill"
         d="m 273.80487,1233.1961 c -24.73076,-30.6479 -44.96502,-56.594 -44.96502,-57.6579 0,-1.064 6.69429,-5.5487 14.8762,-9.966 l 14.8762,-8.0314 13.28241,12.5999 c 7.30533,6.93 23.12306,22.7287 35.15052,35.1082 l 21.86811,22.5083 -4.14973,9.6096 c -3.50965,8.1274 -4.29039,12.8444 -5.0617,30.5812 l -0.91196,20.9715 z"
         id="path1774"
         transform="scale(0.26458333)" />
      <path
         style="fill:#00ff00;stroke:#000000;stroke-width:15.4166;stroke-linecap:round;stroke-linejoin:round;stroke-dasharray:3.85415, 3.85415;stroke-opacity:0.955017;paint-order:stroke markers fill"
         d="m 544.39796,1554.5074 c -31.0447,-25.7817 -44.33015,-37.7875 -44.72793,-40.4199 -0.31122,-2.0594 -0.0572,-11.2082 0.56457,-20.3306 l 1.13043,-16.586 13.08552,12.6108 c 7.19704,6.936 29.29315,28.2689 49.10247,47.4066 l 36.01695,34.7957 -2.77004,6.1151 c -1.52353,3.3632 -4.00076,7.683 -5.50497,9.5994 -2.724,3.4704 -2.91131,3.3378 -46.897,-33.1911 z"
         id="path1813"
         transform="scale(0.26458333)" />
    </g>
    <g
       id="g2412"
       transform="matrix(0.51041768,0,0,0.4006154,29.797148,-29.958434)">
      <path
         style="fill:#000000;stroke-width:0.264583"
         d="m 242.60259,291.91812 c -0.0874,-0.27533 -0.3633,-0.55605 -0.61315,-0.62382 -0.30675,-0.0832 -2.03865,-3.72232 -5.33364,-11.20721 -2.68366,-6.0962 -7.33434,-16.62811 -10.33484,-23.40425 l -5.45546,-12.32026 -0.066,-5.57917 c -0.0363,-3.06854 -0.15272,-5.90359 -0.25876,-6.30011 -0.18825,-0.70388 -0.47051,-0.49133 -11.92487,8.97951 -10.60956,8.77233 -11.77363,9.66282 -12.1666,9.30719 -0.29419,-0.26624 -0.56077,-0.31343 -0.82537,-0.14611 -0.21496,0.13593 -0.5099,0.24714 -0.65542,0.24714 -0.14552,0 -0.1005,-0.10392 0.10004,-0.23095 0.20358,-0.12894 0.27662,-0.37335 0.16537,-0.55336 -0.15417,-0.24945 -0.24358,-0.25071 -0.3951,-0.006 -0.27151,0.43933 -4.23593,-7.46734 -4.23593,-8.44816 0,-0.66844 1.64611,-2.36293 12.50156,-12.86898 6.87586,-6.65455 12.53687,-12.18643 12.58003,-12.29307 0.0776,-0.19178 -5.618,-0.44873 -13.8569,-0.62513 l -4.25343,-0.0911 -8.31428,-3.76583 c -4.57285,-2.07121 -15.01154,-6.80112 -23.19709,-10.51091 -8.18554,-3.70979 -14.88281,-6.88276 -14.88281,-7.05104 0,-0.16828 -0.24275,-0.45756 -0.53943,-0.64284 -0.61509,-0.38413 -0.45986,-0.91101 0.19443,-0.65993 0.28864,0.11076 0.36838,0.0631 0.2405,-0.14385 -0.23627,-0.38229 -0.0189,-0.39419 0.65106,-0.0357 0.63825,0.34158 0.67134,0.0408 0.0487,-0.44316 -0.43787,-0.34035 -0.43428,-0.38315 0.0661,-0.78818 0.51201,-0.41441 0.50486,-0.42264 -0.22061,-0.25398 -0.55076,0.12804 -0.69725,0.0893 -0.55191,-0.14584 0.13358,-0.21614 0.0632,-0.26849 -0.21654,-0.16113 -0.7665,0.29413 -0.70626,-0.12054 0.14443,-0.99431 0.64879,-0.6664 4.74016,-2.63111 17.64567,-8.47361 9.24057,-4.18333 19.53948,-8.8484 22.88646,-10.36682 l 6.08541,-2.76077 6.74688,-0.13488 c 3.71078,-0.0742 8.10074,-0.21473 9.75546,-0.31232 l 3.00858,-0.17743 -12.25123,-15.08125 c -6.73818,-8.29469 -12.34853,-15.12094 -12.46744,-15.16944 -0.11891,-0.0485 -0.2162,-0.29259 -0.2162,-0.5424 0,-0.24981 -0.13251,-0.5867 -0.29445,-0.74865 -0.35028,-0.35027 -0.0916,-0.86972 0.43304,-0.86972 0.20457,0 0.49939,-0.23812 0.65516,-0.52916 0.15576,-0.29105 0.38528,-0.52917 0.51005,-0.52917 0.12477,0 2.76973,-1.36836 5.87767,-3.0408 5.72516,-3.0808 6.84426,-3.5514 5.89026,-2.47695 -0.50101,0.56426 -0.50049,0.56581 0.0853,0.25846 0.50699,-0.26599 0.56611,-0.24862 0.423,0.12433 -0.13541,0.35285 -0.053,0.39754 0.44285,0.24017 0.50451,-0.16013 0.57928,-0.11534 0.43502,0.26059 -0.13276,0.34596 1.94601,2.58752 8.73887,9.42324 4.90218,4.93311 8.98998,8.96929 9.08399,8.96929 0.094,0 2.6289,-5.56617 5.6331,-12.36927 3.0042,-6.8031 6.76262,-15.31247 8.35204,-18.90971 1.9315,-4.37144 3.15575,-6.80632 3.69161,-7.34219 0.93905,-0.93904 1.22331,-1.01034 1.02642,-0.25746 -0.1231,0.47075 -0.0857,0.49756 0.27704,0.19844 0.37474,-0.30904 0.38433,-0.28008 0.09,0.27213 -0.41641,0.78135 -0.14228,1.10075 0.36137,0.42104 0.37221,-0.50233 0.38408,-0.50205 0.80472,0.0193 0.41873,0.519 0.42358,0.51709 0.25259,-0.0993 -0.12641,-0.45571 -0.086,-0.57387 0.14694,-0.42989 0.23069,0.14257 0.27096,0.04 0.14281,-0.36374 -0.22779,-0.7177 0.27099,-0.74309 0.65094,-0.0331 0.15576,0.29104 0.43442,0.52917 0.61925,0.52917 0.29108,0 4.40918,9.12881 14.8304,32.87534 1.32535,3.02004 2.52879,5.45916 2.67431,5.42028 0.55577,-0.14848 17.85937,-17.83833 17.85937,-18.25802 0,-0.3044 0.13773,-0.38897 0.44281,-0.2719 0.3372,0.12939 0.40173,0.0628 0.27054,-0.27901 -0.14351,-0.37399 -0.0878,-0.40374 0.33354,-0.17823 0.80567,0.43118 0.91698,0.31499 0.23919,-0.24966 -1.49369,-1.24437 0.53699,-0.38052 5.8529,2.48982 3.08412,1.66528 5.78192,3.06426 5.99511,3.10885 0.21319,0.0446 0.35156,0.18121 0.30749,0.3036 -0.0441,0.1224 0.2473,0.39409 0.64748,0.60377 0.69733,0.36536 1.01427,1.15808 0.46302,1.15808 -0.14552,0 -0.26458,0.17905 -0.26458,0.3979 0,0.21885 -1.53486,2.27267 -3.41081,4.56406 -9.77424,11.93879 -21.45697,26.41514 -21.4584,26.5896 -7.9e-4,0.10914 1.33783,0.21572 2.97494,0.23684 1.63711,0.0211 4.54073,0.0691 6.45249,0.10667 l 3.47593,0.0683 19.14595,8.66775 c 10.53027,4.76727 20.93188,9.47493 23.11469,10.46146 2.24922,1.01655 4.00478,1.96687 4.05191,2.19336 0.0457,0.21982 0.31362,0.47281 0.59531,0.56221 0.28168,0.0894 0.51216,0.34115 0.51216,0.55943 0,0.28427 -0.15955,0.34624 -0.5623,0.21841 -0.35195,-0.1117 -0.50028,-0.0781 -0.39651,0.0898 0.10068,0.16291 -0.0681,0.21828 -0.42989,0.141 -0.589,-0.12583 -0.58975,-0.12241 -0.0665,0.30561 0.4998,0.40885 0.50347,0.45194 0.0661,0.77641 -0.66536,0.49367 -0.58092,0.59605 0.46303,0.56142 0.99898,-0.0331 1.29141,0.4982 0.42544,0.77305 -0.27533,0.0874 -0.55619,0.3633 -0.62414,0.61314 -0.0827,0.30421 -4.13443,2.26573 -12.26554,5.93805 -6.67811,3.01608 -17.02358,7.70253 -22.98993,10.41434 l -10.84792,4.93055 -5.95312,0.12703 c -3.27422,0.0699 -5.98234,0.15528 -6.01804,0.18981 -0.0855,0.0827 6.0769,6.13708 16.19946,15.91538 8.8016,8.50225 9.39774,9.11728 9.39774,9.69545 0,0.38029 -4.10463,8.59839 -4.51829,9.04629 -0.13083,0.14166 -0.40088,0.0915 -0.6585,-0.1223 -0.37569,-0.3118 -0.48702,-0.29365 -0.79669,0.12985 -0.2556,0.34954 -0.45827,0.41552 -0.69897,0.22753 -0.18645,-0.14562 -5.53264,-4.55494 -11.88043,-9.7985 l -11.54142,-9.53374 -0.18353,2.98036 c -0.10094,1.63919 -0.16137,4.45327 -0.13427,6.25351 l 0.0493,3.27315 -3.04435,6.87917 c -4.73843,10.70716 -8.85604,20.02288 -12.10408,27.38437 -5.19352,11.77082 -5.52615,12.46234 -6.37692,13.25707 -0.96903,0.90521 -1.13757,0.94706 -0.9517,0.23632 0.0777,-0.29726 0.0286,-0.46162 -0.11204,-0.37471 -0.14862,0.0919 -0.1839,-0.15014 -0.0867,-0.59494 l 0.16378,-0.74978 -0.51763,0.63851 -0.51763,0.63851 -0.31845,-0.59503 c -0.17514,-0.32726 -0.37797,-0.53549 -0.45073,-0.46273 -0.0728,0.0728 -8e-4,0.37794 0.15985,0.67817 0.23775,0.44424 0.2207,0.51846 -0.0916,0.39863 -0.28251,-0.10841 -0.34576,-0.002 -0.23984,0.40283 0.17973,0.68728 -0.35316,0.73351 -0.57026,0.0495 z m 9.78348,-20.66607 c 4.33021,-9.82265 8.86919,-20.1071 10.08663,-22.85432 l 2.21353,-4.99494 -0.005,-2.2811 c -0.003,-1.2546 0.13844,-7.30901 0.31418,-13.45425 0.17573,-6.14523 0.26202,-11.23065 0.19174,-11.30093 -0.0703,-0.0703 -5.5397,0.0369 -12.15428,0.23826 -9.15845,0.27874 -14.12903,0.30194 -20.84297,0.0973 -4.84906,-0.14783 -8.88231,-0.20293 -8.96278,-0.12246 -0.12204,0.12204 0.0585,7.90001 0.56396,24.29644 l 0.0872,2.82917 4.8305,10.92916 c 2.65678,6.01105 6.91045,15.63214 9.4526,21.38021 2.54216,5.74808 4.92492,11.14141 5.29503,11.98519 0.3701,0.84377 0.75932,1.43909 0.86491,1.32291 0.1056,-0.11617 3.73488,-8.24794 8.06509,-18.0706 z M 195.89456,249.8208 c 0,-0.14552 -0.12609,-0.26458 -0.2802,-0.26458 -0.15411,0 -0.20661,0.11906 -0.11667,0.26458 0.0899,0.14552 0.21602,0.26459 0.2802,0.26459 0.0642,0 0.11667,-0.11907 0.11667,-0.26459 z m 2.77813,-0.79375 c 0.26339,-0.29104 0.41936,-0.52916 0.3466,-0.52916 -0.0728,0 -0.3478,0.23812 -0.61119,0.52916 -0.26339,0.29105 -0.41936,0.52917 -0.3466,0.52917 0.0728,0 0.3478,-0.23812 0.61119,-0.52917 z m 91.41354,0.1733 c 0,-0.0502 -0.2679,-0.3181 -0.59532,-0.59531 l -0.59531,-0.50403 0.50403,0.59531 c 0.47366,0.55945 0.6866,0.71577 0.6866,0.50403 z m -96.67388,-3.92515 c -0.95685,-1.79278 -1.7423,-3.15337 -1.74543,-3.02354 -0.008,0.33667 3.26209,6.50623 3.38402,6.38429 0.0556,-0.0556 -0.68173,-1.56797 -1.63859,-3.36075 z m 101.91417,-0.0185 c 0.88873,-1.70987 1.52955,-3.10885 1.42404,-3.10885 -0.10552,0 -0.94483,1.51804 -1.86513,3.37343 -2.06013,4.15333 -1.76235,3.9747 0.44109,-0.26458 z m -95.16487,2.51354 c 0.3291,-0.41964 0.31974,-0.429 -0.0999,-0.0999 -0.44073,0.34564 -0.58089,0.56291 -0.36313,0.56291 0.0549,0 0.2633,-0.20836 0.46303,-0.46302 z m 88.33708,0.0985 c 0,-0.0549 -0.20836,-0.2633 -0.46303,-0.46302 -0.41964,-0.3291 -0.429,-0.31975 -0.0999,0.0999 0.34564,0.44073 0.56292,0.58089 0.56292,0.36312 z m -79.90927,-10.18051 11.94855,-9.88354 -0.18522,-5.59459 c -0.10186,-3.07702 -0.21996,-5.63486 -0.26244,-5.68408 -0.0425,-0.0492 -5.71225,5.35486 -12.59952,12.00909 -6.88727,6.65422 -12.85838,12.42044 -13.26914,12.81381 l -0.74682,0.71522 1.40328,2.82162 c 0.77181,1.5519 1.48417,2.79111 1.58302,2.75382 0.0989,-0.0373 5.55659,-4.51541 12.12829,-9.95135 z m 84.93635,7.23099 1.45521,-2.78021 -2.11667,-2.04932 c -1.16417,-1.12712 -5.68854,-5.49825 -10.05417,-9.71362 -4.36562,-4.21537 -9.39409,-9.08749 -11.17437,-10.82694 -1.78028,-1.73946 -3.28503,-3.11111 -3.34388,-3.04813 -0.0589,0.063 -0.15008,2.65178 -0.20271,5.75288 l -0.0957,5.63836 11.90625,9.88285 c 6.54843,5.43556 11.96578,9.89218 12.03854,9.90359 0.0728,0.0114 0.78713,-1.23035 1.5875,-2.75946 z m -91.94271,1.7265 c 0.26339,-0.29104 0.41936,-0.52916 0.3466,-0.52916 -0.0728,0 -0.34779,0.23812 -0.61118,0.52916 -0.26339,0.29105 -0.41936,0.52917 -0.3466,0.52917 0.0728,0 0.34779,-0.23812 0.61118,-0.52917 z m 85.32813,-0.0913 c 0,-0.0502 -0.2679,-0.3181 -0.59532,-0.59531 l -0.59531,-0.50403 0.50403,0.59531 c 0.47366,0.55945 0.6866,0.71576 0.6866,0.50403 z m -83.74063,-1.23163 c 0.26339,-0.29105 0.41936,-0.52917 0.3466,-0.52917 -0.0728,0 -0.34779,0.23812 -0.61118,0.52917 -0.26339,0.29104 -0.41936,0.52916 -0.3466,0.52916 0.0728,0 0.34779,-0.23812 0.61118,-0.52916 z m 82.41771,0.1733 c 0,-0.0502 -0.26789,-0.3181 -0.59531,-0.59532 l -0.59532,-0.50403 0.50403,0.59532 c 0.47366,0.55944 0.6866,0.71576 0.6866,0.50403 z m -80.92875,-1.43007 c 0.32911,-0.41965 0.31975,-0.42901 -0.0999,-0.0999 -0.25467,0.19972 -0.46303,0.40808 -0.46303,0.46302 0,0.21776 0.21728,0.0776 0.56292,-0.36312 z m 79.07667,-0.16605 c 0,-0.0549 -0.20836,-0.2633 -0.46303,-0.46302 -0.41964,-0.3291 -0.429,-0.31975 -0.0999,0.0999 0.34564,0.44073 0.56292,0.58089 0.56292,0.36312 z m -77.39063,-1.22302 c 0.26339,-0.29104 0.41936,-0.52916 0.3466,-0.52916 -0.0728,0 -0.34779,0.23812 -0.61118,0.52916 -0.26339,0.29105 -0.41936,0.52917 -0.3466,0.52917 0.0728,0 0.34779,-0.23812 0.61118,-0.52917 z m 76.06771,0.16469 c 0,-0.0549 -0.20836,-0.2633 -0.46302,-0.46302 -0.41965,-0.32911 -0.42901,-0.31975 -0.0999,0.0999 0.34565,0.44073 0.56292,0.58088 0.56292,0.36312 z m -90.91571,-1.36905 c 0.0904,-0.23546 0.046,-0.34167 -0.10398,-0.24897 -0.14386,0.0889 -0.26156,0.27368 -0.26156,0.41062 0,0.38058 0.18965,0.29672 0.36554,-0.16165 z m 16.33696,-0.0524 c 0.32911,-0.41964 0.31975,-0.429 -0.0999,-0.0999 -0.25467,0.19972 -0.46303,0.40808 -0.46303,0.46302 0,0.21776 0.21728,0.0776 0.56292,-0.36313 z m 89.16366,-0.1367 c -0.2613,-0.25936 -0.29169,-0.22897 -0.14811,0.14811 0.0994,0.26094 0.2473,0.40779 0.32877,0.32632 0.0815,-0.0815 1.7e-4,-0.29495 -0.18066,-0.47443 z m -102.16199,-1.11998 c 0.79042,-0.80036 1.3776,-1.45521 1.30484,-1.45521 -0.0728,0 -0.779,0.65485 -1.56943,1.45521 -0.79042,0.80037 -1.3776,1.45521 -1.30484,1.45521 0.0728,0 0.77901,-0.65484 1.56943,-1.45521 z m 85.98958,1.36393 c 0,-0.0502 -0.26789,-0.3181 -0.59531,-0.59532 l -0.59532,-0.50403 0.50403,0.59532 c 0.47366,0.55944 0.6866,0.71576 0.6866,0.50403 z m -71.56979,-1.23164 c 0.26339,-0.29104 0.41936,-0.52916 0.3466,-0.52916 -0.0728,0 -0.34779,0.23812 -0.61118,0.52916 -0.26339,0.29104 -0.41936,0.52917 -0.3466,0.52917 0.0728,0 0.34779,-0.23813 0.61118,-0.52917 z m 85.06354,0.44878 c 0,-0.0442 -0.44649,-0.4907 -0.99219,-0.99219 l -0.99219,-0.91179 0.9118,0.99218 c 0.84868,0.92351 1.07258,1.11384 1.07258,0.9118 z m -101.20312,-0.97794 c 0.26339,-0.29105 0.41936,-0.52917 0.3466,-0.52917 -0.0728,0 -0.3478,0.23812 -0.61119,0.52917 -0.26339,0.29104 -0.41936,0.52916 -0.3466,0.52916 0.0728,0 0.3478,-0.23812 0.61119,-0.52916 z m 86.12187,0.42927 c 0,-0.0549 -0.20836,-0.2633 -0.46302,-0.46302 -0.41965,-0.32911 -0.42901,-0.31975 -0.0999,0.0999 0.34565,0.44073 0.56292,0.58089 0.56292,0.36313 z m -68.39479,-1.22302 c 0.26339,-0.29104 0.41936,-0.52917 0.3466,-0.52917 -0.0728,0 -0.34779,0.23813 -0.61118,0.52917 -0.26339,0.29104 -0.41936,0.52916 -0.3466,0.52916 0.0728,0 0.34779,-0.23812 0.61118,-0.52916 z m 67.07187,0.1733 c 0,-0.0502 -0.26789,-0.3181 -0.59531,-0.59532 l -0.59531,-0.50402 0.50403,0.59531 c 0.47366,0.55944 0.68659,0.71576 0.68659,0.50403 z m -65.61666,-1.36393 c 0.34177,-0.3638 0.56187,-0.66146 0.48911,-0.66146 -0.0728,0 -0.41192,0.29766 -0.7537,0.66146 -0.34177,0.3638 -0.56187,0.66146 -0.48911,0.66146 0.0728,0 0.41192,-0.29766 0.7537,-0.66146 z m 63.76458,-0.23219 c 0,-0.0549 -0.20836,-0.2633 -0.46302,-0.46302 -0.41965,-0.3291 -0.42901,-0.31975 -0.0999,0.0999 0.34565,0.44073 0.56292,0.58089 0.56292,0.36312 z m 14.81667,-0.24507 c 0,-0.0442 -0.44649,-0.4907 -0.99219,-0.99219 l -0.99219,-0.9118 0.9118,0.99219 c 0.84868,0.92351 1.07258,1.11384 1.07258,0.9118 z m -76.96,-0.9118 c 0.32911,-0.41965 0.31975,-0.429 -0.0999,-0.0999 -0.25466,0.19972 -0.46302,0.40808 -0.46302,0.46302 0,0.21777 0.21727,0.0776 0.56292,-0.36312 z m 60.82041,0.10715 c 0,-0.0502 -0.26789,-0.3181 -0.59531,-0.59531 l -0.59531,-0.50403 0.50403,0.59531 c 0.47366,0.55945 0.68659,0.71577 0.68659,0.50403 z m -59.26666,-1.36392 c 0.34177,-0.3638 0.56187,-0.66146 0.48911,-0.66146 -0.0728,0 -0.41192,0.29766 -0.7537,0.66146 -0.34177,0.3638 -0.56187,0.66146 -0.48911,0.66146 0.0728,0 0.41192,-0.29766 0.7537,-0.66146 z m 57.67916,0.041 c 0,-0.0502 -0.26789,-0.3181 -0.59531,-0.59532 l -0.59531,-0.50402 0.50403,0.59531 c 0.47366,0.55944 0.68659,0.71576 0.68659,0.50403 z m -56.22395,-1.23164 c 0.26339,-0.29104 0.41936,-0.52916 0.34659,-0.52916 -0.0728,0 -0.34779,0.23812 -0.61118,0.52916 -0.26339,0.29105 -0.41936,0.52917 -0.3466,0.52917 0.0728,0 0.3478,-0.23812 0.61119,-0.52917 z m 54.90104,0.1733 c 0,-0.0502 -0.26789,-0.3181 -0.59532,-0.59531 l -0.59531,-0.50403 0.50403,0.59531 c 0.47366,0.55945 0.6866,0.71577 0.6866,0.50403 z m -68.92396,-1.7608 c 0.71666,-0.7276 1.24349,-1.32291 1.17073,-1.32291 -0.0728,0 -0.71865,0.59531 -1.43531,1.32291 -0.71667,0.72761 -1.2435,1.32292 -1.17074,1.32292 0.0728,0 0.71866,-0.59531 1.43532,-1.32292 z m 15.61042,0.26459 c 0.26339,-0.29105 0.41936,-0.52917 0.34659,-0.52917 -0.0728,0 -0.34779,0.23812 -0.61118,0.52917 -0.26339,0.29104 -0.41936,0.52916 -0.3466,0.52916 0.0728,0 0.3478,-0.23812 0.61119,-0.52916 z m 66.80729,-0.66146 c -0.64269,-0.65485 -1.22805,-1.19063 -1.30081,-1.19063 -0.0728,0 0.39354,0.53578 1.03622,1.19063 0.64268,0.65484 1.22804,1.19062 1.3008,1.19062 0.0728,0 -0.39353,-0.53578 -1.03621,-1.19062 z m -84.1375,0 c 0.49365,-0.50932 0.83802,-0.92604 0.76526,-0.92604 -0.0728,0 -0.53619,0.41672 -1.02985,0.92604 -0.49365,0.50932 -0.83802,0.92604 -0.76526,0.92604 0.0728,0 0.53619,-0.41672 1.02985,-0.92604 z m 69.05625,0.83476 c 0,-0.0502 -0.26789,-0.3181 -0.59532,-0.59532 l -0.59531,-0.50403 0.50403,0.59532 c 0.47366,0.55944 0.6866,0.71576 0.6866,0.50403 z m 17.4625,-0.52406 c 0,-0.0474 -0.32743,-0.37481 -0.72761,-0.7276 l -0.7276,-0.64143 0.64143,0.7276 c 0.59952,0.68006 0.81378,0.84894 0.81378,0.64143 z m -67.69959,-0.90601 c 0.32911,-0.41965 0.31975,-0.42901 -0.0999,-0.0999 -0.25466,0.19972 -0.46302,0.40808 -0.46302,0.46302 0,0.21776 0.21727,0.0776 0.56291,-0.36312 z m 0.36313,-2.18282 c 0.0899,-0.14552 0.0374,-0.26458 -0.11668,-0.26458 -0.15411,0 -0.2802,0.11906 -0.2802,0.26458 0,0.14552 0.0525,0.26459 0.11668,0.26459 0.0642,0 0.19026,-0.11907 0.2802,-0.26459 z m -8.99583,-5.02708 c 0.71666,-0.7276 1.24349,-1.32292 1.17073,-1.32292 -0.0728,0 -0.71865,0.59532 -1.43532,1.32292 -0.71666,0.7276 -1.24349,1.32292 -1.17073,1.32292 0.0728,0 0.71865,-0.59532 1.43532,-1.32292 z m 66.5427,0.71766 c 0,-0.0419 -0.62508,-0.66693 -1.38906,-1.38906 l -1.38906,-1.31297 1.31297,1.38906 c 1.22003,1.29074 1.46515,1.5104 1.46515,1.31297 z m -68.37814,-1.04839 0.7771,-0.85989 -0.85989,0.7771 c -0.47295,0.42741 -0.8599,0.81436 -0.8599,0.8599 0,0.2044 0.21832,0.0244 0.94269,-0.77711 z m 69.96564,0.50914 c 0,-0.0474 -0.32742,-0.37481 -0.7276,-0.7276 l -0.72761,-0.64143 0.64144,0.7276 c 0.59951,0.68006 0.81377,0.84894 0.81377,0.64143 z m -60.72187,-7.32216 c 0.26339,-0.29104 0.41936,-0.52917 0.3466,-0.52917 -0.0728,0 -0.34779,0.23813 -0.61118,0.52917 -0.26339,0.29104 -0.41936,0.52917 -0.3466,0.52917 0.0728,0 0.34779,-0.23813 0.61118,-0.52917 z m 37.10587,-3.43293 c 4.33031,-0.14186 12.33814,-0.38891 17.79517,-0.549 l 9.92187,-0.29106 22.55573,-10.21562 c 12.40565,-5.61859 22.5547,-10.28287 22.55344,-10.36507 -10e-4,-0.0822 -10.1298,-4.73335 -22.50786,-10.3359 l -22.50557,-10.18646 -4.41349,-0.17091 c -2.42743,-0.094 -12.06644,-0.38498 -21.42003,-0.64662 -14.72806,-0.41198 -18.45009,-0.43302 -27.78125,-0.15702 -5.92609,0.17527 -15.47768,0.44546 -21.22576,0.6004 l -10.45104,0.28172 -22.48958,10.18297 c -12.36927,5.60063 -22.57141,10.26486 -22.67142,10.36496 -0.10001,0.1001 10.02031,4.7934 22.48959,10.42955 l 22.67141,10.24756 10.18646,0.28778 c 5.60255,0.15828 12.9249,0.38042 16.27188,0.49364 9.08404,0.3073 22.15387,0.31955 31.02045,0.0291 z m 8.81145,-50.79395 -0.033,-5.14668 -10.10986,-22.88229 c -5.56041,-12.58526 -10.20995,-22.88988 -10.33231,-22.89916 -0.12235,-0.009 -4.76782,10.28204 -10.32326,22.86959 l -10.10081,22.88646 -0.0868,5.12409 -0.0868,5.12408 7.6319,-0.228 c 7.7106,-0.23034 12.27303,-0.19928 23.11003,0.15733 3.27421,0.10775 6.94555,0.18361 8.15851,0.16858 l 2.20539,-0.0273 z m -43.87988,0.58261 c 0.0292,-2.43747 0.0277,-4.87243 -0.003,-5.41101 -0.0389,-0.675 0.30908,-1.80358 1.11999,-3.63253 0.64703,-1.45931 1.21408,-2.88685 1.26012,-3.17229 0.059,-0.36585 -0.84581,-1.46053 -3.06626,-3.70966 -1.7325,-1.75486 -3.21899,-3.19066 -3.30333,-3.19066 -0.0844,0 1.33135,1.48828 3.14599,3.3073 1.81465,1.81901 3.2406,3.30729 3.16878,3.30729 -0.0718,0 -2.74894,-2.64854 -5.94916,-5.88565 -3.20021,-3.2371 -4.59818,-4.69785 -3.10659,-3.24611 1.49158,1.45175 2.71197,2.52172 2.71197,2.37771 0,-0.50021 -11.76408,-11.9775 -12.1978,-11.90043 -0.59428,0.10561 -8.97008,4.64173 -8.96336,4.85433 0.003,0.0958 5.43396,6.8416 12.06875,14.99077 6.63479,8.14917 12.19736,15.02503 12.36127,15.27969 0.16391,0.25466 0.38844,0.46302 0.49896,0.46302 0.11051,0 0.22481,-1.9943 0.254,-4.43177 z m -13.28696,-28.31042 -2.7734,-2.84427 2.84427,2.7734 c 2.64182,2.57599 2.96449,2.91514 2.7734,2.91514 -0.039,0 -1.3189,-1.27992 -2.84427,-2.84427 z m 72.87159,17.41176 c 6.78658,-8.35898 12.30317,-15.30635 12.25908,-15.43861 -0.0945,-0.28344 -8.62189,-4.94971 -9.04538,-4.94971 -0.15913,0 -4.4058,4.19836 -9.43705,9.32969 l -9.14772,9.3297 0.32591,0.92291 c 0.17925,0.5076 0.7675,1.87541 1.30721,3.03958 l 0.98131,2.11666 -0.0378,4.13831 c -0.0324,3.54284 0.16797,7.03574 0.3892,6.78459 0.0363,-0.0412 5.6187,-6.91414 12.40529,-15.27312 z m -6.85332,-10.06957 c 4.65496,-4.65667 8.52309,-8.46667 8.59585,-8.46667 0.0728,0 -3.67631,3.81 -8.33127,8.46667 -4.65496,4.65667 -8.5231,8.46667 -8.59586,8.46667 -0.0728,0 3.67632,-3.81 8.33128,-8.46667 z"
         id="path1442" />
      <path
         style="fill:#ffffff;stroke:#000000;stroke-width:15.4166;stroke-linecap:round;stroke-linejoin:round;stroke-dasharray:3.85415, 3.85415;stroke-opacity:0.955017;paint-order:stroke markers fill"
         d="m 860.75901,806.75363 c -9.27403,-0.31699 -37.93348,-1.23432 -63.68768,-2.03849 l -46.82579,-1.46215 -48.72488,-22.01648 c -80.98729,-36.59434 -118.58254,-54.0851 -118.55692,-55.15724 0.0134,-0.56005 37.77196,-18.1179 83.90794,-39.01745 l 83.88362,-37.99918 72.26521,-1.98094 c 70.06434,-1.9206 158.71014,-1.29834 223.21919,1.56693 l 27.3002,1.21258 73.8711,33.8224 c 40.6291,18.60232 78.1385,35.80722 83.3541,38.23312 l 9.483,4.41072 -9.483,4.37362 c -5.2156,2.40549 -43.0863,19.67962 -84.157,38.38695 l -74.6741,34.01332 -41.7532,1.44556 c -50.63296,1.753 -146.25717,2.9985 -169.42179,2.20673 z"
         id="path2004"
         transform="scale(0.26458333)" />
      <path
         style="fill:#ffffff;stroke:#000000;stroke-width:15.4166;stroke-linecap:round;stroke-linejoin:round;stroke-dasharray:3.85415, 3.85415;stroke-opacity:0.955017;paint-order:stroke markers fill"
         d="m 846.31063,615.19078 -0.005,-18.33428 38.01799,-85.68903 c 20.90989,-47.12897 38.5679,-85.12828 39.24,-84.44292 0.67211,0.68537 17.77272,38.4627 38.00135,83.94964 l 36.77934,82.70353 1.07498,20.21296 1.07501,20.21298 -77.08968,-0.13923 -77.08966,-0.13937 z"
         id="path2043"
         transform="scale(0.26458333)" />
      <path
         style="fill:#ffffff;stroke:#000000;stroke-width:15.4166;stroke-linecap:round;stroke-linejoin:round;stroke-dasharray:3.85415, 3.85415;stroke-opacity:0.955017;paint-order:stroke markers fill"
         d="m 919.90982,1085.1987 c -1.36584,-2.8793 -18.42324,-41.3678 -37.90532,-85.52988 l -35.42198,-80.29469 -1.13489,-49.7827 -1.13489,-49.7827 78.86745,-0.2444 78.86741,-0.2444 -0.8062,29.15048 c -0.4434,16.03277 -1.1433,38.90629 -1.55534,50.83005 l -0.74909,21.67957 -36.86088,83.31597 c -20.27348,45.8238 -37.49584,83.9509 -38.2719,84.727 -0.81076,0.8107 -2.46745,-0.8161 -3.89437,-3.8243 z"
         id="path2082"
         transform="scale(0.26458333)" />
      <path
         style="fill:#ffffff;stroke:#000000;stroke-width:15.4166;stroke-linecap:round;stroke-linejoin:round;stroke-dasharray:3.85415, 3.85415;stroke-opacity:0.955017;paint-order:stroke markers fill"
         d="m 737.34576,925.20301 -4.99292,-9.36768 22.04838,-21.64167 c 36.80309,-36.12421 76.2417,-73.7214 76.77387,-73.18924 0.27626,0.27627 0.62419,9.33887 0.77317,20.13911 l 0.27087,19.63682 -38.5464,31.83117 c -21.20052,17.50714 -41.42362,34.10997 -44.94022,36.89517 l -6.39382,5.064 z"
         id="path2121"
         transform="scale(0.26458333)" />
      <path
         style="fill:#ffffff;stroke:#000000;stroke-width:15.4166;stroke-linecap:round;stroke-linejoin:round;stroke-dasharray:3.85415, 3.85415;stroke-opacity:0.955017;paint-order:stroke markers fill"
         d="m 1058.2839,897.69693 c -31.0447,-25.78174 -44.3301,-37.78759 -44.7279,-40.4199 -0.3112,-2.05949 -0.057,-11.20827 0.5646,-20.33061 l 1.1304,-16.58606 13.0855,12.61082 c 7.1971,6.93595 29.2932,28.2689 49.1025,47.40656 l 36.017,34.79573 -2.7701,6.11507 c -1.5235,3.36328 -4.0008,7.68302 -5.505,9.59941 -2.724,3.47042 -2.9113,3.33786 -46.897,-33.19102 z"
         id="path2199"
         transform="scale(0.26458333)" />
      <path
         style="fill:#ffffff;stroke:#000000;stroke-width:15.4166;stroke-linecap:round;stroke-linejoin:round;stroke-dasharray:3.85415, 3.85415;stroke-opacity:0.955017;paint-order:stroke markers fill"
         d="m 1012.7368,626.19817 c -0.5631,-2.81533 -1.0238,-11.84602 -1.0238,-20.06819 0,-12.65224 -0.6574,-16.46519 -4.2781,-24.81381 l -4.278,-9.8644 31.5782,-31.60791 c 17.3681,-17.38434 31.5783,-32.38249 31.5783,-33.32921 0,-0.94672 1.7374,-2.65113 3.8609,-3.78759 3.5064,-1.87658 5.2388,-1.29349 18.8692,6.35126 8.2546,4.62965 15.2186,8.5984 15.4755,8.81945 0.46,0.39571 -26.8179,34.70389 -67.6738,85.11531 -11.4532,14.13186 -21.3326,26.28145 -21.9543,26.99909 -0.6217,0.71763 -1.5911,-0.99867 -2.1541,-3.814 z"
         id="path2238"
         transform="scale(0.26458333)" />
      <path
         style="fill:#ffffff;stroke:#000000;stroke-width:15.4166;stroke-linecap:round;stroke-linejoin:round;stroke-dasharray:3.85415, 3.85415;stroke-opacity:0.955017;paint-order:stroke markers fill"
         d="m 787.69085,576.38554 c -24.73076,-30.64789 -44.96502,-56.59395 -44.96502,-57.6579 0,-1.06396 6.69429,-5.54863 14.8762,-9.96593 l 14.8762,-8.03146 13.28241,12.59997 c 7.30533,6.92998 23.12306,22.72867 35.15052,35.10819 l 21.86811,22.50823 -4.14973,9.60965 c -3.50965,8.1274 -4.2904,12.8444 -5.0617,30.58116 l -0.91196,20.97152 z"
         id="path2277"
         transform="scale(0.26458333)" />
    </g>
    <g
       id="g2830"
       transform="matrix(0.47293769,0,0,0.44921415,6.7603397,-18.684001)">
      <path
         style="fill:#000000;stroke-width:0.264583"
         d="m 93.89014,254.10267 c -0.0874,-0.27533 -0.3633,-0.55605 -0.61315,-0.62382 -0.30675,-0.0832 -2.03865,-3.72232 -5.33364,-11.20721 -2.68366,-6.0962 -7.33434,-16.62811 -10.33484,-23.40425 l -5.45546,-12.32026 -0.066,-5.57917 c -0.0363,-3.06854 -0.15272,-5.90359 -0.25876,-6.30011 -0.18825,-0.70388 -0.47051,-0.49133 -11.92487,8.97951 -10.60956,8.77233 -11.77363,9.66282 -12.1666,9.30719 -0.29419,-0.26624 -0.56077,-0.31343 -0.82537,-0.14611 -0.21496,0.13593 -0.5099,0.24714 -0.65542,0.24714 -0.14552,0 -0.1005,-0.10392 0.10004,-0.23095 0.20358,-0.12894 0.27662,-0.37335 0.16537,-0.55336 -0.15417,-0.24945 -0.24358,-0.25071 -0.3951,-0.006 -0.27151,0.43933 -4.23593,-7.46734 -4.23593,-8.44816 0,-0.66844 1.64611,-2.36293 12.50156,-12.86898 6.87586,-6.65455 12.53687,-12.18643 12.58003,-12.29307 0.0776,-0.19178 -5.618,-0.44873 -13.8569,-0.62513 l -4.25343,-0.0911 -8.31428,-3.76583 C 35.97454,172.10179 25.53585,167.37188 17.3503,163.66209 9.1647603,159.9523 2.4674903,156.77933 2.4674903,156.61105 c 0,-0.16828 -0.24275,-0.45756 -0.53943,-0.64284 -0.61509,-0.38413 -0.45986,-0.91101 0.19443,-0.65993 0.28864,0.11076 0.36838,0.0631 0.2405,-0.14385 -0.23627,-0.38229 -0.0189,-0.39419 0.65106,-0.0357 0.63825,0.34158 0.67134,0.0408 0.0487,-0.44316 -0.43787,-0.34035 -0.43428,-0.38315 0.0661,-0.78818 0.51201,-0.41441 0.50486,-0.42264 -0.22061,-0.25398 -0.55076,0.12804 -0.69725,0.0893 -0.55191,-0.14584 0.13358,-0.21614 0.0632,-0.26849 -0.21654,-0.16113 -0.7665,0.29413 -0.70626,-0.12054 0.14443,-0.99431 0.64879,-0.6664 4.74016,-2.63111 17.6456697,-8.47361 9.24057,-4.18333 19.53948,-8.8484 22.88646,-10.36682 l 6.08541,-2.76077 6.74688,-0.13488 c 3.71078,-0.0742 8.10074,-0.21473 9.75546,-0.31232 L 68.41268,130.1163 56.16145,115.03505 C 49.42327,106.74036 43.81292,99.91411 43.69401,99.86561 c -0.11891,-0.0485 -0.2162,-0.29259 -0.2162,-0.5424 0,-0.24981 -0.13251,-0.5867 -0.29445,-0.74865 -0.35028,-0.35027 -0.0916,-0.86972 0.43304,-0.86972 0.20457,0 0.49939,-0.23812 0.65516,-0.52916 0.15576,-0.29105 0.38528,-0.52917 0.51005,-0.52917 0.12477,0 2.76973,-1.36836 5.87767,-3.0408 5.72516,-3.0808 6.84426,-3.5514 5.89026,-2.47695 -0.50101,0.56426 -0.50049,0.56581 0.0853,0.25846 0.50699,-0.26599 0.56611,-0.24862 0.423,0.12433 -0.13541,0.35285 -0.053,0.39754 0.44285,0.24017 0.50451,-0.16013 0.57928,-0.11534 0.43502,0.26059 -0.13276,0.34596 1.94601,2.58752 8.73887,9.42324 4.90218,4.93311 8.98998,8.96929 9.08399,8.96929 0.094,0 2.6289,-5.56617 5.6331,-12.36927 3.0042,-6.8031 6.76262,-15.31247 8.35204,-18.90971 1.9315,-4.37144 3.15575,-6.80632 3.69161,-7.34219 0.93905,-0.93904 1.22331,-1.01034 1.02642,-0.25746 -0.1231,0.47075 -0.0857,0.49756 0.27704,0.19844 0.37474,-0.30904 0.38433,-0.28008 0.09,0.27213 -0.41641,0.78135 -0.14228,1.10075 0.36137,0.42104 0.37221,-0.50233 0.38408,-0.50205 0.80472,0.0193 0.41873,0.519 0.42358,0.51709 0.25259,-0.0993 -0.12641,-0.45571 -0.086,-0.57387 0.14694,-0.42989 0.23069,0.14257 0.27096,0.04 0.14281,-0.36374 -0.22779,-0.7177 0.27099,-0.74309 0.65094,-0.0331 0.15576,0.29104 0.43442,0.52917 0.61925,0.52917 0.29108,0 4.40918,9.12881 14.8304,32.87534 1.32535,3.02004 2.52879,5.45916 2.67431,5.42028 0.55577,-0.14848 17.85937,-17.83833 17.85937,-18.25802 0,-0.3044 0.13773,-0.38897 0.44281,-0.2719 0.3372,0.12939 0.40173,0.0628 0.27054,-0.27901 -0.14351,-0.37399 -0.0878,-0.40374 0.33354,-0.17823 0.80567,0.43118 0.91698,0.31499 0.23919,-0.24966 -1.49369,-1.24437 0.53699,-0.38052 5.8529,2.48982 3.08412,1.66528 5.78192,3.06426 5.99511,3.10885 0.21319,0.0446 0.35156,0.18121 0.30749,0.3036 -0.0441,0.1224 0.2473,0.39409 0.64748,0.60377 0.69733,0.36536 1.01427,1.15808 0.46302,1.15808 -0.14552,0 -0.26458,0.17905 -0.26458,0.3979 0,0.21885 -1.53486,2.27267 -3.41081,4.56406 -9.77424,11.93879 -21.45697,26.41514 -21.4584,26.5896 -7.9e-4,0.10914 1.33783,0.21572 2.97494,0.23684 1.63711,0.0211 4.54073,0.0691 6.45249,0.10667 l 3.47593,0.0683 19.14595,8.66775 c 10.53027,4.76727 20.93188,9.47493 23.11469,10.46146 2.24922,1.01655 4.00478,1.96687 4.05191,2.19336 0.0457,0.21982 0.31362,0.47281 0.59531,0.56221 0.28168,0.0894 0.51216,0.34115 0.51216,0.55943 0,0.28427 -0.15955,0.34624 -0.5623,0.21841 -0.35195,-0.1117 -0.50028,-0.0781 -0.39651,0.0898 0.10068,0.16291 -0.0681,0.21828 -0.42989,0.141 -0.589,-0.12583 -0.58975,-0.12241 -0.0665,0.30561 0.4998,0.40885 0.50347,0.45194 0.0661,0.77641 -0.66536,0.49367 -0.58092,0.59605 0.46303,0.56142 0.99898,-0.0331 1.29141,0.4982 0.42544,0.77305 -0.27533,0.0874 -0.55619,0.3633 -0.62414,0.61314 -0.0827,0.30421 -4.13443,2.26573 -12.26554,5.93805 -6.67811,3.01608 -17.02358,7.70253 -22.98993,10.41434 l -10.84792,4.93055 -5.95312,0.12703 c -3.27422,0.0699 -5.98234,0.15528 -6.01804,0.18981 -0.0855,0.0827 6.0769,6.13708 16.19946,15.91538 8.8016,8.50225 9.39774,9.11728 9.39774,9.69545 0,0.38029 -4.10463,8.59839 -4.51829,9.04629 -0.13083,0.14166 -0.40088,0.0915 -0.6585,-0.1223 -0.37569,-0.3118 -0.48702,-0.29365 -0.79669,0.12985 -0.2556,0.34954 -0.45827,0.41552 -0.69897,0.22753 -0.18645,-0.14562 -5.53264,-4.55494 -11.88043,-9.7985 l -11.54142,-9.53374 -0.18353,2.98036 c -0.10094,1.63919 -0.16137,4.45327 -0.13427,6.25351 l 0.0493,3.27315 -3.04435,6.87917 c -4.73843,10.70716 -8.85604,20.02288 -12.10408,27.38437 -5.19352,11.77082 -5.52615,12.46234 -6.37692,13.25707 -0.96903,0.90521 -1.13757,0.94706 -0.9517,0.23632 0.0777,-0.29726 0.0286,-0.46162 -0.11204,-0.37471 -0.14862,0.0919 -0.1839,-0.15014 -0.0867,-0.59494 l 0.16378,-0.74978 -0.51763,0.63851 -0.51763,0.63851 -0.31845,-0.59503 c -0.17514,-0.32726 -0.37797,-0.53549 -0.45073,-0.46273 -0.0728,0.0728 -8e-4,0.37794 0.15985,0.67817 0.23775,0.44424 0.2207,0.51846 -0.0916,0.39863 -0.28251,-0.10841 -0.34576,-0.002 -0.23984,0.40283 0.17973,0.68728 -0.35316,0.73351 -0.57026,0.0495 z m 9.78348,-20.66607 c 4.33021,-9.82265 8.86919,-20.1071 10.08663,-22.85432 l 2.21353,-4.99494 -0.005,-2.2811 c -0.003,-1.2546 0.13844,-7.30901 0.31418,-13.45425 0.17573,-6.14523 0.26202,-11.23065 0.19174,-11.30093 -0.0703,-0.0703 -5.5397,0.0369 -12.15428,0.23826 -9.15845,0.27874 -14.12903,0.30194 -20.84297,0.0973 -4.84906,-0.14783 -8.88231,-0.20293 -8.96278,-0.12246 -0.12204,0.12204 0.0585,7.90001 0.56396,24.29644 l 0.0872,2.82917 4.8305,10.92916 c 2.65678,6.01105 6.91045,15.63214 9.4526,21.38021 2.54216,5.74808 4.92492,11.14141 5.29503,11.98519 0.3701,0.84377 0.75932,1.43909 0.86491,1.32291 0.1056,-0.11617 3.73488,-8.24794 8.06509,-18.0706 z M 47.18211,212.00535 c 0,-0.14552 -0.12609,-0.26458 -0.2802,-0.26458 -0.15411,0 -0.20661,0.11906 -0.11667,0.26458 0.0899,0.14552 0.21602,0.26459 0.2802,0.26459 0.0642,0 0.11667,-0.11907 0.11667,-0.26459 z m 2.77813,-0.79375 c 0.26339,-0.29104 0.41936,-0.52916 0.3466,-0.52916 -0.0728,0 -0.3478,0.23812 -0.61119,0.52916 -0.26339,0.29105 -0.41936,0.52917 -0.3466,0.52917 0.0728,0 0.3478,-0.23812 0.61119,-0.52917 z m 91.41354,0.1733 c 0,-0.0502 -0.2679,-0.3181 -0.59532,-0.59531 l -0.59531,-0.50403 0.50403,0.59531 c 0.47366,0.55945 0.6866,0.71577 0.6866,0.50403 z M 44.6999,207.45975 c -0.95685,-1.79278 -1.7423,-3.15337 -1.74543,-3.02354 -0.008,0.33667 3.26209,6.50623 3.38402,6.38429 0.0556,-0.0556 -0.68173,-1.56797 -1.63859,-3.36075 z m 101.91417,-0.0185 c 0.88873,-1.70987 1.52955,-3.10885 1.42404,-3.10885 -0.10552,0 -0.94483,1.51804 -1.86513,3.37343 -2.06013,4.15333 -1.76235,3.9747 0.44109,-0.26458 z m -95.16487,2.51354 c 0.3291,-0.41964 0.31974,-0.429 -0.0999,-0.0999 -0.44073,0.34564 -0.58089,0.56291 -0.36313,0.56291 0.0549,0 0.2633,-0.20836 0.46303,-0.46302 z m 88.33708,0.0985 c 0,-0.0549 -0.20836,-0.2633 -0.46303,-0.46302 -0.41964,-0.3291 -0.429,-0.31975 -0.0999,0.0999 0.34564,0.44073 0.56292,0.58089 0.56292,0.36312 z m -79.90927,-10.18051 11.94855,-9.88354 -0.18522,-5.59459 c -0.10186,-3.07702 -0.21996,-5.63486 -0.26244,-5.68408 -0.0425,-0.0492 -5.71225,5.35486 -12.59952,12.00909 -6.88727,6.65422 -12.85838,12.42044 -13.26914,12.81381 l -0.74682,0.71522 1.40328,2.82162 c 0.77181,1.5519 1.48417,2.79111 1.58302,2.75382 0.0989,-0.0373 5.55659,-4.51541 12.12829,-9.95135 z m 84.93635,7.23099 1.45521,-2.78021 -2.11667,-2.04932 c -1.16417,-1.12712 -5.68854,-5.49825 -10.05417,-9.71362 -4.36562,-4.21537 -9.39409,-9.08749 -11.17437,-10.82694 -1.78028,-1.73946 -3.28503,-3.11111 -3.34388,-3.04813 -0.0589,0.063 -0.15008,2.65178 -0.20271,5.75288 l -0.0957,5.63836 11.90625,9.88285 c 6.54843,5.43556 11.96578,9.89218 12.03854,9.90359 0.0728,0.0114 0.78713,-1.23035 1.5875,-2.75946 z m -91.94271,1.7265 c 0.26339,-0.29104 0.41936,-0.52916 0.3466,-0.52916 -0.0728,0 -0.34779,0.23812 -0.61118,0.52916 -0.26339,0.29105 -0.41936,0.52917 -0.3466,0.52917 0.0728,0 0.34779,-0.23812 0.61118,-0.52917 z m 85.32813,-0.0913 c 0,-0.0502 -0.2679,-0.3181 -0.59532,-0.59531 l -0.59531,-0.50403 0.50403,0.59531 c 0.47366,0.55945 0.6866,0.71576 0.6866,0.50403 z m -83.74063,-1.23163 c 0.26339,-0.29105 0.41936,-0.52917 0.3466,-0.52917 -0.0728,0 -0.34779,0.23812 -0.61118,0.52917 -0.26339,0.29104 -0.41936,0.52916 -0.3466,0.52916 0.0728,0 0.34779,-0.23812 0.61118,-0.52916 z m 82.41771,0.1733 c 0,-0.0502 -0.26789,-0.3181 -0.59531,-0.59532 l -0.59532,-0.50403 0.50403,0.59532 c 0.47366,0.55944 0.6866,0.71576 0.6866,0.50403 z m -80.92875,-1.43007 c 0.32911,-0.41965 0.31975,-0.42901 -0.0999,-0.0999 -0.25467,0.19972 -0.46303,0.40808 -0.46303,0.46302 0,0.21776 0.21728,0.0776 0.56292,-0.36312 z m 79.07667,-0.16605 c 0,-0.0549 -0.20836,-0.2633 -0.46303,-0.46302 -0.41964,-0.3291 -0.429,-0.31975 -0.0999,0.0999 0.34564,0.44073 0.56292,0.58089 0.56292,0.36312 z M 57.63315,204.8615 c 0.26339,-0.29104 0.41936,-0.52916 0.3466,-0.52916 -0.0728,0 -0.34779,0.23812 -0.61118,0.52916 -0.26339,0.29105 -0.41936,0.52917 -0.3466,0.52917 0.0728,0 0.34779,-0.23812 0.61118,-0.52917 z m 76.06771,0.16469 c 0,-0.0549 -0.20836,-0.2633 -0.46302,-0.46302 -0.41965,-0.32911 -0.42901,-0.31975 -0.0999,0.0999 0.34565,0.44073 0.56292,0.58088 0.56292,0.36312 z m -90.91571,-1.36905 c 0.0904,-0.23546 0.046,-0.34167 -0.10398,-0.24897 -0.14386,0.0889 -0.26156,0.27368 -0.26156,0.41062 0,0.38058 0.18965,0.29672 0.36554,-0.16165 z m 16.33696,-0.0524 c 0.32911,-0.41964 0.31975,-0.429 -0.0999,-0.0999 -0.25467,0.19972 -0.46303,0.40808 -0.46303,0.46302 0,0.21776 0.21728,0.0776 0.56292,-0.36313 z m 89.16366,-0.1367 c -0.2613,-0.25936 -0.29169,-0.22897 -0.14811,0.14811 0.0994,0.26094 0.2473,0.40779 0.32877,0.32632 0.0815,-0.0815 1.7e-4,-0.29495 -0.18066,-0.47443 z M 46.12378,202.34806 c 0.79042,-0.80036 1.3776,-1.45521 1.30484,-1.45521 -0.0728,0 -0.779,0.65485 -1.56943,1.45521 -0.79042,0.80037 -1.3776,1.45521 -1.30484,1.45521 0.0728,0 0.77901,-0.65484 1.56943,-1.45521 z m 85.98958,1.36393 c 0,-0.0502 -0.26789,-0.3181 -0.59531,-0.59532 l -0.59532,-0.50403 0.50403,0.59532 c 0.47366,0.55944 0.6866,0.71576 0.6866,0.50403 z m -71.56979,-1.23164 c 0.26339,-0.29104 0.41936,-0.52916 0.3466,-0.52916 -0.0728,0 -0.34779,0.23812 -0.61118,0.52916 -0.26339,0.29104 -0.41936,0.52917 -0.3466,0.52917 0.0728,0 0.34779,-0.23813 0.61118,-0.52917 z m 85.06354,0.44878 c 0,-0.0442 -0.44649,-0.4907 -0.99219,-0.99219 l -0.99219,-0.91179 0.9118,0.99218 c 0.84868,0.92351 1.07258,1.11384 1.07258,0.9118 z M 44.40399,201.95119 c 0.26339,-0.29105 0.41936,-0.52917 0.3466,-0.52917 -0.0728,0 -0.3478,0.23812 -0.61119,0.52917 -0.26339,0.29104 -0.41936,0.52916 -0.3466,0.52916 0.0728,0 0.3478,-0.23812 0.61119,-0.52916 z m 86.12187,0.42927 c 0,-0.0549 -0.20836,-0.2633 -0.46302,-0.46302 -0.41965,-0.32911 -0.42901,-0.31975 -0.0999,0.0999 0.34565,0.44073 0.56292,0.58089 0.56292,0.36313 z m -68.39479,-1.22302 c 0.26339,-0.29104 0.41936,-0.52917 0.3466,-0.52917 -0.0728,0 -0.34779,0.23813 -0.61118,0.52917 -0.26339,0.29104 -0.41936,0.52916 -0.3466,0.52916 0.0728,0 0.34779,-0.23812 0.61118,-0.52916 z m 67.07187,0.1733 c 0,-0.0502 -0.26789,-0.3181 -0.59531,-0.59532 l -0.59531,-0.50402 0.50403,0.59531 c 0.47366,0.55944 0.68659,0.71576 0.68659,0.50403 z m -65.61666,-1.36393 c 0.34177,-0.3638 0.56187,-0.66146 0.48911,-0.66146 -0.0728,0 -0.41192,0.29766 -0.7537,0.66146 -0.34177,0.3638 -0.56187,0.66146 -0.48911,0.66146 0.0728,0 0.41192,-0.29766 0.7537,-0.66146 z m 63.76458,-0.23219 c 0,-0.0549 -0.20836,-0.2633 -0.46302,-0.46302 -0.41965,-0.3291 -0.42901,-0.31975 -0.0999,0.0999 0.34565,0.44073 0.56292,0.58089 0.56292,0.36312 z m 14.81667,-0.24507 c 0,-0.0442 -0.44649,-0.4907 -0.99219,-0.99219 l -0.99219,-0.9118 0.9118,0.99219 c 0.84868,0.92351 1.07258,1.11384 1.07258,0.9118 z m -76.96,-0.9118 c 0.32911,-0.41965 0.31975,-0.429 -0.0999,-0.0999 -0.25466,0.19972 -0.46302,0.40808 -0.46302,0.46302 0,0.21777 0.21727,0.0776 0.56292,-0.36312 z m 60.82041,0.10715 c 0,-0.0502 -0.26789,-0.3181 -0.59531,-0.59531 l -0.59531,-0.50403 0.50403,0.59531 c 0.47366,0.55945 0.68659,0.71577 0.68659,0.50403 z m -59.26666,-1.36392 c 0.34177,-0.3638 0.56187,-0.66146 0.48911,-0.66146 -0.0728,0 -0.41192,0.29766 -0.7537,0.66146 -0.34177,0.3638 -0.56187,0.66146 -0.48911,0.66146 0.0728,0 0.41192,-0.29766 0.7537,-0.66146 z m 57.67916,0.041 c 0,-0.0502 -0.26789,-0.3181 -0.59531,-0.59532 l -0.59531,-0.50402 0.50403,0.59531 c 0.47366,0.55944 0.68659,0.71576 0.68659,0.50403 z m -56.22395,-1.23164 c 0.26339,-0.29104 0.41936,-0.52916 0.34659,-0.52916 -0.0728,0 -0.34779,0.23812 -0.61118,0.52916 -0.26339,0.29105 -0.41936,0.52917 -0.3466,0.52917 0.0728,0 0.3478,-0.23812 0.61119,-0.52917 z m 54.90104,0.1733 c 0,-0.0502 -0.26789,-0.3181 -0.59532,-0.59531 l -0.59531,-0.50403 0.50403,0.59531 c 0.47366,0.55945 0.6866,0.71577 0.6866,0.50403 z m -68.92396,-1.7608 c 0.71666,-0.7276 1.24349,-1.32291 1.17073,-1.32291 -0.0728,0 -0.71865,0.59531 -1.43531,1.32291 -0.71667,0.72761 -1.2435,1.32292 -1.17074,1.32292 0.0728,0 0.71866,-0.59531 1.43532,-1.32292 z m 15.61042,0.26459 c 0.26339,-0.29105 0.41936,-0.52917 0.34659,-0.52917 -0.0728,0 -0.34779,0.23812 -0.61118,0.52917 -0.26339,0.29104 -0.41936,0.52916 -0.3466,0.52916 0.0728,0 0.3478,-0.23812 0.61119,-0.52916 z m 66.80729,-0.66146 c -0.64269,-0.65485 -1.22805,-1.19063 -1.30081,-1.19063 -0.0728,0 0.39354,0.53578 1.03622,1.19063 0.64268,0.65484 1.22804,1.19062 1.3008,1.19062 0.0728,0 -0.39353,-0.53578 -1.03621,-1.19062 z m -84.1375,0 c 0.49365,-0.50932 0.83802,-0.92604 0.76526,-0.92604 -0.0728,0 -0.53619,0.41672 -1.02985,0.92604 -0.49365,0.50932 -0.83802,0.92604 -0.76526,0.92604 0.0728,0 0.53619,-0.41672 1.02985,-0.92604 z m 69.05625,0.83476 c 0,-0.0502 -0.26789,-0.3181 -0.59532,-0.59532 l -0.59531,-0.50403 0.50403,0.59532 c 0.47366,0.55944 0.6866,0.71576 0.6866,0.50403 z m 17.4625,-0.52406 c 0,-0.0474 -0.32743,-0.37481 -0.72761,-0.7276 l -0.7276,-0.64143 0.64143,0.7276 c 0.59952,0.68006 0.81378,0.84894 0.81378,0.64143 z m -67.69959,-0.90601 c 0.32911,-0.41965 0.31975,-0.42901 -0.0999,-0.0999 -0.25466,0.19972 -0.46302,0.40808 -0.46302,0.46302 0,0.21776 0.21727,0.0776 0.56291,-0.36312 z m 0.36313,-2.18282 c 0.0899,-0.14552 0.0374,-0.26458 -0.11668,-0.26458 -0.15411,0 -0.2802,0.11906 -0.2802,0.26458 0,0.14552 0.0525,0.26459 0.11668,0.26459 0.0642,0 0.19026,-0.11907 0.2802,-0.26459 z m -8.99583,-5.02708 c 0.71666,-0.7276 1.24349,-1.32292 1.17073,-1.32292 -0.0728,0 -0.71865,0.59532 -1.43532,1.32292 -0.71666,0.7276 -1.24349,1.32292 -1.17073,1.32292 0.0728,0 0.71865,-0.59532 1.43532,-1.32292 z m 66.5427,0.71766 c 0,-0.0419 -0.62508,-0.66693 -1.38906,-1.38906 l -1.38906,-1.31297 1.31297,1.38906 c 1.22003,1.29074 1.46515,1.5104 1.46515,1.31297 z m -68.37814,-1.04839 0.7771,-0.85989 -0.85989,0.7771 c -0.47295,0.42741 -0.8599,0.81436 -0.8599,0.8599 0,0.2044 0.21832,0.0244 0.94269,-0.77711 z m 69.96564,0.50914 c 0,-0.0474 -0.32742,-0.37481 -0.7276,-0.7276 l -0.72761,-0.64143 0.64144,0.7276 c 0.59951,0.68006 0.81377,0.84894 0.81377,0.64143 z m -60.72187,-7.32216 c 0.26339,-0.29104 0.41936,-0.52917 0.3466,-0.52917 -0.0728,0 -0.34779,0.23813 -0.61118,0.52917 -0.26339,0.29104 -0.41936,0.52917 -0.3466,0.52917 0.0728,0 0.34779,-0.23813 0.61118,-0.52917 z m 37.10587,-3.43293 c 4.33031,-0.14186 12.33814,-0.38891 17.79517,-0.549 l 9.92187,-0.29106 22.55573,-10.21562 c 12.40565,-5.61859 22.5547,-10.28287 22.55344,-10.36507 -0.001,-0.0822 -10.1298,-4.73335 -22.50786,-10.3359 l -22.50557,-10.18646 -4.41349,-0.17091 c -2.42743,-0.094 -12.06644,-0.38498 -21.42003,-0.64662 -14.72806,-0.41198 -18.45009,-0.43302 -27.78125,-0.15702 -5.92609,0.17527 -15.47768,0.44546 -21.22576,0.6004 l -10.45104,0.28172 -22.48958,10.18297 c -12.36927,5.60063 -22.5714097,10.26486 -22.6714197,10.36496 -0.10001,0.1001 10.0203097,4.7934 22.4895897,10.42955 l 22.67141,10.24756 10.18646,0.28778 c 5.60255,0.15828 12.9249,0.38042 16.27188,0.49364 9.08404,0.3073 22.15387,0.31955 31.02045,0.0291 z m 8.81145,-50.79395 -0.033,-5.14668 -10.10986,-22.88229 C 100.28262,84.3559 95.63308,74.05128 95.51072,74.042 95.38837,74.033 90.7429,84.32404 85.18746,96.91159 l -10.10081,22.88646 -0.0868,5.12409 -0.0868,5.12408 7.6319,-0.228 c 7.7106,-0.23034 12.27303,-0.19928 23.11003,0.15733 3.27421,0.10775 6.94555,0.18361 8.15851,0.16858 l 2.20539,-0.0273 z m -43.87988,0.58261 c 0.0292,-2.43747 0.0277,-4.87243 -0.003,-5.41101 -0.0389,-0.675 0.30908,-1.80358 1.11999,-3.63253 0.64703,-1.45931 1.21408,-2.88685 1.26012,-3.17229 0.059,-0.36585 -0.84581,-1.46053 -3.06626,-3.70966 -1.7325,-1.75486 -3.21899,-3.19066 -3.30333,-3.19066 -0.0844,0 1.33135,1.48828 3.14599,3.3073 1.81465,1.81901 3.2406,3.30729 3.16878,3.30729 -0.0718,0 -2.74894,-2.64854 -5.94916,-5.88565 -3.20021,-3.2371 -4.59818,-4.69785 -3.10659,-3.24611 1.49158,1.45175 2.71197,2.52172 2.71197,2.37771 0,-0.50021 -11.76408,-11.9775 -12.1978,-11.90043 -0.59428,0.10561 -8.97008,4.64173 -8.96336,4.85433 0.003,0.0958 5.43396,6.8416 12.06875,14.99077 6.63479,8.14917 12.19736,15.02503 12.36127,15.27969 0.16391,0.25466 0.38844,0.46302 0.49896,0.46302 0.11051,0 0.22481,-1.9943 0.254,-4.43177 z m -13.28696,-28.31042 -2.7734,-2.84427 2.84427,2.7734 c 2.64182,2.57599 2.96449,2.91514 2.7734,2.91514 -0.039,0 -1.3189,-1.27992 -2.84427,-2.84427 z m 72.87159,17.41176 c 6.78658,-8.35898 12.30317,-15.30635 12.25908,-15.43861 -0.0945,-0.28344 -8.62189,-4.94971 -9.04538,-4.94971 -0.15913,0 -4.4058,4.19836 -9.43705,9.32969 l -9.14772,9.3297 0.32591,0.92291 c 0.17925,0.5076 0.7675,1.87541 1.30721,3.03958 l 0.98131,2.11666 -0.0378,4.13831 c -0.0324,3.54284 0.16797,7.03574 0.3892,6.78459 0.0363,-0.0412 5.6187,-6.91414 12.40529,-15.27312 z m -6.85332,-10.06957 c 4.65496,-4.65667 8.52309,-8.46667 8.59585,-8.46667 0.0728,0 -3.67631,3.81 -8.33127,8.46667 -4.65496,4.65667 -8.5231,8.46667 -8.59586,8.46667 -0.0728,0 3.67632,-3.81 8.33128,-8.46667 z"
         id="path854" />
      <path
         style="fill:#000000;stroke:#000000;stroke-width:15.4166;stroke-linecap:round;stroke-linejoin:round;stroke-dasharray:3.85415, 3.85415;stroke-opacity:0.955017;paint-order:stroke markers fill"
         d="m 357.8455,942.27419 c -1.36669,-2.87936 -18.42996,-41.36783 -37.91838,-85.52991 l -35.4335,-80.29468 -1.12183,-49.78271 -1.12184,-49.7827 78.86745,-0.2444 78.86744,-0.2444 -0.80624,29.15048 c -0.44343,16.03277 -1.14333,38.90629 -1.55533,50.83006 l -0.74909,21.67956 -36.86088,83.31595 c -20.27348,45.82377 -37.49584,83.95092 -38.2719,84.72698 -0.81076,0.81075 -2.4681,-0.81608 -3.8959,-3.82423 z"
         id="path2469"
         transform="scale(0.26458333)" />
      <path
         style="fill:#000000;stroke:#000000;stroke-width:15.4166;stroke-linecap:round;stroke-linejoin:round;stroke-dasharray:3.85415, 3.85415;stroke-opacity:0.955017;paint-order:stroke markers fill"
         d="m 298.69623,663.82909 c -9.27404,-0.31699 -37.93349,-1.23432 -63.68769,-2.03849 l -46.82579,-1.46215 -48.72488,-22.01648 C 58.470578,601.71763 20.875331,584.22687 20.900949,583.15473 c 0.01338,-0.56005 37.771957,-18.1179 83.907941,-39.01745 l 83.88362,-37.99918 72.26521,-1.98093 c 70.06434,-1.92061 158.71014,-1.29835 223.21923,1.56692 l 27.30019,1.21258 73.87111,33.8224 c 40.62911,18.60232 78.13843,35.80722 83.35407,38.23312 l 9.48296,4.41072 -9.48296,4.37362 c -5.21564,2.40549 -43.08629,19.67962 -84.15702,38.38695 l -74.67406,34.01332 -41.75323,1.44557 c -50.63296,1.75299 -146.25717,2.99849 -169.42178,2.20672 z"
         id="path2508"
         transform="scale(0.26458333)" />
      <path
         style="fill:#000000;stroke:#000000;stroke-width:15.4166;stroke-linecap:round;stroke-linejoin:round;stroke-dasharray:3.85415, 3.85415;stroke-opacity:0.955017;paint-order:stroke markers fill"
         d="m 284.24784,472.26624 -0.005,-18.33428 38.01799,-85.68903 c 20.90989,-47.12896 38.5679,-85.12828 39.24,-84.44291 0.67211,0.68536 17.77272,38.4627 38.00135,83.94963 l 36.77934,82.70353 1.07498,20.21296 1.07499,20.21299 -77.08966,-0.13923 -77.08966,-0.13938 z"
         id="path2547"
         transform="scale(0.26458333)" />
      <path
         style="fill:#000000;stroke:#000000;stroke-width:15.4166;stroke-linecap:round;stroke-linejoin:round;stroke-dasharray:3.85415, 3.85415;stroke-opacity:0.955017;paint-order:stroke markers fill"
         d="m 225.62806,433.461 c -24.73076,-30.64789 -44.96502,-56.59394 -44.96502,-57.6579 0,-1.06396 6.69429,-5.54863 14.8762,-9.96593 l 14.8762,-8.03146 13.28241,12.59997 c 7.30533,6.92998 23.12306,22.72867 35.15052,35.10819 l 21.86811,22.50824 -4.14973,9.60964 c -3.50965,8.1274 -4.2904,12.8444 -5.0617,30.58116 l -0.91196,20.97152 z"
         id="path2586"
         transform="scale(0.26458333)" />
      <path
         style="fill:#000000;stroke:#000000;stroke-width:15.4166;stroke-linecap:round;stroke-linejoin:round;stroke-dasharray:3.85415, 3.85415;stroke-opacity:0.955017;paint-order:stroke markers fill"
         d="m 496.22115,754.77239 c -31.0447,-25.78174 -44.33015,-37.78759 -44.72793,-40.4199 -0.31122,-2.05949 -0.0572,-11.20827 0.56457,-20.3306 l 1.13043,-16.58607 13.08552,12.61082 c 7.19704,6.93596 29.29315,28.26891 49.10247,47.40656 l 36.01695,34.79573 -2.77004,6.11507 c -1.52353,3.36328 -4.00076,7.68302 -5.50497,9.59941 -2.724,3.47042 -2.91131,3.33786 -46.897,-33.19102 z"
         id="path2625"
         transform="scale(0.26458333)" />
      <path
         style="fill:#000000;stroke:#000000;stroke-width:15.4166;stroke-linecap:round;stroke-linejoin:round;stroke-dasharray:3.85415, 3.85415;stroke-opacity:0.955017;paint-order:stroke markers fill"
         d="m 450.67399,483.27363 c -0.56307,-2.81533 -1.02376,-11.84602 -1.02376,-20.06819 0,-12.65224 -0.65738,-16.46519 -4.27807,-24.81381 l -4.27807,-9.8644 31.57826,-31.60791 c 17.36805,-17.38434 31.57827,-32.38249 31.57827,-33.32921 0,-0.94672 1.73739,-2.65113 3.86088,-3.78759 3.50642,-1.87658 5.23876,-1.29348 18.86925,6.35126 8.2546,4.62965 15.21858,8.5984 15.4755,8.81945 0.45993,0.39571 -26.81797,34.70389 -67.67388,85.11531 -11.45316,14.13186 -21.33259,26.28145 -21.95428,26.99909 -0.62169,0.71763 -1.59103,-0.99867 -2.1541,-3.814 z"
         id="path2664"
         transform="scale(0.26458333)" />
      <path
         style="fill:#000000;stroke:#000000;stroke-width:15.4166;stroke-linecap:round;stroke-linejoin:round;stroke-dasharray:3.85415, 3.85415;stroke-opacity:0.955017;paint-order:stroke markers fill"
         d="m 175.28297,782.27847 -4.99292,-9.36768 22.04838,-21.64167 c 36.80309,-36.12421 76.2417,-73.7214 76.77387,-73.18923 0.27626,0.27626 0.62419,9.33886 0.77317,20.13911 l 0.27087,19.63681 -38.5464,31.83117 c -21.20052,17.50714 -41.42362,34.10997 -44.94022,36.89517 l -6.39382,5.064 z"
         id="path2703"
         transform="scale(0.26458333)" />
    </g>
  </g>
</svg>
