<?xml version="1.0" encoding="UTF-8" standalone="no"?>
<!-- Created with Inkscape (http://www.inkscape.org/) -->

<svg
   width="210mm"
   height="297mm"
   viewBox="0 0 210 297"
   version="1.1"
   id="svg5"
   inkscape:version="1.1 (c68e22c387, 2021-05-23)"
   sodipodi:docname="magnifying glass icon svg.svg"
   xmlns:inkscape="http://www.inkscape.org/namespaces/inkscape"
   xmlns:sodipodi="http://sodipodi.sourceforge.net/DTD/sodipodi-0.dtd"
   xmlns="http://www.w3.org/2000/svg"
   xmlns:svg="http://www.w3.org/2000/svg">
  <sodipodi:namedview
     id="namedview7"
     pagecolor="#ffffff"
     bordercolor="#666666"
     borderopacity="1.0"
     inkscape:pageshadow="2"
     inkscape:pageopacity="0.0"
     inkscape:pagecheckerboard="0"
     inkscape:document-units="mm"
     showgrid="false"
     inkscape:zoom="0.66468037"
     inkscape:cx="386.65201"
     inkscape:cy="883.88348"
     inkscape:window-width="1680"
     inkscape:window-height="956"
     inkscape:window-x="-11"
     inkscape:window-y="-11"
     inkscape:window-maximized="1"
     inkscape:current-layer="layer1"
     showguides="true"
     inkscape:guide-bbox="true" />
  <defs
     id="defs2">
    <inkscape:path-effect
       effect="rough_hatches"
       id="path-effect2461"
       is_visible="true"
       lpeversion="1"
       direction="69.99843,260.92094 , 8.1437712,0"
       dist_rdm="6;1"
       growth="0"
       do_bend="true"
       bender="69.99843,265.92094 , 5,0"
       bottom_edge_variation="1.4602372;1"
       top_edge_variation="1.4602372;1"
       bottom_tgt_variation="0;1"
       top_tgt_variation="0;1"
       scale_bf="1"
       scale_bb="1"
       scale_tf="1"
       scale_tb="1"
       top_smth_variation="0;1"
       bottom_smth_variation="0;1"
       fat_output="true"
       stroke_width_top="1"
       stroke_width_bottom="1"
       front_thickness="1"
       back_thickness="0.25" />
    <inkscape:path-effect
       effect="skeletal"
       id="path-effect1945"
       is_visible="true"
       lpeversion="1"
       pattern="m 33.860958,87.614548 h 14.800324 c 5.651367,0 10.201025,4.549657 10.201025,10.201025 v 12.157417 c 0,5.65137 -4.549658,10.20103 -10.201025,10.20103 H 33.860958 c -5.651368,0 -10.201025,-4.54966 -10.201025,-10.20103 V 97.815573 c 0,-5.651368 4.549657,-10.201025 10.201025,-10.201025 z"
       copytype="repeated"
       prop_scale="1.28"
       scale_y_rel="false"
       spacing="2.6"
       normal_offset="0"
       tang_offset="0"
       prop_units="false"
       vertical_pattern="false"
       hide_knot="false"
       fuse_tolerance="0" />
    <inkscape:path-effect
       effect="skeletal"
       id="path-effect1762"
       is_visible="true"
       lpeversion="1"
       pattern="#rect1629"
       copytype="repeated"
       prop_scale="1"
       scale_y_rel="false"
       spacing="0"
       normal_offset="0"
       tang_offset="0"
       prop_units="false"
       vertical_pattern="false"
       hide_knot="false"
       fuse_tolerance="0" />
  </defs>
  <g
     inkscape:label="Layer 1"
     inkscape:groupmode="layer"
     id="layer1">
    <path
       style="fill:#917c6f;stroke:#000000;stroke-width:14.443;stroke-linecap:round;stroke-linejoin:round;stroke-opacity:0.955017;paint-order:stroke markers fill"
       d=""
       id="path1102"
       transform="scale(0.26458333)" />
    <path
       style="fill:#917c6f;stroke:#000000;stroke-width:14.443;stroke-linecap:round;stroke-linejoin:round;stroke-opacity:0.955017;paint-order:stroke markers fill"
       d=""
       id="path1570"
       transform="scale(0.26458333)" />
    <g
       id="g2691">
      <path
         id="path1682"
         style="fill:none;stroke:#000000;stroke-width:1.13364;stroke-linecap:round;stroke-linejoin:round;stroke-opacity:0.955017;paint-order:stroke markers fill"
         d="m 101.26873,103.94607 a 5.2035127,8.2494382 0 0 1 -5.203515,8.24944 5.2035127,8.2494382 0 0 1 -5.20352,-8.24944 5.2035127,8.2494382 0 0 1 5.20352,-8.24943 5.2035127,8.2494382 0 0 1 5.203515,8.24943 z m 36.18914,6.3084 a 28.51769,33.81258 0 0 1 -28.51768,33.81258 28.51769,33.81258 0 0 1 -28.517695,-33.81258 28.51769,33.81258 0 0 1 28.517695,-33.81259 28.51769,33.81258 0 0 1 28.51768,33.81259 z m -6.1795,-1.06758 a 22.739472,27.077569 0 0 1 -22.73946,27.07757 22.739472,27.077569 0 0 1 -22.739475,-27.07757 22.739472,27.077569 0 0 1 22.739475,-27.07757 22.739472,27.077569 0 0 1 22.73946,27.07757 z m -9.55773,39.69436 a 12.565341,5.0026504 0 0 1 -12.56534,5.00265 12.565341,5.0026504 0 0 1 -12.565335,-5.00265 12.565341,5.0026504 0 0 1 12.565335,-5.00265 12.565341,5.0026504 0 0 1 12.56534,5.00265 z m -15.65876,5.04672 h 6.9999 c 2.11489,0 3.81749,2.03236 3.81749,4.55687 v 44.65319 c 0,2.52451 -1.7026,4.55687 -3.81749,4.55687 h -6.9999 c -2.11489,0 -3.81749,-2.03236 -3.81749,-4.55687 v -44.65319 c 0,-2.52451 1.7026,-4.55687 3.81749,-4.55687 z" />
      <path
         style="fill:#000000;stroke:#000000;stroke-width:14.443;stroke-linecap:round;stroke-linejoin:round;stroke-opacity:0.955017;paint-order:stroke markers fill"
         d="m 383.55606,536.66805 c -47.13477,-16.06886 -79.06532,-69.19074 -76.15488,-126.69656 1.85238,-36.60037 14.23247,-65.35373 38.54934,-89.53276 13.19826,-13.12344 27.16541,-21.13626 44.62741,-25.60228 51.12887,-13.07656 101.75337,21.45102 120.41813,82.12915 3.84251,12.49177 4.13653,15.31901 4.13653,39.77606 0,24.36324 -0.30415,27.31627 -4.07471,39.56276 -12.20391,39.63722 -37.04158,67.9844 -69.95804,79.84295 -9.64345,3.47416 -13.25478,3.95707 -29.33741,3.92301 -14.96908,-0.0317 -20.15377,-0.65708 -28.20637,-3.40233 z m 45.91118,-21.42971 c 14.41895,-3.75566 26.14784,-10.85344 38.42682,-23.25413 13.11775,-13.24776 20.47539,-26.03479 26.41383,-45.90514 5.37401,-17.9818 5.76176,-46.14443 0.88627,-64.37187 -5.69642,-21.29659 -18.07468,-41.39041 -33.97484,-55.1519 -19.93706,-17.2554 -49.60123,-23.34297 -74.67583,-15.3247 -29.37918,9.39478 -53.26645,37.72312 -61.69456,73.16468 -4.51901,19.00317 -3.57111,47.12617 2.18049,64.69275 10.99217,33.57232 34.70277,58.51962 62.80055,66.07605 10.75096,2.8913 28.69288,2.92491 39.63727,0.0743 z"
         id="path2568"
         transform="scale(0.26458333)" />
    </g>
    <g
       id="g1450">
      <path
         id="path1680"
         style="fill:none;stroke:#000000;stroke-width:1.13364;stroke-linecap:round;stroke-linejoin:round;stroke-opacity:0.955017;paint-order:stroke markers fill"
         d="m 171.72552,28.712544 a 5.2035127,8.2494382 0 0 1 -5.20351,8.249436 5.2035127,8.2494382 0 0 1 -5.20352,-8.249436 5.2035127,8.2494382 0 0 1 5.20352,-8.249438 5.2035127,8.2494382 0 0 1 5.20351,8.249438 z m 36.18915,6.308394 A 28.51769,33.81258 0 0 1 179.39698,68.833517 28.51769,33.81258 0 0 1 150.87929,35.020938 28.51769,33.81258 0 0 1 179.39698,1.208355 28.51769,33.81258 0 0 1 207.91467,35.020938 Z m -6.1795,-1.067576 A 22.739472,27.077569 0 0 1 178.9957,61.030929 22.739472,27.077569 0 0 1 156.25623,33.953362 22.739472,27.077569 0 0 1 178.9957,6.875793 22.739472,27.077569 0 0 1 201.73517,33.953362 Z m -9.55773,39.694358 a 12.565341,5.0026504 0 0 1 -12.56535,5.002651 12.565341,5.0026504 0 0 1 -12.56533,-5.002651 12.565341,5.0026504 0 0 1 12.56533,-5.002651 12.565341,5.0026504 0 0 1 12.56535,5.002651 z m -15.65877,5.046723 h 6.9999 c 2.11489,0 3.81749,2.032362 3.81749,4.556869 v 44.653198 c 0,2.52451 -1.7026,4.55687 -3.81749,4.55687 h -6.9999 c -2.11489,0 -3.81749,-2.03236 -3.81749,-4.55687 V 83.251312 c 0,-2.524507 1.7026,-4.556869 3.81749,-4.556869 z" />
      <g
         id="g1445">
        <path
           id="path975"
           style="fill:none;stroke:#000000;stroke-width:1.24858;stroke-linecap:round;stroke-linejoin:round;stroke-opacity:0.955017;paint-order:stroke markers fill"
           d="m 180.91435,25.814039 c -0.49265,0 -0.88939,0.38791 -0.88939,0.869953 v 9.348676 h -7.23352 c -0.49264,0 -0.88909,0.38791 -0.88909,0.869952 v 5.526604 c 0,0.482044 0.39645,0.869952 0.88909,0.869952 h 7.23352 v 11.619515 c 0,0.482044 0.39674,0.870249 0.88939,0.870249 h 5.18358 c 0.49265,0 0.88939,-0.388205 0.88939,-0.870249 V 43.299176 h 7.23353 c 0.49264,0 0.88909,-0.387908 0.88909,-0.869952 V 36.90262 c 0,-0.482042 -0.39645,-0.869952 -0.88909,-0.869952 h -7.23353 v -9.348676 c 0,-0.482043 -0.39674,-0.869953 -0.88939,-0.869953 z" />
      </g>
    </g>
    <g
       id="g1257">
      <path
         style="fill:#000000;stroke:#000000;stroke-width:14.443;stroke-linecap:round;stroke-linejoin:round;stroke-opacity:0.955017;paint-order:stroke markers fill"
         d="m 394.05869,777.93319 -4.39772,-4.39771 v -90.18179 c 0,-108.94365 -2.64118,-98.10999 23.91867,-98.10999 17.06195,0 17.81031,0.13619 21.32968,3.88159 l 3.64734,3.88158 0.4423,86.01125 c 0.24327,47.30618 0.0292,88.28719 -0.47582,91.06891 -0.50498,2.78171 -2.53504,6.67456 -4.51125,8.65077 -3.33682,3.33682 -4.73305,3.59311 -19.5743,3.59311 -15.65743,0 -16.07027,-0.0891 -20.3789,-4.39772 z"
         id="path2490"
         transform="scale(0.26458333)" />
      <path
         style="fill:#000000;stroke:#000000;stroke-width:14.443;stroke-linecap:round;stroke-linejoin:round;stroke-opacity:0.955017;paint-order:stroke markers fill"
         d="m 387.40425,575.49938 c -4.13733,-1.18731 -7.97823,-2.18862 -8.53534,-2.22514 -2.57143,-0.16856 -10.27069,-8.15587 -10.27069,-10.65495 0,-4.27122 8.87186,-10.11132 19.49457,-12.83273 14.13508,-3.62124 44.30361,-2.43369 56.15356,2.21042 4.86953,1.90842 9.74715,5.00929 11.08053,7.04429 2.17284,3.31617 2.17284,3.95422 0,7.27039 -1.33051,2.03062 -6.22147,5.14435 -11.08053,7.05422 -7.23021,2.84184 -12.12735,3.49272 -29.00917,3.85563 -14.30583,0.30753 -22.53448,-0.20161 -27.83293,-1.72213 z"
         id="path2529"
         transform="scale(0.26458333)" />
      <path
         style="fill:#000000;stroke:#000000;stroke-width:12.3107;stroke-linecap:round;stroke-linejoin:round;stroke-opacity:0.955017;paint-order:stroke markers fill"
         d="m 415.23718,445.32683 v -18.05379 h -12.03586 -12.03586 v -8.27466 -8.27465 h 12.03586 12.03586 V 395.6789 380.63408 h 8.27465 8.27465 v 15.04482 15.04483 h 12.03586 12.03586 v 8.27465 8.27466 h -12.03586 -12.03586 v 18.05379 18.05379 h -8.27465 -8.27465 z"
         id="path1094"
         transform="scale(0.26458333)" />
      <path
         id="path979"
         style="fill:none;stroke:#000000;stroke-width:0.97322;stroke-linecap:round;stroke-linejoin:round;stroke-opacity:0.955017;paint-order:stroke markers fill"
         d="m 110.00956,100.11377 c -0.38864,0 -0.70163,0.29875 -0.70163,0.66999 v 7.19988 h -5.70642 c -0.38865,0 -0.70139,0.29875 -0.70139,0.66999 v 4.25632 c 0,0.37125 0.31274,0.66999 0.70139,0.66999 h 5.70642 v 8.94877 c 0,0.37124 0.31299,0.67022 0.70163,0.67022 h 4.08926 c 0.38864,0 0.70162,-0.29898 0.70162,-0.67022 v -8.94877 h 5.70643 c 0.38864,0 0.70139,-0.29874 0.70139,-0.66999 v -4.25632 c 0,-0.37124 -0.31275,-0.66999 -0.70139,-0.66999 h -5.70643 v -7.19988 c 0,-0.37124 -0.31298,-0.66999 -0.70162,-0.66999 z" />
    </g>
    <g
       id="g1442">
      <g
         id="g3029">
        <path
           id="path1559"
           style="fill:none;stroke:#000000;stroke-width:1.13364;stroke-linecap:round;stroke-linejoin:round;stroke-opacity:0.955017;paint-order:stroke markers fill"
           d="m 24.44295,31.10091 a 5.2035127,8.2494382 0 0 1 -5.203512,8.249436 5.2035127,8.2494382 0 0 1 -5.203513,-8.249436 5.2035127,8.2494382 0 0 1 5.203513,-8.249438 5.2035127,8.2494382 0 0 1 5.203512,8.249438 z m 36.189153,6.308394 A 28.51769,33.81258 0 0 1 32.114414,71.221883 28.51769,33.81258 0 0 1 3.596723,37.409304 28.51769,33.81258 0 0 1 32.114414,3.596721 28.51769,33.81258 0 0 1 60.632103,37.409304 Z m -6.1795,-1.067576 A 22.739472,27.077569 0 0 1 31.713127,63.419295 22.739472,27.077569 0 0 1 8.973658,36.341728 22.739472,27.077569 0 0 1 31.713127,9.264159 22.739472,27.077569 0 0 1 54.452603,36.341728 Z m -9.557735,39.694358 a 12.565341,5.0026504 0 0 1 -12.565342,5.002651 12.565341,5.0026504 0 0 1 -12.565339,-5.002651 12.565341,5.0026504 0 0 1 12.565339,-5.002651 12.565341,5.0026504 0 0 1 12.565342,5.002651 z m -15.658766,5.046723 h 6.999902 c 2.114889,0 3.817487,2.032362 3.817487,4.556869 v 44.653192 c 0,2.52451 -1.702598,4.55687 -3.817487,4.55687 h -6.999902 c -2.114889,0 -3.817489,-2.03236 -3.817489,-4.55687 V 85.639678 c 0,-2.524507 1.7026,-4.556869 3.817489,-4.556869 z" />
        <path
           style="fill:#ffffff;stroke:#000000;stroke-width:14.443;stroke-linecap:round;stroke-linejoin:round;stroke-opacity:0.955017;paint-order:stroke markers fill"
           d="m 103.69356,502.61289 -4.397713,-4.39771 v -90.18179 c 0,-108.94365 -2.641186,-98.10999 23.918663,-98.10999 17.06195,0 17.81031,0.13619 21.32968,3.88159 l 3.64734,3.88158 0.44231,86.01125 c 0.24327,47.30618 0.0291,88.28719 -0.47583,91.06891 -0.50497,2.78171 -2.53504,6.67456 -4.51125,8.65077 -3.33682,3.33682 -4.73305,3.59311 -19.5743,3.59311 -15.65743,0 -16.07027,-0.0891 -20.3789,-4.39772 z"
           id="path2748"
           transform="scale(0.26458333)" />
        <path
           style="fill:#ffffff;stroke:#000000;stroke-width:14.443;stroke-linecap:round;stroke-linejoin:round;stroke-opacity:0.955017;paint-order:stroke markers fill"
           d="m 97.039123,300.10912 c -4.137327,-1.14883 -7.978231,-2.11866 -8.535343,-2.15518 -2.571427,-0.16856 -10.270689,-8.15588 -10.270689,-10.65495 0,-4.16598 8.721508,-10.04103 18.804672,-12.66736 12.036147,-3.13502 39.708167,-3.09126 50.504577,0.0799 25.36026,7.44884 24.98295,18.7641 -0.85529,25.64926 -9.82776,2.61881 -39.8586,2.46659 -49.647927,-0.25165 z"
           id="path2787"
           transform="scale(0.26458333)" />
        <path
           style="fill:#ffffff;stroke:#000000;stroke-width:14.443;stroke-linecap:round;stroke-linejoin:round;stroke-opacity:0.955017;paint-order:stroke markers fill"
           d="M 93.190935,261.34775 C 46.056159,245.27888 14.125614,192.15701 17.03605,134.65119 18.888438,98.050814 31.268519,69.297456 55.585389,45.11843 68.783649,31.994986 82.750807,23.982172 100.2128,19.516147 151.34167,6.4395843 201.96617,40.96717 220.63093,101.6453 c 3.84251,12.49177 4.13653,15.31901 4.13653,39.77606 0,24.36324 -0.30414,27.31627 -4.07471,39.56276 -12.20391,39.63721 -37.04158,67.9844 -69.95804,79.84294 -9.64345,3.47417 -13.25478,3.95708 -29.33741,3.92302 -14.96907,-0.0318 -20.15377,-0.65708 -28.206365,-3.40233 z m 45.911185,-21.42971 c 14.41894,-3.75566 26.14783,-10.85344 38.42682,-23.25413 13.14445,-13.27474 20.51141,-26.09639 26.3758,-45.90514 5.48675,-18.53317 5.87651,-45.05138 0.936,-63.68407 C 192.78424,61.604597 159.6408,32.628216 119.60636,32.556677 79.656139,32.485286 45.367278,63.308205 34.483806,109.07498 c -4.519008,19.00317 -3.571113,47.12617 2.180492,64.69275 10.992161,33.57232 34.702768,58.51962 62.800541,66.07605 10.750961,2.8913 28.692881,2.92491 39.637281,0.0743 z"
           id="path2826"
           transform="scale(0.26458333)" />
        <path
           style="fill:#ffffff;stroke:#000000;stroke-width:14.443;stroke-linecap:round;stroke-linejoin:round;stroke-opacity:0.955017;paint-order:stroke markers fill"
           d="m 66.511845,143.57866 c -14.445473,-10.118 -13.003376,-45.733451 2.144264,-52.956857 4.80914,-2.293319 5.314475,-2.261559 9.213206,0.579051 11.137535,8.114792 14.625995,30.170416 6.990773,44.198836 -5.364149,9.85571 -11.835739,12.74051 -18.348243,8.17897 z"
           id="path2865"
           transform="scale(0.26458333)" />
        <path
           style="fill:#ffffff;stroke:#000000;stroke-width:14.443;stroke-linecap:round;stroke-linejoin:round;stroke-opacity:0.955017;paint-order:stroke markers fill"
           d="M 106.9593,232.99746 C 87.476629,229.76362 66.629136,213.99252 54.518398,193.326 46.56427,179.75258 42.647502,167.77581 40.567075,150.66537 33.237265,90.381481 74.468163,36.847633 124.97046,41.076726 c 26.41753,2.21222 50.32663,19.511766 63.8501,46.199056 7.99821,15.783708 10.52337,27.873828 10.52337,50.384368 0,19.22274 -0.38468,22.23651 -4.40342,34.49879 -10.54332,32.17049 -36.00239,56.38046 -64.07971,60.93576 -11.02263,1.78833 -12.57982,1.78198 -23.9015,-0.0972 z M 82.251745,150.53691 c 2.623992,-1.59998 6.652678,-6.12008 8.952635,-10.04466 3.478553,-5.9357 4.286027,-9.31687 4.801925,-20.10729 0.524721,-10.97502 0.103207,-14.17345 -2.738445,-20.77904 -11.389388,-26.475347 -35.567587,-23.248317 -42.993613,5.7383 -7.597565,29.65619 12.010497,57.36759 31.977498,45.19269 z"
           id="path2904"
           transform="scale(0.26458333)" />
      </g>
      <path
         id="path977"
         style="fill:none;stroke:#000000;stroke-width:1.05652;stroke-linecap:round;stroke-linejoin:round;stroke-opacity:0.955017;paint-order:stroke markers fill"
         d="m 34.696426,24.819237 c -0.40378,0 -0.72895,0.338882 -0.72895,0.759999 v 8.167091 h -5.9286 c -0.40377,0 -0.7287,0.338882 -0.7287,0.759999 v 4.828092 c 0,0.421118 0.32493,0.76 0.7287,0.76 h 5.9286 v 10.150916 c 0,0.421118 0.32517,0.760258 0.72895,0.760258 h 4.24847 c 0.40378,0 0.72895,-0.33914 0.72895,-0.760258 V 40.094418 h 5.9286 c 0.40377,0 0.7287,-0.338882 0.7287,-0.76 v -4.828092 c 0,-0.421117 -0.32493,-0.759999 -0.7287,-0.759999 h -5.9286 v -8.167091 c 0,-0.421117 -0.32517,-0.759999 -0.72895,-0.759999 z" />
      <path
         style="fill:#ffffff;stroke:#000000;stroke-width:12.3107;stroke-linecap:round;stroke-linejoin:round;stroke-opacity:0.955017;paint-order:stroke markers fill"
         d="m 130.88998,169.25428 v -20.31051 h -12.7881 -12.7881 v -8.96605 -8.96605 l 12.41198,-0.43697 12.41198,-0.43696 0.42539,-16.92543 0.4254,-16.925429 h 8.1761 8.17611 l 0.42539,16.925429 0.4254,16.92543 12.41198,0.43696 12.41198,0.43697 v 8.96605 8.96605 h -12.7881 -12.7881 v 20.31051 20.31052 h -8.27466 -8.27465 z"
         id="path1314"
         transform="scale(0.26458333)" />
    </g>
    <g
       id="g1672">
      <g
         id="g2298">
        <path
           id="path1684"
           style="fill:none;stroke:#000000;stroke-width:1.13364;stroke-linecap:round;stroke-linejoin:round;stroke-opacity:0.955017;paint-order:stroke markers fill"
           d="m 43.151824,176.39317 a 5.2035127,8.2494382 0 0 1 -5.203515,8.24944 5.2035127,8.2494382 0 0 1 -5.20352,-8.24944 5.2035127,8.2494382 0 0 1 5.20352,-8.24943 5.2035127,8.2494382 0 0 1 5.203515,8.24943 z m 36.18914,6.3084 a 28.51769,33.81258 0 0 1 -28.51768,33.81258 28.51769,33.81258 0 0 1 -28.517695,-33.81258 28.51769,33.81258 0 0 1 28.517695,-33.81259 28.51769,33.81258 0 0 1 28.51768,33.81259 z m -6.1795,-1.06758 a 22.739472,27.077569 0 0 1 -22.73946,27.07757 22.739472,27.077569 0 0 1 -22.739475,-27.07757 22.739472,27.077569 0 0 1 22.739475,-27.07757 22.739472,27.077569 0 0 1 22.73946,27.07757 z m -9.55773,39.69436 a 12.565341,5.0026504 0 0 1 -12.56534,5.00265 12.565341,5.0026504 0 0 1 -12.565335,-5.00265 12.565341,5.0026504 0 0 1 12.565335,-5.00265 12.565341,5.0026504 0 0 1 12.56534,5.00265 z m -15.65876,5.04672 h 6.9999 c 2.11489,0 3.81749,2.03236 3.81749,4.55687 v 44.65319 c 0,2.52451 -1.7026,4.55687 -3.81749,4.55687 h -6.9999 c -2.11489,0 -3.81749,-2.03236 -3.81749,-4.55687 v -44.65319 c 0,-2.52451 1.7026,-4.55687 3.81749,-4.55687 z" />
        <path
           style="fill:#d45500;stroke:#000000;stroke-width:14.443;stroke-linecap:round;stroke-linejoin:round;stroke-opacity:0.955017;paint-order:stroke markers fill"
           d="m 174.40424,1051.749 -4.39771,-4.3977 v -90.18179 c 0,-108.94365 -2.64119,-98.10999 23.91866,-98.10999 17.06195,0 17.81031,0.13619 21.32968,3.88159 l 3.64734,3.88158 0.44231,86.01125 c 0.24326,47.30616 0.0291,88.28716 -0.47583,91.06886 -0.50498,2.7818 -2.53504,6.6746 -4.51125,8.6508 -3.33682,3.3368 -4.73305,3.5931 -19.5743,3.5931 -15.65743,0 -16.07027,-0.089 -20.3789,-4.3977 z"
           id="path1754"
           transform="scale(0.26458333)" />
        <path
           style="fill:#d45500;stroke:#000000;stroke-width:14.443;stroke-linecap:round;stroke-linejoin:round;stroke-opacity:0.955017;paint-order:stroke markers fill"
           d="m 167.7498,849.31519 c -4.13733,-1.1873 -7.97823,-2.18861 -8.53534,-2.22513 -2.57143,-0.16856 -10.27069,-8.15587 -10.27069,-10.65495 0,-4.27122 8.87186,-10.11132 19.49457,-12.83273 14.13508,-3.62124 44.30361,-2.43369 56.15356,2.21042 4.86953,1.90842 9.74715,5.00929 11.08053,7.04429 2.17284,3.31617 2.17284,3.95422 0,7.27039 -1.33051,2.03061 -6.22147,5.14435 -11.08053,7.05422 -7.23021,2.84184 -12.12734,3.49272 -29.00917,3.85563 -14.30583,0.30752 -22.53447,-0.20161 -27.83293,-1.72214 z"
           id="path1793"
           transform="scale(0.26458333)" />
        <path
           style="fill:#d45500;stroke:#000000;stroke-width:14.443;stroke-linecap:round;stroke-linejoin:round;stroke-opacity:0.955017;paint-order:stroke markers fill"
           d="M 163.90161,810.48387 C 116.76684,794.41501 84.836293,741.29313 87.746729,683.78731 c 1.852387,-36.60038 14.232471,-65.35373 38.549341,-89.53276 13.19826,-13.12344 27.16542,-21.13626 44.62741,-25.60228 51.12887,-13.07656 101.75337,21.45102 120.41813,82.12915 3.84251,12.49177 4.13653,15.31901 4.13653,39.77606 0,24.36324 -0.30415,27.31627 -4.07471,39.56276 -12.20391,39.63722 -37.04158,67.9844 -69.95804,79.84295 -9.64345,3.47416 -13.25478,3.95707 -29.33741,3.92301 -14.96907,-0.0317 -20.15377,-0.65708 -28.20637,-3.40233 z m 45.91118,-21.42971 c 14.41895,-3.75566 26.14784,-10.85344 38.42683,-23.25413 13.11774,-13.24776 20.47539,-26.0348 26.41382,-45.90514 5.37401,-17.98181 5.76176,-46.14443 0.88628,-64.37187 -5.69643,-21.29659 -18.07469,-41.39041 -33.97485,-55.1519 -19.93706,-17.2554 -49.60123,-23.34297 -74.67583,-15.3247 -29.37918,9.39477 -53.26645,37.72312 -61.69456,73.16468 -4.519,19.00317 -3.57111,47.12617 2.1805,64.69275 10.99216,33.57232 34.70276,58.51962 62.80054,66.07605 10.75096,2.8913 28.69288,2.92491 39.63727,0.0743 z"
           id="path1832"
           transform="scale(0.26458333)" />
        <path
           style="fill:#93a7ac;stroke:#000000;stroke-width:14.443;stroke-linecap:round;stroke-linejoin:round;stroke-opacity:0.955017;paint-order:stroke markers fill"
           d="m 177.66998,782.13358 c -25.71296,-4.26797 -51.64463,-29.24204 -61.66593,-59.38873 -7.12497,-21.43378 -7.21861,-51.53675 -0.22356,-71.86821 10.20363,-29.65735 34.10305,-53.80543 58.91199,-59.5249 14.75556,-3.40176 32.57786,-1.15968 47.25327,5.94456 18.65301,9.02977 36.27304,31.30711 44.61004,56.40136 3.01704,9.08122 3.49882,13.53527 3.49882,32.34637 0,20.05439 -0.35539,22.89937 -4.40342,35.25103 -10.54332,32.17049 -36.0024,56.38046 -64.07971,60.93576 -11.02263,1.78833 -12.57983,1.78198 -23.9015,-0.0972 z M 156.6358,693.67425 c 6.95633,-7.73961 9.44896,-16.66501 8.54029,-30.58034 -1.22258,-18.72242 -9.22732,-29.70677 -21.64855,-29.70677 -18.91029,0 -29.18582,30.97944 -17.77076,53.57659 7.87651,15.59226 20.44184,18.32291 30.87902,6.71052 z"
           id="path2060"
           transform="scale(0.26458333)" />
        <path
           style="fill:#dbe2e3;stroke:#000000;stroke-width:14.443;stroke-linecap:round;stroke-linejoin:round;stroke-opacity:0.955017;paint-order:stroke markers fill"
           d="m 137.54731,689.47747 c -11.63468,-11.63468 -10.08106,-39.99724 2.57232,-46.95994 3.54279,-1.94946 4.39537,-1.89856 8.0242,0.47915 5.75526,3.77099 8.73653,11.94786 8.83833,24.24132 0.15161,18.30727 -10.81633,30.85799 -19.43485,22.23947 z"
           id="path2173"
           transform="scale(0.26458333)" />
      </g>
      <path
         id="rect890"
         style="fill:none;stroke:#000000;stroke-width:1.08352;stroke-linecap:round;stroke-linejoin:round;stroke-opacity:0.955017;paint-order:stroke markers fill"
         d="m 53.752445,172.64655 c -0.445451,0 -0.804185,0.32308 -0.804185,0.72456 v 7.78622 h -6.540542 c -0.445449,0 -0.803912,0.32308 -0.803912,0.72456 v 4.60294 c 0,0.40147 0.358463,0.72455 0.803912,0.72455 h 6.540542 v 9.67753 c 0,0.40148 0.358734,0.72481 0.804185,0.72481 h 4.686992 c 0.44545,0 0.804186,-0.32333 0.804186,-0.72481 v -9.67753 h 6.540544 c 0.445445,0 0.803912,-0.32308 0.803912,-0.72455 v -4.60294 c 0,-0.40148 -0.358467,-0.72456 -0.803912,-0.72456 h -6.540544 v -7.78622 c 0,-0.40148 -0.358736,-0.72456 -0.804186,-0.72456 z" />
      <path
         style="fill:#80e5ff;stroke:#000000;stroke-width:12.3107;stroke-linecap:round;stroke-linejoin:round;stroke-opacity:0.955017;paint-order:stroke markers fill"
         d="m 202.77269,724.78446 -0.41979,-19.9344 -13.91646,-0.43258 -13.91647,-0.43257 v -8.16174 -8.16174 l 13.91647,-0.43258 13.91646,-0.43258 0.42875,-15.42094 0.42875,-15.42095 h 8.97427 8.97426 v 15.79707 15.79706 h 13.54034 13.54035 v 8.21608 8.21608 l -13.16423,0.4347 -13.16422,0.43469 -0.41979,19.9344 -0.41978,19.93439 h -8.93956 -8.93956 z"
         id="path1507"
         transform="scale(0.26458333)" />
    </g>
  </g>
</svg>
