<?xml version="1.0" encoding="UTF-8" standalone="no"?>
<!-- Created with Inkscape (http://www.inkscape.org/) -->

<svg
   width="210mm"
   height="297mm"
   viewBox="0 0 210 297"
   version="1.1"
   id="svg5"
   inkscape:version="1.1 (c68e22c387, 2021-05-23)"
   sodipodi:docname="Track freeze.svg"
   xmlns:inkscape="http://www.inkscape.org/namespaces/inkscape"
   xmlns:sodipodi="http://sodipodi.sourceforge.net/DTD/sodipodi-0.dtd"
   xmlns="http://www.w3.org/2000/svg"
   xmlns:svg="http://www.w3.org/2000/svg">
  <sodipodi:namedview
     id="namedview7"
     pagecolor="#ffffff"
     bordercolor="#666666"
     borderopacity="1.0"
     inkscape:pageshadow="2"
     inkscape:pageopacity="0.0"
     inkscape:pagecheckerboard="0"
     inkscape:document-units="mm"
     showgrid="false"
     inkscape:zoom="0.83972969"
     inkscape:cx="382.26587"
     inkscape:cy="144.68942"
     inkscape:window-width="1680"
     inkscape:window-height="956"
     inkscape:window-x="-11"
     inkscape:window-y="-11"
     inkscape:window-maximized="1"
     inkscape:current-layer="layer1" />
  <defs
     id="defs2" />
  <g
     inkscape:label="Layer 1"
     inkscape:groupmode="layer"
     id="layer1">
    <path
       id="path5335"
       style="fill:#00ffff;stroke:#000000;stroke-width:0.158017;stroke-linecap:round;stroke-linejoin:round;stroke-opacity:0.955017;paint-order:stroke markers fill"
       d="m 39.266659,-45.166114 c -0.17988,0 -0.32465,0.08939 -0.32465,0.200447 v 3.27839 c 0,0.05187 0.0319,0.09885 0.0839,0.134368 l -0.0839,0.06608 -5.38483,-2.606402 c -0.14051,-0.06801 -0.34228,-0.05294 -0.45243,0.03381 l -0.18875,0.148659 c -0.11016,0.08675 -0.0857,0.211333 0.0548,0.279344 l 5.60817,2.714471 c -0.12324,0.04077 -0.2076,0.120057 -0.2076,0.21275 v 3.832142 l -4.19515,2.585187 -5.52705,-2.863868 c -0.0448,-0.02321 -0.0957,-0.03867 -0.14843,-0.04766 l 0.23386,-4.327183 c 0.006,-0.110171 -0.13297,-0.201782 -0.31141,-0.205456 l -0.3058,-0.0063 c -0.17844,-0.0037 -0.32681,0.0821 -0.33276,0.19227 l -0.22801,4.222282 -0.1359,-0.0029 c -0.0106,-0.04743 -0.0484,-0.0927 -0.11275,-0.126044 l -4.06728,-2.107466 c -0.13779,-0.0714 -0.34181,-0.0604 -0.45745,0.02468 -0.11564,0.08507 -0.0978,0.211042 0.04,0.282438 l 3.6814,1.9076 -6.00489,-0.123687 c -0.17845,-0.0037 -0.32694,0.08202 -0.33289,0.192197 l -0.0101,0.188808 c -0.006,0.110174 0.13285,0.20178 0.31129,0.205456 l 7.19122,0.148218 c 0.008,0.0038 0.0169,0.0068 0.0254,0.01024 0.002,0.06709 0.0487,0.133237 0.13888,0.179968 l 5.48326,2.841178 -0.54861,1.953788 h -9.14353 c -0.0585,0 -0.11345,0.0083 -0.16322,0.02239 l -4.32628,-3.407378 c -0.11015,-0.08676 -0.31192,-0.101824 -0.45243,-0.03381 l -0.24077,0.116541 c -0.14051,0.06801 -0.16492,0.192589 -0.0548,0.279344 l 4.2214,3.324726 -0.10702,0.05179 c -0.0575,-0.03211 -0.13361,-0.05179 -0.21763,-0.05179 h -5.30977 c -0.17988,0 -0.32465,0.08939 -0.32465,0.200447 0,0.111064 0.14477,0.200521 0.32465,0.200521 h 4.80603 l -4.72836,2.288677 c -0.14051,0.06801 -0.16504,0.192589 -0.0549,0.279345 l 0.18875,0.148659 c 0.11015,0.08676 0.31193,0.10182 0.45244,0.03381 l 5.6627,-2.74077 c 0.0101,-2.85e-4 0.0201,-0.0014 0.0302,-0.0022 0.0718,0.05038 0.17589,0.08273 0.29363,0.08273 h 7.41039 l 1.51849,2.458995 -4.34918,3.233748 c -0.0859,0.06385 -0.10971,0.146351 -0.076,0.220337 l -0.0834,0.01112 c -0.0687,0.0092 -0.12721,0.03117 -0.17086,0.06092 l -7.03265,0.938882 c -0.17451,0.02329 -0.28471,0.128724 -0.24698,0.23647 l 0.0647,0.184609 c 0.0377,0.107747 0.20861,0.175709 0.38312,0.152417 l 5.87257,-0.783814 -3.07039,2.282858 c -0.11492,0.08544 -0.0959,0.211337 0.0425,0.28229 0.13838,0.07095 0.34217,0.05929 0.45708,-0.02615 l 3.39218,-2.522128 c 0.0537,-0.03991 0.0778,-0.08867 0.0746,-0.136504 l 0.13292,-0.01768 1.44583,4.129167 c 0.0377,0.107748 0.20848,0.175709 0.38299,0.152416 l 0.299,-0.03993 c 0.17451,-0.02329 0.28471,-0.128723 0.24698,-0.23647 l -1.50585,-4.300442 c 0.137,0.01725 0.28398,-0.01046 0.37989,-0.08177 l 3.42953,-2.549974 c 0.0217,0.0051 0.0448,0.009 0.0696,0.01112 l 5.63121,0.492536 c 0.0195,0.0017 0.0391,0.0022 0.0586,0.0018 v 4.248286 c 0,0.03611 0.0135,0.07005 0.0363,0.100776 l -5.5187,2.671155 c -0.14051,0.06801 -0.16491,0.19259 -0.0548,0.279345 l 0.18876,0.148659 c 0.11015,0.08675 0.31192,0.101823 0.45243,0.03381 l 5.38483,-2.606402 0.0839,0.06608 c -0.052,0.03552 -0.0839,0.0825 -0.0839,0.134368 v 3.278387 c 0,0.11106 0.14477,0.20045 0.32465,0.20045 0.17987,0 0.32476,-0.0894 0.32476,-0.20045 v -2.967366 l 3.70681,2.919416 c 0.11015,0.0868 0.31192,0.10189 0.45244,0.0339 l 0.24077,-0.11654 c 0.14051,-0.068 0.16492,-0.19259 0.0548,-0.27935 l -4.43903,-3.496294 c -4.6e-4,-0.0062 -0.002,-0.01243 -0.004,-0.01864 0.0816,-0.04433 0.13399,-0.1086 0.13399,-0.181294 v -3.147145 c 0.004,-8.12e-4 0.008,-0.0014 0.0123,-0.0023 l 6.19579,-1.390017 c 0.0454,-0.01019 0.0838,-0.02559 0.11466,-0.04449 l 4.36493,2.261789 c 0.10297,0.05335 0.23639,0.06853 0.35639,0.0481 l 0.0177,0.05157 c 0.0145,0.04245 0.0499,0.07861 0.0978,0.105712 l 1.48401,4.346999 c 0.0368,0.107868 0.20698,0.176477 0.38169,0.153743 l 0.29935,-0.03897 c 0.17471,-0.02274 0.28571,-0.127939 0.24889,-0.235807 l -1.23907,-3.629854 3.6814,1.9076 c 0.13778,0.07139 0.34181,0.06032 0.45744,-0.02475 0.11564,-0.08507 0.0978,-0.210967 -0.04,-0.282365 l -4.06725,-2.107531 c -0.0644,-0.03334 -0.14311,-0.04846 -0.22061,-0.04671 l -0.028,-0.08214 6.69523,-0.871183 c 0.17471,-0.02273 0.28571,-0.127867 0.24889,-0.235733 l -0.0631,-0.18483 c -0.0368,-0.107867 -0.2071,-0.1764 -0.3818,-0.153669 l -6.97287,0.907353 c 0.0287,-0.0845 -0.0154,-0.175335 -0.13041,-0.234923 l -3.69309,-1.91364 c 0.0401,-0.03081 0.0672,-0.06898 0.0758,-0.1119 l 0.65575,-3.285167 c 0.0118,-0.05937 -0.014,-0.116789 -0.066,-0.162877 h 4.87273 c 0.13443,0 0.25244,-0.0414 0.3231,-0.104681 l 0.0672,0.03249 c 0.0553,0.02676 0.12009,0.04049 0.18505,0.04221 l 5.6627,2.740771 c 0.14051,0.06801 0.34228,0.05294 0.45243,-0.03381 l 0.18875,-0.148659 c 0.11016,-0.08675 0.0856,-0.211332 -0.0549,-0.279344 l -4.72834,-2.288667 h 4.80604 c 0.17988,0 0.32465,-0.08946 0.32465,-0.200521 0,-0.111063 -0.14477,-0.200447 -0.32465,-0.200447 h -5.30977 c -0.084,0 -0.1601,0.01968 -0.21763,0.05179 l -0.10702,-0.05179 4.2214,-3.324726 c 0.11015,-0.08676 0.0858,-0.211333 -0.0548,-0.279344 l -0.24077,-0.116541 c -0.14051,-0.06801 -0.34229,-0.05294 -0.45244,0.03381 l -4.39643,3.462631 c -0.066,-0.0761 -0.19445,-0.128181 -0.34458,-0.128181 h -6.2978 c 0.0154,-0.05425 -0.005,-0.112172 -0.065,-0.158972 l -3.82958,-2.989838 5.14274,-3.82367 c 0.0374,-0.02778 0.0621,-0.05924 0.0764,-0.09186 l 7.0095,0.121845 c 0.17847,0.0031 0.32619,-0.08311 0.33121,-0.193301 l 0.009,-0.188808 c 0.005,-0.110193 -0.13461,-0.201397 -0.31308,-0.204499 l -6.83993,-0.118828 0.004,-0.08398 c 0.0768,-0.0068 0.14988,-0.03037 0.20355,-0.07028 l 3.39218,-2.522127 c 0.11492,-0.08544 0.096,-0.211338 -0.0424,-0.282291 -0.13839,-0.07095 -0.34241,-0.05929 -0.45733,0.02615 l -3.07027,2.282858 0.16895,-3.708088 c 0.005,-0.110193 -0.13449,-0.20147 -0.31296,-0.204572 l -0.30592,-0.0053 c -0.17847,-0.0031 -0.32607,0.08311 -0.33109,0.193301 l -0.20259,4.440777 c -0.006,0.005 -0.0111,0.01041 -0.0166,0.01569 -0.10865,0.0019 -0.21544,0.03071 -0.29065,0.08663 l -2.75433,2.047935 h -4.40217 c -0.06,0 -0.11604,0.01002 -0.16417,0.0274 v -3.552062 c 0,-0.083 -0.0671,-0.155864 -0.16954,-0.199489 l 0.0526,-0.04148 c 0.0434,-0.03414 0.0656,-0.07415 0.0684,-0.114257 l 4.43903,-3.496296 c 0.11018,-0.08674 0.0858,-0.211322 -0.0547,-0.279332 l -0.24078,-0.116541 c -0.14051,-0.06801 -0.34228,-0.05287 -0.45243,0.03389 l -3.70681,2.919412 v -2.967369 c 0,-0.111062 -0.14489,-0.200447 -0.32477,-0.200447 z m 0.38908,8.454876 c 0.0481,0.01739 0.10416,0.02733 0.16417,0.02733 h 3.73556 l -3.89973,2.899522 z m -1.28441,0.566644 v 3.315223 l -0.56781,0.422111 -2.98604,-1.547296 z m 3.79522,1.734704 3.40913,2.661578 h -5.91994 v -0.794716 z m -8.22434,1.03708 3.0408,1.575657 -0.0657,0.04884 h -3.43131 z m -2.18617,2.417521 h 1.13287 l 0.12349,0.007 c 0.0352,0.002 0.0697,-6.35e-4 0.10213,-0.007 h 2.7362 l -2.80623,2.086462 z m 5.76424,0 h 0.85105 v 3.627201 l -5.12639,-0.448409 z m 3.08542,0 h 6.6802 c -0.0163,0.02113 -0.0275,0.04436 -0.0324,0.06917 l -0.61064,3.059084 z m -0.94996,0.542997 5.51487,2.857606 -5.51487,1.237232 z m 42.33755,-27.097071 c -0.17988,0 -0.32465,0.08939 -0.32465,0.200447 v 3.27839 c 0,0.05187 0.0319,0.09885 0.0839,0.134368 l -0.0839,0.06608 -5.38483,-2.606402 c -0.14051,-0.06801 -0.34228,-0.05294 -0.45243,0.03381 l -0.18875,0.148659 c -0.11016,0.08675 -0.0857,0.211333 0.0548,0.279344 l 5.60817,2.714471 c -0.12324,0.04077 -0.2076,0.120057 -0.2076,0.21275 v 3.832142 l -4.19515,2.585187 -5.52705,-2.863868 c -0.0448,-0.02321 -0.0957,-0.03867 -0.14842,-0.04766 l 0.23385,-4.327183 c 0.006,-0.110171 -0.13297,-0.201782 -0.31141,-0.205456 l -0.3058,-0.0063 c -0.17844,-0.0037 -0.32681,0.0821 -0.33276,0.19227 l -0.22801,4.222282 -0.13589,-0.0029 c -0.0106,-0.04743 -0.0484,-0.0927 -0.11275,-0.126044 l -4.06729,-2.107466 c -0.13779,-0.0714 -0.34181,-0.0604 -0.45745,0.02468 -0.11563,0.08507 -0.0978,0.211042 0.04,0.282438 l 3.6814,1.9076 -6.00489,-0.123687 c -0.17845,-0.0037 -0.32693,0.08202 -0.33289,0.192197 l -0.0101,0.188808 c -0.006,0.110174 0.13285,0.20178 0.31129,0.205456 l 7.19122,0.148218 c 0.008,0.0038 0.0169,0.0068 0.0254,0.01024 0.002,0.06709 0.0487,0.133237 0.13888,0.179968 l 5.48326,2.841178 -0.5486,1.953788 h -9.14354 c -0.0585,0 -0.11345,0.0083 -0.16322,0.02239 l -4.32627,-3.407378 c -0.11015,-0.08676 -0.31193,-0.101824 -0.45244,-0.03381 l -0.24076,0.116541 c -0.14051,0.06801 -0.16492,0.192589 -0.0548,0.279344 l 4.2214,3.324726 -0.10702,0.05179 c -0.0575,-0.03211 -0.13361,-0.05179 -0.21763,-0.05179 h -5.30977 c -0.17988,0 -0.32465,0.08939 -0.32465,0.200447 0,0.111064 0.14477,0.200521 0.32465,0.200521 h 4.80603 l -4.72836,2.288677 c -0.14051,0.06801 -0.16503,0.192589 -0.0549,0.279345 l 0.18875,0.148659 c 0.11016,0.08676 0.31193,0.10182 0.45244,0.03381 l 5.6627,-2.74077 c 0.0101,-2.85e-4 0.0201,-0.0014 0.0302,-0.0022 0.0718,0.05038 0.17589,0.08273 0.29363,0.08273 h 7.41039 l 1.5185,2.458995 -4.34919,3.233748 c -0.0859,0.06385 -0.10971,0.146351 -0.076,0.220337 l -0.0834,0.01112 c -0.0687,0.0092 -0.12721,0.03117 -0.17086,0.06092 l -7.03265,0.938882 c -0.17451,0.02329 -0.2847,0.128724 -0.24698,0.23647 l 0.0647,0.184609 c 0.0377,0.107747 0.20861,0.175709 0.38312,0.152417 l 5.87257,-0.783814 -3.07039,2.282858 c -0.11492,0.08544 -0.0959,0.211337 0.0425,0.28229 0.13838,0.07095 0.34217,0.05929 0.45708,-0.02615 l 3.39219,-2.522128 c 0.0537,-0.03991 0.0778,-0.08867 0.0746,-0.136504 l 0.13291,-0.01768 1.44583,4.129167 c 0.0377,0.107748 0.20849,0.175709 0.383,0.152416 l 0.29899,-0.03993 c 0.17451,-0.02329 0.28471,-0.128723 0.24698,-0.23647 l -1.50584,-4.300442 c 0.13699,0.01725 0.28398,-0.01046 0.37989,-0.08177 l 3.42952,-2.549974 c 0.0217,0.0051 0.0448,0.009 0.0696,0.01112 l 5.63121,0.492536 c 0.0195,0.0017 0.0391,0.0022 0.0586,0.0018 v 4.248286 c 0,0.03611 0.0135,0.07005 0.0363,0.100776 l -5.51869,2.671155 c -0.14052,0.06801 -0.16492,0.19259 -0.0548,0.279345 l 0.18875,0.148659 c 0.11015,0.08675 0.31192,0.101823 0.45243,0.03381 l 5.38483,-2.606402 0.0839,0.06608 c -0.052,0.03552 -0.0839,0.0825 -0.0839,0.134368 v 3.27839 c 0,0.111061 0.14477,0.200447 0.32465,0.200447 0.17987,0 0.32476,-0.08939 0.32476,-0.200447 v -2.967369 l 3.70681,2.919412 c 0.11015,0.08676 0.31192,0.101898 0.45244,0.03389 l 0.24077,-0.11654 c 0.14051,-0.06801 0.16492,-0.192589 0.0548,-0.279344 l -4.43903,-3.496296 c -4.6e-4,-0.0062 -0.002,-0.01243 -0.004,-0.01864 0.0816,-0.04433 0.13399,-0.1086 0.13399,-0.181294 v -3.147145 c 0.004,-8.12e-4 0.008,-0.0014 0.0123,-0.0023 l 6.19579,-1.390017 c 0.0454,-0.01019 0.0838,-0.02559 0.11466,-0.04449 l 4.36493,2.261789 c 0.10297,0.05335 0.23639,0.06853 0.35639,0.0481 l 0.0177,0.05157 c 0.0145,0.04245 0.0499,0.07861 0.0978,0.105712 l 1.48401,4.346999 c 0.0368,0.107868 0.20698,0.176477 0.38169,0.153743 l 0.29935,-0.03897 c 0.17471,-0.02274 0.28571,-0.127939 0.24889,-0.235807 l -1.23907,-3.629854 3.6814,1.9076 c 0.13778,0.07139 0.34181,0.06032 0.45744,-0.02475 0.11564,-0.08507 0.0978,-0.210967 -0.04,-0.282365 l -4.06725,-2.107531 c -0.0644,-0.03334 -0.14311,-0.04846 -0.22061,-0.04671 l -0.028,-0.08214 6.695231,-0.871183 c 0.17471,-0.02273 0.28571,-0.127867 0.24889,-0.235733 l -0.0631,-0.18483 c -0.0368,-0.107867 -0.2071,-0.1764 -0.3818,-0.153669 l -6.972871,0.907353 c 0.0287,-0.0845 -0.0154,-0.175335 -0.13041,-0.234923 l -3.69309,-1.91364 c 0.0401,-0.03081 0.0672,-0.06898 0.0758,-0.1119 l 0.65575,-3.285167 c 0.0118,-0.05937 -0.014,-0.116789 -0.066,-0.162877 h 4.87273 c 0.13443,0 0.25244,-0.0414 0.3231,-0.104681 l 0.0672,0.03249 c 0.0553,0.02676 0.12009,0.04049 0.18505,0.04221 l 5.662701,2.740771 c 0.14051,0.06801 0.34228,0.05294 0.45243,-0.03381 l 0.18875,-0.148659 c 0.11016,-0.08675 0.0856,-0.211332 -0.0549,-0.279344 l -4.728341,-2.288667 h 4.806041 c 0.17988,0 0.32465,-0.08946 0.32465,-0.200521 0,-0.111063 -0.14477,-0.200447 -0.32465,-0.200447 h -5.309771 c -0.084,0 -0.1601,0.01968 -0.21763,0.05179 l -0.10702,-0.05179 4.221401,-3.324726 c 0.11015,-0.08676 0.0858,-0.211333 -0.0548,-0.279344 l -0.24077,-0.116541 c -0.14051,-0.06801 -0.34229,-0.05294 -0.45244,0.03381 l -4.396431,3.462631 c -0.066,-0.0761 -0.19445,-0.128181 -0.34458,-0.128181 h -6.2978 c 0.0154,-0.05425 -0.005,-0.112172 -0.065,-0.158972 l -3.82958,-2.989838 5.14274,-3.82367 c 0.0374,-0.02778 0.0621,-0.05924 0.0764,-0.09186 l 7.0095,0.121845 c 0.17847,0.0031 0.32619,-0.08311 0.33121,-0.193301 l 0.009,-0.188808 c 0.005,-0.110193 -0.13461,-0.201397 -0.31308,-0.204499 l -6.83993,-0.118828 0.004,-0.08398 c 0.0768,-0.0068 0.14988,-0.03037 0.20355,-0.07028 l 3.39218,-2.522127 c 0.11492,-0.08544 0.096,-0.211338 -0.0424,-0.282291 -0.13839,-0.07095 -0.34241,-0.05929 -0.45733,0.02615 l -3.07027,2.282858 0.16895,-3.708088 c 0.005,-0.110193 -0.13449,-0.20147 -0.31296,-0.204572 l -0.30592,-0.0053 c -0.17847,-0.0031 -0.32607,0.08311 -0.33109,0.193301 l -0.20259,4.440777 c -0.006,0.005 -0.0111,0.01041 -0.0166,0.01569 -0.10865,0.0019 -0.21544,0.03071 -0.29065,0.08663 l -2.75433,2.047935 h -4.40217 c -0.06,0 -0.11604,0.01002 -0.16417,0.0274 v -3.552062 c 0,-0.083 -0.0671,-0.155864 -0.16954,-0.199489 l 0.0526,-0.04148 c 0.0434,-0.03414 0.0656,-0.07415 0.0684,-0.114257 l 4.43903,-3.496296 c 0.11018,-0.08674 0.0858,-0.211322 -0.0547,-0.279332 l -0.24078,-0.116541 c -0.14051,-0.06801 -0.34228,-0.05287 -0.45243,0.03389 l -3.70681,2.919412 v -2.967369 c 0,-0.111062 -0.14489,-0.200447 -0.32477,-0.200447 z m 0.38908,8.454876 c 0.0481,0.01739 0.10416,0.02733 0.16417,0.02733 h 3.73556 l -3.89973,2.899522 z m -1.28441,0.566644 v 3.315223 l -0.56781,0.422111 -2.98604,-1.547296 z m 3.79522,1.734704 3.40913,2.661578 h -5.91994 v -0.794716 z m -8.22434,1.03708 3.0408,1.575657 -0.0657,0.04884 h -3.43131 z m -2.18617,2.417521 h 1.13287 l 0.12349,0.007 c 0.0352,0.002 0.0697,-6.35e-4 0.10213,-0.007 h 2.7362 l -2.80623,2.086462 z m 5.76424,0 h 0.85105 v 3.627201 l -5.12639,-0.448409 z m 3.08542,0 h 6.6802 c -0.0163,0.02113 -0.0275,0.04436 -0.0324,0.06917 l -0.61064,3.059084 z m -0.94996,0.542997 5.51487,2.857606 -5.51487,1.237232 z m -27.92403,-43.87123 c -0.17988,0 -0.32465,0.08939 -0.32465,0.200447 v 3.27839 c 0,0.05187 0.0319,0.09885 0.0839,0.134368 l -0.0839,0.06608 -5.38482,-2.606402 c -0.14051,-0.06801 -0.34228,-0.05294 -0.45243,0.03381 l -0.18875,0.148659 c -0.11016,0.08675 -0.0857,0.211333 0.0548,0.279344 l 5.60817,2.714471 c -0.12325,0.04077 -0.2076,0.120057 -0.2076,0.21275 v 3.832142 l -4.19516,2.585187 -5.52704,-2.863868 c -0.0448,-0.02321 -0.0957,-0.03867 -0.14843,-0.04766 l 0.23386,-4.327183 c 0.006,-0.110171 -0.13297,-0.201782 -0.31141,-0.205456 l -0.3058,-0.0063 c -0.17844,-0.0037 -0.32681,0.0821 -0.33276,0.19227 l -0.22801,4.222282 -0.13589,-0.0029 c -0.0106,-0.04743 -0.0484,-0.0927 -0.11275,-0.126044 l -4.06725,-2.107466 c -0.13779,-0.0714 -0.34181,-0.0604 -0.45745,0.02468 -0.11563,0.08507 -0.0978,0.211042 0.04,0.282438 l 3.6814,1.9076 -6.00489,-0.123687 c -0.17845,-0.0037 -0.32693,0.08202 -0.33289,0.192197 l -0.0101,0.188808 c -0.006,0.110174 0.13285,0.20178 0.31129,0.205456 l 7.19122,0.148218 c 0.008,0.0038 0.0169,0.0068 0.0254,0.01024 0.003,0.06709 0.0487,0.133237 0.13888,0.179968 l 5.48325,2.841178 -0.5486,1.953788 h -9.14353 c -0.0585,0 -0.11345,0.0083 -0.16322,0.02239 l -4.32627,-3.407378 c -0.11015,-0.08676 -0.31193,-0.101824 -0.45244,-0.03381 l -0.24077,0.116541 c -0.14051,0.06801 -0.16492,0.192589 -0.0548,0.279344 l 4.2214,3.324726 -0.10702,0.05179 c -0.0575,-0.03211 -0.13361,-0.05179 -0.21763,-0.05179 h -5.30977 c -0.17988,0 -0.32465,0.08939 -0.32465,0.200447 0,0.111064 0.14477,0.200521 0.32465,0.200521 h 4.80603 l -4.72836,2.288677 c -0.14051,0.06801 -0.16503,0.192589 -0.0549,0.279345 l 0.18875,0.148659 c 0.11016,0.08676 0.31193,0.10182 0.45244,0.03381 l 5.6627,-2.74077 c 0.0101,-2.85e-4 0.0201,-0.0014 0.0302,-0.0022 0.0718,0.05038 0.17589,0.08273 0.29363,0.08273 h 7.41039 l 1.5185,2.458995 -4.34919,3.233748 c -0.0859,0.06385 -0.10971,0.146351 -0.076,0.220337 l -0.0834,0.01112 c -0.0687,0.0092 -0.12721,0.03117 -0.17086,0.06092 l -7.03265,0.938882 c -0.17451,0.02329 -0.2847,0.128724 -0.24698,0.23647 l 0.0647,0.184609 c 0.0377,0.107747 0.20861,0.175709 0.38312,0.152417 l 5.87257,-0.783814 -3.07039,2.282858 c -0.11492,0.08544 -0.0959,0.211337 0.0425,0.28229 0.13838,0.07095 0.34217,0.05929 0.45708,-0.02615 l 3.39218,-2.522128 c 0.0537,-0.03991 0.0778,-0.08867 0.0746,-0.136504 l 0.13292,-0.01768 1.44583,4.129167 c 0.0377,0.107748 0.20848,0.175709 0.38299,0.152416 l 0.299,-0.03993 c 0.17451,-0.02329 0.28471,-0.128723 0.24698,-0.23647 l -1.50585,-4.300442 c 0.137,0.01725 0.28399,-0.01046 0.3799,-0.08177 l 3.42952,-2.549974 c 0.0217,0.0051 0.0449,0.009 0.0696,0.01112 l 5.6312,0.492536 c 0.0195,0.0017 0.0391,0.0022 0.0586,0.0018 v 4.248286 c 0,0.03611 0.0135,0.07005 0.0363,0.100776 l -5.51869,2.671155 c -0.14051,0.06801 -0.16491,0.19259 -0.0548,0.279345 l 0.18876,0.148659 c 0.11015,0.08675 0.31192,0.101823 0.45243,0.03381 l 5.38482,-2.606402 0.0839,0.06608 c -0.052,0.03552 -0.0839,0.0825 -0.0839,0.134368 v 3.27839 c 0,0.111061 0.14477,0.200447 0.32465,0.200447 0.17988,0 0.32477,-0.08939 0.32477,-0.200447 v -2.967369 l 3.70681,2.919412 c 0.11015,0.08676 0.31192,0.101898 0.45243,0.03389 l 0.24078,-0.11654 c 0.14051,-0.06801 0.16491,-0.192589 0.0548,-0.279344 l -4.43903,-3.496296 c -4.6e-4,-0.0062 -0.002,-0.01243 -0.004,-0.01864 0.0816,-0.04433 0.13398,-0.1086 0.13398,-0.181294 v -3.147145 c 0.004,-8.12e-4 0.008,-0.0014 0.0123,-0.0023 l 6.19579,-1.390017 c 0.0454,-0.01019 0.0838,-0.02559 0.11466,-0.04449 l 4.36494,2.261789 c 0.10297,0.05335 0.23638,0.06853 0.35639,0.0481 l 0.0177,0.05157 c 0.0145,0.04245 0.0499,0.07861 0.0978,0.105712 l 1.48401,4.346999 c 0.0368,0.107868 0.20698,0.176477 0.38168,0.153743 l 0.29936,-0.03897 c 0.1747,-0.02274 0.28571,-0.127939 0.24888,-0.235807 l -1.23906,-3.629854 3.6814,1.9076 c 0.13778,0.07139 0.34181,0.06032 0.45744,-0.02475 0.11564,-0.08507 0.0978,-0.210967 -0.04,-0.282365 l -4.06725,-2.107531 c -0.0643,-0.03334 -0.14311,-0.04846 -0.22061,-0.04671 l -0.028,-0.08214 6.69523,-0.871183 c 0.17471,-0.02273 0.28571,-0.127867 0.24889,-0.235733 l -0.0631,-0.18483 c -0.0368,-0.107867 -0.2071,-0.1764 -0.3818,-0.153669 l -6.97288,0.907353 c 0.0287,-0.0845 -0.0154,-0.175335 -0.1304,-0.234923 l -3.69309,-1.91364 c 0.0401,-0.03081 0.0672,-0.06898 0.0758,-0.1119 l 0.65574,-3.285167 c 0.0119,-0.05937 -0.014,-0.116789 -0.066,-0.162877 h 4.87273 c 0.13443,0 0.25245,-0.0414 0.3231,-0.104681 l 0.0672,0.03249 c 0.0553,0.02676 0.1201,0.04049 0.18506,0.04221 l 5.6627,2.740771 c 0.14051,0.06801 0.34228,0.05294 0.45243,-0.03381 l 0.18875,-0.148659 c 0.11016,-0.08675 0.0856,-0.211332 -0.0549,-0.279344 l -4.72834,-2.288667 h 4.80604 c 0.17988,0 0.32465,-0.08946 0.32465,-0.200521 0,-0.111063 -0.14477,-0.200447 -0.32465,-0.200447 h -5.30977 c -0.084,0 -0.1601,0.01968 -0.21763,0.05179 l -0.10702,-0.05179 4.2214,-3.324726 c 0.11015,-0.08676 0.0858,-0.211333 -0.0548,-0.279344 l -0.24077,-0.116541 c -0.14051,-0.06801 -0.34229,-0.05294 -0.45244,0.03381 l -4.39643,3.462631 c -0.066,-0.0761 -0.19445,-0.128181 -0.34458,-0.128181 h -6.2978 c 0.0154,-0.05425 -0.005,-0.112172 -0.065,-0.158972 l -3.82958,-2.989838 5.14274,-3.82367 c 0.0374,-0.02778 0.0621,-0.05924 0.0764,-0.09186 l 7.0095,0.121845 c 0.17847,0.0031 0.32619,-0.08311 0.33121,-0.193301 l 0.009,-0.188808 c 0.005,-0.110193 -0.13461,-0.201397 -0.31308,-0.204499 l -6.83993,-0.118828 0.004,-0.08398 c 0.0768,-0.0068 0.14987,-0.03037 0.20355,-0.07028 l 3.39218,-2.522127 c 0.11491,-0.08544 0.096,-0.211338 -0.0424,-0.282291 -0.13839,-0.07095 -0.34241,-0.05929 -0.45733,0.02615 l -3.07027,2.282858 0.16894,-3.708088 c 0.005,-0.110193 -0.13448,-0.20147 -0.31295,-0.204572 l -0.30592,-0.0053 c -0.17847,-0.0031 -0.32607,0.08311 -0.33109,0.193301 l -0.2026,4.440777 c -0.006,0.005 -0.0111,0.01041 -0.0166,0.01569 -0.10865,0.0019 -0.21543,0.03071 -0.29064,0.08663 l -2.75434,2.047935 h -4.40216 c -0.06,0 -0.11604,0.01002 -0.16417,0.0274 v -3.552062 c 0,-0.083 -0.0671,-0.155864 -0.16955,-0.199489 l 0.0526,-0.04148 c 0.0434,-0.03414 0.0656,-0.07415 0.0684,-0.114257 l 4.43903,-3.496296 c 0.11018,-0.08674 0.0858,-0.211322 -0.0547,-0.279332 l -0.24077,-0.116541 c -0.14051,-0.06801 -0.34228,-0.05287 -0.45243,0.03389 l -3.70681,2.919412 v -2.967369 c 0,-0.111062 -0.14489,-0.200447 -0.32477,-0.200447 z m 0.38908,8.454876 c 0.0481,0.01739 0.10417,0.02733 0.16418,0.02733 h 3.73556 l -3.89974,2.899522 z m -1.2844,0.566644 v 3.315223 l -0.56781,0.422111 -2.98604,-1.547296 z m 3.79522,1.734704 3.40912,2.661578 h -5.91994 v -0.794716 z m -8.22435,1.03708 3.04081,1.575657 -0.0657,0.04884 h -3.43132 z m -2.18616,2.417521 h 1.13287 l 0.12349,0.007 c 0.0352,0.002 0.0697,-6.35e-4 0.10213,-0.007 h 2.7362 l -2.80624,2.086462 z m 5.76423,0 h 0.85106 v 3.627201 l -5.12639,-0.448409 z m 3.08543,0 h 6.6802 c -0.0163,0.02113 -0.0275,0.04436 -0.0324,0.06917 l -0.61064,3.059084 z m -0.94997,0.542997 5.51488,2.857606 -5.51488,1.237232 z" />
    <path
       id="path5356"
       style="fill:#ffffff;stroke:#000000;stroke-width:0.158017;stroke-linecap:round;stroke-linejoin:round;stroke-opacity:0.955017;paint-order:stroke markers fill"
       d="m -68.97414,-32.506368 c -0.17988,0 -0.32465,0.0894 -0.32465,0.20044 v 3.27839 c 0,0.0519 0.0319,0.0988 0.0839,0.13437 l -0.0839,0.0661 -5.38483,-2.6064 c -0.14051,-0.068 -0.34228,-0.0529 -0.45243,0.0338 l -0.18875,0.14866 c -0.11016,0.0867 -0.0857,0.21133 0.0548,0.27934 l 5.60817,2.71447 c -0.12324,0.0408 -0.2076,0.12006 -0.2076,0.21275 v 3.83215 l -4.19515,2.58518 -5.52705,-2.86387 c -0.0448,-0.0232 -0.0957,-0.0387 -0.14843,-0.0477 l 0.23386,-4.32718 c 0.006,-0.11017 -0.13297,-0.20178 -0.31141,-0.20545 l -0.3058,-0.006 c -0.17844,-0.004 -0.32681,0.0821 -0.33276,0.19227 l -0.22801,4.22228 -0.1359,-0.003 c -0.0106,-0.0474 -0.0484,-0.0927 -0.11275,-0.12605 l -4.06728,-2.10746 c -0.13779,-0.0714 -0.34181,-0.0604 -0.45745,0.0247 -0.11564,0.0851 -0.0978,0.21104 0.04,0.28244 l 3.6814,1.9076 -6.00489,-0.12369 c -0.17845,-0.004 -0.32694,0.082 -0.33289,0.1922 l -0.0101,0.1888 c -0.006,0.11018 0.13285,0.20178 0.31129,0.20546 l 7.19122,0.14822 c 0.008,0.004 0.0169,0.007 0.0254,0.0102 0.002,0.0671 0.0487,0.13323 0.13888,0.17997 l 5.48326,2.84117 -0.54861,1.95379 h -9.14353 c -0.0585,0 -0.11345,0.008 -0.16322,0.0224 l -4.32628,-3.40738 c -0.11015,-0.0868 -0.31192,-0.10182 -0.45243,-0.0338 l -0.24077,0.11654 c -0.14051,0.068 -0.16492,0.19259 -0.0548,0.27935 l 4.2214,3.32472 -0.10702,0.0518 c -0.0575,-0.0321 -0.13361,-0.0518 -0.21763,-0.0518 h -5.30977 c -0.17988,0 -0.32465,0.0894 -0.32465,0.20045 0,0.11107 0.14477,0.20052 0.32465,0.20052 h 4.80603 l -4.72836,2.28868 c -0.14051,0.068 -0.16504,0.19259 -0.0549,0.27934 l 0.18875,0.14866 c 0.11015,0.0868 0.31193,0.10182 0.45244,0.0338 l 5.6627,-2.74077 c 0.0101,-2.8e-4 0.0201,-0.001 0.0302,-0.002 0.0718,0.0504 0.17589,0.0827 0.29363,0.0827 h 7.41039 l 1.51849,2.459 -4.34918,3.23375 c -0.0859,0.0639 -0.10971,0.14635 -0.076,0.22033 l -0.0834,0.0111 c -0.0687,0.009 -0.12721,0.0312 -0.17086,0.0609 l -7.03265,0.93889 c -0.17451,0.0233 -0.28471,0.12872 -0.24698,0.23647 l 0.0647,0.1846 c 0.0377,0.10775 0.20861,0.17571 0.38312,0.15242 l 5.87257,-0.78381 -3.07039,2.2828597 c -0.11492,0.0854 -0.0959,0.21133 0.0425,0.28229 0.13838,0.0709 0.34217,0.0593 0.45708,-0.0262 l 3.39218,-2.5221297 c 0.0537,-0.0399 0.0778,-0.0887 0.0746,-0.13651 l 0.13292,-0.0177 1.44583,4.1291697 c 0.0377,0.10775 0.20848,0.17571 0.38299,0.15242 l 0.299,-0.0399 c 0.17451,-0.0233 0.28471,-0.12873 0.24698,-0.23647 l -1.50585,-4.3004497 c 0.137,0.0173 0.28398,-0.0105 0.37989,-0.0818 l 3.42953,-2.54997 c 0.0217,0.005 0.0448,0.009 0.0696,0.0111 l 5.63121,0.49254 c 0.0195,0.002 0.0391,0.002 0.0586,0.002 v 4.2482797 c 0,0.0361 0.0135,0.07 0.0363,0.10078 l -5.5187,2.67115 c -0.14051,0.068 -0.16491,0.19259 -0.0548,0.27935 l 0.18876,0.14866 c 0.11015,0.0867 0.31192,0.10182 0.45243,0.0338 l 5.38483,-2.6064 0.0839,0.0661 c -0.052,0.0355 -0.0839,0.0825 -0.0839,0.13436 v 3.27839 c 0,0.11106 0.14477,0.20045 0.32465,0.20045 0.17987,0 0.32476,-0.0894 0.32476,-0.20045 v -2.96737 l 3.70681,2.91942 c 0.11015,0.0868 0.31192,0.10189 0.45244,0.0339 l 0.24077,-0.11654 c 0.14051,-0.068 0.16492,-0.19259 0.0548,-0.27935 l -4.43903,-3.49629 c -4.6e-4,-0.006 -0.002,-0.0124 -0.004,-0.0186 0.0816,-0.0443 0.13399,-0.1086 0.13399,-0.1813 v -3.1471397 c 0.004,-8.1e-4 0.008,-10e-4 0.0123,-0.002 l 6.19579,-1.39002 c 0.0454,-0.0102 0.0838,-0.0256 0.11466,-0.0445 l 4.36493,2.26179 c 0.10297,0.0534 0.23639,0.0685 0.35639,0.0481 l 0.0177,0.0516 c 0.0145,0.0425 0.0499,0.0786 0.0978,0.10571 l 1.48401,4.3469997 c 0.0368,0.10787 0.20698,0.17648 0.38169,0.15374 l 0.29935,-0.039 c 0.17471,-0.0227 0.28571,-0.12794 0.24889,-0.2358 l -1.23907,-3.6298597 3.6814,1.9075997 c 0.13778,0.0714 0.34181,0.0603 0.45744,-0.0247 0.11564,-0.0851 0.0978,-0.21096 -0.04,-0.28236 l -4.06725,-2.1075297 c -0.0644,-0.0333 -0.14311,-0.0485 -0.22061,-0.0467 l -0.028,-0.0821 6.69523,-0.87119 c 0.17471,-0.0227 0.28571,-0.12786 0.24889,-0.23573 l -0.0631,-0.18483 c -0.0368,-0.10787 -0.2071,-0.1764 -0.3818,-0.15367 l -6.97287,0.90735 c 0.0287,-0.0845 -0.0154,-0.17533 -0.13041,-0.23492 l -3.69309,-1.91364 c 0.0401,-0.0308 0.0672,-0.069 0.0758,-0.1119 l 0.65575,-3.28517 c 0.0118,-0.0594 -0.014,-0.11678 -0.066,-0.16287 h 4.87273 c 0.13443,0 0.25244,-0.0414 0.3231,-0.10468 l 0.0672,0.0325 c 0.0553,0.0268 0.12009,0.0405 0.18505,0.0422 l 5.6627,2.74077 c 0.14051,0.068 0.34228,0.0529 0.45243,-0.0338 l 0.18875,-0.14866 c 0.11016,-0.0867 0.0856,-0.21133 -0.0549,-0.27935 l -4.72834,-2.28866 h 4.80604 c 0.17988,0 0.32465,-0.0895 0.32465,-0.20052 0,-0.11107 -0.14477,-0.20045 -0.32465,-0.20045 h -5.30977 c -0.084,0 -0.1601,0.0197 -0.21763,0.0518 l -0.10702,-0.0518 4.2214,-3.32473 c 0.11015,-0.0868 0.0858,-0.21133 -0.0548,-0.27934 l -0.24077,-0.11654 c -0.14051,-0.068 -0.34229,-0.0529 -0.45244,0.0338 l -4.39643,3.46263 c -0.066,-0.0761 -0.19445,-0.12818 -0.34458,-0.12818 h -6.2978 c 0.0154,-0.0542 -0.005,-0.11217 -0.065,-0.15897 l -3.82958,-2.98984 5.14274,-3.82367 c 0.0374,-0.0278 0.0621,-0.0592 0.0764,-0.0919 l 7.0095,0.12184 c 0.17847,0.003 0.32619,-0.0831 0.33121,-0.1933 l 0.009,-0.18881 c 0.005,-0.11019 -0.13461,-0.20139 -0.31308,-0.20449 l -6.83993,-0.11883 0.004,-0.084 c 0.0768,-0.007 0.14988,-0.0304 0.20355,-0.0703 l 3.39218,-2.52213 c 0.11492,-0.0854 0.096,-0.21134 -0.0424,-0.28229 -0.13839,-0.071 -0.34241,-0.0593 -0.45733,0.0261 l -3.07027,2.28286 0.16895,-3.70809 c 0.005,-0.11019 -0.13449,-0.20147 -0.31296,-0.20457 l -0.30592,-0.005 c -0.17847,-0.003 -0.32607,0.0831 -0.33109,0.1933 l -0.20259,4.44078 c -0.006,0.005 -0.0111,0.0104 -0.0166,0.0157 -0.10865,0.002 -0.21544,0.0307 -0.29065,0.0866 l -2.75433,2.04793 h -4.40217 c -0.06,0 -0.11604,0.01 -0.16417,0.0274 v -3.55206 c 0,-0.083 -0.0671,-0.15587 -0.16954,-0.19949 l 0.0526,-0.0415 c 0.0434,-0.0341 0.0656,-0.0741 0.0684,-0.11426 l 4.43903,-3.49629 c 0.11018,-0.0867 0.0858,-0.21133 -0.0547,-0.27934 l -0.24078,-0.11654 c -0.14051,-0.068 -0.34228,-0.0529 -0.45243,0.0339 l -3.70681,2.91942 v -2.96737 c 0,-0.11107 -0.14489,-0.20045 -0.32477,-0.20045 z m 0.38908,8.45487 c 0.0481,0.0174 0.10416,0.0273 0.16417,0.0273 h 3.73556 l -3.89973,2.89952 z m -1.28441,0.56665 v 3.31522 l -0.56781,0.42211 -2.98604,-1.5473 z m 3.79522,1.7347 3.40913,2.66158 h -5.91994 v -0.79472 z m -8.22434,1.03708 3.0408,1.57566 -0.0657,0.0488 h -3.43131 z m -2.18617,2.41752 h 1.13287 l 0.12349,0.007 c 0.0352,0.002 0.0697,-6.3e-4 0.10213,-0.007 h 2.7362 l -2.80623,2.08646 z m 5.76424,0 h 0.85105 v 3.6272 l -5.12639,-0.44841 z m 3.08542,0 h 6.6802 c -0.0163,0.0211 -0.0275,0.0444 -0.0324,0.0692 l -0.61064,3.05909 z m -0.94996,0.543 5.51487,2.8576 -5.51487,1.23724 z m 42.337554,-27.097072 c -0.17988,0 -0.32465,0.08939 -0.32465,0.200447 v 3.27839 c 0,0.05187 0.0319,0.09885 0.0839,0.134368 l -0.0839,0.06608 -5.38483,-2.606402 c -0.14051,-0.06801 -0.34228,-0.05294 -0.45243,0.03381 l -0.18875,0.148659 c -0.11016,0.08675 -0.0857,0.211333 0.0548,0.279344 l 5.60817,2.714471 c -0.12324,0.04077 -0.2076,0.120057 -0.2076,0.21275 v 3.832145 l -4.19515,2.58518 -5.527054,-2.86386 c -0.0448,-0.0232 -0.0957,-0.0387 -0.14842,-0.0477 l 0.23385,-4.327187 c 0.006,-0.110171 -0.13297,-0.201782 -0.31141,-0.205456 l -0.3058,-0.0063 c -0.17844,-0.0037 -0.32681,0.0821 -0.33276,0.19227 l -0.22801,4.222283 -0.13589,-0.003 c -0.0106,-0.0474 -0.0484,-0.0927 -0.11275,-0.12605 l -4.06729,-2.10746 c -0.13779,-0.0714 -0.34181,-0.0604 -0.45745,0.0247 -0.11563,0.0851 -0.0978,0.21104 0.04,0.28244 l 3.6814,1.9076 -6.00489,-0.12369 c -0.17845,-0.004 -0.32693,0.082 -0.33289,0.1922 l -0.0101,0.1888 c -0.006,0.11018 0.13285,0.20178 0.31129,0.20546 l 7.19122,0.14822 c 0.008,0.004 0.0169,0.007 0.0254,0.0102 0.002,0.0671 0.0487,0.13324 0.13888,0.17997 l 5.483264,2.84117 -0.5486,1.95379 H -41.8995 c -0.0585,0 -0.11345,0.008 -0.16322,0.0224 l -4.32627,-3.40738 c -0.11015,-0.0868 -0.31193,-0.10182 -0.45244,-0.0338 l -0.24076,0.11655 c -0.14051,0.068 -0.16492,0.19258 -0.0548,0.27934 l 4.2214,3.32473 -0.10702,0.0518 c -0.0575,-0.0321 -0.13361,-0.0518 -0.21763,-0.0518 h -5.30977 c -0.17988,0 -0.32465,0.0894 -0.32465,0.20044 0,0.11107 0.14477,0.20052 0.32465,0.20052 h 4.80603 l -4.72836,2.28868 c -0.14051,0.068 -0.16503,0.19259 -0.0549,0.27935 l 0.18875,0.14865 c 0.11016,0.0868 0.31193,0.10182 0.45244,0.0338 l 5.6627,-2.74077 c 0.0101,-2.8e-4 0.0201,-0.001 0.0302,-0.002 0.0718,0.0504 0.17589,0.0827 0.29363,0.0827 h 7.410394 l 1.5185,2.459 -4.349194,3.23375 c -0.0859,0.0639 -0.10971,0.14635 -0.076,0.22033 l -0.0834,0.0111 c -0.0687,0.009 -0.12721,0.0312 -0.17086,0.0609 l -7.03265,0.93889 c -0.17451,0.0233 -0.2847,0.12872 -0.24698,0.23647 l 0.0647,0.18461 c 0.0377,0.10774 0.20861,0.1757 0.38312,0.15241 l 5.87257,-0.78381 -3.07039,2.28286 c -0.11492,0.0854 -0.0959,0.21133 0.0425,0.28229 0.13838,0.0709 0.34217,0.0593 0.45708,-0.0262 l 3.39219,-2.52213 c 0.0537,-0.0399 0.0778,-0.0887 0.0746,-0.13651 l 0.13291,-0.0177 1.445834,4.12917 c 0.0377,0.10775 0.20849,0.17571 0.383,0.15242 l 0.29899,-0.0399 c 0.17451,-0.0233 0.28471,-0.12873 0.24698,-0.23647 l -1.505844,-4.30044 c 0.13699,0.0173 0.28398,-0.0105 0.379894,-0.0818 l 3.42952,-2.54998 c 0.0217,0.005 0.0448,0.009 0.0696,0.0111 l 5.63121,0.49254 c 0.0195,0.002 0.0391,0.002 0.0586,0.002 v 4.24828 c 0,0.0361 0.0135,0.0701 0.0363,0.10078 l -5.51869,2.67115 c -0.14052,0.068 -0.16492,0.19259 -0.0548,0.27935 l 0.18875,0.14866 c 0.11015,0.0867 0.31192,0.10182 0.45243,0.0338 l 5.38483,-2.6064 0.0839,0.0661 c -0.052,0.0355 -0.0839,0.0825 -0.0839,0.13436 v 3.27839 c 0,0.11107 0.14477,0.20045 0.32465,0.20045 0.17987,0 0.32476,-0.0894 0.32476,-0.20045 v -2.96736 l 3.70681,2.91941 c 0.11015,0.0868 0.31192,0.1019 0.45244,0.0339 l 0.24077,-0.11654 c 0.14051,-0.068 0.16492,-0.19259 0.0548,-0.27935 l -4.43903,-3.49629 c -4.6e-4,-0.006 -0.002,-0.0124 -0.004,-0.0186 0.0816,-0.0443 0.13399,-0.1086 0.13399,-0.1813 v -3.14714 c 0.004,-8.1e-4 0.008,-0.001 0.0123,-0.002 l 6.19579,-1.39002 c 0.0454,-0.0102 0.0838,-0.0256 0.11466,-0.0445 l 4.36493,2.26179 c 0.10297,0.0534 0.23639,0.0685 0.35639,0.0481 l 0.0177,0.0516 c 0.0145,0.0425 0.0499,0.0786 0.0978,0.10571 l 1.48401,4.347 c 0.0368,0.10787 0.20698,0.17648 0.38169,0.15374 l 0.29935,-0.039 c 0.17471,-0.0227 0.28571,-0.12793 0.24889,-0.2358 l -1.23907,-3.62986 3.6814004,1.9076 c 0.13778,0.0714 0.34181,0.0603 0.45744,-0.0247 0.11564,-0.0851 0.0978,-0.21096 -0.04,-0.28236 l -4.0672504,-2.10753 c -0.0644,-0.0333 -0.14311,-0.0485 -0.22061,-0.0467 l -0.028,-0.0821 6.6952304,-0.87119 c 0.17471,-0.0227 0.28571,-0.12786 0.24889,-0.23573 l -0.0631,-0.18483 c -0.0368,-0.10787 -0.2071,-0.1764 -0.3818,-0.15367 l -6.9728704,0.90736 c 0.0287,-0.0845 -0.0154,-0.17534 -0.13041,-0.23493 l -3.69309,-1.91364 c 0.0401,-0.0308 0.0672,-0.069 0.0758,-0.1119 l 0.65575,-3.28516 c 0.0118,-0.0594 -0.014,-0.11679 -0.066,-0.16288 h 4.87273 c 0.13443,0 0.25244,-0.0414 0.3231,-0.10468 l 0.0672,0.0325 c 0.0553,0.0268 0.12009,0.0405 0.18505,0.0422 l 5.6627004,2.74077 c 0.14051,0.068 0.34228,0.0529 0.45243,-0.0338 l 0.18875,-0.14866 c 0.11016,-0.0867 0.0856,-0.21133 -0.0549,-0.27934 l -4.7283404,-2.28867 h 4.8060404 c 0.17988,0 0.32465,-0.0895 0.32465,-0.20052 0,-0.11107 -0.14477,-0.20045 -0.32465,-0.20045 h -5.3097704 c -0.084,0 -0.1601,0.0197 -0.21763,0.0518 l -0.10702,-0.0518 4.2214004,-3.32473 c 0.11015,-0.0868 0.0858,-0.21133 -0.0548,-0.27934 l -0.24077,-0.11654 c -0.14051,-0.068 -0.34229,-0.0529 -0.45244,0.0338 l -4.3964304,3.46263 c -0.066,-0.0761 -0.19445,-0.12818 -0.34458,-0.12818 h -6.2978 c 0.0154,-0.0542 -0.005,-0.11217 -0.065,-0.15897 l -3.82958,-2.98984 5.14274,-3.82367 c 0.0374,-0.0278 0.0621,-0.0592 0.0764,-0.0919 l 7.0095,0.12184 c 0.17847,0.003 0.32619,-0.0831 0.33121,-0.1933 l 0.009,-0.1888 c 0.005,-0.1102 -0.13461,-0.2014 -0.31308,-0.2045 l -6.83993,-0.11883 0.004,-0.084 c 0.0768,-0.007 0.14988,-0.0304 0.20355,-0.0703 l 3.39218,-2.522128 c 0.11492,-0.08544 0.096,-0.211338 -0.0424,-0.282291 -0.13839,-0.07095 -0.34241,-0.05929 -0.45733,0.02615 l -3.07027,2.282859 0.16895,-3.708089 c 0.005,-0.110193 -0.13449,-0.20147 -0.31296,-0.204572 l -0.30592,-0.0053 c -0.17847,-0.0031 -0.32607,0.08311 -0.33109,0.193301 l -0.20259,4.44078 c -0.006,0.005 -0.0111,0.0104 -0.0166,0.0157 -0.10865,0.002 -0.21544,0.0307 -0.29065,0.0866 l -2.75433,2.04793 h -4.40217 c -0.06,0 -0.11604,0.01 -0.16417,0.0274 v -3.55206 c 0,-0.083 -0.0671,-0.155864 -0.16954,-0.199489 l 0.0526,-0.04148 c 0.0434,-0.03414 0.0656,-0.07415 0.0684,-0.114257 l 4.43903,-3.496296 c 0.11018,-0.08674 0.0858,-0.211322 -0.0547,-0.279332 l -0.24078,-0.116541 c -0.14051,-0.06801 -0.34228,-0.05287 -0.45243,0.03389 l -3.70681,2.919412 v -2.967369 c 0,-0.111062 -0.14489,-0.200447 -0.32477,-0.200447 z m 0.38908,8.454872 c 0.0481,0.0174 0.10416,0.0273 0.16417,0.0273 h 3.73556 l -3.89973,2.89953 z m -1.28441,0.56665 v 3.31522 l -0.56781,0.42211 -2.98604,-1.54729 z m 3.79522,1.7347 3.40913,2.66158 h -5.91994 v -0.79472 z m -8.22434,1.03708 3.0408,1.57566 -0.0657,0.0488 h -3.43131 z m -2.18617,2.41752 h 1.13287 l 0.12349,0.007 c 0.0352,0.002 0.0697,-6.3e-4 0.10213,-0.007 h 2.7362 l -2.80623,2.08646 z m 5.76424,0 h 0.85105 v 3.6272 l -5.12639,-0.44841 z m 3.08542,0 h 6.6802 c -0.0163,0.0211 -0.0275,0.0444 -0.0324,0.0692 l -0.61064,3.05909 z m -0.94996,0.543 5.51487,2.85761 -5.51487,1.23723 z m -27.924034,-43.87123 c -0.17988,0 -0.32465,0.08939 -0.32465,0.200447 v 3.27839 c 0,0.05187 0.0319,0.09885 0.0839,0.134368 l -0.0839,0.06608 -5.38482,-2.606402 c -0.14051,-0.06801 -0.34228,-0.05294 -0.45243,0.03381 l -0.18875,0.148659 c -0.11016,0.08675 -0.0857,0.211333 0.0548,0.279344 l 5.60817,2.714471 c -0.12325,0.04077 -0.2076,0.120057 -0.2076,0.21275 v 3.832142 l -4.19516,2.585187 -5.52704,-2.863868 c -0.0448,-0.02321 -0.0957,-0.03867 -0.14843,-0.04766 l 0.23386,-4.327183 c 0.006,-0.110171 -0.13297,-0.201782 -0.31141,-0.205456 l -0.3058,-0.0063 c -0.17844,-0.0037 -0.32681,0.0821 -0.33276,0.19227 l -0.22801,4.222282 -0.13589,-0.0029 c -0.0106,-0.04743 -0.0484,-0.0927 -0.11275,-0.126044 l -4.06725,-2.107466 c -0.13779,-0.0714 -0.34181,-0.0604 -0.45745,0.02468 -0.11563,0.08507 -0.0978,0.211042 0.04,0.282438 l 3.6814,1.9076 -6.00489,-0.123687 c -0.17845,-0.0037 -0.32693,0.08202 -0.33289,0.192197 l -0.0101,0.188808 c -0.006,0.110174 0.13285,0.20178 0.31129,0.205456 l 7.19122,0.148218 c 0.008,0.0038 0.0169,0.0068 0.0254,0.01024 0.003,0.06709 0.0487,0.133237 0.13888,0.179968 l 5.48325,2.841178 -0.5486,1.953788 h -9.14353 c -0.0585,0 -0.11345,0.0083 -0.16322,0.02239 l -4.32627,-3.407378 c -0.11015,-0.08676 -0.31193,-0.101824 -0.45244,-0.03381 l -0.24077,0.116541 c -0.14051,0.06801 -0.16492,0.192589 -0.0548,0.279344 l 4.2214,3.324726 -0.10702,0.05179 c -0.0575,-0.03211 -0.13361,-0.05179 -0.21763,-0.05179 h -5.30977 c -0.17988,0 -0.32465,0.08939 -0.32465,0.200447 0,0.111064 0.14477,0.200521 0.32465,0.200521 h 4.80603 l -4.72836,2.288677 c -0.14051,0.06801 -0.16503,0.192589 -0.0549,0.279345 l 0.18875,0.148659 c 0.11016,0.08676 0.31193,0.10182 0.45244,0.03381 l 5.6627,-2.74077 c 0.0101,-2.85e-4 0.0201,-0.0014 0.0302,-0.0022 0.0718,0.05038 0.17589,0.08273 0.29363,0.08273 h 7.41039 l 1.5185,2.458995 -4.34919,3.233748 c -0.0859,0.06385 -0.10971,0.146351 -0.076,0.220337 l -0.0834,0.01112 c -0.0687,0.0092 -0.12721,0.03117 -0.17086,0.06092 l -7.03265,0.938882 c -0.17451,0.02329 -0.2847,0.128724 -0.24698,0.23647 l 0.0647,0.184609 c 0.0377,0.107747 0.20861,0.175709 0.38312,0.152417 l 5.87257,-0.783814 -3.07039,2.282858 c -0.11492,0.08544 -0.0959,0.211337 0.0425,0.28229 0.13838,0.07095 0.34217,0.05929 0.45708,-0.02615 l 3.39218,-2.522128 c 0.0537,-0.03991 0.0778,-0.08867 0.0746,-0.136504 l 0.13292,-0.01768 1.44583,4.129167 c 0.0377,0.107748 0.20848,0.175709 0.38299,0.152416 l 0.299,-0.03993 c 0.17451,-0.02329 0.28471,-0.128723 0.24698,-0.23647 l -1.50585,-4.300442 c 0.137,0.01725 0.28399,-0.01046 0.3799,-0.08177 l 3.42952,-2.549974 c 0.0217,0.0051 0.0449,0.009 0.0696,0.01112 l 5.6312,0.492536 c 0.0195,0.0017 0.0391,0.0022 0.0586,0.0018 v 4.248286 c 0,0.03611 0.0135,0.07005 0.0363,0.100776 l -5.51869,2.671155 c -0.14051,0.06801 -0.16491,0.19259 -0.0548,0.279345 l 0.18876,0.148659 c 0.11015,0.08675 0.31192,0.101823 0.45243,0.03381 l 5.38482,-2.606402 0.0839,0.06608 c -0.052,0.03552 -0.0839,0.0825 -0.0839,0.134368 v 3.27839 c 0,0.111061 0.14477,0.200447 0.32465,0.200447 0.17988,0 0.32477,-0.08939 0.32477,-0.200447 v -2.967369 l 3.70681,2.919412 c 0.11015,0.08676 0.31192,0.101898 0.45243,0.03389 l 0.24078,-0.11654 c 0.14051,-0.06801 0.16491,-0.192589 0.0548,-0.279344 l -4.43903,-3.496296 c -4.6e-4,-0.0062 -0.002,-0.01243 -0.004,-0.01864 0.0816,-0.04433 0.13398,-0.1086 0.13398,-0.181294 v -3.147145 c 0.004,-8.12e-4 0.008,-0.0014 0.0123,-0.0023 l 6.19579,-1.390017 c 0.0454,-0.01019 0.0838,-0.02559 0.11466,-0.04449 l 4.36494,2.261789 c 0.10297,0.05335 0.23638,0.06853 0.35639,0.0481 l 0.0177,0.05157 c 0.0145,0.04245 0.0499,0.07861 0.0978,0.105712 l 1.48401,4.346999 c 0.0368,0.107868 0.20698,0.176477 0.38168,0.153743 l 0.29936,-0.03897 c 0.1747,-0.02274 0.28571,-0.127939 0.24888,-0.235807 l -1.23906,-3.629854 3.6814,1.9076 c 0.13778,0.07139 0.34181,0.06032 0.45744,-0.02475 0.11564,-0.08507 0.0978,-0.210967 -0.04,-0.282365 l -4.06725,-2.107531 c -0.0643,-0.03334 -0.14311,-0.04846 -0.22061,-0.04671 l -0.028,-0.08214 6.695234,-0.871183 c 0.17471,-0.02273 0.28571,-0.127867 0.24889,-0.235733 l -0.0631,-0.18483 c -0.0368,-0.107867 -0.2071,-0.1764 -0.3818,-0.153669 l -6.972884,0.907353 c 0.0287,-0.0845 -0.0154,-0.175335 -0.1304,-0.234923 l -3.69309,-1.91364 c 0.0401,-0.03081 0.0672,-0.06898 0.0758,-0.1119 l 0.65574,-3.285167 c 0.0119,-0.05937 -0.014,-0.116789 -0.066,-0.162877 h 4.87273 c 0.13443,0 0.25245,-0.0414 0.3231,-0.104681 l 0.0672,0.03249 c 0.0553,0.02676 0.1201,0.04049 0.18506,0.04221 l 5.662704,2.740771 c 0.14051,0.06801 0.34228,0.05294 0.45243,-0.03381 l 0.18875,-0.148659 c 0.11016,-0.08675 0.0856,-0.211332 -0.0549,-0.279344 l -4.728344,-2.288667 h 4.806044 c 0.17988,0 0.32465,-0.08946 0.32465,-0.200521 0,-0.111063 -0.14477,-0.200447 -0.32465,-0.200447 h -5.309774 c -0.084,0 -0.1601,0.01968 -0.21763,0.05179 l -0.10702,-0.05179 4.221404,-3.324726 c 0.11015,-0.08676 0.0858,-0.211333 -0.0548,-0.279344 l -0.24077,-0.116541 c -0.14051,-0.06801 -0.34229,-0.05294 -0.45244,0.03381 l -4.396434,3.462631 c -0.066,-0.0761 -0.19445,-0.128181 -0.34458,-0.128181 h -6.2978 c 0.0154,-0.05425 -0.005,-0.112172 -0.065,-0.158972 l -3.82958,-2.989838 5.14274,-3.82367 c 0.0374,-0.02778 0.0621,-0.05924 0.0764,-0.09186 l 7.0095,0.121845 c 0.17847,0.0031 0.32619,-0.08311 0.33121,-0.193301 l 0.009,-0.188808 c 0.005,-0.110193 -0.13461,-0.201397 -0.31308,-0.204499 l -6.83993,-0.118828 0.004,-0.08398 c 0.0768,-0.0068 0.14987,-0.03037 0.20355,-0.07028 l 3.39218,-2.522127 c 0.11491,-0.08544 0.096,-0.211338 -0.0424,-0.282291 -0.13839,-0.07095 -0.34241,-0.05929 -0.45733,0.02615 l -3.07027,2.282858 0.16894,-3.708088 c 0.005,-0.110193 -0.13448,-0.20147 -0.31295,-0.204572 l -0.30592,-0.0053 c -0.17847,-0.0031 -0.32607,0.08311 -0.33109,0.193301 l -0.2026,4.440777 c -0.006,0.005 -0.0111,0.01041 -0.0166,0.01569 -0.10865,0.0019 -0.21543,0.03071 -0.29064,0.08663 l -2.75434,2.047935 h -4.40216 c -0.06,0 -0.11604,0.01002 -0.16417,0.0274 v -3.552062 c 0,-0.083 -0.0671,-0.155864 -0.16955,-0.199489 l 0.0526,-0.04148 c 0.0434,-0.03414 0.0656,-0.07415 0.0684,-0.114257 l 4.43903,-3.496296 c 0.11018,-0.08674 0.0858,-0.211322 -0.0547,-0.279332 l -0.24077,-0.116541 c -0.14051,-0.06801 -0.34228,-0.05287 -0.45243,0.03389 l -3.70681,2.919412 v -2.967369 c 0,-0.111062 -0.14489,-0.200447 -0.32477,-0.200447 z m 0.38908,8.454876 c 0.0481,0.01739 0.10417,0.02733 0.16418,0.02733 h 3.73556 l -3.89974,2.899522 z m -1.2844,0.566644 v 3.315223 l -0.56781,0.422111 -2.98604,-1.547296 z m 3.79522,1.734704 3.40912,2.661578 h -5.91994 v -0.794716 z m -8.22435,1.03708 3.04081,1.575657 -0.0657,0.04884 h -3.43132 z m -2.18616,2.417521 h 1.13287 l 0.12349,0.007 c 0.0352,0.002 0.0697,-6.35e-4 0.10213,-0.007 h 2.7362 l -2.80624,2.086462 z m 5.76423,0 h 0.85106 v 3.627201 l -5.12639,-0.448409 z m 3.08543,0 h 6.6802 c -0.0163,0.02113 -0.0275,0.04436 -0.0324,0.06917 l -0.61064,3.059084 z m -0.94997,0.542997 5.51488,2.857606 -5.51488,1.237232 z" />
    <path
       id="path5376"
       style="fill:#000000;stroke:#000000;stroke-width:0;stroke-linecap:round;stroke-linejoin:round;stroke-miterlimit:4;stroke-dasharray:none;stroke-opacity:0.955017;paint-order:stroke markers fill"
       d="m 25.052685,42.915571 c -0.17988,0 -0.32465,0.0894 -0.32465,0.20045 v 3.27839 c 0,0.0519 0.0319,0.0988 0.0839,0.13437 l -0.0839,0.0661 -5.38483,-2.6064 c -0.14051,-0.068 -0.34228,-0.0529 -0.45243,0.0338 l -0.18875,0.14866 c -0.11016,0.0867 -0.0857,0.21133 0.0548,0.27934 l 5.60817,2.71447 c -0.12324,0.0408 -0.2076,0.12006 -0.2076,0.21275 v 3.83214 l -4.19515,2.58519 -5.52705,-2.86387 c -0.0448,-0.0232 -0.0957,-0.0387 -0.14843,-0.0477 l 0.23386,-4.32718 c 0.006,-0.11017 -0.13297,-0.20178 -0.31141,-0.20546 l -0.3058,-0.006 c -0.17844,-0.004 -0.32681,0.0821 -0.33276,0.19227 l -0.22801,4.22228 -0.1359,-0.003 c -0.0106,-0.0474 -0.0484,-0.0927 -0.11275,-0.12604 l -4.0672801,-2.10747 c -0.13779,-0.0714 -0.34181,-0.0604 -0.45745,0.0247 -0.11564,0.0851 -0.0978,0.21105 0.04,0.28244 l 3.6814001,1.9076 -6.0048901,-0.12368 c -0.17845,-0.004 -0.32694,0.082 -0.33289,0.19219 l -0.0101,0.18881 c -0.006,0.11017 0.13285,0.20178 0.31129,0.20546 l 7.1912201,0.14821 c 0.008,0.004 0.0169,0.007 0.0254,0.0102 0.002,0.0671 0.0487,0.13324 0.13888,0.17997 l 5.48326,2.84118 -0.54861,1.95379 H 9.4006949 c -0.0585,0 -0.11345,0.008 -0.16322,0.0224 l -4.32628,-3.40738 c -0.11015,-0.0868 -0.31192,-0.10182 -0.45243,-0.0338 l -0.24077,0.11654 c -0.14051,0.068 -0.16492,0.19259 -0.0548,0.27935 l 4.2214,3.32472 -0.10702,0.0518 c -0.0575,-0.0321 -0.13361,-0.0518 -0.21763,-0.0518 h -5.309767 c -0.17988,0 -0.32465,0.0894 -0.32465,0.20045 0,0.11106 0.14477,0.20052 0.32465,0.20052 h 4.806027 l -4.728357,2.28868 c -0.14051,0.068 -0.16504,0.19259 -0.0549,0.27934 l 0.18875,0.14866 c 0.11015,0.0868 0.311927,0.10182 0.452437,0.0338 l 5.6627,-2.74077 c 0.0101,-2.8e-4 0.0201,-0.001 0.0302,-0.002 0.0718,0.0504 0.17589,0.0827 0.29363,0.0827 h 7.4103901 l 1.51849,2.459 -4.34918,3.23374 c -0.0859,0.0638 -0.10971,0.14635 -0.076,0.22034 l -0.0834,0.0111 c -0.0687,0.009 -0.12721,0.0312 -0.17086,0.0609 l -7.0326501,0.93888 c -0.17451,0.0233 -0.28471,0.12873 -0.24698,0.23647 l 0.0647,0.18461 c 0.0377,0.10775 0.20861,0.17571 0.38312,0.15242 l 5.8725701,-0.78382 -3.0703901,2.28286 c -0.11492,0.0854 -0.0959,0.21134 0.0425,0.28229 0.13838,0.071 0.3421701,0.0593 0.4570801,-0.0262 l 3.39218,-2.52213 c 0.0537,-0.0399 0.0778,-0.0887 0.0746,-0.1365 l 0.13292,-0.0177 1.44583,4.12917 c 0.0377,0.10775 0.20848,0.17571 0.38299,0.15241 l 0.299,-0.0399 c 0.17451,-0.0233 0.28471,-0.12872 0.24698,-0.23647 l -1.50585,-4.30044 c 0.137,0.0172 0.28398,-0.0105 0.37989,-0.0818 l 3.42953,-2.54997 c 0.0217,0.005 0.0448,0.009 0.0696,0.0111 l 5.63121,0.49253 c 0.0195,0.002 0.0391,0.002 0.0586,0.002 v 4.24829 c 0,0.0361 0.0135,0.0701 0.0363,0.10078 l -5.5187,2.67115 c -0.14051,0.068 -0.16491,0.19259 -0.0548,0.27935 l 0.18876,0.14865 c 0.11015,0.0868 0.31192,0.10183 0.45243,0.0338 l 5.38483,-2.6064 0.0839,0.0661 c -0.052,0.0355 -0.0839,0.0825 -0.0839,0.13437 v 3.27839 c 0,0.11106 0.14477,0.20045 0.32465,0.20045 0.17987,0 0.32476,-0.0894 0.32476,-0.20045 v -2.96737 l 3.70681,2.91942 c 0.11015,0.0868 0.31192,0.10189 0.45244,0.0339 l 0.24077,-0.11654 c 0.14051,-0.068 0.16492,-0.19259 0.0548,-0.27935 l -4.43903,-3.4963 c -4.6e-4,-0.006 -0.002,-0.0124 -0.004,-0.0186 0.0816,-0.0443 0.13399,-0.1086 0.13399,-0.18129 v -3.14715 c 0.004,-8.1e-4 0.008,-0.001 0.0123,-0.002 l 6.19579,-1.39001 c 0.0454,-0.0102 0.0838,-0.0256 0.11466,-0.0445 l 4.36493,2.26179 c 0.10297,0.0533 0.23639,0.0685 0.35639,0.0481 l 0.0177,0.0516 c 0.0145,0.0425 0.0499,0.0786 0.0978,0.10571 l 1.48401,4.347 c 0.0368,0.10787 0.20698,0.17647 0.38169,0.15374 l 0.29935,-0.039 c 0.17471,-0.0227 0.28571,-0.12794 0.24889,-0.23581 l -1.23907,-3.62985 3.6814,1.9076 c 0.13778,0.0714 0.34181,0.0603 0.45744,-0.0248 0.11564,-0.0851 0.0978,-0.21097 -0.04,-0.28237 l -4.06725,-2.10753 c -0.0644,-0.0333 -0.14311,-0.0485 -0.22061,-0.0467 l -0.028,-0.0821 6.69523,-0.87118 c 0.17471,-0.0227 0.28571,-0.12787 0.24889,-0.23573 l -0.0631,-0.18483 c -0.0368,-0.10787 -0.2071,-0.1764 -0.3818,-0.15367 l -6.97287,0.90735 c 0.0287,-0.0845 -0.0154,-0.17533 -0.13041,-0.23492 l -3.69309,-1.91364 c 0.0401,-0.0308 0.0672,-0.069 0.0758,-0.1119 l 0.65575,-3.28517 c 0.0118,-0.0594 -0.014,-0.11679 -0.066,-0.16288 h 4.87273 c 0.13443,0 0.25244,-0.0414 0.3231,-0.10468 l 0.0672,0.0325 c 0.0553,0.0268 0.12009,0.0405 0.18505,0.0422 l 5.6627,2.74077 c 0.14051,0.068 0.34228,0.0529 0.45243,-0.0338 l 0.18875,-0.14865 c 0.11016,-0.0867 0.0856,-0.21134 -0.0549,-0.27935 l -4.72834,-2.28867 h 4.80604 c 0.17988,0 0.32465,-0.0895 0.32465,-0.20052 0,-0.11106 -0.14477,-0.20044 -0.32465,-0.20044 h -5.30977 c -0.084,0 -0.1601,0.0197 -0.21763,0.0518 l -0.10702,-0.0518 4.2214,-3.32473 c 0.11015,-0.0868 0.0858,-0.21133 -0.0548,-0.27934 l -0.24077,-0.11654 c -0.14051,-0.068 -0.34229,-0.0529 -0.45244,0.0338 l -4.39643,3.46263 c -0.066,-0.0761 -0.19445,-0.12818 -0.34458,-0.12818 h -6.2978 c 0.0154,-0.0543 -0.005,-0.11218 -0.065,-0.15898 l -3.82958,-2.98983 5.14274,-3.82367 c 0.0374,-0.0278 0.0621,-0.0592 0.0764,-0.0919 l 7.0095,0.12184 c 0.17847,0.003 0.32619,-0.0831 0.33121,-0.1933 l 0.009,-0.18881 c 0.005,-0.11019 -0.13461,-0.2014 -0.31308,-0.2045 l -6.83993,-0.11883 0.004,-0.084 c 0.0768,-0.007 0.14988,-0.0304 0.20355,-0.0703 l 3.39218,-2.52212 c 0.11492,-0.0854 0.096,-0.21134 -0.0424,-0.28229 -0.13839,-0.0709 -0.34241,-0.0593 -0.45733,0.0262 l -3.07027,2.28285 0.16895,-3.70808 c 0.005,-0.1102 -0.13449,-0.20147 -0.31296,-0.20458 l -0.30592,-0.005 c -0.17847,-0.003 -0.32607,0.0831 -0.33109,0.19331 l -0.20259,4.44077 c -0.006,0.005 -0.0111,0.0104 -0.0166,0.0157 -0.10865,0.002 -0.21544,0.0307 -0.29065,0.0866 l -2.75433,2.04794 h -4.40217 c -0.06,0 -0.11604,0.01 -0.16417,0.0274 v -3.55206 c 0,-0.083 -0.0671,-0.15587 -0.16954,-0.19949 l 0.0526,-0.0415 c 0.0434,-0.0341 0.0656,-0.0742 0.0684,-0.11426 l 4.43903,-3.4963 c 0.11018,-0.0867 0.0858,-0.21132 -0.0547,-0.27933 l -0.24078,-0.11654 c -0.14051,-0.068 -0.34228,-0.0529 -0.45243,0.0339 l -3.70681,2.91941 v -2.96737 c 0,-0.11106 -0.14489,-0.20044 -0.32477,-0.20044 z m 0.38908,8.45488 c 0.0481,0.0174 0.10416,0.0273 0.16417,0.0273 h 3.73556 l -3.89973,2.89952 z m -1.28441,0.56664 v 3.31523 l -0.56781,0.42211 -2.98604,-1.5473 z m 3.79522,1.73471 3.40913,2.66158 h -5.91994 v -0.79472 z m -8.22434,1.03708 3.0408,1.57565 -0.0657,0.0488 h -3.43131 z m -2.18617,2.41752 h 1.13287 l 0.12349,0.007 c 0.0352,0.002 0.0697,-6.4e-4 0.10213,-0.007 h 2.7362 l -2.80623,2.08646 z m 5.76424,0 h 0.85105 v 3.6272 l -5.12639,-0.44841 z m 3.08542,0 h 6.6802 c -0.0163,0.0211 -0.0275,0.0444 -0.0324,0.0692 l -0.61064,3.05908 z m -0.94996,0.543 5.51487,2.8576 -5.51487,1.23723 z m 42.33755,-27.09708 c -0.17988,0 -0.32465,0.0894 -0.32465,0.20045 v 3.27839 c 0,0.0519 0.0319,0.0988 0.0839,0.13437 l -0.0839,0.0661 -5.38483,-2.6064 c -0.14051,-0.068 -0.34228,-0.0529 -0.45243,0.0338 l -0.18875,0.14866 c -0.11016,0.0867 -0.0857,0.21133 0.0548,0.27934 l 5.60817,2.71447 c -0.12324,0.0408 -0.2076,0.12006 -0.2076,0.21275 v 3.83214 l -4.19515,2.58519 -5.52705,-2.86387 c -0.0448,-0.0232 -0.0957,-0.0387 -0.14842,-0.0477 l 0.23385,-4.32718 c 0.006,-0.11017 -0.13297,-0.20178 -0.31141,-0.20546 l -0.3058,-0.006 c -0.17844,-0.004 -0.32681,0.0821 -0.33276,0.19227 l -0.22801,4.22229 -0.13589,-0.003 c -0.0106,-0.0474 -0.0484,-0.0927 -0.11275,-0.12605 l -4.06729,-2.10746 c -0.13779,-0.0714 -0.34181,-0.0604 -0.45745,0.0247 -0.11563,0.0851 -0.0978,0.21104 0.04,0.28243 l 3.6814,1.9076 -6.00489,-0.12368 c -0.17845,-0.004 -0.32693,0.082 -0.33289,0.19219 l -0.0101,0.18881 c -0.006,0.11018 0.13285,0.20178 0.31129,0.20546 l 7.19122,0.14822 c 0.008,0.004 0.0169,0.007 0.0254,0.0102 0.002,0.0671 0.0487,0.13323 0.13888,0.17996 l 5.48326,2.84118 -0.5486,1.95379 h -9.14354 c -0.0585,0 -0.11345,0.008 -0.16322,0.0224 l -4.32627,-3.40738 c -0.11015,-0.0868 -0.31193,-0.10182 -0.45244,-0.0338 l -0.24076,0.11654 c -0.14051,0.068 -0.16492,0.19259 -0.0548,0.27935 l 4.2214,3.32472 -0.10702,0.0518 c -0.0575,-0.0321 -0.13361,-0.0518 -0.21763,-0.0518 h -5.30977 c -0.17988,0 -0.32465,0.0894 -0.32465,0.20045 0,0.11106 0.14477,0.20052 0.32465,0.20052 h 4.80603 l -4.72836,2.28868 c -0.14051,0.068 -0.16503,0.19259 -0.0549,0.27934 l 0.18875,0.14866 c 0.11016,0.0868 0.31193,0.10182 0.45244,0.0338 l 5.6627,-2.74077 c 0.0101,-2.8e-4 0.0201,-10e-4 0.0302,-0.002 0.0718,0.0504 0.17589,0.0827 0.29363,0.0827 h 7.41039 l 1.5185,2.459 -4.34919,3.23374 c -0.0859,0.0639 -0.10971,0.14636 -0.076,0.22034 l -0.0834,0.0111 c -0.0687,0.009 -0.12721,0.0312 -0.17086,0.0609 l -7.03265,0.93888 c -0.17451,0.0233 -0.2847,0.12873 -0.24698,0.23647 l 0.0647,0.18461 c 0.0377,0.10775 0.20861,0.17571 0.38312,0.15242 l 5.87257,-0.78381 -3.07039,2.28285 c -0.11492,0.0854 -0.0959,0.21134 0.0425,0.28229 0.13838,0.0709 0.34217,0.0593 0.45708,-0.0262 l 3.39219,-2.52212 c 0.0537,-0.0399 0.0778,-0.0887 0.0746,-0.13651 l 0.13291,-0.0177 1.44583,4.12917 c 0.0377,0.10775 0.20849,0.17571 0.383,0.15241 l 0.29899,-0.0399 c 0.17451,-0.0233 0.28471,-0.12872 0.24698,-0.23647 l -1.50584,-4.30044 c 0.13699,0.0172 0.28398,-0.0105 0.37989,-0.0818 l 3.42952,-2.54997 c 0.0217,0.005 0.0448,0.009 0.0696,0.0111 l 5.63121,0.49253 c 0.0195,0.002 0.0391,0.002 0.0586,0.002 v 4.24829 c 0,0.0361 0.0135,0.07 0.0363,0.10078 l -5.51869,2.67115 c -0.14052,0.068 -0.16492,0.19259 -0.0548,0.27935 l 0.18875,0.14866 c 0.11015,0.0867 0.31192,0.10182 0.45243,0.0338 l 5.38483,-2.60641 0.0839,0.0661 c -0.052,0.0355 -0.0839,0.0825 -0.0839,0.13437 v 3.27839 c 0,0.11106 0.14477,0.20045 0.32465,0.20045 0.17987,0 0.32476,-0.0894 0.32476,-0.20045 v -2.96737 l 3.70681,2.91941 c 0.11015,0.0868 0.31192,0.1019 0.45244,0.0339 l 0.24077,-0.11654 c 0.14051,-0.068 0.16492,-0.19258 0.0548,-0.27934 l -4.43903,-3.4963 c -4.6e-4,-0.006 -0.002,-0.0124 -0.004,-0.0186 0.0816,-0.0443 0.13399,-0.1086 0.13399,-0.18129 v -3.14714 c 0.004,-8.2e-4 0.008,-0.001 0.0123,-0.002 l 6.19579,-1.39002 c 0.0454,-0.0102 0.0838,-0.0256 0.11466,-0.0445 l 4.36493,2.26179 c 0.10297,0.0534 0.23639,0.0685 0.35639,0.0481 l 0.0177,0.0516 c 0.0145,0.0425 0.0499,0.0786 0.0978,0.10571 l 1.48401,4.347 c 0.0368,0.10787 0.20698,0.17648 0.38169,0.15374 l 0.29935,-0.039 c 0.17471,-0.0227 0.28571,-0.12794 0.24889,-0.23581 l -1.23907,-3.62985 3.6814,1.9076 c 0.13778,0.0714 0.34181,0.0603 0.45744,-0.0247 0.11564,-0.0851 0.0978,-0.21097 -0.04,-0.28236 l -4.06725,-2.10754 c -0.0644,-0.0333 -0.14311,-0.0485 -0.22061,-0.0467 l -0.028,-0.0821 6.69523,-0.87118 c 0.17471,-0.0227 0.28571,-0.12787 0.24889,-0.23573 l -0.0631,-0.18483 c -0.0368,-0.10787 -0.2071,-0.1764 -0.3818,-0.15367 l -6.97287,0.90735 c 0.0287,-0.0845 -0.0154,-0.17533 -0.13041,-0.23492 l -3.69309,-1.91364 c 0.0401,-0.0308 0.0672,-0.069 0.0758,-0.1119 l 0.65575,-3.28517 c 0.0118,-0.0594 -0.014,-0.11679 -0.066,-0.16287 h 4.87273 c 0.13443,0 0.25244,-0.0414 0.3231,-0.10469 l 0.0672,0.0325 c 0.0553,0.0268 0.12009,0.0405 0.18505,0.0422 l 5.6627,2.74078 c 0.14051,0.068 0.34228,0.0529 0.45243,-0.0338 l 0.18875,-0.14866 c 0.11016,-0.0867 0.0856,-0.21134 -0.0549,-0.27935 l -4.72834,-2.28866 h 4.80604 c 0.17988,0 0.32465,-0.0895 0.32465,-0.20053 0,-0.11106 -0.14477,-0.20044 -0.32465,-0.20044 h -5.30977 c -0.084,0 -0.1601,0.0197 -0.21763,0.0518 l -0.10702,-0.0518 4.2214,-3.32473 c 0.11015,-0.0868 0.0858,-0.21133 -0.0548,-0.27934 l -0.24077,-0.11654 c -0.14051,-0.068 -0.34229,-0.0529 -0.45244,0.0338 l -4.39643,3.46263 c -0.066,-0.0761 -0.19445,-0.12818 -0.34458,-0.12818 h -6.2978 c 0.0154,-0.0542 -0.005,-0.11218 -0.065,-0.15898 l -3.82958,-2.98983 5.14274,-3.82367 c 0.0374,-0.0278 0.0621,-0.0592 0.0764,-0.0919 l 7.0095,0.12184 c 0.17847,0.003 0.32619,-0.0831 0.33121,-0.1933 l 0.009,-0.18881 c 0.005,-0.11019 -0.13461,-0.20139 -0.31308,-0.2045 l -6.83993,-0.11882 0.004,-0.084 c 0.0768,-0.007 0.14988,-0.0304 0.20355,-0.0703 l 3.39218,-2.52213 c 0.11492,-0.0854 0.096,-0.21134 -0.0424,-0.28229 -0.13839,-0.0709 -0.34241,-0.0593 -0.45733,0.0262 l -3.07027,2.28286 0.16895,-3.70809 c 0.005,-0.1102 -0.13449,-0.20147 -0.31296,-0.20457 l -0.30592,-0.005 c -0.17847,-0.003 -0.32607,0.0831 -0.33109,0.1933 l -0.20259,4.44077 c -0.006,0.005 -0.0111,0.0104 -0.0166,0.0157 -0.10865,0.002 -0.21544,0.0307 -0.29065,0.0866 l -2.75433,2.04794 h -4.40217 c -0.06,0 -0.11604,0.01 -0.16417,0.0274 v -3.55206 c 0,-0.083 -0.0671,-0.15587 -0.16954,-0.19949 l 0.0526,-0.0415 c 0.0434,-0.0341 0.0656,-0.0742 0.0684,-0.11426 l 4.43903,-3.4963 c 0.11018,-0.0867 0.0858,-0.21132 -0.0547,-0.27933 l -0.24078,-0.11654 c -0.14051,-0.068 -0.34228,-0.0529 -0.45243,0.0339 l -3.70681,2.91941 v -2.96737 c 0,-0.11106 -0.14489,-0.20044 -0.32477,-0.20044 z m 0.38908,8.45488 c 0.0481,0.0174 0.10416,0.0273 0.16417,0.0273 h 3.73556 l -3.89973,2.89952 z m -1.28441,0.56664 v 3.31523 l -0.56781,0.42211 -2.98604,-1.5473 z m 3.79522,1.73471 3.40913,2.66158 h -5.91994 v -0.79472 z m -8.22434,1.03708 3.0408,1.57566 -0.0657,0.0488 h -3.43131 z m -2.18617,2.41752 h 1.13287 l 0.12349,0.007 c 0.0352,0.002 0.0697,-6.4e-4 0.10213,-0.007 h 2.7362 l -2.80623,2.08646 z m 5.76424,0 h 0.85105 v 3.6272 l -5.12639,-0.44841 z m 3.08542,0 h 6.6802 c -0.0163,0.0211 -0.0275,0.0444 -0.0324,0.0692 l -0.61064,3.05908 z m -0.94996,0.543 5.51487,2.8576 -5.51487,1.23723 z M 40.244365,1.454917 c -0.17988,0 -0.32465,0.08939 -0.32465,0.200447 v 3.27839 c 0,0.05187 0.0319,0.09885 0.0839,0.134368 l -0.0839,0.06608 -5.38482,-2.606402 c -0.14051,-0.06801 -0.34228,-0.05294 -0.45243,0.03381 l -0.18875,0.148659 c -0.11016,0.08675 -0.0857,0.211333 0.0548,0.279344 l 5.60817,2.714471 c -0.12325,0.04077 -0.2076,0.120057 -0.2076,0.21275 v 3.832142 l -4.19516,2.585187 -5.52704,-2.863868 c -0.0448,-0.02321 -0.0957,-0.03867 -0.14843,-0.04766 l 0.23386,-4.327183 c 0.006,-0.110171 -0.13297,-0.201782 -0.31141,-0.205456 l -0.3058,-0.0063 c -0.17844,-0.0037 -0.32681,0.0821 -0.33276,0.19227 l -0.22801,4.222282 -0.13589,-0.0029 c -0.0106,-0.04743 -0.0484,-0.0927 -0.11275,-0.126044 l -4.06725,-2.107466 c -0.13779,-0.0714 -0.34181,-0.0604 -0.45745,0.02468 -0.11563,0.08507 -0.0978,0.211042 0.04,0.282438 l 3.6814,1.9076 -6.00489,-0.123687 c -0.17845,-0.0037 -0.32693,0.08202 -0.33289,0.192197 l -0.0101,0.188808 c -0.006,0.110174 0.13285,0.20178 0.31129,0.205456 l 7.19122,0.148218 c 0.008,0.0038 0.0169,0.0068 0.0254,0.01024 0.003,0.06709 0.0487,0.133237 0.13888,0.179968 l 5.48325,2.841178 -0.5486,1.953788 h -9.14353 c -0.0585,0 -0.11345,0.0083 -0.16322,0.02239 l -4.32627,-3.407378 c -0.11015,-0.08676 -0.31193,-0.101824 -0.45244,-0.03381 l -0.24077,0.116541 c -0.14051,0.06801 -0.16492,0.192589 -0.0548,0.279344 l 4.2214,3.324726 -0.10702,0.05179 c -0.0575,-0.03211 -0.13361,-0.05179 -0.21763,-0.05179 h -5.30977 c -0.17988,0 -0.32465,0.08939 -0.32465,0.200447 0,0.111064 0.14477,0.200521 0.32465,0.200521 h 4.80603 l -4.72836,2.288677 c -0.14051,0.06801 -0.16503,0.192589 -0.0549,0.279345 l 0.18875,0.148659 c 0.11016,0.08676 0.31193,0.10182 0.45244,0.03381 l 5.6627,-2.74077 c 0.0101,-2.85e-4 0.0201,-0.0014 0.0302,-0.0022 0.0718,0.05038 0.17589,0.08273 0.29363,0.08273 h 7.41039 l 1.5185,2.458995 -4.34919,3.233748 c -0.0859,0.06385 -0.10971,0.146351 -0.076,0.220337 l -0.0834,0.01112 c -0.0687,0.0092 -0.12721,0.03117 -0.17086,0.06092 l -7.03265,0.938887 c -0.17451,0.0233 -0.2847,0.12872 -0.24698,0.23647 l 0.0647,0.1846 c 0.0377,0.10775 0.20861,0.17571 0.38312,0.15242 l 5.87257,-0.78381 -3.07039,2.28286 c -0.11492,0.0854 -0.0959,0.21133 0.0425,0.28229 0.13838,0.071 0.34217,0.0593 0.45708,-0.0262 l 3.39218,-2.52213 c 0.0537,-0.0399 0.0778,-0.0887 0.0746,-0.13651 l 0.13292,-0.0177 1.44583,4.12917 c 0.0377,0.10775 0.20848,0.17571 0.38299,0.15242 l 0.299,-0.0399 c 0.17451,-0.0233 0.28471,-0.12873 0.24698,-0.23647 l -1.50585,-4.300446 c 0.137,0.01725 0.28399,-0.01046 0.3799,-0.08177 l 3.42952,-2.549974 c 0.0217,0.0051 0.0449,0.009 0.0696,0.01112 l 5.6312,0.492536 c 0.0195,0.0017 0.0391,0.0022 0.0586,0.0018 v 4.248284 c 0,0.0361 0.0135,0.07 0.0363,0.10078 l -5.51869,2.67115 c -0.14051,0.068 -0.16491,0.19259 -0.0548,0.27935 l 0.18876,0.14866 c 0.11015,0.0867 0.31192,0.10182 0.45243,0.0338 l 5.38482,-2.6064 0.0839,0.0661 c -0.052,0.0355 -0.0839,0.0825 -0.0839,0.13436 v 3.27839 c 0,0.11106 0.14477,0.20045 0.32465,0.20045 0.17988,0 0.32477,-0.0894 0.32477,-0.20045 v -2.96737 l 3.70681,2.91942 c 0.11015,0.0868 0.31192,0.10189 0.45243,0.0339 l 0.24078,-0.11654 c 0.14051,-0.068 0.16491,-0.19259 0.0548,-0.27935 l -4.43903,-3.49629 c -4.6e-4,-0.006 -0.002,-0.0124 -0.004,-0.0186 0.0816,-0.0443 0.13398,-0.1086 0.13398,-0.1813 v -3.147143 c 0.004,-8.12e-4 0.008,-0.0014 0.0123,-0.0023 l 6.19579,-1.390017 c 0.0454,-0.01019 0.0838,-0.02559 0.11466,-0.04449 l 4.36494,2.261789 c 0.10297,0.05335 0.23638,0.06853 0.35639,0.0481 l 0.0177,0.05157 c 0.0145,0.04245 0.0499,0.07861 0.0978,0.105712 l 1.48401,4.346999 c 0.0368,0.10787 0.20698,0.17648 0.38168,0.15374 l 0.29936,-0.039 c 0.1747,-0.0227 0.28571,-0.12794 0.24888,-0.2358 l -1.23906,-3.62986 3.6814,1.9076 c 0.13778,0.0714 0.34181,0.0603 0.45744,-0.0247 0.11564,-0.0851 0.0978,-0.21096 -0.04,-0.28236 l -4.06725,-2.107534 c -0.0643,-0.03334 -0.14311,-0.04846 -0.22061,-0.04671 l -0.028,-0.08214 6.69523,-0.871183 c 0.17471,-0.02273 0.28571,-0.127867 0.24889,-0.235733 l -0.0631,-0.18483 c -0.0368,-0.107867 -0.2071,-0.1764 -0.3818,-0.153669 l -6.97288,0.907353 c 0.0287,-0.0845 -0.0154,-0.175335 -0.1304,-0.234923 l -3.69309,-1.91364 c 0.0401,-0.03081 0.0672,-0.06898 0.0758,-0.1119 l 0.65574,-3.285167 c 0.0119,-0.05937 -0.014,-0.116789 -0.066,-0.162877 h 4.87273 c 0.13443,0 0.25245,-0.0414 0.3231,-0.104681 l 0.0672,0.03249 c 0.0553,0.02676 0.1201,0.04049 0.18506,0.04221 l 5.6627,2.740771 c 0.14051,0.06801 0.34228,0.05294 0.45243,-0.03381 l 0.18875,-0.148659 c 0.11016,-0.08675 0.0856,-0.211332 -0.0549,-0.279344 l -4.72834,-2.288667 h 4.80604 c 0.17988,0 0.32465,-0.08946 0.32465,-0.200521 0,-0.111063 -0.14477,-0.200447 -0.32465,-0.200447 h -5.30977 c -0.084,0 -0.1601,0.01968 -0.21763,0.05179 l -0.10702,-0.05179 4.2214,-3.324726 c 0.11015,-0.08676 0.0858,-0.211333 -0.0548,-0.279344 l -0.24077,-0.116541 c -0.14051,-0.06801 -0.34229,-0.05294 -0.45244,0.03381 l -4.39643,3.462631 c -0.066,-0.0761 -0.19445,-0.128181 -0.34458,-0.128181 h -6.2978 c 0.0154,-0.05425 -0.005,-0.112172 -0.065,-0.158972 l -3.82958,-2.989838 5.14274,-3.82367 c 0.0374,-0.02778 0.0621,-0.05924 0.0764,-0.09186 l 7.0095,0.121845 c 0.17847,0.0031 0.32619,-0.08311 0.33121,-0.193301 l 0.009,-0.188808 c 0.005,-0.110193 -0.13461,-0.201397 -0.31308,-0.204499 l -6.83993,-0.118828 0.004,-0.08398 c 0.0768,-0.0068 0.14987,-0.03037 0.20355,-0.07028 l 3.39218,-2.522127 c 0.11491,-0.08544 0.096,-0.211338 -0.0424,-0.282291 -0.13839,-0.07095 -0.34241,-0.05929 -0.45733,0.02615 l -3.07027,2.282858 0.16894,-3.708088 c 0.005,-0.110193 -0.13448,-0.20147 -0.31295,-0.204572 l -0.30592,-0.0053 c -0.17847,-0.0031 -0.32607,0.08311 -0.33109,0.193301 l -0.2026,4.440777 c -0.006,0.005 -0.0111,0.01041 -0.0166,0.01569 -0.10865,0.0019 -0.21543,0.03071 -0.29064,0.08663 l -2.75434,2.047935 h -4.40216 c -0.06,0 -0.11604,0.01002 -0.16417,0.0274 V 5.916869 c 0,-0.083 -0.0671,-0.155864 -0.16955,-0.199489 l 0.0526,-0.04148 c 0.0434,-0.03414 0.0656,-0.07415 0.0684,-0.114257 l 4.43903,-3.496296 c 0.11018,-0.08674 0.0858,-0.211322 -0.0547,-0.279332 l -0.24077,-0.116541 c -0.14051,-0.06801 -0.34228,-0.05287 -0.45243,0.03389 l -3.70681,2.919412 V 1.655407 c 0,-0.111062 -0.14489,-0.200447 -0.32477,-0.200447 z m 0.38908,8.454876 c 0.0481,0.01739 0.10417,0.02733 0.16418,0.02733 h 3.73556 l -3.89974,2.899522 z m -1.2844,0.566644 v 3.315223 l -0.56781,0.422111 -2.98604,-1.547296 z m 3.79522,1.734704 3.40912,2.661578 h -5.91994 v -0.794716 z m -8.22435,1.03708 3.04081,1.575657 -0.0657,0.04884 h -3.43132 z m -2.18616,2.417521 h 1.13287 l 0.12349,0.007 c 0.0352,0.002 0.0697,-6.35e-4 0.10213,-0.007 h 2.7362 l -2.80624,2.086462 z m 5.76423,0 h 0.85106 v 3.627201 l -5.12639,-0.448409 z m 3.08543,0 h 6.6802 c -0.0163,0.02113 -0.0275,0.04436 -0.0324,0.06917 l -0.61064,3.059084 z m -0.94997,0.542997 5.51488,2.857606 -5.51488,1.237232 z" />
    <path
       id="path5396"
       style="fill:none;stroke:#000000;stroke-width:0.658;stroke-linecap:round;stroke-linejoin:round;stroke-miterlimit:4;stroke-dasharray:none;stroke-opacity:0.955017;paint-order:stroke markers fill"
       d="m 139.52011,48.500547 c -0.17988,0 -0.32465,0.08939 -0.32465,0.200447 v 3.27839 c 0,0.05187 0.0319,0.09885 0.0839,0.134368 l -0.0839,0.06608 -5.38483,-2.606402 c -0.14051,-0.06801 -0.34228,-0.05294 -0.45243,0.03381 l -0.18875,0.148659 c -0.11016,0.08675 -0.0857,0.211333 0.0548,0.279344 l 5.60817,2.714471 c -0.12324,0.04077 -0.2076,0.120057 -0.2076,0.21275 v 3.832142 l -4.19515,2.585187 -5.52705,-2.863868 c -0.0448,-0.02321 -0.0957,-0.03867 -0.14843,-0.04766 l 0.23386,-4.327183 c 0.006,-0.110171 -0.13297,-0.201782 -0.31141,-0.205456 l -0.3058,-0.0063 c -0.17844,-0.0037 -0.32681,0.0821 -0.33276,0.19227 l -0.22801,4.222282 -0.1359,-0.0029 c -0.0106,-0.04743 -0.0484,-0.0927 -0.11275,-0.126044 l -4.06728,-2.107466 c -0.13779,-0.0714 -0.34181,-0.0604 -0.45745,0.02468 -0.11564,0.08507 -0.0978,0.211042 0.04,0.282438 l 3.6814,1.9076 -6.00489,-0.123687 c -0.17845,-0.0037 -0.32694,0.08202 -0.33289,0.192197 l -0.0101,0.188808 c -0.006,0.110174 0.13285,0.20178 0.31129,0.205456 l 7.19122,0.148218 c 0.008,0.0038 0.0169,0.0068 0.0254,0.01024 0.002,0.06709 0.0487,0.133237 0.13888,0.179968 l 5.48326,2.841178 -0.54861,1.953788 h -9.14353 c -0.0585,0 -0.11345,0.0083 -0.16322,0.02239 l -4.32628,-3.407378 c -0.11015,-0.08676 -0.31192,-0.101824 -0.45243,-0.03381 l -0.24077,0.116541 c -0.14051,0.06801 -0.16492,0.192589 -0.0548,0.279344 l 4.2214,3.324726 -0.10702,0.05179 c -0.0575,-0.03211 -0.13361,-0.05179 -0.21763,-0.05179 h -5.30977 c -0.17988,0 -0.32465,0.08939 -0.32465,0.200447 0,0.111064 0.14477,0.200521 0.32465,0.200521 h 4.80603 l -4.72836,2.288677 c -0.14051,0.06801 -0.16504,0.192589 -0.0549,0.279345 l 0.18875,0.148659 c 0.11015,0.08676 0.31193,0.10182 0.45244,0.03381 l 5.6627,-2.74077 c 0.0101,-2.85e-4 0.0201,-0.0014 0.0302,-0.0022 0.0718,0.05038 0.17589,0.08273 0.29363,0.08273 h 7.41039 l 1.51849,2.458995 -4.34918,3.233748 c -0.0859,0.06385 -0.10971,0.146351 -0.076,0.220337 l -0.0834,0.01112 c -0.0687,0.0092 -0.12721,0.03117 -0.17086,0.06092 l -7.03265,0.938882 c -0.17451,0.02329 -0.28471,0.128724 -0.24698,0.23647 l 0.0647,0.184609 c 0.0377,0.107747 0.20861,0.175709 0.38312,0.152417 l 5.87257,-0.783814 -3.07039,2.282858 c -0.11492,0.08544 -0.0959,0.211337 0.0425,0.28229 0.13838,0.07095 0.34217,0.05929 0.45708,-0.02615 l 3.39218,-2.522128 c 0.0537,-0.03991 0.0778,-0.08867 0.0746,-0.136504 l 0.13292,-0.01768 1.44583,4.129167 c 0.0377,0.107748 0.20848,0.175709 0.38299,0.152416 l 0.299,-0.03993 c 0.17451,-0.02329 0.28471,-0.128723 0.24698,-0.23647 l -1.50585,-4.300442 c 0.137,0.01725 0.28398,-0.01046 0.37989,-0.08177 l 3.42953,-2.549974 c 0.0217,0.0051 0.0448,0.009 0.0696,0.01112 l 5.63121,0.492536 c 0.0195,0.0017 0.0391,0.0022 0.0586,0.0018 v 4.248286 c 0,0.03611 0.0135,0.07005 0.0363,0.100776 l -5.5187,2.671155 c -0.14051,0.06801 -0.16491,0.19259 -0.0548,0.279345 l 0.18876,0.148659 c 0.11015,0.08675 0.31192,0.101823 0.45243,0.03381 l 5.38483,-2.606402 0.0839,0.06608 c -0.052,0.03552 -0.0839,0.0825 -0.0839,0.134368 v 3.278387 c 0,0.11106 0.14477,0.20045 0.32465,0.20045 0.17987,0 0.32476,-0.0894 0.32476,-0.20045 v -2.967366 l 3.70681,2.919416 c 0.11015,0.0868 0.31192,0.10189 0.45244,0.0339 l 0.24077,-0.11654 c 0.14051,-0.068 0.16492,-0.19259 0.0548,-0.27935 l -4.43903,-3.496294 c -4.6e-4,-0.0062 -0.002,-0.01243 -0.004,-0.01864 0.0816,-0.04433 0.13399,-0.1086 0.13399,-0.181294 v -3.147145 c 0.004,-8.12e-4 0.008,-0.0014 0.0123,-0.0023 l 6.19579,-1.390017 c 0.0454,-0.01019 0.0838,-0.02559 0.11466,-0.04449 l 4.36493,2.261789 c 0.10297,0.05335 0.23639,0.06853 0.35639,0.0481 l 0.0177,0.05157 c 0.0145,0.04245 0.0499,0.07861 0.0978,0.105712 l 1.48401,4.346999 c 0.0368,0.107868 0.20698,0.176477 0.38169,0.153743 l 0.29935,-0.03897 c 0.17471,-0.02274 0.28571,-0.127939 0.24889,-0.235807 l -1.23907,-3.629854 3.6814,1.9076 c 0.13778,0.07139 0.34181,0.06032 0.45744,-0.02475 0.11564,-0.08507 0.0978,-0.210967 -0.04,-0.282365 L 152.275,69.086787 c -0.0644,-0.03334 -0.14311,-0.04846 -0.22061,-0.04671 l -0.028,-0.08214 6.69523,-0.871183 c 0.17471,-0.02273 0.28571,-0.127867 0.24889,-0.235733 l -0.0631,-0.18483 c -0.0368,-0.107867 -0.2071,-0.1764 -0.3818,-0.153669 l -6.97287,0.907353 c 0.0287,-0.0845 -0.0154,-0.175335 -0.13041,-0.234923 l -3.69309,-1.91364 c 0.0401,-0.03081 0.0672,-0.06898 0.0758,-0.1119 l 0.65575,-3.285167 c 0.0118,-0.05937 -0.014,-0.116789 -0.066,-0.162877 h 4.87273 c 0.13443,0 0.25244,-0.0414 0.3231,-0.104681 l 0.0672,0.03249 c 0.0553,0.02676 0.12009,0.04049 0.18505,0.04221 l 5.6627,2.740771 c 0.14051,0.06801 0.34228,0.05294 0.45243,-0.03381 l 0.18875,-0.148659 c 0.11016,-0.08675 0.0856,-0.211332 -0.0549,-0.279344 l -4.72834,-2.288667 h 4.80604 c 0.17988,0 0.32465,-0.08946 0.32465,-0.200521 0,-0.111063 -0.14477,-0.200447 -0.32465,-0.200447 h -5.30977 c -0.084,0 -0.1601,0.01968 -0.21763,0.05179 l -0.10702,-0.05179 4.2214,-3.324726 c 0.11015,-0.08676 0.0858,-0.211333 -0.0548,-0.279344 l -0.24077,-0.116541 c -0.14051,-0.06801 -0.34229,-0.05294 -0.45244,0.03381 l -4.39643,3.462631 c -0.066,-0.0761 -0.19445,-0.128181 -0.34458,-0.128181 h -6.2978 c 0.0154,-0.05425 -0.005,-0.112172 -0.065,-0.158972 l -3.82958,-2.989838 5.14274,-3.82367 c 0.0374,-0.02778 0.0621,-0.05924 0.0764,-0.09186 l 7.0095,0.121845 c 0.17847,0.0031 0.32619,-0.08311 0.33121,-0.193301 l 0.009,-0.188808 c 0.005,-0.110193 -0.13461,-0.201397 -0.31308,-0.204499 l -6.83993,-0.118828 0.004,-0.08398 c 0.0768,-0.0068 0.14988,-0.03037 0.20355,-0.07028 l 3.39218,-2.522127 c 0.11492,-0.08544 0.096,-0.211338 -0.0424,-0.282291 -0.13839,-0.07095 -0.34241,-0.05929 -0.45733,0.02615 l -3.07027,2.282858 0.16895,-3.708088 c 0.005,-0.110193 -0.13449,-0.20147 -0.31296,-0.204572 l -0.30592,-0.0053 c -0.17847,-0.0031 -0.32607,0.08311 -0.33109,0.193301 l -0.20259,4.440777 c -0.006,0.005 -0.0111,0.01041 -0.0166,0.01569 -0.10865,0.0019 -0.21544,0.03071 -0.29065,0.08663 l -2.75433,2.047935 h -4.40217 c -0.06,0 -0.11604,0.01002 -0.16417,0.0274 v -3.552062 c 0,-0.083 -0.0671,-0.155864 -0.16954,-0.199489 l 0.0526,-0.04148 c 0.0434,-0.03414 0.0656,-0.07415 0.0684,-0.114257 l 4.43903,-3.496296 c 0.11018,-0.08674 0.0858,-0.211322 -0.0547,-0.279332 l -0.24078,-0.116541 c -0.14051,-0.06801 -0.34228,-0.05287 -0.45243,0.03389 l -3.70681,2.919412 v -2.967369 c 0,-0.111062 -0.14489,-0.200447 -0.32477,-0.200447 z m 0.38908,8.454876 c 0.0481,0.01739 0.10416,0.02733 0.16417,0.02733 h 3.73556 l -3.89973,2.899522 z m -1.28441,0.566644 v 3.315223 l -0.56781,0.422111 -2.98604,-1.547296 z m 3.79522,1.734704 3.40913,2.661578 h -5.91994 v -0.794716 z m -8.22434,1.03708 3.0408,1.575657 -0.0657,0.04884 h -3.43131 z m -2.18617,2.417521 h 1.13287 l 0.12349,0.007 c 0.0352,0.002 0.0697,-6.35e-4 0.10213,-0.007 h 2.7362 l -2.80623,2.086462 z m 5.76424,0 h 0.85105 v 3.627201 l -5.12639,-0.448409 z m 3.08542,0 h 6.6802 c -0.0163,0.02113 -0.0275,0.04436 -0.0324,0.06917 l -0.61064,3.059084 z m -0.94996,0.542997 5.51487,2.857606 -5.51487,1.237232 z m 42.33755,-27.097071 c -0.17988,0 -0.32465,0.08939 -0.32465,0.200447 v 3.27839 c 0,0.05187 0.0319,0.09885 0.0839,0.134368 l -0.0839,0.06608 -5.38483,-2.606402 c -0.14051,-0.06801 -0.34228,-0.05294 -0.45243,0.03381 l -0.18875,0.148659 c -0.11016,0.08675 -0.0857,0.211333 0.0548,0.279344 l 5.60817,2.714471 c -0.12324,0.04077 -0.2076,0.120057 -0.2076,0.21275 v 3.832142 l -4.19515,2.585187 -5.52705,-2.863868 c -0.0448,-0.02321 -0.0957,-0.03867 -0.14842,-0.04766 l 0.23385,-4.327183 c 0.006,-0.110171 -0.13297,-0.201782 -0.31141,-0.205456 l -0.3058,-0.0063 c -0.17844,-0.0037 -0.32681,0.0821 -0.33276,0.19227 l -0.22801,4.222282 -0.13589,-0.0029 c -0.0106,-0.04743 -0.0484,-0.0927 -0.11275,-0.126044 l -4.06729,-2.107466 c -0.13779,-0.0714 -0.34181,-0.0604 -0.45745,0.02468 -0.11563,0.08507 -0.0978,0.211042 0.04,0.282438 l 3.6814,1.9076 -6.00489,-0.123687 c -0.17845,-0.0037 -0.32693,0.08202 -0.33289,0.192197 l -0.0101,0.188808 c -0.006,0.110174 0.13285,0.20178 0.31129,0.205456 l 7.19122,0.148218 c 0.008,0.0038 0.0169,0.0068 0.0254,0.01024 0.002,0.06709 0.0487,0.133237 0.13888,0.179968 l 5.48326,2.841178 -0.5486,1.953788 h -9.14354 c -0.0585,0 -0.11345,0.0083 -0.16322,0.02239 l -4.32627,-3.407378 c -0.11015,-0.08676 -0.31193,-0.101824 -0.45244,-0.03381 l -0.24076,0.116541 c -0.14051,0.06801 -0.16492,0.192589 -0.0548,0.279344 l 4.2214,3.324726 -0.10702,0.05179 c -0.0575,-0.03211 -0.13361,-0.05179 -0.21763,-0.05179 h -5.30977 c -0.17988,0 -0.32465,0.08939 -0.32465,0.200447 0,0.111064 0.14477,0.200521 0.32465,0.200521 h 4.80603 l -4.72836,2.288677 c -0.14051,0.06801 -0.16503,0.192589 -0.0549,0.279345 l 0.18875,0.148659 c 0.11016,0.08676 0.31193,0.10182 0.45244,0.03381 l 5.6627,-2.74077 c 0.0101,-2.85e-4 0.0201,-0.0014 0.0302,-0.0022 0.0718,0.05038 0.17589,0.08273 0.29363,0.08273 h 7.41039 l 1.5185,2.458995 -4.34919,3.233748 c -0.0859,0.06385 -0.10971,0.146351 -0.076,0.220337 l -0.0834,0.01112 c -0.0687,0.0092 -0.12721,0.03117 -0.17086,0.06092 l -7.03265,0.938882 c -0.17451,0.02329 -0.2847,0.128724 -0.24698,0.23647 l 0.0647,0.184609 c 0.0377,0.107747 0.20861,0.175709 0.38312,0.152417 l 5.87257,-0.783814 -3.07039,2.282858 c -0.11492,0.08544 -0.0959,0.211337 0.0425,0.28229 0.13838,0.07095 0.34217,0.05929 0.45708,-0.02615 l 3.39219,-2.522128 c 0.0537,-0.03991 0.0778,-0.08867 0.0746,-0.136504 l 0.13291,-0.01768 1.44583,4.129167 c 0.0377,0.107748 0.20849,0.175709 0.383,0.152416 l 0.29899,-0.03993 c 0.17451,-0.02329 0.28471,-0.128723 0.24698,-0.23647 l -1.50584,-4.300442 c 0.13699,0.01725 0.28398,-0.01046 0.37989,-0.08177 l 3.42952,-2.549974 c 0.0217,0.0051 0.0448,0.009 0.0696,0.01112 l 5.63121,0.492536 c 0.0195,0.0017 0.0391,0.0022 0.0586,0.0018 v 4.248286 c 0,0.03611 0.0135,0.07005 0.0363,0.100776 l -5.51869,2.671155 c -0.14052,0.06801 -0.16492,0.19259 -0.0548,0.279345 l 0.18875,0.148659 c 0.11015,0.08675 0.31192,0.101823 0.45243,0.03381 l 5.38483,-2.606402 0.0839,0.06608 c -0.052,0.03552 -0.0839,0.0825 -0.0839,0.134368 v 3.27839 c 0,0.111061 0.14477,0.200447 0.32465,0.200447 0.17987,0 0.32476,-0.08939 0.32476,-0.200447 v -2.967369 l 3.70681,2.919412 c 0.11015,0.08676 0.31192,0.101898 0.45244,0.03389 l 0.24077,-0.11654 c 0.14051,-0.06801 0.16492,-0.192589 0.0548,-0.279344 l -4.43903,-3.496296 c -4.6e-4,-0.0062 -0.002,-0.01243 -0.004,-0.01864 0.0816,-0.04433 0.13399,-0.1086 0.13399,-0.181294 v -3.147145 c 0.004,-8.12e-4 0.008,-0.0014 0.0123,-0.0023 l 6.19579,-1.390017 c 0.0454,-0.01019 0.0838,-0.02559 0.11466,-0.04449 l 4.36493,2.261789 c 0.10297,0.05335 0.23639,0.06853 0.35639,0.0481 l 0.0177,0.05157 c 0.0145,0.04245 0.0499,0.07861 0.0978,0.105712 l 1.48401,4.346999 c 0.0368,0.107868 0.20698,0.176477 0.38169,0.153743 l 0.29935,-0.03897 c 0.17471,-0.02274 0.28571,-0.127939 0.24889,-0.235807 l -1.23907,-3.629854 3.6814,1.9076 c 0.13778,0.07139 0.34181,0.06032 0.45744,-0.02475 0.11564,-0.08507 0.0978,-0.210967 -0.04,-0.282365 l -4.06725,-2.107531 c -0.0644,-0.03334 -0.14311,-0.04846 -0.22061,-0.04671 l -0.028,-0.08214 6.69523,-0.871183 c 0.17471,-0.02273 0.28571,-0.127867 0.24889,-0.235733 l -0.0631,-0.18483 c -0.0368,-0.107867 -0.2071,-0.1764 -0.3818,-0.153669 l -6.97287,0.907353 c 0.0287,-0.0845 -0.0154,-0.175335 -0.13041,-0.234923 l -3.69309,-1.91364 c 0.0401,-0.03081 0.0672,-0.06898 0.0758,-0.1119 l 0.65575,-3.285167 c 0.0118,-0.05937 -0.014,-0.116789 -0.066,-0.162877 h 4.87273 c 0.13443,0 0.25244,-0.0414 0.3231,-0.104681 l 0.0672,0.03249 c 0.0553,0.02676 0.12009,0.04049 0.18505,0.04221 l 5.6627,2.740771 c 0.14051,0.06801 0.34228,0.05294 0.45243,-0.03381 l 0.18875,-0.148659 c 0.11016,-0.08675 0.0856,-0.211332 -0.0549,-0.279344 l -4.72834,-2.288667 h 4.80604 c 0.17988,0 0.32465,-0.08946 0.32465,-0.200521 0,-0.111063 -0.14477,-0.200447 -0.32465,-0.200447 h -5.30977 c -0.084,0 -0.1601,0.01968 -0.21763,0.05179 l -0.10702,-0.05179 4.2214,-3.324726 c 0.11015,-0.08676 0.0858,-0.211333 -0.0548,-0.279344 L 201.1876,46.20684 c -0.14051,-0.06801 -0.34229,-0.05294 -0.45244,0.03381 l -4.39643,3.462631 c -0.066,-0.0761 -0.19445,-0.128181 -0.34458,-0.128181 h -6.2978 c 0.0154,-0.05425 -0.005,-0.112172 -0.065,-0.158972 l -3.82958,-2.989838 5.14274,-3.82367 c 0.0374,-0.02778 0.0621,-0.05924 0.0764,-0.09186 l 7.0095,0.121845 c 0.17847,0.0031 0.32619,-0.08311 0.33121,-0.193301 l 0.009,-0.188808 c 0.005,-0.110193 -0.13461,-0.201397 -0.31308,-0.204499 l -6.83993,-0.118828 0.004,-0.08398 c 0.0768,-0.0068 0.14988,-0.03037 0.20355,-0.07028 l 3.39218,-2.522127 c 0.11492,-0.08544 0.096,-0.211338 -0.0424,-0.282291 -0.13839,-0.07095 -0.34241,-0.05929 -0.45733,0.02615 l -3.07027,2.282858 0.16895,-3.708088 c 0.005,-0.110193 -0.13449,-0.20147 -0.31296,-0.204572 l -0.30592,-0.0053 c -0.17847,-0.0031 -0.32607,0.08311 -0.33109,0.193301 l -0.20259,4.440777 c -0.006,0.005 -0.0111,0.01041 -0.0166,0.01569 -0.10865,0.0019 -0.21544,0.03071 -0.29065,0.08663 l -2.75433,2.047935 h -4.40217 c -0.06,0 -0.11604,0.01002 -0.16417,0.0274 V 40.61921 c 0,-0.083 -0.0671,-0.155864 -0.16954,-0.199489 l 0.0526,-0.04148 c 0.0434,-0.03414 0.0656,-0.07415 0.0684,-0.114257 l 4.43903,-3.496296 c 0.11018,-0.08674 0.0858,-0.211322 -0.0547,-0.279332 l -0.24078,-0.116541 c -0.14051,-0.06801 -0.34228,-0.05287 -0.45243,0.03389 l -3.70681,2.919412 v -2.967369 c 0,-0.111062 -0.14489,-0.200447 -0.32477,-0.200447 z m 0.38908,8.454876 c 0.0481,0.01739 0.10416,0.02733 0.16417,0.02733 h 3.73556 l -3.89973,2.899522 z m -1.28441,0.566644 v 3.315223 l -0.56781,0.422111 -2.98604,-1.547296 z m 3.79522,1.734704 3.40913,2.661578 h -5.91994 v -0.794716 z m -8.22434,1.03708 3.0408,1.575657 -0.0657,0.04884 h -3.43131 z m -2.18617,2.417521 h 1.13287 l 0.12349,0.007 c 0.0352,0.002 0.0697,-6.35e-4 0.10213,-0.007 h 2.7362 l -2.80623,2.086462 z m 5.76424,0 h 0.85105 v 3.627201 l -5.12639,-0.448409 z m 3.08542,0 h 6.6802 c -0.0163,0.02113 -0.0275,0.04436 -0.0324,0.06917 l -0.61064,3.059084 z m -0.94996,0.542997 5.51487,2.857606 -5.51487,1.237232 z M 154.71179,7.0398898 c -0.17988,0 -0.32465,0.08939 -0.32465,0.200447 v 3.2783902 c 0,0.05187 0.0319,0.09885 0.0839,0.134368 l -0.0839,0.06608 -5.38482,-2.6064022 c -0.14051,-0.06801 -0.34228,-0.05294 -0.45243,0.03381 l -0.18875,0.148659 c -0.11016,0.08675 -0.0857,0.211333 0.0548,0.279344 l 5.60817,2.7144712 c -0.12325,0.04077 -0.2076,0.120057 -0.2076,0.21275 v 3.832142 l -4.19516,2.585187 -5.52704,-2.863868 c -0.0448,-0.02321 -0.0957,-0.03867 -0.14843,-0.04766 l 0.23386,-4.327183 c 0.006,-0.110171 -0.13297,-0.201782 -0.31141,-0.205456 l -0.3058,-0.0063 c -0.17844,-0.0037 -0.32681,0.0821 -0.33276,0.19227 l -0.22801,4.222282 -0.13589,-0.0029 c -0.0106,-0.04743 -0.0484,-0.0927 -0.11275,-0.126044 l -4.06725,-2.107466 c -0.13779,-0.0714 -0.34181,-0.0604 -0.45745,0.02468 -0.11563,0.08507 -0.0978,0.211042 0.04,0.282438 l 3.6814,1.9076 -6.00489,-0.123687 c -0.17845,-0.0037 -0.32693,0.08202 -0.33289,0.192197 l -0.0101,0.188808 c -0.006,0.110174 0.13285,0.20178 0.31129,0.205456 l 7.19122,0.148218 c 0.008,0.0038 0.0169,0.0068 0.0254,0.01024 0.003,0.06709 0.0487,0.133237 0.13888,0.179968 l 5.48325,2.841178 -0.5486,1.953788 h -9.14353 c -0.0585,0 -0.11345,0.0083 -0.16322,0.02239 l -4.32627,-3.407378 c -0.11015,-0.08676 -0.31193,-0.101824 -0.45244,-0.03381 l -0.24077,0.116541 c -0.14051,0.06801 -0.16492,0.192589 -0.0548,0.279344 l 4.2214,3.324726 -0.10702,0.05179 c -0.0575,-0.03211 -0.13361,-0.05179 -0.21763,-0.05179 h -5.30977 c -0.17988,0 -0.32465,0.08939 -0.32465,0.200447 0,0.111064 0.14477,0.200521 0.32465,0.200521 h 4.80603 l -4.72836,2.288677 c -0.14051,0.06801 -0.16503,0.192589 -0.0549,0.279345 l 0.18875,0.148659 c 0.11016,0.08676 0.31193,0.10182 0.45244,0.03381 l 5.6627,-2.74077 c 0.0101,-2.85e-4 0.0201,-0.0014 0.0302,-0.0022 0.0718,0.05038 0.17589,0.08273 0.29363,0.08273 h 7.41039 l 1.5185,2.458995 -4.34919,3.233748 c -0.0859,0.06385 -0.10971,0.146351 -0.076,0.220337 l -0.0834,0.01112 c -0.0687,0.0092 -0.12721,0.03117 -0.17086,0.06092 l -7.03265,0.938882 c -0.17451,0.02329 -0.2847,0.128724 -0.24698,0.23647 l 0.0647,0.184609 c 0.0377,0.107747 0.20861,0.175709 0.38312,0.152417 l 5.87257,-0.783814 -3.07039,2.282858 c -0.11492,0.08544 -0.0959,0.211337 0.0425,0.28229 0.13838,0.07095 0.34217,0.05929 0.45708,-0.02615 l 3.39218,-2.522128 c 0.0537,-0.03991 0.0778,-0.08867 0.0746,-0.136504 l 0.13292,-0.01768 1.44583,4.129167 c 0.0377,0.107748 0.20848,0.175709 0.38299,0.152416 l 0.299,-0.03993 c 0.17451,-0.02329 0.28471,-0.128723 0.24698,-0.23647 l -1.50585,-4.300442 c 0.137,0.01725 0.28399,-0.01046 0.3799,-0.08177 l 3.42952,-2.549974 c 0.0217,0.0051 0.0449,0.009 0.0696,0.01112 l 5.6312,0.492536 c 0.0195,0.0017 0.0391,0.0022 0.0586,0.0018 v 4.248286 c 0,0.03611 0.0135,0.07005 0.0363,0.100776 l -5.51869,2.671155 c -0.14051,0.06801 -0.16491,0.19259 -0.0548,0.279345 l 0.18876,0.148659 c 0.11015,0.08675 0.31192,0.101823 0.45243,0.03381 l 5.38482,-2.606402 0.0839,0.06608 c -0.052,0.03552 -0.0839,0.0825 -0.0839,0.134368 v 3.27839 c 0,0.111061 0.14477,0.200447 0.32465,0.200447 0.17988,0 0.32477,-0.08939 0.32477,-0.200447 v -2.967369 l 3.70681,2.919412 c 0.11015,0.08676 0.31192,0.101898 0.45243,0.03389 l 0.24078,-0.11654 c 0.14051,-0.06801 0.16491,-0.192589 0.0548,-0.279344 l -4.43903,-3.496296 c -4.6e-4,-0.0062 -0.002,-0.01243 -0.004,-0.01864 0.0816,-0.04433 0.13398,-0.1086 0.13398,-0.181294 v -3.147145 c 0.004,-8.12e-4 0.008,-0.0014 0.0123,-0.0023 l 6.19579,-1.390017 c 0.0454,-0.01019 0.0838,-0.02559 0.11466,-0.04449 l 4.36494,2.261789 c 0.10297,0.05335 0.23638,0.06853 0.35639,0.0481 l 0.0177,0.05157 c 0.0145,0.04245 0.0499,0.07861 0.0978,0.105712 l 1.48401,4.346999 c 0.0368,0.107868 0.20698,0.176477 0.38168,0.153743 l 0.29936,-0.03897 c 0.1747,-0.02274 0.28571,-0.127939 0.24888,-0.235807 l -1.23906,-3.629854 3.6814,1.9076 c 0.13778,0.07139 0.34181,0.06032 0.45744,-0.02475 0.11564,-0.08507 0.0978,-0.210967 -0.04,-0.282365 l -4.06725,-2.107531 c -0.0643,-0.03334 -0.14311,-0.04846 -0.22061,-0.04671 l -0.028,-0.08214 6.69523,-0.871183 c 0.17471,-0.02273 0.28571,-0.127867 0.24889,-0.235733 l -0.0631,-0.18483 c -0.0368,-0.107867 -0.2071,-0.1764 -0.3818,-0.153669 l -6.97288,0.907353 c 0.0287,-0.0845 -0.0154,-0.175335 -0.1304,-0.234923 l -3.69309,-1.91364 c 0.0401,-0.03081 0.0672,-0.06898 0.0758,-0.1119 l 0.65574,-3.285167 c 0.0119,-0.05937 -0.014,-0.116789 -0.066,-0.162877 h 4.87273 c 0.13443,0 0.25245,-0.0414 0.3231,-0.104681 l 0.0672,0.03249 c 0.0553,0.02676 0.1201,0.04049 0.18506,0.04221 l 5.6627,2.740771 c 0.14051,0.06801 0.34228,0.05294 0.45243,-0.03381 l 0.18875,-0.148659 c 0.11016,-0.08675 0.0856,-0.211332 -0.0549,-0.279344 l -4.72834,-2.288667 h 4.80604 c 0.17988,0 0.32465,-0.08946 0.32465,-0.200521 0,-0.111063 -0.14477,-0.200447 -0.32465,-0.200447 h -5.30977 c -0.084,0 -0.1601,0.01968 -0.21763,0.05179 l -0.10702,-0.05179 4.2214,-3.324726 c 0.11015,-0.08676 0.0858,-0.211333 -0.0548,-0.279344 l -0.24077,-0.116541 c -0.14051,-0.06801 -0.34229,-0.05294 -0.45244,0.03381 l -4.39643,3.462631 c -0.066,-0.0761 -0.19445,-0.128181 -0.34458,-0.128181 h -6.2978 c 0.0154,-0.05425 -0.005,-0.112172 -0.065,-0.158972 l -3.82958,-2.989838 5.14274,-3.82367 c 0.0374,-0.02778 0.0621,-0.05924 0.0764,-0.09186 l 7.0095,0.121845 c 0.17847,0.0031 0.32619,-0.08311 0.33121,-0.193301 l 0.009,-0.188808 c 0.005,-0.110193 -0.13461,-0.201397 -0.31308,-0.204499 l -6.83993,-0.118828 0.004,-0.08398 c 0.0768,-0.0068 0.14987,-0.03037 0.20355,-0.07028 l 3.39218,-2.522127 c 0.11491,-0.08544 0.096,-0.2113382 -0.0424,-0.2822912 -0.13839,-0.07095 -0.34241,-0.05929 -0.45733,0.02615 l -3.07027,2.2828582 0.16894,-3.7080882 c 0.005,-0.110193 -0.13448,-0.20147 -0.31295,-0.204572 l -0.30592,-0.0053 c -0.17847,-0.0031 -0.32607,0.08311 -0.33109,0.193301 l -0.2026,4.4407772 c -0.006,0.005 -0.0111,0.01041 -0.0166,0.01569 -0.10865,0.0019 -0.21543,0.03071 -0.29064,0.08663 l -2.75434,2.047935 h -4.40216 c -0.06,0 -0.11604,0.01002 -0.16417,0.0274 v -3.552062 c 0,-0.083 -0.0671,-0.155864 -0.16955,-0.199489 l 0.0526,-0.04148 c 0.0434,-0.03414 0.0656,-0.07415 0.0684,-0.114257 l 4.43903,-3.4962962 c 0.11018,-0.08674 0.0858,-0.211322 -0.0547,-0.279332 l -0.24077,-0.116541 c -0.14051,-0.06801 -0.34228,-0.05287 -0.45243,0.03389 l -3.70681,2.9194122 V 7.2403398 c 0,-0.111062 -0.14489,-0.200447 -0.32477,-0.200447 z m 0.38908,8.4548762 c 0.0481,0.01739 0.10417,0.02733 0.16418,0.02733 h 3.73556 l -3.89974,2.899522 z m -1.2844,0.566644 v 3.315223 l -0.56781,0.422111 -2.98604,-1.547296 z m 3.79522,1.734704 3.40912,2.661578 h -5.91994 v -0.794716 z m -8.22435,1.03708 3.04081,1.575657 -0.0657,0.04884 h -3.43132 z m -2.18616,2.417521 h 1.13287 l 0.12349,0.007 c 0.0352,0.002 0.0697,-6.35e-4 0.10213,-0.007 h 2.7362 l -2.80624,2.086462 z m 5.76423,0 h 0.85106 v 3.627201 l -5.12639,-0.448409 z m 3.08543,0 h 6.6802 c -0.0163,0.02113 -0.0275,0.04436 -0.0324,0.06917 l -0.61064,3.059084 z m -0.94997,0.542997 5.51488,2.857606 -5.51488,1.237232 z" />
  </g>
</svg>
