<?xml version="1.0" encoding="UTF-8" standalone="no"?>
<!-- Created with Inkscape (http://www.inkscape.org/) -->

<svg
   width="210mm"
   height="297mm"
   viewBox="0 0 210 297"
   version="1.1"
   id="svg5"
   inkscape:version="1.1 (c68e22c387, 2021-05-23)"
   sodipodi:docname="unlock icon svg.svg"
   xmlns:inkscape="http://www.inkscape.org/namespaces/inkscape"
   xmlns:sodipodi="http://sodipodi.sourceforge.net/DTD/sodipodi-0.dtd"
   xmlns="http://www.w3.org/2000/svg"
   xmlns:svg="http://www.w3.org/2000/svg">
  <sodipodi:namedview
     id="namedview7"
     pagecolor="#ffffff"
     bordercolor="#666666"
     borderopacity="1.0"
     inkscape:pageshadow="2"
     inkscape:pageopacity="0.0"
     inkscape:pagecheckerboard="0"
     inkscape:document-units="mm"
     showgrid="false"
     inkscape:zoom="1.0263363"
     inkscape:cx="362.4543"
     inkscape:cy="848.16254"
     inkscape:window-width="1680"
     inkscape:window-height="956"
     inkscape:window-x="-11"
     inkscape:window-y="-11"
     inkscape:window-maximized="1"
     inkscape:current-layer="layer1" />
  <defs
     id="defs2">
    <inkscape:path-effect
       effect="spiro"
       id="path-effect1956"
       is_visible="true"
       lpeversion="1" />
    <inkscape:path-effect
       effect="bend_path"
       id="path-effect1411"
       is_visible="true"
       lpeversion="1"
       bendpath="M 70.261571,196.06777 C 67.605856,131.8752 126.60299,139.28212 126.59743,164.10192"
       prop_scale="0.82431185"
       scale_y_rel="false"
       vertical="false"
       hide_knot="false"
       bendpath-nodetypes="cc" />
    <inkscape:path-effect
       effect="bend_path"
       id="path-effect1249"
       is_visible="true"
       lpeversion="1"
       bendpath="M 39.561695,200.18218 H 122.48301"
       prop_scale="1"
       scale_y_rel="false"
       vertical="false"
       hide_knot="false" />
    <inkscape:path-effect
       effect="spiro"
       id="path-effect2262"
       is_visible="true"
       lpeversion="1" />
    <inkscape:path-effect
       effect="spiro"
       id="path-effect2256"
       is_visible="true"
       lpeversion="1" />
    <inkscape:path-effect
       effect="spiro"
       id="path-effect2250"
       is_visible="true"
       lpeversion="1" />
    <inkscape:path-effect
       effect="spiro"
       id="path-effect2067"
       is_visible="true"
       lpeversion="1" />
    <inkscape:path-effect
       effect="spiro"
       id="path-effect2063"
       is_visible="true"
       lpeversion="1" />
    <inkscape:path-effect
       effect="spiro"
       id="path-effect1826"
       is_visible="true"
       lpeversion="1" />
  </defs>
  <g
     inkscape:label="Layer 1"
     inkscape:groupmode="layer"
     id="layer1">
    <path
       style="fill:#80e5ff;stroke:#000000;stroke-width:1.41741;stroke-linecap:round;stroke-linejoin:round;stroke-opacity:0.955017;paint-order:stroke markers fill"
       d=""
       id="path2441"
       transform="scale(0.26458333)" />
    <path
       style="fill:#80e5ff;stroke:#000000;stroke-width:1.41741;stroke-linecap:round;stroke-linejoin:round;stroke-opacity:0.955017;paint-order:stroke markers fill"
       d=""
       id="path2480"
       transform="scale(0.26458333)" />
    <path
       style="fill:#000000;stroke:#000000;stroke-width:1.41741;stroke-linecap:round;stroke-linejoin:round;stroke-opacity:0.955017;paint-order:stroke markers fill"
       d=""
       id="path2712"
       transform="scale(0.26458333)" />
    <path
       style="fill:#000000;stroke:#000000;stroke-width:1.41741;stroke-linecap:round;stroke-linejoin:round;stroke-opacity:0.955017;paint-order:stroke markers fill"
       d=""
       id="path2751"
       transform="scale(0.26458333)" />
    <path
       style="fill:#000000;stroke:#000000;stroke-width:1.41741;stroke-linecap:round;stroke-linejoin:round;stroke-opacity:0.955017;paint-order:stroke markers fill"
       d=""
       id="path2829"
       transform="scale(0.26458333)" />
    <path
       style="fill:#000000;stroke:#000000;stroke-width:1.41741;stroke-linecap:round;stroke-linejoin:round;stroke-opacity:0.955017;paint-order:stroke markers fill"
       d=""
       id="path2944"
       transform="scale(0.26458333)" />
    <path
       style="fill:#000000;stroke:#000000;stroke-width:1.41741;stroke-linecap:round;stroke-linejoin:round;stroke-opacity:0.955017;paint-order:stroke markers fill"
       d=""
       id="path3022"
       transform="scale(0.26458333)" />
    <path
       style="fill:#ffffff;stroke:#000000;stroke-width:1.7445;stroke-linecap:round;stroke-linejoin:round;stroke-opacity:0.955017;paint-order:stroke markers fill"
       d=""
       id="path4120"
       transform="scale(0.26458333)" />
    <path
       style="fill:#ffffff;stroke:#000000;stroke-width:1.7445;stroke-linecap:round;stroke-linejoin:round;stroke-opacity:0.955017;paint-order:stroke markers fill"
       d=""
       id="path4198"
       transform="scale(0.26458333)" />
    <path
       style="fill:#ffffff;stroke:#000000;stroke-width:1.7445;stroke-linecap:round;stroke-linejoin:round;stroke-opacity:0.955017;paint-order:stroke markers fill"
       d=""
       id="path4237"
       transform="scale(0.26458333)" />
    <path
       id="path2248"
       style="fill:none;stroke:#000000;stroke-width:0.774698;stroke-linecap:round;stroke-linejoin:round;stroke-opacity:0.955017;paint-order:stroke markers fill"
       d="m 180.64911,196.45386 a 1.9669263,2.9948315 0 0 1 -1.96692,2.99483 1.9669263,2.9948315 0 0 1 -1.96693,-2.99483 1.9669263,2.9948315 0 0 1 1.96693,-2.99483 1.9669263,2.9948315 0 0 1 1.96692,2.99483 z m -15.1442,-3.59425 h 16.5808 c 0.6374,0 1.15054,0.69685 1.15054,1.56243 v 4.12216 c 0,0.86558 -0.51314,1.56243 -1.15054,1.56243 h -16.5808 c -0.6374,0 -1.15055,-0.69685 -1.15055,-1.56243 v -4.12216 c 0,-0.86558 0.51315,-1.56243 1.15055,-1.56243 z m -4.64427,16.94958 22.29183,-0.64753 m -22.17262,21.69229 22.29183,-0.64753 m -22.53024,-4.53271 22.29183,-0.64753 m -21.815,-5.18026 22.29183,-0.64752 m -22.41104,-4.85649 22.29183,-0.64753 m -21.45082,-13.11251 h 20.60981 c 0.53196,0 0.96022,0.58157 0.96022,1.30397 v 31.8731 c 0,0.7224 -0.42826,1.30397 -0.96022,1.30397 h -20.60981 c -0.53196,0 -0.96022,-0.58157 -0.96022,-1.30397 v -31.8731 c 0,-0.7224 0.42826,-1.30397 0.96022,-1.30397 z m 2.37886,-1.72217 c 0.0324,-3.22814 -0.16109,-6.51215 -0.70573,-9.75556 -0.48307,-2.8938 -1.29275,-5.76373 -2.52904,-8.3736 -1.92894,-4.05763 -4.98583,-7.11315 -8.54953,-8.18492 v 0 c -2.96378,-0.87737 -6.16791,-0.33167 -8.8886,1.77379 -1.21267,0.93748 -2.31226,2.2626 -3.14468,3.95402 -0.52103,1.08005 -0.89105,2.281 -1.09157,3.54186 -0.18917,1.18951 0.18539,2.09477 0.6177,2.09952 l 2.2489,0.0247 c 0.43171,0.005 0.79153,-0.50018 0.87559,-1.02185 0.10189,-0.63236 0.29291,-1.2498 0.55454,-1.79129 0.42221,-0.90798 1.09406,-1.68325 1.86145,-2.30446 1.76439,-1.42517 4.06183,-1.77499 6.16852,-1.18614 2.45831,0.66962 4.70978,2.97299 6.13326,5.92845 0.95246,1.96887 1.58885,4.28412 2.00919,6.70955 0.47072,2.7349 0.63045,5.60668 0.60454,8.51885 -0.007,0.82806 0.32371,1.5181 0.76179,1.54337 l 2.24711,0.12961 c 0.43742,0.0252 0.81729,-0.6808 0.82656,-1.60587 z" />
    <g
       id="g3121">
      <path
         id="path2355"
         style="fill:none;stroke:#000000;stroke-width:0.774698;stroke-linecap:round;stroke-linejoin:round;stroke-opacity:0.955017;paint-order:stroke markers fill"
         d="m 153.34896,88.483565 a 1.9669263,2.9948315 0 0 1 -1.96692,2.99483 1.9669263,2.9948315 0 0 1 -1.96693,-2.99483 1.9669263,2.9948315 0 0 1 1.96693,-2.99483 1.9669263,2.9948315 0 0 1 1.96692,2.99483 z m -15.1442,-3.59425 h 16.5808 c 0.6374,0 1.15054,0.69685 1.15054,1.56243 v 4.12216 c 0,0.86558 -0.51314,1.56243 -1.15054,1.56243 h -16.5808 c -0.6374,0 -1.15055,-0.69685 -1.15055,-1.56243 v -4.12216 c 0,-0.86558 0.51315,-1.56243 1.15055,-1.56243 z m -4.64427,16.949575 22.29183,-0.64753 m -22.17262,21.69229 22.29183,-0.64753 m -22.53024,-4.53271 22.29183,-0.64753 m -21.815,-5.18026 22.29183,-0.64752 m -22.41104,-4.85649 22.29183,-0.64753 M 134.63992,92.611575 h 20.60981 c 0.53196,0 0.96022,0.58157 0.96022,1.30397 v 31.873095 c 0,0.7224 -0.42826,1.30397 -0.96022,1.30397 h -20.60981 c -0.53196,0 -0.96022,-0.58157 -0.96022,-1.30397 V 93.915545 c 0,-0.7224 0.42826,-1.30397 0.96022,-1.30397 z m 2.37886,-1.72217 c 0.0324,-3.22814 -0.16109,-6.51215 -0.70573,-9.75556 -0.48307,-2.8938 -1.29275,-5.76373 -2.52904,-8.3736 -1.92894,-4.05763 -4.98583,-7.11315 -8.54953,-8.18492 v 0 c -2.96378,-0.87737 -6.16791,-0.33167 -8.8886,1.77379 -1.21267,0.93748 -2.31226,2.2626 -3.14468,3.95402 -0.52103,1.08005 -0.89105,2.281 -1.09157,3.54186 -0.18917,1.18951 0.18539,2.09477 0.6177,2.09952 l 2.2489,0.0247 c 0.43171,0.005 0.79153,-0.50018 0.87559,-1.02185 0.10189,-0.63236 0.29291,-1.2498 0.55454,-1.79129 0.42221,-0.90798 1.09406,-1.68325 1.86145,-2.30446 1.76439,-1.42517 4.06183,-1.77499 6.16852,-1.18614 2.45831,0.66962 4.70978,2.97299 6.13326,5.92845 0.95246,1.96887 1.58885,4.28412 2.00919,6.70955 0.47072,2.7349 0.63045,5.60668 0.60454,8.51885 -0.007,0.82806 0.32371,1.5181 0.76179,1.54337 l 2.24711,0.12961 c 0.43742,0.0252 0.81729,-0.6808 0.82656,-1.60587 z" />
      <path
         style="fill:#93a7ac;stroke:#000000;stroke-width:7.97966;stroke-linecap:round;stroke-linejoin:round;stroke-miterlimit:4;stroke-dasharray:none;stroke-opacity:0.955017;paint-order:stroke markers fill"
         d="m 505.96633,346.59783 c -0.0136,-0.16447 -0.53481,-8.10423 -1.15836,-17.64389 -1.80702,-27.64552 -7.63649,-45.62171 -18.5932,-57.33531 -7.45198,-7.96678 -13.63675,-10.84787 -23.28686,-10.84787 -13.17775,0 -23.12594,7.29098 -26.36596,19.32349 -1.18134,4.38715 -1.46618,4.60043 -6.14406,4.60043 h -4.9053 l 0.7123,-6.01424 c 0.88709,-7.49015 7.00693,-19.18731 12.61458,-24.11089 2.33312,-2.0485 7.13073,-5.04704 10.66135,-6.66342 8.45958,-3.87292 20.66956,-3.49728 29.38603,0.90406 22.12481,11.17183 36.67369,45.91923 36.67369,87.58859 v 10.4981 h -4.78479 c -2.63163,0 -4.79587,-0.13457 -4.80942,-0.29905 z"
         id="path2412"
         transform="scale(0.26458333)" />
      <path
         style="fill:#a0892c;stroke:#000000;stroke-width:7.97966;stroke-linecap:round;stroke-linejoin:round;stroke-miterlimit:4;stroke-dasharray:none;stroke-opacity:0.955017;paint-order:stroke markers fill"
         d="m 508.00049,477.69685 c -0.44733,-0.44733 -0.81332,-3.08994 -0.81332,-5.87248 v -5.05916 l 17.04579,-0.70869 c 9.37519,-0.38978 27.70564,-1.04391 40.73433,-1.45363 l 23.68854,-0.74494 -0.36271,7.01121 -0.36272,7.0112 -39.55829,0.31491 c -21.75707,0.1732 -39.9243,-0.0511 -40.37162,-0.49842 z"
         id="path2488"
         transform="scale(0.26458333)" />
      <path
         style="fill:#a0892c;stroke:#000000;stroke-width:7.97966;stroke-linecap:round;stroke-linejoin:round;stroke-miterlimit:4;stroke-dasharray:none;stroke-opacity:0.955017;paint-order:stroke markers fill"
         d="m 507.18717,454.80288 c 0,-4.00638 0.40371,-7.52236 0.89714,-7.8133 0.49343,-0.29093 18.79523,-0.92107 40.67067,-1.4003 l 39.77352,-0.87135 v 7.13754 7.13754 l -17.04579,0.75855 c -9.37519,0.4172 -27.67699,1.11339 -40.67067,1.5471 l -23.62487,0.78856 z"
         id="path2527"
         transform="scale(0.26458333)" />
      <path
         style="fill:#a0892c;stroke:#000000;stroke-width:7.97966;stroke-linecap:round;stroke-linejoin:round;stroke-miterlimit:4;stroke-dasharray:none;stroke-opacity:0.955017;paint-order:stroke markers fill"
         d="m 507.18717,433.82365 v -8.89373 l 27.81156,-0.7577 c 15.29635,-0.41673 33.59815,-1.07692 40.67066,-1.46708 l 12.85911,-0.70938 v 8.96715 8.96715 l -30.80205,0.74111 c -16.94113,0.40761 -35.24293,1.03476 -40.67067,1.39366 l -9.86861,0.65255 z"
         id="path2605"
         transform="scale(0.26458333)" />
      <path
         style="fill:#a0892c;stroke:#000000;stroke-width:7.97966;stroke-linecap:round;stroke-linejoin:round;stroke-miterlimit:4;stroke-dasharray:none;stroke-opacity:0.955017;paint-order:stroke markers fill"
         d="m 507.18717,412.40307 v -7.83479 l 10.46671,-0.70158 c 5.7567,-0.38587 24.0585,-1.04469 40.67067,-1.46405 l 30.20395,-0.76248 v 7.74416 7.74416 l -9.27052,0.74248 c -5.09878,0.40837 -23.40058,1.10798 -40.67067,1.55469 l -31.40014,0.8122 z"
         id="path2644"
         transform="scale(0.26458333)" />
      <path
         style="fill:#a0892c;stroke:#000000;stroke-width:7.97966;stroke-linecap:round;stroke-linejoin:round;stroke-miterlimit:4;stroke-dasharray:none;stroke-opacity:0.955017;paint-order:stroke markers fill"
         d="m 507.44944,367.67042 0.33582,-15.39066 39.39361,-0.31567 c 30.71965,-0.24617 39.60491,0.0172 40.3533,1.1962 0.52783,0.83153 0.96794,7.23714 0.97802,14.23471 l 0.0183,12.72284 -18.84009,0.72077 c -10.36205,0.39642 -28.6804,1.05865 -40.70744,1.47162 l -21.86736,0.75085 z"
         id="path2722"
         transform="scale(0.26458333)" />
      <path
         style="fill:#a0892c;stroke:#000000;stroke-width:7.97966;stroke-linecap:round;stroke-linejoin:round;stroke-miterlimit:4;stroke-dasharray:none;stroke-opacity:0.955017;paint-order:stroke markers fill"
         d="m 507.18717,393.88339 v -5.96788 l 15.84959,-0.75371 c 8.71728,-0.41454 27.01908,-1.11077 40.67067,-1.54717 l 24.82107,-0.79346 v 5.98862 5.98861 l -23.62487,0.77723 c -12.99368,0.42748 -31.29548,1.11438 -40.67067,1.52644 l -17.04579,0.74921 z"
         id="path2761"
         transform="scale(0.26458333)" />
      <path
         style="fill:#445016;stroke:#000000;stroke-width:7.97966;stroke-linecap:round;stroke-linejoin:round;stroke-miterlimit:4;stroke-dasharray:none;stroke-opacity:0.955017;paint-order:stroke markers fill"
         d="m 520.85208,344.09971 c -0.33789,-0.88054 -0.45557,-5.85971 -0.26151,-11.06482 l 0.35285,-9.46383 22.42868,-0.32545 c 12.33577,-0.17899 22.42868,-0.11016 22.42868,0.15297 0,0.26312 -0.84321,2.49648 -1.87379,4.96301 -1.91447,4.58197 -1.45631,13.02978 0.78167,14.41293 3.69073,2.281 -0.95595,2.92617 -21.07506,2.92617 -17.41104,0 -22.29898,-0.34351 -22.78152,-1.60098 z"
         id="path2837"
         transform="scale(0.26458333)" />
      <path
         style="fill:#445016;stroke:#000000;stroke-width:4.61047;stroke-linecap:round;stroke-linejoin:round;stroke-miterlimit:4;stroke-dasharray:none;stroke-opacity:0.955017;paint-order:stroke markers fill"
         d="m 578.05091,344.55637 c 4.15498,-4.4833 4.17872,-15.88916 0.0426,-20.45955 -1.18416,-1.30848 -1.11355,-1.33652 3.36565,-1.33652 3.816,0 4.6939,0.22183 5.29063,1.33684 0.93091,1.73941 0.93091,19.08552 0,20.82494 -0.60148,1.12389 -1.47696,1.33683 -5.49608,1.33683 h -4.78063 z"
         id="path2915"
         transform="scale(0.26458333)" />
      <path
         style="fill:#22280b;stroke:#000000;stroke-width:4.61047;stroke-linecap:round;stroke-linejoin:round;stroke-miterlimit:4;stroke-dasharray:none;stroke-opacity:0.955017;paint-order:stroke markers fill"
         d="m 571.22353,343.65657 c -0.38012,-0.27927 -1.43144,-1.56078 -2.33625,-2.84779 -2.69165,-3.82861 -1.77408,-12.44626 1.62565,-15.26778 1.39163,-1.15495 3.96879,-0.10519 5.50769,2.24346 2.73663,4.17663 1.66242,12.87143 -1.89837,15.3655 -1.67286,1.17172 -1.93182,1.21698 -2.89872,0.50661 z"
         id="path2991"
         transform="scale(0.26458333)" />
    </g>
    <g
       id="g3358">
      <path
         id="path2353"
         style="fill:none;stroke:#000000;stroke-width:0.774698;stroke-linecap:round;stroke-linejoin:round;stroke-opacity:0.955017;paint-order:stroke markers fill"
         d="m 64.730766,91.015514 a 1.9669263,2.9948315 0 0 1 -1.96692,2.99483 1.9669263,2.9948315 0 0 1 -1.96693,-2.99483 1.9669263,2.9948315 0 0 1 1.96693,-2.99483 1.9669263,2.9948315 0 0 1 1.96692,2.99483 z m -15.1442,-3.59425 h 16.5808 c 0.6374,0 1.15054,0.69685 1.15054,1.56243 v 4.12216 c 0,0.86558 -0.51314,1.56243 -1.15054,1.56243 h -16.5808 c -0.6374,0 -1.15055,-0.69685 -1.15055,-1.56243 v -4.12216 c 0,-0.86558 0.51315,-1.56243 1.15055,-1.56243 z m -4.64427,16.949576 22.29183,-0.64753 m -22.17262,21.69229 22.29183,-0.64753 m -22.53024,-4.53271 22.29183,-0.64753 m -21.815,-5.18026 22.29183,-0.64752 m -22.41104,-4.85649 22.29183,-0.64753 M 46.021726,95.143524 h 20.60981 c 0.53196,0 0.96022,0.58157 0.96022,1.30397 v 31.873096 c 0,0.7224 -0.42826,1.30397 -0.96022,1.30397 h -20.60981 c -0.53196,0 -0.96022,-0.58157 -0.96022,-1.30397 V 96.447494 c 0,-0.7224 0.42826,-1.30397 0.96022,-1.30397 z m 2.37886,-1.72217 c 0.0324,-3.22814 -0.16109,-6.51215 -0.70573,-9.75556 -0.48307,-2.8938 -1.29275,-5.76373 -2.52904,-8.3736 -1.92894,-4.05763 -4.98583,-7.11315 -8.54953,-8.18492 v 0 c -2.96378,-0.87737 -6.167909,-0.33167 -8.888599,1.77379 -1.21267,0.93748 -2.31226,2.2626 -3.14468,3.95402 -0.52103,1.08005 -0.89105,2.281 -1.09157,3.54186 -0.18917,1.18951 0.18539,2.09477 0.6177,2.09952 l 2.2489,0.0247 c 0.43171,0.005 0.79153,-0.50018 0.87559,-1.02185 0.10189,-0.63236 0.29291,-1.2498 0.55454,-1.79129 0.42221,-0.90798 1.09406,-1.68325 1.86145,-2.30446 1.76439,-1.42517 4.061829,-1.77499 6.168519,-1.18614 2.45831,0.66962 4.70978,2.97299 6.13326,5.92845 0.95246,1.96887 1.58885,4.28412 2.00919,6.70955 0.47072,2.7349 0.63045,5.60668 0.60454,8.51885 -0.007,0.82806 0.32371,1.5181 0.76179,1.54337 l 2.24711,0.12961 c 0.43742,0.0252 0.81729,-0.6808 0.82656,-1.60587 z" />
      <path
         style="fill:#000000;stroke:#000000;stroke-width:6.49969;stroke-linecap:round;stroke-linejoin:round;stroke-miterlimit:4;stroke-dasharray:none;stroke-opacity:0.955017;paint-order:stroke markers fill"
         d="m 174.40677,356.72358 -3.41019,-0.60249 -0.68418,-12.66641 c -1.2367,-22.89548 -5.00783,-39.80121 -11.66611,-52.2984 -3.66247,-6.87422 -11.838,-15.23221 -17.82398,-18.22176 -9.70201,-4.84541 -22.61402,-3.42331 -30.54348,3.36401 -4.21243,3.60569 -8.94752,11.47885 -8.94752,14.87729 0,2.93189 -2.090069,3.97534 -6.719093,3.35446 l -4.235918,-0.56815 0.532306,-4.4945 c 1.840589,-15.54089 13.431785,-29.66335 27.767015,-33.83071 23.53747,-6.84253 46.93344,12.76077 56.5928,47.41865 4.20277,15.07958 7.39588,48.07245 5.07266,52.41342 -0.62214,1.16248 -1.44459,2.05589 -1.82765,1.98535 -0.38306,-0.0705 -2.23105,-0.39938 -4.10666,-0.73076 z"
         id="path3178"
         transform="scale(0.26458333)" />
      <path
         style="fill:#000000;stroke:#000000;stroke-width:6.49969;stroke-linecap:round;stroke-linejoin:round;stroke-miterlimit:4;stroke-dasharray:none;stroke-opacity:0.955017;paint-order:stroke markers fill"
         d="m 236.01325,352.96652 c -1.85743,-0.64743 -4.12045,-5.60394 -4.12045,-9.02467 0,-1.66089 0.64846,-4.27376 1.44101,-5.8064 2.40181,-4.64457 5.43993,-4.63295 7.85126,0.0301 3.33209,6.44356 -0.19443,16.53596 -5.17182,14.80102 z"
         id="path3217"
         transform="scale(0.26458333)" />
    </g>
    <g
       id="g3896">
      <path
         id="path2351"
         style="fill:none;stroke:#000000;stroke-width:0.774698;stroke-linecap:round;stroke-linejoin:round;stroke-opacity:0.955017;paint-order:stroke markers fill"
         d="m 43.209204,205.26969 a 1.9669263,2.9948315 0 0 1 -1.96692,2.99483 1.9669263,2.9948315 0 0 1 -1.96693,-2.99483 1.9669263,2.9948315 0 0 1 1.96693,-2.99483 1.9669263,2.9948315 0 0 1 1.96692,2.99483 z m -15.1442,-3.59425 h 16.5808 c 0.6374,0 1.15054,0.69685 1.15054,1.56243 v 4.12216 c 0,0.86558 -0.51314,1.56243 -1.15054,1.56243 h -16.5808 c -0.6374,0 -1.15055,-0.69685 -1.15055,-1.56243 v -4.12216 c 0,-0.86558 0.51315,-1.56243 1.15055,-1.56243 z m -4.64427,16.94958 22.29183,-0.64753 m -22.17262,21.69229 22.29183,-0.64753 m -22.53024,-4.53271 22.29183,-0.64753 m -21.815,-5.18026 22.29183,-0.64752 m -22.41104,-4.85649 22.29183,-0.64753 M 24.500164,209.3977 h 20.60981 c 0.53196,0 0.96022,0.58157 0.96022,1.30397 v 31.8731 c 0,0.7224 -0.42826,1.30397 -0.96022,1.30397 h -20.60981 c -0.53196,0 -0.96022,-0.58157 -0.96022,-1.30397 v -31.8731 c 0,-0.7224 0.42826,-1.30397 0.96022,-1.30397 z m 2.37886,-1.72217 c 0.0324,-3.22814 -0.16109,-6.51215 -0.70573,-9.75556 -0.48307,-2.8938 -1.29275,-5.76373 -2.52904,-8.3736 -1.92894,-4.05763 -4.98583,-7.11315 -8.54953,-8.18492 v 0 c -2.96378,-0.87737 -6.1679097,-0.33167 -8.8885997,1.77379 -1.21267,0.93748 -2.31226,2.2626 -3.14468,3.95402 -0.52103,1.08005 -0.89105,2.281 -1.09157,3.54186 -0.18917,1.18951 0.18539,2.09477 0.6177,2.09952 l 2.2489,0.0247 c 0.43171,0.005 0.79153,-0.50018 0.87559,-1.02185 0.10189,-0.63236 0.29291,-1.2498 0.55454,-1.79129 0.42221,-0.90798 1.09406,-1.68325 1.86145,-2.30446 1.76439,-1.42517 4.0618297,-1.77499 6.1685197,-1.18614 2.45831,0.66962 4.70978,2.97299 6.13326,5.92845 0.95246,1.96887 1.58885,4.28412 2.00919,6.70955 0.47072,2.7349 0.63045,5.60668 0.60454,8.51885 -0.007,0.82806 0.32371,1.5181 0.76179,1.54337 l 2.24711,0.12961 c 0.43742,0.0252 0.81729,-0.6808 0.82656,-1.60587 z" />
      <path
         style="fill:#ffffff;stroke:#000000;stroke-width:6.49969;stroke-linecap:round;stroke-linejoin:round;stroke-miterlimit:4;stroke-dasharray:none;stroke-opacity:0.955017;paint-order:stroke markers fill"
         d="m 91.863728,788.55167 c -2.613443,-0.53005 -2.917074,-2.12347 -3.586865,-18.82346 -1.06025,-26.43536 -7.433147,-45.62479 -19.098758,-57.50826 -7.474335,-7.61393 -13.137296,-10.17069 -22.409808,-10.11778 -8.53291,0.0487 -12.680825,1.57721 -18.467926,6.80551 -4.421055,3.99416 -6.454038,7.32501 -8.229549,13.48333 -1.107073,3.83986 -1.303418,3.98931 -5.611071,4.27091 -5.4301181,0.35498 -6.1242722,-1.08067 -4.305518,-8.90469 2.864982,-12.32475 11.000649,-22.82293 21.811193,-28.14495 5.787544,-2.84919 7.369404,-3.19009 14.802871,-3.19009 7.492373,0 9.001382,0.33168 15.122749,3.32399 22.717815,11.10518 36.637489,42.7417 36.905883,83.87939 l 0.09853,15.10226 -2.435848,0.13097 c -1.339717,0.072 -3.407865,-0.0662 -4.595883,-0.30713 z"
         id="path3415"
         transform="scale(0.26458333)" />
      <path
         style="fill:#ffffff;stroke:#000000;stroke-width:6.49969;stroke-linecap:round;stroke-linejoin:round;stroke-miterlimit:4;stroke-dasharray:none;stroke-opacity:0.955017;paint-order:stroke markers fill"
         d="m 104.28861,785.3817 c -1.27691,-2.38593 -1.31779,-15.68778 -0.0584,-19.00025 l 0.95023,-2.49927 h 23.0721 c 21.90364,0 22.99503,0.0864 21.55023,1.70509 -3.73852,4.18859 -4.22677,12.82905 -1.07363,18.99962 l 1.36919,2.67944 h -22.40055 c -21.14957,0 -22.45688,-0.10525 -23.40917,-1.88463 z"
         id="path3454"
         transform="scale(0.26458333)" />
      <path
         style="fill:#ffffff;stroke:#000000;stroke-width:6.49969;stroke-linecap:round;stroke-linejoin:round;stroke-miterlimit:4;stroke-dasharray:none;stroke-opacity:0.955017;paint-order:stroke markers fill"
         d="m 153.10188,783.28466 c -2.71232,-2.91133 -3.40455,-7.90739 -1.6706,-12.05731 2.55688,-6.11948 6.87688,-5.74321 9.0665,0.78969 1.42881,4.26298 0.73778,8.53181 -1.82669,11.28445 -2.35428,2.52701 -3.20165,2.52445 -5.56921,-0.0168 z"
         id="path3493"
         transform="scale(0.26458333)" />
      <path
         style="fill:#ffffff;stroke:#000000;stroke-width:6.49969;stroke-linecap:round;stroke-linejoin:round;stroke-miterlimit:4;stroke-dasharray:none;stroke-opacity:0.955017;paint-order:stroke markers fill"
         d="m 161.74036,786.74488 c 0,-0.2868 0.71855,-1.6181 1.59678,-2.95844 2.40615,-3.67226 2.21418,-11.90518 -0.38014,-16.30221 l -2.12526,-3.60205 h 4.31739 c 5.53352,0 6.33868,1.45005 6.32132,11.38443 -0.0197,11.28922 -0.34296,11.99972 -5.4592,11.99972 -2.34899,0 -4.27089,-0.23466 -4.27089,-0.52145 z"
         id="path3532"
         transform="scale(0.26458333)" />
      <path
         style="fill:#ffffff;stroke:#000000;stroke-width:6.49969;stroke-linecap:round;stroke-linejoin:round;stroke-miterlimit:4;stroke-dasharray:none;stroke-opacity:0.955017;paint-order:stroke markers fill"
         d="m 90.613575,810.0155 c 0,-10.029 0.364112,-14.92884 1.169207,-15.73393 1.679418,-1.67942 77.826688,-1.67942 79.506108,0 0.79516,0.79516 1.1692,5.42345 1.1692,14.46725 v 13.29805 l -26.55075,0.64875 c -14.60291,0.35682 -33.01793,0.92682 -40.92226,1.26668 l -14.371505,0.61792 z"
         id="path3571"
         transform="scale(0.26458333)" />
      <path
         style="fill:#ffffff;stroke:#000000;stroke-width:6.49969;stroke-linecap:round;stroke-linejoin:round;stroke-miterlimit:4;stroke-dasharray:none;stroke-opacity:0.955017;paint-order:stroke markers fill"
         d="m 90.613575,835.21379 v -6.73494 l 13.397165,-0.61397 c 7.36845,-0.33769 25.78346,-0.90774 40.92226,-1.26679 l 27.52509,-0.65282 v 6.35501 6.35501 l -9.49981,0.59443 c -5.22489,0.32694 -21.77648,0.83741 -36.78131,1.13439 -15.00483,0.29698 -29.144934,0.77051 -31.422453,1.05229 l -4.140942,0.51234 z"
         id="path3610"
         transform="scale(0.26458333)" />
      <path
         style="fill:#ffffff;stroke:#000000;stroke-width:6.49969;stroke-linecap:round;stroke-linejoin:round;stroke-miterlimit:4;stroke-dasharray:none;stroke-opacity:0.955017;paint-order:stroke markers fill"
         d="m 90.613575,854.21341 v -8.36731 l 4.140942,-0.51561 c 2.277519,-0.28358 15.979173,-0.75813 30.448113,-1.05456 14.46894,-0.29643 31.02053,-0.80536 36.78131,-1.13096 l 10.47415,-0.592 v 8.74709 8.7471 l -27.52509,0.65281 c -15.1388,0.35905 -33.55381,0.92911 -40.92226,1.26679 l -13.397165,0.61397 z"
         id="path3649"
         transform="scale(0.26458333)" />
      <path
         style="fill:#ffffff;stroke:#000000;stroke-width:6.49969;stroke-linecap:round;stroke-linejoin:round;stroke-miterlimit:4;stroke-dasharray:none;stroke-opacity:0.955017;paint-order:stroke markers fill"
         d="m 90.613575,875.6 v -9.13741 l 12.422825,-0.61505 c 6.83256,-0.33828 25.24758,-0.90462 40.92226,-1.25853 l 28.49943,-0.64347 v 8.78391 8.78391 l -11.93566,0.61031 c -6.56461,0.33567 -23.99311,0.8585 -38.72999,1.16185 -14.73689,0.30335 -27.780856,0.75412 -28.986602,1.00171 -2.149616,0.44142 -2.192263,0.27242 -2.192263,-8.68723 z"
         id="path3688"
         transform="scale(0.26458333)" />
      <path
         style="fill:#ffffff;stroke:#000000;stroke-width:6.49969;stroke-linecap:round;stroke-linejoin:round;stroke-miterlimit:4;stroke-dasharray:none;stroke-opacity:0.955017;paint-order:stroke markers fill"
         d="m 90.613575,896.14936 v -8.22904 l 28.986605,-0.65115 c 15.94263,-0.35813 34.35764,-0.92748 40.92225,-1.26523 l 11.93566,-0.61407 v 7.82185 7.82184 l -8.0383,0.57703 c -4.42106,0.31736 -20.31498,0.82117 -35.3198,1.11957 -15.00483,0.2984 -29.802615,0.79133 -32.883963,1.0954 l -5.602452,0.55284 z"
         id="path3727"
         transform="scale(0.26458333)" />
      <path
         style="fill:#ffffff;stroke:#000000;stroke-width:6.49969;stroke-linecap:round;stroke-linejoin:round;stroke-miterlimit:4;stroke-dasharray:none;stroke-opacity:0.955017;paint-order:stroke markers fill"
         d="m 91.204988,918.2353 c -0.325277,-0.84766 -0.591413,-3.44348 -0.591413,-5.76848 v -4.22729 l 6.089622,-0.54237 c 3.349293,-0.2983 17.270163,-0.7795 30.935283,-1.06934 13.66511,-0.28983 29.33979,-0.79071 34.83263,-1.11307 l 9.98698,-0.58612 v 5.88274 c 0,9.87121 4.13589,8.96513 -40.92226,8.96513 -35.338342,0 -39.804927,-0.17069 -40.330842,-1.5412 z"
         id="path3766"
         transform="scale(0.26458333)" />
    </g>
  </g>
</svg>
